@ File generated by m4a2s Song-Module
	.include "MPlayDef.s"

	.equ	seq_016_grp, bank_000
	.equ	seq_016_pri, 50
	.equ	seq_016_rev, 208
	.equ	seq_016_mvl, 127
	.equ	seq_016_key, 0

	.section .rodata
	.global	seq_016
	.align	2

@*********************** Track 01 ***********************@

seq_016_0:
	.byte	KEYSH , seq_016_key+0
	.byte	TEMPO , 70/2
	.byte		VOICE , 6
	.byte		VOL   , 62*seq_016_mvl/mxv
	.byte		PAN   , c_v+20
	.byte	W01
	.byte		MODT  , mod_pan
	.byte	W23
	.byte	W96
	.byte	W96
	.byte	W96
	.byte	W96
	.byte	W20
	.byte		N04   , Cs2 , v060
	.byte	W04
	.byte		N03   , As2 , v100
	.byte	W08
	.byte		N04   , Cs2 , v060
	.byte	W04
	.byte		N08   , As2 , v100
	.byte	W08
	.byte		N04   , Bn2 , v060
	.byte	W04
	.byte		N08   , Cs3 , v100
	.byte	W12
	.byte		        Cs3 , v116
	.byte	W08
	.byte		N04   , Fs3 , v112
	.byte	W04
	.byte		N08   , Fn3 , v100
	.byte	W08
	.byte		N02   , Fs3 , v120
	.byte	W02
	.byte		        Fn3 , v088
	.byte	W02
	.byte		N08   , Cs3 , v104
	.byte	W08
	.byte		N04   , Bn2 , v056
	.byte	W04
	.byte		N06   , As2 , v100
	.byte	W12
	.byte		N08
	.byte	W08
	.byte		N04   , Bn2 , v076
	.byte	W04
	.byte		N14   , Cs3 , v100
	.byte	W20
	.byte		N04   , Cs2 , v060
	.byte	W04
	.byte		N06   , As2 , v100
	.byte	W12
	.byte		N08
	.byte	W08
	.byte		N04   , Bn2 , v076
	.byte	W04
	.byte		N20   , Cs3 , v100
	.byte	W24
	.byte	PEND
	.byte	W20
	.byte		N04   , Cs2 , v040
	.byte	W04
	.byte		N03   , As2 , v100
	.byte	W08
	.byte		N04   , Cs2 , v060
	.byte	W04
	.byte		N08   , As2 , v100
	.byte	W08
	.byte		N04   , Bn2 , v060
	.byte	W04
	.byte		N08   , Cs3 , v100
	.byte	W12
	.byte		        Cs3 , v116
	.byte	W08
	.byte		N04   , Fs3 , v112
	.byte	W04
	.byte		N08   , Fn3 , v100
	.byte	W08
	.byte		N02   , Fs3 , v120
	.byte	W02
	.byte		        Fn3 , v088
	.byte	W02
	.byte		N08   , Cs3 , v104
	.byte	W08
	.byte		N04   , Bn2 , v056
	.byte	W04
	.byte	PATT
	 .word	seq_016_0 + 0x45
	.byte	W96
	.byte	W96
	.byte	W96
	.byte	W72
	.byte		VOICE , 21
	.byte	W01
	.byte		VOL   , 75*seq_016_mvl/mxv
	.byte	W01
	.byte		PAN   , c_v+0
	.byte	W01
	.byte		MODT  , mod_pan
	.byte	W09
	.byte		N12   , As3 , v072
	.byte	W12
	.byte		N20   , Fs4 , v112
	.byte	W20
	.byte		N02   , Fn4 , v060
	.byte	W02
	.byte		        Fs4 , v084
	.byte	W02
	.byte		N20   , Cs4 , v068
	.byte	W20
	.byte		N04   , As3 , v124
	.byte	W04
	.byte		N08   , Bn3 
	.byte	W08
	.byte		N04   , As3 , v072
	.byte	W04
	.byte		N08   , Cs4 , v092
	.byte	W08
	.byte		N04   , Fn3 , v072
	.byte	W04
	.byte		N20   , Fs3 , v092
	.byte	W20
	.byte		N04   , As2 , v072
	.byte	W04
	.byte		N08   , Bn2 , v124
	.byte	W08
	.byte		N04   , Cs3 , v072
	.byte	W04
	.byte		N08   , As2 , v124
	.byte	W08
	.byte		N04   , Bn2 , v072
	.byte	W04
	.byte		N08   , Cs3 , v124
	.byte	W08
	.byte		N04   , As2 , v072
	.byte	W04
	.byte		N08   , Bn2 , v100
	.byte	W08
	.byte		N04   , As2 , v072
	.byte	W04
	.byte		N08   , Cs3 , v096
	.byte	W08
	.byte		N04   , As2 , v092
	.byte	W04
	.byte		N08   , Fn3 , v100
	.byte	W08
	.byte		N04   , As2 , v092
	.byte	W04
	.byte		N08   , Fs3 
	.byte	W08
	.byte		N04   , As2 
	.byte	W04
	.byte		N08   , As3 , v100
	.byte	W08
	.byte		N04   , As2 , v092
	.byte	W04
	.byte		N20   , Bn3 , v100
	.byte	W20
	.byte		N02   , As3 , v072
	.byte	W02
	.byte		        Bn3 , v100
	.byte	W02
	.byte		N20   , Fs3 , v116
	.byte	W20
	.byte		N04   , Cs3 , v072
	.byte	W04
	.byte		N08   , Fn3 , v116
	.byte	W08
	.byte		N02   , Ds3 , v072
	.byte	W02
	.byte		        Fn3 
	.byte	W02
	.byte		N08   , Fs3 , v116
	.byte	W08
	.byte		N04   , Bn2 , v092
	.byte	W04
	.byte		N20   , Cs3 , v116
	.byte	W19
	.byte		N02   , Bn2 , v072
	.byte	W02
	.byte		        As2 
	.byte	W02
	.byte		N13   , Gs2 , v096
	.byte	W01
	.byte	W02
	.byte		VOL   , 62*seq_016_mvl/mxv
	.byte	W02
	.byte		        56*seq_016_mvl/mxv
	.byte	W02
	.byte		        51*seq_016_mvl/mxv
	.byte	W01
	.byte		        49*seq_016_mvl/mxv
	.byte	W01
	.byte		        40*seq_016_mvl/mxv
	.byte	W01
	.byte		        34*seq_016_mvl/mxv
	.byte	W01
	.byte		        27*seq_016_mvl/mxv
	.byte	W60
	.byte	W02
	.byte		VOICE , 6
	.byte	W01
	.byte		VOL   , 62*seq_016_mvl/mxv
	.byte	W01
	.byte		PAN   , c_v+20
	.byte	W01
	.byte		MODT  , mod_pan
	.byte	W21
	.byte	GOTO
	 .word	seq_016_0 + 0x12
	.byte	FINE

@*********************** Track 02 ***********************@

seq_016_1:
	.byte	KEYSH , seq_016_key+0
	.byte	W01
	.byte		VOICE , 76
	.byte		VOL   , 53*seq_016_mvl/mxv
	.byte	W01
	.byte		PAN   , c_v-20
	.byte	W22
	.byte	W96
	.byte	W96
	.byte	W96
	.byte	W96
	.byte	W20
	.byte		N04   , Cs4 , v060
	.byte	W04
	.byte		N03   , As4 , v100
	.byte	W08
	.byte		N04   , Cs4 , v060
	.byte	W04
	.byte		N08   , As4 , v100
	.byte	W08
	.byte		N04   , Bn4 , v060
	.byte	W04
	.byte		N08   , Cs5 , v100
	.byte	W12
	.byte		        Cs5 , v116
	.byte	W08
	.byte		N04   , Fs5 , v112
	.byte	W04
	.byte		N08   , Fn5 , v100
	.byte	W08
	.byte		N02   , Fs5 , v120
	.byte	W02
	.byte		        Fn5 , v088
	.byte	W02
	.byte		N08   , Cs5 , v104
	.byte	W08
	.byte		N04   , Bn4 , v056
	.byte	W04
	.byte	PEND
	.byte		N06   , As4 , v100
	.byte	W12
	.byte		N08
	.byte	W08
	.byte		N04   , Bn4 , v076
	.byte	W04
	.byte		N14   , Cs5 
	.byte	W20
	.byte		N04   , Cs4 , v060
	.byte	W04
	.byte		N06   , As4 , v100
	.byte	W12
	.byte		N08
	.byte	W08
	.byte		N04   , Bn4 , v076
	.byte	W04
	.byte		N20   , Cs5 
	.byte	W24
	.byte	PATT
	 .word	seq_016_1 + 0xF
	.byte		N06   , As4 , v100
	.byte	W12
	.byte		N08
	.byte	W08
	.byte		N04   , Bn4 , v076
	.byte	W04
	.byte		N14   , Cs5 
	.byte	W20
	.byte		N04   , Cs4 , v060
	.byte	W04
	.byte		N06   , As4 , v100
	.byte	W12
	.byte		N08
	.byte	W08
	.byte		N04   , Bn4 , v076
	.byte	W04
	.byte		N20   , Cs5 
	.byte	W23
	.byte		VOL   , 80*seq_016_mvl/mxv
	.byte		PAN   , c_v+0
	.byte	W01
	.byte	W20
	.byte		N04   , Bn4 , v060
	.byte	W04
	.byte		N20   , Fs5 , v088
	.byte	W20
	.byte		N04   , Fn5 , v060
	.byte	W04
	.byte		        Fs5 , v100
	.byte	W12
	.byte		N08
	.byte	W08
	.byte		N04   , Fn5 , v060
	.byte	W04
	.byte		N08   , Fs5 , v100
	.byte	W08
	.byte		N02   , As5 , v120
	.byte	W02
	.byte		        Fs5 , v088
	.byte	W02
	.byte		N08   , Fn5 , v104
	.byte	W08
	.byte		N04   , Cs5 , v056
	.byte	W04
	.byte		N06   , As4 , v068
	.byte	W96
	.byte	W20
	.byte		N04   , Bn4 , v060
	.byte	W04
	.byte		N20   , Fs5 , v088
	.byte	W20
	.byte		N04   , Fn5 , v060
	.byte	W04
	.byte		        Fs5 , v100
	.byte	W12
	.byte		N08
	.byte	W08
	.byte		N04   , Fn5 , v060
	.byte	W04
	.byte		N08   , Fs5 , v100
	.byte	W08
	.byte		N02   , Bn5 , v120
	.byte	W02
	.byte		        As5 , v088
	.byte	W02
	.byte		N08   , Bn5 , v104
	.byte	W08
	.byte		N04   , As5 , v056
	.byte	W04
	.byte		N06   , Fn5 , v072
	.byte	W96
	.byte	W96
	.byte	W96
	.byte	W96
	.byte	W72
	.byte	W01
	.byte		VOL   , 53*seq_016_mvl/mxv
	.byte	W01
	.byte		PAN   , c_v-20
	.byte	W22
	.byte	GOTO
	 .word	seq_016_1 + 0xF
	.byte	FINE

@*********************** Track 03 ***********************@

seq_016_2:
	.byte	KEYSH , seq_016_key+0
	.byte	W02
	.byte		VOICE , 94
	.byte		VOL   , 62*seq_016_mvl/mxv
	.byte	W01
	.byte		PAN   , c_v-40
	.byte		MODT  , mod_pan
	.byte	W21
	.byte	W96
	.byte	W96
	.byte	W96
	.byte	W96
	.byte	W96
	.byte	W96
	.byte	W96
	.byte	W96
	.byte		VOICE , 96
	.byte		MOD   , 0
	.byte		VOL   , 62*seq_016_mvl/mxv
	.byte	W92
	.byte	W03
	.byte		PAN   , c_v-40
	.byte	W01
	.byte	PEND
	.byte		N08   , Fn4 , v060
	.byte	W11
	.byte		PAN   , c_v+40
	.byte	W01
	.byte		N08
	.byte	W08
	.byte		N04   , Fs4 , v040
	.byte	W03
	.byte		PAN   , c_v-40
	.byte	W01
	.byte		N08   , Fn4 , v060
	.byte	W11
	.byte		PAN   , c_v+40
	.byte	W01
	.byte		N08   , Cs4 
	.byte	W11
	.byte		PAN   , c_v-40
	.byte	W01
	.byte		N08   , Bn3 
	.byte	W08
	.byte		N04   , Fs3 , v004
	.byte	W03
	.byte		PAN   , c_v+40
	.byte	W01
	.byte		N08   , Cs4 , v060
	.byte	W08
	.byte		N04   , Fs3 , v004
	.byte	W03
	.byte		PAN   , c_v-40
	.byte	W01
	.byte		N08   , Bn3 , v060
	.byte	W11
	.byte		PAN   , c_v+40
	.byte	W01
	.byte		N08   , As3 
	.byte	W12
	.byte	PATT
	 .word	seq_016_2 + 0x15
	.byte		N08   , Fn4 , v060
	.byte	W11
	.byte		PAN   , c_v+40
	.byte	W01
	.byte		N08
	.byte	W08
	.byte		N04   , Fs4 , v040
	.byte	W03
	.byte		PAN   , c_v-40
	.byte	W01
	.byte		N08   , Fn4 , v060
	.byte	W11
	.byte		PAN   , c_v+40
	.byte	W01
	.byte		N08   , Cs4 
	.byte	W11
	.byte		PAN   , c_v-40
	.byte	W01
	.byte		N08   , Bn3 
	.byte	W08
	.byte		N04   , Fs3 , v004
	.byte	W03
	.byte		PAN   , c_v+40
	.byte	W01
	.byte		N08   , Cs4 , v060
	.byte	W08
	.byte		N04   , Fs3 , v004
	.byte	W03
	.byte		PAN   , c_v-40
	.byte	W01
	.byte		N08   , Bn3 , v060
	.byte	W11
	.byte		PAN   , c_v+40
	.byte	W01
	.byte		N08   , As3 
	.byte	W11
	.byte		VOICE , 94
	.byte		MOD   , 40
	.byte		VOL   , 75*seq_016_mvl/mxv
	.byte	W01
	.byte		TIE   , Fs2 , v112
	.byte	W96
	.byte	W96
	.byte	W96
	.byte		EOT
	.byte	W96
	.byte	GOTO
	 .word	seq_016_2 + 0x11
	.byte	FINE

@*********************** Track 04 ***********************@

seq_016_3:
	.byte	KEYSH , seq_016_key+0
	.byte		VOICE , 94
	.byte	W01
	.byte		VOL   , 62*seq_016_mvl/mxv
	.byte	W01
	.byte		PAN   , c_v+40
	.byte	W01
	.byte		MODT  , mod_pan
	.byte	W21
	.byte	W96
	.byte	W96
	.byte	W96
	.byte	W96
	.byte	W96
	.byte	W96
	.byte	W96
	.byte	W96
	.byte	W01
	.byte		VOICE , 96
	.byte		MOD   , 0
	.byte		VOL   , 62*seq_016_mvl/mxv
	.byte	W92
	.byte	W03
	.byte	PEND
	.byte		PAN   , c_v+40
	.byte	W01
	.byte		N08   , Fn3 , v060
	.byte	W11
	.byte		PAN   , c_v-40
	.byte	W01
	.byte		N08
	.byte	W08
	.byte		N04   , Fs3 , v040
	.byte	W03
	.byte		PAN   , c_v+40
	.byte	W01
	.byte		N08   , Fn3 , v060
	.byte	W11
	.byte		PAN   , c_v-40
	.byte	W01
	.byte		N08   , Cs3 
	.byte	W11
	.byte		PAN   , c_v+40
	.byte	W01
	.byte		N08   , Bn2 
	.byte	W08
	.byte		N04   , Fs2 , v004
	.byte	W03
	.byte		PAN   , c_v-40
	.byte	W01
	.byte		N08   , Cs3 , v060
	.byte	W08
	.byte		N04   , Fs2 , v004
	.byte	W03
	.byte		PAN   , c_v+40
	.byte	W01
	.byte		N08   , Bn2 , v060
	.byte	W11
	.byte		PAN   , c_v-40
	.byte	W01
	.byte		N08   , As2 
	.byte	W11
	.byte	PATT
	 .word	seq_016_3 + 0x16
	.byte		PAN   , c_v+40
	.byte	W01
	.byte		N08   , Fn3 , v060
	.byte	W11
	.byte		PAN   , c_v-40
	.byte	W01
	.byte		N08
	.byte	W08
	.byte		N04   , Fs3 , v040
	.byte	W03
	.byte		PAN   , c_v+40
	.byte	W01
	.byte		N08   , Fn3 , v060
	.byte	W11
	.byte		PAN   , c_v-40
	.byte	W01
	.byte		N08   , Cs3 
	.byte	W11
	.byte		PAN   , c_v+40
	.byte	W01
	.byte		N08   , Bn2 
	.byte	W08
	.byte		N04   , Fs2 , v004
	.byte	W03
	.byte		PAN   , c_v-40
	.byte	W01
	.byte		N08   , Cs3 , v060
	.byte	W08
	.byte		N04   , Fs2 , v004
	.byte	W03
	.byte		PAN   , c_v+40
	.byte	W01
	.byte		N08   , Bn2 , v060
	.byte	W11
	.byte		PAN   , c_v-40
	.byte	W01
	.byte		N08   , As2 
	.byte	W10
	.byte		VOICE , 94
	.byte		MOD   , 50
	.byte		VOL   , 75*seq_016_mvl/mxv
	.byte		LFOS  , 100
	.byte	W01
	.byte		N96   , Cs2 , v112
	.byte	W96
	.byte		N48   , Bn1 
	.byte	W48
	.byte		        As1 
	.byte	W48
	.byte		N96   , Cs2 
	.byte	W96
	.byte	W96
	.byte	GOTO
	 .word	seq_016_3 + 0x12
	.byte	FINE

@*********************** Track 05 ***********************@

seq_016_4:
	.byte	KEYSH , seq_016_key+0
	.byte	W06
	.byte		VOICE , 79
	.byte	W01
	.byte		VOL   , 40*seq_016_mvl/mxv
	.byte	W01
	.byte		PAN   , c_v+0
	.byte	W01
	.byte		MODT  , mod_pan
	.byte	W01
	.byte		LFOS  , 30
	.byte	W13
	.byte		MOD   , 0
	.byte	W01
	.byte		N03   , Cs3 , v112
	.byte	W08
	.byte		        Cs3 , v012
	.byte	W04
	.byte		        Cs3 , v112
	.byte	W08
	.byte		        Fs2 , v068
	.byte	W04
	.byte		        Cs3 , v112
	.byte	W04
	.byte		        Cs3 , v020
	.byte	W04
	.byte		        Fs3 , v080
	.byte	W04
	.byte		        Cs3 , v112
	.byte	W08
	.byte		        Bn2 , v068
	.byte	W04
	.byte		        Cs3 , v112
	.byte	W04
	.byte		        Cs3 , v040
	.byte	W08
	.byte		        Cs3 , v112
	.byte	W08
	.byte		        Bn2 , v068
	.byte	W04
	.byte		        Cs3 , v112
	.byte	W04
	.byte		        Cs3 , v040
	.byte	W04
	.byte		        Fs3 , v080
	.byte	W04
	.byte		        Cs3 , v112
	.byte	W08
	.byte		        Bn2 , v068
	.byte	W04
	.byte	PEND
	.byte		        Cs3 , v112
	.byte	W08
	.byte		        Cs3 , v012
	.byte	W04
	.byte		        Cs3 , v112
	.byte	W08
	.byte		        Fs2 , v068
	.byte	W04
	.byte		        Cs3 , v112
	.byte	W04
	.byte		        Cs3 , v020
	.byte	W04
	.byte		        Fs3 , v080
	.byte	W04
	.byte		        Cs3 , v112
	.byte	W08
	.byte		        Bn2 , v068
	.byte	W04
	.byte		        Cs3 , v112
	.byte	W04
	.byte		        Cs3 , v020
	.byte	W04
	.byte		        Fs3 , v080
	.byte	W04
	.byte		        Cs3 , v112
	.byte	W08
	.byte		        Bn2 , v068
	.byte	W04
	.byte		        Fs2 , v112
	.byte	W08
	.byte		        Fs2 , v040
	.byte	W04
	.byte		        Fs2 , v112
	.byte	W08
	.byte		        Fs2 , v040
	.byte	W03
	.byte		MOD   , 0
	.byte	W01
	.byte	PATT
	 .word	seq_016_4 + 0x15
	.byte		N03   , Cs3 , v112
	.byte	W08
	.byte		        Cs3 , v012
	.byte	W04
	.byte		        Cs3 , v112
	.byte	W08
	.byte		        Fs2 , v068
	.byte	W04
	.byte		        Cs3 , v112
	.byte	W04
	.byte		        Cs3 , v020
	.byte	W04
	.byte		        Fs3 , v080
	.byte	W04
	.byte		        Cs3 , v112
	.byte	W08
	.byte		        Bn2 , v068
	.byte	W04
	.byte		        Cs3 , v112
	.byte	W04
	.byte		        Cs3 , v020
	.byte	W04
	.byte		        Fs3 , v080
	.byte	W04
	.byte		        Cs3 , v112
	.byte	W08
	.byte		        Bn2 , v068
	.byte	W04
	.byte		        Fs2 , v112
	.byte	W08
	.byte		        Fs2 , v040
	.byte	W04
	.byte		        Fs2 , v112
	.byte	W08
	.byte		        Fs2 , v040
	.byte	W03
	.byte		MOD   , 30
	.byte	W01
	.byte	PATT
	 .word	seq_016_4 + 0x15
	.byte		N03   , Cs3 , v112
	.byte	W08
	.byte		        Cs3 , v012
	.byte	W04
	.byte		        Cs3 , v112
	.byte	W08
	.byte		        Fs2 , v068
	.byte	W04
	.byte		        Cs3 , v112
	.byte	W04
	.byte		        Cs3 , v020
	.byte	W04
	.byte		        Fs3 , v080
	.byte	W04
	.byte		        Cs3 , v112
	.byte	W08
	.byte		        Bn2 , v068
	.byte	W04
	.byte		        Cs3 , v112
	.byte	W04
	.byte		        Cs3 , v020
	.byte	W04
	.byte		        Fs3 , v080
	.byte	W04
	.byte		        Cs3 , v112
	.byte	W08
	.byte		        Bn2 , v068
	.byte	W04
	.byte		        Fs2 , v112
	.byte	W08
	.byte		        Fs2 , v040
	.byte	W04
	.byte		        Fs2 , v112
	.byte	W08
	.byte		        Fs2 , v040
	.byte	W04
	.byte		N03   , Cs3 , v112
	.byte	W08
	.byte		        Cs3 , v012
	.byte	W04
	.byte		        Cs3 , v112
	.byte	W04
	.byte		        Cs3 , v040
	.byte	W04
	.byte		        Fs2 , v068
	.byte	W04
	.byte		        Cs3 , v112
	.byte	W04
	.byte		        Cs3 , v040
	.byte	W04
	.byte		        Fs3 , v080
	.byte	W04
	.byte		        Cs3 , v112
	.byte	W04
	.byte		        Cs3 , v040
	.byte	W04
	.byte		        Bn2 , v068
	.byte	W04
	.byte		        Cs3 , v112
	.byte	W04
	.byte		        Cs3 , v040
	.byte	W08
	.byte		        Cs3 , v112
	.byte	W04
	.byte		        Cs3 , v040
	.byte	W04
	.byte		        Bn2 , v068
	.byte	W04
	.byte		        Cs3 , v112
	.byte	W04
	.byte		        Cs3 , v040
	.byte	W04
	.byte		        Fs3 , v080
	.byte	W04
	.byte		        Cs3 , v112
	.byte	W04
	.byte		        Cs3 , v040
	.byte	W04
	.byte		        Bn2 , v068
	.byte	W04
	.byte	PEND
	.byte		        Cs3 , v112
	.byte	W08
	.byte		        Cs3 , v012
	.byte	W04
	.byte		        Cs3 , v112
	.byte	W08
	.byte		        Fs2 , v068
	.byte	W04
	.byte		        Cs3 , v112
	.byte	W04
	.byte		        Cs3 , v040
	.byte	W04
	.byte		        Fs3 , v080
	.byte	W04
	.byte		        Cs3 , v112
	.byte	W04
	.byte		        Cs3 , v040
	.byte	W04
	.byte		        Bn2 , v068
	.byte	W04
	.byte		        Cs3 , v112
	.byte	W04
	.byte		        Cs3 , v040
	.byte	W04
	.byte		        Fs3 , v080
	.byte	W04
	.byte		        Cs3 , v112
	.byte	W04
	.byte		        Cs3 , v040
	.byte	W04
	.byte		        Bn2 , v068
	.byte	W04
	.byte		        As2 , v112
	.byte	W08
	.byte		        As2 , v040
	.byte	W04
	.byte		        Gs2 , v112
	.byte	W08
	.byte		        Gs2 , v040
	.byte	W04
	.byte	PATT
	 .word	seq_016_4 + 0x101
	.byte		N03   , Cs3 , v112
	.byte	W08
	.byte		        Cs3 , v012
	.byte	W04
	.byte		        Cs3 , v112
	.byte	W08
	.byte		        Fs2 , v068
	.byte	W04
	.byte		        Cs3 , v112
	.byte	W04
	.byte		        Cs3 , v040
	.byte	W04
	.byte		        Fs2 , v080
	.byte	W04
	.byte		        Cs3 , v112
	.byte	W04
	.byte		        Cs3 , v040
	.byte	W04
	.byte		        Bn2 , v068
	.byte	W04
	.byte		        Cs3 , v112
	.byte	W04
	.byte		        Cs3 , v040
	.byte	W04
	.byte		        Fs2 , v080
	.byte	W04
	.byte		        Cs3 , v112
	.byte	W04
	.byte		        Cs3 , v040
	.byte	W04
	.byte		        Bn2 , v068
	.byte	W04
	.byte		        Cs3 , v112
	.byte	W08
	.byte		        Cs3 , v040
	.byte	W04
	.byte		        Cs3 , v112
	.byte	W08
	.byte		        Cs3 , v040
	.byte	W04
	.byte	PEND
	.byte	PATT
	 .word	seq_016_4 + 0x101
	.byte	PATT
	 .word	seq_016_4 + 0x186
	.byte	PATT
	 .word	seq_016_4 + 0x186
	.byte	PATT
	 .word	seq_016_4 + 0x186
	.byte	PATT
	 .word	seq_016_4 + 0x186
	.byte	W96
	.byte	GOTO
	 .word	seq_016_4 + 0xC5
	.byte	FINE

@*********************** Track 06 ***********************@

seq_016_5:
	.byte	KEYSH , seq_016_key+0
	.byte	W06
	.byte		VOICE , 80
	.byte	W01
	.byte		VOL   , 47*seq_016_mvl/mxv
	.byte	W01
	.byte		PAN   , c_v+0
	.byte	W01
	.byte		MODT  , mod_pan
	.byte	W01
	.byte		LFOS  , 40
	.byte	W13
	.byte		MOD   , 0
	.byte	W01
	.byte		N03   , Fs3 , v112
	.byte	W08
	.byte		        Fs3 , v012
	.byte	W04
	.byte		        Fs3 , v112
	.byte	W08
	.byte		        Cs3 , v068
	.byte	W04
	.byte		        Fs3 , v112
	.byte	W12
	.byte		N03
	.byte	W12
	.byte		N03
	.byte	W08
	.byte		        As3 
	.byte	W04
	.byte		        Fs3 
	.byte	W08
	.byte		        Fn3 , v068
	.byte	W04
	.byte		        Fs3 , v112
	.byte	W12
	.byte		N03
	.byte	W08
	.byte		        Fn3 , v068
	.byte	W04
	.byte	PEND
	.byte		        Fs3 , v112
	.byte	W08
	.byte		        Fs3 , v012
	.byte	W04
	.byte		        Fs3 , v112
	.byte	W08
	.byte		        Cs3 , v068
	.byte	W04
	.byte		        Fs3 , v112
	.byte	W12
	.byte		N03
	.byte	W12
	.byte		N03
	.byte	W08
	.byte		        As3 
	.byte	W04
	.byte		        Fs3 
	.byte	W08
	.byte		        Fn3 , v068
	.byte	W04
	.byte		        Cs3 , v112
	.byte	W04
	.byte		        Cs3 , v040
	.byte	W08
	.byte		        Cs3 , v112
	.byte	W04
	.byte		        Cs3 , v040
	.byte	W07
	.byte		MOD   , 0
	.byte	W01
	.byte	PATT
	 .word	seq_016_5 + 0x15
	.byte		N03   , Fs3 , v112
	.byte	W08
	.byte		        Fs3 , v012
	.byte	W04
	.byte		        Fs3 , v112
	.byte	W08
	.byte		        Cs3 , v068
	.byte	W04
	.byte		        Fs3 , v112
	.byte	W12
	.byte		N03
	.byte	W12
	.byte		N03
	.byte	W08
	.byte		        As3 
	.byte	W04
	.byte		        Fs3 
	.byte	W08
	.byte		        Fn3 , v068
	.byte	W04
	.byte		        Cs3 , v112
	.byte	W04
	.byte		        Cs3 , v040
	.byte	W08
	.byte		        Cs3 , v112
	.byte	W04
	.byte		        Cs3 , v040
	.byte	W07
	.byte		MOD   , 60
	.byte	W01
	.byte	PEND
	.byte	PATT
	 .word	seq_016_5 + 0x15
	.byte	PATT
	 .word	seq_016_5 + 0x67
	.byte	PATT
	 .word	seq_016_5 + 0x15
	.byte		N03   , Fs3 , v112
	.byte	W08
	.byte		        Fs3 , v012
	.byte	W04
	.byte		        Fs3 , v112
	.byte	W08
	.byte		        Cs3 , v068
	.byte	W04
	.byte		        Fs3 , v112
	.byte	W12
	.byte		N03
	.byte	W12
	.byte		N03
	.byte	W08
	.byte		        As3 
	.byte	W04
	.byte		        Fs3 
	.byte	W08
	.byte		        Fn3 , v068
	.byte	W04
	.byte		        Fs3 , v112
	.byte	W04
	.byte		        Fs3 , v040
	.byte	W08
	.byte		        Fn3 , v112
	.byte	W04
	.byte		        Fn3 , v040
	.byte	W07
	.byte		MOD   , 60
	.byte	W01
	.byte	PATT
	 .word	seq_016_5 + 0x15
	.byte		N03   , Fs3 , v112
	.byte	W08
	.byte		        Fs3 , v012
	.byte	W04
	.byte		        Fs3 , v112
	.byte	W08
	.byte		        Cs3 , v068
	.byte	W04
	.byte		        Fs3 , v112
	.byte	W12
	.byte		N03
	.byte	W12
	.byte		N03
	.byte	W08
	.byte		        Cs3 
	.byte	W04
	.byte		        Fs3 
	.byte	W08
	.byte		        Fn3 , v068
	.byte	W04
	.byte		        Fs3 , v112
	.byte	W04
	.byte		        Fs3 , v040
	.byte	W08
	.byte		        Fs3 , v112
	.byte	W04
	.byte		        Fs3 , v040
	.byte	W07
	.byte		MOD   , 80
	.byte	W01
	.byte	PATT
	 .word	seq_016_5 + 0x15
	.byte		N03   , Fs3 , v112
	.byte	W08
	.byte		        Fs3 , v012
	.byte	W04
	.byte		        Fs3 , v112
	.byte	W08
	.byte		        Cs3 , v068
	.byte	W04
	.byte		        Fs3 , v112
	.byte	W12
	.byte		N03
	.byte	W12
	.byte		N03
	.byte	W08
	.byte		        Cs3 
	.byte	W04
	.byte		        Fs3 
	.byte	W08
	.byte		        Fn3 , v068
	.byte	W04
	.byte		        Fs3 , v112
	.byte	W04
	.byte		        Fs3 , v040
	.byte	W08
	.byte		        Fs3 , v112
	.byte	W04
	.byte		        Fs3 , v040
	.byte	W08
	.byte	PEND
	.byte	PATT
	 .word	seq_016_5 + 0xFF
	.byte	PATT
	 .word	seq_016_5 + 0xFF
	.byte	PATT
	 .word	seq_016_5 + 0xFF
	.byte	W96
	.byte	GOTO
	 .word	seq_016_5 + 0x92
	.byte	FINE

@*********************** Track 07 ***********************@

seq_016_6:
	.byte	KEYSH , seq_016_key+0
	.byte	W12
	.byte		VOICE , 5
	.byte	W01
	.byte		VOL   , 75*seq_016_mvl/mxv
	.byte	W01
	.byte		PAN   , c_v+43
	.byte	W10
	.byte		N03   , Fs3 , v112
	.byte	W12
	.byte		        Cs4 
	.byte	W08
	.byte		        Fn3 , v040
	.byte	W04
	.byte		        Fs3 , v112
	.byte	W08
	.byte		        Cs4 , v080
	.byte	W04
	.byte		        Fs3 , v040
	.byte	W08
	.byte		        Fn3 
	.byte	W04
	.byte		        Fs3 , v112
	.byte	W08
	.byte		        Cs4 , v080
	.byte	W12
	.byte		        Fn3 , v040
	.byte	W04
	.byte		        Fs3 , v112
	.byte	W12
	.byte		N03
	.byte	W08
	.byte		        Cs3 , v040
	.byte	W04
	.byte	PEND
	.byte	PATT
	 .word	seq_016_6 + 0xC
	.byte	PATT
	 .word	seq_016_6 + 0xC
	.byte	PATT
	 .word	seq_016_6 + 0xC
	.byte	PATT
	 .word	seq_016_6 + 0xC
	.byte	PATT
	 .word	seq_016_6 + 0xC
	.byte	PATT
	 .word	seq_016_6 + 0xC
	.byte	PATT
	 .word	seq_016_6 + 0xC
	.byte	PATT
	 .word	seq_016_6 + 0xC
	.byte	W12
	.byte		N03   , As3 , v112
	.byte	W08
	.byte		        Fn3 , v040
	.byte	W04
	.byte		        Fs3 , v112
	.byte	W08
	.byte		        As3 , v080
	.byte	W04
	.byte		        Fs3 , v040
	.byte	W08
	.byte		        Fn3 
	.byte	W04
	.byte		        Fs3 , v112
	.byte	W08
	.byte		        As3 , v080
	.byte	W12
	.byte		        Fs3 , v040
	.byte	W04
	.byte		        Cs3 , v112
	.byte	W12
	.byte		N03
	.byte	W12
	.byte	PEND
	.byte	PATT
	 .word	seq_016_6 + 0xC
	.byte	PATT
	 .word	seq_016_6 + 0x5A
	.byte	W12
	.byte		N08   , Fs3 , v096
	.byte	W12
	.byte		        Fs3 , v076
	.byte	W12
	.byte		        As3 , v096
	.byte	W12
	.byte		        As3 , v076
	.byte	W12
	.byte		        Bn3 , v096
	.byte	W12
	.byte		        Bn3 , v076
	.byte	W12
	.byte		        Cs4 , v096
	.byte	W12
	.byte	W96
	.byte	W96
	.byte	W08
	.byte		N04   , Cs3 , v052
	.byte	W12
	.byte		        Gs2 
	.byte	W12
	.byte		        Cs3 
	.byte	W12
	.byte		        Gs2 
	.byte	W12
	.byte		        Cs3 
	.byte	W12
	.byte		        Gs2 
	.byte	W04
	.byte		        Cs3 
	.byte	W12
	.byte		N04
	.byte	W12
	.byte	GOTO
	 .word	seq_016_6 + 0x41
	.byte	FINE

@*********************** Track 08 ***********************@

seq_016_7:
	.byte	KEYSH , seq_016_key+0
	.byte	W12
	.byte		VOICE , 5
	.byte	W01
	.byte		VOL   , 80*seq_016_mvl/mxv
	.byte	W01
	.byte		PAN   , c_v-40
	.byte	W10
	.byte	W08
	.byte		N03   , As3 , v052
	.byte	W04
	.byte		        Bn3 , v112
	.byte	W08
	.byte		        As3 , v052
	.byte	W12
	.byte		N03
	.byte	W04
	.byte		        Bn3 , v112
	.byte	W08
	.byte		        As3 , v052
	.byte	W12
	.byte		N03
	.byte	W04
	.byte		        Bn3 , v112
	.byte	W08
	.byte		        As3 , v052
	.byte	W04
	.byte		        Bn3 , v112
	.byte	W08
	.byte		        Cs4 , v072
	.byte	W04
	.byte		        Bn3 , v112
	.byte	W08
	.byte		        As3 , v052
	.byte	W04
	.byte	PEND
	.byte	PATT
	 .word	seq_016_7 + 0xC
	.byte	PATT
	 .word	seq_016_7 + 0xC
	.byte	PATT
	 .word	seq_016_7 + 0xC
	.byte	PATT
	 .word	seq_016_7 + 0xC
	.byte	PATT
	 .word	seq_016_7 + 0xC
	.byte	PATT
	 .word	seq_016_7 + 0xC
	.byte	PATT
	 .word	seq_016_7 + 0xC
	.byte	PATT
	 .word	seq_016_7 + 0xC
	.byte	W08
	.byte		N03   , Fn3 , v052
	.byte	W04
	.byte		        Fs3 , v112
	.byte	W08
	.byte		        Fn3 , v052
	.byte	W12
	.byte		N03
	.byte	W04
	.byte		        Fs3 , v112
	.byte	W08
	.byte		        Fn3 , v052
	.byte	W12
	.byte		N03
	.byte	W04
	.byte		        Fs3 , v112
	.byte	W08
	.byte		        Fn3 , v052
	.byte	W04
	.byte		        Fs3 , v112
	.byte	W12
	.byte		N03
	.byte	W12
	.byte	PEND
	.byte	W08
	.byte		        As3 , v052
	.byte	W04
	.byte		        Bn3 , v112
	.byte	W08
	.byte		        As3 , v052
	.byte	W12
	.byte		N03
	.byte	W04
	.byte		        Bn3 , v112
	.byte	W08
	.byte		        As3 , v052
	.byte	W12
	.byte		N03
	.byte	W04
	.byte		        Bn3 , v112
	.byte	W08
	.byte		        As3 , v052
	.byte	W04
	.byte		        Bn3 , v112
	.byte	W08
	.byte		        Cs4 , v052
	.byte	W04
	.byte		        Bn3 , v112
	.byte	W08
	.byte		        As3 , v052
	.byte	W04
	.byte	PATT
	 .word	seq_016_7 + 0x5C
	.byte	W96
	.byte	W12
	.byte		N08   , Fs3 , v096
	.byte	W12
	.byte		        Fs3 , v076
	.byte	W12
	.byte		        As3 , v096
	.byte	W12
	.byte		        As3 , v076
	.byte	W12
	.byte		        Bn3 , v096
	.byte	W12
	.byte		        Bn3 , v076
	.byte	W12
	.byte		        Cs4 , v096
	.byte	W12
	.byte	W96
	.byte		N04   , Cs3 , v052
	.byte	W12
	.byte		        Gs3 
	.byte	W12
	.byte		        Cs3 
	.byte	W12
	.byte		        Gs3 
	.byte	W12
	.byte		        Cs3 
	.byte	W12
	.byte		        Gs3 
	.byte	W12
	.byte		N04
	.byte	W12
	.byte		N04
	.byte	W12
	.byte	GOTO
	 .word	seq_016_7 + 0x43
	.byte	FINE

@*********************** Track 09 ***********************@

seq_016_8:
	.byte	KEYSH , seq_016_key+0
	.byte	W12
	.byte		VOICE , 96
	.byte	W01
	.byte		VOL   , 62*seq_016_mvl/mxv
	.byte	W01
	.byte		PAN   , c_v+0
	.byte	W10
	.byte	W96
	.byte	W96
	.byte	W96
	.byte	W96
	.byte	W96
	.byte	W96
	.byte	W96
	.byte	W96
	.byte	W96
	.byte	W96
	.byte	W96
	.byte	W96
	.byte	W96
	.byte	W96
	.byte	W11
	.byte		PAN   , c_v-40
	.byte	W01
	.byte		N10   , Fs3 , v100
	.byte	W11
	.byte		PAN   , c_v+40
	.byte	W01
	.byte		N10   , Fs3 , v080
	.byte	W11
	.byte		PAN   , c_v-40
	.byte	W01
	.byte		N06   , As3 , v100
	.byte	W08
	.byte		N04   , Cs3 , v036
	.byte	W03
	.byte		PAN   , c_v+40
	.byte	W01
	.byte		N10   , As3 , v080
	.byte	W11
	.byte		PAN   , c_v-40
	.byte	W01
	.byte		N06   , Bn3 , v100
	.byte	W08
	.byte		N04   , Cs3 , v036
	.byte	W03
	.byte		PAN   , c_v+40
	.byte	W01
	.byte		N10   , Bn3 , v080
	.byte	W11
	.byte		PAN   , c_v-40
	.byte	W01
	.byte		N10   , Cs4 , v100
	.byte	W11
	.byte		PAN   , c_v+0
	.byte	W01
	.byte		N07   , Fn4 
	.byte	W12
	.byte		        Fs4 , v080
	.byte	W08
	.byte		N04   , Fs3 , v036
	.byte	W04
	.byte		N07   , Fn4 , v100
	.byte	W12
	.byte		        Cs4 , v080
	.byte	W08
	.byte		N04   , Cs3 , v036
	.byte	W04
	.byte		N07   , Bn3 , v100
	.byte	W12
	.byte		        Cs4 , v080
	.byte	W08
	.byte		N04   , Cs3 , v036
	.byte	W04
	.byte		N07   , Bn3 , v100
	.byte	W12
	.byte		N12   , As3 , v080
	.byte	W12
	.byte	GOTO
	 .word	seq_016_8 + 0x10
	.byte	FINE

@*********************** Track 10 ***********************@

seq_016_9:
	.byte	KEYSH , seq_016_key+0
	.byte	W18
	.byte		VOICE , 93
	.byte	W01
	.byte		VOL   , 59*seq_016_mvl/mxv
	.byte	W01
	.byte		PAN   , c_v+0
	.byte	W01
	.byte		BENDR , 12
	.byte	W03
	.byte	W96
	.byte	W92
	.byte	W03
	.byte		BEND  , c_v-27
	.byte	W01
	.byte		N20   , Fs2 , v080
	.byte	W01
	.byte		BEND  , c_v-22
	.byte	W01
	.byte		        c_v-16
	.byte	W01
	.byte		        c_v-11
	.byte	W01
	.byte		        c_v+0
	.byte	W16
	.byte		N15
	.byte	W04
	.byte		VOL   , 53*seq_016_mvl/mxv
	.byte	W02
	.byte		        40*seq_016_mvl/mxv
	.byte		BEND  , c_v-11
	.byte	W02
	.byte		VOL   , 34*seq_016_mvl/mxv
	.byte		BEND  , c_v-22
	.byte	W02
	.byte		VOL   , 27*seq_016_mvl/mxv
	.byte		BEND  , c_v-38
	.byte	W02
	.byte		VOL   , 20*seq_016_mvl/mxv
	.byte		BEND  , c_v-48
	.byte	W02
	.byte		VOL   , 13*seq_016_mvl/mxv
	.byte		BEND  , c_v-64
	.byte	W36
	.byte	W01
	.byte		VOL   , 59*seq_016_mvl/mxv
	.byte		BEND  , c_v+0
	.byte	W09
	.byte		N04   , Cs2 , v092
	.byte	W04
	.byte		        Ds2 , v127
	.byte	W08
	.byte		        Cs2 , v092
	.byte	W03
	.byte		BEND  , c_v-27
	.byte	W01
	.byte		N20   , Fs2 , v080
	.byte	W01
	.byte		BEND  , c_v-22
	.byte	W01
	.byte		        c_v-16
	.byte	W01
	.byte		        c_v-11
	.byte	W01
	.byte		        c_v+0
	.byte	W16
	.byte		N15
	.byte	W04
	.byte		VOL   , 53*seq_016_mvl/mxv
	.byte	W02
	.byte		        40*seq_016_mvl/mxv
	.byte		BEND  , c_v-11
	.byte	W02
	.byte		VOL   , 34*seq_016_mvl/mxv
	.byte		BEND  , c_v-22
	.byte	W02
	.byte		VOL   , 27*seq_016_mvl/mxv
	.byte		BEND  , c_v-38
	.byte	W02
	.byte		VOL   , 20*seq_016_mvl/mxv
	.byte		BEND  , c_v-48
	.byte	W02
	.byte		VOL   , 13*seq_016_mvl/mxv
	.byte		BEND  , c_v-64
	.byte	W32
	.byte	W02
	.byte		N04   , Cs2 , v092
	.byte	W03
	.byte		VOL   , 59*seq_016_mvl/mxv
	.byte		BEND  , c_v+0
	.byte	W01
	.byte		N05
	.byte	W12
	.byte		N12
	.byte	W11
	.byte		BEND  , c_v-27
	.byte	W01
	.byte		N12   , Fs2 , v127
	.byte	W01
	.byte		BEND  , c_v-22
	.byte	W01
	.byte		        c_v-16
	.byte	W01
	.byte		        c_v-11
	.byte	W01
	.byte		        c_v+0
	.byte	W08
	.byte		N08   , Fs2 , v112
	.byte	W08
	.byte		N07   , Fs2 , v127
	.byte	W16
	.byte		N08   , As1 
	.byte	W08
	.byte		N04   , Bn1 , v092
	.byte	W03
	.byte		BEND  , c_v-11
	.byte	W01
	.byte		N12   , Cs2 , v127
	.byte	W03
	.byte		BEND  , c_v-6
	.byte	W01
	.byte		        c_v+0
	.byte	W08
	.byte		N08   , Cs2 , v112
	.byte	W08
	.byte		N07   , Cs2 , v127
	.byte	W16
	.byte		N08
	.byte	W08
	.byte		N04   , Cs2 , v092
	.byte	W03
	.byte		BEND  , c_v-11
	.byte	W01
	.byte	PEND
	.byte		N12   , Fs2 , v127
	.byte	W03
	.byte		BEND  , c_v-6
	.byte	W01
	.byte		        c_v+0
	.byte	W08
	.byte		N08   , Fs2 , v112
	.byte	W08
	.byte		N07   , Fs2 , v127
	.byte	W16
	.byte		N08   , Cs2 
	.byte	W08
	.byte		N04   , Cs2 , v092
	.byte	W03
	.byte		BEND  , c_v-11
	.byte	W01
	.byte		N12   , Fs2 , v127
	.byte	W03
	.byte		BEND  , c_v-6
	.byte	W01
	.byte		        c_v+0
	.byte	W08
	.byte		N08   , Fs2 , v112
	.byte	W08
	.byte		N07   , Fs2 , v127
	.byte	W16
	.byte		N08   , Cs2 
	.byte	W08
	.byte		N04   , Cs2 , v092
	.byte	W03
	.byte		BEND  , c_v-27
	.byte	W01
	.byte	PATT
	 .word	seq_016_9 + 0x8D
	.byte		N12   , Fs2 , v127
	.byte	W01
	.byte		BEND  , c_v-6
	.byte	W01
	.byte		        c_v+0
	.byte	W10
	.byte		N08   , Fs2 , v112
	.byte	W08
	.byte		N07   , Fs2 , v127
	.byte	W16
	.byte		N08   , Cs2 
	.byte	W08
	.byte		N04   , Cs2 , v092
	.byte	W03
	.byte		BEND  , c_v-11
	.byte	W01
	.byte		N12   , Fs2 , v127
	.byte	W03
	.byte		BEND  , c_v-6
	.byte	W01
	.byte		        c_v+0
	.byte	W08
	.byte		N08   , Fs2 , v112
	.byte	W08
	.byte		N07   , Fs2 , v127
	.byte	W16
	.byte		N12   , Cs2 
	.byte	W11
	.byte		BEND  , c_v-11
	.byte	W01
	.byte		N12   , Bn2 , v127
	.byte	W03
	.byte		BEND  , c_v-6
	.byte	W01
	.byte		        c_v+0
	.byte	W08
	.byte		N08   , Bn2 , v112
	.byte	W08
	.byte		N07   , Bn2 , v127
	.byte	W16
	.byte		N08   , Fs2 
	.byte	W08
	.byte		N04   , Cs2 , v092
	.byte	W03
	.byte		BEND  , c_v-11
	.byte	W01
	.byte		N12   , Bn2 , v127
	.byte	W01
	.byte		BEND  , c_v-6
	.byte	W01
	.byte		        c_v+0
	.byte	W10
	.byte		N08   , Bn2 , v112
	.byte	W08
	.byte		N07   , Bn2 , v127
	.byte	W12
	.byte		N04   , Cs2 , v092
	.byte	W03
	.byte		BEND  , c_v-6
	.byte	W01
	.byte		N08   , Gs2 , v127
	.byte	W01
	.byte		BEND  , c_v+0
	.byte	W07
	.byte		N04   , Cs2 , v092
	.byte	W03
	.byte		BEND  , c_v-11
	.byte	W01
	.byte	PEND
	.byte		N12   , Fs2 , v127
	.byte	W01
	.byte		BEND  , c_v-6
	.byte	W01
	.byte		        c_v+0
	.byte	W10
	.byte		N08   , Fs2 , v112
	.byte	W08
	.byte		N07   , Fs2 , v127
	.byte	W16
	.byte		N08   , Cs2 
	.byte	W08
	.byte		N04   , As1 , v092
	.byte	W03
	.byte		BEND  , c_v-11
	.byte	W01
	.byte		N08   , Fs2 , v127
	.byte	W01
	.byte		BEND  , c_v-6
	.byte	W01
	.byte		        c_v+0
	.byte	W06
	.byte		N04   , Fn2 , v092
	.byte	W04
	.byte		N08   , Fs2 , v127
	.byte	W07
	.byte		BEND  , c_v-6
	.byte	W01
	.byte		N04   , Bn1 , v092
	.byte	W01
	.byte		BEND  , c_v+0
	.byte	W03
	.byte		N04   , Cs2 , v127
	.byte	W11
	.byte		BEND  , c_v-11
	.byte	W01
	.byte		N12
	.byte	W01
	.byte		BEND  , c_v-6
	.byte	W01
	.byte		        c_v+0
	.byte	W09
	.byte		        c_v-11
	.byte	W01
	.byte	PATT
	 .word	seq_016_9 + 0x134
	.byte		N12   , Fs2 , v127
	.byte	W01
	.byte		BEND  , c_v-6
	.byte	W01
	.byte		        c_v+0
	.byte	W10
	.byte		N08   , Fs2 , v112
	.byte	W08
	.byte		N07   , Fs2 , v127
	.byte	W16
	.byte		N08   , Cs2 
	.byte	W08
	.byte		N04   , As1 , v092
	.byte	W03
	.byte		BEND  , c_v-11
	.byte	W01
	.byte		N08   , Fs2 , v127
	.byte	W01
	.byte		BEND  , c_v-6
	.byte	W01
	.byte		        c_v+0
	.byte	W06
	.byte		N04   , Fn2 , v092
	.byte	W04
	.byte		N08   , Fs2 , v127
	.byte	W07
	.byte		BEND  , c_v-6
	.byte	W01
	.byte		N04   , Bn1 , v092
	.byte	W01
	.byte		BEND  , c_v+0
	.byte	W03
	.byte		N04   , Cs2 , v127
	.byte	W11
	.byte		BEND  , c_v-11
	.byte	W01
	.byte		N12   , Cs3 
	.byte	W01
	.byte		BEND  , c_v-6
	.byte	W01
	.byte		        c_v+0
	.byte	W09
	.byte		        c_v-6
	.byte	W01
	.byte		N12   , Bn2 
	.byte	W01
	.byte		BEND  , c_v+0
	.byte	W11
	.byte		N12   , Bn2 , v112
	.byte	W12
	.byte		N04   , Bn2 , v127
	.byte	W12
	.byte		        Fs2 
	.byte	W08
	.byte		        Fs2 , v092
	.byte	W03
	.byte		BEND  , c_v-11
	.byte	W01
	.byte		N12   , As2 , v127
	.byte	W01
	.byte		BEND  , c_v-6
	.byte	W01
	.byte		        c_v+0
	.byte	W10
	.byte		N12   , As2 , v112
	.byte	W12
	.byte		N04   , As2 , v127
	.byte	W12
	.byte		N12   , Fs2 
	.byte	W11
	.byte		BEND  , c_v-6
	.byte	W01
	.byte		N12   , Gs2 
	.byte	W01
	.byte		BEND  , c_v+0
	.byte	W11
	.byte		N12   , Gs2 , v112
	.byte	W12
	.byte		N04   , Gs2 , v127
	.byte	W12
	.byte		N08   , Cs2 
	.byte	W08
	.byte		N04   , Cs2 , v092
	.byte	W04
	.byte		N08   , Fs2 , v127
	.byte	W08
	.byte		N04   , Cs2 
	.byte	W04
	.byte		N08   , Gs2 
	.byte	W08
	.byte		N04   , Cs2 
	.byte	W04
	.byte		N08   , As2 
	.byte	W08
	.byte		N04   , Fn2 
	.byte	W04
	.byte		N08   , Fs2 
	.byte	W08
	.byte		N04   , Cs2 
	.byte	W03
	.byte		BEND  , c_v-11
	.byte	W01
	.byte		N12   , En2 
	.byte	W01
	.byte		BEND  , c_v-6
	.byte	W01
	.byte		        c_v+0
	.byte	W10
	.byte		N12   , En2 , v112
	.byte	W12
	.byte		N04   , En2 , v127
	.byte	W12
	.byte		        Bn1 
	.byte	W08
	.byte		        Bn1 , v092
	.byte	W04
	.byte		N12   , Ds2 , v127
	.byte	W12
	.byte		        Ds2 , v112
	.byte	W12
	.byte		N04   , Ds2 , v127
	.byte	W08
	.byte		        Gs1 , v092
	.byte	W04
	.byte		        Ds2 , v127
	.byte	W08
	.byte		        Gs1 , v092
	.byte	W04
	.byte		N16   , Cs2 , v127
	.byte	W05
	.byte		VOL   , 53*seq_016_mvl/mxv
	.byte	W02
	.byte		        44*seq_016_mvl/mxv
	.byte	W02
	.byte		        41*seq_016_mvl/mxv
	.byte	W02
	.byte		        35*seq_016_mvl/mxv
	.byte	W01
	.byte		BEND  , c_v-11
	.byte	W01
	.byte		VOL   , 28*seq_016_mvl/mxv
	.byte	W01
	.byte		BEND  , c_v-22
	.byte	W01
	.byte		VOL   , 19*seq_016_mvl/mxv
	.byte	W01
	.byte		BEND  , c_v-38
	.byte	W02
	.byte		        c_v-48
	.byte	W02
	.byte		        c_v-64
	.byte	W24
	.byte	W03
	.byte		VOL   , 59*seq_016_mvl/mxv
	.byte		BEND  , c_v-27
	.byte	W48
	.byte	W01
	.byte	GOTO
	 .word	seq_016_9 + 0x8D
	.byte	FINE

@*********************** Track 11 ***********************@

seq_016_10:
	.byte	KEYSH , seq_016_key+0
	.byte	W18
	.byte		VOICE , 127
	.byte	W01
	.byte		VOL   , 80*seq_016_mvl/mxv
	.byte	W01
	.byte		PAN   , c_v+0
	.byte	W04
	.byte		N08   , An4 , v060
	.byte	W08
	.byte		N04   , Cs3 , v092
	.byte	W12
	.byte		        Ds3 
	.byte	W04
	.byte		N12   , Gn1 , v080
	.byte	W12
	.byte		        Fs2 , v127
	.byte	W12
	.byte		N08   , Ds3 , v092
	.byte	W08
	.byte		N04   , Cs3 
	.byte	W12
	.byte		        Ds3 
	.byte	W04
	.byte		N08   , Gn1 , v080
	.byte	W08
	.byte		N04   , Cs3 , v092
	.byte	W04
	.byte		N08   , Fs2 , v127
	.byte	W08
	.byte		N04   , Ds3 , v092
	.byte	W04
	.byte		N08   , An4 , v060
	.byte	W08
	.byte		N04   , Cs3 , v092
	.byte	W12
	.byte		        Ds3 
	.byte	W04
	.byte		N12   , Gn1 , v080
	.byte	W12
	.byte		        Fs2 , v127
	.byte	W12
	.byte		N08   , Ds3 , v092
	.byte	W08
	.byte		N04   , Cs3 
	.byte	W04
	.byte		N08   , Cn1 , v127
	.byte	W08
	.byte		N04   , Ds3 , v092
	.byte	W04
	.byte		N08   , Gn1 , v080
	.byte	W12
	.byte		        Cn1 , v127
	.byte	W12
	.byte		N08   , An4 , v060
	.byte	W08
	.byte		N04   , Cs3 , v092
	.byte	W04
	.byte		N08   , Cn1 , v127
	.byte	W08
	.byte		N04   , Ds3 , v092
	.byte	W04
	.byte		N12   , Gn1 , v080
	.byte	W12
	.byte		        Fs2 , v127
	.byte	W12
	.byte		N08   , Ds3 , v092
	.byte	W08
	.byte		N04   , Cs3 
	.byte	W04
	.byte		N08   , Cn1 , v127
	.byte	W08
	.byte		N04   , Ds3 , v092
	.byte	W04
	.byte		N08   , Gn1 , v080
	.byte	W08
	.byte		N04   , Cs3 , v092
	.byte	W04
	.byte		N08   , Fs2 , v127
	.byte	W08
	.byte		N04   , Ds3 , v092
	.byte	W04
	.byte	PEND
	.byte		N08   , An4 , v060
	.byte	W08
	.byte		N04   , Cs3 , v092
	.byte	W04
	.byte		N08   , Cn1 , v127
	.byte	W08
	.byte		N04   , Ds3 , v092
	.byte	W04
	.byte		N12   , Gn1 , v080
	.byte	W12
	.byte		        Fs2 , v127
	.byte	W12
	.byte		N08   , Ds3 , v092
	.byte	W08
	.byte		N04   , Cs3 
	.byte	W04
	.byte		N08   , Cn1 , v127
	.byte	W08
	.byte		N04   , Ds3 , v092
	.byte	W04
	.byte		N08   , Gn1 , v080
	.byte	W12
	.byte		        Cn1 , v127
	.byte	W12
	.byte	PATT
	 .word	seq_016_10 + 0x5D
	.byte	PATT
	 .word	seq_016_10 + 0x5D
	.byte	PATT
	 .word	seq_016_10 + 0x5D
	.byte	PATT
	 .word	seq_016_10 + 0x5D
	.byte	PATT
	 .word	seq_016_10 + 0x5D
	.byte	PATT
	 .word	seq_016_10 + 0x5D
	.byte	PATT
	 .word	seq_016_10 + 0x5D
	.byte	PATT
	 .word	seq_016_10 + 0x5D
	.byte		N08   , An4 , v060
	.byte	W08
	.byte		N04   , Cs3 , v092
	.byte	W04
	.byte		N08   , Cn1 , v127
	.byte	W08
	.byte		N04   , Ds3 , v092
	.byte	W04
	.byte		N12   , Fn3 , v127
	.byte	W12
	.byte		        Gn1 , v120
	.byte	W12
	.byte		N08   , Ds3 , v092
	.byte	W08
	.byte		N04   , Cs3 
	.byte	W04
	.byte		N08   , Cn1 , v127
	.byte	W08
	.byte		N04   , Ds3 , v092
	.byte	W04
	.byte		N08   , Fn3 , v127
	.byte	W08
	.byte		N04   , Cs3 , v092
	.byte	W04
	.byte		N08   , Gn1 , v120
	.byte	W08
	.byte		N04   , Ds3 , v092
	.byte	W04
	.byte	PEND
	.byte	PATT
	 .word	seq_016_10 + 0xE9
	.byte	PATT
	 .word	seq_016_10 + 0xE9
	.byte		N08   , An4 , v060
	.byte	W06
	.byte		N04   , Dn3 , v092
	.byte	W06
	.byte		        Cs3 
	.byte	W08
	.byte		        Ds3 
	.byte	W12
	.byte		        Cs3 
	.byte	W04
	.byte		N08   , Gn1 
	.byte	W12
	.byte		        Fs2 , v127
	.byte	W12
	.byte		        Gn1 , v092
	.byte	W08
	.byte		N04   , Fs2 , v127
	.byte	W03
	.byte		VOICE , 125
	.byte	W01
	.byte		N08   , Cn3 
	.byte	W12
	.byte		N08
	.byte	W09
	.byte		VOICE , 127
	.byte	W03
	.byte	GOTO
	 .word	seq_016_10 + 0xC1
	.byte	FINE

@*********************** Track 12 ***********************@

seq_016_11:
	.byte	KEYSH , seq_016_key+0
	.byte	W18
	.byte		VOICE , 127
	.byte	W01
	.byte		VOL   , 69*seq_016_mvl/mxv
	.byte	W01
	.byte		PAN   , c_v+0
	.byte	W04
	.byte		N08   , Ds2 , v092
	.byte	W08
	.byte		N03   , Gs1 , v020
	.byte	W04
	.byte		        Gs1 , v092
	.byte	W08
	.byte		        Gs1 , v020
	.byte	W04
	.byte		N12   , En2 , v072
	.byte	W12
	.byte		N03   , Gs1 , v092
	.byte	W08
	.byte		        Gs1 , v040
	.byte	W04
	.byte		        Gs1 , v092
	.byte	W08
	.byte		        Gs1 , v020
	.byte	W04
	.byte		        Gs1 , v092
	.byte	W08
	.byte		        Gs1 , v020
	.byte	W04
	.byte		N12   , En2 , v072
	.byte	W12
	.byte		N03   , Gs1 , v092
	.byte	W08
	.byte		        Gs1 , v040
	.byte	W04
	.byte	PEND
	.byte		N03   , Gs1 , v092
	.byte	W08
	.byte		        Gs1 , v020
	.byte	W04
	.byte		        Gs1 , v092
	.byte	W08
	.byte		        Gs1 , v020
	.byte	W04
	.byte		N12   , En2 , v072
	.byte	W12
	.byte		N03   , Gs1 , v092
	.byte	W08
	.byte		        Gs1 , v040
	.byte	W04
	.byte		N12   , En2 , v072
	.byte	W12
	.byte		N03   , Gs1 , v092
	.byte	W08
	.byte		        Gs1 , v020
	.byte	W04
	.byte		N12   , En2 , v072
	.byte	W12
	.byte		N03   , Gs1 , v092
	.byte	W08
	.byte		        Gs1 , v020
	.byte	W04
	.byte	PEND
	.byte	PATT
	 .word	seq_016_11 + 0xC
	.byte	PATT
	 .word	seq_016_11 + 0x3D
	.byte	PATT
	 .word	seq_016_11 + 0xC
	.byte		N03   , Gs1 , v092
	.byte	W08
	.byte		        Gs1 , v020
	.byte	W04
	.byte		        Gs1 , v092
	.byte	W08
	.byte		        Gs1 , v020
	.byte	W04
	.byte		N12   , En2 , v072
	.byte	W12
	.byte		N03   , Gs1 , v092
	.byte	W08
	.byte		        Gs1 , v040
	.byte	W04
	.byte		        Gs1 , v092
	.byte	W08
	.byte		        Gs1 , v020
	.byte	W04
	.byte		        Gs1 , v092
	.byte	W08
	.byte		        Gs1 , v020
	.byte	W04
	.byte		N12   , En2 , v072
	.byte	W12
	.byte		N03   , Gs1 , v092
	.byte	W08
	.byte		        Gs1 , v040
	.byte	W04
	.byte	PATT
	 .word	seq_016_11 + 0xC
	.byte		N03   , Gs1 , v092
	.byte	W08
	.byte		        Gs1 , v020
	.byte	W04
	.byte		        Gs1 , v092
	.byte	W08
	.byte		        Gs1 , v020
	.byte	W04
	.byte		N12   , En2 , v072
	.byte	W12
	.byte		N03   , Gs1 , v092
	.byte	W08
	.byte		        Gs1 , v040
	.byte	W04
	.byte		        Gs1 , v092
	.byte	W08
	.byte		        Gs1 , v020
	.byte	W04
	.byte		        Gs1 , v092
	.byte	W08
	.byte		        Gs1 , v020
	.byte	W04
	.byte		N08   , Ds2 , v092
	.byte	W12
	.byte		N08
	.byte	W12
	.byte	PEND
	.byte	PATT
	 .word	seq_016_11 + 0xC
	.byte	PATT
	 .word	seq_016_11 + 0xAF
	.byte	PATT
	 .word	seq_016_11 + 0xC
	.byte	PATT
	 .word	seq_016_11 + 0xAF
	.byte	PATT
	 .word	seq_016_11 + 0xC
	.byte	PATT
	 .word	seq_016_11 + 0xAF
	.byte	PATT
	 .word	seq_016_11 + 0xC
	.byte		N08   , Ds2 , v092
	.byte	W48
	.byte		N12   , En2 , v072
	.byte	W12
	.byte		N03   , Gs1 , v092
	.byte	W08
	.byte		        Gs1 , v020
	.byte	W04
	.byte		N12   , En2 , v072
	.byte	W12
	.byte		N03   , Gs1 , v092
	.byte	W08
	.byte		        Gs1 , v020
	.byte	W04
	.byte	GOTO
	 .word	seq_016_11 + 0x76
	.byte	FINE

@******************************************************@

	.align	2

seq_016:
	.byte	12	@ NumTrks
	.byte	0	@ NumBlks
	.byte	seq_016_pri	@ Priority
	.byte	seq_016_rev	@ Reverb

	.word	seq_016_grp

	.word	seq_016_0
	.word	seq_016_1
	.word	seq_016_2
	.word	seq_016_3
	.word	seq_016_4
	.word	seq_016_5
	.word	seq_016_6
	.word	seq_016_7
	.word	seq_016_8
	.word	seq_016_9
	.word	seq_016_10
	.word	seq_016_11

	.end
