@ File generated by m4a2s Song-Module
	.include "MPlayDef.s"

	.equ	seq_108_grp, bank_014
	.equ	seq_108_pri, 50
	.equ	seq_108_rev, 198
	.equ	seq_108_mvl, 127
	.equ	seq_108_key, 0

	.section .rodata
	.global	seq_108
	.align	2

@*********************** Track 01 ***********************@

seq_108_0:
	.byte	KEYSH , seq_108_key+0
	.byte	TEMPO , 240/2
	.byte		VOICE , 127
	.byte	W01
	.byte		VOL   , 61*seq_108_mvl/mxv
	.byte	W01
	.byte		PAN   , c_v+0
	.byte	W10
	.byte	TEMPO , 94/2
	.byte	W12
	.byte		N02   , Cn4 , v120
	.byte		N06   , Cs5 , v080
	.byte	W02
	.byte		N02   , Cn4 , v120
	.byte	W02
	.byte		N02
	.byte	W02
	.byte		N03   , Cn4 , v120
	.byte		N24   , Cs5 
	.byte	W12
	.byte		N03   , Cn4 , v100
	.byte	W06
	.byte		        Cn4 , v060
	.byte	W06
	.byte		        En4 , v120
	.byte	W06
	.byte		        As5 , v080
	.byte	W06
	.byte		        Fs5 , v100
	.byte	W06
	.byte		        Cn4 , v120
	.byte	W06
	.byte		N02   , Gs5 , v060
	.byte	W12
	.byte		N03   , Cn4 , v100
	.byte	W06
	.byte		        Cn4 , v060
	.byte	W06
	.byte		        En4 , v120
	.byte	W06
	.byte		        Cn4 
	.byte	W06
	.byte		        Fs5 , v100
	.byte	W06
	.byte		        Cn4 , v060
	.byte	W06
	.byte	PEND
	.byte		N03   , Cn4 , v120
	.byte	W12
	.byte		        Cn4 , v100
	.byte	W06
	.byte		        Cn4 , v060
	.byte	W06
	.byte		        En4 , v120
	.byte	W06
	.byte		        As5 , v080
	.byte	W06
	.byte		        Fs5 , v100
	.byte	W06
	.byte		        Cn4 , v120
	.byte	W06
	.byte		N02   , Gs5 , v060
	.byte	W12
	.byte		N03   , Cn4 , v100
	.byte	W06
	.byte		        Cn4 , v060
	.byte	W06
	.byte		        En4 , v120
	.byte	W06
	.byte		        Cn4 
	.byte	W06
	.byte		        Fs5 , v100
	.byte	W06
	.byte		        Cn4 , v060
	.byte	W06
	.byte	PEND
	.byte	PATT
	 .word	seq_108_0 + 0x4D
	.byte		N03   , Cn4 , v120
	.byte	W12
	.byte		        Cn4 , v100
	.byte	W06
	.byte		        Cn4 , v060
	.byte	W06
	.byte		        En4 , v120
	.byte	W06
	.byte		        As5 , v080
	.byte	W06
	.byte		        Fs5 , v100
	.byte	W06
	.byte		        Cn4 , v120
	.byte	W06
	.byte		N02   , Gs5 , v060
	.byte	W12
	.byte		N03   , Cn4 , v100
	.byte	W06
	.byte		        Cn4 , v060
	.byte	W06
	.byte		        En4 , v120
	.byte	W06
	.byte		        Cn4 
	.byte	W06
	.byte		        Fs5 , v100
	.byte	W06
	.byte		        En4 , v080
	.byte	W06
	.byte	PEND
	.byte	PATT
	 .word	seq_108_0 + 0x1D
	.byte	PATT
	 .word	seq_108_0 + 0x4D
	.byte	PATT
	 .word	seq_108_0 + 0x4D
	.byte	PATT
	 .word	seq_108_0 + 0x4D
	.byte	PATT
	 .word	seq_108_0 + 0x4D
	.byte	PATT
	 .word	seq_108_0 + 0x4D
	.byte	PATT
	 .word	seq_108_0 + 0x4D
	.byte	PATT
	 .word	seq_108_0 + 0x4D
	.byte	PATT
	 .word	seq_108_0 + 0x4D
	.byte	PATT
	 .word	seq_108_0 + 0x4D
	.byte	PATT
	 .word	seq_108_0 + 0x4D
	.byte	PATT
	 .word	seq_108_0 + 0x4D
	.byte	PATT
	 .word	seq_108_0 + 0x4D
	.byte	PATT
	 .word	seq_108_0 + 0x4D
	.byte	PATT
	 .word	seq_108_0 + 0x4D
	.byte		N03   , Cn4 , v120
	.byte	W12
	.byte		        Cn4 , v100
	.byte	W06
	.byte		        Cn4 , v060
	.byte	W06
	.byte		        En4 , v120
	.byte	W06
	.byte		        As5 , v080
	.byte	W06
	.byte		        Fs5 , v100
	.byte	W06
	.byte		        Cn4 , v120
	.byte	W06
	.byte		N02   , Gs5 , v060
	.byte	W06
	.byte		N03   , En4 , v100
	.byte	W06
	.byte		        Cn4 
	.byte	W06
	.byte		        Cn4 , v060
	.byte	W06
	.byte		        En4 , v120
	.byte	W06
	.byte		        Cn4 
	.byte	W06
	.byte		        En4 
	.byte	W06
	.byte		        En4 , v080
	.byte	W06
	.byte	PATT
	 .word	seq_108_0 + 0x1D
	.byte	PATT
	 .word	seq_108_0 + 0x4D
	.byte	PATT
	 .word	seq_108_0 + 0x4D
	.byte	PATT
	 .word	seq_108_0 + 0x4D
	.byte	PATT
	 .word	seq_108_0 + 0x4D
	.byte	PATT
	 .word	seq_108_0 + 0x4D
	.byte	PATT
	 .word	seq_108_0 + 0x4D
	.byte	PATT
	 .word	seq_108_0 + 0x4D
	.byte	PATT
	 .word	seq_108_0 + 0x1D
	.byte	PATT
	 .word	seq_108_0 + 0x4D
	.byte	PATT
	 .word	seq_108_0 + 0x4D
	.byte		N03   , Cn4 , v120
	.byte	W12
	.byte		        Cn4 , v100
	.byte	W06
	.byte		        Cn4 , v060
	.byte	W06
	.byte		        En4 , v120
	.byte	W06
	.byte		        As5 , v080
	.byte	W06
	.byte		        En4 , v120
	.byte	W06
	.byte		        Cn4 
	.byte	W06
	.byte		N02   , Gs5 , v060
	.byte	W06
	.byte		N03   , En4 , v120
	.byte	W06
	.byte		        Cn4 , v100
	.byte	W06
	.byte		        Cn4 , v060
	.byte	W06
	.byte		        En4 , v120
	.byte	W06
	.byte		        Cn4 
	.byte	W06
	.byte		        En4 , v100
	.byte	W06
	.byte		N02   , Cn4 , v120
	.byte		N06   , Cs5 
	.byte	W02
	.byte		N02   , Cn4 
	.byte	W02
	.byte		N02
	.byte	W02
	.byte	PATT
	 .word	seq_108_0 + 0x4D
	.byte		N03   , Cn4 , v120
	.byte	W12
	.byte		        Cn4 , v100
	.byte	W06
	.byte		        Cn4 , v060
	.byte	W06
	.byte		        En4 , v120
	.byte	W06
	.byte		        As5 , v080
	.byte	W06
	.byte		        Fs5 , v100
	.byte	W06
	.byte		        Cn4 , v120
	.byte	W06
	.byte		N02   , Gs5 , v060
	.byte	W12
	.byte		N03   , Cn4 , v100
	.byte	W06
	.byte		        En4 , v120
	.byte	W12
	.byte		        Cn4 
	.byte	W06
	.byte		        Fs5 , v100
	.byte	W06
	.byte		        Cn4 , v060
	.byte	W06
	.byte	PEND
	.byte	PATT
	 .word	seq_108_0 + 0x4D
	.byte	PATT
	 .word	seq_108_0 + 0x196
	.byte	PATT
	 .word	seq_108_0 + 0x4D
	.byte	PATT
	 .word	seq_108_0 + 0x196
	.byte	PATT
	 .word	seq_108_0 + 0x4D
	.byte		N03   , Cn4 , v120
	.byte	W12
	.byte		        Cn4 , v100
	.byte	W06
	.byte		        Cn4 , v060
	.byte	W06
	.byte		        En4 , v120
	.byte	W06
	.byte		        As5 , v080
	.byte	W06
	.byte		        Fs5 , v100
	.byte	W06
	.byte		        Cn4 , v120
	.byte	W06
	.byte		N02   , Gs5 , v060
	.byte	W12
	.byte		N03   , Cn4 , v100
	.byte	W06
	.byte		        En4 , v120
	.byte	W12
	.byte		        Cn4 
	.byte	W06
	.byte		        Fs5 , v100
	.byte	W06
	.byte		N02   , Cn4 , v120
	.byte	W02
	.byte		N02
	.byte	W02
	.byte		N02
	.byte	W02
	.byte	TEMPO , 92/2
	.byte		N24   , Cs5 
	.byte	W06
	.byte		N03   , En4 
	.byte	W06
	.byte		        Cn4 , v100
	.byte	W06
	.byte		        Cn4 , v060
	.byte	W06
	.byte		        En4 , v120
	.byte	W06
	.byte		        As5 , v080
	.byte	W06
	.byte		        Fs5 , v100
	.byte	W06
	.byte		N02   , Cn4 , v120
	.byte	W02
	.byte		N02
	.byte	W02
	.byte		N02
	.byte	W02
	.byte	TEMPO , 94/2
	.byte		N03
	.byte		N24   , Cs5 
	.byte	W12
	.byte		N03   , Cn4 , v100
	.byte	W06
	.byte		        Cn4 , v060
	.byte	W06
	.byte		        En4 , v120
	.byte	W06
	.byte		        As5 , v080
	.byte	W06
	.byte		        Fs5 , v100
	.byte	W06
	.byte		        Cn4 , v120
	.byte	W06
	.byte		N02   , Gs5 , v060
	.byte	W12
	.byte		N03   , Cn4 , v100
	.byte	W06
	.byte		        Cn4 , v060
	.byte	W06
	.byte		        En4 , v120
	.byte	W06
	.byte		        Cn4 
	.byte	W06
	.byte		        Fs5 , v100
	.byte	W06
	.byte		        Cn4 , v060
	.byte	W06
	.byte	PATT
	 .word	seq_108_0 + 0x4D
	.byte	PATT
	 .word	seq_108_0 + 0x4D
	.byte	PATT
	 .word	seq_108_0 + 0x7F
	.byte	GOTO
	 .word	seq_108_0 + 0xAC
	.byte	FINE

@*********************** Track 02 ***********************@

seq_108_1:
	.byte	KEYSH , seq_108_key+0
	.byte		VOICE , 12
	.byte	W01
	.byte		VOL   , 56*seq_108_mvl/mxv
	.byte	W01
	.byte		PAN   , c_v-24
	.byte	W01
	.byte		LFOS  , 30
	.byte	W01
	.byte		MODT  , mod_pan
	.byte	W01
	.byte		LFODL , 0
	.byte	W01
	.byte		MOD   , 40
	.byte	W18
	.byte	W06
	.byte		N06   , Dn3 , v120
	.byte	W05
	.byte		VOL   , 15*seq_108_mvl/mxv
	.byte	W01
	.byte		N06   , Ds3 
	.byte	W06
	.byte		        Dn3 
	.byte	W06
	.byte		        Ds3 
	.byte	W03
	.byte		VOL   , 20*seq_108_mvl/mxv
	.byte	W03
	.byte		N06   , Dn3 
	.byte	W06
	.byte		        Ds3 
	.byte	W04
	.byte		VOL   , 25*seq_108_mvl/mxv
	.byte	W02
	.byte		N06   , Dn3 
	.byte	W04
	.byte		VOL   , 30*seq_108_mvl/mxv
	.byte	W02
	.byte		N06   , Ds3 
	.byte	W05
	.byte		VOL   , 35*seq_108_mvl/mxv
	.byte	W01
	.byte		N06   , Dn3 
	.byte	W06
	.byte		        Ds3 
	.byte	W01
	.byte		VOL   , 40*seq_108_mvl/mxv
	.byte	W03
	.byte		        46*seq_108_mvl/mxv
	.byte	W02
	.byte		N06   , Dn3 
	.byte	W03
	.byte		VOL   , 51*seq_108_mvl/mxv
	.byte	W03
	.byte		N06   , Ds3 
	.byte	W01
	.byte		VOL   , 46*seq_108_mvl/mxv
	.byte	W04
	.byte		        40*seq_108_mvl/mxv
	.byte	W01
	.byte		N06   , Dn3 
	.byte	W03
	.byte		VOL   , 35*seq_108_mvl/mxv
	.byte	W03
	.byte		N06   , Ds3 
	.byte	W01
	.byte		VOL   , 30*seq_108_mvl/mxv
	.byte	W03
	.byte		        25*seq_108_mvl/mxv
	.byte	W02
	.byte		N06   , Dn3 
	.byte	W03
	.byte		VOL   , 20*seq_108_mvl/mxv
	.byte	W03
	.byte		N06   , Ds3 
	.byte	W02
	.byte		VOL   , 15*seq_108_mvl/mxv
	.byte	W03
	.byte		        10*seq_108_mvl/mxv
	.byte	W01
	.byte	PEND
	.byte		N06   , Fn3 , v120
	.byte	W05
	.byte		VOL   , 15*seq_108_mvl/mxv
	.byte	W01
	.byte		N06   , Fs3 
	.byte	W06
	.byte		        Fn3 
	.byte	W06
	.byte		        Fs3 
	.byte	W03
	.byte		VOL   , 20*seq_108_mvl/mxv
	.byte	W03
	.byte		N06   , Fn3 
	.byte	W06
	.byte		        Fs3 
	.byte	W04
	.byte		VOL   , 25*seq_108_mvl/mxv
	.byte	W02
	.byte		N06   , Fn3 
	.byte	W04
	.byte		VOL   , 30*seq_108_mvl/mxv
	.byte	W02
	.byte		N06   , Fs3 
	.byte	W05
	.byte		VOL   , 35*seq_108_mvl/mxv
	.byte	W01
	.byte		N06   , Fn3 
	.byte	W05
	.byte		VOL   , 40*seq_108_mvl/mxv
	.byte	W01
	.byte		N06   , Fs3 
	.byte	W04
	.byte		VOL   , 46*seq_108_mvl/mxv
	.byte	W02
	.byte		N06   , Fn3 
	.byte	W03
	.byte		VOL   , 51*seq_108_mvl/mxv
	.byte	W03
	.byte		N06   , Fs3 
	.byte	W01
	.byte		VOL   , 46*seq_108_mvl/mxv
	.byte	W04
	.byte		        40*seq_108_mvl/mxv
	.byte	W01
	.byte		N06   , Fn3 
	.byte	W03
	.byte		VOL   , 35*seq_108_mvl/mxv
	.byte	W03
	.byte		N06   , Fs3 
	.byte	W01
	.byte		VOL   , 30*seq_108_mvl/mxv
	.byte	W03
	.byte		        25*seq_108_mvl/mxv
	.byte	W02
	.byte		N06   , Fn3 
	.byte	W03
	.byte		VOL   , 20*seq_108_mvl/mxv
	.byte	W03
	.byte		N06   , Fs3 
	.byte	W02
	.byte		VOL   , 15*seq_108_mvl/mxv
	.byte	W03
	.byte		        10*seq_108_mvl/mxv
	.byte	W01
	.byte	PEND
	.byte	PATT
	 .word	seq_108_1 + 0x18
	.byte	PATT
	 .word	seq_108_1 + 0x72
	.byte	W96
	.byte	W96
	.byte	PATT
	 .word	seq_108_1 + 0x18
	.byte	PATT
	 .word	seq_108_1 + 0x72
	.byte	W96
	.byte	W96
	.byte	PATT
	 .word	seq_108_1 + 0x18
	.byte	PATT
	 .word	seq_108_1 + 0x72
	.byte	W96
	.byte	W96
	.byte		N06   , Cs3 , v120
	.byte	W05
	.byte		VOL   , 15*seq_108_mvl/mxv
	.byte	W01
	.byte		N06   , Dn3 
	.byte	W06
	.byte		        Cs3 
	.byte	W06
	.byte		        Dn3 
	.byte	W03
	.byte		VOL   , 20*seq_108_mvl/mxv
	.byte	W03
	.byte		N06   , Cs3 
	.byte	W06
	.byte		        Dn3 
	.byte	W04
	.byte		VOL   , 25*seq_108_mvl/mxv
	.byte	W02
	.byte		N06   , Cs3 
	.byte	W04
	.byte		VOL   , 30*seq_108_mvl/mxv
	.byte	W02
	.byte		N06   , Dn3 
	.byte	W05
	.byte		VOL   , 35*seq_108_mvl/mxv
	.byte	W01
	.byte		N06   , Cs3 
	.byte	W06
	.byte		        Dn3 
	.byte	W01
	.byte		VOL   , 40*seq_108_mvl/mxv
	.byte	W03
	.byte		        46*seq_108_mvl/mxv
	.byte	W02
	.byte		N06   , Cs3 
	.byte	W03
	.byte		VOL   , 51*seq_108_mvl/mxv
	.byte	W03
	.byte		N06   , Dn3 
	.byte	W01
	.byte		VOL   , 46*seq_108_mvl/mxv
	.byte	W04
	.byte		        40*seq_108_mvl/mxv
	.byte	W01
	.byte		N06   , Cs3 
	.byte	W03
	.byte		VOL   , 35*seq_108_mvl/mxv
	.byte	W03
	.byte		N06   , Dn3 
	.byte	W01
	.byte		VOL   , 30*seq_108_mvl/mxv
	.byte	W03
	.byte		        25*seq_108_mvl/mxv
	.byte	W02
	.byte		N06   , Cs3 
	.byte	W03
	.byte		VOL   , 20*seq_108_mvl/mxv
	.byte	W03
	.byte		N06   , Dn3 
	.byte	W02
	.byte		VOL   , 15*seq_108_mvl/mxv
	.byte	W03
	.byte		        10*seq_108_mvl/mxv
	.byte	W01
	.byte		N06   , En3 
	.byte	W05
	.byte		VOL   , 15*seq_108_mvl/mxv
	.byte	W01
	.byte		N06   , Fn3 
	.byte	W06
	.byte		        En3 
	.byte	W06
	.byte		        Fn3 
	.byte	W03
	.byte		VOL   , 20*seq_108_mvl/mxv
	.byte	W03
	.byte		N06   , En3 
	.byte	W06
	.byte		        Fn3 
	.byte	W04
	.byte		VOL   , 25*seq_108_mvl/mxv
	.byte	W02
	.byte		N06   , En3 
	.byte	W04
	.byte		VOL   , 30*seq_108_mvl/mxv
	.byte	W02
	.byte		N06   , Fn3 
	.byte	W05
	.byte		VOL   , 35*seq_108_mvl/mxv
	.byte	W01
	.byte		N06   , En3 
	.byte	W05
	.byte		VOL   , 40*seq_108_mvl/mxv
	.byte	W01
	.byte		N06   , Fn3 
	.byte	W04
	.byte		VOL   , 46*seq_108_mvl/mxv
	.byte	W02
	.byte		N06   , En3 
	.byte	W03
	.byte		VOL   , 51*seq_108_mvl/mxv
	.byte	W03
	.byte		N06   , Fn3 
	.byte	W01
	.byte		VOL   , 46*seq_108_mvl/mxv
	.byte	W04
	.byte		        40*seq_108_mvl/mxv
	.byte	W01
	.byte		N06   , En3 
	.byte	W03
	.byte		VOL   , 35*seq_108_mvl/mxv
	.byte	W03
	.byte		N06   , Fn3 
	.byte	W01
	.byte		VOL   , 30*seq_108_mvl/mxv
	.byte	W03
	.byte		        25*seq_108_mvl/mxv
	.byte	W02
	.byte		N06   , En3 
	.byte	W03
	.byte		VOL   , 20*seq_108_mvl/mxv
	.byte	W03
	.byte		N06   , Fn3 
	.byte	W02
	.byte		VOL   , 15*seq_108_mvl/mxv
	.byte	W03
	.byte		        10*seq_108_mvl/mxv
	.byte	W01
	.byte	W96
	.byte	W96
	.byte	PATT
	 .word	seq_108_1 + 0x18
	.byte	PATT
	 .word	seq_108_1 + 0x72
	.byte	W05
	.byte		VOL   , 51*seq_108_mvl/mxv
	.byte	W36
	.byte	W01
	.byte		N03   , Cn4 , v120
	.byte	W03
	.byte		        Cn4 , v060
	.byte	W21
	.byte		        As3 , v120
	.byte	W03
	.byte		        As3 , v060
	.byte	W21
	.byte		        An3 , v120
	.byte	W03
	.byte		        An3 , v060
	.byte	W03
	.byte	W18
	.byte		N03   , Gn3 , v120
	.byte	W03
	.byte		        Gn3 , v060
	.byte	W21
	.byte		        Fn3 , v120
	.byte	W03
	.byte		        Fn3 , v060
	.byte	W15
	.byte		        Fn2 , v120
	.byte	W03
	.byte		        Fn2 , v060
	.byte	W09
	.byte		        Gn2 , v120
	.byte	W03
	.byte		        Gn2 , v060
	.byte	W09
	.byte		        Cs2 , v120
	.byte	W03
	.byte		        Cs2 , v060
	.byte	W09
	.byte	PEND
	.byte	PATT
	 .word	seq_108_1 + 0x18
	.byte	PATT
	 .word	seq_108_1 + 0x72
	.byte	W05
	.byte		VOL   , 51*seq_108_mvl/mxv
	.byte	W01
	.byte		N03   , Dn3 , v120
	.byte	W03
	.byte		        Dn3 , v060
	.byte	W09
	.byte		        Dn4 , v120
	.byte	W03
	.byte		        Dn4 , v060
	.byte	W21
	.byte		        Cn4 , v120
	.byte	W03
	.byte		        Cn4 , v060
	.byte	W21
	.byte		        As3 , v120
	.byte	W03
	.byte		        As3 , v060
	.byte	W21
	.byte		        An3 , v120
	.byte	W03
	.byte		        An3 , v060
	.byte	W03
	.byte	PATT
	 .word	seq_108_1 + 0x1C9
	.byte	PATT
	 .word	seq_108_1 + 0x18
	.byte	PATT
	 .word	seq_108_1 + 0x72
	.byte	W96
	.byte	W96
	.byte		N06   , Ds3 , v120
	.byte	W05
	.byte		VOL   , 15*seq_108_mvl/mxv
	.byte	W01
	.byte		N06   , En3 
	.byte	W06
	.byte		        Ds3 
	.byte	W06
	.byte		        En3 
	.byte	W03
	.byte		VOL   , 20*seq_108_mvl/mxv
	.byte	W03
	.byte		N06   , Ds3 
	.byte	W06
	.byte		        En3 
	.byte	W04
	.byte		VOL   , 25*seq_108_mvl/mxv
	.byte	W02
	.byte		N06   , Ds3 
	.byte	W04
	.byte		VOL   , 30*seq_108_mvl/mxv
	.byte	W02
	.byte		N06   , En3 
	.byte	W05
	.byte		VOL   , 35*seq_108_mvl/mxv
	.byte	W01
	.byte		N06   , Ds3 
	.byte	W06
	.byte		        En3 
	.byte	W01
	.byte		VOL   , 40*seq_108_mvl/mxv
	.byte	W03
	.byte		        46*seq_108_mvl/mxv
	.byte	W02
	.byte		N06   , Ds3 
	.byte	W03
	.byte		VOL   , 51*seq_108_mvl/mxv
	.byte	W03
	.byte		N06   , En3 
	.byte	W01
	.byte		VOL   , 46*seq_108_mvl/mxv
	.byte	W04
	.byte		        40*seq_108_mvl/mxv
	.byte	W01
	.byte		N06   , Ds3 
	.byte	W03
	.byte		VOL   , 35*seq_108_mvl/mxv
	.byte	W03
	.byte		N06   , En3 
	.byte	W01
	.byte		VOL   , 30*seq_108_mvl/mxv
	.byte	W03
	.byte		        25*seq_108_mvl/mxv
	.byte	W02
	.byte		N06   , Ds3 
	.byte	W03
	.byte		VOL   , 20*seq_108_mvl/mxv
	.byte	W03
	.byte		N06   , En3 
	.byte	W02
	.byte		VOL   , 15*seq_108_mvl/mxv
	.byte	W03
	.byte		        10*seq_108_mvl/mxv
	.byte	W01
	.byte		N06   , Fs3 
	.byte	W05
	.byte		VOL   , 15*seq_108_mvl/mxv
	.byte	W01
	.byte		N06   , Gn3 
	.byte	W06
	.byte		        Fs3 
	.byte	W06
	.byte		        Gn3 
	.byte	W03
	.byte		VOL   , 20*seq_108_mvl/mxv
	.byte	W03
	.byte		N06   , Fs3 
	.byte	W06
	.byte		        Gn3 
	.byte	W04
	.byte		VOL   , 25*seq_108_mvl/mxv
	.byte	W02
	.byte		N06   , Fs3 
	.byte	W04
	.byte		VOL   , 30*seq_108_mvl/mxv
	.byte	W02
	.byte		N06   , Gn3 
	.byte	W05
	.byte		VOL   , 35*seq_108_mvl/mxv
	.byte	W01
	.byte		N06   , Fs3 
	.byte	W05
	.byte		VOL   , 40*seq_108_mvl/mxv
	.byte	W01
	.byte		N06   , Gn3 
	.byte	W04
	.byte		VOL   , 46*seq_108_mvl/mxv
	.byte	W02
	.byte		N06   , Fs3 
	.byte	W03
	.byte		VOL   , 51*seq_108_mvl/mxv
	.byte	W03
	.byte		N06   , Gn3 
	.byte	W01
	.byte		VOL   , 46*seq_108_mvl/mxv
	.byte	W04
	.byte		        40*seq_108_mvl/mxv
	.byte	W01
	.byte		N06   , Fs3 
	.byte	W03
	.byte		VOL   , 35*seq_108_mvl/mxv
	.byte	W03
	.byte		N06   , Gn3 
	.byte	W01
	.byte		VOL   , 30*seq_108_mvl/mxv
	.byte	W03
	.byte		        25*seq_108_mvl/mxv
	.byte	W02
	.byte		N06   , Fs3 
	.byte	W03
	.byte		VOL   , 20*seq_108_mvl/mxv
	.byte	W03
	.byte		N06   , Gn3 
	.byte	W02
	.byte		VOL   , 15*seq_108_mvl/mxv
	.byte	W03
	.byte		        10*seq_108_mvl/mxv
	.byte	W01
	.byte		N06   , Dn3 , v120
	.byte	W05
	.byte		VOL   , 15*seq_108_mvl/mxv
	.byte	W01
	.byte		N06   , Ds3 
	.byte	W06
	.byte		        Dn3 
	.byte	W06
	.byte		        Ds3 
	.byte	W03
	.byte		VOL   , 20*seq_108_mvl/mxv
	.byte	W03
	.byte		N06   , Dn3 
	.byte	W06
	.byte		        Ds3 
	.byte	W04
	.byte		VOL   , 25*seq_108_mvl/mxv
	.byte	W02
	.byte		N06   , Dn3 
	.byte	W04
	.byte		VOL   , 30*seq_108_mvl/mxv
	.byte	W02
	.byte		N06   , Ds3 
	.byte	W05
	.byte		VOL   , 35*seq_108_mvl/mxv
	.byte	W01
	.byte		N06   , Fn3 
	.byte	W06
	.byte		        Fs3 
	.byte	W01
	.byte		VOL   , 40*seq_108_mvl/mxv
	.byte	W03
	.byte		        46*seq_108_mvl/mxv
	.byte	W02
	.byte		N06   , Fn3 
	.byte	W03
	.byte		VOL   , 51*seq_108_mvl/mxv
	.byte	W03
	.byte		N06   , Fs3 
	.byte	W01
	.byte		VOL   , 46*seq_108_mvl/mxv
	.byte	W04
	.byte		        40*seq_108_mvl/mxv
	.byte	W01
	.byte		N06   , Fn3 
	.byte	W03
	.byte		VOL   , 35*seq_108_mvl/mxv
	.byte	W03
	.byte		N06   , Fs3 
	.byte	W01
	.byte		VOL   , 30*seq_108_mvl/mxv
	.byte	W03
	.byte		        25*seq_108_mvl/mxv
	.byte	W02
	.byte		N06   , Fn3 
	.byte	W03
	.byte		VOL   , 20*seq_108_mvl/mxv
	.byte	W03
	.byte		N06   , Fs3 
	.byte	W02
	.byte		VOL   , 15*seq_108_mvl/mxv
	.byte	W03
	.byte		        10*seq_108_mvl/mxv
	.byte	W01
	.byte	PEND
	.byte		N06   , Bn2 , v120
	.byte	W05
	.byte		VOL   , 15*seq_108_mvl/mxv
	.byte	W01
	.byte		N06   , Cn3 
	.byte	W06
	.byte		        Bn2 
	.byte	W06
	.byte		        Cn3 
	.byte	W03
	.byte		VOL   , 20*seq_108_mvl/mxv
	.byte	W03
	.byte		N06   , Bn2 
	.byte	W06
	.byte		        Cn3 
	.byte	W04
	.byte		VOL   , 25*seq_108_mvl/mxv
	.byte	W02
	.byte		N06   , Bn2 
	.byte	W04
	.byte		VOL   , 30*seq_108_mvl/mxv
	.byte	W02
	.byte		N06   , Cn3 
	.byte	W05
	.byte		VOL   , 35*seq_108_mvl/mxv
	.byte	W01
	.byte		N06   , Dn3 
	.byte	W06
	.byte		VOL   , 40*seq_108_mvl/mxv
	.byte		N06   , Ds3 
	.byte	W04
	.byte		VOL   , 46*seq_108_mvl/mxv
	.byte	W02
	.byte		N06   , Dn3 
	.byte	W03
	.byte		VOL   , 51*seq_108_mvl/mxv
	.byte	W03
	.byte		N06   , Ds3 
	.byte	W01
	.byte		VOL   , 46*seq_108_mvl/mxv
	.byte	W04
	.byte		        40*seq_108_mvl/mxv
	.byte	W01
	.byte		N06   , Dn3 
	.byte	W03
	.byte		VOL   , 35*seq_108_mvl/mxv
	.byte	W03
	.byte		N06   , Ds3 
	.byte	W01
	.byte		VOL   , 30*seq_108_mvl/mxv
	.byte	W03
	.byte		        25*seq_108_mvl/mxv
	.byte	W02
	.byte		N06   , Dn3 
	.byte	W03
	.byte		VOL   , 20*seq_108_mvl/mxv
	.byte	W03
	.byte		N06   , Ds3 
	.byte	W02
	.byte		VOL   , 15*seq_108_mvl/mxv
	.byte	W03
	.byte		        10*seq_108_mvl/mxv
	.byte	W01
	.byte	PEND
	.byte	PATT
	 .word	seq_108_1 + 0x2DB
	.byte	PATT
	 .word	seq_108_1 + 0x335
	.byte	PATT
	 .word	seq_108_1 + 0x2DB
	.byte	PATT
	 .word	seq_108_1 + 0x335
	.byte	PATT
	 .word	seq_108_1 + 0x2DB
	.byte	PATT
	 .word	seq_108_1 + 0x335
	.byte	W48
	.byte	PATT
	 .word	seq_108_1 + 0x18
	.byte	PATT
	 .word	seq_108_1 + 0x72
	.byte	PATT
	 .word	seq_108_1 + 0x18
	.byte	PATT
	 .word	seq_108_1 + 0x72
	.byte	GOTO
	 .word	seq_108_1 + 0xD8
	.byte	FINE

@*********************** Track 03 ***********************@

seq_108_2:
	.byte	KEYSH , seq_108_key+0
	.byte		VOICE , 12
	.byte	W01
	.byte		VOL   , 61*seq_108_mvl/mxv
	.byte	W01
	.byte		PAN   , c_v+36
	.byte	W01
	.byte		LFOS  , 20
	.byte	W01
	.byte		MODT  , mod_pan
	.byte	W01
	.byte		LFODL , 0
	.byte	W01
	.byte		MOD   , 40
	.byte	W18
	.byte	W06
	.byte		N06   , Fn2 , v120
	.byte	W05
	.byte		VOL   , 15*seq_108_mvl/mxv
	.byte	W01
	.byte		N06   , Fs2 
	.byte	W06
	.byte		        Fn2 
	.byte	W06
	.byte		        Fs2 
	.byte	W03
	.byte		VOL   , 20*seq_108_mvl/mxv
	.byte	W03
	.byte		N06   , Fn2 
	.byte	W06
	.byte		        Fs2 
	.byte	W04
	.byte		VOL   , 25*seq_108_mvl/mxv
	.byte	W02
	.byte		N06   , Fn2 
	.byte	W04
	.byte		VOL   , 30*seq_108_mvl/mxv
	.byte	W02
	.byte		N06   , Fs2 
	.byte	W05
	.byte		VOL   , 35*seq_108_mvl/mxv
	.byte	W01
	.byte		N06   , Fn2 
	.byte	W06
	.byte		        Fs2 
	.byte	W01
	.byte		VOL   , 40*seq_108_mvl/mxv
	.byte	W03
	.byte		        46*seq_108_mvl/mxv
	.byte	W02
	.byte		N06   , Fn2 
	.byte	W03
	.byte		VOL   , 51*seq_108_mvl/mxv
	.byte	W03
	.byte		N06   , Fs2 
	.byte	W01
	.byte		VOL   , 46*seq_108_mvl/mxv
	.byte	W04
	.byte		        40*seq_108_mvl/mxv
	.byte	W01
	.byte		N06   , Fn2 
	.byte	W03
	.byte		VOL   , 35*seq_108_mvl/mxv
	.byte	W03
	.byte		N06   , Fs2 
	.byte	W01
	.byte		VOL   , 30*seq_108_mvl/mxv
	.byte	W03
	.byte		        25*seq_108_mvl/mxv
	.byte	W02
	.byte		N06   , Fn2 
	.byte	W03
	.byte		VOL   , 20*seq_108_mvl/mxv
	.byte	W03
	.byte		N06   , Fs2 
	.byte	W02
	.byte		VOL   , 15*seq_108_mvl/mxv
	.byte	W03
	.byte		        10*seq_108_mvl/mxv
	.byte	W01
	.byte	PEND
	.byte		N06   , As2 , v120
	.byte	W05
	.byte		VOL   , 15*seq_108_mvl/mxv
	.byte	W01
	.byte		N06   , Bn2 
	.byte	W06
	.byte		        As2 
	.byte	W06
	.byte		        Bn2 
	.byte	W03
	.byte		VOL   , 20*seq_108_mvl/mxv
	.byte	W03
	.byte		N06   , As2 
	.byte	W06
	.byte		        Bn2 
	.byte	W04
	.byte		VOL   , 25*seq_108_mvl/mxv
	.byte	W02
	.byte		N06   , As2 
	.byte	W04
	.byte		VOL   , 30*seq_108_mvl/mxv
	.byte	W02
	.byte		N06   , Bn2 
	.byte	W05
	.byte		VOL   , 35*seq_108_mvl/mxv
	.byte	W01
	.byte		N06   , As2 
	.byte	W05
	.byte		VOL   , 40*seq_108_mvl/mxv
	.byte	W01
	.byte		N06   , Bn2 
	.byte	W04
	.byte		VOL   , 46*seq_108_mvl/mxv
	.byte	W02
	.byte		N06   , As2 
	.byte	W03
	.byte		VOL   , 51*seq_108_mvl/mxv
	.byte	W03
	.byte		N06   , Bn2 
	.byte	W01
	.byte		VOL   , 46*seq_108_mvl/mxv
	.byte	W04
	.byte		        40*seq_108_mvl/mxv
	.byte	W01
	.byte		N06   , As2 
	.byte	W03
	.byte		VOL   , 35*seq_108_mvl/mxv
	.byte	W03
	.byte		N06   , Bn2 
	.byte	W01
	.byte		VOL   , 30*seq_108_mvl/mxv
	.byte	W03
	.byte		        25*seq_108_mvl/mxv
	.byte	W02
	.byte		N06   , As2 
	.byte	W03
	.byte		VOL   , 20*seq_108_mvl/mxv
	.byte	W03
	.byte		N06   , Bn2 
	.byte	W02
	.byte		VOL   , 15*seq_108_mvl/mxv
	.byte	W03
	.byte		        10*seq_108_mvl/mxv
	.byte	W01
	.byte	PEND
	.byte	PATT
	 .word	seq_108_2 + 0x18
	.byte	PATT
	 .word	seq_108_2 + 0x72
	.byte	W96
	.byte	W96
	.byte	PATT
	 .word	seq_108_2 + 0x18
	.byte	PATT
	 .word	seq_108_2 + 0x72
	.byte	W96
	.byte	W96
	.byte	PATT
	 .word	seq_108_2 + 0x18
	.byte	PATT
	 .word	seq_108_2 + 0x72
	.byte	W96
	.byte	W96
	.byte		N06   , En2 , v120
	.byte	W05
	.byte		VOL   , 15*seq_108_mvl/mxv
	.byte	W01
	.byte		N06   , Fn2 
	.byte	W06
	.byte		        En2 
	.byte	W06
	.byte		        Fn2 
	.byte	W03
	.byte		VOL   , 20*seq_108_mvl/mxv
	.byte	W03
	.byte		N06   , En2 
	.byte	W06
	.byte		        Fn2 
	.byte	W04
	.byte		VOL   , 25*seq_108_mvl/mxv
	.byte	W02
	.byte		N06   , En2 
	.byte	W04
	.byte		VOL   , 30*seq_108_mvl/mxv
	.byte	W02
	.byte		N06   , Fn2 
	.byte	W05
	.byte		VOL   , 35*seq_108_mvl/mxv
	.byte	W01
	.byte		N06   , En2 
	.byte	W06
	.byte		        Fn2 
	.byte	W01
	.byte		VOL   , 40*seq_108_mvl/mxv
	.byte	W03
	.byte		        46*seq_108_mvl/mxv
	.byte	W02
	.byte		N06   , En2 
	.byte	W03
	.byte		VOL   , 51*seq_108_mvl/mxv
	.byte	W03
	.byte		N06   , Fn2 
	.byte	W01
	.byte		VOL   , 46*seq_108_mvl/mxv
	.byte	W04
	.byte		        40*seq_108_mvl/mxv
	.byte	W01
	.byte		N06   , En2 
	.byte	W03
	.byte		VOL   , 35*seq_108_mvl/mxv
	.byte	W03
	.byte		N06   , Fn2 
	.byte	W01
	.byte		VOL   , 30*seq_108_mvl/mxv
	.byte	W03
	.byte		        25*seq_108_mvl/mxv
	.byte	W02
	.byte		N06   , En2 
	.byte	W03
	.byte		VOL   , 20*seq_108_mvl/mxv
	.byte	W03
	.byte		N06   , Fn2 
	.byte	W02
	.byte		VOL   , 15*seq_108_mvl/mxv
	.byte	W03
	.byte		        10*seq_108_mvl/mxv
	.byte	W01
	.byte		N06   , An2 
	.byte	W05
	.byte		VOL   , 15*seq_108_mvl/mxv
	.byte	W01
	.byte		N06   , As2 
	.byte	W06
	.byte		        An2 
	.byte	W06
	.byte		        As2 
	.byte	W03
	.byte		VOL   , 20*seq_108_mvl/mxv
	.byte	W03
	.byte		N06   , An2 
	.byte	W06
	.byte		        As2 
	.byte	W04
	.byte		VOL   , 25*seq_108_mvl/mxv
	.byte	W02
	.byte		N06   , An2 
	.byte	W04
	.byte		VOL   , 30*seq_108_mvl/mxv
	.byte	W02
	.byte		N06   , As2 
	.byte	W05
	.byte		VOL   , 35*seq_108_mvl/mxv
	.byte	W01
	.byte		N06   , An2 
	.byte	W05
	.byte		VOL   , 40*seq_108_mvl/mxv
	.byte	W01
	.byte		N06   , As2 
	.byte	W04
	.byte		VOL   , 46*seq_108_mvl/mxv
	.byte	W02
	.byte		N06   , An2 
	.byte	W03
	.byte		VOL   , 51*seq_108_mvl/mxv
	.byte	W03
	.byte		N06   , As2 
	.byte	W01
	.byte		VOL   , 46*seq_108_mvl/mxv
	.byte	W04
	.byte		        40*seq_108_mvl/mxv
	.byte	W01
	.byte		N06   , An2 
	.byte	W03
	.byte		VOL   , 35*seq_108_mvl/mxv
	.byte	W03
	.byte		N06   , As2 
	.byte	W01
	.byte		VOL   , 30*seq_108_mvl/mxv
	.byte	W03
	.byte		        25*seq_108_mvl/mxv
	.byte	W02
	.byte		N06   , An2 
	.byte	W03
	.byte		VOL   , 20*seq_108_mvl/mxv
	.byte	W03
	.byte		N06   , As2 
	.byte	W02
	.byte		VOL   , 15*seq_108_mvl/mxv
	.byte	W03
	.byte		        10*seq_108_mvl/mxv
	.byte	W01
	.byte	W96
	.byte	W96
	.byte	PATT
	 .word	seq_108_2 + 0x18
	.byte	PATT
	 .word	seq_108_2 + 0x72
	.byte	W11
	.byte		VOL   , 51*seq_108_mvl/mxv
	.byte	W13
	.byte		N08   , Ds4 , v120
	.byte	W08
	.byte		N03   , Ds4 , v060
	.byte	W16
	.byte		N08   , Dn4 , v120
	.byte	W08
	.byte		N03   , Dn4 , v060
	.byte	W16
	.byte		N08   , Cn4 , v120
	.byte	W08
	.byte		N03   , Cn4 , v060
	.byte	W16
	.byte		N08   , As3 , v120
	.byte	W08
	.byte		N03   , As3 , v060
	.byte	W16
	.byte		N08   , An3 , v120
	.byte	W08
	.byte		N03   , An3 , v060
	.byte	W16
	.byte		N06   , Fs3 , v120
	.byte	W06
	.byte		N03   , Cn3 
	.byte	W03
	.byte		        Cn3 , v060
	.byte	W09
	.byte		        Fs2 , v120
	.byte	W03
	.byte		        Fs2 , v060
	.byte	W09
	.byte		        Dn2 , v120
	.byte	W03
	.byte		        Dn2 , v060
	.byte	W09
	.byte		        Cn2 , v120
	.byte	W03
	.byte		        Cn2 , v060
	.byte	W03
	.byte	PEND
	.byte	PATT
	 .word	seq_108_2 + 0x18
	.byte	PATT
	 .word	seq_108_2 + 0x72
	.byte	W11
	.byte		VOL   , 51*seq_108_mvl/mxv
	.byte	W01
	.byte		N03   , Ds3 , v120
	.byte	W03
	.byte		        Ds3 , v060
	.byte	W09
	.byte		N08   , Ds4 , v120
	.byte	W08
	.byte		N03   , Ds4 , v060
	.byte	W16
	.byte		N08   , Dn4 , v120
	.byte	W08
	.byte		N03   , Dn4 , v060
	.byte	W16
	.byte		N08   , Cn4 , v120
	.byte	W08
	.byte		N03   , Cn4 , v060
	.byte	W16
	.byte	PATT
	 .word	seq_108_2 + 0x1CD
	.byte	PATT
	 .word	seq_108_2 + 0x18
	.byte	PATT
	 .word	seq_108_2 + 0x72
	.byte	W96
	.byte	W96
	.byte		N06   , Fs2 , v120
	.byte	W05
	.byte		VOL   , 15*seq_108_mvl/mxv
	.byte	W01
	.byte		N06   , Gn2 
	.byte	W06
	.byte		        Fs2 
	.byte	W06
	.byte		        Gn2 
	.byte	W03
	.byte		VOL   , 20*seq_108_mvl/mxv
	.byte	W03
	.byte		N06   , Fs2 
	.byte	W06
	.byte		        Gn2 
	.byte	W04
	.byte		VOL   , 25*seq_108_mvl/mxv
	.byte	W02
	.byte		N06   , Fs2 
	.byte	W04
	.byte		VOL   , 30*seq_108_mvl/mxv
	.byte	W02
	.byte		N06   , Gn2 
	.byte	W05
	.byte		VOL   , 35*seq_108_mvl/mxv
	.byte	W01
	.byte		N06   , Fs2 
	.byte	W06
	.byte		        Gn2 
	.byte	W01
	.byte		VOL   , 40*seq_108_mvl/mxv
	.byte	W03
	.byte		        46*seq_108_mvl/mxv
	.byte	W02
	.byte		N06   , Fs2 
	.byte	W03
	.byte		VOL   , 51*seq_108_mvl/mxv
	.byte	W03
	.byte		N06   , Gn2 
	.byte	W01
	.byte		VOL   , 46*seq_108_mvl/mxv
	.byte	W04
	.byte		        40*seq_108_mvl/mxv
	.byte	W01
	.byte		N06   , Fs2 
	.byte	W03
	.byte		VOL   , 35*seq_108_mvl/mxv
	.byte	W03
	.byte		N06   , Gn2 
	.byte	W01
	.byte		VOL   , 30*seq_108_mvl/mxv
	.byte	W03
	.byte		        25*seq_108_mvl/mxv
	.byte	W02
	.byte		N06   , Fs2 
	.byte	W03
	.byte		VOL   , 20*seq_108_mvl/mxv
	.byte	W03
	.byte		N06   , Gn2 
	.byte	W02
	.byte		VOL   , 15*seq_108_mvl/mxv
	.byte	W03
	.byte		        10*seq_108_mvl/mxv
	.byte	W01
	.byte		N06   , Bn2 
	.byte	W05
	.byte		VOL   , 15*seq_108_mvl/mxv
	.byte	W01
	.byte		N06   , Cn3 
	.byte	W06
	.byte		        Bn2 
	.byte	W06
	.byte		        Cn3 
	.byte	W03
	.byte		VOL   , 20*seq_108_mvl/mxv
	.byte	W03
	.byte		N06   , Bn2 
	.byte	W06
	.byte		        Cn3 
	.byte	W04
	.byte		VOL   , 25*seq_108_mvl/mxv
	.byte	W02
	.byte		N06   , Bn2 
	.byte	W04
	.byte		VOL   , 30*seq_108_mvl/mxv
	.byte	W02
	.byte		N06   , Cn3 
	.byte	W05
	.byte		VOL   , 35*seq_108_mvl/mxv
	.byte	W01
	.byte		N06   , Bn2 
	.byte	W05
	.byte		VOL   , 40*seq_108_mvl/mxv
	.byte	W01
	.byte		N06   , Cn3 
	.byte	W04
	.byte		VOL   , 46*seq_108_mvl/mxv
	.byte	W02
	.byte		N06   , Bn2 
	.byte	W03
	.byte		VOL   , 51*seq_108_mvl/mxv
	.byte	W03
	.byte		N06   , Cn3 
	.byte	W01
	.byte		VOL   , 46*seq_108_mvl/mxv
	.byte	W04
	.byte		        40*seq_108_mvl/mxv
	.byte	W01
	.byte		N06   , Bn2 
	.byte	W03
	.byte		VOL   , 35*seq_108_mvl/mxv
	.byte	W03
	.byte		N06   , Cn3 
	.byte	W01
	.byte		VOL   , 30*seq_108_mvl/mxv
	.byte	W03
	.byte		        25*seq_108_mvl/mxv
	.byte	W02
	.byte		N06   , Bn2 
	.byte	W03
	.byte		VOL   , 20*seq_108_mvl/mxv
	.byte	W03
	.byte		N06   , Cn3 
	.byte	W02
	.byte		VOL   , 15*seq_108_mvl/mxv
	.byte	W03
	.byte		        10*seq_108_mvl/mxv
	.byte	W01
	.byte		N06   , Fn2 , v120
	.byte	W05
	.byte		VOL   , 15*seq_108_mvl/mxv
	.byte	W01
	.byte		N06   , Fs2 
	.byte	W06
	.byte		        Fn2 
	.byte	W06
	.byte		        Fs2 
	.byte	W03
	.byte		VOL   , 20*seq_108_mvl/mxv
	.byte	W03
	.byte		N06   , Fn2 
	.byte	W06
	.byte		        Fs2 
	.byte	W04
	.byte		VOL   , 25*seq_108_mvl/mxv
	.byte	W02
	.byte		N06   , Fn2 
	.byte	W04
	.byte		VOL   , 30*seq_108_mvl/mxv
	.byte	W02
	.byte		N06   , Fs2 
	.byte	W05
	.byte		VOL   , 35*seq_108_mvl/mxv
	.byte	W01
	.byte		N06   , Gs2 
	.byte	W06
	.byte		        An2 
	.byte	W01
	.byte		VOL   , 40*seq_108_mvl/mxv
	.byte	W03
	.byte		        46*seq_108_mvl/mxv
	.byte	W02
	.byte		N06   , Gs2 
	.byte	W03
	.byte		VOL   , 51*seq_108_mvl/mxv
	.byte	W03
	.byte		N06   , An2 
	.byte	W01
	.byte		VOL   , 46*seq_108_mvl/mxv
	.byte	W04
	.byte		        40*seq_108_mvl/mxv
	.byte	W01
	.byte		N06   , Gs2 
	.byte	W03
	.byte		VOL   , 35*seq_108_mvl/mxv
	.byte	W03
	.byte		N06   , An2 
	.byte	W01
	.byte		VOL   , 30*seq_108_mvl/mxv
	.byte	W03
	.byte		        25*seq_108_mvl/mxv
	.byte	W02
	.byte		N06   , Gs2 
	.byte	W03
	.byte		VOL   , 20*seq_108_mvl/mxv
	.byte	W03
	.byte		N06   , An2 
	.byte	W02
	.byte		VOL   , 15*seq_108_mvl/mxv
	.byte	W03
	.byte		        10*seq_108_mvl/mxv
	.byte	W01
	.byte	PEND
	.byte		N06   , En2 , v120
	.byte	W05
	.byte		VOL   , 15*seq_108_mvl/mxv
	.byte	W01
	.byte		N06   , Fn2 
	.byte	W06
	.byte		        En2 
	.byte	W06
	.byte		        Fn2 
	.byte	W03
	.byte		VOL   , 20*seq_108_mvl/mxv
	.byte	W03
	.byte		N06   , En2 
	.byte	W06
	.byte		        Fn2 
	.byte	W04
	.byte		VOL   , 25*seq_108_mvl/mxv
	.byte	W02
	.byte		N06   , En2 
	.byte	W04
	.byte		VOL   , 30*seq_108_mvl/mxv
	.byte	W02
	.byte		N06   , Fn2 
	.byte	W05
	.byte		VOL   , 35*seq_108_mvl/mxv
	.byte	W01
	.byte		N06   , Gn2 
	.byte	W06
	.byte		VOL   , 40*seq_108_mvl/mxv
	.byte		N06   , Gs2 
	.byte	W04
	.byte		VOL   , 46*seq_108_mvl/mxv
	.byte	W02
	.byte		N06   , Gn2 
	.byte	W03
	.byte		VOL   , 51*seq_108_mvl/mxv
	.byte	W03
	.byte		N06   , Gs2 
	.byte	W01
	.byte		VOL   , 46*seq_108_mvl/mxv
	.byte	W04
	.byte		        40*seq_108_mvl/mxv
	.byte	W01
	.byte		N06   , Gn2 
	.byte	W03
	.byte		VOL   , 35*seq_108_mvl/mxv
	.byte	W03
	.byte		N06   , Gs2 
	.byte	W01
	.byte		VOL   , 30*seq_108_mvl/mxv
	.byte	W03
	.byte		        25*seq_108_mvl/mxv
	.byte	W02
	.byte		N06   , Gn2 
	.byte	W03
	.byte		VOL   , 20*seq_108_mvl/mxv
	.byte	W03
	.byte		N06   , Gs2 
	.byte	W02
	.byte		VOL   , 15*seq_108_mvl/mxv
	.byte	W03
	.byte		        10*seq_108_mvl/mxv
	.byte	W01
	.byte	PEND
	.byte	PATT
	 .word	seq_108_2 + 0x2EB
	.byte	PATT
	 .word	seq_108_2 + 0x345
	.byte	PATT
	 .word	seq_108_2 + 0x2EB
	.byte	PATT
	 .word	seq_108_2 + 0x345
	.byte	PATT
	 .word	seq_108_2 + 0x2EB
	.byte	PATT
	 .word	seq_108_2 + 0x345
	.byte	W48
	.byte	PATT
	 .word	seq_108_2 + 0x18
	.byte	PATT
	 .word	seq_108_2 + 0x72
	.byte	PATT
	 .word	seq_108_2 + 0x18
	.byte	PATT
	 .word	seq_108_2 + 0x72
	.byte	GOTO
	 .word	seq_108_2 + 0xD8
	.byte	FINE

@*********************** Track 04 ***********************@

seq_108_3:
	.byte	KEYSH , seq_108_key+0
	.byte	W06
	.byte		VOICE , 52
	.byte	W01
	.byte		VOL   , 46*seq_108_mvl/mxv
	.byte	W01
	.byte		PAN   , c_v+0
	.byte	W01
	.byte		LFOS  , 30
	.byte	W01
	.byte		MODT  , mod_pan
	.byte	W01
	.byte		LFODL , 0
	.byte	W01
	.byte		MOD   , 120
	.byte	W12
	.byte	W06
	.byte	W96
	.byte	W96
	.byte	W96
	.byte	W96
	.byte		N12   , As5 , v120
	.byte	W23
	.byte		MOD   , 0
	.byte	W01
	.byte		N12   , An5 
	.byte	W23
	.byte		MOD   , 120
	.byte	W01
	.byte		N12   , Fn5 
	.byte	W23
	.byte		MOD   , 0
	.byte	W01
	.byte		N12   , Cs5 
	.byte	W12
	.byte		        Fn5 
	.byte	W12
	.byte	PEND
	.byte	W12
	.byte		N12   , Dn5 , v120
	.byte	W36
	.byte		N06   , Dn4 
	.byte	W06
	.byte		        Ds4 
	.byte	W06
	.byte		N12   , Fn4 
	.byte	W12
	.byte		        Ds4 
	.byte	W12
	.byte		        Cs4 
	.byte	W12
	.byte	PEND
	.byte		N12   , Dn4 , v120
	.byte	W12
	.byte		        Dn4 , v060
	.byte	W84
	.byte	PEND
	.byte	W92
	.byte	W03
	.byte		MOD   , 120
	.byte	W01
	.byte	PEND
	.byte	PATT
	 .word	seq_108_3 + 0x1D
	.byte	PATT
	 .word	seq_108_3 + 0x36
	.byte	PATT
	 .word	seq_108_3 + 0x48
	.byte	PATT
	 .word	seq_108_3 + 0x50
	.byte		N12   , An5 , v120
	.byte	W23
	.byte		MOD   , 0
	.byte	W01
	.byte		N12   , Gs5 
	.byte	W23
	.byte		MOD   , 120
	.byte	W01
	.byte		N12   , En5 
	.byte	W23
	.byte		MOD   , 0
	.byte	W01
	.byte		N12   , Cn5 
	.byte	W12
	.byte		        En5 
	.byte	W12
	.byte	W12
	.byte		        Cs5 
	.byte	W36
	.byte		N06   , Cs4 
	.byte	W06
	.byte		        Dn4 
	.byte	W06
	.byte		N12   , En4 
	.byte	W12
	.byte		        Dn4 
	.byte	W12
	.byte		        Cn4 
	.byte	W12
	.byte		        Cs4 
	.byte	W12
	.byte		        Cs4 , v060
	.byte	W84
	.byte	PATT
	 .word	seq_108_3 + 0x50
	.byte	PATT
	 .word	seq_108_3 + 0x1D
	.byte	PATT
	 .word	seq_108_3 + 0x36
	.byte	PATT
	 .word	seq_108_3 + 0x48
	.byte	W96
	.byte	W96
	.byte	W96
	.byte	W96
	.byte	W96
	.byte	W96
	.byte	W96
	.byte	W96
	.byte	PATT
	 .word	seq_108_3 + 0x50
	.byte		N12   , Bn5 , v120
	.byte	W23
	.byte		MOD   , 0
	.byte	W01
	.byte		N12   , As5 
	.byte	W23
	.byte		MOD   , 120
	.byte	W01
	.byte		N12   , Fs5 
	.byte	W23
	.byte		MOD   , 0
	.byte	W01
	.byte		N12   , Dn5 
	.byte	W12
	.byte		        Fs5 
	.byte	W12
	.byte	W12
	.byte		        Ds5 
	.byte	W36
	.byte		N06   , Ds4 
	.byte	W06
	.byte		        En4 
	.byte	W06
	.byte		N12   , Fs4 
	.byte	W12
	.byte		        En4 
	.byte	W12
	.byte		        Fs4 
	.byte	W12
	.byte		        Ds4 
	.byte	W12
	.byte		        Ds4 , v060
	.byte	W84
	.byte	PATT
	 .word	seq_108_3 + 0x50
	.byte		N12   , As4 , v120
	.byte	W12
	.byte		        An4 
	.byte	W12
	.byte		        Dn5 
	.byte	W12
	.byte		        Cn5 
	.byte	W12
	.byte		N18   , Cs5 
	.byte	W18
	.byte		N12   , Cs5 , v060
	.byte	W12
	.byte		N06   , Cs5 , v120
	.byte	W06
	.byte		        Ds5 
	.byte	W06
	.byte		N12   , En5 
	.byte	W06
	.byte	PEND
	.byte	W06
	.byte		N06   , En5 , v120
	.byte	W06
	.byte		        Fs5 
	.byte	W06
	.byte		N12   , Gn5 
	.byte	W78
	.byte	PEND
	.byte	W24
	.byte		N12   , Dn5 , v120
	.byte	W12
	.byte		        Dn5 , v060
	.byte	W12
	.byte		        Cs5 , v120
	.byte	W12
	.byte		        Gs4 
	.byte	W12
	.byte		        Fn5 
	.byte	W12
	.byte		        Fn5 , v060
	.byte	W12
	.byte	PEND
	.byte	W96
	.byte	PATT
	 .word	seq_108_3 + 0xE8
	.byte	PATT
	 .word	seq_108_3 + 0x103
	.byte	PATT
	 .word	seq_108_3 + 0x10E
	.byte	W96
	.byte		N03   , Gs1 , v100
	.byte	W01
	.byte		        Dn2 , v120
	.byte	W05
	.byte		        Dn2 , v100
	.byte	W01
	.byte		        Gn2 , v120
	.byte	W05
	.byte		        Gn2 , v100
	.byte	W01
	.byte		        Cn3 , v120
	.byte	W05
	.byte		        Cn3 , v100
	.byte	W01
	.byte		        Fn3 , v120
	.byte	W05
	.byte		        Fn3 , v100
	.byte	W01
	.byte		        As3 , v120
	.byte	W05
	.byte		        As3 , v100
	.byte	W01
	.byte		        Ds4 , v120
	.byte	W05
	.byte		        Ds4 , v100
	.byte	W01
	.byte		        Gs4 , v120
	.byte	W05
	.byte		        Gs4 , v100
	.byte	W01
	.byte		        Cs5 , v120
	.byte	W05
	.byte	W96
	.byte	W96
	.byte	W96
	.byte	W96
	.byte	GOTO
	 .word	seq_108_3 + 0x1D
	.byte	FINE

@*********************** Track 05 ***********************@

seq_108_4:
	.byte	KEYSH , seq_108_key+0
	.byte	W06
	.byte		VOICE , 60
	.byte	W01
	.byte		VOL   , 51*seq_108_mvl/mxv
	.byte	W01
	.byte		PAN   , c_v+0
	.byte	W01
	.byte		LFOS  , 15
	.byte	W01
	.byte		MODT  , mod_pan
	.byte	W01
	.byte		LFODL , 0
	.byte	W01
	.byte		MOD   , 60
	.byte	W12
	.byte	W06
	.byte		N06   , As3 , v120
	.byte	W05
	.byte		VOL   , 10*seq_108_mvl/mxv
	.byte	W01
	.byte		N06   , Bn3 
	.byte	W06
	.byte		        As3 
	.byte	W06
	.byte		        Bn3 
	.byte	W03
	.byte		VOL   , 15*seq_108_mvl/mxv
	.byte	W03
	.byte		N06   , As3 
	.byte	W06
	.byte		        Bn3 
	.byte	W04
	.byte		VOL   , 20*seq_108_mvl/mxv
	.byte	W02
	.byte		N06   , As3 
	.byte	W04
	.byte		VOL   , 25*seq_108_mvl/mxv
	.byte	W02
	.byte		N06   , Bn3 
	.byte	W05
	.byte		VOL   , 30*seq_108_mvl/mxv
	.byte	W01
	.byte		N06   , As3 
	.byte	W06
	.byte		        Bn3 
	.byte	W01
	.byte		VOL   , 35*seq_108_mvl/mxv
	.byte	W03
	.byte		        40*seq_108_mvl/mxv
	.byte	W02
	.byte		N06   , As3 
	.byte	W03
	.byte		VOL   , 46*seq_108_mvl/mxv
	.byte	W03
	.byte		N06   , Bn3 
	.byte	W01
	.byte		VOL   , 40*seq_108_mvl/mxv
	.byte	W04
	.byte		        35*seq_108_mvl/mxv
	.byte	W01
	.byte		N06   , As3 
	.byte	W03
	.byte		VOL   , 30*seq_108_mvl/mxv
	.byte	W03
	.byte		N06   , Bn3 
	.byte	W01
	.byte		VOL   , 25*seq_108_mvl/mxv
	.byte	W03
	.byte		        20*seq_108_mvl/mxv
	.byte	W02
	.byte		N06   , As3 
	.byte	W03
	.byte		VOL   , 15*seq_108_mvl/mxv
	.byte	W03
	.byte		N06   , Bn3 
	.byte	W02
	.byte		VOL   , 10*seq_108_mvl/mxv
	.byte	W03
	.byte		        5*seq_108_mvl/mxv
	.byte	W01
	.byte	PEND
	.byte		N06   , Dn4 , v120
	.byte	W05
	.byte		VOL   , 10*seq_108_mvl/mxv
	.byte	W01
	.byte		N06   , Ds4 
	.byte	W06
	.byte		        Dn4 
	.byte	W06
	.byte		        Ds4 
	.byte	W03
	.byte		VOL   , 15*seq_108_mvl/mxv
	.byte	W03
	.byte		N06   , Dn4 
	.byte	W06
	.byte		        Ds4 
	.byte	W04
	.byte		VOL   , 20*seq_108_mvl/mxv
	.byte	W02
	.byte		N06   , Dn4 
	.byte	W04
	.byte		VOL   , 25*seq_108_mvl/mxv
	.byte	W02
	.byte		N06   , Ds4 
	.byte	W05
	.byte		VOL   , 30*seq_108_mvl/mxv
	.byte	W01
	.byte		N06   , Dn4 
	.byte	W06
	.byte		VOL   , 35*seq_108_mvl/mxv
	.byte		N06   , Ds4 
	.byte	W04
	.byte		VOL   , 40*seq_108_mvl/mxv
	.byte	W02
	.byte		N06   , Dn4 
	.byte	W03
	.byte		VOL   , 46*seq_108_mvl/mxv
	.byte	W03
	.byte		N06   , Ds4 
	.byte	W01
	.byte		VOL   , 40*seq_108_mvl/mxv
	.byte	W04
	.byte		        35*seq_108_mvl/mxv
	.byte	W01
	.byte		N06   , Dn4 
	.byte	W03
	.byte		VOL   , 30*seq_108_mvl/mxv
	.byte	W03
	.byte		N06   , Ds4 
	.byte	W01
	.byte		VOL   , 25*seq_108_mvl/mxv
	.byte	W03
	.byte		        20*seq_108_mvl/mxv
	.byte	W02
	.byte		N06   , Dn4 
	.byte	W03
	.byte		VOL   , 15*seq_108_mvl/mxv
	.byte	W03
	.byte		N06   , Ds4 
	.byte	W02
	.byte		VOL   , 10*seq_108_mvl/mxv
	.byte	W03
	.byte		        5*seq_108_mvl/mxv
	.byte	W01
	.byte	PEND
	.byte	PATT
	 .word	seq_108_4 + 0x19
	.byte	PATT
	 .word	seq_108_4 + 0x73
	.byte	W96
	.byte	W96
	.byte	PATT
	 .word	seq_108_4 + 0x19
	.byte	PATT
	 .word	seq_108_4 + 0x73
	.byte	W96
	.byte	W96
	.byte	PATT
	 .word	seq_108_4 + 0x19
	.byte	PATT
	 .word	seq_108_4 + 0x73
	.byte	W96
	.byte	W96
	.byte		N06   , An3 , v120
	.byte	W05
	.byte		VOL   , 10*seq_108_mvl/mxv
	.byte	W01
	.byte		N06   , As3 
	.byte	W06
	.byte		        An3 
	.byte	W06
	.byte		        As3 
	.byte	W03
	.byte		VOL   , 15*seq_108_mvl/mxv
	.byte	W03
	.byte		N06   , An3 
	.byte	W06
	.byte		        As3 
	.byte	W04
	.byte		VOL   , 20*seq_108_mvl/mxv
	.byte	W02
	.byte		N06   , An3 
	.byte	W04
	.byte		VOL   , 25*seq_108_mvl/mxv
	.byte	W02
	.byte		N06   , As3 
	.byte	W05
	.byte		VOL   , 30*seq_108_mvl/mxv
	.byte	W01
	.byte		N06   , An3 
	.byte	W06
	.byte		        As3 
	.byte	W01
	.byte		VOL   , 35*seq_108_mvl/mxv
	.byte	W03
	.byte		        40*seq_108_mvl/mxv
	.byte	W02
	.byte		N06   , An3 
	.byte	W03
	.byte		VOL   , 46*seq_108_mvl/mxv
	.byte	W03
	.byte		N06   , As3 
	.byte	W01
	.byte		VOL   , 40*seq_108_mvl/mxv
	.byte	W04
	.byte		        35*seq_108_mvl/mxv
	.byte	W01
	.byte		N06   , An3 
	.byte	W03
	.byte		VOL   , 30*seq_108_mvl/mxv
	.byte	W03
	.byte		N06   , As3 
	.byte	W01
	.byte		VOL   , 25*seq_108_mvl/mxv
	.byte	W03
	.byte		        20*seq_108_mvl/mxv
	.byte	W02
	.byte		N06   , An3 
	.byte	W03
	.byte		VOL   , 15*seq_108_mvl/mxv
	.byte	W03
	.byte		N06   , As3 
	.byte	W02
	.byte		VOL   , 10*seq_108_mvl/mxv
	.byte	W03
	.byte		        5*seq_108_mvl/mxv
	.byte	W01
	.byte		N06   , Cs4 
	.byte	W05
	.byte		VOL   , 10*seq_108_mvl/mxv
	.byte	W01
	.byte		N06   , Dn4 
	.byte	W06
	.byte		        Cs4 
	.byte	W06
	.byte		        Dn4 
	.byte	W03
	.byte		VOL   , 15*seq_108_mvl/mxv
	.byte	W03
	.byte		N06   , Cs4 
	.byte	W06
	.byte		        Dn4 
	.byte	W04
	.byte		VOL   , 20*seq_108_mvl/mxv
	.byte	W02
	.byte		N06   , Cs4 
	.byte	W04
	.byte		VOL   , 25*seq_108_mvl/mxv
	.byte	W02
	.byte		N06   , Dn4 
	.byte	W05
	.byte		VOL   , 30*seq_108_mvl/mxv
	.byte	W01
	.byte		N06   , Cs4 
	.byte	W06
	.byte		VOL   , 35*seq_108_mvl/mxv
	.byte		N06   , Dn4 
	.byte	W04
	.byte		VOL   , 40*seq_108_mvl/mxv
	.byte	W02
	.byte		N06   , Cs4 
	.byte	W03
	.byte		VOL   , 46*seq_108_mvl/mxv
	.byte	W03
	.byte		N06   , Dn4 
	.byte	W01
	.byte		VOL   , 40*seq_108_mvl/mxv
	.byte	W04
	.byte		        35*seq_108_mvl/mxv
	.byte	W01
	.byte		N06   , Cs4 
	.byte	W03
	.byte		VOL   , 30*seq_108_mvl/mxv
	.byte	W03
	.byte		N06   , Dn4 
	.byte	W01
	.byte		VOL   , 25*seq_108_mvl/mxv
	.byte	W03
	.byte		        20*seq_108_mvl/mxv
	.byte	W02
	.byte		N06   , Cs4 
	.byte	W03
	.byte		VOL   , 15*seq_108_mvl/mxv
	.byte	W03
	.byte		N06   , Dn4 
	.byte	W02
	.byte		VOL   , 10*seq_108_mvl/mxv
	.byte	W03
	.byte		        5*seq_108_mvl/mxv
	.byte	W01
	.byte	W96
	.byte	W96
	.byte	PATT
	 .word	seq_108_4 + 0x19
	.byte	PATT
	 .word	seq_108_4 + 0x73
	.byte	W96
	.byte	W96
	.byte	PATT
	 .word	seq_108_4 + 0x19
	.byte	PATT
	 .word	seq_108_4 + 0x73
	.byte	W96
	.byte	W96
	.byte	PATT
	 .word	seq_108_4 + 0x19
	.byte	PATT
	 .word	seq_108_4 + 0x73
	.byte	W96
	.byte	W96
	.byte		N06   , Bn3 , v120
	.byte	W05
	.byte		VOL   , 10*seq_108_mvl/mxv
	.byte	W01
	.byte		N06   , Cn4 
	.byte	W06
	.byte		        Bn3 
	.byte	W06
	.byte		        Cn4 
	.byte	W03
	.byte		VOL   , 15*seq_108_mvl/mxv
	.byte	W03
	.byte		N06   , Bn3 
	.byte	W06
	.byte		        Cn4 
	.byte	W04
	.byte		VOL   , 20*seq_108_mvl/mxv
	.byte	W02
	.byte		N06   , Bn3 
	.byte	W04
	.byte		VOL   , 25*seq_108_mvl/mxv
	.byte	W02
	.byte		N06   , Cn4 
	.byte	W05
	.byte		VOL   , 30*seq_108_mvl/mxv
	.byte	W01
	.byte		N06   , Bn3 
	.byte	W06
	.byte		        Cn4 
	.byte	W01
	.byte		VOL   , 35*seq_108_mvl/mxv
	.byte	W03
	.byte		        40*seq_108_mvl/mxv
	.byte	W02
	.byte		N06   , Bn3 
	.byte	W03
	.byte		VOL   , 46*seq_108_mvl/mxv
	.byte	W03
	.byte		N06   , Cn4 
	.byte	W01
	.byte		VOL   , 40*seq_108_mvl/mxv
	.byte	W04
	.byte		        35*seq_108_mvl/mxv
	.byte	W01
	.byte		N06   , Bn3 
	.byte	W03
	.byte		VOL   , 30*seq_108_mvl/mxv
	.byte	W03
	.byte		N06   , Cn4 
	.byte	W01
	.byte		VOL   , 25*seq_108_mvl/mxv
	.byte	W03
	.byte		        20*seq_108_mvl/mxv
	.byte	W02
	.byte		N06   , Bn3 
	.byte	W03
	.byte		VOL   , 15*seq_108_mvl/mxv
	.byte	W03
	.byte		N06   , Cn4 
	.byte	W02
	.byte		VOL   , 10*seq_108_mvl/mxv
	.byte	W03
	.byte		        5*seq_108_mvl/mxv
	.byte	W01
	.byte		N06   , Ds4 
	.byte	W05
	.byte		VOL   , 10*seq_108_mvl/mxv
	.byte	W01
	.byte		N06   , En4 
	.byte	W06
	.byte		        Ds4 
	.byte	W06
	.byte		        En4 
	.byte	W03
	.byte		VOL   , 15*seq_108_mvl/mxv
	.byte	W03
	.byte		N06   , Ds4 
	.byte	W06
	.byte		        En4 
	.byte	W04
	.byte		VOL   , 20*seq_108_mvl/mxv
	.byte	W02
	.byte		N06   , Ds4 
	.byte	W04
	.byte		VOL   , 25*seq_108_mvl/mxv
	.byte	W02
	.byte		N06   , En4 
	.byte	W05
	.byte		VOL   , 30*seq_108_mvl/mxv
	.byte	W01
	.byte		N06   , Ds4 
	.byte	W06
	.byte		VOL   , 35*seq_108_mvl/mxv
	.byte		N06   , En4 
	.byte	W04
	.byte		VOL   , 40*seq_108_mvl/mxv
	.byte	W02
	.byte		N06   , Ds4 
	.byte	W03
	.byte		VOL   , 46*seq_108_mvl/mxv
	.byte	W03
	.byte		N06   , En4 
	.byte	W01
	.byte		VOL   , 40*seq_108_mvl/mxv
	.byte	W04
	.byte		        35*seq_108_mvl/mxv
	.byte	W01
	.byte		N06   , Ds4 
	.byte	W03
	.byte		VOL   , 30*seq_108_mvl/mxv
	.byte	W03
	.byte		N06   , En4 
	.byte	W01
	.byte		VOL   , 25*seq_108_mvl/mxv
	.byte	W03
	.byte		        20*seq_108_mvl/mxv
	.byte	W02
	.byte		N06   , Ds4 
	.byte	W03
	.byte		VOL   , 15*seq_108_mvl/mxv
	.byte	W03
	.byte		N06   , En4 
	.byte	W02
	.byte		VOL   , 10*seq_108_mvl/mxv
	.byte	W03
	.byte		        5*seq_108_mvl/mxv
	.byte	W01
	.byte	W96
	.byte	W96
	.byte	W96
	.byte	W96
	.byte	W96
	.byte	W96
	.byte	W96
	.byte	W96
	.byte	W48
	.byte	PATT
	 .word	seq_108_4 + 0x19
	.byte	PATT
	 .word	seq_108_4 + 0x73
	.byte	PATT
	 .word	seq_108_4 + 0x19
	.byte	PATT
	 .word	seq_108_4 + 0x73
	.byte	GOTO
	 .word	seq_108_4 + 0xD8
	.byte	FINE

@*********************** Track 06 ***********************@

seq_108_5:
	.byte	KEYSH , seq_108_key+0
	.byte	W06
	.byte		VOICE , 58
	.byte	W01
	.byte		VOL   , 51*seq_108_mvl/mxv
	.byte	W01
	.byte		PAN   , c_v+0
	.byte	W01
	.byte		LFOS  , 20
	.byte	W01
	.byte		MODT  , mod_pan
	.byte	W01
	.byte		BENDR , 12
	.byte	W01
	.byte		MOD   , 60
	.byte	W12
	.byte	W06
	.byte	W23
	.byte		VOL   , 20*seq_108_mvl/mxv
	.byte	W01
	.byte		N72   , Gn2 , v120
	.byte	W04
	.byte		VOL   , 25*seq_108_mvl/mxv
	.byte	W08
	.byte		        30*seq_108_mvl/mxv
	.byte	W13
	.byte		        35*seq_108_mvl/mxv
	.byte	W09
	.byte		        40*seq_108_mvl/mxv
	.byte	W14
	.byte		        35*seq_108_mvl/mxv
	.byte	W11
	.byte		        30*seq_108_mvl/mxv
	.byte	W04
	.byte		        25*seq_108_mvl/mxv
	.byte	W02
	.byte		MOD   , 0
	.byte	W02
	.byte		VOL   , 20*seq_108_mvl/mxv
	.byte	W04
	.byte		        15*seq_108_mvl/mxv
	.byte	W01
	.byte	W22
	.byte		MOD   , 60
	.byte	W01
	.byte		VOL   , 20*seq_108_mvl/mxv
	.byte	W01
	.byte		N72   , Gn1 , v120
	.byte	W04
	.byte		VOL   , 25*seq_108_mvl/mxv
	.byte	W08
	.byte		        30*seq_108_mvl/mxv
	.byte	W13
	.byte		        35*seq_108_mvl/mxv
	.byte	W09
	.byte		        40*seq_108_mvl/mxv
	.byte	W14
	.byte		        35*seq_108_mvl/mxv
	.byte	W11
	.byte		        30*seq_108_mvl/mxv
	.byte	W04
	.byte		        25*seq_108_mvl/mxv
	.byte	W02
	.byte		MOD   , 0
	.byte	W02
	.byte		VOL   , 20*seq_108_mvl/mxv
	.byte	W05
	.byte	PEND
	.byte		N96   , Gn2 , v120
	.byte	W13
	.byte		VOL   , 20*seq_108_mvl/mxv
	.byte	W10
	.byte		MOD   , 60
	.byte	W05
	.byte		VOL   , 25*seq_108_mvl/mxv
	.byte	W08
	.byte		        30*seq_108_mvl/mxv
	.byte	W13
	.byte		        35*seq_108_mvl/mxv
	.byte	W09
	.byte		        40*seq_108_mvl/mxv
	.byte	W14
	.byte		        35*seq_108_mvl/mxv
	.byte	W11
	.byte		        30*seq_108_mvl/mxv
	.byte	W04
	.byte		        25*seq_108_mvl/mxv
	.byte	W02
	.byte		MOD   , 0
	.byte	W02
	.byte		VOL   , 20*seq_108_mvl/mxv
	.byte	W04
	.byte		        15*seq_108_mvl/mxv
	.byte	W01
	.byte	PEND
	.byte		N96   , Gn1 
	.byte	W01
	.byte		VOL   , 20*seq_108_mvl/mxv
	.byte	W04
	.byte		        25*seq_108_mvl/mxv
	.byte	W08
	.byte		        20*seq_108_mvl/mxv
	.byte	W10
	.byte		MOD   , 60
	.byte	W05
	.byte		VOL   , 25*seq_108_mvl/mxv
	.byte	W08
	.byte		        30*seq_108_mvl/mxv
	.byte	W13
	.byte		        35*seq_108_mvl/mxv
	.byte	W09
	.byte		        40*seq_108_mvl/mxv
	.byte	W14
	.byte		        35*seq_108_mvl/mxv
	.byte	W11
	.byte		        30*seq_108_mvl/mxv
	.byte	W04
	.byte		        25*seq_108_mvl/mxv
	.byte	W02
	.byte		MOD   , 0
	.byte	W02
	.byte		VOL   , 20*seq_108_mvl/mxv
	.byte	W05
	.byte		N72   , Dn2 , v120
	.byte		N72   , As2 
	.byte	W01
	.byte		VOL   , 30*seq_108_mvl/mxv
	.byte	W04
	.byte		        35*seq_108_mvl/mxv
	.byte	W08
	.byte		        30*seq_108_mvl/mxv
	.byte	W10
	.byte		MOD   , 60
	.byte	W05
	.byte		VOL   , 35*seq_108_mvl/mxv
	.byte	W08
	.byte		        40*seq_108_mvl/mxv
	.byte	W13
	.byte		        46*seq_108_mvl/mxv
	.byte	W09
	.byte		        51*seq_108_mvl/mxv
	.byte	W14
	.byte		N24   , Cs2 
	.byte		N24   , As2 , v080
	.byte	W01
	.byte		VOL   , 46*seq_108_mvl/mxv
	.byte	W10
	.byte		        40*seq_108_mvl/mxv
	.byte	W04
	.byte		        35*seq_108_mvl/mxv
	.byte	W02
	.byte		MOD   , 0
	.byte	W02
	.byte		VOL   , 30*seq_108_mvl/mxv
	.byte	W04
	.byte		        25*seq_108_mvl/mxv
	.byte	W01
	.byte	PEND
	.byte		N72   , Dn2 , v120
	.byte		N72   , As2 
	.byte	W01
	.byte		VOL   , 30*seq_108_mvl/mxv
	.byte	W04
	.byte		        35*seq_108_mvl/mxv
	.byte	W08
	.byte		        30*seq_108_mvl/mxv
	.byte	W10
	.byte		MOD   , 60
	.byte	W05
	.byte		VOL   , 35*seq_108_mvl/mxv
	.byte	W08
	.byte		        40*seq_108_mvl/mxv
	.byte	W13
	.byte		        46*seq_108_mvl/mxv
	.byte	W09
	.byte		        51*seq_108_mvl/mxv
	.byte	W14
	.byte		N24   , Cs2 
	.byte		N24   , As2 , v080
	.byte	W01
	.byte		VOL   , 46*seq_108_mvl/mxv
	.byte	W10
	.byte		        40*seq_108_mvl/mxv
	.byte	W04
	.byte		        35*seq_108_mvl/mxv
	.byte	W02
	.byte		MOD   , 0
	.byte	W02
	.byte		VOL   , 30*seq_108_mvl/mxv
	.byte	W05
	.byte	PEND
	.byte	W22
	.byte		MOD   , 60
	.byte	W01
	.byte		VOL   , 25*seq_108_mvl/mxv
	.byte	W01
	.byte		N72   , Gn2 , v120
	.byte	W04
	.byte		VOL   , 30*seq_108_mvl/mxv
	.byte	W08
	.byte		        35*seq_108_mvl/mxv
	.byte	W13
	.byte		        40*seq_108_mvl/mxv
	.byte	W09
	.byte		        46*seq_108_mvl/mxv
	.byte	W14
	.byte		        40*seq_108_mvl/mxv
	.byte	W11
	.byte		        35*seq_108_mvl/mxv
	.byte	W04
	.byte		        30*seq_108_mvl/mxv
	.byte	W02
	.byte		MOD   , 0
	.byte	W02
	.byte		VOL   , 25*seq_108_mvl/mxv
	.byte	W04
	.byte		        20*seq_108_mvl/mxv
	.byte	W01
	.byte	PEND
	.byte		N96   , Gn1 , v120
	.byte	W01
	.byte		VOL   , 25*seq_108_mvl/mxv
	.byte	W04
	.byte		        30*seq_108_mvl/mxv
	.byte	W08
	.byte		        25*seq_108_mvl/mxv
	.byte	W10
	.byte		MOD   , 60
	.byte	W05
	.byte		VOL   , 30*seq_108_mvl/mxv
	.byte	W08
	.byte		        35*seq_108_mvl/mxv
	.byte	W13
	.byte		        40*seq_108_mvl/mxv
	.byte	W09
	.byte		        46*seq_108_mvl/mxv
	.byte	W14
	.byte		        40*seq_108_mvl/mxv
	.byte	W11
	.byte		        35*seq_108_mvl/mxv
	.byte	W04
	.byte		        30*seq_108_mvl/mxv
	.byte	W02
	.byte		MOD   , 0
	.byte	W02
	.byte		VOL   , 25*seq_108_mvl/mxv
	.byte	W04
	.byte		        20*seq_108_mvl/mxv
	.byte	W01
	.byte	PEND
	.byte	PATT
	 .word	seq_108_5 + 0x9D
	.byte	PATT
	 .word	seq_108_5 + 0xCC
	.byte	PATT
	 .word	seq_108_5 + 0xF9
	.byte	PATT
	 .word	seq_108_5 + 0x11C
	.byte		N72   , Cs2 , v120
	.byte		N72   , An2 
	.byte	W01
	.byte		VOL   , 30*seq_108_mvl/mxv
	.byte	W04
	.byte		        35*seq_108_mvl/mxv
	.byte	W08
	.byte		        30*seq_108_mvl/mxv
	.byte	W10
	.byte		MOD   , 60
	.byte	W05
	.byte		VOL   , 35*seq_108_mvl/mxv
	.byte	W08
	.byte		        40*seq_108_mvl/mxv
	.byte	W13
	.byte		        46*seq_108_mvl/mxv
	.byte	W09
	.byte		        51*seq_108_mvl/mxv
	.byte	W14
	.byte		N24   , Cn2 
	.byte		N24   , An2 , v080
	.byte	W01
	.byte		VOL   , 46*seq_108_mvl/mxv
	.byte	W10
	.byte		        40*seq_108_mvl/mxv
	.byte	W04
	.byte		        35*seq_108_mvl/mxv
	.byte	W02
	.byte		MOD   , 0
	.byte	W02
	.byte		VOL   , 30*seq_108_mvl/mxv
	.byte	W04
	.byte		        25*seq_108_mvl/mxv
	.byte	W01
	.byte		N72   , Cs2 , v120
	.byte		N72   , An2 
	.byte	W01
	.byte		VOL   , 30*seq_108_mvl/mxv
	.byte	W04
	.byte		        35*seq_108_mvl/mxv
	.byte	W08
	.byte		        30*seq_108_mvl/mxv
	.byte	W10
	.byte		MOD   , 60
	.byte	W05
	.byte		VOL   , 35*seq_108_mvl/mxv
	.byte	W08
	.byte		        40*seq_108_mvl/mxv
	.byte	W13
	.byte		        46*seq_108_mvl/mxv
	.byte	W09
	.byte		        51*seq_108_mvl/mxv
	.byte	W14
	.byte		N24   , Cn2 
	.byte		N24   , An2 , v080
	.byte	W01
	.byte		VOL   , 46*seq_108_mvl/mxv
	.byte	W10
	.byte		        40*seq_108_mvl/mxv
	.byte	W04
	.byte		        35*seq_108_mvl/mxv
	.byte	W02
	.byte		MOD   , 0
	.byte	W02
	.byte		VOL   , 30*seq_108_mvl/mxv
	.byte	W05
	.byte	W22
	.byte		MOD   , 60
	.byte	W01
	.byte		VOL   , 25*seq_108_mvl/mxv
	.byte	W01
	.byte		N72   , Fs2 , v120
	.byte	W04
	.byte		VOL   , 30*seq_108_mvl/mxv
	.byte	W08
	.byte		        35*seq_108_mvl/mxv
	.byte	W13
	.byte		        40*seq_108_mvl/mxv
	.byte	W09
	.byte		        46*seq_108_mvl/mxv
	.byte	W14
	.byte		        40*seq_108_mvl/mxv
	.byte	W11
	.byte		        35*seq_108_mvl/mxv
	.byte	W04
	.byte		        30*seq_108_mvl/mxv
	.byte	W02
	.byte		MOD   , 0
	.byte	W02
	.byte		VOL   , 25*seq_108_mvl/mxv
	.byte	W04
	.byte		        20*seq_108_mvl/mxv
	.byte	W01
	.byte		N96   , Fs1 
	.byte	W01
	.byte		VOL   , 25*seq_108_mvl/mxv
	.byte	W04
	.byte		        30*seq_108_mvl/mxv
	.byte	W08
	.byte		        25*seq_108_mvl/mxv
	.byte	W10
	.byte		MOD   , 60
	.byte	W05
	.byte		VOL   , 30*seq_108_mvl/mxv
	.byte	W08
	.byte		        35*seq_108_mvl/mxv
	.byte	W13
	.byte		        40*seq_108_mvl/mxv
	.byte	W09
	.byte		        46*seq_108_mvl/mxv
	.byte	W14
	.byte		        40*seq_108_mvl/mxv
	.byte	W11
	.byte		        35*seq_108_mvl/mxv
	.byte	W04
	.byte		        30*seq_108_mvl/mxv
	.byte	W02
	.byte		MOD   , 0
	.byte	W02
	.byte		VOL   , 25*seq_108_mvl/mxv
	.byte	W04
	.byte		        20*seq_108_mvl/mxv
	.byte	W01
	.byte	PATT
	 .word	seq_108_5 + 0x9D
	.byte	PATT
	 .word	seq_108_5 + 0xCC
	.byte	PATT
	 .word	seq_108_5 + 0xF9
	.byte	PATT
	 .word	seq_108_5 + 0x11C
	.byte	PATT
	 .word	seq_108_5 + 0x9D
	.byte	PATT
	 .word	seq_108_5 + 0xCC
	.byte	PATT
	 .word	seq_108_5 + 0xF9
	.byte	PATT
	 .word	seq_108_5 + 0x11C
	.byte	PATT
	 .word	seq_108_5 + 0x9D
	.byte	PATT
	 .word	seq_108_5 + 0xCC
	.byte	PATT
	 .word	seq_108_5 + 0xF9
	.byte	PATT
	 .word	seq_108_5 + 0x11C
	.byte		N72   , Ds2 , v120
	.byte		N72   , Bn2 
	.byte	W01
	.byte		VOL   , 30*seq_108_mvl/mxv
	.byte	W04
	.byte		        35*seq_108_mvl/mxv
	.byte	W08
	.byte		        30*seq_108_mvl/mxv
	.byte	W10
	.byte		MOD   , 60
	.byte	W05
	.byte		VOL   , 35*seq_108_mvl/mxv
	.byte	W08
	.byte		        40*seq_108_mvl/mxv
	.byte	W13
	.byte		        46*seq_108_mvl/mxv
	.byte	W09
	.byte		        51*seq_108_mvl/mxv
	.byte	W14
	.byte		N24   , Dn2 
	.byte		N24   , Bn2 , v080
	.byte	W01
	.byte		VOL   , 46*seq_108_mvl/mxv
	.byte	W10
	.byte		        40*seq_108_mvl/mxv
	.byte	W04
	.byte		        35*seq_108_mvl/mxv
	.byte	W02
	.byte		MOD   , 0
	.byte	W02
	.byte		VOL   , 30*seq_108_mvl/mxv
	.byte	W04
	.byte		        25*seq_108_mvl/mxv
	.byte	W01
	.byte		N72   , Ds2 , v120
	.byte		N72   , Bn2 
	.byte	W01
	.byte		VOL   , 30*seq_108_mvl/mxv
	.byte	W04
	.byte		        35*seq_108_mvl/mxv
	.byte	W08
	.byte		        30*seq_108_mvl/mxv
	.byte	W10
	.byte		MOD   , 60
	.byte	W05
	.byte		VOL   , 35*seq_108_mvl/mxv
	.byte	W08
	.byte		        40*seq_108_mvl/mxv
	.byte	W13
	.byte		        46*seq_108_mvl/mxv
	.byte	W09
	.byte		        51*seq_108_mvl/mxv
	.byte	W14
	.byte		N24   , Dn2 
	.byte		N24   , Bn2 , v080
	.byte	W01
	.byte		VOL   , 46*seq_108_mvl/mxv
	.byte	W10
	.byte		        40*seq_108_mvl/mxv
	.byte	W04
	.byte		        35*seq_108_mvl/mxv
	.byte	W02
	.byte		MOD   , 0
	.byte	W02
	.byte		VOL   , 30*seq_108_mvl/mxv
	.byte	W05
	.byte	W22
	.byte		MOD   , 60
	.byte	W01
	.byte		VOL   , 25*seq_108_mvl/mxv
	.byte	W01
	.byte		N72   , Gs2 , v120
	.byte	W04
	.byte		VOL   , 30*seq_108_mvl/mxv
	.byte	W08
	.byte		        35*seq_108_mvl/mxv
	.byte	W13
	.byte		        40*seq_108_mvl/mxv
	.byte	W09
	.byte		        46*seq_108_mvl/mxv
	.byte	W14
	.byte		        40*seq_108_mvl/mxv
	.byte	W11
	.byte		        35*seq_108_mvl/mxv
	.byte	W04
	.byte		        30*seq_108_mvl/mxv
	.byte	W02
	.byte		MOD   , 0
	.byte	W02
	.byte		VOL   , 25*seq_108_mvl/mxv
	.byte	W04
	.byte		        20*seq_108_mvl/mxv
	.byte	W01
	.byte		N90   , Gs1 
	.byte	W01
	.byte		VOL   , 25*seq_108_mvl/mxv
	.byte	W04
	.byte		        30*seq_108_mvl/mxv
	.byte	W08
	.byte		        25*seq_108_mvl/mxv
	.byte	W10
	.byte		MOD   , 60
	.byte	W05
	.byte		VOL   , 30*seq_108_mvl/mxv
	.byte	W08
	.byte		        35*seq_108_mvl/mxv
	.byte	W13
	.byte		        40*seq_108_mvl/mxv
	.byte	W09
	.byte		        46*seq_108_mvl/mxv
	.byte	W14
	.byte		        40*seq_108_mvl/mxv
	.byte	W11
	.byte		        35*seq_108_mvl/mxv
	.byte	W04
	.byte		        30*seq_108_mvl/mxv
	.byte	W02
	.byte		MOD   , 0
	.byte	W06
	.byte		VOL   , 25*seq_108_mvl/mxv
	.byte	W01
	.byte		N48   , Gn2 , v120
	.byte	W13
	.byte		VOL   , 20*seq_108_mvl/mxv
	.byte	W10
	.byte		MOD   , 60
	.byte	W05
	.byte		VOL   , 25*seq_108_mvl/mxv
	.byte	W08
	.byte		        30*seq_108_mvl/mxv
	.byte	W12
	.byte		N48   , As2 
	.byte	W01
	.byte		VOL   , 35*seq_108_mvl/mxv
	.byte	W09
	.byte		        40*seq_108_mvl/mxv
	.byte	W14
	.byte		        35*seq_108_mvl/mxv
	.byte	W11
	.byte		        30*seq_108_mvl/mxv
	.byte	W04
	.byte		        25*seq_108_mvl/mxv
	.byte	W02
	.byte		MOD   , 0
	.byte	W02
	.byte		VOL   , 20*seq_108_mvl/mxv
	.byte	W04
	.byte		        15*seq_108_mvl/mxv
	.byte	W01
	.byte	PEND
	.byte		N48   , Cs2 , v120
	.byte	W01
	.byte		VOL   , 20*seq_108_mvl/mxv
	.byte	W04
	.byte		        25*seq_108_mvl/mxv
	.byte	W08
	.byte		        20*seq_108_mvl/mxv
	.byte	W10
	.byte		MOD   , 60
	.byte	W05
	.byte		VOL   , 25*seq_108_mvl/mxv
	.byte	W08
	.byte		        30*seq_108_mvl/mxv
	.byte	W12
	.byte		N48   , En2 
	.byte	W01
	.byte		VOL   , 35*seq_108_mvl/mxv
	.byte	W09
	.byte		        40*seq_108_mvl/mxv
	.byte	W14
	.byte		        35*seq_108_mvl/mxv
	.byte	W11
	.byte		        30*seq_108_mvl/mxv
	.byte	W04
	.byte		        25*seq_108_mvl/mxv
	.byte	W02
	.byte		MOD   , 0
	.byte	W02
	.byte		VOL   , 20*seq_108_mvl/mxv
	.byte	W05
	.byte	PEND
	.byte		N48   , Gn2 , v120
	.byte	W23
	.byte		MOD   , 60
	.byte	W05
	.byte		VOL   , 25*seq_108_mvl/mxv
	.byte	W08
	.byte		        30*seq_108_mvl/mxv
	.byte	W12
	.byte		N48   , As2 
	.byte	W01
	.byte		VOL   , 35*seq_108_mvl/mxv
	.byte	W09
	.byte		        40*seq_108_mvl/mxv
	.byte	W14
	.byte		        35*seq_108_mvl/mxv
	.byte	W11
	.byte		        30*seq_108_mvl/mxv
	.byte	W04
	.byte		        25*seq_108_mvl/mxv
	.byte	W02
	.byte		MOD   , 0
	.byte	W02
	.byte		VOL   , 20*seq_108_mvl/mxv
	.byte	W04
	.byte		        15*seq_108_mvl/mxv
	.byte	W01
	.byte	PEND
	.byte		N48   , Cs2 , v120
	.byte	W01
	.byte		VOL   , 20*seq_108_mvl/mxv
	.byte	W04
	.byte		        25*seq_108_mvl/mxv
	.byte	W08
	.byte		        20*seq_108_mvl/mxv
	.byte	W10
	.byte		MOD   , 60
	.byte	W05
	.byte		VOL   , 25*seq_108_mvl/mxv
	.byte	W08
	.byte		        30*seq_108_mvl/mxv
	.byte	W12
	.byte		N48   , En2 
	.byte	W01
	.byte		VOL   , 35*seq_108_mvl/mxv
	.byte	W09
	.byte		        40*seq_108_mvl/mxv
	.byte	W14
	.byte		        35*seq_108_mvl/mxv
	.byte	W11
	.byte		        30*seq_108_mvl/mxv
	.byte	W04
	.byte		        25*seq_108_mvl/mxv
	.byte	W02
	.byte		MOD   , 0
	.byte	W02
	.byte		VOL   , 20*seq_108_mvl/mxv
	.byte	W01
	.byte		        15*seq_108_mvl/mxv
	.byte	W04
	.byte	PEND
	.byte	PATT
	 .word	seq_108_5 + 0x2D0
	.byte	PATT
	 .word	seq_108_5 + 0x2F6
	.byte	PATT
	 .word	seq_108_5 + 0x31E
	.byte	PATT
	 .word	seq_108_5 + 0x341
	.byte	W48
	.byte	W22
	.byte		MOD   , 60
	.byte	W01
	.byte		VOL   , 20*seq_108_mvl/mxv
	.byte	W01
	.byte		N72   , Gn2 , v120
	.byte	W04
	.byte		VOL   , 25*seq_108_mvl/mxv
	.byte	W08
	.byte		        30*seq_108_mvl/mxv
	.byte	W13
	.byte		        35*seq_108_mvl/mxv
	.byte	W09
	.byte		        40*seq_108_mvl/mxv
	.byte	W14
	.byte		        35*seq_108_mvl/mxv
	.byte	W11
	.byte		        30*seq_108_mvl/mxv
	.byte	W04
	.byte		        25*seq_108_mvl/mxv
	.byte	W02
	.byte		MOD   , 0
	.byte	W02
	.byte		VOL   , 20*seq_108_mvl/mxv
	.byte	W04
	.byte		        15*seq_108_mvl/mxv
	.byte	W01
	.byte	PATT
	 .word	seq_108_5 + 0x38
	.byte	PATT
	 .word	seq_108_5 + 0x59
	.byte		N96   , Gn1 , v120
	.byte	W01
	.byte		VOL   , 20*seq_108_mvl/mxv
	.byte	W04
	.byte		        25*seq_108_mvl/mxv
	.byte	W08
	.byte		        20*seq_108_mvl/mxv
	.byte	W10
	.byte		MOD   , 60
	.byte	W05
	.byte		VOL   , 25*seq_108_mvl/mxv
	.byte	W08
	.byte		        30*seq_108_mvl/mxv
	.byte	W13
	.byte		        35*seq_108_mvl/mxv
	.byte	W09
	.byte		        40*seq_108_mvl/mxv
	.byte	W14
	.byte		        35*seq_108_mvl/mxv
	.byte	W11
	.byte		        30*seq_108_mvl/mxv
	.byte	W04
	.byte		        25*seq_108_mvl/mxv
	.byte	W02
	.byte		MOD   , 0
	.byte	W02
	.byte		VOL   , 20*seq_108_mvl/mxv
	.byte	W04
	.byte		MOD   , 60
	.byte	W01
	.byte	GOTO
	 .word	seq_108_5 + 0x9D
	.byte	FINE

@*********************** Track 07 ***********************@

seq_108_6:
	.byte	KEYSH , seq_108_key+0
	.byte	W12
	.byte		VOICE , 8
	.byte	W01
	.byte		VOL   , 35*seq_108_mvl/mxv
	.byte	W01
	.byte		PAN   , c_v+0
	.byte	W01
	.byte		LFOS  , 20
	.byte	W01
	.byte		MODT  , mod_pan
	.byte	W01
	.byte		LFODL , 0
	.byte	W07
	.byte	W06
	.byte	W96
	.byte	W96
	.byte	W96
	.byte	W96
	.byte	W96
	.byte	W96
	.byte	W96
	.byte	W96
	.byte	W96
	.byte	W96
	.byte	W96
	.byte	W96
	.byte	W96
	.byte	W96
	.byte	W96
	.byte	W96
	.byte	W96
	.byte	W96
	.byte	W96
	.byte	W96
	.byte	W05
	.byte		MOD   , 120
	.byte	W01
	.byte		N03   , Dn4 , v120
	.byte	W03
	.byte		        Dn4 , v060
	.byte	W03
	.byte		        Ds4 , v120
	.byte	W03
	.byte		        Ds4 , v060
	.byte	W03
	.byte		        Dn5 , v120
	.byte	W03
	.byte		        Dn5 , v060
	.byte	W03
	.byte		N08   , Ds5 , v120
	.byte	W08
	.byte		N03   , Ds5 , v060
	.byte	W10
	.byte		        Cn5 , v120
	.byte	W03
	.byte		        Cn5 , v060
	.byte	W03
	.byte		N08   , Dn5 , v120
	.byte	W08
	.byte		N03   , Dn5 , v060
	.byte	W10
	.byte		        As4 , v120
	.byte	W03
	.byte		        As4 , v060
	.byte	W03
	.byte		N08   , Cn5 , v120
	.byte	W08
	.byte		N03   , Cn5 , v060
	.byte	W10
	.byte		        An4 , v120
	.byte	W03
	.byte		        An4 , v060
	.byte	W03
	.byte		N08   , As4 , v120
	.byte	W08
	.byte		N03   , As4 , v060
	.byte	W10
	.byte		        Gn4 , v120
	.byte	W03
	.byte		        Gn4 , v060
	.byte	W03
	.byte		N08   , An4 , v120
	.byte	W08
	.byte		N03   , An4 , v060
	.byte	W10
	.byte		        Fn3 , v120
	.byte	W03
	.byte		        Fn3 , v060
	.byte	W03
	.byte		N06   , Fs3 , v120
	.byte	W06
	.byte		N03   , Cn4 
	.byte	W03
	.byte		        Cn4 , v060
	.byte	W03
	.byte		        Fn3 , v120
	.byte	W03
	.byte		        Fn3 , v060
	.byte	W03
	.byte		        Fs3 , v120
	.byte	W03
	.byte		        Fs3 , v060
	.byte	W03
	.byte		        Gn3 , v120
	.byte	W03
	.byte		        Gn3 , v060
	.byte	W03
	.byte		        Dn3 , v120
	.byte	W03
	.byte		        Dn3 , v060
	.byte	W03
	.byte		        Cs3 , v120
	.byte	W03
	.byte		        Cs3 , v060
	.byte	W03
	.byte		        Cn3 , v120
	.byte	W03
	.byte		        Cn3 , v060
	.byte	W03
	.byte	PEND
	.byte		N13   , As2 , v120
	.byte	W13
	.byte		N01   , An2 , v040
	.byte	W01
	.byte		        Gs2 
	.byte	W01
	.byte		        Fs2 
	.byte	W01
	.byte		N02   , Fn2 , v020
	.byte	W02
	.byte		N01   , Ds2 
	.byte	W01
	.byte		N02   , Cs2 
	.byte	W02
	.byte		N01   , Bn1 
	.byte	W72
	.byte	W03
	.byte	PEND
	.byte	W96
	.byte	W06
	.byte		N03   , Dn4 , v120
	.byte	W03
	.byte		        Dn4 , v060
	.byte	W03
	.byte		        Ds4 , v120
	.byte	W03
	.byte		        Ds4 , v060
	.byte	W03
	.byte		        Dn5 , v120
	.byte	W03
	.byte		        Dn5 , v060
	.byte	W03
	.byte		N08   , Ds5 , v120
	.byte	W08
	.byte		N03   , Ds5 , v060
	.byte	W10
	.byte		        Cn5 , v120
	.byte	W03
	.byte		        Cn5 , v060
	.byte	W03
	.byte		N08   , Dn5 , v120
	.byte	W08
	.byte		N03   , Dn5 , v060
	.byte	W10
	.byte		        As4 , v120
	.byte	W03
	.byte		        As4 , v060
	.byte	W03
	.byte		N08   , Cn5 , v120
	.byte	W08
	.byte		N03   , Cn5 , v060
	.byte	W10
	.byte		        An4 , v120
	.byte	W03
	.byte		        An4 , v060
	.byte	W03
	.byte	PATT
	 .word	seq_108_6 + 0x6B
	.byte	PATT
	 .word	seq_108_6 + 0xB6
	.byte	W96
	.byte	W96
	.byte	W96
	.byte	W96
	.byte	W96
	.byte	W96
	.byte	W30
	.byte		N02   , Ds4 , v120
	.byte	W02
	.byte		N04   , En4 
	.byte	W04
	.byte		N06   , Fs4 
	.byte	W06
	.byte		N16   , Gn4 
	.byte	W16
	.byte		N02   , Fs4 , v060
	.byte	W01
	.byte		        Fn4 
	.byte	W01
	.byte		N03   , Ds4 
	.byte	W01
	.byte		N02   , Dn4 , v040
	.byte	W02
	.byte		N03   , Cn4 
	.byte	W01
	.byte		N02   , As3 , v020
	.byte	W02
	.byte		N03   , Gs3 
	.byte	W30
	.byte	PEND
	.byte	W96
	.byte		N02   , Gs4 , v120
	.byte	W02
	.byte		        Gs5 
	.byte	W02
	.byte		        Gs4 , v080
	.byte	W02
	.byte		        Gs5 
	.byte	W02
	.byte		        Gs4 , v060
	.byte	W02
	.byte		        Gs5 
	.byte	W02
	.byte		        Gs4 , v040
	.byte	W02
	.byte		        Gs5 
	.byte	W02
	.byte		        Gs4 , v020
	.byte	W02
	.byte		        Gs5 
	.byte	W02
	.byte		        Gs4 
	.byte	W02
	.byte		        Gs5 
	.byte	W02
	.byte		        En4 , v120
	.byte	W02
	.byte		        En5 
	.byte	W02
	.byte		        En4 , v080
	.byte	W02
	.byte		        En5 
	.byte	W02
	.byte		        En4 , v060
	.byte	W02
	.byte		        En5 
	.byte	W02
	.byte		        En4 , v040
	.byte	W02
	.byte		        En5 
	.byte	W02
	.byte		        En4 , v020
	.byte	W02
	.byte		        En5 
	.byte	W02
	.byte		        En4 
	.byte	W02
	.byte		        En5 
	.byte	W02
	.byte		        Bn4 , v120
	.byte	W02
	.byte		        Bn5 
	.byte	W02
	.byte		        Bn4 , v080
	.byte	W02
	.byte		        Bn5 
	.byte	W02
	.byte		        Bn4 , v060
	.byte	W02
	.byte		        Bn5 
	.byte	W02
	.byte		        Gn4 , v080
	.byte	W02
	.byte		        Gn5 
	.byte	W02
	.byte		        Gn4 , v040
	.byte	W02
	.byte		        Gn5 
	.byte	W02
	.byte		        Gn4 , v020
	.byte	W02
	.byte		        Gn5 
	.byte	W02
	.byte		        Dn4 , v120
	.byte	W02
	.byte		        Dn5 
	.byte	W02
	.byte		        Dn4 , v080
	.byte	W02
	.byte		        Dn5 
	.byte	W02
	.byte		        Dn4 , v060
	.byte	W02
	.byte		        Dn5 
	.byte	W02
	.byte		        Dn4 , v040
	.byte	W02
	.byte		        Dn5 
	.byte	W02
	.byte		        Dn4 , v020
	.byte	W02
	.byte		        Dn5 
	.byte	W02
	.byte		        Dn4 
	.byte	W02
	.byte		        Dn5 
	.byte	W02
	.byte	W96
	.byte	PATT
	 .word	seq_108_6 + 0x120
	.byte	W96
	.byte		N02   , Gs4 , v120
	.byte	W02
	.byte		        Gs5 
	.byte	W02
	.byte		        Gs4 , v080
	.byte	W02
	.byte		        Gs5 
	.byte	W02
	.byte		        Gs4 , v060
	.byte	W02
	.byte		        Gs5 
	.byte	W02
	.byte		        Gs4 , v040
	.byte	W02
	.byte		        Gs5 
	.byte	W02
	.byte		        Gs4 , v020
	.byte	W02
	.byte		        Gs5 
	.byte	W02
	.byte		        Gs4 
	.byte	W02
	.byte		        Gs5 
	.byte	W02
	.byte		        En4 , v120
	.byte	W02
	.byte		        En5 
	.byte	W02
	.byte		        En4 , v080
	.byte	W02
	.byte		        En5 
	.byte	W02
	.byte		        En4 , v060
	.byte	W02
	.byte		        En5 
	.byte	W02
	.byte		        En4 , v040
	.byte	W02
	.byte		        En5 
	.byte	W02
	.byte		        En4 , v020
	.byte	W02
	.byte		        En5 
	.byte	W02
	.byte		        En4 
	.byte	W02
	.byte		        En5 
	.byte	W02
	.byte		        Bn4 , v120
	.byte	W02
	.byte		        Bn5 
	.byte	W02
	.byte		        Bn4 , v080
	.byte	W02
	.byte		        Bn5 
	.byte	W02
	.byte		        Bn4 , v060
	.byte	W02
	.byte		        Bn5 
	.byte	W02
	.byte		        Gn4 , v080
	.byte	W02
	.byte		        Gn5 
	.byte	W02
	.byte		        Gn4 , v040
	.byte	W02
	.byte		        Gn5 
	.byte	W02
	.byte		        Gn4 , v020
	.byte	W02
	.byte		        Gn5 , v040
	.byte	W02
	.byte		        Dn5 , v120
	.byte	W02
	.byte		        Dn6 
	.byte	W02
	.byte		        Dn5 , v080
	.byte	W02
	.byte		        Dn6 
	.byte	W02
	.byte		        Dn5 , v060
	.byte	W02
	.byte		        Dn6 
	.byte	W02
	.byte		        Dn5 , v040
	.byte	W02
	.byte		        Dn6 
	.byte	W02
	.byte		        Dn5 , v020
	.byte	W02
	.byte		        Dn6 
	.byte	W02
	.byte		        Dn5 
	.byte	W02
	.byte		        Dn6 
	.byte	W02
	.byte	W48
	.byte	W96
	.byte	W96
	.byte	W96
	.byte	W96
	.byte	GOTO
	 .word	seq_108_6 + 0x1A
	.byte	FINE

@*********************** Track 08 ***********************@

seq_108_7:
	.byte	KEYSH , seq_108_key+0
	.byte	W12
	.byte		VOICE , 101
	.byte	W01
	.byte		VOL   , 65*seq_108_mvl/mxv
	.byte	W01
	.byte		PAN   , c_v+0
	.byte	W01
	.byte		LFOS  , 20
	.byte	W01
	.byte		MODT  , mod_vib
	.byte	W01
	.byte		BENDR , 12
	.byte	W01
	.byte		LFODL , 60
	.byte	W01
	.byte		MOD   , 10
	.byte	W05
	.byte	W05
	.byte		BEND  , c_v-8
	.byte	W01
	.byte		N04   , Gn1 , v120
	.byte	W01
	.byte		BEND  , c_v-6
	.byte	W01
	.byte		        c_v-2
	.byte	W01
	.byte		        c_v+0
	.byte	W03
	.byte		N03   , Fn1 
	.byte	W06
	.byte		N11   , Gn1 
	.byte	W12
	.byte		N03
	.byte	W06
	.byte		N10   , Fn1 
	.byte	W12
	.byte		N04   , Gn1 
	.byte	W24
	.byte		N04
	.byte	W06
	.byte		N01
	.byte	W06
	.byte		N06
	.byte	W06
	.byte		N11   , Fn1 
	.byte	W12
	.byte	PEND
	.byte		N04   , Gn1 , v120
	.byte	W06
	.byte		N03   , Fn1 
	.byte	W06
	.byte		N11   , Gn1 
	.byte	W12
	.byte		N03
	.byte	W06
	.byte		N10   , Fn1 
	.byte	W12
	.byte		N04   , Gn1 
	.byte	W18
	.byte		N01
	.byte	W06
	.byte		N11
	.byte	W08
	.byte		BEND  , c_v+2
	.byte	W01
	.byte		        c_v+6
	.byte	W01
	.byte		        c_v+2
	.byte	W01
	.byte		        c_v+0
	.byte	W01
	.byte		N03
	.byte	W06
	.byte		N12   , Fn1 
	.byte	W11
	.byte		BEND  , c_v-8
	.byte	W01
	.byte	PEND
	.byte	PATT
	 .word	seq_108_7 + 0x1F
	.byte		N04   , Gn1 , v120
	.byte	W06
	.byte		N03   , Fn1 
	.byte	W06
	.byte		N11   , Gn1 
	.byte	W12
	.byte		N03
	.byte	W06
	.byte		N10   , Fn1 
	.byte	W12
	.byte		N04   , Gn1 
	.byte	W18
	.byte		N01
	.byte	W05
	.byte		BEND  , c_v-57
	.byte	W01
	.byte		        c_v-52
	.byte		N30   , Cn2 
	.byte	W02
	.byte		BEND  , c_v-43
	.byte	W01
	.byte		        c_v-32
	.byte	W01
	.byte		        c_v-18
	.byte	W01
	.byte		        c_v+0
	.byte	W03
	.byte		        c_v+9
	.byte	W01
	.byte		        c_v+17
	.byte	W01
	.byte		        c_v+26
	.byte	W01
	.byte		        c_v+31
	.byte	W01
	.byte		        c_v+35
	.byte	W01
	.byte		        c_v+37
	.byte	W03
	.byte		        c_v+35
	.byte	W01
	.byte		        c_v+31
	.byte	W01
	.byte		        c_v+28
	.byte	W01
	.byte		        c_v+26
	.byte	W01
	.byte		        c_v+22
	.byte	W01
	.byte		        c_v+16
	.byte	W01
	.byte		        c_v+13
	.byte	W01
	.byte		        c_v+11
	.byte	W01
	.byte		        c_v+9
	.byte	W01
	.byte		        c_v+7
	.byte	W04
	.byte		        c_v-8
	.byte	W01
	.byte	PATT
	 .word	seq_108_7 + 0x1F
	.byte	PATT
	 .word	seq_108_7 + 0x42
	.byte	PATT
	 .word	seq_108_7 + 0x1F
	.byte		N04   , Gn1 , v120
	.byte	W06
	.byte		N03   , Fn1 
	.byte	W06
	.byte		N11   , Gn1 
	.byte	W12
	.byte		N03
	.byte	W06
	.byte		N10   , Fn1 
	.byte	W12
	.byte		N04   , Gn1 
	.byte	W18
	.byte		N01
	.byte	W06
	.byte		N05
	.byte	W06
	.byte		N01
	.byte	W06
	.byte		N03
	.byte	W06
	.byte		N06   , Fn1 
	.byte	W06
	.byte		        Fs1 
	.byte	W06
	.byte		N21   , Gn1 , v120
	.byte	W11
	.byte		BEND  , c_v-5
	.byte	W02
	.byte		        c_v-10
	.byte	W01
	.byte		        c_v-15
	.byte	W01
	.byte		        c_v-26
	.byte	W01
	.byte		        c_v-32
	.byte	W01
	.byte		        c_v-40
	.byte	W01
	.byte		        c_v-50
	.byte	W01
	.byte		        c_v-58
	.byte	W01
	.byte		        c_v-63
	.byte	W01
	.byte		        c_v-64
	.byte	W08
	.byte		        c_v+0
	.byte	W01
	.byte		N02
	.byte	W06
	.byte		N03   , Dn2 
	.byte	W05
	.byte		BEND  , c_v-14
	.byte	W01
	.byte		N15   , Gn2 
	.byte	W01
	.byte		BEND  , c_v-5
	.byte	W01
	.byte		        c_v+0
	.byte	W12
	.byte		        c_v+26
	.byte	W01
	.byte		        c_v+34
	.byte	W01
	.byte		        c_v+16
	.byte	W01
	.byte		        c_v+0
	.byte	W01
	.byte		N03   , Dn2 
	.byte	W06
	.byte		        Gn1 
	.byte	W05
	.byte		BEND  , c_v-20
	.byte	W01
	.byte		N21   , Cs2 
	.byte	W01
	.byte		BEND  , c_v-17
	.byte	W01
	.byte		        c_v-13
	.byte	W01
	.byte		        c_v-4
	.byte	W01
	.byte		        c_v+0
	.byte	W02
	.byte		        c_v-5
	.byte	W01
	.byte		        c_v-10
	.byte	W01
	.byte		        c_v-5
	.byte	W01
	.byte		        c_v+0
	.byte	W06
	.byte		        c_v-4
	.byte	W01
	.byte		        c_v-10
	.byte	W01
	.byte		        c_v-19
	.byte	W01
	.byte		        c_v-32
	.byte	W01
	.byte		        c_v-47
	.byte	W01
	.byte		        c_v-57
	.byte	W01
	.byte		        c_v-62
	.byte	W02
	.byte		        c_v-8
	.byte	W01
	.byte	PEND
	.byte	PATT
	 .word	seq_108_7 + 0x1F
	.byte		N04   , Gn1 , v120
	.byte	W06
	.byte		N03   , Fn1 
	.byte	W06
	.byte		N11   , Gn1 
	.byte	W12
	.byte		N03
	.byte	W06
	.byte		N10   , Fn1 
	.byte	W12
	.byte		N04   , Gn1 
	.byte	W18
	.byte		N01
	.byte	W06
	.byte		N11
	.byte	W08
	.byte		BEND  , c_v+2
	.byte	W01
	.byte		        c_v+6
	.byte	W01
	.byte		        c_v+2
	.byte	W01
	.byte		        c_v+0
	.byte	W01
	.byte		N03
	.byte	W06
	.byte		N12   , Fn1 
	.byte	W11
	.byte		BEND  , c_v+0
	.byte	W01
	.byte	PEND
	.byte		N04   , Gn1 , v120
	.byte	W06
	.byte		N02   , Fn1 
	.byte	W06
	.byte		N08   , Gn1 
	.byte	W12
	.byte		N02
	.byte	W06
	.byte		N09   , Fn1 
	.byte	W12
	.byte		N03   , Gn1 
	.byte	W24
	.byte		BEND  , c_v-35
	.byte	W01
	.byte		N30   , Cn2 
	.byte	W01
	.byte		BEND  , c_v-62
	.byte	W01
	.byte		        c_v-64
	.byte	W02
	.byte		        c_v-47
	.byte	W01
	.byte		        c_v-26
	.byte	W01
	.byte		        c_v-8
	.byte	W01
	.byte		        c_v+0
	.byte	W07
	.byte		        c_v-5
	.byte	W01
	.byte		        c_v-8
	.byte	W01
	.byte		        c_v-12
	.byte	W01
	.byte		        c_v-14
	.byte	W01
	.byte		        c_v-18
	.byte	W01
	.byte		        c_v-21
	.byte	W01
	.byte		        c_v-24
	.byte	W01
	.byte		        c_v-29
	.byte	W01
	.byte		        c_v-32
	.byte	W01
	.byte		        c_v-35
	.byte	W01
	.byte		        c_v-38
	.byte	W01
	.byte		        c_v-46
	.byte	W01
	.byte		        c_v-51
	.byte	W01
	.byte		        c_v-57
	.byte	W01
	.byte		        c_v-8
	.byte	W01
	.byte	PEND
	.byte		N04   , Fs1 , v120
	.byte	W01
	.byte		BEND  , c_v-6
	.byte	W01
	.byte		        c_v-2
	.byte	W01
	.byte		        c_v+0
	.byte	W03
	.byte		N03   , En1 
	.byte	W06
	.byte		N11   , Fs1 
	.byte	W12
	.byte		N03
	.byte	W06
	.byte		N10   , En1 
	.byte	W12
	.byte		N04   , Fs1 
	.byte	W24
	.byte		N04
	.byte	W06
	.byte		N01
	.byte	W06
	.byte		N06
	.byte	W06
	.byte		N11   , En1 
	.byte	W12
	.byte	PEND
	.byte		N04   , Fs1 
	.byte	W06
	.byte		N03   , En1 
	.byte	W06
	.byte		N11   , Fs1 
	.byte	W12
	.byte		N03
	.byte	W06
	.byte		N10   , En1 
	.byte	W12
	.byte		N04   , Fs1 
	.byte	W18
	.byte		N01
	.byte	W06
	.byte		N11
	.byte	W08
	.byte		BEND  , c_v+2
	.byte	W01
	.byte		        c_v+6
	.byte	W01
	.byte		        c_v+2
	.byte	W01
	.byte		        c_v+0
	.byte	W01
	.byte		N03
	.byte	W06
	.byte		N12   , En1 
	.byte	W11
	.byte		BEND  , c_v-8
	.byte	W01
	.byte	PATT
	 .word	seq_108_7 + 0x1B4
	.byte		N04   , Fs1 , v120
	.byte	W06
	.byte		N03   , En1 
	.byte	W06
	.byte		N11   , Fs1 
	.byte	W12
	.byte		N03
	.byte	W06
	.byte		N10   , En1 
	.byte	W12
	.byte		N04   , Fs1 
	.byte	W18
	.byte		N01
	.byte	W06
	.byte		N11
	.byte	W08
	.byte		BEND  , c_v+2
	.byte	W01
	.byte		        c_v+6
	.byte	W01
	.byte		        c_v+2
	.byte	W01
	.byte		        c_v+0
	.byte	W01
	.byte		N03
	.byte	W06
	.byte		N12   , En1 
	.byte	W12
	.byte	PATT
	 .word	seq_108_7 + 0xE3
	.byte	PATT
	 .word	seq_108_7 + 0x1F
	.byte	PATT
	 .word	seq_108_7 + 0x148
	.byte	PATT
	 .word	seq_108_7 + 0x170
	.byte		N04   , Gn1 , v120
	.byte	W01
	.byte		BEND  , c_v-6
	.byte	W01
	.byte		        c_v-2
	.byte	W01
	.byte		        c_v+0
	.byte	W03
	.byte		N03   , Fn1 
	.byte	W06
	.byte		N11   , Gn1 
	.byte	W12
	.byte		N03
	.byte	W06
	.byte		N10   , Fn1 
	.byte	W12
	.byte		N04   , Gn1 
	.byte	W54
	.byte	PEND
	.byte		N04
	.byte	W06
	.byte		N03   , Fn1 
	.byte	W06
	.byte		N11   , Gn1 
	.byte	W12
	.byte		N03
	.byte	W06
	.byte		N10   , Fn1 
	.byte	W12
	.byte		N04   , Gn1 
	.byte	W52
	.byte	W01
	.byte		BEND  , c_v-8
	.byte	W01
	.byte	PATT
	 .word	seq_108_7 + 0x23A
	.byte		N04   , Gn1 , v120
	.byte	W06
	.byte		N03   , Fn1 
	.byte	W06
	.byte		N11   , Gn1 
	.byte	W12
	.byte		N03
	.byte	W06
	.byte		N10   , Fn1 
	.byte	W12
	.byte		N04   , Gn1 
	.byte	W54
	.byte	PATT
	 .word	seq_108_7 + 0xE3
	.byte	PATT
	 .word	seq_108_7 + 0x1F
	.byte	PATT
	 .word	seq_108_7 + 0x148
	.byte		N04   , Gn1 , v120
	.byte	W06
	.byte		N02   , Fn1 
	.byte	W06
	.byte		N08   , Gn1 
	.byte	W12
	.byte		N02
	.byte	W06
	.byte		N09   , Fn1 
	.byte	W12
	.byte		N03   , Gn1 
	.byte	W24
	.byte		BEND  , c_v-35
	.byte	W01
	.byte		N30   , Cn2 
	.byte	W01
	.byte		BEND  , c_v-62
	.byte	W01
	.byte		        c_v-64
	.byte	W02
	.byte		        c_v-47
	.byte	W01
	.byte		        c_v-26
	.byte	W01
	.byte		        c_v-8
	.byte	W01
	.byte		        c_v+0
	.byte	W07
	.byte		        c_v-5
	.byte	W01
	.byte		        c_v-8
	.byte	W01
	.byte		        c_v-12
	.byte	W01
	.byte		        c_v-14
	.byte	W01
	.byte		        c_v-18
	.byte	W01
	.byte		        c_v-21
	.byte	W01
	.byte		        c_v-24
	.byte	W01
	.byte		        c_v-29
	.byte	W01
	.byte		        c_v-32
	.byte	W01
	.byte		        c_v-35
	.byte	W01
	.byte		        c_v-38
	.byte	W01
	.byte		        c_v-46
	.byte	W01
	.byte		        c_v-51
	.byte	W01
	.byte		        c_v-57
	.byte	W01
	.byte		        c_v+0
	.byte	W01
	.byte		N21   , Gs1 
	.byte	W11
	.byte		BEND  , c_v-5
	.byte	W02
	.byte		        c_v-10
	.byte	W01
	.byte		        c_v-15
	.byte	W01
	.byte		        c_v-26
	.byte	W01
	.byte		        c_v-32
	.byte	W01
	.byte		        c_v-40
	.byte	W01
	.byte		        c_v-50
	.byte	W01
	.byte		        c_v-58
	.byte	W01
	.byte		        c_v-63
	.byte	W01
	.byte		        c_v-64
	.byte	W02
	.byte		        c_v+0
	.byte	W01
	.byte		N01
	.byte	W06
	.byte		N09
	.byte	W12
	.byte		N04
	.byte	W54
	.byte		N21   , Gs1 , v120
	.byte	W11
	.byte		BEND  , c_v-5
	.byte	W02
	.byte		        c_v-10
	.byte	W01
	.byte		        c_v-20
	.byte	W01
	.byte		        c_v-26
	.byte	W01
	.byte		        c_v-32
	.byte	W01
	.byte		        c_v-40
	.byte	W01
	.byte		        c_v-50
	.byte	W01
	.byte		        c_v-58
	.byte	W01
	.byte		        c_v-63
	.byte	W01
	.byte		        c_v-64
	.byte	W02
	.byte		        c_v+0
	.byte	W01
	.byte		N01
	.byte	W06
	.byte		N09
	.byte	W12
	.byte		N04
	.byte	W54
	.byte	PEND
	.byte	PATT
	 .word	seq_108_7 + 0x2F1
	.byte		N21   , Gs1 , v120
	.byte	W11
	.byte		BEND  , c_v-5
	.byte	W02
	.byte		        c_v-10
	.byte	W01
	.byte		        c_v-15
	.byte	W01
	.byte		        c_v-26
	.byte	W01
	.byte		        c_v-32
	.byte	W01
	.byte		        c_v-40
	.byte	W01
	.byte		        c_v-50
	.byte	W01
	.byte		        c_v-58
	.byte	W01
	.byte		        c_v-63
	.byte	W01
	.byte		        c_v-64
	.byte	W02
	.byte		        c_v+0
	.byte	W01
	.byte		N01
	.byte	W06
	.byte		N09
	.byte	W12
	.byte		N04
	.byte	W23
	.byte		BEND  , c_v-57
	.byte	W01
	.byte		        c_v-52
	.byte		N30
	.byte	W02
	.byte		BEND  , c_v-43
	.byte	W01
	.byte		        c_v-32
	.byte	W01
	.byte		        c_v-18
	.byte	W01
	.byte		        c_v+0
	.byte	W03
	.byte		        c_v+9
	.byte	W01
	.byte		        c_v+17
	.byte	W01
	.byte		        c_v+26
	.byte	W01
	.byte		        c_v+31
	.byte	W01
	.byte		        c_v+35
	.byte	W01
	.byte		        c_v+37
	.byte	W03
	.byte		        c_v+35
	.byte	W01
	.byte		        c_v+31
	.byte	W01
	.byte		        c_v+28
	.byte	W01
	.byte		        c_v+26
	.byte	W01
	.byte		        c_v+22
	.byte	W01
	.byte		        c_v+16
	.byte	W01
	.byte		        c_v+13
	.byte	W01
	.byte		        c_v+11
	.byte	W01
	.byte		        c_v+9
	.byte	W01
	.byte		        c_v+7
	.byte	W01
	.byte		        c_v-7
	.byte	W01
	.byte		        c_v-10
	.byte	W01
	.byte		        c_v-14
	.byte	W01
	.byte		        c_v+0
	.byte	W01
	.byte		N14   , Gn1 , v120
	.byte	W12
	.byte		BEND  , c_v-10
	.byte	W01
	.byte		        c_v-19
	.byte	W01
	.byte		        c_v-31
	.byte	W01
	.byte		N09   , Gn1 , v040
	.byte	W08
	.byte		BEND  , c_v+0
	.byte	W01
	.byte		N19   , Gn2 , v120
	.byte	W14
	.byte		BEND  , c_v-5
	.byte	W01
	.byte		        c_v-17
	.byte	W01
	.byte		        c_v-23
	.byte	W01
	.byte		        c_v-28
	.byte	W01
	.byte		        c_v-33
	.byte	W01
	.byte		N05   , Gn2 , v040
	.byte	W04
	.byte		BEND  , c_v+0
	.byte	W01
	.byte		N10   , As1 , v120
	.byte	W10
	.byte		N08   , As1 , v040
	.byte	W08
	.byte		N24   , As2 , v120
	.byte	W17
	.byte		BEND  , c_v-3
	.byte	W01
	.byte		        c_v-7
	.byte	W01
	.byte		        c_v-11
	.byte	W01
	.byte		        c_v-14
	.byte	W01
	.byte		        c_v-25
	.byte	W01
	.byte		        c_v-33
	.byte	W01
	.byte		        c_v-42
	.byte	W01
	.byte		        c_v-50
	.byte	W01
	.byte		N05   , As2 , v040
	.byte	W01
	.byte		BEND  , c_v-54
	.byte	W03
	.byte		        c_v+0
	.byte	W01
	.byte	PEND
	.byte		N14   , Cs2 , v120
	.byte	W12
	.byte		BEND  , c_v-10
	.byte	W01
	.byte		        c_v-19
	.byte	W01
	.byte		        c_v-31
	.byte	W01
	.byte		N09   , Cs2 , v040
	.byte	W08
	.byte		BEND  , c_v+0
	.byte	W01
	.byte		N19   , Cs3 , v120
	.byte	W14
	.byte		BEND  , c_v-5
	.byte	W01
	.byte		        c_v-17
	.byte	W01
	.byte		        c_v-23
	.byte	W01
	.byte		        c_v-28
	.byte	W01
	.byte		        c_v-33
	.byte	W01
	.byte		N05   , Cs3 , v040
	.byte	W04
	.byte		BEND  , c_v+0
	.byte	W01
	.byte		N10   , En2 , v120
	.byte	W10
	.byte		N08   , En2 , v040
	.byte	W08
	.byte		N24   , En3 , v120
	.byte	W17
	.byte		BEND  , c_v-3
	.byte	W01
	.byte		        c_v-7
	.byte	W01
	.byte		        c_v-11
	.byte	W01
	.byte		        c_v-14
	.byte	W01
	.byte		        c_v-25
	.byte	W01
	.byte		        c_v-33
	.byte	W01
	.byte		        c_v-42
	.byte	W01
	.byte		        c_v-50
	.byte	W01
	.byte		N05   , En3 , v040
	.byte	W01
	.byte		BEND  , c_v-54
	.byte	W03
	.byte		        c_v+0
	.byte	W01
	.byte	PEND
	.byte	PATT
	 .word	seq_108_7 + 0x370
	.byte	PATT
	 .word	seq_108_7 + 0x3BF
	.byte	PATT
	 .word	seq_108_7 + 0x370
	.byte	PATT
	 .word	seq_108_7 + 0x3BF
	.byte	PATT
	 .word	seq_108_7 + 0x370
	.byte		N14   , Cs2 , v120
	.byte	W12
	.byte		BEND  , c_v-10
	.byte	W01
	.byte		        c_v-19
	.byte	W01
	.byte		        c_v-31
	.byte	W01
	.byte		N09   , Cs2 , v040
	.byte	W08
	.byte		BEND  , c_v+0
	.byte	W01
	.byte		N19   , Cs3 , v120
	.byte	W14
	.byte		BEND  , c_v-5
	.byte	W01
	.byte		        c_v-17
	.byte	W01
	.byte		        c_v-23
	.byte	W01
	.byte		        c_v-28
	.byte	W01
	.byte		        c_v-33
	.byte	W01
	.byte		N05   , Cs3 , v040
	.byte	W04
	.byte		BEND  , c_v+0
	.byte	W01
	.byte		N10   , En2 , v120
	.byte	W10
	.byte		N08   , En2 , v040
	.byte	W08
	.byte		N06   , En3 , v120
	.byte	W06
	.byte		        En3 , v040
	.byte	W06
	.byte		        Ds3 , v120
	.byte	W06
	.byte		        Ds3 , v040
	.byte	W06
	.byte		        Dn3 , v120
	.byte	W06
	.byte	W06
	.byte		N07   , Dn2 
	.byte	W12
	.byte		N01
	.byte	W06
	.byte		N18
	.byte	W11
	.byte		BEND  , c_v-4
	.byte	W01
	.byte		        c_v-12
	.byte	W01
	.byte		        c_v-22
	.byte	W01
	.byte		        c_v-35
	.byte	W01
	.byte		        c_v-50
	.byte	W01
	.byte		        c_v-64
	.byte	W02
	.byte		N06   , Dn2 , v040
	.byte	W05
	.byte		BEND  , c_v-8
	.byte	W01
	.byte	PATT
	 .word	seq_108_7 + 0x1F
	.byte	PATT
	 .word	seq_108_7 + 0x42
	.byte	PATT
	 .word	seq_108_7 + 0x1F
	.byte		N04   , Gn1 , v120
	.byte	W06
	.byte		N03   , Fn1 
	.byte	W06
	.byte		N11   , Gn1 
	.byte	W12
	.byte		N03
	.byte	W06
	.byte		N10   , Fn1 
	.byte	W12
	.byte		N04   , Gn1 
	.byte	W18
	.byte		N01
	.byte	W05
	.byte		BEND  , c_v-57
	.byte	W01
	.byte		N30   , Cn2 
	.byte	W01
	.byte		BEND  , c_v-52
	.byte	W01
	.byte		        c_v-43
	.byte	W01
	.byte		        c_v-32
	.byte	W01
	.byte		        c_v-18
	.byte	W01
	.byte		        c_v+0
	.byte	W03
	.byte		        c_v+9
	.byte	W01
	.byte		        c_v+17
	.byte	W01
	.byte		        c_v+26
	.byte	W01
	.byte		        c_v+31
	.byte	W01
	.byte		        c_v+35
	.byte	W01
	.byte		        c_v+37
	.byte	W03
	.byte		        c_v+35
	.byte	W01
	.byte		        c_v+31
	.byte	W01
	.byte		        c_v+28
	.byte	W01
	.byte		        c_v+26
	.byte	W01
	.byte		        c_v+22
	.byte	W01
	.byte		        c_v+16
	.byte	W01
	.byte		        c_v+13
	.byte	W01
	.byte		        c_v+11
	.byte	W01
	.byte		        c_v+9
	.byte	W01
	.byte		        c_v+7
	.byte	W05
	.byte	GOTO
	 .word	seq_108_7 + 0xB5
	.byte	FINE

@*********************** Track 09 ***********************@

seq_108_8:
	.byte	KEYSH , seq_108_key+0
	.byte	W12
	.byte		VOICE , 97
	.byte	W01
	.byte		VOL   , 5*seq_108_mvl/mxv
	.byte	W01
	.byte		PAN   , c_v+0
	.byte	W01
	.byte		LFOS  , 10
	.byte	W01
	.byte		MODT  , mod_pan
	.byte	W01
	.byte		LFODL , 0
	.byte	W07
	.byte	W05
	.byte		MOD   , 60
	.byte	W01
	.byte		N06   , Dn4 , v120
	.byte	W05
	.byte		VOL   , 10*seq_108_mvl/mxv
	.byte	W01
	.byte		N06   , Ds4 
	.byte	W06
	.byte		        Dn4 
	.byte	W06
	.byte		        Ds4 
	.byte	W03
	.byte		VOL   , 15*seq_108_mvl/mxv
	.byte	W03
	.byte		N06   , Dn4 
	.byte	W06
	.byte		        Ds4 
	.byte	W04
	.byte		VOL   , 20*seq_108_mvl/mxv
	.byte	W02
	.byte		N06   , Dn4 
	.byte	W04
	.byte		VOL   , 25*seq_108_mvl/mxv
	.byte	W02
	.byte		N06   , Ds4 
	.byte	W05
	.byte		VOL   , 30*seq_108_mvl/mxv
	.byte	W01
	.byte		N06   , Dn4 
	.byte	W06
	.byte		        Ds4 
	.byte	W01
	.byte		VOL   , 35*seq_108_mvl/mxv
	.byte	W03
	.byte		        40*seq_108_mvl/mxv
	.byte	W02
	.byte		N06   , Dn4 
	.byte	W03
	.byte		VOL   , 46*seq_108_mvl/mxv
	.byte	W03
	.byte		N06   , Ds4 
	.byte	W01
	.byte		VOL   , 40*seq_108_mvl/mxv
	.byte	W04
	.byte		        35*seq_108_mvl/mxv
	.byte	W01
	.byte		N06   , Dn4 
	.byte	W03
	.byte		VOL   , 30*seq_108_mvl/mxv
	.byte	W03
	.byte		N06   , Ds4 
	.byte	W01
	.byte		VOL   , 25*seq_108_mvl/mxv
	.byte	W03
	.byte		        20*seq_108_mvl/mxv
	.byte	W02
	.byte		N06   , Dn4 
	.byte	W03
	.byte		VOL   , 15*seq_108_mvl/mxv
	.byte	W03
	.byte		N06   , Ds4 
	.byte	W02
	.byte		VOL   , 10*seq_108_mvl/mxv
	.byte	W03
	.byte		        5*seq_108_mvl/mxv
	.byte	W01
	.byte	PEND
	.byte		N06   , Fn4 
	.byte	W05
	.byte		VOL   , 10*seq_108_mvl/mxv
	.byte	W01
	.byte		N06   , Fs4 
	.byte	W06
	.byte		        Fn4 
	.byte	W06
	.byte		        Fs4 
	.byte	W03
	.byte		VOL   , 15*seq_108_mvl/mxv
	.byte	W03
	.byte		N06   , Fn4 
	.byte	W06
	.byte		        Fs4 
	.byte	W04
	.byte		VOL   , 20*seq_108_mvl/mxv
	.byte	W02
	.byte		N06   , Fn4 
	.byte	W04
	.byte		VOL   , 25*seq_108_mvl/mxv
	.byte	W02
	.byte		N06   , Fs4 
	.byte	W05
	.byte		VOL   , 30*seq_108_mvl/mxv
	.byte	W01
	.byte		N06   , Fn4 
	.byte	W05
	.byte		VOL   , 35*seq_108_mvl/mxv
	.byte	W01
	.byte		N06   , Fs4 
	.byte	W04
	.byte		VOL   , 40*seq_108_mvl/mxv
	.byte	W02
	.byte		N06   , Fn4 
	.byte	W03
	.byte		VOL   , 46*seq_108_mvl/mxv
	.byte	W03
	.byte		N06   , Fs4 
	.byte	W01
	.byte		VOL   , 40*seq_108_mvl/mxv
	.byte	W04
	.byte		        35*seq_108_mvl/mxv
	.byte	W01
	.byte		N06   , Fn4 
	.byte	W03
	.byte		VOL   , 30*seq_108_mvl/mxv
	.byte	W03
	.byte		N06   , Fs4 
	.byte	W01
	.byte		VOL   , 25*seq_108_mvl/mxv
	.byte	W03
	.byte		        20*seq_108_mvl/mxv
	.byte	W02
	.byte		N06   , Fn4 
	.byte	W03
	.byte		VOL   , 15*seq_108_mvl/mxv
	.byte	W03
	.byte		N06   , Fs4 
	.byte	W02
	.byte		VOL   , 10*seq_108_mvl/mxv
	.byte	W03
	.byte		MOD   , 60
	.byte	W01
	.byte	PATT
	 .word	seq_108_8 + 0x19
	.byte		N06   , Fn4 , v120
	.byte	W05
	.byte		VOL   , 10*seq_108_mvl/mxv
	.byte	W01
	.byte		N06   , Fs4 
	.byte	W06
	.byte		        Fn4 
	.byte	W06
	.byte		        Fs4 
	.byte	W03
	.byte		VOL   , 15*seq_108_mvl/mxv
	.byte	W03
	.byte		N06   , Fn4 
	.byte	W06
	.byte		        Fs4 
	.byte	W04
	.byte		VOL   , 20*seq_108_mvl/mxv
	.byte	W02
	.byte		N06   , Fn4 
	.byte	W04
	.byte		VOL   , 25*seq_108_mvl/mxv
	.byte	W02
	.byte		N06   , Fs4 
	.byte	W05
	.byte		VOL   , 30*seq_108_mvl/mxv
	.byte	W01
	.byte		N06   , Fn4 
	.byte	W05
	.byte		VOL   , 35*seq_108_mvl/mxv
	.byte	W01
	.byte		N06   , Fs4 
	.byte	W04
	.byte		VOL   , 40*seq_108_mvl/mxv
	.byte	W02
	.byte		N06   , Fn4 
	.byte	W03
	.byte		VOL   , 46*seq_108_mvl/mxv
	.byte	W03
	.byte		N06   , Fs4 
	.byte	W01
	.byte		VOL   , 40*seq_108_mvl/mxv
	.byte	W04
	.byte		        35*seq_108_mvl/mxv
	.byte	W01
	.byte		N06   , Fn4 
	.byte	W03
	.byte		VOL   , 30*seq_108_mvl/mxv
	.byte	W03
	.byte		N06   , Fs4 
	.byte	W01
	.byte		VOL   , 25*seq_108_mvl/mxv
	.byte	W03
	.byte		        20*seq_108_mvl/mxv
	.byte	W02
	.byte		N06   , Fn4 
	.byte	W03
	.byte		VOL   , 15*seq_108_mvl/mxv
	.byte	W03
	.byte		N06   , Fs4 
	.byte	W02
	.byte		VOL   , 10*seq_108_mvl/mxv
	.byte	W02
	.byte		        40*seq_108_mvl/mxv
	.byte	W01
	.byte		VOICE , 74
	.byte	W01
	.byte	PEND
	.byte		N10   , As4 , v120
	.byte	W11
	.byte		VOICE , 76
	.byte	W01
	.byte		N12   , As4 , v080
	.byte	W10
	.byte		MOD   , 60
	.byte	W01
	.byte		VOICE , 74
	.byte	W01
	.byte		N10   , An4 , v120
	.byte	W11
	.byte		VOICE , 76
	.byte	W01
	.byte		N12   , An4 , v080
	.byte	W10
	.byte		MOD   , 0
	.byte	W01
	.byte		VOICE , 74
	.byte	W01
	.byte		N10   , Fn4 , v120
	.byte	W11
	.byte		VOICE , 76
	.byte	W01
	.byte		N12   , Fn4 , v080
	.byte	W10
	.byte		MOD   , 60
	.byte	W01
	.byte		VOICE , 74
	.byte	W01
	.byte		N12   , Cs4 , v120
	.byte	W11
	.byte		VOICE , 79
	.byte	W01
	.byte		N12   , Fn4 
	.byte	W11
	.byte		VOICE , 74
	.byte	W01
	.byte	PEND
	.byte		N12   , Fn4 , v060
	.byte	W12
	.byte		        Dn4 , v120
	.byte	W12
	.byte		N24   , Dn4 , v060
	.byte	W24
	.byte		N06   , Dn4 , v120
	.byte	W06
	.byte		        Ds4 
	.byte	W06
	.byte		N04   , Fn4 
	.byte	W06
	.byte		N06   , Fn4 , v060
	.byte	W06
	.byte		N04   , Ds4 , v120
	.byte	W06
	.byte		N06   , Ds4 , v060
	.byte	W06
	.byte		N04   , Cs4 , v120
	.byte	W06
	.byte		N06   , Cs4 , v060
	.byte	W06
	.byte	PEND
	.byte		N10   , Dn4 , v120
	.byte	W10
	.byte		N14   , Dn4 , v060
	.byte	W14
	.byte		N12   , Dn4 , v040
	.byte	W23
	.byte		MOD   , 0
	.byte	W01
	.byte		N06   , Dn5 , v100
	.byte	W06
	.byte		        Ds5 
	.byte	W06
	.byte		N04   , Fn5 
	.byte	W06
	.byte		N06   , Fn5 , v060
	.byte	W06
	.byte		N04   , Ds5 , v100
	.byte	W06
	.byte		N06   , Ds5 , v060
	.byte	W06
	.byte		N04   , Cs5 , v100
	.byte	W06
	.byte		N06   , Cs5 , v060
	.byte	W06
	.byte	PEND
	.byte		N10   , Dn5 , v100
	.byte	W10
	.byte		N14   , Dn5 , v060
	.byte	W14
	.byte		N12   , Dn5 , v040
	.byte	W22
	.byte		MOD   , 120
	.byte	W01
	.byte		VOICE , 78
	.byte	W01
	.byte		N03   , Fn4 , v120
	.byte	W03
	.byte		        Fn4 , v060
	.byte	W03
	.byte		        Fs4 , v120
	.byte	W03
	.byte		        Fs4 , v060
	.byte	W03
	.byte		        As4 , v120
	.byte	W03
	.byte		        As4 , v060
	.byte	W03
	.byte		        Bn4 , v120
	.byte	W03
	.byte		        Bn4 , v060
	.byte	W03
	.byte		        Dn5 , v120
	.byte	W03
	.byte		        Dn5 , v060
	.byte	W03
	.byte		        Ds5 , v120
	.byte	W03
	.byte		        Ds5 , v060
	.byte	W03
	.byte		N02   , Fn5 , v120
	.byte	W03
	.byte		N03   , Fn5 , v060
	.byte	W03
	.byte		N02   , Fs5 , v120
	.byte	W03
	.byte		N03   , Fs5 , v060
	.byte	W01
	.byte		MOD   , 0
	.byte	W01
	.byte		VOICE , 74
	.byte	W01
	.byte	PATT
	 .word	seq_108_8 + 0x132
	.byte		N12   , Fn4 , v060
	.byte	W12
	.byte		        Dn4 , v120
	.byte	W12
	.byte		N24   , Dn4 , v060
	.byte	W23
	.byte		MOD   , 0
	.byte	W01
	.byte		N06   , Dn4 , v120
	.byte	W06
	.byte		        Ds4 
	.byte	W06
	.byte		N04   , Fn4 
	.byte	W06
	.byte		N06   , Fn4 , v060
	.byte	W06
	.byte		N04   , Ds4 , v120
	.byte	W06
	.byte		N06   , Ds4 , v060
	.byte	W06
	.byte		N04   , Cs4 , v120
	.byte	W06
	.byte		N06   , Cs4 , v060
	.byte	W06
	.byte		N10   , Dn4 , v120
	.byte	W10
	.byte		N14   , Dn4 , v060
	.byte	W14
	.byte		N12   , Dn4 , v040
	.byte	W24
	.byte		N06   , Dn5 , v100
	.byte	W06
	.byte		        Ds5 
	.byte	W06
	.byte		N04   , Fn5 
	.byte	W06
	.byte		N06   , Fn5 , v060
	.byte	W06
	.byte		N04   , Ds5 , v100
	.byte	W06
	.byte		N06   , Ds5 , v060
	.byte	W06
	.byte		N04   , Cs5 , v100
	.byte	W06
	.byte		N06   , Cs5 , v060
	.byte	W06
	.byte		N10   , Dn5 , v100
	.byte	W10
	.byte		N14   , Dn5 , v060
	.byte	W14
	.byte		N12   , Dn5 , v040
	.byte	W22
	.byte		MOD   , 120
	.byte	W01
	.byte		VOICE , 78
	.byte	W01
	.byte		N03   , Fn4 , v120
	.byte	W03
	.byte		        Fn4 , v060
	.byte	W03
	.byte		        Fs4 , v120
	.byte	W03
	.byte		        Fs4 , v060
	.byte	W03
	.byte		        As4 , v120
	.byte	W03
	.byte		        As4 , v060
	.byte	W03
	.byte		        Bn4 , v120
	.byte	W03
	.byte		        Bn4 , v060
	.byte	W03
	.byte		        Fn5 , v120
	.byte	W03
	.byte		        Fn5 , v060
	.byte	W03
	.byte		        Fs5 , v120
	.byte	W03
	.byte		        Fs5 , v060
	.byte	W03
	.byte		N02   , Dn5 , v120
	.byte	W03
	.byte		N03   , Dn5 , v060
	.byte	W03
	.byte		N02   , Ds5 , v120
	.byte	W03
	.byte		N03   , Ds5 , v060
	.byte	W01
	.byte		MOD   , 0
	.byte	W01
	.byte		VOICE , 74
	.byte	W01
	.byte		N10   , An4 , v120
	.byte	W11
	.byte		VOICE , 76
	.byte	W01
	.byte		N12   , An4 , v080
	.byte	W10
	.byte		MOD   , 60
	.byte	W01
	.byte		VOICE , 74
	.byte	W01
	.byte		N10   , Gs4 , v120
	.byte	W11
	.byte		VOICE , 76
	.byte	W01
	.byte		N12   , Gs4 , v080
	.byte	W10
	.byte		MOD   , 0
	.byte	W01
	.byte		VOICE , 74
	.byte	W01
	.byte		N10   , En4 , v120
	.byte	W11
	.byte		VOICE , 76
	.byte	W01
	.byte		N12   , En4 , v080
	.byte	W10
	.byte		MOD   , 60
	.byte	W01
	.byte		VOICE , 74
	.byte	W01
	.byte		N12   , Cn4 , v120
	.byte	W11
	.byte		VOICE , 79
	.byte	W01
	.byte		N12   , En4 
	.byte	W11
	.byte		VOICE , 74
	.byte	W01
	.byte		N12   , En4 , v060
	.byte	W12
	.byte		        Cs4 , v120
	.byte	W12
	.byte		N24   , Cs4 , v060
	.byte	W24
	.byte		N06   , Cs4 , v120
	.byte	W06
	.byte		        Dn4 
	.byte	W06
	.byte		N04   , En4 
	.byte	W06
	.byte		N06   , En4 , v060
	.byte	W06
	.byte		N04   , Dn4 , v120
	.byte	W06
	.byte		N06   , Dn4 , v060
	.byte	W06
	.byte		N04   , Cn4 , v120
	.byte	W06
	.byte		N06   , Cn4 , v060
	.byte	W06
	.byte		N10   , Cs4 , v120
	.byte	W10
	.byte		N14   , Cs4 , v060
	.byte	W14
	.byte		N12   , Cs4 , v040
	.byte	W23
	.byte		MOD   , 0
	.byte	W01
	.byte		N06   , Cs5 , v100
	.byte	W06
	.byte		        Dn5 
	.byte	W06
	.byte		N04   , En5 
	.byte	W06
	.byte		N06   , En5 , v060
	.byte	W06
	.byte		N04   , Dn5 , v100
	.byte	W06
	.byte		N06   , Dn5 , v060
	.byte	W06
	.byte		N04   , Cn5 , v100
	.byte	W06
	.byte		N06   , Cn5 , v060
	.byte	W06
	.byte		N10   , Cs5 , v100
	.byte	W10
	.byte		N14   , Cs5 , v060
	.byte	W14
	.byte		N12   , Cs5 , v040
	.byte	W22
	.byte		MOD   , 120
	.byte	W01
	.byte		VOICE , 78
	.byte	W01
	.byte		N03   , En4 , v120
	.byte	W03
	.byte		        En4 , v060
	.byte	W03
	.byte		        Fn4 , v120
	.byte	W03
	.byte		        Fn4 , v060
	.byte	W03
	.byte		        An4 , v120
	.byte	W03
	.byte		        An4 , v060
	.byte	W03
	.byte		        As4 , v120
	.byte	W03
	.byte		        As4 , v060
	.byte	W03
	.byte		        Cs5 , v120
	.byte	W03
	.byte		        Cs5 , v060
	.byte	W03
	.byte		        Dn5 , v120
	.byte	W03
	.byte		        Dn5 , v060
	.byte	W03
	.byte		N02   , En5 , v120
	.byte	W03
	.byte		N03   , En5 , v060
	.byte	W03
	.byte		N02   , Fn5 , v120
	.byte	W03
	.byte		N03   , Fn5 , v060
	.byte	W01
	.byte		MOD   , 0
	.byte	W01
	.byte		VOICE , 74
	.byte	W01
	.byte	PATT
	 .word	seq_108_8 + 0x132
	.byte	PATT
	 .word	seq_108_8 + 0x173
	.byte	PATT
	 .word	seq_108_8 + 0x19C
	.byte		N10   , Dn5 , v100
	.byte	W10
	.byte		N14   , Dn5 , v060
	.byte	W14
	.byte		N12   , Dn5 , v040
	.byte	W22
	.byte		MOD   , 120
	.byte	W01
	.byte		VOICE , 78
	.byte	W01
	.byte		N03   , Fn4 , v120
	.byte	W03
	.byte		        Fn4 , v060
	.byte	W03
	.byte		        Fs4 , v120
	.byte	W03
	.byte		        Fs4 , v060
	.byte	W03
	.byte		        As4 , v120
	.byte	W03
	.byte		        As4 , v060
	.byte	W03
	.byte		        Bn4 , v120
	.byte	W03
	.byte		        Bn4 , v060
	.byte	W03
	.byte		        Fn5 , v120
	.byte	W03
	.byte		        Fn5 , v060
	.byte	W03
	.byte		        Fs5 , v120
	.byte	W03
	.byte		        Fs5 , v060
	.byte	W03
	.byte		N02   , Dn5 , v120
	.byte	W03
	.byte		N03   , Dn5 , v060
	.byte	W03
	.byte		N02   , Ds5 , v120
	.byte	W03
	.byte		N03   , Ds5 , v060
	.byte	W03
	.byte	W04
	.byte		MOD   , 0
	.byte	W01
	.byte		VOL   , 40*seq_108_mvl/mxv
	.byte	W01
	.byte		N03   , Dn3 , v120
	.byte	W03
	.byte		        Dn3 , v060
	.byte	W03
	.byte		        Ds3 , v120
	.byte	W03
	.byte		        Ds3 , v060
	.byte	W03
	.byte		        Dn4 , v120
	.byte	W03
	.byte		        Dn4 , v060
	.byte	W03
	.byte		N08   , Ds4 , v120
	.byte	W08
	.byte		N03   , Ds4 , v060
	.byte	W04
	.byte		N06
	.byte	W06
	.byte		N03   , Cn4 , v120
	.byte	W03
	.byte		        Cn4 , v060
	.byte	W03
	.byte		N08   , Dn4 , v120
	.byte	W08
	.byte		N03   , Dn4 , v060
	.byte	W04
	.byte		N06
	.byte	W06
	.byte		N03   , As3 , v120
	.byte	W03
	.byte		        As3 , v060
	.byte	W03
	.byte		N08   , Cn4 , v120
	.byte	W08
	.byte		N03   , Cn4 , v060
	.byte	W04
	.byte		N06
	.byte	W06
	.byte		N03   , An3 , v120
	.byte	W03
	.byte		        An3 , v060
	.byte	W03
	.byte	PEND
	.byte		N08   , As3 , v120
	.byte	W08
	.byte		N03   , As3 , v060
	.byte	W04
	.byte		N06
	.byte	W06
	.byte		N03   , Gn3 , v120
	.byte	W03
	.byte		        Gn3 , v060
	.byte	W03
	.byte		N08   , An3 , v120
	.byte	W08
	.byte		N03   , An3 , v060
	.byte	W04
	.byte		N06
	.byte	W05
	.byte		VOICE , 97
	.byte	W01
	.byte		N03   , Fn5 , v120
	.byte	W03
	.byte		        Fn5 , v060
	.byte	W03
	.byte		N06   , Fs5 , v120
	.byte	W06
	.byte		N03   , Cn5 
	.byte	W03
	.byte		        Cn5 , v060
	.byte	W03
	.byte		        Fn4 , v120
	.byte	W03
	.byte		        Fn4 , v060
	.byte	W03
	.byte		        Fs4 , v120
	.byte	W03
	.byte		        Fs4 , v060
	.byte	W03
	.byte		        Gn4 , v120
	.byte	W03
	.byte		        Gn4 , v060
	.byte	W03
	.byte		        Dn4 , v120
	.byte	W03
	.byte		        Dn4 , v060
	.byte	W03
	.byte		        Cs4 , v120
	.byte	W03
	.byte		        Cs4 , v060
	.byte	W03
	.byte		        Cn4 , v120
	.byte	W03
	.byte		        Cn4 , v060
	.byte	W01
	.byte		VOL   , 10*seq_108_mvl/mxv
	.byte	W01
	.byte		MOD   , 60
	.byte	W01
	.byte	PEND
	.byte	PATT
	 .word	seq_108_8 + 0x19
	.byte		N06   , Fn4 , v120
	.byte	W05
	.byte		VOL   , 10*seq_108_mvl/mxv
	.byte	W01
	.byte		N06   , Fs4 
	.byte	W06
	.byte		        Fn4 
	.byte	W06
	.byte		        Fs4 
	.byte	W03
	.byte		VOL   , 15*seq_108_mvl/mxv
	.byte	W03
	.byte		N06   , Fn4 
	.byte	W06
	.byte		        Fs4 
	.byte	W04
	.byte		VOL   , 20*seq_108_mvl/mxv
	.byte	W02
	.byte		N06   , Fn4 
	.byte	W04
	.byte		VOL   , 25*seq_108_mvl/mxv
	.byte	W02
	.byte		N06   , Fs4 
	.byte	W05
	.byte		VOL   , 30*seq_108_mvl/mxv
	.byte	W01
	.byte		N06   , Fn4 
	.byte	W05
	.byte		VOL   , 35*seq_108_mvl/mxv
	.byte	W01
	.byte		N06   , Fs4 
	.byte	W04
	.byte		VOL   , 40*seq_108_mvl/mxv
	.byte	W02
	.byte		N06   , Fn4 
	.byte	W03
	.byte		VOL   , 46*seq_108_mvl/mxv
	.byte	W03
	.byte		N06   , Fs4 
	.byte	W01
	.byte		VOL   , 40*seq_108_mvl/mxv
	.byte	W04
	.byte		        35*seq_108_mvl/mxv
	.byte	W01
	.byte		N06   , Fn4 
	.byte	W03
	.byte		VOL   , 30*seq_108_mvl/mxv
	.byte	W03
	.byte		N06   , Fs4 
	.byte	W01
	.byte		VOL   , 25*seq_108_mvl/mxv
	.byte	W03
	.byte		        20*seq_108_mvl/mxv
	.byte	W02
	.byte		N06   , Fn4 
	.byte	W03
	.byte		VOL   , 15*seq_108_mvl/mxv
	.byte	W03
	.byte		N06   , Fs4 
	.byte	W02
	.byte		VOL   , 10*seq_108_mvl/mxv
	.byte	W04
	.byte	PEND
	.byte	PATT
	 .word	seq_108_8 + 0x3F3
	.byte	PATT
	 .word	seq_108_8 + 0x441
	.byte		N06   , Dn4 , v120
	.byte	W06
	.byte		        Ds4 
	.byte	W06
	.byte		        Dn4 
	.byte	W06
	.byte		        Ds4 
	.byte	W03
	.byte		VOL   , 15*seq_108_mvl/mxv
	.byte	W03
	.byte		N06   , Dn4 
	.byte	W06
	.byte		        Ds4 
	.byte	W04
	.byte		VOL   , 20*seq_108_mvl/mxv
	.byte	W02
	.byte		N06   , Dn4 
	.byte	W04
	.byte		VOL   , 25*seq_108_mvl/mxv
	.byte	W02
	.byte		N06   , Ds4 
	.byte	W05
	.byte		VOL   , 30*seq_108_mvl/mxv
	.byte	W01
	.byte		N06   , Dn4 
	.byte	W06
	.byte		        Ds4 
	.byte	W01
	.byte		VOL   , 35*seq_108_mvl/mxv
	.byte	W03
	.byte		        40*seq_108_mvl/mxv
	.byte	W02
	.byte		N06   , Dn4 
	.byte	W03
	.byte		VOL   , 46*seq_108_mvl/mxv
	.byte	W03
	.byte		N06   , Ds4 
	.byte	W01
	.byte		VOL   , 40*seq_108_mvl/mxv
	.byte	W04
	.byte		        35*seq_108_mvl/mxv
	.byte	W01
	.byte		N06   , Dn4 
	.byte	W03
	.byte		VOL   , 30*seq_108_mvl/mxv
	.byte	W03
	.byte		N06   , Ds4 
	.byte	W01
	.byte		VOL   , 25*seq_108_mvl/mxv
	.byte	W03
	.byte		        20*seq_108_mvl/mxv
	.byte	W02
	.byte		N06   , Dn4 
	.byte	W03
	.byte		VOL   , 15*seq_108_mvl/mxv
	.byte	W03
	.byte		N06   , Ds4 
	.byte	W02
	.byte		VOL   , 10*seq_108_mvl/mxv
	.byte	W03
	.byte		        5*seq_108_mvl/mxv
	.byte	W01
	.byte	PATT
	 .word	seq_108_8 + 0xD3
	.byte		N10   , Bn4 , v120
	.byte	W11
	.byte		VOICE , 76
	.byte	W01
	.byte		N12   , Bn4 , v080
	.byte	W10
	.byte		MOD   , 60
	.byte	W01
	.byte		VOICE , 74
	.byte	W01
	.byte		N10   , As4 , v120
	.byte	W11
	.byte		VOICE , 76
	.byte	W01
	.byte		N12   , As4 , v080
	.byte	W10
	.byte		MOD   , 0
	.byte	W01
	.byte		VOICE , 74
	.byte	W01
	.byte		N10   , Fs4 , v120
	.byte	W11
	.byte		VOICE , 76
	.byte	W01
	.byte		N12   , Fs4 , v080
	.byte	W10
	.byte		MOD   , 60
	.byte	W01
	.byte		VOICE , 74
	.byte	W01
	.byte		N12   , Dn4 , v120
	.byte	W11
	.byte		VOICE , 79
	.byte	W01
	.byte		N12   , Fs4 
	.byte	W11
	.byte		VOICE , 74
	.byte	W01
	.byte		N12   , Fs4 , v060
	.byte	W12
	.byte		        Ds4 , v120
	.byte	W12
	.byte		N24   , Ds4 , v060
	.byte	W24
	.byte		N06   , Ds4 , v120
	.byte	W06
	.byte		        En4 
	.byte	W06
	.byte		N04   , Fs4 
	.byte	W06
	.byte		N06   , Fs4 , v060
	.byte	W06
	.byte		N04   , En4 , v120
	.byte	W06
	.byte		N06   , En4 , v060
	.byte	W06
	.byte		N04   , Fs4 , v120
	.byte	W06
	.byte		N06   , Fs4 , v060
	.byte	W06
	.byte		N10   , Ds4 , v100
	.byte	W10
	.byte		N14   , Ds4 , v060
	.byte	W13
	.byte		VOL   , 15*seq_108_mvl/mxv
	.byte	W01
	.byte		N06   , Ds4 , v120
	.byte	W06
	.byte		        En4 
	.byte	W04
	.byte		VOL   , 20*seq_108_mvl/mxv
	.byte	W02
	.byte		N06   , Ds4 
	.byte	W04
	.byte		VOL   , 25*seq_108_mvl/mxv
	.byte	W02
	.byte		N06   , En4 
	.byte	W05
	.byte		VOL   , 30*seq_108_mvl/mxv
	.byte	W01
	.byte		N06   , Ds4 
	.byte	W06
	.byte		        En4 
	.byte	W01
	.byte		VOL   , 35*seq_108_mvl/mxv
	.byte	W03
	.byte		        40*seq_108_mvl/mxv
	.byte	W02
	.byte		N06   , Ds4 
	.byte	W03
	.byte		VOL   , 46*seq_108_mvl/mxv
	.byte	W03
	.byte		N06   , En4 
	.byte	W01
	.byte		VOL   , 40*seq_108_mvl/mxv
	.byte	W04
	.byte		        35*seq_108_mvl/mxv
	.byte	W01
	.byte		N06   , Ds4 
	.byte	W03
	.byte		VOL   , 30*seq_108_mvl/mxv
	.byte	W03
	.byte		N06   , En4 
	.byte	W01
	.byte		VOL   , 25*seq_108_mvl/mxv
	.byte	W03
	.byte		        20*seq_108_mvl/mxv
	.byte	W02
	.byte		N06   , Ds4 
	.byte	W03
	.byte		VOL   , 15*seq_108_mvl/mxv
	.byte	W03
	.byte		N06   , En4 
	.byte	W02
	.byte		VOL   , 10*seq_108_mvl/mxv
	.byte	W03
	.byte		        5*seq_108_mvl/mxv
	.byte	W01
	.byte		N06   , Fs4 
	.byte	W05
	.byte		VOL   , 10*seq_108_mvl/mxv
	.byte	W01
	.byte		N06   , Gn4 
	.byte	W06
	.byte		        Fs4 
	.byte	W06
	.byte		        Gn4 
	.byte	W03
	.byte		VOL   , 15*seq_108_mvl/mxv
	.byte	W03
	.byte		N06   , Fs4 
	.byte	W06
	.byte		        Gn4 
	.byte	W04
	.byte		VOL   , 20*seq_108_mvl/mxv
	.byte	W02
	.byte		N06   , Fs4 
	.byte	W04
	.byte		VOL   , 25*seq_108_mvl/mxv
	.byte	W02
	.byte		N06   , Gn4 
	.byte	W05
	.byte		VOL   , 30*seq_108_mvl/mxv
	.byte	W01
	.byte		N06   , Fs4 
	.byte	W05
	.byte		VOL   , 35*seq_108_mvl/mxv
	.byte	W01
	.byte		N06   , Gn4 
	.byte	W04
	.byte		VOL   , 40*seq_108_mvl/mxv
	.byte	W02
	.byte		N06   , Fs4 
	.byte	W03
	.byte		VOL   , 46*seq_108_mvl/mxv
	.byte	W03
	.byte		N06   , Gn4 
	.byte	W01
	.byte		VOL   , 40*seq_108_mvl/mxv
	.byte	W04
	.byte		        35*seq_108_mvl/mxv
	.byte	W01
	.byte		N06   , Fs4 
	.byte	W03
	.byte		VOL   , 30*seq_108_mvl/mxv
	.byte	W03
	.byte		N06   , Gn4 
	.byte	W01
	.byte		VOL   , 25*seq_108_mvl/mxv
	.byte	W03
	.byte		        20*seq_108_mvl/mxv
	.byte	W02
	.byte		N06   , Fs4 
	.byte	W03
	.byte		VOL   , 15*seq_108_mvl/mxv
	.byte	W03
	.byte		N06   , Gn4 
	.byte	W02
	.byte		VOL   , 10*seq_108_mvl/mxv
	.byte	W01
	.byte		MOD   , 0
	.byte	W01
	.byte		VOL   , 40*seq_108_mvl/mxv
	.byte	W01
	.byte		VOICE , 72
	.byte	W01
	.byte		N04   , As3 , v120
	.byte	W06
	.byte		N06   , As3 , v060
	.byte	W06
	.byte		N04   , An3 , v120
	.byte	W06
	.byte		N06   , An3 , v060
	.byte	W06
	.byte		N04   , Dn4 , v120
	.byte	W06
	.byte		N06   , Dn4 , v060
	.byte	W06
	.byte		N04   , Cn4 , v120
	.byte	W06
	.byte		N06   , Cn4 , v060
	.byte	W06
	.byte		N05   , Cs4 , v120
	.byte	W06
	.byte		N12   , Cs4 , v060
	.byte	W12
	.byte		        Cs4 , v040
	.byte	W12
	.byte		N05   , Cs4 , v120
	.byte	W05
	.byte		N01   , Cs4 , v060
	.byte	W01
	.byte		N05   , Ds4 , v120
	.byte	W05
	.byte		N01   , Ds4 , v060
	.byte	W01
	.byte		N05   , En4 , v120
	.byte	W06
	.byte	PEND
	.byte		N12   , En4 , v060
	.byte	W12
	.byte		        En4 , v040
	.byte	W32
	.byte	W03
	.byte		VOICE , 74
	.byte	W01
	.byte		N04   , En4 , v120
	.byte	W05
	.byte		N01   , En4 , v060
	.byte	W01
	.byte		N04   , Ds4 , v120
	.byte	W05
	.byte		N01   , Ds4 , v060
	.byte	W01
	.byte		N04   , En4 , v120
	.byte	W05
	.byte		N01   , En4 , v060
	.byte	W01
	.byte		N04   , Fn4 , v120
	.byte	W05
	.byte		N01   , Fn4 , v060
	.byte	W01
	.byte		N04   , Fs4 , v120
	.byte	W05
	.byte		N01   , Fs4 , v060
	.byte	W01
	.byte		N04   , Gn4 , v120
	.byte	W05
	.byte		N01   , Gn4 , v060
	.byte	W01
	.byte		N04   , Gs4 , v120
	.byte	W05
	.byte		N01   , Gs4 , v060
	.byte	W01
	.byte		N04   , An4 , v120
	.byte	W04
	.byte		MOD   , 0
	.byte	W01
	.byte		N01   , An4 , v060
	.byte	W01
	.byte	PEND
	.byte		N03   , As4 , v120
	.byte	W04
	.byte		N02   , As4 , v060
	.byte	W02
	.byte		N03   , Gn4 , v120
	.byte	W04
	.byte		N02   , Gn4 , v060
	.byte	W02
	.byte		N03   , Dn4 , v120
	.byte	W04
	.byte		N02   , Dn4 , v060
	.byte	W02
	.byte		N03   , As3 , v120
	.byte	W04
	.byte		N02   , As3 , v060
	.byte	W01
	.byte		MOD   , 60
	.byte	W01
	.byte		N06   , Dn5 , v120
	.byte	W06
	.byte		        Dn5 , v060
	.byte	W06
	.byte		        Dn5 , v040
	.byte	W11
	.byte		VOL   , 30*seq_108_mvl/mxv
	.byte	W01
	.byte		N06   , Fn4 , v120
	.byte	W06
	.byte		        Fs4 
	.byte	W01
	.byte		VOL   , 35*seq_108_mvl/mxv
	.byte	W03
	.byte		        40*seq_108_mvl/mxv
	.byte	W02
	.byte		N06   , Fn4 
	.byte	W03
	.byte		VOL   , 46*seq_108_mvl/mxv
	.byte	W03
	.byte		N06   , Fs4 
	.byte	W01
	.byte		VOL   , 40*seq_108_mvl/mxv
	.byte	W04
	.byte		        35*seq_108_mvl/mxv
	.byte	W01
	.byte		N06   , Fn4 
	.byte	W03
	.byte		VOL   , 30*seq_108_mvl/mxv
	.byte	W03
	.byte		N06   , Fs4 
	.byte	W01
	.byte		VOL   , 25*seq_108_mvl/mxv
	.byte	W03
	.byte		        20*seq_108_mvl/mxv
	.byte	W02
	.byte		N06   , Fn4 
	.byte	W03
	.byte		VOL   , 15*seq_108_mvl/mxv
	.byte	W03
	.byte		N06   , Fs4 
	.byte	W02
	.byte		VOL   , 10*seq_108_mvl/mxv
	.byte	W03
	.byte		        5*seq_108_mvl/mxv
	.byte	W01
	.byte	PEND
	.byte		N06   , Bn3 
	.byte	W05
	.byte		VOL   , 10*seq_108_mvl/mxv
	.byte	W01
	.byte		N06   , Cn4 
	.byte	W06
	.byte		        Bn3 
	.byte	W06
	.byte		        Cn4 
	.byte	W03
	.byte		VOL   , 15*seq_108_mvl/mxv
	.byte	W03
	.byte		N06   , Bn3 
	.byte	W06
	.byte		        Cn4 
	.byte	W04
	.byte		VOL   , 20*seq_108_mvl/mxv
	.byte	W02
	.byte		N06   , Bn3 
	.byte	W04
	.byte		VOL   , 25*seq_108_mvl/mxv
	.byte	W02
	.byte		N06   , Cn4 
	.byte	W05
	.byte		VOL   , 30*seq_108_mvl/mxv
	.byte	W01
	.byte		N06   , Dn4 
	.byte	W05
	.byte		VOL   , 35*seq_108_mvl/mxv
	.byte	W01
	.byte		N06   , Ds4 
	.byte	W04
	.byte		VOL   , 40*seq_108_mvl/mxv
	.byte	W02
	.byte		N06   , Dn4 
	.byte	W03
	.byte		VOL   , 46*seq_108_mvl/mxv
	.byte	W03
	.byte		N06   , Ds4 
	.byte	W01
	.byte		VOL   , 40*seq_108_mvl/mxv
	.byte	W04
	.byte		        35*seq_108_mvl/mxv
	.byte	W01
	.byte		N06   , Dn4 
	.byte	W03
	.byte		VOL   , 30*seq_108_mvl/mxv
	.byte	W03
	.byte		N06   , Ds4 
	.byte	W01
	.byte		VOL   , 25*seq_108_mvl/mxv
	.byte	W03
	.byte		        20*seq_108_mvl/mxv
	.byte	W02
	.byte		N06   , Dn4 
	.byte	W03
	.byte		VOL   , 15*seq_108_mvl/mxv
	.byte	W03
	.byte		N06   , Ds4 
	.byte	W02
	.byte		VOL   , 10*seq_108_mvl/mxv
	.byte	W02
	.byte		        40*seq_108_mvl/mxv
	.byte	W01
	.byte		VOICE , 72
	.byte	W01
	.byte	PATT
	 .word	seq_108_8 + 0x67B
	.byte	PATT
	 .word	seq_108_8 + 0x6BB
	.byte	PATT
	 .word	seq_108_8 + 0x70A
	.byte		N06   , Bn3 , v120
	.byte	W05
	.byte		VOL   , 10*seq_108_mvl/mxv
	.byte	W01
	.byte		N06   , Cn4 
	.byte	W06
	.byte		        Bn3 
	.byte	W06
	.byte		        Cn4 
	.byte	W03
	.byte		VOL   , 15*seq_108_mvl/mxv
	.byte	W03
	.byte		N06   , Bn3 
	.byte	W06
	.byte		        Cn4 
	.byte	W04
	.byte		VOL   , 20*seq_108_mvl/mxv
	.byte	W02
	.byte		N06   , Bn3 
	.byte	W04
	.byte		VOL   , 25*seq_108_mvl/mxv
	.byte	W02
	.byte		N06   , Cn4 
	.byte	W05
	.byte		VOL   , 30*seq_108_mvl/mxv
	.byte	W01
	.byte		N06   , Dn4 
	.byte	W05
	.byte		VOL   , 35*seq_108_mvl/mxv
	.byte	W01
	.byte		N06   , Ds4 
	.byte	W04
	.byte		VOL   , 40*seq_108_mvl/mxv
	.byte	W02
	.byte		N06   , Dn4 
	.byte	W03
	.byte		VOL   , 46*seq_108_mvl/mxv
	.byte	W03
	.byte		N06   , Ds4 
	.byte	W01
	.byte		VOL   , 40*seq_108_mvl/mxv
	.byte	W04
	.byte		        35*seq_108_mvl/mxv
	.byte	W01
	.byte		N06   , Dn4 
	.byte	W03
	.byte		VOL   , 30*seq_108_mvl/mxv
	.byte	W03
	.byte		N06   , Ds4 
	.byte	W01
	.byte		VOL   , 25*seq_108_mvl/mxv
	.byte	W03
	.byte		        20*seq_108_mvl/mxv
	.byte	W02
	.byte		N06   , Dn4 
	.byte	W03
	.byte		VOL   , 15*seq_108_mvl/mxv
	.byte	W03
	.byte		N06   , Ds4 
	.byte	W02
	.byte		VOL   , 10*seq_108_mvl/mxv
	.byte	W03
	.byte		        40*seq_108_mvl/mxv
	.byte	W01
	.byte		N03   , Dn2 
	.byte	W04
	.byte		N02   , Dn2 , v060
	.byte	W02
	.byte		N03   , Gn2 , v120
	.byte	W04
	.byte		N02   , Gn2 , v060
	.byte	W02
	.byte		N03   , Cn3 , v120
	.byte	W04
	.byte		N02   , Cn3 , v060
	.byte	W02
	.byte		N03   , Fn3 , v120
	.byte	W04
	.byte		N02   , Fn3 , v060
	.byte	W02
	.byte		N03   , As3 , v120
	.byte	W04
	.byte		N02   , As3 , v060
	.byte	W02
	.byte		N03   , Ds4 , v120
	.byte	W04
	.byte		N02   , Ds4 , v060
	.byte	W02
	.byte		N03   , Gs4 , v120
	.byte	W04
	.byte		N02   , Gs4 , v060
	.byte	W02
	.byte		N03   , Cs5 , v120
	.byte	W04
	.byte		VOL   , 5*seq_108_mvl/mxv
	.byte		N02   , Cs5 , v060
	.byte	W01
	.byte		MOD   , 60
	.byte	W01
	.byte	PATT
	 .word	seq_108_8 + 0x19
	.byte	PATT
	 .word	seq_108_8 + 0x4A0
	.byte	PATT
	 .word	seq_108_8 + 0x19
	.byte		N06   , Fn4 , v120
	.byte	W05
	.byte		VOL   , 10*seq_108_mvl/mxv
	.byte	W01
	.byte		N06   , Fs4 
	.byte	W06
	.byte		        Fn4 
	.byte	W06
	.byte		        Fs4 
	.byte	W03
	.byte		VOL   , 15*seq_108_mvl/mxv
	.byte	W03
	.byte		N06   , Fn4 
	.byte	W06
	.byte		        Fs4 
	.byte	W04
	.byte		VOL   , 20*seq_108_mvl/mxv
	.byte	W02
	.byte		N06   , Fn4 
	.byte	W04
	.byte		VOL   , 25*seq_108_mvl/mxv
	.byte	W02
	.byte		N06   , Fs4 
	.byte	W05
	.byte		VOL   , 30*seq_108_mvl/mxv
	.byte	W01
	.byte		N06   , Fn4 
	.byte	W05
	.byte		VOL   , 35*seq_108_mvl/mxv
	.byte	W01
	.byte		N06   , Fs4 
	.byte	W04
	.byte		VOL   , 40*seq_108_mvl/mxv
	.byte	W02
	.byte		N06   , Fn4 
	.byte	W03
	.byte		VOL   , 46*seq_108_mvl/mxv
	.byte	W03
	.byte		N06   , Fs4 
	.byte	W01
	.byte		VOL   , 40*seq_108_mvl/mxv
	.byte	W04
	.byte		        35*seq_108_mvl/mxv
	.byte	W01
	.byte		N06   , Fn4 
	.byte	W03
	.byte		VOL   , 30*seq_108_mvl/mxv
	.byte	W03
	.byte		N06   , Fs4 
	.byte	W01
	.byte		VOL   , 25*seq_108_mvl/mxv
	.byte	W03
	.byte		        20*seq_108_mvl/mxv
	.byte	W02
	.byte		N06   , Fn4 
	.byte	W03
	.byte		VOL   , 15*seq_108_mvl/mxv
	.byte	W03
	.byte		N06   , Fs4 
	.byte	W02
	.byte		VOL   , 10*seq_108_mvl/mxv
	.byte	W01
	.byte		MOD   , 0
	.byte	W01
	.byte		VOICE , 74
	.byte	W01
	.byte		VOL   , 40*seq_108_mvl/mxv
	.byte	W01
	.byte	GOTO
	 .word	seq_108_8 + 0x132
	.byte	FINE

@*********************** Track 10 ***********************@

seq_108_9:
	.byte	KEYSH , seq_108_key+0
	.byte	W18
	.byte		VOICE , 88
	.byte	W01
	.byte		VOL   , 5*seq_108_mvl/mxv
	.byte	W01
	.byte		PAN   , c_v+0
	.byte	W01
	.byte		LFOS  , 10
	.byte	W01
	.byte		MODT  , mod_pan
	.byte	W02
	.byte	W05
	.byte		MOD   , 60
	.byte	W01
	.byte		N06   , Fn4 , v120
	.byte	W05
	.byte		VOL   , 10*seq_108_mvl/mxv
	.byte	W01
	.byte		N06   , Fs4 
	.byte	W06
	.byte		        Fn4 
	.byte	W06
	.byte		        Fs4 
	.byte	W03
	.byte		VOL   , 15*seq_108_mvl/mxv
	.byte	W03
	.byte		N06   , Fn4 
	.byte	W06
	.byte		        Fs4 
	.byte	W04
	.byte		VOL   , 20*seq_108_mvl/mxv
	.byte	W02
	.byte		N06   , Fn4 
	.byte	W04
	.byte		VOL   , 25*seq_108_mvl/mxv
	.byte	W02
	.byte		N06   , Fs4 
	.byte	W05
	.byte		VOL   , 30*seq_108_mvl/mxv
	.byte	W01
	.byte		N06   , Fn4 
	.byte	W06
	.byte		        Fs4 
	.byte	W01
	.byte		VOL   , 35*seq_108_mvl/mxv
	.byte	W03
	.byte		        40*seq_108_mvl/mxv
	.byte	W02
	.byte		N06   , Fn4 
	.byte	W03
	.byte		VOL   , 46*seq_108_mvl/mxv
	.byte	W03
	.byte		N06   , Fs4 
	.byte	W01
	.byte		VOL   , 40*seq_108_mvl/mxv
	.byte	W04
	.byte		        35*seq_108_mvl/mxv
	.byte	W01
	.byte		N06   , Fn4 
	.byte	W03
	.byte		VOL   , 30*seq_108_mvl/mxv
	.byte	W03
	.byte		N06   , Fs4 
	.byte	W01
	.byte		VOL   , 25*seq_108_mvl/mxv
	.byte	W03
	.byte		        20*seq_108_mvl/mxv
	.byte	W02
	.byte		N06   , Fn4 
	.byte	W03
	.byte		VOL   , 15*seq_108_mvl/mxv
	.byte	W03
	.byte		N06   , Fs4 
	.byte	W02
	.byte		VOL   , 10*seq_108_mvl/mxv
	.byte	W03
	.byte		        5*seq_108_mvl/mxv
	.byte	W01
	.byte	PEND
	.byte		N06   , As4 
	.byte	W05
	.byte		VOL   , 10*seq_108_mvl/mxv
	.byte	W01
	.byte		N06   , Bn4 
	.byte	W06
	.byte		        As4 
	.byte	W06
	.byte		        Bn4 
	.byte	W03
	.byte		VOL   , 15*seq_108_mvl/mxv
	.byte	W03
	.byte		N06   , As4 
	.byte	W06
	.byte		        Bn4 
	.byte	W04
	.byte		VOL   , 20*seq_108_mvl/mxv
	.byte	W02
	.byte		N06   , As4 
	.byte	W04
	.byte		VOL   , 25*seq_108_mvl/mxv
	.byte	W02
	.byte		N06   , Bn4 
	.byte	W05
	.byte		VOL   , 30*seq_108_mvl/mxv
	.byte	W01
	.byte		N06   , As4 
	.byte	W05
	.byte		VOL   , 35*seq_108_mvl/mxv
	.byte	W01
	.byte		N06   , Bn4 
	.byte	W04
	.byte		VOL   , 40*seq_108_mvl/mxv
	.byte	W02
	.byte		N06   , As4 
	.byte	W03
	.byte		VOL   , 46*seq_108_mvl/mxv
	.byte	W03
	.byte		N06   , Bn4 
	.byte	W01
	.byte		VOL   , 40*seq_108_mvl/mxv
	.byte	W04
	.byte		        35*seq_108_mvl/mxv
	.byte	W01
	.byte		N06   , As4 
	.byte	W03
	.byte		VOL   , 30*seq_108_mvl/mxv
	.byte	W03
	.byte		N06   , Bn4 
	.byte	W01
	.byte		VOL   , 25*seq_108_mvl/mxv
	.byte	W03
	.byte		        20*seq_108_mvl/mxv
	.byte	W02
	.byte		N06   , As4 
	.byte	W03
	.byte		VOL   , 15*seq_108_mvl/mxv
	.byte	W03
	.byte		N06   , Bn4 
	.byte	W02
	.byte		VOL   , 10*seq_108_mvl/mxv
	.byte	W03
	.byte		MOD   , 60
	.byte	W01
	.byte	PATT
	 .word	seq_108_9 + 0x16
	.byte		N06   , As4 , v120
	.byte	W05
	.byte		VOL   , 10*seq_108_mvl/mxv
	.byte	W01
	.byte		N06   , Bn4 
	.byte	W06
	.byte		        As4 
	.byte	W06
	.byte		        Bn4 
	.byte	W03
	.byte		VOL   , 15*seq_108_mvl/mxv
	.byte	W03
	.byte		N06   , As4 
	.byte	W06
	.byte		        Bn4 
	.byte	W04
	.byte		VOL   , 20*seq_108_mvl/mxv
	.byte	W02
	.byte		N06   , As4 
	.byte	W04
	.byte		VOL   , 25*seq_108_mvl/mxv
	.byte	W02
	.byte		N06   , Bn4 
	.byte	W05
	.byte		VOL   , 30*seq_108_mvl/mxv
	.byte	W01
	.byte		N06   , As4 
	.byte	W05
	.byte		VOL   , 35*seq_108_mvl/mxv
	.byte	W01
	.byte		N06   , Bn4 
	.byte	W04
	.byte		VOL   , 40*seq_108_mvl/mxv
	.byte	W02
	.byte		N06   , As4 
	.byte	W03
	.byte		VOL   , 46*seq_108_mvl/mxv
	.byte	W03
	.byte		N06   , Bn4 
	.byte	W01
	.byte		VOL   , 40*seq_108_mvl/mxv
	.byte	W04
	.byte		        35*seq_108_mvl/mxv
	.byte	W01
	.byte		N06   , As4 
	.byte	W03
	.byte		VOL   , 30*seq_108_mvl/mxv
	.byte	W03
	.byte		N06   , Bn4 
	.byte	W01
	.byte		VOL   , 25*seq_108_mvl/mxv
	.byte	W03
	.byte		        20*seq_108_mvl/mxv
	.byte	W02
	.byte		N06   , As4 
	.byte	W03
	.byte		VOL   , 15*seq_108_mvl/mxv
	.byte	W03
	.byte		N06   , Bn4 
	.byte	W02
	.byte		VOL   , 10*seq_108_mvl/mxv
	.byte	W02
	.byte		        40*seq_108_mvl/mxv
	.byte	W01
	.byte		VOICE , 88
	.byte	W01
	.byte	PEND
	.byte		N12   , Dn4 , v120
	.byte	W11
	.byte		VOICE , 80
	.byte	W01
	.byte		N12   , Dn4 , v060
	.byte	W10
	.byte		MOD   , 60
	.byte	W01
	.byte		VOICE , 88
	.byte	W01
	.byte		N12   , Cn4 , v120
	.byte	W11
	.byte		VOICE , 80
	.byte	W01
	.byte		N12   , Cn4 , v060
	.byte	W10
	.byte		MOD   , 0
	.byte	W01
	.byte		VOICE , 88
	.byte	W01
	.byte		N12   , An3 , v120
	.byte	W11
	.byte		VOICE , 80
	.byte	W01
	.byte		N12   , An3 , v060
	.byte	W10
	.byte		MOD   , 60
	.byte	W01
	.byte		VOICE , 88
	.byte	W01
	.byte		N12   , Fn3 , v120
	.byte	W12
	.byte		        An3 
	.byte	W12
	.byte	PEND
	.byte		N12   , An3 , v060
	.byte	W12
	.byte		        Fn3 , v120
	.byte	W12
	.byte		N24   , Fn3 , v060
	.byte	W24
	.byte		N06   , Dn3 , v120
	.byte	W06
	.byte		        Ds3 
	.byte	W06
	.byte		        Fn3 
	.byte	W08
	.byte		N04   , Fn3 , v060
	.byte	W04
	.byte		N06   , Ds3 , v120
	.byte	W08
	.byte		N04   , Ds3 , v060
	.byte	W04
	.byte		N06   , Cs3 , v120
	.byte	W08
	.byte		N04   , Cs3 , v060
	.byte	W04
	.byte	PEND
	.byte		N10   , Dn3 , v120
	.byte	W10
	.byte		N14   , Dn3 , v060
	.byte	W14
	.byte		N12   , Dn3 , v040
	.byte	W23
	.byte		MOD   , 0
	.byte	W01
	.byte		N06   , Dn4 , v100
	.byte	W06
	.byte		        Ds4 
	.byte	W06
	.byte		        Fn4 
	.byte	W08
	.byte		N04   , Fn4 , v060
	.byte	W04
	.byte		N06   , Ds4 , v100
	.byte	W08
	.byte		N04   , Ds4 , v060
	.byte	W04
	.byte		N06   , Cs4 , v100
	.byte	W08
	.byte		N04   , Cs4 , v060
	.byte	W04
	.byte	PEND
	.byte		N10   , Dn4 , v100
	.byte	W10
	.byte		N14   , Dn4 , v060
	.byte	W14
	.byte		N12   , Dn4 , v040
	.byte	W22
	.byte		MOD   , 120
	.byte	W01
	.byte		VOICE , 87
	.byte	W01
	.byte		N03   , Fn3 , v120
	.byte	W03
	.byte		        Fn3 , v060
	.byte	W03
	.byte		        Fs3 , v120
	.byte	W03
	.byte		        Fs3 , v060
	.byte	W03
	.byte		        As3 , v120
	.byte	W03
	.byte		        As3 , v060
	.byte	W03
	.byte		        Bn3 , v120
	.byte	W03
	.byte		        Bn3 , v060
	.byte	W03
	.byte		        Dn4 , v120
	.byte	W03
	.byte		        Dn4 , v060
	.byte	W03
	.byte		        Ds4 , v120
	.byte	W03
	.byte		        Ds4 , v060
	.byte	W03
	.byte		N02   , Fn4 , v120
	.byte	W03
	.byte		N03   , Fn4 , v060
	.byte	W03
	.byte		N02   , Fs4 , v120
	.byte	W03
	.byte		N03   , Fs4 , v060
	.byte	W01
	.byte		MOD   , 0
	.byte	W01
	.byte		VOICE , 88
	.byte	W01
	.byte	PATT
	 .word	seq_108_9 + 0x12F
	.byte		N12   , An3 , v060
	.byte	W12
	.byte		        Fn3 , v120
	.byte	W12
	.byte		N24   , Fn3 , v060
	.byte	W23
	.byte		MOD   , 0
	.byte	W01
	.byte		N06   , Dn3 , v120
	.byte	W06
	.byte		        Ds3 
	.byte	W06
	.byte		        Fn3 
	.byte	W08
	.byte		N04   , Fn3 , v060
	.byte	W04
	.byte		N06   , Ds3 , v120
	.byte	W08
	.byte		N04   , Ds3 , v060
	.byte	W04
	.byte		N06   , Cs3 , v120
	.byte	W08
	.byte		N04   , Cs3 , v060
	.byte	W04
	.byte		N10   , Dn3 , v120
	.byte	W10
	.byte		N14   , Dn3 , v060
	.byte	W14
	.byte		N12   , Dn3 , v040
	.byte	W24
	.byte		N06   , Dn4 , v100
	.byte	W06
	.byte		        Ds4 
	.byte	W06
	.byte		        Fn4 
	.byte	W08
	.byte		N04   , Fn4 , v060
	.byte	W04
	.byte		N06   , Ds4 , v100
	.byte	W08
	.byte		N04   , Ds4 , v060
	.byte	W04
	.byte		N06   , Cs4 , v100
	.byte	W08
	.byte		N04   , Cs4 , v060
	.byte	W04
	.byte		N10   , Dn4 , v100
	.byte	W10
	.byte		N14   , Dn4 , v060
	.byte	W14
	.byte		N12   , Dn4 , v040
	.byte	W22
	.byte		MOD   , 120
	.byte	W01
	.byte		VOICE , 87
	.byte	W01
	.byte		N03   , Fn3 , v120
	.byte	W03
	.byte		        Fn3 , v060
	.byte	W03
	.byte		        Fs3 , v120
	.byte	W03
	.byte		        Fs3 , v060
	.byte	W03
	.byte		        As3 , v120
	.byte	W03
	.byte		        As3 , v060
	.byte	W03
	.byte		        Bn3 , v120
	.byte	W03
	.byte		        Bn3 , v060
	.byte	W03
	.byte		        Fn4 , v120
	.byte	W03
	.byte		        Fn4 , v060
	.byte	W03
	.byte		        Fs4 , v120
	.byte	W03
	.byte		        Fs4 , v060
	.byte	W03
	.byte		N02   , Dn4 , v120
	.byte	W03
	.byte		N03   , Dn4 , v060
	.byte	W03
	.byte		N02   , Ds4 , v120
	.byte	W03
	.byte		N03   , Ds4 , v060
	.byte	W01
	.byte		MOD   , 0
	.byte	W01
	.byte		VOICE , 88
	.byte	W01
	.byte		N12   , Cs4 , v120
	.byte	W11
	.byte		VOICE , 80
	.byte	W01
	.byte		N12   , Cs4 , v060
	.byte	W10
	.byte		MOD   , 60
	.byte	W01
	.byte		VOICE , 88
	.byte	W01
	.byte		N12   , Bn3 , v120
	.byte	W11
	.byte		VOICE , 80
	.byte	W01
	.byte		N12   , Bn3 , v060
	.byte	W10
	.byte		MOD   , 0
	.byte	W01
	.byte		VOICE , 88
	.byte	W01
	.byte		N12   , Gs3 , v120
	.byte	W11
	.byte		VOICE , 80
	.byte	W01
	.byte		N12   , Gs3 , v060
	.byte	W10
	.byte		MOD   , 60
	.byte	W01
	.byte		VOICE , 88
	.byte	W01
	.byte		N12   , En3 , v120
	.byte	W12
	.byte		        Gs3 
	.byte	W12
	.byte		        Gs3 , v060
	.byte	W12
	.byte		        En3 , v120
	.byte	W12
	.byte		N24   , En3 , v060
	.byte	W24
	.byte		N06   , Cs3 , v120
	.byte	W06
	.byte		        Dn3 
	.byte	W06
	.byte		        En3 
	.byte	W08
	.byte		N04   , En3 , v060
	.byte	W04
	.byte		N06   , Dn3 , v120
	.byte	W08
	.byte		N04   , Dn3 , v060
	.byte	W04
	.byte		N06   , Cn3 , v120
	.byte	W08
	.byte		N04   , Cn3 , v060
	.byte	W04
	.byte		N10   , Cs3 , v120
	.byte	W10
	.byte		N14   , Cs3 , v060
	.byte	W14
	.byte		N12   , Cs3 , v040
	.byte	W23
	.byte		MOD   , 0
	.byte	W01
	.byte		N06   , Cs4 , v100
	.byte	W06
	.byte		        Dn4 
	.byte	W06
	.byte		        En4 
	.byte	W08
	.byte		N04   , En4 , v060
	.byte	W04
	.byte		N06   , Dn4 , v100
	.byte	W08
	.byte		N04   , Dn4 , v060
	.byte	W04
	.byte		N06   , Cn4 , v100
	.byte	W08
	.byte		N04   , Cn4 , v060
	.byte	W04
	.byte		N10   , Cs4 , v100
	.byte	W10
	.byte		N14   , Cs4 , v060
	.byte	W14
	.byte		N12   , Cs4 , v040
	.byte	W22
	.byte		MOD   , 120
	.byte	W01
	.byte		VOICE , 87
	.byte	W01
	.byte		N03   , En3 , v120
	.byte	W03
	.byte		        En3 , v060
	.byte	W03
	.byte		        Fn3 , v120
	.byte	W03
	.byte		        Fn3 , v060
	.byte	W03
	.byte		        An3 , v120
	.byte	W03
	.byte		        An3 , v060
	.byte	W03
	.byte		        As3 , v120
	.byte	W03
	.byte		        As3 , v060
	.byte	W03
	.byte		        Cs4 , v120
	.byte	W03
	.byte		        Cs4 , v060
	.byte	W03
	.byte		        Dn4 , v120
	.byte	W03
	.byte		        Dn4 , v060
	.byte	W03
	.byte		N02   , En4 , v120
	.byte	W03
	.byte		N03   , En4 , v060
	.byte	W03
	.byte		N02   , Fn4 , v120
	.byte	W03
	.byte		N03   , Fn4 , v060
	.byte	W02
	.byte		VOICE , 88
	.byte	W01
	.byte	PATT
	 .word	seq_108_9 + 0x12F
	.byte	PATT
	 .word	seq_108_9 + 0x169
	.byte	PATT
	 .word	seq_108_9 + 0x191
	.byte		N10   , Dn4 , v100
	.byte	W10
	.byte		N14   , Dn4 , v060
	.byte	W14
	.byte		N12   , Dn4 , v040
	.byte	W22
	.byte		MOD   , 120
	.byte	W01
	.byte		VOICE , 87
	.byte	W01
	.byte		N03   , Fn3 , v120
	.byte	W03
	.byte		        Fn3 , v060
	.byte	W03
	.byte		        Fs3 , v120
	.byte	W03
	.byte		        Fs3 , v060
	.byte	W03
	.byte		        As3 , v120
	.byte	W03
	.byte		        As3 , v060
	.byte	W03
	.byte		        Bn3 , v120
	.byte	W03
	.byte		        Bn3 , v060
	.byte	W03
	.byte		        Fn4 , v120
	.byte	W03
	.byte		        Fn4 , v060
	.byte	W03
	.byte		        Fs4 , v120
	.byte	W03
	.byte		        Fs4 , v060
	.byte	W03
	.byte		N02   , Dn4 , v120
	.byte	W03
	.byte		N03   , Dn4 , v060
	.byte	W03
	.byte		N02   , Ds4 , v120
	.byte	W03
	.byte		N03   , Ds4 , v060
	.byte	W03
	.byte	W04
	.byte		MOD   , 0
	.byte	W01
	.byte		VOL   , 40*seq_108_mvl/mxv
	.byte	W01
	.byte		N03   , Dn2 , v120
	.byte	W03
	.byte		        Dn2 , v060
	.byte	W03
	.byte		        Ds2 , v120
	.byte	W03
	.byte		        Ds2 , v060
	.byte	W03
	.byte		        Dn3 , v120
	.byte	W03
	.byte		        Dn3 , v060
	.byte	W03
	.byte		N08   , Ds3 , v120
	.byte	W08
	.byte		N03   , Ds3 , v060
	.byte	W10
	.byte		        Cn3 , v120
	.byte	W03
	.byte		        Cn3 , v060
	.byte	W03
	.byte		N08   , Dn3 , v120
	.byte	W08
	.byte		N03   , Dn3 , v060
	.byte	W10
	.byte		        As2 , v120
	.byte	W03
	.byte		        As2 , v060
	.byte	W03
	.byte		N08   , Cn3 , v120
	.byte	W08
	.byte		N03   , Cn3 , v060
	.byte	W10
	.byte		        An2 , v120
	.byte	W03
	.byte		        An2 , v060
	.byte	W03
	.byte	PEND
	.byte		N08   , As2 , v120
	.byte	W08
	.byte		N03   , As2 , v060
	.byte	W10
	.byte		        Gn2 , v120
	.byte	W03
	.byte		        Gn2 , v060
	.byte	W03
	.byte		N08   , An2 , v120
	.byte	W08
	.byte		N03   , An2 , v060
	.byte	W09
	.byte		VOICE , 88
	.byte	W01
	.byte		N03   , Fn4 , v120
	.byte	W03
	.byte		        Fn4 , v060
	.byte	W03
	.byte		N06   , Fs4 , v120
	.byte	W06
	.byte		N03   , Cn4 
	.byte	W03
	.byte		        Cn4 , v060
	.byte	W03
	.byte		        Fn3 , v120
	.byte	W03
	.byte		        Fn3 , v060
	.byte	W03
	.byte		        Fs3 , v120
	.byte	W03
	.byte		        Fs3 , v060
	.byte	W03
	.byte		        Gn3 , v120
	.byte	W03
	.byte		        Gn3 , v060
	.byte	W03
	.byte		        Dn3 , v120
	.byte	W03
	.byte		        Dn3 , v060
	.byte	W03
	.byte		        Cs3 , v120
	.byte	W03
	.byte		        Cs3 , v060
	.byte	W03
	.byte		        Cn3 , v120
	.byte	W03
	.byte		        Cn3 , v060
	.byte	W01
	.byte		VOL   , 10*seq_108_mvl/mxv
	.byte	W01
	.byte		MOD   , 60
	.byte	W01
	.byte	PEND
	.byte	PATT
	 .word	seq_108_9 + 0x16
	.byte		N06   , As4 , v120
	.byte	W05
	.byte		VOL   , 10*seq_108_mvl/mxv
	.byte	W01
	.byte		N06   , Bn4 
	.byte	W06
	.byte		        As4 
	.byte	W06
	.byte		        Bn4 
	.byte	W03
	.byte		VOL   , 15*seq_108_mvl/mxv
	.byte	W03
	.byte		N06   , As4 
	.byte	W06
	.byte		        Bn4 
	.byte	W04
	.byte		VOL   , 20*seq_108_mvl/mxv
	.byte	W02
	.byte		N06   , As4 
	.byte	W04
	.byte		VOL   , 25*seq_108_mvl/mxv
	.byte	W02
	.byte		N06   , Bn4 
	.byte	W05
	.byte		VOL   , 30*seq_108_mvl/mxv
	.byte	W01
	.byte		N06   , As4 
	.byte	W05
	.byte		VOL   , 35*seq_108_mvl/mxv
	.byte	W01
	.byte		N06   , Bn4 
	.byte	W04
	.byte		VOL   , 40*seq_108_mvl/mxv
	.byte	W02
	.byte		N06   , As4 
	.byte	W03
	.byte		VOL   , 46*seq_108_mvl/mxv
	.byte	W03
	.byte		N06   , Bn4 
	.byte	W01
	.byte		VOL   , 40*seq_108_mvl/mxv
	.byte	W04
	.byte		        35*seq_108_mvl/mxv
	.byte	W01
	.byte		N06   , As4 
	.byte	W03
	.byte		VOL   , 30*seq_108_mvl/mxv
	.byte	W03
	.byte		N06   , Bn4 
	.byte	W01
	.byte		VOL   , 25*seq_108_mvl/mxv
	.byte	W03
	.byte		        20*seq_108_mvl/mxv
	.byte	W02
	.byte		N06   , As4 
	.byte	W03
	.byte		VOL   , 15*seq_108_mvl/mxv
	.byte	W03
	.byte		N06   , Bn4 
	.byte	W02
	.byte		VOL   , 10*seq_108_mvl/mxv
	.byte	W04
	.byte	PEND
	.byte	PATT
	 .word	seq_108_9 + 0x3D8
	.byte	PATT
	 .word	seq_108_9 + 0x41D
	.byte		N06   , Fn4 , v120
	.byte	W06
	.byte		        Fs4 
	.byte	W06
	.byte		        Fn4 
	.byte	W06
	.byte		        Fs4 
	.byte	W03
	.byte		VOL   , 15*seq_108_mvl/mxv
	.byte	W03
	.byte		N06   , Fn4 
	.byte	W06
	.byte		        Fs4 
	.byte	W04
	.byte		VOL   , 20*seq_108_mvl/mxv
	.byte	W02
	.byte		N06   , Fn4 
	.byte	W04
	.byte		VOL   , 25*seq_108_mvl/mxv
	.byte	W02
	.byte		N06   , Fs4 
	.byte	W05
	.byte		VOL   , 30*seq_108_mvl/mxv
	.byte	W01
	.byte		N06   , Fn4 
	.byte	W06
	.byte		        Fs4 
	.byte	W01
	.byte		VOL   , 35*seq_108_mvl/mxv
	.byte	W03
	.byte		        40*seq_108_mvl/mxv
	.byte	W02
	.byte		N06   , Fn4 
	.byte	W03
	.byte		VOL   , 46*seq_108_mvl/mxv
	.byte	W03
	.byte		N06   , Fs4 
	.byte	W01
	.byte		VOL   , 40*seq_108_mvl/mxv
	.byte	W04
	.byte		        35*seq_108_mvl/mxv
	.byte	W01
	.byte		N06   , Fn4 
	.byte	W03
	.byte		VOL   , 30*seq_108_mvl/mxv
	.byte	W03
	.byte		N06   , Fs4 
	.byte	W01
	.byte		VOL   , 25*seq_108_mvl/mxv
	.byte	W03
	.byte		        20*seq_108_mvl/mxv
	.byte	W02
	.byte		N06   , Fn4 
	.byte	W03
	.byte		VOL   , 15*seq_108_mvl/mxv
	.byte	W03
	.byte		N06   , Fs4 
	.byte	W02
	.byte		VOL   , 10*seq_108_mvl/mxv
	.byte	W03
	.byte		        5*seq_108_mvl/mxv
	.byte	W01
	.byte	PATT
	 .word	seq_108_9 + 0xD0
	.byte		N12   , Ds4 , v120
	.byte	W11
	.byte		VOICE , 80
	.byte	W01
	.byte		N12   , Ds4 , v060
	.byte	W10
	.byte		MOD   , 60
	.byte	W01
	.byte		VOICE , 88
	.byte	W01
	.byte		N12   , Cs4 , v120
	.byte	W11
	.byte		VOICE , 80
	.byte	W01
	.byte		N12   , Cs4 , v060
	.byte	W10
	.byte		MOD   , 0
	.byte	W01
	.byte		VOICE , 88
	.byte	W01
	.byte		N12   , As3 , v120
	.byte	W11
	.byte		VOICE , 80
	.byte	W01
	.byte		N12   , As3 , v060
	.byte	W10
	.byte		MOD   , 60
	.byte	W01
	.byte		VOICE , 88
	.byte	W01
	.byte		N12   , Fs3 , v120
	.byte	W12
	.byte		        As3 
	.byte	W12
	.byte		        As3 , v060
	.byte	W12
	.byte		        Fs3 , v120
	.byte	W12
	.byte		N24   , Fs3 , v060
	.byte	W24
	.byte		N06   , Ds3 , v120
	.byte	W06
	.byte		        En3 
	.byte	W06
	.byte		        Fs3 
	.byte	W08
	.byte		N04   , Fs3 , v060
	.byte	W04
	.byte		N06   , En3 , v120
	.byte	W08
	.byte		N04   , En3 , v060
	.byte	W04
	.byte		N06   , Fs3 , v120
	.byte	W08
	.byte		N04   , Fs3 , v060
	.byte	W04
	.byte		N10   , Ds3 , v100
	.byte	W10
	.byte		N14   , Ds3 , v060
	.byte	W13
	.byte		VOL   , 15*seq_108_mvl/mxv
	.byte	W01
	.byte		N06   , Fs4 , v120
	.byte	W06
	.byte		        Gn4 
	.byte	W04
	.byte		VOL   , 20*seq_108_mvl/mxv
	.byte	W02
	.byte		N06   , Fs4 
	.byte	W04
	.byte		VOL   , 25*seq_108_mvl/mxv
	.byte	W02
	.byte		N06   , Gn4 
	.byte	W05
	.byte		VOL   , 30*seq_108_mvl/mxv
	.byte	W01
	.byte		N06   , Fs4 
	.byte	W06
	.byte		        Gn4 
	.byte	W01
	.byte		VOL   , 35*seq_108_mvl/mxv
	.byte	W03
	.byte		        40*seq_108_mvl/mxv
	.byte	W02
	.byte		N06   , Fs4 
	.byte	W03
	.byte		VOL   , 46*seq_108_mvl/mxv
	.byte	W03
	.byte		N06   , Gn4 
	.byte	W01
	.byte		VOL   , 40*seq_108_mvl/mxv
	.byte	W04
	.byte		        35*seq_108_mvl/mxv
	.byte	W01
	.byte		N06   , Fs4 
	.byte	W03
	.byte		VOL   , 30*seq_108_mvl/mxv
	.byte	W03
	.byte		N06   , Gn4 
	.byte	W01
	.byte		VOL   , 25*seq_108_mvl/mxv
	.byte	W03
	.byte		        20*seq_108_mvl/mxv
	.byte	W02
	.byte		N06   , Fs4 
	.byte	W03
	.byte		VOL   , 15*seq_108_mvl/mxv
	.byte	W03
	.byte		N06   , Gn4 
	.byte	W02
	.byte		VOL   , 10*seq_108_mvl/mxv
	.byte	W03
	.byte		        5*seq_108_mvl/mxv
	.byte	W01
	.byte		N06   , Bn4 
	.byte	W05
	.byte		VOL   , 10*seq_108_mvl/mxv
	.byte	W01
	.byte		N06   , Cn5 
	.byte	W06
	.byte		        Bn4 
	.byte	W06
	.byte		        Cn5 
	.byte	W03
	.byte		VOL   , 15*seq_108_mvl/mxv
	.byte	W03
	.byte		N06   , Bn4 
	.byte	W06
	.byte		        Cn5 
	.byte	W04
	.byte		VOL   , 20*seq_108_mvl/mxv
	.byte	W02
	.byte		N06   , Bn4 
	.byte	W04
	.byte		VOL   , 25*seq_108_mvl/mxv
	.byte	W02
	.byte		N06   , Cn5 
	.byte	W05
	.byte		VOL   , 30*seq_108_mvl/mxv
	.byte	W01
	.byte		N06   , Bn4 
	.byte	W05
	.byte		VOL   , 35*seq_108_mvl/mxv
	.byte	W01
	.byte		N06   , Cn5 
	.byte	W04
	.byte		VOL   , 40*seq_108_mvl/mxv
	.byte	W02
	.byte		N06   , Bn4 
	.byte	W03
	.byte		VOL   , 46*seq_108_mvl/mxv
	.byte	W03
	.byte		N06   , Cn5 
	.byte	W01
	.byte		VOL   , 40*seq_108_mvl/mxv
	.byte	W04
	.byte		        35*seq_108_mvl/mxv
	.byte	W01
	.byte		N06   , Bn4 
	.byte	W03
	.byte		VOL   , 30*seq_108_mvl/mxv
	.byte	W03
	.byte		N06   , Cn5 
	.byte	W01
	.byte		VOL   , 25*seq_108_mvl/mxv
	.byte	W03
	.byte		        20*seq_108_mvl/mxv
	.byte	W02
	.byte		N06   , Bn4 
	.byte	W03
	.byte		VOL   , 15*seq_108_mvl/mxv
	.byte	W03
	.byte		N06   , Cn5 
	.byte	W02
	.byte		VOL   , 10*seq_108_mvl/mxv
	.byte	W01
	.byte		MOD   , 0
	.byte	W01
	.byte		VOL   , 40*seq_108_mvl/mxv
	.byte	W01
	.byte		VOICE , 83
	.byte	W01
	.byte		N05   , Dn3 , v120
	.byte	W06
	.byte		N06   , Dn3 , v060
	.byte	W06
	.byte		N05   , Cn3 , v120
	.byte	W06
	.byte		N06   , Cn3 , v060
	.byte	W06
	.byte		N05   , Fn3 , v120
	.byte	W06
	.byte		N06   , Fn3 , v060
	.byte	W06
	.byte		N05   , Ds3 , v120
	.byte	W06
	.byte		N06   , Ds3 , v060
	.byte	W06
	.byte		N05   , Fn3 , v120
	.byte	W06
	.byte		N24   , Fn3 , v060
	.byte	W24
	.byte		N05   , Fn3 , v120
	.byte	W05
	.byte		N01   , Fn3 , v060
	.byte	W01
	.byte		N05   , Fs3 , v120
	.byte	W05
	.byte		N01   , Fs3 , v060
	.byte	W01
	.byte		N05   , Gs3 , v120
	.byte	W06
	.byte	PEND
	.byte		N12   , Gs3 , v060
	.byte	W12
	.byte		        Gs3 , v040
	.byte	W32
	.byte	W03
	.byte		VOICE , 88
	.byte	W01
	.byte		N04   , Gn3 , v120
	.byte	W05
	.byte		N01   , Gn3 , v060
	.byte	W01
	.byte		N04   , Fs3 , v120
	.byte	W05
	.byte		N01   , Fs3 , v060
	.byte	W01
	.byte		N04   , Gn3 , v120
	.byte	W05
	.byte		N01   , Gn3 , v060
	.byte	W01
	.byte		N04   , Gs3 , v120
	.byte	W05
	.byte		N01   , Gs3 , v060
	.byte	W01
	.byte		N04   , An3 , v120
	.byte	W05
	.byte		N01   , An3 , v060
	.byte	W01
	.byte		N04   , As3 , v120
	.byte	W05
	.byte		N01   , As3 , v060
	.byte	W01
	.byte		N04   , Bn3 , v120
	.byte	W05
	.byte		N01   , Bn3 , v060
	.byte	W01
	.byte		N04   , Cn4 , v120
	.byte	W04
	.byte		MOD   , 0
	.byte	W01
	.byte		N01   , Cn4 , v060
	.byte	W01
	.byte	PEND
	.byte		N03   , As3 , v120
	.byte	W04
	.byte		N02   , As3 , v060
	.byte	W02
	.byte		N03   , Gn3 , v120
	.byte	W04
	.byte		N02   , Gn3 , v060
	.byte	W02
	.byte		N03   , Dn3 , v120
	.byte	W04
	.byte		N02   , Dn3 , v060
	.byte	W02
	.byte		N03   , As2 , v120
	.byte	W04
	.byte		N02   , As2 , v060
	.byte	W01
	.byte		MOD   , 60
	.byte	W01
	.byte		N06   , Dn4 , v120
	.byte	W06
	.byte		        Dn4 , v060
	.byte	W06
	.byte		        Dn4 , v040
	.byte	W11
	.byte		VOL   , 30*seq_108_mvl/mxv
	.byte	W01
	.byte		N06   , Gs4 , v120
	.byte	W06
	.byte		        An4 
	.byte	W01
	.byte		VOL   , 35*seq_108_mvl/mxv
	.byte	W03
	.byte		        40*seq_108_mvl/mxv
	.byte	W02
	.byte		N06   , Gs4 
	.byte	W03
	.byte		VOL   , 46*seq_108_mvl/mxv
	.byte	W03
	.byte		N06   , An4 
	.byte	W01
	.byte		VOL   , 40*seq_108_mvl/mxv
	.byte	W04
	.byte		        35*seq_108_mvl/mxv
	.byte	W01
	.byte		N06   , Gs4 
	.byte	W03
	.byte		VOL   , 30*seq_108_mvl/mxv
	.byte	W03
	.byte		N06   , An4 
	.byte	W01
	.byte		VOL   , 25*seq_108_mvl/mxv
	.byte	W03
	.byte		        20*seq_108_mvl/mxv
	.byte	W02
	.byte		N06   , Gs4 
	.byte	W03
	.byte		VOL   , 15*seq_108_mvl/mxv
	.byte	W03
	.byte		N06   , An4 
	.byte	W02
	.byte		VOL   , 10*seq_108_mvl/mxv
	.byte	W03
	.byte		        5*seq_108_mvl/mxv
	.byte	W01
	.byte	PEND
	.byte		N06   , En4 
	.byte	W05
	.byte		VOL   , 10*seq_108_mvl/mxv
	.byte	W01
	.byte		N06   , Fn4 
	.byte	W06
	.byte		        En4 
	.byte	W06
	.byte		        Fn4 
	.byte	W03
	.byte		VOL   , 15*seq_108_mvl/mxv
	.byte	W03
	.byte		N06   , En4 
	.byte	W06
	.byte		        Fn4 
	.byte	W04
	.byte		VOL   , 20*seq_108_mvl/mxv
	.byte	W02
	.byte		N06   , En4 
	.byte	W04
	.byte		VOL   , 25*seq_108_mvl/mxv
	.byte	W02
	.byte		N06   , Fn4 
	.byte	W05
	.byte		VOL   , 30*seq_108_mvl/mxv
	.byte	W01
	.byte		N06   , Gn4 
	.byte	W05
	.byte		VOL   , 35*seq_108_mvl/mxv
	.byte	W01
	.byte		N06   , Gs4 
	.byte	W04
	.byte		VOL   , 40*seq_108_mvl/mxv
	.byte	W02
	.byte		N06   , Gn4 
	.byte	W03
	.byte		VOL   , 46*seq_108_mvl/mxv
	.byte	W03
	.byte		N06   , Gs4 
	.byte	W01
	.byte		VOL   , 40*seq_108_mvl/mxv
	.byte	W04
	.byte		        35*seq_108_mvl/mxv
	.byte	W01
	.byte		N06   , Gn4 
	.byte	W03
	.byte		VOL   , 30*seq_108_mvl/mxv
	.byte	W03
	.byte		N06   , Gs4 
	.byte	W01
	.byte		VOL   , 25*seq_108_mvl/mxv
	.byte	W03
	.byte		        20*seq_108_mvl/mxv
	.byte	W02
	.byte		N06   , Gn4 
	.byte	W03
	.byte		VOL   , 15*seq_108_mvl/mxv
	.byte	W03
	.byte		N06   , Gs4 
	.byte	W02
	.byte		VOL   , 10*seq_108_mvl/mxv
	.byte	W02
	.byte		        40*seq_108_mvl/mxv
	.byte	W01
	.byte		VOICE , 83
	.byte	W01
	.byte	PATT
	 .word	seq_108_9 + 0x649
	.byte	PATT
	 .word	seq_108_9 + 0x686
	.byte	PATT
	 .word	seq_108_9 + 0x6D5
	.byte		N06   , En4 , v120
	.byte	W05
	.byte		VOL   , 10*seq_108_mvl/mxv
	.byte	W01
	.byte		N06   , Fn4 
	.byte	W06
	.byte		        En4 
	.byte	W06
	.byte		        Fn4 
	.byte	W03
	.byte		VOL   , 15*seq_108_mvl/mxv
	.byte	W03
	.byte		N06   , En4 
	.byte	W06
	.byte		        Fn4 
	.byte	W04
	.byte		VOL   , 20*seq_108_mvl/mxv
	.byte	W02
	.byte		N06   , En4 
	.byte	W04
	.byte		VOL   , 25*seq_108_mvl/mxv
	.byte	W02
	.byte		N06   , Fn4 
	.byte	W05
	.byte		VOL   , 30*seq_108_mvl/mxv
	.byte	W01
	.byte		N06   , Gn4 
	.byte	W05
	.byte		VOL   , 35*seq_108_mvl/mxv
	.byte	W01
	.byte		N06   , Gs4 
	.byte	W04
	.byte		VOL   , 40*seq_108_mvl/mxv
	.byte	W02
	.byte		N06   , Gn4 
	.byte	W03
	.byte		VOL   , 46*seq_108_mvl/mxv
	.byte	W03
	.byte		N06   , Gs4 
	.byte	W01
	.byte		VOL   , 40*seq_108_mvl/mxv
	.byte	W04
	.byte		        35*seq_108_mvl/mxv
	.byte	W01
	.byte		N06   , Gn4 
	.byte	W03
	.byte		VOL   , 30*seq_108_mvl/mxv
	.byte	W03
	.byte		N06   , Gs4 
	.byte	W01
	.byte		VOL   , 25*seq_108_mvl/mxv
	.byte	W03
	.byte		        20*seq_108_mvl/mxv
	.byte	W02
	.byte		N06   , Gn4 
	.byte	W03
	.byte		VOL   , 15*seq_108_mvl/mxv
	.byte	W03
	.byte		N06   , Gs4 
	.byte	W02
	.byte		VOL   , 10*seq_108_mvl/mxv
	.byte	W03
	.byte		        40*seq_108_mvl/mxv
	.byte	W01
	.byte		N03   , Dn1 
	.byte	W04
	.byte		N02   , Dn1 , v060
	.byte	W02
	.byte		N03   , Gn1 , v120
	.byte	W04
	.byte		N02   , Gn1 , v060
	.byte	W02
	.byte		N03   , Cn2 , v120
	.byte	W04
	.byte		N02   , Cn2 , v060
	.byte	W02
	.byte		N03   , Fn2 , v120
	.byte	W04
	.byte		N02   , Fn2 , v060
	.byte	W02
	.byte		N03   , As2 , v120
	.byte	W04
	.byte		N02   , As2 , v060
	.byte	W02
	.byte		N03   , Ds3 , v120
	.byte	W04
	.byte		N02   , Ds3 , v060
	.byte	W02
	.byte		N03   , Gs3 , v120
	.byte	W04
	.byte		N02   , Gs3 , v060
	.byte	W02
	.byte		N03   , Cs4 , v120
	.byte	W04
	.byte		VOL   , 5*seq_108_mvl/mxv
	.byte		N02   , Cs4 , v060
	.byte	W01
	.byte		MOD   , 60
	.byte	W01
	.byte	PATT
	 .word	seq_108_9 + 0x16
	.byte	PATT
	 .word	seq_108_9 + 0x477
	.byte	PATT
	 .word	seq_108_9 + 0x16
	.byte		N06   , As4 , v120
	.byte	W05
	.byte		VOL   , 10*seq_108_mvl/mxv
	.byte	W01
	.byte		N06   , Bn4 
	.byte	W06
	.byte		        As4 
	.byte	W06
	.byte		        Bn4 
	.byte	W03
	.byte		VOL   , 15*seq_108_mvl/mxv
	.byte	W03
	.byte		N06   , As4 
	.byte	W06
	.byte		        Bn4 
	.byte	W04
	.byte		VOL   , 20*seq_108_mvl/mxv
	.byte	W02
	.byte		N06   , As4 
	.byte	W04
	.byte		VOL   , 25*seq_108_mvl/mxv
	.byte	W02
	.byte		N06   , Bn4 
	.byte	W05
	.byte		VOL   , 30*seq_108_mvl/mxv
	.byte	W01
	.byte		N06   , As4 
	.byte	W05
	.byte		VOL   , 35*seq_108_mvl/mxv
	.byte	W01
	.byte		N06   , Bn4 
	.byte	W04
	.byte		VOL   , 40*seq_108_mvl/mxv
	.byte	W02
	.byte		N06   , As4 
	.byte	W03
	.byte		VOL   , 46*seq_108_mvl/mxv
	.byte	W03
	.byte		N06   , Bn4 
	.byte	W01
	.byte		VOL   , 40*seq_108_mvl/mxv
	.byte	W04
	.byte		        35*seq_108_mvl/mxv
	.byte	W01
	.byte		N06   , As4 
	.byte	W03
	.byte		VOL   , 30*seq_108_mvl/mxv
	.byte	W03
	.byte		N06   , Bn4 
	.byte	W01
	.byte		VOL   , 25*seq_108_mvl/mxv
	.byte	W03
	.byte		        20*seq_108_mvl/mxv
	.byte	W02
	.byte		N06   , As4 
	.byte	W03
	.byte		VOL   , 15*seq_108_mvl/mxv
	.byte	W03
	.byte		N06   , Bn4 
	.byte	W02
	.byte		VOL   , 10*seq_108_mvl/mxv
	.byte	W01
	.byte		MOD   , 0
	.byte	W01
	.byte		VOICE , 88
	.byte	W01
	.byte		VOL   , 40*seq_108_mvl/mxv
	.byte	W01
	.byte	GOTO
	 .word	seq_108_9 + 0x12F
	.byte	FINE

@*********************** Track 11 ***********************@

seq_108_10:
	.byte	KEYSH , seq_108_key+0
	.byte	W18
	.byte		VOICE , 112
	.byte	W01
	.byte		VOL   , 56*seq_108_mvl/mxv
	.byte	W01
	.byte		PAN   , c_v+0
	.byte	W04
	.byte		N06   , Ds4 , v080
	.byte	W06
	.byte		N02   , En2 , v120
	.byte	W06
	.byte		N04   , Ds4 , v040
	.byte	W06
	.byte		N02   , En2 , v120
	.byte	W06
	.byte		        Gs2 , v060
	.byte	W06
	.byte		N11   , Fn3 
	.byte	W12
	.byte		N02   , En2 , v080
	.byte	W06
	.byte		N01   , Ds4 , v040
	.byte	W02
	.byte		N01
	.byte	W02
	.byte		N01
	.byte	W08
	.byte		N05   , Ds4 , v060
	.byte	W06
	.byte		N04   , En2 , v120
	.byte	W12
	.byte		N12   , Dn3 , v060
	.byte	W12
	.byte		N02   , Ds4 , v040
	.byte	W06
	.byte		N01
	.byte	W02
	.byte		N01
	.byte	W02
	.byte		N01
	.byte	W02
	.byte	PEND
	.byte	PATT
	 .word	seq_108_10 + 0x10
	.byte	PATT
	 .word	seq_108_10 + 0x10
	.byte	PATT
	 .word	seq_108_10 + 0x10
	.byte	PATT
	 .word	seq_108_10 + 0x10
	.byte	PATT
	 .word	seq_108_10 + 0x10
	.byte	PATT
	 .word	seq_108_10 + 0x10
	.byte	PATT
	 .word	seq_108_10 + 0x10
	.byte	PATT
	 .word	seq_108_10 + 0x10
	.byte	PATT
	 .word	seq_108_10 + 0x10
	.byte	PATT
	 .word	seq_108_10 + 0x10
	.byte	PATT
	 .word	seq_108_10 + 0x10
	.byte	PATT
	 .word	seq_108_10 + 0x10
	.byte	PATT
	 .word	seq_108_10 + 0x10
	.byte	PATT
	 .word	seq_108_10 + 0x10
	.byte	PATT
	 .word	seq_108_10 + 0x10
	.byte	PATT
	 .word	seq_108_10 + 0x10
	.byte	PATT
	 .word	seq_108_10 + 0x10
	.byte	PATT
	 .word	seq_108_10 + 0x10
	.byte	PATT
	 .word	seq_108_10 + 0x10
	.byte	PATT
	 .word	seq_108_10 + 0x10
	.byte	PATT
	 .word	seq_108_10 + 0x10
	.byte	PATT
	 .word	seq_108_10 + 0x10
	.byte	PATT
	 .word	seq_108_10 + 0x10
	.byte	PATT
	 .word	seq_108_10 + 0x10
	.byte	PATT
	 .word	seq_108_10 + 0x10
	.byte	PATT
	 .word	seq_108_10 + 0x10
	.byte	PATT
	 .word	seq_108_10 + 0x10
	.byte	PATT
	 .word	seq_108_10 + 0x10
	.byte	PATT
	 .word	seq_108_10 + 0x10
	.byte	PATT
	 .word	seq_108_10 + 0x10
	.byte		N02   , En2 , v120
	.byte	W06
	.byte		N04   , Ds4 , v040
	.byte	W06
	.byte		N02   , En2 , v120
	.byte	W06
	.byte		        Gs2 , v060
	.byte	W06
	.byte		N11   , Fn3 
	.byte	W12
	.byte		N06
	.byte	W06
	.byte		N01   , Ds4 , v040
	.byte	W02
	.byte		N01
	.byte	W02
	.byte		N01
	.byte	W08
	.byte		N05   , Dn3 , v060
	.byte	W06
	.byte		N04   , En2 , v120
	.byte	W12
	.byte		N12   , Dn3 , v060
	.byte	W12
	.byte		N06
	.byte	W06
	.byte		N01   , Ds4 , v040
	.byte	W02
	.byte		N01
	.byte	W02
	.byte		N01
	.byte	W02
	.byte		N02   , En2 , v120
	.byte	W06
	.byte		N04   , Ds4 , v040
	.byte	W06
	.byte		N02   , En2 , v120
	.byte	W06
	.byte		        Gs2 , v060
	.byte	W06
	.byte		N18   , Fn3 
	.byte	W18
	.byte		N01   , Ds4 , v040
	.byte	W02
	.byte		N01
	.byte	W02
	.byte		N01
	.byte	W08
	.byte		N05   , Ds4 , v060
	.byte	W06
	.byte		N04   , En2 , v120
	.byte	W12
	.byte		N12   , Dn3 , v060
	.byte	W12
	.byte		N02   , Ds4 , v040
	.byte	W06
	.byte		N01
	.byte	W02
	.byte		N01
	.byte	W02
	.byte		N01
	.byte	W02
	.byte	PEND
	.byte		N02   , En2 , v120
	.byte	W06
	.byte		N04   , Ds4 , v040
	.byte	W06
	.byte		N02   , En2 , v120
	.byte	W06
	.byte		        Gs2 , v060
	.byte	W06
	.byte		N11   , Fn3 
	.byte	W12
	.byte		N02   , En2 , v080
	.byte	W06
	.byte		N01   , Ds4 , v040
	.byte	W02
	.byte		N01
	.byte	W02
	.byte		N01
	.byte	W08
	.byte		N05   , Ds4 , v060
	.byte	W06
	.byte		N04   , En2 , v120
	.byte	W06
	.byte		N18   , Dn3 , v060
	.byte	W18
	.byte		N02   , Ds4 , v040
	.byte	W06
	.byte		N01
	.byte	W02
	.byte		N01
	.byte	W02
	.byte		N01
	.byte	W02
	.byte	PEND
	.byte	PATT
	 .word	seq_108_10 + 0x10
	.byte	PATT
	 .word	seq_108_10 + 0x13E
	.byte	PATT
	 .word	seq_108_10 + 0x10D
	.byte	PATT
	 .word	seq_108_10 + 0x13E
	.byte	PATT
	 .word	seq_108_10 + 0x10
	.byte		N02   , En2 , v120
	.byte	W06
	.byte		N04   , Ds4 , v040
	.byte	W06
	.byte		N02   , En2 , v120
	.byte	W06
	.byte		        Gs2 , v060
	.byte	W06
	.byte		N11   , Fn3 
	.byte	W12
	.byte		N02   , En2 , v080
	.byte	W06
	.byte		N01   , Ds4 , v040
	.byte	W02
	.byte		N01
	.byte	W02
	.byte		N01
	.byte	W08
	.byte		N05   , Ds4 , v060
	.byte	W06
	.byte		N04   , En2 , v120
	.byte	W06
	.byte		N12   , Dn3 , v060
	.byte	W12
	.byte		N05   , Ds4 
	.byte	W06
	.byte		N02   , Ds4 , v040
	.byte	W06
	.byte		N05   , Ds4 , v060
	.byte	W06
	.byte		N02   , En2 , v120
	.byte	W06
	.byte		N05   , Fn3 , v060
	.byte	W06
	.byte		N02   , En2 , v120
	.byte	W06
	.byte		        Gs2 , v060
	.byte	W06
	.byte		N11   , Fn3 
	.byte	W12
	.byte		N02   , En2 , v080
	.byte	W06
	.byte		N01   , Ds4 , v040
	.byte	W02
	.byte		N01
	.byte	W02
	.byte		N01
	.byte	W02
	.byte	PATT
	 .word	seq_108_10 + 0x10
	.byte	PATT
	 .word	seq_108_10 + 0x10
	.byte	PATT
	 .word	seq_108_10 + 0x10
	.byte	PATT
	 .word	seq_108_10 + 0x10
	.byte	GOTO
	 .word	seq_108_10 + 0x54
	.byte	FINE

@******************************************************@

	.align	2

seq_108:
	.byte	11	@ NumTrks
	.byte	0	@ NumBlks
	.byte	seq_108_pri	@ Priority
	.byte	seq_108_rev	@ Reverb

	.word	seq_108_grp

	.word	seq_108_0
	.word	seq_108_1
	.word	seq_108_2
	.word	seq_108_3
	.word	seq_108_4
	.word	seq_108_5
	.word	seq_108_6
	.word	seq_108_7
	.word	seq_108_8
	.word	seq_108_9
	.word	seq_108_10

	.end
