@ File generated by m4a2s Song-Module
	.include "MPlayDef.s"

	.equ	seq_109_grp, bank_014
	.equ	seq_109_pri, 50
	.equ	seq_109_rev, 188
	.equ	seq_109_mvl, 127
	.equ	seq_109_key, 0

	.section .rodata
	.global	seq_109
	.align	2

@*********************** Track 01 ***********************@

seq_109_0:
	.byte	KEYSH , seq_109_key+0
	.byte	TEMPO , 240/2
	.byte		VOICE , 127
	.byte	W01
	.byte		VOL   , 70*seq_109_mvl/mxv
	.byte	W01
	.byte		PAN   , c_v+0
	.byte	W01
	.byte		LFOS  , 0
	.byte	W01
	.byte		MODT  , mod_vib
	.byte	W01
	.byte		LFODL , 0
	.byte	W07
	.byte	TEMPO , 134/2
	.byte	W12
	.byte		N03   , Cn4 , v080
	.byte		N24   , Cs5 , v120
	.byte	W12
	.byte		N03   , Ds4 , v080
	.byte	W12
	.byte		        Cn4 , v100
	.byte	W12
	.byte		        Ds4 , v080
	.byte	W06
	.byte		        Fn7 , v100
	.byte	W06
	.byte		        Cn4 , v080
	.byte	W12
	.byte		        Ds4 
	.byte	W12
	.byte		        Cn4 , v100
	.byte	W12
	.byte		        Ds4 , v080
	.byte	W12
	.byte	PEND
	.byte		N03   , Cn4 , v080
	.byte	W12
	.byte		        Ds4 
	.byte	W12
	.byte		        Cn4 , v100
	.byte	W12
	.byte		        Ds4 , v080
	.byte	W06
	.byte		        Fn7 , v100
	.byte	W06
	.byte		        Cn4 , v080
	.byte	W12
	.byte		        Ds4 
	.byte	W12
	.byte		        Cn4 , v100
	.byte	W12
	.byte		        Ds4 , v080
	.byte	W12
	.byte	PEND
	.byte	PATT
	 .word	seq_109_0 + 0x39
	.byte	PATT
	 .word	seq_109_0 + 0x39
	.byte	PATT
	 .word	seq_109_0 + 0x19
	.byte	PATT
	 .word	seq_109_0 + 0x39
	.byte	PATT
	 .word	seq_109_0 + 0x39
	.byte	PATT
	 .word	seq_109_0 + 0x39
	.byte	PATT
	 .word	seq_109_0 + 0x19
	.byte	PATT
	 .word	seq_109_0 + 0x39
	.byte	PATT
	 .word	seq_109_0 + 0x39
	.byte	PATT
	 .word	seq_109_0 + 0x39
	.byte	PATT
	 .word	seq_109_0 + 0x19
	.byte	PATT
	 .word	seq_109_0 + 0x39
	.byte	PATT
	 .word	seq_109_0 + 0x39
	.byte	PATT
	 .word	seq_109_0 + 0x39
	.byte	PATT
	 .word	seq_109_0 + 0x19
	.byte	PATT
	 .word	seq_109_0 + 0x39
	.byte	PATT
	 .word	seq_109_0 + 0x39
	.byte	PATT
	 .word	seq_109_0 + 0x39
	.byte	PATT
	 .word	seq_109_0 + 0x19
	.byte	PATT
	 .word	seq_109_0 + 0x39
	.byte	GOTO
	 .word	seq_109_0 + 0x54
	.byte	FINE

@*********************** Track 02 ***********************@

seq_109_1:
	.byte	KEYSH , seq_109_key+0
	.byte		VOICE , 10
	.byte	W01
	.byte		VOL   , 64*seq_109_mvl/mxv
	.byte	W01
	.byte		PAN   , c_v+0
	.byte	W01
	.byte		BENDR , 12
	.byte	W01
	.byte		MODT  , mod_vib
	.byte	W01
	.byte		LFODL , 0
	.byte	W19
	.byte	W23
	.byte		BEND  , c_v-8
	.byte	W01
	.byte		N06   , Fs4 , v120
	.byte	W01
	.byte		BEND  , c_v-4
	.byte	W01
	.byte		        c_v+0
	.byte	W04
	.byte		N06   , Fs4 , v060
	.byte	W06
	.byte		        Gn4 , v120
	.byte	W06
	.byte		        Gn4 , v060
	.byte	W06
	.byte		        An4 , v120
	.byte	W06
	.byte		        An4 , v060
	.byte	W06
	.byte		        Fs4 , v120
	.byte	W06
	.byte		        Fs4 , v060
	.byte	W06
	.byte		        Fs4 , v040
	.byte	W06
	.byte		        Fs4 , v020
	.byte	W05
	.byte		BEND  , c_v-4
	.byte	W01
	.byte		N06   , Dn5 , v120
	.byte	W02
	.byte		BEND  , c_v+0
	.byte	W04
	.byte		N06   , Dn5 , v060
	.byte	W06
	.byte	PEND
	.byte		N06   , Dn5 , v040
	.byte	W06
	.byte		        Dn5 , v020
	.byte	W06
	.byte		        Dn5 , v120
	.byte	W06
	.byte		        Dn5 , v060
	.byte	W06
	.byte		        Cn5 , v120
	.byte	W06
	.byte		        Cn5 , v060
	.byte	W06
	.byte		        Dn5 , v120
	.byte	W06
	.byte		        Dn5 , v060
	.byte	W06
	.byte		        Cn5 , v120
	.byte	W06
	.byte		        Cn5 , v060
	.byte	W06
	.byte		        Bn4 , v120
	.byte	W06
	.byte		        Bn4 , v060
	.byte	W06
	.byte		        Gn4 , v120
	.byte	W06
	.byte		        Gn4 , v060
	.byte	W06
	.byte		        An4 , v120
	.byte	W06
	.byte		        An4 , v060
	.byte	W06
	.byte	PEND
	.byte	W96
	.byte	W96
	.byte	PATT
	 .word	seq_109_1 + 0x14
	.byte		N06   , Dn5 , v040
	.byte	W06
	.byte		        Dn5 , v020
	.byte	W06
	.byte		        Dn5 , v120
	.byte	W06
	.byte		        Dn5 , v060
	.byte	W06
	.byte		        Cn5 , v120
	.byte	W06
	.byte		        Cn5 , v060
	.byte	W06
	.byte		        Bn4 , v120
	.byte	W06
	.byte		        Bn4 , v060
	.byte	W06
	.byte		        Cn5 , v120
	.byte	W06
	.byte		        Cn5 , v060
	.byte	W06
	.byte		        Dn5 , v120
	.byte	W06
	.byte		        Dn5 , v060
	.byte	W06
	.byte		        En5 , v120
	.byte	W06
	.byte		        En5 , v060
	.byte	W06
	.byte		        Dn5 , v100
	.byte	W06
	.byte		        Dn5 , v060
	.byte	W03
	.byte		BEND  , c_v+7
	.byte	W01
	.byte		        c_v+27
	.byte	W01
	.byte		        c_v+39
	.byte	W01
	.byte	PEND
	.byte	W24
	.byte		        c_v+0
	.byte	W72
	.byte	W96
	.byte	PATT
	 .word	seq_109_1 + 0x14
	.byte	PATT
	 .word	seq_109_1 + 0x4C
	.byte	W96
	.byte	W96
	.byte	PATT
	 .word	seq_109_1 + 0x14
	.byte	PATT
	 .word	seq_109_1 + 0x85
	.byte	W24
	.byte		BEND  , c_v+0
	.byte	W72
	.byte	W96
	.byte	W04
	.byte		N02   , Ds4 , v080
	.byte	W02
	.byte		        Ds5 , v040
	.byte	W10
	.byte		        Fn4 , v080
	.byte	W02
	.byte		        Fn5 , v040
	.byte	W10
	.byte		        Gn4 , v080
	.byte	W02
	.byte		        Gn5 , v040
	.byte	W10
	.byte		        Gs4 , v080
	.byte	W02
	.byte		        Gs5 , v040
	.byte	W10
	.byte		        As4 , v080
	.byte	W02
	.byte		        As5 , v040
	.byte	W10
	.byte		        Cn5 , v080
	.byte	W02
	.byte		        Cn6 , v040
	.byte	W10
	.byte		        Dn5 , v080
	.byte	W02
	.byte		        Dn6 , v040
	.byte	W10
	.byte		        Ds5 , v080
	.byte	W02
	.byte		        Ds6 , v040
	.byte	W06
	.byte	W04
	.byte		        Dn5 , v080
	.byte	W02
	.byte		        Dn6 , v040
	.byte	W10
	.byte		        En5 , v080
	.byte	W02
	.byte		        En6 , v040
	.byte	W10
	.byte		        Fs5 , v080
	.byte	W02
	.byte		        Fs6 , v040
	.byte	W10
	.byte		        Gn5 , v080
	.byte	W02
	.byte		        Gn6 , v040
	.byte	W10
	.byte		        An5 , v080
	.byte	W02
	.byte		        An6 , v040
	.byte	W42
	.byte	W96
	.byte	W96
	.byte	PATT
	 .word	seq_109_1 + 0x14
	.byte	PATT
	 .word	seq_109_1 + 0x4C
	.byte	GOTO
	 .word	seq_109_1 + 0x7E
	.byte	FINE

@*********************** Track 03 ***********************@

seq_109_2:
	.byte	KEYSH , seq_109_key+0
	.byte		VOICE , 51
	.byte	W01
	.byte		VOL   , 41*seq_109_mvl/mxv
	.byte	W01
	.byte		PAN   , c_v+0
	.byte	W01
	.byte		LFOS  , 60
	.byte	W01
	.byte		MODT  , mod_pan
	.byte	W01
	.byte		LFODL , 0
	.byte	W19
	.byte	W23
	.byte		MOD   , 60
	.byte	W01
	.byte		N02   , Fs3 , v120
	.byte		N02   , Dn4 
	.byte	W03
	.byte		N03   , Fs3 , v060
	.byte		N03   , Dn4 
	.byte	W03
	.byte		N02   , Fs3 , v040
	.byte		N02   , Dn4 
	.byte	W06
	.byte		        Gn3 , v120
	.byte		N02   , En4 
	.byte	W03
	.byte		N03   , Gn3 , v060
	.byte		N03   , En4 
	.byte	W03
	.byte		N02   , Gn3 , v040
	.byte		N02   , En4 
	.byte	W06
	.byte		        An3 , v120
	.byte		N02   , Fs4 
	.byte	W03
	.byte		N03   , An3 , v060
	.byte		N03   , Fs4 
	.byte	W03
	.byte		N02   , An3 , v040
	.byte		N02   , Fs4 
	.byte	W06
	.byte		        Fs3 , v120
	.byte		N02   , Dn4 
	.byte	W03
	.byte		N03   , Fs3 , v060
	.byte		N03   , Dn4 
	.byte	W03
	.byte		N02   , Fs3 , v040
	.byte		N02   , Dn4 
	.byte	W18
	.byte		        Dn4 , v120
	.byte		N02   , An4 
	.byte	W03
	.byte		N03   , Dn4 , v060
	.byte		N03   , An4 
	.byte	W03
	.byte		N02   , Dn4 , v040
	.byte		N02   , An4 
	.byte	W06
	.byte	W12
	.byte		N02   , Dn4 , v120
	.byte		N02   , An4 
	.byte	W03
	.byte		N03   , Dn4 , v060
	.byte		N03   , An4 
	.byte	W03
	.byte		N02   , Dn4 , v040
	.byte		N02   , An4 
	.byte	W06
	.byte		        Cn4 , v120
	.byte		N02   , Gn4 
	.byte	W03
	.byte		N03   , Cn4 , v060
	.byte		N03   , Gn4 
	.byte	W03
	.byte		N02   , Cn4 , v040
	.byte		N02   , Gn4 
	.byte	W06
	.byte		        Dn4 , v120
	.byte		N02   , An4 
	.byte	W03
	.byte		N03   , Dn4 , v060
	.byte		N03   , An4 
	.byte	W03
	.byte		N02   , Dn4 , v040
	.byte		N02   , An4 
	.byte	W06
	.byte		        Cn4 , v120
	.byte		N02   , Gn4 
	.byte	W03
	.byte		N03   , Cn4 , v060
	.byte		N03   , Gn4 
	.byte	W03
	.byte		N02   , Cn4 , v040
	.byte		N02   , Gn4 
	.byte	W06
	.byte		        Bn3 , v120
	.byte		N02   , Gn4 
	.byte	W03
	.byte		N03   , Bn3 , v060
	.byte		N03   , Gn4 
	.byte	W03
	.byte		N02   , Bn3 , v040
	.byte		N02   , Gn4 
	.byte	W06
	.byte		        Gn3 , v120
	.byte		N02   , En4 
	.byte	W03
	.byte		N03   , Gn3 , v060
	.byte		N03   , En4 
	.byte	W03
	.byte		N02   , Gn3 , v040
	.byte		N02   , En4 
	.byte	W06
	.byte		        An3 , v120
	.byte		N02   , Fs4 
	.byte	W03
	.byte		N03   , An3 , v060
	.byte		N03   , Fs4 
	.byte	W03
	.byte		N02   , An3 , v040
	.byte		N02   , Fs4 
	.byte	W06
	.byte	PEND
	.byte	W96
	.byte	W96
	.byte	W24
	.byte		N02   , Fs3 , v120
	.byte		N02   , Dn4 
	.byte	W03
	.byte		N03   , Fs3 , v060
	.byte		N03   , Dn4 
	.byte	W03
	.byte		N02   , Fs3 , v040
	.byte		N02   , Dn4 
	.byte	W06
	.byte		        Gn3 , v120
	.byte		N02   , En4 
	.byte	W03
	.byte		N03   , Gn3 , v060
	.byte		N03   , En4 
	.byte	W03
	.byte		N02   , Gn3 , v040
	.byte		N02   , En4 
	.byte	W06
	.byte		        An3 , v120
	.byte		N02   , Fs4 
	.byte	W03
	.byte		N03   , An3 , v060
	.byte		N03   , Fs4 
	.byte	W03
	.byte		N02   , An3 , v040
	.byte		N02   , Fs4 
	.byte	W06
	.byte		        Fs3 , v120
	.byte		N02   , Dn4 
	.byte	W03
	.byte		N03   , Fs3 , v060
	.byte		N03   , Dn4 
	.byte	W03
	.byte		N02   , Fs3 , v040
	.byte		N02   , Dn4 
	.byte	W18
	.byte		        Dn4 , v120
	.byte		N02   , An4 
	.byte	W03
	.byte		N03   , Dn4 , v060
	.byte		N03   , An4 
	.byte	W03
	.byte		N02   , Dn4 , v040
	.byte		N02   , An4 
	.byte	W06
	.byte	PEND
	.byte	W12
	.byte		N02   , Dn4 , v120
	.byte		N02   , An4 
	.byte	W03
	.byte		N03   , Dn4 , v060
	.byte		N03   , An4 
	.byte	W03
	.byte		N02   , Dn4 , v040
	.byte		N02   , An4 
	.byte	W06
	.byte		        Cn4 , v120
	.byte		N02   , Gn4 
	.byte	W03
	.byte		N03   , Cn4 , v060
	.byte		N03   , Gn4 
	.byte	W03
	.byte		N02   , Cn4 , v040
	.byte		N02   , Gn4 
	.byte	W06
	.byte		        Bn3 , v120
	.byte		N02   , Gn4 
	.byte	W03
	.byte		N03   , Bn3 , v060
	.byte		N03   , Gn4 
	.byte	W03
	.byte		N02   , Bn3 , v040
	.byte		N02   , Gn4 
	.byte	W06
	.byte		        Cn4 , v120
	.byte		N02   , Gn4 
	.byte	W03
	.byte		N03   , Cn4 , v060
	.byte		N03   , Gn4 
	.byte	W03
	.byte		N02   , Cn4 , v040
	.byte		N02   , Gn4 
	.byte	W06
	.byte		        Dn4 , v120
	.byte		N02   , An4 
	.byte	W03
	.byte		N03   , Dn4 , v060
	.byte		N03   , An4 
	.byte	W03
	.byte		N02   , Dn4 , v040
	.byte		N02   , An4 
	.byte	W06
	.byte		        En4 , v120
	.byte		N02   , Cn5 
	.byte	W03
	.byte		N03   , En4 , v060
	.byte		N03   , Cn5 
	.byte	W03
	.byte		N02   , En4 , v040
	.byte		N02   , Cn5 
	.byte	W06
	.byte		        Dn4 , v120
	.byte		N02   , An4 
	.byte	W03
	.byte		N03   , Dn4 , v060
	.byte		N03   , An4 
	.byte	W03
	.byte		N02   , Dn4 , v040
	.byte		N02   , An4 
	.byte	W06
	.byte	PEND
	.byte	W96
	.byte	W96
	.byte	PATT
	 .word	seq_109_2 + 0xEA
	.byte	PATT
	 .word	seq_109_2 + 0x6E
	.byte	W96
	.byte	W96
	.byte	PATT
	 .word	seq_109_2 + 0xEA
	.byte	PATT
	 .word	seq_109_2 + 0x142
	.byte	W96
	.byte	W96
	.byte	W07
	.byte		N02   , Ds4 , v080
	.byte	W02
	.byte		        Ds5 , v060
	.byte	W10
	.byte		        Fn4 , v080
	.byte	W02
	.byte		        Fn5 , v060
	.byte	W10
	.byte		        Gn4 , v080
	.byte	W02
	.byte		        Gn5 , v060
	.byte	W10
	.byte		        Gs4 , v080
	.byte	W02
	.byte		        Gs5 , v060
	.byte	W10
	.byte		        As4 , v080
	.byte	W02
	.byte		        As5 , v060
	.byte	W10
	.byte		        Cn5 , v080
	.byte	W02
	.byte		        Cn6 , v060
	.byte	W10
	.byte		        Dn5 , v080
	.byte	W02
	.byte		        Dn6 , v060
	.byte	W10
	.byte		        Ds5 , v080
	.byte	W02
	.byte		        Ds6 , v060
	.byte	W03
	.byte	W07
	.byte		        Dn5 , v080
	.byte	W02
	.byte		        Dn6 , v060
	.byte	W10
	.byte		        En5 , v080
	.byte	W02
	.byte		        En6 , v060
	.byte	W10
	.byte		        Fs5 , v080
	.byte	W02
	.byte		        Fs6 , v060
	.byte	W10
	.byte		        Gn5 , v080
	.byte	W02
	.byte		        Gn6 , v060
	.byte	W10
	.byte		        An5 , v080
	.byte	W02
	.byte		        An6 , v060
	.byte	W36
	.byte	W03
	.byte	W96
	.byte		        Dn4 , v120
	.byte	W02
	.byte		        Dn5 , v060
	.byte	W02
	.byte		        Dn6 , v040
	.byte	W02
	.byte		        Dn4 , v100
	.byte	W02
	.byte		        Dn5 , v040
	.byte	W02
	.byte		        Dn6 , v020
	.byte	W02
	.byte		        Dn4 , v080
	.byte	W02
	.byte		        Dn5 , v040
	.byte	W02
	.byte		        Dn6 , v020
	.byte	W02
	.byte		        Dn4 , v060
	.byte	W02
	.byte		        Dn5 , v040
	.byte	W02
	.byte		        Dn6 , v020
	.byte	W02
	.byte		        Cs4 , v120
	.byte	W02
	.byte		        Cs5 , v060
	.byte	W02
	.byte		        Cs6 , v040
	.byte	W02
	.byte		        Cs4 , v100
	.byte	W02
	.byte		        Cs5 , v040
	.byte	W02
	.byte		        Cs6 , v020
	.byte	W02
	.byte		        Cs4 , v080
	.byte	W02
	.byte		        Cs5 , v040
	.byte	W02
	.byte		        Cs6 , v020
	.byte	W02
	.byte		        Cs4 , v060
	.byte	W02
	.byte		        Cs5 , v040
	.byte	W02
	.byte		        Cs6 , v020
	.byte	W02
	.byte		        Dn4 , v120
	.byte	W02
	.byte		        Dn5 , v060
	.byte	W02
	.byte		        Dn6 , v040
	.byte	W02
	.byte		        Dn4 , v100
	.byte	W02
	.byte		        Dn5 , v040
	.byte	W02
	.byte		        Dn6 , v020
	.byte	W02
	.byte		        Dn4 , v080
	.byte	W02
	.byte		        Dn5 , v040
	.byte	W02
	.byte		        Dn6 , v020
	.byte	W02
	.byte		        Dn4 , v060
	.byte	W02
	.byte		        Dn5 , v040
	.byte	W02
	.byte		        Dn6 , v020
	.byte	W02
	.byte		        En4 , v120
	.byte	W02
	.byte		        En5 , v060
	.byte	W02
	.byte		        En6 , v040
	.byte	W02
	.byte		        En4 , v100
	.byte	W02
	.byte		        En5 , v040
	.byte	W02
	.byte		        En6 , v020
	.byte	W02
	.byte		        En4 , v080
	.byte	W02
	.byte		        En5 , v040
	.byte	W02
	.byte		        En6 , v020
	.byte	W02
	.byte		        En4 , v060
	.byte	W02
	.byte		        En5 , v040
	.byte	W02
	.byte		        En6 , v020
	.byte	W02
	.byte	PATT
	 .word	seq_109_2 + 0xEA
	.byte	PATT
	 .word	seq_109_2 + 0x6E
	.byte	GOTO
	 .word	seq_109_2 + 0xE8
	.byte	FINE

@*********************** Track 04 ***********************@

seq_109_3:
	.byte	KEYSH , seq_109_key+0
	.byte	W06
	.byte		VOICE , 56
	.byte	W01
	.byte		VOL   , 59*seq_109_mvl/mxv
	.byte	W01
	.byte		PAN   , c_v+16
	.byte	W01
	.byte		LFOS  , 0
	.byte	W01
	.byte		MODT  , mod_pan
	.byte	W01
	.byte		LFODL , 0
	.byte	W13
	.byte		N03   , Dn4 , v100
	.byte	W04
	.byte		        Dn4 , v060
	.byte	W92
	.byte	PEND
	.byte	W96
	.byte	W12
	.byte		N03   , Dn4 , v120
	.byte	W04
	.byte		        Dn4 , v060
	.byte	W08
	.byte		        En4 , v120
	.byte	W04
	.byte		        En4 , v060
	.byte	W08
	.byte		        Fs4 , v120
	.byte	W04
	.byte		        Fs4 , v060
	.byte	W08
	.byte		        Gn4 , v120
	.byte	W04
	.byte		        Gn4 , v060
	.byte	W08
	.byte		        An4 , v120
	.byte	W04
	.byte		        An4 , v060
	.byte	W08
	.byte		        Bn4 , v120
	.byte	W04
	.byte		        Bn4 , v060
	.byte	W08
	.byte		        Cs5 , v120
	.byte	W04
	.byte		        Cs5 , v060
	.byte	W08
	.byte	PEND
	.byte		N03   , Dn5 , v120
	.byte	W04
	.byte		        Dn5 , v060
	.byte	W08
	.byte		        Dn5 , v120
	.byte	W04
	.byte		        Dn5 , v060
	.byte	W08
	.byte		        Cn5 , v120
	.byte	W04
	.byte		        Cn5 , v060
	.byte	W08
	.byte		        Bn4 , v120
	.byte	W04
	.byte		        Bn4 , v060
	.byte	W08
	.byte		        An4 , v120
	.byte	W04
	.byte		        An4 , v060
	.byte	W08
	.byte		        Gn4 , v120
	.byte	W04
	.byte		        Gn4 , v060
	.byte	W08
	.byte		        Fs4 , v120
	.byte	W04
	.byte		        Fs4 , v060
	.byte	W08
	.byte		        En4 , v120
	.byte	W04
	.byte		        En4 , v060
	.byte	W08
	.byte	PEND
	.byte	PATT
	 .word	seq_109_3 + 0x15
	.byte	W96
	.byte	PATT
	 .word	seq_109_3 + 0x1E
	.byte	PATT
	 .word	seq_109_3 + 0x4B
	.byte	PATT
	 .word	seq_109_3 + 0x15
	.byte	W96
	.byte	PATT
	 .word	seq_109_3 + 0x1E
	.byte	PATT
	 .word	seq_109_3 + 0x4B
	.byte	PATT
	 .word	seq_109_3 + 0x15
	.byte	W96
	.byte	PATT
	 .word	seq_109_3 + 0x1E
	.byte	PATT
	 .word	seq_109_3 + 0x4B
	.byte	W96
	.byte	W96
	.byte	W12
	.byte		N03   , Fn3 , v060
	.byte	W04
	.byte		N03
	.byte	W08
	.byte		        Gn3 
	.byte	W04
	.byte		N03
	.byte	W08
	.byte		        An3 
	.byte	W04
	.byte		N03
	.byte	W08
	.byte		        Bn3 , v080
	.byte	W04
	.byte		        Bn3 , v060
	.byte	W08
	.byte		        Cn4 , v080
	.byte	W04
	.byte		        Cn4 , v060
	.byte	W08
	.byte		        Dn4 , v100
	.byte	W04
	.byte		        Dn4 , v060
	.byte	W08
	.byte		        En4 , v100
	.byte	W04
	.byte		        En4 , v060
	.byte	W08
	.byte	PATT
	 .word	seq_109_3 + 0x1E
	.byte		N03   , Dn5 , v100
	.byte	W04
	.byte		        Dn5 , v060
	.byte	W92
	.byte	W96
	.byte	GOTO
	 .word	seq_109_3 + 0x1E
	.byte	FINE

@*********************** Track 05 ***********************@

seq_109_4:
	.byte	KEYSH , seq_109_key+0
	.byte	W06
	.byte		VOICE , 23
	.byte	W01
	.byte		VOL   , 29*seq_109_mvl/mxv
	.byte	W01
	.byte		PAN   , c_v+0
	.byte	W01
	.byte		LFOS  , 20
	.byte	W01
	.byte		MODT  , mod_pan
	.byte	W01
	.byte		LFODL , 0
	.byte	W13
	.byte		N12   , Fs5 , v120
	.byte	W02
	.byte		BEND  , c_v+63
	.byte	W01
	.byte		        c_v+0
	.byte	W11
	.byte		N06   , Fs5 , v060
	.byte	W06
	.byte		        Fs5 , v040
	.byte	W76
	.byte	PEND
	.byte		N12   , Fs5 , v120
	.byte	W02
	.byte		BEND  , c_v+63
	.byte	W01
	.byte		        c_v+0
	.byte	W11
	.byte		N06   , Fs5 , v060
	.byte	W06
	.byte		        Fs5 , v040
	.byte	W28
	.byte		N12   , Fs5 , v120
	.byte	W02
	.byte		BEND  , c_v+63
	.byte	W01
	.byte		        c_v+0
	.byte	W11
	.byte		N06   , Fs5 , v060
	.byte	W06
	.byte		        Fs5 , v040
	.byte	W28
	.byte	PEND
	.byte		N11   , Fs5 , v120
	.byte	W02
	.byte		BEND  , c_v+63
	.byte	W01
	.byte		        c_v+0
	.byte	W09
	.byte		N06   , Fs5 , v060
	.byte	W06
	.byte		        Fs5 , v040
	.byte	W78
	.byte	PEND
	.byte	W48
	.byte		N05   , Fs6 , v120
	.byte	W06
	.byte		N06   , Fs6 , v040
	.byte	W06
	.byte		N05   , Fs6 , v120
	.byte	W06
	.byte		N06   , Fs6 , v040
	.byte	W06
	.byte		N05   , Fs6 , v120
	.byte	W06
	.byte		N06   , Fs6 , v040
	.byte	W06
	.byte		N05   , Fs6 , v120
	.byte	W06
	.byte		N06   , Fs6 , v040
	.byte	W06
	.byte	PEND
	.byte	PATT
	 .word	seq_109_4 + 0x15
	.byte	PATT
	 .word	seq_109_4 + 0x26
	.byte	PATT
	 .word	seq_109_4 + 0x47
	.byte	PATT
	 .word	seq_109_4 + 0x58
	.byte	PATT
	 .word	seq_109_4 + 0x15
	.byte	PATT
	 .word	seq_109_4 + 0x26
	.byte		N11   , Fs5 , v120
	.byte	W02
	.byte		BEND  , c_v+63
	.byte	W01
	.byte		        c_v+0
	.byte	W09
	.byte		N06   , Fs5 , v060
	.byte	W06
	.byte		        Fs5 , v040
	.byte	W06
	.byte		N11   , Fs5 , v120
	.byte	W12
	.byte		N06   , Fs5 , v060
	.byte	W06
	.byte		        Fs5 , v040
	.byte	W06
	.byte		N11   , Fs5 , v120
	.byte	W12
	.byte		N06   , Fs5 , v060
	.byte	W06
	.byte		        Fs5 , v040
	.byte	W06
	.byte		N11   , Fs5 , v120
	.byte	W12
	.byte		N06   , Fs5 , v060
	.byte	W06
	.byte		        Fs5 , v040
	.byte	W05
	.byte		BEND  , c_v-64
	.byte	W01
	.byte	PEND
	.byte		N05   , Fs6 , v120
	.byte	W01
	.byte		BEND  , c_v-32
	.byte	W01
	.byte		        c_v+0
	.byte	W04
	.byte		N06   , Fs6 , v040
	.byte	W06
	.byte		N05   , Fs6 , v120
	.byte	W06
	.byte		N06   , Fs6 , v040
	.byte	W06
	.byte		N05   , Fs6 , v120
	.byte	W06
	.byte		N06   , Fs6 , v040
	.byte	W06
	.byte		N05   , Fs6 , v120
	.byte	W06
	.byte		N06   , Fs6 , v040
	.byte	W06
	.byte		N05   , Fs6 , v120
	.byte	W06
	.byte		N06   , Fs6 , v040
	.byte	W06
	.byte		N05   , Fs6 , v120
	.byte	W06
	.byte		N06   , Fs6 , v040
	.byte	W06
	.byte		N05   , Fs6 , v120
	.byte	W06
	.byte		N06   , Fs6 , v040
	.byte	W06
	.byte		N05   , Fs6 , v120
	.byte	W06
	.byte		N06   , Fs6 , v040
	.byte	W06
	.byte	PEND
	.byte	PATT
	 .word	seq_109_4 + 0x15
	.byte	PATT
	 .word	seq_109_4 + 0x26
	.byte	PATT
	 .word	seq_109_4 + 0x98
	.byte	PATT
	 .word	seq_109_4 + 0xCD
	.byte	W72
	.byte	W01
	.byte		MOD   , 120
	.byte	W01
	.byte		VOL   , 35*seq_109_mvl/mxv
	.byte	W01
	.byte		N03   , Ds4 , v080
	.byte	W03
	.byte		        Fn4 
	.byte	W03
	.byte		        Gn4 
	.byte	W03
	.byte		        Gs4 , v100
	.byte	W03
	.byte		        As4 
	.byte	W03
	.byte		        Cn5 
	.byte	W03
	.byte		        Cs5 , v120
	.byte	W03
	.byte		        Dn5 
	.byte	W03
	.byte		        En5 
	.byte	W03
	.byte		        Fs5 
	.byte	W03
	.byte		        Gn5 
	.byte	W03
	.byte		        An5 
	.byte	W03
	.byte		        Bn5 
	.byte	W03
	.byte		        Cs6 
	.byte	W03
	.byte		        Dn6 
	.byte	W03
	.byte		        Cs6 
	.byte	W03
	.byte		        Bn5 
	.byte	W03
	.byte		        An5 
	.byte	W03
	.byte		        Gn5 
	.byte	W03
	.byte		        Fs5 
	.byte	W03
	.byte		        En5 
	.byte	W03
	.byte		        Fs5 
	.byte	W03
	.byte		        Gn5 
	.byte	W03
	.byte		        An5 
	.byte	W03
	.byte		        Bn5 
	.byte	W03
	.byte		        Cs6 
	.byte	W03
	.byte		        Dn6 
	.byte	W03
	.byte		        En6 
	.byte	W03
	.byte		        Fs6 
	.byte	W03
	.byte		        Gn6 
	.byte	W03
	.byte		        An6 
	.byte	W03
	.byte		        Gn6 
	.byte	W03
	.byte		        Fs6 
	.byte	W03
	.byte		        En6 
	.byte	W03
	.byte		        Dn6 
	.byte	W03
	.byte		        Cs6 
	.byte	W03
	.byte		        Bn5 
	.byte	W03
	.byte		        An5 
	.byte	W03
	.byte		        Gn5 
	.byte	W03
	.byte		        Dn6 , v040
	.byte	W03
	.byte		        Cs6 
	.byte	W03
	.byte		        Bn5 
	.byte	W03
	.byte		        An5 
	.byte	W03
	.byte		        Gn5 
	.byte	W03
	.byte		        Dn6 , v020
	.byte	W03
	.byte		        Cs6 
	.byte	W03
	.byte		        Bn5 
	.byte	W03
	.byte		        An5 
	.byte	W03
	.byte		        Gn5 
	.byte	W66
	.byte		VOL   , 29*seq_109_mvl/mxv
	.byte	W01
	.byte		MOD   , 0
	.byte	W01
	.byte		BEND  , c_v-64
	.byte	W01
	.byte	PATT
	 .word	seq_109_4 + 0xCD
	.byte	PATT
	 .word	seq_109_4 + 0x15
	.byte	PATT
	 .word	seq_109_4 + 0x26
	.byte	GOTO
	 .word	seq_109_4 + 0x47
	.byte	FINE

@*********************** Track 06 ***********************@

seq_109_5:
	.byte	KEYSH , seq_109_key+0
	.byte	W06
	.byte		VOICE , 57
	.byte	W01
	.byte		VOL   , 47*seq_109_mvl/mxv
	.byte	W01
	.byte		PAN   , c_v-24
	.byte	W01
	.byte		LFOS  , 20
	.byte	W01
	.byte		MODT  , mod_pan
	.byte	W01
	.byte		BENDR , 12
	.byte	W13
	.byte		N03   , Fs3 , v080
	.byte	W04
	.byte		        Fs3 , v060
	.byte	W92
	.byte	PEND
	.byte	W96
	.byte	W12
	.byte		N03   , Fs3 , v120
	.byte	W04
	.byte		        Fs3 , v060
	.byte	W08
	.byte		        Gn3 , v120
	.byte	W04
	.byte		        Gn3 , v060
	.byte	W08
	.byte		        An3 , v120
	.byte	W04
	.byte		        An3 , v060
	.byte	W08
	.byte		        Bn3 , v120
	.byte	W04
	.byte		        Bn3 , v060
	.byte	W08
	.byte		        Cs4 , v120
	.byte	W04
	.byte		        Cs4 , v060
	.byte	W08
	.byte		        Dn4 , v120
	.byte	W04
	.byte		        Dn4 , v060
	.byte	W08
	.byte		        En4 , v120
	.byte	W04
	.byte		        En4 , v060
	.byte	W08
	.byte	PEND
	.byte		N03   , Fs4 , v120
	.byte	W04
	.byte		        Fs4 , v060
	.byte	W08
	.byte		        Fs4 , v120
	.byte	W04
	.byte		        Fs4 , v060
	.byte	W08
	.byte		        En4 , v120
	.byte	W04
	.byte		        En4 , v060
	.byte	W08
	.byte		        Dn4 , v120
	.byte	W04
	.byte		        Dn4 , v060
	.byte	W08
	.byte		        Cn4 , v120
	.byte	W04
	.byte		        Cn4 , v060
	.byte	W08
	.byte		        Bn3 , v120
	.byte	W04
	.byte		        Bn3 , v060
	.byte	W08
	.byte		        An3 , v120
	.byte	W04
	.byte		        An3 , v060
	.byte	W08
	.byte		        Gn3 , v120
	.byte	W04
	.byte		        Gn3 , v060
	.byte	W08
	.byte	PEND
	.byte	PATT
	 .word	seq_109_5 + 0x15
	.byte	W96
	.byte	PATT
	 .word	seq_109_5 + 0x1E
	.byte	PATT
	 .word	seq_109_5 + 0x4B
	.byte	PATT
	 .word	seq_109_5 + 0x15
	.byte	W96
	.byte	PATT
	 .word	seq_109_5 + 0x1E
	.byte	PATT
	 .word	seq_109_5 + 0x4B
	.byte	PATT
	 .word	seq_109_5 + 0x15
	.byte	W96
	.byte	PATT
	 .word	seq_109_5 + 0x1E
	.byte	PATT
	 .word	seq_109_5 + 0x4B
	.byte	W96
	.byte	W96
	.byte	W12
	.byte		N03   , An2 , v120
	.byte	W04
	.byte		        An2 , v060
	.byte	W08
	.byte		        Bn2 , v120
	.byte	W04
	.byte		        Bn2 , v060
	.byte	W08
	.byte		        Cn3 , v120
	.byte	W04
	.byte		        Cn3 , v060
	.byte	W08
	.byte		        Dn3 , v120
	.byte	W04
	.byte		        Dn3 , v060
	.byte	W08
	.byte		        En3 , v120
	.byte	W04
	.byte		        En3 , v060
	.byte	W08
	.byte		        Fn3 , v120
	.byte	W04
	.byte		        Fn3 , v060
	.byte	W08
	.byte		        Gn3 , v120
	.byte	W04
	.byte		        Gn3 , v060
	.byte	W08
	.byte	PATT
	 .word	seq_109_5 + 0x1E
	.byte		N03   , Fs4 , v080
	.byte	W04
	.byte		        Fs4 , v060
	.byte	W92
	.byte	W96
	.byte	GOTO
	 .word	seq_109_5 + 0x1E
	.byte	FINE

@*********************** Track 07 ***********************@

seq_109_6:
	.byte	KEYSH , seq_109_key+0
	.byte	W12
	.byte		VOICE , 6
	.byte	W01
	.byte		VOL   , 59*seq_109_mvl/mxv
	.byte	W01
	.byte		PAN   , c_v+0
	.byte	W01
	.byte		LFOS  , 30
	.byte	W01
	.byte		MODT  , mod_pan
	.byte	W01
	.byte		LFODL , 0
	.byte	W07
	.byte	W96
	.byte	W96
	.byte	W11
	.byte		MOD   , 120
	.byte	W01
	.byte		N02   , Dn4 , v120
	.byte	W02
	.byte		        Fs4 , v100
	.byte	W02
	.byte		        Dn5 , v080
	.byte	W02
	.byte		        Dn5 , v060
	.byte	W02
	.byte		        Fs5 , v040
	.byte	W02
	.byte		        Dn6 , v020
	.byte	W14
	.byte		        Dn5 , v040
	.byte	W02
	.byte		        Fs5 
	.byte	W02
	.byte		        Dn6 , v020
	.byte	W08
	.byte		        Dn4 , v120
	.byte	W02
	.byte		        Fs4 , v100
	.byte	W02
	.byte		        Dn5 , v080
	.byte	W02
	.byte		        Dn5 , v060
	.byte	W02
	.byte		        Fs5 , v040
	.byte	W02
	.byte		        Dn6 , v020
	.byte	W24
	.byte	W02
	.byte		        Dn5 , v040
	.byte	W02
	.byte		        Fs5 
	.byte	W02
	.byte		        Dn6 , v020
	.byte	W08
	.byte	PEND
	.byte		N02   , Dn4 , v120
	.byte	W02
	.byte		        Fs4 , v100
	.byte	W02
	.byte		        Dn5 , v080
	.byte	W02
	.byte		        Dn5 , v060
	.byte	W02
	.byte		        Fs5 , v040
	.byte	W02
	.byte		        Dn6 , v020
	.byte	W24
	.byte	W02
	.byte		        Dn4 , v120
	.byte	W02
	.byte		        Fs4 , v100
	.byte	W02
	.byte		        Dn5 , v080
	.byte	W02
	.byte		        Dn5 , v060
	.byte	W02
	.byte		        Fs5 , v040
	.byte	W02
	.byte		        Dn6 , v020
	.byte	W48
	.byte	W02
	.byte	PEND
	.byte	W96
	.byte	W96
	.byte	PATT
	 .word	seq_109_6 + 0x17
	.byte	PATT
	 .word	seq_109_6 + 0x52
	.byte	W96
	.byte	W96
	.byte	PATT
	 .word	seq_109_6 + 0x17
	.byte	PATT
	 .word	seq_109_6 + 0x52
	.byte	W96
	.byte	W96
	.byte	PATT
	 .word	seq_109_6 + 0x17
	.byte		N02   , Dn4 , v120
	.byte	W02
	.byte		        Fs4 , v100
	.byte	W02
	.byte		        Dn5 , v080
	.byte	W02
	.byte		        Dn5 , v060
	.byte	W02
	.byte		        Fs5 , v040
	.byte	W02
	.byte		        Dn6 , v020
	.byte	W24
	.byte	W02
	.byte		        Dn4 , v120
	.byte	W02
	.byte		        Fs4 , v100
	.byte	W02
	.byte		        Dn5 , v080
	.byte	W02
	.byte		        Dn5 , v060
	.byte	W02
	.byte		        Fs5 , v040
	.byte	W02
	.byte		        Dn6 , v020
	.byte	W48
	.byte		MOD   , 0
	.byte	W01
	.byte		PAN   , c_v+36
	.byte	W01
	.byte		N02   , Ds3 , v100
	.byte	W02
	.byte		        Ds4 , v060
	.byte	W02
	.byte		        Ds5 , v040
	.byte	W08
	.byte		        Fn3 , v100
	.byte	W02
	.byte		        Fn4 , v060
	.byte	W02
	.byte		        Fn5 , v040
	.byte	W07
	.byte		PAN   , c_v-34
	.byte	W01
	.byte		N02   , Gn3 , v100
	.byte	W02
	.byte		        Gn4 , v060
	.byte	W02
	.byte		        Gn5 , v040
	.byte	W08
	.byte		        Gs3 , v100
	.byte	W02
	.byte		        Gs4 , v060
	.byte	W02
	.byte		        Gs5 , v040
	.byte	W07
	.byte		PAN   , c_v+36
	.byte	W01
	.byte		N02   , As3 , v100
	.byte	W02
	.byte		        As4 , v060
	.byte	W02
	.byte		        As5 , v040
	.byte	W08
	.byte		        Cn4 , v100
	.byte	W02
	.byte		        Cn5 , v060
	.byte	W02
	.byte		        Cn6 , v040
	.byte	W07
	.byte		PAN   , c_v-34
	.byte	W01
	.byte		N02   , Dn4 , v100
	.byte	W02
	.byte		        Dn5 , v060
	.byte	W02
	.byte		        Dn6 , v040
	.byte	W08
	.byte		        Ds4 , v100
	.byte	W02
	.byte		        Ds5 , v060
	.byte	W02
	.byte		        Ds6 , v040
	.byte	W07
	.byte		PAN   , c_v+36
	.byte	W01
	.byte		N02   , Dn4 , v100
	.byte	W02
	.byte		        Dn5 , v060
	.byte	W02
	.byte		        Dn6 , v040
	.byte	W08
	.byte		        En4 , v100
	.byte	W02
	.byte		        En5 , v060
	.byte	W02
	.byte		        En6 , v040
	.byte	W07
	.byte		PAN   , c_v-34
	.byte	W01
	.byte		N02   , Fs4 , v100
	.byte	W02
	.byte		        Fs5 , v060
	.byte	W02
	.byte		        Fs6 , v040
	.byte	W08
	.byte		        Gn4 , v100
	.byte	W02
	.byte		        Gn5 , v060
	.byte	W02
	.byte		        Gn6 , v040
	.byte	W07
	.byte		PAN   , c_v+36
	.byte	W01
	.byte		N02   , An4 , v100
	.byte	W02
	.byte		        An5 , v060
	.byte	W02
	.byte		        An6 , v040
	.byte	W42
	.byte	W01
	.byte		PAN   , c_v+0
	.byte	W01
	.byte	W96
	.byte	W96
	.byte	W96
	.byte	W96
	.byte	GOTO
	 .word	seq_109_6 + 0x17
	.byte	FINE

@*********************** Track 08 ***********************@

seq_109_7:
	.byte	KEYSH , seq_109_key+0
	.byte	W12
	.byte		VOICE , 101
	.byte	W01
	.byte		VOL   , 75*seq_109_mvl/mxv
	.byte	W01
	.byte		PAN   , c_v+0
	.byte	W01
	.byte		LFOS  , 20
	.byte	W01
	.byte		MODT  , mod_vib
	.byte	W01
	.byte		BENDR , 12
	.byte	W01
	.byte		LFODL , 20
	.byte	W06
	.byte		N06   , Dn2 , v120
	.byte	W07
	.byte		N05   , Dn2 , v040
	.byte	W05
	.byte		N06   , Dn2 , v120
	.byte	W07
	.byte		N05   , Dn2 , v040
	.byte	W05
	.byte		N06   , Cn2 , v120
	.byte	W07
	.byte		N05   , Cn2 , v040
	.byte	W05
	.byte		        Dn2 , v120
	.byte	W06
	.byte		N03   , Dn2 , v060
	.byte	W06
	.byte		N06   , Dn2 , v120
	.byte	W07
	.byte		N05   , Dn2 , v040
	.byte	W05
	.byte		N06   , Dn2 , v120
	.byte	W07
	.byte		N05   , Dn2 , v040
	.byte	W05
	.byte		N06   , Dn2 , v120
	.byte	W07
	.byte		N05   , Dn2 , v040
	.byte	W05
	.byte		N06   , Cn2 , v120
	.byte	W07
	.byte		N05   , Cn2 , v040
	.byte	W05
	.byte	PEND
	.byte	PATT
	 .word	seq_109_7 + 0x18
	.byte	PATT
	 .word	seq_109_7 + 0x18
	.byte	PATT
	 .word	seq_109_7 + 0x18
	.byte	PATT
	 .word	seq_109_7 + 0x18
	.byte	PATT
	 .word	seq_109_7 + 0x18
	.byte	PATT
	 .word	seq_109_7 + 0x18
	.byte	PATT
	 .word	seq_109_7 + 0x18
	.byte	PATT
	 .word	seq_109_7 + 0x18
	.byte	PATT
	 .word	seq_109_7 + 0x18
	.byte	PATT
	 .word	seq_109_7 + 0x18
	.byte	PATT
	 .word	seq_109_7 + 0x18
	.byte	PATT
	 .word	seq_109_7 + 0x18
	.byte	PATT
	 .word	seq_109_7 + 0x18
	.byte	PATT
	 .word	seq_109_7 + 0x18
	.byte	PATT
	 .word	seq_109_7 + 0x18
	.byte		N06   , As1 , v120
	.byte	W07
	.byte		N05   , As1 , v040
	.byte	W05
	.byte		N06   , As1 , v120
	.byte	W07
	.byte		N05   , As1 , v040
	.byte	W05
	.byte		N06   , As1 , v120
	.byte	W07
	.byte		N05   , As1 , v040
	.byte	W05
	.byte		N06   , As1 , v120
	.byte	W07
	.byte		N05   , As1 , v040
	.byte	W05
	.byte		N06   , As1 , v120
	.byte	W07
	.byte		N05   , As1 , v040
	.byte	W05
	.byte		N06   , As1 , v120
	.byte	W07
	.byte		N05   , As1 , v040
	.byte	W05
	.byte		N06   , As1 , v120
	.byte	W07
	.byte		N05   , As1 , v040
	.byte	W05
	.byte		N06   , As1 , v120
	.byte	W07
	.byte		N05   , As1 , v040
	.byte	W05
	.byte		N06   , An1 , v120
	.byte	W07
	.byte		N05   , An1 , v040
	.byte	W05
	.byte		N06   , An1 , v120
	.byte	W07
	.byte		N05   , An1 , v040
	.byte	W05
	.byte		N06   , An1 , v120
	.byte	W07
	.byte		N05   , An1 , v040
	.byte	W05
	.byte		N06   , An1 , v120
	.byte	W07
	.byte		N05   , An1 , v040
	.byte	W05
	.byte		N06   , An1 , v120
	.byte	W07
	.byte		N05   , An1 , v040
	.byte	W05
	.byte		N06   , An1 , v120
	.byte	W07
	.byte		N05   , An1 , v040
	.byte	W05
	.byte		N06   , An1 , v120
	.byte	W07
	.byte		N05   , An1 , v040
	.byte	W05
	.byte		N06   , An1 , v120
	.byte	W07
	.byte		N05   , An1 , v040
	.byte	W05
	.byte		N06   , Gn1 , v120
	.byte	W07
	.byte		N05   , Gn1 , v040
	.byte	W05
	.byte		N06   , Gn1 , v120
	.byte	W07
	.byte		N05   , Gn1 , v040
	.byte	W05
	.byte		N06   , Gn1 , v120
	.byte	W07
	.byte		N05   , Gn1 , v040
	.byte	W05
	.byte		N06   , Gn1 , v120
	.byte	W07
	.byte		N05   , Gn1 , v040
	.byte	W05
	.byte		N06   , Gn1 , v120
	.byte	W07
	.byte		N05   , Gn1 , v040
	.byte	W05
	.byte		N06   , Gn1 , v120
	.byte	W07
	.byte		N05   , Gn1 , v040
	.byte	W05
	.byte		N06   , Gn1 , v120
	.byte	W07
	.byte		N05   , Gn1 , v040
	.byte	W05
	.byte		N06   , Gn1 , v120
	.byte	W07
	.byte		N05   , Gn1 , v040
	.byte	W05
	.byte		N06   , An1 , v120
	.byte	W07
	.byte		N05   , An1 , v040
	.byte	W05
	.byte		N06   , An1 , v120
	.byte	W07
	.byte		N05   , An1 , v040
	.byte	W05
	.byte		N06   , An1 , v120
	.byte	W07
	.byte		N05   , An1 , v040
	.byte	W05
	.byte		N06   , An1 , v120
	.byte	W07
	.byte		N05   , An1 , v040
	.byte	W05
	.byte		N06   , An1 , v120
	.byte	W07
	.byte		N05   , An1 , v040
	.byte	W05
	.byte		N06   , An1 , v120
	.byte	W07
	.byte		N05   , An1 , v040
	.byte	W05
	.byte		N06   , Bn1 , v120
	.byte	W07
	.byte		N05   , Bn1 , v040
	.byte	W05
	.byte		N06   , Cs2 , v120
	.byte	W07
	.byte		N05   , Cs2 , v040
	.byte	W05
	.byte	PATT
	 .word	seq_109_7 + 0x18
	.byte	PATT
	 .word	seq_109_7 + 0x18
	.byte	GOTO
	 .word	seq_109_7 + 0x5D
	.byte	FINE

@*********************** Track 09 ***********************@

seq_109_8:
	.byte	KEYSH , seq_109_key+0
	.byte	W12
	.byte		VOICE , 74
	.byte	W01
	.byte		VOL   , 59*seq_109_mvl/mxv
	.byte	W01
	.byte		PAN   , c_v+0
	.byte	W01
	.byte		BENDR , 24
	.byte	W01
	.byte		LFOS  , 5
	.byte	W01
	.byte		MODT  , mod_pan
	.byte	W01
	.byte		LFODL , 0
	.byte	W06
	.byte		N07   , Gn3 , v120
	.byte	W01
	.byte		BEND  , c_v-16
	.byte	W01
	.byte		        c_v-36
	.byte	W01
	.byte		        c_v-40
	.byte	W01
	.byte		        c_v-47
	.byte	W01
	.byte		        c_v-55
	.byte	W01
	.byte		        c_v-59
	.byte	W01
	.byte		        c_v-63
	.byte	W02
	.byte		        c_v+0
	.byte	W03
	.byte		N02   , An4 , v080
	.byte	W02
	.byte		        An4 , v060
	.byte	W04
	.byte		        Dn4 , v080
	.byte	W02
	.byte		        Dn4 , v040
	.byte	W04
	.byte		N08   , An4 , v120
	.byte	W01
	.byte		BEND  , c_v-16
	.byte	W01
	.byte		        c_v-36
	.byte	W01
	.byte		        c_v-40
	.byte	W01
	.byte		        c_v-47
	.byte	W01
	.byte		        c_v-55
	.byte	W01
	.byte		        c_v-59
	.byte	W01
	.byte		        c_v-63
	.byte	W01
	.byte		N04   , An4 , v040
	.byte	W03
	.byte		BEND  , c_v+0
	.byte	W01
	.byte		N02   , Dn4 , v080
	.byte	W02
	.byte		        Dn4 , v060
	.byte	W04
	.byte		        An3 , v080
	.byte	W02
	.byte		        An3 , v060
	.byte	W04
	.byte		N07   , Gn3 , v120
	.byte	W01
	.byte		BEND  , c_v-16
	.byte	W01
	.byte		        c_v-36
	.byte	W01
	.byte		        c_v-40
	.byte	W01
	.byte		        c_v-47
	.byte	W01
	.byte		        c_v-55
	.byte	W01
	.byte		        c_v-59
	.byte	W01
	.byte		        c_v-63
	.byte	W02
	.byte		        c_v+0
	.byte	W03
	.byte		N02   , An4 , v080
	.byte	W02
	.byte		        An4 , v060
	.byte	W04
	.byte		        Dn4 , v080
	.byte	W02
	.byte		        Dn4 , v060
	.byte	W01
	.byte		BEND  , c_v+0
	.byte	W03
	.byte		N08   , An4 , v120
	.byte	W01
	.byte		BEND  , c_v-16
	.byte	W01
	.byte		        c_v-36
	.byte	W01
	.byte		        c_v-40
	.byte	W01
	.byte		        c_v-47
	.byte	W01
	.byte		        c_v-55
	.byte	W01
	.byte		        c_v-59
	.byte	W01
	.byte		        c_v-63
	.byte	W01
	.byte		N04   , An4 , v040
	.byte	W03
	.byte		BEND  , c_v+0
	.byte	W01
	.byte		N02   , Dn4 , v080
	.byte	W02
	.byte		        Dn4 , v060
	.byte	W04
	.byte		        An3 , v080
	.byte	W02
	.byte		        An3 , v060
	.byte	W04
	.byte	PEND
	.byte		N07   , Gn3 , v120
	.byte	W01
	.byte		BEND  , c_v-16
	.byte	W01
	.byte		        c_v-36
	.byte	W01
	.byte		        c_v-40
	.byte	W01
	.byte		        c_v-47
	.byte	W01
	.byte		        c_v-55
	.byte	W01
	.byte		        c_v-59
	.byte	W01
	.byte		        c_v-63
	.byte	W02
	.byte		        c_v+0
	.byte	W03
	.byte		N02   , An4 , v080
	.byte	W02
	.byte		        An4 , v060
	.byte	W04
	.byte		        Dn4 , v080
	.byte	W02
	.byte		        Dn4 , v040
	.byte	W04
	.byte		N08   , An4 , v120
	.byte	W01
	.byte		BEND  , c_v-16
	.byte	W01
	.byte		        c_v-36
	.byte	W01
	.byte		        c_v-40
	.byte	W01
	.byte		        c_v-47
	.byte	W01
	.byte		        c_v-55
	.byte	W01
	.byte		        c_v-59
	.byte	W01
	.byte		        c_v-63
	.byte	W01
	.byte		N04   , An4 , v040
	.byte	W03
	.byte		BEND  , c_v+0
	.byte	W01
	.byte		N02   , Dn4 , v080
	.byte	W02
	.byte		        Dn4 , v060
	.byte	W04
	.byte		        An3 , v080
	.byte	W02
	.byte		        An3 , v060
	.byte	W04
	.byte		N07   , Gn3 , v120
	.byte	W01
	.byte		BEND  , c_v-16
	.byte	W01
	.byte		        c_v-36
	.byte	W01
	.byte		        c_v-40
	.byte	W01
	.byte		        c_v-47
	.byte	W01
	.byte		        c_v-55
	.byte	W01
	.byte		        c_v-59
	.byte	W01
	.byte		        c_v-63
	.byte	W02
	.byte		        c_v+0
	.byte	W03
	.byte		N05   , Gn3 , v080
	.byte	W01
	.byte		BEND  , c_v-16
	.byte	W01
	.byte		        c_v-36
	.byte	W01
	.byte		        c_v-47
	.byte	W01
	.byte		        c_v-63
	.byte	W01
	.byte		        c_v+0
	.byte	W01
	.byte		N02   , Dn4 
	.byte	W02
	.byte		        Dn4 , v060
	.byte	W01
	.byte		BEND  , c_v+0
	.byte	W03
	.byte		N08   , An4 , v120
	.byte	W01
	.byte		BEND  , c_v-16
	.byte	W01
	.byte		        c_v-36
	.byte	W01
	.byte		        c_v-40
	.byte	W01
	.byte		        c_v-47
	.byte	W01
	.byte		        c_v-55
	.byte	W01
	.byte		        c_v-59
	.byte	W01
	.byte		        c_v-63
	.byte	W01
	.byte		N04   , An4 , v040
	.byte	W03
	.byte		BEND  , c_v+0
	.byte	W01
	.byte		N02   , Dn4 , v080
	.byte	W02
	.byte		        Dn4 , v060
	.byte	W04
	.byte		        An3 , v080
	.byte	W02
	.byte		        An3 , v060
	.byte	W04
	.byte	PEND
	.byte	PATT
	 .word	seq_109_8 + 0x18
	.byte	PATT
	 .word	seq_109_8 + 0xAE
	.byte	PATT
	 .word	seq_109_8 + 0x18
	.byte	PATT
	 .word	seq_109_8 + 0xAE
	.byte	PATT
	 .word	seq_109_8 + 0x18
	.byte	PATT
	 .word	seq_109_8 + 0xAE
	.byte	PATT
	 .word	seq_109_8 + 0x18
	.byte	PATT
	 .word	seq_109_8 + 0xAE
	.byte	PATT
	 .word	seq_109_8 + 0x18
	.byte	PATT
	 .word	seq_109_8 + 0xAE
	.byte	PATT
	 .word	seq_109_8 + 0x18
	.byte	PATT
	 .word	seq_109_8 + 0xAE
	.byte	PATT
	 .word	seq_109_8 + 0x18
	.byte		N07   , Gn3 , v120
	.byte	W01
	.byte		BEND  , c_v-16
	.byte	W01
	.byte		        c_v-36
	.byte	W01
	.byte		        c_v-40
	.byte	W01
	.byte		        c_v-47
	.byte	W01
	.byte		        c_v-55
	.byte	W01
	.byte		        c_v-59
	.byte	W01
	.byte		        c_v-63
	.byte	W02
	.byte		        c_v+0
	.byte	W03
	.byte		N02   , An4 , v080
	.byte	W02
	.byte		        An4 , v060
	.byte	W04
	.byte		        Dn4 , v080
	.byte	W02
	.byte		        Dn4 , v040
	.byte	W04
	.byte		N08   , An4 , v120
	.byte	W01
	.byte		BEND  , c_v-16
	.byte	W01
	.byte		        c_v-36
	.byte	W01
	.byte		        c_v-40
	.byte	W01
	.byte		        c_v-47
	.byte	W01
	.byte		        c_v-55
	.byte	W01
	.byte		        c_v-59
	.byte	W01
	.byte		        c_v-63
	.byte	W01
	.byte		N04   , An4 , v040
	.byte	W03
	.byte		BEND  , c_v+0
	.byte	W01
	.byte		N02   , Dn4 , v080
	.byte	W02
	.byte		        Dn4 , v060
	.byte	W04
	.byte		        An3 , v080
	.byte	W02
	.byte		        An3 , v060
	.byte	W04
	.byte		N07   , Gn3 , v120
	.byte	W01
	.byte		BEND  , c_v-16
	.byte	W01
	.byte		        c_v-36
	.byte	W01
	.byte		        c_v-40
	.byte	W01
	.byte		        c_v-47
	.byte	W01
	.byte		        c_v-55
	.byte	W01
	.byte		        c_v-59
	.byte	W01
	.byte		        c_v-63
	.byte	W02
	.byte		        c_v+0
	.byte	W03
	.byte		N05   , Gn3 , v080
	.byte	W01
	.byte		BEND  , c_v-16
	.byte	W01
	.byte		        c_v-36
	.byte	W01
	.byte		        c_v-47
	.byte	W01
	.byte		        c_v-63
	.byte	W01
	.byte		        c_v+0
	.byte	W01
	.byte		N02   , Dn4 
	.byte	W02
	.byte		        Dn4 , v060
	.byte	W04
	.byte		N08   , An4 , v120
	.byte	W01
	.byte		BEND  , c_v-16
	.byte	W01
	.byte		        c_v-36
	.byte	W01
	.byte		        c_v-40
	.byte	W01
	.byte		        c_v-47
	.byte	W01
	.byte		        c_v-55
	.byte	W01
	.byte		        c_v-59
	.byte	W01
	.byte		        c_v-63
	.byte	W01
	.byte		N04   , An4 , v040
	.byte	W03
	.byte		BEND  , c_v+0
	.byte	W01
	.byte		N06   , Gn3 , v100
	.byte	W01
	.byte		BEND  , c_v-16
	.byte	W01
	.byte		        c_v-36
	.byte	W01
	.byte		        c_v-40
	.byte	W01
	.byte		        c_v-47
	.byte	W01
	.byte		        c_v+0
	.byte	W01
	.byte		N02   , An3 , v080
	.byte	W02
	.byte		        An3 , v060
	.byte	W04
	.byte		N07   , Gn3 , v120
	.byte	W01
	.byte		BEND  , c_v-16
	.byte	W01
	.byte		        c_v-36
	.byte	W01
	.byte		        c_v-40
	.byte	W01
	.byte		        c_v-47
	.byte	W01
	.byte		        c_v-55
	.byte	W01
	.byte		        c_v-59
	.byte	W01
	.byte		        c_v-63
	.byte	W02
	.byte		        c_v+0
	.byte	W03
	.byte		N02   , Gn4 , v080
	.byte	W02
	.byte		        Gn4 , v060
	.byte	W04
	.byte		        Cn4 , v080
	.byte	W02
	.byte		        Cn4 , v040
	.byte	W04
	.byte		N08   , An4 , v120
	.byte	W01
	.byte		BEND  , c_v-16
	.byte	W01
	.byte		        c_v-36
	.byte	W01
	.byte		        c_v-40
	.byte	W01
	.byte		        c_v-47
	.byte	W01
	.byte		        c_v-55
	.byte	W01
	.byte		        c_v-59
	.byte	W01
	.byte		        c_v-63
	.byte	W01
	.byte		N04   , An4 , v040
	.byte	W03
	.byte		BEND  , c_v+0
	.byte	W01
	.byte		N02   , Cn4 , v080
	.byte	W02
	.byte		        Cn4 , v060
	.byte	W04
	.byte		        Gn3 , v080
	.byte	W02
	.byte		        Gn3 , v060
	.byte	W04
	.byte		N07   , Gn3 , v120
	.byte	W01
	.byte		BEND  , c_v-16
	.byte	W01
	.byte		        c_v-36
	.byte	W01
	.byte		        c_v-40
	.byte	W01
	.byte		        c_v-47
	.byte	W01
	.byte		        c_v-55
	.byte	W01
	.byte		        c_v-59
	.byte	W01
	.byte		        c_v-63
	.byte	W02
	.byte		        c_v+0
	.byte	W03
	.byte		N02   , Gn4 , v080
	.byte	W02
	.byte		        Gn4 , v060
	.byte	W04
	.byte		        Cn4 , v080
	.byte	W02
	.byte		        Cn4 , v060
	.byte	W04
	.byte		N08   , An4 , v120
	.byte	W01
	.byte		BEND  , c_v-16
	.byte	W01
	.byte		        c_v-36
	.byte	W01
	.byte		        c_v-40
	.byte	W01
	.byte		        c_v-47
	.byte	W01
	.byte		        c_v-55
	.byte	W01
	.byte		        c_v-59
	.byte	W01
	.byte		        c_v-63
	.byte	W01
	.byte		N04   , An4 , v040
	.byte	W03
	.byte		BEND  , c_v+0
	.byte	W01
	.byte		N02   , Cn4 , v080
	.byte	W02
	.byte		        Cn4 , v060
	.byte	W04
	.byte		        Gn3 , v080
	.byte	W02
	.byte		        Gn3 , v060
	.byte	W04
	.byte		N07   , Gn3 , v120
	.byte	W01
	.byte		BEND  , c_v-16
	.byte	W01
	.byte		        c_v-36
	.byte	W01
	.byte		        c_v-40
	.byte	W01
	.byte		        c_v-47
	.byte	W01
	.byte		        c_v-55
	.byte	W01
	.byte		        c_v-59
	.byte	W01
	.byte		        c_v-63
	.byte	W02
	.byte		        c_v+0
	.byte	W03
	.byte		N02   , Gn4 , v080
	.byte	W02
	.byte		        Gn4 , v060
	.byte	W04
	.byte		        Bn3 , v080
	.byte	W02
	.byte		        Bn3 , v040
	.byte	W04
	.byte		N08   , An4 , v120
	.byte	W01
	.byte		BEND  , c_v-16
	.byte	W01
	.byte		        c_v-36
	.byte	W01
	.byte		        c_v-40
	.byte	W01
	.byte		        c_v-47
	.byte	W01
	.byte		        c_v-55
	.byte	W01
	.byte		        c_v-59
	.byte	W01
	.byte		        c_v-63
	.byte	W01
	.byte		N04   , An4 , v040
	.byte	W03
	.byte		BEND  , c_v+0
	.byte	W01
	.byte		N02   , Bn3 , v080
	.byte	W02
	.byte		        Bn3 , v060
	.byte	W04
	.byte		        Gn3 , v080
	.byte	W02
	.byte		        Gn3 , v060
	.byte	W04
	.byte		N07   , Gn3 , v120
	.byte	W01
	.byte		BEND  , c_v-16
	.byte	W01
	.byte		        c_v-36
	.byte	W01
	.byte		        c_v-40
	.byte	W01
	.byte		        c_v-47
	.byte	W01
	.byte		        c_v-55
	.byte	W01
	.byte		        c_v-59
	.byte	W01
	.byte		        c_v-63
	.byte	W02
	.byte		        c_v+0
	.byte	W03
	.byte		N05   , Gn3 , v080
	.byte	W01
	.byte		BEND  , c_v-16
	.byte	W01
	.byte		        c_v-36
	.byte	W01
	.byte		        c_v-47
	.byte	W01
	.byte		        c_v-63
	.byte	W01
	.byte		        c_v+0
	.byte	W01
	.byte		N02   , Bn3 
	.byte	W02
	.byte		        Bn3 , v060
	.byte	W04
	.byte		N08   , An4 , v120
	.byte	W01
	.byte		BEND  , c_v-16
	.byte	W01
	.byte		        c_v-36
	.byte	W01
	.byte		        c_v-40
	.byte	W01
	.byte		        c_v-47
	.byte	W01
	.byte		        c_v-55
	.byte	W01
	.byte		        c_v-59
	.byte	W01
	.byte		        c_v-63
	.byte	W01
	.byte		N04   , An4 , v040
	.byte	W03
	.byte		BEND  , c_v+0
	.byte	W01
	.byte		N02   , Bn3 , v080
	.byte	W02
	.byte		        Bn3 , v060
	.byte	W04
	.byte		        Gn3 , v080
	.byte	W02
	.byte		        Gn3 , v060
	.byte	W04
	.byte		N07   , Gn3 , v120
	.byte	W01
	.byte		BEND  , c_v-16
	.byte	W01
	.byte		        c_v-36
	.byte	W01
	.byte		        c_v-40
	.byte	W01
	.byte		        c_v-47
	.byte	W01
	.byte		        c_v-55
	.byte	W01
	.byte		        c_v-59
	.byte	W01
	.byte		        c_v-63
	.byte	W02
	.byte		        c_v+0
	.byte	W03
	.byte		N02   , Fn4 , v080
	.byte	W02
	.byte		        Fn4 , v060
	.byte	W04
	.byte		        Cn4 , v080
	.byte	W02
	.byte		        Cn4 , v040
	.byte	W04
	.byte		N08   , An4 , v120
	.byte	W01
	.byte		BEND  , c_v-16
	.byte	W01
	.byte		        c_v-36
	.byte	W01
	.byte		        c_v-40
	.byte	W01
	.byte		        c_v-47
	.byte	W01
	.byte		        c_v-55
	.byte	W01
	.byte		        c_v-59
	.byte	W01
	.byte		        c_v-63
	.byte	W01
	.byte		N04   , An4 , v040
	.byte	W03
	.byte		BEND  , c_v+0
	.byte	W01
	.byte		N02   , Cn4 , v080
	.byte	W02
	.byte		        Cn4 , v060
	.byte	W04
	.byte		        An3 , v080
	.byte	W02
	.byte		        An3 , v060
	.byte	W04
	.byte		N07   , Gn3 , v120
	.byte	W01
	.byte		BEND  , c_v-16
	.byte	W01
	.byte		        c_v-36
	.byte	W01
	.byte		        c_v-40
	.byte	W01
	.byte		        c_v-47
	.byte	W01
	.byte		        c_v-55
	.byte	W01
	.byte		        c_v-59
	.byte	W01
	.byte		        c_v-63
	.byte	W02
	.byte		        c_v+0
	.byte	W03
	.byte		N02   , Fn4 , v080
	.byte	W02
	.byte		        Fn4 , v060
	.byte	W04
	.byte		        Cn4 , v080
	.byte	W02
	.byte		        Cn4 , v060
	.byte	W04
	.byte		N08   , An4 , v120
	.byte	W01
	.byte		BEND  , c_v-16
	.byte	W01
	.byte		        c_v-36
	.byte	W01
	.byte		        c_v-40
	.byte	W01
	.byte		        c_v-47
	.byte	W01
	.byte		        c_v-55
	.byte	W01
	.byte		        c_v-59
	.byte	W01
	.byte		        c_v-63
	.byte	W01
	.byte		N04   , An4 , v040
	.byte	W03
	.byte		BEND  , c_v+0
	.byte	W01
	.byte		N02   , Cn4 , v080
	.byte	W02
	.byte		        Cn4 , v060
	.byte	W04
	.byte		        An3 , v080
	.byte	W02
	.byte		        An3 , v060
	.byte	W04
	.byte		N07   , Gn3 , v120
	.byte	W01
	.byte		BEND  , c_v-16
	.byte	W01
	.byte		        c_v-36
	.byte	W01
	.byte		        c_v-40
	.byte	W01
	.byte		        c_v-47
	.byte	W01
	.byte		        c_v-55
	.byte	W01
	.byte		        c_v-59
	.byte	W01
	.byte		        c_v-63
	.byte	W02
	.byte		        c_v+0
	.byte	W03
	.byte		N02   , Gn4 , v080
	.byte	W02
	.byte		        Gn4 , v060
	.byte	W04
	.byte		        Dn4 , v080
	.byte	W02
	.byte		        Dn4 , v040
	.byte	W04
	.byte		N08   , An4 , v120
	.byte	W01
	.byte		BEND  , c_v-16
	.byte	W01
	.byte		        c_v-36
	.byte	W01
	.byte		        c_v-40
	.byte	W01
	.byte		        c_v-47
	.byte	W01
	.byte		        c_v-55
	.byte	W01
	.byte		        c_v-59
	.byte	W01
	.byte		        c_v-63
	.byte	W01
	.byte		N04   , An4 , v040
	.byte	W03
	.byte		BEND  , c_v+0
	.byte	W01
	.byte		N02   , Dn4 , v080
	.byte	W02
	.byte		        Dn4 , v060
	.byte	W04
	.byte		        Gn3 , v080
	.byte	W02
	.byte		        Gn3 , v060
	.byte	W04
	.byte		N07   , Gn3 , v120
	.byte	W01
	.byte		BEND  , c_v-16
	.byte	W01
	.byte		        c_v-36
	.byte	W01
	.byte		        c_v-40
	.byte	W01
	.byte		        c_v-47
	.byte	W01
	.byte		        c_v-55
	.byte	W01
	.byte		        c_v-59
	.byte	W01
	.byte		        c_v-63
	.byte	W02
	.byte		        c_v+0
	.byte	W03
	.byte		N05   , Gn3 , v080
	.byte	W01
	.byte		BEND  , c_v-16
	.byte	W01
	.byte		        c_v-36
	.byte	W01
	.byte		        c_v-47
	.byte	W01
	.byte		        c_v-63
	.byte	W01
	.byte		        c_v+0
	.byte	W01
	.byte		N02   , Cs4 
	.byte	W02
	.byte		        Cs4 , v060
	.byte	W04
	.byte		N08   , An4 , v120
	.byte	W01
	.byte		BEND  , c_v-16
	.byte	W01
	.byte		        c_v-36
	.byte	W01
	.byte		        c_v-40
	.byte	W01
	.byte		        c_v-47
	.byte	W01
	.byte		        c_v-55
	.byte	W01
	.byte		        c_v-59
	.byte	W01
	.byte		        c_v-63
	.byte	W01
	.byte		N04   , An4 , v040
	.byte	W03
	.byte		BEND  , c_v+0
	.byte	W01
	.byte		N02   , Cs4 , v080
	.byte	W02
	.byte		        Cs4 , v060
	.byte	W04
	.byte		        Gn3 , v080
	.byte	W02
	.byte		        Gn3 , v060
	.byte	W04
	.byte	PATT
	 .word	seq_109_8 + 0x18
	.byte	PATT
	 .word	seq_109_8 + 0xAE
	.byte	GOTO
	 .word	seq_109_8 + 0x14C
	.byte	FINE

@*********************** Track 10 ***********************@

seq_109_9:
	.byte	KEYSH , seq_109_key+0
	.byte	W18
	.byte		VOICE , 88
	.byte	W01
	.byte		VOL   , 47*seq_109_mvl/mxv
	.byte	W01
	.byte		PAN   , c_v+0
	.byte	W01
	.byte		LFOS  , 0
	.byte	W01
	.byte		MODT  , mod_pan
	.byte	W01
	.byte		LFODL , 0
	.byte	W01
	.byte		N02   , Dn3 , v120
	.byte	W04
	.byte		        Dn3 , v060
	.byte	W02
	.byte		        An2 , v120
	.byte	W04
	.byte		        An2 , v060
	.byte	W02
	.byte		        Dn4 , v120
	.byte	W04
	.byte		        Dn4 , v060
	.byte	W02
	.byte		        An3 , v120
	.byte	W04
	.byte		        An3 , v060
	.byte	W02
	.byte		        Dn3 , v120
	.byte	W04
	.byte		        Dn3 , v060
	.byte	W02
	.byte		        An2 , v120
	.byte	W04
	.byte		        An2 , v060
	.byte	W02
	.byte		        An3 , v120
	.byte	W04
	.byte		        An3 , v060
	.byte	W02
	.byte		        Dn3 , v120
	.byte	W04
	.byte		        Dn3 , v060
	.byte	W02
	.byte		        An2 , v120
	.byte	W04
	.byte		        An2 , v060
	.byte	W02
	.byte		        Dn3 , v120
	.byte	W04
	.byte		        Dn3 , v060
	.byte	W02
	.byte		        Dn4 , v120
	.byte	W04
	.byte		        Dn4 , v060
	.byte	W02
	.byte		        An3 , v120
	.byte	W04
	.byte		        An3 , v060
	.byte	W02
	.byte		        Dn3 , v120
	.byte	W04
	.byte		        Dn3 , v060
	.byte	W02
	.byte		        An2 , v120
	.byte	W04
	.byte		        An2 , v060
	.byte	W02
	.byte		        Dn3 , v120
	.byte	W04
	.byte		        Dn3 , v060
	.byte	W02
	.byte		        An2 , v120
	.byte	W04
	.byte		        An2 , v060
	.byte	W02
	.byte	PEND
	.byte	PATT
	 .word	seq_109_9 + 0x15
	.byte	PATT
	 .word	seq_109_9 + 0x15
	.byte	PATT
	 .word	seq_109_9 + 0x15
	.byte	PATT
	 .word	seq_109_9 + 0x15
	.byte	PATT
	 .word	seq_109_9 + 0x15
	.byte	PATT
	 .word	seq_109_9 + 0x15
	.byte	PATT
	 .word	seq_109_9 + 0x15
	.byte	PATT
	 .word	seq_109_9 + 0x15
	.byte	PATT
	 .word	seq_109_9 + 0x15
	.byte	PATT
	 .word	seq_109_9 + 0x15
	.byte	PATT
	 .word	seq_109_9 + 0x15
	.byte	PATT
	 .word	seq_109_9 + 0x15
	.byte	PATT
	 .word	seq_109_9 + 0x15
	.byte	PATT
	 .word	seq_109_9 + 0x15
	.byte	PATT
	 .word	seq_109_9 + 0x15
	.byte		N02   , Cn3 , v120
	.byte	W04
	.byte		        Cn3 , v060
	.byte	W02
	.byte		        Gn2 , v120
	.byte	W04
	.byte		        Gn2 , v060
	.byte	W02
	.byte		        Cn4 , v120
	.byte	W04
	.byte		        Cn4 , v060
	.byte	W02
	.byte		        Gn3 , v120
	.byte	W04
	.byte		        Gn3 , v060
	.byte	W02
	.byte		        Cn3 , v120
	.byte	W04
	.byte		        Cn3 , v060
	.byte	W02
	.byte		        Gn2 , v120
	.byte	W04
	.byte		        Gn2 , v060
	.byte	W02
	.byte		        Gn3 , v120
	.byte	W04
	.byte		        Gn3 , v060
	.byte	W02
	.byte		        Cn3 , v120
	.byte	W04
	.byte		        Cn3 , v060
	.byte	W02
	.byte		        Gn2 , v120
	.byte	W04
	.byte		        Gn2 , v060
	.byte	W02
	.byte		        Cn3 , v120
	.byte	W04
	.byte		        Cn3 , v060
	.byte	W02
	.byte		        Cn4 , v120
	.byte	W04
	.byte		        Cn4 , v060
	.byte	W02
	.byte		        Gn3 , v120
	.byte	W04
	.byte		        Gn3 , v060
	.byte	W02
	.byte		        Cn3 , v120
	.byte	W04
	.byte		        Cn3 , v060
	.byte	W02
	.byte		        Gn2 , v120
	.byte	W04
	.byte		        Gn2 , v060
	.byte	W02
	.byte		        Cn3 , v120
	.byte	W04
	.byte		        Cn3 , v060
	.byte	W02
	.byte		        Gn2 , v120
	.byte	W04
	.byte		        Gn2 , v060
	.byte	W02
	.byte		        Bn2 , v120
	.byte	W04
	.byte		        Bn2 , v060
	.byte	W02
	.byte		        Gn2 , v120
	.byte	W04
	.byte		        Gn2 , v060
	.byte	W02
	.byte		        Bn3 , v120
	.byte	W04
	.byte		        Bn3 , v060
	.byte	W02
	.byte		        Gn3 , v120
	.byte	W04
	.byte		        Gn3 , v060
	.byte	W02
	.byte		        Bn2 , v120
	.byte	W04
	.byte		        Bn2 , v060
	.byte	W02
	.byte		        Gn2 , v120
	.byte	W04
	.byte		        Gn2 , v060
	.byte	W02
	.byte		        Gn3 , v120
	.byte	W04
	.byte		        Gn3 , v060
	.byte	W02
	.byte		        Bn2 , v120
	.byte	W04
	.byte		        Bn2 , v060
	.byte	W02
	.byte		        Gn2 , v120
	.byte	W04
	.byte		        Gn2 , v060
	.byte	W02
	.byte		        Bn2 , v120
	.byte	W04
	.byte		        Bn2 , v060
	.byte	W02
	.byte		        Bn3 , v120
	.byte	W04
	.byte		        Bn3 , v060
	.byte	W02
	.byte		        Gn3 , v120
	.byte	W04
	.byte		        Gn3 , v060
	.byte	W02
	.byte		        Bn2 , v120
	.byte	W04
	.byte		        Bn2 , v060
	.byte	W02
	.byte		        Gn2 , v120
	.byte	W04
	.byte		        Gn2 , v060
	.byte	W02
	.byte		        Bn2 , v120
	.byte	W04
	.byte		        Bn2 , v060
	.byte	W02
	.byte		        Gn2 , v120
	.byte	W04
	.byte		        Gn2 , v060
	.byte	W02
	.byte		        Cn3 , v120
	.byte	W04
	.byte		        Cn3 , v060
	.byte	W02
	.byte		        An2 , v120
	.byte	W04
	.byte		        An2 , v060
	.byte	W02
	.byte		        Cn4 , v120
	.byte	W04
	.byte		        Cn4 , v060
	.byte	W02
	.byte		        Fn3 , v120
	.byte	W04
	.byte		        Fn3 , v060
	.byte	W02
	.byte		        Cn3 , v120
	.byte	W04
	.byte		        Cn3 , v060
	.byte	W02
	.byte		        An2 , v120
	.byte	W04
	.byte		        An2 , v060
	.byte	W02
	.byte		        Fn3 , v120
	.byte	W04
	.byte		        Fn3 , v060
	.byte	W02
	.byte		        Cn3 , v120
	.byte	W04
	.byte		        Cn3 , v060
	.byte	W02
	.byte		        An2 , v120
	.byte	W04
	.byte		        An2 , v060
	.byte	W02
	.byte		        Cn3 , v120
	.byte	W04
	.byte		        Cn3 , v060
	.byte	W02
	.byte		        Cn4 , v120
	.byte	W04
	.byte		        Cn4 , v060
	.byte	W02
	.byte		        Fn3 , v120
	.byte	W04
	.byte		        Fn3 , v060
	.byte	W02
	.byte		        Cn3 , v120
	.byte	W04
	.byte		        Cn3 , v060
	.byte	W02
	.byte		        An2 , v120
	.byte	W04
	.byte		        An2 , v060
	.byte	W02
	.byte		        Cn3 , v120
	.byte	W04
	.byte		        Cn3 , v060
	.byte	W02
	.byte		        An2 , v120
	.byte	W04
	.byte		        An2 , v060
	.byte	W02
	.byte		        Dn3 , v120
	.byte	W04
	.byte		        Dn3 , v060
	.byte	W02
	.byte		        Gn2 , v120
	.byte	W04
	.byte		        Gn2 , v060
	.byte	W02
	.byte		        Dn4 , v120
	.byte	W04
	.byte		        Dn4 , v060
	.byte	W02
	.byte		        Gn3 , v120
	.byte	W04
	.byte		        Gn3 , v060
	.byte	W02
	.byte		        Dn3 , v120
	.byte	W04
	.byte		        Dn3 , v060
	.byte	W02
	.byte		        Gn2 , v120
	.byte	W04
	.byte		        Gn2 , v060
	.byte	W02
	.byte		        Gn3 , v120
	.byte	W04
	.byte		        Gn3 , v060
	.byte	W02
	.byte		        Dn3 , v120
	.byte	W04
	.byte		        Dn3 , v060
	.byte	W02
	.byte		        Gn2 , v120
	.byte	W04
	.byte		        Gn2 , v060
	.byte	W02
	.byte		        Cs3 , v120
	.byte	W04
	.byte		        Cs3 , v060
	.byte	W02
	.byte		        Cs4 , v120
	.byte	W04
	.byte		        Cs4 , v060
	.byte	W02
	.byte		        Gn3 , v120
	.byte	W04
	.byte		        Gn3 , v060
	.byte	W02
	.byte		        Cs3 , v120
	.byte	W04
	.byte		        Cs3 , v060
	.byte	W02
	.byte		        Gn2 , v120
	.byte	W04
	.byte		        Gn2 , v060
	.byte	W02
	.byte		        Cs3 , v120
	.byte	W04
	.byte		        Cs3 , v060
	.byte	W02
	.byte		        Gn2 , v120
	.byte	W04
	.byte		        Gn2 , v060
	.byte	W02
	.byte	PATT
	 .word	seq_109_9 + 0x15
	.byte	PATT
	 .word	seq_109_9 + 0x15
	.byte	GOTO
	 .word	seq_109_9 + 0x7C
	.byte	FINE

@*********************** Track 11 ***********************@

seq_109_10:
	.byte	KEYSH , seq_109_key+0
	.byte	W18
	.byte		VOICE , 112
	.byte	W01
	.byte		VOL   , 41*seq_109_mvl/mxv
	.byte	W01
	.byte		PAN   , c_v+0
	.byte	W01
	.byte		LFOS  , 0
	.byte	W01
	.byte		MODT  , mod_vib
	.byte	W01
	.byte		LFODL , 0
	.byte	W01
	.byte		N06   , Gs2 , v120
	.byte	W06
	.byte		        Gs2 , v060
	.byte	W05
	.byte		PAN   , c_v-64
	.byte	W01
	.byte		N06   , Gn4 , v100
	.byte	W06
	.byte		        Gn4 , v040
	.byte	W05
	.byte		PAN   , c_v+0
	.byte	W01
	.byte		N06   , Gs3 , v080
	.byte	W06
	.byte		        Gs3 , v060
	.byte	W05
	.byte		PAN   , c_v-64
	.byte	W01
	.byte		N06   , Gn4 , v100
	.byte	W06
	.byte		        Gn4 , v040
	.byte	W05
	.byte		PAN   , c_v+0
	.byte	W01
	.byte		N05   , En3 , v120
	.byte	W05
	.byte		N07   , En3 , v060
	.byte	W06
	.byte		PAN   , c_v-64
	.byte	W01
	.byte		N06   , Gn4 , v100
	.byte	W06
	.byte		        Gn4 , v040
	.byte	W05
	.byte		PAN   , c_v+0
	.byte	W01
	.byte		N06   , Gs3 , v080
	.byte	W06
	.byte		        Gs3 , v060
	.byte	W05
	.byte		PAN   , c_v-64
	.byte	W01
	.byte		N06   , Gn4 , v100
	.byte	W06
	.byte		        Gn4 , v040
	.byte	W05
	.byte		PAN   , c_v+0
	.byte	W01
	.byte	PEND
	.byte	PATT
	 .word	seq_109_10 + 0x15
	.byte	PATT
	 .word	seq_109_10 + 0x15
	.byte	PATT
	 .word	seq_109_10 + 0x15
	.byte	PATT
	 .word	seq_109_10 + 0x15
	.byte	PATT
	 .word	seq_109_10 + 0x15
	.byte	PATT
	 .word	seq_109_10 + 0x15
	.byte	PATT
	 .word	seq_109_10 + 0x15
	.byte	PATT
	 .word	seq_109_10 + 0x15
	.byte	PATT
	 .word	seq_109_10 + 0x15
	.byte	PATT
	 .word	seq_109_10 + 0x15
	.byte	PATT
	 .word	seq_109_10 + 0x15
	.byte	PATT
	 .word	seq_109_10 + 0x15
	.byte	PATT
	 .word	seq_109_10 + 0x15
	.byte	PATT
	 .word	seq_109_10 + 0x15
	.byte	PATT
	 .word	seq_109_10 + 0x15
	.byte	PATT
	 .word	seq_109_10 + 0x15
	.byte	PATT
	 .word	seq_109_10 + 0x15
	.byte	PATT
	 .word	seq_109_10 + 0x15
	.byte	PATT
	 .word	seq_109_10 + 0x15
	.byte	PATT
	 .word	seq_109_10 + 0x15
	.byte	PATT
	 .word	seq_109_10 + 0x15
	.byte	GOTO
	 .word	seq_109_10 + 0x6C
	.byte	FINE

@******************************************************@

	.align	2

seq_109:
	.byte	11	@ NumTrks
	.byte	0	@ NumBlks
	.byte	seq_109_pri	@ Priority
	.byte	seq_109_rev	@ Reverb

	.word	seq_109_grp

	.word	seq_109_0
	.word	seq_109_1
	.word	seq_109_2
	.word	seq_109_3
	.word	seq_109_4
	.word	seq_109_5
	.word	seq_109_6
	.word	seq_109_7
	.word	seq_109_8
	.word	seq_109_9
	.word	seq_109_10

	.end
