@ File generated by m4a2s Song-Module
	.include "MPlayDef.s"

	.equ	seq_033_grp, bank_000
	.equ	seq_033_pri, 50
	.equ	seq_033_rev, 198
	.equ	seq_033_mvl, 127
	.equ	seq_033_key, 0

	.section .rodata
	.global	seq_033
	.align	2

@*********************** Track 01 ***********************@

seq_033_0:
	.byte	KEYSH , seq_033_key+0
	.byte	TEMPO , 82/2
	.byte		VOICE , 76
	.byte		VOL   , 31*seq_033_mvl/mxv
	.byte		LFODL , 12
	.byte	W01
	.byte		MOD   , 65
	.byte		PAN   , c_v+0
	.byte		BENDR , 2
	.byte	W01
	.byte		MODT  , mod_tre
	.byte	W44
	.byte	W02
	.byte	W96
	.byte	W96
	.byte	W96
	.byte	W96
	.byte	W96
	.byte	W96
	.byte	W96
	.byte	W96
	.byte	W96
	.byte	W96
	.byte	W48
	.byte		VOL   , 31*seq_033_mvl/mxv
	.byte	W06
	.byte		N02   , Gn4 , v020
	.byte	W02
	.byte		N06   , Cn5 , v092
	.byte	W08
	.byte		N04   , As4 
	.byte	W04
	.byte		        As4 , v032
	.byte	W04
	.byte		N02   , Gn4 , v092
	.byte	W04
	.byte		        Gn4 , v012
	.byte	W04
	.byte		        Fn4 , v092
	.byte	W04
	.byte		        Fn4 , v012
	.byte	W04
	.byte		        Ds4 , v092
	.byte	W04
	.byte		        Ds4 , v012
	.byte	W04
	.byte	PEND
	.byte		N36   , Cn4 , v092
	.byte	W04
	.byte		VOL   , 25*seq_033_mvl/mxv
	.byte	W03
	.byte		        27*seq_033_mvl/mxv
	.byte	W03
	.byte		        31*seq_033_mvl/mxv
	.byte	W02
	.byte		        34*seq_033_mvl/mxv
	.byte	W02
	.byte		        37*seq_033_mvl/mxv
	.byte	W02
	.byte		        40*seq_033_mvl/mxv
	.byte	W02
	.byte		        44*seq_033_mvl/mxv
	.byte	W02
	.byte		        47*seq_033_mvl/mxv
	.byte	W06
	.byte		        52*seq_033_mvl/mxv
	.byte	W01
	.byte		        51*seq_033_mvl/mxv
	.byte	W01
	.byte		        47*seq_033_mvl/mxv
	.byte	W01
	.byte		        42*seq_033_mvl/mxv
	.byte	W01
	.byte		        37*seq_033_mvl/mxv
	.byte	W01
	.byte		        33*seq_033_mvl/mxv
	.byte	W01
	.byte		        28*seq_033_mvl/mxv
	.byte	W01
	.byte		        18*seq_033_mvl/mxv
	.byte	W01
	.byte		        10*seq_033_mvl/mxv
	.byte	W01
	.byte		        8*seq_033_mvl/mxv
	.byte	W03
	.byte		        31*seq_033_mvl/mxv
	.byte	W02
	.byte		N03   , As3 
	.byte	W03
	.byte		        Cn4 
	.byte	W05
	.byte		N48   , As3 
	.byte	W04
	.byte		VOL   , 22*seq_033_mvl/mxv
	.byte	W03
	.byte		        24*seq_033_mvl/mxv
	.byte	W03
	.byte		        27*seq_033_mvl/mxv
	.byte	W02
	.byte		        30*seq_033_mvl/mxv
	.byte	W02
	.byte		        34*seq_033_mvl/mxv
	.byte	W02
	.byte		        37*seq_033_mvl/mxv
	.byte	W02
	.byte		        43*seq_033_mvl/mxv
	.byte	W02
	.byte		        49*seq_033_mvl/mxv
	.byte	W02
	.byte		        59*seq_033_mvl/mxv
	.byte	W03
	.byte		        56*seq_033_mvl/mxv
	.byte	W02
	.byte		        56*seq_033_mvl/mxv
	.byte	W02
	.byte		        55*seq_033_mvl/mxv
	.byte	W02
	.byte		        54*seq_033_mvl/mxv
	.byte	W02
	.byte		        52*seq_033_mvl/mxv
	.byte	W02
	.byte		        49*seq_033_mvl/mxv
	.byte	W02
	.byte		        44*seq_033_mvl/mxv
	.byte	W01
	.byte		        41*seq_033_mvl/mxv
	.byte	W01
	.byte		        37*seq_033_mvl/mxv
	.byte	W01
	.byte		        34*seq_033_mvl/mxv
	.byte	W01
	.byte		        30*seq_033_mvl/mxv
	.byte	W01
	.byte		        27*seq_033_mvl/mxv
	.byte	W01
	.byte		        23*seq_033_mvl/mxv
	.byte	W01
	.byte		        19*seq_033_mvl/mxv
	.byte	W01
	.byte		        13*seq_033_mvl/mxv
	.byte	W01
	.byte		        9*seq_033_mvl/mxv
	.byte	W02
	.byte	PEND
	.byte	W96
	.byte	W96
	.byte	PATT
	 .word	seq_033_0 + 0x20
	.byte	PATT
	 .word	seq_033_0 + 0x46
	.byte	W96
	.byte	W96
	.byte	W96
	.byte	W96
	.byte	W96
	.byte	W96
	.byte	W96
	.byte	W96
	.byte	W96
	.byte	W96
	.byte	W96
	.byte	W96
	.byte	GOTO
	 .word	seq_033_0 + 0x1A
	.byte	FINE

@*********************** Track 02 ***********************@

seq_033_1:
	.byte	KEYSH , seq_033_key+0
	.byte	W03
	.byte		VOICE , 14
	.byte		VOL   , 37*seq_033_mvl/mxv
	.byte		LFODL , 0
	.byte	W01
	.byte		MOD   , 100
	.byte		PAN   , c_v+0
	.byte		BENDR , 2
	.byte	W01
	.byte		LFOS  , 25
	.byte		MODT  , mod_pan
	.byte	W42
	.byte	W01
	.byte	W96
	.byte	W96
	.byte	W96
	.byte	W96
	.byte	W96
	.byte	W96
	.byte	W96
	.byte	W96
	.byte	W96
	.byte	W96
	.byte	W96
	.byte	W96
	.byte	W96
	.byte	W96
	.byte	W96
	.byte	W96
	.byte		N03   , Fn3 , v112
	.byte	W08
	.byte		        Fn3 , v028
	.byte	W08
	.byte		        Fn3 , v016
	.byte	W08
	.byte		        Fn3 , v052
	.byte	W08
	.byte		        Fn3 , v028
	.byte	W08
	.byte		        Fn3 , v016
	.byte	W08
	.byte		        Gn3 , v112
	.byte	W08
	.byte		        Gn3 , v028
	.byte	W08
	.byte		        Gn3 , v016
	.byte	W08
	.byte		        Gn3 , v052
	.byte	W08
	.byte		        Gn3 , v028
	.byte	W08
	.byte		        Gn3 , v016
	.byte	W08
	.byte	PEND
	.byte		N03   , As3 , v112
	.byte	W08
	.byte		        As3 , v028
	.byte	W08
	.byte		        As3 , v016
	.byte	W08
	.byte		        As3 , v052
	.byte	W08
	.byte		        As3 , v028
	.byte	W08
	.byte		        As3 , v016
	.byte	W08
	.byte		        Cn4 , v112
	.byte	W08
	.byte		        Cn4 , v028
	.byte	W08
	.byte		        Cn4 , v016
	.byte	W08
	.byte		        Cn4 , v052
	.byte	W08
	.byte		        Cn4 , v028
	.byte	W08
	.byte		        Cn4 , v016
	.byte	W08
	.byte	PEND
	.byte	PATT
	 .word	seq_033_1 + 0x27
	.byte	PATT
	 .word	seq_033_1 + 0x4D
	.byte	PATT
	 .word	seq_033_1 + 0x27
	.byte	PATT
	 .word	seq_033_1 + 0x4D
	.byte	PATT
	 .word	seq_033_1 + 0x27
	.byte	PATT
	 .word	seq_033_1 + 0x4D
	.byte	W96
	.byte	W96
	.byte	W96
	.byte	W96
	.byte	GOTO
	 .word	seq_033_1 + 0x1B
	.byte	FINE

@*********************** Track 03 ***********************@

seq_033_2:
	.byte	KEYSH , seq_033_key+0
	.byte	W06
	.byte		VOICE , 51
	.byte		MOD   , 60
	.byte		VOL   , 34*seq_033_mvl/mxv
	.byte	W01
	.byte		PAN   , c_v-20
	.byte		LFOS  , 25
	.byte		MODT  , mod_tre
	.byte		LFODL , 9
	.byte	W40
	.byte	W01
	.byte	W96
	.byte	W96
	.byte	W96
	.byte	W96
	.byte	W96
	.byte	W96
	.byte	W96
	.byte	W68
	.byte	W03
	.byte		VOL   , 44*seq_033_mvl/mxv
	.byte	W01
	.byte		N24   , Gn2 , v120
	.byte	W24
	.byte	PEND
	.byte		N72   , Cn3 , v120
	.byte	W72
	.byte		N24   , Gn3 , v072
	.byte	W24
	.byte	PEND
	.byte		N48   , Fn3 , v120
	.byte	W48
	.byte		N40   , Dn3 
	.byte	W40
	.byte		N04   , Ds3 
	.byte	W04
	.byte		        Dn3 
	.byte	W04
	.byte	PEND
	.byte		N96   , Cn3 , v120
	.byte	W04
	.byte		VOL   , 40*seq_033_mvl/mxv
	.byte	W05
	.byte		        40*seq_033_mvl/mxv
	.byte	W04
	.byte		        39*seq_033_mvl/mxv
	.byte	W04
	.byte		        39*seq_033_mvl/mxv
	.byte	W04
	.byte		        38*seq_033_mvl/mxv
	.byte	W04
	.byte		        37*seq_033_mvl/mxv
	.byte	W04
	.byte		        37*seq_033_mvl/mxv
	.byte	W04
	.byte		        36*seq_033_mvl/mxv
	.byte	W04
	.byte		        35*seq_033_mvl/mxv
	.byte	W04
	.byte		        35*seq_033_mvl/mxv
	.byte	W04
	.byte		        31*seq_033_mvl/mxv
	.byte	W04
	.byte		        29*seq_033_mvl/mxv
	.byte	W04
	.byte		        27*seq_033_mvl/mxv
	.byte	W04
	.byte		        25*seq_033_mvl/mxv
	.byte	W04
	.byte		        23*seq_033_mvl/mxv
	.byte	W04
	.byte		        21*seq_033_mvl/mxv
	.byte	W04
	.byte		        19*seq_033_mvl/mxv
	.byte	W04
	.byte		        15*seq_033_mvl/mxv
	.byte	W04
	.byte		        12*seq_033_mvl/mxv
	.byte	W04
	.byte		        10*seq_033_mvl/mxv
	.byte	W04
	.byte		        7*seq_033_mvl/mxv
	.byte	W04
	.byte		        5*seq_033_mvl/mxv
	.byte	W04
	.byte		        2*seq_033_mvl/mxv
	.byte	W03
	.byte	PEND
	.byte	PATT
	 .word	seq_033_2 + 0x1B
	.byte	PATT
	 .word	seq_033_2 + 0x25
	.byte	PATT
	 .word	seq_033_2 + 0x2E
	.byte	PATT
	 .word	seq_033_2 + 0x3B
	.byte	W96
	.byte	W96
	.byte	W96
	.byte	W96
	.byte	W96
	.byte	W96
	.byte	W96
	.byte	W96
	.byte	W96
	.byte	W96
	.byte	W96
	.byte	W96
	.byte	W96
	.byte	GOTO
	 .word	seq_033_2 + 0x18
	.byte	FINE

@*********************** Track 04 ***********************@

seq_033_3:
	.byte	KEYSH , seq_033_key+0
	.byte	W07
	.byte		LFOS  , 30
	.byte		LFODL , 10
	.byte	W01
	.byte		VOICE , 51
	.byte		MOD   , 70
	.byte		VOL   , 34*seq_033_mvl/mxv
	.byte	W01
	.byte		PAN   , c_v+20
	.byte		MODT  , mod_tre
	.byte	W36
	.byte	W03
	.byte	W96
	.byte	W96
	.byte	W96
	.byte	W96
	.byte	W96
	.byte	W96
	.byte	W96
	.byte	W68
	.byte	W03
	.byte		VOL   , 44*seq_033_mvl/mxv
	.byte	W01
	.byte		N24   , Dn2 , v120
	.byte	W24
	.byte	PEND
	.byte		N72   , Gn2 , v120
	.byte	W72
	.byte		N24   , Dn3 , v076
	.byte	W24
	.byte	PEND
	.byte		N48   , Cn3 , v120
	.byte	W48
	.byte		N40   , An2 
	.byte	W40
	.byte		N04   , As2 
	.byte	W04
	.byte		        An2 
	.byte	W04
	.byte	PEND
	.byte		N96   , Gn2 , v120
	.byte	W04
	.byte		VOL   , 40*seq_033_mvl/mxv
	.byte	W05
	.byte		        40*seq_033_mvl/mxv
	.byte	W04
	.byte		        39*seq_033_mvl/mxv
	.byte	W04
	.byte		        39*seq_033_mvl/mxv
	.byte	W04
	.byte		        38*seq_033_mvl/mxv
	.byte	W04
	.byte		        37*seq_033_mvl/mxv
	.byte	W04
	.byte		        37*seq_033_mvl/mxv
	.byte	W04
	.byte		        36*seq_033_mvl/mxv
	.byte	W04
	.byte		        35*seq_033_mvl/mxv
	.byte	W04
	.byte		        35*seq_033_mvl/mxv
	.byte	W04
	.byte		        31*seq_033_mvl/mxv
	.byte	W04
	.byte		        29*seq_033_mvl/mxv
	.byte	W04
	.byte		        27*seq_033_mvl/mxv
	.byte	W04
	.byte		        25*seq_033_mvl/mxv
	.byte	W04
	.byte		        23*seq_033_mvl/mxv
	.byte	W04
	.byte		        21*seq_033_mvl/mxv
	.byte	W04
	.byte		        19*seq_033_mvl/mxv
	.byte	W04
	.byte		        15*seq_033_mvl/mxv
	.byte	W04
	.byte		        12*seq_033_mvl/mxv
	.byte	W04
	.byte		        10*seq_033_mvl/mxv
	.byte	W04
	.byte		        7*seq_033_mvl/mxv
	.byte	W04
	.byte		        5*seq_033_mvl/mxv
	.byte	W04
	.byte		        2*seq_033_mvl/mxv
	.byte	W03
	.byte	PEND
	.byte	PATT
	 .word	seq_033_3 + 0x1C
	.byte	PATT
	 .word	seq_033_3 + 0x26
	.byte	PATT
	 .word	seq_033_3 + 0x2F
	.byte	PATT
	 .word	seq_033_3 + 0x3C
	.byte	W96
	.byte	W96
	.byte	W96
	.byte	W96
	.byte	W96
	.byte	W96
	.byte	W96
	.byte	W96
	.byte	W96
	.byte	W96
	.byte	W96
	.byte	W96
	.byte	W96
	.byte	GOTO
	 .word	seq_033_3 + 0x19
	.byte	FINE

@*********************** Track 05 ***********************@

seq_033_4:
	.byte	KEYSH , seq_033_key+0
	.byte	W10
	.byte		VOICE , 95
	.byte		VOL   , 31*seq_033_mvl/mxv
	.byte		PAN   , c_v-30
	.byte	W01
	.byte		BENDR , 2
	.byte		LFOS  , 23
	.byte		MODT  , mod_tre
	.byte	W01
	.byte		MOD   , 0
	.byte	W36
	.byte	W96
	.byte	W96
	.byte	W96
	.byte	W96
	.byte	W96
	.byte	W96
	.byte	W96
	.byte	W96
	.byte	W96
	.byte	W96
	.byte	W96
	.byte	W96
	.byte	W96
	.byte	W96
	.byte	W96
	.byte	W68
	.byte	W03
	.byte		VOL   , 62*seq_033_mvl/mxv
	.byte		BEND  , c_v-64
	.byte	W01
	.byte		TIE   , Gn1 , v120
	.byte	W17
	.byte		BEND  , c_v-60
	.byte	W02
	.byte		        c_v-53
	.byte	W01
	.byte		        c_v-49
	.byte	W01
	.byte		        c_v-45
	.byte	W01
	.byte		        c_v-41
	.byte	W01
	.byte		        c_v-38
	.byte	W01
	.byte		BEND  , c_v-29
	.byte	W01
	.byte		        c_v-20
	.byte	W01
	.byte		        c_v-10
	.byte	W01
	.byte		        c_v+0
	.byte	W21
	.byte		VOL   , 62*seq_033_mvl/mxv
	.byte	W01
	.byte		        63*seq_033_mvl/mxv
	.byte	W01
	.byte		        64*seq_033_mvl/mxv
	.byte	W01
	.byte		        64*seq_033_mvl/mxv
	.byte	W01
	.byte		        66*seq_033_mvl/mxv
	.byte	W01
	.byte		        66*seq_033_mvl/mxv
	.byte	W01
	.byte		        67*seq_033_mvl/mxv
	.byte	W01
	.byte		        68*seq_033_mvl/mxv
	.byte	W01
	.byte		        69*seq_033_mvl/mxv
	.byte	W01
	.byte		        69*seq_033_mvl/mxv
	.byte	W01
	.byte		        70*seq_033_mvl/mxv
	.byte	W01
	.byte		        71*seq_033_mvl/mxv
	.byte	W01
	.byte		        72*seq_033_mvl/mxv
	.byte	W01
	.byte		        73*seq_033_mvl/mxv
	.byte	W01
	.byte		        73*seq_033_mvl/mxv
	.byte	W01
	.byte		        74*seq_033_mvl/mxv
	.byte	W01
	.byte		        75*seq_033_mvl/mxv
	.byte	W01
	.byte		        76*seq_033_mvl/mxv
	.byte	W01
	.byte		        76*seq_033_mvl/mxv
	.byte	W01
	.byte		        77*seq_033_mvl/mxv
	.byte	W01
	.byte		        78*seq_033_mvl/mxv
	.byte	W01
	.byte		        79*seq_033_mvl/mxv
	.byte	W01
	.byte		        80*seq_033_mvl/mxv
	.byte	W24
	.byte	W01
	.byte		        74*seq_033_mvl/mxv
	.byte	W03
	.byte		        74*seq_033_mvl/mxv
	.byte	W02
	.byte		        73*seq_033_mvl/mxv
	.byte	W03
	.byte		        73*seq_033_mvl/mxv
	.byte	W02
	.byte		        72*seq_033_mvl/mxv
	.byte	W03
	.byte		        71*seq_033_mvl/mxv
	.byte	W02
	.byte		        71*seq_033_mvl/mxv
	.byte	W02
	.byte		        70*seq_033_mvl/mxv
	.byte	W03
	.byte		        69*seq_033_mvl/mxv
	.byte	W02
	.byte		        69*seq_033_mvl/mxv
	.byte	W03
	.byte	PEND
	.byte		VOL   , 68*seq_033_mvl/mxv
	.byte	W02
	.byte		        68*seq_033_mvl/mxv
	.byte	W03
	.byte		        67*seq_033_mvl/mxv
	.byte	W02
	.byte		        66*seq_033_mvl/mxv
	.byte	W02
	.byte		        66*seq_033_mvl/mxv
	.byte	W03
	.byte		        65*seq_033_mvl/mxv
	.byte	W02
	.byte		        64*seq_033_mvl/mxv
	.byte	W03
	.byte		        64*seq_033_mvl/mxv
	.byte	W02
	.byte		        63*seq_033_mvl/mxv
	.byte	W02
	.byte		        62*seq_033_mvl/mxv
	.byte	W03
	.byte		        61*seq_033_mvl/mxv
	.byte	W02
	.byte		        60*seq_033_mvl/mxv
	.byte	W03
	.byte		        58*seq_033_mvl/mxv
	.byte	W02
	.byte		        57*seq_033_mvl/mxv
	.byte	W03
	.byte		        55*seq_033_mvl/mxv
	.byte	W02
	.byte		        54*seq_033_mvl/mxv
	.byte	W02
	.byte		        52*seq_033_mvl/mxv
	.byte	W03
	.byte		        51*seq_033_mvl/mxv
	.byte	W02
	.byte		        49*seq_033_mvl/mxv
	.byte	W03
	.byte		        45*seq_033_mvl/mxv
	.byte	W02
	.byte		        42*seq_033_mvl/mxv
	.byte	W03
	.byte		        37*seq_033_mvl/mxv
	.byte	W02
	.byte		        34*seq_033_mvl/mxv
	.byte	W02
	.byte		        31*seq_033_mvl/mxv
	.byte	W03
	.byte		        26*seq_033_mvl/mxv
	.byte	W02
	.byte		        21*seq_033_mvl/mxv
	.byte	W03
	.byte		        13*seq_033_mvl/mxv
	.byte	W02
	.byte		        8*seq_033_mvl/mxv
	.byte	W03
	.byte	PEND
	.byte		EOT   , Gn1 
	.byte	W03
	.byte		VOL   , 62*seq_033_mvl/mxv
	.byte		BEND  , c_v-64
	.byte	W01
	.byte		TIE   , Gn1 , v120
	.byte	W17
	.byte		BEND  , c_v-60
	.byte	W02
	.byte		        c_v-53
	.byte	W01
	.byte		        c_v-49
	.byte	W01
	.byte		        c_v-45
	.byte	W01
	.byte		        c_v-41
	.byte	W01
	.byte		        c_v-38
	.byte	W01
	.byte	PATT
	 .word	seq_033_4 + 0x3B
	.byte	PATT
	 .word	seq_033_4 + 0x89
	.byte		EOT   , Gn1 
	.byte	W03
	.byte		VOL   , 62*seq_033_mvl/mxv
	.byte		BEND  , c_v-64
	.byte	W01
	.byte		TIE   , Gn1 , v120
	.byte	W17
	.byte		BEND  , c_v-60
	.byte	W02
	.byte		        c_v-53
	.byte	W01
	.byte		        c_v-49
	.byte	W01
	.byte		        c_v-45
	.byte	W01
	.byte		        c_v-41
	.byte	W01
	.byte		        c_v-38
	.byte	W01
	.byte	PATT
	 .word	seq_033_4 + 0x3B
	.byte	PATT
	 .word	seq_033_4 + 0x89
	.byte		EOT   , Gn1 
	.byte	W03
	.byte		VOL   , 62*seq_033_mvl/mxv
	.byte		BEND  , c_v-64
	.byte	W01
	.byte		TIE   , Gn1 , v120
	.byte	W17
	.byte		BEND  , c_v-60
	.byte	W02
	.byte		        c_v-53
	.byte	W01
	.byte		        c_v-49
	.byte	W01
	.byte		        c_v-45
	.byte	W01
	.byte		        c_v-41
	.byte	W01
	.byte		        c_v-38
	.byte	W01
	.byte	PATT
	 .word	seq_033_4 + 0x3B
	.byte	PATT
	 .word	seq_033_4 + 0x89
	.byte		EOT   , Gn1 
	.byte	W28
	.byte	W96
	.byte	W96
	.byte	W96
	.byte	W96
	.byte	GOTO
	 .word	seq_033_4 + 0x18
	.byte	FINE

@*********************** Track 06 ***********************@

seq_033_5:
	.byte	KEYSH , seq_033_key+0
	.byte	W13
	.byte		VOICE , 95
	.byte		MOD   , 0
	.byte		VOL   , 31*seq_033_mvl/mxv
	.byte	W01
	.byte		PAN   , c_v+30
	.byte		BENDR , 2
	.byte		LFOS  , 23
	.byte	W01
	.byte		MODT  , mod_tre
	.byte	W32
	.byte	W01
	.byte	W96
	.byte	W96
	.byte	W96
	.byte	W96
	.byte	W96
	.byte	W96
	.byte	W96
	.byte	W96
	.byte	W96
	.byte	W96
	.byte	W96
	.byte	W96
	.byte	W96
	.byte	W96
	.byte	W96
	.byte	W68
	.byte	W03
	.byte		VOL   , 62*seq_033_mvl/mxv
	.byte		BEND  , c_v-64
	.byte	W01
	.byte		TIE   , Cn1 , v092
	.byte	W17
	.byte		BEND  , c_v-60
	.byte	W02
	.byte		        c_v-53
	.byte	W01
	.byte		        c_v-49
	.byte	W01
	.byte		        c_v-45
	.byte	W01
	.byte		        c_v-41
	.byte	W01
	.byte		        c_v-38
	.byte	W01
	.byte		BEND  , c_v-29
	.byte	W01
	.byte		        c_v-20
	.byte	W01
	.byte		        c_v-10
	.byte	W01
	.byte		        c_v+0
	.byte	W21
	.byte		VOL   , 62*seq_033_mvl/mxv
	.byte	W01
	.byte		        63*seq_033_mvl/mxv
	.byte	W01
	.byte		        64*seq_033_mvl/mxv
	.byte	W01
	.byte		        64*seq_033_mvl/mxv
	.byte	W01
	.byte		        66*seq_033_mvl/mxv
	.byte	W01
	.byte		        66*seq_033_mvl/mxv
	.byte	W01
	.byte		        67*seq_033_mvl/mxv
	.byte	W01
	.byte		        68*seq_033_mvl/mxv
	.byte	W01
	.byte		        69*seq_033_mvl/mxv
	.byte	W01
	.byte		        69*seq_033_mvl/mxv
	.byte	W01
	.byte		        70*seq_033_mvl/mxv
	.byte	W01
	.byte		        71*seq_033_mvl/mxv
	.byte	W01
	.byte		        72*seq_033_mvl/mxv
	.byte	W01
	.byte		        73*seq_033_mvl/mxv
	.byte	W01
	.byte		        73*seq_033_mvl/mxv
	.byte	W01
	.byte		        74*seq_033_mvl/mxv
	.byte	W01
	.byte		        75*seq_033_mvl/mxv
	.byte	W01
	.byte		        76*seq_033_mvl/mxv
	.byte	W01
	.byte		        76*seq_033_mvl/mxv
	.byte	W01
	.byte		        77*seq_033_mvl/mxv
	.byte	W01
	.byte		        78*seq_033_mvl/mxv
	.byte	W01
	.byte		        79*seq_033_mvl/mxv
	.byte	W01
	.byte		        80*seq_033_mvl/mxv
	.byte	W24
	.byte	W01
	.byte		        74*seq_033_mvl/mxv
	.byte	W03
	.byte		        74*seq_033_mvl/mxv
	.byte	W02
	.byte		        73*seq_033_mvl/mxv
	.byte	W03
	.byte		        73*seq_033_mvl/mxv
	.byte	W02
	.byte		        72*seq_033_mvl/mxv
	.byte	W03
	.byte		        71*seq_033_mvl/mxv
	.byte	W02
	.byte		        71*seq_033_mvl/mxv
	.byte	W02
	.byte		        70*seq_033_mvl/mxv
	.byte	W03
	.byte		        69*seq_033_mvl/mxv
	.byte	W02
	.byte		        69*seq_033_mvl/mxv
	.byte	W03
	.byte	PEND
	.byte		VOL   , 68*seq_033_mvl/mxv
	.byte	W02
	.byte		        68*seq_033_mvl/mxv
	.byte	W03
	.byte		        67*seq_033_mvl/mxv
	.byte	W02
	.byte		        66*seq_033_mvl/mxv
	.byte	W02
	.byte		        66*seq_033_mvl/mxv
	.byte	W03
	.byte		        65*seq_033_mvl/mxv
	.byte	W02
	.byte		        64*seq_033_mvl/mxv
	.byte	W03
	.byte		        64*seq_033_mvl/mxv
	.byte	W02
	.byte		        63*seq_033_mvl/mxv
	.byte	W02
	.byte		        62*seq_033_mvl/mxv
	.byte	W03
	.byte		        61*seq_033_mvl/mxv
	.byte	W02
	.byte		        60*seq_033_mvl/mxv
	.byte	W03
	.byte		        58*seq_033_mvl/mxv
	.byte	W02
	.byte		        57*seq_033_mvl/mxv
	.byte	W03
	.byte		        55*seq_033_mvl/mxv
	.byte	W02
	.byte		        54*seq_033_mvl/mxv
	.byte	W02
	.byte		        52*seq_033_mvl/mxv
	.byte	W03
	.byte		        51*seq_033_mvl/mxv
	.byte	W02
	.byte		        49*seq_033_mvl/mxv
	.byte	W03
	.byte		        45*seq_033_mvl/mxv
	.byte	W02
	.byte		        42*seq_033_mvl/mxv
	.byte	W03
	.byte		        37*seq_033_mvl/mxv
	.byte	W02
	.byte		        34*seq_033_mvl/mxv
	.byte	W02
	.byte		        31*seq_033_mvl/mxv
	.byte	W03
	.byte		        26*seq_033_mvl/mxv
	.byte	W02
	.byte		        21*seq_033_mvl/mxv
	.byte	W03
	.byte		        13*seq_033_mvl/mxv
	.byte	W02
	.byte		        8*seq_033_mvl/mxv
	.byte	W03
	.byte	PEND
	.byte		EOT   , Cn1 
	.byte	W03
	.byte		VOL   , 62*seq_033_mvl/mxv
	.byte		BEND  , c_v-64
	.byte	W01
	.byte		TIE   , Cn1 , v092
	.byte	W17
	.byte		BEND  , c_v-60
	.byte	W02
	.byte		        c_v-53
	.byte	W01
	.byte		        c_v-49
	.byte	W01
	.byte		        c_v-45
	.byte	W01
	.byte		        c_v-41
	.byte	W01
	.byte		        c_v-38
	.byte	W01
	.byte	PATT
	 .word	seq_033_5 + 0x3C
	.byte	PATT
	 .word	seq_033_5 + 0x8A
	.byte		EOT   , Cn1 
	.byte	W03
	.byte		VOL   , 62*seq_033_mvl/mxv
	.byte		BEND  , c_v-64
	.byte	W01
	.byte		TIE   , Cn1 , v092
	.byte	W17
	.byte		BEND  , c_v-60
	.byte	W02
	.byte		        c_v-53
	.byte	W01
	.byte		        c_v-49
	.byte	W01
	.byte		        c_v-45
	.byte	W01
	.byte		        c_v-41
	.byte	W01
	.byte		        c_v-38
	.byte	W01
	.byte	PATT
	 .word	seq_033_5 + 0x3C
	.byte	PATT
	 .word	seq_033_5 + 0x8A
	.byte		EOT   , Cn1 
	.byte	W03
	.byte		VOL   , 62*seq_033_mvl/mxv
	.byte		BEND  , c_v-64
	.byte	W01
	.byte		TIE   , Cn1 , v092
	.byte	W17
	.byte		BEND  , c_v-60
	.byte	W02
	.byte		        c_v-53
	.byte	W01
	.byte		        c_v-49
	.byte	W01
	.byte		        c_v-45
	.byte	W01
	.byte		        c_v-41
	.byte	W01
	.byte		        c_v-38
	.byte	W01
	.byte	PATT
	 .word	seq_033_5 + 0x3C
	.byte	PATT
	 .word	seq_033_5 + 0x8A
	.byte		EOT   , Cn1 
	.byte	W28
	.byte	W96
	.byte	W96
	.byte	W96
	.byte	W96
	.byte	GOTO
	 .word	seq_033_5 + 0x19
	.byte	FINE

@*********************** Track 07 ***********************@

seq_033_6:
	.byte	KEYSH , seq_033_key+0
	.byte	W16
	.byte		VOICE , 9
	.byte		VOL   , 80*seq_033_mvl/mxv
	.byte		PAN   , c_v+0
	.byte	W32
	.byte		N08   , Cn2 , v127
	.byte	W08
	.byte		        Gn2 , v092
	.byte	W08
	.byte		        Cn3 , v100
	.byte	W08
	.byte		        As2 , v040
	.byte	W08
	.byte		        Cn3 , v056
	.byte	W08
	.byte		        Gn2 , v032
	.byte	W08
	.byte		        Cn2 , v127
	.byte	W08
	.byte		        Gn2 , v092
	.byte	W08
	.byte		        Cn3 , v100
	.byte	W08
	.byte		        As2 , v040
	.byte	W08
	.byte		        Cn3 , v056
	.byte	W08
	.byte		        Gn2 , v032
	.byte	W08
	.byte	PEND
	.byte		N08   , Cn2 , v127
	.byte	W08
	.byte		        An2 , v092
	.byte	W08
	.byte		        Dn3 , v100
	.byte	W08
	.byte		        Cn3 , v040
	.byte	W08
	.byte		        Dn3 , v056
	.byte	W08
	.byte		        An2 , v032
	.byte	W08
	.byte		        Cn2 , v127
	.byte	W08
	.byte		        An2 , v092
	.byte	W08
	.byte		        Dn3 , v100
	.byte	W08
	.byte		        Cn3 , v040
	.byte	W08
	.byte		        Dn3 , v056
	.byte	W08
	.byte		        An2 , v032
	.byte	W08
	.byte	PEND
	.byte		N08   , Cn2 , v127
	.byte	W08
	.byte		        As2 , v092
	.byte	W08
	.byte		        Ds3 , v100
	.byte	W08
	.byte		        Dn3 , v020
	.byte	W08
	.byte		        Ds3 , v056
	.byte	W08
	.byte		        As2 , v032
	.byte	W08
	.byte		        Cn2 , v127
	.byte	W08
	.byte		        As2 , v092
	.byte	W08
	.byte		        Ds3 , v100
	.byte	W08
	.byte		        Dn3 , v020
	.byte	W08
	.byte		        Ds3 , v056
	.byte	W08
	.byte		        As2 , v032
	.byte	W08
	.byte	PEND
	.byte		N08   , Cn2 , v127
	.byte	W08
	.byte		        Fn2 , v092
	.byte	W08
	.byte		        Fn3 , v100
	.byte	W08
	.byte		        Ds3 , v020
	.byte	W08
	.byte		        Fn3 , v056
	.byte	W08
	.byte		        Cn3 , v032
	.byte	W08
	.byte		        Cn2 , v127
	.byte	W08
	.byte		        Fn2 , v092
	.byte	W08
	.byte		        Cn3 , v052
	.byte	W08
	.byte		        Dn3 , v100
	.byte	W08
	.byte		        Fn3 , v056
	.byte	W08
	.byte		        Gn3 , v032
	.byte	W08
	.byte	PEND
	.byte	PATT
	 .word	seq_033_6 + 0xA
	.byte	PATT
	 .word	seq_033_6 + 0x30
	.byte	PATT
	 .word	seq_033_6 + 0x56
	.byte	PATT
	 .word	seq_033_6 + 0x7C
	.byte	PATT
	 .word	seq_033_6 + 0xA
	.byte	PATT
	 .word	seq_033_6 + 0x30
	.byte	PATT
	 .word	seq_033_6 + 0x56
	.byte	PATT
	 .word	seq_033_6 + 0x7C
	.byte	PATT
	 .word	seq_033_6 + 0xA
	.byte	PATT
	 .word	seq_033_6 + 0x30
	.byte	PATT
	 .word	seq_033_6 + 0x56
	.byte	PATT
	 .word	seq_033_6 + 0x7C
	.byte	PATT
	 .word	seq_033_6 + 0xA
	.byte	PATT
	 .word	seq_033_6 + 0x30
	.byte	PATT
	 .word	seq_033_6 + 0x56
	.byte	PATT
	 .word	seq_033_6 + 0x7C
	.byte	PATT
	 .word	seq_033_6 + 0xA
	.byte	PATT
	 .word	seq_033_6 + 0x30
	.byte	PATT
	 .word	seq_033_6 + 0x56
	.byte	PATT
	 .word	seq_033_6 + 0x7C
	.byte	PATT
	 .word	seq_033_6 + 0xA
	.byte	PATT
	 .word	seq_033_6 + 0x30
	.byte	PATT
	 .word	seq_033_6 + 0x56
	.byte	PATT
	 .word	seq_033_6 + 0x7C
	.byte	GOTO
	 .word	seq_033_6 + 0xA2
	.byte	FINE

@*********************** Track 08 ***********************@

seq_033_7:
	.byte	KEYSH , seq_033_key+0
	.byte	W17
	.byte		VOICE , 127
	.byte		VOL   , 44*seq_033_mvl/mxv
	.byte		PAN   , c_v+0
	.byte	W30
	.byte	W01
	.byte		N02   , Fs1 , v112
	.byte	W04
	.byte		        Fs1 , v032
	.byte	W04
	.byte		N08   , En2 , v052
	.byte	W08
	.byte		N02   , Fs1 , v060
	.byte	W04
	.byte		        Fs1 , v032
	.byte	W04
	.byte		N08   , Ds2 , v060
	.byte	W08
	.byte		N02   , Fs1 , v112
	.byte	W04
	.byte		        Fs1 , v032
	.byte	W04
	.byte		        Fs1 , v060
	.byte	W04
	.byte		        Fs1 , v032
	.byte	W04
	.byte		        Fs1 , v112
	.byte	W08
	.byte		        Fs1 , v040
	.byte	W04
	.byte		        Fs1 , v032
	.byte	W04
	.byte		        Fs1 , v080
	.byte	W04
	.byte		        Fs1 , v032
	.byte	W04
	.byte		N08   , Ds2 , v060
	.byte	W08
	.byte		N02   , Fs1 
	.byte	W08
	.byte		N08   , En2 , v052
	.byte	W08
	.byte	PEND
	.byte		N02   , Fs1 , v112
	.byte	W04
	.byte		        Fs1 , v032
	.byte	W04
	.byte		        Fs1 , v060
	.byte	W04
	.byte		        Fs1 , v032
	.byte	W04
	.byte		        Fs1 , v080
	.byte	W04
	.byte		        Fs1 , v032
	.byte	W04
	.byte		N08   , Ds2 , v060
	.byte	W08
	.byte		N02   , Fs1 
	.byte	W08
	.byte		        Fs1 , v080
	.byte	W04
	.byte		        Fs1 , v032
	.byte	W04
	.byte		        Fs1 , v112
	.byte	W04
	.byte		        Fs1 , v032
	.byte	W04
	.byte		        Fs1 , v040
	.byte	W04
	.byte		        Fs1 , v032
	.byte	W04
	.byte		        Fs1 , v080
	.byte	W04
	.byte		        Fs1 , v032
	.byte	W04
	.byte		N08   , Ds2 , v060
	.byte	W08
	.byte		N02   , Fs1 
	.byte	W08
	.byte		N08   , En2 , v052
	.byte	W08
	.byte	PEND
	.byte	PATT
	 .word	seq_033_7 + 0xB
	.byte	PATT
	 .word	seq_033_7 + 0x49
	.byte	PATT
	 .word	seq_033_7 + 0xB
	.byte	PATT
	 .word	seq_033_7 + 0x49
	.byte	PATT
	 .word	seq_033_7 + 0xB
	.byte	PATT
	 .word	seq_033_7 + 0x49
	.byte	PATT
	 .word	seq_033_7 + 0xB
	.byte	PATT
	 .word	seq_033_7 + 0x49
	.byte	PATT
	 .word	seq_033_7 + 0xB
	.byte	PATT
	 .word	seq_033_7 + 0x49
	.byte	PATT
	 .word	seq_033_7 + 0xB
	.byte	PATT
	 .word	seq_033_7 + 0x49
	.byte	PATT
	 .word	seq_033_7 + 0xB
	.byte	PATT
	 .word	seq_033_7 + 0x49
	.byte	PATT
	 .word	seq_033_7 + 0xB
	.byte	PATT
	 .word	seq_033_7 + 0x49
	.byte	PATT
	 .word	seq_033_7 + 0xB
	.byte	PATT
	 .word	seq_033_7 + 0x49
	.byte	PATT
	 .word	seq_033_7 + 0xB
	.byte	PATT
	 .word	seq_033_7 + 0x49
	.byte	PATT
	 .word	seq_033_7 + 0xB
	.byte	PATT
	 .word	seq_033_7 + 0x49
	.byte	PATT
	 .word	seq_033_7 + 0xB
	.byte	PATT
	 .word	seq_033_7 + 0x49
	.byte		N02   , Fs1 , v112
	.byte	W04
	.byte		        Fs1 , v032
	.byte	W04
	.byte		N08   , En2 , v072
	.byte	W08
	.byte		N02   , Fs1 , v060
	.byte	W04
	.byte		        Fs1 , v032
	.byte	W04
	.byte		N08   , Ds2 , v072
	.byte	W08
	.byte		N02   , Fs1 , v112
	.byte	W04
	.byte		        Fs1 , v032
	.byte	W04
	.byte		        Fs1 , v060
	.byte	W04
	.byte		        Fs1 , v032
	.byte	W04
	.byte		        Fs1 , v112
	.byte	W08
	.byte		        Fs1 , v040
	.byte	W04
	.byte		        Fs1 , v032
	.byte	W04
	.byte		        Fs1 , v080
	.byte	W04
	.byte		        Fs1 , v032
	.byte	W04
	.byte		N08   , Ds2 , v072
	.byte	W08
	.byte		N02   , Fs1 , v060
	.byte	W08
	.byte		N08   , En2 , v072
	.byte	W08
	.byte		N02   , Fs1 , v112
	.byte	W04
	.byte		        Fs1 , v032
	.byte	W04
	.byte		        Fs1 , v060
	.byte	W04
	.byte		        Fs1 , v032
	.byte	W04
	.byte		        Fs1 , v080
	.byte	W04
	.byte		        Fs1 , v032
	.byte	W04
	.byte		N08   , Ds2 , v072
	.byte	W08
	.byte		N02   , Fs1 , v060
	.byte	W08
	.byte		        Fs1 , v080
	.byte	W04
	.byte		        Fs1 , v032
	.byte	W04
	.byte		        Fs1 , v112
	.byte	W04
	.byte		        Fs1 , v032
	.byte	W04
	.byte		        Fs1 , v040
	.byte	W04
	.byte		        Fs1 , v032
	.byte	W04
	.byte		        Fs1 , v080
	.byte	W04
	.byte		        Fs1 , v032
	.byte	W04
	.byte		N08   , Ds2 , v072
	.byte	W08
	.byte		N02   , Fs1 , v060
	.byte	W08
	.byte		N08   , En2 , v072
	.byte	W08
	.byte	GOTO
	 .word	seq_033_7 + 0x91
	.byte	FINE

@*********************** Track 09 ***********************@

seq_033_8:
	.byte	KEYSH , seq_033_key+0
	.byte	W18
	.byte		VOICE , 127
	.byte		VOL   , 69*seq_033_mvl/mxv
	.byte		PAN   , c_v+0
	.byte	W30
	.byte		N03   , Gs3 , v080
	.byte	W08
	.byte		        Gs3 , v020
	.byte	W08
	.byte		        Gs3 , v080
	.byte	W04
	.byte		        Gs3 , v020
	.byte	W12
	.byte		        Gs3 , v080
	.byte	W08
	.byte		        Gs3 , v020
	.byte	W08
	.byte		        Gs3 , v080
	.byte	W08
	.byte		N03
	.byte	W08
	.byte		N03
	.byte	W08
	.byte		N03
	.byte	W08
	.byte		        Gs3 , v020
	.byte	W08
	.byte		        Gs3 , v080
	.byte	W04
	.byte		        Gs3 , v032
	.byte	W04
	.byte	PEND
	.byte		N03   , Gs3 , v080
	.byte	W08
	.byte		        Gs3 , v020
	.byte	W08
	.byte		        Gs3 , v080
	.byte	W04
	.byte		        Gs3 , v020
	.byte	W12
	.byte		N03
	.byte	W08
	.byte		        Gs3 , v072
	.byte	W04
	.byte		        Gs3 , v032
	.byte	W04
	.byte		        Gs3 , v080
	.byte	W08
	.byte		N03
	.byte	W08
	.byte		        Gs3 , v020
	.byte	W08
	.byte		        Gs3 , v080
	.byte	W08
	.byte		        Gs3 , v020
	.byte	W08
	.byte		        Gs3 , v080
	.byte	W08
	.byte	PEND
	.byte	PATT
	 .word	seq_033_8 + 0xA
	.byte	PATT
	 .word	seq_033_8 + 0x30
	.byte	PATT
	 .word	seq_033_8 + 0xA
	.byte	PATT
	 .word	seq_033_8 + 0x30
	.byte	PATT
	 .word	seq_033_8 + 0xA
	.byte	PATT
	 .word	seq_033_8 + 0x30
	.byte	PATT
	 .word	seq_033_8 + 0xA
	.byte	PATT
	 .word	seq_033_8 + 0x30
	.byte	PATT
	 .word	seq_033_8 + 0xA
	.byte	PATT
	 .word	seq_033_8 + 0x30
	.byte	PATT
	 .word	seq_033_8 + 0xA
	.byte	PATT
	 .word	seq_033_8 + 0x30
	.byte	PATT
	 .word	seq_033_8 + 0xA
	.byte	PATT
	 .word	seq_033_8 + 0x30
	.byte	PATT
	 .word	seq_033_8 + 0xA
	.byte	PATT
	 .word	seq_033_8 + 0x30
	.byte	PATT
	 .word	seq_033_8 + 0xA
	.byte	PATT
	 .word	seq_033_8 + 0x30
	.byte	PATT
	 .word	seq_033_8 + 0xA
	.byte	PATT
	 .word	seq_033_8 + 0x30
	.byte	PATT
	 .word	seq_033_8 + 0xA
	.byte	PATT
	 .word	seq_033_8 + 0x30
	.byte	PATT
	 .word	seq_033_8 + 0xA
	.byte	PATT
	 .word	seq_033_8 + 0x30
	.byte	PATT
	 .word	seq_033_8 + 0xA
	.byte	PATT
	 .word	seq_033_8 + 0x30
	.byte	GOTO
	 .word	seq_033_8 + 0x61
	.byte	FINE

@*********************** Track 10 ***********************@

seq_033_9:
	.byte	KEYSH , seq_033_key+0
	.byte	W19
	.byte		VOICE , 52
	.byte		MOD   , 30
	.byte		MODT  , mod_pan
	.byte	W01
	.byte		VOL   , 53*seq_033_mvl/mxv
	.byte		PAN   , c_v-63
	.byte	W28
	.byte	W96
	.byte	W96
	.byte	W96
	.byte	W96
	.byte	W96
	.byte	W96
	.byte	W96
	.byte	W96
	.byte		N04   , Fn3 , v100
	.byte	W04
	.byte		        Fn3 , v028
	.byte	W04
	.byte		        Gn3 , v076
	.byte	W04
	.byte		        Gn3 , v028
	.byte	W04
	.byte		        Cn4 , v100
	.byte	W04
	.byte		        Cn4 , v028
	.byte	W04
	.byte		        Fn3 , v100
	.byte	W04
	.byte		        Fn3 , v028
	.byte	W04
	.byte		        Gn3 , v076
	.byte	W04
	.byte		        Gn3 , v028
	.byte	W04
	.byte		        Cn4 , v100
	.byte	W04
	.byte		        Cn4 , v028
	.byte	W04
	.byte		        Fn3 , v100
	.byte	W04
	.byte		        Fn3 , v028
	.byte	W04
	.byte		        Gn3 , v076
	.byte	W04
	.byte		        Gn3 , v028
	.byte	W04
	.byte		        Cn4 , v100
	.byte	W04
	.byte		        Cn4 , v028
	.byte	W04
	.byte		        Fn3 , v100
	.byte	W04
	.byte		        Fn3 , v028
	.byte	W04
	.byte		        Gn3 , v076
	.byte	W04
	.byte		        Gn3 , v028
	.byte	W04
	.byte		        Cn4 , v100
	.byte	W04
	.byte		        Cn4 , v028
	.byte	W04
	.byte	PEND
	.byte	PATT
	 .word	seq_033_9 + 0x17
	.byte	PATT
	 .word	seq_033_9 + 0x17
	.byte	PATT
	 .word	seq_033_9 + 0x17
	.byte	PATT
	 .word	seq_033_9 + 0x17
	.byte	PATT
	 .word	seq_033_9 + 0x17
	.byte	PATT
	 .word	seq_033_9 + 0x17
	.byte		N04   , Fn3 , v100
	.byte	W04
	.byte		        Fn3 , v028
	.byte	W04
	.byte		        Gn3 , v076
	.byte	W04
	.byte		        Gn3 , v028
	.byte	W04
	.byte		        Cn4 , v100
	.byte	W04
	.byte		        Cn4 , v028
	.byte	W04
	.byte		        Fn3 , v100
	.byte	W04
	.byte		        Fn3 , v028
	.byte	W04
	.byte		        Gn3 , v076
	.byte	W04
	.byte		        Gn3 , v028
	.byte	W04
	.byte		        Cn4 , v100
	.byte	W04
	.byte		        Cn4 , v028
	.byte	W04
	.byte		        Fn3 , v100
	.byte	W04
	.byte		        Fn3 , v028
	.byte	W04
	.byte		        Gn3 , v076
	.byte	W04
	.byte		        Gn3 , v028
	.byte	W04
	.byte		        Cn4 , v100
	.byte	W04
	.byte		        Cn4 , v028
	.byte	W04
	.byte		        Dn4 , v100
	.byte	W04
	.byte		        Dn4 , v028
	.byte	W04
	.byte		        Fn4 , v076
	.byte	W04
	.byte		        Fn4 , v028
	.byte	W04
	.byte		        Gn4 , v100
	.byte	W04
	.byte		        Gn4 , v028
	.byte	W04
	.byte	PEND
	.byte	PATT
	 .word	seq_033_9 + 0x17
	.byte	PATT
	 .word	seq_033_9 + 0x7F
	.byte	PATT
	 .word	seq_033_9 + 0x17
	.byte	PATT
	 .word	seq_033_9 + 0x7F
	.byte	PATT
	 .word	seq_033_9 + 0x17
	.byte	PATT
	 .word	seq_033_9 + 0x7F
	.byte	PATT
	 .word	seq_033_9 + 0x17
	.byte	PATT
	 .word	seq_033_9 + 0x7F
	.byte	W96
	.byte	W96
	.byte	W96
	.byte	W96
	.byte	GOTO
	 .word	seq_033_9 + 0x13
	.byte	FINE

@*********************** Track 11 ***********************@

seq_033_10:
	.byte	KEYSH , seq_033_key+0
	.byte	W21
	.byte		VOICE , 53
	.byte		MOD   , 30
	.byte		MODT  , mod_pan
	.byte	W01
	.byte		VOL   , 56*seq_033_mvl/mxv
	.byte		PAN   , c_v+63
	.byte	W24
	.byte	W02
	.byte	W96
	.byte	W96
	.byte	W96
	.byte	W96
	.byte	W96
	.byte	W96
	.byte	W96
	.byte	W96
	.byte		N03   , Cn3 , v076
	.byte	W04
	.byte		N02   , Cn3 , v028
	.byte	W04
	.byte		N03   , Dn3 , v076
	.byte	W04
	.byte		N02   , Dn3 , v028
	.byte	W04
	.byte		N03   , Gn3 , v100
	.byte	W04
	.byte		N02   , Gn3 , v028
	.byte	W04
	.byte		N03   , Cn3 , v076
	.byte	W04
	.byte		N02   , Cn3 , v028
	.byte	W04
	.byte		N03   , Dn3 , v076
	.byte	W04
	.byte		N02   , Dn3 , v028
	.byte	W04
	.byte		N03   , Gn3 , v100
	.byte	W04
	.byte		N02   , Gn3 , v028
	.byte	W04
	.byte		N03   , Cn3 , v076
	.byte	W04
	.byte		N02   , Cn3 , v028
	.byte	W04
	.byte		N03   , Dn3 , v076
	.byte	W04
	.byte		N02   , Dn3 , v028
	.byte	W04
	.byte		N03   , Gn3 , v100
	.byte	W04
	.byte		N02   , Gn3 , v028
	.byte	W04
	.byte		N03   , Cn3 , v076
	.byte	W04
	.byte		N02   , Cn3 , v028
	.byte	W04
	.byte		N03   , Dn3 , v076
	.byte	W04
	.byte		N02   , Dn3 , v028
	.byte	W04
	.byte		N03   , Gn3 , v100
	.byte	W04
	.byte		N02   , Gn3 , v028
	.byte	W04
	.byte	PEND
	.byte	PATT
	 .word	seq_033_10 + 0x18
	.byte	PATT
	 .word	seq_033_10 + 0x18
	.byte	PATT
	 .word	seq_033_10 + 0x18
	.byte	PATT
	 .word	seq_033_10 + 0x18
	.byte	PATT
	 .word	seq_033_10 + 0x18
	.byte	PATT
	 .word	seq_033_10 + 0x18
	.byte		N03   , Cn3 , v076
	.byte	W04
	.byte		N02   , Cn3 , v028
	.byte	W04
	.byte		N03   , Dn3 , v076
	.byte	W04
	.byte		N02   , Dn3 , v028
	.byte	W04
	.byte		N03   , Gn3 , v100
	.byte	W04
	.byte		N02   , Gn3 , v028
	.byte	W04
	.byte		N03   , Cn3 , v076
	.byte	W04
	.byte		N02   , Cn3 , v028
	.byte	W04
	.byte		N03   , Dn3 , v076
	.byte	W04
	.byte		N02   , Dn3 , v028
	.byte	W04
	.byte		N03   , Gn3 , v100
	.byte	W04
	.byte		N02   , Gn3 , v028
	.byte	W04
	.byte		N03   , Gn2 , v076
	.byte	W04
	.byte		N02   , Gn2 , v028
	.byte	W04
	.byte		N03   , Cn3 , v076
	.byte	W04
	.byte		N02   , Cn3 , v028
	.byte	W04
	.byte		N03   , Dn3 , v100
	.byte	W04
	.byte		N02   , Dn3 , v028
	.byte	W04
	.byte		N03   , Gn3 , v076
	.byte	W04
	.byte		N02   , Gn3 , v028
	.byte	W04
	.byte		N03   , Cn4 , v076
	.byte	W04
	.byte		N02   , Cn4 , v028
	.byte	W04
	.byte		N03   , Dn4 , v100
	.byte	W04
	.byte		N02   , Dn4 , v028
	.byte	W04
	.byte	PEND
	.byte	PATT
	 .word	seq_033_10 + 0x18
	.byte	PATT
	 .word	seq_033_10 + 0x97
	.byte	PATT
	 .word	seq_033_10 + 0x18
	.byte	PATT
	 .word	seq_033_10 + 0x97
	.byte	PATT
	 .word	seq_033_10 + 0x18
	.byte	PATT
	 .word	seq_033_10 + 0x97
	.byte	PATT
	 .word	seq_033_10 + 0x18
	.byte	PATT
	 .word	seq_033_10 + 0x97
	.byte	W96
	.byte	W96
	.byte	W96
	.byte	W96
	.byte	GOTO
	 .word	seq_033_10 + 0x14
	.byte	FINE

@******************************************************@

	.align	2

seq_033:
	.byte	11	@ NumTrks
	.byte	0	@ NumBlks
	.byte	seq_033_pri	@ Priority
	.byte	seq_033_rev	@ Reverb

	.word	seq_033_grp

	.word	seq_033_0
	.word	seq_033_1
	.word	seq_033_2
	.word	seq_033_3
	.word	seq_033_4
	.word	seq_033_5
	.word	seq_033_6
	.word	seq_033_7
	.word	seq_033_8
	.word	seq_033_9
	.word	seq_033_10

	.end
