@ File generated by m4a2s Song-Module
	.include "MPlayDef.s"

	.equ	seq_128_grp, bank_014
	.equ	seq_128_pri, 50
	.equ	seq_128_rev, 188
	.equ	seq_128_mvl, 127
	.equ	seq_128_key, 0

	.section .rodata
	.global	seq_128
	.align	2

@*********************** Track 01 ***********************@

seq_128_0:
	.byte	KEYSH , seq_128_key+0
	.byte	TEMPO , 240/2
	.byte		VOICE , 16
	.byte		VOL   , 75*seq_128_mvl/mxv
	.byte		PAN   , c_v+0
	.byte	W01
	.byte		MODT  , mod_vib
	.byte		LFODL , 100
	.byte	W01
	.byte		MOD   , 30
	.byte	W10
	.byte	TEMPO , 132/2
	.byte	W12
	.byte	W96
	.byte	W96
	.byte	W96
	.byte	W96
	.byte	W96
	.byte	W96
	.byte	W96
	.byte	W96
	.byte		N05   , Dn4 , v104
	.byte	W06
	.byte		N06   , Gn3 , v100
	.byte	W06
	.byte		N54   , Fn3 , v112
	.byte	W56
	.byte	W01
	.byte		N03   , Fs3 , v096
	.byte	W03
	.byte		N10   , Gn3 , v108
	.byte	W12
	.byte		N09   , Cn4 , v116
	.byte	W12
	.byte		N05   , As3 , v112
	.byte	W06
	.byte		N06   , Fn3 , v080
	.byte	W06
	.byte		N56   , En3 , v092
	.byte	W60
	.byte		N11   , Fn3 , v112
	.byte	W12
	.byte		N09   , Gs3 , v120
	.byte	W12
	.byte		N06   , Gn3 , v100
	.byte	W06
	.byte		N05   , Fn3 , v084
	.byte	W06
	.byte		N54   , Cn3 , v112
	.byte	W56
	.byte	W01
	.byte		N03   , Dn3 , v092
	.byte	W03
	.byte		N24   , En3 , v100
	.byte	W24
	.byte	PEND
	.byte		N30   , Dn3 , v092
	.byte	W36
	.byte		N06   , Dn3 , v084
	.byte	W06
	.byte		        En3 , v080
	.byte	W06
	.byte		N16   , Fn3 , v112
	.byte	W17
	.byte		N15   , Gn3 
	.byte	W18
	.byte		N09   , Cn4 , v116
	.byte	W13
	.byte		N05   , Dn4 , v104
	.byte	W06
	.byte		N06   , Gn3 , v100
	.byte	W06
	.byte		N54   , Fn3 , v112
	.byte	W56
	.byte	W01
	.byte		N03   , Fs3 , v096
	.byte	W03
	.byte		N10   , Gn3 , v108
	.byte	W12
	.byte		N09   , Cn4 , v112
	.byte	W12
	.byte		N05   , As3 
	.byte	W06
	.byte		N06   , Fn3 , v080
	.byte	W06
	.byte		N56   , En3 , v092
	.byte	W60
	.byte		N11   , Fn3 , v112
	.byte	W12
	.byte		N10   , Gs3 , v116
	.byte	W12
	.byte	PATT
	 .word	seq_128_0 + 0x4B
	.byte		N04   , Dn3 , v088
	.byte	W06
	.byte		N05   , Dn3 , v096
	.byte	W06
	.byte		        Cn3 , v092
	.byte	W06
	.byte		        Dn3 , v100
	.byte	W06
	.byte		N04   , Fn3 , v096
	.byte	W06
	.byte		N05
	.byte	W06
	.byte		        Dn3 , v092
	.byte	W06
	.byte		N04   , Fn3 , v100
	.byte	W06
	.byte		        Gn3 
	.byte	W06
	.byte		N05   , Gn3 , v108
	.byte	W06
	.byte		        Fn3 
	.byte	W06
	.byte		N04   , An3 , v096
	.byte	W06
	.byte		N03   , An3 , v100
	.byte	W06
	.byte		N05   , Fn3 , v112
	.byte	W06
	.byte		        An3 , v120
	.byte	W06
	.byte		        Cn4 , v124
	.byte	W06
	.byte		N03   , Dn4 , v116
	.byte	W06
	.byte		N05   , Dn4 , v120
	.byte	W05
	.byte		N06   , Dn3 , v108
	.byte	W07
	.byte		N05   , Dn4 , v116
	.byte	W17
	.byte		        Dn4 , v112
	.byte	W12
	.byte		N04   , Cn4 , v108
	.byte	W07
	.byte		        Dn4 , v116
	.byte	W06
	.byte		N05   , Dn3 , v100
	.byte	W06
	.byte		N05
	.byte	W18
	.byte		N06   , Fn3 , v080
	.byte	W06
	.byte		        Gn3 , v088
	.byte	W06
	.byte		N05   , Gs3 , v100
	.byte	W06
	.byte		N06   , Dn3 
	.byte	W06
	.byte		N05   , Dn3 , v088
	.byte	W06
	.byte		        Gn3 , v096
	.byte	W06
	.byte		N06   , Dn3 , v092
	.byte	W06
	.byte		        Dn3 , v076
	.byte	W05
	.byte		        Fn3 , v092
	.byte	W07
	.byte		N05   , Cn3 , v104
	.byte	W06
	.byte		        Bn2 , v088
	.byte	W06
	.byte		        Cn3 , v076
	.byte	W06
	.byte		N06   , Cs3 , v084
	.byte	W05
	.byte		        Dn3 , v088
	.byte	W07
	.byte		N05   , En3 
	.byte	W05
	.byte		N06   , Gn3 , v092
	.byte	W07
	.byte		        Cn4 , v096
	.byte	W12
	.byte		N04   , Dn4 , v116
	.byte	W06
	.byte		N03   , Dn4 , v112
	.byte	W05
	.byte		N05   , Dn3 , v108
	.byte	W06
	.byte		N04   , Dn4 , v116
	.byte	W18
	.byte		N05
	.byte	W13
	.byte		        Cn4 , v108
	.byte	W06
	.byte		        Dn4 , v116
	.byte	W06
	.byte		        Dn3 , v108
	.byte	W06
	.byte		        Dn3 , v104
	.byte	W30
	.byte		        Cn4 , v112
	.byte	W06
	.byte		        Dn3 , v108
	.byte	W06
	.byte		N03   , Dn3 , v092
	.byte	W06
	.byte		N05   , Bn3 , v108
	.byte	W06
	.byte		N04   , Dn3 
	.byte	W06
	.byte		        Dn3 , v100
	.byte	W06
	.byte		        Gn3 , v084
	.byte	W06
	.byte		N03   , Dn3 , v100
	.byte	W06
	.byte		N04   , Fn3 , v104
	.byte	W06
	.byte		N05   , En3 , v096
	.byte	W06
	.byte		        Dn3 , v100
	.byte	W06
	.byte		        Cn3 , v104
	.byte	W06
	.byte		        En3 , v120
	.byte	W06
	.byte		N07   , Dn3 , v112
	.byte	W18
	.byte		N05   , En4 , v096
	.byte	W06
	.byte		        En4 , v108
	.byte	W05
	.byte		N06   , En3 , v100
	.byte	W07
	.byte		N05   , En4 , v104
	.byte	W17
	.byte		N06   , En4 , v108
	.byte	W12
	.byte		        Dn4 , v096
	.byte	W07
	.byte		N05   , En4 , v104
	.byte	W06
	.byte		        En3 , v108
	.byte	W06
	.byte		N05
	.byte	W30
	.byte	W96
	.byte		N04   , En4 , v092
	.byte	W06
	.byte		        En4 , v104
	.byte	W05
	.byte		N05   , En3 , v092
	.byte	W07
	.byte		        En4 , v104
	.byte	W17
	.byte		N06   , En4 , v100
	.byte	W12
	.byte		N04   , Dn4 , v092
	.byte	W07
	.byte		N05   , En4 , v100
	.byte	W06
	.byte		        En3 , v104
	.byte	W06
	.byte		N05
	.byte	W30
	.byte		        Gn3 , v088
	.byte	W06
	.byte		        Dn3 , v116
	.byte	W06
	.byte		        Dn3 , v100
	.byte	W06
	.byte		N04   , An3 , v108
	.byte	W06
	.byte		        En3 , v092
	.byte	W05
	.byte		N05   , En3 , v116
	.byte	W07
	.byte		N04   , Bn3 , v104
	.byte	W06
	.byte		N06   , Fs3 , v112
	.byte	W06
	.byte		N03   , Ds3 , v088
	.byte	W05
	.byte		N05   , Cn4 , v096
	.byte	W07
	.byte		N04   , Gn3 , v108
	.byte	W06
	.byte		        En3 
	.byte	W06
	.byte		        Dn4 , v116
	.byte	W05
	.byte		        Fs3 
	.byte	W07
	.byte		N12   , Cn4 , v120
	.byte	W12
	.byte	W96
	.byte	W96
	.byte	W96
	.byte	W96
	.byte	W96
	.byte	W96
	.byte	GOTO
	 .word	seq_128_0 + 0x1A
	.byte	FINE

@*********************** Track 02 ***********************@

seq_128_1:
	.byte	KEYSH , seq_128_key+0
	.byte		VOICE , 8
	.byte		PAN   , c_v-30
	.byte		VOL   , 64*seq_128_mvl/mxv
	.byte	W01
	.byte		MODT  , mod_pan
	.byte		LFODL , 17
	.byte	W01
	.byte		MOD   , 60
	.byte	W10
	.byte	W12
	.byte	W24
	.byte		N03   , Ds2 , v068
	.byte	W06
	.byte		N05   , Ds2 , v072
	.byte	W06
	.byte		        Ds2 , v068
	.byte	W06
	.byte		        Ds2 , v080
	.byte	W30
	.byte		        Ds2 , v068
	.byte	W06
	.byte		        Ds2 , v076
	.byte	W06
	.byte		        Ds2 , v068
	.byte	W06
	.byte		        Ds2 , v080
	.byte	W06
	.byte	W36
	.byte		        Ds2 , v100
	.byte	W06
	.byte		        En2 , v108
	.byte	W06
	.byte		        As2 , v088
	.byte	W06
	.byte		        Cs3 , v112
	.byte	W06
	.byte		        En3 , v088
	.byte	W06
	.byte		        Gs3 , v116
	.byte	W06
	.byte		        Dn4 , v112
	.byte	W06
	.byte		        Gs3 , v080
	.byte	W06
	.byte		        Ds3 , v088
	.byte	W06
	.byte		        As2 , v072
	.byte	W06
	.byte	W24
	.byte		N03   , Ds2 , v068
	.byte	W06
	.byte		N05   , Ds2 , v076
	.byte	W06
	.byte		        Ds2 , v068
	.byte	W06
	.byte		        Ds2 , v080
	.byte	W30
	.byte		        Cn1 , v040
	.byte	W02
	.byte		        Dn1 , v044
	.byte	W02
	.byte		N04   , En1 , v048
	.byte	W02
	.byte		        Fn1 , v056
	.byte	W01
	.byte		        Gn1 , v064
	.byte	W02
	.byte		N03   , An1 , v076
	.byte	W02
	.byte		        Bn1 , v080
	.byte	W01
	.byte		N02   , Cn2 , v084
	.byte	W01
	.byte		N03   , Dn2 , v088
	.byte	W01
	.byte		N04   , En2 
	.byte	W02
	.byte		N03   , Fn2 
	.byte	W01
	.byte		        Gn2 
	.byte	W01
	.byte		        An2 , v104
	.byte	W01
	.byte		N02   , Bn2 , v100
	.byte	W02
	.byte		N01   , Cn3 , v104
	.byte	W03
	.byte		N16   , Cs3 , v084
	.byte		N16   , Gn3 
	.byte		N16   , Cn4 
	.byte	W18
	.byte		        Cn3 , v088
	.byte		N16   , Fs3 
	.byte		N16   , Bn3 
	.byte	W18
	.byte		        Bn2 
	.byte		N16   , Fn3 
	.byte		N16   , As3 
	.byte	W18
	.byte		        As2 
	.byte		N16   , En3 
	.byte		N16   , An3 
	.byte	W18
	.byte		N10   , An2 
	.byte		N10   , Ds3 
	.byte		N10   , Gs3 
	.byte	W12
	.byte		N07   , An2 , v072
	.byte		N07   , Ds3 
	.byte		N07   , Gs3 , v076
	.byte	W12
	.byte	W24
	.byte		N12   , Gn2 , v088
	.byte		N12   , As2 
	.byte	W18
	.byte		N03   , An2 , v092
	.byte		N03   , Cn3 , v096
	.byte	W30
	.byte		N11   , As2 , v088
	.byte		N11   , Dn3 
	.byte	W18
	.byte		N03   , An2 , v092
	.byte		N03   , Cn3 , v096
	.byte	W06
	.byte	W24
	.byte		N12   , Gn2 , v088
	.byte		N12   , As2 
	.byte	W18
	.byte		N03   , An2 
	.byte		N03   , Cn3 , v092
	.byte	W18
	.byte		N18   , Fs2 , v088
	.byte		N18   , An2 
	.byte	W24
	.byte		N08   , Gs2 , v100
	.byte	W12
	.byte	W24
	.byte		N12   , Gn2 , v088
	.byte		N12   , As2 
	.byte	W18
	.byte		N03   , An2 
	.byte		N03   , Cn3 , v096
	.byte	W30
	.byte		N12   , As2 , v088
	.byte		N12   , Dn3 
	.byte	W18
	.byte		N03   , An2 
	.byte		N03   , Cn3 
	.byte	W06
	.byte	W24
	.byte		N23   , As2 
	.byte		N23   , Dn3 
	.byte	W24
	.byte	W01
	.byte		N13   , Cn3 
	.byte		N13   , Ds3 , v096
	.byte	W15
	.byte		N17   , Dn3 , v088
	.byte		N17   , Fn3 , v096
	.byte	W20
	.byte		N15   , En3 , v088
	.byte		N15   , Gn3 , v100
	.byte	W12
	.byte	W24
	.byte		N12   , Gn2 , v072
	.byte		N12   , As2 
	.byte	W18
	.byte		N03   , An2 , v076
	.byte		N03   , Cn3 , v080
	.byte	W30
	.byte		N11   , As2 , v072
	.byte		N11   , Dn3 
	.byte	W18
	.byte		N03   , An2 , v076
	.byte		N03   , Cn3 , v080
	.byte	W06
	.byte	PEND
	.byte	W24
	.byte		N12   , Gn2 , v072
	.byte		N12   , As2 
	.byte	W18
	.byte		N03   , An2 
	.byte		N03   , Cn3 , v076
	.byte	W18
	.byte		N14   , Fs2 , v072
	.byte		N14   , An2 
	.byte	W22
	.byte		N08   , Gs2 , v084
	.byte	W14
	.byte	W24
	.byte		N12   , Gn2 , v072
	.byte		N12   , As2 
	.byte	W18
	.byte		N03   , An2 
	.byte		N03   , Cn3 , v080
	.byte	W30
	.byte		N12   , As2 , v072
	.byte		N12   , Dn3 
	.byte	W18
	.byte		N03   , An2 
	.byte		N03   , Cn3 
	.byte	W06
	.byte	PEND
	.byte	W24
	.byte		N23   , As2 
	.byte		N23   , Dn3 
	.byte	W24
	.byte	W01
	.byte		N13   , Cn3 
	.byte		N13   , Ds3 , v080
	.byte	W15
	.byte		N17   , Dn3 , v072
	.byte		N17   , Fn3 , v080
	.byte	W20
	.byte		N15   , En3 , v072
	.byte		N15   , Gn3 , v084
	.byte	W12
	.byte	PATT
	 .word	seq_128_1 + 0x11D
	.byte	W24
	.byte		N12   , Gn2 , v072
	.byte		N12   , As2 
	.byte	W18
	.byte		N03   , An2 
	.byte		N03   , Cn3 , v076
	.byte	W18
	.byte		N14   , Fs2 , v072
	.byte		N14   , An2 
	.byte	W22
	.byte		N09   , En2 , v084
	.byte		N09   , Gs2 
	.byte	W14
	.byte	PATT
	 .word	seq_128_1 + 0x150
	.byte	W24
	.byte		N23   , As2 , v072
	.byte		N23   , Dn3 
	.byte	W24
	.byte		N13   , Cn3 
	.byte		N13   , Ds3 , v080
	.byte	W16
	.byte		N17   , Dn3 , v072
	.byte		N17   , Fn3 , v080
	.byte	W19
	.byte		N15   , En3 , v072
	.byte		N15   , Gn3 , v084
	.byte	W13
	.byte	W96
	.byte	W96
	.byte	W96
	.byte		N04   , An3 , v108
	.byte		N04   , Cn4 , v112
	.byte	W06
	.byte		N03   , Dn3 , v084
	.byte	W06
	.byte		N04   , Dn3 , v104
	.byte	W06
	.byte		N05   , Gn3 
	.byte		N05   , Bn3 , v100
	.byte	W06
	.byte		N04   , Dn3 , v092
	.byte	W06
	.byte		N05   , Dn3 , v096
	.byte	W06
	.byte		        En3 , v108
	.byte		N05   , Gn3 , v084
	.byte	W06
	.byte		N03   , Dn3 , v088
	.byte	W06
	.byte		N05   , Fn3 , v104
	.byte	W06
	.byte		        En3 , v096
	.byte	W06
	.byte		N04   , Dn3 , v092
	.byte	W06
	.byte		        Cn3 , v088
	.byte	W06
	.byte		N05   , En3 , v112
	.byte	W06
	.byte		N07   , Dn3 , v116
	.byte	W18
	.byte	W84
	.byte		N06   , En3 
	.byte	W06
	.byte		        Fn3 
	.byte	W06
	.byte		        Fs3 , v120
	.byte	W06
	.byte		        Dn3 , v112
	.byte	W06
	.byte		N05   , Bn2 , v108
	.byte	W06
	.byte		        Gn2 , v088
	.byte	W06
	.byte		N06   , Fs2 , v076
	.byte	W06
	.byte		N05   , Dn2 , v068
	.byte	W06
	.byte		N07   , Bn1 , v080
	.byte	W06
	.byte		N06   , Dn2 , v088
	.byte	W06
	.byte		N07   , Cs2 , v096
	.byte	W06
	.byte		N06   , En2 , v100
	.byte	W06
	.byte		        Gs2 , v104
	.byte	W06
	.byte		        Bn2 , v108
	.byte	W06
	.byte		        An2 , v112
	.byte	W06
	.byte		        Cs3 , v116
	.byte	W06
	.byte		        En3 
	.byte	W06
	.byte		        Gs3 , v120
	.byte	W06
	.byte	W96
	.byte		N03   , Dn3 , v116
	.byte	W06
	.byte		N05   , Dn3 , v104
	.byte	W06
	.byte		        Gn2 
	.byte	W06
	.byte		N03   , En3 , v112
	.byte	W06
	.byte		N06   , En3 , v108
	.byte	W06
	.byte		N05   , An2 , v088
	.byte	W06
	.byte		N04   , Fs3 , v120
	.byte	W06
	.byte		N03   , Bn2 , v104
	.byte	W06
	.byte		N04   , Gn3 , v112
	.byte	W06
	.byte		N05   , Gn3 , v104
	.byte	W06
	.byte		        Cn3 , v096
	.byte	W06
	.byte		N03   , An3 , v108
	.byte	W06
	.byte		N06   , An3 , v096
	.byte	W06
	.byte		N04   , Dn3 
	.byte	W06
	.byte		N12   , Cn4 , v112
	.byte	W12
	.byte		N03   , Gs2 , v088
	.byte	W05
	.byte		N04   , Gs2 , v080
	.byte	W13
	.byte		N11   , Gs2 , v084
	.byte	W11
	.byte		N03   , Fs2 , v076
	.byte	W06
	.byte		N05   , Gs2 , v096
	.byte	W06
	.byte		N03   , Fs2 , v088
	.byte	W06
	.byte		N02   , Gs2 , v092
	.byte	W06
	.byte		N03   , Gs2 , v084
	.byte	W12
	.byte		N09   , Gs2 , v096
	.byte	W12
	.byte		N03   , Fs2 , v084
	.byte	W06
	.byte		N05   , Gs2 , v092
	.byte	W06
	.byte		        Fs2 , v084
	.byte	W07
	.byte		N02   , Bn2 , v088
	.byte	W06
	.byte		        Bn2 , v092
	.byte	W12
	.byte		N10
	.byte	W12
	.byte		N03   , An2 , v080
	.byte	W06
	.byte		N05   , Bn2 , v096
	.byte	W06
	.byte		N03   , An2 , v084
	.byte	W06
	.byte		N02   , Bn2 , v100
	.byte	W05
	.byte		        Bn2 , v076
	.byte	W13
	.byte		N11   , Bn2 , v092
	.byte	W12
	.byte		N04   , An2 , v088
	.byte	W06
	.byte		N05   , Bn2 , v096
	.byte	W06
	.byte		N02   , An2 
	.byte	W06
	.byte		N03   , Fs2 , v088
	.byte	W06
	.byte		N04   , Fs2 , v080
	.byte	W12
	.byte		N11   , Fs2 , v084
	.byte	W12
	.byte		N03   , En2 , v076
	.byte	W06
	.byte		N05   , Fs2 , v096
	.byte	W06
	.byte		N03   , En2 , v088
	.byte	W06
	.byte		N02   , Fs2 , v092
	.byte	W06
	.byte		N03   , Fs2 , v084
	.byte	W12
	.byte		N09   , Fs2 , v096
	.byte	W11
	.byte		N03   , En2 , v084
	.byte	W06
	.byte		N05   , Fs2 , v092
	.byte	W07
	.byte		        En2 , v084
	.byte	W06
	.byte		N02   , An2 , v088
	.byte	W06
	.byte		        An2 , v092
	.byte	W12
	.byte		N10
	.byte	W12
	.byte		N03   , Gn2 , v076
	.byte	W06
	.byte		N05   , An2 , v096
	.byte	W06
	.byte		N03   , Gn2 , v084
	.byte	W06
	.byte		N02   , Cn3 , v100
	.byte	W05
	.byte		        Cn3 , v076
	.byte	W13
	.byte		N11   , Cn3 , v092
	.byte	W12
	.byte		N04   , As2 , v088
	.byte	W06
	.byte		N08   , Cn3 , v092
	.byte	W12
	.byte		N03   , Ds3 , v116
	.byte	W06
	.byte		        Ds3 , v112
	.byte	W12
	.byte		        Ds3 , v108
	.byte	W06
	.byte		        Ds3 , v100
	.byte	W12
	.byte		        Ds3 , v096
	.byte	W06
	.byte		        Ds3 , v088
	.byte	W12
	.byte		N02   , Ds3 , v092
	.byte	W06
	.byte		N04   , Ds3 , v100
	.byte	W12
	.byte		        Gs2 , v096
	.byte	W05
	.byte		        Cn3 , v100
	.byte	W06
	.byte		        Fn3 , v104
	.byte	W07
	.byte		        As3 , v120
	.byte	W06
	.byte		N03   , Ds3 , v116
	.byte	W06
	.byte		        Ds3 , v112
	.byte	W12
	.byte		        Ds3 , v108
	.byte	W06
	.byte		        Ds3 , v120
	.byte	W12
	.byte		N03
	.byte	W06
	.byte		N03
	.byte	W12
	.byte		N03
	.byte	W06
	.byte		N04
	.byte	W12
	.byte		        As3 
	.byte	W05
	.byte		        Fn3 , v112
	.byte	W06
	.byte		        Cn3 , v124
	.byte	W07
	.byte		        Gs2 , v120
	.byte	W06
	.byte	GOTO
	 .word	seq_128_1 + 0xB8
	.byte	FINE

@*********************** Track 03 ***********************@

seq_128_2:
	.byte	KEYSH , seq_128_key+0
	.byte		VOICE , 7
	.byte		PAN   , c_v+36
	.byte		VOL   , 64*seq_128_mvl/mxv
	.byte	W02
	.byte		MOD   , 2
	.byte	W10
	.byte	W12
	.byte		N08   , Cs4 , v100
	.byte		N08   , Fs4 
	.byte	W12
	.byte		N06   , Cs4 , v116
	.byte		N06   , Fs4 
	.byte	W36
	.byte		N08   , Cs4 , v100
	.byte		N08   , Fs4 
	.byte	W12
	.byte		N06   , Cs4 , v116
	.byte		N06   , Fs4 
	.byte	W36
	.byte	PEND
	.byte		N08   , En4 , v112
	.byte		N08   , An4 , v104
	.byte	W12
	.byte		N06   , En4 , v120
	.byte		N06   , An4 , v112
	.byte	W24
	.byte		N04   , Ds2 , v104
	.byte	W06
	.byte		N03   , En2 , v108
	.byte	W06
	.byte		N04   , As2 , v096
	.byte	W06
	.byte		N03   , Cs3 , v112
	.byte	W06
	.byte		N04   , En3 , v096
	.byte	W06
	.byte		N03   , Gs3 , v120
	.byte	W06
	.byte		N05   , Dn4 , v127
	.byte	W06
	.byte		N03   , Gs3 , v088
	.byte	W06
	.byte		N04   , Ds3 , v120
	.byte	W06
	.byte		        As2 , v127
	.byte	W06
	.byte	PATT
	 .word	seq_128_2 + 0xD
	.byte	W96
	.byte	W96
	.byte	W96
	.byte	W96
	.byte	W96
	.byte	W96
	.byte	W96
	.byte	W96
	.byte	W96
	.byte	W96
	.byte	W96
	.byte	W96
	.byte	W96
	.byte		N04   , Dn4 , v127
	.byte	W06
	.byte		        Dn4 , v088
	.byte	W06
	.byte		        Dn3 , v120
	.byte	W06
	.byte		N06   , Dn4 , v127
	.byte	W18
	.byte		N04
	.byte	W12
	.byte		N06   , Cn4 
	.byte	W06
	.byte		        Dn4 , v112
	.byte	W06
	.byte		N04   , Dn3 , v124
	.byte	W06
	.byte		        Dn3 , v127
	.byte	W30
	.byte		        Gn3 , v108
	.byte	W06
	.byte		N03   , Gn3 , v112
	.byte	W30
	.byte		N04   , Gn3 , v108
	.byte	W06
	.byte		N03   , Gn3 , v116
	.byte	W30
	.byte		N04   , Gn3 , v108
	.byte	W05
	.byte		N03   , Gn3 , v112
	.byte	W19
	.byte		N04   , Dn4 , v124
	.byte	W06
	.byte		        Dn4 , v104
	.byte	W06
	.byte		        Dn3 , v112
	.byte	W06
	.byte		N06   , Dn4 , v120
	.byte	W18
	.byte		N04
	.byte	W12
	.byte		N06   , Cn4 
	.byte	W06
	.byte		        Dn4 , v104
	.byte	W06
	.byte		N04   , Dn3 , v116
	.byte	W06
	.byte		        Dn3 , v120
	.byte	W30
	.byte	W96
	.byte		N03   , En4 , v112
	.byte	W06
	.byte		        En4 , v120
	.byte	W06
	.byte		N04   , En3 , v100
	.byte	W06
	.byte		N03   , En4 , v124
	.byte	W18
	.byte		N04
	.byte	W12
	.byte		N06   , Dn4 , v092
	.byte	W06
	.byte		N03   , En4 , v108
	.byte	W06
	.byte		        En3 , v120
	.byte	W06
	.byte		N04   , En3 , v124
	.byte	W30
	.byte		        An3 , v100
	.byte	W06
	.byte		N03   , An3 , v092
	.byte	W30
	.byte		N04
	.byte	W06
	.byte		N03   , An3 , v100
	.byte	W30
	.byte		N04   , An3 , v104
	.byte	W05
	.byte		N03   , An3 , v112
	.byte	W18
	.byte		        En4 , v108
	.byte	W01
	.byte	W05
	.byte		        En4 , v120
	.byte	W06
	.byte		N04   , En3 , v100
	.byte	W06
	.byte		N03   , En4 , v124
	.byte	W18
	.byte		N04
	.byte	W12
	.byte		N06   , Dn4 , v092
	.byte	W06
	.byte		N03   , En4 , v108
	.byte	W06
	.byte		        En3 , v120
	.byte	W06
	.byte		N04   , En3 , v124
	.byte	W30
	.byte	W01
	.byte	W92
	.byte	W03
	.byte		VOL   , 75*seq_128_mvl/mxv
	.byte	W01
	.byte		N30   , An2 , v072
	.byte	W36
	.byte		N05   , Bn3 , v116
	.byte	W12
	.byte		N04   , En4 , v104
	.byte	W06
	.byte		        Ds4 , v116
	.byte	W12
	.byte		N16   , Bn3 , v120
	.byte	W18
	.byte		N03   , Cs4 , v127
	.byte	W12
	.byte		N04   , Dn4 , v104
	.byte	W06
	.byte		        Cs4 , v124
	.byte	W12
	.byte		N60   , An3 , v120
	.byte	W78
	.byte		N32   , Gn2 , v072
	.byte	W36
	.byte		N04   , Gn3 , v112
	.byte	W12
	.byte		N06   , Cn4 , v116
	.byte	W06
	.byte		N03   , Bn3 , v108
	.byte	W12
	.byte		N16   , Gn3 
	.byte	W18
	.byte		N03   , An3 , v120
	.byte	W12
	.byte		N05   , As3 , v127
	.byte	W06
	.byte		N03   , An3 , v100
	.byte	W12
	.byte		N24   , Fn3 , v104
	.byte	W30
	.byte		N04   , Cs4 , v120
	.byte	W06
	.byte		        Cn4 , v096
	.byte	W12
	.byte		N16   , Gs3 , v100
	.byte	W18
	.byte		N04   , As3 , v120
	.byte	W12
	.byte		        Bn3 , v096
	.byte	W06
	.byte		N03   , Bn3 , v088
	.byte	W12
	.byte		N04   , Bn3 , v096
	.byte	W06
	.byte		N03   , Bn3 , v112
	.byte	W12
	.byte		N04   , Bn3 , v096
	.byte	W06
	.byte		N03   , Bn3 , v108
	.byte	W12
	.byte		N04   , Bn3 , v096
	.byte	W06
	.byte		N03   , Bn3 , v108
	.byte	W12
	.byte		N05   , Gs2 , v104
	.byte	W06
	.byte		N03   , Cn3 , v112
	.byte	W06
	.byte		N04   , Fn3 , v116
	.byte	W06
	.byte		N03   , As3 , v120
	.byte	W06
	.byte		N05   , Bn3 , v116
	.byte	W06
	.byte		N03
	.byte	W12
	.byte		N05   , Bn3 , v104
	.byte	W06
	.byte		N03   , Bn3 , v112
	.byte	W12
	.byte		N05   , Bn3 , v104
	.byte	W05
	.byte		N02   , Bn3 , v108
	.byte	W12
	.byte		N04   , Bn3 , v100
	.byte	W06
	.byte		N03   , Bn3 , v108
	.byte	W13
	.byte		N04   , As3 , v104
	.byte	W06
	.byte		N03   , Fn3 , v100
	.byte	W06
	.byte		        Cn3 , v092
	.byte	W06
	.byte		N04   , Gs2 , v100
	.byte	W06
	.byte	GOTO
	 .word	seq_128_2 + 0x61
	.byte	FINE

@*********************** Track 04 ***********************@

seq_128_3:
	.byte	KEYSH , seq_128_key+0
	.byte		VOICE , 8
	.byte		VOL   , 64*seq_128_mvl/mxv
	.byte		PAN   , c_v+31
	.byte	W01
	.byte		MODT  , mod_pan
	.byte		LFODL , 17
	.byte	W01
	.byte		MOD   , 60
	.byte	W10
	.byte	W12
	.byte	W24
	.byte		N03   , Ds1 , v068
	.byte	W06
	.byte		N05   , Ds1 , v072
	.byte	W06
	.byte		        Ds1 , v068
	.byte	W06
	.byte		        Ds1 , v080
	.byte	W30
	.byte		N03   , Ds1 , v068
	.byte	W06
	.byte		N05   , Ds1 , v072
	.byte	W06
	.byte		        Ds1 , v068
	.byte	W06
	.byte		        Ds1 , v080
	.byte	W06
	.byte	W96
	.byte	W24
	.byte		N03   , Ds1 , v068
	.byte	W06
	.byte		N05   , Ds1 , v072
	.byte	W06
	.byte		        Ds1 , v068
	.byte	W06
	.byte		        Ds1 , v080
	.byte	W54
	.byte	W96
	.byte		N05   , Dn2 , v080
	.byte	W06
	.byte		N05
	.byte	W12
	.byte		N05
	.byte	W06
	.byte		N10   , Ds2 
	.byte	W12
	.byte		N05   , Dn2 
	.byte	W06
	.byte		N04   , Fn2 
	.byte	W12
	.byte		N05   , Dn2 
	.byte	W12
	.byte		N05
	.byte	W06
	.byte		N10   , Gn2 
	.byte	W12
	.byte		N05   , Dn2 
	.byte	W06
	.byte		        Fn2 
	.byte	W06
	.byte	PEND
	.byte		        Dn2 
	.byte	W06
	.byte		N05
	.byte	W12
	.byte		N05
	.byte	W06
	.byte		N10   , Ds2 
	.byte	W12
	.byte		N05   , Dn2 
	.byte	W06
	.byte		N04   , Fn2 
	.byte	W06
	.byte		N05   , Dn2 
	.byte	W06
	.byte		N05
	.byte	W06
	.byte		N14
	.byte	W24
	.byte		N09   , Bn1 
	.byte	W12
	.byte	PATT
	 .word	seq_128_3 + 0x40
	.byte		N05   , Dn2 , v080
	.byte	W06
	.byte		N05
	.byte	W12
	.byte		N05
	.byte	W06
	.byte		N16   , Gn2 
	.byte	W18
	.byte		N05   , Dn2 , v064
	.byte	W06
	.byte		N15   , Gs2 , v076
	.byte	W18
	.byte		N14   , As2 , v084
	.byte	W18
	.byte		N09   , Cn3 , v096
	.byte	W12
	.byte		N05   , Dn2 , v060
	.byte	W06
	.byte		        Dn2 , v064
	.byte	W12
	.byte		N05
	.byte	W06
	.byte		N10   , Ds2 
	.byte	W12
	.byte		N05   , Dn2 
	.byte	W06
	.byte		N04   , Fn2 
	.byte	W12
	.byte		N05   , Dn2 
	.byte	W12
	.byte		N05
	.byte	W06
	.byte		N10   , Gn2 
	.byte	W12
	.byte		N05   , Dn2 
	.byte	W06
	.byte		        Fn2 
	.byte	W06
	.byte		        Dn2 
	.byte	W06
	.byte		N05
	.byte	W12
	.byte		N05
	.byte	W06
	.byte		N10   , Ds2 
	.byte	W12
	.byte		N05   , Dn2 
	.byte	W06
	.byte		N04   , Fn2 
	.byte	W06
	.byte		N05   , Dn2 
	.byte	W06
	.byte		N05
	.byte	W06
	.byte		N14
	.byte	W24
	.byte		N09   , Bn1 
	.byte	W12
	.byte		N05   , Dn2 
	.byte	W06
	.byte		N05
	.byte	W12
	.byte		N05
	.byte	W06
	.byte		N10   , Ds2 
	.byte	W12
	.byte		N05   , Dn2 
	.byte	W06
	.byte		N04   , Fn2 
	.byte	W12
	.byte		N05   , Dn2 
	.byte	W12
	.byte		N05
	.byte	W06
	.byte		N10   , Gn2 
	.byte	W12
	.byte		N05   , Dn2 
	.byte	W06
	.byte		        Fn2 
	.byte	W06
	.byte		        Dn2 
	.byte	W06
	.byte		N05
	.byte	W12
	.byte		N05
	.byte	W06
	.byte		N16   , Gn2 
	.byte	W18
	.byte		N05   , Dn2 
	.byte	W06
	.byte		N15   , Gs2 , v072
	.byte	W18
	.byte		N14   , As2 , v080
	.byte	W18
	.byte		N09   , Cn3 , v096
	.byte	W12
	.byte		N05   , Dn2 , v072
	.byte	W06
	.byte		N05
	.byte	W12
	.byte		N05
	.byte	W06
	.byte		N10   , Ds2 
	.byte	W12
	.byte		N05   , Dn2 
	.byte	W06
	.byte		N04   , Fn2 
	.byte	W12
	.byte		N05   , Dn2 
	.byte	W12
	.byte		N05
	.byte	W06
	.byte		N10   , Gn2 
	.byte	W12
	.byte		N05   , Dn2 
	.byte	W06
	.byte		        Fn2 
	.byte	W06
	.byte	PEND
	.byte		        Dn2 
	.byte	W06
	.byte		N05
	.byte	W12
	.byte		N05
	.byte	W06
	.byte		N10   , Ds2 
	.byte	W12
	.byte		N05   , Dn2 
	.byte	W06
	.byte		N04   , Fn2 
	.byte	W06
	.byte		N05   , Dn2 
	.byte	W06
	.byte		N05
	.byte	W06
	.byte		N14
	.byte	W24
	.byte		N09   , Bn1 
	.byte	W12
	.byte	PATT
	 .word	seq_128_3 + 0x105
	.byte		N05   , Dn2 , v072
	.byte	W06
	.byte		N05
	.byte	W12
	.byte		N05
	.byte	W06
	.byte		N16   , Gn2 
	.byte	W18
	.byte		N05   , Dn2 , v080
	.byte	W06
	.byte		N15   , Gs2 , v104
	.byte	W18
	.byte		N14   , As2 , v112
	.byte	W18
	.byte		N09   , Cn3 , v116
	.byte	W12
	.byte	W96
	.byte	W96
	.byte	W96
	.byte	W96
	.byte	W96
	.byte	W96
	.byte	W96
	.byte		N02   , Bn2 , v112
	.byte	W05
	.byte		N06   , Bn2 , v084
	.byte	W13
	.byte		N03   , Cs3 , v127
	.byte	W06
	.byte		N06   , Cs3 , v112
	.byte	W12
	.byte		N05   , Ds3 , v127
	.byte	W12
	.byte		N03   , En3 , v112
	.byte	W06
	.byte		N05   , En3 , v104
	.byte	W12
	.byte		N03   , Fs3 , v120
	.byte	W06
	.byte		N06
	.byte	W12
	.byte		N11   , An3 , v112
	.byte	W12
	.byte		N04   , Cs3 , v092
	.byte	W06
	.byte		N05   , Cs3 , v096
	.byte	W12
	.byte		N10   , Cs3 , v092
	.byte	W17
	.byte		N05   , Cs3 , v104
	.byte	W12
	.byte		N03   , Cs3 , v100
	.byte	W07
	.byte		        Cs3 , v084
	.byte	W12
	.byte		N10   , Cs3 , v092
	.byte	W18
	.byte		N05   , Cs3 , v100
	.byte	W12
	.byte		N02   , En3 , v104
	.byte	W06
	.byte		N03   , En3 , v084
	.byte	W12
	.byte		N09
	.byte	W17
	.byte		N04   , En3 , v104
	.byte	W13
	.byte		N02   , En3 , v108
	.byte	W06
	.byte		        En3 , v088
	.byte	W12
	.byte		N10   , En3 , v096
	.byte	W18
	.byte		N05   , En3 , v084
	.byte	W12
	.byte		N04   , Bn2 , v092
	.byte	W06
	.byte		N05   , Bn2 , v096
	.byte	W12
	.byte		N10   , Bn2 , v092
	.byte	W17
	.byte		N05   , Bn2 , v104
	.byte	W12
	.byte		N03   , Bn2 , v100
	.byte	W07
	.byte		        Bn2 , v084
	.byte	W12
	.byte		N10   , Bn2 , v092
	.byte	W18
	.byte		N05   , Bn2 , v100
	.byte	W12
	.byte		N02   , Dn3 , v104
	.byte	W06
	.byte		N03   , Dn3 , v084
	.byte	W12
	.byte		N09
	.byte	W17
	.byte		N04   , Dn3 , v104
	.byte	W13
	.byte		N02   , Fn3 , v108
	.byte	W06
	.byte		        Fn3 , v088
	.byte	W12
	.byte		N10   , Fn3 , v096
	.byte	W18
	.byte		N06   , Fn3 , v112
	.byte	W12
	.byte		N03   , Gn2 , v120
	.byte	W06
	.byte		N02
	.byte	W12
	.byte		N03   , Gn2 , v112
	.byte	W06
	.byte		        Gn2 , v100
	.byte	W12
	.byte		N02
	.byte	W06
	.byte		N03
	.byte	W12
	.byte		N02
	.byte	W06
	.byte		N03   , Gn2 , v120
	.byte	W36
	.byte		N03
	.byte	W06
	.byte		        Gn2 , v124
	.byte	W12
	.byte		        Gn2 , v112
	.byte	W06
	.byte		        Gn2 , v120
	.byte	W12
	.byte		N02
	.byte	W06
	.byte		N03
	.byte	W12
	.byte		        Gn2 , v124
	.byte	W06
	.byte		        Gn2 , v120
	.byte	W36
	.byte	GOTO
	 .word	seq_128_3 + 0x40
	.byte	FINE

@*********************** Track 05 ***********************@

seq_128_4:
	.byte	KEYSH , seq_128_key+0
	.byte		VOICE , 127
	.byte	W03
	.byte		VOL   , 53*seq_128_mvl/mxv
	.byte		PAN   , c_v+0
	.byte	W09
	.byte	W12
	.byte		N03   , Dn4 , v120
	.byte		N05   , En5 , v080
	.byte	W09
	.byte		N03   , Dn4 , v076
	.byte	W03
	.byte		        Dn4 , v120
	.byte		N05   , En5 , v084
	.byte	W12
	.byte		N03   , Cn4 , v120
	.byte	W06
	.byte		        Cn4 , v080
	.byte		N04   , Fs4 , v076
	.byte	W06
	.byte		N03   , Cn4 , v120
	.byte	W06
	.byte		        Cn4 , v108
	.byte		N04   , Fs4 , v052
	.byte	W06
	.byte		N03   , Dn4 , v120
	.byte	W06
	.byte		N05   , Fs4 , v076
	.byte	W06
	.byte		N03   , Dn4 , v120
	.byte	W06
	.byte		N05   , Fs4 , v052
	.byte	W03
	.byte		N03   , Dn4 , v064
	.byte	W03
	.byte		        Dn4 , v120
	.byte	W06
	.byte		        Cn4 , v080
	.byte		N05   , Fs4 , v076
	.byte	W06
	.byte		N03   , Cn4 , v108
	.byte	W06
	.byte		        Cn4 , v076
	.byte		N11   , En5 , v088
	.byte	W03
	.byte		N03   , Cn4 , v100
	.byte	W03
	.byte		        Dn4 , v120
	.byte	W06
	.byte		N05   , Fs4 , v076
	.byte	W06
	.byte		N03   , Dn4 , v120
	.byte	W06
	.byte		        Cn4 
	.byte		N05   , Fs4 , v052
	.byte	W06
	.byte		N03   , Cn4 , v080
	.byte	W06
	.byte		        Dn4 , v120
	.byte		N05   , Fs4 , v076
	.byte	W12
	.byte		N03   , Gn4 , v084
	.byte	W06
	.byte		        Cn4 , v120
	.byte	W06
	.byte		        Gn4 , v084
	.byte	W06
	.byte		        Cn4 , v080
	.byte	W09
	.byte		        Dn4 , v092
	.byte	W03
	.byte		        Dn4 , v120
	.byte		N05   , En5 , v076
	.byte	W06
	.byte		N03   , Dn4 , v104
	.byte	W06
	.byte		        Cn4 , v080
	.byte	W12
	.byte		        Dn4 , v120
	.byte		N05   , Fs4 , v080
	.byte	W06
	.byte		N03   , Cn4 , v120
	.byte		N05   , Fs4 , v052
	.byte	W06
	.byte		N03   , Dn4 , v120
	.byte		N11   , En5 , v088
	.byte	W09
	.byte		N03   , Dn4 , v064
	.byte	W03
	.byte		        Cn4 , v108
	.byte	W06
	.byte		        Cn4 , v120
	.byte		N04   , Fs4 , v076
	.byte	W06
	.byte		N03   , Cn4 , v080
	.byte	W06
	.byte		N04   , Fs4 , v052
	.byte	W06
	.byte		N03   , Dn4 , v120
	.byte	W06
	.byte		        Cn4 
	.byte		N05   , Fs4 , v076
	.byte	W06
	.byte		N03   , Dn4 , v120
	.byte	W06
	.byte		N05   , Fs4 , v052
	.byte	W03
	.byte		N03   , Dn4 , v064
	.byte	W03
	.byte		        Dn4 , v120
	.byte	W06
	.byte		        Cn4 , v100
	.byte		N05   , Fs4 , v096
	.byte	W06
	.byte		N03   , Dn4 , v092
	.byte	W03
	.byte		        Dn4 , v104
	.byte	W03
	.byte		        Dn4 , v120
	.byte		N05   , Fs4 , v088
	.byte	W06
	.byte		N03   , Cn4 , v120
	.byte		N05   , En5 , v076
	.byte	W12
	.byte		        Fs4 , v052
	.byte	W06
	.byte		N03   , Cn4 , v120
	.byte		N05   , En5 , v076
	.byte	W06
	.byte		N03   , Dn4 , v120
	.byte	W06
	.byte		N05   , Fs4 , v052
	.byte	W06
	.byte		N03   , Cn4 , v120
	.byte		N05   , En5 , v076
	.byte	W06
	.byte		N03   , Gn4 , v084
	.byte	W06
	.byte		N05   , Fs4 , v052
	.byte	W06
	.byte		N03   , Cn4 , v120
	.byte		N03   , Gn4 , v084
	.byte		N05   , En5 , v076
	.byte	W12
	.byte		N03   , Dn4 , v084
	.byte		N05   , Fs4 , v064
	.byte	W03
	.byte		N03   , Dn4 , v096
	.byte	W03
	.byte		        Dn4 , v120
	.byte		N05   , En5 , v076
	.byte	W06
	.byte		N03   , Cn4 , v120
	.byte		N05   , Fs4 , v064
	.byte	W06
	.byte		N03   , Dn4 , v120
	.byte		N11   , En5 , v088
	.byte	W06
	.byte		N03   , Cn4 , v080
	.byte	W06
	.byte		N03   , Cn4 , v120
	.byte		N05   , Fs4 , v076
	.byte	W06
	.byte		N03   , Cn4 , v080
	.byte	W06
	.byte		N05   , En5 , v076
	.byte	W06
	.byte		        Fs4 , v052
	.byte	W06
	.byte		N03   , Dn4 , v120
	.byte	W06
	.byte		N05   , Fs4 , v076
	.byte	W06
	.byte		        Fs4 , v052
	.byte	W06
	.byte		N03   , Gn4 , v084
	.byte	W06
	.byte		N05   , Fs4 , v076
	.byte	W06
	.byte		N03   , Cn4 , v120
	.byte	W06
	.byte		N05   , Fs4 , v068
	.byte	W06
	.byte		N03   , Cn4 , v080
	.byte	W06
	.byte		        Dn4 , v120
	.byte	W06
	.byte		N05   , Fs4 , v076
	.byte	W06
	.byte		        Fs4 , v052
	.byte		N03   , Gn4 , v104
	.byte	W06
	.byte		        Gn4 , v084
	.byte	W06
	.byte	PEND
	.byte		N03   , Cn4 , v120
	.byte		N05   , Fs4 , v076
	.byte	W06
	.byte		N03   , Cn4 , v080
	.byte	W06
	.byte		N05   , En5 , v076
	.byte	W06
	.byte		        Fs4 , v052
	.byte	W06
	.byte		N03   , Dn4 , v120
	.byte	W06
	.byte		N05   , Fs4 , v076
	.byte	W06
	.byte		        Fs4 , v052
	.byte	W06
	.byte		N03   , Gn4 , v084
	.byte	W06
	.byte		        Cn4 , v120
	.byte		N05   , Fs4 , v076
	.byte	W12
	.byte		N03   , Dn4 , v120
	.byte		N11   , En5 , v076
	.byte	W12
	.byte		N03   , Cn4 , v120
	.byte		N05   , Fs4 , v076
	.byte	W12
	.byte		N03   , Dn4 , v120
	.byte		N05   , Fs4 , v052
	.byte	W06
	.byte		N03   , Gn4 , v084
	.byte	W06
	.byte	PEND
	.byte	PATT
	 .word	seq_128_4 + 0x13B
	.byte		N03   , Cn4 , v120
	.byte		N05   , Fs4 , v076
	.byte	W06
	.byte		N03   , Cn4 , v080
	.byte	W06
	.byte		N05   , En5 , v076
	.byte	W06
	.byte		        Fs4 , v052
	.byte	W06
	.byte		N03   , Dn4 , v120
	.byte	W06
	.byte		N05   , Fs4 , v076
	.byte	W06
	.byte		        Fs4 , v052
	.byte	W06
	.byte		N03   , Gn4 , v084
	.byte	W06
	.byte		        Cn4 , v120
	.byte		N05   , Fs4 , v096
	.byte	W06
	.byte		N03   , Dn4 , v088
	.byte		N05   , Fs4 , v052
	.byte	W06
	.byte		N03   , Dn4 , v120
	.byte	W06
	.byte		        Cn4 
	.byte		N05   , Fs4 , v076
	.byte	W06
	.byte		        Fs4 , v052
	.byte	W06
	.byte		N02   , Cn4 , v072
	.byte	W03
	.byte		        Cn4 , v088
	.byte	W03
	.byte		N03   , Cn4 , v120
	.byte		N03   , Dn4 
	.byte		N11   , En5 , v088
	.byte	W12
	.byte	PATT
	 .word	seq_128_4 + 0x13B
	.byte	PATT
	 .word	seq_128_4 + 0x17D
	.byte	PATT
	 .word	seq_128_4 + 0x13B
	.byte		N03   , Cn4 , v120
	.byte		N05   , Fs4 , v076
	.byte	W06
	.byte		N03   , Cn4 , v080
	.byte	W06
	.byte		N05   , En5 , v076
	.byte	W06
	.byte		        Fs4 , v052
	.byte	W06
	.byte		N03   , Dn4 , v120
	.byte	W06
	.byte		N05   , Fs4 , v076
	.byte	W06
	.byte		        Fs4 , v052
	.byte	W06
	.byte		N03   , Gn4 , v084
	.byte	W06
	.byte		        Cn4 , v120
	.byte		N05   , Fs4 , v096
	.byte	W06
	.byte		        Fs4 , v052
	.byte	W06
	.byte		N03   , Dn4 , v120
	.byte	W06
	.byte		        Cn4 
	.byte		N05   , Fs4 , v076
	.byte	W06
	.byte		        Fs4 , v052
	.byte	W06
	.byte		N03   , Dn4 , v104
	.byte	W06
	.byte		        Cn4 , v120
	.byte		N03   , Dn4 
	.byte		N11   , En5 , v088
	.byte	W12
	.byte	PATT
	 .word	seq_128_4 + 0x13B
	.byte	PATT
	 .word	seq_128_4 + 0x17D
	.byte	PATT
	 .word	seq_128_4 + 0x13B
	.byte		N03   , Cn4 , v120
	.byte		N05   , Fs4 , v076
	.byte	W06
	.byte		N03   , Cn4 , v080
	.byte	W06
	.byte		N05   , En5 , v076
	.byte	W06
	.byte		        Fs4 , v052
	.byte	W06
	.byte		N03   , Dn4 , v120
	.byte	W06
	.byte		N05   , Fs4 , v076
	.byte	W06
	.byte		        Fs4 , v052
	.byte	W06
	.byte		N03   , Gn4 , v084
	.byte	W06
	.byte		        Cn4 , v120
	.byte		N05   , Fs4 , v096
	.byte	W06
	.byte		        Fs4 , v052
	.byte	W06
	.byte		N03   , Dn4 , v120
	.byte	W06
	.byte		        Cn4 
	.byte		N05   , Fs4 , v076
	.byte	W06
	.byte		        Fs4 , v052
	.byte	W06
	.byte		N03   , Dn4 , v104
	.byte	W06
	.byte		        Cn4 , v120
	.byte		N03   , Dn4 , v112
	.byte		N11   , En5 , v088
	.byte	W06
	.byte		N03   , Dn4 , v120
	.byte	W06
	.byte		N03   , Cn4 , v120
	.byte		N05   , Fs4 , v076
	.byte	W06
	.byte		        En5 
	.byte	W12
	.byte		N03   , Cn4 , v116
	.byte		N05   , Fs4 , v052
	.byte	W06
	.byte		N03   , Dn4 , v120
	.byte	W06
	.byte		N05   , Fs4 , v076
	.byte	W06
	.byte		N03   , Gn4 , v084
	.byte	W06
	.byte		N05   , Fs4 , v052
	.byte	W06
	.byte		N03   , Cn4 , v080
	.byte		N05   , Fs4 , v076
	.byte	W06
	.byte		N03   , Gn4 , v084
	.byte	W06
	.byte		        Cn4 , v120
	.byte		N05   , Fs4 , v068
	.byte	W12
	.byte		N03   , Dn4 , v120
	.byte		N05   , En5 , v076
	.byte	W06
	.byte		N03   , Gn4 , v104
	.byte	W12
	.byte		N05   , Fs4 , v088
	.byte	W06
	.byte	PEND
	.byte		N03   , Cn4 , v108
	.byte		N05   , Fs4 , v076
	.byte	W06
	.byte		N03   , Cn4 , v120
	.byte		N05   , Fs4 , v052
	.byte	W06
	.byte		        En5 , v076
	.byte	W12
	.byte		N03   , Dn4 , v120
	.byte	W06
	.byte		N05   , Fs4 , v076
	.byte	W06
	.byte		N03   , Cn4 , v108
	.byte	W06
	.byte		        Cn4 , v120
	.byte		N05   , Fs4 , v052
	.byte	W06
	.byte		        Fs4 , v096
	.byte	W06
	.byte		N03   , Gn4 , v104
	.byte	W06
	.byte		N05   , Fs4 , v052
	.byte	W06
	.byte		        Fs4 , v076
	.byte	W06
	.byte		N03   , Dn4 , v120
	.byte		N05   , Fs4 , v052
	.byte	W06
	.byte		N03   , Cn4 , v120
	.byte		N11   , En5 , v088
	.byte	W18
	.byte		N03   , Cn4 , v120
	.byte		N05   , Fs4 , v076
	.byte	W06
	.byte		        En5 
	.byte	W12
	.byte		N03   , Cn4 , v116
	.byte		N05   , Fs4 , v052
	.byte	W06
	.byte		N03   , Dn4 , v120
	.byte	W06
	.byte		N05   , Fs4 , v076
	.byte	W06
	.byte		N03   , Gn4 , v084
	.byte	W06
	.byte		N05   , Fs4 , v052
	.byte	W06
	.byte		N03   , Cn4 , v080
	.byte		N05   , Fs4 , v076
	.byte	W06
	.byte		N03   , Gn4 , v084
	.byte	W06
	.byte		        Cn4 , v120
	.byte		N05   , Fs4 , v068
	.byte	W12
	.byte		N03   , Dn4 , v120
	.byte		N05   , En5 , v076
	.byte	W06
	.byte		N03   , Gn4 , v104
	.byte	W12
	.byte		        Cn4 , v108
	.byte		N05   , Fs4 , v088
	.byte	W06
	.byte	PEND
	.byte		N03   , Cn4 , v120
	.byte	W06
	.byte		N05   , Fs4 , v076
	.byte	W06
	.byte		        Fs4 , v052
	.byte	W06
	.byte		N03   , Dn4 , v120
	.byte		N05   , En5 , v076
	.byte	W12
	.byte		N03   , Cn4 , v096
	.byte	W06
	.byte		        Dn4 , v120
	.byte		N05   , Fs4 , v076
	.byte	W06
	.byte		N03   , Cn4 , v096
	.byte		N05   , Fs4 , v052
	.byte	W06
	.byte		N03   , Cn4 , v120
	.byte		N05   , Fs4 , v096
	.byte	W06
	.byte		N03   , Dn4 , v104
	.byte	W06
	.byte		N05   , Fs4 , v052
	.byte	W06
	.byte		        Fs4 , v076
	.byte	W06
	.byte		N03   , Dn4 , v120
	.byte		N05   , Fs4 , v096
	.byte	W06
	.byte		N03   , Cn4 , v120
	.byte		N11   , En5 , v088
	.byte	W18
	.byte	PATT
	 .word	seq_128_4 + 0x2B4
	.byte		N03   , Cn4 , v108
	.byte		N05   , Fs4 , v076
	.byte	W06
	.byte		N03   , Cn4 , v120
	.byte		N05   , Fs4 , v052
	.byte	W06
	.byte		        En5 , v076
	.byte	W06
	.byte		N03   , Dn4 , v120
	.byte	W06
	.byte		N03
	.byte	W06
	.byte		N05   , Fs4 , v076
	.byte	W06
	.byte		N03   , Cn4 , v108
	.byte	W06
	.byte		        Cn4 , v120
	.byte		N05   , Fs4 , v052
	.byte	W06
	.byte		N03   , Dn4 , v120
	.byte		N05   , Fs4 , v096
	.byte	W09
	.byte		N03   , Dn4 , v076
	.byte	W03
	.byte		        Dn4 , v120
	.byte	W06
	.byte		N05   , Fs4 , v076
	.byte	W06
	.byte		N03   , Dn4 , v120
	.byte		N05   , Fs4 , v052
	.byte	W06
	.byte		N03   , Cn4 , v120
	.byte		N11   , En5 , v088
	.byte	W18
	.byte	PATT
	 .word	seq_128_4 + 0x334
	.byte		N03   , Cn4 , v120
	.byte	W06
	.byte		N05   , Fs4 , v076
	.byte	W06
	.byte		        Fs4 , v052
	.byte	W06
	.byte		N03   , Dn4 , v120
	.byte		N05   , En5 , v076
	.byte	W12
	.byte		N03   , Cn4 , v096
	.byte	W06
	.byte		        Dn4 , v120
	.byte		N05   , Fs4 , v076
	.byte	W06
	.byte		        Fs4 , v052
	.byte	W06
	.byte		N03   , Cn4 , v120
	.byte	W06
	.byte		        Dn4 
	.byte	W12
	.byte		        Cn4 , v096
	.byte	W06
	.byte		        Dn4 , v108
	.byte	W06
	.byte		        Dn4 , v120
	.byte	W06
	.byte		        Cn4 
	.byte		N03   , Dn4 
	.byte		N11   , En5 , v088
	.byte	W12
	.byte		N03   , Cn4 , v120
	.byte		N05   , Fs4 , v076
	.byte	W06
	.byte		        Fs4 , v052
	.byte	W06
	.byte		N03   , Cn4 , v080
	.byte		N06   , En5 , v068
	.byte	W12
	.byte		N03   , Dn4 , v120
	.byte		N05   , Fs4 , v076
	.byte	W06
	.byte		        Fs4 , v052
	.byte	W06
	.byte		N06   , En5 , v068
	.byte	W06
	.byte		N03   , Gn4 , v084
	.byte	W06
	.byte		        Cn4 , v120
	.byte		N05   , Fs4 , v076
	.byte	W06
	.byte		        Fs4 , v052
	.byte		N03   , Gn4 , v084
	.byte	W06
	.byte		        Cn4 , v080
	.byte		N06   , En5 , v068
	.byte	W12
	.byte		N03   , Dn4 , v120
	.byte		N05   , Fs4 , v076
	.byte	W06
	.byte		        Fs4 , v052
	.byte	W06
	.byte		N06   , En5 , v068
	.byte	W06
	.byte		N03   , Cn4 , v080
	.byte	W06
	.byte	PEND
	.byte	PATT
	 .word	seq_128_4 + 0x43E
	.byte	PATT
	 .word	seq_128_4 + 0x43E
	.byte		N03   , Cn4 , v120
	.byte		N05   , Fs4 , v076
	.byte	W06
	.byte		        Fs4 , v052
	.byte	W06
	.byte		N03   , Cn4 , v080
	.byte		N06   , En5 , v068
	.byte	W12
	.byte		N03   , Dn4 , v120
	.byte		N05   , Fs4 , v076
	.byte	W06
	.byte		        Fs4 , v052
	.byte	W06
	.byte		N06   , En5 , v068
	.byte	W06
	.byte		N03   , Gn4 , v084
	.byte	W06
	.byte		        Cn4 , v120
	.byte		N05   , Fs4 , v076
	.byte	W06
	.byte		        Fs4 , v052
	.byte		N03   , Gn4 , v084
	.byte	W06
	.byte		        Cn4 , v080
	.byte		N06   , En5 , v068
	.byte	W06
	.byte		N03   , Dn4 , v092
	.byte	W03
	.byte		        Dn4 , v096
	.byte	W03
	.byte		        Dn4 , v100
	.byte		N05   , Gs4 , v076
	.byte	W06
	.byte		N03   , Dn4 , v112
	.byte	W06
	.byte		        Dn4 , v120
	.byte		N05   , Gs4 , v052
	.byte	W06
	.byte		N03   , Cn4 , v080
	.byte		N05   , En5 , v088
	.byte	W06
	.byte		N03   , Cn4 , v120
	.byte		N06   , En5 , v068
	.byte	W06
	.byte		N03   , Dn4 , v120
	.byte		N05   , Gs4 , v076
	.byte	W06
	.byte		N03   , Dn4 , v084
	.byte	W06
	.byte		        Cn4 , v120
	.byte		N06   , En5 , v068
	.byte	W06
	.byte		N03   , Dn4 , v120
	.byte		N05   , Gs4 , v076
	.byte	W06
	.byte		N03   , Dn4 , v084
	.byte	W06
	.byte		        Cn4 , v120
	.byte		N06   , En5 , v068
	.byte	W06
	.byte		N03   , Dn4 , v120
	.byte		N05   , Gs4 , v076
	.byte	W06
	.byte		N03   , Dn4 , v084
	.byte	W06
	.byte		        Cn4 , v120
	.byte		N06   , En5 , v068
	.byte	W06
	.byte		N03   , Dn4 , v120
	.byte		N05   , Gs4 , v076
	.byte	W12
	.byte		N03   , Cn4 , v120
	.byte		N05   , Gs4 , v076
	.byte	W06
	.byte		N03   , Cn4 , v120
	.byte		N05   , Gs4 , v052
	.byte	W03
	.byte		N03   , Dn4 , v084
	.byte	W03
	.byte		        Cn4 , v108
	.byte		N10   , En5 , v088
	.byte	W12
	.byte		N03   , Cn4 , v120
	.byte		N06   , En5 , v068
	.byte	W06
	.byte		N03   , Dn4 , v120
	.byte		N05   , Gs4 , v076
	.byte	W06
	.byte		N03   , Dn4 , v084
	.byte	W06
	.byte		        Cn4 , v120
	.byte		N06   , En5 , v068
	.byte	W06
	.byte		N03   , Dn4 , v120
	.byte		N05   , Gs4 , v076
	.byte	W06
	.byte		N03   , Dn4 , v084
	.byte	W06
	.byte		        Cn4 , v120
	.byte		N06   , En5 , v068
	.byte	W06
	.byte		N03   , Dn4 , v120
	.byte		N05   , Gs4 , v076
	.byte	W06
	.byte		N03   , Dn4 , v084
	.byte	W06
	.byte		        Cn4 , v120
	.byte		N06   , En5 , v068
	.byte	W06
	.byte		N03   , Dn4 , v120
	.byte		N05   , Gs4 , v076
	.byte	W06
	.byte		N03   , Dn4 , v080
	.byte	W03
	.byte		        Dn4 , v092
	.byte	W03
	.byte		        Cn4 , v080
	.byte		N03   , Dn4 , v100
	.byte	W06
	.byte		        Dn4 , v120
	.byte	W06
	.byte		N03
	.byte	W06
	.byte		        Cn4 , v108
	.byte		N05   , En5 , v088
	.byte	W06
	.byte	GOTO
	 .word	seq_128_4 + 0x13B
	.byte	FINE

@*********************** Track 06 ***********************@

seq_128_5:
	.byte	KEYSH , seq_128_key+0
	.byte		VOICE , 105
	.byte		VOL   , 75*seq_128_mvl/mxv
	.byte		PAN   , c_v+0
	.byte	W01
	.byte		MODT  , mod_vib
	.byte		LFODL , 30
	.byte	W01
	.byte		MOD   , 50
	.byte	W10
	.byte	W12
	.byte		N10   , Ds2 , v116
	.byte	W12
	.byte		N07
	.byte	W12
	.byte		N04   , Ds1 
	.byte	W06
	.byte		N04
	.byte	W06
	.byte		N04
	.byte	W06
	.byte		N04
	.byte	W06
	.byte		N10   , Ds2 
	.byte	W12
	.byte		N07
	.byte	W12
	.byte		N04   , Ds1 
	.byte	W06
	.byte		N04
	.byte	W06
	.byte		N04
	.byte	W06
	.byte		N04
	.byte	W06
	.byte	PEND
	.byte		N10   , Gn1 
	.byte	W12
	.byte		N07
	.byte	W19
	.byte		N01
	.byte	W05
	.byte		N06   , An1 , v104
	.byte	W06
	.byte		        As1 
	.byte	W06
	.byte		        En2 
	.byte	W06
	.byte		        Gn2 
	.byte	W06
	.byte		        As2 
	.byte	W06
	.byte		        Dn3 
	.byte	W06
	.byte		        Gs3 
	.byte	W06
	.byte		        Dn3 
	.byte	W06
	.byte		        An2 
	.byte	W06
	.byte		N05   , En2 
	.byte	W06
	.byte	PATT
	 .word	seq_128_5 + 0x12
	.byte		N18   , An1 , v116
	.byte	W18
	.byte		        Gs1 , v112
	.byte	W18
	.byte		        Gn1 , v108
	.byte	W18
	.byte		        Fs1 
	.byte	W18
	.byte		N06   , Fn1 , v116
	.byte	W12
	.byte		N09
	.byte	W12
	.byte		N06   , Dn2 , v116
	.byte	W06
	.byte		N06
	.byte	W06
	.byte		N04   , Dn1 
	.byte	W06
	.byte		        Dn2 
	.byte	W06
	.byte		N01   , Dn2 , v068
	.byte	W12
	.byte		N06   , Dn2 , v116
	.byte	W12
	.byte		        Cn2 
	.byte	W06
	.byte		N04   , Dn2 
	.byte	W06
	.byte		N06   , Dn1 
	.byte	W06
	.byte		N05
	.byte	W06
	.byte		N01   , Dn1 , v068
	.byte	W12
	.byte		N04   , Dn2 , v116
	.byte	W12
	.byte	PEND
	.byte		N06   , Cn2 
	.byte	W06
	.byte		        Dn2 
	.byte	W06
	.byte		N04   , Dn1 
	.byte	W06
	.byte		N04
	.byte	W06
	.byte		N06   , Fn1 
	.byte	W06
	.byte		        Dn1 
	.byte	W12
	.byte		N06
	.byte	W06
	.byte		N16   , Fn1 
	.byte	W18
	.byte		        Gn1 
	.byte	W18
	.byte		N06   , En1 
	.byte	W12
	.byte	PATT
	 .word	seq_128_5 + 0x65
	.byte		N06   , Cn2 , v116
	.byte	W06
	.byte		        Dn2 
	.byte	W06
	.byte		N04   , Dn1 
	.byte	W06
	.byte		N04
	.byte	W06
	.byte		N06   , Fn1 
	.byte	W06
	.byte		        Dn1 
	.byte	W12
	.byte		N06
	.byte	W06
	.byte		N13   , Gs1 
	.byte	W18
	.byte		N12   , Gn1 
	.byte	W18
	.byte		N09   , Fn1 
	.byte	W12
	.byte	PEND
	.byte	PATT
	 .word	seq_128_5 + 0x65
	.byte		N06   , Cn2 , v116
	.byte	W06
	.byte		        Dn2 
	.byte	W06
	.byte		N04   , Dn1 
	.byte	W06
	.byte		N04
	.byte	W06
	.byte		N06   , Fn1 
	.byte	W06
	.byte		        Dn1 
	.byte	W12
	.byte		N06
	.byte	W06
	.byte		N13   , Fn1 
	.byte	W18
	.byte		        Gn1 
	.byte	W18
	.byte		N07   , En1 
	.byte	W12
	.byte	PEND
	.byte	PATT
	 .word	seq_128_5 + 0x65
	.byte	PATT
	 .word	seq_128_5 + 0xA9
	.byte	PATT
	 .word	seq_128_5 + 0x65
	.byte	PATT
	 .word	seq_128_5 + 0xCA
	.byte	PATT
	 .word	seq_128_5 + 0x65
	.byte		N06   , Cn2 , v116
	.byte	W06
	.byte		        Dn2 
	.byte	W06
	.byte		N04   , Dn1 
	.byte	W06
	.byte		N04
	.byte	W06
	.byte		N06   , Fn1 
	.byte	W06
	.byte		        Dn1 
	.byte	W12
	.byte		N06
	.byte	W06
	.byte		N16   , Gs1 
	.byte	W18
	.byte		N12   , As1 
	.byte	W18
	.byte		N06   , Cn2 
	.byte	W12
	.byte		N06   , Dn2 , v116
	.byte	W06
	.byte		N06
	.byte	W06
	.byte		N04   , Dn1 
	.byte	W06
	.byte		        Dn2 
	.byte	W06
	.byte		N01   , Dn2 , v068
	.byte	W12
	.byte		N06   , Dn2 , v116
	.byte	W12
	.byte		        Cn2 
	.byte	W06
	.byte		N04   , Dn2 
	.byte	W06
	.byte		N06   , Dn1 
	.byte	W06
	.byte		N05
	.byte	W30
	.byte	PEND
	.byte		N04   , Fn1 
	.byte	W06
	.byte		N04
	.byte	W06
	.byte		N01
	.byte	W12
	.byte		N01
	.byte	W12
	.byte		N04
	.byte	W06
	.byte		N04
	.byte	W06
	.byte		N01
	.byte	W09
	.byte		N01
	.byte	W15
	.byte		N04
	.byte	W06
	.byte		N04
	.byte	W18
	.byte	PATT
	 .word	seq_128_5 + 0x119
	.byte		N05   , Cn3 , v104
	.byte	W12
	.byte		N03   , Dn2 , v088
	.byte	W06
	.byte		N09   , Bn2 , v096
	.byte	W12
	.byte		N02   , Dn2 , v088
	.byte	W06
	.byte		N05   , Gn2 , v100
	.byte	W06
	.byte		N03   , Dn2 , v088
	.byte	W06
	.byte		N06   , Fn2 , v096
	.byte	W06
	.byte		        En2 
	.byte	W06
	.byte		N05   , Dn2 , v088
	.byte	W06
	.byte		N04   , Cn2 , v092
	.byte	W06
	.byte		N06   , En2 , v104
	.byte	W06
	.byte		        Dn2 , v096
	.byte	W18
	.byte		N06   , En2 , v116
	.byte	W06
	.byte		N06
	.byte	W06
	.byte		N04   , En1 
	.byte	W06
	.byte		        En2 
	.byte	W06
	.byte		N01   , En2 , v068
	.byte	W12
	.byte		N06   , En2 , v116
	.byte	W12
	.byte		        Dn2 
	.byte	W06
	.byte		N04   , En2 
	.byte	W06
	.byte		N06   , En1 
	.byte	W06
	.byte		N05
	.byte	W30
	.byte	PEND
	.byte		N04   , Gn1 
	.byte	W06
	.byte		N04
	.byte	W06
	.byte		N01
	.byte	W12
	.byte		N01
	.byte	W12
	.byte		N04
	.byte	W06
	.byte		N04
	.byte	W06
	.byte		N01
	.byte	W09
	.byte		N01
	.byte	W15
	.byte		N04
	.byte	W06
	.byte		N04
	.byte	W18
	.byte	PATT
	 .word	seq_128_5 + 0x17E
	.byte		N15   , Fs2 , v112
	.byte	W18
	.byte		N12   , Fs1 
	.byte	W18
	.byte		N07   , Fs2 , v108
	.byte	W12
	.byte		N13   , Fn2 , v104
	.byte	W18
	.byte		        En2 
	.byte	W18
	.byte		N07   , Ds2 , v112
	.byte	W12
	.byte		N10   , Dn2 , v116
	.byte	W12
	.byte		N04
	.byte	W12
	.byte		N01
	.byte	W12
	.byte		N03
	.byte	W06
	.byte		N03
	.byte	W06
	.byte		N07
	.byte	W12
	.byte		N04
	.byte	W12
	.byte		N04
	.byte	W05
	.byte		N06   , Dn2 , v108
	.byte	W07
	.byte		        Dn1 , v088
	.byte	W06
	.byte		N03   , Dn2 , v116
	.byte	W06
	.byte		N10   , Fn2 
	.byte	W12
	.byte		N04
	.byte	W12
	.byte		N01
	.byte	W12
	.byte		N03
	.byte	W06
	.byte		N03
	.byte	W06
	.byte		N07
	.byte	W12
	.byte		N04
	.byte	W12
	.byte		N04
	.byte	W05
	.byte		N06   , Fn2 , v108
	.byte	W07
	.byte		        Fn1 , v088
	.byte	W06
	.byte		N03   , Fn2 , v116
	.byte	W06
	.byte		N10   , Cn2 
	.byte	W12
	.byte		N04
	.byte	W12
	.byte		N01
	.byte	W12
	.byte		N03
	.byte	W06
	.byte		N03
	.byte	W06
	.byte		N07
	.byte	W12
	.byte		N04
	.byte	W12
	.byte		N04
	.byte	W05
	.byte		N06   , Cn2 , v108
	.byte	W07
	.byte		        Dn1 , v088
	.byte	W06
	.byte		N03   , Cn2 , v116
	.byte	W06
	.byte		N10   , Ds2 
	.byte	W12
	.byte		N04
	.byte	W12
	.byte		N01
	.byte	W12
	.byte		N03
	.byte	W06
	.byte		N03
	.byte	W06
	.byte		N07   , Fn2 
	.byte	W12
	.byte		N04
	.byte	W12
	.byte		N04
	.byte	W05
	.byte		N06   , Fn2 , v108
	.byte	W06
	.byte		        Fs1 , v116
	.byte	W07
	.byte		N03   , Fn2 
	.byte	W06
	.byte		N05   , Gn1 
	.byte	W06
	.byte		N06
	.byte	W12
	.byte		N04   , Gn1 , v112
	.byte	W06
	.byte		N04
	.byte	W12
	.byte		        Gn2 , v116
	.byte	W06
	.byte		        Gn1 , v112
	.byte	W12
	.byte		        Gn2 , v108
	.byte	W06
	.byte		        Gn1 , v104
	.byte	W12
	.byte		N05   , Bn1 , v112
	.byte	W06
	.byte		N06   , Ds2 , v104
	.byte	W06
	.byte		        Fn2 , v108
	.byte	W06
	.byte		N05   , As2 , v116
	.byte	W06
	.byte		        Gn1 
	.byte	W06
	.byte		N06
	.byte	W12
	.byte		N04   , Gn1 , v112
	.byte	W06
	.byte		N04
	.byte	W12
	.byte		        Gn2 , v116
	.byte	W06
	.byte		        Gn1 , v112
	.byte	W12
	.byte		        Gn2 , v108
	.byte	W06
	.byte		        Gn1 , v104
	.byte	W12
	.byte		N05   , Fs2 , v116
	.byte	W06
	.byte		N06   , Cs2 
	.byte	W06
	.byte		N05   , Gs1 , v112
	.byte	W06
	.byte		N04   , En1 , v116
	.byte	W06
	.byte	GOTO
	 .word	seq_128_5 + 0x65
	.byte	FINE

@*********************** Track 07 ***********************@

seq_128_6:
	.byte	KEYSH , seq_128_key+0
	.byte		VOICE , 7
	.byte		VOL   , 64*seq_128_mvl/mxv
	.byte		PAN   , c_v-32
	.byte	W02
	.byte		MOD   , 2
	.byte	W10
	.byte	W12
	.byte		N07   , Gn3 , v088
	.byte		N07   , Bn3 
	.byte	W12
	.byte		N06   , Gn3 , v108
	.byte		N06   , Bn3 
	.byte	W36
	.byte		N08   , Gn3 , v088
	.byte		N08   , Bn3 
	.byte	W12
	.byte		N07   , Gn3 , v108
	.byte		N07   , Bn3 
	.byte	W36
	.byte	PEND
	.byte		        As3 , v104
	.byte		N07   , Dn4 
	.byte	W12
	.byte		        As3 , v120
	.byte		N07   , Dn4 
	.byte	W84
	.byte	PATT
	 .word	seq_128_6 + 0xD
	.byte	W96
	.byte	W96
	.byte	W96
	.byte	W96
	.byte	W96
	.byte	W96
	.byte	W96
	.byte	W96
	.byte	W96
	.byte	W96
	.byte	W96
	.byte	W96
	.byte	W96
	.byte		N04   , An3 , v127
	.byte	W06
	.byte		        An3 , v104
	.byte	W12
	.byte		N06   , An3 , v124
	.byte	W18
	.byte		N04   , An3 , v127
	.byte	W12
	.byte		N05   , Gn3 
	.byte	W06
	.byte		N06   , An3 , v084
	.byte	W42
	.byte		N03   , Cn3 , v112
	.byte		N04   , En3 
	.byte	W06
	.byte		N03   , Cn3 , v104
	.byte		N03   , En3 , v100
	.byte	W30
	.byte		N04   , Cn3 , v104
	.byte		N04   , En3 , v112
	.byte	W06
	.byte		N03   , Cn3 , v072
	.byte		N03   , En3 , v100
	.byte	W30
	.byte		N04   , Cn3 , v108
	.byte		N04   , En3 
	.byte	W06
	.byte		N03   , Cn3 , v100
	.byte		N03   , En3 
	.byte	W18
	.byte		N04   , An3 , v120
	.byte	W06
	.byte		        An3 , v112
	.byte	W12
	.byte		N06   , An3 , v116
	.byte	W18
	.byte		N04   , An3 , v120
	.byte	W12
	.byte		N05   , Gn3 
	.byte	W06
	.byte		N06   , An3 , v096
	.byte	W42
	.byte	W96
	.byte		N04   , Bn3 , v104
	.byte	W06
	.byte		N03   , Bn3 , v116
	.byte	W12
	.byte		        Bn3 , v120
	.byte	W18
	.byte		        Bn3 , v124
	.byte	W12
	.byte		N05   , An3 , v116
	.byte	W06
	.byte		N04   , Bn3 , v124
	.byte	W42
	.byte		        Dn3 , v092
	.byte		N04   , Fs3 , v096
	.byte	W06
	.byte		N03   , Dn3 , v112
	.byte		N03   , Fs3 
	.byte	W30
	.byte		N04   , Dn3 , v092
	.byte		N04   , Fs3 
	.byte	W06
	.byte		N03   , Dn3 , v112
	.byte		N03   , Fs3 
	.byte	W30
	.byte		N04   , Dn3 , v092
	.byte		N04   , Fs3 
	.byte	W06
	.byte		N03   , Dn3 , v112
	.byte		N02   , Fs3 
	.byte	W18
	.byte		N05   , Bn3 , v108
	.byte	W06
	.byte		N02   , Bn3 , v112
	.byte	W12
	.byte		N03   , Bn3 , v120
	.byte	W18
	.byte		        Bn3 , v124
	.byte	W12
	.byte		N05   , An3 , v108
	.byte	W06
	.byte		N03   , Bn3 , v116
	.byte	W42
	.byte	W92
	.byte	W03
	.byte		VOL   , 75*seq_128_mvl/mxv
	.byte	W01
	.byte		N32   , Dn2 , v076
	.byte	W36
	.byte		N04   , Bn2 , v120
	.byte	W12
	.byte		        En3 , v108
	.byte	W06
	.byte		        Ds3 , v120
	.byte	W12
	.byte		N16   , Bn2 , v124
	.byte	W18
	.byte		N03   , Cs3 , v127
	.byte	W12
	.byte		N04   , Dn3 , v108
	.byte	W06
	.byte		N03   , Cs3 , v127
	.byte	W12
	.byte		N60   , An2 , v124
	.byte	W78
	.byte		N32   , Cn2 , v076
	.byte	W36
	.byte		N04   , Gn2 , v124
	.byte	W12
	.byte		N05   , Cn3 , v104
	.byte	W06
	.byte		N03   , Bn2 , v112
	.byte	W12
	.byte		N16   , Gn2 , v120
	.byte	W18
	.byte		N03   , An2 , v124
	.byte	W12
	.byte		N05   , As2 , v127
	.byte	W06
	.byte		N04   , An2 , v096
	.byte	W12
	.byte		N24   , Fn2 , v124
	.byte	W30
	.byte		N04   , Cs3 
	.byte	W06
	.byte		        Cn3 , v104
	.byte	W12
	.byte		N15   , Gs2 , v124
	.byte	W18
	.byte		N04   , As2 
	.byte	W12
	.byte		        Fs3 , v120
	.byte	W06
	.byte		N03   , Fs3 , v124
	.byte	W12
	.byte		N04   , Fs3 , v108
	.byte	W06
	.byte		N03   , Fs3 , v116
	.byte	W12
	.byte		N04   , Fs3 , v104
	.byte	W06
	.byte		N02   , Fs3 , v112
	.byte	W12
	.byte		N05   , Fs3 , v108
	.byte	W06
	.byte		N03   , Fs3 , v112
	.byte	W36
	.byte		N04
	.byte	W06
	.byte		N03   , Fs3 , v108
	.byte	W12
	.byte		N04
	.byte	W06
	.byte		N03   , Fs3 , v112
	.byte	W12
	.byte		N04   , Fs3 , v108
	.byte	W05
	.byte		N03   , Fs3 , v112
	.byte	W12
	.byte		        Fs3 , v124
	.byte	W06
	.byte		N02   , Fs3 , v127
	.byte	W36
	.byte	W01
	.byte	GOTO
	 .word	seq_128_6 + 0x36
	.byte	FINE

@******************************************************@

	.align	2

seq_128:
	.byte	7	@ NumTrks
	.byte	0	@ NumBlks
	.byte	seq_128_pri	@ Priority
	.byte	seq_128_rev	@ Reverb

	.word	seq_128_grp

	.word	seq_128_0
	.word	seq_128_1
	.word	seq_128_2
	.word	seq_128_3
	.word	seq_128_4
	.word	seq_128_5
	.word	seq_128_6

	.end
