@ File generated by m4a2s Song-Module
	.include "MPlayDef.s"

	.equ	seq_105_grp, bank_014
	.equ	seq_105_pri, 50
	.equ	seq_105_rev, 203
	.equ	seq_105_mvl, 127
	.equ	seq_105_key, 0

	.section .rodata
	.global	seq_105
	.align	2

@*********************** Track 01 ***********************@

seq_105_0:
	.byte	KEYSH , seq_105_key+0
	.byte	TEMPO , 140/2
	.byte		VOICE , 127
	.byte	W01
	.byte		VOL   , 61*seq_105_mvl/mxv
	.byte	W01
	.byte		PAN   , c_v+0
	.byte	W22
	.byte		N24   , Cs5 , v120
	.byte	W36
	.byte		N03   , Ds6 
	.byte	W12
	.byte		        Fs5 
	.byte	W24
	.byte	PEND
	.byte		N24   , Cs5 , v120
	.byte	W36
	.byte		N03   , Ds6 
	.byte	W12
	.byte		        As4 
	.byte	W12
	.byte		        Dn6 
	.byte	W12
	.byte	PEND
	.byte	PATT
	 .word	seq_105_0 + 0xD
	.byte	PATT
	 .word	seq_105_0 + 0x17
	.byte		N24   , Cs5 , v120
	.byte	W24
	.byte		N03   , Gs7 , v080
	.byte	W24
	.byte		        Fs5 , v120
	.byte	W12
	.byte		        Ds6 
	.byte	W12
	.byte	PEND
	.byte	W12
	.byte		N03   , Dn6 , v120
	.byte	W12
	.byte		        Gs7 , v080
	.byte	W24
	.byte		        As4 , v120
	.byte	W24
	.byte	PEND
	.byte		N03   , Gs7 , v080
	.byte	W24
	.byte		N03
	.byte	W24
	.byte		        Fs5 , v120
	.byte	W12
	.byte		        Ds6 
	.byte	W12
	.byte	PEND
	.byte	W12
	.byte		N03   , Dn6 , v120
	.byte	W12
	.byte		N11   , An7 , v060
	.byte	W24
	.byte		N03   , As4 , v120
	.byte	W24
	.byte	PEND
	.byte	PATT
	 .word	seq_105_0 + 0x47
	.byte	PATT
	 .word	seq_105_0 + 0x53
	.byte	PATT
	 .word	seq_105_0 + 0x47
	.byte	PATT
	 .word	seq_105_0 + 0x53
	.byte	PATT
	 .word	seq_105_0 + 0x2D
	.byte	PATT
	 .word	seq_105_0 + 0x3B
	.byte	PATT
	 .word	seq_105_0 + 0x47
	.byte	PATT
	 .word	seq_105_0 + 0x53
	.byte	PATT
	 .word	seq_105_0 + 0x47
	.byte	PATT
	 .word	seq_105_0 + 0x53
	.byte	PATT
	 .word	seq_105_0 + 0x47
	.byte	PATT
	 .word	seq_105_0 + 0x53
	.byte	PATT
	 .word	seq_105_0 + 0x2D
	.byte	PATT
	 .word	seq_105_0 + 0x3B
	.byte	PATT
	 .word	seq_105_0 + 0x47
	.byte	PATT
	 .word	seq_105_0 + 0x53
	.byte	PATT
	 .word	seq_105_0 + 0x47
	.byte	PATT
	 .word	seq_105_0 + 0x53
	.byte	PATT
	 .word	seq_105_0 + 0x47
	.byte	PATT
	 .word	seq_105_0 + 0x53
	.byte	PATT
	 .word	seq_105_0 + 0x2D
	.byte	PATT
	 .word	seq_105_0 + 0x3B
	.byte	W24
	.byte		N03   , Gs7 , v080
	.byte	W24
	.byte		        Fs5 , v120
	.byte	W12
	.byte		        Ds6 
	.byte	W12
	.byte	PEND
	.byte	W12
	.byte		N03   , Dn6 , v120
	.byte	W12
	.byte		        Gs7 , v080
	.byte	W24
	.byte		        Gn4 , v120
	.byte	W24
	.byte	PEND
	.byte	PATT
	 .word	seq_105_0 + 0xCF
	.byte	PATT
	 .word	seq_105_0 + 0x3B
	.byte	PATT
	 .word	seq_105_0 + 0xCF
	.byte	PATT
	 .word	seq_105_0 + 0xDA
	.byte	PATT
	 .word	seq_105_0 + 0x2D
	.byte	PATT
	 .word	seq_105_0 + 0x3B
	.byte	PATT
	 .word	seq_105_0 + 0xCF
	.byte	PATT
	 .word	seq_105_0 + 0x3B
	.byte	PATT
	 .word	seq_105_0 + 0xCF
	.byte	PATT
	 .word	seq_105_0 + 0xDA
	.byte	PATT
	 .word	seq_105_0 + 0xCF
	.byte	PATT
	 .word	seq_105_0 + 0x3B
	.byte	PATT
	 .word	seq_105_0 + 0xCF
	.byte	PATT
	 .word	seq_105_0 + 0xDA
	.byte	PATT
	 .word	seq_105_0 + 0xCF
	.byte	PATT
	 .word	seq_105_0 + 0xDA
	.byte	GOTO
	 .word	seq_105_0 + 0xD
	.byte	FINE

@*********************** Track 02 ***********************@

seq_105_1:
	.byte	KEYSH , seq_105_key+0
	.byte		VOICE , 5
	.byte	W01
	.byte		VOL   , 40*seq_105_mvl/mxv
	.byte	W01
	.byte		PAN   , c_v+0
	.byte	W01
	.byte		LFOS  , 20
	.byte	W01
	.byte		MODT  , mod_tre
	.byte	W01
	.byte		LFODL , 0
	.byte	W19
	.byte	W72
	.byte	W48
	.byte		N12   , An4 , v080
	.byte	W12
	.byte		        Bn4 , v100
	.byte	W12
	.byte		N42   , Cs5 
	.byte	W42
	.byte		N04   , Bn4 , v120
	.byte	W04
	.byte		N02   , Cs5 
	.byte	W02
	.byte		N24   , Bn4 , v100
	.byte	W24
	.byte	W72
	.byte	W72
	.byte	W72
	.byte	W72
	.byte	W72
	.byte	W72
	.byte	W72
	.byte	W72
	.byte	W72
	.byte	W24
	.byte		N02   , Cs4 , v100
	.byte		N02   , Fn4 , v120
	.byte	W02
	.byte		N10   , Dn4 , v100
	.byte		N10   , Fs4 , v120
	.byte	W10
	.byte		N04   , En4 , v080
	.byte		N04   , Gn4 , v100
	.byte	W04
	.byte		N05   , En4 , v040
	.byte		N05   , Gn4 , v060
	.byte	W08
	.byte		N72   , Fs4 , v080
	.byte		N72   , An4 , v120
	.byte	W24
	.byte	PEND
	.byte	W21
	.byte		MOD   , 80
	.byte	W24
	.byte	W03
	.byte		N24   , Fs4 , v040
	.byte		N24   , An4 , v080
	.byte	W24
	.byte	PEND
	.byte		N24   , An4 , v040
	.byte	W23
	.byte		MOD   , 0
	.byte	W01
	.byte		N02   , Fn4 , v100
	.byte		N02   , Gs4 , v120
	.byte	W02
	.byte		N10   , Fs4 , v100
	.byte		N10   , An4 , v120
	.byte	W10
	.byte		N04   , Gn4 , v080
	.byte		N04   , Bn4 , v100
	.byte	W04
	.byte		N05   , Gn4 , v040
	.byte		N05   , Bn4 , v060
	.byte	W08
	.byte		N12   , An4 , v100
	.byte		N12   , Cs5 , v120
	.byte	W12
	.byte		N04   , Bn4 , v080
	.byte		N04   , Dn5 , v100
	.byte	W04
	.byte		        Bn4 , v040
	.byte		N04   , Dn5 , v060
	.byte	W08
	.byte	PEND
	.byte		N02   , Cn5 , v100
	.byte		N02   , Ds5 , v120
	.byte	W02
	.byte		N42   , Cs5 , v100
	.byte		N42   , En5 , v120
	.byte	W42
	.byte		N05   , Cs5 , v100
	.byte		N05   , En5 , v120
	.byte	W05
	.byte		N03   , As4 , v100
	.byte		N03   , Dn5 , v120
	.byte	W03
	.byte		N20   , An4 , v100
	.byte		N20   , Cs5 , v120
	.byte	W20
	.byte	PEND
	.byte		N72   , An4 
	.byte	W44
	.byte	W01
	.byte		MOD   , 80
	.byte	W24
	.byte	W03
	.byte		N24   , An4 , v080
	.byte	W24
	.byte		        An4 , v040
	.byte	W44
	.byte	W03
	.byte		MOD   , 0
	.byte	W01
	.byte	W72
	.byte	W72
	.byte	PATT
	 .word	seq_105_1 + 0x34
	.byte	PATT
	 .word	seq_105_1 + 0x59
	.byte	PATT
	 .word	seq_105_1 + 0x66
	.byte	PATT
	 .word	seq_105_1 + 0x9E
	.byte		N72   , Fs5 , v120
	.byte	W44
	.byte	W01
	.byte		MOD   , 80
	.byte	W24
	.byte	W03
	.byte		N24   , Fs5 , v080
	.byte	W24
	.byte		        Fs5 , v040
	.byte	W44
	.byte	W03
	.byte		MOD   , 0
	.byte	W01
	.byte	W72
	.byte	W72
	.byte	W72
	.byte	W72
	.byte	W72
	.byte	W72
	.byte	W72
	.byte	W72
	.byte	W72
	.byte	W72
	.byte	W72
	.byte	W72
	.byte	W72
	.byte	W72
	.byte		N02   , An4 , v120
	.byte	W02
	.byte		N22   , As4 
	.byte	W22
	.byte		N06   , An4 , v100
	.byte	W06
	.byte		N04   , An4 , v060
	.byte	W13
	.byte		N02   , Fn4 , v120
	.byte	W02
	.byte		N03   , Gn4 
	.byte	W03
	.byte		N24   , Fn4 , v100
	.byte	W24
	.byte	PEND
	.byte		N36   , En4 
	.byte	W23
	.byte		MOD   , 80
	.byte	W13
	.byte		N13   , En4 , v040
	.byte	W11
	.byte		MOD   , 0
	.byte	W01
	.byte		N24   , Cn4 , v120
	.byte	W24
	.byte	PATT
	 .word	seq_105_1 + 0x10D
	.byte		N42   , Cn5 , v100
	.byte	W11
	.byte		MOD   , 80
	.byte	W24
	.byte		        0
	.byte	W08
	.byte		N02   , As4 , v120
	.byte	W02
	.byte		N03   , Cn5 
	.byte	W03
	.byte		N24   , As4 , v100
	.byte	W24
	.byte		N96   , An4 
	.byte	W32
	.byte	W03
	.byte		MOD   , 80
	.byte	W36
	.byte	W01
	.byte	W24
	.byte		N24   , An4 , v060
	.byte	W24
	.byte		        An4 , v044
	.byte	W23
	.byte		MOD   , 0
	.byte	W01
	.byte	W72
	.byte	W72
	.byte	GOTO
	 .word	seq_105_1 + 0x14
	.byte	FINE

@*********************** Track 03 ***********************@

seq_105_2:
	.byte	KEYSH , seq_105_key+0
	.byte		VOICE , 12
	.byte	W01
	.byte		VOL   , 61*seq_105_mvl/mxv
	.byte	W01
	.byte		PAN   , c_v-24
	.byte	W22
	.byte		N07   , Dn3 , v120
	.byte	W07
	.byte		N11   , Dn3 , v040
	.byte	W17
	.byte		N12   , An3 , v120
	.byte		N12   , Dn4 
	.byte	W12
	.byte		        Gs3 
	.byte	W12
	.byte		N07   , An3 , v100
	.byte	W07
	.byte		N05   , An3 , v040
	.byte	W17
	.byte		N07   , Dn3 , v120
	.byte	W07
	.byte		N11   , Dn3 , v040
	.byte	W17
	.byte		N12   , Fs3 , v120
	.byte	W12
	.byte		        Fn3 
	.byte	W12
	.byte		N07   , Fs3 , v100
	.byte	W07
	.byte		N05   , Fs3 , v040
	.byte	W17
	.byte		N24   , En3 , v120
	.byte	W24
	.byte		N48   , Dn3 
	.byte	W48
	.byte		N07   , Cs3 , v100
	.byte	W07
	.byte		N05   , Cs3 , v040
	.byte	W64
	.byte	W01
	.byte		N08   , An1 , v120
	.byte	W08
	.byte		        An1 , v040
	.byte	W40
	.byte		N24   , An1 , v120
	.byte	W24
	.byte	PEND
	.byte		N08   , Gn1 , v120
	.byte		N08   , Bn1 
	.byte	W08
	.byte		        Gn1 , v040
	.byte		N08   , Bn1 
	.byte	W40
	.byte		N24   , Bn1 , v120
	.byte		N24   , Dn2 
	.byte	W24
	.byte	PEND
	.byte		N08   , Cs2 , v120
	.byte	W08
	.byte		        Cs2 , v040
	.byte	W40
	.byte		N24   , Cs2 , v120
	.byte		N24   , En2 
	.byte	W24
	.byte	PEND
	.byte		N08   , Bn1 , v120
	.byte	W08
	.byte		        Bn1 , v040
	.byte	W40
	.byte		N24   , Bn1 , v120
	.byte		N24   , Dn2 
	.byte	W24
	.byte	PEND
	.byte	PATT
	 .word	seq_105_2 + 0x49
	.byte	PATT
	 .word	seq_105_2 + 0x55
	.byte	PATT
	 .word	seq_105_2 + 0x67
	.byte	PATT
	 .word	seq_105_2 + 0x75
	.byte	PATT
	 .word	seq_105_2 + 0x49
	.byte		N08   , Bn1 , v120
	.byte	W08
	.byte		        Bn1 , v040
	.byte	W40
	.byte		N24   , Dn2 , v120
	.byte	W24
	.byte	PEND
	.byte		N08   , Cs2 , v120
	.byte	W08
	.byte		        Cs2 , v040
	.byte	W40
	.byte		N24   , Cs2 , v120
	.byte	W24
	.byte	PEND
	.byte		N08   , Bn1 , v120
	.byte	W08
	.byte		        Bn1 , v040
	.byte	W40
	.byte		N24   , Bn1 , v120
	.byte	W24
	.byte	PEND
	.byte	PATT
	 .word	seq_105_2 + 0x49
	.byte	PATT
	 .word	seq_105_2 + 0x9C
	.byte	PATT
	 .word	seq_105_2 + 0xA8
	.byte	PATT
	 .word	seq_105_2 + 0xB4
	.byte	PATT
	 .word	seq_105_2 + 0x49
	.byte	PATT
	 .word	seq_105_2 + 0x9C
	.byte	PATT
	 .word	seq_105_2 + 0xA8
	.byte	PATT
	 .word	seq_105_2 + 0xB4
	.byte	PATT
	 .word	seq_105_2 + 0x49
	.byte	PATT
	 .word	seq_105_2 + 0x9C
	.byte	PATT
	 .word	seq_105_2 + 0xA8
	.byte	PATT
	 .word	seq_105_2 + 0xB4
	.byte		N08   , Fn2 , v120
	.byte	W08
	.byte		        Fn2 , v040
	.byte	W40
	.byte		N24   , Fn2 , v120
	.byte	W24
	.byte	PEND
	.byte		N08   , Gn2 , v120
	.byte	W08
	.byte		        Gn2 , v040
	.byte	W40
	.byte		N24   , Gn2 , v120
	.byte	W24
	.byte	PEND
	.byte		N08   , En2 , v120
	.byte	W08
	.byte		        En2 , v040
	.byte	W40
	.byte		N24   , En2 , v080
	.byte	W24
	.byte	PEND
	.byte		N08   , Fs2 , v120
	.byte	W08
	.byte		        Fs2 , v040
	.byte	W40
	.byte		N24   , Fs2 , v120
	.byte	W24
	.byte	PEND
	.byte	PATT
	 .word	seq_105_2 + 0xFC
	.byte	PATT
	 .word	seq_105_2 + 0x108
	.byte	PATT
	 .word	seq_105_2 + 0x114
	.byte	PATT
	 .word	seq_105_2 + 0x120
	.byte	PATT
	 .word	seq_105_2 + 0xFC
	.byte	PATT
	 .word	seq_105_2 + 0x108
	.byte	PATT
	 .word	seq_105_2 + 0x114
	.byte	PATT
	 .word	seq_105_2 + 0xFC
	.byte	PATT
	 .word	seq_105_2 + 0xFC
	.byte	PATT
	 .word	seq_105_2 + 0x108
	.byte		N08   , An2 , v120
	.byte	W08
	.byte		        An2 , v040
	.byte	W40
	.byte		N24   , An2 , v120
	.byte	W24
	.byte	PEND
	.byte		N08   , As2 
	.byte	W08
	.byte		        As2 , v040
	.byte	W40
	.byte		N24   , As2 , v120
	.byte	W24
	.byte	PATT
	 .word	seq_105_2 + 0x15E
	.byte		N08   , An2 , v120
	.byte	W08
	.byte		        An2 , v040
	.byte	W40
	.byte		N24   , Gn2 , v120
	.byte	W24
	.byte	PEND
	.byte	PATT
	 .word	seq_105_2 + 0x15E
	.byte	PATT
	 .word	seq_105_2 + 0x179
	.byte	GOTO
	 .word	seq_105_2 + 0xB
	.byte	FINE

@*********************** Track 04 ***********************@

seq_105_3:
	.byte	KEYSH , seq_105_key+0
	.byte	W06
	.byte		VOICE , 12
	.byte	W01
	.byte		VOL   , 61*seq_105_mvl/mxv
	.byte	W01
	.byte		PAN   , c_v+16
	.byte	W16
	.byte		N07   , Fs2 , v120
	.byte	W07
	.byte		N11   , Fs2 , v040
	.byte	W17
	.byte		N12   , Fs4 , v120
	.byte	W12
	.byte		        Fn4 
	.byte	W12
	.byte		N07   , Fs4 , v100
	.byte	W07
	.byte		N05   , Fs4 , v040
	.byte	W17
	.byte		N07   , Fs2 , v120
	.byte	W07
	.byte		N11   , Fs2 , v040
	.byte	W17
	.byte		N12   , An3 , v120
	.byte		N12   , Dn4 
	.byte	W12
	.byte		        Cs4 
	.byte	W12
	.byte		N07   , Dn4 , v100
	.byte	W07
	.byte		N05   , Dn4 , v040
	.byte	W17
	.byte		N48   , Cs4 , v120
	.byte	W48
	.byte		N24   , Bn3 
	.byte	W24
	.byte		N07   , An3 , v100
	.byte	W07
	.byte		N05   , An3 , v040
	.byte	W64
	.byte	W01
	.byte		N08   , Dn2 , v120
	.byte		N08   , Fs2 
	.byte	W08
	.byte		        Dn2 , v040
	.byte		N08   , Fs2 
	.byte	W40
	.byte		N24   , Dn2 , v120
	.byte		N24   , Fs2 
	.byte	W24
	.byte	PEND
	.byte		N08   , Gn2 , v120
	.byte	W08
	.byte		        Gn2 , v040
	.byte	W40
	.byte		N24   , Gn2 , v120
	.byte	W24
	.byte	PEND
	.byte		N08   , En2 , v120
	.byte		N08   , An2 
	.byte	W08
	.byte		        En2 , v040
	.byte		N08   , An2 
	.byte	W40
	.byte		N24   , An2 , v120
	.byte	W24
	.byte	PEND
	.byte		N08   , Dn2 , v120
	.byte		N08   , Gn2 
	.byte	W08
	.byte		        Dn2 , v040
	.byte		N08   , Gn2 
	.byte	W40
	.byte		N24   , Gn2 , v120
	.byte	W24
	.byte	PEND
	.byte	PATT
	 .word	seq_105_3 + 0x4A
	.byte	PATT
	 .word	seq_105_3 + 0x5C
	.byte	PATT
	 .word	seq_105_3 + 0x68
	.byte	PATT
	 .word	seq_105_3 + 0x78
	.byte		N08   , Fs2 , v120
	.byte	W08
	.byte		        Fs2 , v040
	.byte	W40
	.byte		N24   , Fs2 , v120
	.byte	W24
	.byte	PEND
	.byte	PATT
	 .word	seq_105_3 + 0x5C
	.byte		N08   , An2 , v120
	.byte	W08
	.byte		        An2 , v040
	.byte	W40
	.byte		N24   , An2 , v120
	.byte	W24
	.byte	PEND
	.byte	PATT
	 .word	seq_105_3 + 0x5C
	.byte	PATT
	 .word	seq_105_3 + 0x9C
	.byte	PATT
	 .word	seq_105_3 + 0x5C
	.byte	PATT
	 .word	seq_105_3 + 0xAD
	.byte	PATT
	 .word	seq_105_3 + 0x5C
	.byte	PATT
	 .word	seq_105_3 + 0x9C
	.byte	PATT
	 .word	seq_105_3 + 0x5C
	.byte	PATT
	 .word	seq_105_3 + 0xAD
	.byte	PATT
	 .word	seq_105_3 + 0x5C
	.byte	PATT
	 .word	seq_105_3 + 0x9C
	.byte	PATT
	 .word	seq_105_3 + 0x5C
	.byte	PATT
	 .word	seq_105_3 + 0xAD
	.byte	PATT
	 .word	seq_105_3 + 0x5C
	.byte		N08   , Dn3 , v120
	.byte	W08
	.byte		        Dn3 , v040
	.byte	W40
	.byte		N24   , Dn3 , v120
	.byte	W24
	.byte	PEND
	.byte		N08   , En3 , v120
	.byte	W08
	.byte		        En3 , v040
	.byte	W40
	.byte		N24   , En3 , v120
	.byte	W24
	.byte	PEND
	.byte		N08   , Cn3 , v120
	.byte	W08
	.byte		        Cn3 , v040
	.byte	W40
	.byte		N24   , Cn3 , v080
	.byte	W24
	.byte	PEND
	.byte		N08   , Cn3 , v120
	.byte	W08
	.byte		        Cn3 , v040
	.byte	W40
	.byte		N24   , Cn3 , v120
	.byte	W24
	.byte	PEND
	.byte	PATT
	 .word	seq_105_3 + 0xFA
	.byte	PATT
	 .word	seq_105_3 + 0x106
	.byte	PATT
	 .word	seq_105_3 + 0x112
	.byte	PATT
	 .word	seq_105_3 + 0x11E
	.byte	PATT
	 .word	seq_105_3 + 0xFA
	.byte	PATT
	 .word	seq_105_3 + 0x106
	.byte	PATT
	 .word	seq_105_3 + 0x112
	.byte	PATT
	 .word	seq_105_3 + 0xFA
	.byte	PATT
	 .word	seq_105_3 + 0xFA
	.byte	PATT
	 .word	seq_105_3 + 0x106
	.byte		N08   , Fn3 , v120
	.byte	W08
	.byte		        Fn3 , v040
	.byte	W40
	.byte		N24   , Fn3 , v120
	.byte	W24
	.byte		N08   , Gn3 
	.byte	W08
	.byte		        Gn3 , v040
	.byte	W40
	.byte		N24   , Gn3 , v120
	.byte	W24
	.byte		N08   , Fs3 , v120
	.byte	W08
	.byte		        Fs3 , v040
	.byte	W40
	.byte		N24   , Fs3 , v120
	.byte	W24
	.byte	PEND
	.byte		N08   , Fs3 , v120
	.byte	W08
	.byte		        Fs3 , v040
	.byte	W40
	.byte		N24   , En3 , v120
	.byte	W24
	.byte	PEND
	.byte	PATT
	 .word	seq_105_3 + 0x171
	.byte	PATT
	 .word	seq_105_3 + 0x17D
	.byte	GOTO
	 .word	seq_105_3 + 0xC
	.byte	FINE

@*********************** Track 05 ***********************@

seq_105_4:
	.byte	KEYSH , seq_105_key+0
	.byte	W06
	.byte		VOICE , 6
	.byte	W01
	.byte		VOL   , 51*seq_105_mvl/mxv
	.byte	W01
	.byte		PAN   , c_v+0
	.byte	W01
	.byte		LFOS  , 20
	.byte	W01
	.byte		MODT  , mod_pan
	.byte	W01
	.byte		LFODL , 0
	.byte	W01
	.byte		MOD   , 60
	.byte	W12
	.byte	W12
	.byte		N04   , Dn3 , v120
	.byte	W04
	.byte		        Dn4 , v080
	.byte	W08
	.byte		N02   , Fs4 , v120
	.byte	W02
	.byte		N04   , Dn5 
	.byte	W32
	.byte	W02
	.byte		N02   , An3 
	.byte	W02
	.byte		N04   , Fs4 , v080
	.byte	W10
	.byte	PEND
	.byte	W12
	.byte		        Bn2 , v120
	.byte	W04
	.byte		        Dn4 , v080
	.byte	W08
	.byte		N02   , Fs4 , v120
	.byte	W02
	.byte		N04   , Dn5 
	.byte	W32
	.byte	W02
	.byte		N02   , Fs3 
	.byte	W02
	.byte		N04   , Dn4 , v080
	.byte	W10
	.byte	W72
	.byte		N02   , En3 
	.byte	W02
	.byte		N04   , Cs4 , v120
	.byte	W10
	.byte		N02   , Dn3 , v080
	.byte	W02
	.byte		N04   , Bn3 , v120
	.byte	W10
	.byte		N02   , Cs3 , v080
	.byte	W02
	.byte		N04   , An3 , v120
	.byte	W10
	.byte		N02   , Bn2 , v080
	.byte	W02
	.byte		N04   , Gn3 , v120
	.byte	W10
	.byte		N02   , An2 , v080
	.byte	W02
	.byte		N04   , Fs3 , v120
	.byte	W10
	.byte		N02   , Gn2 , v080
	.byte	W02
	.byte		N04   , En3 , v120
	.byte	W10
	.byte	W72
	.byte	W72
	.byte	W72
	.byte	W72
	.byte	W72
	.byte	W72
	.byte	W72
	.byte	W72
	.byte	W72
	.byte	W72
	.byte	W72
	.byte	W72
	.byte	W72
	.byte	W72
	.byte	W72
	.byte	W72
	.byte	W72
	.byte	W72
	.byte	W72
	.byte	W72
	.byte	W72
	.byte	W72
	.byte	W72
	.byte		N02   , Bn2 
	.byte	W02
	.byte		        Bn3 , v080
	.byte	W10
	.byte		        Cs3 , v120
	.byte	W02
	.byte		        Cs4 , v080
	.byte	W10
	.byte		        Dn3 , v120
	.byte	W02
	.byte		        Dn4 , v080
	.byte	W10
	.byte		        En3 , v120
	.byte	W02
	.byte		        En4 , v080
	.byte	W10
	.byte		        Fs3 , v120
	.byte	W02
	.byte		        Fs4 , v080
	.byte	W10
	.byte		        Gn3 , v120
	.byte	W02
	.byte		        Gn4 , v080
	.byte	W10
	.byte	W72
	.byte	W72
	.byte	W72
	.byte	W72
	.byte	W72
	.byte	W72
	.byte	W72
	.byte	W72
	.byte	W72
	.byte	W72
	.byte	W72
	.byte	W72
	.byte	W12
	.byte		N04   , Dn3 , v120
	.byte	W04
	.byte		        Dn4 , v080
	.byte	W08
	.byte		N02   , Fn4 , v120
	.byte	W02
	.byte		N04   , Dn5 
	.byte	W32
	.byte	W02
	.byte		N02   , As3 
	.byte	W02
	.byte		N04   , Fn4 , v080
	.byte	W10
	.byte	W12
	.byte		        En3 , v120
	.byte	W04
	.byte		        En4 , v080
	.byte	W08
	.byte		N02   , En4 , v120
	.byte	W02
	.byte		N04   , Cn5 
	.byte	W32
	.byte	W02
	.byte		N02   , Gn3 
	.byte	W02
	.byte		N04   , En4 , v080
	.byte	W10
	.byte	W12
	.byte		        Fn3 , v120
	.byte	W04
	.byte		        Fn4 , v080
	.byte	W08
	.byte		N02   , Fn4 , v120
	.byte	W02
	.byte		N04   , Dn5 
	.byte	W32
	.byte	W02
	.byte		N02   , An3 
	.byte	W02
	.byte		N04   , Fn4 , v080
	.byte	W10
	.byte	W12
	.byte		        Gn3 , v120
	.byte	W04
	.byte		        Gn4 , v080
	.byte	W08
	.byte		N02   , En4 , v120
	.byte	W02
	.byte		N04   , Cn5 
	.byte	W32
	.byte	W02
	.byte		N02   , As3 
	.byte	W02
	.byte		N04   , Gn4 , v080
	.byte	W10
	.byte	PATT
	 .word	seq_105_4 + 0x18
	.byte	PATT
	 .word	seq_105_4 + 0x18
	.byte	W12
	.byte		N02   , Dn3 , v120
	.byte	W02
	.byte		        Fs2 , v080
	.byte	W10
	.byte		        Fs3 , v120
	.byte	W02
	.byte		        An2 , v080
	.byte	W10
	.byte		        An3 , v120
	.byte	W02
	.byte		        Dn3 , v080
	.byte	W10
	.byte		        Dn4 , v120
	.byte	W02
	.byte		        Fs3 , v080
	.byte	W10
	.byte		        An4 , v120
	.byte	W02
	.byte		        Dn4 , v080
	.byte	W10
	.byte		        Dn5 , v120
	.byte	W02
	.byte		        Fs4 , v080
	.byte	W68
	.byte	W02
	.byte	GOTO
	 .word	seq_105_4 + 0x18
	.byte	FINE

@*********************** Track 06 ***********************@

seq_105_5:
	.byte	KEYSH , seq_105_key+0
	.byte	W06
	.byte		VOICE , 35
	.byte	W01
	.byte		VOL   , 56*seq_105_mvl/mxv
	.byte	W01
	.byte		PAN   , c_v+16
	.byte	W01
	.byte		LFOS  , 25
	.byte	W01
	.byte		LFODL , 0
	.byte	W14
	.byte		N08   , Dn2 , v120
	.byte	W08
	.byte		N03   , Dn2 , v040
	.byte	W64
	.byte		N08   , Bn1 , v120
	.byte	W08
	.byte		N03   , Bn1 , v040
	.byte	W64
	.byte		N36   , En1 , v120
	.byte	W36
	.byte		N12   , Fs1 , v100
	.byte	W12
	.byte		        Gs1 
	.byte	W12
	.byte		        Bn1 
	.byte	W12
	.byte		N08   , An1 , v120
	.byte	W08
	.byte		N03   , An1 , v040
	.byte	W16
	.byte		N08   , Bn1 , v120
	.byte	W08
	.byte		N03   , Bn1 , v040
	.byte	W16
	.byte		N08   , Cs2 , v120
	.byte	W08
	.byte		N03   , Cs2 , v040
	.byte	W16
	.byte		N08   , Dn2 , v120
	.byte	W08
	.byte		N06   , Dn2 , v040
	.byte	W64
	.byte	PEND
	.byte	PATT
	 .word	seq_105_5 + 0x46
	.byte	PATT
	 .word	seq_105_5 + 0x46
	.byte		N08   , Dn2 , v120
	.byte	W08
	.byte		N06   , Dn2 , v040
	.byte	W40
	.byte		N24   , An1 , v100
	.byte	W24
	.byte	PEND
	.byte	PATT
	 .word	seq_105_5 + 0x46
	.byte	PATT
	 .word	seq_105_5 + 0x46
	.byte	PATT
	 .word	seq_105_5 + 0x46
	.byte	PATT
	 .word	seq_105_5 + 0x59
	.byte	PATT
	 .word	seq_105_5 + 0x46
	.byte	PATT
	 .word	seq_105_5 + 0x46
	.byte	PATT
	 .word	seq_105_5 + 0x46
	.byte	PATT
	 .word	seq_105_5 + 0x46
	.byte	PATT
	 .word	seq_105_5 + 0x46
	.byte	PATT
	 .word	seq_105_5 + 0x46
	.byte	PATT
	 .word	seq_105_5 + 0x46
	.byte	PATT
	 .word	seq_105_5 + 0x59
	.byte	PATT
	 .word	seq_105_5 + 0x46
	.byte	PATT
	 .word	seq_105_5 + 0x46
	.byte	PATT
	 .word	seq_105_5 + 0x46
	.byte	PATT
	 .word	seq_105_5 + 0x46
	.byte	PATT
	 .word	seq_105_5 + 0x46
	.byte	PATT
	 .word	seq_105_5 + 0x46
	.byte	PATT
	 .word	seq_105_5 + 0x46
	.byte	PATT
	 .word	seq_105_5 + 0x59
	.byte		N08   , As1 , v120
	.byte	W08
	.byte		N06   , As1 , v040
	.byte	W52
	.byte		N12   , An1 , v080
	.byte	W12
	.byte	PEND
	.byte		N08   , As1 , v120
	.byte	W08
	.byte		N06   , As1 , v040
	.byte	W64
	.byte	PEND
	.byte		N08   , An1 , v120
	.byte	W08
	.byte		N06   , An1 , v040
	.byte	W52
	.byte		N12   , An1 , v080
	.byte	W12
	.byte	PEND
	.byte	PATT
	 .word	seq_105_5 + 0x46
	.byte	PATT
	 .word	seq_105_5 + 0xCA
	.byte	PATT
	 .word	seq_105_5 + 0xD7
	.byte	PATT
	 .word	seq_105_5 + 0xE0
	.byte	PATT
	 .word	seq_105_5 + 0x46
	.byte	PATT
	 .word	seq_105_5 + 0xCA
	.byte	PATT
	 .word	seq_105_5 + 0xD7
	.byte	PATT
	 .word	seq_105_5 + 0xE0
	.byte		N08   , Gs1 , v120
	.byte	W08
	.byte		N06   , Gs1 , v040
	.byte	W40
	.byte		N24   , Gs1 , v080
	.byte	W24
	.byte		N08   , Gn1 , v120
	.byte	W08
	.byte		N06   , Gn1 , v040
	.byte	W40
	.byte		N24   , Gn1 , v080
	.byte	W24
	.byte		N08   , An1 , v120
	.byte	W08
	.byte		N06   , An1 , v040
	.byte	W40
	.byte		N24   , An1 , v080
	.byte	W24
	.byte		N08   , As1 , v120
	.byte	W08
	.byte		N06   , As1 , v040
	.byte	W40
	.byte		N24   , As1 , v080
	.byte	W24
	.byte		N08   , Cn2 , v120
	.byte	W08
	.byte		N06   , Cn2 , v040
	.byte	W40
	.byte		N24   , Cn2 , v080
	.byte	W24
	.byte	PATT
	 .word	seq_105_5 + 0x46
	.byte		N08   , Dn2 , v120
	.byte	W08
	.byte		N06   , Dn2 , v040
	.byte	W40
	.byte		N24   , An1 , v080
	.byte	W24
	.byte	PEND
	.byte	PATT
	 .word	seq_105_5 + 0x46
	.byte	PATT
	 .word	seq_105_5 + 0x156
	.byte	GOTO
	 .word	seq_105_5 + 0x12
	.byte	FINE

@*********************** Track 07 ***********************@

seq_105_6:
	.byte	KEYSH , seq_105_key+0
	.byte	W12
	.byte		VOICE , 0
	.byte	W01
	.byte		VOL   , 35*seq_105_mvl/mxv
	.byte	W01
	.byte		PAN   , c_v-14
	.byte	W10
	.byte	W72
	.byte	W72
	.byte	W72
	.byte	W72
	.byte	W72
	.byte	W72
	.byte	W72
	.byte	W72
	.byte	W72
	.byte	W72
	.byte	W72
	.byte	W72
	.byte	W72
	.byte	W72
	.byte	W72
	.byte	W72
	.byte	W72
	.byte	W72
	.byte	W12
	.byte		N02   , Cs4 , v120
	.byte	W02
	.byte		N12   , Dn4 , v100
	.byte	W10
	.byte		        Cs4 
	.byte	W12
	.byte		        Bn3 
	.byte	W12
	.byte		        An3 
	.byte	W12
	.byte		        Gn3 
	.byte	W12
	.byte		        Fs3 
	.byte	W12
	.byte		        En3 
	.byte	W12
	.byte		        Fs3 
	.byte	W12
	.byte		        Gn3 
	.byte	W12
	.byte		        An3 
	.byte	W12
	.byte		        An3 , v060
	.byte	W12
	.byte	W72
	.byte	W72
	.byte	W72
	.byte	W72
	.byte	W72
	.byte	W72
	.byte	W72
	.byte	W68
	.byte	W03
	.byte		VOICE , 31
	.byte	W01
	.byte		N02   , Cs4 , v120
	.byte	W02
	.byte		N24   , Dn4 
	.byte	W22
	.byte		        En4 , v100
	.byte	W24
	.byte		        Fn4 
	.byte	W24
	.byte	PEND
	.byte		N24   , Gn4 , v120
	.byte	W24
	.byte		N12   , Gn4 , v040
	.byte	W12
	.byte		        Gn4 , v020
	.byte	W12
	.byte		N24   , En4 , v100
	.byte	W24
	.byte	PEND
	.byte		N24   , Cn4 , v100
	.byte	W24
	.byte		        Cn4 , v040
	.byte	W48
	.byte	PEND
	.byte	W72
	.byte	PATT
	 .word	seq_105_6 + 0x48
	.byte		N24   , Gn4 , v120
	.byte	W24
	.byte		N12   , Gn4 , v040
	.byte	W12
	.byte		        Gn4 , v020
	.byte	W12
	.byte		N24   , Cn5 , v100
	.byte	W24
	.byte		        Gn4 
	.byte	W24
	.byte		        Gn4 , v040
	.byte	W48
	.byte	W72
	.byte	PATT
	 .word	seq_105_6 + 0x48
	.byte	PATT
	 .word	seq_105_6 + 0x55
	.byte	PATT
	 .word	seq_105_6 + 0x65
	.byte	W72
	.byte	W72
	.byte	W72
	.byte	W72
	.byte	W72
	.byte	W72
	.byte	W72
	.byte	W72
	.byte	W64
	.byte	W01
	.byte		VOICE , 0
	.byte	W07
	.byte	GOTO
	 .word	seq_105_6 + 0xC
	.byte	FINE

@*********************** Track 08 ***********************@

seq_105_7:
	.byte	KEYSH , seq_105_key+0
	.byte	W12
	.byte		VOICE , 52
	.byte	W01
	.byte		VOL   , 46*seq_105_mvl/mxv
	.byte	W01
	.byte		PAN   , c_v+0
	.byte	W01
	.byte		LFOS  , 60
	.byte	W01
	.byte		MODT  , mod_pan
	.byte	W01
	.byte		LFODL , 0
	.byte	W07
	.byte	W72
	.byte	W72
	.byte	W72
	.byte	W11
	.byte		MOD   , 60
	.byte	W01
	.byte		N06   , Bn5 , v100
	.byte	W06
	.byte		        Dn4 , v060
	.byte	W06
	.byte		        An5 , v100
	.byte	W06
	.byte		        Cs4 , v060
	.byte	W06
	.byte		        Gn5 , v100
	.byte	W06
	.byte		        Bn3 , v060
	.byte	W06
	.byte		        Fs5 , v100
	.byte	W06
	.byte		        An3 , v060
	.byte	W06
	.byte		        En5 , v100
	.byte	W06
	.byte		        Gn3 , v060
	.byte	W06
	.byte	W72
	.byte	W72
	.byte	W72
	.byte	W72
	.byte	W72
	.byte	W72
	.byte	W72
	.byte	W72
	.byte	W72
	.byte	W72
	.byte	W72
	.byte	W72
	.byte	W72
	.byte	W72
	.byte	W72
	.byte	W72
	.byte	W72
	.byte	W72
	.byte	W72
	.byte	W72
	.byte	W72
	.byte	W72
	.byte	W72
	.byte	W72
	.byte	W72
	.byte	W72
	.byte	W22
	.byte		VOL   , 51*seq_105_mvl/mxv
	.byte	W02
	.byte		N24   , Cn6 , v100
	.byte	W24
	.byte		        As5 , v080
	.byte	W24
	.byte		N24   , An5 , v100
	.byte	W24
	.byte		        Gn5 , v080
	.byte	W24
	.byte		        Fs5 
	.byte	W24
	.byte	PEND
	.byte		N12   , Fn5 , v100
	.byte	W72
	.byte	W72
	.byte	W24
	.byte		N24   , Cn6 
	.byte	W24
	.byte		        As5 , v080
	.byte	W24
	.byte	PATT
	 .word	seq_105_7 + 0x60
	.byte	W72
	.byte	W72
	.byte	W24
	.byte		N24   , Dn5 , v100
	.byte	W24
	.byte		        En5 
	.byte	W24
	.byte		N36   , Fn5 
	.byte	W72
	.byte	W72
	.byte	W72
	.byte	W72
	.byte	W72
	.byte	W72
	.byte	W72
	.byte	W72
	.byte	W68
	.byte	W01
	.byte		VOL   , 46*seq_105_mvl/mxv
	.byte	W03
	.byte	GOTO
	 .word	seq_105_7 + 0x15
	.byte	FINE

@*********************** Track 09 ***********************@

seq_105_8:
	.byte	KEYSH , seq_105_key+0
	.byte	W12
	.byte		VOICE , 101
	.byte	W01
	.byte		VOL   , 65*seq_105_mvl/mxv
	.byte	W01
	.byte		PAN   , c_v+0
	.byte	W01
	.byte		LFOS  , 30
	.byte	W01
	.byte		BENDR , 12
	.byte	W08
	.byte		N08   , Dn2 , v120
	.byte	W08
	.byte		N05   , Dn2 , v060
	.byte	W05
	.byte		N03   , Dn2 , v040
	.byte	W56
	.byte	W03
	.byte		N08   , Bn1 , v120
	.byte	W08
	.byte		N05   , Bn1 , v060
	.byte	W05
	.byte		N03   , Bn1 , v040
	.byte	W56
	.byte	W03
	.byte		N36   , En1 , v120
	.byte	W36
	.byte		N10   , Fs1 
	.byte	W10
	.byte		N02   , Fs1 , v060
	.byte	W02
	.byte		N10   , Gs1 , v120
	.byte	W10
	.byte		N02   , Gs1 , v060
	.byte	W02
	.byte		N10   , Bn1 , v120
	.byte	W10
	.byte		N02   , Bn1 , v060
	.byte	W02
	.byte		N08   , An1 , v120
	.byte	W08
	.byte		N10   , An1 , v060
	.byte	W16
	.byte		N08   , Bn1 , v120
	.byte	W08
	.byte		N10   , Bn1 , v060
	.byte	W16
	.byte		N08   , Cs2 , v120
	.byte	W08
	.byte		N10   , Cs2 , v060
	.byte	W16
	.byte		N07   , Dn2 , v120
	.byte	W07
	.byte		N05   , Dn2 , v060
	.byte	W05
	.byte		N03   , Dn2 , v040
	.byte	W60
	.byte	PEND
	.byte	PATT
	 .word	seq_105_8 + 0x5F
	.byte	PATT
	 .word	seq_105_8 + 0x5F
	.byte		N07   , Dn2 , v120
	.byte	W07
	.byte		N05   , Dn2 , v060
	.byte	W05
	.byte		N03   , Dn2 , v040
	.byte	W36
	.byte		N19   , An1 , v120
	.byte	W19
	.byte		N05   , An1 , v060
	.byte	W05
	.byte	PEND
	.byte	PATT
	 .word	seq_105_8 + 0x5F
	.byte	PATT
	 .word	seq_105_8 + 0x5F
	.byte	PATT
	 .word	seq_105_8 + 0x5F
	.byte	PATT
	 .word	seq_105_8 + 0x76
	.byte	PATT
	 .word	seq_105_8 + 0x5F
	.byte	PATT
	 .word	seq_105_8 + 0x5F
	.byte	PATT
	 .word	seq_105_8 + 0x5F
	.byte	PATT
	 .word	seq_105_8 + 0x5F
	.byte	PATT
	 .word	seq_105_8 + 0x5F
	.byte	PATT
	 .word	seq_105_8 + 0x5F
	.byte	PATT
	 .word	seq_105_8 + 0x5F
	.byte	PATT
	 .word	seq_105_8 + 0x76
	.byte	PATT
	 .word	seq_105_8 + 0x5F
	.byte	PATT
	 .word	seq_105_8 + 0x5F
	.byte	PATT
	 .word	seq_105_8 + 0x5F
	.byte	PATT
	 .word	seq_105_8 + 0x5F
	.byte	PATT
	 .word	seq_105_8 + 0x5F
	.byte	PATT
	 .word	seq_105_8 + 0x5F
	.byte	PATT
	 .word	seq_105_8 + 0x5F
	.byte	PATT
	 .word	seq_105_8 + 0x76
	.byte		N07   , As1 , v120
	.byte	W07
	.byte		N05   , As1 , v060
	.byte	W05
	.byte		N03   , As1 , v040
	.byte	W48
	.byte		N12   , An1 , v120
	.byte	W12
	.byte	PEND
	.byte		N07   , As1 , v120
	.byte	W07
	.byte		N05   , As1 , v060
	.byte	W05
	.byte		N03   , As1 , v040
	.byte	W60
	.byte	PEND
	.byte		N07   , An1 , v120
	.byte	W07
	.byte		N05   , An1 , v060
	.byte	W05
	.byte		N03   , An1 , v040
	.byte	W48
	.byte		N12   , An1 , v120
	.byte	W12
	.byte	PEND
	.byte		N07   , Dn1 , v120
	.byte	W07
	.byte		N05   , Dn1 , v060
	.byte	W05
	.byte		N03   , Dn1 , v040
	.byte	W60
	.byte	PEND
	.byte	PATT
	 .word	seq_105_8 + 0xEF
	.byte	PATT
	 .word	seq_105_8 + 0x100
	.byte	PATT
	 .word	seq_105_8 + 0x10D
	.byte	PATT
	 .word	seq_105_8 + 0x11E
	.byte	PATT
	 .word	seq_105_8 + 0xEF
	.byte	PATT
	 .word	seq_105_8 + 0x100
	.byte	PATT
	 .word	seq_105_8 + 0x10D
	.byte		N07   , Gs1 , v120
	.byte	W07
	.byte		N05   , Gs1 , v060
	.byte	W05
	.byte		N03   , Gs1 , v040
	.byte	W36
	.byte		N24   , Gs1 , v120
	.byte	W24
	.byte		N07   , Gn1 
	.byte	W07
	.byte		N05   , Gn1 , v060
	.byte	W05
	.byte		N03   , Gn1 , v040
	.byte	W36
	.byte		N24   , Gn1 , v120
	.byte	W24
	.byte		N07   , An1 
	.byte	W07
	.byte		N05   , An1 , v060
	.byte	W05
	.byte		N03   , An1 , v040
	.byte	W36
	.byte		N24   , An1 , v120
	.byte	W24
	.byte		N07   , As1 
	.byte	W07
	.byte		N05   , As1 , v060
	.byte	W05
	.byte		N03   , As1 , v040
	.byte	W36
	.byte		N24   , As1 , v120
	.byte	W24
	.byte		N07   , Cn2 
	.byte	W07
	.byte		N05   , Cn2 , v060
	.byte	W05
	.byte		N03   , Cn2 , v040
	.byte	W36
	.byte		N24   , Cn2 , v120
	.byte	W24
	.byte	PATT
	 .word	seq_105_8 + 0x5F
	.byte		N07   , Dn2 , v120
	.byte	W07
	.byte		N05   , Dn2 , v060
	.byte	W05
	.byte		N03   , Dn2 , v040
	.byte	W36
	.byte		N24   , An2 , v120
	.byte	W24
	.byte	PATT
	 .word	seq_105_8 + 0x5F
	.byte		N07   , Dn2 , v120
	.byte	W07
	.byte		N05   , Dn2 , v060
	.byte	W05
	.byte		N03   , Dn2 , v040
	.byte	W36
	.byte		N24   , An1 , v120
	.byte	W24
	.byte	GOTO
	 .word	seq_105_8 + 0x12
	.byte	FINE

@*********************** Track 10 ***********************@

seq_105_9:
	.byte	KEYSH , seq_105_key+0
	.byte	W18
	.byte		VOICE , 74
	.byte	W01
	.byte		VOL   , 35*seq_105_mvl/mxv
	.byte	W01
	.byte		PAN   , c_v+0
	.byte	W01
	.byte		LFOS  , 30
	.byte	W01
	.byte		MODT  , mod_pan
	.byte	W01
	.byte		BENDR , 2
	.byte	W01
	.byte		N03   , Fs3 , v120
	.byte	W05
	.byte		N07   , Fs3 , v060
	.byte	W07
	.byte		N03   , Dn4 , v120
	.byte	W05
	.byte		N07   , Dn4 , v060
	.byte	W06
	.byte		MOD   , 50
	.byte	W01
	.byte		N12   , Fs4 , v120
	.byte	W12
	.byte		        Fn4 
	.byte	W12
	.byte		N06   , Fs4 
	.byte	W06
	.byte		        Fs4 , v040
	.byte	W06
	.byte		        Fs4 , v020
	.byte	W11
	.byte		MOD   , 0
	.byte	W01
	.byte		N03   , Fs3 , v120
	.byte	W05
	.byte		N07   , Fs3 , v060
	.byte	W07
	.byte		N03   , Dn4 , v120
	.byte	W05
	.byte		N07   , Dn4 , v060
	.byte	W06
	.byte		MOD   , 50
	.byte	W01
	.byte		N12   , Dn4 , v120
	.byte	W12
	.byte		        Cs4 
	.byte	W12
	.byte		N06   , Dn4 
	.byte	W06
	.byte		        Dn4 , v040
	.byte	W06
	.byte		        Dn4 , v020
	.byte	W12
	.byte		N48   , Cs4 , v120
	.byte	W48
	.byte		N24   , Bn3 
	.byte	W23
	.byte		MOD   , 0
	.byte	W01
	.byte		N06   , An3 
	.byte	W06
	.byte		        An3 , v040
	.byte	W06
	.byte		N03   , Bn3 , v120
	.byte	W04
	.byte		N08   , Bn3 , v060
	.byte	W08
	.byte		N03   , An3 , v120
	.byte	W04
	.byte		N08   , An3 , v060
	.byte	W08
	.byte		N03   , Gn3 , v120
	.byte	W04
	.byte		N08   , Gn3 , v060
	.byte	W08
	.byte		N03   , Fs3 , v120
	.byte	W04
	.byte		N08   , Fs3 , v060
	.byte	W08
	.byte		N03   , En3 , v120
	.byte	W04
	.byte		N08   , En3 , v060
	.byte	W08
	.byte		N04   , Dn4 , v120
	.byte	W06
	.byte		N06   , Dn4 , v060
	.byte	W06
	.byte		N04   , An3 , v120
	.byte	W06
	.byte		N06   , An3 , v060
	.byte	W06
	.byte		N04   , Fs3 , v120
	.byte	W06
	.byte		N06   , Fs3 , v060
	.byte	W06
	.byte		N04   , An3 , v120
	.byte	W06
	.byte		N06   , An3 , v060
	.byte	W06
	.byte		N04   , Fs4 , v120
	.byte	W06
	.byte		N06   , Fs4 , v060
	.byte	W06
	.byte		N04   , Dn4 , v120
	.byte	W06
	.byte		N06   , Dn4 , v060
	.byte	W06
	.byte	PEND
	.byte		N06   , Dn4 , v120
	.byte	W06
	.byte		        Dn4 , v060
	.byte	W06
	.byte		        Bn3 , v120
	.byte	W06
	.byte		        Bn3 , v060
	.byte	W06
	.byte		        Gn3 , v120
	.byte	W06
	.byte		        Gn3 , v060
	.byte	W06
	.byte		        Bn3 , v120
	.byte	W06
	.byte		        Bn3 , v060
	.byte	W06
	.byte		        Gn4 , v120
	.byte	W06
	.byte		        Gn4 , v060
	.byte	W06
	.byte		        Dn4 , v120
	.byte	W06
	.byte		        Dn4 , v060
	.byte	W06
	.byte	PEND
	.byte		N04   , En4 , v120
	.byte	W06
	.byte		N06   , En4 , v060
	.byte	W06
	.byte		N04   , Cs4 , v120
	.byte	W06
	.byte		N06   , Cs4 , v060
	.byte	W06
	.byte		N04   , An3 , v120
	.byte	W06
	.byte		N06   , An3 , v060
	.byte	W06
	.byte		N04   , Cs4 , v120
	.byte	W06
	.byte		N06   , Cs4 , v060
	.byte	W06
	.byte		N04   , An4 , v120
	.byte	W06
	.byte		N06   , An4 , v060
	.byte	W06
	.byte		N04   , En4 , v120
	.byte	W06
	.byte		N06   , En4 , v060
	.byte	W06
	.byte	PEND
	.byte	PATT
	 .word	seq_105_9 + 0xC5
	.byte	PATT
	 .word	seq_105_9 + 0x94
	.byte	PATT
	 .word	seq_105_9 + 0xC5
	.byte	PATT
	 .word	seq_105_9 + 0xEB
	.byte		N06   , Dn4 , v120
	.byte	W06
	.byte		        Dn4 , v060
	.byte	W06
	.byte		        Bn3 , v120
	.byte	W06
	.byte		        Bn3 , v060
	.byte	W06
	.byte		        Gn3 , v120
	.byte	W06
	.byte		        Gn3 , v060
	.byte	W06
	.byte		        Bn3 , v120
	.byte	W06
	.byte		        Bn3 , v060
	.byte	W06
	.byte		        Gn4 , v120
	.byte	W06
	.byte		        Gn4 , v060
	.byte	W06
	.byte		        Dn4 , v120
	.byte	W06
	.byte		        Dn4 , v060
	.byte	W05
	.byte		VOL   , 30*seq_105_mvl/mxv
	.byte	W01
	.byte	PATT
	 .word	seq_105_9 + 0x94
	.byte	PATT
	 .word	seq_105_9 + 0xC5
	.byte	PATT
	 .word	seq_105_9 + 0xEB
	.byte	PATT
	 .word	seq_105_9 + 0xC5
	.byte	PATT
	 .word	seq_105_9 + 0x94
	.byte	PATT
	 .word	seq_105_9 + 0xC5
	.byte	PATT
	 .word	seq_105_9 + 0xEB
	.byte	PATT
	 .word	seq_105_9 + 0xC5
	.byte	PATT
	 .word	seq_105_9 + 0x94
	.byte	PATT
	 .word	seq_105_9 + 0xC5
	.byte	PATT
	 .word	seq_105_9 + 0xEB
	.byte	PATT
	 .word	seq_105_9 + 0xC5
	.byte	PATT
	 .word	seq_105_9 + 0x94
	.byte	PATT
	 .word	seq_105_9 + 0xC5
	.byte	PATT
	 .word	seq_105_9 + 0xEB
	.byte	PATT
	 .word	seq_105_9 + 0xC5
	.byte		N04   , Dn4 , v120
	.byte	W06
	.byte		N06   , Dn4 , v060
	.byte	W06
	.byte		N04   , Dn4 , v120
	.byte	W06
	.byte		N06   , Dn4 , v060
	.byte	W06
	.byte		N04   , En4 , v100
	.byte	W06
	.byte		N06   , En4 , v060
	.byte	W06
	.byte		N04   , En4 , v100
	.byte	W06
	.byte		N06   , En4 , v060
	.byte	W06
	.byte		N04   , Fn4 , v100
	.byte	W06
	.byte		N06   , Fn4 , v060
	.byte	W06
	.byte		N04   , Fn4 , v100
	.byte	W06
	.byte		N06   , Fn4 , v060
	.byte	W06
	.byte	PEND
	.byte		N04   , Gn4 , v120
	.byte	W06
	.byte		N06   , Gn4 , v060
	.byte	W06
	.byte		N04   , Gn4 , v120
	.byte	W06
	.byte		N06   , Gn4 , v060
	.byte	W06
	.byte		N04   , Gn4 , v100
	.byte	W06
	.byte		N06   , Gn4 , v060
	.byte	W06
	.byte		N04   , Gn4 , v100
	.byte	W06
	.byte		N06   , Gn4 , v060
	.byte	W06
	.byte		N04   , En4 , v100
	.byte	W06
	.byte		N06   , En4 , v060
	.byte	W06
	.byte		N04   , En4 , v100
	.byte	W06
	.byte		N06   , En4 , v060
	.byte	W06
	.byte		N04   , Cn4 , v120
	.byte	W06
	.byte		N06   , Cn4 , v060
	.byte	W06
	.byte		N04   , Cn4 , v120
	.byte	W06
	.byte		N06   , Cn4 , v060
	.byte	W06
	.byte		N04   , Cn4 , v120
	.byte	W06
	.byte		N06   , Cn4 , v060
	.byte	W06
	.byte		N04   , En4 , v120
	.byte	W06
	.byte		N06   , En4 , v060
	.byte	W06
	.byte		N04   , Gn4 , v120
	.byte	W06
	.byte		N06   , Gn4 , v060
	.byte	W06
	.byte		N04   , En4 , v120
	.byte	W06
	.byte		N06   , En4 , v060
	.byte	W06
	.byte		N04   , Fs4 , v120
	.byte	W06
	.byte		N06   , Fs4 , v060
	.byte	W06
	.byte		N04   , Fs4 , v120
	.byte	W06
	.byte		N06   , Fs4 , v060
	.byte	W06
	.byte		N04   , Gn4 , v100
	.byte	W06
	.byte		N06   , Gn4 , v060
	.byte	W06
	.byte		N04   , Gn4 , v100
	.byte	W06
	.byte		N06   , Gn4 , v060
	.byte	W06
	.byte		N04   , An4 , v100
	.byte	W06
	.byte		N06   , An4 , v060
	.byte	W06
	.byte		N04   , An4 , v100
	.byte	W06
	.byte		N06   , An4 , v060
	.byte	W06
	.byte	PEND
	.byte	PATT
	 .word	seq_105_9 + 0x1A8
	.byte		N04   , Gn4 , v120
	.byte	W06
	.byte		N06   , Gn4 , v060
	.byte	W06
	.byte		N04   , Gn4 , v120
	.byte	W06
	.byte		N06   , Gn4 , v060
	.byte	W06
	.byte		N04   , Gn4 , v100
	.byte	W06
	.byte		N06   , Gn4 , v060
	.byte	W06
	.byte		N04   , Gn4 , v100
	.byte	W06
	.byte		N06   , Gn4 , v060
	.byte	W06
	.byte		N04   , Cn5 , v100
	.byte	W06
	.byte		N06   , Cn5 , v060
	.byte	W06
	.byte		N04   , Cn5 , v100
	.byte	W06
	.byte		N06   , Cn5 , v060
	.byte	W06
	.byte		N04   , Gn4 , v120
	.byte	W06
	.byte		N06   , Gn4 , v060
	.byte	W06
	.byte		N04   , Gn4 , v120
	.byte	W06
	.byte		N06   , Gn4 , v060
	.byte	W06
	.byte		N04   , En4 , v120
	.byte	W06
	.byte		N06   , En4 , v060
	.byte	W06
	.byte		N04   , Gn4 , v120
	.byte	W06
	.byte		N06   , Gn4 , v060
	.byte	W06
	.byte		N04   , Cn5 , v120
	.byte	W06
	.byte		N06   , Cn5 , v060
	.byte	W06
	.byte		N04   , En4 , v120
	.byte	W06
	.byte		N06   , En4 , v060
	.byte	W06
	.byte	PATT
	 .word	seq_105_9 + 0x239
	.byte	PATT
	 .word	seq_105_9 + 0x1A8
	.byte		N04   , Gn4 , v120
	.byte	W06
	.byte		N06   , Gn4 , v060
	.byte	W06
	.byte		N04   , Gn4 , v120
	.byte	W06
	.byte		N06   , Gn4 , v060
	.byte	W06
	.byte		N04   , Gn4 , v100
	.byte	W06
	.byte		N06   , Gn4 , v060
	.byte	W06
	.byte		N04   , Gn4 , v100
	.byte	W06
	.byte		N06   , Gn4 , v060
	.byte	W06
	.byte		N04   , En4 , v100
	.byte	W06
	.byte		N06   , En4 , v060
	.byte	W06
	.byte		N04   , En4 , v100
	.byte	W06
	.byte		N06   , En4 , v060
	.byte	W05
	.byte		VOL   , 35*seq_105_mvl/mxv
	.byte	W01
	.byte		N04   , Cn5 , v120
	.byte	W06
	.byte		N06   , Cn5 , v060
	.byte	W06
	.byte		N03   , An4 , v120
	.byte	W06
	.byte		N06   , An4 , v060
	.byte	W06
	.byte		N04   , Fn4 , v100
	.byte	W06
	.byte		N06   , Fn4 , v060
	.byte	W06
	.byte		N04   , Dn4 , v100
	.byte	W06
	.byte		N06   , Dn4 , v060
	.byte	W06
	.byte		N03   , Cn4 , v100
	.byte	W06
	.byte		N06   , Cn4 , v060
	.byte	W06
	.byte		N03   , An3 , v100
	.byte	W06
	.byte		N06   , An3 , v060
	.byte	W06
	.byte		N04   , Cn6 , v120
	.byte	W06
	.byte		N06   , Cn6 , v060
	.byte	W06
	.byte		N04   , Gs5 , v120
	.byte	W06
	.byte		N06   , Gs5 , v060
	.byte	W06
	.byte		N04   , Fn5 , v100
	.byte	W06
	.byte		N06   , Fn5 , v060
	.byte	W06
	.byte		N04   , Dn5 , v100
	.byte	W06
	.byte		N06   , Dn5 , v060
	.byte	W06
	.byte		N04   , Cn5 , v100
	.byte	W06
	.byte		N06   , Cn5 , v060
	.byte	W06
	.byte		N04   , Gs4 , v100
	.byte	W06
	.byte		N06   , Gs4 , v060
	.byte	W06
	.byte		N04   , Dn4 , v120
	.byte	W06
	.byte		N06   , Dn4 , v060
	.byte	W06
	.byte		N04   , Dn4 , v120
	.byte	W06
	.byte		N06   , Dn4 , v060
	.byte	W06
	.byte		N04   , En4 , v100
	.byte	W06
	.byte		N06   , En4 , v060
	.byte	W06
	.byte		N04   , En4 , v100
	.byte	W06
	.byte		N06   , En4 , v060
	.byte	W06
	.byte		N04   , Fn4 , v100
	.byte	W06
	.byte		N06   , Fn4 , v060
	.byte	W06
	.byte		N04   , Fn4 , v080
	.byte	W06
	.byte		N06   , Fn4 , v060
	.byte	W06
	.byte		N04   , En4 , v120
	.byte	W06
	.byte		N06   , En4 , v060
	.byte	W06
	.byte		N04   , En4 , v120
	.byte	W06
	.byte		N06   , En4 , v060
	.byte	W06
	.byte		N04   , En4 , v100
	.byte	W06
	.byte		N06   , En4 , v060
	.byte	W06
	.byte		N04   , Fn4 , v100
	.byte	W06
	.byte		N06   , Fn4 , v060
	.byte	W06
	.byte		N04   , Gn4 , v080
	.byte	W06
	.byte		N06   , Gn4 , v060
	.byte	W06
	.byte		N04   , An4 , v080
	.byte	W06
	.byte		N06   , An4 , v060
	.byte	W06
	.byte		N04   , Fn4 , v120
	.byte	W06
	.byte		N06   , Fn4 , v060
	.byte	W06
	.byte		N04   , Fn4 , v120
	.byte	W06
	.byte		N06   , Fn4 , v060
	.byte	W06
	.byte		N04   , Gn4 , v100
	.byte	W06
	.byte		N06   , Gn4 , v060
	.byte	W06
	.byte		N04   , Gn4 , v100
	.byte	W06
	.byte		N06   , Gn4 , v060
	.byte	W06
	.byte		N04   , An4 , v100
	.byte	W06
	.byte		N06   , An4 , v060
	.byte	W06
	.byte		N04   , An4 , v100
	.byte	W06
	.byte		N06   , An4 , v060
	.byte	W06
	.byte		N04   , As4 , v120
	.byte	W06
	.byte		N06   , As4 , v060
	.byte	W06
	.byte		N03   , Cn5 , v100
	.byte	W06
	.byte		N06   , Cn5 , v060
	.byte	W06
	.byte		N04   , Dn5 , v100
	.byte	W06
	.byte		N06   , Dn5 , v060
	.byte	W06
	.byte		N04   , En5 , v100
	.byte	W06
	.byte		N06   , En5 , v060
	.byte	W06
	.byte		N04   , Fn5 , v100
	.byte	W06
	.byte		N06   , Fn5 , v060
	.byte	W06
	.byte		N04   , Gn5 , v100
	.byte	W06
	.byte		N06   , Gn5 , v060
	.byte	W06
	.byte		N04   , Fs5 , v120
	.byte	W06
	.byte		N06   , Fs5 , v060
	.byte	W06
	.byte		N04   , Dn5 , v120
	.byte	W06
	.byte		N06   , Dn5 , v060
	.byte	W06
	.byte		N04   , An5 , v100
	.byte	W06
	.byte		N06   , An5 , v060
	.byte	W06
	.byte		N04   , Gn5 , v100
	.byte	W06
	.byte		N06   , Gn5 , v060
	.byte	W06
	.byte		N04   , Fs5 , v100
	.byte	W06
	.byte		N06   , Fs5 , v060
	.byte	W06
	.byte		N04   , Dn5 , v100
	.byte	W06
	.byte		N06   , Dn5 , v060
	.byte	W06
	.byte	PEND
	.byte	PATT
	 .word	seq_105_9 + 0x42C
	.byte		N04   , Fs5 , v120
	.byte	W06
	.byte		N06   , Fs5 , v060
	.byte	W06
	.byte		N04   , Dn3 , v120
	.byte	W06
	.byte		N06   , Dn3 , v060
	.byte	W06
	.byte		N04   , Fs3 , v120
	.byte	W06
	.byte		N06   , Fs3 , v060
	.byte	W06
	.byte		N04   , An3 , v120
	.byte	W06
	.byte		N06   , An3 , v060
	.byte	W06
	.byte		N04   , Dn4 , v120
	.byte	W06
	.byte		N06   , Dn4 , v060
	.byte	W06
	.byte		N04   , An4 , v120
	.byte	W06
	.byte		N06   , An4 , v060
	.byte	W06
	.byte		N04   , Dn5 , v120
	.byte	W06
	.byte		N06   , Dn5 , v060
	.byte	W06
	.byte		        Dn5 , v040
	.byte	W06
	.byte		        Dn5 , v020
	.byte	W54
	.byte	GOTO
	 .word	seq_105_9 + 0x15
	.byte	FINE

@*********************** Track 11 ***********************@

seq_105_10:
	.byte	KEYSH , seq_105_key+0
	.byte	W18
	.byte		VOICE , 88
	.byte	W01
	.byte		VOL   , 35*seq_105_mvl/mxv
	.byte	W01
	.byte		PAN   , c_v+0
	.byte	W01
	.byte		LFOS  , 30
	.byte	W01
	.byte		MODT  , mod_pan
	.byte	W01
	.byte		BENDR , 2
	.byte	W01
	.byte		N05   , An2 , v120
	.byte	W05
	.byte		N07   , An2 , v060
	.byte	W07
	.byte		N05   , Fs3 , v120
	.byte	W05
	.byte		N07   , Fs3 , v060
	.byte	W06
	.byte		MOD   , 50
	.byte	W01
	.byte		N12   , An4 , v120
	.byte	W12
	.byte		        Gs4 
	.byte	W12
	.byte		N06   , An4 
	.byte	W06
	.byte		        An4 , v040
	.byte	W06
	.byte		        An4 , v020
	.byte	W11
	.byte		MOD   , 0
	.byte	W01
	.byte		N05   , An2 , v120
	.byte	W05
	.byte		N07   , An2 , v060
	.byte	W07
	.byte		N05   , Fs3 , v120
	.byte	W05
	.byte		N07   , Fs3 , v060
	.byte	W06
	.byte		MOD   , 50
	.byte	W01
	.byte		N12   , Fs4 , v120
	.byte	W12
	.byte		        Fn4 
	.byte	W12
	.byte		N06   , Fs4 
	.byte	W06
	.byte		        Fs4 , v040
	.byte	W06
	.byte		        Fs4 , v020
	.byte	W12
	.byte		N48   , En4 , v120
	.byte	W48
	.byte		N24   , Dn4 
	.byte	W23
	.byte		MOD   , 0
	.byte	W01
	.byte		N06   , Cs4 
	.byte	W06
	.byte		        Cs4 , v040
	.byte	W06
	.byte		N04   , Dn3 , v120
	.byte	W04
	.byte		N08   , Dn3 , v060
	.byte	W08
	.byte		N04   , Cs3 , v120
	.byte	W04
	.byte		N08   , Cs3 , v060
	.byte	W08
	.byte		N04   , Bn2 , v120
	.byte	W04
	.byte		N08   , Bn2 , v060
	.byte	W08
	.byte		N04   , An2 , v120
	.byte	W04
	.byte		N08   , An2 , v060
	.byte	W08
	.byte		N04   , Gn2 , v120
	.byte	W04
	.byte		N08   , Gn2 , v060
	.byte	W08
	.byte		N06   , An3 , v120
	.byte	W06
	.byte		        An3 , v060
	.byte	W06
	.byte		        Dn3 , v120
	.byte	W06
	.byte		        Dn3 , v060
	.byte	W06
	.byte		        An2 , v120
	.byte	W06
	.byte		        An2 , v060
	.byte	W06
	.byte		        Dn3 , v120
	.byte	W06
	.byte		        Dn3 , v060
	.byte	W06
	.byte		        An3 , v120
	.byte	W06
	.byte		        An3 , v060
	.byte	W06
	.byte		        Fs3 , v120
	.byte	W06
	.byte		        Fs3 , v060
	.byte	W06
	.byte	PEND
	.byte		N04   , Gn3 , v120
	.byte	W06
	.byte		N06   , Gn3 , v060
	.byte	W06
	.byte		N04   , Dn3 , v120
	.byte	W06
	.byte		N06   , Dn3 , v060
	.byte	W06
	.byte		N04   , Bn2 , v120
	.byte	W06
	.byte		N06   , Bn2 , v060
	.byte	W06
	.byte		N04   , Dn3 , v120
	.byte	W06
	.byte		N06   , Dn3 , v060
	.byte	W06
	.byte		N04   , Bn3 , v120
	.byte	W06
	.byte		N06   , Bn3 , v060
	.byte	W06
	.byte		N04   , Gn3 , v120
	.byte	W06
	.byte		N06   , Gn3 , v060
	.byte	W06
	.byte	PEND
	.byte		N06   , An3 , v120
	.byte	W06
	.byte		        An3 , v060
	.byte	W06
	.byte		        En3 , v120
	.byte	W06
	.byte		        En3 , v060
	.byte	W06
	.byte		        Cs3 , v120
	.byte	W06
	.byte		        Cs3 , v060
	.byte	W06
	.byte		        En3 , v120
	.byte	W06
	.byte		        En3 , v060
	.byte	W06
	.byte		        Cs4 , v120
	.byte	W06
	.byte		        Cs4 , v060
	.byte	W06
	.byte		        An3 , v120
	.byte	W06
	.byte		        An3 , v060
	.byte	W06
	.byte	PEND
	.byte	PATT
	 .word	seq_105_10 + 0xBA
	.byte	PATT
	 .word	seq_105_10 + 0x94
	.byte	PATT
	 .word	seq_105_10 + 0xBA
	.byte	PATT
	 .word	seq_105_10 + 0xEB
	.byte		N04   , Gn3 , v120
	.byte	W06
	.byte		N06   , Gn3 , v060
	.byte	W06
	.byte		N04   , Dn3 , v120
	.byte	W06
	.byte		N06   , Dn3 , v060
	.byte	W06
	.byte		N04   , Bn2 , v120
	.byte	W06
	.byte		N06   , Bn2 , v060
	.byte	W06
	.byte		N04   , Dn3 , v120
	.byte	W06
	.byte		N06   , Dn3 , v060
	.byte	W06
	.byte		N04   , Bn3 , v120
	.byte	W06
	.byte		N06   , Bn3 , v060
	.byte	W06
	.byte		N04   , Gn3 , v120
	.byte	W06
	.byte		N06   , Gn3 , v060
	.byte	W05
	.byte		VOL   , 30*seq_105_mvl/mxv
	.byte	W01
	.byte	PATT
	 .word	seq_105_10 + 0x94
	.byte	PATT
	 .word	seq_105_10 + 0xBA
	.byte	PATT
	 .word	seq_105_10 + 0xEB
	.byte	PATT
	 .word	seq_105_10 + 0xBA
	.byte	PATT
	 .word	seq_105_10 + 0x94
	.byte	PATT
	 .word	seq_105_10 + 0xBA
	.byte	PATT
	 .word	seq_105_10 + 0xEB
	.byte	PATT
	 .word	seq_105_10 + 0xBA
	.byte	PATT
	 .word	seq_105_10 + 0x94
	.byte	PATT
	 .word	seq_105_10 + 0xBA
	.byte	PATT
	 .word	seq_105_10 + 0xEB
	.byte	PATT
	 .word	seq_105_10 + 0xBA
	.byte	PATT
	 .word	seq_105_10 + 0x94
	.byte	PATT
	 .word	seq_105_10 + 0xBA
	.byte	PATT
	 .word	seq_105_10 + 0xEB
	.byte	PATT
	 .word	seq_105_10 + 0xBA
	.byte		N04   , Fn3 , v120
	.byte	W06
	.byte		N06   , Fn3 , v060
	.byte	W06
	.byte		N04   , Fn3 , v120
	.byte	W06
	.byte		N06   , Fn3 , v060
	.byte	W06
	.byte		N04   , Gn3 , v100
	.byte	W06
	.byte		N06   , Gn3 , v060
	.byte	W06
	.byte		N04   , Gn3 , v100
	.byte	W06
	.byte		N06   , Gn3 , v060
	.byte	W06
	.byte		N04   , As3 , v100
	.byte	W06
	.byte		N06   , As3 , v060
	.byte	W06
	.byte		N04   , As3 , v100
	.byte	W06
	.byte		N06   , As3 , v060
	.byte	W06
	.byte	PEND
	.byte		N04   , As3 , v120
	.byte	W06
	.byte		N06   , As3 , v060
	.byte	W06
	.byte		N04   , As3 , v120
	.byte	W06
	.byte		N06   , As3 , v060
	.byte	W06
	.byte		N04   , As3 , v100
	.byte	W06
	.byte		N06   , As3 , v060
	.byte	W06
	.byte		N04   , As3 , v100
	.byte	W06
	.byte		N06   , As3 , v060
	.byte	W06
	.byte		N04   , Gn3 , v100
	.byte	W06
	.byte		N06   , Gn3 , v060
	.byte	W06
	.byte		N04   , Gn3 , v100
	.byte	W06
	.byte		N06   , Gn3 , v060
	.byte	W06
	.byte		N04   , En3 , v120
	.byte	W06
	.byte		N06   , En3 , v060
	.byte	W06
	.byte		N04   , En3 , v120
	.byte	W06
	.byte		N06   , En3 , v060
	.byte	W06
	.byte		N04   , Cn3 , v120
	.byte	W06
	.byte		N06   , Cn3 , v060
	.byte	W06
	.byte		N04   , En3 , v120
	.byte	W06
	.byte		N06   , En3 , v060
	.byte	W06
	.byte		N04   , Gn3 , v120
	.byte	W06
	.byte		N06   , Gn3 , v060
	.byte	W06
	.byte		N04   , En3 , v120
	.byte	W06
	.byte		N06   , En3 , v060
	.byte	W06
	.byte		N04   , Dn4 , v120
	.byte	W06
	.byte		N06   , Dn4 , v060
	.byte	W06
	.byte		N04   , Dn4 , v120
	.byte	W06
	.byte		N06   , Dn4 , v060
	.byte	W06
	.byte		N04   , En4 , v100
	.byte	W06
	.byte		N06   , En4 , v060
	.byte	W06
	.byte		N04   , En4 , v100
	.byte	W06
	.byte		N06   , En4 , v060
	.byte	W06
	.byte		N04   , Fs4 , v100
	.byte	W06
	.byte		N06   , Fs4 , v060
	.byte	W06
	.byte		N04   , Fs4 , v100
	.byte	W06
	.byte		N06   , Fs4 , v060
	.byte	W06
	.byte	PEND
	.byte	PATT
	 .word	seq_105_10 + 0x1A8
	.byte		N04   , As3 , v120
	.byte	W06
	.byte		N06   , As3 , v060
	.byte	W06
	.byte		N04   , As3 , v120
	.byte	W06
	.byte		N06   , As3 , v060
	.byte	W06
	.byte		N04   , As3 , v100
	.byte	W06
	.byte		N06   , As3 , v060
	.byte	W06
	.byte		N04   , As3 , v100
	.byte	W06
	.byte		N06   , As3 , v060
	.byte	W06
	.byte		N04   , Cn4 , v100
	.byte	W06
	.byte		N06   , Cn4 , v060
	.byte	W06
	.byte		N04   , Cn4 , v100
	.byte	W06
	.byte		N06   , Cn4 , v060
	.byte	W06
	.byte		N04   , Cn4 , v120
	.byte	W06
	.byte		N06   , Cn4 , v060
	.byte	W06
	.byte		N04   , Cn4 , v120
	.byte	W06
	.byte		N06   , Cn4 , v060
	.byte	W06
	.byte		N04   , En3 , v120
	.byte	W06
	.byte		N06   , En3 , v060
	.byte	W06
	.byte		N04   , Gn3 , v120
	.byte	W06
	.byte		N06   , Gn3 , v060
	.byte	W06
	.byte		N04   , Cn4 , v120
	.byte	W06
	.byte		N06   , Cn4 , v060
	.byte	W06
	.byte		N04   , En3 , v120
	.byte	W06
	.byte		N06   , En3 , v060
	.byte	W06
	.byte	PATT
	 .word	seq_105_10 + 0x239
	.byte	PATT
	 .word	seq_105_10 + 0x1A8
	.byte		N04   , As3 , v120
	.byte	W06
	.byte		N06   , As3 , v060
	.byte	W06
	.byte		N04   , As3 , v120
	.byte	W06
	.byte		N06   , As3 , v060
	.byte	W06
	.byte		N04   , As3 , v100
	.byte	W06
	.byte		N06   , As3 , v060
	.byte	W06
	.byte		N04   , As3 , v100
	.byte	W06
	.byte		N06   , As3 , v060
	.byte	W06
	.byte		N04   , Gn3 , v100
	.byte	W06
	.byte		N06   , Gn3 , v060
	.byte	W06
	.byte		N04   , Gn3 , v100
	.byte	W06
	.byte		N06   , Gn3 , v060
	.byte	W05
	.byte		VOL   , 35*seq_105_mvl/mxv
	.byte	W01
	.byte		N04   , Cn4 , v120
	.byte	W06
	.byte		N06   , Cn4 , v060
	.byte	W06
	.byte		N03   , An3 , v120
	.byte	W06
	.byte		N06   , An3 , v060
	.byte	W06
	.byte		N04   , Fn3 , v100
	.byte	W06
	.byte		N06   , Fn3 , v060
	.byte	W06
	.byte		N04   , Dn3 , v100
	.byte	W06
	.byte		N06   , Dn3 , v060
	.byte	W06
	.byte		N03   , Cn3 , v100
	.byte	W06
	.byte		N06   , Cn3 , v060
	.byte	W06
	.byte		N03   , An2 , v100
	.byte	W06
	.byte		N06   , An2 , v060
	.byte	W06
	.byte		N04   , Cn5 , v120
	.byte	W06
	.byte		N06   , Cn5 , v060
	.byte	W06
	.byte		N04   , Gs4 , v120
	.byte	W06
	.byte		N06   , Gs4 , v060
	.byte	W06
	.byte		N04   , Fn4 , v100
	.byte	W06
	.byte		N06   , Fn4 , v060
	.byte	W06
	.byte		N04   , Dn4 , v100
	.byte	W06
	.byte		N06   , Dn4 , v060
	.byte	W06
	.byte		N04   , Cn4 , v100
	.byte	W06
	.byte		N06   , Cn4 , v060
	.byte	W06
	.byte		N04   , Gs3 , v100
	.byte	W06
	.byte		N06   , Gs3 , v060
	.byte	W06
	.byte		N04   , Fn3 , v120
	.byte	W06
	.byte		N06   , Fn3 , v060
	.byte	W06
	.byte		N04   , Fn3 , v120
	.byte	W06
	.byte		N06   , Fn3 , v060
	.byte	W06
	.byte		N04   , Gn3 , v100
	.byte	W06
	.byte		N06   , Gn3 , v060
	.byte	W06
	.byte		N04   , Gn3 , v100
	.byte	W06
	.byte		N06   , Gn3 , v060
	.byte	W06
	.byte		N04   , As3 , v100
	.byte	W06
	.byte		N06   , As3 , v060
	.byte	W06
	.byte		N04   , As3 , v080
	.byte	W06
	.byte		N06   , As3 , v060
	.byte	W06
	.byte		N04   , Gn3 , v120
	.byte	W06
	.byte		N06   , Gn3 , v060
	.byte	W06
	.byte		N04   , Gn3 , v120
	.byte	W06
	.byte		N06   , Gn3 , v060
	.byte	W06
	.byte		N04   , En3 , v100
	.byte	W06
	.byte		N06   , En3 , v060
	.byte	W06
	.byte		N04   , Fn3 , v100
	.byte	W06
	.byte		N06   , Fn3 , v060
	.byte	W06
	.byte		N04   , Gn3 , v080
	.byte	W06
	.byte		N06   , Gn3 , v060
	.byte	W06
	.byte		N04   , An3 , v080
	.byte	W06
	.byte		N06   , An3 , v060
	.byte	W06
	.byte		N04   , Dn4 , v120
	.byte	W06
	.byte		N06   , Dn4 , v060
	.byte	W06
	.byte		N04   , Dn4 , v120
	.byte	W06
	.byte		N06   , Dn4 , v060
	.byte	W06
	.byte		N04   , Dn4 , v100
	.byte	W06
	.byte		N06   , Dn4 , v060
	.byte	W06
	.byte		N04   , Dn4 , v100
	.byte	W06
	.byte		N06   , Dn4 , v060
	.byte	W06
	.byte		N04   , Cn4 , v100
	.byte	W06
	.byte		N06   , Cn4 , v060
	.byte	W06
	.byte		N04   , Cn4 , v100
	.byte	W06
	.byte		N06   , Cn4 , v060
	.byte	W06
	.byte		N04   , As3 , v120
	.byte	W06
	.byte		N06   , As3 , v060
	.byte	W06
	.byte		N03   , Cn4 , v100
	.byte	W06
	.byte		N06   , Cn4 , v060
	.byte	W06
	.byte		N04   , Dn4 , v100
	.byte	W06
	.byte		N06   , Dn4 , v060
	.byte	W06
	.byte		N04   , En4 , v100
	.byte	W06
	.byte		N06   , En4 , v060
	.byte	W06
	.byte		N04   , Fn4 , v100
	.byte	W06
	.byte		N06   , Fn4 , v060
	.byte	W06
	.byte		N04   , Gn4 , v100
	.byte	W06
	.byte		N06   , Gn4 , v060
	.byte	W06
	.byte		N04   , Fs4 , v120
	.byte	W06
	.byte		N06   , Fs4 , v060
	.byte	W06
	.byte		N04   , Dn4 , v120
	.byte	W06
	.byte		N06   , Dn4 , v060
	.byte	W06
	.byte		N04   , An4 , v100
	.byte	W06
	.byte		N06   , An4 , v060
	.byte	W06
	.byte		N04   , Gn4 , v100
	.byte	W06
	.byte		N06   , Gn4 , v060
	.byte	W06
	.byte		N04   , Fs4 , v100
	.byte	W06
	.byte		N06   , Fs4 , v060
	.byte	W06
	.byte		N04   , Dn4 , v100
	.byte	W06
	.byte		N06   , Dn4 , v060
	.byte	W06
	.byte	PEND
	.byte	PATT
	 .word	seq_105_10 + 0x42C
	.byte		N04   , Fs4 , v120
	.byte	W06
	.byte		N06   , Fs4 , v060
	.byte	W06
	.byte		N04   , An2 , v120
	.byte	W06
	.byte		N06   , An2 , v060
	.byte	W06
	.byte		N04   , Dn3 , v120
	.byte	W06
	.byte		N06   , Dn3 , v060
	.byte	W06
	.byte		N04   , Fs3 , v120
	.byte	W06
	.byte		N06   , Fs3 , v060
	.byte	W06
	.byte		N04   , An3 , v120
	.byte	W06
	.byte		N06   , An3 , v060
	.byte	W06
	.byte		N04   , Dn4 , v120
	.byte	W06
	.byte		N06   , Dn4 , v060
	.byte	W06
	.byte		N04   , Fs4 , v120
	.byte	W06
	.byte		N06   , Fs4 , v060
	.byte	W06
	.byte		        Fs4 , v040
	.byte	W06
	.byte		        Fs4 , v020
	.byte	W54
	.byte	GOTO
	 .word	seq_105_10 + 0x15
	.byte	FINE

@*********************** Track 12 ***********************@

seq_105_11:
	.byte	KEYSH , seq_105_key+0
	.byte	W18
	.byte		VOICE , 111
	.byte	W01
	.byte		VOL   , 35*seq_105_mvl/mxv
	.byte	W01
	.byte		PAN   , c_v+0
	.byte	W01
	.byte		LFOS  , 120
	.byte	W01
	.byte		MODT  , mod_pan
	.byte	W01
	.byte		BENDR , 0
	.byte	W01
	.byte		N03   , En2 , v120
	.byte	W24
	.byte		N12   , Fn4 , v080
	.byte	W12
	.byte		        Fn4 , v040
	.byte	W12
	.byte		        Fn4 , v020
	.byte	W24
	.byte	PEND
	.byte	PATT
	 .word	seq_105_11 + 0x15
	.byte		N03   , En2 , v120
	.byte	W12
	.byte		N12   , Dn4 , v080
	.byte	W12
	.byte		        An3 
	.byte	W12
	.byte		        En3 , v060
	.byte	W12
	.byte		        Bn2 
	.byte	W12
	.byte		        Fs2 
	.byte	W12
	.byte		N03   , En2 , v120
	.byte	W72
	.byte	PATT
	 .word	seq_105_11 + 0x15
	.byte		N03   , En2 , v120
	.byte	W12
	.byte		        An4 , v040
	.byte	W12
	.byte		N12   , Fn4 , v080
	.byte	W12
	.byte		        Fn4 , v040
	.byte	W12
	.byte		N03   , An4 
	.byte	W24
	.byte	PEND
	.byte	PATT
	 .word	seq_105_11 + 0x15
	.byte		N03   , En2 , v120
	.byte	W12
	.byte		        An4 , v040
	.byte	W12
	.byte		N12   , Fn4 , v100
	.byte	W12
	.byte		        Fn4 , v040
	.byte	W12
	.byte		N03   , An4 
	.byte	W24
	.byte	PEND
	.byte	PATT
	 .word	seq_105_11 + 0x15
	.byte	PATT
	 .word	seq_105_11 + 0x43
	.byte	PATT
	 .word	seq_105_11 + 0x15
	.byte		N03   , En2 , v120
	.byte	W12
	.byte		        An4 , v040
	.byte	W12
	.byte		N12   , Fn4 , v100
	.byte	W12
	.byte		        Fn4 , v040
	.byte	W12
	.byte		N03   , En2 , v120
	.byte	W03
	.byte		        Gn2 , v080
	.byte	W03
	.byte		        En2 , v100
	.byte	W03
	.byte		        Gn2 , v080
	.byte	W03
	.byte		        En2 , v100
	.byte	W03
	.byte		        Gn2 , v080
	.byte	W03
	.byte		        En2 , v100
	.byte	W03
	.byte		        Gn2 , v080
	.byte	W03
	.byte	PEND
	.byte	PATT
	 .word	seq_105_11 + 0x15
	.byte	PATT
	 .word	seq_105_11 + 0x43
	.byte	PATT
	 .word	seq_105_11 + 0x15
	.byte	PATT
	 .word	seq_105_11 + 0x5A
	.byte	PATT
	 .word	seq_105_11 + 0x15
	.byte	PATT
	 .word	seq_105_11 + 0x43
	.byte	PATT
	 .word	seq_105_11 + 0x15
	.byte	PATT
	 .word	seq_105_11 + 0x5A
	.byte	PATT
	 .word	seq_105_11 + 0x15
	.byte	PATT
	 .word	seq_105_11 + 0x43
	.byte	PATT
	 .word	seq_105_11 + 0x15
	.byte	PATT
	 .word	seq_105_11 + 0x5A
	.byte	PATT
	 .word	seq_105_11 + 0x15
	.byte	PATT
	 .word	seq_105_11 + 0x43
	.byte	PATT
	 .word	seq_105_11 + 0x15
	.byte	PATT
	 .word	seq_105_11 + 0x7B
	.byte	PATT
	 .word	seq_105_11 + 0x15
	.byte	PATT
	 .word	seq_105_11 + 0x43
	.byte	PATT
	 .word	seq_105_11 + 0x15
	.byte	PATT
	 .word	seq_105_11 + 0x5A
	.byte	PATT
	 .word	seq_105_11 + 0x15
	.byte	PATT
	 .word	seq_105_11 + 0x43
	.byte	PATT
	 .word	seq_105_11 + 0x15
	.byte	PATT
	 .word	seq_105_11 + 0x5A
	.byte	PATT
	 .word	seq_105_11 + 0x15
	.byte	PATT
	 .word	seq_105_11 + 0x43
	.byte	PATT
	 .word	seq_105_11 + 0x15
	.byte	PATT
	 .word	seq_105_11 + 0x5A
	.byte	PATT
	 .word	seq_105_11 + 0x15
	.byte	PATT
	 .word	seq_105_11 + 0x43
	.byte	PATT
	 .word	seq_105_11 + 0x15
	.byte	PATT
	 .word	seq_105_11 + 0x5A
	.byte	PATT
	 .word	seq_105_11 + 0x15
	.byte	PATT
	 .word	seq_105_11 + 0x43
	.byte	PATT
	 .word	seq_105_11 + 0x15
	.byte	PATT
	 .word	seq_105_11 + 0x7B
	.byte	GOTO
	 .word	seq_105_11 + 0x15
	.byte	FINE

@******************************************************@

	.align	2

seq_105:
	.byte	12	@ NumTrks
	.byte	0	@ NumBlks
	.byte	seq_105_pri	@ Priority
	.byte	seq_105_rev	@ Reverb

	.word	seq_105_grp

	.word	seq_105_0
	.word	seq_105_1
	.word	seq_105_2
	.word	seq_105_3
	.word	seq_105_4
	.word	seq_105_5
	.word	seq_105_6
	.word	seq_105_7
	.word	seq_105_8
	.word	seq_105_9
	.word	seq_105_10
	.word	seq_105_11

	.end
