@ File generated by m4a2s Song-Module
	.include "MPlayDef.s"

	.equ	seq_013_grp, bank_000
	.equ	seq_013_pri, 50
	.equ	seq_013_rev, 198
	.equ	seq_013_mvl, 127
	.equ	seq_013_key, 0

	.section .rodata
	.global	seq_013
	.align	2

@*********************** Track 01 ***********************@

seq_013_0:
	.byte	KEYSH , seq_013_key+0
	.byte	TEMPO , 134/2
	.byte		VOICE , 16
	.byte	W01
	.byte		VOL   , 75*seq_013_mvl/mxv
	.byte	W01
	.byte		PAN   , c_v+0
	.byte	W22
	.byte		N04   , Gn3 , v112
	.byte	W36
	.byte		N24
	.byte	W24
	.byte		N04   , An2 
	.byte	W12
	.byte		        Cn3 
	.byte	W12
	.byte		N24   , Gn3 
	.byte	W12
	.byte	PEND
	.byte	W12
	.byte		N04   , An2 , v112
	.byte	W12
	.byte		        Cn3 
	.byte	W12
	.byte		N12   , Gn3 
	.byte	W12
	.byte		        Fn3 
	.byte	W12
	.byte		N04   , Dn3 
	.byte	W12
	.byte		        En3 
	.byte	W12
	.byte		        Fn3 
	.byte	W12
	.byte	PEND
	.byte	PATT
	 .word	seq_013_0 + 0xD
	.byte	W12
	.byte		N04   , An2 , v112
	.byte	W12
	.byte		        Cn3 
	.byte	W12
	.byte		N12   , Gn3 
	.byte	W12
	.byte		        Fn3 
	.byte	W12
	.byte		N04   , Cn3 
	.byte	W12
	.byte		        Dn3 
	.byte	W12
	.byte		        En3 
	.byte	W12
	.byte	PEND
	.byte		N04   , Fn3 , v112
	.byte	W36
	.byte		N24
	.byte	W24
	.byte		N04   , Gn2 
	.byte	W12
	.byte		        As2 
	.byte	W12
	.byte		N24   , Fn3 
	.byte	W12
	.byte	PEND
	.byte	W12
	.byte		N04   , Gn2 , v112
	.byte	W12
	.byte		        As2 
	.byte	W12
	.byte		N12   , Fn3 
	.byte	W12
	.byte		        Ds3 
	.byte	W12
	.byte		N04   , Cn3 
	.byte	W12
	.byte		        Dn3 
	.byte	W12
	.byte		        Ds3 
	.byte	W12
	.byte	PEND
	.byte	PATT
	 .word	seq_013_0 + 0x49
	.byte	W12
	.byte		N04   , Gn2 , v112
	.byte	W12
	.byte		        As2 
	.byte	W12
	.byte		N12   , Fn3 
	.byte	W12
	.byte		        Ds3 
	.byte	W12
	.byte		N04   , Dn3 
	.byte	W12
	.byte		        Ds3 
	.byte	W12
	.byte		        Fn3 
	.byte	W12
	.byte	PATT
	 .word	seq_013_0 + 0xD
	.byte	PATT
	 .word	seq_013_0 + 0x1C
	.byte	PATT
	 .word	seq_013_0 + 0xD
	.byte	PATT
	 .word	seq_013_0 + 0x35
	.byte	PATT
	 .word	seq_013_0 + 0x49
	.byte	PATT
	 .word	seq_013_0 + 0x58
	.byte		N04   , Fn3 , v112
	.byte	W36
	.byte		N24
	.byte	W24
	.byte		N04   , Dn3 
	.byte	W12
	.byte		        Ds3 
	.byte	W12
	.byte		N12   , Fn3 
	.byte	W12
	.byte	W12
	.byte		N04   , As3 
	.byte	W12
	.byte		N06   , An3 
	.byte	W12
	.byte		N36   , Fn3 
	.byte	W60
	.byte	W96
	.byte	W96
	.byte	W96
	.byte	W96
	.byte	W96
	.byte	W96
	.byte	W96
	.byte	W96
	.byte	W96
	.byte	W96
	.byte	W96
	.byte	W96
	.byte	W96
	.byte	W96
	.byte	W96
	.byte	W96
	.byte	PATT
	 .word	seq_013_0 + 0xD
	.byte	PATT
	 .word	seq_013_0 + 0x1C
	.byte	PATT
	 .word	seq_013_0 + 0xD
	.byte	PATT
	 .word	seq_013_0 + 0x35
	.byte	GOTO
	 .word	seq_013_0 + 0x49
	.byte	FINE

@*********************** Track 02 ***********************@

seq_013_1:
	.byte	KEYSH , seq_013_key+0
	.byte		VOICE , 127
	.byte	W01
	.byte		VOL   , 75*seq_013_mvl/mxv
	.byte	W01
	.byte		PAN   , c_v+0
	.byte	W22
	.byte	W96
	.byte	W96
	.byte	W96
	.byte	W96
	.byte	W96
	.byte	W96
	.byte	W72
	.byte		N06   , Cn1 , v112
	.byte	W12
	.byte		        Dn1 
	.byte	W12
	.byte	W12
	.byte		N06
	.byte	W12
	.byte		        Cn1 
	.byte	W12
	.byte		        Dn1 
	.byte	W24
	.byte		        Cn1 
	.byte	W12
	.byte		        Dn1 
	.byte	W06
	.byte		        Dn1 , v056
	.byte	W06
	.byte		        Dn1 , v112
	.byte	W06
	.byte		        Dn1 , v092
	.byte	W06
	.byte		N06   , Cn1 , v112
	.byte	W24
	.byte		        Dn1 
	.byte	W24
	.byte		        Cn1 
	.byte	W24
	.byte		        Dn1 
	.byte	W12
	.byte		        Cn1 
	.byte	W12
	.byte	PEND
	.byte	W12
	.byte		N06   , Cn1 , v112
	.byte	W12
	.byte		        Dn1 
	.byte	W12
	.byte		        Cn1 
	.byte	W24
	.byte		N06
	.byte	W12
	.byte		        Dn1 
	.byte	W24
	.byte	PEND
	.byte	PATT
	 .word	seq_013_1 + 0x2C
	.byte	PATT
	 .word	seq_013_1 + 0x39
	.byte	PATT
	 .word	seq_013_1 + 0x2C
	.byte	PATT
	 .word	seq_013_1 + 0x39
	.byte	PATT
	 .word	seq_013_1 + 0x2C
	.byte	W12
	.byte		N06   , Cn1 , v112
	.byte	W12
	.byte		        Dn1 
	.byte	W12
	.byte		        Cn1 
	.byte	W24
	.byte		N06
	.byte	W12
	.byte		        Dn1 
	.byte	W12
	.byte		N06
	.byte	W06
	.byte		        Dn1 , v072
	.byte	W06
	.byte	PEND
	.byte		N06   , Cn1 , v112
	.byte	W24
	.byte		        En1 
	.byte	W24
	.byte		        Cn1 
	.byte	W24
	.byte		        En1 
	.byte	W12
	.byte		        Cn1 
	.byte	W12
	.byte	PEND
	.byte	W12
	.byte		N06   , Cn1 , v112
	.byte	W12
	.byte		        En1 
	.byte	W12
	.byte		        Cn1 
	.byte	W24
	.byte		N06
	.byte	W12
	.byte		        En1 
	.byte	W24
	.byte	PEND
	.byte	PATT
	 .word	seq_013_1 + 0x73
	.byte	PATT
	 .word	seq_013_1 + 0x80
	.byte	PATT
	 .word	seq_013_1 + 0x73
	.byte	PATT
	 .word	seq_013_1 + 0x80
	.byte	PATT
	 .word	seq_013_1 + 0x73
	.byte	W12
	.byte		N06   , Cn1 , v112
	.byte	W12
	.byte		        En1 
	.byte	W12
	.byte		        Cn1 
	.byte	W24
	.byte		N06
	.byte	W12
	.byte		        En1 
	.byte	W12
	.byte		N06
	.byte	W12
	.byte	PATT
	 .word	seq_013_1 + 0x73
	.byte	PATT
	 .word	seq_013_1 + 0x80
	.byte	PATT
	 .word	seq_013_1 + 0x73
	.byte	PATT
	 .word	seq_013_1 + 0x80
	.byte	PATT
	 .word	seq_013_1 + 0x73
	.byte	PATT
	 .word	seq_013_1 + 0x80
	.byte	PATT
	 .word	seq_013_1 + 0x73
	.byte	PATT
	 .word	seq_013_1 + 0x60
	.byte	W96
	.byte	W96
	.byte	W96
	.byte	W96
	.byte	GOTO
	 .word	seq_013_1 + 0xF
	.byte	FINE

@*********************** Track 03 ***********************@

seq_013_2:
	.byte	KEYSH , seq_013_key+0
	.byte		VOICE , 127
	.byte	W01
	.byte		VOL   , 67*seq_013_mvl/mxv
	.byte	W01
	.byte		PAN   , c_v+0
	.byte	W22
	.byte	W12
	.byte		N04   , Cs3 , v120
	.byte	W04
	.byte		N08   , Ds3 
	.byte	W08
	.byte		N12   , Dn3 
	.byte	W12
	.byte		        En3 
	.byte	W12
	.byte		        Cs3 
	.byte	W12
	.byte		        En3 
	.byte	W12
	.byte		        Dn3 
	.byte	W12
	.byte		        Cs3 
	.byte	W12
	.byte	PEND
	.byte		N12   , Ds3 , v120
	.byte	W12
	.byte		        Cs3 
	.byte	W12
	.byte		        En3 
	.byte	W12
	.byte		        Ds3 
	.byte	W12
	.byte		        Dn3 
	.byte	W12
	.byte		        En3 
	.byte	W12
	.byte		        Cs3 
	.byte	W12
	.byte		        Ds3 
	.byte	W12
	.byte	PEND
	.byte	PATT
	 .word	seq_013_2 + 0xB
	.byte	PATT
	 .word	seq_013_2 + 0x21
	.byte	PATT
	 .word	seq_013_2 + 0xB
	.byte	PATT
	 .word	seq_013_2 + 0x21
	.byte	PATT
	 .word	seq_013_2 + 0xB
	.byte	PATT
	 .word	seq_013_2 + 0x21
	.byte	PATT
	 .word	seq_013_2 + 0xB
	.byte	PATT
	 .word	seq_013_2 + 0x21
	.byte	PATT
	 .word	seq_013_2 + 0xB
	.byte	PATT
	 .word	seq_013_2 + 0x21
	.byte	PATT
	 .word	seq_013_2 + 0xB
	.byte	PATT
	 .word	seq_013_2 + 0x21
	.byte	PATT
	 .word	seq_013_2 + 0xB
	.byte		N12   , Ds3 , v120
	.byte	W12
	.byte		        Cs3 
	.byte	W12
	.byte		        En3 
	.byte	W12
	.byte		        Ds3 
	.byte	W12
	.byte		        Dn3 
	.byte	W12
	.byte		        En3 
	.byte	W36
	.byte	W12
	.byte		N04   , Cs3 , v120
	.byte	W04
	.byte		N08   , Ds3 
	.byte	W08
	.byte		N12   , Dn3 
	.byte	W12
	.byte		        En3 
	.byte	W12
	.byte		        Cs3 
	.byte	W12
	.byte		        En3 
	.byte	W24
	.byte		        Cs3 
	.byte	W12
	.byte	PEND
	.byte		N12   , Ds3 , v120
	.byte	W12
	.byte		        Cs3 
	.byte	W36
	.byte		        Dn3 
	.byte	W24
	.byte		        Cs3 
	.byte	W12
	.byte		        Ds3 
	.byte	W12
	.byte	PEND
	.byte	PATT
	 .word	seq_013_2 + 0x83
	.byte	PATT
	 .word	seq_013_2 + 0x97
	.byte	PATT
	 .word	seq_013_2 + 0x83
	.byte	PATT
	 .word	seq_013_2 + 0x97
	.byte	PATT
	 .word	seq_013_2 + 0x83
	.byte		N12   , Ds3 , v120
	.byte	W12
	.byte		        Cs3 
	.byte	W36
	.byte		        Dn3 
	.byte	W24
	.byte		        Cs3 
	.byte	W24
	.byte	PATT
	 .word	seq_013_2 + 0x83
	.byte	PATT
	 .word	seq_013_2 + 0x97
	.byte	PATT
	 .word	seq_013_2 + 0x83
	.byte	PATT
	 .word	seq_013_2 + 0x97
	.byte	PATT
	 .word	seq_013_2 + 0x83
	.byte	PATT
	 .word	seq_013_2 + 0x97
	.byte	PATT
	 .word	seq_013_2 + 0x83
	.byte	PATT
	 .word	seq_013_2 + 0x97
	.byte	PATT
	 .word	seq_013_2 + 0xB
	.byte	PATT
	 .word	seq_013_2 + 0x21
	.byte	PATT
	 .word	seq_013_2 + 0xB
	.byte	PATT
	 .word	seq_013_2 + 0x21
	.byte	GOTO
	 .word	seq_013_2 + 0x3E
	.byte	FINE

@*********************** Track 04 ***********************@

seq_013_3:
	.byte	KEYSH , seq_013_key+0
	.byte	W06
	.byte		VOICE , 127
	.byte	W01
	.byte		VOL   , 75*seq_013_mvl/mxv
	.byte	W01
	.byte		PAN   , c_v+0
	.byte	W16
	.byte	W96
	.byte	W96
	.byte	W96
	.byte	W96
	.byte	W12
	.byte		N04   , An4 , v080
	.byte	W24
	.byte		        Gs4 
	.byte	W24
	.byte		N04
	.byte	W24
	.byte		N04
	.byte	W12
	.byte	PEND
	.byte	W12
	.byte		N04   , Gs4 , v080
	.byte	W24
	.byte		N04
	.byte	W24
	.byte		N04
	.byte	W24
	.byte		N04
	.byte	W12
	.byte	PEND
	.byte	W12
	.byte		        An4 
	.byte	W24
	.byte		        Gs4 
	.byte	W24
	.byte		N04
	.byte	W12
	.byte		N04
	.byte	W12
	.byte		        An4 
	.byte	W12
	.byte	W12
	.byte		N04
	.byte	W12
	.byte		        Gs4 
	.byte	W12
	.byte		        An4 
	.byte	W24
	.byte		        Gs4 
	.byte	W12
	.byte		        An4 
	.byte	W24
	.byte	PATT
	 .word	seq_013_3 + 0x10
	.byte	PATT
	 .word	seq_013_3 + 0x1C
	.byte	PATT
	 .word	seq_013_3 + 0x10
	.byte	PATT
	 .word	seq_013_3 + 0x1C
	.byte	PATT
	 .word	seq_013_3 + 0x10
	.byte	PATT
	 .word	seq_013_3 + 0x1C
	.byte	PATT
	 .word	seq_013_3 + 0x10
	.byte	W12
	.byte		N04   , Gs4 , v080
	.byte	W24
	.byte		N04
	.byte	W24
	.byte		        An4 
	.byte	W36
	.byte		N04   , Gs4 , v080
	.byte	W12
	.byte		        An4 
	.byte	W24
	.byte		        Gs4 
	.byte	W24
	.byte		        An4 
	.byte	W12
	.byte		        Gs4 
	.byte	W24
	.byte	PEND
	.byte		N04   , An4 , v080
	.byte	W36
	.byte		N04
	.byte	W24
	.byte		N04
	.byte	W24
	.byte		        Gs4 
	.byte	W12
	.byte	PEND
	.byte	PATT
	 .word	seq_013_3 + 0x6A
	.byte	PATT
	 .word	seq_013_3 + 0x77
	.byte	PATT
	 .word	seq_013_3 + 0x6A
	.byte	PATT
	 .word	seq_013_3 + 0x77
	.byte	PATT
	 .word	seq_013_3 + 0x6A
	.byte	PATT
	 .word	seq_013_3 + 0x77
	.byte	PATT
	 .word	seq_013_3 + 0x6A
	.byte	PATT
	 .word	seq_013_3 + 0x77
	.byte	PATT
	 .word	seq_013_3 + 0x6A
	.byte	PATT
	 .word	seq_013_3 + 0x77
	.byte	PATT
	 .word	seq_013_3 + 0x6A
	.byte	PATT
	 .word	seq_013_3 + 0x77
	.byte	PATT
	 .word	seq_013_3 + 0x6A
	.byte	PATT
	 .word	seq_013_3 + 0x77
	.byte	W96
	.byte	W96
	.byte	W96
	.byte	W96
	.byte	GOTO
	 .word	seq_013_3 + 0x10
	.byte	FINE

@*********************** Track 05 ***********************@

seq_013_4:
	.byte	KEYSH , seq_013_key+0
	.byte	W06
	.byte		VOICE , 95
	.byte	W01
	.byte		VOL   , 59*seq_013_mvl/mxv
	.byte	W01
	.byte		PAN   , c_v+0
	.byte	W16
	.byte	W96
	.byte	W96
	.byte	W96
	.byte	W96
	.byte	W96
	.byte	W96
	.byte	W96
	.byte	W96
	.byte	W96
	.byte	W96
	.byte	W96
	.byte	W96
	.byte	W96
	.byte	W96
	.byte	W96
	.byte	W66
	.byte		BEND  , c_v+0
	.byte	W01
	.byte		VOL   , 70*seq_013_mvl/mxv
	.byte	W05
	.byte		TIE   , Fn2 , v112
	.byte	W21
	.byte		BEND  , c_v+11
	.byte	W01
	.byte		        c_v+16
	.byte	W01
	.byte		        c_v+21
	.byte	W01
	.byte		        c_v+27
	.byte	W01
	.byte		        c_v+39
	.byte	W01
	.byte		        c_v+51
	.byte	W01
	.byte		        c_v+63
	.byte	W92
	.byte	W01
	.byte	W24
	.byte		EOT
	.byte	W23
	.byte		BEND  , c_v+0
	.byte	W01
	.byte		N04   , Gn2 
	.byte	W12
	.byte		N10   , As2 
	.byte	W24
	.byte		N84   , Cn3 
	.byte	W12
	.byte	W84
	.byte		        As2 
	.byte	W12
	.byte	W96
	.byte		N72   , An2 , v112
	.byte	W84
	.byte		N84   , Gn2 
	.byte	W12
	.byte	PEND
	.byte	W96
	.byte		N72   , As2 , v112
	.byte	W84
	.byte		N84   , An2 
	.byte	W12
	.byte	PEND
	.byte	W96
	.byte		TIE   , Gn2 
	.byte	W96
	.byte	W36
	.byte		EOT
	.byte	W12
	.byte		N04
	.byte	W12
	.byte		N10   , As2 
	.byte	W24
	.byte		N84   , Cn3 
	.byte	W12
	.byte	W84
	.byte		        As2 
	.byte	W12
	.byte	W96
	.byte	PATT
	 .word	seq_013_4 + 0x49
	.byte	W96
	.byte	PATT
	 .word	seq_013_4 + 0x52
	.byte	W96
	.byte		TIE   , Gn2 , v112
	.byte	W36
	.byte	W03
	.byte		VOL   , 59*seq_013_mvl/mxv
	.byte	W03
	.byte		        59*seq_013_mvl/mxv
	.byte	W03
	.byte		        59*seq_013_mvl/mxv
	.byte	W03
	.byte		        58*seq_013_mvl/mxv
	.byte	W03
	.byte		        58*seq_013_mvl/mxv
	.byte	W03
	.byte		        58*seq_013_mvl/mxv
	.byte	W03
	.byte		        57*seq_013_mvl/mxv
	.byte	W03
	.byte		        57*seq_013_mvl/mxv
	.byte	W03
	.byte		        57*seq_013_mvl/mxv
	.byte	W03
	.byte		        57*seq_013_mvl/mxv
	.byte	W02
	.byte		        57*seq_013_mvl/mxv
	.byte	W03
	.byte		        57*seq_013_mvl/mxv
	.byte	W03
	.byte		        56*seq_013_mvl/mxv
	.byte	W03
	.byte		        56*seq_013_mvl/mxv
	.byte	W03
	.byte		        56*seq_013_mvl/mxv
	.byte	W03
	.byte		        56*seq_013_mvl/mxv
	.byte	W03
	.byte		        56*seq_013_mvl/mxv
	.byte	W03
	.byte		        56*seq_013_mvl/mxv
	.byte	W03
	.byte		        55*seq_013_mvl/mxv
	.byte	W03
	.byte		        55*seq_013_mvl/mxv
	.byte	W01
	.byte	W01
	.byte		        55*seq_013_mvl/mxv
	.byte	W03
	.byte		        55*seq_013_mvl/mxv
	.byte	W03
	.byte		        54*seq_013_mvl/mxv
	.byte	W03
	.byte		        54*seq_013_mvl/mxv
	.byte	W03
	.byte		        54*seq_013_mvl/mxv
	.byte	W03
	.byte		        54*seq_013_mvl/mxv
	.byte	W03
	.byte		        54*seq_013_mvl/mxv
	.byte	W03
	.byte		        54*seq_013_mvl/mxv
	.byte	W03
	.byte		        53*seq_013_mvl/mxv
	.byte	W03
	.byte		        53*seq_013_mvl/mxv
	.byte	W02
	.byte		        53*seq_013_mvl/mxv
	.byte	W03
	.byte		        53*seq_013_mvl/mxv
	.byte	W03
	.byte		        53*seq_013_mvl/mxv
	.byte	W03
	.byte		        53*seq_013_mvl/mxv
	.byte	W03
	.byte		        53*seq_013_mvl/mxv
	.byte	W03
	.byte		        52*seq_013_mvl/mxv
	.byte	W03
	.byte		        52*seq_013_mvl/mxv
	.byte	W03
	.byte		        52*seq_013_mvl/mxv
	.byte	W03
	.byte		        51*seq_013_mvl/mxv
	.byte	W02
	.byte		        51*seq_013_mvl/mxv
	.byte	W03
	.byte		        51*seq_013_mvl/mxv
	.byte	W03
	.byte		        51*seq_013_mvl/mxv
	.byte	W03
	.byte		        51*seq_013_mvl/mxv
	.byte	W03
	.byte		        51*seq_013_mvl/mxv
	.byte	W03
	.byte		        50*seq_013_mvl/mxv
	.byte	W03
	.byte		        50*seq_013_mvl/mxv
	.byte	W03
	.byte		        50*seq_013_mvl/mxv
	.byte	W03
	.byte		        50*seq_013_mvl/mxv
	.byte	W03
	.byte		        50*seq_013_mvl/mxv
	.byte	W02
	.byte		        49*seq_013_mvl/mxv
	.byte	W03
	.byte		        49*seq_013_mvl/mxv
	.byte	W03
	.byte		        48*seq_013_mvl/mxv
	.byte	W03
	.byte		        47*seq_013_mvl/mxv
	.byte	W02
	.byte	W01
	.byte		        47*seq_013_mvl/mxv
	.byte	W03
	.byte		        46*seq_013_mvl/mxv
	.byte	W03
	.byte		        46*seq_013_mvl/mxv
	.byte	W03
	.byte		        45*seq_013_mvl/mxv
	.byte	W03
	.byte		        44*seq_013_mvl/mxv
	.byte	W03
	.byte		        44*seq_013_mvl/mxv
	.byte	W02
	.byte		        43*seq_013_mvl/mxv
	.byte	W03
	.byte		        43*seq_013_mvl/mxv
	.byte	W03
	.byte		        42*seq_013_mvl/mxv
	.byte	W03
	.byte		        41*seq_013_mvl/mxv
	.byte	W03
	.byte		        41*seq_013_mvl/mxv
	.byte	W03
	.byte		        40*seq_013_mvl/mxv
	.byte	W03
	.byte		        40*seq_013_mvl/mxv
	.byte	W03
	.byte		        39*seq_013_mvl/mxv
	.byte	W03
	.byte		        38*seq_013_mvl/mxv
	.byte	W03
	.byte		        38*seq_013_mvl/mxv
	.byte	W02
	.byte		        38*seq_013_mvl/mxv
	.byte	W03
	.byte		        37*seq_013_mvl/mxv
	.byte	W03
	.byte		        37*seq_013_mvl/mxv
	.byte	W03
	.byte		        36*seq_013_mvl/mxv
	.byte	W03
	.byte		        36*seq_013_mvl/mxv
	.byte	W03
	.byte		        35*seq_013_mvl/mxv
	.byte	W03
	.byte		        34*seq_013_mvl/mxv
	.byte	W03
	.byte		        34*seq_013_mvl/mxv
	.byte	W03
	.byte		        33*seq_013_mvl/mxv
	.byte	W02
	.byte		        33*seq_013_mvl/mxv
	.byte	W03
	.byte		        32*seq_013_mvl/mxv
	.byte	W03
	.byte		        31*seq_013_mvl/mxv
	.byte	W03
	.byte		        31*seq_013_mvl/mxv
	.byte	W03
	.byte		        30*seq_013_mvl/mxv
	.byte	W03
	.byte		        30*seq_013_mvl/mxv
	.byte	W03
	.byte		        29*seq_013_mvl/mxv
	.byte	W03
	.byte		        28*seq_013_mvl/mxv
	.byte	W02
	.byte	W01
	.byte		        28*seq_013_mvl/mxv
	.byte	W03
	.byte		        27*seq_013_mvl/mxv
	.byte	W02
	.byte		        26*seq_013_mvl/mxv
	.byte	W03
	.byte		        25*seq_013_mvl/mxv
	.byte	W03
	.byte		        24*seq_013_mvl/mxv
	.byte	W03
	.byte		        23*seq_013_mvl/mxv
	.byte	W03
	.byte		        22*seq_013_mvl/mxv
	.byte	W03
	.byte		        21*seq_013_mvl/mxv
	.byte	W03
	.byte		        20*seq_013_mvl/mxv
	.byte	W03
	.byte		        18*seq_013_mvl/mxv
	.byte	W03
	.byte		        17*seq_013_mvl/mxv
	.byte	W03
	.byte		        16*seq_013_mvl/mxv
	.byte	W02
	.byte		        15*seq_013_mvl/mxv
	.byte	W03
	.byte		        14*seq_013_mvl/mxv
	.byte	W03
	.byte		        13*seq_013_mvl/mxv
	.byte	W03
	.byte		        12*seq_013_mvl/mxv
	.byte	W03
	.byte		        11*seq_013_mvl/mxv
	.byte	W03
	.byte		        10*seq_013_mvl/mxv
	.byte	W03
	.byte		        8*seq_013_mvl/mxv
	.byte	W03
	.byte		        7*seq_013_mvl/mxv
	.byte	W03
	.byte		        5*seq_013_mvl/mxv
	.byte	W03
	.byte		        4*seq_013_mvl/mxv
	.byte	W02
	.byte		        2*seq_013_mvl/mxv
	.byte	W03
	.byte		        1*seq_013_mvl/mxv
	.byte	W28
	.byte	W01
	.byte		EOT
	.byte	GOTO
	 .word	seq_013_4 + 0x10
	.byte	FINE

@*********************** Track 06 ***********************@

seq_013_5:
	.byte	KEYSH , seq_013_key+0
	.byte	W06
	.byte		VOICE , 95
	.byte	W01
	.byte		VOL   , 23*seq_013_mvl/mxv
	.byte	W01
	.byte		PAN   , c_v+63
	.byte	W16
	.byte	W96
	.byte	W96
	.byte	W96
	.byte	W96
	.byte	W96
	.byte	W96
	.byte	W96
	.byte	W96
	.byte	W96
	.byte	W96
	.byte	W96
	.byte	W96
	.byte	W96
	.byte	W96
	.byte	W96
	.byte	W48
	.byte		VOL   , 29*seq_013_mvl/mxv
	.byte	W20
	.byte		BEND  , c_v+0
	.byte	W04
	.byte		TIE   , Cn2 , v112
	.byte	W21
	.byte		BEND  , c_v+11
	.byte	W01
	.byte		        c_v+16
	.byte	W01
	.byte		        c_v+21
	.byte	W01
	.byte		        c_v+27
	.byte	W01
	.byte		        c_v+39
	.byte	W01
	.byte		        c_v+51
	.byte	W01
	.byte		        c_v+63
	.byte	W92
	.byte	W01
	.byte	W24
	.byte		EOT
	.byte	W23
	.byte		BEND  , c_v+0
	.byte	W01
	.byte		N04   , Dn2 
	.byte	W12
	.byte		N10   , Fn2 
	.byte	W24
	.byte		N84   , Gn2 
	.byte	W12
	.byte	W84
	.byte		N84
	.byte	W12
	.byte	W96
	.byte		N72   , Ds2 , v112
	.byte	W84
	.byte		N84
	.byte	W12
	.byte	PEND
	.byte	W96
	.byte		N72   , Fn2 , v112
	.byte	W84
	.byte		N84
	.byte	W12
	.byte	PEND
	.byte	W96
	.byte		TIE   , Dn2 
	.byte	W96
	.byte	W36
	.byte		EOT
	.byte	W12
	.byte		N04
	.byte	W12
	.byte		N10   , Fn2 
	.byte	W24
	.byte		N84   , Gn2 
	.byte	W12
	.byte	W84
	.byte		N84
	.byte	W12
	.byte	W96
	.byte	PATT
	 .word	seq_013_5 + 0x49
	.byte	W96
	.byte	PATT
	 .word	seq_013_5 + 0x51
	.byte	W96
	.byte		TIE   , Dn2 , v112
	.byte	W36
	.byte	W03
	.byte		VOL   , 26*seq_013_mvl/mxv
	.byte	W24
	.byte		        25*seq_013_mvl/mxv
	.byte	W14
	.byte		        24*seq_013_mvl/mxv
	.byte	W12
	.byte		        24*seq_013_mvl/mxv
	.byte	W07
	.byte	W07
	.byte		        23*seq_013_mvl/mxv
	.byte	W12
	.byte		        23*seq_013_mvl/mxv
	.byte	W11
	.byte		        22*seq_013_mvl/mxv
	.byte	W15
	.byte		        21*seq_013_mvl/mxv
	.byte	W11
	.byte		        21*seq_013_mvl/mxv
	.byte	W12
	.byte		        20*seq_013_mvl/mxv
	.byte	W15
	.byte		        20*seq_013_mvl/mxv
	.byte	W11
	.byte		        19*seq_013_mvl/mxv
	.byte	W02
	.byte	W10
	.byte		        18*seq_013_mvl/mxv
	.byte	W14
	.byte		        18*seq_013_mvl/mxv
	.byte	W12
	.byte		        17*seq_013_mvl/mxv
	.byte	W14
	.byte		        17*seq_013_mvl/mxv
	.byte	W12
	.byte		        16*seq_013_mvl/mxv
	.byte	W14
	.byte		        15*seq_013_mvl/mxv
	.byte	W12
	.byte		        15*seq_013_mvl/mxv
	.byte	W08
	.byte	W04
	.byte		        14*seq_013_mvl/mxv
	.byte	W14
	.byte		        14*seq_013_mvl/mxv
	.byte	W12
	.byte		        13*seq_013_mvl/mxv
	.byte	W14
	.byte		        12*seq_013_mvl/mxv
	.byte	W12
	.byte		        12*seq_013_mvl/mxv
	.byte	W11
	.byte		        11*seq_013_mvl/mxv
	.byte	W15
	.byte		        11*seq_013_mvl/mxv
	.byte	W14
	.byte		EOT
	.byte	GOTO
	 .word	seq_013_5 + 0x10
	.byte	FINE

@*********************** Track 07 ***********************@

seq_013_6:
	.byte	KEYSH , seq_013_key+0
	.byte	W12
	.byte		VOICE , 95
	.byte	W01
	.byte		VOL   , 23*seq_013_mvl/mxv
	.byte	W01
	.byte		PAN   , c_v-63
	.byte	W10
	.byte	W96
	.byte	W96
	.byte	W96
	.byte	W96
	.byte	W96
	.byte	W96
	.byte	W96
	.byte	W96
	.byte	W96
	.byte	W96
	.byte	W96
	.byte	W96
	.byte	W96
	.byte	W96
	.byte	W96
	.byte	W48
	.byte	W01
	.byte		VOL   , 29*seq_013_mvl/mxv
	.byte	W21
	.byte		BEND  , c_v+0
	.byte	W02
	.byte		TIE   , Gn1 , v112
	.byte	W21
	.byte		BEND  , c_v+11
	.byte	W01
	.byte		        c_v+16
	.byte	W01
	.byte		        c_v+21
	.byte	W01
	.byte		        c_v+27
	.byte	W01
	.byte		        c_v+39
	.byte	W01
	.byte		        c_v+51
	.byte	W01
	.byte		        c_v+63
	.byte	W92
	.byte	W01
	.byte	W24
	.byte		EOT
	.byte	W23
	.byte		BEND  , c_v+0
	.byte	W01
	.byte		N04   , An1 
	.byte	W12
	.byte		N10   , Cn2 
	.byte	W24
	.byte		N84   , Dn2 
	.byte	W12
	.byte	W84
	.byte		N84
	.byte	W12
	.byte	W96
	.byte		N72   , As1 , v112
	.byte	W84
	.byte		N84
	.byte	W12
	.byte	PEND
	.byte	W96
	.byte		N72   , Cn2 , v112
	.byte	W84
	.byte		N84
	.byte	W12
	.byte	PEND
	.byte	W96
	.byte		TIE   , An1 
	.byte	W96
	.byte	W36
	.byte		EOT
	.byte	W12
	.byte		N04
	.byte	W12
	.byte		N10   , Cn2 
	.byte	W24
	.byte		N84   , Dn2 
	.byte	W12
	.byte	W84
	.byte		N84
	.byte	W12
	.byte	W96
	.byte	PATT
	 .word	seq_013_6 + 0x4A
	.byte	W96
	.byte	PATT
	 .word	seq_013_6 + 0x52
	.byte	W96
	.byte		TIE   , An1 , v112
	.byte	W36
	.byte	W03
	.byte		VOL   , 26*seq_013_mvl/mxv
	.byte	W24
	.byte		        25*seq_013_mvl/mxv
	.byte	W14
	.byte		        24*seq_013_mvl/mxv
	.byte	W12
	.byte		        24*seq_013_mvl/mxv
	.byte	W07
	.byte	W07
	.byte		        23*seq_013_mvl/mxv
	.byte	W12
	.byte		        23*seq_013_mvl/mxv
	.byte	W11
	.byte		        22*seq_013_mvl/mxv
	.byte	W15
	.byte		        21*seq_013_mvl/mxv
	.byte	W11
	.byte		        21*seq_013_mvl/mxv
	.byte	W12
	.byte		        20*seq_013_mvl/mxv
	.byte	W15
	.byte		        20*seq_013_mvl/mxv
	.byte	W11
	.byte		        19*seq_013_mvl/mxv
	.byte	W02
	.byte	W10
	.byte		        18*seq_013_mvl/mxv
	.byte	W14
	.byte		        18*seq_013_mvl/mxv
	.byte	W12
	.byte		        17*seq_013_mvl/mxv
	.byte	W14
	.byte		        17*seq_013_mvl/mxv
	.byte	W12
	.byte		        16*seq_013_mvl/mxv
	.byte	W14
	.byte		        15*seq_013_mvl/mxv
	.byte	W12
	.byte		        15*seq_013_mvl/mxv
	.byte	W08
	.byte	W04
	.byte		        14*seq_013_mvl/mxv
	.byte	W14
	.byte		        14*seq_013_mvl/mxv
	.byte	W12
	.byte		        13*seq_013_mvl/mxv
	.byte	W14
	.byte		        12*seq_013_mvl/mxv
	.byte	W12
	.byte		        12*seq_013_mvl/mxv
	.byte	W11
	.byte		        11*seq_013_mvl/mxv
	.byte	W15
	.byte		        11*seq_013_mvl/mxv
	.byte	W14
	.byte		EOT
	.byte	GOTO
	 .word	seq_013_6 + 0x10
	.byte	FINE

@*********************** Track 08 ***********************@

seq_013_7:
	.byte	KEYSH , seq_013_key+0
	.byte	W12
	.byte		VOICE , 93
	.byte	W01
	.byte		VOL   , 44*seq_013_mvl/mxv
	.byte	W01
	.byte		PAN   , c_v+0
	.byte	W10
	.byte		N12   , Gn2 , v112
	.byte	W12
	.byte		N06   , Gn1 , v092
	.byte	W12
	.byte		N03   , Gn1 , v060
	.byte	W12
	.byte		N24   , Gn2 , v112
	.byte	W24
	.byte		N06   , Dn2 
	.byte	W12
	.byte		        Fn2 
	.byte	W12
	.byte		        Cn2 
	.byte	W12
	.byte	PEND
	.byte		N12   , Dn2 , v112
	.byte	W12
	.byte		N06   , As1 
	.byte	W12
	.byte		        Cn2 
	.byte	W12
	.byte		        Gn1 
	.byte	W12
	.byte		N12   , As1 
	.byte	W12
	.byte		N06   , Cn2 
	.byte	W12
	.byte		        Dn2 
	.byte	W12
	.byte		        Fn2 
	.byte	W12
	.byte	PEND
	.byte	PATT
	 .word	seq_013_7 + 0xC
	.byte	PATT
	 .word	seq_013_7 + 0x24
	.byte		N12   , Ds2 , v112
	.byte	W12
	.byte		N06   , Ds1 , v092
	.byte	W12
	.byte		N03   , Ds1 , v060
	.byte	W12
	.byte		N24   , Ds2 , v112
	.byte	W24
	.byte		N06   , As1 
	.byte	W12
	.byte		        Dn2 
	.byte	W12
	.byte		        An1 
	.byte	W12
	.byte	PEND
	.byte		N12   , As1 
	.byte	W12
	.byte		N06   , Gn1 
	.byte	W12
	.byte		        An1 
	.byte	W12
	.byte		N12   , Fn1 
	.byte	W12
	.byte		N06   , Gn1 
	.byte	W12
	.byte		        As1 
	.byte	W12
	.byte		        Cn2 
	.byte	W12
	.byte		        Dn2 
	.byte	W12
	.byte	PATT
	 .word	seq_013_7 + 0x44
	.byte		N12   , As1 , v112
	.byte	W12
	.byte		N06   , Gn1 
	.byte	W12
	.byte		        An1 
	.byte	W12
	.byte		N12   , Gn1 
	.byte	W12
	.byte		N06   , An1 
	.byte	W12
	.byte		        Cn2 
	.byte	W12
	.byte		        Dn2 
	.byte	W12
	.byte		        Fn2 
	.byte	W12
	.byte	PATT
	 .word	seq_013_7 + 0xC
	.byte		N12   , Dn2 , v112
	.byte	W12
	.byte		N06   , As1 
	.byte	W12
	.byte		        Cn2 
	.byte	W12
	.byte		        Gn1 
	.byte	W12
	.byte		N12   , As1 
	.byte	W12
	.byte		N06   , Cn2 
	.byte	W12
	.byte		N12   , Dn2 
	.byte	W12
	.byte		N06   , Fn2 
	.byte	W12
	.byte	PEND
	.byte	PATT
	 .word	seq_013_7 + 0xC
	.byte	PATT
	 .word	seq_013_7 + 0x8F
	.byte		N12   , Ds2 , v112
	.byte	W12
	.byte		N06   , Ds1 , v092
	.byte	W12
	.byte		N03   , Ds1 , v060
	.byte	W12
	.byte		N12   , Ds2 , v112
	.byte	W12
	.byte		N06   , As1 
	.byte	W12
	.byte		        Dn2 
	.byte	W12
	.byte		        As1 
	.byte	W12
	.byte		N24   , Ds2 
	.byte	W12
	.byte	W12
	.byte		N06   , As1 
	.byte	W12
	.byte		        Cn2 
	.byte	W12
	.byte		        Dn2 
	.byte	W12
	.byte		N12   , Ds2 
	.byte	W12
	.byte		N06   , Cn2 
	.byte	W12
	.byte		        Dn2 
	.byte	W12
	.byte		        Ds2 
	.byte	W12
	.byte		N12   , Fn2 
	.byte	W12
	.byte		N06   , Fn1 , v092
	.byte	W12
	.byte		N03   , Fn1 , v060
	.byte	W12
	.byte		N12   , Fn2 , v112
	.byte	W12
	.byte		N06   , Fn1 
	.byte	W12
	.byte		        Cn2 
	.byte	W12
	.byte		        Ds2 
	.byte	W12
	.byte		N12   , Fn2 
	.byte	W12
	.byte		N06   , Fn1 
	.byte	W12
	.byte		        As2 
	.byte	W12
	.byte		        An2 
	.byte	W12
	.byte		N12   , Fn2 
	.byte	W24
	.byte		N06   , Dn2 
	.byte	W12
	.byte		N24   , Fn2 
	.byte	W24
	.byte		N36   , Gn2 , v112
	.byte	W36
	.byte		N06   , Dn2 
	.byte	W12
	.byte		        Gn2 
	.byte	W12
	.byte		        Dn2 
	.byte	W12
	.byte		        Fn2 
	.byte	W12
	.byte		N24   , Gn2 
	.byte	W12
	.byte	PEND
	.byte	W12
	.byte		N06   , Dn2 
	.byte	W12
	.byte		        Fn2 
	.byte	W12
	.byte		N12   , Cn2 
	.byte	W12
	.byte		N06   , Dn2 
	.byte	W12
	.byte		        Gn2 
	.byte	W24
	.byte		N12   , Fn2 
	.byte	W12
	.byte	W12
	.byte		N24   , Fn2 , v112
	.byte	W24
	.byte		N06   , As1 
	.byte	W12
	.byte		        Cn2 
	.byte	W12
	.byte		        Fn2 
	.byte	W12
	.byte		        Ds2 
	.byte	W12
	.byte		N12   , Fn2 
	.byte	W12
	.byte	PEND
	.byte	W12
	.byte		N12   , Fn2 , v112
	.byte	W12
	.byte		N06   , As1 
	.byte	W12
	.byte		N24   , Fn2 
	.byte	W24
	.byte		N06   , As1 
	.byte	W12
	.byte		        Cn2 
	.byte	W12
	.byte		        Dn2 
	.byte	W12
	.byte	PEND
	.byte		N24   , Ds2 , v112
	.byte	W36
	.byte		N06   , As1 
	.byte	W12
	.byte		        Ds2 
	.byte	W12
	.byte		        Cn2 
	.byte	W12
	.byte		        Dn2 
	.byte	W12
	.byte		N24   , Ds2 
	.byte	W12
	.byte	PEND
	.byte	W12
	.byte		N06   , Cn2 , v112
	.byte	W12
	.byte		        Dn2 
	.byte	W12
	.byte		N12   , Ds2 
	.byte	W24
	.byte		N06   , Cn2 
	.byte	W12
	.byte		        Dn2 
	.byte	W12
	.byte		        Ds2 
	.byte	W12
	.byte	PEND
	.byte		N24   , Fn2 , v112
	.byte	W36
	.byte		N06   , Cn2 
	.byte	W12
	.byte		        Fn2 
	.byte	W12
	.byte		        Cn2 
	.byte	W12
	.byte		        Ds2 
	.byte	W12
	.byte		N24   , Fn2 
	.byte	W12
	.byte	PEND
	.byte	W12
	.byte		N06   , As2 
	.byte	W12
	.byte		        An2 
	.byte	W12
	.byte		N12   , Fn2 
	.byte	W24
	.byte		N06   , Cn2 
	.byte	W12
	.byte		        Ds2 
	.byte	W12
	.byte		        Fs2 
	.byte	W12
	.byte	PATT
	 .word	seq_013_7 + 0x106
	.byte	W12
	.byte		N06   , Dn2 , v112
	.byte	W12
	.byte		        Fn2 
	.byte	W12
	.byte		        Cn2 
	.byte	W12
	.byte		        Dn2 
	.byte	W12
	.byte		        Gn2 
	.byte	W24
	.byte		N12   , Fn2 
	.byte	W12
	.byte	PATT
	 .word	seq_013_7 + 0x128
	.byte	PATT
	 .word	seq_013_7 + 0x13A
	.byte	PATT
	 .word	seq_013_7 + 0x14D
	.byte	PATT
	 .word	seq_013_7 + 0x15E
	.byte	PATT
	 .word	seq_013_7 + 0x170
	.byte	W12
	.byte		N06   , As2 , v112
	.byte	W12
	.byte		        An2 
	.byte	W12
	.byte		N12   , Fn2 
	.byte	W24
	.byte		N06   , Cn2 
	.byte	W12
	.byte		N24   , Fn2 
	.byte	W24
	.byte		N12   , Gn2 , v112
	.byte	W36
	.byte		N24
	.byte	W24
	.byte		N06   , Dn2 
	.byte	W12
	.byte		        Fn2 
	.byte	W12
	.byte		        Cn2 
	.byte	W12
	.byte	PEND
	.byte	PATT
	 .word	seq_013_7 + 0x24
	.byte	PATT
	 .word	seq_013_7 + 0x1CF
	.byte	PATT
	 .word	seq_013_7 + 0x24
	.byte	GOTO
	 .word	seq_013_7 + 0x44
	.byte	FINE

@*********************** Track 09 ***********************@

seq_013_8:
	.byte	KEYSH , seq_013_key+0
	.byte	W12
	.byte		VOICE , 89
	.byte	W01
	.byte		VOL   , 32*seq_013_mvl/mxv
	.byte	W01
	.byte		PAN   , c_v+0
	.byte	W10
	.byte		N04   , An2 , v088
	.byte	W36
	.byte		N23
	.byte	W60
	.byte	PEND
	.byte	W96
	.byte	PATT
	 .word	seq_013_8 + 0xC
	.byte	W96
	.byte		N04   , Gn2 , v088
	.byte	W36
	.byte		N23
	.byte	W60
	.byte	PEND
	.byte	W96
	.byte	PATT
	 .word	seq_013_8 + 0x1A
	.byte	W96
	.byte	PATT
	 .word	seq_013_8 + 0xC
	.byte	W96
	.byte	PATT
	 .word	seq_013_8 + 0xC
	.byte	W96
	.byte	PATT
	 .word	seq_013_8 + 0x1A
	.byte	W96
	.byte	PATT
	 .word	seq_013_8 + 0x1A
	.byte	W92
	.byte	W03
	.byte		PAN   , c_v-63
	.byte	W01
	.byte		N12   , Gn2 , v060
	.byte	W12
	.byte		N06   , Gn3 , v080
	.byte	W12
	.byte		        Fn3 
	.byte	W06
	.byte		N03   , Gn2 , v060
	.byte	W06
	.byte		N06   , Dn3 , v080
	.byte	W12
	.byte		        Gn3 
	.byte	W12
	.byte		        Fn3 
	.byte	W06
	.byte		N03   , Gn2 , v060
	.byte	W06
	.byte		N04   , Dn3 , v052
	.byte	W12
	.byte		N18   , Gn3 , v080
	.byte	W12
	.byte	PEND
	.byte	W12
	.byte		N06   , Fn3 , v080
	.byte	W06
	.byte		N03   , Gn2 , v060
	.byte	W06
	.byte		N04   , Dn3 , v052
	.byte	W12
	.byte		N12   , Gn3 , v080
	.byte	W24
	.byte		N06   , Fn3 
	.byte	W06
	.byte		N03   , Gn2 , v060
	.byte	W06
	.byte		N06   , Dn3 , v052
	.byte	W12
	.byte		N12   , Gn2 , v060
	.byte	W12
	.byte	PEND
	.byte		N12   , Fn2 , v060
	.byte	W12
	.byte		N06   , Gn3 , v080
	.byte	W12
	.byte		        Fn3 
	.byte	W06
	.byte		N03   , Fn2 , v060
	.byte	W06
	.byte		N06   , Dn3 , v080
	.byte	W12
	.byte		        Gn3 
	.byte	W12
	.byte		        Fn3 
	.byte	W06
	.byte		N03   , Fn2 , v060
	.byte	W06
	.byte		N04   , Dn3 , v052
	.byte	W12
	.byte		N18   , Gn3 , v080
	.byte	W12
	.byte	PEND
	.byte	W12
	.byte		N06   , Fn3 , v080
	.byte	W06
	.byte		N03   , Fn2 , v060
	.byte	W06
	.byte		N04   , Dn3 , v052
	.byte	W12
	.byte		N12   , Gn3 , v080
	.byte	W24
	.byte		N06   , Fn3 
	.byte	W06
	.byte		N03   , Fn2 , v060
	.byte	W06
	.byte		N06   , Dn3 , v052
	.byte	W12
	.byte		N12   , As1 , v060
	.byte	W12
	.byte	PEND
	.byte		        Ds2 
	.byte	W12
	.byte		N06   , Gn3 , v080
	.byte	W12
	.byte		        Cn3 
	.byte	W06
	.byte		N03   , Ds2 , v060
	.byte	W06
	.byte		N06   , Dn3 , v052
	.byte	W12
	.byte		        Fn3 , v080
	.byte	W12
	.byte		        Dn3 
	.byte	W06
	.byte		N03   , Ds2 , v060
	.byte	W06
	.byte		N04   , Fn3 , v052
	.byte	W12
	.byte		N18   , Gn3 , v080
	.byte	W12
	.byte	W12
	.byte		N06   , Dn3 , v080
	.byte	W06
	.byte		N03   , Ds2 , v060
	.byte	W06
	.byte		N04   , Fn3 , v052
	.byte	W12
	.byte		N12   , Gn3 , v080
	.byte	W24
	.byte		N06   , Dn3 
	.byte	W06
	.byte		N03   , Ds2 , v060
	.byte	W06
	.byte		N06   , Fn3 , v052
	.byte	W12
	.byte		N12   , Gn3 , v060
	.byte	W12
	.byte	PEND
	.byte		N12   , Fn2 , v060
	.byte	W12
	.byte		N06   , Gn3 , v080
	.byte	W12
	.byte		        Dn3 
	.byte	W06
	.byte		N03   , Fn2 , v060
	.byte	W06
	.byte		N06   , Fn3 , v052
	.byte	W12
	.byte		        Gn3 , v080
	.byte	W12
	.byte		        Dn3 
	.byte	W06
	.byte		N03   , Fn2 , v060
	.byte	W06
	.byte		N04   , Fn3 , v052
	.byte	W12
	.byte		N18   , An2 , v080
	.byte	W12
	.byte	PEND
	.byte	W12
	.byte		N06   , Fn3 
	.byte	W06
	.byte		N03   , Fn2 , v060
	.byte	W06
	.byte		N04   , An2 , v052
	.byte	W12
	.byte		N12   , Dn3 , v060
	.byte	W12
	.byte		        An2 , v052
	.byte	W12
	.byte		N06   , Fn3 , v080
	.byte	W12
	.byte		N12   , An2 , v052
	.byte	W12
	.byte		N06   , Fs3 , v080
	.byte	W12
	.byte	PATT
	 .word	seq_013_8 + 0x44
	.byte	PATT
	 .word	seq_013_8 + 0x67
	.byte	PATT
	 .word	seq_013_8 + 0x88
	.byte	PATT
	 .word	seq_013_8 + 0xAB
	.byte		N12   , Ds2 , v060
	.byte	W12
	.byte		N06   , Gn3 , v080
	.byte	W12
	.byte		        Cn3 
	.byte	W06
	.byte		N03   , Ds2 , v060
	.byte	W06
	.byte		N04   , Dn3 , v052
	.byte	W12
	.byte		N06   , Gn3 , v080
	.byte	W12
	.byte		        Dn3 
	.byte	W06
	.byte		N03   , Ds2 , v060
	.byte	W06
	.byte		N04   , Fn3 , v052
	.byte	W12
	.byte		N18   , Gn3 , v080
	.byte	W12
	.byte	PATT
	 .word	seq_013_8 + 0xED
	.byte	PATT
	 .word	seq_013_8 + 0x10E
	.byte	W12
	.byte		N06   , As2 , v080
	.byte	W06
	.byte		N03   , Fn2 , v060
	.byte	W06
	.byte		N06   , An2 , v080
	.byte	W12
	.byte		N12   , Fn2 , v060
	.byte	W24
	.byte		N06   , Dn2 , v080
	.byte	W12
	.byte		N24   , Fn2 
	.byte	W23
	.byte		PAN   , c_v+0
	.byte	W01
	.byte		N04   , An2 , v112
	.byte	W36
	.byte		N23
	.byte	W60
	.byte	PEND
	.byte	W96
	.byte	PATT
	 .word	seq_013_8 + 0x1AE
	.byte	W96
	.byte	GOTO
	 .word	seq_013_8 + 0x1A
	.byte	FINE

@*********************** Track 10 ***********************@

seq_013_9:
	.byte	KEYSH , seq_013_key+0
	.byte	W18
	.byte		VOICE , 90
	.byte	W01
	.byte		VOL   , 38*seq_013_mvl/mxv
	.byte	W01
	.byte		PAN   , c_v+0
	.byte	W04
	.byte		N04   , Dn3 , v088
	.byte	W36
	.byte		N24
	.byte	W60
	.byte	PEND
	.byte	W96
	.byte	PATT
	 .word	seq_013_9 + 0xC
	.byte	W96
	.byte		N04   , Cn3 , v088
	.byte	W36
	.byte		N24
	.byte	W60
	.byte	PEND
	.byte	W96
	.byte	PATT
	 .word	seq_013_9 + 0x1A
	.byte	W96
	.byte	PATT
	 .word	seq_013_9 + 0xC
	.byte	W96
	.byte	PATT
	 .word	seq_013_9 + 0xC
	.byte	W96
	.byte	PATT
	 .word	seq_013_9 + 0x1A
	.byte	W96
	.byte		N04   , Cn3 , v088
	.byte	W36
	.byte		N24
	.byte	W24
	.byte		N04   , An2 
	.byte	W12
	.byte		        As2 
	.byte	W12
	.byte		N12   , Cn3 
	.byte	W12
	.byte	W12
	.byte		N04   , Ds3 
	.byte	W12
	.byte		N06   , Dn3 
	.byte	W12
	.byte		N36   , Cn3 
	.byte	W56
	.byte	W03
	.byte		PAN   , c_v+63
	.byte	W01
	.byte		N12   , Gn2 , v052
	.byte	W12
	.byte		N06   , Gn3 , v072
	.byte	W12
	.byte		        Fn3 
	.byte	W06
	.byte		N03   , Gn2 , v052
	.byte	W06
	.byte		N06   , Dn3 , v072
	.byte	W12
	.byte		        Gn3 
	.byte	W12
	.byte		        Fn3 
	.byte	W06
	.byte		N03   , Gn2 , v052
	.byte	W06
	.byte		N04   , Dn3 , v040
	.byte	W12
	.byte		N18   , Gn3 , v072
	.byte	W12
	.byte	PEND
	.byte	W12
	.byte		N06   , Fn3 , v072
	.byte	W06
	.byte		N03   , Gn2 , v052
	.byte	W06
	.byte		N04   , Dn3 , v040
	.byte	W12
	.byte		N12   , Gn3 , v072
	.byte	W24
	.byte		N06   , Fn3 
	.byte	W06
	.byte		N03   , Gn2 , v052
	.byte	W06
	.byte		N06   , Dn3 , v040
	.byte	W12
	.byte		N12   , Gn2 , v052
	.byte	W12
	.byte	PEND
	.byte		N12   , Fn2 , v052
	.byte	W12
	.byte		N06   , Gn3 , v072
	.byte	W12
	.byte		        Fn3 
	.byte	W06
	.byte		N03   , Fn2 , v052
	.byte	W06
	.byte		N06   , Dn3 , v072
	.byte	W12
	.byte		        Gn3 
	.byte	W12
	.byte		        Fn3 
	.byte	W06
	.byte		N03   , Fn2 , v052
	.byte	W06
	.byte		N04   , Dn3 , v040
	.byte	W12
	.byte		N18   , Gn3 , v072
	.byte	W12
	.byte	PEND
	.byte	W12
	.byte		N06   , Fn3 , v072
	.byte	W06
	.byte		N03   , Fn2 , v052
	.byte	W06
	.byte		N04   , Dn3 , v040
	.byte	W12
	.byte		N12   , Gn3 , v072
	.byte	W24
	.byte		N06   , Fn3 
	.byte	W06
	.byte		N03   , Fn2 , v052
	.byte	W06
	.byte		N06   , Dn3 , v040
	.byte	W12
	.byte		N12   , As1 , v052
	.byte	W12
	.byte	PEND
	.byte		        Ds2 
	.byte	W12
	.byte		N06   , Gn3 , v072
	.byte	W12
	.byte		        Cn3 
	.byte	W06
	.byte		N03   , Ds2 , v052
	.byte	W06
	.byte		N06   , Dn3 , v040
	.byte	W12
	.byte		        Fn3 , v072
	.byte	W12
	.byte		        Dn3 
	.byte	W06
	.byte		N03   , Ds2 , v052
	.byte	W06
	.byte		N04   , Fn3 , v040
	.byte	W12
	.byte		N18   , Gn3 , v072
	.byte	W12
	.byte	W12
	.byte		N06   , Dn3 , v072
	.byte	W06
	.byte		N03   , Ds2 , v052
	.byte	W06
	.byte		N04   , Fn3 , v040
	.byte	W12
	.byte		N12   , Gn3 , v072
	.byte	W24
	.byte		N06   , Dn3 
	.byte	W06
	.byte		N03   , Ds2 , v052
	.byte	W06
	.byte		N06   , Fn3 , v040
	.byte	W12
	.byte		N12   , Gn3 , v052
	.byte	W12
	.byte	PEND
	.byte		N12   , Fn2 , v052
	.byte	W12
	.byte		N06   , Gn3 , v072
	.byte	W12
	.byte		        Dn3 
	.byte	W06
	.byte		N03   , Fn2 , v052
	.byte	W06
	.byte		N06   , Fn3 , v040
	.byte	W12
	.byte		        Gn3 , v072
	.byte	W12
	.byte		        Dn3 
	.byte	W06
	.byte		N03   , Fn2 , v052
	.byte	W06
	.byte		N04   , Fn3 , v040
	.byte	W12
	.byte		N18   , An2 , v072
	.byte	W12
	.byte	PEND
	.byte	W12
	.byte		N06   , Fn3 
	.byte	W06
	.byte		N03   , Fn2 , v052
	.byte	W06
	.byte		N04   , An2 , v040
	.byte	W12
	.byte		N12   , Dn3 , v052
	.byte	W12
	.byte		        An2 , v040
	.byte	W12
	.byte		N06   , Fn3 , v072
	.byte	W12
	.byte		N12   , An2 , v040
	.byte	W12
	.byte		N06   , Fs3 , v072
	.byte	W12
	.byte	PATT
	 .word	seq_013_9 + 0x56
	.byte	PATT
	 .word	seq_013_9 + 0x79
	.byte	PATT
	 .word	seq_013_9 + 0x9A
	.byte	PATT
	 .word	seq_013_9 + 0xBD
	.byte		N12   , Ds2 , v052
	.byte	W12
	.byte		N06   , Gn3 , v072
	.byte	W12
	.byte		        Cn3 
	.byte	W06
	.byte		N03   , Ds2 , v052
	.byte	W06
	.byte		N04   , Dn3 , v040
	.byte	W12
	.byte		N06   , Gn3 , v072
	.byte	W12
	.byte		        Dn3 
	.byte	W06
	.byte		N03   , Ds2 , v052
	.byte	W06
	.byte		N04   , Fn3 , v040
	.byte	W12
	.byte		N18   , Gn3 , v072
	.byte	W12
	.byte	PATT
	 .word	seq_013_9 + 0xFF
	.byte	PATT
	 .word	seq_013_9 + 0x120
	.byte	W12
	.byte		N06   , As2 , v072
	.byte	W06
	.byte		N03   , Fn2 , v052
	.byte	W06
	.byte		N06   , An2 , v072
	.byte	W12
	.byte		N12   , Fn2 , v052
	.byte	W24
	.byte		N06   , Dn2 , v072
	.byte	W12
	.byte		N24   , Fn2 
	.byte	W23
	.byte		PAN   , c_v+0
	.byte	W01
	.byte		N04   , Dn3 , v112
	.byte	W36
	.byte		N24
	.byte	W60
	.byte	PEND
	.byte	W96
	.byte	PATT
	 .word	seq_013_9 + 0x1C0
	.byte	W96
	.byte	GOTO
	 .word	seq_013_9 + 0x1A
	.byte	FINE

@*********************** Track 11 ***********************@

seq_013_10:
	.byte	KEYSH , seq_013_key+0
	.byte	W18
	.byte		VOICE , 127
	.byte	W01
	.byte		VOL   , 50*seq_013_mvl/mxv
	.byte	W01
	.byte		PAN   , c_v+0
	.byte	W04
	.byte		N12   , Gs1 , v080
	.byte	W12
	.byte		N02   , Fs1 , v020
	.byte	W12
	.byte		        Fs1 , v080
	.byte	W12
	.byte		N12   , Gs1 , v052
	.byte	W12
	.byte		N02   , Fs1 , v080
	.byte	W12
	.byte		        Fs1 , v020
	.byte	W12
	.byte		        Fs1 , v080
	.byte	W12
	.byte		        Gs1 , v020
	.byte	W12
	.byte	PEND
	.byte		N02   , Fs1 , v080
	.byte	W24
	.byte		N02
	.byte	W12
	.byte		        Gs1 , v020
	.byte	W12
	.byte		        Fs1 , v080
	.byte	W24
	.byte		N02
	.byte	W12
	.byte		        Gs1 , v020
	.byte	W12
	.byte	PEND
	.byte	PATT
	 .word	seq_013_10 + 0xC
	.byte	PATT
	 .word	seq_013_10 + 0x29
	.byte	PATT
	 .word	seq_013_10 + 0xC
	.byte	PATT
	 .word	seq_013_10 + 0x29
	.byte	PATT
	 .word	seq_013_10 + 0xC
	.byte		N02   , Fs1 , v080
	.byte	W24
	.byte		N02
	.byte	W12
	.byte		        Gs1 , v020
	.byte	W12
	.byte		N12   , Gs1 , v080
	.byte	W12
	.byte		N02   , Fs1 , v020
	.byte	W12
	.byte		        Fs1 , v080
	.byte	W12
	.byte		        Gs1 , v020
	.byte	W12
	.byte	PATT
	 .word	seq_013_10 + 0xC
	.byte	PATT
	 .word	seq_013_10 + 0x29
	.byte	PATT
	 .word	seq_013_10 + 0xC
	.byte	PATT
	 .word	seq_013_10 + 0x29
	.byte	PATT
	 .word	seq_013_10 + 0xC
	.byte	PATT
	 .word	seq_013_10 + 0x29
	.byte	PATT
	 .word	seq_013_10 + 0xC
	.byte	PATT
	 .word	seq_013_10 + 0x29
	.byte		N12   , Gs1 , v080
	.byte	W12
	.byte		N02   , Fs1 , v020
	.byte	W12
	.byte		        Fs1 , v080
	.byte	W12
	.byte		        Fs1 , v020
	.byte	W12
	.byte		N12   , Gs1 , v052
	.byte	W12
	.byte		N02   , Fs1 , v020
	.byte	W12
	.byte		        Fs1 , v080
	.byte	W12
	.byte		        Gs1 , v020
	.byte	W12
	.byte	PEND
	.byte	PATT
	 .word	seq_013_10 + 0x29
	.byte	PATT
	 .word	seq_013_10 + 0x93
	.byte	PATT
	 .word	seq_013_10 + 0x29
	.byte	PATT
	 .word	seq_013_10 + 0x93
	.byte	PATT
	 .word	seq_013_10 + 0x29
	.byte	PATT
	 .word	seq_013_10 + 0x93
	.byte	PATT
	 .word	seq_013_10 + 0x29
	.byte	PATT
	 .word	seq_013_10 + 0x93
	.byte	PATT
	 .word	seq_013_10 + 0x29
	.byte	PATT
	 .word	seq_013_10 + 0x93
	.byte	PATT
	 .word	seq_013_10 + 0x29
	.byte	PATT
	 .word	seq_013_10 + 0x93
	.byte	PATT
	 .word	seq_013_10 + 0x29
	.byte	PATT
	 .word	seq_013_10 + 0x93
	.byte	PATT
	 .word	seq_013_10 + 0x29
	.byte	PATT
	 .word	seq_013_10 + 0x93
	.byte	PATT
	 .word	seq_013_10 + 0x29
	.byte	PATT
	 .word	seq_013_10 + 0x93
	.byte	PATT
	 .word	seq_013_10 + 0x29
	.byte	GOTO
	 .word	seq_013_10 + 0x45
	.byte	FINE

@******************************************************@

	.align	2

seq_013:
	.byte	11	@ NumTrks
	.byte	0	@ NumBlks
	.byte	seq_013_pri	@ Priority
	.byte	seq_013_rev	@ Reverb

	.word	seq_013_grp

	.word	seq_013_0
	.word	seq_013_1
	.word	seq_013_2
	.word	seq_013_3
	.word	seq_013_4
	.word	seq_013_5
	.word	seq_013_6
	.word	seq_013_7
	.word	seq_013_8
	.word	seq_013_9
	.word	seq_013_10

	.end
