@ File generated by m4a2s Song-Module
	.include "MPlayDef.s"

	.equ	seq_106_grp, bank_014
	.equ	seq_106_pri, 50
	.equ	seq_106_rev, 218
	.equ	seq_106_mvl, 127
	.equ	seq_106_key, 0

	.section .rodata
	.global	seq_106
	.align	2

@*********************** Track 01 ***********************@

seq_106_0:
	.byte	KEYSH , seq_106_key+0
	.byte	TEMPO , 240/2
	.byte		VOICE , 127
	.byte	W01
	.byte		VOL   , 56*seq_106_mvl/mxv
	.byte	W01
	.byte		PAN   , c_v+0
	.byte	W10
	.byte	TEMPO , 84/2
	.byte	W12
	.byte		N03   , An7 , v100
	.byte	W96
	.byte		N03
	.byte	W96
	.byte		N03
	.byte	W96
	.byte		N03
	.byte	W96
	.byte		N03
	.byte	W96
	.byte		N03
	.byte	W96
	.byte		N03
	.byte	W96
	.byte		N03
	.byte	W96
	.byte		N03
	.byte	W96
	.byte		N03
	.byte	W96
	.byte		N03
	.byte	W96
	.byte		N03
	.byte	W96
	.byte		N03
	.byte	W96
	.byte		N03
	.byte	W96
	.byte		N03
	.byte	W96
	.byte		N03
	.byte	W96
	.byte		N03
	.byte	W96
	.byte		N03
	.byte	W96
	.byte		N03
	.byte	W96
	.byte		N03
	.byte	W96
	.byte	GOTO
	 .word	seq_106_0 + 0x10
	.byte W96, W96
	.byte	FINE

@*********************** Track 02 ***********************@

seq_106_1:
	.byte	KEYSH , seq_106_key+0
	.byte		VOICE , 50
	.byte	W01
	.byte		VOL   , 70*seq_106_mvl/mxv
	.byte	W01
	.byte		PAN   , c_v+0
	.byte	W01
	.byte		LFOS  , 20
	.byte	W01
	.byte		MODT  , mod_pan
	.byte	W01
	.byte		LFODL , 0
	.byte	W19
	.byte	W96
	.byte	W96
	.byte	W96
	.byte	W96
	.byte	W23
	.byte		MOD   , 40
	.byte	W01
	.byte		N02   , Fn5 , v120
	.byte	W02
	.byte		N09   , Fn5 , v040
	.byte	W09
	.byte		N13   , Fn5 , v020
	.byte	W13
	.byte		N02   , Ds5 , v120
	.byte	W02
	.byte		N09   , Ds5 , v040
	.byte	W09
	.byte		N13   , Ds5 , v020
	.byte	W13
	.byte		N02   , Fn5 , v100
	.byte		N02   , As5 
	.byte	W02
	.byte		N09   , Fn5 , v040
	.byte		N09   , As5 
	.byte	W09
	.byte		N13   , Fn5 , v020
	.byte		N13   , As5 
	.byte	W13
	.byte	PEND
	.byte		N02   , Gs5 , v120
	.byte	W02
	.byte		N09   , Gs5 , v040
	.byte	W09
	.byte		MOD   , 120
	.byte	W01
	.byte		N02   , Gs5 , v060
	.byte	W02
	.byte		N09   , Gs5 , v020
	.byte	W10
	.byte		N02   , Gs5 , v040
	.byte	W02
	.byte		N09   , Gs5 , v020
	.byte	W10
	.byte		N11
	.byte	W11
	.byte		MOD   , 40
	.byte	W01
	.byte		N02   , Fn5 , v120
	.byte	W02
	.byte		N09   , Fn5 , v040
	.byte	W09
	.byte		N13   , Fn5 , v020
	.byte	W13
	.byte		N02   , As4 , v080
	.byte		N02   , Ds5 , v120
	.byte	W02
	.byte		N09   , As4 , v040
	.byte		N09   , Ds5 
	.byte	W09
	.byte		N13   , As4 , v020
	.byte		N13   , Ds5 
	.byte	W13
	.byte	PEND
	.byte	W24
	.byte		N02   , Fn5 , v120
	.byte	W02
	.byte		N09   , Fn5 , v040
	.byte	W09
	.byte		N13   , Fn5 , v020
	.byte	W13
	.byte		N02   , Ds5 , v120
	.byte	W02
	.byte		N09   , Ds5 , v040
	.byte	W09
	.byte		N13   , Ds5 , v020
	.byte	W13
	.byte		N02   , Fn5 , v100
	.byte		N02   , As5 
	.byte	W02
	.byte		N09   , Fn5 , v040
	.byte		N09   , As5 
	.byte	W09
	.byte		N13   , Fn5 , v020
	.byte		N13   , As5 
	.byte	W13
	.byte	PEND
	.byte		N02   , Cn6 , v120
	.byte	W02
	.byte		N09   , Cn6 , v040
	.byte	W09
	.byte		MOD   , 120
	.byte	W01
	.byte		N02   , Cn6 , v060
	.byte	W02
	.byte		N09   , Cn6 , v020
	.byte	W10
	.byte		N02
	.byte	W02
	.byte		N09
	.byte	W10
	.byte		N11
	.byte	W11
	.byte		MOD   , 40
	.byte	W01
	.byte		N02   , Gs5 , v120
	.byte	W02
	.byte		N09   , Gs5 , v040
	.byte	W09
	.byte		MOD   , 120
	.byte	W01
	.byte		N02   , Gs5 , v060
	.byte	W02
	.byte		N09   , Gs5 , v020
	.byte	W10
	.byte		N02   , Gs5 , v040
	.byte	W02
	.byte		N09   , Gs5 , v020
	.byte	W10
	.byte		N11
	.byte	W12
	.byte	PEND
	.byte	PATT
	 .word	seq_106_1 + 0x18
	.byte	PATT
	 .word	seq_106_1 + 0x47
	.byte	PATT
	 .word	seq_106_1 + 0x87
	.byte	PATT
	 .word	seq_106_1 + 0xB3
	.byte	W36
	.byte		N02   , Fn4 , v100
	.byte	W02
	.byte		        Fn4 , v060
	.byte	W02
	.byte		        Fn4 , v040
	.byte	W02
	.byte		        Ds4 , v120
	.byte	W02
	.byte		        Ds4 , v060
	.byte	W02
	.byte		        Ds4 , v040
	.byte	W02
	.byte		        Cs4 , v120
	.byte	W02
	.byte		        Cs4 , v060
	.byte	W02
	.byte		        Cs4 , v040
	.byte	W02
	.byte		        As3 , v120
	.byte	W02
	.byte		        As3 , v060
	.byte	W02
	.byte		        As3 , v040
	.byte	W02
	.byte		        Fs3 , v100
	.byte	W02
	.byte		        Fs3 , v060
	.byte	W02
	.byte		        Fs3 , v040
	.byte	W08
	.byte		N02
	.byte	W03
	.byte		        Fs3 , v020
	.byte	W02
	.byte		N02
	.byte	W07
	.byte		N02
	.byte	W03
	.byte		N02
	.byte	W02
	.byte		N02
	.byte	W07
	.byte	PEND
	.byte	W36
	.byte		        Ds3 , v120
	.byte	W02
	.byte		        Ds3 , v060
	.byte	W02
	.byte		        Ds3 , v040
	.byte	W02
	.byte		        Fn3 , v120
	.byte	W02
	.byte		        Fn3 , v060
	.byte	W02
	.byte		        Fn3 , v040
	.byte	W02
	.byte		        Gs3 , v120
	.byte	W02
	.byte		        Gs3 , v060
	.byte	W02
	.byte		        Gs3 , v040
	.byte	W02
	.byte		        Cn4 , v120
	.byte	W02
	.byte		        Cn4 , v060
	.byte	W02
	.byte		        Cn4 , v040
	.byte	W02
	.byte		        Ds4 , v100
	.byte	W02
	.byte		        Ds4 , v060
	.byte	W02
	.byte		        Ds4 , v040
	.byte	W08
	.byte		N02
	.byte	W03
	.byte		        Ds4 , v020
	.byte	W02
	.byte		N02
	.byte	W07
	.byte		N02
	.byte	W03
	.byte		N02
	.byte	W02
	.byte		N02
	.byte	W07
	.byte	PATT
	 .word	seq_106_1 + 0x101
	.byte	W36
	.byte		N02   , Ds3 , v120
	.byte	W02
	.byte		        Ds3 , v060
	.byte	W02
	.byte		        Ds3 , v040
	.byte	W02
	.byte		        Fn3 , v120
	.byte	W02
	.byte		        Fn3 , v060
	.byte	W02
	.byte		        Fn3 , v040
	.byte	W02
	.byte		        Gs3 , v120
	.byte	W02
	.byte		        Gs3 , v060
	.byte	W02
	.byte		        Gs3 , v040
	.byte	W02
	.byte		        Cn4 , v100
	.byte	W02
	.byte		        Cn4 , v060
	.byte	W02
	.byte		        Cn4 , v040
	.byte	W02
	.byte		        Gs4 , v100
	.byte	W02
	.byte		        Gs4 , v060
	.byte	W02
	.byte		        Gs4 , v040
	.byte	W08
	.byte		N02
	.byte	W03
	.byte		        Gs4 , v020
	.byte	W02
	.byte		N02
	.byte	W07
	.byte		N02
	.byte	W03
	.byte		N02
	.byte	W02
	.byte		N02
	.byte	W07
	.byte		N02   , Fn4 , v100
	.byte	W02
	.byte		        Fn4 , v060
	.byte	W02
	.byte		        Fn4 , v040
	.byte	W02
	.byte		        Ds4 , v120
	.byte	W02
	.byte		        Ds4 , v060
	.byte	W02
	.byte		        Ds4 , v040
	.byte	W02
	.byte		        Cs4 , v120
	.byte	W02
	.byte		        Cs4 , v060
	.byte	W02
	.byte		        Cs4 , v040
	.byte	W02
	.byte		        As3 , v120
	.byte	W02
	.byte		        As3 , v060
	.byte	W02
	.byte		        As3 , v040
	.byte	W02
	.byte		        Fs3 , v100
	.byte	W02
	.byte		        Fs3 , v060
	.byte	W02
	.byte		        Fs3 , v040
	.byte	W08
	.byte		N02
	.byte	W03
	.byte		        Fs3 , v020
	.byte	W02
	.byte		N02
	.byte	W54
	.byte	W01
	.byte	PEND
	.byte		        Ds3 , v120
	.byte	W02
	.byte		        Ds3 , v060
	.byte	W02
	.byte		        Ds3 , v040
	.byte	W02
	.byte		        Fn3 , v120
	.byte	W02
	.byte		        Fn3 , v060
	.byte	W02
	.byte		        Fn3 , v040
	.byte	W02
	.byte		        Gs3 , v120
	.byte	W02
	.byte		        Gs3 , v060
	.byte	W02
	.byte		        Gs3 , v040
	.byte	W02
	.byte		        Cn4 , v120
	.byte	W02
	.byte		        Cn4 , v060
	.byte	W02
	.byte		        Cn4 , v040
	.byte	W02
	.byte		        Ds4 , v100
	.byte	W02
	.byte		        Ds4 , v060
	.byte	W02
	.byte		        Ds4 , v040
	.byte	W08
	.byte		N02
	.byte	W03
	.byte		        Ds4 , v020
	.byte	W02
	.byte		N02
	.byte	W54
	.byte	W01
	.byte	PATT
	 .word	seq_106_1 + 0x1BA
	.byte		N02   , Ds3 , v120
	.byte	W02
	.byte		        Ds3 , v060
	.byte	W02
	.byte		        Ds3 , v040
	.byte	W02
	.byte		        Fn3 , v120
	.byte	W02
	.byte		        Fn3 , v060
	.byte	W02
	.byte		        Fn3 , v040
	.byte	W02
	.byte		        Gs3 , v120
	.byte	W02
	.byte		        Gs3 , v060
	.byte	W02
	.byte		        Gs3 , v040
	.byte	W02
	.byte		        Cn4 , v100
	.byte	W02
	.byte		        Cn4 , v060
	.byte	W02
	.byte		        Cn4 , v040
	.byte	W02
	.byte		        Gs4 , v100
	.byte	W02
	.byte		        Gs4 , v060
	.byte	W02
	.byte		        Gs4 , v040
	.byte	W08
	.byte		N02
	.byte	W03
	.byte		        Gs4 , v020
	.byte	W02
	.byte		N02
	.byte	W52
	.byte	W01
	.byte		MOD   , 40
	.byte	W02
	.byte	GOTO
	 .word	seq_106_1 + 0x14
	.byte W96, W96
	.byte	FINE

@*********************** Track 03 ***********************@

seq_106_2:
	.byte	KEYSH , seq_106_key+0
	.byte		VOICE , 58
	.byte	W01
	.byte		VOL   , 42*seq_106_mvl/mxv
	.byte	W01
	.byte		PAN   , c_v+0
	.byte	W01
	.byte		LFOS  , 20
	.byte	W01
	.byte		MODT  , mod_pan
	.byte	W01
	.byte		LFODL , 0
	.byte	W01
	.byte		MOD   , 60
	.byte	W18
	.byte	W24
	.byte		N24   , As3 , v120
	.byte	W24
	.byte		        Fn4 
	.byte	W24
	.byte		        Cs4 
	.byte	W24
	.byte	PEND
	.byte		N72   , Ds4 , v120
	.byte	W72
	.byte		N24   , Ds4 , v040
	.byte	W24
	.byte	PEND
	.byte	PATT
	 .word	seq_106_2 + 0x17
	.byte		N72   , Cn4 , v120
	.byte	W72
	.byte		N24   , Cn4 , v040
	.byte	W24
	.byte	PEND
	.byte	PATT
	 .word	seq_106_2 + 0x17
	.byte	PATT
	 .word	seq_106_2 + 0x21
	.byte	PATT
	 .word	seq_106_2 + 0x17
	.byte	PATT
	 .word	seq_106_2 + 0x2F
	.byte	PATT
	 .word	seq_106_2 + 0x17
	.byte	PATT
	 .word	seq_106_2 + 0x21
	.byte	PATT
	 .word	seq_106_2 + 0x17
	.byte	PATT
	 .word	seq_106_2 + 0x2F
	.byte	PATT
	 .word	seq_106_2 + 0x17
	.byte	PATT
	 .word	seq_106_2 + 0x21
	.byte	PATT
	 .word	seq_106_2 + 0x17
	.byte	PATT
	 .word	seq_106_2 + 0x2F
	.byte	PATT
	 .word	seq_106_2 + 0x17
	.byte	PATT
	 .word	seq_106_2 + 0x21
	.byte	PATT
	 .word	seq_106_2 + 0x17
	.byte	PATT
	 .word	seq_106_2 + 0x2F
	.byte	GOTO
	 .word	seq_106_2 + 0x17
	.byte W96, W96
	.byte	FINE

@*********************** Track 04 ***********************@

seq_106_3:
	.byte	KEYSH , seq_106_key+0
	.byte	W06
	.byte		VOICE , 6
	.byte	W01
	.byte		VOL   , 85*seq_106_mvl/mxv
	.byte	W01
	.byte		PAN   , c_v+0
	.byte	W01
	.byte		LFOS  , 20
	.byte	W01
	.byte		MODT  , mod_pan
	.byte	W01
	.byte		LFODL , 0
	.byte	W13
	.byte	W96
	.byte	W96
	.byte	W96
	.byte	W96
	.byte	W96
	.byte	W96
	.byte	W96
	.byte	W96
	.byte	W96
	.byte	W96
	.byte	W96
	.byte	W96
	.byte		N03   , Fn4 , v120
	.byte	W03
	.byte		        Fn5 , v060
	.byte	W03
	.byte		        Ds4 , v120
	.byte	W03
	.byte		        Ds5 , v060
	.byte	W03
	.byte		        Cs4 , v120
	.byte	W03
	.byte		        Cs5 , v060
	.byte	W03
	.byte		        As3 , v100
	.byte	W03
	.byte		        As4 , v040
	.byte	W03
	.byte		        Fs3 , v100
	.byte	W03
	.byte		        Fs4 , v040
	.byte	W09
	.byte		        Fs3 
	.byte	W03
	.byte		        Fs4 , v020
	.byte	W56
	.byte	W01
	.byte	PEND
	.byte		        Ds3 , v120
	.byte	W03
	.byte		        Ds4 , v060
	.byte	W03
	.byte		        Fn3 , v120
	.byte	W03
	.byte		        Fn4 , v060
	.byte	W03
	.byte		        Gs3 , v100
	.byte	W03
	.byte		        Gs4 , v040
	.byte	W03
	.byte		        Cn4 , v120
	.byte	W03
	.byte		        Cn5 , v060
	.byte	W03
	.byte		        Ds4 , v100
	.byte	W03
	.byte		        Ds5 , v040
	.byte	W09
	.byte		        Ds4 
	.byte	W03
	.byte		        Ds5 , v020
	.byte	W56
	.byte	W01
	.byte	PATT
	 .word	seq_106_3 + 0x21
	.byte		N03   , Ds3 , v120
	.byte	W03
	.byte		        Ds4 , v060
	.byte	W03
	.byte		        Fn3 , v120
	.byte	W03
	.byte		        Fn4 , v060
	.byte	W03
	.byte		        Gs3 , v100
	.byte	W03
	.byte		        Gs4 , v040
	.byte	W03
	.byte		        Cn4 , v120
	.byte	W03
	.byte		        Cn5 , v060
	.byte	W03
	.byte		        Gs4 , v100
	.byte	W03
	.byte		        Gs5 , v040
	.byte	W09
	.byte		        Gs4 
	.byte	W03
	.byte		        Gs5 , v020
	.byte	W56
	.byte	W01
	.byte	W36
	.byte		N03   , Fn4 , v120
	.byte	W03
	.byte		        Fn5 , v060
	.byte	W03
	.byte		        Ds4 , v120
	.byte	W03
	.byte		        Ds5 , v060
	.byte	W03
	.byte		        Cs4 , v120
	.byte	W03
	.byte		        Cs5 , v060
	.byte	W03
	.byte		        As3 , v100
	.byte	W03
	.byte		        As4 , v040
	.byte	W03
	.byte		        Fs3 , v100
	.byte	W03
	.byte		        Fs4 , v040
	.byte	W09
	.byte		        Fs3 
	.byte	W03
	.byte		        Fs4 , v020
	.byte	W09
	.byte		        Fs3 , v040
	.byte	W03
	.byte		        Fs4 , v020
	.byte	W09
	.byte	PEND
	.byte	W36
	.byte		        Ds3 , v120
	.byte	W03
	.byte		        Ds4 , v060
	.byte	W03
	.byte		        Fn3 , v120
	.byte	W03
	.byte		        Fn4 , v060
	.byte	W03
	.byte		        Gs3 , v100
	.byte	W03
	.byte		        Gs4 , v040
	.byte	W03
	.byte		        Cn4 , v120
	.byte	W03
	.byte		        Cn5 , v060
	.byte	W03
	.byte		        Ds4 , v100
	.byte	W03
	.byte		        Ds5 , v040
	.byte	W09
	.byte		        Ds4 
	.byte	W03
	.byte		        Ds5 , v020
	.byte	W09
	.byte		        Ds4 , v040
	.byte	W03
	.byte		        Ds5 , v020
	.byte	W09
	.byte	PATT
	 .word	seq_106_3 + 0x95
	.byte	W36
	.byte		N03   , Ds3 , v120
	.byte	W03
	.byte		        Ds4 , v060
	.byte	W03
	.byte		        Fn3 , v120
	.byte	W03
	.byte		        Fn4 , v060
	.byte	W03
	.byte		        Gs3 , v100
	.byte	W03
	.byte		        Gs4 , v040
	.byte	W03
	.byte		        Cn4 , v120
	.byte	W03
	.byte		        Cn5 , v060
	.byte	W03
	.byte		        Gs4 , v100
	.byte	W03
	.byte		        Gs5 , v040
	.byte	W09
	.byte		        Gs4 
	.byte	W03
	.byte		        Gs5 , v020
	.byte	W09
	.byte		        Gs4 , v040
	.byte	W03
	.byte		        Gs5 , v020
	.byte	W09
	.byte	GOTO
	 .word	seq_106_3 + 0x15
	.byte W96, W96
	.byte	FINE

@*********************** Track 05 ***********************@

seq_106_4:
	.byte	KEYSH , seq_106_key+0
	.byte	W06
	.byte		VOICE , 59
	.byte	W01
	.byte		VOL   , 28*seq_106_mvl/mxv
	.byte	W01
	.byte		PAN   , c_v+0
	.byte	W01
	.byte		LFOS  , 15
	.byte	W01
	.byte		MODT  , mod_pan
	.byte	W01
	.byte		LFODL , 0
	.byte	W01
	.byte		MOD   , 120
	.byte	W12
	.byte	W24
	.byte		N24   , Fn3 , v120
	.byte	W24
	.byte		        Cs4 
	.byte	W24
	.byte		        As3 
	.byte	W24
	.byte	PEND
	.byte		N72   , Cn4 , v120
	.byte	W72
	.byte		N24   , Cn4 , v040
	.byte	W24
	.byte	PEND
	.byte	PATT
	 .word	seq_106_4 + 0x18
	.byte		N72   , Gs3 , v120
	.byte	W72
	.byte		N24   , Gs3 , v040
	.byte	W24
	.byte	PEND
	.byte	PATT
	 .word	seq_106_4 + 0x18
	.byte	PATT
	 .word	seq_106_4 + 0x22
	.byte	PATT
	 .word	seq_106_4 + 0x18
	.byte	PATT
	 .word	seq_106_4 + 0x30
	.byte	PATT
	 .word	seq_106_4 + 0x18
	.byte	PATT
	 .word	seq_106_4 + 0x22
	.byte	PATT
	 .word	seq_106_4 + 0x18
	.byte	PATT
	 .word	seq_106_4 + 0x30
	.byte	PATT
	 .word	seq_106_4 + 0x18
	.byte	PATT
	 .word	seq_106_4 + 0x22
	.byte	PATT
	 .word	seq_106_4 + 0x18
	.byte	PATT
	 .word	seq_106_4 + 0x30
	.byte	PATT
	 .word	seq_106_4 + 0x18
	.byte	PATT
	 .word	seq_106_4 + 0x22
	.byte	PATT
	 .word	seq_106_4 + 0x18
	.byte	PATT
	 .word	seq_106_4 + 0x30
	.byte	GOTO
	 .word	seq_106_4 + 0x18
	.byte W96, W96
	.byte	FINE

@*********************** Track 06 ***********************@

seq_106_5:
	.byte	KEYSH , seq_106_key+0
	.byte	W06
	.byte		VOICE , 56
	.byte	W01
	.byte		VOL   , 35*seq_106_mvl/mxv
	.byte	W01
	.byte		PAN   , c_v+0
	.byte	W01
	.byte		LFOS  , 20
	.byte	W01
	.byte		MODT  , mod_vib
	.byte	W01
	.byte		LFODL , 60
	.byte	W01
	.byte		BENDR , 6
	.byte	W01
	.byte		MOD   , 6
	.byte	W01
	.byte		BEND  , c_v-56
	.byte	W10
	.byte		N24   , Gs1 , v120
	.byte	W01
	.byte		BEND  , c_v-45
	.byte	W01
	.byte		        c_v-40
	.byte	W01
	.byte		        c_v-35
	.byte	W01
	.byte		        c_v-24
	.byte	W01
	.byte		        c_v-18
	.byte	W01
	.byte		        c_v-12
	.byte	W02
	.byte		        c_v+0
	.byte	W16
	.byte		N12   , Gs1 , v060
	.byte	W12
	.byte		N06   , Gs1 , v120
	.byte	W06
	.byte		N18   , Gs0 
	.byte	W18
	.byte		N12   , Gs0 , v080
	.byte	W12
	.byte		        Gs0 , v060
	.byte	W12
	.byte		        Gs0 , v040
	.byte	W11
	.byte		BEND  , c_v-56
	.byte	W01
	.byte	PEND
	.byte		N24   , As1 , v120
	.byte	W01
	.byte		BEND  , c_v-45
	.byte	W01
	.byte		        c_v-40
	.byte	W01
	.byte		        c_v-35
	.byte	W01
	.byte		        c_v-24
	.byte	W01
	.byte		        c_v-18
	.byte	W01
	.byte		        c_v-12
	.byte	W02
	.byte		        c_v+0
	.byte	W16
	.byte		N12   , As1 , v060
	.byte	W12
	.byte		N06   , As1 , v120
	.byte	W06
	.byte		N18   , As0 
	.byte	W18
	.byte		N12   , As0 , v080
	.byte	W12
	.byte		        As0 , v060
	.byte	W12
	.byte		        As0 , v040
	.byte	W11
	.byte		BEND  , c_v-56
	.byte	W01
	.byte	PEND
	.byte	PATT
	 .word	seq_106_5 + 0x1E
	.byte		N24   , As1 , v120
	.byte	W01
	.byte		BEND  , c_v-45
	.byte	W01
	.byte		        c_v-40
	.byte	W01
	.byte		        c_v-35
	.byte	W01
	.byte		        c_v-24
	.byte	W01
	.byte		        c_v-18
	.byte	W01
	.byte		        c_v-12
	.byte	W02
	.byte		        c_v+0
	.byte	W16
	.byte		N12   , As1 , v060
	.byte	W12
	.byte		N06   , As1 , v120
	.byte	W06
	.byte		N18   , As0 
	.byte	W18
	.byte		N12   , As0 , v080
	.byte	W12
	.byte		        As0 , v060
	.byte	W12
	.byte		        As0 , v040
	.byte	W12
	.byte	PEND
	.byte	PATT
	 .word	seq_106_5 + 0x1E
	.byte	PATT
	 .word	seq_106_5 + 0x4A
	.byte	PATT
	 .word	seq_106_5 + 0x1E
	.byte	PATT
	 .word	seq_106_5 + 0x7B
	.byte	PATT
	 .word	seq_106_5 + 0x1E
	.byte	PATT
	 .word	seq_106_5 + 0x4A
	.byte	PATT
	 .word	seq_106_5 + 0x1E
	.byte	PATT
	 .word	seq_106_5 + 0x7B
	.byte	PATT
	 .word	seq_106_5 + 0x1E
	.byte	PATT
	 .word	seq_106_5 + 0x4A
	.byte	PATT
	 .word	seq_106_5 + 0x1E
	.byte	PATT
	 .word	seq_106_5 + 0x7B
	.byte	PATT
	 .word	seq_106_5 + 0x1E
	.byte	PATT
	 .word	seq_106_5 + 0x4A
	.byte	PATT
	 .word	seq_106_5 + 0x1E
	.byte	PATT
	 .word	seq_106_5 + 0x4A
	.byte	GOTO
	 .word	seq_106_5 + 0x1E
	.byte W96, W96
	.byte	FINE

@*********************** Track 07 ***********************@

seq_106_6:
	.byte	KEYSH , seq_106_key+0
	.byte	W12
	.byte		VOICE , 120
	.byte	W01
	.byte		VOL   , 90*seq_106_mvl/mxv
	.byte	W01
	.byte		PAN   , c_v+0
	.byte	W10
	.byte	W24
	.byte		N06   , Cn4 , v120
	.byte	W23
	.byte		PAN   , c_v+36
	.byte	W01
	.byte		N24   , Gn1 
	.byte	W48
	.byte	W23
	.byte		PAN   , c_v+0
	.byte	W01
	.byte		N06   , Cn4 , v120
	.byte	W23
	.byte		PAN   , c_v-34
	.byte	W01
	.byte		N24   , Gn1 
	.byte	W48
	.byte	PEND
	.byte	W23
	.byte		PAN   , c_v+0
	.byte	W01
	.byte		N06   , Cn4 , v120
	.byte	W23
	.byte		PAN   , c_v+36
	.byte	W01
	.byte		N24   , Gn1 
	.byte	W48
	.byte	PEND
	.byte	PATT
	 .word	seq_106_6 + 0x17
	.byte	PATT
	 .word	seq_106_6 + 0x26
	.byte	PATT
	 .word	seq_106_6 + 0x17
	.byte	PATT
	 .word	seq_106_6 + 0x26
	.byte	PATT
	 .word	seq_106_6 + 0x17
	.byte	PATT
	 .word	seq_106_6 + 0x26
	.byte	PATT
	 .word	seq_106_6 + 0x17
	.byte	PATT
	 .word	seq_106_6 + 0x26
	.byte	PATT
	 .word	seq_106_6 + 0x17
	.byte	PATT
	 .word	seq_106_6 + 0x26
	.byte	PATT
	 .word	seq_106_6 + 0x17
	.byte	PATT
	 .word	seq_106_6 + 0x26
	.byte	PATT
	 .word	seq_106_6 + 0x17
	.byte	PATT
	 .word	seq_106_6 + 0x26
	.byte	PATT
	 .word	seq_106_6 + 0x17
	.byte	PATT
	 .word	seq_106_6 + 0x26
	.byte	W23
	.byte		PAN   , c_v+0
	.byte	W01
	.byte		N06   , Cn4 , v120
	.byte	W23
	.byte		PAN   , c_v-34
	.byte	W01
	.byte		N24   , Gn1 
	.byte	W44
	.byte	W03
	.byte		PAN   , c_v+0
	.byte	W01
	.byte	GOTO
	 .word	seq_106_6 + 0xC
	.byte W96, W96
	.byte	FINE

@*********************** Track 08 ***********************@

seq_106_7:
	.byte	KEYSH , seq_106_key+0
	.byte	W12
	.byte		VOICE , 104
	.byte	W01
	.byte		VOL   , 90*seq_106_mvl/mxv
	.byte	W01
	.byte		PAN   , c_v+0
	.byte	W01
	.byte		LFOS  , 20
	.byte	W01
	.byte		MODT  , mod_vib
	.byte	W01
	.byte		BENDR , 6
	.byte	W06
	.byte		BEND  , c_v-56
	.byte	W01
	.byte		N12   , Gs1 , v120
	.byte	W01
	.byte		BEND  , c_v-45
	.byte	W01
	.byte		        c_v-40
	.byte	W01
	.byte		        c_v-35
	.byte	W01
	.byte		        c_v-24
	.byte	W01
	.byte		        c_v-18
	.byte	W01
	.byte		        c_v-12
	.byte	W02
	.byte		        c_v+0
	.byte	W04
	.byte		N12   , Gs1 , v080
	.byte	W12
	.byte		        Gs1 , v040
	.byte	W12
	.byte		N06   , Gs1 , v120
	.byte	W56
	.byte	W03
	.byte		BEND  , c_v-56
	.byte	W01
	.byte	PEND
	.byte		N12   , As1 , v120
	.byte	W01
	.byte		BEND  , c_v-45
	.byte	W01
	.byte		        c_v-40
	.byte	W01
	.byte		        c_v-35
	.byte	W01
	.byte		        c_v-24
	.byte	W01
	.byte		        c_v-18
	.byte	W01
	.byte		        c_v-12
	.byte	W02
	.byte		        c_v+0
	.byte	W04
	.byte		N12   , As1 , v080
	.byte	W12
	.byte		        As1 , v040
	.byte	W12
	.byte		N06   , As1 , v120
	.byte	W56
	.byte	W03
	.byte		BEND  , c_v-56
	.byte	W01
	.byte	PEND
	.byte	PATT
	 .word	seq_106_7 + 0x18
	.byte	PATT
	 .word	seq_106_7 + 0x3B
	.byte	PATT
	 .word	seq_106_7 + 0x18
	.byte	PATT
	 .word	seq_106_7 + 0x3B
	.byte	PATT
	 .word	seq_106_7 + 0x18
	.byte	PATT
	 .word	seq_106_7 + 0x3B
	.byte	PATT
	 .word	seq_106_7 + 0x18
	.byte	PATT
	 .word	seq_106_7 + 0x3B
	.byte	PATT
	 .word	seq_106_7 + 0x18
	.byte	PATT
	 .word	seq_106_7 + 0x3B
	.byte	PATT
	 .word	seq_106_7 + 0x18
	.byte	PATT
	 .word	seq_106_7 + 0x3B
	.byte	PATT
	 .word	seq_106_7 + 0x18
	.byte	PATT
	 .word	seq_106_7 + 0x3B
	.byte	PATT
	 .word	seq_106_7 + 0x18
	.byte	PATT
	 .word	seq_106_7 + 0x3B
	.byte	PATT
	 .word	seq_106_7 + 0x18
	.byte	PATT
	 .word	seq_106_7 + 0x3B
	.byte	GOTO
	 .word	seq_106_7 + 0x18
	.byte W96, W96
	.byte	FINE

@*********************** Track 09 ***********************@

seq_106_8:
	.byte	KEYSH , seq_106_key+0
	.byte	W12
	.byte		VOICE , 74
	.byte	W01
	.byte		VOL   , 49*seq_106_mvl/mxv
	.byte	W01
	.byte		PAN   , c_v-64
	.byte	W10
	.byte		N03   , Fn5 , v120
	.byte	W05
	.byte		N07   , Fn5 , v060
	.byte	W06
	.byte		PAN   , c_v+0
	.byte	W01
	.byte		N03   , Cs5 , v080
	.byte	W05
	.byte		N07   , Cs5 , v060
	.byte	W06
	.byte		PAN   , c_v+63
	.byte	W01
	.byte		N03   , As4 , v120
	.byte	W05
	.byte		N07   , As4 , v060
	.byte	W06
	.byte		PAN   , c_v+0
	.byte	W01
	.byte		N03   , Fs4 , v080
	.byte	W05
	.byte		N07   , Fs4 , v060
	.byte	W06
	.byte		PAN   , c_v-64
	.byte	W01
	.byte		N03   , Fn5 , v120
	.byte	W05
	.byte		N07   , Fn5 , v060
	.byte	W06
	.byte		PAN   , c_v+0
	.byte	W01
	.byte		N03   , Cs5 , v080
	.byte	W05
	.byte		N07   , Cs5 , v060
	.byte	W06
	.byte		PAN   , c_v+63
	.byte	W01
	.byte		N03   , As4 , v120
	.byte	W05
	.byte		N07   , As4 , v060
	.byte	W06
	.byte		PAN   , c_v+0
	.byte	W01
	.byte		N03   , Fs4 , v080
	.byte	W05
	.byte		N07   , Fs4 , v060
	.byte	W06
	.byte		PAN   , c_v-64
	.byte	W01
	.byte	PEND
	.byte		N03   , Ds5 , v120
	.byte	W05
	.byte		N07   , Ds5 , v060
	.byte	W06
	.byte		PAN   , c_v+0
	.byte	W01
	.byte		N03   , Cn5 , v080
	.byte	W05
	.byte		N07   , Cn5 , v060
	.byte	W06
	.byte		PAN   , c_v+63
	.byte	W01
	.byte		N03   , Gs4 , v120
	.byte	W05
	.byte		N07   , Gs4 , v060
	.byte	W06
	.byte		PAN   , c_v+0
	.byte	W01
	.byte		N03   , Fn4 , v080
	.byte	W05
	.byte		N07   , Fn4 , v060
	.byte	W06
	.byte		PAN   , c_v-64
	.byte	W01
	.byte		N03   , Ds5 , v120
	.byte	W05
	.byte		N07   , Ds5 , v060
	.byte	W06
	.byte		PAN   , c_v+0
	.byte	W01
	.byte		N03   , Cn5 , v080
	.byte	W05
	.byte		N07   , Cn5 , v060
	.byte	W06
	.byte		PAN   , c_v+63
	.byte	W01
	.byte		N03   , Gs4 , v120
	.byte	W05
	.byte		N07   , Gs4 , v060
	.byte	W06
	.byte		PAN   , c_v+0
	.byte	W01
	.byte		N03   , Fn4 , v080
	.byte	W05
	.byte		N07   , Fn4 , v060
	.byte	W06
	.byte		PAN   , c_v-64
	.byte	W01
	.byte	PEND
	.byte	PATT
	 .word	seq_106_8 + 0xC
	.byte	PATT
	 .word	seq_106_8 + 0x65
	.byte	PATT
	 .word	seq_106_8 + 0xC
	.byte	PATT
	 .word	seq_106_8 + 0x65
	.byte	PATT
	 .word	seq_106_8 + 0xC
	.byte	PATT
	 .word	seq_106_8 + 0x65
	.byte	PATT
	 .word	seq_106_8 + 0xC
	.byte	PATT
	 .word	seq_106_8 + 0x65
	.byte	PATT
	 .word	seq_106_8 + 0xC
	.byte	PATT
	 .word	seq_106_8 + 0x65
	.byte	PATT
	 .word	seq_106_8 + 0xC
	.byte	PATT
	 .word	seq_106_8 + 0x65
	.byte	PATT
	 .word	seq_106_8 + 0xC
	.byte	PATT
	 .word	seq_106_8 + 0x65
	.byte	PATT
	 .word	seq_106_8 + 0xC
	.byte	PATT
	 .word	seq_106_8 + 0x65
	.byte	PATT
	 .word	seq_106_8 + 0xC
	.byte	PATT
	 .word	seq_106_8 + 0x65
	.byte	GOTO
	 .word	seq_106_8 + 0xC
	.byte W96, W96
	.byte	FINE

@*********************** Track 10 ***********************@

seq_106_9:
	.byte	KEYSH , seq_106_key+0
	.byte	W18
	.byte		VOICE , 88
	.byte	W01
	.byte		VOL   , 42*seq_106_mvl/mxv
	.byte	W01
	.byte		PAN   , c_v-64
	.byte	W04
	.byte	W01
	.byte		N03   , Fn4 , v120
	.byte	W05
	.byte		N07   , As4 , v060
	.byte	W05
	.byte		PAN   , c_v+0
	.byte	W02
	.byte		N03   , Cs4 , v080
	.byte	W05
	.byte		N07   , Fn4 , v060
	.byte	W05
	.byte		PAN   , c_v+63
	.byte	W02
	.byte		N03   , As3 , v120
	.byte	W05
	.byte		N07   , Cs4 , v060
	.byte	W05
	.byte		PAN   , c_v+0
	.byte	W02
	.byte		N03   , Fs3 , v080
	.byte	W05
	.byte		N07   , As3 , v060
	.byte	W05
	.byte		PAN   , c_v-64
	.byte	W02
	.byte		N03   , Fn4 , v120
	.byte	W05
	.byte		N07   , As4 , v060
	.byte	W05
	.byte		PAN   , c_v+0
	.byte	W02
	.byte		N03   , Cs4 , v080
	.byte	W05
	.byte		N07   , Fn4 , v060
	.byte	W05
	.byte		PAN   , c_v+63
	.byte	W02
	.byte		N03   , As3 , v120
	.byte	W05
	.byte		N07   , Cs4 , v060
	.byte	W05
	.byte		PAN   , c_v+0
	.byte	W02
	.byte		N03   , Fs3 , v080
	.byte	W05
	.byte		N07   , As3 , v060
	.byte	W05
	.byte		PAN   , c_v-64
	.byte	W01
	.byte	PEND
	.byte	W01
	.byte		N03   , Ds4 , v120
	.byte	W05
	.byte		N07   , Gs4 , v060
	.byte	W05
	.byte		PAN   , c_v+0
	.byte	W02
	.byte		N03   , Cn4 , v080
	.byte	W05
	.byte		N07   , Fn4 , v060
	.byte	W05
	.byte		PAN   , c_v+63
	.byte	W02
	.byte		N03   , Gs3 , v120
	.byte	W05
	.byte		N07   , Cn4 , v060
	.byte	W05
	.byte		PAN   , c_v+0
	.byte	W02
	.byte		N03   , Fn3 , v080
	.byte	W05
	.byte		N07   , Gs3 , v060
	.byte	W05
	.byte		PAN   , c_v-64
	.byte	W02
	.byte		N03   , Ds4 , v120
	.byte	W05
	.byte		N07   , Gs4 , v060
	.byte	W05
	.byte		PAN   , c_v+0
	.byte	W02
	.byte		N03   , Cn4 , v080
	.byte	W05
	.byte		N07   , Fn4 , v060
	.byte	W05
	.byte		PAN   , c_v+63
	.byte	W02
	.byte		N03   , Gs3 , v120
	.byte	W05
	.byte		N07   , Cn4 , v060
	.byte	W05
	.byte		PAN   , c_v+0
	.byte	W02
	.byte		N03   , Fn3 , v080
	.byte	W05
	.byte		N07   , Gs3 , v060
	.byte	W05
	.byte		PAN   , c_v-64
	.byte	W01
	.byte	PEND
	.byte	PATT
	 .word	seq_106_9 + 0xC
	.byte	PATT
	 .word	seq_106_9 + 0x66
	.byte	PATT
	 .word	seq_106_9 + 0xC
	.byte	PATT
	 .word	seq_106_9 + 0x66
	.byte	PATT
	 .word	seq_106_9 + 0xC
	.byte	PATT
	 .word	seq_106_9 + 0x66
	.byte	PATT
	 .word	seq_106_9 + 0xC
	.byte	PATT
	 .word	seq_106_9 + 0x66
	.byte	PATT
	 .word	seq_106_9 + 0xC
	.byte	PATT
	 .word	seq_106_9 + 0x66
	.byte	PATT
	 .word	seq_106_9 + 0xC
	.byte	PATT
	 .word	seq_106_9 + 0x66
	.byte	PATT
	 .word	seq_106_9 + 0xC
	.byte	PATT
	 .word	seq_106_9 + 0x66
	.byte	PATT
	 .word	seq_106_9 + 0xC
	.byte	PATT
	 .word	seq_106_9 + 0x66
	.byte	PATT
	 .word	seq_106_9 + 0xC
	.byte	PATT
	 .word	seq_106_9 + 0x66
	.byte	GOTO
	 .word	seq_106_9 + 0xC
	.byte W96, W96
	.byte	FINE

@******************************************************@

	.align	2

seq_106:
	.byte	10	@ NumTrks
	.byte	0	@ NumBlks
	.byte	seq_106_pri	@ Priority
	.byte	seq_106_rev	@ Reverb

	.word	seq_106_grp

	.word	seq_106_0
	.word	seq_106_1
	.word	seq_106_2
	.word	seq_106_3
	.word	seq_106_4
	.word	seq_106_5
	.word	seq_106_6
	.word	seq_106_7
	.word	seq_106_8
	.word	seq_106_9

	.end
