@ File generated by m4a2s Song-Module
	.include "MPlayDef.s"

	.equ	seq_115_grp, bank_014
	.equ	seq_115_pri, 50
	.equ	seq_115_rev, 198
	.equ	seq_115_mvl, 127
	.equ	seq_115_key, 0

	.section .rodata
	.global	seq_115
	.align	2

@*********************** Track 01 ***********************@

seq_115_0:
	.byte	KEYSH , seq_115_key+0
	.byte	TEMPO , 240/2
	.byte		VOICE , 127
	.byte	W01
	.byte		VOL   , 75*seq_115_mvl/mxv
	.byte	W01
	.byte		PAN   , c_v+0
	.byte	W10
	.byte	TEMPO , 94/2
	.byte	W12
	.byte	W12
	.byte		N03   , Ds6 , v100
	.byte	W06
	.byte		N02   , Dn6 , v060
	.byte	W02
	.byte		        Dn6 , v080
	.byte	W02
	.byte		        Dn6 , v100
	.byte	W02
	.byte		N03   , Dn6 , v120
	.byte	W18
	.byte		N02   , Ds6 , v060
	.byte	W02
	.byte		        Ds6 , v080
	.byte	W02
	.byte		        Ds6 , v100
	.byte	W02
	.byte		        Gs5 , v060
	.byte	W12
	.byte		N03   , Dn6 , v120
	.byte	W12
	.byte	TEMPO , 92/2
	.byte		        Fs5 , v080
	.byte	W12
	.byte		        Cs6 , v120
	.byte	W12
	.byte	TEMPO , 94/2
	.byte		N03   , Cn7 , v120
	.byte	W12
	.byte		        Ds6 , v100
	.byte	W12
	.byte		        Dn6 , v120
	.byte	W24
	.byte		        Gs5 , v060
	.byte	W12
	.byte		        Dn6 , v120
	.byte	W24
	.byte		        En6 , v080
	.byte	W12
	.byte	W12
	.byte		N03   , Ds6 , v100
	.byte	W12
	.byte		        Dn6 , v120
	.byte	W24
	.byte		        As5 , v100
	.byte	W12
	.byte		        Dn6 , v120
	.byte	W12
	.byte		        Fs5 , v060
	.byte	W24
	.byte	PEND
	.byte		N03   , Cn7 , v120
	.byte	W12
	.byte		        Ds6 , v100
	.byte	W12
	.byte		        Dn6 , v120
	.byte	W24
	.byte		        Gs5 , v060
	.byte	W12
	.byte		        Dn6 , v120
	.byte	W24
	.byte		        En6 , v080
	.byte	W12
	.byte	PEND
	.byte	PATT
	 .word	seq_115_0 + 0x51
	.byte	PATT
	 .word	seq_115_0 + 0x63
	.byte	PATT
	 .word	seq_115_0 + 0x51
	.byte	PATT
	 .word	seq_115_0 + 0x63
	.byte	PATT
	 .word	seq_115_0 + 0x51
	.byte	PATT
	 .word	seq_115_0 + 0x63
	.byte	PATT
	 .word	seq_115_0 + 0x51
	.byte	PATT
	 .word	seq_115_0 + 0x63
	.byte	PATT
	 .word	seq_115_0 + 0x51
	.byte	PATT
	 .word	seq_115_0 + 0x63
	.byte	PATT
	 .word	seq_115_0 + 0x51
	.byte	PATT
	 .word	seq_115_0 + 0x63
	.byte	PATT
	 .word	seq_115_0 + 0x51
	.byte	PATT
	 .word	seq_115_0 + 0x63
	.byte	PATT
	 .word	seq_115_0 + 0x51
	.byte	PATT
	 .word	seq_115_0 + 0x63
	.byte	PATT
	 .word	seq_115_0 + 0x51
	.byte	PATT
	 .word	seq_115_0 + 0x63
	.byte	PATT
	 .word	seq_115_0 + 0x51
	.byte	PATT
	 .word	seq_115_0 + 0x63
	.byte	PATT
	 .word	seq_115_0 + 0x51
	.byte	PATT
	 .word	seq_115_0 + 0x63
	.byte	PATT
	 .word	seq_115_0 + 0x51
	.byte	PATT
	 .word	seq_115_0 + 0x63
	.byte	PATT
	 .word	seq_115_0 + 0x51
	.byte	PATT
	 .word	seq_115_0 + 0x63
	.byte	PATT
	 .word	seq_115_0 + 0x51
	.byte	PATT
	 .word	seq_115_0 + 0x63
	.byte	PATT
	 .word	seq_115_0 + 0x51
	.byte	TEMPO , 92/2
	.byte	W12
	.byte		N03   , Ds6 , v100
	.byte	W06
	.byte		N02   , Dn6 , v060
	.byte	W02
	.byte		        Dn6 , v080
	.byte	W02
	.byte		        Dn6 , v100
	.byte	W02
	.byte	TEMPO , 94/2
	.byte		N03   , Dn6 , v120
	.byte	W18
	.byte		N02   , Ds6 , v060
	.byte	W02
	.byte		        Ds6 , v080
	.byte	W02
	.byte		        Ds6 , v100
	.byte	W02
	.byte	TEMPO , 96/2
	.byte		        Gs5 
	.byte	W12
	.byte		N03   , Dn6 , v120
	.byte	W12
	.byte		        Fs5 , v080
	.byte	W12
	.byte		        Cs6 , v120
	.byte	W12
	.byte	GOTO
	 .word	seq_115_0 + 0x3C
	.byte	FINE

@*********************** Track 02 ***********************@

seq_115_1:
	.byte	KEYSH , seq_115_key+0
	.byte		VOICE , 6
	.byte	W01
	.byte		VOL   , 62*seq_115_mvl/mxv
	.byte	W01
	.byte		PAN   , c_v+0
	.byte	W01
	.byte		LFOS  , 40
	.byte	W01
	.byte		MODT  , mod_pan
	.byte	W01
	.byte		LFODL , 0
	.byte	W19
	.byte	W11
	.byte		MOD   , 120
	.byte	W01
	.byte		N06   , Dn3 , v100
	.byte	W06
	.byte		        Dn3 , v040
	.byte	W05
	.byte		MOD   , 0
	.byte	W01
	.byte		N06   , Gn3 , v120
	.byte	W06
	.byte		        Gn3 , v040
	.byte	W05
	.byte		MOD   , 120
	.byte	W01
	.byte		N06   , Dn4 , v100
	.byte	W06
	.byte		        Dn4 , v040
	.byte	W05
	.byte		MOD   , 0
	.byte	W01
	.byte		N06   , An3 , v120
	.byte	W06
	.byte		        An3 , v040
	.byte	W05
	.byte		MOD   , 120
	.byte	W01
	.byte		N06   , En4 , v100
	.byte	W06
	.byte		        En4 , v040
	.byte	W05
	.byte		MOD   , 0
	.byte	W01
	.byte		N06   , Bn4 , v120
	.byte	W06
	.byte		        Bn4 , v040
	.byte	W06
	.byte		        Fs5 , v080
	.byte	W06
	.byte		        Fs5 , v040
	.byte	W04
	.byte		VOICE , 52
	.byte	W01
	.byte		MOD   , 60
	.byte	W01
	.byte		N12   , An5 , v120
	.byte	W12
	.byte		        An5 , v040
	.byte	W12
	.byte		        En5 , v100
	.byte	W12
	.byte		        En5 , v040
	.byte	W12
	.byte		        Cs5 , v120
	.byte	W12
	.byte		        Cs5 , v040
	.byte	W12
	.byte		        An4 , v100
	.byte	W12
	.byte		        An4 , v040
	.byte	W12
	.byte	PEND
	.byte		N06   , As4 , v120
	.byte	W06
	.byte		        Cn5 
	.byte	W06
	.byte		        Dn5 
	.byte	W12
	.byte		N12   , Cn5 
	.byte	W12
	.byte		        As4 
	.byte	W12
	.byte		        An4 
	.byte	W24
	.byte		        Gn4 
	.byte	W24
	.byte	PEND
	.byte		N12   , An4 , v100
	.byte	W12
	.byte		        An4 , v060
	.byte	W84
	.byte	PEND
	.byte	W96
	.byte	PATT
	 .word	seq_115_1 + 0x5D
	.byte		N06   , As4 , v120
	.byte	W06
	.byte		        Cn5 
	.byte	W06
	.byte		        Dn5 
	.byte	W12
	.byte		N12   , Cn5 
	.byte	W12
	.byte		        As4 
	.byte	W12
	.byte		        An4 
	.byte	W24
	.byte		        En5 
	.byte	W24
	.byte	PEND
	.byte		N12   , An5 , v120
	.byte	W12
	.byte		        An5 , v040
	.byte	W84
	.byte	PEND
	.byte	W96
	.byte	W96
	.byte	W96
	.byte	W48
	.byte		N02   , En4 , v120
	.byte	W03
	.byte		        En5 , v040
	.byte	W02
	.byte		        En4 , v020
	.byte	W42
	.byte	W01
	.byte		        Fn4 , v120
	.byte	W03
	.byte		        Fn5 , v040
	.byte	W02
	.byte		        Fn4 , v020
	.byte	W42
	.byte	W01
	.byte		        As4 , v120
	.byte	W03
	.byte		        As5 , v040
	.byte	W02
	.byte		        As4 , v020
	.byte	W42
	.byte	W01
	.byte		N12   , An4 , v120
	.byte	W96
	.byte	W96
	.byte	W44
	.byte	W02
	.byte		VOICE , 6
	.byte	W02
	.byte		N02   , En4 
	.byte	W03
	.byte		        En5 , v040
	.byte	W02
	.byte		        En4 , v020
	.byte	W42
	.byte	W01
	.byte		        Fn4 , v120
	.byte	W03
	.byte		        Fn5 , v040
	.byte	W02
	.byte		        Fn4 , v020
	.byte	W42
	.byte	W01
	.byte		        As4 , v120
	.byte	W03
	.byte		        As5 , v040
	.byte	W02
	.byte		        As4 , v020
	.byte	W40
	.byte	W01
	.byte		VOICE , 52
	.byte	W02
	.byte	PATT
	 .word	seq_115_1 + 0x5D
	.byte	PATT
	 .word	seq_115_1 + 0x77
	.byte	PATT
	 .word	seq_115_1 + 0x89
	.byte	W96
	.byte	PATT
	 .word	seq_115_1 + 0x5D
	.byte	PATT
	 .word	seq_115_1 + 0x97
	.byte	PATT
	 .word	seq_115_1 + 0xA9
	.byte	W96
	.byte	W23
	.byte		MOD   , 120
	.byte	W01
	.byte		N12   , Dn4 , v120
	.byte	W12
	.byte		        Dn4 , v040
	.byte	W11
	.byte		MOD   , 0
	.byte	W01
	.byte		N12   , Gn4 , v120
	.byte	W12
	.byte		        Gn4 , v040
	.byte	W11
	.byte		MOD   , 120
	.byte	W01
	.byte		N12   , Dn5 , v120
	.byte	W12
	.byte		        Dn5 , v040
	.byte	W11
	.byte		MOD   , 0
	.byte	W01
	.byte		N12   , Cs5 , v120
	.byte	W12
	.byte		        Cs5 , v040
	.byte	W36
	.byte		        An4 , v120
	.byte	W12
	.byte		        An4 , v040
	.byte	W05
	.byte		MOD   , 120
	.byte	W07
	.byte		N12   , Cs5 , v120
	.byte	W12
	.byte		        Cs5 , v040
	.byte	W11
	.byte		MOD   , 0
	.byte	W01
	.byte		N06   , Dn5 , v120
	.byte	W06
	.byte		        Dn5 , v060
	.byte	W06
	.byte		        Dn5 , v040
	.byte	W06
	.byte		        Dn5 , v020
	.byte	W78
	.byte	W96
	.byte	W23
	.byte		MOD   , 120
	.byte	W01
	.byte		N12   , Fn4 , v120
	.byte	W12
	.byte		        Fn4 , v040
	.byte	W11
	.byte		MOD   , 0
	.byte	W01
	.byte		N12   , Dn4 , v120
	.byte	W12
	.byte		        Dn4 , v040
	.byte	W11
	.byte		MOD   , 120
	.byte	W01
	.byte		N12   , As4 , v120
	.byte	W12
	.byte		        As4 , v040
	.byte	W11
	.byte		MOD   , 0
	.byte	W01
	.byte		N12   , Fs4 , v120
	.byte	W12
	.byte		        Fs4 , v040
	.byte	W36
	.byte		        Bn4 , v120
	.byte	W12
	.byte		        Bn4 , v040
	.byte	W05
	.byte		MOD   , 120
	.byte	W07
	.byte		N12   , Fs5 , v120
	.byte	W12
	.byte		        Fs5 , v040
	.byte	W11
	.byte		MOD   , 0
	.byte	W01
	.byte		N06   , En5 , v120
	.byte	W06
	.byte		        En5 , v060
	.byte	W06
	.byte		        En5 , v040
	.byte	W06
	.byte		        En5 , v020
	.byte	W78
	.byte	W96
	.byte	W11
	.byte		MOD   , 120
	.byte	W01
	.byte		N06   , Dn3 , v100
	.byte	W06
	.byte		        Dn3 , v040
	.byte	W05
	.byte		MOD   , 0
	.byte	W01
	.byte		N06   , Gn3 , v120
	.byte	W06
	.byte		        Gn3 , v040
	.byte	W05
	.byte		MOD   , 120
	.byte	W01
	.byte		N06   , Dn4 , v100
	.byte	W06
	.byte		        Dn4 , v040
	.byte	W05
	.byte		MOD   , 0
	.byte	W01
	.byte		N06   , An3 , v120
	.byte	W06
	.byte		        An3 , v040
	.byte	W05
	.byte		MOD   , 120
	.byte	W01
	.byte		N06   , En4 , v100
	.byte	W06
	.byte		        En4 , v040
	.byte	W05
	.byte		MOD   , 0
	.byte	W01
	.byte		N06   , Bn4 , v120
	.byte	W06
	.byte		        Bn4 , v040
	.byte	W06
	.byte		        Fs5 , v080
	.byte	W06
	.byte		        Fs5 , v040
	.byte	W04
	.byte		MOD   , 60
	.byte	W01
	.byte		VOICE , 52
	.byte	W01
	.byte	GOTO
	 .word	seq_115_1 + 0x5D
	.byte	FINE

@*********************** Track 03 ***********************@

seq_115_2:
	.byte	KEYSH , seq_115_key+0
	.byte		VOICE , 4
	.byte	W01
	.byte		VOL   , 12*seq_115_mvl/mxv
	.byte	W01
	.byte		PAN   , c_v-44
	.byte	W01
	.byte		LFOS  , 0
	.byte	W01
	.byte		MODT  , mod_vib
	.byte	W01
	.byte		LFODL , 0
	.byte	W19
	.byte		N96   , Dn1 , v120
	.byte	W06
	.byte		VOL   , 18*seq_115_mvl/mxv
	.byte	W12
	.byte		        25*seq_115_mvl/mxv
	.byte	W12
	.byte		        31*seq_115_mvl/mxv
	.byte	W11
	.byte		        37*seq_115_mvl/mxv
	.byte	W12
	.byte		        44*seq_115_mvl/mxv
	.byte	W12
	.byte		        50*seq_115_mvl/mxv
	.byte	W11
	.byte		        56*seq_115_mvl/mxv
	.byte	W04
	.byte		        50*seq_115_mvl/mxv
	.byte	W02
	.byte		        44*seq_115_mvl/mxv
	.byte	W03
	.byte		        37*seq_115_mvl/mxv
	.byte	W02
	.byte		        31*seq_115_mvl/mxv
	.byte	W02
	.byte		        25*seq_115_mvl/mxv
	.byte	W03
	.byte		        18*seq_115_mvl/mxv
	.byte	W02
	.byte		        12*seq_115_mvl/mxv
	.byte	W02
	.byte	W96
	.byte	W96
	.byte		N06   , Cs3 , v120
	.byte	W05
	.byte		VOL   , 18*seq_115_mvl/mxv
	.byte	W01
	.byte		N06   , Dn3 
	.byte	W06
	.byte		        Cs3 
	.byte	W06
	.byte		        Dn3 
	.byte	W03
	.byte		VOL   , 25*seq_115_mvl/mxv
	.byte	W03
	.byte		N06   , Cs3 
	.byte	W06
	.byte		        Dn3 
	.byte	W04
	.byte		VOL   , 31*seq_115_mvl/mxv
	.byte	W02
	.byte		N06   , Cs3 
	.byte	W04
	.byte		VOL   , 37*seq_115_mvl/mxv
	.byte	W02
	.byte		N06   , Dn3 
	.byte	W05
	.byte		VOL   , 44*seq_115_mvl/mxv
	.byte	W01
	.byte		N06   , Cs3 
	.byte	W06
	.byte		        Dn3 
	.byte	W01
	.byte		VOL   , 50*seq_115_mvl/mxv
	.byte	W03
	.byte		        56*seq_115_mvl/mxv
	.byte	W02
	.byte		N06   , Cs3 
	.byte	W03
	.byte		VOL   , 62*seq_115_mvl/mxv
	.byte	W03
	.byte		N06   , Dn3 
	.byte	W01
	.byte		VOL   , 56*seq_115_mvl/mxv
	.byte	W04
	.byte		        50*seq_115_mvl/mxv
	.byte	W01
	.byte		N06   , Cs3 
	.byte	W03
	.byte		VOL   , 44*seq_115_mvl/mxv
	.byte	W03
	.byte		N06   , Dn3 
	.byte	W01
	.byte		VOL   , 37*seq_115_mvl/mxv
	.byte	W03
	.byte		        31*seq_115_mvl/mxv
	.byte	W02
	.byte		N06   , Cs3 
	.byte	W03
	.byte		VOL   , 25*seq_115_mvl/mxv
	.byte	W03
	.byte		N06   , Dn3 
	.byte	W02
	.byte		VOL   , 18*seq_115_mvl/mxv
	.byte	W03
	.byte		        12*seq_115_mvl/mxv
	.byte	W01
	.byte	PEND
	.byte		N06   , En3 , v120
	.byte	W05
	.byte		VOL   , 18*seq_115_mvl/mxv
	.byte	W01
	.byte		N06   , Fn3 
	.byte	W06
	.byte		        En3 
	.byte	W06
	.byte		        Fn3 
	.byte	W03
	.byte		VOL   , 25*seq_115_mvl/mxv
	.byte	W03
	.byte		N06   , En3 
	.byte	W06
	.byte		        Fn3 
	.byte	W04
	.byte		VOL   , 31*seq_115_mvl/mxv
	.byte	W02
	.byte		N06   , En3 
	.byte	W04
	.byte		VOL   , 37*seq_115_mvl/mxv
	.byte	W02
	.byte		N06   , Fn3 
	.byte	W05
	.byte		VOL   , 44*seq_115_mvl/mxv
	.byte	W01
	.byte		N06   , En3 
	.byte	W06
	.byte		        Fn3 
	.byte	W01
	.byte		VOL   , 50*seq_115_mvl/mxv
	.byte	W03
	.byte		        56*seq_115_mvl/mxv
	.byte	W02
	.byte		N06   , En3 
	.byte	W03
	.byte		VOL   , 62*seq_115_mvl/mxv
	.byte	W03
	.byte		N06   , Fn3 
	.byte	W01
	.byte		VOL   , 56*seq_115_mvl/mxv
	.byte	W04
	.byte		        50*seq_115_mvl/mxv
	.byte	W01
	.byte		N06   , En3 
	.byte	W03
	.byte		VOL   , 44*seq_115_mvl/mxv
	.byte	W03
	.byte		N06   , Fn3 
	.byte	W01
	.byte		VOL   , 37*seq_115_mvl/mxv
	.byte	W03
	.byte		        31*seq_115_mvl/mxv
	.byte	W02
	.byte		N06   , En3 
	.byte	W03
	.byte		VOL   , 25*seq_115_mvl/mxv
	.byte	W03
	.byte		N06   , Fn3 
	.byte	W02
	.byte		VOL   , 18*seq_115_mvl/mxv
	.byte	W03
	.byte		        12*seq_115_mvl/mxv
	.byte	W01
	.byte	PEND
	.byte	W96
	.byte	W96
	.byte	PATT
	 .word	seq_115_2 + 0x37
	.byte	PATT
	 .word	seq_115_2 + 0x91
	.byte		N96   , En2 , v120
	.byte	W05
	.byte		VOL   , 18*seq_115_mvl/mxv
	.byte	W16
	.byte		        25*seq_115_mvl/mxv
	.byte	W13
	.byte		        31*seq_115_mvl/mxv
	.byte	W06
	.byte		        37*seq_115_mvl/mxv
	.byte	W07
	.byte		        44*seq_115_mvl/mxv
	.byte	W08
	.byte		        50*seq_115_mvl/mxv
	.byte	W03
	.byte		        56*seq_115_mvl/mxv
	.byte	W05
	.byte		        62*seq_115_mvl/mxv
	.byte	W04
	.byte		        56*seq_115_mvl/mxv
	.byte	W04
	.byte		        50*seq_115_mvl/mxv
	.byte	W04
	.byte		        44*seq_115_mvl/mxv
	.byte	W04
	.byte		        37*seq_115_mvl/mxv
	.byte	W03
	.byte		        31*seq_115_mvl/mxv
	.byte	W05
	.byte		        25*seq_115_mvl/mxv
	.byte	W05
	.byte		        18*seq_115_mvl/mxv
	.byte	W03
	.byte		        12*seq_115_mvl/mxv
	.byte	W01
	.byte	PEND
	.byte	W96
	.byte	PATT
	 .word	seq_115_2 + 0x37
	.byte	PATT
	 .word	seq_115_2 + 0x91
	.byte	PATT
	 .word	seq_115_2 + 0xF7
	.byte	W96
	.byte	PATT
	 .word	seq_115_2 + 0x37
	.byte	PATT
	 .word	seq_115_2 + 0x91
	.byte	W96
	.byte	W96
	.byte	PATT
	 .word	seq_115_2 + 0x37
	.byte	PATT
	 .word	seq_115_2 + 0x91
	.byte	W96
	.byte	W96
	.byte	PATT
	 .word	seq_115_2 + 0x37
	.byte	PATT
	 .word	seq_115_2 + 0x91
	.byte		N96   , Gn2 , v120
	.byte	W05
	.byte		VOL   , 18*seq_115_mvl/mxv
	.byte	W16
	.byte		        25*seq_115_mvl/mxv
	.byte	W13
	.byte		        31*seq_115_mvl/mxv
	.byte	W06
	.byte		        37*seq_115_mvl/mxv
	.byte	W07
	.byte		        44*seq_115_mvl/mxv
	.byte	W08
	.byte		        50*seq_115_mvl/mxv
	.byte	W03
	.byte		        56*seq_115_mvl/mxv
	.byte	W05
	.byte		        62*seq_115_mvl/mxv
	.byte	W04
	.byte		        56*seq_115_mvl/mxv
	.byte	W04
	.byte		        50*seq_115_mvl/mxv
	.byte	W04
	.byte		        44*seq_115_mvl/mxv
	.byte	W04
	.byte		        37*seq_115_mvl/mxv
	.byte	W03
	.byte		        31*seq_115_mvl/mxv
	.byte	W05
	.byte		        25*seq_115_mvl/mxv
	.byte	W05
	.byte		        18*seq_115_mvl/mxv
	.byte	W03
	.byte		        12*seq_115_mvl/mxv
	.byte	W01
	.byte	W96
	.byte		N06   , Bn2 
	.byte	W05
	.byte		VOL   , 18*seq_115_mvl/mxv
	.byte	W01
	.byte		N06   , Cn3 
	.byte	W06
	.byte		        Bn2 
	.byte	W06
	.byte		        Cn3 
	.byte	W03
	.byte		VOL   , 25*seq_115_mvl/mxv
	.byte	W03
	.byte		N06   , Bn2 
	.byte	W06
	.byte		        Cn3 
	.byte	W04
	.byte		VOL   , 31*seq_115_mvl/mxv
	.byte	W02
	.byte		N06   , Bn2 
	.byte	W04
	.byte		VOL   , 37*seq_115_mvl/mxv
	.byte	W02
	.byte		N06   , Cn3 
	.byte	W05
	.byte		VOL   , 44*seq_115_mvl/mxv
	.byte	W01
	.byte		N06   , Bn2 
	.byte	W06
	.byte		        Cn3 
	.byte	W01
	.byte		VOL   , 50*seq_115_mvl/mxv
	.byte	W03
	.byte		        56*seq_115_mvl/mxv
	.byte	W02
	.byte		N06   , Bn2 
	.byte	W03
	.byte		VOL   , 62*seq_115_mvl/mxv
	.byte	W03
	.byte		N06   , Cn3 
	.byte	W01
	.byte		VOL   , 56*seq_115_mvl/mxv
	.byte	W04
	.byte		        50*seq_115_mvl/mxv
	.byte	W01
	.byte		N06   , Bn2 
	.byte	W03
	.byte		VOL   , 44*seq_115_mvl/mxv
	.byte	W03
	.byte		N06   , Cn3 
	.byte	W01
	.byte		VOL   , 37*seq_115_mvl/mxv
	.byte	W03
	.byte		        31*seq_115_mvl/mxv
	.byte	W02
	.byte		N06   , Bn2 
	.byte	W03
	.byte		VOL   , 25*seq_115_mvl/mxv
	.byte	W03
	.byte		N06   , Cn3 
	.byte	W02
	.byte		VOL   , 18*seq_115_mvl/mxv
	.byte	W03
	.byte		        12*seq_115_mvl/mxv
	.byte	W01
	.byte		N06   , Ds3 
	.byte	W05
	.byte		VOL   , 18*seq_115_mvl/mxv
	.byte	W01
	.byte		N06   , En3 
	.byte	W06
	.byte		        Ds3 
	.byte	W06
	.byte		        En3 
	.byte	W03
	.byte		VOL   , 25*seq_115_mvl/mxv
	.byte	W03
	.byte		N06   , Ds3 
	.byte	W06
	.byte		        En3 
	.byte	W04
	.byte		VOL   , 31*seq_115_mvl/mxv
	.byte	W02
	.byte		N06   , Ds3 
	.byte	W04
	.byte		VOL   , 37*seq_115_mvl/mxv
	.byte	W02
	.byte		N06   , En3 
	.byte	W05
	.byte		VOL   , 44*seq_115_mvl/mxv
	.byte	W01
	.byte		N06   , Ds3 
	.byte	W06
	.byte		        En3 
	.byte	W01
	.byte		VOL   , 50*seq_115_mvl/mxv
	.byte	W03
	.byte		        56*seq_115_mvl/mxv
	.byte	W02
	.byte		N06   , Ds3 
	.byte	W03
	.byte		VOL   , 62*seq_115_mvl/mxv
	.byte	W03
	.byte		N06   , En3 
	.byte	W01
	.byte		VOL   , 56*seq_115_mvl/mxv
	.byte	W04
	.byte		        50*seq_115_mvl/mxv
	.byte	W01
	.byte		N06   , Ds3 
	.byte	W03
	.byte		VOL   , 44*seq_115_mvl/mxv
	.byte	W03
	.byte		N06   , En3 
	.byte	W01
	.byte		VOL   , 37*seq_115_mvl/mxv
	.byte	W03
	.byte		        31*seq_115_mvl/mxv
	.byte	W02
	.byte		N06   , Ds3 
	.byte	W03
	.byte		VOL   , 25*seq_115_mvl/mxv
	.byte	W03
	.byte		N06   , En3 
	.byte	W02
	.byte		VOL   , 18*seq_115_mvl/mxv
	.byte	W03
	.byte		        12*seq_115_mvl/mxv
	.byte	W01
	.byte		N96   , As2 
	.byte	W05
	.byte		VOL   , 18*seq_115_mvl/mxv
	.byte	W16
	.byte		        25*seq_115_mvl/mxv
	.byte	W13
	.byte		        31*seq_115_mvl/mxv
	.byte	W06
	.byte		        37*seq_115_mvl/mxv
	.byte	W07
	.byte		        44*seq_115_mvl/mxv
	.byte	W08
	.byte		        50*seq_115_mvl/mxv
	.byte	W03
	.byte		        56*seq_115_mvl/mxv
	.byte	W05
	.byte		        62*seq_115_mvl/mxv
	.byte	W04
	.byte		        56*seq_115_mvl/mxv
	.byte	W04
	.byte		        50*seq_115_mvl/mxv
	.byte	W04
	.byte		        44*seq_115_mvl/mxv
	.byte	W04
	.byte		        37*seq_115_mvl/mxv
	.byte	W03
	.byte		        31*seq_115_mvl/mxv
	.byte	W05
	.byte		        25*seq_115_mvl/mxv
	.byte	W05
	.byte		        18*seq_115_mvl/mxv
	.byte	W03
	.byte		        12*seq_115_mvl/mxv
	.byte	W01
	.byte	W96
	.byte	PATT
	 .word	seq_115_2 + 0x91
	.byte		N06   , Gn3 , v120
	.byte	W05
	.byte		VOL   , 18*seq_115_mvl/mxv
	.byte	W01
	.byte		N06   , Gs3 
	.byte	W06
	.byte		        Gn3 
	.byte	W06
	.byte		        Gs3 
	.byte	W03
	.byte		VOL   , 25*seq_115_mvl/mxv
	.byte	W03
	.byte		N06   , Gn3 
	.byte	W06
	.byte		        Gs3 
	.byte	W04
	.byte		VOL   , 31*seq_115_mvl/mxv
	.byte	W02
	.byte		N06   , Gn3 
	.byte	W04
	.byte		VOL   , 37*seq_115_mvl/mxv
	.byte	W02
	.byte		N06   , Gs3 
	.byte	W05
	.byte		VOL   , 44*seq_115_mvl/mxv
	.byte	W01
	.byte		N06   , Gn3 
	.byte	W06
	.byte		        Gs3 
	.byte	W01
	.byte		VOL   , 50*seq_115_mvl/mxv
	.byte	W03
	.byte		        56*seq_115_mvl/mxv
	.byte	W02
	.byte		N06   , As3 
	.byte	W03
	.byte		VOL   , 62*seq_115_mvl/mxv
	.byte	W03
	.byte		N06   , Bn3 
	.byte	W01
	.byte		VOL   , 56*seq_115_mvl/mxv
	.byte	W04
	.byte		        50*seq_115_mvl/mxv
	.byte	W01
	.byte		N06   , Cs4 
	.byte	W03
	.byte		VOL   , 44*seq_115_mvl/mxv
	.byte	W03
	.byte		N06   , Ds4 
	.byte	W01
	.byte		VOL   , 50*seq_115_mvl/mxv
	.byte	W03
	.byte		        56*seq_115_mvl/mxv
	.byte	W02
	.byte		N06   , En4 
	.byte	W03
	.byte		VOL   , 62*seq_115_mvl/mxv
	.byte	W03
	.byte		N06   , Fn4 
	.byte	W05
	.byte		VOL   , 12*seq_115_mvl/mxv
	.byte	W01
	.byte	W96
	.byte	GOTO
	 .word	seq_115_2 + 0x35
	.byte	FINE

@*********************** Track 04 ***********************@

seq_115_3:
	.byte	KEYSH , seq_115_key+0
	.byte	W06
	.byte		VOICE , 4
	.byte	W01
	.byte		VOL   , 12*seq_115_mvl/mxv
	.byte	W01
	.byte		PAN   , c_v+36
	.byte	W01
	.byte		LFOS  , 0
	.byte	W01
	.byte		MODT  , mod_vib
	.byte	W01
	.byte		LFODL , 0
	.byte	W13
	.byte		N96   , An1 , v120
	.byte	W11
	.byte		VOL   , 18*seq_115_mvl/mxv
	.byte	W10
	.byte		        25*seq_115_mvl/mxv
	.byte	W10
	.byte		        31*seq_115_mvl/mxv
	.byte	W10
	.byte		        37*seq_115_mvl/mxv
	.byte	W09
	.byte		        44*seq_115_mvl/mxv
	.byte	W10
	.byte		        50*seq_115_mvl/mxv
	.byte	W10
	.byte		        56*seq_115_mvl/mxv
	.byte	W06
	.byte		        50*seq_115_mvl/mxv
	.byte	W03
	.byte		        44*seq_115_mvl/mxv
	.byte	W04
	.byte		        37*seq_115_mvl/mxv
	.byte	W03
	.byte		        31*seq_115_mvl/mxv
	.byte	W03
	.byte		        25*seq_115_mvl/mxv
	.byte	W03
	.byte		        18*seq_115_mvl/mxv
	.byte	W03
	.byte		        12*seq_115_mvl/mxv
	.byte	W01
	.byte	W96
	.byte	W96
	.byte		N06   , An2 , v120
	.byte	W05
	.byte		VOL   , 18*seq_115_mvl/mxv
	.byte	W01
	.byte		N06   , As2 
	.byte	W06
	.byte		        An2 
	.byte	W06
	.byte		        As2 
	.byte	W03
	.byte		VOL   , 25*seq_115_mvl/mxv
	.byte	W03
	.byte		N06   , An2 
	.byte	W06
	.byte		        As2 
	.byte	W04
	.byte		VOL   , 31*seq_115_mvl/mxv
	.byte	W02
	.byte		N06   , An2 
	.byte	W04
	.byte		VOL   , 37*seq_115_mvl/mxv
	.byte	W02
	.byte		N06   , As2 
	.byte	W05
	.byte		VOL   , 44*seq_115_mvl/mxv
	.byte	W01
	.byte		N06   , An2 
	.byte	W06
	.byte		        As2 
	.byte	W01
	.byte		VOL   , 50*seq_115_mvl/mxv
	.byte	W03
	.byte		        56*seq_115_mvl/mxv
	.byte	W02
	.byte		N06   , An2 
	.byte	W03
	.byte		VOL   , 62*seq_115_mvl/mxv
	.byte	W03
	.byte		N06   , As2 
	.byte	W01
	.byte		VOL   , 56*seq_115_mvl/mxv
	.byte	W04
	.byte		        50*seq_115_mvl/mxv
	.byte	W01
	.byte		N06   , An2 
	.byte	W03
	.byte		VOL   , 44*seq_115_mvl/mxv
	.byte	W03
	.byte		N06   , As2 
	.byte	W01
	.byte		VOL   , 37*seq_115_mvl/mxv
	.byte	W03
	.byte		        31*seq_115_mvl/mxv
	.byte	W02
	.byte		N06   , An2 
	.byte	W03
	.byte		VOL   , 25*seq_115_mvl/mxv
	.byte	W03
	.byte		N06   , As2 
	.byte	W02
	.byte		VOL   , 18*seq_115_mvl/mxv
	.byte	W03
	.byte		        12*seq_115_mvl/mxv
	.byte	W01
	.byte	PEND
	.byte		N06   , As2 , v120
	.byte	W05
	.byte		VOL   , 18*seq_115_mvl/mxv
	.byte	W01
	.byte		N06   , Bn2 
	.byte	W06
	.byte		        As2 
	.byte	W06
	.byte		        Bn2 
	.byte	W03
	.byte		VOL   , 25*seq_115_mvl/mxv
	.byte	W03
	.byte		N06   , As2 
	.byte	W06
	.byte		        Bn2 
	.byte	W04
	.byte		VOL   , 31*seq_115_mvl/mxv
	.byte	W02
	.byte		N06   , As2 
	.byte	W04
	.byte		VOL   , 37*seq_115_mvl/mxv
	.byte	W02
	.byte		N06   , Bn2 
	.byte	W05
	.byte		VOL   , 44*seq_115_mvl/mxv
	.byte	W01
	.byte		N06   , As2 
	.byte	W06
	.byte		        Bn2 
	.byte	W01
	.byte		VOL   , 50*seq_115_mvl/mxv
	.byte	W03
	.byte		        56*seq_115_mvl/mxv
	.byte	W02
	.byte		N06   , As2 
	.byte	W03
	.byte		VOL   , 62*seq_115_mvl/mxv
	.byte	W03
	.byte		N06   , Bn2 
	.byte	W01
	.byte		VOL   , 56*seq_115_mvl/mxv
	.byte	W04
	.byte		        50*seq_115_mvl/mxv
	.byte	W01
	.byte		N06   , As2 
	.byte	W03
	.byte		VOL   , 44*seq_115_mvl/mxv
	.byte	W03
	.byte		N06   , Bn2 
	.byte	W01
	.byte		VOL   , 37*seq_115_mvl/mxv
	.byte	W03
	.byte		        31*seq_115_mvl/mxv
	.byte	W02
	.byte		N06   , As2 
	.byte	W03
	.byte		VOL   , 25*seq_115_mvl/mxv
	.byte	W03
	.byte		N06   , Bn2 
	.byte	W02
	.byte		VOL   , 18*seq_115_mvl/mxv
	.byte	W03
	.byte		        12*seq_115_mvl/mxv
	.byte	W01
	.byte	PEND
	.byte	W96
	.byte	W96
	.byte	PATT
	 .word	seq_115_3 + 0x38
	.byte	PATT
	 .word	seq_115_3 + 0x92
	.byte	W92
	.byte	W03
	.byte		VOL   , 12*seq_115_mvl/mxv
	.byte	W01
	.byte	PEND
	.byte		N96   , Fn2 , v120
	.byte	W05
	.byte		VOL   , 18*seq_115_mvl/mxv
	.byte	W16
	.byte		        25*seq_115_mvl/mxv
	.byte	W13
	.byte		        31*seq_115_mvl/mxv
	.byte	W06
	.byte		        37*seq_115_mvl/mxv
	.byte	W07
	.byte		        44*seq_115_mvl/mxv
	.byte	W07
	.byte		        50*seq_115_mvl/mxv
	.byte	W04
	.byte		        56*seq_115_mvl/mxv
	.byte	W05
	.byte		        62*seq_115_mvl/mxv
	.byte	W04
	.byte		        56*seq_115_mvl/mxv
	.byte	W04
	.byte		        50*seq_115_mvl/mxv
	.byte	W04
	.byte		        44*seq_115_mvl/mxv
	.byte	W04
	.byte		        37*seq_115_mvl/mxv
	.byte	W03
	.byte		        31*seq_115_mvl/mxv
	.byte	W05
	.byte		        25*seq_115_mvl/mxv
	.byte	W05
	.byte		        18*seq_115_mvl/mxv
	.byte	W03
	.byte		        12*seq_115_mvl/mxv
	.byte	W01
	.byte	PEND
	.byte	PATT
	 .word	seq_115_3 + 0x38
	.byte	PATT
	 .word	seq_115_3 + 0x92
	.byte	PATT
	 .word	seq_115_3 + 0xF8
	.byte	PATT
	 .word	seq_115_3 + 0xFE
	.byte	PATT
	 .word	seq_115_3 + 0x38
	.byte	PATT
	 .word	seq_115_3 + 0x92
	.byte	W96
	.byte	W96
	.byte	PATT
	 .word	seq_115_3 + 0x38
	.byte	PATT
	 .word	seq_115_3 + 0x92
	.byte	W96
	.byte	W96
	.byte	PATT
	 .word	seq_115_3 + 0x38
	.byte	PATT
	 .word	seq_115_3 + 0x92
	.byte	PATT
	 .word	seq_115_3 + 0xF8
	.byte		N96   , An2 , v120
	.byte	W05
	.byte		VOL   , 18*seq_115_mvl/mxv
	.byte	W16
	.byte		        25*seq_115_mvl/mxv
	.byte	W13
	.byte		        31*seq_115_mvl/mxv
	.byte	W06
	.byte		        37*seq_115_mvl/mxv
	.byte	W07
	.byte		        44*seq_115_mvl/mxv
	.byte	W07
	.byte		        50*seq_115_mvl/mxv
	.byte	W04
	.byte		        56*seq_115_mvl/mxv
	.byte	W05
	.byte		        62*seq_115_mvl/mxv
	.byte	W04
	.byte		        56*seq_115_mvl/mxv
	.byte	W04
	.byte		        50*seq_115_mvl/mxv
	.byte	W04
	.byte		        44*seq_115_mvl/mxv
	.byte	W04
	.byte		        37*seq_115_mvl/mxv
	.byte	W03
	.byte		        31*seq_115_mvl/mxv
	.byte	W05
	.byte		        25*seq_115_mvl/mxv
	.byte	W05
	.byte		        18*seq_115_mvl/mxv
	.byte	W03
	.byte		        12*seq_115_mvl/mxv
	.byte	W01
	.byte		N06   , Gn2 
	.byte	W05
	.byte		VOL   , 18*seq_115_mvl/mxv
	.byte	W01
	.byte		N06   , Gs2 
	.byte	W06
	.byte		        Gn2 
	.byte	W06
	.byte		        Gs2 
	.byte	W03
	.byte		VOL   , 25*seq_115_mvl/mxv
	.byte	W03
	.byte		N06   , Gn2 
	.byte	W06
	.byte		        Gs2 
	.byte	W04
	.byte		VOL   , 31*seq_115_mvl/mxv
	.byte	W02
	.byte		N06   , Gn2 
	.byte	W04
	.byte		VOL   , 37*seq_115_mvl/mxv
	.byte	W02
	.byte		N06   , Gs2 
	.byte	W05
	.byte		VOL   , 44*seq_115_mvl/mxv
	.byte	W01
	.byte		N06   , Gn2 
	.byte	W06
	.byte		        Gs2 
	.byte	W01
	.byte		VOL   , 50*seq_115_mvl/mxv
	.byte	W03
	.byte		        56*seq_115_mvl/mxv
	.byte	W02
	.byte		N06   , Gn2 
	.byte	W03
	.byte		VOL   , 62*seq_115_mvl/mxv
	.byte	W03
	.byte		N06   , Gs2 
	.byte	W01
	.byte		VOL   , 56*seq_115_mvl/mxv
	.byte	W04
	.byte		        50*seq_115_mvl/mxv
	.byte	W01
	.byte		N06   , Gn2 
	.byte	W03
	.byte		VOL   , 44*seq_115_mvl/mxv
	.byte	W03
	.byte		N06   , Gs2 
	.byte	W01
	.byte		VOL   , 37*seq_115_mvl/mxv
	.byte	W03
	.byte		        31*seq_115_mvl/mxv
	.byte	W02
	.byte		N06   , Gn2 
	.byte	W03
	.byte		VOL   , 25*seq_115_mvl/mxv
	.byte	W03
	.byte		N06   , Gs2 
	.byte	W02
	.byte		VOL   , 18*seq_115_mvl/mxv
	.byte	W03
	.byte		        12*seq_115_mvl/mxv
	.byte	W01
	.byte	PATT
	 .word	seq_115_3 + 0x38
	.byte	PATT
	 .word	seq_115_3 + 0xF8
	.byte		N96   , Bn2 , v120
	.byte	W05
	.byte		VOL   , 18*seq_115_mvl/mxv
	.byte	W16
	.byte		        25*seq_115_mvl/mxv
	.byte	W13
	.byte		        31*seq_115_mvl/mxv
	.byte	W06
	.byte		        37*seq_115_mvl/mxv
	.byte	W07
	.byte		        44*seq_115_mvl/mxv
	.byte	W07
	.byte		        50*seq_115_mvl/mxv
	.byte	W04
	.byte		        56*seq_115_mvl/mxv
	.byte	W05
	.byte		        62*seq_115_mvl/mxv
	.byte	W04
	.byte		        56*seq_115_mvl/mxv
	.byte	W04
	.byte		        50*seq_115_mvl/mxv
	.byte	W04
	.byte		        44*seq_115_mvl/mxv
	.byte	W04
	.byte		        37*seq_115_mvl/mxv
	.byte	W03
	.byte		        31*seq_115_mvl/mxv
	.byte	W05
	.byte		        25*seq_115_mvl/mxv
	.byte	W05
	.byte		        18*seq_115_mvl/mxv
	.byte	W03
	.byte		        12*seq_115_mvl/mxv
	.byte	W01
	.byte		N06   , Cn3 
	.byte	W05
	.byte		VOL   , 18*seq_115_mvl/mxv
	.byte	W01
	.byte		N06   , Cs3 
	.byte	W06
	.byte		        Cn3 
	.byte	W06
	.byte		        Cs3 
	.byte	W03
	.byte		VOL   , 25*seq_115_mvl/mxv
	.byte	W03
	.byte		N06   , Cn3 
	.byte	W06
	.byte		        Cs3 
	.byte	W04
	.byte		VOL   , 31*seq_115_mvl/mxv
	.byte	W02
	.byte		N06   , Cn3 
	.byte	W04
	.byte		VOL   , 37*seq_115_mvl/mxv
	.byte	W02
	.byte		N06   , Cs3 
	.byte	W05
	.byte		VOL   , 44*seq_115_mvl/mxv
	.byte	W01
	.byte		N06   , Cn3 
	.byte	W06
	.byte		        Cs3 
	.byte	W01
	.byte		VOL   , 50*seq_115_mvl/mxv
	.byte	W03
	.byte		        56*seq_115_mvl/mxv
	.byte	W02
	.byte		N06   , Cn3 
	.byte	W03
	.byte		VOL   , 62*seq_115_mvl/mxv
	.byte	W03
	.byte		N06   , Cs3 
	.byte	W01
	.byte		VOL   , 56*seq_115_mvl/mxv
	.byte	W04
	.byte		        50*seq_115_mvl/mxv
	.byte	W01
	.byte		N06   , Cn3 
	.byte	W03
	.byte		VOL   , 44*seq_115_mvl/mxv
	.byte	W03
	.byte		N06   , Cs3 
	.byte	W01
	.byte		VOL   , 37*seq_115_mvl/mxv
	.byte	W03
	.byte		        31*seq_115_mvl/mxv
	.byte	W02
	.byte		N06   , Cn3 
	.byte	W03
	.byte		VOL   , 25*seq_115_mvl/mxv
	.byte	W03
	.byte		N06   , Cs3 
	.byte	W02
	.byte		VOL   , 18*seq_115_mvl/mxv
	.byte	W03
	.byte		        12*seq_115_mvl/mxv
	.byte	W01
	.byte		N06
	.byte	W05
	.byte		VOL   , 18*seq_115_mvl/mxv
	.byte	W01
	.byte		N06   , Dn3 
	.byte	W06
	.byte		        Cs3 
	.byte	W06
	.byte		        Dn3 
	.byte	W03
	.byte		VOL   , 25*seq_115_mvl/mxv
	.byte	W03
	.byte		N06   , Cs3 
	.byte	W06
	.byte		        Dn3 
	.byte	W04
	.byte		VOL   , 31*seq_115_mvl/mxv
	.byte	W02
	.byte		N06   , Cs3 
	.byte	W04
	.byte		VOL   , 37*seq_115_mvl/mxv
	.byte	W02
	.byte		N06   , Dn3 
	.byte	W05
	.byte		VOL   , 44*seq_115_mvl/mxv
	.byte	W01
	.byte		N06   , Cs3 
	.byte	W06
	.byte		        Dn3 
	.byte	W01
	.byte		VOL   , 50*seq_115_mvl/mxv
	.byte	W03
	.byte		        56*seq_115_mvl/mxv
	.byte	W02
	.byte		N06   , En3 
	.byte	W03
	.byte		VOL   , 62*seq_115_mvl/mxv
	.byte	W03
	.byte		N06   , Fn3 
	.byte	W01
	.byte		VOL   , 56*seq_115_mvl/mxv
	.byte	W04
	.byte		        50*seq_115_mvl/mxv
	.byte	W01
	.byte		N06   , Gn3 
	.byte	W03
	.byte		VOL   , 44*seq_115_mvl/mxv
	.byte	W03
	.byte		N06   , Gs3 
	.byte	W01
	.byte		VOL   , 50*seq_115_mvl/mxv
	.byte	W03
	.byte		        56*seq_115_mvl/mxv
	.byte	W02
	.byte		N06   , An3 
	.byte	W03
	.byte		VOL   , 62*seq_115_mvl/mxv
	.byte	W03
	.byte		N06   , As3 
	.byte	W05
	.byte		VOL   , 12*seq_115_mvl/mxv
	.byte	W01
	.byte	W96
	.byte	GOTO
	 .word	seq_115_3 + 0x36
	.byte	FINE

@*********************** Track 05 ***********************@

seq_115_4:
	.byte	KEYSH , seq_115_key+0
	.byte	W06
	.byte		VOICE , 15
	.byte	W01
	.byte		VOL   , 18*seq_115_mvl/mxv
	.byte	W01
	.byte		PAN   , c_v+0
	.byte	W01
	.byte		LFOS  , 30
	.byte	W01
	.byte		MODT  , mod_pan
	.byte	W01
	.byte		MOD   , 0
	.byte	W13
	.byte	W96
	.byte		N96   , En2 , v120
	.byte		N96   , Cs3 
	.byte	W01
	.byte		VOL   , 18*seq_115_mvl/mxv
	.byte	W04
	.byte		        25*seq_115_mvl/mxv
	.byte	W08
	.byte		        18*seq_115_mvl/mxv
	.byte	W10
	.byte		MOD   , 60
	.byte	W05
	.byte		VOL   , 25*seq_115_mvl/mxv
	.byte	W08
	.byte		        31*seq_115_mvl/mxv
	.byte	W13
	.byte		        37*seq_115_mvl/mxv
	.byte	W09
	.byte		        44*seq_115_mvl/mxv
	.byte	W14
	.byte		        37*seq_115_mvl/mxv
	.byte	W11
	.byte		        31*seq_115_mvl/mxv
	.byte	W04
	.byte		        25*seq_115_mvl/mxv
	.byte	W02
	.byte		MOD   , 0
	.byte	W02
	.byte		VOL   , 18*seq_115_mvl/mxv
	.byte	W04
	.byte		        12*seq_115_mvl/mxv
	.byte	W01
	.byte	PEND
	.byte		N96   , Fn2 , v120
	.byte		N96   , Dn3 
	.byte	W01
	.byte		VOL   , 18*seq_115_mvl/mxv
	.byte	W04
	.byte		        25*seq_115_mvl/mxv
	.byte	W08
	.byte		        18*seq_115_mvl/mxv
	.byte	W10
	.byte		MOD   , 60
	.byte	W05
	.byte		VOL   , 25*seq_115_mvl/mxv
	.byte	W08
	.byte		        31*seq_115_mvl/mxv
	.byte	W13
	.byte		        37*seq_115_mvl/mxv
	.byte	W09
	.byte		        44*seq_115_mvl/mxv
	.byte	W14
	.byte		        37*seq_115_mvl/mxv
	.byte	W11
	.byte		        31*seq_115_mvl/mxv
	.byte	W04
	.byte		        25*seq_115_mvl/mxv
	.byte	W02
	.byte		MOD   , 0
	.byte	W02
	.byte		VOL   , 18*seq_115_mvl/mxv
	.byte	W04
	.byte		        12*seq_115_mvl/mxv
	.byte	W01
	.byte	PEND
	.byte	W96
	.byte	W96
	.byte	PATT
	 .word	seq_115_4 + 0x16
	.byte	PATT
	 .word	seq_115_4 + 0x3E
	.byte	W96
	.byte	W96
	.byte	PATT
	 .word	seq_115_4 + 0x16
	.byte	PATT
	 .word	seq_115_4 + 0x3E
	.byte	W96
	.byte	W96
	.byte	PATT
	 .word	seq_115_4 + 0x16
	.byte	PATT
	 .word	seq_115_4 + 0x3E
	.byte	W96
	.byte	W96
	.byte	PATT
	 .word	seq_115_4 + 0x16
	.byte	PATT
	 .word	seq_115_4 + 0x3E
	.byte	W96
	.byte	W96
	.byte	PATT
	 .word	seq_115_4 + 0x16
	.byte	PATT
	 .word	seq_115_4 + 0x3E
	.byte	W96
	.byte	W96
	.byte		N96   , Dn2 , v120
	.byte		N96   , Bn2 
	.byte	W01
	.byte		VOL   , 18*seq_115_mvl/mxv
	.byte	W04
	.byte		        25*seq_115_mvl/mxv
	.byte	W08
	.byte		        18*seq_115_mvl/mxv
	.byte	W10
	.byte		MOD   , 60
	.byte	W05
	.byte		VOL   , 25*seq_115_mvl/mxv
	.byte	W08
	.byte		        31*seq_115_mvl/mxv
	.byte	W13
	.byte		        37*seq_115_mvl/mxv
	.byte	W09
	.byte		        44*seq_115_mvl/mxv
	.byte	W14
	.byte		        37*seq_115_mvl/mxv
	.byte	W11
	.byte		        31*seq_115_mvl/mxv
	.byte	W04
	.byte		        25*seq_115_mvl/mxv
	.byte	W02
	.byte		MOD   , 0
	.byte	W02
	.byte		VOL   , 18*seq_115_mvl/mxv
	.byte	W04
	.byte		        12*seq_115_mvl/mxv
	.byte	W01
	.byte	PATT
	 .word	seq_115_4 + 0x16
	.byte	W96
	.byte	W96
	.byte	PATT
	 .word	seq_115_4 + 0x3E
	.byte		N96   , Fs2 , v120
	.byte		N96   , Ds3 
	.byte	W01
	.byte		VOL   , 18*seq_115_mvl/mxv
	.byte	W04
	.byte		        25*seq_115_mvl/mxv
	.byte	W08
	.byte		        18*seq_115_mvl/mxv
	.byte	W10
	.byte		MOD   , 60
	.byte	W05
	.byte		VOL   , 25*seq_115_mvl/mxv
	.byte	W08
	.byte		        31*seq_115_mvl/mxv
	.byte	W13
	.byte		        37*seq_115_mvl/mxv
	.byte	W09
	.byte		        44*seq_115_mvl/mxv
	.byte	W14
	.byte		        37*seq_115_mvl/mxv
	.byte	W11
	.byte		        31*seq_115_mvl/mxv
	.byte	W04
	.byte		        25*seq_115_mvl/mxv
	.byte	W02
	.byte		MOD   , 0
	.byte	W02
	.byte		VOL   , 18*seq_115_mvl/mxv
	.byte	W04
	.byte		        12*seq_115_mvl/mxv
	.byte	W01
	.byte	W96
	.byte	W96
	.byte	W96
	.byte	GOTO
	 .word	seq_115_4 + 0x16
	.byte	FINE

@*********************** Track 06 ***********************@

seq_115_5:
	.byte	KEYSH , seq_115_key+0
	.byte	W06
	.byte		VOICE , 5
	.byte	W01
	.byte		VOL   , 12*seq_115_mvl/mxv
	.byte	W01
	.byte		PAN   , c_v+0
	.byte	W01
	.byte		LFOS  , 30
	.byte	W01
	.byte		MODT  , mod_tre
	.byte	W01
	.byte		LFODL , 0
	.byte	W13
	.byte	W96
	.byte	W96
	.byte	W96
	.byte	W19
	.byte		N03   , Cs4 , v080
	.byte		N03   , En4 
	.byte	W03
	.byte		        En4 , v100
	.byte		N03   , An4 
	.byte	W01
	.byte		VOL   , 18*seq_115_mvl/mxv
	.byte	W02
	.byte		N30   , An4 , v120
	.byte		N30   , Cs5 
	.byte	W03
	.byte		VOL   , 25*seq_115_mvl/mxv
	.byte	W09
	.byte		        31*seq_115_mvl/mxv
	.byte	W08
	.byte		BEND  , c_v-2
	.byte	W01
	.byte		        c_v-3
	.byte	W01
	.byte		VOL   , 37*seq_115_mvl/mxv
	.byte	W01
	.byte		BEND  , c_v-2
	.byte	W01
	.byte		        c_v+0
	.byte	W01
	.byte		        c_v-2
	.byte	W01
	.byte		        c_v-3
	.byte	W02
	.byte		        c_v-2
	.byte	W01
	.byte		        c_v+0
	.byte	W01
	.byte		N02   , Gn4 , v040
	.byte	W01
	.byte		VOL   , 44*seq_115_mvl/mxv
	.byte	W01
	.byte		N02   , En4 
	.byte	W02
	.byte		        Dn4 
	.byte	W02
	.byte		        Cs4 , v020
	.byte	W02
	.byte		        Bn3 
	.byte	W02
	.byte		        An3 
	.byte	W30
	.byte	W01
	.byte	W96
	.byte	W96
	.byte	W96
	.byte	W18
	.byte		VOL   , 12*seq_115_mvl/mxv
	.byte	W01
	.byte		N03   , Cs4 , v080
	.byte		N03   , En4 
	.byte	W03
	.byte		        En4 , v100
	.byte		N03   , An4 
	.byte	W01
	.byte		VOL   , 18*seq_115_mvl/mxv
	.byte	W02
	.byte		N30   , An4 , v120
	.byte		N30   , Cs5 
	.byte	W03
	.byte		VOL   , 25*seq_115_mvl/mxv
	.byte	W09
	.byte		        31*seq_115_mvl/mxv
	.byte	W08
	.byte		BEND  , c_v-2
	.byte	W01
	.byte		        c_v-3
	.byte	W01
	.byte		VOL   , 37*seq_115_mvl/mxv
	.byte	W01
	.byte		BEND  , c_v-2
	.byte	W01
	.byte		        c_v+0
	.byte	W01
	.byte		        c_v-2
	.byte	W01
	.byte		        c_v-3
	.byte	W02
	.byte		        c_v-2
	.byte	W01
	.byte		        c_v+0
	.byte	W01
	.byte		N02   , Gn4 , v040
	.byte	W01
	.byte		VOL   , 44*seq_115_mvl/mxv
	.byte	W01
	.byte		N02   , En4 
	.byte	W02
	.byte		        Dn4 
	.byte	W02
	.byte		        Cs4 , v020
	.byte	W02
	.byte		        Bn3 
	.byte	W02
	.byte		        An3 
	.byte	W30
	.byte	W01
	.byte	W96
	.byte	W24
	.byte		VOL   , 62*seq_115_mvl/mxv
	.byte	W01
	.byte		N24   , An3 , v100
	.byte	W24
	.byte		        Cs4 , v120
	.byte	W24
	.byte		        En4 , v100
	.byte	W23
	.byte	PEND
	.byte	W01
	.byte		N44   , Dn4 , v120
	.byte	W20
	.byte		MOD   , 40
	.byte	W03
	.byte		VOL   , 56*seq_115_mvl/mxv
	.byte	W03
	.byte		        50*seq_115_mvl/mxv
	.byte	W03
	.byte		        44*seq_115_mvl/mxv
	.byte	W03
	.byte		        37*seq_115_mvl/mxv
	.byte	W03
	.byte		        31*seq_115_mvl/mxv
	.byte	W02
	.byte		        25*seq_115_mvl/mxv
	.byte	W03
	.byte		        18*seq_115_mvl/mxv
	.byte	W02
	.byte		        12*seq_115_mvl/mxv
	.byte	W02
	.byte		        6*seq_115_mvl/mxv
	.byte	W01
	.byte		        0*seq_115_mvl/mxv
	.byte	W01
	.byte		MOD   , 0
	.byte	W01
	.byte		VOL   , 62*seq_115_mvl/mxv
	.byte	W01
	.byte		N24   , Cn4 
	.byte	W24
	.byte		N18   , As3 , v100
	.byte	W18
	.byte		N03   , Cn4 
	.byte	W03
	.byte		        As3 , v120
	.byte	W02
	.byte	W01
	.byte		N84   , An3 , v100
	.byte	W32
	.byte		MOD   , 80
	.byte	W09
	.byte		VOL   , 56*seq_115_mvl/mxv
	.byte	W05
	.byte		        50*seq_115_mvl/mxv
	.byte	W04
	.byte		        44*seq_115_mvl/mxv
	.byte	W05
	.byte		        37*seq_115_mvl/mxv
	.byte	W05
	.byte		        31*seq_115_mvl/mxv
	.byte	W04
	.byte		        25*seq_115_mvl/mxv
	.byte	W05
	.byte		        18*seq_115_mvl/mxv
	.byte	W05
	.byte		        12*seq_115_mvl/mxv
	.byte	W04
	.byte		        6*seq_115_mvl/mxv
	.byte	W04
	.byte		        0*seq_115_mvl/mxv
	.byte	W01
	.byte		MOD   , 0
	.byte	W12
	.byte	W96
	.byte	PATT
	 .word	seq_115_5 + 0xA5
	.byte	W01
	.byte		N44   , Dn4 , v120
	.byte	W20
	.byte		MOD   , 40
	.byte	W03
	.byte		VOL   , 56*seq_115_mvl/mxv
	.byte	W03
	.byte		        50*seq_115_mvl/mxv
	.byte	W03
	.byte		        44*seq_115_mvl/mxv
	.byte	W03
	.byte		        37*seq_115_mvl/mxv
	.byte	W03
	.byte		        31*seq_115_mvl/mxv
	.byte	W02
	.byte		        25*seq_115_mvl/mxv
	.byte	W03
	.byte		        18*seq_115_mvl/mxv
	.byte	W02
	.byte		        12*seq_115_mvl/mxv
	.byte	W02
	.byte		        6*seq_115_mvl/mxv
	.byte	W01
	.byte		        0*seq_115_mvl/mxv
	.byte	W01
	.byte		MOD   , 0
	.byte	W01
	.byte		VOL   , 62*seq_115_mvl/mxv
	.byte	W01
	.byte		N24   , Cn4 
	.byte	W24
	.byte		        As3 
	.byte	W23
	.byte	W01
	.byte		N06   , Cs4 
	.byte	W06
	.byte		        Dn4 
	.byte	W06
	.byte		N72   , En4 
	.byte	W18
	.byte		MOD   , 80
	.byte	W11
	.byte		VOL   , 56*seq_115_mvl/mxv
	.byte	W05
	.byte		        50*seq_115_mvl/mxv
	.byte	W04
	.byte		        44*seq_115_mvl/mxv
	.byte	W05
	.byte		        37*seq_115_mvl/mxv
	.byte	W05
	.byte		        31*seq_115_mvl/mxv
	.byte	W04
	.byte		        25*seq_115_mvl/mxv
	.byte	W05
	.byte		        18*seq_115_mvl/mxv
	.byte	W05
	.byte		        12*seq_115_mvl/mxv
	.byte	W04
	.byte		        6*seq_115_mvl/mxv
	.byte	W04
	.byte		        0*seq_115_mvl/mxv
	.byte	W01
	.byte		MOD   , 0
	.byte	W12
	.byte	W96
	.byte	W96
	.byte	W96
	.byte	W18
	.byte		VOL   , 12*seq_115_mvl/mxv
	.byte	W01
	.byte		N03   , Cs4 , v080
	.byte		N03   , En4 
	.byte	W03
	.byte		        En4 , v100
	.byte		N03   , An4 
	.byte	W01
	.byte		VOL   , 18*seq_115_mvl/mxv
	.byte	W02
	.byte		N30   , An4 , v120
	.byte		N30   , Cs5 
	.byte	W03
	.byte		VOL   , 25*seq_115_mvl/mxv
	.byte	W09
	.byte		        31*seq_115_mvl/mxv
	.byte	W08
	.byte		BEND  , c_v-2
	.byte	W01
	.byte		        c_v-3
	.byte	W01
	.byte		VOL   , 37*seq_115_mvl/mxv
	.byte	W01
	.byte		BEND  , c_v-2
	.byte	W01
	.byte		        c_v+0
	.byte	W01
	.byte		        c_v-2
	.byte	W01
	.byte		        c_v-3
	.byte	W02
	.byte		        c_v-2
	.byte	W01
	.byte		        c_v+0
	.byte	W01
	.byte		N02   , Gn4 , v040
	.byte	W01
	.byte		VOL   , 44*seq_115_mvl/mxv
	.byte	W01
	.byte		N02   , En4 
	.byte	W01
	.byte		MOD   , 120
	.byte	W01
	.byte		N02   , Dn4 
	.byte	W02
	.byte		        Cs4 , v020
	.byte	W02
	.byte		        Bn3 
	.byte	W02
	.byte		        An3 
	.byte	W30
	.byte	W01
	.byte		MOD   , 0
	.byte	W96
	.byte	W96
	.byte	W96
	.byte	W18
	.byte		VOL   , 12*seq_115_mvl/mxv
	.byte	W01
	.byte		N03   , Cs4 , v080
	.byte		N03   , En4 
	.byte	W03
	.byte		        En4 , v100
	.byte		N03   , An4 
	.byte	W01
	.byte		VOL   , 18*seq_115_mvl/mxv
	.byte	W02
	.byte		N30   , An4 , v120
	.byte		N30   , Cs5 
	.byte	W03
	.byte		VOL   , 25*seq_115_mvl/mxv
	.byte	W09
	.byte		        31*seq_115_mvl/mxv
	.byte	W08
	.byte		BEND  , c_v-2
	.byte	W01
	.byte		        c_v-3
	.byte	W01
	.byte		VOL   , 37*seq_115_mvl/mxv
	.byte	W01
	.byte		BEND  , c_v-2
	.byte	W01
	.byte		        c_v+0
	.byte	W01
	.byte		        c_v-2
	.byte	W01
	.byte		        c_v-3
	.byte	W02
	.byte		        c_v-2
	.byte	W01
	.byte		        c_v+0
	.byte	W01
	.byte		N02   , Gn4 , v040
	.byte	W01
	.byte		VOL   , 44*seq_115_mvl/mxv
	.byte	W01
	.byte		N02   , En4 
	.byte	W01
	.byte		MOD   , 120
	.byte	W01
	.byte		N02   , Dn4 
	.byte	W02
	.byte		        Cs4 , v020
	.byte	W02
	.byte		        Bn3 
	.byte	W02
	.byte		        An3 
	.byte	W28
	.byte	W01
	.byte		VOL   , 12*seq_115_mvl/mxv
	.byte	W01
	.byte		MOD   , 0
	.byte	W01
	.byte	W96
	.byte	W96
	.byte	W96
	.byte	W96
	.byte	W96
	.byte	W96
	.byte	W96
	.byte	W96
	.byte	W96
	.byte	W96
	.byte	GOTO
	 .word	seq_115_5 + 0x16
	.byte	FINE

@*********************** Track 07 ***********************@

seq_115_6:
	.byte	KEYSH , seq_115_key+0
	.byte	W12
	.byte		VOICE , 25
	.byte	W01
	.byte		VOL   , 50*seq_115_mvl/mxv
	.byte	W01
	.byte		PAN   , c_v+0
	.byte	W01
	.byte		LFOS  , 80
	.byte	W01
	.byte		MODT  , mod_pan
	.byte	W01
	.byte		LFODL , 0
	.byte	W01
	.byte		MOD   , 40
	.byte	W06
	.byte	W12
	.byte		N02   , Dn3 , v120
	.byte	W02
	.byte		        Dn4 , v060
	.byte	W02
	.byte		        Dn3 , v040
	.byte	W02
	.byte		        Dn4 
	.byte	W02
	.byte		        Dn3 
	.byte	W02
	.byte		        Dn4 , v020
	.byte	W02
	.byte		        Gn3 , v120
	.byte	W02
	.byte		        Gn4 , v060
	.byte	W02
	.byte		        Gn3 , v040
	.byte	W02
	.byte		        Gn4 
	.byte	W02
	.byte		        Gn3 
	.byte	W02
	.byte		        Gn4 , v020
	.byte	W02
	.byte		        Dn4 , v120
	.byte	W02
	.byte		        Dn5 , v060
	.byte	W02
	.byte		        Dn4 , v040
	.byte	W02
	.byte		        Dn5 
	.byte	W02
	.byte		        Dn4 
	.byte	W02
	.byte		        Dn5 , v020
	.byte	W02
	.byte		        An3 , v120
	.byte	W02
	.byte		        An4 , v060
	.byte	W02
	.byte		        An3 , v040
	.byte	W02
	.byte		        An4 
	.byte	W02
	.byte		        An3 
	.byte	W02
	.byte		        An4 , v020
	.byte	W02
	.byte		        En4 , v120
	.byte	W02
	.byte		        En5 , v060
	.byte	W02
	.byte		        En4 , v040
	.byte	W02
	.byte		        En5 
	.byte	W02
	.byte		        En4 
	.byte	W02
	.byte		        En5 , v020
	.byte	W02
	.byte		        Bn4 , v100
	.byte	W02
	.byte		        Bn5 , v060
	.byte	W02
	.byte		        Bn4 , v040
	.byte	W02
	.byte		        Bn5 
	.byte	W02
	.byte		        Bn4 
	.byte	W02
	.byte		        Bn5 , v020
	.byte	W02
	.byte		        Fs5 , v100
	.byte	W02
	.byte		        Fs6 , v060
	.byte	W02
	.byte		        Fs5 , v040
	.byte	W02
	.byte		        Fs6 
	.byte	W02
	.byte		        Fs5 
	.byte	W02
	.byte		        Fs6 , v020
	.byte	W02
	.byte	W96
	.byte	W96
	.byte	W92
	.byte	W03
	.byte		MOD   , 40
	.byte	W01
	.byte		N02   , As4 , v120
	.byte	W02
	.byte		        As5 , v060
	.byte	W02
	.byte		        As4 , v040
	.byte	W02
	.byte		        As5 
	.byte	W02
	.byte		        As4 
	.byte	W02
	.byte		        As5 , v020
	.byte	W02
	.byte		        Fn4 , v120
	.byte	W02
	.byte		        Fn5 , v060
	.byte	W02
	.byte		        Fn4 , v040
	.byte	W02
	.byte		        Fn5 
	.byte	W02
	.byte		        Fn4 
	.byte	W02
	.byte		        Fn5 , v020
	.byte	W02
	.byte		        En4 , v120
	.byte	W02
	.byte		        En5 , v060
	.byte	W02
	.byte		        En4 , v040
	.byte	W02
	.byte		        En5 
	.byte	W02
	.byte		        En4 
	.byte	W02
	.byte		        En5 
	.byte	W02
	.byte		        En4 
	.byte	W02
	.byte		        En5 
	.byte	W02
	.byte		        En4 
	.byte	W02
	.byte		        En5 , v020
	.byte	W02
	.byte		        En4 
	.byte	W02
	.byte		        En5 
	.byte	W02
	.byte		        En4 
	.byte	W02
	.byte		        En5 
	.byte	W02
	.byte		        En4 
	.byte	W02
	.byte		        En5 
	.byte	W02
	.byte		        En4 
	.byte	W02
	.byte		        En5 
	.byte	W02
	.byte		        Dn4 , v120
	.byte	W02
	.byte		        Dn5 , v060
	.byte	W02
	.byte		        Dn4 , v040
	.byte	W02
	.byte		        Dn5 
	.byte	W02
	.byte		        Dn4 
	.byte	W02
	.byte		        Dn5 , v020
	.byte	W02
	.byte		        Dn4 
	.byte	W02
	.byte		        Dn5 
	.byte	W02
	.byte		        Dn4 
	.byte	W02
	.byte		        Dn5 
	.byte	W02
	.byte		        Dn4 
	.byte	W02
	.byte		        Dn5 
	.byte	W02
	.byte		        Dn4 
	.byte	W02
	.byte		        Dn5 
	.byte	W02
	.byte		        Dn4 
	.byte	W02
	.byte		        Dn5 
	.byte	W02
	.byte		        Dn4 
	.byte	W02
	.byte		        Dn5 
	.byte	W02
	.byte	PEND
	.byte	W96
	.byte	W96
	.byte	W96
	.byte	PATT
	 .word	seq_115_6 + 0x91
	.byte	W96
	.byte	W96
	.byte	W96
	.byte	PATT
	 .word	seq_115_6 + 0x91
	.byte	W96
	.byte	W96
	.byte	W96
	.byte	PATT
	 .word	seq_115_6 + 0x91
	.byte	W96
	.byte	W96
	.byte	W96
	.byte	PATT
	 .word	seq_115_6 + 0x91
	.byte	W96
	.byte	W96
	.byte	W96
	.byte	PATT
	 .word	seq_115_6 + 0x91
	.byte	W96
	.byte	W92
	.byte	W03
	.byte		MOD   , 120
	.byte	W01
	.byte		N02   , Gn4 , v120
	.byte	W02
	.byte		        Gn5 , v060
	.byte	W02
	.byte		        Gn4 , v040
	.byte	W02
	.byte		        Gn5 
	.byte	W02
	.byte		        Gn4 
	.byte	W02
	.byte		        Gn5 
	.byte	W02
	.byte		        Gn4 , v020
	.byte	W02
	.byte		        Gn5 
	.byte	W02
	.byte		        Gn4 
	.byte	W02
	.byte		        Gn5 
	.byte	W02
	.byte		        Gn4 
	.byte	W02
	.byte		        Gn5 
	.byte	W72
	.byte	W02
	.byte		        An4 , v120
	.byte	W02
	.byte		        An5 , v060
	.byte	W02
	.byte		        An4 , v040
	.byte	W02
	.byte		        An5 
	.byte	W02
	.byte		        An4 
	.byte	W02
	.byte		        An5 , v020
	.byte	W02
	.byte		        En4 , v120
	.byte	W02
	.byte		        En5 , v060
	.byte	W02
	.byte		        En4 , v040
	.byte	W02
	.byte		        En5 
	.byte	W02
	.byte		        En4 
	.byte	W02
	.byte		        En5 , v020
	.byte	W02
	.byte		        Cs5 , v120
	.byte	W02
	.byte		        Cs6 , v060
	.byte	W02
	.byte		        Cs5 , v040
	.byte	W02
	.byte		        Cs6 
	.byte	W02
	.byte		        Cs5 
	.byte	W02
	.byte		        Cs6 
	.byte	W02
	.byte		        Cs5 
	.byte	W02
	.byte		        Cs6 
	.byte	W02
	.byte		        Cs5 
	.byte	W02
	.byte		        Cs6 , v020
	.byte	W02
	.byte		        Cs5 
	.byte	W02
	.byte		        Cs6 
	.byte	W02
	.byte		        Cs5 
	.byte	W02
	.byte		        Cs6 
	.byte	W02
	.byte		        Cs5 
	.byte	W02
	.byte		        Cs6 
	.byte	W02
	.byte		        Cs5 
	.byte	W02
	.byte		        Cs6 
	.byte	W02
	.byte		        En5 , v120
	.byte	W02
	.byte		        En6 , v060
	.byte	W02
	.byte		        En5 , v040
	.byte	W02
	.byte		        En6 
	.byte	W02
	.byte		        En5 
	.byte	W02
	.byte		        En6 , v020
	.byte	W02
	.byte		        En5 
	.byte	W02
	.byte		        En6 
	.byte	W02
	.byte		        En5 
	.byte	W02
	.byte		        En6 
	.byte	W02
	.byte		        En5 
	.byte	W02
	.byte		        En6 
	.byte	W02
	.byte		        En5 
	.byte	W02
	.byte		        En6 
	.byte	W02
	.byte		        En5 
	.byte	W02
	.byte		        En6 
	.byte	W02
	.byte		        En5 
	.byte	W02
	.byte		        En6 
	.byte	W02
	.byte	W96
	.byte	W96
	.byte		        Cn5 , v120
	.byte	W02
	.byte		        Cn6 , v060
	.byte	W02
	.byte		        Cn5 , v040
	.byte	W02
	.byte		        Cn6 
	.byte	W02
	.byte		        Cn5 
	.byte	W02
	.byte		        Cn6 
	.byte	W02
	.byte		        Cn5 , v020
	.byte	W02
	.byte		        Cn6 
	.byte	W02
	.byte		        Cn5 
	.byte	W02
	.byte		        Cn6 
	.byte	W02
	.byte		        Cn5 
	.byte	W02
	.byte		        Cn6 
	.byte	W72
	.byte	W02
	.byte		        Cs5 , v120
	.byte	W02
	.byte		        Cs6 , v060
	.byte	W02
	.byte		        Cs5 , v040
	.byte	W02
	.byte		        Cs6 
	.byte	W02
	.byte		        Cs5 
	.byte	W02
	.byte		        Cs6 , v020
	.byte	W02
	.byte		        Gs4 , v120
	.byte	W02
	.byte		        Gs5 , v060
	.byte	W02
	.byte		        Gs4 , v040
	.byte	W02
	.byte		        Gs5 
	.byte	W02
	.byte		        Gs4 
	.byte	W02
	.byte		        Gs5 , v020
	.byte	W02
	.byte		        Fn5 , v120
	.byte	W02
	.byte		        Fn6 , v060
	.byte	W02
	.byte		        Fn5 , v040
	.byte	W02
	.byte		        Fn6 
	.byte	W02
	.byte		        Fn5 
	.byte	W02
	.byte		        Fn6 
	.byte	W02
	.byte		        Fn5 
	.byte	W02
	.byte		        Fn6 
	.byte	W02
	.byte		        Fn5 
	.byte	W02
	.byte		        Fn6 , v020
	.byte	W02
	.byte		        Fn5 
	.byte	W02
	.byte		        Fn6 
	.byte	W02
	.byte		        Fn5 
	.byte	W02
	.byte		        Fn6 
	.byte	W02
	.byte		        Fn5 
	.byte	W02
	.byte		        Fn6 
	.byte	W02
	.byte		        Fn5 
	.byte	W02
	.byte		        Fn6 
	.byte	W02
	.byte		        Ds5 , v120
	.byte	W02
	.byte		        Ds6 , v060
	.byte	W02
	.byte		        Ds5 , v040
	.byte	W02
	.byte		        Ds6 
	.byte	W02
	.byte		        Ds5 
	.byte	W02
	.byte		        Ds6 , v020
	.byte	W02
	.byte		        Ds5 
	.byte	W02
	.byte		        Ds6 
	.byte	W02
	.byte		        Ds5 
	.byte	W02
	.byte		        Ds6 
	.byte	W02
	.byte		        Ds5 
	.byte	W02
	.byte		        Ds6 
	.byte	W13
	.byte		MOD   , 80
	.byte	W01
	.byte	W12
	.byte		N02   , Dn4 , v120
	.byte	W02
	.byte		        Dn5 , v060
	.byte	W02
	.byte		        Dn4 , v040
	.byte	W02
	.byte		        Dn5 
	.byte	W02
	.byte		        Dn4 
	.byte	W02
	.byte		        Dn5 , v020
	.byte	W02
	.byte		        Gn4 , v120
	.byte	W02
	.byte		        Gn5 , v060
	.byte	W02
	.byte		        Gn4 , v040
	.byte	W02
	.byte		        Gn5 
	.byte	W02
	.byte		        Gn4 
	.byte	W02
	.byte		        Gn5 , v020
	.byte	W02
	.byte		        Dn5 , v120
	.byte	W02
	.byte		        Dn6 , v060
	.byte	W02
	.byte		        Dn5 , v040
	.byte	W02
	.byte		        Dn6 
	.byte	W02
	.byte		        Dn5 
	.byte	W02
	.byte		        Dn6 , v020
	.byte	W02
	.byte		        An4 , v120
	.byte	W02
	.byte		        An5 , v060
	.byte	W02
	.byte		        An4 , v040
	.byte	W02
	.byte		        An5 
	.byte	W02
	.byte		        An4 
	.byte	W02
	.byte		        An5 , v020
	.byte	W02
	.byte		        En5 , v120
	.byte	W02
	.byte		        En6 , v060
	.byte	W02
	.byte		        En5 , v040
	.byte	W02
	.byte		        En6 
	.byte	W02
	.byte		        En5 
	.byte	W02
	.byte		        En6 , v020
	.byte	W02
	.byte		        Bn5 , v120
	.byte	W02
	.byte		        Bn6 , v060
	.byte	W02
	.byte		        Bn5 , v040
	.byte	W02
	.byte		        Bn6 
	.byte	W02
	.byte		        Bn5 
	.byte	W02
	.byte		        Bn6 , v020
	.byte	W02
	.byte		        Fs6 , v120
	.byte	W02
	.byte		        Fs7 , v060
	.byte	W02
	.byte		        Fs6 , v040
	.byte	W02
	.byte		        Fs7 
	.byte	W02
	.byte		        Fs6 
	.byte	W02
	.byte		        Fs7 , v020
	.byte	W02
	.byte	GOTO
	 .word	seq_115_6 + 0x8A
	.byte	FINE

@*********************** Track 08 ***********************@

seq_115_7:
	.byte	KEYSH , seq_115_key+0
	.byte	W18
	.byte		VOICE , 21
	.byte	W01
	.byte		VOL   , 25*seq_115_mvl/mxv
	.byte	W01
	.byte		PAN   , c_v-24
	.byte	W01
	.byte		LFOS  , 0
	.byte	W01
	.byte		MODT  , mod_vib
	.byte	W01
	.byte		LFODL , 0
	.byte	W01
	.byte	W96
	.byte		N72   , En2 , v120
	.byte	W15
	.byte		VOL   , 31*seq_115_mvl/mxv
	.byte	W16
	.byte		        37*seq_115_mvl/mxv
	.byte	W16
	.byte		        44*seq_115_mvl/mxv
	.byte	W13
	.byte		        50*seq_115_mvl/mxv
	.byte	W12
	.byte		N12   , Dn2 
	.byte	W12
	.byte		        Cs2 , v100
	.byte	W12
	.byte	PEND
	.byte		N96   , Dn2 , v120
	.byte	W11
	.byte		VOL   , 44*seq_115_mvl/mxv
	.byte	W02
	.byte		        37*seq_115_mvl/mxv
	.byte	W03
	.byte		        31*seq_115_mvl/mxv
	.byte	W24
	.byte	W03
	.byte		        37*seq_115_mvl/mxv
	.byte	W14
	.byte		        44*seq_115_mvl/mxv
	.byte	W14
	.byte		        50*seq_115_mvl/mxv
	.byte	W07
	.byte		        44*seq_115_mvl/mxv
	.byte	W04
	.byte		        37*seq_115_mvl/mxv
	.byte	W03
	.byte		        31*seq_115_mvl/mxv
	.byte	W03
	.byte		        25*seq_115_mvl/mxv
	.byte	W03
	.byte		        18*seq_115_mvl/mxv
	.byte	W03
	.byte		        12*seq_115_mvl/mxv
	.byte	W02
	.byte	PEND
	.byte	W96
	.byte	W92
	.byte	W03
	.byte		        25*seq_115_mvl/mxv
	.byte	W01
	.byte	PATT
	 .word	seq_115_7 + 0x16
	.byte	PATT
	 .word	seq_115_7 + 0x2A
	.byte	W96
	.byte	W96
	.byte	W96
	.byte	W96
	.byte	W96
	.byte	W96
	.byte	W96
	.byte	W96
	.byte	W96
	.byte	W96
	.byte	W23
	.byte		VOL   , 50*seq_115_mvl/mxv
	.byte	W01
	.byte		N24   , En2 , v120
	.byte	W24
	.byte		        An2 
	.byte	W24
	.byte		        En2 , v100
	.byte	W24
	.byte	PEND
	.byte		N84   , Fn2 , v120
	.byte	W64
	.byte		VOL   , 44*seq_115_mvl/mxv
	.byte	W05
	.byte		        37*seq_115_mvl/mxv
	.byte	W05
	.byte		        31*seq_115_mvl/mxv
	.byte	W02
	.byte		        25*seq_115_mvl/mxv
	.byte	W03
	.byte		        18*seq_115_mvl/mxv
	.byte	W02
	.byte		        12*seq_115_mvl/mxv
	.byte	W01
	.byte		        6*seq_115_mvl/mxv
	.byte	W02
	.byte		        0*seq_115_mvl/mxv
	.byte	W12
	.byte	PEND
	.byte	W96
	.byte	W96
	.byte	PATT
	 .word	seq_115_7 + 0x62
	.byte	PATT
	 .word	seq_115_7 + 0x70
	.byte	W96
	.byte	W96
	.byte	W96
	.byte	W96
	.byte	W96
	.byte	W96
	.byte	W96
	.byte	W96
	.byte	W96
	.byte	W96
	.byte	W92
	.byte	W02
	.byte		VOL   , 25*seq_115_mvl/mxv
	.byte	W02
	.byte	GOTO
	 .word	seq_115_7 + 0x16
	.byte	FINE

@*********************** Track 09 ***********************@

seq_115_8:
	.byte	KEYSH , seq_115_key+0
	.byte	W12
	.byte		VOICE , 104
	.byte	W01
	.byte		VOL   , 80*seq_115_mvl/mxv
	.byte	W01
	.byte		PAN   , c_v+0
	.byte	W01
	.byte		LFOS  , 30
	.byte	W01
	.byte		BENDR , 12
	.byte	W01
	.byte		LFODL , 0
	.byte	W07
	.byte	W96
	.byte	W01
	.byte		N03   , Bn1 , v120
	.byte	W05
	.byte		N02   , Bn1 , v040
	.byte	W07
	.byte		N03   , Bn1 , v120
	.byte	W05
	.byte		N02   , Bn1 , v040
	.byte	W07
	.byte		N03
	.byte	W12
	.byte		N03
	.byte	W12
	.byte		        Bn1 , v120
	.byte	W12
	.byte		        Bn1 , v080
	.byte	W12
	.byte		        Bn1 , v040
	.byte	W12
	.byte		N03
	.byte	W11
	.byte	PEND
	.byte	W01
	.byte		N03   , Cn2 , v120
	.byte	W05
	.byte		N02   , Cn2 , v040
	.byte	W07
	.byte		N03   , Cn2 , v120
	.byte	W05
	.byte		N02   , Cn2 , v040
	.byte	W07
	.byte		N03
	.byte	W12
	.byte		N03
	.byte	W12
	.byte		        Cn2 , v120
	.byte	W12
	.byte		        Cn2 , v080
	.byte	W12
	.byte		        Cn2 , v040
	.byte	W12
	.byte		N03
	.byte	W11
	.byte	PEND
	.byte	PATT
	 .word	seq_115_8 + 0x16
	.byte	PATT
	 .word	seq_115_8 + 0x37
	.byte	PATT
	 .word	seq_115_8 + 0x16
	.byte	PATT
	 .word	seq_115_8 + 0x37
	.byte	PATT
	 .word	seq_115_8 + 0x16
	.byte	PATT
	 .word	seq_115_8 + 0x37
	.byte	PATT
	 .word	seq_115_8 + 0x16
	.byte	PATT
	 .word	seq_115_8 + 0x37
	.byte	PATT
	 .word	seq_115_8 + 0x16
	.byte	PATT
	 .word	seq_115_8 + 0x37
	.byte	PATT
	 .word	seq_115_8 + 0x16
	.byte	PATT
	 .word	seq_115_8 + 0x37
	.byte	PATT
	 .word	seq_115_8 + 0x16
	.byte	PATT
	 .word	seq_115_8 + 0x37
	.byte	PATT
	 .word	seq_115_8 + 0x16
	.byte	PATT
	 .word	seq_115_8 + 0x37
	.byte	PATT
	 .word	seq_115_8 + 0x16
	.byte	PATT
	 .word	seq_115_8 + 0x37
	.byte	PATT
	 .word	seq_115_8 + 0x16
	.byte	PATT
	 .word	seq_115_8 + 0x37
	.byte	PATT
	 .word	seq_115_8 + 0x16
	.byte	PATT
	 .word	seq_115_8 + 0x37
	.byte	W01
	.byte		N03   , An1 , v120
	.byte	W05
	.byte		N02   , An1 , v040
	.byte	W07
	.byte		N03   , An1 , v120
	.byte	W05
	.byte		N02   , An1 , v040
	.byte	W07
	.byte		N03
	.byte	W12
	.byte		N03
	.byte	W12
	.byte		        An1 , v120
	.byte	W12
	.byte		        An1 , v080
	.byte	W12
	.byte		        An1 , v040
	.byte	W12
	.byte		N03
	.byte	W11
	.byte	PEND
	.byte	PATT
	 .word	seq_115_8 + 0x16
	.byte	PATT
	 .word	seq_115_8 + 0xC6
	.byte	PATT
	 .word	seq_115_8 + 0x16
	.byte	PATT
	 .word	seq_115_8 + 0x37
	.byte	W01
	.byte		N03   , Cs2 , v120
	.byte	W05
	.byte		N02   , Cs2 , v040
	.byte	W07
	.byte		N03   , Cs2 , v120
	.byte	W05
	.byte		N02   , Cs2 , v040
	.byte	W07
	.byte		N03
	.byte	W12
	.byte		N03
	.byte	W12
	.byte		        Cs2 , v120
	.byte	W12
	.byte		        Cs2 , v080
	.byte	W12
	.byte		        Cs2 , v040
	.byte	W12
	.byte		N03
	.byte	W11
	.byte	W01
	.byte		        Dn2 , v120
	.byte	W05
	.byte		N02   , Dn2 , v040
	.byte	W07
	.byte		N03   , Dn2 , v120
	.byte	W05
	.byte		N02   , Dn2 , v040
	.byte	W07
	.byte		N03
	.byte	W12
	.byte		N03
	.byte	W12
	.byte		        Dn2 , v120
	.byte	W12
	.byte		        Dn2 , v080
	.byte	W12
	.byte		        Dn2 , v040
	.byte	W12
	.byte		N03
	.byte	W11
	.byte	W01
	.byte		        Ds2 , v120
	.byte	W05
	.byte		N02   , Ds2 , v040
	.byte	W07
	.byte		N03   , Ds2 , v080
	.byte	W05
	.byte		N02   , Ds2 , v040
	.byte	W07
	.byte		N03   , Ds2 , v120
	.byte	W05
	.byte		N02   , Ds2 , v040
	.byte	W07
	.byte		N03
	.byte	W05
	.byte		N02
	.byte	W07
	.byte		N12   , Ds2 , v120
	.byte	W12
	.byte		N09   , Cs2 
	.byte	W09
	.byte		N04   , Cs2 , v080
	.byte	W15
	.byte		N06   , Cn2 , v120
	.byte	W06
	.byte		N04   , Cn2 , v080
	.byte	W05
	.byte	W12
	.byte		BEND  , c_v-64
	.byte	W01
	.byte		N18   , An1 , v120
	.byte	W01
	.byte		BEND  , c_v-54
	.byte	W05
	.byte		        c_v-32
	.byte	W01
	.byte		        c_v-16
	.byte	W01
	.byte		        c_v-12
	.byte	W01
	.byte		        c_v+0
	.byte	W03
	.byte		MOD   , 10
	.byte	W01
	.byte		        20
	.byte	W01
	.byte		BEND  , c_v-6
	.byte	W01
	.byte		        c_v-8
	.byte	W01
	.byte		        c_v-10
	.byte	W01
	.byte		        c_v-12
	.byte	W01
	.byte		N06   , An1 , v080
	.byte	W01
	.byte		BEND  , c_v-15
	.byte	W01
	.byte		        c_v-19
	.byte	W01
	.byte		        c_v-25
	.byte	W01
	.byte		        c_v+0
	.byte	W01
	.byte		MOD   , 0
	.byte	W01
	.byte		N03   , Dn1 , v120
	.byte	W03
	.byte		        Dn1 , v040
	.byte	W09
	.byte		N04   , An1 , v120
	.byte	W04
	.byte		N03   , An1 , v040
	.byte	W08
	.byte		N05   , An1 , v120
	.byte	W05
	.byte		N03   , An1 , v040
	.byte	W19
	.byte		N04   , An1 , v120
	.byte	W04
	.byte		N03   , An1 , v040
	.byte	W07
	.byte	GOTO
	 .word	seq_115_8 + 0x16
	.byte	FINE

@*********************** Track 10 ***********************@

seq_115_9:
	.byte	KEYSH , seq_115_key+0
	.byte	W12
	.byte		VOICE , 74
	.byte	W01
	.byte		VOL   , 44*seq_115_mvl/mxv
	.byte	W01
	.byte		PAN   , c_v+0
	.byte	W01
	.byte		LFOS  , 10
	.byte	W01
	.byte		MODT  , mod_pan
	.byte	W01
	.byte		MOD   , 0
	.byte	W07
	.byte	W96
	.byte		N12   , An4 , v120
	.byte	W11
	.byte		VOICE , 76
	.byte	W01
	.byte		N12   , An4 , v040
	.byte	W11
	.byte		VOICE , 74
	.byte	W01
	.byte		N12   , En4 , v120
	.byte	W11
	.byte		VOICE , 76
	.byte	W01
	.byte		N12   , En4 , v040
	.byte	W11
	.byte		VOICE , 74
	.byte	W01
	.byte		N12   , Cs4 , v120
	.byte	W11
	.byte		VOICE , 76
	.byte	W01
	.byte		N12   , Cs4 , v040
	.byte	W11
	.byte		VOICE , 74
	.byte	W01
	.byte		N12   , An3 , v120
	.byte	W11
	.byte		VOICE , 79
	.byte	W01
	.byte		N12   , An3 , v040
	.byte	W12
	.byte		N06   , As3 , v100
	.byte	W05
	.byte		VOICE , 74
	.byte	W01
	.byte		N06   , Cn4 , v120
	.byte	W05
	.byte		VOICE , 76
	.byte	W01
	.byte		N12   , Dn4 
	.byte	W11
	.byte		VOICE , 74
	.byte	W01
	.byte		N12   , Cn4 
	.byte	W11
	.byte		VOICE , 76
	.byte	W01
	.byte		N12   , As3 
	.byte	W11
	.byte		VOICE , 74
	.byte	W01
	.byte		N12   , An3 
	.byte	W11
	.byte		VOICE , 76
	.byte	W01
	.byte		N12   , An3 , v060
	.byte	W11
	.byte		VOICE , 74
	.byte	W01
	.byte		N12   , Gn3 , v120
	.byte	W11
	.byte		VOICE , 76
	.byte	W01
	.byte		N12   , Gn3 , v060
	.byte	W11
	.byte		VOICE , 74
	.byte	W01
	.byte	PEND
	.byte		N12   , An3 , v120
	.byte	W11
	.byte		VOICE , 76
	.byte	W01
	.byte		N12   , An3 , v060
	.byte	W12
	.byte		N06   , An3 , v020
	.byte	W72
	.byte	PEND
	.byte		VOICE , 79
	.byte	W01
	.byte		MOD   , 120
	.byte	W01
	.byte		N02   , Fn5 , v100
	.byte	W02
	.byte		        As5 , v040
	.byte	W02
	.byte		        Fn5 , v020
	.byte	W02
	.byte		N02
	.byte	W02
	.byte		        As5 
	.byte	W02
	.byte		        Fn5 
	.byte	W02
	.byte		        Dn5 , v100
	.byte	W02
	.byte		        Fn5 , v040
	.byte	W02
	.byte		        Dn5 , v020
	.byte	W02
	.byte		N02
	.byte	W02
	.byte		        Fn5 
	.byte	W02
	.byte		        Dn5 
	.byte	W02
	.byte		        As4 , v100
	.byte	W02
	.byte		        En5 , v040
	.byte	W02
	.byte		        As4 
	.byte	W02
	.byte		N02
	.byte	W02
	.byte		        En5 , v020
	.byte	W02
	.byte		        As4 
	.byte	W56
	.byte	W03
	.byte		VOICE , 74
	.byte	W01
	.byte		N12   , An5 , v120
	.byte	W11
	.byte		VOICE , 76
	.byte	W01
	.byte		N12   , An5 , v080
	.byte	W10
	.byte		MOD   , 60
	.byte	W01
	.byte		VOICE , 74
	.byte	W01
	.byte		N12   , En5 , v120
	.byte	W11
	.byte		VOICE , 76
	.byte	W01
	.byte		N12   , En5 , v080
	.byte	W10
	.byte		MOD   , 0
	.byte	W01
	.byte		VOICE , 74
	.byte	W01
	.byte		N12   , Cs5 , v120
	.byte	W11
	.byte		VOICE , 76
	.byte	W01
	.byte		N12   , Cs5 , v080
	.byte	W10
	.byte		MOD   , 60
	.byte	W01
	.byte		VOICE , 74
	.byte	W01
	.byte		N12   , An4 , v120
	.byte	W11
	.byte		VOICE , 79
	.byte	W01
	.byte		N12   , An4 , v080
	.byte	W11
	.byte		MOD   , 0
	.byte	W01
	.byte	PEND
	.byte		N06   , As4 , v100
	.byte	W05
	.byte		VOICE , 74
	.byte	W01
	.byte		N06   , Cn5 , v120
	.byte	W05
	.byte		VOICE , 76
	.byte	W01
	.byte		N12   , Dn5 
	.byte	W11
	.byte		VOICE , 74
	.byte	W01
	.byte		N12   , Cn5 
	.byte	W11
	.byte		VOICE , 76
	.byte	W01
	.byte		N12   , As4 
	.byte	W11
	.byte		VOICE , 74
	.byte	W01
	.byte		N12   , An4 
	.byte	W11
	.byte		VOICE , 76
	.byte	W01
	.byte		N12   , An4 , v060
	.byte	W11
	.byte		VOICE , 74
	.byte	W01
	.byte		N12   , En5 , v120
	.byte	W11
	.byte		VOICE , 76
	.byte	W01
	.byte		N12   , En5 , v060
	.byte	W11
	.byte		VOICE , 74
	.byte	W01
	.byte	PEND
	.byte		N12   , An5 , v120
	.byte	W11
	.byte		VOICE , 76
	.byte	W01
	.byte		N12   , An5 , v060
	.byte	W12
	.byte		N06   , An5 , v020
	.byte	W72
	.byte	PEND
	.byte		VOICE , 79
	.byte	W01
	.byte		MOD   , 120
	.byte	W01
	.byte		N02   , Fn5 , v100
	.byte	W02
	.byte		        As5 , v040
	.byte	W02
	.byte		        Fn5 , v020
	.byte	W02
	.byte		N02
	.byte	W02
	.byte		        As5 
	.byte	W02
	.byte		        Fn5 
	.byte	W02
	.byte		        Dn5 , v100
	.byte	W02
	.byte		        Fn5 , v040
	.byte	W02
	.byte		        Dn5 , v020
	.byte	W02
	.byte		N02
	.byte	W02
	.byte		        Fn5 
	.byte	W02
	.byte		        Dn5 
	.byte	W02
	.byte		        As4 , v100
	.byte	W02
	.byte		        En5 , v040
	.byte	W02
	.byte		        As4 
	.byte	W02
	.byte		N02
	.byte	W02
	.byte		        En5 , v020
	.byte	W02
	.byte		        As4 
	.byte	W56
	.byte	W02
	.byte		MOD   , 80
	.byte	W01
	.byte		VOICE , 74
	.byte	W01
	.byte	PEND
	.byte		N12   , An4 , v120
	.byte	W11
	.byte		VOICE , 76
	.byte	W01
	.byte		N12   , An4 , v080
	.byte	W11
	.byte		VOICE , 74
	.byte	W01
	.byte		N12   , En4 , v120
	.byte	W11
	.byte		VOICE , 76
	.byte	W01
	.byte		N12   , En4 , v080
	.byte	W11
	.byte		VOICE , 74
	.byte	W01
	.byte		N12   , Cs4 , v120
	.byte	W11
	.byte		VOICE , 76
	.byte	W01
	.byte		N12   , Cs4 , v080
	.byte	W11
	.byte		VOICE , 74
	.byte	W01
	.byte		N12   , An3 , v120
	.byte	W11
	.byte		VOICE , 79
	.byte	W01
	.byte		N12   , An3 , v080
	.byte	W12
	.byte	PEND
	.byte	PATT
	 .word	seq_115_9 + 0x4B
	.byte	PATT
	 .word	seq_115_9 + 0x87
	.byte	PATT
	 .word	seq_115_9 + 0x15D
	.byte	PATT
	 .word	seq_115_9 + 0x199
	.byte		N06   , As3 , v100
	.byte	W05
	.byte		VOICE , 74
	.byte	W01
	.byte		N06   , Cn4 , v120
	.byte	W05
	.byte		VOICE , 76
	.byte	W01
	.byte		N12   , Dn4 
	.byte	W11
	.byte		VOICE , 74
	.byte	W01
	.byte		N12   , Cn4 
	.byte	W11
	.byte		VOICE , 76
	.byte	W01
	.byte		N12   , As3 
	.byte	W11
	.byte		VOICE , 74
	.byte	W01
	.byte		N12   , An3 
	.byte	W11
	.byte		VOICE , 76
	.byte	W01
	.byte		N12   , An3 , v060
	.byte	W11
	.byte		VOICE , 74
	.byte	W01
	.byte		N12   , En4 , v120
	.byte	W11
	.byte		VOICE , 76
	.byte	W01
	.byte		N12   , En4 , v060
	.byte	W11
	.byte		VOICE , 74
	.byte	W01
	.byte		N12   , An4 , v120
	.byte	W11
	.byte		VOICE , 76
	.byte	W01
	.byte		N12   , An4 , v060
	.byte	W12
	.byte		N06   , An4 , v020
	.byte	W72
	.byte		VOICE , 79
	.byte	W01
	.byte		MOD   , 120
	.byte	W01
	.byte		N02   , Fn5 , v100
	.byte	W02
	.byte		        As5 , v040
	.byte	W02
	.byte		        Fn5 , v020
	.byte	W02
	.byte		N02
	.byte	W02
	.byte		        As5 
	.byte	W02
	.byte		        Fn5 
	.byte	W02
	.byte		        Dn5 , v100
	.byte	W02
	.byte		        Fn5 , v040
	.byte	W02
	.byte		        Dn5 , v020
	.byte	W02
	.byte		N02
	.byte	W02
	.byte		        Fn5 
	.byte	W02
	.byte		        Dn5 
	.byte	W02
	.byte		        As4 , v100
	.byte	W02
	.byte		        En5 , v040
	.byte	W02
	.byte		        As4 
	.byte	W02
	.byte		N02
	.byte	W02
	.byte		        En5 , v020
	.byte	W02
	.byte		        As4 
	.byte	W56
	.byte	W02
	.byte		MOD   , 0
	.byte	W01
	.byte		VOICE , 74
	.byte	W01
	.byte		N12   , An4 , v120
	.byte	W11
	.byte		VOICE , 76
	.byte	W01
	.byte		N12   , An4 , v080
	.byte	W10
	.byte		MOD   , 60
	.byte	W01
	.byte		VOICE , 74
	.byte	W01
	.byte		N12   , En4 , v120
	.byte	W11
	.byte		VOICE , 76
	.byte	W01
	.byte		N12   , En4 , v080
	.byte	W10
	.byte		MOD   , 0
	.byte	W01
	.byte		VOICE , 74
	.byte	W01
	.byte		N12   , Cs4 , v120
	.byte	W11
	.byte		VOICE , 76
	.byte	W01
	.byte		N12   , Cs4 , v080
	.byte	W10
	.byte		MOD   , 60
	.byte	W01
	.byte		VOICE , 74
	.byte	W01
	.byte		N12   , An3 , v120
	.byte	W11
	.byte		VOICE , 79
	.byte	W01
	.byte		N12   , An3 , v080
	.byte	W11
	.byte		MOD   , 0
	.byte	W01
	.byte	PATT
	 .word	seq_115_9 + 0x4B
	.byte	PATT
	 .word	seq_115_9 + 0x87
	.byte		VOICE , 79
	.byte	W01
	.byte		MOD   , 120
	.byte	W01
	.byte		N02   , Fn4 , v100
	.byte	W02
	.byte		        As4 , v040
	.byte	W02
	.byte		        Fn4 , v020
	.byte	W02
	.byte		N02
	.byte	W02
	.byte		        As4 
	.byte	W02
	.byte		        Fn4 
	.byte	W02
	.byte		        Dn4 , v100
	.byte	W02
	.byte		        Fn4 , v040
	.byte	W02
	.byte		        Dn4 , v020
	.byte	W02
	.byte		N02
	.byte	W02
	.byte		        Fn4 
	.byte	W02
	.byte		        Dn4 
	.byte	W02
	.byte		        As3 , v100
	.byte	W02
	.byte		        En4 , v040
	.byte	W02
	.byte		        As3 
	.byte	W02
	.byte		N02
	.byte	W02
	.byte		        En4 , v020
	.byte	W02
	.byte		        As3 
	.byte	W56
	.byte	W02
	.byte		MOD   , 0
	.byte	W01
	.byte		VOICE , 74
	.byte	W01
	.byte	PATT
	 .word	seq_115_9 + 0xCF
	.byte	PATT
	 .word	seq_115_9 + 0x111
	.byte	PATT
	 .word	seq_115_9 + 0x14D
	.byte		VOICE , 79
	.byte	W01
	.byte		MOD   , 120
	.byte	W01
	.byte		N02   , Fn5 , v100
	.byte	W02
	.byte		        As5 , v040
	.byte	W02
	.byte		        Fn5 , v020
	.byte	W02
	.byte		N02
	.byte	W02
	.byte		        As5 
	.byte	W02
	.byte		        Fn5 
	.byte	W02
	.byte		        Dn5 , v100
	.byte	W02
	.byte		        Fn5 , v040
	.byte	W02
	.byte		        Dn5 , v020
	.byte	W02
	.byte		N02
	.byte	W02
	.byte		        Fn5 
	.byte	W02
	.byte		        Dn5 
	.byte	W02
	.byte		        As4 , v100
	.byte	W02
	.byte		        En5 , v040
	.byte	W02
	.byte		        As4 
	.byte	W02
	.byte		N02
	.byte	W02
	.byte		        En5 , v020
	.byte	W02
	.byte		        As4 
	.byte	W60
	.byte	W22
	.byte		MOD   , 60
	.byte	W01
	.byte		VOICE , 74
	.byte	W01
	.byte		N12   , Dn5 , v120
	.byte	W11
	.byte		VOICE , 76
	.byte	W01
	.byte		N12   , Dn5 , v060
	.byte	W10
	.byte		MOD   , 0
	.byte	W01
	.byte		VOICE , 74
	.byte	W01
	.byte		N12   , Bn4 , v120
	.byte	W11
	.byte		VOICE , 76
	.byte	W01
	.byte		N12   , Bn4 , v060
	.byte	W10
	.byte		MOD   , 60
	.byte	W01
	.byte		VOICE , 74
	.byte	W01
	.byte		N12   , Gn5 , v120
	.byte	W11
	.byte		VOICE , 79
	.byte	W01
	.byte		N12   , Gn5 , v060
	.byte	W11
	.byte		MOD   , 0
	.byte	W01
	.byte		N12   , En5 , v120
	.byte	W11
	.byte		VOICE , 76
	.byte	W01
	.byte		N12   , En5 , v060
	.byte	W12
	.byte		        En5 , v040
	.byte	W12
	.byte		        En5 , v020
	.byte	W11
	.byte		VOICE , 74
	.byte	W01
	.byte		N12   , An4 , v120
	.byte	W11
	.byte		VOICE , 76
	.byte	W01
	.byte		N12   , An4 , v060
	.byte	W11
	.byte		VOICE , 74
	.byte	W01
	.byte		N12   , En5 , v120
	.byte	W11
	.byte		VOICE , 76
	.byte	W01
	.byte		N12   , En5 , v060
	.byte	W11
	.byte		VOICE , 74
	.byte	W01
	.byte		N12   , Dn5 , v120
	.byte	W11
	.byte		VOICE , 76
	.byte	W01
	.byte		N06   , Dn5 , v060
	.byte	W06
	.byte		        Dn5 , v020
	.byte	W78
	.byte		VOICE , 79
	.byte	W01
	.byte		MOD   , 120
	.byte	W01
	.byte		N02   , En5 , v100
	.byte	W02
	.byte		        An5 , v040
	.byte	W02
	.byte		        En5 , v020
	.byte	W02
	.byte		        En5 , v060
	.byte	W02
	.byte		        An5 , v040
	.byte	W02
	.byte		        En5 , v020
	.byte	W02
	.byte		        Cs5 , v100
	.byte	W02
	.byte		        En5 , v040
	.byte	W02
	.byte		        Cs5 , v020
	.byte	W02
	.byte		        Cs5 , v060
	.byte	W02
	.byte		        En5 , v040
	.byte	W02
	.byte		        Cs5 , v020
	.byte	W02
	.byte		        An4 , v100
	.byte	W02
	.byte		        Ds5 , v040
	.byte	W02
	.byte		        An4 , v020
	.byte	W02
	.byte		        An4 , v060
	.byte	W02
	.byte		        Ds5 , v040
	.byte	W02
	.byte		        An4 , v020
	.byte	W60
	.byte	W22
	.byte		MOD   , 60
	.byte	W01
	.byte		VOICE , 74
	.byte	W01
	.byte		N12   , Fn5 , v120
	.byte	W11
	.byte		VOICE , 76
	.byte	W01
	.byte		N12   , Fn5 , v060
	.byte	W10
	.byte		MOD   , 0
	.byte	W01
	.byte		VOICE , 74
	.byte	W01
	.byte		N12   , Dn5 , v120
	.byte	W11
	.byte		VOICE , 76
	.byte	W01
	.byte		N12   , Dn5 , v060
	.byte	W10
	.byte		MOD   , 60
	.byte	W01
	.byte		VOICE , 74
	.byte	W01
	.byte		N12   , As5 , v120
	.byte	W11
	.byte		VOICE , 79
	.byte	W01
	.byte		N12   , As5 , v060
	.byte	W11
	.byte		MOD   , 0
	.byte	W01
	.byte		N12   , Fs5 , v120
	.byte	W11
	.byte		VOICE , 76
	.byte	W01
	.byte		N12   , Fs5 , v060
	.byte	W12
	.byte		        Fs5 , v040
	.byte	W12
	.byte		        Fs5 , v020
	.byte	W11
	.byte		VOICE , 74
	.byte	W01
	.byte		N12   , Bn4 , v120
	.byte	W11
	.byte		VOICE , 76
	.byte	W01
	.byte		N12   , Bn4 , v060
	.byte	W11
	.byte		VOICE , 74
	.byte	W01
	.byte		N12   , Fs5 , v120
	.byte	W11
	.byte		VOICE , 76
	.byte	W01
	.byte		N12   , Fs5 , v060
	.byte	W11
	.byte		VOICE , 74
	.byte	W01
	.byte		N12   , En5 , v120
	.byte	W11
	.byte		VOICE , 76
	.byte	W01
	.byte		N06   , En5 , v060
	.byte	W06
	.byte		        En5 , v020
	.byte	W78
	.byte	W01
	.byte		VOICE , 79
	.byte	W01
	.byte		N02   , Gs5 , v100
	.byte	W02
	.byte		        Cs6 , v040
	.byte	W02
	.byte		        Gs5 , v020
	.byte	W02
	.byte		        Gs5 , v060
	.byte	W02
	.byte		        Cs6 , v040
	.byte	W02
	.byte		        Gs5 , v020
	.byte	W02
	.byte		        Fn5 , v100
	.byte	W02
	.byte		        Gs5 , v040
	.byte	W02
	.byte		        Fn5 , v020
	.byte	W02
	.byte		        Fn5 , v060
	.byte	W02
	.byte		        Gs5 , v040
	.byte	W02
	.byte		        Fn5 , v020
	.byte	W02
	.byte		        Cs5 , v100
	.byte	W02
	.byte		        Gn5 , v040
	.byte	W02
	.byte		        Cs5 , v020
	.byte	W02
	.byte		        Cs5 , v060
	.byte	W02
	.byte		        Gn5 , v040
	.byte	W02
	.byte		        Cs5 , v020
	.byte	W60
	.byte	W10
	.byte		VOICE , 74
	.byte	W02
	.byte		N02   , Dn3 , v120
	.byte	W02
	.byte		        Dn4 , v060
	.byte	W02
	.byte		        Dn3 , v040
	.byte	W02
	.byte		        Dn4 
	.byte	W02
	.byte		        Dn3 
	.byte	W02
	.byte		        Dn4 , v020
	.byte	W02
	.byte		        Gn3 , v120
	.byte	W02
	.byte		        Gn4 , v060
	.byte	W02
	.byte		        Gn3 , v040
	.byte	W02
	.byte		        Gn4 
	.byte	W02
	.byte		        Gn3 
	.byte	W02
	.byte		        Gn4 , v020
	.byte	W02
	.byte		        Dn4 , v120
	.byte	W02
	.byte		        Dn5 , v060
	.byte	W02
	.byte		        Dn4 , v040
	.byte	W02
	.byte		        Dn5 
	.byte	W02
	.byte		        Dn4 
	.byte	W02
	.byte		        Dn5 , v020
	.byte	W02
	.byte		        An3 , v120
	.byte	W02
	.byte		        An4 , v060
	.byte	W02
	.byte		        An3 , v040
	.byte	W02
	.byte		        An4 
	.byte	W02
	.byte		        An3 
	.byte	W02
	.byte		        An4 , v020
	.byte	W02
	.byte		        En4 , v120
	.byte	W02
	.byte		        En5 , v060
	.byte	W02
	.byte		        En4 , v040
	.byte	W02
	.byte		        En5 
	.byte	W02
	.byte		        En4 
	.byte	W02
	.byte		        En5 , v020
	.byte	W02
	.byte		        Bn4 , v120
	.byte	W02
	.byte		        Bn5 , v060
	.byte	W02
	.byte		        Bn4 , v040
	.byte	W02
	.byte		        Bn5 
	.byte	W02
	.byte		        Bn4 
	.byte	W02
	.byte		        Bn5 , v020
	.byte	W02
	.byte		        Fs5 , v120
	.byte	W02
	.byte		        Fs6 , v060
	.byte	W02
	.byte		        Fs5 , v040
	.byte	W02
	.byte		        Fs6 
	.byte	W02
	.byte		        Fs5 
	.byte	W02
	.byte		        Fs6 , v020
	.byte	W02
	.byte	GOTO
	 .word	seq_115_9 + 0x16
	.byte	FINE

@*********************** Track 11 ***********************@

seq_115_10:
	.byte	KEYSH , seq_115_key+0
	.byte	W18
	.byte		VOICE , 88
	.byte	W01
	.byte		VOL   , 31*seq_115_mvl/mxv
	.byte	W01
	.byte		PAN   , c_v+0
	.byte	W01
	.byte		LFOS  , 10
	.byte	W01
	.byte		MODT  , mod_pan
	.byte	W02
	.byte	W96
	.byte		N12   , Cs4 , v120
	.byte	W11
	.byte		VOICE , 80
	.byte	W01
	.byte		N12   , Cs4 , v060
	.byte	W11
	.byte		VOICE , 88
	.byte	W01
	.byte		N12   , An3 , v120
	.byte	W11
	.byte		VOICE , 80
	.byte	W01
	.byte		N12   , An3 , v060
	.byte	W11
	.byte		VOICE , 88
	.byte	W01
	.byte		N12   , En3 , v120
	.byte	W11
	.byte		VOICE , 80
	.byte	W01
	.byte		N12   , En3 , v060
	.byte	W11
	.byte		VOICE , 88
	.byte	W01
	.byte		N12   , Cs3 , v120
	.byte	W11
	.byte		VOICE , 80
	.byte	W01
	.byte		N12   , Cs3 , v060
	.byte	W12
	.byte	PEND
	.byte		N06   , Fn3 , v100
	.byte	W05
	.byte		VOICE , 88
	.byte	W01
	.byte		N06   , An3 , v120
	.byte	W05
	.byte		VOICE , 80
	.byte	W01
	.byte		N12   , As3 
	.byte	W11
	.byte		VOICE , 88
	.byte	W01
	.byte		N12   , An3 
	.byte	W11
	.byte		VOICE , 80
	.byte	W01
	.byte		N12   , Fn3 , v100
	.byte	W11
	.byte		VOICE , 88
	.byte	W01
	.byte		N12   , Fn3 , v120
	.byte	W11
	.byte		VOICE , 80
	.byte	W01
	.byte		N12   , Fn3 , v060
	.byte	W11
	.byte		VOICE , 88
	.byte	W01
	.byte		N12   , Dn3 , v120
	.byte	W11
	.byte		VOICE , 80
	.byte	W01
	.byte		N12   , Dn3 , v060
	.byte	W11
	.byte		VOICE , 88
	.byte	W01
	.byte	PEND
	.byte		N12   , Cs3 , v120
	.byte	W11
	.byte		VOICE , 80
	.byte	W01
	.byte		N06   , Cs3 , v060
	.byte	W06
	.byte		N12   , Cs3 , v020
	.byte	W05
	.byte		VOICE , 86
	.byte	W72
	.byte	W01
	.byte		N02   , Fn5 , v120
	.byte	W02
	.byte		        As5 , v060
	.byte	W02
	.byte		        Fn5 , v040
	.byte	W02
	.byte		        Fn5 , v060
	.byte	W02
	.byte		        As5 
	.byte	W02
	.byte		        Fn5 
	.byte	W02
	.byte		        Dn5 , v120
	.byte	W02
	.byte		        Fn5 , v060
	.byte	W02
	.byte		        Dn5 , v040
	.byte	W02
	.byte		        Dn5 , v060
	.byte	W02
	.byte		        Fn5 
	.byte	W02
	.byte		        Dn5 
	.byte	W02
	.byte		        As4 , v120
	.byte	W02
	.byte		        En5 , v060
	.byte	W02
	.byte		        As4 , v040
	.byte	W02
	.byte		N02
	.byte	W02
	.byte		        En5 
	.byte	W02
	.byte		        As4 
	.byte	W60
	.byte	W01
	.byte		VOICE , 88
	.byte	W01
	.byte		N12   , Cs5 , v120
	.byte	W11
	.byte		VOICE , 80
	.byte	W01
	.byte		N12   , Cs5 , v060
	.byte	W10
	.byte		MOD   , 60
	.byte	W01
	.byte		VOICE , 88
	.byte	W01
	.byte		N12   , An4 , v120
	.byte	W11
	.byte		VOICE , 80
	.byte	W01
	.byte		N12   , An4 , v060
	.byte	W10
	.byte		MOD   , 0
	.byte	W01
	.byte		VOICE , 88
	.byte	W01
	.byte		N12   , En4 , v120
	.byte	W11
	.byte		VOICE , 80
	.byte	W01
	.byte		N12   , En4 , v060
	.byte	W10
	.byte		MOD   , 60
	.byte	W01
	.byte		VOICE , 88
	.byte	W01
	.byte		N12   , Cs4 , v120
	.byte	W11
	.byte		VOICE , 80
	.byte	W01
	.byte		N12   , Cs4 , v060
	.byte	W11
	.byte		MOD   , 0
	.byte	W01
	.byte	PEND
	.byte		N06   , Fn4 , v100
	.byte	W05
	.byte		VOICE , 88
	.byte	W01
	.byte		N06   , An4 , v120
	.byte	W05
	.byte		VOICE , 80
	.byte	W01
	.byte		N12   , As4 
	.byte	W11
	.byte		VOICE , 88
	.byte	W01
	.byte		N12   , An4 
	.byte	W11
	.byte		VOICE , 80
	.byte	W01
	.byte		N12   , Fn4 , v100
	.byte	W11
	.byte		VOICE , 88
	.byte	W01
	.byte		N12   , Fn4 , v120
	.byte	W11
	.byte		VOICE , 80
	.byte	W01
	.byte		N12   , Fn4 , v060
	.byte	W11
	.byte		VOICE , 88
	.byte	W01
	.byte		N12   , Dn4 , v120
	.byte	W11
	.byte		VOICE , 80
	.byte	W01
	.byte		N12   , Dn4 , v060
	.byte	W11
	.byte		VOICE , 88
	.byte	W01
	.byte	PEND
	.byte		N12   , Cs4 , v120
	.byte	W11
	.byte		VOICE , 80
	.byte	W01
	.byte		N06   , Cs4 , v060
	.byte	W06
	.byte		N12   , Cs4 , v020
	.byte	W78
	.byte	PEND
	.byte		N02   , Fn5 , v120
	.byte	W02
	.byte		        As5 , v060
	.byte	W02
	.byte		        Fn5 , v040
	.byte	W02
	.byte		        Fn5 , v060
	.byte	W02
	.byte		        As5 
	.byte	W02
	.byte		        Fn5 
	.byte	W02
	.byte		        Dn5 , v120
	.byte	W02
	.byte		        Fn5 , v060
	.byte	W02
	.byte		        Dn5 , v040
	.byte	W02
	.byte		        Dn5 , v060
	.byte	W02
	.byte		        Fn5 
	.byte	W02
	.byte		        Dn5 
	.byte	W02
	.byte		        As4 , v120
	.byte	W02
	.byte		        En5 , v060
	.byte	W02
	.byte		        As4 , v040
	.byte	W02
	.byte		N02
	.byte	W02
	.byte		        En5 
	.byte	W02
	.byte		        As4 
	.byte	W60
	.byte		MOD   , 80
	.byte	W01
	.byte		VOICE , 88
	.byte	W01
	.byte	PEND
	.byte	PATT
	 .word	seq_115_10 + 0x13
	.byte	PATT
	 .word	seq_115_10 + 0x49
	.byte		N12   , Cs3 , v120
	.byte	W11
	.byte		VOICE , 80
	.byte	W01
	.byte		N06   , Cs3 , v060
	.byte	W06
	.byte		N12   , Cs3 , v020
	.byte	W78
	.byte	PEND
	.byte	PATT
	 .word	seq_115_10 + 0x15E
	.byte	PATT
	 .word	seq_115_10 + 0x13
	.byte	PATT
	 .word	seq_115_10 + 0x49
	.byte	PATT
	 .word	seq_115_10 + 0x19F
	.byte		N02   , Fn5 , v120
	.byte	W02
	.byte		        As5 , v060
	.byte	W02
	.byte		        Fn5 , v040
	.byte	W02
	.byte		        Fn5 , v060
	.byte	W02
	.byte		        As5 
	.byte	W02
	.byte		        Fn5 
	.byte	W02
	.byte		        Dn5 , v120
	.byte	W02
	.byte		        Fn5 , v060
	.byte	W02
	.byte		        Dn5 , v040
	.byte	W02
	.byte		        Dn5 , v060
	.byte	W02
	.byte		        Fn5 
	.byte	W02
	.byte		        Dn5 
	.byte	W02
	.byte		        As4 , v120
	.byte	W02
	.byte		        En5 , v060
	.byte	W02
	.byte		        As4 , v040
	.byte	W02
	.byte		N02
	.byte	W02
	.byte		        En5 
	.byte	W02
	.byte		        As4 
	.byte	W60
	.byte		MOD   , 60
	.byte	W01
	.byte		VOICE , 88
	.byte	W01
	.byte		N12   , Cs4 , v120
	.byte	W11
	.byte		VOICE , 80
	.byte	W01
	.byte		N12   , Cs4 , v060
	.byte	W10
	.byte		MOD   , 60
	.byte	W01
	.byte		VOICE , 88
	.byte	W01
	.byte		N12   , An3 , v120
	.byte	W11
	.byte		VOICE , 80
	.byte	W01
	.byte		N12   , An3 , v060
	.byte	W10
	.byte		MOD   , 0
	.byte	W01
	.byte		VOICE , 88
	.byte	W01
	.byte		N12   , En3 , v120
	.byte	W11
	.byte		VOICE , 80
	.byte	W01
	.byte		N12   , En3 , v060
	.byte	W10
	.byte		MOD   , 60
	.byte	W01
	.byte		VOICE , 88
	.byte	W01
	.byte		N12   , Cs3 , v120
	.byte	W11
	.byte		VOICE , 80
	.byte	W01
	.byte		N12   , Cs3 , v060
	.byte	W11
	.byte		MOD   , 0
	.byte	W01
	.byte	PATT
	 .word	seq_115_10 + 0x49
	.byte	PATT
	 .word	seq_115_10 + 0x19F
	.byte		N02   , Fn4 , v120
	.byte	W02
	.byte		        As4 , v060
	.byte	W02
	.byte		        Fn4 , v040
	.byte	W02
	.byte		        Fn4 , v060
	.byte	W02
	.byte		        As4 
	.byte	W02
	.byte		        Fn4 
	.byte	W02
	.byte		        Dn4 , v120
	.byte	W02
	.byte		        Fn4 , v060
	.byte	W02
	.byte		        Dn4 , v040
	.byte	W02
	.byte		        Dn4 , v060
	.byte	W02
	.byte		        Fn4 
	.byte	W02
	.byte		        Dn4 
	.byte	W02
	.byte		        As3 , v120
	.byte	W02
	.byte		        En4 , v060
	.byte	W02
	.byte		        As3 , v040
	.byte	W02
	.byte		N02
	.byte	W02
	.byte		        En4 
	.byte	W02
	.byte		        As3 
	.byte	W60
	.byte	W01
	.byte		VOICE , 88
	.byte	W01
	.byte	PATT
	 .word	seq_115_10 + 0xCE
	.byte	PATT
	 .word	seq_115_10 + 0x110
	.byte	PATT
	 .word	seq_115_10 + 0x14E
	.byte		N02   , Fn5 , v120
	.byte	W02
	.byte		        As5 , v060
	.byte	W02
	.byte		        Fn5 , v040
	.byte	W02
	.byte		        Fn5 , v060
	.byte	W02
	.byte		        As5 
	.byte	W02
	.byte		        Fn5 
	.byte	W02
	.byte		        Dn5 , v120
	.byte	W02
	.byte		        Fn5 , v060
	.byte	W02
	.byte		        Dn5 , v040
	.byte	W02
	.byte		        Dn5 , v060
	.byte	W02
	.byte		        Fn5 
	.byte	W02
	.byte		        Dn5 
	.byte	W02
	.byte		        As4 , v120
	.byte	W02
	.byte		        En5 , v060
	.byte	W02
	.byte		        As4 , v040
	.byte	W02
	.byte		N02
	.byte	W02
	.byte		        En5 
	.byte	W02
	.byte		        As4 
	.byte	W60
	.byte	W02
	.byte	W22
	.byte		MOD   , 60
	.byte	W01
	.byte		VOICE , 88
	.byte	W01
	.byte		N12   , Gn4 , v120
	.byte	W11
	.byte		VOICE , 80
	.byte	W01
	.byte		N12   , Gn4 , v060
	.byte	W10
	.byte		MOD   , 0
	.byte	W01
	.byte		VOICE , 88
	.byte	W01
	.byte		N12   , Dn4 , v120
	.byte	W11
	.byte		VOICE , 80
	.byte	W01
	.byte		N12   , Dn4 , v060
	.byte	W10
	.byte		MOD   , 60
	.byte	W01
	.byte		VOICE , 88
	.byte	W01
	.byte		N12   , Bn4 , v120
	.byte	W11
	.byte		VOICE , 80
	.byte	W01
	.byte		N12   , Bn4 , v060
	.byte	W11
	.byte		MOD   , 0
	.byte	W01
	.byte		N12   , An4 , v120
	.byte	W11
	.byte		VOICE , 80
	.byte	W01
	.byte		N12   , An4 , v060
	.byte	W12
	.byte		        An4 , v040
	.byte	W23
	.byte		VOICE , 88
	.byte	W01
	.byte		N12   , Cs5 , v120
	.byte	W11
	.byte		VOICE , 80
	.byte	W01
	.byte		N12   , Cs5 , v060
	.byte	W11
	.byte		VOICE , 88
	.byte	W01
	.byte		N12   , Cs5 , v120
	.byte	W11
	.byte		VOICE , 80
	.byte	W01
	.byte		N12   , Cs5 , v060
	.byte	W11
	.byte		VOICE , 88
	.byte	W01
	.byte		N12   , Bn4 , v120
	.byte	W11
	.byte		VOICE , 80
	.byte	W01
	.byte		N06   , Bn4 , v060
	.byte	W06
	.byte		        Bn4 , v040
	.byte	W78
	.byte		N02   , En5 , v120
	.byte	W02
	.byte		        An5 , v060
	.byte	W02
	.byte		        En5 , v040
	.byte	W02
	.byte		        En5 , v060
	.byte	W02
	.byte		        An5 
	.byte	W02
	.byte		        En5 
	.byte	W02
	.byte		        Cs5 , v120
	.byte	W02
	.byte		        En5 , v060
	.byte	W02
	.byte		        Cs5 , v040
	.byte	W02
	.byte		        Cs5 , v060
	.byte	W02
	.byte		        En5 
	.byte	W02
	.byte		        Cs5 
	.byte	W02
	.byte		        An4 , v120
	.byte	W02
	.byte		        Ds5 , v060
	.byte	W02
	.byte		        An4 , v040
	.byte	W02
	.byte		N02
	.byte	W02
	.byte		        Ds5 
	.byte	W02
	.byte		        An4 
	.byte	W60
	.byte	W02
	.byte	W22
	.byte		MOD   , 60
	.byte	W01
	.byte		VOICE , 88
	.byte	W01
	.byte		N12   , As4 , v120
	.byte	W11
	.byte		VOICE , 80
	.byte	W01
	.byte		N12   , As4 , v060
	.byte	W10
	.byte		MOD   , 0
	.byte	W01
	.byte		VOICE , 88
	.byte	W01
	.byte		N12   , Fn4 , v120
	.byte	W11
	.byte		VOICE , 80
	.byte	W01
	.byte		N12   , Fn4 , v060
	.byte	W10
	.byte		MOD   , 60
	.byte	W01
	.byte		VOICE , 88
	.byte	W01
	.byte		N12   , Dn5 , v120
	.byte	W11
	.byte		VOICE , 80
	.byte	W01
	.byte		N12   , Dn5 , v060
	.byte	W11
	.byte		MOD   , 0
	.byte	W01
	.byte		N12   , Bn4 , v120
	.byte	W11
	.byte		VOICE , 80
	.byte	W01
	.byte		N12   , Bn4 , v060
	.byte	W12
	.byte		        Bn4 , v040
	.byte	W23
	.byte		VOICE , 88
	.byte	W01
	.byte		N12   , Ds5 , v120
	.byte	W11
	.byte		VOICE , 80
	.byte	W01
	.byte		N12   , Ds5 , v060
	.byte	W11
	.byte		VOICE , 88
	.byte	W01
	.byte		N12   , Ds5 , v120
	.byte	W11
	.byte		VOICE , 80
	.byte	W01
	.byte		N12   , Ds5 , v060
	.byte	W11
	.byte		VOICE , 88
	.byte	W01
	.byte		N12   , Cn5 , v120
	.byte	W11
	.byte		VOICE , 80
	.byte	W01
	.byte		N06   , Cn5 , v060
	.byte	W06
	.byte		        Cn5 , v040
	.byte	W78
	.byte		N02   , Gs5 , v120
	.byte	W02
	.byte		        Cs6 , v060
	.byte	W02
	.byte		        Gs5 , v040
	.byte	W02
	.byte		        Gs5 , v060
	.byte	W02
	.byte		        Cs6 
	.byte	W02
	.byte		        Gs5 
	.byte	W02
	.byte		        Fn5 , v120
	.byte	W02
	.byte		        Gs5 , v060
	.byte	W02
	.byte		        Fn5 , v040
	.byte	W02
	.byte		        Fn5 , v060
	.byte	W02
	.byte		        Gs5 
	.byte	W02
	.byte		        Fn5 
	.byte	W02
	.byte		        Cs5 , v120
	.byte	W02
	.byte		        Gn5 , v060
	.byte	W02
	.byte		        Cs5 , v040
	.byte	W02
	.byte		N02
	.byte	W02
	.byte		        Gn5 
	.byte	W02
	.byte		        Cs5 
	.byte	W14
	.byte		N04   , Ds2 , v120
	.byte	W04
	.byte		N03   , Ds2 , v060
	.byte	W08
	.byte		N05   , Cs2 , v120
	.byte	W05
	.byte		N04   , Cs2 , v060
	.byte	W04
	.byte		N03   , Cs2 , v040
	.byte	W15
	.byte		N04   , Cn2 , v120
	.byte	W04
	.byte		N03   , Cn2 , v060
	.byte	W08
	.byte	W10
	.byte		VOICE , 88
	.byte	W02
	.byte		N02   , Gn2 , v120
	.byte	W02
	.byte		        Gn3 , v060
	.byte	W02
	.byte		        Gn2 , v040
	.byte	W02
	.byte		        Gn3 
	.byte	W02
	.byte		        Gn2 
	.byte	W02
	.byte		        Gn3 , v020
	.byte	W02
	.byte		        Cn3 , v120
	.byte	W02
	.byte		        Cn4 , v060
	.byte	W02
	.byte		        Cn3 , v040
	.byte	W02
	.byte		        Cn4 
	.byte	W02
	.byte		        Cn3 
	.byte	W02
	.byte		        Cn4 , v020
	.byte	W02
	.byte		        Gn3 , v120
	.byte	W02
	.byte		        Gn4 , v060
	.byte	W02
	.byte		        Gn3 , v040
	.byte	W02
	.byte		        Gn4 
	.byte	W02
	.byte		        Gn3 
	.byte	W02
	.byte		        Gn4 , v020
	.byte	W02
	.byte		        Dn3 , v120
	.byte	W02
	.byte		        Dn4 , v060
	.byte	W02
	.byte		        Dn3 , v040
	.byte	W02
	.byte		        Dn4 
	.byte	W02
	.byte		        Dn3 
	.byte	W02
	.byte		        Dn4 , v020
	.byte	W02
	.byte		        An3 , v120
	.byte	W02
	.byte		        An4 , v060
	.byte	W02
	.byte		        An3 , v040
	.byte	W02
	.byte		        An4 
	.byte	W02
	.byte		        An3 
	.byte	W02
	.byte		        An4 , v020
	.byte	W02
	.byte		        En4 , v120
	.byte	W02
	.byte		        En5 , v060
	.byte	W02
	.byte		        En4 , v040
	.byte	W02
	.byte		        En5 
	.byte	W02
	.byte		        En4 
	.byte	W02
	.byte		        En5 , v020
	.byte	W02
	.byte		        Bn4 , v120
	.byte	W02
	.byte		        Bn5 , v060
	.byte	W02
	.byte		        Bn4 , v040
	.byte	W02
	.byte		        Bn5 
	.byte	W02
	.byte		        Bn4 
	.byte	W02
	.byte		        Bn5 , v020
	.byte	W02
	.byte	GOTO
	 .word	seq_115_10 + 0x13
	.byte	FINE

@*********************** Track 12 ***********************@

seq_115_11:
	.byte	KEYSH , seq_115_key+0
	.byte	W18
	.byte		VOICE , 112
	.byte	W01
	.byte		VOL   , 25*seq_115_mvl/mxv
	.byte	W01
	.byte		PAN   , c_v+0
	.byte	W04
	.byte	W96
	.byte		N12   , Gn4 , v100
	.byte	W24
	.byte		N02   , Gn4 , v120
	.byte	W24
	.byte		N02
	.byte	W24
	.byte		N02
	.byte	W24
	.byte		N02
	.byte	W24
	.byte		N02
	.byte	W24
	.byte		N02
	.byte	W24
	.byte		N02
	.byte	W24
	.byte		N02   , Gn4 , v080
	.byte	W24
	.byte		N02
	.byte	W24
	.byte		N02
	.byte	W24
	.byte		N02
	.byte	W24
	.byte	PEND
	.byte	PATT
	 .word	seq_115_11 + 0x21
	.byte	PATT
	 .word	seq_115_11 + 0x21
	.byte	PATT
	 .word	seq_115_11 + 0x21
	.byte	PATT
	 .word	seq_115_11 + 0x21
	.byte	PATT
	 .word	seq_115_11 + 0x21
	.byte	PATT
	 .word	seq_115_11 + 0x21
	.byte	PATT
	 .word	seq_115_11 + 0x21
	.byte	PATT
	 .word	seq_115_11 + 0x21
	.byte	PATT
	 .word	seq_115_11 + 0x21
	.byte	PATT
	 .word	seq_115_11 + 0x21
	.byte	PATT
	 .word	seq_115_11 + 0x21
	.byte	PATT
	 .word	seq_115_11 + 0x21
	.byte	PATT
	 .word	seq_115_11 + 0x21
	.byte	PATT
	 .word	seq_115_11 + 0x21
	.byte	PATT
	 .word	seq_115_11 + 0x21
	.byte	PATT
	 .word	seq_115_11 + 0x21
	.byte	PATT
	 .word	seq_115_11 + 0x21
	.byte	PATT
	 .word	seq_115_11 + 0x21
	.byte	PATT
	 .word	seq_115_11 + 0x21
	.byte	PATT
	 .word	seq_115_11 + 0x21
	.byte	PATT
	 .word	seq_115_11 + 0x21
	.byte	PATT
	 .word	seq_115_11 + 0x21
	.byte	PATT
	 .word	seq_115_11 + 0x21
	.byte	PATT
	 .word	seq_115_11 + 0x21
	.byte	PATT
	 .word	seq_115_11 + 0x21
	.byte	PATT
	 .word	seq_115_11 + 0x21
	.byte	PATT
	 .word	seq_115_11 + 0x21
	.byte	PATT
	 .word	seq_115_11 + 0x21
	.byte	PATT
	 .word	seq_115_11 + 0x21
	.byte	PATT
	 .word	seq_115_11 + 0x21
	.byte	GOTO
	 .word	seq_115_11 + 0xD
	.byte	FINE

@******************************************************@

	.align	2

seq_115:
	.byte	12	@ NumTrks
	.byte	0	@ NumBlks
	.byte	seq_115_pri	@ Priority
	.byte	seq_115_rev	@ Reverb

	.word	seq_115_grp

	.word	seq_115_0
	.word	seq_115_1
	.word	seq_115_2
	.word	seq_115_3
	.word	seq_115_4
	.word	seq_115_5
	.word	seq_115_6
	.word	seq_115_7
	.word	seq_115_8
	.word	seq_115_9
	.word	seq_115_10
	.word	seq_115_11

	.end
