@ File generated by m4a2s Song-Module
	.include "MPlayDef.s"

	.equ	seq_114_grp, bank_014
	.equ	seq_114_pri, 50
	.equ	seq_114_rev, 193
	.equ	seq_114_mvl, 127
	.equ	seq_114_key, 0

	.section .rodata
	.global	seq_114
	.align	2

@*********************** Track 01 ***********************@

seq_114_0:
	.byte	KEYSH , seq_114_key+0
	.byte	TEMPO , 94/2
	.byte		VOICE , 12
	.byte	W01
	.byte		VOL   , 9*seq_114_mvl/mxv
	.byte	W01
	.byte		PAN   , c_v+0
	.byte	W01
	.byte		LFOS  , 2
	.byte	W01
	.byte		MODT  , mod_pan
	.byte	W01
	.byte		MOD   , 40
	.byte	W18
	.byte		BEND  , c_v-64
	.byte	W01
	.byte		N36   , An1 , v120
	.byte		N36   , Dn2 
	.byte	W03
	.byte		BEND  , c_v-39
	.byte	W02
	.byte		        c_v-21
	.byte	W02
	.byte		        c_v-9
	.byte	W02
	.byte		        c_v+0
	.byte	W05
	.byte		VOL   , 18*seq_114_mvl/mxv
	.byte	W15
	.byte		        27*seq_114_mvl/mxv
	.byte	W06
	.byte		BEND  , c_v-64
	.byte	W01
	.byte		TIE   , Gn1 , v100
	.byte		TIE   , Cn2 
	.byte	W03
	.byte		BEND  , c_v-39
	.byte	W02
	.byte		        c_v-21
	.byte	W01
	.byte		VOL   , 36*seq_114_mvl/mxv
	.byte	W01
	.byte		BEND  , c_v-9
	.byte	W02
	.byte		        c_v+0
	.byte	W13
	.byte		VOL   , 45*seq_114_mvl/mxv
	.byte	W32
	.byte	W03
	.byte		        36*seq_114_mvl/mxv
	.byte	W03
	.byte	PEND
	.byte	W30
	.byte	W01
	.byte		VOL   , 27*seq_114_mvl/mxv
	.byte	W32
	.byte	W02
	.byte		        18*seq_114_mvl/mxv
	.byte	W28
	.byte		        9*seq_114_mvl/mxv
	.byte	W02
	.byte		BEND  , c_v-64
	.byte	W01
	.byte	PEND
	.byte		EOT   , Gn1 
	.byte		        Cn2 
	.byte	PATT
	 .word	seq_114_0 + 0x19
	.byte	PATT
	 .word	seq_114_0 + 0x4A
	.byte		EOT   , Gn1 
	.byte		        Cn2 
	.byte	PATT
	 .word	seq_114_0 + 0x19
	.byte	PATT
	 .word	seq_114_0 + 0x4A
	.byte		EOT   , Gn1 
	.byte		        Cn2 
	.byte	PATT
	 .word	seq_114_0 + 0x19
	.byte	W30
	.byte	W01
	.byte		VOL   , 27*seq_114_mvl/mxv
	.byte	W32
	.byte	W02
	.byte		        18*seq_114_mvl/mxv
	.byte	W28
	.byte		        9*seq_114_mvl/mxv
	.byte	W03
	.byte		EOT   , Gn1 
	.byte		        Cn2 
	.byte	GOTO
	 .word	seq_114_0 + 0x19
	.byte	FINE

@*********************** Track 02 ***********************@

seq_114_1:
	.byte	KEYSH , seq_114_key+0
	.byte	W06
	.byte		VOICE , 22
	.byte	W01
	.byte		VOL   , 18*seq_114_mvl/mxv
	.byte	W01
	.byte		PAN   , c_v-14
	.byte	W01
	.byte		LFOS  , 2
	.byte	W01
	.byte		MODT  , mod_pan
	.byte	W01
	.byte		MOD   , 0
	.byte	W12
	.byte		BEND  , c_v-64
	.byte	W01
	.byte		N36   , En2 , v120
	.byte	W03
	.byte		BEND  , c_v-39
	.byte	W02
	.byte		        c_v-21
	.byte	W02
	.byte		        c_v-9
	.byte	W02
	.byte		        c_v+0
	.byte	W01
	.byte		VOL   , 27*seq_114_mvl/mxv
	.byte	W11
	.byte		        36*seq_114_mvl/mxv
	.byte	W11
	.byte		        45*seq_114_mvl/mxv
	.byte	W03
	.byte		BEND  , c_v-64
	.byte	W01
	.byte		TIE   , Dn2 
	.byte	W03
	.byte		BEND  , c_v-39
	.byte	W01
	.byte		        c_v-29
	.byte	W01
	.byte		        c_v-21
	.byte	W01
	.byte		VOL   , 54*seq_114_mvl/mxv
	.byte	W01
	.byte		BEND  , c_v-9
	.byte	W02
	.byte		        c_v+0
	.byte	W09
	.byte		VOL   , 63*seq_114_mvl/mxv
	.byte	W32
	.byte	W01
	.byte		        72*seq_114_mvl/mxv
	.byte	W09
	.byte	PEND
	.byte	W09
	.byte		VOL   , 63*seq_114_mvl/mxv
	.byte	W17
	.byte		        54*seq_114_mvl/mxv
	.byte	W17
	.byte		        45*seq_114_mvl/mxv
	.byte	W17
	.byte		        36*seq_114_mvl/mxv
	.byte	W17
	.byte		        27*seq_114_mvl/mxv
	.byte	W16
	.byte		        18*seq_114_mvl/mxv
	.byte	W02
	.byte		        9*seq_114_mvl/mxv
	.byte		BEND  , c_v-64
	.byte	W01
	.byte	PEND
	.byte		EOT   , Dn2 
	.byte	PATT
	 .word	seq_114_1 + 0x18
	.byte	PATT
	 .word	seq_114_1 + 0x48
	.byte		EOT   , Dn2 
	.byte	PATT
	 .word	seq_114_1 + 0x18
	.byte	PATT
	 .word	seq_114_1 + 0x48
	.byte		EOT   , Dn2 
	.byte	PATT
	 .word	seq_114_1 + 0x18
	.byte	W09
	.byte		VOL   , 63*seq_114_mvl/mxv
	.byte	W17
	.byte		        54*seq_114_mvl/mxv
	.byte	W17
	.byte		        45*seq_114_mvl/mxv
	.byte	W17
	.byte		        36*seq_114_mvl/mxv
	.byte	W17
	.byte		        27*seq_114_mvl/mxv
	.byte	W16
	.byte		        18*seq_114_mvl/mxv
	.byte	W02
	.byte		        9*seq_114_mvl/mxv
	.byte	W01
	.byte		EOT   , Dn2 
	.byte	GOTO
	 .word	seq_114_1 + 0x18
	.byte	FINE

@*********************** Track 03 ***********************@

seq_114_2:
	.byte	KEYSH , seq_114_key+0
	.byte	W06
	.byte		VOICE , 22
	.byte	W01
	.byte		VOL   , 18*seq_114_mvl/mxv
	.byte	W01
	.byte		PAN   , c_v-24
	.byte	W01
	.byte		LFOS  , 20
	.byte	W01
	.byte		MODT  , mod_pan
	.byte	W01
	.byte		MOD   , 60
	.byte	W12
	.byte		BEND  , c_v-64
	.byte	W01
	.byte		N36   , Gn3 , v060
	.byte	W03
	.byte		BEND  , c_v-39
	.byte	W02
	.byte		        c_v-21
	.byte	W02
	.byte		        c_v-9
	.byte	W02
	.byte		        c_v+0
	.byte	W01
	.byte		VOL   , 27*seq_114_mvl/mxv
	.byte	W11
	.byte		        36*seq_114_mvl/mxv
	.byte	W11
	.byte		        45*seq_114_mvl/mxv
	.byte	W03
	.byte		BEND  , c_v-64
	.byte	W01
	.byte		N36   , Fn3 
	.byte	W03
	.byte		BEND  , c_v-39
	.byte	W01
	.byte		        c_v-29
	.byte	W01
	.byte		        c_v-21
	.byte	W01
	.byte		VOL   , 54*seq_114_mvl/mxv
	.byte	W01
	.byte		BEND  , c_v-9
	.byte	W02
	.byte		        c_v+0
	.byte	W09
	.byte		VOL   , 63*seq_114_mvl/mxv
	.byte	W18
	.byte		N24   , Fn3 , v040
	.byte	W15
	.byte		VOL   , 72*seq_114_mvl/mxv
	.byte	W09
	.byte	PEND
	.byte	W09
	.byte		VOL   , 63*seq_114_mvl/mxv
	.byte	W17
	.byte		        54*seq_114_mvl/mxv
	.byte	W17
	.byte		        45*seq_114_mvl/mxv
	.byte	W17
	.byte		        36*seq_114_mvl/mxv
	.byte	W17
	.byte		        27*seq_114_mvl/mxv
	.byte	W16
	.byte		        18*seq_114_mvl/mxv
	.byte	W02
	.byte		        9*seq_114_mvl/mxv
	.byte		BEND  , c_v-64
	.byte	W01
	.byte	PEND
	.byte	PATT
	 .word	seq_114_2 + 0x18
	.byte	PATT
	 .word	seq_114_2 + 0x4C
	.byte	PATT
	 .word	seq_114_2 + 0x18
	.byte	PATT
	 .word	seq_114_2 + 0x4C
	.byte	PATT
	 .word	seq_114_2 + 0x18
	.byte	W09
	.byte		VOL   , 63*seq_114_mvl/mxv
	.byte	W17
	.byte		        54*seq_114_mvl/mxv
	.byte	W17
	.byte		        45*seq_114_mvl/mxv
	.byte	W17
	.byte		        36*seq_114_mvl/mxv
	.byte	W17
	.byte		        27*seq_114_mvl/mxv
	.byte	W16
	.byte		        18*seq_114_mvl/mxv
	.byte	W02
	.byte		        9*seq_114_mvl/mxv
	.byte	W01
	.byte	GOTO
	 .word	seq_114_2 + 0x18
	.byte	FINE

@*********************** Track 04 ***********************@

seq_114_3:
	.byte	KEYSH , seq_114_key+0
	.byte		VOICE , 6
	.byte	W01
	.byte		VOL   , 108*seq_114_mvl/mxv
	.byte	W01
	.byte		PAN   , c_v-24
	.byte	W01
	.byte		LFOS  , 20
	.byte	W01
	.byte		MODT  , mod_pan
	.byte	W01
	.byte		MOD   , 20
	.byte	W19
	.byte	W96
	.byte	W12
	.byte		VOL   , 108*seq_114_mvl/mxv
	.byte	W01
	.byte		N03   , Dn4 , v100
	.byte	W12
	.byte		        En4 , v120
	.byte	W03
	.byte		N02   , En4 , v020
	.byte	W06
	.byte		N02
	.byte	W09
	.byte		N02
	.byte	W06
	.byte		N03   , An3 , v080
	.byte	W11
	.byte		VOL   , 90*seq_114_mvl/mxv
	.byte	W01
	.byte		N02
	.byte	W05
	.byte		VOL   , 36*seq_114_mvl/mxv
	.byte	W07
	.byte		N02   , An3 , v060
	.byte	W11
	.byte		VOL   , 18*seq_114_mvl/mxv
	.byte	W01
	.byte		N02
	.byte	W11
	.byte	W96
	.byte	W96
	.byte	W96
	.byte	W12
	.byte		VOL   , 108*seq_114_mvl/mxv
	.byte	W01
	.byte		N03   , Dn3 , v100
	.byte	W12
	.byte		        En3 , v120
	.byte	W03
	.byte		N02   , En3 , v020
	.byte	W06
	.byte		N02
	.byte	W09
	.byte		N02
	.byte	W06
	.byte		N03   , An2 , v080
	.byte	W11
	.byte		VOL   , 90*seq_114_mvl/mxv
	.byte	W01
	.byte		N02
	.byte	W05
	.byte		VOL   , 36*seq_114_mvl/mxv
	.byte	W07
	.byte		N02   , An2 , v060
	.byte	W11
	.byte		VOL   , 18*seq_114_mvl/mxv
	.byte	W01
	.byte		N02
	.byte	W11
	.byte	W96
	.byte	W96
	.byte	GOTO
	 .word	seq_114_3 + 0x14
	.byte	FINE

@*********************** Track 05 ***********************@

seq_114_4:
	.byte	KEYSH , seq_114_key+0
	.byte	W06
	.byte		VOICE , 6
	.byte	W01
	.byte		VOL   , 27*seq_114_mvl/mxv
	.byte	W01
	.byte		PAN   , c_v+56
	.byte	W01
	.byte		LFOS  , 40
	.byte	W01
	.byte		MODT  , mod_tre
	.byte	W01
	.byte		MOD   , 100
	.byte	W13
	.byte	W96
	.byte	W21
	.byte		N03   , Dn4 , v100
	.byte	W12
	.byte		        En4 , v120
	.byte	W03
	.byte		N02   , En4 , v020
	.byte	W06
	.byte		N02
	.byte	W09
	.byte		N02
	.byte	W06
	.byte		N03   , An3 , v080
	.byte	W12
	.byte		N02   , An3 , v060
	.byte	W12
	.byte		        An3 , v040
	.byte	W12
	.byte		        An3 , v020
	.byte	W03
	.byte	W96
	.byte	W96
	.byte	W96
	.byte	W21
	.byte		N03   , Dn3 , v100
	.byte	W12
	.byte		        En3 , v120
	.byte	W03
	.byte		N02   , En3 , v020
	.byte	W06
	.byte		N02
	.byte	W09
	.byte		N02
	.byte	W06
	.byte		N03   , An2 , v080
	.byte	W12
	.byte		N02   , An2 , v060
	.byte	W12
	.byte		        An2 , v040
	.byte	W12
	.byte		        An2 , v020
	.byte	W03
	.byte	W96
	.byte	W96
	.byte	GOTO
	 .word	seq_114_4 + 0x15
	.byte	FINE

@*********************** Track 06 ***********************@

seq_114_5:
	.byte	KEYSH , seq_114_key+0
	.byte	W06
	.byte		VOICE , 112
	.byte	W01
	.byte		VOL   , 45*seq_114_mvl/mxv
	.byte	W01
	.byte		PAN   , c_v+0
	.byte	W01
	.byte		LFOS  , 0
	.byte	W01
	.byte		MODT  , mod_vib
	.byte	W01
	.byte		LFODL , 0
	.byte	W13
	.byte		N18   , Bn4 , v072
	.byte	W24
	.byte		N01   , Bn4 , v080
	.byte	W12
	.byte		N03   , Bn4 , v040
	.byte	W12
	.byte		N02   , Bn4 , v060
	.byte	W48
	.byte	W24
	.byte		N02   , Bn4 , v080
	.byte	W48
	.byte		N02
	.byte	W24
	.byte	PEND
	.byte		N18   , Bn4 , v092
	.byte	W24
	.byte		N01   , Bn4 , v080
	.byte	W12
	.byte		N03   , Bn4 , v040
	.byte	W12
	.byte		N02   , Bn4 , v060
	.byte	W48
	.byte	PEND
	.byte	PATT
	 .word	seq_114_5 + 0x25
	.byte	PATT
	 .word	seq_114_5 + 0x2D
	.byte	PATT
	 .word	seq_114_5 + 0x25
	.byte	PATT
	 .word	seq_114_5 + 0x2D
	.byte	PATT
	 .word	seq_114_5 + 0x25
	.byte	GOTO
	 .word	seq_114_5 + 0x15
	.byte	FINE

@*********************** Track 07 ***********************@

seq_114_6:
	.byte	KEYSH , seq_114_key+0
	.byte		VOICE , 127
	.byte	W01
	.byte		VOL   , 45*seq_114_mvl/mxv
	.byte	W01
	.byte		PAN   , c_v+16
	.byte	W01
	.byte		LFOS  , 0
	.byte	W01
	.byte		MODT  , mod_vib
	.byte	W01
	.byte		LFODL , 0
	.byte	W19
	.byte		N03   , Gs7 , v120
	.byte	W24
	.byte		        Fs5 , v100
	.byte	W12
	.byte		N12   , An7 , v120
	.byte	W12
	.byte		N03   , Gs7 
	.byte	W12
	.byte		        Gs7 , v080
	.byte	W36
	.byte	PEND
	.byte	W36
	.byte		N03   , Gs7 , v100
	.byte	W12
	.byte		        Gs7 , v060
	.byte	W48
	.byte	PEND
	.byte	PATT
	 .word	seq_114_6 + 0x14
	.byte	PATT
	 .word	seq_114_6 + 0x26
	.byte	PATT
	 .word	seq_114_6 + 0x14
	.byte	PATT
	 .word	seq_114_6 + 0x26
	.byte	PATT
	 .word	seq_114_6 + 0x14
	.byte	PATT
	 .word	seq_114_6 + 0x26
	.byte	GOTO
	 .word	seq_114_6 + 0x14
	.byte	FINE

@******************************************************@

	.align	2

seq_114:
	.byte	7	@ NumTrks
	.byte	0	@ NumBlks
	.byte	seq_114_pri	@ Priority
	.byte	seq_114_rev	@ Reverb

	.word	seq_114_grp

	.word	seq_114_0
	.word	seq_114_1
	.word	seq_114_2
	.word	seq_114_3
	.word	seq_114_4
	.word	seq_114_5
	.word	seq_114_6

	.end
