@ File generated by m4a2s Song-Module
	.include "MPlayDef.s"

	.equ	seq_002_grp, bank_000
	.equ	seq_002_pri, 50
	.equ	seq_002_rev, 198
	.equ	seq_002_mvl, 127
	.equ	seq_002_key, 0

	.section .rodata
	.global	seq_002
	.align	2

@*********************** Track 01 ***********************@

seq_002_0:
	.byte	KEYSH , seq_002_key+0
	.byte	TEMPO , 100/2
	.byte		VOICE , 45
	.byte	W01
	.byte		VOL   , 56*seq_002_mvl/mxv
	.byte	W01
	.byte		PAN   , c_v+20
	.byte	W22
	.byte	W96
	.byte	W96
	.byte	W96
	.byte	W96
	.byte		N08   , Gs3 , v112
	.byte	W08
	.byte		N04   , Ds4 
	.byte	W08
	.byte		        Ds4 , v060
	.byte	W08
	.byte		N08   , Ds4 , v112
	.byte	W08
	.byte		N04   , Cs4 , v040
	.byte	W08
	.byte		N08   , Bn3 , v072
	.byte	W08
	.byte		        Cs4 , v112
	.byte	W16
	.byte		N04   , Fs3 , v060
	.byte	W08
	.byte		N08   , Fs3 , v112
	.byte	W08
	.byte		        Gs3 , v040
	.byte	W08
	.byte		        As3 , v072
	.byte	W08
	.byte	PEND
	.byte		N08   , Bn3 , v112
	.byte	W16
	.byte		N04   , Gs3 , v072
	.byte	W08
	.byte		N08   , Fs3 , v112
	.byte	W08
	.byte		N04   , Gs3 , v040
	.byte	W08
	.byte		N08   , As3 , v072
	.byte	W08
	.byte		        Gs3 , v112
	.byte	W16
	.byte		N04   , Ds3 , v060
	.byte	W08
	.byte		N11   , Ds3 , v112
	.byte	W16
	.byte		N08   , Ds3 , v052
	.byte	W08
	.byte	PEND
	.byte	PATT
	 .word	seq_002_0 + 0x11
	.byte		N08   , Bn3 , v112
	.byte	W16
	.byte		N04   , Gs3 , v072
	.byte	W08
	.byte		N08   , Fs3 , v112
	.byte	W08
	.byte		N04   , Gs3 , v040
	.byte	W08
	.byte		N08   , As3 , v072
	.byte	W08
	.byte		N32   , Gs3 , v112
	.byte	W40
	.byte		N08   , Ds3 , v052
	.byte	W08
	.byte	PEND
	.byte	PATT
	 .word	seq_002_0 + 0x11
	.byte	PATT
	 .word	seq_002_0 + 0x39
	.byte	PATT
	 .word	seq_002_0 + 0x11
	.byte	PATT
	 .word	seq_002_0 + 0x62
	.byte	W72
	.byte		N05   , Cs4 , v120
	.byte	W08
	.byte		        Bn3 
	.byte	W08
	.byte		        As3 
	.byte	W08
	.byte	PEND
	.byte		N12   , Gs3 , v120
	.byte	W16
	.byte		N04   , Bn3 
	.byte	W08
	.byte		        As3 
	.byte	W08
	.byte		        Gs3 
	.byte	W08
	.byte		        Fs3 
	.byte	W08
	.byte		N12   , Gs3 
	.byte	W16
	.byte		N04   , Ds3 
	.byte	W08
	.byte		N12
	.byte	W24
	.byte	PEND
	.byte	PATT
	 .word	seq_002_0 + 0x93
	.byte		N12   , Gs3 , v120
	.byte	W16
	.byte		N04   , Bn3 
	.byte	W08
	.byte		        As3 
	.byte	W08
	.byte		        Gs3 
	.byte	W08
	.byte		        Fs3 
	.byte	W08
	.byte		N28   , Gs3 
	.byte	W48
	.byte	PEND
	.byte	PATT
	 .word	seq_002_0 + 0x93
	.byte	PATT
	 .word	seq_002_0 + 0x9D
	.byte	PATT
	 .word	seq_002_0 + 0x93
	.byte	PATT
	 .word	seq_002_0 + 0xB8
	.byte	GOTO
	 .word	seq_002_0 + 0x11
	.byte	FINE

@*********************** Track 02 ***********************@

seq_002_1:
	.byte	KEYSH , seq_002_key+0
	.byte		VOICE , 76
	.byte	W01
	.byte		VOL   , 70*seq_002_mvl/mxv
	.byte	W01
	.byte		PAN   , c_v-20
	.byte	W22
	.byte	W96
	.byte	W96
	.byte	W96
	.byte	W96
	.byte		N08   , Gs3 , v112
	.byte	W08
	.byte		N04   , Ds4 
	.byte	W08
	.byte		        Ds4 , v060
	.byte	W08
	.byte		N08   , Ds4 , v112
	.byte	W08
	.byte		N04   , Cs4 , v040
	.byte	W08
	.byte		N08   , Bn3 , v072
	.byte	W08
	.byte		        Cs4 , v112
	.byte	W16
	.byte		N04   , Fs3 , v060
	.byte	W08
	.byte		N08   , Fs3 , v112
	.byte	W08
	.byte		        Gs3 , v040
	.byte	W08
	.byte		        As3 , v072
	.byte	W08
	.byte	PEND
	.byte		        Bn3 , v112
	.byte	W16
	.byte		N04   , Gs3 , v072
	.byte	W08
	.byte		N08   , Fs3 , v112
	.byte	W08
	.byte		N04   , Gs3 , v040
	.byte	W08
	.byte		N08   , As3 , v072
	.byte	W08
	.byte		        Gs3 , v112
	.byte	W16
	.byte		N04   , Ds3 , v060
	.byte	W08
	.byte		N11   , Ds3 , v112
	.byte	W16
	.byte		N08   , Ds3 , v052
	.byte	W08
	.byte	PATT
	 .word	seq_002_1 + 0xF
	.byte		N08   , Bn3 , v112
	.byte	W16
	.byte		N04   , Gs3 , v072
	.byte	W08
	.byte		N08   , Fs3 , v112
	.byte	W08
	.byte		N04   , Gs3 , v040
	.byte	W08
	.byte		N08   , As3 , v072
	.byte	W08
	.byte		N32   , Gs3 , v112
	.byte	W40
	.byte		N08   , Ds3 , v052
	.byte	W08
	.byte		N08   , Gs4 , v112
	.byte	W08
	.byte		N04   , Ds5 
	.byte	W08
	.byte		        Ds5 , v060
	.byte	W08
	.byte		N08   , Ds5 , v112
	.byte	W08
	.byte		N04   , Cs5 , v040
	.byte	W08
	.byte		N08   , Bn4 , v072
	.byte	W08
	.byte		        Cs5 , v112
	.byte	W16
	.byte		N04   , Fs4 , v060
	.byte	W08
	.byte		N08   , Fs4 , v112
	.byte	W08
	.byte		        Gs4 , v040
	.byte	W08
	.byte		        As4 , v072
	.byte	W08
	.byte	PEND
	.byte		        Bn4 , v112
	.byte	W16
	.byte		N04   , Gs4 , v072
	.byte	W08
	.byte		N08   , Fs4 , v112
	.byte	W08
	.byte		N04   , Gs4 , v040
	.byte	W08
	.byte		N08   , As4 , v072
	.byte	W08
	.byte		        Gs4 , v112
	.byte	W16
	.byte		N04   , Ds4 , v060
	.byte	W08
	.byte		N11   , Ds4 , v112
	.byte	W16
	.byte		N08   , Ds4 , v052
	.byte	W08
	.byte	PATT
	 .word	seq_002_1 + 0x7A
	.byte		N08   , Bn4 , v112
	.byte	W16
	.byte		N04   , Gs4 , v072
	.byte	W08
	.byte		N08   , Fs4 , v112
	.byte	W08
	.byte		N04   , Gs4 , v040
	.byte	W08
	.byte		N08   , As4 , v072
	.byte	W08
	.byte		N32   , Gs4 , v112
	.byte	W40
	.byte		N08   , Ds4 , v052
	.byte	W08
	.byte		N10   , Gs4 , v112
	.byte	W24
	.byte		        As4 
	.byte	W24
	.byte		N20   , Bn4 
	.byte	W48
	.byte	PEND
	.byte	W96
	.byte	PATT
	 .word	seq_002_1 + 0xE5
	.byte	W96
	.byte	PATT
	 .word	seq_002_1 + 0xE5
	.byte	W96
	.byte	PATT
	 .word	seq_002_1 + 0xE5
	.byte	W96
	.byte	GOTO
	 .word	seq_002_1 + 0xF
	.byte	FINE

@*********************** Track 03 ***********************@

seq_002_2:
	.byte	KEYSH , seq_002_key+0
	.byte		VOICE , 14
	.byte	W01
	.byte		VOL   , 66*seq_002_mvl/mxv
	.byte	W01
	.byte		PAN   , c_v+0
	.byte	W21
	.byte		        c_v-30
	.byte	W01
	.byte		N07   , Gs3 , v112
	.byte	W44
	.byte	W03
	.byte		PAN   , c_v+30
	.byte	W01
	.byte		N07
	.byte	W44
	.byte	W03
	.byte		PAN   , c_v-30
	.byte	W01
	.byte	PEND
	.byte	PATT
	 .word	seq_002_2 + 0xD
	.byte	PATT
	 .word	seq_002_2 + 0xD
	.byte		N07   , Gs3 , v112
	.byte	W44
	.byte	W03
	.byte		PAN   , c_v+30
	.byte	W01
	.byte		N07
	.byte	W48
	.byte	W96
	.byte	W96
	.byte	W96
	.byte	W96
	.byte	W96
	.byte	W96
	.byte	W96
	.byte	W92
	.byte	W03
	.byte		PAN   , c_v+0
	.byte	W01
	.byte		N07   , En3 , v112
	.byte	W24
	.byte		        Fs3 
	.byte	W24
	.byte		        Gs3 
	.byte	W48
	.byte	PEND
	.byte	W96
	.byte	PATT
	 .word	seq_002_2 + 0x3C
	.byte	W96
	.byte	PATT
	 .word	seq_002_2 + 0x3C
	.byte	W96
	.byte	PATT
	 .word	seq_002_2 + 0x3C
	.byte	W96
	.byte	GOTO
	 .word	seq_002_2 + 0x30
	.byte	FINE

@*********************** Track 04 ***********************@

seq_002_3:
	.byte	KEYSH , seq_002_key+0
	.byte	W06
	.byte		VOICE , 9
	.byte	W01
	.byte		VOL   , 83*seq_002_mvl/mxv
	.byte	W01
	.byte		PAN   , c_v+0
	.byte	W16
	.byte		N16   , Gs2 , v127
	.byte	W16
	.byte		N08   , Fs3 , v068
	.byte	W08
	.byte		        Gs3 , v120
	.byte	W08
	.byte		        Cs4 , v092
	.byte	W08
	.byte		        Ds4 , v068
	.byte	W08
	.byte		        Gs2 , v127
	.byte	W08
	.byte		        Gs3 , v068
	.byte	W08
	.byte		        Fs3 , v120
	.byte	W08
	.byte		        Gs3 , v068
	.byte	W08
	.byte		        Cs4 , v092
	.byte	W08
	.byte		        Ds4 , v068
	.byte	W08
	.byte	PEND
	.byte		N16   , Gs2 , v127
	.byte	W16
	.byte		N08   , Fs3 , v068
	.byte	W08
	.byte		        Gs3 , v120
	.byte	W08
	.byte		        Cs4 , v092
	.byte	W08
	.byte		        Ds4 , v068
	.byte	W08
	.byte		        Gs2 , v127
	.byte	W08
	.byte		        Cs4 , v120
	.byte	W08
	.byte		        Ds4 , v068
	.byte	W08
	.byte		        Fs4 , v120
	.byte	W08
	.byte		        Fn4 
	.byte	W08
	.byte		        Cs4 
	.byte	W08
	.byte	PATT
	 .word	seq_002_3 + 0xC
	.byte		N16   , Gs2 , v127
	.byte	W16
	.byte		N08   , Fs3 , v068
	.byte	W08
	.byte		        Gs3 , v120
	.byte	W08
	.byte		        Cs4 , v092
	.byte	W08
	.byte		        Ds4 , v068
	.byte	W08
	.byte		        Gs2 , v127
	.byte	W08
	.byte		        Fs3 , v068
	.byte	W08
	.byte		        Gs3 , v092
	.byte	W08
	.byte		        Bn3 , v120
	.byte	W08
	.byte		        As3 , v092
	.byte	W08
	.byte		        Fs3 , v068
	.byte	W08
	.byte		N08   , Gs2 , v127
	.byte	W08
	.byte		        Ds3 , v040
	.byte	W08
	.byte		        Gs3 , v060
	.byte	W08
	.byte		N16   , Bn3 , v127
	.byte	W16
	.byte		N08   , Gs2 , v056
	.byte	W08
	.byte		        Fs2 , v127
	.byte	W08
	.byte		        Cs3 , v040
	.byte	W08
	.byte		        Fs3 , v060
	.byte	W08
	.byte		N16   , As3 , v127
	.byte	W16
	.byte		N08   , Fs2 , v056
	.byte	W08
	.byte	PEND
	.byte		N08   , En3 , v127
	.byte	W08
	.byte		        Bn2 , v040
	.byte	W08
	.byte		        Gs3 , v096
	.byte	W08
	.byte		        Cs3 , v127
	.byte	W08
	.byte		        Fs3 , v040
	.byte	W08
	.byte		        As3 , v127
	.byte	W08
	.byte		        Gs2 
	.byte	W08
	.byte		        Ds3 , v040
	.byte	W08
	.byte		        Gs3 , v052
	.byte	W08
	.byte		N16   , Bn3 , v127
	.byte	W16
	.byte		N08   , Fs2 , v056
	.byte	W08
	.byte	PEND
	.byte	PATT
	 .word	seq_002_3 + 0x79
	.byte		N07   , En3 , v127
	.byte	W08
	.byte		        Bn2 , v040
	.byte	W08
	.byte		        Gs3 , v096
	.byte	W08
	.byte		N08   , Cs3 , v127
	.byte	W08
	.byte		        Fs3 , v040
	.byte	W08
	.byte		        As3 , v127
	.byte	W08
	.byte		        Gs2 
	.byte	W08
	.byte		        Cs3 , v052
	.byte	W08
	.byte		        Ds3 , v072
	.byte	W08
	.byte		        Gs3 , v127
	.byte	W24
	.byte	PEND
	.byte	PATT
	 .word	seq_002_3 + 0x79
	.byte	PATT
	 .word	seq_002_3 + 0x9D
	.byte	PATT
	 .word	seq_002_3 + 0x79
	.byte	PATT
	 .word	seq_002_3 + 0xC6
	.byte	W96
	.byte		N08   , En3 , v127
	.byte	W08
	.byte		        Gs3 , v028
	.byte	W08
	.byte		        Bn3 , v060
	.byte	W08
	.byte		        As3 , v127
	.byte	W08
	.byte		        Ds3 , v028
	.byte	W08
	.byte		        Fs3 , v060
	.byte	W08
	.byte		        Gs3 , v127
	.byte	W08
	.byte		        Ds3 , v028
	.byte	W08
	.byte		        Fs3 , v040
	.byte	W08
	.byte		        Gs3 , v127
	.byte	W24
	.byte	PEND
	.byte	W96
	.byte	PATT
	 .word	seq_002_3 + 0xFB
	.byte	W96
	.byte		N08   , En3 , v127
	.byte	W08
	.byte		        Gs3 , v028
	.byte	W08
	.byte		        Bn3 , v060
	.byte	W08
	.byte		        As3 , v127
	.byte	W08
	.byte		        Ds3 , v028
	.byte	W08
	.byte		        Fs3 , v060
	.byte	W08
	.byte		        Gs3 , v127
	.byte	W08
	.byte		        Ds3 , v052
	.byte	W08
	.byte		        Fs3 , v028
	.byte	W08
	.byte		        Gs3 , v127
	.byte	W24
	.byte	W96
	.byte		        En3 
	.byte	W08
	.byte		        Gs3 , v028
	.byte	W08
	.byte		        Bn3 , v060
	.byte	W08
	.byte		        As3 , v127
	.byte	W08
	.byte		        Ds3 , v028
	.byte	W08
	.byte		        Fs3 , v060
	.byte	W08
	.byte		        Gs3 , v127
	.byte	W08
	.byte		        Cs4 , v068
	.byte	W08
	.byte		        Ds4 , v088
	.byte	W08
	.byte		        Gs4 , v092
	.byte	W24
	.byte	GOTO
	 .word	seq_002_3 + 0x79
	.byte	FINE

@*********************** Track 05 ***********************@

seq_002_4:
	.byte	KEYSH , seq_002_key+0
	.byte	W06
	.byte		VOICE , 95
	.byte	W01
	.byte		VOL   , 83*seq_002_mvl/mxv
	.byte	W01
	.byte		PAN   , c_v-40
	.byte	W16
	.byte	W96
	.byte	W96
	.byte	W96
	.byte	W96
	.byte	W96
	.byte	W96
	.byte	W96
	.byte	W96
	.byte	W96
	.byte	W96
	.byte	W96
	.byte	W96
	.byte		N10   , Gs2 , v112
	.byte	W24
	.byte		        As2 
	.byte	W24
	.byte		N20   , Bn2 
	.byte	W48
	.byte	PEND
	.byte	W96
	.byte	PATT
	 .word	seq_002_4 + 0x18
	.byte	W96
	.byte	PATT
	 .word	seq_002_4 + 0x18
	.byte	W96
	.byte		N10   , En2 , v112
	.byte	W24
	.byte		        Fs2 
	.byte	W24
	.byte		N24   , Gs2 
	.byte	W48
	.byte		        En2 
	.byte	W24
	.byte		        Ds2 
	.byte	W24
	.byte		N32   , Cs2 
	.byte	W48
	.byte	GOTO
	 .word	seq_002_4 + 0x10
	.byte	FINE

@*********************** Track 06 ***********************@

seq_002_5:
	.byte	KEYSH , seq_002_key+0
	.byte	W06
	.byte		VOICE , 95
	.byte	W01
	.byte		VOL   , 83*seq_002_mvl/mxv
	.byte	W01
	.byte		PAN   , c_v+40
	.byte	W16
	.byte	W96
	.byte	W96
	.byte	W96
	.byte	W96
	.byte	W96
	.byte	W96
	.byte	W96
	.byte	W96
	.byte	W96
	.byte	W96
	.byte	W96
	.byte	W96
	.byte		N10   , En2 , v112
	.byte	W24
	.byte		        Fs2 
	.byte	W24
	.byte		N20   , Gs2 
	.byte	W48
	.byte	PEND
	.byte	W96
	.byte	PATT
	 .word	seq_002_5 + 0x18
	.byte	W96
	.byte	PATT
	 .word	seq_002_5 + 0x18
	.byte	W96
	.byte		N10   , Gs2 , v112
	.byte	W24
	.byte		        As2 
	.byte	W24
	.byte		N24   , Bn2 
	.byte	W48
	.byte		        Gs2 
	.byte	W24
	.byte		        Fs2 
	.byte	W24
	.byte		N32   , Fn2 
	.byte	W48
	.byte	GOTO
	 .word	seq_002_5 + 0x10
	.byte	FINE

@*********************** Track 07 ***********************@

seq_002_6:
	.byte	KEYSH , seq_002_key+0
	.byte	W12
	.byte		VOICE , 127
	.byte	W01
	.byte		VOL   , 83*seq_002_mvl/mxv
	.byte	W01
	.byte		PAN   , c_v+0
	.byte	W10
	.byte	W96
	.byte	W96
	.byte	W88
	.byte		N03   , Gs3 , v127
	.byte	W04
	.byte		        Gs3 , v076
	.byte	W04
	.byte		N08   , Gn3 , v080
	.byte	W08
	.byte		N03   , Gs3 , v127
	.byte	W08
	.byte		N03
	.byte	W08
	.byte		N08   , Fn3 
	.byte	W08
	.byte		N03   , Gs3 
	.byte	W08
	.byte		N08   , Gn3 , v080
	.byte	W08
	.byte		N03   , Fn3 , v127
	.byte	W08
	.byte		        Gs3 
	.byte	W08
	.byte		        Fn3 
	.byte	W08
	.byte		N03
	.byte	W24
	.byte		N16   , Fs3 , v127
	.byte	W16
	.byte		N03   , Gs3 
	.byte	W08
	.byte		N08   , Fs3 
	.byte	W16
	.byte		N03   , Gs3 
	.byte	W08
	.byte		N08   , Fs3 
	.byte	W16
	.byte		N03   , Gs3 
	.byte	W04
	.byte		        Gs3 , v076
	.byte	W04
	.byte		N11   , Fs3 , v127
	.byte	W16
	.byte		N03   , Gs3 , v108
	.byte	W04
	.byte		        Gs3 , v056
	.byte	W04
	.byte	PEND
	.byte		N08   , Fs3 , v127
	.byte	W16
	.byte		N03   , Gs3 
	.byte	W08
	.byte		N16   , Fs3 
	.byte	W16
	.byte		N03   , Gs3 , v108
	.byte	W04
	.byte		        Gs3 , v056
	.byte	W04
	.byte		N08   , Fs3 , v120
	.byte	W08
	.byte		N03   , Gs3 , v127
	.byte	W08
	.byte		        Fn3 , v076
	.byte	W08
	.byte		        Gs3 , v108
	.byte	W04
	.byte		        Gs3 , v056
	.byte	W04
	.byte		        Fn3 , v092
	.byte	W08
	.byte		        Gs3 , v108
	.byte	W04
	.byte		        Gs3 , v056
	.byte	W04
	.byte	PEND
	.byte	PATT
	 .word	seq_002_6 + 0x34
	.byte	PATT
	 .word	seq_002_6 + 0x56
	.byte	PATT
	 .word	seq_002_6 + 0x34
	.byte	PATT
	 .word	seq_002_6 + 0x56
	.byte	PATT
	 .word	seq_002_6 + 0x34
	.byte	PATT
	 .word	seq_002_6 + 0x56
	.byte		N16   , Fs3 , v127
	.byte	W24
	.byte		N08
	.byte	W16
	.byte		N03   , Fn3 , v076
	.byte	W08
	.byte		N08   , Fs3 , v127
	.byte	W08
	.byte		N03   , Gs3 
	.byte	W04
	.byte		        Gs3 , v076
	.byte	W04
	.byte		        Fn3 , v100
	.byte	W08
	.byte		        Fs3 , v127
	.byte	W08
	.byte		        Fn3 , v112
	.byte	W08
	.byte		        Gs3 , v108
	.byte	W04
	.byte		        Gs3 , v056
	.byte	W04
	.byte	PEND
	.byte		N16   , Fs3 , v127
	.byte	W24
	.byte		N08
	.byte	W16
	.byte		N03   , Gs3 , v108
	.byte	W04
	.byte		        Gs3 , v056
	.byte	W04
	.byte		N08   , Fs3 , v120
	.byte	W08
	.byte		N03   , Gs3 , v127
	.byte	W08
	.byte		        Gn3 , v076
	.byte	W08
	.byte		N08   , Fs3 , v120
	.byte	W08
	.byte		N03   , Gs3 , v092
	.byte	W04
	.byte		        Gs3 , v056
	.byte	W04
	.byte		        Gs3 , v108
	.byte	W08
	.byte	PEND
	.byte	PATT
	 .word	seq_002_6 + 0xA0
	.byte	PATT
	 .word	seq_002_6 + 0xC4
	.byte	PATT
	 .word	seq_002_6 + 0xA0
	.byte	PATT
	 .word	seq_002_6 + 0xC4
	.byte		N16   , Fs3 , v127
	.byte	W56
	.byte		N03   , Gs3 
	.byte	W04
	.byte		        Gs3 , v076
	.byte	W04
	.byte		        Fn3 , v100
	.byte	W08
	.byte		        Fs3 , v127
	.byte	W08
	.byte		        Fn3 , v112
	.byte	W08
	.byte		        Gs3 , v108
	.byte	W04
	.byte		        Gs3 , v056
	.byte	W04
	.byte		N16   , Fs3 , v127
	.byte	W24
	.byte		N16
	.byte	W24
	.byte		N16
	.byte	W48
	.byte	GOTO
	 .word	seq_002_6 + 0x34
	.byte	FINE

@*********************** Track 08 ***********************@

seq_002_7:
	.byte	KEYSH , seq_002_key+0
	.byte	W12
	.byte		VOICE , 123
	.byte	W01
	.byte		VOL   , 83*seq_002_mvl/mxv
	.byte	W01
	.byte		PAN   , c_v+0
	.byte	W10
	.byte	W96
	.byte	W96
	.byte	W96
	.byte	W48
	.byte		N08   , Gn2 , v127
	.byte	W16
	.byte		N08
	.byte	W08
	.byte		N24
	.byte	W24
	.byte		N16   , Gn2 , v127
	.byte	W24
	.byte		N16
	.byte	W16
	.byte		N08
	.byte	W08
	.byte		N16
	.byte	W24
	.byte		N16
	.byte	W24
	.byte	PEND
	.byte		N16   , Gn2 , v127
	.byte	W24
	.byte		N16
	.byte	W16
	.byte		N08
	.byte	W08
	.byte		N16
	.byte	W24
	.byte		N16
	.byte	W16
	.byte		N08
	.byte	W08
	.byte	PEND
	.byte	PATT
	 .word	seq_002_7 + 0x18
	.byte	PATT
	 .word	seq_002_7 + 0x25
	.byte	PATT
	 .word	seq_002_7 + 0x18
	.byte	PATT
	 .word	seq_002_7 + 0x25
	.byte	PATT
	 .word	seq_002_7 + 0x18
	.byte	PATT
	 .word	seq_002_7 + 0x25
	.byte	W72
	.byte		N16   , Gn2 , v127
	.byte	W16
	.byte		N08
	.byte	W08
	.byte	PEND
	.byte		N16   , Gn2 , v127
	.byte	W24
	.byte		N16
	.byte	W24
	.byte		N16
	.byte	W24
	.byte		N16
	.byte	W16
	.byte		N08
	.byte	W08
	.byte	PEND
	.byte	PATT
	 .word	seq_002_7 + 0x52
	.byte	PATT
	 .word	seq_002_7 + 0x5A
	.byte	PATT
	 .word	seq_002_7 + 0x52
	.byte	PATT
	 .word	seq_002_7 + 0x5A
	.byte	PATT
	 .word	seq_002_7 + 0x52
	.byte		N16   , Gn2 , v127
	.byte	W24
	.byte		N16
	.byte	W24
	.byte		N16
	.byte	W24
	.byte		N16
	.byte	W24
	.byte	GOTO
	 .word	seq_002_7 + 0x18
	.byte	FINE

@*********************** Track 09 ***********************@

seq_002_8:
	.byte	KEYSH , seq_002_key+0
	.byte	W12
	.byte		VOICE , 68
	.byte	W01
	.byte		VOL   , 46*seq_002_mvl/mxv
	.byte	W01
	.byte		PAN   , c_v+0
	.byte	W10
	.byte		TIE   , Gs2 , v112
	.byte	W96
	.byte	W96
	.byte		EOT
	.byte		TIE
	.byte	W96
	.byte	W96
	.byte		EOT
	.byte		N08   , Gs2 , v112
	.byte	W24
	.byte		N16
	.byte	W16
	.byte		N08
	.byte	W08
	.byte		        Fs2 
	.byte	W24
	.byte		N24
	.byte	W24
	.byte	PEND
	.byte		N08   , En2 , v112
	.byte	W24
	.byte		        Fs2 
	.byte	W24
	.byte		        Gs2 
	.byte	W08
	.byte		        Ds2 , v072
	.byte	W08
	.byte		        Fs2 , v092
	.byte	W08
	.byte		N16   , Gs2 , v112
	.byte	W16
	.byte		N08   , Ds2 , v092
	.byte	W08
	.byte	PEND
	.byte	PATT
	 .word	seq_002_8 + 0x16
	.byte		N08   , En2 , v112
	.byte	W24
	.byte		        Fs2 
	.byte	W24
	.byte		        Gs2 
	.byte	W08
	.byte		        Ds2 , v072
	.byte	W08
	.byte		        Gs2 , v092
	.byte	W08
	.byte		        Ds3 , v112
	.byte	W16
	.byte		        Gn2 , v072
	.byte	W08
	.byte	PATT
	 .word	seq_002_8 + 0x16
	.byte	PATT
	 .word	seq_002_8 + 0x23
	.byte	PATT
	 .word	seq_002_8 + 0x16
	.byte		N08   , En2 , v112
	.byte	W24
	.byte		        Fs2 
	.byte	W24
	.byte		        Gs2 
	.byte	W08
	.byte		        Ds2 , v072
	.byte	W08
	.byte		        Fs2 , v092
	.byte	W08
	.byte		N16   , Gs2 , v112
	.byte	W16
	.byte		N08   , Ds2 , v072
	.byte	W08
	.byte		N08   , En2 , v112
	.byte	W24
	.byte		        Fs2 
	.byte	W24
	.byte		N19   , Gs2 
	.byte	W40
	.byte		N08   , Fs2 
	.byte	W08
	.byte	PEND
	.byte		N08   , En2 , v112
	.byte	W24
	.byte		        Fs2 
	.byte	W24
	.byte		        Gs2 
	.byte	W08
	.byte		        Cs2 , v060
	.byte	W08
	.byte		        Ds2 , v112
	.byte	W08
	.byte		N16   , Gs2 
	.byte	W16
	.byte		N08   , Ds2 , v092
	.byte	W08
	.byte	PEND
	.byte	PATT
	 .word	seq_002_8 + 0x78
	.byte		N08   , En2 , v112
	.byte	W24
	.byte		        Fs2 
	.byte	W24
	.byte		N16   , Gs2 
	.byte	W16
	.byte		N08   , Ds2 , v060
	.byte	W08
	.byte		N24   , Gs2 , v112
	.byte	W24
	.byte	PATT
	 .word	seq_002_8 + 0x78
	.byte	PATT
	 .word	seq_002_8 + 0x85
	.byte		N08   , En2 , v112
	.byte	W24
	.byte		        Fs2 
	.byte	W24
	.byte		N19   , Gs2 
	.byte	W24
	.byte		N08   , Fs2 
	.byte	W16
	.byte		N08
	.byte	W08
	.byte		N24   , En2 
	.byte	W24
	.byte		        Ds2 
	.byte	W24
	.byte		N08   , Cs3 
	.byte	W16
	.byte		N08
	.byte	W08
	.byte		        Cs2 
	.byte	W24
	.byte	GOTO
	 .word	seq_002_8 + 0x16
	.byte	FINE

@*********************** Track 10 ***********************@

seq_002_9:
	.byte	KEYSH , seq_002_key+0
	.byte	W18
	.byte		VOICE , 81
	.byte	W01
	.byte		VOL   , 56*seq_002_mvl/mxv
	.byte	W01
	.byte		PAN   , c_v+0
	.byte	W04
	.byte		TIE   , Ds3 , v096
	.byte	W96
	.byte	W96
	.byte		EOT
	.byte		TIE
	.byte	W96
	.byte	W92
	.byte	W01
	.byte		VOICE , 74
	.byte	W01
	.byte		VOL   , 66*seq_002_mvl/mxv
	.byte	W02
	.byte		EOT
	.byte		N08   , Bn2 , v112
	.byte	W08
	.byte		N03   , Ds2 , v032
	.byte	W08
	.byte		        Ds2 , v052
	.byte	W08
	.byte		N08   , Bn2 , v112
	.byte	W08
	.byte		N03   , Ds2 , v032
	.byte	W08
	.byte		N08   , Bn2 , v112
	.byte	W08
	.byte		        As2 
	.byte	W08
	.byte		N03   , Ds2 , v032
	.byte	W08
	.byte		        Cs2 , v052
	.byte	W08
	.byte		N15   , Cs3 , v112
	.byte	W16
	.byte		N03   , As2 , v068
	.byte	W08
	.byte	PEND
	.byte		N08   , Bn2 , v112
	.byte	W08
	.byte		N03   , Cs2 , v032
	.byte	W08
	.byte		        Ds2 , v052
	.byte	W08
	.byte		N08   , As2 , v112
	.byte	W08
	.byte		N03   , Cs2 , v032
	.byte	W08
	.byte		        Ds2 , v052
	.byte	W08
	.byte		N08   , Bn2 , v112
	.byte	W08
	.byte		N03   , Cs2 , v032
	.byte	W08
	.byte		        Ds2 , v052
	.byte	W08
	.byte		N08   , Gs2 , v112
	.byte	W08
	.byte		N03   , Ds2 , v052
	.byte	W08
	.byte		N07   , As2 , v112
	.byte	W08
	.byte	PEND
	.byte	PATT
	 .word	seq_002_9 + 0x1D
	.byte		N08   , Bn2 , v112
	.byte	W08
	.byte		N03   , Cs2 , v032
	.byte	W08
	.byte		        Ds2 , v052
	.byte	W08
	.byte		N08   , As2 , v112
	.byte	W08
	.byte		N03   , Cs2 , v032
	.byte	W08
	.byte		        Ds2 , v052
	.byte	W08
	.byte		N08   , Bn2 , v112
	.byte	W08
	.byte		N03   , Ds2 , v032
	.byte	W08
	.byte		        Gs2 , v052
	.byte	W08
	.byte		N24   , Bn2 , v112
	.byte	W24
	.byte	PEND
	.byte	PATT
	 .word	seq_002_9 + 0x1D
	.byte	PATT
	 .word	seq_002_9 + 0x46
	.byte	PATT
	 .word	seq_002_9 + 0x1D
	.byte	PATT
	 .word	seq_002_9 + 0x79
	.byte		N08   , Gs2 , v112
	.byte	W08
	.byte		N03   , En2 , v032
	.byte	W08
	.byte		N03
	.byte	W08
	.byte		N08   , As2 , v112
	.byte	W08
	.byte		N03   , Fs2 , v032
	.byte	W08
	.byte		N03
	.byte	W08
	.byte		N08   , Bn2 , v112
	.byte	W08
	.byte		N03   , Gs2 , v040
	.byte	W08
	.byte		        Bn2 , v068
	.byte	W08
	.byte		N07   , Cs3 , v112
	.byte	W08
	.byte		N03   , Bn2 , v068
	.byte	W08
	.byte		        As2 
	.byte	W08
	.byte	PEND
	.byte		N08   , Gs2 , v112
	.byte	W08
	.byte		N03   , En2 , v032
	.byte	W08
	.byte		N03
	.byte	W08
	.byte		N08   , As2 , v112
	.byte	W08
	.byte		N03   , Fs2 , v032
	.byte	W08
	.byte		N03
	.byte	W08
	.byte		N08   , Gs2 , v112
	.byte	W08
	.byte		N03   , Cs3 , v040
	.byte	W08
	.byte		        Ds3 , v068
	.byte	W08
	.byte		N07   , Gs2 , v112
	.byte	W16
	.byte		N03   , Fs2 , v068
	.byte	W08
	.byte		N08   , Gs2 , v112
	.byte	W08
	.byte		N03   , En2 , v032
	.byte	W08
	.byte		N03
	.byte	W08
	.byte		N08   , As2 , v112
	.byte	W08
	.byte		N03   , Fs2 , v032
	.byte	W08
	.byte		N03
	.byte	W08
	.byte		N08   , Bn2 , v112
	.byte	W08
	.byte		N03   , Gs2 , v032
	.byte	W08
	.byte		        Bn2 , v068
	.byte	W08
	.byte		N07   , Cs3 , v112
	.byte	W08
	.byte		N03   , Bn2 , v068
	.byte	W08
	.byte		        As2 
	.byte	W08
	.byte	PEND
	.byte		N08   , Gs2 , v112
	.byte	W08
	.byte		N03   , En2 , v032
	.byte	W08
	.byte		N03
	.byte	W08
	.byte		N08   , As2 , v112
	.byte	W08
	.byte		N03   , Fs2 , v032
	.byte	W08
	.byte		N03
	.byte	W08
	.byte		N08   , Bn2 , v112
	.byte	W08
	.byte		N03   , Gs2 , v032
	.byte	W08
	.byte		        Bn2 , v068
	.byte	W32
	.byte	PATT
	 .word	seq_002_9 + 0xB3
	.byte		N08   , Gs2 , v112
	.byte	W08
	.byte		N03   , En2 , v032
	.byte	W08
	.byte		N03
	.byte	W08
	.byte		N08   , As2 , v112
	.byte	W08
	.byte		N03   , Fs2 , v032
	.byte	W08
	.byte		N03
	.byte	W08
	.byte		N08   , Gs2 , v112
	.byte	W08
	.byte		N03   , Fs2 , v040
	.byte	W08
	.byte		        Gs2 , v068
	.byte	W08
	.byte		N07   , Ds3 , v112
	.byte	W16
	.byte		N03   , Fs2 , v068
	.byte	W08
	.byte	PATT
	 .word	seq_002_9 + 0x104
	.byte		N07   , Bn2 , v112
	.byte	W08
	.byte		N03   , Bn2 , v032
	.byte	W16
	.byte		N07   , Cs3 , v112
	.byte	W08
	.byte		N03   , Cs3 , v032
	.byte	W16
	.byte		N23   , Ds3 , v112
	.byte	W24
	.byte		N03   , Ds3 , v032
	.byte	W24
	.byte	GOTO
	 .word	seq_002_9 + 0x1D
	.byte	FINE

@*********************** Track 11 ***********************@

seq_002_10:
	.byte	KEYSH , seq_002_key+0
	.byte	W18
	.byte		VOICE , 75
	.byte	W01
	.byte		VOL   , 66*seq_002_mvl/mxv
	.byte	W01
	.byte		PAN   , c_v+0
	.byte	W04
	.byte	W96
	.byte	W96
	.byte	W96
	.byte	W96
	.byte		N08   , Gs3 , v112
	.byte	W08
	.byte		N03   , Gs2 , v020
	.byte	W08
	.byte		        Gs2 , v052
	.byte	W08
	.byte		N08   , Gs3 , v112
	.byte	W08
	.byte		N03   , Gs2 , v052
	.byte	W08
	.byte		N08   , Gs3 , v112
	.byte	W08
	.byte		        Fs3 
	.byte	W08
	.byte		N03   , As2 , v020
	.byte	W08
	.byte		        As2 , v068
	.byte	W08
	.byte		N07   , Fs3 , v112
	.byte	W08
	.byte		N03   , As2 , v020
	.byte	W08
	.byte		        Fs3 , v068
	.byte	W08
	.byte	PEND
	.byte		N08   , En3 , v112
	.byte	W08
	.byte		N03   , Gs2 , v020
	.byte	W08
	.byte		        Gs2 , v068
	.byte	W08
	.byte		N08   , Fs3 , v112
	.byte	W08
	.byte		N03   , As2 , v020
	.byte	W08
	.byte		        As2 , v068
	.byte	W08
	.byte		N08   , Gs3 , v112
	.byte	W08
	.byte		N03   , Gs2 , v052
	.byte	W08
	.byte		        As2 , v068
	.byte	W08
	.byte		N08   , Ds3 , v112
	.byte	W08
	.byte		N03   , Gs2 , v068
	.byte	W16
	.byte	PATT
	 .word	seq_002_10 + 0x10
	.byte		N08   , En3 , v112
	.byte	W08
	.byte		N03   , Gs2 , v020
	.byte	W08
	.byte		        Gs2 , v068
	.byte	W08
	.byte		N08   , Fs3 , v112
	.byte	W08
	.byte		N03   , As2 , v020
	.byte	W08
	.byte		        As2 , v068
	.byte	W08
	.byte		N08   , Gs3 , v112
	.byte	W08
	.byte		N03   , Cs3 , v052
	.byte	W08
	.byte		        Ds3 , v068
	.byte	W08
	.byte		N24   , Gs3 , v080
	.byte	W24
	.byte	PEND
	.byte		N08   , Gs3 , v112
	.byte	W08
	.byte		N03   , Gs2 , v020
	.byte	W08
	.byte		        Gs2 , v052
	.byte	W08
	.byte		N08   , Gs3 , v112
	.byte	W08
	.byte		N03   , Gs2 , v052
	.byte	W08
	.byte		N08   , Gs3 , v112
	.byte	W08
	.byte		        Fs3 
	.byte	W08
	.byte		N03   , As2 , v020
	.byte	W08
	.byte		        As2 , v068
	.byte	W08
	.byte		N07   , Fs3 , v112
	.byte	W08
	.byte		N03   , As2 , v020
	.byte	W08
	.byte		        As3 , v068
	.byte	W08
	.byte		N08   , Gs3 , v112
	.byte	W08
	.byte		N03   , Gs2 , v020
	.byte	W08
	.byte		        Gs2 , v068
	.byte	W08
	.byte		N08   , Fs3 , v112
	.byte	W08
	.byte		N03   , As2 , v020
	.byte	W08
	.byte		        As2 , v068
	.byte	W08
	.byte		N08   , Gs3 , v112
	.byte	W08
	.byte		N03   , Gs2 , v052
	.byte	W08
	.byte		        As2 , v068
	.byte	W08
	.byte		N08   , Ds3 , v112
	.byte	W08
	.byte		N03   , Gs2 , v068
	.byte	W08
	.byte		N07   , Fs3 , v112
	.byte	W08
	.byte	PATT
	 .word	seq_002_10 + 0x10
	.byte	PATT
	 .word	seq_002_10 + 0x6A
	.byte		N08   , En3 , v112
	.byte	W08
	.byte		N03   , Gs2 , v020
	.byte	W08
	.byte		N03
	.byte	W08
	.byte		N08   , Fs3 , v112
	.byte	W08
	.byte		N03   , As2 , v020
	.byte	W08
	.byte		N03
	.byte	W08
	.byte		N08   , Gs3 , v112
	.byte	W08
	.byte		N03   , Ds3 , v020
	.byte	W08
	.byte		        Ds3 , v068
	.byte	W08
	.byte		N07   , Ds3 , v112
	.byte	W16
	.byte		N03   , Ds3 , v068
	.byte	W08
	.byte	PEND
	.byte		N08   , En3 , v112
	.byte	W08
	.byte		N03   , Cs3 , v020
	.byte	W08
	.byte		        En3 , v068
	.byte	W08
	.byte		N08   , Fs3 , v112
	.byte	W08
	.byte		N03   , Ds3 , v020
	.byte	W08
	.byte		        Fs3 , v068
	.byte	W08
	.byte		N08   , Gs3 , v112
	.byte	W08
	.byte		N03   , Cs3 , v020
	.byte	W08
	.byte		        Ds3 , v068
	.byte	W08
	.byte		N07   , Gs3 , v112
	.byte	W08
	.byte		N03   , Cs3 , v020
	.byte	W08
	.byte		        Ds3 , v068
	.byte	W08
	.byte	PEND
	.byte		N08   , En3 , v112
	.byte	W08
	.byte		N03   , Gs2 , v020
	.byte	W08
	.byte		N03
	.byte	W08
	.byte		N08   , Fs3 , v112
	.byte	W08
	.byte		N03   , As2 , v020
	.byte	W08
	.byte		N03
	.byte	W08
	.byte		N08   , Gs3 , v112
	.byte	W08
	.byte		N03   , Ds3 , v020
	.byte	W08
	.byte		        Fs3 , v068
	.byte	W08
	.byte		N07   , Gs3 , v112
	.byte	W08
	.byte		N03   , Fs3 , v020
	.byte	W08
	.byte		        Ds3 , v068
	.byte	W08
	.byte	PEND
	.byte		N08   , En3 , v112
	.byte	W08
	.byte		N03   , Gs2 , v020
	.byte	W08
	.byte		N03
	.byte	W08
	.byte		N08   , Fs3 , v112
	.byte	W08
	.byte		N03   , As2 , v020
	.byte	W08
	.byte		N03
	.byte	W08
	.byte		N08   , Gs3 , v112
	.byte	W08
	.byte		N03   , Cs3 , v020
	.byte	W08
	.byte		        Ds3 , v068
	.byte	W08
	.byte		N07   , Gs3 , v112
	.byte	W24
	.byte	PATT
	 .word	seq_002_10 + 0xF2
	.byte	PATT
	 .word	seq_002_10 + 0x11A
	.byte	PATT
	 .word	seq_002_10 + 0x147
	.byte		N08   , En3 , v112
	.byte	W08
	.byte		N03   , En3 , v020
	.byte	W16
	.byte		N08   , Fs3 , v112
	.byte	W08
	.byte		N03   , Fs3 , v020
	.byte	W16
	.byte		N24   , Gs3 , v112
	.byte	W24
	.byte		N03   , Gs3 , v020
	.byte	W24
	.byte	GOTO
	 .word	seq_002_10 + 0x10
	.byte	FINE

@*********************** Track 12 ***********************@

seq_002_11:
	.byte	KEYSH , seq_002_key+0
	.byte	W18
	.byte		VOICE , 127
	.byte	W01
	.byte		VOL   , 80*seq_002_mvl/mxv
	.byte	W01
	.byte		PAN   , c_v+0
	.byte	W04
	.byte		N02   , Fs1 , v080
	.byte	W16
	.byte		N02
	.byte	W08
	.byte		N16   , Ds2 , v068
	.byte	W16
	.byte		N02   , Fs1 , v080
	.byte	W08
	.byte		N02
	.byte	W16
	.byte		N02
	.byte	W08
	.byte		N08   , Ds2 , v068
	.byte	W08
	.byte		N02   , Fs1 , v032
	.byte	W08
	.byte		        Fs1 , v080
	.byte	W08
	.byte	PEND
	.byte		N02
	.byte	W16
	.byte		N02
	.byte	W08
	.byte		N16   , Ds2 , v068
	.byte	W16
	.byte		N02   , Fs1 , v080
	.byte	W08
	.byte		N02
	.byte	W08
	.byte		        Ds2 , v068
	.byte	W08
	.byte		        Fs1 , v032
	.byte	W08
	.byte		        Fs1 , v080
	.byte	W08
	.byte		        Fs1 , v032
	.byte	W08
	.byte		N08   , Ds2 , v068
	.byte	W08
	.byte	PATT
	 .word	seq_002_11 + 0xC
	.byte		N02   , Fs1 , v080
	.byte	W16
	.byte		N02
	.byte	W08
	.byte		N16   , Ds2 , v068
	.byte	W16
	.byte		N02   , Fs1 , v080
	.byte	W08
	.byte		N02
	.byte	W08
	.byte		        Ds2 , v068
	.byte	W08
	.byte		        Fs1 , v032
	.byte	W08
	.byte		N24   , En2 , v068
	.byte	W24
	.byte		N02   , Fs1 , v080
	.byte	W16
	.byte		        Fs1 , v052
	.byte	W08
	.byte		N08   , Ds2 , v080
	.byte	W16
	.byte		N02   , Fs1 , v052
	.byte	W08
	.byte		        Fs1 , v080
	.byte	W16
	.byte		        Fs1 , v052
	.byte	W08
	.byte		N08   , Ds2 , v080
	.byte	W16
	.byte		N06   , Ds2 , v060
	.byte	W08
	.byte	PEND
	.byte	PATT
	 .word	seq_002_11 + 0x67
	.byte	PATT
	 .word	seq_002_11 + 0x67
	.byte		N02   , Fs1 , v080
	.byte	W16
	.byte		        Fs1 , v052
	.byte	W08
	.byte		N08   , Ds2 , v080
	.byte	W16
	.byte		N02   , Fs1 , v052
	.byte	W08
	.byte		        Fs1 , v080
	.byte	W08
	.byte		N06   , Ds2 , v060
	.byte	W16
	.byte		N08   , Ds2 , v080
	.byte	W16
	.byte		N02   , Fs1 , v052
	.byte	W08
	.byte	PATT
	 .word	seq_002_11 + 0x67
	.byte	PATT
	 .word	seq_002_11 + 0x67
	.byte	PATT
	 .word	seq_002_11 + 0x67
	.byte		N02   , Fs1 , v080
	.byte	W16
	.byte		        Fs1 , v052
	.byte	W08
	.byte		N08   , Ds2 , v080
	.byte	W16
	.byte		N02   , Fs1 , v052
	.byte	W08
	.byte		        Fs1 , v080
	.byte	W08
	.byte		N06   , Ds2 , v060
	.byte	W16
	.byte		N24   , Ds2 , v080
	.byte	W24
	.byte		N08   , Ds2 , v080
	.byte	W24
	.byte		N06   , Ds2 , v060
	.byte	W24
	.byte		N08   , Ds2 , v080
	.byte	W16
	.byte		N02   , Fs1 , v052
	.byte	W08
	.byte		N08   , Ds2 , v080
	.byte	W16
	.byte		N02   , Fs1 , v052
	.byte	W08
	.byte	PEND
	.byte		N02   , Fs1 , v080
	.byte	W16
	.byte		        Fs1 , v052
	.byte	W08
	.byte		N08   , Ds2 , v080
	.byte	W16
	.byte		N02   , Fs1 , v052
	.byte	W08
	.byte		        Fs1 , v080
	.byte	W16
	.byte		        Fs1 , v052
	.byte	W08
	.byte		N08   , Ds2 , v080
	.byte	W16
	.byte		        Ds2 , v060
	.byte	W08
	.byte	PEND
	.byte	PATT
	 .word	seq_002_11 + 0xD6
	.byte	PATT
	 .word	seq_002_11 + 0xEF
	.byte	PATT
	 .word	seq_002_11 + 0xD6
	.byte	PATT
	 .word	seq_002_11 + 0xEF
	.byte		N08   , Ds2 , v080
	.byte	W48
	.byte		N08
	.byte	W48
	.byte		N08
	.byte	W24
	.byte		N08
	.byte	W24
	.byte		N08
	.byte	W24
	.byte		N24   , En2 , v068
	.byte	W24
	.byte	GOTO
	 .word	seq_002_11 + 0x67
	.byte	FINE

@******************************************************@

	.align	2

seq_002:
	.byte	12	@ NumTrks
	.byte	0	@ NumBlks
	.byte	seq_002_pri	@ Priority
	.byte	seq_002_rev	@ Reverb

	.word	seq_002_grp

	.word	seq_002_0
	.word	seq_002_1
	.word	seq_002_2
	.word	seq_002_3
	.word	seq_002_4
	.word	seq_002_5
	.word	seq_002_6
	.word	seq_002_7
	.word	seq_002_8
	.word	seq_002_9
	.word	seq_002_10
	.word	seq_002_11

	.end
