@ File generated by m4a2s Song-Module
	.include "MPlayDef.s"

	.equ	seq_003_grp, bank_000
	.equ	seq_003_pri, 50
	.equ	seq_003_rev, 178
	.equ	seq_003_mvl, 127
	.equ	seq_003_key, 0

	.section .rodata
	.global	seq_003
	.align	2

@*********************** Track 01 ***********************@

seq_003_0:
	.byte	KEYSH , seq_003_key+0
	.byte	TEMPO , 80/2
	.byte		VOICE , 12
	.byte		VOL   , 74*seq_003_mvl/mxv
	.byte		PAN   , c_v+0
	.byte	W01
	.byte		MODT  , mod_pan
	.byte	W17
	.byte	W96
	.byte	W96
	.byte	W96
	.byte	W92
	.byte	W01
	.byte		VOICE , 12
	.byte	W01
	.byte		VOL   , 74*seq_003_mvl/mxv
	.byte	W01
	.byte		MOD   , 50
	.byte		PAN   , c_v+0
	.byte	W01
	.byte		N06   , Ds2 , v120
	.byte	W06
	.byte		N03   , As4 , v072
	.byte	W06
	.byte		N05   , Bn4 , v112
	.byte	W06
	.byte		N03   , As4 , v048
	.byte	W06
	.byte		N05   , Ds5 , v112
	.byte	W12
	.byte		        Fn5 
	.byte	W12
	.byte		        Fs5 
	.byte	W12
	.byte		        Fn5 
	.byte	W12
	.byte		        Ds5 
	.byte	W12
	.byte		        Bn4 
	.byte	W12
	.byte	PEND
	.byte		N06   , Ds2 , v120
	.byte	W06
	.byte		N03   , As4 , v072
	.byte	W06
	.byte		N05   , Bn4 , v112
	.byte	W06
	.byte		N03   , As4 , v048
	.byte	W06
	.byte		N05   , Ds5 , v112
	.byte	W12
	.byte		        Fn5 
	.byte	W12
	.byte		        Fs5 
	.byte	W12
	.byte		        Fn5 
	.byte	W12
	.byte		        Ds5 
	.byte	W12
	.byte		        Bn4 
	.byte	W11
	.byte		VOICE , 76
	.byte	W01
	.byte	PEND
	.byte	W06
	.byte		N03   , As4 , v072
	.byte	W06
	.byte		N05   , Bn4 , v112
	.byte	W06
	.byte		N03   , As4 , v048
	.byte	W06
	.byte		N05   , Ds5 , v112
	.byte	W12
	.byte		        Fn5 
	.byte	W18
	.byte		N03   , As4 , v072
	.byte	W06
	.byte		N05   , Bn4 , v112
	.byte	W06
	.byte		N03   , As4 , v048
	.byte	W06
	.byte		N05   , Ds5 , v112
	.byte	W12
	.byte		        Fn5 
	.byte	W12
	.byte	PEND
	.byte	W06
	.byte		N03   , As4 , v072
	.byte	W06
	.byte		N05   , Bn4 , v112
	.byte	W06
	.byte		N03   , As4 , v048
	.byte	W06
	.byte		N05   , Ds5 , v112
	.byte	W12
	.byte		        Fn5 
	.byte	W18
	.byte		N03   , As4 , v072
	.byte	W06
	.byte		N05   , Bn4 , v112
	.byte	W06
	.byte		N03   , As4 , v048
	.byte	W06
	.byte		N05   , Ds5 , v112
	.byte	W12
	.byte		        Fn5 
	.byte	W11
	.byte		VOICE , 12
	.byte	W01
	.byte	PATT
	 .word	seq_003_0 + 0x1E
	.byte	PATT
	 .word	seq_003_0 + 0x3D
	.byte	PATT
	 .word	seq_003_0 + 0x5F
	.byte	PATT
	 .word	seq_003_0 + 0x5F
	.byte		VOICE , 12
	.byte		PAN   , c_v+0
	.byte	W12
	.byte		N09   , Fs4 , v120
	.byte	W12
	.byte		        Fs4 , v092
	.byte	W12
	.byte		        As4 , v120
	.byte	W12
	.byte		        As4 , v092
	.byte	W12
	.byte		        Bn4 , v120
	.byte	W12
	.byte		        Bn4 , v092
	.byte	W12
	.byte		        Cs5 , v120
	.byte	W12
	.byte		N09   , Fn5 , v120
	.byte	W12
	.byte		        Fs5 , v092
	.byte	W12
	.byte		        Fn5 , v120
	.byte	W12
	.byte		        Cs5 , v092
	.byte	W12
	.byte		        Bn4 , v120
	.byte	W12
	.byte		        Cs5 , v092
	.byte	W12
	.byte		        Bn4 , v120
	.byte	W12
	.byte		        As4 , v092
	.byte	W12
	.byte	PEND
	.byte	W12
	.byte		        Fs4 , v120
	.byte	W12
	.byte		        Fs4 , v092
	.byte	W12
	.byte		        As4 , v120
	.byte	W12
	.byte		        As4 , v092
	.byte	W12
	.byte		        Bn4 , v120
	.byte	W12
	.byte		        Bn4 , v092
	.byte	W12
	.byte		        Cs5 , v120
	.byte	W12
	.byte	PATT
	 .word	seq_003_0 + 0xDC
	.byte		VOICE , 12
	.byte		PAN   , c_v-20
	.byte	W12
	.byte		N08   , Fs4 , v120
	.byte	W12
	.byte		        Fs4 , v092
	.byte	W12
	.byte		        As4 , v120
	.byte	W12
	.byte		        As4 , v092
	.byte	W12
	.byte		        Bn4 , v120
	.byte	W12
	.byte		        Bn4 , v092
	.byte	W12
	.byte		        Cs5 , v120
	.byte	W12
	.byte	W12
	.byte		        Fs4 
	.byte	W12
	.byte		        Fs4 , v092
	.byte	W12
	.byte		        As4 , v120
	.byte	W12
	.byte		        As4 , v092
	.byte	W12
	.byte		        Bn4 , v120
	.byte	W12
	.byte		        Bn4 , v092
	.byte	W12
	.byte		        Cs5 , v120
	.byte	W11
	.byte		PAN   , c_v+0
	.byte	W01
	.byte		N06   , Fn5 , v080
	.byte	W06
	.byte		N04   , As3 , v032
	.byte	W06
	.byte		N06   , Fs5 , v080
	.byte	W12
	.byte		        Fn5 
	.byte	W06
	.byte		N04   , As3 , v032
	.byte	W06
	.byte		N06   , Cs5 , v080
	.byte	W12
	.byte		        Bn4 
	.byte	W06
	.byte		N04   , As3 , v032
	.byte	W06
	.byte		N06   , Cs5 , v080
	.byte	W12
	.byte		        Bn4 
	.byte	W06
	.byte		N04   , As3 , v032
	.byte	W06
	.byte		N06   , As4 , v080
	.byte	W12
	.byte	GOTO
	 .word	seq_003_0 + 0xE
	.byte	FINE

@*********************** Track 02 ***********************@

seq_003_1:
	.byte	KEYSH , seq_003_key+0
	.byte	W01
	.byte		VOICE , 6
	.byte		VOL   , 94*seq_003_mvl/mxv
	.byte	W01
	.byte		PAN   , c_v+0
	.byte		MODT  , mod_pan
	.byte	W16
	.byte	W92
	.byte	W01
	.byte		VOICE , 6
	.byte	W01
	.byte		VOL   , 94*seq_003_mvl/mxv
	.byte	W01
	.byte		PAN   , c_v+0
	.byte	W01
	.byte	W52
	.byte	W01
	.byte		MOD   , 35
	.byte	W01
	.byte		N02   , Bn2 , v052
	.byte	W02
	.byte		        Ds3 , v092
	.byte	W02
	.byte		N08   , Bn2 
	.byte	W08
	.byte		N06   , As2 
	.byte	W06
	.byte		        Bn2 
	.byte	W06
	.byte		        As2 
	.byte	W06
	.byte		        Bn2 
	.byte	W06
	.byte		        As2 
	.byte	W06
	.byte		N48   , As0 , v052
	.byte	W02
	.byte		VOL   , 82*seq_003_mvl/mxv
	.byte	W02
	.byte		        80*seq_003_mvl/mxv
	.byte	W02
	.byte		        79*seq_003_mvl/mxv
	.byte	W02
	.byte		        77*seq_003_mvl/mxv
	.byte	W02
	.byte		        77*seq_003_mvl/mxv
	.byte	W02
	.byte		        75*seq_003_mvl/mxv
	.byte	W01
	.byte		        74*seq_003_mvl/mxv
	.byte	W02
	.byte		        74*seq_003_mvl/mxv
	.byte	W02
	.byte		        72*seq_003_mvl/mxv
	.byte	W02
	.byte		        70*seq_003_mvl/mxv
	.byte	W02
	.byte		        70*seq_003_mvl/mxv
	.byte	W02
	.byte		        68*seq_003_mvl/mxv
	.byte	W01
	.byte		        67*seq_003_mvl/mxv
	.byte	W02
	.byte		        65*seq_003_mvl/mxv
	.byte	W02
	.byte		        62*seq_003_mvl/mxv
	.byte	W02
	.byte		        58*seq_003_mvl/mxv
	.byte	W02
	.byte		        54*seq_003_mvl/mxv
	.byte	W02
	.byte		        51*seq_003_mvl/mxv
	.byte	W01
	.byte		        49*seq_003_mvl/mxv
	.byte	W02
	.byte		        45*seq_003_mvl/mxv
	.byte	W02
	.byte		        39*seq_003_mvl/mxv
	.byte	W02
	.byte		        29*seq_003_mvl/mxv
	.byte	W02
	.byte		        19*seq_003_mvl/mxv
	.byte	W02
	.byte		        10*seq_003_mvl/mxv
	.byte	W48
	.byte	W02
	.byte		        94*seq_003_mvl/mxv
	.byte	W01
	.byte	W90
	.byte		N03   , As1 , v092
	.byte	W03
	.byte		        Ds2 , v072
	.byte	W03
	.byte		N84   , As1 , v092
	.byte	W90
	.byte		N03
	.byte	W03
	.byte		        Ds2 , v072
	.byte	W03
	.byte		N84   , As1 , v092
	.byte	W96
	.byte	W96
	.byte	W90
	.byte		N03   , As1 , v072
	.byte	W03
	.byte		        Ds2 , v052
	.byte	W03
	.byte		N84   , As1 , v072
	.byte	W90
	.byte		N03
	.byte	W03
	.byte		        Ds2 , v052
	.byte	W03
	.byte		N84   , As1 , v072
	.byte	W96
	.byte	W96
	.byte	W84
	.byte		PAN   , c_v-20
	.byte	W06
	.byte		N03   , As2 
	.byte	W03
	.byte		        Ds3 , v052
	.byte	W03
	.byte		TIE   , As2 , v072
	.byte	W96
	.byte	W36
	.byte		EOT
	.byte	W06
	.byte		N03
	.byte	W03
	.byte		        Ds3 , v052
	.byte	W03
	.byte		N36   , As2 , v072
	.byte	W42
	.byte		N03
	.byte	W03
	.byte		        Ds3 , v052
	.byte	W03
	.byte		TIE   , As2 , v072
	.byte	W96
	.byte	W36
	.byte		EOT
	.byte	W06
	.byte		N03
	.byte	W03
	.byte		        Ds3 , v052
	.byte	W03
	.byte		N48   , As2 , v072
	.byte	W48
	.byte		VOICE , 12
	.byte		PAN   , c_v+20
	.byte	W12
	.byte		N08   , Cs4 , v112
	.byte	W12
	.byte		        Cs4 , v080
	.byte	W12
	.byte		        Fn4 , v112
	.byte	W12
	.byte		        Fn4 , v080
	.byte	W12
	.byte		        Fs4 , v112
	.byte	W12
	.byte		        Fs4 , v080
	.byte	W12
	.byte		        Gs4 , v112
	.byte	W12
	.byte	W12
	.byte		        Cs4 
	.byte	W12
	.byte		        Cs4 , v080
	.byte	W12
	.byte		        Fn4 , v112
	.byte	W12
	.byte		        Fn4 , v080
	.byte	W12
	.byte		        Fs4 , v112
	.byte	W12
	.byte		        Fs4 , v080
	.byte	W12
	.byte		        Gs4 , v112
	.byte	W11
	.byte		PAN   , c_v+0
	.byte	W01
	.byte		N06   , Fn4 , v080
	.byte	W12
	.byte		        Fs4 
	.byte	W06
	.byte		N04   , As2 , v032
	.byte	W06
	.byte		N06   , Fn4 , v080
	.byte	W12
	.byte		        Cs4 
	.byte	W06
	.byte		N04   , As2 , v032
	.byte	W06
	.byte		N06   , Bn3 , v080
	.byte	W12
	.byte		        Cs4 
	.byte	W06
	.byte		N04   , As2 , v032
	.byte	W06
	.byte		N06   , Bn3 , v080
	.byte	W06
	.byte		N04   , As2 , v032
	.byte	W06
	.byte		N06   , As3 , v080
	.byte	W12
	.byte	GOTO
	 .word	seq_003_1 + 0xD
	.byte	FINE

@*********************** Track 03 ***********************@

seq_003_2:
	.byte	KEYSH , seq_003_key+0
	.byte	W02
	.byte		PAN   , c_v+0
	.byte	W01
	.byte		VOICE , 69
	.byte		VOL   , 100*seq_003_mvl/mxv
	.byte	W15
	.byte	W96
	.byte	W92
	.byte	W03
	.byte		VOICE , 69
	.byte	W01
	.byte		N04   , As1 , v127
	.byte	W44
	.byte	W03
	.byte		VOICE , 68
	.byte	W01
	.byte		N02   , As1 , v072
	.byte	W12
	.byte		        As2 , v112
	.byte	W12
	.byte		        As1 , v072
	.byte	W12
	.byte		        As2 , v112
	.byte	W11
	.byte		VOICE , 69
	.byte	W01
	.byte	PEND
	.byte	PATT
	 .word	seq_003_2 + 0x11
	.byte		N04   , Ds2 , v127
	.byte	W24
	.byte		N02   , Ds2 , v072
	.byte	W23
	.byte		VOICE , 68
	.byte	W13
	.byte		N02   , Ds2 , v112
	.byte	W24
	.byte		N02
	.byte	W11
	.byte		VOICE , 69
	.byte	W01
	.byte	PEND
	.byte	PATT
	 .word	seq_003_2 + 0x2F
	.byte		N04   , As1 , v127
	.byte	W24
	.byte		N02   , As1 , v072
	.byte	W23
	.byte		VOICE , 68
	.byte	W01
	.byte		N04   , As1 , v127
	.byte	W24
	.byte		N02   , As1 , v072
	.byte	W23
	.byte		VOICE , 69
	.byte	W01
	.byte	PEND
	.byte	PATT
	 .word	seq_003_2 + 0x49
	.byte	PATT
	 .word	seq_003_2 + 0x2F
	.byte	PATT
	 .word	seq_003_2 + 0x2F
	.byte	PATT
	 .word	seq_003_2 + 0x49
	.byte	PATT
	 .word	seq_003_2 + 0x49
	.byte		N04   , Bn1 , v127
	.byte	W12
	.byte		N04
	.byte	W12
	.byte		N04
	.byte	W12
	.byte		N04
	.byte	W11
	.byte		VOICE , 68
	.byte	W01
	.byte		N04   , Cs2 
	.byte	W12
	.byte		N04
	.byte	W12
	.byte		N04
	.byte	W12
	.byte		N04
	.byte	W11
	.byte		VOICE , 69
	.byte	W01
	.byte	PEND
	.byte		N04   , Ds2 , v127
	.byte	W12
	.byte		N04
	.byte	W12
	.byte		N04
	.byte	W12
	.byte		N04
	.byte	W11
	.byte		VOICE , 68
	.byte	W01
	.byte		N04   , Cs2 
	.byte	W12
	.byte		N04
	.byte	W12
	.byte		N04
	.byte	W12
	.byte		N04
	.byte	W11
	.byte		VOICE , 69
	.byte	W01
	.byte	PEND
	.byte	PATT
	 .word	seq_003_2 + 0x79
	.byte	PATT
	 .word	seq_003_2 + 0x93
	.byte		N04   , Bn1 , v127
	.byte	W12
	.byte		N04
	.byte	W12
	.byte		N04
	.byte	W12
	.byte		N04
	.byte	W11
	.byte		VOICE , 68
	.byte	W01
	.byte		N04   , Cs2 
	.byte	W12
	.byte		N04
	.byte	W12
	.byte		N04
	.byte	W12
	.byte		N04
	.byte	W12
	.byte		        As1 
	.byte	W12
	.byte		N04
	.byte	W12
	.byte		N04
	.byte	W12
	.byte		N04
	.byte	W12
	.byte		        Ds2 
	.byte	W12
	.byte		N04
	.byte	W12
	.byte		N04
	.byte	W12
	.byte		N04
	.byte	W11
	.byte		VOICE , 69
	.byte	W01
	.byte		N04   , Fn2 
	.byte	W44
	.byte	W03
	.byte		VOICE , 68
	.byte	W01
	.byte		N02   , Fn2 , v112
	.byte	W06
	.byte		        Fn2 , v032
	.byte	W06
	.byte		        As2 , v112
	.byte	W12
	.byte		        Fn2 
	.byte	W06
	.byte		        Fn2 , v032
	.byte	W06
	.byte		        As2 , v112
	.byte	W12
	.byte	GOTO
	 .word	seq_003_2 + 0xB
	.byte	FINE

@*********************** Track 04 ***********************@

seq_003_3:
	.byte	KEYSH , seq_003_key+0
	.byte	W03
	.byte		VOICE , 81
	.byte	W01
	.byte		VOL   , 86*seq_003_mvl/mxv
	.byte		PAN   , c_v+0
	.byte	W14
	.byte	W96
	.byte	W96
	.byte	W96
	.byte	W96
	.byte		N96   , Ds1 , v100
	.byte	W96
	.byte		N96
	.byte	W96
	.byte	W96
	.byte	W96
	.byte		N96
	.byte	W96
	.byte		N96
	.byte	W96
	.byte	W96
	.byte	W92
	.byte	W03
	.byte		VOICE , 79
	.byte	W01
	.byte		N05   , Bn1 , v112
	.byte	W06
	.byte		N03   , Ds3 , v072
	.byte	W06
	.byte		N05   , Fn3 , v088
	.byte	W06
	.byte		N03   , Ds3 , v048
	.byte	W06
	.byte		N05   , Fs3 , v096
	.byte	W06
	.byte		N03   , Ds3 , v048
	.byte	W06
	.byte		N05   , As3 , v112
	.byte	W06
	.byte		N03   , Ds3 , v048
	.byte	W06
	.byte		N05   , Cs2 , v112
	.byte	W06
	.byte		N03   , Ds3 , v072
	.byte	W06
	.byte		N05   , Fn3 , v088
	.byte	W06
	.byte		N03   , Ds3 , v048
	.byte	W06
	.byte		N05   , Fs3 , v096
	.byte	W06
	.byte		N03   , Ds3 , v048
	.byte	W06
	.byte		N05   , As3 , v112
	.byte	W06
	.byte		N03   , Ds3 , v048
	.byte	W06
	.byte	PEND
	.byte		N05   , Ds2 , v112
	.byte	W06
	.byte		N03   , Ds3 , v072
	.byte	W06
	.byte		N05   , Fn3 , v088
	.byte	W06
	.byte		N03   , Ds3 , v048
	.byte	W06
	.byte		N05   , Fs3 , v096
	.byte	W06
	.byte		N03   , Ds3 , v048
	.byte	W06
	.byte		N05   , As3 , v112
	.byte	W06
	.byte		N03   , Ds3 , v048
	.byte	W06
	.byte		N05   , Cs2 , v112
	.byte	W06
	.byte		N03   , Ds3 , v072
	.byte	W06
	.byte		N05   , Fn3 , v088
	.byte	W06
	.byte		N03   , Ds3 , v048
	.byte	W06
	.byte		N05   , Fs3 , v096
	.byte	W06
	.byte		N03   , Ds3 , v048
	.byte	W06
	.byte		N05   , As3 , v112
	.byte	W06
	.byte		N03   , Ds3 , v048
	.byte	W05
	.byte		VOICE , 79
	.byte	W01
	.byte	PEND
	.byte	PATT
	 .word	seq_003_3 + 0x21
	.byte	PATT
	 .word	seq_003_3 + 0x62
	.byte	PATT
	 .word	seq_003_3 + 0x21
	.byte		N05   , Ds2 , v112
	.byte	W06
	.byte		N03   , Ds3 , v072
	.byte	W06
	.byte		N05   , Fn3 , v088
	.byte	W06
	.byte		N03   , Ds3 , v048
	.byte	W06
	.byte		N05   , Fs3 , v096
	.byte	W06
	.byte		N03   , Ds3 , v048
	.byte	W06
	.byte		N05   , As3 , v112
	.byte	W06
	.byte		N03   , Ds3 , v048
	.byte	W06
	.byte		N05   , Cs2 , v112
	.byte	W06
	.byte		N03   , Ds3 , v072
	.byte	W06
	.byte		N05   , Fn3 , v088
	.byte	W06
	.byte		N03   , Ds3 , v048
	.byte	W06
	.byte		N05   , Fs3 , v096
	.byte	W06
	.byte		N03   , Ds3 , v048
	.byte	W06
	.byte		N05   , As3 , v112
	.byte	W06
	.byte		N03   , Ds3 , v048
	.byte	W06
	.byte	W06
	.byte		VOICE , 81
	.byte	W90
	.byte	GOTO
	 .word	seq_003_3 + 0xB
	.byte	FINE

@*********************** Track 05 ***********************@

seq_003_4:
	.byte	KEYSH , seq_003_key+0
	.byte	W04
	.byte		VOICE , 6
	.byte	W01
	.byte		VOL   , 94*seq_003_mvl/mxv
	.byte		PAN   , c_v+20
	.byte	W13
	.byte	W96
	.byte	W96
	.byte	W96
	.byte	W96
	.byte	W96
	.byte	W96
	.byte	W96
	.byte	W96
	.byte	W96
	.byte	W96
	.byte	W96
	.byte	W96
	.byte		N96   , Ds2 , v076
	.byte	W96
	.byte		N96
	.byte	W96
	.byte		N96
	.byte	W96
	.byte		N96
	.byte	W96
	.byte		N96
	.byte	W96
	.byte		N96
	.byte	W96
	.byte	W96
	.byte	GOTO
	 .word	seq_003_4 + 0xB
	.byte	FINE

@*********************** Track 06 ***********************@

seq_003_5:
	.byte	KEYSH , seq_003_key+0
	.byte	W05
	.byte		VOICE , 14
	.byte	W01
	.byte		VOL   , 94*seq_003_mvl/mxv
	.byte		PAN   , c_v+0
	.byte	W12
	.byte	W60
	.byte		N06   , As2 , v072
	.byte	W24
	.byte		N06
	.byte	W12
	.byte	PEND
	.byte	PATT
	 .word	seq_003_5 + 0xB
	.byte		N06   , As1 , v100
	.byte	W60
	.byte		        As2 , v072
	.byte	W24
	.byte		N06
	.byte	W12
	.byte	PEND
	.byte	PATT
	 .word	seq_003_5 + 0x18
	.byte	W96
	.byte	W96
	.byte		N06   , As1 , v100
	.byte	W48
	.byte		N06
	.byte	W48
	.byte	PEND
	.byte	PATT
	 .word	seq_003_5 + 0x29
	.byte	W96
	.byte	W96
	.byte	PATT
	 .word	seq_003_5 + 0x29
	.byte	PATT
	 .word	seq_003_5 + 0x29
	.byte	W96
	.byte	W96
	.byte	W96
	.byte	W96
	.byte	W96
	.byte	W96
	.byte	W96
	.byte	GOTO
	 .word	seq_003_5 + 0xB
	.byte	FINE

@*********************** Track 07 ***********************@

seq_003_6:
	.byte	KEYSH , seq_003_key+0
	.byte	W06
	.byte		VOICE , 5
	.byte	W01
	.byte		VOL   , 66*seq_003_mvl/mxv
	.byte		PAN   , c_v+40
	.byte	W11
	.byte		N03   , Fs3 , v112
	.byte	W06
	.byte		        Bn2 
	.byte	W06
	.byte		        Cs3 
	.byte	W06
	.byte		        Fn3 
	.byte	W06
	.byte		        Fs3 
	.byte	W06
	.byte		        Fn3 
	.byte	W06
	.byte		        Cs3 
	.byte	W06
	.byte		        Fn3 
	.byte	W06
	.byte		        Fs3 
	.byte	W06
	.byte		        Fn3 
	.byte	W06
	.byte		        Cs3 
	.byte	W06
	.byte		        Fn3 
	.byte	W06
	.byte		        Fs3 
	.byte	W06
	.byte		        Fn3 
	.byte	W06
	.byte		        Cs3 
	.byte	W06
	.byte		        Fn3 
	.byte	W06
	.byte	PEND
	.byte		N03   , Fs3 , v112
	.byte	W06
	.byte		        Fn3 
	.byte	W06
	.byte		        Cs3 
	.byte	W06
	.byte		        Fn3 
	.byte	W06
	.byte		        Fs3 
	.byte	W06
	.byte		        Fn3 
	.byte	W06
	.byte		        Cs3 
	.byte	W06
	.byte		        Fn3 
	.byte	W06
	.byte		        Fs3 
	.byte	W06
	.byte		        Fn3 
	.byte	W06
	.byte		        Cs3 
	.byte	W06
	.byte		        Fn3 
	.byte	W06
	.byte		        Fs3 
	.byte	W06
	.byte		        Fn3 
	.byte	W06
	.byte		        Cs3 , v100
	.byte	W06
	.byte		        Fn3 
	.byte	W06
	.byte	PEND
	.byte	PATT
	 .word	seq_003_6 + 0xB
	.byte	PATT
	 .word	seq_003_6 + 0x2E
	.byte	PATT
	 .word	seq_003_6 + 0xB
	.byte	PATT
	 .word	seq_003_6 + 0x2E
	.byte	PATT
	 .word	seq_003_6 + 0xB
	.byte	PATT
	 .word	seq_003_6 + 0x2E
	.byte	PATT
	 .word	seq_003_6 + 0xB
	.byte	PATT
	 .word	seq_003_6 + 0x2E
	.byte	PATT
	 .word	seq_003_6 + 0xB
	.byte	PATT
	 .word	seq_003_6 + 0x2E
	.byte	W06
	.byte		N03   , Bn2 , v112
	.byte	W12
	.byte		        Fn3 
	.byte	W12
	.byte		N03
	.byte	W12
	.byte		N03
	.byte	W12
	.byte		N03
	.byte	W12
	.byte		N03
	.byte	W12
	.byte		N03
	.byte	W12
	.byte		N03
	.byte	W06
	.byte	PEND
	.byte	W06
	.byte		N03   , Bn2 , v112
	.byte	W12
	.byte		        Fn3 
	.byte	W12
	.byte		N03
	.byte	W12
	.byte		N03
	.byte	W12
	.byte		N03
	.byte	W12
	.byte		N03
	.byte	W12
	.byte		N03
	.byte	W12
	.byte		        Bn2 , v100
	.byte	W06
	.byte	PEND
	.byte	PATT
	 .word	seq_003_6 + 0x84
	.byte	PATT
	 .word	seq_003_6 + 0x98
	.byte	PATT
	 .word	seq_003_6 + 0x84
	.byte	PATT
	 .word	seq_003_6 + 0x98
	.byte		N06   , Fn5 , v096
	.byte	W06
	.byte		N04   , As3 , v040
	.byte	W06
	.byte		N06   , Fs5 , v096
	.byte	W12
	.byte		        Fn5 
	.byte	W06
	.byte		N04   , As3 , v040
	.byte	W06
	.byte		N06   , Cs5 , v096
	.byte	W12
	.byte		        Bn4 
	.byte	W06
	.byte		N04   , As3 , v040
	.byte	W06
	.byte		N06   , Cs5 , v096
	.byte	W12
	.byte		        Bn4 
	.byte	W06
	.byte		N04   , As3 , v040
	.byte	W06
	.byte		N06   , As4 , v096
	.byte	W12
	.byte	GOTO
	 .word	seq_003_6 + 0xB
	.byte	FINE

@*********************** Track 08 ***********************@

seq_003_7:
	.byte	KEYSH , seq_003_key+0
	.byte	W07
	.byte		VOICE , 5
	.byte	W01
	.byte		VOL   , 66*seq_003_mvl/mxv
	.byte		PAN   , c_v-40
	.byte	W10
	.byte	W06
	.byte		N03   , As3 , v112
	.byte	W06
	.byte		        Bn3 
	.byte	W06
	.byte		        As3 
	.byte	W12
	.byte		N03
	.byte	W06
	.byte		        Bn3 
	.byte	W06
	.byte		        As3 
	.byte	W12
	.byte		N03
	.byte	W06
	.byte		        Bn3 
	.byte	W06
	.byte		        As3 
	.byte	W12
	.byte		N03
	.byte	W06
	.byte		        Bn3 
	.byte	W06
	.byte		        As3 
	.byte	W06
	.byte	PEND
	.byte	PATT
	 .word	seq_003_7 + 0xB
	.byte	PATT
	 .word	seq_003_7 + 0xB
	.byte	PATT
	 .word	seq_003_7 + 0xB
	.byte	PATT
	 .word	seq_003_7 + 0xB
	.byte	PATT
	 .word	seq_003_7 + 0xB
	.byte	PATT
	 .word	seq_003_7 + 0xB
	.byte	PATT
	 .word	seq_003_7 + 0xB
	.byte	PATT
	 .word	seq_003_7 + 0xB
	.byte	PATT
	 .word	seq_003_7 + 0xB
	.byte	PATT
	 .word	seq_003_7 + 0xB
	.byte	PATT
	 .word	seq_003_7 + 0xB
	.byte	W12
	.byte		N03   , Cs3 , v112
	.byte	W12
	.byte		        Fs3 
	.byte	W12
	.byte		        Cs3 
	.byte	W12
	.byte		        Fs3 
	.byte	W12
	.byte		        Cs3 
	.byte	W12
	.byte		        Fs3 
	.byte	W12
	.byte		        Cs3 
	.byte	W12
	.byte	PEND
	.byte	W12
	.byte		N03   , Cs3 , v112
	.byte	W12
	.byte		        Fs3 
	.byte	W12
	.byte		        Cs3 
	.byte	W12
	.byte		        Fs3 
	.byte	W12
	.byte		        Cs3 
	.byte	W12
	.byte		        Fs3 
	.byte	W12
	.byte		        Cs3 , v100
	.byte	W12
	.byte	PEND
	.byte	PATT
	 .word	seq_003_7 + 0x5E
	.byte	PATT
	 .word	seq_003_7 + 0x70
	.byte	PATT
	 .word	seq_003_7 + 0x5E
	.byte	PATT
	 .word	seq_003_7 + 0x70
	.byte		N06   , Fn4 , v100
	.byte	W12
	.byte		        Fs4 
	.byte	W06
	.byte		N04   , As2 , v040
	.byte	W06
	.byte		N06   , Fn4 , v100
	.byte	W12
	.byte		        Cs4 
	.byte	W06
	.byte		N04   , As2 , v040
	.byte	W06
	.byte		N06   , Bn3 , v100
	.byte	W12
	.byte		        Cs4 
	.byte	W06
	.byte		N04   , As2 , v040
	.byte	W06
	.byte		N06   , Bn3 , v100
	.byte	W06
	.byte		N04   , As2 , v040
	.byte	W06
	.byte		N06   , As3 , v100
	.byte	W12
	.byte	GOTO
	 .word	seq_003_7 + 0xB
	.byte	FINE

@*********************** Track 09 ***********************@

seq_003_8:
	.byte	KEYSH , seq_003_key+0
	.byte	W08
	.byte		PAN   , c_v+0
	.byte	W01
	.byte		VOICE , 127
	.byte		VOL   , 100*seq_003_mvl/mxv
	.byte	W09
	.byte	W96
	.byte	W96
	.byte	W06
	.byte		N06   , Cs3 , v100
	.byte	W06
	.byte		        Fs2 , v120
	.byte	W06
	.byte		        Ds3 , v072
	.byte	W12
	.byte		N06
	.byte	W06
	.byte		        Fs2 , v120
	.byte	W06
	.byte		        Dn3 
	.byte	W12
	.byte		        Cs3 , v100
	.byte	W06
	.byte		        An4 , v120
	.byte	W06
	.byte		        Fn3 
	.byte	W06
	.byte		        Dn3 
	.byte	W06
	.byte		        Fn3 
	.byte	W06
	.byte		        An4 
	.byte	W06
	.byte		        Fs2 
	.byte	W06
	.byte	PEND
	.byte	PATT
	 .word	seq_003_8 + 0xD
	.byte	W96
	.byte	W96
	.byte	W06
	.byte		N06   , Cs3 , v100
	.byte	W06
	.byte		        Fs2 , v120
	.byte	W06
	.byte		        Ds3 , v072
	.byte	W12
	.byte		N06
	.byte	W06
	.byte		        Fs2 , v120
	.byte	W06
	.byte		        Dn3 
	.byte	W12
	.byte		        Cs3 , v100
	.byte	W06
	.byte		        Gs4 , v120
	.byte	W06
	.byte		        Fn3 
	.byte	W06
	.byte		        An4 
	.byte	W06
	.byte		        Fn3 
	.byte	W06
	.byte		        Cs3 
	.byte	W12
	.byte	PEND
	.byte	PATT
	 .word	seq_003_8 + 0x37
	.byte	W96
	.byte	W96
	.byte	PATT
	 .word	seq_003_8 + 0x37
	.byte	PATT
	 .word	seq_003_8 + 0x37
	.byte	W96
	.byte	W96
	.byte	W96
	.byte	W96
	.byte	W96
	.byte	W96
	.byte	W96
	.byte	GOTO
	 .word	seq_003_8 + 0xB
	.byte	FINE

@*********************** Track 10 ***********************@

seq_003_9:
	.byte	KEYSH , seq_003_key+0
	.byte	W09
	.byte		VOICE , 71
	.byte	W01
	.byte		VOL   , 55*seq_003_mvl/mxv
	.byte		PAN   , c_v+0
	.byte		MODT  , mod_pan
	.byte	W08
	.byte	W96
	.byte	W96
	.byte	W96
	.byte	W96
	.byte		N02   , Ds2 , v120
	.byte	W05
	.byte		MOD   , 50
	.byte	W01
	.byte		N03   , As3 , v060
	.byte	W06
	.byte		N05   , Bn3 , v112
	.byte	W06
	.byte		N03   , As3 , v036
	.byte	W06
	.byte		N04   , Ds4 , v112
	.byte	W12
	.byte		        Fn4 
	.byte	W12
	.byte		        Fs4 
	.byte	W12
	.byte		        Fn4 
	.byte	W12
	.byte		        Ds4 
	.byte	W12
	.byte		        Bn3 
	.byte	W12
	.byte	PEND
	.byte		N02   , Ds2 , v120
	.byte	W06
	.byte		N03   , As3 , v060
	.byte	W06
	.byte		N05   , Bn3 , v112
	.byte	W06
	.byte		N03   , As3 , v036
	.byte	W06
	.byte		N04   , Ds4 , v112
	.byte	W12
	.byte		        Fn4 
	.byte	W12
	.byte		        Fs4 
	.byte	W12
	.byte		        Fn4 
	.byte	W12
	.byte		        Ds4 
	.byte	W12
	.byte		        Bn3 
	.byte	W11
	.byte		MOD   , 0
	.byte	W01
	.byte	PEND
	.byte		N02   , As1 , v120
	.byte	W06
	.byte		N03   , As3 , v060
	.byte	W06
	.byte		N05   , Bn3 , v112
	.byte	W06
	.byte		N03   , As3 , v036
	.byte	W06
	.byte		N05   , Ds4 , v112
	.byte	W06
	.byte		N03   , As3 , v060
	.byte	W06
	.byte		N05   , Fn4 , v112
	.byte	W06
	.byte		N03   , As3 , v036
	.byte	W06
	.byte		N02   , As1 , v120
	.byte	W06
	.byte		N03   , As3 , v060
	.byte	W06
	.byte		N05   , Bn3 , v112
	.byte	W06
	.byte		N03   , As3 , v036
	.byte	W06
	.byte		N05   , Ds4 , v112
	.byte	W06
	.byte		N03   , As3 , v060
	.byte	W06
	.byte		N05   , Fn4 , v112
	.byte	W06
	.byte		N03   , As3 , v036
	.byte	W06
	.byte	PEND
	.byte	PATT
	 .word	seq_003_9 + 0x55
	.byte	PATT
	 .word	seq_003_9 + 0x11
	.byte	PATT
	 .word	seq_003_9 + 0x33
	.byte	PATT
	 .word	seq_003_9 + 0x55
	.byte		N02   , As1 , v120
	.byte	W06
	.byte		N03   , As3 , v060
	.byte	W06
	.byte		N05   , Bn3 , v112
	.byte	W06
	.byte		N03   , As3 , v036
	.byte	W06
	.byte		N05   , Ds4 , v112
	.byte	W06
	.byte		N03   , As3 , v060
	.byte	W06
	.byte		N05   , Fn4 , v112
	.byte	W06
	.byte		N03   , As3 , v036
	.byte	W06
	.byte		N02   , As1 , v120
	.byte	W06
	.byte		N03   , As3 , v060
	.byte	W06
	.byte		N05   , Bn3 , v112
	.byte	W06
	.byte		N03   , As3 , v036
	.byte	W06
	.byte		N05   , Ds4 , v112
	.byte	W06
	.byte		N03   , As3 , v060
	.byte	W06
	.byte		N05   , Fn4 , v112
	.byte	W06
	.byte		N03   , As3 , v036
	.byte	W05
	.byte		VOICE , 80
	.byte		MOD   , 20
	.byte		VOL   , 86*seq_003_mvl/mxv
	.byte	W01
	.byte	W06
	.byte		N03   , As2 , v060
	.byte	W06
	.byte		N05   , Bn2 , v088
	.byte	W06
	.byte		N03   , As2 , v036
	.byte	W06
	.byte		N05   , Ds3 , v096
	.byte	W06
	.byte		N03   , As2 , v060
	.byte	W06
	.byte		N05   , Fn3 , v112
	.byte	W06
	.byte		N03   , As2 , v036
	.byte	W12
	.byte		        As2 , v060
	.byte	W06
	.byte		N05   , Bn2 , v088
	.byte	W06
	.byte		N03   , As2 , v036
	.byte	W06
	.byte		N05   , Ds3 , v096
	.byte	W06
	.byte		N03   , As2 , v060
	.byte	W06
	.byte		N05   , Fn3 , v112
	.byte	W06
	.byte		N03   , As2 , v036
	.byte	W06
	.byte	PEND
	.byte	W06
	.byte		N03   , As2 , v060
	.byte	W06
	.byte		N05   , Bn2 , v088
	.byte	W06
	.byte		N03   , As2 , v036
	.byte	W06
	.byte		N05   , Ds3 , v096
	.byte	W06
	.byte		N03   , As2 , v060
	.byte	W06
	.byte		N05   , Fn3 , v112
	.byte	W06
	.byte		N03   , As2 , v036
	.byte	W12
	.byte		        As2 , v060
	.byte	W06
	.byte		N05   , Bn2 , v088
	.byte	W06
	.byte		N03   , As2 , v036
	.byte	W06
	.byte		N05   , Ds3 , v096
	.byte	W06
	.byte		N03   , As2 , v060
	.byte	W06
	.byte		N05   , Fn3 , v112
	.byte	W06
	.byte		N03   , As2 , v036
	.byte	W05
	.byte		VOICE , 80
	.byte		VOL   , 86*seq_003_mvl/mxv
	.byte	W01
	.byte	PEND
	.byte	PATT
	 .word	seq_003_9 + 0xF1
	.byte	PATT
	 .word	seq_003_9 + 0x12A
	.byte	PATT
	 .word	seq_003_9 + 0xF1
	.byte	PATT
	 .word	seq_003_9 + 0xF1
	.byte	W18
	.byte		VOICE , 71
	.byte	W01
	.byte		VOL   , 55*seq_003_mvl/mxv
	.byte	W76
	.byte	W01
	.byte	GOTO
	 .word	seq_003_9 + 0xD
	.byte	FINE

@*********************** Track 11 ***********************@

seq_003_10:
	.byte	KEYSH , seq_003_key+0
	.byte	W11
	.byte		VOICE , 120
	.byte		VOL   , 100*seq_003_mvl/mxv
	.byte		PAN   , c_v+0
	.byte	W07
	.byte		N48   , As1 , v127
	.byte	W96
	.byte		N48
	.byte	W96
	.byte		N48
	.byte	W96
	.byte		N48
	.byte	W96
	.byte		        Ds2 
	.byte	W96
	.byte		N48
	.byte	W96
	.byte		N48   , As1 , v127
	.byte	W48
	.byte		N48
	.byte	W48
	.byte	PEND
	.byte	PATT
	 .word	seq_003_10 + 0x18
	.byte		N48   , Ds2 , v127
	.byte	W96
	.byte		N48
	.byte	W96
	.byte	PATT
	 .word	seq_003_10 + 0x18
	.byte	PATT
	 .word	seq_003_10 + 0x18
	.byte		N48   , Bn1 , v127
	.byte	W48
	.byte		        Cs2 
	.byte	W48
	.byte	PEND
	.byte		N48   , Ds2 , v127
	.byte	W48
	.byte		        Cs2 
	.byte	W48
	.byte	PEND
	.byte	PATT
	 .word	seq_003_10 + 0x34
	.byte	PATT
	 .word	seq_003_10 + 0x3B
	.byte	PATT
	 .word	seq_003_10 + 0x34
	.byte		N48   , As1 , v127
	.byte	W48
	.byte		        Ds2 
	.byte	W48
	.byte		        Fn1 
	.byte	W96
	.byte	GOTO
	 .word	seq_003_10 + 0xA
	.byte	FINE

@*********************** Track 12 ***********************@

seq_003_11:
	.byte	KEYSH , seq_003_key+0
	.byte	W12
	.byte		VOICE , 127
	.byte		VOL   , 78*seq_003_mvl/mxv
	.byte		PAN   , c_v+0
	.byte	W06
	.byte		N03   , Gs1 , v092
	.byte	W12
	.byte		N03
	.byte	W06
	.byte		        Gs1 , v040
	.byte	W06
	.byte		        Gs1 , v092
	.byte	W12
	.byte		N12   , Ds2 
	.byte	W12
	.byte		N03   , Gs1 
	.byte	W12
	.byte		N03
	.byte	W06
	.byte		        Gs1 , v040
	.byte	W06
	.byte		        Gs1 , v092
	.byte	W12
	.byte		N12   , Ds2 
	.byte	W12
	.byte	PEND
	.byte	PATT
	 .word	seq_003_11 + 0xA
	.byte	PATT
	 .word	seq_003_11 + 0xA
	.byte	PATT
	 .word	seq_003_11 + 0xA
	.byte	W96
	.byte	W96
	.byte		N03   , Gs1 , v092
	.byte	W06
	.byte		        Gs1 , v040
	.byte	W06
	.byte		N06   , Ds2 , v092
	.byte	W06
	.byte		N03   , Gs1 , v040
	.byte	W06
	.byte		        Gs1 , v092
	.byte	W06
	.byte		        Gs1 , v040
	.byte	W06
	.byte		        Gs1 , v092
	.byte	W06
	.byte		        Gs1 , v040
	.byte	W06
	.byte		        Gs1 , v092
	.byte	W06
	.byte		        Gs1 , v040
	.byte	W06
	.byte		N12   , Ds2 , v092
	.byte	W12
	.byte		N03   , Gs1 
	.byte	W06
	.byte		        Gs1 , v040
	.byte	W06
	.byte		        Gs1 , v092
	.byte	W06
	.byte		        Gs1 , v040
	.byte	W06
	.byte	PEND
	.byte	PATT
	 .word	seq_003_11 + 0x39
	.byte	W96
	.byte	W96
	.byte	PATT
	 .word	seq_003_11 + 0x39
	.byte	PATT
	 .word	seq_003_11 + 0x39
	.byte	PATT
	 .word	seq_003_11 + 0x39
	.byte	PATT
	 .word	seq_003_11 + 0x39
	.byte	PATT
	 .word	seq_003_11 + 0x39
	.byte	PATT
	 .word	seq_003_11 + 0x39
	.byte	PATT
	 .word	seq_003_11 + 0x39
	.byte	PATT
	 .word	seq_003_11 + 0x39
	.byte	W96
	.byte	GOTO
	 .word	seq_003_11 + 0xA
	.byte	FINE

@******************************************************@

	.align	2

seq_003:
	.byte	12	@ NumTrks
	.byte	0	@ NumBlks
	.byte	seq_003_pri	@ Priority
	.byte	seq_003_rev	@ Reverb

	.word	seq_003_grp

	.word	seq_003_0
	.word	seq_003_1
	.word	seq_003_2
	.word	seq_003_3
	.word	seq_003_4
	.word	seq_003_5
	.word	seq_003_6
	.word	seq_003_7
	.word	seq_003_8
	.word	seq_003_9
	.word	seq_003_10
	.word	seq_003_11

	.end
