@ File generated by m4a2s Song-Module
	.include "MPlayDef.s"

	.equ	seq_014_grp, bank_000
	.equ	seq_014_pri, 50
	.equ	seq_014_rev, 178
	.equ	seq_014_mvl, 127
	.equ	seq_014_key, 0

	.section .rodata
	.global	seq_014
	.align	2

@*********************** Track 01 ***********************@

seq_014_0:
	.byte	KEYSH , seq_014_key+0
	.byte	TEMPO , 94/2
	.byte		VOICE , 46
	.byte		VOL   , 56*seq_014_mvl/mxv
	.byte		PAN   , c_v+0
	.byte	W01
	.byte		MOD   , 60
	.byte		LFOS  , 35
	.byte		MODT  , mod_pan
	.byte	W23
	.byte	W96
	.byte	W96
	.byte		VOICE , 102
	.byte		VOL   , 46*seq_014_mvl/mxv
	.byte		PAN   , c_v+0
	.byte	W01
	.byte		MOD   , 80
	.byte		LFOS  , 35
	.byte	W01
	.byte		MODT  , mod_pan
	.byte	W92
	.byte	W02
	.byte	PEND
	.byte	W06
	.byte		N02   , Bn0 , v072
	.byte	W06
	.byte		        Bn0 , v020
	.byte	W06
	.byte		        An2 , v112
	.byte	W03
	.byte		        An2 , v048
	.byte	W09
	.byte		        An2 , v112
	.byte	W03
	.byte		        An2 , v048
	.byte	W06
	.byte		        An2 , v112
	.byte	W03
	.byte		        An2 , v032
	.byte	W06
	.byte		        An2 , v100
	.byte	W03
	.byte		        An2 , v032
	.byte	W03
	.byte		        An2 , v092
	.byte	W03
	.byte		        An2 , v032
	.byte	W03
	.byte		        An2 , v088
	.byte	W03
	.byte		        An2 , v032
	.byte	W03
	.byte		        An2 , v080
	.byte	W03
	.byte		        An2 , v032
	.byte	W03
	.byte		        An2 , v076
	.byte	W03
	.byte		        An2 , v032
	.byte	W03
	.byte		        An2 , v072
	.byte	W03
	.byte		        An2 , v068
	.byte	W02
	.byte		        An2 , v032
	.byte	W02
	.byte		        An2 , v056
	.byte	W02
	.byte		        An2 , v032
	.byte	W02
	.byte		        An2 , v048
	.byte	W02
	.byte		        An2 , v032
	.byte	W05
	.byte	PEND
	.byte	W96
	.byte	W96
	.byte		VOICE , 46
	.byte		VOL   , 66*seq_014_mvl/mxv
	.byte		PAN   , c_v+0
	.byte	W01
	.byte		MOD   , 100
	.byte		LFOS  , 35
	.byte	W01
	.byte		MODT  , mod_pan
	.byte	W92
	.byte	W02
	.byte		N03   , En3 , v080
	.byte	W03
	.byte		        En3 , v040
	.byte	W03
	.byte		        En3 , v032
	.byte	W03
	.byte		        En3 , v012
	.byte	W03
	.byte		        Dn4 , v112
	.byte	W03
	.byte		        Dn4 , v072
	.byte	W03
	.byte		        Dn4 , v040
	.byte	W03
	.byte		        Dn4 , v020
	.byte	W15
	.byte		        Cs4 , v112
	.byte	W03
	.byte		        Cs4 , v072
	.byte	W03
	.byte		        Cs4 , v040
	.byte	W03
	.byte		        Cs4 , v020
	.byte	W15
	.byte		        An3 , v112
	.byte	W03
	.byte		        An3 , v072
	.byte	W03
	.byte		        An3 , v040
	.byte	W03
	.byte		        An3 , v020
	.byte	W15
	.byte		        Gn3 , v112
	.byte	W03
	.byte		        Gn3 , v072
	.byte	W03
	.byte		        Gn3 , v040
	.byte	W03
	.byte		        Gn3 , v020
	.byte	W03
	.byte	PEND
	.byte	W92
	.byte	W03
	.byte		VOICE , 100
	.byte		VOL   , 40*seq_014_mvl/mxv
	.byte	W01
	.byte	PEND
	.byte		N03   , Dn3 , v112
	.byte	W03
	.byte		        Dn3 , v072
	.byte	W03
	.byte		        An2 , v112
	.byte	W03
	.byte		        An2 , v072
	.byte	W03
	.byte		        An2 , v040
	.byte	W03
	.byte		        An2 , v020
	.byte	W03
	.byte		        Dn3 , v112
	.byte	W03
	.byte		        Dn3 , v072
	.byte	W03
	.byte		        An2 , v112
	.byte	W03
	.byte		        An2 , v072
	.byte	W03
	.byte		        An2 , v040
	.byte	W03
	.byte		        An2 , v020
	.byte	W03
	.byte		        Dn3 , v112
	.byte	W03
	.byte		        Dn3 , v072
	.byte	W03
	.byte		        An2 , v112
	.byte	W03
	.byte		        An2 , v072
	.byte	W03
	.byte		        An2 , v040
	.byte	W03
	.byte		        An2 , v020
	.byte	W03
	.byte		        Dn3 , v112
	.byte	W03
	.byte		        Dn3 , v072
	.byte	W03
	.byte		        An2 , v112
	.byte	W03
	.byte		        An2 , v072
	.byte	W03
	.byte		        An2 , v040
	.byte	W03
	.byte		        An2 , v020
	.byte	W24
	.byte	W03
	.byte	W92
	.byte	W03
	.byte		VOICE , 46
	.byte		VOL   , 66*seq_014_mvl/mxv
	.byte	W01
	.byte	PEND
	.byte	PATT
	 .word	seq_014_0 + 0x85
	.byte	PATT
	 .word	seq_014_0 + 0xC3
	.byte		N03   , Ds3 , v112
	.byte	W03
	.byte		        Ds3 , v072
	.byte	W03
	.byte		        As2 , v112
	.byte	W03
	.byte		        As2 , v072
	.byte	W03
	.byte		        As2 , v040
	.byte	W03
	.byte		        As2 , v020
	.byte	W03
	.byte		        Ds3 , v112
	.byte	W03
	.byte		        Ds3 , v072
	.byte	W03
	.byte		        As2 , v112
	.byte	W03
	.byte		        As2 , v072
	.byte	W03
	.byte		        As2 , v040
	.byte	W03
	.byte		        As2 , v020
	.byte	W03
	.byte		        Ds3 , v112
	.byte	W03
	.byte		        Ds3 , v072
	.byte	W03
	.byte		        As2 , v112
	.byte	W03
	.byte		        As2 , v072
	.byte	W03
	.byte		        As2 , v040
	.byte	W03
	.byte		        As2 , v020
	.byte	W03
	.byte		        Ds3 , v112
	.byte	W03
	.byte		        Ds3 , v072
	.byte	W03
	.byte		        As2 , v112
	.byte	W03
	.byte		        As2 , v072
	.byte	W03
	.byte		        As2 , v040
	.byte	W03
	.byte		        As2 , v020
	.byte	W24
	.byte	W03
	.byte	PATT
	 .word	seq_014_0 + 0x115
	.byte	PATT
	 .word	seq_014_0 + 0x85
	.byte	W96
	.byte	W96
	.byte	W96
	.byte	W96
	.byte	W96
	.byte	W96
	.byte	W96
	.byte		VOICE , 95
	.byte		VOL   , 50*seq_014_mvl/mxv
	.byte		PAN   , c_v-40
	.byte	W01
	.byte		MOD   , 5
	.byte		LFOS  , 35
	.byte	W01
	.byte		MODT  , mod_tre
	.byte	W92
	.byte	W02
	.byte	W12
	.byte		N04   , An3 , v112
	.byte	W06
	.byte		        An3 , v048
	.byte	W18
	.byte		        An3 , v112
	.byte	W06
	.byte		        An3 , v048
	.byte	W18
	.byte		        An3 , v112
	.byte	W06
	.byte		        An3 , v048
	.byte	W18
	.byte		        An3 , v112
	.byte	W06
	.byte		        An3 , v048
	.byte	W06
	.byte	PEND
	.byte	PATT
	 .word	seq_014_0 + 0x192
	.byte	PATT
	 .word	seq_014_0 + 0x192
	.byte	PATT
	 .word	seq_014_0 + 0x192
	.byte	PATT
	 .word	seq_014_0 + 0x192
	.byte	PATT
	 .word	seq_014_0 + 0x192
	.byte	PATT
	 .word	seq_014_0 + 0x192
	.byte		N24   , Cn3 , v092
	.byte	W24
	.byte		        Bn2 
	.byte	W24
	.byte		        Cn3 
	.byte	W24
	.byte		        Cs3 
	.byte	W24
	.byte		TIE   , Dn3 
	.byte	W06
	.byte		VOL   , 52*seq_014_mvl/mxv
	.byte	W16
	.byte		        50*seq_014_mvl/mxv
	.byte	W15
	.byte		        48*seq_014_mvl/mxv
	.byte	W15
	.byte		        46*seq_014_mvl/mxv
	.byte	W11
	.byte		        45*seq_014_mvl/mxv
	.byte	W10
	.byte		        44*seq_014_mvl/mxv
	.byte	W08
	.byte		        42*seq_014_mvl/mxv
	.byte	W10
	.byte		        41*seq_014_mvl/mxv
	.byte	W05
	.byte		        40*seq_014_mvl/mxv
	.byte	W05
	.byte		        38*seq_014_mvl/mxv
	.byte	W05
	.byte		        37*seq_014_mvl/mxv
	.byte	W05
	.byte		        36*seq_014_mvl/mxv
	.byte	W05
	.byte		        34*seq_014_mvl/mxv
	.byte	W05
	.byte		        33*seq_014_mvl/mxv
	.byte	W06
	.byte		        31*seq_014_mvl/mxv
	.byte	W07
	.byte		        30*seq_014_mvl/mxv
	.byte	W05
	.byte		        28*seq_014_mvl/mxv
	.byte	W05
	.byte		        27*seq_014_mvl/mxv
	.byte	W06
	.byte		        25*seq_014_mvl/mxv
	.byte	W05
	.byte		        24*seq_014_mvl/mxv
	.byte	W05
	.byte		        22*seq_014_mvl/mxv
	.byte	W02
	.byte		        21*seq_014_mvl/mxv
	.byte	W03
	.byte		        19*seq_014_mvl/mxv
	.byte	W02
	.byte		        18*seq_014_mvl/mxv
	.byte	W03
	.byte		        16*seq_014_mvl/mxv
	.byte	W03
	.byte		        14*seq_014_mvl/mxv
	.byte	W02
	.byte		        12*seq_014_mvl/mxv
	.byte	W03
	.byte		        10*seq_014_mvl/mxv
	.byte	W02
	.byte		        8*seq_014_mvl/mxv
	.byte	W03
	.byte		        6*seq_014_mvl/mxv
	.byte	W02
	.byte		        5*seq_014_mvl/mxv
	.byte	W03
	.byte		        3*seq_014_mvl/mxv
	.byte	W04
	.byte		EOT
	.byte	PATT
	 .word	seq_014_0 + 0x14
	.byte	PATT
	 .word	seq_014_0 + 0x25
	.byte	GOTO
	 .word	seq_014_0 + 0x73
	.byte	FINE

@*********************** Track 02 ***********************@

seq_014_1:
	.byte	KEYSH , seq_014_key+0
	.byte	W03
	.byte		VOICE , 95
	.byte		VOL   , 50*seq_014_mvl/mxv
	.byte		PAN   , c_v+40
	.byte	W01
	.byte		MOD   , 3
	.byte		LFOS  , 35
	.byte		MODT  , mod_tre
	.byte	W20
	.byte	W96
	.byte	W96
	.byte	W96
	.byte	W96
	.byte	W96
	.byte	W96
	.byte	W96
	.byte	W96
	.byte	W96
	.byte	W96
	.byte	W96
	.byte	W96
	.byte	W96
	.byte	W96
	.byte	W96
	.byte	W96
	.byte	W96
	.byte	W96
	.byte	W96
	.byte	W96
	.byte	W96
	.byte	W96
	.byte	W96
	.byte		VOL   , 50*seq_014_mvl/mxv
	.byte	W96
	.byte	W12
	.byte		N04   , En3 , v112
	.byte	W06
	.byte		        En3 , v048
	.byte	W18
	.byte		        En3 , v112
	.byte	W06
	.byte		        En3 , v048
	.byte	W18
	.byte		        En3 , v112
	.byte	W06
	.byte		        En3 , v048
	.byte	W18
	.byte		        En3 , v112
	.byte	W06
	.byte		        En3 , v048
	.byte	W06
	.byte	PEND
	.byte	PATT
	 .word	seq_014_1 + 0x2B
	.byte	PATT
	 .word	seq_014_1 + 0x2B
	.byte	PATT
	 .word	seq_014_1 + 0x2B
	.byte	W12
	.byte		N04   , Dn3 , v112
	.byte	W06
	.byte		        Dn3 , v048
	.byte	W18
	.byte		        Dn3 , v112
	.byte	W06
	.byte		        Dn3 , v048
	.byte	W18
	.byte		        Dn3 , v112
	.byte	W06
	.byte		        Dn3 , v048
	.byte	W18
	.byte		        Dn3 , v112
	.byte	W06
	.byte		        Dn3 , v048
	.byte	W06
	.byte	PEND
	.byte	PATT
	 .word	seq_014_1 + 0x55
	.byte	PATT
	 .word	seq_014_1 + 0x55
	.byte		N24   , Gn2 , v112
	.byte	W24
	.byte		        Fs2 
	.byte	W24
	.byte		        Gn2 
	.byte	W24
	.byte		        Gs2 
	.byte	W24
	.byte		TIE   , An2 
	.byte	W06
	.byte		VOL   , 52*seq_014_mvl/mxv
	.byte	W16
	.byte		        50*seq_014_mvl/mxv
	.byte	W15
	.byte		        48*seq_014_mvl/mxv
	.byte	W15
	.byte		        46*seq_014_mvl/mxv
	.byte	W11
	.byte		        45*seq_014_mvl/mxv
	.byte	W10
	.byte		        44*seq_014_mvl/mxv
	.byte	W08
	.byte		        42*seq_014_mvl/mxv
	.byte	W10
	.byte		        41*seq_014_mvl/mxv
	.byte	W05
	.byte		        40*seq_014_mvl/mxv
	.byte	W05
	.byte		        38*seq_014_mvl/mxv
	.byte	W05
	.byte		        37*seq_014_mvl/mxv
	.byte	W05
	.byte		        36*seq_014_mvl/mxv
	.byte	W05
	.byte		        34*seq_014_mvl/mxv
	.byte	W05
	.byte		        33*seq_014_mvl/mxv
	.byte	W06
	.byte		        31*seq_014_mvl/mxv
	.byte	W07
	.byte		        30*seq_014_mvl/mxv
	.byte	W05
	.byte		        28*seq_014_mvl/mxv
	.byte	W05
	.byte		        27*seq_014_mvl/mxv
	.byte	W06
	.byte		        25*seq_014_mvl/mxv
	.byte	W05
	.byte		        24*seq_014_mvl/mxv
	.byte	W05
	.byte		        22*seq_014_mvl/mxv
	.byte	W02
	.byte		        21*seq_014_mvl/mxv
	.byte	W03
	.byte		        19*seq_014_mvl/mxv
	.byte	W02
	.byte		        18*seq_014_mvl/mxv
	.byte	W03
	.byte		        16*seq_014_mvl/mxv
	.byte	W03
	.byte		        14*seq_014_mvl/mxv
	.byte	W02
	.byte		        12*seq_014_mvl/mxv
	.byte	W03
	.byte		        10*seq_014_mvl/mxv
	.byte	W02
	.byte		        8*seq_014_mvl/mxv
	.byte	W03
	.byte		        6*seq_014_mvl/mxv
	.byte	W02
	.byte		        5*seq_014_mvl/mxv
	.byte	W03
	.byte		        3*seq_014_mvl/mxv
	.byte	W04
	.byte		EOT
	.byte	W96
	.byte	W96
	.byte	GOTO
	 .word	seq_014_1 + 0x15
	.byte	FINE

@*********************** Track 03 ***********************@

seq_014_2:
	.byte	KEYSH , seq_014_key+0
	.byte	W05
	.byte		VOICE , 95
	.byte		VOL   , 80*seq_014_mvl/mxv
	.byte		PAN   , c_v+0
	.byte	W01
	.byte		MOD   , 4
	.byte		MODT  , mod_tre
	.byte	W18
	.byte	W96
	.byte	W96
	.byte	W96
	.byte	W96
	.byte	W96
	.byte	W96
	.byte	W96
	.byte	W96
	.byte	W96
	.byte	W96
	.byte	W96
	.byte	W96
	.byte	W96
	.byte	W96
	.byte	W96
	.byte	W96
	.byte		N72   , Dn2 , v120
	.byte	W84
	.byte		N04   , Cs2 
	.byte	W06
	.byte		        Cs2 , v080
	.byte	W06
	.byte	PEND
	.byte		N24   , Dn2 , v120
	.byte	W24
	.byte		        En2 
	.byte	W24
	.byte		        Dn2 
	.byte	W24
	.byte		        Cs2 
	.byte	W24
	.byte	PEND
	.byte	PATT
	 .word	seq_014_2 + 0x1F
	.byte	PATT
	 .word	seq_014_2 + 0x2A
	.byte		N72   , Cn2 , v120
	.byte	W84
	.byte		N04   , Bn1 
	.byte	W06
	.byte		        Bn1 , v080
	.byte	W06
	.byte	PEND
	.byte		N24   , Cn2 , v120
	.byte	W24
	.byte		        Dn2 
	.byte	W24
	.byte		        Cn2 
	.byte	W24
	.byte		        Bn1 
	.byte	W24
	.byte	PEND
	.byte	PATT
	 .word	seq_014_2 + 0x3F
	.byte		N24   , Cn2 , v120
	.byte	W24
	.byte		        Bn1 
	.byte	W24
	.byte		        Cn2 
	.byte	W24
	.byte		        Cs2 
	.byte	W24
	.byte	PEND
	.byte	PATT
	 .word	seq_014_2 + 0x1F
	.byte	PATT
	 .word	seq_014_2 + 0x2A
	.byte	PATT
	 .word	seq_014_2 + 0x1F
	.byte	PATT
	 .word	seq_014_2 + 0x2A
	.byte	PATT
	 .word	seq_014_2 + 0x3F
	.byte	PATT
	 .word	seq_014_2 + 0x4A
	.byte	PATT
	 .word	seq_014_2 + 0x3F
	.byte	PATT
	 .word	seq_014_2 + 0x5A
	.byte	W96
	.byte	W96
	.byte	W96
	.byte	W96
	.byte	GOTO
	 .word	seq_014_2 + 0x13
	.byte	FINE

@*********************** Track 04 ***********************@

seq_014_3:
	.byte	KEYSH , seq_014_key+0
	.byte	W07
	.byte		VOICE , 16
	.byte		VOL   , 56*seq_014_mvl/mxv
	.byte		PAN   , c_v+0
	.byte	W01
	.byte		MOD   , 50
	.byte		MODT  , mod_pan
	.byte	W16
	.byte		N12   , En2 , v112
	.byte	W12
	.byte		N03   , Dn3 
	.byte	W12
	.byte		N12
	.byte	W12
	.byte		N02   , Bn2 , v040
	.byte	W12
	.byte		N06   , Cs3 , v112
	.byte	W06
	.byte		N03   , Dn3 
	.byte	W12
	.byte		N12
	.byte	W11
	.byte		VOICE , 113
	.byte		MOD   , 0
	.byte	W01
	.byte		N06   , An3 , v040
	.byte	W06
	.byte		N03   , Bn3 , v052
	.byte	W06
	.byte		        En3 , v040
	.byte	W06
	.byte	PEND
	.byte	W54
	.byte		N06   , En3 , v040
	.byte	W12
	.byte		        Dn3 
	.byte	W12
	.byte		        An2 
	.byte	W06
	.byte		N12   , Bn2 
	.byte	W11
	.byte		VOICE , 16
	.byte		MOD   , 50
	.byte	W01
	.byte	PEND
	.byte	PATT
	 .word	seq_014_3 + 0xF
	.byte	W92
	.byte	W03
	.byte		VOICE , 16
	.byte		MOD   , 50
	.byte	W01
	.byte	PEND
	.byte		N12   , Fn2 , v112
	.byte	W12
	.byte		N03   , Ds3 
	.byte	W12
	.byte		N12
	.byte	W12
	.byte		N02   , Cn3 , v040
	.byte	W12
	.byte		N06   , Dn3 , v112
	.byte	W06
	.byte		N03   , Ds3 
	.byte	W12
	.byte		N12
	.byte	W11
	.byte		VOICE , 113
	.byte		MOD   , 0
	.byte	W01
	.byte		N06   , As3 , v040
	.byte	W06
	.byte		N03   , Cn4 , v052
	.byte	W06
	.byte		        Fn3 , v040
	.byte	W06
	.byte	PEND
	.byte	W54
	.byte		N06
	.byte	W12
	.byte		        Ds3 
	.byte	W12
	.byte		        As2 
	.byte	W06
	.byte		N12   , Cn3 
	.byte	W11
	.byte		VOICE , 16
	.byte		MOD   , 50
	.byte	W01
	.byte	PATT
	 .word	seq_014_3 + 0xF
	.byte	PATT
	 .word	seq_014_3 + 0x4D
	.byte	PATT
	 .word	seq_014_3 + 0xF
	.byte	PATT
	 .word	seq_014_3 + 0x4D
	.byte	PATT
	 .word	seq_014_3 + 0xF
	.byte	PATT
	 .word	seq_014_3 + 0x4D
	.byte	PATT
	 .word	seq_014_3 + 0x55
	.byte	PATT
	 .word	seq_014_3 + 0x4D
	.byte	PATT
	 .word	seq_014_3 + 0xF
	.byte	W92
	.byte	W01
	.byte		VOICE , 95
	.byte		VOL   , 80*seq_014_mvl/mxv
	.byte	W03
	.byte		N72   , An1 , v112
	.byte	W96
	.byte		N96
	.byte	W96
	.byte		N72
	.byte	W96
	.byte		N96
	.byte	W96
	.byte		N72   , Gn1 
	.byte	W96
	.byte		N96
	.byte	W96
	.byte		N72
	.byte	W96
	.byte		N24
	.byte	W24
	.byte		        Fs1 
	.byte	W24
	.byte		        Gn1 
	.byte	W24
	.byte		        Gs1 
	.byte	W24
	.byte		N72   , An1 
	.byte	W96
	.byte		N96
	.byte	W96
	.byte		N72
	.byte	W96
	.byte		N96
	.byte	W96
	.byte		N72   , Gn1 
	.byte	W96
	.byte		N96
	.byte	W96
	.byte		N72
	.byte	W96
	.byte		N24
	.byte	W24
	.byte		        Fs1 
	.byte	W24
	.byte		        Gn1 
	.byte	W24
	.byte		        Gs1 
	.byte	W23
	.byte		VOICE , 16
	.byte		MOD   , 50
	.byte		VOL   , 56*seq_014_mvl/mxv
	.byte	W01
	.byte	PATT
	 .word	seq_014_3 + 0xF
	.byte	PATT
	 .word	seq_014_3 + 0x36
	.byte		N12   , En2 , v112
	.byte	W12
	.byte		N03   , Dn3 
	.byte	W12
	.byte		N12
	.byte	W12
	.byte		N02   , Bn2 , v040
	.byte	W12
	.byte		N06   , Cs3 , v112
	.byte	W06
	.byte		N03   , Dn3 
	.byte	W12
	.byte		N12
	.byte	W11
	.byte		VOICE , 113
	.byte		MOD   , 0
	.byte	W01
	.byte		N06   , An3 , v040
	.byte	W06
	.byte		N03   , Bn3 , v052
	.byte	W06
	.byte		        En3 , v040
	.byte	W05
	.byte		VOICE , 16
	.byte		MOD   , 50
	.byte	W01
	.byte	W96
	.byte	GOTO
	 .word	seq_014_3 + 0x55
	.byte	FINE

@*********************** Track 05 ***********************@

seq_014_4:
	.byte	KEYSH , seq_014_key+0
	.byte	W09
	.byte		VOICE , 17
	.byte		VOL   , 43*seq_014_mvl/mxv
	.byte		PAN   , c_v-63
	.byte	W15
	.byte	W12
	.byte		N03   , An2 , v080
	.byte	W12
	.byte		N12
	.byte	W24
	.byte		N06   , Gs2 
	.byte	W06
	.byte		N03   , An2 
	.byte	W12
	.byte		N18
	.byte	W30
	.byte	PEND
	.byte	W96
	.byte	PATT
	 .word	seq_014_4 + 0xA
	.byte	W96
	.byte	W12
	.byte		N03   , As2 , v080
	.byte	W12
	.byte		N12
	.byte	W24
	.byte		N06   , An2 
	.byte	W06
	.byte		N03   , As2 
	.byte	W12
	.byte		N18
	.byte	W30
	.byte	PEND
	.byte	W96
	.byte	PATT
	 .word	seq_014_4 + 0xA
	.byte	W52
	.byte	W01
	.byte		VOICE , 10
	.byte		PAN   , c_v-20
	.byte	W01
	.byte		N02   , Bn3 , v052
	.byte	W03
	.byte		        Bn3 , v036
	.byte	W03
	.byte		        Bn3 , v068
	.byte	W03
	.byte		        Bn3 , v036
	.byte	W02
	.byte		PAN   , c_v+20
	.byte	W01
	.byte		N02   , En4 , v060
	.byte	W03
	.byte		        En4 , v048
	.byte	W03
	.byte		        En4 , v072
	.byte	W03
	.byte		        En4 , v048
	.byte	W02
	.byte		PAN   , c_v-40
	.byte	W01
	.byte		N02   , An4 , v076
	.byte	W03
	.byte		        An4 , v048
	.byte	W03
	.byte		        Dn5 , v080
	.byte	W03
	.byte		        Dn5 , v036
	.byte	W02
	.byte		PAN   , c_v+63
	.byte	W01
	.byte		N02   , Dn5 , v040
	.byte	W03
	.byte		VOICE , 17
	.byte		N02   , Dn5 , v020
	.byte	W02
	.byte		PAN   , c_v-63
	.byte	W01
	.byte	PATT
	 .word	seq_014_4 + 0xA
	.byte	W96
	.byte	PATT
	 .word	seq_014_4 + 0xA
	.byte	W96
	.byte	PATT
	 .word	seq_014_4 + 0x21
	.byte	W96
	.byte	PATT
	 .word	seq_014_4 + 0xA
	.byte	W52
	.byte	W01
	.byte		VOICE , 10
	.byte		PAN   , c_v-20
	.byte	W01
	.byte		N02   , Bn3 , v052
	.byte	W03
	.byte		        Bn3 , v036
	.byte	W03
	.byte		        Bn3 , v068
	.byte	W03
	.byte		        Bn3 , v036
	.byte	W02
	.byte		PAN   , c_v+20
	.byte	W01
	.byte		N02   , En4 , v060
	.byte	W03
	.byte		        En4 , v048
	.byte	W03
	.byte		        En4 , v072
	.byte	W03
	.byte		        En4 , v048
	.byte	W02
	.byte		PAN   , c_v-40
	.byte	W01
	.byte		N02   , An4 , v076
	.byte	W03
	.byte		        An4 , v048
	.byte	W03
	.byte		        Dn5 , v080
	.byte	W03
	.byte		        Dn5 , v036
	.byte	W02
	.byte		PAN   , c_v+63
	.byte	W01
	.byte		N02   , Dn5 , v040
	.byte	W03
	.byte		        Dn5 , v020
	.byte	W02
	.byte		VOICE , 7
	.byte		PAN   , c_v+40
	.byte	W01
	.byte	W12
	.byte		N04   , An3 , v112
	.byte	W06
	.byte		        An3 , v032
	.byte	W06
	.byte		        An3 , v048
	.byte	W06
	.byte		        An3 , v032
	.byte	W06
	.byte		        An3 , v112
	.byte	W06
	.byte		        An3 , v032
	.byte	W06
	.byte		        An3 , v048
	.byte	W06
	.byte		        An3 , v032
	.byte	W06
	.byte		        An3 , v112
	.byte	W06
	.byte		        An3 , v032
	.byte	W06
	.byte		        An3 , v048
	.byte	W06
	.byte		        An3 , v032
	.byte	W06
	.byte		        An3 , v112
	.byte	W06
	.byte		        An3 , v032
	.byte	W06
	.byte	PEND
	.byte		N04   , An3 , v048
	.byte	W06
	.byte		        An3 , v032
	.byte	W06
	.byte		        An3 , v112
	.byte	W06
	.byte		        An3 , v032
	.byte	W06
	.byte		        An3 , v048
	.byte	W06
	.byte		        An3 , v032
	.byte	W06
	.byte		        An3 , v112
	.byte	W06
	.byte		        An3 , v032
	.byte	W06
	.byte		        An3 , v048
	.byte	W06
	.byte		        An3 , v032
	.byte	W06
	.byte		        An3 , v112
	.byte	W06
	.byte		        An3 , v032
	.byte	W06
	.byte		        An3 , v048
	.byte	W06
	.byte		        An3 , v032
	.byte	W06
	.byte		        An3 , v112
	.byte	W06
	.byte		        An3 , v032
	.byte	W06
	.byte	PEND
	.byte	PATT
	 .word	seq_014_4 + 0xD5
	.byte	PATT
	 .word	seq_014_4 + 0x102
	.byte	W12
	.byte		N04   , Gn3 , v112
	.byte	W06
	.byte		        Gn3 , v032
	.byte	W06
	.byte		        Gn3 , v048
	.byte	W06
	.byte		        Gn3 , v032
	.byte	W06
	.byte		        Gn3 , v112
	.byte	W06
	.byte		        Gn3 , v032
	.byte	W06
	.byte		        Gn3 , v048
	.byte	W06
	.byte		        Gn3 , v032
	.byte	W06
	.byte		        Gn3 , v112
	.byte	W06
	.byte		        Gn3 , v032
	.byte	W06
	.byte		        Gn3 , v048
	.byte	W06
	.byte		        Gn3 , v032
	.byte	W06
	.byte		        Gn3 , v112
	.byte	W06
	.byte		        Gn3 , v032
	.byte	W06
	.byte	PEND
	.byte		        Gn3 , v048
	.byte	W06
	.byte		        Gn3 , v032
	.byte	W06
	.byte		        Gn3 , v112
	.byte	W06
	.byte		        Gn3 , v032
	.byte	W06
	.byte		        Gn3 , v048
	.byte	W06
	.byte		        Gn3 , v032
	.byte	W06
	.byte		        Gn3 , v112
	.byte	W06
	.byte		        Gn3 , v032
	.byte	W06
	.byte		        Gn3 , v048
	.byte	W06
	.byte		        Gn3 , v032
	.byte	W06
	.byte		        Gn3 , v112
	.byte	W06
	.byte		        Gn3 , v032
	.byte	W06
	.byte		        Gn3 , v048
	.byte	W06
	.byte		        Gn3 , v032
	.byte	W06
	.byte		        Gn3 , v112
	.byte	W06
	.byte		        Gn3 , v032
	.byte	W06
	.byte	PATT
	 .word	seq_014_4 + 0x13E
	.byte	W96
	.byte	W96
	.byte	W96
	.byte	W96
	.byte	W96
	.byte	W96
	.byte	W96
	.byte	W96
	.byte	W92
	.byte	W03
	.byte		VOICE , 17
	.byte		PAN   , c_v-63
	.byte	W01
	.byte	PATT
	 .word	seq_014_4 + 0xA
	.byte	W96
	.byte	PATT
	 .word	seq_014_4 + 0xA
	.byte	W96
	.byte	GOTO
	 .word	seq_014_4 + 0x21
	.byte	FINE

@*********************** Track 06 ***********************@

seq_014_5:
	.byte	KEYSH , seq_014_key+0
	.byte	W10
	.byte		VOICE , 17
	.byte		VOL   , 43*seq_014_mvl/mxv
	.byte		PAN   , c_v+63
	.byte	W14
	.byte	W12
	.byte		N03   , En2 , v080
	.byte	W12
	.byte		N12
	.byte	W24
	.byte		N06
	.byte	W18
	.byte		N18
	.byte	W30
	.byte	PEND
	.byte	W96
	.byte	PATT
	 .word	seq_014_5 + 0xA
	.byte	W96
	.byte	W12
	.byte		N03   , Fn2 , v080
	.byte	W12
	.byte		N12
	.byte	W24
	.byte		N06
	.byte	W18
	.byte		N18
	.byte	W30
	.byte	PEND
	.byte	W96
	.byte	PATT
	 .word	seq_014_5 + 0xA
	.byte	W52
	.byte	W01
	.byte		VOICE , 10
	.byte		PAN   , c_v+20
	.byte	W01
	.byte		N02   , En3 , v052
	.byte	W03
	.byte		        En3 , v036
	.byte	W03
	.byte		        En3 , v068
	.byte	W03
	.byte		        En3 , v036
	.byte	W02
	.byte		PAN   , c_v-20
	.byte	W01
	.byte		N02   , Bn3 , v060
	.byte	W03
	.byte		        Bn3 , v048
	.byte	W03
	.byte		        Bn3 , v072
	.byte	W03
	.byte		        Bn3 , v048
	.byte	W02
	.byte		PAN   , c_v+40
	.byte	W01
	.byte		N02   , En4 , v076
	.byte	W03
	.byte		        En4 , v048
	.byte	W03
	.byte		        An4 , v080
	.byte	W03
	.byte		        An4 , v036
	.byte	W02
	.byte		PAN   , c_v-63
	.byte	W01
	.byte		N02   , An4 , v040
	.byte	W03
	.byte		VOICE , 17
	.byte		N02   , An4 , v020
	.byte	W02
	.byte		PAN   , c_v+63
	.byte	W01
	.byte	PATT
	 .word	seq_014_5 + 0xA
	.byte	W96
	.byte	PATT
	 .word	seq_014_5 + 0xA
	.byte	W96
	.byte	PATT
	 .word	seq_014_5 + 0x1D
	.byte	W96
	.byte	PATT
	 .word	seq_014_5 + 0xA
	.byte	W52
	.byte	W01
	.byte		VOICE , 10
	.byte		PAN   , c_v+20
	.byte	W01
	.byte		N02   , En3 , v052
	.byte	W03
	.byte		        En3 , v036
	.byte	W03
	.byte		        En3 , v068
	.byte	W03
	.byte		        En3 , v036
	.byte	W02
	.byte		PAN   , c_v-20
	.byte	W01
	.byte		N02   , Bn3 , v060
	.byte	W03
	.byte		        Bn3 , v048
	.byte	W03
	.byte		        Bn3 , v072
	.byte	W03
	.byte		        Bn3 , v048
	.byte	W02
	.byte		PAN   , c_v+40
	.byte	W01
	.byte		N02   , En4 , v076
	.byte	W03
	.byte		        En4 , v048
	.byte	W03
	.byte		        An4 , v080
	.byte	W03
	.byte		        An4 , v036
	.byte	W02
	.byte		PAN   , c_v-63
	.byte	W01
	.byte		N02   , An4 , v040
	.byte	W03
	.byte		        An4 , v020
	.byte	W02
	.byte		VOICE , 7
	.byte		PAN   , c_v+40
	.byte	W01
	.byte		N12   , En2 , v100
	.byte	W11
	.byte		PAN   , c_v-40
	.byte	W01
	.byte		N04   , En3 
	.byte	W06
	.byte		        En3 , v020
	.byte	W06
	.byte		        En3 , v036
	.byte	W06
	.byte		        En3 , v020
	.byte	W06
	.byte		        En3 , v100
	.byte	W06
	.byte		        En3 , v020
	.byte	W06
	.byte		        En3 , v036
	.byte	W06
	.byte		        En3 , v020
	.byte	W06
	.byte		        En3 , v100
	.byte	W06
	.byte		        En3 , v020
	.byte	W06
	.byte		        En3 , v036
	.byte	W06
	.byte		        En3 , v020
	.byte	W06
	.byte		        En3 , v100
	.byte	W06
	.byte		        En3 , v020
	.byte	W06
	.byte	PEND
	.byte		N04   , En3 , v036
	.byte	W06
	.byte		        En3 , v020
	.byte	W06
	.byte		        En3 , v100
	.byte	W06
	.byte		        En3 , v020
	.byte	W06
	.byte		        En3 , v036
	.byte	W06
	.byte		        En3 , v020
	.byte	W06
	.byte		        En3 , v100
	.byte	W06
	.byte		        En3 , v020
	.byte	W06
	.byte		        En3 , v036
	.byte	W06
	.byte		        En3 , v020
	.byte	W06
	.byte		        En3 , v100
	.byte	W06
	.byte		        En3 , v020
	.byte	W06
	.byte		        En3 , v036
	.byte	W06
	.byte		        En3 , v020
	.byte	W06
	.byte		        En3 , v100
	.byte	W06
	.byte		        En3 , v020
	.byte	W05
	.byte		PAN   , c_v+0
	.byte	W01
	.byte	PEND
	.byte	PATT
	 .word	seq_014_5 + 0xCD
	.byte	PATT
	 .word	seq_014_5 + 0xFF
	.byte		N12   , Fn2 , v100
	.byte	W11
	.byte		PAN   , c_v-40
	.byte	W01
	.byte		N04   , Dn3 
	.byte	W06
	.byte		        Dn3 , v020
	.byte	W06
	.byte		        Dn3 , v036
	.byte	W06
	.byte		        Dn3 , v020
	.byte	W06
	.byte		        Dn3 , v100
	.byte	W06
	.byte		        Dn3 , v020
	.byte	W06
	.byte		        Dn3 , v036
	.byte	W06
	.byte		        Dn3 , v020
	.byte	W06
	.byte		        Dn3 , v100
	.byte	W06
	.byte		        Dn3 , v020
	.byte	W06
	.byte		        Dn3 , v036
	.byte	W06
	.byte		        Dn3 , v020
	.byte	W06
	.byte		        Dn3 , v100
	.byte	W06
	.byte		        Dn3 , v020
	.byte	W06
	.byte	PEND
	.byte		        Dn3 , v036
	.byte	W06
	.byte		        Dn3 , v020
	.byte	W06
	.byte		        Dn3 , v100
	.byte	W06
	.byte		        Dn3 , v020
	.byte	W06
	.byte		        Dn3 , v036
	.byte	W06
	.byte		        Dn3 , v020
	.byte	W06
	.byte		        Dn3 , v100
	.byte	W06
	.byte		        Dn3 , v020
	.byte	W06
	.byte		        Dn3 , v036
	.byte	W06
	.byte		        Dn3 , v020
	.byte	W06
	.byte		        Dn3 , v100
	.byte	W06
	.byte		        Dn3 , v020
	.byte	W06
	.byte		        Dn3 , v036
	.byte	W06
	.byte		        Dn3 , v020
	.byte	W06
	.byte		        Dn3 , v100
	.byte	W06
	.byte		        Dn3 , v020
	.byte	W05
	.byte		PAN   , c_v+0
	.byte	W01
	.byte	PATT
	 .word	seq_014_5 + 0x13E
	.byte	W96
	.byte	W96
	.byte	W96
	.byte	W96
	.byte	W96
	.byte	W96
	.byte	W96
	.byte	W96
	.byte	W92
	.byte	W03
	.byte		VOICE , 17
	.byte		PAN   , c_v+63
	.byte	W01
	.byte	W96
	.byte	W96
	.byte	PATT
	 .word	seq_014_5 + 0xA
	.byte	W96
	.byte	GOTO
	 .word	seq_014_5 + 0x1D
	.byte	FINE

@*********************** Track 07 ***********************@

seq_014_6:
	.byte	KEYSH , seq_014_key+0
	.byte	W11
	.byte		VOICE , 52
	.byte		VOL   , 60*seq_014_mvl/mxv
	.byte		PAN   , c_v+0
	.byte	W13
	.byte		N06   , En1 , v127
	.byte	W06
	.byte		        En1 , v004
	.byte	W06
	.byte		        Bn2 , v127
	.byte	W06
	.byte		        Bn2 , v004
	.byte	W06
	.byte		N12   , Bn2 , v127
	.byte	W12
	.byte		N06   , En2 , v004
	.byte	W12
	.byte		        En2 , v127
	.byte	W06
	.byte		        Bn2 
	.byte	W06
	.byte		        En2 , v004
	.byte	W06
	.byte		        En3 , v127
	.byte	W06
	.byte		N03   , En2 
	.byte	W06
	.byte		N06   , An2 
	.byte	W06
	.byte		        Bn2 
	.byte	W06
	.byte		        En2 
	.byte	W06
	.byte	PEND
	.byte		N06   , En1 , v004
	.byte	W12
	.byte		        Bn2 , v127
	.byte	W06
	.byte		        Bn2 , v004
	.byte	W06
	.byte		        Bn2 , v127
	.byte	W06
	.byte		        En2 
	.byte	W06
	.byte		        An2 , v072
	.byte	W06
	.byte		        Bn2 , v127
	.byte	W06
	.byte		        En2 , v004
	.byte	W06
	.byte		        En3 , v127
	.byte	W06
	.byte		        En2 , v004
	.byte	W06
	.byte		        Dn3 , v127
	.byte	W06
	.byte		        En2 , v004
	.byte	W06
	.byte		        An2 , v127
	.byte	W06
	.byte		N12   , Bn2 
	.byte	W12
	.byte	PEND
	.byte	PATT
	 .word	seq_014_6 + 0xA
	.byte	PATT
	 .word	seq_014_6 + 0x35
	.byte		N06   , Fn1 , v127
	.byte	W06
	.byte		        Fn1 , v004
	.byte	W06
	.byte		        Cn3 , v127
	.byte	W06
	.byte		        Cn3 , v004
	.byte	W06
	.byte		N12   , Cn3 , v127
	.byte	W12
	.byte		N06   , Fn2 , v004
	.byte	W12
	.byte		        Fn2 , v127
	.byte	W06
	.byte		        Cn3 
	.byte	W06
	.byte		        Fn2 , v004
	.byte	W06
	.byte		        Fn3 , v127
	.byte	W06
	.byte		N03   , Fn2 
	.byte	W06
	.byte		N06   , As2 
	.byte	W06
	.byte		        Cn3 
	.byte	W06
	.byte		        Fn2 
	.byte	W06
	.byte	PEND
	.byte		N06   , Fn1 , v004
	.byte	W12
	.byte		        Cn3 , v127
	.byte	W06
	.byte		        Cn3 , v004
	.byte	W06
	.byte		        Cn3 , v127
	.byte	W06
	.byte		        Fn2 
	.byte	W06
	.byte		        As2 , v072
	.byte	W06
	.byte		        Cn3 , v127
	.byte	W06
	.byte		        Fn2 , v004
	.byte	W06
	.byte		        Fn3 , v127
	.byte	W06
	.byte		        Fn2 , v004
	.byte	W06
	.byte		        Ds3 , v127
	.byte	W06
	.byte		        Fn2 , v004
	.byte	W06
	.byte		        As2 , v127
	.byte	W06
	.byte		N12   , Cn3 
	.byte	W12
	.byte	PEND
	.byte	PATT
	 .word	seq_014_6 + 0xA
	.byte	PATT
	 .word	seq_014_6 + 0x35
	.byte	PATT
	 .word	seq_014_6 + 0xA
	.byte	PATT
	 .word	seq_014_6 + 0x35
	.byte	PATT
	 .word	seq_014_6 + 0xA
	.byte	PATT
	 .word	seq_014_6 + 0x35
	.byte	PATT
	 .word	seq_014_6 + 0x6A
	.byte	PATT
	 .word	seq_014_6 + 0x95
	.byte	PATT
	 .word	seq_014_6 + 0xA
	.byte	PATT
	 .word	seq_014_6 + 0x35
	.byte		N06   , En1 , v127
	.byte	W06
	.byte		        En1 , v004
	.byte	W06
	.byte		        Bn2 , v127
	.byte	W06
	.byte		        Bn2 , v004
	.byte	W06
	.byte		N12   , Bn2 , v127
	.byte	W12
	.byte		N06   , En2 , v004
	.byte	W12
	.byte		        An2 , v127
	.byte	W06
	.byte		        Bn2 
	.byte	W06
	.byte		        En2 , v004
	.byte	W06
	.byte		N18   , Bn2 , v127
	.byte	W18
	.byte		N06   , En2 , v004
	.byte	W12
	.byte	PEND
	.byte	W48
	.byte		        En2 , v127
	.byte	W06
	.byte		        Bn2 
	.byte	W06
	.byte		        En2 , v004
	.byte	W06
	.byte		        En3 , v127
	.byte	W06
	.byte		N03   , En2 
	.byte	W06
	.byte		N06   , An2 
	.byte	W06
	.byte		N12   , Bn2 
	.byte	W12
	.byte	PATT
	 .word	seq_014_6 + 0xF2
	.byte	W48
	.byte		N06   , En2 , v127
	.byte	W06
	.byte		        Bn2 
	.byte	W06
	.byte		        En2 , v004
	.byte	W06
	.byte		        En3 , v127
	.byte	W12
	.byte		        En2 
	.byte	W06
	.byte		N12   , Cs3 
	.byte	W12
	.byte		N06   , Fn1 , v127
	.byte	W06
	.byte		        Fn1 , v004
	.byte	W06
	.byte		        Gn2 , v100
	.byte	W06
	.byte		        Gn2 , v004
	.byte	W06
	.byte		N12   , Gn2 , v100
	.byte	W12
	.byte		N06   , Fn2 , v004
	.byte	W12
	.byte		        Fn2 , v100
	.byte	W06
	.byte		        Gn2 
	.byte	W06
	.byte		        Fn2 , v004
	.byte	W06
	.byte		N18   , Gn2 , v100
	.byte	W18
	.byte		N06   , Fn2 , v004
	.byte	W12
	.byte	PEND
	.byte	W48
	.byte		        Gn2 , v127
	.byte	W06
	.byte		        Cn3 
	.byte	W06
	.byte		        Fn2 , v004
	.byte	W06
	.byte		        Dn3 , v127
	.byte	W06
	.byte		N03   , Gn2 
	.byte	W06
	.byte		N06   , Bn2 
	.byte	W06
	.byte		N12   , Cn3 
	.byte	W12
	.byte	PATT
	 .word	seq_014_6 + 0x144
	.byte		N12   , Cn3 , v127
	.byte	W12
	.byte		        Cn4 , v112
	.byte	W12
	.byte		        Bn2 , v127
	.byte	W12
	.byte		        Bn3 , v112
	.byte	W12
	.byte		        Cn3 , v127
	.byte	W12
	.byte		        Cn4 , v112
	.byte	W12
	.byte		        Cs3 , v127
	.byte	W12
	.byte		        Cs4 , v112
	.byte	W12
	.byte		N06   , En1 , v127
	.byte	W06
	.byte		        En1 , v004
	.byte	W06
	.byte		        Bn2 , v127
	.byte	W06
	.byte		        Bn2 , v004
	.byte	W06
	.byte		N12   , Bn2 , v127
	.byte	W12
	.byte		N06   , En2 , v004
	.byte	W12
	.byte		        An2 , v127
	.byte	W06
	.byte		        Bn2 
	.byte	W06
	.byte		        En2 , v004
	.byte	W06
	.byte		N18   , Bn2 , v127
	.byte	W30
	.byte	PEND
	.byte	PATT
	 .word	seq_014_6 + 0x35
	.byte	PATT
	 .word	seq_014_6 + 0x19D
	.byte	PATT
	 .word	seq_014_6 + 0x35
	.byte		N06   , Fn1 , v127
	.byte	W06
	.byte		        Fn1 , v004
	.byte	W06
	.byte		        Gn2 , v127
	.byte	W06
	.byte		        Gn2 , v004
	.byte	W06
	.byte		N12   , Gn2 , v127
	.byte	W12
	.byte		N06   , Fn2 , v004
	.byte	W12
	.byte		        Fn2 , v127
	.byte	W06
	.byte		        Gn2 
	.byte	W06
	.byte		        Fn2 , v004
	.byte	W06
	.byte		N18   , Gn2 , v127
	.byte	W30
	.byte		N06   , Fn1 , v004
	.byte	W12
	.byte		        Cn3 , v127
	.byte	W06
	.byte		        Gn2 , v004
	.byte	W06
	.byte		        Cn3 , v127
	.byte	W06
	.byte		        Cn2 
	.byte	W06
	.byte		        Fn2 , v072
	.byte	W06
	.byte		        Gn2 , v127
	.byte	W06
	.byte		        Fn2 , v004
	.byte	W06
	.byte		        Cn3 , v127
	.byte	W06
	.byte		        Fn2 , v004
	.byte	W06
	.byte		        Bn2 , v127
	.byte	W06
	.byte		        Fn2 , v004
	.byte	W06
	.byte		        Fn2 , v127
	.byte	W06
	.byte		N12   , Gn2 
	.byte	W12
	.byte	PATT
	 .word	seq_014_6 + 0x144
	.byte		N12   , Cn3 , v127
	.byte	W12
	.byte		        Cn4 , v112
	.byte	W12
	.byte		        Bn2 , v127
	.byte	W12
	.byte		        Bn3 , v112
	.byte	W12
	.byte		        Cn3 , v127
	.byte	W12
	.byte		        Cn4 , v112
	.byte	W12
	.byte		N24   , Cs3 , v127
	.byte	W21
	.byte		VOICE , 52
	.byte	W03
	.byte	PATT
	 .word	seq_014_6 + 0xA
	.byte	PATT
	 .word	seq_014_6 + 0x35
	.byte	PATT
	 .word	seq_014_6 + 0xA
	.byte	PATT
	 .word	seq_014_6 + 0x35
	.byte	GOTO
	 .word	seq_014_6 + 0x6A
	.byte	FINE

@*********************** Track 08 ***********************@

seq_014_7:
	.byte	KEYSH , seq_014_key+0
	.byte	W12
	.byte		VOICE , 53
	.byte		VOL   , 60*seq_014_mvl/mxv
	.byte		PAN   , c_v+0
	.byte	W12
	.byte	W12
	.byte		N06   , Dn3 , v127
	.byte	W06
	.byte		        Dn3 , v004
	.byte	W06
	.byte		N12   , Dn3 , v127
	.byte	W12
	.byte		        En2 , v052
	.byte	W12
	.byte		N06   , Cs3 , v127
	.byte	W06
	.byte		        Dn3 
	.byte	W06
	.byte		        Bn2 , v004
	.byte	W06
	.byte		        Bn2 , v127
	.byte	W06
	.byte		        Bn2 , v004
	.byte	W06
	.byte		        Dn3 , v052
	.byte	W06
	.byte		        Bn2 , v004
	.byte	W06
	.byte		        En3 , v052
	.byte	W06
	.byte	PEND
	.byte	W96
	.byte	PATT
	 .word	seq_014_7 + 0xA
	.byte	W06
	.byte		N02   , Bn2 , v072
	.byte	W06
	.byte		        Bn2 , v020
	.byte	W05
	.byte		PAN   , c_v-63
	.byte	W01
	.byte		N02   , An4 , v072
	.byte	W03
	.byte		        An4 , v068
	.byte	W08
	.byte		PAN   , c_v+63
	.byte	W01
	.byte		N02   , An4 , v088
	.byte	W03
	.byte		        An4 , v068
	.byte	W05
	.byte		PAN   , c_v-63
	.byte	W01
	.byte		N02   , An4 , v092
	.byte	W03
	.byte		        An4 , v052
	.byte	W05
	.byte		PAN   , c_v+63
	.byte	W01
	.byte		N02   , An4 , v108
	.byte	W03
	.byte		        An4 , v052
	.byte	W02
	.byte		PAN   , c_v-63
	.byte	W01
	.byte		N02   , An4 , v120
	.byte	W03
	.byte		        An4 , v052
	.byte	W02
	.byte		PAN   , c_v+63
	.byte	W01
	.byte		N02   , An4 , v112
	.byte	W03
	.byte		        An4 , v052
	.byte	W02
	.byte		PAN   , c_v-63
	.byte	W01
	.byte		N02   , An4 , v108
	.byte	W03
	.byte		        An4 , v052
	.byte	W02
	.byte		PAN   , c_v+63
	.byte	W01
	.byte		N02   , An4 , v100
	.byte	W03
	.byte		        An4 , v052
	.byte	W02
	.byte		PAN   , c_v-63
	.byte	W01
	.byte		N02   , An4 , v096
	.byte	W02
	.byte		PAN   , c_v+63
	.byte	W01
	.byte		N02   , An4 , v080
	.byte	W02
	.byte		        An4 , v052
	.byte	W01
	.byte		PAN   , c_v-63
	.byte	W01
	.byte		N02   , An4 , v072
	.byte	W02
	.byte		        An4 , v052
	.byte	W01
	.byte		PAN   , c_v+63
	.byte	W01
	.byte		N02   , An4 , v068
	.byte	W02
	.byte		        An4 , v052
	.byte	W04
	.byte		PAN   , c_v+0
	.byte	W01
	.byte	W12
	.byte		N06   , Ds3 , v127
	.byte	W06
	.byte		        Ds3 , v004
	.byte	W06
	.byte		N12   , Ds3 , v127
	.byte	W12
	.byte		        Cn3 , v052
	.byte	W12
	.byte		N06   , Dn3 , v127
	.byte	W06
	.byte		        Ds3 
	.byte	W06
	.byte		        Ds3 , v004
	.byte	W06
	.byte		        Ds3 , v127
	.byte	W06
	.byte		        Ds3 , v004
	.byte	W06
	.byte		        Ds3 , v052
	.byte	W06
	.byte		        Ds3 , v004
	.byte	W06
	.byte		        Cn3 , v052
	.byte	W06
	.byte	W96
	.byte	W12
	.byte		N06   , Dn3 , v127
	.byte	W06
	.byte		        Dn3 , v004
	.byte	W06
	.byte		N12   , Dn3 , v127
	.byte	W12
	.byte		        En2 , v052
	.byte	W12
	.byte		N06   , Cs3 , v127
	.byte	W06
	.byte		        Dn3 
	.byte	W06
	.byte		        Bn2 , v004
	.byte	W06
	.byte		        Bn2 , v127
	.byte	W06
	.byte		        Bn2 , v004
	.byte	W06
	.byte		        Dn3 , v052
	.byte	W06
	.byte		        Bn2 , v004
	.byte	W06
	.byte		        En3 , v052
	.byte	W05
	.byte		PAN   , c_v-63
	.byte	W01
	.byte	PEND
	.byte		N02   , En4 , v080
	.byte	W03
	.byte		        En4 , v040
	.byte	W03
	.byte		        En4 , v032
	.byte	W03
	.byte		        En4 , v012
	.byte	W02
	.byte		PAN   , c_v+63
	.byte	W01
	.byte		N02   , Dn5 , v112
	.byte	W03
	.byte		        Dn5 , v072
	.byte	W03
	.byte		        Dn5 , v040
	.byte	W03
	.byte		        Dn5 , v020
	.byte	W02
	.byte		PAN   , c_v-63
	.byte	W01
	.byte		N02   , Dn5 , v060
	.byte	W03
	.byte		        Dn5 , v032
	.byte	W03
	.byte		        Dn5 , v020
	.byte	W03
	.byte		N02
	.byte	W02
	.byte		PAN   , c_v+63
	.byte	W01
	.byte		N02   , Cs5 , v112
	.byte	W03
	.byte		        Cs5 , v072
	.byte	W03
	.byte		        Cs5 , v040
	.byte	W03
	.byte		        Cs5 , v020
	.byte	W02
	.byte		PAN   , c_v-63
	.byte	W01
	.byte		N02   , Cs5 , v060
	.byte	W03
	.byte		        Cs5 , v032
	.byte	W02
	.byte		PAN   , c_v+63
	.byte	W01
	.byte		N02   , Cs5 , v020
	.byte	W03
	.byte		N02
	.byte	W02
	.byte		PAN   , c_v-63
	.byte	W01
	.byte		N02   , An4 , v112
	.byte	W03
	.byte		        An4 , v072
	.byte	W02
	.byte		PAN   , c_v+63
	.byte	W01
	.byte		N02   , An4 , v040
	.byte	W03
	.byte		        An4 , v020
	.byte	W02
	.byte		PAN   , c_v-63
	.byte	W01
	.byte		N02   , An4 , v060
	.byte	W03
	.byte		        An4 , v032
	.byte	W02
	.byte		PAN   , c_v+63
	.byte	W01
	.byte		N02   , An4 , v020
	.byte	W03
	.byte		N02
	.byte	W02
	.byte		PAN   , c_v-63
	.byte	W01
	.byte		N02   , Gn4 , v112
	.byte	W03
	.byte		        Gn4 , v072
	.byte	W02
	.byte		PAN   , c_v+63
	.byte	W01
	.byte		N02   , Gn4 , v040
	.byte	W03
	.byte		        Gn4 , v020
	.byte	W02
	.byte		PAN   , c_v+0
	.byte	W01
	.byte	PEND
	.byte	W12
	.byte		N06   , Dn3 , v127
	.byte	W06
	.byte		        Dn3 , v004
	.byte	W06
	.byte		N12   , Dn3 , v127
	.byte	W12
	.byte		        En2 , v052
	.byte	W12
	.byte		N06   , Cs3 , v127
	.byte	W06
	.byte		        Dn3 
	.byte	W06
	.byte		        Bn2 , v004
	.byte	W06
	.byte		        Bn2 , v127
	.byte	W06
	.byte		        Bn2 , v004
	.byte	W06
	.byte		        Dn3 , v052
	.byte	W06
	.byte		        Bn2 , v004
	.byte	W11
	.byte		PAN   , c_v-63
	.byte	W01
	.byte		N03   , An4 , v072
	.byte	W03
	.byte		        An4 , v004
	.byte	W03
	.byte		        Dn4 , v072
	.byte	W06
	.byte		        Dn4 , v032
	.byte	W03
	.byte		        Dn4 , v008
	.byte	W02
	.byte		PAN   , c_v+63
	.byte	W01
	.byte		N03   , An4 , v060
	.byte	W03
	.byte		        An4 , v004
	.byte	W03
	.byte		        Dn4 , v072
	.byte	W06
	.byte		        Dn4 , v032
	.byte	W03
	.byte		        Dn4 , v008
	.byte	W02
	.byte		PAN   , c_v-63
	.byte	W01
	.byte		N03   , An4 , v060
	.byte	W03
	.byte		        An4 , v004
	.byte	W03
	.byte		        Dn4 , v072
	.byte	W06
	.byte		        Dn4 , v032
	.byte	W03
	.byte		        Dn4 , v008
	.byte	W02
	.byte		PAN   , c_v+63
	.byte	W01
	.byte		N03   , An4 , v060
	.byte	W03
	.byte		        An4 , v004
	.byte	W03
	.byte		        Dn4 , v072
	.byte	W06
	.byte		        Dn4 , v032
	.byte	W03
	.byte		        Dn4 , v008
	.byte	W24
	.byte	W02
	.byte		PAN   , c_v+0
	.byte	W01
	.byte	PATT
	 .word	seq_014_7 + 0xE0
	.byte	PATT
	 .word	seq_014_7 + 0x10B
	.byte	W12
	.byte		N06   , Ds3 , v127
	.byte	W06
	.byte		        Ds3 , v004
	.byte	W06
	.byte		N12   , Ds3 , v127
	.byte	W12
	.byte		        Cn3 , v052
	.byte	W12
	.byte		N06   , Dn3 , v127
	.byte	W06
	.byte		        Ds3 
	.byte	W06
	.byte		        Ds3 , v004
	.byte	W06
	.byte		        Ds3 , v127
	.byte	W06
	.byte		        Ds3 , v004
	.byte	W06
	.byte		        Ds3 , v052
	.byte	W06
	.byte		        Ds3 , v004
	.byte	W06
	.byte		        Cn3 , v052
	.byte	W05
	.byte		PAN   , c_v-63
	.byte	W01
	.byte		N03   , As4 , v072
	.byte	W03
	.byte		        As4 , v004
	.byte	W03
	.byte		        Ds4 , v072
	.byte	W06
	.byte		        Ds4 , v032
	.byte	W03
	.byte		        Ds4 , v008
	.byte	W02
	.byte		PAN   , c_v+63
	.byte	W01
	.byte		N03   , As4 , v060
	.byte	W03
	.byte		        As4 , v004
	.byte	W03
	.byte		        Ds4 , v072
	.byte	W06
	.byte		        Ds4 , v032
	.byte	W03
	.byte		        Ds4 , v008
	.byte	W02
	.byte		PAN   , c_v-63
	.byte	W01
	.byte		N03   , As4 , v060
	.byte	W03
	.byte		        As4 , v004
	.byte	W03
	.byte		        Ds4 , v072
	.byte	W06
	.byte		        Ds4 , v032
	.byte	W03
	.byte		        Ds4 , v008
	.byte	W02
	.byte		PAN   , c_v+63
	.byte	W01
	.byte		N03   , As4 , v060
	.byte	W03
	.byte		        As4 , v004
	.byte	W03
	.byte		        Ds4 , v072
	.byte	W06
	.byte		        Ds4 , v032
	.byte	W03
	.byte		        Ds4 , v008
	.byte	W24
	.byte	W02
	.byte		PAN   , c_v+0
	.byte	W01
	.byte	PATT
	 .word	seq_014_7 + 0xE0
	.byte		N02   , En4 , v080
	.byte	W03
	.byte		        En4 , v040
	.byte	W03
	.byte		        En4 , v032
	.byte	W03
	.byte		        En4 , v012
	.byte	W02
	.byte		PAN   , c_v+63
	.byte	W01
	.byte		N02   , Dn5 , v112
	.byte	W03
	.byte		        Dn5 , v072
	.byte	W03
	.byte		        Dn5 , v040
	.byte	W03
	.byte		        Dn5 , v020
	.byte	W02
	.byte		PAN   , c_v-63
	.byte	W01
	.byte		N02   , Dn5 , v060
	.byte	W03
	.byte		        Dn5 , v032
	.byte	W03
	.byte		        Dn5 , v020
	.byte	W03
	.byte		N02
	.byte	W02
	.byte		PAN   , c_v+63
	.byte	W01
	.byte		N02   , Cs5 , v112
	.byte	W03
	.byte		        Cs5 , v072
	.byte	W03
	.byte		        Cs5 , v040
	.byte	W03
	.byte		        Cs5 , v020
	.byte	W02
	.byte		PAN   , c_v-63
	.byte	W01
	.byte		N02   , Cs5 , v060
	.byte	W03
	.byte		        Cs5 , v032
	.byte	W02
	.byte		PAN   , c_v+63
	.byte	W01
	.byte		N02   , Cs5 , v020
	.byte	W03
	.byte		N02
	.byte	W02
	.byte		PAN   , c_v-63
	.byte	W01
	.byte		N02   , An4 , v112
	.byte	W03
	.byte		        An4 , v072
	.byte	W02
	.byte		PAN   , c_v+63
	.byte	W01
	.byte		N02   , An4 , v040
	.byte	W03
	.byte		        An4 , v020
	.byte	W02
	.byte		PAN   , c_v-63
	.byte	W01
	.byte		N02   , An4 , v060
	.byte	W03
	.byte		        An4 , v032
	.byte	W02
	.byte		PAN   , c_v+63
	.byte	W01
	.byte		N02   , An4 , v020
	.byte	W03
	.byte		N02
	.byte	W02
	.byte		PAN   , c_v-63
	.byte	W01
	.byte		N02   , Gn4 , v112
	.byte	W03
	.byte		        Gn4 , v072
	.byte	W02
	.byte		PAN   , c_v+63
	.byte	W01
	.byte		N02   , Gn4 , v040
	.byte	W03
	.byte		        Gn4 , v020
	.byte	W02
	.byte		VOICE , 53
	.byte		PAN   , c_v+0
	.byte	W01
	.byte	W12
	.byte		N06   , Dn3 , v127
	.byte	W06
	.byte		        Dn3 , v004
	.byte	W06
	.byte		N12   , Dn3 , v127
	.byte	W12
	.byte		        En2 , v052
	.byte	W12
	.byte		N06   , Cs3 , v127
	.byte	W06
	.byte		        Dn3 
	.byte	W06
	.byte		        Dn3 , v004
	.byte	W06
	.byte		N18   , Dn3 , v127
	.byte	W18
	.byte		N06   , En2 , v052
	.byte	W12
	.byte	PEND
	.byte	W96
	.byte	PATT
	 .word	seq_014_7 + 0x322
	.byte	W96
	.byte	W12
	.byte		N06   , Cn3 , v127
	.byte	W06
	.byte		        Cn3 , v004
	.byte	W06
	.byte		N12   , Cn3 , v127
	.byte	W12
	.byte		        Fn2 , v052
	.byte	W12
	.byte		N06   , Bn2 , v127
	.byte	W06
	.byte		        Cn3 
	.byte	W06
	.byte		        Cn3 , v004
	.byte	W06
	.byte		N18   , Cn3 , v127
	.byte	W18
	.byte		N06   , Fn2 , v052
	.byte	W12
	.byte	PEND
	.byte	W96
	.byte	PATT
	 .word	seq_014_7 + 0x34A
	.byte		N12   , Gn2 , v127
	.byte	W12
	.byte		        Gn3 , v112
	.byte	W12
	.byte		        Fs2 , v127
	.byte	W12
	.byte		        Fs3 , v112
	.byte	W12
	.byte		        Gn2 , v127
	.byte	W12
	.byte		        Gn3 , v112
	.byte	W12
	.byte		        Gs2 , v127
	.byte	W12
	.byte		        Gs3 , v112
	.byte	W11
	.byte		VOICE , 53
	.byte		VOL   , 60*seq_014_mvl/mxv
	.byte	W01
	.byte	W12
	.byte		N06   , Dn3 , v127
	.byte	W06
	.byte		        Dn3 , v004
	.byte	W06
	.byte		N12   , Dn3 , v127
	.byte	W12
	.byte		        En2 , v052
	.byte	W12
	.byte		N06   , Cs3 , v127
	.byte	W06
	.byte		        Dn3 
	.byte	W06
	.byte		        Dn3 , v004
	.byte	W06
	.byte		N18   , Dn3 , v127
	.byte	W17
	.byte		VOL   , 85*seq_014_mvl/mxv
	.byte	W01
	.byte		N03   , Bn2 , v060
	.byte	W03
	.byte		        Bn2 , v052
	.byte	W03
	.byte		        En3 , v060
	.byte	W03
	.byte		        En3 , v052
	.byte	W03
	.byte	PEND
	.byte		        En3 , v072
	.byte	W03
	.byte		        En3 , v032
	.byte	W03
	.byte		        Bn5 , v056
	.byte	W03
	.byte		        Bn5 , v036
	.byte	W02
	.byte		PAN   , c_v-63
	.byte	W01
	.byte		N03   , En5 , v056
	.byte	W03
	.byte		        En5 , v024
	.byte	W02
	.byte		PAN   , c_v+63
	.byte	W01
	.byte		N03   , En4 , v072
	.byte	W03
	.byte		        En4 , v036
	.byte	W02
	.byte		PAN   , c_v-63
	.byte	W01
	.byte		N03   , Bn4 , v056
	.byte	W03
	.byte		        Bn4 , v036
	.byte	W03
	.byte		        En4 , v052
	.byte	W03
	.byte		        En4 , v036
	.byte	W02
	.byte		PAN   , c_v+63
	.byte	W01
	.byte		N03   , Bn3 , v040
	.byte	W03
	.byte		        Bn3 , v036
	.byte	W02
	.byte		PAN   , c_v-63
	.byte	W01
	.byte		N03   , En3 , v040
	.byte	W03
	.byte		        En3 , v020
	.byte	W03
	.byte		        En3 , v040
	.byte	W03
	.byte		        En3 , v032
	.byte	W02
	.byte		VOICE , 86
	.byte		PAN   , c_v+0
	.byte	W01
	.byte		N03   , Bn4 , v080
	.byte	W06
	.byte		        Bn3 , v052
	.byte	W06
	.byte		        En4 , v072
	.byte	W06
	.byte		        En3 , v020
	.byte	W06
	.byte		        Bn3 , v068
	.byte	W06
	.byte		        Bn2 , v012
	.byte	W06
	.byte		        En3 , v056
	.byte	W05
	.byte		VOICE , 53
	.byte		VOL   , 60*seq_014_mvl/mxv
	.byte	W01
	.byte	PATT
	 .word	seq_014_7 + 0x38F
	.byte		N03   , En3 , v072
	.byte	W03
	.byte		        En3 , v032
	.byte	W03
	.byte		        Bn5 , v056
	.byte	W03
	.byte		        Bn5 , v036
	.byte	W02
	.byte		PAN   , c_v-63
	.byte	W01
	.byte		N03   , En5 , v056
	.byte	W03
	.byte		        En5 , v024
	.byte	W02
	.byte		PAN   , c_v+63
	.byte	W01
	.byte		N03   , En4 , v072
	.byte	W03
	.byte		        En4 , v036
	.byte	W02
	.byte		PAN   , c_v-63
	.byte	W01
	.byte		N03   , Bn4 , v056
	.byte	W03
	.byte		        Bn4 , v036
	.byte	W03
	.byte		        En4 , v052
	.byte	W03
	.byte		        En4 , v036
	.byte	W02
	.byte		PAN   , c_v+63
	.byte	W01
	.byte		N03   , Bn3 , v040
	.byte	W03
	.byte		        Bn3 , v036
	.byte	W02
	.byte		PAN   , c_v-63
	.byte	W01
	.byte		N03   , En3 , v040
	.byte	W03
	.byte		        En3 , v020
	.byte	W03
	.byte		        En3 , v040
	.byte	W03
	.byte		        En3 , v032
	.byte	W02
	.byte		VOICE , 86
	.byte		PAN   , c_v+0
	.byte	W01
	.byte		N03   , Bn4 , v080
	.byte	W06
	.byte		        Bn3 , v052
	.byte	W06
	.byte		        En4 , v072
	.byte	W06
	.byte		        En3 , v020
	.byte	W06
	.byte		        Bn3 , v068
	.byte	W06
	.byte		        Bn2 , v012
	.byte	W06
	.byte		        En3 , v056
	.byte	W05
	.byte		VOICE , 53
	.byte		VOL   , 60*seq_014_mvl/mxv
	.byte		PAN   , c_v+0
	.byte	W01
	.byte	W12
	.byte		N06   , Cn3 , v127
	.byte	W06
	.byte		        Cn3 , v004
	.byte	W06
	.byte		N12   , Cn3 , v127
	.byte	W12
	.byte		        Fn2 , v052
	.byte	W12
	.byte		N06   , Bn2 , v127
	.byte	W06
	.byte		        Cn3 
	.byte	W06
	.byte		        Cn3 , v004
	.byte	W06
	.byte		N18   , Cn3 , v127
	.byte	W17
	.byte		VOL   , 85*seq_014_mvl/mxv
	.byte	W01
	.byte		N03   , Cn3 , v072
	.byte	W03
	.byte		        Cn3 , v032
	.byte	W02
	.byte		PAN   , c_v-63
	.byte	W01
	.byte		N03   , Cn3 , v072
	.byte	W03
	.byte		        Cn3 , v032
	.byte	W03
	.byte		        Cn3 , v092
	.byte	W03
	.byte		        Cn3 , v052
	.byte	W02
	.byte		PAN   , c_v+63
	.byte	W01
	.byte		N03   , Fn4 , v092
	.byte	W03
	.byte		        Fn4 , v052
	.byte	W02
	.byte		PAN   , c_v-63
	.byte	W01
	.byte		N03   , Cn4 , v092
	.byte	W03
	.byte		        Cn4 , v052
	.byte	W02
	.byte		PAN   , c_v+63
	.byte	W01
	.byte		N03   , Fn3 , v092
	.byte	W03
	.byte		        Fn3 , v052
	.byte	W02
	.byte		PAN   , c_v-63
	.byte	W01
	.byte		N03   , Cn4 , v092
	.byte	W03
	.byte		        Cn4 , v052
	.byte	W03
	.byte		        Cn3 
	.byte	W03
	.byte		N03
	.byte	W02
	.byte		PAN   , c_v+63
	.byte	W01
	.byte		N03   , Fn2 , v092
	.byte	W03
	.byte		        Fn2 , v052
	.byte	W02
	.byte		PAN   , c_v-63
	.byte	W01
	.byte		N03   , Cn3 
	.byte	W03
	.byte		N03
	.byte	W08
	.byte		VOICE , 86
	.byte		PAN   , c_v+0
	.byte	W01
	.byte		N03   , Fn3 , v100
	.byte	W06
	.byte		        Fn2 , v080
	.byte	W06
	.byte		        Cn3 , v100
	.byte	W06
	.byte		        Cn2 , v080
	.byte	W06
	.byte		        Fn2 , v100
	.byte	W06
	.byte		        Fn1 , v080
	.byte	W06
	.byte		        Cn2 , v100
	.byte	W06
	.byte		VOICE , 53
	.byte	W12
	.byte		N06   , Cn3 , v127
	.byte	W06
	.byte		        Cn3 , v004
	.byte	W06
	.byte		N12   , Cn3 , v127
	.byte	W12
	.byte		        Fn2 , v052
	.byte	W12
	.byte		N06   , Bn2 , v127
	.byte	W06
	.byte		        Cn3 
	.byte	W06
	.byte		        Cn3 , v004
	.byte	W06
	.byte		N18   , Cn3 , v127
	.byte	W18
	.byte		N06   , Fn2 , v052
	.byte	W12
	.byte		N12   , Gn2 , v127
	.byte	W12
	.byte		        Gn3 , v112
	.byte	W12
	.byte		        Fs2 , v127
	.byte	W12
	.byte		        Fs3 , v112
	.byte	W12
	.byte		        Gn2 , v127
	.byte	W12
	.byte		        Gn3 , v112
	.byte	W12
	.byte		N24   , Gs2 , v127
	.byte	W21
	.byte		VOICE , 53
	.byte		VOL   , 60*seq_014_mvl/mxv
	.byte	W03
	.byte	PATT
	 .word	seq_014_7 + 0xA
	.byte	W96
	.byte	PATT
	 .word	seq_014_7 + 0xA
	.byte	W06
	.byte		N02   , Bn2 , v072
	.byte	W06
	.byte		        Bn2 , v020
	.byte	W05
	.byte		PAN   , c_v-63
	.byte	W01
	.byte		N02   , An4 , v052
	.byte	W03
	.byte		        An4 , v048
	.byte	W08
	.byte		PAN   , c_v+63
	.byte	W01
	.byte		N02   , An4 , v068
	.byte	W03
	.byte		        An4 , v048
	.byte	W05
	.byte		PAN   , c_v-63
	.byte	W01
	.byte		N02   , An4 , v072
	.byte	W03
	.byte		        An4 , v032
	.byte	W05
	.byte		PAN   , c_v+63
	.byte	W01
	.byte		N02   , An4 , v088
	.byte	W03
	.byte		        An4 , v032
	.byte	W02
	.byte		PAN   , c_v-63
	.byte	W01
	.byte		N02   , An4 , v100
	.byte	W03
	.byte		        An4 , v032
	.byte	W02
	.byte		PAN   , c_v+63
	.byte	W01
	.byte		N02   , An4 , v092
	.byte	W03
	.byte		        An4 , v032
	.byte	W02
	.byte		PAN   , c_v-63
	.byte	W01
	.byte		N02   , An4 , v088
	.byte	W03
	.byte		        An4 , v032
	.byte	W02
	.byte		PAN   , c_v+63
	.byte	W01
	.byte		N02   , An4 , v080
	.byte	W03
	.byte		        An4 , v032
	.byte	W02
	.byte		PAN   , c_v-63
	.byte	W01
	.byte		N02   , An4 , v076
	.byte	W02
	.byte		PAN   , c_v+63
	.byte	W01
	.byte		N02   , An4 , v060
	.byte	W02
	.byte		        An4 , v032
	.byte	W01
	.byte		PAN   , c_v-63
	.byte	W01
	.byte		N02   , An4 , v052
	.byte	W02
	.byte		        An4 , v032
	.byte	W01
	.byte		PAN   , c_v+63
	.byte	W01
	.byte		N02   , An4 , v048
	.byte	W02
	.byte		        An4 , v032
	.byte	W04
	.byte		PAN   , c_v+0
	.byte	W01
	.byte	GOTO
	 .word	seq_014_7 + 0xB8
	.byte	FINE

@*********************** Track 09 ***********************@

seq_014_8:
	.byte	KEYSH , seq_014_key+0
	.byte	W13
	.byte		VOICE , 127
	.byte		VOL   , 66*seq_014_mvl/mxv
	.byte		PAN   , c_v+0
	.byte	W11
	.byte		N05   , En2 , v080
	.byte	W06
	.byte		N02   , Fs1 , v016
	.byte	W06
	.byte		        Fs1 , v092
	.byte	W06
	.byte		        Fs1 , v032
	.byte	W06
	.byte		        Fs1 , v112
	.byte	W06
	.byte		        Fs1 , v016
	.byte	W06
	.byte		        Fs1 , v060
	.byte	W06
	.byte		        Fs1 , v032
	.byte	W06
	.byte		        Fs1 , v092
	.byte	W06
	.byte		        Fs1 , v016
	.byte	W06
	.byte		        Fs1 , v060
	.byte	W06
	.byte		        Fs1 , v032
	.byte	W06
	.byte		        Fs1 , v112
	.byte	W06
	.byte		        Fs1 , v016
	.byte	W06
	.byte		        Fs1 , v060
	.byte	W06
	.byte		        Fs1 , v032
	.byte	W06
	.byte	PEND
	.byte		N05   , En2 , v080
	.byte	W06
	.byte		N02   , Fs1 , v016
	.byte	W06
	.byte		        Fs1 , v092
	.byte	W06
	.byte		        Fs1 , v032
	.byte	W06
	.byte		        Fs1 , v112
	.byte	W06
	.byte		        Fs1 , v016
	.byte	W06
	.byte		N12   , En2 , v060
	.byte	W12
	.byte		N02   , Fs1 , v092
	.byte	W06
	.byte		        Fs1 , v016
	.byte	W06
	.byte		        Fs1 , v060
	.byte	W06
	.byte		        Fs1 , v032
	.byte	W06
	.byte		        Fs1 , v092
	.byte	W06
	.byte		        Fs1 , v016
	.byte	W06
	.byte		N12   , En2 , v060
	.byte	W12
	.byte	PEND
	.byte	PATT
	 .word	seq_014_8 + 0xA
	.byte	PATT
	 .word	seq_014_8 + 0x3D
	.byte	PATT
	 .word	seq_014_8 + 0xA
	.byte	PATT
	 .word	seq_014_8 + 0x3D
	.byte	PATT
	 .word	seq_014_8 + 0xA
	.byte	PATT
	 .word	seq_014_8 + 0x3D
	.byte	PATT
	 .word	seq_014_8 + 0xA
	.byte	PATT
	 .word	seq_014_8 + 0x3D
	.byte	PATT
	 .word	seq_014_8 + 0xA
	.byte	PATT
	 .word	seq_014_8 + 0x3D
	.byte	PATT
	 .word	seq_014_8 + 0xA
	.byte	PATT
	 .word	seq_014_8 + 0x3D
	.byte	PATT
	 .word	seq_014_8 + 0xA
	.byte		N05   , En2 , v080
	.byte	W06
	.byte		N02   , Fs1 , v016
	.byte	W06
	.byte		        Fs1 , v092
	.byte	W06
	.byte		        Fs1 , v032
	.byte	W06
	.byte		        Fs1 , v112
	.byte	W06
	.byte		        Fs1 , v016
	.byte	W06
	.byte		N12   , En2 , v060
	.byte	W12
	.byte		N02   , Fs1 , v092
	.byte	W06
	.byte		        Fs1 , v016
	.byte	W06
	.byte		        Fs1 , v060
	.byte	W06
	.byte		        Fs1 , v032
	.byte	W06
	.byte		        Fs1 , v092
	.byte	W06
	.byte		        Fs1 , v016
	.byte	W06
	.byte		N12   , En2 , v060
	.byte	W11
	.byte		PAN   , c_v+0
	.byte	W01
	.byte		N05   , En2 , v080
	.byte	W06
	.byte		N02   , Fs1 , v016
	.byte	W05
	.byte		PAN   , c_v-63
	.byte	W01
	.byte		N02   , Fs1 , v092
	.byte	W06
	.byte		        Fs1 , v032
	.byte	W05
	.byte		PAN   , c_v+63
	.byte	W01
	.byte		N02   , Fs1 , v112
	.byte	W06
	.byte		        Fs1 , v016
	.byte	W05
	.byte		PAN   , c_v-63
	.byte	W01
	.byte		N02   , Fs1 , v060
	.byte	W06
	.byte		        Fs1 , v032
	.byte	W05
	.byte		PAN   , c_v+63
	.byte	W01
	.byte		N02   , Fs1 , v092
	.byte	W06
	.byte		        Fs1 , v016
	.byte	W05
	.byte		PAN   , c_v-63
	.byte	W01
	.byte		N02   , Fs1 , v060
	.byte	W06
	.byte		        Fs1 , v032
	.byte	W05
	.byte		PAN   , c_v+63
	.byte	W01
	.byte		N02   , Fs1 , v112
	.byte	W06
	.byte		        Fs1 , v016
	.byte	W05
	.byte		PAN   , c_v-63
	.byte	W01
	.byte		N02   , Fs1 , v060
	.byte	W06
	.byte		        Fs1 , v032
	.byte	W05
	.byte		PAN   , c_v+0
	.byte	W01
	.byte	PEND
	.byte	PATT
	 .word	seq_014_8 + 0xE0
	.byte	PATT
	 .word	seq_014_8 + 0xE0
	.byte	PATT
	 .word	seq_014_8 + 0xE0
	.byte	PATT
	 .word	seq_014_8 + 0xE0
	.byte	PATT
	 .word	seq_014_8 + 0xE0
	.byte	PATT
	 .word	seq_014_8 + 0xE0
	.byte		N12   , En2 , v060
	.byte	W12
	.byte		N02   , Fs1 , v092
	.byte	W06
	.byte		        Fs1 , v016
	.byte	W06
	.byte		N12   , En2 , v060
	.byte	W12
	.byte		N02   , Fs1 , v092
	.byte	W06
	.byte		        Fs1 , v016
	.byte	W06
	.byte		N12   , En2 , v060
	.byte	W12
	.byte		N02   , Fs1 , v112
	.byte	W06
	.byte		        Fs1 , v032
	.byte	W06
	.byte		        Fs1 , v092
	.byte	W12
	.byte		N12   , En2 , v060
	.byte	W12
	.byte	PATT
	 .word	seq_014_8 + 0xA
	.byte	PATT
	 .word	seq_014_8 + 0x3D
	.byte	PATT
	 .word	seq_014_8 + 0xA
	.byte	PATT
	 .word	seq_014_8 + 0x3D
	.byte	PATT
	 .word	seq_014_8 + 0xA
	.byte	PATT
	 .word	seq_014_8 + 0x3D
	.byte	PATT
	 .word	seq_014_8 + 0xA
	.byte	PATT
	 .word	seq_014_8 + 0x3D
	.byte	PATT
	 .word	seq_014_8 + 0xA
	.byte	PATT
	 .word	seq_014_8 + 0x3D
	.byte	PATT
	 .word	seq_014_8 + 0xA
	.byte	PATT
	 .word	seq_014_8 + 0x3D
	.byte	GOTO
	 .word	seq_014_8 + 0x77
	.byte	FINE

@*********************** Track 10 ***********************@

seq_014_9:
	.byte	KEYSH , seq_014_key+0
	.byte	W14
	.byte		VOICE , 37
	.byte		VOL   , 85*seq_014_mvl/mxv
	.byte		PAN   , c_v+0
	.byte	W01
	.byte		MOD   , 0
	.byte		MODT  , mod_vib
	.byte	W09
	.byte		N06   , En1 , v127
	.byte	W06
	.byte		N01   , En1 , v072
	.byte	W06
	.byte		N06   , En2 , v127
	.byte	W06
	.byte		        An1 
	.byte	W06
	.byte		N04   , Bn1 
	.byte	W06
	.byte		N01   , En1 , v004
	.byte	W06
	.byte		N12   , En2 , v127
	.byte	W12
	.byte		N01   , En1 
	.byte	W06
	.byte		        En1 , v072
	.byte	W06
	.byte		N06   , Bn1 , v127
	.byte	W06
	.byte		N04   , En2 
	.byte	W06
	.byte		N01   , En1 , v072
	.byte	W06
	.byte		N06   , An1 , v127
	.byte	W06
	.byte		N12   , Bn1 
	.byte	W12
	.byte	PEND
	.byte		N01   , En1 , v072
	.byte	W06
	.byte		        En1 , v004
	.byte	W06
	.byte		N06   , En2 , v127
	.byte	W06
	.byte		        An1 
	.byte	W06
	.byte		N04   , Bn1 
	.byte	W06
	.byte		N01   , En1 , v004
	.byte	W06
	.byte		N12   , En2 , v127
	.byte	W12
	.byte		N01   , En1 
	.byte	W06
	.byte		        En1 , v004
	.byte	W06
	.byte		N06   , Bn1 , v127
	.byte	W06
	.byte		        En2 
	.byte	W06
	.byte		N01   , En1 
	.byte	W06
	.byte		N06   , An1 
	.byte	W06
	.byte		N12   , Bn1 
	.byte	W12
	.byte	PEND
	.byte	PATT
	 .word	seq_014_9 + 0xF
	.byte	PATT
	 .word	seq_014_9 + 0x41
	.byte		N06   , Fn1 , v127
	.byte	W06
	.byte		N01   , Fn1 , v072
	.byte	W06
	.byte		N06   , Fn2 , v127
	.byte	W06
	.byte		        As1 
	.byte	W06
	.byte		N04   , Cn2 
	.byte	W06
	.byte		N01   , Fn1 , v004
	.byte	W06
	.byte		N12   , Fn2 , v127
	.byte	W12
	.byte		N01   , Fn1 
	.byte	W06
	.byte		        Fn1 , v072
	.byte	W06
	.byte		N06   , Cn2 , v127
	.byte	W06
	.byte		N04   , Fn2 
	.byte	W06
	.byte		N01   , Fn1 , v072
	.byte	W06
	.byte		N06   , As1 , v127
	.byte	W06
	.byte		N12   , Cn2 
	.byte	W12
	.byte	PEND
	.byte		N01   , Fn1 , v072
	.byte	W06
	.byte		        Fn1 , v004
	.byte	W06
	.byte		N06   , Fn2 , v127
	.byte	W06
	.byte		        As1 
	.byte	W06
	.byte		N04   , Cn2 
	.byte	W06
	.byte		N01   , Fn1 , v004
	.byte	W06
	.byte		N12   , Fn2 , v127
	.byte	W12
	.byte		N01   , Fn1 
	.byte	W06
	.byte		        Fn1 , v004
	.byte	W06
	.byte		N06   , Cn2 , v127
	.byte	W06
	.byte		        Fn2 
	.byte	W06
	.byte		N01   , Fn1 
	.byte	W06
	.byte		N06   , As1 
	.byte	W06
	.byte		N12   , Cn2 
	.byte	W12
	.byte	PEND
	.byte	PATT
	 .word	seq_014_9 + 0xF
	.byte	PATT
	 .word	seq_014_9 + 0x41
	.byte	PATT
	 .word	seq_014_9 + 0xF
	.byte	PATT
	 .word	seq_014_9 + 0x41
	.byte	PATT
	 .word	seq_014_9 + 0xF
	.byte	PATT
	 .word	seq_014_9 + 0x41
	.byte	PATT
	 .word	seq_014_9 + 0x79
	.byte	PATT
	 .word	seq_014_9 + 0xAB
	.byte	PATT
	 .word	seq_014_9 + 0xF
	.byte	PATT
	 .word	seq_014_9 + 0x41
	.byte	PATT
	 .word	seq_014_9 + 0xF
	.byte	PATT
	 .word	seq_014_9 + 0x41
	.byte	PATT
	 .word	seq_014_9 + 0xF
	.byte	PATT
	 .word	seq_014_9 + 0x41
	.byte		N06   , Fn1 , v127
	.byte	W06
	.byte		N01   , Fn1 , v072
	.byte	W06
	.byte		N06   , Fn2 , v127
	.byte	W06
	.byte		        Bn1 
	.byte	W06
	.byte		N04   , Cn2 
	.byte	W06
	.byte		N01   , Fn1 , v004
	.byte	W06
	.byte		N12   , Fn2 , v127
	.byte	W12
	.byte		N01   , Fn1 
	.byte	W06
	.byte		        Fn1 , v072
	.byte	W06
	.byte		N06   , Cn2 , v127
	.byte	W06
	.byte		N04   , Fn2 
	.byte	W06
	.byte		N01   , Fn1 , v072
	.byte	W06
	.byte		N06   , Bn1 , v127
	.byte	W06
	.byte		N12   , Cn2 
	.byte	W12
	.byte		N01   , Fn1 , v072
	.byte	W06
	.byte		        Fn1 , v004
	.byte	W06
	.byte		N06   , Fn2 , v127
	.byte	W06
	.byte		        Bn1 
	.byte	W06
	.byte		N04   , Cn2 
	.byte	W06
	.byte		N01   , Fn1 , v004
	.byte	W06
	.byte		N12   , Fn2 , v127
	.byte	W12
	.byte		N01   , Fn1 
	.byte	W06
	.byte		        Fn1 , v004
	.byte	W06
	.byte		N06   , Cn2 , v127
	.byte	W06
	.byte		        Fn2 
	.byte	W06
	.byte		N01   , Fn1 
	.byte	W06
	.byte		N06   , Bn1 
	.byte	W06
	.byte		N12   , Cn2 
	.byte	W12
	.byte	PATT
	 .word	seq_014_9 + 0x79
	.byte		N12   , Fn2 , v127
	.byte	W12
	.byte		        Cn3 
	.byte	W12
	.byte		N06   , En2 
	.byte	W12
	.byte		N12   , Bn2 
	.byte	W12
	.byte		N06   , Fn2 
	.byte	W12
	.byte		N12   , Bn2 
	.byte	W12
	.byte		N06   , Fs2 
	.byte	W12
	.byte		N12   , Gs2 
	.byte	W12
	.byte	PATT
	 .word	seq_014_9 + 0xF
	.byte	PATT
	 .word	seq_014_9 + 0x41
	.byte	PATT
	 .word	seq_014_9 + 0xF
	.byte	PATT
	 .word	seq_014_9 + 0x41
	.byte	PATT
	 .word	seq_014_9 + 0x79
	.byte	PATT
	 .word	seq_014_9 + 0xAB
	.byte	PATT
	 .word	seq_014_9 + 0x79
	.byte	PATT
	 .word	seq_014_9 + 0xAB
	.byte	PATT
	 .word	seq_014_9 + 0xF
	.byte	PATT
	 .word	seq_014_9 + 0x41
	.byte	PATT
	 .word	seq_014_9 + 0xF
	.byte	PATT
	 .word	seq_014_9 + 0x41
	.byte	GOTO
	 .word	seq_014_9 + 0x79
	.byte	FINE

@*********************** Track 11 ***********************@

seq_014_10:
	.byte	KEYSH , seq_014_key+0
	.byte	W16
	.byte		VOICE , 127
	.byte		VOL   , 73*seq_014_mvl/mxv
	.byte		PAN   , c_v+0
	.byte	W08
	.byte		N03   , Cn1 , v120
	.byte	W06
	.byte		        Ds3 , v080
	.byte	W12
	.byte		        En3 
	.byte	W06
	.byte		N06   , Fn3 , v100
	.byte	W06
	.byte		N03   , Dn3 , v120
	.byte	W12
	.byte		        Ds3 , v072
	.byte	W12
	.byte		        Dn3 , v120
	.byte	W12
	.byte		        En3 , v080
	.byte	W06
	.byte		N06   , Fn3 , v100
	.byte	W06
	.byte		N03   , Ds3 , v072
	.byte	W12
	.byte		        Dn3 , v120
	.byte	W06
	.byte	PEND
	.byte	PATT
	 .word	seq_014_10 + 0xA
	.byte	PATT
	 .word	seq_014_10 + 0xA
	.byte		N03   , Cn1 , v120
	.byte	W06
	.byte		        Ds3 , v080
	.byte	W12
	.byte		        En3 
	.byte	W06
	.byte		        Cn1 , v120
	.byte		N06   , Fn3 , v100
	.byte	W06
	.byte		N03   , Dn3 , v120
	.byte	W12
	.byte		        Ds3 , v072
	.byte	W06
	.byte		        Cn1 , v120
	.byte	W06
	.byte		        Dn3 
	.byte	W12
	.byte		N06   , En1 , v032
	.byte		N03   , En3 , v080
	.byte	W06
	.byte		N06   , En1 , v120
	.byte		N06   , Fn3 , v100
	.byte	W06
	.byte		N03   , Ds3 , v072
	.byte	W06
	.byte		N06   , En1 , v120
	.byte	W06
	.byte		        En1 , v032
	.byte		N03   , Dn3 , v120
	.byte	W06
	.byte	PEND
	.byte		N03   , Cn1 , v120
	.byte	W06
	.byte		        Ds3 , v080
	.byte	W06
	.byte		N06   , An4 , v092
	.byte	W06
	.byte		N03   , En3 , v080
	.byte	W06
	.byte		N09   , En1 , v120
	.byte	W06
	.byte		N03   , Dn3 
	.byte	W06
	.byte		        Cn1 , v092
	.byte	W06
	.byte		        Ds3 , v072
	.byte	W06
	.byte		        Cn1 , v120
	.byte	W06
	.byte		        Dn3 
	.byte	W06
	.byte		        Cn1 , v092
	.byte	W06
	.byte		        En3 , v080
	.byte	W06
	.byte		N09   , En1 , v120
	.byte	W06
	.byte		N03   , Ds3 , v072
	.byte	W06
	.byte		        Cn1 , v092
	.byte	W06
	.byte		        Dn3 , v120
	.byte	W06
	.byte	PEND
	.byte	PATT
	 .word	seq_014_10 + 0x72
	.byte	PATT
	 .word	seq_014_10 + 0x72
	.byte	PATT
	 .word	seq_014_10 + 0x72
	.byte	PATT
	 .word	seq_014_10 + 0x72
	.byte	PATT
	 .word	seq_014_10 + 0x72
	.byte	PATT
	 .word	seq_014_10 + 0x72
	.byte	PATT
	 .word	seq_014_10 + 0x72
	.byte	PATT
	 .word	seq_014_10 + 0x72
	.byte	PATT
	 .word	seq_014_10 + 0x72
	.byte	PATT
	 .word	seq_014_10 + 0x72
	.byte		N03   , Cn1 , v120
	.byte	W06
	.byte		        Ds3 , v080
	.byte	W06
	.byte		N06   , An4 , v092
	.byte	W06
	.byte		N03   , En3 , v080
	.byte	W06
	.byte		N09   , En1 , v120
	.byte	W06
	.byte		N03   , Dn3 
	.byte	W06
	.byte		        Cn1 , v092
	.byte	W06
	.byte		        Ds3 , v072
	.byte	W06
	.byte		        Cn1 , v120
	.byte	W06
	.byte		        Dn3 
	.byte	W06
	.byte		N06   , An4 , v092
	.byte	W06
	.byte		        En1 , v044
	.byte	W06
	.byte		        En1 , v120
	.byte	W12
	.byte		N06
	.byte	W12
	.byte	W06
	.byte		N03   , Ds3 , v080
	.byte	W06
	.byte		N06   , Fs2 , v092
	.byte	W06
	.byte		N03   , En3 , v080
	.byte	W06
	.byte		N06   , Gn1 , v120
	.byte	W06
	.byte		N03   , Dn3 
	.byte	W06
	.byte		N06   , Fs2 , v092
	.byte	W06
	.byte		N03   , Ds3 , v072
	.byte	W12
	.byte		        Dn3 , v120
	.byte	W06
	.byte		N06   , Fs2 , v092
	.byte	W06
	.byte		N03   , En3 , v080
	.byte	W06
	.byte		N06   , Gn1 , v120
	.byte	W06
	.byte		N03   , Ds3 , v072
	.byte	W06
	.byte		N06   , Fs2 , v092
	.byte	W06
	.byte		N03   , Dn3 , v120
	.byte	W06
	.byte	PEND
	.byte	PATT
	 .word	seq_014_10 + 0x107
	.byte	PATT
	 .word	seq_014_10 + 0x107
	.byte	PATT
	 .word	seq_014_10 + 0x107
	.byte	PATT
	 .word	seq_014_10 + 0x107
	.byte	PATT
	 .word	seq_014_10 + 0x107
	.byte	PATT
	 .word	seq_014_10 + 0x107
	.byte		N06   , Cn1 , v120
	.byte	W06
	.byte		N03   , Ds3 , v080
	.byte	W06
	.byte		N06   , An4 , v092
	.byte	W06
	.byte		N03   , En3 , v080
	.byte	W06
	.byte		N06   , Cn1 , v120
	.byte	W06
	.byte		N03   , Dn3 
	.byte	W06
	.byte		N06   , An4 , v092
	.byte	W06
	.byte		N03   , Ds3 , v072
	.byte	W06
	.byte		N06   , Cn1 , v120
	.byte	W06
	.byte		        Dn1 , v112
	.byte	W06
	.byte		        An4 , v092
	.byte	W06
	.byte		        Dn1 , v100
	.byte	W12
	.byte		        Dn1 , v020
	.byte	W06
	.byte		        Dn1 , v120
	.byte	W12
	.byte	PEND
	.byte	PATT
	 .word	seq_014_10 + 0x72
	.byte	PATT
	 .word	seq_014_10 + 0x72
	.byte	PATT
	 .word	seq_014_10 + 0x72
	.byte	PATT
	 .word	seq_014_10 + 0x72
	.byte	PATT
	 .word	seq_014_10 + 0x72
	.byte	PATT
	 .word	seq_014_10 + 0x72
	.byte	PATT
	 .word	seq_014_10 + 0x72
	.byte	PATT
	 .word	seq_014_10 + 0x15D
	.byte	PATT
	 .word	seq_014_10 + 0xA
	.byte	PATT
	 .word	seq_014_10 + 0xA
	.byte	PATT
	 .word	seq_014_10 + 0xA
	.byte	PATT
	 .word	seq_014_10 + 0x3A
	.byte	GOTO
	 .word	seq_014_10 + 0x72
	.byte	FINE

@******************************************************@

	.align	2

seq_014:
	.byte	11	@ NumTrks
	.byte	0	@ NumBlks
	.byte	seq_014_pri	@ Priority
	.byte	seq_014_rev	@ Reverb

	.word	seq_014_grp

	.word	seq_014_0
	.word	seq_014_1
	.word	seq_014_2
	.word	seq_014_3
	.word	seq_014_4
	.word	seq_014_5
	.word	seq_014_6
	.word	seq_014_7
	.word	seq_014_8
	.word	seq_014_9
	.word	seq_014_10

	.end
