@ File generated by m4a2s Song-Module
	.include "MPlayDef.s"

	.equ	seq_025_grp, bank_000
	.equ	seq_025_pri, 50
	.equ	seq_025_rev, 198
	.equ	seq_025_mvl, 127
	.equ	seq_025_key, 0

	.section .rodata
	.global	seq_025
	.align	2

@*********************** Track 01 ***********************@

seq_025_0:
	.byte	KEYSH , seq_025_key+0
	.byte	TEMPO , 102/2
	.byte		VOICE , 76
	.byte		VOL   , 60*seq_025_mvl/mxv
	.byte		LFODL , 12
	.byte	W01
	.byte		MOD   , 75
	.byte		PAN   , c_v+0
	.byte		BENDR , 12
	.byte	W01
	.byte		LFOS  , 40
	.byte		MODT  , mod_tre
	.byte	W22
	.byte	W48
	.byte	W96
	.byte	W96
	.byte	W96
	.byte	W96
	.byte	W96
	.byte	W96
	.byte	W96
	.byte	W96
	.byte	W96
	.byte	W96
	.byte	W54
	.byte	W01
	.byte		VOL   , 50*seq_025_mvl/mxv
	.byte	W01
	.byte		N04   , Cn5 , v120
	.byte	W08
	.byte		N03   , As4 
	.byte	W08
	.byte		N04   , Gn4 , v088
	.byte	W08
	.byte		N02   , Fn4 , v068
	.byte	W08
	.byte		        Ds4 , v100
	.byte	W07
	.byte		VOL   , 41*seq_025_mvl/mxv
	.byte	W01
	.byte	PEND
	.byte		N36   , Cn4 , v100
	.byte	W02
	.byte		VOL   , 42*seq_025_mvl/mxv
	.byte	W02
	.byte		        45*seq_025_mvl/mxv
	.byte	W01
	.byte		        48*seq_025_mvl/mxv
	.byte	W01
	.byte		        50*seq_025_mvl/mxv
	.byte	W17
	.byte		        46*seq_025_mvl/mxv
	.byte	W03
	.byte		        43*seq_025_mvl/mxv
	.byte	W02
	.byte		        39*seq_025_mvl/mxv
	.byte	W01
	.byte		        34*seq_025_mvl/mxv
	.byte	W01
	.byte		        31*seq_025_mvl/mxv
	.byte	W01
	.byte		        26*seq_025_mvl/mxv
	.byte	W01
	.byte		        18*seq_025_mvl/mxv
	.byte	W01
	.byte		        13*seq_025_mvl/mxv
	.byte	W06
	.byte		        73*seq_025_mvl/mxv
	.byte	W01
	.byte		N03   , As3 , v120
	.byte	W03
	.byte		        Cn4 , v112
	.byte	W02
	.byte		VOL   , 56*seq_025_mvl/mxv
	.byte	W01
	.byte		N32   , As3 , v120
	.byte	W04
	.byte		VOL   , 40*seq_025_mvl/mxv
	.byte	W02
	.byte		        45*seq_025_mvl/mxv
	.byte	W01
	.byte		        47*seq_025_mvl/mxv
	.byte	W01
	.byte		        50*seq_025_mvl/mxv
	.byte	W14
	.byte		        46*seq_025_mvl/mxv
	.byte	W03
	.byte		        43*seq_025_mvl/mxv
	.byte	W02
	.byte		        39*seq_025_mvl/mxv
	.byte	W01
	.byte		        34*seq_025_mvl/mxv
	.byte	W01
	.byte		        31*seq_025_mvl/mxv
	.byte	W01
	.byte		        26*seq_025_mvl/mxv
	.byte	W01
	.byte		        18*seq_025_mvl/mxv
	.byte	W01
	.byte		        13*seq_025_mvl/mxv
	.byte	W18
	.byte	PEND
	.byte	W96
	.byte	W96
	.byte	PATT
	 .word	seq_025_0 + 0x22
	.byte	PATT
	 .word	seq_025_0 + 0x3D
	.byte	W96
	.byte	W96
	.byte	W96
	.byte	W96
	.byte	W96
	.byte	W96
	.byte		VOL   , 60*seq_025_mvl/mxv
	.byte	W96
	.byte	W24
	.byte		N03   , Cn4 , v092
	.byte	W08
	.byte		        Fn4 
	.byte	W08
	.byte		        Gn4 
	.byte	W08
	.byte		N36   , As4 , v052
	.byte	W36
	.byte	W02
	.byte		N04   , An4 , v092
	.byte	W03
	.byte		        As4 
	.byte	W04
	.byte		        An4 
	.byte	W03
	.byte		N96   , Gn4 , v068
	.byte	W03
	.byte		VOL   , 56*seq_025_mvl/mxv
	.byte	W02
	.byte		        56*seq_025_mvl/mxv
	.byte	W02
	.byte		        55*seq_025_mvl/mxv
	.byte	W02
	.byte		        54*seq_025_mvl/mxv
	.byte	W02
	.byte		        54*seq_025_mvl/mxv
	.byte	W02
	.byte		        53*seq_025_mvl/mxv
	.byte	W02
	.byte		        52*seq_025_mvl/mxv
	.byte	W02
	.byte		        52*seq_025_mvl/mxv
	.byte	W02
	.byte		        51*seq_025_mvl/mxv
	.byte	W02
	.byte		        50*seq_025_mvl/mxv
	.byte	W02
	.byte		        50*seq_025_mvl/mxv
	.byte	W02
	.byte		        49*seq_025_mvl/mxv
	.byte	W02
	.byte		        48*seq_025_mvl/mxv
	.byte	W02
	.byte		        48*seq_025_mvl/mxv
	.byte	W02
	.byte		        47*seq_025_mvl/mxv
	.byte	W02
	.byte		        46*seq_025_mvl/mxv
	.byte	W02
	.byte		        46*seq_025_mvl/mxv
	.byte	W02
	.byte		        45*seq_025_mvl/mxv
	.byte	W02
	.byte		        44*seq_025_mvl/mxv
	.byte	W02
	.byte		        44*seq_025_mvl/mxv
	.byte	W02
	.byte		        43*seq_025_mvl/mxv
	.byte	W02
	.byte		        42*seq_025_mvl/mxv
	.byte	W02
	.byte		        42*seq_025_mvl/mxv
	.byte	W02
	.byte		        40*seq_025_mvl/mxv
	.byte	W02
	.byte		        38*seq_025_mvl/mxv
	.byte	W02
	.byte		        37*seq_025_mvl/mxv
	.byte	W02
	.byte		        36*seq_025_mvl/mxv
	.byte	W02
	.byte		        34*seq_025_mvl/mxv
	.byte	W02
	.byte		        32*seq_025_mvl/mxv
	.byte	W02
	.byte		        31*seq_025_mvl/mxv
	.byte	W02
	.byte		        30*seq_025_mvl/mxv
	.byte	W02
	.byte		        28*seq_025_mvl/mxv
	.byte	W02
	.byte		        26*seq_025_mvl/mxv
	.byte	W02
	.byte		        25*seq_025_mvl/mxv
	.byte	W02
	.byte		        24*seq_025_mvl/mxv
	.byte	W02
	.byte		        22*seq_025_mvl/mxv
	.byte	W02
	.byte		        20*seq_025_mvl/mxv
	.byte	W02
	.byte		        19*seq_025_mvl/mxv
	.byte	W02
	.byte		        18*seq_025_mvl/mxv
	.byte	W02
	.byte		        15*seq_025_mvl/mxv
	.byte	W02
	.byte		        13*seq_025_mvl/mxv
	.byte	W02
	.byte		        11*seq_025_mvl/mxv
	.byte	W02
	.byte		        8*seq_025_mvl/mxv
	.byte	W02
	.byte		        6*seq_025_mvl/mxv
	.byte	W02
	.byte		        4*seq_025_mvl/mxv
	.byte	W02
	.byte		        2*seq_025_mvl/mxv
	.byte	W03
	.byte	PEND
	.byte	W96
	.byte		        60*seq_025_mvl/mxv
	.byte	W96
	.byte	W24
	.byte		N03   , Cn4 , v092
	.byte	W08
	.byte		        Fn4 
	.byte	W08
	.byte		        Gn4 
	.byte	W08
	.byte		N36   , As4 , v052
	.byte	W36
	.byte	W02
	.byte		N04   , An4 , v112
	.byte	W03
	.byte		        As4 
	.byte	W04
	.byte		        An4 
	.byte	W03
	.byte	PATT
	 .word	seq_025_0 + 0xAF
	.byte	W96
	.byte		VOICE , 51
	.byte	W01
	.byte		VOL   , 46*seq_025_mvl/mxv
	.byte	W01
	.byte		MOD   , 0
	.byte		PAN   , c_v-10
	.byte	W92
	.byte	W02
	.byte	W68
	.byte	W03
	.byte		VOL   , 46*seq_025_mvl/mxv
	.byte	W01
	.byte		N24   , Gn3 , v060
	.byte	W24
	.byte	PEND
	.byte		N72   , Cn4 , v060
	.byte	W72
	.byte		N24   , Gn4 
	.byte	W24
	.byte	PEND
	.byte		N48   , Fn4 , v060
	.byte	W48
	.byte		        Dn4 
	.byte	W48
	.byte	PEND
	.byte		N96   , Cn4 , v060
	.byte	W04
	.byte		VOL   , 43*seq_025_mvl/mxv
	.byte	W05
	.byte		        42*seq_025_mvl/mxv
	.byte	W04
	.byte		        42*seq_025_mvl/mxv
	.byte	W04
	.byte		        41*seq_025_mvl/mxv
	.byte	W04
	.byte		        40*seq_025_mvl/mxv
	.byte	W04
	.byte		        40*seq_025_mvl/mxv
	.byte	W04
	.byte		        39*seq_025_mvl/mxv
	.byte	W04
	.byte		        38*seq_025_mvl/mxv
	.byte	W04
	.byte		        38*seq_025_mvl/mxv
	.byte	W04
	.byte		        37*seq_025_mvl/mxv
	.byte	W04
	.byte		        33*seq_025_mvl/mxv
	.byte	W04
	.byte		        31*seq_025_mvl/mxv
	.byte	W04
	.byte		        28*seq_025_mvl/mxv
	.byte	W04
	.byte		        26*seq_025_mvl/mxv
	.byte	W04
	.byte		        24*seq_025_mvl/mxv
	.byte	W04
	.byte		        22*seq_025_mvl/mxv
	.byte	W04
	.byte		        20*seq_025_mvl/mxv
	.byte	W04
	.byte		        16*seq_025_mvl/mxv
	.byte	W04
	.byte		        13*seq_025_mvl/mxv
	.byte	W04
	.byte		        10*seq_025_mvl/mxv
	.byte	W04
	.byte		        8*seq_025_mvl/mxv
	.byte	W04
	.byte		        5*seq_025_mvl/mxv
	.byte	W04
	.byte		        2*seq_025_mvl/mxv
	.byte	W03
	.byte	PEND
	.byte	PATT
	 .word	seq_025_0 + 0x13C
	.byte	PATT
	 .word	seq_025_0 + 0x146
	.byte	PATT
	 .word	seq_025_0 + 0x14E
	.byte	PATT
	 .word	seq_025_0 + 0x155
	.byte	PATT
	 .word	seq_025_0 + 0x13C
	.byte	PATT
	 .word	seq_025_0 + 0x146
	.byte	PATT
	 .word	seq_025_0 + 0x14E
	.byte	PATT
	 .word	seq_025_0 + 0x155
	.byte	PATT
	 .word	seq_025_0 + 0x13C
	.byte	PATT
	 .word	seq_025_0 + 0x146
	.byte	PATT
	 .word	seq_025_0 + 0x14E
	.byte		N72   , Cn4 , v060
	.byte	W04
	.byte		VOL   , 43*seq_025_mvl/mxv
	.byte	W05
	.byte		        42*seq_025_mvl/mxv
	.byte	W04
	.byte		        42*seq_025_mvl/mxv
	.byte	W04
	.byte		        41*seq_025_mvl/mxv
	.byte	W04
	.byte		        40*seq_025_mvl/mxv
	.byte	W04
	.byte		        40*seq_025_mvl/mxv
	.byte	W04
	.byte		        39*seq_025_mvl/mxv
	.byte	W04
	.byte		        38*seq_025_mvl/mxv
	.byte	W04
	.byte		        38*seq_025_mvl/mxv
	.byte	W04
	.byte		        37*seq_025_mvl/mxv
	.byte	W04
	.byte		        33*seq_025_mvl/mxv
	.byte	W04
	.byte		        31*seq_025_mvl/mxv
	.byte	W04
	.byte		        28*seq_025_mvl/mxv
	.byte	W04
	.byte		        26*seq_025_mvl/mxv
	.byte	W04
	.byte		        24*seq_025_mvl/mxv
	.byte	W04
	.byte		        22*seq_025_mvl/mxv
	.byte	W04
	.byte		        20*seq_025_mvl/mxv
	.byte	W04
	.byte		        16*seq_025_mvl/mxv
	.byte	W04
	.byte		        13*seq_025_mvl/mxv
	.byte	W04
	.byte		        10*seq_025_mvl/mxv
	.byte	W04
	.byte		        8*seq_025_mvl/mxv
	.byte	W04
	.byte		        5*seq_025_mvl/mxv
	.byte	W04
	.byte		        2*seq_025_mvl/mxv
	.byte	W03
	.byte		VOICE , 76
	.byte		LFODL , 12
	.byte	W01
	.byte		VOL   , 60*seq_025_mvl/mxv
	.byte	W01
	.byte		MOD   , 75
	.byte		PAN   , c_v+0
	.byte	W01
	.byte		BENDR , 12
	.byte		LFOS  , 40
	.byte		MODT  , mod_tre
	.byte	W92
	.byte	W01
	.byte	PATT
	 .word	seq_025_0 + 0x22
	.byte	PATT
	 .word	seq_025_0 + 0x3D
	.byte	W96
	.byte	W96
	.byte	PATT
	 .word	seq_025_0 + 0x22
	.byte	PATT
	 .word	seq_025_0 + 0x3D
	.byte	W96
	.byte	W96
	.byte	W96
	.byte	W96
	.byte	GOTO
	 .word	seq_025_0 + 0x94
	.byte	FINE

@*********************** Track 02 ***********************@

seq_025_1:
	.byte	KEYSH , seq_025_key+0
	.byte	W03
	.byte		VOICE , 18
	.byte		VOL   , 73*seq_025_mvl/mxv
	.byte		PAN   , c_v+0
	.byte	W21
	.byte	W48
	.byte	W96
	.byte	W96
	.byte	W96
	.byte	W96
	.byte	W96
	.byte	W96
	.byte	W96
	.byte	W96
	.byte	W96
	.byte	W96
	.byte	W96
	.byte	W96
	.byte	W96
	.byte	W96
	.byte	W96
	.byte		VOICE , 1
	.byte		N02   , Fn2 , v048
	.byte	W04
	.byte		        Fn2 , v008
	.byte	W04
	.byte		        Gn2 , v100
	.byte	W04
	.byte		        Gn2 , v020
	.byte	W04
	.byte		        Cn3 , v052
	.byte	W04
	.byte		        Cn3 , v020
	.byte	W04
	.byte		        Cn4 , v060
	.byte	W04
	.byte		        Cn4 , v020
	.byte	W04
	.byte		        Gn3 , v036
	.byte	W04
	.byte		        Gn3 , v020
	.byte	W04
	.byte		        Fn3 , v060
	.byte	W04
	.byte		        Fn3 , v020
	.byte	W04
	.byte		VOICE , 95
	.byte		LFODL , 12
	.byte	W02
	.byte		MOD   , 30
	.byte		PAN   , c_v+0
	.byte	W01
	.byte		BENDR , 12
	.byte		LFOS  , 30
	.byte		MODT  , mod_tre
	.byte	W20
	.byte		VOL   , 66*seq_025_mvl/mxv
	.byte	W01
	.byte		N24   , Gn2 , v092
	.byte	W23
	.byte		VOL   , 43*seq_025_mvl/mxv
	.byte	W01
	.byte	PEND
	.byte		N72   , Cn3 , v092
	.byte	W04
	.byte		VOL   , 50*seq_025_mvl/mxv
	.byte	W03
	.byte		        53*seq_025_mvl/mxv
	.byte	W02
	.byte		        56*seq_025_mvl/mxv
	.byte	W02
	.byte		        58*seq_025_mvl/mxv
	.byte	W02
	.byte		        60*seq_025_mvl/mxv
	.byte	W02
	.byte		        66*seq_025_mvl/mxv
	.byte	W02
	.byte		        72*seq_025_mvl/mxv
	.byte	W54
	.byte		        66*seq_025_mvl/mxv
	.byte	W01
	.byte		N24   , Gn3 
	.byte	W23
	.byte		VOL   , 43*seq_025_mvl/mxv
	.byte	W01
	.byte	PEND
	.byte		N48   , Fn3 , v092
	.byte	W04
	.byte		VOL   , 50*seq_025_mvl/mxv
	.byte	W03
	.byte		        53*seq_025_mvl/mxv
	.byte	W02
	.byte		        56*seq_025_mvl/mxv
	.byte	W02
	.byte		        58*seq_025_mvl/mxv
	.byte	W02
	.byte		        60*seq_025_mvl/mxv
	.byte	W02
	.byte		        66*seq_025_mvl/mxv
	.byte	W02
	.byte		        72*seq_025_mvl/mxv
	.byte	W30
	.byte	W01
	.byte		N40   , Dn3 
	.byte	W40
	.byte		N02
	.byte	W02
	.byte		N03   , Ds3 
	.byte	W03
	.byte		        Dn3 
	.byte	W02
	.byte		VOL   , 43*seq_025_mvl/mxv
	.byte	W01
	.byte	PEND
	.byte		TIE   , Cn3 , v092
	.byte	W04
	.byte		VOL   , 50*seq_025_mvl/mxv
	.byte	W03
	.byte		        53*seq_025_mvl/mxv
	.byte	W02
	.byte		        56*seq_025_mvl/mxv
	.byte	W02
	.byte		        58*seq_025_mvl/mxv
	.byte	W02
	.byte		        60*seq_025_mvl/mxv
	.byte	W02
	.byte		        66*seq_025_mvl/mxv
	.byte	W02
	.byte		        72*seq_025_mvl/mxv
	.byte	W78
	.byte	W01
	.byte	PEND
	.byte	W68
	.byte	W03
	.byte		VOL   , 66*seq_025_mvl/mxv
	.byte	W01
	.byte	PEND
	.byte		EOT   , Cn3 
	.byte	W23
	.byte		VOL   , 43*seq_025_mvl/mxv
	.byte	W01
	.byte	PATT
	 .word	seq_025_1 + 0x5D
	.byte		N48   , Fn3 , v092
	.byte	W04
	.byte		VOL   , 50*seq_025_mvl/mxv
	.byte	W03
	.byte		        53*seq_025_mvl/mxv
	.byte	W02
	.byte		        56*seq_025_mvl/mxv
	.byte	W02
	.byte		        58*seq_025_mvl/mxv
	.byte	W02
	.byte		        60*seq_025_mvl/mxv
	.byte	W02
	.byte		        66*seq_025_mvl/mxv
	.byte	W02
	.byte		        72*seq_025_mvl/mxv
	.byte	W30
	.byte	W01
	.byte		N40   , As3 
	.byte	W40
	.byte		N02   , An3 
	.byte	W02
	.byte		N03   , As3 
	.byte	W03
	.byte		        An3 
	.byte	W02
	.byte		VOL   , 43*seq_025_mvl/mxv
	.byte	W01
	.byte		TIE   , Gn3 
	.byte	W04
	.byte		VOL   , 50*seq_025_mvl/mxv
	.byte	W03
	.byte		        53*seq_025_mvl/mxv
	.byte	W02
	.byte		        56*seq_025_mvl/mxv
	.byte	W02
	.byte		        58*seq_025_mvl/mxv
	.byte	W02
	.byte		        60*seq_025_mvl/mxv
	.byte	W02
	.byte		        66*seq_025_mvl/mxv
	.byte	W02
	.byte		        72*seq_025_mvl/mxv
	.byte	W78
	.byte		        60*seq_025_mvl/mxv
	.byte	W01
	.byte	W01
	.byte		        60*seq_025_mvl/mxv
	.byte	W02
	.byte		        60*seq_025_mvl/mxv
	.byte	W02
	.byte		        59*seq_025_mvl/mxv
	.byte	W02
	.byte		        58*seq_025_mvl/mxv
	.byte	W02
	.byte		        58*seq_025_mvl/mxv
	.byte	W02
	.byte		        58*seq_025_mvl/mxv
	.byte	W02
	.byte		        57*seq_025_mvl/mxv
	.byte	W02
	.byte		        56*seq_025_mvl/mxv
	.byte	W02
	.byte		        56*seq_025_mvl/mxv
	.byte	W02
	.byte		        55*seq_025_mvl/mxv
	.byte	W02
	.byte		        55*seq_025_mvl/mxv
	.byte	W02
	.byte		        54*seq_025_mvl/mxv
	.byte	W02
	.byte		        54*seq_025_mvl/mxv
	.byte	W02
	.byte		        53*seq_025_mvl/mxv
	.byte	W02
	.byte		        52*seq_025_mvl/mxv
	.byte	W02
	.byte		        50*seq_025_mvl/mxv
	.byte	W02
	.byte		        50*seq_025_mvl/mxv
	.byte	W02
	.byte		        48*seq_025_mvl/mxv
	.byte	W02
	.byte		        47*seq_025_mvl/mxv
	.byte	W02
	.byte		        46*seq_025_mvl/mxv
	.byte	W02
	.byte		        44*seq_025_mvl/mxv
	.byte	W02
	.byte		        44*seq_025_mvl/mxv
	.byte	W02
	.byte		        42*seq_025_mvl/mxv
	.byte	W02
	.byte		        41*seq_025_mvl/mxv
	.byte	W02
	.byte		        40*seq_025_mvl/mxv
	.byte	W02
	.byte		        38*seq_025_mvl/mxv
	.byte	W02
	.byte		        37*seq_025_mvl/mxv
	.byte	W02
	.byte		        33*seq_025_mvl/mxv
	.byte	W02
	.byte		        31*seq_025_mvl/mxv
	.byte	W02
	.byte		        29*seq_025_mvl/mxv
	.byte	W02
	.byte		        27*seq_025_mvl/mxv
	.byte	W02
	.byte		        25*seq_025_mvl/mxv
	.byte	W02
	.byte		        23*seq_025_mvl/mxv
	.byte	W02
	.byte		        21*seq_025_mvl/mxv
	.byte	W02
	.byte		        19*seq_025_mvl/mxv
	.byte	W02
	.byte		        17*seq_025_mvl/mxv
	.byte	W01
	.byte		EOT
	.byte	W24
	.byte	W96
	.byte	W96
	.byte	W96
	.byte	W96
	.byte	W96
	.byte	W96
	.byte		VOICE , 51
	.byte	W01
	.byte		VOL   , 46*seq_025_mvl/mxv
	.byte	W01
	.byte		MOD   , 0
	.byte		PAN   , c_v+10
	.byte	W92
	.byte	W02
	.byte	W68
	.byte	W03
	.byte		VOL   , 46*seq_025_mvl/mxv
	.byte	W01
	.byte		N24   , Dn3 , v080
	.byte	W24
	.byte	PEND
	.byte		N72   , Gn3 , v080
	.byte	W72
	.byte		N24   , Dn4 
	.byte	W24
	.byte	PEND
	.byte		N48   , Cn4 , v080
	.byte	W48
	.byte		        An3 
	.byte	W48
	.byte	PEND
	.byte		N96   , Gn3 , v080
	.byte	W04
	.byte		VOL   , 43*seq_025_mvl/mxv
	.byte	W05
	.byte		        42*seq_025_mvl/mxv
	.byte	W04
	.byte		        42*seq_025_mvl/mxv
	.byte	W04
	.byte		        41*seq_025_mvl/mxv
	.byte	W04
	.byte		        40*seq_025_mvl/mxv
	.byte	W04
	.byte		        40*seq_025_mvl/mxv
	.byte	W04
	.byte		        39*seq_025_mvl/mxv
	.byte	W04
	.byte		        38*seq_025_mvl/mxv
	.byte	W04
	.byte		        38*seq_025_mvl/mxv
	.byte	W04
	.byte		        37*seq_025_mvl/mxv
	.byte	W04
	.byte		        33*seq_025_mvl/mxv
	.byte	W04
	.byte		        31*seq_025_mvl/mxv
	.byte	W04
	.byte		        28*seq_025_mvl/mxv
	.byte	W04
	.byte		        26*seq_025_mvl/mxv
	.byte	W04
	.byte		        24*seq_025_mvl/mxv
	.byte	W04
	.byte		        22*seq_025_mvl/mxv
	.byte	W04
	.byte		        20*seq_025_mvl/mxv
	.byte	W04
	.byte		        16*seq_025_mvl/mxv
	.byte	W04
	.byte		        13*seq_025_mvl/mxv
	.byte	W04
	.byte		        10*seq_025_mvl/mxv
	.byte	W04
	.byte		        8*seq_025_mvl/mxv
	.byte	W04
	.byte		        5*seq_025_mvl/mxv
	.byte	W04
	.byte		        2*seq_025_mvl/mxv
	.byte	W03
	.byte	PEND
	.byte	PATT
	 .word	seq_025_1 + 0x154
	.byte	PATT
	 .word	seq_025_1 + 0x15E
	.byte	PATT
	 .word	seq_025_1 + 0x166
	.byte	PATT
	 .word	seq_025_1 + 0x16D
	.byte	PATT
	 .word	seq_025_1 + 0x154
	.byte	PATT
	 .word	seq_025_1 + 0x15E
	.byte	PATT
	 .word	seq_025_1 + 0x166
	.byte	PATT
	 .word	seq_025_1 + 0x16D
	.byte	PATT
	 .word	seq_025_1 + 0x154
	.byte	PATT
	 .word	seq_025_1 + 0x15E
	.byte	PATT
	 .word	seq_025_1 + 0x166
	.byte		N72   , Gn3 , v080
	.byte	W04
	.byte		VOL   , 43*seq_025_mvl/mxv
	.byte	W05
	.byte		        42*seq_025_mvl/mxv
	.byte	W04
	.byte		        42*seq_025_mvl/mxv
	.byte	W04
	.byte		        41*seq_025_mvl/mxv
	.byte	W04
	.byte		        40*seq_025_mvl/mxv
	.byte	W04
	.byte		        40*seq_025_mvl/mxv
	.byte	W04
	.byte		        39*seq_025_mvl/mxv
	.byte	W04
	.byte		        38*seq_025_mvl/mxv
	.byte	W04
	.byte		        38*seq_025_mvl/mxv
	.byte	W04
	.byte		        37*seq_025_mvl/mxv
	.byte	W04
	.byte		        33*seq_025_mvl/mxv
	.byte	W04
	.byte		        31*seq_025_mvl/mxv
	.byte	W04
	.byte		        28*seq_025_mvl/mxv
	.byte	W04
	.byte		        26*seq_025_mvl/mxv
	.byte	W04
	.byte		        24*seq_025_mvl/mxv
	.byte	W04
	.byte		        22*seq_025_mvl/mxv
	.byte	W04
	.byte		        20*seq_025_mvl/mxv
	.byte	W04
	.byte		        16*seq_025_mvl/mxv
	.byte	W04
	.byte		        13*seq_025_mvl/mxv
	.byte	W04
	.byte		        10*seq_025_mvl/mxv
	.byte	W04
	.byte		        8*seq_025_mvl/mxv
	.byte	W04
	.byte		        5*seq_025_mvl/mxv
	.byte	W04
	.byte		        2*seq_025_mvl/mxv
	.byte	W03
	.byte	W96
	.byte	W96
	.byte		VOICE , 18
	.byte	W01
	.byte		VOL   , 73*seq_025_mvl/mxv
	.byte	W01
	.byte		PAN   , c_v+0
	.byte	W92
	.byte	W02
	.byte	W96
	.byte	W96
	.byte	W96
	.byte	PATT
	 .word	seq_025_1 + 0x1A
	.byte	PATT
	 .word	seq_025_1 + 0x5D
	.byte	PATT
	 .word	seq_025_1 + 0x79
	.byte	PATT
	 .word	seq_025_1 + 0x9B
	.byte	PATT
	 .word	seq_025_1 + 0xB0
	.byte		EOT   , Cn3 
	.byte	W24
	.byte	GOTO
	 .word	seq_025_1 + 0xBC
	.byte	FINE

@*********************** Track 03 ***********************@

seq_025_2:
	.byte	KEYSH , seq_025_key+0
	.byte	W04
	.byte		VOICE , 7
	.byte		VOL   , 60*seq_025_mvl/mxv
	.byte		PAN   , c_v+30
	.byte	W20
	.byte	W48
	.byte		N15   , Cn3 , v100
	.byte	W16
	.byte		N04
	.byte	W04
	.byte		        Cn3 , v020
	.byte	W52
	.byte		        Cn3 , v100
	.byte	W08
	.byte		        Cn3 , v020
	.byte	W08
	.byte		N08   , Cn3 , v100
	.byte	W08
	.byte	PEND
	.byte		N15   , Dn3 , v100
	.byte	W16
	.byte		N04
	.byte	W04
	.byte		        Dn3 , v020
	.byte	W52
	.byte		        Dn3 , v100
	.byte	W08
	.byte		        Dn3 , v020
	.byte	W08
	.byte		N08   , Dn3 , v100
	.byte	W08
	.byte	PEND
	.byte		N15   , Ds3 , v100
	.byte	W16
	.byte		N04
	.byte	W04
	.byte		        Ds3 , v020
	.byte	W52
	.byte		        Ds3 , v100
	.byte	W08
	.byte		        Ds3 , v020
	.byte	W08
	.byte		N08   , Ds3 , v100
	.byte	W08
	.byte	PEND
	.byte		N15   , Fn3 
	.byte	W16
	.byte		N04
	.byte	W04
	.byte		        Fn3 , v020
	.byte	W20
	.byte		        Ds3 , v100
	.byte	W04
	.byte		        Fn3 
	.byte	W04
	.byte		        Gn3 
	.byte	W24
	.byte		N24   , As2 
	.byte	W24
	.byte	PATT
	 .word	seq_025_2 + 0xB
	.byte	PATT
	 .word	seq_025_2 + 0x1F
	.byte	PATT
	 .word	seq_025_2 + 0x33
	.byte		N15   , Fn3 , v100
	.byte	W16
	.byte		N04
	.byte	W04
	.byte		        Fn3 , v020
	.byte	W20
	.byte		        Ds3 , v100
	.byte	W04
	.byte		        Fn3 
	.byte	W04
	.byte		        Gn3 
	.byte	W24
	.byte		N24   , As2 
	.byte	W23
	.byte		VOICE , 1
	.byte		VOL   , 80*seq_025_mvl/mxv
	.byte		PAN   , c_v+0
	.byte	W01
	.byte		N02   , Fn3 , v068
	.byte	W04
	.byte		        Fn3 , v028
	.byte	W04
	.byte		        Gn3 , v120
	.byte	W04
	.byte		        Gn3 , v040
	.byte	W04
	.byte		        Cn4 , v072
	.byte	W04
	.byte		        Cn4 , v040
	.byte	W04
	.byte		        Cn5 , v100
	.byte	W04
	.byte		        Cn5 , v040
	.byte	W04
	.byte		        Gn4 , v056
	.byte	W04
	.byte		        Gn4 , v040
	.byte	W04
	.byte		        Fn4 , v080
	.byte	W04
	.byte		        Fn4 , v040
	.byte	W04
	.byte		        Fn3 , v068
	.byte	W04
	.byte		        Fn3 , v028
	.byte	W04
	.byte		        Gn3 , v120
	.byte	W04
	.byte		        Gn3 , v040
	.byte	W04
	.byte		        Cn4 , v072
	.byte	W04
	.byte		        Cn4 , v040
	.byte	W04
	.byte		        Cn5 , v100
	.byte	W04
	.byte		        Cn5 , v040
	.byte	W04
	.byte		        Gn4 , v056
	.byte	W04
	.byte		        Gn4 , v040
	.byte	W04
	.byte		        Fn4 , v080
	.byte	W04
	.byte		        Fn4 , v040
	.byte	W04
	.byte	PEND
	.byte	PATT
	 .word	seq_025_2 + 0x82
	.byte		N02   , Fn3 , v068
	.byte	W04
	.byte		        Fn3 , v028
	.byte	W04
	.byte		        Gn3 , v120
	.byte	W04
	.byte		        Gn3 , v040
	.byte	W04
	.byte		        Cn4 , v072
	.byte	W04
	.byte		        Cn4 , v040
	.byte	W04
	.byte		        Cn5 , v100
	.byte	W04
	.byte		        Cn5 , v040
	.byte	W04
	.byte		        Gn4 , v056
	.byte	W04
	.byte		        Gn4 , v040
	.byte	W04
	.byte		        Fn4 , v080
	.byte	W04
	.byte		        Fn4 , v040
	.byte	W52
	.byte	PEND
	.byte	W96
	.byte	PATT
	 .word	seq_025_2 + 0x82
	.byte	PATT
	 .word	seq_025_2 + 0x82
	.byte	PATT
	 .word	seq_025_2 + 0xD1
	.byte	W92
	.byte	W03
	.byte		VOICE , 7
	.byte		VOL   , 60*seq_025_mvl/mxv
	.byte		PAN   , c_v+30
	.byte	W01
	.byte	PEND
	.byte		N15   , Ds3 , v100
	.byte	W16
	.byte		N04
	.byte	W32
	.byte		N04
	.byte	W24
	.byte		N24
	.byte	W24
	.byte	PEND
	.byte		N15   , Dn3 , v100
	.byte	W16
	.byte		N04
	.byte	W32
	.byte		N04
	.byte	W24
	.byte		N24
	.byte	W24
	.byte	PEND
	.byte		N15   , Cn3 , v100
	.byte	W16
	.byte		N04
	.byte	W32
	.byte		N04
	.byte	W24
	.byte		N24   , As2 
	.byte	W24
	.byte	PEND
	.byte	PATT
	 .word	seq_025_2 + 0x127
	.byte	PATT
	 .word	seq_025_2 + 0x111
	.byte	PATT
	 .word	seq_025_2 + 0x11C
	.byte		N15   , Fn3 , v100
	.byte	W16
	.byte		N04
	.byte	W32
	.byte		        Gn3 
	.byte	W24
	.byte		N24   , Ds3 
	.byte	W24
	.byte		N15   , Fn3 
	.byte	W16
	.byte		N04
	.byte	W32
	.byte		        Gn3 
	.byte	W24
	.byte		N24   , Fn3 
	.byte	W23
	.byte		VOICE , 1
	.byte		VOL   , 80*seq_025_mvl/mxv
	.byte		PAN   , c_v+0
	.byte	W01
	.byte	W08
	.byte		N02   , Gn3 , v120
	.byte	W04
	.byte		        Gn3 , v040
	.byte	W04
	.byte		        Cn4 , v072
	.byte	W04
	.byte		        Cn4 , v040
	.byte	W04
	.byte		        Cn5 , v100
	.byte	W04
	.byte		        Cn5 , v040
	.byte	W04
	.byte		        Gn4 , v056
	.byte	W04
	.byte		        Gn4 , v040
	.byte	W04
	.byte		        Fn4 , v080
	.byte	W04
	.byte		        Fn4 , v040
	.byte	W04
	.byte		        Fn3 , v068
	.byte	W04
	.byte		        Fn3 , v028
	.byte	W04
	.byte		        Gn3 , v120
	.byte	W04
	.byte		        Gn3 , v040
	.byte	W04
	.byte		        Cn4 , v072
	.byte	W04
	.byte		        Cn4 , v040
	.byte	W04
	.byte		        Cn5 , v100
	.byte	W04
	.byte		        Cn5 , v040
	.byte	W04
	.byte		        Gn4 , v056
	.byte	W04
	.byte		        Gn4 , v040
	.byte	W04
	.byte		        Fn4 , v080
	.byte	W04
	.byte		        Fn4 , v040
	.byte	W04
	.byte	PATT
	 .word	seq_025_2 + 0x82
	.byte	PATT
	 .word	seq_025_2 + 0x82
	.byte	PATT
	 .word	seq_025_2 + 0xD1
	.byte	W24
	.byte		N02   , Cn5 , v100
	.byte	W04
	.byte		        Cn5 , v040
	.byte	W04
	.byte		        Gn4 , v056
	.byte	W04
	.byte		        Gn4 , v040
	.byte	W04
	.byte		        Fn4 , v080
	.byte	W04
	.byte		        Fn4 , v040
	.byte	W04
	.byte		        Fn3 , v068
	.byte	W04
	.byte		        Fn3 , v028
	.byte	W04
	.byte		        Gn3 , v120
	.byte	W04
	.byte		        Gn3 , v040
	.byte	W04
	.byte		        Cn4 , v072
	.byte	W04
	.byte		        Cn4 , v040
	.byte	W04
	.byte		        Cn5 , v100
	.byte	W04
	.byte		        Cn5 , v040
	.byte	W04
	.byte		        Gn4 , v056
	.byte	W04
	.byte		        Gn4 , v040
	.byte	W04
	.byte		        Fn4 , v080
	.byte	W04
	.byte		        Fn4 , v040
	.byte	W04
	.byte	PATT
	 .word	seq_025_2 + 0x82
	.byte	PATT
	 .word	seq_025_2 + 0x82
	.byte	PATT
	 .word	seq_025_2 + 0xD1
	.byte	W96
	.byte	W96
	.byte	W96
	.byte	W96
	.byte	W96
	.byte	W96
	.byte	W96
	.byte	W96
	.byte	W96
	.byte	W96
	.byte	W96
	.byte	W96
	.byte	W96
	.byte	W96
	.byte	W96
	.byte	W96
	.byte	W96
	.byte	W96
	.byte	W96
	.byte	W96
	.byte	W96
	.byte	PATT
	 .word	seq_025_2 + 0x107
	.byte	PATT
	 .word	seq_025_2 + 0x111
	.byte	PATT
	 .word	seq_025_2 + 0x11C
	.byte	PATT
	 .word	seq_025_2 + 0x127
	.byte	PATT
	 .word	seq_025_2 + 0x127
	.byte	GOTO
	 .word	seq_025_2 + 0x138
	.byte	FINE

@*********************** Track 04 ***********************@

seq_025_3:
	.byte	KEYSH , seq_025_key+0
	.byte	W05
	.byte		VOICE , 7
	.byte		VOL   , 60*seq_025_mvl/mxv
	.byte		PAN   , c_v-30
	.byte	W19
	.byte	W48
	.byte		N15   , Gn2 , v100
	.byte	W16
	.byte		N04
	.byte	W04
	.byte		        Gn2 , v020
	.byte	W52
	.byte		        Gn2 , v100
	.byte	W08
	.byte		        Gn2 , v020
	.byte	W08
	.byte		N08   , Gn2 , v100
	.byte	W08
	.byte	PEND
	.byte		N15   , An2 , v100
	.byte	W16
	.byte		N04
	.byte	W04
	.byte		        An2 , v020
	.byte	W52
	.byte		        An2 , v100
	.byte	W08
	.byte		        An2 , v020
	.byte	W08
	.byte		N08   , An2 , v100
	.byte	W08
	.byte	PEND
	.byte		N15   , As2 , v100
	.byte	W16
	.byte		N04
	.byte	W04
	.byte		        As2 , v020
	.byte	W52
	.byte		        As2 , v100
	.byte	W08
	.byte		        As2 , v020
	.byte	W08
	.byte		N08   , As2 , v100
	.byte	W08
	.byte	PEND
	.byte		N15   , Cn3 , v100
	.byte	W16
	.byte		N04
	.byte	W04
	.byte		        Cn3 , v020
	.byte	W20
	.byte		        Gn2 , v100
	.byte	W04
	.byte		        As2 
	.byte	W04
	.byte		        Cn3 
	.byte	W24
	.byte		N24   , Gn2 
	.byte	W24
	.byte	PEND
	.byte	PATT
	 .word	seq_025_3 + 0xB
	.byte	PATT
	 .word	seq_025_3 + 0x1F
	.byte	PATT
	 .word	seq_025_3 + 0x33
	.byte	PATT
	 .word	seq_025_3 + 0x47
	.byte	W96
	.byte	W96
	.byte	W96
	.byte	W96
	.byte	W96
	.byte	W96
	.byte	W96
	.byte	W96
	.byte		N15   , Cn3 , v100
	.byte	W16
	.byte		N04
	.byte	W32
	.byte		N04
	.byte	W24
	.byte		N24
	.byte	W24
	.byte	PEND
	.byte		N15   , As2 , v100
	.byte	W16
	.byte		N04
	.byte	W32
	.byte		N04
	.byte	W24
	.byte		N24
	.byte	W24
	.byte	PEND
	.byte		N15   , Gn2 , v100
	.byte	W16
	.byte		N04
	.byte	W32
	.byte		N04
	.byte	W24
	.byte		N24
	.byte	W24
	.byte	PEND
	.byte		N15   , Fn2 , v100
	.byte	W16
	.byte		N04
	.byte	W32
	.byte		N04
	.byte	W24
	.byte		N24
	.byte	W24
	.byte	PEND
	.byte	PATT
	 .word	seq_025_3 + 0x77
	.byte	PATT
	 .word	seq_025_3 + 0x82
	.byte		N15   , Cn3 , v100
	.byte	W16
	.byte		N04
	.byte	W32
	.byte		        Dn3 
	.byte	W24
	.byte		N24   , As2 
	.byte	W24
	.byte	PEND
	.byte	PATT
	 .word	seq_025_3 + 0xAD
	.byte	W96
	.byte	W96
	.byte	W96
	.byte	W96
	.byte	W96
	.byte	W96
	.byte	W96
	.byte	W96
	.byte	W96
	.byte	W96
	.byte	W96
	.byte	W96
	.byte	W96
	.byte	W96
	.byte	W96
	.byte	W96
	.byte	W96
	.byte	W96
	.byte	W96
	.byte	W96
	.byte	W96
	.byte	W96
	.byte	W96
	.byte	W96
	.byte	W96
	.byte	W96
	.byte	W96
	.byte	W96
	.byte	W96
	.byte	W96
	.byte	PATT
	 .word	seq_025_3 + 0x77
	.byte	PATT
	 .word	seq_025_3 + 0x82
	.byte	PATT
	 .word	seq_025_3 + 0x8D
	.byte	PATT
	 .word	seq_025_3 + 0x98
	.byte	GOTO
	 .word	seq_025_3 + 0xA3
	.byte	FINE

@*********************** Track 05 ***********************@

seq_025_4:
	.byte	KEYSH , seq_025_key+0
	.byte	W08
	.byte		VOICE , 95
	.byte		MOD   , 30
	.byte		MODT  , mod_pan
	.byte	W01
	.byte		VOL   , 73*seq_025_mvl/mxv
	.byte		PAN   , c_v-30
	.byte	W15
	.byte	W48
	.byte	W96
	.byte	W96
	.byte	W96
	.byte	W96
	.byte	W96
	.byte	W96
	.byte	W96
	.byte	W68
	.byte	W03
	.byte		        c_v+0
	.byte	W01
	.byte		N24   , Gn1 , v120
	.byte	W23
	.byte		PAN   , c_v-30
	.byte	W01
	.byte		N72   , Cn2 , v127
	.byte	W72
	.byte		N24   , Gn2 
	.byte	W24
	.byte	PEND
	.byte		N48   , Fn2 , v127
	.byte	W48
	.byte		        Dn2 
	.byte	W48
	.byte	PEND
	.byte		TIE   , Cn2 , v127
	.byte	W07
	.byte		VOL   , 76*seq_025_mvl/mxv
	.byte	W05
	.byte		        76*seq_025_mvl/mxv
	.byte	W04
	.byte		        76*seq_025_mvl/mxv
	.byte	W05
	.byte		        76*seq_025_mvl/mxv
	.byte	W04
	.byte		        75*seq_025_mvl/mxv
	.byte	W05
	.byte		        74*seq_025_mvl/mxv
	.byte	W04
	.byte		        74*seq_025_mvl/mxv
	.byte	W05
	.byte		        73*seq_025_mvl/mxv
	.byte	W04
	.byte		        72*seq_025_mvl/mxv
	.byte	W05
	.byte		        72*seq_025_mvl/mxv
	.byte	W04
	.byte		        71*seq_025_mvl/mxv
	.byte	W05
	.byte		        69*seq_025_mvl/mxv
	.byte	W04
	.byte		        67*seq_025_mvl/mxv
	.byte	W05
	.byte		        64*seq_025_mvl/mxv
	.byte	W04
	.byte		        63*seq_025_mvl/mxv
	.byte	W05
	.byte		        60*seq_025_mvl/mxv
	.byte	W04
	.byte		        58*seq_025_mvl/mxv
	.byte	W05
	.byte		        56*seq_025_mvl/mxv
	.byte	W04
	.byte		        54*seq_025_mvl/mxv
	.byte	W05
	.byte		        52*seq_025_mvl/mxv
	.byte	W03
	.byte	PEND
	.byte	W01
	.byte		VOL   , 50*seq_025_mvl/mxv
	.byte	W05
	.byte		        48*seq_025_mvl/mxv
	.byte	W04
	.byte		        46*seq_025_mvl/mxv
	.byte	W05
	.byte		        44*seq_025_mvl/mxv
	.byte	W04
	.byte		        42*seq_025_mvl/mxv
	.byte	W05
	.byte		        39*seq_025_mvl/mxv
	.byte	W04
	.byte		        34*seq_025_mvl/mxv
	.byte	W05
	.byte		        27*seq_025_mvl/mxv
	.byte	W04
	.byte		        22*seq_025_mvl/mxv
	.byte	W05
	.byte		        15*seq_025_mvl/mxv
	.byte	W06
	.byte	PEND
	.byte		EOT   , Cn2 
	.byte	W23
	.byte		VOL   , 73*seq_025_mvl/mxv
	.byte	W01
	.byte		N24   , Gn1 , v127
	.byte	W24
	.byte	PATT
	 .word	seq_025_4 + 0x22
	.byte	PATT
	 .word	seq_025_4 + 0x2A
	.byte	PATT
	 .word	seq_025_4 + 0x31
	.byte	PATT
	 .word	seq_025_4 + 0x5F
	.byte		EOT   , Cn2 
	.byte	W23
	.byte		VOL   , 73*seq_025_mvl/mxv
	.byte	W01
	.byte		N24   , Gn1 , v127
	.byte	W23
	.byte		VOICE , 24
	.byte		MOD   , 80
	.byte		VOL   , 43*seq_025_mvl/mxv
	.byte		PAN   , c_v+0
	.byte	W01
	.byte		N96   , Ds4 , v052
	.byte	W04
	.byte		VOL   , 50*seq_025_mvl/mxv
	.byte	W03
	.byte		        53*seq_025_mvl/mxv
	.byte	W02
	.byte		        56*seq_025_mvl/mxv
	.byte	W02
	.byte		        58*seq_025_mvl/mxv
	.byte	W02
	.byte		        60*seq_025_mvl/mxv
	.byte	W02
	.byte		        66*seq_025_mvl/mxv
	.byte	W02
	.byte		        72*seq_025_mvl/mxv
	.byte	W78
	.byte		        43*seq_025_mvl/mxv
	.byte	W01
	.byte	PEND
	.byte		N48   , Dn4 , v052
	.byte	W04
	.byte		VOL   , 50*seq_025_mvl/mxv
	.byte	W03
	.byte		        53*seq_025_mvl/mxv
	.byte	W02
	.byte		        56*seq_025_mvl/mxv
	.byte	W02
	.byte		        58*seq_025_mvl/mxv
	.byte	W02
	.byte		        60*seq_025_mvl/mxv
	.byte	W02
	.byte		        66*seq_025_mvl/mxv
	.byte	W02
	.byte		        72*seq_025_mvl/mxv
	.byte	W30
	.byte	W01
	.byte		N48   , Fn4 
	.byte	W44
	.byte	W03
	.byte		VOL   , 43*seq_025_mvl/mxv
	.byte	W01
	.byte	PEND
	.byte		N48   , Gn4 , v052
	.byte	W04
	.byte		VOL   , 50*seq_025_mvl/mxv
	.byte	W03
	.byte		        53*seq_025_mvl/mxv
	.byte	W02
	.byte		        56*seq_025_mvl/mxv
	.byte	W02
	.byte		        58*seq_025_mvl/mxv
	.byte	W02
	.byte		        60*seq_025_mvl/mxv
	.byte	W02
	.byte		        66*seq_025_mvl/mxv
	.byte	W02
	.byte		        72*seq_025_mvl/mxv
	.byte	W30
	.byte	W01
	.byte		N48   , As4 , v060
	.byte	W48
	.byte	PEND
	.byte		        An4 , v052
	.byte	W48
	.byte		        Fn4 , v032
	.byte	W44
	.byte	W03
	.byte		VOL   , 43*seq_025_mvl/mxv
	.byte	W01
	.byte	PATT
	 .word	seq_025_4 + 0xA7
	.byte	PATT
	 .word	seq_025_4 + 0xBD
	.byte		N48   , Gn4 , v052
	.byte	W04
	.byte		VOL   , 50*seq_025_mvl/mxv
	.byte	W03
	.byte		        53*seq_025_mvl/mxv
	.byte	W02
	.byte		        56*seq_025_mvl/mxv
	.byte	W02
	.byte		        58*seq_025_mvl/mxv
	.byte	W02
	.byte		        60*seq_025_mvl/mxv
	.byte	W02
	.byte		        66*seq_025_mvl/mxv
	.byte	W02
	.byte		        72*seq_025_mvl/mxv
	.byte	W30
	.byte	W01
	.byte		N48   , As4 
	.byte	W48
	.byte		        An4 
	.byte	W92
	.byte	W03
	.byte		VOICE , 24
	.byte		MOD   , 30
	.byte		VOL   , 40*seq_025_mvl/mxv
	.byte		PAN   , c_v-10
	.byte	W01
	.byte		N48   , Fn4 , v112
	.byte	W48
	.byte		        Gn4 
	.byte	W48
	.byte	PEND
	.byte		N48   , As4 , v112
	.byte	W48
	.byte		        Cn5 
	.byte	W48
	.byte	PEND
	.byte	PATT
	 .word	seq_025_4 + 0x129
	.byte	PATT
	 .word	seq_025_4 + 0x130
	.byte	PATT
	 .word	seq_025_4 + 0x129
	.byte	PATT
	 .word	seq_025_4 + 0x130
	.byte	PATT
	 .word	seq_025_4 + 0x129
	.byte		N48   , As4 , v112
	.byte	W48
	.byte		        Cn5 
	.byte	W44
	.byte	W03
	.byte		VOICE , 94
	.byte		VOL   , 60*seq_025_mvl/mxv
	.byte		PAN   , c_v-30
	.byte	W01
	.byte		N96   , Gn2 
	.byte	W96
	.byte		        An2 
	.byte	W96
	.byte		N48   , As2 , v112
	.byte	W48
	.byte		        Gn2 
	.byte	W48
	.byte	PEND
	.byte		N48   , Cn3 , v112
	.byte	W48
	.byte		        An2 
	.byte	W48
	.byte	PEND
	.byte		N96   , Gn2 
	.byte	W96
	.byte		        An2 
	.byte	W96
	.byte	PATT
	 .word	seq_025_4 + 0x163
	.byte	PATT
	 .word	seq_025_4 + 0x16A
	.byte		N96   , Gn2 , v112
	.byte	W96
	.byte		        An2 
	.byte	W96
	.byte	PATT
	 .word	seq_025_4 + 0x163
	.byte	PATT
	 .word	seq_025_4 + 0x16A
	.byte		N96   , Gn2 , v112
	.byte	W96
	.byte		        An2 
	.byte	W92
	.byte	W03
	.byte		VOICE , 95
	.byte	W01
	.byte	PATT
	 .word	seq_025_4 + 0x22
	.byte	PATT
	 .word	seq_025_4 + 0x2A
	.byte	PATT
	 .word	seq_025_4 + 0x31
	.byte	PATT
	 .word	seq_025_4 + 0x5F
	.byte		EOT   , Cn2 
	.byte	W23
	.byte		VOL   , 73*seq_025_mvl/mxv
	.byte	W01
	.byte		N24   , Gn1 , v127
	.byte	W24
	.byte	PATT
	 .word	seq_025_4 + 0x22
	.byte	PATT
	 .word	seq_025_4 + 0x2A
	.byte	PATT
	 .word	seq_025_4 + 0x31
	.byte	PATT
	 .word	seq_025_4 + 0x5F
	.byte		EOT   , Cn2 
	.byte	W23
	.byte		VOL   , 73*seq_025_mvl/mxv
	.byte	W01
	.byte		N24   , Gn1 , v127
	.byte	W23
	.byte		VOICE , 24
	.byte		MOD   , 80
	.byte		VOL   , 43*seq_025_mvl/mxv
	.byte		PAN   , c_v+0
	.byte	W01
	.byte	PATT
	 .word	seq_025_4 + 0xA7
	.byte	PATT
	 .word	seq_025_4 + 0xBD
	.byte	PATT
	 .word	seq_025_4 + 0xD9
	.byte		N48   , An4 , v052
	.byte	W48
	.byte		        Fn4 , v032
	.byte	W48
	.byte	GOTO
	 .word	seq_025_4 + 0xFC
	.byte	FINE

@*********************** Track 06 ***********************@

seq_025_5:
	.byte	KEYSH , seq_025_key+0
	.byte	W10
	.byte		VOICE , 95
	.byte		MOD   , 30
	.byte		MODT  , mod_pan
	.byte	W01
	.byte		VOL   , 73*seq_025_mvl/mxv
	.byte		PAN   , c_v+30
	.byte	W13
	.byte	W48
	.byte	W96
	.byte	W96
	.byte	W96
	.byte	W96
	.byte	W96
	.byte	W96
	.byte	W96
	.byte	W96
	.byte		N72   , Gn1 , v127
	.byte	W72
	.byte		N24   , Dn2 
	.byte	W24
	.byte	PEND
	.byte		N48   , Cn2 , v127
	.byte	W48
	.byte		        An1 
	.byte	W48
	.byte	PEND
	.byte		TIE   , Gn1 , v127
	.byte	W07
	.byte		VOL   , 76*seq_025_mvl/mxv
	.byte	W05
	.byte		        76*seq_025_mvl/mxv
	.byte	W04
	.byte		        76*seq_025_mvl/mxv
	.byte	W05
	.byte		        76*seq_025_mvl/mxv
	.byte	W04
	.byte		        75*seq_025_mvl/mxv
	.byte	W05
	.byte		        74*seq_025_mvl/mxv
	.byte	W04
	.byte		        74*seq_025_mvl/mxv
	.byte	W05
	.byte		        73*seq_025_mvl/mxv
	.byte	W04
	.byte		        72*seq_025_mvl/mxv
	.byte	W05
	.byte		        72*seq_025_mvl/mxv
	.byte	W04
	.byte		        71*seq_025_mvl/mxv
	.byte	W05
	.byte		        69*seq_025_mvl/mxv
	.byte	W04
	.byte		        67*seq_025_mvl/mxv
	.byte	W05
	.byte		        64*seq_025_mvl/mxv
	.byte	W04
	.byte		        63*seq_025_mvl/mxv
	.byte	W05
	.byte		        60*seq_025_mvl/mxv
	.byte	W04
	.byte		        58*seq_025_mvl/mxv
	.byte	W05
	.byte		        56*seq_025_mvl/mxv
	.byte	W04
	.byte		        54*seq_025_mvl/mxv
	.byte	W05
	.byte		        52*seq_025_mvl/mxv
	.byte	W03
	.byte	PEND
	.byte	W01
	.byte		VOL   , 50*seq_025_mvl/mxv
	.byte	W05
	.byte		        48*seq_025_mvl/mxv
	.byte	W04
	.byte		        46*seq_025_mvl/mxv
	.byte	W05
	.byte		        44*seq_025_mvl/mxv
	.byte	W04
	.byte		        42*seq_025_mvl/mxv
	.byte	W05
	.byte		        39*seq_025_mvl/mxv
	.byte	W04
	.byte		        34*seq_025_mvl/mxv
	.byte	W05
	.byte		        27*seq_025_mvl/mxv
	.byte	W04
	.byte		        22*seq_025_mvl/mxv
	.byte	W05
	.byte		        15*seq_025_mvl/mxv
	.byte	W06
	.byte	PEND
	.byte		EOT   , Gn1 
	.byte	W23
	.byte		VOL   , 73*seq_025_mvl/mxv
	.byte	W01
	.byte		N24   , Dn1 , v127
	.byte	W24
	.byte	PATT
	 .word	seq_025_5 + 0x18
	.byte	PATT
	 .word	seq_025_5 + 0x20
	.byte	PATT
	 .word	seq_025_5 + 0x27
	.byte	PATT
	 .word	seq_025_5 + 0x55
	.byte		EOT   , Gn1 
	.byte	W23
	.byte		VOL   , 73*seq_025_mvl/mxv
	.byte	W24
	.byte	W01
	.byte	W96
	.byte	W96
	.byte	W96
	.byte	W96
	.byte	W96
	.byte	W96
	.byte	W96
	.byte	W92
	.byte	W03
	.byte		VOICE , 24
	.byte		VOL   , 40*seq_025_mvl/mxv
	.byte		PAN   , c_v+10
	.byte	W01
	.byte		N48   , Cn4 , v112
	.byte	W48
	.byte		        Dn4 
	.byte	W48
	.byte	PEND
	.byte		N48   , Fn4 , v112
	.byte	W48
	.byte		        Gn4 
	.byte	W48
	.byte	PEND
	.byte	PATT
	 .word	seq_025_5 + 0xA1
	.byte	PATT
	 .word	seq_025_5 + 0xA8
	.byte	PATT
	 .word	seq_025_5 + 0xA1
	.byte	PATT
	 .word	seq_025_5 + 0xA8
	.byte	PATT
	 .word	seq_025_5 + 0xA1
	.byte		N48   , Fn4 , v112
	.byte	W48
	.byte		        Gn4 
	.byte	W44
	.byte	W03
	.byte		VOICE , 94
	.byte		VOL   , 60*seq_025_mvl/mxv
	.byte		PAN   , c_v+30
	.byte	W01
	.byte		N96   , Ds2 
	.byte	W96
	.byte		N48   , Dn2 , v112
	.byte	W48
	.byte		        Fn2 
	.byte	W48
	.byte	PEND
	.byte		N48   , Gn2 , v112
	.byte	W48
	.byte		        Ds2 
	.byte	W48
	.byte	PEND
	.byte		N48   , An2 , v112
	.byte	W48
	.byte		        Fn2 
	.byte	W48
	.byte	PEND
	.byte		N96   , Ds2 
	.byte	W96
	.byte	PATT
	 .word	seq_025_5 + 0xD9
	.byte	PATT
	 .word	seq_025_5 + 0xE0
	.byte	PATT
	 .word	seq_025_5 + 0xE7
	.byte		N96   , Ds2 , v112
	.byte	W96
	.byte	PATT
	 .word	seq_025_5 + 0xD9
	.byte	PATT
	 .word	seq_025_5 + 0xE0
	.byte	PATT
	 .word	seq_025_5 + 0xE7
	.byte		N96   , Ds2 , v112
	.byte	W96
	.byte		N48   , Dn2 
	.byte	W48
	.byte		        Fn2 
	.byte	W44
	.byte	W03
	.byte		VOICE , 95
	.byte	W01
	.byte	PATT
	 .word	seq_025_5 + 0x18
	.byte	PATT
	 .word	seq_025_5 + 0x20
	.byte	PATT
	 .word	seq_025_5 + 0x27
	.byte	PATT
	 .word	seq_025_5 + 0x55
	.byte		EOT   , Gn1 
	.byte	W23
	.byte		VOL   , 73*seq_025_mvl/mxv
	.byte	W01
	.byte		N24   , Dn1 , v127
	.byte	W24
	.byte	PATT
	 .word	seq_025_5 + 0x18
	.byte	PATT
	 .word	seq_025_5 + 0x20
	.byte	PATT
	 .word	seq_025_5 + 0x27
	.byte	PATT
	 .word	seq_025_5 + 0x55
	.byte		EOT   , Gn1 
	.byte	W23
	.byte		VOL   , 73*seq_025_mvl/mxv
	.byte	W24
	.byte	W01
	.byte	W96
	.byte	W96
	.byte	W96
	.byte	W96
	.byte	GOTO
	 .word	seq_025_5 + 0x95
	.byte	FINE

@*********************** Track 07 ***********************@

seq_025_6:
	.byte	KEYSH , seq_025_key+0
	.byte	W12
	.byte		VOICE , 120
	.byte		VOL   , 85*seq_025_mvl/mxv
	.byte		PAN   , c_v+0
	.byte	W12
	.byte		N12   , Gn1 , v112
	.byte	W24
	.byte		N12
	.byte	W16
	.byte		N04   , Gn1 , v040
	.byte	W04
	.byte		        Gn1 , v080
	.byte	W04
	.byte		N16   , Cn2 , v120
	.byte	W16
	.byte		N08
	.byte	W32
	.byte		N08
	.byte	W24
	.byte		N08
	.byte	W24
	.byte	PEND
	.byte		N16   , Dn2 , v120
	.byte	W16
	.byte		N08
	.byte	W32
	.byte		N08
	.byte	W24
	.byte		N08
	.byte	W24
	.byte	PEND
	.byte		N16   , Ds2 , v120
	.byte	W16
	.byte		N08
	.byte	W32
	.byte		N08
	.byte	W24
	.byte		N08
	.byte	W24
	.byte	PEND
	.byte		N16   , Fn2 , v120
	.byte	W16
	.byte		N08
	.byte	W32
	.byte		        Gn1 
	.byte	W24
	.byte		N08
	.byte	W24
	.byte	PEND
	.byte	PATT
	 .word	seq_025_6 + 0x17
	.byte	PATT
	 .word	seq_025_6 + 0x22
	.byte	PATT
	 .word	seq_025_6 + 0x2D
	.byte	PATT
	 .word	seq_025_6 + 0x38
	.byte		N16   , Cn2 , v120
	.byte	W16
	.byte		N08
	.byte	W56
	.byte		N08
	.byte	W24
	.byte	PEND
	.byte		N16   , As1 , v120
	.byte	W16
	.byte		N08
	.byte	W56
	.byte		N08
	.byte	W24
	.byte	PEND
	.byte		N16   , An1 , v120
	.byte	W16
	.byte		N08
	.byte	W56
	.byte		N08
	.byte	W24
	.byte	PEND
	.byte		N16   , As1 , v120
	.byte	W16
	.byte		N08
	.byte	W24
	.byte		        Fn1 
	.byte	W08
	.byte		        Gn1 
	.byte	W24
	.byte		        As1 
	.byte	W24
	.byte	PEND
	.byte	PATT
	 .word	seq_025_6 + 0x57
	.byte	PATT
	 .word	seq_025_6 + 0x60
	.byte	PATT
	 .word	seq_025_6 + 0x69
	.byte	PATT
	 .word	seq_025_6 + 0x72
	.byte		N16   , Gs1 , v120
	.byte	W16
	.byte		N08
	.byte	W32
	.byte		N08
	.byte	W24
	.byte		N08
	.byte	W24
	.byte	PEND
	.byte		N16   , As1 , v120
	.byte	W16
	.byte		N08
	.byte	W32
	.byte		N08
	.byte	W24
	.byte		N08
	.byte	W24
	.byte	PEND
	.byte		N16   , Cn2 , v120
	.byte	W16
	.byte		N08
	.byte	W32
	.byte		N08
	.byte	W24
	.byte		        Gn1 
	.byte	W24
	.byte	PEND
	.byte		N16   , Cn2 , v120
	.byte	W16
	.byte		N08
	.byte	W32
	.byte		N08
	.byte	W24
	.byte		        As1 
	.byte	W24
	.byte	PEND
	.byte	PATT
	 .word	seq_025_6 + 0x93
	.byte	PATT
	 .word	seq_025_6 + 0x9E
	.byte	PATT
	 .word	seq_025_6 + 0xA9
	.byte	PATT
	 .word	seq_025_6 + 0xB4
	.byte		N16   , Gs1 , v120
	.byte	W16
	.byte		N08
	.byte	W80
	.byte	PEND
	.byte		N16   , As1 , v120
	.byte	W16
	.byte		N08
	.byte	W80
	.byte	PEND
	.byte		N16   , Cn2 , v120
	.byte	W16
	.byte		N08
	.byte	W80
	.byte	PEND
	.byte	PATT
	 .word	seq_025_6 + 0xDA
	.byte	PATT
	 .word	seq_025_6 + 0xD3
	.byte	PATT
	 .word	seq_025_6 + 0xDA
	.byte	PATT
	 .word	seq_025_6 + 0xE1
	.byte	PATT
	 .word	seq_025_6 + 0xDA
	.byte	PATT
	 .word	seq_025_6 + 0x93
	.byte	PATT
	 .word	seq_025_6 + 0x9E
	.byte	PATT
	 .word	seq_025_6 + 0x17
	.byte	PATT
	 .word	seq_025_6 + 0x9E
	.byte	PATT
	 .word	seq_025_6 + 0x93
	.byte	PATT
	 .word	seq_025_6 + 0x9E
	.byte	PATT
	 .word	seq_025_6 + 0x17
	.byte	PATT
	 .word	seq_025_6 + 0x9E
	.byte	PATT
	 .word	seq_025_6 + 0xD3
	.byte	PATT
	 .word	seq_025_6 + 0xDA
	.byte	PATT
	 .word	seq_025_6 + 0xE1
	.byte	PATT
	 .word	seq_025_6 + 0xDA
	.byte	PATT
	 .word	seq_025_6 + 0xD3
	.byte	PATT
	 .word	seq_025_6 + 0xDA
	.byte	PATT
	 .word	seq_025_6 + 0x57
	.byte	PATT
	 .word	seq_025_6 + 0x60
	.byte	PATT
	 .word	seq_025_6 + 0x69
	.byte	PATT
	 .word	seq_025_6 + 0x72
	.byte	PATT
	 .word	seq_025_6 + 0x57
	.byte	PATT
	 .word	seq_025_6 + 0x60
	.byte	PATT
	 .word	seq_025_6 + 0x69
	.byte	PATT
	 .word	seq_025_6 + 0x72
	.byte	PATT
	 .word	seq_025_6 + 0x93
	.byte	PATT
	 .word	seq_025_6 + 0x9E
	.byte	PATT
	 .word	seq_025_6 + 0xA9
	.byte	PATT
	 .word	seq_025_6 + 0xB4
	.byte	GOTO
	 .word	seq_025_6 + 0xBF
	.byte	FINE

@*********************** Track 08 ***********************@

seq_025_7:
	.byte	KEYSH , seq_025_key+0
	.byte	W13
	.byte		VOICE , 127
	.byte		VOL   , 85*seq_025_mvl/mxv
	.byte		PAN   , c_v+0
	.byte	W11
	.byte	W40
	.byte		N02   , An1 , v032
	.byte	W02
	.byte		        An1 , v008
	.byte	W02
	.byte		        An1 , v028
	.byte	W02
	.byte		        An1 , v048
	.byte	W02
	.byte		N02   , An1 , v100
	.byte	W16
	.byte		N02
	.byte	W08
	.byte		N08   , An4 , v080
	.byte	W08
	.byte		N02   , An1 , v032
	.byte	W02
	.byte		        An1 , v008
	.byte	W02
	.byte		        An1 , v028
	.byte	W04
	.byte		        An1 , v100
	.byte	W08
	.byte		N02
	.byte	W16
	.byte		        An1 , v032
	.byte	W02
	.byte		        An1 , v008
	.byte	W02
	.byte		        An1 , v028
	.byte	W02
	.byte		        An1 , v048
	.byte	W02
	.byte		N08   , Gs4 , v100
	.byte	W16
	.byte		N02   , An1 
	.byte	W08
	.byte	PEND
	.byte	PATT
	 .word	seq_025_7 + 0x18
	.byte	PATT
	 .word	seq_025_7 + 0x18
	.byte	PATT
	 .word	seq_025_7 + 0x18
	.byte	PATT
	 .word	seq_025_7 + 0x18
	.byte	PATT
	 .word	seq_025_7 + 0x18
	.byte	PATT
	 .word	seq_025_7 + 0x18
	.byte		N02   , An1 , v100
	.byte	W16
	.byte		N02
	.byte	W08
	.byte		N08   , An4 , v080
	.byte	W08
	.byte		N02   , An1 , v032
	.byte	W02
	.byte		        An1 , v008
	.byte	W02
	.byte		        An1 , v028
	.byte	W04
	.byte		        An1 , v100
	.byte	W08
	.byte		N05   , Gn1 
	.byte	W24
	.byte		N05
	.byte	W24
	.byte	W24
	.byte		N08   , An4 , v080
	.byte	W24
	.byte		        Gn1 
	.byte	W24
	.byte		        An4 
	.byte	W24
	.byte	PEND
	.byte	PATT
	 .word	seq_025_7 + 0x7F
	.byte	PATT
	 .word	seq_025_7 + 0x7F
	.byte	W24
	.byte		N08   , An4 , v080
	.byte	W24
	.byte		        Gn1 
	.byte	W24
	.byte		N08
	.byte	W24
	.byte	PEND
	.byte	PATT
	 .word	seq_025_7 + 0x7F
	.byte	PATT
	 .word	seq_025_7 + 0x7F
	.byte	PATT
	 .word	seq_025_7 + 0x7F
	.byte	W40
	.byte		N02   , An1 , v032
	.byte	W02
	.byte		        An1 , v008
	.byte	W02
	.byte		        An1 , v028
	.byte	W02
	.byte		        An1 , v048
	.byte	W02
	.byte		N04   , Gn1 , v080
	.byte	W24
	.byte		N04
	.byte	W16
	.byte		N02   , An1 , v032
	.byte	W02
	.byte		        An1 , v008
	.byte	W02
	.byte		        An1 , v028
	.byte	W02
	.byte		        An1 , v048
	.byte	W02
	.byte	PEND
	.byte		N02   , An1 , v100
	.byte	W16
	.byte		N02
	.byte	W08
	.byte		N08   , An4 , v080
	.byte	W08
	.byte		N02   , An1 , v032
	.byte	W02
	.byte		        An1 , v008
	.byte	W02
	.byte		        An1 , v028
	.byte	W04
	.byte		        An1 , v100
	.byte	W08
	.byte		N02
	.byte	W16
	.byte		        An1 , v032
	.byte	W02
	.byte		        An1 , v008
	.byte	W02
	.byte		        An1 , v028
	.byte	W02
	.byte		        An1 , v048
	.byte	W18
	.byte		        An1 , v100
	.byte	W08
	.byte	PEND
	.byte	PATT
	 .word	seq_025_7 + 0xCE
	.byte	PATT
	 .word	seq_025_7 + 0xCE
	.byte	PATT
	 .word	seq_025_7 + 0xCE
	.byte		N02   , An1 , v100
	.byte	W16
	.byte		N02
	.byte	W08
	.byte		N08   , An4 , v080
	.byte	W08
	.byte		N02   , An1 , v032
	.byte	W02
	.byte		        An1 , v008
	.byte	W02
	.byte		        An1 , v028
	.byte	W04
	.byte		        An1 , v100
	.byte	W08
	.byte		N02
	.byte	W16
	.byte		        An1 , v032
	.byte	W02
	.byte		        An1 , v008
	.byte	W02
	.byte		        An1 , v028
	.byte	W02
	.byte		        An1 , v048
	.byte	W02
	.byte		N08   , Fs2 , v100
	.byte	W16
	.byte		N02   , An1 
	.byte	W08
	.byte	PEND
	.byte	PATT
	 .word	seq_025_7 + 0x106
	.byte	PATT
	 .word	seq_025_7 + 0x106
	.byte	PATT
	 .word	seq_025_7 + 0x106
	.byte	W24
	.byte		N08   , An4 , v080
	.byte	W24
	.byte		        Fs2 , v100
	.byte	W48
	.byte	PEND
	.byte	PATT
	 .word	seq_025_7 + 0x142
	.byte	PATT
	 .word	seq_025_7 + 0x142
	.byte	PATT
	 .word	seq_025_7 + 0x142
	.byte	PATT
	 .word	seq_025_7 + 0x142
	.byte	PATT
	 .word	seq_025_7 + 0x142
	.byte	PATT
	 .word	seq_025_7 + 0x142
	.byte	W48
	.byte		N04   , Gn1 , v080
	.byte	W24
	.byte		N04
	.byte	W24
	.byte	W24
	.byte		N08   , Fs2 , v100
	.byte	W08
	.byte		N02   , An1 , v032
	.byte	W02
	.byte		        An1 , v008
	.byte	W02
	.byte		        An1 , v028
	.byte	W04
	.byte		        An1 , v100
	.byte	W24
	.byte		N02
	.byte	W24
	.byte		N02
	.byte	W08
	.byte	PEND
	.byte	PATT
	 .word	seq_025_7 + 0x170
	.byte	PATT
	 .word	seq_025_7 + 0x170
	.byte	PATT
	 .word	seq_025_7 + 0x170
	.byte	PATT
	 .word	seq_025_7 + 0x170
	.byte	PATT
	 .word	seq_025_7 + 0x170
	.byte	PATT
	 .word	seq_025_7 + 0x170
	.byte	PATT
	 .word	seq_025_7 + 0x170
	.byte	W96
	.byte	W96
	.byte	W96
	.byte	W96
	.byte	W96
	.byte	W24
	.byte		N04   , Gn1 , v080
	.byte	W16
	.byte		N04
	.byte	W08
	.byte		        Fs2 
	.byte	W24
	.byte		N04
	.byte	W24
	.byte	PATT
	 .word	seq_025_7 + 0x7F
	.byte	PATT
	 .word	seq_025_7 + 0x7F
	.byte	PATT
	 .word	seq_025_7 + 0x7F
	.byte	PATT
	 .word	seq_025_7 + 0x93
	.byte	PATT
	 .word	seq_025_7 + 0x7F
	.byte	PATT
	 .word	seq_025_7 + 0x7F
	.byte	PATT
	 .word	seq_025_7 + 0x7F
	.byte	PATT
	 .word	seq_025_7 + 0xAC
	.byte	PATT
	 .word	seq_025_7 + 0xCE
	.byte	PATT
	 .word	seq_025_7 + 0xCE
	.byte	PATT
	 .word	seq_025_7 + 0xCE
	.byte	PATT
	 .word	seq_025_7 + 0xCE
	.byte	GOTO
	 .word	seq_025_7 + 0x106
	.byte	FINE

@*********************** Track 09 ***********************@

seq_025_8:
	.byte	KEYSH , seq_025_key+0
	.byte	W14
	.byte		VOICE , 38
	.byte		VOL   , 85*seq_025_mvl/mxv
	.byte		PAN   , c_v+0
	.byte	W10
	.byte	W48
	.byte		N15   , Cn2 , v112
	.byte	W16
	.byte		N07
	.byte	W24
	.byte		N08   , Gn1 , v072
	.byte	W08
	.byte		        Cn2 , v112
	.byte	W16
	.byte		        Gn1 , v072
	.byte	W08
	.byte		        Cn2 , v112
	.byte	W08
	.byte		        Gn1 , v072
	.byte	W08
	.byte		        Cn2 , v112
	.byte	W08
	.byte	PEND
	.byte		N15   , Dn2 , v112
	.byte	W16
	.byte		N07
	.byte	W24
	.byte		N08   , Gn1 , v072
	.byte	W08
	.byte		        Dn2 , v112
	.byte	W16
	.byte		        Gn1 , v072
	.byte	W08
	.byte		        Dn2 , v112
	.byte	W08
	.byte		        Gn1 , v072
	.byte	W08
	.byte		        Dn2 , v112
	.byte	W08
	.byte	PEND
	.byte		N15   , Ds2 , v112
	.byte	W16
	.byte		N07
	.byte	W24
	.byte		N08   , Gn1 , v072
	.byte	W08
	.byte		        Ds2 , v112
	.byte	W16
	.byte		        Gn1 , v072
	.byte	W08
	.byte		        Cn2 , v112
	.byte	W08
	.byte		        Ds2 
	.byte	W08
	.byte		        Gn2 
	.byte	W08
	.byte	PEND
	.byte		N15   , Fn2 , v112
	.byte	W16
	.byte		N07
	.byte	W24
	.byte		N08   , Fn1 , v072
	.byte	W08
	.byte		        Gn1 , v112
	.byte	W24
	.byte		N24
	.byte	W24
	.byte	PEND
	.byte	PATT
	 .word	seq_025_8 + 0xB
	.byte	PATT
	 .word	seq_025_8 + 0x25
	.byte	PATT
	 .word	seq_025_8 + 0x3F
	.byte	PATT
	 .word	seq_025_8 + 0x57
	.byte		N48   , Cn2 , v112
	.byte	W48
	.byte		N08   , Cn2 , v032
	.byte	W08
	.byte		        Gn2 , v112
	.byte	W08
	.byte		        As1 , v072
	.byte	W08
	.byte		        Cn2 , v112
	.byte	W08
	.byte		        Fn1 , v032
	.byte	W08
	.byte		        Gn1 , v112
	.byte	W08
	.byte	PEND
	.byte		N48   , As1 , v112
	.byte	W48
	.byte		N08   , As1 , v032
	.byte	W08
	.byte		        Fn2 , v112
	.byte	W08
	.byte		        Gn1 , v072
	.byte	W08
	.byte		        As1 , v112
	.byte	W08
	.byte		        Fn1 , v032
	.byte	W08
	.byte		        Gn1 , v072
	.byte	W08
	.byte	PEND
	.byte		N48   , An1 , v112
	.byte	W48
	.byte		N08   , An1 , v032
	.byte	W08
	.byte		        Fn1 , v112
	.byte	W08
	.byte		        Gn1 , v072
	.byte	W08
	.byte		        An1 , v112
	.byte	W08
	.byte		        Fn1 , v032
	.byte	W08
	.byte		        An1 , v112
	.byte	W08
	.byte	PEND
	.byte		N48   , As1 , v112
	.byte	W48
	.byte		N08   , As1 , v032
	.byte	W08
	.byte		        Gn1 , v112
	.byte	W08
	.byte		        As1 , v072
	.byte	W08
	.byte		        Cn2 , v112
	.byte	W08
	.byte		        Fn2 , v032
	.byte	W08
	.byte		        Gn2 , v112
	.byte	W08
	.byte	PEND
	.byte	PATT
	 .word	seq_025_8 + 0x7B
	.byte	PATT
	 .word	seq_025_8 + 0x93
	.byte	PATT
	 .word	seq_025_8 + 0xAB
	.byte	PATT
	 .word	seq_025_8 + 0xC3
	.byte		N15   , Gs1 , v112
	.byte	W16
	.byte		N07
	.byte	W24
	.byte		N08   , Gn1 , v072
	.byte	W08
	.byte		        Gs1 , v112
	.byte	W16
	.byte		        Gn1 , v072
	.byte	W08
	.byte		        Gs1 , v112
	.byte	W08
	.byte		        Ds1 , v072
	.byte	W08
	.byte		        Gs1 , v112
	.byte	W08
	.byte	PEND
	.byte		N15   , As1 , v112
	.byte	W16
	.byte		N07
	.byte	W24
	.byte		N08   , Gn1 , v072
	.byte	W08
	.byte		        As1 , v112
	.byte	W08
	.byte		        Gn1 
	.byte	W08
	.byte		        An1 , v072
	.byte	W08
	.byte		        As1 , v112
	.byte	W16
	.byte		N08
	.byte	W08
	.byte	PEND
	.byte		N15   , Cn2 , v112
	.byte	W16
	.byte		N07
	.byte	W24
	.byte		N08   , Gn1 , v072
	.byte	W08
	.byte		        Cn2 , v112
	.byte	W16
	.byte		        Fn1 , v072
	.byte	W08
	.byte		        Gn1 , v112
	.byte	W16
	.byte		        As1 
	.byte	W08
	.byte	PEND
	.byte		N15   , Cn2 , v112
	.byte	W16
	.byte		N07
	.byte	W24
	.byte		N08   , Gn1 , v072
	.byte	W08
	.byte		        Cn2 , v112
	.byte	W16
	.byte		        Fn1 , v072
	.byte	W08
	.byte		N24   , As1 , v112
	.byte	W24
	.byte	PEND
	.byte	PATT
	 .word	seq_025_8 + 0xEF
	.byte	PATT
	 .word	seq_025_8 + 0x109
	.byte	PATT
	 .word	seq_025_8 + 0x121
	.byte	PATT
	 .word	seq_025_8 + 0x137
	.byte		N48   , Gs1 , v112
	.byte	W48
	.byte		N08   , Gs1 , v032
	.byte	W08
	.byte		        Fn1 , v112
	.byte	W08
	.byte		        Gn1 , v072
	.byte	W08
	.byte		        Gs1 , v112
	.byte	W08
	.byte		        Fn1 , v032
	.byte	W08
	.byte		        Gs1 , v112
	.byte	W08
	.byte	PEND
	.byte		N48   , As1 , v112
	.byte	W48
	.byte		N08   , As1 , v032
	.byte	W08
	.byte		        Gn1 , v112
	.byte	W08
	.byte		        Gs1 , v072
	.byte	W08
	.byte		        As1 , v112
	.byte	W08
	.byte		        Gn1 , v032
	.byte	W08
	.byte		        As1 , v072
	.byte	W08
	.byte	PEND
	.byte		N48   , Cn2 , v112
	.byte	W48
	.byte		N08   , Cn2 , v032
	.byte	W08
	.byte		        Gn1 , v112
	.byte	W08
	.byte		        As1 , v072
	.byte	W08
	.byte		        Cn2 , v112
	.byte	W08
	.byte		        Gn2 , v072
	.byte	W08
	.byte		        Cn2 , v112
	.byte	W08
	.byte	PEND
	.byte		N48   , As1 , v112
	.byte	W48
	.byte		N08   , As1 , v032
	.byte	W08
	.byte		        Gn2 , v112
	.byte	W08
	.byte		        Fn2 , v072
	.byte	W08
	.byte		        Ds2 , v112
	.byte	W08
	.byte		        Dn2 , v032
	.byte	W08
	.byte		        As1 , v112
	.byte	W08
	.byte	PEND
	.byte	PATT
	 .word	seq_025_8 + 0x160
	.byte	PATT
	 .word	seq_025_8 + 0x178
	.byte	PATT
	 .word	seq_025_8 + 0x190
	.byte	PATT
	 .word	seq_025_8 + 0x1A8
	.byte	PATT
	 .word	seq_025_8 + 0xEF
	.byte	PATT
	 .word	seq_025_8 + 0x109
	.byte		N15   , Cn2 , v112
	.byte	W16
	.byte		N07
	.byte	W24
	.byte		N08   , Gn1 , v072
	.byte	W08
	.byte		        Cn2 , v112
	.byte	W16
	.byte		        Fn1 , v072
	.byte	W08
	.byte		        Cn2 , v112
	.byte	W08
	.byte		        Fn1 , v072
	.byte	W08
	.byte		        Gn1 , v112
	.byte	W08
	.byte	PEND
	.byte		N15   , As1 , v112
	.byte	W16
	.byte		N07
	.byte	W24
	.byte		N08   , Gn1 , v072
	.byte	W08
	.byte		        As1 , v112
	.byte	W16
	.byte		        Fn1 , v072
	.byte	W08
	.byte		N24   , Gn1 , v112
	.byte	W24
	.byte	PEND
	.byte	PATT
	 .word	seq_025_8 + 0xEF
	.byte	PATT
	 .word	seq_025_8 + 0x109
	.byte	PATT
	 .word	seq_025_8 + 0x1DE
	.byte	PATT
	 .word	seq_025_8 + 0x1F8
	.byte	PATT
	 .word	seq_025_8 + 0x160
	.byte	PATT
	 .word	seq_025_8 + 0x178
	.byte	PATT
	 .word	seq_025_8 + 0x190
	.byte	PATT
	 .word	seq_025_8 + 0x1A8
	.byte	PATT
	 .word	seq_025_8 + 0x160
	.byte		N16   , As1 , v112
	.byte	W16
	.byte		N08   , As1 , v032
	.byte	W08
	.byte		        As1 , v112
	.byte	W08
	.byte		        Gn1 
	.byte	W08
	.byte		        Gs1 , v072
	.byte	W08
	.byte		        As1 , v112
	.byte	W24
	.byte		N24
	.byte	W24
	.byte	PATT
	 .word	seq_025_8 + 0x7B
	.byte	PATT
	 .word	seq_025_8 + 0x93
	.byte	PATT
	 .word	seq_025_8 + 0xAB
	.byte	PATT
	 .word	seq_025_8 + 0xC3
	.byte	PATT
	 .word	seq_025_8 + 0x7B
	.byte	PATT
	 .word	seq_025_8 + 0x93
	.byte	PATT
	 .word	seq_025_8 + 0xAB
	.byte	PATT
	 .word	seq_025_8 + 0xC3
	.byte	PATT
	 .word	seq_025_8 + 0xEF
	.byte	PATT
	 .word	seq_025_8 + 0x109
	.byte	PATT
	 .word	seq_025_8 + 0x121
	.byte	PATT
	 .word	seq_025_8 + 0x137
	.byte	GOTO
	 .word	seq_025_8 + 0x14C
	.byte	FINE

@*********************** Track 10 ***********************@

seq_025_9:
	.byte	KEYSH , seq_025_key+0
	.byte	W15
	.byte		VOICE , 52
	.byte		MOD   , 50
	.byte		MODT  , mod_pan
	.byte	W01
	.byte		VOL   , 60*seq_025_mvl/mxv
	.byte		PAN   , c_v+0
	.byte	W08
	.byte	W48
	.byte	W96
	.byte	W96
	.byte	W96
	.byte	W96
	.byte	W96
	.byte	W96
	.byte	W96
	.byte	W96
	.byte		N04   , Fn3 , v100
	.byte	W04
	.byte		        Fn3 , v040
	.byte	W04
	.byte		        Gn3 , v076
	.byte	W04
	.byte		        Gn3 , v040
	.byte	W04
	.byte		        Cn4 , v100
	.byte	W04
	.byte		        Cn4 , v040
	.byte	W04
	.byte		        Fn3 , v100
	.byte	W04
	.byte		        Fn3 , v040
	.byte	W04
	.byte		        Gn3 , v076
	.byte	W04
	.byte		        Gn3 , v040
	.byte	W04
	.byte		        Cn4 , v100
	.byte	W04
	.byte		        Cn4 , v040
	.byte	W04
	.byte		        Fn3 , v100
	.byte	W04
	.byte		        Fn3 , v040
	.byte	W04
	.byte		        Gn3 , v076
	.byte	W04
	.byte		        Gn3 , v040
	.byte	W04
	.byte		        Cn4 , v100
	.byte	W04
	.byte		        Cn4 , v040
	.byte	W04
	.byte		        Fn3 , v100
	.byte	W04
	.byte		        Fn3 , v040
	.byte	W04
	.byte		        Gn3 , v076
	.byte	W04
	.byte		        Gn3 , v040
	.byte	W04
	.byte		        Cn4 , v100
	.byte	W04
	.byte		        Cn4 , v040
	.byte	W04
	.byte	PEND
	.byte	PATT
	 .word	seq_025_9 + 0x18
	.byte	PATT
	 .word	seq_025_9 + 0x18
	.byte		N04   , Fn3 , v100
	.byte	W04
	.byte		        Fn3 , v040
	.byte	W04
	.byte		        Gn3 , v076
	.byte	W04
	.byte		        Gn3 , v040
	.byte	W04
	.byte		        Cn4 , v100
	.byte	W04
	.byte		        Cn4 , v040
	.byte	W04
	.byte		        Fn3 , v100
	.byte	W04
	.byte		        Fn3 , v040
	.byte	W04
	.byte		        Gn3 , v076
	.byte	W04
	.byte		        Gn3 , v040
	.byte	W04
	.byte		        Cn4 , v100
	.byte	W04
	.byte		        Cn4 , v040
	.byte	W04
	.byte		        Fn3 , v100
	.byte	W04
	.byte		        Fn3 , v040
	.byte	W04
	.byte		        Gn3 , v076
	.byte	W04
	.byte		        Gn3 , v040
	.byte	W04
	.byte		        Cn4 , v100
	.byte	W04
	.byte		        Cn4 , v040
	.byte	W04
	.byte		        Dn4 , v100
	.byte	W04
	.byte		        Dn4 , v040
	.byte	W04
	.byte		        Fn4 , v076
	.byte	W04
	.byte		        Fn4 , v040
	.byte	W04
	.byte		        Gn4 , v100
	.byte	W04
	.byte		        Gn4 , v040
	.byte	W04
	.byte	PEND
	.byte	PATT
	 .word	seq_025_9 + 0x18
	.byte	PATT
	 .word	seq_025_9 + 0x18
	.byte	PATT
	 .word	seq_025_9 + 0x18
	.byte	PATT
	 .word	seq_025_9 + 0x6C
	.byte	PATT
	 .word	seq_025_9 + 0x6C
	.byte	PATT
	 .word	seq_025_9 + 0x6C
	.byte	PATT
	 .word	seq_025_9 + 0x6C
	.byte	PATT
	 .word	seq_025_9 + 0x6C
	.byte	PATT
	 .word	seq_025_9 + 0x6C
	.byte	PATT
	 .word	seq_025_9 + 0x6C
	.byte	PATT
	 .word	seq_025_9 + 0x6C
	.byte	PATT
	 .word	seq_025_9 + 0x6C
	.byte	W96
	.byte	W96
	.byte	W96
	.byte	W96
	.byte	W96
	.byte	W96
	.byte	W96
	.byte	W96
	.byte	PATT
	 .word	seq_025_9 + 0x18
	.byte	PATT
	 .word	seq_025_9 + 0x18
	.byte	PATT
	 .word	seq_025_9 + 0x18
	.byte	PATT
	 .word	seq_025_9 + 0x6C
	.byte	PATT
	 .word	seq_025_9 + 0x18
	.byte	PATT
	 .word	seq_025_9 + 0x18
	.byte	PATT
	 .word	seq_025_9 + 0x18
	.byte	PATT
	 .word	seq_025_9 + 0x6C
	.byte	W96
	.byte	W96
	.byte	W96
	.byte	W96
	.byte	W96
	.byte	W96
	.byte	PATT
	 .word	seq_025_9 + 0x18
	.byte	PATT
	 .word	seq_025_9 + 0x18
	.byte	PATT
	 .word	seq_025_9 + 0x18
	.byte	PATT
	 .word	seq_025_9 + 0x6C
	.byte	PATT
	 .word	seq_025_9 + 0x18
	.byte	PATT
	 .word	seq_025_9 + 0x18
	.byte	PATT
	 .word	seq_025_9 + 0x18
	.byte	PATT
	 .word	seq_025_9 + 0x6C
	.byte	PATT
	 .word	seq_025_9 + 0x6C
	.byte	PATT
	 .word	seq_025_9 + 0x6C
	.byte	PATT
	 .word	seq_025_9 + 0x6C
	.byte	PATT
	 .word	seq_025_9 + 0x6C
	.byte	GOTO
	 .word	seq_025_9 + 0xDE
	.byte	FINE

@*********************** Track 11 ***********************@

seq_025_10:
	.byte	KEYSH , seq_025_key+0
	.byte	W17
	.byte		VOICE , 53
	.byte		MOD   , 30
	.byte		MODT  , mod_pan
	.byte	W01
	.byte		VOL   , 60*seq_025_mvl/mxv
	.byte		PAN   , c_v+0
	.byte	W06
	.byte	W48
	.byte	W96
	.byte	W96
	.byte	W96
	.byte	W96
	.byte	W96
	.byte	W96
	.byte	W96
	.byte	W96
	.byte		N03   , Cn3 , v076
	.byte	W04
	.byte		N02   , Cn3 , v040
	.byte	W04
	.byte		N03   , Dn3 , v076
	.byte	W04
	.byte		N02   , Dn3 , v040
	.byte	W04
	.byte		N03   , Gn3 , v100
	.byte	W04
	.byte		N02   , Gn3 , v040
	.byte	W04
	.byte		N03   , Cn3 , v076
	.byte	W04
	.byte		N02   , Cn3 , v040
	.byte	W04
	.byte		N03   , Dn3 , v076
	.byte	W04
	.byte		N02   , Dn3 , v040
	.byte	W04
	.byte		N03   , Gn3 , v100
	.byte	W04
	.byte		N02   , Gn3 , v040
	.byte	W04
	.byte		N03   , Cn3 , v076
	.byte	W04
	.byte		N02   , Cn3 , v040
	.byte	W04
	.byte		N03   , Dn3 , v076
	.byte	W04
	.byte		N02   , Dn3 , v040
	.byte	W04
	.byte		N03   , Gn3 , v100
	.byte	W04
	.byte		N02   , Gn3 , v040
	.byte	W04
	.byte		N03   , Cn3 , v076
	.byte	W04
	.byte		N02   , Cn3 , v040
	.byte	W04
	.byte		N03   , Dn3 , v076
	.byte	W04
	.byte		N02   , Dn3 , v040
	.byte	W04
	.byte		N03   , Gn3 , v100
	.byte	W04
	.byte		N02   , Gn3 , v040
	.byte	W04
	.byte	PEND
	.byte	PATT
	 .word	seq_025_10 + 0x18
	.byte	PATT
	 .word	seq_025_10 + 0x18
	.byte		N03   , Cn3 , v076
	.byte	W04
	.byte		N02   , Cn3 , v040
	.byte	W04
	.byte		N03   , Dn3 , v076
	.byte	W04
	.byte		N02   , Dn3 , v040
	.byte	W04
	.byte		N03   , Gn3 , v100
	.byte	W04
	.byte		N02   , Gn3 , v040
	.byte	W04
	.byte		N03   , Cn3 , v076
	.byte	W04
	.byte		N02   , Cn3 , v040
	.byte	W04
	.byte		N03   , Dn3 , v076
	.byte	W04
	.byte		N02   , Dn3 , v040
	.byte	W04
	.byte		N03   , Gn3 , v100
	.byte	W04
	.byte		N02   , Gn3 , v040
	.byte	W04
	.byte		N03   , Cn3 , v076
	.byte	W04
	.byte		N02   , Cn3 , v040
	.byte	W04
	.byte		N03   , Dn3 , v076
	.byte	W04
	.byte		N02   , Dn3 , v040
	.byte	W04
	.byte		N03   , Gn3 , v100
	.byte	W04
	.byte		N02   , Gn3 , v040
	.byte	W04
	.byte		N03   , An3 , v076
	.byte	W04
	.byte		N02   , An3 , v040
	.byte	W04
	.byte		N03   , Cn4 , v076
	.byte	W04
	.byte		N02   , Cn4 , v040
	.byte	W04
	.byte		N03   , Dn4 , v100
	.byte	W04
	.byte		N02   , Dn4 , v040
	.byte	W04
	.byte	PEND
	.byte	PATT
	 .word	seq_025_10 + 0x18
	.byte	PATT
	 .word	seq_025_10 + 0x18
	.byte	PATT
	 .word	seq_025_10 + 0x18
	.byte	PATT
	 .word	seq_025_10 + 0x83
	.byte	PATT
	 .word	seq_025_10 + 0x83
	.byte	PATT
	 .word	seq_025_10 + 0x83
	.byte	PATT
	 .word	seq_025_10 + 0x83
	.byte	PATT
	 .word	seq_025_10 + 0x83
	.byte	PATT
	 .word	seq_025_10 + 0x83
	.byte	PATT
	 .word	seq_025_10 + 0x83
	.byte	PATT
	 .word	seq_025_10 + 0x83
	.byte	PATT
	 .word	seq_025_10 + 0x83
	.byte	W96
	.byte	W96
	.byte	W96
	.byte	W96
	.byte	W96
	.byte	W96
	.byte	W96
	.byte	W96
	.byte	PATT
	 .word	seq_025_10 + 0x18
	.byte	PATT
	 .word	seq_025_10 + 0x18
	.byte	PATT
	 .word	seq_025_10 + 0x18
	.byte	PATT
	 .word	seq_025_10 + 0x83
	.byte	PATT
	 .word	seq_025_10 + 0x18
	.byte	PATT
	 .word	seq_025_10 + 0x18
	.byte	PATT
	 .word	seq_025_10 + 0x18
	.byte	PATT
	 .word	seq_025_10 + 0x83
	.byte	W96
	.byte	W96
	.byte	W96
	.byte	W96
	.byte	W96
	.byte	W96
	.byte	PATT
	 .word	seq_025_10 + 0x18
	.byte	PATT
	 .word	seq_025_10 + 0x18
	.byte	PATT
	 .word	seq_025_10 + 0x18
	.byte	PATT
	 .word	seq_025_10 + 0x83
	.byte	PATT
	 .word	seq_025_10 + 0x18
	.byte	PATT
	 .word	seq_025_10 + 0x18
	.byte	PATT
	 .word	seq_025_10 + 0x18
	.byte	PATT
	 .word	seq_025_10 + 0x83
	.byte	PATT
	 .word	seq_025_10 + 0x83
	.byte	PATT
	 .word	seq_025_10 + 0x83
	.byte	PATT
	 .word	seq_025_10 + 0x83
	.byte	PATT
	 .word	seq_025_10 + 0x83
	.byte	GOTO
	 .word	seq_025_10 + 0x10C
	.byte	FINE

@*********************** Track 12 ***********************@

seq_025_11:
	.byte	KEYSH , seq_025_key+0
	.byte	W19
	.byte		VOICE , 127
	.byte		VOL   , 50*seq_025_mvl/mxv
	.byte		PAN   , c_v+0
	.byte	W05
	.byte		N04   , Fs1 , v112
	.byte	W08
	.byte		        Fs1 , v032
	.byte	W08
	.byte		        Fs1 , v072
	.byte	W08
	.byte		N24   , En2 
	.byte	W24
	.byte		N02   , Fs1 , v112
	.byte	W08
	.byte		        Fs1 , v032
	.byte	W08
	.byte		        Fs1 , v072
	.byte	W08
	.byte		        Fs1 , v112
	.byte	W08
	.byte		        Fs1 , v032
	.byte	W08
	.byte		        Fs1 , v072
	.byte	W08
	.byte		        Fs1 , v112
	.byte	W24
	.byte		N24   , En2 , v072
	.byte	W24
	.byte	PEND
	.byte	PATT
	 .word	seq_025_11 + 0x17
	.byte	PATT
	 .word	seq_025_11 + 0x17
	.byte	PATT
	 .word	seq_025_11 + 0x17
	.byte	PATT
	 .word	seq_025_11 + 0x17
	.byte	PATT
	 .word	seq_025_11 + 0x17
	.byte	PATT
	 .word	seq_025_11 + 0x17
	.byte		N02   , Fs1 , v112
	.byte	W08
	.byte		        Fs1 , v032
	.byte	W08
	.byte		        Fs1 , v072
	.byte	W08
	.byte		        Fs1 , v112
	.byte	W08
	.byte		        Fs1 , v032
	.byte	W08
	.byte		        Fs1 , v072
	.byte	W08
	.byte		N08   , Ds2 , v080
	.byte	W24
	.byte		N24   , En2 , v072
	.byte	W24
	.byte	PEND
	.byte	PATT
	 .word	seq_025_11 + 0x17
	.byte	PATT
	 .word	seq_025_11 + 0x17
	.byte	PATT
	 .word	seq_025_11 + 0x17
	.byte	PATT
	 .word	seq_025_11 + 0x50
	.byte	PATT
	 .word	seq_025_11 + 0x17
	.byte	PATT
	 .word	seq_025_11 + 0x17
	.byte	PATT
	 .word	seq_025_11 + 0x17
	.byte	PATT
	 .word	seq_025_11 + 0x50
	.byte		N02   , Fs1 , v112
	.byte	W08
	.byte		        Fs1 , v032
	.byte	W08
	.byte		        Fs1 , v072
	.byte	W08
	.byte		N24   , En2 
	.byte	W24
	.byte		N02   , Fs1 , v112
	.byte	W24
	.byte		N24   , En2 , v072
	.byte	W24
	.byte	PEND
	.byte	PATT
	 .word	seq_025_11 + 0x94
	.byte	PATT
	 .word	seq_025_11 + 0x94
	.byte	PATT
	 .word	seq_025_11 + 0x94
	.byte	PATT
	 .word	seq_025_11 + 0x94
	.byte	PATT
	 .word	seq_025_11 + 0x94
	.byte	PATT
	 .word	seq_025_11 + 0x94
	.byte		N02   , Fs1 , v112
	.byte	W08
	.byte		        Fs1 , v032
	.byte	W08
	.byte		        Fs1 , v072
	.byte	W08
	.byte		N16   , En2 
	.byte	W16
	.byte		N02   , Fs1 
	.byte	W08
	.byte		N08   , Ds2 , v092
	.byte	W24
	.byte		N24   , En2 , v072
	.byte	W24
	.byte	PATT
	 .word	seq_025_11 + 0x17
	.byte	PATT
	 .word	seq_025_11 + 0x17
	.byte	PATT
	 .word	seq_025_11 + 0x17
	.byte	PATT
	 .word	seq_025_11 + 0x17
	.byte	PATT
	 .word	seq_025_11 + 0x17
	.byte	PATT
	 .word	seq_025_11 + 0x17
	.byte	PATT
	 .word	seq_025_11 + 0x17
	.byte		N16   , Ds2 , v092
	.byte	W24
	.byte		N16
	.byte	W24
	.byte		N16
	.byte	W24
	.byte		N24   , En2 , v072
	.byte	W24
	.byte	PATT
	 .word	seq_025_11 + 0x94
	.byte	PATT
	 .word	seq_025_11 + 0x94
	.byte	PATT
	 .word	seq_025_11 + 0x94
	.byte	PATT
	 .word	seq_025_11 + 0x94
	.byte	PATT
	 .word	seq_025_11 + 0x94
	.byte	PATT
	 .word	seq_025_11 + 0x94
	.byte	PATT
	 .word	seq_025_11 + 0x94
	.byte	PATT
	 .word	seq_025_11 + 0x94
	.byte	PATT
	 .word	seq_025_11 + 0x17
	.byte	PATT
	 .word	seq_025_11 + 0x17
	.byte	PATT
	 .word	seq_025_11 + 0x17
	.byte	PATT
	 .word	seq_025_11 + 0x17
	.byte	PATT
	 .word	seq_025_11 + 0x17
	.byte	PATT
	 .word	seq_025_11 + 0x17
	.byte	PATT
	 .word	seq_025_11 + 0x17
	.byte	PATT
	 .word	seq_025_11 + 0x17
	.byte		N02   , Fs1 , v112
	.byte	W08
	.byte		        Fs1 , v032
	.byte	W08
	.byte		        Fs1 , v072
	.byte	W08
	.byte		        Fs1 , v112
	.byte	W08
	.byte		        Fs1 , v032
	.byte	W08
	.byte		        Fs1 , v072
	.byte	W08
	.byte		        Fs1 , v112
	.byte	W08
	.byte		        Fs1 , v032
	.byte	W08
	.byte		        Fs1 , v072
	.byte	W08
	.byte		N24   , En2 
	.byte	W24
	.byte	PEND
	.byte	PATT
	 .word	seq_025_11 + 0x15F
	.byte	PATT
	 .word	seq_025_11 + 0x17
	.byte	PATT
	 .word	seq_025_11 + 0x17
	.byte	PATT
	 .word	seq_025_11 + 0x17
	.byte	PATT
	 .word	seq_025_11 + 0x50
	.byte	PATT
	 .word	seq_025_11 + 0x94
	.byte	PATT
	 .word	seq_025_11 + 0x94
	.byte	PATT
	 .word	seq_025_11 + 0x94
	.byte	PATT
	 .word	seq_025_11 + 0x94
	.byte	GOTO
	 .word	seq_025_11 + 0xB9
	.byte	FINE

@******************************************************@

	.align	2

seq_025:
	.byte	12	@ NumTrks
	.byte	0	@ NumBlks
	.byte	seq_025_pri	@ Priority
	.byte	seq_025_rev	@ Reverb

	.word	seq_025_grp

	.word	seq_025_0
	.word	seq_025_1
	.word	seq_025_2
	.word	seq_025_3
	.word	seq_025_4
	.word	seq_025_5
	.word	seq_025_6
	.word	seq_025_7
	.word	seq_025_8
	.word	seq_025_9
	.word	seq_025_10
	.word	seq_025_11

	.end
