@ File generated by m4a2s Song-Module
	.include "MPlayDef.s"

	.equ	seq_753_grp, bank_026
	.equ	seq_753_pri, 127
	.equ	seq_753_rev, 0
	.equ	seq_753_mvl, 127
	.equ	seq_753_key, 0

	.section .rodata
	.global	seq_753
	.align	2

@*********************** Track 01 ***********************@

seq_753_0:
	.byte	KEYSH , seq_753_key+0
	.byte	TEMPO , 220/2
	.byte		VOICE , 39
	.byte		VOL   , 126*seq_753_mvl/mxv
	.byte		PAN   , c_v+0
	.byte		VOL   , 62*seq_753_mvl/mxv
	.byte	W01
	.byte		        88*seq_753_mvl/mxv
	.byte		BEND  , c_v+0
	.byte		N01   , Gn1 , v127
	.byte		N01   , Fn3 , v040
	.byte	W01
	.byte		VOL   , 98*seq_753_mvl/mxv
	.byte		N01   , Gs1 , v127
	.byte		N01   , Fs3 , v040
	.byte	W01
	.byte		VOL   , 107*seq_753_mvl/mxv
	.byte		N01   , An1 , v060
	.byte		N01   , Fs3 , v040
	.byte	W01
	.byte		VOL   , 114*seq_753_mvl/mxv
	.byte		N01   , As1 , v088
	.byte	W01
	.byte		VOL   , 120*seq_753_mvl/mxv
	.byte		N01   , Gs3 , v040
	.byte	W01
	.byte		VOL   , 126*seq_753_mvl/mxv
	.byte		N01   , Bn1 , v088
	.byte		N01   , An3 , v040
	.byte	W01
	.byte		BEND  , c_v-2
	.byte		N01   , As1 , v088
	.byte		N01   , Gn3 , v040
	.byte	W01
	.byte		VOL   , 127*seq_753_mvl/mxv
	.byte		BEND  , c_v-13
	.byte		N01   , As1 , v088
	.byte	W01
	.byte		VOL   , 115*seq_753_mvl/mxv
	.byte		BEND  , c_v-12
	.byte		N01   , Gs3 , v040
	.byte	W01
	.byte		VOL   , 110*seq_753_mvl/mxv
	.byte		BEND  , c_v-3
	.byte		N01   , As1 , v112
	.byte		N01   , Gs3 , v040
	.byte	W01
	.byte		BEND  , c_v+3
	.byte		N01   , As1 , v088
	.byte		N01   , Gn3 , v040
	.byte	W01
	.byte		VOL   , 113*seq_753_mvl/mxv
	.byte		BEND  , c_v+6
	.byte		N01   , As1 , v112
	.byte	W01
	.byte		VOL   , 119*seq_753_mvl/mxv
	.byte		BEND  , c_v+8
	.byte		N01   , Gs3 , v040
	.byte	W01
	.byte		VOL   , 122*seq_753_mvl/mxv
	.byte		BEND  , c_v+10
	.byte		N01   , Bn1 , v088
	.byte		N01   , An3 , v040
	.byte	W01
	.byte		VOL   , 124*seq_753_mvl/mxv
	.byte		BEND  , c_v+11
	.byte		N01   , Cn2 , v112
	.byte		N01   , An3 , v040
	.byte	W01
	.byte		VOL   , 127*seq_753_mvl/mxv
	.byte		BEND  , c_v+13
	.byte		N01   , Cs2 , v088
	.byte	W01
	.byte		VOL   , 41*seq_753_mvl/mxv
	.byte		BEND  , c_v+14
	.byte		N01   , Bn3 , v040
	.byte	W01
	.byte		VOL   , 127*seq_753_mvl/mxv
	.byte		BEND  , c_v+16
	.byte		N01   , Dn2 , v092
	.byte		N01   , Cn4 , v040
	.byte	W01
	.byte		VOL   , 59*seq_753_mvl/mxv
	.byte		BEND  , c_v+17
	.byte		N01   , Ds2 , v060
	.byte		N01   , Cn4 , v032
	.byte	W01
	.byte		VOL   , 32*seq_753_mvl/mxv
	.byte		BEND  , c_v+18
	.byte		N01   , En2 
	.byte		N01   , Dn4 , v012
	.byte	W01
	.byte		VOL   , 10*seq_753_mvl/mxv
	.byte		BEND  , c_v+20
	.byte	W01
	.byte		VOL   , 0*seq_753_mvl/mxv
	.byte		BEND  , c_v+21
	.byte	FINE

@******************************************************@

	.align	2

seq_753:
	.byte	1	@ NumTrks
	.byte	0	@ NumBlks
	.byte	seq_753_pri	@ Priority
	.byte	seq_753_rev	@ Reverb

	.word	seq_753_grp

	.word	seq_753_0

	.end
