@ File generated by m4a2s Song-Module
	.include "MPlayDef.s"

	.equ	seq_113_grp, bank_014
	.equ	seq_113_pri, 50
	.equ	seq_113_rev, 198
	.equ	seq_113_mvl, 127
	.equ	seq_113_key, 0

	.section .rodata
	.global	seq_113
	.align	2

@*********************** Track 01 ***********************@

seq_113_0:
	.byte	KEYSH , seq_113_key+0
	.byte	TEMPO , 240/2
	.byte		VOICE , 127
	.byte	W01
	.byte		VOL   , 70*seq_113_mvl/mxv
	.byte	W01
	.byte		PAN   , c_v+0
	.byte	W10
	.byte	TEMPO , 90/2
	.byte	W12
	.byte	W72
	.byte		N03   , Gs7 , v080
	.byte	W12
	.byte		N12   , An7 
	.byte	W12
	.byte	TEMPO , 90/2
	.byte		N07   , As3 , v040
	.byte		N03   , Cn4 , v120
	.byte	W07
	.byte		N09   , As3 , v020
	.byte	W05
	.byte		N03   , Ds6 , v100
	.byte	W06
	.byte		        Ds6 , v080
	.byte	W06
	.byte		        Dn6 , v100
	.byte	W12
	.byte		        Ds6 
	.byte	W12
	.byte		        Gs5 , v080
	.byte	W12
	.byte		        Ds6 , v100
	.byte	W06
	.byte		        Ds6 , v080
	.byte	W06
	.byte		        Cn4 , v120
	.byte	W12
	.byte		        Ds6 , v100
	.byte	W12
	.byte		N03   , Fn4 , v100
	.byte	W12
	.byte		        Fn4 , v080
	.byte	W06
	.byte		        Ds6 
	.byte	W06
	.byte		        Dn6 , v100
	.byte	W12
	.byte		        Ds6 
	.byte	W12
	.byte		        Gs5 , v080
	.byte	W12
	.byte		        Ds6 , v100
	.byte	W06
	.byte		        Ds6 , v080
	.byte	W06
	.byte		        Cn4 , v100
	.byte	W12
	.byte		        Ds6 
	.byte	W12
	.byte	PEND
	.byte		N03   , Cn4 , v120
	.byte	W12
	.byte		        Ds6 , v100
	.byte	W06
	.byte		        Ds6 , v080
	.byte	W06
	.byte		        Dn6 , v100
	.byte	W12
	.byte		        Ds6 
	.byte	W12
	.byte		        Gs5 , v080
	.byte	W12
	.byte		        Ds6 , v100
	.byte	W06
	.byte		        Ds6 , v080
	.byte	W06
	.byte		        Cn4 , v120
	.byte	W12
	.byte		        Ds6 , v100
	.byte	W12
	.byte	PEND
	.byte	PATT
	 .word	seq_113_0 + 0x40
	.byte	PATT
	 .word	seq_113_0 + 0x5D
	.byte		N03   , Fn4 , v100
	.byte	W12
	.byte		        Fn4 , v080
	.byte	W06
	.byte		        Ds6 
	.byte	W06
	.byte		        Dn6 , v100
	.byte	W12
	.byte		        Ds6 
	.byte	W12
	.byte		        Gs5 , v080
	.byte	W12
	.byte		        Ds6 , v100
	.byte	W06
	.byte		        Ds6 , v080
	.byte	W06
	.byte		        Gs5 
	.byte	W12
	.byte		        Ds6 , v100
	.byte	W12
	.byte	PEND
	.byte		N03   , Cn4 , v120
	.byte	W12
	.byte		        Ds6 , v100
	.byte	W06
	.byte		        Ds6 , v080
	.byte	W06
	.byte		        Dn6 , v100
	.byte	W12
	.byte		        Ds6 
	.byte	W12
	.byte		        Gs5 , v080
	.byte	W12
	.byte		        Ds6 , v100
	.byte	W06
	.byte		        Ds6 , v080
	.byte	W06
	.byte		        Dn6 , v100
	.byte	W12
	.byte		        Ds6 
	.byte	W12
	.byte	PEND
	.byte		N03   , Cn4 , v120
	.byte	W12
	.byte		        Fn4 , v080
	.byte	W06
	.byte		        Ds6 
	.byte	W06
	.byte		        Dn6 , v100
	.byte	W12
	.byte		        Ds6 
	.byte	W12
	.byte		        Cn4 , v120
	.byte	W12
	.byte		        Ds6 , v100
	.byte	W06
	.byte		        Ds6 , v080
	.byte	W06
	.byte		        Fn4 , v100
	.byte	W06
	.byte		        Fn4 , v080
	.byte	W06
	.byte		        Ds6 , v100
	.byte	W12
	.byte	PEND
	.byte	PATT
	 .word	seq_113_0 + 0x5D
	.byte	PATT
	 .word	seq_113_0 + 0x40
	.byte	PATT
	 .word	seq_113_0 + 0x5D
	.byte	PATT
	 .word	seq_113_0 + 0x40
	.byte	PATT
	 .word	seq_113_0 + 0x5D
	.byte	PATT
	 .word	seq_113_0 + 0x86
	.byte	PATT
	 .word	seq_113_0 + 0xA3
	.byte	PATT
	 .word	seq_113_0 + 0xC1
	.byte	PATT
	 .word	seq_113_0 + 0x5D
	.byte	PATT
	 .word	seq_113_0 + 0x40
	.byte	PATT
	 .word	seq_113_0 + 0x5D
	.byte	PATT
	 .word	seq_113_0 + 0x40
	.byte	PATT
	 .word	seq_113_0 + 0x5D
	.byte	PATT
	 .word	seq_113_0 + 0x40
	.byte	PATT
	 .word	seq_113_0 + 0x5D
	.byte		N03   , Fn4 , v100
	.byte	W12
	.byte		        Fn4 , v080
	.byte	W06
	.byte		        Ds6 
	.byte	W06
	.byte		        Dn6 , v100
	.byte	W12
	.byte		        Ds6 
	.byte	W12
	.byte		        Cn4 
	.byte	W12
	.byte		        Ds6 
	.byte	W06
	.byte		        Ds6 , v080
	.byte	W18
	.byte		        Ds6 , v100
	.byte	W12
	.byte	PATT
	 .word	seq_113_0 + 0x5D
	.byte		N03   , Fn4 , v100
	.byte	W12
	.byte		        Fn4 , v080
	.byte	W06
	.byte		        Ds6 
	.byte	W06
	.byte		        Dn6 , v100
	.byte	W12
	.byte		        Ds6 
	.byte	W12
	.byte		        Cn4 
	.byte	W12
	.byte		N03
	.byte	W06
	.byte		        Ds6 , v080
	.byte	W06
	.byte	TEMPO , 88/2
	.byte		        Cn4 , v100
	.byte	W12
	.byte		N03
	.byte	W12
	.byte	GOTO
	 .word	seq_113_0 + 0x18
	.byte	FINE

@*********************** Track 02 ***********************@

seq_113_1:
	.byte	KEYSH , seq_113_key+0
	.byte		VOICE , 5
	.byte	W01
	.byte		VOL   , 47*seq_113_mvl/mxv
	.byte	W01
	.byte		PAN   , c_v+6
	.byte	W01
	.byte		LFOS  , 30
	.byte	W01
	.byte		MODT  , mod_tre
	.byte	W01
	.byte		LFODL , 0
	.byte	W19
	.byte	W12
	.byte		N02   , Gs5 , v120
	.byte	W06
	.byte		N03   , Fn5 
	.byte	W12
	.byte		N06   , Dn5 
	.byte	W06
	.byte		        Cn5 
	.byte	W06
	.byte		        Bn4 
	.byte	W06
	.byte		        Gs4 
	.byte	W06
	.byte		        An4 
	.byte	W06
	.byte		        Gs4 
	.byte	W06
	.byte		        An4 
	.byte	W06
	.byte		N02   , Gs4 
	.byte	W02
	.byte		        An4 , v100
	.byte	W02
	.byte		N08   , Gs4 
	.byte	W08
	.byte		N12   , Gs4 , v040
	.byte	W12
	.byte		N14   , En3 , v120
	.byte		N14   , An3 
	.byte	W14
	.byte		N04   , En3 , v040
	.byte		N04   , An3 
	.byte	W10
	.byte		N14   , En3 , v120
	.byte		N14   , An3 
	.byte	W14
	.byte		N04   , En3 , v040
	.byte		N04   , An3 
	.byte	W32
	.byte	W02
	.byte		N18   , En3 , v120
	.byte		N18   , An3 
	.byte	W04
	.byte		VOL   , 41*seq_113_mvl/mxv
	.byte	W03
	.byte		        35*seq_113_mvl/mxv
	.byte	W03
	.byte		        41*seq_113_mvl/mxv
	.byte	W02
	.byte		        47*seq_113_mvl/mxv
	.byte	W02
	.byte		        53*seq_113_mvl/mxv
	.byte	W03
	.byte		        47*seq_113_mvl/mxv
	.byte	W01
	.byte		N04   , En3 , v040
	.byte		N04   , An3 
	.byte	W06
	.byte	PEND
	.byte		N03   , Fn3 , v120
	.byte		N03   , As3 
	.byte	W03
	.byte		        Fn3 , v040
	.byte		N03   , As3 
	.byte	W09
	.byte		        Fn3 , v120
	.byte		N03   , As3 
	.byte	W03
	.byte		        Fn3 , v040
	.byte		N03   , As3 
	.byte	W80
	.byte	W01
	.byte	PEND
	.byte	PATT
	 .word	seq_113_1 + 0x38
	.byte	PATT
	 .word	seq_113_1 + 0x6B
	.byte		N14   , En3 , v120
	.byte		N14   , An3 
	.byte	W14
	.byte		N04   , En3 , v040
	.byte		N04   , An3 
	.byte	W10
	.byte		N14   , En3 , v120
	.byte		N14   , An3 
	.byte	W14
	.byte		N04   , En3 , v040
	.byte		N04   , An3 
	.byte	W32
	.byte	W02
	.byte		N18   , En3 , v120
	.byte		N18   , An3 
	.byte	W02
	.byte		VOL   , 41*seq_113_mvl/mxv
	.byte	W03
	.byte		        35*seq_113_mvl/mxv
	.byte	W03
	.byte		        29*seq_113_mvl/mxv
	.byte	W03
	.byte		        35*seq_113_mvl/mxv
	.byte	W03
	.byte		        41*seq_113_mvl/mxv
	.byte	W03
	.byte		        47*seq_113_mvl/mxv
	.byte	W01
	.byte		N04   , En3 , v040
	.byte		N04   , An3 
	.byte	W06
	.byte	PEND
	.byte		N03   , Fn4 , v120
	.byte		N03   , As4 
	.byte	W03
	.byte		        Fn4 , v040
	.byte		N03   , As4 
	.byte	W09
	.byte		        Fn4 , v120
	.byte		N03   , As4 
	.byte	W03
	.byte		        Fn4 , v040
	.byte		N03   , As4 
	.byte	W21
	.byte		N02   , As5 , v120
	.byte	W02
	.byte		N10   , Bn5 , v100
	.byte	W10
	.byte		N04   , Fn5 , v120
	.byte	W04
	.byte		N08   , Fn5 , v040
	.byte	W08
	.byte		N03   , En5 , v100
	.byte	W03
	.byte		        En5 , v040
	.byte	W09
	.byte		N04   , Cn5 , v120
	.byte	W04
	.byte		N08   , Cn5 , v040
	.byte	W08
	.byte		N03   , Bn4 , v100
	.byte	W03
	.byte		        Bn4 , v040
	.byte	W09
	.byte	PEND
	.byte		N02   , Fn4 , v120
	.byte	W02
	.byte		        Fs4 , v080
	.byte	W02
	.byte		N20   , Fn4 , v100
	.byte	W20
	.byte		N24   , Fn4 , v040
	.byte	W72
	.byte	PEND
	.byte	W96
	.byte	PATT
	 .word	seq_113_1 + 0x38
	.byte	PATT
	 .word	seq_113_1 + 0x6B
	.byte	PATT
	 .word	seq_113_1 + 0x38
	.byte	PATT
	 .word	seq_113_1 + 0x6B
	.byte	PATT
	 .word	seq_113_1 + 0x8C
	.byte	PATT
	 .word	seq_113_1 + 0xBF
	.byte	PATT
	 .word	seq_113_1 + 0xFB
	.byte	W96
	.byte	W96
	.byte	W96
	.byte	W96
	.byte	W96
	.byte	W96
	.byte	W96
	.byte	W96
	.byte	W96
	.byte	W96
	.byte	W96
	.byte	GOTO
	 .word	seq_113_1 + 0x38
	.byte	FINE

@*********************** Track 03 ***********************@

seq_113_2:
	.byte	KEYSH , seq_113_key+0
	.byte		VOICE , 20
	.byte	W01
	.byte		VOL   , 47*seq_113_mvl/mxv
	.byte	W01
	.byte		PAN   , c_v+36
	.byte	W01
	.byte		LFOS  , 20
	.byte	W01
	.byte		MODT  , mod_pan
	.byte	W01
	.byte		LFODL , 0
	.byte	W19
	.byte	W96
	.byte	W96
	.byte	W96
	.byte	W96
	.byte	W96
	.byte	W96
	.byte	W96
	.byte	W24
	.byte		N22   , An2 , v120
	.byte	W22
	.byte		N02   , An2 , v040
	.byte	W02
	.byte		N22   , Gs2 , v120
	.byte	W22
	.byte		N02   , Gs2 , v040
	.byte	W02
	.byte		N22   , Bn2 , v120
	.byte	W22
	.byte		N02   , Bn2 , v040
	.byte	W02
	.byte	PEND
	.byte		N36   , Fn2 , v100
	.byte	W36
	.byte		N24   , Fn2 , v040
	.byte	W24
	.byte		N12   , Fn2 , v020
	.byte	W36
	.byte	PEND
	.byte	W96
	.byte	W96
	.byte	W96
	.byte	W96
	.byte	W96
	.byte	W96
	.byte	PATT
	 .word	seq_113_2 + 0x1B
	.byte	PATT
	 .word	seq_113_2 + 0x35
	.byte	W96
	.byte	W96
	.byte	W96
	.byte	W96
	.byte	W96
	.byte	W96
	.byte	W96
	.byte	W96
	.byte	W96
	.byte	W96
	.byte	GOTO
	 .word	seq_113_2 + 0x15
	.byte	FINE

@*********************** Track 04 ***********************@

seq_113_3:
	.byte	KEYSH , seq_113_key+0
	.byte	W06
	.byte		VOICE , 1
	.byte	W01
	.byte		VOL   , 59*seq_113_mvl/mxv
	.byte	W01
	.byte		PAN   , c_v-24
	.byte	W01
	.byte		LFOS  , 30
	.byte	W01
	.byte		MODT  , mod_pan
	.byte	W01
	.byte		LFODL , 0
	.byte	W13
	.byte	W96
	.byte		N24   , En1 , v120
	.byte	W24
	.byte		N12   , En1 , v040
	.byte	W24
	.byte		N24   , En1 , v120
	.byte	W24
	.byte		        Bn1 , v100
	.byte	W24
	.byte	PEND
	.byte		N05   , Fn2 , v120
	.byte	W05
	.byte		N04   , Fn2 , v040
	.byte	W07
	.byte		N05   , Fn2 , v120
	.byte	W05
	.byte		N04   , Fn2 , v040
	.byte	W78
	.byte	W01
	.byte	PEND
	.byte	PATT
	 .word	seq_113_3 + 0x16
	.byte	PATT
	 .word	seq_113_3 + 0x26
	.byte	PATT
	 .word	seq_113_3 + 0x16
	.byte	PATT
	 .word	seq_113_3 + 0x26
	.byte		N24   , Bn1 , v120
	.byte	W48
	.byte		N24
	.byte	W24
	.byte		N12   , Bn1 , v040
	.byte	W24
	.byte	PEND
	.byte		N10   , Bn1 , v120
	.byte	W12
	.byte		N06   , Cn4 
	.byte	W06
	.byte		        Bn3 , v100
	.byte	W06
	.byte		        As3 
	.byte	W06
	.byte		N03   , As3 , v020
	.byte	W06
	.byte		N06   , An3 , v080
	.byte	W06
	.byte		N03   , An3 , v020
	.byte	W06
	.byte		N12   , Gs3 , v100
	.byte	W12
	.byte		N05   , Gn3 , v080
	.byte	W05
	.byte		N03   , Gn3 , v020
	.byte	W07
	.byte		N05   , Fn3 , v100
	.byte	W05
	.byte		N03   , Fn3 , v020
	.byte	W07
	.byte		N05   , En3 , v080
	.byte	W05
	.byte		N03   , En3 , v020
	.byte	W07
	.byte	PEND
	.byte	PATT
	 .word	seq_113_3 + 0x16
	.byte	PATT
	 .word	seq_113_3 + 0x26
	.byte	PATT
	 .word	seq_113_3 + 0x16
	.byte	PATT
	 .word	seq_113_3 + 0x26
	.byte	PATT
	 .word	seq_113_3 + 0x16
	.byte	PATT
	 .word	seq_113_3 + 0x26
	.byte	PATT
	 .word	seq_113_3 + 0x4C
	.byte	PATT
	 .word	seq_113_3 + 0x57
	.byte	W96
	.byte	W96
	.byte	W96
	.byte	W96
	.byte	W96
	.byte	W96
	.byte	W96
	.byte	W96
	.byte	W96
	.byte	W96
	.byte	GOTO
	 .word	seq_113_3 + 0x16
	.byte	FINE

@*********************** Track 05 ***********************@

seq_113_4:
	.byte	KEYSH , seq_113_key+0
	.byte	W06
	.byte		VOICE , 22
	.byte	W01
	.byte		VOL   , 29*seq_113_mvl/mxv
	.byte	W01
	.byte		PAN   , c_v+0
	.byte	W01
	.byte		LFOS  , 20
	.byte	W01
	.byte		MODT  , mod_pan
	.byte	W01
	.byte		LFODL , 0
	.byte	W01
	.byte		MOD   , 60
	.byte	W12
	.byte	W12
	.byte		N06   , Dn5 , v120
	.byte		N06   , Gs5 
	.byte	W06
	.byte		        Bn4 
	.byte		N06   , Fn5 
	.byte	W12
	.byte		        Gs4 
	.byte		N06   , Dn5 
	.byte	W06
	.byte		        Fs4 
	.byte		N06   , Cn5 
	.byte	W06
	.byte		        Fn4 
	.byte		N06   , Bn4 
	.byte	W06
	.byte		        Dn4 
	.byte		N06   , Gs4 
	.byte	W06
	.byte		        Ds4 
	.byte		N06   , An4 
	.byte	W06
	.byte		        Dn4 
	.byte		N06   , Gs4 
	.byte	W06
	.byte		        Ds4 
	.byte		N06   , An4 
	.byte	W06
	.byte		N12   , Dn4 
	.byte		N12   , Gs4 
	.byte	W12
	.byte		        Dn4 , v040
	.byte		N12   , Gs4 
	.byte	W12
	.byte	W96
	.byte	W96
	.byte	W96
	.byte	W96
	.byte	W96
	.byte	W96
	.byte	W23
	.byte		VOL   , 11*seq_113_mvl/mxv
	.byte	W01
	.byte		N14   , An4 , v120
	.byte	W01
	.byte		VOL   , 17*seq_113_mvl/mxv
	.byte	W02
	.byte		        23*seq_113_mvl/mxv
	.byte	W02
	.byte		        29*seq_113_mvl/mxv
	.byte	W01
	.byte		        35*seq_113_mvl/mxv
	.byte	W02
	.byte		        41*seq_113_mvl/mxv
	.byte	W06
	.byte		N05   , An4 , v060
	.byte	W05
	.byte		        An4 , v020
	.byte	W28
	.byte	W01
	.byte		N14   , An4 , v120
	.byte	W14
	.byte		N05   , An4 , v060
	.byte	W05
	.byte		        An4 , v020
	.byte	W05
	.byte	PEND
	.byte	W24
	.byte		N14   , An4 , v120
	.byte	W14
	.byte		N05   , An4 , v060
	.byte	W05
	.byte		        An4 , v020
	.byte	W28
	.byte	W01
	.byte		N14   , An4 , v120
	.byte	W14
	.byte		N05   , An4 , v060
	.byte	W05
	.byte		        An4 , v020
	.byte	W05
	.byte	W96
	.byte	W96
	.byte	W96
	.byte	W96
	.byte	W96
	.byte	W96
	.byte	PATT
	 .word	seq_113_4 + 0x4F
	.byte	W24
	.byte		N14   , An4 , v120
	.byte	W14
	.byte		N05   , An4 , v060
	.byte	W05
	.byte		        An4 , v020
	.byte	W28
	.byte	W01
	.byte		N14   , An4 , v120
	.byte	W14
	.byte		N05   , An4 , v060
	.byte	W05
	.byte		        An4 , v020
	.byte	W03
	.byte		VOL   , 35*seq_113_mvl/mxv
	.byte	W01
	.byte		MOD   , 0
	.byte	W01
	.byte		N96   , Cn4 , v100
	.byte		N96   , Fs4 
	.byte	W24
	.byte	W01
	.byte		MOD   , 20
	.byte	W15
	.byte		        40
	.byte	W08
	.byte		        60
	.byte	W09
	.byte		        80
	.byte	W06
	.byte		        100
	.byte	W08
	.byte		        120
	.byte	W07
	.byte		        100
	.byte	W03
	.byte		        80
	.byte	W03
	.byte		        60
	.byte	W04
	.byte		        40
	.byte	W06
	.byte		        20
	.byte	W01
	.byte		        0
	.byte	W01
	.byte	PEND
	.byte		N96   , Dn4 , v100
	.byte		N96   , Fn4 
	.byte	W24
	.byte	W01
	.byte		MOD   , 20
	.byte	W15
	.byte		        40
	.byte	W08
	.byte		        60
	.byte	W09
	.byte		        80
	.byte	W06
	.byte		        100
	.byte	W08
	.byte		        120
	.byte	W07
	.byte		        100
	.byte	W03
	.byte		        80
	.byte	W03
	.byte		        60
	.byte	W04
	.byte		        40
	.byte	W06
	.byte		        20
	.byte	W01
	.byte		        0
	.byte	W01
	.byte	PEND
	.byte		N96   , Gs3 , v100
	.byte		N96   , En4 
	.byte	W24
	.byte	W01
	.byte		MOD   , 20
	.byte	W15
	.byte		        40
	.byte	W08
	.byte		        60
	.byte	W09
	.byte		        80
	.byte	W06
	.byte		        100
	.byte	W08
	.byte		        120
	.byte	W07
	.byte		        100
	.byte	W03
	.byte		        80
	.byte	W03
	.byte		        60
	.byte	W04
	.byte		        40
	.byte	W06
	.byte		        20
	.byte	W01
	.byte		        0
	.byte	W01
	.byte	PEND
	.byte		N96   , Gn3 
	.byte		N96   , Ds4 
	.byte	W24
	.byte	W01
	.byte		MOD   , 20
	.byte	W15
	.byte		        40
	.byte	W08
	.byte		        60
	.byte	W09
	.byte		        80
	.byte	W06
	.byte		        100
	.byte	W08
	.byte		        120
	.byte	W07
	.byte		        100
	.byte	W03
	.byte		        80
	.byte	W03
	.byte		        60
	.byte	W04
	.byte		        40
	.byte	W06
	.byte		        20
	.byte	W01
	.byte		        0
	.byte	W01
	.byte	PATT
	 .word	seq_113_4 + 0xB7
	.byte	PATT
	 .word	seq_113_4 + 0xD8
	.byte	PATT
	 .word	seq_113_4 + 0xF9
	.byte		N48   , An3 , v100
	.byte		N48   , Ds4 
	.byte	W24
	.byte	W01
	.byte		MOD   , 20
	.byte	W15
	.byte		        40
	.byte	W08
	.byte		N48   , Cs4 
	.byte		N48   , En4 
	.byte	W01
	.byte		MOD   , 60
	.byte	W08
	.byte		        80
	.byte	W06
	.byte		        100
	.byte	W08
	.byte		        120
	.byte	W07
	.byte		        100
	.byte	W03
	.byte		        80
	.byte	W03
	.byte		        60
	.byte	W04
	.byte		        40
	.byte	W06
	.byte		        20
	.byte	W01
	.byte		        0
	.byte	W01
	.byte		N96   , Cn4 
	.byte		N96   , Fs4 
	.byte	W01
	.byte		MOD   , 20
	.byte	W15
	.byte		        40
	.byte	W08
	.byte		        60
	.byte	W09
	.byte		        80
	.byte	W06
	.byte		        100
	.byte	W08
	.byte		        120
	.byte	W07
	.byte		        100
	.byte	W03
	.byte		        80
	.byte	W03
	.byte		        60
	.byte	W04
	.byte		        40
	.byte	W06
	.byte		        20
	.byte	W01
	.byte		        0
	.byte	W24
	.byte	W01
	.byte	W11
	.byte		        100
	.byte	W01
	.byte		N06   , Cn5 , v120
	.byte		N06   , Fs5 
	.byte	W06
	.byte		        Cn5 , v040
	.byte		N06   , Fs5 
	.byte	W06
	.byte		        An4 , v120
	.byte		N06   , Ds5 
	.byte	W06
	.byte		        An4 , v040
	.byte		N06   , Ds5 
	.byte	W06
	.byte		        Fs4 , v120
	.byte		N06   , Cn5 
	.byte	W06
	.byte		        Fs4 , v040
	.byte		N06   , Cn5 
	.byte	W06
	.byte		        Ds4 , v120
	.byte		N06   , An4 
	.byte	W06
	.byte		        Ds4 , v040
	.byte		N06   , An4 
	.byte	W06
	.byte		        Cn4 , v120
	.byte		N06   , Fs4 
	.byte	W06
	.byte		        Cn4 , v040
	.byte		N06   , Fs4 
	.byte	W06
	.byte		        An3 , v120
	.byte		N06   , Ds4 
	.byte	W06
	.byte		        An3 , v040
	.byte		N06   , Ds4 
	.byte	W06
	.byte		        Fs3 , v120
	.byte		N06   , Cn4 
	.byte	W06
	.byte		        Fs3 , v040
	.byte		N06   , Cn4 
	.byte	W05
	.byte		MOD   , 0
	.byte	W01
	.byte	GOTO
	 .word	seq_113_4 + 0x49
	.byte	FINE

@*********************** Track 06 ***********************@

seq_113_5:
	.byte	KEYSH , seq_113_key+0
	.byte	W06
	.byte		VOICE , 25
	.byte	W01
	.byte		VOL   , 41*seq_113_mvl/mxv
	.byte	W01
	.byte		PAN   , c_v+0
	.byte	W01
	.byte		LFOS  , 20
	.byte	W01
	.byte		MODT  , mod_pan
	.byte	W01
	.byte		BENDR , 12
	.byte	W13
	.byte	W12
	.byte		N06   , Dn4 , v080
	.byte		N06   , Gs4 , v120
	.byte	W06
	.byte		        Bn3 , v080
	.byte		N06   , Fn4 , v120
	.byte	W12
	.byte		        Gs3 , v080
	.byte		N06   , Dn4 , v120
	.byte	W06
	.byte		        Fs3 , v080
	.byte		N06   , Cn4 , v120
	.byte	W06
	.byte		        Fn3 , v080
	.byte		N06   , Bn3 , v120
	.byte	W06
	.byte		        Dn3 , v080
	.byte		N06   , Gs3 , v120
	.byte	W06
	.byte		        Ds3 , v080
	.byte		N06   , An3 , v120
	.byte	W06
	.byte		        Dn3 , v080
	.byte		N06   , Gs3 , v120
	.byte	W06
	.byte		        Ds3 , v080
	.byte		N06   , An3 , v120
	.byte	W06
	.byte		N12   , Dn3 , v080
	.byte		N12   , Gs3 , v120
	.byte	W24
	.byte	W96
	.byte	W05
	.byte		MOD   , 40
	.byte	W24
	.byte	W01
	.byte		N02   , Dn4 , v120
	.byte		N02   , An4 
	.byte	W03
	.byte		        Dn4 , v060
	.byte		N02   , An4 
	.byte	W03
	.byte		        En4 , v120
	.byte		N02   , Bn4 
	.byte	W06
	.byte		        En4 , v040
	.byte		N02   , Bn4 
	.byte	W06
	.byte		        An4 , v120
	.byte		N02   , Dn5 
	.byte	W06
	.byte		        An4 , v040
	.byte		N02   , Dn5 
	.byte	W06
	.byte		        Dn4 , v120
	.byte		N02   , An4 
	.byte	W06
	.byte		        Dn4 , v040
	.byte		N02   , An4 
	.byte	W06
	.byte		        En4 , v120
	.byte		N02   , Bn4 
	.byte	W06
	.byte		        En4 , v040
	.byte		N02   , Bn4 
	.byte	W06
	.byte		        Dn4 , v120
	.byte		N02   , An4 
	.byte	W06
	.byte		        Dn4 , v040
	.byte		N02   , An4 
	.byte	W06
	.byte	W96
	.byte	W30
	.byte		N02   , Dn4 , v120
	.byte		N02   , An4 
	.byte	W03
	.byte		        Dn4 , v060
	.byte		N02   , An4 
	.byte	W03
	.byte		        En4 , v120
	.byte		N02   , Bn4 
	.byte	W06
	.byte		        En4 , v040
	.byte		N02   , Bn4 
	.byte	W06
	.byte		        An4 , v120
	.byte		N02   , Dn5 
	.byte	W06
	.byte		        An4 , v040
	.byte		N02   , Dn5 
	.byte	W06
	.byte		        Dn4 , v120
	.byte		N02   , An4 
	.byte	W06
	.byte		        Dn4 , v040
	.byte		N02   , An4 
	.byte	W06
	.byte		        En4 , v120
	.byte		N02   , Bn4 
	.byte	W06
	.byte		        En4 , v040
	.byte		N02   , Bn4 
	.byte	W06
	.byte		        Dn4 , v120
	.byte		N02   , An4 
	.byte	W06
	.byte		        Dn4 , v040
	.byte		N02   , An4 
	.byte	W06
	.byte	PEND
	.byte	W96
	.byte	W36
	.byte		N02   , En4 , v120
	.byte	W02
	.byte		N10   , Fn4 
	.byte	W10
	.byte		N03   , Bn3 
	.byte	W03
	.byte		        Bn3 , v060
	.byte	W03
	.byte		        Bn3 , v040
	.byte	W06
	.byte		        As3 , v120
	.byte	W03
	.byte		        As3 , v060
	.byte	W03
	.byte		        As3 , v040
	.byte	W06
	.byte		        Fs3 , v120
	.byte	W03
	.byte		        Fs3 , v060
	.byte	W03
	.byte		        Fs3 , v040
	.byte	W06
	.byte		        Fn3 , v120
	.byte	W03
	.byte		        Fn3 , v060
	.byte	W03
	.byte		        Fn3 , v040
	.byte	W06
	.byte	PEND
	.byte		N03   , Bn2 , v060
	.byte	W03
	.byte		        Bn2 , v080
	.byte	W03
	.byte		        Bn2 , v100
	.byte	W03
	.byte		N03
	.byte	W03
	.byte		N06   , Bn2 , v120
	.byte	W84
	.byte	PEND
	.byte	W96
	.byte		N03   , En3 , v060
	.byte	W03
	.byte		        En3 , v080
	.byte	W03
	.byte		        En3 , v100
	.byte	W03
	.byte		N03
	.byte	W03
	.byte		N06   , En3 , v120
	.byte	W06
	.byte		N03   , En3 , v060
	.byte	W03
	.byte		N02   , Dn3 , v040
	.byte	W02
	.byte		N03   , Bn2 , v060
	.byte	W03
	.byte		        Bn2 , v080
	.byte	W03
	.byte		        Bn2 , v100
	.byte	W03
	.byte		N03
	.byte	W03
	.byte		N06   , Bn2 , v120
	.byte	W06
	.byte		        Bn2 , v060
	.byte	W06
	.byte		N02   , An2 , v040
	.byte	W02
	.byte		N03   , An2 , v060
	.byte	W03
	.byte		        An2 , v080
	.byte	W03
	.byte		        An2 , v100
	.byte	W03
	.byte		N03
	.byte	W03
	.byte		N06   , An2 , v120
	.byte	W06
	.byte		N03   , An2 , v060
	.byte	W03
	.byte		N02   , As2 , v040
	.byte	W02
	.byte		N03   , Dn3 , v060
	.byte	W03
	.byte		        Dn3 , v080
	.byte	W03
	.byte		        Dn3 , v100
	.byte	W03
	.byte		N03
	.byte	W03
	.byte		N06   , Dn3 , v120
	.byte	W12
	.byte	PEND
	.byte	PATT
	 .word	seq_113_5 + 0x98
	.byte	PATT
	 .word	seq_113_5 + 0x117
	.byte	PATT
	 .word	seq_113_5 + 0x98
	.byte	PATT
	 .word	seq_113_5 + 0x117
	.byte	PATT
	 .word	seq_113_5 + 0xD8
	.byte	PATT
	 .word	seq_113_5 + 0x105
	.byte	W96
	.byte	W23
	.byte		VOL   , 53*seq_113_mvl/mxv
	.byte	W01
	.byte		N03   , Cn4 , v060
	.byte	W03
	.byte		        Cn4 , v080
	.byte	W03
	.byte		        Cn4 , v100
	.byte	W03
	.byte		N03
	.byte	W03
	.byte		        Cn4 , v120
	.byte	W03
	.byte		N03
	.byte	W03
	.byte		        Cn4 , v080
	.byte	W03
	.byte		        Cn4 , v060
	.byte	W03
	.byte		N03
	.byte	W03
	.byte		        Cn4 , v040
	.byte	W03
	.byte		        Cn4 , v020
	.byte	W03
	.byte		N03
	.byte	W03
	.byte		        Bn3 , v060
	.byte	W03
	.byte		        Bn3 , v100
	.byte	W03
	.byte		        Bn3 , v080
	.byte	W03
	.byte		        Bn3 , v060
	.byte	W03
	.byte		        Dn4 , v120
	.byte	W03
	.byte		        Dn4 , v100
	.byte	W03
	.byte		        Dn4 , v080
	.byte	W03
	.byte		        Dn4 , v100
	.byte	W03
	.byte		        Cn4 , v120
	.byte	W03
	.byte		N03
	.byte	W03
	.byte		        Cn4 , v100
	.byte	W03
	.byte		        Cn4 , v080
	.byte	W03
	.byte		        Gs3 , v060
	.byte	W03
	.byte		        Gs3 , v080
	.byte	W03
	.byte		N03
	.byte	W03
	.byte		        Gs3 , v100
	.byte	W03
	.byte		        Gs3 , v120
	.byte	W03
	.byte		N03
	.byte	W03
	.byte		        Gs3 , v080
	.byte	W03
	.byte		        Gs3 , v060
	.byte	W03
	.byte		        An3 
	.byte	W03
	.byte		        An3 , v080
	.byte	W03
	.byte		N03
	.byte	W03
	.byte		        An3 , v100
	.byte	W03
	.byte		        An3 , v120
	.byte	W03
	.byte		N03
	.byte	W03
	.byte		        An3 , v080
	.byte	W03
	.byte		        An3 , v060
	.byte	W03
	.byte		N03
	.byte	W03
	.byte		N03
	.byte	W03
	.byte		N03
	.byte	W03
	.byte		        An3 , v040
	.byte	W03
	.byte		N03
	.byte	W03
	.byte		        An3 , v020
	.byte	W03
	.byte		N03
	.byte	W03
	.byte		N03
	.byte	W24
	.byte	W03
	.byte	W24
	.byte		        Ds4 , v060
	.byte	W03
	.byte		        Ds4 , v080
	.byte	W03
	.byte		        Ds4 , v100
	.byte	W03
	.byte		N03
	.byte	W03
	.byte		        Ds4 , v120
	.byte	W03
	.byte		N03
	.byte	W03
	.byte		        Ds4 , v080
	.byte	W03
	.byte		        Ds4 , v060
	.byte	W03
	.byte		N03
	.byte	W03
	.byte		        Ds4 , v040
	.byte	W03
	.byte		        Ds4 , v020
	.byte	W03
	.byte		N03
	.byte	W03
	.byte		        Cs4 , v060
	.byte	W03
	.byte		        Cs4 , v100
	.byte	W03
	.byte		        Cs4 , v080
	.byte	W03
	.byte		        Cs4 , v060
	.byte	W03
	.byte		        En4 , v120
	.byte	W03
	.byte		        En4 , v100
	.byte	W03
	.byte		        En4 , v080
	.byte	W03
	.byte		        En4 , v100
	.byte	W03
	.byte		        Ds4 , v120
	.byte	W03
	.byte		N03
	.byte	W03
	.byte		        Ds4 , v100
	.byte	W03
	.byte		        Ds4 , v080
	.byte	W03
	.byte		        Bn3 , v060
	.byte	W03
	.byte		        Bn3 , v080
	.byte	W03
	.byte		N03
	.byte	W03
	.byte		        Bn3 , v100
	.byte	W03
	.byte		        Bn3 , v120
	.byte	W03
	.byte		N03
	.byte	W03
	.byte		        Bn3 , v080
	.byte	W03
	.byte		        Bn3 , v060
	.byte	W03
	.byte		        Cn4 
	.byte	W03
	.byte		        Cn4 , v080
	.byte	W03
	.byte		N03
	.byte	W03
	.byte		        Cn4 , v100
	.byte	W03
	.byte		        Cn4 , v120
	.byte	W03
	.byte		N03
	.byte	W03
	.byte		        Cn4 , v080
	.byte	W03
	.byte		        Cn4 , v060
	.byte	W03
	.byte		N03
	.byte	W03
	.byte		N03
	.byte	W03
	.byte		N03
	.byte	W03
	.byte		        Cn4 , v040
	.byte	W03
	.byte		N03
	.byte	W03
	.byte		        Cn4 , v020
	.byte	W03
	.byte		N03
	.byte	W03
	.byte		N03
	.byte	W24
	.byte	W03
	.byte	W24
	.byte		        Fs4 , v060
	.byte	W03
	.byte		        Fs4 , v080
	.byte	W03
	.byte		        Fs4 , v100
	.byte	W03
	.byte		N03
	.byte	W03
	.byte		        Fs4 , v120
	.byte	W03
	.byte		N03
	.byte	W03
	.byte		        Fs4 , v080
	.byte	W03
	.byte		        Fs4 , v060
	.byte	W03
	.byte		N03
	.byte	W03
	.byte		        Fs4 , v040
	.byte	W03
	.byte		        Fs4 , v020
	.byte	W03
	.byte		N03
	.byte	W03
	.byte		        Fn4 , v060
	.byte	W03
	.byte		        Fn4 , v100
	.byte	W03
	.byte		        Fn4 , v080
	.byte	W03
	.byte		        Fn4 , v060
	.byte	W03
	.byte		        Fs4 , v120
	.byte	W03
	.byte		        Fs4 , v100
	.byte	W03
	.byte		        Fs4 , v080
	.byte	W03
	.byte		        Fs4 , v100
	.byte	W03
	.byte		        An4 , v120
	.byte	W03
	.byte		N03
	.byte	W03
	.byte		        An4 , v100
	.byte	W03
	.byte		        An4 , v080
	.byte	W03
	.byte		        Gs4 , v060
	.byte	W03
	.byte		        Gs4 , v080
	.byte	W03
	.byte		N03
	.byte	W03
	.byte		        Gs4 , v100
	.byte	W03
	.byte		        Gs4 , v120
	.byte	W03
	.byte		N03
	.byte	W03
	.byte		        Gs4 , v080
	.byte	W03
	.byte		        Gs4 , v060
	.byte	W03
	.byte		        An4 
	.byte	W03
	.byte		        An4 , v080
	.byte	W03
	.byte		N03
	.byte	W03
	.byte		        An4 , v100
	.byte	W03
	.byte		        An4 , v120
	.byte	W03
	.byte		N03
	.byte	W03
	.byte		        An4 , v080
	.byte	W03
	.byte		        An4 , v060
	.byte	W03
	.byte		N03
	.byte	W03
	.byte		N03
	.byte	W03
	.byte		N03
	.byte	W03
	.byte		        An4 , v040
	.byte	W03
	.byte		N03
	.byte	W03
	.byte		        An4 , v020
	.byte	W03
	.byte		N03
	.byte	W03
	.byte		N03
	.byte	W24
	.byte	W03
	.byte	W24
	.byte		        Ds4 , v060
	.byte	W03
	.byte		        Ds4 , v080
	.byte	W03
	.byte		        Ds4 , v100
	.byte	W03
	.byte		N03
	.byte	W03
	.byte		        Ds4 , v120
	.byte	W03
	.byte		N03
	.byte	W03
	.byte		        Ds4 , v080
	.byte	W03
	.byte		        Ds4 , v060
	.byte	W03
	.byte		N03
	.byte	W03
	.byte		        Ds4 , v040
	.byte	W03
	.byte		        Ds4 , v020
	.byte	W03
	.byte		N03
	.byte	W03
	.byte		        Cs4 , v060
	.byte	W03
	.byte		        Cs4 , v100
	.byte	W03
	.byte		        Cs4 , v080
	.byte	W03
	.byte		        Cs4 , v060
	.byte	W03
	.byte		        Ds4 , v120
	.byte	W03
	.byte		        Ds4 , v100
	.byte	W03
	.byte		        Ds4 , v080
	.byte	W03
	.byte		        Ds4 , v100
	.byte	W03
	.byte		        En4 , v120
	.byte	W03
	.byte		N03
	.byte	W03
	.byte		        En4 , v100
	.byte	W03
	.byte		        En4 , v080
	.byte	W03
	.byte		        Fs4 , v060
	.byte	W03
	.byte		        Fs4 , v080
	.byte	W03
	.byte		N03
	.byte	W03
	.byte		        Fs4 , v100
	.byte	W03
	.byte		        Fs4 , v120
	.byte	W03
	.byte		N03
	.byte	W03
	.byte		        Fs4 , v080
	.byte	W03
	.byte		        Fs4 , v060
	.byte	W03
	.byte		N03
	.byte	W03
	.byte		        Fs4 , v040
	.byte	W03
	.byte		N03
	.byte	W03
	.byte		        Fs4 , v020
	.byte	W03
	.byte		N03
	.byte	W03
	.byte		N03
	.byte	W03
	.byte		N03
	.byte	W03
	.byte		N03
	.byte	W03
	.byte		        Gn4 , v060
	.byte	W03
	.byte		        Gn4 , v080
	.byte	W03
	.byte		N03
	.byte	W03
	.byte		        Gn4 , v100
	.byte	W03
	.byte		        Gn4 , v120
	.byte	W03
	.byte		N03
	.byte	W03
	.byte		        Gn4 , v080
	.byte	W03
	.byte		        Gn4 , v060
	.byte	W03
	.byte		N03
	.byte	W03
	.byte		        Gn4 , v040
	.byte	W03
	.byte		N03
	.byte	W03
	.byte		        Gn4 , v020
	.byte	W03
	.byte		N03
	.byte	W03
	.byte		N03
	.byte	W03
	.byte		N03
	.byte	W03
	.byte		N03
	.byte	W03
	.byte		        An4 , v060
	.byte	W03
	.byte		        An4 , v080
	.byte	W03
	.byte		N03
	.byte	W03
	.byte		        An4 , v100
	.byte	W03
	.byte		        An4 , v120
	.byte	W03
	.byte		N03
	.byte	W03
	.byte		        An4 , v080
	.byte	W03
	.byte		        An4 , v060
	.byte	W03
	.byte		N03
	.byte	W03
	.byte		        An4 , v040
	.byte	W03
	.byte		N03
	.byte	W03
	.byte		        An4 , v020
	.byte	W03
	.byte		N03
	.byte	W03
	.byte		N03
	.byte	W03
	.byte		N03
	.byte	W03
	.byte		N03
	.byte	W48
	.byte	W03
	.byte	W12
	.byte		        Fs5 , v120
	.byte	W03
	.byte		        An5 , v040
	.byte	W03
	.byte		        Fs5 
	.byte	W03
	.byte		        Cn5 , v020
	.byte	W03
	.byte		        Ds5 , v120
	.byte	W03
	.byte		        Fs5 , v040
	.byte	W03
	.byte		        Ds5 
	.byte	W03
	.byte		        An4 , v020
	.byte	W03
	.byte		        Cn5 , v120
	.byte	W03
	.byte		        Ds5 , v040
	.byte	W03
	.byte		        Cn5 
	.byte	W03
	.byte		        Fs4 , v020
	.byte	W03
	.byte		        An4 , v120
	.byte	W03
	.byte		        Cn5 , v040
	.byte	W03
	.byte		        An4 
	.byte	W03
	.byte		        Ds4 , v020
	.byte	W03
	.byte		        Fs4 , v120
	.byte	W03
	.byte		        An4 , v040
	.byte	W03
	.byte		        Fs4 
	.byte	W03
	.byte		        Cn4 , v020
	.byte	W03
	.byte		        Ds4 , v120
	.byte	W03
	.byte		        Fs4 , v040
	.byte	W03
	.byte		        Ds4 
	.byte	W03
	.byte		        An3 , v020
	.byte	W03
	.byte		        Cn4 , v120
	.byte	W03
	.byte		        Ds4 , v040
	.byte	W03
	.byte		        Cn4 
	.byte	W03
	.byte		        Fs3 , v020
	.byte	W01
	.byte		VOL   , 41*seq_113_mvl/mxv
	.byte	W02
	.byte	GOTO
	 .word	seq_113_5 + 0x54
	.byte	FINE

@*********************** Track 07 ***********************@

seq_113_6:
	.byte	KEYSH , seq_113_key+0
	.byte	W12
	.byte		VOICE , 28
	.byte	W01
	.byte		VOL   , 64*seq_113_mvl/mxv
	.byte	W01
	.byte		PAN   , c_v+0
	.byte	W01
	.byte		LFOS  , 10
	.byte	W01
	.byte		MODT  , mod_pan
	.byte	W01
	.byte		LFODL , 0
	.byte	W01
	.byte		MOD   , 60
	.byte	W06
	.byte	W96
	.byte	W96
	.byte	W36
	.byte		N24   , Fn1 , v120
	.byte	W24
	.byte		N18   , Fn1 , v060
	.byte	W18
	.byte		        Fn1 , v040
	.byte	W18
	.byte	PEND
	.byte	W96
	.byte	PATT
	 .word	seq_113_6 + 0x1A
	.byte	W96
	.byte	W96
	.byte	W24
	.byte		N18   , Bn1 , v120
	.byte	W18
	.byte		        Bn1 , v060
	.byte	W18
	.byte		        Bn1 , v040
	.byte	W36
	.byte	PEND
	.byte	PATT
	 .word	seq_113_6 + 0x2F
	.byte	W96
	.byte	PATT
	 .word	seq_113_6 + 0x1A
	.byte	W96
	.byte	PATT
	 .word	seq_113_6 + 0x1A
	.byte	W96
	.byte	W96
	.byte	PATT
	 .word	seq_113_6 + 0x2F
	.byte	PATT
	 .word	seq_113_6 + 0x2F
	.byte		N24   , Ds2 , v120
	.byte	W24
	.byte		N18   , Ds2 , v060
	.byte	W18
	.byte		        Ds2 , v040
	.byte	W54
	.byte	PEND
	.byte		N24   , Dn2 , v120
	.byte	W24
	.byte		N18   , Dn2 , v060
	.byte	W18
	.byte		        Dn2 , v040
	.byte	W54
	.byte	PEND
	.byte		N24   , Cs2 , v120
	.byte	W24
	.byte		N18   , Cs2 , v060
	.byte	W18
	.byte		        Cs2 , v040
	.byte	W54
	.byte	PEND
	.byte		N24   , Cn2 , v120
	.byte	W24
	.byte		N18   , Cn2 , v060
	.byte	W18
	.byte		        Cn2 , v040
	.byte	W54
	.byte	PEND
	.byte	PATT
	 .word	seq_113_6 + 0x58
	.byte	PATT
	 .word	seq_113_6 + 0x64
	.byte	PATT
	 .word	seq_113_6 + 0x70
	.byte	PATT
	 .word	seq_113_6 + 0x7C
	.byte		N24   , An1 , v120
	.byte	W24
	.byte		N18   , An1 , v060
	.byte	W18
	.byte		        An1 , v040
	.byte	W54
	.byte		N36   , An1 , v120
	.byte	W36
	.byte		N24   , An1 , v060
	.byte	W24
	.byte		        An1 , v040
	.byte	W24
	.byte		N12   , An1 , v020
	.byte	W12
	.byte	GOTO
	 .word	seq_113_6 + 0x19
	.byte	FINE

@*********************** Track 08 ***********************@

seq_113_7:
	.byte	KEYSH , seq_113_key+0
	.byte	W12
	.byte		VOICE , 102
	.byte	W01
	.byte		VOL   , 75*seq_113_mvl/mxv
	.byte	W01
	.byte		PAN   , c_v+0
	.byte	W01
	.byte		LFOS  , 20
	.byte	W01
	.byte		MODT  , mod_vib
	.byte	W01
	.byte		BENDR , 12
	.byte	W07
	.byte	W12
	.byte		N03   , Gs5 , v120
	.byte	W03
	.byte		        Gs5 , v040
	.byte	W03
	.byte		        Fn5 , v120
	.byte	W03
	.byte		        Fn5 , v040
	.byte	W09
	.byte		        Dn5 , v120
	.byte	W03
	.byte		        Dn5 , v040
	.byte	W03
	.byte		        Cn5 , v120
	.byte	W03
	.byte		        Cn5 , v040
	.byte	W03
	.byte		        Bn4 , v120
	.byte	W03
	.byte		        Bn4 , v040
	.byte	W03
	.byte		        Gs4 , v120
	.byte	W03
	.byte		        Gs4 , v040
	.byte	W03
	.byte		        An4 , v120
	.byte	W03
	.byte		        An4 , v040
	.byte	W03
	.byte		        Gs4 , v120
	.byte	W03
	.byte		        Gs4 , v040
	.byte	W03
	.byte		        An4 , v120
	.byte	W03
	.byte		        An4 , v040
	.byte	W02
	.byte		VOICE , 100
	.byte	W01
	.byte		N12   , Gs2 , v120
	.byte	W06
	.byte		BEND  , c_v-4
	.byte	W01
	.byte		        c_v-12
	.byte	W01
	.byte		        c_v-20
	.byte	W01
	.byte		        c_v-28
	.byte	W01
	.byte		        c_v-47
	.byte	W01
	.byte		        c_v+0
	.byte	W01
	.byte		N12   , Gs1 
	.byte	W06
	.byte		BEND  , c_v-4
	.byte	W01
	.byte		        c_v-12
	.byte	W01
	.byte		        c_v-20
	.byte	W01
	.byte		        c_v-28
	.byte	W01
	.byte		        c_v-47
	.byte	W01
	.byte		        c_v+0
	.byte	W01
	.byte		N12   , En1 , v120
	.byte	W12
	.byte		N05   , En2 
	.byte	W12
	.byte		N02   , En1 
	.byte	W12
	.byte		N05   , Dn2 
	.byte	W12
	.byte		N02   , En1 
	.byte	W12
	.byte		N05   , En2 
	.byte	W12
	.byte		N12   , En1 
	.byte	W12
	.byte		N06   , En2 
	.byte	W12
	.byte	PEND
	.byte		N06   , Fn2 , v120
	.byte	W12
	.byte		        Fn1 
	.byte	W84
	.byte	PEND
	.byte	PATT
	 .word	seq_113_7 + 0x71
	.byte	PATT
	 .word	seq_113_7 + 0x8B
	.byte	PATT
	 .word	seq_113_7 + 0x71
	.byte	PATT
	 .word	seq_113_7 + 0x8B
	.byte		N24   , Bn1 , v120
	.byte	W24
	.byte		        Bn1 , v040
	.byte	W24
	.byte		        Bn1 , v120
	.byte	W24
	.byte		        Bn1 , v040
	.byte	W24
	.byte	PEND
	.byte		        Bn1 , v120
	.byte	W24
	.byte		        Bn1 , v040
	.byte	W72
	.byte	PATT
	 .word	seq_113_7 + 0x71
	.byte	PATT
	 .word	seq_113_7 + 0x8B
	.byte	PATT
	 .word	seq_113_7 + 0x71
	.byte	PATT
	 .word	seq_113_7 + 0x8B
	.byte	PATT
	 .word	seq_113_7 + 0x71
	.byte	PATT
	 .word	seq_113_7 + 0x8B
	.byte	PATT
	 .word	seq_113_7 + 0xA6
	.byte		N24   , Bn1 , v120
	.byte	W24
	.byte		        Bn1 , v040
	.byte	W44
	.byte	W03
	.byte		BEND  , c_v-11
	.byte	W01
	.byte		N12   , Bn1 , v120
	.byte	W02
	.byte		BEND  , c_v-8
	.byte	W02
	.byte		        c_v-7
	.byte	W01
	.byte		        c_v-6
	.byte	W02
	.byte		        c_v-4
	.byte	W01
	.byte		        c_v-3
	.byte	W01
	.byte		        c_v+0
	.byte	W03
	.byte		N12   , Bn1 , v040
	.byte	W12
	.byte		N24   , Ds2 , v120
	.byte	W16
	.byte		BEND  , c_v-3
	.byte	W01
	.byte		        c_v-5
	.byte	W01
	.byte		        c_v-11
	.byte	W01
	.byte		        c_v-25
	.byte	W01
	.byte		        c_v-34
	.byte	W01
	.byte		        c_v-47
	.byte	W01
	.byte		        c_v-64
	.byte	W01
	.byte		        c_v+0
	.byte	W13
	.byte		N01   , Ds2 , v060
	.byte	W06
	.byte		N01
	.byte	W18
	.byte		N06   , Ds2 , v120
	.byte	W06
	.byte		N06
	.byte	W06
	.byte		        Fs2 
	.byte	W06
	.byte		        An2 
	.byte	W06
	.byte		        Fs2 
	.byte	W06
	.byte		        Ds2 
	.byte	W06
	.byte	PEND
	.byte		N24   , Dn2 
	.byte	W16
	.byte		BEND  , c_v-3
	.byte	W01
	.byte		        c_v-5
	.byte	W01
	.byte		        c_v-11
	.byte	W01
	.byte		        c_v-25
	.byte	W01
	.byte		        c_v-34
	.byte	W01
	.byte		        c_v-47
	.byte	W01
	.byte		        c_v-64
	.byte	W01
	.byte		        c_v+0
	.byte	W13
	.byte		N01   , Dn2 , v060
	.byte	W06
	.byte		N01
	.byte	W18
	.byte		N06   , Dn2 , v120
	.byte	W06
	.byte		N06
	.byte	W06
	.byte		N24   , Dn1 
	.byte	W12
	.byte		BEND  , c_v+2
	.byte	W01
	.byte		        c_v+3
	.byte	W01
	.byte		        c_v+5
	.byte	W01
	.byte		        c_v+8
	.byte	W01
	.byte		        c_v+9
	.byte	W01
	.byte		        c_v+11
	.byte	W01
	.byte		        c_v+24
	.byte	W01
	.byte		        c_v+32
	.byte	W01
	.byte		        c_v+37
	.byte	W01
	.byte		        c_v+46
	.byte	W01
	.byte		        c_v+63
	.byte	W01
	.byte		        c_v+0
	.byte	W01
	.byte		N24   , Cs2 , v120
	.byte	W16
	.byte		BEND  , c_v-3
	.byte	W01
	.byte		        c_v-5
	.byte	W01
	.byte		        c_v-11
	.byte	W01
	.byte		        c_v-25
	.byte	W01
	.byte		        c_v-34
	.byte	W01
	.byte		        c_v-47
	.byte	W01
	.byte		        c_v-64
	.byte	W01
	.byte		        c_v+0
	.byte	W13
	.byte		N01   , Cs2 , v060
	.byte	W06
	.byte		N01
	.byte	W18
	.byte		N06   , Cs2 , v120
	.byte	W06
	.byte		N06
	.byte	W06
	.byte		N24   , Cs1 
	.byte	W12
	.byte		BEND  , c_v+2
	.byte	W01
	.byte		        c_v+3
	.byte	W01
	.byte		        c_v+5
	.byte	W01
	.byte		        c_v+8
	.byte	W01
	.byte		        c_v+9
	.byte	W01
	.byte		        c_v+11
	.byte	W01
	.byte		        c_v+24
	.byte	W01
	.byte		        c_v+32
	.byte	W01
	.byte		        c_v+37
	.byte	W01
	.byte		        c_v+46
	.byte	W01
	.byte		        c_v+63
	.byte	W01
	.byte		        c_v+0
	.byte	W01
	.byte	PEND
	.byte		N24   , Cn2 
	.byte	W16
	.byte		BEND  , c_v-3
	.byte	W01
	.byte		        c_v-5
	.byte	W01
	.byte		        c_v-11
	.byte	W01
	.byte		        c_v-25
	.byte	W01
	.byte		        c_v-34
	.byte	W01
	.byte		        c_v-47
	.byte	W01
	.byte		        c_v-64
	.byte	W01
	.byte		        c_v+0
	.byte	W13
	.byte		N01   , Cn2 , v060
	.byte	W06
	.byte		N01
	.byte	W06
	.byte		N06   , Cn2 , v120
	.byte	W06
	.byte		        Ds2 
	.byte	W06
	.byte		        Fs2 
	.byte	W06
	.byte		N18   , An2 
	.byte	W11
	.byte		BEND  , c_v+4
	.byte	W02
	.byte		        c_v+8
	.byte	W02
	.byte		        c_v+4
	.byte	W01
	.byte		        c_v+0
	.byte	W02
	.byte		N06   , Fs2 
	.byte	W06
	.byte		        Ds2 
	.byte	W06
	.byte	PATT
	 .word	seq_113_7 + 0xFD
	.byte		N24   , Dn2 , v120
	.byte	W16
	.byte		BEND  , c_v-3
	.byte	W01
	.byte		        c_v-5
	.byte	W01
	.byte		        c_v-11
	.byte	W01
	.byte		        c_v-25
	.byte	W01
	.byte		        c_v-34
	.byte	W01
	.byte		        c_v-47
	.byte	W01
	.byte		        c_v-64
	.byte	W01
	.byte		        c_v+0
	.byte	W13
	.byte		N01   , Dn2 , v060
	.byte	W06
	.byte		N01
	.byte	W06
	.byte		N06   , Dn2 , v120
	.byte	W06
	.byte		        Fn2 
	.byte	W06
	.byte		        Gs2 
	.byte	W06
	.byte		N18   , An2 
	.byte	W08
	.byte		BEND  , c_v+3
	.byte	W01
	.byte		        c_v+9
	.byte	W01
	.byte		        c_v+12
	.byte	W01
	.byte		        c_v+9
	.byte	W01
	.byte		        c_v+4
	.byte	W01
	.byte		        c_v+0
	.byte	W05
	.byte		N06   , Fn2 
	.byte	W06
	.byte		        Dn2 
	.byte	W06
	.byte	PATT
	 .word	seq_113_7 + 0x163
	.byte		N24   , Cn2 , v120
	.byte	W16
	.byte		BEND  , c_v-3
	.byte	W01
	.byte		        c_v-5
	.byte	W01
	.byte		        c_v-11
	.byte	W01
	.byte		        c_v-25
	.byte	W01
	.byte		        c_v-34
	.byte	W01
	.byte		        c_v-47
	.byte	W01
	.byte		        c_v-64
	.byte	W01
	.byte		        c_v+0
	.byte	W13
	.byte		N01   , Cn2 , v060
	.byte	W06
	.byte		N01
	.byte	W06
	.byte		N24   , As1 , v120
	.byte	W16
	.byte		BEND  , c_v-3
	.byte	W01
	.byte		        c_v-5
	.byte	W01
	.byte		        c_v-11
	.byte	W01
	.byte		        c_v-25
	.byte	W01
	.byte		        c_v-34
	.byte	W01
	.byte		        c_v-47
	.byte	W01
	.byte		        c_v-64
	.byte	W01
	.byte		        c_v+0
	.byte	W13
	.byte		N01   , As1 , v060
	.byte	W06
	.byte		N01
	.byte	W06
	.byte		N24   , An1 , v120
	.byte	W16
	.byte		BEND  , c_v-3
	.byte	W01
	.byte		        c_v-5
	.byte	W01
	.byte		        c_v-11
	.byte	W01
	.byte		        c_v-25
	.byte	W01
	.byte		        c_v-34
	.byte	W01
	.byte		        c_v-47
	.byte	W01
	.byte		        c_v-64
	.byte	W01
	.byte		        c_v+0
	.byte	W13
	.byte		N01   , An1 , v060
	.byte	W06
	.byte		N01
	.byte	W06
	.byte		N24   , An1 , v120
	.byte	W24
	.byte		        An1 , v040
	.byte	W24
	.byte		        An1 , v120
	.byte	W16
	.byte		BEND  , c_v-3
	.byte	W01
	.byte		        c_v-5
	.byte	W01
	.byte		        c_v-11
	.byte	W01
	.byte		        c_v-25
	.byte	W01
	.byte		        c_v-34
	.byte	W01
	.byte		        c_v-47
	.byte	W01
	.byte		        c_v-64
	.byte	W01
	.byte		        c_v+0
	.byte	W13
	.byte		N01   , An1 , v060
	.byte	W06
	.byte		N01
	.byte	W06
	.byte		N06   , An2 , v120
	.byte	W12
	.byte		        An1 
	.byte	W06
	.byte		        An1 , v020
	.byte	W06
	.byte		        An1 , v060
	.byte	W06
	.byte		        An1 , v020
	.byte	W06
	.byte		N06
	.byte	W06
	.byte		N06
	.byte	W06
	.byte	GOTO
	 .word	seq_113_7 + 0x71
	.byte	FINE

@*********************** Track 09 ***********************@

seq_113_8:
	.byte	KEYSH , seq_113_key+0
	.byte	W18
	.byte		VOICE , 74
	.byte	W01
	.byte		VOL   , 29*seq_113_mvl/mxv
	.byte	W01
	.byte		PAN   , c_v+0
	.byte	W01
	.byte		LFOS  , 10
	.byte	W01
	.byte		MODT  , mod_pan
	.byte	W01
	.byte		LFODL , 0
	.byte	W01
	.byte	W12
	.byte		N06   , Gs5 , v120
	.byte	W06
	.byte		        Fn5 
	.byte	W12
	.byte		        Dn5 
	.byte	W06
	.byte		        Cn5 
	.byte	W06
	.byte		        Bn4 
	.byte	W06
	.byte		        Gs4 
	.byte	W06
	.byte		        An4 
	.byte	W06
	.byte		        Gs4 
	.byte	W06
	.byte		        An4 
	.byte	W06
	.byte		N12   , Gs4 
	.byte	W12
	.byte		        Gs4 , v040
	.byte	W12
	.byte		N12   , En1 , v120
	.byte	W12
	.byte		N05   , En2 
	.byte	W12
	.byte		N02   , En1 
	.byte	W12
	.byte		N05   , Dn2 
	.byte	W12
	.byte		N02   , En1 
	.byte	W12
	.byte		N05   , En2 
	.byte	W12
	.byte		N12   , En1 
	.byte	W12
	.byte		N06   , En2 
	.byte	W12
	.byte	PEND
	.byte		N06   , Fn2 , v120
	.byte	W12
	.byte		        Fn1 
	.byte	W18
	.byte		N02   , An4 
	.byte	W03
	.byte		N03   , An4 , v040
	.byte	W03
	.byte		N02   , Bn4 , v120
	.byte	W03
	.byte		N03   , Bn4 , v040
	.byte	W03
	.byte		N02
	.byte	W03
	.byte		N03   , Bn4 , v020
	.byte	W03
	.byte		N02   , Dn5 , v120
	.byte	W03
	.byte		N03   , Dn5 , v040
	.byte	W03
	.byte		N02
	.byte	W03
	.byte		N03   , Dn5 , v020
	.byte	W03
	.byte		N02   , An4 , v120
	.byte	W03
	.byte		N03   , An4 , v040
	.byte	W03
	.byte		N02
	.byte	W03
	.byte		N03   , An4 , v020
	.byte	W03
	.byte		N02   , Bn4 , v120
	.byte	W03
	.byte		N03   , Bn4 , v040
	.byte	W03
	.byte		N02
	.byte	W03
	.byte		N03   , Bn4 , v020
	.byte	W03
	.byte		N02   , An4 , v120
	.byte	W03
	.byte		N03   , An4 , v040
	.byte	W03
	.byte		N02
	.byte	W03
	.byte		N03   , An4 , v020
	.byte	W03
	.byte	PEND
	.byte	PATT
	 .word	seq_113_8 + 0x30
	.byte	PATT
	 .word	seq_113_8 + 0x4A
	.byte	PATT
	 .word	seq_113_8 + 0x30
	.byte		N06   , Fn2 , v120
	.byte	W12
	.byte		        Fn1 
	.byte	W24
	.byte		N02   , Bn4 
	.byte	W03
	.byte		N03   , Bn4 , v040
	.byte	W03
	.byte		N02
	.byte	W03
	.byte		N03   , Bn4 , v020
	.byte	W03
	.byte		N02   , Fn4 , v120
	.byte	W03
	.byte		N03   , Fn4 , v040
	.byte	W03
	.byte		N02
	.byte	W03
	.byte		N03   , Fn4 , v020
	.byte	W03
	.byte		N02   , En4 , v120
	.byte	W03
	.byte		N03   , En4 , v040
	.byte	W03
	.byte		N02
	.byte	W03
	.byte		N03   , En4 , v020
	.byte	W03
	.byte		N02   , Cn4 , v120
	.byte	W03
	.byte		N03   , Cn4 , v040
	.byte	W03
	.byte		N02
	.byte	W03
	.byte		N03   , Cn4 , v020
	.byte	W03
	.byte		N02   , Bn3 , v120
	.byte	W03
	.byte		N03   , Bn3 , v040
	.byte	W03
	.byte		N02
	.byte	W03
	.byte		N03   , Bn3 , v020
	.byte	W03
	.byte	PEND
	.byte	W96
	.byte	W96
	.byte	PATT
	 .word	seq_113_8 + 0x30
	.byte	PATT
	 .word	seq_113_8 + 0x4A
	.byte	PATT
	 .word	seq_113_8 + 0x30
	.byte	PATT
	 .word	seq_113_8 + 0x4A
	.byte	PATT
	 .word	seq_113_8 + 0x30
	.byte	PATT
	 .word	seq_113_8 + 0xAD
	.byte	W96
	.byte	W96
	.byte	W22
	.byte		MOD   , 60
	.byte	W01
	.byte		PAN   , c_v-64
	.byte	W01
	.byte		N02   , Fs4 , v120
	.byte	W02
	.byte		N01   , Fs4 , v040
	.byte	W01
	.byte		N02   , An4 , v120
	.byte	W02
	.byte		N01   , An4 , v040
	.byte	W01
	.byte		N02   , Cn5 , v120
	.byte	W02
	.byte		N01   , Cn5 , v040
	.byte	W01
	.byte		N02   , Ds5 , v120
	.byte	W02
	.byte		PAN   , c_v+63
	.byte	W01
	.byte		N02   , Fs4 , v060
	.byte	W02
	.byte		N01   , Fs4 , v040
	.byte	W01
	.byte		N02   , An4 , v060
	.byte	W02
	.byte		N01   , An4 , v040
	.byte	W01
	.byte		N02   , Cn5 , v060
	.byte	W02
	.byte		N01   , Cn5 , v040
	.byte	W01
	.byte		N02   , Ds5 , v060
	.byte	W02
	.byte		PAN   , c_v-64
	.byte	W01
	.byte		N02   , Fs4 , v040
	.byte	W02
	.byte		N01   , Fs4 , v020
	.byte	W01
	.byte		N02   , An4 , v040
	.byte	W02
	.byte		N01   , An4 , v020
	.byte	W01
	.byte		N02   , Cn5 , v040
	.byte	W02
	.byte		N01   , Cn5 , v020
	.byte	W01
	.byte		N02   , Ds5 , v040
	.byte	W36
	.byte	W03
	.byte	W23
	.byte		PAN   , c_v+63
	.byte	W01
	.byte		N02   , Dn4 , v120
	.byte	W02
	.byte		N01   , Dn4 , v060
	.byte	W01
	.byte		N02   , Fn4 , v120
	.byte	W02
	.byte		N01   , Fn4 , v060
	.byte	W01
	.byte		N02   , An4 , v120
	.byte	W02
	.byte		N01   , An4 , v060
	.byte	W01
	.byte		N02   , Dn5 , v120
	.byte	W02
	.byte		PAN   , c_v-64
	.byte	W01
	.byte		N02   , Dn4 , v060
	.byte	W02
	.byte		N01   , Dn4 , v040
	.byte	W01
	.byte		N02   , Fn4 , v060
	.byte	W02
	.byte		N01   , Fn4 , v040
	.byte	W01
	.byte		N02   , An4 , v060
	.byte	W02
	.byte		N01   , An4 , v040
	.byte	W01
	.byte		N02   , Dn5 , v060
	.byte	W02
	.byte		PAN   , c_v+63
	.byte	W01
	.byte		N02   , Dn4 , v040
	.byte	W02
	.byte		N01   , Dn4 , v020
	.byte	W01
	.byte		N02   , Fn4 , v040
	.byte	W02
	.byte		N01   , Fn4 , v020
	.byte	W01
	.byte		N02   , An4 , v040
	.byte	W02
	.byte		N01   , An4 , v020
	.byte	W01
	.byte		N02   , Dn5 , v040
	.byte	W36
	.byte	W03
	.byte	PEND
	.byte	W23
	.byte		PAN   , c_v-64
	.byte	W01
	.byte		N02   , En4 , v120
	.byte	W02
	.byte		N01   , En4 , v060
	.byte	W01
	.byte		N02   , Gs4 , v120
	.byte	W02
	.byte		N01   , Gs4 , v060
	.byte	W01
	.byte		N02   , Bn4 , v120
	.byte	W02
	.byte		N01   , Bn4 , v060
	.byte	W01
	.byte		N02   , Ds5 , v120
	.byte	W02
	.byte		PAN   , c_v+63
	.byte	W01
	.byte		N02   , En4 , v060
	.byte	W02
	.byte		N01   , En4 , v040
	.byte	W01
	.byte		N02   , Gs4 , v060
	.byte	W02
	.byte		N01   , Gs4 , v040
	.byte	W01
	.byte		N02   , Bn4 , v060
	.byte	W02
	.byte		N01   , Bn4 , v040
	.byte	W01
	.byte		N02   , Ds5 , v060
	.byte	W02
	.byte		PAN   , c_v-64
	.byte	W01
	.byte		N02   , En4 , v040
	.byte	W02
	.byte		N01   , En4 , v020
	.byte	W01
	.byte		N02   , Gs4 , v040
	.byte	W02
	.byte		N01   , Gs4 , v020
	.byte	W01
	.byte		N02   , Bn4 , v040
	.byte	W02
	.byte		N01   , Bn4 , v020
	.byte	W01
	.byte		N02   , Ds5 , v040
	.byte	W36
	.byte	W03
	.byte	PEND
	.byte	W23
	.byte		PAN   , c_v+63
	.byte	W01
	.byte		N02   , Cn4 , v120
	.byte	W02
	.byte		N01   , Cn4 , v060
	.byte	W01
	.byte		N02   , Ds4 , v120
	.byte	W02
	.byte		N01   , Ds4 , v060
	.byte	W01
	.byte		N02   , Gn4 , v120
	.byte	W02
	.byte		N01   , Gn4 , v060
	.byte	W01
	.byte		N02   , Ds5 , v120
	.byte	W02
	.byte		PAN   , c_v-64
	.byte	W01
	.byte		N02   , Cn4 , v060
	.byte	W02
	.byte		N01   , Cn4 , v040
	.byte	W01
	.byte		N02   , Ds4 , v060
	.byte	W02
	.byte		N01   , Ds4 , v040
	.byte	W01
	.byte		N02   , Gn4 , v060
	.byte	W02
	.byte		N01   , Gn4 , v040
	.byte	W01
	.byte		N02   , Ds5 , v060
	.byte	W02
	.byte		PAN   , c_v+63
	.byte	W01
	.byte		N02   , Cn4 , v040
	.byte	W02
	.byte		N01   , Cn4 , v020
	.byte	W01
	.byte		N02   , Ds4 , v040
	.byte	W02
	.byte		N01   , Ds4 , v020
	.byte	W01
	.byte		N02   , Gn4 , v040
	.byte	W02
	.byte		N01   , Gn4 , v020
	.byte	W01
	.byte		N02   , Ds5 , v040
	.byte	W36
	.byte	W03
	.byte	PEND
	.byte	W23
	.byte		PAN   , c_v-64
	.byte	W01
	.byte		N02   , Fs4 , v120
	.byte	W02
	.byte		N01   , Fs4 , v040
	.byte	W01
	.byte		N02   , An4 , v120
	.byte	W02
	.byte		N01   , An4 , v040
	.byte	W01
	.byte		N02   , Cn5 , v120
	.byte	W02
	.byte		N01   , Cn5 , v040
	.byte	W01
	.byte		N02   , Ds5 , v120
	.byte	W02
	.byte		PAN   , c_v+63
	.byte	W01
	.byte		N02   , Fs4 , v060
	.byte	W02
	.byte		N01   , Fs4 , v040
	.byte	W01
	.byte		N02   , An4 , v060
	.byte	W02
	.byte		N01   , An4 , v040
	.byte	W01
	.byte		N02   , Cn5 , v060
	.byte	W02
	.byte		N01   , Cn5 , v040
	.byte	W01
	.byte		N02   , Ds5 , v060
	.byte	W02
	.byte		PAN   , c_v-64
	.byte	W01
	.byte		N02   , Fs4 , v040
	.byte	W02
	.byte		N01   , Fs4 , v020
	.byte	W01
	.byte		N02   , An4 , v040
	.byte	W02
	.byte		N01   , An4 , v020
	.byte	W01
	.byte		N02   , Cn5 , v040
	.byte	W02
	.byte		N01   , Cn5 , v020
	.byte	W01
	.byte		N02   , Ds5 , v040
	.byte	W36
	.byte	W03
	.byte	PATT
	 .word	seq_113_8 + 0x17D
	.byte	PATT
	 .word	seq_113_8 + 0x1DD
	.byte	PATT
	 .word	seq_113_8 + 0x23D
	.byte	W23
	.byte		PAN   , c_v-64
	.byte	W01
	.byte		N02   , Cn4 , v120
	.byte	W02
	.byte		N01   , Cn4 , v060
	.byte	W01
	.byte		N02   , Ds4 , v120
	.byte	W02
	.byte		N01   , Ds4 , v060
	.byte	W01
	.byte		N02   , Fs4 , v120
	.byte	W02
	.byte		N01   , Fs4 , v060
	.byte	W01
	.byte		N02   , Ds5 , v120
	.byte	W02
	.byte		PAN   , c_v+63
	.byte	W01
	.byte		N02   , Cn4 , v060
	.byte	W02
	.byte		N01   , Cn4 , v040
	.byte	W01
	.byte		N02   , Ds4 , v060
	.byte	W02
	.byte		N01   , Ds4 , v040
	.byte	W01
	.byte		N02   , Fs4 , v060
	.byte	W02
	.byte		N01   , Fs4 , v040
	.byte	W01
	.byte		N02   , Ds5 , v060
	.byte	W02
	.byte		PAN   , c_v-64
	.byte	W01
	.byte		N02   , Cn4 , v040
	.byte	W02
	.byte		N01   , Cn4 , v020
	.byte	W01
	.byte		N02   , Ds4 , v040
	.byte	W02
	.byte		N01   , Ds4 , v020
	.byte	W01
	.byte		N02   , Fs4 , v040
	.byte	W02
	.byte		N01   , Fs4 , v020
	.byte	W01
	.byte		N02   , Ds5 , v040
	.byte	W02
	.byte		PAN   , c_v+63
	.byte	W01
	.byte		N02   , Cn4 
	.byte	W02
	.byte		N01   , Cn4 , v020
	.byte	W01
	.byte		N02   , Ds4 , v040
	.byte	W02
	.byte		N01   , Ds4 , v020
	.byte	W01
	.byte		N02   , Fs4 , v040
	.byte	W02
	.byte		N01   , Fs4 , v020
	.byte	W01
	.byte		N02   , Ds5 , v040
	.byte	W24
	.byte	W03
	.byte	W11
	.byte		PAN   , c_v+0
	.byte	W01
	.byte		N06   , An4 , v120
	.byte	W06
	.byte		        An4 , v040
	.byte	W06
	.byte		        Fs4 , v120
	.byte	W06
	.byte		        Fs4 , v040
	.byte	W06
	.byte		        Ds4 , v120
	.byte	W06
	.byte		        Ds4 , v040
	.byte	W06
	.byte		        Cn4 , v120
	.byte	W06
	.byte		        Cn4 , v040
	.byte	W06
	.byte		        An3 , v120
	.byte	W06
	.byte		        An3 , v040
	.byte	W06
	.byte		        Fs3 , v120
	.byte	W06
	.byte		        Fs3 , v040
	.byte	W06
	.byte		        Ds3 , v120
	.byte	W06
	.byte		        Ds3 , v040
	.byte	W04
	.byte		MOD   , 0
	.byte	W02
	.byte	GOTO
	 .word	seq_113_8 + 0x30
	.byte	FINE

@*********************** Track 10 ***********************@

seq_113_9:
	.byte	KEYSH , seq_113_key+0
	.byte	W18
	.byte		VOICE , 88
	.byte	W01
	.byte		VOL   , 29*seq_113_mvl/mxv
	.byte	W01
	.byte		PAN   , c_v+0
	.byte	W01
	.byte		LFOS  , 10
	.byte	W01
	.byte		MODT  , mod_pan
	.byte	W01
	.byte		MOD   , 120
	.byte	W01
	.byte	W13
	.byte		N06   , Gs4 , v120
	.byte	W06
	.byte		        Fn4 
	.byte	W12
	.byte		        Dn4 
	.byte	W06
	.byte		        Cn4 
	.byte	W06
	.byte		        Bn3 
	.byte	W06
	.byte		        Gs3 
	.byte	W06
	.byte		        An3 
	.byte	W06
	.byte		        Gs3 
	.byte	W06
	.byte		        An3 
	.byte	W06
	.byte		N12   , Gs3 
	.byte	W12
	.byte		N11   , Gs3 , v040
	.byte	W11
	.byte	W96
	.byte	W30
	.byte		N02   , An3 , v120
	.byte	W03
	.byte		N03   , An3 , v040
	.byte	W03
	.byte		N02   , Bn3 , v120
	.byte	W03
	.byte		N03   , Bn3 , v040
	.byte	W03
	.byte		N02
	.byte	W03
	.byte		N03   , Bn3 , v020
	.byte	W03
	.byte		N02   , Dn4 , v120
	.byte	W03
	.byte		N03   , Dn4 , v040
	.byte	W03
	.byte		N02
	.byte	W03
	.byte		N03   , Dn4 , v020
	.byte	W03
	.byte		N02   , An3 , v120
	.byte	W03
	.byte		N03   , An3 , v040
	.byte	W03
	.byte		N02
	.byte	W03
	.byte		N03   , An3 , v020
	.byte	W03
	.byte		N02   , Bn3 , v120
	.byte	W03
	.byte		N03   , Bn3 , v040
	.byte	W03
	.byte		N02
	.byte	W03
	.byte		N03   , Bn3 , v020
	.byte	W03
	.byte		N02   , An3 , v120
	.byte	W03
	.byte		N03   , An3 , v040
	.byte	W03
	.byte		N02
	.byte	W03
	.byte		N03   , An3 , v020
	.byte	W03
	.byte	PEND
	.byte	W96
	.byte	PATT
	 .word	seq_113_9 + 0x32
	.byte	W96
	.byte	W36
	.byte		N02   , Bn3 , v120
	.byte	W03
	.byte		N03   , Bn3 , v040
	.byte	W03
	.byte		N02
	.byte	W03
	.byte		N03   , Bn3 , v020
	.byte	W03
	.byte		N02   , Fn3 , v120
	.byte	W03
	.byte		N03   , Fn3 , v040
	.byte	W03
	.byte		N02
	.byte	W03
	.byte		N03   , Fn3 , v020
	.byte	W03
	.byte		N02   , En3 , v120
	.byte	W03
	.byte		N03   , En3 , v040
	.byte	W03
	.byte		N02
	.byte	W03
	.byte		N03   , En3 , v020
	.byte	W03
	.byte		N02   , Cn3 , v120
	.byte	W03
	.byte		N03   , Cn3 , v040
	.byte	W03
	.byte		N02
	.byte	W03
	.byte		N03   , Cn3 , v020
	.byte	W03
	.byte		N02   , Bn2 , v120
	.byte	W03
	.byte		N03   , Bn2 , v040
	.byte	W03
	.byte		N02
	.byte	W03
	.byte		N03   , Bn2 , v020
	.byte	W03
	.byte	PEND
	.byte	W96
	.byte	W96
	.byte	W96
	.byte	PATT
	 .word	seq_113_9 + 0x32
	.byte	W96
	.byte	PATT
	 .word	seq_113_9 + 0x32
	.byte	W96
	.byte	PATT
	 .word	seq_113_9 + 0x89
	.byte	W96
	.byte	W96
	.byte	W22
	.byte		MOD   , 60
	.byte	W01
	.byte		PAN   , c_v-64
	.byte	W01
	.byte		N02   , Fs3 , v120
	.byte	W02
	.byte		N01   , Fs3 , v040
	.byte	W01
	.byte		N02   , An3 , v120
	.byte	W02
	.byte		N01   , An3 , v040
	.byte	W01
	.byte		N02   , Cn4 , v120
	.byte	W02
	.byte		N01   , Cn4 , v040
	.byte	W01
	.byte		N02   , Ds4 , v120
	.byte	W02
	.byte		PAN   , c_v+63
	.byte	W01
	.byte		N02   , Fs3 , v060
	.byte	W02
	.byte		N01   , Fs3 , v040
	.byte	W01
	.byte		N02   , An3 , v060
	.byte	W02
	.byte		N01   , An3 , v040
	.byte	W01
	.byte		N02   , Cn4 , v060
	.byte	W02
	.byte		N01   , Cn4 , v040
	.byte	W01
	.byte		N02   , Ds4 , v060
	.byte	W02
	.byte		PAN   , c_v-64
	.byte	W01
	.byte		N02   , Fs3 , v040
	.byte	W02
	.byte		N01   , Fs3 , v020
	.byte	W01
	.byte		N02   , An3 , v040
	.byte	W02
	.byte		N01   , An3 , v020
	.byte	W01
	.byte		N02   , Cn4 , v040
	.byte	W02
	.byte		N01   , Cn4 , v020
	.byte	W01
	.byte		N02   , Ds4 , v040
	.byte	W36
	.byte	W03
	.byte	W23
	.byte		PAN   , c_v+63
	.byte	W01
	.byte		N02   , Dn3 , v120
	.byte	W02
	.byte		N01   , Dn3 , v060
	.byte	W01
	.byte		N02   , Fn3 , v120
	.byte	W02
	.byte		N01   , Fn3 , v060
	.byte	W01
	.byte		N02   , An3 , v120
	.byte	W02
	.byte		N01   , An3 , v060
	.byte	W01
	.byte		N02   , Dn4 , v120
	.byte	W02
	.byte		PAN   , c_v-64
	.byte	W01
	.byte		N02   , Dn3 , v060
	.byte	W02
	.byte		N01   , Dn3 , v040
	.byte	W01
	.byte		N02   , Fn3 , v060
	.byte	W02
	.byte		N01   , Fn3 , v040
	.byte	W01
	.byte		N02   , An3 , v060
	.byte	W02
	.byte		N01   , An3 , v040
	.byte	W01
	.byte		N02   , Dn4 , v060
	.byte	W02
	.byte		PAN   , c_v+63
	.byte	W01
	.byte		N02   , Dn3 , v040
	.byte	W02
	.byte		N01   , Dn3 , v020
	.byte	W01
	.byte		N02   , Fn3 , v040
	.byte	W02
	.byte		N01   , Fn3 , v020
	.byte	W01
	.byte		N02   , An3 , v040
	.byte	W02
	.byte		N01   , An3 , v020
	.byte	W01
	.byte		N02   , Dn4 , v040
	.byte	W36
	.byte	W03
	.byte	PEND
	.byte	W23
	.byte		PAN   , c_v-64
	.byte	W01
	.byte		N02   , En3 , v120
	.byte	W02
	.byte		N01   , En3 , v060
	.byte	W01
	.byte		N02   , Gs3 , v120
	.byte	W02
	.byte		N01   , Gs3 , v060
	.byte	W01
	.byte		N02   , Bn3 , v120
	.byte	W02
	.byte		N01   , Bn3 , v060
	.byte	W01
	.byte		N02   , Ds4 , v120
	.byte	W02
	.byte		PAN   , c_v+63
	.byte	W01
	.byte		N02   , En3 , v060
	.byte	W02
	.byte		N01   , En3 , v040
	.byte	W01
	.byte		N02   , Gs3 , v060
	.byte	W02
	.byte		N01   , Gs3 , v040
	.byte	W01
	.byte		N02   , Bn3 , v060
	.byte	W02
	.byte		N01   , Bn3 , v040
	.byte	W01
	.byte		N02   , Ds4 , v060
	.byte	W02
	.byte		PAN   , c_v-64
	.byte	W01
	.byte		N02   , En3 , v040
	.byte	W02
	.byte		N01   , En3 , v020
	.byte	W01
	.byte		N02   , Gs3 , v040
	.byte	W02
	.byte		N01   , Gs3 , v020
	.byte	W01
	.byte		N02   , Bn3 , v040
	.byte	W02
	.byte		N01   , Bn3 , v020
	.byte	W01
	.byte		N02   , Ds4 , v040
	.byte	W36
	.byte	W03
	.byte	PEND
	.byte	W23
	.byte		PAN   , c_v+63
	.byte	W01
	.byte		N02   , Cn3 , v120
	.byte	W02
	.byte		N01   , Cn3 , v060
	.byte	W01
	.byte		N02   , Ds3 , v120
	.byte	W02
	.byte		N01   , Ds3 , v060
	.byte	W01
	.byte		N02   , Gn3 , v120
	.byte	W02
	.byte		N01   , Gn3 , v060
	.byte	W01
	.byte		N02   , Ds4 , v120
	.byte	W02
	.byte		PAN   , c_v-64
	.byte	W01
	.byte		N02   , Cn3 , v060
	.byte	W02
	.byte		N01   , Cn3 , v040
	.byte	W01
	.byte		N02   , Ds3 , v060
	.byte	W02
	.byte		N01   , Ds3 , v040
	.byte	W01
	.byte		N02   , Gn3 , v060
	.byte	W02
	.byte		N01   , Gn3 , v040
	.byte	W01
	.byte		N02   , Ds4 , v060
	.byte	W02
	.byte		PAN   , c_v+63
	.byte	W01
	.byte		N02   , Cn3 , v040
	.byte	W02
	.byte		N01   , Cn3 , v020
	.byte	W01
	.byte		N02   , Ds3 , v040
	.byte	W02
	.byte		N01   , Ds3 , v020
	.byte	W01
	.byte		N02   , Gn3 , v040
	.byte	W02
	.byte		N01   , Gn3 , v020
	.byte	W01
	.byte		N02   , Ds4 , v040
	.byte	W36
	.byte	W03
	.byte	PEND
	.byte	W23
	.byte		PAN   , c_v-64
	.byte	W01
	.byte		N02   , Fs3 , v120
	.byte	W02
	.byte		N01   , Fs3 , v040
	.byte	W01
	.byte		N02   , An3 , v120
	.byte	W02
	.byte		N01   , An3 , v040
	.byte	W01
	.byte		N02   , Cn4 , v120
	.byte	W02
	.byte		N01   , Cn4 , v040
	.byte	W01
	.byte		N02   , Ds4 , v120
	.byte	W02
	.byte		PAN   , c_v+63
	.byte	W01
	.byte		N02   , Fs3 , v060
	.byte	W02
	.byte		N01   , Fs3 , v040
	.byte	W01
	.byte		N02   , An3 , v060
	.byte	W02
	.byte		N01   , An3 , v040
	.byte	W01
	.byte		N02   , Cn4 , v060
	.byte	W02
	.byte		N01   , Cn4 , v040
	.byte	W01
	.byte		N02   , Ds4 , v060
	.byte	W02
	.byte		PAN   , c_v-64
	.byte	W01
	.byte		N02   , Fs3 , v040
	.byte	W02
	.byte		N01   , Fs3 , v020
	.byte	W01
	.byte		N02   , An3 , v040
	.byte	W02
	.byte		N01   , An3 , v020
	.byte	W01
	.byte		N02   , Cn4 , v040
	.byte	W02
	.byte		N01   , Cn4 , v020
	.byte	W01
	.byte		N02   , Ds4 , v040
	.byte	W36
	.byte	W03
	.byte	PATT
	 .word	seq_113_9 + 0x149
	.byte	PATT
	 .word	seq_113_9 + 0x1A9
	.byte	PATT
	 .word	seq_113_9 + 0x209
	.byte	W23
	.byte		PAN   , c_v-64
	.byte	W01
	.byte		N02   , Cn3 , v120
	.byte	W02
	.byte		N01   , Cn3 , v060
	.byte	W01
	.byte		N02   , Ds3 , v120
	.byte	W02
	.byte		N01   , Ds3 , v060
	.byte	W01
	.byte		N02   , Fs3 , v120
	.byte	W02
	.byte		N01   , Fs3 , v060
	.byte	W01
	.byte		N02   , Ds4 , v120
	.byte	W02
	.byte		PAN   , c_v+63
	.byte	W01
	.byte		N02   , Cn3 , v060
	.byte	W02
	.byte		N01   , Cn3 , v040
	.byte	W01
	.byte		N02   , Ds3 , v060
	.byte	W02
	.byte		N01   , Ds3 , v040
	.byte	W01
	.byte		N02   , Fs3 , v060
	.byte	W02
	.byte		N01   , Fs3 , v040
	.byte	W01
	.byte		N02   , Ds4 , v060
	.byte	W02
	.byte		PAN   , c_v-64
	.byte	W01
	.byte		N02   , Cn3 , v040
	.byte	W02
	.byte		N01   , Cn3 , v020
	.byte	W01
	.byte		N02   , Ds3 , v040
	.byte	W02
	.byte		N01   , Ds3 , v020
	.byte	W01
	.byte		N02   , Fs3 , v040
	.byte	W02
	.byte		N01   , Fs3 , v020
	.byte	W01
	.byte		N02   , Ds4 , v040
	.byte	W02
	.byte		PAN   , c_v+63
	.byte	W01
	.byte		N02   , Cn3 
	.byte	W02
	.byte		N01   , Cn3 , v020
	.byte	W01
	.byte		N02   , Ds3 , v040
	.byte	W02
	.byte		N01   , Ds3 , v020
	.byte	W01
	.byte		N02   , Fs3 , v040
	.byte	W02
	.byte		N01   , Fs3 , v020
	.byte	W01
	.byte		N02   , Ds4 , v040
	.byte	W24
	.byte	W03
	.byte	W11
	.byte		PAN   , c_v+0
	.byte	W01
	.byte		N06   , Cn4 , v120
	.byte	W06
	.byte		        Cn4 , v040
	.byte	W06
	.byte		        An3 , v120
	.byte	W06
	.byte		        An3 , v040
	.byte	W06
	.byte		        Fs3 , v120
	.byte	W06
	.byte		        Fs3 , v040
	.byte	W06
	.byte		        Ds3 , v120
	.byte	W06
	.byte		        Ds3 , v040
	.byte	W06
	.byte		        Cn3 , v120
	.byte	W06
	.byte		        Cn3 , v040
	.byte	W06
	.byte		        An2 , v120
	.byte	W06
	.byte		        An2 , v040
	.byte	W06
	.byte		        Fs2 , v120
	.byte	W06
	.byte		        Fs2 , v040
	.byte	W04
	.byte		MOD   , 0
	.byte	W02
	.byte	GOTO
	 .word	seq_113_9 + 0x31
	.byte	FINE

@*********************** Track 11 ***********************@

seq_113_10:
	.byte	KEYSH , seq_113_key+0
	.byte	W18
	.byte		VOICE , 112
	.byte	W01
	.byte		VOL   , 29*seq_113_mvl/mxv
	.byte	W01
	.byte		PAN   , c_v+0
	.byte	W04
	.byte	W12
	.byte		N02   , Cn4 , v100
	.byte	W06
	.byte		        Cn4 , v080
	.byte	W12
	.byte		        Cn4 , v100
	.byte	W06
	.byte		        Cn4 , v080
	.byte	W06
	.byte		N02
	.byte	W06
	.byte		N02
	.byte	W06
	.byte		        Bn3 
	.byte	W06
	.byte		        Cn4 
	.byte	W06
	.byte		        Bn3 
	.byte	W06
	.byte		N14   , Cn4 , v100
	.byte	W24
	.byte		N02   , An4 , v120
	.byte	W12
	.byte		        An4 , v080
	.byte	W12
	.byte		        An4 , v120
	.byte	W12
	.byte		        An4 , v080
	.byte	W06
	.byte		N01   , An4 , v060
	.byte	W06
	.byte		N02   , An4 , v120
	.byte	W12
	.byte		        An4 , v080
	.byte	W12
	.byte		        An4 , v120
	.byte	W12
	.byte		        An4 , v080
	.byte	W06
	.byte		N01   , An4 , v060
	.byte	W06
	.byte	PEND
	.byte		N09   , Dn3 , v120
	.byte	W09
	.byte		N03   , Dn3 , v060
	.byte	W03
	.byte		N09   , Dn3 , v120
	.byte	W09
	.byte		N03   , Dn3 , v060
	.byte	W03
	.byte		N02   , An4 , v100
	.byte	W12
	.byte		        An4 , v080
	.byte	W06
	.byte		N01   , An4 , v060
	.byte	W06
	.byte		N02   , An4 , v100
	.byte	W12
	.byte		        An4 , v040
	.byte	W06
	.byte		        An4 , v060
	.byte	W06
	.byte		        An4 , v080
	.byte	W06
	.byte		        An4 , v100
	.byte	W06
	.byte		N02
	.byte	W06
	.byte		        An4 , v120
	.byte	W06
	.byte	PEND
	.byte	PATT
	 .word	seq_113_10 + 0x28
	.byte	PATT
	 .word	seq_113_10 + 0x4B
	.byte	PATT
	 .word	seq_113_10 + 0x28
	.byte	PATT
	 .word	seq_113_10 + 0x4B
	.byte	PATT
	 .word	seq_113_10 + 0x28
	.byte		N02   , An4 , v120
	.byte	W12
	.byte		N09   , Dn3 
	.byte	W09
	.byte		N03   , Dn3 , v060
	.byte	W03
	.byte		N02   , An4 , v100
	.byte	W12
	.byte		        An4 , v080
	.byte	W06
	.byte		N01   , An4 , v060
	.byte	W06
	.byte		N02   , An4 , v100
	.byte	W12
	.byte		        An4 , v040
	.byte	W06
	.byte		        An4 , v060
	.byte	W06
	.byte		        An4 , v080
	.byte	W06
	.byte		        An4 , v100
	.byte	W06
	.byte		N02
	.byte	W06
	.byte		        An4 , v120
	.byte	W06
	.byte	PATT
	 .word	seq_113_10 + 0x28
	.byte	PATT
	 .word	seq_113_10 + 0x4B
	.byte	PATT
	 .word	seq_113_10 + 0x28
	.byte	PATT
	 .word	seq_113_10 + 0x4B
	.byte	PATT
	 .word	seq_113_10 + 0x28
	.byte	PATT
	 .word	seq_113_10 + 0x4B
	.byte	PATT
	 .word	seq_113_10 + 0x28
	.byte	PATT
	 .word	seq_113_10 + 0x4B
	.byte		N12   , An4 , v120
	.byte	W12
	.byte		N02   , An4 , v080
	.byte	W12
	.byte		        An4 , v120
	.byte	W12
	.byte		        An4 , v080
	.byte	W06
	.byte		N01   , An4 , v060
	.byte	W06
	.byte		N02   , An4 , v120
	.byte	W12
	.byte		        An4 , v080
	.byte	W12
	.byte		        An4 , v120
	.byte	W12
	.byte		        An4 , v080
	.byte	W06
	.byte		N01   , An4 , v060
	.byte	W06
	.byte	PEND
	.byte		N09   , Dn3 , v120
	.byte	W09
	.byte		N03   , Dn3 , v060
	.byte	W03
	.byte		N09   , Dn3 , v120
	.byte	W09
	.byte		N03   , Dn3 , v060
	.byte	W03
	.byte		N02   , An4 , v100
	.byte	W12
	.byte		        An4 , v080
	.byte	W06
	.byte		N01   , An4 , v060
	.byte	W06
	.byte		N02   , An4 , v120
	.byte	W12
	.byte		        An4 , v080
	.byte	W12
	.byte		        An4 , v120
	.byte	W12
	.byte		        An4 , v080
	.byte	W06
	.byte		N01   , An4 , v060
	.byte	W06
	.byte	PEND
	.byte	PATT
	 .word	seq_113_10 + 0x28
	.byte	PATT
	 .word	seq_113_10 + 0x10C
	.byte	PATT
	 .word	seq_113_10 + 0xE8
	.byte	PATT
	 .word	seq_113_10 + 0x10C
	.byte	PATT
	 .word	seq_113_10 + 0x28
	.byte	PATT
	 .word	seq_113_10 + 0x10C
	.byte	PATT
	 .word	seq_113_10 + 0x28
	.byte		N09   , Dn3 , v120
	.byte	W09
	.byte		N03   , Dn3 , v060
	.byte	W03
	.byte		N09   , Dn3 , v120
	.byte	W09
	.byte		N03   , Dn3 , v060
	.byte	W03
	.byte		N02   , An4 , v100
	.byte	W12
	.byte		        An4 , v080
	.byte	W06
	.byte		N01   , An4 , v060
	.byte	W06
	.byte		N02   , An4 , v120
	.byte	W12
	.byte		N06   , An4 , v080
	.byte	W06
	.byte		N03   , An4 , v040
	.byte	W06
	.byte		N06   , An4 , v120
	.byte	W06
	.byte		        Ds4 , v100
	.byte	W06
	.byte		        An3 , v080
	.byte	W06
	.byte		        Ds3 , v060
	.byte	W06
	.byte	GOTO
	 .word	seq_113_10 + 0x28
	.byte	FINE

@******************************************************@

	.align	2

seq_113:
	.byte	11	@ NumTrks
	.byte	0	@ NumBlks
	.byte	seq_113_pri	@ Priority
	.byte	seq_113_rev	@ Reverb

	.word	seq_113_grp

	.word	seq_113_0
	.word	seq_113_1
	.word	seq_113_2
	.word	seq_113_3
	.word	seq_113_4
	.word	seq_113_5
	.word	seq_113_6
	.word	seq_113_7
	.word	seq_113_8
	.word	seq_113_9
	.word	seq_113_10

	.end
