@ File generated by m4a2s Song-Module
	.include "MPlayDef.s"

	.equ	seq_116_grp, bank_014
	.equ	seq_116_pri, 50
	.equ	seq_116_rev, 178
	.equ	seq_116_mvl, 127
	.equ	seq_116_key, 0

	.section .rodata
	.global	seq_116
	.align	2

@*********************** Track 01 ***********************@

seq_116_0:
	.byte	KEYSH , seq_116_key+0
	.byte	TEMPO , 240/2
	.byte		VOICE , 127
	.byte	W01
	.byte		VOL   , 89*seq_116_mvl/mxv
	.byte	W01
	.byte		PAN   , c_v+0
	.byte	W10
	.byte	TEMPO , 100/2
	.byte	W12
	.byte		N03   , Bn6 , v120
	.byte	W07
	.byte		        Bn6 , v060
	.byte	W07
	.byte		N02   , Dn6 , v020
	.byte	W02
	.byte		        Dn6 , v040
	.byte	W02
	.byte		        Dn6 , v060
	.byte	W02
	.byte		        Dn6 , v080
	.byte	W02
	.byte		        Dn6 , v100
	.byte	W02
	.byte		N03   , Dn6 , v120
	.byte	W07
	.byte		        Bn6 , v060
	.byte	W05
	.byte		        Ds6 , v100
	.byte	W07
	.byte		        Bn6 , v040
	.byte	W12
	.byte		        Bn6 , v060
	.byte	W05
	.byte		        Cs6 , v080
	.byte	W07
	.byte		        Bn6 , v120
	.byte	W05
	.byte		        Ds6 , v100
	.byte	W07
	.byte		        Bn6 , v040
	.byte	W05
	.byte		        Cn7 , v060
	.byte	W07
	.byte		        Bn6 , v080
	.byte	W05
	.byte	PEND
	.byte	PATT
	 .word	seq_116_0 + 0x10
	.byte	PATT
	 .word	seq_116_0 + 0x10
	.byte	PATT
	 .word	seq_116_0 + 0x10
	.byte	PATT
	 .word	seq_116_0 + 0x10
	.byte	PATT
	 .word	seq_116_0 + 0x10
	.byte	PATT
	 .word	seq_116_0 + 0x10
	.byte	PATT
	 .word	seq_116_0 + 0x10
	.byte	PATT
	 .word	seq_116_0 + 0x10
	.byte	PATT
	 .word	seq_116_0 + 0x10
	.byte	PATT
	 .word	seq_116_0 + 0x10
	.byte	PATT
	 .word	seq_116_0 + 0x10
	.byte	PATT
	 .word	seq_116_0 + 0x10
	.byte	PATT
	 .word	seq_116_0 + 0x10
	.byte	PATT
	 .word	seq_116_0 + 0x10
	.byte	PATT
	 .word	seq_116_0 + 0x10
	.byte	GOTO
	 .word	seq_116_0 + 0x10
	.byte	FINE

@*********************** Track 02 ***********************@

seq_116_1:
	.byte	KEYSH , seq_116_key+0
	.byte		VOICE , 11
	.byte	W01
	.byte		VOL   , 89*seq_116_mvl/mxv
	.byte	W01
	.byte		PAN   , c_v-24
	.byte	W01
	.byte		LFOS  , 30
	.byte	W01
	.byte		MODT  , mod_vib
	.byte	W01
	.byte		LFODL , 0
	.byte	W19
	.byte	W01
	.byte		N02   , Dn4 , v080
	.byte	W03
	.byte		        Dn4 , v020
	.byte	W03
	.byte		        Dn3 , v120
	.byte	W03
	.byte		        Dn3 , v060
	.byte	W03
	.byte		        Gn3 , v080
	.byte	W03
	.byte		        Gn3 , v020
	.byte	W03
	.byte		        Dn4 , v120
	.byte	W03
	.byte		        Dn4 , v060
	.byte	W03
	.byte		        Cn4 , v080
	.byte	W03
	.byte		        Cn4 , v020
	.byte	W03
	.byte		        Fn3 , v120
	.byte	W03
	.byte		        Fn3 , v060
	.byte	W03
	.byte		        Gn3 , v080
	.byte	W03
	.byte		        Gn3 , v020
	.byte	W03
	.byte		        Dn4 , v120
	.byte	W03
	.byte		        Dn4 , v060
	.byte	W03
	.byte		        Cn4 , v080
	.byte	W03
	.byte		        Cn4 , v020
	.byte	W03
	.byte		        Dn4 , v120
	.byte	W03
	.byte		        Dn4 , v060
	.byte	W03
	.byte		        Gn3 , v080
	.byte	W03
	.byte		        Gn3 , v020
	.byte	W03
	.byte		        Dn4 , v120
	.byte	W03
	.byte		        Dn4 , v060
	.byte	W03
	.byte		        An3 , v080
	.byte	W03
	.byte		        An3 , v020
	.byte	W03
	.byte		        Cn4 , v120
	.byte	W03
	.byte		        Cn4 , v060
	.byte	W03
	.byte		        Gn3 , v080
	.byte	W03
	.byte		        Gn3 , v020
	.byte	W03
	.byte		        Dn3 , v120
	.byte	W03
	.byte		        Dn3 , v060
	.byte	W02
	.byte	PEND
	.byte	PATT
	 .word	seq_116_1 + 0x14
	.byte	PATT
	 .word	seq_116_1 + 0x14
	.byte	PATT
	 .word	seq_116_1 + 0x14
	.byte	PATT
	 .word	seq_116_1 + 0x14
	.byte	PATT
	 .word	seq_116_1 + 0x14
	.byte	PATT
	 .word	seq_116_1 + 0x14
	.byte	PATT
	 .word	seq_116_1 + 0x14
	.byte	PATT
	 .word	seq_116_1 + 0x14
	.byte	PATT
	 .word	seq_116_1 + 0x14
	.byte	PATT
	 .word	seq_116_1 + 0x14
	.byte	PATT
	 .word	seq_116_1 + 0x14
	.byte	PATT
	 .word	seq_116_1 + 0x14
	.byte	PATT
	 .word	seq_116_1 + 0x14
	.byte	PATT
	 .word	seq_116_1 + 0x14
	.byte	PATT
	 .word	seq_116_1 + 0x14
	.byte	GOTO
	 .word	seq_116_1 + 0x14
	.byte	FINE

@*********************** Track 03 ***********************@

seq_116_2:
	.byte	KEYSH , seq_116_key+0
	.byte		VOICE , 29
	.byte	W01
	.byte		VOL   , 74*seq_116_mvl/mxv
	.byte	W01
	.byte		PAN   , c_v+0
	.byte	W01
	.byte		LFOS  , 20
	.byte	W01
	.byte		MODT  , mod_tre
	.byte	W01
	.byte		LFODL , 0
	.byte	W19
	.byte	W96
	.byte	W96
	.byte	W96
	.byte	W96
	.byte	W36
	.byte	W01
	.byte		N66   , Gn2 , v120
	.byte	W05
	.byte		BEND  , c_v+9
	.byte	W02
	.byte		        c_v+23
	.byte	W02
	.byte		        c_v+32
	.byte	W02
	.byte		        c_v+40
	.byte	W02
	.byte		        c_v+47
	.byte	W01
	.byte		        c_v+37
	.byte	W01
	.byte		        c_v+17
	.byte	W01
	.byte		        c_v+0
	.byte	W24
	.byte	W03
	.byte		MOD   , 40
	.byte	W16
	.byte	W07
	.byte		N24   , Gn2 , v060
	.byte	W24
	.byte		        Gn2 , v040
	.byte	W24
	.byte		N18   , Gn2 , v020
	.byte	W16
	.byte		MOD   , 0
	.byte	W01
	.byte		BEND  , c_v-51
	.byte	W01
	.byte		N24   , Cn3 , v120
	.byte	W01
	.byte		BEND  , c_v-37
	.byte	W01
	.byte		        c_v-18
	.byte	W01
	.byte		VOL   , 67*seq_116_mvl/mxv
	.byte	W02
	.byte		        59*seq_116_mvl/mxv
	.byte	W01
	.byte		BEND  , c_v+0
	.byte	W02
	.byte		VOL   , 67*seq_116_mvl/mxv
	.byte	W03
	.byte		        59*seq_116_mvl/mxv
	.byte	W04
	.byte		        67*seq_116_mvl/mxv
	.byte	W03
	.byte		        74*seq_116_mvl/mxv
	.byte	W05
	.byte		        67*seq_116_mvl/mxv
	.byte	W01
	.byte		N96   , Fn2 , v100
	.byte	W15
	.byte		VOL   , 59*seq_116_mvl/mxv
	.byte	W06
	.byte		MOD   , 20
	.byte	W01
	.byte		VOL   , 52*seq_116_mvl/mxv
	.byte	W04
	.byte		MOD   , 40
	.byte	W10
	.byte		VOL   , 59*seq_116_mvl/mxv
	.byte	W09
	.byte		MOD   , 60
	.byte	W04
	.byte		VOL   , 52*seq_116_mvl/mxv
	.byte	W03
	.byte		MOD   , 70
	.byte	W07
	.byte		VOL   , 44*seq_116_mvl/mxv
	.byte	W05
	.byte		        37*seq_116_mvl/mxv
	.byte	W06
	.byte		        29*seq_116_mvl/mxv
	.byte	W06
	.byte		        22*seq_116_mvl/mxv
	.byte	W06
	.byte		        14*seq_116_mvl/mxv
	.byte	W06
	.byte		        7*seq_116_mvl/mxv
	.byte	W01
	.byte		        0*seq_116_mvl/mxv
	.byte	W06
	.byte	W06
	.byte		MOD   , 0
	.byte	W01
	.byte		VOL   , 74*seq_116_mvl/mxv
	.byte	W01
	.byte		N12   , Cn4 , v080
	.byte	W02
	.byte		BEND  , c_v+0
	.byte	W02
	.byte		        c_v+25
	.byte	W01
	.byte		        c_v+38
	.byte	W01
	.byte		        c_v+50
	.byte	W01
	.byte		        c_v+59
	.byte	W01
	.byte		        c_v+33
	.byte	W01
	.byte		        c_v+16
	.byte	W01
	.byte		        c_v+0
	.byte	W02
	.byte		N05   , Gn3 , v100
	.byte	W05
	.byte		N04   , Cn3 
	.byte	W04
	.byte		N08   , Cn3 , v040
	.byte	W08
	.byte		N19   , Fn3 , v120
	.byte	W09
	.byte		BEND  , c_v+12
	.byte	W01
	.byte		        c_v+25
	.byte	W01
	.byte		        c_v+10
	.byte	W01
	.byte		        c_v+5
	.byte	W01
	.byte		        c_v+0
	.byte	W06
	.byte		N05   , Gn3 
	.byte	W05
	.byte		N04   , Dn3 , v100
	.byte	W04
	.byte		N08   , Dn3 , v040
	.byte	W08
	.byte		N04   , Cn3 , v100
	.byte	W04
	.byte		N08   , Cn3 , v040
	.byte	W08
	.byte		TIE   , Dn3 , v120
	.byte	W09
	.byte		BEND  , c_v+11
	.byte	W01
	.byte		        c_v+29
	.byte	W01
	.byte		        c_v+41
	.byte	W01
	.byte		        c_v+18
	.byte	W01
	.byte		        c_v+5
	.byte	W01
	.byte		        c_v+0
	.byte	W17
	.byte		MOD   , 20
	.byte	W12
	.byte		VOL   , 67*seq_116_mvl/mxv
	.byte	W07
	.byte		        59*seq_116_mvl/mxv
	.byte	W04
	.byte		MOD   , 40
	.byte	W03
	.byte		VOL   , 52*seq_116_mvl/mxv
	.byte	W07
	.byte		        44*seq_116_mvl/mxv
	.byte	W07
	.byte		        37*seq_116_mvl/mxv
	.byte	W08
	.byte		        29*seq_116_mvl/mxv
	.byte	W04
	.byte		MOD   , 60
	.byte	W03
	.byte		VOL   , 22*seq_116_mvl/mxv
	.byte	W07
	.byte		        14*seq_116_mvl/mxv
	.byte	W07
	.byte		        7*seq_116_mvl/mxv
	.byte	W06
	.byte		        0*seq_116_mvl/mxv
	.byte	W01
	.byte	W01
	.byte		EOT
	.byte	W92
	.byte	W03
	.byte	W96
	.byte	W96
	.byte	W96
	.byte	W96
	.byte	W96
	.byte	W88
	.byte	W01
	.byte		VOL   , 74*seq_116_mvl/mxv
	.byte	W07
	.byte	GOTO
	 .word	seq_116_2 + 0x14
	.byte	FINE

@*********************** Track 04 ***********************@

seq_116_3:
	.byte	KEYSH , seq_116_key+0
	.byte	W06
	.byte		VOICE , 124
	.byte	W01
	.byte		VOL   , 59*seq_116_mvl/mxv
	.byte	W01
	.byte		PAN   , c_v+26
	.byte	W01
	.byte		LFOS  , 80
	.byte	W01
	.byte		MODT  , mod_pan
	.byte	W01
	.byte		MOD   , 100
	.byte	W13
	.byte		N03   , As4 , v120
	.byte	W07
	.byte		        As4 , v020
	.byte	W05
	.byte		        As4 , v040
	.byte	W07
	.byte		        As4 , v020
	.byte	W05
	.byte		        As4 , v120
	.byte	W07
	.byte		        As4 , v020
	.byte	W05
	.byte		        As4 , v040
	.byte	W07
	.byte		        As4 , v020
	.byte	W05
	.byte		        As4 , v120
	.byte	W07
	.byte		        As4 , v020
	.byte	W05
	.byte		        As4 , v040
	.byte	W07
	.byte		        As4 , v020
	.byte	W05
	.byte		        As4 , v120
	.byte	W07
	.byte		        As4 , v020
	.byte	W05
	.byte		        As4 , v040
	.byte	W07
	.byte		        As4 , v020
	.byte	W05
	.byte	PEND
	.byte		N03   , As4 , v080
	.byte	W07
	.byte		        As4 , v020
	.byte	W05
	.byte		        As4 , v040
	.byte	W07
	.byte		        As4 , v020
	.byte	W05
	.byte		        As4 , v080
	.byte	W07
	.byte		        As4 , v020
	.byte	W05
	.byte		        As4 , v040
	.byte	W07
	.byte		        As4 , v020
	.byte	W05
	.byte		        As4 , v080
	.byte	W07
	.byte		        As4 , v020
	.byte	W05
	.byte		        As4 , v040
	.byte	W07
	.byte		        As4 , v020
	.byte	W05
	.byte		        As4 , v080
	.byte	W07
	.byte		        As4 , v020
	.byte	W05
	.byte		        As4 , v040
	.byte	W07
	.byte		        As4 , v020
	.byte	W05
	.byte	PEND
	.byte	PATT
	 .word	seq_116_3 + 0x15
	.byte	PATT
	 .word	seq_116_3 + 0x47
	.byte	PATT
	 .word	seq_116_3 + 0x15
	.byte	PATT
	 .word	seq_116_3 + 0x47
	.byte	PATT
	 .word	seq_116_3 + 0x15
	.byte	PATT
	 .word	seq_116_3 + 0x47
	.byte	PATT
	 .word	seq_116_3 + 0x15
	.byte	PATT
	 .word	seq_116_3 + 0x47
	.byte	PATT
	 .word	seq_116_3 + 0x15
	.byte	PATT
	 .word	seq_116_3 + 0x47
	.byte	PATT
	 .word	seq_116_3 + 0x15
	.byte	PATT
	 .word	seq_116_3 + 0x47
	.byte	PATT
	 .word	seq_116_3 + 0x15
	.byte	PATT
	 .word	seq_116_3 + 0x47
	.byte	GOTO
	 .word	seq_116_3 + 0x15
	.byte	FINE

@*********************** Track 05 ***********************@

seq_116_4:
	.byte	KEYSH , seq_116_key+0
	.byte	W06
	.byte		VOICE , 11
	.byte	W01
	.byte		VOL   , 52*seq_116_mvl/mxv
	.byte	W01
	.byte		PAN   , c_v+36
	.byte	W01
	.byte		LFOS  , 20
	.byte	W01
	.byte		MODT  , mod_pan
	.byte	W01
	.byte		LFODL , 0
	.byte	W13
	.byte	W09
	.byte		N02   , Dn4 , v120
	.byte	W04
	.byte		        Dn4 , v060
	.byte	W02
	.byte		        Dn3 , v080
	.byte	W04
	.byte		        Dn3 , v020
	.byte	W02
	.byte		        Gn3 , v120
	.byte	W04
	.byte		        Gn3 , v060
	.byte	W02
	.byte		        Dn4 , v080
	.byte	W04
	.byte		        Dn4 , v020
	.byte	W02
	.byte		        Cn4 , v120
	.byte	W04
	.byte		        Cn4 , v060
	.byte	W02
	.byte		        Fn3 , v080
	.byte	W04
	.byte		        Fn3 , v020
	.byte	W02
	.byte		        Gn3 , v120
	.byte	W04
	.byte		        Gn3 , v060
	.byte	W02
	.byte		        Dn4 , v080
	.byte	W04
	.byte		        Dn4 , v020
	.byte	W02
	.byte		        Cn4 , v120
	.byte	W04
	.byte		        Cn4 , v060
	.byte	W02
	.byte		        Dn4 , v080
	.byte	W04
	.byte		        Dn4 , v020
	.byte	W02
	.byte		        Gn3 , v120
	.byte	W04
	.byte		        Gn3 , v060
	.byte	W02
	.byte		        Dn4 , v080
	.byte	W04
	.byte		        Dn4 , v020
	.byte	W02
	.byte		        An3 , v120
	.byte	W04
	.byte		        An3 , v060
	.byte	W02
	.byte		        Cn4 , v080
	.byte	W04
	.byte		        Cn4 , v020
	.byte	W02
	.byte		        Gn3 , v120
	.byte	W03
	.byte	W01
	.byte		N02   , Gn3 , v060
	.byte	W02
	.byte		        Dn3 , v080
	.byte	W04
	.byte		        Dn3 , v020
	.byte	W02
	.byte		        Dn4 , v120
	.byte	W04
	.byte		        Dn4 , v060
	.byte	W02
	.byte		        Dn3 , v080
	.byte	W04
	.byte		        Dn3 , v020
	.byte	W02
	.byte		        Gn3 , v120
	.byte	W04
	.byte		        Gn3 , v060
	.byte	W02
	.byte		        Dn4 , v080
	.byte	W04
	.byte		        Dn4 , v020
	.byte	W02
	.byte		        Cn4 , v120
	.byte	W04
	.byte		        Cn4 , v060
	.byte	W02
	.byte		        Fn3 , v080
	.byte	W04
	.byte		        Fn3 , v020
	.byte	W02
	.byte		        Gn3 , v120
	.byte	W04
	.byte		        Gn3 , v060
	.byte	W02
	.byte		        Dn4 , v080
	.byte	W04
	.byte		        Dn4 , v020
	.byte	W02
	.byte		        Cn4 , v120
	.byte	W04
	.byte		        Cn4 , v060
	.byte	W02
	.byte		        Dn4 , v080
	.byte	W04
	.byte		        Dn4 , v020
	.byte	W02
	.byte		        Gn3 , v120
	.byte	W04
	.byte		        Gn3 , v060
	.byte	W02
	.byte		        Dn4 , v080
	.byte	W04
	.byte		        Dn4 , v020
	.byte	W02
	.byte		        An3 , v120
	.byte	W04
	.byte		        An3 , v060
	.byte	W02
	.byte		        Cn4 , v080
	.byte	W04
	.byte		        Cn4 , v020
	.byte	W02
	.byte		        Gn3 , v120
	.byte	W03
	.byte	PEND
	.byte	PATT
	 .word	seq_116_4 + 0x6E
	.byte	PATT
	 .word	seq_116_4 + 0x6E
	.byte	PATT
	 .word	seq_116_4 + 0x6E
	.byte	PATT
	 .word	seq_116_4 + 0x6E
	.byte	PATT
	 .word	seq_116_4 + 0x6E
	.byte	PATT
	 .word	seq_116_4 + 0x6E
	.byte	PATT
	 .word	seq_116_4 + 0x6E
	.byte	PATT
	 .word	seq_116_4 + 0x6E
	.byte	PATT
	 .word	seq_116_4 + 0x6E
	.byte	PATT
	 .word	seq_116_4 + 0x6E
	.byte	PATT
	 .word	seq_116_4 + 0x6E
	.byte	PATT
	 .word	seq_116_4 + 0x6E
	.byte	PATT
	 .word	seq_116_4 + 0x6E
	.byte	PATT
	 .word	seq_116_4 + 0x6E
	.byte	GOTO
	 .word	seq_116_4 + 0x15
	.byte	FINE

@*********************** Track 06 ***********************@

seq_116_5:
	.byte	KEYSH , seq_116_key+0
	.byte	W06
	.byte		VOICE , 17
	.byte	W01
	.byte		VOL   , 59*seq_116_mvl/mxv
	.byte	W01
	.byte		PAN   , c_v+0
	.byte	W01
	.byte		LFOS  , 20
	.byte	W01
	.byte		MODT  , mod_pan
	.byte	W01
	.byte		BENDR , 12
	.byte	W13
	.byte		N03   , Gn1 , v120
	.byte	W07
	.byte		        Gn1 , v020
	.byte	W05
	.byte		        Gn1 , v040
	.byte	W07
	.byte		        Gn1 , v020
	.byte	W05
	.byte		        Gn1 , v120
	.byte	W07
	.byte		        Gn1 , v020
	.byte	W05
	.byte		        Gn1 , v040
	.byte	W07
	.byte		        Gn1 , v020
	.byte	W05
	.byte		        Gn1 , v120
	.byte	W07
	.byte		        Gn1 , v020
	.byte	W05
	.byte		        Gn1 , v040
	.byte	W07
	.byte		        Gn1 , v020
	.byte	W05
	.byte		        Gn1 , v120
	.byte	W07
	.byte		        Gn1 , v020
	.byte	W05
	.byte		        Gn1 , v040
	.byte	W07
	.byte		        Gn1 , v020
	.byte	W05
	.byte	PEND
	.byte		N03   , Gn1 , v080
	.byte	W07
	.byte		        Gn1 , v020
	.byte	W05
	.byte		        Gn1 , v040
	.byte	W07
	.byte		        Gn1 , v020
	.byte	W05
	.byte		        Gn1 , v080
	.byte	W07
	.byte		        Gn1 , v020
	.byte	W05
	.byte		        Gn1 , v040
	.byte	W07
	.byte		        Gn1 , v020
	.byte	W05
	.byte		        Gn1 , v080
	.byte	W07
	.byte		        Gn1 , v020
	.byte	W05
	.byte		        Gn1 , v040
	.byte	W07
	.byte		        Gn1 , v020
	.byte	W05
	.byte		        Gn1 , v080
	.byte	W07
	.byte		        Gn1 , v020
	.byte	W05
	.byte		        Gn1 , v040
	.byte	W07
	.byte		        Gn1 , v020
	.byte	W05
	.byte	PEND
	.byte	PATT
	 .word	seq_116_5 + 0x15
	.byte	PATT
	 .word	seq_116_5 + 0x47
	.byte	W96
	.byte	W96
	.byte	W96
	.byte	W96
	.byte	W96
	.byte	PATT
	 .word	seq_116_5 + 0x15
	.byte	PATT
	 .word	seq_116_5 + 0x15
	.byte	PATT
	 .word	seq_116_5 + 0x47
	.byte	PATT
	 .word	seq_116_5 + 0x15
	.byte	PATT
	 .word	seq_116_5 + 0x47
	.byte	PATT
	 .word	seq_116_5 + 0x15
	.byte	PATT
	 .word	seq_116_5 + 0x47
	.byte	GOTO
	 .word	seq_116_5 + 0x15
	.byte	FINE

@*********************** Track 07 ***********************@

seq_116_6:
	.byte	KEYSH , seq_116_key+0
	.byte	W12
	.byte		VOICE , 100
	.byte	W01
	.byte		VOL   , 95*seq_116_mvl/mxv
	.byte	W01
	.byte		PAN   , c_v+0
	.byte	W01
	.byte		LFOS  , 30
	.byte	W01
	.byte		MODT  , mod_vib
	.byte	W01
	.byte		BENDR , 12
	.byte	W01
	.byte		BEND  , c_v-11
	.byte	W06
	.byte		N11   , Dn2 , v120
	.byte	W01
	.byte		BEND  , c_v-8
	.byte	W01
	.byte		        c_v-7
	.byte	W01
	.byte		        c_v-6
	.byte	W01
	.byte		        c_v-5
	.byte	W01
	.byte		        c_v-5
	.byte	W04
	.byte		        c_v+0
	.byte	W03
	.byte		N01
	.byte	W01
	.byte		        Dn2 , v040
	.byte	W06
	.byte		N02   , Dn2 , v120
	.byte	W02
	.byte		N03   , Dn2 , v040
	.byte	W10
	.byte		N05   , Dn2 , v060
	.byte	W05
	.byte		N11   , Cn2 , v120
	.byte	W08
	.byte		MOD   , 20
	.byte	W03
	.byte		        0
	.byte	W01
	.byte		N04   , Dn2 
	.byte	W04
	.byte		N03   , Dn2 , v040
	.byte	W36
	.byte	W03
	.byte		N05   , Cn2 , v120
	.byte	W04
	.byte		BEND  , c_v-11
	.byte	W01
	.byte	PEND
	.byte	PATT
	 .word	seq_116_6 + 0x18
	.byte	PATT
	 .word	seq_116_6 + 0x18
	.byte	PATT
	 .word	seq_116_6 + 0x18
	.byte	PATT
	 .word	seq_116_6 + 0x18
	.byte	PATT
	 .word	seq_116_6 + 0x18
	.byte	PATT
	 .word	seq_116_6 + 0x18
	.byte	PATT
	 .word	seq_116_6 + 0x18
	.byte	PATT
	 .word	seq_116_6 + 0x18
	.byte	PATT
	 .word	seq_116_6 + 0x18
	.byte	PATT
	 .word	seq_116_6 + 0x18
	.byte	PATT
	 .word	seq_116_6 + 0x18
	.byte	PATT
	 .word	seq_116_6 + 0x18
	.byte	PATT
	 .word	seq_116_6 + 0x18
	.byte	PATT
	 .word	seq_116_6 + 0x18
	.byte	PATT
	 .word	seq_116_6 + 0x18
	.byte	GOTO
	 .word	seq_116_6 + 0x18
	.byte	FINE

@*********************** Track 08 ***********************@

seq_116_7:
	.byte	KEYSH , seq_116_key+0
	.byte	W12
	.byte		VOICE , 78
	.byte	W01
	.byte		VOL   , 44*seq_116_mvl/mxv
	.byte	W01
	.byte		PAN   , c_v+0
	.byte	W01
	.byte		LFOS  , 30
	.byte	W01
	.byte		MODT  , mod_vib
	.byte	W01
	.byte		LFODL , 0
	.byte	W07
	.byte	W96
	.byte	W96
	.byte	W96
	.byte	W96
	.byte		N01   , Gn2 , v120
	.byte	W02
	.byte		N02   , Gn2 , v060
	.byte	W02
	.byte		N01   , Gn3 , v040
	.byte	W03
	.byte		        Gn1 , v120
	.byte	W02
	.byte		N02   , Gn1 , v060
	.byte	W02
	.byte		N01   , Gn2 , v040
	.byte	W01
	.byte		        Cn2 , v120
	.byte	W02
	.byte		N02   , Cn2 , v060
	.byte	W02
	.byte		N01   , Cn3 , v040
	.byte	W03
	.byte		        Dn2 , v120
	.byte	W02
	.byte		N02   , Dn2 , v060
	.byte	W02
	.byte		N01   , Dn3 , v040
	.byte	W01
	.byte		        Gn2 , v120
	.byte	W02
	.byte		N02   , Gn2 , v060
	.byte	W02
	.byte		N01   , Gn3 , v040
	.byte	W03
	.byte		        Gn1 , v120
	.byte	W02
	.byte		N02   , Gn1 , v060
	.byte	W02
	.byte		N01   , Gn2 , v040
	.byte	W01
	.byte		        Cn2 , v120
	.byte	W02
	.byte		N02   , Cn2 , v060
	.byte	W02
	.byte		N01   , Cn3 , v040
	.byte	W03
	.byte		        Dn2 , v120
	.byte	W02
	.byte		N02   , Dn2 , v060
	.byte	W02
	.byte		N01   , Dn3 , v040
	.byte	W01
	.byte		        Gn2 , v120
	.byte	W02
	.byte		N02   , Gn2 , v060
	.byte	W02
	.byte		N01   , Gn3 , v040
	.byte	W03
	.byte		        Gn1 , v120
	.byte	W02
	.byte		N02   , Gn1 , v060
	.byte	W02
	.byte		N01   , Gn2 , v040
	.byte	W01
	.byte		        Cn2 , v120
	.byte	W02
	.byte		N02   , Cn2 , v060
	.byte	W02
	.byte		N01   , Cn3 , v040
	.byte	W03
	.byte		        Dn2 , v120
	.byte	W02
	.byte		N02   , Dn2 , v060
	.byte	W02
	.byte		N01   , Dn3 , v040
	.byte	W01
	.byte		        Gn2 , v120
	.byte	W02
	.byte		N02   , Gn2 , v060
	.byte	W02
	.byte		N01   , Gn3 , v040
	.byte	W03
	.byte		        Gn1 , v120
	.byte	W02
	.byte		N02   , Gn1 , v060
	.byte	W02
	.byte		N01   , Gn2 , v040
	.byte	W01
	.byte		        Cn2 , v120
	.byte	W02
	.byte		N02   , Cn2 , v060
	.byte	W02
	.byte		N01   , Cn3 , v040
	.byte	W03
	.byte		        Dn2 , v120
	.byte	W02
	.byte		N02   , Dn2 , v060
	.byte	W02
	.byte		N01   , Dn3 , v040
	.byte	W01
	.byte	PEND
	.byte	PATT
	 .word	seq_116_7 + 0x19
	.byte	PATT
	 .word	seq_116_7 + 0x19
	.byte	PATT
	 .word	seq_116_7 + 0x19
	.byte	W96
	.byte	W96
	.byte	W96
	.byte	W96
	.byte	PATT
	 .word	seq_116_7 + 0x19
	.byte	PATT
	 .word	seq_116_7 + 0x19
	.byte	PATT
	 .word	seq_116_7 + 0x19
	.byte	PATT
	 .word	seq_116_7 + 0x19
	.byte	GOTO
	 .word	seq_116_7 + 0x15
	.byte	FINE

@*********************** Track 09 ***********************@

seq_116_8:
	.byte	KEYSH , seq_116_key+0
	.byte	W12
	.byte		VOICE , 88
	.byte	W01
	.byte		VOL   , 37*seq_116_mvl/mxv
	.byte	W01
	.byte		PAN   , c_v+0
	.byte	W01
	.byte		LFOS  , 20
	.byte	W01
	.byte		MODT  , mod_pan
	.byte	W08
	.byte	W96
	.byte	W96
	.byte	W96
	.byte	W96
	.byte		N01   , Gn3 , v120
	.byte	W02
	.byte		N02   , Gn3 , v060
	.byte	W02
	.byte		N01   , Gn4 , v040
	.byte	W03
	.byte		        Gn2 , v120
	.byte	W02
	.byte		N02   , Gn2 , v060
	.byte	W02
	.byte		N01   , Gn3 , v040
	.byte	W01
	.byte		        Cn3 , v120
	.byte	W02
	.byte		N02   , Cn3 , v060
	.byte	W02
	.byte		N01   , Cn4 , v040
	.byte	W03
	.byte		        Dn3 , v120
	.byte	W02
	.byte		N02   , Dn3 , v060
	.byte	W02
	.byte		N01   , Dn4 , v040
	.byte	W01
	.byte		        Gn3 , v120
	.byte	W02
	.byte		N02   , Gn3 , v060
	.byte	W02
	.byte		N01   , Gn4 , v040
	.byte	W03
	.byte		        Gn2 , v120
	.byte	W02
	.byte		N02   , Gn2 , v060
	.byte	W02
	.byte		N01   , Gn3 , v040
	.byte	W01
	.byte		        Cn3 , v120
	.byte	W02
	.byte		N02   , Cn3 , v060
	.byte	W02
	.byte		N01   , Cn4 , v040
	.byte	W03
	.byte		        Dn3 , v120
	.byte	W02
	.byte		N02   , Dn3 , v060
	.byte	W02
	.byte		N01   , Dn4 , v040
	.byte	W01
	.byte		        Gn3 , v120
	.byte	W02
	.byte		N02   , Gn3 , v060
	.byte	W02
	.byte		N01   , Gn4 , v040
	.byte	W03
	.byte		        Gn2 , v120
	.byte	W02
	.byte		N02   , Gn2 , v060
	.byte	W02
	.byte		N01   , Gn3 , v040
	.byte	W01
	.byte		        Cn3 , v120
	.byte	W02
	.byte		N02   , Cn3 , v060
	.byte	W02
	.byte		N01   , Cn4 , v040
	.byte	W03
	.byte		        Dn3 , v120
	.byte	W02
	.byte		N02   , Dn3 , v060
	.byte	W02
	.byte		N01   , Dn4 , v040
	.byte	W01
	.byte		        Gn3 , v120
	.byte	W02
	.byte		N02   , Gn3 , v060
	.byte	W02
	.byte		N01   , Gn4 , v040
	.byte	W03
	.byte		        Gn2 , v120
	.byte	W02
	.byte		N02   , Gn2 , v060
	.byte	W02
	.byte		N01   , Gn3 , v040
	.byte	W01
	.byte		        Cn3 , v120
	.byte	W02
	.byte		N02   , Cn3 , v060
	.byte	W02
	.byte		N01   , Cn4 , v040
	.byte	W03
	.byte		        Dn3 , v120
	.byte	W02
	.byte		N02   , Dn3 , v060
	.byte	W02
	.byte		N01   , Dn4 , v040
	.byte	W01
	.byte	PEND
	.byte	PATT
	 .word	seq_116_8 + 0x16
	.byte	PATT
	 .word	seq_116_8 + 0x16
	.byte	PATT
	 .word	seq_116_8 + 0x16
	.byte	W96
	.byte	W96
	.byte	W96
	.byte	W96
	.byte	PATT
	 .word	seq_116_8 + 0x16
	.byte	PATT
	 .word	seq_116_8 + 0x16
	.byte	PATT
	 .word	seq_116_8 + 0x16
	.byte	PATT
	 .word	seq_116_8 + 0x16
	.byte	GOTO
	 .word	seq_116_8 + 0x12
	.byte	FINE

@*********************** Track 10 ***********************@

seq_116_9:
	.byte	KEYSH , seq_116_key+0
	.byte	W18
	.byte		VOICE , 112
	.byte	W01
	.byte		VOL   , 29*seq_116_mvl/mxv
	.byte	W01
	.byte		PAN   , c_v-64
	.byte	W04
	.byte		N02   , Cn4 , v080
	.byte	W07
	.byte		N01   , Cn4 , v040
	.byte	W05
	.byte		        Cn4 , v060
	.byte	W07
	.byte		        Cn4 , v040
	.byte	W05
	.byte		N02   , Cn4 , v080
	.byte	W07
	.byte		N01   , Cn4 , v040
	.byte	W05
	.byte		        Cn4 , v060
	.byte	W07
	.byte		        Cn4 , v040
	.byte	W05
	.byte		N02   , Cn4 , v080
	.byte	W07
	.byte		N01   , Cn4 , v040
	.byte	W05
	.byte		        Cn4 , v060
	.byte	W07
	.byte		        Cn4 , v040
	.byte	W05
	.byte		N02   , Cn4 , v080
	.byte	W07
	.byte		N01   , Cn4 , v040
	.byte	W05
	.byte		        Cn4 , v060
	.byte	W07
	.byte		        Cn4 , v040
	.byte	W05
	.byte	PEND
	.byte		N02   , Cn4 , v120
	.byte	W07
	.byte		N01   , Cn4 , v040
	.byte	W05
	.byte		        Cn4 , v060
	.byte	W07
	.byte		        Cn4 , v040
	.byte	W05
	.byte		N02   , Cn4 , v120
	.byte	W07
	.byte		N01   , Cn4 , v040
	.byte	W05
	.byte		        Cn4 , v060
	.byte	W07
	.byte		        Cn4 , v040
	.byte	W05
	.byte		N02   , Cn4 , v120
	.byte	W07
	.byte		N01   , Cn4 , v040
	.byte	W05
	.byte		        Cn4 , v060
	.byte	W07
	.byte		        Cn4 , v040
	.byte	W05
	.byte		N02   , Cn4 , v120
	.byte	W07
	.byte		N01   , Cn4 , v040
	.byte	W05
	.byte		        Cn4 , v060
	.byte	W07
	.byte		        Cn4 , v040
	.byte	W05
	.byte	PEND
	.byte	PATT
	 .word	seq_116_9 + 0xC
	.byte	PATT
	 .word	seq_116_9 + 0x45
	.byte	PATT
	 .word	seq_116_9 + 0xC
	.byte	PATT
	 .word	seq_116_9 + 0x45
	.byte	PATT
	 .word	seq_116_9 + 0xC
	.byte	PATT
	 .word	seq_116_9 + 0x45
	.byte	PATT
	 .word	seq_116_9 + 0xC
	.byte	PATT
	 .word	seq_116_9 + 0x45
	.byte	PATT
	 .word	seq_116_9 + 0xC
	.byte	PATT
	 .word	seq_116_9 + 0x45
	.byte	PATT
	 .word	seq_116_9 + 0xC
	.byte	PATT
	 .word	seq_116_9 + 0x45
	.byte	PATT
	 .word	seq_116_9 + 0xC
	.byte	PATT
	 .word	seq_116_9 + 0x45
	.byte	GOTO
	 .word	seq_116_9 + 0xC
	.byte	FINE

@******************************************************@

	.align	2

seq_116:
	.byte	10	@ NumTrks
	.byte	0	@ NumBlks
	.byte	seq_116_pri	@ Priority
	.byte	seq_116_rev	@ Reverb

	.word	seq_116_grp

	.word	seq_116_0
	.word	seq_116_1
	.word	seq_116_2
	.word	seq_116_3
	.word	seq_116_4
	.word	seq_116_5
	.word	seq_116_6
	.word	seq_116_7
	.word	seq_116_8
	.word	seq_116_9

	.end
