@ File generated by m4a2s Song-Module
	.include "MPlayDef.s"

	.equ	seq_036_grp, bank_000
	.equ	seq_036_pri, 50
	.equ	seq_036_rev, 208
	.equ	seq_036_mvl, 127
	.equ	seq_036_key, 0

	.section .rodata
	.global	seq_036
	.align	2

@*********************** Track 01 ***********************@

seq_036_0:
	.byte	KEYSH , seq_036_key+0
	.byte	TEMPO , 82/2
	.byte		VOICE , 1
	.byte		MOD   , 50
	.byte		VOL   , 49*seq_036_mvl/mxv
	.byte	W01
	.byte		PAN   , c_v+0
	.byte		MODT  , mod_pan
	.byte	W23
	.byte	W96
	.byte	W96
	.byte	W96
	.byte	W96
	.byte	W96
	.byte	W96
	.byte	W96
	.byte	W60
	.byte		N02   , Cs5 , v112
	.byte	W03
	.byte		        Cs5 , v068
	.byte	W03
	.byte		        Cs5 , v040
	.byte	W03
	.byte		        Cs5 , v020
	.byte	W03
	.byte		        Cn5 , v112
	.byte	W03
	.byte		        Cn5 , v068
	.byte	W03
	.byte		        Cn5 , v040
	.byte	W03
	.byte		        Cn5 , v020
	.byte	W03
	.byte		        Gs4 , v112
	.byte	W03
	.byte		        Gs4 , v068
	.byte	W03
	.byte		        Gs4 , v040
	.byte	W03
	.byte		        Gs4 , v020
	.byte	W03
	.byte	PEND
	.byte	PATT
	 .word	seq_036_0 + 0x17
	.byte	W60
	.byte		N02   , Cs5 , v112
	.byte	W03
	.byte		        Cs5 , v068
	.byte	W03
	.byte		        Cs5 , v040
	.byte	W03
	.byte		        Cs5 , v020
	.byte	W03
	.byte		        Cn5 , v112
	.byte	W03
	.byte		        Cn5 , v068
	.byte	W03
	.byte		        Cn5 , v040
	.byte	W03
	.byte		        Cn5 , v020
	.byte	W03
	.byte		        Ds5 , v112
	.byte	W03
	.byte		        Ds5 , v068
	.byte	W03
	.byte		        Ds5 , v040
	.byte	W03
	.byte		        Ds5 , v020
	.byte	W03
	.byte	PEND
	.byte	W12
	.byte		        Cs5 , v112
	.byte	W03
	.byte		        Cs5 , v068
	.byte	W03
	.byte		        Cs5 , v040
	.byte	W03
	.byte		        Cs5 , v020
	.byte	W15
	.byte		        Cn5 , v112
	.byte	W03
	.byte		        Cn5 , v068
	.byte	W03
	.byte		        Cn5 , v040
	.byte	W03
	.byte		        Cn5 , v020
	.byte	W15
	.byte		        Cs5 , v112
	.byte	W03
	.byte		        Cs5 , v068
	.byte	W03
	.byte		        Cs5 , v040
	.byte	W03
	.byte		        Cs5 , v020
	.byte	W15
	.byte		        Gs4 , v112
	.byte	W03
	.byte		        Gs4 , v068
	.byte	W03
	.byte		        Gs4 , v040
	.byte	W03
	.byte		        Gs4 , v020
	.byte	W03
	.byte	PATT
	 .word	seq_036_0 + 0x17
	.byte	PATT
	 .word	seq_036_0 + 0x17
	.byte	PATT
	 .word	seq_036_0 + 0x43
	.byte	W12
	.byte		N02   , Cs5 , v112
	.byte	W03
	.byte		        Cs5 , v068
	.byte	W03
	.byte		        Cs5 , v040
	.byte	W03
	.byte		        Cs5 , v020
	.byte	W15
	.byte		        Cn5 , v112
	.byte	W03
	.byte		        Cn5 , v068
	.byte	W03
	.byte		        Cn5 , v040
	.byte	W03
	.byte		        Cn5 , v020
	.byte	W15
	.byte		        Cs5 , v112
	.byte	W03
	.byte		        Cs5 , v068
	.byte	W03
	.byte		        Cs5 , v040
	.byte	W03
	.byte		        Cs5 , v020
	.byte	W15
	.byte		        Fn5 , v112
	.byte	W03
	.byte		        Fn5 , v068
	.byte	W03
	.byte		        Fn5 , v040
	.byte	W03
	.byte		        Fn5 , v020
	.byte	W03
	.byte	W96
	.byte	GOTO
	 .word	seq_036_0 + 0x10
	.byte	FINE

@*********************** Track 02 ***********************@

seq_036_1:
	.byte	KEYSH , seq_036_key+0
	.byte	W02
	.byte		VOICE , 5
	.byte		MOD   , 20
	.byte		VOL   , 54*seq_036_mvl/mxv
	.byte	W01
	.byte		LFOS  , 64
	.byte		MODT  , mod_pan
	.byte	W20
	.byte		PAN   , c_v+0
	.byte	W01
	.byte		N03   , Cs5 , v100
	.byte	W03
	.byte		        Cs5 , v032
	.byte	W02
	.byte		PAN   , c_v-40
	.byte	W01
	.byte		N03   , Ds4 , v040
	.byte	W03
	.byte		        Ds4 , v032
	.byte	W02
	.byte		PAN   , c_v+40
	.byte	W01
	.byte		N03   , As4 , v060
	.byte	W03
	.byte		        As4 , v032
	.byte	W02
	.byte		PAN   , c_v+0
	.byte	W01
	.byte		N03   , Fs4 
	.byte	W03
	.byte		N03
	.byte	W02
	.byte		PAN   , c_v-40
	.byte	W01
	.byte		N03   , Cs5 , v100
	.byte	W03
	.byte		        Cs5 , v032
	.byte	W02
	.byte		PAN   , c_v+40
	.byte	W01
	.byte		N03   , Ds4 , v040
	.byte	W03
	.byte		        Ds4 , v032
	.byte	W02
	.byte		PAN   , c_v+0
	.byte	W01
	.byte		N03   , As4 , v060
	.byte	W03
	.byte		        As4 , v032
	.byte	W02
	.byte		PAN   , c_v-40
	.byte	W01
	.byte		N03   , Fs4 
	.byte	W03
	.byte		N03
	.byte	W02
	.byte		PAN   , c_v+40
	.byte	W01
	.byte		N03   , Cs5 , v100
	.byte	W03
	.byte		        Cs5 , v032
	.byte	W02
	.byte		PAN   , c_v+0
	.byte	W01
	.byte		N03   , Ds4 , v040
	.byte	W03
	.byte		        Ds4 , v032
	.byte	W02
	.byte		PAN   , c_v-40
	.byte	W01
	.byte		N03   , As4 , v060
	.byte	W03
	.byte		        As4 , v032
	.byte	W02
	.byte		PAN   , c_v+40
	.byte	W01
	.byte		N03   , Fs4 
	.byte	W03
	.byte		N03
	.byte	W02
	.byte		PAN   , c_v+0
	.byte	W01
	.byte		N03   , Cs5 , v100
	.byte	W03
	.byte		        Cs5 , v032
	.byte	W02
	.byte		PAN   , c_v-40
	.byte	W01
	.byte		N03   , Ds4 , v040
	.byte	W03
	.byte		        Ds4 , v032
	.byte	W02
	.byte		PAN   , c_v+0
	.byte	W01
	.byte		N03   , As4 , v060
	.byte	W03
	.byte		        As4 , v032
	.byte	W02
	.byte		PAN   , c_v+40
	.byte	W01
	.byte		N03   , Fs4 
	.byte	W03
	.byte		N03
	.byte	W02
	.byte		PAN   , c_v+0
	.byte	W01
	.byte	PEND
	.byte	PATT
	 .word	seq_036_1 + 0x12
	.byte		N03   , Cn5 , v100
	.byte	W03
	.byte		        Cn5 , v032
	.byte	W02
	.byte		PAN   , c_v-40
	.byte	W01
	.byte		N03   , Fn4 , v040
	.byte	W03
	.byte		        Fn4 , v032
	.byte	W02
	.byte		PAN   , c_v+40
	.byte	W01
	.byte		N03   , Gs4 , v060
	.byte	W03
	.byte		        Gs4 , v032
	.byte	W02
	.byte		PAN   , c_v+0
	.byte	W01
	.byte		N03   , Ds4 
	.byte	W03
	.byte		N03
	.byte	W02
	.byte		PAN   , c_v-40
	.byte	W01
	.byte		N03   , Cn5 , v100
	.byte	W03
	.byte		        Cn5 , v032
	.byte	W02
	.byte		PAN   , c_v+40
	.byte	W01
	.byte		N03   , Fn4 , v040
	.byte	W03
	.byte		        Fn4 , v032
	.byte	W02
	.byte		PAN   , c_v+0
	.byte	W01
	.byte		N03   , Gs4 , v060
	.byte	W03
	.byte		        Gs4 , v032
	.byte	W02
	.byte		PAN   , c_v-40
	.byte	W01
	.byte		N03   , Ds4 
	.byte	W03
	.byte		N03
	.byte	W02
	.byte		PAN   , c_v+40
	.byte	W01
	.byte		N03   , Cn5 , v100
	.byte	W03
	.byte		        Cn5 , v032
	.byte	W02
	.byte		PAN   , c_v+0
	.byte	W01
	.byte		N03   , Fn4 , v040
	.byte	W03
	.byte		        Fn4 , v032
	.byte	W02
	.byte		PAN   , c_v-40
	.byte	W01
	.byte		N03   , Gs4 , v060
	.byte	W03
	.byte		        Gs4 , v032
	.byte	W02
	.byte		PAN   , c_v+40
	.byte	W01
	.byte		N03   , Ds4 
	.byte	W03
	.byte		N03
	.byte	W02
	.byte		PAN   , c_v+0
	.byte	W01
	.byte		N03   , Cn5 , v100
	.byte	W03
	.byte		        Cn5 , v032
	.byte	W02
	.byte		PAN   , c_v-40
	.byte	W01
	.byte		N03   , Fn4 , v040
	.byte	W03
	.byte		        Fn4 , v032
	.byte	W02
	.byte		PAN   , c_v+0
	.byte	W01
	.byte		N03   , Gs4 , v060
	.byte	W03
	.byte		        Gs4 , v032
	.byte	W02
	.byte		PAN   , c_v+40
	.byte	W01
	.byte		N03   , Ds4 
	.byte	W03
	.byte		N03
	.byte	W02
	.byte		PAN   , c_v+0
	.byte	W01
	.byte	PEND
	.byte	PATT
	 .word	seq_036_1 + 0xB0
	.byte	PATT
	 .word	seq_036_1 + 0x12
	.byte	PATT
	 .word	seq_036_1 + 0x12
	.byte	PATT
	 .word	seq_036_1 + 0xB0
	.byte	PATT
	 .word	seq_036_1 + 0xB0
	.byte	PATT
	 .word	seq_036_1 + 0x12
	.byte	PATT
	 .word	seq_036_1 + 0x12
	.byte	PATT
	 .word	seq_036_1 + 0xB0
	.byte	PATT
	 .word	seq_036_1 + 0xB0
	.byte	PATT
	 .word	seq_036_1 + 0x12
	.byte	PATT
	 .word	seq_036_1 + 0x12
	.byte	PATT
	 .word	seq_036_1 + 0xB0
	.byte		N03   , Cn5 , v100
	.byte	W03
	.byte		        Cn5 , v032
	.byte	W02
	.byte		PAN   , c_v-40
	.byte	W01
	.byte		N03   , Fn4 , v040
	.byte	W03
	.byte		        Fn4 , v032
	.byte	W02
	.byte		PAN   , c_v+40
	.byte	W01
	.byte		N03   , Gs4 , v060
	.byte	W03
	.byte		        Gs4 , v032
	.byte	W02
	.byte		PAN   , c_v+0
	.byte	W01
	.byte		N03   , Ds4 
	.byte	W03
	.byte		N03
	.byte	W02
	.byte		PAN   , c_v-40
	.byte	W01
	.byte		N03   , Cn5 , v100
	.byte	W03
	.byte		        Cn5 , v032
	.byte	W02
	.byte		PAN   , c_v+40
	.byte	W01
	.byte		N03   , Fn4 , v040
	.byte	W03
	.byte		        Fn4 , v032
	.byte	W02
	.byte		PAN   , c_v+0
	.byte	W01
	.byte		N03   , Gs4 , v060
	.byte	W03
	.byte		        Gs4 , v032
	.byte	W02
	.byte		PAN   , c_v-40
	.byte	W01
	.byte		N03   , Ds4 
	.byte	W03
	.byte		N03
	.byte	W02
	.byte		PAN   , c_v+40
	.byte	W01
	.byte		N03   , Cn5 , v100
	.byte	W03
	.byte		        Cn5 , v032
	.byte	W02
	.byte		PAN   , c_v+0
	.byte	W01
	.byte		N03   , Fn4 , v040
	.byte	W03
	.byte		        Fn4 , v032
	.byte	W02
	.byte		PAN   , c_v-40
	.byte	W01
	.byte		N03   , Gs4 , v060
	.byte	W03
	.byte		        Gs4 , v032
	.byte	W02
	.byte		PAN   , c_v+40
	.byte	W01
	.byte		N03   , Ds4 
	.byte	W03
	.byte		N03
	.byte	W02
	.byte		PAN   , c_v+0
	.byte	W01
	.byte		N03   , Cn5 , v100
	.byte	W03
	.byte		        Cn5 , v032
	.byte	W02
	.byte		PAN   , c_v-40
	.byte	W01
	.byte		N03   , Fn4 , v040
	.byte	W03
	.byte		        Fn4 , v032
	.byte	W02
	.byte		PAN   , c_v+0
	.byte	W01
	.byte		N03   , Gs4 , v060
	.byte	W03
	.byte		        Gs4 , v032
	.byte	W02
	.byte		PAN   , c_v+40
	.byte	W01
	.byte		N03   , Ds4 
	.byte	W03
	.byte		N03
	.byte	W03
	.byte	GOTO
	 .word	seq_036_1 + 0x12
	.byte	FINE

@*********************** Track 03 ***********************@

seq_036_2:
	.byte	KEYSH , seq_036_key+0
	.byte	W04
	.byte		VOICE , 24
	.byte		MOD   , 40
	.byte		VOL   , 67*seq_036_mvl/mxv
	.byte	W01
	.byte		PAN   , c_v-30
	.byte		LFOS  , 30
	.byte		MODT  , mod_pan
	.byte	W18
	.byte		VOL   , 0*seq_036_mvl/mxv
	.byte	W01
	.byte		VOL   , 3*seq_036_mvl/mxv
	.byte		TIE   , Cs4 , v100
	.byte	W04
	.byte		VOL   , 5*seq_036_mvl/mxv
	.byte	W03
	.byte		        7*seq_036_mvl/mxv
	.byte	W03
	.byte		        9*seq_036_mvl/mxv
	.byte	W02
	.byte		        9*seq_036_mvl/mxv
	.byte	W03
	.byte		        11*seq_036_mvl/mxv
	.byte	W02
	.byte		        13*seq_036_mvl/mxv
	.byte	W03
	.byte		        15*seq_036_mvl/mxv
	.byte	W02
	.byte		        16*seq_036_mvl/mxv
	.byte	W03
	.byte		        18*seq_036_mvl/mxv
	.byte	W02
	.byte		        19*seq_036_mvl/mxv
	.byte	W03
	.byte		        20*seq_036_mvl/mxv
	.byte	W02
	.byte		        22*seq_036_mvl/mxv
	.byte	W03
	.byte		        22*seq_036_mvl/mxv
	.byte	W05
	.byte		        25*seq_036_mvl/mxv
	.byte	W03
	.byte		        26*seq_036_mvl/mxv
	.byte	W02
	.byte		        27*seq_036_mvl/mxv
	.byte	W02
	.byte		        28*seq_036_mvl/mxv
	.byte	W03
	.byte		        29*seq_036_mvl/mxv
	.byte	W02
	.byte		        30*seq_036_mvl/mxv
	.byte	W02
	.byte		        31*seq_036_mvl/mxv
	.byte	W02
	.byte		        32*seq_036_mvl/mxv
	.byte	W03
	.byte		        33*seq_036_mvl/mxv
	.byte	W02
	.byte		        34*seq_036_mvl/mxv
	.byte	W02
	.byte		        35*seq_036_mvl/mxv
	.byte	W03
	.byte		        37*seq_036_mvl/mxv
	.byte	W02
	.byte		        38*seq_036_mvl/mxv
	.byte	W02
	.byte		        38*seq_036_mvl/mxv
	.byte	W04
	.byte		        40*seq_036_mvl/mxv
	.byte	W03
	.byte		        42*seq_036_mvl/mxv
	.byte	W03
	.byte		        43*seq_036_mvl/mxv
	.byte	W03
	.byte		        45*seq_036_mvl/mxv
	.byte	W03
	.byte		        46*seq_036_mvl/mxv
	.byte	W03
	.byte		        47*seq_036_mvl/mxv
	.byte	W02
	.byte		        48*seq_036_mvl/mxv
	.byte	W03
	.byte		        49*seq_036_mvl/mxv
	.byte	W02
	.byte	PEND
	.byte	W01
	.byte		VOL   , 51*seq_036_mvl/mxv
	.byte	W03
	.byte		        51*seq_036_mvl/mxv
	.byte	W03
	.byte		        56*seq_036_mvl/mxv
	.byte	W03
	.byte		        58*seq_036_mvl/mxv
	.byte	W02
	.byte		        60*seq_036_mvl/mxv
	.byte	W03
	.byte		        63*seq_036_mvl/mxv
	.byte	W03
	.byte		        67*seq_036_mvl/mxv
	.byte	W03
	.byte		        69*seq_036_mvl/mxv
	.byte	W03
	.byte		        68*seq_036_mvl/mxv
	.byte	W03
	.byte		        68*seq_036_mvl/mxv
	.byte	W02
	.byte		        67*seq_036_mvl/mxv
	.byte	W03
	.byte		        67*seq_036_mvl/mxv
	.byte	W03
	.byte		        67*seq_036_mvl/mxv
	.byte	W03
	.byte		        66*seq_036_mvl/mxv
	.byte	W03
	.byte		        65*seq_036_mvl/mxv
	.byte	W03
	.byte		        62*seq_036_mvl/mxv
	.byte	W02
	.byte		        60*seq_036_mvl/mxv
	.byte	W03
	.byte		        58*seq_036_mvl/mxv
	.byte	W03
	.byte		        56*seq_036_mvl/mxv
	.byte	W03
	.byte		        54*seq_036_mvl/mxv
	.byte	W03
	.byte		        52*seq_036_mvl/mxv
	.byte	W03
	.byte		        49*seq_036_mvl/mxv
	.byte	W02
	.byte		        48*seq_036_mvl/mxv
	.byte	W03
	.byte		        46*seq_036_mvl/mxv
	.byte	W03
	.byte		        44*seq_036_mvl/mxv
	.byte	W03
	.byte		        41*seq_036_mvl/mxv
	.byte	W03
	.byte		        39*seq_036_mvl/mxv
	.byte	W03
	.byte		        38*seq_036_mvl/mxv
	.byte	W05
	.byte		        28*seq_036_mvl/mxv
	.byte	W01
	.byte		        27*seq_036_mvl/mxv
	.byte	W01
	.byte		        25*seq_036_mvl/mxv
	.byte	W01
	.byte		        23*seq_036_mvl/mxv
	.byte	W01
	.byte		        21*seq_036_mvl/mxv
	.byte	W01
	.byte		        19*seq_036_mvl/mxv
	.byte	W01
	.byte		        18*seq_036_mvl/mxv
	.byte	W01
	.byte		        16*seq_036_mvl/mxv
	.byte	W01
	.byte		        14*seq_036_mvl/mxv
	.byte	W01
	.byte		        12*seq_036_mvl/mxv
	.byte	W01
	.byte		        10*seq_036_mvl/mxv
	.byte	W01
	.byte		        8*seq_036_mvl/mxv
	.byte	W01
	.byte		        0*seq_036_mvl/mxv
	.byte	W01
	.byte	PEND
	.byte		EOT   , Cs4 
	.byte		VOL   , 3*seq_036_mvl/mxv
	.byte		TIE   , Ds4 , v100
	.byte	W04
	.byte		VOL   , 5*seq_036_mvl/mxv
	.byte	W03
	.byte		        7*seq_036_mvl/mxv
	.byte	W03
	.byte		        9*seq_036_mvl/mxv
	.byte	W02
	.byte		        9*seq_036_mvl/mxv
	.byte	W03
	.byte		        11*seq_036_mvl/mxv
	.byte	W02
	.byte		        13*seq_036_mvl/mxv
	.byte	W03
	.byte		        15*seq_036_mvl/mxv
	.byte	W02
	.byte		        16*seq_036_mvl/mxv
	.byte	W03
	.byte		        18*seq_036_mvl/mxv
	.byte	W02
	.byte		        19*seq_036_mvl/mxv
	.byte	W03
	.byte		        20*seq_036_mvl/mxv
	.byte	W02
	.byte		        22*seq_036_mvl/mxv
	.byte	W03
	.byte		        22*seq_036_mvl/mxv
	.byte	W05
	.byte		        25*seq_036_mvl/mxv
	.byte	W03
	.byte		        26*seq_036_mvl/mxv
	.byte	W02
	.byte		        27*seq_036_mvl/mxv
	.byte	W02
	.byte		        28*seq_036_mvl/mxv
	.byte	W03
	.byte		        29*seq_036_mvl/mxv
	.byte	W02
	.byte		        30*seq_036_mvl/mxv
	.byte	W02
	.byte		        31*seq_036_mvl/mxv
	.byte	W02
	.byte		        32*seq_036_mvl/mxv
	.byte	W03
	.byte		        33*seq_036_mvl/mxv
	.byte	W02
	.byte		        34*seq_036_mvl/mxv
	.byte	W02
	.byte		        35*seq_036_mvl/mxv
	.byte	W03
	.byte		        37*seq_036_mvl/mxv
	.byte	W02
	.byte		        38*seq_036_mvl/mxv
	.byte	W02
	.byte		        38*seq_036_mvl/mxv
	.byte	W04
	.byte		        40*seq_036_mvl/mxv
	.byte	W03
	.byte		        42*seq_036_mvl/mxv
	.byte	W03
	.byte		        43*seq_036_mvl/mxv
	.byte	W03
	.byte		        45*seq_036_mvl/mxv
	.byte	W03
	.byte		        46*seq_036_mvl/mxv
	.byte	W03
	.byte		        47*seq_036_mvl/mxv
	.byte	W02
	.byte		        48*seq_036_mvl/mxv
	.byte	W03
	.byte		        49*seq_036_mvl/mxv
	.byte	W02
	.byte	PEND
	.byte	PATT
	 .word	seq_036_2 + 0x62
	.byte		EOT   , Ds4 
	.byte	PATT
	 .word	seq_036_2 + 0x14
	.byte	PATT
	 .word	seq_036_2 + 0x62
	.byte		EOT   , Cs4 
	.byte	PATT
	 .word	seq_036_2 + 0xB9
	.byte	PATT
	 .word	seq_036_2 + 0x62
	.byte		EOT   , Ds4 
	.byte	PATT
	 .word	seq_036_2 + 0x14
	.byte	PATT
	 .word	seq_036_2 + 0x62
	.byte		EOT   , Cs4 
	.byte	PATT
	 .word	seq_036_2 + 0xB9
	.byte	PATT
	 .word	seq_036_2 + 0x62
	.byte		EOT   , Ds4 
	.byte	PATT
	 .word	seq_036_2 + 0x14
	.byte	PATT
	 .word	seq_036_2 + 0x62
	.byte		EOT   , Cs4 
	.byte	PATT
	 .word	seq_036_2 + 0xB9
	.byte	W01
	.byte		VOL   , 51*seq_036_mvl/mxv
	.byte	W03
	.byte		        51*seq_036_mvl/mxv
	.byte	W03
	.byte		        56*seq_036_mvl/mxv
	.byte	W03
	.byte		        58*seq_036_mvl/mxv
	.byte	W02
	.byte		        60*seq_036_mvl/mxv
	.byte	W03
	.byte		        63*seq_036_mvl/mxv
	.byte	W03
	.byte		        67*seq_036_mvl/mxv
	.byte	W03
	.byte		        69*seq_036_mvl/mxv
	.byte	W03
	.byte		        68*seq_036_mvl/mxv
	.byte	W03
	.byte		        68*seq_036_mvl/mxv
	.byte	W02
	.byte		        67*seq_036_mvl/mxv
	.byte	W03
	.byte		        67*seq_036_mvl/mxv
	.byte	W03
	.byte		        67*seq_036_mvl/mxv
	.byte	W03
	.byte		        66*seq_036_mvl/mxv
	.byte	W03
	.byte		        65*seq_036_mvl/mxv
	.byte	W03
	.byte		        62*seq_036_mvl/mxv
	.byte	W02
	.byte		        60*seq_036_mvl/mxv
	.byte	W03
	.byte		        58*seq_036_mvl/mxv
	.byte	W03
	.byte		        56*seq_036_mvl/mxv
	.byte	W03
	.byte		        54*seq_036_mvl/mxv
	.byte	W03
	.byte		        52*seq_036_mvl/mxv
	.byte	W03
	.byte		        49*seq_036_mvl/mxv
	.byte	W02
	.byte		        48*seq_036_mvl/mxv
	.byte	W03
	.byte		        46*seq_036_mvl/mxv
	.byte	W03
	.byte		        44*seq_036_mvl/mxv
	.byte	W03
	.byte		        41*seq_036_mvl/mxv
	.byte	W03
	.byte		        39*seq_036_mvl/mxv
	.byte	W03
	.byte		        38*seq_036_mvl/mxv
	.byte	W05
	.byte		        28*seq_036_mvl/mxv
	.byte	W01
	.byte		        27*seq_036_mvl/mxv
	.byte	W01
	.byte		        25*seq_036_mvl/mxv
	.byte	W01
	.byte		        23*seq_036_mvl/mxv
	.byte	W01
	.byte		        21*seq_036_mvl/mxv
	.byte	W01
	.byte		        19*seq_036_mvl/mxv
	.byte	W01
	.byte		        18*seq_036_mvl/mxv
	.byte	W01
	.byte		        16*seq_036_mvl/mxv
	.byte	W01
	.byte		        14*seq_036_mvl/mxv
	.byte	W01
	.byte		        12*seq_036_mvl/mxv
	.byte	W01
	.byte		        10*seq_036_mvl/mxv
	.byte	W01
	.byte		        8*seq_036_mvl/mxv
	.byte	W02
	.byte		EOT   , Ds4 
	.byte	GOTO
	 .word	seq_036_2 + 0x14
	.byte	FINE

@*********************** Track 04 ***********************@

seq_036_3:
	.byte	KEYSH , seq_036_key+0
	.byte	W06
	.byte		VOICE , 24
	.byte		MOD   , 40
	.byte		VOL   , 67*seq_036_mvl/mxv
	.byte	W01
	.byte		PAN   , c_v+30
	.byte		LFOS  , 30
	.byte		MODT  , mod_pan
	.byte	W16
	.byte		VOL   , 0*seq_036_mvl/mxv
	.byte	W01
	.byte		VOL   , 3*seq_036_mvl/mxv
	.byte		TIE   , As3 , v100
	.byte	W04
	.byte		VOL   , 5*seq_036_mvl/mxv
	.byte	W03
	.byte		        7*seq_036_mvl/mxv
	.byte	W03
	.byte		        9*seq_036_mvl/mxv
	.byte	W02
	.byte		        9*seq_036_mvl/mxv
	.byte	W03
	.byte		        11*seq_036_mvl/mxv
	.byte	W02
	.byte		        13*seq_036_mvl/mxv
	.byte	W03
	.byte		        15*seq_036_mvl/mxv
	.byte	W02
	.byte		        16*seq_036_mvl/mxv
	.byte	W03
	.byte		        18*seq_036_mvl/mxv
	.byte	W02
	.byte		        19*seq_036_mvl/mxv
	.byte	W03
	.byte		        20*seq_036_mvl/mxv
	.byte	W02
	.byte		        22*seq_036_mvl/mxv
	.byte	W03
	.byte		        22*seq_036_mvl/mxv
	.byte	W05
	.byte		        25*seq_036_mvl/mxv
	.byte	W03
	.byte		        26*seq_036_mvl/mxv
	.byte	W02
	.byte		        27*seq_036_mvl/mxv
	.byte	W02
	.byte		        28*seq_036_mvl/mxv
	.byte	W03
	.byte		        29*seq_036_mvl/mxv
	.byte	W02
	.byte		        30*seq_036_mvl/mxv
	.byte	W02
	.byte		        31*seq_036_mvl/mxv
	.byte	W02
	.byte		        32*seq_036_mvl/mxv
	.byte	W03
	.byte		        33*seq_036_mvl/mxv
	.byte	W02
	.byte		        34*seq_036_mvl/mxv
	.byte	W02
	.byte		        35*seq_036_mvl/mxv
	.byte	W03
	.byte		        37*seq_036_mvl/mxv
	.byte	W02
	.byte		        38*seq_036_mvl/mxv
	.byte	W02
	.byte		        38*seq_036_mvl/mxv
	.byte	W04
	.byte		        40*seq_036_mvl/mxv
	.byte	W03
	.byte		        42*seq_036_mvl/mxv
	.byte	W03
	.byte		        43*seq_036_mvl/mxv
	.byte	W03
	.byte		        45*seq_036_mvl/mxv
	.byte	W03
	.byte		        46*seq_036_mvl/mxv
	.byte	W03
	.byte		        47*seq_036_mvl/mxv
	.byte	W02
	.byte		        48*seq_036_mvl/mxv
	.byte	W03
	.byte		        49*seq_036_mvl/mxv
	.byte	W02
	.byte	PEND
	.byte	W01
	.byte		VOL   , 51*seq_036_mvl/mxv
	.byte	W03
	.byte		        51*seq_036_mvl/mxv
	.byte	W03
	.byte		        56*seq_036_mvl/mxv
	.byte	W03
	.byte		        58*seq_036_mvl/mxv
	.byte	W02
	.byte		        60*seq_036_mvl/mxv
	.byte	W03
	.byte		        63*seq_036_mvl/mxv
	.byte	W03
	.byte		        67*seq_036_mvl/mxv
	.byte	W03
	.byte		        69*seq_036_mvl/mxv
	.byte	W03
	.byte		        68*seq_036_mvl/mxv
	.byte	W03
	.byte		        68*seq_036_mvl/mxv
	.byte	W02
	.byte		        67*seq_036_mvl/mxv
	.byte	W03
	.byte		        67*seq_036_mvl/mxv
	.byte	W03
	.byte		        67*seq_036_mvl/mxv
	.byte	W03
	.byte		        66*seq_036_mvl/mxv
	.byte	W03
	.byte		        65*seq_036_mvl/mxv
	.byte	W03
	.byte		        62*seq_036_mvl/mxv
	.byte	W02
	.byte		        60*seq_036_mvl/mxv
	.byte	W03
	.byte		        58*seq_036_mvl/mxv
	.byte	W03
	.byte		        56*seq_036_mvl/mxv
	.byte	W03
	.byte		        54*seq_036_mvl/mxv
	.byte	W03
	.byte		        52*seq_036_mvl/mxv
	.byte	W03
	.byte		        49*seq_036_mvl/mxv
	.byte	W02
	.byte		        48*seq_036_mvl/mxv
	.byte	W03
	.byte		        46*seq_036_mvl/mxv
	.byte	W03
	.byte		        44*seq_036_mvl/mxv
	.byte	W03
	.byte		        41*seq_036_mvl/mxv
	.byte	W03
	.byte		        39*seq_036_mvl/mxv
	.byte	W03
	.byte		        38*seq_036_mvl/mxv
	.byte	W05
	.byte		        28*seq_036_mvl/mxv
	.byte	W01
	.byte		        27*seq_036_mvl/mxv
	.byte	W01
	.byte		        25*seq_036_mvl/mxv
	.byte	W01
	.byte		        23*seq_036_mvl/mxv
	.byte	W01
	.byte		        21*seq_036_mvl/mxv
	.byte	W01
	.byte		        19*seq_036_mvl/mxv
	.byte	W01
	.byte		        18*seq_036_mvl/mxv
	.byte	W01
	.byte		        16*seq_036_mvl/mxv
	.byte	W01
	.byte		        14*seq_036_mvl/mxv
	.byte	W01
	.byte		        12*seq_036_mvl/mxv
	.byte	W01
	.byte		        10*seq_036_mvl/mxv
	.byte	W01
	.byte		        8*seq_036_mvl/mxv
	.byte	W01
	.byte		        0*seq_036_mvl/mxv
	.byte	W01
	.byte	PEND
	.byte		EOT   , As3 
	.byte		VOL   , 3*seq_036_mvl/mxv
	.byte		TIE   , Cn4 , v100
	.byte	W04
	.byte		VOL   , 5*seq_036_mvl/mxv
	.byte	W03
	.byte		        7*seq_036_mvl/mxv
	.byte	W03
	.byte		        9*seq_036_mvl/mxv
	.byte	W02
	.byte		        9*seq_036_mvl/mxv
	.byte	W03
	.byte		        11*seq_036_mvl/mxv
	.byte	W02
	.byte		        13*seq_036_mvl/mxv
	.byte	W03
	.byte		        15*seq_036_mvl/mxv
	.byte	W02
	.byte		        16*seq_036_mvl/mxv
	.byte	W03
	.byte		        18*seq_036_mvl/mxv
	.byte	W02
	.byte		        19*seq_036_mvl/mxv
	.byte	W03
	.byte		        20*seq_036_mvl/mxv
	.byte	W02
	.byte		        22*seq_036_mvl/mxv
	.byte	W03
	.byte		        22*seq_036_mvl/mxv
	.byte	W05
	.byte		        25*seq_036_mvl/mxv
	.byte	W03
	.byte		        26*seq_036_mvl/mxv
	.byte	W02
	.byte		        27*seq_036_mvl/mxv
	.byte	W02
	.byte		        28*seq_036_mvl/mxv
	.byte	W03
	.byte		        29*seq_036_mvl/mxv
	.byte	W02
	.byte		        30*seq_036_mvl/mxv
	.byte	W02
	.byte		        31*seq_036_mvl/mxv
	.byte	W02
	.byte		        32*seq_036_mvl/mxv
	.byte	W03
	.byte		        33*seq_036_mvl/mxv
	.byte	W02
	.byte		        34*seq_036_mvl/mxv
	.byte	W02
	.byte		        35*seq_036_mvl/mxv
	.byte	W03
	.byte		        37*seq_036_mvl/mxv
	.byte	W02
	.byte		        38*seq_036_mvl/mxv
	.byte	W02
	.byte		        38*seq_036_mvl/mxv
	.byte	W04
	.byte		        40*seq_036_mvl/mxv
	.byte	W03
	.byte		        42*seq_036_mvl/mxv
	.byte	W03
	.byte		        43*seq_036_mvl/mxv
	.byte	W03
	.byte		        45*seq_036_mvl/mxv
	.byte	W03
	.byte		        46*seq_036_mvl/mxv
	.byte	W03
	.byte		        47*seq_036_mvl/mxv
	.byte	W02
	.byte		        48*seq_036_mvl/mxv
	.byte	W03
	.byte		        49*seq_036_mvl/mxv
	.byte	W02
	.byte	PEND
	.byte	PATT
	 .word	seq_036_3 + 0x62
	.byte		EOT   , Cn4 
	.byte	PATT
	 .word	seq_036_3 + 0x14
	.byte	PATT
	 .word	seq_036_3 + 0x62
	.byte		EOT   , As3 
	.byte	PATT
	 .word	seq_036_3 + 0xB9
	.byte	PATT
	 .word	seq_036_3 + 0x62
	.byte		EOT   , Cn4 
	.byte	PATT
	 .word	seq_036_3 + 0x14
	.byte	PATT
	 .word	seq_036_3 + 0x62
	.byte		EOT   , As3 
	.byte	PATT
	 .word	seq_036_3 + 0xB9
	.byte	PATT
	 .word	seq_036_3 + 0x62
	.byte		EOT   , Cn4 
	.byte	PATT
	 .word	seq_036_3 + 0x14
	.byte	PATT
	 .word	seq_036_3 + 0x62
	.byte		EOT   , As3 
	.byte	PATT
	 .word	seq_036_3 + 0xB9
	.byte	W01
	.byte		VOL   , 51*seq_036_mvl/mxv
	.byte	W03
	.byte		        51*seq_036_mvl/mxv
	.byte	W03
	.byte		        56*seq_036_mvl/mxv
	.byte	W03
	.byte		        58*seq_036_mvl/mxv
	.byte	W02
	.byte		        60*seq_036_mvl/mxv
	.byte	W03
	.byte		        63*seq_036_mvl/mxv
	.byte	W03
	.byte		        67*seq_036_mvl/mxv
	.byte	W03
	.byte		        69*seq_036_mvl/mxv
	.byte	W03
	.byte		        68*seq_036_mvl/mxv
	.byte	W03
	.byte		        68*seq_036_mvl/mxv
	.byte	W02
	.byte		        67*seq_036_mvl/mxv
	.byte	W03
	.byte		        67*seq_036_mvl/mxv
	.byte	W03
	.byte		        67*seq_036_mvl/mxv
	.byte	W03
	.byte		        66*seq_036_mvl/mxv
	.byte	W03
	.byte		        65*seq_036_mvl/mxv
	.byte	W03
	.byte		        62*seq_036_mvl/mxv
	.byte	W02
	.byte		        60*seq_036_mvl/mxv
	.byte	W03
	.byte		        58*seq_036_mvl/mxv
	.byte	W03
	.byte		        56*seq_036_mvl/mxv
	.byte	W03
	.byte		        54*seq_036_mvl/mxv
	.byte	W03
	.byte		        52*seq_036_mvl/mxv
	.byte	W03
	.byte		        49*seq_036_mvl/mxv
	.byte	W02
	.byte		        48*seq_036_mvl/mxv
	.byte	W03
	.byte		        46*seq_036_mvl/mxv
	.byte	W03
	.byte		        44*seq_036_mvl/mxv
	.byte	W03
	.byte		        41*seq_036_mvl/mxv
	.byte	W03
	.byte		        39*seq_036_mvl/mxv
	.byte	W03
	.byte		        38*seq_036_mvl/mxv
	.byte	W05
	.byte		        28*seq_036_mvl/mxv
	.byte	W01
	.byte		        27*seq_036_mvl/mxv
	.byte	W01
	.byte		        25*seq_036_mvl/mxv
	.byte	W01
	.byte		        23*seq_036_mvl/mxv
	.byte	W01
	.byte		        21*seq_036_mvl/mxv
	.byte	W01
	.byte		        19*seq_036_mvl/mxv
	.byte	W01
	.byte		        18*seq_036_mvl/mxv
	.byte	W01
	.byte		        16*seq_036_mvl/mxv
	.byte	W01
	.byte		        14*seq_036_mvl/mxv
	.byte	W01
	.byte		        12*seq_036_mvl/mxv
	.byte	W01
	.byte		        10*seq_036_mvl/mxv
	.byte	W01
	.byte		        8*seq_036_mvl/mxv
	.byte	W02
	.byte		EOT   , Cn4 
	.byte	GOTO
	 .word	seq_036_3 + 0x14
	.byte	FINE

@*********************** Track 05 ***********************@

seq_036_4:
	.byte	KEYSH , seq_036_key+0
	.byte	W08
	.byte		VOICE , 95
	.byte		MOD   , 40
	.byte		VOL   , 90*seq_036_mvl/mxv
	.byte	W01
	.byte		PAN   , c_v+0
	.byte		LFOS  , 20
	.byte		MODT  , mod_pan
	.byte	W14
	.byte		VOL   , 0*seq_036_mvl/mxv
	.byte	W01
	.byte		VOL   , 9*seq_036_mvl/mxv
	.byte		TIE   , Ds1 , v100
	.byte	W04
	.byte		VOL   , 19*seq_036_mvl/mxv
	.byte	W03
	.byte		        24*seq_036_mvl/mxv
	.byte	W03
	.byte		        28*seq_036_mvl/mxv
	.byte	W02
	.byte		        32*seq_036_mvl/mxv
	.byte	W03
	.byte		        37*seq_036_mvl/mxv
	.byte	W02
	.byte		        40*seq_036_mvl/mxv
	.byte	W03
	.byte		        42*seq_036_mvl/mxv
	.byte	W02
	.byte		        45*seq_036_mvl/mxv
	.byte	W03
	.byte		        47*seq_036_mvl/mxv
	.byte	W02
	.byte		        47*seq_036_mvl/mxv
	.byte	W03
	.byte		        49*seq_036_mvl/mxv
	.byte	W02
	.byte		        50*seq_036_mvl/mxv
	.byte	W03
	.byte		        52*seq_036_mvl/mxv
	.byte	W36
	.byte	W03
	.byte		        57*seq_036_mvl/mxv
	.byte	W03
	.byte		        59*seq_036_mvl/mxv
	.byte	W03
	.byte		        61*seq_036_mvl/mxv
	.byte	W03
	.byte		        63*seq_036_mvl/mxv
	.byte	W03
	.byte		        64*seq_036_mvl/mxv
	.byte	W03
	.byte		        66*seq_036_mvl/mxv
	.byte	W02
	.byte		        67*seq_036_mvl/mxv
	.byte	W03
	.byte		        68*seq_036_mvl/mxv
	.byte	W02
	.byte	PEND
	.byte	W01
	.byte		VOL   , 70*seq_036_mvl/mxv
	.byte	W03
	.byte		        72*seq_036_mvl/mxv
	.byte	W03
	.byte		        74*seq_036_mvl/mxv
	.byte	W03
	.byte		        75*seq_036_mvl/mxv
	.byte	W02
	.byte		        76*seq_036_mvl/mxv
	.byte	W03
	.byte		        77*seq_036_mvl/mxv
	.byte	W03
	.byte		        79*seq_036_mvl/mxv
	.byte	W03
	.byte		        79*seq_036_mvl/mxv
	.byte	W03
	.byte		        79*seq_036_mvl/mxv
	.byte	W03
	.byte		        78*seq_036_mvl/mxv
	.byte	W02
	.byte		        77*seq_036_mvl/mxv
	.byte	W03
	.byte		        76*seq_036_mvl/mxv
	.byte	W03
	.byte		        75*seq_036_mvl/mxv
	.byte	W03
	.byte		        73*seq_036_mvl/mxv
	.byte	W03
	.byte		        71*seq_036_mvl/mxv
	.byte	W03
	.byte		        69*seq_036_mvl/mxv
	.byte	W02
	.byte		        68*seq_036_mvl/mxv
	.byte	W03
	.byte		        67*seq_036_mvl/mxv
	.byte	W03
	.byte		        65*seq_036_mvl/mxv
	.byte	W03
	.byte		        63*seq_036_mvl/mxv
	.byte	W03
	.byte		        61*seq_036_mvl/mxv
	.byte	W03
	.byte		        59*seq_036_mvl/mxv
	.byte	W02
	.byte		        58*seq_036_mvl/mxv
	.byte	W03
	.byte		        57*seq_036_mvl/mxv
	.byte	W03
	.byte		        55*seq_036_mvl/mxv
	.byte	W03
	.byte		        53*seq_036_mvl/mxv
	.byte	W03
	.byte		        51*seq_036_mvl/mxv
	.byte	W03
	.byte		        49*seq_036_mvl/mxv
	.byte	W05
	.byte		        46*seq_036_mvl/mxv
	.byte	W01
	.byte		        43*seq_036_mvl/mxv
	.byte	W01
	.byte		        41*seq_036_mvl/mxv
	.byte	W01
	.byte		        39*seq_036_mvl/mxv
	.byte	W01
	.byte		        37*seq_036_mvl/mxv
	.byte	W01
	.byte		        34*seq_036_mvl/mxv
	.byte	W01
	.byte		        30*seq_036_mvl/mxv
	.byte	W01
	.byte		        27*seq_036_mvl/mxv
	.byte	W01
	.byte		        23*seq_036_mvl/mxv
	.byte	W01
	.byte		        19*seq_036_mvl/mxv
	.byte	W01
	.byte		        15*seq_036_mvl/mxv
	.byte	W01
	.byte		        11*seq_036_mvl/mxv
	.byte	W01
	.byte		        0*seq_036_mvl/mxv
	.byte	W01
	.byte	PEND
	.byte		EOT   , Ds1 
	.byte		VOL   , 9*seq_036_mvl/mxv
	.byte		N96   , Fn1 , v100
	.byte	W04
	.byte		VOL   , 19*seq_036_mvl/mxv
	.byte	W03
	.byte		        24*seq_036_mvl/mxv
	.byte	W03
	.byte		        28*seq_036_mvl/mxv
	.byte	W02
	.byte		        32*seq_036_mvl/mxv
	.byte	W03
	.byte		        37*seq_036_mvl/mxv
	.byte	W02
	.byte		        40*seq_036_mvl/mxv
	.byte	W03
	.byte		        42*seq_036_mvl/mxv
	.byte	W02
	.byte		        45*seq_036_mvl/mxv
	.byte	W03
	.byte		        47*seq_036_mvl/mxv
	.byte	W02
	.byte		        47*seq_036_mvl/mxv
	.byte	W03
	.byte		        49*seq_036_mvl/mxv
	.byte	W02
	.byte		        50*seq_036_mvl/mxv
	.byte	W03
	.byte		        52*seq_036_mvl/mxv
	.byte	W36
	.byte	W03
	.byte		        57*seq_036_mvl/mxv
	.byte	W03
	.byte		        59*seq_036_mvl/mxv
	.byte	W03
	.byte		        61*seq_036_mvl/mxv
	.byte	W03
	.byte		        63*seq_036_mvl/mxv
	.byte	W03
	.byte		        64*seq_036_mvl/mxv
	.byte	W03
	.byte		        66*seq_036_mvl/mxv
	.byte	W02
	.byte		        67*seq_036_mvl/mxv
	.byte	W03
	.byte		        68*seq_036_mvl/mxv
	.byte	W02
	.byte	PEND
	.byte		N96   , Cs1 , v100
	.byte	W01
	.byte		VOL   , 70*seq_036_mvl/mxv
	.byte	W03
	.byte		        72*seq_036_mvl/mxv
	.byte	W03
	.byte		        74*seq_036_mvl/mxv
	.byte	W03
	.byte		        75*seq_036_mvl/mxv
	.byte	W02
	.byte		        76*seq_036_mvl/mxv
	.byte	W03
	.byte		        77*seq_036_mvl/mxv
	.byte	W03
	.byte		        79*seq_036_mvl/mxv
	.byte	W03
	.byte		        79*seq_036_mvl/mxv
	.byte	W03
	.byte		        79*seq_036_mvl/mxv
	.byte	W03
	.byte		        78*seq_036_mvl/mxv
	.byte	W02
	.byte		        77*seq_036_mvl/mxv
	.byte	W03
	.byte		        76*seq_036_mvl/mxv
	.byte	W03
	.byte		        75*seq_036_mvl/mxv
	.byte	W03
	.byte		        73*seq_036_mvl/mxv
	.byte	W03
	.byte		        71*seq_036_mvl/mxv
	.byte	W03
	.byte		        69*seq_036_mvl/mxv
	.byte	W02
	.byte		        68*seq_036_mvl/mxv
	.byte	W03
	.byte		        67*seq_036_mvl/mxv
	.byte	W03
	.byte		        65*seq_036_mvl/mxv
	.byte	W03
	.byte		        63*seq_036_mvl/mxv
	.byte	W03
	.byte		        61*seq_036_mvl/mxv
	.byte	W03
	.byte		        59*seq_036_mvl/mxv
	.byte	W02
	.byte		        58*seq_036_mvl/mxv
	.byte	W03
	.byte		        57*seq_036_mvl/mxv
	.byte	W03
	.byte		        55*seq_036_mvl/mxv
	.byte	W03
	.byte		        53*seq_036_mvl/mxv
	.byte	W03
	.byte		        51*seq_036_mvl/mxv
	.byte	W03
	.byte		        49*seq_036_mvl/mxv
	.byte	W05
	.byte		        46*seq_036_mvl/mxv
	.byte	W01
	.byte		        43*seq_036_mvl/mxv
	.byte	W01
	.byte		        41*seq_036_mvl/mxv
	.byte	W01
	.byte		        39*seq_036_mvl/mxv
	.byte	W01
	.byte		        37*seq_036_mvl/mxv
	.byte	W01
	.byte		        34*seq_036_mvl/mxv
	.byte	W01
	.byte		        30*seq_036_mvl/mxv
	.byte	W01
	.byte		        27*seq_036_mvl/mxv
	.byte	W01
	.byte		        23*seq_036_mvl/mxv
	.byte	W01
	.byte		        19*seq_036_mvl/mxv
	.byte	W01
	.byte		        15*seq_036_mvl/mxv
	.byte	W01
	.byte		        11*seq_036_mvl/mxv
	.byte	W01
	.byte		        0*seq_036_mvl/mxv
	.byte	W01
	.byte	PEND
	.byte	PATT
	 .word	seq_036_4 + 0x14
	.byte	PATT
	 .word	seq_036_4 + 0x47
	.byte		EOT   , Ds1 
	.byte	PATT
	 .word	seq_036_4 + 0x9E
	.byte	PATT
	 .word	seq_036_4 + 0xD1
	.byte	PATT
	 .word	seq_036_4 + 0x14
	.byte	PATT
	 .word	seq_036_4 + 0x47
	.byte		EOT   , Ds1 
	.byte	PATT
	 .word	seq_036_4 + 0x9E
	.byte	PATT
	 .word	seq_036_4 + 0xD1
	.byte	PATT
	 .word	seq_036_4 + 0x14
	.byte	PATT
	 .word	seq_036_4 + 0x47
	.byte		EOT   , Ds1 
	.byte	PATT
	 .word	seq_036_4 + 0x9E
	.byte		N96   , Cs1 , v100
	.byte	W01
	.byte		VOL   , 70*seq_036_mvl/mxv
	.byte	W03
	.byte		        72*seq_036_mvl/mxv
	.byte	W03
	.byte		        74*seq_036_mvl/mxv
	.byte	W03
	.byte		        75*seq_036_mvl/mxv
	.byte	W02
	.byte		        76*seq_036_mvl/mxv
	.byte	W03
	.byte		        77*seq_036_mvl/mxv
	.byte	W03
	.byte		        79*seq_036_mvl/mxv
	.byte	W03
	.byte		        79*seq_036_mvl/mxv
	.byte	W03
	.byte		        79*seq_036_mvl/mxv
	.byte	W03
	.byte		        78*seq_036_mvl/mxv
	.byte	W02
	.byte		        77*seq_036_mvl/mxv
	.byte	W03
	.byte		        76*seq_036_mvl/mxv
	.byte	W03
	.byte		        75*seq_036_mvl/mxv
	.byte	W03
	.byte		        73*seq_036_mvl/mxv
	.byte	W03
	.byte		        71*seq_036_mvl/mxv
	.byte	W03
	.byte		        69*seq_036_mvl/mxv
	.byte	W02
	.byte		        68*seq_036_mvl/mxv
	.byte	W03
	.byte		        67*seq_036_mvl/mxv
	.byte	W03
	.byte		        65*seq_036_mvl/mxv
	.byte	W03
	.byte		        63*seq_036_mvl/mxv
	.byte	W03
	.byte		        61*seq_036_mvl/mxv
	.byte	W03
	.byte		        59*seq_036_mvl/mxv
	.byte	W02
	.byte		        58*seq_036_mvl/mxv
	.byte	W03
	.byte		        57*seq_036_mvl/mxv
	.byte	W03
	.byte		        55*seq_036_mvl/mxv
	.byte	W03
	.byte		        53*seq_036_mvl/mxv
	.byte	W03
	.byte		        51*seq_036_mvl/mxv
	.byte	W03
	.byte		        49*seq_036_mvl/mxv
	.byte	W05
	.byte		        46*seq_036_mvl/mxv
	.byte	W01
	.byte		        43*seq_036_mvl/mxv
	.byte	W01
	.byte		        41*seq_036_mvl/mxv
	.byte	W01
	.byte		        39*seq_036_mvl/mxv
	.byte	W01
	.byte		        37*seq_036_mvl/mxv
	.byte	W01
	.byte		        34*seq_036_mvl/mxv
	.byte	W01
	.byte		        30*seq_036_mvl/mxv
	.byte	W01
	.byte		        27*seq_036_mvl/mxv
	.byte	W01
	.byte		        23*seq_036_mvl/mxv
	.byte	W01
	.byte		        19*seq_036_mvl/mxv
	.byte	W01
	.byte		        15*seq_036_mvl/mxv
	.byte	W01
	.byte		        11*seq_036_mvl/mxv
	.byte	W02
	.byte	GOTO
	 .word	seq_036_4 + 0x14
	.byte	FINE

@*********************** Track 06 ***********************@

seq_036_5:
	.byte	KEYSH , seq_036_key+0
	.byte	W10
	.byte		VOICE , 81
	.byte		VOL   , 54*seq_036_mvl/mxv
	.byte		PAN   , c_v+0
	.byte	W01
	.byte		LFOS  , 40
	.byte		MODT  , mod_pan
	.byte	W13
	.byte		TIE   , Fs2 , v060
	.byte	W96
	.byte	W96
	.byte		EOT
	.byte		TIE   , Fn2 
	.byte	W96
	.byte	W96
	.byte		EOT
	.byte		TIE   , Fs2 
	.byte	W96
	.byte	W96
	.byte		EOT
	.byte		TIE   , Fn2 
	.byte	W96
	.byte	W96
	.byte		EOT
	.byte		TIE   , Fs2 
	.byte	W96
	.byte	W96
	.byte		EOT
	.byte		TIE   , Fn2 
	.byte	W96
	.byte	W96
	.byte		EOT
	.byte		TIE   , Fs2 
	.byte	W96
	.byte	W96
	.byte		EOT
	.byte		TIE   , Fn2 
	.byte	W96
	.byte	W96
	.byte		EOT
	.byte	GOTO
	 .word	seq_036_5 + 0xF
	.byte	FINE

@*********************** Track 07 ***********************@

seq_036_6:
	.byte	KEYSH , seq_036_key+0
	.byte	W12
	.byte		VOICE , 33
	.byte		VOL   , 63*seq_036_mvl/mxv
	.byte		PAN   , c_v+0
	.byte	W12
	.byte		TIE   , Bn1 , v092
	.byte	W96
	.byte	W96
	.byte		EOT
	.byte		TIE   , Cs2 
	.byte	W96
	.byte	W96
	.byte		EOT
	.byte		TIE   , Bn1 
	.byte	W96
	.byte	W96
	.byte		EOT
	.byte		TIE   , Cs2 
	.byte	W96
	.byte	W96
	.byte		EOT
	.byte		TIE   , Bn1 
	.byte	W96
	.byte	W96
	.byte		EOT
	.byte		TIE   , Cs2 
	.byte	W96
	.byte	W96
	.byte		EOT
	.byte		TIE   , Bn1 
	.byte	W96
	.byte	W96
	.byte		EOT
	.byte		TIE   , Cs2 
	.byte	W96
	.byte	W96
	.byte		EOT
	.byte	GOTO
	 .word	seq_036_6 + 0xA
	.byte	FINE

@******************************************************@

	.align	2

seq_036:
	.byte	7	@ NumTrks
	.byte	0	@ NumBlks
	.byte	seq_036_pri	@ Priority
	.byte	seq_036_rev	@ Reverb

	.word	seq_036_grp

	.word	seq_036_0
	.word	seq_036_1
	.word	seq_036_2
	.word	seq_036_3
	.word	seq_036_4
	.word	seq_036_5
	.word	seq_036_6

	.end
