@ File generated by m4a2s Song-Module
	.include "MPlayDef.s"

	.equ	seq_023_grp, bank_000
	.equ	seq_023_pri, 50
	.equ	seq_023_rev, 198
	.equ	seq_023_mvl, 127
	.equ	seq_023_key, 0

	.section .rodata
	.global	seq_023
	.align	2

@*********************** Track 01 ***********************@

seq_023_0:
	.byte	KEYSH , seq_023_key+0
	.byte	TEMPO , 82/2
	.byte		VOICE , 76
	.byte		VOL   , 85*seq_023_mvl/mxv
	.byte		PAN   , c_v+0
	.byte	W01
	.byte		BENDR , 12
	.byte		MODT  , mod_pan
	.byte	W17
	.byte	W96
	.byte	W96
	.byte	W96
	.byte	W96
	.byte	W96
	.byte	W68
	.byte	W01
	.byte		VOL   , 66*seq_023_mvl/mxv
	.byte		BEND  , c_v-4
	.byte	W01
	.byte		N24   , An2 , v068
	.byte	W03
	.byte		BEND  , c_v-4
	.byte	W04
	.byte		        c_v-3
	.byte	W02
	.byte		        c_v-2
	.byte	W03
	.byte		        c_v+0
	.byte	W11
	.byte		        c_v-4
	.byte	W01
	.byte		N72   , En3 , v060
	.byte	W02
	.byte	PEND
	.byte	W01
	.byte		BEND  , c_v-4
	.byte	W04
	.byte		        c_v-3
	.byte	W02
	.byte		        c_v-2
	.byte	W03
	.byte		        c_v+0
	.byte	W56
	.byte	W03
	.byte		        c_v-4
	.byte	W01
	.byte		N24   , Dn3 , v048
	.byte	W03
	.byte		BEND  , c_v-4
	.byte	W02
	.byte		        c_v-3
	.byte	W01
	.byte		        c_v-2
	.byte	W01
	.byte		        c_v+0
	.byte	W16
	.byte		VOL   , 66*seq_023_mvl/mxv
	.byte		BEND  , c_v-4
	.byte	W01
	.byte		N48   , An3 , v080
	.byte	W02
	.byte	W01
	.byte		BEND  , c_v-4
	.byte	W02
	.byte		        c_v-3
	.byte	W01
	.byte		        c_v-2
	.byte	W01
	.byte		        c_v+0
	.byte	W40
	.byte		        c_v-4
	.byte	W01
	.byte		N36   , Gn3 , v060
	.byte	W03
	.byte		BEND  , c_v-4
	.byte	W02
	.byte		        c_v-3
	.byte	W01
	.byte		        c_v-2
	.byte	W01
	.byte		        c_v+0
	.byte	W28
	.byte	W01
	.byte		N04   , Gn3 , v072
	.byte	W03
	.byte		        An3 
	.byte	W03
	.byte		        Gn3 
	.byte	W03
	.byte		TIE   , En3 , v056
	.byte	W05
	.byte	PEND
	.byte	W01
	.byte		VOL   , 41*seq_023_mvl/mxv
	.byte	W32
	.byte		        43*seq_023_mvl/mxv
	.byte	W03
	.byte		        45*seq_023_mvl/mxv
	.byte	W03
	.byte		        47*seq_023_mvl/mxv
	.byte	W03
	.byte		        51*seq_023_mvl/mxv
	.byte	W03
	.byte		        55*seq_023_mvl/mxv
	.byte	W02
	.byte		        57*seq_023_mvl/mxv
	.byte	W05
	.byte		        63*seq_023_mvl/mxv
	.byte	W08
	.byte		        62*seq_023_mvl/mxv
	.byte	W06
	.byte		        59*seq_023_mvl/mxv
	.byte	W04
	.byte		        58*seq_023_mvl/mxv
	.byte	W02
	.byte		BEND  , c_v-2
	.byte	W02
	.byte		VOL   , 55*seq_023_mvl/mxv
	.byte	W03
	.byte		        53*seq_023_mvl/mxv
	.byte	W01
	.byte		BEND  , c_v-3
	.byte	W01
	.byte		VOL   , 51*seq_023_mvl/mxv
	.byte	W02
	.byte		        48*seq_023_mvl/mxv
	.byte	W01
	.byte		        46*seq_023_mvl/mxv
	.byte		BEND  , c_v-4
	.byte	W02
	.byte		VOL   , 42*seq_023_mvl/mxv
	.byte		BEND  , c_v-4
	.byte	W02
	.byte		VOL   , 37*seq_023_mvl/mxv
	.byte		BEND  , c_v-6
	.byte	W02
	.byte		VOL   , 32*seq_023_mvl/mxv
	.byte		BEND  , c_v-8
	.byte	W02
	.byte		VOL   , 27*seq_023_mvl/mxv
	.byte		BEND  , c_v-9
	.byte	W02
	.byte		VOL   , 20*seq_023_mvl/mxv
	.byte	W02
	.byte	PEND
	.byte		EOT   , En3 
	.byte	W02
	.byte	W96
	.byte	W96
	.byte	W96
	.byte	W96
	.byte	W96
	.byte	W96
	.byte	W96
	.byte	W96
	.byte	W96
	.byte	W96
	.byte	W96
	.byte	W96
	.byte	W68
	.byte	W03
	.byte		VOL   , 66*seq_023_mvl/mxv
	.byte		BEND  , c_v-4
	.byte	W01
	.byte		N24   , An2 , v068
	.byte	W03
	.byte		BEND  , c_v-4
	.byte	W04
	.byte		        c_v-3
	.byte	W02
	.byte		        c_v-2
	.byte	W03
	.byte		        c_v+0
	.byte	W11
	.byte		        c_v-4
	.byte	W01
	.byte		N72   , En3 , v060
	.byte	W03
	.byte		BEND  , c_v-4
	.byte	W04
	.byte		        c_v-3
	.byte	W02
	.byte		        c_v-2
	.byte	W03
	.byte		        c_v+0
	.byte	W60
	.byte		N24   , Dn3 , v056
	.byte	W06
	.byte		VOL   , 64*seq_023_mvl/mxv
	.byte	W03
	.byte		        62*seq_023_mvl/mxv
	.byte	W02
	.byte		        59*seq_023_mvl/mxv
	.byte	W02
	.byte		        58*seq_023_mvl/mxv
	.byte	W02
	.byte		        56*seq_023_mvl/mxv
	.byte	W02
	.byte		        52*seq_023_mvl/mxv
	.byte	W02
	.byte		        48*seq_023_mvl/mxv
	.byte	W04
	.byte		        66*seq_023_mvl/mxv
	.byte		BEND  , c_v-4
	.byte	W01
	.byte		N48   , An3 , v080
	.byte	W03
	.byte		BEND  , c_v-4
	.byte	W02
	.byte		        c_v-3
	.byte	W01
	.byte		        c_v-2
	.byte	W01
	.byte		        c_v+0
	.byte	W40
	.byte		        c_v-4
	.byte	W01
	.byte		N36   , Gn3 , v060
	.byte	W03
	.byte		BEND  , c_v-4
	.byte	W02
	.byte		        c_v-3
	.byte	W01
	.byte		        c_v-2
	.byte	W01
	.byte		        c_v+0
	.byte	W28
	.byte	W01
	.byte		N04   , Gn3 , v072
	.byte	W03
	.byte		        An3 
	.byte	W03
	.byte		        Gn3 
	.byte	W03
	.byte		TIE   , En3 , v056
	.byte	W03
	.byte	W03
	.byte		VOL   , 41*seq_023_mvl/mxv
	.byte	W32
	.byte		        43*seq_023_mvl/mxv
	.byte	W03
	.byte		        45*seq_023_mvl/mxv
	.byte	W03
	.byte		        47*seq_023_mvl/mxv
	.byte	W03
	.byte		        51*seq_023_mvl/mxv
	.byte	W03
	.byte		        55*seq_023_mvl/mxv
	.byte	W02
	.byte		        57*seq_023_mvl/mxv
	.byte	W05
	.byte		        63*seq_023_mvl/mxv
	.byte	W08
	.byte		        62*seq_023_mvl/mxv
	.byte	W06
	.byte		        59*seq_023_mvl/mxv
	.byte	W04
	.byte		        58*seq_023_mvl/mxv
	.byte	W02
	.byte		BEND  , c_v-2
	.byte	W02
	.byte		VOL   , 55*seq_023_mvl/mxv
	.byte	W03
	.byte		        53*seq_023_mvl/mxv
	.byte	W01
	.byte		BEND  , c_v-3
	.byte	W01
	.byte		VOL   , 51*seq_023_mvl/mxv
	.byte	W02
	.byte		        48*seq_023_mvl/mxv
	.byte	W01
	.byte		        46*seq_023_mvl/mxv
	.byte		BEND  , c_v-4
	.byte	W02
	.byte		VOL   , 42*seq_023_mvl/mxv
	.byte		BEND  , c_v-4
	.byte	W02
	.byte		VOL   , 37*seq_023_mvl/mxv
	.byte		BEND  , c_v-6
	.byte	W02
	.byte		VOL   , 32*seq_023_mvl/mxv
	.byte		BEND  , c_v-8
	.byte	W02
	.byte		VOL   , 27*seq_023_mvl/mxv
	.byte		BEND  , c_v-9
	.byte	W02
	.byte		VOL   , 20*seq_023_mvl/mxv
	.byte	W02
	.byte		EOT
	.byte	W96
	.byte	W96
	.byte	W96
	.byte	W96
	.byte	W96
	.byte	W96
	.byte	W96
	.byte	W96
	.byte	W96
	.byte	W96
	.byte	W96
	.byte	W96
	.byte	PATT
	 .word	seq_023_0 + 0x15
	.byte	W01
	.byte		BEND  , c_v-4
	.byte	W04
	.byte		        c_v-3
	.byte	W02
	.byte		        c_v-2
	.byte	W03
	.byte		        c_v+0
	.byte	W60
	.byte		N24   , Dn3 , v092
	.byte	W06
	.byte		VOL   , 64*seq_023_mvl/mxv
	.byte	W03
	.byte		        62*seq_023_mvl/mxv
	.byte	W02
	.byte		        59*seq_023_mvl/mxv
	.byte	W02
	.byte		        58*seq_023_mvl/mxv
	.byte	W02
	.byte		        56*seq_023_mvl/mxv
	.byte	W02
	.byte		        52*seq_023_mvl/mxv
	.byte	W02
	.byte		        48*seq_023_mvl/mxv
	.byte	W04
	.byte		        66*seq_023_mvl/mxv
	.byte		BEND  , c_v-4
	.byte	W01
	.byte		N48   , An3 , v080
	.byte	W02
	.byte	PATT
	 .word	seq_023_0 + 0x53
	.byte	PATT
	 .word	seq_023_0 + 0x7A
	.byte		EOT   , En3 
	.byte	W02
	.byte	W96
	.byte	W96
	.byte	W96
	.byte	GOTO
	 .word	seq_023_0 + 0xC4
	.byte	FINE

@*********************** Track 02 ***********************@

seq_023_1:
	.byte	KEYSH , seq_023_key+0
	.byte	W01
	.byte		VOICE , 95
	.byte	W01
	.byte		VOL   , 63*seq_023_mvl/mxv
	.byte		PAN   , c_v-20
	.byte		BENDR , 12
	.byte	W01
	.byte		MODT  , mod_pan
	.byte	W15
	.byte	W96
	.byte	W96
	.byte	W96
	.byte	W96
	.byte	W96
	.byte	W96
	.byte	W96
	.byte	W96
	.byte	W96
	.byte	W96
	.byte	W96
	.byte	W96
	.byte	W96
	.byte	W96
	.byte	W96
	.byte	W96
	.byte	W96
	.byte	W96
	.byte	W96
	.byte	W96
	.byte	W96
	.byte	W96
	.byte	W96
	.byte	W96
	.byte	W96
	.byte	W92
	.byte	W03
	.byte		VOICE , 51
	.byte		MOD   , 25
	.byte		PAN   , c_v-30
	.byte		MODT  , mod_tre
	.byte	W01
	.byte	PEND
	.byte	W44
	.byte	W03
	.byte		VOL   , 26*seq_023_mvl/mxv
	.byte	W01
	.byte		N48   , Gn3 , v112
	.byte	W03
	.byte		VOL   , 22*seq_023_mvl/mxv
	.byte	W04
	.byte		        18*seq_023_mvl/mxv
	.byte	W03
	.byte		        14*seq_023_mvl/mxv
	.byte	W03
	.byte		        11*seq_023_mvl/mxv
	.byte	W09
	.byte		        17*seq_023_mvl/mxv
	.byte	W04
	.byte		        20*seq_023_mvl/mxv
	.byte	W02
	.byte		        22*seq_023_mvl/mxv
	.byte	W02
	.byte		        24*seq_023_mvl/mxv
	.byte	W02
	.byte		        26*seq_023_mvl/mxv
	.byte	W16
	.byte	PEND
	.byte		N48   , An3 , v112
	.byte	W07
	.byte		VOL   , 20*seq_023_mvl/mxv
	.byte	W03
	.byte		        16*seq_023_mvl/mxv
	.byte	W03
	.byte		        14*seq_023_mvl/mxv
	.byte	W09
	.byte		        17*seq_023_mvl/mxv
	.byte	W04
	.byte		        20*seq_023_mvl/mxv
	.byte	W02
	.byte		        22*seq_023_mvl/mxv
	.byte	W02
	.byte		        24*seq_023_mvl/mxv
	.byte	W02
	.byte		        26*seq_023_mvl/mxv
	.byte	W05
	.byte		        24*seq_023_mvl/mxv
	.byte	W02
	.byte		        22*seq_023_mvl/mxv
	.byte	W01
	.byte		        20*seq_023_mvl/mxv
	.byte	W01
	.byte		        18*seq_023_mvl/mxv
	.byte	W01
	.byte		        17*seq_023_mvl/mxv
	.byte	W01
	.byte		        16*seq_023_mvl/mxv
	.byte	W04
	.byte		        13*seq_023_mvl/mxv
	.byte	W01
	.byte		        16*seq_023_mvl/mxv
	.byte		N48   , Cn4 
	.byte	W01
	.byte		VOL   , 22*seq_023_mvl/mxv
	.byte	W12
	.byte		        20*seq_023_mvl/mxv
	.byte	W03
	.byte		        18*seq_023_mvl/mxv
	.byte	W03
	.byte		        16*seq_023_mvl/mxv
	.byte	W28
	.byte	W01
	.byte	PEND
	.byte		N96   , Dn4 , v112
	.byte	W44
	.byte	W02
	.byte		VOL   , 13*seq_023_mvl/mxv
	.byte	W04
	.byte		        15*seq_023_mvl/mxv
	.byte	W02
	.byte		        16*seq_023_mvl/mxv
	.byte	W02
	.byte		        16*seq_023_mvl/mxv
	.byte	W02
	.byte		        18*seq_023_mvl/mxv
	.byte	W14
	.byte		        19*seq_023_mvl/mxv
	.byte	W04
	.byte		        17*seq_023_mvl/mxv
	.byte	W02
	.byte		        16*seq_023_mvl/mxv
	.byte	W02
	.byte		        15*seq_023_mvl/mxv
	.byte	W02
	.byte		        14*seq_023_mvl/mxv
	.byte	W04
	.byte		        12*seq_023_mvl/mxv
	.byte	W02
	.byte		        11*seq_023_mvl/mxv
	.byte	W01
	.byte		        8*seq_023_mvl/mxv
	.byte	W01
	.byte		        6*seq_023_mvl/mxv
	.byte	W01
	.byte		        4*seq_023_mvl/mxv
	.byte	W01
	.byte		        2*seq_023_mvl/mxv
	.byte	W01
	.byte		        1*seq_023_mvl/mxv
	.byte	W05
	.byte	PEND
	.byte	PATT
	 .word	seq_023_1 + 0x29
	.byte	PATT
	 .word	seq_023_1 + 0x35
	.byte	PATT
	 .word	seq_023_1 + 0x52
	.byte	PATT
	 .word	seq_023_1 + 0x84
	.byte	W96
	.byte	W96
	.byte	W96
	.byte	W96
	.byte	W96
	.byte	W96
	.byte	W96
	.byte	W96
	.byte	W96
	.byte	W96
	.byte	W96
	.byte	GOTO
	 .word	seq_023_1 + 0x1C
	.byte	FINE

@*********************** Track 03 ***********************@

seq_023_2:
	.byte	KEYSH , seq_023_key+0
	.byte	W03
	.byte		VOICE , 95
	.byte		VOL   , 63*seq_023_mvl/mxv
	.byte	W01
	.byte		PAN   , c_v+0
	.byte		BENDR , 12
	.byte		MODT  , mod_pan
	.byte	W14
	.byte	W96
	.byte	W01
	.byte		N05   , Dn2 , v012
	.byte	W04
	.byte		        En2 , v016
	.byte	W04
	.byte		        Dn2 , v020
	.byte	W03
	.byte		        En2 , v024
	.byte	W05
	.byte		        Dn2 , v032
	.byte	W03
	.byte		        En2 , v036
	.byte	W04
	.byte		        Dn2 , v044
	.byte	W03
	.byte		        En2 , v052
	.byte	W03
	.byte		        Dn2 , v064
	.byte	W03
	.byte		        En2 , v068
	.byte	W04
	.byte		        Dn2 , v080
	.byte	W03
	.byte		        En2 , v088
	.byte	W04
	.byte		        Dn2 , v096
	.byte	W04
	.byte		        En2 , v104
	.byte	W03
	.byte		        Dn2 , v108
	.byte	W04
	.byte		        En2 , v112
	.byte	W03
	.byte		        Dn2 , v108
	.byte	W03
	.byte		        En2 , v104
	.byte	W04
	.byte		        Dn2 , v096
	.byte	W03
	.byte		        En2 , v080
	.byte	W05
	.byte		        Dn2 , v060
	.byte	W03
	.byte		        En2 , v048
	.byte	W04
	.byte		        Dn2 , v028
	.byte	W16
	.byte	PEND
	.byte	W96
	.byte	W01
	.byte		N04   , En2 , v012
	.byte	W04
	.byte		        Fn2 , v016
	.byte	W04
	.byte		        En2 , v020
	.byte	W03
	.byte		        Fn2 , v024
	.byte	W05
	.byte		        En2 , v032
	.byte	W03
	.byte		        Fn2 , v036
	.byte	W04
	.byte		        En2 , v044
	.byte	W03
	.byte		        Fn2 , v052
	.byte	W03
	.byte		        En2 , v064
	.byte	W03
	.byte		        Fn2 , v068
	.byte	W04
	.byte		        En2 , v080
	.byte	W03
	.byte		        Fn2 , v088
	.byte	W04
	.byte		        En2 , v096
	.byte	W04
	.byte		        Fn2 , v104
	.byte	W03
	.byte		        En2 , v108
	.byte	W04
	.byte		        Fn2 , v112
	.byte	W03
	.byte		        En2 , v108
	.byte	W03
	.byte		        Fn2 , v104
	.byte	W04
	.byte		        En2 , v096
	.byte	W03
	.byte		        Fn2 , v080
	.byte	W05
	.byte		        En2 , v060
	.byte	W03
	.byte		        Fn2 , v048
	.byte	W04
	.byte		        En2 , v028
	.byte	W16
	.byte	PEND
	.byte	W96
	.byte	PATT
	 .word	seq_023_2 + 0x10
	.byte	W96
	.byte	PATT
	 .word	seq_023_2 + 0x59
	.byte	W96
	.byte	PATT
	 .word	seq_023_2 + 0x10
	.byte	W96
	.byte	PATT
	 .word	seq_023_2 + 0x59
	.byte	W96
	.byte	PATT
	 .word	seq_023_2 + 0x10
	.byte	W96
	.byte	PATT
	 .word	seq_023_2 + 0x59
	.byte	W96
	.byte	PATT
	 .word	seq_023_2 + 0x10
	.byte	W96
	.byte	PATT
	 .word	seq_023_2 + 0x59
	.byte	W96
	.byte	PATT
	 .word	seq_023_2 + 0x10
	.byte	W96
	.byte	PATT
	 .word	seq_023_2 + 0x59
	.byte	W96
	.byte	W92
	.byte	W03
	.byte		VOICE , 51
	.byte		MOD   , 25
	.byte		PAN   , c_v+30
	.byte		MODT  , mod_tre
	.byte	W01
	.byte	PEND
	.byte	W44
	.byte	W03
	.byte		VOL   , 26*seq_023_mvl/mxv
	.byte	W01
	.byte		N48   , Dn3 , v112
	.byte	W03
	.byte		VOL   , 22*seq_023_mvl/mxv
	.byte	W04
	.byte		        18*seq_023_mvl/mxv
	.byte	W03
	.byte		        14*seq_023_mvl/mxv
	.byte	W03
	.byte		        11*seq_023_mvl/mxv
	.byte	W09
	.byte		        17*seq_023_mvl/mxv
	.byte	W04
	.byte		        20*seq_023_mvl/mxv
	.byte	W02
	.byte		        22*seq_023_mvl/mxv
	.byte	W02
	.byte		        24*seq_023_mvl/mxv
	.byte	W02
	.byte		        26*seq_023_mvl/mxv
	.byte	W16
	.byte	PEND
	.byte		N48   , En3 , v112
	.byte	W07
	.byte		VOL   , 20*seq_023_mvl/mxv
	.byte	W03
	.byte		        16*seq_023_mvl/mxv
	.byte	W03
	.byte		        14*seq_023_mvl/mxv
	.byte	W09
	.byte		        17*seq_023_mvl/mxv
	.byte	W04
	.byte		        20*seq_023_mvl/mxv
	.byte	W02
	.byte		        22*seq_023_mvl/mxv
	.byte	W02
	.byte		        24*seq_023_mvl/mxv
	.byte	W02
	.byte		        26*seq_023_mvl/mxv
	.byte	W05
	.byte		        24*seq_023_mvl/mxv
	.byte	W02
	.byte		        22*seq_023_mvl/mxv
	.byte	W01
	.byte		        20*seq_023_mvl/mxv
	.byte	W01
	.byte		        18*seq_023_mvl/mxv
	.byte	W01
	.byte		        17*seq_023_mvl/mxv
	.byte	W01
	.byte		        16*seq_023_mvl/mxv
	.byte	W04
	.byte		        13*seq_023_mvl/mxv
	.byte	W01
	.byte		        16*seq_023_mvl/mxv
	.byte		N48   , Gn3 
	.byte	W01
	.byte		VOL   , 22*seq_023_mvl/mxv
	.byte	W12
	.byte		        20*seq_023_mvl/mxv
	.byte	W03
	.byte		        18*seq_023_mvl/mxv
	.byte	W03
	.byte		        16*seq_023_mvl/mxv
	.byte	W28
	.byte	W01
	.byte	PEND
	.byte		N96   , An3 , v112
	.byte	W44
	.byte	W02
	.byte		VOL   , 13*seq_023_mvl/mxv
	.byte	W04
	.byte		        15*seq_023_mvl/mxv
	.byte	W02
	.byte		        16*seq_023_mvl/mxv
	.byte	W02
	.byte		        16*seq_023_mvl/mxv
	.byte	W02
	.byte		        18*seq_023_mvl/mxv
	.byte	W14
	.byte		        19*seq_023_mvl/mxv
	.byte	W04
	.byte		        17*seq_023_mvl/mxv
	.byte	W02
	.byte		        16*seq_023_mvl/mxv
	.byte	W02
	.byte		        15*seq_023_mvl/mxv
	.byte	W02
	.byte		        14*seq_023_mvl/mxv
	.byte	W04
	.byte		        12*seq_023_mvl/mxv
	.byte	W02
	.byte		        11*seq_023_mvl/mxv
	.byte	W01
	.byte		        8*seq_023_mvl/mxv
	.byte	W01
	.byte		        6*seq_023_mvl/mxv
	.byte	W01
	.byte		        4*seq_023_mvl/mxv
	.byte	W01
	.byte		        2*seq_023_mvl/mxv
	.byte	W01
	.byte		        1*seq_023_mvl/mxv
	.byte	W05
	.byte	PEND
	.byte	PATT
	 .word	seq_023_2 + 0xDE
	.byte	PATT
	 .word	seq_023_2 + 0xEA
	.byte	PATT
	 .word	seq_023_2 + 0x107
	.byte	PATT
	 .word	seq_023_2 + 0x139
	.byte		VOICE , 95
	.byte	W01
	.byte		VOL   , 63*seq_023_mvl/mxv
	.byte	W01
	.byte		PAN   , c_v+0
	.byte	W01
	.byte		MODT  , mod_pan
	.byte	W01
	.byte		BENDR , 12
	.byte	W92
	.byte	W96
	.byte	PATT
	 .word	seq_023_2 + 0x59
	.byte	W96
	.byte	PATT
	 .word	seq_023_2 + 0x10
	.byte	W96
	.byte	PATT
	 .word	seq_023_2 + 0x59
	.byte	W96
	.byte	PATT
	 .word	seq_023_2 + 0x10
	.byte	W96
	.byte	PATT
	 .word	seq_023_2 + 0x59
	.byte	GOTO
	 .word	seq_023_2 + 0xB9
	.byte	FINE

@*********************** Track 04 ***********************@

seq_023_3:
	.byte	KEYSH , seq_023_key+0
	.byte	W05
	.byte		VOICE , 95
	.byte		VOL   , 80*seq_023_mvl/mxv
	.byte		PAN   , c_v-63
	.byte	W13
	.byte	W12
	.byte		N02   , An2 , v127
	.byte	W06
	.byte		        An2 , v032
	.byte	W18
	.byte		        An2 , v127
	.byte	W06
	.byte		        An2 , v032
	.byte	W18
	.byte		        An2 , v127
	.byte	W06
	.byte		        An2 , v032
	.byte	W18
	.byte		        An2 , v127
	.byte	W06
	.byte		        An2 , v032
	.byte	W06
	.byte	PEND
	.byte	PATT
	 .word	seq_023_3 + 0xA
	.byte	PATT
	 .word	seq_023_3 + 0xA
	.byte	PATT
	 .word	seq_023_3 + 0xA
	.byte	PATT
	 .word	seq_023_3 + 0xA
	.byte	PATT
	 .word	seq_023_3 + 0xA
	.byte	PATT
	 .word	seq_023_3 + 0xA
	.byte	PATT
	 .word	seq_023_3 + 0xA
	.byte	PATT
	 .word	seq_023_3 + 0xA
	.byte	PATT
	 .word	seq_023_3 + 0xA
	.byte	PATT
	 .word	seq_023_3 + 0xA
	.byte	PATT
	 .word	seq_023_3 + 0xA
	.byte	PATT
	 .word	seq_023_3 + 0xA
	.byte	PATT
	 .word	seq_023_3 + 0xA
	.byte	PATT
	 .word	seq_023_3 + 0xA
	.byte	PATT
	 .word	seq_023_3 + 0xA
	.byte	PATT
	 .word	seq_023_3 + 0xA
	.byte	PATT
	 .word	seq_023_3 + 0xA
	.byte	PATT
	 .word	seq_023_3 + 0xA
	.byte	PATT
	 .word	seq_023_3 + 0xA
	.byte	PATT
	 .word	seq_023_3 + 0xA
	.byte	PATT
	 .word	seq_023_3 + 0xA
	.byte	PATT
	 .word	seq_023_3 + 0xA
	.byte	PATT
	 .word	seq_023_3 + 0xA
	.byte	W02
	.byte		PAN   , c_v-20
	.byte	W44
	.byte		VOL   , 66*seq_023_mvl/mxv
	.byte	W01
	.byte		N48   , Dn2 , v100
	.byte	W48
	.byte		        En2 
	.byte	W01
	.byte	W44
	.byte	W03
	.byte		N48   , Gn2 , v100
	.byte	W48
	.byte		N96   , An2 
	.byte	W01
	.byte	PEND
	.byte	W08
	.byte		VOL   , 64*seq_023_mvl/mxv
	.byte	W04
	.byte		        62*seq_023_mvl/mxv
	.byte	W04
	.byte		        62*seq_023_mvl/mxv
	.byte	W03
	.byte		        61*seq_023_mvl/mxv
	.byte	W04
	.byte		        60*seq_023_mvl/mxv
	.byte	W04
	.byte		        59*seq_023_mvl/mxv
	.byte	W03
	.byte		        58*seq_023_mvl/mxv
	.byte	W04
	.byte		        58*seq_023_mvl/mxv
	.byte	W04
	.byte		        57*seq_023_mvl/mxv
	.byte	W03
	.byte		        56*seq_023_mvl/mxv
	.byte	W04
	.byte		        56*seq_023_mvl/mxv
	.byte	W04
	.byte		        54*seq_023_mvl/mxv
	.byte	W03
	.byte		        54*seq_023_mvl/mxv
	.byte	W04
	.byte		        52*seq_023_mvl/mxv
	.byte	W04
	.byte		        48*seq_023_mvl/mxv
	.byte	W03
	.byte		        45*seq_023_mvl/mxv
	.byte	W04
	.byte		        40*seq_023_mvl/mxv
	.byte	W04
	.byte		        36*seq_023_mvl/mxv
	.byte	W03
	.byte		        34*seq_023_mvl/mxv
	.byte	W04
	.byte		        29*seq_023_mvl/mxv
	.byte	W04
	.byte		        22*seq_023_mvl/mxv
	.byte	W03
	.byte		        17*seq_023_mvl/mxv
	.byte	W04
	.byte		        11*seq_023_mvl/mxv
	.byte	W04
	.byte		        4*seq_023_mvl/mxv
	.byte	W03
	.byte	PEND
	.byte	W96
	.byte	W44
	.byte	W02
	.byte		        66*seq_023_mvl/mxv
	.byte	W01
	.byte		N48   , Dn2 , v100
	.byte	W48
	.byte		        En2 
	.byte	W01
	.byte	PATT
	 .word	seq_023_3 + 0xA5
	.byte	PATT
	 .word	seq_023_3 + 0xAF
	.byte	W90
	.byte	W01
	.byte		VOL   , 85*seq_023_mvl/mxv
	.byte		PAN   , c_v-63
	.byte	W05
	.byte	PATT
	 .word	seq_023_3 + 0xA
	.byte	PATT
	 .word	seq_023_3 + 0xA
	.byte	PATT
	 .word	seq_023_3 + 0xA
	.byte	PATT
	 .word	seq_023_3 + 0xA
	.byte	PATT
	 .word	seq_023_3 + 0xA
	.byte	PATT
	 .word	seq_023_3 + 0xA
	.byte	PATT
	 .word	seq_023_3 + 0xA
	.byte	PATT
	 .word	seq_023_3 + 0xA
	.byte	PATT
	 .word	seq_023_3 + 0xA
	.byte	PATT
	 .word	seq_023_3 + 0xA
	.byte	PATT
	 .word	seq_023_3 + 0xA
	.byte	PATT
	 .word	seq_023_3 + 0xA
	.byte	GOTO
	 .word	seq_023_3 + 0x5C
	.byte	FINE

@*********************** Track 05 ***********************@

seq_023_4:
	.byte	KEYSH , seq_023_key+0
	.byte	W06
	.byte		VOICE , 95
	.byte		VOL   , 80*seq_023_mvl/mxv
	.byte		PAN   , c_v+63
	.byte	W12
	.byte	W12
	.byte		N02   , En2 , v127
	.byte	W06
	.byte		        En2 , v032
	.byte	W18
	.byte		        En2 , v127
	.byte	W06
	.byte		        En2 , v032
	.byte	W18
	.byte		        En2 , v127
	.byte	W06
	.byte		        En2 , v032
	.byte	W18
	.byte		        En2 , v127
	.byte	W06
	.byte		        En2 , v032
	.byte	W06
	.byte	PEND
	.byte	PATT
	 .word	seq_023_4 + 0xA
	.byte	PATT
	 .word	seq_023_4 + 0xA
	.byte	PATT
	 .word	seq_023_4 + 0xA
	.byte	PATT
	 .word	seq_023_4 + 0xA
	.byte	PATT
	 .word	seq_023_4 + 0xA
	.byte	PATT
	 .word	seq_023_4 + 0xA
	.byte	PATT
	 .word	seq_023_4 + 0xA
	.byte	PATT
	 .word	seq_023_4 + 0xA
	.byte	PATT
	 .word	seq_023_4 + 0xA
	.byte	PATT
	 .word	seq_023_4 + 0xA
	.byte	PATT
	 .word	seq_023_4 + 0xA
	.byte	PATT
	 .word	seq_023_4 + 0xA
	.byte	PATT
	 .word	seq_023_4 + 0xA
	.byte	PATT
	 .word	seq_023_4 + 0xA
	.byte	PATT
	 .word	seq_023_4 + 0xA
	.byte	PATT
	 .word	seq_023_4 + 0xA
	.byte	PATT
	 .word	seq_023_4 + 0xA
	.byte	PATT
	 .word	seq_023_4 + 0xA
	.byte	PATT
	 .word	seq_023_4 + 0xA
	.byte	PATT
	 .word	seq_023_4 + 0xA
	.byte	PATT
	 .word	seq_023_4 + 0xA
	.byte	PATT
	 .word	seq_023_4 + 0xA
	.byte	PATT
	 .word	seq_023_4 + 0xA
	.byte	W02
	.byte		PAN   , c_v+20
	.byte	W44
	.byte		VOL   , 66*seq_023_mvl/mxv
	.byte	W01
	.byte		N48   , An1 , v100
	.byte	W48
	.byte		        Bn1 
	.byte	W01
	.byte	W44
	.byte	W03
	.byte		N48   , Dn2 , v100
	.byte	W48
	.byte		N96   , En2 
	.byte	W01
	.byte	PEND
	.byte	W08
	.byte		VOL   , 64*seq_023_mvl/mxv
	.byte	W04
	.byte		        62*seq_023_mvl/mxv
	.byte	W04
	.byte		        62*seq_023_mvl/mxv
	.byte	W03
	.byte		        61*seq_023_mvl/mxv
	.byte	W04
	.byte		        60*seq_023_mvl/mxv
	.byte	W04
	.byte		        59*seq_023_mvl/mxv
	.byte	W03
	.byte		        58*seq_023_mvl/mxv
	.byte	W04
	.byte		        58*seq_023_mvl/mxv
	.byte	W04
	.byte		        57*seq_023_mvl/mxv
	.byte	W03
	.byte		        56*seq_023_mvl/mxv
	.byte	W04
	.byte		        56*seq_023_mvl/mxv
	.byte	W04
	.byte		        54*seq_023_mvl/mxv
	.byte	W03
	.byte		        54*seq_023_mvl/mxv
	.byte	W04
	.byte		        52*seq_023_mvl/mxv
	.byte	W04
	.byte		        48*seq_023_mvl/mxv
	.byte	W03
	.byte		        45*seq_023_mvl/mxv
	.byte	W04
	.byte		        40*seq_023_mvl/mxv
	.byte	W04
	.byte		        36*seq_023_mvl/mxv
	.byte	W03
	.byte		        34*seq_023_mvl/mxv
	.byte	W04
	.byte		        29*seq_023_mvl/mxv
	.byte	W04
	.byte		        22*seq_023_mvl/mxv
	.byte	W03
	.byte		        17*seq_023_mvl/mxv
	.byte	W04
	.byte		        11*seq_023_mvl/mxv
	.byte	W04
	.byte		        4*seq_023_mvl/mxv
	.byte	W03
	.byte	PEND
	.byte	W96
	.byte	W44
	.byte	W02
	.byte		        66*seq_023_mvl/mxv
	.byte	W01
	.byte		N48   , An1 , v100
	.byte	W48
	.byte		        Bn1 
	.byte	W01
	.byte	PATT
	 .word	seq_023_4 + 0xA5
	.byte	PATT
	 .word	seq_023_4 + 0xAF
	.byte	W90
	.byte	W01
	.byte		VOL   , 85*seq_023_mvl/mxv
	.byte		PAN   , c_v+63
	.byte	W05
	.byte	PATT
	 .word	seq_023_4 + 0xA
	.byte	PATT
	 .word	seq_023_4 + 0xA
	.byte	PATT
	 .word	seq_023_4 + 0xA
	.byte	PATT
	 .word	seq_023_4 + 0xA
	.byte	PATT
	 .word	seq_023_4 + 0xA
	.byte	PATT
	 .word	seq_023_4 + 0xA
	.byte	PATT
	 .word	seq_023_4 + 0xA
	.byte	PATT
	 .word	seq_023_4 + 0xA
	.byte	PATT
	 .word	seq_023_4 + 0xA
	.byte	PATT
	 .word	seq_023_4 + 0xA
	.byte	PATT
	 .word	seq_023_4 + 0xA
	.byte	PATT
	 .word	seq_023_4 + 0xA
	.byte	GOTO
	 .word	seq_023_4 + 0x5C
	.byte	FINE

@*********************** Track 06 ***********************@

seq_023_5:
	.byte	KEYSH , seq_023_key+0
	.byte	W07
	.byte		VOICE , 76
	.byte		VOL   , 53*seq_023_mvl/mxv
	.byte		PAN   , c_v-20
	.byte	W01
	.byte		MODT  , mod_pan
	.byte	W10
	.byte	W96
	.byte	W96
	.byte	W96
	.byte	W96
	.byte	W96
	.byte	W96
	.byte	W96
	.byte		VOICE , 112
	.byte	W01
	.byte		VOL   , 85*seq_023_mvl/mxv
	.byte	W01
	.byte		PAN   , c_v-20
	.byte	W01
	.byte		MODT  , mod_pan
	.byte	W92
	.byte	W01
	.byte	PEND
	.byte	W23
	.byte		VOL   , 9*seq_023_mvl/mxv
	.byte	W01
	.byte		N72   , An2 , v120
	.byte	W02
	.byte		VOL   , 8*seq_023_mvl/mxv
	.byte	W02
	.byte		        10*seq_023_mvl/mxv
	.byte	W02
	.byte		        11*seq_023_mvl/mxv
	.byte	W02
	.byte		        12*seq_023_mvl/mxv
	.byte	W02
	.byte		        14*seq_023_mvl/mxv
	.byte	W02
	.byte		        15*seq_023_mvl/mxv
	.byte	W02
	.byte		        16*seq_023_mvl/mxv
	.byte	W02
	.byte		        18*seq_023_mvl/mxv
	.byte	W02
	.byte		        19*seq_023_mvl/mxv
	.byte	W02
	.byte		        20*seq_023_mvl/mxv
	.byte	W02
	.byte		        24*seq_023_mvl/mxv
	.byte	W02
	.byte		        30*seq_023_mvl/mxv
	.byte	W03
	.byte		        39*seq_023_mvl/mxv
	.byte	W02
	.byte		        46*seq_023_mvl/mxv
	.byte	W02
	.byte		        52*seq_023_mvl/mxv
	.byte	W02
	.byte		        58*seq_023_mvl/mxv
	.byte	W02
	.byte		        64*seq_023_mvl/mxv
	.byte	W02
	.byte		        70*seq_023_mvl/mxv
	.byte	W02
	.byte		        76*seq_023_mvl/mxv
	.byte	W02
	.byte		        82*seq_023_mvl/mxv
	.byte	W02
	.byte		        81*seq_023_mvl/mxv
	.byte	W02
	.byte		        80*seq_023_mvl/mxv
	.byte	W02
	.byte		        79*seq_023_mvl/mxv
	.byte	W03
	.byte		        77*seq_023_mvl/mxv
	.byte	W02
	.byte		        76*seq_023_mvl/mxv
	.byte	W02
	.byte		        71*seq_023_mvl/mxv
	.byte	W02
	.byte		        66*seq_023_mvl/mxv
	.byte	W02
	.byte		        60*seq_023_mvl/mxv
	.byte	W02
	.byte		        55*seq_023_mvl/mxv
	.byte	W02
	.byte		        48*seq_023_mvl/mxv
	.byte	W02
	.byte		        40*seq_023_mvl/mxv
	.byte	W02
	.byte		        33*seq_023_mvl/mxv
	.byte	W02
	.byte		        25*seq_023_mvl/mxv
	.byte	W02
	.byte		        18*seq_023_mvl/mxv
	.byte	W02
	.byte	PEND
	.byte	W96
	.byte	PATT
	 .word	seq_023_5 + 0x22
	.byte	W96
	.byte	PATT
	 .word	seq_023_5 + 0x22
	.byte	W96
	.byte	PATT
	 .word	seq_023_5 + 0x22
	.byte	W92
	.byte	W03
	.byte		VOICE , 9
	.byte		VOL   , 60*seq_023_mvl/mxv
	.byte		PAN   , c_v-30
	.byte	W01
	.byte	W24
	.byte		N04   , An4 , v060
	.byte	W06
	.byte		        An4 , v032
	.byte	W18
	.byte		        Gn4 , v060
	.byte	W06
	.byte		        Gn4 , v032
	.byte	W18
	.byte		        En4 , v060
	.byte	W06
	.byte		        En4 , v032
	.byte	W18
	.byte	PEND
	.byte		N04   , Dn4 , v060
	.byte	W06
	.byte		        Dn4 , v032
	.byte	W18
	.byte		        En4 , v060
	.byte	W06
	.byte		        En4 , v032
	.byte	W18
	.byte		        An3 , v060
	.byte	W06
	.byte		        An3 , v032
	.byte	W18
	.byte		        Gn3 , v060
	.byte	W06
	.byte		        Gn3 , v032
	.byte	W18
	.byte	PEND
	.byte	PATT
	 .word	seq_023_5 + 0x8B
	.byte	PATT
	 .word	seq_023_5 + 0xA0
	.byte	PATT
	 .word	seq_023_5 + 0x8B
	.byte	PATT
	 .word	seq_023_5 + 0xA0
	.byte	PATT
	 .word	seq_023_5 + 0x8B
	.byte	PATT
	 .word	seq_023_5 + 0xA0
	.byte	W12
	.byte		VOICE , 14
	.byte	W01
	.byte		VOL   , 80*seq_023_mvl/mxv
	.byte	W01
	.byte		PAN   , c_v+0
	.byte	W01
	.byte		MODT  , mod_pan
	.byte	W01
	.byte		MOD   , 50
	.byte	W32
	.byte		N04   , Dn3 , v032
	.byte	W06
	.byte		        Dn3 , v012
	.byte	W18
	.byte		        Dn3 , v060
	.byte	W06
	.byte		        Dn3 , v032
	.byte	W18
	.byte		N04   , En3 , v032
	.byte	W06
	.byte		        En3 , v012
	.byte	W18
	.byte		        En3 , v060
	.byte	W06
	.byte		        En3 , v032
	.byte	W18
	.byte		        Gn3 
	.byte	W06
	.byte		        Gn3 , v012
	.byte	W18
	.byte		        Gn3 , v060
	.byte	W06
	.byte		        Gn3 , v032
	.byte	W18
	.byte	PEND
	.byte	PATT
	 .word	seq_023_5 + 0xF5
	.byte		N04   , An3 , v032
	.byte	W06
	.byte		        An3 , v012
	.byte	W18
	.byte		        An3 , v060
	.byte	W06
	.byte		        An3 , v032
	.byte	W18
	.byte		        Cn4 
	.byte	W06
	.byte		        Cn4 , v012
	.byte	W18
	.byte		        Cn4 , v060
	.byte	W06
	.byte		        Cn4 , v032
	.byte	W18
	.byte	PEND
	.byte		        En3 
	.byte	W06
	.byte		        En3 , v012
	.byte	W18
	.byte		        En3 , v060
	.byte	W06
	.byte		        En3 , v032
	.byte	W18
	.byte		        Dn3 
	.byte	W06
	.byte		        Dn3 , v012
	.byte	W18
	.byte		        Dn3 , v060
	.byte	W06
	.byte		        Dn3 , v032
	.byte	W18
	.byte	PATT
	 .word	seq_023_5 + 0xF5
	.byte	PATT
	 .word	seq_023_5 + 0xF5
	.byte	PATT
	 .word	seq_023_5 + 0x113
	.byte	W96
	.byte	PATT
	 .word	seq_023_5 + 0x14
	.byte	W96
	.byte	W96
	.byte	W96
	.byte	W96
	.byte	W96
	.byte	W96
	.byte	PATT
	 .word	seq_023_5 + 0x22
	.byte	W96
	.byte	PATT
	 .word	seq_023_5 + 0x22
	.byte	W96
	.byte	GOTO
	 .word	seq_023_5 + 0x77
	.byte	FINE

@*********************** Track 07 ***********************@

seq_023_6:
	.byte	KEYSH , seq_023_key+0
	.byte	W08
	.byte		VOICE , 76
	.byte		VOL   , 53*seq_023_mvl/mxv
	.byte	W01
	.byte		PAN   , c_v+20
	.byte		MODT  , mod_pan
	.byte	W09
	.byte	W96
	.byte	W96
	.byte	W96
	.byte	W96
	.byte	W96
	.byte	W96
	.byte	W96
	.byte		VOICE , 112
	.byte	W01
	.byte		VOL   , 85*seq_023_mvl/mxv
	.byte	W01
	.byte		PAN   , c_v+20
	.byte	W01
	.byte		MODT  , mod_pan
	.byte	W92
	.byte	W01
	.byte	PEND
	.byte	W23
	.byte		VOL   , 9*seq_023_mvl/mxv
	.byte	W01
	.byte		N72   , En2 , v120
	.byte	W02
	.byte		VOL   , 8*seq_023_mvl/mxv
	.byte	W02
	.byte		        10*seq_023_mvl/mxv
	.byte	W02
	.byte		        11*seq_023_mvl/mxv
	.byte	W02
	.byte		        12*seq_023_mvl/mxv
	.byte	W02
	.byte		        14*seq_023_mvl/mxv
	.byte	W02
	.byte		        15*seq_023_mvl/mxv
	.byte	W02
	.byte		        16*seq_023_mvl/mxv
	.byte	W02
	.byte		        18*seq_023_mvl/mxv
	.byte	W02
	.byte		        19*seq_023_mvl/mxv
	.byte	W02
	.byte		        20*seq_023_mvl/mxv
	.byte	W02
	.byte		        24*seq_023_mvl/mxv
	.byte	W02
	.byte		        30*seq_023_mvl/mxv
	.byte	W03
	.byte		        39*seq_023_mvl/mxv
	.byte	W02
	.byte		        46*seq_023_mvl/mxv
	.byte	W02
	.byte		        52*seq_023_mvl/mxv
	.byte	W02
	.byte		        58*seq_023_mvl/mxv
	.byte	W02
	.byte		        64*seq_023_mvl/mxv
	.byte	W02
	.byte		        70*seq_023_mvl/mxv
	.byte	W02
	.byte		        76*seq_023_mvl/mxv
	.byte	W02
	.byte		        82*seq_023_mvl/mxv
	.byte	W02
	.byte		        81*seq_023_mvl/mxv
	.byte	W02
	.byte		        80*seq_023_mvl/mxv
	.byte	W02
	.byte		        79*seq_023_mvl/mxv
	.byte	W03
	.byte		        77*seq_023_mvl/mxv
	.byte	W02
	.byte		        76*seq_023_mvl/mxv
	.byte	W02
	.byte		        71*seq_023_mvl/mxv
	.byte	W02
	.byte		        66*seq_023_mvl/mxv
	.byte	W02
	.byte		        60*seq_023_mvl/mxv
	.byte	W02
	.byte		        55*seq_023_mvl/mxv
	.byte	W02
	.byte		        48*seq_023_mvl/mxv
	.byte	W02
	.byte		        40*seq_023_mvl/mxv
	.byte	W02
	.byte		        33*seq_023_mvl/mxv
	.byte	W02
	.byte		        25*seq_023_mvl/mxv
	.byte	W02
	.byte		        18*seq_023_mvl/mxv
	.byte	W02
	.byte	PEND
	.byte	W96
	.byte	W23
	.byte		VOL   , 9*seq_023_mvl/mxv
	.byte	W01
	.byte		N72   , Fn2 , v120
	.byte	W02
	.byte		VOL   , 8*seq_023_mvl/mxv
	.byte	W02
	.byte		        10*seq_023_mvl/mxv
	.byte	W02
	.byte		        11*seq_023_mvl/mxv
	.byte	W02
	.byte		        12*seq_023_mvl/mxv
	.byte	W02
	.byte		        14*seq_023_mvl/mxv
	.byte	W02
	.byte		        15*seq_023_mvl/mxv
	.byte	W02
	.byte		        16*seq_023_mvl/mxv
	.byte	W02
	.byte		        18*seq_023_mvl/mxv
	.byte	W02
	.byte		        19*seq_023_mvl/mxv
	.byte	W02
	.byte		        20*seq_023_mvl/mxv
	.byte	W02
	.byte		        24*seq_023_mvl/mxv
	.byte	W02
	.byte		        30*seq_023_mvl/mxv
	.byte	W03
	.byte		        39*seq_023_mvl/mxv
	.byte	W02
	.byte		        46*seq_023_mvl/mxv
	.byte	W02
	.byte		        52*seq_023_mvl/mxv
	.byte	W02
	.byte		        58*seq_023_mvl/mxv
	.byte	W02
	.byte		        64*seq_023_mvl/mxv
	.byte	W02
	.byte		        70*seq_023_mvl/mxv
	.byte	W02
	.byte		        76*seq_023_mvl/mxv
	.byte	W02
	.byte		        82*seq_023_mvl/mxv
	.byte	W02
	.byte		        81*seq_023_mvl/mxv
	.byte	W02
	.byte		        80*seq_023_mvl/mxv
	.byte	W02
	.byte		        79*seq_023_mvl/mxv
	.byte	W03
	.byte		        77*seq_023_mvl/mxv
	.byte	W02
	.byte		        76*seq_023_mvl/mxv
	.byte	W02
	.byte		        71*seq_023_mvl/mxv
	.byte	W02
	.byte		        66*seq_023_mvl/mxv
	.byte	W02
	.byte		        60*seq_023_mvl/mxv
	.byte	W02
	.byte		        55*seq_023_mvl/mxv
	.byte	W02
	.byte		        48*seq_023_mvl/mxv
	.byte	W02
	.byte		        40*seq_023_mvl/mxv
	.byte	W02
	.byte		        33*seq_023_mvl/mxv
	.byte	W02
	.byte		        25*seq_023_mvl/mxv
	.byte	W02
	.byte		        18*seq_023_mvl/mxv
	.byte	W02
	.byte	PEND
	.byte	W96
	.byte	PATT
	 .word	seq_023_6 + 0x22
	.byte	W96
	.byte	PATT
	 .word	seq_023_6 + 0x71
	.byte	W92
	.byte	W03
	.byte		VOICE , 9
	.byte		VOL   , 53*seq_023_mvl/mxv
	.byte		PAN   , c_v+30
	.byte	W01
	.byte	W24
	.byte		N04   , En4 , v092
	.byte	W06
	.byte		        En4 , v052
	.byte	W18
	.byte		        Dn4 , v092
	.byte	W06
	.byte		        Dn4 , v052
	.byte	W18
	.byte		        Bn3 , v092
	.byte	W06
	.byte		        Bn3 , v052
	.byte	W18
	.byte	PEND
	.byte		N04   , An3 , v092
	.byte	W06
	.byte		        An3 , v052
	.byte	W18
	.byte		        Bn3 , v092
	.byte	W06
	.byte		        Bn3 , v052
	.byte	W18
	.byte		        En3 , v092
	.byte	W06
	.byte		        En3 , v052
	.byte	W18
	.byte		        Dn3 , v092
	.byte	W06
	.byte		        Dn3 , v052
	.byte	W18
	.byte	PEND
	.byte	PATT
	 .word	seq_023_6 + 0xD4
	.byte	PATT
	 .word	seq_023_6 + 0xE9
	.byte	PATT
	 .word	seq_023_6 + 0xD4
	.byte	PATT
	 .word	seq_023_6 + 0xE9
	.byte	PATT
	 .word	seq_023_6 + 0xD4
	.byte	PATT
	 .word	seq_023_6 + 0xE9
	.byte	W96
	.byte	W96
	.byte	W96
	.byte	W96
	.byte	W96
	.byte	W96
	.byte	W96
	.byte	W96
	.byte	W96
	.byte	PATT
	 .word	seq_023_6 + 0x14
	.byte	W96
	.byte	W96
	.byte	W96
	.byte	W96
	.byte	W96
	.byte	W96
	.byte	PATT
	 .word	seq_023_6 + 0x22
	.byte	W96
	.byte	PATT
	 .word	seq_023_6 + 0x71
	.byte	W96
	.byte	GOTO
	 .word	seq_023_6 + 0xC0
	.byte	FINE

@*********************** Track 08 ***********************@

seq_023_7:
	.byte	KEYSH , seq_023_key+0
	.byte	W09
	.byte		VOICE , 70
	.byte	W01
	.byte		MOD   , 0
	.byte		VOL   , 43*seq_023_mvl/mxv
	.byte		MODT  , mod_pan
	.byte	W01
	.byte		PAN   , c_v+0
	.byte	W07
	.byte	W12
	.byte		N03   , An3 , v127
	.byte	W06
	.byte		        An3 , v020
	.byte	W18
	.byte		        An3 , v127
	.byte	W06
	.byte		        An3 , v020
	.byte	W18
	.byte		        An3 , v127
	.byte	W06
	.byte		        An3 , v020
	.byte	W18
	.byte		        An3 , v127
	.byte	W06
	.byte		        An3 , v020
	.byte	W06
	.byte	PEND
	.byte	PATT
	 .word	seq_023_7 + 0x10
	.byte	PATT
	 .word	seq_023_7 + 0x10
	.byte	PATT
	 .word	seq_023_7 + 0x10
	.byte	PATT
	 .word	seq_023_7 + 0x10
	.byte	PATT
	 .word	seq_023_7 + 0x10
	.byte	PATT
	 .word	seq_023_7 + 0x10
	.byte	PATT
	 .word	seq_023_7 + 0x10
	.byte	PATT
	 .word	seq_023_7 + 0x10
	.byte	PATT
	 .word	seq_023_7 + 0x10
	.byte	PATT
	 .word	seq_023_7 + 0x10
	.byte	PATT
	 .word	seq_023_7 + 0x10
	.byte	PATT
	 .word	seq_023_7 + 0x10
	.byte	PATT
	 .word	seq_023_7 + 0x10
	.byte	PATT
	 .word	seq_023_7 + 0x10
	.byte	PATT
	 .word	seq_023_7 + 0x10
	.byte	PATT
	 .word	seq_023_7 + 0x10
	.byte	PATT
	 .word	seq_023_7 + 0x10
	.byte	PATT
	 .word	seq_023_7 + 0x10
	.byte	PATT
	 .word	seq_023_7 + 0x10
	.byte	PATT
	 .word	seq_023_7 + 0x10
	.byte	PATT
	 .word	seq_023_7 + 0x10
	.byte	PATT
	 .word	seq_023_7 + 0x10
	.byte	PATT
	 .word	seq_023_7 + 0x10
	.byte	PATT
	 .word	seq_023_7 + 0x10
	.byte	PATT
	 .word	seq_023_7 + 0x10
	.byte	PATT
	 .word	seq_023_7 + 0x10
	.byte	PATT
	 .word	seq_023_7 + 0x10
	.byte	PATT
	 .word	seq_023_7 + 0x10
	.byte	PATT
	 .word	seq_023_7 + 0x10
	.byte	PATT
	 .word	seq_023_7 + 0x10
	.byte	PATT
	 .word	seq_023_7 + 0x10
	.byte	PATT
	 .word	seq_023_7 + 0x10
	.byte	PATT
	 .word	seq_023_7 + 0x10
	.byte	PATT
	 .word	seq_023_7 + 0x10
	.byte	PATT
	 .word	seq_023_7 + 0x10
	.byte	PATT
	 .word	seq_023_7 + 0x10
	.byte	PATT
	 .word	seq_023_7 + 0x10
	.byte	PATT
	 .word	seq_023_7 + 0x10
	.byte	PATT
	 .word	seq_023_7 + 0x10
	.byte	PATT
	 .word	seq_023_7 + 0x10
	.byte	PATT
	 .word	seq_023_7 + 0x10
	.byte	PATT
	 .word	seq_023_7 + 0x10
	.byte	PATT
	 .word	seq_023_7 + 0x10
	.byte	GOTO
	 .word	seq_023_7 + 0x62
	.byte	FINE

@*********************** Track 09 ***********************@

seq_023_8:
	.byte	KEYSH , seq_023_key+0
	.byte	W11
	.byte		VOICE , 71
	.byte		MODT  , mod_pan
	.byte	W01
	.byte		VOL   , 40*seq_023_mvl/mxv
	.byte		PAN   , c_v+0
	.byte	W06
	.byte	W12
	.byte		N03   , Bn2 , v127
	.byte	W06
	.byte		        Bn2 , v020
	.byte	W18
	.byte		        Bn2 , v127
	.byte	W06
	.byte		        Bn2 , v020
	.byte	W18
	.byte		        Bn2 , v127
	.byte	W06
	.byte		        Bn2 , v020
	.byte	W18
	.byte		        Bn2 , v127
	.byte	W06
	.byte		        Bn2 , v020
	.byte	W06
	.byte	PEND
	.byte	PATT
	 .word	seq_023_8 + 0xD
	.byte	PATT
	 .word	seq_023_8 + 0xD
	.byte	PATT
	 .word	seq_023_8 + 0xD
	.byte	PATT
	 .word	seq_023_8 + 0xD
	.byte	PATT
	 .word	seq_023_8 + 0xD
	.byte	PATT
	 .word	seq_023_8 + 0xD
	.byte	PATT
	 .word	seq_023_8 + 0xD
	.byte	PATT
	 .word	seq_023_8 + 0xD
	.byte	PATT
	 .word	seq_023_8 + 0xD
	.byte	PATT
	 .word	seq_023_8 + 0xD
	.byte	PATT
	 .word	seq_023_8 + 0xD
	.byte	PATT
	 .word	seq_023_8 + 0xD
	.byte	PATT
	 .word	seq_023_8 + 0xD
	.byte	PATT
	 .word	seq_023_8 + 0xD
	.byte	PATT
	 .word	seq_023_8 + 0xD
	.byte	PATT
	 .word	seq_023_8 + 0xD
	.byte	PATT
	 .word	seq_023_8 + 0xD
	.byte	PATT
	 .word	seq_023_8 + 0xD
	.byte	PATT
	 .word	seq_023_8 + 0xD
	.byte	PATT
	 .word	seq_023_8 + 0xD
	.byte	PATT
	 .word	seq_023_8 + 0xD
	.byte	PATT
	 .word	seq_023_8 + 0xD
	.byte	PATT
	 .word	seq_023_8 + 0xD
	.byte	PATT
	 .word	seq_023_8 + 0xD
	.byte	PATT
	 .word	seq_023_8 + 0xD
	.byte	PATT
	 .word	seq_023_8 + 0xD
	.byte	PATT
	 .word	seq_023_8 + 0xD
	.byte	PATT
	 .word	seq_023_8 + 0xD
	.byte	PATT
	 .word	seq_023_8 + 0xD
	.byte	PATT
	 .word	seq_023_8 + 0xD
	.byte	PATT
	 .word	seq_023_8 + 0xD
	.byte	PATT
	 .word	seq_023_8 + 0xD
	.byte	PATT
	 .word	seq_023_8 + 0xD
	.byte	PATT
	 .word	seq_023_8 + 0xD
	.byte	PATT
	 .word	seq_023_8 + 0xD
	.byte	PATT
	 .word	seq_023_8 + 0xD
	.byte	PATT
	 .word	seq_023_8 + 0xD
	.byte	PATT
	 .word	seq_023_8 + 0xD
	.byte	PATT
	 .word	seq_023_8 + 0xD
	.byte	PATT
	 .word	seq_023_8 + 0xD
	.byte	PATT
	 .word	seq_023_8 + 0xD
	.byte	PATT
	 .word	seq_023_8 + 0xD
	.byte	PATT
	 .word	seq_023_8 + 0xD
	.byte	GOTO
	 .word	seq_023_8 + 0x5F
	.byte	FINE

@*********************** Track 10 ***********************@

seq_023_9:
	.byte	KEYSH , seq_023_key+0
	.byte	W12
	.byte		VOICE , 127
	.byte	W01
	.byte		VOL   , 63*seq_023_mvl/mxv
	.byte		PAN   , c_v+0
	.byte	W05
	.byte		PAN   , c_v-63
	.byte	W03
	.byte		N02   , En2 , v004
	.byte	W03
	.byte		N02
	.byte	W03
	.byte		N02
	.byte	W03
	.byte		        En2 , v008
	.byte	W03
	.byte		N02
	.byte	W03
	.byte		        En2 , v012
	.byte	W03
	.byte		N02
	.byte	W03
	.byte		        En2 , v016
	.byte	W03
	.byte		N02
	.byte	W03
	.byte		        En2 , v020
	.byte	W03
	.byte		N02
	.byte	W03
	.byte		N02
	.byte	W03
	.byte		        En2 , v024
	.byte	W03
	.byte		N02
	.byte	W03
	.byte		        En2 , v028
	.byte	W03
	.byte		N02
	.byte	W03
	.byte		        En2 , v032
	.byte	W03
	.byte		        En2 , v040
	.byte	W03
	.byte		        En2 , v048
	.byte	W03
	.byte		        En2 , v056
	.byte	W03
	.byte		        En2 , v064
	.byte	W03
	.byte		        En2 , v068
	.byte	W03
	.byte		        En2 , v076
	.byte	W03
	.byte		        En2 , v060
	.byte	W03
	.byte		        En2 , v056
	.byte	W03
	.byte		N02
	.byte	W03
	.byte		        En2 , v044
	.byte	W03
	.byte		        En2 , v036
	.byte	W03
	.byte		        En2 , v032
	.byte	W03
	.byte		        En2 , v024
	.byte	W03
	.byte		        En2 , v016
	.byte	W03
	.byte	PEND
	.byte		PAN   , c_v+63
	.byte	W03
	.byte		N02   , En2 , v004
	.byte	W03
	.byte		N02
	.byte	W03
	.byte		N02
	.byte	W03
	.byte		        En2 , v008
	.byte	W03
	.byte		N02
	.byte	W03
	.byte		        En2 , v012
	.byte	W03
	.byte		N02
	.byte	W03
	.byte		        En2 , v016
	.byte	W03
	.byte		N02
	.byte	W03
	.byte		        En2 , v020
	.byte	W03
	.byte		N02
	.byte	W03
	.byte		N02
	.byte	W03
	.byte		        En2 , v024
	.byte	W03
	.byte		N02
	.byte	W03
	.byte		        En2 , v028
	.byte	W03
	.byte		N02
	.byte	W03
	.byte		        En2 , v032
	.byte	W03
	.byte		        En2 , v040
	.byte	W03
	.byte		        En2 , v048
	.byte	W03
	.byte		        En2 , v056
	.byte	W03
	.byte		        En2 , v064
	.byte	W03
	.byte		        En2 , v068
	.byte	W03
	.byte		        En2 , v076
	.byte	W03
	.byte		        En2 , v060
	.byte	W03
	.byte		        En2 , v056
	.byte	W03
	.byte		N02
	.byte	W03
	.byte		        En2 , v044
	.byte	W03
	.byte		        En2 , v036
	.byte	W03
	.byte		        En2 , v032
	.byte	W03
	.byte		        En2 , v024
	.byte	W03
	.byte		        En2 , v016
	.byte	W03
	.byte	PEND
	.byte	PATT
	 .word	seq_023_9 + 0xB
	.byte	PATT
	 .word	seq_023_9 + 0x63
	.byte	PATT
	 .word	seq_023_9 + 0xB
	.byte	PATT
	 .word	seq_023_9 + 0x63
	.byte	PATT
	 .word	seq_023_9 + 0xB
	.byte	PATT
	 .word	seq_023_9 + 0x63
	.byte	PATT
	 .word	seq_023_9 + 0xB
	.byte	PATT
	 .word	seq_023_9 + 0x63
	.byte	PATT
	 .word	seq_023_9 + 0xB
	.byte	PATT
	 .word	seq_023_9 + 0x63
	.byte	PATT
	 .word	seq_023_9 + 0xB
	.byte	PATT
	 .word	seq_023_9 + 0x63
	.byte		PAN   , c_v-63
	.byte	W03
	.byte		N02   , En2 , v004
	.byte	W03
	.byte		N02
	.byte	W03
	.byte		N02
	.byte	W03
	.byte		        En2 , v008
	.byte	W03
	.byte		N02
	.byte	W03
	.byte		        En2 , v012
	.byte	W03
	.byte		N02
	.byte	W03
	.byte		        En2 , v016
	.byte	W03
	.byte		N02
	.byte	W03
	.byte		        En2 , v020
	.byte	W03
	.byte		N02
	.byte	W03
	.byte		N02
	.byte	W03
	.byte		        En2 , v024
	.byte	W03
	.byte		N02
	.byte	W03
	.byte		        En2 , v028
	.byte	W03
	.byte		N02
	.byte	W03
	.byte		        En2 , v032
	.byte	W03
	.byte		        En2 , v040
	.byte	W03
	.byte		        En2 , v048
	.byte	W03
	.byte		        En2 , v056
	.byte	W03
	.byte		        En2 , v064
	.byte	W03
	.byte		        En2 , v068
	.byte	W03
	.byte		        En2 , v076
	.byte	W03
	.byte		        En2 , v060
	.byte	W03
	.byte		        En2 , v056
	.byte	W03
	.byte		N02
	.byte	W03
	.byte		        En2 , v044
	.byte	W03
	.byte		        En2 , v036
	.byte	W03
	.byte		        En2 , v032
	.byte	W03
	.byte		        En2 , v024
	.byte	W03
	.byte		        En2 , v016
	.byte	W02
	.byte		PAN   , c_v+0
	.byte	W01
	.byte		VOL   , 53*seq_023_mvl/mxv
	.byte		PAN   , c_v+63
	.byte	W03
	.byte		N02   , En2 , v004
	.byte	W03
	.byte		N02
	.byte	W03
	.byte		N02
	.byte	W03
	.byte		        En2 , v008
	.byte	W03
	.byte		N02
	.byte	W03
	.byte		        En2 , v012
	.byte	W03
	.byte		N02
	.byte	W03
	.byte		        En2 , v016
	.byte	W03
	.byte		N02
	.byte	W03
	.byte		        En2 , v020
	.byte	W03
	.byte		N02
	.byte	W03
	.byte		        Fs1 , v088
	.byte		N02   , En2 , v020
	.byte	W03
	.byte		        En2 , v024
	.byte	W03
	.byte		        Fs1 , v016
	.byte		N02   , En2 , v024
	.byte	W03
	.byte		        En2 , v028
	.byte	W03
	.byte		N03
	.byte	W03
	.byte		        En2 , v032
	.byte	W03
	.byte		        En2 , v040
	.byte	W03
	.byte		        En2 , v048
	.byte	W03
	.byte		N02   , Fs1 , v088
	.byte		N02   , En2 , v056
	.byte	W03
	.byte		        En2 , v064
	.byte	W03
	.byte		        Fs1 , v016
	.byte		N02   , En2 , v068
	.byte	W03
	.byte		        En2 , v076
	.byte	W03
	.byte		N03   , En2 , v060
	.byte	W03
	.byte		        En2 , v056
	.byte	W03
	.byte		N03
	.byte	W03
	.byte		        En2 , v044
	.byte	W03
	.byte		N02   , Fs1 , v088
	.byte		N02   , En2 , v036
	.byte	W03
	.byte		        En2 , v032
	.byte	W03
	.byte		        Fs1 , v016
	.byte		N02   , En2 , v024
	.byte	W03
	.byte		        En2 , v016
	.byte	W02
	.byte		VOL   , 80*seq_023_mvl/mxv
	.byte		PAN   , c_v+0
	.byte	W01
	.byte		N12   , En2 , v052
	.byte	W12
	.byte		N02   , Fs1 , v056
	.byte	W06
	.byte		        Fs1 , v016
	.byte	W05
	.byte		PAN   , c_v-63
	.byte	W01
	.byte		N02   , Fs1 , v112
	.byte	W06
	.byte		        Fs1 , v016
	.byte	W05
	.byte		PAN   , c_v+63
	.byte	W01
	.byte		N02   , Fs1 , v088
	.byte	W06
	.byte		        Fs1 , v016
	.byte	W05
	.byte		PAN   , c_v-63
	.byte	W01
	.byte		N02   , Fs1 , v060
	.byte	W06
	.byte		        Fs1 , v016
	.byte	W05
	.byte		PAN   , c_v+63
	.byte	W01
	.byte		N02   , Fs1 , v052
	.byte	W06
	.byte		        Fs1 , v016
	.byte	W05
	.byte		PAN   , c_v-63
	.byte	W01
	.byte		N02   , Fs1 , v044
	.byte	W06
	.byte		        Fs1 , v016
	.byte	W05
	.byte		PAN   , c_v+0
	.byte	W01
	.byte		N12   , En2 , v052
	.byte	W11
	.byte		PAN   , c_v-63
	.byte	W01
	.byte	PEND
	.byte		N02   , Fs1 , v112
	.byte	W06
	.byte		        Fs1 , v016
	.byte	W05
	.byte		PAN   , c_v+63
	.byte	W01
	.byte		N02   , Fs1 , v088
	.byte	W06
	.byte		        Fs1 , v016
	.byte	W05
	.byte		PAN   , c_v-63
	.byte	W01
	.byte		N02   , Fs1 , v060
	.byte	W06
	.byte		        Fs1 , v016
	.byte	W05
	.byte		PAN   , c_v+63
	.byte	W01
	.byte		N02   , Fs1 , v052
	.byte	W06
	.byte		        Fs1 , v016
	.byte	W05
	.byte		PAN   , c_v-63
	.byte	W01
	.byte		N02   , Fs1 , v060
	.byte	W06
	.byte		        Fs1 , v016
	.byte	W05
	.byte		PAN   , c_v+63
	.byte	W01
	.byte		N02   , Fs1 , v052
	.byte	W06
	.byte		        Fs1 , v016
	.byte	W05
	.byte		PAN   , c_v-63
	.byte	W01
	.byte		N02   , Fs1 , v044
	.byte	W06
	.byte		        Fs1 , v016
	.byte	W05
	.byte		PAN   , c_v+63
	.byte	W01
	.byte		N02   , Fs1 , v040
	.byte	W06
	.byte		        Fs1 , v016
	.byte	W05
	.byte		VOL   , 80*seq_023_mvl/mxv
	.byte		PAN   , c_v+0
	.byte	W01
	.byte	PEND
	.byte	PATT
	 .word	seq_023_9 + 0x1C6
	.byte	PATT
	 .word	seq_023_9 + 0x20E
	.byte	PATT
	 .word	seq_023_9 + 0x1C6
	.byte	PATT
	 .word	seq_023_9 + 0x20E
	.byte	PATT
	 .word	seq_023_9 + 0x1C6
	.byte	PATT
	 .word	seq_023_9 + 0x20E
	.byte	PATT
	 .word	seq_023_9 + 0x1C6
	.byte	PATT
	 .word	seq_023_9 + 0x20E
	.byte	PATT
	 .word	seq_023_9 + 0x1C6
	.byte	PATT
	 .word	seq_023_9 + 0x20E
	.byte	PATT
	 .word	seq_023_9 + 0x1C6
	.byte	PATT
	 .word	seq_023_9 + 0x20E
	.byte	PATT
	 .word	seq_023_9 + 0x1C6
	.byte		N02   , Fs1 , v112
	.byte	W06
	.byte		        Fs1 , v016
	.byte	W05
	.byte		PAN   , c_v+63
	.byte	W01
	.byte		N02   , Fs1 , v088
	.byte	W06
	.byte		        Fs1 , v016
	.byte	W05
	.byte		PAN   , c_v-63
	.byte	W01
	.byte		N02   , Fs1 , v060
	.byte	W06
	.byte		        Fs1 , v016
	.byte	W05
	.byte		PAN   , c_v+63
	.byte	W01
	.byte		N02   , Fs1 , v052
	.byte	W06
	.byte		        Fs1 , v016
	.byte	W05
	.byte		PAN   , c_v-63
	.byte	W01
	.byte		N02   , Fs1 , v060
	.byte	W06
	.byte		        Fs1 , v016
	.byte	W05
	.byte		PAN   , c_v+63
	.byte	W01
	.byte		N02   , Fs1 , v052
	.byte	W06
	.byte		        Fs1 , v016
	.byte	W05
	.byte		PAN   , c_v-63
	.byte	W01
	.byte		N02   , Fs1 , v044
	.byte	W06
	.byte		        Fs1 , v016
	.byte	W05
	.byte		PAN   , c_v+63
	.byte	W01
	.byte		N02   , Fs1 , v040
	.byte	W06
	.byte		        Fs1 , v016
	.byte	W06
	.byte	PATT
	 .word	seq_023_9 + 0xB
	.byte	PATT
	 .word	seq_023_9 + 0x63
	.byte	PATT
	 .word	seq_023_9 + 0xB
	.byte	PATT
	 .word	seq_023_9 + 0x63
	.byte	PATT
	 .word	seq_023_9 + 0xB
	.byte	PATT
	 .word	seq_023_9 + 0x63
	.byte	PATT
	 .word	seq_023_9 + 0xB
	.byte	PATT
	 .word	seq_023_9 + 0x63
	.byte	PATT
	 .word	seq_023_9 + 0xB
	.byte	PATT
	 .word	seq_023_9 + 0x63
	.byte	PATT
	 .word	seq_023_9 + 0xB
	.byte	PATT
	 .word	seq_023_9 + 0x63
	.byte	GOTO
	 .word	seq_023_9 + 0xED
	.byte	FINE

@*********************** Track 11 ***********************@

seq_023_10:
	.byte	KEYSH , seq_023_key+0
	.byte	W13
	.byte		VOICE , 91
	.byte	W01
	.byte		VOL   , 85*seq_023_mvl/mxv
	.byte		PAN   , c_v+0
	.byte	W04
	.byte		TIE   , En2 , v127
	.byte	W96
	.byte	W96
	.byte		EOT
	.byte		TIE   , Fn2 
	.byte	W96
	.byte	W96
	.byte		EOT
	.byte		TIE   , En2 
	.byte	W96
	.byte	W96
	.byte		EOT
	.byte		TIE   , Fn2 
	.byte	W96
	.byte	W96
	.byte		EOT
	.byte		TIE   , En2 
	.byte	W96
	.byte	W96
	.byte		EOT
	.byte		TIE   , Fn2 
	.byte	W96
	.byte	W96
	.byte		EOT
	.byte		TIE   , En2 , v127
	.byte	W96
	.byte	W96
	.byte		EOT
	.byte		TIE   , Fn2 
	.byte	W96
	.byte	W96
	.byte		EOT
	.byte		TIE   , En2 
	.byte	W96
	.byte	W96
	.byte		EOT
	.byte		TIE   , Fn2 
	.byte	W96
	.byte	W96
	.byte		EOT
	.byte		TIE   , En2 
	.byte	W96
	.byte	W96
	.byte		EOT
	.byte		TIE   , Fn2 
	.byte	W96
	.byte	W96
	.byte		EOT
	.byte		TIE   , En2 
	.byte	W96
	.byte	W96
	.byte		EOT
	.byte		TIE   , Fn2 
	.byte	W96
	.byte	W96
	.byte		EOT
	.byte		TIE   , En2 
	.byte	W96
	.byte	W96
	.byte		EOT
	.byte		TIE   , Fn2 
	.byte	W96
	.byte	W96
	.byte		EOT
	.byte		TIE   , En2 
	.byte	W96
	.byte	W96
	.byte		EOT
	.byte		TIE   , Fn2 
	.byte	W96
	.byte	W96
	.byte		EOT
	.byte		TIE   , En2 
	.byte	W96
	.byte	W96
	.byte		EOT
	.byte		TIE   , Fn2 
	.byte	W96
	.byte	W96
	.byte		EOT
	.byte		TIE   , En2 
	.byte	W96
	.byte	W96
	.byte		EOT
	.byte		TIE   , Fn2 
	.byte	W96
	.byte	W96
	.byte		EOT
	.byte	GOTO
	 .word	seq_023_10 + 0x2A
	.byte	FINE

@*********************** Track 12 ***********************@

seq_023_11:
	.byte	KEYSH , seq_023_key+0
	.byte	W14
	.byte		VOICE , 5
	.byte	W01
	.byte		MOD   , 0
	.byte		VOL   , 73*seq_023_mvl/mxv
	.byte		MODT  , mod_pan
	.byte	W01
	.byte		PAN   , c_v+0
	.byte	W01
	.byte		        c_v+0
	.byte	W01
	.byte		N05   , An4 , v080
	.byte	W06
	.byte		        An4 , v028
	.byte	W06
	.byte		        Dn4 , v052
	.byte	W06
	.byte		        Dn4 , v028
	.byte	W05
	.byte		PAN   , c_v-30
	.byte	W01
	.byte		N05   , En4 , v080
	.byte	W06
	.byte		        En4 , v028
	.byte	W06
	.byte		        An3 , v052
	.byte	W06
	.byte		        An3 , v028
	.byte	W05
	.byte		PAN   , c_v+30
	.byte	W01
	.byte		N05   , Dn4 , v080
	.byte	W06
	.byte		        Dn4 , v028
	.byte	W05
	.byte		PAN   , c_v-30
	.byte	W01
	.byte		N05   , En4 , v052
	.byte	W06
	.byte		        En4 , v028
	.byte	W05
	.byte		PAN   , c_v+0
	.byte	W01
	.byte		N05   , An3 , v052
	.byte	W06
	.byte		        An3 , v028
	.byte	W05
	.byte		PAN   , c_v+30
	.byte	W01
	.byte		N05   , An4 , v080
	.byte	W06
	.byte		        An4 , v028
	.byte	W05
	.byte		PAN   , c_v-30
	.byte	W01
	.byte	PEND
	.byte		N05   , Dn4 , v080
	.byte	W06
	.byte		        Dn4 , v028
	.byte	W05
	.byte		PAN   , c_v+0
	.byte	W01
	.byte		N05   , En4 , v052
	.byte	W06
	.byte		        En4 , v028
	.byte	W05
	.byte		PAN   , c_v-30
	.byte	W01
	.byte		N05   , An3 , v080
	.byte	W06
	.byte		        An3 , v028
	.byte	W05
	.byte		PAN   , c_v+30
	.byte	W01
	.byte		N05   , Dn4 , v052
	.byte	W06
	.byte		        Dn4 , v028
	.byte	W05
	.byte		PAN   , c_v-30
	.byte	W01
	.byte		N05   , En4 , v080
	.byte	W06
	.byte		        En4 , v028
	.byte	W05
	.byte		PAN   , c_v+0
	.byte	W01
	.byte		N05   , An3 , v052
	.byte	W06
	.byte		        An3 , v028
	.byte	W05
	.byte		PAN   , c_v+30
	.byte	W01
	.byte		N05   , Dn4 , v080
	.byte	W06
	.byte		        Dn4 , v028
	.byte	W05
	.byte		PAN   , c_v+0
	.byte	W01
	.byte		N05   , Gn3 , v052
	.byte	W06
	.byte		        Gn3 , v028
	.byte	W05
	.byte		PAN   , c_v+0
	.byte	W01
	.byte	PEND
	.byte	PATT
	 .word	seq_023_11 + 0x12
	.byte	PATT
	 .word	seq_023_11 + 0x5B
	.byte	PATT
	 .word	seq_023_11 + 0x12
	.byte	PATT
	 .word	seq_023_11 + 0x5B
	.byte	PATT
	 .word	seq_023_11 + 0x12
	.byte	PATT
	 .word	seq_023_11 + 0x5B
	.byte	PATT
	 .word	seq_023_11 + 0x12
	.byte	PATT
	 .word	seq_023_11 + 0x5B
	.byte	PATT
	 .word	seq_023_11 + 0x12
	.byte	PATT
	 .word	seq_023_11 + 0x5B
	.byte	PATT
	 .word	seq_023_11 + 0x12
	.byte	PATT
	 .word	seq_023_11 + 0x5B
	.byte	PATT
	 .word	seq_023_11 + 0x12
	.byte	PATT
	 .word	seq_023_11 + 0x5B
	.byte		N05   , An4 , v080
	.byte	W06
	.byte		        An4 , v028
	.byte	W06
	.byte		        Dn4 , v052
	.byte	W06
	.byte		        Dn4 , v028
	.byte	W06
	.byte		        En4 , v080
	.byte	W06
	.byte		        En4 , v028
	.byte	W06
	.byte		        An3 , v052
	.byte	W06
	.byte		        An3 , v028
	.byte	W06
	.byte		        Dn4 , v080
	.byte	W06
	.byte		        Dn4 , v028
	.byte	W06
	.byte		        En4 , v052
	.byte	W06
	.byte		        En4 , v028
	.byte	W06
	.byte		        An3 , v052
	.byte	W06
	.byte		        An3 , v028
	.byte	W06
	.byte		        An4 , v080
	.byte	W06
	.byte		        An4 , v028
	.byte	W06
	.byte	PEND
	.byte		N05   , Dn4 , v080
	.byte	W06
	.byte		        Dn4 , v028
	.byte	W06
	.byte		        En4 , v052
	.byte	W06
	.byte		        En4 , v028
	.byte	W06
	.byte		        An3 , v080
	.byte	W06
	.byte		        An3 , v028
	.byte	W06
	.byte		        Dn4 , v052
	.byte	W06
	.byte		        Dn4 , v028
	.byte	W06
	.byte		        En4 , v080
	.byte	W06
	.byte		        En4 , v028
	.byte	W06
	.byte		        An3 , v052
	.byte	W06
	.byte		        An3 , v028
	.byte	W06
	.byte		        Dn4 , v080
	.byte	W06
	.byte		        Dn4 , v028
	.byte	W06
	.byte		        Gn3 , v052
	.byte	W06
	.byte		        Gn3 , v028
	.byte	W05
	.byte		PAN   , c_v+0
	.byte	W01
	.byte	PEND
	.byte	PATT
	 .word	seq_023_11 + 0xF2
	.byte	PATT
	 .word	seq_023_11 + 0x124
	.byte	PATT
	 .word	seq_023_11 + 0xF2
	.byte	PATT
	 .word	seq_023_11 + 0x124
	.byte	PATT
	 .word	seq_023_11 + 0xF2
	.byte		N05   , Dn4 , v080
	.byte	W06
	.byte		        Dn4 , v028
	.byte	W06
	.byte		        En4 , v052
	.byte	W06
	.byte		        En4 , v028
	.byte	W06
	.byte		        An3 , v080
	.byte	W06
	.byte		        An3 , v028
	.byte	W06
	.byte		        Dn4 , v052
	.byte	W06
	.byte		        Dn4 , v028
	.byte	W06
	.byte		        En4 , v080
	.byte	W06
	.byte		        En4 , v028
	.byte	W06
	.byte		        An3 , v052
	.byte	W06
	.byte		        An3 , v028
	.byte	W06
	.byte		        Dn4 , v080
	.byte	W06
	.byte		        Dn4 , v028
	.byte	W06
	.byte		        Gn3 , v052
	.byte	W06
	.byte		        Gn3 , v028
	.byte	W05
	.byte		VOICE , 46
	.byte		PAN   , c_v+0
	.byte	W01
	.byte		N03   , En2 , v108
	.byte	W11
	.byte		PAN   , c_v+20
	.byte	W01
	.byte		N03   , En3 , v112
	.byte	W23
	.byte		PAN   , c_v-20
	.byte	W01
	.byte		N03
	.byte	W23
	.byte		PAN   , c_v+20
	.byte	W01
	.byte		N03
	.byte	W22
	.byte		PAN   , c_v-20
	.byte	W02
	.byte		N03
	.byte	W12
	.byte	PEND
	.byte	W10
	.byte		PAN   , c_v+20
	.byte	W02
	.byte		N03   , En3 , v112
	.byte	W23
	.byte		PAN   , c_v-20
	.byte	W01
	.byte		N03
	.byte	W23
	.byte		PAN   , c_v+20
	.byte	W01
	.byte		N03
	.byte	W23
	.byte		PAN   , c_v-20
	.byte	W01
	.byte		N03
	.byte	W11
	.byte		VOICE , 46
	.byte		PAN   , c_v+0
	.byte	W01
	.byte	PEND
	.byte		N03   , Fn2 , v108
	.byte	W11
	.byte		PAN   , c_v+20
	.byte	W01
	.byte		N03   , Fn3 , v112
	.byte	W23
	.byte		PAN   , c_v-20
	.byte	W01
	.byte		N03
	.byte	W23
	.byte		PAN   , c_v+20
	.byte	W01
	.byte		N03
	.byte	W22
	.byte		PAN   , c_v-20
	.byte	W02
	.byte		N03
	.byte	W12
	.byte	PEND
	.byte	W10
	.byte		PAN   , c_v+20
	.byte	W02
	.byte		N03
	.byte	W23
	.byte		PAN   , c_v-20
	.byte	W01
	.byte		N03
	.byte	W23
	.byte		PAN   , c_v+20
	.byte	W01
	.byte		N03
	.byte	W23
	.byte		PAN   , c_v-20
	.byte	W01
	.byte		N03
	.byte	W11
	.byte		VOICE , 46
	.byte		PAN   , c_v+0
	.byte	W01
	.byte	PATT
	 .word	seq_023_11 + 0x1A8
	.byte	PATT
	 .word	seq_023_11 + 0x1C3
	.byte	PATT
	 .word	seq_023_11 + 0x1E0
	.byte	W10
	.byte		PAN   , c_v+20
	.byte	W02
	.byte		N03   , Fn3 , v112
	.byte	W23
	.byte		PAN   , c_v-20
	.byte	W01
	.byte		N03
	.byte	W23
	.byte		PAN   , c_v+20
	.byte	W01
	.byte		N03
	.byte	W23
	.byte		PAN   , c_v-20
	.byte	W01
	.byte		N03
	.byte	W11
	.byte		VOICE , 5
	.byte		PAN   , c_v+0
	.byte	W01
	.byte	PATT
	 .word	seq_023_11 + 0x12
	.byte	PATT
	 .word	seq_023_11 + 0x5B
	.byte	PATT
	 .word	seq_023_11 + 0x12
	.byte	PATT
	 .word	seq_023_11 + 0x5B
	.byte	PATT
	 .word	seq_023_11 + 0x12
	.byte	PATT
	 .word	seq_023_11 + 0x5B
	.byte	PATT
	 .word	seq_023_11 + 0x12
	.byte	PATT
	 .word	seq_023_11 + 0x5B
	.byte	PATT
	 .word	seq_023_11 + 0x12
	.byte	PATT
	 .word	seq_023_11 + 0x5B
	.byte	PATT
	 .word	seq_023_11 + 0x12
	.byte		N05   , Dn4 , v080
	.byte	W06
	.byte		        Dn4 , v028
	.byte	W05
	.byte		PAN   , c_v+0
	.byte	W01
	.byte		N05   , En4 , v052
	.byte	W06
	.byte		        En4 , v028
	.byte	W05
	.byte		PAN   , c_v-30
	.byte	W01
	.byte		N05   , An3 , v080
	.byte	W06
	.byte		        An3 , v028
	.byte	W05
	.byte		PAN   , c_v+30
	.byte	W01
	.byte		N05   , Dn4 , v052
	.byte	W06
	.byte		        Dn4 , v028
	.byte	W05
	.byte		PAN   , c_v-30
	.byte	W01
	.byte		N05   , En4 , v080
	.byte	W06
	.byte		        En4 , v028
	.byte	W05
	.byte		PAN   , c_v+0
	.byte	W01
	.byte		N05   , An3 , v052
	.byte	W06
	.byte		        An3 , v028
	.byte	W05
	.byte		PAN   , c_v+30
	.byte	W01
	.byte		N05   , Dn4 , v080
	.byte	W06
	.byte		        Dn4 , v028
	.byte	W05
	.byte		PAN   , c_v+0
	.byte	W01
	.byte		N05   , Gn3 , v052
	.byte	W06
	.byte		        Gn3 , v028
	.byte	W06
	.byte	GOTO
	 .word	seq_023_11 + 0xDE
	.byte	FINE

@******************************************************@

	.align	2

seq_023:
	.byte	12	@ NumTrks
	.byte	0	@ NumBlks
	.byte	seq_023_pri	@ Priority
	.byte	seq_023_rev	@ Reverb

	.word	seq_023_grp

	.word	seq_023_0
	.word	seq_023_1
	.word	seq_023_2
	.word	seq_023_3
	.word	seq_023_4
	.word	seq_023_5
	.word	seq_023_6
	.word	seq_023_7
	.word	seq_023_8
	.word	seq_023_9
	.word	seq_023_10
	.word	seq_023_11

	.end
