@ File generated by m4a2s Song-Module
	.include "MPlayDef.s"

	.equ	seq_001_grp, bank_000
	.equ	seq_001_pri, 50
	.equ	seq_001_rev, 188
	.equ	seq_001_mvl, 127
	.equ	seq_001_key, 0

	.section .rodata
	.global	seq_001
	.align	2

@*********************** Track 01 ***********************@

seq_001_0:
	.byte	KEYSH , seq_001_key+0
	.byte	TEMPO , 130/2
	.byte		VOICE , 76
	.byte	W01
	.byte		VOL   , 80*seq_001_mvl/mxv
	.byte	W01
	.byte		PAN   , c_v+0
	.byte	W05
	.byte		BENDR , 2
	.byte	W16
	.byte		BEND  , c_v-50
	.byte	W01
	.byte		N40   , Bn3 , v112
	.byte	W03
	.byte		BEND  , c_v-39
	.byte	W01
	.byte		        c_v-35
	.byte	W01
	.byte		        c_v-32
	.byte	W01
	.byte		        c_v-28
	.byte	W01
	.byte		        c_v-25
	.byte	W01
	.byte		        c_v-21
	.byte	W01
	.byte		        c_v-18
	.byte	W01
	.byte		        c_v-14
	.byte	W01
	.byte		        c_v-11
	.byte	W01
	.byte		        c_v-7
	.byte	W01
	.byte		        c_v+0
	.byte	W32
	.byte	W03
	.byte		N05   , Dn3 
	.byte	W16
	.byte		        Gn3 
	.byte	W08
	.byte		        Bn3 
	.byte	W15
	.byte		BEND  , c_v-33
	.byte	W01
	.byte		        c_v-29
	.byte		N40   , Cn4 
	.byte	W01
	.byte		BEND  , c_v-25
	.byte	W01
	.byte		        c_v-21
	.byte	W01
	.byte		        c_v-17
	.byte	W01
	.byte		        c_v-13
	.byte	W01
	.byte		        c_v-9
	.byte	W01
	.byte		        c_v-5
	.byte	W01
	.byte		        c_v+0
	.byte	W01
	.byte	PEND
	.byte	W36
	.byte	W03
	.byte		        c_v-33
	.byte	W01
	.byte		        c_v-29
	.byte		N24
	.byte	W01
	.byte		BEND  , c_v-25
	.byte	W01
	.byte		        c_v-21
	.byte	W01
	.byte		        c_v-17
	.byte	W01
	.byte		        c_v-13
	.byte	W01
	.byte		        c_v-9
	.byte	W01
	.byte		        c_v-5
	.byte	W01
	.byte		        c_v+0
	.byte	W17
	.byte		N05   , Bn3 
	.byte	W08
	.byte		        Gn3 
	.byte	W16
	.byte		N80   , Dn3 
	.byte	W08
	.byte	W24
	.byte		VOL   , 78*seq_001_mvl/mxv
	.byte	W03
	.byte		        76*seq_001_mvl/mxv
	.byte	W03
	.byte		        75*seq_001_mvl/mxv
	.byte	W04
	.byte		        73*seq_001_mvl/mxv
	.byte	W03
	.byte		        71*seq_001_mvl/mxv
	.byte	W02
	.byte		        70*seq_001_mvl/mxv
	.byte	W01
	.byte		        69*seq_001_mvl/mxv
	.byte	W01
	.byte		        68*seq_001_mvl/mxv
	.byte	W01
	.byte		        66*seq_001_mvl/mxv
	.byte	W01
	.byte		        65*seq_001_mvl/mxv
	.byte	W01
	.byte		        64*seq_001_mvl/mxv
	.byte	W01
	.byte		        62*seq_001_mvl/mxv
	.byte	W01
	.byte		        61*seq_001_mvl/mxv
	.byte	W01
	.byte		        59*seq_001_mvl/mxv
	.byte	W01
	.byte		        58*seq_001_mvl/mxv
	.byte	W01
	.byte		        57*seq_001_mvl/mxv
	.byte	W01
	.byte		        56*seq_001_mvl/mxv
	.byte	W01
	.byte		        54*seq_001_mvl/mxv
	.byte	W01
	.byte		        53*seq_001_mvl/mxv
	.byte	W01
	.byte		        52*seq_001_mvl/mxv
	.byte	W01
	.byte		        51*seq_001_mvl/mxv
	.byte	W01
	.byte		        48*seq_001_mvl/mxv
	.byte	W01
	.byte		        45*seq_001_mvl/mxv
	.byte	W01
	.byte		        42*seq_001_mvl/mxv
	.byte	W01
	.byte		        39*seq_001_mvl/mxv
	.byte	W01
	.byte		        36*seq_001_mvl/mxv
	.byte	W01
	.byte		        33*seq_001_mvl/mxv
	.byte	W01
	.byte		        30*seq_001_mvl/mxv
	.byte	W01
	.byte		        27*seq_001_mvl/mxv
	.byte	W01
	.byte		        24*seq_001_mvl/mxv
	.byte	W01
	.byte		        21*seq_001_mvl/mxv
	.byte	W01
	.byte		        18*seq_001_mvl/mxv
	.byte	W01
	.byte		        15*seq_001_mvl/mxv
	.byte	W01
	.byte		        12*seq_001_mvl/mxv
	.byte	W01
	.byte		        9*seq_001_mvl/mxv
	.byte	W01
	.byte		        6*seq_001_mvl/mxv
	.byte	W01
	.byte		        3*seq_001_mvl/mxv
	.byte	W24
	.byte	W02
	.byte	PEND
	.byte	W92
	.byte	W02
	.byte		        80*seq_001_mvl/mxv
	.byte	W01
	.byte		BEND  , c_v-50
	.byte	W01
	.byte	PATT
	 .word	seq_001_0 + 0x13
	.byte	W36
	.byte	W03
	.byte		BEND  , c_v-33
	.byte	W01
	.byte		        c_v-29
	.byte		N24   , Cn4 , v112
	.byte	W01
	.byte		BEND  , c_v-25
	.byte	W01
	.byte		        c_v-21
	.byte	W01
	.byte		        c_v-17
	.byte	W01
	.byte		        c_v-13
	.byte	W01
	.byte		        c_v-9
	.byte	W01
	.byte		        c_v-5
	.byte	W01
	.byte		        c_v+0
	.byte	W17
	.byte		N05   , Bn3 
	.byte	W08
	.byte		        Gn3 
	.byte	W16
	.byte		N80   , Dn4 
	.byte	W08
	.byte	PATT
	 .word	seq_001_0 + 0x6B
	.byte	W96
	.byte	W96
	.byte	W96
	.byte	W96
	.byte	W96
	.byte	W96
	.byte	W60
	.byte	W03
	.byte		VOL   , 80*seq_001_mvl/mxv
	.byte	W01
	.byte		N05   , En4 , v112
	.byte	W08
	.byte		        Fs4 
	.byte	W16
	.byte		N08   , Gn4 
	.byte	W08
	.byte		N05   , An4 
	.byte	W24
	.byte		        Gn4 
	.byte	W24
	.byte		        Fs4 
	.byte	W16
	.byte		        En4 
	.byte	W24
	.byte		N08   , Dn4 
	.byte	W08
	.byte	W96
	.byte	GOTO
	 .word	seq_001_0 + 0x13
	.byte	FINE

@*********************** Track 02 ***********************@

seq_001_1:
	.byte	KEYSH , seq_001_key+0
	.byte		VOICE , 95
	.byte	W01
	.byte		VOL   , 75*seq_001_mvl/mxv
	.byte	W01
	.byte		PAN   , c_v+0
	.byte	W22
	.byte	W96
	.byte	W96
	.byte	W96
	.byte	W96
	.byte	W96
	.byte	W96
	.byte	W96
	.byte	W88
	.byte		N04   , Cn3 , v056
	.byte	W04
	.byte		        Dn3 
	.byte	W04
	.byte		N32   , En3 , v112
	.byte	W40
	.byte		N04   , Cn3 , v056
	.byte	W04
	.byte		        Dn3 
	.byte	W04
	.byte		N08   , En3 , v112
	.byte	W16
	.byte		        Fs3 
	.byte	W08
	.byte		N06   , Gn3 
	.byte	W16
	.byte		N40   , Dn3 
	.byte	W08
	.byte	W40
	.byte		N04   , Bn2 , v056
	.byte	W04
	.byte		        Cn3 
	.byte	W04
	.byte		N08   , Dn3 , v112
	.byte	W16
	.byte		        Fs3 
	.byte	W08
	.byte		N06   , Gn3 
	.byte	W16
	.byte		N40   , Cn3 
	.byte	W08
	.byte	W40
	.byte		N04   , An2 , v056
	.byte	W04
	.byte		        Bn2 
	.byte	W04
	.byte		N08   , Cn3 , v112
	.byte	W16
	.byte		        Fs3 
	.byte	W08
	.byte		N06   , Gn3 
	.byte	W16
	.byte		N17   , Bn2 
	.byte	W08
	.byte	W16
	.byte		N11
	.byte	W24
	.byte		        Cn3 
	.byte	W24
	.byte		        Dn3 
	.byte	W24
	.byte		N40   , En3 
	.byte	W08
	.byte	W40
	.byte		N04   , Cs3 , v056
	.byte	W04
	.byte		        Dn3 
	.byte	W04
	.byte		N08   , En3 , v112
	.byte	W16
	.byte		        Fs3 
	.byte	W08
	.byte		N09   , Gn3 
	.byte	W16
	.byte		N17   , Dn3 
	.byte	W08
	.byte	W16
	.byte		N06
	.byte	W24
	.byte		N17   , Gn3 
	.byte	W56
	.byte	W96
	.byte	W96
	.byte	GOTO
	 .word	seq_001_1 + 0xB
	.byte	FINE

@*********************** Track 03 ***********************@

seq_001_2:
	.byte	KEYSH , seq_001_key+0
	.byte		VOICE , 95
	.byte	W01
	.byte		VOL   , 56*seq_001_mvl/mxv
	.byte	W01
	.byte		PAN   , c_v+63
	.byte	W22
	.byte	W96
	.byte	W96
	.byte	W96
	.byte	W96
	.byte	W96
	.byte	W96
	.byte	W96
	.byte	W96
	.byte		N96   , Gn2 , v080
	.byte	W96
	.byte		        Fs2 
	.byte	W96
	.byte		N72   , En2 
	.byte	W88
	.byte		N12   , Dn2 , v100
	.byte	W08
	.byte	W16
	.byte		N09   , Bn1 
	.byte	W24
	.byte		        Fs2 
	.byte	W24
	.byte		        Fn2 
	.byte	W24
	.byte		N96   , En2 , v080
	.byte	W08
	.byte	W88
	.byte		N16   , Dn2 , v100
	.byte	W08
	.byte	W16
	.byte		N08
	.byte	W24
	.byte		N24   , Gn2 
	.byte	W56
	.byte	W96
	.byte	W96
	.byte	GOTO
	 .word	seq_001_2 + 0xB
	.byte	FINE

@*********************** Track 04 ***********************@

seq_001_3:
	.byte	KEYSH , seq_001_key+0
	.byte	W06
	.byte		VOICE , 95
	.byte	W01
	.byte		VOL   , 56*seq_001_mvl/mxv
	.byte	W01
	.byte		PAN   , c_v-63
	.byte	W16
	.byte	W96
	.byte	W96
	.byte	W96
	.byte	W96
	.byte	W96
	.byte	W96
	.byte	W96
	.byte	W96
	.byte		TIE   , Bn1 , v080
	.byte	W96
	.byte	W96
	.byte		EOT
	.byte		N72   , Cn2 
	.byte	W88
	.byte		N12   , Gn1 , v100
	.byte	W08
	.byte	W16
	.byte		N09
	.byte	W24
	.byte		        An1 
	.byte	W24
	.byte		        Bn1 
	.byte	W24
	.byte		N96   , Cn2 , v080
	.byte	W08
	.byte	W88
	.byte		N16   , Bn1 , v100
	.byte	W08
	.byte	W16
	.byte		N08
	.byte	W24
	.byte		N24   , En2 
	.byte	W56
	.byte	W96
	.byte	W96
	.byte	GOTO
	 .word	seq_001_3 + 0xC
	.byte	FINE

@*********************** Track 05 ***********************@

seq_001_4:
	.byte	KEYSH , seq_001_key+0
	.byte	W06
	.byte		VOICE , 96
	.byte	W01
	.byte		VOL   , 59*seq_001_mvl/mxv
	.byte	W01
	.byte		PAN   , c_v+0
	.byte	W16
	.byte	W96
	.byte	W96
	.byte	W68
	.byte	W03
	.byte		PAN   , c_v-30
	.byte	W01
	.byte		N08   , An3 , v060
	.byte	W14
	.byte		PAN   , c_v+30
	.byte	W02
	.byte		N08   , Bn3 
	.byte	W07
	.byte		PAN   , c_v-30
	.byte	W01
	.byte		N08   , Cn4 
	.byte	W14
	.byte		PAN   , c_v+30
	.byte	W02
	.byte		N08   , Bn3 
	.byte	W22
	.byte		PAN   , c_v-30
	.byte	W02
	.byte		N08   , An3 
	.byte	W22
	.byte		PAN   , c_v+30
	.byte	W02
	.byte		N32   , Dn3 
	.byte	W32
	.byte	W96
	.byte	W96
	.byte	W68
	.byte	W03
	.byte		PAN   , c_v-30
	.byte	W01
	.byte		N08   , Bn3 
	.byte	W14
	.byte		PAN   , c_v+30
	.byte	W02
	.byte		N08   , Cn4 
	.byte	W07
	.byte		PAN   , c_v-30
	.byte	W01
	.byte		N08   , Dn4 
	.byte	W14
	.byte		PAN   , c_v+30
	.byte	W02
	.byte		N08   , Cn4 
	.byte	W22
	.byte		PAN   , c_v-30
	.byte	W02
	.byte		N08   , Bn3 
	.byte	W22
	.byte		PAN   , c_v+30
	.byte	W06
	.byte		N08   , Dn4 , v080
	.byte	W08
	.byte		        Dn4 , v068
	.byte	W08
	.byte		N08
	.byte	W08
	.byte		N04   , Dn4 , v036
	.byte	W04
	.byte	W96
	.byte	W96
	.byte	W96
	.byte	W96
	.byte	W96
	.byte	W60
	.byte	W03
	.byte		PAN   , c_v-30
	.byte	W01
	.byte		N08   , En3 , v112
	.byte	W07
	.byte		PAN   , c_v+30
	.byte	W01
	.byte		N08   , Fs3 
	.byte	W15
	.byte		PAN   , c_v-30
	.byte	W01
	.byte		N08   , Gn3 
	.byte	W08
	.byte	W15
	.byte		PAN   , c_v+30
	.byte	W01
	.byte		N08   , An3 , v040
	.byte	W23
	.byte		PAN   , c_v-30
	.byte	W01
	.byte		N08   , Gn3 
	.byte	W07
	.byte		PAN   , c_v+30
	.byte	W01
	.byte		N08   , Fs3 , v112
	.byte	W15
	.byte		PAN   , c_v-30
	.byte	W01
	.byte		N08   , En3 
	.byte	W23
	.byte		PAN   , c_v+30
	.byte	W01
	.byte		N08   , Dn3 
	.byte	W08
	.byte	W44
	.byte	W03
	.byte		PAN   , c_v-30
	.byte	W05
	.byte		N08   , Dn4 , v060
	.byte	W08
	.byte		        Dn4 , v076
	.byte	W08
	.byte		        Dn4 , v092
	.byte	W08
	.byte		N20   , Dn4 , v052
	.byte	W20
	.byte	GOTO
	 .word	seq_001_4 + 0xC
	.byte	FINE

@*********************** Track 06 ***********************@

seq_001_5:
	.byte	KEYSH , seq_001_key+0
	.byte	W06
	.byte		VOICE , 96
	.byte	W01
	.byte		VOL   , 78*seq_001_mvl/mxv
	.byte	W01
	.byte		PAN   , c_v+0
	.byte	W16
	.byte	W23
	.byte		PAN   , c_v+30
	.byte	W01
	.byte		N08   , Bn2 , v112
	.byte	W23
	.byte		PAN   , c_v-30
	.byte	W01
	.byte		N08   , Dn2 , v084
	.byte	W16
	.byte		        Gn2 , v032
	.byte	W07
	.byte		PAN   , c_v+30
	.byte	W01
	.byte		N08   , Bn2 , v112
	.byte	W24
	.byte	PEND
	.byte	W23
	.byte		PAN   , c_v-30
	.byte	W01
	.byte		N08   , Cn3 , v112
	.byte	W23
	.byte		PAN   , c_v+30
	.byte	W01
	.byte		N08   , En2 , v084
	.byte	W16
	.byte		        Cn2 , v032
	.byte	W07
	.byte		PAN   , c_v-30
	.byte	W01
	.byte		N08   , Cn3 , v112
	.byte	W24
	.byte	PEND
	.byte	W23
	.byte		PAN   , c_v+30
	.byte	W01
	.byte		N08   , Bn2 
	.byte	W23
	.byte		PAN   , c_v-30
	.byte	W01
	.byte		N08   , Dn2 , v084
	.byte	W16
	.byte		        Gn2 , v032
	.byte	W07
	.byte		PAN   , c_v+30
	.byte	W01
	.byte		N08   , An2 , v112
	.byte	W15
	.byte		PAN   , c_v-30
	.byte	W01
	.byte		N08   , Bn2 
	.byte	W07
	.byte		PAN   , c_v+30
	.byte	W01
	.byte		N08   , Cn3 
	.byte	W15
	.byte		PAN   , c_v-30
	.byte	W01
	.byte		N08   , Bn2 
	.byte	W23
	.byte		PAN   , c_v+30
	.byte	W01
	.byte		N08   , An2 
	.byte	W23
	.byte		PAN   , c_v-30
	.byte	W01
	.byte		N32   , Dn2 
	.byte	W32
	.byte	PATT
	 .word	seq_001_5 + 0xC
	.byte	PATT
	 .word	seq_001_5 + 0x26
	.byte	W23
	.byte		PAN   , c_v+30
	.byte	W01
	.byte		N08   , Bn2 , v112
	.byte	W23
	.byte		PAN   , c_v-30
	.byte	W01
	.byte		N08   , Dn2 , v084
	.byte	W16
	.byte		        Gn2 , v032
	.byte	W07
	.byte		PAN   , c_v+30
	.byte	W01
	.byte		N08   , Bn2 , v112
	.byte	W15
	.byte		PAN   , c_v-30
	.byte	W01
	.byte		N08   , Cn3 
	.byte	W07
	.byte		PAN   , c_v+30
	.byte	W01
	.byte		N08   , Dn3 
	.byte	W15
	.byte		PAN   , c_v-30
	.byte	W01
	.byte		N08   , Cn3 
	.byte	W23
	.byte		PAN   , c_v+30
	.byte	W01
	.byte		N08   , Bn2 
	.byte	W23
	.byte		PAN   , c_v-30
	.byte	W01
	.byte		N08   , Dn3 , v076
	.byte	W08
	.byte		        Dn3 , v060
	.byte	W08
	.byte		        Dn3 , v044
	.byte	W08
	.byte		        Dn3 , v040
	.byte	W07
	.byte		PAN   , c_v+30
	.byte	W01
	.byte		N08   , En2 , v084
	.byte	W15
	.byte		PAN   , c_v-30
	.byte	W01
	.byte		N08   , En3 , v112
	.byte	W23
	.byte		PAN   , c_v+30
	.byte	W01
	.byte		N08   , Gn2 , v084
	.byte	W07
	.byte		PAN   , c_v-30
	.byte	W01
	.byte		N08   , En3 , v112
	.byte	W23
	.byte		PAN   , c_v+30
	.byte	W01
	.byte		N08   , Gn2 , v084
	.byte	W23
	.byte		PAN   , c_v-30
	.byte	W01
	.byte		N08   , Dn2 
	.byte	W15
	.byte		PAN   , c_v+30
	.byte	W01
	.byte		N08   , Dn3 , v112
	.byte	W23
	.byte		PAN   , c_v-30
	.byte	W01
	.byte		N08   , Gn2 , v084
	.byte	W07
	.byte		PAN   , c_v+30
	.byte	W01
	.byte		N08   , Dn3 , v112
	.byte	W23
	.byte		PAN   , c_v-30
	.byte	W01
	.byte		N08   , Dn2 , v084
	.byte	W23
	.byte		PAN   , c_v+30
	.byte	W01
	.byte		N08   , En2 
	.byte	W15
	.byte		PAN   , c_v-30
	.byte	W01
	.byte		N08   , Cn3 , v112
	.byte	W23
	.byte		PAN   , c_v+30
	.byte	W01
	.byte		N08   , En2 , v084
	.byte	W07
	.byte		PAN   , c_v-30
	.byte	W01
	.byte		N08   , Cn3 , v112
	.byte	W36
	.byte	W03
	.byte		PAN   , c_v+0
	.byte	W01
	.byte		N08   , Bn3 , v080
	.byte	W08
	.byte	W16
	.byte		N08
	.byte	W24
	.byte		        Cn4 
	.byte	W24
	.byte		        Dn4 
	.byte	W24
	.byte		        En4 
	.byte	W07
	.byte		PAN   , c_v-30
	.byte	W01
	.byte		N08   , En2 , v084
	.byte	W15
	.byte		PAN   , c_v+30
	.byte	W01
	.byte		N08   , En3 , v112
	.byte	W23
	.byte		PAN   , c_v-30
	.byte	W01
	.byte		N08   , Gn2 , v084
	.byte	W07
	.byte		PAN   , c_v+30
	.byte	W01
	.byte		N08   , En3 , v112
	.byte	W23
	.byte		PAN   , c_v-30
	.byte	W01
	.byte		N08   , En2 , v084
	.byte	W15
	.byte		PAN   , c_v+0
	.byte	W01
	.byte		N08   , Dn3 , v112
	.byte	W08
	.byte	W16
	.byte		N08
	.byte	W24
	.byte		        Gn3 
	.byte	W23
	.byte		PAN   , c_v+30
	.byte	W01
	.byte		N08   , En2 
	.byte	W07
	.byte		PAN   , c_v-30
	.byte	W01
	.byte		N08   , Fs2 
	.byte	W15
	.byte		PAN   , c_v+30
	.byte	W01
	.byte		N08   , Gn2 
	.byte	W08
	.byte		        An1 , v032
	.byte	W15
	.byte		PAN   , c_v-30
	.byte	W01
	.byte		N08   , An2 , v040
	.byte	W08
	.byte		        An1 , v032
	.byte	W15
	.byte		PAN   , c_v+30
	.byte	W01
	.byte		N08   , Gn2 , v040
	.byte	W07
	.byte		PAN   , c_v-30
	.byte	W01
	.byte		N08   , Fs2 , v112
	.byte	W15
	.byte		PAN   , c_v+30
	.byte	W01
	.byte		N08   , En2 
	.byte	W23
	.byte		PAN   , c_v-30
	.byte	W01
	.byte		N08   , Dn2 
	.byte	W08
	.byte	W44
	.byte	W03
	.byte		PAN   , c_v+30
	.byte	W01
	.byte		N08   , Dn3 , v072
	.byte	W08
	.byte		        Dn3 , v092
	.byte	W08
	.byte		        Dn3 , v108
	.byte	W08
	.byte		        Dn3 , v100
	.byte	W08
	.byte		N16   , Dn3 , v024
	.byte	W16
	.byte	GOTO
	 .word	seq_001_5 + 0xC
	.byte	FINE

@*********************** Track 07 ***********************@

seq_001_6:
	.byte	KEYSH , seq_001_key+0
	.byte	W12
	.byte		VOICE , 127
	.byte	W01
	.byte		VOL   , 80*seq_001_mvl/mxv
	.byte	W01
	.byte		PAN   , c_v+0
	.byte	W10
	.byte		N06   , Cn1 , v127
	.byte	W24
	.byte		N03   , Ds1 , v112
	.byte	W48
	.byte		N03
	.byte	W24
	.byte	PEND
	.byte	PATT
	 .word	seq_001_6 + 0xC
	.byte	PATT
	 .word	seq_001_6 + 0xC
	.byte		N06   , Cn1 , v127
	.byte	W16
	.byte		        Fs2 , v120
	.byte	W08
	.byte		        Cs3 , v080
	.byte	W16
	.byte		        Fs2 , v120
	.byte	W24
	.byte		N03   , Ds1 , v112
	.byte	W08
	.byte		N06   , Cn1 , v127
	.byte	W24
	.byte	PATT
	 .word	seq_001_6 + 0xC
	.byte	PATT
	 .word	seq_001_6 + 0xC
	.byte	PATT
	 .word	seq_001_6 + 0xC
	.byte		N06   , Cn1 , v127
	.byte	W24
	.byte		        Dn3 , v080
	.byte	W24
	.byte		N06
	.byte	W24
	.byte		        Fs3 , v120
	.byte	W08
	.byte		N08   , Dn3 , v112
	.byte	W08
	.byte		N06   , Cs3 , v080
	.byte	W08
	.byte		N06   , Cn1 , v127
	.byte	W24
	.byte		        Ds1 , v112
	.byte	W24
	.byte		        Cn1 , v092
	.byte	W24
	.byte		        Ds1 , v112
	.byte	W24
	.byte	PEND
	.byte	PATT
	 .word	seq_001_6 + 0x59
	.byte	PATT
	 .word	seq_001_6 + 0x59
	.byte		N06   , Cn1 , v127
	.byte	W48
	.byte		        Cn1 , v092
	.byte	W48
	.byte	PATT
	 .word	seq_001_6 + 0x59
	.byte		N06   , Cn1 , v127
	.byte	W96
	.byte		N06
	.byte	W24
	.byte		N06
	.byte	W72
	.byte	W48
	.byte		N06
	.byte	W06
	.byte		N08   , Dn3 , v060
	.byte	W08
	.byte		        Dn3 , v076
	.byte	W08
	.byte		        Dn3 , v092
	.byte	W08
	.byte		N18   , Dn3 , v052
	.byte	W18
	.byte	GOTO
	 .word	seq_001_6 + 0xC
	.byte	FINE

@*********************** Track 08 ***********************@

seq_001_7:
	.byte	KEYSH , seq_001_key+0
	.byte	W12
	.byte		VOICE , 127
	.byte	W01
	.byte		VOL   , 80*seq_001_mvl/mxv
	.byte	W01
	.byte		PAN   , c_v+0
	.byte	W10
	.byte	W40
	.byte		N06   , Dn3 , v112
	.byte	W24
	.byte		        Cs3 
	.byte	W24
	.byte		        Dn3 
	.byte	W08
	.byte	PEND
	.byte	PATT
	 .word	seq_001_7 + 0xC
	.byte	W40
	.byte		N06   , Dn3 , v112
	.byte	W24
	.byte		        Cs3 
	.byte	W16
	.byte		        Dn3 
	.byte	W16
	.byte	W16
	.byte		N06
	.byte	W24
	.byte		N06
	.byte	W40
	.byte		N06
	.byte	W08
	.byte		        Cs3 , v080
	.byte	W08
	.byte	PATT
	 .word	seq_001_7 + 0xC
	.byte	PATT
	 .word	seq_001_7 + 0xC
	.byte	W40
	.byte		N06   , Dn3 , v112
	.byte	W24
	.byte		N06
	.byte	W16
	.byte		        Cs3 
	.byte	W16
	.byte	W15
	.byte		VOICE , 125
	.byte	W01
	.byte		N24   , Cn3 , v127
	.byte	W24
	.byte		N24
	.byte	W24
	.byte		VOICE , 124
	.byte		N06   , Cs3 
	.byte	W07
	.byte		VOICE , 125
	.byte	W01
	.byte		N08   , Cn3 
	.byte	W16
	.byte		VOICE , 127
	.byte	W08
	.byte	W40
	.byte		N06   , Cs3 , v112
	.byte	W08
	.byte		        Dn3 
	.byte	W40
	.byte		N06
	.byte	W08
	.byte	PEND
	.byte	PATT
	 .word	seq_001_7 + 0x59
	.byte	PATT
	 .word	seq_001_7 + 0x59
	.byte	W15
	.byte		VOICE , 125
	.byte	W01
	.byte		N08   , Cn3 , v127
	.byte	W07
	.byte		VOICE , 124
	.byte	W01
	.byte		N16   , Cs3 
	.byte	W15
	.byte		VOICE , 125
	.byte	W01
	.byte		N08   , Cn3 
	.byte	W23
	.byte		VOICE , 124
	.byte	W01
	.byte		N08
	.byte	W07
	.byte		VOICE , 124
	.byte	W01
	.byte		N08   , Cs3 
	.byte	W07
	.byte		VOICE , 127
	.byte	W01
	.byte		N08   , Dn3 , v112
	.byte	W08
	.byte		N06   , Cs3 , v080
	.byte	W08
	.byte	W40
	.byte		N08   , Cs3 , v112
	.byte	W08
	.byte		N16   , Dn3 
	.byte	W40
	.byte		N08
	.byte	W08
	.byte	W15
	.byte		VOICE , 125
	.byte	W01
	.byte		N08   , Cn3 , v127
	.byte	W07
	.byte		VOICE , 124
	.byte	W01
	.byte		N16   , Cs3 
	.byte	W15
	.byte		VOICE , 125
	.byte	W01
	.byte		N24   , Cn3 
	.byte	W23
	.byte		VOICE , 124
	.byte	W01
	.byte		N08   , Cs3 
	.byte	W07
	.byte		VOICE , 125
	.byte	W01
	.byte		N16   , Cn3 
	.byte	W07
	.byte		VOICE , 127
	.byte	W09
	.byte		N08   , Cs3 , v080
	.byte	W08
	.byte	W15
	.byte		VOICE , 125
	.byte	W01
	.byte		N08   , Cn3 , v127
	.byte	W24
	.byte		N08
	.byte	W07
	.byte		VOICE , 124
	.byte	W01
	.byte		N16   , Cs3 
	.byte	W15
	.byte		VOICE , 125
	.byte	W01
	.byte		N24   , Cn3 
	.byte	W24
	.byte		N30
	.byte	W08
	.byte	W44
	.byte	W03
	.byte		VOICE , 127
	.byte	W03
	.byte		N08   , Dn3 , v072
	.byte	W08
	.byte		        Dn3 , v092
	.byte	W08
	.byte		        Dn3 , v108
	.byte	W08
	.byte		N22   , Dn3 , v100
	.byte	W22
	.byte	GOTO
	 .word	seq_001_7 + 0xC
	.byte	FINE

@*********************** Track 09 ***********************@

seq_001_8:
	.byte	KEYSH , seq_001_key+0
	.byte	W12
	.byte		VOICE , 93
	.byte	W01
	.byte		VOL   , 40*seq_001_mvl/mxv
	.byte	W01
	.byte		PAN   , c_v+0
	.byte	W10
	.byte		N22   , Gn2 , v112
	.byte	W24
	.byte		N02
	.byte	W16
	.byte		N08   , Dn2 , v092
	.byte	W08
	.byte		        Gn2 , v112
	.byte	W24
	.byte		N15   , Fs2 
	.byte	W16
	.byte		N08   , Gn2 , v092
	.byte	W08
	.byte	PEND
	.byte		N22   , An2 , v112
	.byte	W24
	.byte		N02
	.byte	W16
	.byte		N08   , Dn2 , v092
	.byte	W08
	.byte		        An2 , v112
	.byte	W24
	.byte		N15   , Gn2 
	.byte	W16
	.byte		N08   , An2 , v092
	.byte	W08
	.byte	PEND
	.byte		N22   , Bn2 , v112
	.byte	W24
	.byte		N02
	.byte	W16
	.byte		N08   , Dn2 , v092
	.byte	W08
	.byte		        Bn2 , v112
	.byte	W16
	.byte		        En2 , v092
	.byte	W08
	.byte		N15   , Fs2 , v112
	.byte	W16
	.byte		N08   , Gn2 , v092
	.byte	W08
	.byte		N15   , An2 , v112
	.byte	W16
	.byte		N08   , Gn2 
	.byte	W24
	.byte		        Fs2 
	.byte	W24
	.byte		        Dn2 , v092
	.byte	W08
	.byte		N22   , Fs2 , v112
	.byte	W24
	.byte	PATT
	 .word	seq_001_8 + 0xC
	.byte	PATT
	 .word	seq_001_8 + 0x21
	.byte		N22   , Bn2 , v112
	.byte	W24
	.byte		N02
	.byte	W16
	.byte		N08   , Dn2 , v092
	.byte	W08
	.byte		        Bn2 , v112
	.byte	W16
	.byte		        Gn2 , v092
	.byte	W08
	.byte		N15   , Bn2 , v112
	.byte	W16
	.byte		N08   , Cn3 , v092
	.byte	W08
	.byte		N15   , Dn3 , v112
	.byte	W16
	.byte		N08
	.byte	W24
	.byte		N15   , Gn2 
	.byte	W24
	.byte		N08   , An2 , v092
	.byte	W08
	.byte		N15   , Bn2 , v112
	.byte	W16
	.byte		N08   , Dn2 , v092
	.byte	W08
	.byte		N23   , Cn3 , v112
	.byte	W24
	.byte		N02
	.byte	W16
	.byte		N07   , Gn2 , v092
	.byte	W08
	.byte		        Cn3 , v112
	.byte	W16
	.byte		        Gn2 , v092
	.byte	W08
	.byte		        Cn3 , v112
	.byte	W16
	.byte		        Gn2 , v092
	.byte	W08
	.byte	PEND
	.byte		N23   , Bn2 , v112
	.byte	W24
	.byte		N02
	.byte	W16
	.byte		N07   , Gn2 , v092
	.byte	W08
	.byte		        Bn2 , v112
	.byte	W16
	.byte		        Dn2 , v092
	.byte	W08
	.byte		        Gn2 , v112
	.byte	W16
	.byte		        Dn2 , v092
	.byte	W08
	.byte		N23   , An2 , v112
	.byte	W24
	.byte		N02
	.byte	W16
	.byte		N07   , Dn2 , v092
	.byte	W08
	.byte		        An2 , v112
	.byte	W16
	.byte		        Dn2 , v092
	.byte	W08
	.byte		        Fs2 , v112
	.byte	W16
	.byte		N15   , Gn2 
	.byte	W08
	.byte	W16
	.byte		N07   , Dn2 , v080
	.byte	W08
	.byte		        Gn2 , v112
	.byte	W16
	.byte		        Dn2 , v080
	.byte	W08
	.byte		        An2 , v112
	.byte	W16
	.byte		        Dn2 , v080
	.byte	W08
	.byte		        Bn2 , v112
	.byte	W16
	.byte		        Dn2 , v080
	.byte	W08
	.byte	PATT
	 .word	seq_001_8 + 0x95
	.byte		N23   , Bn2 , v112
	.byte	W24
	.byte		N02
	.byte	W16
	.byte		N15
	.byte	W24
	.byte		N07   , Gn2 , v092
	.byte	W08
	.byte		N15   , An2 , v112
	.byte	W16
	.byte		N07   , Bn2 , v092
	.byte	W08
	.byte		N10   , An2 , v112
	.byte	W24
	.byte		N10
	.byte	W24
	.byte		N11   , Cn3 
	.byte	W16
	.byte		        Cs3 
	.byte	W24
	.byte		N07   , Dn3 
	.byte	W08
	.byte	W48
	.byte		N07
	.byte	W24
	.byte		N23   , Dn2 , v092
	.byte	W24
	.byte	GOTO
	 .word	seq_001_8 + 0xC
	.byte	FINE

@*********************** Track 10 ***********************@

seq_001_9:
	.byte	KEYSH , seq_001_key+0
	.byte	W18
	.byte		VOICE , 79
	.byte	W01
	.byte		VOL   , 44*seq_001_mvl/mxv
	.byte	W01
	.byte		PAN   , c_v+63
	.byte	W04
	.byte	W16
	.byte		N08   , Bn2 , v112
	.byte	W08
	.byte		N03   , Bn2 , v080
	.byte	W24
	.byte		N24   , Bn2 , v112
	.byte	W48
	.byte	PEND
	.byte	W16
	.byte		N08   , Cn3 , v112
	.byte	W08
	.byte		N03   , Cn3 , v080
	.byte	W24
	.byte		N24   , Cn3 , v112
	.byte	W48
	.byte	PEND
	.byte	PATT
	 .word	seq_001_9 + 0xC
	.byte		N11   , Cn3 , v112
	.byte	W16
	.byte		N08   , Bn2 
	.byte	W24
	.byte		        An2 
	.byte	W24
	.byte		N32   , Dn3 
	.byte	W32
	.byte	PATT
	 .word	seq_001_9 + 0xC
	.byte	PATT
	 .word	seq_001_9 + 0x1A
	.byte	PATT
	 .word	seq_001_9 + 0xC
	.byte		N16   , An2 , v112
	.byte	W16
	.byte		N06
	.byte	W24
	.byte		N09   , Bn2 
	.byte	W24
	.byte		N32
	.byte	W32
	.byte	W24
	.byte		N08   , Bn3 , v112
	.byte	W48
	.byte		N24
	.byte	W24
	.byte	PEND
	.byte	PATT
	 .word	seq_001_9 + 0x53
	.byte	W24
	.byte		N08   , Cn4 , v112
	.byte	W40
	.byte		N08
	.byte	W08
	.byte		N16   , Ds3 
	.byte	W16
	.byte		N12   , Dn3 , v100
	.byte	W08
	.byte	W16
	.byte		N09   , Gn3 
	.byte	W24
	.byte		        Fs3 
	.byte	W24
	.byte		        Fn3 
	.byte	W24
	.byte		N32   , En3 
	.byte	W08
	.byte	W24
	.byte		N16   , En3 , v112
	.byte	W24
	.byte		N08
	.byte	W16
	.byte		        Fs3 
	.byte	W08
	.byte		        Gn3 
	.byte	W16
	.byte		N16   , Dn3 
	.byte	W08
	.byte	W16
	.byte		N08
	.byte	W24
	.byte		N48   , Gn3 
	.byte	W56
	.byte		N08
	.byte	W24
	.byte		        En3 
	.byte	W24
	.byte		N08
	.byte	W16
	.byte		        Gn3 
	.byte	W24
	.byte		N16   , Fs3 
	.byte	W08
	.byte	W48
	.byte		N48
	.byte	W48
	.byte	GOTO
	 .word	seq_001_9 + 0xC
	.byte	FINE

@*********************** Track 11 ***********************@

seq_001_10:
	.byte	KEYSH , seq_001_key+0
	.byte	W18
	.byte		VOICE , 80
	.byte	W01
	.byte		VOL   , 44*seq_001_mvl/mxv
	.byte	W01
	.byte		PAN   , c_v-63
	.byte	W04
	.byte	W16
	.byte		N08   , Gn3 , v112
	.byte	W08
	.byte		N03   , Gn3 , v080
	.byte	W24
	.byte		N24   , Gn3 , v112
	.byte	W48
	.byte	PEND
	.byte	W16
	.byte		N08   , An3 , v112
	.byte	W08
	.byte		N03   , An3 , v080
	.byte	W24
	.byte		N24   , An3 , v112
	.byte	W48
	.byte	PEND
	.byte	PATT
	 .word	seq_001_10 + 0xC
	.byte		N11   , An3 , v112
	.byte	W16
	.byte		N08   , Gn3 
	.byte	W24
	.byte		        Fs3 
	.byte	W24
	.byte		N32   , An3 
	.byte	W32
	.byte	PATT
	 .word	seq_001_10 + 0xC
	.byte	PATT
	 .word	seq_001_10 + 0x1A
	.byte	PATT
	 .word	seq_001_10 + 0xC
	.byte		N16   , Fn3 , v112
	.byte	W16
	.byte		N06
	.byte	W24
	.byte		N09
	.byte	W24
	.byte		N32
	.byte	W32
	.byte	W24
	.byte		N08   , Gn3 , v112
	.byte	W48
	.byte		N24
	.byte	W24
	.byte	PEND
	.byte	PATT
	 .word	seq_001_10 + 0x52
	.byte	W24
	.byte		N08   , An3 , v112
	.byte	W40
	.byte		        Fs3 
	.byte	W08
	.byte		N16
	.byte	W16
	.byte		N12   , Gn3 , v100
	.byte	W08
	.byte	W16
	.byte		N09
	.byte	W24
	.byte		        An3 
	.byte	W24
	.byte		        Bn3 
	.byte	W24
	.byte		N32   , Cn4 
	.byte	W08
	.byte	W24
	.byte		N16   , Cn4 , v112
	.byte	W24
	.byte		N08
	.byte	W16
	.byte		        Bn3 
	.byte	W08
	.byte		        Cn4 
	.byte	W16
	.byte		N16   , Bn3 
	.byte	W08
	.byte	W16
	.byte		N08
	.byte	W24
	.byte		N48   , En3 
	.byte	W56
	.byte		N08
	.byte	W24
	.byte		        Cn3 
	.byte	W24
	.byte		N08
	.byte	W16
	.byte		        En3 
	.byte	W24
	.byte		N16   , Dn3 
	.byte	W08
	.byte	W48
	.byte		N48
	.byte	W48
	.byte	GOTO
	 .word	seq_001_10 + 0xC
	.byte	FINE

@*********************** Track 12 ***********************@

seq_001_11:
	.byte	KEYSH , seq_001_key+0
	.byte	W18
	.byte		VOICE , 127
	.byte	W01
	.byte		VOL   , 75*seq_001_mvl/mxv
	.byte	W01
	.byte		PAN   , c_v+0
	.byte	W04
	.byte		N03   , An3 , v072
	.byte	W16
	.byte		        An3 , v032
	.byte	W08
	.byte		N08   , Ds2 , v052
	.byte	W24
	.byte		N03   , An3 , v072
	.byte	W24
	.byte		N08   , Ds2 , v052
	.byte	W24
	.byte	PEND
	.byte	PATT
	 .word	seq_001_11 + 0xC
	.byte	PATT
	 .word	seq_001_11 + 0xC
	.byte	W16
	.byte		N03   , An3 , v032
	.byte	W56
	.byte		N08   , Ds2 , v052
	.byte	W16
	.byte		N03   , An3 , v032
	.byte	W08
	.byte	PATT
	 .word	seq_001_11 + 0xC
	.byte	PATT
	 .word	seq_001_11 + 0xC
	.byte	PATT
	 .word	seq_001_11 + 0xC
	.byte	W64
	.byte		N03   , An3 , v032
	.byte	W08
	.byte		N24   , Ds2 , v052
	.byte	W24
	.byte		N03   , An3 , v072
	.byte	W24
	.byte		N08   , Ds2 , v052
	.byte	W24
	.byte		N03   , An3 , v072
	.byte	W16
	.byte		        An3 , v032
	.byte	W08
	.byte		N08   , Ds2 , v052
	.byte	W24
	.byte	PEND
	.byte	PATT
	 .word	seq_001_11 + 0x4F
	.byte		N03   , An3 , v072
	.byte	W16
	.byte		N08   , Ds2 , v052
	.byte	W24
	.byte		N08
	.byte	W24
	.byte		N03   , An3 , v032
	.byte	W08
	.byte		N08   , Ds2 , v052
	.byte	W24
	.byte		N03   , An3 , v072
	.byte	W16
	.byte		N08   , Ds2 , v052
	.byte	W24
	.byte		N08
	.byte	W08
	.byte		N03   , An3 , v072
	.byte	W16
	.byte		        An3 , v032
	.byte	W08
	.byte		N08   , Ds2 , v052
	.byte	W24
	.byte	PEND
	.byte	PATT
	 .word	seq_001_11 + 0x4F
	.byte	PATT
	 .word	seq_001_11 + 0x7A
	.byte	W16
	.byte		N03   , An3 , v032
	.byte	W08
	.byte		N08   , Ds2 , v052
	.byte	W40
	.byte		        An3 
	.byte	W24
	.byte		        Ds2 
	.byte	W08
	.byte	W96
	.byte	GOTO
	 .word	seq_001_11 + 0xC
	.byte	FINE

@******************************************************@

	.align	2

seq_001:
	.byte	12	@ NumTrks
	.byte	0	@ NumBlks
	.byte	seq_001_pri	@ Priority
	.byte	seq_001_rev	@ Reverb

	.word	seq_001_grp

	.word	seq_001_0
	.word	seq_001_1
	.word	seq_001_2
	.word	seq_001_3
	.word	seq_001_4
	.word	seq_001_5
	.word	seq_001_6
	.word	seq_001_7
	.word	seq_001_8
	.word	seq_001_9
	.word	seq_001_10
	.word	seq_001_11

	.end
