@ File generated by m4a2s Song-Module
	.include "MPlayDef.s"

	.equ	seq_897_grp, bank_026
	.equ	seq_897_pri, 127
	.equ	seq_897_rev, 0
	.equ	seq_897_mvl, 127
	.equ	seq_897_key, 0

	.section .rodata
	.global	seq_897
	.align	2

@*********************** Track 01 ***********************@

seq_897_0:
	.byte	KEYSH , seq_897_key+0
	.byte	TEMPO , 240/2
	.byte		VOICE , 48
	.byte		PAN   , c_v+0
	.byte		VOL   , 120*seq_897_mvl/mxv
	.byte		BEND  , c_v-1
	.byte	W01
	.byte		        c_v+4
	.byte		N01   , Dn2 , v060
	.byte	W01
	.byte		BEND  , c_v+5
	.byte	W01
	.byte		        c_v+7
	.byte		N01   , Ds2 , v092
	.byte		N01   , En2 , v100
	.byte	W01
	.byte		BEND  , c_v+8
	.byte		N01   , Fn2 , v080
	.byte	W01
	.byte		BEND  , c_v+9
	.byte	W01
	.byte		        c_v+10
	.byte		N01   , Fs2 , v040
	.byte	W01
	.byte		BEND  , c_v+11
	.byte		N01   , Gs2 , v060
	.byte	W01
	.byte		BEND  , c_v+12
	.byte		N01   , As2 , v080
	.byte	W01
	.byte		BEND  , c_v+13
	.byte		N01   , Cn3 , v100
	.byte	W01
	.byte		BEND  , c_v+13
	.byte		N01   , Bn2 , v092
	.byte	W01
	.byte		BEND  , c_v+14
	.byte	W01
	.byte		        c_v+15
	.byte		N01   , As2 , v080
	.byte	W01
	.byte		BEND  , c_v+15
	.byte		N01   , An2 , v072
	.byte	W01
	.byte		BEND  , c_v+17
	.byte		N01   , Gs2 , v052
	.byte	W01
	.byte		BEND  , c_v+17
	.byte		N01   , Gn2 , v040
	.byte	W01
	.byte		BEND  , c_v+18
	.byte	W01
	.byte		        c_v+18
	.byte		N01   , Fs2 , v032
	.byte	W01
	.byte		BEND  , c_v+19
	.byte		N01   , En2 , v020
	.byte	W01
	.byte		BEND  , c_v+19
	.byte		N01   , Dn2 , v040
	.byte	W01
	.byte		BEND  , c_v+20
	.byte		N02   , Cs2 , v060
	.byte	W01
	.byte		BEND  , c_v+20
	.byte		N01   , Dn2 , v080
	.byte	W01
	.byte		BEND  , c_v+21
	.byte		N01   , Ds2 , v092
	.byte	W01
	.byte		BEND  , c_v+21
	.byte		N01   , En2 , v112
	.byte	W01
	.byte		BEND  , c_v+22
	.byte		N01   , Fn2 , v100
	.byte	W01
	.byte		BEND  , c_v+22
	.byte		N01   , Gn2 , v092
	.byte	W01
	.byte		BEND  , c_v+23
	.byte		N01   , An2 , v080
	.byte	W01
	.byte		BEND  , c_v+23
	.byte		N01   , Bn2 , v072
	.byte	W01
	.byte		BEND  , c_v+23
	.byte		N01   , As2 , v060
	.byte	W01
	.byte		BEND  , c_v+24
	.byte	W01
	.byte		        c_v+24
	.byte		N01   , An2 , v052
	.byte	W01
	.byte		BEND  , c_v+25
	.byte		N01   , Gs2 , v040
	.byte	W01
	.byte		BEND  , c_v+25
	.byte		N01   , Gn2 , v032
	.byte	W01
	.byte		BEND  , c_v+26
	.byte	W01
	.byte		        c_v+26
	.byte		N01   , Fs2 , v020
	.byte	W01
	.byte		BEND  , c_v+27
	.byte		N01   , Fn2 , v032
	.byte	W01
	.byte		BEND  , c_v+27
	.byte		N02   , Fs2 , v040
	.byte	W01
	.byte		BEND  , c_v+27
	.byte		N01   , Gn2 , v052
	.byte	W01
	.byte		BEND  , c_v+28
	.byte		N01   , Gs2 , v060
	.byte	W01
	.byte		BEND  , c_v+28
	.byte		N01   , An2 , v072
	.byte	W01
	.byte		BEND  , c_v+28
	.byte		N01   , As2 , v080
	.byte	W01
	.byte		BEND  , c_v+29
	.byte		N01   , Cn3 , v092
	.byte	W01
	.byte		BEND  , c_v+29
	.byte		N01   , Dn3 , v100
	.byte	W01
	.byte		BEND  , c_v+29
	.byte		N01   , En3 , v112
	.byte	W01
	.byte		BEND  , c_v+30
	.byte	W01
	.byte		        c_v+30
	.byte		N01   , Ds3 , v040
	.byte	W01
	.byte		BEND  , c_v+30
	.byte		N01   , Dn3 
	.byte	W01
	.byte		BEND  , c_v+31
	.byte		N01   , Cs3 
	.byte	W01
	.byte		BEND  , c_v+31
	.byte		N01   , Cn3 
	.byte	W01
	.byte		VOL   , 120*seq_897_mvl/mxv
	.byte		BEND  , c_v+31
	.byte	W01
	.byte		VOL   , 95*seq_897_mvl/mxv
	.byte		BEND  , c_v+32
	.byte		N01   , Bn2 
	.byte	W01
	.byte		VOL   , 85*seq_897_mvl/mxv
	.byte		BEND  , c_v+32
	.byte		N01   , As2 
	.byte	W01
	.byte		VOL   , 78*seq_897_mvl/mxv
	.byte		BEND  , c_v+33
	.byte		N01   , Gs2 
	.byte	W01
	.byte		VOL   , 71*seq_897_mvl/mxv
	.byte		BEND  , c_v+33
	.byte		N01   , Fs2 
	.byte	W01
	.byte		VOL   , 66*seq_897_mvl/mxv
	.byte		BEND  , c_v+33
	.byte		N02   , Fn2 , v080
	.byte	W01
	.byte		VOL   , 56*seq_897_mvl/mxv
	.byte		BEND  , c_v+34
	.byte		N01   , Fs2 , v092
	.byte	W01
	.byte		VOL   , 51*seq_897_mvl/mxv
	.byte		BEND  , c_v+34
	.byte		N01   , Gn2 , v052
	.byte	W01
	.byte		VOL   , 48*seq_897_mvl/mxv
	.byte		BEND  , c_v+34
	.byte		N01   , Gs2 , v040
	.byte	W01
	.byte		VOL   , 44*seq_897_mvl/mxv
	.byte		BEND  , c_v+34
	.byte		N01   , An2 
	.byte	W01
	.byte		VOL   , 40*seq_897_mvl/mxv
	.byte		BEND  , c_v+35
	.byte		N01   , Bn2 
	.byte	W01
	.byte		VOL   , 37*seq_897_mvl/mxv
	.byte		BEND  , c_v+35
	.byte		N01   , Cs3 
	.byte	W01
	.byte		VOL   , 34*seq_897_mvl/mxv
	.byte		BEND  , c_v+35
	.byte		N01   , Ds3 
	.byte	W01
	.byte		VOL   , 31*seq_897_mvl/mxv
	.byte		BEND  , c_v+36
	.byte	W01
	.byte		VOL   , 27*seq_897_mvl/mxv
	.byte		BEND  , c_v+36
	.byte		N01   , Dn3 
	.byte	W01
	.byte		VOL   , 24*seq_897_mvl/mxv
	.byte		BEND  , c_v+36
	.byte		N01   , Cs3 
	.byte	W01
	.byte		VOL   , 21*seq_897_mvl/mxv
	.byte		BEND  , c_v+36
	.byte		N01   , Cn3 
	.byte	W01
	.byte		VOL   , 18*seq_897_mvl/mxv
	.byte		BEND  , c_v+37
	.byte		N01   , Bn2 
	.byte	W01
	.byte		VOL   , 16*seq_897_mvl/mxv
	.byte		BEND  , c_v+37
	.byte	W01
	.byte		VOL   , 13*seq_897_mvl/mxv
	.byte		BEND  , c_v+37
	.byte		N01   , As2 
	.byte	W01
	.byte		VOL   , 10*seq_897_mvl/mxv
	.byte		BEND  , c_v+38
	.byte		N01   , An2 
	.byte	W01
	.byte		VOL   , 8*seq_897_mvl/mxv
	.byte	W01
	.byte		        5*seq_897_mvl/mxv
	.byte	W01
	.byte		        2*seq_897_mvl/mxv
	.byte	W01
	.byte		        0*seq_897_mvl/mxv
	.byte	FINE

@******************************************************@

	.align	2

seq_897:
	.byte	1	@ NumTrks
	.byte	0	@ NumBlks
	.byte	seq_897_pri	@ Priority
	.byte	seq_897_rev	@ Reverb

	.word	seq_897_grp

	.word	seq_897_0

	.end
