@ File generated by m4a2s Song-Module
	.include "MPlayDef.s"

	.equ	seq_797_grp, bank_026
	.equ	seq_797_pri, 127
	.equ	seq_797_rev, 0
	.equ	seq_797_mvl, 127
	.equ	seq_797_key, 0

	.section .rodata
	.global	seq_797
	.align	2

@*********************** Track 01 ***********************@

seq_797_0:
	.byte	KEYSH , seq_797_key+0
	.byte	TEMPO , 200/2
	.byte		VOICE , 42
	.byte		VOL   , 127*seq_797_mvl/mxv
	.byte		PAN   , c_v+0
	.byte	W02
	.byte		MOD   , 50
	.byte		N06   , Cs5 , v127
	.byte	W01
	.byte		N03   , Gn5 , v052
	.byte	W05
	.byte		N06   , Cn5 , v127
	.byte	W05
	.byte		        As4 , v112
	.byte	W04
	.byte		        Gn4 , v092
	.byte	W02
	.byte		N03   , Dn5 , v040
	.byte	W05
	.byte		N06   , Bn4 , v127
	.byte	W05
	.byte		        Gn4 , v112
	.byte	W05
	.byte		        Dn4 , v092
	.byte	W07
	.byte		        Cn5 , v127
	.byte	W05
	.byte		N05   , Gn4 , v112
	.byte	W06
	.byte		N04   , Cn4 , v092
	.byte	W01
	.byte		N02   , Bn4 , v040
	.byte	W03
	.byte		N06   , An3 , v072
	.byte	W06
	.byte		        Fs3 , v040
	.byte	W01
	.byte		N02   , Bn3 , v052
	.byte	W03
	.byte		VOL   , 123*seq_797_mvl/mxv
	.byte	W01
	.byte		        120*seq_797_mvl/mxv
	.byte	W01
	.byte		        115*seq_797_mvl/mxv
	.byte		N06   , Cs3 , v016
	.byte	W01
	.byte		VOL   , 108*seq_797_mvl/mxv
	.byte	W01
	.byte		        99*seq_797_mvl/mxv
	.byte	W01
	.byte		        88*seq_797_mvl/mxv
	.byte	W01
	.byte		        75*seq_797_mvl/mxv
	.byte	W01
	.byte		        60*seq_797_mvl/mxv
	.byte	W01
	.byte		        43*seq_797_mvl/mxv
	.byte	W01
	.byte		        25*seq_797_mvl/mxv
	.byte	W01
	.byte		        0*seq_797_mvl/mxv
	.byte	FINE

@******************************************************@

	.align	2

seq_797:
	.byte	1	@ NumTrks
	.byte	0	@ NumBlks
	.byte	seq_797_pri	@ Priority
	.byte	seq_797_rev	@ Reverb

	.word	seq_797_grp

	.word	seq_797_0

	.end
