@ File generated by m4a2s Song-Module
	.include "MPlayDef.s"

	.equ	seq_051_grp, bank_000
	.equ	seq_051_pri, 50
	.equ	seq_051_rev, 178
	.equ	seq_051_mvl, 127
	.equ	seq_051_key, 0

	.section .rodata
	.global	seq_051
	.align	2

@*********************** Track 01 ***********************@

seq_051_0:
	.byte	KEYSH , seq_051_key+0
	.byte	TEMPO , 160/2
	.byte		VOICE , 118
	.byte		VOL   , 100*seq_051_mvl/mxv
	.byte		PAN   , c_v+0
	.byte	W11
	.byte	TEMPO , 80/2
	.byte	W01
	.byte		N06   , Ds4 , v108
	.byte	W06
	.byte		        Dn4 , v096
	.byte	W06
	.byte		        Cs4 , v088
	.byte	W06
	.byte		        Cn4 , v072
	.byte	W06
	.byte		N36   , Bn3 , v076
	.byte	W01
	.byte		VOL   , 85*seq_051_mvl/mxv
	.byte	W02
	.byte		        84*seq_051_mvl/mxv
	.byte	W02
	.byte		        82*seq_051_mvl/mxv
	.byte	W01
	.byte		        81*seq_051_mvl/mxv
	.byte	W02
	.byte		        81*seq_051_mvl/mxv
	.byte	W01
	.byte		        80*seq_051_mvl/mxv
	.byte	W02
	.byte		        78*seq_051_mvl/mxv
	.byte	W01
	.byte		        78*seq_051_mvl/mxv
	.byte	W02
	.byte		        77*seq_051_mvl/mxv
	.byte	W01
	.byte		        74*seq_051_mvl/mxv
	.byte	W02
	.byte		        70*seq_051_mvl/mxv
	.byte	W01
	.byte		        68*seq_051_mvl/mxv
	.byte	W02
	.byte		        64*seq_051_mvl/mxv
	.byte	W02
	.byte		        60*seq_051_mvl/mxv
	.byte	W01
	.byte		        58*seq_051_mvl/mxv
	.byte	W02
	.byte		        54*seq_051_mvl/mxv
	.byte	W01
	.byte		        52*seq_051_mvl/mxv
	.byte	W02
	.byte		        41*seq_051_mvl/mxv
	.byte	W01
	.byte		        36*seq_051_mvl/mxv
	.byte	W02
	.byte		        25*seq_051_mvl/mxv
	.byte	W01
	.byte		        19*seq_051_mvl/mxv
	.byte	W02
	.byte		        8*seq_051_mvl/mxv
	.byte	W02
	.byte	FINE

@*********************** Track 02 ***********************@

seq_051_1:
	.byte	KEYSH , seq_051_key+0
	.byte	W01
	.byte		VOICE , 118
	.byte		VOL   , 100*seq_051_mvl/mxv
	.byte		PAN   , c_v+0
	.byte	W11
	.byte		N06   , Gn3 , v088
	.byte	W06
	.byte		        Fs3 , v076
	.byte	W06
	.byte		        Fn3 , v068
	.byte	W06
	.byte		        En3 , v048
	.byte	W06
	.byte		N36   , Ds3 , v056
	.byte	W01
	.byte		VOL   , 85*seq_051_mvl/mxv
	.byte	W02
	.byte		        84*seq_051_mvl/mxv
	.byte	W02
	.byte		        82*seq_051_mvl/mxv
	.byte	W01
	.byte		        81*seq_051_mvl/mxv
	.byte	W02
	.byte		        81*seq_051_mvl/mxv
	.byte	W01
	.byte		        80*seq_051_mvl/mxv
	.byte	W02
	.byte		        78*seq_051_mvl/mxv
	.byte	W01
	.byte		        78*seq_051_mvl/mxv
	.byte	W02
	.byte		        77*seq_051_mvl/mxv
	.byte	W01
	.byte		        74*seq_051_mvl/mxv
	.byte	W02
	.byte		        70*seq_051_mvl/mxv
	.byte	W01
	.byte		        68*seq_051_mvl/mxv
	.byte	W02
	.byte		        64*seq_051_mvl/mxv
	.byte	W02
	.byte		        60*seq_051_mvl/mxv
	.byte	W01
	.byte		        58*seq_051_mvl/mxv
	.byte	W02
	.byte		        54*seq_051_mvl/mxv
	.byte	W01
	.byte		        52*seq_051_mvl/mxv
	.byte	W02
	.byte		        41*seq_051_mvl/mxv
	.byte	W01
	.byte		        36*seq_051_mvl/mxv
	.byte	W02
	.byte		        25*seq_051_mvl/mxv
	.byte	W01
	.byte		        19*seq_051_mvl/mxv
	.byte	W02
	.byte		        8*seq_051_mvl/mxv
	.byte	W02
	.byte	FINE

@*********************** Track 03 ***********************@

seq_051_2:
	.byte	KEYSH , seq_051_key+0
	.byte	W02
	.byte		VOICE , 22
	.byte		VOL   , 94*seq_051_mvl/mxv
	.byte		MODT  , mod_pan
	.byte	W01
	.byte		MOD   , 90
	.byte		PAN   , c_v+0
	.byte		LFOS  , 60
	.byte	W09
	.byte		N04   , Bn3 , v127
	.byte	W06
	.byte		        As3 , v120
	.byte	W06
	.byte		        An3 , v100
	.byte	W06
	.byte		        Gs3 , v080
	.byte	W05
	.byte		MOD   , 30
	.byte	W01
	.byte		VOL   , 85*seq_051_mvl/mxv
	.byte		N36   , Gn3 , v100
	.byte	W02
	.byte		VOL   , 84*seq_051_mvl/mxv
	.byte	W02
	.byte		        82*seq_051_mvl/mxv
	.byte	W01
	.byte		        81*seq_051_mvl/mxv
	.byte	W02
	.byte		        81*seq_051_mvl/mxv
	.byte	W01
	.byte		        80*seq_051_mvl/mxv
	.byte	W02
	.byte		        78*seq_051_mvl/mxv
	.byte	W01
	.byte		        78*seq_051_mvl/mxv
	.byte	W02
	.byte		        77*seq_051_mvl/mxv
	.byte	W01
	.byte		        74*seq_051_mvl/mxv
	.byte	W02
	.byte		        70*seq_051_mvl/mxv
	.byte	W01
	.byte		        68*seq_051_mvl/mxv
	.byte	W02
	.byte		        64*seq_051_mvl/mxv
	.byte	W02
	.byte		        60*seq_051_mvl/mxv
	.byte	W01
	.byte		        58*seq_051_mvl/mxv
	.byte	W02
	.byte		        54*seq_051_mvl/mxv
	.byte	W01
	.byte		        52*seq_051_mvl/mxv
	.byte	W02
	.byte		        41*seq_051_mvl/mxv
	.byte	W01
	.byte		        36*seq_051_mvl/mxv
	.byte	W02
	.byte		        25*seq_051_mvl/mxv
	.byte	W01
	.byte		        19*seq_051_mvl/mxv
	.byte	W02
	.byte		        8*seq_051_mvl/mxv
	.byte	W03
	.byte	FINE

@*********************** Track 04 ***********************@

seq_051_3:
	.byte	KEYSH , seq_051_key+0
	.byte	W04
	.byte		VOICE , 77
	.byte		VOL   , 62*seq_051_mvl/mxv
	.byte		PAN   , c_v-63
	.byte	W08
	.byte		N04   , Bn3 , v112
	.byte	W06
	.byte		        As3 
	.byte	W06
	.byte		        An3 
	.byte	W06
	.byte		        Gs3 
	.byte	W06
	.byte		        Gn3 
	.byte	W06
	.byte		        Gn3 , v088
	.byte	W06
	.byte		        Gn3 , v060
	.byte	W04
	.byte	FINE

@*********************** Track 05 ***********************@

seq_051_4:
	.byte	KEYSH , seq_051_key+0
	.byte	W05
	.byte		VOICE , 78
	.byte		VOL   , 62*seq_051_mvl/mxv
	.byte		PAN   , c_v+63
	.byte	W07
	.byte		N04   , Ds3 , v112
	.byte	W06
	.byte		        Dn3 
	.byte	W06
	.byte		        Cs3 
	.byte	W06
	.byte		        Cn3 
	.byte	W06
	.byte		        Bn2 
	.byte	W06
	.byte		        Bn2 , v088
	.byte	W06
	.byte		        Bn2 , v060
	.byte	W04
	.byte	FINE

@******************************************************@

	.align	2

seq_051:
	.byte	5	@ NumTrks
	.byte	0	@ NumBlks
	.byte	seq_051_pri	@ Priority
	.byte	seq_051_rev	@ Reverb

	.word	seq_051_grp

	.word	seq_051_0
	.word	seq_051_1
	.word	seq_051_2
	.word	seq_051_3
	.word	seq_051_4

	.end
