@ File generated by m4a2s Song-Module
	.include "MPlayDef.s"

	.equ	seq_206_grp, bank_025
	.equ	seq_206_pri, 50
	.equ	seq_206_rev, 198
	.equ	seq_206_mvl, 127
	.equ	seq_206_key, 0

	.section .rodata
	.global	seq_206
	.align	2

@*********************** Track 01 ***********************@

seq_206_0:
	.byte	KEYSH , seq_206_key+0
	.byte	TEMPO , 150/2
	.byte		VOICE , 48
	.byte	W01
	.byte		VOL   , 103*seq_206_mvl/mxv
	.byte	W01
	.byte		PAN   , c_v+0
	.byte	W02
	.byte		N03   , Cn5 , v120
	.byte	W08
	.byte	W08
	.byte		N03
	.byte	W08
	.byte		N03
	.byte	W07
	.byte		        Dn5 
	.byte	W09
	.byte		        En5 
	.byte	W08
	.byte		N36   , Fn5 
	.byte	W20
	.byte		VOL   , 73*seq_206_mvl/mxv
	.byte	W03
	.byte		        68*seq_206_mvl/mxv
	.byte	W02
	.byte		        65*seq_206_mvl/mxv
	.byte	W02
	.byte		        59*seq_206_mvl/mxv
	.byte	W02
	.byte		        56*seq_206_mvl/mxv
	.byte	W01
	.byte		        52*seq_206_mvl/mxv
	.byte	W02
	.byte		        49*seq_206_mvl/mxv
	.byte	W02
	.byte		        43*seq_206_mvl/mxv
	.byte	W02
	.byte		        37*seq_206_mvl/mxv
	.byte	W02
	.byte		        30*seq_206_mvl/mxv
	.byte	W02
	.byte		        22*seq_206_mvl/mxv
	.byte	W02
	.byte		        15*seq_206_mvl/mxv
	.byte	FINE

@*********************** Track 02 ***********************@

seq_206_1:
	.byte	KEYSH , seq_206_key+0
	.byte		VOICE , 48
	.byte	W01
	.byte		VOL   , 94*seq_206_mvl/mxv
	.byte	W01
	.byte		PAN   , c_v-20
	.byte	W01
	.byte		N04   , Fn4 , v112
	.byte	W05
	.byte		N03   , Fn4 , v020
	.byte	W03
	.byte		N04   , Fn4 , v112
	.byte	W01
	.byte	W04
	.byte		N03   , Fn4 , v020
	.byte	W03
	.byte		N04   , Fs4 , v112
	.byte	W05
	.byte		N03   , Fs4 , v020
	.byte	W03
	.byte		N04   , Gn4 , v112
	.byte	W09
	.byte		N04
	.byte	W07
	.byte		        Gs4 
	.byte	W08
	.byte		N32   , An4 , v092
	.byte	W32
	.byte	W01
	.byte	FINE

@*********************** Track 03 ***********************@

seq_206_2:
	.byte	KEYSH , seq_206_key+0
	.byte		VOICE , 48
	.byte	W01
	.byte		VOL   , 85*seq_206_mvl/mxv
	.byte	W01
	.byte		PAN   , c_v+20
	.byte	W01
	.byte		N04   , An3 , v112
	.byte	W05
	.byte		N03   , An3 , v020
	.byte	W03
	.byte		N04   , An3 , v112
	.byte	W01
	.byte	W04
	.byte		N03   , An3 , v020
	.byte	W03
	.byte		N04   , An3 , v112
	.byte	W05
	.byte		N03   , An3 , v020
	.byte	W03
	.byte		N04   , As3 , v112
	.byte	W08
	.byte		N04
	.byte	W08
	.byte		        Bn3 
	.byte	W08
	.byte		N32   , Cn4 , v092
	.byte	W32
	.byte	W01
	.byte	FINE

@******************************************************@

	.align	2

seq_206:
	.byte	3	@ NumTrks
	.byte	0	@ NumBlks
	.byte	seq_206_pri	@ Priority
	.byte	seq_206_rev	@ Reverb

	.word	seq_206_grp

	.word	seq_206_0
	.word	seq_206_1
	.word	seq_206_2

	.end
