@ File generated by m4a2s Song-Module
	.include "MPlayDef.s"

	.equ	seq_044_grp, bank_000
	.equ	seq_044_pri, 50
	.equ	seq_044_rev, 193
	.equ	seq_044_mvl, 127
	.equ	seq_044_key, 0

	.section .rodata
	.global	seq_044
	.align	2

@*********************** Track 01 ***********************@

seq_044_0:
	.byte	KEYSH , seq_044_key+0
	.byte	TEMPO , 70/2
	.byte		VOICE , 14
	.byte		VOL   , 80*seq_044_mvl/mxv
	.byte		PAN   , c_v+0
	.byte	W01
	.byte		MOD   , 70
	.byte		LFOS  , 32
	.byte		MODT  , mod_pan
	.byte	W32
	.byte	W03
	.byte	W96
	.byte	W96
	.byte	W96
	.byte	W96
	.byte	W96
	.byte	W96
	.byte	W96
	.byte	W48
	.byte	TEMPO , 50/2
	.byte	W24
	.byte	TEMPO , 30/2
	.byte	W12
	.byte	TEMPO , 100/2
	.byte	W12
	.byte	W48
	.byte		N06   , Gn3 , v072
	.byte	W12
	.byte		        Gn3 , v036
	.byte	W12
	.byte		        Gn3 , v020
	.byte	W12
	.byte		        Gn3 , v012
	.byte	W12
	.byte	PEND
	.byte		N06   , An3 , v072
	.byte	W12
	.byte		        An3 , v036
	.byte	W12
	.byte		        An3 , v020
	.byte	W12
	.byte		        An3 , v012
	.byte	W12
	.byte		        Dn4 , v072
	.byte	W12
	.byte		        Dn4 , v036
	.byte	W12
	.byte		        Dn4 , v020
	.byte	W12
	.byte		        Dn4 , v012
	.byte	W12
	.byte	PEND
	.byte	PATT
	 .word	seq_044_0 + 0x24
	.byte		N06   , An3 , v072
	.byte	W12
	.byte		        An3 , v036
	.byte	W12
	.byte		        An3 , v020
	.byte	W12
	.byte		        An3 , v012
	.byte	W12
	.byte		        Bn3 , v072
	.byte	W12
	.byte		        Bn3 , v036
	.byte	W12
	.byte		        Bn3 , v020
	.byte	W12
	.byte		        Bn3 , v012
	.byte	W12
	.byte	PEND
	.byte	PATT
	 .word	seq_044_0 + 0x24
	.byte	PATT
	 .word	seq_044_0 + 0x33
	.byte	PATT
	 .word	seq_044_0 + 0x24
	.byte	PATT
	 .word	seq_044_0 + 0x52
	.byte	TEMPO , 94/2
	.byte	W96
	.byte	W96
	.byte	W96
	.byte	W96
	.byte	W96
	.byte	TEMPO , 92/2
	.byte	W48
	.byte	TEMPO , 80/2
	.byte	W48
	.byte	TEMPO , 124/2
	.byte	W96
	.byte	W96
	.byte	W96
	.byte	W96
	.byte	W96
	.byte	W96
	.byte	W96
	.byte	W96
	.byte	W96
	.byte	W92
	.byte	W02
	.byte		VOICE , 76
	.byte		VOL   , 113*seq_044_mvl/mxv
	.byte		PAN   , c_v+0
	.byte	W01
	.byte		MOD   , 70
	.byte		LFOS  , 25
	.byte		MODT  , mod_tre
	.byte	W01
	.byte	W96
	.byte	W48
	.byte		N12   , As4 , v096
	.byte	W17
	.byte		N03   , As4 , v108
	.byte	W07
	.byte		N03
	.byte	W07
	.byte		        Gs4 , v088
	.byte	W07
	.byte		        As4 , v108
	.byte	W09
	.byte		N16   , Ds5 , v076
	.byte	W01
	.byte	W44
	.byte	W03
	.byte		N11   , As4 , v096
	.byte	W17
	.byte		N03   , As4 , v100
	.byte	W07
	.byte		        As4 , v108
	.byte	W07
	.byte		N04   , Gs4 , v088
	.byte	W09
	.byte		        As4 , v108
	.byte	W08
	.byte		N16   , Ds4 , v096
	.byte	W01
	.byte	PEND
	.byte	W44
	.byte	W03
	.byte		N11   , As4 , v096
	.byte	W16
	.byte		N03   , As4 , v100
	.byte	W08
	.byte		N03
	.byte	W07
	.byte		N04   , Gs4 , v088
	.byte	W11
	.byte		N03   , Gn4 , v100
	.byte	W07
	.byte	PEND
	.byte		N11   , Ds4 , v108
	.byte	W24
	.byte		        Fn4 
	.byte	W24
	.byte		        Gn4 
	.byte	W24
	.byte		        Gs4 
	.byte	W24
	.byte	PEND
	.byte		N13   , As4 
	.byte	W48
	.byte		N12   , As4 , v096
	.byte	W17
	.byte		N03   , As4 , v108
	.byte	W07
	.byte		N03
	.byte	W07
	.byte		        Gs4 , v088
	.byte	W07
	.byte		        As4 , v108
	.byte	W09
	.byte		N16   , Ds5 , v076
	.byte	W01
	.byte	PATT
	 .word	seq_044_0 + 0xBE
	.byte	PATT
	 .word	seq_044_0 + 0xD7
	.byte	PATT
	 .word	seq_044_0 + 0xEC
	.byte		N13   , As4 , v108
	.byte	W96
	.byte	W96
	.byte	W96
	.byte	W96
	.byte	W96
	.byte	W96
	.byte	W92
	.byte	W02
	.byte		VOICE , 76
	.byte		VOL   , 94*seq_044_mvl/mxv
	.byte		PAN   , c_v+0
	.byte	W01
	.byte		MOD   , 70
	.byte		LFOS  , 25
	.byte		MODT  , mod_tre
	.byte	W01
	.byte	W96
	.byte	W48
	.byte		N12   , As4 , v088
	.byte	W17
	.byte		N03   , As4 , v096
	.byte	W07
	.byte		N03
	.byte	W07
	.byte		        Gs4 , v076
	.byte	W07
	.byte		        As4 , v096
	.byte	W09
	.byte		N16   , Ds5 , v068
	.byte	W01
	.byte	W44
	.byte	W03
	.byte		N11   , As4 , v088
	.byte	W17
	.byte		N03   , As4 , v092
	.byte	W07
	.byte		        As4 , v096
	.byte	W07
	.byte		N04   , Gs4 , v076
	.byte	W09
	.byte		        As4 , v096
	.byte	W08
	.byte		N16   , Ds4 , v088
	.byte	W01
	.byte	PEND
	.byte	W44
	.byte	W03
	.byte		N11   , As4 , v088
	.byte	W16
	.byte		N03   , As4 , v092
	.byte	W08
	.byte		N03
	.byte	W07
	.byte		N04   , Gs4 , v076
	.byte	W11
	.byte		N03   , Gn4 , v092
	.byte	W07
	.byte	PEND
	.byte		N11   , Ds4 , v096
	.byte	W24
	.byte		        Fn4 
	.byte	W24
	.byte		        Gn4 
	.byte	W24
	.byte		        Gs4 
	.byte	W24
	.byte	PEND
	.byte		N13   , As4 
	.byte	W48
	.byte		N12   , As4 , v088
	.byte	W17
	.byte		N03   , As4 , v096
	.byte	W07
	.byte		N03
	.byte	W07
	.byte		        Gs4 , v076
	.byte	W07
	.byte		        As4 , v096
	.byte	W09
	.byte		N16   , Ds5 , v068
	.byte	W01
	.byte	PATT
	 .word	seq_044_0 + 0x14C
	.byte	PATT
	 .word	seq_044_0 + 0x165
	.byte	PATT
	 .word	seq_044_0 + 0x17A
	.byte		N13   , As4 , v096
	.byte	W96
	.byte	W96
	.byte	W96
	.byte	W96
	.byte	W96
	.byte	W96
	.byte	W92
	.byte	W02
	.byte		VOICE , 51
	.byte		VOL   , 75*seq_044_mvl/mxv
	.byte		PAN   , c_v-10
	.byte	W01
	.byte		MOD   , 70
	.byte		LFOS  , 25
	.byte		MODT  , mod_tre
	.byte	W01
	.byte	W92
	.byte	W03
	.byte		VOL   , 75*seq_044_mvl/mxv
	.byte	W01
	.byte	PEND
	.byte		N24   , Cs3 , v060
	.byte	W24
	.byte		        As3 , v048
	.byte	W24
	.byte		        Gs3 , v072
	.byte	W01
	.byte		VOL   , 65*seq_044_mvl/mxv
	.byte	W07
	.byte		        61*seq_044_mvl/mxv
	.byte	W05
	.byte		        57*seq_044_mvl/mxv
	.byte	W06
	.byte		        53*seq_044_mvl/mxv
	.byte	W05
	.byte		N24   , Cs4 
	.byte	W02
	.byte		VOL   , 48*seq_044_mvl/mxv
	.byte	W05
	.byte		        45*seq_044_mvl/mxv
	.byte	W06
	.byte		        42*seq_044_mvl/mxv
	.byte	W05
	.byte		        38*seq_044_mvl/mxv
	.byte	W06
	.byte	PEND
	.byte		TIE   , As3 , v080
	.byte	W01
	.byte		VOL   , 37*seq_044_mvl/mxv
	.byte	W06
	.byte		        38*seq_044_mvl/mxv
	.byte	W05
	.byte		        39*seq_044_mvl/mxv
	.byte	W05
	.byte		        39*seq_044_mvl/mxv
	.byte	W06
	.byte		        41*seq_044_mvl/mxv
	.byte	W05
	.byte		        41*seq_044_mvl/mxv
	.byte	W05
	.byte		        42*seq_044_mvl/mxv
	.byte	W05
	.byte		        43*seq_044_mvl/mxv
	.byte	W06
	.byte		        44*seq_044_mvl/mxv
	.byte	W05
	.byte		        45*seq_044_mvl/mxv
	.byte	W05
	.byte		        46*seq_044_mvl/mxv
	.byte	W06
	.byte		        47*seq_044_mvl/mxv
	.byte	W05
	.byte		        48*seq_044_mvl/mxv
	.byte	W05
	.byte		        50*seq_044_mvl/mxv
	.byte	W05
	.byte		        51*seq_044_mvl/mxv
	.byte	W06
	.byte		        55*seq_044_mvl/mxv
	.byte	W05
	.byte		        58*seq_044_mvl/mxv
	.byte	W05
	.byte		        61*seq_044_mvl/mxv
	.byte	W05
	.byte	PEND
	.byte		VOL   , 64*seq_044_mvl/mxv
	.byte	W06
	.byte		        68*seq_044_mvl/mxv
	.byte	W05
	.byte		        70*seq_044_mvl/mxv
	.byte	W05
	.byte		        73*seq_044_mvl/mxv
	.byte	W06
	.byte		        71*seq_044_mvl/mxv
	.byte	W05
	.byte		        69*seq_044_mvl/mxv
	.byte	W05
	.byte		        68*seq_044_mvl/mxv
	.byte	W05
	.byte		        66*seq_044_mvl/mxv
	.byte	W06
	.byte		        64*seq_044_mvl/mxv
	.byte	W05
	.byte		        59*seq_044_mvl/mxv
	.byte	W05
	.byte		        53*seq_044_mvl/mxv
	.byte	W06
	.byte		        46*seq_044_mvl/mxv
	.byte	W05
	.byte		        40*seq_044_mvl/mxv
	.byte	W05
	.byte		        34*seq_044_mvl/mxv
	.byte	W05
	.byte		        28*seq_044_mvl/mxv
	.byte	W06
	.byte		        20*seq_044_mvl/mxv
	.byte	W05
	.byte		        15*seq_044_mvl/mxv
	.byte	W05
	.byte		        8*seq_044_mvl/mxv
	.byte	W06
	.byte	PEND
	.byte		EOT   , As3 
	.byte	PATT
	 .word	seq_044_0 + 0x1C4
	.byte	PATT
	 .word	seq_044_0 + 0x1CA
	.byte	PATT
	 .word	seq_044_0 + 0x1EA
	.byte	PATT
	 .word	seq_044_0 + 0x214
	.byte		EOT   , As3 
	.byte	W96
	.byte	W96
	.byte	W96
	.byte	W96
	.byte	W96
	.byte	W96
	.byte	W96
	.byte	W96
	.byte	W96
	.byte	W96
	.byte	W96
	.byte	W96
	.byte	W96
	.byte	W96
	.byte	GOTO
	 .word	seq_044_0 + 0x125
	.byte W96, W96, W96, W96, W96, W96, W96, W96, W96, W96, W96, W96
	.byte TEMPO, 80 / 2
	.byte	FINE

@*********************** Track 02 ***********************@

seq_044_1:
	.byte	KEYSH , seq_044_key+0
	.byte	W02
	.byte		VOICE , 118
	.byte		VOL   , 54*seq_044_mvl/mxv
	.byte		PAN   , c_v+0
	.byte	W01
	.byte		MOD   , 60
	.byte		LFOS  , 25
	.byte		MODT  , mod_tre
	.byte	W32
	.byte	W01
	.byte	W96
	.byte	W96
	.byte	W96
	.byte	W96
	.byte	W96
	.byte	W96
	.byte	W96
	.byte	W96
	.byte	W96
	.byte	W96
	.byte	W96
	.byte	W96
	.byte	W96
	.byte	W96
	.byte	W96
	.byte	W96
	.byte	W96
	.byte	W96
	.byte	W96
	.byte		VOICE , 118
	.byte		VOL   , 120*seq_044_mvl/mxv
	.byte		PAN   , c_v+0
	.byte	W01
	.byte		MOD   , 55
	.byte		LFOS  , 30
	.byte		MODT  , mod_tre
	.byte	W92
	.byte	W03
	.byte	W96
	.byte		N18   , Ds3 , v112
	.byte		N18   , Fs3 , v120
	.byte	W24
	.byte		        Fs3 , v112
	.byte		N18   , As3 , v120
	.byte	W24
	.byte		        Fn3 , v112
	.byte		N18   , Gs3 , v120
	.byte	W24
	.byte		        Gs3 , v112
	.byte		N18   , Cs4 , v120
	.byte	W23
	.byte		VOICE , 72
	.byte		VOL   , 113*seq_044_mvl/mxv
	.byte	W01
	.byte		TIE   , As3 , v100
	.byte	W96
	.byte	W96
	.byte		EOT
	.byte	W96
	.byte		N18   , Fn3 , v120
	.byte	W24
	.byte		        As3 
	.byte	W24
	.byte		        Gs3 
	.byte	W24
	.byte		        Cs4 
	.byte	W24
	.byte		N30   , As3 , v127
	.byte	W40
	.byte	W01
	.byte		N07   , Gn3 , v120
	.byte	W06
	.byte		N15   , Gs3 , v116
	.byte	W15
	.byte		N03   , Gn3 , v052
	.byte	W03
	.byte		N05   , Gs3 , v068
	.byte	W03
	.byte		N04   , Gn3 , v052
	.byte	W03
	.byte		N15   , Fn3 , v092
	.byte	W24
	.byte	W01
	.byte	PEND
	.byte		N30   , Gn3 , v127
	.byte	W40
	.byte	W01
	.byte		N07   , Ds3 
	.byte	W06
	.byte		N15   , Fn3 , v116
	.byte	W15
	.byte		N03   , Ds3 , v052
	.byte	W03
	.byte		N05   , Fn3 , v068
	.byte	W03
	.byte		N04   , Ds3 , v052
	.byte	W03
	.byte		N15   , Cs3 , v092
	.byte	W24
	.byte	W01
	.byte	PEND
	.byte		N96   , Ds3 , v120
	.byte	W07
	.byte		VOL   , 76*seq_044_mvl/mxv
	.byte	W02
	.byte		        76*seq_044_mvl/mxv
	.byte	W02
	.byte		        78*seq_044_mvl/mxv
	.byte	W02
	.byte		        81*seq_044_mvl/mxv
	.byte	W02
	.byte		        84*seq_044_mvl/mxv
	.byte	W02
	.byte		        85*seq_044_mvl/mxv
	.byte	W02
	.byte		        88*seq_044_mvl/mxv
	.byte	W02
	.byte		        91*seq_044_mvl/mxv
	.byte	W01
	.byte		        92*seq_044_mvl/mxv
	.byte	W02
	.byte		        95*seq_044_mvl/mxv
	.byte	W02
	.byte		        97*seq_044_mvl/mxv
	.byte	W02
	.byte		        100*seq_044_mvl/mxv
	.byte	W02
	.byte		        102*seq_044_mvl/mxv
	.byte	W02
	.byte		        104*seq_044_mvl/mxv
	.byte	W02
	.byte		        107*seq_044_mvl/mxv
	.byte	W02
	.byte		        110*seq_044_mvl/mxv
	.byte	W02
	.byte		        112*seq_044_mvl/mxv
	.byte	W02
	.byte		        115*seq_044_mvl/mxv
	.byte	W02
	.byte		        118*seq_044_mvl/mxv
	.byte	W02
	.byte		        117*seq_044_mvl/mxv
	.byte	W02
	.byte		        114*seq_044_mvl/mxv
	.byte	W02
	.byte		        110*seq_044_mvl/mxv
	.byte	W02
	.byte		        106*seq_044_mvl/mxv
	.byte	W02
	.byte		        102*seq_044_mvl/mxv
	.byte	W04
	.byte		        95*seq_044_mvl/mxv
	.byte	W02
	.byte		        91*seq_044_mvl/mxv
	.byte	W02
	.byte		        87*seq_044_mvl/mxv
	.byte	W02
	.byte		        84*seq_044_mvl/mxv
	.byte	W02
	.byte		        78*seq_044_mvl/mxv
	.byte	W02
	.byte		        72*seq_044_mvl/mxv
	.byte	W02
	.byte		        67*seq_044_mvl/mxv
	.byte	W02
	.byte		        61*seq_044_mvl/mxv
	.byte	W02
	.byte		        55*seq_044_mvl/mxv
	.byte	W02
	.byte		        49*seq_044_mvl/mxv
	.byte	W02
	.byte		        43*seq_044_mvl/mxv
	.byte	W03
	.byte		        34*seq_044_mvl/mxv
	.byte	W16
	.byte		VOICE , 72
	.byte		VOL   , 113*seq_044_mvl/mxv
	.byte	W01
	.byte	PEND
	.byte		N18   , Ds3 , v120
	.byte	W24
	.byte		        As3 
	.byte	W24
	.byte		        Gs3 
	.byte	W24
	.byte		        Cs4 
	.byte	W24
	.byte	PEND
	.byte	PATT
	 .word	seq_044_1 + 0x64
	.byte	PATT
	 .word	seq_044_1 + 0x83
	.byte		N96   , Ds3 , v120
	.byte	W07
	.byte		VOL   , 76*seq_044_mvl/mxv
	.byte	W02
	.byte		        76*seq_044_mvl/mxv
	.byte	W02
	.byte		        78*seq_044_mvl/mxv
	.byte	W02
	.byte		        81*seq_044_mvl/mxv
	.byte	W02
	.byte		        84*seq_044_mvl/mxv
	.byte	W02
	.byte		        85*seq_044_mvl/mxv
	.byte	W02
	.byte		        88*seq_044_mvl/mxv
	.byte	W02
	.byte		        91*seq_044_mvl/mxv
	.byte	W01
	.byte		        92*seq_044_mvl/mxv
	.byte	W02
	.byte		        95*seq_044_mvl/mxv
	.byte	W02
	.byte		        97*seq_044_mvl/mxv
	.byte	W02
	.byte		        100*seq_044_mvl/mxv
	.byte	W02
	.byte		        102*seq_044_mvl/mxv
	.byte	W02
	.byte		        104*seq_044_mvl/mxv
	.byte	W02
	.byte		        107*seq_044_mvl/mxv
	.byte	W02
	.byte		        110*seq_044_mvl/mxv
	.byte	W02
	.byte		        112*seq_044_mvl/mxv
	.byte	W02
	.byte		        115*seq_044_mvl/mxv
	.byte	W02
	.byte		        118*seq_044_mvl/mxv
	.byte	W02
	.byte		        117*seq_044_mvl/mxv
	.byte	W02
	.byte		        114*seq_044_mvl/mxv
	.byte	W02
	.byte		        110*seq_044_mvl/mxv
	.byte	W02
	.byte		        106*seq_044_mvl/mxv
	.byte	W02
	.byte		        102*seq_044_mvl/mxv
	.byte	W04
	.byte		        95*seq_044_mvl/mxv
	.byte	W02
	.byte		        91*seq_044_mvl/mxv
	.byte	W02
	.byte		        87*seq_044_mvl/mxv
	.byte	W02
	.byte		        84*seq_044_mvl/mxv
	.byte	W02
	.byte		        78*seq_044_mvl/mxv
	.byte	W02
	.byte		        72*seq_044_mvl/mxv
	.byte	W02
	.byte		        67*seq_044_mvl/mxv
	.byte	W02
	.byte		        61*seq_044_mvl/mxv
	.byte	W02
	.byte		        55*seq_044_mvl/mxv
	.byte	W02
	.byte		        49*seq_044_mvl/mxv
	.byte	W02
	.byte		        43*seq_044_mvl/mxv
	.byte	W03
	.byte		        34*seq_044_mvl/mxv
	.byte	W17
	.byte	PEND
	.byte	W96
	.byte	W96
	.byte	W96
	.byte	W96
	.byte	W96
	.byte	W96
	.byte	W96
	.byte	W92
	.byte	W03
	.byte		VOICE , 72
	.byte		VOL   , 113*seq_044_mvl/mxv
	.byte	W01
	.byte	PEND
	.byte	PATT
	 .word	seq_044_1 + 0xF4
	.byte	PATT
	 .word	seq_044_1 + 0x64
	.byte	PATT
	 .word	seq_044_1 + 0x83
	.byte	PATT
	 .word	seq_044_1 + 0xA1
	.byte	PATT
	 .word	seq_044_1 + 0xF4
	.byte	PATT
	 .word	seq_044_1 + 0x64
	.byte	PATT
	 .word	seq_044_1 + 0x83
	.byte	PATT
	 .word	seq_044_1 + 0x109
	.byte	W96
	.byte	W96
	.byte	W96
	.byte	W96
	.byte	W96
	.byte	W96
	.byte	W60
	.byte		VOICE , 14
	.byte		VOL   , 94*seq_044_mvl/mxv
	.byte		PAN   , c_v+0
	.byte	W01
	.byte		MOD   , 70
	.byte		LFOS  , 32
	.byte		MODT  , mod_pan
	.byte	W32
	.byte	W03
	.byte	W96
	.byte	W96
	.byte	W48
	.byte		N06   , Gs3 , v072
	.byte	W12
	.byte		        Gs3 , v036
	.byte	W12
	.byte		        Gs3 , v020
	.byte	W12
	.byte		        Gs3 , v012
	.byte	W12
	.byte	PEND
	.byte		N06   , As3 , v072
	.byte	W12
	.byte		        As3 , v036
	.byte	W12
	.byte		        As3 , v020
	.byte	W12
	.byte		        As3 , v012
	.byte	W12
	.byte		        Ds4 , v072
	.byte	W12
	.byte		        Ds4 , v036
	.byte	W12
	.byte		        Ds4 , v020
	.byte	W12
	.byte		        Ds4 , v012
	.byte	W12
	.byte	PEND
	.byte	PATT
	 .word	seq_044_1 + 0x1A6
	.byte		N06   , As3 , v072
	.byte	W12
	.byte		        As3 , v036
	.byte	W12
	.byte		        As3 , v020
	.byte	W12
	.byte		        As3 , v012
	.byte	W12
	.byte		        Cs4 , v072
	.byte	W12
	.byte		        Cs4 , v036
	.byte	W12
	.byte		        Cs4 , v020
	.byte	W12
	.byte		        Cs4 , v012
	.byte	W12
	.byte	PEND
	.byte	PATT
	 .word	seq_044_1 + 0x1A6
	.byte	PATT
	 .word	seq_044_1 + 0x1B5
	.byte	PATT
	 .word	seq_044_1 + 0x1A6
	.byte	PATT
	 .word	seq_044_1 + 0x1D4
	.byte	W96
	.byte	W96
	.byte	W96
	.byte	W96
	.byte	W96
	.byte	W12
	.byte		VOICE , 72
	.byte		VOL   , 113*seq_044_mvl/mxv
	.byte		PAN   , c_v+0
	.byte	W01
	.byte		MOD   , 55
	.byte		LFOS  , 30
	.byte		MODT  , mod_tre
	.byte	W80
	.byte	W03
	.byte	W96
	.byte		N18   , Cs3 , v112
	.byte	W24
	.byte		        As3 
	.byte	W24
	.byte		        Gs3 
	.byte	W24
	.byte		        Cs4 
	.byte	W24
	.byte	PEND
	.byte		TIE   , As3 , v112
	.byte	W01
	.byte		VOL   , 84*seq_044_mvl/mxv
	.byte	W06
	.byte		        85*seq_044_mvl/mxv
	.byte	W05
	.byte		        85*seq_044_mvl/mxv
	.byte	W05
	.byte		        85*seq_044_mvl/mxv
	.byte	W06
	.byte		        87*seq_044_mvl/mxv
	.byte	W05
	.byte		        87*seq_044_mvl/mxv
	.byte	W05
	.byte		        88*seq_044_mvl/mxv
	.byte	W05
	.byte		        89*seq_044_mvl/mxv
	.byte	W06
	.byte		        90*seq_044_mvl/mxv
	.byte	W05
	.byte		        91*seq_044_mvl/mxv
	.byte	W05
	.byte		        92*seq_044_mvl/mxv
	.byte	W06
	.byte		        93*seq_044_mvl/mxv
	.byte	W05
	.byte		        94*seq_044_mvl/mxv
	.byte	W05
	.byte		        96*seq_044_mvl/mxv
	.byte	W05
	.byte		        98*seq_044_mvl/mxv
	.byte	W06
	.byte		        102*seq_044_mvl/mxv
	.byte	W05
	.byte		        104*seq_044_mvl/mxv
	.byte	W05
	.byte		        107*seq_044_mvl/mxv
	.byte	W05
	.byte	PEND
	.byte		VOL   , 110*seq_044_mvl/mxv
	.byte	W06
	.byte		        114*seq_044_mvl/mxv
	.byte	W05
	.byte		        117*seq_044_mvl/mxv
	.byte	W05
	.byte		        120*seq_044_mvl/mxv
	.byte	W06
	.byte		        118*seq_044_mvl/mxv
	.byte	W05
	.byte		        116*seq_044_mvl/mxv
	.byte	W05
	.byte		        114*seq_044_mvl/mxv
	.byte	W05
	.byte		        112*seq_044_mvl/mxv
	.byte	W06
	.byte		        110*seq_044_mvl/mxv
	.byte	W05
	.byte		        105*seq_044_mvl/mxv
	.byte	W05
	.byte		        100*seq_044_mvl/mxv
	.byte	W06
	.byte		        92*seq_044_mvl/mxv
	.byte	W05
	.byte		        86*seq_044_mvl/mxv
	.byte	W05
	.byte		        80*seq_044_mvl/mxv
	.byte	W05
	.byte		        74*seq_044_mvl/mxv
	.byte	W06
	.byte		        67*seq_044_mvl/mxv
	.byte	W05
	.byte		        61*seq_044_mvl/mxv
	.byte	W05
	.byte		        54*seq_044_mvl/mxv
	.byte	W06
	.byte	PEND
	.byte		EOT   , As3 
	.byte	W96
	.byte	PATT
	 .word	seq_044_1 + 0x218
	.byte	PATT
	 .word	seq_044_1 + 0x223
	.byte	PATT
	 .word	seq_044_1 + 0x24D
	.byte		EOT   , As3 
	.byte	PATT
	 .word	seq_044_1 + 0x15E
	.byte	PATT
	 .word	seq_044_1 + 0xF4
	.byte	PATT
	 .word	seq_044_1 + 0x64
	.byte	PATT
	 .word	seq_044_1 + 0x83
	.byte		N96   , Ds3 , v120
	.byte	W07
	.byte		VOL   , 76*seq_044_mvl/mxv
	.byte	W02
	.byte		        76*seq_044_mvl/mxv
	.byte	W02
	.byte		        78*seq_044_mvl/mxv
	.byte	W02
	.byte		        81*seq_044_mvl/mxv
	.byte	W02
	.byte		        84*seq_044_mvl/mxv
	.byte	W02
	.byte		        85*seq_044_mvl/mxv
	.byte	W02
	.byte		        88*seq_044_mvl/mxv
	.byte	W02
	.byte		        91*seq_044_mvl/mxv
	.byte	W01
	.byte		        92*seq_044_mvl/mxv
	.byte	W02
	.byte		        95*seq_044_mvl/mxv
	.byte	W02
	.byte		        97*seq_044_mvl/mxv
	.byte	W02
	.byte		        100*seq_044_mvl/mxv
	.byte	W02
	.byte		        102*seq_044_mvl/mxv
	.byte	W02
	.byte		        104*seq_044_mvl/mxv
	.byte	W02
	.byte		        107*seq_044_mvl/mxv
	.byte	W02
	.byte		        110*seq_044_mvl/mxv
	.byte	W02
	.byte		        112*seq_044_mvl/mxv
	.byte	W02
	.byte		        115*seq_044_mvl/mxv
	.byte	W02
	.byte		        118*seq_044_mvl/mxv
	.byte	W02
	.byte		        117*seq_044_mvl/mxv
	.byte	W02
	.byte		        114*seq_044_mvl/mxv
	.byte	W02
	.byte		        110*seq_044_mvl/mxv
	.byte	W02
	.byte		        106*seq_044_mvl/mxv
	.byte	W02
	.byte		        102*seq_044_mvl/mxv
	.byte	W04
	.byte		        95*seq_044_mvl/mxv
	.byte	W02
	.byte		        91*seq_044_mvl/mxv
	.byte	W02
	.byte		        87*seq_044_mvl/mxv
	.byte	W02
	.byte		        84*seq_044_mvl/mxv
	.byte	W02
	.byte		        78*seq_044_mvl/mxv
	.byte	W02
	.byte		        72*seq_044_mvl/mxv
	.byte	W02
	.byte		        67*seq_044_mvl/mxv
	.byte	W02
	.byte		        61*seq_044_mvl/mxv
	.byte	W02
	.byte		        55*seq_044_mvl/mxv
	.byte	W02
	.byte		        49*seq_044_mvl/mxv
	.byte	W02
	.byte		        43*seq_044_mvl/mxv
	.byte	W03
	.byte		        34*seq_044_mvl/mxv
	.byte	W16
	.byte		        120*seq_044_mvl/mxv
	.byte	W01
	.byte		N18   , Ds3 , v127
	.byte	W24
	.byte		        As3 
	.byte	W24
	.byte		        Gs3 
	.byte	W24
	.byte		        Cs4 
	.byte	W24
	.byte	GOTO
	 .word	seq_044_1 + 0x17F
	.byte W96, W96, W96, W96, W96, W96, W96, W96, W96, W96, W96, W96
	.byte	FINE

@*********************** Track 03 ***********************@

seq_044_2:
	.byte	KEYSH , seq_044_key+0
	.byte	W04
	.byte		VOICE , 51
	.byte		MOD   , 0
	.byte		LFOS  , 26
	.byte	W01
	.byte		VOL   , 67*seq_044_mvl/mxv
	.byte		PAN   , c_v+0
	.byte		MODT  , mod_vib
	.byte	W30
	.byte	W01
	.byte	W96
	.byte	W96
	.byte	W96
	.byte	W96
	.byte	W96
	.byte	W96
	.byte	W96
	.byte	W07
	.byte		VOICE , 51
	.byte		PAN   , c_v+0
	.byte	W01
	.byte		MOD   , 60
	.byte		MODT  , mod_pan
	.byte	W84
	.byte	W03
	.byte		VOL   , 22*seq_044_mvl/mxv
	.byte	W01
	.byte		N04   , Dn4 , v056
	.byte	W02
	.byte		VOL   , 27*seq_044_mvl/mxv
	.byte	W02
	.byte		        30*seq_044_mvl/mxv
	.byte	W02
	.byte		        35*seq_044_mvl/mxv
	.byte	W02
	.byte		        41*seq_044_mvl/mxv
	.byte		N04   , Gn3 , v020
	.byte	W03
	.byte		VOL   , 50*seq_044_mvl/mxv
	.byte	W02
	.byte		        55*seq_044_mvl/mxv
	.byte	W02
	.byte		        61*seq_044_mvl/mxv
	.byte	W01
	.byte		N04   , An3 , v040
	.byte	W01
	.byte		VOL   , 67*seq_044_mvl/mxv
	.byte	W02
	.byte		        72*seq_044_mvl/mxv
	.byte	W02
	.byte		        71*seq_044_mvl/mxv
	.byte	W02
	.byte		        75*seq_044_mvl/mxv
	.byte	W01
	.byte		N04   , Dn4 , v056
	.byte	W01
	.byte		VOL   , 78*seq_044_mvl/mxv
	.byte	W04
	.byte		        84*seq_044_mvl/mxv
	.byte	W02
	.byte		        86*seq_044_mvl/mxv
	.byte	W01
	.byte		N04   , Gn3 , v020
	.byte	W01
	.byte		VOL   , 89*seq_044_mvl/mxv
	.byte	W02
	.byte		        93*seq_044_mvl/mxv
	.byte	W02
	.byte		        95*seq_044_mvl/mxv
	.byte	W03
	.byte		N04   , An3 , v040
	.byte	W08
	.byte		        Dn4 , v056
	.byte	W08
	.byte		        Gn3 , v020
	.byte	W08
	.byte		        An3 , v040
	.byte	W08
	.byte		        Dn4 , v056
	.byte	W08
	.byte		        Gn3 , v020
	.byte	W08
	.byte		        An3 , v040
	.byte	W08
	.byte		N04   , Dn4 , v056
	.byte	W08
	.byte		        Gn3 , v020
	.byte	W01
	.byte		VOL   , 95*seq_044_mvl/mxv
	.byte	W02
	.byte		        94*seq_044_mvl/mxv
	.byte	W02
	.byte		        93*seq_044_mvl/mxv
	.byte	W02
	.byte		        92*seq_044_mvl/mxv
	.byte	W01
	.byte		N04   , An3 , v040
	.byte	W01
	.byte		VOL   , 91*seq_044_mvl/mxv
	.byte	W02
	.byte		        90*seq_044_mvl/mxv
	.byte	W02
	.byte		        89*seq_044_mvl/mxv
	.byte	W02
	.byte		        88*seq_044_mvl/mxv
	.byte	W01
	.byte		        87*seq_044_mvl/mxv
	.byte		N04   , Dn4 , v056
	.byte	W02
	.byte		VOL   , 86*seq_044_mvl/mxv
	.byte	W02
	.byte		        85*seq_044_mvl/mxv
	.byte	W02
	.byte		        82*seq_044_mvl/mxv
	.byte	W02
	.byte		        81*seq_044_mvl/mxv
	.byte		N04   , Gn3 , v020
	.byte	W02
	.byte		VOL   , 79*seq_044_mvl/mxv
	.byte	W02
	.byte		        77*seq_044_mvl/mxv
	.byte	W02
	.byte		        75*seq_044_mvl/mxv
	.byte	W01
	.byte		        75*seq_044_mvl/mxv
	.byte	W01
	.byte		N04   , An3 , v040
	.byte	W01
	.byte		VOL   , 73*seq_044_mvl/mxv
	.byte	W02
	.byte		        71*seq_044_mvl/mxv
	.byte	W02
	.byte		        69*seq_044_mvl/mxv
	.byte	W02
	.byte		        68*seq_044_mvl/mxv
	.byte	W01
	.byte		N04   , Dn4 , v056
	.byte	W01
	.byte		VOL   , 67*seq_044_mvl/mxv
	.byte	W02
	.byte		        65*seq_044_mvl/mxv
	.byte	W02
	.byte		        61*seq_044_mvl/mxv
	.byte	W01
	.byte		        59*seq_044_mvl/mxv
	.byte	W02
	.byte		        56*seq_044_mvl/mxv
	.byte		N04   , Gn3 , v020
	.byte	W02
	.byte		VOL   , 52*seq_044_mvl/mxv
	.byte	W02
	.byte		        50*seq_044_mvl/mxv
	.byte	W02
	.byte		        47*seq_044_mvl/mxv
	.byte	W02
	.byte		        43*seq_044_mvl/mxv
	.byte		N04   , An3 , v040
	.byte	W02
	.byte		VOL   , 40*seq_044_mvl/mxv
	.byte	W02
	.byte		        35*seq_044_mvl/mxv
	.byte	W01
	.byte		        34*seq_044_mvl/mxv
	.byte	W02
	.byte		        29*seq_044_mvl/mxv
	.byte	W01
	.byte		N04   , Dn4 , v056
	.byte	W01
	.byte		VOL   , 24*seq_044_mvl/mxv
	.byte	W02
	.byte		        20*seq_044_mvl/mxv
	.byte	W02
	.byte		        16*seq_044_mvl/mxv
	.byte	W02
	.byte		        11*seq_044_mvl/mxv
	.byte	W01
	.byte		N04   , Gn3 , v020
	.byte	W01
	.byte		VOL   , 7*seq_044_mvl/mxv
	.byte	W07
	.byte		N04   , An3 , v040
	.byte	W07
	.byte		VOL   , 0*seq_044_mvl/mxv
	.byte	W01
	.byte	PEND
	.byte		N04   , Dn4 , v056
	.byte	W02
	.byte		VOL   , 4*seq_044_mvl/mxv
	.byte	W02
	.byte		        10*seq_044_mvl/mxv
	.byte	W02
	.byte		        15*seq_044_mvl/mxv
	.byte	W02
	.byte		        20*seq_044_mvl/mxv
	.byte		N04   , Gn3 , v020
	.byte	W03
	.byte		VOL   , 28*seq_044_mvl/mxv
	.byte	W02
	.byte		        33*seq_044_mvl/mxv
	.byte	W02
	.byte		        38*seq_044_mvl/mxv
	.byte	W01
	.byte		N04   , An3 , v040
	.byte	W01
	.byte		VOL   , 43*seq_044_mvl/mxv
	.byte	W02
	.byte		        49*seq_044_mvl/mxv
	.byte	W02
	.byte		        53*seq_044_mvl/mxv
	.byte	W02
	.byte		        59*seq_044_mvl/mxv
	.byte	W01
	.byte		N04   , Dn4 , v056
	.byte	W01
	.byte		VOL   , 64*seq_044_mvl/mxv
	.byte	W04
	.byte		        74*seq_044_mvl/mxv
	.byte	W02
	.byte		        80*seq_044_mvl/mxv
	.byte	W01
	.byte		N04   , Gn3 , v020
	.byte	W01
	.byte		VOL   , 85*seq_044_mvl/mxv
	.byte	W02
	.byte		        90*seq_044_mvl/mxv
	.byte	W02
	.byte		        95*seq_044_mvl/mxv
	.byte	W03
	.byte		N04   , An3 , v040
	.byte	W08
	.byte		        Dn4 , v056
	.byte	W08
	.byte		        Gn3 , v020
	.byte	W08
	.byte		        An3 , v040
	.byte	W08
	.byte		        Dn4 , v056
	.byte	W08
	.byte		        Gn3 , v020
	.byte	W08
	.byte		        An3 , v040
	.byte	W08
	.byte	PEND
	.byte	PATT
	 .word	seq_044_2 + 0x78
	.byte	PATT
	 .word	seq_044_2 + 0xFF
	.byte	PATT
	 .word	seq_044_2 + 0x78
	.byte	PATT
	 .word	seq_044_2 + 0xFF
	.byte		N04   , Dn4 , v056
	.byte	W08
	.byte		        Gn3 , v020
	.byte	W01
	.byte		VOL   , 95*seq_044_mvl/mxv
	.byte	W02
	.byte		        94*seq_044_mvl/mxv
	.byte	W02
	.byte		        93*seq_044_mvl/mxv
	.byte	W02
	.byte		        92*seq_044_mvl/mxv
	.byte	W01
	.byte		N04   , An3 , v040
	.byte	W01
	.byte		VOL   , 91*seq_044_mvl/mxv
	.byte	W02
	.byte		        90*seq_044_mvl/mxv
	.byte	W02
	.byte		        89*seq_044_mvl/mxv
	.byte	W02
	.byte		        88*seq_044_mvl/mxv
	.byte	W01
	.byte		        87*seq_044_mvl/mxv
	.byte		N04   , Dn4 , v056
	.byte	W02
	.byte		VOL   , 86*seq_044_mvl/mxv
	.byte	W02
	.byte		        85*seq_044_mvl/mxv
	.byte	W02
	.byte		        82*seq_044_mvl/mxv
	.byte	W02
	.byte		        81*seq_044_mvl/mxv
	.byte		N04   , Gn3 , v020
	.byte	W02
	.byte		VOL   , 79*seq_044_mvl/mxv
	.byte	W02
	.byte		        77*seq_044_mvl/mxv
	.byte	W02
	.byte		        75*seq_044_mvl/mxv
	.byte	W01
	.byte		        75*seq_044_mvl/mxv
	.byte	W01
	.byte		N04   , An3 , v040
	.byte	W01
	.byte		VOL   , 73*seq_044_mvl/mxv
	.byte	W02
	.byte		        71*seq_044_mvl/mxv
	.byte	W02
	.byte		        69*seq_044_mvl/mxv
	.byte	W02
	.byte		        68*seq_044_mvl/mxv
	.byte	W01
	.byte		N04   , Dn4 , v056
	.byte	W01
	.byte		VOL   , 67*seq_044_mvl/mxv
	.byte	W02
	.byte		        65*seq_044_mvl/mxv
	.byte	W02
	.byte		        61*seq_044_mvl/mxv
	.byte	W01
	.byte		        59*seq_044_mvl/mxv
	.byte	W02
	.byte		        56*seq_044_mvl/mxv
	.byte		N04   , Gn3 , v020
	.byte	W02
	.byte		VOL   , 52*seq_044_mvl/mxv
	.byte	W02
	.byte		        50*seq_044_mvl/mxv
	.byte	W02
	.byte		        47*seq_044_mvl/mxv
	.byte	W02
	.byte		        43*seq_044_mvl/mxv
	.byte		N04   , An3 , v040
	.byte	W02
	.byte		VOL   , 40*seq_044_mvl/mxv
	.byte	W02
	.byte		        35*seq_044_mvl/mxv
	.byte	W01
	.byte		        34*seq_044_mvl/mxv
	.byte	W02
	.byte		        29*seq_044_mvl/mxv
	.byte	W01
	.byte		N04   , Dn4 , v056
	.byte	W01
	.byte		VOL   , 24*seq_044_mvl/mxv
	.byte	W02
	.byte		        20*seq_044_mvl/mxv
	.byte	W02
	.byte		        16*seq_044_mvl/mxv
	.byte	W02
	.byte		        11*seq_044_mvl/mxv
	.byte	W01
	.byte		N04   , Gn3 , v020
	.byte	W01
	.byte		VOL   , 7*seq_044_mvl/mxv
	.byte	W07
	.byte		N04   , An3 , v040
	.byte	W07
	.byte		VOICE , 95
	.byte		VOL   , 0*seq_044_mvl/mxv
	.byte	W01
	.byte		N03   , Dn3 , v127
	.byte	W02
	.byte		VOL   , 4*seq_044_mvl/mxv
	.byte	W02
	.byte		        10*seq_044_mvl/mxv
	.byte	W02
	.byte		        15*seq_044_mvl/mxv
	.byte	W02
	.byte		        20*seq_044_mvl/mxv
	.byte		N03   , Gn2 
	.byte	W03
	.byte		VOL   , 28*seq_044_mvl/mxv
	.byte	W02
	.byte		        33*seq_044_mvl/mxv
	.byte	W02
	.byte		        38*seq_044_mvl/mxv
	.byte	W01
	.byte		N03   , An2 
	.byte	W01
	.byte		VOL   , 43*seq_044_mvl/mxv
	.byte	W02
	.byte		        49*seq_044_mvl/mxv
	.byte	W02
	.byte		        53*seq_044_mvl/mxv
	.byte	W02
	.byte		        59*seq_044_mvl/mxv
	.byte	W01
	.byte		N03   , Dn3 
	.byte	W01
	.byte		VOL   , 64*seq_044_mvl/mxv
	.byte	W04
	.byte		        74*seq_044_mvl/mxv
	.byte	W02
	.byte		        80*seq_044_mvl/mxv
	.byte	W01
	.byte		N03   , Gn2 
	.byte	W01
	.byte		VOL   , 85*seq_044_mvl/mxv
	.byte	W02
	.byte		        90*seq_044_mvl/mxv
	.byte	W02
	.byte		        95*seq_044_mvl/mxv
	.byte	W03
	.byte		N03   , An2 
	.byte	W08
	.byte		        Dn3 
	.byte	W08
	.byte		        Gn2 
	.byte	W08
	.byte		        An2 
	.byte	W08
	.byte		        Dn3 
	.byte	W08
	.byte		        Gn2 
	.byte	W08
	.byte		        An2 
	.byte	W08
	.byte		        Dn3 
	.byte	W08
	.byte		        Gn2 
	.byte	W01
	.byte		VOL   , 95*seq_044_mvl/mxv
	.byte	W02
	.byte		        94*seq_044_mvl/mxv
	.byte	W02
	.byte		        93*seq_044_mvl/mxv
	.byte	W02
	.byte		        92*seq_044_mvl/mxv
	.byte	W01
	.byte		N03   , An2 
	.byte	W01
	.byte		VOL   , 91*seq_044_mvl/mxv
	.byte	W02
	.byte		        90*seq_044_mvl/mxv
	.byte	W02
	.byte		        89*seq_044_mvl/mxv
	.byte	W02
	.byte		        88*seq_044_mvl/mxv
	.byte	W01
	.byte		        87*seq_044_mvl/mxv
	.byte		N03   , Dn3 
	.byte	W02
	.byte		VOL   , 86*seq_044_mvl/mxv
	.byte	W02
	.byte		        85*seq_044_mvl/mxv
	.byte	W02
	.byte		        82*seq_044_mvl/mxv
	.byte	W02
	.byte		        81*seq_044_mvl/mxv
	.byte		N03   , Gn2 
	.byte	W02
	.byte		VOL   , 79*seq_044_mvl/mxv
	.byte	W02
	.byte		        77*seq_044_mvl/mxv
	.byte	W02
	.byte		        75*seq_044_mvl/mxv
	.byte	W01
	.byte		        75*seq_044_mvl/mxv
	.byte	W01
	.byte		N03   , An2 
	.byte	W01
	.byte		VOL   , 73*seq_044_mvl/mxv
	.byte	W02
	.byte		        71*seq_044_mvl/mxv
	.byte	W02
	.byte		        69*seq_044_mvl/mxv
	.byte	W02
	.byte		        68*seq_044_mvl/mxv
	.byte	W01
	.byte		N03   , Dn3 
	.byte	W01
	.byte		VOL   , 67*seq_044_mvl/mxv
	.byte	W02
	.byte		        65*seq_044_mvl/mxv
	.byte	W02
	.byte		        61*seq_044_mvl/mxv
	.byte	W01
	.byte		        59*seq_044_mvl/mxv
	.byte	W02
	.byte		        56*seq_044_mvl/mxv
	.byte		N03   , Gn2 
	.byte	W02
	.byte		VOL   , 52*seq_044_mvl/mxv
	.byte	W02
	.byte		        50*seq_044_mvl/mxv
	.byte	W02
	.byte		        47*seq_044_mvl/mxv
	.byte	W02
	.byte		        43*seq_044_mvl/mxv
	.byte		N03   , An2 
	.byte	W02
	.byte		VOL   , 40*seq_044_mvl/mxv
	.byte	W02
	.byte		        35*seq_044_mvl/mxv
	.byte	W01
	.byte		        34*seq_044_mvl/mxv
	.byte	W02
	.byte		        29*seq_044_mvl/mxv
	.byte	W01
	.byte		N03   , Dn3 
	.byte	W01
	.byte		VOL   , 24*seq_044_mvl/mxv
	.byte	W02
	.byte		        20*seq_044_mvl/mxv
	.byte	W02
	.byte		        16*seq_044_mvl/mxv
	.byte	W02
	.byte		        11*seq_044_mvl/mxv
	.byte	W01
	.byte		N03   , Gn2 
	.byte	W01
	.byte		VOL   , 7*seq_044_mvl/mxv
	.byte	W07
	.byte		N03   , An2 
	.byte	W07
	.byte		VOL   , 0*seq_044_mvl/mxv
	.byte	W01
	.byte		N03   , Cn3 
	.byte	W02
	.byte		VOL   , 4*seq_044_mvl/mxv
	.byte	W02
	.byte		        10*seq_044_mvl/mxv
	.byte	W02
	.byte		        15*seq_044_mvl/mxv
	.byte	W02
	.byte		        20*seq_044_mvl/mxv
	.byte		N03   , Fn2 
	.byte	W03
	.byte		VOL   , 28*seq_044_mvl/mxv
	.byte	W02
	.byte		        33*seq_044_mvl/mxv
	.byte	W02
	.byte		        38*seq_044_mvl/mxv
	.byte	W01
	.byte		N03   , Gn2 
	.byte	W01
	.byte		VOL   , 43*seq_044_mvl/mxv
	.byte	W02
	.byte		        49*seq_044_mvl/mxv
	.byte	W02
	.byte		        53*seq_044_mvl/mxv
	.byte	W02
	.byte		        59*seq_044_mvl/mxv
	.byte	W01
	.byte		N03   , Cn3 
	.byte	W01
	.byte		VOL   , 64*seq_044_mvl/mxv
	.byte	W04
	.byte		        74*seq_044_mvl/mxv
	.byte	W02
	.byte		        80*seq_044_mvl/mxv
	.byte	W01
	.byte		N03   , Fn2 
	.byte	W01
	.byte		VOL   , 85*seq_044_mvl/mxv
	.byte	W02
	.byte		        90*seq_044_mvl/mxv
	.byte	W02
	.byte		        95*seq_044_mvl/mxv
	.byte	W03
	.byte		N03   , Gn2 
	.byte	W08
	.byte		        Cn3 
	.byte	W08
	.byte		        Fn2 
	.byte	W08
	.byte		        Gn2 
	.byte	W08
	.byte		        Cn3 
	.byte	W08
	.byte		        Fn2 
	.byte	W08
	.byte		        Gn2 
	.byte	W08
	.byte		        Cn3 
	.byte	W08
	.byte		        Fn2 
	.byte	W01
	.byte		VOL   , 95*seq_044_mvl/mxv
	.byte	W02
	.byte		        94*seq_044_mvl/mxv
	.byte	W02
	.byte		        93*seq_044_mvl/mxv
	.byte	W02
	.byte		        92*seq_044_mvl/mxv
	.byte	W01
	.byte		N03   , Gn2 
	.byte	W01
	.byte		VOL   , 91*seq_044_mvl/mxv
	.byte	W02
	.byte		        90*seq_044_mvl/mxv
	.byte	W02
	.byte		        89*seq_044_mvl/mxv
	.byte	W02
	.byte		        88*seq_044_mvl/mxv
	.byte	W01
	.byte		        87*seq_044_mvl/mxv
	.byte		N03   , Cn3 
	.byte	W02
	.byte		VOL   , 86*seq_044_mvl/mxv
	.byte	W02
	.byte		        85*seq_044_mvl/mxv
	.byte	W02
	.byte		        82*seq_044_mvl/mxv
	.byte	W02
	.byte		        81*seq_044_mvl/mxv
	.byte		N03   , Fn2 
	.byte	W02
	.byte		VOL   , 79*seq_044_mvl/mxv
	.byte	W02
	.byte		        77*seq_044_mvl/mxv
	.byte	W02
	.byte		        75*seq_044_mvl/mxv
	.byte	W01
	.byte		        75*seq_044_mvl/mxv
	.byte	W01
	.byte		N03   , Gn2 
	.byte	W01
	.byte		VOL   , 73*seq_044_mvl/mxv
	.byte	W02
	.byte		        71*seq_044_mvl/mxv
	.byte	W02
	.byte		        69*seq_044_mvl/mxv
	.byte	W02
	.byte		        68*seq_044_mvl/mxv
	.byte	W01
	.byte		N03   , Cn3 
	.byte	W01
	.byte		VOL   , 67*seq_044_mvl/mxv
	.byte	W02
	.byte		        65*seq_044_mvl/mxv
	.byte	W02
	.byte		        61*seq_044_mvl/mxv
	.byte	W01
	.byte		        59*seq_044_mvl/mxv
	.byte	W02
	.byte		        56*seq_044_mvl/mxv
	.byte		N03   , Fn2 
	.byte	W02
	.byte		VOL   , 52*seq_044_mvl/mxv
	.byte	W02
	.byte		        50*seq_044_mvl/mxv
	.byte	W02
	.byte		        47*seq_044_mvl/mxv
	.byte	W02
	.byte		        43*seq_044_mvl/mxv
	.byte		N03   , Gn2 
	.byte	W02
	.byte		VOL   , 40*seq_044_mvl/mxv
	.byte	W02
	.byte		        35*seq_044_mvl/mxv
	.byte	W01
	.byte		        34*seq_044_mvl/mxv
	.byte	W02
	.byte		        29*seq_044_mvl/mxv
	.byte	W01
	.byte		N03   , Cn3 
	.byte	W01
	.byte		VOL   , 24*seq_044_mvl/mxv
	.byte	W02
	.byte		        20*seq_044_mvl/mxv
	.byte	W02
	.byte		        16*seq_044_mvl/mxv
	.byte	W02
	.byte		        11*seq_044_mvl/mxv
	.byte	W01
	.byte		N03   , Fn2 
	.byte	W01
	.byte		VOL   , 7*seq_044_mvl/mxv
	.byte	W07
	.byte		N03   , Gn2 
	.byte	W07
	.byte		VOL   , 0*seq_044_mvl/mxv
	.byte	W01
	.byte		N03   , As2 
	.byte	W02
	.byte		VOL   , 4*seq_044_mvl/mxv
	.byte	W02
	.byte		        10*seq_044_mvl/mxv
	.byte	W02
	.byte		        15*seq_044_mvl/mxv
	.byte	W02
	.byte		        20*seq_044_mvl/mxv
	.byte		N03   , Ds2 
	.byte	W03
	.byte		VOL   , 28*seq_044_mvl/mxv
	.byte	W02
	.byte		        33*seq_044_mvl/mxv
	.byte	W02
	.byte		        38*seq_044_mvl/mxv
	.byte	W01
	.byte		N03   , Fn2 
	.byte	W01
	.byte		VOL   , 43*seq_044_mvl/mxv
	.byte	W02
	.byte		        49*seq_044_mvl/mxv
	.byte	W02
	.byte		        53*seq_044_mvl/mxv
	.byte	W02
	.byte		        59*seq_044_mvl/mxv
	.byte	W01
	.byte		N03   , As2 
	.byte	W01
	.byte		VOL   , 64*seq_044_mvl/mxv
	.byte	W04
	.byte		        74*seq_044_mvl/mxv
	.byte	W02
	.byte		        80*seq_044_mvl/mxv
	.byte	W01
	.byte		N03   , Ds2 
	.byte	W01
	.byte		VOL   , 85*seq_044_mvl/mxv
	.byte	W02
	.byte		        90*seq_044_mvl/mxv
	.byte	W02
	.byte		        95*seq_044_mvl/mxv
	.byte	W03
	.byte		N03   , Fn2 
	.byte	W08
	.byte		        As2 
	.byte	W08
	.byte		        Ds2 
	.byte	W08
	.byte		        Fn2 
	.byte	W08
	.byte		        As2 
	.byte	W08
	.byte		        Ds2 
	.byte	W08
	.byte		        Fn2 
	.byte	W08
	.byte	W09
	.byte		VOL   , 95*seq_044_mvl/mxv
	.byte	W02
	.byte		        94*seq_044_mvl/mxv
	.byte	W02
	.byte		        93*seq_044_mvl/mxv
	.byte	W02
	.byte		        92*seq_044_mvl/mxv
	.byte	W02
	.byte		        91*seq_044_mvl/mxv
	.byte	W02
	.byte		        90*seq_044_mvl/mxv
	.byte	W02
	.byte		        89*seq_044_mvl/mxv
	.byte	W02
	.byte		        88*seq_044_mvl/mxv
	.byte	W01
	.byte		        87*seq_044_mvl/mxv
	.byte	W02
	.byte		        86*seq_044_mvl/mxv
	.byte	W02
	.byte		        85*seq_044_mvl/mxv
	.byte	W02
	.byte		        82*seq_044_mvl/mxv
	.byte	W02
	.byte		        81*seq_044_mvl/mxv
	.byte	W02
	.byte		        79*seq_044_mvl/mxv
	.byte	W02
	.byte		        77*seq_044_mvl/mxv
	.byte	W02
	.byte		        75*seq_044_mvl/mxv
	.byte	W01
	.byte		        75*seq_044_mvl/mxv
	.byte	W02
	.byte		        73*seq_044_mvl/mxv
	.byte	W02
	.byte		        71*seq_044_mvl/mxv
	.byte	W02
	.byte		        69*seq_044_mvl/mxv
	.byte	W02
	.byte		        68*seq_044_mvl/mxv
	.byte	W02
	.byte		        67*seq_044_mvl/mxv
	.byte	W02
	.byte		        65*seq_044_mvl/mxv
	.byte	W02
	.byte		        61*seq_044_mvl/mxv
	.byte	W01
	.byte		        59*seq_044_mvl/mxv
	.byte	W02
	.byte		        56*seq_044_mvl/mxv
	.byte	W02
	.byte		        52*seq_044_mvl/mxv
	.byte	W02
	.byte		        50*seq_044_mvl/mxv
	.byte	W02
	.byte		        47*seq_044_mvl/mxv
	.byte	W02
	.byte		        43*seq_044_mvl/mxv
	.byte	W02
	.byte		        40*seq_044_mvl/mxv
	.byte	W02
	.byte		        35*seq_044_mvl/mxv
	.byte	W01
	.byte		        34*seq_044_mvl/mxv
	.byte	W02
	.byte		        29*seq_044_mvl/mxv
	.byte	W02
	.byte		        24*seq_044_mvl/mxv
	.byte	W02
	.byte		        20*seq_044_mvl/mxv
	.byte	W02
	.byte		        16*seq_044_mvl/mxv
	.byte	W02
	.byte		        11*seq_044_mvl/mxv
	.byte	W02
	.byte		        7*seq_044_mvl/mxv
	.byte	W15
	.byte	W96
	.byte	W96
	.byte	W96
	.byte	W96
	.byte	W96
	.byte	W96
	.byte	W96
	.byte	W96
	.byte	W96
	.byte	W96
	.byte	W96
	.byte	W96
	.byte	W96
	.byte	W96
	.byte	W96
	.byte	W96
	.byte	W96
	.byte	W96
	.byte	W96
	.byte	W96
	.byte	W96
	.byte	W96
	.byte	W96
	.byte	W96
	.byte	W96
	.byte	W96
	.byte	W96
	.byte	W96
	.byte	W96
	.byte	W96
	.byte	W96
	.byte	W96
	.byte	W96
	.byte	W96
	.byte	W96
	.byte	W96
	.byte	W96
	.byte	W96
	.byte	W96
	.byte	W96
	.byte	W96
	.byte	W92
	.byte	W02
	.byte		VOICE , 51
	.byte		VOL   , 75*seq_044_mvl/mxv
	.byte		PAN   , c_v+10
	.byte	W01
	.byte		MOD   , 60
	.byte		LFOS  , 38
	.byte		MODT  , mod_tre
	.byte	W01
	.byte	W92
	.byte	W03
	.byte		VOL   , 75*seq_044_mvl/mxv
	.byte	W01
	.byte	PEND
	.byte		N24   , As2 , v060
	.byte	W24
	.byte		        Fs3 , v048
	.byte	W24
	.byte		        Fn3 , v072
	.byte	W01
	.byte		VOL   , 65*seq_044_mvl/mxv
	.byte	W07
	.byte		        61*seq_044_mvl/mxv
	.byte	W05
	.byte		        57*seq_044_mvl/mxv
	.byte	W06
	.byte		        53*seq_044_mvl/mxv
	.byte	W05
	.byte		N24   , Gs3 
	.byte	W02
	.byte		VOL   , 48*seq_044_mvl/mxv
	.byte	W05
	.byte		        45*seq_044_mvl/mxv
	.byte	W06
	.byte		        42*seq_044_mvl/mxv
	.byte	W05
	.byte		        38*seq_044_mvl/mxv
	.byte	W06
	.byte	PEND
	.byte		TIE   , Ds3 , v080
	.byte	W01
	.byte		VOL   , 37*seq_044_mvl/mxv
	.byte	W06
	.byte		        38*seq_044_mvl/mxv
	.byte	W05
	.byte		        39*seq_044_mvl/mxv
	.byte	W05
	.byte		        39*seq_044_mvl/mxv
	.byte	W06
	.byte		        41*seq_044_mvl/mxv
	.byte	W05
	.byte		        41*seq_044_mvl/mxv
	.byte	W05
	.byte		        42*seq_044_mvl/mxv
	.byte	W05
	.byte		        43*seq_044_mvl/mxv
	.byte	W06
	.byte		        44*seq_044_mvl/mxv
	.byte	W05
	.byte		        45*seq_044_mvl/mxv
	.byte	W05
	.byte		        46*seq_044_mvl/mxv
	.byte	W06
	.byte		        47*seq_044_mvl/mxv
	.byte	W05
	.byte		        48*seq_044_mvl/mxv
	.byte	W05
	.byte		        50*seq_044_mvl/mxv
	.byte	W05
	.byte		        51*seq_044_mvl/mxv
	.byte	W06
	.byte		        55*seq_044_mvl/mxv
	.byte	W05
	.byte		        58*seq_044_mvl/mxv
	.byte	W05
	.byte		        61*seq_044_mvl/mxv
	.byte	W05
	.byte	PEND
	.byte		VOL   , 64*seq_044_mvl/mxv
	.byte	W06
	.byte		        68*seq_044_mvl/mxv
	.byte	W05
	.byte		        70*seq_044_mvl/mxv
	.byte	W05
	.byte		        73*seq_044_mvl/mxv
	.byte	W06
	.byte		        71*seq_044_mvl/mxv
	.byte	W05
	.byte		        69*seq_044_mvl/mxv
	.byte	W05
	.byte		        68*seq_044_mvl/mxv
	.byte	W05
	.byte		        66*seq_044_mvl/mxv
	.byte	W06
	.byte		        64*seq_044_mvl/mxv
	.byte	W05
	.byte		        59*seq_044_mvl/mxv
	.byte	W05
	.byte		        53*seq_044_mvl/mxv
	.byte	W06
	.byte		        46*seq_044_mvl/mxv
	.byte	W05
	.byte		        40*seq_044_mvl/mxv
	.byte	W05
	.byte		        34*seq_044_mvl/mxv
	.byte	W05
	.byte		        28*seq_044_mvl/mxv
	.byte	W06
	.byte		        20*seq_044_mvl/mxv
	.byte	W05
	.byte		        15*seq_044_mvl/mxv
	.byte	W05
	.byte		        8*seq_044_mvl/mxv
	.byte	W06
	.byte	PEND
	.byte		EOT   , Ds3 
	.byte	PATT
	 .word	seq_044_2 + 0x434
	.byte	PATT
	 .word	seq_044_2 + 0x43A
	.byte	PATT
	 .word	seq_044_2 + 0x45A
	.byte	PATT
	 .word	seq_044_2 + 0x484
	.byte		EOT   , Ds3 
	.byte	W96
	.byte	W96
	.byte	W96
	.byte	W96
	.byte	W96
	.byte	W96
	.byte	W96
	.byte	W96
	.byte	W96
	.byte	W96
	.byte	W96
	.byte	W96
	.byte	W96
	.byte	W96
	.byte	GOTO
	 .word	seq_044_2 + 0x413
	.byte W96, W96, W96, W96, W96, W96, W96, W96, W96, W96, W96, W96
	.byte	FINE

@*********************** Track 04 ***********************@

seq_044_3:
	.byte	KEYSH , seq_044_key+0
	.byte	W06
	.byte		VOICE , 24
	.byte		VOL   , 0*seq_044_mvl/mxv
	.byte		PAN   , c_v+0
	.byte	W01
	.byte		MODT  , mod_pan
	.byte	W28
	.byte		MOD   , 50
	.byte	W01
	.byte		TIE   , Gn4 , v056
	.byte	W02
	.byte		VOL   , 3*seq_044_mvl/mxv
	.byte	W02
	.byte		        1*seq_044_mvl/mxv
	.byte	W02
	.byte		        2*seq_044_mvl/mxv
	.byte	W01
	.byte		        3*seq_044_mvl/mxv
	.byte	W02
	.byte		        4*seq_044_mvl/mxv
	.byte	W01
	.byte		        5*seq_044_mvl/mxv
	.byte	W02
	.byte		        6*seq_044_mvl/mxv
	.byte	W01
	.byte		        7*seq_044_mvl/mxv
	.byte	W02
	.byte		        8*seq_044_mvl/mxv
	.byte	W02
	.byte		        10*seq_044_mvl/mxv
	.byte	W01
	.byte		        10*seq_044_mvl/mxv
	.byte	W02
	.byte		        12*seq_044_mvl/mxv
	.byte	W01
	.byte		        13*seq_044_mvl/mxv
	.byte	W02
	.byte		        14*seq_044_mvl/mxv
	.byte	W01
	.byte		        15*seq_044_mvl/mxv
	.byte	W02
	.byte		        16*seq_044_mvl/mxv
	.byte	W02
	.byte		        17*seq_044_mvl/mxv
	.byte	W01
	.byte		        17*seq_044_mvl/mxv
	.byte	W02
	.byte		        19*seq_044_mvl/mxv
	.byte	W01
	.byte		        19*seq_044_mvl/mxv
	.byte	W02
	.byte		        21*seq_044_mvl/mxv
	.byte	W01
	.byte		        21*seq_044_mvl/mxv
	.byte	W02
	.byte		        23*seq_044_mvl/mxv
	.byte	W02
	.byte		        24*seq_044_mvl/mxv
	.byte	W01
	.byte		        25*seq_044_mvl/mxv
	.byte	W02
	.byte		        26*seq_044_mvl/mxv
	.byte	W01
	.byte		        27*seq_044_mvl/mxv
	.byte	W02
	.byte		        29*seq_044_mvl/mxv
	.byte	W01
	.byte		        29*seq_044_mvl/mxv
	.byte	W02
	.byte		        31*seq_044_mvl/mxv
	.byte	W02
	.byte		        32*seq_044_mvl/mxv
	.byte	W01
	.byte		        33*seq_044_mvl/mxv
	.byte	W02
	.byte		        34*seq_044_mvl/mxv
	.byte	W01
	.byte		        34*seq_044_mvl/mxv
	.byte	W02
	.byte		        37*seq_044_mvl/mxv
	.byte	W01
	.byte		        39*seq_044_mvl/mxv
	.byte	W02
	.byte		        42*seq_044_mvl/mxv
	.byte	W02
	.byte		        45*seq_044_mvl/mxv
	.byte	W01
	.byte		        47*seq_044_mvl/mxv
	.byte	W02
	.byte		        51*seq_044_mvl/mxv
	.byte	W01
	.byte		        51*seq_044_mvl/mxv
	.byte	W02
	.byte		        55*seq_044_mvl/mxv
	.byte	W01
	.byte		        56*seq_044_mvl/mxv
	.byte	W02
	.byte		        60*seq_044_mvl/mxv
	.byte	W04
	.byte		        67*seq_044_mvl/mxv
	.byte	W03
	.byte		        71*seq_044_mvl/mxv
	.byte	W02
	.byte		        74*seq_044_mvl/mxv
	.byte	W03
	.byte		        79*seq_044_mvl/mxv
	.byte	W02
	.byte		        83*seq_044_mvl/mxv
	.byte	W03
	.byte		        87*seq_044_mvl/mxv
	.byte	W02
	.byte		        90*seq_044_mvl/mxv
	.byte	W03
	.byte		        95*seq_044_mvl/mxv
	.byte	W04
	.byte	PEND
	.byte	W09
	.byte		VOL   , 95*seq_044_mvl/mxv
	.byte	W02
	.byte		        94*seq_044_mvl/mxv
	.byte	W02
	.byte		        93*seq_044_mvl/mxv
	.byte	W02
	.byte		        92*seq_044_mvl/mxv
	.byte	W02
	.byte		        91*seq_044_mvl/mxv
	.byte	W02
	.byte		        90*seq_044_mvl/mxv
	.byte	W02
	.byte		        89*seq_044_mvl/mxv
	.byte	W02
	.byte		        88*seq_044_mvl/mxv
	.byte	W01
	.byte		        87*seq_044_mvl/mxv
	.byte	W02
	.byte		        86*seq_044_mvl/mxv
	.byte	W02
	.byte		        85*seq_044_mvl/mxv
	.byte	W02
	.byte		        82*seq_044_mvl/mxv
	.byte	W02
	.byte		        81*seq_044_mvl/mxv
	.byte	W02
	.byte		        79*seq_044_mvl/mxv
	.byte	W02
	.byte		        77*seq_044_mvl/mxv
	.byte	W02
	.byte		        75*seq_044_mvl/mxv
	.byte	W01
	.byte		        75*seq_044_mvl/mxv
	.byte	W02
	.byte		        73*seq_044_mvl/mxv
	.byte	W02
	.byte		        71*seq_044_mvl/mxv
	.byte	W02
	.byte		        69*seq_044_mvl/mxv
	.byte	W02
	.byte		        68*seq_044_mvl/mxv
	.byte	W02
	.byte		        67*seq_044_mvl/mxv
	.byte	W02
	.byte		        65*seq_044_mvl/mxv
	.byte	W02
	.byte		        61*seq_044_mvl/mxv
	.byte	W01
	.byte		        59*seq_044_mvl/mxv
	.byte	W02
	.byte		        56*seq_044_mvl/mxv
	.byte	W02
	.byte		        52*seq_044_mvl/mxv
	.byte	W02
	.byte		        50*seq_044_mvl/mxv
	.byte	W02
	.byte		        47*seq_044_mvl/mxv
	.byte	W02
	.byte		        43*seq_044_mvl/mxv
	.byte	W02
	.byte		        40*seq_044_mvl/mxv
	.byte	W02
	.byte		        35*seq_044_mvl/mxv
	.byte	W01
	.byte		        34*seq_044_mvl/mxv
	.byte	W02
	.byte		        29*seq_044_mvl/mxv
	.byte	W02
	.byte		        24*seq_044_mvl/mxv
	.byte	W02
	.byte		        20*seq_044_mvl/mxv
	.byte	W02
	.byte		        16*seq_044_mvl/mxv
	.byte	W02
	.byte		        11*seq_044_mvl/mxv
	.byte	W02
	.byte		        7*seq_044_mvl/mxv
	.byte	W14
	.byte		MOD   , 50
	.byte		VOL   , 0*seq_044_mvl/mxv
	.byte	W01
	.byte	PEND
	.byte		EOT   , Gn4 
	.byte		TIE   , Fs4 , v056
	.byte	W02
	.byte		VOL   , 3*seq_044_mvl/mxv
	.byte	W02
	.byte		        1*seq_044_mvl/mxv
	.byte	W02
	.byte		        2*seq_044_mvl/mxv
	.byte	W01
	.byte		        3*seq_044_mvl/mxv
	.byte	W02
	.byte		        4*seq_044_mvl/mxv
	.byte	W01
	.byte		        5*seq_044_mvl/mxv
	.byte	W02
	.byte		        6*seq_044_mvl/mxv
	.byte	W01
	.byte		        7*seq_044_mvl/mxv
	.byte	W02
	.byte		        8*seq_044_mvl/mxv
	.byte	W02
	.byte		        10*seq_044_mvl/mxv
	.byte	W01
	.byte		        10*seq_044_mvl/mxv
	.byte	W02
	.byte		        12*seq_044_mvl/mxv
	.byte	W01
	.byte		        13*seq_044_mvl/mxv
	.byte	W02
	.byte		        14*seq_044_mvl/mxv
	.byte	W01
	.byte		        15*seq_044_mvl/mxv
	.byte	W02
	.byte		        16*seq_044_mvl/mxv
	.byte	W02
	.byte		        17*seq_044_mvl/mxv
	.byte	W01
	.byte		        17*seq_044_mvl/mxv
	.byte	W02
	.byte		        19*seq_044_mvl/mxv
	.byte	W01
	.byte		        19*seq_044_mvl/mxv
	.byte	W02
	.byte		        21*seq_044_mvl/mxv
	.byte	W01
	.byte		        21*seq_044_mvl/mxv
	.byte	W02
	.byte		        23*seq_044_mvl/mxv
	.byte	W02
	.byte		        24*seq_044_mvl/mxv
	.byte	W01
	.byte		        25*seq_044_mvl/mxv
	.byte	W02
	.byte		        26*seq_044_mvl/mxv
	.byte	W01
	.byte		        27*seq_044_mvl/mxv
	.byte	W02
	.byte		        29*seq_044_mvl/mxv
	.byte	W01
	.byte		        29*seq_044_mvl/mxv
	.byte	W02
	.byte		        31*seq_044_mvl/mxv
	.byte	W02
	.byte		        32*seq_044_mvl/mxv
	.byte	W01
	.byte		        33*seq_044_mvl/mxv
	.byte	W02
	.byte		        34*seq_044_mvl/mxv
	.byte	W01
	.byte		        34*seq_044_mvl/mxv
	.byte	W02
	.byte		        37*seq_044_mvl/mxv
	.byte	W01
	.byte		        39*seq_044_mvl/mxv
	.byte	W02
	.byte		        42*seq_044_mvl/mxv
	.byte	W02
	.byte		        45*seq_044_mvl/mxv
	.byte	W01
	.byte		        47*seq_044_mvl/mxv
	.byte	W02
	.byte		        51*seq_044_mvl/mxv
	.byte	W01
	.byte		        51*seq_044_mvl/mxv
	.byte	W02
	.byte		        55*seq_044_mvl/mxv
	.byte	W01
	.byte		        56*seq_044_mvl/mxv
	.byte	W02
	.byte		        60*seq_044_mvl/mxv
	.byte	W04
	.byte		        67*seq_044_mvl/mxv
	.byte	W03
	.byte		        71*seq_044_mvl/mxv
	.byte	W02
	.byte		        74*seq_044_mvl/mxv
	.byte	W03
	.byte		        79*seq_044_mvl/mxv
	.byte	W02
	.byte		        83*seq_044_mvl/mxv
	.byte	W03
	.byte		        87*seq_044_mvl/mxv
	.byte	W02
	.byte		        90*seq_044_mvl/mxv
	.byte	W03
	.byte		        95*seq_044_mvl/mxv
	.byte	W04
	.byte	PEND
	.byte	PATT
	 .word	seq_044_3 + 0x7E
	.byte		EOT   , Fs4 
	.byte	PATT
	 .word	seq_044_3 + 0x10
	.byte	PATT
	 .word	seq_044_3 + 0x7E
	.byte		EOT   , Gn4 
	.byte	PATT
	 .word	seq_044_3 + 0xD6
	.byte	W09
	.byte		VOL   , 95*seq_044_mvl/mxv
	.byte	W02
	.byte		        94*seq_044_mvl/mxv
	.byte	W02
	.byte		        93*seq_044_mvl/mxv
	.byte	W02
	.byte		        92*seq_044_mvl/mxv
	.byte	W02
	.byte		        91*seq_044_mvl/mxv
	.byte	W02
	.byte		        90*seq_044_mvl/mxv
	.byte	W02
	.byte		        89*seq_044_mvl/mxv
	.byte	W02
	.byte		        88*seq_044_mvl/mxv
	.byte	W01
	.byte		        87*seq_044_mvl/mxv
	.byte	W02
	.byte		        86*seq_044_mvl/mxv
	.byte	W02
	.byte		        85*seq_044_mvl/mxv
	.byte	W02
	.byte		        82*seq_044_mvl/mxv
	.byte	W02
	.byte		        81*seq_044_mvl/mxv
	.byte	W02
	.byte		        79*seq_044_mvl/mxv
	.byte	W02
	.byte		        77*seq_044_mvl/mxv
	.byte	W02
	.byte		        75*seq_044_mvl/mxv
	.byte	W01
	.byte		        75*seq_044_mvl/mxv
	.byte	W02
	.byte		        73*seq_044_mvl/mxv
	.byte	W02
	.byte		        71*seq_044_mvl/mxv
	.byte	W02
	.byte		        69*seq_044_mvl/mxv
	.byte	W02
	.byte		        68*seq_044_mvl/mxv
	.byte	W02
	.byte		        67*seq_044_mvl/mxv
	.byte	W02
	.byte		        65*seq_044_mvl/mxv
	.byte	W02
	.byte		        61*seq_044_mvl/mxv
	.byte	W01
	.byte		        59*seq_044_mvl/mxv
	.byte	W02
	.byte		        56*seq_044_mvl/mxv
	.byte	W02
	.byte		        52*seq_044_mvl/mxv
	.byte	W02
	.byte		        50*seq_044_mvl/mxv
	.byte	W02
	.byte		        47*seq_044_mvl/mxv
	.byte	W02
	.byte		        43*seq_044_mvl/mxv
	.byte	W02
	.byte		        40*seq_044_mvl/mxv
	.byte	W02
	.byte		        34*seq_044_mvl/mxv
	.byte	W01
	.byte		        32*seq_044_mvl/mxv
	.byte	W02
	.byte		        26*seq_044_mvl/mxv
	.byte	W02
	.byte		        20*seq_044_mvl/mxv
	.byte	W02
	.byte		        15*seq_044_mvl/mxv
	.byte	W02
	.byte		        11*seq_044_mvl/mxv
	.byte	W02
	.byte		        5*seq_044_mvl/mxv
	.byte	W02
	.byte		        0*seq_044_mvl/mxv
	.byte	W15
	.byte		EOT   , Fs4 
	.byte	W96
	.byte	W96
	.byte	W96
	.byte	W96
	.byte	W96
	.byte	W96
	.byte	W96
	.byte	W96
	.byte	W96
	.byte	W96
	.byte	W96
	.byte	W96
	.byte	W96
	.byte	W96
	.byte	W96
	.byte	W96
	.byte	W96
	.byte	W92
	.byte	W03
	.byte		MOD   , 50
	.byte		VOL   , 80*seq_044_mvl/mxv
	.byte	W01
	.byte		N96   , Ds4 , v080
	.byte	W96
	.byte		        Cs4 
	.byte	W96
	.byte		        Cn4 
	.byte	W96
	.byte		N48   , As3 , v080
	.byte	W48
	.byte		        Gs3 
	.byte	W48
	.byte	PEND
	.byte		N96   , Ds4 
	.byte	W96
	.byte		        Cs4 
	.byte	W96
	.byte		        Cn4 
	.byte	W96
	.byte	PATT
	 .word	seq_044_3 + 0x1CE
	.byte	W96
	.byte	W96
	.byte	W96
	.byte	W96
	.byte	W96
	.byte	W96
	.byte	W96
	.byte	W96
	.byte		N96   , Ds4 , v080
	.byte	W96
	.byte		        Cs4 
	.byte	W96
	.byte		        Cn4 
	.byte	W96
	.byte	PATT
	 .word	seq_044_3 + 0x1CE
	.byte		N96   , Ds4 , v080
	.byte	W96
	.byte		        Cs4 
	.byte	W96
	.byte		        Cn4 
	.byte	W96
	.byte	PATT
	 .word	seq_044_3 + 0x1CE
	.byte	W96
	.byte	W96
	.byte	W96
	.byte	W96
	.byte	W96
	.byte	W96
	.byte	W96
	.byte	W96
	.byte	W96
	.byte	W96
	.byte	W96
	.byte	W96
	.byte	W96
	.byte	W96
	.byte	W96
	.byte	W96
	.byte	W96
	.byte	W96
	.byte	W96
	.byte	W96
	.byte	W96
	.byte	W96
	.byte	W96
	.byte	W96
	.byte	W96
	.byte	W96
	.byte	W96
	.byte	W96
	.byte	W96
	.byte	W96
	.byte	W96
	.byte	W96
	.byte	W96
	.byte	W96
	.byte	W96
	.byte	W96
	.byte	GOTO
	 .word	seq_044_3 + 0x1F6
	.byte W96, W96, W96, W96, W96, W96, W96, W96, W96, W96, W96, W96
	.byte	FINE

@*********************** Track 05 ***********************@

seq_044_4:
	.byte	KEYSH , seq_044_key+0
	.byte	W07
	.byte		MOD   , 45
	.byte		MODT  , mod_tre
	.byte	W01
	.byte		VOICE , 4
	.byte		VOL   , 0*seq_044_mvl/mxv
	.byte		PAN   , c_v-20
	.byte	W28
	.byte		TIE   , An2 , v100
	.byte	W02
	.byte		VOL   , 3*seq_044_mvl/mxv
	.byte	W02
	.byte		        5*seq_044_mvl/mxv
	.byte	W02
	.byte		        8*seq_044_mvl/mxv
	.byte	W01
	.byte		        10*seq_044_mvl/mxv
	.byte	W02
	.byte		        12*seq_044_mvl/mxv
	.byte	W01
	.byte		        14*seq_044_mvl/mxv
	.byte	W02
	.byte		        17*seq_044_mvl/mxv
	.byte	W01
	.byte		        17*seq_044_mvl/mxv
	.byte	W02
	.byte		        20*seq_044_mvl/mxv
	.byte	W02
	.byte		        23*seq_044_mvl/mxv
	.byte	W01
	.byte		        24*seq_044_mvl/mxv
	.byte	W02
	.byte		        27*seq_044_mvl/mxv
	.byte	W01
	.byte		        28*seq_044_mvl/mxv
	.byte	W02
	.byte		        31*seq_044_mvl/mxv
	.byte	W01
	.byte		        32*seq_044_mvl/mxv
	.byte	W02
	.byte		        34*seq_044_mvl/mxv
	.byte	W02
	.byte		        37*seq_044_mvl/mxv
	.byte	W01
	.byte		        38*seq_044_mvl/mxv
	.byte	W02
	.byte		        41*seq_044_mvl/mxv
	.byte	W01
	.byte		        43*seq_044_mvl/mxv
	.byte	W02
	.byte		        45*seq_044_mvl/mxv
	.byte	W01
	.byte		        47*seq_044_mvl/mxv
	.byte	W02
	.byte		        50*seq_044_mvl/mxv
	.byte	W02
	.byte		        51*seq_044_mvl/mxv
	.byte	W01
	.byte		        53*seq_044_mvl/mxv
	.byte	W02
	.byte		        56*seq_044_mvl/mxv
	.byte	W01
	.byte		        57*seq_044_mvl/mxv
	.byte	W02
	.byte		        60*seq_044_mvl/mxv
	.byte	W01
	.byte		        61*seq_044_mvl/mxv
	.byte	W02
	.byte		        64*seq_044_mvl/mxv
	.byte	W02
	.byte		        67*seq_044_mvl/mxv
	.byte	W01
	.byte		        68*seq_044_mvl/mxv
	.byte	W02
	.byte		        70*seq_044_mvl/mxv
	.byte	W01
	.byte		        71*seq_044_mvl/mxv
	.byte	W02
	.byte		        74*seq_044_mvl/mxv
	.byte	W01
	.byte		        76*seq_044_mvl/mxv
	.byte	W02
	.byte		        78*seq_044_mvl/mxv
	.byte	W02
	.byte		        81*seq_044_mvl/mxv
	.byte	W01
	.byte		        83*seq_044_mvl/mxv
	.byte	W02
	.byte		        85*seq_044_mvl/mxv
	.byte	W01
	.byte		        86*seq_044_mvl/mxv
	.byte	W02
	.byte		        89*seq_044_mvl/mxv
	.byte	W01
	.byte		        90*seq_044_mvl/mxv
	.byte	W02
	.byte		        94*seq_044_mvl/mxv
	.byte	W24
	.byte	W02
	.byte	PEND
	.byte	W09
	.byte		VOL   , 95*seq_044_mvl/mxv
	.byte	W02
	.byte		        94*seq_044_mvl/mxv
	.byte	W02
	.byte		        93*seq_044_mvl/mxv
	.byte	W02
	.byte		        92*seq_044_mvl/mxv
	.byte	W02
	.byte		        91*seq_044_mvl/mxv
	.byte	W02
	.byte		        90*seq_044_mvl/mxv
	.byte	W02
	.byte		        89*seq_044_mvl/mxv
	.byte	W02
	.byte		        88*seq_044_mvl/mxv
	.byte	W01
	.byte		        87*seq_044_mvl/mxv
	.byte	W02
	.byte		        86*seq_044_mvl/mxv
	.byte	W02
	.byte		        85*seq_044_mvl/mxv
	.byte	W02
	.byte		        82*seq_044_mvl/mxv
	.byte	W02
	.byte		        81*seq_044_mvl/mxv
	.byte	W02
	.byte		        79*seq_044_mvl/mxv
	.byte	W02
	.byte		        77*seq_044_mvl/mxv
	.byte	W02
	.byte		        75*seq_044_mvl/mxv
	.byte	W01
	.byte		        75*seq_044_mvl/mxv
	.byte	W02
	.byte		        73*seq_044_mvl/mxv
	.byte	W02
	.byte		        71*seq_044_mvl/mxv
	.byte	W02
	.byte		        69*seq_044_mvl/mxv
	.byte	W02
	.byte		        68*seq_044_mvl/mxv
	.byte	W02
	.byte		        67*seq_044_mvl/mxv
	.byte	W02
	.byte		        65*seq_044_mvl/mxv
	.byte	W02
	.byte		        61*seq_044_mvl/mxv
	.byte	W01
	.byte		        59*seq_044_mvl/mxv
	.byte	W02
	.byte		        56*seq_044_mvl/mxv
	.byte	W02
	.byte		        52*seq_044_mvl/mxv
	.byte	W02
	.byte		        50*seq_044_mvl/mxv
	.byte	W02
	.byte		        47*seq_044_mvl/mxv
	.byte	W02
	.byte		        43*seq_044_mvl/mxv
	.byte	W02
	.byte		        40*seq_044_mvl/mxv
	.byte	W02
	.byte		        35*seq_044_mvl/mxv
	.byte	W01
	.byte		        34*seq_044_mvl/mxv
	.byte	W02
	.byte		        29*seq_044_mvl/mxv
	.byte	W02
	.byte		        24*seq_044_mvl/mxv
	.byte	W02
	.byte		        20*seq_044_mvl/mxv
	.byte	W02
	.byte		        16*seq_044_mvl/mxv
	.byte	W02
	.byte		        11*seq_044_mvl/mxv
	.byte	W02
	.byte		        7*seq_044_mvl/mxv
	.byte	W14
	.byte		        0*seq_044_mvl/mxv
	.byte	W01
	.byte	PEND
	.byte		EOT   , An2 
	.byte	PATT
	 .word	seq_044_4 + 0xF
	.byte	PATT
	 .word	seq_044_4 + 0x6E
	.byte		EOT   , An2 
	.byte	PATT
	 .word	seq_044_4 + 0xF
	.byte	PATT
	 .word	seq_044_4 + 0x6E
	.byte		EOT   , An2 
	.byte	PATT
	 .word	seq_044_4 + 0xF
	.byte	W09
	.byte		VOL   , 95*seq_044_mvl/mxv
	.byte	W02
	.byte		        94*seq_044_mvl/mxv
	.byte	W02
	.byte		        93*seq_044_mvl/mxv
	.byte	W02
	.byte		        92*seq_044_mvl/mxv
	.byte	W02
	.byte		        91*seq_044_mvl/mxv
	.byte	W02
	.byte		        90*seq_044_mvl/mxv
	.byte	W02
	.byte		        89*seq_044_mvl/mxv
	.byte	W02
	.byte		        88*seq_044_mvl/mxv
	.byte	W01
	.byte		        87*seq_044_mvl/mxv
	.byte	W02
	.byte		        86*seq_044_mvl/mxv
	.byte	W02
	.byte		        85*seq_044_mvl/mxv
	.byte	W02
	.byte		        82*seq_044_mvl/mxv
	.byte	W02
	.byte		        81*seq_044_mvl/mxv
	.byte	W02
	.byte		        79*seq_044_mvl/mxv
	.byte	W02
	.byte		        77*seq_044_mvl/mxv
	.byte	W02
	.byte		        75*seq_044_mvl/mxv
	.byte	W01
	.byte		        75*seq_044_mvl/mxv
	.byte	W02
	.byte		        73*seq_044_mvl/mxv
	.byte	W02
	.byte		        71*seq_044_mvl/mxv
	.byte	W02
	.byte		        69*seq_044_mvl/mxv
	.byte	W02
	.byte		        68*seq_044_mvl/mxv
	.byte	W02
	.byte		        67*seq_044_mvl/mxv
	.byte	W02
	.byte		        65*seq_044_mvl/mxv
	.byte	W02
	.byte		        61*seq_044_mvl/mxv
	.byte	W01
	.byte		        59*seq_044_mvl/mxv
	.byte	W02
	.byte		        56*seq_044_mvl/mxv
	.byte	W02
	.byte		        52*seq_044_mvl/mxv
	.byte	W02
	.byte		        50*seq_044_mvl/mxv
	.byte	W02
	.byte		        47*seq_044_mvl/mxv
	.byte	W02
	.byte		        43*seq_044_mvl/mxv
	.byte	W02
	.byte		        40*seq_044_mvl/mxv
	.byte	W02
	.byte		        35*seq_044_mvl/mxv
	.byte	W01
	.byte		        34*seq_044_mvl/mxv
	.byte	W02
	.byte		        29*seq_044_mvl/mxv
	.byte	W02
	.byte		        24*seq_044_mvl/mxv
	.byte	W02
	.byte		        20*seq_044_mvl/mxv
	.byte	W02
	.byte		        16*seq_044_mvl/mxv
	.byte	W02
	.byte		        11*seq_044_mvl/mxv
	.byte	W02
	.byte		        7*seq_044_mvl/mxv
	.byte	W14
	.byte		        0*seq_044_mvl/mxv
	.byte		PAN   , c_v-40
	.byte	W01
	.byte		EOT   , An2 
	.byte		TIE   , Dn3 , v120
	.byte	W02
	.byte		VOL   , 3*seq_044_mvl/mxv
	.byte	W02
	.byte		        12*seq_044_mvl/mxv
	.byte	W02
	.byte		        15*seq_044_mvl/mxv
	.byte	W01
	.byte		        17*seq_044_mvl/mxv
	.byte	W02
	.byte		        19*seq_044_mvl/mxv
	.byte	W01
	.byte		        20*seq_044_mvl/mxv
	.byte	W02
	.byte		        23*seq_044_mvl/mxv
	.byte	W01
	.byte		        25*seq_044_mvl/mxv
	.byte	W02
	.byte		        28*seq_044_mvl/mxv
	.byte	W02
	.byte		        31*seq_044_mvl/mxv
	.byte	W01
	.byte		        33*seq_044_mvl/mxv
	.byte	W02
	.byte		        35*seq_044_mvl/mxv
	.byte	W01
	.byte		        36*seq_044_mvl/mxv
	.byte	W02
	.byte		        39*seq_044_mvl/mxv
	.byte	W01
	.byte		        41*seq_044_mvl/mxv
	.byte	W02
	.byte		        44*seq_044_mvl/mxv
	.byte	W02
	.byte		        47*seq_044_mvl/mxv
	.byte	W01
	.byte		        49*seq_044_mvl/mxv
	.byte	W02
	.byte		        51*seq_044_mvl/mxv
	.byte	W01
	.byte		        52*seq_044_mvl/mxv
	.byte	W02
	.byte		        55*seq_044_mvl/mxv
	.byte	W01
	.byte		        57*seq_044_mvl/mxv
	.byte	W02
	.byte		        60*seq_044_mvl/mxv
	.byte	W02
	.byte		        63*seq_044_mvl/mxv
	.byte	W01
	.byte		        65*seq_044_mvl/mxv
	.byte	W02
	.byte		        68*seq_044_mvl/mxv
	.byte	W01
	.byte		        68*seq_044_mvl/mxv
	.byte	W02
	.byte		        71*seq_044_mvl/mxv
	.byte	W01
	.byte		        73*seq_044_mvl/mxv
	.byte	W02
	.byte		        76*seq_044_mvl/mxv
	.byte	W02
	.byte		        79*seq_044_mvl/mxv
	.byte	W01
	.byte		        81*seq_044_mvl/mxv
	.byte	W02
	.byte		        84*seq_044_mvl/mxv
	.byte	W01
	.byte		        85*seq_044_mvl/mxv
	.byte	W02
	.byte		        87*seq_044_mvl/mxv
	.byte	W01
	.byte		        89*seq_044_mvl/mxv
	.byte	W02
	.byte		        92*seq_044_mvl/mxv
	.byte	W02
	.byte		        95*seq_044_mvl/mxv
	.byte	W01
	.byte		        97*seq_044_mvl/mxv
	.byte	W02
	.byte		        100*seq_044_mvl/mxv
	.byte	W01
	.byte		        101*seq_044_mvl/mxv
	.byte	W02
	.byte		        103*seq_044_mvl/mxv
	.byte	W01
	.byte		        105*seq_044_mvl/mxv
	.byte	W02
	.byte		        108*seq_044_mvl/mxv
	.byte	W24
	.byte	W02
	.byte	PEND
	.byte	W09
	.byte		VOL   , 103*seq_044_mvl/mxv
	.byte	W02
	.byte		        102*seq_044_mvl/mxv
	.byte	W02
	.byte		        102*seq_044_mvl/mxv
	.byte	W02
	.byte		        101*seq_044_mvl/mxv
	.byte	W02
	.byte		        100*seq_044_mvl/mxv
	.byte	W02
	.byte		        99*seq_044_mvl/mxv
	.byte	W02
	.byte		        98*seq_044_mvl/mxv
	.byte	W02
	.byte		        97*seq_044_mvl/mxv
	.byte	W01
	.byte		        96*seq_044_mvl/mxv
	.byte	W02
	.byte		        95*seq_044_mvl/mxv
	.byte	W02
	.byte		        94*seq_044_mvl/mxv
	.byte	W02
	.byte		        93*seq_044_mvl/mxv
	.byte	W02
	.byte		        92*seq_044_mvl/mxv
	.byte	W02
	.byte		        91*seq_044_mvl/mxv
	.byte	W02
	.byte		        90*seq_044_mvl/mxv
	.byte	W02
	.byte		        89*seq_044_mvl/mxv
	.byte	W01
	.byte		        88*seq_044_mvl/mxv
	.byte	W02
	.byte		        86*seq_044_mvl/mxv
	.byte	W02
	.byte		        84*seq_044_mvl/mxv
	.byte	W02
	.byte		        82*seq_044_mvl/mxv
	.byte	W02
	.byte		        79*seq_044_mvl/mxv
	.byte	W02
	.byte		        77*seq_044_mvl/mxv
	.byte	W02
	.byte		        74*seq_044_mvl/mxv
	.byte	W02
	.byte		        72*seq_044_mvl/mxv
	.byte	W01
	.byte		        70*seq_044_mvl/mxv
	.byte	W02
	.byte		        68*seq_044_mvl/mxv
	.byte	W02
	.byte		        66*seq_044_mvl/mxv
	.byte	W02
	.byte		        64*seq_044_mvl/mxv
	.byte	W02
	.byte		        59*seq_044_mvl/mxv
	.byte	W02
	.byte		        54*seq_044_mvl/mxv
	.byte	W02
	.byte		        51*seq_044_mvl/mxv
	.byte	W02
	.byte		        46*seq_044_mvl/mxv
	.byte	W01
	.byte		        44*seq_044_mvl/mxv
	.byte	W02
	.byte		        39*seq_044_mvl/mxv
	.byte	W02
	.byte		        34*seq_044_mvl/mxv
	.byte	W02
	.byte		        31*seq_044_mvl/mxv
	.byte	W02
	.byte		        26*seq_044_mvl/mxv
	.byte	W02
	.byte		        21*seq_044_mvl/mxv
	.byte	W02
	.byte		        17*seq_044_mvl/mxv
	.byte	W14
	.byte		        0*seq_044_mvl/mxv
	.byte		PAN   , c_v-40
	.byte	W01
	.byte	PEND
	.byte		EOT   , Dn3 
	.byte	PATT
	 .word	seq_044_4 + 0x136
	.byte	PATT
	 .word	seq_044_4 + 0x195
	.byte		EOT   , Dn3 
	.byte	PATT
	 .word	seq_044_4 + 0x136
	.byte	PATT
	 .word	seq_044_4 + 0x195
	.byte		EOT   , Dn3 
	.byte	PATT
	 .word	seq_044_4 + 0x136
	.byte	W72
	.byte	W01
	.byte		VOL   , 102*seq_044_mvl/mxv
	.byte	W02
	.byte		        102*seq_044_mvl/mxv
	.byte	W02
	.byte		        101*seq_044_mvl/mxv
	.byte	W02
	.byte		        100*seq_044_mvl/mxv
	.byte	W02
	.byte		        99*seq_044_mvl/mxv
	.byte	W02
	.byte		        98*seq_044_mvl/mxv
	.byte	W02
	.byte		        97*seq_044_mvl/mxv
	.byte	W02
	.byte		        96*seq_044_mvl/mxv
	.byte	W02
	.byte		        95*seq_044_mvl/mxv
	.byte	W01
	.byte		        94*seq_044_mvl/mxv
	.byte	W02
	.byte		        93*seq_044_mvl/mxv
	.byte	W02
	.byte		        92*seq_044_mvl/mxv
	.byte	W02
	.byte		        91*seq_044_mvl/mxv
	.byte	W02
	.byte		        90*seq_044_mvl/mxv
	.byte	W02
	.byte		        89*seq_044_mvl/mxv
	.byte	W02
	.byte		        88*seq_044_mvl/mxv
	.byte	W02
	.byte		        87*seq_044_mvl/mxv
	.byte	W02
	.byte		        86*seq_044_mvl/mxv
	.byte	W01
	.byte		        84*seq_044_mvl/mxv
	.byte	W02
	.byte		        81*seq_044_mvl/mxv
	.byte	W02
	.byte		        78*seq_044_mvl/mxv
	.byte	W02
	.byte		        74*seq_044_mvl/mxv
	.byte	W02
	.byte		        71*seq_044_mvl/mxv
	.byte	W02
	.byte		        68*seq_044_mvl/mxv
	.byte	W02
	.byte		        65*seq_044_mvl/mxv
	.byte	W02
	.byte		        61*seq_044_mvl/mxv
	.byte	W02
	.byte		        58*seq_044_mvl/mxv
	.byte	W01
	.byte		        56*seq_044_mvl/mxv
	.byte	W02
	.byte		        53*seq_044_mvl/mxv
	.byte	W02
	.byte		        50*seq_044_mvl/mxv
	.byte	W02
	.byte		        47*seq_044_mvl/mxv
	.byte	W02
	.byte		        44*seq_044_mvl/mxv
	.byte	W02
	.byte		        40*seq_044_mvl/mxv
	.byte	W02
	.byte		        37*seq_044_mvl/mxv
	.byte	W02
	.byte		        34*seq_044_mvl/mxv
	.byte	W05
	.byte		VOICE , 95
	.byte		MOD   , 25
	.byte		VOL   , 71*seq_044_mvl/mxv
	.byte		PAN   , c_v-20
	.byte		MODT  , mod_pan
	.byte	W01
	.byte		EOT   , Dn3 
	.byte		N48   , Cn2 , v096
	.byte	W06
	.byte		VOL   , 74*seq_044_mvl/mxv
	.byte	W07
	.byte		        77*seq_044_mvl/mxv
	.byte	W07
	.byte		        80*seq_044_mvl/mxv
	.byte	W07
	.byte		        83*seq_044_mvl/mxv
	.byte	W06
	.byte		        85*seq_044_mvl/mxv
	.byte	W07
	.byte		        87*seq_044_mvl/mxv
	.byte	W07
	.byte		        90*seq_044_mvl/mxv
	.byte	W01
	.byte		N48   , Dn2 
	.byte	W06
	.byte		VOL   , 94*seq_044_mvl/mxv
	.byte	W06
	.byte		        97*seq_044_mvl/mxv
	.byte	W07
	.byte		        99*seq_044_mvl/mxv
	.byte	W07
	.byte		        102*seq_044_mvl/mxv
	.byte	W07
	.byte		        104*seq_044_mvl/mxv
	.byte	W06
	.byte		        107*seq_044_mvl/mxv
	.byte	W07
	.byte		        111*seq_044_mvl/mxv
	.byte	W02
	.byte		N72   , Gn2 
	.byte	W05
	.byte		VOL   , 115*seq_044_mvl/mxv
	.byte	W07
	.byte		        110*seq_044_mvl/mxv
	.byte	W03
	.byte		        106*seq_044_mvl/mxv
	.byte	W03
	.byte		        102*seq_044_mvl/mxv
	.byte	W02
	.byte		        100*seq_044_mvl/mxv
	.byte	W02
	.byte		        97*seq_044_mvl/mxv
	.byte	W03
	.byte		        93*seq_044_mvl/mxv
	.byte	W02
	.byte		        90*seq_044_mvl/mxv
	.byte	W02
	.byte		        87*seq_044_mvl/mxv
	.byte	W03
	.byte		        83*seq_044_mvl/mxv
	.byte	W02
	.byte		        80*seq_044_mvl/mxv
	.byte	W02
	.byte		        78*seq_044_mvl/mxv
	.byte	W03
	.byte		        73*seq_044_mvl/mxv
	.byte	W02
	.byte		        70*seq_044_mvl/mxv
	.byte	W02
	.byte		        68*seq_044_mvl/mxv
	.byte	W03
	.byte		        61*seq_044_mvl/mxv
	.byte	W02
	.byte		        56*seq_044_mvl/mxv
	.byte	W02
	.byte		        51*seq_044_mvl/mxv
	.byte	W02
	.byte		        47*seq_044_mvl/mxv
	.byte	W02
	.byte		        42*seq_044_mvl/mxv
	.byte	W01
	.byte		        40*seq_044_mvl/mxv
	.byte	W02
	.byte		        35*seq_044_mvl/mxv
	.byte	W02
	.byte		        31*seq_044_mvl/mxv
	.byte	W02
	.byte		        26*seq_044_mvl/mxv
	.byte	W02
	.byte		        21*seq_044_mvl/mxv
	.byte	W01
	.byte		        18*seq_044_mvl/mxv
	.byte	W02
	.byte		        14*seq_044_mvl/mxv
	.byte	W02
	.byte		        9*seq_044_mvl/mxv
	.byte	W02
	.byte		        4*seq_044_mvl/mxv
	.byte	W02
	.byte		        0*seq_044_mvl/mxv
	.byte	W23
	.byte		        71*seq_044_mvl/mxv
	.byte	W01
	.byte		N48   , Cn2 
	.byte	W06
	.byte		VOL   , 74*seq_044_mvl/mxv
	.byte	W07
	.byte		        77*seq_044_mvl/mxv
	.byte	W07
	.byte		        80*seq_044_mvl/mxv
	.byte	W07
	.byte		        83*seq_044_mvl/mxv
	.byte	W06
	.byte		        85*seq_044_mvl/mxv
	.byte	W07
	.byte		        87*seq_044_mvl/mxv
	.byte	W07
	.byte		        90*seq_044_mvl/mxv
	.byte	W01
	.byte		N48   , Dn2 
	.byte	W06
	.byte		VOL   , 94*seq_044_mvl/mxv
	.byte	W06
	.byte		        97*seq_044_mvl/mxv
	.byte	W07
	.byte		        99*seq_044_mvl/mxv
	.byte	W07
	.byte		        100*seq_044_mvl/mxv
	.byte	W07
	.byte		        98*seq_044_mvl/mxv
	.byte	W06
	.byte		        94*seq_044_mvl/mxv
	.byte	W07
	.byte		        90*seq_044_mvl/mxv
	.byte	W02
	.byte		N48   , Fn2 
	.byte	W05
	.byte		VOL   , 85*seq_044_mvl/mxv
	.byte	W07
	.byte		        79*seq_044_mvl/mxv
	.byte	W03
	.byte		        74*seq_044_mvl/mxv
	.byte	W03
	.byte		        71*seq_044_mvl/mxv
	.byte	W02
	.byte		        68*seq_044_mvl/mxv
	.byte	W02
	.byte		        65*seq_044_mvl/mxv
	.byte	W03
	.byte		        60*seq_044_mvl/mxv
	.byte	W02
	.byte		        57*seq_044_mvl/mxv
	.byte	W02
	.byte		        52*seq_044_mvl/mxv
	.byte	W03
	.byte		        44*seq_044_mvl/mxv
	.byte	W02
	.byte		        39*seq_044_mvl/mxv
	.byte	W02
	.byte		        37*seq_044_mvl/mxv
	.byte	W03
	.byte		        30*seq_044_mvl/mxv
	.byte	W02
	.byte		        27*seq_044_mvl/mxv
	.byte	W02
	.byte		        23*seq_044_mvl/mxv
	.byte	W03
	.byte		        11*seq_044_mvl/mxv
	.byte	W02
	.byte		        13*seq_044_mvl/mxv
	.byte		N96   , Ds2 , v072
	.byte	W02
	.byte		VOL   , 15*seq_044_mvl/mxv
	.byte	W02
	.byte		        19*seq_044_mvl/mxv
	.byte	W02
	.byte		        22*seq_044_mvl/mxv
	.byte	W01
	.byte		        24*seq_044_mvl/mxv
	.byte	W02
	.byte		        28*seq_044_mvl/mxv
	.byte	W02
	.byte		        31*seq_044_mvl/mxv
	.byte	W02
	.byte		        34*seq_044_mvl/mxv
	.byte	W02
	.byte		        38*seq_044_mvl/mxv
	.byte	W01
	.byte		        40*seq_044_mvl/mxv
	.byte	W02
	.byte		        43*seq_044_mvl/mxv
	.byte	W02
	.byte		        47*seq_044_mvl/mxv
	.byte	W02
	.byte		        51*seq_044_mvl/mxv
	.byte	W02
	.byte		        54*seq_044_mvl/mxv
	.byte	W02
	.byte		        57*seq_044_mvl/mxv
	.byte	W02
	.byte		        61*seq_044_mvl/mxv
	.byte	W02
	.byte		        65*seq_044_mvl/mxv
	.byte	W01
	.byte		        67*seq_044_mvl/mxv
	.byte	W02
	.byte		        69*seq_044_mvl/mxv
	.byte	W02
	.byte		        73*seq_044_mvl/mxv
	.byte	W02
	.byte		        77*seq_044_mvl/mxv
	.byte	W02
	.byte		        59*seq_044_mvl/mxv
	.byte	W01
	.byte		        80*seq_044_mvl/mxv
	.byte	W02
	.byte		        82*seq_044_mvl/mxv
	.byte	W02
	.byte		        84*seq_044_mvl/mxv
	.byte	W02
	.byte		        85*seq_044_mvl/mxv
	.byte	W02
	.byte		        87*seq_044_mvl/mxv
	.byte	W02
	.byte		        89*seq_044_mvl/mxv
	.byte	W02
	.byte		        91*seq_044_mvl/mxv
	.byte	W02
	.byte		        93*seq_044_mvl/mxv
	.byte	W01
	.byte		        94*seq_044_mvl/mxv
	.byte	W02
	.byte		        96*seq_044_mvl/mxv
	.byte	W02
	.byte		        98*seq_044_mvl/mxv
	.byte	W02
	.byte		        100*seq_044_mvl/mxv
	.byte	W02
	.byte		        102*seq_044_mvl/mxv
	.byte	W01
	.byte		        102*seq_044_mvl/mxv
	.byte	W02
	.byte		        100*seq_044_mvl/mxv
	.byte	W02
	.byte		        98*seq_044_mvl/mxv
	.byte	W02
	.byte		        96*seq_044_mvl/mxv
	.byte	W02
	.byte		        94*seq_044_mvl/mxv
	.byte	W01
	.byte		        92*seq_044_mvl/mxv
	.byte	W02
	.byte		        90*seq_044_mvl/mxv
	.byte	W02
	.byte		        88*seq_044_mvl/mxv
	.byte	W02
	.byte		        86*seq_044_mvl/mxv
	.byte	W02
	.byte		        84*seq_044_mvl/mxv
	.byte	W01
	.byte		        82*seq_044_mvl/mxv
	.byte	W02
	.byte		        77*seq_044_mvl/mxv
	.byte	W02
	.byte		        72*seq_044_mvl/mxv
	.byte	W02
	.byte		        68*seq_044_mvl/mxv
	.byte	W02
	.byte		        63*seq_044_mvl/mxv
	.byte	W05
	.byte		        103*seq_044_mvl/mxv
	.byte	W01
	.byte		N24   , Fs2 , v120
	.byte	W24
	.byte		        As2 
	.byte	W24
	.byte		        Gs2 
	.byte	W24
	.byte		        Cs3 
	.byte	W24
	.byte		TIE   , As2 
	.byte	W05
	.byte		PAN   , c_v-40
	.byte	W90
	.byte	W01
	.byte	W96
	.byte	W96
	.byte	W96
	.byte		EOT
	.byte		N96   , Fn2 
	.byte	W96
	.byte		N96
	.byte	W96
	.byte		N48   , Ds2 , v120
	.byte	W48
	.byte		        Gs2 
	.byte	W48
	.byte	PEND
	.byte		N48   , Fs2 , v120
	.byte	W48
	.byte		        Fn2 
	.byte	W48
	.byte	PEND
	.byte		N92
	.byte	W96
	.byte		N92
	.byte	W96
	.byte		N44   , Ds2 
	.byte	W48
	.byte		        Gs2 
	.byte	W48
	.byte		        Fs2 
	.byte	W48
	.byte		        Fn2 
	.byte	W48
	.byte		TIE   , As2 , v088
	.byte	W05
	.byte		PAN   , c_v+0
	.byte	W90
	.byte	W01
	.byte	PEND
	.byte	W96
	.byte		EOT
	.byte		N96   , Gs2 
	.byte	W96
	.byte		N24   , Ds2 , v120
	.byte	W24
	.byte		        As2 
	.byte	W24
	.byte		        Gs2 
	.byte	W24
	.byte		        Cs3 
	.byte	W24
	.byte	PEND
	.byte		TIE   , As2 , v088
	.byte	W96
	.byte	W96
	.byte		EOT
	.byte		N96   , Gs2 
	.byte	W96
	.byte	PATT
	 .word	seq_044_4 + 0x3BB
	.byte		N96   , Fn2 , v120
	.byte	W05
	.byte		PAN   , c_v-40
	.byte	W90
	.byte	W01
	.byte		N96
	.byte	W96
	.byte	PATT
	 .word	seq_044_4 + 0x392
	.byte	PATT
	 .word	seq_044_4 + 0x399
	.byte		N96   , Fn2 , v120
	.byte	W96
	.byte		N96
	.byte	W96
	.byte	PATT
	 .word	seq_044_4 + 0x392
	.byte	PATT
	 .word	seq_044_4 + 0x399
	.byte	PATT
	 .word	seq_044_4 + 0x3AD
	.byte	W96
	.byte		EOT   , As2 
	.byte		N96   , Gs2 , v088
	.byte	W96
	.byte	PATT
	 .word	seq_044_4 + 0x3BB
	.byte		TIE   , As2 , v088
	.byte	W96
	.byte	W96
	.byte		EOT
	.byte		N96   , Gs2 
	.byte	W92
	.byte	W03
	.byte		VOL   , 103*seq_044_mvl/mxv
	.byte	W01
	.byte		N24   , Cs2 , v060
	.byte	W05
	.byte		PAN   , c_v-30
	.byte	W19
	.byte		N24   , As2 , v112
	.byte	W24
	.byte		        Gs2 , v080
	.byte	W24
	.byte		        Cs3 , v112
	.byte	W24
	.byte		TIE   , As2 , v100
	.byte	W01
	.byte		VOL   , 95*seq_044_mvl/mxv
	.byte	W06
	.byte		        94*seq_044_mvl/mxv
	.byte	W05
	.byte		        93*seq_044_mvl/mxv
	.byte	W05
	.byte		        92*seq_044_mvl/mxv
	.byte	W06
	.byte		        91*seq_044_mvl/mxv
	.byte	W05
	.byte		        90*seq_044_mvl/mxv
	.byte	W05
	.byte		        89*seq_044_mvl/mxv
	.byte	W05
	.byte		        88*seq_044_mvl/mxv
	.byte	W06
	.byte		        87*seq_044_mvl/mxv
	.byte	W05
	.byte		        86*seq_044_mvl/mxv
	.byte	W05
	.byte		        85*seq_044_mvl/mxv
	.byte	W06
	.byte		        85*seq_044_mvl/mxv
	.byte	W05
	.byte		        84*seq_044_mvl/mxv
	.byte	W05
	.byte		        83*seq_044_mvl/mxv
	.byte	W05
	.byte		        82*seq_044_mvl/mxv
	.byte	W06
	.byte		        81*seq_044_mvl/mxv
	.byte	W05
	.byte		        80*seq_044_mvl/mxv
	.byte	W05
	.byte		        79*seq_044_mvl/mxv
	.byte	W05
	.byte	PEND
	.byte		        78*seq_044_mvl/mxv
	.byte	W06
	.byte		        77*seq_044_mvl/mxv
	.byte	W05
	.byte		        74*seq_044_mvl/mxv
	.byte	W05
	.byte		        72*seq_044_mvl/mxv
	.byte	W06
	.byte		        69*seq_044_mvl/mxv
	.byte	W05
	.byte		        67*seq_044_mvl/mxv
	.byte	W05
	.byte		        64*seq_044_mvl/mxv
	.byte	W05
	.byte		        62*seq_044_mvl/mxv
	.byte	W06
	.byte		        59*seq_044_mvl/mxv
	.byte	W05
	.byte		        56*seq_044_mvl/mxv
	.byte	W05
	.byte		        54*seq_044_mvl/mxv
	.byte	W06
	.byte		        51*seq_044_mvl/mxv
	.byte	W05
	.byte		        46*seq_044_mvl/mxv
	.byte	W05
	.byte		        40*seq_044_mvl/mxv
	.byte	W05
	.byte		        34*seq_044_mvl/mxv
	.byte	W06
	.byte		        27*seq_044_mvl/mxv
	.byte	W05
	.byte		        21*seq_044_mvl/mxv
	.byte	W05
	.byte		        16*seq_044_mvl/mxv
	.byte	W06
	.byte		EOT
	.byte	W92
	.byte	W03
	.byte		VOL   , 103*seq_044_mvl/mxv
	.byte	W01
	.byte		N24   , Cs2 , v060
	.byte	W24
	.byte		        As2 , v112
	.byte	W24
	.byte		        Gs2 , v080
	.byte	W24
	.byte		        Cs3 , v112
	.byte	W24
	.byte	PATT
	 .word	seq_044_4 + 0x427
	.byte		VOL   , 78*seq_044_mvl/mxv
	.byte	W06
	.byte		        77*seq_044_mvl/mxv
	.byte	W05
	.byte		        74*seq_044_mvl/mxv
	.byte	W05
	.byte		        72*seq_044_mvl/mxv
	.byte	W06
	.byte		        69*seq_044_mvl/mxv
	.byte	W05
	.byte		        67*seq_044_mvl/mxv
	.byte	W05
	.byte		        64*seq_044_mvl/mxv
	.byte	W05
	.byte		        62*seq_044_mvl/mxv
	.byte	W06
	.byte		        59*seq_044_mvl/mxv
	.byte	W05
	.byte		        56*seq_044_mvl/mxv
	.byte	W05
	.byte		        54*seq_044_mvl/mxv
	.byte	W06
	.byte		        51*seq_044_mvl/mxv
	.byte	W05
	.byte		        46*seq_044_mvl/mxv
	.byte	W05
	.byte		        40*seq_044_mvl/mxv
	.byte	W05
	.byte		        34*seq_044_mvl/mxv
	.byte	W06
	.byte		        27*seq_044_mvl/mxv
	.byte	W05
	.byte		        21*seq_044_mvl/mxv
	.byte	W05
	.byte		        16*seq_044_mvl/mxv
	.byte	W05
	.byte		EOT   , As2 
	.byte	W01
	.byte	W96
	.byte	W96
	.byte	W44
	.byte	W03
	.byte		VOL   , 71*seq_044_mvl/mxv
	.byte	W01
	.byte		N48   , Gs1 , v120
	.byte	W06
	.byte		VOL   , 74*seq_044_mvl/mxv
	.byte	W07
	.byte		        77*seq_044_mvl/mxv
	.byte	W07
	.byte		        80*seq_044_mvl/mxv
	.byte	W07
	.byte		        83*seq_044_mvl/mxv
	.byte	W06
	.byte		        85*seq_044_mvl/mxv
	.byte	W07
	.byte		        87*seq_044_mvl/mxv
	.byte	W07
	.byte		        90*seq_044_mvl/mxv
	.byte	W01
	.byte		N48   , As1 , v120
	.byte	W06
	.byte		VOL   , 94*seq_044_mvl/mxv
	.byte	W06
	.byte		        97*seq_044_mvl/mxv
	.byte	W07
	.byte		        99*seq_044_mvl/mxv
	.byte	W07
	.byte		        102*seq_044_mvl/mxv
	.byte	W07
	.byte		        104*seq_044_mvl/mxv
	.byte	W06
	.byte		        107*seq_044_mvl/mxv
	.byte	W07
	.byte		        111*seq_044_mvl/mxv
	.byte	W02
	.byte		N72   , Ds2 
	.byte	W05
	.byte		VOL   , 115*seq_044_mvl/mxv
	.byte	W07
	.byte		        110*seq_044_mvl/mxv
	.byte	W03
	.byte		        106*seq_044_mvl/mxv
	.byte	W03
	.byte		        102*seq_044_mvl/mxv
	.byte	W02
	.byte		        100*seq_044_mvl/mxv
	.byte	W02
	.byte		        97*seq_044_mvl/mxv
	.byte	W03
	.byte		        93*seq_044_mvl/mxv
	.byte	W02
	.byte		        90*seq_044_mvl/mxv
	.byte	W02
	.byte		        87*seq_044_mvl/mxv
	.byte	W03
	.byte		        83*seq_044_mvl/mxv
	.byte	W02
	.byte		        80*seq_044_mvl/mxv
	.byte	W02
	.byte		        78*seq_044_mvl/mxv
	.byte	W03
	.byte		        73*seq_044_mvl/mxv
	.byte	W02
	.byte		        70*seq_044_mvl/mxv
	.byte	W02
	.byte		        68*seq_044_mvl/mxv
	.byte	W03
	.byte		        61*seq_044_mvl/mxv
	.byte	W02
	.byte	PEND
	.byte		VOL   , 56*seq_044_mvl/mxv
	.byte	W02
	.byte		        51*seq_044_mvl/mxv
	.byte	W02
	.byte		        47*seq_044_mvl/mxv
	.byte	W02
	.byte		        42*seq_044_mvl/mxv
	.byte	W01
	.byte		        40*seq_044_mvl/mxv
	.byte	W02
	.byte		        35*seq_044_mvl/mxv
	.byte	W02
	.byte		        31*seq_044_mvl/mxv
	.byte	W02
	.byte		        26*seq_044_mvl/mxv
	.byte	W02
	.byte		        21*seq_044_mvl/mxv
	.byte	W01
	.byte		        18*seq_044_mvl/mxv
	.byte	W02
	.byte		        14*seq_044_mvl/mxv
	.byte	W02
	.byte		        9*seq_044_mvl/mxv
	.byte	W02
	.byte		        4*seq_044_mvl/mxv
	.byte	W02
	.byte		        0*seq_044_mvl/mxv
	.byte	W23
	.byte		        71*seq_044_mvl/mxv
	.byte	W01
	.byte		N48   , Gs1 , v120
	.byte	W06
	.byte		VOL   , 74*seq_044_mvl/mxv
	.byte	W07
	.byte		        77*seq_044_mvl/mxv
	.byte	W07
	.byte		        80*seq_044_mvl/mxv
	.byte	W07
	.byte		        83*seq_044_mvl/mxv
	.byte	W06
	.byte		        85*seq_044_mvl/mxv
	.byte	W07
	.byte		        87*seq_044_mvl/mxv
	.byte	W07
	.byte		        90*seq_044_mvl/mxv
	.byte	W01
	.byte	PEND
	.byte		N48   , As1 
	.byte	W06
	.byte		VOL   , 94*seq_044_mvl/mxv
	.byte	W06
	.byte		        97*seq_044_mvl/mxv
	.byte	W07
	.byte		        99*seq_044_mvl/mxv
	.byte	W07
	.byte		        102*seq_044_mvl/mxv
	.byte	W07
	.byte		        104*seq_044_mvl/mxv
	.byte	W06
	.byte		        107*seq_044_mvl/mxv
	.byte	W07
	.byte		        111*seq_044_mvl/mxv
	.byte	W02
	.byte		N72   , Cs2 
	.byte	W05
	.byte		VOL   , 115*seq_044_mvl/mxv
	.byte	W07
	.byte		        110*seq_044_mvl/mxv
	.byte	W03
	.byte		        106*seq_044_mvl/mxv
	.byte	W03
	.byte		        102*seq_044_mvl/mxv
	.byte	W02
	.byte		        100*seq_044_mvl/mxv
	.byte	W02
	.byte		        97*seq_044_mvl/mxv
	.byte	W03
	.byte		        93*seq_044_mvl/mxv
	.byte	W02
	.byte		        90*seq_044_mvl/mxv
	.byte	W02
	.byte		        87*seq_044_mvl/mxv
	.byte	W03
	.byte		        83*seq_044_mvl/mxv
	.byte	W02
	.byte		        80*seq_044_mvl/mxv
	.byte	W02
	.byte		        78*seq_044_mvl/mxv
	.byte	W03
	.byte		        73*seq_044_mvl/mxv
	.byte	W02
	.byte		        70*seq_044_mvl/mxv
	.byte	W02
	.byte		        68*seq_044_mvl/mxv
	.byte	W03
	.byte		        61*seq_044_mvl/mxv
	.byte	W02
	.byte	PATT
	 .word	seq_044_4 + 0x507
	.byte	PATT
	 .word	seq_044_4 + 0x4CF
	.byte	PATT
	 .word	seq_044_4 + 0x507
	.byte		N48   , As1 , v120
	.byte	W06
	.byte		VOL   , 94*seq_044_mvl/mxv
	.byte	W06
	.byte		        97*seq_044_mvl/mxv
	.byte	W07
	.byte		        99*seq_044_mvl/mxv
	.byte	W07
	.byte		        102*seq_044_mvl/mxv
	.byte	W07
	.byte		        104*seq_044_mvl/mxv
	.byte	W06
	.byte		        107*seq_044_mvl/mxv
	.byte	W07
	.byte		        111*seq_044_mvl/mxv
	.byte	W02
	.byte		N48   , Cs2 
	.byte	W05
	.byte		VOL   , 113*seq_044_mvl/mxv
	.byte	W42
	.byte	W01
	.byte		TIE   , Ds2 
	.byte	W96
	.byte	W96
	.byte	W96
	.byte	W96
	.byte	W96
	.byte	W96
	.byte	W96
	.byte	W96
	.byte		EOT
	.byte		N96   , Fn2 
	.byte	W05
	.byte		VOL   , 103*seq_044_mvl/mxv
	.byte		PAN   , c_v-40
	.byte	W90
	.byte	W01
	.byte		N96
	.byte	W96
	.byte	PATT
	 .word	seq_044_4 + 0x392
	.byte	PATT
	 .word	seq_044_4 + 0x399
	.byte	GOTO
	 .word	seq_044_4 + 0x3E8
	.byte W96, W96, W96, W96, W96, W96, W96, W96, W96, W96, W96, W96
	.byte	FINE

@*********************** Track 06 ***********************@

seq_044_5:
	.byte	KEYSH , seq_044_key+0
	.byte	W09
	.byte		VOICE , 4
	.byte		VOL   , 0*seq_044_mvl/mxv
	.byte		PAN   , c_v+20
	.byte	W01
	.byte		MOD   , 25
	.byte		MODT  , mod_tre
	.byte	W24
	.byte	W02
	.byte		TIE   , Dn2 , v100
	.byte	W02
	.byte		VOL   , 3*seq_044_mvl/mxv
	.byte	W02
	.byte		        5*seq_044_mvl/mxv
	.byte	W02
	.byte		        8*seq_044_mvl/mxv
	.byte	W01
	.byte		        10*seq_044_mvl/mxv
	.byte	W02
	.byte		        12*seq_044_mvl/mxv
	.byte	W01
	.byte		        14*seq_044_mvl/mxv
	.byte	W02
	.byte		        17*seq_044_mvl/mxv
	.byte	W01
	.byte		        17*seq_044_mvl/mxv
	.byte	W02
	.byte		        20*seq_044_mvl/mxv
	.byte	W02
	.byte		        23*seq_044_mvl/mxv
	.byte	W01
	.byte		        24*seq_044_mvl/mxv
	.byte	W02
	.byte		        27*seq_044_mvl/mxv
	.byte	W01
	.byte		        28*seq_044_mvl/mxv
	.byte	W02
	.byte		        31*seq_044_mvl/mxv
	.byte	W01
	.byte		        32*seq_044_mvl/mxv
	.byte	W02
	.byte		        34*seq_044_mvl/mxv
	.byte	W02
	.byte		        37*seq_044_mvl/mxv
	.byte	W01
	.byte		        38*seq_044_mvl/mxv
	.byte	W02
	.byte		        41*seq_044_mvl/mxv
	.byte	W01
	.byte		        43*seq_044_mvl/mxv
	.byte	W02
	.byte		        45*seq_044_mvl/mxv
	.byte	W01
	.byte		        47*seq_044_mvl/mxv
	.byte	W02
	.byte		        50*seq_044_mvl/mxv
	.byte	W02
	.byte		        51*seq_044_mvl/mxv
	.byte	W01
	.byte		        53*seq_044_mvl/mxv
	.byte	W02
	.byte		        56*seq_044_mvl/mxv
	.byte	W01
	.byte		        57*seq_044_mvl/mxv
	.byte	W02
	.byte		        60*seq_044_mvl/mxv
	.byte	W01
	.byte		        61*seq_044_mvl/mxv
	.byte	W02
	.byte		        64*seq_044_mvl/mxv
	.byte	W02
	.byte		        67*seq_044_mvl/mxv
	.byte	W01
	.byte		        68*seq_044_mvl/mxv
	.byte	W02
	.byte		        70*seq_044_mvl/mxv
	.byte	W01
	.byte		        71*seq_044_mvl/mxv
	.byte	W02
	.byte		        74*seq_044_mvl/mxv
	.byte	W01
	.byte		        76*seq_044_mvl/mxv
	.byte	W02
	.byte		        78*seq_044_mvl/mxv
	.byte	W02
	.byte		        81*seq_044_mvl/mxv
	.byte	W01
	.byte		        83*seq_044_mvl/mxv
	.byte	W02
	.byte		        85*seq_044_mvl/mxv
	.byte	W01
	.byte		        86*seq_044_mvl/mxv
	.byte	W02
	.byte		        89*seq_044_mvl/mxv
	.byte	W01
	.byte		        90*seq_044_mvl/mxv
	.byte	W02
	.byte		        94*seq_044_mvl/mxv
	.byte	W24
	.byte	W02
	.byte	PEND
	.byte	W09
	.byte		VOL   , 95*seq_044_mvl/mxv
	.byte	W02
	.byte		        94*seq_044_mvl/mxv
	.byte	W02
	.byte		        93*seq_044_mvl/mxv
	.byte	W02
	.byte		        92*seq_044_mvl/mxv
	.byte	W02
	.byte		        91*seq_044_mvl/mxv
	.byte	W02
	.byte		        90*seq_044_mvl/mxv
	.byte	W02
	.byte		        89*seq_044_mvl/mxv
	.byte	W02
	.byte		        88*seq_044_mvl/mxv
	.byte	W01
	.byte		        87*seq_044_mvl/mxv
	.byte	W02
	.byte		        86*seq_044_mvl/mxv
	.byte	W02
	.byte		        85*seq_044_mvl/mxv
	.byte	W02
	.byte		        82*seq_044_mvl/mxv
	.byte	W02
	.byte		        81*seq_044_mvl/mxv
	.byte	W02
	.byte		        79*seq_044_mvl/mxv
	.byte	W02
	.byte		        77*seq_044_mvl/mxv
	.byte	W02
	.byte		        75*seq_044_mvl/mxv
	.byte	W01
	.byte		        75*seq_044_mvl/mxv
	.byte	W02
	.byte		        73*seq_044_mvl/mxv
	.byte	W02
	.byte		        71*seq_044_mvl/mxv
	.byte	W02
	.byte		        69*seq_044_mvl/mxv
	.byte	W02
	.byte		        68*seq_044_mvl/mxv
	.byte	W02
	.byte		        67*seq_044_mvl/mxv
	.byte	W02
	.byte		        65*seq_044_mvl/mxv
	.byte	W02
	.byte		        61*seq_044_mvl/mxv
	.byte	W01
	.byte		        59*seq_044_mvl/mxv
	.byte	W02
	.byte		        56*seq_044_mvl/mxv
	.byte	W02
	.byte		        52*seq_044_mvl/mxv
	.byte	W02
	.byte		        50*seq_044_mvl/mxv
	.byte	W02
	.byte		        47*seq_044_mvl/mxv
	.byte	W02
	.byte		        43*seq_044_mvl/mxv
	.byte	W02
	.byte		        40*seq_044_mvl/mxv
	.byte	W02
	.byte		        35*seq_044_mvl/mxv
	.byte	W01
	.byte		        34*seq_044_mvl/mxv
	.byte	W02
	.byte		        29*seq_044_mvl/mxv
	.byte	W02
	.byte		        24*seq_044_mvl/mxv
	.byte	W02
	.byte		        20*seq_044_mvl/mxv
	.byte	W02
	.byte		        16*seq_044_mvl/mxv
	.byte	W02
	.byte		        11*seq_044_mvl/mxv
	.byte	W02
	.byte		        7*seq_044_mvl/mxv
	.byte	W14
	.byte		        0*seq_044_mvl/mxv
	.byte	W01
	.byte	PEND
	.byte		EOT   , Dn2 
	.byte	PATT
	 .word	seq_044_5 + 0x10
	.byte	PATT
	 .word	seq_044_5 + 0x6F
	.byte		EOT   , Dn2 
	.byte	PATT
	 .word	seq_044_5 + 0x10
	.byte	PATT
	 .word	seq_044_5 + 0x6F
	.byte		EOT   , Dn2 
	.byte	PATT
	 .word	seq_044_5 + 0x10
	.byte	W09
	.byte		VOL   , 95*seq_044_mvl/mxv
	.byte	W02
	.byte		        94*seq_044_mvl/mxv
	.byte	W02
	.byte		        93*seq_044_mvl/mxv
	.byte	W02
	.byte		        92*seq_044_mvl/mxv
	.byte	W02
	.byte		        91*seq_044_mvl/mxv
	.byte	W02
	.byte		        90*seq_044_mvl/mxv
	.byte	W02
	.byte		        89*seq_044_mvl/mxv
	.byte	W02
	.byte		        88*seq_044_mvl/mxv
	.byte	W01
	.byte		        87*seq_044_mvl/mxv
	.byte	W02
	.byte		        86*seq_044_mvl/mxv
	.byte	W02
	.byte		        85*seq_044_mvl/mxv
	.byte	W02
	.byte		        82*seq_044_mvl/mxv
	.byte	W02
	.byte		        81*seq_044_mvl/mxv
	.byte	W02
	.byte		        79*seq_044_mvl/mxv
	.byte	W02
	.byte		        77*seq_044_mvl/mxv
	.byte	W02
	.byte		        75*seq_044_mvl/mxv
	.byte	W01
	.byte		        75*seq_044_mvl/mxv
	.byte	W02
	.byte		        73*seq_044_mvl/mxv
	.byte	W02
	.byte		        71*seq_044_mvl/mxv
	.byte	W02
	.byte		        69*seq_044_mvl/mxv
	.byte	W02
	.byte		        68*seq_044_mvl/mxv
	.byte	W02
	.byte		        67*seq_044_mvl/mxv
	.byte	W02
	.byte		        65*seq_044_mvl/mxv
	.byte	W02
	.byte		        61*seq_044_mvl/mxv
	.byte	W01
	.byte		        59*seq_044_mvl/mxv
	.byte	W02
	.byte		        56*seq_044_mvl/mxv
	.byte	W02
	.byte		        52*seq_044_mvl/mxv
	.byte	W02
	.byte		        50*seq_044_mvl/mxv
	.byte	W02
	.byte		        47*seq_044_mvl/mxv
	.byte	W02
	.byte		        43*seq_044_mvl/mxv
	.byte	W02
	.byte		        40*seq_044_mvl/mxv
	.byte	W02
	.byte		        35*seq_044_mvl/mxv
	.byte	W01
	.byte		        34*seq_044_mvl/mxv
	.byte	W02
	.byte		        29*seq_044_mvl/mxv
	.byte	W02
	.byte		        24*seq_044_mvl/mxv
	.byte	W02
	.byte		        20*seq_044_mvl/mxv
	.byte	W02
	.byte		        16*seq_044_mvl/mxv
	.byte	W02
	.byte		        11*seq_044_mvl/mxv
	.byte	W02
	.byte		        7*seq_044_mvl/mxv
	.byte	W14
	.byte		        0*seq_044_mvl/mxv
	.byte		PAN   , c_v+40
	.byte	W01
	.byte		EOT   , Dn2 
	.byte		TIE   , Gn2 , v120
	.byte	W02
	.byte		VOL   , 3*seq_044_mvl/mxv
	.byte	W02
	.byte		        12*seq_044_mvl/mxv
	.byte	W02
	.byte		        15*seq_044_mvl/mxv
	.byte	W01
	.byte		        17*seq_044_mvl/mxv
	.byte	W02
	.byte		        19*seq_044_mvl/mxv
	.byte	W01
	.byte		        20*seq_044_mvl/mxv
	.byte	W02
	.byte		        23*seq_044_mvl/mxv
	.byte	W01
	.byte		        25*seq_044_mvl/mxv
	.byte	W02
	.byte		        28*seq_044_mvl/mxv
	.byte	W02
	.byte		        31*seq_044_mvl/mxv
	.byte	W01
	.byte		        33*seq_044_mvl/mxv
	.byte	W02
	.byte		        35*seq_044_mvl/mxv
	.byte	W01
	.byte		        36*seq_044_mvl/mxv
	.byte	W02
	.byte		        39*seq_044_mvl/mxv
	.byte	W01
	.byte		        41*seq_044_mvl/mxv
	.byte	W02
	.byte		        44*seq_044_mvl/mxv
	.byte	W02
	.byte		        47*seq_044_mvl/mxv
	.byte	W01
	.byte		        49*seq_044_mvl/mxv
	.byte	W02
	.byte		        51*seq_044_mvl/mxv
	.byte	W01
	.byte		        52*seq_044_mvl/mxv
	.byte	W02
	.byte		        55*seq_044_mvl/mxv
	.byte	W01
	.byte		        57*seq_044_mvl/mxv
	.byte	W02
	.byte		        60*seq_044_mvl/mxv
	.byte	W02
	.byte		        63*seq_044_mvl/mxv
	.byte	W01
	.byte		        65*seq_044_mvl/mxv
	.byte	W02
	.byte		        68*seq_044_mvl/mxv
	.byte	W01
	.byte		        68*seq_044_mvl/mxv
	.byte	W02
	.byte		        71*seq_044_mvl/mxv
	.byte	W01
	.byte		        73*seq_044_mvl/mxv
	.byte	W02
	.byte		        76*seq_044_mvl/mxv
	.byte	W02
	.byte		        79*seq_044_mvl/mxv
	.byte	W01
	.byte		        81*seq_044_mvl/mxv
	.byte	W02
	.byte		        84*seq_044_mvl/mxv
	.byte	W01
	.byte		        85*seq_044_mvl/mxv
	.byte	W02
	.byte		        87*seq_044_mvl/mxv
	.byte	W01
	.byte		        89*seq_044_mvl/mxv
	.byte	W02
	.byte		        92*seq_044_mvl/mxv
	.byte	W02
	.byte		        95*seq_044_mvl/mxv
	.byte	W01
	.byte		        97*seq_044_mvl/mxv
	.byte	W02
	.byte		        100*seq_044_mvl/mxv
	.byte	W01
	.byte		        101*seq_044_mvl/mxv
	.byte	W02
	.byte		        103*seq_044_mvl/mxv
	.byte	W01
	.byte		        105*seq_044_mvl/mxv
	.byte	W02
	.byte		        108*seq_044_mvl/mxv
	.byte	W24
	.byte	W02
	.byte	PEND
	.byte	W09
	.byte		VOL   , 103*seq_044_mvl/mxv
	.byte	W02
	.byte		        102*seq_044_mvl/mxv
	.byte	W02
	.byte		        102*seq_044_mvl/mxv
	.byte	W02
	.byte		        101*seq_044_mvl/mxv
	.byte	W02
	.byte		        100*seq_044_mvl/mxv
	.byte	W02
	.byte		        99*seq_044_mvl/mxv
	.byte	W02
	.byte		        98*seq_044_mvl/mxv
	.byte	W02
	.byte		        97*seq_044_mvl/mxv
	.byte	W01
	.byte		        96*seq_044_mvl/mxv
	.byte	W02
	.byte		        95*seq_044_mvl/mxv
	.byte	W02
	.byte		        94*seq_044_mvl/mxv
	.byte	W02
	.byte		        93*seq_044_mvl/mxv
	.byte	W02
	.byte		        92*seq_044_mvl/mxv
	.byte	W02
	.byte		        91*seq_044_mvl/mxv
	.byte	W02
	.byte		        90*seq_044_mvl/mxv
	.byte	W02
	.byte		        89*seq_044_mvl/mxv
	.byte	W01
	.byte		        88*seq_044_mvl/mxv
	.byte	W02
	.byte		        86*seq_044_mvl/mxv
	.byte	W02
	.byte		        84*seq_044_mvl/mxv
	.byte	W02
	.byte		        82*seq_044_mvl/mxv
	.byte	W02
	.byte		        79*seq_044_mvl/mxv
	.byte	W02
	.byte		        77*seq_044_mvl/mxv
	.byte	W02
	.byte		        74*seq_044_mvl/mxv
	.byte	W02
	.byte		        72*seq_044_mvl/mxv
	.byte	W01
	.byte		        70*seq_044_mvl/mxv
	.byte	W02
	.byte		        68*seq_044_mvl/mxv
	.byte	W02
	.byte		        66*seq_044_mvl/mxv
	.byte	W02
	.byte		        64*seq_044_mvl/mxv
	.byte	W02
	.byte		        59*seq_044_mvl/mxv
	.byte	W02
	.byte		        54*seq_044_mvl/mxv
	.byte	W02
	.byte		        51*seq_044_mvl/mxv
	.byte	W02
	.byte		        46*seq_044_mvl/mxv
	.byte	W01
	.byte		        44*seq_044_mvl/mxv
	.byte	W02
	.byte		        39*seq_044_mvl/mxv
	.byte	W02
	.byte		        34*seq_044_mvl/mxv
	.byte	W02
	.byte		        31*seq_044_mvl/mxv
	.byte	W02
	.byte		        26*seq_044_mvl/mxv
	.byte	W02
	.byte		        21*seq_044_mvl/mxv
	.byte	W02
	.byte		        17*seq_044_mvl/mxv
	.byte	W14
	.byte		        0*seq_044_mvl/mxv
	.byte		PAN   , c_v+40
	.byte	W01
	.byte	PEND
	.byte		EOT   , Gn2 
	.byte	PATT
	 .word	seq_044_5 + 0x137
	.byte	PATT
	 .word	seq_044_5 + 0x196
	.byte		EOT   , Gn2 
	.byte	PATT
	 .word	seq_044_5 + 0x137
	.byte	PATT
	 .word	seq_044_5 + 0x196
	.byte		EOT   , Gn2 
	.byte	PATT
	 .word	seq_044_5 + 0x137
	.byte	W72
	.byte	W01
	.byte		VOL   , 102*seq_044_mvl/mxv
	.byte	W02
	.byte		        102*seq_044_mvl/mxv
	.byte	W02
	.byte		        101*seq_044_mvl/mxv
	.byte	W02
	.byte		        100*seq_044_mvl/mxv
	.byte	W02
	.byte		        99*seq_044_mvl/mxv
	.byte	W02
	.byte		        98*seq_044_mvl/mxv
	.byte	W02
	.byte		        97*seq_044_mvl/mxv
	.byte	W02
	.byte		        96*seq_044_mvl/mxv
	.byte	W02
	.byte		        95*seq_044_mvl/mxv
	.byte	W01
	.byte		        94*seq_044_mvl/mxv
	.byte	W02
	.byte		        93*seq_044_mvl/mxv
	.byte	W02
	.byte		        92*seq_044_mvl/mxv
	.byte	W02
	.byte		        91*seq_044_mvl/mxv
	.byte	W02
	.byte		        90*seq_044_mvl/mxv
	.byte	W02
	.byte		        89*seq_044_mvl/mxv
	.byte	W02
	.byte		        88*seq_044_mvl/mxv
	.byte	W02
	.byte		        87*seq_044_mvl/mxv
	.byte	W02
	.byte		        86*seq_044_mvl/mxv
	.byte	W01
	.byte		        84*seq_044_mvl/mxv
	.byte	W02
	.byte		        81*seq_044_mvl/mxv
	.byte	W02
	.byte		        78*seq_044_mvl/mxv
	.byte	W02
	.byte		        74*seq_044_mvl/mxv
	.byte	W02
	.byte		        71*seq_044_mvl/mxv
	.byte	W02
	.byte		        68*seq_044_mvl/mxv
	.byte	W02
	.byte		        65*seq_044_mvl/mxv
	.byte	W02
	.byte		        61*seq_044_mvl/mxv
	.byte	W02
	.byte		        58*seq_044_mvl/mxv
	.byte	W01
	.byte		        56*seq_044_mvl/mxv
	.byte	W02
	.byte		        53*seq_044_mvl/mxv
	.byte	W02
	.byte		        50*seq_044_mvl/mxv
	.byte	W02
	.byte		        47*seq_044_mvl/mxv
	.byte	W02
	.byte		        44*seq_044_mvl/mxv
	.byte	W02
	.byte		        40*seq_044_mvl/mxv
	.byte	W02
	.byte		        37*seq_044_mvl/mxv
	.byte	W02
	.byte		        34*seq_044_mvl/mxv
	.byte	W05
	.byte		VOICE , 95
	.byte		MOD   , 25
	.byte		VOL   , 71*seq_044_mvl/mxv
	.byte		PAN   , c_v+20
	.byte		MODT  , mod_pan
	.byte	W01
	.byte		EOT   , Gn2 
	.byte		N48   , Gn1 , v096
	.byte	W06
	.byte		VOL   , 74*seq_044_mvl/mxv
	.byte	W07
	.byte		        77*seq_044_mvl/mxv
	.byte	W07
	.byte		        80*seq_044_mvl/mxv
	.byte	W07
	.byte		        83*seq_044_mvl/mxv
	.byte	W06
	.byte		        85*seq_044_mvl/mxv
	.byte	W07
	.byte		        87*seq_044_mvl/mxv
	.byte	W07
	.byte		        90*seq_044_mvl/mxv
	.byte	W01
	.byte		N48   , An1 
	.byte	W06
	.byte		VOL   , 94*seq_044_mvl/mxv
	.byte	W06
	.byte		        97*seq_044_mvl/mxv
	.byte	W07
	.byte		        99*seq_044_mvl/mxv
	.byte	W07
	.byte		        102*seq_044_mvl/mxv
	.byte	W07
	.byte		        104*seq_044_mvl/mxv
	.byte	W06
	.byte		        107*seq_044_mvl/mxv
	.byte	W07
	.byte		        111*seq_044_mvl/mxv
	.byte	W02
	.byte		N72   , Dn2 
	.byte	W05
	.byte		VOL   , 115*seq_044_mvl/mxv
	.byte	W07
	.byte		        110*seq_044_mvl/mxv
	.byte	W03
	.byte		        106*seq_044_mvl/mxv
	.byte	W03
	.byte		        102*seq_044_mvl/mxv
	.byte	W02
	.byte		        100*seq_044_mvl/mxv
	.byte	W02
	.byte		        97*seq_044_mvl/mxv
	.byte	W03
	.byte		        93*seq_044_mvl/mxv
	.byte	W02
	.byte		        90*seq_044_mvl/mxv
	.byte	W02
	.byte		        87*seq_044_mvl/mxv
	.byte	W03
	.byte		        83*seq_044_mvl/mxv
	.byte	W02
	.byte		        80*seq_044_mvl/mxv
	.byte	W02
	.byte		        78*seq_044_mvl/mxv
	.byte	W03
	.byte		        73*seq_044_mvl/mxv
	.byte	W02
	.byte		        70*seq_044_mvl/mxv
	.byte	W02
	.byte		        68*seq_044_mvl/mxv
	.byte	W03
	.byte		        61*seq_044_mvl/mxv
	.byte	W02
	.byte		        56*seq_044_mvl/mxv
	.byte	W02
	.byte		        51*seq_044_mvl/mxv
	.byte	W02
	.byte		        47*seq_044_mvl/mxv
	.byte	W02
	.byte		        42*seq_044_mvl/mxv
	.byte	W01
	.byte		        40*seq_044_mvl/mxv
	.byte	W02
	.byte		        35*seq_044_mvl/mxv
	.byte	W02
	.byte		        31*seq_044_mvl/mxv
	.byte	W02
	.byte		        26*seq_044_mvl/mxv
	.byte	W02
	.byte		        21*seq_044_mvl/mxv
	.byte	W01
	.byte		        18*seq_044_mvl/mxv
	.byte	W02
	.byte		        14*seq_044_mvl/mxv
	.byte	W02
	.byte		        9*seq_044_mvl/mxv
	.byte	W02
	.byte		        4*seq_044_mvl/mxv
	.byte	W02
	.byte		        0*seq_044_mvl/mxv
	.byte	W23
	.byte		        71*seq_044_mvl/mxv
	.byte	W01
	.byte		N48   , Gn1 
	.byte	W06
	.byte		VOL   , 74*seq_044_mvl/mxv
	.byte	W07
	.byte		        77*seq_044_mvl/mxv
	.byte	W07
	.byte		        80*seq_044_mvl/mxv
	.byte	W07
	.byte		        83*seq_044_mvl/mxv
	.byte	W06
	.byte		        85*seq_044_mvl/mxv
	.byte	W07
	.byte		        87*seq_044_mvl/mxv
	.byte	W07
	.byte		        90*seq_044_mvl/mxv
	.byte	W01
	.byte		N48   , An1 
	.byte	W06
	.byte		VOL   , 94*seq_044_mvl/mxv
	.byte	W06
	.byte		        97*seq_044_mvl/mxv
	.byte	W07
	.byte		        99*seq_044_mvl/mxv
	.byte	W07
	.byte		        100*seq_044_mvl/mxv
	.byte	W07
	.byte		        98*seq_044_mvl/mxv
	.byte	W06
	.byte		        94*seq_044_mvl/mxv
	.byte	W07
	.byte		        90*seq_044_mvl/mxv
	.byte	W02
	.byte		N48   , Cn2 
	.byte	W05
	.byte		VOL   , 85*seq_044_mvl/mxv
	.byte	W07
	.byte		        79*seq_044_mvl/mxv
	.byte	W03
	.byte		        74*seq_044_mvl/mxv
	.byte	W03
	.byte		        71*seq_044_mvl/mxv
	.byte	W02
	.byte		        68*seq_044_mvl/mxv
	.byte	W02
	.byte		        65*seq_044_mvl/mxv
	.byte	W03
	.byte		        60*seq_044_mvl/mxv
	.byte	W02
	.byte		        57*seq_044_mvl/mxv
	.byte	W02
	.byte		        52*seq_044_mvl/mxv
	.byte	W03
	.byte		        44*seq_044_mvl/mxv
	.byte	W02
	.byte		        39*seq_044_mvl/mxv
	.byte	W02
	.byte		        37*seq_044_mvl/mxv
	.byte	W03
	.byte		        30*seq_044_mvl/mxv
	.byte	W02
	.byte		        27*seq_044_mvl/mxv
	.byte	W02
	.byte		        23*seq_044_mvl/mxv
	.byte	W03
	.byte		        11*seq_044_mvl/mxv
	.byte	W02
	.byte		        13*seq_044_mvl/mxv
	.byte		N72   , As1 , v072
	.byte	W02
	.byte		VOL   , 15*seq_044_mvl/mxv
	.byte	W02
	.byte		        19*seq_044_mvl/mxv
	.byte	W02
	.byte		        22*seq_044_mvl/mxv
	.byte	W01
	.byte		        24*seq_044_mvl/mxv
	.byte	W02
	.byte		        28*seq_044_mvl/mxv
	.byte	W02
	.byte		        31*seq_044_mvl/mxv
	.byte	W02
	.byte		        34*seq_044_mvl/mxv
	.byte	W02
	.byte		        38*seq_044_mvl/mxv
	.byte	W01
	.byte		        40*seq_044_mvl/mxv
	.byte	W02
	.byte		        43*seq_044_mvl/mxv
	.byte	W02
	.byte		        47*seq_044_mvl/mxv
	.byte	W02
	.byte		        51*seq_044_mvl/mxv
	.byte	W02
	.byte		        54*seq_044_mvl/mxv
	.byte	W02
	.byte		        57*seq_044_mvl/mxv
	.byte	W02
	.byte		        61*seq_044_mvl/mxv
	.byte	W02
	.byte		        65*seq_044_mvl/mxv
	.byte	W01
	.byte		        67*seq_044_mvl/mxv
	.byte	W02
	.byte		        69*seq_044_mvl/mxv
	.byte	W02
	.byte		        73*seq_044_mvl/mxv
	.byte	W02
	.byte		        77*seq_044_mvl/mxv
	.byte	W02
	.byte		        59*seq_044_mvl/mxv
	.byte	W01
	.byte		        80*seq_044_mvl/mxv
	.byte	W02
	.byte		        82*seq_044_mvl/mxv
	.byte	W02
	.byte		        84*seq_044_mvl/mxv
	.byte	W02
	.byte		        85*seq_044_mvl/mxv
	.byte	W02
	.byte		        87*seq_044_mvl/mxv
	.byte	W02
	.byte		        89*seq_044_mvl/mxv
	.byte	W02
	.byte		        91*seq_044_mvl/mxv
	.byte	W02
	.byte		        93*seq_044_mvl/mxv
	.byte	W01
	.byte		        94*seq_044_mvl/mxv
	.byte	W02
	.byte		        96*seq_044_mvl/mxv
	.byte	W02
	.byte		        98*seq_044_mvl/mxv
	.byte	W02
	.byte		        100*seq_044_mvl/mxv
	.byte	W02
	.byte		        102*seq_044_mvl/mxv
	.byte	W01
	.byte		        102*seq_044_mvl/mxv
	.byte	W02
	.byte		        100*seq_044_mvl/mxv
	.byte	W02
	.byte		        98*seq_044_mvl/mxv
	.byte	W02
	.byte		        96*seq_044_mvl/mxv
	.byte	W02
	.byte		        94*seq_044_mvl/mxv
	.byte	W01
	.byte		        92*seq_044_mvl/mxv
	.byte	W02
	.byte		        90*seq_044_mvl/mxv
	.byte	W02
	.byte		        88*seq_044_mvl/mxv
	.byte	W02
	.byte		        86*seq_044_mvl/mxv
	.byte	W02
	.byte		        84*seq_044_mvl/mxv
	.byte	W01
	.byte		        82*seq_044_mvl/mxv
	.byte	W02
	.byte		        77*seq_044_mvl/mxv
	.byte	W02
	.byte		        72*seq_044_mvl/mxv
	.byte	W02
	.byte		        68*seq_044_mvl/mxv
	.byte	W02
	.byte		        63*seq_044_mvl/mxv
	.byte	W05
	.byte		        103*seq_044_mvl/mxv
	.byte	W01
	.byte		N24   , Ds2 , v120
	.byte	W24
	.byte		        Fs2 
	.byte	W24
	.byte		        Fn2 
	.byte	W24
	.byte		        Gs2 
	.byte	W24
	.byte		TIE   , Fn2 
	.byte	W05
	.byte		PAN   , c_v+40
	.byte	W90
	.byte	W01
	.byte	W96
	.byte	W96
	.byte	W96
	.byte		EOT
	.byte		N96   , As1 
	.byte	W96
	.byte		N96
	.byte	W96
	.byte		N48   , Cn2 , v120
	.byte	W48
	.byte		        Ds2 
	.byte	W48
	.byte	PEND
	.byte		N48   , Ds2 , v120
	.byte	W48
	.byte		        Cs2 
	.byte	W48
	.byte	PEND
	.byte		N92   , As1 
	.byte	W96
	.byte		N92
	.byte	W96
	.byte		N44   , Cn2 
	.byte	W48
	.byte		        Ds2 
	.byte	W48
	.byte		N44
	.byte	W48
	.byte		        Cs2 
	.byte	W48
	.byte		TIE   , Cs2 , v100
	.byte	W05
	.byte		PAN   , c_v+0
	.byte	W90
	.byte	W01
	.byte	PEND
	.byte	W96
	.byte		EOT
	.byte		N96   , Ds2 
	.byte	W96
	.byte		N24   , As1 , v120
	.byte	W24
	.byte		        Ds2 
	.byte	W24
	.byte		        Cs2 
	.byte	W24
	.byte		        Fn2 
	.byte	W24
	.byte	PEND
	.byte		TIE   , Cs2 , v100
	.byte	W96
	.byte	W96
	.byte		EOT
	.byte		N96   , Ds2 
	.byte	W96
	.byte	PATT
	 .word	seq_044_5 + 0x3BD
	.byte		N96   , As1 , v120
	.byte	W05
	.byte		PAN   , c_v+40
	.byte	W90
	.byte	W01
	.byte		N96
	.byte	W96
	.byte	PATT
	 .word	seq_044_5 + 0x393
	.byte	PATT
	 .word	seq_044_5 + 0x39A
	.byte		N96   , As1 , v120
	.byte	W96
	.byte		N96
	.byte	W96
	.byte	PATT
	 .word	seq_044_5 + 0x393
	.byte	PATT
	 .word	seq_044_5 + 0x39A
	.byte	PATT
	 .word	seq_044_5 + 0x3AF
	.byte	W96
	.byte		EOT   , Cs2 
	.byte		N96   , Ds2 , v100
	.byte	W96
	.byte	PATT
	 .word	seq_044_5 + 0x3BD
	.byte		TIE   , Cs2 , v100
	.byte	W96
	.byte	W96
	.byte		EOT
	.byte		N96   , Ds2 
	.byte	W92
	.byte	W03
	.byte		VOL   , 103*seq_044_mvl/mxv
	.byte	W01
	.byte		N24   , As1 , v060
	.byte	W05
	.byte		PAN   , c_v+30
	.byte	W19
	.byte		N24   , Fs2 , v112
	.byte	W24
	.byte		        Fn2 , v072
	.byte	W24
	.byte		        Gs2 , v112
	.byte	W24
	.byte		TIE   , Ds2 , v112
	.byte	W01
	.byte		VOL   , 95*seq_044_mvl/mxv
	.byte	W06
	.byte		        94*seq_044_mvl/mxv
	.byte	W05
	.byte		        93*seq_044_mvl/mxv
	.byte	W05
	.byte		        92*seq_044_mvl/mxv
	.byte	W06
	.byte		        91*seq_044_mvl/mxv
	.byte	W05
	.byte		        90*seq_044_mvl/mxv
	.byte	W05
	.byte		        89*seq_044_mvl/mxv
	.byte	W05
	.byte		        88*seq_044_mvl/mxv
	.byte	W06
	.byte		        87*seq_044_mvl/mxv
	.byte	W05
	.byte		        86*seq_044_mvl/mxv
	.byte	W05
	.byte		        85*seq_044_mvl/mxv
	.byte	W06
	.byte		        85*seq_044_mvl/mxv
	.byte	W05
	.byte		        84*seq_044_mvl/mxv
	.byte	W05
	.byte		        83*seq_044_mvl/mxv
	.byte	W05
	.byte		        82*seq_044_mvl/mxv
	.byte	W06
	.byte		        81*seq_044_mvl/mxv
	.byte	W05
	.byte		        80*seq_044_mvl/mxv
	.byte	W05
	.byte		        79*seq_044_mvl/mxv
	.byte	W05
	.byte	PEND
	.byte		        78*seq_044_mvl/mxv
	.byte	W06
	.byte		        77*seq_044_mvl/mxv
	.byte	W05
	.byte		        74*seq_044_mvl/mxv
	.byte	W05
	.byte		        72*seq_044_mvl/mxv
	.byte	W06
	.byte		        69*seq_044_mvl/mxv
	.byte	W05
	.byte		        67*seq_044_mvl/mxv
	.byte	W05
	.byte		        64*seq_044_mvl/mxv
	.byte	W05
	.byte		        62*seq_044_mvl/mxv
	.byte	W06
	.byte		        59*seq_044_mvl/mxv
	.byte	W05
	.byte		        56*seq_044_mvl/mxv
	.byte	W05
	.byte		        54*seq_044_mvl/mxv
	.byte	W06
	.byte		        51*seq_044_mvl/mxv
	.byte	W05
	.byte		        46*seq_044_mvl/mxv
	.byte	W05
	.byte		        40*seq_044_mvl/mxv
	.byte	W05
	.byte		        34*seq_044_mvl/mxv
	.byte	W06
	.byte		        27*seq_044_mvl/mxv
	.byte	W05
	.byte		        21*seq_044_mvl/mxv
	.byte	W05
	.byte		        16*seq_044_mvl/mxv
	.byte	W06
	.byte	W92
	.byte	W03
	.byte		        103*seq_044_mvl/mxv
	.byte	W01
	.byte		EOT
	.byte		N24   , As1 , v060
	.byte	W24
	.byte		        Fs2 , v112
	.byte	W24
	.byte		        Fn2 , v072
	.byte	W24
	.byte		        Gs2 , v112
	.byte	W24
	.byte	PATT
	 .word	seq_044_5 + 0x429
	.byte		VOL   , 78*seq_044_mvl/mxv
	.byte	W06
	.byte		        77*seq_044_mvl/mxv
	.byte	W05
	.byte		        74*seq_044_mvl/mxv
	.byte	W05
	.byte		        72*seq_044_mvl/mxv
	.byte	W06
	.byte		        69*seq_044_mvl/mxv
	.byte	W05
	.byte		        67*seq_044_mvl/mxv
	.byte	W05
	.byte		        64*seq_044_mvl/mxv
	.byte	W05
	.byte		        62*seq_044_mvl/mxv
	.byte	W06
	.byte		        59*seq_044_mvl/mxv
	.byte	W05
	.byte		        56*seq_044_mvl/mxv
	.byte	W05
	.byte		        54*seq_044_mvl/mxv
	.byte	W06
	.byte		        51*seq_044_mvl/mxv
	.byte	W05
	.byte		        46*seq_044_mvl/mxv
	.byte	W05
	.byte		        40*seq_044_mvl/mxv
	.byte	W05
	.byte		        34*seq_044_mvl/mxv
	.byte	W06
	.byte		        27*seq_044_mvl/mxv
	.byte	W05
	.byte		        21*seq_044_mvl/mxv
	.byte	W05
	.byte		        16*seq_044_mvl/mxv
	.byte	W05
	.byte		EOT   , Ds2 
	.byte	W01
	.byte	W96
	.byte	W96
	.byte	W44
	.byte	W03
	.byte		VOL   , 71*seq_044_mvl/mxv
	.byte	W01
	.byte		N48   , Ds1 , v120
	.byte	W06
	.byte		VOL   , 74*seq_044_mvl/mxv
	.byte	W07
	.byte		        77*seq_044_mvl/mxv
	.byte	W07
	.byte		        80*seq_044_mvl/mxv
	.byte	W07
	.byte		        83*seq_044_mvl/mxv
	.byte	W06
	.byte		        85*seq_044_mvl/mxv
	.byte	W07
	.byte		        87*seq_044_mvl/mxv
	.byte	W07
	.byte		        90*seq_044_mvl/mxv
	.byte	W01
	.byte		N48   , Fn1 , v120
	.byte	W06
	.byte		VOL   , 94*seq_044_mvl/mxv
	.byte	W06
	.byte		        97*seq_044_mvl/mxv
	.byte	W07
	.byte		        99*seq_044_mvl/mxv
	.byte	W07
	.byte		        102*seq_044_mvl/mxv
	.byte	W07
	.byte		        104*seq_044_mvl/mxv
	.byte	W06
	.byte		        107*seq_044_mvl/mxv
	.byte	W07
	.byte		        111*seq_044_mvl/mxv
	.byte	W02
	.byte		N72   , As1 
	.byte	W05
	.byte		VOL   , 115*seq_044_mvl/mxv
	.byte	W07
	.byte		        110*seq_044_mvl/mxv
	.byte	W03
	.byte		        106*seq_044_mvl/mxv
	.byte	W03
	.byte		        102*seq_044_mvl/mxv
	.byte	W02
	.byte		        100*seq_044_mvl/mxv
	.byte	W02
	.byte		        97*seq_044_mvl/mxv
	.byte	W03
	.byte		        93*seq_044_mvl/mxv
	.byte	W02
	.byte		        90*seq_044_mvl/mxv
	.byte	W02
	.byte		        87*seq_044_mvl/mxv
	.byte	W03
	.byte		        83*seq_044_mvl/mxv
	.byte	W02
	.byte		        80*seq_044_mvl/mxv
	.byte	W02
	.byte		        78*seq_044_mvl/mxv
	.byte	W03
	.byte		        73*seq_044_mvl/mxv
	.byte	W02
	.byte		        70*seq_044_mvl/mxv
	.byte	W02
	.byte		        68*seq_044_mvl/mxv
	.byte	W03
	.byte		        61*seq_044_mvl/mxv
	.byte	W02
	.byte	PEND
	.byte		VOL   , 56*seq_044_mvl/mxv
	.byte	W02
	.byte		        51*seq_044_mvl/mxv
	.byte	W02
	.byte		        47*seq_044_mvl/mxv
	.byte	W02
	.byte		        42*seq_044_mvl/mxv
	.byte	W01
	.byte		        40*seq_044_mvl/mxv
	.byte	W02
	.byte		        35*seq_044_mvl/mxv
	.byte	W02
	.byte		        31*seq_044_mvl/mxv
	.byte	W02
	.byte		        26*seq_044_mvl/mxv
	.byte	W02
	.byte		        21*seq_044_mvl/mxv
	.byte	W01
	.byte		        18*seq_044_mvl/mxv
	.byte	W02
	.byte		        14*seq_044_mvl/mxv
	.byte	W02
	.byte		        9*seq_044_mvl/mxv
	.byte	W02
	.byte		        4*seq_044_mvl/mxv
	.byte	W02
	.byte		        0*seq_044_mvl/mxv
	.byte	W23
	.byte		        71*seq_044_mvl/mxv
	.byte	W01
	.byte		N48   , Ds1 , v120
	.byte	W06
	.byte		VOL   , 74*seq_044_mvl/mxv
	.byte	W07
	.byte		        77*seq_044_mvl/mxv
	.byte	W07
	.byte		        80*seq_044_mvl/mxv
	.byte	W07
	.byte		        83*seq_044_mvl/mxv
	.byte	W06
	.byte		        85*seq_044_mvl/mxv
	.byte	W07
	.byte		        87*seq_044_mvl/mxv
	.byte	W07
	.byte		        90*seq_044_mvl/mxv
	.byte	W01
	.byte	PEND
	.byte		N48   , Fn1 
	.byte	W06
	.byte		VOL   , 94*seq_044_mvl/mxv
	.byte	W06
	.byte		        97*seq_044_mvl/mxv
	.byte	W07
	.byte		        99*seq_044_mvl/mxv
	.byte	W07
	.byte		        102*seq_044_mvl/mxv
	.byte	W07
	.byte		        104*seq_044_mvl/mxv
	.byte	W06
	.byte		        107*seq_044_mvl/mxv
	.byte	W07
	.byte		        111*seq_044_mvl/mxv
	.byte	W02
	.byte		N72   , Gs1 
	.byte	W05
	.byte		VOL   , 115*seq_044_mvl/mxv
	.byte	W07
	.byte		        110*seq_044_mvl/mxv
	.byte	W03
	.byte		        106*seq_044_mvl/mxv
	.byte	W03
	.byte		        102*seq_044_mvl/mxv
	.byte	W02
	.byte		        100*seq_044_mvl/mxv
	.byte	W02
	.byte		        97*seq_044_mvl/mxv
	.byte	W03
	.byte		        93*seq_044_mvl/mxv
	.byte	W02
	.byte		        90*seq_044_mvl/mxv
	.byte	W02
	.byte		        87*seq_044_mvl/mxv
	.byte	W03
	.byte		        83*seq_044_mvl/mxv
	.byte	W02
	.byte		        80*seq_044_mvl/mxv
	.byte	W02
	.byte		        78*seq_044_mvl/mxv
	.byte	W03
	.byte		        73*seq_044_mvl/mxv
	.byte	W02
	.byte		        70*seq_044_mvl/mxv
	.byte	W02
	.byte		        68*seq_044_mvl/mxv
	.byte	W03
	.byte		        61*seq_044_mvl/mxv
	.byte	W02
	.byte	PATT
	 .word	seq_044_5 + 0x508
	.byte	PATT
	 .word	seq_044_5 + 0x4D0
	.byte	PATT
	 .word	seq_044_5 + 0x508
	.byte		N48   , Fn1 , v120
	.byte	W06
	.byte		VOL   , 94*seq_044_mvl/mxv
	.byte	W06
	.byte		        97*seq_044_mvl/mxv
	.byte	W07
	.byte		        99*seq_044_mvl/mxv
	.byte	W07
	.byte		        102*seq_044_mvl/mxv
	.byte	W07
	.byte		        104*seq_044_mvl/mxv
	.byte	W06
	.byte		        107*seq_044_mvl/mxv
	.byte	W07
	.byte		        111*seq_044_mvl/mxv
	.byte	W02
	.byte		N48   , Gs1 
	.byte	W05
	.byte		VOL   , 113*seq_044_mvl/mxv
	.byte	W42
	.byte	W01
	.byte		TIE   , As1 
	.byte	W96
	.byte	W96
	.byte	W96
	.byte	W96
	.byte	W96
	.byte	W96
	.byte	W96
	.byte	W96
	.byte		EOT
	.byte		N96
	.byte	W05
	.byte		VOL   , 103*seq_044_mvl/mxv
	.byte		PAN   , c_v+40
	.byte	W90
	.byte	W01
	.byte		N96
	.byte	W96
	.byte	PATT
	 .word	seq_044_5 + 0x393
	.byte	PATT
	 .word	seq_044_5 + 0x39A
	.byte	GOTO
	 .word	seq_044_5 + 0x3EA
	.byte W96, W96, W96, W96, W96, W96, W96, W96, W96, W96, W96, W96
	.byte	FINE

@*********************** Track 07 ***********************@

seq_044_6:
	.byte	KEYSH , seq_044_key+0
	.byte	W10
	.byte		MODT  , mod_tre
	.byte	W01
	.byte		VOICE , 81
	.byte		MOD   , 0
	.byte		LFOS  , 90
	.byte	W01
	.byte		VOL   , 66*seq_044_mvl/mxv
	.byte		PAN   , c_v+0
	.byte	W24
	.byte	W96
	.byte	W96
	.byte	W96
	.byte	W96
	.byte	W96
	.byte	W96
	.byte	W96
	.byte	W92
	.byte	W03
	.byte		VOL   , 0*seq_044_mvl/mxv
	.byte	W01
	.byte		TIE   , An2 , v080
	.byte	W02
	.byte		VOL   , 0*seq_044_mvl/mxv
	.byte	W02
	.byte		        1*seq_044_mvl/mxv
	.byte	W02
	.byte		        3*seq_044_mvl/mxv
	.byte	W01
	.byte		        3*seq_044_mvl/mxv
	.byte	W02
	.byte		        5*seq_044_mvl/mxv
	.byte	W01
	.byte		        5*seq_044_mvl/mxv
	.byte	W02
	.byte		        7*seq_044_mvl/mxv
	.byte	W01
	.byte		        7*seq_044_mvl/mxv
	.byte	W02
	.byte		        9*seq_044_mvl/mxv
	.byte	W02
	.byte		        10*seq_044_mvl/mxv
	.byte	W01
	.byte		        11*seq_044_mvl/mxv
	.byte	W02
	.byte		        12*seq_044_mvl/mxv
	.byte	W01
	.byte		        13*seq_044_mvl/mxv
	.byte	W02
	.byte		        14*seq_044_mvl/mxv
	.byte	W01
	.byte		        15*seq_044_mvl/mxv
	.byte	W02
	.byte		        17*seq_044_mvl/mxv
	.byte	W02
	.byte		        17*seq_044_mvl/mxv
	.byte	W01
	.byte		        18*seq_044_mvl/mxv
	.byte	W02
	.byte		        19*seq_044_mvl/mxv
	.byte	W01
	.byte		        20*seq_044_mvl/mxv
	.byte	W02
	.byte		        21*seq_044_mvl/mxv
	.byte	W01
	.byte		        22*seq_044_mvl/mxv
	.byte	W02
	.byte		        23*seq_044_mvl/mxv
	.byte	W02
	.byte		        25*seq_044_mvl/mxv
	.byte	W01
	.byte		        25*seq_044_mvl/mxv
	.byte	W02
	.byte		        27*seq_044_mvl/mxv
	.byte	W01
	.byte		        27*seq_044_mvl/mxv
	.byte	W02
	.byte		        29*seq_044_mvl/mxv
	.byte	W01
	.byte		        30*seq_044_mvl/mxv
	.byte	W02
	.byte		        31*seq_044_mvl/mxv
	.byte	W02
	.byte		        32*seq_044_mvl/mxv
	.byte	W01
	.byte		        33*seq_044_mvl/mxv
	.byte	W02
	.byte		        34*seq_044_mvl/mxv
	.byte	W01
	.byte		        34*seq_044_mvl/mxv
	.byte	W02
	.byte		        36*seq_044_mvl/mxv
	.byte	W01
	.byte		        36*seq_044_mvl/mxv
	.byte	W02
	.byte		        38*seq_044_mvl/mxv
	.byte	W02
	.byte		        39*seq_044_mvl/mxv
	.byte	W01
	.byte		        40*seq_044_mvl/mxv
	.byte	W02
	.byte		        41*seq_044_mvl/mxv
	.byte	W01
	.byte		        42*seq_044_mvl/mxv
	.byte	W02
	.byte		        43*seq_044_mvl/mxv
	.byte	W01
	.byte		        44*seq_044_mvl/mxv
	.byte	W02
	.byte		        45*seq_044_mvl/mxv
	.byte	W04
	.byte		        48*seq_044_mvl/mxv
	.byte	W01
	.byte		        49*seq_044_mvl/mxv
	.byte	W02
	.byte		        50*seq_044_mvl/mxv
	.byte	W01
	.byte		        51*seq_044_mvl/mxv
	.byte	W02
	.byte		        51*seq_044_mvl/mxv
	.byte	W01
	.byte		        52*seq_044_mvl/mxv
	.byte	W02
	.byte		        53*seq_044_mvl/mxv
	.byte	W02
	.byte		        55*seq_044_mvl/mxv
	.byte	W01
	.byte		        56*seq_044_mvl/mxv
	.byte	W02
	.byte		        57*seq_044_mvl/mxv
	.byte	W01
	.byte		        58*seq_044_mvl/mxv
	.byte	W02
	.byte		        59*seq_044_mvl/mxv
	.byte	W01
	.byte		        60*seq_044_mvl/mxv
	.byte	W02
	.byte		        61*seq_044_mvl/mxv
	.byte	W02
	.byte	PEND
	.byte	W36
	.byte	W02
	.byte		VOL   , 58*seq_044_mvl/mxv
	.byte	W03
	.byte		        57*seq_044_mvl/mxv
	.byte	W02
	.byte		        56*seq_044_mvl/mxv
	.byte	W03
	.byte		        55*seq_044_mvl/mxv
	.byte	W02
	.byte		        54*seq_044_mvl/mxv
	.byte	W03
	.byte		        53*seq_044_mvl/mxv
	.byte	W02
	.byte		        52*seq_044_mvl/mxv
	.byte	W03
	.byte		        51*seq_044_mvl/mxv
	.byte	W05
	.byte		        49*seq_044_mvl/mxv
	.byte	W02
	.byte		        47*seq_044_mvl/mxv
	.byte	W02
	.byte		        45*seq_044_mvl/mxv
	.byte	W01
	.byte		        44*seq_044_mvl/mxv
	.byte	W02
	.byte		        42*seq_044_mvl/mxv
	.byte	W02
	.byte		        40*seq_044_mvl/mxv
	.byte	W02
	.byte		        38*seq_044_mvl/mxv
	.byte	W02
	.byte		        34*seq_044_mvl/mxv
	.byte	W02
	.byte		        32*seq_044_mvl/mxv
	.byte	W02
	.byte		        29*seq_044_mvl/mxv
	.byte	W02
	.byte		        25*seq_044_mvl/mxv
	.byte	W01
	.byte		        24*seq_044_mvl/mxv
	.byte	W02
	.byte		        20*seq_044_mvl/mxv
	.byte	W02
	.byte		        17*seq_044_mvl/mxv
	.byte	W02
	.byte		        15*seq_044_mvl/mxv
	.byte	W02
	.byte		        11*seq_044_mvl/mxv
	.byte	W02
	.byte		        8*seq_044_mvl/mxv
	.byte	W02
	.byte		        4*seq_044_mvl/mxv
	.byte	W02
	.byte		        0*seq_044_mvl/mxv
	.byte	W01
	.byte	PEND
	.byte		EOT   , An2 
	.byte		TIE   , Bn2 , v080
	.byte	W02
	.byte		VOL   , 0*seq_044_mvl/mxv
	.byte	W02
	.byte		        1*seq_044_mvl/mxv
	.byte	W02
	.byte		        3*seq_044_mvl/mxv
	.byte	W01
	.byte		        3*seq_044_mvl/mxv
	.byte	W02
	.byte		        5*seq_044_mvl/mxv
	.byte	W01
	.byte		        5*seq_044_mvl/mxv
	.byte	W02
	.byte		        7*seq_044_mvl/mxv
	.byte	W01
	.byte		        7*seq_044_mvl/mxv
	.byte	W02
	.byte		        9*seq_044_mvl/mxv
	.byte	W02
	.byte		        10*seq_044_mvl/mxv
	.byte	W01
	.byte		        11*seq_044_mvl/mxv
	.byte	W02
	.byte		        12*seq_044_mvl/mxv
	.byte	W01
	.byte		        13*seq_044_mvl/mxv
	.byte	W02
	.byte		        14*seq_044_mvl/mxv
	.byte	W01
	.byte		        15*seq_044_mvl/mxv
	.byte	W02
	.byte		        17*seq_044_mvl/mxv
	.byte	W02
	.byte		        17*seq_044_mvl/mxv
	.byte	W01
	.byte		        18*seq_044_mvl/mxv
	.byte	W02
	.byte		        19*seq_044_mvl/mxv
	.byte	W01
	.byte		        20*seq_044_mvl/mxv
	.byte	W02
	.byte		        21*seq_044_mvl/mxv
	.byte	W01
	.byte		        22*seq_044_mvl/mxv
	.byte	W02
	.byte		        23*seq_044_mvl/mxv
	.byte	W02
	.byte		        25*seq_044_mvl/mxv
	.byte	W01
	.byte		        25*seq_044_mvl/mxv
	.byte	W02
	.byte		        27*seq_044_mvl/mxv
	.byte	W01
	.byte		        27*seq_044_mvl/mxv
	.byte	W02
	.byte		        29*seq_044_mvl/mxv
	.byte	W01
	.byte		        30*seq_044_mvl/mxv
	.byte	W02
	.byte		        31*seq_044_mvl/mxv
	.byte	W02
	.byte		        32*seq_044_mvl/mxv
	.byte	W01
	.byte		        33*seq_044_mvl/mxv
	.byte	W02
	.byte		        34*seq_044_mvl/mxv
	.byte	W01
	.byte		        34*seq_044_mvl/mxv
	.byte	W02
	.byte		        36*seq_044_mvl/mxv
	.byte	W01
	.byte		        36*seq_044_mvl/mxv
	.byte	W02
	.byte		        38*seq_044_mvl/mxv
	.byte	W02
	.byte		        39*seq_044_mvl/mxv
	.byte	W01
	.byte		        40*seq_044_mvl/mxv
	.byte	W02
	.byte		        41*seq_044_mvl/mxv
	.byte	W01
	.byte		        42*seq_044_mvl/mxv
	.byte	W02
	.byte		        43*seq_044_mvl/mxv
	.byte	W01
	.byte		        44*seq_044_mvl/mxv
	.byte	W02
	.byte		        45*seq_044_mvl/mxv
	.byte	W04
	.byte		        48*seq_044_mvl/mxv
	.byte	W01
	.byte		        49*seq_044_mvl/mxv
	.byte	W02
	.byte		        50*seq_044_mvl/mxv
	.byte	W01
	.byte		        51*seq_044_mvl/mxv
	.byte	W02
	.byte		        51*seq_044_mvl/mxv
	.byte	W01
	.byte		        52*seq_044_mvl/mxv
	.byte	W02
	.byte		        53*seq_044_mvl/mxv
	.byte	W02
	.byte		        55*seq_044_mvl/mxv
	.byte	W01
	.byte		        56*seq_044_mvl/mxv
	.byte	W02
	.byte		        57*seq_044_mvl/mxv
	.byte	W01
	.byte		        58*seq_044_mvl/mxv
	.byte	W02
	.byte		        59*seq_044_mvl/mxv
	.byte	W01
	.byte		        60*seq_044_mvl/mxv
	.byte	W02
	.byte		        61*seq_044_mvl/mxv
	.byte	W02
	.byte	PEND
	.byte	PATT
	 .word	seq_044_6 + 0x98
	.byte		EOT   , Bn2 
	.byte	PATT
	 .word	seq_044_6 + 0x1E
	.byte	PATT
	 .word	seq_044_6 + 0x98
	.byte		EOT   , An2 
	.byte	PATT
	 .word	seq_044_6 + 0xD4
	.byte	PATT
	 .word	seq_044_6 + 0x98
	.byte		EOT   , Bn2 
	.byte		TIE   , As2 , v080
	.byte	W02
	.byte		VOL   , 0*seq_044_mvl/mxv
	.byte	W02
	.byte		        1*seq_044_mvl/mxv
	.byte	W02
	.byte		        3*seq_044_mvl/mxv
	.byte	W01
	.byte		        3*seq_044_mvl/mxv
	.byte	W02
	.byte		        5*seq_044_mvl/mxv
	.byte	W01
	.byte		        5*seq_044_mvl/mxv
	.byte	W02
	.byte		        7*seq_044_mvl/mxv
	.byte	W01
	.byte		        7*seq_044_mvl/mxv
	.byte	W02
	.byte		        9*seq_044_mvl/mxv
	.byte	W02
	.byte		        10*seq_044_mvl/mxv
	.byte	W01
	.byte		        11*seq_044_mvl/mxv
	.byte	W02
	.byte		        12*seq_044_mvl/mxv
	.byte	W01
	.byte		        13*seq_044_mvl/mxv
	.byte	W02
	.byte		        14*seq_044_mvl/mxv
	.byte	W01
	.byte		        15*seq_044_mvl/mxv
	.byte	W02
	.byte		        17*seq_044_mvl/mxv
	.byte	W02
	.byte		        17*seq_044_mvl/mxv
	.byte	W01
	.byte		        18*seq_044_mvl/mxv
	.byte	W02
	.byte		        19*seq_044_mvl/mxv
	.byte	W01
	.byte		        20*seq_044_mvl/mxv
	.byte	W02
	.byte		        21*seq_044_mvl/mxv
	.byte	W01
	.byte		        22*seq_044_mvl/mxv
	.byte	W02
	.byte		        23*seq_044_mvl/mxv
	.byte	W02
	.byte		        25*seq_044_mvl/mxv
	.byte	W01
	.byte		        25*seq_044_mvl/mxv
	.byte	W02
	.byte		        27*seq_044_mvl/mxv
	.byte	W01
	.byte		        27*seq_044_mvl/mxv
	.byte	W02
	.byte		        29*seq_044_mvl/mxv
	.byte	W01
	.byte		        30*seq_044_mvl/mxv
	.byte	W02
	.byte		        31*seq_044_mvl/mxv
	.byte	W02
	.byte		        32*seq_044_mvl/mxv
	.byte	W01
	.byte		        33*seq_044_mvl/mxv
	.byte	W02
	.byte		        34*seq_044_mvl/mxv
	.byte	W01
	.byte		        34*seq_044_mvl/mxv
	.byte	W02
	.byte		        36*seq_044_mvl/mxv
	.byte	W01
	.byte		        36*seq_044_mvl/mxv
	.byte	W02
	.byte		        38*seq_044_mvl/mxv
	.byte	W02
	.byte		        39*seq_044_mvl/mxv
	.byte	W01
	.byte		        40*seq_044_mvl/mxv
	.byte	W02
	.byte		        41*seq_044_mvl/mxv
	.byte	W01
	.byte		        42*seq_044_mvl/mxv
	.byte	W02
	.byte		        43*seq_044_mvl/mxv
	.byte	W01
	.byte		        44*seq_044_mvl/mxv
	.byte	W02
	.byte		        45*seq_044_mvl/mxv
	.byte	W04
	.byte		        48*seq_044_mvl/mxv
	.byte	W01
	.byte		        49*seq_044_mvl/mxv
	.byte	W02
	.byte		        50*seq_044_mvl/mxv
	.byte	W01
	.byte		        51*seq_044_mvl/mxv
	.byte	W02
	.byte		        51*seq_044_mvl/mxv
	.byte	W01
	.byte		        52*seq_044_mvl/mxv
	.byte	W02
	.byte		        53*seq_044_mvl/mxv
	.byte	W02
	.byte		        55*seq_044_mvl/mxv
	.byte	W01
	.byte		        56*seq_044_mvl/mxv
	.byte	W02
	.byte		        57*seq_044_mvl/mxv
	.byte	W01
	.byte		        58*seq_044_mvl/mxv
	.byte	W02
	.byte		        59*seq_044_mvl/mxv
	.byte	W01
	.byte		        60*seq_044_mvl/mxv
	.byte	W02
	.byte		        61*seq_044_mvl/mxv
	.byte	W02
	.byte	W72
	.byte		VOL   , 57*seq_044_mvl/mxv
	.byte	W02
	.byte		        53*seq_044_mvl/mxv
	.byte	W02
	.byte		        49*seq_044_mvl/mxv
	.byte	W02
	.byte		        44*seq_044_mvl/mxv
	.byte	W02
	.byte		        40*seq_044_mvl/mxv
	.byte	W01
	.byte		        37*seq_044_mvl/mxv
	.byte	W02
	.byte		        34*seq_044_mvl/mxv
	.byte	W02
	.byte		        29*seq_044_mvl/mxv
	.byte	W02
	.byte		        24*seq_044_mvl/mxv
	.byte	W02
	.byte		        20*seq_044_mvl/mxv
	.byte	W02
	.byte		        16*seq_044_mvl/mxv
	.byte	W02
	.byte		        11*seq_044_mvl/mxv
	.byte	W02
	.byte		        0*seq_044_mvl/mxv
	.byte	W01
	.byte	PEND
	.byte		EOT   , As2 
	.byte	PATT
	 .word	seq_044_6 + 0x1E
	.byte	PATT
	 .word	seq_044_6 + 0x1E6
	.byte		EOT   , An2 
	.byte		N48   , Gs2 , v100
	.byte	W02
	.byte		VOL   , 0*seq_044_mvl/mxv
	.byte	W02
	.byte		        2*seq_044_mvl/mxv
	.byte	W02
	.byte		        4*seq_044_mvl/mxv
	.byte	W01
	.byte		        5*seq_044_mvl/mxv
	.byte	W02
	.byte		        6*seq_044_mvl/mxv
	.byte	W01
	.byte		        7*seq_044_mvl/mxv
	.byte	W02
	.byte		        9*seq_044_mvl/mxv
	.byte	W01
	.byte		        10*seq_044_mvl/mxv
	.byte	W02
	.byte		        11*seq_044_mvl/mxv
	.byte	W02
	.byte		        13*seq_044_mvl/mxv
	.byte	W01
	.byte		        14*seq_044_mvl/mxv
	.byte	W02
	.byte		        15*seq_044_mvl/mxv
	.byte	W01
	.byte		        16*seq_044_mvl/mxv
	.byte	W02
	.byte		        17*seq_044_mvl/mxv
	.byte	W01
	.byte		        17*seq_044_mvl/mxv
	.byte	W02
	.byte		        19*seq_044_mvl/mxv
	.byte	W02
	.byte		        21*seq_044_mvl/mxv
	.byte	W01
	.byte		        21*seq_044_mvl/mxv
	.byte	W02
	.byte		        23*seq_044_mvl/mxv
	.byte	W01
	.byte		        24*seq_044_mvl/mxv
	.byte	W02
	.byte		        25*seq_044_mvl/mxv
	.byte	W01
	.byte		        26*seq_044_mvl/mxv
	.byte	W02
	.byte		        28*seq_044_mvl/mxv
	.byte	W02
	.byte		        30*seq_044_mvl/mxv
	.byte	W01
	.byte		        30*seq_044_mvl/mxv
	.byte	W02
	.byte		        32*seq_044_mvl/mxv
	.byte	W01
	.byte		        33*seq_044_mvl/mxv
	.byte	W02
	.byte		        34*seq_044_mvl/mxv
	.byte	W01
	.byte		        34*seq_044_mvl/mxv
	.byte	W02
	.byte		        36*seq_044_mvl/mxv
	.byte		N48   , Gn2 
	.byte	W02
	.byte		VOL   , 37*seq_044_mvl/mxv
	.byte	W01
	.byte		        38*seq_044_mvl/mxv
	.byte	W02
	.byte		        40*seq_044_mvl/mxv
	.byte	W01
	.byte		        41*seq_044_mvl/mxv
	.byte	W02
	.byte		        42*seq_044_mvl/mxv
	.byte	W01
	.byte		        43*seq_044_mvl/mxv
	.byte	W02
	.byte		        45*seq_044_mvl/mxv
	.byte	W02
	.byte		        46*seq_044_mvl/mxv
	.byte	W01
	.byte		        47*seq_044_mvl/mxv
	.byte	W02
	.byte		        49*seq_044_mvl/mxv
	.byte	W01
	.byte		        49*seq_044_mvl/mxv
	.byte	W02
	.byte		        51*seq_044_mvl/mxv
	.byte	W01
	.byte		        51*seq_044_mvl/mxv
	.byte	W02
	.byte		        53*seq_044_mvl/mxv
	.byte	W02
	.byte		        57*seq_044_mvl/mxv
	.byte	W24
	.byte		N48   , Fs2 
	.byte	W48
	.byte		        Fn2 
	.byte	W44
	.byte	W03
	.byte		VOICE , 74
	.byte		VOL   , 113*seq_044_mvl/mxv
	.byte	W01
	.byte		N05   , As3 , v076
	.byte	W16
	.byte		        As3 , v032
	.byte	W08
	.byte		        As3 , v076
	.byte	W16
	.byte		        As3 , v032
	.byte	W08
	.byte		        As3 , v076
	.byte	W16
	.byte		        As3 , v032
	.byte	W08
	.byte		        As3 , v076
	.byte	W16
	.byte		        As3 , v032
	.byte	W08
	.byte	PEND
	.byte	PATT
	 .word	seq_044_6 + 0x27E
	.byte	PATT
	 .word	seq_044_6 + 0x27E
	.byte		N05   , As3 , v076
	.byte	W16
	.byte		        As3 , v032
	.byte	W08
	.byte		        As3 , v076
	.byte	W16
	.byte		        As3 , v032
	.byte	W08
	.byte		        As3 , v076
	.byte	W16
	.byte		        As3 , v032
	.byte	W08
	.byte		        As3 , v076
	.byte	W16
	.byte		        As3 , v032
	.byte	W07
	.byte		VOICE , 74
	.byte		VOL   , 113*seq_044_mvl/mxv
	.byte	W01
	.byte		N05   , Ds3 , v088
	.byte	W16
	.byte		        Ds3 , v040
	.byte	W08
	.byte		        Ds3 , v088
	.byte	W16
	.byte		        Ds3 , v040
	.byte	W08
	.byte		        Ds3 , v088
	.byte	W16
	.byte		        Ds3 , v040
	.byte	W08
	.byte		        Ds3 , v088
	.byte	W16
	.byte		        Ds3 , v040
	.byte	W08
	.byte	PEND
	.byte		N05   , Cs3 , v088
	.byte	W16
	.byte		        Cs3 , v040
	.byte	W08
	.byte		        Cs3 , v088
	.byte	W16
	.byte		        Cs3 , v040
	.byte	W08
	.byte		        Cs3 , v088
	.byte	W16
	.byte		        Cs3 , v040
	.byte	W08
	.byte		        Cs3 , v088
	.byte	W16
	.byte		        Cs3 , v040
	.byte	W08
	.byte	PEND
	.byte		N05   , Cn3 , v088
	.byte	W16
	.byte		        Cn3 , v040
	.byte	W08
	.byte		        Cn3 , v088
	.byte	W16
	.byte		        Cn3 , v040
	.byte	W08
	.byte		        Cn3 , v088
	.byte	W16
	.byte		        Cn3 , v040
	.byte	W08
	.byte		        Cn3 , v088
	.byte	W16
	.byte		        Cn3 , v040
	.byte	W08
	.byte	PEND
	.byte		N05   , As2 , v088
	.byte	W16
	.byte		        As2 , v040
	.byte	W08
	.byte		        As2 , v088
	.byte	W16
	.byte		        As2 , v040
	.byte	W08
	.byte		        Gs2 , v088
	.byte	W16
	.byte		        Gs2 , v040
	.byte	W08
	.byte		        Gs2 , v088
	.byte	W16
	.byte		        Gs2 , v040
	.byte	W08
	.byte	PEND
	.byte	PATT
	 .word	seq_044_6 + 0x2C0
	.byte	PATT
	 .word	seq_044_6 + 0x2DA
	.byte	PATT
	 .word	seq_044_6 + 0x2F4
	.byte		N05   , As2 , v088
	.byte	W16
	.byte		        As2 , v040
	.byte	W08
	.byte		        As2 , v088
	.byte	W16
	.byte		        As2 , v040
	.byte	W08
	.byte		        Gs2 , v088
	.byte	W16
	.byte		        Gs2 , v040
	.byte	W08
	.byte		        Gs2 , v088
	.byte	W16
	.byte		        Gs2 , v040
	.byte	W07
	.byte		VOICE , 81
	.byte		VOL   , 56*seq_044_mvl/mxv
	.byte	W01
	.byte	PEND
	.byte		TIE   , Fs3 , v108
	.byte	W96
	.byte	W96
	.byte		EOT
	.byte		TIE   , Cs3 
	.byte	W96
	.byte	W96
	.byte		EOT
	.byte		TIE   , Fs3 
	.byte	W96
	.byte	W96
	.byte		EOT
	.byte		TIE   , Cs3 
	.byte	W96
	.byte	W92
	.byte	W03
	.byte		VOICE , 74
	.byte		VOL   , 113*seq_044_mvl/mxv
	.byte	W01
	.byte		EOT
	.byte	PATT
	 .word	seq_044_6 + 0x2C0
	.byte	PATT
	 .word	seq_044_6 + 0x2DA
	.byte	PATT
	 .word	seq_044_6 + 0x2F4
	.byte	PATT
	 .word	seq_044_6 + 0x30E
	.byte	PATT
	 .word	seq_044_6 + 0x2C0
	.byte	PATT
	 .word	seq_044_6 + 0x2DA
	.byte	PATT
	 .word	seq_044_6 + 0x2F4
	.byte	PATT
	 .word	seq_044_6 + 0x337
	.byte		TIE   , Fs3 , v108
	.byte	W96
	.byte	W96
	.byte		EOT
	.byte		TIE   , Cs3 
	.byte	W96
	.byte	W96
	.byte		EOT
	.byte		TIE   , Fs3 
	.byte	W96
	.byte	W96
	.byte		EOT
	.byte		TIE   , Cs3 
	.byte	W96
	.byte	PATT
	 .word	seq_044_6 + 0x98
	.byte		EOT   , Cs3 
	.byte		TIE   , Fs3 , v112
	.byte	W02
	.byte		VOL   , 0*seq_044_mvl/mxv
	.byte	W02
	.byte		        1*seq_044_mvl/mxv
	.byte	W02
	.byte		        3*seq_044_mvl/mxv
	.byte	W01
	.byte		        3*seq_044_mvl/mxv
	.byte	W02
	.byte		        5*seq_044_mvl/mxv
	.byte	W01
	.byte		        5*seq_044_mvl/mxv
	.byte	W02
	.byte		        7*seq_044_mvl/mxv
	.byte	W01
	.byte		        7*seq_044_mvl/mxv
	.byte	W02
	.byte		        9*seq_044_mvl/mxv
	.byte	W02
	.byte		        10*seq_044_mvl/mxv
	.byte	W01
	.byte		        11*seq_044_mvl/mxv
	.byte	W02
	.byte		        12*seq_044_mvl/mxv
	.byte	W01
	.byte		        13*seq_044_mvl/mxv
	.byte	W02
	.byte		        14*seq_044_mvl/mxv
	.byte	W01
	.byte		        15*seq_044_mvl/mxv
	.byte	W02
	.byte		        17*seq_044_mvl/mxv
	.byte	W02
	.byte		        17*seq_044_mvl/mxv
	.byte	W01
	.byte		        18*seq_044_mvl/mxv
	.byte	W02
	.byte		        19*seq_044_mvl/mxv
	.byte	W01
	.byte		        20*seq_044_mvl/mxv
	.byte	W02
	.byte		        21*seq_044_mvl/mxv
	.byte	W01
	.byte		        22*seq_044_mvl/mxv
	.byte	W02
	.byte		        23*seq_044_mvl/mxv
	.byte	W02
	.byte		        25*seq_044_mvl/mxv
	.byte	W01
	.byte		        25*seq_044_mvl/mxv
	.byte	W02
	.byte		        27*seq_044_mvl/mxv
	.byte	W01
	.byte		        27*seq_044_mvl/mxv
	.byte	W02
	.byte		        29*seq_044_mvl/mxv
	.byte	W01
	.byte		        30*seq_044_mvl/mxv
	.byte	W02
	.byte		        31*seq_044_mvl/mxv
	.byte	W02
	.byte		        32*seq_044_mvl/mxv
	.byte	W01
	.byte		        33*seq_044_mvl/mxv
	.byte	W02
	.byte		        34*seq_044_mvl/mxv
	.byte	W01
	.byte		        34*seq_044_mvl/mxv
	.byte	W02
	.byte		        36*seq_044_mvl/mxv
	.byte	W01
	.byte		        36*seq_044_mvl/mxv
	.byte	W02
	.byte		        38*seq_044_mvl/mxv
	.byte	W02
	.byte		        39*seq_044_mvl/mxv
	.byte	W01
	.byte		        40*seq_044_mvl/mxv
	.byte	W02
	.byte		        41*seq_044_mvl/mxv
	.byte	W01
	.byte		        42*seq_044_mvl/mxv
	.byte	W02
	.byte		        43*seq_044_mvl/mxv
	.byte	W01
	.byte		        44*seq_044_mvl/mxv
	.byte	W02
	.byte		        45*seq_044_mvl/mxv
	.byte	W04
	.byte		        48*seq_044_mvl/mxv
	.byte	W01
	.byte		        49*seq_044_mvl/mxv
	.byte	W02
	.byte		        50*seq_044_mvl/mxv
	.byte	W01
	.byte		        51*seq_044_mvl/mxv
	.byte	W02
	.byte		        51*seq_044_mvl/mxv
	.byte	W01
	.byte		        52*seq_044_mvl/mxv
	.byte	W02
	.byte		        53*seq_044_mvl/mxv
	.byte	W02
	.byte		        55*seq_044_mvl/mxv
	.byte	W01
	.byte		        56*seq_044_mvl/mxv
	.byte	W02
	.byte		        57*seq_044_mvl/mxv
	.byte	W01
	.byte		        58*seq_044_mvl/mxv
	.byte	W02
	.byte		        59*seq_044_mvl/mxv
	.byte	W01
	.byte		        60*seq_044_mvl/mxv
	.byte	W02
	.byte		        61*seq_044_mvl/mxv
	.byte	W02
	.byte	PEND
	.byte	PATT
	 .word	seq_044_6 + 0x98
	.byte		EOT   , Fs3 
	.byte		TIE   , Gs3 , v112
	.byte	W02
	.byte		VOL   , 0*seq_044_mvl/mxv
	.byte	W02
	.byte		        1*seq_044_mvl/mxv
	.byte	W02
	.byte		        3*seq_044_mvl/mxv
	.byte	W01
	.byte		        3*seq_044_mvl/mxv
	.byte	W02
	.byte		        5*seq_044_mvl/mxv
	.byte	W01
	.byte		        5*seq_044_mvl/mxv
	.byte	W02
	.byte		        7*seq_044_mvl/mxv
	.byte	W01
	.byte		        7*seq_044_mvl/mxv
	.byte	W02
	.byte		        9*seq_044_mvl/mxv
	.byte	W02
	.byte		        10*seq_044_mvl/mxv
	.byte	W01
	.byte		        11*seq_044_mvl/mxv
	.byte	W02
	.byte		        12*seq_044_mvl/mxv
	.byte	W01
	.byte		        13*seq_044_mvl/mxv
	.byte	W02
	.byte		        14*seq_044_mvl/mxv
	.byte	W01
	.byte		        15*seq_044_mvl/mxv
	.byte	W02
	.byte		        17*seq_044_mvl/mxv
	.byte	W02
	.byte		        17*seq_044_mvl/mxv
	.byte	W01
	.byte		        18*seq_044_mvl/mxv
	.byte	W02
	.byte		        19*seq_044_mvl/mxv
	.byte	W01
	.byte		        20*seq_044_mvl/mxv
	.byte	W02
	.byte		        21*seq_044_mvl/mxv
	.byte	W01
	.byte		        22*seq_044_mvl/mxv
	.byte	W02
	.byte		        23*seq_044_mvl/mxv
	.byte	W02
	.byte		        25*seq_044_mvl/mxv
	.byte	W01
	.byte		        25*seq_044_mvl/mxv
	.byte	W02
	.byte		        27*seq_044_mvl/mxv
	.byte	W01
	.byte		        27*seq_044_mvl/mxv
	.byte	W02
	.byte		        29*seq_044_mvl/mxv
	.byte	W01
	.byte		        30*seq_044_mvl/mxv
	.byte	W02
	.byte		        31*seq_044_mvl/mxv
	.byte	W02
	.byte		        32*seq_044_mvl/mxv
	.byte	W01
	.byte		        33*seq_044_mvl/mxv
	.byte	W02
	.byte		        34*seq_044_mvl/mxv
	.byte	W01
	.byte		        34*seq_044_mvl/mxv
	.byte	W02
	.byte		        36*seq_044_mvl/mxv
	.byte	W01
	.byte		        36*seq_044_mvl/mxv
	.byte	W02
	.byte		        38*seq_044_mvl/mxv
	.byte	W02
	.byte		        39*seq_044_mvl/mxv
	.byte	W01
	.byte		        40*seq_044_mvl/mxv
	.byte	W02
	.byte		        41*seq_044_mvl/mxv
	.byte	W01
	.byte		        42*seq_044_mvl/mxv
	.byte	W02
	.byte		        43*seq_044_mvl/mxv
	.byte	W01
	.byte		        44*seq_044_mvl/mxv
	.byte	W02
	.byte		        45*seq_044_mvl/mxv
	.byte	W04
	.byte		        48*seq_044_mvl/mxv
	.byte	W01
	.byte		        49*seq_044_mvl/mxv
	.byte	W02
	.byte		        50*seq_044_mvl/mxv
	.byte	W01
	.byte		        51*seq_044_mvl/mxv
	.byte	W02
	.byte		        51*seq_044_mvl/mxv
	.byte	W01
	.byte		        52*seq_044_mvl/mxv
	.byte	W02
	.byte		        53*seq_044_mvl/mxv
	.byte	W02
	.byte		        55*seq_044_mvl/mxv
	.byte	W01
	.byte		        56*seq_044_mvl/mxv
	.byte	W02
	.byte		        57*seq_044_mvl/mxv
	.byte	W01
	.byte		        58*seq_044_mvl/mxv
	.byte	W02
	.byte		        59*seq_044_mvl/mxv
	.byte	W01
	.byte		        60*seq_044_mvl/mxv
	.byte	W02
	.byte		        61*seq_044_mvl/mxv
	.byte	W02
	.byte	PEND
	.byte	PATT
	 .word	seq_044_6 + 0x98
	.byte		EOT   , Gs3 
	.byte	PATT
	 .word	seq_044_6 + 0x3B3
	.byte	PATT
	 .word	seq_044_6 + 0x98
	.byte		EOT   , Fs3 
	.byte	PATT
	 .word	seq_044_6 + 0x434
	.byte	PATT
	 .word	seq_044_6 + 0x98
	.byte		EOT   , Gs3 
	.byte	PATT
	 .word	seq_044_6 + 0x3B3
	.byte	PATT
	 .word	seq_044_6 + 0x98
	.byte		EOT   , Fs3 
	.byte	PATT
	 .word	seq_044_6 + 0x434
	.byte	PATT
	 .word	seq_044_6 + 0x98
	.byte		EOT   , Gs3 
	.byte	PATT
	 .word	seq_044_6 + 0x3B3
	.byte	PATT
	 .word	seq_044_6 + 0x98
	.byte		EOT   , Fs3 
	.byte	PATT
	 .word	seq_044_6 + 0x434
	.byte	W36
	.byte	W02
	.byte		VOL   , 58*seq_044_mvl/mxv
	.byte	W03
	.byte		        57*seq_044_mvl/mxv
	.byte	W02
	.byte		        56*seq_044_mvl/mxv
	.byte	W03
	.byte		        55*seq_044_mvl/mxv
	.byte	W02
	.byte		        54*seq_044_mvl/mxv
	.byte	W03
	.byte		        53*seq_044_mvl/mxv
	.byte	W02
	.byte		        52*seq_044_mvl/mxv
	.byte	W03
	.byte		        51*seq_044_mvl/mxv
	.byte	W05
	.byte		        49*seq_044_mvl/mxv
	.byte	W02
	.byte		        47*seq_044_mvl/mxv
	.byte	W02
	.byte		        45*seq_044_mvl/mxv
	.byte	W01
	.byte		        44*seq_044_mvl/mxv
	.byte	W02
	.byte		        42*seq_044_mvl/mxv
	.byte	W02
	.byte		        40*seq_044_mvl/mxv
	.byte	W02
	.byte		        38*seq_044_mvl/mxv
	.byte	W02
	.byte		        34*seq_044_mvl/mxv
	.byte	W02
	.byte		        32*seq_044_mvl/mxv
	.byte	W02
	.byte		        29*seq_044_mvl/mxv
	.byte	W02
	.byte		        25*seq_044_mvl/mxv
	.byte	W01
	.byte		        24*seq_044_mvl/mxv
	.byte	W02
	.byte		        20*seq_044_mvl/mxv
	.byte	W02
	.byte		        17*seq_044_mvl/mxv
	.byte	W02
	.byte		        15*seq_044_mvl/mxv
	.byte	W02
	.byte		        11*seq_044_mvl/mxv
	.byte	W02
	.byte		        8*seq_044_mvl/mxv
	.byte	W02
	.byte		        4*seq_044_mvl/mxv
	.byte	W02
	.byte		VOICE , 74
	.byte		VOL   , 113*seq_044_mvl/mxv
	.byte	W01
	.byte		EOT   , Gs3 
	.byte		N05   , As2 , v088
	.byte	W16
	.byte		        As2 , v040
	.byte	W08
	.byte		        As2 , v088
	.byte	W16
	.byte		        As2 , v040
	.byte	W08
	.byte		        As2 , v088
	.byte	W16
	.byte		        As2 , v040
	.byte	W08
	.byte		        As2 , v088
	.byte	W16
	.byte		        As2 , v040
	.byte	W08
	.byte	PEND
	.byte	PATT
	 .word	seq_044_6 + 0x2DA
	.byte	PATT
	 .word	seq_044_6 + 0x2C0
	.byte		N05   , Ds3 , v088
	.byte	W16
	.byte		        Ds3 , v040
	.byte	W08
	.byte		        Ds3 , v088
	.byte	W16
	.byte		        Ds3 , v040
	.byte	W08
	.byte		        Cs3 , v088
	.byte	W16
	.byte		        Cs3 , v040
	.byte	W08
	.byte		        Cs3 , v088
	.byte	W16
	.byte		        Cs3 , v040
	.byte	W08
	.byte	PATT
	 .word	seq_044_6 + 0x534
	.byte	PATT
	 .word	seq_044_6 + 0x2DA
	.byte	PATT
	 .word	seq_044_6 + 0x2C0
	.byte		N05   , Ds3 , v088
	.byte	W16
	.byte		        Ds3 , v040
	.byte	W08
	.byte		        Ds3 , v088
	.byte	W16
	.byte		        Ds3 , v040
	.byte	W08
	.byte		        Cs3 , v088
	.byte	W16
	.byte		        Cs3 , v040
	.byte	W08
	.byte		        Cs3 , v088
	.byte	W16
	.byte		        Cs3 , v040
	.byte	W07
	.byte		VOICE , 74
	.byte		VOL   , 113*seq_044_mvl/mxv
	.byte	W01
	.byte	PATT
	 .word	seq_044_6 + 0x2C0
	.byte	PATT
	 .word	seq_044_6 + 0x2DA
	.byte	PATT
	 .word	seq_044_6 + 0x2F4
	.byte	PATT
	 .word	seq_044_6 + 0x30E
	.byte	GOTO
	 .word	seq_044_6 + 0x385
	.byte W96, W96, W96, W96, W96, W96, W96, W96, W96, W96, W96, W96
	.byte	FINE

@*********************** Track 08 ***********************@

seq_044_7:
	.byte	KEYSH , seq_044_key+0
	.byte	W12
	.byte		VOICE , 82
	.byte	W01
	.byte		MOD   , 0
	.byte		VOL   , 66*seq_044_mvl/mxv
	.byte		LFOS  , 90
	.byte	W01
	.byte		PAN   , c_v+0
	.byte		MODT  , mod_pan
	.byte	W22
	.byte	W96
	.byte	W96
	.byte	W96
	.byte	W96
	.byte	W96
	.byte	W96
	.byte	W96
	.byte	W92
	.byte	W03
	.byte		VOL   , 0*seq_044_mvl/mxv
	.byte	W01
	.byte		TIE   , Dn3 , v080
	.byte	W02
	.byte		VOL   , 0*seq_044_mvl/mxv
	.byte	W02
	.byte		        1*seq_044_mvl/mxv
	.byte	W02
	.byte		        3*seq_044_mvl/mxv
	.byte	W01
	.byte		        3*seq_044_mvl/mxv
	.byte	W02
	.byte		        5*seq_044_mvl/mxv
	.byte	W01
	.byte		        5*seq_044_mvl/mxv
	.byte	W02
	.byte		        7*seq_044_mvl/mxv
	.byte	W01
	.byte		        7*seq_044_mvl/mxv
	.byte	W02
	.byte		        9*seq_044_mvl/mxv
	.byte	W02
	.byte		        10*seq_044_mvl/mxv
	.byte	W01
	.byte		        11*seq_044_mvl/mxv
	.byte	W02
	.byte		        12*seq_044_mvl/mxv
	.byte	W01
	.byte		        13*seq_044_mvl/mxv
	.byte	W02
	.byte		        14*seq_044_mvl/mxv
	.byte	W01
	.byte		        15*seq_044_mvl/mxv
	.byte	W02
	.byte		        17*seq_044_mvl/mxv
	.byte	W02
	.byte		        17*seq_044_mvl/mxv
	.byte	W01
	.byte		        18*seq_044_mvl/mxv
	.byte	W02
	.byte		        19*seq_044_mvl/mxv
	.byte	W01
	.byte		        20*seq_044_mvl/mxv
	.byte	W02
	.byte		        21*seq_044_mvl/mxv
	.byte	W01
	.byte		        22*seq_044_mvl/mxv
	.byte	W02
	.byte		        23*seq_044_mvl/mxv
	.byte	W02
	.byte		        25*seq_044_mvl/mxv
	.byte	W01
	.byte		        25*seq_044_mvl/mxv
	.byte	W02
	.byte		        27*seq_044_mvl/mxv
	.byte	W01
	.byte		        27*seq_044_mvl/mxv
	.byte	W02
	.byte		        29*seq_044_mvl/mxv
	.byte	W01
	.byte		        30*seq_044_mvl/mxv
	.byte	W02
	.byte		        31*seq_044_mvl/mxv
	.byte	W02
	.byte		        32*seq_044_mvl/mxv
	.byte	W01
	.byte		        33*seq_044_mvl/mxv
	.byte	W02
	.byte		        34*seq_044_mvl/mxv
	.byte	W01
	.byte		        34*seq_044_mvl/mxv
	.byte	W02
	.byte		        36*seq_044_mvl/mxv
	.byte	W01
	.byte		        36*seq_044_mvl/mxv
	.byte	W02
	.byte		        38*seq_044_mvl/mxv
	.byte	W02
	.byte		        39*seq_044_mvl/mxv
	.byte	W01
	.byte		        40*seq_044_mvl/mxv
	.byte	W02
	.byte		        41*seq_044_mvl/mxv
	.byte	W01
	.byte		        42*seq_044_mvl/mxv
	.byte	W02
	.byte		        43*seq_044_mvl/mxv
	.byte	W01
	.byte		        44*seq_044_mvl/mxv
	.byte	W02
	.byte		        45*seq_044_mvl/mxv
	.byte	W04
	.byte		        48*seq_044_mvl/mxv
	.byte	W01
	.byte		        49*seq_044_mvl/mxv
	.byte	W02
	.byte		        50*seq_044_mvl/mxv
	.byte	W01
	.byte		        51*seq_044_mvl/mxv
	.byte	W02
	.byte		        51*seq_044_mvl/mxv
	.byte	W01
	.byte		        52*seq_044_mvl/mxv
	.byte	W02
	.byte		        53*seq_044_mvl/mxv
	.byte	W02
	.byte		        55*seq_044_mvl/mxv
	.byte	W01
	.byte		        56*seq_044_mvl/mxv
	.byte	W02
	.byte		        57*seq_044_mvl/mxv
	.byte	W01
	.byte		        58*seq_044_mvl/mxv
	.byte	W02
	.byte		        59*seq_044_mvl/mxv
	.byte	W01
	.byte		        60*seq_044_mvl/mxv
	.byte	W02
	.byte		        61*seq_044_mvl/mxv
	.byte	W02
	.byte	PEND
	.byte	W36
	.byte	W02
	.byte		VOL   , 58*seq_044_mvl/mxv
	.byte	W03
	.byte		        57*seq_044_mvl/mxv
	.byte	W02
	.byte		        56*seq_044_mvl/mxv
	.byte	W03
	.byte		        55*seq_044_mvl/mxv
	.byte	W02
	.byte		        54*seq_044_mvl/mxv
	.byte	W03
	.byte		        53*seq_044_mvl/mxv
	.byte	W02
	.byte		        52*seq_044_mvl/mxv
	.byte	W03
	.byte		        51*seq_044_mvl/mxv
	.byte	W05
	.byte		        49*seq_044_mvl/mxv
	.byte	W02
	.byte		        47*seq_044_mvl/mxv
	.byte	W02
	.byte		        45*seq_044_mvl/mxv
	.byte	W01
	.byte		        44*seq_044_mvl/mxv
	.byte	W02
	.byte		        42*seq_044_mvl/mxv
	.byte	W02
	.byte		        40*seq_044_mvl/mxv
	.byte	W02
	.byte		        38*seq_044_mvl/mxv
	.byte	W02
	.byte		        34*seq_044_mvl/mxv
	.byte	W02
	.byte		        32*seq_044_mvl/mxv
	.byte	W02
	.byte		        29*seq_044_mvl/mxv
	.byte	W02
	.byte		        25*seq_044_mvl/mxv
	.byte	W01
	.byte		        24*seq_044_mvl/mxv
	.byte	W02
	.byte		        20*seq_044_mvl/mxv
	.byte	W02
	.byte		        17*seq_044_mvl/mxv
	.byte	W02
	.byte		        15*seq_044_mvl/mxv
	.byte	W02
	.byte		        11*seq_044_mvl/mxv
	.byte	W02
	.byte		        8*seq_044_mvl/mxv
	.byte	W02
	.byte		        4*seq_044_mvl/mxv
	.byte	W02
	.byte		        0*seq_044_mvl/mxv
	.byte	W01
	.byte	PEND
	.byte		EOT   , Dn3 
	.byte	PATT
	 .word	seq_044_7 + 0x1E
	.byte	PATT
	 .word	seq_044_7 + 0x98
	.byte		EOT   , Dn3 
	.byte	PATT
	 .word	seq_044_7 + 0x1E
	.byte	PATT
	 .word	seq_044_7 + 0x98
	.byte		EOT   , Dn3 
	.byte	PATT
	 .word	seq_044_7 + 0x1E
	.byte	PATT
	 .word	seq_044_7 + 0x98
	.byte		EOT   , Dn3 
	.byte		TIE   , Fn3 , v080
	.byte	W02
	.byte		VOL   , 0*seq_044_mvl/mxv
	.byte	W02
	.byte		        1*seq_044_mvl/mxv
	.byte	W02
	.byte		        3*seq_044_mvl/mxv
	.byte	W01
	.byte		        3*seq_044_mvl/mxv
	.byte	W02
	.byte		        5*seq_044_mvl/mxv
	.byte	W01
	.byte		        5*seq_044_mvl/mxv
	.byte	W02
	.byte		        7*seq_044_mvl/mxv
	.byte	W01
	.byte		        7*seq_044_mvl/mxv
	.byte	W02
	.byte		        9*seq_044_mvl/mxv
	.byte	W02
	.byte		        10*seq_044_mvl/mxv
	.byte	W01
	.byte		        11*seq_044_mvl/mxv
	.byte	W02
	.byte		        12*seq_044_mvl/mxv
	.byte	W01
	.byte		        13*seq_044_mvl/mxv
	.byte	W02
	.byte		        14*seq_044_mvl/mxv
	.byte	W01
	.byte		        15*seq_044_mvl/mxv
	.byte	W02
	.byte		        17*seq_044_mvl/mxv
	.byte	W02
	.byte		        17*seq_044_mvl/mxv
	.byte	W01
	.byte		        18*seq_044_mvl/mxv
	.byte	W02
	.byte		        19*seq_044_mvl/mxv
	.byte	W01
	.byte		        20*seq_044_mvl/mxv
	.byte	W02
	.byte		        21*seq_044_mvl/mxv
	.byte	W01
	.byte		        22*seq_044_mvl/mxv
	.byte	W02
	.byte		        23*seq_044_mvl/mxv
	.byte	W02
	.byte		        25*seq_044_mvl/mxv
	.byte	W01
	.byte		        25*seq_044_mvl/mxv
	.byte	W02
	.byte		        27*seq_044_mvl/mxv
	.byte	W01
	.byte		        27*seq_044_mvl/mxv
	.byte	W02
	.byte		        29*seq_044_mvl/mxv
	.byte	W01
	.byte		        30*seq_044_mvl/mxv
	.byte	W02
	.byte		        31*seq_044_mvl/mxv
	.byte	W02
	.byte		        32*seq_044_mvl/mxv
	.byte	W01
	.byte		        33*seq_044_mvl/mxv
	.byte	W02
	.byte		        34*seq_044_mvl/mxv
	.byte	W01
	.byte		        34*seq_044_mvl/mxv
	.byte	W02
	.byte		        36*seq_044_mvl/mxv
	.byte	W01
	.byte		        36*seq_044_mvl/mxv
	.byte	W02
	.byte		        38*seq_044_mvl/mxv
	.byte	W02
	.byte		        39*seq_044_mvl/mxv
	.byte	W01
	.byte		        40*seq_044_mvl/mxv
	.byte	W02
	.byte		        41*seq_044_mvl/mxv
	.byte	W01
	.byte		        42*seq_044_mvl/mxv
	.byte	W02
	.byte		        43*seq_044_mvl/mxv
	.byte	W01
	.byte		        44*seq_044_mvl/mxv
	.byte	W02
	.byte		        45*seq_044_mvl/mxv
	.byte	W04
	.byte		        48*seq_044_mvl/mxv
	.byte	W01
	.byte		        49*seq_044_mvl/mxv
	.byte	W02
	.byte		        50*seq_044_mvl/mxv
	.byte	W01
	.byte		        51*seq_044_mvl/mxv
	.byte	W02
	.byte		        51*seq_044_mvl/mxv
	.byte	W01
	.byte		        52*seq_044_mvl/mxv
	.byte	W02
	.byte		        53*seq_044_mvl/mxv
	.byte	W02
	.byte		        55*seq_044_mvl/mxv
	.byte	W01
	.byte		        56*seq_044_mvl/mxv
	.byte	W02
	.byte		        57*seq_044_mvl/mxv
	.byte	W01
	.byte		        58*seq_044_mvl/mxv
	.byte	W02
	.byte		        59*seq_044_mvl/mxv
	.byte	W01
	.byte		        60*seq_044_mvl/mxv
	.byte	W02
	.byte		        61*seq_044_mvl/mxv
	.byte	W02
	.byte	PEND
	.byte	W72
	.byte		VOL   , 57*seq_044_mvl/mxv
	.byte	W02
	.byte		        53*seq_044_mvl/mxv
	.byte	W02
	.byte		        49*seq_044_mvl/mxv
	.byte	W02
	.byte		        44*seq_044_mvl/mxv
	.byte	W02
	.byte		        40*seq_044_mvl/mxv
	.byte	W01
	.byte		        37*seq_044_mvl/mxv
	.byte	W02
	.byte		        34*seq_044_mvl/mxv
	.byte	W02
	.byte		        29*seq_044_mvl/mxv
	.byte	W02
	.byte		        24*seq_044_mvl/mxv
	.byte	W02
	.byte		        20*seq_044_mvl/mxv
	.byte	W02
	.byte		        16*seq_044_mvl/mxv
	.byte	W02
	.byte		        11*seq_044_mvl/mxv
	.byte	W02
	.byte		        0*seq_044_mvl/mxv
	.byte	W01
	.byte	PEND
	.byte		EOT   , Fn3 
	.byte	PATT
	 .word	seq_044_7 + 0xF8
	.byte	PATT
	 .word	seq_044_7 + 0x172
	.byte		EOT   , Fn3 
	.byte		N96   , Ds3 , v080
	.byte	W02
	.byte		VOL   , 0*seq_044_mvl/mxv
	.byte	W02
	.byte		        2*seq_044_mvl/mxv
	.byte	W02
	.byte		        4*seq_044_mvl/mxv
	.byte	W01
	.byte		        5*seq_044_mvl/mxv
	.byte	W02
	.byte		        6*seq_044_mvl/mxv
	.byte	W01
	.byte		        7*seq_044_mvl/mxv
	.byte	W02
	.byte		        9*seq_044_mvl/mxv
	.byte	W01
	.byte		        10*seq_044_mvl/mxv
	.byte	W02
	.byte		        11*seq_044_mvl/mxv
	.byte	W02
	.byte		        13*seq_044_mvl/mxv
	.byte	W01
	.byte		        14*seq_044_mvl/mxv
	.byte	W02
	.byte		        15*seq_044_mvl/mxv
	.byte	W01
	.byte		        16*seq_044_mvl/mxv
	.byte	W02
	.byte		        17*seq_044_mvl/mxv
	.byte	W01
	.byte		        17*seq_044_mvl/mxv
	.byte	W02
	.byte		        19*seq_044_mvl/mxv
	.byte	W02
	.byte		        21*seq_044_mvl/mxv
	.byte	W01
	.byte		        21*seq_044_mvl/mxv
	.byte	W02
	.byte		        23*seq_044_mvl/mxv
	.byte	W01
	.byte		        24*seq_044_mvl/mxv
	.byte	W02
	.byte		        25*seq_044_mvl/mxv
	.byte	W01
	.byte		        26*seq_044_mvl/mxv
	.byte	W02
	.byte		        28*seq_044_mvl/mxv
	.byte	W02
	.byte		        30*seq_044_mvl/mxv
	.byte	W01
	.byte		        30*seq_044_mvl/mxv
	.byte	W02
	.byte		        32*seq_044_mvl/mxv
	.byte	W01
	.byte		        33*seq_044_mvl/mxv
	.byte	W02
	.byte		        34*seq_044_mvl/mxv
	.byte	W01
	.byte		        34*seq_044_mvl/mxv
	.byte	W02
	.byte		        36*seq_044_mvl/mxv
	.byte	W02
	.byte		        37*seq_044_mvl/mxv
	.byte	W01
	.byte		        38*seq_044_mvl/mxv
	.byte	W02
	.byte		        40*seq_044_mvl/mxv
	.byte	W01
	.byte		        41*seq_044_mvl/mxv
	.byte	W02
	.byte		        42*seq_044_mvl/mxv
	.byte	W01
	.byte		        43*seq_044_mvl/mxv
	.byte	W02
	.byte		        45*seq_044_mvl/mxv
	.byte	W02
	.byte		        46*seq_044_mvl/mxv
	.byte	W01
	.byte		        47*seq_044_mvl/mxv
	.byte	W02
	.byte		        49*seq_044_mvl/mxv
	.byte	W01
	.byte		        49*seq_044_mvl/mxv
	.byte	W02
	.byte		        51*seq_044_mvl/mxv
	.byte	W01
	.byte		        51*seq_044_mvl/mxv
	.byte	W02
	.byte		        53*seq_044_mvl/mxv
	.byte	W02
	.byte		        57*seq_044_mvl/mxv
	.byte	W02
	.byte		        53*seq_044_mvl/mxv
	.byte	W02
	.byte		        49*seq_044_mvl/mxv
	.byte	W02
	.byte		        44*seq_044_mvl/mxv
	.byte	W02
	.byte		        40*seq_044_mvl/mxv
	.byte	W01
	.byte		        37*seq_044_mvl/mxv
	.byte	W02
	.byte		        34*seq_044_mvl/mxv
	.byte	W02
	.byte		        29*seq_044_mvl/mxv
	.byte	W02
	.byte		        24*seq_044_mvl/mxv
	.byte	W02
	.byte		        20*seq_044_mvl/mxv
	.byte	W02
	.byte		        16*seq_044_mvl/mxv
	.byte	W02
	.byte		        11*seq_044_mvl/mxv
	.byte	W03
	.byte		N96   , Cs3 
	.byte	W92
	.byte	W03
	.byte		VOICE , 75
	.byte		MOD   , 0
	.byte		VOL   , 103*seq_044_mvl/mxv
	.byte		MODT  , mod_pan
	.byte	W01
	.byte		N12   , Ds3 , v076
	.byte	W24
	.byte		N12
	.byte	W24
	.byte		N12
	.byte	W24
	.byte		N12
	.byte	W24
	.byte	PEND
	.byte	PATT
	 .word	seq_044_7 + 0x21F
	.byte		N12   , Dn3 , v076
	.byte	W24
	.byte		N12
	.byte	W24
	.byte		N12
	.byte	W24
	.byte		N12
	.byte	W24
	.byte		N12
	.byte	W24
	.byte		N12
	.byte	W24
	.byte		N12
	.byte	W24
	.byte		N12
	.byte	W23
	.byte		VOICE , 75
	.byte		MOD   , 0
	.byte		VOL   , 103*seq_044_mvl/mxv
	.byte		MODT  , mod_pan
	.byte	W01
	.byte		N12   , As3 , v080
	.byte	W24
	.byte		N12
	.byte	W24
	.byte		N12
	.byte	W24
	.byte		N12
	.byte	W24
	.byte	PEND
	.byte	PATT
	 .word	seq_044_7 + 0x24A
	.byte		N12   , Gs3 , v080
	.byte	W24
	.byte		N12
	.byte	W24
	.byte		N12
	.byte	W24
	.byte		N12
	.byte	W24
	.byte	PEND
	.byte		N12   , Fs3 , v080
	.byte	W24
	.byte		N12
	.byte	W24
	.byte		        Fn3 
	.byte	W24
	.byte		N12
	.byte	W24
	.byte	PEND
	.byte	PATT
	 .word	seq_044_7 + 0x24A
	.byte	PATT
	 .word	seq_044_7 + 0x24A
	.byte	PATT
	 .word	seq_044_7 + 0x25A
	.byte		N12   , Fs3 , v080
	.byte	W24
	.byte		N12
	.byte	W24
	.byte		        Fn3 
	.byte	W24
	.byte		N12
	.byte	W23
	.byte		VOICE , 82
	.byte		MOD   , 0
	.byte		VOL   , 56*seq_044_mvl/mxv
	.byte	W01
	.byte	PEND
	.byte		TIE   , Cs3 , v100
	.byte	W96
	.byte	W96
	.byte		EOT
	.byte		N96   , As2 
	.byte	W96
	.byte		        Gs2 
	.byte	W96
	.byte		TIE   , Cs3 
	.byte	W96
	.byte	W96
	.byte		EOT
	.byte		N96   , As2 
	.byte	W96
	.byte		        Gs2 
	.byte	W92
	.byte	W03
	.byte		VOICE , 75
	.byte		MOD   , 0
	.byte		VOL   , 103*seq_044_mvl/mxv
	.byte	W01
	.byte	PATT
	 .word	seq_044_7 + 0x24A
	.byte	PATT
	 .word	seq_044_7 + 0x24A
	.byte	PATT
	 .word	seq_044_7 + 0x25A
	.byte	PATT
	 .word	seq_044_7 + 0x265
	.byte	PATT
	 .word	seq_044_7 + 0x24A
	.byte	PATT
	 .word	seq_044_7 + 0x24A
	.byte	PATT
	 .word	seq_044_7 + 0x25A
	.byte	PATT
	 .word	seq_044_7 + 0x27F
	.byte		TIE   , Cs3 , v100
	.byte	W96
	.byte	W96
	.byte		EOT
	.byte		N96   , As2 
	.byte	W96
	.byte		        Gs2 
	.byte	W96
	.byte		TIE   , Cs3 
	.byte	W96
	.byte	W96
	.byte		EOT
	.byte		N96   , As2 
	.byte	W96
	.byte		        Gs2 
	.byte	W36
	.byte	W02
	.byte		VOL   , 58*seq_044_mvl/mxv
	.byte	W03
	.byte		        57*seq_044_mvl/mxv
	.byte	W02
	.byte		        56*seq_044_mvl/mxv
	.byte	W03
	.byte		        55*seq_044_mvl/mxv
	.byte	W02
	.byte		        54*seq_044_mvl/mxv
	.byte	W03
	.byte		        53*seq_044_mvl/mxv
	.byte	W02
	.byte		        52*seq_044_mvl/mxv
	.byte	W03
	.byte		        51*seq_044_mvl/mxv
	.byte	W05
	.byte		        49*seq_044_mvl/mxv
	.byte	W02
	.byte		        47*seq_044_mvl/mxv
	.byte	W02
	.byte		        45*seq_044_mvl/mxv
	.byte	W01
	.byte		        44*seq_044_mvl/mxv
	.byte	W02
	.byte		        42*seq_044_mvl/mxv
	.byte	W02
	.byte		        40*seq_044_mvl/mxv
	.byte	W02
	.byte		        38*seq_044_mvl/mxv
	.byte	W02
	.byte		        34*seq_044_mvl/mxv
	.byte	W02
	.byte		        32*seq_044_mvl/mxv
	.byte	W02
	.byte		        29*seq_044_mvl/mxv
	.byte	W02
	.byte		        25*seq_044_mvl/mxv
	.byte	W01
	.byte		        24*seq_044_mvl/mxv
	.byte	W02
	.byte		        20*seq_044_mvl/mxv
	.byte	W02
	.byte		        17*seq_044_mvl/mxv
	.byte	W02
	.byte		        15*seq_044_mvl/mxv
	.byte	W02
	.byte		        11*seq_044_mvl/mxv
	.byte	W02
	.byte		        8*seq_044_mvl/mxv
	.byte	W02
	.byte		        4*seq_044_mvl/mxv
	.byte	W02
	.byte		        0*seq_044_mvl/mxv
	.byte	W01
	.byte		TIE   , Cs3 , v112
	.byte	W02
	.byte		VOL   , 0*seq_044_mvl/mxv
	.byte	W02
	.byte		        1*seq_044_mvl/mxv
	.byte	W02
	.byte		        3*seq_044_mvl/mxv
	.byte	W01
	.byte		        3*seq_044_mvl/mxv
	.byte	W02
	.byte		        5*seq_044_mvl/mxv
	.byte	W01
	.byte		        5*seq_044_mvl/mxv
	.byte	W02
	.byte		        7*seq_044_mvl/mxv
	.byte	W01
	.byte		        7*seq_044_mvl/mxv
	.byte	W02
	.byte		        9*seq_044_mvl/mxv
	.byte	W02
	.byte		        10*seq_044_mvl/mxv
	.byte	W01
	.byte		        11*seq_044_mvl/mxv
	.byte	W02
	.byte		        12*seq_044_mvl/mxv
	.byte	W01
	.byte		        13*seq_044_mvl/mxv
	.byte	W02
	.byte		        14*seq_044_mvl/mxv
	.byte	W01
	.byte		        15*seq_044_mvl/mxv
	.byte	W02
	.byte		        17*seq_044_mvl/mxv
	.byte	W02
	.byte		        17*seq_044_mvl/mxv
	.byte	W01
	.byte		        18*seq_044_mvl/mxv
	.byte	W02
	.byte		        19*seq_044_mvl/mxv
	.byte	W01
	.byte		        20*seq_044_mvl/mxv
	.byte	W02
	.byte		        21*seq_044_mvl/mxv
	.byte	W01
	.byte		        22*seq_044_mvl/mxv
	.byte	W02
	.byte		        23*seq_044_mvl/mxv
	.byte	W02
	.byte		        25*seq_044_mvl/mxv
	.byte	W01
	.byte		        25*seq_044_mvl/mxv
	.byte	W02
	.byte		        27*seq_044_mvl/mxv
	.byte	W01
	.byte		        27*seq_044_mvl/mxv
	.byte	W02
	.byte		        29*seq_044_mvl/mxv
	.byte	W01
	.byte		        30*seq_044_mvl/mxv
	.byte	W02
	.byte		        31*seq_044_mvl/mxv
	.byte	W02
	.byte		        32*seq_044_mvl/mxv
	.byte	W01
	.byte		        33*seq_044_mvl/mxv
	.byte	W02
	.byte		        34*seq_044_mvl/mxv
	.byte	W01
	.byte		        34*seq_044_mvl/mxv
	.byte	W02
	.byte		        36*seq_044_mvl/mxv
	.byte	W01
	.byte		        36*seq_044_mvl/mxv
	.byte	W02
	.byte		        38*seq_044_mvl/mxv
	.byte	W02
	.byte		        39*seq_044_mvl/mxv
	.byte	W01
	.byte		        40*seq_044_mvl/mxv
	.byte	W02
	.byte		        41*seq_044_mvl/mxv
	.byte	W01
	.byte		        42*seq_044_mvl/mxv
	.byte	W02
	.byte		        43*seq_044_mvl/mxv
	.byte	W01
	.byte		        44*seq_044_mvl/mxv
	.byte	W02
	.byte		        45*seq_044_mvl/mxv
	.byte	W04
	.byte		        48*seq_044_mvl/mxv
	.byte	W01
	.byte		        49*seq_044_mvl/mxv
	.byte	W02
	.byte		        50*seq_044_mvl/mxv
	.byte	W01
	.byte		        51*seq_044_mvl/mxv
	.byte	W02
	.byte		        51*seq_044_mvl/mxv
	.byte	W01
	.byte		        52*seq_044_mvl/mxv
	.byte	W02
	.byte		        53*seq_044_mvl/mxv
	.byte	W02
	.byte		        55*seq_044_mvl/mxv
	.byte	W01
	.byte		        56*seq_044_mvl/mxv
	.byte	W02
	.byte		        57*seq_044_mvl/mxv
	.byte	W01
	.byte		        58*seq_044_mvl/mxv
	.byte	W02
	.byte		        59*seq_044_mvl/mxv
	.byte	W01
	.byte		        60*seq_044_mvl/mxv
	.byte	W02
	.byte		        61*seq_044_mvl/mxv
	.byte	W02
	.byte	PEND
	.byte	PATT
	 .word	seq_044_7 + 0x98
	.byte		EOT   , Cs3 
	.byte		TIE   , Ds3 , v112
	.byte	W02
	.byte		VOL   , 0*seq_044_mvl/mxv
	.byte	W02
	.byte		        1*seq_044_mvl/mxv
	.byte	W02
	.byte		        3*seq_044_mvl/mxv
	.byte	W01
	.byte		        3*seq_044_mvl/mxv
	.byte	W02
	.byte		        5*seq_044_mvl/mxv
	.byte	W01
	.byte		        5*seq_044_mvl/mxv
	.byte	W02
	.byte		        7*seq_044_mvl/mxv
	.byte	W01
	.byte		        7*seq_044_mvl/mxv
	.byte	W02
	.byte		        9*seq_044_mvl/mxv
	.byte	W02
	.byte		        10*seq_044_mvl/mxv
	.byte	W01
	.byte		        11*seq_044_mvl/mxv
	.byte	W02
	.byte		        12*seq_044_mvl/mxv
	.byte	W01
	.byte		        13*seq_044_mvl/mxv
	.byte	W02
	.byte		        14*seq_044_mvl/mxv
	.byte	W01
	.byte		        15*seq_044_mvl/mxv
	.byte	W02
	.byte		        17*seq_044_mvl/mxv
	.byte	W02
	.byte		        17*seq_044_mvl/mxv
	.byte	W01
	.byte		        18*seq_044_mvl/mxv
	.byte	W02
	.byte		        19*seq_044_mvl/mxv
	.byte	W01
	.byte		        20*seq_044_mvl/mxv
	.byte	W02
	.byte		        21*seq_044_mvl/mxv
	.byte	W01
	.byte		        22*seq_044_mvl/mxv
	.byte	W02
	.byte		        23*seq_044_mvl/mxv
	.byte	W02
	.byte		        25*seq_044_mvl/mxv
	.byte	W01
	.byte		        25*seq_044_mvl/mxv
	.byte	W02
	.byte		        27*seq_044_mvl/mxv
	.byte	W01
	.byte		        27*seq_044_mvl/mxv
	.byte	W02
	.byte		        29*seq_044_mvl/mxv
	.byte	W01
	.byte		        30*seq_044_mvl/mxv
	.byte	W02
	.byte		        31*seq_044_mvl/mxv
	.byte	W02
	.byte		        32*seq_044_mvl/mxv
	.byte	W01
	.byte		        33*seq_044_mvl/mxv
	.byte	W02
	.byte		        34*seq_044_mvl/mxv
	.byte	W01
	.byte		        34*seq_044_mvl/mxv
	.byte	W02
	.byte		        36*seq_044_mvl/mxv
	.byte	W01
	.byte		        36*seq_044_mvl/mxv
	.byte	W02
	.byte		        38*seq_044_mvl/mxv
	.byte	W02
	.byte		        39*seq_044_mvl/mxv
	.byte	W01
	.byte		        40*seq_044_mvl/mxv
	.byte	W02
	.byte		        41*seq_044_mvl/mxv
	.byte	W01
	.byte		        42*seq_044_mvl/mxv
	.byte	W02
	.byte		        43*seq_044_mvl/mxv
	.byte	W01
	.byte		        44*seq_044_mvl/mxv
	.byte	W02
	.byte		        45*seq_044_mvl/mxv
	.byte	W04
	.byte		        48*seq_044_mvl/mxv
	.byte	W01
	.byte		        49*seq_044_mvl/mxv
	.byte	W02
	.byte		        50*seq_044_mvl/mxv
	.byte	W01
	.byte		        51*seq_044_mvl/mxv
	.byte	W02
	.byte		        51*seq_044_mvl/mxv
	.byte	W01
	.byte		        52*seq_044_mvl/mxv
	.byte	W02
	.byte		        53*seq_044_mvl/mxv
	.byte	W02
	.byte		        55*seq_044_mvl/mxv
	.byte	W01
	.byte		        56*seq_044_mvl/mxv
	.byte	W02
	.byte		        57*seq_044_mvl/mxv
	.byte	W01
	.byte		        58*seq_044_mvl/mxv
	.byte	W02
	.byte		        59*seq_044_mvl/mxv
	.byte	W01
	.byte		        60*seq_044_mvl/mxv
	.byte	W02
	.byte		        61*seq_044_mvl/mxv
	.byte	W02
	.byte	PEND
	.byte	PATT
	 .word	seq_044_7 + 0x98
	.byte		EOT   , Ds3 
	.byte	PATT
	 .word	seq_044_7 + 0x323
	.byte	PATT
	 .word	seq_044_7 + 0x98
	.byte		EOT   , Cs3 
	.byte	PATT
	 .word	seq_044_7 + 0x3A4
	.byte	PATT
	 .word	seq_044_7 + 0x98
	.byte		EOT   , Ds3 
	.byte	PATT
	 .word	seq_044_7 + 0x323
	.byte	PATT
	 .word	seq_044_7 + 0x98
	.byte		EOT   , Cs3 
	.byte	PATT
	 .word	seq_044_7 + 0x3A4
	.byte	PATT
	 .word	seq_044_7 + 0x98
	.byte		EOT   , Ds3 
	.byte	PATT
	 .word	seq_044_7 + 0x323
	.byte	PATT
	 .word	seq_044_7 + 0x98
	.byte		EOT   , Cs3 
	.byte	PATT
	 .word	seq_044_7 + 0x3A4
	.byte	W36
	.byte	W02
	.byte		VOL   , 58*seq_044_mvl/mxv
	.byte	W03
	.byte		        57*seq_044_mvl/mxv
	.byte	W02
	.byte		        56*seq_044_mvl/mxv
	.byte	W03
	.byte		        55*seq_044_mvl/mxv
	.byte	W02
	.byte		        54*seq_044_mvl/mxv
	.byte	W03
	.byte		        53*seq_044_mvl/mxv
	.byte	W02
	.byte		        52*seq_044_mvl/mxv
	.byte	W03
	.byte		        51*seq_044_mvl/mxv
	.byte	W05
	.byte		        49*seq_044_mvl/mxv
	.byte	W02
	.byte		        47*seq_044_mvl/mxv
	.byte	W02
	.byte		        45*seq_044_mvl/mxv
	.byte	W01
	.byte		        44*seq_044_mvl/mxv
	.byte	W02
	.byte		        42*seq_044_mvl/mxv
	.byte	W02
	.byte		        40*seq_044_mvl/mxv
	.byte	W02
	.byte		        38*seq_044_mvl/mxv
	.byte	W02
	.byte		        34*seq_044_mvl/mxv
	.byte	W02
	.byte		        32*seq_044_mvl/mxv
	.byte	W02
	.byte		        29*seq_044_mvl/mxv
	.byte	W02
	.byte		        25*seq_044_mvl/mxv
	.byte	W01
	.byte		        24*seq_044_mvl/mxv
	.byte	W02
	.byte		        20*seq_044_mvl/mxv
	.byte	W02
	.byte		        17*seq_044_mvl/mxv
	.byte	W02
	.byte		        15*seq_044_mvl/mxv
	.byte	W02
	.byte		        11*seq_044_mvl/mxv
	.byte	W02
	.byte		        8*seq_044_mvl/mxv
	.byte	W02
	.byte		        4*seq_044_mvl/mxv
	.byte	W02
	.byte		VOICE , 75
	.byte		MOD   , 0
	.byte		VOL   , 103*seq_044_mvl/mxv
	.byte		MODT  , mod_pan
	.byte	W01
	.byte		EOT   , Ds3 
	.byte		N12   , Fn3 , v080
	.byte	W24
	.byte		N12
	.byte	W24
	.byte		N12
	.byte	W24
	.byte		N12
	.byte	W24
	.byte	PEND
	.byte	PATT
	 .word	seq_044_7 + 0x25A
	.byte	PATT
	 .word	seq_044_7 + 0x25A
	.byte	PATT
	 .word	seq_044_7 + 0x25A
	.byte	PATT
	 .word	seq_044_7 + 0x4A8
	.byte	PATT
	 .word	seq_044_7 + 0x25A
	.byte	PATT
	 .word	seq_044_7 + 0x25A
	.byte		N12   , Gs3 , v080
	.byte	W24
	.byte		N12
	.byte	W24
	.byte		N12
	.byte	W24
	.byte		N12
	.byte	W23
	.byte		VOICE , 75
	.byte		MOD   , 0
	.byte		VOL   , 103*seq_044_mvl/mxv
	.byte	W01
	.byte	PATT
	 .word	seq_044_7 + 0x24A
	.byte	PATT
	 .word	seq_044_7 + 0x24A
	.byte	PATT
	 .word	seq_044_7 + 0x25A
	.byte	PATT
	 .word	seq_044_7 + 0x265
	.byte	GOTO
	 .word	seq_044_7 + 0x2C2
	.byte W96, W96, W96, W96, W96, W96, W96, W96, W96, W96, W96, W96
	.byte	FINE

@*********************** Track 09 ***********************@

seq_044_8:
	.byte	KEYSH , seq_044_key+0
	.byte	W11
	.byte		PAN   , c_v+0
	.byte		MODT  , mod_pan
	.byte	W04
	.byte		MOD   , 0
	.byte		VOL   , 0*seq_044_mvl/mxv
	.byte		LFOS  , 35
	.byte	W01
	.byte		VOICE , 0
	.byte	W20
	.byte	W11
	.byte		PAN   , c_v-20
	.byte	W01
	.byte		N04   , An4 , v088
	.byte	W06
	.byte		        An4 , v032
	.byte	W05
	.byte		PAN   , c_v+0
	.byte	W01
	.byte		N04   , Dn4 , v056
	.byte	W06
	.byte		        Dn4 , v032
	.byte	W05
	.byte		PAN   , c_v+20
	.byte	W01
	.byte		N04   , En4 , v088
	.byte	W06
	.byte		        En4 , v032
	.byte	W08
	.byte		VOL   , 4*seq_044_mvl/mxv
	.byte	W02
	.byte		        10*seq_044_mvl/mxv
	.byte	W02
	.byte		        15*seq_044_mvl/mxv
	.byte	W02
	.byte		        20*seq_044_mvl/mxv
	.byte	W03
	.byte		        28*seq_044_mvl/mxv
	.byte		PAN   , c_v+0
	.byte	W01
	.byte		N04   , Dn4 , v056
	.byte	W01
	.byte		VOL   , 33*seq_044_mvl/mxv
	.byte	W02
	.byte		        38*seq_044_mvl/mxv
	.byte	W02
	.byte		        43*seq_044_mvl/mxv
	.byte	W01
	.byte		N04   , Dn4 , v032
	.byte	W01
	.byte		VOL   , 49*seq_044_mvl/mxv
	.byte	W02
	.byte		        53*seq_044_mvl/mxv
	.byte	W02
	.byte		        59*seq_044_mvl/mxv
	.byte	W02
	.byte		        61*seq_044_mvl/mxv
	.byte	W10
	.byte		PAN   , c_v-20
	.byte	W01
	.byte		N04   , An3 , v056
	.byte	W06
	.byte		        An3 , v032
	.byte	W06
	.byte	W11
	.byte		PAN   , c_v+20
	.byte	W01
	.byte		N04   , Dn4 , v056
	.byte	W06
	.byte		        Dn4 , v032
	.byte	W17
	.byte		PAN   , c_v-20
	.byte	W01
	.byte		N04   , An4 , v056
	.byte	W06
	.byte		        An4 , v032
	.byte	W17
	.byte		PAN   , c_v+20
	.byte	W01
	.byte		N04   , Dn4 , v048
	.byte	W06
	.byte		        Dn4 , v032
	.byte	W30
	.byte	PEND
	.byte	W11
	.byte		PAN   , c_v-20
	.byte	W01
	.byte		N04   , An4 , v088
	.byte	W06
	.byte		        An4 , v032
	.byte	W05
	.byte		PAN   , c_v+0
	.byte	W01
	.byte		N04   , Dn4 , v056
	.byte	W06
	.byte		        Dn4 , v032
	.byte	W05
	.byte		PAN   , c_v+20
	.byte	W01
	.byte		N04   , En4 , v088
	.byte	W06
	.byte		        En4 , v032
	.byte	W17
	.byte		PAN   , c_v+0
	.byte	W01
	.byte		N04   , Dn4 , v056
	.byte	W06
	.byte		        Dn4 , v032
	.byte	W17
	.byte		PAN   , c_v-20
	.byte	W01
	.byte		N04   , An3 , v056
	.byte	W06
	.byte		        An3 , v032
	.byte	W06
	.byte	PEND
	.byte	PATT
	 .word	seq_044_8 + 0x60
	.byte	PATT
	 .word	seq_044_8 + 0x80
	.byte	PATT
	 .word	seq_044_8 + 0x60
	.byte	PATT
	 .word	seq_044_8 + 0x80
	.byte	PATT
	 .word	seq_044_8 + 0x60
	.byte	W96
	.byte	W96
	.byte	W96
	.byte	W96
	.byte	W96
	.byte	W96
	.byte	W96
	.byte	W96
	.byte	W96
	.byte	W96
	.byte	W96
	.byte	W96
	.byte	W96
	.byte	W92
	.byte	W03
	.byte		VOICE , 95
	.byte		VOL   , 120*seq_044_mvl/mxv
	.byte		PAN   , c_v+10
	.byte	W01
	.byte		N03   , As3 , v120
	.byte	W08
	.byte		        As2 , v092
	.byte	W08
	.byte		        Fn3 , v112
	.byte	W08
	.byte		        As3 , v120
	.byte	W08
	.byte		        As2 , v092
	.byte	W08
	.byte		        Fn3 , v112
	.byte	W08
	.byte		        As3 , v120
	.byte	W08
	.byte		        As2 , v092
	.byte	W08
	.byte		        Fn3 , v112
	.byte	W08
	.byte		        As3 , v120
	.byte	W08
	.byte		        As2 , v092
	.byte	W08
	.byte		        Fn3 , v112
	.byte	W08
	.byte	PEND
	.byte	PATT
	 .word	seq_044_8 + 0xE3
	.byte	PATT
	 .word	seq_044_8 + 0xE3
	.byte	PATT
	 .word	seq_044_8 + 0xE3
	.byte	W96
	.byte	W96
	.byte	W96
	.byte	W96
	.byte	W96
	.byte	W96
	.byte	W96
	.byte	W96
	.byte	W07
	.byte		N03   , As2 , v112
	.byte	W08
	.byte		        Ds3 , v127
	.byte	W08
	.byte		        Ds4 , v112
	.byte	W08
	.byte		        As3 
	.byte	W08
	.byte		        Gs3 , v076
	.byte	W16
	.byte		        As2 , v112
	.byte	W08
	.byte		        Ds3 , v127
	.byte	W08
	.byte		        Ds4 , v112
	.byte	W08
	.byte		        As3 
	.byte	W08
	.byte		        Gs3 , v076
	.byte	W09
	.byte	PEND
	.byte	PATT
	 .word	seq_044_8 + 0x120
	.byte	PATT
	 .word	seq_044_8 + 0x120
	.byte	PATT
	 .word	seq_044_8 + 0x120
	.byte	PATT
	 .word	seq_044_8 + 0x120
	.byte	PATT
	 .word	seq_044_8 + 0x120
	.byte	PATT
	 .word	seq_044_8 + 0x120
	.byte	PATT
	 .word	seq_044_8 + 0x120
	.byte	W96
	.byte	W96
	.byte	W96
	.byte	W96
	.byte	W96
	.byte	W96
	.byte	W96
	.byte	W96
	.byte	PATT
	 .word	seq_044_8 + 0x120
	.byte	PATT
	 .word	seq_044_8 + 0x120
	.byte	PATT
	 .word	seq_044_8 + 0x120
	.byte	PATT
	 .word	seq_044_8 + 0x120
	.byte	PATT
	 .word	seq_044_8 + 0x120
	.byte	PATT
	 .word	seq_044_8 + 0x120
	.byte	PATT
	 .word	seq_044_8 + 0x120
	.byte	PATT
	 .word	seq_044_8 + 0x120
	.byte	PATT
	 .word	seq_044_8 + 0x120
	.byte	PATT
	 .word	seq_044_8 + 0x120
	.byte	PATT
	 .word	seq_044_8 + 0x120
	.byte	PATT
	 .word	seq_044_8 + 0x120
	.byte	PATT
	 .word	seq_044_8 + 0x120
	.byte	PATT
	 .word	seq_044_8 + 0x120
	.byte	PATT
	 .word	seq_044_8 + 0x120
	.byte	PATT
	 .word	seq_044_8 + 0x120
	.byte	W96
	.byte	W96
	.byte	W96
	.byte	W96
	.byte	W96
	.byte	W96
	.byte	W96
	.byte	W96
	.byte		N03   , Ds4 , v120
	.byte	W08
	.byte		        Gs3 , v092
	.byte	W08
	.byte		        As3 , v112
	.byte	W08
	.byte		        Ds4 , v120
	.byte	W08
	.byte		        Gs3 , v092
	.byte	W08
	.byte		        As3 , v112
	.byte	W08
	.byte		        Ds4 , v120
	.byte	W08
	.byte		        Gs3 , v092
	.byte	W08
	.byte		        As3 , v112
	.byte	W08
	.byte		        Ds4 , v120
	.byte	W08
	.byte		        Gs3 , v092
	.byte	W08
	.byte		        As3 , v112
	.byte	W08
	.byte	PEND
	.byte	PATT
	 .word	seq_044_8 + 0x1C2
	.byte	PATT
	 .word	seq_044_8 + 0x1C2
	.byte	PATT
	 .word	seq_044_8 + 0x1C2
	.byte	PATT
	 .word	seq_044_8 + 0x1C2
	.byte	PATT
	 .word	seq_044_8 + 0x1C2
	.byte	PATT
	 .word	seq_044_8 + 0x1C2
	.byte	PATT
	 .word	seq_044_8 + 0x1C2
	.byte	W96
	.byte	W96
	.byte	W96
	.byte	W96
	.byte	GOTO
	 .word	seq_044_8 + 0x166
	.byte W96, W96, W96, W96, W96, W96, W96, W96, W96, W96, W96, W96
	.byte	FINE

@*********************** Track 10 ***********************@

seq_044_9:
	.byte	KEYSH , seq_044_key+0
	.byte	W17
	.byte		VOICE , 32
	.byte		VOL   , 0*seq_044_mvl/mxv
	.byte	W01
	.byte		PAN   , c_v+0
	.byte	W18
	.byte	W12
	.byte		VOL   , 2*seq_044_mvl/mxv
	.byte		TIE   , Gn2 , v100
	.byte	W02
	.byte		VOL   , 10*seq_044_mvl/mxv
	.byte	W01
	.byte		        14*seq_044_mvl/mxv
	.byte	W02
	.byte		        21*seq_044_mvl/mxv
	.byte	W01
	.byte		        25*seq_044_mvl/mxv
	.byte	W02
	.byte		        34*seq_044_mvl/mxv
	.byte	W01
	.byte		        37*seq_044_mvl/mxv
	.byte	W02
	.byte		        45*seq_044_mvl/mxv
	.byte	W01
	.byte		        49*seq_044_mvl/mxv
	.byte	W02
	.byte		        57*seq_044_mvl/mxv
	.byte	W01
	.byte		        61*seq_044_mvl/mxv
	.byte	W02
	.byte		        68*seq_044_mvl/mxv
	.byte	W01
	.byte		        72*seq_044_mvl/mxv
	.byte	W02
	.byte		        80*seq_044_mvl/mxv
	.byte	W01
	.byte		        85*seq_044_mvl/mxv
	.byte	W02
	.byte		        92*seq_044_mvl/mxv
	.byte	W01
	.byte		        95*seq_044_mvl/mxv
	.byte	W02
	.byte		        100*seq_044_mvl/mxv
	.byte	W01
	.byte		        102*seq_044_mvl/mxv
	.byte	W02
	.byte		        107*seq_044_mvl/mxv
	.byte	W01
	.byte		        110*seq_044_mvl/mxv
	.byte	W02
	.byte		        118*seq_044_mvl/mxv
	.byte	W52
	.byte	W36
	.byte	W01
	.byte		VOL   , 111*seq_044_mvl/mxv
	.byte	W02
	.byte		        110*seq_044_mvl/mxv
	.byte	W02
	.byte		        109*seq_044_mvl/mxv
	.byte	W02
	.byte		        107*seq_044_mvl/mxv
	.byte	W02
	.byte		        105*seq_044_mvl/mxv
	.byte	W02
	.byte		        103*seq_044_mvl/mxv
	.byte	W02
	.byte		        102*seq_044_mvl/mxv
	.byte	W02
	.byte		        101*seq_044_mvl/mxv
	.byte	W01
	.byte		        100*seq_044_mvl/mxv
	.byte	W02
	.byte		        98*seq_044_mvl/mxv
	.byte	W02
	.byte		        96*seq_044_mvl/mxv
	.byte	W02
	.byte		        93*seq_044_mvl/mxv
	.byte	W02
	.byte		        89*seq_044_mvl/mxv
	.byte	W02
	.byte		        86*seq_044_mvl/mxv
	.byte	W02
	.byte		        84*seq_044_mvl/mxv
	.byte	W02
	.byte		        81*seq_044_mvl/mxv
	.byte	W01
	.byte		        79*seq_044_mvl/mxv
	.byte	W02
	.byte		        76*seq_044_mvl/mxv
	.byte	W02
	.byte		        72*seq_044_mvl/mxv
	.byte	W02
	.byte		        69*seq_044_mvl/mxv
	.byte	W02
	.byte		        64*seq_044_mvl/mxv
	.byte	W02
	.byte		        58*seq_044_mvl/mxv
	.byte	W02
	.byte		        51*seq_044_mvl/mxv
	.byte	W02
	.byte		        46*seq_044_mvl/mxv
	.byte	W14
	.byte		        7*seq_044_mvl/mxv
	.byte	W01
	.byte	PEND
	.byte		EOT   , Gn2 
	.byte		TIE   , Fs2 , v100
	.byte	W03
	.byte		VOL   , 12*seq_044_mvl/mxv
	.byte	W02
	.byte		        17*seq_044_mvl/mxv
	.byte	W01
	.byte		        19*seq_044_mvl/mxv
	.byte	W02
	.byte		        24*seq_044_mvl/mxv
	.byte	W01
	.byte		        27*seq_044_mvl/mxv
	.byte	W02
	.byte		        32*seq_044_mvl/mxv
	.byte	W01
	.byte		        34*seq_044_mvl/mxv
	.byte	W02
	.byte		        39*seq_044_mvl/mxv
	.byte	W01
	.byte		        42*seq_044_mvl/mxv
	.byte	W02
	.byte		        47*seq_044_mvl/mxv
	.byte	W01
	.byte		        50*seq_044_mvl/mxv
	.byte	W02
	.byte		        54*seq_044_mvl/mxv
	.byte	W01
	.byte		        57*seq_044_mvl/mxv
	.byte	W02
	.byte		        62*seq_044_mvl/mxv
	.byte	W01
	.byte		        65*seq_044_mvl/mxv
	.byte	W02
	.byte		        69*seq_044_mvl/mxv
	.byte	W01
	.byte		        72*seq_044_mvl/mxv
	.byte	W02
	.byte		        77*seq_044_mvl/mxv
	.byte	W01
	.byte		        80*seq_044_mvl/mxv
	.byte	W02
	.byte		        85*seq_044_mvl/mxv
	.byte	W01
	.byte		        87*seq_044_mvl/mxv
	.byte	W02
	.byte		        92*seq_044_mvl/mxv
	.byte	W01
	.byte		        95*seq_044_mvl/mxv
	.byte	W02
	.byte		        100*seq_044_mvl/mxv
	.byte	W01
	.byte		        102*seq_044_mvl/mxv
	.byte	W02
	.byte		        107*seq_044_mvl/mxv
	.byte	W01
	.byte		        110*seq_044_mvl/mxv
	.byte	W02
	.byte		        118*seq_044_mvl/mxv
	.byte	W52
	.byte	PEND
	.byte	PATT
	 .word	seq_044_9 + 0x3D
	.byte		EOT   , Fs2 
	.byte		TIE   , Gn2 , v100
	.byte	W03
	.byte		VOL   , 12*seq_044_mvl/mxv
	.byte	W02
	.byte		        17*seq_044_mvl/mxv
	.byte	W01
	.byte		        19*seq_044_mvl/mxv
	.byte	W02
	.byte		        24*seq_044_mvl/mxv
	.byte	W01
	.byte		        27*seq_044_mvl/mxv
	.byte	W02
	.byte		        32*seq_044_mvl/mxv
	.byte	W01
	.byte		        34*seq_044_mvl/mxv
	.byte	W02
	.byte		        39*seq_044_mvl/mxv
	.byte	W01
	.byte		        42*seq_044_mvl/mxv
	.byte	W02
	.byte		        47*seq_044_mvl/mxv
	.byte	W01
	.byte		        50*seq_044_mvl/mxv
	.byte	W02
	.byte		        54*seq_044_mvl/mxv
	.byte	W01
	.byte		        57*seq_044_mvl/mxv
	.byte	W02
	.byte		        62*seq_044_mvl/mxv
	.byte	W01
	.byte		        65*seq_044_mvl/mxv
	.byte	W02
	.byte		        69*seq_044_mvl/mxv
	.byte	W01
	.byte		        72*seq_044_mvl/mxv
	.byte	W02
	.byte		        77*seq_044_mvl/mxv
	.byte	W01
	.byte		        80*seq_044_mvl/mxv
	.byte	W02
	.byte		        85*seq_044_mvl/mxv
	.byte	W01
	.byte		        87*seq_044_mvl/mxv
	.byte	W02
	.byte		        92*seq_044_mvl/mxv
	.byte	W01
	.byte		        95*seq_044_mvl/mxv
	.byte	W02
	.byte		        100*seq_044_mvl/mxv
	.byte	W01
	.byte		        102*seq_044_mvl/mxv
	.byte	W02
	.byte		        107*seq_044_mvl/mxv
	.byte	W01
	.byte		        110*seq_044_mvl/mxv
	.byte	W02
	.byte		        118*seq_044_mvl/mxv
	.byte	W52
	.byte	PATT
	 .word	seq_044_9 + 0x3D
	.byte		EOT   , Gn2 
	.byte	PATT
	 .word	seq_044_9 + 0x75
	.byte	W36
	.byte	W01
	.byte		VOL   , 111*seq_044_mvl/mxv
	.byte	W02
	.byte		        110*seq_044_mvl/mxv
	.byte	W02
	.byte		        109*seq_044_mvl/mxv
	.byte	W02
	.byte		        107*seq_044_mvl/mxv
	.byte	W02
	.byte		        105*seq_044_mvl/mxv
	.byte	W02
	.byte		        103*seq_044_mvl/mxv
	.byte	W02
	.byte		        102*seq_044_mvl/mxv
	.byte	W02
	.byte		        101*seq_044_mvl/mxv
	.byte	W01
	.byte		        100*seq_044_mvl/mxv
	.byte	W02
	.byte		        98*seq_044_mvl/mxv
	.byte	W02
	.byte		        96*seq_044_mvl/mxv
	.byte	W02
	.byte		        93*seq_044_mvl/mxv
	.byte	W02
	.byte		        89*seq_044_mvl/mxv
	.byte	W02
	.byte		        86*seq_044_mvl/mxv
	.byte	W02
	.byte		        84*seq_044_mvl/mxv
	.byte	W02
	.byte		        81*seq_044_mvl/mxv
	.byte	W01
	.byte		        79*seq_044_mvl/mxv
	.byte	W02
	.byte		        76*seq_044_mvl/mxv
	.byte	W02
	.byte		        72*seq_044_mvl/mxv
	.byte	W02
	.byte		        69*seq_044_mvl/mxv
	.byte	W02
	.byte		        64*seq_044_mvl/mxv
	.byte	W02
	.byte		        58*seq_044_mvl/mxv
	.byte	W02
	.byte		        51*seq_044_mvl/mxv
	.byte	W02
	.byte		        46*seq_044_mvl/mxv
	.byte	W02
	.byte		        37*seq_044_mvl/mxv
	.byte	W02
	.byte		        26*seq_044_mvl/mxv
	.byte	W02
	.byte		        19*seq_044_mvl/mxv
	.byte	W08
	.byte		VOICE , 37
	.byte		VOL   , 7*seq_044_mvl/mxv
	.byte	W01
	.byte		EOT   , Fs2 
	.byte		TIE   , Cn2 , v100
	.byte	W03
	.byte		VOL   , 12*seq_044_mvl/mxv
	.byte	W02
	.byte		        17*seq_044_mvl/mxv
	.byte	W01
	.byte		        19*seq_044_mvl/mxv
	.byte	W02
	.byte		        24*seq_044_mvl/mxv
	.byte	W01
	.byte		        27*seq_044_mvl/mxv
	.byte	W02
	.byte		        32*seq_044_mvl/mxv
	.byte	W01
	.byte		        34*seq_044_mvl/mxv
	.byte	W02
	.byte		        39*seq_044_mvl/mxv
	.byte	W01
	.byte		        42*seq_044_mvl/mxv
	.byte	W02
	.byte		        47*seq_044_mvl/mxv
	.byte	W01
	.byte		        50*seq_044_mvl/mxv
	.byte	W02
	.byte		        54*seq_044_mvl/mxv
	.byte	W01
	.byte		        57*seq_044_mvl/mxv
	.byte	W02
	.byte		        62*seq_044_mvl/mxv
	.byte	W01
	.byte		        65*seq_044_mvl/mxv
	.byte	W02
	.byte		        69*seq_044_mvl/mxv
	.byte	W01
	.byte		        72*seq_044_mvl/mxv
	.byte	W02
	.byte		        77*seq_044_mvl/mxv
	.byte	W01
	.byte		        80*seq_044_mvl/mxv
	.byte	W02
	.byte		        85*seq_044_mvl/mxv
	.byte	W01
	.byte		        87*seq_044_mvl/mxv
	.byte	W02
	.byte		        92*seq_044_mvl/mxv
	.byte	W01
	.byte		        95*seq_044_mvl/mxv
	.byte	W02
	.byte		        100*seq_044_mvl/mxv
	.byte	W01
	.byte		        102*seq_044_mvl/mxv
	.byte	W02
	.byte		        107*seq_044_mvl/mxv
	.byte	W01
	.byte		        110*seq_044_mvl/mxv
	.byte	W02
	.byte		        118*seq_044_mvl/mxv
	.byte	W52
	.byte	PEND
	.byte	PATT
	 .word	seq_044_9 + 0x3D
	.byte		EOT   , Cn2 
	.byte		TIE   , Bn1 , v100
	.byte	W03
	.byte		VOL   , 12*seq_044_mvl/mxv
	.byte	W02
	.byte		        17*seq_044_mvl/mxv
	.byte	W01
	.byte		        19*seq_044_mvl/mxv
	.byte	W02
	.byte		        24*seq_044_mvl/mxv
	.byte	W01
	.byte		        27*seq_044_mvl/mxv
	.byte	W02
	.byte		        32*seq_044_mvl/mxv
	.byte	W01
	.byte		        34*seq_044_mvl/mxv
	.byte	W02
	.byte		        39*seq_044_mvl/mxv
	.byte	W01
	.byte		        42*seq_044_mvl/mxv
	.byte	W02
	.byte		        47*seq_044_mvl/mxv
	.byte	W01
	.byte		        50*seq_044_mvl/mxv
	.byte	W02
	.byte		        54*seq_044_mvl/mxv
	.byte	W01
	.byte		        57*seq_044_mvl/mxv
	.byte	W02
	.byte		        62*seq_044_mvl/mxv
	.byte	W01
	.byte		        65*seq_044_mvl/mxv
	.byte	W02
	.byte		        69*seq_044_mvl/mxv
	.byte	W01
	.byte		        72*seq_044_mvl/mxv
	.byte	W02
	.byte		        77*seq_044_mvl/mxv
	.byte	W01
	.byte		        80*seq_044_mvl/mxv
	.byte	W02
	.byte		        85*seq_044_mvl/mxv
	.byte	W01
	.byte		        87*seq_044_mvl/mxv
	.byte	W02
	.byte		        92*seq_044_mvl/mxv
	.byte	W01
	.byte		        95*seq_044_mvl/mxv
	.byte	W02
	.byte		        100*seq_044_mvl/mxv
	.byte	W01
	.byte		        102*seq_044_mvl/mxv
	.byte	W02
	.byte		        107*seq_044_mvl/mxv
	.byte	W01
	.byte		        110*seq_044_mvl/mxv
	.byte	W02
	.byte		        118*seq_044_mvl/mxv
	.byte	W52
	.byte	PEND
	.byte	PATT
	 .word	seq_044_9 + 0x3D
	.byte		EOT   , Bn1 
	.byte	PATT
	 .word	seq_044_9 + 0x143
	.byte	PATT
	 .word	seq_044_9 + 0x3D
	.byte		EOT   , Cn2 
	.byte	PATT
	 .word	seq_044_9 + 0x188
	.byte	W36
	.byte	W01
	.byte		VOL   , 111*seq_044_mvl/mxv
	.byte	W02
	.byte		        110*seq_044_mvl/mxv
	.byte	W02
	.byte		        109*seq_044_mvl/mxv
	.byte	W02
	.byte		        107*seq_044_mvl/mxv
	.byte	W02
	.byte		        105*seq_044_mvl/mxv
	.byte	W02
	.byte		        103*seq_044_mvl/mxv
	.byte	W02
	.byte		        102*seq_044_mvl/mxv
	.byte	W02
	.byte		        101*seq_044_mvl/mxv
	.byte	W01
	.byte		        100*seq_044_mvl/mxv
	.byte	W02
	.byte		        98*seq_044_mvl/mxv
	.byte	W02
	.byte		        96*seq_044_mvl/mxv
	.byte	W02
	.byte		        93*seq_044_mvl/mxv
	.byte	W02
	.byte		        89*seq_044_mvl/mxv
	.byte	W02
	.byte		        86*seq_044_mvl/mxv
	.byte	W02
	.byte		        84*seq_044_mvl/mxv
	.byte	W02
	.byte		        81*seq_044_mvl/mxv
	.byte	W01
	.byte		        79*seq_044_mvl/mxv
	.byte	W02
	.byte		        76*seq_044_mvl/mxv
	.byte	W02
	.byte		        72*seq_044_mvl/mxv
	.byte	W02
	.byte		        69*seq_044_mvl/mxv
	.byte	W02
	.byte		        64*seq_044_mvl/mxv
	.byte	W02
	.byte		        58*seq_044_mvl/mxv
	.byte	W02
	.byte		        51*seq_044_mvl/mxv
	.byte	W02
	.byte		        46*seq_044_mvl/mxv
	.byte	W14
	.byte		VOICE , 32
	.byte		VOL   , 7*seq_044_mvl/mxv
	.byte	W01
	.byte	PEND
	.byte		EOT   , Bn1 
	.byte		TIE   , As2 , v127
	.byte	W03
	.byte		VOL   , 12*seq_044_mvl/mxv
	.byte	W02
	.byte		        17*seq_044_mvl/mxv
	.byte	W01
	.byte		        19*seq_044_mvl/mxv
	.byte	W02
	.byte		        24*seq_044_mvl/mxv
	.byte	W01
	.byte		        27*seq_044_mvl/mxv
	.byte	W02
	.byte		        32*seq_044_mvl/mxv
	.byte	W01
	.byte		        34*seq_044_mvl/mxv
	.byte	W02
	.byte		        39*seq_044_mvl/mxv
	.byte	W01
	.byte		        42*seq_044_mvl/mxv
	.byte	W02
	.byte		        47*seq_044_mvl/mxv
	.byte	W01
	.byte		        50*seq_044_mvl/mxv
	.byte	W02
	.byte		        54*seq_044_mvl/mxv
	.byte	W01
	.byte		        57*seq_044_mvl/mxv
	.byte	W02
	.byte		        62*seq_044_mvl/mxv
	.byte	W01
	.byte		        65*seq_044_mvl/mxv
	.byte	W02
	.byte		        69*seq_044_mvl/mxv
	.byte	W01
	.byte		        72*seq_044_mvl/mxv
	.byte	W02
	.byte		        77*seq_044_mvl/mxv
	.byte	W01
	.byte		        80*seq_044_mvl/mxv
	.byte	W02
	.byte		        85*seq_044_mvl/mxv
	.byte	W01
	.byte		        87*seq_044_mvl/mxv
	.byte	W02
	.byte		        92*seq_044_mvl/mxv
	.byte	W01
	.byte		        95*seq_044_mvl/mxv
	.byte	W02
	.byte		        100*seq_044_mvl/mxv
	.byte	W01
	.byte		        102*seq_044_mvl/mxv
	.byte	W02
	.byte		        107*seq_044_mvl/mxv
	.byte	W01
	.byte		        110*seq_044_mvl/mxv
	.byte	W02
	.byte		        118*seq_044_mvl/mxv
	.byte	W52
	.byte	PATT
	 .word	seq_044_9 + 0x1DE
	.byte		EOT   , As2 
	.byte		TIE   , An2 , v127
	.byte	W03
	.byte		VOL   , 12*seq_044_mvl/mxv
	.byte	W02
	.byte		        17*seq_044_mvl/mxv
	.byte	W01
	.byte		        19*seq_044_mvl/mxv
	.byte	W02
	.byte		        24*seq_044_mvl/mxv
	.byte	W01
	.byte		        27*seq_044_mvl/mxv
	.byte	W02
	.byte		        32*seq_044_mvl/mxv
	.byte	W01
	.byte		        34*seq_044_mvl/mxv
	.byte	W02
	.byte		        39*seq_044_mvl/mxv
	.byte	W01
	.byte		        42*seq_044_mvl/mxv
	.byte	W02
	.byte		        47*seq_044_mvl/mxv
	.byte	W01
	.byte		        50*seq_044_mvl/mxv
	.byte	W02
	.byte		        54*seq_044_mvl/mxv
	.byte	W01
	.byte		        57*seq_044_mvl/mxv
	.byte	W02
	.byte		        62*seq_044_mvl/mxv
	.byte	W01
	.byte		        65*seq_044_mvl/mxv
	.byte	W02
	.byte		        69*seq_044_mvl/mxv
	.byte	W01
	.byte		        72*seq_044_mvl/mxv
	.byte	W02
	.byte		        77*seq_044_mvl/mxv
	.byte	W01
	.byte		        80*seq_044_mvl/mxv
	.byte	W02
	.byte		        85*seq_044_mvl/mxv
	.byte	W01
	.byte		        87*seq_044_mvl/mxv
	.byte	W02
	.byte		        92*seq_044_mvl/mxv
	.byte	W01
	.byte		        95*seq_044_mvl/mxv
	.byte	W02
	.byte		        100*seq_044_mvl/mxv
	.byte	W01
	.byte		        102*seq_044_mvl/mxv
	.byte	W02
	.byte		        107*seq_044_mvl/mxv
	.byte	W01
	.byte		        110*seq_044_mvl/mxv
	.byte	W02
	.byte		        118*seq_044_mvl/mxv
	.byte	W52
	.byte	PATT
	 .word	seq_044_9 + 0x3D
	.byte		EOT   , An2 
	.byte		N48   , Gs2 , v127
	.byte	W03
	.byte		VOL   , 28*seq_044_mvl/mxv
	.byte	W02
	.byte		        36*seq_044_mvl/mxv
	.byte	W01
	.byte		        41*seq_044_mvl/mxv
	.byte	W02
	.byte		        51*seq_044_mvl/mxv
	.byte	W01
	.byte		        55*seq_044_mvl/mxv
	.byte	W02
	.byte		        64*seq_044_mvl/mxv
	.byte	W01
	.byte		        68*seq_044_mvl/mxv
	.byte	W02
	.byte		        77*seq_044_mvl/mxv
	.byte	W01
	.byte		        82*seq_044_mvl/mxv
	.byte	W02
	.byte		        91*seq_044_mvl/mxv
	.byte	W01
	.byte		        96*seq_044_mvl/mxv
	.byte	W02
	.byte		        104*seq_044_mvl/mxv
	.byte	W01
	.byte		        109*seq_044_mvl/mxv
	.byte	W02
	.byte		        119*seq_044_mvl/mxv
	.byte	W24
	.byte	W01
	.byte		N48   , Gn2 
	.byte	W48
	.byte		        Fs2 
	.byte	W44
	.byte	W03
	.byte		VOL   , 111*seq_044_mvl/mxv
	.byte	W01
	.byte		N48   , Fn2 
	.byte	W01
	.byte		VOL   , 110*seq_044_mvl/mxv
	.byte	W02
	.byte		        109*seq_044_mvl/mxv
	.byte	W02
	.byte		        107*seq_044_mvl/mxv
	.byte	W02
	.byte		        105*seq_044_mvl/mxv
	.byte	W02
	.byte		        103*seq_044_mvl/mxv
	.byte	W02
	.byte		        102*seq_044_mvl/mxv
	.byte	W02
	.byte		        101*seq_044_mvl/mxv
	.byte	W01
	.byte		        100*seq_044_mvl/mxv
	.byte	W02
	.byte		        98*seq_044_mvl/mxv
	.byte	W02
	.byte		        96*seq_044_mvl/mxv
	.byte	W02
	.byte		        93*seq_044_mvl/mxv
	.byte	W02
	.byte		        89*seq_044_mvl/mxv
	.byte	W02
	.byte		        86*seq_044_mvl/mxv
	.byte	W02
	.byte		        84*seq_044_mvl/mxv
	.byte	W02
	.byte		        81*seq_044_mvl/mxv
	.byte	W01
	.byte		        79*seq_044_mvl/mxv
	.byte	W02
	.byte		        76*seq_044_mvl/mxv
	.byte	W02
	.byte		        72*seq_044_mvl/mxv
	.byte	W02
	.byte		        69*seq_044_mvl/mxv
	.byte	W02
	.byte		        64*seq_044_mvl/mxv
	.byte	W02
	.byte		        58*seq_044_mvl/mxv
	.byte	W02
	.byte		        51*seq_044_mvl/mxv
	.byte	W02
	.byte		        46*seq_044_mvl/mxv
	.byte	W04
	.byte		VOICE , 93
	.byte		VOL   , 94*seq_044_mvl/mxv
	.byte	W01
	.byte		TIE   , As1 , v120
	.byte	W96
	.byte	W96
	.byte		EOT
	.byte		TIE
	.byte	W96
	.byte	W92
	.byte	W03
	.byte		VOICE , 73
	.byte		VOL   , 94*seq_044_mvl/mxv
	.byte	W01
	.byte	PEND
	.byte		EOT   , As1 
	.byte		N96   , Ds2 , v127
	.byte	W96
	.byte		        Fn2 
	.byte	W96
	.byte		        Ds2 
	.byte	W96
	.byte		N48   , Bn1 , v127
	.byte	W48
	.byte		        Cs2 
	.byte	W48
	.byte	PEND
	.byte		N96   , Ds2 
	.byte	W96
	.byte		        Fn2 
	.byte	W96
	.byte		        Ds2 
	.byte	W96
	.byte		N48   , Bn1 , v127
	.byte	W48
	.byte		        Cs2 
	.byte	W44
	.byte	W03
	.byte		VOICE , 73
	.byte		VOL   , 94*seq_044_mvl/mxv
	.byte	W01
	.byte	PEND
	.byte		N96   , Bn1 
	.byte	W96
	.byte		N96
	.byte	W96
	.byte		        Cs2 
	.byte	W96
	.byte		N96
	.byte	W96
	.byte		        Bn1 
	.byte	W96
	.byte		N96
	.byte	W96
	.byte		        Cs2 
	.byte	W96
	.byte		N96
	.byte	W96
	.byte		        Ds2 
	.byte	W96
	.byte		        Fn2 
	.byte	W96
	.byte		        Ds2 
	.byte	W96
	.byte	PATT
	 .word	seq_044_9 + 0x31D
	.byte		N96   , Ds2 , v127
	.byte	W96
	.byte		        Fn2 
	.byte	W96
	.byte		        Ds2 
	.byte	W96
	.byte	PATT
	 .word	seq_044_9 + 0x32B
	.byte		N96   , Bn1 , v127
	.byte	W96
	.byte		N96
	.byte	W96
	.byte		        Cs2 
	.byte	W96
	.byte		N96
	.byte	W96
	.byte		        Bn1 
	.byte	W96
	.byte		N96
	.byte	W96
	.byte		        Cs2 
	.byte	W96
	.byte		N96
	.byte	W92
	.byte	W03
	.byte		VOICE , 37
	.byte	W01
	.byte		N96   , Bn1 
	.byte	W96
	.byte		N96
	.byte	W96
	.byte		        Cs2 
	.byte	W96
	.byte		N96
	.byte	W96
	.byte		        Bn1 
	.byte	W96
	.byte		N96
	.byte	W96
	.byte		        Cs2 
	.byte	W96
	.byte		N96
	.byte	W36
	.byte	W01
	.byte		VOL   , 111*seq_044_mvl/mxv
	.byte	W02
	.byte		        110*seq_044_mvl/mxv
	.byte	W02
	.byte		        109*seq_044_mvl/mxv
	.byte	W02
	.byte		        107*seq_044_mvl/mxv
	.byte	W02
	.byte		        105*seq_044_mvl/mxv
	.byte	W02
	.byte		        103*seq_044_mvl/mxv
	.byte	W02
	.byte		        102*seq_044_mvl/mxv
	.byte	W02
	.byte		        101*seq_044_mvl/mxv
	.byte	W01
	.byte		        100*seq_044_mvl/mxv
	.byte	W02
	.byte		        98*seq_044_mvl/mxv
	.byte	W02
	.byte		        96*seq_044_mvl/mxv
	.byte	W02
	.byte		        93*seq_044_mvl/mxv
	.byte	W02
	.byte		        89*seq_044_mvl/mxv
	.byte	W02
	.byte		        86*seq_044_mvl/mxv
	.byte	W02
	.byte		        84*seq_044_mvl/mxv
	.byte	W02
	.byte		        81*seq_044_mvl/mxv
	.byte	W01
	.byte		        79*seq_044_mvl/mxv
	.byte	W02
	.byte		        76*seq_044_mvl/mxv
	.byte	W02
	.byte		        72*seq_044_mvl/mxv
	.byte	W02
	.byte		        69*seq_044_mvl/mxv
	.byte	W02
	.byte		        64*seq_044_mvl/mxv
	.byte	W02
	.byte		        58*seq_044_mvl/mxv
	.byte	W02
	.byte		        51*seq_044_mvl/mxv
	.byte	W02
	.byte		        46*seq_044_mvl/mxv
	.byte	W14
	.byte		        7*seq_044_mvl/mxv
	.byte	W01
	.byte		N96   , Bn1 
	.byte	W03
	.byte		VOL   , 12*seq_044_mvl/mxv
	.byte	W02
	.byte		        17*seq_044_mvl/mxv
	.byte	W01
	.byte		        19*seq_044_mvl/mxv
	.byte	W02
	.byte		        24*seq_044_mvl/mxv
	.byte	W01
	.byte		        27*seq_044_mvl/mxv
	.byte	W02
	.byte		        32*seq_044_mvl/mxv
	.byte	W01
	.byte		        34*seq_044_mvl/mxv
	.byte	W02
	.byte		        39*seq_044_mvl/mxv
	.byte	W01
	.byte		        42*seq_044_mvl/mxv
	.byte	W02
	.byte		        47*seq_044_mvl/mxv
	.byte	W01
	.byte		        50*seq_044_mvl/mxv
	.byte	W02
	.byte		        54*seq_044_mvl/mxv
	.byte	W01
	.byte		        57*seq_044_mvl/mxv
	.byte	W02
	.byte		        62*seq_044_mvl/mxv
	.byte	W01
	.byte		        65*seq_044_mvl/mxv
	.byte	W02
	.byte		        69*seq_044_mvl/mxv
	.byte	W01
	.byte		        72*seq_044_mvl/mxv
	.byte	W02
	.byte		        77*seq_044_mvl/mxv
	.byte	W01
	.byte		        80*seq_044_mvl/mxv
	.byte	W02
	.byte		        85*seq_044_mvl/mxv
	.byte	W01
	.byte		        87*seq_044_mvl/mxv
	.byte	W02
	.byte		        92*seq_044_mvl/mxv
	.byte	W01
	.byte		        95*seq_044_mvl/mxv
	.byte	W02
	.byte		        100*seq_044_mvl/mxv
	.byte	W01
	.byte		        102*seq_044_mvl/mxv
	.byte	W02
	.byte		        107*seq_044_mvl/mxv
	.byte	W01
	.byte		        110*seq_044_mvl/mxv
	.byte	W02
	.byte		        118*seq_044_mvl/mxv
	.byte	W52
	.byte		N96
	.byte	W96
	.byte		        Cs2 
	.byte	W96
	.byte		N96
	.byte	W96
	.byte		        Bn1 
	.byte	W96
	.byte		N96
	.byte	W96
	.byte		        Cs2 
	.byte	W96
	.byte	PATT
	 .word	seq_044_9 + 0x30B
	.byte		N96   , Ds2 , v127
	.byte	W96
	.byte		        Cs2 
	.byte	W96
	.byte		        Cn2 
	.byte	W96
	.byte	PATT
	 .word	seq_044_9 + 0x31D
	.byte		N96   , Ds2 , v127
	.byte	W96
	.byte		        Cs2 
	.byte	W96
	.byte		        Cn2 
	.byte	W96
	.byte	PATT
	 .word	seq_044_9 + 0x31D
	.byte		N96   , Ds2 , v127
	.byte	W96
	.byte		        Fn2 
	.byte	W96
	.byte		        Ds2 
	.byte	W96
	.byte	PATT
	 .word	seq_044_9 + 0x31D
	.byte	GOTO
	 .word	seq_044_9 + 0x354
	.byte W96, W96, W96, W96, W96, W96, W96, W96, W96, W96, W96, W96
	.byte	FINE

@*********************** Track 11 ***********************@

seq_044_10:
	.byte	KEYSH , seq_044_key+0
	.byte	W18
	.byte		VOL   , 120*seq_044_mvl/mxv
	.byte		PAN   , c_v+0
	.byte	W01
	.byte		VOICE , 46
	.byte	W17
	.byte	W96
	.byte	W96
	.byte	W96
	.byte	W96
	.byte	W96
	.byte	W96
	.byte	W96
	.byte	W96
	.byte		N12   , Cn2 , v127
	.byte	W12
	.byte		        Dn3 
	.byte	W12
	.byte		        An3 
	.byte	W12
	.byte		N24   , Dn4 , v100
	.byte	W60
	.byte	PEND
	.byte	PATT
	 .word	seq_044_10 + 0x13
	.byte		N12   , Bn1 , v127
	.byte	W12
	.byte		        Dn3 
	.byte	W12
	.byte		        Gn3 
	.byte	W12
	.byte		N24   , Dn4 , v100
	.byte	W60
	.byte	PEND
	.byte	PATT
	 .word	seq_044_10 + 0x25
	.byte	PATT
	 .word	seq_044_10 + 0x13
	.byte	PATT
	 .word	seq_044_10 + 0x13
	.byte	PATT
	 .word	seq_044_10 + 0x25
	.byte	PATT
	 .word	seq_044_10 + 0x25
	.byte		N06   , As1 , v127
	.byte	W12
	.byte		        Gn3 
	.byte	W12
	.byte		        Gn3 , v016
	.byte	W12
	.byte		        Gn3 , v127
	.byte	W12
	.byte		        Gn3 , v012
	.byte	W12
	.byte		        Gn3 , v127
	.byte	W12
	.byte		        Gn3 , v008
	.byte	W12
	.byte		        Gn3 , v127
	.byte	W12
	.byte	PEND
	.byte	PATT
	 .word	seq_044_10 + 0x4B
	.byte		N06   , An1 , v127
	.byte	W12
	.byte		        Fn3 
	.byte	W12
	.byte		        Fn3 , v016
	.byte	W12
	.byte		        Fn3 , v127
	.byte	W12
	.byte		        Fn3 , v012
	.byte	W12
	.byte		        Fn3 , v127
	.byte	W12
	.byte		        Fn3 , v008
	.byte	W12
	.byte		        Fn3 , v127
	.byte	W12
	.byte	PEND
	.byte	PATT
	 .word	seq_044_10 + 0x69
	.byte		N06   , Gs1 , v127
	.byte	W12
	.byte		        Gs3 
	.byte	W24
	.byte		N06
	.byte	W12
	.byte		        Gn1 
	.byte	W12
	.byte		        Gn3 
	.byte	W24
	.byte		N06
	.byte	W12
	.byte		        Fs1 
	.byte	W12
	.byte		        Fs3 
	.byte	W24
	.byte		N06
	.byte	W12
	.byte		        Fn1 
	.byte	W12
	.byte		        Fn3 
	.byte	W24
	.byte		N06
	.byte	W11
	.byte		VOICE , 127
	.byte	W01
	.byte		N13   , Ds2 , v060
	.byte	W24
	.byte		N24   , En2 , v040
	.byte	W24
	.byte		N13   , Ds2 , v060
	.byte	W24
	.byte		N13
	.byte	W24
	.byte	PEND
	.byte	PATT
	 .word	seq_044_10 + 0xA4
	.byte	PATT
	 .word	seq_044_10 + 0xA4
	.byte	PATT
	 .word	seq_044_10 + 0xA4
	.byte		N08   , Ds2 , v052
	.byte	W12
	.byte		N03   , Fs1 , v020
	.byte	W04
	.byte		        Fs1 , v040
	.byte	W08
	.byte		N14   , En2 
	.byte	W16
	.byte		N03   , Fs1 , v012
	.byte	W04
	.byte		        Fs1 , v028
	.byte	W04
	.byte		N08   , Ds2 , v052
	.byte	W16
	.byte		N03   , Fs1 , v040
	.byte	W04
	.byte		        Fs1 , v020
	.byte	W04
	.byte		N08   , Ds2 , v052
	.byte	W16
	.byte		N03   , Fs1 , v040
	.byte	W04
	.byte		        Fs1 , v020
	.byte	W04
	.byte	PEND
	.byte	PATT
	 .word	seq_044_10 + 0xC2
	.byte	PATT
	 .word	seq_044_10 + 0xC2
	.byte	PATT
	 .word	seq_044_10 + 0xC2
	.byte	PATT
	 .word	seq_044_10 + 0xC2
	.byte	PATT
	 .word	seq_044_10 + 0xC2
	.byte	PATT
	 .word	seq_044_10 + 0xC2
	.byte	PATT
	 .word	seq_044_10 + 0xC2
	.byte	PATT
	 .word	seq_044_10 + 0xA4
	.byte	PATT
	 .word	seq_044_10 + 0xA4
	.byte	PATT
	 .word	seq_044_10 + 0xA4
	.byte	PATT
	 .word	seq_044_10 + 0xA4
	.byte	PATT
	 .word	seq_044_10 + 0xA4
	.byte	PATT
	 .word	seq_044_10 + 0xA4
	.byte	PATT
	 .word	seq_044_10 + 0xA4
	.byte	PATT
	 .word	seq_044_10 + 0xA4
	.byte	PATT
	 .word	seq_044_10 + 0xC2
	.byte	PATT
	 .word	seq_044_10 + 0xC2
	.byte	PATT
	 .word	seq_044_10 + 0xC2
	.byte	PATT
	 .word	seq_044_10 + 0xC2
	.byte	PATT
	 .word	seq_044_10 + 0xC2
	.byte	PATT
	 .word	seq_044_10 + 0xC2
	.byte	PATT
	 .word	seq_044_10 + 0xC2
	.byte	PATT
	 .word	seq_044_10 + 0xC2
	.byte	PATT
	 .word	seq_044_10 + 0xA4
	.byte	PATT
	 .word	seq_044_10 + 0xA4
	.byte	PATT
	 .word	seq_044_10 + 0xA4
	.byte	PATT
	 .word	seq_044_10 + 0xA4
	.byte	PATT
	 .word	seq_044_10 + 0xA4
	.byte	PATT
	 .word	seq_044_10 + 0xA4
	.byte	PATT
	 .word	seq_044_10 + 0xA4
	.byte	PATT
	 .word	seq_044_10 + 0xA4
	.byte		N08   , Ds2 , v052
	.byte	W16
	.byte		N03   , Fs1 , v040
	.byte	W08
	.byte		N24   , En2 
	.byte	W24
	.byte		N08   , Ds2 , v052
	.byte	W16
	.byte		N03   , Fs1 , v020
	.byte	W08
	.byte		N08   , Ds2 , v052
	.byte	W16
	.byte		N03   , Fs1 , v020
	.byte	W08
	.byte	PEND
	.byte	PATT
	 .word	seq_044_10 + 0x189
	.byte	PATT
	 .word	seq_044_10 + 0x189
	.byte	PATT
	 .word	seq_044_10 + 0x189
	.byte	PATT
	 .word	seq_044_10 + 0x189
	.byte	PATT
	 .word	seq_044_10 + 0x189
	.byte	PATT
	 .word	seq_044_10 + 0x189
	.byte	PATT
	 .word	seq_044_10 + 0x189
	.byte	PATT
	 .word	seq_044_10 + 0x189
	.byte	PATT
	 .word	seq_044_10 + 0x189
	.byte	PATT
	 .word	seq_044_10 + 0x189
	.byte	PATT
	 .word	seq_044_10 + 0x189
	.byte	PATT
	 .word	seq_044_10 + 0x189
	.byte	PATT
	 .word	seq_044_10 + 0x189
	.byte	PATT
	 .word	seq_044_10 + 0x189
	.byte		N13   , Ds2 , v060
	.byte	W48
	.byte		N13
	.byte	W24
	.byte		N13
	.byte	W24
	.byte	PATT
	 .word	seq_044_10 + 0xA4
	.byte	PATT
	 .word	seq_044_10 + 0xA4
	.byte	PATT
	 .word	seq_044_10 + 0xA4
	.byte	PATT
	 .word	seq_044_10 + 0xA4
	.byte	PATT
	 .word	seq_044_10 + 0xA4
	.byte	PATT
	 .word	seq_044_10 + 0xA4
	.byte	PATT
	 .word	seq_044_10 + 0xA4
	.byte	PATT
	 .word	seq_044_10 + 0xA4
	.byte	PATT
	 .word	seq_044_10 + 0xC2
	.byte	PATT
	 .word	seq_044_10 + 0xC2
	.byte	PATT
	 .word	seq_044_10 + 0xC2
	.byte	PATT
	 .word	seq_044_10 + 0xC2
	.byte	GOTO
	 .word	seq_044_10 + 0x14D
	.byte W96, W96, W96, W96, W96, W96, W96, W96, W96, W96, W96, W96
	.byte	FINE

@*********************** Track 12 ***********************@

seq_044_11:
	.byte	KEYSH , seq_044_key+0
	.byte	W20
	.byte		VOICE , 127
	.byte		VOL   , 120*seq_044_mvl/mxv
	.byte		PAN   , c_v+0
	.byte	W16
	.byte	W96
	.byte	W96
	.byte	W96
	.byte	W96
	.byte	W96
	.byte	W96
	.byte	W96
	.byte	W96
	.byte	W96
	.byte	W96
	.byte	W96
	.byte	W96
	.byte	W96
	.byte	W96
	.byte	W96
	.byte	W96
	.byte	W96
	.byte	W96
	.byte	W96
	.byte	W96
	.byte	W96
	.byte	W96
	.byte		N04   , Fs3 , v127
	.byte	W24
	.byte		N08   , An4 , v080
	.byte	W16
	.byte		N02   , An1 , v100
	.byte	W02
	.byte		        An1 , v008
	.byte	W02
	.byte		        An1 , v028
	.byte	W04
	.byte		N06   , Gn1 , v120
	.byte	W24
	.byte		N06
	.byte	W24
	.byte	PEND
	.byte	PATT
	 .word	seq_044_11 + 0x20
	.byte	PATT
	 .word	seq_044_11 + 0x20
	.byte	PATT
	 .word	seq_044_11 + 0x20
	.byte		N04   , Fs3 , v127
	.byte	W16
	.byte		N02   , An1 , v100
	.byte	W08
	.byte		N08   , An4 , v080
	.byte	W16
	.byte		N02   , An1 , v100
	.byte	W08
	.byte		N04   , Fs3 , v127
	.byte	W24
	.byte		N04
	.byte	W16
	.byte		N02   , An1 , v100
	.byte	W08
	.byte	PEND
	.byte	PATT
	 .word	seq_044_11 + 0x48
	.byte	PATT
	 .word	seq_044_11 + 0x48
	.byte	PATT
	 .word	seq_044_11 + 0x48
	.byte	PATT
	 .word	seq_044_11 + 0x48
	.byte	PATT
	 .word	seq_044_11 + 0x48
	.byte	PATT
	 .word	seq_044_11 + 0x48
	.byte	PATT
	 .word	seq_044_11 + 0x48
	.byte		N04   , Fs3 , v127
	.byte	W24
	.byte		N08   , An4 , v080
	.byte	W16
	.byte		N02   , An1 , v100
	.byte	W08
	.byte		N06   , Gn1 , v120
	.byte	W24
	.byte		N08   , An4 , v080
	.byte	W16
	.byte		N02   , An1 , v100
	.byte	W08
	.byte	PEND
	.byte	PATT
	 .word	seq_044_11 + 0x86
	.byte	PATT
	 .word	seq_044_11 + 0x86
	.byte	PATT
	 .word	seq_044_11 + 0x86
	.byte	PATT
	 .word	seq_044_11 + 0x86
	.byte	PATT
	 .word	seq_044_11 + 0x86
	.byte	PATT
	 .word	seq_044_11 + 0x86
	.byte	PATT
	 .word	seq_044_11 + 0x86
	.byte	PATT
	 .word	seq_044_11 + 0x48
	.byte	PATT
	 .word	seq_044_11 + 0x48
	.byte	PATT
	 .word	seq_044_11 + 0x48
	.byte	PATT
	 .word	seq_044_11 + 0x48
	.byte	PATT
	 .word	seq_044_11 + 0x48
	.byte	PATT
	 .word	seq_044_11 + 0x48
	.byte	PATT
	 .word	seq_044_11 + 0x48
	.byte	PATT
	 .word	seq_044_11 + 0x48
	.byte	PATT
	 .word	seq_044_11 + 0x86
	.byte	PATT
	 .word	seq_044_11 + 0x86
	.byte	PATT
	 .word	seq_044_11 + 0x86
	.byte	PATT
	 .word	seq_044_11 + 0x86
	.byte	PATT
	 .word	seq_044_11 + 0x86
	.byte	PATT
	 .word	seq_044_11 + 0x86
	.byte	PATT
	 .word	seq_044_11 + 0x86
	.byte		N04   , Fs3 , v127
	.byte	W24
	.byte		N08   , An4 , v080
	.byte	W16
	.byte		N02   , An1 , v100
	.byte	W08
	.byte		N06   , Gn1 , v120
	.byte	W16
	.byte		N02   , An1 , v100
	.byte	W08
	.byte		N08   , An4 , v080
	.byte	W24
	.byte	W96
	.byte	W96
	.byte	W96
	.byte	W96
	.byte	W96
	.byte	W96
	.byte	W96
	.byte	W96
	.byte	W96
	.byte	W96
	.byte	W96
	.byte	W96
	.byte	W96
	.byte	W96
	.byte	W96
	.byte		N03   , An1 
	.byte	W24
	.byte		N03
	.byte	W16
	.byte		N03
	.byte	W08
	.byte		        Gn1 , v120
	.byte	W24
	.byte		N03
	.byte	W24
	.byte	PATT
	 .word	seq_044_11 + 0x48
	.byte	PATT
	 .word	seq_044_11 + 0x48
	.byte	PATT
	 .word	seq_044_11 + 0x48
	.byte	PATT
	 .word	seq_044_11 + 0x48
	.byte	PATT
	 .word	seq_044_11 + 0x48
	.byte	PATT
	 .word	seq_044_11 + 0x48
	.byte	PATT
	 .word	seq_044_11 + 0x48
	.byte	PATT
	 .word	seq_044_11 + 0x86
	.byte		N04   , Fs3 , v127
	.byte	W16
	.byte		N02   , An1 , v100
	.byte	W02
	.byte		        An1 , v008
	.byte	W02
	.byte		        An1 , v028
	.byte	W04
	.byte		N08   , An4 , v080
	.byte	W16
	.byte		N02   , An1 , v100
	.byte	W08
	.byte		N04   , Fs3 , v127
	.byte	W24
	.byte		N04
	.byte	W16
	.byte		N02   , An1 , v100
	.byte	W08
	.byte	PEND
	.byte	PATT
	 .word	seq_044_11 + 0x168
	.byte	PATT
	 .word	seq_044_11 + 0x168
	.byte	PATT
	 .word	seq_044_11 + 0x168
	.byte	GOTO
	 .word	seq_044_11 + 0xD6
	.byte W96, W96, W96, W96, W96, W96, W96, W96, W96, W96, W96, W96
	.byte	FINE

@******************************************************@

	.align	2

seq_044:
	.byte	12	@ NumTrks
	.byte	0	@ NumBlks
	.byte	seq_044_pri	@ Priority
	.byte	seq_044_rev	@ Reverb

	.word	seq_044_grp

	.word	seq_044_0
	.word	seq_044_1
	.word	seq_044_2
	.word	seq_044_3
	.word	seq_044_4
	.word	seq_044_5
	.word	seq_044_6
	.word	seq_044_7
	.word	seq_044_8
	.word	seq_044_9
	.word	seq_044_10
	.word	seq_044_11

	.end
