@ File generated by m4a2s Song-Module
	.include "MPlayDef.s"

	.equ	seq_024_grp, bank_000
	.equ	seq_024_pri, 50
	.equ	seq_024_rev, 208
	.equ	seq_024_mvl, 127
	.equ	seq_024_key, 0

	.section .rodata
	.global	seq_024
	.align	2

@*********************** Track 01 ***********************@

seq_024_0:
	.byte	KEYSH , seq_024_key+0
	.byte	TEMPO , 60/2
	.byte		VOICE , 76
	.byte		VOL   , 73*seq_024_mvl/mxv
	.byte		PAN   , c_v+0
	.byte	W01
	.byte		MOD   , 50
	.byte		MODT  , mod_tre
	.byte	W32
	.byte	W03
	.byte	W48
	.byte	TEMPO , 60/2
	.byte	W48
	.byte	W48
	.byte	TEMPO , 82/2
	.byte	W12
	.byte		N11   , Ds4 , v100
	.byte	W12
	.byte		N04   , Dn4 , v080
	.byte	W12
	.byte		N36   , As3 , v072
	.byte	W12
	.byte	W60
	.byte		N11   , Ds4 , v100
	.byte	W12
	.byte		N04   , Dn4 , v080
	.byte	W12
	.byte		N36   , As3 , v072
	.byte	W12
	.byte	PEND
	.byte	W60
	.byte		N11   , Ds4 , v100
	.byte	W12
	.byte		N04   , Dn4 , v080
	.byte	W11
	.byte		N15   , Fn4 , v092
	.byte	W13
	.byte	PEND
	.byte	W12
	.byte		        Ds4 , v056
	.byte	W24
	.byte		        Dn4 , v096
	.byte	W24
	.byte		        Ds4 
	.byte	W24
	.byte	W02
	.byte		N48   , As3 , v088
	.byte	W10
	.byte	PATT
	 .word	seq_024_0 + 0x25
	.byte	PATT
	 .word	seq_024_0 + 0x25
	.byte	PATT
	 .word	seq_024_0 + 0x33
	.byte	W12
	.byte		N15   , Ds4 , v056
	.byte	W24
	.byte		        Dn4 , v096
	.byte	W24
	.byte		        Ds4 
	.byte	W24
	.byte	W02
	.byte		N44   , Gn4 , v072
	.byte	W10
	.byte	W96
	.byte	W96
	.byte	W96
	.byte	W96
	.byte	W96
	.byte	W96
	.byte	W92
	.byte	W03
	.byte		VOICE , 10
	.byte		MOD   , 80
	.byte		VOL   , 68*seq_024_mvl/mxv
	.byte		MODT  , mod_pan
	.byte	W01
	.byte	PEND
	.byte	W24
	.byte	TEMPO , 86/2
	.byte	W24
	.byte	TEMPO , 78/2
	.byte	W24
	.byte	TEMPO , 58/2
	.byte	W24
	.byte	TEMPO , 40/2
	.byte	W24
	.byte	TEMPO , 86/2
	.byte	W12
	.byte		N04   , Ds3 , v116
	.byte	W12
	.byte		        As3 
	.byte	W06
	.byte		        As3 , v036
	.byte	W06
	.byte		        Ds4 , v116
	.byte	W06
	.byte		        Ds4 , v036
	.byte	W06
	.byte		        Dn4 , v080
	.byte	W06
	.byte		        Dn4 , v036
	.byte	W06
	.byte		        As3 , v100
	.byte	W06
	.byte		        As3 , v036
	.byte	W06
	.byte	W60
	.byte		N04   , Ds4 , v116
	.byte	W06
	.byte		        Ds4 , v036
	.byte	W06
	.byte		        Dn4 , v080
	.byte	W06
	.byte		        Dn4 , v036
	.byte	W06
	.byte		        As3 , v100
	.byte	W06
	.byte		        As3 , v036
	.byte	W06
	.byte	PEND
	.byte	W60
	.byte		N04   , Ds4 , v116
	.byte	W06
	.byte		        Ds4 , v036
	.byte	W06
	.byte		        Dn4 , v080
	.byte	W06
	.byte		        Dn4 , v036
	.byte	W06
	.byte		        Fn4 , v100
	.byte	W06
	.byte		        Fn4 , v036
	.byte	W06
	.byte	PEND
	.byte	W12
	.byte		N04   , Ds4 , v100
	.byte	W06
	.byte		        Ds4 , v036
	.byte	W18
	.byte		        Dn4 , v100
	.byte	W06
	.byte		        Dn4 , v036
	.byte	W18
	.byte		        Ds4 , v100
	.byte	W06
	.byte		        Ds4 , v036
	.byte	W18
	.byte		        As3 , v116
	.byte	W06
	.byte		        As3 , v036
	.byte	W06
	.byte	PEND
	.byte	PATT
	 .word	seq_024_0 + 0xAA
	.byte	PATT
	 .word	seq_024_0 + 0xAA
	.byte	PATT
	 .word	seq_024_0 + 0xBF
	.byte	W12
	.byte		N04   , Ds4 , v100
	.byte	W06
	.byte		        Ds4 , v036
	.byte	W18
	.byte		        Dn4 , v100
	.byte	W06
	.byte		        Dn4 , v036
	.byte	W18
	.byte		        Ds4 , v100
	.byte	W06
	.byte		        Ds4 , v036
	.byte	W18
	.byte		        Gn4 , v116
	.byte	W06
	.byte		        Gn4 , v036
	.byte	W06
	.byte	W48
	.byte		VOICE , 76
	.byte		VOL   , 44*seq_024_mvl/mxv
	.byte		PAN   , c_v+0
	.byte	W01
	.byte		MOD   , 30
	.byte		MODT  , mod_pan
	.byte	W22
	.byte		VOL   , 36*seq_024_mvl/mxv
	.byte	W01
	.byte		N24   , As3 , v080
	.byte	W01
	.byte		VOL   , 49*seq_024_mvl/mxv
	.byte	W01
	.byte		        53*seq_024_mvl/mxv
	.byte	W01
	.byte		        57*seq_024_mvl/mxv
	.byte	W01
	.byte		        62*seq_024_mvl/mxv
	.byte	W01
	.byte		        68*seq_024_mvl/mxv
	.byte	W01
	.byte		        76*seq_024_mvl/mxv
	.byte	W01
	.byte		        84*seq_024_mvl/mxv
	.byte	W01
	.byte		        100*seq_024_mvl/mxv
	.byte	W01
	.byte		        108*seq_024_mvl/mxv
	.byte	W14
	.byte		        16*seq_024_mvl/mxv
	.byte	W01
	.byte		N36   , Cn4 , v084
	.byte	W01
	.byte		VOL   , 29*seq_024_mvl/mxv
	.byte	W01
	.byte		        33*seq_024_mvl/mxv
	.byte	W01
	.byte		        37*seq_024_mvl/mxv
	.byte	W01
	.byte		        43*seq_024_mvl/mxv
	.byte	W01
	.byte		        49*seq_024_mvl/mxv
	.byte	W01
	.byte		        57*seq_024_mvl/mxv
	.byte	W01
	.byte		        64*seq_024_mvl/mxv
	.byte	W01
	.byte		        80*seq_024_mvl/mxv
	.byte	W01
	.byte		        88*seq_024_mvl/mxv
	.byte	W24
	.byte	W03
	.byte		N36   , Gn4 
	.byte	W01
	.byte		VOL   , 34*seq_024_mvl/mxv
	.byte	W01
	.byte		        38*seq_024_mvl/mxv
	.byte	W01
	.byte		        42*seq_024_mvl/mxv
	.byte	W01
	.byte		        48*seq_024_mvl/mxv
	.byte	W01
	.byte		        54*seq_024_mvl/mxv
	.byte	W01
	.byte		        62*seq_024_mvl/mxv
	.byte	W01
	.byte		        69*seq_024_mvl/mxv
	.byte	W01
	.byte		        85*seq_024_mvl/mxv
	.byte	W01
	.byte		        93*seq_024_mvl/mxv
	.byte	W24
	.byte	W02
	.byte		        16*seq_024_mvl/mxv
	.byte	W01
	.byte		N24   , As3 , v080
	.byte	W01
	.byte		VOL   , 29*seq_024_mvl/mxv
	.byte	W01
	.byte		        33*seq_024_mvl/mxv
	.byte	W01
	.byte		        37*seq_024_mvl/mxv
	.byte	W01
	.byte		        43*seq_024_mvl/mxv
	.byte	W01
	.byte		        49*seq_024_mvl/mxv
	.byte	W01
	.byte		        57*seq_024_mvl/mxv
	.byte	W01
	.byte		        64*seq_024_mvl/mxv
	.byte	W01
	.byte		        80*seq_024_mvl/mxv
	.byte	W01
	.byte		        88*seq_024_mvl/mxv
	.byte	W14
	.byte		        16*seq_024_mvl/mxv
	.byte	W01
	.byte		N36   , Cn4 , v084
	.byte	W01
	.byte		VOL   , 29*seq_024_mvl/mxv
	.byte	W01
	.byte		        33*seq_024_mvl/mxv
	.byte	W01
	.byte		        37*seq_024_mvl/mxv
	.byte	W01
	.byte		        43*seq_024_mvl/mxv
	.byte	W01
	.byte		        49*seq_024_mvl/mxv
	.byte	W01
	.byte		        57*seq_024_mvl/mxv
	.byte	W01
	.byte		        64*seq_024_mvl/mxv
	.byte	W01
	.byte		        80*seq_024_mvl/mxv
	.byte	W01
	.byte		        88*seq_024_mvl/mxv
	.byte	W24
	.byte	W03
	.byte		N36   , Gn4 
	.byte	W01
	.byte		VOL   , 34*seq_024_mvl/mxv
	.byte	W01
	.byte		        38*seq_024_mvl/mxv
	.byte	W01
	.byte		        42*seq_024_mvl/mxv
	.byte	W01
	.byte		        48*seq_024_mvl/mxv
	.byte	W01
	.byte		        54*seq_024_mvl/mxv
	.byte	W01
	.byte		        62*seq_024_mvl/mxv
	.byte	W01
	.byte		        69*seq_024_mvl/mxv
	.byte	W01
	.byte		        85*seq_024_mvl/mxv
	.byte	W01
	.byte		        93*seq_024_mvl/mxv
	.byte	W24
	.byte	W02
	.byte		        16*seq_024_mvl/mxv
	.byte	W01
	.byte		N24   , Fn4 , v072
	.byte	W01
	.byte		VOL   , 29*seq_024_mvl/mxv
	.byte	W01
	.byte		        33*seq_024_mvl/mxv
	.byte	W01
	.byte		        37*seq_024_mvl/mxv
	.byte	W01
	.byte		        43*seq_024_mvl/mxv
	.byte	W01
	.byte		        49*seq_024_mvl/mxv
	.byte	W01
	.byte		        57*seq_024_mvl/mxv
	.byte	W01
	.byte		        64*seq_024_mvl/mxv
	.byte	W01
	.byte		        80*seq_024_mvl/mxv
	.byte	W01
	.byte		        88*seq_024_mvl/mxv
	.byte	W14
	.byte		        16*seq_024_mvl/mxv
	.byte	W01
	.byte		N36   , Gn4 , v096
	.byte	W01
	.byte		VOL   , 29*seq_024_mvl/mxv
	.byte	W01
	.byte		        33*seq_024_mvl/mxv
	.byte	W01
	.byte		        37*seq_024_mvl/mxv
	.byte	W01
	.byte		        43*seq_024_mvl/mxv
	.byte	W01
	.byte		        49*seq_024_mvl/mxv
	.byte	W01
	.byte		        57*seq_024_mvl/mxv
	.byte	W01
	.byte		        64*seq_024_mvl/mxv
	.byte	W01
	.byte		        80*seq_024_mvl/mxv
	.byte	W01
	.byte		        88*seq_024_mvl/mxv
	.byte	W24
	.byte	W03
	.byte		N36   , Cn5 , v088
	.byte	W01
	.byte		VOL   , 34*seq_024_mvl/mxv
	.byte	W01
	.byte		        38*seq_024_mvl/mxv
	.byte	W01
	.byte		        42*seq_024_mvl/mxv
	.byte	W01
	.byte		        48*seq_024_mvl/mxv
	.byte	W01
	.byte		        54*seq_024_mvl/mxv
	.byte	W01
	.byte		        62*seq_024_mvl/mxv
	.byte	W01
	.byte		        69*seq_024_mvl/mxv
	.byte	W01
	.byte		        85*seq_024_mvl/mxv
	.byte	W01
	.byte		        93*seq_024_mvl/mxv
	.byte	W24
	.byte	W02
	.byte		        16*seq_024_mvl/mxv
	.byte	W01
	.byte		N24   , Ds5 , v108
	.byte	W01
	.byte		VOL   , 29*seq_024_mvl/mxv
	.byte	W01
	.byte		        33*seq_024_mvl/mxv
	.byte	W01
	.byte		        37*seq_024_mvl/mxv
	.byte	W01
	.byte		        43*seq_024_mvl/mxv
	.byte	W01
	.byte		        49*seq_024_mvl/mxv
	.byte	W01
	.byte		        57*seq_024_mvl/mxv
	.byte	W01
	.byte		        64*seq_024_mvl/mxv
	.byte	W01
	.byte		        80*seq_024_mvl/mxv
	.byte	W01
	.byte		        88*seq_024_mvl/mxv
	.byte	W15
	.byte		N36   , Dn5 , v072
	.byte	W02
	.byte		VOL   , 56*seq_024_mvl/mxv
	.byte	W01
	.byte		        58*seq_024_mvl/mxv
	.byte	W01
	.byte		        60*seq_024_mvl/mxv
	.byte	W01
	.byte		        63*seq_024_mvl/mxv
	.byte	W01
	.byte		        68*seq_024_mvl/mxv
	.byte	W01
	.byte		        73*seq_024_mvl/mxv
	.byte	W01
	.byte		        78*seq_024_mvl/mxv
	.byte	W02
	.byte		        86*seq_024_mvl/mxv
	.byte	W02
	.byte		        95*seq_024_mvl/mxv
	.byte	W02
	.byte		        104*seq_024_mvl/mxv
	.byte	W01
	.byte		        109*seq_024_mvl/mxv
	.byte	W01
	.byte		        113*seq_024_mvl/mxv
	.byte	W01
	.byte		        118*seq_024_mvl/mxv
	.byte	W01
	.byte		        118*seq_024_mvl/mxv
	.byte	W01
	.byte		        117*seq_024_mvl/mxv
	.byte	W01
	.byte		        116*seq_024_mvl/mxv
	.byte	W02
	.byte		        111*seq_024_mvl/mxv
	.byte	W02
	.byte		        105*seq_024_mvl/mxv
	.byte	W02
	.byte		        100*seq_024_mvl/mxv
	.byte	W02
	.byte		        96*seq_024_mvl/mxv
	.byte	W02
	.byte		        93*seq_024_mvl/mxv
	.byte	W02
	.byte		        87*seq_024_mvl/mxv
	.byte	W04
	.byte		N36   , As4 , v068
	.byte	W03
	.byte		VOL   , 94*seq_024_mvl/mxv
	.byte	W03
	.byte		        101*seq_024_mvl/mxv
	.byte	W03
	.byte		        106*seq_024_mvl/mxv
	.byte	W03
	.byte		        113*seq_024_mvl/mxv
	.byte	W03
	.byte		        119*seq_024_mvl/mxv
	.byte	W03
	.byte		        125*seq_024_mvl/mxv
	.byte	W03
	.byte		        122*seq_024_mvl/mxv
	.byte	W06
	.byte		        113*seq_024_mvl/mxv
	.byte	W01
	.byte		        107*seq_024_mvl/mxv
	.byte	W01
	.byte		        101*seq_024_mvl/mxv
	.byte	W01
	.byte		        95*seq_024_mvl/mxv
	.byte	W01
	.byte		        88*seq_024_mvl/mxv
	.byte	W01
	.byte		        75*seq_024_mvl/mxv
	.byte	W01
	.byte		        65*seq_024_mvl/mxv
	.byte	W01
	.byte		        56*seq_024_mvl/mxv
	.byte	W02
	.byte		N16   , Fn4 , v108
	.byte	W16
	.byte		N04   , Ds4 , v064
	.byte	W04
	.byte		        Fn4 , v072
	.byte	W03
	.byte		VOL   , 16*seq_024_mvl/mxv
	.byte	W01
	.byte		N36   , Ds4 , v112
	.byte	W01
	.byte		VOL   , 29*seq_024_mvl/mxv
	.byte	W01
	.byte		        33*seq_024_mvl/mxv
	.byte	W01
	.byte		        37*seq_024_mvl/mxv
	.byte	W01
	.byte		        43*seq_024_mvl/mxv
	.byte	W01
	.byte		        49*seq_024_mvl/mxv
	.byte	W01
	.byte		        57*seq_024_mvl/mxv
	.byte	W01
	.byte		        64*seq_024_mvl/mxv
	.byte	W01
	.byte		        80*seq_024_mvl/mxv
	.byte	W01
	.byte		        88*seq_024_mvl/mxv
	.byte	W24
	.byte	W03
	.byte		N36   , Cn4 , v068
	.byte	W01
	.byte		VOL   , 54*seq_024_mvl/mxv
	.byte	W01
	.byte		        58*seq_024_mvl/mxv
	.byte	W01
	.byte		        62*seq_024_mvl/mxv
	.byte	W01
	.byte		        67*seq_024_mvl/mxv
	.byte	W01
	.byte		        73*seq_024_mvl/mxv
	.byte	W01
	.byte		        81*seq_024_mvl/mxv
	.byte	W01
	.byte		        89*seq_024_mvl/mxv
	.byte	W01
	.byte		        105*seq_024_mvl/mxv
	.byte	W01
	.byte		        113*seq_024_mvl/mxv
	.byte	W24
	.byte	W02
	.byte		        16*seq_024_mvl/mxv
	.byte	W01
	.byte		N24   , Gn4 
	.byte	W01
	.byte		VOL   , 29*seq_024_mvl/mxv
	.byte	W01
	.byte		        33*seq_024_mvl/mxv
	.byte	W01
	.byte		        37*seq_024_mvl/mxv
	.byte	W01
	.byte		        43*seq_024_mvl/mxv
	.byte	W01
	.byte		        49*seq_024_mvl/mxv
	.byte	W01
	.byte		        57*seq_024_mvl/mxv
	.byte	W01
	.byte		        64*seq_024_mvl/mxv
	.byte	W01
	.byte		        80*seq_024_mvl/mxv
	.byte	W01
	.byte		        88*seq_024_mvl/mxv
	.byte	W14
	.byte		        16*seq_024_mvl/mxv
	.byte	W01
	.byte		N36   , Fn4 , v076
	.byte	W01
	.byte		VOL   , 29*seq_024_mvl/mxv
	.byte	W01
	.byte		        33*seq_024_mvl/mxv
	.byte	W01
	.byte		        37*seq_024_mvl/mxv
	.byte	W01
	.byte		        43*seq_024_mvl/mxv
	.byte	W01
	.byte		        49*seq_024_mvl/mxv
	.byte	W01
	.byte		        57*seq_024_mvl/mxv
	.byte	W01
	.byte		        64*seq_024_mvl/mxv
	.byte	W01
	.byte		        80*seq_024_mvl/mxv
	.byte	W01
	.byte		        88*seq_024_mvl/mxv
	.byte	W24
	.byte	W03
	.byte		N36   , Ds4 , v068
	.byte	W01
	.byte		VOL   , 54*seq_024_mvl/mxv
	.byte	W01
	.byte		        58*seq_024_mvl/mxv
	.byte	W01
	.byte		        62*seq_024_mvl/mxv
	.byte	W01
	.byte		        67*seq_024_mvl/mxv
	.byte	W01
	.byte		        73*seq_024_mvl/mxv
	.byte	W01
	.byte		        81*seq_024_mvl/mxv
	.byte	W01
	.byte		        89*seq_024_mvl/mxv
	.byte	W01
	.byte		        105*seq_024_mvl/mxv
	.byte	W01
	.byte		        113*seq_024_mvl/mxv
	.byte	W24
	.byte	W02
	.byte		        16*seq_024_mvl/mxv
	.byte	W01
	.byte		N24   , Dn4 , v096
	.byte	W01
	.byte		VOL   , 29*seq_024_mvl/mxv
	.byte	W01
	.byte		        33*seq_024_mvl/mxv
	.byte	W01
	.byte		        37*seq_024_mvl/mxv
	.byte	W01
	.byte		        43*seq_024_mvl/mxv
	.byte	W01
	.byte		        49*seq_024_mvl/mxv
	.byte	W01
	.byte		        57*seq_024_mvl/mxv
	.byte	W01
	.byte		        64*seq_024_mvl/mxv
	.byte	W01
	.byte		        80*seq_024_mvl/mxv
	.byte	W01
	.byte		        88*seq_024_mvl/mxv
	.byte	W14
	.byte		        16*seq_024_mvl/mxv
	.byte	W01
	.byte		N72   , Cn4 , v068
	.byte	W01
	.byte		VOL   , 29*seq_024_mvl/mxv
	.byte	W01
	.byte		        33*seq_024_mvl/mxv
	.byte	W01
	.byte		        37*seq_024_mvl/mxv
	.byte	W01
	.byte		        43*seq_024_mvl/mxv
	.byte	W01
	.byte		        49*seq_024_mvl/mxv
	.byte	W01
	.byte		        57*seq_024_mvl/mxv
	.byte	W01
	.byte		        64*seq_024_mvl/mxv
	.byte	W01
	.byte		        80*seq_024_mvl/mxv
	.byte	W01
	.byte		        88*seq_024_mvl/mxv
	.byte	W01
	.byte		        81*seq_024_mvl/mxv
	.byte	W04
	.byte		        76*seq_024_mvl/mxv
	.byte	W02
	.byte		        75*seq_024_mvl/mxv
	.byte	W03
	.byte		        70*seq_024_mvl/mxv
	.byte	W03
	.byte		        70*seq_024_mvl/mxv
	.byte	W02
	.byte		        72*seq_024_mvl/mxv
	.byte	W03
	.byte		        76*seq_024_mvl/mxv
	.byte	W02
	.byte		        78*seq_024_mvl/mxv
	.byte	W02
	.byte		        82*seq_024_mvl/mxv
	.byte	W02
	.byte		        86*seq_024_mvl/mxv
	.byte	W02
	.byte		        88*seq_024_mvl/mxv
	.byte	W04
	.byte		        94*seq_024_mvl/mxv
	.byte	W03
	.byte		        90*seq_024_mvl/mxv
	.byte	W03
	.byte		        86*seq_024_mvl/mxv
	.byte	W03
	.byte		        81*seq_024_mvl/mxv
	.byte	W03
	.byte		        76*seq_024_mvl/mxv
	.byte	W03
	.byte		        71*seq_024_mvl/mxv
	.byte	W03
	.byte		        62*seq_024_mvl/mxv
	.byte	W02
	.byte		        59*seq_024_mvl/mxv
	.byte	W01
	.byte		        58*seq_024_mvl/mxv
	.byte	W01
	.byte		        52*seq_024_mvl/mxv
	.byte	W01
	.byte		        50*seq_024_mvl/mxv
	.byte	W01
	.byte		        46*seq_024_mvl/mxv
	.byte	W01
	.byte		        43*seq_024_mvl/mxv
	.byte	W01
	.byte		        40*seq_024_mvl/mxv
	.byte	W01
	.byte		        34*seq_024_mvl/mxv
	.byte	W30
	.byte	W96
	.byte	W96
	.byte	W96
	.byte	W96
	.byte	W96
	.byte	W96
	.byte	PATT
	 .word	seq_024_0 + 0x73
	.byte	W96
	.byte	W36
	.byte		N04   , Ds3 , v080
	.byte	W06
	.byte		        Ds3 , v036
	.byte	W06
	.byte		        As3 , v116
	.byte	W06
	.byte		        As3 , v036
	.byte	W06
	.byte		        Ds4 , v116
	.byte	W06
	.byte		        Ds4 , v036
	.byte	W06
	.byte		        Dn4 , v080
	.byte	W06
	.byte		        Dn4 , v036
	.byte	W06
	.byte		        As3 , v100
	.byte	W06
	.byte		        As3 , v036
	.byte	W06
	.byte	PATT
	 .word	seq_024_0 + 0xAA
	.byte	PATT
	 .word	seq_024_0 + 0xBF
	.byte	PATT
	 .word	seq_024_0 + 0xD4
	.byte	PATT
	 .word	seq_024_0 + 0xAA
	.byte	GOTO
	 .word	seq_024_0 + 0xF4
	.byte	FINE

@*********************** Track 02 ***********************@

seq_024_1:
	.byte	KEYSH , seq_024_key+0
	.byte	W01
	.byte		VOICE , 24
	.byte	W01
	.byte		VOL   , 98*seq_024_mvl/mxv
	.byte		PAN   , c_v+0
	.byte		MODT  , mod_pan
	.byte	W32
	.byte	W02
	.byte	W92
	.byte	W03
	.byte		VOL   , 4*seq_024_mvl/mxv
	.byte	W01
	.byte		N96   , Dn4 , v076
	.byte	W02
	.byte		VOL   , 17*seq_024_mvl/mxv
	.byte	W02
	.byte		        23*seq_024_mvl/mxv
	.byte	W03
	.byte		        32*seq_024_mvl/mxv
	.byte	W02
	.byte		        37*seq_024_mvl/mxv
	.byte	W03
	.byte		        45*seq_024_mvl/mxv
	.byte	W02
	.byte		        53*seq_024_mvl/mxv
	.byte	W03
	.byte		        61*seq_024_mvl/mxv
	.byte	W02
	.byte		        64*seq_024_mvl/mxv
	.byte	W02
	.byte		        70*seq_024_mvl/mxv
	.byte	W03
	.byte		        78*seq_024_mvl/mxv
	.byte	W02
	.byte		        83*seq_024_mvl/mxv
	.byte	W03
	.byte		        86*seq_024_mvl/mxv
	.byte	W02
	.byte		        86*seq_024_mvl/mxv
	.byte	W03
	.byte		        80*seq_024_mvl/mxv
	.byte	W02
	.byte		        75*seq_024_mvl/mxv
	.byte	W02
	.byte		        69*seq_024_mvl/mxv
	.byte	W03
	.byte		        56*seq_024_mvl/mxv
	.byte	W02
	.byte		        45*seq_024_mvl/mxv
	.byte	W03
	.byte		        35*seq_024_mvl/mxv
	.byte	W02
	.byte		        28*seq_024_mvl/mxv
	.byte	W03
	.byte		        18*seq_024_mvl/mxv
	.byte	W44
	.byte	W01
	.byte	W96
	.byte	W96
	.byte	W96
	.byte	W96
	.byte	W96
	.byte	W92
	.byte	W02
	.byte		LFOS  , 45
	.byte		MODT  , mod_tre
	.byte	W01
	.byte		VOICE , 45
	.byte		MOD   , 40
	.byte		VOL   , 108*seq_024_mvl/mxv
	.byte	W01
	.byte	PEND
	.byte	W96
	.byte	W68
	.byte	W03
	.byte		        36*seq_024_mvl/mxv
	.byte	W01
	.byte		N24   , As2 , v120
	.byte	W01
	.byte		VOL   , 49*seq_024_mvl/mxv
	.byte	W01
	.byte		        53*seq_024_mvl/mxv
	.byte	W01
	.byte		        57*seq_024_mvl/mxv
	.byte	W01
	.byte		        62*seq_024_mvl/mxv
	.byte	W01
	.byte		        68*seq_024_mvl/mxv
	.byte	W01
	.byte		        76*seq_024_mvl/mxv
	.byte	W01
	.byte		        84*seq_024_mvl/mxv
	.byte	W01
	.byte		        100*seq_024_mvl/mxv
	.byte	W01
	.byte		        108*seq_024_mvl/mxv
	.byte	W14
	.byte		        16*seq_024_mvl/mxv
	.byte	W01
	.byte		N36   , Cn3 
	.byte	W01
	.byte		VOL   , 29*seq_024_mvl/mxv
	.byte	W01
	.byte		        33*seq_024_mvl/mxv
	.byte	W01
	.byte		        37*seq_024_mvl/mxv
	.byte	W01
	.byte		        43*seq_024_mvl/mxv
	.byte	W01
	.byte		        49*seq_024_mvl/mxv
	.byte	W01
	.byte		        57*seq_024_mvl/mxv
	.byte	W01
	.byte		        64*seq_024_mvl/mxv
	.byte	W01
	.byte		        80*seq_024_mvl/mxv
	.byte	W01
	.byte		        88*seq_024_mvl/mxv
	.byte	W24
	.byte	W03
	.byte		N36   , Gn3 
	.byte	W01
	.byte		VOL   , 34*seq_024_mvl/mxv
	.byte	W01
	.byte		        38*seq_024_mvl/mxv
	.byte	W01
	.byte		        42*seq_024_mvl/mxv
	.byte	W01
	.byte		        48*seq_024_mvl/mxv
	.byte	W01
	.byte		        54*seq_024_mvl/mxv
	.byte	W01
	.byte		        62*seq_024_mvl/mxv
	.byte	W01
	.byte		        69*seq_024_mvl/mxv
	.byte	W01
	.byte		        85*seq_024_mvl/mxv
	.byte	W01
	.byte		        93*seq_024_mvl/mxv
	.byte	W24
	.byte	W02
	.byte		        16*seq_024_mvl/mxv
	.byte	W01
	.byte		N24   , As2 , v112
	.byte	W01
	.byte		VOL   , 29*seq_024_mvl/mxv
	.byte	W01
	.byte		        33*seq_024_mvl/mxv
	.byte	W01
	.byte		        37*seq_024_mvl/mxv
	.byte	W01
	.byte		        43*seq_024_mvl/mxv
	.byte	W01
	.byte		        49*seq_024_mvl/mxv
	.byte	W01
	.byte		        57*seq_024_mvl/mxv
	.byte	W01
	.byte		        64*seq_024_mvl/mxv
	.byte	W01
	.byte		        80*seq_024_mvl/mxv
	.byte	W01
	.byte		        88*seq_024_mvl/mxv
	.byte	W14
	.byte		        16*seq_024_mvl/mxv
	.byte	W01
	.byte		N36   , Cn3 , v120
	.byte	W01
	.byte		VOL   , 29*seq_024_mvl/mxv
	.byte	W01
	.byte		        33*seq_024_mvl/mxv
	.byte	W01
	.byte		        37*seq_024_mvl/mxv
	.byte	W01
	.byte		        43*seq_024_mvl/mxv
	.byte	W01
	.byte		        49*seq_024_mvl/mxv
	.byte	W01
	.byte		        57*seq_024_mvl/mxv
	.byte	W01
	.byte		        64*seq_024_mvl/mxv
	.byte	W01
	.byte		        80*seq_024_mvl/mxv
	.byte	W01
	.byte		        88*seq_024_mvl/mxv
	.byte	W24
	.byte	W03
	.byte		N36   , Gn3 
	.byte	W01
	.byte		VOL   , 34*seq_024_mvl/mxv
	.byte	W01
	.byte		        38*seq_024_mvl/mxv
	.byte	W01
	.byte		        42*seq_024_mvl/mxv
	.byte	W01
	.byte		        48*seq_024_mvl/mxv
	.byte	W01
	.byte		        54*seq_024_mvl/mxv
	.byte	W01
	.byte		        62*seq_024_mvl/mxv
	.byte	W01
	.byte		        69*seq_024_mvl/mxv
	.byte	W01
	.byte		        85*seq_024_mvl/mxv
	.byte	W01
	.byte		        93*seq_024_mvl/mxv
	.byte	W24
	.byte	W02
	.byte		        16*seq_024_mvl/mxv
	.byte	W01
	.byte		N24   , Fn3 , v080
	.byte	W01
	.byte		VOL   , 29*seq_024_mvl/mxv
	.byte	W01
	.byte		        33*seq_024_mvl/mxv
	.byte	W01
	.byte		        37*seq_024_mvl/mxv
	.byte	W01
	.byte		        43*seq_024_mvl/mxv
	.byte	W01
	.byte		        49*seq_024_mvl/mxv
	.byte	W01
	.byte		        57*seq_024_mvl/mxv
	.byte	W01
	.byte		        64*seq_024_mvl/mxv
	.byte	W01
	.byte		        80*seq_024_mvl/mxv
	.byte	W01
	.byte		        88*seq_024_mvl/mxv
	.byte	W14
	.byte		        16*seq_024_mvl/mxv
	.byte	W01
	.byte		N36   , Gn3 , v108
	.byte	W01
	.byte		VOL   , 29*seq_024_mvl/mxv
	.byte	W01
	.byte		        33*seq_024_mvl/mxv
	.byte	W01
	.byte		        37*seq_024_mvl/mxv
	.byte	W01
	.byte		        43*seq_024_mvl/mxv
	.byte	W01
	.byte		        49*seq_024_mvl/mxv
	.byte	W01
	.byte		        57*seq_024_mvl/mxv
	.byte	W01
	.byte		        64*seq_024_mvl/mxv
	.byte	W01
	.byte		        80*seq_024_mvl/mxv
	.byte	W01
	.byte		        88*seq_024_mvl/mxv
	.byte	W24
	.byte	W03
	.byte		N36   , Cn4 , v096
	.byte	W01
	.byte		VOL   , 34*seq_024_mvl/mxv
	.byte	W01
	.byte		        38*seq_024_mvl/mxv
	.byte	W01
	.byte		        42*seq_024_mvl/mxv
	.byte	W01
	.byte		        48*seq_024_mvl/mxv
	.byte	W01
	.byte		        54*seq_024_mvl/mxv
	.byte	W01
	.byte		        62*seq_024_mvl/mxv
	.byte	W01
	.byte		        69*seq_024_mvl/mxv
	.byte	W01
	.byte		        85*seq_024_mvl/mxv
	.byte	W01
	.byte		        93*seq_024_mvl/mxv
	.byte	W24
	.byte	W02
	.byte		        16*seq_024_mvl/mxv
	.byte	W01
	.byte		N24   , Ds4 , v116
	.byte	W01
	.byte		VOL   , 29*seq_024_mvl/mxv
	.byte	W01
	.byte		        33*seq_024_mvl/mxv
	.byte	W01
	.byte		        37*seq_024_mvl/mxv
	.byte	W01
	.byte		        43*seq_024_mvl/mxv
	.byte	W01
	.byte		        49*seq_024_mvl/mxv
	.byte	W01
	.byte		        57*seq_024_mvl/mxv
	.byte	W01
	.byte		        64*seq_024_mvl/mxv
	.byte	W01
	.byte		        80*seq_024_mvl/mxv
	.byte	W01
	.byte		        88*seq_024_mvl/mxv
	.byte	W15
	.byte		N36   , Dn4 , v080
	.byte	W02
	.byte		VOL   , 56*seq_024_mvl/mxv
	.byte	W01
	.byte		        58*seq_024_mvl/mxv
	.byte	W01
	.byte		        60*seq_024_mvl/mxv
	.byte	W01
	.byte		        63*seq_024_mvl/mxv
	.byte	W01
	.byte		        68*seq_024_mvl/mxv
	.byte	W01
	.byte		        73*seq_024_mvl/mxv
	.byte	W01
	.byte		        78*seq_024_mvl/mxv
	.byte	W02
	.byte		        86*seq_024_mvl/mxv
	.byte	W02
	.byte		        95*seq_024_mvl/mxv
	.byte	W02
	.byte		        104*seq_024_mvl/mxv
	.byte	W01
	.byte		        109*seq_024_mvl/mxv
	.byte	W01
	.byte		        113*seq_024_mvl/mxv
	.byte	W01
	.byte		        118*seq_024_mvl/mxv
	.byte	W01
	.byte		        118*seq_024_mvl/mxv
	.byte	W01
	.byte		        117*seq_024_mvl/mxv
	.byte	W01
	.byte		        116*seq_024_mvl/mxv
	.byte	W02
	.byte		        111*seq_024_mvl/mxv
	.byte	W02
	.byte		        105*seq_024_mvl/mxv
	.byte	W02
	.byte		        100*seq_024_mvl/mxv
	.byte	W02
	.byte		        96*seq_024_mvl/mxv
	.byte	W02
	.byte		        93*seq_024_mvl/mxv
	.byte	W02
	.byte		        87*seq_024_mvl/mxv
	.byte	W04
	.byte		N36   , As3 , v076
	.byte	W03
	.byte		VOL   , 94*seq_024_mvl/mxv
	.byte	W03
	.byte		        101*seq_024_mvl/mxv
	.byte	W03
	.byte		        106*seq_024_mvl/mxv
	.byte	W03
	.byte		        113*seq_024_mvl/mxv
	.byte	W03
	.byte		        119*seq_024_mvl/mxv
	.byte	W03
	.byte		        125*seq_024_mvl/mxv
	.byte	W03
	.byte		        122*seq_024_mvl/mxv
	.byte	W06
	.byte		        113*seq_024_mvl/mxv
	.byte	W01
	.byte		        107*seq_024_mvl/mxv
	.byte	W01
	.byte		        101*seq_024_mvl/mxv
	.byte	W01
	.byte		        95*seq_024_mvl/mxv
	.byte	W01
	.byte		        88*seq_024_mvl/mxv
	.byte	W01
	.byte		        75*seq_024_mvl/mxv
	.byte	W01
	.byte		        65*seq_024_mvl/mxv
	.byte	W01
	.byte		        56*seq_024_mvl/mxv
	.byte	W02
	.byte		N24   , Fn3 , v120
	.byte	W23
	.byte		VOL   , 16*seq_024_mvl/mxv
	.byte	W01
	.byte		N36   , Gn3 
	.byte	W01
	.byte		VOL   , 29*seq_024_mvl/mxv
	.byte	W01
	.byte		        33*seq_024_mvl/mxv
	.byte	W01
	.byte		        37*seq_024_mvl/mxv
	.byte	W01
	.byte		        43*seq_024_mvl/mxv
	.byte	W01
	.byte		        49*seq_024_mvl/mxv
	.byte	W01
	.byte		        57*seq_024_mvl/mxv
	.byte	W01
	.byte		        64*seq_024_mvl/mxv
	.byte	W01
	.byte		        80*seq_024_mvl/mxv
	.byte	W01
	.byte		        88*seq_024_mvl/mxv
	.byte	W24
	.byte	W03
	.byte		N36   , Cn3 , v076
	.byte	W01
	.byte		VOL   , 54*seq_024_mvl/mxv
	.byte	W01
	.byte		        58*seq_024_mvl/mxv
	.byte	W01
	.byte		        62*seq_024_mvl/mxv
	.byte	W01
	.byte		        67*seq_024_mvl/mxv
	.byte	W01
	.byte		        73*seq_024_mvl/mxv
	.byte	W01
	.byte		        81*seq_024_mvl/mxv
	.byte	W01
	.byte		        89*seq_024_mvl/mxv
	.byte	W01
	.byte		        105*seq_024_mvl/mxv
	.byte	W01
	.byte		        113*seq_024_mvl/mxv
	.byte	W24
	.byte	W02
	.byte		        16*seq_024_mvl/mxv
	.byte	W01
	.byte		N24   , Gn3 , v120
	.byte	W01
	.byte		VOL   , 29*seq_024_mvl/mxv
	.byte	W01
	.byte		        33*seq_024_mvl/mxv
	.byte	W01
	.byte		        37*seq_024_mvl/mxv
	.byte	W01
	.byte		        43*seq_024_mvl/mxv
	.byte	W01
	.byte		        49*seq_024_mvl/mxv
	.byte	W01
	.byte		        57*seq_024_mvl/mxv
	.byte	W01
	.byte		        64*seq_024_mvl/mxv
	.byte	W01
	.byte		        80*seq_024_mvl/mxv
	.byte	W01
	.byte		        88*seq_024_mvl/mxv
	.byte	W14
	.byte		        16*seq_024_mvl/mxv
	.byte	W01
	.byte		N36   , Fn3 , v092
	.byte	W01
	.byte		VOL   , 29*seq_024_mvl/mxv
	.byte	W01
	.byte		        33*seq_024_mvl/mxv
	.byte	W01
	.byte		        37*seq_024_mvl/mxv
	.byte	W01
	.byte		        43*seq_024_mvl/mxv
	.byte	W01
	.byte		        49*seq_024_mvl/mxv
	.byte	W01
	.byte		        57*seq_024_mvl/mxv
	.byte	W01
	.byte		        64*seq_024_mvl/mxv
	.byte	W01
	.byte		        80*seq_024_mvl/mxv
	.byte	W01
	.byte		        88*seq_024_mvl/mxv
	.byte	W24
	.byte	W03
	.byte		N36   , Ds3 , v088
	.byte	W01
	.byte		VOL   , 54*seq_024_mvl/mxv
	.byte	W01
	.byte		        58*seq_024_mvl/mxv
	.byte	W01
	.byte		        62*seq_024_mvl/mxv
	.byte	W01
	.byte		        67*seq_024_mvl/mxv
	.byte	W01
	.byte		        73*seq_024_mvl/mxv
	.byte	W01
	.byte		        81*seq_024_mvl/mxv
	.byte	W01
	.byte		        89*seq_024_mvl/mxv
	.byte	W01
	.byte		        105*seq_024_mvl/mxv
	.byte	W01
	.byte		        113*seq_024_mvl/mxv
	.byte	W24
	.byte	W02
	.byte		        16*seq_024_mvl/mxv
	.byte	W01
	.byte		N24   , Dn3 , v120
	.byte	W01
	.byte		VOL   , 29*seq_024_mvl/mxv
	.byte	W01
	.byte		        33*seq_024_mvl/mxv
	.byte	W01
	.byte		        37*seq_024_mvl/mxv
	.byte	W01
	.byte		        43*seq_024_mvl/mxv
	.byte	W01
	.byte		        49*seq_024_mvl/mxv
	.byte	W01
	.byte		        57*seq_024_mvl/mxv
	.byte	W01
	.byte		        64*seq_024_mvl/mxv
	.byte	W01
	.byte		        80*seq_024_mvl/mxv
	.byte	W01
	.byte		        88*seq_024_mvl/mxv
	.byte	W14
	.byte		        16*seq_024_mvl/mxv
	.byte	W01
	.byte		N96   , Cn3 , v108
	.byte	W01
	.byte		VOL   , 29*seq_024_mvl/mxv
	.byte	W01
	.byte		        33*seq_024_mvl/mxv
	.byte	W01
	.byte		        37*seq_024_mvl/mxv
	.byte	W01
	.byte		        43*seq_024_mvl/mxv
	.byte	W01
	.byte		        49*seq_024_mvl/mxv
	.byte	W01
	.byte		        57*seq_024_mvl/mxv
	.byte	W01
	.byte		        64*seq_024_mvl/mxv
	.byte	W01
	.byte		        80*seq_024_mvl/mxv
	.byte	W01
	.byte		        88*seq_024_mvl/mxv
	.byte	W05
	.byte		        80*seq_024_mvl/mxv
	.byte	W02
	.byte		        76*seq_024_mvl/mxv
	.byte	W03
	.byte		        72*seq_024_mvl/mxv
	.byte	W02
	.byte		        69*seq_024_mvl/mxv
	.byte	W01
	.byte		        69*seq_024_mvl/mxv
	.byte	W02
	.byte		        66*seq_024_mvl/mxv
	.byte	W10
	.byte		        64*seq_024_mvl/mxv
	.byte	W04
	.byte		        67*seq_024_mvl/mxv
	.byte	W02
	.byte		        68*seq_024_mvl/mxv
	.byte	W03
	.byte		        70*seq_024_mvl/mxv
	.byte	W03
	.byte		        72*seq_024_mvl/mxv
	.byte	W02
	.byte		        74*seq_024_mvl/mxv
	.byte	W03
	.byte		        76*seq_024_mvl/mxv
	.byte	W02
	.byte		        79*seq_024_mvl/mxv
	.byte	W02
	.byte		        82*seq_024_mvl/mxv
	.byte	W02
	.byte		        84*seq_024_mvl/mxv
	.byte	W02
	.byte		        87*seq_024_mvl/mxv
	.byte	W04
	.byte		        93*seq_024_mvl/mxv
	.byte	W03
	.byte		        99*seq_024_mvl/mxv
	.byte	W03
	.byte		        97*seq_024_mvl/mxv
	.byte	W03
	.byte		        92*seq_024_mvl/mxv
	.byte	W03
	.byte		        89*seq_024_mvl/mxv
	.byte	W03
	.byte		        86*seq_024_mvl/mxv
	.byte	W03
	.byte		        83*seq_024_mvl/mxv
	.byte	W02
	.byte		        78*seq_024_mvl/mxv
	.byte	W01
	.byte		        73*seq_024_mvl/mxv
	.byte	W01
	.byte		        67*seq_024_mvl/mxv
	.byte	W01
	.byte		        62*seq_024_mvl/mxv
	.byte	W01
	.byte		        57*seq_024_mvl/mxv
	.byte	W01
	.byte		        52*seq_024_mvl/mxv
	.byte	W01
	.byte		        49*seq_024_mvl/mxv
	.byte	W01
	.byte		        43*seq_024_mvl/mxv
	.byte	W06
	.byte	W92
	.byte	W03
	.byte		VOICE , 24
	.byte		VOL   , 27*seq_024_mvl/mxv
	.byte		PAN   , c_v+0
	.byte	W01
	.byte	PEND
	.byte		TIE   , As4 , v056
	.byte	W02
	.byte		VOL   , 29*seq_024_mvl/mxv
	.byte	W02
	.byte		        31*seq_024_mvl/mxv
	.byte	W02
	.byte		        32*seq_024_mvl/mxv
	.byte	W02
	.byte		        34*seq_024_mvl/mxv
	.byte	W03
	.byte		        37*seq_024_mvl/mxv
	.byte	W02
	.byte		        38*seq_024_mvl/mxv
	.byte	W02
	.byte		        40*seq_024_mvl/mxv
	.byte	W02
	.byte		        42*seq_024_mvl/mxv
	.byte	W02
	.byte		        43*seq_024_mvl/mxv
	.byte	W02
	.byte		        45*seq_024_mvl/mxv
	.byte	W02
	.byte		        47*seq_024_mvl/mxv
	.byte	W02
	.byte		        49*seq_024_mvl/mxv
	.byte	W04
	.byte		        53*seq_024_mvl/mxv
	.byte	W02
	.byte		        57*seq_024_mvl/mxv
	.byte	W02
	.byte		        61*seq_024_mvl/mxv
	.byte	W02
	.byte		        64*seq_024_mvl/mxv
	.byte	W02
	.byte		        68*seq_024_mvl/mxv
	.byte	W02
	.byte		        72*seq_024_mvl/mxv
	.byte	W02
	.byte		        76*seq_024_mvl/mxv
	.byte	W02
	.byte		        80*seq_024_mvl/mxv
	.byte	W02
	.byte		        84*seq_024_mvl/mxv
	.byte	W02
	.byte		        88*seq_024_mvl/mxv
	.byte	W48
	.byte	W01
	.byte	PEND
	.byte	W96
	.byte	W96
	.byte	W96
	.byte		EOT
	.byte		TIE   , As4 , v056
	.byte	W96
	.byte	W96
	.byte	W96
	.byte	W96
	.byte		EOT
	.byte	W96
	.byte	W96
	.byte	W96
	.byte	PATT
	 .word	seq_024_1 + 0x48
	.byte	W96
	.byte	W02
	.byte		VOL   , 56*seq_024_mvl/mxv
	.byte	W01
	.byte		        58*seq_024_mvl/mxv
	.byte	W01
	.byte		        60*seq_024_mvl/mxv
	.byte	W01
	.byte		        63*seq_024_mvl/mxv
	.byte	W01
	.byte		        68*seq_024_mvl/mxv
	.byte	W01
	.byte		        73*seq_024_mvl/mxv
	.byte	W01
	.byte		        78*seq_024_mvl/mxv
	.byte	W02
	.byte		        86*seq_024_mvl/mxv
	.byte	W02
	.byte		        95*seq_024_mvl/mxv
	.byte	W02
	.byte		        104*seq_024_mvl/mxv
	.byte	W01
	.byte		        109*seq_024_mvl/mxv
	.byte	W01
	.byte		        113*seq_024_mvl/mxv
	.byte	W01
	.byte		        118*seq_024_mvl/mxv
	.byte	W01
	.byte		        118*seq_024_mvl/mxv
	.byte	W01
	.byte		        117*seq_024_mvl/mxv
	.byte	W01
	.byte		        116*seq_024_mvl/mxv
	.byte	W02
	.byte		        111*seq_024_mvl/mxv
	.byte	W02
	.byte		        105*seq_024_mvl/mxv
	.byte	W02
	.byte		        100*seq_024_mvl/mxv
	.byte	W02
	.byte		        96*seq_024_mvl/mxv
	.byte	W02
	.byte		        93*seq_024_mvl/mxv
	.byte	W02
	.byte		        87*seq_024_mvl/mxv
	.byte	W07
	.byte		        94*seq_024_mvl/mxv
	.byte	W03
	.byte		        101*seq_024_mvl/mxv
	.byte	W03
	.byte		        106*seq_024_mvl/mxv
	.byte	W03
	.byte		        113*seq_024_mvl/mxv
	.byte	W03
	.byte		        119*seq_024_mvl/mxv
	.byte	W03
	.byte		        125*seq_024_mvl/mxv
	.byte	W03
	.byte		        122*seq_024_mvl/mxv
	.byte	W06
	.byte		        113*seq_024_mvl/mxv
	.byte	W01
	.byte		        107*seq_024_mvl/mxv
	.byte	W01
	.byte		        101*seq_024_mvl/mxv
	.byte	W01
	.byte		        95*seq_024_mvl/mxv
	.byte	W01
	.byte		        88*seq_024_mvl/mxv
	.byte	W01
	.byte		        75*seq_024_mvl/mxv
	.byte	W01
	.byte		        65*seq_024_mvl/mxv
	.byte	W01
	.byte		        56*seq_024_mvl/mxv
	.byte	W02
	.byte		N12   , As3 , v100
	.byte	W12
	.byte		N04   , Cn4 , v052
	.byte	W04
	.byte		        Ds4 
	.byte	W04
	.byte		        Fn4 , v072
	.byte	W03
	.byte		VOL   , 16*seq_024_mvl/mxv
	.byte	W01
	.byte		N36   , Gn4 , v100
	.byte	W01
	.byte		VOL   , 29*seq_024_mvl/mxv
	.byte	W01
	.byte		        33*seq_024_mvl/mxv
	.byte	W01
	.byte		        37*seq_024_mvl/mxv
	.byte	W01
	.byte		        43*seq_024_mvl/mxv
	.byte	W01
	.byte		        49*seq_024_mvl/mxv
	.byte	W01
	.byte		        57*seq_024_mvl/mxv
	.byte	W01
	.byte		        64*seq_024_mvl/mxv
	.byte	W01
	.byte		        80*seq_024_mvl/mxv
	.byte	W01
	.byte		        88*seq_024_mvl/mxv
	.byte	W24
	.byte	W03
	.byte		N36   , Cn4 , v056
	.byte	W01
	.byte		VOL   , 54*seq_024_mvl/mxv
	.byte	W01
	.byte		        58*seq_024_mvl/mxv
	.byte	W01
	.byte		        62*seq_024_mvl/mxv
	.byte	W01
	.byte		        67*seq_024_mvl/mxv
	.byte	W01
	.byte		        73*seq_024_mvl/mxv
	.byte	W01
	.byte		        81*seq_024_mvl/mxv
	.byte	W01
	.byte		        89*seq_024_mvl/mxv
	.byte	W01
	.byte		        105*seq_024_mvl/mxv
	.byte	W01
	.byte		        113*seq_024_mvl/mxv
	.byte	W24
	.byte	W02
	.byte		        16*seq_024_mvl/mxv
	.byte	W01
	.byte		N24   , Gn4 , v100
	.byte	W01
	.byte		VOL   , 29*seq_024_mvl/mxv
	.byte	W01
	.byte		        33*seq_024_mvl/mxv
	.byte	W01
	.byte		        37*seq_024_mvl/mxv
	.byte	W01
	.byte		        43*seq_024_mvl/mxv
	.byte	W01
	.byte		        49*seq_024_mvl/mxv
	.byte	W01
	.byte		        57*seq_024_mvl/mxv
	.byte	W01
	.byte		        64*seq_024_mvl/mxv
	.byte	W01
	.byte		        80*seq_024_mvl/mxv
	.byte	W01
	.byte		        88*seq_024_mvl/mxv
	.byte	W14
	.byte		        16*seq_024_mvl/mxv
	.byte	W01
	.byte		N36   , Fn4 , v072
	.byte	W01
	.byte		VOL   , 29*seq_024_mvl/mxv
	.byte	W01
	.byte		        33*seq_024_mvl/mxv
	.byte	W01
	.byte		        37*seq_024_mvl/mxv
	.byte	W01
	.byte		        43*seq_024_mvl/mxv
	.byte	W01
	.byte		        49*seq_024_mvl/mxv
	.byte	W01
	.byte		        57*seq_024_mvl/mxv
	.byte	W01
	.byte		        64*seq_024_mvl/mxv
	.byte	W01
	.byte		        80*seq_024_mvl/mxv
	.byte	W01
	.byte		        88*seq_024_mvl/mxv
	.byte	W24
	.byte	W03
	.byte		N36   , Ds4 , v068
	.byte	W01
	.byte		VOL   , 54*seq_024_mvl/mxv
	.byte	W01
	.byte		        58*seq_024_mvl/mxv
	.byte	W01
	.byte		        62*seq_024_mvl/mxv
	.byte	W01
	.byte		        67*seq_024_mvl/mxv
	.byte	W01
	.byte		        73*seq_024_mvl/mxv
	.byte	W01
	.byte		        81*seq_024_mvl/mxv
	.byte	W01
	.byte		        89*seq_024_mvl/mxv
	.byte	W01
	.byte		        105*seq_024_mvl/mxv
	.byte	W01
	.byte		        113*seq_024_mvl/mxv
	.byte	W24
	.byte	W02
	.byte		        16*seq_024_mvl/mxv
	.byte	W01
	.byte		N16   , Dn4 , v100
	.byte	W01
	.byte		VOL   , 29*seq_024_mvl/mxv
	.byte	W01
	.byte		        33*seq_024_mvl/mxv
	.byte	W01
	.byte		        37*seq_024_mvl/mxv
	.byte	W01
	.byte		        43*seq_024_mvl/mxv
	.byte	W01
	.byte		        49*seq_024_mvl/mxv
	.byte	W01
	.byte		        57*seq_024_mvl/mxv
	.byte	W01
	.byte		        64*seq_024_mvl/mxv
	.byte	W01
	.byte		        80*seq_024_mvl/mxv
	.byte	W01
	.byte		        88*seq_024_mvl/mxv
	.byte	W07
	.byte		N04   , Ds4 , v048
	.byte	W04
	.byte		        Dn4 , v052
	.byte	W03
	.byte		VOL   , 16*seq_024_mvl/mxv
	.byte	W01
	.byte		N96   , Cn4 , v088
	.byte	W01
	.byte		VOL   , 29*seq_024_mvl/mxv
	.byte	W01
	.byte		        33*seq_024_mvl/mxv
	.byte	W01
	.byte		        37*seq_024_mvl/mxv
	.byte	W01
	.byte		        43*seq_024_mvl/mxv
	.byte	W01
	.byte		        49*seq_024_mvl/mxv
	.byte	W01
	.byte		        57*seq_024_mvl/mxv
	.byte	W01
	.byte		        64*seq_024_mvl/mxv
	.byte	W01
	.byte		        80*seq_024_mvl/mxv
	.byte	W01
	.byte		        88*seq_024_mvl/mxv
	.byte	W05
	.byte		        80*seq_024_mvl/mxv
	.byte	W02
	.byte		        76*seq_024_mvl/mxv
	.byte	W03
	.byte		        72*seq_024_mvl/mxv
	.byte	W02
	.byte		        69*seq_024_mvl/mxv
	.byte	W01
	.byte		        69*seq_024_mvl/mxv
	.byte	W02
	.byte		        66*seq_024_mvl/mxv
	.byte	W10
	.byte		        64*seq_024_mvl/mxv
	.byte	W04
	.byte		        67*seq_024_mvl/mxv
	.byte	W02
	.byte		        68*seq_024_mvl/mxv
	.byte	W03
	.byte		        70*seq_024_mvl/mxv
	.byte	W03
	.byte		        72*seq_024_mvl/mxv
	.byte	W02
	.byte		        74*seq_024_mvl/mxv
	.byte	W03
	.byte		        76*seq_024_mvl/mxv
	.byte	W02
	.byte		        79*seq_024_mvl/mxv
	.byte	W02
	.byte		        82*seq_024_mvl/mxv
	.byte	W02
	.byte		        84*seq_024_mvl/mxv
	.byte	W02
	.byte		        87*seq_024_mvl/mxv
	.byte	W04
	.byte		        93*seq_024_mvl/mxv
	.byte	W03
	.byte		        99*seq_024_mvl/mxv
	.byte	W03
	.byte		        94*seq_024_mvl/mxv
	.byte	W03
	.byte		        90*seq_024_mvl/mxv
	.byte	W03
	.byte		        85*seq_024_mvl/mxv
	.byte	W03
	.byte		        77*seq_024_mvl/mxv
	.byte	W03
	.byte		        73*seq_024_mvl/mxv
	.byte	W02
	.byte		        63*seq_024_mvl/mxv
	.byte	W01
	.byte		        56*seq_024_mvl/mxv
	.byte	W01
	.byte		        52*seq_024_mvl/mxv
	.byte	W01
	.byte		        46*seq_024_mvl/mxv
	.byte	W01
	.byte		        39*seq_024_mvl/mxv
	.byte	W01
	.byte		        35*seq_024_mvl/mxv
	.byte	W01
	.byte		        28*seq_024_mvl/mxv
	.byte	W01
	.byte		        19*seq_024_mvl/mxv
	.byte	W06
	.byte	W96
	.byte	W96
	.byte	W96
	.byte	W96
	.byte	W96
	.byte	W96
	.byte	PATT
	 .word	seq_024_1 + 0x298
	.byte	PATT
	 .word	seq_024_1 + 0x2A2
	.byte	W96
	.byte	W96
	.byte	W96
	.byte		EOT   , As4 
	.byte	GOTO
	 .word	seq_024_1 + 0x2D9
	.byte	FINE

@*********************** Track 03 ***********************@

seq_024_2:
	.byte	KEYSH , seq_024_key+0
	.byte	W03
	.byte		VOICE , 95
	.byte		VOL   , 98*seq_024_mvl/mxv
	.byte		PAN   , c_v+0
	.byte	W01
	.byte		MOD   , 45
	.byte		MODT  , mod_pan
	.byte	W32
	.byte	W96
	.byte	W92
	.byte	W03
	.byte		MOD   , 3
	.byte		VOL   , 27*seq_024_mvl/mxv
	.byte		PAN   , c_v-20
	.byte	W01
	.byte		N48   , As2 , v056
	.byte	W02
	.byte		VOL   , 29*seq_024_mvl/mxv
	.byte	W02
	.byte		        31*seq_024_mvl/mxv
	.byte	W02
	.byte		        32*seq_024_mvl/mxv
	.byte	W02
	.byte		        34*seq_024_mvl/mxv
	.byte	W03
	.byte		        37*seq_024_mvl/mxv
	.byte	W02
	.byte		        38*seq_024_mvl/mxv
	.byte	W02
	.byte		        40*seq_024_mvl/mxv
	.byte	W02
	.byte		        42*seq_024_mvl/mxv
	.byte	W02
	.byte		        43*seq_024_mvl/mxv
	.byte	W02
	.byte		        45*seq_024_mvl/mxv
	.byte	W02
	.byte		        47*seq_024_mvl/mxv
	.byte	W02
	.byte		        49*seq_024_mvl/mxv
	.byte	W02
	.byte		        55*seq_024_mvl/mxv
	.byte	W02
	.byte		        62*seq_024_mvl/mxv
	.byte	W02
	.byte		        68*seq_024_mvl/mxv
	.byte	W02
	.byte		        75*seq_024_mvl/mxv
	.byte	W02
	.byte		        82*seq_024_mvl/mxv
	.byte	W02
	.byte		        89*seq_024_mvl/mxv
	.byte	W02
	.byte		        96*seq_024_mvl/mxv
	.byte	W02
	.byte		        103*seq_024_mvl/mxv
	.byte	W02
	.byte		        110*seq_024_mvl/mxv
	.byte	W02
	.byte		        117*seq_024_mvl/mxv
	.byte	W02
	.byte		        125*seq_024_mvl/mxv
	.byte	W48
	.byte		MOD   , 3
	.byte		VOL   , 27*seq_024_mvl/mxv
	.byte		PAN   , c_v-20
	.byte	W01
	.byte	PEND
	.byte		N48   , As2 , v056
	.byte	W02
	.byte		VOL   , 29*seq_024_mvl/mxv
	.byte	W02
	.byte		        31*seq_024_mvl/mxv
	.byte	W02
	.byte		        32*seq_024_mvl/mxv
	.byte	W02
	.byte		        34*seq_024_mvl/mxv
	.byte	W03
	.byte		        37*seq_024_mvl/mxv
	.byte	W02
	.byte		        38*seq_024_mvl/mxv
	.byte	W02
	.byte		        40*seq_024_mvl/mxv
	.byte	W02
	.byte		        42*seq_024_mvl/mxv
	.byte	W02
	.byte		        43*seq_024_mvl/mxv
	.byte	W02
	.byte		        45*seq_024_mvl/mxv
	.byte	W02
	.byte		        47*seq_024_mvl/mxv
	.byte	W02
	.byte		        49*seq_024_mvl/mxv
	.byte	W02
	.byte		        55*seq_024_mvl/mxv
	.byte	W02
	.byte		        62*seq_024_mvl/mxv
	.byte	W02
	.byte		        68*seq_024_mvl/mxv
	.byte	W02
	.byte		        75*seq_024_mvl/mxv
	.byte	W02
	.byte		        82*seq_024_mvl/mxv
	.byte	W02
	.byte		        89*seq_024_mvl/mxv
	.byte	W02
	.byte		        96*seq_024_mvl/mxv
	.byte	W02
	.byte		        103*seq_024_mvl/mxv
	.byte	W02
	.byte		        110*seq_024_mvl/mxv
	.byte	W02
	.byte		        117*seq_024_mvl/mxv
	.byte	W02
	.byte		        125*seq_024_mvl/mxv
	.byte	W48
	.byte		        34*seq_024_mvl/mxv
	.byte	W01
	.byte	PEND
	.byte		N24   , As1 , v072
	.byte	W02
	.byte		VOL   , 39*seq_024_mvl/mxv
	.byte	W02
	.byte		        41*seq_024_mvl/mxv
	.byte	W02
	.byte		        43*seq_024_mvl/mxv
	.byte	W02
	.byte		        45*seq_024_mvl/mxv
	.byte	W03
	.byte		        48*seq_024_mvl/mxv
	.byte	W02
	.byte		        53*seq_024_mvl/mxv
	.byte	W02
	.byte		        55*seq_024_mvl/mxv
	.byte	W02
	.byte		        57*seq_024_mvl/mxv
	.byte	W02
	.byte		        59*seq_024_mvl/mxv
	.byte	W02
	.byte		        62*seq_024_mvl/mxv
	.byte	W02
	.byte		        64*seq_024_mvl/mxv
	.byte	W01
	.byte		N12   , Gn1 
	.byte	W01
	.byte		VOL   , 67*seq_024_mvl/mxv
	.byte	W02
	.byte		        70*seq_024_mvl/mxv
	.byte	W02
	.byte		        74*seq_024_mvl/mxv
	.byte	W02
	.byte		        77*seq_024_mvl/mxv
	.byte	W02
	.byte		        78*seq_024_mvl/mxv
	.byte	W02
	.byte		        82*seq_024_mvl/mxv
	.byte	W01
	.byte		N24   , As1 
	.byte	W01
	.byte		VOL   , 84*seq_024_mvl/mxv
	.byte	W02
	.byte		        86*seq_024_mvl/mxv
	.byte	W02
	.byte		        90*seq_024_mvl/mxv
	.byte	W02
	.byte		        92*seq_024_mvl/mxv
	.byte	W02
	.byte		        96*seq_024_mvl/mxv
	.byte	W02
	.byte		        98*seq_024_mvl/mxv
	.byte	W13
	.byte		N24   , Ds2 
	.byte	W24
	.byte		N48   , Fn2 
	.byte	W12
	.byte	W32
	.byte	W03
	.byte		PAN   , c_v+0
	.byte	W01
	.byte		N60   , Ds2 
	.byte	W04
	.byte		VOL   , 95*seq_024_mvl/mxv
	.byte	W02
	.byte		        95*seq_024_mvl/mxv
	.byte	W02
	.byte		        93*seq_024_mvl/mxv
	.byte	W01
	.byte		        93*seq_024_mvl/mxv
	.byte	W02
	.byte		        91*seq_024_mvl/mxv
	.byte	W01
	.byte		        91*seq_024_mvl/mxv
	.byte	W02
	.byte		        89*seq_024_mvl/mxv
	.byte	W01
	.byte		        89*seq_024_mvl/mxv
	.byte	W02
	.byte		        87*seq_024_mvl/mxv
	.byte	W01
	.byte		        86*seq_024_mvl/mxv
	.byte	W02
	.byte		        85*seq_024_mvl/mxv
	.byte	W01
	.byte		        84*seq_024_mvl/mxv
	.byte	W02
	.byte		        83*seq_024_mvl/mxv
	.byte	W01
	.byte		        81*seq_024_mvl/mxv
	.byte	W02
	.byte		        78*seq_024_mvl/mxv
	.byte	W01
	.byte		        77*seq_024_mvl/mxv
	.byte	W02
	.byte		        73*seq_024_mvl/mxv
	.byte	W07
	.byte		        72*seq_024_mvl/mxv
	.byte	W02
	.byte		        68*seq_024_mvl/mxv
	.byte	W01
	.byte		        67*seq_024_mvl/mxv
	.byte	W02
	.byte		        64*seq_024_mvl/mxv
	.byte	W01
	.byte		        62*seq_024_mvl/mxv
	.byte	W02
	.byte		        60*seq_024_mvl/mxv
	.byte	W01
	.byte		        58*seq_024_mvl/mxv
	.byte	W02
	.byte		        51*seq_024_mvl/mxv
	.byte	W01
	.byte		        47*seq_024_mvl/mxv
	.byte	W02
	.byte		        38*seq_024_mvl/mxv
	.byte	W01
	.byte		        34*seq_024_mvl/mxv
	.byte	W02
	.byte		        26*seq_024_mvl/mxv
	.byte	W01
	.byte		        21*seq_024_mvl/mxv
	.byte	W02
	.byte		        13*seq_024_mvl/mxv
	.byte	W03
	.byte		MOD   , 3
	.byte		VOL   , 27*seq_024_mvl/mxv
	.byte		PAN   , c_v-20
	.byte	W01
	.byte	PATT
	 .word	seq_024_2 + 0x19
	.byte	PATT
	 .word	seq_024_2 + 0x54
	.byte		N60   , Dn2 , v072
	.byte	W02
	.byte		VOL   , 39*seq_024_mvl/mxv
	.byte	W02
	.byte		        41*seq_024_mvl/mxv
	.byte	W02
	.byte		        43*seq_024_mvl/mxv
	.byte	W02
	.byte		        45*seq_024_mvl/mxv
	.byte	W03
	.byte		        48*seq_024_mvl/mxv
	.byte	W02
	.byte		        53*seq_024_mvl/mxv
	.byte	W02
	.byte		        55*seq_024_mvl/mxv
	.byte	W02
	.byte		        57*seq_024_mvl/mxv
	.byte	W02
	.byte		        59*seq_024_mvl/mxv
	.byte	W02
	.byte		        62*seq_024_mvl/mxv
	.byte	W02
	.byte		        64*seq_024_mvl/mxv
	.byte	W02
	.byte		        67*seq_024_mvl/mxv
	.byte	W02
	.byte		        70*seq_024_mvl/mxv
	.byte	W02
	.byte		        74*seq_024_mvl/mxv
	.byte	W02
	.byte		        77*seq_024_mvl/mxv
	.byte	W02
	.byte		        78*seq_024_mvl/mxv
	.byte	W02
	.byte		        82*seq_024_mvl/mxv
	.byte	W02
	.byte		        84*seq_024_mvl/mxv
	.byte	W02
	.byte		        86*seq_024_mvl/mxv
	.byte	W02
	.byte		        90*seq_024_mvl/mxv
	.byte	W02
	.byte		        92*seq_024_mvl/mxv
	.byte	W02
	.byte		        96*seq_024_mvl/mxv
	.byte	W02
	.byte		        98*seq_024_mvl/mxv
	.byte	W13
	.byte		N24   , Ds2 
	.byte	W24
	.byte		N48   , Gs2 , v052
	.byte	W12
	.byte	W36
	.byte		N60   , Gn2 
	.byte	W04
	.byte		VOL   , 95*seq_024_mvl/mxv
	.byte	W02
	.byte		        95*seq_024_mvl/mxv
	.byte	W02
	.byte		        93*seq_024_mvl/mxv
	.byte	W01
	.byte		        93*seq_024_mvl/mxv
	.byte	W02
	.byte		        91*seq_024_mvl/mxv
	.byte	W01
	.byte		        91*seq_024_mvl/mxv
	.byte	W02
	.byte		        89*seq_024_mvl/mxv
	.byte	W01
	.byte		        89*seq_024_mvl/mxv
	.byte	W02
	.byte		        87*seq_024_mvl/mxv
	.byte	W01
	.byte		        86*seq_024_mvl/mxv
	.byte	W02
	.byte		        85*seq_024_mvl/mxv
	.byte	W01
	.byte		        84*seq_024_mvl/mxv
	.byte	W02
	.byte		        83*seq_024_mvl/mxv
	.byte	W01
	.byte		        81*seq_024_mvl/mxv
	.byte	W02
	.byte		        78*seq_024_mvl/mxv
	.byte	W01
	.byte		        77*seq_024_mvl/mxv
	.byte	W02
	.byte		        73*seq_024_mvl/mxv
	.byte	W07
	.byte		        72*seq_024_mvl/mxv
	.byte	W02
	.byte		        68*seq_024_mvl/mxv
	.byte	W01
	.byte		        67*seq_024_mvl/mxv
	.byte	W02
	.byte		        64*seq_024_mvl/mxv
	.byte	W01
	.byte		        62*seq_024_mvl/mxv
	.byte	W02
	.byte		        60*seq_024_mvl/mxv
	.byte	W01
	.byte		        58*seq_024_mvl/mxv
	.byte	W02
	.byte		        51*seq_024_mvl/mxv
	.byte	W01
	.byte		        47*seq_024_mvl/mxv
	.byte	W02
	.byte		        38*seq_024_mvl/mxv
	.byte	W01
	.byte		        34*seq_024_mvl/mxv
	.byte	W02
	.byte		        26*seq_024_mvl/mxv
	.byte	W01
	.byte		        21*seq_024_mvl/mxv
	.byte	W02
	.byte		        13*seq_024_mvl/mxv
	.byte	W03
	.byte		        88*seq_024_mvl/mxv
	.byte	W01
	.byte		N48   , Cn2 , v076
	.byte	W48
	.byte		        Ds2 
	.byte	W48
	.byte		        Dn2 
	.byte	W48
	.byte		        Fn2 
	.byte	W48
	.byte		N96   , Ds2 
	.byte	W96
	.byte		        Dn2 
	.byte	W96
	.byte		        Cn2 
	.byte	W96
	.byte		        As1 
	.byte	W96
	.byte		N48
	.byte	W48
	.byte		        Gn1 
	.byte	W48
	.byte		        An1 
	.byte	W02
	.byte		VOL   , 85*seq_024_mvl/mxv
	.byte	W02
	.byte		        85*seq_024_mvl/mxv
	.byte	W02
	.byte		        84*seq_024_mvl/mxv
	.byte	W02
	.byte		        83*seq_024_mvl/mxv
	.byte	W02
	.byte		        82*seq_024_mvl/mxv
	.byte	W02
	.byte		        78*seq_024_mvl/mxv
	.byte	W02
	.byte		        75*seq_024_mvl/mxv
	.byte	W02
	.byte		        71*seq_024_mvl/mxv
	.byte	W02
	.byte		        68*seq_024_mvl/mxv
	.byte	W02
	.byte		        64*seq_024_mvl/mxv
	.byte	W02
	.byte		        62*seq_024_mvl/mxv
	.byte	W02
	.byte		        53*seq_024_mvl/mxv
	.byte	W01
	.byte		        49*seq_024_mvl/mxv
	.byte	W02
	.byte		        40*seq_024_mvl/mxv
	.byte	W02
	.byte		        31*seq_024_mvl/mxv
	.byte	W02
	.byte		        22*seq_024_mvl/mxv
	.byte	W02
	.byte		        13*seq_024_mvl/mxv
	.byte	W02
	.byte		        4*seq_024_mvl/mxv
	.byte	W60
	.byte		        27*seq_024_mvl/mxv
	.byte		PAN   , c_v-20
	.byte	W01
	.byte		TIE   , Ds2 , v092
	.byte	W02
	.byte		VOL   , 29*seq_024_mvl/mxv
	.byte	W02
	.byte		        31*seq_024_mvl/mxv
	.byte	W02
	.byte		        32*seq_024_mvl/mxv
	.byte	W02
	.byte		        34*seq_024_mvl/mxv
	.byte	W03
	.byte		        37*seq_024_mvl/mxv
	.byte	W02
	.byte		        38*seq_024_mvl/mxv
	.byte	W02
	.byte		        40*seq_024_mvl/mxv
	.byte	W02
	.byte		        42*seq_024_mvl/mxv
	.byte	W02
	.byte		        43*seq_024_mvl/mxv
	.byte	W02
	.byte		        45*seq_024_mvl/mxv
	.byte	W02
	.byte		        47*seq_024_mvl/mxv
	.byte	W02
	.byte		        49*seq_024_mvl/mxv
	.byte	W04
	.byte		        53*seq_024_mvl/mxv
	.byte	W02
	.byte		        57*seq_024_mvl/mxv
	.byte	W02
	.byte		        61*seq_024_mvl/mxv
	.byte	W02
	.byte		        64*seq_024_mvl/mxv
	.byte	W02
	.byte		        68*seq_024_mvl/mxv
	.byte	W02
	.byte		        72*seq_024_mvl/mxv
	.byte	W02
	.byte		        76*seq_024_mvl/mxv
	.byte	W02
	.byte		        80*seq_024_mvl/mxv
	.byte	W02
	.byte		        84*seq_024_mvl/mxv
	.byte	W02
	.byte		        88*seq_024_mvl/mxv
	.byte	W48
	.byte	W01
	.byte	PEND
	.byte	W48
	.byte		EOT
	.byte		N48   , Fn2 
	.byte	W48
	.byte		TIE   , Gn2 
	.byte	W96
	.byte	W96
	.byte		EOT
	.byte		TIE   , Ds2 , v092
	.byte	W96
	.byte	W48
	.byte		EOT
	.byte		N48   , Fn2 
	.byte	W48
	.byte		TIE   , Gn2 
	.byte	W96
	.byte	W96
	.byte		EOT
	.byte		N96   , Ds2 
	.byte	W96
	.byte		        Fn2 
	.byte	W96
	.byte		N72   , Gn2 
	.byte	W72
	.byte		N24   , Cn3 
	.byte	W24
	.byte		N72   , As2 
	.byte	W72
	.byte		N24   , Dn3 
	.byte	W24
	.byte		N96   , Cn3 
	.byte	W96
	.byte		        Dn3 
	.byte	W92
	.byte	W03
	.byte		MOD   , 3
	.byte		VOL   , 27*seq_024_mvl/mxv
	.byte		PAN   , c_v-20
	.byte	W01
	.byte		N48   , Ds3 , v056
	.byte	W02
	.byte		VOL   , 29*seq_024_mvl/mxv
	.byte	W02
	.byte		        31*seq_024_mvl/mxv
	.byte	W02
	.byte		        32*seq_024_mvl/mxv
	.byte	W02
	.byte		        34*seq_024_mvl/mxv
	.byte	W03
	.byte		        37*seq_024_mvl/mxv
	.byte	W02
	.byte		        40*seq_024_mvl/mxv
	.byte	W02
	.byte		        45*seq_024_mvl/mxv
	.byte	W02
	.byte		        50*seq_024_mvl/mxv
	.byte	W02
	.byte		        55*seq_024_mvl/mxv
	.byte	W02
	.byte		        60*seq_024_mvl/mxv
	.byte	W02
	.byte		        64*seq_024_mvl/mxv
	.byte	W02
	.byte		        72*seq_024_mvl/mxv
	.byte	W02
	.byte		        80*seq_024_mvl/mxv
	.byte	W02
	.byte		        90*seq_024_mvl/mxv
	.byte	W02
	.byte		        100*seq_024_mvl/mxv
	.byte	W02
	.byte		        111*seq_024_mvl/mxv
	.byte	W02
	.byte		        118*seq_024_mvl/mxv
	.byte	W02
	.byte		        125*seq_024_mvl/mxv
	.byte	W56
	.byte	W02
	.byte		MOD   , 3
	.byte		VOL   , 27*seq_024_mvl/mxv
	.byte		PAN   , c_v-20
	.byte	W01
	.byte		N48   , Dn3 
	.byte	W02
	.byte		VOL   , 29*seq_024_mvl/mxv
	.byte	W02
	.byte		        31*seq_024_mvl/mxv
	.byte	W02
	.byte		        32*seq_024_mvl/mxv
	.byte	W02
	.byte		        34*seq_024_mvl/mxv
	.byte	W03
	.byte		        37*seq_024_mvl/mxv
	.byte	W02
	.byte		        40*seq_024_mvl/mxv
	.byte	W02
	.byte		        45*seq_024_mvl/mxv
	.byte	W02
	.byte		        50*seq_024_mvl/mxv
	.byte	W02
	.byte		        55*seq_024_mvl/mxv
	.byte	W02
	.byte		        60*seq_024_mvl/mxv
	.byte	W02
	.byte		        64*seq_024_mvl/mxv
	.byte	W02
	.byte		        72*seq_024_mvl/mxv
	.byte	W02
	.byte		        80*seq_024_mvl/mxv
	.byte	W02
	.byte		        90*seq_024_mvl/mxv
	.byte	W02
	.byte		        100*seq_024_mvl/mxv
	.byte	W02
	.byte		        111*seq_024_mvl/mxv
	.byte	W02
	.byte		        118*seq_024_mvl/mxv
	.byte	W02
	.byte		        125*seq_024_mvl/mxv
	.byte	W56
	.byte	W02
	.byte		VOICE , 94
	.byte		MOD   , 3
	.byte		VOL   , 98*seq_024_mvl/mxv
	.byte		PAN   , c_v-45
	.byte	W01
	.byte		N48   , Cn3 , v056
	.byte	W02
	.byte		VOL   , 29*seq_024_mvl/mxv
	.byte	W02
	.byte		        31*seq_024_mvl/mxv
	.byte	W02
	.byte		        32*seq_024_mvl/mxv
	.byte	W02
	.byte		        34*seq_024_mvl/mxv
	.byte	W03
	.byte		        37*seq_024_mvl/mxv
	.byte	W02
	.byte		        38*seq_024_mvl/mxv
	.byte	W02
	.byte		        40*seq_024_mvl/mxv
	.byte	W02
	.byte		        42*seq_024_mvl/mxv
	.byte	W02
	.byte		        43*seq_024_mvl/mxv
	.byte	W02
	.byte		        45*seq_024_mvl/mxv
	.byte	W02
	.byte		        47*seq_024_mvl/mxv
	.byte	W02
	.byte		        49*seq_024_mvl/mxv
	.byte	W02
	.byte		        55*seq_024_mvl/mxv
	.byte	W02
	.byte		        62*seq_024_mvl/mxv
	.byte	W02
	.byte		        68*seq_024_mvl/mxv
	.byte	W02
	.byte		        75*seq_024_mvl/mxv
	.byte	W02
	.byte		        82*seq_024_mvl/mxv
	.byte	W02
	.byte		        89*seq_024_mvl/mxv
	.byte	W02
	.byte		        96*seq_024_mvl/mxv
	.byte	W02
	.byte		        103*seq_024_mvl/mxv
	.byte	W02
	.byte		        110*seq_024_mvl/mxv
	.byte	W02
	.byte		        117*seq_024_mvl/mxv
	.byte	W02
	.byte		        125*seq_024_mvl/mxv
	.byte	W48
	.byte		MOD   , 3
	.byte		VOL   , 27*seq_024_mvl/mxv
	.byte		PAN   , c_v-20
	.byte	W01
	.byte	PEND
	.byte	PATT
	 .word	seq_024_2 + 0x2B0
	.byte	PATT
	 .word	seq_024_2 + 0x19
	.byte	PATT
	 .word	seq_024_2 + 0x19
	.byte	PATT
	 .word	seq_024_2 + 0x2B0
	.byte	PATT
	 .word	seq_024_2 + 0x2B0
	.byte	PATT
	 .word	seq_024_2 + 0x19
	.byte		N48   , As2 , v056
	.byte	W02
	.byte		VOL   , 29*seq_024_mvl/mxv
	.byte	W02
	.byte		        31*seq_024_mvl/mxv
	.byte	W02
	.byte		        32*seq_024_mvl/mxv
	.byte	W02
	.byte		        34*seq_024_mvl/mxv
	.byte	W03
	.byte		        37*seq_024_mvl/mxv
	.byte	W02
	.byte		        38*seq_024_mvl/mxv
	.byte	W02
	.byte		        40*seq_024_mvl/mxv
	.byte	W02
	.byte		        42*seq_024_mvl/mxv
	.byte	W02
	.byte		        43*seq_024_mvl/mxv
	.byte	W02
	.byte		        45*seq_024_mvl/mxv
	.byte	W02
	.byte		        47*seq_024_mvl/mxv
	.byte	W02
	.byte		        49*seq_024_mvl/mxv
	.byte	W02
	.byte		        55*seq_024_mvl/mxv
	.byte	W02
	.byte		        62*seq_024_mvl/mxv
	.byte	W02
	.byte		        68*seq_024_mvl/mxv
	.byte	W02
	.byte		        75*seq_024_mvl/mxv
	.byte	W02
	.byte		        82*seq_024_mvl/mxv
	.byte	W02
	.byte		        89*seq_024_mvl/mxv
	.byte	W02
	.byte		        96*seq_024_mvl/mxv
	.byte	W02
	.byte		        103*seq_024_mvl/mxv
	.byte	W02
	.byte		        110*seq_024_mvl/mxv
	.byte	W02
	.byte		        117*seq_024_mvl/mxv
	.byte	W02
	.byte		        125*seq_024_mvl/mxv
	.byte	W48
	.byte		        27*seq_024_mvl/mxv
	.byte		PAN   , c_v-20
	.byte	W01
	.byte	PATT
	 .word	seq_024_2 + 0x1E4
	.byte	W48
	.byte		EOT   , Ds2 
	.byte		N48   , Fn2 , v092
	.byte	W48
	.byte		TIE   , Gn2 
	.byte	W96
	.byte	W96
	.byte		EOT
	.byte	GOTO
	 .word	seq_024_2 + 0x221
	.byte	FINE

@*********************** Track 04 ***********************@

seq_024_3:
	.byte	KEYSH , seq_024_key+0
	.byte	W05
	.byte		VOICE , 94
	.byte		VOL   , 98*seq_024_mvl/mxv
	.byte		PAN   , c_v+50
	.byte	W30
	.byte	W01
	.byte	W96
	.byte	W92
	.byte	W03
	.byte		MOD   , 3
	.byte		VOL   , 27*seq_024_mvl/mxv
	.byte		PAN   , c_v+20
	.byte	W01
	.byte		N48   , Ds2 , v056
	.byte	W02
	.byte		VOL   , 29*seq_024_mvl/mxv
	.byte	W02
	.byte		        31*seq_024_mvl/mxv
	.byte	W02
	.byte		        32*seq_024_mvl/mxv
	.byte	W02
	.byte		        34*seq_024_mvl/mxv
	.byte	W03
	.byte		        37*seq_024_mvl/mxv
	.byte	W02
	.byte		        38*seq_024_mvl/mxv
	.byte	W02
	.byte		        40*seq_024_mvl/mxv
	.byte	W02
	.byte		        42*seq_024_mvl/mxv
	.byte	W02
	.byte		        43*seq_024_mvl/mxv
	.byte	W02
	.byte		        45*seq_024_mvl/mxv
	.byte	W02
	.byte		        47*seq_024_mvl/mxv
	.byte	W02
	.byte		        49*seq_024_mvl/mxv
	.byte	W02
	.byte		        55*seq_024_mvl/mxv
	.byte	W02
	.byte		        62*seq_024_mvl/mxv
	.byte	W02
	.byte		        68*seq_024_mvl/mxv
	.byte	W02
	.byte		        75*seq_024_mvl/mxv
	.byte	W02
	.byte		        82*seq_024_mvl/mxv
	.byte	W02
	.byte		        89*seq_024_mvl/mxv
	.byte	W02
	.byte		        96*seq_024_mvl/mxv
	.byte	W02
	.byte		        103*seq_024_mvl/mxv
	.byte	W02
	.byte		        110*seq_024_mvl/mxv
	.byte	W02
	.byte		        117*seq_024_mvl/mxv
	.byte	W02
	.byte		        125*seq_024_mvl/mxv
	.byte	W48
	.byte		MOD   , 3
	.byte		VOL   , 27*seq_024_mvl/mxv
	.byte		PAN   , c_v+20
	.byte	W01
	.byte	PEND
	.byte		N48   , Dn2 , v056
	.byte	W02
	.byte		VOL   , 29*seq_024_mvl/mxv
	.byte	W02
	.byte		        31*seq_024_mvl/mxv
	.byte	W02
	.byte		        32*seq_024_mvl/mxv
	.byte	W02
	.byte		        34*seq_024_mvl/mxv
	.byte	W03
	.byte		        37*seq_024_mvl/mxv
	.byte	W02
	.byte		        38*seq_024_mvl/mxv
	.byte	W02
	.byte		        40*seq_024_mvl/mxv
	.byte	W02
	.byte		        42*seq_024_mvl/mxv
	.byte	W02
	.byte		        43*seq_024_mvl/mxv
	.byte	W02
	.byte		        45*seq_024_mvl/mxv
	.byte	W02
	.byte		        47*seq_024_mvl/mxv
	.byte	W02
	.byte		        49*seq_024_mvl/mxv
	.byte	W02
	.byte		        55*seq_024_mvl/mxv
	.byte	W02
	.byte		        62*seq_024_mvl/mxv
	.byte	W02
	.byte		        68*seq_024_mvl/mxv
	.byte	W02
	.byte		        75*seq_024_mvl/mxv
	.byte	W02
	.byte		        82*seq_024_mvl/mxv
	.byte	W02
	.byte		        89*seq_024_mvl/mxv
	.byte	W02
	.byte		        96*seq_024_mvl/mxv
	.byte	W02
	.byte		        103*seq_024_mvl/mxv
	.byte	W02
	.byte		        110*seq_024_mvl/mxv
	.byte	W02
	.byte		        117*seq_024_mvl/mxv
	.byte	W02
	.byte		        125*seq_024_mvl/mxv
	.byte	W48
	.byte		        34*seq_024_mvl/mxv
	.byte	W01
	.byte	PEND
	.byte		N60   , Dn2 , v072
	.byte	W02
	.byte		VOL   , 39*seq_024_mvl/mxv
	.byte	W02
	.byte		        41*seq_024_mvl/mxv
	.byte	W02
	.byte		        43*seq_024_mvl/mxv
	.byte	W02
	.byte		        45*seq_024_mvl/mxv
	.byte	W03
	.byte		        48*seq_024_mvl/mxv
	.byte	W02
	.byte		        53*seq_024_mvl/mxv
	.byte	W02
	.byte		        55*seq_024_mvl/mxv
	.byte	W02
	.byte		        57*seq_024_mvl/mxv
	.byte	W02
	.byte		        59*seq_024_mvl/mxv
	.byte	W02
	.byte		        62*seq_024_mvl/mxv
	.byte	W02
	.byte		        64*seq_024_mvl/mxv
	.byte	W02
	.byte		        67*seq_024_mvl/mxv
	.byte	W02
	.byte		        70*seq_024_mvl/mxv
	.byte	W02
	.byte		        74*seq_024_mvl/mxv
	.byte	W02
	.byte		        77*seq_024_mvl/mxv
	.byte	W02
	.byte		        78*seq_024_mvl/mxv
	.byte	W02
	.byte		        82*seq_024_mvl/mxv
	.byte	W02
	.byte		        84*seq_024_mvl/mxv
	.byte	W02
	.byte		        86*seq_024_mvl/mxv
	.byte	W02
	.byte		        90*seq_024_mvl/mxv
	.byte	W02
	.byte		        92*seq_024_mvl/mxv
	.byte	W02
	.byte		        96*seq_024_mvl/mxv
	.byte	W02
	.byte		        98*seq_024_mvl/mxv
	.byte	W13
	.byte		N24   , Cn2 
	.byte	W24
	.byte		N48   , Dn2 
	.byte	W12
	.byte	W40
	.byte		VOL   , 95*seq_024_mvl/mxv
	.byte	W02
	.byte		        95*seq_024_mvl/mxv
	.byte	W02
	.byte		        93*seq_024_mvl/mxv
	.byte	W01
	.byte		        93*seq_024_mvl/mxv
	.byte	W02
	.byte		        91*seq_024_mvl/mxv
	.byte	W01
	.byte		        91*seq_024_mvl/mxv
	.byte	W02
	.byte		        89*seq_024_mvl/mxv
	.byte	W01
	.byte		        89*seq_024_mvl/mxv
	.byte	W02
	.byte		        87*seq_024_mvl/mxv
	.byte	W01
	.byte		        86*seq_024_mvl/mxv
	.byte	W02
	.byte		        85*seq_024_mvl/mxv
	.byte	W01
	.byte		        84*seq_024_mvl/mxv
	.byte	W02
	.byte		        83*seq_024_mvl/mxv
	.byte	W01
	.byte		        81*seq_024_mvl/mxv
	.byte	W02
	.byte		        78*seq_024_mvl/mxv
	.byte	W01
	.byte		        77*seq_024_mvl/mxv
	.byte	W02
	.byte		        73*seq_024_mvl/mxv
	.byte	W07
	.byte		        72*seq_024_mvl/mxv
	.byte	W02
	.byte		        68*seq_024_mvl/mxv
	.byte	W01
	.byte		        67*seq_024_mvl/mxv
	.byte	W02
	.byte		        64*seq_024_mvl/mxv
	.byte	W01
	.byte		        62*seq_024_mvl/mxv
	.byte	W02
	.byte		        60*seq_024_mvl/mxv
	.byte	W01
	.byte		        58*seq_024_mvl/mxv
	.byte	W02
	.byte		        51*seq_024_mvl/mxv
	.byte	W01
	.byte		        47*seq_024_mvl/mxv
	.byte	W02
	.byte		        38*seq_024_mvl/mxv
	.byte	W01
	.byte		        34*seq_024_mvl/mxv
	.byte	W02
	.byte		        26*seq_024_mvl/mxv
	.byte	W01
	.byte		        21*seq_024_mvl/mxv
	.byte	W02
	.byte		        13*seq_024_mvl/mxv
	.byte	W03
	.byte		MOD   , 3
	.byte		VOL   , 27*seq_024_mvl/mxv
	.byte		PAN   , c_v+20
	.byte	W01
	.byte	PATT
	 .word	seq_024_3 + 0x15
	.byte	PATT
	 .word	seq_024_3 + 0x50
	.byte		N24   , As1 , v072
	.byte	W02
	.byte		VOL   , 39*seq_024_mvl/mxv
	.byte	W02
	.byte		        41*seq_024_mvl/mxv
	.byte	W02
	.byte		        43*seq_024_mvl/mxv
	.byte	W02
	.byte		        45*seq_024_mvl/mxv
	.byte	W03
	.byte		        48*seq_024_mvl/mxv
	.byte	W02
	.byte		        53*seq_024_mvl/mxv
	.byte	W02
	.byte		        55*seq_024_mvl/mxv
	.byte	W02
	.byte		        57*seq_024_mvl/mxv
	.byte	W02
	.byte		        59*seq_024_mvl/mxv
	.byte	W02
	.byte		        62*seq_024_mvl/mxv
	.byte	W02
	.byte		        64*seq_024_mvl/mxv
	.byte	W01
	.byte		N12   , Gn1 
	.byte	W01
	.byte		VOL   , 67*seq_024_mvl/mxv
	.byte	W02
	.byte		        70*seq_024_mvl/mxv
	.byte	W02
	.byte		        74*seq_024_mvl/mxv
	.byte	W02
	.byte		        77*seq_024_mvl/mxv
	.byte	W02
	.byte		        78*seq_024_mvl/mxv
	.byte	W02
	.byte		        82*seq_024_mvl/mxv
	.byte	W01
	.byte		N24   , As1 
	.byte	W01
	.byte		VOL   , 84*seq_024_mvl/mxv
	.byte	W02
	.byte		        86*seq_024_mvl/mxv
	.byte	W02
	.byte		        90*seq_024_mvl/mxv
	.byte	W02
	.byte		        92*seq_024_mvl/mxv
	.byte	W02
	.byte		        96*seq_024_mvl/mxv
	.byte	W02
	.byte		        98*seq_024_mvl/mxv
	.byte	W13
	.byte		N24   , Cn2 
	.byte	W24
	.byte		N84
	.byte	W12
	.byte	W40
	.byte		VOL   , 95*seq_024_mvl/mxv
	.byte	W02
	.byte		        95*seq_024_mvl/mxv
	.byte	W02
	.byte		        93*seq_024_mvl/mxv
	.byte	W01
	.byte		        93*seq_024_mvl/mxv
	.byte	W02
	.byte		        91*seq_024_mvl/mxv
	.byte	W01
	.byte		        91*seq_024_mvl/mxv
	.byte	W02
	.byte		        89*seq_024_mvl/mxv
	.byte	W01
	.byte		        89*seq_024_mvl/mxv
	.byte	W02
	.byte		        87*seq_024_mvl/mxv
	.byte	W01
	.byte		        86*seq_024_mvl/mxv
	.byte	W02
	.byte		        85*seq_024_mvl/mxv
	.byte	W01
	.byte		        84*seq_024_mvl/mxv
	.byte	W02
	.byte		        83*seq_024_mvl/mxv
	.byte	W01
	.byte		        81*seq_024_mvl/mxv
	.byte	W02
	.byte		        78*seq_024_mvl/mxv
	.byte	W01
	.byte		        77*seq_024_mvl/mxv
	.byte	W02
	.byte		        73*seq_024_mvl/mxv
	.byte	W07
	.byte		        72*seq_024_mvl/mxv
	.byte	W02
	.byte		        68*seq_024_mvl/mxv
	.byte	W01
	.byte		        67*seq_024_mvl/mxv
	.byte	W02
	.byte		        64*seq_024_mvl/mxv
	.byte	W01
	.byte		        62*seq_024_mvl/mxv
	.byte	W02
	.byte		        60*seq_024_mvl/mxv
	.byte	W01
	.byte		        58*seq_024_mvl/mxv
	.byte	W02
	.byte		        51*seq_024_mvl/mxv
	.byte	W01
	.byte		        47*seq_024_mvl/mxv
	.byte	W02
	.byte		        38*seq_024_mvl/mxv
	.byte	W01
	.byte		        34*seq_024_mvl/mxv
	.byte	W02
	.byte		        26*seq_024_mvl/mxv
	.byte	W01
	.byte		        21*seq_024_mvl/mxv
	.byte	W02
	.byte		        13*seq_024_mvl/mxv
	.byte	W03
	.byte		        88*seq_024_mvl/mxv
	.byte	W01
	.byte		N48   , Gs1 , v076
	.byte	W48
	.byte		        Cn2 
	.byte	W48
	.byte		        As1 
	.byte	W48
	.byte		        Dn2 
	.byte	W48
	.byte		        Cn2 
	.byte	W48
	.byte		        Gn2 
	.byte	W48
	.byte		        As1 
	.byte	W48
	.byte		        Fn2 
	.byte	W48
	.byte		        Gs1 
	.byte	W48
	.byte		        Ds2 
	.byte	W48
	.byte		        Gn1 
	.byte	W48
	.byte		        Dn2 
	.byte	W48
	.byte		N96   , Cn2 
	.byte	W96
	.byte		N48
	.byte	W02
	.byte		VOL   , 85*seq_024_mvl/mxv
	.byte	W02
	.byte		        85*seq_024_mvl/mxv
	.byte	W02
	.byte		        84*seq_024_mvl/mxv
	.byte	W02
	.byte		        83*seq_024_mvl/mxv
	.byte	W02
	.byte		        82*seq_024_mvl/mxv
	.byte	W02
	.byte		        78*seq_024_mvl/mxv
	.byte	W02
	.byte		        75*seq_024_mvl/mxv
	.byte	W02
	.byte		        71*seq_024_mvl/mxv
	.byte	W02
	.byte		        68*seq_024_mvl/mxv
	.byte	W02
	.byte		        64*seq_024_mvl/mxv
	.byte	W02
	.byte		        62*seq_024_mvl/mxv
	.byte	W02
	.byte		        53*seq_024_mvl/mxv
	.byte	W01
	.byte		        49*seq_024_mvl/mxv
	.byte	W02
	.byte		        40*seq_024_mvl/mxv
	.byte	W02
	.byte		        31*seq_024_mvl/mxv
	.byte	W02
	.byte		        22*seq_024_mvl/mxv
	.byte	W02
	.byte		        13*seq_024_mvl/mxv
	.byte	W02
	.byte		        4*seq_024_mvl/mxv
	.byte	W60
	.byte		        27*seq_024_mvl/mxv
	.byte		PAN   , c_v+20
	.byte	W01
	.byte		TIE   , Gs1 , v092
	.byte	W02
	.byte		VOL   , 29*seq_024_mvl/mxv
	.byte	W02
	.byte		        31*seq_024_mvl/mxv
	.byte	W02
	.byte		        32*seq_024_mvl/mxv
	.byte	W02
	.byte		        34*seq_024_mvl/mxv
	.byte	W03
	.byte		        37*seq_024_mvl/mxv
	.byte	W02
	.byte		        38*seq_024_mvl/mxv
	.byte	W02
	.byte		        40*seq_024_mvl/mxv
	.byte	W02
	.byte		        42*seq_024_mvl/mxv
	.byte	W02
	.byte		        43*seq_024_mvl/mxv
	.byte	W02
	.byte		        45*seq_024_mvl/mxv
	.byte	W02
	.byte		        47*seq_024_mvl/mxv
	.byte	W02
	.byte		        49*seq_024_mvl/mxv
	.byte	W04
	.byte		        53*seq_024_mvl/mxv
	.byte	W02
	.byte		        57*seq_024_mvl/mxv
	.byte	W02
	.byte		        61*seq_024_mvl/mxv
	.byte	W02
	.byte		        64*seq_024_mvl/mxv
	.byte	W02
	.byte		        68*seq_024_mvl/mxv
	.byte	W02
	.byte		        72*seq_024_mvl/mxv
	.byte	W02
	.byte		        76*seq_024_mvl/mxv
	.byte	W02
	.byte		        80*seq_024_mvl/mxv
	.byte	W02
	.byte		        84*seq_024_mvl/mxv
	.byte	W02
	.byte		        88*seq_024_mvl/mxv
	.byte	W48
	.byte	W01
	.byte	PEND
	.byte	W96
	.byte		EOT
	.byte		TIE   , As1 
	.byte	W96
	.byte	W96
	.byte		EOT
	.byte		TIE   , Gs1 , v092
	.byte	W96
	.byte	W96
	.byte		EOT
	.byte		TIE   , As1 
	.byte	W96
	.byte	W96
	.byte		EOT
	.byte		N96   , Cn2 
	.byte	W96
	.byte		        Dn2 
	.byte	W96
	.byte		        Ds2 
	.byte	W96
	.byte		N36   , Dn2 
	.byte	W36
	.byte		        Fn2 
	.byte	W36
	.byte		N24   , As2 
	.byte	W24
	.byte		N96   , Gs2 
	.byte	W96
	.byte		        As2 
	.byte	W92
	.byte	W03
	.byte		MOD   , 3
	.byte		VOL   , 27*seq_024_mvl/mxv
	.byte		PAN   , c_v-20
	.byte	W01
	.byte		N48   , Gn2 , v056
	.byte	W02
	.byte		VOL   , 29*seq_024_mvl/mxv
	.byte	W02
	.byte		        31*seq_024_mvl/mxv
	.byte	W02
	.byte		        32*seq_024_mvl/mxv
	.byte	W02
	.byte		        34*seq_024_mvl/mxv
	.byte	W03
	.byte		        37*seq_024_mvl/mxv
	.byte	W02
	.byte		        40*seq_024_mvl/mxv
	.byte	W02
	.byte		        45*seq_024_mvl/mxv
	.byte	W02
	.byte		        50*seq_024_mvl/mxv
	.byte	W02
	.byte		        55*seq_024_mvl/mxv
	.byte	W02
	.byte		        60*seq_024_mvl/mxv
	.byte	W02
	.byte		        64*seq_024_mvl/mxv
	.byte	W02
	.byte		        72*seq_024_mvl/mxv
	.byte	W02
	.byte		        80*seq_024_mvl/mxv
	.byte	W02
	.byte		        90*seq_024_mvl/mxv
	.byte	W02
	.byte		        100*seq_024_mvl/mxv
	.byte	W02
	.byte		        111*seq_024_mvl/mxv
	.byte	W02
	.byte		        118*seq_024_mvl/mxv
	.byte	W02
	.byte		        125*seq_024_mvl/mxv
	.byte	W56
	.byte	W02
	.byte		MOD   , 3
	.byte		VOL   , 27*seq_024_mvl/mxv
	.byte		PAN   , c_v-20
	.byte	W01
	.byte		N48   , Fn2 
	.byte	W02
	.byte		VOL   , 29*seq_024_mvl/mxv
	.byte	W02
	.byte		        31*seq_024_mvl/mxv
	.byte	W02
	.byte		        32*seq_024_mvl/mxv
	.byte	W02
	.byte		        34*seq_024_mvl/mxv
	.byte	W03
	.byte		        37*seq_024_mvl/mxv
	.byte	W02
	.byte		        40*seq_024_mvl/mxv
	.byte	W02
	.byte		        45*seq_024_mvl/mxv
	.byte	W02
	.byte		        50*seq_024_mvl/mxv
	.byte	W02
	.byte		        55*seq_024_mvl/mxv
	.byte	W02
	.byte		        60*seq_024_mvl/mxv
	.byte	W02
	.byte		        64*seq_024_mvl/mxv
	.byte	W02
	.byte		        72*seq_024_mvl/mxv
	.byte	W02
	.byte		        80*seq_024_mvl/mxv
	.byte	W02
	.byte		        90*seq_024_mvl/mxv
	.byte	W02
	.byte		        100*seq_024_mvl/mxv
	.byte	W02
	.byte		        111*seq_024_mvl/mxv
	.byte	W02
	.byte		        118*seq_024_mvl/mxv
	.byte	W02
	.byte		        125*seq_024_mvl/mxv
	.byte	W56
	.byte	W02
	.byte		VOICE , 94
	.byte		MOD   , 3
	.byte		VOL   , 98*seq_024_mvl/mxv
	.byte		PAN   , c_v+50
	.byte	W01
	.byte	PATT
	 .word	seq_024_3 + 0x15
	.byte	PATT
	 .word	seq_024_3 + 0x15
	.byte	PATT
	 .word	seq_024_3 + 0x15
	.byte	PATT
	 .word	seq_024_3 + 0x15
	.byte	PATT
	 .word	seq_024_3 + 0x15
	.byte	PATT
	 .word	seq_024_3 + 0x15
	.byte	PATT
	 .word	seq_024_3 + 0x15
	.byte		N48   , Ds2 , v056
	.byte	W02
	.byte		VOL   , 29*seq_024_mvl/mxv
	.byte	W02
	.byte		        31*seq_024_mvl/mxv
	.byte	W02
	.byte		        32*seq_024_mvl/mxv
	.byte	W02
	.byte		        34*seq_024_mvl/mxv
	.byte	W03
	.byte		        37*seq_024_mvl/mxv
	.byte	W02
	.byte		        38*seq_024_mvl/mxv
	.byte	W02
	.byte		        40*seq_024_mvl/mxv
	.byte	W02
	.byte		        42*seq_024_mvl/mxv
	.byte	W02
	.byte		        43*seq_024_mvl/mxv
	.byte	W02
	.byte		        45*seq_024_mvl/mxv
	.byte	W02
	.byte		        47*seq_024_mvl/mxv
	.byte	W02
	.byte		        49*seq_024_mvl/mxv
	.byte	W02
	.byte		        55*seq_024_mvl/mxv
	.byte	W02
	.byte		        62*seq_024_mvl/mxv
	.byte	W02
	.byte		        68*seq_024_mvl/mxv
	.byte	W02
	.byte		        75*seq_024_mvl/mxv
	.byte	W02
	.byte		        82*seq_024_mvl/mxv
	.byte	W02
	.byte		        89*seq_024_mvl/mxv
	.byte	W02
	.byte		        96*seq_024_mvl/mxv
	.byte	W02
	.byte		        103*seq_024_mvl/mxv
	.byte	W02
	.byte		        110*seq_024_mvl/mxv
	.byte	W02
	.byte		        117*seq_024_mvl/mxv
	.byte	W02
	.byte		        125*seq_024_mvl/mxv
	.byte	W48
	.byte		        27*seq_024_mvl/mxv
	.byte		PAN   , c_v+20
	.byte	W01
	.byte	PATT
	 .word	seq_024_3 + 0x1DA
	.byte	W96
	.byte		EOT   , Gs1 
	.byte		TIE   , As1 , v092
	.byte	W96
	.byte	W96
	.byte		EOT
	.byte	GOTO
	 .word	seq_024_3 + 0x214
	.byte	FINE

@*********************** Track 05 ***********************@

seq_024_4:
	.byte	KEYSH , seq_024_key+0
	.byte	W06
	.byte		VOICE , 24
	.byte		VOL   , 98*seq_024_mvl/mxv
	.byte		PAN   , c_v-63
	.byte	W01
	.byte		MODT  , mod_pan
	.byte	W28
	.byte		VOL   , 0*seq_024_mvl/mxv
	.byte	W01
	.byte		TIE   , As3 , v048
	.byte	W09
	.byte		VOL   , 0*seq_024_mvl/mxv
	.byte	W02
	.byte		        1*seq_024_mvl/mxv
	.byte	W03
	.byte		        2*seq_024_mvl/mxv
	.byte	W02
	.byte		        4*seq_024_mvl/mxv
	.byte	W03
	.byte		        7*seq_024_mvl/mxv
	.byte	W02
	.byte		        9*seq_024_mvl/mxv
	.byte	W02
	.byte		        10*seq_024_mvl/mxv
	.byte	W03
	.byte		        13*seq_024_mvl/mxv
	.byte	W02
	.byte		        15*seq_024_mvl/mxv
	.byte	W03
	.byte		        17*seq_024_mvl/mxv
	.byte	W02
	.byte		        19*seq_024_mvl/mxv
	.byte	W03
	.byte		        22*seq_024_mvl/mxv
	.byte	W02
	.byte		        23*seq_024_mvl/mxv
	.byte	W02
	.byte		        25*seq_024_mvl/mxv
	.byte	W03
	.byte		        28*seq_024_mvl/mxv
	.byte	W02
	.byte		        29*seq_024_mvl/mxv
	.byte	W03
	.byte		        32*seq_024_mvl/mxv
	.byte	W02
	.byte		        34*seq_024_mvl/mxv
	.byte	W03
	.byte		        36*seq_024_mvl/mxv
	.byte	W02
	.byte		        38*seq_024_mvl/mxv
	.byte	W02
	.byte		        40*seq_024_mvl/mxv
	.byte	W03
	.byte		        42*seq_024_mvl/mxv
	.byte	W02
	.byte		        44*seq_024_mvl/mxv
	.byte	W03
	.byte		        47*seq_024_mvl/mxv
	.byte	W02
	.byte		        49*seq_024_mvl/mxv
	.byte	W03
	.byte		        51*seq_024_mvl/mxv
	.byte	W02
	.byte		        53*seq_024_mvl/mxv
	.byte	W02
	.byte		        55*seq_024_mvl/mxv
	.byte	W03
	.byte		        57*seq_024_mvl/mxv
	.byte	W02
	.byte		        59*seq_024_mvl/mxv
	.byte	W03
	.byte		        62*seq_024_mvl/mxv
	.byte	W02
	.byte		        62*seq_024_mvl/mxv
	.byte	W03
	.byte		        65*seq_024_mvl/mxv
	.byte	W02
	.byte		        67*seq_024_mvl/mxv
	.byte	W02
	.byte		        68*seq_024_mvl/mxv
	.byte	W03
	.byte		        71*seq_024_mvl/mxv
	.byte	W02
	.byte		        73*seq_024_mvl/mxv
	.byte	W03
	.byte		        78*seq_024_mvl/mxv
	.byte	W02
	.byte		        80*seq_024_mvl/mxv
	.byte	W03
	.byte		        82*seq_024_mvl/mxv
	.byte	W02
	.byte		        84*seq_024_mvl/mxv
	.byte	W03
	.byte		        86*seq_024_mvl/mxv
	.byte	W02
	.byte		        87*seq_024_mvl/mxv
	.byte	W03
	.byte		        89*seq_024_mvl/mxv
	.byte	W02
	.byte		        91*seq_024_mvl/mxv
	.byte	W05
	.byte		        89*seq_024_mvl/mxv
	.byte	W02
	.byte		        88*seq_024_mvl/mxv
	.byte	W03
	.byte		        86*seq_024_mvl/mxv
	.byte	W02
	.byte		        84*seq_024_mvl/mxv
	.byte	W03
	.byte		        82*seq_024_mvl/mxv
	.byte	W02
	.byte		        80*seq_024_mvl/mxv
	.byte	W02
	.byte		        79*seq_024_mvl/mxv
	.byte	W03
	.byte		        77*seq_024_mvl/mxv
	.byte	W02
	.byte		        75*seq_024_mvl/mxv
	.byte	W03
	.byte		        73*seq_024_mvl/mxv
	.byte	W02
	.byte		        71*seq_024_mvl/mxv
	.byte	W03
	.byte		        65*seq_024_mvl/mxv
	.byte	W02
	.byte		        61*seq_024_mvl/mxv
	.byte	W02
	.byte		        55*seq_024_mvl/mxv
	.byte	W03
	.byte		        47*seq_024_mvl/mxv
	.byte	W02
	.byte		        41*seq_024_mvl/mxv
	.byte	W03
	.byte		        33*seq_024_mvl/mxv
	.byte	W02
	.byte		        27*seq_024_mvl/mxv
	.byte	W03
	.byte		        18*seq_024_mvl/mxv
	.byte	W02
	.byte		        13*seq_024_mvl/mxv
	.byte	W24
	.byte	W01
	.byte		EOT
	.byte	W96
	.byte	W96
	.byte	W92
	.byte	W03
	.byte		MOD   , 3
	.byte	W01
	.byte	PEND
	.byte	W32
	.byte	W03
	.byte		VOL   , 0*seq_024_mvl/mxv
	.byte	W01
	.byte		N60   , Gn4 , v120
	.byte	W01
	.byte		VOL   , 1*seq_024_mvl/mxv
	.byte	W01
	.byte		        2*seq_024_mvl/mxv
	.byte	W01
	.byte		        3*seq_024_mvl/mxv
	.byte	W01
	.byte		        5*seq_024_mvl/mxv
	.byte	W01
	.byte		        6*seq_024_mvl/mxv
	.byte	W01
	.byte		        7*seq_024_mvl/mxv
	.byte	W01
	.byte		        9*seq_024_mvl/mxv
	.byte	W01
	.byte		        10*seq_024_mvl/mxv
	.byte	W01
	.byte		        11*seq_024_mvl/mxv
	.byte	W01
	.byte		        13*seq_024_mvl/mxv
	.byte	W01
	.byte		        14*seq_024_mvl/mxv
	.byte	W01
	.byte		        15*seq_024_mvl/mxv
	.byte	W01
	.byte		        17*seq_024_mvl/mxv
	.byte	W01
	.byte		        18*seq_024_mvl/mxv
	.byte	W01
	.byte		        19*seq_024_mvl/mxv
	.byte	W01
	.byte		        21*seq_024_mvl/mxv
	.byte	W03
	.byte		        26*seq_024_mvl/mxv
	.byte	W02
	.byte		        29*seq_024_mvl/mxv
	.byte	W02
	.byte		        32*seq_024_mvl/mxv
	.byte	W02
	.byte		        35*seq_024_mvl/mxv
	.byte	W02
	.byte		        38*seq_024_mvl/mxv
	.byte	W02
	.byte		        40*seq_024_mvl/mxv
	.byte	W02
	.byte		        43*seq_024_mvl/mxv
	.byte	W02
	.byte		        46*seq_024_mvl/mxv
	.byte	W02
	.byte		        49*seq_024_mvl/mxv
	.byte	W02
	.byte		        52*seq_024_mvl/mxv
	.byte	W02
	.byte		        49*seq_024_mvl/mxv
	.byte	W02
	.byte		        47*seq_024_mvl/mxv
	.byte	W02
	.byte		        44*seq_024_mvl/mxv
	.byte	W02
	.byte		        41*seq_024_mvl/mxv
	.byte	W02
	.byte		        37*seq_024_mvl/mxv
	.byte	W02
	.byte		        33*seq_024_mvl/mxv
	.byte	W02
	.byte		        28*seq_024_mvl/mxv
	.byte	W02
	.byte		        24*seq_024_mvl/mxv
	.byte	W02
	.byte		        19*seq_024_mvl/mxv
	.byte	W02
	.byte		        13*seq_024_mvl/mxv
	.byte	W03
	.byte	PEND
	.byte	W96
	.byte	W96
	.byte	PATT
	 .word	seq_024_4 + 0x9B
	.byte	W32
	.byte	W03
	.byte		VOL   , 0*seq_024_mvl/mxv
	.byte	W01
	.byte		N60   , En4 , v120
	.byte	W01
	.byte		VOL   , 1*seq_024_mvl/mxv
	.byte	W01
	.byte		        2*seq_024_mvl/mxv
	.byte	W01
	.byte		        3*seq_024_mvl/mxv
	.byte	W01
	.byte		        5*seq_024_mvl/mxv
	.byte	W01
	.byte		        6*seq_024_mvl/mxv
	.byte	W01
	.byte		        7*seq_024_mvl/mxv
	.byte	W01
	.byte		        9*seq_024_mvl/mxv
	.byte	W01
	.byte		        10*seq_024_mvl/mxv
	.byte	W01
	.byte		        11*seq_024_mvl/mxv
	.byte	W01
	.byte		        13*seq_024_mvl/mxv
	.byte	W01
	.byte		        14*seq_024_mvl/mxv
	.byte	W01
	.byte		        15*seq_024_mvl/mxv
	.byte	W01
	.byte		        17*seq_024_mvl/mxv
	.byte	W01
	.byte		        18*seq_024_mvl/mxv
	.byte	W01
	.byte		        19*seq_024_mvl/mxv
	.byte	W01
	.byte		        21*seq_024_mvl/mxv
	.byte	W03
	.byte		        26*seq_024_mvl/mxv
	.byte	W02
	.byte		        29*seq_024_mvl/mxv
	.byte	W02
	.byte		        32*seq_024_mvl/mxv
	.byte	W02
	.byte		        35*seq_024_mvl/mxv
	.byte	W02
	.byte		        38*seq_024_mvl/mxv
	.byte	W02
	.byte		        40*seq_024_mvl/mxv
	.byte	W02
	.byte		        43*seq_024_mvl/mxv
	.byte	W02
	.byte		        46*seq_024_mvl/mxv
	.byte	W02
	.byte		        49*seq_024_mvl/mxv
	.byte	W02
	.byte		        52*seq_024_mvl/mxv
	.byte	W02
	.byte		        49*seq_024_mvl/mxv
	.byte	W02
	.byte		        47*seq_024_mvl/mxv
	.byte	W02
	.byte		        44*seq_024_mvl/mxv
	.byte	W02
	.byte		        41*seq_024_mvl/mxv
	.byte	W02
	.byte		        37*seq_024_mvl/mxv
	.byte	W02
	.byte		        33*seq_024_mvl/mxv
	.byte	W02
	.byte		        28*seq_024_mvl/mxv
	.byte	W02
	.byte		        24*seq_024_mvl/mxv
	.byte	W02
	.byte		        19*seq_024_mvl/mxv
	.byte	W02
	.byte		        13*seq_024_mvl/mxv
	.byte	W02
	.byte		VOICE , 87
	.byte		VOL   , 63*seq_024_mvl/mxv
	.byte		PAN   , c_v+0
	.byte	W01
	.byte	W96
	.byte	W96
	.byte	W96
	.byte	W96
	.byte	W96
	.byte	W96
	.byte	W96
	.byte	W92
	.byte	W03
	.byte		VOICE , 70
	.byte		VOL   , 63*seq_024_mvl/mxv
	.byte		PAN   , c_v+0
	.byte	W01
	.byte	W12
	.byte		N03   , As3 , v127
	.byte	W06
	.byte		        As3 , v020
	.byte	W18
	.byte		        As3 , v127
	.byte	W06
	.byte		        As3 , v020
	.byte	W18
	.byte		        As3 , v127
	.byte	W06
	.byte		        As3 , v020
	.byte	W18
	.byte		        As3 , v127
	.byte	W06
	.byte		        As3 , v020
	.byte	W06
	.byte	PEND
	.byte	PATT
	 .word	seq_024_4 + 0x164
	.byte	PATT
	 .word	seq_024_4 + 0x164
	.byte	PATT
	 .word	seq_024_4 + 0x164
	.byte	PATT
	 .word	seq_024_4 + 0x164
	.byte	PATT
	 .word	seq_024_4 + 0x164
	.byte	PATT
	 .word	seq_024_4 + 0x164
	.byte	PATT
	 .word	seq_024_4 + 0x164
	.byte	W12
	.byte		N03   , Cn4 , v127
	.byte	W06
	.byte		        Cn4 , v020
	.byte	W18
	.byte		        Cn4 , v127
	.byte	W06
	.byte		        Cn4 , v020
	.byte	W18
	.byte		        Cn4 , v127
	.byte	W06
	.byte		        Cn4 , v020
	.byte	W18
	.byte		        Cn4 , v127
	.byte	W06
	.byte		        Cn4 , v020
	.byte	W06
	.byte	PEND
	.byte	PATT
	 .word	seq_024_4 + 0x1A2
	.byte	PATT
	 .word	seq_024_4 + 0x1A2
	.byte	PATT
	 .word	seq_024_4 + 0x164
	.byte	PATT
	 .word	seq_024_4 + 0x1A2
	.byte	PATT
	 .word	seq_024_4 + 0x1A2
	.byte	W96
	.byte	W96
	.byte	W92
	.byte	W03
	.byte		VOICE , 24
	.byte		MOD   , 3
	.byte		VOL   , 98*seq_024_mvl/mxv
	.byte		PAN   , c_v-63
	.byte	W01
	.byte	PEND
	.byte	PATT
	 .word	seq_024_4 + 0xA1
	.byte	PATT
	 .word	seq_024_4 + 0x9B
	.byte	PATT
	 .word	seq_024_4 + 0xA1
	.byte	PATT
	 .word	seq_024_4 + 0x1D8
	.byte	PATT
	 .word	seq_024_4 + 0xA1
	.byte	W96
	.byte	W30
	.byte		VOICE , 70
	.byte	W01
	.byte		VOL   , 54*seq_024_mvl/mxv
	.byte	W01
	.byte		PAN   , c_v+0
	.byte	W64
	.byte	PATT
	 .word	seq_024_4 + 0x164
	.byte	PATT
	 .word	seq_024_4 + 0x164
	.byte	PATT
	 .word	seq_024_4 + 0x164
	.byte	PATT
	 .word	seq_024_4 + 0x164
	.byte	GOTO
	 .word	seq_024_4 + 0x18E
	.byte	FINE

@*********************** Track 06 ***********************@

seq_024_5:
	.byte	KEYSH , seq_024_key+0
	.byte	W07
	.byte		VOICE , 24
	.byte		VOL   , 98*seq_024_mvl/mxv
	.byte	W01
	.byte		PAN   , c_v+63
	.byte		MODT  , mod_pan
	.byte	W24
	.byte	W03
	.byte		VOL   , 0*seq_024_mvl/mxv
	.byte	W01
	.byte		TIE   , Fn3 , v048
	.byte	W09
	.byte		VOL   , 0*seq_024_mvl/mxv
	.byte	W02
	.byte		        1*seq_024_mvl/mxv
	.byte	W03
	.byte		        2*seq_024_mvl/mxv
	.byte	W02
	.byte		        4*seq_024_mvl/mxv
	.byte	W03
	.byte		        7*seq_024_mvl/mxv
	.byte	W02
	.byte		        9*seq_024_mvl/mxv
	.byte	W02
	.byte		        10*seq_024_mvl/mxv
	.byte	W03
	.byte		        13*seq_024_mvl/mxv
	.byte	W02
	.byte		        15*seq_024_mvl/mxv
	.byte	W03
	.byte		        17*seq_024_mvl/mxv
	.byte	W02
	.byte		        19*seq_024_mvl/mxv
	.byte	W03
	.byte		        22*seq_024_mvl/mxv
	.byte	W02
	.byte		        23*seq_024_mvl/mxv
	.byte	W02
	.byte		        25*seq_024_mvl/mxv
	.byte	W03
	.byte		        28*seq_024_mvl/mxv
	.byte	W02
	.byte		        29*seq_024_mvl/mxv
	.byte	W03
	.byte		        32*seq_024_mvl/mxv
	.byte	W02
	.byte		        34*seq_024_mvl/mxv
	.byte	W03
	.byte		        36*seq_024_mvl/mxv
	.byte	W02
	.byte		        38*seq_024_mvl/mxv
	.byte	W02
	.byte		        40*seq_024_mvl/mxv
	.byte	W03
	.byte		        42*seq_024_mvl/mxv
	.byte	W02
	.byte		        44*seq_024_mvl/mxv
	.byte	W03
	.byte		        47*seq_024_mvl/mxv
	.byte	W02
	.byte		        49*seq_024_mvl/mxv
	.byte	W03
	.byte		        51*seq_024_mvl/mxv
	.byte	W02
	.byte		        53*seq_024_mvl/mxv
	.byte	W02
	.byte		        55*seq_024_mvl/mxv
	.byte	W03
	.byte		        57*seq_024_mvl/mxv
	.byte	W02
	.byte		        59*seq_024_mvl/mxv
	.byte	W03
	.byte		        62*seq_024_mvl/mxv
	.byte	W02
	.byte		        62*seq_024_mvl/mxv
	.byte	W03
	.byte		        65*seq_024_mvl/mxv
	.byte	W02
	.byte		        67*seq_024_mvl/mxv
	.byte	W02
	.byte		        68*seq_024_mvl/mxv
	.byte	W03
	.byte		        71*seq_024_mvl/mxv
	.byte	W02
	.byte		        73*seq_024_mvl/mxv
	.byte	W03
	.byte		        78*seq_024_mvl/mxv
	.byte	W02
	.byte		        80*seq_024_mvl/mxv
	.byte	W03
	.byte		        82*seq_024_mvl/mxv
	.byte	W02
	.byte		        84*seq_024_mvl/mxv
	.byte	W03
	.byte		        86*seq_024_mvl/mxv
	.byte	W02
	.byte		        87*seq_024_mvl/mxv
	.byte	W03
	.byte		        89*seq_024_mvl/mxv
	.byte	W02
	.byte		        91*seq_024_mvl/mxv
	.byte	W05
	.byte		        89*seq_024_mvl/mxv
	.byte	W02
	.byte		        88*seq_024_mvl/mxv
	.byte	W03
	.byte		        86*seq_024_mvl/mxv
	.byte	W02
	.byte		        84*seq_024_mvl/mxv
	.byte	W03
	.byte		        82*seq_024_mvl/mxv
	.byte	W02
	.byte		        80*seq_024_mvl/mxv
	.byte	W02
	.byte		        79*seq_024_mvl/mxv
	.byte	W03
	.byte		        77*seq_024_mvl/mxv
	.byte	W02
	.byte		        75*seq_024_mvl/mxv
	.byte	W03
	.byte		        73*seq_024_mvl/mxv
	.byte	W02
	.byte		        71*seq_024_mvl/mxv
	.byte	W03
	.byte		        65*seq_024_mvl/mxv
	.byte	W02
	.byte		        61*seq_024_mvl/mxv
	.byte	W02
	.byte		        55*seq_024_mvl/mxv
	.byte	W03
	.byte		        47*seq_024_mvl/mxv
	.byte	W02
	.byte		        41*seq_024_mvl/mxv
	.byte	W03
	.byte		        33*seq_024_mvl/mxv
	.byte	W02
	.byte		        27*seq_024_mvl/mxv
	.byte	W03
	.byte		        18*seq_024_mvl/mxv
	.byte	W02
	.byte		        13*seq_024_mvl/mxv
	.byte	W24
	.byte	W01
	.byte		EOT
	.byte	W96
	.byte	W96
	.byte	W92
	.byte	W03
	.byte		MOD   , 3
	.byte	W01
	.byte	PEND
	.byte	W32
	.byte	W03
	.byte		VOL   , 0*seq_024_mvl/mxv
	.byte	W02
	.byte		        1*seq_024_mvl/mxv
	.byte	W01
	.byte		        2*seq_024_mvl/mxv
	.byte	W01
	.byte		        3*seq_024_mvl/mxv
	.byte	W01
	.byte		        5*seq_024_mvl/mxv
	.byte	W01
	.byte		        6*seq_024_mvl/mxv
	.byte	W01
	.byte		        7*seq_024_mvl/mxv
	.byte	W01
	.byte		        9*seq_024_mvl/mxv
	.byte	W01
	.byte		        10*seq_024_mvl/mxv
	.byte	W01
	.byte		        11*seq_024_mvl/mxv
	.byte	W01
	.byte		        13*seq_024_mvl/mxv
	.byte	W01
	.byte		        14*seq_024_mvl/mxv
	.byte	W01
	.byte		        15*seq_024_mvl/mxv
	.byte		N48   , Cs4 , v120
	.byte	W01
	.byte		VOL   , 17*seq_024_mvl/mxv
	.byte	W01
	.byte		        18*seq_024_mvl/mxv
	.byte	W01
	.byte		        19*seq_024_mvl/mxv
	.byte	W01
	.byte		        21*seq_024_mvl/mxv
	.byte	W03
	.byte		        26*seq_024_mvl/mxv
	.byte	W02
	.byte		        29*seq_024_mvl/mxv
	.byte	W02
	.byte		        32*seq_024_mvl/mxv
	.byte	W02
	.byte		        35*seq_024_mvl/mxv
	.byte	W02
	.byte		        38*seq_024_mvl/mxv
	.byte	W02
	.byte		        40*seq_024_mvl/mxv
	.byte	W02
	.byte		        43*seq_024_mvl/mxv
	.byte	W02
	.byte		        46*seq_024_mvl/mxv
	.byte	W02
	.byte		        49*seq_024_mvl/mxv
	.byte	W02
	.byte		        52*seq_024_mvl/mxv
	.byte	W02
	.byte		        49*seq_024_mvl/mxv
	.byte	W02
	.byte		        47*seq_024_mvl/mxv
	.byte	W02
	.byte		        44*seq_024_mvl/mxv
	.byte	W02
	.byte		        41*seq_024_mvl/mxv
	.byte	W02
	.byte		        37*seq_024_mvl/mxv
	.byte	W02
	.byte		        33*seq_024_mvl/mxv
	.byte	W02
	.byte		        28*seq_024_mvl/mxv
	.byte	W02
	.byte		        24*seq_024_mvl/mxv
	.byte	W02
	.byte		        19*seq_024_mvl/mxv
	.byte	W02
	.byte		        13*seq_024_mvl/mxv
	.byte	W03
	.byte	W96
	.byte	W96
	.byte	PATT
	 .word	seq_024_5 + 0x9C
	.byte	W32
	.byte	W03
	.byte		VOL   , 0*seq_024_mvl/mxv
	.byte	W02
	.byte		        1*seq_024_mvl/mxv
	.byte	W01
	.byte		        2*seq_024_mvl/mxv
	.byte	W01
	.byte		        3*seq_024_mvl/mxv
	.byte	W01
	.byte		        5*seq_024_mvl/mxv
	.byte	W01
	.byte		        6*seq_024_mvl/mxv
	.byte	W01
	.byte		        7*seq_024_mvl/mxv
	.byte	W01
	.byte		        9*seq_024_mvl/mxv
	.byte	W01
	.byte		        10*seq_024_mvl/mxv
	.byte	W01
	.byte		        11*seq_024_mvl/mxv
	.byte	W01
	.byte		        13*seq_024_mvl/mxv
	.byte	W01
	.byte		        14*seq_024_mvl/mxv
	.byte	W01
	.byte		        15*seq_024_mvl/mxv
	.byte		N48   , Cn4 , v120
	.byte	W01
	.byte		VOL   , 17*seq_024_mvl/mxv
	.byte	W01
	.byte		        18*seq_024_mvl/mxv
	.byte	W01
	.byte		        19*seq_024_mvl/mxv
	.byte	W01
	.byte		        21*seq_024_mvl/mxv
	.byte	W03
	.byte		        26*seq_024_mvl/mxv
	.byte	W02
	.byte		        29*seq_024_mvl/mxv
	.byte	W02
	.byte		        32*seq_024_mvl/mxv
	.byte	W02
	.byte		        35*seq_024_mvl/mxv
	.byte	W02
	.byte		        38*seq_024_mvl/mxv
	.byte	W02
	.byte		        40*seq_024_mvl/mxv
	.byte	W02
	.byte		        43*seq_024_mvl/mxv
	.byte	W02
	.byte		        46*seq_024_mvl/mxv
	.byte	W02
	.byte		        49*seq_024_mvl/mxv
	.byte	W02
	.byte		        52*seq_024_mvl/mxv
	.byte	W02
	.byte		        49*seq_024_mvl/mxv
	.byte	W02
	.byte		        47*seq_024_mvl/mxv
	.byte	W02
	.byte		        44*seq_024_mvl/mxv
	.byte	W02
	.byte		        41*seq_024_mvl/mxv
	.byte	W02
	.byte		        37*seq_024_mvl/mxv
	.byte	W02
	.byte		        33*seq_024_mvl/mxv
	.byte	W02
	.byte		        28*seq_024_mvl/mxv
	.byte	W02
	.byte		        24*seq_024_mvl/mxv
	.byte	W02
	.byte		        19*seq_024_mvl/mxv
	.byte	W02
	.byte		        13*seq_024_mvl/mxv
	.byte	W03
	.byte	W96
	.byte	W96
	.byte	W96
	.byte	W96
	.byte	W96
	.byte	W96
	.byte	W96
	.byte	W92
	.byte	W03
	.byte		VOICE , 71
	.byte		VOL   , 59*seq_024_mvl/mxv
	.byte		PAN   , c_v+0
	.byte	W01
	.byte	W12
	.byte		N03   , Ds3 , v127
	.byte	W06
	.byte		        Ds3 , v020
	.byte	W18
	.byte		        Ds3 , v127
	.byte	W06
	.byte		        Ds3 , v020
	.byte	W18
	.byte		        Ds3 , v127
	.byte	W06
	.byte		        Ds3 , v020
	.byte	W18
	.byte		        Ds3 , v127
	.byte	W06
	.byte		        Ds3 , v020
	.byte	W06
	.byte	PEND
	.byte	PATT
	 .word	seq_024_5 + 0x15B
	.byte	PATT
	 .word	seq_024_5 + 0x15B
	.byte	PATT
	 .word	seq_024_5 + 0x15B
	.byte	PATT
	 .word	seq_024_5 + 0x15B
	.byte	PATT
	 .word	seq_024_5 + 0x15B
	.byte	PATT
	 .word	seq_024_5 + 0x15B
	.byte	PATT
	 .word	seq_024_5 + 0x15B
	.byte	W12
	.byte		N03   , Gn3 , v127
	.byte	W06
	.byte		        Gn3 , v020
	.byte	W18
	.byte		        Gn3 , v127
	.byte	W06
	.byte		        Gn3 , v020
	.byte	W18
	.byte		        Gn3 , v127
	.byte	W06
	.byte		        Gn3 , v020
	.byte	W18
	.byte		        Gn3 , v127
	.byte	W06
	.byte		        Gn3 , v020
	.byte	W06
	.byte	PEND
	.byte	PATT
	 .word	seq_024_5 + 0x199
	.byte	PATT
	 .word	seq_024_5 + 0x199
	.byte	W12
	.byte		N03   , Fn3 , v127
	.byte	W06
	.byte		        Fn3 , v020
	.byte	W18
	.byte		        Fn3 , v127
	.byte	W06
	.byte		        Fn3 , v020
	.byte	W18
	.byte		        Fn3 , v127
	.byte	W06
	.byte		        Fn3 , v020
	.byte	W18
	.byte		        Fn3 , v127
	.byte	W06
	.byte		        Fn3 , v020
	.byte	W06
	.byte	PATT
	 .word	seq_024_5 + 0x199
	.byte	PATT
	 .word	seq_024_5 + 0x199
	.byte	W96
	.byte	W96
	.byte	W92
	.byte	W03
	.byte		VOICE , 24
	.byte		MOD   , 3
	.byte		VOL   , 98*seq_024_mvl/mxv
	.byte		PAN   , c_v+63
	.byte	W01
	.byte	PEND
	.byte	W32
	.byte	W03
	.byte		VOL   , 0*seq_024_mvl/mxv
	.byte	W01
	.byte		N60   , Ds4 , v120
	.byte	W01
	.byte		VOL   , 1*seq_024_mvl/mxv
	.byte	W01
	.byte		        2*seq_024_mvl/mxv
	.byte	W01
	.byte		        3*seq_024_mvl/mxv
	.byte	W01
	.byte		        5*seq_024_mvl/mxv
	.byte	W01
	.byte		        6*seq_024_mvl/mxv
	.byte	W01
	.byte		        7*seq_024_mvl/mxv
	.byte	W01
	.byte		        9*seq_024_mvl/mxv
	.byte	W01
	.byte		        10*seq_024_mvl/mxv
	.byte	W01
	.byte		        11*seq_024_mvl/mxv
	.byte	W01
	.byte		        13*seq_024_mvl/mxv
	.byte	W01
	.byte		        14*seq_024_mvl/mxv
	.byte	W01
	.byte		        15*seq_024_mvl/mxv
	.byte	W01
	.byte		        17*seq_024_mvl/mxv
	.byte	W01
	.byte		        18*seq_024_mvl/mxv
	.byte	W01
	.byte		        19*seq_024_mvl/mxv
	.byte	W01
	.byte		        21*seq_024_mvl/mxv
	.byte	W03
	.byte		        26*seq_024_mvl/mxv
	.byte	W02
	.byte		        29*seq_024_mvl/mxv
	.byte	W02
	.byte		        32*seq_024_mvl/mxv
	.byte	W02
	.byte		        35*seq_024_mvl/mxv
	.byte	W02
	.byte		        38*seq_024_mvl/mxv
	.byte	W02
	.byte		        40*seq_024_mvl/mxv
	.byte	W02
	.byte		        43*seq_024_mvl/mxv
	.byte	W02
	.byte		        46*seq_024_mvl/mxv
	.byte	W02
	.byte		        49*seq_024_mvl/mxv
	.byte	W02
	.byte		        52*seq_024_mvl/mxv
	.byte	W02
	.byte		        49*seq_024_mvl/mxv
	.byte	W02
	.byte		        47*seq_024_mvl/mxv
	.byte	W02
	.byte		        44*seq_024_mvl/mxv
	.byte	W02
	.byte		        41*seq_024_mvl/mxv
	.byte	W02
	.byte		        37*seq_024_mvl/mxv
	.byte	W02
	.byte		        33*seq_024_mvl/mxv
	.byte	W02
	.byte		        28*seq_024_mvl/mxv
	.byte	W02
	.byte		        24*seq_024_mvl/mxv
	.byte	W02
	.byte		        19*seq_024_mvl/mxv
	.byte	W02
	.byte		        13*seq_024_mvl/mxv
	.byte	W03
	.byte	PEND
	.byte	PATT
	 .word	seq_024_5 + 0x9C
	.byte	PATT
	 .word	seq_024_5 + 0x1F0
	.byte	PATT
	 .word	seq_024_5 + 0x1E4
	.byte	PATT
	 .word	seq_024_5 + 0x1F0
	.byte	W96
	.byte	W36
	.byte		VOICE , 71
	.byte	W01
	.byte		VOL   , 54*seq_024_mvl/mxv
	.byte	W01
	.byte		PAN   , c_v+0
	.byte	W56
	.byte	W02
	.byte	PATT
	 .word	seq_024_5 + 0x15B
	.byte	PATT
	 .word	seq_024_5 + 0x15B
	.byte	PATT
	 .word	seq_024_5 + 0x15B
	.byte	PATT
	 .word	seq_024_5 + 0x15B
	.byte	GOTO
	 .word	seq_024_5 + 0x185
	.byte	FINE

@*********************** Track 07 ***********************@

seq_024_6:
	.byte	KEYSH , seq_024_key+0
	.byte	W08
	.byte		VOICE , 9
	.byte	W02
	.byte		MOD   , 0
	.byte		VOL   , 118*seq_024_mvl/mxv
	.byte		PAN   , c_v+0
	.byte	W01
	.byte		MODT  , mod_pan
	.byte	W24
	.byte	W01
	.byte	W96
	.byte	W96
	.byte		N12   , Gs2 , v092
	.byte	W12
	.byte		        Ds3 , v072
	.byte	W12
	.byte		        Fn3 , v036
	.byte	W12
	.byte		N06   , As3 , v092
	.byte	W06
	.byte		        As3 , v036
	.byte	W06
	.byte		        As3 , v016
	.byte	W48
	.byte	PEND
	.byte		N12   , As2 , v092
	.byte	W12
	.byte		        Dn3 , v072
	.byte	W12
	.byte		        Fn3 , v036
	.byte	W12
	.byte		N06   , As3 , v092
	.byte	W06
	.byte		        As3 , v036
	.byte	W06
	.byte		        As3 , v016
	.byte	W48
	.byte	PEND
	.byte		N12   , Gn2 , v092
	.byte	W12
	.byte		        Ds3 , v072
	.byte	W12
	.byte		        Fn3 , v036
	.byte	W12
	.byte		N06   , As3 , v092
	.byte	W06
	.byte		        As3 , v036
	.byte	W06
	.byte		        As3 , v016
	.byte	W36
	.byte		N12   , As2 , v036
	.byte	W12
	.byte		        Cn3 , v092
	.byte	W12
	.byte		        Fn3 , v072
	.byte	W12
	.byte		        Ds3 , v036
	.byte	W12
	.byte		        As2 
	.byte	W48
	.byte		        Ds2 , v092
	.byte	W12
	.byte	PATT
	 .word	seq_024_6 + 0x13
	.byte	PATT
	 .word	seq_024_6 + 0x28
	.byte		N12   , Gn2 , v092
	.byte	W12
	.byte		        Ds3 , v072
	.byte	W12
	.byte		        Fn3 , v036
	.byte	W12
	.byte		N06   , As3 , v092
	.byte	W06
	.byte		        As3 , v036
	.byte	W06
	.byte		        As3 , v016
	.byte	W24
	.byte		        As2 , v076
	.byte	W06
	.byte		        As2 , v036
	.byte	W18
	.byte		N12   , Cn3 , v092
	.byte	W12
	.byte		N06   , Cn4 , v088
	.byte	W06
	.byte		        Cn4 , v036
	.byte	W06
	.byte		N12   , Fn3 , v052
	.byte	W12
	.byte		        En3 , v072
	.byte	W36
	.byte		N24   , Gn2 , v056
	.byte	W24
	.byte		N12   , Gs2 , v116
	.byte	W96
	.byte		        As2 
	.byte	W96
	.byte		        Cn3 
	.byte	W96
	.byte		        Gn2 
	.byte	W96
	.byte		        Gs2 
	.byte	W96
	.byte		        Gn2 
	.byte	W96
	.byte		        Fn2 
	.byte	W96
	.byte		        Fn3 , v120
	.byte	W02
	.byte		VOL   , 108*seq_024_mvl/mxv
	.byte		N03   , Gn3 , v036
	.byte	W02
	.byte		VOL   , 108*seq_024_mvl/mxv
	.byte		N03   , An3 , v028
	.byte	W02
	.byte		VOL   , 107*seq_024_mvl/mxv
	.byte		N06   , Cn4 , v068
	.byte	W02
	.byte		VOL   , 106*seq_024_mvl/mxv
	.byte	W02
	.byte		        105*seq_024_mvl/mxv
	.byte	W02
	.byte		        101*seq_024_mvl/mxv
	.byte	W02
	.byte		        98*seq_024_mvl/mxv
	.byte	W02
	.byte		        94*seq_024_mvl/mxv
	.byte	W02
	.byte		        91*seq_024_mvl/mxv
	.byte	W02
	.byte		        87*seq_024_mvl/mxv
	.byte	W02
	.byte		        84*seq_024_mvl/mxv
	.byte	W02
	.byte		        75*seq_024_mvl/mxv
	.byte	W01
	.byte		        71*seq_024_mvl/mxv
	.byte	W02
	.byte		        59*seq_024_mvl/mxv
	.byte	W02
	.byte		        46*seq_024_mvl/mxv
	.byte	W02
	.byte		        32*seq_024_mvl/mxv
	.byte	W02
	.byte		        19*seq_024_mvl/mxv
	.byte	W02
	.byte		        6*seq_024_mvl/mxv
	.byte	W60
	.byte		        118*seq_024_mvl/mxv
	.byte	W01
	.byte		N06   , Gs2 , v100
	.byte	W12
	.byte		        Fn3 , v080
	.byte	W12
	.byte		        Ds3 , v048
	.byte	W12
	.byte		        As3 , v100
	.byte	W06
	.byte		        As3 , v048
	.byte	W54
	.byte	PEND
	.byte	PATT
	 .word	seq_024_6 + 0xE3
	.byte		N06   , Gn2 , v100
	.byte	W12
	.byte		        Fn3 , v080
	.byte	W12
	.byte		        Ds3 , v048
	.byte	W12
	.byte		        As3 , v100
	.byte	W06
	.byte		        As3 , v048
	.byte	W42
	.byte		        Gs3 , v100
	.byte	W06
	.byte		        Gs3 , v048
	.byte	W06
	.byte		        Gn2 , v100
	.byte	W12
	.byte		        Gn3 
	.byte	W06
	.byte		        Gn3 , v048
	.byte	W18
	.byte		N12   , Fn3 , v060
	.byte	W24
	.byte		        Ds3 , v080
	.byte	W12
	.byte		N24   , Gn2 , v068
	.byte	W24
	.byte		N12   , Gs2 , v100
	.byte	W12
	.byte		N06   , Fn3 , v080
	.byte	W12
	.byte		        Ds3 , v048
	.byte	W12
	.byte		        As3 , v100
	.byte	W60
	.byte	PEND
	.byte	PATT
	 .word	seq_024_6 + 0x122
	.byte		N12   , Gn2 , v100
	.byte	W12
	.byte		N06   , Fn3 , v080
	.byte	W12
	.byte		        Ds3 , v048
	.byte	W12
	.byte		        As3 , v100
	.byte	W12
	.byte		        Gn2 , v048
	.byte	W12
	.byte		        As2 
	.byte	W24
	.byte		        Gs3 , v096
	.byte	W12
	.byte		N12   , Gn2 , v100
	.byte	W12
	.byte		N06   , Gn3 , v080
	.byte	W24
	.byte		        Fn3 , v100
	.byte	W12
	.byte		        Gn2 , v048
	.byte	W12
	.byte		        Ds3 , v096
	.byte	W36
	.byte		N12   , Gs2 , v100
	.byte	W12
	.byte		N06   , Cn4 , v080
	.byte	W12
	.byte		        Fn3 , v048
	.byte	W12
	.byte		        Gs2 , v072
	.byte	W24
	.byte		        Fn3 , v048
	.byte	W12
	.byte		        Gs2 , v072
	.byte	W24
	.byte	PEND
	.byte		N12   , As2 , v100
	.byte	W12
	.byte		N06   , Cn4 , v080
	.byte	W12
	.byte		        Fn3 , v048
	.byte	W12
	.byte		        As2 , v072
	.byte	W24
	.byte		        Fn3 , v048
	.byte	W12
	.byte		        As2 , v072
	.byte	W24
	.byte		N12   , Cn3 , v100
	.byte	W12
	.byte		N06   , Cn4 , v080
	.byte	W12
	.byte		        Fn3 , v048
	.byte	W12
	.byte		        Cn3 , v072
	.byte	W24
	.byte		        Fn3 , v048
	.byte	W12
	.byte		        Cn3 , v072
	.byte	W24
	.byte		N12   , As2 , v100
	.byte	W12
	.byte		N06   , Gn3 
	.byte	W12
	.byte		        Fn3 , v080
	.byte	W12
	.byte		        As2 , v072
	.byte	W24
	.byte		        Fn3 , v100
	.byte	W12
	.byte		        As2 , v072
	.byte	W24
	.byte	PATT
	 .word	seq_024_6 + 0x15D
	.byte		N12   , Gn2 , v100
	.byte	W12
	.byte		N06   , Cn4 , v080
	.byte	W12
	.byte		        Fn3 , v048
	.byte	W12
	.byte		        Gn2 , v072
	.byte	W24
	.byte		        Fn3 , v048
	.byte	W12
	.byte		        Gn2 , v072
	.byte	W24
	.byte	W96
	.byte	W96
	.byte	PATT
	 .word	seq_024_6 + 0x13
	.byte	PATT
	 .word	seq_024_6 + 0x13
	.byte		N12   , Gn2 , v092
	.byte	W12
	.byte		        Ds3 , v072
	.byte	W12
	.byte		        Fn3 , v036
	.byte	W12
	.byte		N06   , As3 , v092
	.byte	W06
	.byte		        As3 , v036
	.byte	W06
	.byte		        As3 , v016
	.byte	W48
	.byte	PEND
	.byte	PATT
	 .word	seq_024_6 + 0x1D2
	.byte	PATT
	 .word	seq_024_6 + 0x13
	.byte	PATT
	 .word	seq_024_6 + 0x13
	.byte	PATT
	 .word	seq_024_6 + 0x1D2
	.byte		N12   , Gn2 , v092
	.byte	W12
	.byte		        Fn3 , v072
	.byte	W12
	.byte		        Ds3 , v036
	.byte	W12
	.byte		        As2 , v052
	.byte	W60
	.byte		N06   , Gs2 , v092
	.byte	W12
	.byte		        Fn3 , v072
	.byte	W12
	.byte		        Ds3 , v036
	.byte	W12
	.byte		        As3 , v092
	.byte	W06
	.byte		        As3 , v036
	.byte	W54
	.byte	PEND
	.byte	PATT
	 .word	seq_024_6 + 0x208
	.byte		N06   , Gn2 , v092
	.byte	W12
	.byte		        Fn3 , v072
	.byte	W12
	.byte		        Ds3 , v036
	.byte	W12
	.byte		        As3 , v092
	.byte	W06
	.byte		        As3 , v036
	.byte	W42
	.byte		        Gs3 , v092
	.byte	W06
	.byte		        Gs3 , v036
	.byte	W06
	.byte		        Gn2 , v092
	.byte	W12
	.byte		        Gn3 
	.byte	W06
	.byte		        Gn3 , v036
	.byte	W18
	.byte		N12   , Fn3 , v052
	.byte	W24
	.byte		        Ds3 , v072
	.byte	W12
	.byte		N24   , Gn2 , v056
	.byte	W24
	.byte	GOTO
	 .word	seq_024_6 + 0x122
	.byte	FINE

@*********************** Track 08 ***********************@

seq_024_7:
	.byte	KEYSH , seq_024_key+0
	.byte	W11
	.byte		VOICE , 38
	.byte		VOL   , 125*seq_024_mvl/mxv
	.byte	W01
	.byte		PAN   , c_v+0
	.byte	W24
	.byte	W96
	.byte	W96
	.byte	W96
	.byte	W96
	.byte	W96
	.byte	W96
	.byte	W96
	.byte	W96
	.byte	W96
	.byte	W96
	.byte		N06   , Gs1 , v120
	.byte	W06
	.byte		N04   , Gs1 , v052
	.byte	W06
	.byte		N06   , Gs1 , v100
	.byte	W06
	.byte		N03   , Gs1 , v012
	.byte	W06
	.byte		N04   , Gs1 , v120
	.byte	W06
	.byte		N03   , Gs1 , v012
	.byte	W06
	.byte		N06   , Gs1 , v100
	.byte	W06
	.byte		N04   , Gs1 , v052
	.byte	W06
	.byte		        Gs1 , v120
	.byte	W06
	.byte		N03   , Gs1 , v012
	.byte	W06
	.byte		N06   , Gs1 , v100
	.byte	W06
	.byte		N04   , Gs1 , v052
	.byte	W06
	.byte		        Gs1 , v120
	.byte	W06
	.byte		N03   , Gs1 , v012
	.byte	W06
	.byte		N06   , Gs1 , v100
	.byte	W06
	.byte		N04   , Gs1 , v052
	.byte	W06
	.byte	PEND
	.byte		N06   , As1 , v120
	.byte	W06
	.byte		N04   , As1 , v052
	.byte	W06
	.byte		N06   , As1 , v100
	.byte	W06
	.byte		N03   , As1 , v012
	.byte	W06
	.byte		N04   , As1 , v120
	.byte	W06
	.byte		N03   , As1 , v012
	.byte	W06
	.byte		N06   , As1 , v100
	.byte	W06
	.byte		N04   , As1 , v052
	.byte	W06
	.byte		        As1 , v120
	.byte	W06
	.byte		N03   , As1 , v012
	.byte	W06
	.byte		N06   , As1 , v100
	.byte	W06
	.byte		N04   , As1 , v052
	.byte	W06
	.byte		        As1 , v120
	.byte	W06
	.byte		N03   , As1 , v012
	.byte	W06
	.byte		N06   , As1 , v100
	.byte	W06
	.byte		N04   , As1 , v052
	.byte	W06
	.byte		N06   , Cn2 , v120
	.byte	W06
	.byte		N04   , Cn2 , v052
	.byte	W06
	.byte		N06   , Cn2 , v100
	.byte	W06
	.byte		N03   , Cn2 , v012
	.byte	W06
	.byte		N04   , Cn2 , v120
	.byte	W06
	.byte		N03   , Cn2 , v012
	.byte	W06
	.byte		N06   , Cn2 , v100
	.byte	W06
	.byte		N04   , Cn2 , v052
	.byte	W06
	.byte		        Cn2 , v120
	.byte	W06
	.byte		N03   , Cn2 , v012
	.byte	W06
	.byte		N06   , Cn2 , v100
	.byte	W06
	.byte		N04   , Cn2 , v052
	.byte	W06
	.byte		        Cn2 , v120
	.byte	W06
	.byte		N03   , Cn2 , v012
	.byte	W06
	.byte		N06   , Cn2 , v100
	.byte	W06
	.byte		N04   , Cn2 , v052
	.byte	W06
	.byte		N06   , Gn1 , v120
	.byte	W06
	.byte		N04   , Gn1 , v052
	.byte	W06
	.byte		N06   , Gn1 , v100
	.byte	W06
	.byte		N03   , Gn1 , v012
	.byte	W06
	.byte		N04   , Gn1 , v120
	.byte	W06
	.byte		N03   , Gn1 , v012
	.byte	W06
	.byte		N06   , Gn1 , v100
	.byte	W06
	.byte		N04   , Gn1 , v052
	.byte	W06
	.byte		        Gn1 , v120
	.byte	W06
	.byte		N03   , Gn1 , v012
	.byte	W06
	.byte		N06   , Gn1 , v100
	.byte	W06
	.byte		N04   , Gn1 , v052
	.byte	W06
	.byte		        Gn1 , v120
	.byte	W06
	.byte		N03   , Gn1 , v012
	.byte	W06
	.byte		N06   , Gn1 , v100
	.byte	W06
	.byte		N04   , Gn1 , v052
	.byte	W05
	.byte		VOICE , 38
	.byte		MOD   , 0
	.byte		VOL   , 108*seq_024_mvl/mxv
	.byte		PAN   , c_v+0
	.byte	W01
	.byte	PATT
	 .word	seq_024_7 + 0x15
	.byte		N06   , Gn1 , v120
	.byte	W06
	.byte		N04   , Gn1 , v052
	.byte	W06
	.byte		N06   , Gn1 , v100
	.byte	W06
	.byte		N03   , Gn1 , v012
	.byte	W06
	.byte		N04   , Gn1 , v120
	.byte	W06
	.byte		N03   , Gn1 , v012
	.byte	W06
	.byte		N06   , Gn1 , v100
	.byte	W06
	.byte		N04   , Gn1 , v052
	.byte	W06
	.byte		        Gn1 , v120
	.byte	W06
	.byte		N03   , Gn1 , v012
	.byte	W06
	.byte		N06   , Gn1 , v100
	.byte	W06
	.byte		N04   , Gn1 , v052
	.byte	W06
	.byte		        Gn1 , v120
	.byte	W06
	.byte		N03   , Gn1 , v012
	.byte	W06
	.byte		N06   , Gn1 , v100
	.byte	W06
	.byte		N04   , Gn1 , v052
	.byte	W06
	.byte		N06   , Fn1 , v120
	.byte	W06
	.byte		N04   , Fn1 , v052
	.byte	W06
	.byte		N06   , Fn1 , v100
	.byte	W06
	.byte		N03   , Fn1 , v012
	.byte	W06
	.byte		N04   , Fn1 , v120
	.byte	W06
	.byte		N03   , Fn1 , v012
	.byte	W06
	.byte		N06   , Fn1 , v100
	.byte	W06
	.byte		N04   , Fn1 , v052
	.byte	W06
	.byte		        Fn1 , v120
	.byte	W06
	.byte		N03   , Fn1 , v012
	.byte	W06
	.byte		N06   , Fn1 , v100
	.byte	W06
	.byte		N04   , Fn1 , v052
	.byte	W06
	.byte		        Fn1 , v120
	.byte	W06
	.byte		N03   , Fn1 , v012
	.byte	W06
	.byte		N06   , Fn1 , v100
	.byte	W06
	.byte		N04   , Fn1 , v052
	.byte	W06
	.byte	W92
	.byte	W03
	.byte		VOL   , 125*seq_024_mvl/mxv
	.byte	W01
	.byte		N06   , Gs1 , v120
	.byte	W06
	.byte		        Gs1 , v052
	.byte	W06
	.byte		N04   , Gs1 , v120
	.byte	W06
	.byte		N03   , Gs1 , v012
	.byte	W06
	.byte		N04   , Gs1 , v120
	.byte	W06
	.byte		N03   , Gs1 , v012
	.byte	W06
	.byte		N04   , Gs1 , v120
	.byte	W06
	.byte		N03   , Gs1 , v012
	.byte	W06
	.byte		N04   , Gs1 , v120
	.byte	W06
	.byte		N03   , Gs1 , v012
	.byte	W06
	.byte		N04   , Gs1 , v120
	.byte	W06
	.byte		N03   , Gs1 , v012
	.byte	W06
	.byte		N04   , Gs1 , v120
	.byte	W06
	.byte		N03   , Gs1 , v012
	.byte	W06
	.byte		N04   , Gs1 , v120
	.byte	W06
	.byte		N03   , Gs1 , v012
	.byte	W06
	.byte	PEND
	.byte	PATT
	 .word	seq_024_7 + 0x19D
	.byte		N06   , Gn1 , v120
	.byte	W06
	.byte		        Gn1 , v052
	.byte	W06
	.byte		N04   , Gn1 , v120
	.byte	W06
	.byte		N03   , Gn1 , v012
	.byte	W06
	.byte		N04   , Gn1 , v120
	.byte	W06
	.byte		N03   , Gn1 , v012
	.byte	W06
	.byte		N04   , Gn1 , v120
	.byte	W06
	.byte		N03   , Gn1 , v012
	.byte	W06
	.byte		N04   , Gn1 , v120
	.byte	W06
	.byte		N03   , Gn1 , v012
	.byte	W06
	.byte		N04   , Gn1 , v120
	.byte	W06
	.byte		N03   , Gn1 , v012
	.byte	W06
	.byte		N04   , Gn1 , v120
	.byte	W06
	.byte		N03   , Gn1 , v012
	.byte	W06
	.byte		N04   , Gn1 , v120
	.byte	W06
	.byte		N03   , Gn1 , v012
	.byte	W06
	.byte	PEND
	.byte	PATT
	 .word	seq_024_7 + 0x1E2
	.byte	PATT
	 .word	seq_024_7 + 0x19D
	.byte	PATT
	 .word	seq_024_7 + 0x19D
	.byte	PATT
	 .word	seq_024_7 + 0x1E2
	.byte	PATT
	 .word	seq_024_7 + 0x1E2
	.byte	PATT
	 .word	seq_024_7 + 0x19D
	.byte		N06   , As1 , v120
	.byte	W06
	.byte		        As1 , v052
	.byte	W06
	.byte		N04   , As1 , v120
	.byte	W06
	.byte		N03   , As1 , v012
	.byte	W06
	.byte		N04   , As1 , v120
	.byte	W06
	.byte		N03   , As1 , v012
	.byte	W06
	.byte		N04   , As1 , v120
	.byte	W06
	.byte		N03   , As1 , v012
	.byte	W06
	.byte		N04   , As1 , v120
	.byte	W06
	.byte		N03   , As1 , v012
	.byte	W06
	.byte		N04   , As1 , v120
	.byte	W06
	.byte		N03   , As1 , v012
	.byte	W06
	.byte		N04   , As1 , v120
	.byte	W06
	.byte		N03   , As1 , v012
	.byte	W06
	.byte		N04   , As1 , v120
	.byte	W06
	.byte		N03   , As1 , v012
	.byte	W06
	.byte	PEND
	.byte		N06   , Cn2 , v120
	.byte	W06
	.byte		        Cn2 , v052
	.byte	W06
	.byte		N04   , Cn2 , v120
	.byte	W06
	.byte		N03   , Cn2 , v012
	.byte	W06
	.byte		N04   , Cn2 , v120
	.byte	W06
	.byte		N03   , Cn2 , v012
	.byte	W06
	.byte		N04   , Cn2 , v120
	.byte	W06
	.byte		N03   , Cn2 , v012
	.byte	W06
	.byte		N04   , Cn2 , v120
	.byte	W06
	.byte		N03   , Cn2 , v012
	.byte	W06
	.byte		N04   , Cn2 , v120
	.byte	W06
	.byte		N03   , Cn2 , v012
	.byte	W06
	.byte		N04   , Cn2 , v120
	.byte	W06
	.byte		N03   , Cn2 , v012
	.byte	W06
	.byte		N04   , Cn2 , v120
	.byte	W06
	.byte		N03   , Cn2 , v012
	.byte	W06
	.byte	PATT
	 .word	seq_024_7 + 0x240
	.byte	PATT
	 .word	seq_024_7 + 0x19D
	.byte	PATT
	 .word	seq_024_7 + 0x1E2
	.byte	W96
	.byte	W96
	.byte	W96
	.byte	W96
	.byte	W96
	.byte	W96
	.byte	W96
	.byte	W96
	.byte	W96
	.byte	W92
	.byte	W03
	.byte		VOICE , 38
	.byte		MOD   , 0
	.byte		VOL   , 125*seq_024_mvl/mxv
	.byte		PAN   , c_v+0
	.byte	W01
	.byte		N06   , Gs1 , v120
	.byte	W12
	.byte		N03
	.byte	W06
	.byte		        Gs1 , v012
	.byte	W06
	.byte		        Gs1 , v120
	.byte	W06
	.byte		        Gs1 , v012
	.byte	W06
	.byte		        Gs1 , v080
	.byte	W06
	.byte		        Gs1 , v012
	.byte	W06
	.byte		        Gs1 , v120
	.byte	W06
	.byte		        Gs1 , v012
	.byte	W06
	.byte		        Gs1 , v080
	.byte	W06
	.byte		        Gs1 , v012
	.byte	W06
	.byte		        Gs1 , v120
	.byte	W06
	.byte		        Gs1 , v012
	.byte	W06
	.byte		        Gs1 , v080
	.byte	W06
	.byte		        Gs1 , v012
	.byte	W06
	.byte	PEND
	.byte	PATT
	 .word	seq_024_7 + 0x2E2
	.byte		N06   , Gn1 , v120
	.byte	W12
	.byte		N03
	.byte	W06
	.byte		        Gn1 , v012
	.byte	W06
	.byte		        Gn1 , v120
	.byte	W06
	.byte		        Gn1 , v012
	.byte	W06
	.byte		        Gn1 , v080
	.byte	W06
	.byte		        Gn1 , v012
	.byte	W06
	.byte		        Gn1 , v120
	.byte	W06
	.byte		        Gn1 , v012
	.byte	W06
	.byte		        Gn1 , v080
	.byte	W06
	.byte		        Gn1 , v012
	.byte	W06
	.byte		        Gn1 , v120
	.byte	W06
	.byte		        Gn1 , v012
	.byte	W06
	.byte		        Gn1 , v080
	.byte	W06
	.byte		        Gn1 , v012
	.byte	W06
	.byte	PEND
	.byte	PATT
	 .word	seq_024_7 + 0x315
	.byte	GOTO
	 .word	seq_024_7 + 0x227
	.byte	FINE

@*********************** Track 09 ***********************@

seq_024_8:
	.byte	KEYSH , seq_024_key+0
	.byte	W13
	.byte		MOD   , 0
	.byte		MODT  , mod_pan
	.byte	W01
	.byte		VOICE , 95
	.byte		VOL   , 125*seq_024_mvl/mxv
	.byte		PAN   , c_v+0
	.byte	W22
	.byte	W96
	.byte	W96
	.byte	W96
	.byte	W96
	.byte	W96
	.byte	W96
	.byte	W96
	.byte	W96
	.byte	W96
	.byte	W92
	.byte	W03
	.byte		VOICE , 46
	.byte		MOD   , 0
	.byte		VOL   , 125*seq_024_mvl/mxv
	.byte	W01
	.byte	W12
	.byte		N12   , Gs2 , v068
	.byte	W12
	.byte		        Cn3 , v096
	.byte	W12
	.byte		N06   , Ds3 , v120
	.byte	W06
	.byte		        Ds3 , v036
	.byte	W06
	.byte		        Ds3 , v016
	.byte	W12
	.byte		N12   , Cn3 , v068
	.byte	W12
	.byte		        Gn3 , v112
	.byte	W24
	.byte	PEND
	.byte	W12
	.byte		N12   , Gn2 , v068
	.byte	W12
	.byte		        As2 , v096
	.byte	W12
	.byte		N06   , Dn3 , v120
	.byte	W06
	.byte		        Dn3 , v036
	.byte	W06
	.byte		        Dn3 , v016
	.byte	W12
	.byte		N12   , As2 , v068
	.byte	W12
	.byte		        Fn3 , v112
	.byte	W24
	.byte	PEND
	.byte	W12
	.byte		        Gn2 , v068
	.byte	W12
	.byte		        Cn3 , v096
	.byte	W12
	.byte		N06   , Ds3 , v120
	.byte	W06
	.byte		        Ds3 , v036
	.byte	W06
	.byte		        Ds3 , v016
	.byte	W12
	.byte		N12   , Cn3 , v068
	.byte	W12
	.byte		        Gn3 , v112
	.byte	W24
	.byte	W12
	.byte		        Gn2 , v068
	.byte	W12
	.byte		        As2 , v096
	.byte	W12
	.byte		N06   , Dn3 , v120
	.byte	W06
	.byte		        Dn3 , v036
	.byte	W06
	.byte		        Dn3 , v016
	.byte	W12
	.byte		N12   , As2 , v068
	.byte	W12
	.byte		        Fn3 , v112
	.byte	W23
	.byte		VOICE , 46
	.byte		MOD   , 0
	.byte		VOL   , 125*seq_024_mvl/mxv
	.byte	W01
	.byte	PATT
	 .word	seq_024_8 + 0x21
	.byte	PATT
	 .word	seq_024_8 + 0x3B
	.byte	W12
	.byte		N12   , As2 , v068
	.byte	W12
	.byte		        Cn3 , v096
	.byte	W12
	.byte		N06   , Fn3 , v120
	.byte	W06
	.byte		        Fn3 , v036
	.byte	W06
	.byte		        Fn3 , v016
	.byte	W12
	.byte		N12   , Cn3 , v068
	.byte	W12
	.byte		        As2 , v112
	.byte	W24
	.byte	W96
	.byte	W96
	.byte	W96
	.byte	W96
	.byte	W96
	.byte	W96
	.byte	W96
	.byte	W96
	.byte	W96
	.byte		VOICE , 95
	.byte		VOL   , 83*seq_024_mvl/mxv
	.byte	W12
	.byte		N02   , Cn4 , v092
	.byte	W06
	.byte		        Cn4 , v040
	.byte	W18
	.byte		        Cn4 , v092
	.byte	W06
	.byte		        Cn4 , v040
	.byte	W18
	.byte		        Cn4 , v092
	.byte	W06
	.byte		        Cn4 , v040
	.byte	W18
	.byte		        Cn4 , v092
	.byte	W06
	.byte		        Cn4 , v040
	.byte	W06
	.byte	W12
	.byte		N02   , Cn4 , v092
	.byte	W06
	.byte		        Cn4 , v040
	.byte	W18
	.byte		        Cn4 , v092
	.byte	W06
	.byte		        Cn4 , v040
	.byte	W18
	.byte		        Cn4 , v092
	.byte	W06
	.byte		        Cn4 , v040
	.byte	W18
	.byte		        Cn4 , v092
	.byte	W06
	.byte		        Cn4 , v040
	.byte	W06
	.byte	PEND
	.byte	PATT
	 .word	seq_024_8 + 0xD6
	.byte	PATT
	 .word	seq_024_8 + 0xD6
	.byte	PATT
	 .word	seq_024_8 + 0xD6
	.byte	W12
	.byte		N02   , Cn4 , v092
	.byte	W06
	.byte		        Cn4 , v040
	.byte	W18
	.byte		        Cn4 , v092
	.byte	W06
	.byte		        Cn4 , v040
	.byte	W18
	.byte		        Cn4 , v092
	.byte	W06
	.byte		        Cn4 , v040
	.byte	W18
	.byte		        Cn4 , v092
	.byte	W06
	.byte		        Cn4 , v040
	.byte	W05
	.byte		VOICE , 46
	.byte		VOL   , 125*seq_024_mvl/mxv
	.byte	W01
	.byte		N10   , Gs2 , v108
	.byte	W12
	.byte		N06   , Cn4 
	.byte	W06
	.byte		        Cn4 , v052
	.byte	W18
	.byte		        Cn4 , v080
	.byte	W06
	.byte		        Cn4 , v032
	.byte	W54
	.byte		N10   , Gn2 , v108
	.byte	W12
	.byte		N06   , As3 
	.byte	W06
	.byte		        As3 , v052
	.byte	W18
	.byte		        As3 , v080
	.byte	W06
	.byte		        As3 , v032
	.byte	W54
	.byte	W96
	.byte	W96
	.byte	W96
	.byte	W96
	.byte	W96
	.byte	W96
	.byte	W96
	.byte	W96
	.byte	W96
	.byte	W96
	.byte	W96
	.byte	W96
	.byte	GOTO
	 .word	seq_024_8 + 0xB4
	.byte	FINE

@*********************** Track 10 ***********************@

seq_024_9:
	.byte	KEYSH , seq_024_key+0
	.byte	W16
	.byte		VOICE , 5
	.byte		VOL   , 63*seq_024_mvl/mxv
	.byte		PAN   , c_v+0
	.byte	W01
	.byte		MOD   , 0
	.byte		MODT  , mod_pan
	.byte	W19
	.byte	W96
	.byte	W96
	.byte	W96
	.byte	W96
	.byte	W96
	.byte	W96
	.byte	W96
	.byte	W96
	.byte	W96
	.byte	W96
	.byte	W96
	.byte	W96
	.byte	W96
	.byte	W96
	.byte	W96
	.byte	W96
	.byte	W96
	.byte	W92
	.byte	W03
	.byte		MOD   , 0
	.byte	W01
	.byte	W11
	.byte		PAN   , c_v+63
	.byte	W01
	.byte		N04   , As3 , v088
	.byte	W06
	.byte		        As3 , v032
	.byte	W05
	.byte		PAN   , c_v-63
	.byte	W01
	.byte		N04   , Ds3 , v088
	.byte	W06
	.byte		        Ds3 , v032
	.byte	W05
	.byte		PAN   , c_v+63
	.byte	W01
	.byte		N04   , Fn3 , v088
	.byte	W06
	.byte		        Fn3 , v032
	.byte	W17
	.byte		PAN   , c_v-63
	.byte	W01
	.byte		N04   , As2 , v088
	.byte	W06
	.byte		        As2 , v032
	.byte	W17
	.byte		PAN   , c_v+63
	.byte	W01
	.byte		N04   , Fn3 , v088
	.byte	W06
	.byte		        Fn3 , v032
	.byte	W06
	.byte	PEND
	.byte	W11
	.byte		PAN   , c_v-63
	.byte	W01
	.byte		N04   , Ds3 , v088
	.byte	W06
	.byte		        Ds3 , v032
	.byte	W17
	.byte		PAN   , c_v+63
	.byte	W01
	.byte		N04   , As3 , v088
	.byte	W06
	.byte		        As3 , v032
	.byte	W17
	.byte		PAN   , c_v-63
	.byte	W01
	.byte		N04   , Ds3 , v088
	.byte	W06
	.byte		        Ds3 , v032
	.byte	W17
	.byte		PAN   , c_v+63
	.byte	W01
	.byte		N04   , As2 , v088
	.byte	W06
	.byte		        As2 , v032
	.byte	W06
	.byte	PEND
	.byte	W11
	.byte		PAN   , c_v-63
	.byte	W01
	.byte		N04   , As3 , v088
	.byte	W06
	.byte		        As3 , v032
	.byte	W05
	.byte		PAN   , c_v+63
	.byte	W01
	.byte		N04   , Ds3 , v088
	.byte	W06
	.byte		        Ds3 , v032
	.byte	W05
	.byte		PAN   , c_v-63
	.byte	W01
	.byte		N04   , Fn3 , v088
	.byte	W06
	.byte		        Fn3 , v032
	.byte	W17
	.byte		PAN   , c_v+63
	.byte	W01
	.byte		N04   , As2 , v088
	.byte	W06
	.byte		        As2 , v032
	.byte	W17
	.byte		PAN   , c_v-63
	.byte	W01
	.byte		N04   , Gs3 , v088
	.byte	W06
	.byte		        Gs3 , v032
	.byte	W06
	.byte	PEND
	.byte	W11
	.byte		PAN   , c_v+63
	.byte	W01
	.byte		N04   , Gn3 , v088
	.byte	W06
	.byte		        Gn3 , v032
	.byte	W17
	.byte		PAN   , c_v-63
	.byte	W01
	.byte		N04   , Fn3 , v088
	.byte	W06
	.byte		        Fn3 , v032
	.byte	W17
	.byte		PAN   , c_v+63
	.byte	W01
	.byte		N04   , Ds3 , v088
	.byte	W06
	.byte		        Ds3 , v032
	.byte	W28
	.byte	W01
	.byte		MOD   , 0
	.byte	W01
	.byte	PEND
	.byte	PATT
	 .word	seq_024_9 + 0x25
	.byte	PATT
	 .word	seq_024_9 + 0x59
	.byte	PATT
	 .word	seq_024_9 + 0x83
	.byte	PATT
	 .word	seq_024_9 + 0xB7
	.byte	W11
	.byte		PAN   , c_v+63
	.byte	W01
	.byte		N04   , Cn4 , v088
	.byte	W11
	.byte		PAN   , c_v-63
	.byte	W01
	.byte		N04   , Fn3 
	.byte	W11
	.byte		PAN   , c_v+0
	.byte	W01
	.byte		N04   , Gn3 
	.byte	W11
	.byte		PAN   , c_v+63
	.byte	W01
	.byte		N04   , Cn4 
	.byte	W11
	.byte		PAN   , c_v-63
	.byte	W01
	.byte		N04   , Fn3 
	.byte	W11
	.byte		PAN   , c_v+63
	.byte	W01
	.byte		N04   , Gn3 
	.byte	W11
	.byte		PAN   , c_v-63
	.byte	W01
	.byte		N04   , Cn3 
	.byte	W12
	.byte	PEND
	.byte	W11
	.byte		PAN   , c_v+63
	.byte	W01
	.byte		N04   , Cn4 , v088
	.byte	W11
	.byte		PAN   , c_v-63
	.byte	W01
	.byte		N04   , Fn3 
	.byte	W11
	.byte		PAN   , c_v+0
	.byte	W01
	.byte		N04   , Gn3 
	.byte	W11
	.byte		PAN   , c_v+63
	.byte	W01
	.byte		N04   , Cn4 
	.byte	W11
	.byte		PAN   , c_v-63
	.byte	W01
	.byte		N04   , Fn3 
	.byte	W11
	.byte		PAN   , c_v+63
	.byte	W01
	.byte		N04   , Gn3 
	.byte	W11
	.byte		PAN   , c_v-63
	.byte	W01
	.byte		N04   , Cn3 
	.byte	W11
	.byte		MOD   , 0
	.byte	W01
	.byte	PEND
	.byte	PATT
	 .word	seq_024_9 + 0xEF
	.byte	PATT
	 .word	seq_024_9 + 0x11C
	.byte	PATT
	 .word	seq_024_9 + 0xEF
	.byte	W11
	.byte		PAN   , c_v+63
	.byte	W01
	.byte		N04   , Cn4 , v088
	.byte	W11
	.byte		PAN   , c_v-63
	.byte	W01
	.byte		N04   , Fn3 
	.byte	W11
	.byte		PAN   , c_v+0
	.byte	W01
	.byte		N04   , Gn3 
	.byte	W11
	.byte		PAN   , c_v+63
	.byte	W01
	.byte		N04   , Cn4 
	.byte	W11
	.byte		PAN   , c_v-63
	.byte	W01
	.byte		N04   , Fn3 
	.byte	W11
	.byte		PAN   , c_v+63
	.byte	W01
	.byte		N04   , Gn3 
	.byte	W11
	.byte		PAN   , c_v-63
	.byte	W01
	.byte		N04   , Cn3 
	.byte	W11
	.byte		MOD   , 0
	.byte		VOL   , 125*seq_024_mvl/mxv
	.byte	W01
	.byte	W05
	.byte		VOICE , 46
	.byte		PAN   , c_v+0
	.byte	W07
	.byte		N06   , Ds4 , v108
	.byte	W06
	.byte		        Ds4 , v052
	.byte	W18
	.byte		        Ds4 , v080
	.byte	W06
	.byte		        Ds4 , v032
	.byte	W54
	.byte	W12
	.byte		        Dn4 , v108
	.byte	W06
	.byte		        Dn4 , v052
	.byte	W18
	.byte		        Dn4 , v080
	.byte	W06
	.byte		        Dn4 , v032
	.byte	W54
	.byte	W96
	.byte	W96
	.byte	W96
	.byte	W96
	.byte	W96
	.byte	W96
	.byte	W96
	.byte	W22
	.byte		VOICE , 5
	.byte		VOL   , 103*seq_024_mvl/mxv
	.byte		PAN   , c_v+0
	.byte	W01
	.byte		MOD   , 0
	.byte		MODT  , mod_pan
	.byte	W72
	.byte		MOD   , 0
	.byte	W01
	.byte	PATT
	 .word	seq_024_9 + 0x25
	.byte	PATT
	 .word	seq_024_9 + 0x59
	.byte	PATT
	 .word	seq_024_9 + 0x83
	.byte	W11
	.byte		PAN   , c_v+63
	.byte	W01
	.byte		N04   , Gn3 , v088
	.byte	W06
	.byte		        Gn3 , v032
	.byte	W17
	.byte		PAN   , c_v-63
	.byte	W01
	.byte		N04   , Fn3 , v088
	.byte	W06
	.byte		        Fn3 , v032
	.byte	W17
	.byte		PAN   , c_v+63
	.byte	W01
	.byte		N04   , Ds3 , v088
	.byte	W06
	.byte		        Ds3 , v032
	.byte	W30
	.byte	GOTO
	 .word	seq_024_9 + 0xDB
	.byte	FINE

@*********************** Track 11 ***********************@

seq_024_10:
	.byte	KEYSH , seq_024_key+0
	.byte	W18
	.byte		VOICE , 127
	.byte		VOL   , 88*seq_024_mvl/mxv
	.byte		PAN   , c_v+0
	.byte	W18
	.byte	W96
	.byte	W96
	.byte	W96
	.byte	W96
	.byte	W96
	.byte	W96
	.byte	W96
	.byte	W96
	.byte	W96
	.byte	W44
	.byte	W03
	.byte		        c_v+0
	.byte	W24
	.byte	W01
	.byte		N24   , En2 , v028
	.byte	W23
	.byte		PAN   , c_v+0
	.byte	W01
	.byte		N12   , En2 , v028
	.byte	W11
	.byte		PAN   , c_v-63
	.byte	W01
	.byte		N02   , Fs1 , v088
	.byte	W06
	.byte		        Fs1 , v036
	.byte	W05
	.byte		PAN   , c_v+63
	.byte	W01
	.byte		N02   , Fs1 , v072
	.byte	W06
	.byte		        Fs1 , v036
	.byte	W05
	.byte		PAN   , c_v-63
	.byte	W01
	.byte		N02   , Fs1 , v064
	.byte	W06
	.byte		        Fs1 , v036
	.byte	W05
	.byte		PAN   , c_v+0
	.byte	W01
	.byte		N12   , En2 , v028
	.byte	W11
	.byte		PAN   , c_v+63
	.byte	W01
	.byte		N02   , Fs1 , v088
	.byte	W06
	.byte		        Fs1 , v036
	.byte	W05
	.byte		PAN   , c_v-63
	.byte	W01
	.byte		N02   , Fs1 , v072
	.byte	W06
	.byte		        Fs1 , v036
	.byte	W05
	.byte		PAN   , c_v+63
	.byte	W01
	.byte		N02   , Fs1 , v064
	.byte	W06
	.byte		        Fs1 , v036
	.byte	W05
	.byte		PAN   , c_v+0
	.byte	W01
	.byte	PEND
	.byte	PATT
	 .word	seq_024_10 + 0x1F
	.byte	PATT
	 .word	seq_024_10 + 0x1F
	.byte	PATT
	 .word	seq_024_10 + 0x1F
	.byte	PATT
	 .word	seq_024_10 + 0x1F
	.byte	PATT
	 .word	seq_024_10 + 0x1F
	.byte		N12   , En2 , v028
	.byte	W11
	.byte		PAN   , c_v-63
	.byte	W01
	.byte		N02   , Fs1 , v088
	.byte	W06
	.byte		        Fs1 , v036
	.byte	W05
	.byte		PAN   , c_v+63
	.byte	W01
	.byte		N02   , Fs1 , v072
	.byte	W06
	.byte		        Fs1 , v036
	.byte	W05
	.byte		PAN   , c_v-63
	.byte	W01
	.byte		N02   , Fs1 , v064
	.byte	W06
	.byte		        Fs1 , v036
	.byte	W05
	.byte		PAN   , c_v+0
	.byte	W01
	.byte		N12   , En2 , v028
	.byte	W11
	.byte		PAN   , c_v+63
	.byte	W01
	.byte		N02   , Fs1 , v088
	.byte	W06
	.byte		        Fs1 , v036
	.byte	W05
	.byte		PAN   , c_v-63
	.byte	W01
	.byte		N02   , Fs1 , v072
	.byte	W06
	.byte		        Fs1 , v036
	.byte	W05
	.byte		PAN   , c_v+63
	.byte	W01
	.byte		N02   , Fs1 , v064
	.byte	W06
	.byte		        Fs1 , v036
	.byte	W06
	.byte	W36
	.byte		        Fs1 , v060
	.byte	W11
	.byte		PAN   , c_v+0
	.byte	W01
	.byte		N12   , En2 , v028
	.byte	W12
	.byte		N02   , Fs1 , v060
	.byte	W12
	.byte		N12   , En2 , v028
	.byte	W12
	.byte		N02   , Fs1 , v060
	.byte	W11
	.byte		PAN   , c_v+0
	.byte	W01
	.byte		N12   , En2 , v028
	.byte	W11
	.byte		PAN   , c_v-63
	.byte	W01
	.byte		N02   , Fs1 , v088
	.byte	W06
	.byte		        Fs1 , v036
	.byte	W05
	.byte		PAN   , c_v+63
	.byte	W01
	.byte		N02   , Fs1 , v072
	.byte	W06
	.byte		        Fs1 , v036
	.byte	W05
	.byte		PAN   , c_v-63
	.byte	W01
	.byte		N02   , Fs1 , v064
	.byte	W06
	.byte		        Fs1 , v036
	.byte	W05
	.byte		PAN   , c_v+63
	.byte	W01
	.byte		N02   , Fs1 , v056
	.byte	W06
	.byte		        Fs1 , v036
	.byte	W05
	.byte		PAN   , c_v-63
	.byte	W01
	.byte		N02   , Fs1 , v048
	.byte	W06
	.byte		        Fs1 , v032
	.byte	W05
	.byte		PAN   , c_v+63
	.byte	W01
	.byte		N02   , Fs1 , v044
	.byte	W06
	.byte		        Fs1 , v032
	.byte	W05
	.byte		PAN   , c_v-63
	.byte	W01
	.byte		N02   , Fs1 , v036
	.byte	W11
	.byte		PAN   , c_v+0
	.byte	W01
	.byte	PEND
	.byte	PATT
	 .word	seq_024_10 + 0xE4
	.byte	PATT
	 .word	seq_024_10 + 0xE4
	.byte	PATT
	 .word	seq_024_10 + 0xE4
	.byte	PATT
	 .word	seq_024_10 + 0xE4
	.byte	PATT
	 .word	seq_024_10 + 0xE4
	.byte	PATT
	 .word	seq_024_10 + 0xE4
	.byte	PATT
	 .word	seq_024_10 + 0xE4
	.byte	PATT
	 .word	seq_024_10 + 0xE4
	.byte	PATT
	 .word	seq_024_10 + 0xE4
	.byte	PATT
	 .word	seq_024_10 + 0xE4
	.byte	PATT
	 .word	seq_024_10 + 0xE4
	.byte	PATT
	 .word	seq_024_10 + 0xE4
	.byte		N12   , En2 , v028
	.byte	W11
	.byte		PAN   , c_v-63
	.byte	W01
	.byte		N02   , Fs1 , v088
	.byte	W06
	.byte		        Fs1 , v036
	.byte	W05
	.byte		PAN   , c_v+63
	.byte	W01
	.byte		N02   , Fs1 , v072
	.byte	W06
	.byte		        Fs1 , v036
	.byte	W05
	.byte		PAN   , c_v-63
	.byte	W01
	.byte		N02   , Fs1 , v064
	.byte	W06
	.byte		        Fs1 , v036
	.byte	W05
	.byte		PAN   , c_v+63
	.byte	W01
	.byte		N02   , Fs1 , v056
	.byte	W06
	.byte		        Fs1 , v036
	.byte	W05
	.byte		PAN   , c_v-63
	.byte	W01
	.byte		N02   , Fs1 , v048
	.byte	W06
	.byte		        Fs1 , v032
	.byte	W05
	.byte		PAN   , c_v+63
	.byte	W01
	.byte		N02   , Fs1 , v044
	.byte	W06
	.byte		        Fs1 , v032
	.byte	W05
	.byte		PAN   , c_v-63
	.byte	W01
	.byte		N02   , Fs1 , v036
	.byte	W06
	.byte		        Fs1 , v032
	.byte	W05
	.byte		PAN   , c_v+0
	.byte	W01
	.byte		N12   , En2 , v028
	.byte	W11
	.byte		PAN   , c_v-63
	.byte	W01
	.byte		N02   , Fs1 , v088
	.byte	W06
	.byte		        Fs1 , v036
	.byte	W05
	.byte		PAN   , c_v+63
	.byte	W01
	.byte		N02   , Fs1 , v072
	.byte	W06
	.byte		        Fs1 , v036
	.byte	W05
	.byte		PAN   , c_v-63
	.byte	W01
	.byte		N02   , Fs1 , v064
	.byte	W06
	.byte		        Fs1 , v036
	.byte	W05
	.byte		PAN   , c_v+63
	.byte	W01
	.byte		N02   , Fs1 , v056
	.byte	W44
	.byte	W03
	.byte		PAN   , c_v+0
	.byte	W01
	.byte	PEND
	.byte	PATT
	 .word	seq_024_10 + 0x1B8
	.byte		N12   , En2 , v028
	.byte	W11
	.byte		PAN   , c_v-63
	.byte	W01
	.byte		N02   , Fs1 , v088
	.byte	W06
	.byte		        Fs1 , v036
	.byte	W05
	.byte		PAN   , c_v+63
	.byte	W01
	.byte		N02   , Fs1 , v072
	.byte	W06
	.byte		        Fs1 , v036
	.byte	W05
	.byte		PAN   , c_v-63
	.byte	W01
	.byte		N02   , Fs1 , v064
	.byte	W06
	.byte		        Fs1 , v036
	.byte	W05
	.byte		PAN   , c_v+63
	.byte	W01
	.byte		N02   , Fs1 , v056
	.byte	W11
	.byte		PAN   , c_v-63
	.byte	W01
	.byte		N02   , Fs1 , v048
	.byte	W06
	.byte		        Fs1 , v032
	.byte	W05
	.byte		PAN   , c_v+63
	.byte	W01
	.byte		N02   , Fs1 , v044
	.byte	W11
	.byte		PAN   , c_v-63
	.byte	W12
	.byte		        c_v+0
	.byte	W01
	.byte	PEND
	.byte	PATT
	 .word	seq_024_10 + 0x1EB
	.byte	PATT
	 .word	seq_024_10 + 0x1EB
	.byte	PATT
	 .word	seq_024_10 + 0x1EB
	.byte	PATT
	 .word	seq_024_10 + 0x1EB
	.byte	PATT
	 .word	seq_024_10 + 0x1EB
	.byte	PATT
	 .word	seq_024_10 + 0x1EB
	.byte		N12   , En2 , v028
	.byte	W11
	.byte		PAN   , c_v-63
	.byte	W01
	.byte		N02   , Fs1 , v088
	.byte	W06
	.byte		        Fs1 , v036
	.byte	W05
	.byte		PAN   , c_v+63
	.byte	W01
	.byte		N02   , Fs1 , v072
	.byte	W06
	.byte		        Fs1 , v036
	.byte	W05
	.byte		PAN   , c_v-63
	.byte	W01
	.byte		N02   , Fs1 , v064
	.byte	W06
	.byte		        Fs1 , v036
	.byte	W05
	.byte		PAN   , c_v+0
	.byte	W01
	.byte		N02   , Fs1 , v060
	.byte	W12
	.byte		N12   , En2 , v028
	.byte	W12
	.byte		N02   , Fs1 , v060
	.byte	W12
	.byte		N12   , En2 , v028
	.byte	W11
	.byte		PAN   , c_v+0
	.byte	W01
	.byte		N12   , En2 , v028
	.byte	W11
	.byte		PAN   , c_v-63
	.byte	W01
	.byte		N02   , Fs1 , v088
	.byte	W06
	.byte		        Fs1 , v036
	.byte	W05
	.byte		PAN   , c_v+63
	.byte	W01
	.byte		N02   , Fs1 , v072
	.byte	W06
	.byte		        Fs1 , v036
	.byte	W05
	.byte		PAN   , c_v-63
	.byte	W01
	.byte		N02   , Fs1 , v064
	.byte	W06
	.byte		        Fs1 , v036
	.byte	W05
	.byte		PAN   , c_v+63
	.byte	W01
	.byte		N02   , Fs1 , v056
	.byte	W06
	.byte		        Fs1 , v036
	.byte	W05
	.byte		PAN   , c_v-63
	.byte	W01
	.byte		N02   , Fs1 , v048
	.byte	W11
	.byte		PAN   , c_v+63
	.byte	W01
	.byte		N02   , Fs1 , v044
	.byte	W06
	.byte		        Fs1 , v032
	.byte	W05
	.byte		PAN   , c_v-63
	.byte	W01
	.byte		N02   , Fs1 , v036
	.byte	W11
	.byte		PAN   , c_v+0
	.byte	W01
	.byte	PEND
	.byte	PATT
	 .word	seq_024_10 + 0x281
	.byte	PATT
	 .word	seq_024_10 + 0x281
	.byte		N12   , En2 , v028
	.byte	W11
	.byte		PAN   , c_v-63
	.byte	W01
	.byte		N02   , Fs1 , v088
	.byte	W06
	.byte		        Fs1 , v036
	.byte	W05
	.byte		PAN   , c_v+63
	.byte	W01
	.byte		N02   , Fs1 , v072
	.byte	W06
	.byte		        Fs1 , v036
	.byte	W05
	.byte		PAN   , c_v-63
	.byte	W01
	.byte		N02   , Fs1 , v064
	.byte	W06
	.byte		        Fs1 , v036
	.byte	W05
	.byte		PAN   , c_v+63
	.byte	W01
	.byte		N02   , Fs1 , v056
	.byte	W06
	.byte		        Fs1 , v036
	.byte	W05
	.byte		PAN   , c_v-63
	.byte	W01
	.byte		N02   , Fs1 , v048
	.byte	W11
	.byte		PAN   , c_v+63
	.byte	W01
	.byte		N02   , Fs1 , v044
	.byte	W06
	.byte		        Fs1 , v032
	.byte	W05
	.byte		PAN   , c_v-63
	.byte	W01
	.byte		N02   , Fs1 , v036
	.byte	W12
	.byte	GOTO
	 .word	seq_024_10 + 0x13E
	.byte	FINE

@*********************** Track 12 ***********************@

seq_024_11:
	.byte	KEYSH , seq_024_key+0
	.byte	W19
	.byte		VOICE , 127
	.byte		VOL   , 83*seq_024_mvl/mxv
	.byte		PAN   , c_v+0
	.byte	W17
	.byte	W96
	.byte	W96
	.byte	W96
	.byte	W96
	.byte	W96
	.byte	W96
	.byte	W96
	.byte	W96
	.byte	W96
	.byte	W96
	.byte	W24
	.byte		N12   , An4 , v052
	.byte	W24
	.byte		        Fs2 
	.byte	W48
	.byte	PEND
	.byte	PATT
	 .word	seq_024_11 + 0x14
	.byte	PATT
	 .word	seq_024_11 + 0x14
	.byte	PATT
	 .word	seq_024_11 + 0x14
	.byte	PATT
	 .word	seq_024_11 + 0x14
	.byte	PATT
	 .word	seq_024_11 + 0x14
	.byte	PATT
	 .word	seq_024_11 + 0x14
	.byte	W96
	.byte	W24
	.byte		N12   , An4 , v080
	.byte	W24
	.byte		        Fs2 
	.byte	W24
	.byte		        An4 
	.byte	W24
	.byte	PEND
	.byte	PATT
	 .word	seq_024_11 + 0x3B
	.byte	PATT
	 .word	seq_024_11 + 0x3B
	.byte	PATT
	 .word	seq_024_11 + 0x3B
	.byte	PATT
	 .word	seq_024_11 + 0x3B
	.byte	PATT
	 .word	seq_024_11 + 0x3B
	.byte	PATT
	 .word	seq_024_11 + 0x3B
	.byte	PATT
	 .word	seq_024_11 + 0x3B
	.byte	PATT
	 .word	seq_024_11 + 0x3B
	.byte	PATT
	 .word	seq_024_11 + 0x3B
	.byte	PATT
	 .word	seq_024_11 + 0x3B
	.byte	PATT
	 .word	seq_024_11 + 0x3B
	.byte	PATT
	 .word	seq_024_11 + 0x3B
	.byte	PATT
	 .word	seq_024_11 + 0x3B
	.byte	W96
	.byte	W96
	.byte	W24
	.byte		N12   , An4 , v060
	.byte	W24
	.byte		        Fs2 , v080
	.byte	W48
	.byte	PEND
	.byte	PATT
	 .word	seq_024_11 + 0x88
	.byte	PATT
	 .word	seq_024_11 + 0x88
	.byte	PATT
	 .word	seq_024_11 + 0x88
	.byte	PATT
	 .word	seq_024_11 + 0x88
	.byte	PATT
	 .word	seq_024_11 + 0x88
	.byte	PATT
	 .word	seq_024_11 + 0x88
	.byte	PATT
	 .word	seq_024_11 + 0x88
	.byte	PATT
	 .word	seq_024_11 + 0x3B
	.byte	PATT
	 .word	seq_024_11 + 0x3B
	.byte	PATT
	 .word	seq_024_11 + 0x3B
	.byte	W24
	.byte		N12   , An4 , v080
	.byte	W24
	.byte		        Fs2 
	.byte	W24
	.byte		        As3 
	.byte	W24
	.byte	GOTO
	 .word	seq_024_11 + 0x54
	.byte	FINE

@******************************************************@

	.align	2

seq_024:
	.byte	12	@ NumTrks
	.byte	0	@ NumBlks
	.byte	seq_024_pri	@ Priority
	.byte	seq_024_rev	@ Reverb

	.word	seq_024_grp

	.word	seq_024_0
	.word	seq_024_1
	.word	seq_024_2
	.word	seq_024_3
	.word	seq_024_4
	.word	seq_024_5
	.word	seq_024_6
	.word	seq_024_7
	.word	seq_024_8
	.word	seq_024_9
	.word	seq_024_10
	.word	seq_024_11

	.end
