@ File generated by m4a2s Song-Module
	.include "MPlayDef.s"

	.equ	seq_008_grp, bank_000
	.equ	seq_008_pri, 50
	.equ	seq_008_rev, 218
	.equ	seq_008_mvl, 127
	.equ	seq_008_key, 0

	.section .rodata
	.global	seq_008
	.align	2

@*********************** Track 01 ***********************@

seq_008_0:
	.byte	KEYSH , seq_008_key+0
	.byte	TEMPO , 112/2
	.byte		VOICE , 76
	.byte		VOL   , 59*seq_008_mvl/mxv
	.byte		PAN   , c_v+0
	.byte	W24
	.byte	W96
	.byte	W96
	.byte	W96
	.byte	W96
	.byte	W96
	.byte	W96
	.byte	W96
	.byte	W96
	.byte	W40
	.byte		N08   , Gn4 , v060
	.byte	W08
	.byte		N03   , Dn5 , v120
	.byte	W16
	.byte		N03
	.byte	W08
	.byte		N08
	.byte	W08
	.byte		        Cn5 , v040
	.byte	W08
	.byte		        Dn5 , v072
	.byte	W08
	.byte		N03   , Gn5 , v120
	.byte	W40
	.byte		N08   , Gn4 , v060
	.byte	W08
	.byte		N03   , Dn5 , v120
	.byte	W16
	.byte		N03
	.byte	W08
	.byte		N08
	.byte	W08
	.byte		        Cn5 , v040
	.byte	W08
	.byte		        Dn5 , v072
	.byte	W08
	.byte	PEND
	.byte		N09   , Gn4 , v088
	.byte	W40
	.byte		N08   , Gn4 , v060
	.byte	W08
	.byte		N03   , Dn5 , v120
	.byte	W16
	.byte		N03
	.byte	W08
	.byte		N08
	.byte	W08
	.byte		        Cn5 , v040
	.byte	W08
	.byte		        Bn4 , v072
	.byte	W08
	.byte	PEND
	.byte		N09   , Gn4 , v088
	.byte	W24
	.byte		        An4 
	.byte	W24
	.byte		        Bn4 
	.byte	W24
	.byte		        Cn5 
	.byte	W24
	.byte	PEND
	.byte		N11   , Dn5 , v120
	.byte	W40
	.byte		N08   , Gn4 , v060
	.byte	W08
	.byte		N03   , Dn5 , v120
	.byte	W16
	.byte		N03
	.byte	W08
	.byte		N08
	.byte	W08
	.byte		        Cn5 , v040
	.byte	W08
	.byte		        Dn5 , v072
	.byte	W08
	.byte	PATT
	 .word	seq_008_0 + 0x26
	.byte	PATT
	 .word	seq_008_0 + 0x3D
	.byte	PATT
	 .word	seq_008_0 + 0x54
	.byte	GOTO
	 .word	seq_008_0 + 0xB
	.byte	FINE

@*********************** Track 02 ***********************@

seq_008_1:
	.byte	KEYSH , seq_008_key+0
	.byte	W01
	.byte		VOICE , 8
	.byte		VOL   , 47*seq_008_mvl/mxv
	.byte		PAN   , c_v+0
	.byte	W23
	.byte		N32   , Dn4 , v112
	.byte	W40
	.byte		N08   , Bn3 , v060
	.byte	W08
	.byte		N14   , Cn4 , v120
	.byte	W14
	.byte		N04   , Bn3 , v052
	.byte	W04
	.byte		        Cn4 , v080
	.byte	W03
	.byte		        Bn3 , v060
	.byte	W03
	.byte		N16   , An3 , v092
	.byte	W24
	.byte	PEND
	.byte		N32   , Bn3 , v112
	.byte	W40
	.byte		N08   , Gn3 , v060
	.byte	W08
	.byte		N14   , An3 , v120
	.byte	W14
	.byte		N04   , Gn3 , v052
	.byte	W04
	.byte		        An3 , v080
	.byte	W03
	.byte		        Gn3 , v060
	.byte	W03
	.byte		N16   , Fs3 , v092
	.byte	W24
	.byte	PEND
	.byte		N48   , Gn3 , v112
	.byte	W96
	.byte	W96
	.byte	PATT
	 .word	seq_008_1 + 0xA
	.byte	PATT
	 .word	seq_008_1 + 0x25
	.byte		N48   , Gn3 , v112
	.byte	W96
	.byte	W96
	.byte	W96
	.byte	W96
	.byte	W96
	.byte	W96
	.byte	W96
	.byte	W96
	.byte	W96
	.byte	W96
	.byte	GOTO
	 .word	seq_008_1 + 0xA
	.byte	FINE

@*********************** Track 03 ***********************@

seq_008_2:
	.byte	KEYSH , seq_008_key+0
	.byte	W02
	.byte		VOICE , 46
	.byte		VOL   , 94*seq_008_mvl/mxv
	.byte		PAN   , c_v+0
	.byte	W14
	.byte		N08   , Cn2 , v127
	.byte	W08
	.byte		N08   , Fn2 , v127
	.byte	W16
	.byte		        Cn3 , v072
	.byte	W08
	.byte		        Dn3 , v120
	.byte	W16
	.byte		        Gn3 
	.byte	W48
	.byte		        Cn2 , v127
	.byte	W08
	.byte	PEND
	.byte		N08   , Fn2 , v127
	.byte	W16
	.byte		        Cn3 , v072
	.byte	W08
	.byte		        Dn3 , v120
	.byte	W16
	.byte		        Gn3 
	.byte	W48
	.byte		        Dn2 , v127
	.byte	W08
	.byte	PEND
	.byte		N08   , En2 , v127
	.byte	W16
	.byte		        Cn3 , v072
	.byte	W08
	.byte		        Dn3 , v120
	.byte	W16
	.byte		        Gn3 
	.byte	W48
	.byte		        Dn2 , v127
	.byte	W08
	.byte	PEND
	.byte		N08   , En2 , v127
	.byte	W16
	.byte		        Cn3 , v072
	.byte	W08
	.byte		        Dn3 , v120
	.byte	W16
	.byte		        Gn3 
	.byte	W56
	.byte	PEND
	.byte	PATT
	 .word	seq_008_2 + 0xE
	.byte	PATT
	 .word	seq_008_2 + 0x1E
	.byte	PATT
	 .word	seq_008_2 + 0x2E
	.byte		N08   , En2 , v127
	.byte	W16
	.byte		        Cn3 , v072
	.byte	W08
	.byte		        Dn3 , v120
	.byte	W16
	.byte		        Gn3 
	.byte	W48
	.byte		        Cn2 , v127
	.byte	W08
	.byte	PEND
	.byte	PATT
	 .word	seq_008_2 + 0xE
	.byte	PATT
	 .word	seq_008_2 + 0x1E
	.byte	PATT
	 .word	seq_008_2 + 0x2E
	.byte	PATT
	 .word	seq_008_2 + 0x5A
	.byte	PATT
	 .word	seq_008_2 + 0xE
	.byte	PATT
	 .word	seq_008_2 + 0x1E
	.byte	PATT
	 .word	seq_008_2 + 0x2E
	.byte	PATT
	 .word	seq_008_2 + 0x3E
	.byte	GOTO
	 .word	seq_008_2 + 0xE
	.byte	FINE

@*********************** Track 04 ***********************@

seq_008_3:
	.byte	KEYSH , seq_008_key+0
	.byte	W03
	.byte		VOICE , 74
	.byte		VOL   , 31*seq_008_mvl/mxv
	.byte		PAN   , c_v+30
	.byte	W21
	.byte	W04
	.byte		N05   , Dn4 , v112
	.byte	W40
	.byte		        Bn3 , v060
	.byte	W08
	.byte		        Cn4 , v100
	.byte	W14
	.byte		N04   , Bn3 , v052
	.byte	W04
	.byte		N03   , Cn4 , v080
	.byte	W03
	.byte		        Bn3 , v060
	.byte	W03
	.byte		N05   , An3 , v092
	.byte	W20
	.byte	W04
	.byte		        Bn3 , v112
	.byte	W40
	.byte		        Gn3 , v060
	.byte	W08
	.byte		        An3 , v100
	.byte	W14
	.byte		N04   , Gn3 , v052
	.byte	W04
	.byte		N03   , An3 , v080
	.byte	W03
	.byte		        Gn3 , v060
	.byte	W03
	.byte		N05   , Fs3 , v092
	.byte	W20
	.byte	W04
	.byte		        Gn3 , v112
	.byte	W92
	.byte	W96
	.byte	W04
	.byte		        Dn4 
	.byte	W40
	.byte		        Bn3 , v060
	.byte	W08
	.byte		        Cn4 , v120
	.byte	W14
	.byte		        Bn3 , v052
	.byte	W04
	.byte		        Cn4 , v080
	.byte	W03
	.byte		        Bn3 , v060
	.byte	W03
	.byte		        An3 , v092
	.byte	W20
	.byte	W04
	.byte		        Bn3 , v112
	.byte	W40
	.byte		        Gn3 , v060
	.byte	W08
	.byte		        An3 , v120
	.byte	W14
	.byte		        Gn3 , v052
	.byte	W04
	.byte		        An3 , v080
	.byte	W03
	.byte		        Gn3 , v060
	.byte	W03
	.byte		        Fs3 , v092
	.byte	W20
	.byte	W04
	.byte		        Gn3 , v112
	.byte	W92
	.byte	W96
	.byte	W96
	.byte	W96
	.byte	W96
	.byte	W96
	.byte	W96
	.byte	W96
	.byte	W96
	.byte	W96
	.byte	GOTO
	 .word	seq_008_3 + 0xA
	.byte	FINE

@*********************** Track 05 ***********************@

seq_008_4:
	.byte	KEYSH , seq_008_key+0
	.byte	W04
	.byte		VOICE , 75
	.byte		VOL   , 23*seq_008_mvl/mxv
	.byte		PAN   , c_v-30
	.byte	W20
	.byte	W08
	.byte		N07   , Dn4 , v088
	.byte	W40
	.byte		        Bn3 , v036
	.byte	W08
	.byte		        Cn4 , v096
	.byte	W14
	.byte		        Bn3 , v028
	.byte	W04
	.byte		        Cn4 , v056
	.byte	W03
	.byte		        Bn3 , v036
	.byte	W03
	.byte		        An3 , v068
	.byte	W16
	.byte	PEND
	.byte	W08
	.byte		N07   , Bn3 , v088
	.byte	W40
	.byte		        Gn3 , v036
	.byte	W08
	.byte		        An3 , v096
	.byte	W14
	.byte		        Gn3 , v028
	.byte	W04
	.byte		        An3 , v056
	.byte	W03
	.byte		        Gn3 , v036
	.byte	W03
	.byte		        Fs3 , v068
	.byte	W16
	.byte	PEND
	.byte	W08
	.byte		        Gn3 , v088
	.byte	W88
	.byte	W96
	.byte	PATT
	 .word	seq_008_4 + 0xA
	.byte	PATT
	 .word	seq_008_4 + 0x22
	.byte	W08
	.byte		N07   , Gn3 , v088
	.byte	W88
	.byte	W96
	.byte	W96
	.byte	W96
	.byte	W96
	.byte	W96
	.byte	W96
	.byte	W96
	.byte	W96
	.byte	W96
	.byte	GOTO
	 .word	seq_008_4 + 0xA
	.byte	FINE

@*********************** Track 06 ***********************@

seq_008_5:
	.byte	KEYSH , seq_008_key+0
	.byte	W05
	.byte		VOICE , 10
	.byte		VOL   , 66*seq_008_mvl/mxv
	.byte		PAN   , c_v+40
	.byte	W19
	.byte	W40
	.byte		N04   , Dn3 , v100
	.byte	W24
	.byte		        Gn2 , v052
	.byte	W32
	.byte	PEND
	.byte		N08   , Gn3 , v100
	.byte	W72
	.byte		N04   , Dn3 
	.byte	W16
	.byte		        Dn2 , v076
	.byte	W08
	.byte	PEND
	.byte	W40
	.byte		N04   , Gn3 , v100
	.byte	W24
	.byte		        Dn3 , v052
	.byte	W32
	.byte	PEND
	.byte		N08   , Bn3 , v100
	.byte	W64
	.byte		N04   , Dn4 , v092
	.byte	W32
	.byte	PEND
	.byte	PATT
	 .word	seq_008_5 + 0xA
	.byte	PATT
	 .word	seq_008_5 + 0x13
	.byte	PATT
	 .word	seq_008_5 + 0x1E
	.byte	PATT
	 .word	seq_008_5 + 0x27
	.byte	PATT
	 .word	seq_008_5 + 0xA
	.byte	PATT
	 .word	seq_008_5 + 0x13
	.byte	PATT
	 .word	seq_008_5 + 0x1E
	.byte	PATT
	 .word	seq_008_5 + 0x27
	.byte	PATT
	 .word	seq_008_5 + 0xA
	.byte	PATT
	 .word	seq_008_5 + 0x13
	.byte	PATT
	 .word	seq_008_5 + 0x1E
	.byte	PATT
	 .word	seq_008_5 + 0x27
	.byte	GOTO
	 .word	seq_008_5 + 0xA
	.byte	FINE

@*********************** Track 07 ***********************@

seq_008_6:
	.byte	KEYSH , seq_008_key+0
	.byte	W06
	.byte		VOICE , 10
	.byte		VOL   , 66*seq_008_mvl/mxv
	.byte		PAN   , c_v-40
	.byte	W18
	.byte		N08   , Gn3 , v100
	.byte	W72
	.byte		N04   , Dn3 
	.byte	W16
	.byte		        Dn2 , v076
	.byte	W08
	.byte	PEND
	.byte	W40
	.byte		N04   , Dn3 , v100
	.byte	W24
	.byte		        Gn2 , v052
	.byte	W32
	.byte	PEND
	.byte		N08   , Bn3 , v100
	.byte	W72
	.byte		N04   , Gn3 
	.byte	W16
	.byte		        Gn2 , v076
	.byte	W08
	.byte	PEND
	.byte	W40
	.byte		N04   , Gn3 , v100
	.byte	W32
	.byte		        Dn4 , v112
	.byte	W24
	.byte	PEND
	.byte	PATT
	 .word	seq_008_6 + 0xA
	.byte	PATT
	 .word	seq_008_6 + 0x15
	.byte	PATT
	 .word	seq_008_6 + 0x1E
	.byte	W40
	.byte		N04   , Gn3 , v100
	.byte	W32
	.byte		        Dn4 , v084
	.byte	W24
	.byte	PATT
	 .word	seq_008_6 + 0xA
	.byte	PATT
	 .word	seq_008_6 + 0x15
	.byte	PATT
	 .word	seq_008_6 + 0x1E
	.byte	PATT
	 .word	seq_008_6 + 0x29
	.byte	PATT
	 .word	seq_008_6 + 0xA
	.byte	PATT
	 .word	seq_008_6 + 0x15
	.byte	PATT
	 .word	seq_008_6 + 0x1E
	.byte	PATT
	 .word	seq_008_6 + 0x29
	.byte	GOTO
	 .word	seq_008_6 + 0xA
	.byte	FINE

@*********************** Track 08 ***********************@

seq_008_7:
	.byte	KEYSH , seq_008_key+0
	.byte	W07
	.byte		VOICE , 10
	.byte		VOL   , 23*seq_008_mvl/mxv
	.byte		PAN   , c_v+63
	.byte	W17
	.byte	W08
	.byte		N08   , Gn3 , v127
	.byte	W72
	.byte		N04   , Dn3 , v100
	.byte	W16
	.byte	PEND
	.byte		N04   , Dn2 , v076
	.byte	W48
	.byte		        Dn3 , v100
	.byte	W24
	.byte		        Gn2 , v052
	.byte	W24
	.byte	PEND
	.byte	W08
	.byte		N08   , Bn3 , v127
	.byte	W72
	.byte		N04   , Gn3 , v100
	.byte	W16
	.byte	PEND
	.byte		N04   , Gn2 , v076
	.byte	W48
	.byte		        Gn3 , v100
	.byte	W32
	.byte		        Dn4 , v112
	.byte	W16
	.byte	PEND
	.byte	PATT
	 .word	seq_008_7 + 0xA
	.byte	PATT
	 .word	seq_008_7 + 0x14
	.byte	PATT
	 .word	seq_008_7 + 0x1F
	.byte	PATT
	 .word	seq_008_7 + 0x29
	.byte	PATT
	 .word	seq_008_7 + 0xA
	.byte	PATT
	 .word	seq_008_7 + 0x14
	.byte	PATT
	 .word	seq_008_7 + 0x1F
	.byte	PATT
	 .word	seq_008_7 + 0x29
	.byte	PATT
	 .word	seq_008_7 + 0xA
	.byte	PATT
	 .word	seq_008_7 + 0x14
	.byte	PATT
	 .word	seq_008_7 + 0x1F
	.byte	PATT
	 .word	seq_008_7 + 0x29
	.byte	GOTO
	 .word	seq_008_7 + 0xA
	.byte	FINE

@*********************** Track 09 ***********************@

seq_008_8:
	.byte	KEYSH , seq_008_key+0
	.byte	W08
	.byte		VOICE , 10
	.byte		VOL   , 23*seq_008_mvl/mxv
	.byte		PAN   , c_v-63
	.byte	W16
	.byte	W48
	.byte		N04   , Dn3 , v100
	.byte	W24
	.byte		        Gn2 , v052
	.byte	W24
	.byte	PEND
	.byte	W08
	.byte		N08   , Gn3 , v127
	.byte	W72
	.byte		N04   , Dn3 , v100
	.byte	W16
	.byte	PEND
	.byte		N04   , Dn2 , v076
	.byte	W48
	.byte		        Gn3 , v100
	.byte	W24
	.byte		        Dn3 , v052
	.byte	W24
	.byte	PEND
	.byte	W08
	.byte		N08   , Bn3 , v127
	.byte	W64
	.byte		N04   , Dn4 , v092
	.byte	W24
	.byte	PEND
	.byte	PATT
	 .word	seq_008_8 + 0xA
	.byte	PATT
	 .word	seq_008_8 + 0x13
	.byte	PATT
	 .word	seq_008_8 + 0x1D
	.byte	PATT
	 .word	seq_008_8 + 0x28
	.byte	PATT
	 .word	seq_008_8 + 0xA
	.byte	PATT
	 .word	seq_008_8 + 0x13
	.byte	PATT
	 .word	seq_008_8 + 0x1D
	.byte	PATT
	 .word	seq_008_8 + 0x28
	.byte	PATT
	 .word	seq_008_8 + 0xA
	.byte	PATT
	 .word	seq_008_8 + 0x13
	.byte	PATT
	 .word	seq_008_8 + 0x1D
	.byte	PATT
	 .word	seq_008_8 + 0x28
	.byte	GOTO
	 .word	seq_008_8 + 0xA
	.byte	FINE

@******************************************************@

	.align	2

seq_008:
	.byte	9	@ NumTrks
	.byte	0	@ NumBlks
	.byte	seq_008_pri	@ Priority
	.byte	seq_008_rev	@ Reverb

	.word	seq_008_grp

	.word	seq_008_0
	.word	seq_008_1
	.word	seq_008_2
	.word	seq_008_3
	.word	seq_008_4
	.word	seq_008_5
	.word	seq_008_6
	.word	seq_008_7
	.word	seq_008_8

	.end
