@ File generated by m4a2s Song-Module
	.include "MPlayDef.s"

	.equ	seq_205_grp, bank_025
	.equ	seq_205_pri, 50
	.equ	seq_205_rev, 198
	.equ	seq_205_mvl, 127
	.equ	seq_205_key, 0

	.section .rodata
	.global	seq_205
	.align	2

@*********************** Track 01 ***********************@

seq_205_0:
	.byte	KEYSH , seq_205_key+0
	.byte	TEMPO , 128/2
	.byte		VOICE , 7
	.byte	W01
	.byte		VOL   , 113*seq_205_mvl/mxv
	.byte	W01
	.byte		PAN   , c_v+0
	.byte	W01
	.byte		MODT  , mod_tre
	.byte	W03
	.byte		MOD   , 70
	.byte	W06
	.byte		N05   , Bn3 , v127
	.byte	W17
	.byte		N03   , Bn3 , v104
	.byte	W07
	.byte		N30
	.byte	W48
	.byte		N05
	.byte	W08
	.byte		N04   , Cn4 , v096
	.byte	W08
	.byte		        Dn4 
	.byte	W08
	.byte		N08   , Gn4 , v120
	.byte	W08
	.byte	FINE

@*********************** Track 02 ***********************@

seq_205_1:
	.byte	KEYSH , seq_205_key+0
	.byte		VOICE , 7
	.byte	W01
	.byte		VOL   , 103*seq_205_mvl/mxv
	.byte	W01
	.byte		PAN   , c_v+0
	.byte	W01
	.byte		MODT  , mod_pan
	.byte	W03
	.byte		MOD   , 50
	.byte	W06
	.byte		N04   , Gn3 , v112
	.byte	W17
	.byte		N03   , Gn3 , v096
	.byte	W07
	.byte		N30   , Gn3 , v100
	.byte	W48
	.byte		N04   , Gn3 , v092
	.byte	W08
	.byte		        An3 , v088
	.byte	W08
	.byte		N03   , Bn3 
	.byte	W08
	.byte		N08   , Dn4 , v096
	.byte	W08
	.byte	FINE

@*********************** Track 03 ***********************@

seq_205_2:
	.byte	KEYSH , seq_205_key+0
	.byte		VOICE , 120
	.byte	W01
	.byte		VOL   , 118*seq_205_mvl/mxv
	.byte	W01
	.byte		PAN   , c_v+0
	.byte	W10
	.byte		N08   , Gn1 , v060
	.byte	W36
	.byte		N02   , Dn2 , v120
	.byte	W04
	.byte		        Dn2 , v060
	.byte	W03
	.byte		        Dn2 , v100
	.byte	W05
	.byte		N08   , Dn2 , v127
	.byte	W11
	.byte		N02   , Dn2 , v092
	.byte	W04
	.byte		        Dn2 , v088
	.byte	W04
	.byte		        Dn2 , v116
	.byte	W05
	.byte		N10   , Dn2 , v120
	.byte	W11
	.byte		N02   , Dn2 , v076
	.byte	W04
	.byte		        Dn2 , v072
	.byte	W04
	.byte		        Dn2 , v100
	.byte	W05
	.byte		N09   , Gn1 , v120
	.byte	W09
	.byte	FINE

@*********************** Track 04 ***********************@

seq_205_3:
	.byte	KEYSH , seq_205_key+0
	.byte	W06
	.byte		VOICE , 78
	.byte	W01
	.byte		VOL   , 85*seq_205_mvl/mxv
	.byte	W01
	.byte		PAN   , c_v+63
	.byte	W04
	.byte		N04   , Bn1 , v112
	.byte	W17
	.byte		N03   , Bn1 , v096
	.byte	W07
	.byte		N30   , Bn1 , v100
	.byte	W48
	.byte		N04   , Gn2 , v092
	.byte	W08
	.byte		        Gn2 , v088
	.byte	W08
	.byte		N03   , Fs2 
	.byte	W08
	.byte		N08   , Gn2 , v096
	.byte	W08
	.byte	FINE

@*********************** Track 05 ***********************@

seq_205_4:
	.byte	KEYSH , seq_205_key+0
	.byte	W06
	.byte		VOICE , 93
	.byte	W01
	.byte		VOL   , 94*seq_205_mvl/mxv
	.byte	W01
	.byte		PAN   , c_v+0
	.byte	W04
	.byte		N04   , Dn3 , v112
	.byte	W17
	.byte		N03   , Dn3 , v096
	.byte	W07
	.byte		N30   , Dn3 , v100
	.byte	W48
	.byte		N04   , Dn3 , v092
	.byte	W08
	.byte		        Cn3 , v088
	.byte	W08
	.byte		N03   , Bn2 
	.byte	W08
	.byte		N08   , Gn2 , v096
	.byte	W08
	.byte	FINE

@******************************************************@

	.align	2

seq_205:
	.byte	5	@ NumTrks
	.byte	0	@ NumBlks
	.byte	seq_205_pri	@ Priority
	.byte	seq_205_rev	@ Reverb

	.word	seq_205_grp

	.word	seq_205_0
	.word	seq_205_1
	.word	seq_205_2
	.word	seq_205_3
	.word	seq_205_4

	.end
