@ File generated by m4a2s Song-Module
	.include "MPlayDef.s"

	.equ	seq_015_grp, bank_000
	.equ	seq_015_pri, 50
	.equ	seq_015_rev, 198
	.equ	seq_015_mvl, 127
	.equ	seq_015_key, 0

	.section .rodata
	.global	seq_015
	.align	2

@*********************** Track 01 ***********************@

seq_015_0:
	.byte	KEYSH , seq_015_key+0
	.byte	TEMPO , 94/2
	.byte		VOICE , 93
	.byte	W01
	.byte		VOL   , 65*seq_015_mvl/mxv
	.byte	W01
	.byte		PAN   , c_v+0
	.byte	W01
	.byte		BENDR , 12
	.byte	W20
	.byte		VOICE , 41
	.byte	W01
	.byte		N05   , Dn2 , v127
	.byte	W11
	.byte		VOICE , 25
	.byte	W01
	.byte		N03   , Dn4 
	.byte	W03
	.byte		        Dn4 , v048
	.byte	W03
	.byte		        Dn4 , v020
	.byte	W18
	.byte		        Dn4 , v127
	.byte	W03
	.byte		        Dn4 , v048
	.byte	W03
	.byte		        Dn4 , v020
	.byte	W06
	.byte		        Dn3 , v072
	.byte	W03
	.byte		        Dn3 , v048
	.byte	W03
	.byte		        Dn3 , v020
	.byte	W06
	.byte		        Dn4 , v127
	.byte	W03
	.byte		        Dn4 , v048
	.byte	W03
	.byte		        Dn4 , v020
	.byte	W05
	.byte		VOICE , 41
	.byte	W01
	.byte		N05   , Dn2 , v127
	.byte	W11
	.byte		VOICE , 25
	.byte	W01
	.byte		N03   , Dn4 
	.byte	W03
	.byte		        Dn4 , v048
	.byte	W03
	.byte		        Dn4 , v020
	.byte	W18
	.byte		        Dn4 , v127
	.byte	W03
	.byte		        Dn4 , v048
	.byte	W03
	.byte		        Dn4 , v020
	.byte	W06
	.byte		        Dn3 , v072
	.byte	W03
	.byte		        Dn3 , v048
	.byte	W03
	.byte		        Dn3 , v020
	.byte	W06
	.byte		        Dn4 , v127
	.byte	W03
	.byte		        Dn4 , v048
	.byte	W03
	.byte		        Dn4 , v020
	.byte	W05
	.byte		VOICE , 41
	.byte	W01
	.byte	PEND
	.byte		N05   , Dn2 , v127
	.byte	W11
	.byte		VOICE , 25
	.byte	W01
	.byte		N03   , Dn4 
	.byte	W03
	.byte		        Dn4 , v048
	.byte	W03
	.byte		        Dn4 , v020
	.byte	W18
	.byte		        Dn4 , v127
	.byte	W03
	.byte		        Dn4 , v048
	.byte	W03
	.byte		        Dn4 , v020
	.byte	W06
	.byte		        Dn3 , v072
	.byte	W03
	.byte		        Dn3 , v048
	.byte	W03
	.byte		        Dn3 , v020
	.byte	W06
	.byte		        Dn4 , v127
	.byte	W03
	.byte		        Dn4 , v048
	.byte	W03
	.byte		        Dn4 , v020
	.byte	W05
	.byte		VOICE , 41
	.byte	W01
	.byte		N05   , Dn2 , v127
	.byte	W11
	.byte		VOICE , 25
	.byte	W01
	.byte		N03   , Dn4 
	.byte	W03
	.byte		        Dn4 , v048
	.byte	W03
	.byte		        Dn4 , v020
	.byte	W05
	.byte		VOICE , 41
	.byte		BEND  , c_v-38
	.byte	W01
	.byte		N24   , Dn3 , v072
	.byte	W01
	.byte		BEND  , c_v-30
	.byte	W01
	.byte		        c_v-24
	.byte	W01
	.byte		        c_v-18
	.byte	W02
	.byte		        c_v+0
	.byte	W01
	.byte		        c_v+2
	.byte	W01
	.byte		        c_v+1
	.byte	W01
	.byte		        c_v-7
	.byte	W01
	.byte		        c_v-17
	.byte	W01
	.byte		        c_v-29
	.byte	W01
	.byte		        c_v-64
	.byte	W12
	.byte		VOICE , 41
	.byte		BEND  , c_v+0
	.byte	W01
	.byte	PEND
	.byte		N05   , Ds2 , v127
	.byte	W11
	.byte		VOICE , 25
	.byte	W01
	.byte		N03   , Ds4 
	.byte	W03
	.byte		        Ds4 , v048
	.byte	W03
	.byte		        Ds4 , v020
	.byte	W18
	.byte		        Ds4 , v127
	.byte	W03
	.byte		        Ds4 , v048
	.byte	W03
	.byte		        Ds4 , v020
	.byte	W06
	.byte		        Ds3 , v072
	.byte	W03
	.byte		        Ds3 , v048
	.byte	W03
	.byte		        Ds3 , v020
	.byte	W06
	.byte		        Ds4 , v127
	.byte	W03
	.byte		        Ds4 , v048
	.byte	W03
	.byte		        Ds4 , v020
	.byte	W05
	.byte		VOICE , 41
	.byte	W01
	.byte		N05   , Ds2 , v127
	.byte	W11
	.byte		VOICE , 25
	.byte	W01
	.byte		N03   , Ds4 
	.byte	W03
	.byte		        Ds4 , v048
	.byte	W03
	.byte		        Ds4 , v020
	.byte	W18
	.byte		        Ds4 , v127
	.byte	W03
	.byte		        Ds4 , v048
	.byte	W03
	.byte		        Ds4 , v020
	.byte	W06
	.byte		        Ds3 , v072
	.byte	W03
	.byte		        Ds3 , v048
	.byte	W03
	.byte		        Ds3 , v020
	.byte	W06
	.byte		        Ds4 , v127
	.byte	W03
	.byte		        Ds4 , v048
	.byte	W03
	.byte		        Ds4 , v020
	.byte	W05
	.byte		VOICE , 41
	.byte	W01
	.byte	PEND
	.byte		N05   , Ds2 , v127
	.byte	W11
	.byte		VOICE , 25
	.byte	W01
	.byte		N03   , Ds4 
	.byte	W03
	.byte		        Ds4 , v048
	.byte	W03
	.byte		        Ds4 , v020
	.byte	W18
	.byte		        Ds4 , v127
	.byte	W03
	.byte		        Ds4 , v048
	.byte	W03
	.byte		        Ds4 , v020
	.byte	W06
	.byte		        Ds3 , v072
	.byte	W03
	.byte		        Ds3 , v048
	.byte	W03
	.byte		        Ds3 , v020
	.byte	W06
	.byte		        Ds4 , v127
	.byte	W03
	.byte		        Ds4 , v048
	.byte	W03
	.byte		        Ds4 , v020
	.byte	W05
	.byte		VOICE , 41
	.byte	W01
	.byte		N05   , Ds2 , v127
	.byte	W11
	.byte		VOICE , 25
	.byte	W01
	.byte		N03   , Ds4 
	.byte	W03
	.byte		        Ds4 , v048
	.byte	W03
	.byte		        Ds4 , v020
	.byte	W05
	.byte		VOICE , 41
	.byte		BEND  , c_v-38
	.byte	W01
	.byte		N24   , Ds3 , v072
	.byte	W01
	.byte		BEND  , c_v-30
	.byte	W01
	.byte		        c_v-24
	.byte	W01
	.byte		        c_v-18
	.byte	W02
	.byte		        c_v+0
	.byte	W01
	.byte		        c_v+2
	.byte	W01
	.byte		        c_v+1
	.byte	W01
	.byte		        c_v-7
	.byte	W01
	.byte		        c_v-17
	.byte	W01
	.byte		        c_v-29
	.byte	W01
	.byte		        c_v-64
	.byte	W12
	.byte		VOICE , 41
	.byte		BEND  , c_v+0
	.byte	W01
	.byte	PATT
	 .word	seq_015_0 + 0x13
	.byte	PATT
	 .word	seq_015_0 + 0x70
	.byte	PATT
	 .word	seq_015_0 + 0xD2
	.byte		N05   , Ds2 , v127
	.byte	W11
	.byte		VOICE , 25
	.byte	W01
	.byte		N03   , Ds4 
	.byte	W03
	.byte		        Ds4 , v048
	.byte	W03
	.byte		        Ds4 , v020
	.byte	W18
	.byte		        Ds4 , v127
	.byte	W03
	.byte		        Ds4 , v048
	.byte	W03
	.byte		        Ds4 , v020
	.byte	W06
	.byte		        Ds3 , v072
	.byte	W03
	.byte		        Ds3 , v048
	.byte	W03
	.byte		        Ds3 , v020
	.byte	W06
	.byte		        Ds4 , v127
	.byte	W03
	.byte		        Ds4 , v048
	.byte	W03
	.byte		        Ds4 , v020
	.byte	W05
	.byte		VOICE , 41
	.byte	W01
	.byte		N05   , Ds2 , v127
	.byte	W11
	.byte		VOICE , 25
	.byte	W01
	.byte		N03   , Ds4 
	.byte	W03
	.byte		        Ds4 , v048
	.byte	W03
	.byte		        Ds4 , v020
	.byte	W05
	.byte		VOICE , 41
	.byte		BEND  , c_v-38
	.byte	W01
	.byte		N24   , Ds3 , v072
	.byte	W01
	.byte		BEND  , c_v-30
	.byte	W01
	.byte		        c_v-24
	.byte	W01
	.byte		        c_v-18
	.byte	W02
	.byte		        c_v+0
	.byte	W01
	.byte		        c_v+2
	.byte	W01
	.byte		        c_v+1
	.byte	W01
	.byte		        c_v-7
	.byte	W01
	.byte		        c_v-17
	.byte	W01
	.byte		        c_v-29
	.byte	W01
	.byte		VOL   , 65*seq_015_mvl/mxv
	.byte		BEND  , c_v-64
	.byte	W01
	.byte		N06   , Gs2 , v127
	.byte	W01
	.byte		BEND  , c_v-9
	.byte	W01
	.byte		VOL   , 56*seq_015_mvl/mxv
	.byte		BEND  , c_v-7
	.byte	W01
	.byte		VOL   , 52*seq_015_mvl/mxv
	.byte		BEND  , c_v-4
	.byte	W01
	.byte		VOL   , 48*seq_015_mvl/mxv
	.byte		BEND  , c_v+4
	.byte	W01
	.byte		VOL   , 45*seq_015_mvl/mxv
	.byte		BEND  , c_v+4
	.byte	W01
	.byte		VOL   , 41*seq_015_mvl/mxv
	.byte		BEND  , c_v-2
	.byte		N06   , Gs2 , v060
	.byte	W01
	.byte		VOL   , 39*seq_015_mvl/mxv
	.byte		BEND  , c_v-8
	.byte	W01
	.byte		VOL   , 41*seq_015_mvl/mxv
	.byte		BEND  , c_v-14
	.byte	W01
	.byte		VOL   , 45*seq_015_mvl/mxv
	.byte		BEND  , c_v-20
	.byte	W01
	.byte		VOL   , 47*seq_015_mvl/mxv
	.byte	W01
	.byte		        65*seq_015_mvl/mxv
	.byte		BEND  , c_v+0
	.byte	W01
	.byte		N32   , Dn3 , v072
	.byte	W01
	.byte		BEND  , c_v-23
	.byte	W01
	.byte		        c_v-12
	.byte	W01
	.byte		        c_v-4
	.byte	W01
	.byte		        c_v+0
	.byte	W17
	.byte		VOL   , 59*seq_015_mvl/mxv
	.byte		BEND  , c_v-8
	.byte	W01
	.byte		VOL   , 57*seq_015_mvl/mxv
	.byte		BEND  , c_v-14
	.byte	W01
	.byte		VOL   , 55*seq_015_mvl/mxv
	.byte		BEND  , c_v-21
	.byte	W01
	.byte		VOL   , 53*seq_015_mvl/mxv
	.byte		BEND  , c_v-47
	.byte	W01
	.byte		VOL   , 51*seq_015_mvl/mxv
	.byte		BEND  , c_v-57
	.byte	W01
	.byte		VOL   , 48*seq_015_mvl/mxv
	.byte		BEND  , c_v-62
	.byte	W01
	.byte		VOL   , 40*seq_015_mvl/mxv
	.byte	W01
	.byte		        32*seq_015_mvl/mxv
	.byte	W01
	.byte		        24*seq_015_mvl/mxv
	.byte	W01
	.byte		        16*seq_015_mvl/mxv
	.byte	W01
	.byte		        8*seq_015_mvl/mxv
	.byte	W04
	.byte		        65*seq_015_mvl/mxv
	.byte	W84
	.byte		        65*seq_015_mvl/mxv
	.byte		BEND  , c_v-24
	.byte	W01
	.byte	PEND
	.byte	PATT
	 .word	seq_015_0 + 0x237
	.byte		N32   , Ds3 , v072
	.byte	W01
	.byte		BEND  , c_v-23
	.byte	W01
	.byte		        c_v-12
	.byte	W01
	.byte		        c_v-4
	.byte	W01
	.byte		        c_v+0
	.byte	W17
	.byte		VOL   , 59*seq_015_mvl/mxv
	.byte		BEND  , c_v-8
	.byte	W01
	.byte		VOL   , 57*seq_015_mvl/mxv
	.byte		BEND  , c_v-14
	.byte	W01
	.byte		VOL   , 55*seq_015_mvl/mxv
	.byte		BEND  , c_v-21
	.byte	W01
	.byte		VOL   , 53*seq_015_mvl/mxv
	.byte		BEND  , c_v-47
	.byte	W01
	.byte		VOL   , 51*seq_015_mvl/mxv
	.byte		BEND  , c_v-57
	.byte	W01
	.byte		VOL   , 48*seq_015_mvl/mxv
	.byte		BEND  , c_v-62
	.byte	W01
	.byte		VOL   , 40*seq_015_mvl/mxv
	.byte	W01
	.byte		        32*seq_015_mvl/mxv
	.byte	W01
	.byte		        24*seq_015_mvl/mxv
	.byte	W01
	.byte		        16*seq_015_mvl/mxv
	.byte	W01
	.byte		        8*seq_015_mvl/mxv
	.byte	W04
	.byte		        65*seq_015_mvl/mxv
	.byte	W84
	.byte		        65*seq_015_mvl/mxv
	.byte		BEND  , c_v-24
	.byte	W01
	.byte		N32
	.byte	W01
	.byte		BEND  , c_v-23
	.byte	W01
	.byte		        c_v-12
	.byte	W01
	.byte		        c_v-4
	.byte	W01
	.byte		        c_v+0
	.byte	W17
	.byte		VOL   , 59*seq_015_mvl/mxv
	.byte		BEND  , c_v-8
	.byte	W01
	.byte		VOL   , 57*seq_015_mvl/mxv
	.byte		BEND  , c_v-14
	.byte	W01
	.byte		VOL   , 55*seq_015_mvl/mxv
	.byte		BEND  , c_v-21
	.byte	W01
	.byte		VOL   , 53*seq_015_mvl/mxv
	.byte		BEND  , c_v-47
	.byte	W01
	.byte		VOL   , 51*seq_015_mvl/mxv
	.byte		BEND  , c_v-57
	.byte	W01
	.byte		VOL   , 48*seq_015_mvl/mxv
	.byte		BEND  , c_v-62
	.byte	W01
	.byte		VOL   , 40*seq_015_mvl/mxv
	.byte	W01
	.byte		        32*seq_015_mvl/mxv
	.byte	W01
	.byte		        24*seq_015_mvl/mxv
	.byte	W01
	.byte		        16*seq_015_mvl/mxv
	.byte	W01
	.byte		        8*seq_015_mvl/mxv
	.byte	W04
	.byte		        65*seq_015_mvl/mxv
	.byte	W12
	.byte		BEND  , c_v-18
	.byte	W01
	.byte		        c_v-15
	.byte		N24   , An2 , v052
	.byte	W02
	.byte		BEND  , c_v-10
	.byte	W02
	.byte		        c_v-5
	.byte	W02
	.byte		        c_v+0
	.byte	W09
	.byte		        c_v-4
	.byte	W02
	.byte		        c_v-7
	.byte	W02
	.byte		        c_v-16
	.byte	W01
	.byte		        c_v-24
	.byte	W03
	.byte		        c_v+0
	.byte	W01
	.byte		N05   , Ds2 , v072
	.byte	W48
	.byte		N06   , Dn2 , v127
	.byte	W12
	.byte		N04   , Gs2 
	.byte	W12
	.byte		N06   , Dn2 
	.byte	W12
	.byte		N04   , Gs2 
	.byte	W12
	.byte		N06   , Dn2 
	.byte	W12
	.byte		N04   , Gs2 
	.byte	W12
	.byte	PEND
	.byte		N06   , Dn2 , v127
	.byte	W12
	.byte		N04   , Gs2 
	.byte	W12
	.byte		N06   , Dn2 
	.byte	W12
	.byte		N04   , Gs2 
	.byte	W12
	.byte		N06   , Dn2 
	.byte	W06
	.byte		        Gs2 , v092
	.byte	W06
	.byte		        Dn2 , v127
	.byte	W06
	.byte		        Gs2 , v092
	.byte	W06
	.byte	PEND
	.byte		N06   , Ds2 , v127
	.byte	W12
	.byte		N04   , An2 
	.byte	W12
	.byte		N06   , Ds2 
	.byte	W12
	.byte		N04   , An2 
	.byte	W12
	.byte		N06   , Ds2 
	.byte	W12
	.byte		N04   , An2 
	.byte	W12
	.byte	PEND
	.byte		N06   , Ds2 
	.byte	W12
	.byte		N04   , An2 
	.byte	W12
	.byte		N06   , Ds2 
	.byte	W12
	.byte		N04   , An2 
	.byte	W12
	.byte		N06   , Ds2 
	.byte	W06
	.byte		        An2 , v092
	.byte	W06
	.byte		        Ds2 , v127
	.byte	W06
	.byte		        An2 , v092
	.byte	W06
	.byte	PATT
	 .word	seq_015_0 + 0x308
	.byte	PATT
	 .word	seq_015_0 + 0x31C
	.byte	PATT
	 .word	seq_015_0 + 0x336
	.byte		N06   , Ds2 , v127
	.byte	W12
	.byte		        As1 
	.byte	W12
	.byte		        Dn2 
	.byte	W12
	.byte		BEND  , c_v+9
	.byte		N12   , Ds2 , v072
	.byte	W03
	.byte		BEND  , c_v+5
	.byte	W01
	.byte		        c_v+3
	.byte	W01
	.byte		        c_v+0
	.byte	W01
	.byte		        c_v-5
	.byte	W01
	.byte		        c_v-10
	.byte	W01
	.byte		        c_v-16
	.byte	W01
	.byte		        c_v-28
	.byte	W01
	.byte		        c_v-31
	.byte	W01
	.byte		        c_v+0
	.byte	W24
	.byte	W01
	.byte	GOTO
	 .word	seq_015_0 + 0x13
	.byte W72, W72, W72
	.byte	FINE

@*********************** Track 02 ***********************@

seq_015_1:
	.byte	KEYSH , seq_015_key+0
	.byte		VOICE , 12
	.byte	W01
	.byte		VOL   , 65*seq_015_mvl/mxv
	.byte	W01
	.byte		PAN   , c_v+40
	.byte	W01
	.byte		BENDR , 2
	.byte	W21
	.byte	W96
	.byte	W48
	.byte	W96
	.byte	W24
	.byte	W96
	.byte	W48
	.byte	W96
	.byte	W24
	.byte		VOICE , 46
	.byte		VOL   , 65*seq_015_mvl/mxv
	.byte		PAN   , c_v+40
	.byte	W36
	.byte		N04   , Ds3 , v127
	.byte	W12
	.byte		        As3 
	.byte	W12
	.byte		        Fn3 
	.byte	W18
	.byte		        Gs3 , v080
	.byte	W12
	.byte		        Fs3 
	.byte	W18
	.byte		        Ds3 , v040
	.byte	W12
	.byte		        As3 
	.byte	W12
	.byte		        Fn3 
	.byte	W12
	.byte		VOICE , 12
	.byte		VOL   , 28*seq_015_mvl/mxv
	.byte	W06
	.byte		N04   , Gs4 , v112
	.byte	W12
	.byte		        Fs4 
	.byte	W18
	.byte		        Ds4 , v060
	.byte	W12
	.byte		        As4 
	.byte	W12
	.byte		        Fn4 
	.byte	W18
	.byte		        Gs4 , v020
	.byte	W12
	.byte		        Fs4 
	.byte	W30
	.byte		VOICE , 46
	.byte		VOL   , 65*seq_015_mvl/mxv
	.byte	W36
	.byte		N04   , Ds3 , v127
	.byte	W12
	.byte		        As3 
	.byte	W12
	.byte		        Fn3 
	.byte	W18
	.byte		        Gs3 , v080
	.byte	W12
	.byte		        Fs3 
	.byte	W18
	.byte		        Ds3 , v040
	.byte	W12
	.byte		        As3 
	.byte	W12
	.byte		        Fn3 
	.byte	W12
	.byte		VOICE , 12
	.byte		VOL   , 28*seq_015_mvl/mxv
	.byte	W06
	.byte		N04   , Gs4 , v112
	.byte	W12
	.byte		        Fs4 
	.byte	W18
	.byte		        Ds4 , v060
	.byte	W12
	.byte		        As4 
	.byte	W12
	.byte		        Fn4 
	.byte	W18
	.byte		        Gs4 , v020
	.byte	W12
	.byte		        Fs4 
	.byte	W28
	.byte	W01
	.byte		PAN   , c_v+0
	.byte	W01
	.byte	W12
	.byte		N06   , Dn4 , v127
	.byte	W24
	.byte		N06
	.byte	W24
	.byte		N06
	.byte	W12
	.byte		N08   , Dn3 
	.byte	W48
	.byte	PEND
	.byte	PATT
	 .word	seq_015_1 + 0x7C
	.byte	W12
	.byte		N06   , Ds4 , v127
	.byte	W24
	.byte		N06
	.byte	W24
	.byte		N06
	.byte	W12
	.byte		N08   , Ds3 
	.byte	W48
	.byte	W12
	.byte		N06   , Ds4 
	.byte	W24
	.byte		N06
	.byte	W24
	.byte		N06
	.byte	W12
	.byte		N08   , Ds3 
	.byte	W44
	.byte	W03
	.byte		VOICE , 45
	.byte		VOL   , 65*seq_015_mvl/mxv
	.byte		BEND  , c_v-64
	.byte	W01
	.byte		N48   , Dn4 , v112
	.byte	W04
	.byte		BEND  , c_v-62
	.byte	W01
	.byte		        c_v-55
	.byte	W01
	.byte		        c_v-48
	.byte	W01
	.byte		        c_v-36
	.byte	W01
	.byte		        c_v-24
	.byte	W01
	.byte		        c_v-12
	.byte	W01
	.byte		        c_v+0
	.byte	W28
	.byte		        c_v-4
	.byte	W02
	.byte		        c_v-11
	.byte	W01
	.byte		        c_v-14
	.byte	W01
	.byte		        c_v-17
	.byte	W01
	.byte		        c_v-21
	.byte	W01
	.byte		        c_v-24
	.byte	W01
	.byte		        c_v-29
	.byte	W01
	.byte		        c_v-45
	.byte	W07
	.byte		        c_v+0
	.byte	W01
	.byte		N03   , Gs3 , v100
	.byte	W03
	.byte		        Gs3 , v032
	.byte	W03
	.byte		        As3 , v120
	.byte	W03
	.byte		        As3 , v032
	.byte	W03
	.byte		        Cn4 , v080
	.byte	W03
	.byte		        Cn4 , v032
	.byte	W03
	.byte		        Dn4 , v120
	.byte	W03
	.byte		        Dn4 , v032
	.byte	W03
	.byte		N02   , As3 , v092
	.byte	W03
	.byte		        As3 , v032
	.byte	W03
	.byte		N03   , Cn4 , v120
	.byte	W03
	.byte		        Cn4 , v032
	.byte	W03
	.byte		N02   , Gs3 , v092
	.byte	W03
	.byte		        Gs3 , v032
	.byte	W03
	.byte		N03   , As3 , v120
	.byte	W03
	.byte		        As3 , v032
	.byte	W03
	.byte		N02   , Ds3 , v092
	.byte	W03
	.byte		        Ds3 , v032
	.byte	W02
	.byte		BEND  , c_v-54
	.byte	W01
	.byte		        c_v-44
	.byte		N12   , Fs3 , v120
	.byte	W01
	.byte		BEND  , c_v-33
	.byte	W01
	.byte		        c_v-22
	.byte	W01
	.byte		        c_v-11
	.byte	W01
	.byte		        c_v+0
	.byte	W08
	.byte		N03   , Gs3 
	.byte	W03
	.byte		        Gs3 , v032
	.byte	W03
	.byte		        Fs3 , v100
	.byte	W03
	.byte		        Fs3 , v032
	.byte	W03
	.byte		N06   , Fn3 , v092
	.byte	W06
	.byte		N03   , Ds3 , v112
	.byte	W03
	.byte		        Ds3 , v032
	.byte	W02
	.byte		BEND  , c_v-33
	.byte	W01
	.byte		        c_v-28
	.byte		N18   , Fs3 , v108
	.byte	W01
	.byte		BEND  , c_v-23
	.byte	W01
	.byte		        c_v-18
	.byte	W01
	.byte		        c_v-12
	.byte	W01
	.byte		        c_v+0
	.byte	W05
	.byte		        c_v-5
	.byte	W01
	.byte		        c_v-8
	.byte	W01
	.byte		        c_v-12
	.byte	W01
	.byte		        c_v-15
	.byte	W01
	.byte		        c_v-23
	.byte	W01
	.byte		        c_v-28
	.byte	W03
	.byte		        c_v+0
	.byte	W01
	.byte		N03   , As2 , v072
	.byte	W03
	.byte		        As2 , v032
	.byte	W03
	.byte		        Ds3 , v092
	.byte	W03
	.byte		        Ds3 , v032
	.byte	W03
	.byte		        Fs3 , v120
	.byte	W03
	.byte		        Fs3 , v032
	.byte	W03
	.byte		        As2 , v072
	.byte	W03
	.byte		        As2 , v032
	.byte	W03
	.byte		        Ds3 , v092
	.byte	W03
	.byte		        Ds3 , v032
	.byte	W03
	.byte		        Fs3 , v120
	.byte	W03
	.byte		        Fs3 , v032
	.byte	W03
	.byte		        As2 , v072
	.byte	W03
	.byte		        As2 , v032
	.byte	W03
	.byte		        Ds3 , v092
	.byte	W03
	.byte		        Ds3 , v032
	.byte	W03
	.byte		        Fs3 , v120
	.byte	W03
	.byte		        Fs3 , v032
	.byte	W03
	.byte		        Gs3 , v120
	.byte	W03
	.byte		        Gs3 , v032
	.byte	W03
	.byte		        Ds3 , v072
	.byte	W03
	.byte		        Ds3 , v032
	.byte	W03
	.byte		        Fs3 , v092
	.byte	W03
	.byte		        Fs3 , v032
	.byte	W03
	.byte		        Gs3 , v120
	.byte	W03
	.byte		        Gs3 , v032
	.byte	W03
	.byte		        As3 , v092
	.byte	W03
	.byte		        Cn4 , v060
	.byte	W03
	.byte		        Dn4 , v080
	.byte	W03
	.byte		        Ds4 , v100
	.byte	W02
	.byte		BEND  , c_v-20
	.byte	W01
	.byte		        c_v-17
	.byte		N20   , Fs4 , v120
	.byte	W01
	.byte		BEND  , c_v-14
	.byte	W01
	.byte		        c_v-11
	.byte	W01
	.byte		        c_v-8
	.byte	W01
	.byte		        c_v+0
	.byte	W16
	.byte		N02   , Fn4 , v088
	.byte	W02
	.byte		        Ds4 , v100
	.byte	W02
	.byte		        Dn4 , v112
	.byte	W02
	.byte		        Cn4 , v124
	.byte	W02
	.byte		        As3 , v104
	.byte	W02
	.byte		        Gs3 , v088
	.byte	W02
	.byte		        Fs3 , v068
	.byte	W02
	.byte		        Fn3 , v048
	.byte	W02
	.byte		N05   , Ds3 , v032
	.byte	W30
	.byte		N03   , Fs3 , v112
	.byte	W03
	.byte		        Fs3 , v032
	.byte	W03
	.byte		        Dn3 , v052
	.byte	W03
	.byte		        Dn3 , v032
	.byte	W03
	.byte		        Fs3 , v080
	.byte	W03
	.byte		        Fs3 , v032
	.byte	W03
	.byte		        As3 , v112
	.byte	W03
	.byte		        As3 , v032
	.byte	W03
	.byte		        Fs3 , v040
	.byte	W03
	.byte		        Fs3 , v032
	.byte	W03
	.byte		        As3 , v080
	.byte	W03
	.byte		        As3 , v032
	.byte	W03
	.byte		        Dn4 , v040
	.byte	W03
	.byte		        Dn4 , v032
	.byte	W03
	.byte		        Fs4 , v092
	.byte	W03
	.byte		        Fs4 , v072
	.byte	W03
	.byte		        Fs4 , v032
	.byte	W12
	.byte		        As3 , v112
	.byte	W03
	.byte		        As3 , v032
	.byte	W03
	.byte		        Fs3 , v052
	.byte	W03
	.byte		        Fs3 , v032
	.byte	W03
	.byte		        As3 , v080
	.byte	W03
	.byte		        As3 , v032
	.byte	W03
	.byte		        Dn4 , v112
	.byte	W03
	.byte		        Dn4 , v032
	.byte	W03
	.byte		        As3 , v040
	.byte	W03
	.byte		        As3 , v032
	.byte	W03
	.byte		        Dn4 , v080
	.byte	W03
	.byte		        Dn4 , v032
	.byte	W03
	.byte		        Fs4 , v040
	.byte	W03
	.byte		        Fs4 , v032
	.byte	W03
	.byte		        As4 , v092
	.byte	W03
	.byte		        As4 , v072
	.byte	W03
	.byte		        As4 , v032
	.byte	W06
	.byte		N02   , Dn5 , v036
	.byte	W03
	.byte		        Dn5 , v096
	.byte	W03
	.byte		        Dn5 , v064
	.byte	W03
	.byte		        Dn5 , v124
	.byte	W03
	.byte		        Dn5 , v080
	.byte	W03
	.byte		        Dn5 , v120
	.byte	W03
	.byte		        Dn5 , v064
	.byte	W03
	.byte		        Dn5 , v100
	.byte	W03
	.byte		        Dn5 , v048
	.byte	W03
	.byte		        Dn5 , v036
	.byte	W03
	.byte		N03   , Ds5 , v112
	.byte	W03
	.byte		        Ds5 , v032
	.byte	W03
	.byte		        Dn5 , v120
	.byte	W03
	.byte		        Dn5 , v032
	.byte	W03
	.byte		        Cn5 , v080
	.byte	W03
	.byte		        Cn5 , v032
	.byte	W03
	.byte		        As4 , v120
	.byte	W03
	.byte		        As4 , v032
	.byte	W03
	.byte		N02   , Gs4 , v072
	.byte	W03
	.byte		N03   , Gs4 , v032
	.byte	W03
	.byte		        As4 , v120
	.byte	W03
	.byte		        As4 , v032
	.byte	W03
	.byte		N02   , Ds4 , v072
	.byte	W03
	.byte		N03   , Ds4 , v032
	.byte	W03
	.byte		        Fs4 , v120
	.byte	W03
	.byte		        Fs4 , v032
	.byte	W03
	.byte		N02   , As3 , v072
	.byte	W03
	.byte		N03   , As3 , v032
	.byte	W03
	.byte		        Ds4 , v112
	.byte	W03
	.byte		        Ds4 , v032
	.byte	W03
	.byte		N02   , Gs3 , v072
	.byte	W03
	.byte		N03   , Gs3 , v032
	.byte	W03
	.byte		        As3 , v100
	.byte	W03
	.byte		        As3 , v032
	.byte	W03
	.byte		        Ds3 , v108
	.byte	W03
	.byte		        Ds3 , v032
	.byte	W02
	.byte		BEND  , c_v-20
	.byte	W01
	.byte		        c_v-17
	.byte		N12   , Fs3 , v080
	.byte	W01
	.byte		BEND  , c_v-14
	.byte	W01
	.byte		        c_v-11
	.byte	W01
	.byte		        c_v-8
	.byte	W01
	.byte		        c_v+0
	.byte	W08
	.byte		N03   , Gs3 , v120
	.byte	W03
	.byte		        Gs3 , v032
	.byte	W03
	.byte		        Fs3 , v088
	.byte	W03
	.byte		        Fs3 , v032
	.byte	W03
	.byte		N12   , Fn3 , v112
	.byte	W12
	.byte	GOTO
	 .word	seq_015_1 + 0xE
	.byte W72, W72, W72
	.byte	FINE

@*********************** Track 03 ***********************@

seq_015_2:
	.byte	KEYSH , seq_015_key+0
	.byte		VOICE , 12
	.byte	W01
	.byte		VOL   , 65*seq_015_mvl/mxv
	.byte	W01
	.byte		PAN   , c_v-40
	.byte	W22
	.byte	W96
	.byte	W48
	.byte	W96
	.byte	W24
	.byte	W96
	.byte	W48
	.byte	W96
	.byte	W24
	.byte		VOL   , 65*seq_015_mvl/mxv
	.byte		PAN   , c_v-40
	.byte	W24
	.byte		VOICE , 46
	.byte	W18
	.byte		N04   , Gs3 , v127
	.byte	W12
	.byte		        Fs3 
	.byte	W18
	.byte		        Ds3 , v080
	.byte	W12
	.byte		        As3 
	.byte	W12
	.byte		        Fn3 
	.byte	W18
	.byte		        Gs3 , v040
	.byte	W12
	.byte		        Fs3 
	.byte	W17
	.byte		VOICE , 12
	.byte		VOL   , 28*seq_015_mvl/mxv
	.byte	W01
	.byte		N04   , Ds4 , v112
	.byte	W12
	.byte		        As4 
	.byte	W12
	.byte		        Fn4 
	.byte	W18
	.byte		        Gs4 , v060
	.byte	W12
	.byte		        Fs4 
	.byte	W18
	.byte		        Ds4 , v020
	.byte	W12
	.byte		        As4 
	.byte	W12
	.byte		        Fn4 
	.byte	W24
	.byte		VOL   , 65*seq_015_mvl/mxv
	.byte	W24
	.byte		VOICE , 46
	.byte	W18
	.byte		N04   , Gs3 , v127
	.byte	W12
	.byte		        Fs3 
	.byte	W18
	.byte		        Ds3 , v080
	.byte	W12
	.byte		        As3 
	.byte	W12
	.byte		        Fn3 
	.byte	W18
	.byte		        Gs3 , v040
	.byte	W12
	.byte		        Fs3 
	.byte	W17
	.byte		VOICE , 12
	.byte		VOL   , 28*seq_015_mvl/mxv
	.byte	W01
	.byte		N04   , Ds4 , v112
	.byte	W12
	.byte		        As4 
	.byte	W12
	.byte		        Fn4 
	.byte	W18
	.byte		        Gs4 , v060
	.byte	W12
	.byte		        Fs4 
	.byte	W18
	.byte		        Ds4 , v020
	.byte	W12
	.byte		        As4 
	.byte	W12
	.byte		        Fn4 
	.byte	W23
	.byte		PAN   , c_v+0
	.byte	W01
	.byte		N12   , Dn3 , v127
	.byte	W12
	.byte		N06   , Gs3 
	.byte	W24
	.byte		N06
	.byte	W24
	.byte		N06
	.byte	W12
	.byte		N08   , Gs2 
	.byte	W48
	.byte	PEND
	.byte	PATT
	 .word	seq_015_2 + 0x7A
	.byte		N12   , Ds3 , v127
	.byte	W12
	.byte		N06   , An3 
	.byte	W24
	.byte		N06
	.byte	W24
	.byte		N06
	.byte	W12
	.byte		N08   , An2 
	.byte	W48
	.byte	PEND
	.byte	PATT
	 .word	seq_015_2 + 0x8E
	.byte	W72
	.byte	W72
	.byte	W72
	.byte	W72
	.byte	W72
	.byte	W72
	.byte	W72
	.byte	W72
	.byte	GOTO
	 .word	seq_015_2 + 0xB
	.byte W72, W72, W72
	.byte	FINE

@*********************** Track 04 ***********************@

seq_015_3:
	.byte	KEYSH , seq_015_key+0
	.byte	W06
	.byte		VOICE , 95
	.byte	W01
	.byte		VOL   , 65*seq_015_mvl/mxv
	.byte	W01
	.byte		PAN   , c_v-20
	.byte	W16
	.byte	W12
	.byte		N03   , Dn3 , v127
	.byte	W06
	.byte		        Dn3 , v032
	.byte	W06
	.byte		        Dn3 , v020
	.byte	W06
	.byte		        Dn3 , v008
	.byte	W06
	.byte		        Dn3 , v127
	.byte	W06
	.byte		        Dn3 , v032
	.byte	W06
	.byte		        Dn3 , v020
	.byte	W06
	.byte		        Dn3 , v008
	.byte	W06
	.byte		        Dn3 , v127
	.byte	W06
	.byte		        Dn3 , v032
	.byte	W18
	.byte		        Dn3 , v127
	.byte	W06
	.byte		        Dn3 , v032
	.byte	W06
	.byte		        Dn3 , v020
	.byte	W06
	.byte		        Dn3 , v008
	.byte	W06
	.byte		        Dn3 , v127
	.byte	W06
	.byte		        Dn3 , v032
	.byte	W06
	.byte		        Dn3 , v020
	.byte	W06
	.byte		        Dn3 , v008
	.byte	W06
	.byte		        Dn3 , v127
	.byte	W06
	.byte		        Dn3 , v032
	.byte	W06
	.byte	PEND
	.byte	W12
	.byte		N03   , Dn3 , v127
	.byte	W06
	.byte		        Dn3 , v032
	.byte	W06
	.byte		        Dn3 , v020
	.byte	W06
	.byte		        Dn3 , v008
	.byte	W06
	.byte		        Dn3 , v127
	.byte	W06
	.byte		        Dn3 , v032
	.byte	W06
	.byte		        Dn3 , v020
	.byte	W06
	.byte		        Dn3 , v008
	.byte	W06
	.byte		        Dn3 , v127
	.byte	W06
	.byte		        Dn3 , v032
	.byte	W18
	.byte		        Dn3 , v127
	.byte	W06
	.byte		        Dn3 , v032
	.byte	W06
	.byte		        Dn3 , v020
	.byte	W06
	.byte		        Dn3 , v008
	.byte	W06
	.byte		        Dn3 , v127
	.byte	W06
	.byte		        Dn3 , v032
	.byte	W06
	.byte	PEND
	.byte	W12
	.byte		N03   , Ds3 , v127
	.byte	W06
	.byte		        Ds3 , v032
	.byte	W06
	.byte		        Ds3 , v020
	.byte	W06
	.byte		        Ds3 , v008
	.byte	W06
	.byte		        Ds3 , v127
	.byte	W06
	.byte		        Ds3 , v032
	.byte	W06
	.byte		        Ds3 , v020
	.byte	W06
	.byte		        Ds3 , v008
	.byte	W06
	.byte		        Ds3 , v127
	.byte	W06
	.byte		        Ds3 , v032
	.byte	W18
	.byte		        Ds3 , v127
	.byte	W06
	.byte		        Ds3 , v032
	.byte	W06
	.byte		        Ds3 , v020
	.byte	W06
	.byte		        Ds3 , v008
	.byte	W06
	.byte		        Ds3 , v127
	.byte	W06
	.byte		        Ds3 , v032
	.byte	W06
	.byte		        Ds3 , v020
	.byte	W06
	.byte		        Ds3 , v008
	.byte	W06
	.byte		        Ds3 , v127
	.byte	W06
	.byte		        Ds3 , v032
	.byte	W06
	.byte	PEND
	.byte	W12
	.byte		N03   , Ds3 , v127
	.byte	W06
	.byte		        Ds3 , v032
	.byte	W06
	.byte		        Ds3 , v020
	.byte	W06
	.byte		        Ds3 , v008
	.byte	W06
	.byte		        Ds3 , v127
	.byte	W06
	.byte		        Ds3 , v032
	.byte	W06
	.byte		        Ds3 , v020
	.byte	W06
	.byte		        Ds3 , v008
	.byte	W06
	.byte		        Ds3 , v127
	.byte	W06
	.byte		        Ds3 , v032
	.byte	W18
	.byte		        Ds3 , v127
	.byte	W06
	.byte		        Ds3 , v032
	.byte	W06
	.byte		        Ds3 , v020
	.byte	W06
	.byte		        Ds3 , v008
	.byte	W06
	.byte		        Ds3 , v127
	.byte	W06
	.byte		        Ds3 , v032
	.byte	W06
	.byte	PEND
	.byte	PATT
	 .word	seq_015_3 + 0xC
	.byte	PATT
	 .word	seq_015_3 + 0x4B
	.byte	PATT
	 .word	seq_015_3 + 0x7E
	.byte	PATT
	 .word	seq_015_3 + 0xBD
	.byte	W96
	.byte	W24
	.byte	W96
	.byte	W24
	.byte	W96
	.byte	W24
	.byte	W96
	.byte	W24
	.byte	W12
	.byte		N03   , Dn3 , v127
	.byte	W06
	.byte		        Dn3 , v032
	.byte	W06
	.byte		        Dn3 , v127
	.byte	W06
	.byte		        Dn3 , v032
	.byte	W06
	.byte		        Dn3 , v127
	.byte	W06
	.byte		        Dn3 , v032
	.byte	W06
	.byte		        Dn3 , v127
	.byte	W06
	.byte		        Dn3 , v032
	.byte	W06
	.byte		        Dn3 , v127
	.byte	W06
	.byte		        Dn3 , v032
	.byte	W06
	.byte	PEND
	.byte	PATT
	 .word	seq_015_3 + 0x10C
	.byte	W12
	.byte		N03   , Ds3 , v127
	.byte	W06
	.byte		        Ds3 , v032
	.byte	W06
	.byte		        Ds3 , v127
	.byte	W06
	.byte		        Ds3 , v032
	.byte	W06
	.byte		        Ds3 , v127
	.byte	W06
	.byte		        Ds3 , v032
	.byte	W06
	.byte		        Ds3 , v127
	.byte	W06
	.byte		        Ds3 , v032
	.byte	W06
	.byte		        Ds3 , v127
	.byte	W06
	.byte		        Ds3 , v032
	.byte	W06
	.byte	PEND
	.byte	PATT
	 .word	seq_015_3 + 0x132
	.byte	PATT
	 .word	seq_015_3 + 0x10C
	.byte	PATT
	 .word	seq_015_3 + 0x10C
	.byte	PATT
	 .word	seq_015_3 + 0x132
	.byte	W12
	.byte		N03   , Ds3 , v127
	.byte	W06
	.byte		        Ds3 , v032
	.byte	W06
	.byte		        Ds3 , v127
	.byte	W06
	.byte		        Ds3 , v032
	.byte	W06
	.byte		        Ds3 , v127
	.byte	W12
	.byte		        Fn3 
	.byte	W06
	.byte		        Ds3 
	.byte	W06
	.byte		N12   , Dn3 
	.byte	W12
	.byte	GOTO
	 .word	seq_015_3 + 0xC
	.byte W72, W72, W72
	.byte	FINE

@*********************** Track 05 ***********************@

seq_015_4:
	.byte	KEYSH , seq_015_key+0
	.byte	W06
	.byte		VOICE , 95
	.byte	W01
	.byte		VOL   , 65*seq_015_mvl/mxv
	.byte	W01
	.byte		PAN   , c_v+20
	.byte	W16
	.byte	W12
	.byte		N03   , Gs2 , v127
	.byte	W06
	.byte		        Gs2 , v032
	.byte	W06
	.byte		        Gs2 , v020
	.byte	W06
	.byte		        Gs2 , v008
	.byte	W06
	.byte		        Gs2 , v127
	.byte	W06
	.byte		        Gs2 , v032
	.byte	W06
	.byte		        Gs2 , v020
	.byte	W06
	.byte		        Gs2 , v008
	.byte	W06
	.byte		        Gs2 , v127
	.byte	W06
	.byte		        Gs2 , v032
	.byte	W18
	.byte		        Gs2 , v127
	.byte	W06
	.byte		        Gs2 , v032
	.byte	W06
	.byte		        Gs2 , v020
	.byte	W06
	.byte		        Gs2 , v008
	.byte	W06
	.byte		        Gs2 , v127
	.byte	W06
	.byte		        Gs2 , v032
	.byte	W06
	.byte		        Gs2 , v020
	.byte	W06
	.byte		        Gs2 , v008
	.byte	W06
	.byte		        Gs2 , v127
	.byte	W06
	.byte		        Gs2 , v032
	.byte	W06
	.byte	PEND
	.byte	W12
	.byte		N03   , Gs2 , v127
	.byte	W06
	.byte		        Gs2 , v032
	.byte	W06
	.byte		        Gs2 , v020
	.byte	W06
	.byte		        Gs2 , v008
	.byte	W06
	.byte		        Gs2 , v127
	.byte	W06
	.byte		        Gs2 , v032
	.byte	W06
	.byte		        Gs2 , v020
	.byte	W06
	.byte		        Gs2 , v008
	.byte	W06
	.byte		        Gs2 , v127
	.byte	W06
	.byte		        Gs2 , v032
	.byte	W18
	.byte		        Gs2 , v127
	.byte	W06
	.byte		        Gs2 , v032
	.byte	W06
	.byte		        Gs2 , v020
	.byte	W06
	.byte		        Gs2 , v008
	.byte	W06
	.byte		        Gs2 , v127
	.byte	W06
	.byte		        Gs2 , v032
	.byte	W06
	.byte	PEND
	.byte	W12
	.byte		N03   , An2 , v127
	.byte	W06
	.byte		        An2 , v032
	.byte	W06
	.byte		        An2 , v020
	.byte	W06
	.byte		        An2 , v008
	.byte	W06
	.byte		        An2 , v127
	.byte	W06
	.byte		        An2 , v032
	.byte	W06
	.byte		        An2 , v020
	.byte	W06
	.byte		        An2 , v008
	.byte	W06
	.byte		        An2 , v127
	.byte	W06
	.byte		        An2 , v032
	.byte	W18
	.byte		        An2 , v127
	.byte	W06
	.byte		        An2 , v032
	.byte	W06
	.byte		        An2 , v020
	.byte	W06
	.byte		        An2 , v008
	.byte	W06
	.byte		        An2 , v127
	.byte	W06
	.byte		        An2 , v032
	.byte	W06
	.byte		        An2 , v020
	.byte	W06
	.byte		        An2 , v008
	.byte	W06
	.byte		        An2 , v127
	.byte	W06
	.byte		        An2 , v032
	.byte	W06
	.byte	PEND
	.byte	W12
	.byte		N03   , An2 , v127
	.byte	W06
	.byte		        An2 , v032
	.byte	W06
	.byte		        An2 , v020
	.byte	W06
	.byte		        An2 , v008
	.byte	W06
	.byte		        An2 , v127
	.byte	W06
	.byte		        An2 , v032
	.byte	W06
	.byte		        An2 , v020
	.byte	W06
	.byte		        An2 , v008
	.byte	W06
	.byte		        An2 , v127
	.byte	W06
	.byte		        An2 , v032
	.byte	W18
	.byte		        An2 , v127
	.byte	W06
	.byte		        An2 , v032
	.byte	W06
	.byte		        An2 , v020
	.byte	W06
	.byte		        An2 , v008
	.byte	W06
	.byte		        An2 , v127
	.byte	W06
	.byte		        An2 , v032
	.byte	W06
	.byte	PEND
	.byte	PATT
	 .word	seq_015_4 + 0xC
	.byte	PATT
	 .word	seq_015_4 + 0x4B
	.byte	PATT
	 .word	seq_015_4 + 0x7E
	.byte	PATT
	 .word	seq_015_4 + 0xBD
	.byte	W96
	.byte	W24
	.byte	W96
	.byte	W24
	.byte	W96
	.byte	W24
	.byte	W96
	.byte	W24
	.byte		N12   , Dn2 , v072
	.byte	W12
	.byte		N03   , Gs2 , v127
	.byte	W06
	.byte		        Gs2 , v032
	.byte	W06
	.byte		        Gs2 , v127
	.byte	W06
	.byte		        Gs2 , v032
	.byte	W06
	.byte		        Gs2 , v127
	.byte	W06
	.byte		        Gs2 , v032
	.byte	W06
	.byte		        Gs2 , v127
	.byte	W06
	.byte		        Gs2 , v032
	.byte	W06
	.byte		        Gs2 , v127
	.byte	W06
	.byte		        Gs2 , v032
	.byte	W06
	.byte	PEND
	.byte	PATT
	 .word	seq_015_4 + 0x10C
	.byte		N12   , Ds2 , v072
	.byte	W12
	.byte		N03   , An2 , v127
	.byte	W06
	.byte		        An2 , v032
	.byte	W06
	.byte		        An2 , v127
	.byte	W06
	.byte		        An2 , v032
	.byte	W06
	.byte		        An2 , v127
	.byte	W06
	.byte		        An2 , v032
	.byte	W06
	.byte		        An2 , v127
	.byte	W06
	.byte		        An2 , v032
	.byte	W06
	.byte		        An2 , v127
	.byte	W06
	.byte		        An2 , v032
	.byte	W06
	.byte	PEND
	.byte	PATT
	 .word	seq_015_4 + 0x135
	.byte	PATT
	 .word	seq_015_4 + 0x10C
	.byte	PATT
	 .word	seq_015_4 + 0x10C
	.byte	PATT
	 .word	seq_015_4 + 0x135
	.byte		N12   , Ds2 , v072
	.byte	W12
	.byte		N03   , An2 , v127
	.byte	W06
	.byte		        An2 , v032
	.byte	W06
	.byte		        An2 , v127
	.byte	W06
	.byte		        An2 , v032
	.byte	W06
	.byte		        An2 , v127
	.byte	W12
	.byte		        Cn3 
	.byte	W06
	.byte		        As2 
	.byte	W06
	.byte		N12   , An2 
	.byte	W12
	.byte	GOTO
	 .word	seq_015_4 + 0xC
	.byte W72, W72, W72
	.byte	FINE

@*********************** Track 06 ***********************@

seq_015_5:
	.byte	KEYSH , seq_015_key+0
	.byte	W06
	.byte		VOICE , 70
	.byte	W01
	.byte		VOL   , 51*seq_015_mvl/mxv
	.byte	W01
	.byte		PAN   , c_v+0
	.byte	W16
	.byte	W12
	.byte		N03   , Dn3 , v127
	.byte	W06
	.byte		        Dn3 , v020
	.byte	W18
	.byte		        Dn3 , v127
	.byte	W06
	.byte		        Dn3 , v020
	.byte	W18
	.byte		        Dn3 , v127
	.byte	W06
	.byte		        Dn3 , v020
	.byte	W18
	.byte		        Dn3 , v127
	.byte	W06
	.byte		        Dn3 , v020
	.byte	W18
	.byte		        Dn3 , v127
	.byte	W06
	.byte		        Dn3 , v020
	.byte	W18
	.byte		        Dn3 , v127
	.byte	W06
	.byte		        Dn3 , v020
	.byte	W06
	.byte	PEND
	.byte	W12
	.byte		N03   , Dn3 , v127
	.byte	W06
	.byte		        Dn3 , v020
	.byte	W18
	.byte		        Dn3 , v127
	.byte	W06
	.byte		        Dn3 , v020
	.byte	W18
	.byte		        Dn3 , v127
	.byte	W06
	.byte		        Dn3 , v020
	.byte	W18
	.byte		        Dn3 , v127
	.byte	W06
	.byte		        Dn3 , v020
	.byte	W18
	.byte		        Dn3 , v127
	.byte	W06
	.byte		        Dn3 , v020
	.byte	W06
	.byte	PEND
	.byte	W12
	.byte		N03   , Ds3 , v127
	.byte	W06
	.byte		        Ds3 , v020
	.byte	W18
	.byte		        Ds3 , v127
	.byte	W06
	.byte		        Ds3 , v020
	.byte	W18
	.byte		        Ds3 , v127
	.byte	W06
	.byte		        Ds3 , v020
	.byte	W18
	.byte		        Ds3 , v127
	.byte	W06
	.byte		        Ds3 , v020
	.byte	W18
	.byte		        Ds3 , v127
	.byte	W06
	.byte		        Ds3 , v020
	.byte	W18
	.byte		        Ds3 , v127
	.byte	W06
	.byte		        Ds3 , v020
	.byte	W06
	.byte	PEND
	.byte	W12
	.byte		N03   , Ds3 , v127
	.byte	W06
	.byte		        Ds3 , v020
	.byte	W18
	.byte		        Ds3 , v127
	.byte	W06
	.byte		        Ds3 , v020
	.byte	W18
	.byte		        Ds3 , v127
	.byte	W06
	.byte		        Ds3 , v020
	.byte	W18
	.byte		        Ds3 , v127
	.byte	W06
	.byte		        Ds3 , v020
	.byte	W18
	.byte		        Ds3 , v127
	.byte	W06
	.byte		        Ds3 , v020
	.byte	W06
	.byte	PEND
	.byte	PATT
	 .word	seq_015_5 + 0xC
	.byte	PATT
	 .word	seq_015_5 + 0x33
	.byte	PATT
	 .word	seq_015_5 + 0x54
	.byte	PATT
	 .word	seq_015_5 + 0x7B
	.byte		N12   , Gs2 , v127
	.byte	W12
	.byte		N03   , Dn3 
	.byte	W06
	.byte		        Dn3 , v020
	.byte	W18
	.byte		        Dn3 , v127
	.byte	W06
	.byte		        Dn3 , v020
	.byte	W18
	.byte		        Dn3 , v127
	.byte	W06
	.byte		        Dn3 , v020
	.byte	W54
	.byte	PEND
	.byte	PATT
	 .word	seq_015_5 + 0xB0
	.byte		N12   , An2 , v127
	.byte	W12
	.byte		N03   , Ds3 
	.byte	W06
	.byte		        Ds3 , v020
	.byte	W18
	.byte		        Ds3 , v127
	.byte	W06
	.byte		        Ds3 , v020
	.byte	W18
	.byte		        Ds3 , v127
	.byte	W06
	.byte		        Ds3 , v020
	.byte	W54
	.byte		N12   , An2 , v127
	.byte	W12
	.byte		N03   , Ds3 
	.byte	W06
	.byte		        Ds3 , v020
	.byte	W06
	.byte		        Ds3 , v127
	.byte	W06
	.byte		        Ds3 , v020
	.byte	W06
	.byte		        Ds3 , v127
	.byte	W06
	.byte		        Ds3 , v020
	.byte	W06
	.byte		        Ds3 , v127
	.byte	W06
	.byte		        Ds3 , v020
	.byte	W06
	.byte		        Ds3 , v127
	.byte	W06
	.byte		        Ds3 , v020
	.byte	W06
	.byte		        Ds3 , v127
	.byte	W06
	.byte		        Ds3 , v020
	.byte	W42
	.byte		N12   , Gs2 , v127
	.byte	W12
	.byte		N03   , Dn3 
	.byte	W06
	.byte		        Dn3 , v020
	.byte	W06
	.byte		        Dn3 , v127
	.byte	W06
	.byte		        Dn3 , v020
	.byte	W06
	.byte		        Dn3 , v127
	.byte	W06
	.byte		        Dn3 , v020
	.byte	W06
	.byte		        Dn3 , v127
	.byte	W06
	.byte		        Dn3 , v020
	.byte	W06
	.byte		        Dn3 , v127
	.byte	W06
	.byte		        Dn3 , v020
	.byte	W06
	.byte	PEND
	.byte	PATT
	 .word	seq_015_5 + 0x10A
	.byte		N12   , An2 , v127
	.byte	W12
	.byte		N03   , Ds3 
	.byte	W06
	.byte		        Ds3 , v020
	.byte	W06
	.byte		        Ds3 , v127
	.byte	W06
	.byte		        Ds3 , v020
	.byte	W06
	.byte		        Ds3 , v127
	.byte	W06
	.byte		        Ds3 , v020
	.byte	W06
	.byte		        Ds3 , v127
	.byte	W06
	.byte		        Ds3 , v020
	.byte	W06
	.byte		        Ds3 , v127
	.byte	W06
	.byte		        Ds3 , v020
	.byte	W06
	.byte	PEND
	.byte	PATT
	 .word	seq_015_5 + 0x132
	.byte	PATT
	 .word	seq_015_5 + 0x10A
	.byte	PATT
	 .word	seq_015_5 + 0x10A
	.byte	PATT
	 .word	seq_015_5 + 0x132
	.byte		N12   , An2 , v127
	.byte	W12
	.byte		N03   , Ds3 
	.byte	W06
	.byte		        Ds3 , v020
	.byte	W06
	.byte		        Ds3 , v127
	.byte	W06
	.byte		        Ds3 , v020
	.byte	W06
	.byte		        Ds3 , v127
	.byte	W36
	.byte	GOTO
	 .word	seq_015_5 + 0xC
	.byte W72, W72, W72
	.byte	FINE

@*********************** Track 07 ***********************@

seq_015_6:
	.byte	KEYSH , seq_015_key+0
	.byte	W12
	.byte		VOICE , 71
	.byte	W01
	.byte		VOL   , 51*seq_015_mvl/mxv
	.byte	W01
	.byte		PAN   , c_v+0
	.byte	W10
	.byte	W12
	.byte		N03   , Gs2 , v127
	.byte	W06
	.byte		        Gs2 , v020
	.byte	W18
	.byte		        Gs2 , v127
	.byte	W06
	.byte		        Gs2 , v020
	.byte	W18
	.byte		        Gs2 , v127
	.byte	W06
	.byte		        Gs2 , v020
	.byte	W18
	.byte		        Gs2 , v127
	.byte	W06
	.byte		        Gs2 , v020
	.byte	W18
	.byte		        Gs2 , v127
	.byte	W06
	.byte		        Gs2 , v020
	.byte	W18
	.byte		        Gs2 , v127
	.byte	W06
	.byte		        Gs2 , v020
	.byte	W06
	.byte	PEND
	.byte	W12
	.byte		N03   , Gs2 , v127
	.byte	W06
	.byte		        Gs2 , v020
	.byte	W18
	.byte		        Gs2 , v127
	.byte	W06
	.byte		        Gs2 , v020
	.byte	W18
	.byte		        Gs2 , v127
	.byte	W06
	.byte		        Gs2 , v020
	.byte	W18
	.byte		        Gs2 , v127
	.byte	W06
	.byte		        Gs2 , v020
	.byte	W18
	.byte		        Gs2 , v127
	.byte	W06
	.byte		        Gs2 , v020
	.byte	W06
	.byte	PEND
	.byte	W12
	.byte		N03   , An2 , v127
	.byte	W06
	.byte		        An2 , v020
	.byte	W18
	.byte		        An2 , v127
	.byte	W06
	.byte		        An2 , v020
	.byte	W18
	.byte		        An2 , v127
	.byte	W06
	.byte		        An2 , v020
	.byte	W18
	.byte		        An2 , v127
	.byte	W06
	.byte		        An2 , v020
	.byte	W18
	.byte		        An2 , v127
	.byte	W06
	.byte		        An2 , v020
	.byte	W18
	.byte		        An2 , v127
	.byte	W06
	.byte		        An2 , v020
	.byte	W06
	.byte	PEND
	.byte	W12
	.byte		N03   , An2 , v127
	.byte	W06
	.byte		        An2 , v020
	.byte	W18
	.byte		        An2 , v127
	.byte	W06
	.byte		        An2 , v020
	.byte	W18
	.byte		        An2 , v127
	.byte	W06
	.byte		        An2 , v020
	.byte	W18
	.byte		        An2 , v127
	.byte	W06
	.byte		        An2 , v020
	.byte	W18
	.byte		        An2 , v127
	.byte	W06
	.byte		        An2 , v020
	.byte	W06
	.byte	PEND
	.byte	PATT
	 .word	seq_015_6 + 0xC
	.byte	PATT
	 .word	seq_015_6 + 0x33
	.byte	PATT
	 .word	seq_015_6 + 0x54
	.byte	PATT
	 .word	seq_015_6 + 0x7B
	.byte		N12   , Dn2 , v127
	.byte	W12
	.byte		N03   , Gs2 
	.byte	W06
	.byte		        Gs2 , v020
	.byte	W18
	.byte		        Gs2 , v127
	.byte	W06
	.byte		        Gs2 , v020
	.byte	W18
	.byte		        Gs2 , v127
	.byte	W06
	.byte		        Gs2 , v020
	.byte	W54
	.byte	PEND
	.byte	PATT
	 .word	seq_015_6 + 0xB0
	.byte		N12   , Ds2 , v127
	.byte	W12
	.byte		N03   , An2 
	.byte	W06
	.byte		        An2 , v020
	.byte	W18
	.byte		        An2 , v127
	.byte	W06
	.byte		        An2 , v020
	.byte	W18
	.byte		        An2 , v127
	.byte	W06
	.byte		        An2 , v020
	.byte	W54
	.byte		N12   , Ds2 , v127
	.byte	W12
	.byte		N03   , An2 
	.byte	W06
	.byte		        An2 , v020
	.byte	W06
	.byte		        An2 , v127
	.byte	W06
	.byte		        An2 , v020
	.byte	W06
	.byte		        An2 , v127
	.byte	W06
	.byte		        An2 , v020
	.byte	W06
	.byte		        An2 , v127
	.byte	W06
	.byte		        An2 , v020
	.byte	W06
	.byte		        An2 , v127
	.byte	W06
	.byte		        An2 , v020
	.byte	W06
	.byte		        An2 , v127
	.byte	W06
	.byte		        An2 , v020
	.byte	W42
	.byte		N03   , Gs2 , v127
	.byte	W06
	.byte		        Gs2 , v020
	.byte	W06
	.byte		        Gs2 , v127
	.byte	W06
	.byte		        Gs2 , v020
	.byte	W06
	.byte		        Gs2 , v127
	.byte	W06
	.byte		        Gs2 , v020
	.byte	W06
	.byte		        Gs2 , v127
	.byte	W06
	.byte		        Gs2 , v020
	.byte	W06
	.byte		        Gs2 , v127
	.byte	W06
	.byte		        Gs2 , v020
	.byte	W06
	.byte		        Gs2 , v127
	.byte	W06
	.byte		        Gs2 , v020
	.byte	W06
	.byte	PEND
	.byte	PATT
	 .word	seq_015_6 + 0x10A
	.byte		N12   , Ds2 , v127
	.byte	W12
	.byte		N03   , An2 
	.byte	W06
	.byte		        An2 , v020
	.byte	W06
	.byte		        An2 , v127
	.byte	W06
	.byte		        An2 , v020
	.byte	W06
	.byte		        An2 , v127
	.byte	W06
	.byte		        An2 , v020
	.byte	W06
	.byte		        An2 , v127
	.byte	W06
	.byte		        An2 , v020
	.byte	W06
	.byte		        An2 , v127
	.byte	W06
	.byte		        An2 , v020
	.byte	W06
	.byte	PEND
	.byte	PATT
	 .word	seq_015_6 + 0x135
	.byte	PATT
	 .word	seq_015_6 + 0x10A
	.byte	PATT
	 .word	seq_015_6 + 0x10A
	.byte	PATT
	 .word	seq_015_6 + 0x135
	.byte		N12   , Ds2 , v127
	.byte	W12
	.byte		N03   , An2 
	.byte	W06
	.byte		        An2 , v020
	.byte	W06
	.byte		        An2 , v127
	.byte	W06
	.byte		        An2 , v020
	.byte	W06
	.byte		        An2 , v127
	.byte	W36
	.byte	GOTO
	 .word	seq_015_6 + 0xC
	.byte W72, W72, W72
	.byte	FINE

@*********************** Track 08 ***********************@

seq_015_7:
	.byte	KEYSH , seq_015_key+0
	.byte	W12
	.byte		VOICE , 5
	.byte	W01
	.byte		VOL   , 51*seq_015_mvl/mxv
	.byte	W01
	.byte		PAN   , c_v+0
	.byte	W10
	.byte	W96
	.byte	W48
	.byte	W96
	.byte	W24
	.byte	W96
	.byte	W48
	.byte	W96
	.byte	W24
	.byte	W96
	.byte	W48
	.byte	W96
	.byte	W24
	.byte	W96
	.byte	W48
	.byte	W96
	.byte	W23
	.byte		PAN   , c_v+0
	.byte	W01
	.byte		N03   , An2 , v127
	.byte	W03
	.byte		        An2 , v048
	.byte	W03
	.byte		        An2 , v020
	.byte	W06
	.byte		        Dn4 , v127
	.byte	W03
	.byte		        Dn4 , v048
	.byte	W03
	.byte		        Dn4 , v020
	.byte	W06
	.byte		        An2 , v127
	.byte	W03
	.byte		        An2 , v048
	.byte	W03
	.byte		        An2 , v020
	.byte	W06
	.byte		        Dn4 , v127
	.byte	W03
	.byte		        Dn4 , v048
	.byte	W03
	.byte		        Dn4 , v020
	.byte	W06
	.byte		        An2 , v127
	.byte	W03
	.byte		        An2 , v048
	.byte	W03
	.byte		        An2 , v020
	.byte	W06
	.byte		        Dn4 , v127
	.byte	W03
	.byte		        Dn4 , v048
	.byte	W03
	.byte		        Dn4 , v020
	.byte	W06
	.byte		        An2 , v127
	.byte	W03
	.byte		        An2 , v048
	.byte	W03
	.byte		        An2 , v020
	.byte	W42
	.byte	PEND
	.byte	PATT
	 .word	seq_015_7 + 0x1F
	.byte		N03   , As2 , v127
	.byte	W03
	.byte		        As2 , v048
	.byte	W03
	.byte		        As2 , v020
	.byte	W06
	.byte		        Ds4 , v127
	.byte	W03
	.byte		        Ds4 , v048
	.byte	W03
	.byte		        Ds4 , v020
	.byte	W06
	.byte		        As2 , v127
	.byte	W03
	.byte		        As2 , v048
	.byte	W03
	.byte		        As2 , v020
	.byte	W06
	.byte		        Ds4 , v127
	.byte	W03
	.byte		        Ds4 , v048
	.byte	W03
	.byte		        Ds4 , v020
	.byte	W06
	.byte		        As2 , v127
	.byte	W03
	.byte		        As2 , v048
	.byte	W03
	.byte		        As2 , v020
	.byte	W06
	.byte		        Ds4 , v127
	.byte	W03
	.byte		        Ds4 , v048
	.byte	W03
	.byte		        Ds4 , v020
	.byte	W06
	.byte		        As2 , v127
	.byte	W03
	.byte		        As2 , v048
	.byte	W03
	.byte		        As2 , v020
	.byte	W42
	.byte		        As2 , v127
	.byte	W03
	.byte		        As2 , v048
	.byte	W03
	.byte		        As2 , v020
	.byte	W06
	.byte		        Ds4 , v127
	.byte	W03
	.byte		        Ds4 , v048
	.byte	W03
	.byte		        Ds4 , v020
	.byte	W06
	.byte		        As2 , v127
	.byte	W03
	.byte		        As2 , v048
	.byte	W03
	.byte		        As2 , v020
	.byte	W06
	.byte		        Ds4 , v127
	.byte	W03
	.byte		        Ds4 , v048
	.byte	W03
	.byte		        Ds4 , v020
	.byte	W06
	.byte		        As2 , v127
	.byte	W03
	.byte		        As2 , v048
	.byte	W03
	.byte		        As2 , v020
	.byte	W06
	.byte		        Ds4 , v127
	.byte	W03
	.byte		        Ds4 , v048
	.byte	W03
	.byte		        Ds4 , v020
	.byte	W06
	.byte		        As2 , v127
	.byte	W03
	.byte		        As2 , v048
	.byte	W03
	.byte		        As2 , v020
	.byte	W40
	.byte		VOL   , 65*seq_015_mvl/mxv
	.byte		PAN   , c_v-40
	.byte	W01
	.byte		N03   , Dn2 , v080
	.byte	W01
	.byte	W02
	.byte		N03   , Dn2 , v048
	.byte	W03
	.byte		        Dn2 , v020
	.byte	W06
	.byte		        Dn4 , v127
	.byte	W03
	.byte		        Dn4 , v048
	.byte	W03
	.byte		        Dn4 , v020
	.byte	W06
	.byte		        Dn2 , v080
	.byte	W03
	.byte		        Dn2 , v048
	.byte	W03
	.byte		        Dn2 , v020
	.byte	W06
	.byte		        Dn4 , v127
	.byte	W03
	.byte		        Dn4 , v048
	.byte	W03
	.byte		        Dn4 , v020
	.byte	W06
	.byte		        Dn2 , v080
	.byte	W03
	.byte		        Dn2 , v048
	.byte	W03
	.byte		        Dn2 , v020
	.byte	W06
	.byte		        Dn4 , v127
	.byte	W03
	.byte		        Dn4 , v048
	.byte	W03
	.byte		        Dn4 , v020
	.byte	W06
	.byte		        Dn2 , v080
	.byte	W01
	.byte	PEND
	.byte	W02
	.byte		N03   , Dn2 , v048
	.byte	W03
	.byte		        Dn2 , v020
	.byte	W06
	.byte		        Dn4 , v127
	.byte	W03
	.byte		        Dn4 , v048
	.byte	W03
	.byte		        Dn4 , v020
	.byte	W06
	.byte		        Dn2 , v080
	.byte	W03
	.byte		        Dn2 , v048
	.byte	W03
	.byte		        Dn2 , v020
	.byte	W06
	.byte		        Dn4 , v127
	.byte	W03
	.byte		        Dn4 , v048
	.byte	W03
	.byte		        Dn4 , v020
	.byte	W06
	.byte		        Dn3 , v072
	.byte	W03
	.byte		        Dn3 , v048
	.byte	W03
	.byte		        Dn3 , v020
	.byte	W06
	.byte		        Gs3 , v072
	.byte	W03
	.byte		        Gs3 , v048
	.byte	W03
	.byte		        Gs3 , v020
	.byte	W05
	.byte		VOL   , 65*seq_015_mvl/mxv
	.byte		PAN   , c_v-40
	.byte	W01
	.byte		N03   , Ds2 , v127
	.byte	W01
	.byte	PEND
	.byte	W02
	.byte		N03   , Ds2 , v048
	.byte	W03
	.byte		        Ds2 , v020
	.byte	W06
	.byte		        Ds4 , v127
	.byte	W03
	.byte		        Ds4 , v048
	.byte	W03
	.byte		        Ds4 , v020
	.byte	W06
	.byte		        Ds2 , v127
	.byte	W03
	.byte		        Ds2 , v048
	.byte	W03
	.byte		        Ds2 , v020
	.byte	W06
	.byte		        Ds4 , v127
	.byte	W03
	.byte		        Ds4 , v048
	.byte	W03
	.byte		        Ds4 , v020
	.byte	W06
	.byte		        Ds2 , v127
	.byte	W03
	.byte		        Ds2 , v048
	.byte	W03
	.byte		        Ds2 , v020
	.byte	W06
	.byte		        Ds4 , v127
	.byte	W03
	.byte		        Ds4 , v048
	.byte	W03
	.byte		        Ds4 , v020
	.byte	W06
	.byte		        Ds2 , v127
	.byte	W01
	.byte	PEND
	.byte	W02
	.byte		        Ds2 , v048
	.byte	W03
	.byte		        Ds2 , v020
	.byte	W06
	.byte		        Ds4 , v127
	.byte	W03
	.byte		        Ds4 , v048
	.byte	W03
	.byte		        Ds4 , v020
	.byte	W06
	.byte		        Ds2 , v127
	.byte	W03
	.byte		        Ds2 , v048
	.byte	W03
	.byte		        Ds2 , v020
	.byte	W06
	.byte		        Ds4 , v127
	.byte	W03
	.byte		        Ds4 , v048
	.byte	W03
	.byte		        Ds4 , v020
	.byte	W06
	.byte		        Ds3 , v072
	.byte	W03
	.byte		        Ds3 , v048
	.byte	W03
	.byte		        Ds3 , v020
	.byte	W06
	.byte		        An3 , v072
	.byte	W03
	.byte		        An3 , v048
	.byte	W03
	.byte		        An3 , v020
	.byte	W05
	.byte		VOL   , 65*seq_015_mvl/mxv
	.byte		PAN   , c_v-40
	.byte	W01
	.byte		N03   , Dn2 , v080
	.byte	W01
	.byte	PATT
	 .word	seq_015_7 + 0xED
	.byte	PATT
	 .word	seq_015_7 + 0x126
	.byte	PATT
	 .word	seq_015_7 + 0x165
	.byte	W02
	.byte		N03   , Ds2 , v048
	.byte	W03
	.byte		        Ds2 , v020
	.byte	W66
	.byte	W01
	.byte	GOTO
	 .word	seq_015_7 + 0xC
	.byte W72, W72, W72
	.byte	FINE

@*********************** Track 09 ***********************@

seq_015_8:
	.byte	KEYSH , seq_015_key+0
	.byte	W12
	.byte		VOICE , 9
	.byte	W01
	.byte		VOL   , 65*seq_015_mvl/mxv
	.byte	W01
	.byte		PAN   , c_v+0
	.byte	W10
	.byte		N03   , Dn2 , v127
	.byte	W03
	.byte		        Dn2 , v048
	.byte	W03
	.byte		        Dn2 , v020
	.byte	W66
	.byte		        Dn2 , v127
	.byte	W03
	.byte		        Dn2 , v048
	.byte	W03
	.byte		        Dn2 , v020
	.byte	W66
	.byte	PEND
	.byte		N03   , Dn2 , v127
	.byte	W03
	.byte		        Dn2 , v048
	.byte	W03
	.byte		        Dn2 , v020
	.byte	W66
	.byte		        Dn2 , v127
	.byte	W03
	.byte		        Dn2 , v048
	.byte	W03
	.byte		        Dn2 , v020
	.byte	W42
	.byte	PEND
	.byte		N03   , Ds2 , v127
	.byte	W03
	.byte		        Ds2 , v048
	.byte	W03
	.byte		        Ds2 , v020
	.byte	W66
	.byte		        Ds2 , v127
	.byte	W03
	.byte		        Ds2 , v048
	.byte	W03
	.byte		        Ds2 , v020
	.byte	W66
	.byte	PEND
	.byte		N03   , Ds2 , v127
	.byte	W03
	.byte		        Ds2 , v048
	.byte	W03
	.byte		        Ds2 , v020
	.byte	W66
	.byte		        Ds2 , v127
	.byte	W03
	.byte		        Ds2 , v048
	.byte	W03
	.byte		        Ds2 , v020
	.byte	W42
	.byte	PEND
	.byte	PATT
	 .word	seq_015_8 + 0xC
	.byte	PATT
	 .word	seq_015_8 + 0x20
	.byte	PATT
	 .word	seq_015_8 + 0x34
	.byte	PATT
	 .word	seq_015_8 + 0x48
	.byte	W96
	.byte	W24
	.byte	W96
	.byte	W24
	.byte	W96
	.byte	W24
	.byte	W96
	.byte	W24
	.byte		N03   , Dn2 , v127
	.byte	W03
	.byte		        Dn2 , v048
	.byte	W03
	.byte		        Dn2 , v020
	.byte	W66
	.byte	PEND
	.byte	PATT
	 .word	seq_015_8 + 0x78
	.byte	PATT
	 .word	seq_015_8 + 0x78
	.byte	PATT
	 .word	seq_015_8 + 0x78
	.byte	PATT
	 .word	seq_015_8 + 0x78
	.byte	PATT
	 .word	seq_015_8 + 0x78
	.byte	PATT
	 .word	seq_015_8 + 0x78
	.byte	PATT
	 .word	seq_015_8 + 0x78
	.byte	GOTO
	 .word	seq_015_8 + 0xC
	.byte W72, W72, W72
	.byte	FINE

@*********************** Track 10 ***********************@

seq_015_9:
	.byte	KEYSH , seq_015_key+0
	.byte	W18
	.byte		VOICE , 21
	.byte	W01
	.byte		VOL   , 63*seq_015_mvl/mxv
	.byte	W01
	.byte		PAN   , c_v+10
	.byte	W03
	.byte		VOICE , 21
	.byte		VOL   , 0*seq_015_mvl/mxv
	.byte		PAN   , c_v+10
	.byte	W01
	.byte		N72   , Gs2 , v127
	.byte	W02
	.byte		VOL   , 1*seq_015_mvl/mxv
	.byte	W04
	.byte		        2*seq_015_mvl/mxv
	.byte	W04
	.byte		        1*seq_015_mvl/mxv
	.byte	W03
	.byte		        2*seq_015_mvl/mxv
	.byte	W04
	.byte		        2*seq_015_mvl/mxv
	.byte	W03
	.byte		        3*seq_015_mvl/mxv
	.byte	W04
	.byte		        3*seq_015_mvl/mxv
	.byte	W03
	.byte		        4*seq_015_mvl/mxv
	.byte	W04
	.byte		        4*seq_015_mvl/mxv
	.byte	W03
	.byte		        5*seq_015_mvl/mxv
	.byte	W04
	.byte		        5*seq_015_mvl/mxv
	.byte	W03
	.byte		        6*seq_015_mvl/mxv
	.byte	W04
	.byte		        7*seq_015_mvl/mxv
	.byte	W03
	.byte		        9*seq_015_mvl/mxv
	.byte	W04
	.byte		        11*seq_015_mvl/mxv
	.byte	W06
	.byte		        11*seq_015_mvl/mxv
	.byte	W01
	.byte		        13*seq_015_mvl/mxv
	.byte	W01
	.byte		        15*seq_015_mvl/mxv
	.byte	W02
	.byte		        19*seq_015_mvl/mxv
	.byte	W02
	.byte		        27*seq_015_mvl/mxv
	.byte	W02
	.byte		        36*seq_015_mvl/mxv
	.byte	W02
	.byte		        44*seq_015_mvl/mxv
	.byte	W01
	.byte		        48*seq_015_mvl/mxv
	.byte	W02
	.byte		        65*seq_015_mvl/mxv
	.byte	W23
	.byte		PAN   , c_v+40
	.byte	W01
	.byte		VOICE , 5
	.byte	W01
	.byte		VOL   , 46*seq_015_mvl/mxv
	.byte	W05
	.byte		N03   , Fs3 , v112
	.byte	W03
	.byte		        Fs3 , v032
	.byte	W03
	.byte		        Dn3 , v052
	.byte	W03
	.byte		        Dn3 , v032
	.byte	W03
	.byte		        Fs3 , v080
	.byte	W03
	.byte		        Fs3 , v032
	.byte	W03
	.byte		        As3 , v112
	.byte	W03
	.byte		        As3 , v032
	.byte	W03
	.byte		        Fs3 , v040
	.byte	W03
	.byte		        Fs3 , v032
	.byte	W03
	.byte		        As3 , v080
	.byte	W03
	.byte		        As3 , v032
	.byte	W03
	.byte		        Dn4 , v040
	.byte	W03
	.byte		        Dn4 , v032
	.byte	W03
	.byte		        Fs4 , v092
	.byte	W01
	.byte	PEND
	.byte	W02
	.byte		N03   , Fs4 , v040
	.byte	W03
	.byte		        Fs4 , v020
	.byte	W03
	.byte		        Fs4 , v012
	.byte	W56
	.byte	W01
	.byte		VOICE , 45
	.byte	W07
	.byte		N03   , Dn3 , v028
	.byte	W03
	.byte		N02   , Dn3 , v012
	.byte	W03
	.byte		        Dn3 , v056
	.byte	W03
	.byte		        Dn3 , v040
	.byte	W03
	.byte		        Dn3 , v096
	.byte	W03
	.byte		        Dn3 , v080
	.byte	W03
	.byte		        Dn3 , v124
	.byte	W03
	.byte		        Dn3 , v096
	.byte	W03
	.byte		        Dn3 , v120
	.byte	W03
	.byte		        Dn3 , v080
	.byte	W03
	.byte		        Dn3 , v100
	.byte	W03
	.byte		        Dn3 , v060
	.byte	W03
	.byte		        Dn3 , v036
	.byte	W03
	.byte		        Dn3 , v020
	.byte	W08
	.byte		VOICE , 21
	.byte		VOL   , 0*seq_015_mvl/mxv
	.byte		PAN   , c_v+10
	.byte	W01
	.byte	PEND
	.byte		N72   , An2 , v127
	.byte	W02
	.byte		VOL   , 1*seq_015_mvl/mxv
	.byte	W04
	.byte		        2*seq_015_mvl/mxv
	.byte	W04
	.byte		        1*seq_015_mvl/mxv
	.byte	W03
	.byte		        2*seq_015_mvl/mxv
	.byte	W04
	.byte		        2*seq_015_mvl/mxv
	.byte	W03
	.byte		        3*seq_015_mvl/mxv
	.byte	W04
	.byte		        3*seq_015_mvl/mxv
	.byte	W03
	.byte		        4*seq_015_mvl/mxv
	.byte	W04
	.byte		        4*seq_015_mvl/mxv
	.byte	W03
	.byte		        5*seq_015_mvl/mxv
	.byte	W04
	.byte		        5*seq_015_mvl/mxv
	.byte	W03
	.byte		        6*seq_015_mvl/mxv
	.byte	W04
	.byte		        7*seq_015_mvl/mxv
	.byte	W03
	.byte		        9*seq_015_mvl/mxv
	.byte	W04
	.byte		        11*seq_015_mvl/mxv
	.byte	W06
	.byte		        11*seq_015_mvl/mxv
	.byte	W01
	.byte		        13*seq_015_mvl/mxv
	.byte	W01
	.byte		        15*seq_015_mvl/mxv
	.byte	W02
	.byte		        19*seq_015_mvl/mxv
	.byte	W02
	.byte		        27*seq_015_mvl/mxv
	.byte	W02
	.byte		        36*seq_015_mvl/mxv
	.byte	W02
	.byte		        44*seq_015_mvl/mxv
	.byte	W01
	.byte		        48*seq_015_mvl/mxv
	.byte	W02
	.byte		        65*seq_015_mvl/mxv
	.byte	W23
	.byte		PAN   , c_v+40
	.byte	W01
	.byte		VOICE , 5
	.byte	W01
	.byte		VOL   , 46*seq_015_mvl/mxv
	.byte	W05
	.byte		N03   , Fs3 , v112
	.byte	W03
	.byte		        Fs3 , v032
	.byte	W03
	.byte		        Dn3 , v052
	.byte	W03
	.byte		        Dn3 , v032
	.byte	W03
	.byte		        Fs3 , v080
	.byte	W03
	.byte		        Fs3 , v032
	.byte	W03
	.byte		        As3 , v112
	.byte	W03
	.byte		        As3 , v032
	.byte	W03
	.byte		        Fs3 , v040
	.byte	W03
	.byte		        Fs3 , v032
	.byte	W03
	.byte		        As3 , v080
	.byte	W03
	.byte		        As3 , v032
	.byte	W03
	.byte		        Dn4 , v040
	.byte	W03
	.byte		        Dn4 , v032
	.byte	W03
	.byte		        Fs4 , v092
	.byte	W01
	.byte	PEND
	.byte	W02
	.byte		N03   , Fs4 , v040
	.byte	W03
	.byte		        Fs4 , v020
	.byte	W03
	.byte		        Fs4 , v012
	.byte	W56
	.byte	W01
	.byte		VOICE , 45
	.byte	W07
	.byte		N03   , Ds3 , v028
	.byte	W03
	.byte		N02   , Ds3 , v012
	.byte	W03
	.byte		        Ds3 , v056
	.byte	W03
	.byte		        Ds3 , v040
	.byte	W03
	.byte		        Ds3 , v096
	.byte	W03
	.byte		        Ds3 , v080
	.byte	W03
	.byte		        Ds3 , v124
	.byte	W03
	.byte		        Ds3 , v096
	.byte	W03
	.byte		        Ds3 , v120
	.byte	W03
	.byte		        Ds3 , v080
	.byte	W03
	.byte		        Ds3 , v100
	.byte	W03
	.byte		        Ds3 , v060
	.byte	W03
	.byte		        Ds3 , v036
	.byte	W03
	.byte		        Ds3 , v020
	.byte	W08
	.byte		VOICE , 21
	.byte		VOL   , 0*seq_015_mvl/mxv
	.byte		PAN   , c_v+10
	.byte	W01
	.byte	PEND
	.byte	PATT
	 .word	seq_015_9 + 0x13
	.byte	PATT
	 .word	seq_015_9 + 0x80
	.byte	PATT
	 .word	seq_015_9 + 0xC3
	.byte	PATT
	 .word	seq_015_9 + 0x130
	.byte		N72   , Gs2 , v127
	.byte	W02
	.byte		VOL   , 1*seq_015_mvl/mxv
	.byte	W04
	.byte		        2*seq_015_mvl/mxv
	.byte	W04
	.byte		        1*seq_015_mvl/mxv
	.byte	W03
	.byte		        2*seq_015_mvl/mxv
	.byte	W04
	.byte		        2*seq_015_mvl/mxv
	.byte	W03
	.byte		        3*seq_015_mvl/mxv
	.byte	W04
	.byte		        3*seq_015_mvl/mxv
	.byte	W03
	.byte		        4*seq_015_mvl/mxv
	.byte	W04
	.byte		        4*seq_015_mvl/mxv
	.byte	W03
	.byte		        5*seq_015_mvl/mxv
	.byte	W04
	.byte		        5*seq_015_mvl/mxv
	.byte	W03
	.byte		        6*seq_015_mvl/mxv
	.byte	W04
	.byte		        7*seq_015_mvl/mxv
	.byte	W03
	.byte		        9*seq_015_mvl/mxv
	.byte	W04
	.byte		        11*seq_015_mvl/mxv
	.byte	W06
	.byte		        11*seq_015_mvl/mxv
	.byte	W01
	.byte		        13*seq_015_mvl/mxv
	.byte	W01
	.byte		        15*seq_015_mvl/mxv
	.byte	W02
	.byte		        19*seq_015_mvl/mxv
	.byte	W02
	.byte		        27*seq_015_mvl/mxv
	.byte	W02
	.byte		        36*seq_015_mvl/mxv
	.byte	W02
	.byte		        44*seq_015_mvl/mxv
	.byte	W01
	.byte		        48*seq_015_mvl/mxv
	.byte	W02
	.byte		VOICE , 45
	.byte		VOL   , 35*seq_015_mvl/mxv
	.byte	W07
	.byte		N03   , Dn5 , v040
	.byte	W03
	.byte		N02   , Dn5 , v020
	.byte	W03
	.byte		        Dn5 , v068
	.byte	W03
	.byte		        Dn5 , v048
	.byte	W03
	.byte		        Dn5 , v096
	.byte	W03
	.byte		        Dn5 , v080
	.byte	W03
	.byte		        Dn5 , v124
	.byte	W03
	.byte		        Dn5 , v096
	.byte	W03
	.byte		        Dn5 , v120
	.byte	W03
	.byte		        Dn5 , v080
	.byte	W03
	.byte		        Dn5 , v100
	.byte	W03
	.byte		        Dn5 , v060
	.byte	W03
	.byte		        Dn5 , v036
	.byte	W03
	.byte		        Dn5 , v020
	.byte	W02
	.byte		VOICE , 21
	.byte		VOL   , 0*seq_015_mvl/mxv
	.byte		PAN   , c_v+10
	.byte	W01
	.byte		N72   , Gs2 , v127
	.byte	W02
	.byte		VOL   , 1*seq_015_mvl/mxv
	.byte	W04
	.byte		        2*seq_015_mvl/mxv
	.byte	W04
	.byte		        1*seq_015_mvl/mxv
	.byte	W03
	.byte		        2*seq_015_mvl/mxv
	.byte	W04
	.byte		        2*seq_015_mvl/mxv
	.byte	W03
	.byte		        3*seq_015_mvl/mxv
	.byte	W04
	.byte		        3*seq_015_mvl/mxv
	.byte	W03
	.byte		        4*seq_015_mvl/mxv
	.byte	W04
	.byte		        4*seq_015_mvl/mxv
	.byte	W03
	.byte		        5*seq_015_mvl/mxv
	.byte	W04
	.byte		        5*seq_015_mvl/mxv
	.byte	W03
	.byte		        6*seq_015_mvl/mxv
	.byte	W04
	.byte		        7*seq_015_mvl/mxv
	.byte	W03
	.byte		        9*seq_015_mvl/mxv
	.byte	W04
	.byte		        11*seq_015_mvl/mxv
	.byte	W06
	.byte		        11*seq_015_mvl/mxv
	.byte	W01
	.byte		        13*seq_015_mvl/mxv
	.byte	W01
	.byte		        15*seq_015_mvl/mxv
	.byte	W02
	.byte		        19*seq_015_mvl/mxv
	.byte	W02
	.byte		        27*seq_015_mvl/mxv
	.byte	W02
	.byte		        36*seq_015_mvl/mxv
	.byte	W02
	.byte		        44*seq_015_mvl/mxv
	.byte	W01
	.byte		        48*seq_015_mvl/mxv
	.byte	W02
	.byte		VOICE , 46
	.byte		VOL   , 35*seq_015_mvl/mxv
	.byte	W07
	.byte		N03   , Gs4 , v040
	.byte	W03
	.byte		N02   , Gs4 , v020
	.byte	W03
	.byte		        Gs4 , v068
	.byte	W03
	.byte		        Gs4 , v048
	.byte	W03
	.byte		        Gs4 , v096
	.byte	W03
	.byte		        Gs4 , v080
	.byte	W03
	.byte		        Gs4 , v124
	.byte	W03
	.byte		        Gs4 , v096
	.byte	W03
	.byte		        Gs4 , v120
	.byte	W03
	.byte		        Gs4 , v080
	.byte	W03
	.byte		        Gs4 , v100
	.byte	W03
	.byte		        Gs4 , v060
	.byte	W03
	.byte		        Gs4 , v036
	.byte	W03
	.byte		        Gs4 , v020
	.byte	W02
	.byte		VOICE , 21
	.byte		VOL   , 0*seq_015_mvl/mxv
	.byte		PAN   , c_v+10
	.byte	W01
	.byte		N72   , An2 , v127
	.byte	W02
	.byte		VOL   , 1*seq_015_mvl/mxv
	.byte	W04
	.byte		        2*seq_015_mvl/mxv
	.byte	W04
	.byte		        1*seq_015_mvl/mxv
	.byte	W03
	.byte		        2*seq_015_mvl/mxv
	.byte	W04
	.byte		        2*seq_015_mvl/mxv
	.byte	W03
	.byte		        3*seq_015_mvl/mxv
	.byte	W04
	.byte		        3*seq_015_mvl/mxv
	.byte	W03
	.byte		        4*seq_015_mvl/mxv
	.byte	W04
	.byte		        4*seq_015_mvl/mxv
	.byte	W03
	.byte		        5*seq_015_mvl/mxv
	.byte	W04
	.byte		        5*seq_015_mvl/mxv
	.byte	W03
	.byte		        6*seq_015_mvl/mxv
	.byte	W04
	.byte		        7*seq_015_mvl/mxv
	.byte	W03
	.byte		        9*seq_015_mvl/mxv
	.byte	W04
	.byte		        11*seq_015_mvl/mxv
	.byte	W06
	.byte		        11*seq_015_mvl/mxv
	.byte	W01
	.byte		        13*seq_015_mvl/mxv
	.byte	W01
	.byte		        15*seq_015_mvl/mxv
	.byte	W02
	.byte		        19*seq_015_mvl/mxv
	.byte	W02
	.byte		        27*seq_015_mvl/mxv
	.byte	W02
	.byte		        36*seq_015_mvl/mxv
	.byte	W02
	.byte		        44*seq_015_mvl/mxv
	.byte	W01
	.byte		        48*seq_015_mvl/mxv
	.byte	W02
	.byte		VOICE , 45
	.byte		VOL   , 35*seq_015_mvl/mxv
	.byte	W07
	.byte		N03   , Ds5 , v040
	.byte	W03
	.byte		N02   , Ds5 , v020
	.byte	W03
	.byte		        Ds5 , v068
	.byte	W03
	.byte		        Ds5 , v048
	.byte	W03
	.byte		        Ds5 , v096
	.byte	W03
	.byte		        Ds5 , v080
	.byte	W03
	.byte		        Ds5 , v124
	.byte	W03
	.byte		        Ds5 , v096
	.byte	W03
	.byte		        Ds5 , v120
	.byte	W03
	.byte		        Ds5 , v080
	.byte	W03
	.byte		        Ds5 , v100
	.byte	W03
	.byte		        Ds5 , v060
	.byte	W03
	.byte		        Ds5 , v036
	.byte	W03
	.byte		        Ds5 , v020
	.byte	W02
	.byte		VOICE , 21
	.byte		VOL   , 0*seq_015_mvl/mxv
	.byte		PAN   , c_v+10
	.byte	W01
	.byte		N72   , An2 , v127
	.byte	W02
	.byte		VOL   , 1*seq_015_mvl/mxv
	.byte	W04
	.byte		        2*seq_015_mvl/mxv
	.byte	W04
	.byte		        1*seq_015_mvl/mxv
	.byte	W03
	.byte		        2*seq_015_mvl/mxv
	.byte	W04
	.byte		        2*seq_015_mvl/mxv
	.byte	W03
	.byte		        3*seq_015_mvl/mxv
	.byte	W04
	.byte		        3*seq_015_mvl/mxv
	.byte	W03
	.byte		        4*seq_015_mvl/mxv
	.byte	W04
	.byte		        4*seq_015_mvl/mxv
	.byte	W03
	.byte		        5*seq_015_mvl/mxv
	.byte	W04
	.byte		        5*seq_015_mvl/mxv
	.byte	W03
	.byte		        6*seq_015_mvl/mxv
	.byte	W04
	.byte		        7*seq_015_mvl/mxv
	.byte	W03
	.byte		        9*seq_015_mvl/mxv
	.byte	W04
	.byte		        11*seq_015_mvl/mxv
	.byte	W06
	.byte		        11*seq_015_mvl/mxv
	.byte	W01
	.byte		        13*seq_015_mvl/mxv
	.byte	W01
	.byte		        15*seq_015_mvl/mxv
	.byte	W02
	.byte		        19*seq_015_mvl/mxv
	.byte	W02
	.byte		        27*seq_015_mvl/mxv
	.byte	W02
	.byte		        36*seq_015_mvl/mxv
	.byte	W02
	.byte		        44*seq_015_mvl/mxv
	.byte	W01
	.byte		        48*seq_015_mvl/mxv
	.byte	W02
	.byte		VOICE , 46
	.byte		VOL   , 35*seq_015_mvl/mxv
	.byte	W07
	.byte		N03   , An4 , v040
	.byte	W03
	.byte		N02   , An4 , v020
	.byte	W03
	.byte		        An4 , v068
	.byte	W03
	.byte		        An4 , v048
	.byte	W03
	.byte		        An4 , v096
	.byte	W03
	.byte		        An4 , v080
	.byte	W03
	.byte		        An4 , v124
	.byte	W03
	.byte		        An4 , v096
	.byte	W03
	.byte		        An4 , v120
	.byte	W03
	.byte		        An4 , v080
	.byte	W03
	.byte		        An4 , v100
	.byte	W11
	.byte		VOICE , 5
	.byte		VOL   , 65*seq_015_mvl/mxv
	.byte		PAN   , c_v+40
	.byte	W01
	.byte		N03   , Dn2 , v080
	.byte	W03
	.byte		        Dn2 , v048
	.byte	W03
	.byte		        Dn2 , v020
	.byte	W06
	.byte		        Dn4 , v127
	.byte	W03
	.byte		        Dn4 , v048
	.byte	W03
	.byte		        Dn4 , v020
	.byte	W06
	.byte		        Dn2 , v080
	.byte	W03
	.byte		        Dn2 , v048
	.byte	W03
	.byte		        Dn2 , v020
	.byte	W06
	.byte		        Dn4 , v127
	.byte	W03
	.byte		        Dn4 , v048
	.byte	W03
	.byte		        Dn4 , v020
	.byte	W06
	.byte		        Dn2 , v080
	.byte	W03
	.byte		        Dn2 , v048
	.byte	W03
	.byte		        Dn2 , v020
	.byte	W06
	.byte		        Dn4 , v127
	.byte	W03
	.byte		        Dn4 , v048
	.byte	W03
	.byte		        Dn4 , v020
	.byte	W06
	.byte	PEND
	.byte		N03   , Dn2 , v080
	.byte	W03
	.byte		        Dn2 , v048
	.byte	W03
	.byte		        Dn2 , v020
	.byte	W06
	.byte		        Dn4 , v127
	.byte	W03
	.byte		        Dn4 , v048
	.byte	W03
	.byte		        Dn4 , v020
	.byte	W06
	.byte		        Dn2 , v080
	.byte	W03
	.byte		        Dn2 , v048
	.byte	W03
	.byte		        Dn2 , v020
	.byte	W06
	.byte		        Dn4 , v127
	.byte	W03
	.byte		        Dn4 , v048
	.byte	W03
	.byte		        Dn4 , v020
	.byte	W06
	.byte		        Dn3 , v072
	.byte	W03
	.byte		        Dn3 , v048
	.byte	W03
	.byte		        Dn3 , v020
	.byte	W06
	.byte		        Gs3 , v072
	.byte	W03
	.byte		        Gs3 , v048
	.byte	W03
	.byte		        Gs3 , v020
	.byte	W05
	.byte		VOICE , 5
	.byte		VOL   , 65*seq_015_mvl/mxv
	.byte		PAN   , c_v+40
	.byte	W01
	.byte	PEND
	.byte		N03   , Ds2 , v127
	.byte	W03
	.byte		        Ds2 , v048
	.byte	W03
	.byte		        Ds2 , v020
	.byte	W06
	.byte		        Ds4 , v127
	.byte	W03
	.byte		        Ds4 , v048
	.byte	W03
	.byte		        Ds4 , v020
	.byte	W06
	.byte		        Ds2 , v127
	.byte	W03
	.byte		        Ds2 , v048
	.byte	W03
	.byte		        Ds2 , v020
	.byte	W06
	.byte		        Ds4 , v127
	.byte	W03
	.byte		        Ds4 , v048
	.byte	W03
	.byte		        Ds4 , v020
	.byte	W06
	.byte		        Ds2 , v127
	.byte	W03
	.byte		        Ds2 , v048
	.byte	W03
	.byte		        Ds2 , v020
	.byte	W06
	.byte		        Ds4 , v127
	.byte	W03
	.byte		        Ds4 , v048
	.byte	W03
	.byte		        Ds4 , v020
	.byte	W06
	.byte	PEND
	.byte		        Ds2 , v127
	.byte	W03
	.byte		        Ds2 , v048
	.byte	W03
	.byte		        Ds2 , v020
	.byte	W06
	.byte		        Ds4 , v127
	.byte	W03
	.byte		        Ds4 , v048
	.byte	W03
	.byte		        Ds4 , v020
	.byte	W06
	.byte		        Ds2 , v127
	.byte	W03
	.byte		        Ds2 , v048
	.byte	W03
	.byte		        Ds2 , v020
	.byte	W06
	.byte		        Ds4 , v127
	.byte	W03
	.byte		        Ds4 , v048
	.byte	W03
	.byte		        Ds4 , v020
	.byte	W06
	.byte		        Ds3 , v072
	.byte	W03
	.byte		        Ds3 , v048
	.byte	W03
	.byte		        Ds3 , v020
	.byte	W06
	.byte		        An3 , v072
	.byte	W03
	.byte		        An3 , v048
	.byte	W03
	.byte		        An3 , v020
	.byte	W05
	.byte		VOICE , 5
	.byte		VOL   , 65*seq_015_mvl/mxv
	.byte		PAN   , c_v+40
	.byte	W01
	.byte	PATT
	 .word	seq_015_9 + 0x32A
	.byte	PATT
	 .word	seq_015_9 + 0x362
	.byte	PATT
	 .word	seq_015_9 + 0x3A1
	.byte		N03   , Ds2 , v127
	.byte	W03
	.byte		        Ds2 , v048
	.byte	W03
	.byte		        Ds2 , v020
	.byte	W54
	.byte		VOICE , 21
	.byte		VOL   , 0*seq_015_mvl/mxv
	.byte		PAN   , c_v+10
	.byte	W12
	.byte	GOTO
	 .word	seq_015_9 + 0x13
	.byte W72, W72, W72
	.byte	FINE

@*********************** Track 11 ***********************@

seq_015_10:
	.byte	KEYSH , seq_015_key+0
	.byte	W18
	.byte		VOICE , 21
	.byte	W01
	.byte		VOL   , 63*seq_015_mvl/mxv
	.byte	W01
	.byte		PAN   , c_v-10
	.byte	W03
	.byte		VOICE , 21
	.byte		VOL   , 0*seq_015_mvl/mxv
	.byte		PAN   , c_v-10
	.byte	W01
	.byte		N72   , Dn3 , v127
	.byte	W02
	.byte		VOL   , 1*seq_015_mvl/mxv
	.byte	W04
	.byte		        2*seq_015_mvl/mxv
	.byte	W04
	.byte		        1*seq_015_mvl/mxv
	.byte	W03
	.byte		        2*seq_015_mvl/mxv
	.byte	W04
	.byte		        2*seq_015_mvl/mxv
	.byte	W03
	.byte		        3*seq_015_mvl/mxv
	.byte	W04
	.byte		        3*seq_015_mvl/mxv
	.byte	W03
	.byte		        4*seq_015_mvl/mxv
	.byte	W04
	.byte		        4*seq_015_mvl/mxv
	.byte	W03
	.byte		        5*seq_015_mvl/mxv
	.byte	W04
	.byte		        5*seq_015_mvl/mxv
	.byte	W03
	.byte		        6*seq_015_mvl/mxv
	.byte	W04
	.byte		        7*seq_015_mvl/mxv
	.byte	W03
	.byte		        9*seq_015_mvl/mxv
	.byte	W04
	.byte		        11*seq_015_mvl/mxv
	.byte	W06
	.byte		        11*seq_015_mvl/mxv
	.byte	W01
	.byte		        13*seq_015_mvl/mxv
	.byte	W01
	.byte		        15*seq_015_mvl/mxv
	.byte	W02
	.byte		        19*seq_015_mvl/mxv
	.byte	W02
	.byte		        27*seq_015_mvl/mxv
	.byte	W02
	.byte		        36*seq_015_mvl/mxv
	.byte	W02
	.byte		        44*seq_015_mvl/mxv
	.byte	W01
	.byte		        48*seq_015_mvl/mxv
	.byte	W02
	.byte		        65*seq_015_mvl/mxv
	.byte	W24
	.byte		VOICE , 5
	.byte		PAN   , c_v-40
	.byte	W01
	.byte		VOL   , 46*seq_015_mvl/mxv
	.byte	W06
	.byte		N03   , As3 , v112
	.byte	W03
	.byte		        As3 , v032
	.byte	W03
	.byte		        Fs3 , v052
	.byte	W03
	.byte		        Fs3 , v032
	.byte	W03
	.byte		        As3 , v080
	.byte	W03
	.byte		        As3 , v032
	.byte	W03
	.byte		        Dn4 , v112
	.byte	W03
	.byte		        Dn4 , v032
	.byte	W03
	.byte		        As3 , v040
	.byte	W03
	.byte		        As3 , v032
	.byte	W03
	.byte		        Dn4 , v080
	.byte	W03
	.byte		        Dn4 , v032
	.byte	W03
	.byte		        Fs4 , v040
	.byte	W03
	.byte		        Fs4 , v032
	.byte	W03
	.byte	PEND
	.byte		N03   , As4 , v092
	.byte	W03
	.byte		        As4 , v040
	.byte	W03
	.byte		        As4 , v020
	.byte	W03
	.byte		        As4 , v012
	.byte	W56
	.byte		VOICE , 45
	.byte	W07
	.byte		N03   , Gs3 , v028
	.byte	W03
	.byte		N02   , Gs3 , v012
	.byte	W03
	.byte		        Gs3 , v056
	.byte	W03
	.byte		        Gs3 , v040
	.byte	W03
	.byte		        Gs3 , v096
	.byte	W03
	.byte		        Gs3 , v080
	.byte	W03
	.byte		        Gs3 , v124
	.byte	W03
	.byte		        Gs3 , v096
	.byte	W03
	.byte		        Gs3 , v120
	.byte	W03
	.byte		        Gs3 , v080
	.byte	W03
	.byte		        Gs3 , v100
	.byte	W03
	.byte		        Gs3 , v060
	.byte	W03
	.byte		        Gs3 , v036
	.byte	W03
	.byte		        Gs3 , v020
	.byte	W08
	.byte		VOICE , 21
	.byte		VOL   , 0*seq_015_mvl/mxv
	.byte		PAN   , c_v-10
	.byte	W01
	.byte	PEND
	.byte		N72   , Ds3 , v127
	.byte	W02
	.byte		VOL   , 1*seq_015_mvl/mxv
	.byte	W04
	.byte		        2*seq_015_mvl/mxv
	.byte	W04
	.byte		        1*seq_015_mvl/mxv
	.byte	W03
	.byte		        2*seq_015_mvl/mxv
	.byte	W04
	.byte		        2*seq_015_mvl/mxv
	.byte	W03
	.byte		        3*seq_015_mvl/mxv
	.byte	W04
	.byte		        3*seq_015_mvl/mxv
	.byte	W03
	.byte		        4*seq_015_mvl/mxv
	.byte	W04
	.byte		        4*seq_015_mvl/mxv
	.byte	W03
	.byte		        5*seq_015_mvl/mxv
	.byte	W04
	.byte		        5*seq_015_mvl/mxv
	.byte	W03
	.byte		        6*seq_015_mvl/mxv
	.byte	W04
	.byte		        7*seq_015_mvl/mxv
	.byte	W03
	.byte		        9*seq_015_mvl/mxv
	.byte	W04
	.byte		        11*seq_015_mvl/mxv
	.byte	W06
	.byte		        11*seq_015_mvl/mxv
	.byte	W01
	.byte		        13*seq_015_mvl/mxv
	.byte	W01
	.byte		        15*seq_015_mvl/mxv
	.byte	W02
	.byte		        19*seq_015_mvl/mxv
	.byte	W02
	.byte		        27*seq_015_mvl/mxv
	.byte	W02
	.byte		        36*seq_015_mvl/mxv
	.byte	W02
	.byte		        44*seq_015_mvl/mxv
	.byte	W01
	.byte		        48*seq_015_mvl/mxv
	.byte	W02
	.byte		        65*seq_015_mvl/mxv
	.byte	W24
	.byte		VOICE , 5
	.byte		PAN   , c_v-40
	.byte	W01
	.byte		VOL   , 46*seq_015_mvl/mxv
	.byte	W06
	.byte		N03   , As3 , v112
	.byte	W03
	.byte		        As3 , v032
	.byte	W03
	.byte		        Fs3 , v052
	.byte	W03
	.byte		        Fs3 , v032
	.byte	W03
	.byte		        As3 , v080
	.byte	W03
	.byte		        As3 , v032
	.byte	W03
	.byte		        Dn4 , v112
	.byte	W03
	.byte		        Dn4 , v032
	.byte	W03
	.byte		        As3 , v040
	.byte	W03
	.byte		        As3 , v032
	.byte	W03
	.byte		        Dn4 , v080
	.byte	W03
	.byte		        Dn4 , v032
	.byte	W03
	.byte		        Fs4 , v040
	.byte	W03
	.byte		        Fs4 , v032
	.byte	W03
	.byte	PEND
	.byte		N03   , As4 , v092
	.byte	W03
	.byte		        As4 , v040
	.byte	W03
	.byte		        As4 , v020
	.byte	W03
	.byte		        As4 , v012
	.byte	W56
	.byte		VOICE , 45
	.byte	W07
	.byte		N03   , An3 , v028
	.byte	W03
	.byte		N02   , An3 , v012
	.byte	W03
	.byte		        An3 , v056
	.byte	W03
	.byte		        An3 , v040
	.byte	W03
	.byte		        An3 , v096
	.byte	W03
	.byte		        An3 , v080
	.byte	W03
	.byte		        An3 , v124
	.byte	W03
	.byte		        An3 , v096
	.byte	W03
	.byte		        An3 , v120
	.byte	W03
	.byte		        An3 , v080
	.byte	W03
	.byte		        An3 , v100
	.byte	W03
	.byte		        An3 , v060
	.byte	W03
	.byte		        An3 , v036
	.byte	W03
	.byte		        An3 , v020
	.byte	W08
	.byte		VOICE , 21
	.byte		VOL   , 0*seq_015_mvl/mxv
	.byte		PAN   , c_v-10
	.byte	W01
	.byte	PEND
	.byte	PATT
	 .word	seq_015_10 + 0x13
	.byte	PATT
	 .word	seq_015_10 + 0x7C
	.byte	PATT
	 .word	seq_015_10 + 0xC0
	.byte	PATT
	 .word	seq_015_10 + 0x129
	.byte		N72   , Dn3 , v127
	.byte	W02
	.byte		VOL   , 1*seq_015_mvl/mxv
	.byte	W04
	.byte		        2*seq_015_mvl/mxv
	.byte	W04
	.byte		        1*seq_015_mvl/mxv
	.byte	W03
	.byte		        2*seq_015_mvl/mxv
	.byte	W04
	.byte		        2*seq_015_mvl/mxv
	.byte	W03
	.byte		        3*seq_015_mvl/mxv
	.byte	W04
	.byte		        3*seq_015_mvl/mxv
	.byte	W03
	.byte		        4*seq_015_mvl/mxv
	.byte	W04
	.byte		        4*seq_015_mvl/mxv
	.byte	W03
	.byte		        5*seq_015_mvl/mxv
	.byte	W04
	.byte		        5*seq_015_mvl/mxv
	.byte	W03
	.byte		        6*seq_015_mvl/mxv
	.byte	W04
	.byte		        7*seq_015_mvl/mxv
	.byte	W03
	.byte		        9*seq_015_mvl/mxv
	.byte	W04
	.byte		        11*seq_015_mvl/mxv
	.byte	W06
	.byte		        11*seq_015_mvl/mxv
	.byte	W01
	.byte		        13*seq_015_mvl/mxv
	.byte	W01
	.byte		        15*seq_015_mvl/mxv
	.byte	W02
	.byte		        19*seq_015_mvl/mxv
	.byte	W02
	.byte		        27*seq_015_mvl/mxv
	.byte	W02
	.byte		        36*seq_015_mvl/mxv
	.byte	W02
	.byte		        44*seq_015_mvl/mxv
	.byte	W01
	.byte		        48*seq_015_mvl/mxv
	.byte	W02
	.byte		VOICE , 45
	.byte		VOL   , 35*seq_015_mvl/mxv
	.byte	W07
	.byte		N03   , Gs4 , v040
	.byte	W03
	.byte		N02   , Gs4 , v020
	.byte	W03
	.byte		        Gs4 , v068
	.byte	W03
	.byte		        Gs4 , v048
	.byte	W03
	.byte		        Gs4 , v096
	.byte	W03
	.byte		        Gs4 , v080
	.byte	W03
	.byte		        Gs4 , v124
	.byte	W03
	.byte		        Gs4 , v096
	.byte	W03
	.byte		        Gs4 , v120
	.byte	W03
	.byte		        Gs4 , v080
	.byte	W03
	.byte		        Gs4 , v100
	.byte	W03
	.byte		        Gs4 , v060
	.byte	W03
	.byte		        Gs4 , v036
	.byte	W03
	.byte		        Gs4 , v020
	.byte	W02
	.byte		VOICE , 21
	.byte		VOL   , 0*seq_015_mvl/mxv
	.byte		PAN   , c_v-10
	.byte	W01
	.byte		N72   , Dn3 , v127
	.byte	W02
	.byte		VOL   , 1*seq_015_mvl/mxv
	.byte	W04
	.byte		        2*seq_015_mvl/mxv
	.byte	W04
	.byte		        1*seq_015_mvl/mxv
	.byte	W03
	.byte		        2*seq_015_mvl/mxv
	.byte	W04
	.byte		        2*seq_015_mvl/mxv
	.byte	W03
	.byte		        3*seq_015_mvl/mxv
	.byte	W04
	.byte		        3*seq_015_mvl/mxv
	.byte	W03
	.byte		        4*seq_015_mvl/mxv
	.byte	W04
	.byte		        4*seq_015_mvl/mxv
	.byte	W03
	.byte		        5*seq_015_mvl/mxv
	.byte	W04
	.byte		        5*seq_015_mvl/mxv
	.byte	W03
	.byte		        6*seq_015_mvl/mxv
	.byte	W04
	.byte		        7*seq_015_mvl/mxv
	.byte	W03
	.byte		        9*seq_015_mvl/mxv
	.byte	W04
	.byte		        11*seq_015_mvl/mxv
	.byte	W06
	.byte		        11*seq_015_mvl/mxv
	.byte	W01
	.byte		        13*seq_015_mvl/mxv
	.byte	W01
	.byte		        15*seq_015_mvl/mxv
	.byte	W02
	.byte		        19*seq_015_mvl/mxv
	.byte	W02
	.byte		        27*seq_015_mvl/mxv
	.byte	W02
	.byte		        36*seq_015_mvl/mxv
	.byte	W02
	.byte		        44*seq_015_mvl/mxv
	.byte	W01
	.byte		        48*seq_015_mvl/mxv
	.byte	W02
	.byte		VOICE , 46
	.byte		VOL   , 35*seq_015_mvl/mxv
	.byte	W07
	.byte		N03   , Dn4 , v040
	.byte	W03
	.byte		N02   , Dn4 , v020
	.byte	W03
	.byte		        Dn4 , v068
	.byte	W03
	.byte		        Dn4 , v048
	.byte	W03
	.byte		        Dn4 , v096
	.byte	W03
	.byte		        Dn4 , v080
	.byte	W03
	.byte		        Dn4 , v124
	.byte	W03
	.byte		        Dn4 , v096
	.byte	W03
	.byte		        Dn4 , v120
	.byte	W03
	.byte		        Dn4 , v080
	.byte	W03
	.byte		        Dn4 , v100
	.byte	W03
	.byte		        Dn4 , v060
	.byte	W03
	.byte		        Dn4 , v036
	.byte	W03
	.byte		        Dn4 , v020
	.byte	W02
	.byte		VOICE , 21
	.byte		VOL   , 0*seq_015_mvl/mxv
	.byte		PAN   , c_v-10
	.byte	W01
	.byte		N72   , Ds3 , v127
	.byte	W02
	.byte		VOL   , 1*seq_015_mvl/mxv
	.byte	W04
	.byte		        2*seq_015_mvl/mxv
	.byte	W04
	.byte		        1*seq_015_mvl/mxv
	.byte	W03
	.byte		        2*seq_015_mvl/mxv
	.byte	W04
	.byte		        2*seq_015_mvl/mxv
	.byte	W03
	.byte		        3*seq_015_mvl/mxv
	.byte	W04
	.byte		        3*seq_015_mvl/mxv
	.byte	W03
	.byte		        4*seq_015_mvl/mxv
	.byte	W04
	.byte		        4*seq_015_mvl/mxv
	.byte	W03
	.byte		        5*seq_015_mvl/mxv
	.byte	W04
	.byte		        5*seq_015_mvl/mxv
	.byte	W03
	.byte		        6*seq_015_mvl/mxv
	.byte	W04
	.byte		        7*seq_015_mvl/mxv
	.byte	W03
	.byte		        9*seq_015_mvl/mxv
	.byte	W04
	.byte		        11*seq_015_mvl/mxv
	.byte	W06
	.byte		        11*seq_015_mvl/mxv
	.byte	W01
	.byte		        13*seq_015_mvl/mxv
	.byte	W01
	.byte		        15*seq_015_mvl/mxv
	.byte	W02
	.byte		        19*seq_015_mvl/mxv
	.byte	W02
	.byte		        27*seq_015_mvl/mxv
	.byte	W02
	.byte		        36*seq_015_mvl/mxv
	.byte	W02
	.byte		        44*seq_015_mvl/mxv
	.byte	W01
	.byte		        48*seq_015_mvl/mxv
	.byte	W02
	.byte		VOICE , 45
	.byte		VOL   , 35*seq_015_mvl/mxv
	.byte	W07
	.byte		N03   , An4 , v040
	.byte	W03
	.byte		N02   , An4 , v020
	.byte	W03
	.byte		        An4 , v068
	.byte	W03
	.byte		        An4 , v048
	.byte	W03
	.byte		        An4 , v096
	.byte	W03
	.byte		        An4 , v080
	.byte	W03
	.byte		        An4 , v124
	.byte	W03
	.byte		        An4 , v096
	.byte	W03
	.byte		        An4 , v120
	.byte	W03
	.byte		        An4 , v080
	.byte	W03
	.byte		        An4 , v100
	.byte	W03
	.byte		        An4 , v060
	.byte	W03
	.byte		        An4 , v036
	.byte	W03
	.byte		        An4 , v020
	.byte	W02
	.byte		VOICE , 21
	.byte		VOL   , 0*seq_015_mvl/mxv
	.byte		PAN   , c_v-10
	.byte	W01
	.byte		N72   , Ds3 , v127
	.byte	W02
	.byte		VOL   , 1*seq_015_mvl/mxv
	.byte	W04
	.byte		        2*seq_015_mvl/mxv
	.byte	W04
	.byte		        1*seq_015_mvl/mxv
	.byte	W03
	.byte		        2*seq_015_mvl/mxv
	.byte	W04
	.byte		        2*seq_015_mvl/mxv
	.byte	W03
	.byte		        3*seq_015_mvl/mxv
	.byte	W04
	.byte		        3*seq_015_mvl/mxv
	.byte	W03
	.byte		        4*seq_015_mvl/mxv
	.byte	W04
	.byte		        4*seq_015_mvl/mxv
	.byte	W03
	.byte		        5*seq_015_mvl/mxv
	.byte	W04
	.byte		        5*seq_015_mvl/mxv
	.byte	W03
	.byte		        6*seq_015_mvl/mxv
	.byte	W04
	.byte		        7*seq_015_mvl/mxv
	.byte	W03
	.byte		        9*seq_015_mvl/mxv
	.byte	W04
	.byte		        11*seq_015_mvl/mxv
	.byte	W06
	.byte		        11*seq_015_mvl/mxv
	.byte	W01
	.byte		        13*seq_015_mvl/mxv
	.byte	W01
	.byte		        15*seq_015_mvl/mxv
	.byte	W02
	.byte		        19*seq_015_mvl/mxv
	.byte	W02
	.byte		        27*seq_015_mvl/mxv
	.byte	W02
	.byte		        36*seq_015_mvl/mxv
	.byte	W02
	.byte		        44*seq_015_mvl/mxv
	.byte	W01
	.byte		        48*seq_015_mvl/mxv
	.byte	W02
	.byte		VOICE , 46
	.byte		VOL   , 35*seq_015_mvl/mxv
	.byte	W07
	.byte		N03   , Ds4 , v040
	.byte	W03
	.byte		N02   , Ds4 , v020
	.byte	W03
	.byte		        Ds4 , v068
	.byte	W03
	.byte		        Ds4 , v048
	.byte	W03
	.byte		        Ds4 , v096
	.byte	W03
	.byte		        Ds4 , v080
	.byte	W03
	.byte		        Ds4 , v124
	.byte	W03
	.byte		        Ds4 , v096
	.byte	W03
	.byte		        Ds4 , v120
	.byte	W03
	.byte		        Ds4 , v080
	.byte	W03
	.byte		        Ds4 , v100
	.byte	W12
	.byte	W72
	.byte	W72
	.byte	W72
	.byte	W72
	.byte	W72
	.byte	W72
	.byte	W72
	.byte	W60
	.byte		VOICE , 21
	.byte		VOL   , 0*seq_015_mvl/mxv
	.byte		PAN   , c_v-10
	.byte	W12
	.byte	GOTO
	 .word	seq_015_10 + 0x13
	.byte W72, W72, W72
	.byte	FINE

@*********************** Track 12 ***********************@

seq_015_11:
	.byte	KEYSH , seq_015_key+0
	.byte	W18
	.byte		VOICE , 127
	.byte	W01
	.byte		VOL   , 35*seq_015_mvl/mxv
	.byte	W01
	.byte		PAN   , c_v+0
	.byte	W04
	.byte	W36
	.byte	W03
	.byte		N02   , En2 , v016
	.byte	W03
	.byte		        En2 , v020
	.byte	W03
	.byte		N02
	.byte	W03
	.byte		        En2 , v024
	.byte	W03
	.byte		N02
	.byte	W03
	.byte		        En2 , v028
	.byte	W03
	.byte		        En2 , v032
	.byte	W03
	.byte		        En2 , v036
	.byte	W03
	.byte		        En2 , v040
	.byte	W03
	.byte		        En2 , v048
	.byte	W03
	.byte		        En2 , v060
	.byte	W03
	.byte		        En2 , v068
	.byte	W03
	.byte		        En2 , v072
	.byte	W03
	.byte		        En2 , v080
	.byte	W03
	.byte		        En2 , v084
	.byte	W03
	.byte		N02
	.byte	W03
	.byte		        En2 , v080
	.byte	W03
	.byte		        En2 , v076
	.byte	W03
	.byte		        En2 , v072
	.byte	W03
	.byte		        En2 , v068
	.byte	W03
	.byte		        En2 , v064
	.byte	W03
	.byte		N02
	.byte	W03
	.byte		        En2 , v056
	.byte	W03
	.byte		        En2 , v048
	.byte	W03
	.byte		        En2 , v040
	.byte	W03
	.byte		        En2 , v032
	.byte	W03
	.byte		        En2 , v024
	.byte	W03
	.byte		        En2 , v016
	.byte	W03
	.byte		        En2 , v008
	.byte	W21
	.byte	PEND
	.byte	W23
	.byte		N02   , En2 , v016
	.byte	W03
	.byte		        En2 , v020
	.byte	W03
	.byte		N02
	.byte	W03
	.byte		        En2 , v024
	.byte	W03
	.byte		N02
	.byte	W03
	.byte		        En2 , v028
	.byte	W03
	.byte		        En2 , v032
	.byte	W03
	.byte		        En2 , v036
	.byte	W03
	.byte		        En2 , v040
	.byte	W03
	.byte		        En2 , v048
	.byte	W03
	.byte		        En2 , v060
	.byte	W03
	.byte		        En2 , v068
	.byte	W03
	.byte		        En2 , v072
	.byte	W03
	.byte		        En2 , v080
	.byte	W03
	.byte		        En2 , v084
	.byte	W03
	.byte		N02
	.byte	W03
	.byte		        En2 , v080
	.byte	W03
	.byte		        En2 , v076
	.byte	W03
	.byte		        En2 , v072
	.byte	W03
	.byte		        En2 , v068
	.byte	W03
	.byte		        En2 , v064
	.byte	W03
	.byte		N02
	.byte	W03
	.byte		        En2 , v056
	.byte	W03
	.byte		        En2 , v048
	.byte	W03
	.byte		        En2 , v040
	.byte	W03
	.byte		        En2 , v032
	.byte	W03
	.byte		        En2 , v024
	.byte	W03
	.byte		        En2 , v016
	.byte	W03
	.byte		        En2 , v008
	.byte	W13
	.byte	PEND
	.byte	PATT
	 .word	seq_015_11 + 0xC
	.byte	PATT
	 .word	seq_015_11 + 0x63
	.byte	PATT
	 .word	seq_015_11 + 0xC
	.byte	PATT
	 .word	seq_015_11 + 0x63
	.byte	PATT
	 .word	seq_015_11 + 0xC
	.byte	W23
	.byte		N02   , En2 , v016
	.byte	W03
	.byte		        En2 , v020
	.byte	W03
	.byte		N02
	.byte	W03
	.byte		        En2 , v024
	.byte	W03
	.byte		N02
	.byte	W03
	.byte		        En2 , v028
	.byte	W03
	.byte		        En2 , v032
	.byte	W03
	.byte		        En2 , v036
	.byte	W03
	.byte		        En2 , v040
	.byte	W03
	.byte		        En2 , v048
	.byte	W03
	.byte		        En2 , v060
	.byte	W03
	.byte		        En2 , v068
	.byte	W03
	.byte		        En2 , v072
	.byte	W03
	.byte		        En2 , v080
	.byte	W03
	.byte		        En2 , v084
	.byte	W03
	.byte		N02
	.byte	W03
	.byte		        En2 , v080
	.byte	W03
	.byte		        En2 , v076
	.byte	W03
	.byte		        En2 , v072
	.byte	W03
	.byte		        En2 , v068
	.byte	W03
	.byte		        En2 , v064
	.byte	W03
	.byte		N02
	.byte	W03
	.byte		        En2 , v056
	.byte	W03
	.byte		        En2 , v048
	.byte	W03
	.byte		        En2 , v040
	.byte	W03
	.byte		        En2 , v032
	.byte	W03
	.byte		        En2 , v024
	.byte	W03
	.byte		        En2 , v016
	.byte	W03
	.byte		        En2 , v008
	.byte	W12
	.byte		PAN   , c_v-63
	.byte	W01
	.byte		N02   , En2 , v100
	.byte	W03
	.byte		        En2 , v052
	.byte	W03
	.byte		        En2 , v028
	.byte	W03
	.byte		        En2 , v012
	.byte	W02
	.byte		PAN   , c_v+63
	.byte	W01
	.byte		N02   , En2 , v100
	.byte	W03
	.byte		        En2 , v052
	.byte	W03
	.byte		        En2 , v028
	.byte	W03
	.byte		        En2 , v012
	.byte	W14
	.byte		PAN   , c_v-63
	.byte	W01
	.byte		N02   , En2 , v100
	.byte	W03
	.byte		        En2 , v052
	.byte	W03
	.byte		        En2 , v028
	.byte	W03
	.byte		        En2 , v012
	.byte	W14
	.byte		PAN   , c_v+63
	.byte	W01
	.byte		N02   , En2 , v100
	.byte	W03
	.byte		        En2 , v052
	.byte	W03
	.byte		        En2 , v028
	.byte	W03
	.byte		        En2 , v012
	.byte	W48
	.byte	W02
	.byte		PAN   , c_v-63
	.byte	W01
	.byte	PEND
	.byte	PATT
	 .word	seq_015_11 + 0x12A
	.byte	PATT
	 .word	seq_015_11 + 0x12A
	.byte		N02   , En2 , v100
	.byte	W03
	.byte		        En2 , v052
	.byte	W03
	.byte		        En2 , v028
	.byte	W03
	.byte		        En2 , v012
	.byte	W02
	.byte		PAN   , c_v+63
	.byte	W01
	.byte		N02   , En2 , v100
	.byte	W03
	.byte		        En2 , v052
	.byte	W03
	.byte		        En2 , v028
	.byte	W03
	.byte		        En2 , v012
	.byte	W14
	.byte		PAN   , c_v-63
	.byte	W01
	.byte		N02   , En2 , v100
	.byte	W03
	.byte		        En2 , v052
	.byte	W03
	.byte		        En2 , v028
	.byte	W03
	.byte		        En2 , v012
	.byte	W14
	.byte		PAN   , c_v+63
	.byte	W01
	.byte		N02   , En2 , v100
	.byte	W03
	.byte		        En2 , v052
	.byte	W03
	.byte		        En2 , v028
	.byte	W03
	.byte		        En2 , v012
	.byte	W48
	.byte	W02
	.byte		PAN   , c_v+0
	.byte	W01
	.byte		N12   , En2 , v100
	.byte	W12
	.byte		N03   , Fs1 , v120
	.byte	W06
	.byte		        Fs1 , v040
	.byte	W06
	.byte		        Fs1 , v120
	.byte	W06
	.byte		        Fs1 , v040
	.byte	W06
	.byte		        Fs1 , v120
	.byte	W06
	.byte		        Fs1 , v040
	.byte	W06
	.byte		N12   , En2 , v100
	.byte	W12
	.byte		N03   , Fs1 , v120
	.byte	W06
	.byte		        Fs1 , v040
	.byte	W06
	.byte	PEND
	.byte		N12   , En2 , v100
	.byte	W12
	.byte		N03   , Fs1 , v120
	.byte	W06
	.byte		        Fs1 , v040
	.byte	W06
	.byte		        Fs1 , v120
	.byte	W06
	.byte		        Fs1 , v040
	.byte	W06
	.byte		        Fs1 , v120
	.byte	W06
	.byte		        Fs1 , v040
	.byte	W06
	.byte		N12   , En2 , v100
	.byte	W12
	.byte		N03   , Fs1 , v120
	.byte	W06
	.byte		        Fs1 , v040
	.byte	W05
	.byte		PAN   , c_v+0
	.byte	W01
	.byte	PEND
	.byte	PATT
	 .word	seq_015_11 + 0x1B7
	.byte	PATT
	 .word	seq_015_11 + 0x1DA
	.byte	PATT
	 .word	seq_015_11 + 0x1B7
	.byte	PATT
	 .word	seq_015_11 + 0x1B7
	.byte	PATT
	 .word	seq_015_11 + 0x1B7
	.byte		N03   , Fs1 , v120
	.byte	W06
	.byte		        Fs1 , v040
	.byte	W06
	.byte		        Fs1 , v120
	.byte	W06
	.byte		        Fs1 , v040
	.byte	W06
	.byte		        Fs1 , v120
	.byte	W06
	.byte		        Fs1 , v040
	.byte	W06
	.byte		N12   , Ds2 , v100
	.byte	W12
	.byte		N03   , Fs1 , v120
	.byte	W06
	.byte		        Fs1 , v040
	.byte	W06
	.byte		N12   , En2 , v100
	.byte	W12
	.byte	GOTO
	 .word	seq_015_11 + 0xC
	.byte W72, W72, W72
	.byte	FINE

@******************************************************@

	.align	2

seq_015:
	.byte	12	@ NumTrks
	.byte	0	@ NumBlks
	.byte	seq_015_pri	@ Priority
	.byte	seq_015_rev	@ Reverb

	.word	seq_015_grp

	.word	seq_015_0
	.word	seq_015_1
	.word	seq_015_2
	.word	seq_015_3
	.word	seq_015_4
	.word	seq_015_5
	.word	seq_015_6
	.word	seq_015_7
	.word	seq_015_8
	.word	seq_015_9
	.word	seq_015_10
	.word	seq_015_11

	.end
