@ File generated by m4a2s Song-Module
	.include "MPlayDef.s"

	.equ	seq_042_grp, bank_000
	.equ	seq_042_pri, 50
	.equ	seq_042_rev, 218
	.equ	seq_042_mvl, 127
	.equ	seq_042_key, 0

	.section .rodata
	.global	seq_042
	.align	2

@*********************** Track 01 ***********************@

seq_042_0:
	.byte	KEYSH , seq_042_key+0
	.byte	TEMPO , 140/2
	.byte		VOICE , 76
	.byte		VOL   , 73*seq_042_mvl/mxv
	.byte		PAN   , c_v+0
	.byte	W01
	.byte		MOD   , 70
	.byte		LFOS  , 25
	.byte		MODT  , mod_tre
	.byte	W44
	.byte	W02
	.byte		MOD   , 32
	.byte	W01
	.byte	TEMPO , 50/2
	.byte		N18   , An3 , v080
	.byte	W24
	.byte	TEMPO , 98/2
	.byte		N96   , An4 , v080
	.byte	W44
	.byte	W03
	.byte		MOD   , 60
	.byte	W24
	.byte		        82
	.byte	W24
	.byte	W01
	.byte	PEND
	.byte	W11
	.byte		MOD   , 93
	.byte	W01
	.byte		N21   , Gn4 , v080
	.byte	W23
	.byte		MOD   , 30
	.byte	W01
	.byte		N21   , Fs4 , v048
	.byte	W23
	.byte		MOD   , 94
	.byte	W01
	.byte		N21   , Gn4 , v056
	.byte	W23
	.byte		MOD   , 30
	.byte	W01
	.byte		TIE   , Fs4 , v060
	.byte	W12
	.byte	PEND
	.byte	W23
	.byte		MOD   , 63
	.byte	W24
	.byte		        88
	.byte	W24
	.byte		        82
	.byte	W24
	.byte	W01
	.byte	PEND
	.byte		EOT   , Fs4 
	.byte	W11
	.byte		MOD   , 89
	.byte	W13
	.byte		N12   , Dn4 , v080
	.byte	W11
	.byte		MOD   , 30
	.byte	W01
	.byte		N17   , Cs4 , v048
	.byte	W23
	.byte		MOD   , 89
	.byte	W01
	.byte		N21   , Dn4 , v080
	.byte	W23
	.byte		MOD   , 30
	.byte	W01
	.byte		N36   , Bn4 , v060
	.byte	W12
	.byte	PEND
	.byte	W23
	.byte		MOD   , 63
	.byte	W13
	.byte		N21   , An4 , v048
	.byte	W11
	.byte		MOD   , 88
	.byte	W13
	.byte		N21   , Gn4 , v080
	.byte	W11
	.byte		MOD   , 82
	.byte	W13
	.byte		N36   , Fs4 
	.byte	W12
	.byte	PEND
	.byte	W11
	.byte		MOD   , 30
	.byte	W24
	.byte	W01
	.byte		N21   , Dn4 , v044
	.byte	W24
	.byte		        Fs4 , v080
	.byte	W23
	.byte		MOD   , 90
	.byte	W01
	.byte		N21   , En4 
	.byte	W12
	.byte	PEND
	.byte	W24
	.byte		N12   , Bn3 , v080
	.byte	W11
	.byte		MOD   , 30
	.byte	W01
	.byte		N21   , Dn4 
	.byte	W24
	.byte		        Fs4 
	.byte	W24
	.byte		N60   , En4 
	.byte	W12
	.byte	PEND
	.byte	W23
	.byte		MOD   , 63
	.byte	W01
	.byte	TEMPO , 84/2
	.byte	W23
	.byte		        88
	.byte	W01
	.byte	TEMPO , 80/2
	.byte	W23
	.byte		        82
	.byte	W01
	.byte	TEMPO , 74/2
	.byte		N18   , Dn4 
	.byte	W24
	.byte	TEMPO , 98/2
	.byte		N96   , An4 , v080
	.byte	W96
	.byte	W12
	.byte		N21   , Gn4 
	.byte	W24
	.byte		        Fs4 , v048
	.byte	W24
	.byte		        Gn4 , v056
	.byte	W24
	.byte		TIE   , Fs4 , v060
	.byte	W12
	.byte	W96
	.byte		EOT
	.byte	W24
	.byte		N12   , Dn5 , v080
	.byte	W12
	.byte		N21   , Cs5 , v048
	.byte	W24
	.byte		        Dn5 , v080
	.byte	W24
	.byte		N24   , Fs4 
	.byte	W12
	.byte	W24
	.byte		N12   , Dn5 
	.byte	W12
	.byte		N21   , Cs5 , v048
	.byte	W24
	.byte		        Dn5 , v080
	.byte	W24
	.byte		N24   , An4 
	.byte	W12
	.byte	W24
	.byte		N12   , Dn4 
	.byte	W12
	.byte		N21   , En4 
	.byte	W24
	.byte		        Dn4 
	.byte	W24
	.byte		        Bn3 
	.byte	W12
	.byte	W12
	.byte		        Fs4 
	.byte	W24
	.byte		        En4 
	.byte	W24
	.byte		        Dn4 
	.byte	W24
	.byte		N60
	.byte	W12
	.byte	W96
	.byte	W96
	.byte	W96
	.byte	W96
	.byte	W96
	.byte	W96
	.byte	W96
	.byte	W20
	.byte		VOICE , 118
	.byte		MOD   , 45
	.byte		VOL   , 108*seq_042_mvl/mxv
	.byte	W01
	.byte		PAN   , c_v+0
	.byte		MODT  , mod_tre
	.byte	W72
	.byte	W03
	.byte	W72
	.byte		N24   , En3 , v100
	.byte	W24
	.byte		N36   , Fs3 
	.byte	W36
	.byte		        Bn3 
	.byte	W36
	.byte		N24   , En3 
	.byte	W24
	.byte		N36   , Fs3 
	.byte	W36
	.byte		        Bn3 
	.byte	W36
	.byte		N24   , An3 
	.byte	W24
	.byte		N36   , Bn3 
	.byte	W36
	.byte		        Fs4 
	.byte	W36
	.byte		N24   , An4 
	.byte	W24
	.byte		N36   , Gs4 
	.byte	W36
	.byte		        En4 
	.byte	W36
	.byte		N24   , Bn3 
	.byte	W24
	.byte		N72   , Dn4 
	.byte	W96
	.byte		N36
	.byte	W36
	.byte		        Bn3 
	.byte	W36
	.byte		N24   , Fs4 
	.byte	W24
	.byte		N72   , En4 
	.byte	W84
	.byte	W01
	.byte		N05   , Bn3 , v076
	.byte	W01
	.byte		N04   , Cn4 , v028
	.byte	W01
	.byte		N05   , Dn4 , v084
	.byte	W04
	.byte		N36   , En4 , v088
	.byte		N01   , Fn4 , v068
	.byte	W05
	.byte	W32
	.byte		N30   , Dn4 , v112
	.byte	W32
	.byte	W01
	.byte		N19   , Cs4 , v116
	.byte	W19
	.byte		N06   , Dn4 , v072
	.byte	W04
	.byte		N05   , Cs4 , v056
	.byte	W04
	.byte		N92   , Bn3 , v108
	.byte	W04
	.byte	W96
	.byte	W96
	.byte	W96
	.byte	W96
	.byte	W96
	.byte	W72
	.byte		VOICE , 76
	.byte		VOL   , 73*seq_042_mvl/mxv
	.byte		PAN   , c_v+0
	.byte	W01
	.byte		MOD   , 70
	.byte		LFOS  , 25
	.byte		MODT  , mod_tre
	.byte	W23
	.byte	W96
	.byte	W48
	.byte	TEMPO , 64/2
	.byte	W23
	.byte		MOD   , 32
	.byte	W01
	.byte		N18   , An3 , v080
	.byte	W24
	.byte	PATT
	 .word	seq_042_0 + 0x1C
	.byte	PATT
	 .word	seq_042_0 + 0x2A
	.byte	PATT
	 .word	seq_042_0 + 0x48
	.byte		EOT   , Fs4 
	.byte	PATT
	 .word	seq_042_0 + 0x54
	.byte	PATT
	 .word	seq_042_0 + 0x72
	.byte	PATT
	 .word	seq_042_0 + 0x88
	.byte	PATT
	 .word	seq_042_0 + 0x9B
	.byte	W23
	.byte		MOD   , 63
	.byte	W01
	.byte	TEMPO , 84/2
	.byte	W23
	.byte		        88
	.byte	W01
	.byte	TEMPO , 80/2
	.byte	W23
	.byte		        82
	.byte	W01
	.byte	TEMPO , 74/2
	.byte		N18   , Dn4 , v080
	.byte	W23
	.byte	TEMPO , 98/2
	.byte	W01
	.byte	GOTO
	 .word	seq_042_0 + 0xBF
	.byte	FINE

@*********************** Track 02 ***********************@

seq_042_1:
	.byte	KEYSH , seq_042_key+0
	.byte	W02
	.byte		VOICE , 95
	.byte		MOD   , 40
	.byte		VOL   , 118*seq_042_mvl/mxv
	.byte	W01
	.byte		PAN   , c_v+0
	.byte		MODT  , mod_pan
	.byte	W68
	.byte	W01
	.byte	W96
	.byte	W96
	.byte	W96
	.byte	W96
	.byte	W96
	.byte	W96
	.byte	W96
	.byte	W96
	.byte	W96
	.byte	W96
	.byte	W96
	.byte	W96
	.byte	W96
	.byte	W20
	.byte		VOICE , 118
	.byte		MOD   , 55
	.byte		VOL   , 98*seq_042_mvl/mxv
	.byte	W01
	.byte		PAN   , c_v+0
	.byte		MODT  , mod_tre
	.byte	W72
	.byte	W03
	.byte	W96
	.byte	W60
	.byte		N09   , Dn4 , v127
	.byte	W10
	.byte		N11   , Cs4 , v120
	.byte	W12
	.byte		N56   , Fs3 
	.byte	W14
	.byte	PEND
	.byte	PATT
	 .word	seq_042_1 + 0x2C
	.byte	W60
	.byte		N09   , Dn4 , v127
	.byte	W10
	.byte		N11   , Cs4 , v120
	.byte	W12
	.byte		N16   , En4 
	.byte	W14
	.byte	PEND
	.byte	W10
	.byte		        Dn4 
	.byte	W24
	.byte		        Cs4 
	.byte	W24
	.byte		        Dn4 
	.byte	W24
	.byte	W02
	.byte		N56   , An3 
	.byte	W12
	.byte	PATT
	 .word	seq_042_1 + 0x2C
	.byte	PATT
	 .word	seq_042_1 + 0x2C
	.byte	PATT
	 .word	seq_042_1 + 0x3E
	.byte	W10
	.byte		N16   , Dn4 , v120
	.byte	W24
	.byte		        Cs4 
	.byte	W24
	.byte		        Dn4 
	.byte	W24
	.byte	W02
	.byte		N56   , Fs4 
	.byte	W12
	.byte	W96
	.byte	W96
	.byte	W96
	.byte	W96
	.byte	W96
	.byte	W96
	.byte	W96
	.byte	W96
	.byte	W96
	.byte	W96
	.byte	W96
	.byte	W96
	.byte	W96
	.byte	W96
	.byte	W96
	.byte	W96
	.byte	W96
	.byte	W96
	.byte	W96
	.byte	W96
	.byte	W96
	.byte	W96
	.byte	W96
	.byte	W96
	.byte	W96
	.byte	GOTO
	 .word	seq_042_1 + 0x18
	.byte	FINE

@*********************** Track 03 ***********************@

seq_042_2:
	.byte	KEYSH , seq_042_key+0
	.byte	W03
	.byte		VOICE , 24
	.byte	W01
	.byte		VOL   , 98*seq_042_mvl/mxv
	.byte		PAN   , c_v+0
	.byte		MODT  , mod_pan
	.byte	W66
	.byte	W01
	.byte		MOD   , 50
	.byte		VOL   , 0*seq_042_mvl/mxv
	.byte	W01
	.byte		TIE   , En4 , v068
	.byte	W02
	.byte		VOL   , 4*seq_042_mvl/mxv
	.byte	W02
	.byte		        10*seq_042_mvl/mxv
	.byte	W02
	.byte		        15*seq_042_mvl/mxv
	.byte	W02
	.byte		        21*seq_042_mvl/mxv
	.byte	W03
	.byte		        29*seq_042_mvl/mxv
	.byte	W02
	.byte		        34*seq_042_mvl/mxv
	.byte	W02
	.byte		        40*seq_042_mvl/mxv
	.byte	W02
	.byte		        45*seq_042_mvl/mxv
	.byte	W02
	.byte		        51*seq_042_mvl/mxv
	.byte	W02
	.byte		        56*seq_042_mvl/mxv
	.byte	W02
	.byte		        62*seq_042_mvl/mxv
	.byte	W02
	.byte		        66*seq_042_mvl/mxv
	.byte	W04
	.byte		        77*seq_042_mvl/mxv
	.byte	W02
	.byte		        83*seq_042_mvl/mxv
	.byte	W02
	.byte		        88*seq_042_mvl/mxv
	.byte	W02
	.byte		        94*seq_042_mvl/mxv
	.byte	W02
	.byte		        99*seq_042_mvl/mxv
	.byte	W56
	.byte	W03
	.byte	PEND
	.byte	W09
	.byte		VOL   , 99*seq_042_mvl/mxv
	.byte	W02
	.byte		        98*seq_042_mvl/mxv
	.byte	W02
	.byte		        97*seq_042_mvl/mxv
	.byte	W02
	.byte		        96*seq_042_mvl/mxv
	.byte	W02
	.byte		        95*seq_042_mvl/mxv
	.byte	W02
	.byte		        94*seq_042_mvl/mxv
	.byte	W02
	.byte		        93*seq_042_mvl/mxv
	.byte	W02
	.byte		        92*seq_042_mvl/mxv
	.byte	W01
	.byte		        91*seq_042_mvl/mxv
	.byte	W02
	.byte		        90*seq_042_mvl/mxv
	.byte	W02
	.byte		        89*seq_042_mvl/mxv
	.byte	W02
	.byte		        85*seq_042_mvl/mxv
	.byte	W02
	.byte		        84*seq_042_mvl/mxv
	.byte	W02
	.byte		        82*seq_042_mvl/mxv
	.byte	W02
	.byte		        80*seq_042_mvl/mxv
	.byte	W02
	.byte		        78*seq_042_mvl/mxv
	.byte	W01
	.byte		        78*seq_042_mvl/mxv
	.byte	W02
	.byte		        76*seq_042_mvl/mxv
	.byte	W02
	.byte		        74*seq_042_mvl/mxv
	.byte	W02
	.byte		        72*seq_042_mvl/mxv
	.byte	W02
	.byte		        71*seq_042_mvl/mxv
	.byte	W02
	.byte		        69*seq_042_mvl/mxv
	.byte	W02
	.byte		        67*seq_042_mvl/mxv
	.byte	W02
	.byte		        63*seq_042_mvl/mxv
	.byte	W01
	.byte		        62*seq_042_mvl/mxv
	.byte	W02
	.byte		        59*seq_042_mvl/mxv
	.byte	W02
	.byte		        55*seq_042_mvl/mxv
	.byte	W02
	.byte		        52*seq_042_mvl/mxv
	.byte	W02
	.byte		        49*seq_042_mvl/mxv
	.byte	W02
	.byte		        45*seq_042_mvl/mxv
	.byte	W02
	.byte		        42*seq_042_mvl/mxv
	.byte	W02
	.byte		        37*seq_042_mvl/mxv
	.byte	W01
	.byte		        35*seq_042_mvl/mxv
	.byte	W02
	.byte		        30*seq_042_mvl/mxv
	.byte	W02
	.byte		        25*seq_042_mvl/mxv
	.byte	W02
	.byte		        21*seq_042_mvl/mxv
	.byte	W02
	.byte		        16*seq_042_mvl/mxv
	.byte	W02
	.byte		        11*seq_042_mvl/mxv
	.byte	W02
	.byte		        7*seq_042_mvl/mxv
	.byte	W14
	.byte		        0*seq_042_mvl/mxv
	.byte	W01
	.byte	PEND
	.byte		EOT   , En4 
	.byte		TIE   , Dn4 , v068
	.byte	W02
	.byte		VOL   , 4*seq_042_mvl/mxv
	.byte	W02
	.byte		        10*seq_042_mvl/mxv
	.byte	W02
	.byte		        15*seq_042_mvl/mxv
	.byte	W02
	.byte		        21*seq_042_mvl/mxv
	.byte	W03
	.byte		        29*seq_042_mvl/mxv
	.byte	W02
	.byte		        34*seq_042_mvl/mxv
	.byte	W02
	.byte		        40*seq_042_mvl/mxv
	.byte	W02
	.byte		        45*seq_042_mvl/mxv
	.byte	W02
	.byte		        51*seq_042_mvl/mxv
	.byte	W02
	.byte		        56*seq_042_mvl/mxv
	.byte	W02
	.byte		        62*seq_042_mvl/mxv
	.byte	W02
	.byte		        66*seq_042_mvl/mxv
	.byte	W04
	.byte		        77*seq_042_mvl/mxv
	.byte	W02
	.byte		        83*seq_042_mvl/mxv
	.byte	W02
	.byte		        88*seq_042_mvl/mxv
	.byte	W02
	.byte		        94*seq_042_mvl/mxv
	.byte	W02
	.byte		        99*seq_042_mvl/mxv
	.byte	W56
	.byte	W03
	.byte	PEND
	.byte	PATT
	 .word	seq_042_2 + 0x3C
	.byte		EOT   , Dn4 
	.byte	PATT
	 .word	seq_042_2 + 0x13
	.byte	PATT
	 .word	seq_042_2 + 0x3C
	.byte		EOT   , En4 
	.byte	PATT
	 .word	seq_042_2 + 0x91
	.byte	PATT
	 .word	seq_042_2 + 0x3C
	.byte		EOT   , Dn4 
	.byte	PATT
	 .word	seq_042_2 + 0x13
	.byte	PATT
	 .word	seq_042_2 + 0x3C
	.byte		EOT   , En4 
	.byte	PATT
	 .word	seq_042_2 + 0x91
	.byte	PATT
	 .word	seq_042_2 + 0x3C
	.byte		EOT   , Dn4 
	.byte	PATT
	 .word	seq_042_2 + 0x13
	.byte	PATT
	 .word	seq_042_2 + 0x3C
	.byte		EOT   , En4 
	.byte		N48   , Dn4 , v068
	.byte	W02
	.byte		VOL   , 4*seq_042_mvl/mxv
	.byte	W02
	.byte		        10*seq_042_mvl/mxv
	.byte	W02
	.byte		        15*seq_042_mvl/mxv
	.byte	W02
	.byte		        21*seq_042_mvl/mxv
	.byte	W03
	.byte		        29*seq_042_mvl/mxv
	.byte	W02
	.byte		        34*seq_042_mvl/mxv
	.byte	W02
	.byte		        40*seq_042_mvl/mxv
	.byte	W02
	.byte		        45*seq_042_mvl/mxv
	.byte	W02
	.byte		        51*seq_042_mvl/mxv
	.byte	W02
	.byte		        56*seq_042_mvl/mxv
	.byte	W02
	.byte		        62*seq_042_mvl/mxv
	.byte	W02
	.byte		        66*seq_042_mvl/mxv
	.byte	W04
	.byte		        77*seq_042_mvl/mxv
	.byte	W02
	.byte		        83*seq_042_mvl/mxv
	.byte	W02
	.byte		        88*seq_042_mvl/mxv
	.byte	W02
	.byte		        94*seq_042_mvl/mxv
	.byte	W02
	.byte		        99*seq_042_mvl/mxv
	.byte	W11
	.byte		N48   , Cs4 
	.byte	W48
	.byte		        Dn4 
	.byte	W09
	.byte		VOL   , 99*seq_042_mvl/mxv
	.byte	W02
	.byte		        98*seq_042_mvl/mxv
	.byte	W02
	.byte		        97*seq_042_mvl/mxv
	.byte	W02
	.byte		        96*seq_042_mvl/mxv
	.byte	W02
	.byte		        95*seq_042_mvl/mxv
	.byte	W02
	.byte		        94*seq_042_mvl/mxv
	.byte	W02
	.byte		        93*seq_042_mvl/mxv
	.byte	W02
	.byte		        92*seq_042_mvl/mxv
	.byte	W01
	.byte		        91*seq_042_mvl/mxv
	.byte	W02
	.byte		        90*seq_042_mvl/mxv
	.byte	W02
	.byte		        89*seq_042_mvl/mxv
	.byte	W02
	.byte		        85*seq_042_mvl/mxv
	.byte	W02
	.byte		        84*seq_042_mvl/mxv
	.byte	W02
	.byte		        82*seq_042_mvl/mxv
	.byte	W02
	.byte		        80*seq_042_mvl/mxv
	.byte	W02
	.byte		        78*seq_042_mvl/mxv
	.byte	W01
	.byte		        78*seq_042_mvl/mxv
	.byte	W02
	.byte		        76*seq_042_mvl/mxv
	.byte	W02
	.byte		        74*seq_042_mvl/mxv
	.byte	W02
	.byte		        72*seq_042_mvl/mxv
	.byte	W02
	.byte		        71*seq_042_mvl/mxv
	.byte	W02
	.byte		        69*seq_042_mvl/mxv
	.byte	W02
	.byte		        67*seq_042_mvl/mxv
	.byte	W02
	.byte		        63*seq_042_mvl/mxv
	.byte	W01
	.byte		        62*seq_042_mvl/mxv
	.byte	W02
	.byte		        59*seq_042_mvl/mxv
	.byte	W02
	.byte		        55*seq_042_mvl/mxv
	.byte	W02
	.byte		        52*seq_042_mvl/mxv
	.byte	W02
	.byte		        49*seq_042_mvl/mxv
	.byte	W02
	.byte		        45*seq_042_mvl/mxv
	.byte	W02
	.byte		        42*seq_042_mvl/mxv
	.byte	W02
	.byte		        37*seq_042_mvl/mxv
	.byte	W01
	.byte		        35*seq_042_mvl/mxv
	.byte	W02
	.byte		        30*seq_042_mvl/mxv
	.byte	W02
	.byte		        25*seq_042_mvl/mxv
	.byte	W02
	.byte		        21*seq_042_mvl/mxv
	.byte	W02
	.byte		        16*seq_042_mvl/mxv
	.byte	W02
	.byte		        11*seq_042_mvl/mxv
	.byte	W02
	.byte		        7*seq_042_mvl/mxv
	.byte	W15
	.byte	W96
	.byte	W96
	.byte	W96
	.byte	W96
	.byte	W96
	.byte	W96
	.byte	W96
	.byte	W96
	.byte	W96
	.byte	W96
	.byte	W96
	.byte	W96
	.byte	W96
	.byte	W96
	.byte	W96
	.byte	W92
	.byte	W03
	.byte		        0*seq_042_mvl/mxv
	.byte	W01
	.byte	PATT
	 .word	seq_042_2 + 0x13
	.byte	PATT
	 .word	seq_042_2 + 0x3C
	.byte		EOT   , En4 
	.byte	PATT
	 .word	seq_042_2 + 0x91
	.byte	PATT
	 .word	seq_042_2 + 0x3C
	.byte		EOT   , Dn4 
	.byte	PATT
	 .word	seq_042_2 + 0x13
	.byte	PATT
	 .word	seq_042_2 + 0x3C
	.byte		EOT   , En4 
	.byte	PATT
	 .word	seq_042_2 + 0x91
	.byte	PATT
	 .word	seq_042_2 + 0x3C
	.byte		EOT   , Dn4 
	.byte	PATT
	 .word	seq_042_2 + 0x13
	.byte	PATT
	 .word	seq_042_2 + 0x3C
	.byte		EOT   , En4 
	.byte	PATT
	 .word	seq_042_2 + 0x91
	.byte	PATT
	 .word	seq_042_2 + 0x3C
	.byte		EOT   , Dn4 
	.byte	PATT
	 .word	seq_042_2 + 0x13
	.byte	PATT
	 .word	seq_042_2 + 0x3C
	.byte		EOT   , En4 
	.byte	PATT
	 .word	seq_042_2 + 0x91
	.byte	W09
	.byte		VOL   , 99*seq_042_mvl/mxv
	.byte	W02
	.byte		        98*seq_042_mvl/mxv
	.byte	W02
	.byte		        97*seq_042_mvl/mxv
	.byte	W02
	.byte		        96*seq_042_mvl/mxv
	.byte	W02
	.byte		        95*seq_042_mvl/mxv
	.byte	W02
	.byte		        94*seq_042_mvl/mxv
	.byte	W02
	.byte		        93*seq_042_mvl/mxv
	.byte	W02
	.byte		        92*seq_042_mvl/mxv
	.byte	W01
	.byte		        91*seq_042_mvl/mxv
	.byte	W02
	.byte		        90*seq_042_mvl/mxv
	.byte	W02
	.byte		        89*seq_042_mvl/mxv
	.byte	W02
	.byte		        85*seq_042_mvl/mxv
	.byte	W02
	.byte		        84*seq_042_mvl/mxv
	.byte	W02
	.byte		        82*seq_042_mvl/mxv
	.byte	W02
	.byte		        80*seq_042_mvl/mxv
	.byte	W02
	.byte		        78*seq_042_mvl/mxv
	.byte	W01
	.byte		        78*seq_042_mvl/mxv
	.byte	W02
	.byte		        76*seq_042_mvl/mxv
	.byte	W02
	.byte		        74*seq_042_mvl/mxv
	.byte	W02
	.byte		        72*seq_042_mvl/mxv
	.byte	W02
	.byte		        71*seq_042_mvl/mxv
	.byte	W02
	.byte		        69*seq_042_mvl/mxv
	.byte	W02
	.byte		        67*seq_042_mvl/mxv
	.byte	W02
	.byte		        63*seq_042_mvl/mxv
	.byte	W01
	.byte		        62*seq_042_mvl/mxv
	.byte	W02
	.byte		        59*seq_042_mvl/mxv
	.byte	W02
	.byte		        55*seq_042_mvl/mxv
	.byte	W02
	.byte		        52*seq_042_mvl/mxv
	.byte	W02
	.byte		        49*seq_042_mvl/mxv
	.byte	W02
	.byte		        45*seq_042_mvl/mxv
	.byte	W02
	.byte		        42*seq_042_mvl/mxv
	.byte	W02
	.byte		        37*seq_042_mvl/mxv
	.byte	W01
	.byte		        35*seq_042_mvl/mxv
	.byte	W02
	.byte		        30*seq_042_mvl/mxv
	.byte	W02
	.byte		        25*seq_042_mvl/mxv
	.byte	W02
	.byte		        21*seq_042_mvl/mxv
	.byte	W02
	.byte		        16*seq_042_mvl/mxv
	.byte	W02
	.byte		        11*seq_042_mvl/mxv
	.byte	W02
	.byte		        7*seq_042_mvl/mxv
	.byte	W15
	.byte		EOT   , Dn4 
	.byte	GOTO
	 .word	seq_042_2 + 0xD9
	.byte	FINE

@*********************** Track 04 ***********************@

seq_042_3:
	.byte	KEYSH , seq_042_key+0
	.byte	W05
	.byte		VOICE , 4
	.byte		VOL   , 88*seq_042_mvl/mxv
	.byte		PAN   , c_v+0
	.byte	W01
	.byte		MOD   , 45
	.byte		MODT  , mod_tre
	.byte	W64
	.byte	W01
	.byte		VOL   , 0*seq_042_mvl/mxv
	.byte		PAN   , c_v+0
	.byte	W01
	.byte		TIE   , An2 , v100
	.byte	W02
	.byte		VOL   , 4*seq_042_mvl/mxv
	.byte	W02
	.byte		        10*seq_042_mvl/mxv
	.byte	W02
	.byte		        15*seq_042_mvl/mxv
	.byte	W02
	.byte		        21*seq_042_mvl/mxv
	.byte	W03
	.byte		        29*seq_042_mvl/mxv
	.byte	W02
	.byte		        34*seq_042_mvl/mxv
	.byte	W02
	.byte		        40*seq_042_mvl/mxv
	.byte	W02
	.byte		        45*seq_042_mvl/mxv
	.byte	W02
	.byte		        51*seq_042_mvl/mxv
	.byte	W02
	.byte		        56*seq_042_mvl/mxv
	.byte	W02
	.byte		        62*seq_042_mvl/mxv
	.byte	W02
	.byte		        66*seq_042_mvl/mxv
	.byte	W04
	.byte		        77*seq_042_mvl/mxv
	.byte	W02
	.byte		        83*seq_042_mvl/mxv
	.byte	W02
	.byte		        88*seq_042_mvl/mxv
	.byte	W02
	.byte		        94*seq_042_mvl/mxv
	.byte	W02
	.byte		        99*seq_042_mvl/mxv
	.byte	W56
	.byte	W03
	.byte	PEND
	.byte	W09
	.byte		VOL   , 99*seq_042_mvl/mxv
	.byte	W02
	.byte		        98*seq_042_mvl/mxv
	.byte	W02
	.byte		        97*seq_042_mvl/mxv
	.byte	W02
	.byte		        96*seq_042_mvl/mxv
	.byte	W02
	.byte		        95*seq_042_mvl/mxv
	.byte	W02
	.byte		        94*seq_042_mvl/mxv
	.byte	W02
	.byte		        93*seq_042_mvl/mxv
	.byte	W02
	.byte		        92*seq_042_mvl/mxv
	.byte	W01
	.byte		        91*seq_042_mvl/mxv
	.byte	W02
	.byte		        90*seq_042_mvl/mxv
	.byte	W02
	.byte		        89*seq_042_mvl/mxv
	.byte	W02
	.byte		        85*seq_042_mvl/mxv
	.byte	W02
	.byte		        84*seq_042_mvl/mxv
	.byte	W02
	.byte		        82*seq_042_mvl/mxv
	.byte	W02
	.byte		        80*seq_042_mvl/mxv
	.byte	W02
	.byte		        78*seq_042_mvl/mxv
	.byte	W01
	.byte		        78*seq_042_mvl/mxv
	.byte	W02
	.byte		        76*seq_042_mvl/mxv
	.byte	W02
	.byte		        74*seq_042_mvl/mxv
	.byte	W02
	.byte		        72*seq_042_mvl/mxv
	.byte	W02
	.byte		        71*seq_042_mvl/mxv
	.byte	W02
	.byte		        69*seq_042_mvl/mxv
	.byte	W02
	.byte		        67*seq_042_mvl/mxv
	.byte	W02
	.byte		        63*seq_042_mvl/mxv
	.byte	W01
	.byte		        62*seq_042_mvl/mxv
	.byte	W02
	.byte		        59*seq_042_mvl/mxv
	.byte	W02
	.byte		        55*seq_042_mvl/mxv
	.byte	W02
	.byte		        52*seq_042_mvl/mxv
	.byte	W02
	.byte		        49*seq_042_mvl/mxv
	.byte	W02
	.byte		        45*seq_042_mvl/mxv
	.byte	W02
	.byte		        42*seq_042_mvl/mxv
	.byte	W02
	.byte		        37*seq_042_mvl/mxv
	.byte	W01
	.byte		        35*seq_042_mvl/mxv
	.byte	W02
	.byte		        30*seq_042_mvl/mxv
	.byte	W02
	.byte		        25*seq_042_mvl/mxv
	.byte	W02
	.byte		        21*seq_042_mvl/mxv
	.byte	W02
	.byte		        16*seq_042_mvl/mxv
	.byte	W02
	.byte		        11*seq_042_mvl/mxv
	.byte	W02
	.byte		        7*seq_042_mvl/mxv
	.byte	W14
	.byte		        0*seq_042_mvl/mxv
	.byte	W01
	.byte	PEND
	.byte		EOT   , An2 
	.byte	PATT
	 .word	seq_042_3 + 0x15
	.byte	PATT
	 .word	seq_042_3 + 0x3E
	.byte		EOT   , An2 
	.byte	PATT
	 .word	seq_042_3 + 0x15
	.byte	PATT
	 .word	seq_042_3 + 0x3E
	.byte		EOT   , An2 
	.byte	PATT
	 .word	seq_042_3 + 0x15
	.byte	PATT
	 .word	seq_042_3 + 0x3E
	.byte		EOT   , An2 
	.byte	PATT
	 .word	seq_042_3 + 0x15
	.byte	PATT
	 .word	seq_042_3 + 0x3E
	.byte		EOT   , An2 
	.byte	PATT
	 .word	seq_042_3 + 0x15
	.byte	W09
	.byte		VOL   , 99*seq_042_mvl/mxv
	.byte	W02
	.byte		        98*seq_042_mvl/mxv
	.byte	W02
	.byte		        97*seq_042_mvl/mxv
	.byte	W02
	.byte		        96*seq_042_mvl/mxv
	.byte	W02
	.byte		        95*seq_042_mvl/mxv
	.byte	W02
	.byte		        94*seq_042_mvl/mxv
	.byte	W02
	.byte		        93*seq_042_mvl/mxv
	.byte	W02
	.byte		        92*seq_042_mvl/mxv
	.byte	W01
	.byte		        91*seq_042_mvl/mxv
	.byte	W02
	.byte		        90*seq_042_mvl/mxv
	.byte	W02
	.byte		        89*seq_042_mvl/mxv
	.byte	W02
	.byte		        85*seq_042_mvl/mxv
	.byte	W02
	.byte		        84*seq_042_mvl/mxv
	.byte	W02
	.byte		        82*seq_042_mvl/mxv
	.byte	W02
	.byte		        80*seq_042_mvl/mxv
	.byte	W02
	.byte		        78*seq_042_mvl/mxv
	.byte	W01
	.byte		        78*seq_042_mvl/mxv
	.byte	W02
	.byte		        76*seq_042_mvl/mxv
	.byte	W02
	.byte		        74*seq_042_mvl/mxv
	.byte	W02
	.byte		        72*seq_042_mvl/mxv
	.byte	W02
	.byte		        71*seq_042_mvl/mxv
	.byte	W02
	.byte		        69*seq_042_mvl/mxv
	.byte	W02
	.byte		        67*seq_042_mvl/mxv
	.byte	W02
	.byte		        63*seq_042_mvl/mxv
	.byte	W01
	.byte		        62*seq_042_mvl/mxv
	.byte	W02
	.byte		        59*seq_042_mvl/mxv
	.byte	W02
	.byte		        55*seq_042_mvl/mxv
	.byte	W02
	.byte		        52*seq_042_mvl/mxv
	.byte	W02
	.byte		        49*seq_042_mvl/mxv
	.byte	W02
	.byte		        45*seq_042_mvl/mxv
	.byte	W02
	.byte		        42*seq_042_mvl/mxv
	.byte	W02
	.byte		        37*seq_042_mvl/mxv
	.byte	W01
	.byte		        35*seq_042_mvl/mxv
	.byte	W02
	.byte		        30*seq_042_mvl/mxv
	.byte	W02
	.byte		        25*seq_042_mvl/mxv
	.byte	W02
	.byte		        21*seq_042_mvl/mxv
	.byte	W02
	.byte		        16*seq_042_mvl/mxv
	.byte	W02
	.byte		        11*seq_042_mvl/mxv
	.byte	W02
	.byte		        7*seq_042_mvl/mxv
	.byte	W14
	.byte		        0*seq_042_mvl/mxv
	.byte		PAN   , c_v-30
	.byte	W01
	.byte		EOT   , An2 
	.byte		TIE   , Dn3 , v080
	.byte	W02
	.byte		VOL   , 4*seq_042_mvl/mxv
	.byte	W02
	.byte		        10*seq_042_mvl/mxv
	.byte	W02
	.byte		        15*seq_042_mvl/mxv
	.byte	W02
	.byte		        21*seq_042_mvl/mxv
	.byte	W03
	.byte		        29*seq_042_mvl/mxv
	.byte	W02
	.byte		        34*seq_042_mvl/mxv
	.byte	W02
	.byte		        40*seq_042_mvl/mxv
	.byte	W02
	.byte		        45*seq_042_mvl/mxv
	.byte	W02
	.byte		        51*seq_042_mvl/mxv
	.byte	W02
	.byte		        56*seq_042_mvl/mxv
	.byte	W02
	.byte		        62*seq_042_mvl/mxv
	.byte	W02
	.byte		        66*seq_042_mvl/mxv
	.byte	W04
	.byte		        77*seq_042_mvl/mxv
	.byte	W02
	.byte		        83*seq_042_mvl/mxv
	.byte	W02
	.byte		        88*seq_042_mvl/mxv
	.byte	W02
	.byte		        94*seq_042_mvl/mxv
	.byte	W02
	.byte		        99*seq_042_mvl/mxv
	.byte	W56
	.byte	W03
	.byte	PATT
	 .word	seq_042_3 + 0x3E
	.byte		EOT   , Dn3 
	.byte		N48   , Bn2 , v080
	.byte	W02
	.byte		VOL   , 4*seq_042_mvl/mxv
	.byte	W02
	.byte		        10*seq_042_mvl/mxv
	.byte	W02
	.byte		        15*seq_042_mvl/mxv
	.byte	W02
	.byte		        21*seq_042_mvl/mxv
	.byte	W03
	.byte		        29*seq_042_mvl/mxv
	.byte	W02
	.byte		        34*seq_042_mvl/mxv
	.byte	W02
	.byte		        40*seq_042_mvl/mxv
	.byte	W02
	.byte		        45*seq_042_mvl/mxv
	.byte	W02
	.byte		        51*seq_042_mvl/mxv
	.byte	W02
	.byte		        56*seq_042_mvl/mxv
	.byte	W02
	.byte		        62*seq_042_mvl/mxv
	.byte	W02
	.byte		        66*seq_042_mvl/mxv
	.byte	W04
	.byte		        77*seq_042_mvl/mxv
	.byte	W02
	.byte		        83*seq_042_mvl/mxv
	.byte	W02
	.byte		        88*seq_042_mvl/mxv
	.byte	W02
	.byte		        94*seq_042_mvl/mxv
	.byte	W02
	.byte		        99*seq_042_mvl/mxv
	.byte	W11
	.byte		N48   , Cs3 
	.byte	W48
	.byte		        Dn3 
	.byte	W09
	.byte		VOL   , 99*seq_042_mvl/mxv
	.byte	W02
	.byte		        98*seq_042_mvl/mxv
	.byte	W02
	.byte		        97*seq_042_mvl/mxv
	.byte	W02
	.byte		        96*seq_042_mvl/mxv
	.byte	W02
	.byte		        95*seq_042_mvl/mxv
	.byte	W02
	.byte		        94*seq_042_mvl/mxv
	.byte	W02
	.byte		        93*seq_042_mvl/mxv
	.byte	W02
	.byte		        92*seq_042_mvl/mxv
	.byte	W01
	.byte		        91*seq_042_mvl/mxv
	.byte	W02
	.byte		        90*seq_042_mvl/mxv
	.byte	W02
	.byte		        89*seq_042_mvl/mxv
	.byte	W02
	.byte		        85*seq_042_mvl/mxv
	.byte	W02
	.byte		        84*seq_042_mvl/mxv
	.byte	W02
	.byte		        82*seq_042_mvl/mxv
	.byte	W02
	.byte		        80*seq_042_mvl/mxv
	.byte	W02
	.byte		        78*seq_042_mvl/mxv
	.byte	W01
	.byte		        78*seq_042_mvl/mxv
	.byte	W02
	.byte		        76*seq_042_mvl/mxv
	.byte	W02
	.byte		        74*seq_042_mvl/mxv
	.byte	W02
	.byte		        72*seq_042_mvl/mxv
	.byte	W02
	.byte		        71*seq_042_mvl/mxv
	.byte	W02
	.byte		        69*seq_042_mvl/mxv
	.byte	W02
	.byte		        67*seq_042_mvl/mxv
	.byte	W02
	.byte		        63*seq_042_mvl/mxv
	.byte	W01
	.byte		        62*seq_042_mvl/mxv
	.byte	W02
	.byte		        59*seq_042_mvl/mxv
	.byte	W02
	.byte		        55*seq_042_mvl/mxv
	.byte	W02
	.byte		        52*seq_042_mvl/mxv
	.byte	W02
	.byte		        49*seq_042_mvl/mxv
	.byte	W02
	.byte		        45*seq_042_mvl/mxv
	.byte	W02
	.byte		        42*seq_042_mvl/mxv
	.byte	W02
	.byte		        37*seq_042_mvl/mxv
	.byte	W01
	.byte		        35*seq_042_mvl/mxv
	.byte	W02
	.byte		        30*seq_042_mvl/mxv
	.byte	W02
	.byte		        25*seq_042_mvl/mxv
	.byte	W02
	.byte		        21*seq_042_mvl/mxv
	.byte	W02
	.byte		        16*seq_042_mvl/mxv
	.byte	W02
	.byte		        11*seq_042_mvl/mxv
	.byte	W02
	.byte		        7*seq_042_mvl/mxv
	.byte	W14
	.byte		VOICE , 95
	.byte		MOD   , 35
	.byte		VOL   , 88*seq_042_mvl/mxv
	.byte		PAN   , c_v-30
	.byte		MODT  , mod_pan
	.byte	W01
	.byte		N96   , Fs2 , v108
	.byte	W96
	.byte		        En2 
	.byte	W96
	.byte		TIE   , Fs2 
	.byte	W96
	.byte	W24
	.byte		EOT
	.byte		N12   , Dn3 
	.byte	W12
	.byte		N24   , Cs3 
	.byte	W24
	.byte		        Dn3 
	.byte	W24
	.byte		TIE   , Fs2 
	.byte	W12
	.byte	W96
	.byte		EOT
	.byte		N96   , En2 
	.byte	W96
	.byte		        Fs2 
	.byte	W96
	.byte		N24   , En2 
	.byte	W24
	.byte		N12   , An1 
	.byte	W12
	.byte		N24   , An2 
	.byte	W24
	.byte		N12   , En2 
	.byte	W12
	.byte		N24   , Cs2 
	.byte	W23
	.byte		VOICE , 4
	.byte		PAN   , c_v-30
	.byte	W01
	.byte		TIE   , Fs3 
	.byte	W96
	.byte	W96
	.byte	W96
	.byte		EOT
	.byte		N96   , En3 
	.byte	W96
	.byte		        Dn3 
	.byte	W96
	.byte	W96
	.byte		        Cs3 
	.byte	W96
	.byte	W92
	.byte	W03
	.byte		VOL   , 0*seq_042_mvl/mxv
	.byte		PAN   , c_v+0
	.byte	W01
	.byte	PATT
	 .word	seq_042_3 + 0x15
	.byte	PATT
	 .word	seq_042_3 + 0x3E
	.byte		EOT   , An2 
	.byte	PATT
	 .word	seq_042_3 + 0x15
	.byte	W09
	.byte		VOL   , 99*seq_042_mvl/mxv
	.byte	W02
	.byte		        98*seq_042_mvl/mxv
	.byte	W02
	.byte		        97*seq_042_mvl/mxv
	.byte	W02
	.byte		        96*seq_042_mvl/mxv
	.byte	W02
	.byte		        95*seq_042_mvl/mxv
	.byte	W02
	.byte		        94*seq_042_mvl/mxv
	.byte	W02
	.byte		        93*seq_042_mvl/mxv
	.byte	W02
	.byte		        92*seq_042_mvl/mxv
	.byte	W01
	.byte		        91*seq_042_mvl/mxv
	.byte	W02
	.byte		        90*seq_042_mvl/mxv
	.byte	W02
	.byte		        89*seq_042_mvl/mxv
	.byte	W02
	.byte		        85*seq_042_mvl/mxv
	.byte	W02
	.byte		        84*seq_042_mvl/mxv
	.byte	W02
	.byte		        82*seq_042_mvl/mxv
	.byte	W02
	.byte		        80*seq_042_mvl/mxv
	.byte	W02
	.byte		        78*seq_042_mvl/mxv
	.byte	W01
	.byte		        78*seq_042_mvl/mxv
	.byte	W02
	.byte		        76*seq_042_mvl/mxv
	.byte	W02
	.byte		        74*seq_042_mvl/mxv
	.byte	W02
	.byte		        72*seq_042_mvl/mxv
	.byte	W02
	.byte		        71*seq_042_mvl/mxv
	.byte	W02
	.byte		        69*seq_042_mvl/mxv
	.byte	W02
	.byte		        67*seq_042_mvl/mxv
	.byte	W02
	.byte		        63*seq_042_mvl/mxv
	.byte	W01
	.byte		        62*seq_042_mvl/mxv
	.byte	W02
	.byte		        59*seq_042_mvl/mxv
	.byte	W02
	.byte		        55*seq_042_mvl/mxv
	.byte	W02
	.byte		        52*seq_042_mvl/mxv
	.byte	W02
	.byte		        49*seq_042_mvl/mxv
	.byte	W02
	.byte		        45*seq_042_mvl/mxv
	.byte	W02
	.byte		        42*seq_042_mvl/mxv
	.byte	W02
	.byte		        37*seq_042_mvl/mxv
	.byte	W01
	.byte		        35*seq_042_mvl/mxv
	.byte	W02
	.byte		        30*seq_042_mvl/mxv
	.byte	W02
	.byte		        25*seq_042_mvl/mxv
	.byte	W02
	.byte		        21*seq_042_mvl/mxv
	.byte	W02
	.byte		        16*seq_042_mvl/mxv
	.byte	W02
	.byte		        11*seq_042_mvl/mxv
	.byte	W02
	.byte		        7*seq_042_mvl/mxv
	.byte	W14
	.byte		        0*seq_042_mvl/mxv
	.byte		PAN   , c_v+0
	.byte	W01
	.byte	PEND
	.byte		EOT   , An2 
	.byte	PATT
	 .word	seq_042_3 + 0x15
	.byte	PATT
	 .word	seq_042_3 + 0x3E
	.byte		EOT   , An2 
	.byte	PATT
	 .word	seq_042_3 + 0x15
	.byte	PATT
	 .word	seq_042_3 + 0x22A
	.byte		EOT   , An2 
	.byte	PATT
	 .word	seq_042_3 + 0x15
	.byte	PATT
	 .word	seq_042_3 + 0x3E
	.byte		EOT   , An2 
	.byte	PATT
	 .word	seq_042_3 + 0x15
	.byte	PATT
	 .word	seq_042_3 + 0x3E
	.byte		EOT   , An2 
	.byte	PATT
	 .word	seq_042_3 + 0x15
	.byte	PATT
	 .word	seq_042_3 + 0x3E
	.byte		EOT   , An2 
	.byte	PATT
	 .word	seq_042_3 + 0x15
	.byte	W09
	.byte		VOL   , 99*seq_042_mvl/mxv
	.byte	W02
	.byte		        98*seq_042_mvl/mxv
	.byte	W02
	.byte		        97*seq_042_mvl/mxv
	.byte	W02
	.byte		        96*seq_042_mvl/mxv
	.byte	W02
	.byte		        95*seq_042_mvl/mxv
	.byte	W02
	.byte		        94*seq_042_mvl/mxv
	.byte	W02
	.byte		        93*seq_042_mvl/mxv
	.byte	W02
	.byte		        92*seq_042_mvl/mxv
	.byte	W01
	.byte		        91*seq_042_mvl/mxv
	.byte	W02
	.byte		        90*seq_042_mvl/mxv
	.byte	W02
	.byte		        89*seq_042_mvl/mxv
	.byte	W02
	.byte		        85*seq_042_mvl/mxv
	.byte	W02
	.byte		        84*seq_042_mvl/mxv
	.byte	W02
	.byte		        82*seq_042_mvl/mxv
	.byte	W02
	.byte		        80*seq_042_mvl/mxv
	.byte	W02
	.byte		        78*seq_042_mvl/mxv
	.byte	W01
	.byte		        78*seq_042_mvl/mxv
	.byte	W02
	.byte		        76*seq_042_mvl/mxv
	.byte	W02
	.byte		        74*seq_042_mvl/mxv
	.byte	W02
	.byte		        72*seq_042_mvl/mxv
	.byte	W02
	.byte		        71*seq_042_mvl/mxv
	.byte	W02
	.byte		        69*seq_042_mvl/mxv
	.byte	W02
	.byte		        67*seq_042_mvl/mxv
	.byte	W02
	.byte		        63*seq_042_mvl/mxv
	.byte	W01
	.byte		        62*seq_042_mvl/mxv
	.byte	W02
	.byte		        59*seq_042_mvl/mxv
	.byte	W02
	.byte		        55*seq_042_mvl/mxv
	.byte	W02
	.byte		        52*seq_042_mvl/mxv
	.byte	W02
	.byte		        49*seq_042_mvl/mxv
	.byte	W02
	.byte		        45*seq_042_mvl/mxv
	.byte	W02
	.byte		        42*seq_042_mvl/mxv
	.byte	W02
	.byte		        37*seq_042_mvl/mxv
	.byte	W01
	.byte		        35*seq_042_mvl/mxv
	.byte	W02
	.byte		        30*seq_042_mvl/mxv
	.byte	W02
	.byte		        25*seq_042_mvl/mxv
	.byte	W02
	.byte		        21*seq_042_mvl/mxv
	.byte	W02
	.byte		        16*seq_042_mvl/mxv
	.byte	W02
	.byte		        11*seq_042_mvl/mxv
	.byte	W02
	.byte		        7*seq_042_mvl/mxv
	.byte	W15
	.byte		EOT   , An2 
	.byte	GOTO
	 .word	seq_042_3 + 0xB7
	.byte	FINE

@*********************** Track 05 ***********************@

seq_042_4:
	.byte	KEYSH , seq_042_key+0
	.byte	W07
	.byte		VOICE , 4
	.byte		VOL   , 88*seq_042_mvl/mxv
	.byte		PAN   , c_v+10
	.byte	W01
	.byte		MOD   , 25
	.byte		MODT  , mod_tre
	.byte	W64
	.byte	W96
	.byte	W96
	.byte	W96
	.byte	W96
	.byte	W96
	.byte	W96
	.byte	W96
	.byte	W96
	.byte	W96
	.byte	W96
	.byte	W96
	.byte	W92
	.byte	W03
	.byte		VOL   , 0*seq_042_mvl/mxv
	.byte		PAN   , c_v+30
	.byte	W01
	.byte		N96   , An2 , v080
	.byte	W02
	.byte		VOL   , 4*seq_042_mvl/mxv
	.byte	W02
	.byte		        10*seq_042_mvl/mxv
	.byte	W02
	.byte		        15*seq_042_mvl/mxv
	.byte	W02
	.byte		        21*seq_042_mvl/mxv
	.byte	W03
	.byte		        29*seq_042_mvl/mxv
	.byte	W02
	.byte		        34*seq_042_mvl/mxv
	.byte	W02
	.byte		        40*seq_042_mvl/mxv
	.byte	W02
	.byte		        45*seq_042_mvl/mxv
	.byte	W02
	.byte		        51*seq_042_mvl/mxv
	.byte	W02
	.byte		        56*seq_042_mvl/mxv
	.byte	W02
	.byte		        62*seq_042_mvl/mxv
	.byte	W02
	.byte		        66*seq_042_mvl/mxv
	.byte	W04
	.byte		        77*seq_042_mvl/mxv
	.byte	W02
	.byte		        83*seq_042_mvl/mxv
	.byte	W02
	.byte		        88*seq_042_mvl/mxv
	.byte	W02
	.byte		        94*seq_042_mvl/mxv
	.byte	W02
	.byte		        99*seq_042_mvl/mxv
	.byte	W56
	.byte	W03
	.byte		N96   , Fs2 
	.byte	W09
	.byte		VOL   , 99*seq_042_mvl/mxv
	.byte	W02
	.byte		        98*seq_042_mvl/mxv
	.byte	W02
	.byte		        97*seq_042_mvl/mxv
	.byte	W02
	.byte		        96*seq_042_mvl/mxv
	.byte	W02
	.byte		        95*seq_042_mvl/mxv
	.byte	W02
	.byte		        94*seq_042_mvl/mxv
	.byte	W02
	.byte		        93*seq_042_mvl/mxv
	.byte	W02
	.byte		        92*seq_042_mvl/mxv
	.byte	W01
	.byte		        91*seq_042_mvl/mxv
	.byte	W02
	.byte		        90*seq_042_mvl/mxv
	.byte	W02
	.byte		        89*seq_042_mvl/mxv
	.byte	W02
	.byte		        85*seq_042_mvl/mxv
	.byte	W02
	.byte		        84*seq_042_mvl/mxv
	.byte	W02
	.byte		        82*seq_042_mvl/mxv
	.byte	W02
	.byte		        80*seq_042_mvl/mxv
	.byte	W02
	.byte		        78*seq_042_mvl/mxv
	.byte	W01
	.byte		        78*seq_042_mvl/mxv
	.byte	W02
	.byte		        76*seq_042_mvl/mxv
	.byte	W02
	.byte		        74*seq_042_mvl/mxv
	.byte	W02
	.byte		        72*seq_042_mvl/mxv
	.byte	W02
	.byte		        71*seq_042_mvl/mxv
	.byte	W02
	.byte		        69*seq_042_mvl/mxv
	.byte	W02
	.byte		        67*seq_042_mvl/mxv
	.byte	W02
	.byte		        63*seq_042_mvl/mxv
	.byte	W01
	.byte		        62*seq_042_mvl/mxv
	.byte	W02
	.byte		        59*seq_042_mvl/mxv
	.byte	W02
	.byte		        55*seq_042_mvl/mxv
	.byte	W02
	.byte		        52*seq_042_mvl/mxv
	.byte	W02
	.byte		        49*seq_042_mvl/mxv
	.byte	W02
	.byte		        45*seq_042_mvl/mxv
	.byte	W02
	.byte		        42*seq_042_mvl/mxv
	.byte	W02
	.byte		        37*seq_042_mvl/mxv
	.byte	W01
	.byte		        35*seq_042_mvl/mxv
	.byte	W02
	.byte		        30*seq_042_mvl/mxv
	.byte	W02
	.byte		        25*seq_042_mvl/mxv
	.byte	W02
	.byte		        21*seq_042_mvl/mxv
	.byte	W02
	.byte		        16*seq_042_mvl/mxv
	.byte	W02
	.byte		        11*seq_042_mvl/mxv
	.byte	W02
	.byte		        7*seq_042_mvl/mxv
	.byte	W14
	.byte		        0*seq_042_mvl/mxv
	.byte	W01
	.byte		N48   , Gn2 
	.byte	W02
	.byte		VOL   , 4*seq_042_mvl/mxv
	.byte	W02
	.byte		        10*seq_042_mvl/mxv
	.byte	W02
	.byte		        15*seq_042_mvl/mxv
	.byte	W02
	.byte		        21*seq_042_mvl/mxv
	.byte	W03
	.byte		        29*seq_042_mvl/mxv
	.byte	W02
	.byte		        34*seq_042_mvl/mxv
	.byte	W02
	.byte		        40*seq_042_mvl/mxv
	.byte	W02
	.byte		        45*seq_042_mvl/mxv
	.byte	W02
	.byte		        51*seq_042_mvl/mxv
	.byte	W02
	.byte		        56*seq_042_mvl/mxv
	.byte	W02
	.byte		        62*seq_042_mvl/mxv
	.byte	W02
	.byte		        66*seq_042_mvl/mxv
	.byte	W04
	.byte		        77*seq_042_mvl/mxv
	.byte	W02
	.byte		        83*seq_042_mvl/mxv
	.byte	W02
	.byte		        88*seq_042_mvl/mxv
	.byte	W02
	.byte		        94*seq_042_mvl/mxv
	.byte	W02
	.byte		        99*seq_042_mvl/mxv
	.byte	W11
	.byte		N48   , An2 
	.byte	W48
	.byte		        Bn2 
	.byte	W09
	.byte		VOL   , 99*seq_042_mvl/mxv
	.byte	W02
	.byte		        98*seq_042_mvl/mxv
	.byte	W02
	.byte		        97*seq_042_mvl/mxv
	.byte	W02
	.byte		        96*seq_042_mvl/mxv
	.byte	W02
	.byte		        95*seq_042_mvl/mxv
	.byte	W02
	.byte		        94*seq_042_mvl/mxv
	.byte	W02
	.byte		        93*seq_042_mvl/mxv
	.byte	W02
	.byte		        92*seq_042_mvl/mxv
	.byte	W01
	.byte		        91*seq_042_mvl/mxv
	.byte	W02
	.byte		        90*seq_042_mvl/mxv
	.byte	W02
	.byte		        89*seq_042_mvl/mxv
	.byte	W02
	.byte		        85*seq_042_mvl/mxv
	.byte	W02
	.byte		        84*seq_042_mvl/mxv
	.byte	W02
	.byte		        82*seq_042_mvl/mxv
	.byte	W02
	.byte		        80*seq_042_mvl/mxv
	.byte	W02
	.byte		        78*seq_042_mvl/mxv
	.byte	W01
	.byte		        78*seq_042_mvl/mxv
	.byte	W02
	.byte		        76*seq_042_mvl/mxv
	.byte	W02
	.byte		        74*seq_042_mvl/mxv
	.byte	W02
	.byte		        72*seq_042_mvl/mxv
	.byte	W02
	.byte		        71*seq_042_mvl/mxv
	.byte	W02
	.byte		        69*seq_042_mvl/mxv
	.byte	W02
	.byte		        67*seq_042_mvl/mxv
	.byte	W02
	.byte		        63*seq_042_mvl/mxv
	.byte	W01
	.byte		        62*seq_042_mvl/mxv
	.byte	W02
	.byte		        59*seq_042_mvl/mxv
	.byte	W02
	.byte		        55*seq_042_mvl/mxv
	.byte	W02
	.byte		        52*seq_042_mvl/mxv
	.byte	W02
	.byte		        49*seq_042_mvl/mxv
	.byte	W02
	.byte		        45*seq_042_mvl/mxv
	.byte	W02
	.byte		        42*seq_042_mvl/mxv
	.byte	W02
	.byte		        37*seq_042_mvl/mxv
	.byte	W01
	.byte		        35*seq_042_mvl/mxv
	.byte	W02
	.byte		        30*seq_042_mvl/mxv
	.byte	W02
	.byte		        25*seq_042_mvl/mxv
	.byte	W02
	.byte		        21*seq_042_mvl/mxv
	.byte	W02
	.byte		        16*seq_042_mvl/mxv
	.byte	W02
	.byte		        11*seq_042_mvl/mxv
	.byte	W02
	.byte		        7*seq_042_mvl/mxv
	.byte	W14
	.byte		VOICE , 95
	.byte		MOD   , 25
	.byte		VOL   , 88*seq_042_mvl/mxv
	.byte		PAN   , c_v+30
	.byte		MODT  , mod_pan
	.byte	W01
	.byte		N96   , Bn1 , v108
	.byte	W96
	.byte		N12   , Cs2 
	.byte	W12
	.byte		        An1 
	.byte	W12
	.byte		        Bn1 
	.byte	W12
	.byte		N60   , Cs2 
	.byte	W60
	.byte		TIE   , Dn2 
	.byte	W96
	.byte	W96
	.byte		EOT
	.byte		N96   , Bn1 
	.byte	W96
	.byte		N12   , An1 
	.byte	W12
	.byte		        Cs1 
	.byte	W12
	.byte		        En1 
	.byte	W12
	.byte		N36   , An1 
	.byte	W36
	.byte		N24   , Cs2 
	.byte	W24
	.byte		N96   , Dn2 
	.byte	W96
	.byte		        Cs2 
	.byte	W92
	.byte	W03
	.byte		VOICE , 4
	.byte		PAN   , c_v+30
	.byte	W01
	.byte		N96   , Bn2 
	.byte	W96
	.byte		        Cs3 
	.byte	W96
	.byte		        Dn3 
	.byte	W96
	.byte		TIE   , Bn2 
	.byte	W96
	.byte	W96
	.byte		EOT
	.byte	W96
	.byte		N96   , An2 
	.byte	W96
	.byte	W96
	.byte	W96
	.byte	W96
	.byte	W96
	.byte	W96
	.byte	W96
	.byte	W96
	.byte	W96
	.byte	W96
	.byte	W96
	.byte	W96
	.byte	W96
	.byte	W96
	.byte	W96
	.byte	W96
	.byte	W96
	.byte	W96
	.byte	GOTO
	 .word	seq_042_4 + 0x17
	.byte	FINE

@*********************** Track 06 ***********************@

seq_042_5:
	.byte	KEYSH , seq_042_key+0
	.byte	W09
	.byte		VOICE , 51
	.byte		MOD   , 90
	.byte		LFOS  , 35
	.byte	W01
	.byte		VOL   , 93*seq_042_mvl/mxv
	.byte		PAN   , c_v+0
	.byte		MODT  , mod_pan
	.byte	W60
	.byte	W02
	.byte	W12
	.byte		N04   , An3 , v088
	.byte	W06
	.byte		        An3 , v032
	.byte	W06
	.byte		        Dn3 , v056
	.byte	W06
	.byte		        Dn3 , v032
	.byte	W06
	.byte		        En3 , v088
	.byte	W06
	.byte		        En3 , v032
	.byte	W18
	.byte		        Dn3 , v056
	.byte	W06
	.byte		        Dn3 , v032
	.byte	W30
	.byte	PEND
	.byte	W96
	.byte	PATT
	 .word	seq_042_5 + 0x12
	.byte	W96
	.byte	PATT
	 .word	seq_042_5 + 0x12
	.byte	W96
	.byte	PATT
	 .word	seq_042_5 + 0x12
	.byte	W96
	.byte	PATT
	 .word	seq_042_5 + 0x12
	.byte	W96
	.byte	PATT
	 .word	seq_042_5 + 0x12
	.byte	W96
	.byte	W96
	.byte	W96
	.byte	W96
	.byte	W96
	.byte	W96
	.byte	W96
	.byte	W96
	.byte	W96
	.byte	W96
	.byte	W96
	.byte	W96
	.byte	W96
	.byte	W96
	.byte	W96
	.byte	W96
	.byte	W96
	.byte	W96
	.byte	W96
	.byte	W96
	.byte	W92
	.byte	W03
	.byte		VOICE , 95
	.byte		MOD   , 100
	.byte		VOL   , 73*seq_042_mvl/mxv
	.byte		MODT  , mod_pan
	.byte	W01
	.byte	W12
	.byte		N04   , An3 , v088
	.byte	W06
	.byte		        An3 , v032
	.byte	W06
	.byte		        Dn3 , v056
	.byte	W06
	.byte		        Dn3 , v032
	.byte	W06
	.byte		        En3 , v088
	.byte	W06
	.byte		        En3 , v032
	.byte	W18
	.byte		        Dn3 , v056
	.byte	W06
	.byte		        Dn3 , v032
	.byte	W18
	.byte		        An2 , v056
	.byte	W06
	.byte		        An2 , v032
	.byte	W06
	.byte	PEND
	.byte	W12
	.byte		N04   , Dn3 , v056
	.byte	W06
	.byte		        Dn3 , v032
	.byte	W18
	.byte		        An3 , v088
	.byte	W06
	.byte		        An3 , v032
	.byte	W18
	.byte		        Dn3 , v056
	.byte	W06
	.byte		        Dn3 , v032
	.byte	W30
	.byte	PEND
	.byte	PATT
	 .word	seq_042_5 + 0x6A
	.byte	PATT
	 .word	seq_042_5 + 0x8B
	.byte	PATT
	 .word	seq_042_5 + 0x6A
	.byte	PATT
	 .word	seq_042_5 + 0x8B
	.byte	PATT
	 .word	seq_042_5 + 0x6A
	.byte	W92
	.byte	W03
	.byte		VOICE , 51
	.byte		MOD   , 90
	.byte		VOL   , 88*seq_042_mvl/mxv
	.byte		MODT  , mod_pan
	.byte	W01
	.byte	PATT
	 .word	seq_042_5 + 0x12
	.byte	W96
	.byte	PATT
	 .word	seq_042_5 + 0x12
	.byte	W96
	.byte	PATT
	 .word	seq_042_5 + 0x12
	.byte	W96
	.byte	PATT
	 .word	seq_042_5 + 0x12
	.byte	W96
	.byte	GOTO
	 .word	seq_042_5 + 0x40
	.byte	FINE

@*********************** Track 07 ***********************@

seq_042_6:
	.byte	KEYSH , seq_042_key+0
	.byte	W11
	.byte		VOICE , 9
	.byte		MOD   , 15
	.byte		MODT  , mod_pan
	.byte	W01
	.byte		VOL   , 125*seq_042_mvl/mxv
	.byte		PAN   , c_v+0
	.byte	W60
	.byte		N12   , Dn2 , v127
	.byte	W12
	.byte		        An2 , v080
	.byte	W12
	.byte		        En3 , v060
	.byte	W12
	.byte		        An3 , v092
	.byte	W60
	.byte	PEND
	.byte		N12   , Cs2 , v127
	.byte	W12
	.byte		        An2 , v080
	.byte	W12
	.byte		        En3 , v060
	.byte	W12
	.byte		        An3 , v092
	.byte	W60
	.byte	PEND
	.byte		N12   , Bn1 , v127
	.byte	W12
	.byte		        An2 , v080
	.byte	W12
	.byte		        Dn3 , v060
	.byte	W12
	.byte		        Fs3 , v092
	.byte	W60
	.byte	PEND
	.byte		N12   , An1 , v127
	.byte	W12
	.byte		        En3 , v096
	.byte	W12
	.byte		        Dn3 , v052
	.byte	W12
	.byte		        An2 , v048
	.byte	W60
	.byte	PEND
	.byte		N12   , Gn2 , v127
	.byte	W12
	.byte		        Dn3 
	.byte	W12
	.byte		        En3 , v060
	.byte	W12
	.byte		        An3 , v092
	.byte	W60
	.byte	PEND
	.byte		N12   , Fs2 , v127
	.byte	W12
	.byte		        Dn3 
	.byte	W12
	.byte		        An3 , v060
	.byte	W12
	.byte		        Dn4 , v092
	.byte	W60
	.byte	PEND
	.byte		N12   , Gn2 , v127
	.byte	W12
	.byte		        Bn2 , v080
	.byte	W12
	.byte		        Dn3 , v060
	.byte	W24
	.byte		        Gs2 , v127
	.byte	W12
	.byte		        Bn2 , v080
	.byte	W12
	.byte		        Dn3 , v060
	.byte	W24
	.byte	PEND
	.byte		N12   , An2 , v127
	.byte	W12
	.byte		        En3 , v092
	.byte	W12
	.byte		        Dn3 , v040
	.byte	W12
	.byte		        An2 , v036
	.byte	W12
	.byte		        En3 , v092
	.byte	W12
	.byte		        Dn3 , v040
	.byte	W12
	.byte		        An2 , v036
	.byte	W24
	.byte	PEND
	.byte	PATT
	 .word	seq_042_6 + 0xF
	.byte	PATT
	 .word	seq_042_6 + 0x1D
	.byte	PATT
	 .word	seq_042_6 + 0x2B
	.byte	PATT
	 .word	seq_042_6 + 0x39
	.byte	PATT
	 .word	seq_042_6 + 0x47
	.byte	PATT
	 .word	seq_042_6 + 0x54
	.byte		N12   , Gn2 , v127
	.byte	W12
	.byte		        Bn2 , v080
	.byte	W12
	.byte		        Dn3 , v060
	.byte	W24
	.byte		        An2 , v127
	.byte	W12
	.byte		        Cs3 , v080
	.byte	W12
	.byte		        En3 , v060
	.byte	W24
	.byte		        Bn2 , v127
	.byte	W12
	.byte		        Dn3 , v092
	.byte	W12
	.byte		        Fs3 , v060
	.byte	W12
	.byte		        Bn3 
	.byte	W60
	.byte		N12   , Gn1 , v127
	.byte	W12
	.byte		        Fs2 , v120
	.byte	W12
	.byte		        Bn2 , v092
	.byte	W12
	.byte		        Dn3 , v120
	.byte	W24
	.byte		        Bn2 , v092
	.byte	W12
	.byte		        Fs3 
	.byte	W24
	.byte	PEND
	.byte		N12   , An1 , v127
	.byte	W12
	.byte		        Fs2 , v120
	.byte	W12
	.byte		        An2 , v092
	.byte	W12
	.byte		        Cs3 , v120
	.byte	W24
	.byte		        An2 , v092
	.byte	W12
	.byte		        En3 
	.byte	W24
	.byte	PEND
	.byte		N12   , Bn1 , v127
	.byte	W12
	.byte		        Fs2 , v092
	.byte	W12
	.byte		        Bn2 
	.byte	W12
	.byte		        Dn3 , v120
	.byte	W24
	.byte		        Bn2 , v092
	.byte	W12
	.byte		        Fs3 
	.byte	W24
	.byte	PEND
	.byte		        An1 , v127
	.byte	W12
	.byte		        Fs2 , v092
	.byte	W12
	.byte		        Dn3 
	.byte	W12
	.byte		        Fs3 , v120
	.byte	W24
	.byte		        Dn3 , v092
	.byte	W12
	.byte		        An3 
	.byte	W24
	.byte	PATT
	 .word	seq_042_6 + 0xC8
	.byte	PATT
	 .word	seq_042_6 + 0xDB
	.byte	PATT
	 .word	seq_042_6 + 0xEE
	.byte		N12   , An1 , v127
	.byte	W12
	.byte		        Fs2 , v092
	.byte	W12
	.byte		        An2 
	.byte	W12
	.byte		        Cs3 , v120
	.byte	W24
	.byte		        An2 , v092
	.byte	W12
	.byte		        En3 
	.byte	W24
	.byte	PATT
	 .word	seq_042_6 + 0xC8
	.byte		N12   , An1 , v127
	.byte	W12
	.byte		        Fs2 , v120
	.byte	W12
	.byte		        An2 , v092
	.byte	W12
	.byte		        Cs3 , v120
	.byte	W24
	.byte		        An2 , v092
	.byte	W12
	.byte		        Cs3 
	.byte	W24
	.byte		        Dn2 , v127
	.byte	W12
	.byte		        An1 , v092
	.byte	W12
	.byte		        Dn2 
	.byte	W12
	.byte		        Fs2 , v120
	.byte	W24
	.byte		        Dn2 , v092
	.byte	W12
	.byte		        An2 
	.byte	W24
	.byte		        En2 , v127
	.byte	W12
	.byte		        Bn1 , v092
	.byte	W12
	.byte		        En2 
	.byte	W12
	.byte		        Gs2 , v120
	.byte	W24
	.byte		        En2 , v092
	.byte	W12
	.byte		        Bn2 
	.byte	W24
	.byte		        Gn1 , v127
	.byte	W12
	.byte		        Dn2 , v120
	.byte	W12
	.byte		        An2 , v092
	.byte	W12
	.byte		        Dn3 , v120
	.byte	W24
	.byte		        Bn2 , v092
	.byte	W12
	.byte		        Fs3 
	.byte	W24
	.byte		N84   , Gn2 , v048
	.byte	W03
	.byte		VOL   , 119*seq_042_mvl/mxv
	.byte		N84   , Bn2 , v064
	.byte	W02
	.byte		VOL   , 116*seq_042_mvl/mxv
	.byte		N84   , Dn3 , v100
	.byte	W01
	.byte		VOL   , 113*seq_042_mvl/mxv
	.byte	W02
	.byte		        105*seq_042_mvl/mxv
	.byte	W01
	.byte		        101*seq_042_mvl/mxv
	.byte	W01
	.byte		        97*seq_042_mvl/mxv
	.byte	W02
	.byte		        89*seq_042_mvl/mxv
	.byte	W01
	.byte		        85*seq_042_mvl/mxv
	.byte	W01
	.byte		        81*seq_042_mvl/mxv
	.byte	W02
	.byte		        73*seq_042_mvl/mxv
	.byte	W01
	.byte		        69*seq_042_mvl/mxv
	.byte	W02
	.byte		        63*seq_042_mvl/mxv
	.byte	W01
	.byte		        62*seq_042_mvl/mxv
	.byte	W01
	.byte		        60*seq_042_mvl/mxv
	.byte	W02
	.byte		        57*seq_042_mvl/mxv
	.byte	W01
	.byte		        55*seq_042_mvl/mxv
	.byte	W01
	.byte		        53*seq_042_mvl/mxv
	.byte	W02
	.byte		        50*seq_042_mvl/mxv
	.byte	W01
	.byte		        48*seq_042_mvl/mxv
	.byte	W02
	.byte		        44*seq_042_mvl/mxv
	.byte	W01
	.byte		        43*seq_042_mvl/mxv
	.byte	W01
	.byte		        41*seq_042_mvl/mxv
	.byte	W02
	.byte		        37*seq_042_mvl/mxv
	.byte	W01
	.byte		        35*seq_042_mvl/mxv
	.byte	W01
	.byte		        34*seq_042_mvl/mxv
	.byte	W02
	.byte		        30*seq_042_mvl/mxv
	.byte	W01
	.byte		        28*seq_042_mvl/mxv
	.byte	W02
	.byte		        25*seq_042_mvl/mxv
	.byte	W01
	.byte		        23*seq_042_mvl/mxv
	.byte	W01
	.byte		        21*seq_042_mvl/mxv
	.byte	W02
	.byte		        18*seq_042_mvl/mxv
	.byte	W01
	.byte		        16*seq_042_mvl/mxv
	.byte	W01
	.byte		        14*seq_042_mvl/mxv
	.byte	W02
	.byte		        12*seq_042_mvl/mxv
	.byte	W01
	.byte		        12*seq_042_mvl/mxv
	.byte	W02
	.byte		        11*seq_042_mvl/mxv
	.byte	W01
	.byte		        10*seq_042_mvl/mxv
	.byte	W01
	.byte		        10*seq_042_mvl/mxv
	.byte	W02
	.byte		        9*seq_042_mvl/mxv
	.byte	W01
	.byte		        8*seq_042_mvl/mxv
	.byte	W01
	.byte		        8*seq_042_mvl/mxv
	.byte	W02
	.byte		        7*seq_042_mvl/mxv
	.byte	W01
	.byte		        6*seq_042_mvl/mxv
	.byte	W02
	.byte		        5*seq_042_mvl/mxv
	.byte	W01
	.byte		        5*seq_042_mvl/mxv
	.byte	W01
	.byte		        4*seq_042_mvl/mxv
	.byte	W02
	.byte		        3*seq_042_mvl/mxv
	.byte	W01
	.byte		        3*seq_042_mvl/mxv
	.byte	W01
	.byte		        2*seq_042_mvl/mxv
	.byte	W02
	.byte		        1*seq_042_mvl/mxv
	.byte	W01
	.byte		        1*seq_042_mvl/mxv
	.byte	W23
	.byte		        125*seq_042_mvl/mxv
	.byte	W01
	.byte		N12   , An1 , v127
	.byte	W12
	.byte		        En2 , v120
	.byte	W12
	.byte		        An2 , v092
	.byte	W12
	.byte		        Cs3 , v120
	.byte	W24
	.byte		        An2 , v092
	.byte	W12
	.byte		        En3 
	.byte	W24
	.byte		N84   , An2 , v048
	.byte	W03
	.byte		VOL   , 119*seq_042_mvl/mxv
	.byte		N84   , Cs3 , v064
	.byte	W02
	.byte		VOL   , 116*seq_042_mvl/mxv
	.byte		N84   , En3 , v100
	.byte	W01
	.byte		VOL   , 113*seq_042_mvl/mxv
	.byte	W02
	.byte		        105*seq_042_mvl/mxv
	.byte	W01
	.byte		        101*seq_042_mvl/mxv
	.byte	W01
	.byte		        97*seq_042_mvl/mxv
	.byte	W02
	.byte		        89*seq_042_mvl/mxv
	.byte	W01
	.byte		        85*seq_042_mvl/mxv
	.byte	W01
	.byte		        81*seq_042_mvl/mxv
	.byte	W02
	.byte		        73*seq_042_mvl/mxv
	.byte	W01
	.byte		        69*seq_042_mvl/mxv
	.byte	W02
	.byte		        63*seq_042_mvl/mxv
	.byte	W01
	.byte		        62*seq_042_mvl/mxv
	.byte	W01
	.byte		        60*seq_042_mvl/mxv
	.byte	W02
	.byte		        57*seq_042_mvl/mxv
	.byte	W01
	.byte		        55*seq_042_mvl/mxv
	.byte	W01
	.byte		        53*seq_042_mvl/mxv
	.byte	W02
	.byte		        50*seq_042_mvl/mxv
	.byte	W01
	.byte		        48*seq_042_mvl/mxv
	.byte	W02
	.byte		        44*seq_042_mvl/mxv
	.byte	W01
	.byte		        43*seq_042_mvl/mxv
	.byte	W01
	.byte		        41*seq_042_mvl/mxv
	.byte	W02
	.byte		        37*seq_042_mvl/mxv
	.byte	W01
	.byte		        35*seq_042_mvl/mxv
	.byte	W01
	.byte		        34*seq_042_mvl/mxv
	.byte	W02
	.byte		        30*seq_042_mvl/mxv
	.byte	W01
	.byte		        28*seq_042_mvl/mxv
	.byte	W02
	.byte		        25*seq_042_mvl/mxv
	.byte	W01
	.byte		        23*seq_042_mvl/mxv
	.byte	W01
	.byte		        21*seq_042_mvl/mxv
	.byte	W02
	.byte		        18*seq_042_mvl/mxv
	.byte	W01
	.byte		        16*seq_042_mvl/mxv
	.byte	W01
	.byte		        14*seq_042_mvl/mxv
	.byte	W02
	.byte		        12*seq_042_mvl/mxv
	.byte	W01
	.byte		        12*seq_042_mvl/mxv
	.byte	W02
	.byte		        11*seq_042_mvl/mxv
	.byte	W01
	.byte		        10*seq_042_mvl/mxv
	.byte	W01
	.byte		        10*seq_042_mvl/mxv
	.byte	W02
	.byte		        9*seq_042_mvl/mxv
	.byte	W01
	.byte		        8*seq_042_mvl/mxv
	.byte	W01
	.byte		        8*seq_042_mvl/mxv
	.byte	W02
	.byte		        7*seq_042_mvl/mxv
	.byte	W01
	.byte		        6*seq_042_mvl/mxv
	.byte	W02
	.byte		        5*seq_042_mvl/mxv
	.byte	W01
	.byte		        5*seq_042_mvl/mxv
	.byte	W01
	.byte		        4*seq_042_mvl/mxv
	.byte	W02
	.byte		        3*seq_042_mvl/mxv
	.byte	W01
	.byte		        3*seq_042_mvl/mxv
	.byte	W01
	.byte		        2*seq_042_mvl/mxv
	.byte	W02
	.byte		        1*seq_042_mvl/mxv
	.byte	W01
	.byte		        1*seq_042_mvl/mxv
	.byte	W23
	.byte		        125*seq_042_mvl/mxv
	.byte	W01
	.byte		N12   , Gn2 , v092
	.byte	W12
	.byte		        Dn3 
	.byte	W12
	.byte		        An3 
	.byte	W12
	.byte		        Dn4 
	.byte	W60
	.byte	PEND
	.byte	PATT
	 .word	seq_042_6 + 0x274
	.byte		N12   , Fs2 , v092
	.byte	W12
	.byte		        Dn3 
	.byte	W12
	.byte		        An3 
	.byte	W12
	.byte		        Dn4 
	.byte	W60
	.byte	PEND
	.byte	PATT
	 .word	seq_042_6 + 0x284
	.byte	PATT
	 .word	seq_042_6 + 0x274
	.byte	PATT
	 .word	seq_042_6 + 0x274
	.byte	PATT
	 .word	seq_042_6 + 0x284
	.byte	PATT
	 .word	seq_042_6 + 0x284
	.byte	PATT
	 .word	seq_042_6 + 0xF
	.byte	PATT
	 .word	seq_042_6 + 0x1D
	.byte	PATT
	 .word	seq_042_6 + 0x2B
	.byte	PATT
	 .word	seq_042_6 + 0x39
	.byte	PATT
	 .word	seq_042_6 + 0x47
	.byte	PATT
	 .word	seq_042_6 + 0x54
	.byte	PATT
	 .word	seq_042_6 + 0x61
	.byte	PATT
	 .word	seq_042_6 + 0x75
	.byte	GOTO
	 .word	seq_042_6 + 0x8C
	.byte	FINE

@*********************** Track 08 ***********************@

seq_042_7:
	.byte	KEYSH , seq_042_key+0
	.byte	W13
	.byte		VOICE , 39
	.byte		BENDR , 2
	.byte	W01
	.byte		VOL   , 0*seq_042_mvl/mxv
	.byte		PAN   , c_v+0
	.byte	W56
	.byte	W01
	.byte		VOL   , 33*seq_042_mvl/mxv
	.byte	W01
	.byte		N96   , Dn2 , v100
	.byte	W02
	.byte		VOL   , 39*seq_042_mvl/mxv
	.byte	W02
	.byte		        39*seq_042_mvl/mxv
	.byte	W02
	.byte		        41*seq_042_mvl/mxv
	.byte	W02
	.byte		        45*seq_042_mvl/mxv
	.byte	W03
	.byte		        51*seq_042_mvl/mxv
	.byte	W02
	.byte		        58*seq_042_mvl/mxv
	.byte	W02
	.byte		        61*seq_042_mvl/mxv
	.byte	W02
	.byte		        67*seq_042_mvl/mxv
	.byte	W02
	.byte		        72*seq_042_mvl/mxv
	.byte	W02
	.byte		        77*seq_042_mvl/mxv
	.byte	W02
	.byte		        82*seq_042_mvl/mxv
	.byte	W02
	.byte		        87*seq_042_mvl/mxv
	.byte	W04
	.byte		        95*seq_042_mvl/mxv
	.byte	W02
	.byte		        101*seq_042_mvl/mxv
	.byte	W02
	.byte		        106*seq_042_mvl/mxv
	.byte	W02
	.byte		        115*seq_042_mvl/mxv
	.byte	W02
	.byte		        125*seq_042_mvl/mxv
	.byte	W56
	.byte	W03
	.byte	PEND
	.byte		N96   , Cs2 , v100
	.byte	W21
	.byte		VOL   , 118*seq_042_mvl/mxv
	.byte	W02
	.byte		        117*seq_042_mvl/mxv
	.byte	W02
	.byte		        115*seq_042_mvl/mxv
	.byte	W02
	.byte		        114*seq_042_mvl/mxv
	.byte	W02
	.byte		        111*seq_042_mvl/mxv
	.byte	W02
	.byte		        109*seq_042_mvl/mxv
	.byte	W02
	.byte		        106*seq_042_mvl/mxv
	.byte	W02
	.byte		        103*seq_042_mvl/mxv
	.byte	W01
	.byte		        101*seq_042_mvl/mxv
	.byte	W02
	.byte		        99*seq_042_mvl/mxv
	.byte	W02
	.byte		        96*seq_042_mvl/mxv
	.byte	W02
	.byte		        94*seq_042_mvl/mxv
	.byte	W02
	.byte		        91*seq_042_mvl/mxv
	.byte	W02
	.byte		        88*seq_042_mvl/mxv
	.byte	W02
	.byte		        85*seq_042_mvl/mxv
	.byte	W02
	.byte		        81*seq_042_mvl/mxv
	.byte	W01
	.byte		        79*seq_042_mvl/mxv
	.byte	W02
	.byte		        76*seq_042_mvl/mxv
	.byte	W02
	.byte		        71*seq_042_mvl/mxv
	.byte	W02
	.byte		        67*seq_042_mvl/mxv
	.byte	W02
	.byte		        60*seq_042_mvl/mxv
	.byte	W02
	.byte		        57*seq_042_mvl/mxv
	.byte	W02
	.byte		        51*seq_042_mvl/mxv
	.byte	W02
	.byte		        44*seq_042_mvl/mxv
	.byte	W30
	.byte		        33*seq_042_mvl/mxv
	.byte	W01
	.byte	PEND
	.byte		N96   , Bn1 , v100
	.byte	W02
	.byte		VOL   , 39*seq_042_mvl/mxv
	.byte	W02
	.byte		        39*seq_042_mvl/mxv
	.byte	W02
	.byte		        41*seq_042_mvl/mxv
	.byte	W02
	.byte		        45*seq_042_mvl/mxv
	.byte	W03
	.byte		        51*seq_042_mvl/mxv
	.byte	W02
	.byte		        58*seq_042_mvl/mxv
	.byte	W02
	.byte		        61*seq_042_mvl/mxv
	.byte	W02
	.byte		        67*seq_042_mvl/mxv
	.byte	W02
	.byte		        72*seq_042_mvl/mxv
	.byte	W02
	.byte		        77*seq_042_mvl/mxv
	.byte	W02
	.byte		        82*seq_042_mvl/mxv
	.byte	W02
	.byte		        87*seq_042_mvl/mxv
	.byte	W04
	.byte		        95*seq_042_mvl/mxv
	.byte	W02
	.byte		        101*seq_042_mvl/mxv
	.byte	W02
	.byte		        106*seq_042_mvl/mxv
	.byte	W02
	.byte		        115*seq_042_mvl/mxv
	.byte	W02
	.byte		        125*seq_042_mvl/mxv
	.byte	W56
	.byte	W03
	.byte	PEND
	.byte		N96   , An1 , v100
	.byte	W21
	.byte		VOL   , 118*seq_042_mvl/mxv
	.byte	W02
	.byte		        117*seq_042_mvl/mxv
	.byte	W02
	.byte		        115*seq_042_mvl/mxv
	.byte	W02
	.byte		        114*seq_042_mvl/mxv
	.byte	W02
	.byte		        111*seq_042_mvl/mxv
	.byte	W02
	.byte		        109*seq_042_mvl/mxv
	.byte	W02
	.byte		        106*seq_042_mvl/mxv
	.byte	W02
	.byte		        103*seq_042_mvl/mxv
	.byte	W01
	.byte		        101*seq_042_mvl/mxv
	.byte	W02
	.byte		        99*seq_042_mvl/mxv
	.byte	W02
	.byte		        96*seq_042_mvl/mxv
	.byte	W02
	.byte		        94*seq_042_mvl/mxv
	.byte	W02
	.byte		        91*seq_042_mvl/mxv
	.byte	W02
	.byte		        88*seq_042_mvl/mxv
	.byte	W02
	.byte		        85*seq_042_mvl/mxv
	.byte	W02
	.byte		        81*seq_042_mvl/mxv
	.byte	W01
	.byte		        79*seq_042_mvl/mxv
	.byte	W02
	.byte		        76*seq_042_mvl/mxv
	.byte	W02
	.byte		        71*seq_042_mvl/mxv
	.byte	W02
	.byte		        67*seq_042_mvl/mxv
	.byte	W02
	.byte		        60*seq_042_mvl/mxv
	.byte	W02
	.byte		        57*seq_042_mvl/mxv
	.byte	W02
	.byte		        51*seq_042_mvl/mxv
	.byte	W02
	.byte		        44*seq_042_mvl/mxv
	.byte	W30
	.byte		        33*seq_042_mvl/mxv
	.byte	W01
	.byte	PEND
	.byte		N96   , Gn2 , v100
	.byte	W02
	.byte		VOL   , 39*seq_042_mvl/mxv
	.byte	W02
	.byte		        39*seq_042_mvl/mxv
	.byte	W02
	.byte		        41*seq_042_mvl/mxv
	.byte	W02
	.byte		        45*seq_042_mvl/mxv
	.byte	W03
	.byte		        51*seq_042_mvl/mxv
	.byte	W02
	.byte		        58*seq_042_mvl/mxv
	.byte	W02
	.byte		        61*seq_042_mvl/mxv
	.byte	W02
	.byte		        67*seq_042_mvl/mxv
	.byte	W02
	.byte		        72*seq_042_mvl/mxv
	.byte	W02
	.byte		        77*seq_042_mvl/mxv
	.byte	W02
	.byte		        82*seq_042_mvl/mxv
	.byte	W02
	.byte		        87*seq_042_mvl/mxv
	.byte	W04
	.byte		        95*seq_042_mvl/mxv
	.byte	W02
	.byte		        101*seq_042_mvl/mxv
	.byte	W02
	.byte		        106*seq_042_mvl/mxv
	.byte	W02
	.byte		        115*seq_042_mvl/mxv
	.byte	W02
	.byte		        125*seq_042_mvl/mxv
	.byte	W56
	.byte	W03
	.byte	PEND
	.byte		N96   , Fs2 , v100
	.byte	W21
	.byte		VOL   , 118*seq_042_mvl/mxv
	.byte	W02
	.byte		        117*seq_042_mvl/mxv
	.byte	W02
	.byte		        115*seq_042_mvl/mxv
	.byte	W02
	.byte		        114*seq_042_mvl/mxv
	.byte	W02
	.byte		        111*seq_042_mvl/mxv
	.byte	W02
	.byte		        109*seq_042_mvl/mxv
	.byte	W02
	.byte		        106*seq_042_mvl/mxv
	.byte	W02
	.byte		        103*seq_042_mvl/mxv
	.byte	W01
	.byte		        101*seq_042_mvl/mxv
	.byte	W02
	.byte		        99*seq_042_mvl/mxv
	.byte	W02
	.byte		        96*seq_042_mvl/mxv
	.byte	W02
	.byte		        94*seq_042_mvl/mxv
	.byte	W02
	.byte		        91*seq_042_mvl/mxv
	.byte	W02
	.byte		        88*seq_042_mvl/mxv
	.byte	W02
	.byte		        85*seq_042_mvl/mxv
	.byte	W02
	.byte		        81*seq_042_mvl/mxv
	.byte	W01
	.byte		        79*seq_042_mvl/mxv
	.byte	W02
	.byte		        76*seq_042_mvl/mxv
	.byte	W02
	.byte		        71*seq_042_mvl/mxv
	.byte	W02
	.byte		        67*seq_042_mvl/mxv
	.byte	W02
	.byte		        60*seq_042_mvl/mxv
	.byte	W02
	.byte		        57*seq_042_mvl/mxv
	.byte	W02
	.byte		        51*seq_042_mvl/mxv
	.byte	W02
	.byte		        44*seq_042_mvl/mxv
	.byte	W30
	.byte		        33*seq_042_mvl/mxv
	.byte	W01
	.byte	PEND
	.byte		N48   , Gn2 , v100
	.byte	W02
	.byte		VOL   , 39*seq_042_mvl/mxv
	.byte	W02
	.byte		        39*seq_042_mvl/mxv
	.byte	W02
	.byte		        41*seq_042_mvl/mxv
	.byte	W02
	.byte		        45*seq_042_mvl/mxv
	.byte	W03
	.byte		        51*seq_042_mvl/mxv
	.byte	W02
	.byte		        58*seq_042_mvl/mxv
	.byte	W02
	.byte		        61*seq_042_mvl/mxv
	.byte	W02
	.byte		        67*seq_042_mvl/mxv
	.byte	W02
	.byte		        72*seq_042_mvl/mxv
	.byte	W02
	.byte		        77*seq_042_mvl/mxv
	.byte	W02
	.byte		        82*seq_042_mvl/mxv
	.byte	W02
	.byte		        87*seq_042_mvl/mxv
	.byte	W04
	.byte		        95*seq_042_mvl/mxv
	.byte	W02
	.byte		        101*seq_042_mvl/mxv
	.byte	W02
	.byte		        106*seq_042_mvl/mxv
	.byte	W02
	.byte		        115*seq_042_mvl/mxv
	.byte	W02
	.byte		        125*seq_042_mvl/mxv
	.byte	W11
	.byte		N48   , Gs2 
	.byte	W48
	.byte	PEND
	.byte		N96   , An2 
	.byte	W21
	.byte		VOL   , 118*seq_042_mvl/mxv
	.byte	W02
	.byte		        117*seq_042_mvl/mxv
	.byte	W02
	.byte		        115*seq_042_mvl/mxv
	.byte	W02
	.byte		        114*seq_042_mvl/mxv
	.byte	W02
	.byte		        111*seq_042_mvl/mxv
	.byte	W02
	.byte		        109*seq_042_mvl/mxv
	.byte	W02
	.byte		        106*seq_042_mvl/mxv
	.byte	W02
	.byte		        103*seq_042_mvl/mxv
	.byte	W01
	.byte		        101*seq_042_mvl/mxv
	.byte	W02
	.byte		        99*seq_042_mvl/mxv
	.byte	W02
	.byte		        96*seq_042_mvl/mxv
	.byte	W02
	.byte		        94*seq_042_mvl/mxv
	.byte	W02
	.byte		        91*seq_042_mvl/mxv
	.byte	W02
	.byte		        88*seq_042_mvl/mxv
	.byte	W02
	.byte		        85*seq_042_mvl/mxv
	.byte	W02
	.byte		        81*seq_042_mvl/mxv
	.byte	W01
	.byte		        79*seq_042_mvl/mxv
	.byte	W02
	.byte		        76*seq_042_mvl/mxv
	.byte	W02
	.byte		        71*seq_042_mvl/mxv
	.byte	W02
	.byte		        67*seq_042_mvl/mxv
	.byte	W02
	.byte		        60*seq_042_mvl/mxv
	.byte	W02
	.byte		        57*seq_042_mvl/mxv
	.byte	W02
	.byte		        51*seq_042_mvl/mxv
	.byte	W02
	.byte		        44*seq_042_mvl/mxv
	.byte	W30
	.byte		        33*seq_042_mvl/mxv
	.byte	W01
	.byte	PATT
	 .word	seq_042_7 + 0x11
	.byte	PATT
	 .word	seq_042_7 + 0x3A
	.byte	PATT
	 .word	seq_042_7 + 0x72
	.byte	PATT
	 .word	seq_042_7 + 0x9B
	.byte	PATT
	 .word	seq_042_7 + 0xD3
	.byte	PATT
	 .word	seq_042_7 + 0xFC
	.byte		N48   , Gn2 , v100
	.byte	W02
	.byte		VOL   , 39*seq_042_mvl/mxv
	.byte	W02
	.byte		        39*seq_042_mvl/mxv
	.byte	W02
	.byte		        41*seq_042_mvl/mxv
	.byte	W02
	.byte		        45*seq_042_mvl/mxv
	.byte	W03
	.byte		        51*seq_042_mvl/mxv
	.byte	W02
	.byte		        58*seq_042_mvl/mxv
	.byte	W02
	.byte		        61*seq_042_mvl/mxv
	.byte	W02
	.byte		        67*seq_042_mvl/mxv
	.byte	W02
	.byte		        72*seq_042_mvl/mxv
	.byte	W02
	.byte		        77*seq_042_mvl/mxv
	.byte	W02
	.byte		        82*seq_042_mvl/mxv
	.byte	W02
	.byte		        87*seq_042_mvl/mxv
	.byte	W04
	.byte		        95*seq_042_mvl/mxv
	.byte	W02
	.byte		        101*seq_042_mvl/mxv
	.byte	W02
	.byte		        106*seq_042_mvl/mxv
	.byte	W02
	.byte		        115*seq_042_mvl/mxv
	.byte	W02
	.byte		        125*seq_042_mvl/mxv
	.byte	W11
	.byte		N48   , An2 
	.byte	W48
	.byte		        Bn2 
	.byte	W21
	.byte		VOL   , 118*seq_042_mvl/mxv
	.byte	W02
	.byte		        117*seq_042_mvl/mxv
	.byte	W02
	.byte		        115*seq_042_mvl/mxv
	.byte	W02
	.byte		        114*seq_042_mvl/mxv
	.byte	W02
	.byte		        111*seq_042_mvl/mxv
	.byte	W02
	.byte		        109*seq_042_mvl/mxv
	.byte	W02
	.byte		        105*seq_042_mvl/mxv
	.byte	W02
	.byte		        102*seq_042_mvl/mxv
	.byte	W01
	.byte		        98*seq_042_mvl/mxv
	.byte	W02
	.byte		        94*seq_042_mvl/mxv
	.byte	W02
	.byte		        87*seq_042_mvl/mxv
	.byte	W02
	.byte		        81*seq_042_mvl/mxv
	.byte	W02
	.byte		        73*seq_042_mvl/mxv
	.byte	W48
	.byte	W03
	.byte		        33*seq_042_mvl/mxv
	.byte	W01
	.byte		N96   , Gn2 , v112
	.byte	W02
	.byte		VOL   , 39*seq_042_mvl/mxv
	.byte	W02
	.byte		        39*seq_042_mvl/mxv
	.byte	W02
	.byte		        41*seq_042_mvl/mxv
	.byte	W02
	.byte		        45*seq_042_mvl/mxv
	.byte	W03
	.byte		        51*seq_042_mvl/mxv
	.byte	W02
	.byte		        58*seq_042_mvl/mxv
	.byte	W02
	.byte		        61*seq_042_mvl/mxv
	.byte	W02
	.byte		        67*seq_042_mvl/mxv
	.byte	W02
	.byte		        72*seq_042_mvl/mxv
	.byte	W02
	.byte		        77*seq_042_mvl/mxv
	.byte	W02
	.byte		        82*seq_042_mvl/mxv
	.byte	W02
	.byte		        87*seq_042_mvl/mxv
	.byte	W04
	.byte		        95*seq_042_mvl/mxv
	.byte	W02
	.byte		        101*seq_042_mvl/mxv
	.byte	W02
	.byte		        102*seq_042_mvl/mxv
	.byte	W02
	.byte		        105*seq_042_mvl/mxv
	.byte	W02
	.byte		        118*seq_042_mvl/mxv
	.byte	W56
	.byte	W03
	.byte		N96   , An2 
	.byte	W96
	.byte		        Bn2 
	.byte	W96
	.byte		        An2 
	.byte	W96
	.byte		        Gn2 
	.byte	W96
	.byte		        An2 
	.byte	W96
	.byte		        Bn2 
	.byte	W96
	.byte		        An2 
	.byte	W96
	.byte		        Gn2 
	.byte	W96
	.byte		        An2 
	.byte	W96
	.byte		        Dn2 
	.byte	W96
	.byte		        En2 
	.byte	W92
	.byte	W03
	.byte		VOL   , 33*seq_042_mvl/mxv
	.byte	W01
	.byte		N96   , Gn2 
	.byte	W02
	.byte		VOL   , 39*seq_042_mvl/mxv
	.byte	W02
	.byte		        39*seq_042_mvl/mxv
	.byte	W02
	.byte		        41*seq_042_mvl/mxv
	.byte	W02
	.byte		        45*seq_042_mvl/mxv
	.byte	W03
	.byte		        51*seq_042_mvl/mxv
	.byte	W02
	.byte		        58*seq_042_mvl/mxv
	.byte	W02
	.byte		        61*seq_042_mvl/mxv
	.byte	W02
	.byte		        67*seq_042_mvl/mxv
	.byte	W02
	.byte		        72*seq_042_mvl/mxv
	.byte	W02
	.byte		        77*seq_042_mvl/mxv
	.byte	W02
	.byte		        82*seq_042_mvl/mxv
	.byte	W02
	.byte		        87*seq_042_mvl/mxv
	.byte	W04
	.byte		        95*seq_042_mvl/mxv
	.byte	W02
	.byte		        101*seq_042_mvl/mxv
	.byte	W02
	.byte		        106*seq_042_mvl/mxv
	.byte	W02
	.byte		        115*seq_042_mvl/mxv
	.byte	W02
	.byte		        125*seq_042_mvl/mxv
	.byte	W08
	.byte		        118*seq_042_mvl/mxv
	.byte	W02
	.byte		        117*seq_042_mvl/mxv
	.byte	W02
	.byte		        115*seq_042_mvl/mxv
	.byte	W02
	.byte		        114*seq_042_mvl/mxv
	.byte	W02
	.byte		        111*seq_042_mvl/mxv
	.byte	W02
	.byte		        109*seq_042_mvl/mxv
	.byte	W02
	.byte		        106*seq_042_mvl/mxv
	.byte	W02
	.byte		        103*seq_042_mvl/mxv
	.byte	W01
	.byte		        101*seq_042_mvl/mxv
	.byte	W02
	.byte		        99*seq_042_mvl/mxv
	.byte	W02
	.byte		        96*seq_042_mvl/mxv
	.byte	W02
	.byte		        94*seq_042_mvl/mxv
	.byte	W02
	.byte		        91*seq_042_mvl/mxv
	.byte	W02
	.byte		        88*seq_042_mvl/mxv
	.byte	W02
	.byte		        85*seq_042_mvl/mxv
	.byte	W02
	.byte		        81*seq_042_mvl/mxv
	.byte	W01
	.byte		        79*seq_042_mvl/mxv
	.byte	W02
	.byte		        76*seq_042_mvl/mxv
	.byte	W02
	.byte		        71*seq_042_mvl/mxv
	.byte	W02
	.byte		        67*seq_042_mvl/mxv
	.byte	W02
	.byte		        60*seq_042_mvl/mxv
	.byte	W02
	.byte		        57*seq_042_mvl/mxv
	.byte	W02
	.byte		        51*seq_042_mvl/mxv
	.byte	W02
	.byte		        44*seq_042_mvl/mxv
	.byte	W07
	.byte	W92
	.byte	W03
	.byte		VOL   , 33*seq_042_mvl/mxv
	.byte	W01
	.byte	PEND
	.byte		N96   , An2 , v112
	.byte	W02
	.byte		VOL   , 39*seq_042_mvl/mxv
	.byte	W02
	.byte		        39*seq_042_mvl/mxv
	.byte	W02
	.byte		        41*seq_042_mvl/mxv
	.byte	W02
	.byte		        45*seq_042_mvl/mxv
	.byte	W03
	.byte		        51*seq_042_mvl/mxv
	.byte	W02
	.byte		        58*seq_042_mvl/mxv
	.byte	W02
	.byte		        61*seq_042_mvl/mxv
	.byte	W02
	.byte		        67*seq_042_mvl/mxv
	.byte	W02
	.byte		        72*seq_042_mvl/mxv
	.byte	W02
	.byte		        77*seq_042_mvl/mxv
	.byte	W02
	.byte		        82*seq_042_mvl/mxv
	.byte	W02
	.byte		        87*seq_042_mvl/mxv
	.byte	W04
	.byte		        95*seq_042_mvl/mxv
	.byte	W02
	.byte		        101*seq_042_mvl/mxv
	.byte	W02
	.byte		        106*seq_042_mvl/mxv
	.byte	W02
	.byte		        115*seq_042_mvl/mxv
	.byte	W02
	.byte		        125*seq_042_mvl/mxv
	.byte	W08
	.byte		        118*seq_042_mvl/mxv
	.byte	W02
	.byte		        117*seq_042_mvl/mxv
	.byte	W02
	.byte		        115*seq_042_mvl/mxv
	.byte	W02
	.byte		        114*seq_042_mvl/mxv
	.byte	W02
	.byte		        111*seq_042_mvl/mxv
	.byte	W02
	.byte		        109*seq_042_mvl/mxv
	.byte	W02
	.byte		        106*seq_042_mvl/mxv
	.byte	W02
	.byte		        103*seq_042_mvl/mxv
	.byte	W01
	.byte		        101*seq_042_mvl/mxv
	.byte	W02
	.byte		        99*seq_042_mvl/mxv
	.byte	W02
	.byte		        96*seq_042_mvl/mxv
	.byte	W02
	.byte		        94*seq_042_mvl/mxv
	.byte	W02
	.byte		        91*seq_042_mvl/mxv
	.byte	W02
	.byte		        88*seq_042_mvl/mxv
	.byte	W02
	.byte		        85*seq_042_mvl/mxv
	.byte	W02
	.byte		        81*seq_042_mvl/mxv
	.byte	W01
	.byte		        79*seq_042_mvl/mxv
	.byte	W02
	.byte		        76*seq_042_mvl/mxv
	.byte	W02
	.byte		        71*seq_042_mvl/mxv
	.byte	W02
	.byte		        67*seq_042_mvl/mxv
	.byte	W02
	.byte		        60*seq_042_mvl/mxv
	.byte	W02
	.byte		        57*seq_042_mvl/mxv
	.byte	W02
	.byte		        51*seq_042_mvl/mxv
	.byte	W02
	.byte		        44*seq_042_mvl/mxv
	.byte	W07
	.byte	PATT
	 .word	seq_042_7 + 0x296
	.byte		TIE   , Gn2 , v100
	.byte	W02
	.byte		VOL   , 39*seq_042_mvl/mxv
	.byte	W02
	.byte		        39*seq_042_mvl/mxv
	.byte	W02
	.byte		        41*seq_042_mvl/mxv
	.byte	W02
	.byte		        45*seq_042_mvl/mxv
	.byte	W03
	.byte		        51*seq_042_mvl/mxv
	.byte	W02
	.byte		        58*seq_042_mvl/mxv
	.byte	W02
	.byte		        61*seq_042_mvl/mxv
	.byte	W02
	.byte		        67*seq_042_mvl/mxv
	.byte	W02
	.byte		        72*seq_042_mvl/mxv
	.byte	W02
	.byte		        77*seq_042_mvl/mxv
	.byte	W02
	.byte		        82*seq_042_mvl/mxv
	.byte	W02
	.byte		        87*seq_042_mvl/mxv
	.byte	W04
	.byte		        95*seq_042_mvl/mxv
	.byte	W02
	.byte		        101*seq_042_mvl/mxv
	.byte	W02
	.byte		        106*seq_042_mvl/mxv
	.byte	W02
	.byte		        115*seq_042_mvl/mxv
	.byte	W02
	.byte		        125*seq_042_mvl/mxv
	.byte	W56
	.byte	W03
	.byte	PEND
	.byte	W21
	.byte		VOL   , 118*seq_042_mvl/mxv
	.byte	W02
	.byte		        117*seq_042_mvl/mxv
	.byte	W02
	.byte		        115*seq_042_mvl/mxv
	.byte	W02
	.byte		        114*seq_042_mvl/mxv
	.byte	W02
	.byte		        111*seq_042_mvl/mxv
	.byte	W02
	.byte		        109*seq_042_mvl/mxv
	.byte	W02
	.byte		        106*seq_042_mvl/mxv
	.byte	W02
	.byte		        103*seq_042_mvl/mxv
	.byte	W01
	.byte		        101*seq_042_mvl/mxv
	.byte	W02
	.byte		        99*seq_042_mvl/mxv
	.byte	W02
	.byte		        96*seq_042_mvl/mxv
	.byte	W02
	.byte		        94*seq_042_mvl/mxv
	.byte	W02
	.byte		        91*seq_042_mvl/mxv
	.byte	W02
	.byte		        88*seq_042_mvl/mxv
	.byte	W02
	.byte		        85*seq_042_mvl/mxv
	.byte	W02
	.byte		        81*seq_042_mvl/mxv
	.byte	W01
	.byte		        79*seq_042_mvl/mxv
	.byte	W02
	.byte		        76*seq_042_mvl/mxv
	.byte	W02
	.byte		        71*seq_042_mvl/mxv
	.byte	W02
	.byte		        67*seq_042_mvl/mxv
	.byte	W02
	.byte		        60*seq_042_mvl/mxv
	.byte	W02
	.byte		        57*seq_042_mvl/mxv
	.byte	W02
	.byte		        51*seq_042_mvl/mxv
	.byte	W02
	.byte		        44*seq_042_mvl/mxv
	.byte	W30
	.byte		        33*seq_042_mvl/mxv
	.byte	W01
	.byte	PEND
	.byte		EOT   , Gn2 
	.byte		TIE   , Fs2 , v100
	.byte	W02
	.byte		VOL   , 39*seq_042_mvl/mxv
	.byte	W02
	.byte		        39*seq_042_mvl/mxv
	.byte	W02
	.byte		        41*seq_042_mvl/mxv
	.byte	W02
	.byte		        45*seq_042_mvl/mxv
	.byte	W03
	.byte		        51*seq_042_mvl/mxv
	.byte	W02
	.byte		        58*seq_042_mvl/mxv
	.byte	W02
	.byte		        61*seq_042_mvl/mxv
	.byte	W02
	.byte		        67*seq_042_mvl/mxv
	.byte	W02
	.byte		        72*seq_042_mvl/mxv
	.byte	W02
	.byte		        77*seq_042_mvl/mxv
	.byte	W02
	.byte		        82*seq_042_mvl/mxv
	.byte	W02
	.byte		        87*seq_042_mvl/mxv
	.byte	W04
	.byte		        95*seq_042_mvl/mxv
	.byte	W02
	.byte		        101*seq_042_mvl/mxv
	.byte	W02
	.byte		        106*seq_042_mvl/mxv
	.byte	W02
	.byte		        115*seq_042_mvl/mxv
	.byte	W02
	.byte		        125*seq_042_mvl/mxv
	.byte	W56
	.byte	W03
	.byte	PEND
	.byte	PATT
	 .word	seq_042_7 + 0x321
	.byte		EOT   , Fs2 
	.byte	PATT
	 .word	seq_042_7 + 0x2F8
	.byte	PATT
	 .word	seq_042_7 + 0x321
	.byte		EOT   , Gn2 
	.byte	PATT
	 .word	seq_042_7 + 0x358
	.byte	PATT
	 .word	seq_042_7 + 0x321
	.byte		EOT   , Fs2 
	.byte	PATT
	 .word	seq_042_7 + 0x11
	.byte	PATT
	 .word	seq_042_7 + 0x3A
	.byte	PATT
	 .word	seq_042_7 + 0x72
	.byte	PATT
	 .word	seq_042_7 + 0x9B
	.byte	PATT
	 .word	seq_042_7 + 0xD3
	.byte	PATT
	 .word	seq_042_7 + 0xFC
	.byte	PATT
	 .word	seq_042_7 + 0x134
	.byte		N96   , An2 , v100
	.byte	W21
	.byte		VOL   , 118*seq_042_mvl/mxv
	.byte	W02
	.byte		        117*seq_042_mvl/mxv
	.byte	W02
	.byte		        115*seq_042_mvl/mxv
	.byte	W02
	.byte		        114*seq_042_mvl/mxv
	.byte	W02
	.byte		        111*seq_042_mvl/mxv
	.byte	W02
	.byte		        109*seq_042_mvl/mxv
	.byte	W02
	.byte		        106*seq_042_mvl/mxv
	.byte	W02
	.byte		        103*seq_042_mvl/mxv
	.byte	W01
	.byte		        101*seq_042_mvl/mxv
	.byte	W02
	.byte		        99*seq_042_mvl/mxv
	.byte	W02
	.byte		        96*seq_042_mvl/mxv
	.byte	W02
	.byte		        94*seq_042_mvl/mxv
	.byte	W02
	.byte		        91*seq_042_mvl/mxv
	.byte	W02
	.byte		        88*seq_042_mvl/mxv
	.byte	W02
	.byte		        85*seq_042_mvl/mxv
	.byte	W02
	.byte		        81*seq_042_mvl/mxv
	.byte	W01
	.byte		        79*seq_042_mvl/mxv
	.byte	W02
	.byte		        76*seq_042_mvl/mxv
	.byte	W02
	.byte		        71*seq_042_mvl/mxv
	.byte	W02
	.byte		        67*seq_042_mvl/mxv
	.byte	W02
	.byte		        60*seq_042_mvl/mxv
	.byte	W02
	.byte		        57*seq_042_mvl/mxv
	.byte	W02
	.byte		        51*seq_042_mvl/mxv
	.byte	W02
	.byte		        44*seq_042_mvl/mxv
	.byte	W30
	.byte	W01
	.byte	GOTO
	 .word	seq_042_7 + 0x195
	.byte	FINE

@*********************** Track 09 ***********************@

seq_042_8:
	.byte	KEYSH , seq_042_key+0
	.byte	W15
	.byte		VOICE , 24
	.byte		VOL   , 98*seq_042_mvl/mxv
	.byte		PAN   , c_v+0
	.byte	W01
	.byte		MODT  , mod_pan
	.byte	W56
	.byte	W96
	.byte	W96
	.byte	W96
	.byte	W96
	.byte	W96
	.byte	W96
	.byte	W96
	.byte	W96
	.byte	W96
	.byte	W96
	.byte	W96
	.byte	W96
	.byte	W96
	.byte	W96
	.byte	W96
	.byte	W92
	.byte	W03
	.byte		VOL   , 0*seq_042_mvl/mxv
	.byte	W01
	.byte		TIE   , An4 , v052
	.byte	W02
	.byte		VOL   , 4*seq_042_mvl/mxv
	.byte	W02
	.byte		        10*seq_042_mvl/mxv
	.byte	W02
	.byte		        15*seq_042_mvl/mxv
	.byte	W02
	.byte		        21*seq_042_mvl/mxv
	.byte	W03
	.byte		        29*seq_042_mvl/mxv
	.byte	W02
	.byte		        34*seq_042_mvl/mxv
	.byte	W02
	.byte		        40*seq_042_mvl/mxv
	.byte	W02
	.byte		        45*seq_042_mvl/mxv
	.byte	W02
	.byte		        51*seq_042_mvl/mxv
	.byte	W02
	.byte		        56*seq_042_mvl/mxv
	.byte	W02
	.byte		        62*seq_042_mvl/mxv
	.byte	W02
	.byte		        66*seq_042_mvl/mxv
	.byte	W04
	.byte		        77*seq_042_mvl/mxv
	.byte	W02
	.byte		        83*seq_042_mvl/mxv
	.byte	W02
	.byte		        88*seq_042_mvl/mxv
	.byte	W02
	.byte		        94*seq_042_mvl/mxv
	.byte	W02
	.byte		        99*seq_042_mvl/mxv
	.byte	W56
	.byte	W03
	.byte	W96
	.byte	W96
	.byte	W96
	.byte	W96
	.byte	W96
	.byte	W96
	.byte	W96
	.byte		EOT
	.byte		TIE
	.byte	W96
	.byte	W96
	.byte	W96
	.byte		EOT
	.byte		N96   , Gs4 
	.byte	W96
	.byte		        Fs4 
	.byte	W96
	.byte	W96
	.byte		        En4 
	.byte	W96
	.byte	W96
	.byte	W96
	.byte	W96
	.byte	W96
	.byte	W96
	.byte	W96
	.byte	W96
	.byte	W96
	.byte	W96
	.byte	W96
	.byte	W96
	.byte	W96
	.byte	W96
	.byte	W96
	.byte	W96
	.byte	W96
	.byte	W96
	.byte	GOTO
	 .word	seq_042_8 + 0x15
	.byte	FINE

@******************************************************@

	.align	2

seq_042:
	.byte	9	@ NumTrks
	.byte	0	@ NumBlks
	.byte	seq_042_pri	@ Priority
	.byte	seq_042_rev	@ Reverb

	.word	seq_042_grp

	.word	seq_042_0
	.word	seq_042_1
	.word	seq_042_2
	.word	seq_042_3
	.word	seq_042_4
	.word	seq_042_5
	.word	seq_042_6
	.word	seq_042_7
	.word	seq_042_8

	.end
