@ File generated by m4a2s Song-Module
	.include "MPlayDef.s"

	.equ	seq_043_grp, bank_000
	.equ	seq_043_pri, 50
	.equ	seq_043_rev, 213
	.equ	seq_043_mvl, 127
	.equ	seq_043_key, 0

	.section .rodata
	.global	seq_043
	.align	2

@*********************** Track 01 ***********************@

seq_043_0:
	.byte	KEYSH , seq_043_key+0
	.byte	TEMPO , 130/2
	.byte		VOICE , 76
	.byte		VOL   , 54*seq_043_mvl/mxv
	.byte		PAN   , c_v+0
	.byte	W01
	.byte		BENDR , 12
	.byte		MODT  , mod_tre
	.byte	W32
	.byte	W03
	.byte	W96
	.byte	W96
	.byte	W96
	.byte	W96
	.byte	W96
	.byte	W96
	.byte	W96
	.byte		MOD   , 75
	.byte		LFOS  , 27
	.byte	W96
	.byte	W48
	.byte		N07   , Dn5 , v112
	.byte	W16
	.byte		N06   , Dn5 , v072
	.byte	W08
	.byte		N03   , Dn5 , v116
	.byte	W08
	.byte		        Cn5 , v072
	.byte	W08
	.byte		        Dn5 , v116
	.byte	W08
	.byte		N21   , Gn5 , v080
	.byte	W48
	.byte		N07   , Dn5 , v112
	.byte	W16
	.byte		N06   , Dn5 , v072
	.byte	W08
	.byte		N05   , Dn5 , v100
	.byte	W08
	.byte		        Cn5 , v072
	.byte	W08
	.byte		        Dn5 , v080
	.byte	W07
	.byte		PAN   , c_v-20
	.byte	W01
	.byte		N05   , Fn5 , v116
	.byte	W08
	.byte		        Fn5 , v068
	.byte	W16
	.byte		        Ds5 , v116
	.byte	W08
	.byte		        Ds5 , v068
	.byte	W16
	.byte		        Dn5 , v116
	.byte	W08
	.byte		        Dn5 , v068
	.byte	W16
	.byte		        Cn5 , v116
	.byte	W08
	.byte		        Cn5 , v068
	.byte	W16
	.byte		        Ds5 , v116
	.byte	W08
	.byte		        Ds5 , v068
	.byte	W16
	.byte		        Dn5 , v116
	.byte	W08
	.byte		        Dn5 , v068
	.byte	W16
	.byte		        Cn5 , v116
	.byte	W08
	.byte		        Cn5 , v068
	.byte	W16
	.byte		        As4 , v116
	.byte	W08
	.byte		        As4 , v068
	.byte	W15
	.byte		PAN   , c_v+0
	.byte	W01
	.byte		N72   , Cn5 , v100
	.byte	W05
	.byte		VOL   , 32*seq_043_mvl/mxv
	.byte	W02
	.byte		        33*seq_043_mvl/mxv
	.byte	W02
	.byte		        34*seq_043_mvl/mxv
	.byte	W01
	.byte		        35*seq_043_mvl/mxv
	.byte	W02
	.byte		        36*seq_043_mvl/mxv
	.byte	W01
	.byte		        37*seq_043_mvl/mxv
	.byte	W02
	.byte		        38*seq_043_mvl/mxv
	.byte	W01
	.byte		        39*seq_043_mvl/mxv
	.byte	W02
	.byte		        40*seq_043_mvl/mxv
	.byte	W02
	.byte		        42*seq_043_mvl/mxv
	.byte	W01
	.byte		        43*seq_043_mvl/mxv
	.byte	W02
	.byte		        44*seq_043_mvl/mxv
	.byte	W01
	.byte		        45*seq_043_mvl/mxv
	.byte	W02
	.byte		        47*seq_043_mvl/mxv
	.byte	W01
	.byte		        47*seq_043_mvl/mxv
	.byte	W02
	.byte		        50*seq_043_mvl/mxv
	.byte	W01
	.byte		        51*seq_043_mvl/mxv
	.byte	W02
	.byte		        53*seq_043_mvl/mxv
	.byte	W02
	.byte		        55*seq_043_mvl/mxv
	.byte	W01
	.byte		        56*seq_043_mvl/mxv
	.byte	W02
	.byte		        60*seq_043_mvl/mxv
	.byte	W01
	.byte		        60*seq_043_mvl/mxv
	.byte	W02
	.byte		        62*seq_043_mvl/mxv
	.byte	W01
	.byte		        63*seq_043_mvl/mxv
	.byte	W02
	.byte		        65*seq_043_mvl/mxv
	.byte	W02
	.byte		        69*seq_043_mvl/mxv
	.byte	W01
	.byte		        70*seq_043_mvl/mxv
	.byte	W02
	.byte		        73*seq_043_mvl/mxv
	.byte	W01
	.byte		        73*seq_043_mvl/mxv
	.byte	W04
	.byte		        78*seq_043_mvl/mxv
	.byte	W01
	.byte		        77*seq_043_mvl/mxv
	.byte	W02
	.byte		        75*seq_043_mvl/mxv
	.byte	W01
	.byte		        73*seq_043_mvl/mxv
	.byte	W02
	.byte		        68*seq_043_mvl/mxv
	.byte	W02
	.byte		        61*seq_043_mvl/mxv
	.byte	W01
	.byte		        56*seq_043_mvl/mxv
	.byte	W02
	.byte		        47*seq_043_mvl/mxv
	.byte	W01
	.byte		        43*seq_043_mvl/mxv
	.byte	W02
	.byte		        32*seq_043_mvl/mxv
	.byte	W01
	.byte		        27*seq_043_mvl/mxv
	.byte	W02
	.byte		        19*seq_043_mvl/mxv
	.byte	W02
	.byte	FINE

@*********************** Track 02 ***********************@

seq_043_1:
	.byte	KEYSH , seq_043_key+0
	.byte	W01
	.byte		VOICE , 7
	.byte	W01
	.byte		VOL   , 98*seq_043_mvl/mxv
	.byte		PAN   , c_v+0
	.byte		MODT  , mod_tre
	.byte	W01
	.byte		MOD   , 28
	.byte		BENDR , 12
	.byte		LFOS  , 27
	.byte	W32
	.byte	W01
	.byte		N24   , Gn2 , v100
	.byte	W24
	.byte		        Dn3 
	.byte	W24
	.byte		        Cn3 
	.byte	W24
	.byte		        Fn3 
	.byte	W24
	.byte	PEND
	.byte		        Dn3 
	.byte	W40
	.byte		N08   , Bn2 
	.byte	W08
	.byte		N15   , Cn3 
	.byte	W15
	.byte		N03   , Bn2 , v060
	.byte	W03
	.byte		        Cn3 , v100
	.byte	W03
	.byte		        Bn2 , v060
	.byte	W03
	.byte		N24   , An2 , v100
	.byte	W24
	.byte		N32   , Bn2 
	.byte	W40
	.byte		N08   , Gn2 
	.byte	W08
	.byte		N15   , An2 
	.byte	W15
	.byte		N03   , Gn2 , v060
	.byte	W03
	.byte		        An2 , v100
	.byte	W03
	.byte		        Gn2 , v060
	.byte	W03
	.byte		N24   , Fn2 , v100
	.byte	W24
	.byte		N24   , Gn2 , v100
	.byte	W24
	.byte		        Dn2 
	.byte	W24
	.byte		        Fn2 
	.byte	W24
	.byte		        An2 
	.byte	W24
	.byte	PEND
	.byte	PATT
	 .word	seq_043_1 + 0x15
	.byte		N32   , Dn3 , v100
	.byte	W40
	.byte		N08   , Bn2 
	.byte	W08
	.byte		N15   , Cn3 
	.byte	W15
	.byte		N04   , Bn2 , v060
	.byte	W03
	.byte		N03   , Cn3 , v100
	.byte	W03
	.byte		        Bn2 , v060
	.byte	W03
	.byte		N24   , An2 , v100
	.byte	W24
	.byte		N32   , Bn2 
	.byte	W40
	.byte		N08   , Gn2 
	.byte	W08
	.byte		N15   , An2 
	.byte	W15
	.byte		N04   , Gn2 , v060
	.byte	W03
	.byte		N03   , An2 , v100
	.byte	W03
	.byte		        Gn2 , v060
	.byte	W03
	.byte		N24   , Fn2 , v100
	.byte	W24
	.byte	PATT
	 .word	seq_043_1 + 0x4D
	.byte		N48   , Gn2 , v080
	.byte	W96
	.byte	W01
	.byte		VOICE , 45
	.byte	W01
	.byte		VOL   , 73*seq_043_mvl/mxv
	.byte		BENDR , 2
	.byte		MODT  , mod_pan
	.byte	W01
	.byte		PAN   , c_v+0
	.byte	W92
	.byte	W01
	.byte		N04   , Fn4 , v092
	.byte	W08
	.byte		        Fn4 , v040
	.byte	W08
	.byte		        Fn4 , v020
	.byte	W08
	.byte		        Ds4 , v092
	.byte	W08
	.byte		        Ds4 , v040
	.byte	W08
	.byte		        Ds4 , v020
	.byte	W08
	.byte		        Dn4 , v092
	.byte	W08
	.byte		        Dn4 , v040
	.byte	W08
	.byte		        Dn4 , v020
	.byte	W08
	.byte		        Cn4 , v092
	.byte	W08
	.byte		        Cn4 , v040
	.byte	W08
	.byte		        Cn4 , v020
	.byte	W08
	.byte		        Ds4 , v092
	.byte	W08
	.byte		        Ds4 , v040
	.byte	W08
	.byte		        Ds4 , v020
	.byte	W08
	.byte		        Dn4 , v092
	.byte	W08
	.byte		        Dn4 , v040
	.byte	W08
	.byte		        Dn4 , v020
	.byte	W08
	.byte		        Cn4 , v092
	.byte	W08
	.byte		        Cn4 , v040
	.byte	W08
	.byte		        Cn4 , v020
	.byte	W08
	.byte		        As3 , v092
	.byte	W08
	.byte		        As3 , v040
	.byte	W08
	.byte		        As3 , v020
	.byte	W07
	.byte		VOICE , 6
	.byte		VOL   , 93*seq_043_mvl/mxv
	.byte		PAN   , c_v+0
	.byte	W01
	.byte		N08   , En3 , v088
	.byte	W08
	.byte		        Cn3 , v048
	.byte	W08
	.byte		        En3 , v088
	.byte	W08
	.byte		        Fn3 
	.byte	W08
	.byte		        Cn3 , v048
	.byte	W08
	.byte		        Fn3 , v088
	.byte	W08
	.byte		        Gn3 
	.byte	W08
	.byte		        As3 
	.byte	W08
	.byte		        Fn3 , v048
	.byte	W08
	.byte		        As3 , v088
	.byte	W08
	.byte		        Dn3 , v048
	.byte	W08
	.byte		        Fn3 , v088
	.byte	W08
	.byte		        En3 
	.byte	W08
	.byte		        Gn2 , v048
	.byte	W08
	.byte		        En3 , v088
	.byte	W08
	.byte		        Fn3 
	.byte	W08
	.byte		        Gn2 , v048
	.byte	W08
	.byte		        Fn3 , v088
	.byte	W08
	.byte		        Gn3 
	.byte	W08
	.byte		        Cn4 
	.byte	W08
	.byte		        As3 , v048
	.byte	W08
	.byte		        Cn4 , v088
	.byte	W08
	.byte		        Gn3 , v048
	.byte	W08
	.byte		        Fn3 , v088
	.byte	W08
	.byte		        En3 
	.byte	W08
	.byte		        Cn3 , v048
	.byte	W08
	.byte		        En3 , v088
	.byte	W08
	.byte		        Fn3 
	.byte	W08
	.byte		        Cn3 , v048
	.byte	W08
	.byte		        Fn3 , v088
	.byte	W08
	.byte		        Gn3 
	.byte	W08
	.byte		        En3 
	.byte	W08
	.byte		        Gn3 , v048
	.byte	W08
	.byte		        As3 , v088
	.byte	W08
	.byte		        Gn3 , v048
	.byte	W08
	.byte		        As3 , v088
	.byte	W08
	.byte		N48   , Cn4 
	.byte	W48
	.byte	FINE

@*********************** Track 03 ***********************@

seq_043_2:
	.byte	KEYSH , seq_043_key+0
	.byte	W04
	.byte		VOICE , 74
	.byte		VOL   , 88*seq_043_mvl/mxv
	.byte		PAN   , c_v+0
	.byte	W32
	.byte		N05   , Dn4 , v076
	.byte	W16
	.byte		        Dn4 , v032
	.byte	W08
	.byte		        Dn4 , v076
	.byte	W16
	.byte		        Dn4 , v032
	.byte	W08
	.byte		        Dn4 , v076
	.byte	W16
	.byte		        Dn4 , v032
	.byte	W08
	.byte		        Dn4 , v076
	.byte	W16
	.byte		        Dn4 , v032
	.byte	W08
	.byte	PEND
	.byte	PATT
	 .word	seq_043_2 + 0xA
	.byte	PATT
	 .word	seq_043_2 + 0xA
	.byte	PATT
	 .word	seq_043_2 + 0xA
	.byte	PATT
	 .word	seq_043_2 + 0xA
	.byte	PATT
	 .word	seq_043_2 + 0xA
	.byte	PATT
	 .word	seq_043_2 + 0xA
	.byte	PATT
	 .word	seq_043_2 + 0xA
	.byte	W96
	.byte	W84
	.byte		VOICE , 74
	.byte	W01
	.byte		VOL   , 93*seq_043_mvl/mxv
	.byte	W01
	.byte		PAN   , c_v+0
	.byte	W10
	.byte		N05   , Cn3 , v088
	.byte	W16
	.byte		        Cn3 , v040
	.byte	W08
	.byte		        Cn3 , v088
	.byte	W16
	.byte		        Cn3 , v040
	.byte	W08
	.byte		        Cn3 , v088
	.byte	W16
	.byte		        Cn3 , v040
	.byte	W08
	.byte		        Cn3 , v088
	.byte	W16
	.byte		        Cn3 , v040
	.byte	W08
	.byte		        Dn3 , v088
	.byte	W16
	.byte		        Dn3 , v040
	.byte	W08
	.byte		        Dn3 , v088
	.byte	W16
	.byte		        Dn3 , v040
	.byte	W08
	.byte		        Dn3 , v088
	.byte	W16
	.byte		        Dn3 , v040
	.byte	W08
	.byte		        Dn3 , v088
	.byte	W16
	.byte		        Dn3 , v040
	.byte	W08
	.byte		N05   , Gn3 , v088
	.byte	W16
	.byte		        Gn3 , v040
	.byte	W08
	.byte		        Gn3 , v088
	.byte	W16
	.byte		        Gn3 , v040
	.byte	W08
	.byte		        Gn3 , v088
	.byte	W16
	.byte		        Gn3 , v040
	.byte	W08
	.byte		        Gn3 , v088
	.byte	W16
	.byte		        Gn3 , v040
	.byte	W08
	.byte	PEND
	.byte	PATT
	 .word	seq_043_2 + 0x83
	.byte	PATT
	 .word	seq_043_2 + 0x83
	.byte		N05   , Gn3 , v088
	.byte	W05
	.byte	FINE

@*********************** Track 04 ***********************@

seq_043_3:
	.byte	KEYSH , seq_043_key+0
	.byte	W05
	.byte		VOICE , 75
	.byte		VOL   , 85*seq_043_mvl/mxv
	.byte		PAN   , c_v+0
	.byte	W30
	.byte	W01
	.byte		N12   , Gn3 , v076
	.byte	W24
	.byte		N12
	.byte	W24
	.byte		N12
	.byte	W24
	.byte		N12
	.byte	W24
	.byte	PEND
	.byte	PATT
	 .word	seq_043_3 + 0xB
	.byte	PATT
	 .word	seq_043_3 + 0xB
	.byte	PATT
	 .word	seq_043_3 + 0xB
	.byte	PATT
	 .word	seq_043_3 + 0xB
	.byte	PATT
	 .word	seq_043_3 + 0xB
	.byte	PATT
	 .word	seq_043_3 + 0xB
	.byte	PATT
	 .word	seq_043_3 + 0xB
	.byte	W96
	.byte	W84
	.byte		VOICE , 75
	.byte	W01
	.byte		VOL   , 93*seq_043_mvl/mxv
	.byte	W01
	.byte		PAN   , c_v+0
	.byte	W10
	.byte		N12   , Gs2 , v088
	.byte	W24
	.byte		N12
	.byte	W24
	.byte		N12
	.byte	W24
	.byte		N12
	.byte	W24
	.byte		        As2 
	.byte	W24
	.byte		N12
	.byte	W24
	.byte		N12
	.byte	W24
	.byte		N12
	.byte	W24
	.byte		N12   , Cn3 , v088
	.byte	W24
	.byte		N12
	.byte	W24
	.byte		N12
	.byte	W24
	.byte		N12
	.byte	W24
	.byte	PEND
	.byte	PATT
	 .word	seq_043_3 + 0x56
	.byte	PATT
	 .word	seq_043_3 + 0x56
	.byte		N12   , Cn3 , v088
	.byte	W12
	.byte	FINE

@*********************** Track 05 ***********************@

seq_043_4:
	.byte	KEYSH , seq_043_key+0
	.byte	W06
	.byte		VOICE , 95
	.byte		MOD   , 0
	.byte		MODT  , mod_pan
	.byte	W01
	.byte		VOL   , 88*seq_043_mvl/mxv
	.byte		PAN   , c_v-20
	.byte	W28
	.byte	W01
	.byte		N24   , Gn2 , v127
	.byte	W24
	.byte		        Dn3 
	.byte	W24
	.byte		        Cn3 
	.byte	W24
	.byte		        Fn3 
	.byte	W24
	.byte	PEND
	.byte		N32   , Dn3 , v127
	.byte	W40
	.byte		N08   , Bn2 
	.byte	W08
	.byte		N15   , Cn3 
	.byte	W15
	.byte		N03   , Bn2 
	.byte	W03
	.byte		        Cn3 
	.byte	W03
	.byte		        Bn2 
	.byte	W03
	.byte		N23   , An2 
	.byte	W24
	.byte	PEND
	.byte		N32   , Bn2 , v127
	.byte	W40
	.byte		N08   , Gn2 
	.byte	W08
	.byte		N15   , An2 
	.byte	W15
	.byte		N03   , Gn2 
	.byte	W03
	.byte		        An2 
	.byte	W03
	.byte		        Gn2 
	.byte	W03
	.byte		N23   , Fn2 
	.byte	W24
	.byte	PEND
	.byte		        Gn2 
	.byte	W24
	.byte		        Dn2 
	.byte	W24
	.byte		        Fn2 
	.byte	W24
	.byte		        An2 
	.byte	W23
	.byte		VOL   , 88*seq_043_mvl/mxv
	.byte		PAN   , c_v-20
	.byte	W01
	.byte	PATT
	 .word	seq_043_4 + 0x10
	.byte	PATT
	 .word	seq_043_4 + 0x1B
	.byte	PATT
	 .word	seq_043_4 + 0x30
	.byte		N23   , Gn2 , v127
	.byte	W24
	.byte		        Dn2 
	.byte	W24
	.byte		        Fn2 
	.byte	W24
	.byte		        An2 
	.byte	W24
	.byte		TIE   , Gn2 , v092
	.byte	W96
	.byte	W92
	.byte	W03
	.byte		VOICE , 95
	.byte		PAN   , c_v+20
	.byte	W01
	.byte		EOT
	.byte		N48   , Cn2 , v112
	.byte	W48
	.byte		        Ds2 
	.byte	W48
	.byte		        Dn2 
	.byte	W48
	.byte		        Fn2 
	.byte	W48
	.byte		TIE   , Gn2 
	.byte	W96
	.byte	W96
	.byte	W96
	.byte	W48
	.byte		EOT
	.byte	FINE

@*********************** Track 06 ***********************@

seq_043_5:
	.byte	KEYSH , seq_043_key+0
	.byte	W07
	.byte		PAN   , c_v+20
	.byte	W01
	.byte		VOICE , 95
	.byte		VOL   , 44*seq_043_mvl/mxv
	.byte		MODT  , mod_pan
	.byte	W28
	.byte		N24   , Gn3 , v127
	.byte	W24
	.byte		        Dn4 
	.byte	W24
	.byte		        Cn4 
	.byte	W24
	.byte		        Fn4 
	.byte	W24
	.byte	PEND
	.byte		N32   , Dn4 , v127
	.byte	W40
	.byte		N08   , Bn3 
	.byte	W08
	.byte		N15   , Cn4 
	.byte	W15
	.byte		N03   , Bn3 
	.byte	W03
	.byte		        Cn4 
	.byte	W03
	.byte		        Bn3 
	.byte	W03
	.byte		N23   , An3 
	.byte	W24
	.byte	PEND
	.byte		N32   , Bn3 , v127
	.byte	W40
	.byte		N08   , Gn3 
	.byte	W08
	.byte		N15   , An3 
	.byte	W15
	.byte		N03   , Gn3 
	.byte	W03
	.byte		        An3 
	.byte	W03
	.byte		        Gn3 
	.byte	W03
	.byte		N23   , Fn3 
	.byte	W24
	.byte	PEND
	.byte		N05   , Gn3 
	.byte	W08
	.byte		        Gn3 , v108
	.byte	W08
	.byte		        Gn3 , v096
	.byte	W08
	.byte		        Dn3 , v127
	.byte	W08
	.byte		        Dn3 , v108
	.byte	W08
	.byte		        Dn3 , v096
	.byte	W08
	.byte		        Fn3 , v127
	.byte	W08
	.byte		        Fn3 , v108
	.byte	W08
	.byte		        Fn3 , v096
	.byte	W08
	.byte		        An3 , v127
	.byte	W08
	.byte		        An3 , v108
	.byte	W08
	.byte		        An3 , v096
	.byte	W07
	.byte		VOL   , 44*seq_043_mvl/mxv
	.byte		PAN   , c_v+20
	.byte	W01
	.byte	PATT
	 .word	seq_043_5 + 0xD
	.byte	PATT
	 .word	seq_043_5 + 0x18
	.byte	PATT
	 .word	seq_043_5 + 0x2D
	.byte		N05   , Gn3 , v127
	.byte	W08
	.byte		        Gn3 , v108
	.byte	W08
	.byte		        Gn3 , v096
	.byte	W08
	.byte		        Dn3 , v127
	.byte	W08
	.byte		        Dn3 , v108
	.byte	W08
	.byte		        Dn3 , v096
	.byte	W08
	.byte		        Fn3 , v127
	.byte	W08
	.byte		        Fn3 , v108
	.byte	W08
	.byte		        Fn3 , v096
	.byte	W08
	.byte		        An3 , v127
	.byte	W08
	.byte		        An3 , v108
	.byte	W08
	.byte		        An3 , v096
	.byte	W08
	.byte		TIE   , Cn2 , v112
	.byte	W96
	.byte	W92
	.byte	W03
	.byte		VOICE , 95
	.byte		PAN   , c_v-20
	.byte	W01
	.byte		EOT
	.byte		N48   , Gs1 , v100
	.byte	W48
	.byte		        Cn2 
	.byte	W48
	.byte		        As1 
	.byte	W48
	.byte		        Dn2 
	.byte	W48
	.byte		TIE   , Cn2 
	.byte	W96
	.byte	W96
	.byte	W96
	.byte	W48
	.byte		EOT
	.byte	FINE

@*********************** Track 07 ***********************@

seq_043_6:
	.byte	KEYSH , seq_043_key+0
	.byte	W09
	.byte		VOICE , 9
	.byte		VOL   , 68*seq_043_mvl/mxv
	.byte		PAN   , c_v+0
	.byte	W24
	.byte	W03
	.byte	W96
	.byte	W96
	.byte	W96
	.byte	W96
	.byte	W96
	.byte	W96
	.byte	W96
	.byte	W96
	.byte		N08   , Fn2 , v127
	.byte	W08
	.byte		N04   , Fn3 , v032
	.byte	W08
	.byte		        Cn4 , v112
	.byte	W08
	.byte		        Gn4 , v100
	.byte	W08
	.byte		        Dn4 , v040
	.byte	W08
	.byte		        Cn4 , v088
	.byte	W08
	.byte		N08   , Fn2 , v127
	.byte	W08
	.byte		N04   , Fn3 , v032
	.byte	W08
	.byte		        Cn4 , v112
	.byte	W08
	.byte		        Gn4 , v100
	.byte	W08
	.byte		        Dn4 , v040
	.byte	W08
	.byte		        Cn4 , v088
	.byte	W08
	.byte		N08   , En2 , v127
	.byte	W08
	.byte		N04   , En3 , v032
	.byte	W08
	.byte		        Cn4 , v112
	.byte	W08
	.byte		        Gn4 , v100
	.byte	W08
	.byte		        Dn4 , v040
	.byte	W08
	.byte		        Cn4 , v088
	.byte	W08
	.byte		N08   , En2 , v127
	.byte	W08
	.byte		N04   , En3 , v032
	.byte	W08
	.byte		        Cn4 , v112
	.byte	W08
	.byte		        Gn4 , v100
	.byte	W08
	.byte		        Dn4 , v040
	.byte	W08
	.byte		        Cn4 , v088
	.byte	W04
	.byte	FINE

@*********************** Track 08 ***********************@

seq_043_7:
	.byte	KEYSH , seq_043_key+0
	.byte	W10
	.byte		VOICE , 120
	.byte		VOL   , 125*seq_043_mvl/mxv
	.byte		MODT  , mod_pan
	.byte	W01
	.byte		PAN   , c_v+0
	.byte	W13
	.byte		N04   , Gn1 , v028
	.byte	W04
	.byte		        Gn1 , v068
	.byte	W04
	.byte		        Gn1 , v104
	.byte	W04
	.byte		N20   , Gn1 , v127
	.byte	W88
	.byte		N04   , Gn1 , v100
	.byte	W04
	.byte		N04
	.byte	W04
	.byte	PEND
	.byte	PATT
	 .word	seq_043_7 + 0x17
	.byte	PATT
	 .word	seq_043_7 + 0x17
	.byte		N20   , Gn1 , v127
	.byte	W88
	.byte		N04   , Dn1 , v100
	.byte	W04
	.byte		N04
	.byte	W04
	.byte	PATT
	 .word	seq_043_7 + 0x17
	.byte	PATT
	 .word	seq_043_7 + 0x17
	.byte	PATT
	 .word	seq_043_7 + 0x17
	.byte		N20   , Gn1 , v127
	.byte	W96
	.byte	W96
	.byte	W96
	.byte		        Gs1 , v080
	.byte	W48
	.byte		N20
	.byte	W48
	.byte		        Gn1 
	.byte	W48
	.byte		N20
	.byte	W48
	.byte		N20   , Cn2 , v100
	.byte	W88
	.byte		N04   , Gn1 
	.byte	W04
	.byte		N04
	.byte	W04
	.byte	PEND
	.byte	PATT
	 .word	seq_043_7 + 0x54
	.byte		N20   , Cn2 , v100
	.byte	W48
	.byte		N20
	.byte	W40
	.byte		N04   , Gn1 
	.byte	W04
	.byte		N04
	.byte	W04
	.byte		N20   , Cn2 
	.byte	W24
	.byte		N12   , Gn1 
	.byte	W24
	.byte		        Cn2 
	.byte	W12
	.byte	FINE

@*********************** Track 09 ***********************@

seq_043_8:
	.byte	KEYSH , seq_043_key+0
	.byte	W12
	.byte		VOICE , 37
	.byte		VOL   , 125*seq_043_mvl/mxv
	.byte		PAN   , c_v+0
	.byte	W24
	.byte		N96   , Gn2 , v127
	.byte	W96
	.byte		N96
	.byte	W96
	.byte		N96
	.byte	W96
	.byte		N96
	.byte	W96
	.byte		N96
	.byte	W96
	.byte		N96
	.byte	W96
	.byte		N96
	.byte	W96
	.byte		N96
	.byte	W92
	.byte	W03
	.byte		VOICE , 37
	.byte	W01
	.byte		N96   , Fn2 , v092
	.byte	W96
	.byte		        En2 
	.byte	W92
	.byte	W03
	.byte		VOICE , 37
	.byte	W01
	.byte		N16   , Gs1 , v127
	.byte	W16
	.byte		N08   , Gs2 
	.byte	W24
	.byte		        Cn2 , v080
	.byte	W08
	.byte		N16   , Ds2 , v127
	.byte	W16
	.byte		N08   , Cn2 , v080
	.byte	W08
	.byte		        Gs1 , v127
	.byte	W08
	.byte		        Fn1 
	.byte	W08
	.byte		        Gs1 , v080
	.byte	W08
	.byte		N16   , Gn1 , v127
	.byte	W16
	.byte		N08   , Gn2 
	.byte	W24
	.byte		        Fn1 , v080
	.byte	W08
	.byte		        Gn1 , v127
	.byte	W16
	.byte		        Fn1 , v080
	.byte	W08
	.byte		        Gn1 , v127
	.byte	W16
	.byte		        As1 , v080
	.byte	W08
	.byte		N96   , Cn2 , v127
	.byte	W96
	.byte		N96
	.byte	W96
	.byte		N96
	.byte	W96
	.byte		N16
	.byte	W16
	.byte		N07
	.byte	W08
	.byte		N07
	.byte	W08
	.byte		N07
	.byte	W08
	.byte		N07
	.byte	W08
	.byte		N07
	.byte	W07
	.byte	FINE

@*********************** Track 10 ***********************@

seq_043_9:
	.byte	KEYSH , seq_043_key+0
	.byte	W13
	.byte		VOICE , 127
	.byte		VOL   , 125*seq_043_mvl/mxv
	.byte		PAN   , c_v+0
	.byte	W11
	.byte		N02   , An1 , v020
	.byte	W04
	.byte		        An1 , v036
	.byte	W04
	.byte		        An1 , v068
	.byte	W04
	.byte	W24
	.byte		N04   , Fs2 , v100
	.byte	W48
	.byte		        Gn1 
	.byte	W24
	.byte	PEND
	.byte	PATT
	 .word	seq_043_9 + 0x14
	.byte	PATT
	 .word	seq_043_9 + 0x14
	.byte	PATT
	 .word	seq_043_9 + 0x14
	.byte	PATT
	 .word	seq_043_9 + 0x14
	.byte	PATT
	 .word	seq_043_9 + 0x14
	.byte	PATT
	 .word	seq_043_9 + 0x14
	.byte	PATT
	 .word	seq_043_9 + 0x14
	.byte	W96
	.byte	W96
	.byte		N04   , Fs3 , v127
	.byte	W24
	.byte		N08   , Fs2 
	.byte	W24
	.byte		N04   , Fs3 
	.byte	W24
	.byte		N08   , Fs2 
	.byte	W24
	.byte	PEND
	.byte	PATT
	 .word	seq_043_9 + 0x41
	.byte	W48
	.byte		N04   , Gn1 , v080
	.byte	W48
	.byte	W48
	.byte		N04   , Gn1 , v080
	.byte	W24
	.byte		N04
	.byte	W24
	.byte	PEND
	.byte	PATT
	 .word	seq_043_9 + 0x59
	.byte		N08   , Fn3 , v127
	.byte	W24
	.byte		N08
	.byte	W24
	.byte		N08
	.byte	W08
	.byte	FINE

@*********************** Track 11 ***********************@

seq_043_10:
	.byte	KEYSH , seq_043_key+0
	.byte	W14
	.byte		VOICE , 127
	.byte		VOL   , 125*seq_043_mvl/mxv
	.byte		PAN   , c_v+0
	.byte	W22
	.byte		N04   , An1 , v112
	.byte	W16
	.byte		        An1 , v036
	.byte	W04
	.byte		        An1 , v020
	.byte	W04
	.byte		        An1 , v112
	.byte	W16
	.byte		N04
	.byte	W08
	.byte		N04
	.byte	W32
	.byte		        An1 , v036
	.byte	W04
	.byte		        An1 , v020
	.byte	W04
	.byte		N03   , An1 , v092
	.byte	W08
	.byte	PEND
	.byte	PATT
	 .word	seq_043_10 + 0xA
	.byte	PATT
	 .word	seq_043_10 + 0xA
	.byte	PATT
	 .word	seq_043_10 + 0xA
	.byte	PATT
	 .word	seq_043_10 + 0xA
	.byte	PATT
	 .word	seq_043_10 + 0xA
	.byte	PATT
	 .word	seq_043_10 + 0xA
	.byte	PATT
	 .word	seq_043_10 + 0xA
	.byte	W96
	.byte	W96
	.byte	PATT
	 .word	seq_043_10 + 0xA
	.byte		N04   , An1 , v112
	.byte	W24
	.byte		N03   , An1 , v100
	.byte	W16
	.byte		N04   , An1 , v036
	.byte	W04
	.byte		        An1 , v020
	.byte	W04
	.byte		        An1 , v112
	.byte	W16
	.byte		N03
	.byte	W24
	.byte		        An1 , v092
	.byte	W04
	.byte		N04   , An1 , v020
	.byte	W04
	.byte	PEND
	.byte	PATT
	 .word	seq_043_10 + 0xA
	.byte	PATT
	 .word	seq_043_10 + 0x50
	.byte	PATT
	 .word	seq_043_10 + 0xA
	.byte		N04   , An1 , v112
	.byte	W16
	.byte		        An1 , v036
	.byte	W04
	.byte		        An1 , v020
	.byte	W04
	.byte		N03   , An1 , v100
	.byte	W08
	.byte		N03
	.byte	W08
	.byte		N03
	.byte	W08
	.byte		N04   , An1 , v112
	.byte	W04
	.byte	FINE

@*********************** Track 12 ***********************@

seq_043_11:
	.byte	KEYSH , seq_043_key+0
	.byte	W09
	.byte		VOICE , 127
	.byte		VOL   , 88*seq_043_mvl/mxv
	.byte		PAN   , c_v+0
	.byte	W15
	.byte		N12   , En2 , v040
	.byte	W12
	.byte		N03   , Fs1 , v112
	.byte	W18
	.byte		N03
	.byte	W24
	.byte		N06   , Ds2 , v080
	.byte	W06
	.byte		N24
	.byte	W24
	.byte		        En2 , v060
	.byte	W24
	.byte	PEND
	.byte	PATT
	 .word	seq_043_11 + 0xE
	.byte	PATT
	 .word	seq_043_11 + 0xE
	.byte	PATT
	 .word	seq_043_11 + 0xE
	.byte	PATT
	 .word	seq_043_11 + 0xE
	.byte	PATT
	 .word	seq_043_11 + 0xE
	.byte	PATT
	 .word	seq_043_11 + 0xE
	.byte	PATT
	 .word	seq_043_11 + 0xE
	.byte	W96
	.byte	W96
	.byte		N24   , En2 , v060
	.byte	W24
	.byte		N03   , Fs1 , v112
	.byte	W16
	.byte		N04   , Fs1 , v080
	.byte	W08
	.byte		N03   , Fs1 , v112
	.byte	W08
	.byte		N02   , Fs1 , v040
	.byte	W08
	.byte		N04   , Fs1 , v080
	.byte	W08
	.byte		N24   , Ds2 
	.byte	W24
	.byte	PEND
	.byte	PATT
	 .word	seq_043_11 + 0x43
	.byte		N03   , Fs1 , v112
	.byte	W16
	.byte		N02   , Fs1 , v040
	.byte	W08
	.byte		N03   , Fs1 , v112
	.byte	W16
	.byte		N04   , Fs1 , v080
	.byte	W08
	.byte		N24   , Ds2 
	.byte	W24
	.byte		N24
	.byte	W24
	.byte		N03   , Fs1 , v112
	.byte	W16
	.byte		N02   , Fs1 , v040
	.byte	W08
	.byte		N03   , Fs1 , v112
	.byte	W16
	.byte		N04   , Fs1 , v080
	.byte	W08
	.byte		N24   , Ds2 
	.byte	W48
	.byte		N03   , Fs1 , v112
	.byte	W16
	.byte		N02   , Fs1 , v040
	.byte	W08
	.byte		N03   , Fs1 , v112
	.byte	W16
	.byte		N04   , Fs1 , v080
	.byte	W08
	.byte		N24   , Ds2 
	.byte	W24
	.byte		        En2 
	.byte	W24
	.byte		        Ds2 
	.byte	W24
	.byte		N24
	.byte	W24
	.byte		N24
	.byte	W24
	.byte	FINE

@******************************************************@

	.align	2

seq_043:
	.byte	12	@ NumTrks
	.byte	0	@ NumBlks
	.byte	seq_043_pri	@ Priority
	.byte	seq_043_rev	@ Reverb

	.word	seq_043_grp

	.word	seq_043_0
	.word	seq_043_1
	.word	seq_043_2
	.word	seq_043_3
	.word	seq_043_4
	.word	seq_043_5
	.word	seq_043_6
	.word	seq_043_7
	.word	seq_043_8
	.word	seq_043_9
	.word	seq_043_10
	.word	seq_043_11

	.end
