@ File generated by m4a2s Song-Module
	.include "MPlayDef.s"

	.equ	seq_756_grp, bank_026
	.equ	seq_756_pri, 127
	.equ	seq_756_rev, 0
	.equ	seq_756_mvl, 127
	.equ	seq_756_key, 0

	.section .rodata
	.global	seq_756
	.align	2

@*********************** Track 01 ***********************@

seq_756_0:
	.byte	KEYSH , seq_756_key+0
	.byte	TEMPO , 240/2
	.byte		VOICE , 22
	.byte		PAN   , c_v+0
	.byte		VOL   , 127*seq_756_mvl/mxv
	.byte		BEND  , c_v-1
	.byte	W01
	.byte		        c_v+4
	.byte		N01   , Fn1 , v060
	.byte	W01
	.byte		BEND  , c_v+5
	.byte	W01
	.byte		        c_v+7
	.byte		N01   , Fs1 , v092
	.byte		N01   , Gn1 , v100
	.byte	W01
	.byte		BEND  , c_v+8
	.byte		N01   , Gs1 , v080
	.byte	W01
	.byte		BEND  , c_v+9
	.byte	W01
	.byte		        c_v+10
	.byte		N01   , An1 , v040
	.byte	W01
	.byte		BEND  , c_v+11
	.byte		N01   , Bn1 , v060
	.byte	W01
	.byte		BEND  , c_v+12
	.byte		N01   , Cs2 , v080
	.byte	W01
	.byte		BEND  , c_v+13
	.byte		N01   , Ds2 , v100
	.byte	W01
	.byte		BEND  , c_v+13
	.byte		N01   , Dn2 , v092
	.byte	W01
	.byte		BEND  , c_v+14
	.byte	W01
	.byte		        c_v+15
	.byte		N01   , Cs2 , v080
	.byte	W01
	.byte		BEND  , c_v+15
	.byte		N01   , Cn2 , v072
	.byte	W01
	.byte		BEND  , c_v+17
	.byte		N01   , Bn1 , v052
	.byte	W01
	.byte		BEND  , c_v+17
	.byte		N01   , As1 , v040
	.byte	W01
	.byte		BEND  , c_v+18
	.byte	W01
	.byte		        c_v+18
	.byte		N01   , An1 , v032
	.byte	W01
	.byte		BEND  , c_v+19
	.byte		N01   , Gn1 , v020
	.byte	W01
	.byte		BEND  , c_v+19
	.byte		N01   , Fn1 , v040
	.byte	W01
	.byte		BEND  , c_v+20
	.byte		N02   , En1 , v060
	.byte	W01
	.byte		BEND  , c_v+20
	.byte		N01   , Fn1 , v080
	.byte	W01
	.byte		BEND  , c_v+21
	.byte		N01   , Fs1 , v092
	.byte	W01
	.byte		BEND  , c_v+21
	.byte		N01   , Gn1 , v112
	.byte	W01
	.byte		BEND  , c_v+22
	.byte		N01   , Gs1 , v100
	.byte	W01
	.byte		BEND  , c_v+22
	.byte		N01   , As1 , v092
	.byte	W01
	.byte		BEND  , c_v+23
	.byte		N01   , Cn2 , v080
	.byte	W01
	.byte		BEND  , c_v+23
	.byte		N01   , Dn2 , v072
	.byte	W01
	.byte		BEND  , c_v+23
	.byte		N01   , Cs2 , v060
	.byte	W01
	.byte		BEND  , c_v+24
	.byte	W01
	.byte		        c_v+24
	.byte		N01   , Cn2 , v052
	.byte	W01
	.byte		BEND  , c_v+25
	.byte		N01   , Bn1 , v040
	.byte	W01
	.byte		BEND  , c_v+25
	.byte		N01   , As1 , v032
	.byte	W01
	.byte		BEND  , c_v+26
	.byte	W01
	.byte		        c_v+26
	.byte		N01   , An1 , v020
	.byte	W01
	.byte		BEND  , c_v+27
	.byte		N01   , Gs1 , v032
	.byte	W01
	.byte		BEND  , c_v+27
	.byte		N02   , An1 , v040
	.byte	W01
	.byte		BEND  , c_v+27
	.byte		N01   , As1 , v052
	.byte	W01
	.byte		BEND  , c_v+28
	.byte		N01   , Bn1 , v060
	.byte	W01
	.byte		BEND  , c_v+28
	.byte		N01   , Cn2 , v072
	.byte	W01
	.byte		BEND  , c_v+28
	.byte		N01   , Cs2 , v080
	.byte	W01
	.byte		BEND  , c_v+29
	.byte		N01   , Ds2 , v092
	.byte	W01
	.byte		BEND  , c_v+29
	.byte		N01   , Fn2 , v100
	.byte	W01
	.byte		BEND  , c_v+29
	.byte		N01   , Gn2 , v112
	.byte	W01
	.byte		BEND  , c_v+30
	.byte	W01
	.byte		        c_v+30
	.byte		N01   , Fs2 , v040
	.byte	W01
	.byte		BEND  , c_v+30
	.byte		N01   , Fn2 
	.byte	W01
	.byte		BEND  , c_v+31
	.byte		N01   , En2 
	.byte	W01
	.byte		BEND  , c_v+31
	.byte		N01   , Ds2 
	.byte	W01
	.byte		VOL   , 127*seq_756_mvl/mxv
	.byte		BEND  , c_v+31
	.byte	W01
	.byte		VOL   , 101*seq_756_mvl/mxv
	.byte		BEND  , c_v+32
	.byte		N01   , Dn2 
	.byte	W01
	.byte		VOL   , 91*seq_756_mvl/mxv
	.byte		BEND  , c_v+32
	.byte		N01   , Cs2 
	.byte	W01
	.byte		VOL   , 83*seq_756_mvl/mxv
	.byte		BEND  , c_v+33
	.byte		N01   , Bn1 
	.byte	W01
	.byte		VOL   , 76*seq_756_mvl/mxv
	.byte		BEND  , c_v+33
	.byte		N01   , An1 
	.byte	W01
	.byte		VOL   , 70*seq_756_mvl/mxv
	.byte		BEND  , c_v+33
	.byte		N02   , Gs1 , v080
	.byte	W01
	.byte		VOL   , 60*seq_756_mvl/mxv
	.byte		BEND  , c_v+34
	.byte		N01   , An1 , v092
	.byte	W01
	.byte		VOL   , 55*seq_756_mvl/mxv
	.byte		BEND  , c_v+34
	.byte		N01   , As1 , v052
	.byte	W01
	.byte		VOL   , 51*seq_756_mvl/mxv
	.byte		BEND  , c_v+34
	.byte		N01   , Bn1 , v040
	.byte	W01
	.byte		VOL   , 47*seq_756_mvl/mxv
	.byte		BEND  , c_v+34
	.byte		N01   , Cn2 
	.byte	W01
	.byte		VOL   , 43*seq_756_mvl/mxv
	.byte		BEND  , c_v+35
	.byte		N01   , Dn2 
	.byte	W01
	.byte		VOL   , 40*seq_756_mvl/mxv
	.byte		BEND  , c_v+35
	.byte		N01   , En2 
	.byte	W01
	.byte		VOL   , 36*seq_756_mvl/mxv
	.byte		BEND  , c_v+35
	.byte		N01   , Fs2 
	.byte	W01
	.byte		VOL   , 33*seq_756_mvl/mxv
	.byte		BEND  , c_v+36
	.byte	W01
	.byte		VOL   , 29*seq_756_mvl/mxv
	.byte		BEND  , c_v+36
	.byte		N01   , Fn2 
	.byte	W01
	.byte		VOL   , 26*seq_756_mvl/mxv
	.byte		BEND  , c_v+36
	.byte		N01   , En2 
	.byte	W01
	.byte		VOL   , 23*seq_756_mvl/mxv
	.byte		BEND  , c_v+36
	.byte		N01   , Ds2 
	.byte	W01
	.byte		VOL   , 20*seq_756_mvl/mxv
	.byte		BEND  , c_v+37
	.byte		N01   , Dn2 
	.byte	W01
	.byte		VOL   , 17*seq_756_mvl/mxv
	.byte		BEND  , c_v+37
	.byte	W01
	.byte		VOL   , 14*seq_756_mvl/mxv
	.byte		BEND  , c_v+37
	.byte		N01   , Cs2 
	.byte	W01
	.byte		VOL   , 11*seq_756_mvl/mxv
	.byte		BEND  , c_v+38
	.byte		N01   , Cn2 
	.byte	W01
	.byte		VOL   , 9*seq_756_mvl/mxv
	.byte	W01
	.byte		        6*seq_756_mvl/mxv
	.byte	W01
	.byte		        3*seq_756_mvl/mxv
	.byte	W01
	.byte		        0*seq_756_mvl/mxv
	.byte	FINE

@******************************************************@

	.align	2

seq_756:
	.byte	1	@ NumTrks
	.byte	0	@ NumBlks
	.byte	seq_756_pri	@ Priority
	.byte	seq_756_rev	@ Reverb

	.word	seq_756_grp

	.word	seq_756_0

	.end
