@ File generated by m4a2s Song-Module
	.include "MPlayDef.s"

	.equ	seq_039_grp, bank_000
	.equ	seq_039_pri, 50
	.equ	seq_039_rev, 198
	.equ	seq_039_mvl, 127
	.equ	seq_039_key, 0

	.section .rodata
	.global	seq_039
	.align	2

@*********************** Track 01 ***********************@

seq_039_0:
	.byte	KEYSH , seq_039_key+0
	.byte	TEMPO , 84/2
	.byte		VOICE , 10
	.byte		MOD   , 70
	.byte		MODT  , mod_pan
	.byte	W01
	.byte		VOL   , 60*seq_039_mvl/mxv
	.byte		PAN   , c_v+0
	.byte	W23
	.byte	W96
	.byte	W96
	.byte	W96
	.byte	W96
	.byte	W96
	.byte	W96
	.byte	W96
	.byte	W96
	.byte		N03   , Cs3 , v112
	.byte	W06
	.byte		        Cs3 , v040
	.byte	W06
	.byte		        En3 , v112
	.byte	W06
	.byte		        En3 , v040
	.byte	W06
	.byte		        Ds3 , v112
	.byte	W06
	.byte		        Ds3 , v040
	.byte	W06
	.byte		        En3 , v112
	.byte	W06
	.byte		        En3 , v040
	.byte	W06
	.byte		        Gn3 , v112
	.byte	W06
	.byte		        Gn3 , v040
	.byte	W42
	.byte	PEND
	.byte	W96
	.byte		N03   , Cn3 , v112
	.byte	W06
	.byte		        Cn3 , v040
	.byte	W06
	.byte		        Ds3 , v112
	.byte	W06
	.byte		        Ds3 , v040
	.byte	W06
	.byte		        Dn3 , v112
	.byte	W06
	.byte		        Dn3 , v040
	.byte	W06
	.byte		        Ds3 , v112
	.byte	W06
	.byte		        Ds3 , v040
	.byte	W06
	.byte		        Fs3 , v112
	.byte	W06
	.byte		        Fs3 , v040
	.byte	W42
	.byte	PEND
	.byte	W96
	.byte	PATT
	 .word	seq_039_0 + 0x18
	.byte	W96
	.byte	PATT
	 .word	seq_039_0 + 0x39
	.byte	W96
	.byte	W96
	.byte	W96
	.byte	W96
	.byte	W96
	.byte	W96
	.byte	W96
	.byte	W96
	.byte	W96
	.byte	W96
	.byte	W96
	.byte	W96
	.byte	W96
	.byte	W96
	.byte	W96
	.byte	W96
	.byte	W96
	.byte	W96
	.byte	W96
	.byte	W96
	.byte	W96
	.byte	W96
	.byte	W96
	.byte	W96
	.byte	W96
	.byte	PATT
	 .word	seq_039_0 + 0x18
	.byte	W96
	.byte	PATT
	 .word	seq_039_0 + 0x39
	.byte	W96
	.byte	GOTO
	 .word	seq_039_0 + 0x5A
	.byte	FINE

@*********************** Track 02 ***********************@

seq_039_1:
	.byte	KEYSH , seq_039_key+0
	.byte	W02
	.byte		VOICE , 76
	.byte		MOD   , 100
	.byte		VOL   , 42*seq_039_mvl/mxv
	.byte	W01
	.byte		PAN   , c_v-20
	.byte		LFOS  , 27
	.byte		MODT  , mod_tre
	.byte	W01
	.byte		LFODL , 10
	.byte	W20
	.byte	W96
	.byte	W96
	.byte	W96
	.byte	W96
	.byte	W96
	.byte	W96
	.byte	W96
	.byte	W96
	.byte	W96
	.byte	W96
	.byte	W96
	.byte	W96
	.byte	W96
	.byte	W96
	.byte	W96
	.byte	W96
	.byte		N30   , Dn4 , v096
	.byte	W36
	.byte		N06   , Cs4 
	.byte	W06
	.byte		N18   , Dn4 
	.byte	W18
	.byte		N12   , En4 
	.byte	W12
	.byte		N08   , Dn4 
	.byte	W08
	.byte		N02   , En4 , v072
	.byte	W02
	.byte		        Dn4 , v048
	.byte	W02
	.byte		N12   , Cs4 , v096
	.byte	W12
	.byte	PEND
	.byte	PATT
	 .word	seq_039_1 + 0x24
	.byte		N78   , As3 , v096
	.byte	W96
	.byte	W12
	.byte		N04   , En3 , v088
	.byte	W06
	.byte		        En3 , v036
	.byte	W18
	.byte		        Gn3 , v088
	.byte	W06
	.byte		        Gn3 , v036
	.byte	W18
	.byte		        As3 , v088
	.byte	W06
	.byte		        As3 , v036
	.byte	W18
	.byte		        Cs4 , v088
	.byte	W06
	.byte		        Cs4 , v036
	.byte	W06
	.byte	PEND
	.byte		N30   , Dn4 , v096
	.byte	W36
	.byte		N06   , Cs4 
	.byte	W06
	.byte		N18   , Dn4 
	.byte	W18
	.byte		N12   , En4 
	.byte	W12
	.byte		N06   , Dn4 
	.byte	W06
	.byte		N02   , En4 , v048
	.byte	W02
	.byte		        Cs4 , v076
	.byte	W02
	.byte		        Dn4 , v060
	.byte	W02
	.byte		N12   , Cs4 , v096
	.byte	W12
	.byte	PEND
	.byte	PATT
	 .word	seq_039_1 + 0x64
	.byte		N78   , As3 , v096
	.byte	W96
	.byte	PATT
	 .word	seq_039_1 + 0x49
	.byte	W96
	.byte	W96
	.byte	W96
	.byte	W96
	.byte	W48
	.byte		N12   , An3 , v076
	.byte	W12
	.byte		        Cn4 
	.byte	W12
	.byte		        Bn3 
	.byte	W12
	.byte		        Cn4 
	.byte	W12
	.byte		N36   , Ds4 
	.byte	W48
	.byte		N12
	.byte	W12
	.byte		        Fs4 
	.byte	W12
	.byte		        Fn4 
	.byte	W12
	.byte		        Fs4 
	.byte	W12
	.byte	W12
	.byte		N04   , Gn4 
	.byte	W12
	.byte		N04
	.byte	W24
	.byte		N04
	.byte	W12
	.byte		N04
	.byte	W24
	.byte		        Fs4 
	.byte	W12
	.byte	W96
	.byte	W96
	.byte	W96
	.byte	W96
	.byte	W96
	.byte	W96
	.byte	W96
	.byte	W96
	.byte	W96
	.byte	W96
	.byte	W96
	.byte	W96
	.byte	W96
	.byte	GOTO
	 .word	seq_039_1 + 0x20
	.byte	FINE

@*********************** Track 03 ***********************@

seq_039_2:
	.byte	KEYSH , seq_039_key+0
	.byte	W04
	.byte		VOICE , 42
	.byte		VOL   , 56*seq_039_mvl/mxv
	.byte	W01
	.byte		PAN   , c_v+20
	.byte	W19
	.byte	W96
	.byte	W96
	.byte	W96
	.byte	W96
	.byte	W96
	.byte	W96
	.byte	W96
	.byte	W96
	.byte	W96
	.byte	W96
	.byte	W96
	.byte	W96
	.byte	W96
	.byte	W96
	.byte	W96
	.byte	W96
	.byte	W96
	.byte	W96
	.byte	W36
	.byte		N06   , An2 , v112
	.byte	W06
	.byte		N18   , As2 
	.byte	W18
	.byte		N12   , Cn3 
	.byte	W12
	.byte		N06   , As2 
	.byte	W06
	.byte		N02   , Cn3 , v060
	.byte	W02
	.byte		        An2 , v092
	.byte	W02
	.byte		        As2 , v076
	.byte	W02
	.byte		N12   , An2 , v112
	.byte	W12
	.byte	PEND
	.byte	W12
	.byte		N04   , Gn2 , v100
	.byte	W06
	.byte		        Gn2 , v048
	.byte	W18
	.byte		        As2 , v100
	.byte	W06
	.byte		        As2 , v048
	.byte	W18
	.byte		        Cs3 , v100
	.byte	W06
	.byte		        Cs3 , v048
	.byte	W18
	.byte		        En3 , v100
	.byte	W06
	.byte		        En3 , v048
	.byte	W06
	.byte	PEND
	.byte	W96
	.byte	W96
	.byte	PATT
	 .word	seq_039_2 + 0x1D
	.byte	PATT
	 .word	seq_039_2 + 0x3A
	.byte	W96
	.byte	W96
	.byte	W96
	.byte	W96
	.byte	W96
	.byte	W96
	.byte	W96
	.byte	W96
	.byte	W96
	.byte	W96
	.byte	W96
	.byte	W96
	.byte	W96
	.byte	W96
	.byte	W96
	.byte	W96
	.byte	W96
	.byte	W96
	.byte	W96
	.byte	W96
	.byte	GOTO
	 .word	seq_039_2 + 0x17
	.byte	FINE

@*********************** Track 04 ***********************@

seq_039_3:
	.byte	KEYSH , seq_039_key+0
	.byte	W05
	.byte		VOICE , 52
	.byte		VOL   , 46*seq_039_mvl/mxv
	.byte	W01
	.byte		PAN   , c_v-63
	.byte	W18
	.byte	W96
	.byte	W96
	.byte	W96
	.byte	W96
	.byte	W96
	.byte	W96
	.byte	W96
	.byte	W92
	.byte	W03
	.byte		PAN   , c_v-63
	.byte	W01
	.byte	PEND
	.byte	W12
	.byte		N04   , En4 , v092
	.byte	W06
	.byte		        En4 , v052
	.byte	W18
	.byte		        En4 , v092
	.byte	W06
	.byte		        En4 , v052
	.byte	W18
	.byte		        En4 , v092
	.byte	W06
	.byte		        En4 , v052
	.byte	W18
	.byte		        En4 , v092
	.byte	W06
	.byte		        En4 , v052
	.byte	W06
	.byte	PEND
	.byte	PATT
	 .word	seq_039_3 + 0x18
	.byte	W12
	.byte		N04   , Ds4 , v092
	.byte	W06
	.byte		        Ds4 , v052
	.byte	W18
	.byte		        Ds4 , v092
	.byte	W06
	.byte		        Ds4 , v052
	.byte	W18
	.byte		        Ds4 , v092
	.byte	W06
	.byte		        Ds4 , v052
	.byte	W18
	.byte		        Ds4 , v092
	.byte	W06
	.byte		        Ds4 , v052
	.byte	W06
	.byte	PEND
	.byte	PATT
	 .word	seq_039_3 + 0x38
	.byte	PATT
	 .word	seq_039_3 + 0x18
	.byte	PATT
	 .word	seq_039_3 + 0x18
	.byte	PATT
	 .word	seq_039_3 + 0x38
	.byte	W12
	.byte		N04   , Ds4 , v092
	.byte	W06
	.byte		        Ds4 , v052
	.byte	W18
	.byte		        Ds4 , v092
	.byte	W06
	.byte		        Ds4 , v052
	.byte	W18
	.byte		        Ds4 , v092
	.byte	W06
	.byte		        Ds4 , v052
	.byte	W18
	.byte		        Ds4 , v092
	.byte	W06
	.byte		        Ds4 , v052
	.byte	W05
	.byte		PAN   , c_v+0
	.byte	W01
	.byte	W12
	.byte		N04   , Fn4 , v092
	.byte	W06
	.byte		        Fn4 , v052
	.byte	W18
	.byte		        Fn4 , v092
	.byte	W06
	.byte		        Fn4 , v052
	.byte	W18
	.byte		        Fn4 , v092
	.byte	W06
	.byte		        Fn4 , v052
	.byte	W18
	.byte		        Fn4 , v092
	.byte	W06
	.byte		        Fn4 , v052
	.byte	W06
	.byte	PEND
	.byte	PATT
	 .word	seq_039_3 + 0x84
	.byte	PATT
	 .word	seq_039_3 + 0x18
	.byte	PATT
	 .word	seq_039_3 + 0x18
	.byte	PATT
	 .word	seq_039_3 + 0x84
	.byte	PATT
	 .word	seq_039_3 + 0x84
	.byte	PATT
	 .word	seq_039_3 + 0x18
	.byte	PATT
	 .word	seq_039_3 + 0x18
	.byte	PATT
	 .word	seq_039_3 + 0x38
	.byte	PATT
	 .word	seq_039_3 + 0x38
	.byte	W12
	.byte		N04   , Dn4 , v092
	.byte	W06
	.byte		        Dn4 , v052
	.byte	W18
	.byte		        Dn4 , v092
	.byte	W06
	.byte		        Dn4 , v052
	.byte	W18
	.byte		        Dn4 , v092
	.byte	W06
	.byte		        Dn4 , v052
	.byte	W18
	.byte		        Dn4 , v092
	.byte	W06
	.byte		        Dn4 , v052
	.byte	W06
	.byte	PEND
	.byte	PATT
	 .word	seq_039_3 + 0xCC
	.byte	PATT
	 .word	seq_039_3 + 0x38
	.byte	PATT
	 .word	seq_039_3 + 0x38
	.byte	W12
	.byte		N04   , En4 , v092
	.byte	W06
	.byte		        En4 , v052
	.byte	W06
	.byte		        En4 , v092
	.byte	W06
	.byte		        En4 , v052
	.byte	W18
	.byte		        En4 , v092
	.byte	W06
	.byte		        En4 , v052
	.byte	W06
	.byte		        En4 , v092
	.byte	W06
	.byte		        En4 , v052
	.byte	W18
	.byte		        Dn4 , v092
	.byte	W06
	.byte		        Dn4 , v052
	.byte	W06
	.byte	W96
	.byte	W96
	.byte	W96
	.byte	W96
	.byte	W96
	.byte	W96
	.byte	W96
	.byte	W96
	.byte	PATT
	 .word	seq_039_3 + 0x12
	.byte	PATT
	 .word	seq_039_3 + 0x18
	.byte	PATT
	 .word	seq_039_3 + 0x18
	.byte	PATT
	 .word	seq_039_3 + 0x38
	.byte	PATT
	 .word	seq_039_3 + 0x38
	.byte	GOTO
	 .word	seq_039_3 + 0x58
	.byte	FINE

@*********************** Track 05 ***********************@

seq_039_4:
	.byte	KEYSH , seq_039_key+0
	.byte	W06
	.byte		VOICE , 53
	.byte		VOL   , 46*seq_039_mvl/mxv
	.byte	W01
	.byte		PAN   , c_v+63
	.byte	W17
	.byte	W96
	.byte	W96
	.byte	W96
	.byte	W96
	.byte	W96
	.byte	W96
	.byte	W96
	.byte	W92
	.byte	W03
	.byte		PAN   , c_v+63
	.byte	W01
	.byte	PEND
	.byte	W12
	.byte		N04   , Cs4 , v092
	.byte	W06
	.byte		        Cs4 , v052
	.byte	W18
	.byte		        Cs4 , v092
	.byte	W06
	.byte		        Cs4 , v052
	.byte	W18
	.byte		        Cs4 , v092
	.byte	W06
	.byte		        Cs4 , v052
	.byte	W18
	.byte		        Cs4 , v092
	.byte	W06
	.byte		        Cs4 , v052
	.byte	W06
	.byte	PEND
	.byte	PATT
	 .word	seq_039_4 + 0x18
	.byte	W12
	.byte		N04   , Cn4 , v092
	.byte	W06
	.byte		        Cn4 , v052
	.byte	W18
	.byte		        Cn4 , v092
	.byte	W06
	.byte		        Cn4 , v052
	.byte	W18
	.byte		        Cn4 , v092
	.byte	W06
	.byte		        Cn4 , v052
	.byte	W18
	.byte		        Cn4 , v092
	.byte	W06
	.byte		        Cn4 , v052
	.byte	W06
	.byte	PEND
	.byte	PATT
	 .word	seq_039_4 + 0x38
	.byte	PATT
	 .word	seq_039_4 + 0x18
	.byte	PATT
	 .word	seq_039_4 + 0x18
	.byte	PATT
	 .word	seq_039_4 + 0x38
	.byte	W12
	.byte		N04   , Cn4 , v092
	.byte	W06
	.byte		        Cn4 , v052
	.byte	W18
	.byte		        Cn4 , v092
	.byte	W06
	.byte		        Cn4 , v052
	.byte	W18
	.byte		        Cn4 , v092
	.byte	W06
	.byte		        Cn4 , v052
	.byte	W18
	.byte		        Cn4 , v092
	.byte	W06
	.byte		        Cn4 , v052
	.byte	W05
	.byte		PAN   , c_v+0
	.byte	W01
	.byte	W12
	.byte		N04   , Dn4 , v092
	.byte	W06
	.byte		        Dn4 , v052
	.byte	W18
	.byte		        Dn4 , v092
	.byte	W06
	.byte		        Dn4 , v052
	.byte	W18
	.byte		        Dn4 , v092
	.byte	W06
	.byte		        Dn4 , v052
	.byte	W18
	.byte		        Dn4 , v092
	.byte	W06
	.byte		        Dn4 , v052
	.byte	W06
	.byte	PEND
	.byte	PATT
	 .word	seq_039_4 + 0x84
	.byte	PATT
	 .word	seq_039_4 + 0x18
	.byte	PATT
	 .word	seq_039_4 + 0x18
	.byte	PATT
	 .word	seq_039_4 + 0x84
	.byte	PATT
	 .word	seq_039_4 + 0x84
	.byte	PATT
	 .word	seq_039_4 + 0x18
	.byte	PATT
	 .word	seq_039_4 + 0x18
	.byte	PATT
	 .word	seq_039_4 + 0x38
	.byte	PATT
	 .word	seq_039_4 + 0x38
	.byte	W12
	.byte		N04   , Bn3 , v092
	.byte	W06
	.byte		        Bn3 , v052
	.byte	W18
	.byte		        Bn3 , v092
	.byte	W06
	.byte		        Bn3 , v052
	.byte	W18
	.byte		        Bn3 , v092
	.byte	W06
	.byte		        Bn3 , v052
	.byte	W18
	.byte		        Bn3 , v092
	.byte	W06
	.byte		        Bn3 , v052
	.byte	W06
	.byte	PEND
	.byte	PATT
	 .word	seq_039_4 + 0xCC
	.byte	PATT
	 .word	seq_039_4 + 0x38
	.byte	PATT
	 .word	seq_039_4 + 0x38
	.byte	W12
	.byte		N04   , Cs4 , v092
	.byte	W06
	.byte		        Cs4 , v052
	.byte	W06
	.byte		        Cs4 , v092
	.byte	W06
	.byte		        Cs4 , v052
	.byte	W18
	.byte		        Cs4 , v092
	.byte	W06
	.byte		        Cs4 , v052
	.byte	W06
	.byte		        Cs4 , v092
	.byte	W06
	.byte		        Cs4 , v052
	.byte	W18
	.byte		        Cn4 , v092
	.byte	W06
	.byte		        Cn4 , v052
	.byte	W06
	.byte	W96
	.byte	W96
	.byte	W96
	.byte	W96
	.byte	W96
	.byte	W96
	.byte	W96
	.byte	W96
	.byte	PATT
	 .word	seq_039_4 + 0x12
	.byte	PATT
	 .word	seq_039_4 + 0x18
	.byte	PATT
	 .word	seq_039_4 + 0x18
	.byte	PATT
	 .word	seq_039_4 + 0x38
	.byte	PATT
	 .word	seq_039_4 + 0x38
	.byte	GOTO
	 .word	seq_039_4 + 0x58
	.byte	FINE

@*********************** Track 06 ***********************@

seq_039_5:
	.byte	KEYSH , seq_039_key+0
	.byte	W07
	.byte		VOICE , 95
	.byte		VOL   , 42*seq_039_mvl/mxv
	.byte	W17
	.byte	W96
	.byte	W96
	.byte	W96
	.byte	W96
	.byte	W96
	.byte	W96
	.byte	W96
	.byte	W96
	.byte	W96
	.byte	W96
	.byte	W96
	.byte	W96
	.byte	W96
	.byte	W96
	.byte	W96
	.byte	W96
	.byte	W96
	.byte	W96
	.byte	W96
	.byte	W96
	.byte	W96
	.byte	W96
	.byte	W92
	.byte	W03
	.byte		VOICE , 118
	.byte		PAN   , c_v+0
	.byte		LFOS  , 31
	.byte	W01
	.byte		MOD   , 70
	.byte		MODT  , mod_tre
	.byte	W96
	.byte		N12   , An3 , v120
	.byte	W12
	.byte		        Cn4 
	.byte	W12
	.byte		        Bn3 
	.byte	W12
	.byte		        Cn4 
	.byte	W12
	.byte		N36   , Ds4 
	.byte	W36
	.byte		N04   , Cs4 
	.byte	W04
	.byte		        Dn4 
	.byte	W04
	.byte		        Cs4 
	.byte	W04
	.byte		N78   , Cn4 
	.byte	W96
	.byte		N12   , Gs3 
	.byte	W12
	.byte		        Bn3 
	.byte	W12
	.byte		        As3 
	.byte	W12
	.byte		        Bn3 
	.byte	W12
	.byte		N36   , Dn4 
	.byte	W36
	.byte		N04   , Cn4 
	.byte	W04
	.byte		        Cs4 
	.byte	W04
	.byte		        Cn4 
	.byte	W04
	.byte		N78   , Bn3 
	.byte	W96
	.byte		N12   , An3 
	.byte	W12
	.byte		        Cn4 
	.byte	W12
	.byte		        Bn3 
	.byte	W12
	.byte		        Cn4 
	.byte	W12
	.byte		N36   , Ds4 
	.byte	W48
	.byte		N12
	.byte	W12
	.byte		        Fs4 
	.byte	W12
	.byte		        Fn4 
	.byte	W12
	.byte		        Fs4 
	.byte	W12
	.byte		N36   , An4 
	.byte	W48
	.byte	W12
	.byte		N04   , As4 
	.byte	W12
	.byte		N04
	.byte	W24
	.byte		N04
	.byte	W12
	.byte		N04
	.byte	W24
	.byte		        An4 
	.byte	W12
	.byte	W96
	.byte	W96
	.byte	W96
	.byte	W96
	.byte	W96
	.byte	W96
	.byte	W96
	.byte	W96
	.byte	W96
	.byte	W96
	.byte	W96
	.byte	W96
	.byte	W96
	.byte	GOTO
	 .word	seq_039_5 + 0x14
	.byte	FINE

@*********************** Track 07 ***********************@

seq_039_6:
	.byte	KEYSH , seq_039_key+0
	.byte	W08
	.byte		VOICE , 24
	.byte		MOD   , 40
	.byte	W01
	.byte		VOL   , 0*seq_039_mvl/mxv
	.byte		PAN   , c_v-20
	.byte		LFOS  , 30
	.byte	W01
	.byte		MODT  , mod_pan
	.byte	W13
	.byte		VOL   , 0*seq_039_mvl/mxv
	.byte	W01
	.byte		VOL   , 2*seq_039_mvl/mxv
	.byte		TIE   , En4 , v100
	.byte	W04
	.byte		VOL   , 4*seq_039_mvl/mxv
	.byte	W03
	.byte		        5*seq_039_mvl/mxv
	.byte	W03
	.byte		        7*seq_039_mvl/mxv
	.byte	W02
	.byte		        7*seq_039_mvl/mxv
	.byte	W03
	.byte		        9*seq_039_mvl/mxv
	.byte	W02
	.byte		        10*seq_039_mvl/mxv
	.byte	W03
	.byte		        12*seq_039_mvl/mxv
	.byte	W02
	.byte		        12*seq_039_mvl/mxv
	.byte	W03
	.byte		        14*seq_039_mvl/mxv
	.byte	W02
	.byte		        14*seq_039_mvl/mxv
	.byte	W03
	.byte		        16*seq_039_mvl/mxv
	.byte	W02
	.byte		        17*seq_039_mvl/mxv
	.byte	W03
	.byte		        17*seq_039_mvl/mxv
	.byte	W05
	.byte		        19*seq_039_mvl/mxv
	.byte	W03
	.byte		        20*seq_039_mvl/mxv
	.byte	W02
	.byte		        21*seq_039_mvl/mxv
	.byte	W02
	.byte		        21*seq_039_mvl/mxv
	.byte	W03
	.byte		        23*seq_039_mvl/mxv
	.byte	W02
	.byte		        24*seq_039_mvl/mxv
	.byte	W02
	.byte		        24*seq_039_mvl/mxv
	.byte	W02
	.byte		        25*seq_039_mvl/mxv
	.byte	W03
	.byte		        26*seq_039_mvl/mxv
	.byte	W02
	.byte		        26*seq_039_mvl/mxv
	.byte	W02
	.byte		        27*seq_039_mvl/mxv
	.byte	W03
	.byte		        29*seq_039_mvl/mxv
	.byte	W02
	.byte		        29*seq_039_mvl/mxv
	.byte	W02
	.byte		        30*seq_039_mvl/mxv
	.byte	W04
	.byte		        31*seq_039_mvl/mxv
	.byte	W03
	.byte		        33*seq_039_mvl/mxv
	.byte	W03
	.byte		        34*seq_039_mvl/mxv
	.byte	W03
	.byte		        35*seq_039_mvl/mxv
	.byte	W03
	.byte		        36*seq_039_mvl/mxv
	.byte	W03
	.byte		        37*seq_039_mvl/mxv
	.byte	W02
	.byte		        38*seq_039_mvl/mxv
	.byte	W03
	.byte		        38*seq_039_mvl/mxv
	.byte	W02
	.byte	PEND
	.byte	W01
	.byte		VOL   , 40*seq_039_mvl/mxv
	.byte	W03
	.byte		        40*seq_039_mvl/mxv
	.byte	W03
	.byte		        43*seq_039_mvl/mxv
	.byte	W03
	.byte		        46*seq_039_mvl/mxv
	.byte	W02
	.byte		        47*seq_039_mvl/mxv
	.byte	W03
	.byte		        49*seq_039_mvl/mxv
	.byte	W03
	.byte		        52*seq_039_mvl/mxv
	.byte	W03
	.byte		        54*seq_039_mvl/mxv
	.byte	W03
	.byte		        53*seq_039_mvl/mxv
	.byte	W03
	.byte		        53*seq_039_mvl/mxv
	.byte	W02
	.byte		        53*seq_039_mvl/mxv
	.byte	W03
	.byte		        52*seq_039_mvl/mxv
	.byte	W03
	.byte		        52*seq_039_mvl/mxv
	.byte	W03
	.byte		        51*seq_039_mvl/mxv
	.byte	W03
	.byte		        51*seq_039_mvl/mxv
	.byte	W03
	.byte		        48*seq_039_mvl/mxv
	.byte	W02
	.byte		        47*seq_039_mvl/mxv
	.byte	W03
	.byte		        46*seq_039_mvl/mxv
	.byte	W03
	.byte		        43*seq_039_mvl/mxv
	.byte	W03
	.byte		        42*seq_039_mvl/mxv
	.byte	W03
	.byte		        41*seq_039_mvl/mxv
	.byte	W03
	.byte		        38*seq_039_mvl/mxv
	.byte	W02
	.byte		        38*seq_039_mvl/mxv
	.byte	W03
	.byte		        36*seq_039_mvl/mxv
	.byte	W03
	.byte		        34*seq_039_mvl/mxv
	.byte	W03
	.byte		        32*seq_039_mvl/mxv
	.byte	W03
	.byte		        31*seq_039_mvl/mxv
	.byte	W03
	.byte		        29*seq_039_mvl/mxv
	.byte	W05
	.byte		        22*seq_039_mvl/mxv
	.byte	W01
	.byte		        21*seq_039_mvl/mxv
	.byte	W01
	.byte		        19*seq_039_mvl/mxv
	.byte	W01
	.byte		        18*seq_039_mvl/mxv
	.byte	W01
	.byte		        17*seq_039_mvl/mxv
	.byte	W01
	.byte		        15*seq_039_mvl/mxv
	.byte	W01
	.byte		        14*seq_039_mvl/mxv
	.byte	W01
	.byte		        12*seq_039_mvl/mxv
	.byte	W01
	.byte		        11*seq_039_mvl/mxv
	.byte	W01
	.byte		        9*seq_039_mvl/mxv
	.byte	W01
	.byte		        8*seq_039_mvl/mxv
	.byte	W01
	.byte		        6*seq_039_mvl/mxv
	.byte	W01
	.byte		        0*seq_039_mvl/mxv
	.byte	W01
	.byte	PEND
	.byte		EOT   , En4 
	.byte		VOL   , 2*seq_039_mvl/mxv
	.byte		TIE   , Ds4 , v100
	.byte	W04
	.byte		VOL   , 4*seq_039_mvl/mxv
	.byte	W03
	.byte		        5*seq_039_mvl/mxv
	.byte	W03
	.byte		        7*seq_039_mvl/mxv
	.byte	W02
	.byte		        7*seq_039_mvl/mxv
	.byte	W03
	.byte		        9*seq_039_mvl/mxv
	.byte	W02
	.byte		        10*seq_039_mvl/mxv
	.byte	W03
	.byte		        12*seq_039_mvl/mxv
	.byte	W02
	.byte		        12*seq_039_mvl/mxv
	.byte	W03
	.byte		        14*seq_039_mvl/mxv
	.byte	W02
	.byte		        14*seq_039_mvl/mxv
	.byte	W03
	.byte		        16*seq_039_mvl/mxv
	.byte	W02
	.byte		        17*seq_039_mvl/mxv
	.byte	W03
	.byte		        17*seq_039_mvl/mxv
	.byte	W05
	.byte		        19*seq_039_mvl/mxv
	.byte	W03
	.byte		        20*seq_039_mvl/mxv
	.byte	W02
	.byte		        21*seq_039_mvl/mxv
	.byte	W02
	.byte		        21*seq_039_mvl/mxv
	.byte	W03
	.byte		        23*seq_039_mvl/mxv
	.byte	W02
	.byte		        24*seq_039_mvl/mxv
	.byte	W02
	.byte		        24*seq_039_mvl/mxv
	.byte	W02
	.byte		        25*seq_039_mvl/mxv
	.byte	W03
	.byte		        26*seq_039_mvl/mxv
	.byte	W02
	.byte		        26*seq_039_mvl/mxv
	.byte	W02
	.byte		        27*seq_039_mvl/mxv
	.byte	W03
	.byte		        29*seq_039_mvl/mxv
	.byte	W02
	.byte		        29*seq_039_mvl/mxv
	.byte	W02
	.byte		        30*seq_039_mvl/mxv
	.byte	W04
	.byte		        31*seq_039_mvl/mxv
	.byte	W03
	.byte		        33*seq_039_mvl/mxv
	.byte	W03
	.byte		        34*seq_039_mvl/mxv
	.byte	W03
	.byte		        35*seq_039_mvl/mxv
	.byte	W03
	.byte		        36*seq_039_mvl/mxv
	.byte	W03
	.byte		        37*seq_039_mvl/mxv
	.byte	W02
	.byte		        38*seq_039_mvl/mxv
	.byte	W03
	.byte		        38*seq_039_mvl/mxv
	.byte	W02
	.byte	PEND
	.byte	PATT
	 .word	seq_039_6 + 0x63
	.byte		EOT   , Ds4 
	.byte	PATT
	 .word	seq_039_6 + 0x15
	.byte	PATT
	 .word	seq_039_6 + 0x63
	.byte		EOT   , En4 
	.byte	PATT
	 .word	seq_039_6 + 0xBA
	.byte	W01
	.byte		VOL   , 40*seq_039_mvl/mxv
	.byte	W03
	.byte		        40*seq_039_mvl/mxv
	.byte	W03
	.byte		        43*seq_039_mvl/mxv
	.byte	W03
	.byte		        46*seq_039_mvl/mxv
	.byte	W02
	.byte		        47*seq_039_mvl/mxv
	.byte	W03
	.byte		        49*seq_039_mvl/mxv
	.byte	W03
	.byte		        52*seq_039_mvl/mxv
	.byte	W03
	.byte		        54*seq_039_mvl/mxv
	.byte	W03
	.byte		        53*seq_039_mvl/mxv
	.byte	W03
	.byte		        53*seq_039_mvl/mxv
	.byte	W02
	.byte		        53*seq_039_mvl/mxv
	.byte	W03
	.byte		        52*seq_039_mvl/mxv
	.byte	W03
	.byte		        52*seq_039_mvl/mxv
	.byte	W03
	.byte		        51*seq_039_mvl/mxv
	.byte	W03
	.byte		        51*seq_039_mvl/mxv
	.byte	W03
	.byte		        48*seq_039_mvl/mxv
	.byte	W02
	.byte		        47*seq_039_mvl/mxv
	.byte	W03
	.byte		        46*seq_039_mvl/mxv
	.byte	W03
	.byte		        43*seq_039_mvl/mxv
	.byte	W03
	.byte		        42*seq_039_mvl/mxv
	.byte	W03
	.byte		        41*seq_039_mvl/mxv
	.byte	W03
	.byte		        38*seq_039_mvl/mxv
	.byte	W02
	.byte		        38*seq_039_mvl/mxv
	.byte	W03
	.byte		        36*seq_039_mvl/mxv
	.byte	W03
	.byte		        34*seq_039_mvl/mxv
	.byte	W03
	.byte		        32*seq_039_mvl/mxv
	.byte	W03
	.byte		        31*seq_039_mvl/mxv
	.byte	W03
	.byte		        29*seq_039_mvl/mxv
	.byte	W05
	.byte		        22*seq_039_mvl/mxv
	.byte	W01
	.byte		        21*seq_039_mvl/mxv
	.byte	W01
	.byte		        19*seq_039_mvl/mxv
	.byte	W01
	.byte		        18*seq_039_mvl/mxv
	.byte	W01
	.byte		        17*seq_039_mvl/mxv
	.byte	W01
	.byte		        15*seq_039_mvl/mxv
	.byte	W01
	.byte		        14*seq_039_mvl/mxv
	.byte	W01
	.byte		        12*seq_039_mvl/mxv
	.byte	W01
	.byte		        11*seq_039_mvl/mxv
	.byte	W01
	.byte		        9*seq_039_mvl/mxv
	.byte	W01
	.byte		        8*seq_039_mvl/mxv
	.byte	W01
	.byte		        6*seq_039_mvl/mxv
	.byte	W02
	.byte	PEND
	.byte		EOT   , Ds4 
	.byte	W12
	.byte		N02   , Cs3 , v112
	.byte	W06
	.byte		        Cs3 , v020
	.byte	W05
	.byte		VOICE , 95
	.byte		VOL   , 53*seq_039_mvl/mxv
	.byte	W13
	.byte		N02   , Cs3 , v112
	.byte	W06
	.byte		        Cs3 , v020
	.byte	W18
	.byte		        Cs3 , v112
	.byte	W06
	.byte		        Cs3 , v020
	.byte	W18
	.byte		        Cs3 , v112
	.byte	W06
	.byte		        Cs3 , v020
	.byte	W06
	.byte	PEND
	.byte	W12
	.byte		N02   , Cs3 , v112
	.byte	W06
	.byte		        Cs3 , v020
	.byte	W18
	.byte		        Cs3 , v112
	.byte	W06
	.byte		        Cs3 , v020
	.byte	W18
	.byte		        Cs3 , v112
	.byte	W06
	.byte		        Cs3 , v020
	.byte	W18
	.byte		        Cs3 , v112
	.byte	W06
	.byte		        Cs3 , v020
	.byte	W06
	.byte	PEND
	.byte	W12
	.byte		N02   , Cn3 , v112
	.byte	W06
	.byte		        Cn3 , v020
	.byte	W18
	.byte		        Cn3 , v112
	.byte	W06
	.byte		        Cn3 , v020
	.byte	W18
	.byte		        Cn3 , v112
	.byte	W06
	.byte		        Cn3 , v020
	.byte	W18
	.byte		        Cn3 , v112
	.byte	W06
	.byte		        Cn3 , v020
	.byte	W06
	.byte	PEND
	.byte	PATT
	 .word	seq_039_6 + 0x1B1
	.byte	PATT
	 .word	seq_039_6 + 0x196
	.byte	PATT
	 .word	seq_039_6 + 0x196
	.byte	PATT
	 .word	seq_039_6 + 0x1B1
	.byte	PATT
	 .word	seq_039_6 + 0x1B1
	.byte		TIE   , Dn2 , v076
	.byte	W96
	.byte	W96
	.byte		EOT
	.byte		N96   , Cs2 
	.byte	W96
	.byte		N12   , En1 
	.byte	W24
	.byte		        Gn1 
	.byte	W24
	.byte		        As1 
	.byte	W12
	.byte		        En1 , v032
	.byte	W12
	.byte		        Cs2 , v076
	.byte	W12
	.byte		        Gn1 , v032
	.byte	W12
	.byte		TIE   , Dn2 , v076
	.byte	W96
	.byte	W96
	.byte		EOT
	.byte		N96   , Cs2 
	.byte	W96
	.byte		N12   , En1 
	.byte	W24
	.byte		        Gn1 
	.byte	W24
	.byte		        As1 
	.byte	W12
	.byte		        En1 , v032
	.byte	W12
	.byte		        Cs2 , v076
	.byte	W12
	.byte		        Gn1 , v032
	.byte	W11
	.byte		VOICE , 24
	.byte		VOL   , 19*seq_039_mvl/mxv
	.byte	W01
	.byte		N48   , Cn4 , v076
	.byte	W01
	.byte		VOL   , 24*seq_039_mvl/mxv
	.byte	W02
	.byte		        29*seq_039_mvl/mxv
	.byte	W02
	.byte		        33*seq_039_mvl/mxv
	.byte	W03
	.byte		        40*seq_039_mvl/mxv
	.byte	W02
	.byte		        46*seq_039_mvl/mxv
	.byte	W02
	.byte		        49*seq_039_mvl/mxv
	.byte	W36
	.byte		N48   , Ds4 
	.byte	W48
	.byte	PEND
	.byte		        Fs4 
	.byte	W32
	.byte		VOL   , 52*seq_039_mvl/mxv
	.byte	W03
	.byte		        52*seq_039_mvl/mxv
	.byte	W03
	.byte		        51*seq_039_mvl/mxv
	.byte	W03
	.byte		        51*seq_039_mvl/mxv
	.byte	W03
	.byte		        48*seq_039_mvl/mxv
	.byte	W02
	.byte		        47*seq_039_mvl/mxv
	.byte	W02
	.byte		N48   , An4 
	.byte	W01
	.byte		VOL   , 46*seq_039_mvl/mxv
	.byte	W03
	.byte		        43*seq_039_mvl/mxv
	.byte	W03
	.byte		        42*seq_039_mvl/mxv
	.byte	W03
	.byte		        41*seq_039_mvl/mxv
	.byte	W03
	.byte		        38*seq_039_mvl/mxv
	.byte	W02
	.byte		        38*seq_039_mvl/mxv
	.byte	W03
	.byte		        36*seq_039_mvl/mxv
	.byte	W03
	.byte		        34*seq_039_mvl/mxv
	.byte	W03
	.byte		        32*seq_039_mvl/mxv
	.byte	W03
	.byte		        31*seq_039_mvl/mxv
	.byte	W03
	.byte		        29*seq_039_mvl/mxv
	.byte	W05
	.byte		        22*seq_039_mvl/mxv
	.byte	W01
	.byte		        21*seq_039_mvl/mxv
	.byte	W01
	.byte		        19*seq_039_mvl/mxv
	.byte	W01
	.byte		        18*seq_039_mvl/mxv
	.byte	W01
	.byte		        17*seq_039_mvl/mxv
	.byte	W01
	.byte		        15*seq_039_mvl/mxv
	.byte	W01
	.byte		        14*seq_039_mvl/mxv
	.byte	W01
	.byte		        12*seq_039_mvl/mxv
	.byte	W01
	.byte		        11*seq_039_mvl/mxv
	.byte	W01
	.byte		        9*seq_039_mvl/mxv
	.byte	W01
	.byte		        8*seq_039_mvl/mxv
	.byte	W01
	.byte		        6*seq_039_mvl/mxv
	.byte	W01
	.byte		        19*seq_039_mvl/mxv
	.byte	W01
	.byte		N48   , Bn3 
	.byte	W01
	.byte		VOL   , 24*seq_039_mvl/mxv
	.byte	W02
	.byte		        29*seq_039_mvl/mxv
	.byte	W02
	.byte		        33*seq_039_mvl/mxv
	.byte	W03
	.byte		        40*seq_039_mvl/mxv
	.byte	W02
	.byte		        46*seq_039_mvl/mxv
	.byte	W02
	.byte		        49*seq_039_mvl/mxv
	.byte	W36
	.byte		N48   , Dn4 
	.byte	W48
	.byte		        Fn4 
	.byte	W32
	.byte		VOL   , 52*seq_039_mvl/mxv
	.byte	W03
	.byte		        52*seq_039_mvl/mxv
	.byte	W03
	.byte		        51*seq_039_mvl/mxv
	.byte	W03
	.byte		        51*seq_039_mvl/mxv
	.byte	W03
	.byte		        48*seq_039_mvl/mxv
	.byte	W02
	.byte		        47*seq_039_mvl/mxv
	.byte	W02
	.byte		N48   , Gs4 
	.byte	W01
	.byte		VOL   , 46*seq_039_mvl/mxv
	.byte	W03
	.byte		        43*seq_039_mvl/mxv
	.byte	W03
	.byte		        42*seq_039_mvl/mxv
	.byte	W03
	.byte		        41*seq_039_mvl/mxv
	.byte	W03
	.byte		        38*seq_039_mvl/mxv
	.byte	W02
	.byte		        38*seq_039_mvl/mxv
	.byte	W03
	.byte		        36*seq_039_mvl/mxv
	.byte	W03
	.byte		        34*seq_039_mvl/mxv
	.byte	W03
	.byte		        32*seq_039_mvl/mxv
	.byte	W03
	.byte		        31*seq_039_mvl/mxv
	.byte	W03
	.byte		        29*seq_039_mvl/mxv
	.byte	W05
	.byte		        22*seq_039_mvl/mxv
	.byte	W01
	.byte		        21*seq_039_mvl/mxv
	.byte	W01
	.byte		        19*seq_039_mvl/mxv
	.byte	W01
	.byte		        18*seq_039_mvl/mxv
	.byte	W01
	.byte		        17*seq_039_mvl/mxv
	.byte	W01
	.byte		        15*seq_039_mvl/mxv
	.byte	W01
	.byte		        14*seq_039_mvl/mxv
	.byte	W01
	.byte		        12*seq_039_mvl/mxv
	.byte	W01
	.byte		        11*seq_039_mvl/mxv
	.byte	W01
	.byte		        9*seq_039_mvl/mxv
	.byte	W01
	.byte		        8*seq_039_mvl/mxv
	.byte	W01
	.byte		        6*seq_039_mvl/mxv
	.byte	W01
	.byte		        19*seq_039_mvl/mxv
	.byte	W01
	.byte	PATT
	 .word	seq_039_6 + 0x21C
	.byte		N48   , Fs4 , v076
	.byte	W32
	.byte		VOL   , 52*seq_039_mvl/mxv
	.byte	W03
	.byte		        52*seq_039_mvl/mxv
	.byte	W03
	.byte		        51*seq_039_mvl/mxv
	.byte	W03
	.byte		        51*seq_039_mvl/mxv
	.byte	W03
	.byte		        48*seq_039_mvl/mxv
	.byte	W02
	.byte		        47*seq_039_mvl/mxv
	.byte	W02
	.byte		N48   , An4 
	.byte	W01
	.byte		VOL   , 46*seq_039_mvl/mxv
	.byte	W03
	.byte		        43*seq_039_mvl/mxv
	.byte	W03
	.byte		        42*seq_039_mvl/mxv
	.byte	W03
	.byte		        41*seq_039_mvl/mxv
	.byte	W03
	.byte		        38*seq_039_mvl/mxv
	.byte	W02
	.byte		        38*seq_039_mvl/mxv
	.byte	W03
	.byte		        36*seq_039_mvl/mxv
	.byte	W03
	.byte		        34*seq_039_mvl/mxv
	.byte	W03
	.byte		        32*seq_039_mvl/mxv
	.byte	W03
	.byte		        31*seq_039_mvl/mxv
	.byte	W03
	.byte		        29*seq_039_mvl/mxv
	.byte	W05
	.byte		        22*seq_039_mvl/mxv
	.byte	W01
	.byte		        21*seq_039_mvl/mxv
	.byte	W01
	.byte		        19*seq_039_mvl/mxv
	.byte	W01
	.byte		        18*seq_039_mvl/mxv
	.byte	W01
	.byte		        17*seq_039_mvl/mxv
	.byte	W01
	.byte		        15*seq_039_mvl/mxv
	.byte	W01
	.byte		        14*seq_039_mvl/mxv
	.byte	W01
	.byte		        12*seq_039_mvl/mxv
	.byte	W01
	.byte		        11*seq_039_mvl/mxv
	.byte	W01
	.byte		        9*seq_039_mvl/mxv
	.byte	W01
	.byte		        8*seq_039_mvl/mxv
	.byte	W01
	.byte		        6*seq_039_mvl/mxv
	.byte	W02
	.byte	W05
	.byte		VOICE , 95
	.byte		VOL   , 53*seq_039_mvl/mxv
	.byte	W07
	.byte		N04   , As2 , v112
	.byte	W06
	.byte		        As2 , v020
	.byte	W06
	.byte		        As2 , v112
	.byte	W06
	.byte		        As2 , v020
	.byte	W18
	.byte		        As2 , v112
	.byte	W06
	.byte		        As2 , v020
	.byte	W06
	.byte		        As2 , v112
	.byte	W06
	.byte		        As2 , v020
	.byte	W18
	.byte		        An2 , v112
	.byte	W06
	.byte		        An2 , v020
	.byte	W05
	.byte		VOICE , 95
	.byte		VOL   , 77*seq_039_mvl/mxv
	.byte		PAN   , c_v+0
	.byte	W01
	.byte	W48
	.byte		N02   , An4 , v100
	.byte	W06
	.byte		        Ds4 , v040
	.byte	W06
	.byte		        Fs4 , v060
	.byte	W06
	.byte		        Cn4 , v032
	.byte	W06
	.byte		        Ds4 , v100
	.byte	W06
	.byte		        An3 , v040
	.byte	W06
	.byte		        Cn4 , v060
	.byte	W06
	.byte		        Fs3 , v032
	.byte	W05
	.byte		VOICE , 24
	.byte		VOL   , 0*seq_039_mvl/mxv
	.byte		PAN   , c_v-20
	.byte	W01
	.byte	PATT
	 .word	seq_039_6 + 0x15
	.byte	PATT
	 .word	seq_039_6 + 0x63
	.byte		EOT   , En4 
	.byte	PATT
	 .word	seq_039_6 + 0xBA
	.byte	PATT
	 .word	seq_039_6 + 0x63
	.byte		EOT   , Ds4 
	.byte	PATT
	 .word	seq_039_6 + 0x15
	.byte	PATT
	 .word	seq_039_6 + 0x63
	.byte		EOT   , En4 
	.byte	PATT
	 .word	seq_039_6 + 0xBA
	.byte	PATT
	 .word	seq_039_6 + 0x120
	.byte		EOT   , Ds4 
	.byte	PATT
	 .word	seq_039_6 + 0x175
	.byte	PATT
	 .word	seq_039_6 + 0x196
	.byte	PATT
	 .word	seq_039_6 + 0x1B1
	.byte	PATT
	 .word	seq_039_6 + 0x1B1
	.byte	GOTO
	 .word	seq_039_6 + 0x1D1
	.byte	FINE

@*********************** Track 08 ***********************@

seq_039_7:
	.byte	KEYSH , seq_039_key+0
	.byte	W11
	.byte		VOICE , 24
	.byte		MOD   , 40
	.byte		VOL   , 0*seq_039_mvl/mxv
	.byte	W01
	.byte		PAN   , c_v+20
	.byte		LFOS  , 30
	.byte		MODT  , mod_pan
	.byte	W11
	.byte		VOL   , 0*seq_039_mvl/mxv
	.byte	W01
	.byte		VOL   , 2*seq_039_mvl/mxv
	.byte		TIE   , Cs4 , v100
	.byte	W04
	.byte		VOL   , 4*seq_039_mvl/mxv
	.byte	W03
	.byte		        5*seq_039_mvl/mxv
	.byte	W03
	.byte		        7*seq_039_mvl/mxv
	.byte	W02
	.byte		        7*seq_039_mvl/mxv
	.byte	W03
	.byte		        9*seq_039_mvl/mxv
	.byte	W02
	.byte		        10*seq_039_mvl/mxv
	.byte	W03
	.byte		        12*seq_039_mvl/mxv
	.byte	W02
	.byte		        12*seq_039_mvl/mxv
	.byte	W03
	.byte		        14*seq_039_mvl/mxv
	.byte	W02
	.byte		        14*seq_039_mvl/mxv
	.byte	W03
	.byte		        16*seq_039_mvl/mxv
	.byte	W02
	.byte		        17*seq_039_mvl/mxv
	.byte	W03
	.byte		        17*seq_039_mvl/mxv
	.byte	W05
	.byte		        19*seq_039_mvl/mxv
	.byte	W03
	.byte		        20*seq_039_mvl/mxv
	.byte	W02
	.byte		        21*seq_039_mvl/mxv
	.byte	W02
	.byte		        21*seq_039_mvl/mxv
	.byte	W03
	.byte		        23*seq_039_mvl/mxv
	.byte	W02
	.byte		        24*seq_039_mvl/mxv
	.byte	W02
	.byte		        24*seq_039_mvl/mxv
	.byte	W02
	.byte		        25*seq_039_mvl/mxv
	.byte	W03
	.byte		        26*seq_039_mvl/mxv
	.byte	W02
	.byte		        26*seq_039_mvl/mxv
	.byte	W02
	.byte		        27*seq_039_mvl/mxv
	.byte	W03
	.byte		        29*seq_039_mvl/mxv
	.byte	W02
	.byte		        29*seq_039_mvl/mxv
	.byte	W02
	.byte		        30*seq_039_mvl/mxv
	.byte	W04
	.byte		        31*seq_039_mvl/mxv
	.byte	W03
	.byte		        33*seq_039_mvl/mxv
	.byte	W03
	.byte		        34*seq_039_mvl/mxv
	.byte	W03
	.byte		        35*seq_039_mvl/mxv
	.byte	W03
	.byte		        36*seq_039_mvl/mxv
	.byte	W03
	.byte		        37*seq_039_mvl/mxv
	.byte	W02
	.byte		        38*seq_039_mvl/mxv
	.byte	W03
	.byte		        38*seq_039_mvl/mxv
	.byte	W02
	.byte	PEND
	.byte	W01
	.byte		VOL   , 40*seq_039_mvl/mxv
	.byte	W03
	.byte		        40*seq_039_mvl/mxv
	.byte	W03
	.byte		        43*seq_039_mvl/mxv
	.byte	W03
	.byte		        46*seq_039_mvl/mxv
	.byte	W02
	.byte		        47*seq_039_mvl/mxv
	.byte	W03
	.byte		        49*seq_039_mvl/mxv
	.byte	W03
	.byte		        52*seq_039_mvl/mxv
	.byte	W03
	.byte		        54*seq_039_mvl/mxv
	.byte	W03
	.byte		        53*seq_039_mvl/mxv
	.byte	W03
	.byte		        53*seq_039_mvl/mxv
	.byte	W02
	.byte		        53*seq_039_mvl/mxv
	.byte	W03
	.byte		        52*seq_039_mvl/mxv
	.byte	W03
	.byte		        52*seq_039_mvl/mxv
	.byte	W03
	.byte		        51*seq_039_mvl/mxv
	.byte	W03
	.byte		        51*seq_039_mvl/mxv
	.byte	W03
	.byte		        48*seq_039_mvl/mxv
	.byte	W02
	.byte		        47*seq_039_mvl/mxv
	.byte	W03
	.byte		        46*seq_039_mvl/mxv
	.byte	W03
	.byte		        43*seq_039_mvl/mxv
	.byte	W03
	.byte		        42*seq_039_mvl/mxv
	.byte	W03
	.byte		        41*seq_039_mvl/mxv
	.byte	W03
	.byte		        38*seq_039_mvl/mxv
	.byte	W02
	.byte		        38*seq_039_mvl/mxv
	.byte	W03
	.byte		        36*seq_039_mvl/mxv
	.byte	W03
	.byte		        34*seq_039_mvl/mxv
	.byte	W03
	.byte		        32*seq_039_mvl/mxv
	.byte	W03
	.byte		        31*seq_039_mvl/mxv
	.byte	W03
	.byte		        29*seq_039_mvl/mxv
	.byte	W05
	.byte		        22*seq_039_mvl/mxv
	.byte	W01
	.byte		        21*seq_039_mvl/mxv
	.byte	W01
	.byte		        19*seq_039_mvl/mxv
	.byte	W01
	.byte		        18*seq_039_mvl/mxv
	.byte	W01
	.byte		        17*seq_039_mvl/mxv
	.byte	W01
	.byte		        15*seq_039_mvl/mxv
	.byte	W01
	.byte		        14*seq_039_mvl/mxv
	.byte	W01
	.byte		        12*seq_039_mvl/mxv
	.byte	W01
	.byte		        11*seq_039_mvl/mxv
	.byte	W01
	.byte		        9*seq_039_mvl/mxv
	.byte	W01
	.byte		        8*seq_039_mvl/mxv
	.byte	W01
	.byte		        6*seq_039_mvl/mxv
	.byte	W01
	.byte		        0*seq_039_mvl/mxv
	.byte	W01
	.byte	PEND
	.byte		EOT   , Cs4 
	.byte		VOL   , 2*seq_039_mvl/mxv
	.byte		TIE   , Cn4 , v100
	.byte	W04
	.byte		VOL   , 4*seq_039_mvl/mxv
	.byte	W03
	.byte		        5*seq_039_mvl/mxv
	.byte	W03
	.byte		        7*seq_039_mvl/mxv
	.byte	W02
	.byte		        7*seq_039_mvl/mxv
	.byte	W03
	.byte		        9*seq_039_mvl/mxv
	.byte	W02
	.byte		        10*seq_039_mvl/mxv
	.byte	W03
	.byte		        12*seq_039_mvl/mxv
	.byte	W02
	.byte		        12*seq_039_mvl/mxv
	.byte	W03
	.byte		        14*seq_039_mvl/mxv
	.byte	W02
	.byte		        14*seq_039_mvl/mxv
	.byte	W03
	.byte		        16*seq_039_mvl/mxv
	.byte	W02
	.byte		        17*seq_039_mvl/mxv
	.byte	W03
	.byte		        17*seq_039_mvl/mxv
	.byte	W05
	.byte		        19*seq_039_mvl/mxv
	.byte	W03
	.byte		        20*seq_039_mvl/mxv
	.byte	W02
	.byte		        21*seq_039_mvl/mxv
	.byte	W02
	.byte		        21*seq_039_mvl/mxv
	.byte	W03
	.byte		        23*seq_039_mvl/mxv
	.byte	W02
	.byte		        24*seq_039_mvl/mxv
	.byte	W02
	.byte		        24*seq_039_mvl/mxv
	.byte	W02
	.byte		        25*seq_039_mvl/mxv
	.byte	W03
	.byte		        26*seq_039_mvl/mxv
	.byte	W02
	.byte		        26*seq_039_mvl/mxv
	.byte	W02
	.byte		        27*seq_039_mvl/mxv
	.byte	W03
	.byte		        29*seq_039_mvl/mxv
	.byte	W02
	.byte		        29*seq_039_mvl/mxv
	.byte	W02
	.byte		        30*seq_039_mvl/mxv
	.byte	W04
	.byte		        31*seq_039_mvl/mxv
	.byte	W03
	.byte		        33*seq_039_mvl/mxv
	.byte	W03
	.byte		        34*seq_039_mvl/mxv
	.byte	W03
	.byte		        35*seq_039_mvl/mxv
	.byte	W03
	.byte		        36*seq_039_mvl/mxv
	.byte	W03
	.byte		        37*seq_039_mvl/mxv
	.byte	W02
	.byte		        38*seq_039_mvl/mxv
	.byte	W03
	.byte		        38*seq_039_mvl/mxv
	.byte	W02
	.byte	PEND
	.byte	PATT
	 .word	seq_039_7 + 0x62
	.byte		EOT   , Cn4 
	.byte	PATT
	 .word	seq_039_7 + 0x14
	.byte	PATT
	 .word	seq_039_7 + 0x62
	.byte		EOT   , Cs4 
	.byte	PATT
	 .word	seq_039_7 + 0xB9
	.byte	W01
	.byte		VOL   , 40*seq_039_mvl/mxv
	.byte	W03
	.byte		        40*seq_039_mvl/mxv
	.byte	W03
	.byte		        43*seq_039_mvl/mxv
	.byte	W03
	.byte		        46*seq_039_mvl/mxv
	.byte	W02
	.byte		        47*seq_039_mvl/mxv
	.byte	W03
	.byte		        49*seq_039_mvl/mxv
	.byte	W03
	.byte		        52*seq_039_mvl/mxv
	.byte	W03
	.byte		        54*seq_039_mvl/mxv
	.byte	W03
	.byte		        53*seq_039_mvl/mxv
	.byte	W03
	.byte		        53*seq_039_mvl/mxv
	.byte	W02
	.byte		        53*seq_039_mvl/mxv
	.byte	W03
	.byte		        52*seq_039_mvl/mxv
	.byte	W03
	.byte		        52*seq_039_mvl/mxv
	.byte	W03
	.byte		        51*seq_039_mvl/mxv
	.byte	W03
	.byte		        51*seq_039_mvl/mxv
	.byte	W03
	.byte		        48*seq_039_mvl/mxv
	.byte	W02
	.byte		        47*seq_039_mvl/mxv
	.byte	W03
	.byte		        46*seq_039_mvl/mxv
	.byte	W03
	.byte		        43*seq_039_mvl/mxv
	.byte	W03
	.byte		        42*seq_039_mvl/mxv
	.byte	W03
	.byte		        41*seq_039_mvl/mxv
	.byte	W03
	.byte		        38*seq_039_mvl/mxv
	.byte	W02
	.byte		        38*seq_039_mvl/mxv
	.byte	W03
	.byte		        36*seq_039_mvl/mxv
	.byte	W03
	.byte		        34*seq_039_mvl/mxv
	.byte	W03
	.byte		        32*seq_039_mvl/mxv
	.byte	W03
	.byte		        31*seq_039_mvl/mxv
	.byte	W03
	.byte		        29*seq_039_mvl/mxv
	.byte	W05
	.byte		        22*seq_039_mvl/mxv
	.byte	W01
	.byte		        21*seq_039_mvl/mxv
	.byte	W01
	.byte		        19*seq_039_mvl/mxv
	.byte	W01
	.byte		        18*seq_039_mvl/mxv
	.byte	W01
	.byte		        17*seq_039_mvl/mxv
	.byte	W01
	.byte		        15*seq_039_mvl/mxv
	.byte	W01
	.byte		        14*seq_039_mvl/mxv
	.byte	W01
	.byte		        12*seq_039_mvl/mxv
	.byte	W01
	.byte		        11*seq_039_mvl/mxv
	.byte	W01
	.byte		        9*seq_039_mvl/mxv
	.byte	W01
	.byte		        8*seq_039_mvl/mxv
	.byte	W01
	.byte		        6*seq_039_mvl/mxv
	.byte	W02
	.byte	PEND
	.byte		EOT   , Cn4 
	.byte	W12
	.byte		N02   , En2 , v112
	.byte	W06
	.byte		        En2 , v020
	.byte	W05
	.byte		VOICE , 95
	.byte		VOL   , 53*seq_039_mvl/mxv
	.byte	W13
	.byte		N02   , En2 , v112
	.byte	W06
	.byte		        En2 , v020
	.byte	W18
	.byte		        En2 , v112
	.byte	W06
	.byte		        En2 , v020
	.byte	W18
	.byte		        En2 , v112
	.byte	W06
	.byte		        En2 , v020
	.byte	W06
	.byte	PEND
	.byte	W12
	.byte		N02   , En2 , v112
	.byte	W06
	.byte		        En2 , v020
	.byte	W18
	.byte		        En2 , v112
	.byte	W06
	.byte		        En2 , v020
	.byte	W18
	.byte		        En2 , v112
	.byte	W06
	.byte		        En2 , v020
	.byte	W18
	.byte		        En2 , v112
	.byte	W06
	.byte		        En2 , v020
	.byte	W06
	.byte	PEND
	.byte	W12
	.byte		N02   , Ds2 , v112
	.byte	W06
	.byte		        Ds2 , v020
	.byte	W18
	.byte		        Ds2 , v112
	.byte	W06
	.byte		        Ds2 , v020
	.byte	W18
	.byte		        Ds2 , v112
	.byte	W06
	.byte		        Ds2 , v020
	.byte	W18
	.byte		        Ds2 , v112
	.byte	W06
	.byte		        Ds2 , v020
	.byte	W06
	.byte	PEND
	.byte	PATT
	 .word	seq_039_7 + 0x1B0
	.byte	PATT
	 .word	seq_039_7 + 0x195
	.byte	PATT
	 .word	seq_039_7 + 0x195
	.byte	PATT
	 .word	seq_039_7 + 0x1B0
	.byte	PATT
	 .word	seq_039_7 + 0x1B0
	.byte		TIE   , Bn1 , v076
	.byte	W96
	.byte	W96
	.byte		EOT
	.byte		N96   , As1 
	.byte	W96
	.byte		N12   , Cs1 
	.byte	W24
	.byte		        En1 
	.byte	W24
	.byte		        Gn1 
	.byte	W24
	.byte		        As1 
	.byte	W24
	.byte		TIE   , Bn1 
	.byte	W96
	.byte	W96
	.byte		EOT
	.byte		N96   , As1 
	.byte	W96
	.byte		N12   , Cs1 
	.byte	W24
	.byte		        En1 
	.byte	W24
	.byte		        Gn1 
	.byte	W24
	.byte		        As1 
	.byte	W23
	.byte		VOICE , 24
	.byte		VOL   , 19*seq_039_mvl/mxv
	.byte	W01
	.byte		N48   , An3 , v076
	.byte	W01
	.byte		VOL   , 24*seq_039_mvl/mxv
	.byte	W02
	.byte		        29*seq_039_mvl/mxv
	.byte	W02
	.byte		        33*seq_039_mvl/mxv
	.byte	W03
	.byte		        40*seq_039_mvl/mxv
	.byte	W02
	.byte		        46*seq_039_mvl/mxv
	.byte	W02
	.byte		        49*seq_039_mvl/mxv
	.byte	W36
	.byte		N48   , Cn4 
	.byte	W48
	.byte	PEND
	.byte		        Ds4 
	.byte	W32
	.byte		VOL   , 52*seq_039_mvl/mxv
	.byte	W03
	.byte		        52*seq_039_mvl/mxv
	.byte	W03
	.byte		        51*seq_039_mvl/mxv
	.byte	W03
	.byte		        51*seq_039_mvl/mxv
	.byte	W03
	.byte		        48*seq_039_mvl/mxv
	.byte	W02
	.byte		        47*seq_039_mvl/mxv
	.byte	W02
	.byte		N48   , Fs4 
	.byte	W01
	.byte		VOL   , 46*seq_039_mvl/mxv
	.byte	W03
	.byte		        43*seq_039_mvl/mxv
	.byte	W03
	.byte		        42*seq_039_mvl/mxv
	.byte	W03
	.byte		        41*seq_039_mvl/mxv
	.byte	W03
	.byte		        38*seq_039_mvl/mxv
	.byte	W02
	.byte		        38*seq_039_mvl/mxv
	.byte	W03
	.byte		        36*seq_039_mvl/mxv
	.byte	W03
	.byte		        34*seq_039_mvl/mxv
	.byte	W03
	.byte		        32*seq_039_mvl/mxv
	.byte	W03
	.byte		        31*seq_039_mvl/mxv
	.byte	W03
	.byte		        29*seq_039_mvl/mxv
	.byte	W05
	.byte		        22*seq_039_mvl/mxv
	.byte	W01
	.byte		        21*seq_039_mvl/mxv
	.byte	W01
	.byte		        19*seq_039_mvl/mxv
	.byte	W01
	.byte		        18*seq_039_mvl/mxv
	.byte	W01
	.byte		        17*seq_039_mvl/mxv
	.byte	W01
	.byte		        15*seq_039_mvl/mxv
	.byte	W01
	.byte		        14*seq_039_mvl/mxv
	.byte	W01
	.byte		        12*seq_039_mvl/mxv
	.byte	W01
	.byte		        11*seq_039_mvl/mxv
	.byte	W01
	.byte		        9*seq_039_mvl/mxv
	.byte	W01
	.byte		        8*seq_039_mvl/mxv
	.byte	W01
	.byte		        6*seq_039_mvl/mxv
	.byte	W01
	.byte		        19*seq_039_mvl/mxv
	.byte	W01
	.byte		N48   , Gs3 
	.byte	W01
	.byte		VOL   , 24*seq_039_mvl/mxv
	.byte	W02
	.byte		        29*seq_039_mvl/mxv
	.byte	W02
	.byte		        33*seq_039_mvl/mxv
	.byte	W03
	.byte		        40*seq_039_mvl/mxv
	.byte	W02
	.byte		        46*seq_039_mvl/mxv
	.byte	W02
	.byte		        49*seq_039_mvl/mxv
	.byte	W36
	.byte		N48   , Bn3 
	.byte	W48
	.byte		        Dn4 
	.byte	W32
	.byte		VOL   , 52*seq_039_mvl/mxv
	.byte	W03
	.byte		        52*seq_039_mvl/mxv
	.byte	W03
	.byte		        51*seq_039_mvl/mxv
	.byte	W03
	.byte		        51*seq_039_mvl/mxv
	.byte	W03
	.byte		        48*seq_039_mvl/mxv
	.byte	W02
	.byte		        47*seq_039_mvl/mxv
	.byte	W02
	.byte		N48   , Fn4 
	.byte	W01
	.byte		VOL   , 46*seq_039_mvl/mxv
	.byte	W03
	.byte		        43*seq_039_mvl/mxv
	.byte	W03
	.byte		        42*seq_039_mvl/mxv
	.byte	W03
	.byte		        41*seq_039_mvl/mxv
	.byte	W03
	.byte		        38*seq_039_mvl/mxv
	.byte	W02
	.byte		        38*seq_039_mvl/mxv
	.byte	W03
	.byte		        36*seq_039_mvl/mxv
	.byte	W03
	.byte		        34*seq_039_mvl/mxv
	.byte	W03
	.byte		        32*seq_039_mvl/mxv
	.byte	W03
	.byte		        31*seq_039_mvl/mxv
	.byte	W03
	.byte		        29*seq_039_mvl/mxv
	.byte	W05
	.byte		        22*seq_039_mvl/mxv
	.byte	W01
	.byte		        21*seq_039_mvl/mxv
	.byte	W01
	.byte		        19*seq_039_mvl/mxv
	.byte	W01
	.byte		        18*seq_039_mvl/mxv
	.byte	W01
	.byte		        17*seq_039_mvl/mxv
	.byte	W01
	.byte		        15*seq_039_mvl/mxv
	.byte	W01
	.byte		        14*seq_039_mvl/mxv
	.byte	W01
	.byte		        12*seq_039_mvl/mxv
	.byte	W01
	.byte		        11*seq_039_mvl/mxv
	.byte	W01
	.byte		        9*seq_039_mvl/mxv
	.byte	W01
	.byte		        8*seq_039_mvl/mxv
	.byte	W01
	.byte		        6*seq_039_mvl/mxv
	.byte	W01
	.byte		        19*seq_039_mvl/mxv
	.byte	W01
	.byte	PATT
	 .word	seq_039_7 + 0x20C
	.byte		N48   , Ds4 , v076
	.byte	W32
	.byte		VOL   , 52*seq_039_mvl/mxv
	.byte	W03
	.byte		        52*seq_039_mvl/mxv
	.byte	W03
	.byte		        51*seq_039_mvl/mxv
	.byte	W03
	.byte		        51*seq_039_mvl/mxv
	.byte	W03
	.byte		        48*seq_039_mvl/mxv
	.byte	W02
	.byte		        47*seq_039_mvl/mxv
	.byte	W02
	.byte		N48   , Fs4 
	.byte	W01
	.byte		VOL   , 46*seq_039_mvl/mxv
	.byte	W03
	.byte		        43*seq_039_mvl/mxv
	.byte	W03
	.byte		        42*seq_039_mvl/mxv
	.byte	W03
	.byte		        41*seq_039_mvl/mxv
	.byte	W03
	.byte		        38*seq_039_mvl/mxv
	.byte	W02
	.byte		        38*seq_039_mvl/mxv
	.byte	W03
	.byte		        36*seq_039_mvl/mxv
	.byte	W03
	.byte		        34*seq_039_mvl/mxv
	.byte	W03
	.byte		        32*seq_039_mvl/mxv
	.byte	W03
	.byte		        31*seq_039_mvl/mxv
	.byte	W03
	.byte		        29*seq_039_mvl/mxv
	.byte	W05
	.byte		        22*seq_039_mvl/mxv
	.byte	W01
	.byte		        21*seq_039_mvl/mxv
	.byte	W01
	.byte		        19*seq_039_mvl/mxv
	.byte	W01
	.byte		        18*seq_039_mvl/mxv
	.byte	W01
	.byte		        17*seq_039_mvl/mxv
	.byte	W01
	.byte		        15*seq_039_mvl/mxv
	.byte	W01
	.byte		        14*seq_039_mvl/mxv
	.byte	W01
	.byte		        12*seq_039_mvl/mxv
	.byte	W01
	.byte		        11*seq_039_mvl/mxv
	.byte	W01
	.byte		        9*seq_039_mvl/mxv
	.byte	W01
	.byte		        8*seq_039_mvl/mxv
	.byte	W01
	.byte		        6*seq_039_mvl/mxv
	.byte	W02
	.byte	W92
	.byte	W03
	.byte		VOICE , 95
	.byte		VOL   , 77*seq_039_mvl/mxv
	.byte		PAN   , c_v+0
	.byte	W01
	.byte	W06
	.byte		N02   , Fs3 , v056
	.byte	W03
	.byte		        Fs3 , v032
	.byte	W03
	.byte		        An3 , v076
	.byte	W03
	.byte		        An3 , v032
	.byte	W03
	.byte		        Ds3 , v036
	.byte	W03
	.byte		        Ds3 , v032
	.byte	W03
	.byte		        Cn4 , v088
	.byte	W03
	.byte		        Cn4 , v032
	.byte	W03
	.byte		        Fs3 , v048
	.byte	W03
	.byte		        Fs3 , v032
	.byte	W03
	.byte		        An3 , v068
	.byte	W03
	.byte		        An3 , v032
	.byte	W03
	.byte		        Ds3 , v036
	.byte	W03
	.byte		        Ds3 , v032
	.byte	W03
	.byte		N03   , Ds4 , v100
	.byte	W03
	.byte		        Ds4 , v032
	.byte	W03
	.byte		        An3 , v040
	.byte	W03
	.byte		        An3 , v032
	.byte	W03
	.byte		        Cn4 , v060
	.byte	W03
	.byte		        Cn4 , v032
	.byte	W03
	.byte		        Fs3 
	.byte	W03
	.byte		N03
	.byte	W03
	.byte		        An3 , v080
	.byte	W03
	.byte		        An3 , v032
	.byte	W03
	.byte		        Ds3 , v040
	.byte	W03
	.byte		        Ds3 , v032
	.byte	W03
	.byte		        Fs3 , v060
	.byte	W03
	.byte		        Fs3 , v032
	.byte	W03
	.byte		        Cn3 
	.byte	W03
	.byte		N03
	.byte	W02
	.byte		VOICE , 24
	.byte		VOL   , 0*seq_039_mvl/mxv
	.byte		PAN   , c_v+20
	.byte	W01
	.byte	PATT
	 .word	seq_039_7 + 0x14
	.byte	PATT
	 .word	seq_039_7 + 0x62
	.byte		EOT   , Cs4 
	.byte	PATT
	 .word	seq_039_7 + 0xB9
	.byte	PATT
	 .word	seq_039_7 + 0x62
	.byte		EOT   , Cn4 
	.byte	PATT
	 .word	seq_039_7 + 0x14
	.byte	PATT
	 .word	seq_039_7 + 0x62
	.byte		EOT   , Cs4 
	.byte	PATT
	 .word	seq_039_7 + 0xB9
	.byte	PATT
	 .word	seq_039_7 + 0x11F
	.byte		EOT   , Cn4 
	.byte	PATT
	 .word	seq_039_7 + 0x174
	.byte	PATT
	 .word	seq_039_7 + 0x195
	.byte	PATT
	 .word	seq_039_7 + 0x1B0
	.byte	PATT
	 .word	seq_039_7 + 0x1B0
	.byte	GOTO
	 .word	seq_039_7 + 0x1D0
	.byte	FINE

@*********************** Track 09 ***********************@

seq_039_8:
	.byte	KEYSH , seq_039_key+0
	.byte	W13
	.byte		VOICE , 127
	.byte		VOL   , 90*seq_039_mvl/mxv
	.byte		PAN   , c_v+0
	.byte	W11
	.byte	W96
	.byte	W96
	.byte	W96
	.byte	W96
	.byte	W96
	.byte	W92
	.byte	W03
	.byte		PAN   , c_v+0
	.byte	W01
	.byte	PEND
	.byte	W96
	.byte		N12   , Ds2 , v032
	.byte	W12
	.byte		N12
	.byte	W24
	.byte		N02   , Fs1 , v052
	.byte	W06
	.byte		        Fs1 , v016
	.byte	W06
	.byte		N12   , En2 , v032
	.byte	W12
	.byte		N02   , Fs1 , v052
	.byte	W12
	.byte		N12   , En2 , v032
	.byte	W12
	.byte		N02   , Fs1 , v052
	.byte	W11
	.byte		PAN   , c_v+0
	.byte	W01
	.byte	PEND
	.byte		N12   , En2 , v032
	.byte	W11
	.byte		PAN   , c_v-63
	.byte	W01
	.byte		N02   , Fs1 , v056
	.byte	W06
	.byte		        Fs1 , v016
	.byte	W05
	.byte		PAN   , c_v+63
	.byte	W01
	.byte		N02   , Fs1 , v096
	.byte	W06
	.byte		        Fs1 , v016
	.byte	W05
	.byte		PAN   , c_v-63
	.byte	W01
	.byte		N02   , Fs1 , v072
	.byte	W06
	.byte		        Fs1 , v016
	.byte	W05
	.byte		PAN   , c_v+63
	.byte	W01
	.byte		N02   , Fs1 , v060
	.byte	W06
	.byte		        Fs1 , v016
	.byte	W05
	.byte		PAN   , c_v-63
	.byte	W01
	.byte		N02   , Fs1 , v052
	.byte	W06
	.byte		        Fs1 , v016
	.byte	W05
	.byte		PAN   , c_v+63
	.byte	W01
	.byte		N02   , Fs1 , v044
	.byte	W06
	.byte		        Fs1 , v016
	.byte	W05
	.byte		PAN   , c_v-63
	.byte	W01
	.byte		N02   , Fs1 , v040
	.byte	W06
	.byte		        Fs1 , v016
	.byte	W05
	.byte		PAN   , c_v+0
	.byte	W01
	.byte	PEND
	.byte	PATT
	 .word	seq_039_8 + 0x37
	.byte	PATT
	 .word	seq_039_8 + 0x37
	.byte	PATT
	 .word	seq_039_8 + 0x37
	.byte	PATT
	 .word	seq_039_8 + 0x37
	.byte	PATT
	 .word	seq_039_8 + 0x37
	.byte	PATT
	 .word	seq_039_8 + 0x37
	.byte	PATT
	 .word	seq_039_8 + 0x37
	.byte		N12   , En2 , v032
	.byte	W12
	.byte		N02   , Fs1 , v036
	.byte	W06
	.byte		        Fs1 , v028
	.byte	W06
	.byte		        Fs1 , v056
	.byte	W06
	.byte		        Fs1 , v012
	.byte	W06
	.byte		        Fs1 , v036
	.byte	W06
	.byte		        Fs1 , v012
	.byte	W06
	.byte		        Fs1 , v056
	.byte	W03
	.byte		        Fs1 , v012
	.byte	W03
	.byte		        Fs1 , v020
	.byte	W06
	.byte		        Fs1 , v036
	.byte	W06
	.byte		        Fs1 , v012
	.byte	W06
	.byte		N05   , Fs1 , v056
	.byte	W12
	.byte		N05
	.byte	W12
	.byte	PEND
	.byte		N12   , En2 , v032
	.byte	W12
	.byte		N02   , Fs1 , v036
	.byte	W06
	.byte		        Fs1 , v028
	.byte	W06
	.byte		        Fs1 , v056
	.byte	W06
	.byte		        Fs1 , v012
	.byte	W06
	.byte		        Fs1 , v036
	.byte	W06
	.byte		        Fs1 , v012
	.byte	W06
	.byte		        Fs1 , v056
	.byte	W03
	.byte		        Fs1 , v012
	.byte	W03
	.byte		        Fs1 , v020
	.byte	W06
	.byte		        Fs1 , v036
	.byte	W06
	.byte		        Fs1 , v012
	.byte	W06
	.byte		N05   , Fs1 , v056
	.byte	W12
	.byte		N05
	.byte	W11
	.byte		PAN   , c_v+0
	.byte	W01
	.byte	PEND
	.byte	PATT
	 .word	seq_039_8 + 0xA8
	.byte	PATT
	 .word	seq_039_8 + 0xD5
	.byte	PATT
	 .word	seq_039_8 + 0xA8
	.byte	PATT
	 .word	seq_039_8 + 0xD5
	.byte	PATT
	 .word	seq_039_8 + 0xA8
	.byte	PATT
	 .word	seq_039_8 + 0xD5
	.byte		N12   , En2 , v032
	.byte	W11
	.byte		PAN   , c_v-63
	.byte	W01
	.byte		N02   , Fs1 , v056
	.byte	W06
	.byte		        Fs1 , v016
	.byte	W05
	.byte		PAN   , c_v+63
	.byte	W01
	.byte		N02   , Fs1 , v096
	.byte	W06
	.byte		        Fs1 , v016
	.byte	W05
	.byte		PAN   , c_v-63
	.byte	W01
	.byte		N02   , Fs1 , v072
	.byte	W06
	.byte		        Fs1 , v016
	.byte	W05
	.byte		PAN   , c_v+0
	.byte	W01
	.byte		N12   , En2 , v032
	.byte	W11
	.byte		PAN   , c_v+63
	.byte	W01
	.byte		N02   , Fs1 , v056
	.byte	W06
	.byte		        Fs1 , v016
	.byte	W05
	.byte		PAN   , c_v-63
	.byte	W01
	.byte		N02   , Fs1 , v096
	.byte	W06
	.byte		        Fs1 , v016
	.byte	W05
	.byte		PAN   , c_v+63
	.byte	W01
	.byte		N02   , Fs1 , v072
	.byte	W06
	.byte		        Fs1 , v016
	.byte	W05
	.byte		PAN   , c_v+0
	.byte	W01
	.byte	PEND
	.byte	PATT
	 .word	seq_039_8 + 0x123
	.byte	PATT
	 .word	seq_039_8 + 0x123
	.byte	PATT
	 .word	seq_039_8 + 0x123
	.byte	PATT
	 .word	seq_039_8 + 0x123
	.byte	PATT
	 .word	seq_039_8 + 0x123
	.byte		N12   , En2 , v032
	.byte	W11
	.byte		PAN   , c_v-63
	.byte	W01
	.byte		N02   , Fs1 , v056
	.byte	W06
	.byte		        Fs1 , v016
	.byte	W05
	.byte		PAN   , c_v+63
	.byte	W01
	.byte		N02   , Fs1 , v096
	.byte	W06
	.byte		        Fs1 , v016
	.byte	W05
	.byte		PAN   , c_v+0
	.byte	W12
	.byte		        c_v+63
	.byte	W01
	.byte		N02   , Fs1 , v060
	.byte	W06
	.byte		        Fs1 , v016
	.byte	W05
	.byte		PAN   , c_v-63
	.byte	W01
	.byte		N02   , Fs1 , v052
	.byte	W06
	.byte		        Fs1 , v016
	.byte	W05
	.byte		PAN   , c_v+0
	.byte	W01
	.byte		N12   , En2 , v032
	.byte	W11
	.byte		PAN   , c_v-63
	.byte	W01
	.byte		N06   , Ds2 
	.byte	W11
	.byte		PAN   , c_v+0
	.byte	W01
	.byte	PATT
	 .word	seq_039_8 + 0xF
	.byte	PATT
	 .word	seq_039_8 + 0x37
	.byte	PATT
	 .word	seq_039_8 + 0x37
	.byte	PATT
	 .word	seq_039_8 + 0x37
	.byte	PATT
	 .word	seq_039_8 + 0x37
	.byte	PATT
	 .word	seq_039_8 + 0x37
	.byte	PATT
	 .word	seq_039_8 + 0x37
	.byte	PATT
	 .word	seq_039_8 + 0x37
	.byte	PATT
	 .word	seq_039_8 + 0x16
	.byte	PATT
	 .word	seq_039_8 + 0x37
	.byte	PATT
	 .word	seq_039_8 + 0x37
	.byte	PATT
	 .word	seq_039_8 + 0x37
	.byte		N12   , En2 , v032
	.byte	W11
	.byte		PAN   , c_v-63
	.byte	W01
	.byte		N02   , Fs1 , v056
	.byte	W06
	.byte		        Fs1 , v016
	.byte	W05
	.byte		PAN   , c_v+63
	.byte	W01
	.byte		N02   , Fs1 , v096
	.byte	W06
	.byte		        Fs1 , v016
	.byte	W05
	.byte		PAN   , c_v-63
	.byte	W01
	.byte		N02   , Fs1 , v072
	.byte	W06
	.byte		        Fs1 , v016
	.byte	W05
	.byte		PAN   , c_v+63
	.byte	W01
	.byte		N02   , Fs1 , v060
	.byte	W06
	.byte		        Fs1 , v016
	.byte	W05
	.byte		PAN   , c_v-63
	.byte	W01
	.byte		N02   , Fs1 , v052
	.byte	W06
	.byte		        Fs1 , v016
	.byte	W05
	.byte		PAN   , c_v+63
	.byte	W01
	.byte		N02   , Fs1 , v044
	.byte	W06
	.byte		        Fs1 , v016
	.byte	W05
	.byte		PAN   , c_v-63
	.byte	W01
	.byte		N02   , Fs1 , v040
	.byte	W06
	.byte		        Fs1 , v016
	.byte	W06
	.byte	GOTO
	 .word	seq_039_8 + 0x94
	.byte	FINE

@*********************** Track 10 ***********************@

seq_039_9:
	.byte	KEYSH , seq_039_key+0
	.byte	W14
	.byte		VOICE , 46
	.byte		VOL   , 90*seq_039_mvl/mxv
	.byte		PAN   , c_v+0
	.byte	W10
	.byte	W96
	.byte	W96
	.byte	W96
	.byte	W96
	.byte		N09   , As1 , v120
	.byte	W12
	.byte		        As2 , v072
	.byte	W12
	.byte		        As2 , v008
	.byte	W12
	.byte		        As2 , v056
	.byte	W12
	.byte		        As2 , v008
	.byte	W12
	.byte		        As2 , v044
	.byte	W12
	.byte		        As2 , v008
	.byte	W12
	.byte		        As2 , v028
	.byte	W12
	.byte	PEND
	.byte		        As2 , v008
	.byte	W12
	.byte		        As2 , v072
	.byte	W12
	.byte		        As2 , v008
	.byte	W12
	.byte		        As2 , v056
	.byte	W12
	.byte		        As2 , v008
	.byte	W12
	.byte		        As2 , v044
	.byte	W12
	.byte		        As2 , v008
	.byte	W12
	.byte		        As2 , v028
	.byte	W12
	.byte		N09   , An1 , v120
	.byte	W12
	.byte		        An2 , v072
	.byte	W12
	.byte		        An2 , v008
	.byte	W12
	.byte		        An2 , v056
	.byte	W12
	.byte		        An2 , v008
	.byte	W12
	.byte		        An2 , v044
	.byte	W12
	.byte		        An2 , v008
	.byte	W12
	.byte		        An2 , v028
	.byte	W12
	.byte	PEND
	.byte		        An2 , v008
	.byte	W12
	.byte		        An2 , v072
	.byte	W12
	.byte		        An2 , v008
	.byte	W12
	.byte		        An2 , v056
	.byte	W12
	.byte		        An2 , v008
	.byte	W12
	.byte		        An2 , v044
	.byte	W12
	.byte		        An2 , v008
	.byte	W12
	.byte		        An2 , v028
	.byte	W12
	.byte	PATT
	 .word	seq_039_9 + 0xE
	.byte	PATT
	 .word	seq_039_9 + 0xE
	.byte	PATT
	 .word	seq_039_9 + 0x40
	.byte	PATT
	 .word	seq_039_9 + 0x40
	.byte	PATT
	 .word	seq_039_9 + 0xE
	.byte	PATT
	 .word	seq_039_9 + 0xE
	.byte	PATT
	 .word	seq_039_9 + 0x40
	.byte	PATT
	 .word	seq_039_9 + 0x40
	.byte		N09   , Gs1 , v120
	.byte	W12
	.byte		        Gs2 , v072
	.byte	W12
	.byte		        Gs2 , v008
	.byte	W12
	.byte		        Gs2 , v056
	.byte	W12
	.byte		        Gs2 , v008
	.byte	W12
	.byte		        Gs2 , v044
	.byte	W12
	.byte		        Gs2 , v008
	.byte	W12
	.byte		        Gs2 , v028
	.byte	W12
	.byte	PEND
	.byte	PATT
	 .word	seq_039_9 + 0x9A
	.byte		N09   , Gn1 , v120
	.byte	W12
	.byte		        Gn2 , v072
	.byte	W12
	.byte		        Gn2 , v008
	.byte	W12
	.byte		        Gn2 , v056
	.byte	W12
	.byte		        Gn2 , v008
	.byte	W12
	.byte		        Gn2 , v044
	.byte	W12
	.byte		        Gn2 , v008
	.byte	W12
	.byte		        Gn2 , v028
	.byte	W12
	.byte	PEND
	.byte		N09   , Gn1 , v120
	.byte	W12
	.byte		        Cs2 , v076
	.byte	W24
	.byte		        En2 
	.byte	W24
	.byte		        Gn2 
	.byte	W24
	.byte		        Cs2 
	.byte	W12
	.byte	PEND
	.byte	PATT
	 .word	seq_039_9 + 0x9A
	.byte	PATT
	 .word	seq_039_9 + 0x9A
	.byte	PATT
	 .word	seq_039_9 + 0xB9
	.byte	PATT
	 .word	seq_039_9 + 0xD3
	.byte		N09   , Fs1 , v120
	.byte	W12
	.byte		        An2 , v092
	.byte	W12
	.byte		        An2 , v008
	.byte	W12
	.byte		        An2 , v076
	.byte	W12
	.byte		        Cn2 , v120
	.byte	W12
	.byte		        Cn3 , v092
	.byte	W12
	.byte		        Cn3 , v008
	.byte	W12
	.byte		        Cn3 , v076
	.byte	W12
	.byte		        An1 , v120
	.byte	W12
	.byte		        Fs2 , v092
	.byte	W12
	.byte		        Fs2 , v008
	.byte	W12
	.byte		        Fs2 , v076
	.byte	W12
	.byte		        Cn2 , v120
	.byte	W12
	.byte		        An2 , v092
	.byte	W12
	.byte		        An2 , v008
	.byte	W12
	.byte		        An2 , v076
	.byte	W12
	.byte		        Fn1 , v120
	.byte	W12
	.byte		        Gs2 , v092
	.byte	W12
	.byte		        Gs2 , v008
	.byte	W12
	.byte		        Gs2 , v076
	.byte	W12
	.byte		        Bn1 , v120
	.byte	W12
	.byte		        Bn2 , v092
	.byte	W12
	.byte		        Bn2 , v008
	.byte	W12
	.byte		        Bn2 , v076
	.byte	W12
	.byte		        Gs1 , v120
	.byte	W12
	.byte		        Fn2 , v092
	.byte	W12
	.byte		        Fn2 , v008
	.byte	W12
	.byte		        Fn2 , v076
	.byte	W12
	.byte		        Bn1 , v120
	.byte	W12
	.byte		        Gs2 , v092
	.byte	W12
	.byte		        Gs2 , v008
	.byte	W12
	.byte		        Gs2 , v076
	.byte	W12
	.byte		        Fs1 , v120
	.byte	W12
	.byte		        Cn2 , v092
	.byte	W12
	.byte		        Cn2 , v008
	.byte	W12
	.byte		        Cn2 , v076
	.byte	W12
	.byte		        An1 , v120
	.byte	W12
	.byte		        Ds2 , v092
	.byte	W12
	.byte		        Ds2 , v008
	.byte	W12
	.byte		        Ds2 , v076
	.byte	W12
	.byte		        Cn2 , v120
	.byte	W12
	.byte		        Fs2 , v092
	.byte	W12
	.byte		        Fs2 , v008
	.byte	W12
	.byte		        Fs2 , v076
	.byte	W12
	.byte		        Ds2 , v120
	.byte	W12
	.byte		        An2 , v092
	.byte	W12
	.byte		        An2 , v008
	.byte	W12
	.byte		        An2 , v076
	.byte	W12
	.byte		        Gn1 , v120
	.byte	W12
	.byte		N03   , As2 , v112
	.byte		N03   , As4 , v072
	.byte	W12
	.byte		        As2 , v096
	.byte		N03   , As4 , v056
	.byte	W12
	.byte		N09   , Gn1 , v120
	.byte	W12
	.byte		N03   , As2 , v112
	.byte		N03   , As4 , v072
	.byte	W12
	.byte		        As2 , v096
	.byte		N03   , As4 , v056
	.byte	W24
	.byte		N09   , An2 , v112
	.byte		N03   , An4 , v072
	.byte	W12
	.byte	W96
	.byte	PATT
	 .word	seq_039_9 + 0xE
	.byte	PATT
	 .word	seq_039_9 + 0xE
	.byte	PATT
	 .word	seq_039_9 + 0x40
	.byte	PATT
	 .word	seq_039_9 + 0x40
	.byte	PATT
	 .word	seq_039_9 + 0xE
	.byte	PATT
	 .word	seq_039_9 + 0xE
	.byte	PATT
	 .word	seq_039_9 + 0x40
	.byte	PATT
	 .word	seq_039_9 + 0x40
	.byte	PATT
	 .word	seq_039_9 + 0xE
	.byte	PATT
	 .word	seq_039_9 + 0xE
	.byte	PATT
	 .word	seq_039_9 + 0x40
	.byte	PATT
	 .word	seq_039_9 + 0x40
	.byte	GOTO
	 .word	seq_039_9 + 0x86
	.byte	FINE

@*********************** Track 11 ***********************@

seq_039_10:
	.byte	KEYSH , seq_039_key+0
	.byte	W15
	.byte		VOICE , 5
	.byte		MOD   , 60
	.byte		VOL   , 0*seq_039_mvl/mxv
	.byte	W01
	.byte		PAN   , c_v-64
	.byte		LFOS  , 64
	.byte		MODT  , mod_pan
	.byte	W07
	.byte		PAN   , c_v+0
	.byte	W01
	.byte		VOL   , 4*seq_039_mvl/mxv
	.byte		N06   , Cs5 , v100
	.byte	W04
	.byte		VOL   , 4*seq_039_mvl/mxv
	.byte	W02
	.byte		N06   , Gn4 , v040
	.byte	W01
	.byte		VOL   , 4*seq_039_mvl/mxv
	.byte	W03
	.byte		        5*seq_039_mvl/mxv
	.byte	W02
	.byte		N06   , As4 , v060
	.byte	W01
	.byte		VOL   , 5*seq_039_mvl/mxv
	.byte	W03
	.byte		        6*seq_039_mvl/mxv
	.byte	W02
	.byte		N06   , En4 , v032
	.byte	W01
	.byte		VOL   , 7*seq_039_mvl/mxv
	.byte	W03
	.byte		        7*seq_039_mvl/mxv
	.byte	W02
	.byte		N06   , Cs5 , v100
	.byte	W01
	.byte		VOL   , 7*seq_039_mvl/mxv
	.byte	W03
	.byte		        8*seq_039_mvl/mxv
	.byte	W02
	.byte		N06   , Gn4 , v040
	.byte	W01
	.byte		VOL   , 8*seq_039_mvl/mxv
	.byte	W03
	.byte		        9*seq_039_mvl/mxv
	.byte	W02
	.byte		N06   , As4 , v060
	.byte	W01
	.byte		VOL   , 9*seq_039_mvl/mxv
	.byte	W03
	.byte		        9*seq_039_mvl/mxv
	.byte	W02
	.byte		N06   , En4 , v032
	.byte	W01
	.byte		VOL   , 10*seq_039_mvl/mxv
	.byte	W03
	.byte		        10*seq_039_mvl/mxv
	.byte	W02
	.byte		N06   , Cs5 , v100
	.byte	W02
	.byte		VOL   , 11*seq_039_mvl/mxv
	.byte	W03
	.byte		        12*seq_039_mvl/mxv
	.byte	W01
	.byte		N06   , Gn4 , v040
	.byte	W02
	.byte		VOL   , 12*seq_039_mvl/mxv
	.byte	W03
	.byte		        12*seq_039_mvl/mxv
	.byte	W01
	.byte		N06   , As4 , v060
	.byte	W02
	.byte		VOL   , 13*seq_039_mvl/mxv
	.byte	W03
	.byte		        13*seq_039_mvl/mxv
	.byte	W01
	.byte		N06   , En4 , v032
	.byte	W02
	.byte		VOL   , 14*seq_039_mvl/mxv
	.byte	W03
	.byte		        14*seq_039_mvl/mxv
	.byte	W01
	.byte		N06   , Cs5 , v100
	.byte	W02
	.byte		VOL   , 14*seq_039_mvl/mxv
	.byte	W03
	.byte		        15*seq_039_mvl/mxv
	.byte	W01
	.byte		N06   , Gn4 , v040
	.byte	W02
	.byte		VOL   , 15*seq_039_mvl/mxv
	.byte	W03
	.byte		        16*seq_039_mvl/mxv
	.byte	W01
	.byte		N06   , As4 , v060
	.byte	W02
	.byte		VOL   , 17*seq_039_mvl/mxv
	.byte	W03
	.byte		        17*seq_039_mvl/mxv
	.byte	W01
	.byte		N06   , En4 , v032
	.byte	W02
	.byte		VOL   , 17*seq_039_mvl/mxv
	.byte	W03
	.byte		PAN   , c_v+0
	.byte	W01
	.byte		VOL   , 18*seq_039_mvl/mxv
	.byte		N03   , Cs5 , v100
	.byte	W03
	.byte		VOL   , 18*seq_039_mvl/mxv
	.byte		N03   , Cs5 , v032
	.byte	W02
	.byte		PAN   , c_v-40
	.byte	W01
	.byte		VOL   , 19*seq_039_mvl/mxv
	.byte		N03   , Gn4 , v040
	.byte	W03
	.byte		VOL   , 19*seq_039_mvl/mxv
	.byte		N03   , Gn4 , v032
	.byte	W02
	.byte		PAN   , c_v+40
	.byte	W01
	.byte		VOL   , 19*seq_039_mvl/mxv
	.byte		N03   , As4 , v060
	.byte	W03
	.byte		VOL   , 20*seq_039_mvl/mxv
	.byte		N03   , As4 , v032
	.byte	W02
	.byte		PAN   , c_v+0
	.byte	W01
	.byte		VOL   , 21*seq_039_mvl/mxv
	.byte		N03   , En4 
	.byte	W03
	.byte		VOL   , 21*seq_039_mvl/mxv
	.byte		N03
	.byte	W02
	.byte		PAN   , c_v-40
	.byte	W01
	.byte		VOL   , 21*seq_039_mvl/mxv
	.byte		N03   , Cs5 , v100
	.byte	W03
	.byte		VOL   , 22*seq_039_mvl/mxv
	.byte		N03   , Cs5 , v032
	.byte	W02
	.byte		PAN   , c_v+40
	.byte	W01
	.byte		VOL   , 22*seq_039_mvl/mxv
	.byte		N03   , Gn4 , v040
	.byte	W03
	.byte		VOL   , 23*seq_039_mvl/mxv
	.byte		N03   , Gn4 , v032
	.byte	W02
	.byte		PAN   , c_v+0
	.byte	W01
	.byte		VOL   , 23*seq_039_mvl/mxv
	.byte		N03   , As4 , v060
	.byte	W03
	.byte		VOL   , 24*seq_039_mvl/mxv
	.byte		N03   , As4 , v032
	.byte	W02
	.byte		PAN   , c_v-40
	.byte	W01
	.byte		VOL   , 24*seq_039_mvl/mxv
	.byte		N03   , En4 
	.byte	W03
	.byte		N03
	.byte	W01
	.byte		VOL   , 24*seq_039_mvl/mxv
	.byte	W01
	.byte		PAN   , c_v+40
	.byte	W01
	.byte		N03   , Cs5 , v100
	.byte	W01
	.byte		VOL   , 25*seq_039_mvl/mxv
	.byte	W02
	.byte		N03   , Cs5 , v032
	.byte	W01
	.byte		VOL   , 26*seq_039_mvl/mxv
	.byte	W01
	.byte		PAN   , c_v+0
	.byte	W01
	.byte		N03   , Gn4 , v040
	.byte	W01
	.byte		VOL   , 26*seq_039_mvl/mxv
	.byte	W02
	.byte		N03   , Gn4 , v032
	.byte	W01
	.byte		VOL   , 26*seq_039_mvl/mxv
	.byte	W01
	.byte		PAN   , c_v-40
	.byte	W01
	.byte		N03   , As4 , v060
	.byte	W01
	.byte		VOL   , 27*seq_039_mvl/mxv
	.byte	W02
	.byte		N03   , As4 , v032
	.byte	W01
	.byte		VOL   , 27*seq_039_mvl/mxv
	.byte	W01
	.byte		PAN   , c_v+40
	.byte	W01
	.byte		N03   , En4 
	.byte	W01
	.byte		VOL   , 28*seq_039_mvl/mxv
	.byte	W02
	.byte		N03
	.byte	W01
	.byte		VOL   , 29*seq_039_mvl/mxv
	.byte	W01
	.byte		PAN   , c_v+0
	.byte	W01
	.byte		N03   , Cs5 , v100
	.byte	W01
	.byte		VOL   , 29*seq_039_mvl/mxv
	.byte	W02
	.byte		N03   , Cs5 , v032
	.byte	W01
	.byte		VOL   , 29*seq_039_mvl/mxv
	.byte	W01
	.byte		PAN   , c_v-40
	.byte	W01
	.byte		N03   , Gn4 , v040
	.byte	W01
	.byte		VOL   , 29*seq_039_mvl/mxv
	.byte	W02
	.byte		N03   , Gn4 , v032
	.byte	W01
	.byte		VOL   , 30*seq_039_mvl/mxv
	.byte	W01
	.byte		PAN   , c_v+0
	.byte	W01
	.byte		N03   , As4 , v060
	.byte	W01
	.byte		VOL   , 31*seq_039_mvl/mxv
	.byte	W02
	.byte		N03   , As4 , v032
	.byte	W02
	.byte		PAN   , c_v+40
	.byte	W01
	.byte		N03   , En4 
	.byte	W03
	.byte		N03
	.byte	W02
	.byte		PAN   , c_v+0
	.byte	W01
	.byte		N03   , Cn5 , v100
	.byte	W03
	.byte		        Cn5 , v032
	.byte	W02
	.byte		PAN   , c_v-40
	.byte	W01
	.byte		N03   , Fs4 , v040
	.byte	W03
	.byte		        Fs4 , v032
	.byte	W02
	.byte		PAN   , c_v+40
	.byte	W01
	.byte		N03   , An4 , v060
	.byte	W03
	.byte		        An4 , v032
	.byte	W02
	.byte		PAN   , c_v+0
	.byte	W01
	.byte		N03   , Ds4 
	.byte	W03
	.byte		N03
	.byte	W02
	.byte		PAN   , c_v-40
	.byte	W01
	.byte		N03   , Cn5 , v100
	.byte	W03
	.byte		        Cn5 , v032
	.byte	W02
	.byte		PAN   , c_v+40
	.byte	W01
	.byte		N03   , Fs4 , v040
	.byte	W03
	.byte		        Fs4 , v032
	.byte	W02
	.byte		PAN   , c_v+0
	.byte	W01
	.byte		N03   , An4 , v060
	.byte	W03
	.byte		        An4 , v032
	.byte	W02
	.byte		PAN   , c_v-40
	.byte	W01
	.byte		N03   , Ds4 
	.byte	W03
	.byte		N03
	.byte	W02
	.byte		PAN   , c_v+40
	.byte	W01
	.byte		N03   , Cn5 , v100
	.byte	W03
	.byte		        Cn5 , v032
	.byte	W02
	.byte		PAN   , c_v+0
	.byte	W01
	.byte		N03   , Fs4 , v040
	.byte	W03
	.byte		        Fs4 , v032
	.byte	W02
	.byte		PAN   , c_v-40
	.byte	W01
	.byte		N03   , An4 , v060
	.byte	W03
	.byte		        An4 , v032
	.byte	W02
	.byte		PAN   , c_v+40
	.byte	W01
	.byte		N03   , Ds4 
	.byte	W03
	.byte		N03
	.byte	W02
	.byte		PAN   , c_v+0
	.byte	W01
	.byte		N03   , Cn5 , v100
	.byte	W03
	.byte		        Cn5 , v032
	.byte	W02
	.byte		PAN   , c_v-40
	.byte	W01
	.byte		N03   , Fs4 , v040
	.byte	W03
	.byte		        Fs4 , v032
	.byte	W02
	.byte		PAN   , c_v+0
	.byte	W01
	.byte		N03   , An4 , v060
	.byte	W03
	.byte		        An4 , v032
	.byte	W02
	.byte		PAN   , c_v+40
	.byte	W01
	.byte		N03   , Ds4 
	.byte	W03
	.byte		N03
	.byte	W02
	.byte		PAN   , c_v+0
	.byte	W01
	.byte	PEND
	.byte	PATT
	 .word	seq_039_10 + 0x191
	.byte		N03   , Cs5 , v100
	.byte	W03
	.byte		        Cs5 , v032
	.byte	W02
	.byte		PAN   , c_v-40
	.byte	W01
	.byte		N03   , Gn4 , v040
	.byte	W03
	.byte		        Gn4 , v032
	.byte	W02
	.byte		PAN   , c_v+40
	.byte	W01
	.byte		N03   , As4 , v060
	.byte	W03
	.byte		        As4 , v032
	.byte	W02
	.byte		PAN   , c_v+0
	.byte	W01
	.byte		N03   , En4 
	.byte	W03
	.byte		N03
	.byte	W02
	.byte		PAN   , c_v-40
	.byte	W01
	.byte		N03   , Cs5 , v100
	.byte	W03
	.byte		        Cs5 , v032
	.byte	W02
	.byte		PAN   , c_v+40
	.byte	W01
	.byte		N03   , Gn4 , v040
	.byte	W03
	.byte		        Gn4 , v032
	.byte	W02
	.byte		PAN   , c_v+0
	.byte	W01
	.byte		N03   , As4 , v060
	.byte	W03
	.byte		        As4 , v032
	.byte	W02
	.byte		PAN   , c_v-40
	.byte	W01
	.byte		N03   , En4 
	.byte	W03
	.byte		N03
	.byte	W02
	.byte		PAN   , c_v+40
	.byte	W01
	.byte		N03   , Cs5 , v100
	.byte	W03
	.byte		        Cs5 , v032
	.byte	W02
	.byte		PAN   , c_v+0
	.byte	W01
	.byte		N03   , Gn4 , v040
	.byte	W03
	.byte		        Gn4 , v032
	.byte	W02
	.byte		PAN   , c_v-40
	.byte	W01
	.byte		N03   , As4 , v060
	.byte	W03
	.byte		        As4 , v032
	.byte	W02
	.byte		PAN   , c_v+40
	.byte	W01
	.byte		N03   , En4 
	.byte	W03
	.byte		N03
	.byte	W02
	.byte		PAN   , c_v+0
	.byte	W01
	.byte		N03   , Cs5 , v100
	.byte	W03
	.byte		        Cs5 , v032
	.byte	W02
	.byte		PAN   , c_v-40
	.byte	W01
	.byte		N03   , Gn4 , v040
	.byte	W03
	.byte		        Gn4 , v032
	.byte	W02
	.byte		PAN   , c_v+0
	.byte	W01
	.byte		N03   , As4 , v060
	.byte	W03
	.byte		        As4 , v032
	.byte	W02
	.byte		PAN   , c_v+40
	.byte	W01
	.byte		N03   , En4 
	.byte	W03
	.byte		N03
	.byte	W02
	.byte		PAN   , c_v+0
	.byte	W01
	.byte	PEND
	.byte	PATT
	 .word	seq_039_10 + 0x22F
	.byte	PATT
	 .word	seq_039_10 + 0x191
	.byte	PATT
	 .word	seq_039_10 + 0x191
	.byte	PATT
	 .word	seq_039_10 + 0x22F
	.byte	PATT
	 .word	seq_039_10 + 0x22F
	.byte	PATT
	 .word	seq_039_10 + 0x191
	.byte	PATT
	 .word	seq_039_10 + 0x191
	.byte	PATT
	 .word	seq_039_10 + 0x22F
	.byte	PATT
	 .word	seq_039_10 + 0x22F
	.byte	PATT
	 .word	seq_039_10 + 0x191
	.byte		N03   , Cn5 , v100
	.byte	W03
	.byte		        Cn5 , v032
	.byte	W02
	.byte		PAN   , c_v-40
	.byte	W01
	.byte		N03   , Fs4 , v040
	.byte	W03
	.byte		        Fs4 , v032
	.byte	W02
	.byte		PAN   , c_v+40
	.byte	W01
	.byte		N03   , An4 , v060
	.byte	W03
	.byte		        An4 , v032
	.byte	W02
	.byte		PAN   , c_v+0
	.byte	W01
	.byte		N03   , Ds4 
	.byte	W03
	.byte		N03
	.byte	W02
	.byte		PAN   , c_v-40
	.byte	W01
	.byte		N03   , Cn5 , v100
	.byte	W03
	.byte		        Cn5 , v032
	.byte	W02
	.byte		PAN   , c_v+40
	.byte	W01
	.byte		N03   , Fs4 , v040
	.byte	W03
	.byte		        Fs4 , v032
	.byte	W02
	.byte		PAN   , c_v+0
	.byte	W01
	.byte		N03   , An4 , v060
	.byte	W03
	.byte		        An4 , v032
	.byte	W02
	.byte		PAN   , c_v-40
	.byte	W01
	.byte		N03   , Ds4 
	.byte	W03
	.byte		N03
	.byte	W02
	.byte		PAN   , c_v+40
	.byte	W01
	.byte		N03   , Cn5 , v100
	.byte	W03
	.byte		        Cn5 , v032
	.byte	W02
	.byte		PAN   , c_v+0
	.byte	W01
	.byte		N03   , Fs4 , v040
	.byte	W03
	.byte		        Fs4 , v032
	.byte	W02
	.byte		PAN   , c_v-40
	.byte	W01
	.byte		N03   , An4 , v060
	.byte	W03
	.byte		        An4 , v032
	.byte	W02
	.byte		PAN   , c_v+40
	.byte	W01
	.byte		N03   , Ds4 
	.byte	W03
	.byte		N03
	.byte	W02
	.byte		PAN   , c_v+0
	.byte	W01
	.byte		N03   , Cn5 , v100
	.byte	W03
	.byte		        Cn5 , v032
	.byte	W02
	.byte		PAN   , c_v-40
	.byte	W01
	.byte		N03   , Fs4 , v040
	.byte	W03
	.byte		        Fs4 , v032
	.byte	W02
	.byte		PAN   , c_v+0
	.byte	W01
	.byte		N03   , An4 , v060
	.byte	W03
	.byte		        An4 , v032
	.byte	W02
	.byte		PAN   , c_v+40
	.byte	W01
	.byte		N03   , Ds4 
	.byte	W03
	.byte		N03
	.byte	W03
	.byte	PEND
	.byte	W96
	.byte	W96
	.byte	W96
	.byte	W11
	.byte		PAN   , c_v+0
	.byte	W01
	.byte		N04   , Cs4 , v112
	.byte	W06
	.byte		        Cs4 , v036
	.byte	W05
	.byte		PAN   , c_v-63
	.byte	W01
	.byte		N04   , Gn4 , v112
	.byte	W06
	.byte		        Gn4 , v036
	.byte	W05
	.byte		PAN   , c_v+0
	.byte	W01
	.byte		N04   , Cs4 , v112
	.byte	W06
	.byte		        Cs4 , v036
	.byte	W17
	.byte		PAN   , c_v+63
	.byte	W01
	.byte		N04   , Gn4 , v112
	.byte	W06
	.byte		        Gn4 , v036
	.byte	W05
	.byte		PAN   , c_v+0
	.byte	W01
	.byte		N04   , Cs4 , v112
	.byte	W06
	.byte		        Cs4 , v080
	.byte	W06
	.byte		        Cs4 , v060
	.byte	W06
	.byte		        Cs4 , v036
	.byte	W06
	.byte	PEND
	.byte	W96
	.byte	W96
	.byte	W96
	.byte	PATT
	 .word	seq_039_10 + 0x393
	.byte	W96
	.byte	W96
	.byte	W96
	.byte	W96
	.byte	W96
	.byte	W96
	.byte	W12
	.byte		N03   , As3 , v100
	.byte	W03
	.byte		        As3 , v032
	.byte	W09
	.byte		        Cs4 , v100
	.byte	W03
	.byte		        Cs4 , v032
	.byte	W21
	.byte		        En4 , v100
	.byte	W03
	.byte		        En4 , v032
	.byte	W09
	.byte		        Gn4 , v100
	.byte	W03
	.byte		        Gn4 , v032
	.byte	W21
	.byte		        Fs4 , v100
	.byte	W03
	.byte		        Fs4 , v032
	.byte	W09
	.byte	W44
	.byte	W03
	.byte		PAN   , c_v+40
	.byte	W01
	.byte		N03   , An5 , v120
	.byte	W03
	.byte		        An5 , v032
	.byte	W02
	.byte		PAN   , c_v+0
	.byte	W01
	.byte		N03   , Ds5 , v060
	.byte	W03
	.byte		        Ds5 , v032
	.byte	W02
	.byte		PAN   , c_v-40
	.byte	W01
	.byte		N03   , Fs5 , v080
	.byte	W03
	.byte		        Fs5 , v032
	.byte	W02
	.byte		PAN   , c_v+40
	.byte	W01
	.byte		N03   , Cn5 , v052
	.byte	W03
	.byte		        Cn5 , v032
	.byte	W02
	.byte		PAN   , c_v+0
	.byte	W01
	.byte		N03   , Ds5 , v120
	.byte	W03
	.byte		        Ds5 , v032
	.byte	W02
	.byte		PAN   , c_v-40
	.byte	W01
	.byte		N03   , An4 , v060
	.byte	W03
	.byte		        An4 , v032
	.byte	W02
	.byte		PAN   , c_v+0
	.byte	W01
	.byte		N03   , Cn5 , v080
	.byte	W03
	.byte		        Cn5 , v032
	.byte	W02
	.byte		PAN   , c_v+40
	.byte	W01
	.byte		N03   , Fs4 , v052
	.byte	W03
	.byte		        Fs4 , v032
	.byte	W02
	.byte		PAN   , c_v+0
	.byte	W01
	.byte	PATT
	 .word	seq_039_10 + 0x22F
	.byte	PATT
	 .word	seq_039_10 + 0x22F
	.byte	PATT
	 .word	seq_039_10 + 0x191
	.byte	PATT
	 .word	seq_039_10 + 0x191
	.byte	PATT
	 .word	seq_039_10 + 0x22F
	.byte	PATT
	 .word	seq_039_10 + 0x22F
	.byte	PATT
	 .word	seq_039_10 + 0x191
	.byte	PATT
	 .word	seq_039_10 + 0x191
	.byte	PATT
	 .word	seq_039_10 + 0x22F
	.byte	PATT
	 .word	seq_039_10 + 0x22F
	.byte	PATT
	 .word	seq_039_10 + 0x191
	.byte	PATT
	 .word	seq_039_10 + 0x2FA
	.byte	GOTO
	 .word	seq_039_10 + 0x2EB
	.byte	FINE

@******************************************************@

	.align	2

seq_039:
	.byte	11	@ NumTrks
	.byte	0	@ NumBlks
	.byte	seq_039_pri	@ Priority
	.byte	seq_039_rev	@ Reverb

	.word	seq_039_grp

	.word	seq_039_0
	.word	seq_039_1
	.word	seq_039_2
	.word	seq_039_3
	.word	seq_039_4
	.word	seq_039_5
	.word	seq_039_6
	.word	seq_039_7
	.word	seq_039_8
	.word	seq_039_9
	.word	seq_039_10

	.end
