@ File generated by m4a2s Song-Module
	.include "MPlayDef.s"

	.equ	seq_513_grp, bank_028
	.equ	seq_513_pri, 127
	.equ	seq_513_rev, 0
	.equ	seq_513_mvl, 127
	.equ	seq_513_key, 0

	.section .rodata
	.global	seq_513
	.align	2

@*********************** Track 01 ***********************@

seq_513_0:
	.byte	KEYSH , seq_513_key+0
	.byte	TEMPO , 240/2
	.byte	W03
	.byte	W09
	.byte		VOICE , 9
	.byte		PAN   , c_v+0
	.byte		VOL   , 50*seq_513_mvl/mxv
	.byte	W01
	.byte		MOD   , 50
	.byte		BENDR , 13
	.byte		LFOS  , 97
	.byte		MODT  , mod_pan
	.byte		BEND  , c_v+0
	.byte	W01
	.byte		N11   , Fn2 , v127
	.byte	W01
	.byte	W11
	.byte		N06   , An3 , v092
	.byte	W01
	.byte	W05
	.byte		        Ds4 , v052
	.byte	W06
	.byte		        As4 , v040
	.byte	W01
	.byte	W05
	.byte		        As5 , v032
	.byte	W07
	.byte	W03
	.byte		VOICE , 29
	.byte		PAN   , c_v+0
	.byte		VOL   , 0*seq_513_mvl/mxv
	.byte	W01
	.byte		MOD   , 45
	.byte		BENDR , 14
	.byte		LFOS  , 90
	.byte		MODT  , mod_tre
	.byte		BEND  , c_v+17
	.byte	W01
	.byte		TIE   , Gs1 , v088
	.byte	W01
	.byte		VOL   , 1*seq_513_mvl/mxv
	.byte	W03
	.byte		        1*seq_513_mvl/mxv
	.byte	W03
	.byte		        1*seq_513_mvl/mxv
	.byte	W01
	.byte		        2*seq_513_mvl/mxv
	.byte		PAN   , c_v+10
	.byte	W05
	.byte		VOL   , 3*seq_513_mvl/mxv
	.byte		PAN   , c_v-10
	.byte	W01
	.byte		VOL   , 3*seq_513_mvl/mxv
	.byte	W04
	.byte		        3*seq_513_mvl/mxv
	.byte	W01
	.byte	W01
	.byte		        4*seq_513_mvl/mxv
	.byte		PAN   , c_v+10
	.byte	W01
	.byte		VOL   , 4*seq_513_mvl/mxv
	.byte	W03
	.byte		        6*seq_513_mvl/mxv
	.byte	W01
	.byte		        6*seq_513_mvl/mxv
	.byte		PAN   , c_v-10
	.byte	W04
	.byte		VOL   , 8*seq_513_mvl/mxv
	.byte	W02
	.byte		        10*seq_513_mvl/mxv
	.byte	W01
	.byte		        10*seq_513_mvl/mxv
	.byte		PAN   , c_v+10
	.byte	W03
	.byte		VOL   , 13*seq_513_mvl/mxv
	.byte	W01
	.byte		        15*seq_513_mvl/mxv
	.byte	W01
	.byte		PAN   , c_v-10
	.byte	W02
	.byte		VOL   , 18*seq_513_mvl/mxv
	.byte	W01
	.byte		        20*seq_513_mvl/mxv
	.byte	W02
	.byte		        22*seq_513_mvl/mxv
	.byte	W01
	.byte		        24*seq_513_mvl/mxv
	.byte	W01
	.byte		PAN   , c_v+10
	.byte	W02
	.byte		VOL   , 28*seq_513_mvl/mxv
	.byte	W01
	.byte		        29*seq_513_mvl/mxv
	.byte	W02
	.byte		        32*seq_513_mvl/mxv
	.byte		PAN   , c_v-10
	.byte	W01
	.byte		VOL   , 33*seq_513_mvl/mxv
	.byte	W01
	.byte		        34*seq_513_mvl/mxv
	.byte	W02
	.byte		        37*seq_513_mvl/mxv
	.byte	W01
	.byte		        44*seq_513_mvl/mxv
	.byte	W01
	.byte	W01
	.byte		        49*seq_513_mvl/mxv
	.byte		PAN   , c_v+10
	.byte	W01
	.byte		VOL   , 52*seq_513_mvl/mxv
	.byte	W01
	.byte		        54*seq_513_mvl/mxv
	.byte	W02
	.byte		        59*seq_513_mvl/mxv
	.byte	W01
	.byte		        62*seq_513_mvl/mxv
	.byte		PAN   , c_v-10
	.byte	W02
	.byte		VOL   , 67*seq_513_mvl/mxv
	.byte	W01
	.byte		        69*seq_513_mvl/mxv
	.byte	W01
	.byte		        72*seq_513_mvl/mxv
	.byte	W02
	.byte		        77*seq_513_mvl/mxv
	.byte	W01
	.byte		        80*seq_513_mvl/mxv
	.byte		PAN   , c_v+10
	.byte	W05
	.byte		        c_v-10
	.byte	W06
	.byte	W01
	.byte		PAN   , c_v+10
	.byte	W05
	.byte		        c_v-10
	.byte	W06
	.byte	PEND
	.byte	PATT
	 .word	seq_513_0 + 0xB4
	.byte	PATT
	 .word	seq_513_0 + 0xB4
	.byte	PATT
	 .word	seq_513_0 + 0xB4
	.byte	PATT
	 .word	seq_513_0 + 0xB4
	.byte	PATT
	 .word	seq_513_0 + 0xB4
	.byte	PATT
	 .word	seq_513_0 + 0xB4
	.byte	PATT
	 .word	seq_513_0 + 0xB4
	.byte	PATT
	 .word	seq_513_0 + 0xB4
	.byte		VOL   , 73*seq_513_mvl/mxv
	.byte	W01
	.byte		PAN   , c_v+10
	.byte	W01
	.byte		VOL   , 73*seq_513_mvl/mxv
	.byte	W01
	.byte		        72*seq_513_mvl/mxv
	.byte	W01
	.byte		        72*seq_513_mvl/mxv
	.byte	W01
	.byte		        71*seq_513_mvl/mxv
	.byte	W01
	.byte		        71*seq_513_mvl/mxv
	.byte		PAN   , c_v-10
	.byte	W01
	.byte		VOL   , 71*seq_513_mvl/mxv
	.byte	W01
	.byte		        71*seq_513_mvl/mxv
	.byte	W02
	.byte		        70*seq_513_mvl/mxv
	.byte	W01
	.byte		        69*seq_513_mvl/mxv
	.byte	W01
	.byte		        69*seq_513_mvl/mxv
	.byte	W01
	.byte		        69*seq_513_mvl/mxv
	.byte		PAN   , c_v+10
	.byte	W01
	.byte		VOL   , 68*seq_513_mvl/mxv
	.byte	W01
	.byte		        68*seq_513_mvl/mxv
	.byte	W01
	.byte		        68*seq_513_mvl/mxv
	.byte	W01
	.byte		        68*seq_513_mvl/mxv
	.byte	W01
	.byte		PAN   , c_v-10
	.byte	W01
	.byte		VOL   , 67*seq_513_mvl/mxv
	.byte	W01
	.byte		        66*seq_513_mvl/mxv
	.byte	W01
	.byte		        66*seq_513_mvl/mxv
	.byte	W01
	.byte		        66*seq_513_mvl/mxv
	.byte	W01
	.byte		        66*seq_513_mvl/mxv
	.byte	W01
	.byte		        65*seq_513_mvl/mxv
	.byte	W01
	.byte		        65*seq_513_mvl/mxv
	.byte		PAN   , c_v+10
	.byte	W02
	.byte		VOL   , 64*seq_513_mvl/mxv
	.byte	W01
	.byte		        64*seq_513_mvl/mxv
	.byte	W01
	.byte		        63*seq_513_mvl/mxv
	.byte	W01
	.byte		        63*seq_513_mvl/mxv
	.byte		PAN   , c_v-10
	.byte	W01
	.byte		VOL   , 62*seq_513_mvl/mxv
	.byte	W01
	.byte		        62*seq_513_mvl/mxv
	.byte	W01
	.byte		        62*seq_513_mvl/mxv
	.byte	W01
	.byte		        62*seq_513_mvl/mxv
	.byte	W02
	.byte		        61*seq_513_mvl/mxv
	.byte	W01
	.byte		        61*seq_513_mvl/mxv
	.byte		PAN   , c_v+10
	.byte	W01
	.byte		VOL   , 61*seq_513_mvl/mxv
	.byte	W01
	.byte		        60*seq_513_mvl/mxv
	.byte	W01
	.byte		        59*seq_513_mvl/mxv
	.byte	W01
	.byte		        59*seq_513_mvl/mxv
	.byte	W01
	.byte		        59*seq_513_mvl/mxv
	.byte		PAN   , c_v-10
	.byte	W01
	.byte		VOL   , 59*seq_513_mvl/mxv
	.byte	W02
	.byte		        58*seq_513_mvl/mxv
	.byte	W01
	.byte		        57*seq_513_mvl/mxv
	.byte	W01
	.byte		        57*seq_513_mvl/mxv
	.byte	W01
	.byte		        57*seq_513_mvl/mxv
	.byte	W01
	.byte		        57*seq_513_mvl/mxv
	.byte		PAN   , c_v+10
	.byte	W01
	.byte		VOL   , 56*seq_513_mvl/mxv
	.byte	W01
	.byte		        56*seq_513_mvl/mxv
	.byte	W02
	.byte		        55*seq_513_mvl/mxv
	.byte	W01
	.byte		        54*seq_513_mvl/mxv
	.byte		PAN   , c_v-10
	.byte	W01
	.byte		VOL   , 54*seq_513_mvl/mxv
	.byte	W01
	.byte		        53*seq_513_mvl/mxv
	.byte	W01
	.byte		        52*seq_513_mvl/mxv
	.byte	W01
	.byte		        52*seq_513_mvl/mxv
	.byte	W01
	.byte		        51*seq_513_mvl/mxv
	.byte	W01
	.byte		        51*seq_513_mvl/mxv
	.byte	W01
	.byte		PAN   , c_v+10
	.byte	W01
	.byte		VOL   , 49*seq_513_mvl/mxv
	.byte	W01
	.byte		        49*seq_513_mvl/mxv
	.byte	W01
	.byte		        48*seq_513_mvl/mxv
	.byte	W01
	.byte		        47*seq_513_mvl/mxv
	.byte	W01
	.byte		        47*seq_513_mvl/mxv
	.byte		PAN   , c_v-10
	.byte	W01
	.byte		VOL   , 46*seq_513_mvl/mxv
	.byte	W01
	.byte		        45*seq_513_mvl/mxv
	.byte	W01
	.byte		        45*seq_513_mvl/mxv
	.byte	W02
	.byte		        44*seq_513_mvl/mxv
	.byte	W01
	.byte		        43*seq_513_mvl/mxv
	.byte	W01
	.byte		        42*seq_513_mvl/mxv
	.byte		PAN   , c_v+10
	.byte	W01
	.byte		VOL   , 41*seq_513_mvl/mxv
	.byte	W01
	.byte		        40*seq_513_mvl/mxv
	.byte	W01
	.byte		        39*seq_513_mvl/mxv
	.byte	W01
	.byte		        37*seq_513_mvl/mxv
	.byte	W01
	.byte		PAN   , c_v-10
	.byte	W01
	.byte		VOL   , 35*seq_513_mvl/mxv
	.byte	W01
	.byte		        34*seq_513_mvl/mxv
	.byte	W01
	.byte		        32*seq_513_mvl/mxv
	.byte	W01
	.byte		        31*seq_513_mvl/mxv
	.byte	W01
	.byte		        30*seq_513_mvl/mxv
	.byte	W01
	.byte		        28*seq_513_mvl/mxv
	.byte	W01
	.byte		        27*seq_513_mvl/mxv
	.byte		PAN   , c_v+10
	.byte	W01
	.byte		VOL   , 26*seq_513_mvl/mxv
	.byte	W02
	.byte		        23*seq_513_mvl/mxv
	.byte	W01
	.byte		        22*seq_513_mvl/mxv
	.byte	W01
	.byte		        21*seq_513_mvl/mxv
	.byte		PAN   , c_v-10
	.byte	W01
	.byte		VOL   , 20*seq_513_mvl/mxv
	.byte	W01
	.byte		        18*seq_513_mvl/mxv
	.byte	W01
	.byte		        17*seq_513_mvl/mxv
	.byte	W01
	.byte		        16*seq_513_mvl/mxv
	.byte	W01
	.byte		EOT   , Gs1 
	.byte	W01
	.byte		VOICE , 9
	.byte		PAN   , c_v+0
	.byte		VOL   , 80*seq_513_mvl/mxv
	.byte	W01
	.byte		MOD   , 70
	.byte		BENDR , 13
	.byte		LFOS  , 97
	.byte		MODT  , mod_tre
	.byte		BEND  , c_v+48
	.byte	W01
	.byte		N10   , Cs3 , v072
	.byte	W03
	.byte		BEND  , c_v+38
	.byte	W01
	.byte		        c_v+34
	.byte	W01
	.byte		        c_v+31
	.byte	W01
	.byte		        c_v+28
	.byte	W01
	.byte		        c_v+26
	.byte	W01
	.byte		        c_v+22
	.byte	W01
	.byte		        c_v+18
	.byte	W01
	.byte		        c_v+16
	.byte		N12   , En3 
	.byte	W01
	.byte		BEND  , c_v+12
	.byte	W01
	.byte		        c_v+10
	.byte	W01
	.byte		        c_v+10
	.byte	W01
	.byte		        c_v+15
	.byte	W01
	.byte		        c_v+20
	.byte	W01
	.byte		        c_v+25
	.byte	W01
	.byte		        c_v+30
	.byte	W01
	.byte		        c_v+35
	.byte	W01
	.byte		        c_v+40
	.byte	W01
	.byte		        c_v+45
	.byte	W01
	.byte		        c_v+50
	.byte	W01
	.byte		        c_v+55
	.byte		N15   , As2 
	.byte	W01
	.byte		BEND  , c_v+61
	.byte	W11
	.byte	W12
	.byte	W02
	.byte		N10   , An2 
	.byte	W10
	.byte		N12   , Cs2 
	.byte	W12
	.byte		N15   , An2 
	.byte	W12
	.byte	W12
	.byte	W12
	.byte	W11
	.byte		MODT  , mod_pan
	.byte	W01
	.byte		N06   , Gn1 
	.byte	W06
	.byte		        Dn2 
	.byte	W06
	.byte		        Dn1 
	.byte	W06
	.byte		        Bn2 
	.byte	W06
	.byte		        Fs2 
	.byte	W06
	.byte		        Ds1 
	.byte	W06
	.byte		        As1 
	.byte	W06
	.byte		        As0 
	.byte	W06
	.byte		        En1 
	.byte	W06
	.byte		        Gs1 
	.byte	W06
	.byte		        As1 
	.byte	W03
	.byte	TEMPO , 204/2
	.byte	W03
	.byte		        Fn2 
	.byte	W06
	.byte		        Fn1 
	.byte	W06
	.byte		        Bn1 
	.byte	W06
	.byte		        Ds2 
	.byte	W06
	.byte		        Fn2 
	.byte	W06
	.byte		        Gn1 
	.byte	W06
	.byte		        Cn2 
	.byte	W03
	.byte	TEMPO , 104/2
	.byte	W03
	.byte		        Dn1 , v068
	.byte	W06
	.byte		        An1 
	.byte	W06
	.byte		        Cs1 
	.byte	W06
	.byte		        Bn1 , v072
	.byte	W06
	.byte		        En1 
	.byte	W06
	.byte		        An1 
	.byte	W06
	.byte		        Bn0 , v056
	.byte	W06
	.byte		        Gn1 , v048
	.byte	W06
	.byte	TEMPO , 144/2
	.byte		        Bn1 , v036
	.byte	W06
	.byte		        Dn1 , v024
	.byte	W06
	.byte		        An1 , v016
	.byte	W06
	.byte		        Cn1 , v012
	.byte	W06
	.byte		        Gn1 , v008
	.byte	W06
	.byte		        As0 , v004
	.byte	W05
	.byte		VOICE , 31
	.byte		MODT  , mod_tre
	.byte	W01
	.byte		N02   , Gs2 , v008
	.byte	W03
	.byte		        Cs1 , v012
	.byte	W03
	.byte		        Bn1 , v016
	.byte	W03
	.byte		        Ds2 , v020
	.byte	W03
	.byte		        En1 
	.byte	W03
	.byte		        Fs2 , v024
	.byte	W03
	.byte		        As1 , v028
	.byte	W03
	.byte		        Fs1 , v032
	.byte	W03
	.byte		        Cn3 
	.byte	W03
	.byte		        Fn1 , v036
	.byte	W03
	.byte		        Ds2 , v040
	.byte	W03
	.byte		        Gn2 , v044
	.byte	W03
	.byte		        Gs1 , v048
	.byte	W03
	.byte		        As2 
	.byte	W03
	.byte		        Dn2 , v052
	.byte	W03
	.byte		        As1 , v056
	.byte	W03
	.byte		        Fs3 , v060
	.byte	W03
	.byte		        Bn1 
	.byte	W03
	.byte		        An2 , v064
	.byte	W03
	.byte		        Cs3 , v068
	.byte	W03
	.byte		        Dn2 , v072
	.byte	W03
	.byte		        En3 , v076
	.byte	W03
	.byte		        Gs2 
	.byte	W03
	.byte		        En2 , v080
	.byte	W03
	.byte		        An3 , v084
	.byte	W03
	.byte		        Dn2 , v088
	.byte	W03
	.byte		        Cn3 
	.byte	W03
	.byte		        En3 , v092
	.byte	W03
	.byte		        Fn2 , v100
	.byte	W03
	.byte		        Gn3 , v104
	.byte	W03
	.byte		        Bn2 , v112
	.byte	W03
	.byte		        Gn2 , v116
	.byte	W03
	.byte		        Bn3 , v120
	.byte		N02   , Dn4 , v124
	.byte	W03
	.byte		        Gn2 
	.byte	W03
	.byte		        Fn3 
	.byte	W03
	.byte		        An3 
	.byte	W03
	.byte		        As2 
	.byte	W03
	.byte		        Cn4 
	.byte	W03
	.byte		        En3 
	.byte	W03
	.byte		        Cn3 
	.byte	W03
	.byte		        Cs4 
	.byte	W03
	.byte		        Fs2 
	.byte	W03
	.byte		        En3 
	.byte	W03
	.byte		        Gs3 
	.byte	W03
	.byte		        An2 , v120
	.byte	W03
	.byte		        Bn3 , v112
	.byte	W03
	.byte		        Ds3 , v108
	.byte	W03
	.byte		        Bn2 , v100
	.byte	W03
	.byte		        An3 , v096
	.byte	W03
	.byte		        Dn2 , v088
	.byte	W03
	.byte		        Cn3 , v076
	.byte	W03
	.byte		        En3 , v068
	.byte	W03
	.byte		        Fn2 , v056
	.byte	W03
	.byte		        Gn3 , v048
	.byte	W03
	.byte		        Bn2 , v036
	.byte	W03
	.byte		        Gn2 , v028
	.byte	W02
	.byte	FINE

@*********************** Track 02 ***********************@

seq_513_1:
	.byte	KEYSH , seq_513_key+0
	.byte		VOICE , 28
	.byte		PAN   , c_v+0
	.byte		VOL   , 80*seq_513_mvl/mxv
	.byte	W01
	.byte		MOD   , 90
	.byte		BENDR , 13
	.byte		LFOS  , 97
	.byte		MODT  , mod_pan
	.byte		BEND  , c_v+48
	.byte	W01
	.byte		N60   , En4 , v127
	.byte	W01
	.byte	W02
	.byte		BEND  , c_v+38
	.byte	W01
	.byte		        c_v+34
	.byte	W01
	.byte		        c_v+31
	.byte	W01
	.byte		        c_v+28
	.byte	W01
	.byte		        c_v+26
	.byte	W01
	.byte		VOL   , 73*seq_513_mvl/mxv
	.byte		BEND  , c_v+22
	.byte	W01
	.byte		        c_v+18
	.byte	W01
	.byte		        c_v+16
	.byte	W01
	.byte		VOL   , 69*seq_513_mvl/mxv
	.byte		BEND  , c_v+12
	.byte	W01
	.byte		        c_v+10
	.byte	W01
	.byte		        c_v+10
	.byte	W01
	.byte		VOL   , 65*seq_513_mvl/mxv
	.byte		BEND  , c_v+15
	.byte	W01
	.byte		        c_v+20
	.byte	W01
	.byte		        c_v+25
	.byte	W01
	.byte		VOL   , 61*seq_513_mvl/mxv
	.byte		BEND  , c_v+30
	.byte	W01
	.byte		        c_v+35
	.byte	W01
	.byte		        c_v+40
	.byte	W01
	.byte		VOL   , 57*seq_513_mvl/mxv
	.byte		BEND  , c_v+45
	.byte	W01
	.byte		        c_v+50
	.byte	W01
	.byte		        c_v+55
	.byte	W01
	.byte		VOL   , 54*seq_513_mvl/mxv
	.byte		BEND  , c_v+61
	.byte	W02
	.byte	W01
	.byte		VOL   , 50*seq_513_mvl/mxv
	.byte	W03
	.byte		        46*seq_513_mvl/mxv
	.byte	W03
	.byte		        42*seq_513_mvl/mxv
	.byte	W03
	.byte		        39*seq_513_mvl/mxv
	.byte	W02
	.byte	W01
	.byte		        35*seq_513_mvl/mxv
	.byte	W03
	.byte		        31*seq_513_mvl/mxv
	.byte	W03
	.byte		        27*seq_513_mvl/mxv
	.byte	W03
	.byte		        23*seq_513_mvl/mxv
	.byte	W02
	.byte	W01
	.byte		        20*seq_513_mvl/mxv
	.byte	W03
	.byte		        16*seq_513_mvl/mxv
	.byte	W03
	.byte		        12*seq_513_mvl/mxv
	.byte	W03
	.byte		        8*seq_513_mvl/mxv
	.byte	W01
	.byte		MODT  , mod_tre
	.byte	W01
	.byte		TIE   , Fs3 
	.byte	W01
	.byte		VOL   , 5*seq_513_mvl/mxv
	.byte	W04
	.byte		        5*seq_513_mvl/mxv
	.byte	W02
	.byte		        8*seq_513_mvl/mxv
	.byte	W01
	.byte		        11*seq_513_mvl/mxv
	.byte	W01
	.byte		        14*seq_513_mvl/mxv
	.byte	W01
	.byte		        17*seq_513_mvl/mxv
	.byte	W01
	.byte		        20*seq_513_mvl/mxv
	.byte	W01
	.byte		        24*seq_513_mvl/mxv
	.byte	W01
	.byte		        27*seq_513_mvl/mxv
	.byte	W01
	.byte		        30*seq_513_mvl/mxv
	.byte	W01
	.byte		        34*seq_513_mvl/mxv
	.byte	W01
	.byte		        37*seq_513_mvl/mxv
	.byte	W01
	.byte		        40*seq_513_mvl/mxv
	.byte	W01
	.byte		        44*seq_513_mvl/mxv
	.byte	W01
	.byte		        47*seq_513_mvl/mxv
	.byte	W01
	.byte		        50*seq_513_mvl/mxv
	.byte	W01
	.byte		        53*seq_513_mvl/mxv
	.byte	W02
	.byte		        59*seq_513_mvl/mxv
	.byte	W01
	.byte		        63*seq_513_mvl/mxv
	.byte	W01
	.byte		        66*seq_513_mvl/mxv
	.byte	W01
	.byte		        69*seq_513_mvl/mxv
	.byte	W01
	.byte		        73*seq_513_mvl/mxv
	.byte	W01
	.byte		        76*seq_513_mvl/mxv
	.byte	W01
	.byte		        80*seq_513_mvl/mxv
	.byte	W07
	.byte	W12
	.byte	W12
	.byte	W12
	.byte	W12
	.byte	W12
	.byte	W12
	.byte	W12
	.byte	W12
	.byte	W12
	.byte	W12
	.byte	W12
	.byte	W12
	.byte	W12
	.byte	W12
	.byte	W12
	.byte	W12
	.byte	W12
	.byte	W12
	.byte	W12
	.byte	W12
	.byte	W12
	.byte	W12
	.byte	W12
	.byte	W12
	.byte	W12
	.byte	W12
	.byte	W12
	.byte	W12
	.byte	W12
	.byte	W12
	.byte	W12
	.byte	W01
	.byte		        74*seq_513_mvl/mxv
	.byte	W03
	.byte		        73*seq_513_mvl/mxv
	.byte	W02
	.byte		        73*seq_513_mvl/mxv
	.byte	W03
	.byte		        72*seq_513_mvl/mxv
	.byte	W02
	.byte		        71*seq_513_mvl/mxv
	.byte	W01
	.byte	W02
	.byte		        71*seq_513_mvl/mxv
	.byte	W02
	.byte		        70*seq_513_mvl/mxv
	.byte	W03
	.byte		        69*seq_513_mvl/mxv
	.byte	W02
	.byte		        69*seq_513_mvl/mxv
	.byte	W02
	.byte		        68*seq_513_mvl/mxv
	.byte	W01
	.byte	W02
	.byte		        68*seq_513_mvl/mxv
	.byte	W02
	.byte		        67*seq_513_mvl/mxv
	.byte	W03
	.byte		        66*seq_513_mvl/mxv
	.byte	W02
	.byte		        66*seq_513_mvl/mxv
	.byte	W03
	.byte		        65*seq_513_mvl/mxv
	.byte	W02
	.byte		        64*seq_513_mvl/mxv
	.byte	W03
	.byte		        64*seq_513_mvl/mxv
	.byte	W02
	.byte		        63*seq_513_mvl/mxv
	.byte	W02
	.byte		        62*seq_513_mvl/mxv
	.byte	W03
	.byte		        62*seq_513_mvl/mxv
	.byte	W02
	.byte		        61*seq_513_mvl/mxv
	.byte	W03
	.byte		        61*seq_513_mvl/mxv
	.byte	W02
	.byte		        60*seq_513_mvl/mxv
	.byte	W03
	.byte		        59*seq_513_mvl/mxv
	.byte	W02
	.byte		        59*seq_513_mvl/mxv
	.byte	W03
	.byte		        58*seq_513_mvl/mxv
	.byte	W02
	.byte		        57*seq_513_mvl/mxv
	.byte	W02
	.byte		        57*seq_513_mvl/mxv
	.byte	W03
	.byte		        56*seq_513_mvl/mxv
	.byte	W02
	.byte		        56*seq_513_mvl/mxv
	.byte	W03
	.byte		        55*seq_513_mvl/mxv
	.byte	W02
	.byte		        54*seq_513_mvl/mxv
	.byte	W03
	.byte		        54*seq_513_mvl/mxv
	.byte	W02
	.byte		        54*seq_513_mvl/mxv
	.byte	W02
	.byte	W01
	.byte		        52*seq_513_mvl/mxv
	.byte	W02
	.byte		        51*seq_513_mvl/mxv
	.byte	W02
	.byte		        51*seq_513_mvl/mxv
	.byte	W03
	.byte		        49*seq_513_mvl/mxv
	.byte	W02
	.byte		        48*seq_513_mvl/mxv
	.byte	W02
	.byte	W01
	.byte		        47*seq_513_mvl/mxv
	.byte	W02
	.byte		        46*seq_513_mvl/mxv
	.byte	W03
	.byte		        45*seq_513_mvl/mxv
	.byte	W02
	.byte		        44*seq_513_mvl/mxv
	.byte	W03
	.byte		        42*seq_513_mvl/mxv
	.byte	W01
	.byte	W01
	.byte		        42*seq_513_mvl/mxv
	.byte	W02
	.byte		        40*seq_513_mvl/mxv
	.byte	W03
	.byte		        39*seq_513_mvl/mxv
	.byte	W02
	.byte		        39*seq_513_mvl/mxv
	.byte	W03
	.byte		        37*seq_513_mvl/mxv
	.byte	W01
	.byte	W01
	.byte		        36*seq_513_mvl/mxv
	.byte	W03
	.byte		        35*seq_513_mvl/mxv
	.byte	W02
	.byte		        34*seq_513_mvl/mxv
	.byte	W03
	.byte		        33*seq_513_mvl/mxv
	.byte	W02
	.byte		        32*seq_513_mvl/mxv
	.byte	W01
	.byte	W01
	.byte		        31*seq_513_mvl/mxv
	.byte	W03
	.byte		        30*seq_513_mvl/mxv
	.byte	W02
	.byte		        28*seq_513_mvl/mxv
	.byte	W03
	.byte		        27*seq_513_mvl/mxv
	.byte	W02
	.byte		EOT
	.byte		VOL   , 27*seq_513_mvl/mxv
	.byte	W01
	.byte		VOICE , 29
	.byte		PAN   , c_v+0
	.byte		VOL   , 0*seq_513_mvl/mxv
	.byte	W01
	.byte		MOD   , 45
	.byte		BENDR , 20
	.byte		LFOS  , 90
	.byte		MODT  , mod_tre
	.byte		BEND  , c_v-28
	.byte	W01
	.byte		TIE   , Fn2 , v052
	.byte	W01
	.byte		VOL   , 1*seq_513_mvl/mxv
	.byte	W03
	.byte		        1*seq_513_mvl/mxv
	.byte	W03
	.byte		        1*seq_513_mvl/mxv
	.byte	W01
	.byte		        2*seq_513_mvl/mxv
	.byte		PAN   , c_v+10
	.byte	W02
	.byte	W03
	.byte		VOL   , 3*seq_513_mvl/mxv
	.byte		PAN   , c_v-10
	.byte	W01
	.byte		VOL   , 3*seq_513_mvl/mxv
	.byte	W04
	.byte		        3*seq_513_mvl/mxv
	.byte	W02
	.byte		        4*seq_513_mvl/mxv
	.byte		PAN   , c_v+10
	.byte	W01
	.byte		VOL   , 4*seq_513_mvl/mxv
	.byte	W01
	.byte	W02
	.byte		        6*seq_513_mvl/mxv
	.byte	W01
	.byte		        6*seq_513_mvl/mxv
	.byte		PAN   , c_v-10
	.byte	W03
	.byte		BEND  , c_v-24
	.byte	W01
	.byte		VOL   , 8*seq_513_mvl/mxv
	.byte	W02
	.byte		        10*seq_513_mvl/mxv
	.byte	W01
	.byte		        10*seq_513_mvl/mxv
	.byte		PAN   , c_v+10
	.byte	W02
	.byte	W01
	.byte		VOL   , 13*seq_513_mvl/mxv
	.byte	W01
	.byte		        15*seq_513_mvl/mxv
	.byte		BEND  , c_v-22
	.byte	W01
	.byte		PAN   , c_v-10
	.byte	W02
	.byte		VOL   , 18*seq_513_mvl/mxv
	.byte	W01
	.byte		        20*seq_513_mvl/mxv
	.byte	W02
	.byte		        22*seq_513_mvl/mxv
	.byte	W01
	.byte		        24*seq_513_mvl/mxv
	.byte	W01
	.byte		PAN   , c_v+10
	.byte		BEND  , c_v-19
	.byte	W02
	.byte		VOL   , 28*seq_513_mvl/mxv
	.byte	W01
	.byte		        29*seq_513_mvl/mxv
	.byte	W02
	.byte		        32*seq_513_mvl/mxv
	.byte		PAN   , c_v-10
	.byte	W01
	.byte		VOL   , 33*seq_513_mvl/mxv
	.byte	W01
	.byte		        34*seq_513_mvl/mxv
	.byte	W01
	.byte		BEND  , c_v-16
	.byte	W01
	.byte		VOL   , 37*seq_513_mvl/mxv
	.byte	W01
	.byte		        44*seq_513_mvl/mxv
	.byte	W02
	.byte		        49*seq_513_mvl/mxv
	.byte		PAN   , c_v+10
	.byte	W01
	.byte		VOL   , 52*seq_513_mvl/mxv
	.byte	W01
	.byte		        54*seq_513_mvl/mxv
	.byte	W01
	.byte		BEND  , c_v-13
	.byte	W01
	.byte		VOL   , 59*seq_513_mvl/mxv
	.byte	W01
	.byte		        62*seq_513_mvl/mxv
	.byte		PAN   , c_v-10
	.byte	W02
	.byte		VOL   , 67*seq_513_mvl/mxv
	.byte	W01
	.byte		        69*seq_513_mvl/mxv
	.byte	W01
	.byte		        72*seq_513_mvl/mxv
	.byte	W02
	.byte		        77*seq_513_mvl/mxv
	.byte		BEND  , c_v-10
	.byte	W01
	.byte		VOL   , 80*seq_513_mvl/mxv
	.byte		PAN   , c_v+10
	.byte	W02
	.byte	W03
	.byte		        c_v-10
	.byte	W02
	.byte		BEND  , c_v-7
	.byte	W05
	.byte		PAN   , c_v+10
	.byte	W02
	.byte	W01
	.byte		BEND  , c_v-3
	.byte	W02
	.byte		PAN   , c_v-10
	.byte	W05
	.byte		BEND  , c_v+1
	.byte	W02
	.byte		PAN   , c_v+10
	.byte	W02
	.byte	W03
	.byte		        c_v-10
	.byte	W01
	.byte		BEND  , c_v+6
	.byte	W06
	.byte		PAN   , c_v+10
	.byte	W02
	.byte		BEND  , c_v+12
	.byte	W03
	.byte		PAN   , c_v-10
	.byte	W04
	.byte		BEND  , c_v+17
	.byte	W03
	.byte		PAN   , c_v+10
	.byte	W02
	.byte	W03
	.byte		        c_v-10
	.byte		BEND  , c_v+24
	.byte	W07
	.byte		PAN   , c_v+10
	.byte	W01
	.byte		BEND  , c_v+30
	.byte	W01
	.byte	W03
	.byte		PAN   , c_v-10
	.byte	W04
	.byte		BEND  , c_v+37
	.byte	W03
	.byte		PAN   , c_v+10
	.byte	W02
	.byte	W02
	.byte		BEND  , c_v+50
	.byte	W01
	.byte		PAN   , c_v-10
	.byte	W07
	.byte		        c_v+10
	.byte		BEND  , c_v+61
	.byte	W02
	.byte	W03
	.byte		PAN   , c_v-10
	.byte	W07
	.byte		        c_v+10
	.byte	W02
	.byte	PEND
	.byte	PATT
	 .word	seq_513_1 + 0x22B
	.byte	W03
	.byte		PAN   , c_v-10
	.byte	W06
	.byte		VOL   , 73*seq_513_mvl/mxv
	.byte	W01
	.byte		PAN   , c_v+10
	.byte	W01
	.byte		VOL   , 73*seq_513_mvl/mxv
	.byte	W01
	.byte		        72*seq_513_mvl/mxv
	.byte	W01
	.byte		        72*seq_513_mvl/mxv
	.byte	W01
	.byte		        71*seq_513_mvl/mxv
	.byte	W01
	.byte		        71*seq_513_mvl/mxv
	.byte		PAN   , c_v-10
	.byte	W01
	.byte		VOL   , 71*seq_513_mvl/mxv
	.byte	W01
	.byte		        71*seq_513_mvl/mxv
	.byte	W02
	.byte		        70*seq_513_mvl/mxv
	.byte	W01
	.byte		        69*seq_513_mvl/mxv
	.byte	W01
	.byte		        69*seq_513_mvl/mxv
	.byte	W01
	.byte		        69*seq_513_mvl/mxv
	.byte		PAN   , c_v+10
	.byte	W01
	.byte		VOL   , 68*seq_513_mvl/mxv
	.byte	W01
	.byte		        68*seq_513_mvl/mxv
	.byte	W01
	.byte		        68*seq_513_mvl/mxv
	.byte	W01
	.byte		        68*seq_513_mvl/mxv
	.byte	W01
	.byte		PAN   , c_v-10
	.byte	W01
	.byte		VOL   , 67*seq_513_mvl/mxv
	.byte	W01
	.byte		        66*seq_513_mvl/mxv
	.byte	W01
	.byte		        66*seq_513_mvl/mxv
	.byte	W01
	.byte		        66*seq_513_mvl/mxv
	.byte	W01
	.byte		        66*seq_513_mvl/mxv
	.byte	W01
	.byte		        65*seq_513_mvl/mxv
	.byte	W01
	.byte		        65*seq_513_mvl/mxv
	.byte		PAN   , c_v+10
	.byte	W02
	.byte		VOL   , 64*seq_513_mvl/mxv
	.byte	W01
	.byte		        64*seq_513_mvl/mxv
	.byte	W01
	.byte		        63*seq_513_mvl/mxv
	.byte	W01
	.byte		        63*seq_513_mvl/mxv
	.byte		PAN   , c_v-10
	.byte	W01
	.byte		VOL   , 62*seq_513_mvl/mxv
	.byte	W01
	.byte		        62*seq_513_mvl/mxv
	.byte	W01
	.byte		        62*seq_513_mvl/mxv
	.byte	W01
	.byte		        62*seq_513_mvl/mxv
	.byte	W02
	.byte		        61*seq_513_mvl/mxv
	.byte	W01
	.byte		        61*seq_513_mvl/mxv
	.byte		PAN   , c_v+10
	.byte	W01
	.byte		VOL   , 60*seq_513_mvl/mxv
	.byte	W01
	.byte		        59*seq_513_mvl/mxv
	.byte	W01
	.byte		        59*seq_513_mvl/mxv
	.byte	W01
	.byte		        58*seq_513_mvl/mxv
	.byte	W01
	.byte		        57*seq_513_mvl/mxv
	.byte		PAN   , c_v-10
	.byte	W01
	.byte		VOL   , 57*seq_513_mvl/mxv
	.byte	W02
	.byte		        56*seq_513_mvl/mxv
	.byte	W01
	.byte		        55*seq_513_mvl/mxv
	.byte	W01
	.byte		        54*seq_513_mvl/mxv
	.byte	W01
	.byte		        54*seq_513_mvl/mxv
	.byte	W01
	.byte		        53*seq_513_mvl/mxv
	.byte		PAN   , c_v+10
	.byte	W01
	.byte		VOL   , 52*seq_513_mvl/mxv
	.byte	W01
	.byte		        52*seq_513_mvl/mxv
	.byte	W02
	.byte		        51*seq_513_mvl/mxv
	.byte	W01
	.byte		        50*seq_513_mvl/mxv
	.byte		PAN   , c_v-10
	.byte	W01
	.byte		VOL   , 49*seq_513_mvl/mxv
	.byte	W01
	.byte		        49*seq_513_mvl/mxv
	.byte	W01
	.byte		        48*seq_513_mvl/mxv
	.byte	W01
	.byte		        47*seq_513_mvl/mxv
	.byte	W01
	.byte		        47*seq_513_mvl/mxv
	.byte	W01
	.byte		        46*seq_513_mvl/mxv
	.byte	W01
	.byte		PAN   , c_v+10
	.byte	W01
	.byte		VOL   , 45*seq_513_mvl/mxv
	.byte	W01
	.byte		        44*seq_513_mvl/mxv
	.byte	W01
	.byte		        44*seq_513_mvl/mxv
	.byte	W01
	.byte		        43*seq_513_mvl/mxv
	.byte	W01
	.byte		        42*seq_513_mvl/mxv
	.byte		PAN   , c_v-10
	.byte	W01
	.byte		VOL   , 41*seq_513_mvl/mxv
	.byte	W01
	.byte		        40*seq_513_mvl/mxv
	.byte	W01
	.byte		        39*seq_513_mvl/mxv
	.byte	W02
	.byte		        36*seq_513_mvl/mxv
	.byte	W01
	.byte		        34*seq_513_mvl/mxv
	.byte	W01
	.byte		        33*seq_513_mvl/mxv
	.byte		PAN   , c_v+10
	.byte	W01
	.byte		VOL   , 32*seq_513_mvl/mxv
	.byte	W01
	.byte		        30*seq_513_mvl/mxv
	.byte	W01
	.byte		        29*seq_513_mvl/mxv
	.byte	W01
	.byte		        27*seq_513_mvl/mxv
	.byte	W01
	.byte		PAN   , c_v-10
	.byte	W01
	.byte		VOL   , 25*seq_513_mvl/mxv
	.byte	W01
	.byte		        23*seq_513_mvl/mxv
	.byte	W01
	.byte		        22*seq_513_mvl/mxv
	.byte	W01
	.byte		        20*seq_513_mvl/mxv
	.byte	W01
	.byte		        19*seq_513_mvl/mxv
	.byte	W01
	.byte		        18*seq_513_mvl/mxv
	.byte	W01
	.byte		        17*seq_513_mvl/mxv
	.byte		PAN   , c_v+10
	.byte	W01
	.byte		VOL   , 15*seq_513_mvl/mxv
	.byte	W01
	.byte	W01
	.byte		        12*seq_513_mvl/mxv
	.byte	W01
	.byte		        11*seq_513_mvl/mxv
	.byte	W01
	.byte		        10*seq_513_mvl/mxv
	.byte		PAN   , c_v-10
	.byte	W01
	.byte		VOL   , 8*seq_513_mvl/mxv
	.byte	W01
	.byte		        6*seq_513_mvl/mxv
	.byte	W01
	.byte		        5*seq_513_mvl/mxv
	.byte	W01
	.byte		        4*seq_513_mvl/mxv
	.byte	W01
	.byte		EOT   , Fn2 
	.byte	FINE

@******************************************************@

	.align	2

seq_513:
	.byte	2	@ NumTrks
	.byte	0	@ NumBlks
	.byte	seq_513_pri	@ Priority
	.byte	seq_513_rev	@ Reverb

	.word	seq_513_grp

	.word	seq_513_0
	.word	seq_513_1

	.end
