@ File generated by m4a2s Song-Module
	.include "MPlayDef.s"

	.equ	seq_052_grp, bank_000
	.equ	seq_052_pri, 50
	.equ	seq_052_rev, 178
	.equ	seq_052_mvl, 127
	.equ	seq_052_key, 0

	.section .rodata
	.global	seq_052
	.align	2

@*********************** Track 01 ***********************@

seq_052_0:
	.byte	KEYSH , seq_052_key+0
	.byte	TEMPO , 100/2
	.byte		VOICE , 45
	.byte		VOL   , 100*seq_052_mvl/mxv
	.byte		PAN   , c_v+0
	.byte	W01
	.byte		MOD   , 50
	.byte		LFOS  , 30
	.byte		MODT  , mod_tre
	.byte	W11
	.byte		N05   , Cn4 , v028
	.byte	W06
	.byte		        Dn4 , v036
	.byte	W06
	.byte		        En4 , v052
	.byte	W06
	.byte		        Fn4 , v060
	.byte	W06
	.byte		        Gn4 , v080
	.byte	W23
	.byte		VOICE , 118
	.byte	W01
	.byte		VOL   , 92*seq_052_mvl/mxv
	.byte		N32   , Cn5 , v092
	.byte	W03
	.byte		VOL   , 88*seq_052_mvl/mxv
	.byte	W04
	.byte		        85*seq_052_mvl/mxv
	.byte	W04
	.byte		        81*seq_052_mvl/mxv
	.byte	W03
	.byte		        76*seq_052_mvl/mxv
	.byte	W02
	.byte		        70*seq_052_mvl/mxv
	.byte	W02
	.byte		        64*seq_052_mvl/mxv
	.byte	W02
	.byte		        57*seq_052_mvl/mxv
	.byte	W02
	.byte		        46*seq_052_mvl/mxv
	.byte	W02
	.byte		        39*seq_052_mvl/mxv
	.byte	W02
	.byte		        29*seq_052_mvl/mxv
	.byte	W02
	.byte		        18*seq_052_mvl/mxv
	.byte	W02
	.byte		        11*seq_052_mvl/mxv
	.byte	W02
	.byte		        4*seq_052_mvl/mxv
	.byte	W02
	.byte	FINE

@*********************** Track 02 ***********************@

seq_052_1:
	.byte	KEYSH , seq_052_key+0
	.byte	W02
	.byte		VOICE , 76
	.byte		VOL   , 74*seq_052_mvl/mxv
	.byte		MODT  , mod_tre
	.byte	W01
	.byte		MOD   , 50
	.byte		PAN   , c_v-30
	.byte		LFOS  , 60
	.byte	W09
	.byte		N03   , Cn4 , v072
	.byte	W06
	.byte		        Dn4 , v048
	.byte	W06
	.byte		        En4 , v056
	.byte	W06
	.byte		        Fn4 , v072
	.byte	W06
	.byte		N07   , Gn4 , v076
	.byte	W24
	.byte		VOL   , 66*seq_052_mvl/mxv
	.byte		N36   , Cn5 , v060
	.byte	W03
	.byte		VOL   , 64*seq_052_mvl/mxv
	.byte	W04
	.byte		        61*seq_052_mvl/mxv
	.byte	W04
	.byte		        57*seq_052_mvl/mxv
	.byte	W03
	.byte		        54*seq_052_mvl/mxv
	.byte	W02
	.byte		        51*seq_052_mvl/mxv
	.byte	W02
	.byte		        50*seq_052_mvl/mxv
	.byte	W02
	.byte		        47*seq_052_mvl/mxv
	.byte	W02
	.byte		        42*seq_052_mvl/mxv
	.byte	W02
	.byte		        34*seq_052_mvl/mxv
	.byte	W02
	.byte		        25*seq_052_mvl/mxv
	.byte	W02
	.byte		        14*seq_052_mvl/mxv
	.byte	W02
	.byte		        7*seq_052_mvl/mxv
	.byte	W02
	.byte		        0*seq_052_mvl/mxv
	.byte	W04
	.byte	FINE

@*********************** Track 03 ***********************@

seq_052_2:
	.byte	KEYSH , seq_052_key+0
	.byte	W04
	.byte		VOICE , 76
	.byte		VOL   , 74*seq_052_mvl/mxv
	.byte		MODT  , mod_tre
	.byte	W01
	.byte		MOD   , 50
	.byte		PAN   , c_v+20
	.byte		LFOS  , 60
	.byte	W07
	.byte		N03   , En4 , v072
	.byte	W06
	.byte		        Fn4 , v048
	.byte	W06
	.byte		        Gn4 , v056
	.byte	W06
	.byte		        An4 , v060
	.byte	W06
	.byte		N07   , Bn4 , v068
	.byte	W24
	.byte		VOL   , 66*seq_052_mvl/mxv
	.byte		N36   , Gn4 , v060
	.byte	W03
	.byte		VOL   , 64*seq_052_mvl/mxv
	.byte	W04
	.byte		        61*seq_052_mvl/mxv
	.byte	W04
	.byte		        57*seq_052_mvl/mxv
	.byte	W03
	.byte		        54*seq_052_mvl/mxv
	.byte	W02
	.byte		        51*seq_052_mvl/mxv
	.byte	W02
	.byte		        50*seq_052_mvl/mxv
	.byte	W02
	.byte		        47*seq_052_mvl/mxv
	.byte	W02
	.byte		        42*seq_052_mvl/mxv
	.byte	W02
	.byte		        34*seq_052_mvl/mxv
	.byte	W02
	.byte		        25*seq_052_mvl/mxv
	.byte	W02
	.byte		        14*seq_052_mvl/mxv
	.byte	W02
	.byte		        7*seq_052_mvl/mxv
	.byte	W02
	.byte		        0*seq_052_mvl/mxv
	.byte	W04
	.byte	FINE

@*********************** Track 04 ***********************@

seq_052_3:
	.byte	KEYSH , seq_052_key+0
	.byte	W06
	.byte		VOICE , 77
	.byte		VOL   , 47*seq_052_mvl/mxv
	.byte		PAN   , c_v+0
	.byte	W06
	.byte		N04   , Cn3 , v080
	.byte	W06
	.byte		        Dn3 
	.byte	W06
	.byte		        En3 
	.byte	W06
	.byte		        An3 
	.byte	W06
	.byte		        Bn3 
	.byte	W24
	.byte		N24   , Cn2 
	.byte	W24
	.byte	FINE

@*********************** Track 05 ***********************@

seq_052_4:
	.byte	KEYSH , seq_052_key+0
	.byte	W07
	.byte		VOICE , 78
	.byte		VOL   , 47*seq_052_mvl/mxv
	.byte		PAN   , c_v+0
	.byte	W05
	.byte		N04   , En3 , v080
	.byte	W06
	.byte		        Fn3 
	.byte	W06
	.byte		        Gn3 
	.byte	W06
	.byte		        Fn3 
	.byte	W06
	.byte		        Gn3 
	.byte	W24
	.byte		N24   , En3 
	.byte	W24
	.byte	FINE

@******************************************************@

	.align	2

seq_052:
	.byte	5	@ NumTrks
	.byte	0	@ NumBlks
	.byte	seq_052_pri	@ Priority
	.byte	seq_052_rev	@ Reverb

	.word	seq_052_grp

	.word	seq_052_0
	.word	seq_052_1
	.word	seq_052_2
	.word	seq_052_3
	.word	seq_052_4

	.end
