@ File generated by m4a2s Song-Module
	.include "MPlayDef.s"

	.equ	seq_111_grp, bank_014
	.equ	seq_111_pri, 50
	.equ	seq_111_rev, 198
	.equ	seq_111_mvl, 127
	.equ	seq_111_key, 0

	.section .rodata
	.global	seq_111
	.align	2

@*********************** Track 01 ***********************@

seq_111_0:
	.byte	KEYSH , seq_111_key+0
	.byte	TEMPO , 240/2
	.byte		VOICE , 127
	.byte	W01
	.byte		VOL   , 66*seq_111_mvl/mxv
	.byte	W01
	.byte		PAN   , c_v+0
	.byte	W01
	.byte		LFOS  , 0
	.byte	W01
	.byte		MODT  , mod_vib
	.byte	W01
	.byte		LFODL , 0
	.byte	W07
	.byte	TEMPO , 92/2
	.byte	W12
	.byte		N03   , Cn4 , v120
	.byte	W12
	.byte		N02   , Dn6 
	.byte	W12
	.byte		N03   , As5 , v080
	.byte	W12
	.byte		        Ds6 , v120
	.byte	W06
	.byte		        Ds6 , v080
	.byte	W18
	.byte		N02   , Cs6 
	.byte	W12
	.byte	PEND
	.byte	PATT
	 .word	seq_111_0 + 0x19
	.byte	PATT
	 .word	seq_111_0 + 0x19
	.byte	PATT
	 .word	seq_111_0 + 0x19
	.byte	PATT
	 .word	seq_111_0 + 0x19
	.byte	PATT
	 .word	seq_111_0 + 0x19
	.byte	PATT
	 .word	seq_111_0 + 0x19
	.byte	PATT
	 .word	seq_111_0 + 0x19
	.byte	PATT
	 .word	seq_111_0 + 0x19
	.byte	PATT
	 .word	seq_111_0 + 0x19
	.byte	PATT
	 .word	seq_111_0 + 0x19
	.byte	PATT
	 .word	seq_111_0 + 0x19
	.byte	PATT
	 .word	seq_111_0 + 0x19
	.byte	PATT
	 .word	seq_111_0 + 0x19
	.byte	PATT
	 .word	seq_111_0 + 0x19
	.byte	PATT
	 .word	seq_111_0 + 0x19
	.byte	PATT
	 .word	seq_111_0 + 0x19
	.byte	PATT
	 .word	seq_111_0 + 0x19
	.byte	PATT
	 .word	seq_111_0 + 0x19
	.byte	PATT
	 .word	seq_111_0 + 0x19
	.byte	PATT
	 .word	seq_111_0 + 0x19
	.byte	PATT
	 .word	seq_111_0 + 0x19
	.byte	PATT
	 .word	seq_111_0 + 0x19
	.byte	PATT
	 .word	seq_111_0 + 0x19
	.byte	PATT
	 .word	seq_111_0 + 0x19
	.byte	PATT
	 .word	seq_111_0 + 0x19
	.byte	PATT
	 .word	seq_111_0 + 0x19
	.byte	PATT
	 .word	seq_111_0 + 0x19
	.byte	PATT
	 .word	seq_111_0 + 0x19
	.byte	PATT
	 .word	seq_111_0 + 0x19
	.byte	PATT
	 .word	seq_111_0 + 0x19
	.byte		N03   , Cn4 , v120
	.byte	W12
	.byte		N02   , Dn6 
	.byte	W12
	.byte		N03   , As5 , v080
	.byte	W12
	.byte		        Ds6 , v120
	.byte	W06
	.byte		N02   , Ds6 , v080
	.byte	W02
	.byte		        En4 , v040
	.byte	W02
	.byte		        En4 , v060
	.byte	W02
	.byte		N03   , En4 , v100
	.byte	W06
	.byte		        En4 , v120
	.byte	W06
	.byte		N02   , Cs6 , v080
	.byte	W06
	.byte		N03   , En4 , v100
	.byte	W06
	.byte		N03   , Cn4 , v120
	.byte	W12
	.byte		N02   , Dn6 
	.byte	W12
	.byte		N03   , As4 
	.byte	W12
	.byte		        Ds6 
	.byte	W06
	.byte		        Ds6 , v080
	.byte	W18
	.byte		N02   , Cs6 
	.byte	W12
	.byte		N03   , En4 , v120
	.byte	W24
	.byte	PEND
	.byte	PATT
	 .word	seq_111_0 + 0xEB
	.byte	PATT
	 .word	seq_111_0 + 0xEB
	.byte		N03   , Cn4 , v120
	.byte	W12
	.byte		N02   , Dn6 
	.byte	W12
	.byte		N03   , As4 
	.byte	W12
	.byte		        Ds6 
	.byte	W06
	.byte		        Ds6 , v080
	.byte	W18
	.byte		        En4 , v120
	.byte	W12
	.byte		N02   , Cn4 
	.byte	W12
	.byte		N03   , En4 
	.byte	W12
	.byte		N03   , Cn4 , v120
	.byte	W12
	.byte		N02   , Dn6 
	.byte	W12
	.byte		N03   , Fn4 
	.byte	W12
	.byte		        Ds6 
	.byte	W06
	.byte		        Ds6 , v080
	.byte	W06
	.byte		        Cn4 , v120
	.byte	W12
	.byte		N02   , Cs6 , v080
	.byte	W12
	.byte		N03   , Fn4 , v120
	.byte	W24
	.byte	PEND
	.byte		        Cn4 
	.byte	W12
	.byte		N02   , Dn6 
	.byte	W12
	.byte		N03   , Fn4 
	.byte	W12
	.byte		        Ds6 
	.byte	W06
	.byte		        Ds6 , v080
	.byte	W06
	.byte		        Cn4 , v120
	.byte	W12
	.byte		N02   , Cn4 , v080
	.byte	W12
	.byte		N03   , Fn4 , v120
	.byte	W24
	.byte	PATT
	 .word	seq_111_0 + 0x124
	.byte		N03   , Cn4 , v120
	.byte	W12
	.byte		N02   , Fn4 , v100
	.byte	W12
	.byte		N03   , Fn4 , v120
	.byte	W12
	.byte		        Ds6 
	.byte	W06
	.byte		        Ds6 , v080
	.byte	W06
	.byte		        Cn4 , v120
	.byte	W12
	.byte		N02   , Cs6 , v080
	.byte	W12
	.byte		N03   , Fn4 , v120
	.byte	W12
	.byte		        Cn4 , v100
	.byte	W12
	.byte	GOTO
	 .word	seq_111_0 + 0x19
	.byte	FINE

@*********************** Track 02 ***********************@

seq_111_1:
	.byte	KEYSH , seq_111_key+0
	.byte		VOICE , 11
	.byte	W01
	.byte		VOL   , 49*seq_111_mvl/mxv
	.byte	W01
	.byte		PAN   , c_v-24
	.byte	W01
	.byte		LFOS  , 20
	.byte	W01
	.byte		MODT  , mod_pan
	.byte	W01
	.byte		LFODL , 0
	.byte	W19
	.byte	W72
	.byte	W72
	.byte	W72
	.byte	W72
	.byte		N02   , Gs4 , v120
	.byte	W02
	.byte		        Gs5 , v060
	.byte	W04
	.byte		        Gs4 , v040
	.byte	W02
	.byte		        Gs5 , v020
	.byte	W04
	.byte		        Fs4 , v120
	.byte	W02
	.byte		        Fs5 , v060
	.byte	W04
	.byte		        Gs4 , v120
	.byte	W02
	.byte		        Gs5 , v060
	.byte	W04
	.byte		        Ds4 , v120
	.byte	W02
	.byte		        Ds5 , v060
	.byte	W04
	.byte		        Ds4 , v040
	.byte	W02
	.byte		        Ds5 , v020
	.byte	W40
	.byte	PEND
	.byte	W48
	.byte		N02   , Fs4 , v120
	.byte	W02
	.byte		        Fs5 , v060
	.byte	W04
	.byte		        Fn4 , v120
	.byte	W02
	.byte		        Fn5 , v060
	.byte	W04
	.byte		        Ds4 , v120
	.byte	W02
	.byte		        Ds5 , v060
	.byte	W04
	.byte		        Cs4 , v120
	.byte	W02
	.byte		        Cs5 , v060
	.byte	W04
	.byte	PEND
	.byte		N02   , Ds4 , v120
	.byte	W02
	.byte		        Ds5 , v060
	.byte	W04
	.byte		        Ds4 , v040
	.byte	W02
	.byte		        Ds5 , v020
	.byte	W64
	.byte	PEND
	.byte	W12
	.byte		N02   , Gs4 , v040
	.byte	W02
	.byte		        Gs5 , v020
	.byte	W04
	.byte		        Gs4 , v040
	.byte	W02
	.byte		        Gs5 , v020
	.byte	W04
	.byte		        Fs4 , v040
	.byte	W02
	.byte		        Fs5 , v020
	.byte	W04
	.byte		        Gs4 , v040
	.byte	W02
	.byte		        Gs5 , v020
	.byte	W04
	.byte		        Ds4 , v040
	.byte	W02
	.byte		        Ds5 , v020
	.byte	W04
	.byte		        Ds4 , v040
	.byte	W02
	.byte		        Ds5 , v020
	.byte	W04
	.byte		        Ds4 
	.byte	W02
	.byte		        Ds5 
	.byte	W22
	.byte	PEND
	.byte	PATT
	 .word	seq_111_1 + 0x18
	.byte	PATT
	 .word	seq_111_1 + 0x3E
	.byte	PATT
	 .word	seq_111_1 + 0x59
	.byte	PATT
	 .word	seq_111_1 + 0x67
	.byte	W72
	.byte	W72
	.byte	W72
	.byte	W72
	.byte	PATT
	 .word	seq_111_1 + 0x18
	.byte	W72
	.byte	PATT
	 .word	seq_111_1 + 0x18
	.byte	PATT
	 .word	seq_111_1 + 0x3E
	.byte	PATT
	 .word	seq_111_1 + 0x59
	.byte	W72
	.byte	PATT
	 .word	seq_111_1 + 0x18
	.byte	W72
	.byte	PATT
	 .word	seq_111_1 + 0x18
	.byte	PATT
	 .word	seq_111_1 + 0x3E
	.byte	PATT
	 .word	seq_111_1 + 0x59
	.byte	PATT
	 .word	seq_111_1 + 0x67
	.byte	PATT
	 .word	seq_111_1 + 0x18
	.byte	PATT
	 .word	seq_111_1 + 0x3E
	.byte	PATT
	 .word	seq_111_1 + 0x59
	.byte	PATT
	 .word	seq_111_1 + 0x67
	.byte	W96
	.byte	W96
	.byte	W96
	.byte	W05
	.byte		VOL   , 27*seq_111_mvl/mxv
	.byte	W01
	.byte		N02   , As4 , v100
	.byte		N02   , Ds5 
	.byte	W02
	.byte		        As5 , v060
	.byte		N02   , Ds6 
	.byte	W04
	.byte		        Cn5 , v120
	.byte		N02   , Fn5 
	.byte	W02
	.byte		        Cn6 , v080
	.byte		N02   , Fn6 
	.byte	W04
	.byte		        As4 , v100
	.byte		N02   , Ds5 
	.byte	W02
	.byte		        As5 , v060
	.byte		N02   , Ds6 
	.byte	W04
	.byte		        Fn5 , v120
	.byte		N02   , As5 
	.byte	W02
	.byte		        Fn6 , v080
	.byte		N02   , As6 
	.byte	W04
	.byte		        Fn5 , v040
	.byte		N02   , As5 
	.byte	W02
	.byte		        Fn6 , v020
	.byte		N02   , As6 
	.byte	W04
	.byte		        Fn5 , v040
	.byte		N02   , As5 
	.byte	W02
	.byte		        Fn6 , v020
	.byte		N02   , As6 
	.byte	W03
	.byte		PAN   , c_v+26
	.byte	W01
	.byte		N02   , As4 , v100
	.byte		N02   , Ds5 
	.byte	W02
	.byte		        As5 , v060
	.byte		N02   , Ds6 
	.byte	W04
	.byte		        Cn5 , v120
	.byte		N02   , Fn5 
	.byte	W02
	.byte		        Cn6 , v080
	.byte		N02   , Fn6 
	.byte	W04
	.byte		        As4 , v100
	.byte		N02   , Ds5 
	.byte	W02
	.byte		        As5 , v060
	.byte		N02   , Ds6 
	.byte	W04
	.byte		        Fn5 , v120
	.byte		N02   , As5 
	.byte	W02
	.byte		        Fn6 , v080
	.byte		N02   , As6 
	.byte	W04
	.byte		        Fn5 , v040
	.byte		N02   , As5 
	.byte	W02
	.byte		        Fn6 , v020
	.byte		N02   , As6 
	.byte	W04
	.byte		        Fn5 , v040
	.byte		N02   , As5 
	.byte	W02
	.byte		        Fn6 , v020
	.byte		N02   , As6 
	.byte	W03
	.byte		PAN   , c_v-24
	.byte	W01
	.byte		N02   , As4 , v100
	.byte		N02   , Ds5 
	.byte	W02
	.byte		        As5 , v060
	.byte		N02   , Ds6 
	.byte	W04
	.byte		        Cn5 , v120
	.byte		N02   , Fn5 
	.byte	W02
	.byte		        Cn6 , v080
	.byte		N02   , Fn6 
	.byte	W04
	.byte		        As4 , v100
	.byte		N02   , Ds5 
	.byte	W02
	.byte		        As5 , v060
	.byte		N02   , Ds6 
	.byte	W02
	.byte		VOL   , 49*seq_111_mvl/mxv
	.byte	W02
	.byte	W96
	.byte	W96
	.byte	W96
	.byte	W96
	.byte	GOTO
	 .word	seq_111_1 + 0x14
	.byte	FINE

@*********************** Track 03 ***********************@

seq_111_2:
	.byte	KEYSH , seq_111_key+0
	.byte		VOICE , 24
	.byte	W01
	.byte		VOL   , 27*seq_111_mvl/mxv
	.byte	W01
	.byte		PAN   , c_v+26
	.byte	W01
	.byte		LFOS  , 20
	.byte	W01
	.byte		MODT  , mod_pan
	.byte	W01
	.byte		LFODL , 0
	.byte	W19
	.byte	W72
	.byte	W72
	.byte	W72
	.byte	W72
	.byte	W36
	.byte		N05   , Bn3 , v120
	.byte	W01
	.byte		        Ds4 
	.byte	W05
	.byte		        As3 , v100
	.byte	W01
	.byte		        Cs4 
	.byte	W05
	.byte		        Gs3 , v120
	.byte	W01
	.byte		        Bn3 
	.byte	W05
	.byte		        As3 , v100
	.byte	W01
	.byte		        Cs4 
	.byte	W05
	.byte		        Gs3 
	.byte	W01
	.byte		        Bn3 
	.byte	W05
	.byte		N02   , Gs3 , v040
	.byte	W01
	.byte		        Bn3 
	.byte	W05
	.byte	PEND
	.byte		N05   , Fs3 , v100
	.byte	W01
	.byte		        As3 
	.byte	W05
	.byte		N02   , Fs3 , v040
	.byte	W01
	.byte		        As3 
	.byte	W05
	.byte		N05   , Cs3 , v100
	.byte	W01
	.byte		        Fs3 
	.byte	W05
	.byte		N02   , Cs3 , v040
	.byte	W01
	.byte		        Fs3 
	.byte	W05
	.byte		N05   , Fs3 , v100
	.byte	W01
	.byte		        As3 
	.byte	W05
	.byte		N02   , Fs3 , v040
	.byte	W01
	.byte		        As3 
	.byte	W05
	.byte		N05   , Ds3 , v080
	.byte	W01
	.byte		        Gs3 
	.byte	W05
	.byte		N02   , Ds3 , v040
	.byte	W01
	.byte		        Gs3 
	.byte	W28
	.byte	W01
	.byte	PEND
	.byte	PATT
	 .word	seq_111_2 + 0x18
	.byte	PATT
	 .word	seq_111_2 + 0x39
	.byte	PATT
	 .word	seq_111_2 + 0x18
	.byte	PATT
	 .word	seq_111_2 + 0x39
	.byte	PATT
	 .word	seq_111_2 + 0x18
	.byte	PATT
	 .word	seq_111_2 + 0x39
	.byte	W72
	.byte	W72
	.byte	W72
	.byte	W72
	.byte	W72
	.byte	W72
	.byte	W72
	.byte	W72
	.byte	W72
	.byte	W72
	.byte	W72
	.byte	W72
	.byte	PATT
	 .word	seq_111_2 + 0x18
	.byte	PATT
	 .word	seq_111_2 + 0x39
	.byte	PATT
	 .word	seq_111_2 + 0x18
	.byte	PATT
	 .word	seq_111_2 + 0x39
	.byte	PATT
	 .word	seq_111_2 + 0x18
	.byte	PATT
	 .word	seq_111_2 + 0x39
	.byte	PATT
	 .word	seq_111_2 + 0x18
	.byte	PATT
	 .word	seq_111_2 + 0x39
	.byte	W96
	.byte	W96
	.byte	W96
	.byte	W96
	.byte	W96
	.byte	W96
	.byte	W96
	.byte	W96
	.byte	GOTO
	 .word	seq_111_2 + 0x14
	.byte	FINE

@*********************** Track 04 ***********************@

seq_111_3:
	.byte	KEYSH , seq_111_key+0
	.byte	W06
	.byte		VOICE , 6
	.byte	W01
	.byte		VOL   , 49*seq_111_mvl/mxv
	.byte	W01
	.byte		PAN   , c_v+0
	.byte	W01
	.byte		LFOS  , 30
	.byte	W01
	.byte		MODT  , mod_pan
	.byte	W01
	.byte		LFODL , 0
	.byte	W13
	.byte	W72
	.byte	W12
	.byte		N02   , As3 , v120
	.byte	W02
	.byte		        As4 , v060
	.byte	W04
	.byte		        Bn3 , v100
	.byte	W02
	.byte		        Bn4 , v060
	.byte	W04
	.byte		        As3 , v120
	.byte	W02
	.byte		        As4 , v060
	.byte	W04
	.byte		        Fs3 , v120
	.byte	W02
	.byte		        Fs4 , v060
	.byte	W04
	.byte		        Fn3 , v100
	.byte	W02
	.byte		        Fn4 , v060
	.byte	W04
	.byte		        Fn3 , v040
	.byte	W02
	.byte		        Fn4 , v020
	.byte	W04
	.byte		        Fs3 , v120
	.byte	W02
	.byte		        Fs4 , v060
	.byte	W04
	.byte		        Fn3 , v120
	.byte	W02
	.byte		        Fn4 , v060
	.byte	W04
	.byte		        Cs3 , v120
	.byte	W02
	.byte		        Cs4 , v060
	.byte	W04
	.byte		        Cs3 , v040
	.byte	W02
	.byte		        Cs4 , v020
	.byte	W04
	.byte	PEND
	.byte		N02   , Bn2 , v100
	.byte	W02
	.byte		        Bn3 , v040
	.byte	W04
	.byte		        Bn2 
	.byte	W02
	.byte		        Bn3 , v020
	.byte	W52
	.byte		        As3 , v120
	.byte	W02
	.byte		        As4 , v060
	.byte	W04
	.byte		        Bn3 , v100
	.byte	W02
	.byte		        Bn4 , v060
	.byte	W04
	.byte	PEND
	.byte		N02   , As3 , v120
	.byte	W02
	.byte		        As4 , v060
	.byte	W04
	.byte		        Fs3 , v120
	.byte	W02
	.byte		        Fs4 , v060
	.byte	W04
	.byte		        Fn3 , v100
	.byte	W02
	.byte		        Fn4 , v060
	.byte	W04
	.byte		        Fn3 , v040
	.byte	W02
	.byte		        Fn4 , v020
	.byte	W04
	.byte		        Fs3 , v120
	.byte	W02
	.byte		        Fs4 , v060
	.byte	W04
	.byte		        Fn3 , v120
	.byte	W02
	.byte		        Fn4 , v060
	.byte	W04
	.byte		        Cs3 , v120
	.byte	W02
	.byte		        Cs4 , v060
	.byte	W04
	.byte		        Cs3 , v040
	.byte	W02
	.byte		        Cs4 , v020
	.byte	W04
	.byte		        Bn2 , v100
	.byte	W02
	.byte		        Bn3 , v040
	.byte	W04
	.byte		        Bn2 
	.byte	W02
	.byte		        Bn3 , v020
	.byte	W16
	.byte	PEND
	.byte	W68
	.byte	W03
	.byte		MOD   , 60
	.byte	W01
	.byte		N02   , Gs4 , v120
	.byte	W02
	.byte		        Gs5 , v060
	.byte	W04
	.byte		        Gs4 , v040
	.byte	W02
	.byte		        Gs5 , v020
	.byte	W04
	.byte		        Fs4 , v120
	.byte	W02
	.byte		        Fs5 , v060
	.byte	W04
	.byte		        Gs4 , v100
	.byte	W02
	.byte		        Gs5 , v060
	.byte	W04
	.byte		        Ds4 , v120
	.byte	W02
	.byte		        Ds5 , v060
	.byte	W04
	.byte		        Ds4 , v040
	.byte	W02
	.byte		        Ds5 , v020
	.byte	W04
	.byte		        Fs4 , v040
	.byte	W02
	.byte		        Fs5 , v020
	.byte	W04
	.byte		        Gs4 , v040
	.byte	W02
	.byte		        Gs5 , v020
	.byte	W04
	.byte		        Ds4 , v040
	.byte	W02
	.byte		        Ds5 , v020
	.byte	W04
	.byte		        Ds4 
	.byte	W02
	.byte		        Ds5 
	.byte	W16
	.byte	PEND
	.byte	W48
	.byte		N02   , Gs4 , v120
	.byte	W02
	.byte		        Gs5 , v060
	.byte	W04
	.byte		        Gs4 , v040
	.byte	W02
	.byte		        Gs5 , v020
	.byte	W04
	.byte		        Fs4 , v120
	.byte	W02
	.byte		        Fs5 , v060
	.byte	W04
	.byte		        Gs4 , v100
	.byte	W02
	.byte		        Gs5 , v060
	.byte	W04
	.byte	PEND
	.byte		N02   , Ds4 , v120
	.byte	W02
	.byte		        Ds5 , v060
	.byte	W04
	.byte		        Ds4 , v040
	.byte	W02
	.byte		        Ds5 , v020
	.byte	W64
	.byte	PEND
	.byte	W72
	.byte	PATT
	 .word	seq_111_3 + 0xB0
	.byte	PATT
	 .word	seq_111_3 + 0xEC
	.byte	PATT
	 .word	seq_111_3 + 0x107
	.byte	W72
	.byte	PATT
	 .word	seq_111_3 + 0x16
	.byte	PATT
	 .word	seq_111_3 + 0x55
	.byte	PATT
	 .word	seq_111_3 + 0x6E
	.byte	W72
	.byte	W72
	.byte	W72
	.byte	W72
	.byte	W72
	.byte	PATT
	 .word	seq_111_3 + 0x16
	.byte	PATT
	 .word	seq_111_3 + 0x55
	.byte	PATT
	 .word	seq_111_3 + 0x6E
	.byte	W36
	.byte		N02   , Gs4 , v120
	.byte	W02
	.byte		        Gs5 , v060
	.byte	W04
	.byte		        Gs4 , v040
	.byte	W02
	.byte		        Gs5 , v020
	.byte	W04
	.byte		        Fs4 , v120
	.byte	W02
	.byte		        Fs5 , v060
	.byte	W04
	.byte		        Gs4 , v100
	.byte	W02
	.byte		        Gs5 , v060
	.byte	W04
	.byte		        Ds4 , v120
	.byte	W02
	.byte		        Ds5 , v060
	.byte	W04
	.byte		        Ds4 , v040
	.byte	W02
	.byte		        Ds5 , v020
	.byte	W04
	.byte	PEND
	.byte		N02   , Cs4 , v120
	.byte	W02
	.byte		        Cs5 , v060
	.byte	W04
	.byte		        Bn3 , v120
	.byte	W02
	.byte		        Bn4 , v060
	.byte	W04
	.byte		        As3 , v120
	.byte	W02
	.byte		        As4 , v060
	.byte	W56
	.byte	W02
	.byte	PEND
	.byte	W48
	.byte		N02   , Fs4 , v120
	.byte	W02
	.byte		        Fs5 , v060
	.byte	W04
	.byte		        Fn4 , v120
	.byte	W02
	.byte		        Fn5 , v060
	.byte	W04
	.byte		        Ds4 , v120
	.byte	W02
	.byte		        Ds5 , v060
	.byte	W04
	.byte		        Cs4 , v100
	.byte	W02
	.byte		        Cs5 , v060
	.byte	W04
	.byte	PEND
	.byte	PATT
	 .word	seq_111_3 + 0x107
	.byte	PATT
	 .word	seq_111_3 + 0x149
	.byte	PATT
	 .word	seq_111_3 + 0x170
	.byte	PATT
	 .word	seq_111_3 + 0x185
	.byte	PATT
	 .word	seq_111_3 + 0x107
	.byte	W96
	.byte	W96
	.byte	W96
	.byte	W96
	.byte	W96
	.byte	W96
	.byte	W96
	.byte	W06
	.byte		N02   , Ds4 , v100
	.byte	W02
	.byte		        Ds5 , v060
	.byte	W04
	.byte		        Fn4 , v120
	.byte	W02
	.byte		        Fn5 , v080
	.byte	W04
	.byte		        Ds4 , v100
	.byte	W02
	.byte		        Ds5 , v060
	.byte	W04
	.byte		        As4 , v120
	.byte	W02
	.byte		        As5 , v080
	.byte	W04
	.byte		        As4 , v040
	.byte	W02
	.byte		        As5 , v020
	.byte	W04
	.byte		        As4 , v040
	.byte	W02
	.byte		        As5 , v020
	.byte	W04
	.byte		        Ds4 , v100
	.byte	W02
	.byte		        Ds5 , v060
	.byte	W04
	.byte		        Fn4 , v120
	.byte	W02
	.byte		        Fn5 , v080
	.byte	W04
	.byte		        Ds4 , v100
	.byte	W02
	.byte		        Ds5 , v060
	.byte	W04
	.byte		        As4 , v120
	.byte	W02
	.byte		        As5 , v080
	.byte	W04
	.byte		        As4 , v040
	.byte	W02
	.byte		        As5 , v020
	.byte	W04
	.byte		        As4 , v040
	.byte	W02
	.byte		        As5 , v020
	.byte	W04
	.byte		        Ds4 , v100
	.byte	W02
	.byte		        Ds5 , v060
	.byte	W04
	.byte		        Fn4 , v120
	.byte	W02
	.byte		        Fn5 , v080
	.byte	W04
	.byte		        Ds4 , v100
	.byte	W02
	.byte		        Ds5 , v060
	.byte	W02
	.byte		MOD   , 0
	.byte	W02
	.byte	GOTO
	 .word	seq_111_3 + 0x15
	.byte	FINE

@*********************** Track 05 ***********************@

seq_111_4:
	.byte	KEYSH , seq_111_key+0
	.byte	W12
	.byte		VOICE , 22
	.byte	W01
	.byte		VOL   , 38*seq_111_mvl/mxv
	.byte	W01
	.byte		PAN   , c_v+0
	.byte	W01
	.byte		LFOS  , 20
	.byte	W01
	.byte		MODT  , mod_pan
	.byte	W01
	.byte		LFODL , 0
	.byte	W07
	.byte	W72
	.byte	W72
	.byte	W72
	.byte	W72
	.byte	W72
	.byte	W72
	.byte	W72
	.byte	W72
	.byte	W72
	.byte	W72
	.byte	W72
	.byte	W72
	.byte	W72
	.byte	W72
	.byte	W72
	.byte	W68
	.byte	W03
	.byte		MOD   , 60
	.byte	W01
	.byte		N36   , Ds3 , v120
	.byte	W02
	.byte		VOL   , 44*seq_111_mvl/mxv
	.byte	W03
	.byte		        49*seq_111_mvl/mxv
	.byte	W04
	.byte		        55*seq_111_mvl/mxv
	.byte	W03
	.byte		        60*seq_111_mvl/mxv
	.byte	W03
	.byte		        66*seq_111_mvl/mxv
	.byte	W21
	.byte		N24   , Gs3 , v100
	.byte	W24
	.byte		N12   , Cs4 
	.byte	W12
	.byte		N24   , Fs3 , v100
	.byte	W24
	.byte		N48   , Bn3 
	.byte	W21
	.byte		VOL   , 60*seq_111_mvl/mxv
	.byte	W06
	.byte		        55*seq_111_mvl/mxv
	.byte	W05
	.byte		        49*seq_111_mvl/mxv
	.byte	W06
	.byte		        44*seq_111_mvl/mxv
	.byte	W06
	.byte		        38*seq_111_mvl/mxv
	.byte	W04
	.byte	PEND
	.byte		N36   , Ds3 , v120
	.byte	W02
	.byte		VOL   , 44*seq_111_mvl/mxv
	.byte	W03
	.byte		        49*seq_111_mvl/mxv
	.byte	W04
	.byte		        55*seq_111_mvl/mxv
	.byte	W03
	.byte		        60*seq_111_mvl/mxv
	.byte	W03
	.byte		        66*seq_111_mvl/mxv
	.byte	W21
	.byte		N24   , Gs2 
	.byte	W24
	.byte		N12   , Cs3 
	.byte	W12
	.byte		N48   , Fs2 , v120
	.byte	W48
	.byte		N24   , Bn2 
	.byte	W24
	.byte	PEND
	.byte		N36   , Ds3 
	.byte	W36
	.byte		N24   , Gs3 
	.byte	W24
	.byte		N12   , Cs4 , v100
	.byte	W12
	.byte	PATT
	 .word	seq_111_4 + 0x3F
	.byte		N36   , Ds3 , v120
	.byte	W02
	.byte		VOL   , 44*seq_111_mvl/mxv
	.byte	W03
	.byte		        49*seq_111_mvl/mxv
	.byte	W04
	.byte		        55*seq_111_mvl/mxv
	.byte	W03
	.byte		        60*seq_111_mvl/mxv
	.byte	W03
	.byte		        66*seq_111_mvl/mxv
	.byte	W21
	.byte		N24   , Gs3 
	.byte	W24
	.byte		N12   , Cs3 
	.byte	W12
	.byte	PATT
	 .word	seq_111_4 + 0x67
	.byte	W72
	.byte	W48
	.byte		N17   , Gs2 , v120
	.byte	W17
	.byte		N07   , Gs2 , v040
	.byte	W07
	.byte	PEND
	.byte		N11   , Gs1 , v120
	.byte	W11
	.byte		N05   , Gs1 , v040
	.byte	W60
	.byte	W01
	.byte	PEND
	.byte	PATT
	 .word	seq_111_4 + 0x99
	.byte	W72
	.byte	PATT
	 .word	seq_111_4 + 0x99
	.byte	PATT
	 .word	seq_111_4 + 0xA3
	.byte	PATT
	 .word	seq_111_4 + 0x99
	.byte	W10
	.byte		MOD   , 0
	.byte	W01
	.byte		VOL   , 44*seq_111_mvl/mxv
	.byte	W01
	.byte		N12   , Dn4 , v080
	.byte		N12   , Fs4 , v120
	.byte	W11
	.byte		MOD   , 40
	.byte	W01
	.byte		N12   , En4 , v080
	.byte		N12   , Gs4 , v120
	.byte	W11
	.byte		MOD   , 60
	.byte	W01
	.byte		N12   , Fs4 , v080
	.byte		N12   , An4 , v120
	.byte	W11
	.byte		MOD   , 0
	.byte	W01
	.byte		N12   , Gs4 , v080
	.byte		N12   , Bn4 , v120
	.byte	W11
	.byte		MOD   , 40
	.byte	W01
	.byte		N12   , An4 , v080
	.byte		N12   , Cs5 , v120
	.byte	W11
	.byte		MOD   , 60
	.byte	W01
	.byte		N12   , Bn4 , v080
	.byte		N12   , Dn5 , v120
	.byte	W11
	.byte		MOD   , 100
	.byte	W01
	.byte		N12   , Bn4 , v080
	.byte		N12   , Ds5 , v120
	.byte	W11
	.byte		MOD   , 40
	.byte	W01
	.byte		N12   , Bn4 , v040
	.byte		N12   , Ds5 
	.byte	W11
	.byte		MOD   , 0
	.byte	W01
	.byte		N12   , Cs5 , v080
	.byte		N12   , Fn5 , v120
	.byte	W11
	.byte		MOD   , 40
	.byte	W01
	.byte		N12   , Ds5 , v080
	.byte		N12   , Gn5 , v120
	.byte	W11
	.byte		MOD   , 0
	.byte	W01
	.byte		N12   , Gn5 , v080
	.byte		N12   , As5 , v120
	.byte	W11
	.byte		MOD   , 40
	.byte	W01
	.byte		N12   , Fn5 , v080
	.byte		N12   , An5 , v120
	.byte	W11
	.byte		MOD   , 60
	.byte	W01
	.byte		N12   , Cn5 , v080
	.byte		N12   , Fn5 , v120
	.byte	W11
	.byte		MOD   , 40
	.byte	W01
	.byte		N12   , An4 , v080
	.byte		N12   , Cn5 , v120
	.byte	W11
	.byte		MOD   , 0
	.byte	W01
	.byte		N24   , Gs4 , v080
	.byte		N24   , Bn4 , v120
	.byte	W12
	.byte	PEND
	.byte	W12
	.byte		N18   , Gs4 , v040
	.byte		N18   , Bn4 
	.byte	W18
	.byte		N12   , Gs4 , v020
	.byte		N12   , Bn4 
	.byte	W28
	.byte	W01
	.byte		MOD   , 40
	.byte	W01
	.byte		N12   , Gs4 , v080
	.byte		N12   , Cs5 , v120
	.byte	W12
	.byte		        Fs4 , v080
	.byte		N12   , Bn4 , v120
	.byte	W11
	.byte		MOD   , 0
	.byte	W01
	.byte		N12   , Fn4 , v080
	.byte		N12   , As4 , v120
	.byte	W12
	.byte		N12   , Fn4 , v040
	.byte		N12   , As4 
	.byte	W12
	.byte		        Fn4 , v020
	.byte		N12   , As4 
	.byte	W84
	.byte	PEND
	.byte	W12
	.byte		        Dn4 , v080
	.byte		N12   , Fs4 , v120
	.byte	W11
	.byte		MOD   , 40
	.byte	W01
	.byte		N12   , En4 , v080
	.byte		N12   , Gs4 , v120
	.byte	W11
	.byte		MOD   , 60
	.byte	W01
	.byte		N12   , Fs4 , v080
	.byte		N12   , An4 , v120
	.byte	W11
	.byte		MOD   , 0
	.byte	W01
	.byte		N12   , Gs4 , v080
	.byte		N12   , Bn4 , v120
	.byte	W11
	.byte		MOD   , 40
	.byte	W01
	.byte		N12   , An4 , v080
	.byte		N12   , Cs5 , v120
	.byte	W11
	.byte		MOD   , 60
	.byte	W01
	.byte		N12   , Bn4 , v080
	.byte		N12   , Dn5 , v120
	.byte	W11
	.byte		MOD   , 100
	.byte	W01
	.byte		N12   , Bn4 , v080
	.byte		N12   , Ds5 , v120
	.byte	W11
	.byte		MOD   , 40
	.byte	W01
	.byte	PATT
	 .word	seq_111_4 + 0x10F
	.byte	W12
	.byte		N18   , Gs4 , v040
	.byte		N18   , Bn4 
	.byte	W18
	.byte		N12   , Gs4 , v020
	.byte		N12   , Bn4 
	.byte	W30
	.byte		        Gs4 , v080
	.byte		N12   , Cs5 , v120
	.byte	W12
	.byte		        Fs4 , v080
	.byte		N12   , Bn4 , v120
	.byte	W12
	.byte		        Fn4 , v080
	.byte		N12   , As4 , v120
	.byte	W12
	.byte	PATT
	 .word	seq_111_4 + 0x184
	.byte	GOTO
	 .word	seq_111_4 + 0x15
	.byte	FINE

@*********************** Track 06 ***********************@

seq_111_5:
	.byte	KEYSH , seq_111_key+0
	.byte	W06
	.byte		VOICE , 28
	.byte	W01
	.byte		VOL   , 66*seq_111_mvl/mxv
	.byte	W01
	.byte		PAN   , c_v+0
	.byte	W01
	.byte		LFOS  , 10
	.byte	W01
	.byte		MODT  , mod_pan
	.byte	W01
	.byte		LFODL , 0
	.byte	W13
	.byte		N12   , Ds2 , v120
	.byte		N12   , Gs3 
	.byte	W11
	.byte		MOD   , 40
	.byte	W01
	.byte		N12   , Ds2 , v080
	.byte		N12   , Gs3 
	.byte	W11
	.byte		MOD   , 60
	.byte	W01
	.byte		N12   , Ds2 , v040
	.byte		N12   , Gs3 
	.byte	W11
	.byte		MOD   , 80
	.byte	W01
	.byte		N12   , Ds2 , v020
	.byte		N12   , Gs3 
	.byte	W36
	.byte	PEND
	.byte	W72
	.byte	W72
	.byte	W68
	.byte	W03
	.byte		MOD   , 0
	.byte	W01
	.byte	PEND
	.byte		N12   , Gs3 , v120
	.byte	W11
	.byte		MOD   , 40
	.byte	W01
	.byte		N12   , Gs3 , v080
	.byte	W11
	.byte		MOD   , 60
	.byte	W01
	.byte		N12   , Gs3 , v040
	.byte	W11
	.byte		MOD   , 80
	.byte	W01
	.byte		N12   , Gs3 , v020
	.byte	W36
	.byte	PEND
	.byte	W72
	.byte	W72
	.byte	PATT
	 .word	seq_111_5 + 0x39
	.byte	PATT
	 .word	seq_111_5 + 0x3F
	.byte	W72
	.byte	W72
	.byte	PATT
	 .word	seq_111_5 + 0x39
	.byte	PATT
	 .word	seq_111_5 + 0x15
	.byte	W72
	.byte	W72
	.byte	W72
	.byte	W32
	.byte	W03
	.byte		MOD   , 0
	.byte	W01
	.byte		N12   , Ds3 , v080
	.byte	W11
	.byte		MOD   , 40
	.byte	W01
	.byte		N12   , Ds3 , v040
	.byte	W11
	.byte		MOD   , 60
	.byte	W01
	.byte		N12   , Ds3 , v020
	.byte	W11
	.byte		MOD   , 80
	.byte	W01
	.byte	PEND
	.byte	W72
	.byte	PATT
	 .word	seq_111_5 + 0x74
	.byte	PATT
	 .word	seq_111_5 + 0x39
	.byte	PATT
	 .word	seq_111_5 + 0x3F
	.byte	W72
	.byte	PATT
	 .word	seq_111_5 + 0x74
	.byte	PATT
	 .word	seq_111_5 + 0x39
	.byte	PATT
	 .word	seq_111_5 + 0x3F
	.byte	W72
	.byte	W72
	.byte	PATT
	 .word	seq_111_5 + 0x39
	.byte	PATT
	 .word	seq_111_5 + 0x3F
	.byte	W72
	.byte	W72
	.byte	PATT
	 .word	seq_111_5 + 0x39
	.byte		N12   , En3 , v120
	.byte	W11
	.byte		MOD   , 80
	.byte	W01
	.byte		N12   , En3 , v040
	.byte	W84
	.byte	PEND
	.byte	W96
	.byte	W96
	.byte	W92
	.byte	W03
	.byte		MOD   , 0
	.byte	W01
	.byte	PATT
	 .word	seq_111_5 + 0xC2
	.byte	W96
	.byte	W96
	.byte	W68
	.byte	W03
	.byte		MOD   , 40
	.byte	W01
	.byte		N12   , Ds3 , v120
	.byte	W11
	.byte		MOD   , 60
	.byte	W01
	.byte		N12   , Ds3 , v020
	.byte	W11
	.byte		MOD   , 0
	.byte	W01
	.byte	GOTO
	 .word	seq_111_5 + 0x15
	.byte	FINE

@*********************** Track 07 ***********************@

seq_111_6:
	.byte	KEYSH , seq_111_key+0
	.byte	W06
	.byte		VOICE , 58
	.byte	W01
	.byte		VOL   , 38*seq_111_mvl/mxv
	.byte	W01
	.byte		PAN   , c_v+0
	.byte	W01
	.byte		LFOS  , 20
	.byte	W01
	.byte		MODT  , mod_pan
	.byte	W01
	.byte		BENDR , 12
	.byte	W13
	.byte		TIE   , Gs1 , v120
	.byte	W48
	.byte		MOD   , 100
	.byte	W24
	.byte	PEND
	.byte	W72
	.byte	W72
	.byte	W68
	.byte	W03
	.byte		MOD   , 0
	.byte	W01
	.byte	PEND
	.byte		EOT   , Gs1 
	.byte	PATT
	 .word	seq_111_6 + 0x15
	.byte	W72
	.byte	W72
	.byte	PATT
	 .word	seq_111_6 + 0x1F
	.byte		EOT   , Gs1 
	.byte	PATT
	 .word	seq_111_6 + 0x15
	.byte	W72
	.byte	W72
	.byte	PATT
	 .word	seq_111_6 + 0x1F
	.byte		EOT   , Gs1 
	.byte	PATT
	 .word	seq_111_6 + 0x15
	.byte	W72
	.byte	W72
	.byte	W68
	.byte	W03
	.byte		BEND  , c_v-55
	.byte	W01
	.byte		EOT   , Gs1 
	.byte		TIE   , Gs2 , v080
	.byte	W04
	.byte		BEND  , c_v-40
	.byte	W01
	.byte		        c_v-24
	.byte	W01
	.byte		        c_v-16
	.byte	W01
	.byte		        c_v-8
	.byte	W01
	.byte		        c_v+0
	.byte	W64
	.byte	W52
	.byte	W01
	.byte		BEND  , c_v-8
	.byte	W02
	.byte		        c_v-12
	.byte	W02
	.byte		        c_v-16
	.byte	W01
	.byte		        c_v-20
	.byte	W01
	.byte		        c_v-24
	.byte	W01
	.byte		        c_v-28
	.byte	W01
	.byte		        c_v-32
	.byte	W01
	.byte		        c_v-36
	.byte	W01
	.byte		        c_v-40
	.byte	W01
	.byte		        c_v-43
	.byte	W01
	.byte		        c_v-47
	.byte	W01
	.byte		        c_v-51
	.byte	W01
	.byte		        c_v-55
	.byte	W01
	.byte		        c_v-59
	.byte	W02
	.byte		        c_v-64
	.byte	W02
	.byte	PEND
	.byte	W72
	.byte	W54
	.byte		        c_v-59
	.byte	W01
	.byte		        c_v-55
	.byte	W01
	.byte		        c_v-51
	.byte	W01
	.byte		        c_v-47
	.byte	W01
	.byte		        c_v-43
	.byte	W01
	.byte		        c_v-40
	.byte	W01
	.byte		        c_v-36
	.byte	W01
	.byte		        c_v-32
	.byte	W01
	.byte		        c_v-28
	.byte	W01
	.byte		        c_v-24
	.byte	W02
	.byte		        c_v-20
	.byte	W01
	.byte		        c_v-16
	.byte	W01
	.byte		        c_v-12
	.byte	W02
	.byte		        c_v-8
	.byte	W02
	.byte		        c_v-4
	.byte	W01
	.byte	W01
	.byte		        c_v+0
	.byte	W68
	.byte	W03
	.byte	PATT
	 .word	seq_111_6 + 0x60
	.byte	W72
	.byte	W54
	.byte		BEND  , c_v-59
	.byte	W01
	.byte		        c_v-55
	.byte	W01
	.byte		        c_v-51
	.byte	W01
	.byte		        c_v-47
	.byte	W01
	.byte		        c_v-43
	.byte	W01
	.byte		        c_v-40
	.byte	W01
	.byte		        c_v-36
	.byte	W01
	.byte		        c_v-32
	.byte	W01
	.byte		        c_v-28
	.byte	W01
	.byte		        c_v-24
	.byte	W02
	.byte		        c_v-20
	.byte	W01
	.byte		        c_v-16
	.byte	W01
	.byte		        c_v-12
	.byte	W02
	.byte		        c_v-8
	.byte	W01
	.byte		        c_v+0
	.byte	W01
	.byte		EOT   , Gs2 
	.byte		MOD   , 0
	.byte	W01
	.byte		N21   , Gs1 , v120
	.byte	W07
	.byte		MOD   , 100
	.byte	W64
	.byte	W01
	.byte	PEND
	.byte	W72
	.byte	W72
	.byte	PATT
	 .word	seq_111_6 + 0x1F
	.byte	PATT
	 .word	seq_111_6 + 0xD1
	.byte	W72
	.byte	W72
	.byte	W72
	.byte	W22
	.byte		MOD   , 80
	.byte	W01
	.byte		VOL   , 16*seq_111_mvl/mxv
	.byte	W01
	.byte		N60   , En2 , v080
	.byte	W13
	.byte		VOL   , 22*seq_111_mvl/mxv
	.byte	W14
	.byte		        27*seq_111_mvl/mxv
	.byte	W13
	.byte		        33*seq_111_mvl/mxv
	.byte	W13
	.byte		        38*seq_111_mvl/mxv
	.byte	W07
	.byte		N60   , Fn2 
	.byte	W12
	.byte	W48
	.byte		N36   , Gn2 , v080
	.byte	W36
	.byte		N72   , Fs2 
	.byte	W12
	.byte	PEND
	.byte	W19
	.byte		VOL   , 33*seq_111_mvl/mxv
	.byte	W08
	.byte		        27*seq_111_mvl/mxv
	.byte	W07
	.byte		        22*seq_111_mvl/mxv
	.byte	W08
	.byte		        27*seq_111_mvl/mxv
	.byte	W07
	.byte		        33*seq_111_mvl/mxv
	.byte	W07
	.byte		        38*seq_111_mvl/mxv
	.byte	W04
	.byte		N12   , Bn1 , v080
	.byte	W12
	.byte		        Cs2 
	.byte	W12
	.byte		TIE   , Ds2 
	.byte	W12
	.byte	PEND
	.byte	W44
	.byte		VOL   , 33*seq_111_mvl/mxv
	.byte	W15
	.byte		        27*seq_111_mvl/mxv
	.byte	W15
	.byte		        22*seq_111_mvl/mxv
	.byte	W22
	.byte		EOT
	.byte	W23
	.byte		VOL   , 16*seq_111_mvl/mxv
	.byte	W01
	.byte		N60   , En2 
	.byte	W13
	.byte		VOL   , 22*seq_111_mvl/mxv
	.byte	W14
	.byte		        27*seq_111_mvl/mxv
	.byte	W13
	.byte		        33*seq_111_mvl/mxv
	.byte	W13
	.byte		        38*seq_111_mvl/mxv
	.byte	W07
	.byte		N60   , Fn2 
	.byte	W12
	.byte	PATT
	 .word	seq_111_6 + 0x100
	.byte	PATT
	 .word	seq_111_6 + 0x109
	.byte	W32
	.byte		VOL   , 33*seq_111_mvl/mxv
	.byte	W08
	.byte		        27*seq_111_mvl/mxv
	.byte	W07
	.byte		        22*seq_111_mvl/mxv
	.byte	W08
	.byte		        27*seq_111_mvl/mxv
	.byte	W07
	.byte		        33*seq_111_mvl/mxv
	.byte	W07
	.byte		        38*seq_111_mvl/mxv
	.byte	W24
	.byte	W01
	.byte		MOD   , 0
	.byte	W02
	.byte		EOT   , Ds2 
	.byte	GOTO
	 .word	seq_111_6 + 0x15
	.byte	FINE

@*********************** Track 08 ***********************@

seq_111_7:
	.byte	KEYSH , seq_111_key+0
	.byte	W12
	.byte		VOICE , 123
	.byte	W01
	.byte		VOL   , 55*seq_111_mvl/mxv
	.byte	W01
	.byte		PAN   , c_v+0
	.byte	W01
	.byte		LFOS  , 10
	.byte	W01
	.byte		MODT  , mod_pan
	.byte	W01
	.byte		BENDR , 12
	.byte	W01
	.byte		MOD   , 20
	.byte	W06
	.byte		N18   , Gn1 , v120
	.byte	W18
	.byte		        Gn1 , v040
	.byte	W18
	.byte		N12   , Gn1 , v020
	.byte	W36
	.byte	PEND
	.byte	W72
	.byte	W72
	.byte	W72
	.byte	W72
	.byte	W72
	.byte	W72
	.byte	W72
	.byte	W72
	.byte	W72
	.byte	W72
	.byte	W72
	.byte	PATT
	 .word	seq_111_7 + 0x18
	.byte	W72
	.byte	W72
	.byte	W72
	.byte	W72
	.byte	W72
	.byte	W72
	.byte	W72
	.byte	W72
	.byte	W72
	.byte	W72
	.byte	W72
	.byte	W72
	.byte	W72
	.byte	W72
	.byte	W72
	.byte	W72
	.byte	W72
	.byte	W72
	.byte	W72
	.byte		N18   , Gn1 , v120
	.byte	W18
	.byte		        Gn1 , v040
	.byte	W18
	.byte		N12   , Gn1 , v020
	.byte	W60
	.byte	PEND
	.byte	W96
	.byte	W96
	.byte	W96
	.byte	PATT
	 .word	seq_111_7 + 0x47
	.byte	W96
	.byte	W96
	.byte	W72
	.byte		N18   , Gn1 , v120
	.byte	W18
	.byte		N06   , Gn1 , v040
	.byte	W06
	.byte	GOTO
	 .word	seq_111_7 + 0x18
	.byte	FINE

@*********************** Track 09 ***********************@

seq_111_8:
	.byte	KEYSH , seq_111_key+0
	.byte	W12
	.byte		VOICE , 101
	.byte	W01
	.byte		VOL   , 70*seq_111_mvl/mxv
	.byte	W01
	.byte		PAN   , c_v+0
	.byte	W01
	.byte		LFOS  , 20
	.byte	W01
	.byte		MODT  , mod_vib
	.byte	W01
	.byte		BENDR , 12
	.byte	W07
	.byte		N04   , Gs1 , v120
	.byte	W06
	.byte		        Gs1 , v040
	.byte	W06
	.byte		        Gs1 , v120
	.byte	W06
	.byte		        Gs1 , v040
	.byte	W06
	.byte		        Gs1 , v120
	.byte	W06
	.byte		        Gs1 , v040
	.byte	W06
	.byte		        Gs1 , v120
	.byte	W06
	.byte		        Gs1 , v040
	.byte	W06
	.byte		        Gs1 , v120
	.byte	W06
	.byte		        Gs1 , v040
	.byte	W06
	.byte		        Gs1 , v120
	.byte	W06
	.byte		        Gs1 , v040
	.byte	W06
	.byte	PEND
	.byte	PATT
	 .word	seq_111_8 + 0x15
	.byte	PATT
	 .word	seq_111_8 + 0x15
	.byte	PATT
	 .word	seq_111_8 + 0x15
	.byte	PATT
	 .word	seq_111_8 + 0x15
	.byte	PATT
	 .word	seq_111_8 + 0x15
	.byte	PATT
	 .word	seq_111_8 + 0x15
	.byte	PATT
	 .word	seq_111_8 + 0x15
	.byte	PATT
	 .word	seq_111_8 + 0x15
	.byte	PATT
	 .word	seq_111_8 + 0x15
	.byte	PATT
	 .word	seq_111_8 + 0x15
	.byte	PATT
	 .word	seq_111_8 + 0x15
	.byte	PATT
	 .word	seq_111_8 + 0x15
	.byte	PATT
	 .word	seq_111_8 + 0x15
	.byte	PATT
	 .word	seq_111_8 + 0x15
	.byte	PATT
	 .word	seq_111_8 + 0x15
	.byte	PATT
	 .word	seq_111_8 + 0x15
	.byte	PATT
	 .word	seq_111_8 + 0x15
	.byte	PATT
	 .word	seq_111_8 + 0x15
	.byte	PATT
	 .word	seq_111_8 + 0x15
	.byte	PATT
	 .word	seq_111_8 + 0x15
	.byte	PATT
	 .word	seq_111_8 + 0x15
	.byte	PATT
	 .word	seq_111_8 + 0x15
	.byte	PATT
	 .word	seq_111_8 + 0x15
	.byte	PATT
	 .word	seq_111_8 + 0x15
	.byte	PATT
	 .word	seq_111_8 + 0x15
	.byte	PATT
	 .word	seq_111_8 + 0x15
	.byte	PATT
	 .word	seq_111_8 + 0x15
	.byte	PATT
	 .word	seq_111_8 + 0x15
	.byte	PATT
	 .word	seq_111_8 + 0x15
	.byte	PATT
	 .word	seq_111_8 + 0x15
	.byte	PATT
	 .word	seq_111_8 + 0x15
	.byte		N04   , En1 , v120
	.byte	W06
	.byte		        En1 , v040
	.byte	W06
	.byte		        En1 , v120
	.byte	W06
	.byte		        En1 , v040
	.byte	W06
	.byte		        En1 , v120
	.byte	W06
	.byte		        En1 , v040
	.byte	W06
	.byte		        En1 , v120
	.byte	W06
	.byte		        En1 , v040
	.byte	W06
	.byte		        En1 , v120
	.byte	W06
	.byte		        En1 , v040
	.byte	W06
	.byte		        En1 , v120
	.byte	W06
	.byte		        En1 , v040
	.byte	W06
	.byte		        En1 , v120
	.byte	W06
	.byte		        En1 , v040
	.byte	W06
	.byte		N13   , Fn1 , v120
	.byte	W12
	.byte	PEND
	.byte	W06
	.byte		N04   , Fn1 , v040
	.byte	W06
	.byte		        Fn1 , v120
	.byte	W06
	.byte		        Fn1 , v040
	.byte	W06
	.byte		        Fn1 , v120
	.byte	W06
	.byte		        Fn1 , v040
	.byte	W06
	.byte		        Fn1 , v120
	.byte	W06
	.byte		        Fn1 , v040
	.byte	W06
	.byte		        Gn1 , v120
	.byte	W06
	.byte		        Gn1 , v040
	.byte	W06
	.byte		        Gn1 , v120
	.byte	W06
	.byte		        Gn1 , v040
	.byte	W06
	.byte		        Gn1 , v120
	.byte	W06
	.byte		        Gn1 , v040
	.byte	W06
	.byte		N13   , Fs1 , v120
	.byte	W12
	.byte	PEND
	.byte	W06
	.byte		N04   , Fs1 , v040
	.byte	W06
	.byte		        Fs1 , v120
	.byte	W06
	.byte		        Fs1 , v040
	.byte	W06
	.byte		        Fs1 , v120
	.byte	W06
	.byte		        Fs1 , v040
	.byte	W06
	.byte		        Fs1 , v120
	.byte	W06
	.byte		        Fs1 , v040
	.byte	W06
	.byte		        Fs1 , v120
	.byte	W06
	.byte		        Fs1 , v040
	.byte	W06
	.byte		        Bn1 , v120
	.byte	W06
	.byte		        Bn1 , v040
	.byte	W06
	.byte		        Cs2 , v120
	.byte	W06
	.byte		        Cs2 , v040
	.byte	W06
	.byte		N13   , Ds2 , v120
	.byte	W12
	.byte	PEND
	.byte	W06
	.byte		N04   , Ds2 , v040
	.byte	W06
	.byte		        Ds2 , v120
	.byte	W06
	.byte		        Ds2 , v040
	.byte	W06
	.byte		        Ds2 , v120
	.byte	W06
	.byte		        Ds2 , v040
	.byte	W06
	.byte		        Ds2 , v120
	.byte	W06
	.byte		        Ds2 , v040
	.byte	W06
	.byte		        Ds2 , v120
	.byte	W06
	.byte		        Ds2 , v040
	.byte	W06
	.byte		        Ds2 , v120
	.byte	W06
	.byte		        Ds2 , v040
	.byte	W06
	.byte		        Ds2 , v120
	.byte	W06
	.byte		        Ds2 , v040
	.byte	W06
	.byte		        Ds2 , v120
	.byte	W06
	.byte		        Ds2 , v040
	.byte	W06
	.byte	PEND
	.byte	PATT
	 .word	seq_111_8 + 0xD6
	.byte	PATT
	 .word	seq_111_8 + 0x106
	.byte	PATT
	 .word	seq_111_8 + 0x134
	.byte	PATT
	 .word	seq_111_8 + 0x162
	.byte	GOTO
	 .word	seq_111_8 + 0x15
	.byte	FINE

@*********************** Track 10 ***********************@

seq_111_9:
	.byte	KEYSH , seq_111_key+0
	.byte	W18
	.byte		VOICE , 78
	.byte	W01
	.byte		VOL   , 38*seq_111_mvl/mxv
	.byte	W01
	.byte		PAN   , c_v+0
	.byte	W01
	.byte		LFOS  , 10
	.byte	W01
	.byte		MODT  , mod_pan
	.byte	W01
	.byte		LFODL , 0
	.byte	W01
	.byte		N04   , Gs1 , v120
	.byte	W04
	.byte		N02   , Gs1 , v060
	.byte	W02
	.byte		N04   , Gs2 , v080
	.byte	W04
	.byte		N02   , Gs2 , v040
	.byte	W02
	.byte		N04   , Gs1 , v120
	.byte	W04
	.byte		N02   , Gs1 , v060
	.byte	W02
	.byte		N04   , Gs2 , v080
	.byte	W04
	.byte		N02   , Gs2 , v040
	.byte	W02
	.byte		N04   , Gs1 , v120
	.byte	W04
	.byte		N02   , Gs1 , v060
	.byte	W02
	.byte		N04   , Gs2 , v080
	.byte	W04
	.byte		N02   , Gs2 , v040
	.byte	W02
	.byte		N04   , Gs1 , v120
	.byte	W04
	.byte		N02   , Gs1 , v060
	.byte	W02
	.byte		N04   , Gs2 , v080
	.byte	W04
	.byte		N02   , Gs2 , v040
	.byte	W02
	.byte		N04   , Gs1 , v120
	.byte	W04
	.byte		N02   , Gs1 , v060
	.byte	W02
	.byte		N04   , Gs2 , v080
	.byte	W04
	.byte		N02   , Gs2 , v040
	.byte	W02
	.byte		N04   , Gs1 , v120
	.byte	W04
	.byte		N02   , Gs1 , v060
	.byte	W02
	.byte		N04   , Gs2 , v080
	.byte	W04
	.byte		N02   , Gs2 , v040
	.byte	W02
	.byte	PEND
	.byte	PATT
	 .word	seq_111_9 + 0x15
	.byte	PATT
	 .word	seq_111_9 + 0x15
	.byte		N04   , Gs1 , v120
	.byte	W04
	.byte		N02   , Gs1 , v060
	.byte	W02
	.byte		N04   , Gs2 , v080
	.byte	W04
	.byte		N02   , Gs2 , v040
	.byte	W02
	.byte		N04   , Gs1 , v120
	.byte	W04
	.byte		N02   , Gs1 , v060
	.byte	W02
	.byte		N04   , Gs2 , v080
	.byte	W04
	.byte		N02   , Gs2 , v040
	.byte	W02
	.byte		N04   , Gs1 , v120
	.byte	W04
	.byte		N02   , Gs1 , v060
	.byte	W02
	.byte		N04   , Gs2 , v080
	.byte	W04
	.byte		N02   , Gs2 , v040
	.byte	W02
	.byte		N04   , Gs1 , v120
	.byte	W04
	.byte		N02   , Gs1 , v060
	.byte	W02
	.byte		N04   , Gs2 , v080
	.byte	W04
	.byte		N02   , Gs2 , v040
	.byte	W02
	.byte		N04   , Bn1 , v120
	.byte	W04
	.byte		N02   , Bn1 , v060
	.byte	W02
	.byte		N04   , Ds2 , v120
	.byte	W04
	.byte		N02   , Ds2 , v060
	.byte	W02
	.byte		N04   , Gs2 , v120
	.byte	W04
	.byte		N02   , Gs2 , v060
	.byte	W02
	.byte		N04   , Bn2 , v120
	.byte	W04
	.byte		N02   , Bn2 , v060
	.byte	W02
	.byte	PEND
	.byte	PATT
	 .word	seq_111_9 + 0x15
	.byte	PATT
	 .word	seq_111_9 + 0x15
	.byte	PATT
	 .word	seq_111_9 + 0x15
	.byte	PATT
	 .word	seq_111_9 + 0x80
	.byte	PATT
	 .word	seq_111_9 + 0x15
	.byte	PATT
	 .word	seq_111_9 + 0x15
	.byte	PATT
	 .word	seq_111_9 + 0x15
	.byte	PATT
	 .word	seq_111_9 + 0x80
	.byte	PATT
	 .word	seq_111_9 + 0x15
	.byte	PATT
	 .word	seq_111_9 + 0x15
	.byte	PATT
	 .word	seq_111_9 + 0x15
	.byte	PATT
	 .word	seq_111_9 + 0x80
	.byte	PATT
	 .word	seq_111_9 + 0x15
	.byte	PATT
	 .word	seq_111_9 + 0x15
	.byte	PATT
	 .word	seq_111_9 + 0x15
	.byte	PATT
	 .word	seq_111_9 + 0x80
	.byte	PATT
	 .word	seq_111_9 + 0x15
	.byte	PATT
	 .word	seq_111_9 + 0x15
	.byte	PATT
	 .word	seq_111_9 + 0x15
	.byte	PATT
	 .word	seq_111_9 + 0x80
	.byte	PATT
	 .word	seq_111_9 + 0x15
	.byte	PATT
	 .word	seq_111_9 + 0x15
	.byte	PATT
	 .word	seq_111_9 + 0x15
	.byte	PATT
	 .word	seq_111_9 + 0x80
	.byte	PATT
	 .word	seq_111_9 + 0x15
	.byte	PATT
	 .word	seq_111_9 + 0x15
	.byte	PATT
	 .word	seq_111_9 + 0x15
	.byte	PATT
	 .word	seq_111_9 + 0x80
	.byte		N04   , En1 , v120
	.byte	W04
	.byte		N02   , En1 , v060
	.byte	W02
	.byte		N04   , En2 , v080
	.byte	W04
	.byte		N02   , En2 , v040
	.byte	W02
	.byte		N04   , En1 , v120
	.byte	W04
	.byte		N02   , En1 , v060
	.byte	W02
	.byte		N04   , En2 , v080
	.byte	W04
	.byte		N02   , En2 , v040
	.byte	W02
	.byte		N04   , En1 , v120
	.byte	W04
	.byte		N02   , En1 , v060
	.byte	W02
	.byte		N04   , En2 , v080
	.byte	W04
	.byte		N02   , En2 , v040
	.byte	W02
	.byte		N04   , En1 , v120
	.byte	W04
	.byte		N02   , En1 , v060
	.byte	W02
	.byte		N04   , En2 , v080
	.byte	W04
	.byte		N02   , En2 , v040
	.byte	W02
	.byte		N04   , En1 , v120
	.byte	W04
	.byte		N02   , En1 , v060
	.byte	W02
	.byte		N04   , En2 , v080
	.byte	W04
	.byte		N02   , En2 , v040
	.byte	W02
	.byte		N04   , En1 , v120
	.byte	W04
	.byte		N02   , En1 , v060
	.byte	W02
	.byte		N04   , En2 , v080
	.byte	W04
	.byte		N02   , En2 , v040
	.byte	W02
	.byte		N04   , En1 , v120
	.byte	W04
	.byte		N02   , En1 , v060
	.byte	W02
	.byte		N04   , En2 , v080
	.byte	W04
	.byte		N02   , En2 , v040
	.byte	W02
	.byte		N04   , Fn1 , v120
	.byte	W04
	.byte		N02   , Fn1 , v060
	.byte	W02
	.byte		N04   , Fn2 , v080
	.byte	W04
	.byte		N02   , Fn2 , v040
	.byte	W02
	.byte	PEND
	.byte		N04   , Fn1 , v120
	.byte	W04
	.byte		N02   , Fn1 , v060
	.byte	W02
	.byte		N04   , Fn2 , v080
	.byte	W04
	.byte		N02   , Fn2 , v040
	.byte	W02
	.byte		N04   , Fn1 , v120
	.byte	W04
	.byte		N02   , Fn1 , v060
	.byte	W02
	.byte		N04   , Fn2 , v080
	.byte	W04
	.byte		N02   , Fn2 , v040
	.byte	W02
	.byte		N04   , Fn1 , v120
	.byte	W04
	.byte		N02   , Fn1 , v060
	.byte	W02
	.byte		N04   , Fn2 , v080
	.byte	W04
	.byte		N02   , Fn2 , v040
	.byte	W02
	.byte		N04   , Fn1 , v120
	.byte	W04
	.byte		N02   , Fn1 , v060
	.byte	W02
	.byte		N04   , Fn2 , v080
	.byte	W04
	.byte		N02   , Fn2 , v040
	.byte	W02
	.byte		N04   , Gn1 , v120
	.byte	W04
	.byte		N02   , Gn1 , v060
	.byte	W02
	.byte		N04   , Gn2 , v080
	.byte	W04
	.byte		N02   , Gn2 , v040
	.byte	W02
	.byte		N04   , Gn1 , v120
	.byte	W04
	.byte		N02   , Gn1 , v060
	.byte	W02
	.byte		N04   , Gn2 , v080
	.byte	W04
	.byte		N02   , Gn2 , v040
	.byte	W02
	.byte		N04   , Gn1 , v120
	.byte	W04
	.byte		N02   , Gn1 , v060
	.byte	W02
	.byte		N04   , Gn2 , v080
	.byte	W04
	.byte		N02   , Gn2 , v040
	.byte	W02
	.byte		N04   , Fs1 , v120
	.byte	W04
	.byte		N02   , Fs1 , v060
	.byte	W02
	.byte		N04   , Fs2 , v080
	.byte	W04
	.byte		N02   , Fs2 , v040
	.byte	W02
	.byte	PEND
	.byte		N04   , Fs1 , v120
	.byte	W04
	.byte		N02   , Fs1 , v060
	.byte	W02
	.byte		N04   , Fs2 , v080
	.byte	W04
	.byte		N02   , Fs2 , v040
	.byte	W02
	.byte		N04   , Fs1 , v120
	.byte	W04
	.byte		N02   , Fs1 , v060
	.byte	W02
	.byte		N04   , Fs2 , v080
	.byte	W04
	.byte		N02   , Fs2 , v040
	.byte	W02
	.byte		N04   , Fs1 , v120
	.byte	W04
	.byte		N02   , Fs1 , v060
	.byte	W02
	.byte		N04   , Fs2 , v080
	.byte	W04
	.byte		N02   , Fs2 , v040
	.byte	W02
	.byte		N04   , Fs1 , v120
	.byte	W04
	.byte		N02   , Fs1 , v060
	.byte	W02
	.byte		N04   , Fs2 , v080
	.byte	W04
	.byte		N02   , Fs2 , v040
	.byte	W02
	.byte		N04   , Fs1 , v120
	.byte	W04
	.byte		N02   , Fs1 , v060
	.byte	W02
	.byte		N04   , Fs2 , v080
	.byte	W04
	.byte		N02   , Fs2 , v040
	.byte	W02
	.byte		N04   , Bn0 , v120
	.byte	W04
	.byte		N02   , Bn0 , v060
	.byte	W02
	.byte		N04   , Bn1 , v080
	.byte	W04
	.byte		N02   , Bn1 , v040
	.byte	W02
	.byte		N04   , Cs1 , v120
	.byte	W04
	.byte		N02   , Cs1 , v060
	.byte	W02
	.byte		N04   , Cs2 , v080
	.byte	W04
	.byte		N02   , Cs2 , v040
	.byte	W02
	.byte		N04   , Ds1 , v120
	.byte	W04
	.byte		N02   , Ds1 , v060
	.byte	W02
	.byte		N04   , Ds2 , v080
	.byte	W04
	.byte		N02   , Ds2 , v040
	.byte	W02
	.byte	PEND
	.byte		N04   , Ds1 , v120
	.byte	W04
	.byte		N02   , Ds1 , v060
	.byte	W02
	.byte		N04   , Ds2 , v080
	.byte	W04
	.byte		N02   , Ds2 , v040
	.byte	W02
	.byte		N04   , Ds1 , v120
	.byte	W04
	.byte		N02   , Ds1 , v060
	.byte	W02
	.byte		N04   , Ds2 , v080
	.byte	W04
	.byte		N02   , Ds2 , v040
	.byte	W02
	.byte		N04   , Ds1 , v120
	.byte	W04
	.byte		N02   , Ds1 , v060
	.byte	W02
	.byte		N04   , Ds2 , v080
	.byte	W04
	.byte		N02   , Ds2 , v040
	.byte	W02
	.byte		N04   , Ds1 , v120
	.byte	W04
	.byte		N02   , Ds1 , v060
	.byte	W02
	.byte		N04   , Ds2 , v080
	.byte	W04
	.byte		N02   , Ds2 , v040
	.byte	W02
	.byte		N04   , Ds1 , v120
	.byte	W04
	.byte		N02   , Ds1 , v060
	.byte	W02
	.byte		N04   , Ds2 , v080
	.byte	W04
	.byte		N02   , Ds2 , v040
	.byte	W02
	.byte		N04   , Ds1 , v120
	.byte	W04
	.byte		N02   , Ds1 , v060
	.byte	W02
	.byte		N04   , Ds2 , v080
	.byte	W04
	.byte		N02   , Ds2 , v040
	.byte	W02
	.byte		N04   , Ds1 , v120
	.byte	W04
	.byte		N02   , Ds1 , v060
	.byte	W02
	.byte		N04   , Ds2 , v080
	.byte	W04
	.byte		N02   , Ds2 , v040
	.byte	W02
	.byte		N04   , Ds1 , v120
	.byte	W04
	.byte		N02   , Ds1 , v060
	.byte	W02
	.byte		N04   , Ds2 , v080
	.byte	W04
	.byte		N02   , Ds2 , v040
	.byte	W02
	.byte	PEND
	.byte	PATT
	 .word	seq_111_9 + 0x16D
	.byte	PATT
	 .word	seq_111_9 + 0x1EE
	.byte	PATT
	 .word	seq_111_9 + 0x26F
	.byte	PATT
	 .word	seq_111_9 + 0x2F0
	.byte	GOTO
	 .word	seq_111_9 + 0x15
	.byte	FINE

@*********************** Track 11 ***********************@

seq_111_10:
	.byte	KEYSH , seq_111_key+0
	.byte	W18
	.byte		VOICE , 88
	.byte	W01
	.byte		VOL   , 38*seq_111_mvl/mxv
	.byte	W01
	.byte		PAN   , c_v+0
	.byte	W01
	.byte		LFOS  , 10
	.byte	W01
	.byte		MODT  , mod_pan
	.byte	W01
	.byte		MOD   , 120
	.byte	W01
	.byte		N04   , Gs2 , v120
	.byte	W04
	.byte		N02   , Gs2 , v060
	.byte	W02
	.byte		N04   , Gs3 
	.byte	W04
	.byte		N02   , Gs3 , v020
	.byte	W02
	.byte		N04   , Gs2 , v120
	.byte	W04
	.byte		N02   , Gs2 , v060
	.byte	W02
	.byte		N04   , Gs3 
	.byte	W04
	.byte		N02   , Gs3 , v020
	.byte	W02
	.byte		N04   , Gs2 , v120
	.byte	W04
	.byte		N02   , Gs2 , v060
	.byte	W02
	.byte		N04   , Gs3 
	.byte	W04
	.byte		N02   , Gs3 , v020
	.byte	W02
	.byte		N04   , Gs2 , v120
	.byte	W04
	.byte		N02   , Gs2 , v060
	.byte	W02
	.byte		N04   , Gs3 
	.byte	W04
	.byte		N02   , Gs3 , v020
	.byte	W02
	.byte		N04   , Gs2 , v120
	.byte	W04
	.byte		N02   , Gs2 , v060
	.byte	W02
	.byte		N04   , Gs3 
	.byte	W04
	.byte		N02   , Gs3 , v020
	.byte	W02
	.byte		N04   , Gs2 , v120
	.byte	W04
	.byte		N02   , Gs2 , v060
	.byte	W02
	.byte		N04   , Gs3 
	.byte	W04
	.byte		N02   , Gs3 , v020
	.byte	W02
	.byte	PEND
	.byte	PATT
	 .word	seq_111_10 + 0x15
	.byte	PATT
	 .word	seq_111_10 + 0x15
	.byte		N04   , Gs2 , v120
	.byte	W04
	.byte		N02   , Gs2 , v060
	.byte	W02
	.byte		N04   , Gs3 
	.byte	W04
	.byte		N02   , Gs3 , v020
	.byte	W02
	.byte		N04   , Gs2 , v120
	.byte	W04
	.byte		N02   , Gs2 , v060
	.byte	W02
	.byte		N04   , Gs3 
	.byte	W04
	.byte		N02   , Gs3 , v020
	.byte	W02
	.byte		N04   , Gs2 , v120
	.byte	W04
	.byte		N02   , Gs2 , v060
	.byte	W02
	.byte		N04   , Gs3 
	.byte	W04
	.byte		N02   , Gs3 , v020
	.byte	W02
	.byte		N04   , Gs2 , v120
	.byte	W04
	.byte		N02   , Gs2 , v060
	.byte	W02
	.byte		N04   , Gs3 
	.byte	W04
	.byte		N02   , Gs3 , v020
	.byte	W02
	.byte		N04   , Bn2 , v120
	.byte	W04
	.byte		N02   , Bn2 , v060
	.byte	W02
	.byte		N04   , Ds3 , v120
	.byte	W04
	.byte		N02   , Ds3 , v060
	.byte	W02
	.byte		N04   , Gs3 , v120
	.byte	W04
	.byte		N02   , Gs3 , v060
	.byte	W02
	.byte		N04   , Bn3 , v120
	.byte	W04
	.byte		N02   , Bn3 , v060
	.byte	W02
	.byte	PEND
	.byte	PATT
	 .word	seq_111_10 + 0x15
	.byte	PATT
	 .word	seq_111_10 + 0x15
	.byte	PATT
	 .word	seq_111_10 + 0x15
	.byte	PATT
	 .word	seq_111_10 + 0x7A
	.byte	PATT
	 .word	seq_111_10 + 0x15
	.byte	PATT
	 .word	seq_111_10 + 0x15
	.byte	PATT
	 .word	seq_111_10 + 0x15
	.byte	PATT
	 .word	seq_111_10 + 0x7A
	.byte	PATT
	 .word	seq_111_10 + 0x15
	.byte	PATT
	 .word	seq_111_10 + 0x15
	.byte	PATT
	 .word	seq_111_10 + 0x15
	.byte	PATT
	 .word	seq_111_10 + 0x7A
	.byte	PATT
	 .word	seq_111_10 + 0x15
	.byte	PATT
	 .word	seq_111_10 + 0x15
	.byte	PATT
	 .word	seq_111_10 + 0x15
	.byte	PATT
	 .word	seq_111_10 + 0x7A
	.byte	PATT
	 .word	seq_111_10 + 0x15
	.byte	PATT
	 .word	seq_111_10 + 0x15
	.byte	PATT
	 .word	seq_111_10 + 0x15
	.byte	PATT
	 .word	seq_111_10 + 0x7A
	.byte	PATT
	 .word	seq_111_10 + 0x15
	.byte	PATT
	 .word	seq_111_10 + 0x15
	.byte	PATT
	 .word	seq_111_10 + 0x15
	.byte	PATT
	 .word	seq_111_10 + 0x7A
	.byte	PATT
	 .word	seq_111_10 + 0x15
	.byte	PATT
	 .word	seq_111_10 + 0x15
	.byte	PATT
	 .word	seq_111_10 + 0x15
	.byte	PATT
	 .word	seq_111_10 + 0x7A
	.byte		N04   , En2 , v120
	.byte	W04
	.byte		N02   , En2 , v060
	.byte	W02
	.byte		N04   , En3 
	.byte	W04
	.byte		N02   , En3 , v020
	.byte	W02
	.byte		N04   , En2 , v120
	.byte	W04
	.byte		N02   , En2 , v060
	.byte	W02
	.byte		N04   , En3 
	.byte	W04
	.byte		N02   , En3 , v020
	.byte	W02
	.byte		N04   , En2 , v120
	.byte	W04
	.byte		N02   , En2 , v060
	.byte	W02
	.byte		N04   , En3 
	.byte	W04
	.byte		N02   , En3 , v020
	.byte	W02
	.byte		N04   , En2 , v120
	.byte	W04
	.byte		N02   , En2 , v060
	.byte	W02
	.byte		N04   , En3 
	.byte	W04
	.byte		N02   , En3 , v020
	.byte	W02
	.byte		N04   , En2 , v120
	.byte	W04
	.byte		N02   , En2 , v060
	.byte	W02
	.byte		N04   , En3 
	.byte	W04
	.byte		N02   , En3 , v020
	.byte	W02
	.byte		N04   , En2 , v120
	.byte	W04
	.byte		N02   , En2 , v060
	.byte	W02
	.byte		N04   , En3 
	.byte	W04
	.byte		N02   , En3 , v020
	.byte	W02
	.byte		N04   , En2 , v120
	.byte	W04
	.byte		N02   , En2 , v060
	.byte	W02
	.byte		N04   , En3 
	.byte	W04
	.byte		N02   , En3 , v020
	.byte	W02
	.byte		N04   , Fn2 , v120
	.byte	W04
	.byte		N02   , Fn2 , v060
	.byte	W02
	.byte		N04   , Fn3 
	.byte	W04
	.byte		N02   , Fn3 , v020
	.byte	W02
	.byte	PEND
	.byte		N04   , Fn2 , v120
	.byte	W04
	.byte		N02   , Fn2 , v060
	.byte	W02
	.byte		N04   , Fn3 
	.byte	W04
	.byte		N02   , Fn3 , v020
	.byte	W02
	.byte		N04   , Fn2 , v120
	.byte	W04
	.byte		N02   , Fn2 , v060
	.byte	W02
	.byte		N04   , Fn3 
	.byte	W04
	.byte		N02   , Fn3 , v020
	.byte	W02
	.byte		N04   , Fn2 , v120
	.byte	W04
	.byte		N02   , Fn2 , v060
	.byte	W02
	.byte		N04   , Fn3 
	.byte	W04
	.byte		N02   , Fn3 , v020
	.byte	W02
	.byte		N04   , Fn2 , v120
	.byte	W04
	.byte		N02   , Fn2 , v060
	.byte	W02
	.byte		N04   , Fn3 
	.byte	W04
	.byte		N02   , Fn3 , v020
	.byte	W02
	.byte		N04   , Gn2 , v120
	.byte	W04
	.byte		N02   , Gn2 , v060
	.byte	W02
	.byte		N04   , Gn3 
	.byte	W04
	.byte		N02   , Gn3 , v020
	.byte	W02
	.byte		N04   , Gn2 , v120
	.byte	W04
	.byte		N02   , Gn2 , v060
	.byte	W02
	.byte		N04   , Gn3 
	.byte	W04
	.byte		N02   , Gn3 , v020
	.byte	W02
	.byte		N04   , Gn2 , v120
	.byte	W04
	.byte		N02   , Gn2 , v060
	.byte	W02
	.byte		N04   , Gn3 
	.byte	W04
	.byte		N02   , Gn3 , v020
	.byte	W02
	.byte		N04   , Fs2 , v120
	.byte	W04
	.byte		N02   , Fs2 , v060
	.byte	W02
	.byte		N04   , Fs3 
	.byte	W04
	.byte		N02   , Fs3 , v020
	.byte	W02
	.byte	PEND
	.byte		N04   , Fs2 , v120
	.byte	W04
	.byte		N02   , Fs2 , v060
	.byte	W02
	.byte		N04   , Fs3 
	.byte	W04
	.byte		N02   , Fs3 , v020
	.byte	W02
	.byte		N04   , Fs2 , v120
	.byte	W04
	.byte		N02   , Fs2 , v060
	.byte	W02
	.byte		N04   , Fs3 
	.byte	W04
	.byte		N02   , Fs3 , v020
	.byte	W02
	.byte		N04   , Fs2 , v120
	.byte	W04
	.byte		N02   , Fs2 , v060
	.byte	W02
	.byte		N04   , Fs3 
	.byte	W04
	.byte		N02   , Fs3 , v020
	.byte	W02
	.byte		N04   , Fs2 , v120
	.byte	W04
	.byte		N02   , Fs2 , v060
	.byte	W02
	.byte		N04   , Fs3 
	.byte	W04
	.byte		N02   , Fs3 , v020
	.byte	W02
	.byte		N04   , Fs2 , v120
	.byte	W04
	.byte		N02   , Fs2 , v060
	.byte	W02
	.byte		N04   , Fs3 
	.byte	W04
	.byte		N02   , Fs3 , v020
	.byte	W02
	.byte		N04   , Bn1 , v120
	.byte	W04
	.byte		N02   , Bn1 , v060
	.byte	W02
	.byte		N04   , Bn2 
	.byte	W04
	.byte		N02   , Bn2 , v020
	.byte	W02
	.byte		N04   , Cs2 , v120
	.byte	W04
	.byte		N02   , Cs2 , v060
	.byte	W02
	.byte		N04   , Cs3 
	.byte	W04
	.byte		N02   , Cs3 , v020
	.byte	W02
	.byte		N04   , Ds2 , v120
	.byte	W04
	.byte		N02   , Ds2 , v060
	.byte	W02
	.byte		N04   , Ds3 
	.byte	W04
	.byte		N02   , Ds3 , v020
	.byte	W02
	.byte	PEND
	.byte		N04   , Ds2 , v120
	.byte	W04
	.byte		N02   , Ds2 , v060
	.byte	W02
	.byte		N04   , Ds3 
	.byte	W04
	.byte		N02   , Ds3 , v020
	.byte	W02
	.byte		N04   , Ds2 , v120
	.byte	W04
	.byte		N02   , Ds2 , v060
	.byte	W02
	.byte		N04   , Ds3 
	.byte	W04
	.byte		N02   , Ds3 , v020
	.byte	W02
	.byte		N04   , Ds2 , v120
	.byte	W04
	.byte		N02   , Ds2 , v060
	.byte	W02
	.byte		N04   , Ds3 
	.byte	W04
	.byte		N02   , Ds3 , v020
	.byte	W02
	.byte		N04   , Ds2 , v120
	.byte	W04
	.byte		N02   , Ds2 , v060
	.byte	W02
	.byte		N04   , Ds3 
	.byte	W04
	.byte		N02   , Ds3 , v020
	.byte	W02
	.byte		N04   , Ds2 , v120
	.byte	W04
	.byte		N02   , Ds2 , v060
	.byte	W02
	.byte		N04   , Ds3 
	.byte	W04
	.byte		N02   , Ds3 , v020
	.byte	W02
	.byte		N04   , Ds2 , v120
	.byte	W04
	.byte		N02   , Ds2 , v060
	.byte	W02
	.byte		N04   , Ds3 
	.byte	W04
	.byte		N02   , Ds3 , v020
	.byte	W02
	.byte		N04   , Ds2 , v120
	.byte	W04
	.byte		N02   , Ds2 , v060
	.byte	W02
	.byte		N04   , Ds3 
	.byte	W04
	.byte		N02   , Ds3 , v020
	.byte	W02
	.byte		N04   , Ds2 , v120
	.byte	W04
	.byte		N02   , Ds2 , v060
	.byte	W02
	.byte		N04   , Ds3 
	.byte	W04
	.byte		N02   , Ds3 , v020
	.byte	W02
	.byte	PEND
	.byte	PATT
	 .word	seq_111_10 + 0x163
	.byte	PATT
	 .word	seq_111_10 + 0x1DC
	.byte	PATT
	 .word	seq_111_10 + 0x255
	.byte	PATT
	 .word	seq_111_10 + 0x2CE
	.byte	GOTO
	 .word	seq_111_10 + 0x15
	.byte	FINE

@*********************** Track 12 ***********************@

seq_111_11:
	.byte	KEYSH , seq_111_key+0
	.byte	W18
	.byte		VOICE , 112
	.byte	W01
	.byte		VOL   , 33*seq_111_mvl/mxv
	.byte	W01
	.byte		PAN   , c_v+0
	.byte	W01
	.byte		LFOS  , 0
	.byte	W01
	.byte		MODT  , mod_vib
	.byte	W01
	.byte		LFODL , 0
	.byte	W01
	.byte		N08   , En2 , v120
	.byte	W08
	.byte		N04   , En2 , v060
	.byte	W04
	.byte		N03   , As3 , v100
	.byte	W12
	.byte		N02   , As3 , v040
	.byte	W12
	.byte		N03   , As3 , v080
	.byte	W12
	.byte		N02   , As3 , v040
	.byte	W12
	.byte		N03   , As3 , v100
	.byte	W12
	.byte	PEND
	.byte	PATT
	 .word	seq_111_11 + 0x15
	.byte	PATT
	 .word	seq_111_11 + 0x15
	.byte	PATT
	 .word	seq_111_11 + 0x15
	.byte	PATT
	 .word	seq_111_11 + 0x15
	.byte	PATT
	 .word	seq_111_11 + 0x15
	.byte	PATT
	 .word	seq_111_11 + 0x15
	.byte	PATT
	 .word	seq_111_11 + 0x15
	.byte	PATT
	 .word	seq_111_11 + 0x15
	.byte	PATT
	 .word	seq_111_11 + 0x15
	.byte	PATT
	 .word	seq_111_11 + 0x15
	.byte	PATT
	 .word	seq_111_11 + 0x15
	.byte	PATT
	 .word	seq_111_11 + 0x15
	.byte	PATT
	 .word	seq_111_11 + 0x15
	.byte	PATT
	 .word	seq_111_11 + 0x15
	.byte	PATT
	 .word	seq_111_11 + 0x15
	.byte	PATT
	 .word	seq_111_11 + 0x15
	.byte	PATT
	 .word	seq_111_11 + 0x15
	.byte	PATT
	 .word	seq_111_11 + 0x15
	.byte	PATT
	 .word	seq_111_11 + 0x15
	.byte	PATT
	 .word	seq_111_11 + 0x15
	.byte	PATT
	 .word	seq_111_11 + 0x15
	.byte	PATT
	 .word	seq_111_11 + 0x15
	.byte	PATT
	 .word	seq_111_11 + 0x15
	.byte	PATT
	 .word	seq_111_11 + 0x15
	.byte	PATT
	 .word	seq_111_11 + 0x15
	.byte	PATT
	 .word	seq_111_11 + 0x15
	.byte	PATT
	 .word	seq_111_11 + 0x15
	.byte	PATT
	 .word	seq_111_11 + 0x15
	.byte	PATT
	 .word	seq_111_11 + 0x15
	.byte	PATT
	 .word	seq_111_11 + 0x15
	.byte	PATT
	 .word	seq_111_11 + 0x15
	.byte		N08   , Cs2 , v120
	.byte	W08
	.byte		N04   , Cs2 , v060
	.byte	W04
	.byte		N03   , Gn3 , v120
	.byte	W12
	.byte		N12   , Dn3 , v100
	.byte	W12
	.byte		N03   , Gn3 
	.byte	W12
	.byte		N02   , Gn3 , v060
	.byte	W12
	.byte		N03   , Gn3 , v120
	.byte	W12
	.byte		N12   , Dn3 
	.byte	W12
	.byte		N03   , Gn3 , v100
	.byte	W12
	.byte	PEND
	.byte	PATT
	 .word	seq_111_11 + 0xCD
	.byte	PATT
	 .word	seq_111_11 + 0xCD
	.byte		N02   , Gn3 , v060
	.byte	W12
	.byte		N03   , Gn3 , v120
	.byte	W12
	.byte		N12   , Dn3 , v100
	.byte	W12
	.byte		N03   , Gn3 
	.byte	W12
	.byte		N02   , Gn3 , v060
	.byte	W12
	.byte		N12   , Dn3 , v120
	.byte	W12
	.byte		N02   , Gn3 , v060
	.byte	W12
	.byte		N12   , Dn3 , v120
	.byte	W12
	.byte		N02   , Gn3 , v060
	.byte	W12
	.byte		N03   , Gn3 , v120
	.byte	W12
	.byte		N12   , Dn3 
	.byte	W12
	.byte		N03   , Gn3 , v100
	.byte	W12
	.byte		N02   , Gn3 , v060
	.byte	W12
	.byte		N03   , Gn3 , v120
	.byte	W12
	.byte		N12   , Dn3 
	.byte	W12
	.byte		N03   , Gn3 , v100
	.byte	W12
	.byte	PEND
	.byte	PATT
	 .word	seq_111_11 + 0x119
	.byte	PATT
	 .word	seq_111_11 + 0x119
	.byte		N02   , Gn3 , v060
	.byte	W12
	.byte		N08   , Dn3 , v100
	.byte	W12
	.byte		N12   , Dn3 , v120
	.byte	W12
	.byte		N03   , Gn3 , v100
	.byte	W12
	.byte		N02   , Gn3 , v060
	.byte	W12
	.byte		N03   , Gn3 , v120
	.byte	W12
	.byte		N12   , Dn3 , v080
	.byte	W12
	.byte		N03   , Gn3 , v100
	.byte	W12
	.byte	GOTO
	 .word	seq_111_11 + 0x15
	.byte	FINE

@******************************************************@

	.align	2

seq_111:
	.byte	12	@ NumTrks
	.byte	0	@ NumBlks
	.byte	seq_111_pri	@ Priority
	.byte	seq_111_rev	@ Reverb

	.word	seq_111_grp

	.word	seq_111_0
	.word	seq_111_1
	.word	seq_111_2
	.word	seq_111_3
	.word	seq_111_4
	.word	seq_111_5
	.word	seq_111_6
	.word	seq_111_7
	.word	seq_111_8
	.word	seq_111_9
	.word	seq_111_10
	.word	seq_111_11

	.end
