@ File generated by m4a2s Song-Module
	.include "MPlayDef.s"

	.equ	seq_104_grp, bank_014
	.equ	seq_104_pri, 50
	.equ	seq_104_rev, 198
	.equ	seq_104_mvl, 127
	.equ	seq_104_key, 0

	.section .rodata
	.global	seq_104
	.align	2

@*********************** Track 01 ***********************@

seq_104_0:
	.byte	KEYSH , seq_104_key+0
	.byte	TEMPO , 240/2
	.byte		VOICE , 127
	.byte	W01
	.byte		VOL   , 75*seq_104_mvl/mxv
	.byte	W01
	.byte		PAN   , c_v+0
	.byte	W10
	.byte	TEMPO , 98/2
	.byte	W12
	.byte	W12
	.byte		N03   , Ds6 , v120
	.byte	W12
	.byte		        Dn6 
	.byte	W24
	.byte		        Fs5 , v100
	.byte	W12
	.byte		        Cs6 
	.byte	W24
	.byte		        Ds6 , v120
	.byte	W30
	.byte		        Ds6 , v080
	.byte	W06
	.byte		        Dn6 , v120
	.byte	W12
	.byte		        Ds6 , v100
	.byte	W12
	.byte		        Fs5 
	.byte	W12
	.byte		        Cs6 
	.byte	W12
	.byte	PEND
	.byte	PATT
	 .word	seq_104_0 + 0x10
	.byte	PATT
	 .word	seq_104_0 + 0x10
	.byte	PATT
	 .word	seq_104_0 + 0x10
	.byte	PATT
	 .word	seq_104_0 + 0x10
	.byte	PATT
	 .word	seq_104_0 + 0x10
	.byte	PATT
	 .word	seq_104_0 + 0x10
	.byte	PATT
	 .word	seq_104_0 + 0x10
	.byte	PATT
	 .word	seq_104_0 + 0x10
	.byte	PATT
	 .word	seq_104_0 + 0x10
	.byte	PATT
	 .word	seq_104_0 + 0x10
	.byte	PATT
	 .word	seq_104_0 + 0x10
	.byte	PATT
	 .word	seq_104_0 + 0x10
	.byte	PATT
	 .word	seq_104_0 + 0x10
	.byte	PATT
	 .word	seq_104_0 + 0x10
	.byte	PATT
	 .word	seq_104_0 + 0x10
	.byte	PATT
	 .word	seq_104_0 + 0x10
	.byte	PATT
	 .word	seq_104_0 + 0x10
	.byte	PATT
	 .word	seq_104_0 + 0x10
	.byte	PATT
	 .word	seq_104_0 + 0x10
	.byte	PATT
	 .word	seq_104_0 + 0x10
	.byte	PATT
	 .word	seq_104_0 + 0x10
	.byte	PATT
	 .word	seq_104_0 + 0x10
	.byte	PATT
	 .word	seq_104_0 + 0x10
	.byte	PATT
	 .word	seq_104_0 + 0x10
	.byte	PATT
	 .word	seq_104_0 + 0x10
	.byte	PATT
	 .word	seq_104_0 + 0x10
	.byte	PATT
	 .word	seq_104_0 + 0x10
	.byte	PATT
	 .word	seq_104_0 + 0x10
	.byte	W12
	.byte		N03   , Ds6 , v120
	.byte	W12
	.byte		        Dn6 
	.byte	W24
	.byte		        Fs5 , v100
	.byte	W12
	.byte		        Cs6 
	.byte	W24
	.byte		        Ds6 , v120
	.byte	W30
	.byte		        Ds6 , v080
	.byte	W06
	.byte		        Cs6 , v120
	.byte	W12
	.byte		        Dn6 , v100
	.byte	W12
	.byte	PEND
	.byte	PATT
	 .word	seq_104_0 + 0x10
	.byte	PATT
	 .word	seq_104_0 + 0xB9
	.byte	PATT
	 .word	seq_104_0 + 0x10
	.byte	PATT
	 .word	seq_104_0 + 0xB9
	.byte	PATT
	 .word	seq_104_0 + 0x10
	.byte	PATT
	 .word	seq_104_0 + 0xB9
	.byte	PATT
	 .word	seq_104_0 + 0x10
	.byte	PATT
	 .word	seq_104_0 + 0x10
	.byte	GOTO
	 .word	seq_104_0 + 0x10
	.byte	FINE

@*********************** Track 02 ***********************@

seq_104_1:
	.byte	KEYSH , seq_104_key+0
	.byte		VOICE , 52
	.byte	W01
	.byte		VOL   , 62*seq_104_mvl/mxv
	.byte	W01
	.byte		PAN   , c_v+16
	.byte	W01
	.byte		LFOS  , 64
	.byte	W01
	.byte		MODT  , mod_pan
	.byte	W01
	.byte		MOD   , 60
	.byte	W19
	.byte		N03   , Ds5 , v120
	.byte	W04
	.byte		N02   , Ds5 , v060
	.byte	W04
	.byte		        Ds5 , v040
	.byte	W04
	.byte		N03   , Fs5 , v120
	.byte	W04
	.byte		N02   , Fs5 , v060
	.byte	W04
	.byte		        Fs5 , v040
	.byte	W04
	.byte		N03   , Fn5 , v120
	.byte	W04
	.byte		N02   , Fn5 , v060
	.byte	W04
	.byte		        Fn5 , v040
	.byte	W04
	.byte		N03   , Fs5 , v120
	.byte	W04
	.byte		N02   , Fs5 , v060
	.byte	W04
	.byte		        Fs5 , v040
	.byte	W04
	.byte		N03   , An5 , v120
	.byte	W04
	.byte		N02   , An5 , v060
	.byte	W04
	.byte		        An5 , v040
	.byte	W24
	.byte	W03
	.byte		MOD   , 0
	.byte	W01
	.byte		N03   , An3 , v080
	.byte		N03   , Ds4 
	.byte	W04
	.byte		N02   , An3 , v060
	.byte		N02   , Ds4 
	.byte	W04
	.byte		        An3 , v040
	.byte		N02   , Ds4 
	.byte	W16
	.byte		N03   , Fs3 , v080
	.byte		N03   , Cn4 
	.byte	W04
	.byte		N02   , Fs3 , v060
	.byte		N02   , Cn4 
	.byte	W04
	.byte		        Fs3 , v040
	.byte		N02   , Cn4 
	.byte	W48
	.byte	W03
	.byte		MOD   , 60
	.byte	W01
	.byte	PEND
	.byte	PATT
	 .word	seq_104_1 + 0x14
	.byte		N03   , Dn5 , v120
	.byte	W04
	.byte		N02   , Dn5 , v060
	.byte	W04
	.byte		        Dn5 , v040
	.byte	W04
	.byte		N03   , Fn5 , v120
	.byte	W04
	.byte		N02   , Fn5 , v060
	.byte	W04
	.byte		        Fn5 , v040
	.byte	W04
	.byte		N03   , En5 , v120
	.byte	W04
	.byte		N02   , En5 , v060
	.byte	W04
	.byte		        En5 , v040
	.byte	W04
	.byte		N03   , Fn5 , v120
	.byte	W04
	.byte		N02   , Fn5 , v060
	.byte	W04
	.byte		        Fn5 , v040
	.byte	W04
	.byte		N03   , Gs5 , v120
	.byte	W04
	.byte		N02   , Gs5 , v060
	.byte	W04
	.byte		        Gs5 , v040
	.byte	W24
	.byte	W03
	.byte		MOD   , 0
	.byte	W01
	.byte		N03   , Gs3 , v080
	.byte		N03   , Dn4 
	.byte	W04
	.byte		N02   , Gs3 , v060
	.byte		N02   , Dn4 
	.byte	W04
	.byte		        Gs3 , v040
	.byte		N02   , Dn4 
	.byte	W16
	.byte		N03   , Fn3 , v080
	.byte		N03   , Bn3 
	.byte	W04
	.byte		N02   , Fn3 , v060
	.byte		N02   , Bn3 
	.byte	W04
	.byte		        Fn3 , v040
	.byte		N02   , Bn3 
	.byte	W48
	.byte	W03
	.byte		MOD   , 60
	.byte	W01
	.byte	PEND
	.byte	PATT
	 .word	seq_104_1 + 0x7B
	.byte	PATT
	 .word	seq_104_1 + 0x14
	.byte	PATT
	 .word	seq_104_1 + 0x14
	.byte	PATT
	 .word	seq_104_1 + 0x7B
	.byte	PATT
	 .word	seq_104_1 + 0x7B
	.byte	PATT
	 .word	seq_104_1 + 0x14
	.byte	PATT
	 .word	seq_104_1 + 0x14
	.byte	PATT
	 .word	seq_104_1 + 0x7B
	.byte	PATT
	 .word	seq_104_1 + 0x7B
	.byte	PATT
	 .word	seq_104_1 + 0x14
	.byte	PATT
	 .word	seq_104_1 + 0x14
	.byte	PATT
	 .word	seq_104_1 + 0x7B
	.byte	PATT
	 .word	seq_104_1 + 0x7B
	.byte	PATT
	 .word	seq_104_1 + 0x14
	.byte	PATT
	 .word	seq_104_1 + 0x14
	.byte	PATT
	 .word	seq_104_1 + 0x7B
	.byte		N03   , Dn5 , v120
	.byte	W04
	.byte		N02   , Dn5 , v060
	.byte	W04
	.byte		        Dn5 , v040
	.byte	W04
	.byte		N03   , Fn5 , v120
	.byte	W04
	.byte		N02   , Fn5 , v060
	.byte	W04
	.byte		        Fn5 , v040
	.byte	W04
	.byte		N03   , En5 , v120
	.byte	W04
	.byte		N02   , En5 , v060
	.byte	W04
	.byte		        En5 , v040
	.byte	W04
	.byte		N03   , Fn5 , v120
	.byte	W04
	.byte		N02   , Fn5 , v060
	.byte	W04
	.byte		        Fn5 , v040
	.byte	W04
	.byte		N03   , Gs5 , v120
	.byte	W04
	.byte		N02   , Gs5 , v060
	.byte	W04
	.byte		        Gs5 , v040
	.byte	W24
	.byte	W03
	.byte		MOD   , 0
	.byte	W01
	.byte		N03   , Gs3 , v080
	.byte		N03   , Dn4 
	.byte	W04
	.byte		N02   , Gs3 , v060
	.byte		N02   , Dn4 
	.byte	W04
	.byte		        Gs3 , v040
	.byte		N02   , Dn4 
	.byte	W16
	.byte		N03   , Fn3 , v080
	.byte		N03   , Bn3 
	.byte	W04
	.byte		N02   , Fn3 , v060
	.byte		N02   , Bn3 
	.byte	W04
	.byte		        Fn3 , v040
	.byte		N02   , Bn3 
	.byte	W52
	.byte		MOD   , 40
	.byte	W01
	.byte		N02   , Cn5 , v100
	.byte	W03
	.byte		N06   , Cn5 , v020
	.byte	W09
	.byte		N02   , Ds5 , v080
	.byte	W03
	.byte		N06   , Ds5 , v020
	.byte	W09
	.byte		N02   , Dn5 , v100
	.byte	W03
	.byte		N06   , Dn5 , v020
	.byte	W09
	.byte		N02   , Ds5 , v080
	.byte	W03
	.byte		N06   , Ds5 , v020
	.byte	W09
	.byte		N02   , Fs5 , v080
	.byte	W03
	.byte		N06   , Fs5 , v040
	.byte	W06
	.byte		N15   , Fs5 , v020
	.byte	W96
	.byte	W14
	.byte	W01
	.byte		N02   , Cn5 , v100
	.byte	W03
	.byte		N06   , Cn5 , v020
	.byte	W09
	.byte		N02   , Ds5 , v080
	.byte	W03
	.byte		N06   , Ds5 , v020
	.byte	W09
	.byte		N02   , Dn5 , v100
	.byte	W03
	.byte		N06   , Dn5 , v020
	.byte	W09
	.byte		N02   , Ds5 , v080
	.byte	W03
	.byte		N06   , Ds5 , v020
	.byte	W09
	.byte		N02   , Fs5 , v080
	.byte	W03
	.byte		N06   , Fs5 , v040
	.byte	W06
	.byte		N15   , Fs5 , v020
	.byte	W96
	.byte	W14
	.byte	PEND
	.byte	W01
	.byte		N02   , Bn4 , v100
	.byte	W03
	.byte		N06   , Bn4 , v020
	.byte	W09
	.byte		N02   , Dn5 , v080
	.byte	W03
	.byte		N06   , Dn5 , v020
	.byte	W09
	.byte		N02   , Cs5 , v100
	.byte	W03
	.byte		N06   , Cs5 , v020
	.byte	W09
	.byte		N02   , Dn5 , v080
	.byte	W03
	.byte		N06   , Dn5 , v020
	.byte	W09
	.byte		N02   , Fn5 , v080
	.byte	W03
	.byte		N06   , Fn5 , v040
	.byte	W06
	.byte		N15   , Fn5 , v020
	.byte	W96
	.byte	W14
	.byte	PEND
	.byte	PATT
	 .word	seq_104_1 + 0x1E9
	.byte	PATT
	 .word	seq_104_1 + 0x1BA
	.byte	PATT
	 .word	seq_104_1 + 0x1BA
	.byte	PATT
	 .word	seq_104_1 + 0x1E9
	.byte	PATT
	 .word	seq_104_1 + 0x1E9
	.byte	W96
	.byte	W72
	.byte	W96
	.byte	W12
	.byte		N02   , Gs3 , v080
	.byte	W02
	.byte		        Gs4 , v120
	.byte	W02
	.byte		        Gs3 , v040
	.byte	W02
	.byte		        Gs4 , v060
	.byte	W02
	.byte		        Gs3 , v020
	.byte	W02
	.byte		        Gs4 
	.byte	W24
	.byte	W02
	.byte	PEND
	.byte	W96
	.byte	W72
	.byte	PATT
	 .word	seq_104_1 + 0x233
	.byte	W96
	.byte	W72
	.byte	W96
	.byte	W12
	.byte		N02   , Fs3 , v080
	.byte	W02
	.byte		        Fs4 , v120
	.byte	W02
	.byte		        Fs3 , v040
	.byte	W02
	.byte		        Fs4 , v060
	.byte	W02
	.byte		        Fs3 , v020
	.byte	W02
	.byte		        Fs4 
	.byte	W24
	.byte	W02
	.byte	W96
	.byte	W72
	.byte	W96
	.byte	W12
	.byte		        En3 , v080
	.byte	W02
	.byte		        En4 , v120
	.byte	W02
	.byte		        En3 , v040
	.byte	W02
	.byte		        En4 , v060
	.byte	W02
	.byte		        En3 , v020
	.byte	W02
	.byte		        En4 
	.byte	W24
	.byte	W02
	.byte	W14
	.byte		N03   , Dn5 , v060
	.byte	W12
	.byte		        Ds5 , v080
	.byte	W12
	.byte		        En5 , v060
	.byte	W12
	.byte		        Fn5 , v080
	.byte	W12
	.byte		        Fs5 , v060
	.byte	W12
	.byte		        Gn5 , v080
	.byte	W12
	.byte		        Gs5 , v060
	.byte	W12
	.byte		        An5 , v080
	.byte	W12
	.byte		        Gs5 , v060
	.byte	W12
	.byte		        Gn5 , v080
	.byte	W12
	.byte		        Fs5 , v060
	.byte	W12
	.byte		        Fn5 , v080
	.byte	W12
	.byte		        En5 , v060
	.byte	W10
	.byte	W11
	.byte		MOD   , 60
	.byte	W01
	.byte		N03   , Dn5 , v120
	.byte	W04
	.byte		N02   , Dn5 , v040
	.byte	W04
	.byte		        Dn5 , v020
	.byte	W04
	.byte		N03   , Dn5 , v120
	.byte	W04
	.byte		N02   , Dn5 , v040
	.byte	W04
	.byte		        Dn5 , v020
	.byte	W16
	.byte		N03   , Dn5 , v120
	.byte	W04
	.byte		N02   , Dn5 , v040
	.byte	W04
	.byte		        Dn5 , v020
	.byte	W04
	.byte		N03   , Dn5 , v120
	.byte	W04
	.byte		N02   , Dn5 , v040
	.byte	W04
	.byte		        Dn5 , v020
	.byte	W16
	.byte		N03   , Dn5 , v120
	.byte	W04
	.byte		N02   , Dn5 , v040
	.byte	W04
	.byte		        Dn5 , v020
	.byte	W03
	.byte		MOD   , 0
	.byte	W24
	.byte	W01
	.byte		N03   , Gs3 , v080
	.byte		N03   , Dn4 
	.byte	W04
	.byte		N02   , Gs3 , v060
	.byte		N02   , Dn4 
	.byte	W04
	.byte		        Gs3 , v040
	.byte		N02   , Dn4 
	.byte	W16
	.byte		N03   , Fn3 , v080
	.byte		N03   , Bn3 
	.byte	W04
	.byte		N02   , Fn3 , v060
	.byte		N02   , Bn3 
	.byte	W04
	.byte		        Fn3 , v040
	.byte		N02   , Bn3 
	.byte	W15
	.byte		MOD   , 60
	.byte	W01
	.byte	GOTO
	 .word	seq_104_1 + 0x14
	.byte	FINE

@*********************** Track 03 ***********************@

seq_104_2:
	.byte	KEYSH , seq_104_key+0
	.byte		VOICE , 51
	.byte	W01
	.byte		VOL   , 50*seq_104_mvl/mxv
	.byte	W01
	.byte		PAN   , c_v-24
	.byte	W01
	.byte		LFOS  , 20
	.byte	W01
	.byte		MODT  , mod_pan
	.byte	W01
	.byte		LFODL , 0
	.byte	W19
	.byte		N02   , Cn5 , v120
	.byte	W03
	.byte		N06   , Cn5 , v020
	.byte	W09
	.byte		N02   , Ds5 , v100
	.byte	W03
	.byte		N06   , Ds5 , v020
	.byte	W09
	.byte		N02   , Dn5 , v120
	.byte	W03
	.byte		N06   , Dn5 , v020
	.byte	W09
	.byte		N02   , Ds5 , v100
	.byte	W03
	.byte		N06   , Ds5 , v020
	.byte	W09
	.byte		N02   , Fs5 , v100
	.byte	W03
	.byte		N06   , Fs5 , v040
	.byte	W06
	.byte		N15   , Fs5 , v020
	.byte	W96
	.byte	W15
	.byte	PEND
	.byte	PATT
	 .word	seq_104_2 + 0x14
	.byte		N02   , Bn4 , v120
	.byte	W03
	.byte		N06   , Bn4 , v020
	.byte	W09
	.byte		N02   , Dn5 , v100
	.byte	W03
	.byte		N06   , Dn5 , v020
	.byte	W09
	.byte		N02   , Cs5 , v120
	.byte	W03
	.byte		N06   , Cs5 , v020
	.byte	W09
	.byte		N02   , Dn5 , v100
	.byte	W03
	.byte		N06   , Dn5 , v020
	.byte	W09
	.byte		N02   , Fn5 , v100
	.byte	W03
	.byte		N06   , Fn5 , v040
	.byte	W06
	.byte		N15   , Fn5 , v020
	.byte	W96
	.byte	W15
	.byte	PEND
	.byte	PATT
	 .word	seq_104_2 + 0x47
	.byte	PATT
	 .word	seq_104_2 + 0x14
	.byte	PATT
	 .word	seq_104_2 + 0x14
	.byte	PATT
	 .word	seq_104_2 + 0x47
	.byte	PATT
	 .word	seq_104_2 + 0x47
	.byte	PATT
	 .word	seq_104_2 + 0x14
	.byte	PATT
	 .word	seq_104_2 + 0x14
	.byte	PATT
	 .word	seq_104_2 + 0x47
	.byte	PATT
	 .word	seq_104_2 + 0x47
	.byte	PATT
	 .word	seq_104_2 + 0x14
	.byte	PATT
	 .word	seq_104_2 + 0x14
	.byte	PATT
	 .word	seq_104_2 + 0x47
	.byte	PATT
	 .word	seq_104_2 + 0x47
	.byte	PATT
	 .word	seq_104_2 + 0x14
	.byte	PATT
	 .word	seq_104_2 + 0x14
	.byte	PATT
	 .word	seq_104_2 + 0x47
	.byte	PATT
	 .word	seq_104_2 + 0x47
	.byte	PATT
	 .word	seq_104_2 + 0x14
	.byte	PATT
	 .word	seq_104_2 + 0x14
	.byte	PATT
	 .word	seq_104_2 + 0x47
	.byte	PATT
	 .word	seq_104_2 + 0x47
	.byte	PATT
	 .word	seq_104_2 + 0x14
	.byte	PATT
	 .word	seq_104_2 + 0x14
	.byte	PATT
	 .word	seq_104_2 + 0x47
	.byte	PATT
	 .word	seq_104_2 + 0x47
	.byte	W96
	.byte	W72
	.byte	W96
	.byte	W48
	.byte	W96
	.byte	W72
	.byte	W96
	.byte	W48
	.byte	W96
	.byte	W72
	.byte	W96
	.byte	W48
	.byte	W96
	.byte	W72
	.byte	W96
	.byte	W48
	.byte	W12
	.byte		N06   , Ds4 , v120
	.byte	W06
	.byte		        Ds4 , v040
	.byte	W06
	.byte		        En4 , v120
	.byte	W06
	.byte		        En4 , v040
	.byte	W06
	.byte		        Fn4 , v120
	.byte	W06
	.byte		        Fn4 , v040
	.byte	W06
	.byte		        Fs4 , v120
	.byte	W06
	.byte		        Fs4 , v040
	.byte	W06
	.byte		        Gn4 , v120
	.byte	W06
	.byte		        Gn4 , v040
	.byte	W06
	.byte		        Gs4 , v120
	.byte	W06
	.byte		        Gs4 , v040
	.byte	W06
	.byte		        An4 , v120
	.byte	W06
	.byte		        An4 , v040
	.byte	W06
	.byte		        As4 , v120
	.byte	W06
	.byte		        As4 , v040
	.byte	W06
	.byte		        An4 , v120
	.byte	W06
	.byte		        An4 , v040
	.byte	W06
	.byte		        Gs4 , v120
	.byte	W06
	.byte		        Gs4 , v040
	.byte	W06
	.byte		        Gn4 , v120
	.byte	W06
	.byte		        Gn4 , v040
	.byte	W06
	.byte		        Fs4 , v120
	.byte	W06
	.byte		        Fs4 , v040
	.byte	W06
	.byte		        Fn4 , v120
	.byte	W06
	.byte		        Fn4 , v040
	.byte	W06
	.byte	W12
	.byte		N03   , Gs4 , v120
	.byte	W04
	.byte		N02   , Gs4 , v040
	.byte	W04
	.byte		        Gs4 , v020
	.byte	W04
	.byte		N03   , Gs4 , v120
	.byte	W04
	.byte		N02   , Gs4 , v040
	.byte	W04
	.byte		        Gs4 , v020
	.byte	W16
	.byte		N03   , Gs4 , v120
	.byte	W04
	.byte		N02   , Gs4 , v040
	.byte	W04
	.byte		        Gs4 , v020
	.byte	W04
	.byte		N03   , Gs4 , v120
	.byte	W04
	.byte		N02   , Gs4 , v040
	.byte	W04
	.byte		        Gs4 , v020
	.byte	W16
	.byte		N03   , Gs4 , v120
	.byte	W04
	.byte		N02   , Gs4 , v040
	.byte	W04
	.byte		        Gs4 , v020
	.byte	W76
	.byte	GOTO
	 .word	seq_104_2 + 0x14
	.byte	FINE

@*********************** Track 04 ***********************@

seq_104_3:
	.byte	KEYSH , seq_104_key+0
	.byte	W06
	.byte		VOICE , 12
	.byte	W01
	.byte		VOL   , 62*seq_104_mvl/mxv
	.byte	W01
	.byte		PAN   , c_v-24
	.byte	W01
	.byte		LFOS  , 30
	.byte	W01
	.byte		MODT  , mod_pan
	.byte	W01
	.byte		MOD   , 40
	.byte	W13
	.byte	W96
	.byte	W72
	.byte	W96
	.byte	W72
	.byte	W96
	.byte	W72
	.byte	W96
	.byte	W72
	.byte	W12
	.byte		N09   , An2 , v100
	.byte	W24
	.byte		        An2 , v080
	.byte	W12
	.byte		N12   , Gs2 
	.byte	W12
	.byte		N09   , An2 , v060
	.byte	W24
	.byte		        An2 , v040
	.byte	W24
	.byte		N09
	.byte	W24
	.byte		        An2 , v020
	.byte	W24
	.byte		N09
	.byte	W12
	.byte	W12
	.byte		N09
	.byte	W24
	.byte		N09
	.byte	W12
	.byte		N12   , Gs2 , v040
	.byte	W12
	.byte		N09   , An2 
	.byte	W24
	.byte		        An2 , v060
	.byte	W24
	.byte		        An2 , v080
	.byte	W24
	.byte		N09
	.byte	W24
	.byte		        An2 , v100
	.byte	W12
	.byte	W12
	.byte		        Gs2 
	.byte	W24
	.byte		        Gs2 , v080
	.byte	W12
	.byte		N12   , Gn2 
	.byte	W12
	.byte		N09   , Gs2 , v060
	.byte	W24
	.byte		        Gs2 , v040
	.byte	W24
	.byte		N09
	.byte	W24
	.byte		        Gs2 , v020
	.byte	W24
	.byte		N09
	.byte	W12
	.byte	W12
	.byte		N09
	.byte	W24
	.byte		N09
	.byte	W12
	.byte		N12   , Gn2 , v040
	.byte	W12
	.byte		N09   , Gs2 
	.byte	W24
	.byte		        Gs2 , v060
	.byte	W24
	.byte		        Gs2 , v080
	.byte	W24
	.byte		N09
	.byte	W24
	.byte		        Gs2 , v100
	.byte	W12
	.byte	W12
	.byte		N09   , An2 , v120
	.byte	W24
	.byte		        An2 , v080
	.byte	W12
	.byte		N12   , Gs2 , v120
	.byte	W12
	.byte		N09   , An2 , v100
	.byte	W24
	.byte		        An2 , v080
	.byte	W24
	.byte		        An2 , v060
	.byte	W24
	.byte		        An2 , v040
	.byte	W24
	.byte		        An2 , v020
	.byte	W12
	.byte	PEND
	.byte	PATT
	 .word	seq_104_3 + 0x7B
	.byte	W12
	.byte		N09   , Gs2 , v120
	.byte	W24
	.byte		        Gs2 , v080
	.byte	W12
	.byte		N12   , Gn2 , v120
	.byte	W12
	.byte		N09   , Gs2 , v100
	.byte	W24
	.byte		        Gs2 , v080
	.byte	W24
	.byte		        Gs2 , v060
	.byte	W24
	.byte		        Gs2 , v040
	.byte	W24
	.byte		        Gs2 , v020
	.byte	W12
	.byte	PEND
	.byte	PATT
	 .word	seq_104_3 + 0x9D
	.byte	W96
	.byte	W72
	.byte	W96
	.byte	W72
	.byte	W96
	.byte	W72
	.byte	W96
	.byte	W72
	.byte		N11   , Fs2 , v120
	.byte	W11
	.byte		N06   , Fs2 , v040
	.byte	W24
	.byte	W01
	.byte		N12   , An2 , v100
	.byte	W12
	.byte		N24   , Ds3 , v120
	.byte	W24
	.byte		        Dn3 , v100
	.byte	W24
	.byte		        Fs2 , v080
	.byte	W24
	.byte		        Fs2 , v040
	.byte	W48
	.byte	W96
	.byte	W72
	.byte		N11   , Fn2 , v120
	.byte	W11
	.byte		N06   , Fn2 , v040
	.byte	W24
	.byte	W01
	.byte		N12   , Gs2 , v100
	.byte	W12
	.byte		N24   , Dn3 , v120
	.byte	W24
	.byte		        Cs3 , v100
	.byte	W24
	.byte		        Fn2 , v080
	.byte	W24
	.byte		        Fn2 , v040
	.byte	W48
	.byte	W96
	.byte	W72
	.byte	W96
	.byte		N03   , Cn4 , v120
	.byte	W03
	.byte		N06   , Cn4 , v020
	.byte	W09
	.byte		N03   , Ds4 , v100
	.byte	W03
	.byte		N06   , Ds4 , v020
	.byte	W09
	.byte		N03   , Dn4 , v120
	.byte	W03
	.byte		N06   , Dn4 , v020
	.byte	W09
	.byte		N03   , Ds4 , v100
	.byte	W03
	.byte		N06   , Ds4 , v020
	.byte	W09
	.byte		N03   , Fs4 , v100
	.byte	W03
	.byte		N06   , Fs4 , v040
	.byte	W06
	.byte		N15   , Fs4 , v020
	.byte	W15
	.byte	PEND
	.byte	PATT
	 .word	seq_104_3 + 0xFF
	.byte	W96
	.byte		N03   , Bn3 , v120
	.byte	W03
	.byte		N06   , Bn3 , v020
	.byte	W09
	.byte		N03   , Dn4 , v100
	.byte	W03
	.byte		N06   , Dn4 , v020
	.byte	W09
	.byte		N03   , Cs4 , v120
	.byte	W03
	.byte		N06   , Cs4 , v020
	.byte	W09
	.byte		N03   , Dn4 , v100
	.byte	W03
	.byte		N06   , Dn4 , v020
	.byte	W09
	.byte		N03   , Fn4 , v100
	.byte	W03
	.byte		N06   , Fn4 , v040
	.byte	W06
	.byte		N15   , Fn4 , v020
	.byte	W15
	.byte	PEND
	.byte	PATT
	 .word	seq_104_3 + 0x132
	.byte	PATT
	 .word	seq_104_3 + 0xFF
	.byte	PATT
	 .word	seq_104_3 + 0xFF
	.byte	PATT
	 .word	seq_104_3 + 0x132
	.byte	W96
	.byte		N03   , Bn3 , v120
	.byte	W03
	.byte		N06   , Bn3 , v020
	.byte	W09
	.byte		N03   , Dn4 , v100
	.byte	W03
	.byte		N06   , Dn4 , v020
	.byte	W09
	.byte		N03   , Cs4 , v120
	.byte	W03
	.byte		N06   , Cs4 , v020
	.byte	W09
	.byte		N03   , Dn4 , v100
	.byte	W03
	.byte		N06   , Dn4 , v020
	.byte	W09
	.byte		N03   , Fn4 , v100
	.byte	W03
	.byte		N06   , Fn4 , v040
	.byte	W06
	.byte		N15   , Fn4 , v020
	.byte	W14
	.byte		VOL   , 12*seq_104_mvl/mxv
	.byte	W01
	.byte		N48   , Cn3 , v100
	.byte	W05
	.byte		VOL   , 18*seq_104_mvl/mxv
	.byte	W06
	.byte		        25*seq_104_mvl/mxv
	.byte	W06
	.byte		        31*seq_104_mvl/mxv
	.byte	W06
	.byte		        37*seq_104_mvl/mxv
	.byte	W05
	.byte		        44*seq_104_mvl/mxv
	.byte	W07
	.byte		        50*seq_104_mvl/mxv
	.byte	W06
	.byte		        56*seq_104_mvl/mxv
	.byte	W04
	.byte		        62*seq_104_mvl/mxv
	.byte	W03
	.byte		N12   , Cn3 , v040
	.byte	W12
	.byte		        Cn3 , v100
	.byte	W12
	.byte		        Dn3 , v120
	.byte	W12
	.byte		N36   , Ds3 
	.byte	W36
	.byte		N12   , Ds3 , v040
	.byte	W12
	.byte		        Ds3 , v020
	.byte	W12
	.byte		        Dn3 , v120
	.byte	W12
	.byte		        Cn3 , v100
	.byte	W12
	.byte	PEND
	.byte		        Bn2 , v120
	.byte	W12
	.byte		        Dn3 , v100
	.byte	W12
	.byte		N09   , Gs2 , v080
	.byte	W09
	.byte		N15   , Gs2 , v020
	.byte	W36
	.byte	W03
	.byte		N12   , Bn3 , v080
	.byte	W12
	.byte		        Dn4 , v060
	.byte	W12
	.byte		N09   , Gs3 , v080
	.byte	W09
	.byte		N15   , Gs3 , v020
	.byte	W36
	.byte	W02
	.byte		VOL   , 12*seq_104_mvl/mxv
	.byte	W01
	.byte	PATT
	 .word	seq_104_3 + 0x1A4
	.byte		N12   , Bn2 , v120
	.byte	W12
	.byte		        Dn3 , v100
	.byte	W12
	.byte		N09   , Gs3 , v080
	.byte	W09
	.byte		N15   , Gs3 , v020
	.byte	W36
	.byte	W03
	.byte		N12   , Bn3 , v080
	.byte	W12
	.byte		        Dn4 , v060
	.byte	W12
	.byte		N09   , Gs3 , v080
	.byte	W09
	.byte		N15   , Gs3 , v020
	.byte	W36
	.byte	W02
	.byte		VOL   , 12*seq_104_mvl/mxv
	.byte	W01
	.byte		N48   , As2 , v100
	.byte	W05
	.byte		VOL   , 18*seq_104_mvl/mxv
	.byte	W06
	.byte		        25*seq_104_mvl/mxv
	.byte	W06
	.byte		        31*seq_104_mvl/mxv
	.byte	W06
	.byte		        37*seq_104_mvl/mxv
	.byte	W05
	.byte		        44*seq_104_mvl/mxv
	.byte	W07
	.byte		        50*seq_104_mvl/mxv
	.byte	W06
	.byte		        56*seq_104_mvl/mxv
	.byte	W04
	.byte		        62*seq_104_mvl/mxv
	.byte	W03
	.byte		N12   , As2 , v040
	.byte	W12
	.byte		        As2 , v100
	.byte	W12
	.byte		        Cn3 , v120
	.byte	W12
	.byte		N36   , Cs3 
	.byte	W36
	.byte		N12   , Cs3 , v040
	.byte	W12
	.byte		        Cs3 , v020
	.byte	W12
	.byte		        Cn3 , v120
	.byte	W12
	.byte		        As2 , v100
	.byte	W12
	.byte		        An2 , v120
	.byte	W12
	.byte		        Cn3 , v100
	.byte	W12
	.byte		N09   , Fs2 , v080
	.byte	W09
	.byte		N15   , Fs2 , v020
	.byte	W36
	.byte	W03
	.byte		N12   , An3 , v080
	.byte	W12
	.byte		        Cn4 , v060
	.byte	W12
	.byte		N09   , Fs3 , v080
	.byte	W09
	.byte		N15   , Fs3 , v020
	.byte	W36
	.byte	W02
	.byte		VOL   , 12*seq_104_mvl/mxv
	.byte	W01
	.byte		N48   , Gs2 , v100
	.byte	W05
	.byte		VOL   , 18*seq_104_mvl/mxv
	.byte	W06
	.byte		        25*seq_104_mvl/mxv
	.byte	W06
	.byte		        31*seq_104_mvl/mxv
	.byte	W06
	.byte		        37*seq_104_mvl/mxv
	.byte	W05
	.byte		        44*seq_104_mvl/mxv
	.byte	W07
	.byte		        50*seq_104_mvl/mxv
	.byte	W06
	.byte		        56*seq_104_mvl/mxv
	.byte	W04
	.byte		        62*seq_104_mvl/mxv
	.byte	W03
	.byte		N12   , Gs2 , v040
	.byte	W12
	.byte		        Gs2 , v100
	.byte	W12
	.byte		        As2 , v120
	.byte	W12
	.byte		N36   , Bn2 
	.byte	W36
	.byte		N12   , Bn2 , v040
	.byte	W12
	.byte		        Bn2 , v020
	.byte	W12
	.byte		        As2 , v120
	.byte	W12
	.byte		        Gs2 , v100
	.byte	W12
	.byte		        Gn2 , v120
	.byte	W12
	.byte		        As2 , v100
	.byte	W12
	.byte		N09   , En2 , v080
	.byte	W09
	.byte		N15   , En2 , v020
	.byte	W36
	.byte	W03
	.byte		N12   , Gn3 , v080
	.byte	W12
	.byte		        As3 , v060
	.byte	W12
	.byte		N09   , En3 , v080
	.byte	W09
	.byte		N15   , En3 , v020
	.byte	W36
	.byte	W03
	.byte	W12
	.byte		N12   , Gn2 , v120
	.byte	W12
	.byte		        Gs2 
	.byte	W12
	.byte		        An2 
	.byte	W12
	.byte		        As2 
	.byte	W12
	.byte		        Bn2 
	.byte	W12
	.byte		        Cn3 
	.byte	W12
	.byte		        Cs3 
	.byte	W12
	.byte		        Dn3 
	.byte	W12
	.byte		        Cs3 
	.byte	W12
	.byte		        Cn3 
	.byte	W12
	.byte		        Bn2 
	.byte	W12
	.byte		        As2 
	.byte	W12
	.byte		        An2 
	.byte	W12
	.byte	W12
	.byte		N04   , Fn2 
	.byte	W12
	.byte		N12
	.byte	W12
	.byte		        Fn2 , v020
	.byte	W12
	.byte		N04   , Fn2 , v120
	.byte	W12
	.byte		N12
	.byte	W12
	.byte		        Fn2 , v020
	.byte	W12
	.byte		N05   , Fn2 , v120
	.byte	W84
	.byte	GOTO
	 .word	seq_104_3 + 0x15
	.byte	FINE

@*********************** Track 05 ***********************@

seq_104_4:
	.byte	KEYSH , seq_104_key+0
	.byte	W06
	.byte		VOICE , 12
	.byte	W01
	.byte		VOL   , 62*seq_104_mvl/mxv
	.byte	W01
	.byte		PAN   , c_v+36
	.byte	W01
	.byte		LFOS  , 20
	.byte	W01
	.byte		MODT  , mod_pan
	.byte	W01
	.byte		MOD   , 20
	.byte	W13
	.byte	W96
	.byte	W72
	.byte	W96
	.byte	W72
	.byte	W96
	.byte	W72
	.byte	W96
	.byte	W72
	.byte	W12
	.byte		N09   , Ds3 , v100
	.byte	W24
	.byte		        Ds3 , v080
	.byte	W12
	.byte		N12   , Dn3 
	.byte	W12
	.byte		N09   , Ds3 , v060
	.byte	W24
	.byte		        Ds3 , v040
	.byte	W24
	.byte		N09
	.byte	W24
	.byte		        Ds3 , v020
	.byte	W24
	.byte		N09
	.byte	W12
	.byte	W12
	.byte		N09
	.byte	W24
	.byte		N09
	.byte	W12
	.byte		N12   , Dn3 , v040
	.byte	W12
	.byte		N09   , Ds3 
	.byte	W24
	.byte		        Ds3 , v060
	.byte	W24
	.byte		        Ds3 , v080
	.byte	W24
	.byte		N09
	.byte	W24
	.byte		        Ds3 , v100
	.byte	W12
	.byte	W12
	.byte		        Dn3 
	.byte	W24
	.byte		        Dn3 , v080
	.byte	W12
	.byte		N12   , Cs3 
	.byte	W12
	.byte		N09   , Dn3 , v060
	.byte	W24
	.byte		        Dn3 , v040
	.byte	W24
	.byte		N09
	.byte	W24
	.byte		        Dn3 , v020
	.byte	W24
	.byte		N09
	.byte	W12
	.byte	W12
	.byte		N09
	.byte	W24
	.byte		N09
	.byte	W12
	.byte		N12   , Cs3 , v040
	.byte	W12
	.byte		N09   , Dn3 
	.byte	W24
	.byte		        Dn3 , v060
	.byte	W24
	.byte		        Dn3 , v080
	.byte	W24
	.byte		N09
	.byte	W24
	.byte		        Dn3 , v100
	.byte	W12
	.byte	W12
	.byte		N09   , Ds3 , v120
	.byte	W24
	.byte		        Ds3 , v080
	.byte	W12
	.byte		N12   , Dn3 , v120
	.byte	W12
	.byte		N09   , Ds3 , v100
	.byte	W24
	.byte		        Ds3 , v080
	.byte	W24
	.byte		        Ds3 , v060
	.byte	W24
	.byte		        Ds3 , v040
	.byte	W24
	.byte		        Ds3 , v020
	.byte	W12
	.byte	PEND
	.byte	PATT
	 .word	seq_104_4 + 0x7B
	.byte	W12
	.byte		N09   , Dn3 , v120
	.byte	W24
	.byte		        Dn3 , v080
	.byte	W12
	.byte		N12   , Cs3 , v120
	.byte	W12
	.byte		N09   , Dn3 , v100
	.byte	W24
	.byte		        Dn3 , v080
	.byte	W24
	.byte		        Dn3 , v060
	.byte	W24
	.byte		        Dn3 , v040
	.byte	W24
	.byte		        Dn3 , v020
	.byte	W12
	.byte	PEND
	.byte	PATT
	 .word	seq_104_4 + 0x9D
	.byte	W96
	.byte	W72
	.byte	W96
	.byte	W72
	.byte	W96
	.byte	W72
	.byte	W96
	.byte	W72
	.byte	W96
	.byte	W72
	.byte		N11   , Fs2 , v120
	.byte	W11
	.byte		N06   , Fs2 , v040
	.byte	W24
	.byte	W01
	.byte		N12   , An2 , v100
	.byte	W12
	.byte		N24   , Ds3 , v120
	.byte	W24
	.byte		        Dn3 , v100
	.byte	W24
	.byte		        Fs2 , v080
	.byte	W24
	.byte		        Fs2 , v040
	.byte	W48
	.byte	W96
	.byte	W72
	.byte		N11   , Fn2 , v120
	.byte	W11
	.byte		N06   , Fn2 , v040
	.byte	W24
	.byte	W01
	.byte		N12   , Gs2 , v100
	.byte	W12
	.byte		N24   , Dn3 , v120
	.byte	W24
	.byte		        Cs3 , v100
	.byte	W24
	.byte		        Fn2 , v080
	.byte	W24
	.byte		        Fn2 , v040
	.byte	W48
	.byte	W96
	.byte	W48
	.byte		N03   , Cn4 , v120
	.byte	W03
	.byte		N06   , Cn4 , v020
	.byte	W09
	.byte		N03   , Ds4 , v100
	.byte	W03
	.byte		N06   , Ds4 , v020
	.byte	W09
	.byte	PEND
	.byte		N03   , Cn4 , v100
	.byte	W03
	.byte		N06   , Cn4 , v040
	.byte	W06
	.byte		N09   , Cn4 , v020
	.byte	W96
	.byte	W36
	.byte	W03
	.byte		N03   , Cn4 , v120
	.byte	W03
	.byte		N06   , Cn4 , v020
	.byte	W09
	.byte		N03   , Ds4 , v100
	.byte	W03
	.byte		N06   , Ds4 , v020
	.byte	W09
	.byte	PEND
	.byte		N03   , Bn3 , v100
	.byte	W03
	.byte		N06   , Bn3 , v040
	.byte	W06
	.byte		N09   , Bn3 , v020
	.byte	W96
	.byte	W36
	.byte	W03
	.byte		N03   , Bn3 , v120
	.byte	W03
	.byte		N06   , Bn3 , v020
	.byte	W09
	.byte		N03   , Dn4 , v100
	.byte	W03
	.byte		N06   , Dn4 , v020
	.byte	W09
	.byte	PEND
	.byte	PATT
	 .word	seq_104_4 + 0x131
	.byte	PATT
	 .word	seq_104_4 + 0xFF
	.byte	PATT
	 .word	seq_104_4 + 0x112
	.byte	PATT
	 .word	seq_104_4 + 0x131
	.byte		N03   , Bn3 , v100
	.byte	W03
	.byte		N06   , Bn3 , v040
	.byte	W06
	.byte		N09   , Bn3 , v020
	.byte	W96
	.byte	W36
	.byte	W03
	.byte		N03   , Bn3 , v120
	.byte	W03
	.byte		N06   , Bn3 , v020
	.byte	W09
	.byte		N03   , Dn4 , v100
	.byte	W03
	.byte		N06   , Dn4 , v020
	.byte	W08
	.byte		VOL   , 6*seq_104_mvl/mxv
	.byte	W01
	.byte		N48   , An2 , v100
	.byte	W05
	.byte		VOL   , 12*seq_104_mvl/mxv
	.byte	W06
	.byte		        18*seq_104_mvl/mxv
	.byte	W06
	.byte		        25*seq_104_mvl/mxv
	.byte	W06
	.byte		        31*seq_104_mvl/mxv
	.byte	W05
	.byte		        37*seq_104_mvl/mxv
	.byte	W07
	.byte		        44*seq_104_mvl/mxv
	.byte	W13
	.byte		N12   , An2 , v040
	.byte	W12
	.byte		        An2 , v100
	.byte	W12
	.byte		        Bn2 , v120
	.byte	W12
	.byte		N36   , Cn3 
	.byte	W36
	.byte		N12   , Cn3 , v040
	.byte	W12
	.byte		        Cn3 , v020
	.byte	W12
	.byte		        Bn2 , v120
	.byte	W12
	.byte		        An2 , v100
	.byte	W12
	.byte	PEND
	.byte		        Gs2 , v120
	.byte	W12
	.byte		        Bn2 , v100
	.byte	W12
	.byte		N09   , Fn2 , v080
	.byte	W09
	.byte		N15   , Fn2 , v020
	.byte	W36
	.byte	W03
	.byte		N12   , Gs3 , v080
	.byte	W12
	.byte		        Bn3 , v060
	.byte	W12
	.byte		N09   , Fn3 , v080
	.byte	W09
	.byte		N15   , Fn3 , v020
	.byte	W36
	.byte	W02
	.byte		VOL   , 6*seq_104_mvl/mxv
	.byte	W01
	.byte	PATT
	 .word	seq_104_4 + 0x185
	.byte		N12   , Gs2 , v120
	.byte	W12
	.byte		        Bn2 , v100
	.byte	W12
	.byte		N09   , Fn3 , v080
	.byte	W09
	.byte		N15   , Fn3 , v020
	.byte	W36
	.byte	W03
	.byte		N12   , Gs3 , v080
	.byte	W12
	.byte		        Bn3 , v060
	.byte	W12
	.byte		N09   , Fn3 , v080
	.byte	W09
	.byte		N15   , Fn3 , v020
	.byte	W36
	.byte	W02
	.byte		VOL   , 6*seq_104_mvl/mxv
	.byte	W01
	.byte		N48   , Gn2 , v100
	.byte	W05
	.byte		VOL   , 12*seq_104_mvl/mxv
	.byte	W06
	.byte		        18*seq_104_mvl/mxv
	.byte	W06
	.byte		        25*seq_104_mvl/mxv
	.byte	W06
	.byte		        31*seq_104_mvl/mxv
	.byte	W05
	.byte		        37*seq_104_mvl/mxv
	.byte	W07
	.byte		        44*seq_104_mvl/mxv
	.byte	W13
	.byte		N12   , Gn2 , v040
	.byte	W12
	.byte		        Gn2 , v100
	.byte	W12
	.byte		        An2 , v120
	.byte	W12
	.byte		N36   , As2 
	.byte	W36
	.byte		N12   , As2 , v040
	.byte	W12
	.byte		        As2 , v020
	.byte	W12
	.byte		        An2 , v120
	.byte	W12
	.byte		        Gn2 , v100
	.byte	W12
	.byte		        Fs2 , v120
	.byte	W12
	.byte		        An2 , v100
	.byte	W12
	.byte		N09   , Ds2 , v080
	.byte	W09
	.byte		N15   , Ds2 , v020
	.byte	W36
	.byte	W03
	.byte		N12   , Fs3 , v080
	.byte	W12
	.byte		        An3 , v060
	.byte	W12
	.byte		N09   , Ds3 , v080
	.byte	W09
	.byte		N15   , Ds3 , v020
	.byte	W36
	.byte	W02
	.byte		VOL   , 6*seq_104_mvl/mxv
	.byte	W01
	.byte		N48   , Fn2 , v100
	.byte	W05
	.byte		VOL   , 12*seq_104_mvl/mxv
	.byte	W06
	.byte		        18*seq_104_mvl/mxv
	.byte	W06
	.byte		        25*seq_104_mvl/mxv
	.byte	W06
	.byte		        31*seq_104_mvl/mxv
	.byte	W05
	.byte		        37*seq_104_mvl/mxv
	.byte	W07
	.byte		        44*seq_104_mvl/mxv
	.byte	W13
	.byte		N12   , Fn2 , v040
	.byte	W12
	.byte		        Fn2 , v100
	.byte	W12
	.byte		        Gn2 , v120
	.byte	W12
	.byte		N36   , Gs2 
	.byte	W36
	.byte		N12   , Gs2 , v040
	.byte	W12
	.byte		        Gs2 , v020
	.byte	W12
	.byte		        Gn2 , v120
	.byte	W12
	.byte		        Fn2 , v100
	.byte	W12
	.byte		        En2 , v120
	.byte	W12
	.byte		        Gn2 , v100
	.byte	W12
	.byte		N09   , Cs2 , v080
	.byte	W09
	.byte		N15   , Cs2 , v020
	.byte	W36
	.byte	W03
	.byte		N12   , En3 , v080
	.byte	W12
	.byte		        Gn3 , v060
	.byte	W12
	.byte		N09   , Cs3 , v080
	.byte	W09
	.byte		N15   , Cs3 , v020
	.byte	W36
	.byte	W03
	.byte	W12
	.byte		N12   , Cn2 , v120
	.byte	W12
	.byte		        Cs2 
	.byte	W12
	.byte		        Dn2 
	.byte	W12
	.byte		        Ds2 
	.byte	W12
	.byte		        En2 
	.byte	W12
	.byte		        Fn2 
	.byte	W12
	.byte		        Fs2 
	.byte	W12
	.byte		        Gn2 
	.byte	W12
	.byte		        Fs2 
	.byte	W12
	.byte		        Fn2 
	.byte	W12
	.byte		        En2 
	.byte	W12
	.byte		        Ds2 
	.byte	W12
	.byte		        Dn2 
	.byte	W12
	.byte	W12
	.byte		N04   , Bn1 
	.byte	W12
	.byte		N12
	.byte	W12
	.byte		        Bn1 , v020
	.byte	W12
	.byte		N04   , Bn1 , v120
	.byte	W12
	.byte		N12
	.byte	W12
	.byte		        Bn1 , v020
	.byte	W12
	.byte		N05   , Bn1 , v120
	.byte	W84
	.byte	GOTO
	 .word	seq_104_4 + 0x15
	.byte	FINE

@*********************** Track 06 ***********************@

seq_104_5:
	.byte	KEYSH , seq_104_key+0
	.byte	W06
	.byte		VOICE , 27
	.byte	W01
	.byte		VOL   , 75*seq_104_mvl/mxv
	.byte	W01
	.byte		PAN   , c_v+0
	.byte	W01
	.byte		LFOS  , 40
	.byte	W01
	.byte		MODT  , mod_tre
	.byte	W01
	.byte		MOD   , 120
	.byte	W13
	.byte	W96
	.byte	W72
	.byte	W96
	.byte	W72
	.byte	W96
	.byte	W72
	.byte	W96
	.byte	W72
	.byte	W96
	.byte	W72
	.byte	W96
	.byte	W72
	.byte	W96
	.byte	W72
	.byte	W96
	.byte	W72
	.byte	W96
	.byte	W72
	.byte	W96
	.byte	W72
	.byte	W96
	.byte	W72
	.byte	W96
	.byte	W68
	.byte	W03
	.byte		N06   , Ds4 , v100
	.byte	W01
	.byte	W05
	.byte		N18   , Ds4 , v060
	.byte	W18
	.byte		N24   , Ds4 , v040
	.byte	W24
	.byte		        Ds4 , v020
	.byte	W60
	.byte		N12   , Dn4 , v100
	.byte	W12
	.byte		        Ds4 , v120
	.byte	W12
	.byte		        Fn4 , v100
	.byte	W12
	.byte		        Ds4 , v120
	.byte	W12
	.byte		        Dn4 , v100
	.byte	W12
	.byte		N06   , Ds4 
	.byte	W01
	.byte	W05
	.byte		N18   , Ds4 , v060
	.byte	W18
	.byte		N24   , Ds4 , v040
	.byte	W24
	.byte		        Ds4 , v020
	.byte	W60
	.byte		N12   , Dn4 , v100
	.byte	W12
	.byte		        Ds4 , v120
	.byte	W12
	.byte		        Fn4 , v100
	.byte	W12
	.byte		        Ds4 , v120
	.byte	W12
	.byte		        Dn4 , v100
	.byte	W12
	.byte		N06   , Bn3 
	.byte	W01
	.byte	W05
	.byte		N18   , Bn3 , v060
	.byte	W18
	.byte		N24   , Bn3 , v040
	.byte	W24
	.byte		        Bn3 , v020
	.byte	W60
	.byte		N12   , Bn3 , v100
	.byte	W12
	.byte		        Cn4 , v120
	.byte	W12
	.byte		        Dn4 , v100
	.byte	W12
	.byte		        Cn4 , v120
	.byte	W12
	.byte		        Bn3 , v100
	.byte	W12
	.byte		N06   , Gs3 
	.byte	W01
	.byte	W05
	.byte		N18   , Gs3 , v060
	.byte	W18
	.byte		N24   , Gs3 , v040
	.byte	W24
	.byte		        Gs3 , v020
	.byte	W60
	.byte		N12   , Gs3 , v100
	.byte	W12
	.byte		        An3 , v120
	.byte	W12
	.byte		        Bn3 , v100
	.byte	W12
	.byte		        Cn4 , v120
	.byte	W12
	.byte		        Dn4 , v100
	.byte	W12
	.byte		N06   , Ds4 
	.byte	W01
	.byte	W05
	.byte		N18   , Ds4 , v060
	.byte	W18
	.byte		N24   , Ds4 , v020
	.byte	W84
	.byte		N12   , Dn4 , v100
	.byte	W12
	.byte		        Ds4 , v120
	.byte	W12
	.byte		        Fn4 , v100
	.byte	W12
	.byte		        Ds4 , v120
	.byte	W12
	.byte		        Dn4 , v100
	.byte	W12
	.byte		N06   , Ds4 
	.byte	W01
	.byte	W05
	.byte		N18   , Ds4 , v060
	.byte	W18
	.byte		N24   , Ds4 , v020
	.byte	W84
	.byte		N12   , Dn4 , v100
	.byte	W12
	.byte		        Ds4 , v120
	.byte	W12
	.byte		        Fn4 , v100
	.byte	W12
	.byte		        Ds4 , v120
	.byte	W12
	.byte		        Dn4 , v100
	.byte	W12
	.byte		N06   , Bn3 
	.byte	W01
	.byte	W05
	.byte		N18   , Bn3 , v060
	.byte	W18
	.byte		N24   , Bn3 , v020
	.byte	W84
	.byte		N12   , Bn3 , v100
	.byte	W12
	.byte		        Cn4 , v120
	.byte	W12
	.byte		        Dn4 , v100
	.byte	W12
	.byte		        Cn4 , v120
	.byte	W12
	.byte		        Bn3 , v100
	.byte	W12
	.byte		N06   , Gs3 
	.byte	W01
	.byte	W05
	.byte		N18   , Gs3 , v060
	.byte	W18
	.byte		N24   , Gs3 , v020
	.byte	W84
	.byte		N12   , Gs3 , v100
	.byte	W12
	.byte		        An3 , v120
	.byte	W12
	.byte		        Bn3 , v100
	.byte	W12
	.byte		        Cn4 , v120
	.byte	W12
	.byte		        Dn4 , v100
	.byte	W12
	.byte		N06   , Ds4 , v080
	.byte	W01
	.byte	W05
	.byte		N18   , Ds4 , v040
	.byte	W42
	.byte	W01
	.byte		N03   , Cn4 , v120
	.byte	W03
	.byte		        Cn4 , v060
	.byte	W03
	.byte		        Cn4 , v020
	.byte	W06
	.byte		N02   , Ds4 , v100
	.byte	W03
	.byte		N03   , Ds4 , v040
	.byte	W03
	.byte		        Ds4 , v020
	.byte	W06
	.byte		N02   , Dn4 , v100
	.byte	W03
	.byte		N03   , Dn4 , v040
	.byte	W03
	.byte		        Dn4 , v020
	.byte	W06
	.byte		N02   , Ds4 , v100
	.byte	W03
	.byte		N03   , Ds4 , v040
	.byte	W03
	.byte		        Ds4 , v020
	.byte	W06
	.byte		N02   , Fs4 , v100
	.byte	W03
	.byte		N03   , Fs4 , v040
	.byte	W03
	.byte		        Fs4 , v020
	.byte	W66
	.byte	W48
	.byte		N03   , Cn4 , v120
	.byte	W03
	.byte		        Cn4 , v060
	.byte	W03
	.byte		        Cn4 , v020
	.byte	W06
	.byte		N02   , Ds4 , v100
	.byte	W03
	.byte		N03   , Ds4 , v040
	.byte	W03
	.byte		        Ds4 , v020
	.byte	W06
	.byte		N02   , Dn4 , v100
	.byte	W03
	.byte		N03   , Dn4 , v040
	.byte	W03
	.byte		        Dn4 , v020
	.byte	W06
	.byte		N02   , Ds4 , v100
	.byte	W03
	.byte		N03   , Ds4 , v040
	.byte	W03
	.byte		        Ds4 , v020
	.byte	W06
	.byte		N02   , Fs4 , v100
	.byte	W03
	.byte		N03   , Fs4 , v040
	.byte	W03
	.byte		        Fs4 , v020
	.byte	W66
	.byte	PEND
	.byte	W48
	.byte		N03   , Bn3 , v120
	.byte	W03
	.byte		        Bn3 , v060
	.byte	W03
	.byte		        Bn3 , v020
	.byte	W06
	.byte		N02   , Dn4 , v100
	.byte	W03
	.byte		N03   , Dn4 , v040
	.byte	W03
	.byte		        Dn4 , v020
	.byte	W06
	.byte		N02   , Cs4 , v100
	.byte	W03
	.byte		N03   , Cs4 , v040
	.byte	W03
	.byte		        Cs4 , v020
	.byte	W06
	.byte		N02   , Dn4 , v100
	.byte	W03
	.byte		N03   , Dn4 , v040
	.byte	W03
	.byte		        Dn4 , v020
	.byte	W06
	.byte		N02   , Fn4 , v100
	.byte	W03
	.byte		N03   , Fn4 , v040
	.byte	W03
	.byte		        Fn4 , v020
	.byte	W66
	.byte	PEND
	.byte	PATT
	 .word	seq_104_5 + 0x193
	.byte	PATT
	 .word	seq_104_5 + 0x15B
	.byte	PATT
	 .word	seq_104_5 + 0x15B
	.byte	PATT
	 .word	seq_104_5 + 0x193
	.byte	PATT
	 .word	seq_104_5 + 0x193
	.byte		N44   , Cn4 , v080
	.byte	W48
	.byte		N11   , Cn4 , v040
	.byte	W12
	.byte		        Cn4 , v100
	.byte	W12
	.byte		        Dn4 , v080
	.byte	W12
	.byte		N32   , Ds4 
	.byte	W36
	.byte		N23   , Ds4 , v040
	.byte	W24
	.byte		N11   , Dn4 , v100
	.byte	W12
	.byte		        Cn4 , v080
	.byte	W12
	.byte	PEND
	.byte		N11   , Bn3 , v100
	.byte	W12
	.byte		        Dn4 , v080
	.byte	W12
	.byte		N08   , Gs3 
	.byte	W96
	.byte	W24
	.byte	PEND
	.byte	PATT
	 .word	seq_104_5 + 0x1E4
	.byte	PATT
	 .word	seq_104_5 + 0x201
	.byte		N44   , As3 , v080
	.byte	W48
	.byte		N11   , As3 , v040
	.byte	W12
	.byte		        As3 , v100
	.byte	W12
	.byte		        Cn4 , v080
	.byte	W12
	.byte		N32   , Cs4 
	.byte	W36
	.byte		N23   , Cs4 , v040
	.byte	W24
	.byte		N11   , Cn4 , v100
	.byte	W12
	.byte		        As3 , v080
	.byte	W12
	.byte		        An3 , v100
	.byte	W12
	.byte		        Cn4 , v080
	.byte	W12
	.byte		N08   , Fs3 
	.byte	W96
	.byte	W24
	.byte		N44   , Gs3 
	.byte	W48
	.byte		N11   , Gs3 , v040
	.byte	W12
	.byte		        Gs3 , v100
	.byte	W12
	.byte		        As3 , v080
	.byte	W12
	.byte		N32   , Bn3 
	.byte	W36
	.byte		N23   , Bn3 , v040
	.byte	W24
	.byte		N11   , As3 , v100
	.byte	W12
	.byte		        Gs3 , v080
	.byte	W12
	.byte		        Gn3 , v100
	.byte	W12
	.byte		        As3 , v080
	.byte	W12
	.byte		N08   , En3 
	.byte	W96
	.byte	W24
	.byte	W96
	.byte	W72
	.byte	W96
	.byte		N03   , Bn2 , v100
	.byte	W06
	.byte		        Cs3 
	.byte	W06
	.byte		        Dn3 
	.byte	W06
	.byte		        En3 
	.byte	W06
	.byte		        Fn3 
	.byte	W06
	.byte		N02   , Fn3 , v060
	.byte	W06
	.byte		        Fn3 , v040
	.byte	W06
	.byte		        Fn3 , v020
	.byte	W30
	.byte	GOTO
	 .word	seq_104_5 + 0x15
	.byte	FINE

@*********************** Track 07 ***********************@

seq_104_6:
	.byte	KEYSH , seq_104_key+0
	.byte	W12
	.byte		VOICE , 22
	.byte	W01
	.byte		VOL   , 18*seq_104_mvl/mxv
	.byte	W01
	.byte		PAN   , c_v-44
	.byte	W01
	.byte		LFOS  , 20
	.byte	W01
	.byte		MODT  , mod_pan
	.byte	W01
	.byte		BENDR , 12
	.byte	W01
	.byte		MOD   , 20
	.byte	W06
	.byte	W96
	.byte	W72
	.byte	W96
	.byte	W72
	.byte	W96
	.byte	W72
	.byte	W96
	.byte	W72
	.byte	W36
	.byte		N09   , Fs3 , v040
	.byte		N09   , Ds4 , v060
	.byte	W09
	.byte		N03   , Fs3 , v020
	.byte		N03   , Ds4 , v040
	.byte	W14
	.byte		PAN   , c_v+36
	.byte	W01
	.byte		N09   , Ds3 , v060
	.byte		N09   , Cn4 , v080
	.byte	W09
	.byte		N03   , Ds3 , v020
	.byte		N03   , Cn4 , v040
	.byte	W48
	.byte	W02
	.byte		PAN   , c_v-44
	.byte	W01
	.byte		N09   , Fs3 , v060
	.byte		N09   , Ds4 , v100
	.byte	W09
	.byte		N03   , Fs3 , v040
	.byte		N03   , Ds4 
	.byte	W14
	.byte		PAN   , c_v+36
	.byte	W01
	.byte		N09   , Ds3 , v080
	.byte		N09   , Cn4 , v120
	.byte	W09
	.byte		N03   , Ds3 , v040
	.byte		N03   , Cn4 
	.byte	W15
	.byte	W32
	.byte	W02
	.byte		VOL   , 25*seq_104_mvl/mxv
	.byte	W01
	.byte		PAN   , c_v-44
	.byte	W01
	.byte		N09   , Fs3 , v040
	.byte		N09   , Ds4 , v060
	.byte	W09
	.byte		N03   , Fs3 , v020
	.byte		N03   , Ds4 , v040
	.byte	W14
	.byte		PAN   , c_v+36
	.byte	W01
	.byte		N09   , Ds3 , v060
	.byte		N09   , Cn4 , v080
	.byte	W09
	.byte		N03   , Ds3 , v020
	.byte		N03   , Cn4 , v040
	.byte	W48
	.byte	W02
	.byte		PAN   , c_v-44
	.byte	W01
	.byte		N09   , Fs3 , v060
	.byte		N09   , Ds4 , v100
	.byte	W09
	.byte		N03   , Fs3 , v040
	.byte		N03   , Ds4 
	.byte	W14
	.byte		PAN   , c_v+36
	.byte	W01
	.byte		N09   , Ds3 , v080
	.byte		N09   , Cn4 , v120
	.byte	W09
	.byte		N03   , Ds3 , v040
	.byte		N03   , Cn4 
	.byte	W15
	.byte	PEND
	.byte	W32
	.byte	W02
	.byte		VOL   , 31*seq_104_mvl/mxv
	.byte	W01
	.byte		PAN   , c_v-44
	.byte	W01
	.byte		N09   , Fn3 , v040
	.byte		N09   , Dn4 , v060
	.byte	W09
	.byte		N03   , Fn3 , v020
	.byte		N03   , Dn4 , v040
	.byte	W14
	.byte		PAN   , c_v+36
	.byte	W01
	.byte		N09   , Dn3 , v060
	.byte		N09   , Bn3 , v080
	.byte	W09
	.byte		N03   , Dn3 , v020
	.byte		N03   , Bn3 , v040
	.byte	W48
	.byte	W02
	.byte		PAN   , c_v-44
	.byte	W01
	.byte		N09   , Fn3 , v060
	.byte		N09   , Dn4 , v100
	.byte	W09
	.byte		N03   , Fn3 , v040
	.byte		N03   , Dn4 
	.byte	W14
	.byte		PAN   , c_v+36
	.byte	W01
	.byte		N09   , Dn3 , v080
	.byte		N09   , Bn3 , v120
	.byte	W09
	.byte		N03   , Dn3 , v040
	.byte		N03   , Bn3 
	.byte	W15
	.byte	PEND
	.byte	W32
	.byte	W02
	.byte		VOL   , 37*seq_104_mvl/mxv
	.byte	W01
	.byte		PAN   , c_v-44
	.byte	W01
	.byte		N09   , Fn3 , v040
	.byte		N09   , Dn4 , v060
	.byte	W09
	.byte		N03   , Fn3 , v020
	.byte		N03   , Dn4 , v040
	.byte	W14
	.byte		PAN   , c_v+36
	.byte	W01
	.byte		N09   , Dn3 , v060
	.byte		N09   , Bn3 , v080
	.byte	W09
	.byte		N03   , Dn3 , v020
	.byte		N03   , Bn3 , v040
	.byte	W48
	.byte	W02
	.byte		PAN   , c_v-44
	.byte	W01
	.byte		N09   , Fn3 , v060
	.byte		N09   , Dn4 , v100
	.byte	W09
	.byte		N03   , Fn3 , v040
	.byte		N03   , Dn4 
	.byte	W14
	.byte		PAN   , c_v+36
	.byte	W01
	.byte		N09   , Dn3 , v080
	.byte		N09   , Bn3 , v120
	.byte	W09
	.byte		N03   , Dn3 , v040
	.byte		N03   , Bn3 
	.byte	W15
	.byte	PEND
	.byte	W32
	.byte	W02
	.byte		VOL   , 50*seq_104_mvl/mxv
	.byte	W01
	.byte		PAN   , c_v-44
	.byte	W01
	.byte		N09   , Fs3 , v040
	.byte		N09   , Ds4 , v060
	.byte	W09
	.byte		N03   , Fs3 , v020
	.byte		N03   , Ds4 , v040
	.byte	W14
	.byte		PAN   , c_v+36
	.byte	W01
	.byte		N09   , Ds3 , v060
	.byte		N09   , Cn4 , v080
	.byte	W09
	.byte		N03   , Ds3 , v020
	.byte		N03   , Cn4 , v040
	.byte	W48
	.byte	W02
	.byte		PAN   , c_v-44
	.byte	W01
	.byte		N09   , Fs3 , v060
	.byte		N09   , Ds4 , v100
	.byte	W09
	.byte		N03   , Fs3 , v040
	.byte		N03   , Ds4 
	.byte	W14
	.byte		PAN   , c_v+36
	.byte	W01
	.byte		N09   , Ds3 , v080
	.byte		N09   , Cn4 , v120
	.byte	W09
	.byte		N03   , Ds3 , v040
	.byte		N03   , Cn4 
	.byte	W15
	.byte	PEND
	.byte	W32
	.byte	W03
	.byte		PAN   , c_v-44
	.byte	W01
	.byte		N09   , Fs3 , v040
	.byte		N09   , Ds4 , v060
	.byte	W09
	.byte		N03   , Fs3 , v020
	.byte		N03   , Ds4 , v040
	.byte	W14
	.byte		PAN   , c_v+36
	.byte	W01
	.byte		N09   , Ds3 , v060
	.byte		N09   , Cn4 , v080
	.byte	W09
	.byte		N03   , Ds3 , v020
	.byte		N03   , Cn4 , v040
	.byte	W48
	.byte	W02
	.byte		PAN   , c_v-44
	.byte	W01
	.byte		N09   , Fs3 , v060
	.byte		N09   , Ds4 , v100
	.byte	W09
	.byte		N03   , Fs3 , v040
	.byte		N03   , Ds4 
	.byte	W14
	.byte		PAN   , c_v+36
	.byte	W01
	.byte		N09   , Ds3 , v080
	.byte		N09   , Cn4 , v120
	.byte	W09
	.byte		N03   , Ds3 , v040
	.byte		N03   , Cn4 
	.byte	W15
	.byte	PEND
	.byte	W32
	.byte	W03
	.byte		PAN   , c_v-44
	.byte	W01
	.byte		N09   , Fn3 , v040
	.byte		N09   , Dn4 , v060
	.byte	W09
	.byte		N03   , Fn3 , v020
	.byte		N03   , Dn4 , v040
	.byte	W14
	.byte		PAN   , c_v+36
	.byte	W01
	.byte		N09   , Dn3 , v060
	.byte		N09   , Bn3 , v080
	.byte	W09
	.byte		N03   , Dn3 , v020
	.byte		N03   , Bn3 , v040
	.byte	W48
	.byte	W02
	.byte		PAN   , c_v-44
	.byte	W01
	.byte		N09   , Fn3 , v060
	.byte		N09   , Dn4 , v100
	.byte	W09
	.byte		N03   , Fn3 , v040
	.byte		N03   , Dn4 
	.byte	W14
	.byte		PAN   , c_v+36
	.byte	W01
	.byte		N09   , Dn3 , v080
	.byte		N09   , Bn3 , v120
	.byte	W09
	.byte		N03   , Dn3 , v040
	.byte		N03   , Bn3 
	.byte	W15
	.byte	PEND
	.byte	PATT
	 .word	seq_104_6 + 0x1CB
	.byte	W96
	.byte	W72
	.byte	W96
	.byte	W72
	.byte	W96
	.byte	W72
	.byte	W96
	.byte	W72
	.byte	W96
	.byte	W72
	.byte	W96
	.byte	W72
	.byte	W96
	.byte	W72
	.byte	W96
	.byte	W72
	.byte	W32
	.byte	W02
	.byte		VOL   , 18*seq_104_mvl/mxv
	.byte	W01
	.byte		PAN   , c_v-44
	.byte	W01
	.byte		N09   , Fs3 , v040
	.byte		N09   , Ds4 , v060
	.byte	W09
	.byte		N03   , Fs3 , v020
	.byte		N03   , Ds4 , v040
	.byte	W14
	.byte		PAN   , c_v+36
	.byte	W01
	.byte		N09   , Ds3 , v060
	.byte		N09   , Cn4 , v080
	.byte	W09
	.byte		N03   , Ds3 , v020
	.byte		N03   , Cn4 , v040
	.byte	W48
	.byte	W02
	.byte		PAN   , c_v-44
	.byte	W01
	.byte		N09   , Fs3 , v060
	.byte		N09   , Ds4 , v100
	.byte	W09
	.byte		N03   , Fs3 , v040
	.byte		N03   , Ds4 
	.byte	W14
	.byte		PAN   , c_v+36
	.byte	W01
	.byte		N09   , Ds3 , v080
	.byte		N09   , Cn4 , v120
	.byte	W09
	.byte		N03   , Ds3 , v040
	.byte		N03   , Cn4 
	.byte	W15
	.byte	PATT
	 .word	seq_104_6 + 0x61
	.byte	PATT
	 .word	seq_104_6 + 0xAA
	.byte	PATT
	 .word	seq_104_6 + 0xF3
	.byte	PATT
	 .word	seq_104_6 + 0x13C
	.byte	PATT
	 .word	seq_104_6 + 0x185
	.byte	PATT
	 .word	seq_104_6 + 0x1CB
	.byte	W32
	.byte	W03
	.byte		PAN   , c_v-44
	.byte	W01
	.byte		N09   , Fn3 , v040
	.byte		N09   , Dn4 , v060
	.byte	W09
	.byte		N03   , Fn3 , v020
	.byte		N03   , Dn4 , v040
	.byte	W14
	.byte		PAN   , c_v+36
	.byte	W01
	.byte		N09   , Dn3 , v060
	.byte		N09   , Bn3 , v080
	.byte	W09
	.byte		N03   , Dn3 , v020
	.byte		N03   , Bn3 , v040
	.byte	W48
	.byte	W02
	.byte		PAN   , c_v-44
	.byte	W01
	.byte		N09   , Fn3 , v060
	.byte		N09   , Dn4 , v100
	.byte	W09
	.byte		N03   , Fn3 , v040
	.byte		N03   , Dn4 
	.byte	W14
	.byte		PAN   , c_v+36
	.byte	W01
	.byte		N09   , Dn3 , v080
	.byte		N09   , Bn3 , v120
	.byte	W09
	.byte		N03   , Dn3 , v040
	.byte		N03   , Bn3 
	.byte	W13
	.byte		PAN   , c_v-44
	.byte	W01
	.byte		VOL   , 18*seq_104_mvl/mxv
	.byte	W01
	.byte	W96
	.byte	W72
	.byte	W96
	.byte	W48
	.byte	W96
	.byte	W72
	.byte	W96
	.byte	W48
	.byte	W96
	.byte	W72
	.byte	W96
	.byte	W48
	.byte	W96
	.byte	W72
	.byte	W96
	.byte	W48
	.byte	W96
	.byte	W72
	.byte	W96
	.byte	W72
	.byte	GOTO
	 .word	seq_104_6 + 0x18
	.byte	FINE

@*********************** Track 08 ***********************@

seq_104_7:
	.byte	KEYSH , seq_104_key+0
	.byte	W12
	.byte		VOICE , 6
	.byte	W01
	.byte		VOL   , 75*seq_104_mvl/mxv
	.byte	W01
	.byte		PAN   , c_v+0
	.byte	W01
	.byte		LFOS  , 40
	.byte	W01
	.byte		MODT  , mod_pan
	.byte	W01
	.byte		BENDR , 12
	.byte	W01
	.byte		MOD   , 80
	.byte	W06
	.byte	W96
	.byte	W72
	.byte	W96
	.byte	W72
	.byte	W96
	.byte	W72
	.byte	W96
	.byte	W72
	.byte	W96
	.byte	W72
	.byte	W96
	.byte	W72
	.byte	W96
	.byte	W72
	.byte	W96
	.byte	W72
	.byte	W96
	.byte	W72
	.byte	W96
	.byte	W72
	.byte	W96
	.byte	W72
	.byte	W96
	.byte	W72
	.byte	W96
	.byte	W72
	.byte	W96
	.byte	W72
	.byte	W96
	.byte	W72
	.byte	W96
	.byte	W72
	.byte	W96
	.byte	W72
	.byte	W96
	.byte	W72
	.byte	W96
	.byte	W72
	.byte	W96
	.byte	W72
	.byte	W96
	.byte	W12
	.byte		N02   , An5 , v120
	.byte	W02
	.byte		        An6 , v040
	.byte	W10
	.byte		        An5 , v080
	.byte	W02
	.byte		        An6 , v040
	.byte	W10
	.byte		        An5 , v060
	.byte	W02
	.byte		        An6 , v040
	.byte	W10
	.byte		        An5 , v060
	.byte	W02
	.byte		        An6 , v040
	.byte	W10
	.byte		        An5 
	.byte	W02
	.byte		        An6 , v020
	.byte	W10
	.byte	PEND
	.byte	PATT
	 .word	seq_104_7 + 0x40
	.byte	W96
	.byte	W12
	.byte		N02   , Gs5 , v120
	.byte	W02
	.byte		        Gs6 , v040
	.byte	W10
	.byte		        Gs5 , v080
	.byte	W02
	.byte		        Gs6 , v040
	.byte	W10
	.byte		        Gs5 , v060
	.byte	W02
	.byte		        Gs6 , v040
	.byte	W10
	.byte		        Gs5 , v060
	.byte	W02
	.byte		        Gs6 , v040
	.byte	W10
	.byte		        Gs5 
	.byte	W02
	.byte		        Gs6 , v020
	.byte	W10
	.byte	PEND
	.byte	PATT
	 .word	seq_104_7 + 0x66
	.byte	PATT
	 .word	seq_104_7 + 0x40
	.byte	PATT
	 .word	seq_104_7 + 0x40
	.byte	PATT
	 .word	seq_104_7 + 0x66
	.byte	PATT
	 .word	seq_104_7 + 0x66
	.byte	W36
	.byte		N01   , Bn3 , v060
	.byte	W01
	.byte		N03   , Bn4 , v120
	.byte	W11
	.byte		N01   , Cn4 , v060
	.byte	W01
	.byte		N03   , Cn5 , v120
	.byte	W96
	.byte	W23
	.byte	PEND
	.byte		N01   , Bn2 , v060
	.byte	W01
	.byte		N03   , Bn3 , v120
	.byte	W11
	.byte		N01   , Dn3 , v060
	.byte	W01
	.byte		N03   , Dn4 , v100
	.byte	W11
	.byte		N01   , Gs2 , v060
	.byte	W01
	.byte		N03   , Gs3 , v100
	.byte	W11
	.byte		N01   , Gs3 , v060
	.byte	W01
	.byte		N03   , Gs4 , v100
	.byte	W03
	.byte		N01   , Gs3 , v020
	.byte	W01
	.byte		N03   , Gs4 , v060
	.byte	W03
	.byte		N01   , Gs3 , v020
	.byte	W01
	.byte		N03   , Gs4 , v040
	.byte	W24
	.byte	W03
	.byte		N01   , Bn1 , v060
	.byte	W01
	.byte		N03   , Bn2 , v120
	.byte	W11
	.byte		N01   , Dn2 , v060
	.byte	W01
	.byte		N03   , Dn3 , v100
	.byte	W11
	.byte		N01   , Gs1 , v060
	.byte	W01
	.byte		N03   , Gs2 , v100
	.byte	W44
	.byte	W03
	.byte	PEND
	.byte	PATT
	 .word	seq_104_7 + 0xA0
	.byte	PATT
	 .word	seq_104_7 + 0xB3
	.byte	W36
	.byte		N01   , An3 , v060
	.byte	W01
	.byte		N03   , An4 , v120
	.byte	W11
	.byte		N01   , As3 , v060
	.byte	W01
	.byte		N03   , As4 , v120
	.byte	W96
	.byte	W23
	.byte		N01   , An2 , v060
	.byte	W01
	.byte		N03   , An3 , v120
	.byte	W11
	.byte		N01   , Cn3 , v060
	.byte	W01
	.byte		N03   , Cn4 , v100
	.byte	W11
	.byte		N01   , Fs2 , v060
	.byte	W01
	.byte		N03   , Fs3 , v100
	.byte	W11
	.byte		N01   , Fs3 , v060
	.byte	W01
	.byte		N03   , Fs4 , v100
	.byte	W03
	.byte		N01   , Fs3 , v020
	.byte	W01
	.byte		N03   , Fs4 , v060
	.byte	W03
	.byte		N01   , Fs3 , v020
	.byte	W01
	.byte		N03   , Fs4 , v040
	.byte	W24
	.byte	W03
	.byte		N01   , An1 , v060
	.byte	W01
	.byte		N03   , An2 , v120
	.byte	W11
	.byte		N01   , Cn2 , v060
	.byte	W01
	.byte		N03   , Cn3 , v100
	.byte	W11
	.byte		N01   , Fs1 , v060
	.byte	W01
	.byte		N03   , Fs2 , v100
	.byte	W44
	.byte	W03
	.byte	W36
	.byte		N01   , Gn3 , v060
	.byte	W01
	.byte		N03   , Gn4 , v120
	.byte	W11
	.byte		N01   , Gs3 , v060
	.byte	W01
	.byte		N03   , Gs4 , v120
	.byte	W96
	.byte	W23
	.byte		N01   , Gn2 , v060
	.byte	W01
	.byte		N03   , Gn3 , v120
	.byte	W11
	.byte		N01   , As2 , v060
	.byte	W01
	.byte		N03   , As3 , v100
	.byte	W11
	.byte		N01   , En2 , v060
	.byte	W01
	.byte		N03   , En3 , v100
	.byte	W11
	.byte		N01   , En3 , v060
	.byte	W01
	.byte		N03   , En4 , v100
	.byte	W03
	.byte		N01   , En3 , v020
	.byte	W01
	.byte		N03   , En4 , v060
	.byte	W03
	.byte		N01   , En3 , v020
	.byte	W01
	.byte		N03   , En4 , v040
	.byte	W24
	.byte	W03
	.byte		N01   , Gn1 , v060
	.byte	W01
	.byte		N03   , Gn2 , v120
	.byte	W11
	.byte		N01   , As1 , v060
	.byte	W01
	.byte		N03   , As2 , v100
	.byte	W11
	.byte		N01   , En1 , v060
	.byte	W01
	.byte		N03   , En2 , v100
	.byte	W44
	.byte	W03
	.byte	W96
	.byte	W72
	.byte	W96
	.byte		N02   , Gs2 
	.byte	W02
	.byte		        Gs3 , v060
	.byte	W04
	.byte		        As2 , v100
	.byte	W02
	.byte		        As3 , v060
	.byte	W04
	.byte		        Bn2 , v100
	.byte	W02
	.byte		        Bn3 , v060
	.byte	W04
	.byte		        Cs3 , v100
	.byte	W02
	.byte		        Cs4 , v060
	.byte	W04
	.byte		        Dn3 , v100
	.byte	W02
	.byte		        Dn4 , v060
	.byte	W04
	.byte		        Dn3 
	.byte	W02
	.byte		        Dn4 , v040
	.byte	W04
	.byte		        Dn3 
	.byte	W02
	.byte		        Dn4 , v020
	.byte	W04
	.byte		        Dn3 
	.byte	W02
	.byte		        Dn4 
	.byte	W28
	.byte	GOTO
	 .word	seq_104_7 + 0x18
	.byte	FINE

@*********************** Track 09 ***********************@

seq_104_8:
	.byte	KEYSH , seq_104_key+0
	.byte	W12
	.byte		VOICE , 102
	.byte	W01
	.byte		VOL   , 80*seq_104_mvl/mxv
	.byte	W01
	.byte		PAN   , c_v+0
	.byte	W01
	.byte		LFOS  , 20
	.byte	W01
	.byte		MODT  , mod_vib
	.byte	W01
	.byte		BENDR , 12
	.byte	W07
	.byte		N04   , Fs2 , v120
	.byte	W12
	.byte		        Fs2 , v060
	.byte	W12
	.byte		        Fs2 , v120
	.byte	W12
	.byte		        Fs2 , v060
	.byte	W12
	.byte		        Fs2 , v120
	.byte	W12
	.byte		        Fs2 , v060
	.byte	W12
	.byte		        Fs2 , v120
	.byte	W12
	.byte		        Fs2 , v060
	.byte	W12
	.byte		        Fs2 , v120
	.byte	W12
	.byte		        Fs2 , v060
	.byte	W12
	.byte		        Fs2 , v120
	.byte	W12
	.byte		        Fs2 , v060
	.byte	W12
	.byte		        Fs2 , v120
	.byte	W12
	.byte		        Fs2 , v060
	.byte	W12
	.byte	PEND
	.byte	PATT
	 .word	seq_104_8 + 0x15
	.byte		N04   , Fn2 , v120
	.byte	W12
	.byte		        Fn2 , v060
	.byte	W12
	.byte		        Fn2 , v120
	.byte	W12
	.byte		        Fn2 , v060
	.byte	W12
	.byte		        Fn2 , v120
	.byte	W12
	.byte		        Fn2 , v060
	.byte	W12
	.byte		        Fn2 , v120
	.byte	W12
	.byte		        Fn2 , v060
	.byte	W12
	.byte		        Fn2 , v120
	.byte	W12
	.byte		        Fn2 , v060
	.byte	W12
	.byte		        Fn2 , v120
	.byte	W12
	.byte		        Fn2 , v060
	.byte	W12
	.byte		        Fn2 , v120
	.byte	W12
	.byte		        Fn2 , v060
	.byte	W12
	.byte		        Fn2 , v120
	.byte	W12
	.byte		        Fn2 , v060
	.byte	W12
	.byte		        Fn2 , v120
	.byte	W12
	.byte		        Fn2 , v060
	.byte	W12
	.byte		        Fn2 , v120
	.byte	W12
	.byte		        Fn2 , v060
	.byte	W12
	.byte		        Fn2 , v120
	.byte	W12
	.byte		        Fn2 , v060
	.byte	W12
	.byte		        Fn2 , v120
	.byte	W12
	.byte		        Fn2 , v060
	.byte	W12
	.byte		        Fn2 , v120
	.byte	W12
	.byte		        Fn2 , v060
	.byte	W12
	.byte		        Fn2 , v120
	.byte	W12
	.byte		        Fn2 , v060
	.byte	W11
	.byte		VOICE , 100
	.byte	W01
	.byte		N12   , Fs1 , v120
	.byte	W24
	.byte		N01
	.byte	W11
	.byte		VOICE , 102
	.byte	W01
	.byte		N12   , Cn3 
	.byte	W12
	.byte		        Ds3 
	.byte	W12
	.byte		N09   , Fs3 
	.byte	W60
	.byte		N04   , Fs2 , v060
	.byte	W12
	.byte		        Fs2 , v020
	.byte	W12
	.byte		        Fs2 , v060
	.byte	W12
	.byte		        Fs2 , v020
	.byte	W11
	.byte		VOICE , 100
	.byte	W01
	.byte	PEND
	.byte	PATT
	 .word	seq_104_8 + 0x9E
	.byte		N12   , Fn1 , v120
	.byte	W24
	.byte		N01
	.byte	W11
	.byte		VOICE , 102
	.byte	W01
	.byte		N12   , Bn2 
	.byte	W12
	.byte		        Dn3 
	.byte	W12
	.byte		N09   , Fn3 
	.byte	W60
	.byte		N04   , Fs2 , v060
	.byte	W12
	.byte		        Fs2 , v020
	.byte	W12
	.byte		        Fs2 , v060
	.byte	W12
	.byte		        Fs2 , v020
	.byte	W11
	.byte		VOICE , 100
	.byte	W01
	.byte	PEND
	.byte	PATT
	 .word	seq_104_8 + 0xC5
	.byte		N12   , Fs1 , v120
	.byte	W24
	.byte		N01
	.byte	W11
	.byte		VOICE , 102
	.byte	W01
	.byte		N12   , Cn3 
	.byte	W12
	.byte		        Ds3 
	.byte	W12
	.byte		N09   , Fs3 
	.byte	W60
	.byte		        An2 
	.byte	W12
	.byte		        An2 , v040
	.byte	W12
	.byte		N10   , Fs2 , v120
	.byte	W12
	.byte		N09   , Fs2 , v040
	.byte	W11
	.byte		VOICE , 100
	.byte	W01
	.byte	PEND
	.byte	PATT
	 .word	seq_104_8 + 0xEC
	.byte		N12   , Fn1 , v120
	.byte	W24
	.byte		N01
	.byte	W11
	.byte		VOICE , 102
	.byte	W01
	.byte		N12   , Bn2 
	.byte	W12
	.byte		        Dn3 
	.byte	W12
	.byte		N09   , Fn3 
	.byte	W60
	.byte		        Gs2 
	.byte	W12
	.byte		        Gs2 , v040
	.byte	W12
	.byte		N10   , Fn2 , v120
	.byte	W12
	.byte		N09   , Fn2 , v040
	.byte	W11
	.byte		VOICE , 100
	.byte	W01
	.byte	PEND
	.byte	PATT
	 .word	seq_104_8 + 0x113
	.byte	PATT
	 .word	seq_104_8 + 0xEC
	.byte	PATT
	 .word	seq_104_8 + 0xEC
	.byte	PATT
	 .word	seq_104_8 + 0x113
	.byte	PATT
	 .word	seq_104_8 + 0x113
	.byte	PATT
	 .word	seq_104_8 + 0xEC
	.byte	PATT
	 .word	seq_104_8 + 0xEC
	.byte	PATT
	 .word	seq_104_8 + 0x113
	.byte	PATT
	 .word	seq_104_8 + 0x113
	.byte	PATT
	 .word	seq_104_8 + 0xEC
	.byte	PATT
	 .word	seq_104_8 + 0xEC
	.byte	PATT
	 .word	seq_104_8 + 0x113
	.byte	PATT
	 .word	seq_104_8 + 0x113
	.byte	PATT
	 .word	seq_104_8 + 0xEC
	.byte	PATT
	 .word	seq_104_8 + 0xEC
	.byte	PATT
	 .word	seq_104_8 + 0x113
	.byte	PATT
	 .word	seq_104_8 + 0x113
	.byte		N12   , An1 , v120
	.byte	W24
	.byte		N01
	.byte	W11
	.byte		VOICE , 102
	.byte	W01
	.byte		N12   , Ds3 
	.byte	W12
	.byte		        En3 
	.byte	W12
	.byte		N09   , An3 
	.byte	W60
	.byte		        Cn3 
	.byte	W12
	.byte		        Cn3 , v040
	.byte	W12
	.byte		N10   , An2 , v120
	.byte	W12
	.byte		N09   , An2 , v040
	.byte	W11
	.byte		VOICE , 100
	.byte	W01
	.byte	PEND
	.byte		N12   , Gs1 , v120
	.byte	W24
	.byte		N01
	.byte	W11
	.byte		VOICE , 102
	.byte	W01
	.byte		N12   , Gs3 
	.byte	W12
	.byte		N10   , Bn3 
	.byte	W12
	.byte		N09   , Bn3 , v040
	.byte	W12
	.byte		        En3 , v120
	.byte	W36
	.byte		N12   , Gs2 
	.byte	W12
	.byte		N10   , Bn2 
	.byte	W12
	.byte		N09   , Bn2 , v040
	.byte	W11
	.byte		VOICE , 100
	.byte	W01
	.byte	PEND
	.byte	PATT
	 .word	seq_104_8 + 0x18A
	.byte	PATT
	 .word	seq_104_8 + 0x1AC
	.byte		N12   , Gn1 , v120
	.byte	W24
	.byte		N01
	.byte	W11
	.byte		VOICE , 102
	.byte	W01
	.byte		N12   , Cs3 
	.byte	W12
	.byte		        Dn3 
	.byte	W12
	.byte		N09   , Gn3 
	.byte	W60
	.byte		        As2 
	.byte	W12
	.byte		        As2 , v040
	.byte	W12
	.byte		N10   , Gn2 , v120
	.byte	W12
	.byte		N09   , Gn2 , v040
	.byte	W11
	.byte		VOICE , 100
	.byte	W01
	.byte		N12   , Fs1 , v120
	.byte	W24
	.byte		N01
	.byte	W11
	.byte		VOICE , 102
	.byte	W01
	.byte		N12   , Fs3 
	.byte	W12
	.byte		N10   , An3 
	.byte	W12
	.byte		N09   , An3 , v040
	.byte	W12
	.byte		        Dn3 , v120
	.byte	W36
	.byte		N12   , Fs2 
	.byte	W12
	.byte		N10   , An2 
	.byte	W12
	.byte		N09   , An2 , v040
	.byte	W11
	.byte		VOICE , 100
	.byte	W01
	.byte		N12   , Fn1 , v120
	.byte	W24
	.byte		N01
	.byte	W11
	.byte		VOICE , 102
	.byte	W01
	.byte		N12   , Bn2 
	.byte	W12
	.byte		        Cn3 
	.byte	W12
	.byte		N09   , Fn3 
	.byte	W60
	.byte		        Gs2 
	.byte	W12
	.byte		        Gs2 , v040
	.byte	W12
	.byte		N10   , Fn2 , v120
	.byte	W12
	.byte		N09   , Fn2 , v040
	.byte	W11
	.byte		VOICE , 100
	.byte	W01
	.byte		N12   , En1 , v120
	.byte	W24
	.byte		N01
	.byte	W11
	.byte		VOICE , 102
	.byte	W01
	.byte		N12   , En3 
	.byte	W12
	.byte		N10   , Gn3 
	.byte	W12
	.byte		N09   , Gn3 , v040
	.byte	W12
	.byte		        Cn3 , v120
	.byte	W36
	.byte		N12   , En2 
	.byte	W12
	.byte		N10   , Gn2 
	.byte	W12
	.byte		N09   , Gn2 , v040
	.byte	W11
	.byte		VOICE , 100
	.byte	W01
	.byte		N10   , An1 , v120
	.byte	W10
	.byte		N02   , An1 , v060
	.byte	W01
	.byte		VOICE , 102
	.byte	W01
	.byte		N12   , Cn3 , v120
	.byte	W12
	.byte		        Cs3 
	.byte	W12
	.byte		        Dn3 
	.byte	W12
	.byte		        Ds3 
	.byte	W12
	.byte		        En3 
	.byte	W12
	.byte		        Fn3 
	.byte	W12
	.byte		        Fs3 
	.byte	W12
	.byte		        Gn3 
	.byte	W12
	.byte		        Fs3 
	.byte	W12
	.byte		        Fn3 
	.byte	W12
	.byte		        En3 
	.byte	W12
	.byte		        Ds3 
	.byte	W12
	.byte		        Dn3 
	.byte	W11
	.byte		VOICE , 100
	.byte	W01
	.byte	W12
	.byte		N05   , Gs1 
	.byte	W12
	.byte		N12
	.byte	W12
	.byte		        Gs1 , v040
	.byte	W12
	.byte		N05   , Gs1 , v120
	.byte	W12
	.byte		N12
	.byte	W12
	.byte		        Gs1 , v040
	.byte	W12
	.byte		N07   , Gs1 , v120
	.byte	W11
	.byte		VOICE , 102
	.byte	W01
	.byte		N06   , Gs4 , v040
	.byte	W06
	.byte		        As4 
	.byte	W06
	.byte		        Bn4 
	.byte	W06
	.byte		        Cs5 
	.byte	W06
	.byte		N07   , Dn5 
	.byte	W48
	.byte	GOTO
	 .word	seq_104_8 + 0x15
	.byte	FINE

@*********************** Track 10 ***********************@

seq_104_9:
	.byte	KEYSH , seq_104_key+0
	.byte	W18
	.byte		VOICE , 74
	.byte	W01
	.byte		VOL   , 37*seq_104_mvl/mxv
	.byte	W01
	.byte		PAN   , c_v+0
	.byte	W01
	.byte		LFOS  , 40
	.byte	W01
	.byte		MODT  , mod_pan
	.byte	W01
	.byte		MOD   , 40
	.byte	W01
	.byte	W12
	.byte		N02   , An2 , v120
	.byte	W02
	.byte		        An3 , v040
	.byte	W02
	.byte		        Ds3 , v080
	.byte	W08
	.byte		        Cn3 , v120
	.byte	W02
	.byte		        Cn4 , v040
	.byte	W02
	.byte		        Fs3 , v080
	.byte	W20
	.byte		        An2 , v120
	.byte	W02
	.byte		        An3 , v040
	.byte	W02
	.byte		        Ds3 , v080
	.byte	W08
	.byte		        Cn3 , v120
	.byte	W02
	.byte		        Cn4 , v040
	.byte	W02
	.byte		        Fs3 , v080
	.byte	W44
	.byte		        An2 , v120
	.byte	W02
	.byte		        An3 , v040
	.byte	W02
	.byte		        Ds3 , v080
	.byte	W08
	.byte		        Cn3 , v120
	.byte	W02
	.byte		        Cn4 , v040
	.byte	W02
	.byte		        Fs3 , v080
	.byte	W20
	.byte		        An2 , v120
	.byte	W02
	.byte		        An3 , v040
	.byte	W02
	.byte		        Ds3 , v080
	.byte	W08
	.byte		        Cn3 , v120
	.byte	W02
	.byte		        Cn4 , v040
	.byte	W02
	.byte		        Fs3 , v080
	.byte	W08
	.byte	PEND
	.byte	PATT
	 .word	seq_104_9 + 0x15
	.byte	W12
	.byte		N02   , Gs2 , v120
	.byte	W02
	.byte		        Gs3 , v040
	.byte	W02
	.byte		        Dn3 , v080
	.byte	W08
	.byte		        Bn2 , v120
	.byte	W02
	.byte		        Bn3 , v040
	.byte	W02
	.byte		        Fn3 , v080
	.byte	W20
	.byte		        Gs2 , v120
	.byte	W02
	.byte		        Gs3 , v040
	.byte	W02
	.byte		        Dn3 , v080
	.byte	W08
	.byte		        Bn2 , v120
	.byte	W02
	.byte		        Bn3 , v040
	.byte	W02
	.byte		        Fn3 , v080
	.byte	W44
	.byte		        Gs2 , v120
	.byte	W02
	.byte		        Gs3 , v040
	.byte	W02
	.byte		        Dn3 , v080
	.byte	W08
	.byte		        Bn2 , v120
	.byte	W02
	.byte		        Bn3 , v040
	.byte	W02
	.byte		        Fn3 , v080
	.byte	W20
	.byte		        Gs2 , v120
	.byte	W02
	.byte		        Gs3 , v040
	.byte	W02
	.byte		        Dn3 , v080
	.byte	W08
	.byte		        Bn2 , v120
	.byte	W02
	.byte		        Bn3 , v040
	.byte	W02
	.byte		        Fn3 , v080
	.byte	W08
	.byte	PEND
	.byte	PATT
	 .word	seq_104_9 + 0x65
	.byte	PATT
	 .word	seq_104_9 + 0x15
	.byte	PATT
	 .word	seq_104_9 + 0x15
	.byte	PATT
	 .word	seq_104_9 + 0x65
	.byte	PATT
	 .word	seq_104_9 + 0x65
	.byte	PATT
	 .word	seq_104_9 + 0x15
	.byte	PATT
	 .word	seq_104_9 + 0x15
	.byte	PATT
	 .word	seq_104_9 + 0x65
	.byte	PATT
	 .word	seq_104_9 + 0x65
	.byte	PATT
	 .word	seq_104_9 + 0x15
	.byte	PATT
	 .word	seq_104_9 + 0x15
	.byte	PATT
	 .word	seq_104_9 + 0x65
	.byte	PATT
	 .word	seq_104_9 + 0x65
	.byte	PATT
	 .word	seq_104_9 + 0x15
	.byte	PATT
	 .word	seq_104_9 + 0x15
	.byte	PATT
	 .word	seq_104_9 + 0x65
	.byte	PATT
	 .word	seq_104_9 + 0x65
	.byte	PATT
	 .word	seq_104_9 + 0x15
	.byte	PATT
	 .word	seq_104_9 + 0x15
	.byte	PATT
	 .word	seq_104_9 + 0x65
	.byte	PATT
	 .word	seq_104_9 + 0x65
	.byte	PATT
	 .word	seq_104_9 + 0x15
	.byte	PATT
	 .word	seq_104_9 + 0x15
	.byte	PATT
	 .word	seq_104_9 + 0x65
	.byte	PATT
	 .word	seq_104_9 + 0x65
	.byte		N24   , Cn4 , v120
	.byte	W24
	.byte		        Cn4 , v040
	.byte	W36
	.byte		N12   , Cn4 , v120
	.byte	W12
	.byte		        Dn4 
	.byte	W12
	.byte		N30   , Ds4 
	.byte	W30
	.byte		        Ds4 , v040
	.byte	W30
	.byte		N12   , Dn4 , v120
	.byte	W12
	.byte		        Cn4 
	.byte	W12
	.byte	PEND
	.byte		N12   , Bn3 , v120
	.byte	W12
	.byte		        Dn4 , v100
	.byte	W12
	.byte		N09   , Gs3 , v120
	.byte	W10
	.byte		N08   , Gs3 , v040
	.byte	W36
	.byte	W02
	.byte		N12   , Bn4 , v120
	.byte	W12
	.byte		        Dn5 
	.byte	W12
	.byte		N09   , Gs4 
	.byte	W10
	.byte		N08   , Gs4 , v040
	.byte	W36
	.byte	W02
	.byte	PEND
	.byte	PATT
	 .word	seq_104_9 + 0x12D
	.byte	PATT
	 .word	seq_104_9 + 0x147
	.byte		N24   , As3 , v120
	.byte	W24
	.byte		        As3 , v040
	.byte	W36
	.byte		N12   , As3 , v120
	.byte	W12
	.byte		        Cn4 
	.byte	W12
	.byte		N30   , Cs4 
	.byte	W30
	.byte		        Cs4 , v040
	.byte	W30
	.byte		N12   , Cn4 , v120
	.byte	W12
	.byte		        As3 
	.byte	W12
	.byte		        An3 
	.byte	W12
	.byte		        Cn4 , v100
	.byte	W12
	.byte		N09   , Fs3 , v120
	.byte	W10
	.byte		N08   , Fs3 , v040
	.byte	W36
	.byte	W02
	.byte		N12   , An4 , v120
	.byte	W12
	.byte		        Cn5 
	.byte	W12
	.byte		N09   , Fs4 
	.byte	W10
	.byte		N08   , Fs4 , v040
	.byte	W36
	.byte	W02
	.byte		N24   , Gs3 , v120
	.byte	W24
	.byte		        Gs3 , v040
	.byte	W36
	.byte		N12   , Gs3 , v120
	.byte	W12
	.byte		        As3 
	.byte	W12
	.byte		N30   , Bn3 
	.byte	W30
	.byte		        Bn3 , v040
	.byte	W30
	.byte		N12   , As3 , v120
	.byte	W12
	.byte		        Gs3 
	.byte	W12
	.byte		        Gn3 
	.byte	W12
	.byte		        As3 , v100
	.byte	W12
	.byte		N09   , En3 , v120
	.byte	W10
	.byte		N08   , En3 , v040
	.byte	W36
	.byte	W02
	.byte		N12   , Gn4 , v120
	.byte	W12
	.byte		        As4 
	.byte	W12
	.byte		N09   , En4 
	.byte	W10
	.byte		N08   , En4 , v040
	.byte	W36
	.byte	W02
	.byte	W12
	.byte		N12   , Ds3 , v120
	.byte	W12
	.byte		        En3 
	.byte	W12
	.byte		        Fn3 
	.byte	W12
	.byte		        Fs3 
	.byte	W12
	.byte		        Gn3 
	.byte	W12
	.byte		        Gs3 
	.byte	W12
	.byte		        An3 
	.byte	W12
	.byte		        As3 
	.byte	W12
	.byte		        An3 
	.byte	W12
	.byte		        Gs3 
	.byte	W12
	.byte		        Gn3 
	.byte	W12
	.byte		        Fs3 
	.byte	W12
	.byte		        Fn3 
	.byte	W12
	.byte	W12
	.byte		N04   , Dn3 
	.byte	W12
	.byte		N11
	.byte	W12
	.byte		N12   , Dn3 , v040
	.byte	W12
	.byte		N04   , Dn3 , v120
	.byte	W12
	.byte		N11
	.byte	W12
	.byte		N12   , Dn3 , v040
	.byte	W12
	.byte		N05   , Dn3 , v120
	.byte	W84
	.byte	GOTO
	 .word	seq_104_9 + 0x15
	.byte	FINE

@*********************** Track 11 ***********************@

seq_104_10:
	.byte	KEYSH , seq_104_key+0
	.byte	W18
	.byte		VOICE , 88
	.byte	W01
	.byte		VOL   , 25*seq_104_mvl/mxv
	.byte	W01
	.byte		PAN   , c_v+0
	.byte	W01
	.byte		LFOS  , 40
	.byte	W01
	.byte		MODT  , mod_pan
	.byte	W01
	.byte		MOD   , 60
	.byte	W01
	.byte	W12
	.byte		N02   , An1 , v120
	.byte	W02
	.byte		        An2 , v040
	.byte	W02
	.byte		        Ds2 , v080
	.byte	W08
	.byte		        Cn2 , v120
	.byte	W02
	.byte		        Cn3 , v040
	.byte	W02
	.byte		        Fs2 , v080
	.byte	W20
	.byte		        An1 , v120
	.byte	W02
	.byte		        An2 , v040
	.byte	W02
	.byte		        Ds2 , v080
	.byte	W08
	.byte		        Cn2 , v120
	.byte	W02
	.byte		        Cn3 , v040
	.byte	W02
	.byte		        Fs2 , v080
	.byte	W44
	.byte		        An1 , v120
	.byte	W02
	.byte		        An2 , v040
	.byte	W02
	.byte		        Ds2 , v080
	.byte	W08
	.byte		        Cn2 , v120
	.byte	W02
	.byte		        Cn3 , v040
	.byte	W02
	.byte		        Fs2 , v080
	.byte	W20
	.byte		        An1 , v120
	.byte	W02
	.byte		        An2 , v040
	.byte	W02
	.byte		        Ds2 , v080
	.byte	W08
	.byte		        Cn2 , v120
	.byte	W02
	.byte		        Cn3 , v040
	.byte	W02
	.byte		        Fs2 , v080
	.byte	W08
	.byte	PEND
	.byte	PATT
	 .word	seq_104_10 + 0x15
	.byte	W12
	.byte		N02   , Gs1 , v120
	.byte	W02
	.byte		        Gs2 , v040
	.byte	W02
	.byte		        Dn2 , v080
	.byte	W08
	.byte		        Bn1 , v120
	.byte	W02
	.byte		        Bn2 , v040
	.byte	W02
	.byte		        Fn2 , v080
	.byte	W20
	.byte		        Gs1 , v120
	.byte	W02
	.byte		        Gs2 , v040
	.byte	W02
	.byte		        Dn2 , v080
	.byte	W08
	.byte		        Bn1 , v120
	.byte	W02
	.byte		        Bn2 , v040
	.byte	W02
	.byte		        Fn2 , v080
	.byte	W44
	.byte		        Gs1 , v120
	.byte	W02
	.byte		        Gs2 , v040
	.byte	W02
	.byte		        Dn2 , v080
	.byte	W08
	.byte		        Bn1 , v120
	.byte	W02
	.byte		        Bn2 , v040
	.byte	W02
	.byte		        Fn2 , v080
	.byte	W20
	.byte		        Gs1 , v120
	.byte	W02
	.byte		        Gs2 , v040
	.byte	W02
	.byte		        Dn2 , v080
	.byte	W08
	.byte		        Bn1 , v120
	.byte	W02
	.byte		        Bn2 , v040
	.byte	W02
	.byte		        Fn2 , v080
	.byte	W08
	.byte	PEND
	.byte	PATT
	 .word	seq_104_10 + 0x65
	.byte	PATT
	 .word	seq_104_10 + 0x15
	.byte	PATT
	 .word	seq_104_10 + 0x15
	.byte	PATT
	 .word	seq_104_10 + 0x65
	.byte	PATT
	 .word	seq_104_10 + 0x65
	.byte	PATT
	 .word	seq_104_10 + 0x15
	.byte	PATT
	 .word	seq_104_10 + 0x15
	.byte	PATT
	 .word	seq_104_10 + 0x65
	.byte	PATT
	 .word	seq_104_10 + 0x65
	.byte	PATT
	 .word	seq_104_10 + 0x15
	.byte	PATT
	 .word	seq_104_10 + 0x15
	.byte	PATT
	 .word	seq_104_10 + 0x65
	.byte	PATT
	 .word	seq_104_10 + 0x65
	.byte	PATT
	 .word	seq_104_10 + 0x15
	.byte	PATT
	 .word	seq_104_10 + 0x15
	.byte	PATT
	 .word	seq_104_10 + 0x65
	.byte	PATT
	 .word	seq_104_10 + 0x65
	.byte	PATT
	 .word	seq_104_10 + 0x15
	.byte	PATT
	 .word	seq_104_10 + 0x15
	.byte	PATT
	 .word	seq_104_10 + 0x65
	.byte	PATT
	 .word	seq_104_10 + 0x65
	.byte	PATT
	 .word	seq_104_10 + 0x15
	.byte	PATT
	 .word	seq_104_10 + 0x15
	.byte	PATT
	 .word	seq_104_10 + 0x65
	.byte	PATT
	 .word	seq_104_10 + 0x65
	.byte	W02
	.byte		BEND  , c_v-2
	.byte	W01
	.byte		VOL   , 12*seq_104_mvl/mxv
	.byte	W01
	.byte		VOICE , 86
	.byte	W01
	.byte		N24   , Cn4 , v120
	.byte	W24
	.byte		        Cn4 , v040
	.byte	W36
	.byte		N12   , Cn4 , v120
	.byte	W12
	.byte		        Dn4 
	.byte	W12
	.byte		N30   , Ds4 
	.byte	W30
	.byte		        Ds4 , v040
	.byte	W30
	.byte		N12   , Dn4 , v120
	.byte	W12
	.byte		        Cn4 
	.byte	W07
	.byte	W05
	.byte		N12   , Bn3 , v120
	.byte	W12
	.byte		        Dn4 , v100
	.byte	W12
	.byte		N09   , Gs3 , v120
	.byte	W10
	.byte		N08   , Gs3 , v040
	.byte	W36
	.byte	W02
	.byte		N12   , Bn4 , v120
	.byte	W12
	.byte		        Dn5 
	.byte	W12
	.byte		N09   , Gs4 
	.byte	W10
	.byte		N08   , Gs4 , v040
	.byte	W32
	.byte	W01
	.byte	PEND
	.byte	W05
	.byte		N24   , Cn4 , v120
	.byte	W24
	.byte		        Cn4 , v040
	.byte	W36
	.byte		N12   , Cn4 , v120
	.byte	W12
	.byte		        Dn4 
	.byte	W12
	.byte		N30   , Ds4 
	.byte	W30
	.byte		        Ds4 , v040
	.byte	W30
	.byte		N12   , Dn4 , v120
	.byte	W12
	.byte		        Cn4 
	.byte	W07
	.byte	PATT
	 .word	seq_104_10 + 0x150
	.byte	W05
	.byte		N24   , As3 , v120
	.byte	W24
	.byte		        As3 , v040
	.byte	W36
	.byte		N12   , As3 , v120
	.byte	W12
	.byte		        Cn4 
	.byte	W12
	.byte		N30   , Cs4 
	.byte	W30
	.byte		        Cs4 , v040
	.byte	W30
	.byte		N12   , Cn4 , v120
	.byte	W12
	.byte		        As3 
	.byte	W07
	.byte	W05
	.byte		        An3 
	.byte	W12
	.byte		        Cn4 , v100
	.byte	W12
	.byte		N09   , Fs3 , v120
	.byte	W10
	.byte		N08   , Fs3 , v040
	.byte	W36
	.byte	W02
	.byte		N12   , An4 , v120
	.byte	W12
	.byte		        Cn5 
	.byte	W12
	.byte		N09   , Fs4 
	.byte	W10
	.byte		N08   , Fs4 , v040
	.byte	W32
	.byte	W01
	.byte	W05
	.byte		N24   , Gs3 , v120
	.byte	W24
	.byte		        Gs3 , v040
	.byte	W36
	.byte		N12   , Gs3 , v120
	.byte	W12
	.byte		        As3 
	.byte	W12
	.byte		N30   , Bn3 
	.byte	W30
	.byte		        Bn3 , v040
	.byte	W30
	.byte		N12   , As3 , v120
	.byte	W12
	.byte		        Gs3 
	.byte	W07
	.byte	W05
	.byte		        Gn3 
	.byte	W12
	.byte		        As3 , v100
	.byte	W12
	.byte		N09   , En3 , v120
	.byte	W10
	.byte		N08   , En3 , v040
	.byte	W36
	.byte	W02
	.byte		N12   , Gn4 , v120
	.byte	W12
	.byte		        As4 
	.byte	W12
	.byte		N09   , En4 
	.byte	W10
	.byte		N08   , En4 , v040
	.byte	W32
	.byte	W01
	.byte	W17
	.byte		N12   , Ds3 , v120
	.byte	W12
	.byte		        En3 
	.byte	W12
	.byte		        Fn3 
	.byte	W12
	.byte		        Fs3 
	.byte	W12
	.byte		        Gn3 
	.byte	W12
	.byte		        Gs3 
	.byte	W12
	.byte		        An3 
	.byte	W12
	.byte		        As3 
	.byte	W12
	.byte		        An3 
	.byte	W12
	.byte		        Gs3 
	.byte	W12
	.byte		        Gn3 
	.byte	W12
	.byte		        Fs3 
	.byte	W12
	.byte		        Fn3 
	.byte	W07
	.byte	W17
	.byte		N04   , Dn3 
	.byte	W12
	.byte		N11
	.byte	W12
	.byte		N12   , Dn3 , v040
	.byte	W12
	.byte		N04   , Dn3 , v120
	.byte	W12
	.byte		N11
	.byte	W12
	.byte		N12   , Dn3 , v040
	.byte	W12
	.byte		N05   , Dn3 , v120
	.byte	W28
	.byte	W01
	.byte		VOICE , 88
	.byte	W01
	.byte		VOL   , 25*seq_104_mvl/mxv
	.byte		BEND  , c_v+0
	.byte	W48
	.byte	W01
	.byte	GOTO
	 .word	seq_104_10 + 0x15
	.byte	FINE

@*********************** Track 12 ***********************@

seq_104_11:
	.byte	KEYSH , seq_104_key+0
	.byte	W18
	.byte		VOICE , 112
	.byte	W01
	.byte		VOL   , 44*seq_104_mvl/mxv
	.byte	W01
	.byte		PAN   , c_v+0
	.byte	W04
	.byte		N02   , An4 , v120
	.byte	W12
	.byte		        An4 , v080
	.byte	W12
	.byte		        Cn3 , v100
	.byte	W12
	.byte		        An4 , v080
	.byte	W06
	.byte		N01   , An4 , v040
	.byte	W18
	.byte		N02   , An4 , v080
	.byte	W12
	.byte		        Cn3 , v100
	.byte	W12
	.byte		        An4 , v080
	.byte	W06
	.byte		N01   , An4 , v040
	.byte	W18
	.byte		N02   , An4 , v080
	.byte	W12
	.byte		        Cn3 , v100
	.byte	W12
	.byte		        An4 , v080
	.byte	W06
	.byte		N01   , An4 , v040
	.byte	W18
	.byte		N02   , An4 , v080
	.byte	W12
	.byte	PEND
	.byte	PATT
	 .word	seq_104_11 + 0xC
	.byte	PATT
	 .word	seq_104_11 + 0xC
	.byte	PATT
	 .word	seq_104_11 + 0xC
	.byte	PATT
	 .word	seq_104_11 + 0xC
	.byte	PATT
	 .word	seq_104_11 + 0xC
	.byte	PATT
	 .word	seq_104_11 + 0xC
	.byte	PATT
	 .word	seq_104_11 + 0xC
	.byte	PATT
	 .word	seq_104_11 + 0xC
	.byte	PATT
	 .word	seq_104_11 + 0xC
	.byte	PATT
	 .word	seq_104_11 + 0xC
	.byte	PATT
	 .word	seq_104_11 + 0xC
	.byte	PATT
	 .word	seq_104_11 + 0xC
	.byte	PATT
	 .word	seq_104_11 + 0xC
	.byte	PATT
	 .word	seq_104_11 + 0xC
	.byte	PATT
	 .word	seq_104_11 + 0xC
	.byte	PATT
	 .word	seq_104_11 + 0xC
	.byte	PATT
	 .word	seq_104_11 + 0xC
	.byte	PATT
	 .word	seq_104_11 + 0xC
	.byte	PATT
	 .word	seq_104_11 + 0xC
	.byte	PATT
	 .word	seq_104_11 + 0xC
	.byte	PATT
	 .word	seq_104_11 + 0xC
	.byte	PATT
	 .word	seq_104_11 + 0xC
	.byte	PATT
	 .word	seq_104_11 + 0xC
	.byte	PATT
	 .word	seq_104_11 + 0xC
	.byte	PATT
	 .word	seq_104_11 + 0xC
	.byte	PATT
	 .word	seq_104_11 + 0xC
	.byte	PATT
	 .word	seq_104_11 + 0xC
	.byte	PATT
	 .word	seq_104_11 + 0xC
	.byte		N02   , An4 , v120
	.byte	W12
	.byte		        An4 , v080
	.byte	W12
	.byte		        Cn3 , v100
	.byte	W12
	.byte		        An4 , v080
	.byte	W06
	.byte		N01   , An4 , v040
	.byte	W18
	.byte		N02   , An4 , v080
	.byte	W12
	.byte		        Cn3 , v100
	.byte	W12
	.byte		        An4 , v080
	.byte	W06
	.byte		N01   , An4 , v040
	.byte	W18
	.byte		N02   , An4 , v080
	.byte	W12
	.byte		        Cn3 , v100
	.byte	W12
	.byte		        An4 , v080
	.byte	W12
	.byte	PEND
	.byte	PATT
	 .word	seq_104_11 + 0xC
	.byte	PATT
	 .word	seq_104_11 + 0xCA
	.byte	PATT
	 .word	seq_104_11 + 0xC
	.byte	PATT
	 .word	seq_104_11 + 0xCA
	.byte	PATT
	 .word	seq_104_11 + 0xC
	.byte	PATT
	 .word	seq_104_11 + 0xCA
	.byte		N12   , An4 , v100
	.byte	W12
	.byte		N02   , An4 , v080
	.byte	W12
	.byte		        Cn3 , v100
	.byte	W12
	.byte		        An4 , v080
	.byte	W06
	.byte		N01   , An4 , v040
	.byte	W18
	.byte		N02   , An4 , v080
	.byte	W12
	.byte		        Cn3 , v100
	.byte	W12
	.byte		        An4 , v080
	.byte	W06
	.byte		N01   , An4 , v040
	.byte	W18
	.byte		N02   , An4 , v080
	.byte	W12
	.byte		        Cn3 , v100
	.byte	W12
	.byte		        An4 , v080
	.byte	W06
	.byte		N01   , An4 , v040
	.byte	W18
	.byte		N02   , An4 , v080
	.byte	W12
	.byte	PEND
	.byte	PATT
	 .word	seq_104_11 + 0x112
	.byte	GOTO
	 .word	seq_104_11 + 0xC
	.byte	FINE

@******************************************************@

	.align	2

seq_104:
	.byte	12	@ NumTrks
	.byte	0	@ NumBlks
	.byte	seq_104_pri	@ Priority
	.byte	seq_104_rev	@ Reverb

	.word	seq_104_grp

	.word	seq_104_0
	.word	seq_104_1
	.word	seq_104_2
	.word	seq_104_3
	.word	seq_104_4
	.word	seq_104_5
	.word	seq_104_6
	.word	seq_104_7
	.word	seq_104_8
	.word	seq_104_9
	.word	seq_104_10
	.word	seq_104_11

	.end
