@ File generated by m4a2s Song-Module
	.include "MPlayDef.s"

	.equ	seq_045_grp, bank_000
	.equ	seq_045_pri, 50
	.equ	seq_045_rev, 208
	.equ	seq_045_mvl, 127
	.equ	seq_045_key, 0

	.section .rodata
	.global	seq_045
	.align	2

@*********************** Track 01 ***********************@

seq_045_0:
	.byte	KEYSH , seq_045_key+0
	.byte	TEMPO , 64/2
	.byte		VOICE , 76
	.byte		VOL   , 78*seq_045_mvl/mxv
	.byte		PAN   , c_v+0
	.byte	W01
	.byte		MOD   , 60
	.byte		LFOS  , 37
	.byte		MODT  , mod_tre
	.byte	W23
	.byte	W96
	.byte	W96
	.byte	W96
	.byte	W96
	.byte	W96
	.byte	W96
	.byte	W72
	.byte	TEMPO , 40/2
	.byte	W23
	.byte		MOD   , 55
	.byte		LFODL , 8
	.byte	W01
	.byte	TEMPO , 72/2
	.byte		N20   , Gn3 , v080
	.byte	W24
	.byte		        En4 , v112
	.byte	W24
	.byte	TEMPO , 66/2
	.byte		        Dn4 , v080
	.byte	W24
	.byte	TEMPO , 56/2
	.byte		        Gn4 , v116
	.byte	W23
	.byte		MOD   , 80
	.byte		LFODL , 0
	.byte	W01
	.byte	TEMPO , 84/2
	.byte		N52   , En4 , v120
	.byte	W96
	.byte		N24
	.byte	W24
	.byte		N10   , Cn4 , v060
	.byte	W12
	.byte		N24   , Dn4 , v112
	.byte	W24
	.byte		N12   , Cn4 , v092
	.byte	W12
	.byte		N24   , Bn3 , v040
	.byte	W24
	.byte		N60   , Cn4 , v120
	.byte	W96
	.byte	TEMPO , 82/2
	.byte	W36
	.byte		N24   , Gn4 
	.byte	W12
	.byte	TEMPO , 80/2
	.byte	W12
	.byte		N12   , Fn4 , v060
	.byte	W12
	.byte	TEMPO , 70/2
	.byte		N10   , Gn4 , v080
	.byte	W12
	.byte		N36   , Cn5 , v100
	.byte	W12
	.byte	W12
	.byte	TEMPO , 82/2
	.byte	W24
	.byte		N24   , Gn4 , v120
	.byte	W24
	.byte		N12   , Fn4 , v060
	.byte	W12
	.byte		        Gn4 , v080
	.byte	W12
	.byte		N36   , Cn4 , v100
	.byte	W12
	.byte	W36
	.byte	W01
	.byte		N23   , Gn4 
	.byte	W11
	.byte	TEMPO , 80/2
	.byte	W12
	.byte		N03   , Fn4 , v068
	.byte	W03
	.byte		        Gn4 , v104
	.byte	W03
	.byte		N04   , Fn4 , v068
	.byte	W04
	.byte		N13   , En4 , v120
	.byte	W02
	.byte	TEMPO , 74/2
	.byte	W11
	.byte		N78   , Cn4 , v108
	.byte	W01
	.byte	TEMPO , 66/2
	.byte	W12
	.byte	TEMPO , 76/2
	.byte	W48
	.byte	TEMPO , 70/2
	.byte	W24
	.byte	TEMPO , 64/2
	.byte	W12
	.byte	TEMPO , 58/2
	.byte	W12
	.byte	TEMPO , 74/2
	.byte		N18   , Cn4 , v100
	.byte	W24
	.byte		        En4 
	.byte	W24
	.byte	TEMPO , 66/2
	.byte		        Dn4 
	.byte	W24
	.byte	TEMPO , 60/2
	.byte		        Cn4 
	.byte	W12
	.byte	TEMPO , 54/2
	.byte	W12
	.byte	TEMPO , 124/2
	.byte		TIE   , Cn5 , v112
	.byte	W03
	.byte		VOL   , 71*seq_045_mvl/mxv
	.byte	W04
	.byte		        62*seq_045_mvl/mxv
	.byte	W04
	.byte		        61*seq_045_mvl/mxv
	.byte	W04
	.byte		        50*seq_045_mvl/mxv
	.byte	W04
	.byte		        38*seq_045_mvl/mxv
	.byte	W04
	.byte		        36*seq_045_mvl/mxv
	.byte	W03
	.byte		        37*seq_045_mvl/mxv
	.byte	W04
	.byte		        38*seq_045_mvl/mxv
	.byte	W04
	.byte		        39*seq_045_mvl/mxv
	.byte	W04
	.byte		        40*seq_045_mvl/mxv
	.byte	W04
	.byte		        41*seq_045_mvl/mxv
	.byte	W03
	.byte		        42*seq_045_mvl/mxv
	.byte	W04
	.byte		        43*seq_045_mvl/mxv
	.byte	W04
	.byte		        44*seq_045_mvl/mxv
	.byte	W04
	.byte		        45*seq_045_mvl/mxv
	.byte	W04
	.byte		        48*seq_045_mvl/mxv
	.byte	W04
	.byte		        50*seq_045_mvl/mxv
	.byte	W03
	.byte		        52*seq_045_mvl/mxv
	.byte	W04
	.byte		        55*seq_045_mvl/mxv
	.byte	W04
	.byte		        58*seq_045_mvl/mxv
	.byte	W04
	.byte		        60*seq_045_mvl/mxv
	.byte	W04
	.byte		        62*seq_045_mvl/mxv
	.byte	W03
	.byte		        64*seq_045_mvl/mxv
	.byte	W04
	.byte		        67*seq_045_mvl/mxv
	.byte	W04
	.byte		        69*seq_045_mvl/mxv
	.byte	W01
	.byte	W03
	.byte		        72*seq_045_mvl/mxv
	.byte	W04
	.byte		        75*seq_045_mvl/mxv
	.byte	W04
	.byte		        77*seq_045_mvl/mxv
	.byte	W03
	.byte		        79*seq_045_mvl/mxv
	.byte	W04
	.byte		        82*seq_045_mvl/mxv
	.byte	W04
	.byte		        82*seq_045_mvl/mxv
	.byte	W04
	.byte		        85*seq_045_mvl/mxv
	.byte	W04
	.byte		        84*seq_045_mvl/mxv
	.byte	W03
	.byte		        83*seq_045_mvl/mxv
	.byte	W04
	.byte		        81*seq_045_mvl/mxv
	.byte	W04
	.byte		        78*seq_045_mvl/mxv
	.byte	W04
	.byte		        73*seq_045_mvl/mxv
	.byte	W04
	.byte		        68*seq_045_mvl/mxv
	.byte	W04
	.byte		        64*seq_045_mvl/mxv
	.byte	W03
	.byte		        61*seq_045_mvl/mxv
	.byte	W04
	.byte		        56*seq_045_mvl/mxv
	.byte	W04
	.byte		        51*seq_045_mvl/mxv
	.byte	W04
	.byte		        46*seq_045_mvl/mxv
	.byte	W04
	.byte		        42*seq_045_mvl/mxv
	.byte	W03
	.byte		        37*seq_045_mvl/mxv
	.byte	W04
	.byte		        30*seq_045_mvl/mxv
	.byte	W04
	.byte		        22*seq_045_mvl/mxv
	.byte	W04
	.byte		        15*seq_045_mvl/mxv
	.byte	W04
	.byte		        7*seq_045_mvl/mxv
	.byte	W05
	.byte		EOT
	.byte	FINE

@*********************** Track 02 ***********************@

seq_045_1:
	.byte	KEYSH , seq_045_key+0
	.byte	W02
	.byte		VOICE , 24
	.byte		VOL   , 78*seq_045_mvl/mxv
	.byte		PAN   , c_v+0
	.byte	W01
	.byte		MODT  , mod_pan
	.byte	W21
	.byte	W96
	.byte	W96
	.byte	W96
	.byte	W96
	.byte	W96
	.byte	W96
	.byte	W96
	.byte	W96
	.byte	W96
	.byte	W96
	.byte	W96
	.byte	W92
	.byte	W03
	.byte		MOD   , 50
	.byte		VOL   , 0*seq_045_mvl/mxv
	.byte	W01
	.byte		TIE   , Gn4 , v060
	.byte	W02
	.byte		VOL   , 3*seq_045_mvl/mxv
	.byte	W02
	.byte		        4*seq_045_mvl/mxv
	.byte	W02
	.byte		        7*seq_045_mvl/mxv
	.byte	W01
	.byte		        8*seq_045_mvl/mxv
	.byte	W02
	.byte		        11*seq_045_mvl/mxv
	.byte	W01
	.byte		        13*seq_045_mvl/mxv
	.byte	W02
	.byte		        16*seq_045_mvl/mxv
	.byte	W01
	.byte		        17*seq_045_mvl/mxv
	.byte	W02
	.byte		        20*seq_045_mvl/mxv
	.byte	W02
	.byte		        23*seq_045_mvl/mxv
	.byte	W01
	.byte		        24*seq_045_mvl/mxv
	.byte	W02
	.byte		        27*seq_045_mvl/mxv
	.byte	W01
	.byte		        29*seq_045_mvl/mxv
	.byte	W02
	.byte		        31*seq_045_mvl/mxv
	.byte	W01
	.byte		        33*seq_045_mvl/mxv
	.byte	W02
	.byte		        36*seq_045_mvl/mxv
	.byte	W02
	.byte		        39*seq_045_mvl/mxv
	.byte	W01
	.byte		        40*seq_045_mvl/mxv
	.byte	W02
	.byte		        43*seq_045_mvl/mxv
	.byte	W01
	.byte		        44*seq_045_mvl/mxv
	.byte	W02
	.byte		        47*seq_045_mvl/mxv
	.byte	W01
	.byte		        49*seq_045_mvl/mxv
	.byte	W02
	.byte		        52*seq_045_mvl/mxv
	.byte	W02
	.byte		        55*seq_045_mvl/mxv
	.byte	W01
	.byte		        56*seq_045_mvl/mxv
	.byte	W02
	.byte		        59*seq_045_mvl/mxv
	.byte	W01
	.byte		        60*seq_045_mvl/mxv
	.byte	W02
	.byte		        62*seq_045_mvl/mxv
	.byte	W01
	.byte		        64*seq_045_mvl/mxv
	.byte	W02
	.byte		        67*seq_045_mvl/mxv
	.byte	W02
	.byte		        70*seq_045_mvl/mxv
	.byte	W01
	.byte		        72*seq_045_mvl/mxv
	.byte	W02
	.byte		        76*seq_045_mvl/mxv
	.byte	W01
	.byte		        77*seq_045_mvl/mxv
	.byte	W02
	.byte		        81*seq_045_mvl/mxv
	.byte	W01
	.byte		        83*seq_045_mvl/mxv
	.byte	W02
	.byte		        86*seq_045_mvl/mxv
	.byte	W02
	.byte		        90*seq_045_mvl/mxv
	.byte	W01
	.byte		        92*seq_045_mvl/mxv
	.byte	W32
	.byte	W02
	.byte	W09
	.byte		        99*seq_045_mvl/mxv
	.byte	W02
	.byte		        98*seq_045_mvl/mxv
	.byte	W02
	.byte		        97*seq_045_mvl/mxv
	.byte	W02
	.byte		        96*seq_045_mvl/mxv
	.byte	W02
	.byte		        95*seq_045_mvl/mxv
	.byte	W02
	.byte		        94*seq_045_mvl/mxv
	.byte	W02
	.byte		        93*seq_045_mvl/mxv
	.byte	W02
	.byte		        92*seq_045_mvl/mxv
	.byte	W01
	.byte		        91*seq_045_mvl/mxv
	.byte	W02
	.byte		        90*seq_045_mvl/mxv
	.byte	W02
	.byte		        89*seq_045_mvl/mxv
	.byte	W02
	.byte		        85*seq_045_mvl/mxv
	.byte	W02
	.byte		        84*seq_045_mvl/mxv
	.byte	W02
	.byte		        82*seq_045_mvl/mxv
	.byte	W02
	.byte		        80*seq_045_mvl/mxv
	.byte	W02
	.byte		        78*seq_045_mvl/mxv
	.byte	W01
	.byte		        78*seq_045_mvl/mxv
	.byte	W02
	.byte		        76*seq_045_mvl/mxv
	.byte	W02
	.byte		        74*seq_045_mvl/mxv
	.byte	W02
	.byte		        72*seq_045_mvl/mxv
	.byte	W02
	.byte		        71*seq_045_mvl/mxv
	.byte	W02
	.byte		        69*seq_045_mvl/mxv
	.byte	W02
	.byte		        67*seq_045_mvl/mxv
	.byte	W02
	.byte		        63*seq_045_mvl/mxv
	.byte	W01
	.byte		        62*seq_045_mvl/mxv
	.byte	W02
	.byte		        59*seq_045_mvl/mxv
	.byte	W02
	.byte		        55*seq_045_mvl/mxv
	.byte	W02
	.byte		        52*seq_045_mvl/mxv
	.byte	W02
	.byte		        49*seq_045_mvl/mxv
	.byte	W02
	.byte		        45*seq_045_mvl/mxv
	.byte	W02
	.byte		        42*seq_045_mvl/mxv
	.byte	W02
	.byte		        36*seq_045_mvl/mxv
	.byte	W01
	.byte		        33*seq_045_mvl/mxv
	.byte	W02
	.byte		        27*seq_045_mvl/mxv
	.byte	W02
	.byte		        21*seq_045_mvl/mxv
	.byte	W02
	.byte		        15*seq_045_mvl/mxv
	.byte	W02
	.byte		        11*seq_045_mvl/mxv
	.byte	W02
	.byte		        5*seq_045_mvl/mxv
	.byte	W02
	.byte		        0*seq_045_mvl/mxv
	.byte	W14
	.byte		MOD   , 50
	.byte	W01
	.byte		EOT
	.byte	W96
	.byte	W07
	.byte		VOICE , 95
	.byte		VOL   , 125*seq_045_mvl/mxv
	.byte		PAN   , c_v+30
	.byte	W01
	.byte		MOD   , 0
	.byte		MODT  , mod_pan
	.byte	W88
	.byte		N02   , Cn4 , v127
	.byte	W08
	.byte		        Fn3 
	.byte	W08
	.byte		        Gn3 
	.byte	W08
	.byte		        Cn4 
	.byte	W08
	.byte		        Fn3 
	.byte	W08
	.byte		        Gn3 
	.byte	W08
	.byte		        Cn4 
	.byte	W08
	.byte		        Fn3 
	.byte	W08
	.byte		        Gn3 
	.byte	W08
	.byte		        Cn4 
	.byte	W08
	.byte		        Fn3 
	.byte	W08
	.byte		        Gn3 
	.byte	W08
	.byte	PEND
	.byte	PATT
	 .word	seq_045_1 + 0xD4
	.byte		N02   , Cn4 , v120
	.byte	W08
	.byte		        Fn3 
	.byte	W08
	.byte		        Gn3 
	.byte	W08
	.byte		        Cn4 
	.byte	W08
	.byte		        Fn3 
	.byte	W08
	.byte		        Gn3 
	.byte	W08
	.byte		        Cn4 
	.byte	W08
	.byte		        Fn3 
	.byte	W08
	.byte		        Gn3 
	.byte	W08
	.byte		        Cn4 
	.byte	W08
	.byte		        Fn3 
	.byte	W08
	.byte		        Gn3 
	.byte	W08
	.byte		        Cn4 
	.byte	W08
	.byte		        Fn3 
	.byte	W08
	.byte		        Gn3 
	.byte	W08
	.byte		        Cn4 
	.byte	W08
	.byte		        Fn3 
	.byte	W08
	.byte		        Gn3 
	.byte	W08
	.byte		        Cn4 
	.byte	W02
	.byte	FINE

@*********************** Track 03 ***********************@

seq_045_2:
	.byte	KEYSH , seq_045_key+0
	.byte	W03
	.byte		VOICE , 4
	.byte		VOL   , 98*seq_045_mvl/mxv
	.byte	W01
	.byte		PAN   , c_v+0
	.byte		MODT  , mod_pan
	.byte	W20
	.byte	W96
	.byte	W96
	.byte	W96
	.byte	W96
	.byte	W96
	.byte	W96
	.byte	W96
	.byte	W92
	.byte	W03
	.byte		MOD   , 50
	.byte		VOL   , 0*seq_045_mvl/mxv
	.byte	W01
	.byte		N96   , Fn2 , v092
	.byte	W02
	.byte		VOL   , 10*seq_045_mvl/mxv
	.byte	W02
	.byte		        31*seq_045_mvl/mxv
	.byte	W02
	.byte		        52*seq_045_mvl/mxv
	.byte	W01
	.byte		        62*seq_045_mvl/mxv
	.byte	W02
	.byte		        83*seq_045_mvl/mxv
	.byte	W01
	.byte		        94*seq_045_mvl/mxv
	.byte	W02
	.byte		        116*seq_045_mvl/mxv
	.byte	W01
	.byte		        125*seq_045_mvl/mxv
	.byte	W36
	.byte		        118*seq_045_mvl/mxv
	.byte	W02
	.byte		        113*seq_045_mvl/mxv
	.byte	W02
	.byte		        106*seq_045_mvl/mxv
	.byte	W02
	.byte		        104*seq_045_mvl/mxv
	.byte	W02
	.byte		        101*seq_045_mvl/mxv
	.byte	W02
	.byte		        96*seq_045_mvl/mxv
	.byte	W02
	.byte		        93*seq_045_mvl/mxv
	.byte	W02
	.byte		        89*seq_045_mvl/mxv
	.byte	W02
	.byte		        85*seq_045_mvl/mxv
	.byte	W02
	.byte		        80*seq_045_mvl/mxv
	.byte	W02
	.byte		        75*seq_045_mvl/mxv
	.byte	W02
	.byte		        68*seq_045_mvl/mxv
	.byte	W02
	.byte		        61*seq_045_mvl/mxv
	.byte	W02
	.byte		        55*seq_045_mvl/mxv
	.byte	W02
	.byte		        50*seq_045_mvl/mxv
	.byte	W02
	.byte		        44*seq_045_mvl/mxv
	.byte	W02
	.byte		        37*seq_045_mvl/mxv
	.byte	W02
	.byte		        31*seq_045_mvl/mxv
	.byte	W02
	.byte		        24*seq_045_mvl/mxv
	.byte	W02
	.byte		        19*seq_045_mvl/mxv
	.byte	W02
	.byte		        14*seq_045_mvl/mxv
	.byte	W02
	.byte		        7*seq_045_mvl/mxv
	.byte	W02
	.byte		        1*seq_045_mvl/mxv
	.byte	W02
	.byte		MOD   , 50
	.byte		VOL   , 0*seq_045_mvl/mxv
	.byte	W01
	.byte		N96   , En2 
	.byte	W02
	.byte		VOL   , 10*seq_045_mvl/mxv
	.byte	W02
	.byte		        31*seq_045_mvl/mxv
	.byte	W02
	.byte		        52*seq_045_mvl/mxv
	.byte	W01
	.byte		        62*seq_045_mvl/mxv
	.byte	W02
	.byte		        83*seq_045_mvl/mxv
	.byte	W01
	.byte		        94*seq_045_mvl/mxv
	.byte	W02
	.byte		        116*seq_045_mvl/mxv
	.byte	W01
	.byte		        125*seq_045_mvl/mxv
	.byte	W36
	.byte		        118*seq_045_mvl/mxv
	.byte	W02
	.byte		        113*seq_045_mvl/mxv
	.byte	W02
	.byte		        106*seq_045_mvl/mxv
	.byte	W02
	.byte		        104*seq_045_mvl/mxv
	.byte	W02
	.byte		        101*seq_045_mvl/mxv
	.byte	W02
	.byte		        96*seq_045_mvl/mxv
	.byte	W02
	.byte		        93*seq_045_mvl/mxv
	.byte	W02
	.byte		        89*seq_045_mvl/mxv
	.byte	W02
	.byte		        85*seq_045_mvl/mxv
	.byte	W02
	.byte		        80*seq_045_mvl/mxv
	.byte	W02
	.byte		        75*seq_045_mvl/mxv
	.byte	W02
	.byte		        68*seq_045_mvl/mxv
	.byte	W02
	.byte		        61*seq_045_mvl/mxv
	.byte	W02
	.byte		        55*seq_045_mvl/mxv
	.byte	W02
	.byte		        50*seq_045_mvl/mxv
	.byte	W02
	.byte		        44*seq_045_mvl/mxv
	.byte	W02
	.byte		        37*seq_045_mvl/mxv
	.byte	W02
	.byte		        31*seq_045_mvl/mxv
	.byte	W02
	.byte		        24*seq_045_mvl/mxv
	.byte	W02
	.byte		        19*seq_045_mvl/mxv
	.byte	W02
	.byte		        14*seq_045_mvl/mxv
	.byte	W02
	.byte		        7*seq_045_mvl/mxv
	.byte	W02
	.byte		        1*seq_045_mvl/mxv
	.byte	W02
	.byte		MOD   , 50
	.byte		VOL   , 0*seq_045_mvl/mxv
	.byte	W01
	.byte		N96   , Dn2 
	.byte	W02
	.byte		VOL   , 10*seq_045_mvl/mxv
	.byte	W02
	.byte		        31*seq_045_mvl/mxv
	.byte	W02
	.byte		        52*seq_045_mvl/mxv
	.byte	W01
	.byte		        62*seq_045_mvl/mxv
	.byte	W02
	.byte		        83*seq_045_mvl/mxv
	.byte	W01
	.byte		        94*seq_045_mvl/mxv
	.byte	W02
	.byte		        116*seq_045_mvl/mxv
	.byte	W01
	.byte		        125*seq_045_mvl/mxv
	.byte	W36
	.byte		        118*seq_045_mvl/mxv
	.byte	W02
	.byte		        113*seq_045_mvl/mxv
	.byte	W02
	.byte		        106*seq_045_mvl/mxv
	.byte	W02
	.byte		        104*seq_045_mvl/mxv
	.byte	W02
	.byte		        101*seq_045_mvl/mxv
	.byte	W02
	.byte		        96*seq_045_mvl/mxv
	.byte	W02
	.byte		        93*seq_045_mvl/mxv
	.byte	W02
	.byte		        89*seq_045_mvl/mxv
	.byte	W02
	.byte		        85*seq_045_mvl/mxv
	.byte	W02
	.byte		        80*seq_045_mvl/mxv
	.byte	W02
	.byte		        75*seq_045_mvl/mxv
	.byte	W02
	.byte		        68*seq_045_mvl/mxv
	.byte	W02
	.byte		        61*seq_045_mvl/mxv
	.byte	W02
	.byte		        55*seq_045_mvl/mxv
	.byte	W02
	.byte		        50*seq_045_mvl/mxv
	.byte	W02
	.byte		        44*seq_045_mvl/mxv
	.byte	W02
	.byte		        37*seq_045_mvl/mxv
	.byte	W02
	.byte		        31*seq_045_mvl/mxv
	.byte	W02
	.byte		        24*seq_045_mvl/mxv
	.byte	W02
	.byte		        19*seq_045_mvl/mxv
	.byte	W02
	.byte		        14*seq_045_mvl/mxv
	.byte	W02
	.byte		        7*seq_045_mvl/mxv
	.byte	W02
	.byte		        1*seq_045_mvl/mxv
	.byte	W02
	.byte		MOD   , 50
	.byte		VOL   , 0*seq_045_mvl/mxv
	.byte	W01
	.byte		N96   , Cn2 
	.byte	W02
	.byte		VOL   , 10*seq_045_mvl/mxv
	.byte	W02
	.byte		        31*seq_045_mvl/mxv
	.byte	W02
	.byte		        52*seq_045_mvl/mxv
	.byte	W01
	.byte		        62*seq_045_mvl/mxv
	.byte	W02
	.byte		        83*seq_045_mvl/mxv
	.byte	W01
	.byte		        94*seq_045_mvl/mxv
	.byte	W02
	.byte		        116*seq_045_mvl/mxv
	.byte	W01
	.byte		        125*seq_045_mvl/mxv
	.byte	W36
	.byte		        118*seq_045_mvl/mxv
	.byte	W02
	.byte		        113*seq_045_mvl/mxv
	.byte	W02
	.byte		        106*seq_045_mvl/mxv
	.byte	W02
	.byte		        104*seq_045_mvl/mxv
	.byte	W02
	.byte		        101*seq_045_mvl/mxv
	.byte	W02
	.byte		        96*seq_045_mvl/mxv
	.byte	W02
	.byte		        93*seq_045_mvl/mxv
	.byte	W02
	.byte		        89*seq_045_mvl/mxv
	.byte	W02
	.byte		        85*seq_045_mvl/mxv
	.byte	W02
	.byte		        80*seq_045_mvl/mxv
	.byte	W02
	.byte		        75*seq_045_mvl/mxv
	.byte	W02
	.byte		        68*seq_045_mvl/mxv
	.byte	W02
	.byte		        61*seq_045_mvl/mxv
	.byte	W02
	.byte		        55*seq_045_mvl/mxv
	.byte	W02
	.byte		        50*seq_045_mvl/mxv
	.byte	W02
	.byte		        44*seq_045_mvl/mxv
	.byte	W02
	.byte		        37*seq_045_mvl/mxv
	.byte	W02
	.byte		        31*seq_045_mvl/mxv
	.byte	W02
	.byte		        24*seq_045_mvl/mxv
	.byte	W02
	.byte		        19*seq_045_mvl/mxv
	.byte	W02
	.byte		        14*seq_045_mvl/mxv
	.byte	W02
	.byte		        7*seq_045_mvl/mxv
	.byte	W02
	.byte		        1*seq_045_mvl/mxv
	.byte	W03
	.byte	W96
	.byte	W96
	.byte	W96
	.byte	W96
	.byte	FINE

@*********************** Track 04 ***********************@

seq_045_3:
	.byte	KEYSH , seq_045_key+0
	.byte	W04
	.byte		MOD   , 45
	.byte	W01
	.byte		VOICE , 95
	.byte		VOL   , 113*seq_045_mvl/mxv
	.byte		MODT  , mod_tre
	.byte	W01
	.byte		PAN   , c_v-40
	.byte	W18
	.byte	W96
	.byte	W96
	.byte	W96
	.byte	W96
	.byte	W96
	.byte	W96
	.byte	W96
	.byte	W96
	.byte	W12
	.byte		N03   , Cn2 , v127
	.byte	W06
	.byte		        Cn2 , v032
	.byte	W06
	.byte		        Cn2 , v020
	.byte	W06
	.byte		        Cn2 , v008
	.byte	W06
	.byte		        Cn2 , v127
	.byte	W06
	.byte		        Cn2 , v032
	.byte	W06
	.byte		        Cn2 , v020
	.byte	W06
	.byte		        Cn2 , v008
	.byte	W06
	.byte		        Cn2 , v127
	.byte	W06
	.byte		        Cn2 , v032
	.byte	W06
	.byte		        Cn2 , v020
	.byte	W06
	.byte		        Cn2 , v008
	.byte	W18
	.byte	PEND
	.byte	PATT
	 .word	seq_045_3 + 0x18
	.byte	PATT
	 .word	seq_045_3 + 0x18
	.byte	W12
	.byte		N03   , Cn2 , v127
	.byte	W06
	.byte		        Cn2 , v032
	.byte	W06
	.byte		        Cn2 , v020
	.byte	W06
	.byte		        Cn2 , v008
	.byte	W06
	.byte		        Cn2 , v127
	.byte	W06
	.byte		        Cn2 , v032
	.byte	W06
	.byte		        Cn2 , v020
	.byte	W06
	.byte		        Cn2 , v008
	.byte	W42
	.byte	W12
	.byte		        Cn2 , v127
	.byte	W06
	.byte		        Cn2 , v032
	.byte	W06
	.byte		        Cn2 , v020
	.byte	W06
	.byte		        Cn2 , v008
	.byte	W06
	.byte		        Cn2 , v127
	.byte	W06
	.byte		        Cn2 , v032
	.byte	W06
	.byte		        Cn2 , v020
	.byte	W06
	.byte		        Cn2 , v008
	.byte	W06
	.byte		        Cn2 , v127
	.byte	W06
	.byte		        Cn2 , v032
	.byte	W18
	.byte		        Cn2 , v127
	.byte	W06
	.byte		        Cn2 , v032
	.byte	W06
	.byte		        Cn2 , v020
	.byte	W06
	.byte		        Cn2 , v008
	.byte	W06
	.byte		        Cn2 , v127
	.byte	W06
	.byte		        Cn2 , v032
	.byte	W06
	.byte		        Cn2 , v020
	.byte	W06
	.byte		        Cn2 , v008
	.byte	W06
	.byte		        Cn2 , v127
	.byte	W06
	.byte		        Cn2 , v032
	.byte	W06
	.byte		        Cn2 , v020
	.byte	W06
	.byte		        Cn2 , v008
	.byte	W06
	.byte		        Cn2 , v127
	.byte	W06
	.byte		        Cn2 , v032
	.byte	W06
	.byte		        Cn2 , v020
	.byte	W06
	.byte		        Cn2 , v008
	.byte	W06
	.byte		        Cn2 , v127
	.byte	W06
	.byte		        Cn2 , v032
	.byte	W06
	.byte	W12
	.byte		        Fn2 , v127
	.byte	W06
	.byte		        Fn2 , v032
	.byte	W06
	.byte		        Fn2 , v020
	.byte	W06
	.byte		        Fn2 , v008
	.byte	W06
	.byte		        Fn2 , v127
	.byte	W06
	.byte		        Fn2 , v032
	.byte	W06
	.byte		        Fn2 , v020
	.byte	W06
	.byte		        Fn2 , v008
	.byte	W42
	.byte	W12
	.byte		        Fn2 , v127
	.byte	W06
	.byte		        Fn2 , v032
	.byte	W06
	.byte		        Fn2 , v020
	.byte	W06
	.byte		        Fn2 , v008
	.byte	W06
	.byte		        Fn2 , v127
	.byte	W06
	.byte		        Fn2 , v032
	.byte	W06
	.byte		        Fn2 , v020
	.byte	W06
	.byte		        Fn2 , v008
	.byte	W40
	.byte	W01
	.byte		PAN   , c_v-20
	.byte	W01
	.byte		N92   , Cn2 , v100
	.byte	W96
	.byte		N92
	.byte	W96
	.byte		N92
	.byte	W96
	.byte		N44
	.byte	W48
	.byte		N11
	.byte	W11
	.byte	FINE

@*********************** Track 05 ***********************@

seq_045_4:
	.byte	KEYSH , seq_045_key+0
	.byte	W07
	.byte		MOD   , 25
	.byte		MODT  , mod_tre
	.byte	W01
	.byte		VOICE , 95
	.byte		VOL   , 125*seq_045_mvl/mxv
	.byte		PAN   , c_v+40
	.byte	W16
	.byte	W96
	.byte	W96
	.byte	W96
	.byte	W96
	.byte	W96
	.byte	W96
	.byte	W96
	.byte	W96
	.byte	W12
	.byte		N03   , Gn2 , v127
	.byte	W06
	.byte		        Gn2 , v032
	.byte	W06
	.byte		        Gn2 , v020
	.byte	W06
	.byte		        Gn2 , v008
	.byte	W06
	.byte		        Gn2 , v127
	.byte	W06
	.byte		        Gn2 , v032
	.byte	W06
	.byte		        Gn2 , v020
	.byte	W06
	.byte		        Gn2 , v008
	.byte	W06
	.byte		        Gn2 , v127
	.byte	W06
	.byte		        Gn2 , v032
	.byte	W06
	.byte		        Gn2 , v020
	.byte	W06
	.byte		        Gn2 , v008
	.byte	W18
	.byte	PEND
	.byte	PATT
	 .word	seq_045_4 + 0x17
	.byte	W12
	.byte		N03   , Fn2 , v127
	.byte	W06
	.byte		        Fn2 , v032
	.byte	W06
	.byte		        Fn2 , v020
	.byte	W06
	.byte		        Fn2 , v008
	.byte	W06
	.byte		        Fn2 , v127
	.byte	W06
	.byte		        Fn2 , v032
	.byte	W06
	.byte		        Fn2 , v020
	.byte	W06
	.byte		        Fn2 , v008
	.byte	W06
	.byte		        Fn2 , v127
	.byte	W06
	.byte		        Fn2 , v032
	.byte	W06
	.byte		        Fn2 , v020
	.byte	W06
	.byte		        Fn2 , v008
	.byte	W18
	.byte		        En2 , v020
	.byte	W06
	.byte		        En2 , v008
	.byte	W06
	.byte		        En2 , v127
	.byte	W06
	.byte		        En2 , v032
	.byte	W06
	.byte		        En2 , v020
	.byte	W06
	.byte		        En2 , v008
	.byte	W06
	.byte		        En2 , v127
	.byte	W06
	.byte		        En2 , v032
	.byte	W06
	.byte		        En2 , v020
	.byte	W06
	.byte		        En2 , v008
	.byte	W42
	.byte	W12
	.byte		N03   , Gn2 , v127
	.byte	W06
	.byte		        Gn2 , v032
	.byte	W18
	.byte		        Gn2 , v127
	.byte	W06
	.byte		        Gn2 , v032
	.byte	W18
	.byte		        Gn2 , v127
	.byte	W06
	.byte		        Gn2 , v032
	.byte	W18
	.byte		        Gn2 , v127
	.byte	W06
	.byte		        Gn2 , v032
	.byte	W06
	.byte	PEND
	.byte	PATT
	 .word	seq_045_4 + 0x87
	.byte	W12
	.byte		N03   , Cn3 , v127
	.byte	W06
	.byte		        Cn3 , v032
	.byte	W06
	.byte		        Cn3 , v020
	.byte	W06
	.byte		        Cn3 , v008
	.byte	W06
	.byte		        Cn3 , v127
	.byte	W06
	.byte		        Cn3 , v032
	.byte	W06
	.byte		        Cn3 , v020
	.byte	W06
	.byte		        Cn3 , v008
	.byte	W42
	.byte	W12
	.byte		        Cn3 , v127
	.byte	W06
	.byte		        Cn3 , v032
	.byte	W06
	.byte		        Cn3 , v020
	.byte	W06
	.byte		        Cn3 , v008
	.byte	W06
	.byte		        Cn3 , v127
	.byte	W06
	.byte		        Cn3 , v032
	.byte	W06
	.byte		        Cn3 , v020
	.byte	W06
	.byte		        Cn3 , v008
	.byte	W40
	.byte	W01
	.byte		PAN   , c_v+20
	.byte	W01
	.byte		N92   , Gn1 , v100
	.byte	W96
	.byte		        Fn1 
	.byte	W96
	.byte		        Gn1 
	.byte	W96
	.byte		N44
	.byte	W44
	.byte	W03
	.byte	FINE

@*********************** Track 06 ***********************@

seq_045_5:
	.byte	KEYSH , seq_045_key+0
	.byte	W09
	.byte		VOICE , 81
	.byte		MOD   , 0
	.byte		MODT  , mod_tre
	.byte	W01
	.byte		VOL   , 68*seq_045_mvl/mxv
	.byte		PAN   , c_v+0
	.byte		LFOS  , 90
	.byte	W14
	.byte	W96
	.byte	W96
	.byte	W96
	.byte	W96
	.byte	W96
	.byte	W96
	.byte	W96
	.byte	W96
	.byte	W96
	.byte	W96
	.byte	W96
	.byte	W96
	.byte	W96
	.byte	W96
	.byte	W96
	.byte	W92
	.byte	W03
	.byte		VOICE , 74
	.byte		VOL   , 103*seq_045_mvl/mxv
	.byte	W01
	.byte		N05   , Cn4 , v100
	.byte	W16
	.byte		        Cn4 , v032
	.byte	W08
	.byte		        Cn4 , v100
	.byte	W16
	.byte		        Cn4 , v032
	.byte	W08
	.byte		        Cn4 , v100
	.byte	W16
	.byte		        Cn4 , v032
	.byte	W08
	.byte		        Cn4 , v100
	.byte	W16
	.byte		        Cn4 , v032
	.byte	W08
	.byte	PEND
	.byte	PATT
	 .word	seq_045_5 + 0x27
	.byte	PATT
	 .word	seq_045_5 + 0x27
	.byte		N05   , Cn4 , v100
	.byte	W16
	.byte		        Cn4 , v032
	.byte	W08
	.byte		N08   , Cn4 , v100
	.byte	W08
	.byte		        Cn4 , v076
	.byte	W08
	.byte		N08
	.byte	W08
	.byte		N05   , Cn4 , v052
	.byte	W05
	.byte	FINE

@*********************** Track 07 ***********************@

seq_045_6:
	.byte	KEYSH , seq_045_key+0
	.byte	W11
	.byte		VOICE , 82
	.byte		MOD   , 0
	.byte		VOL   , 68*seq_045_mvl/mxv
	.byte	W01
	.byte		PAN   , c_v+0
	.byte		LFOS  , 90
	.byte		MODT  , mod_pan
	.byte	W12
	.byte	W96
	.byte	W96
	.byte	W96
	.byte	W96
	.byte	W96
	.byte	W96
	.byte	W96
	.byte	W96
	.byte	W96
	.byte	W96
	.byte	W96
	.byte	W96
	.byte	W96
	.byte	W96
	.byte	W96
	.byte	W92
	.byte	W03
	.byte		VOICE , 75
	.byte		MOD   , 0
	.byte		VOL   , 108*seq_045_mvl/mxv
	.byte		MODT  , mod_pan
	.byte	W01
	.byte		N12   , Gn3 , v092
	.byte	W24
	.byte		N12
	.byte	W24
	.byte		N12
	.byte	W24
	.byte		N12
	.byte	W24
	.byte	PEND
	.byte		        Fn3 
	.byte	W24
	.byte		N12
	.byte	W24
	.byte		N12
	.byte	W24
	.byte		N12
	.byte	W24
	.byte	PATT
	 .word	seq_045_6 + 0x2B
	.byte		N12   , Gn3 , v092
	.byte	W24
	.byte		N08   , Gn3 , v080
	.byte	W08
	.byte		        Gn3 , v052
	.byte	W08
	.byte		N08
	.byte	W08
	.byte		N04   , Cn3 , v040
	.byte	W04
	.byte	FINE

@*********************** Track 08 ***********************@

seq_045_7:
	.byte	KEYSH , seq_045_key+0
	.byte	W13
	.byte		MOD   , 60
	.byte		PAN   , c_v+0
	.byte		MODT  , mod_pan
	.byte	W01
	.byte		VOICE , 3
	.byte		VOL   , 68*seq_045_mvl/mxv
	.byte		LFOS  , 35
	.byte	W10
	.byte	W12
	.byte		N03   , Cn3 , v108
	.byte	W06
	.byte		        Cn3 , v076
	.byte	W06
	.byte		        Dn3 , v108
	.byte	W06
	.byte		        Dn3 , v076
	.byte	W06
	.byte		        Gn3 , v108
	.byte	W06
	.byte		        Gn3 , v076
	.byte	W54
	.byte	PEND
	.byte	PATT
	 .word	seq_045_7 + 0x11
	.byte	PATT
	 .word	seq_045_7 + 0x11
	.byte	PATT
	 .word	seq_045_7 + 0x11
	.byte	PATT
	 .word	seq_045_7 + 0x11
	.byte	PATT
	 .word	seq_045_7 + 0x11
	.byte	PATT
	 .word	seq_045_7 + 0x11
	.byte	W92
	.byte	W03
	.byte		VOICE , 15
	.byte		MOD   , 0
	.byte		VOL   , 98*seq_045_mvl/mxv
	.byte		PAN   , c_v+0
	.byte	W01
	.byte		N12   , Fn2 , v120
	.byte	W12
	.byte		        Dn3 , v096
	.byte	W12
	.byte		        Gn3 
	.byte	W12
	.byte		        Cn4 , v120
	.byte	W60
	.byte		        En2 
	.byte	W12
	.byte		        En3 , v096
	.byte	W12
	.byte		        Gn3 
	.byte	W12
	.byte		        Cn4 , v120
	.byte	W60
	.byte		        Dn2 
	.byte	W12
	.byte		        Cn3 , v096
	.byte	W12
	.byte		        Fn3 
	.byte	W12
	.byte		        An3 , v120
	.byte	W60
	.byte		        Cn2 
	.byte	W12
	.byte		        Cn3 , v096
	.byte	W12
	.byte		        En3 
	.byte	W12
	.byte		        Gn3 , v120
	.byte	W60
	.byte		        Fn2 
	.byte	W12
	.byte		        Cn3 , v096
	.byte	W12
	.byte		        Dn3 
	.byte	W12
	.byte		        Gn3 , v120
	.byte	W24
	.byte		        Fn3 , v096
	.byte	W12
	.byte		        Cn4 , v120
	.byte	W24
	.byte		        En2 
	.byte	W12
	.byte		        Cn3 , v096
	.byte	W12
	.byte		        En3 
	.byte	W12
	.byte		        Gn3 , v120
	.byte	W24
	.byte		        En3 , v096
	.byte	W12
	.byte		        Cn4 , v120
	.byte	W24
	.byte	W96
	.byte	W92
	.byte	W03
	.byte		VOICE , 120
	.byte		VOL   , 123*seq_045_mvl/mxv
	.byte	W01
	.byte		N12   , As1 , v127
	.byte	W84
	.byte		N06   , As1 , v080
	.byte	W06
	.byte		        As1 , v100
	.byte	W06
	.byte		N12   , An1 , v127
	.byte	W96
	.byte		N08   , Cn2 
	.byte	W48
	.byte		N08
	.byte	W48
	.byte		N08
	.byte	W24
	.byte		        Gn1 
	.byte	W24
	.byte		        Cn2 
	.byte	W08
	.byte	FINE

@*********************** Track 09 ***********************@

seq_045_8:
	.byte	KEYSH , seq_045_key+0
	.byte	W15
	.byte		VOICE , 37
	.byte		VOL   , 0*seq_045_mvl/mxv
	.byte		PAN   , c_v+0
	.byte	W09
	.byte	W96
	.byte	W96
	.byte	W96
	.byte	W96
	.byte	W96
	.byte	W96
	.byte	W96
	.byte	W92
	.byte	W03
	.byte		VOL   , 8*seq_045_mvl/mxv
	.byte	W01
	.byte		N72   , Fn2 , v100
	.byte	W03
	.byte		VOL   , 16*seq_045_mvl/mxv
	.byte	W02
	.byte		        27*seq_045_mvl/mxv
	.byte	W01
	.byte		        33*seq_045_mvl/mxv
	.byte	W02
	.byte		        44*seq_045_mvl/mxv
	.byte	W01
	.byte		        50*seq_045_mvl/mxv
	.byte	W02
	.byte		        61*seq_045_mvl/mxv
	.byte	W01
	.byte		        66*seq_045_mvl/mxv
	.byte	W01
	.byte		        71*seq_045_mvl/mxv
	.byte	W02
	.byte		        83*seq_045_mvl/mxv
	.byte	W01
	.byte		        88*seq_045_mvl/mxv
	.byte	W02
	.byte		        100*seq_045_mvl/mxv
	.byte	W01
	.byte		        105*seq_045_mvl/mxv
	.byte	W02
	.byte		        117*seq_045_mvl/mxv
	.byte	W01
	.byte		        125*seq_045_mvl/mxv
	.byte	W36
	.byte		        113*seq_045_mvl/mxv
	.byte	W02
	.byte		        102*seq_045_mvl/mxv
	.byte	W02
	.byte		        91*seq_045_mvl/mxv
	.byte	W02
	.byte		        80*seq_045_mvl/mxv
	.byte	W02
	.byte		        68*seq_045_mvl/mxv
	.byte	W02
	.byte		        58*seq_045_mvl/mxv
	.byte	W02
	.byte		        47*seq_045_mvl/mxv
	.byte	W24
	.byte	W01
	.byte		        8*seq_045_mvl/mxv
	.byte	W01
	.byte		N72   , En2 
	.byte	W03
	.byte		VOL   , 16*seq_045_mvl/mxv
	.byte	W02
	.byte		        27*seq_045_mvl/mxv
	.byte	W01
	.byte		        33*seq_045_mvl/mxv
	.byte	W02
	.byte		        44*seq_045_mvl/mxv
	.byte	W01
	.byte		        50*seq_045_mvl/mxv
	.byte	W02
	.byte		        61*seq_045_mvl/mxv
	.byte	W01
	.byte		        66*seq_045_mvl/mxv
	.byte	W01
	.byte		        71*seq_045_mvl/mxv
	.byte	W02
	.byte		        83*seq_045_mvl/mxv
	.byte	W01
	.byte		        88*seq_045_mvl/mxv
	.byte	W02
	.byte		        100*seq_045_mvl/mxv
	.byte	W01
	.byte		        105*seq_045_mvl/mxv
	.byte	W02
	.byte		        117*seq_045_mvl/mxv
	.byte	W01
	.byte		        125*seq_045_mvl/mxv
	.byte	W36
	.byte		        113*seq_045_mvl/mxv
	.byte	W02
	.byte		        102*seq_045_mvl/mxv
	.byte	W02
	.byte		        91*seq_045_mvl/mxv
	.byte	W02
	.byte		        80*seq_045_mvl/mxv
	.byte	W02
	.byte		        68*seq_045_mvl/mxv
	.byte	W02
	.byte		        58*seq_045_mvl/mxv
	.byte	W02
	.byte		        47*seq_045_mvl/mxv
	.byte	W24
	.byte	W01
	.byte		        8*seq_045_mvl/mxv
	.byte	W01
	.byte		N72   , Dn2 
	.byte	W03
	.byte		VOL   , 16*seq_045_mvl/mxv
	.byte	W02
	.byte		        27*seq_045_mvl/mxv
	.byte	W01
	.byte		        33*seq_045_mvl/mxv
	.byte	W02
	.byte		        44*seq_045_mvl/mxv
	.byte	W01
	.byte		        50*seq_045_mvl/mxv
	.byte	W02
	.byte		        61*seq_045_mvl/mxv
	.byte	W01
	.byte		        66*seq_045_mvl/mxv
	.byte	W01
	.byte		        71*seq_045_mvl/mxv
	.byte	W02
	.byte		        83*seq_045_mvl/mxv
	.byte	W01
	.byte		        88*seq_045_mvl/mxv
	.byte	W02
	.byte		        100*seq_045_mvl/mxv
	.byte	W01
	.byte		        105*seq_045_mvl/mxv
	.byte	W02
	.byte		        117*seq_045_mvl/mxv
	.byte	W01
	.byte		        125*seq_045_mvl/mxv
	.byte	W36
	.byte		        113*seq_045_mvl/mxv
	.byte	W02
	.byte		        102*seq_045_mvl/mxv
	.byte	W02
	.byte		        91*seq_045_mvl/mxv
	.byte	W02
	.byte		        80*seq_045_mvl/mxv
	.byte	W02
	.byte		        68*seq_045_mvl/mxv
	.byte	W02
	.byte		        58*seq_045_mvl/mxv
	.byte	W02
	.byte		        47*seq_045_mvl/mxv
	.byte	W24
	.byte	W01
	.byte		        8*seq_045_mvl/mxv
	.byte	W01
	.byte		N72   , Cn2 
	.byte	W03
	.byte		VOL   , 16*seq_045_mvl/mxv
	.byte	W02
	.byte		        27*seq_045_mvl/mxv
	.byte	W01
	.byte		        33*seq_045_mvl/mxv
	.byte	W02
	.byte		        44*seq_045_mvl/mxv
	.byte	W01
	.byte		        50*seq_045_mvl/mxv
	.byte	W02
	.byte		        61*seq_045_mvl/mxv
	.byte	W01
	.byte		        66*seq_045_mvl/mxv
	.byte	W01
	.byte		        71*seq_045_mvl/mxv
	.byte	W02
	.byte		        83*seq_045_mvl/mxv
	.byte	W01
	.byte		        88*seq_045_mvl/mxv
	.byte	W02
	.byte		        100*seq_045_mvl/mxv
	.byte	W01
	.byte		        105*seq_045_mvl/mxv
	.byte	W02
	.byte		        117*seq_045_mvl/mxv
	.byte	W01
	.byte		        125*seq_045_mvl/mxv
	.byte	W36
	.byte		        113*seq_045_mvl/mxv
	.byte	W02
	.byte		        102*seq_045_mvl/mxv
	.byte	W02
	.byte		        91*seq_045_mvl/mxv
	.byte	W02
	.byte		        80*seq_045_mvl/mxv
	.byte	W02
	.byte		        68*seq_045_mvl/mxv
	.byte	W02
	.byte		        58*seq_045_mvl/mxv
	.byte	W02
	.byte		        47*seq_045_mvl/mxv
	.byte	W24
	.byte	W01
	.byte		        7*seq_045_mvl/mxv
	.byte	W01
	.byte		N96   , Fn2 
	.byte	W03
	.byte		VOL   , 12*seq_045_mvl/mxv
	.byte	W02
	.byte		        17*seq_045_mvl/mxv
	.byte	W01
	.byte		        20*seq_045_mvl/mxv
	.byte	W02
	.byte		        25*seq_045_mvl/mxv
	.byte	W01
	.byte		        28*seq_045_mvl/mxv
	.byte	W02
	.byte		        33*seq_045_mvl/mxv
	.byte	W01
	.byte		        36*seq_045_mvl/mxv
	.byte	W02
	.byte		        41*seq_045_mvl/mxv
	.byte	W01
	.byte		        44*seq_045_mvl/mxv
	.byte	W02
	.byte		        49*seq_045_mvl/mxv
	.byte	W01
	.byte		        52*seq_045_mvl/mxv
	.byte	W02
	.byte		        57*seq_045_mvl/mxv
	.byte	W01
	.byte		        60*seq_045_mvl/mxv
	.byte	W02
	.byte		        64*seq_045_mvl/mxv
	.byte	W01
	.byte		        67*seq_045_mvl/mxv
	.byte	W02
	.byte		        72*seq_045_mvl/mxv
	.byte	W01
	.byte		        75*seq_045_mvl/mxv
	.byte	W02
	.byte		        80*seq_045_mvl/mxv
	.byte	W01
	.byte		        83*seq_045_mvl/mxv
	.byte	W02
	.byte		        88*seq_045_mvl/mxv
	.byte	W01
	.byte		        91*seq_045_mvl/mxv
	.byte	W02
	.byte		        96*seq_045_mvl/mxv
	.byte	W01
	.byte		        99*seq_045_mvl/mxv
	.byte	W02
	.byte		        104*seq_045_mvl/mxv
	.byte	W01
	.byte		        107*seq_045_mvl/mxv
	.byte	W02
	.byte		        112*seq_045_mvl/mxv
	.byte	W01
	.byte		        115*seq_045_mvl/mxv
	.byte	W02
	.byte		        123*seq_045_mvl/mxv
	.byte	W52
	.byte		N96   , En2 
	.byte	W36
	.byte	W01
	.byte		VOL   , 116*seq_045_mvl/mxv
	.byte	W02
	.byte		        115*seq_045_mvl/mxv
	.byte	W02
	.byte		        114*seq_045_mvl/mxv
	.byte	W02
	.byte		        112*seq_045_mvl/mxv
	.byte	W02
	.byte		        110*seq_045_mvl/mxv
	.byte	W02
	.byte		        108*seq_045_mvl/mxv
	.byte	W02
	.byte		        107*seq_045_mvl/mxv
	.byte	W02
	.byte		        105*seq_045_mvl/mxv
	.byte	W01
	.byte		        104*seq_045_mvl/mxv
	.byte	W02
	.byte		        102*seq_045_mvl/mxv
	.byte	W02
	.byte		        100*seq_045_mvl/mxv
	.byte	W02
	.byte		        97*seq_045_mvl/mxv
	.byte	W02
	.byte		        93*seq_045_mvl/mxv
	.byte	W02
	.byte		        90*seq_045_mvl/mxv
	.byte	W02
	.byte		        87*seq_045_mvl/mxv
	.byte	W02
	.byte		        84*seq_045_mvl/mxv
	.byte	W01
	.byte		        82*seq_045_mvl/mxv
	.byte	W02
	.byte		        79*seq_045_mvl/mxv
	.byte	W02
	.byte		        75*seq_045_mvl/mxv
	.byte	W02
	.byte		        72*seq_045_mvl/mxv
	.byte	W02
	.byte		        66*seq_045_mvl/mxv
	.byte	W02
	.byte		        61*seq_045_mvl/mxv
	.byte	W02
	.byte		        53*seq_045_mvl/mxv
	.byte	W02
	.byte		        48*seq_045_mvl/mxv
	.byte	W14
	.byte		        8*seq_045_mvl/mxv
	.byte	W01
	.byte		N96   , As1 
	.byte	W03
	.byte		VOL   , 21*seq_045_mvl/mxv
	.byte	W02
	.byte		        34*seq_045_mvl/mxv
	.byte	W01
	.byte		        47*seq_045_mvl/mxv
	.byte	W02
	.byte		        72*seq_045_mvl/mxv
	.byte	W01
	.byte		        85*seq_045_mvl/mxv
	.byte	W02
	.byte		        111*seq_045_mvl/mxv
	.byte	W01
	.byte		        125*seq_045_mvl/mxv
	.byte	W32
	.byte	W02
	.byte		        113*seq_045_mvl/mxv
	.byte	W02
	.byte		        102*seq_045_mvl/mxv
	.byte	W02
	.byte		        91*seq_045_mvl/mxv
	.byte	W02
	.byte		        80*seq_045_mvl/mxv
	.byte	W02
	.byte		        68*seq_045_mvl/mxv
	.byte	W02
	.byte		        58*seq_045_mvl/mxv
	.byte	W02
	.byte		        47*seq_045_mvl/mxv
	.byte	W36
	.byte	W01
	.byte		        8*seq_045_mvl/mxv
	.byte	W01
	.byte		N96   , An1 
	.byte	W03
	.byte		VOL   , 21*seq_045_mvl/mxv
	.byte	W02
	.byte		        34*seq_045_mvl/mxv
	.byte	W01
	.byte		        47*seq_045_mvl/mxv
	.byte	W02
	.byte		        72*seq_045_mvl/mxv
	.byte	W01
	.byte		        85*seq_045_mvl/mxv
	.byte	W02
	.byte		        111*seq_045_mvl/mxv
	.byte	W01
	.byte		        125*seq_045_mvl/mxv
	.byte	W32
	.byte	W02
	.byte		        113*seq_045_mvl/mxv
	.byte	W02
	.byte		        102*seq_045_mvl/mxv
	.byte	W02
	.byte		        91*seq_045_mvl/mxv
	.byte	W02
	.byte		        80*seq_045_mvl/mxv
	.byte	W02
	.byte		        68*seq_045_mvl/mxv
	.byte	W02
	.byte		        58*seq_045_mvl/mxv
	.byte	W02
	.byte		        47*seq_045_mvl/mxv
	.byte	W36
	.byte	W01
	.byte		VOICE , 93
	.byte		VOL   , 125*seq_045_mvl/mxv
	.byte	W01
	.byte		N96   , As1 , v127
	.byte	W96
	.byte		        An1 
	.byte	W96
	.byte		        Cn2 
	.byte	W96
	.byte		N48
	.byte	W48
	.byte		N12
	.byte	W12
	.byte	FINE

@*********************** Track 10 ***********************@

seq_045_9:
	.byte	KEYSH , seq_045_key+0
	.byte	W16
	.byte		MOD   , 80
	.byte		VOL   , 59*seq_045_mvl/mxv
	.byte		MODT  , mod_pan
	.byte	W01
	.byte		VOICE , 2
	.byte		PAN   , c_v+0
	.byte	W07
	.byte		N05   , Fn2 , v127
	.byte	W06
	.byte		        Fn2 , v076
	.byte	W06
	.byte		        Fn2 , v056
	.byte	W06
	.byte		        Fn2 , v040
	.byte	W66
	.byte		        Cn2 , v127
	.byte	W06
	.byte		        Cn2 , v056
	.byte	W06
	.byte	PEND
	.byte	PATT
	 .word	seq_045_9 + 0xF
	.byte		N05   , En2 , v127
	.byte	W06
	.byte		        En2 , v076
	.byte	W06
	.byte		        En2 , v056
	.byte	W06
	.byte		        En2 , v040
	.byte	W66
	.byte		        Cn2 , v127
	.byte	W06
	.byte		        Cn2 , v056
	.byte	W06
	.byte	PEND
	.byte	PATT
	 .word	seq_045_9 + 0x28
	.byte	PATT
	 .word	seq_045_9 + 0xF
	.byte	PATT
	 .word	seq_045_9 + 0xF
	.byte		N05   , En2 , v127
	.byte	W06
	.byte		        En2 , v076
	.byte	W06
	.byte		        En2 , v056
	.byte	W06
	.byte		        En2 , v040
	.byte	W78
	.byte	W96
	.byte	W96
	.byte	W96
	.byte	W96
	.byte	W96
	.byte	W96
	.byte	W96
	.byte	W96
	.byte	W92
	.byte	W03
	.byte		VOICE , 127
	.byte		MOD   , 0
	.byte		VOL   , 68*seq_045_mvl/mxv
	.byte	W01
	.byte		N13   , Ds2 , v100
	.byte	W24
	.byte		N24   , En2 , v080
	.byte	W24
	.byte		N13   , Ds2 , v100
	.byte	W24
	.byte		N13
	.byte	W24
	.byte	PEND
	.byte	PATT
	 .word	seq_045_9 + 0x69
	.byte	PATT
	 .word	seq_045_9 + 0x69
	.byte		N13   , Ds2 , v100
	.byte	W24
	.byte		N13
	.byte	W24
	.byte		N13
	.byte	W13
	.byte	FINE

@*********************** Track 11 ***********************@

seq_045_10:
	.byte	KEYSH , seq_045_key+0
	.byte	W17
	.byte		VOICE , 127
	.byte	W01
	.byte		VOL   , 125*seq_045_mvl/mxv
	.byte		PAN   , c_v+0
	.byte	W06
	.byte	W96
	.byte	W96
	.byte	W96
	.byte	W96
	.byte	W96
	.byte	W96
	.byte	W92
	.byte	W03
	.byte		VOICE , 46
	.byte		VOL   , 125*seq_045_mvl/mxv
	.byte		PAN   , c_v+0
	.byte	W01
	.byte	W96
	.byte		N12   , Fn2 , v120
	.byte	W96
	.byte		        En2 
	.byte	W96
	.byte		        Dn2 
	.byte	W96
	.byte		        Cn2 
	.byte	W96
	.byte		        Fn2 
	.byte	W96
	.byte		        En2 
	.byte	W96
	.byte		        As2 
	.byte	W12
	.byte		N06   , Cn4 
	.byte	W24
	.byte		N06
	.byte	W60
	.byte		N12   , An2 
	.byte	W10
	.byte		N06   , Cn4 
	.byte	W24
	.byte		N06
	.byte	W60
	.byte	W01
	.byte		VOICE , 127
	.byte		VOL   , 125*seq_045_mvl/mxv
	.byte		PAN   , c_v+0
	.byte	W01
	.byte	W24
	.byte		N08   , An4 , v080
	.byte	W16
	.byte		N02   , An1 , v100
	.byte	W02
	.byte		        An1 , v008
	.byte	W02
	.byte		        An1 , v028
	.byte	W04
	.byte		N12   , Fs3 , v127
	.byte	W24
	.byte		N04   , Gn1 
	.byte	W24
	.byte	PEND
	.byte	PATT
	 .word	seq_045_10 + 0x40
	.byte		N08   , Gn1 , v127
	.byte	W24
	.byte		        An4 , v080
	.byte	W16
	.byte		        Gs4 
	.byte	W08
	.byte		        Gn1 , v127
	.byte	W24
	.byte		        An4 , v080
	.byte	W24
	.byte		        Gn1 , v120
	.byte	W24
	.byte		N08
	.byte	W24
	.byte		N08
	.byte	W08
	.byte	FINE

@******************************************************@

	.align	2

seq_045:
	.byte	11	@ NumTrks
	.byte	0	@ NumBlks
	.byte	seq_045_pri	@ Priority
	.byte	seq_045_rev	@ Reverb

	.word	seq_045_grp

	.word	seq_045_0
	.word	seq_045_1
	.word	seq_045_2
	.word	seq_045_3
	.word	seq_045_4
	.word	seq_045_5
	.word	seq_045_6
	.word	seq_045_7
	.word	seq_045_8
	.word	seq_045_9
	.word	seq_045_10

	.end
