@ File generated by m4a2s Song-Module
	.include "MPlayDef.s"

	.equ	seq_822_grp, bank_026
	.equ	seq_822_pri, 127
	.equ	seq_822_rev, 0
	.equ	seq_822_mvl, 127
	.equ	seq_822_key, 0

	.section .rodata
	.global	seq_822
	.align	2

@*********************** Track 01 ***********************@

seq_822_0:
	.byte	KEYSH , seq_822_key+0
	.byte	TEMPO , 150/2
	.byte		VOICE , 34
	.byte		VOL   , 110*seq_822_mvl/mxv
	.byte		PAN   , c_v+0
	.byte	W01
	.byte		MOD   , 80
	.byte		LFOS  , 60
	.byte		MODT  , mod_tre
	.byte	W01
	.byte		N07   , Gn3 , v120
	.byte	W04
	.byte		N06   , Ds4 , v060
	.byte	W02
	.byte		N08   , Cn5 , v120
	.byte	W04
	.byte		N06   , Gs4 , v060
	.byte	W02
	.byte		N08   , As3 , v120
	.byte	W04
	.byte		N06   , Fn3 , v060
	.byte	W02
	.byte		N08   , Fn5 , v120
	.byte	W04
	.byte		N06   , Fs4 , v060
	.byte	W02
	.byte		N07   , Cn3 , v120
	.byte	W04
	.byte		N06   , Bn4 , v060
	.byte	W02
	.byte		N08   , Gn3 , v120
	.byte	W04
	.byte		N06   , Ds4 , v060
	.byte	W02
	.byte		N08   , Gn5 , v120
	.byte	W04
	.byte		N06   , Fs4 , v060
	.byte	W02
	.byte		N08   , Ds5 , v120
	.byte	W04
	.byte		N06   , As3 , v060
	.byte	W06
	.byte	FINE

@******************************************************@

	.align	2

seq_822:
	.byte	1	@ NumTrks
	.byte	0	@ NumBlks
	.byte	seq_822_pri	@ Priority
	.byte	seq_822_rev	@ Reverb

	.word	seq_822_grp

	.word	seq_822_0

	.end
