@ File generated by m4a2s Song-Module
	.include "MPlayDef.s"

	.equ	seq_611_grp, bank_026
	.equ	seq_611_pri, 127
	.equ	seq_611_rev, 0
	.equ	seq_611_mvl, 127
	.equ	seq_611_key, 0

	.section .rodata
	.global	seq_611
	.align	2

@*********************** Track 01 ***********************@

seq_611_0:
	.byte	KEYSH , seq_611_key+0
	.byte	TEMPO , 150/2
	.byte		VOICE , 6
	.byte		VOL   , 127*seq_611_mvl/mxv
	.byte		PAN   , c_v+0
	.byte	W01
	.byte		MOD   , 80
	.byte		LFOS  , 60
	.byte		MODT  , mod_tre
	.byte	W01
	.byte		N04   , En1 , v120
	.byte	W04
	.byte		N02   , Bn2 , v060
	.byte	W02
	.byte		N04   , As3 , v120
	.byte	W04
	.byte		N02   , Fs3 , v060
	.byte	W02
	.byte		N04   , Fs2 , v120
	.byte	W04
	.byte		N02   , Cs2 , v060
	.byte	W02
	.byte		N04   , Ds4 , v120
	.byte	W04
	.byte		N02   , Dn3 , v060
	.byte	W02
	.byte		N04   , Gs1 , v120
	.byte	W04
	.byte		N02   , An3 , v060
	.byte	W02
	.byte		N04   , Ds2 , v120
	.byte	W04
	.byte		N02   , Bn2 , v060
	.byte	W02
	.byte		N04   , Fn4 , v120
	.byte	W04
	.byte		N02   , Dn3 , v060
	.byte	W02
	.byte		N04   , Cs4 , v120
	.byte	W04
	.byte		N02   , Fs2 , v060
	.byte	W01
	.byte		VOICE , 4
	.byte	W01
	.byte		N12   , Cn3 , v120
	.byte	W12
	.byte		        Fn3 , v060
	.byte	W12
	.byte		        Bn3 , v020
	.byte	W12
	.byte	FINE

@******************************************************@

	.align	2

seq_611:
	.byte	1	@ NumTrks
	.byte	0	@ NumBlks
	.byte	seq_611_pri	@ Priority
	.byte	seq_611_rev	@ Reverb

	.word	seq_611_grp

	.word	seq_611_0

	.end
