@ File generated by m4a2s Song-Module
	.include "MPlayDef.s"

	.equ	seq_102_grp, bank_014
	.equ	seq_102_pri, 50
	.equ	seq_102_rev, 188
	.equ	seq_102_mvl, 127
	.equ	seq_102_key, 0

	.section .rodata
	.global	seq_102
	.align	2

@*********************** Track 01 ***********************@

seq_102_0:
	.byte	KEYSH , seq_102_key+0
	.byte	TEMPO , 240/2
	.byte		VOICE , 127
	.byte	W01
	.byte		VOL   , 75*seq_102_mvl/mxv
	.byte	W01
	.byte		PAN   , c_v+0
	.byte	W16
	.byte	TEMPO , 94/2
	.byte	W06
	.byte	W06
	.byte	W72
	.byte	TEMPO , 120/2
	.byte	W06
	.byte		N03   , Cn4 , v100
	.byte	W06
	.byte		N03   , Cn4 , v120
	.byte	W12
	.byte		        Dn6 , v100
	.byte	W06
	.byte		        Cn4 , v120
	.byte	W12
	.byte		        Dn6 , v100
	.byte	W06
	.byte		        Ds4 , v080
	.byte	W06
	.byte		        Dn6 , v100
	.byte	W06
	.byte		        Ds6 , v080
	.byte	W06
	.byte		        Dn6 , v100
	.byte	W06
	.byte		        Fs5 , v080
	.byte	W06
	.byte		        Dn6 , v100
	.byte	W06
	.byte		        Cn4 , v120
	.byte	W18
	.byte		N03
	.byte	W06
	.byte		N04   , Gn6 , v040
	.byte	W12
	.byte		N03   , Ds4 , v080
	.byte	W06
	.byte		        Dn6 , v100
	.byte	W12
	.byte		N03
	.byte	W06
	.byte		        Fs5 , v080
	.byte	W06
	.byte		        Dn6 , v100
	.byte	W06
	.byte		        Cn4 , v120
	.byte	W06
	.byte		        Dn6 , v100
	.byte	W06
	.byte		        Ds4 , v080
	.byte	W06
	.byte		        Dn6 , v100
	.byte	W06
	.byte	PEND
	.byte	PATT
	 .word	seq_102_0 + 0x19
	.byte	PATT
	 .word	seq_102_0 + 0x19
	.byte	PATT
	 .word	seq_102_0 + 0x19
	.byte	PATT
	 .word	seq_102_0 + 0x19
	.byte	PATT
	 .word	seq_102_0 + 0x19
	.byte	PATT
	 .word	seq_102_0 + 0x19
	.byte		N03   , Cn4 , v120
	.byte	W12
	.byte		        Dn6 , v100
	.byte	W06
	.byte		        Cn4 , v120
	.byte	W12
	.byte		        Dn6 , v100
	.byte	W06
	.byte		        Ds4 , v080
	.byte	W06
	.byte		        Dn6 , v100
	.byte	W06
	.byte		        Ds6 , v080
	.byte	W06
	.byte		        Dn6 , v100
	.byte	W06
	.byte		        Fs5 , v080
	.byte	W06
	.byte		        Dn6 , v100
	.byte	W06
	.byte		        Cn4 , v120
	.byte	W18
	.byte		N03
	.byte	W06
	.byte		N04   , Gn6 , v040
	.byte	W12
	.byte		N03   , Ds4 , v080
	.byte	W06
	.byte		        Dn6 , v100
	.byte	W12
	.byte		N03
	.byte	W06
	.byte		        Dn4 , v120
	.byte	W06
	.byte		N02   , Fs6 , v080
	.byte	W02
	.byte		N04   , Fs6 , v120
	.byte	W04
	.byte		N03   , Cn4 
	.byte		N06   , Fs6 
	.byte	W06
	.byte		N03   , Dn6 , v100
	.byte	W06
	.byte		        Ds4 , v080
	.byte	W06
	.byte		        Dn6 , v100
	.byte	W06
	.byte	PATT
	 .word	seq_102_0 + 0x19
	.byte	PATT
	 .word	seq_102_0 + 0x19
	.byte	PATT
	 .word	seq_102_0 + 0x19
	.byte		N03   , Cn4 , v120
	.byte	W12
	.byte		        Dn6 , v100
	.byte	W06
	.byte		        Cn4 , v120
	.byte	W12
	.byte		        Dn6 , v100
	.byte	W06
	.byte		        Ds4 , v080
	.byte	W06
	.byte		        Dn6 , v100
	.byte	W06
	.byte		        Ds6 , v080
	.byte	W06
	.byte		        Dn6 , v100
	.byte	W06
	.byte		        Fs5 , v080
	.byte	W06
	.byte		        Dn6 , v100
	.byte	W06
	.byte		        Cn4 , v120
	.byte	W18
	.byte		N03
	.byte	W06
	.byte		N04   , Gn6 , v040
	.byte	W12
	.byte		N03   , Ds4 , v080
	.byte	W06
	.byte		        Dn6 , v100
	.byte	W12
	.byte		N03
	.byte	W06
	.byte		        Cn4 , v120
	.byte	W06
	.byte		        Dn6 , v100
	.byte	W12
	.byte		N03
	.byte	W06
	.byte		        Dn4 , v120
	.byte	W06
	.byte		        Dn6 , v100
	.byte	W06
	.byte		        Cn4 , v120
	.byte	W18
	.byte		        Dn6 , v100
	.byte	W06
	.byte		        Cn4 , v120
	.byte	W06
	.byte		        Dn6 , v100
	.byte	W06
	.byte		        Dn4 , v120
	.byte	W06
	.byte		        Dn6 , v100
	.byte	W06
	.byte		        Ds6 , v080
	.byte	W06
	.byte		        Dn6 , v100
	.byte	W06
	.byte		        Cn4 , v120
	.byte	W06
	.byte		        Dn6 , v100
	.byte	W06
	.byte		        Ds4 , v060
	.byte	W06
	.byte		        Ds6 , v080
	.byte	W06
	.byte		        Dn4 , v120
	.byte	W06
	.byte		        Dn6 , v100
	.byte	W06
	.byte		        Cn4 , v120
	.byte	W18
	.byte		        Dn6 , v100
	.byte	W06
	.byte		        Cn4 , v120
	.byte	W06
	.byte		        Dn6 , v100
	.byte	W06
	.byte		        Dn4 , v120
	.byte	W06
	.byte		        Dn6 , v100
	.byte	W12
	.byte		N03
	.byte	W06
	.byte		        Cn4 , v120
	.byte	W06
	.byte		        Dn6 , v100
	.byte	W18
	.byte		        Cn4 , v120
	.byte	W06
	.byte		        Dn6 , v100
	.byte	W06
	.byte		        Cn4 , v120
	.byte	W06
	.byte		        Dn6 , v100
	.byte	W06
	.byte		        Fs5 , v080
	.byte	W06
	.byte		        Dn6 , v100
	.byte	W06
	.byte		        Ds6 , v080
	.byte	W06
	.byte		        Dn6 , v100
	.byte	W06
	.byte		        Cn4 , v120
	.byte	W06
	.byte		        Dn6 , v100
	.byte	W06
	.byte		        Cn4 , v120
	.byte	W18
	.byte		N03
	.byte	W06
	.byte		N04   , Gn6 , v040
	.byte	W12
	.byte		N03   , Dn4 , v120
	.byte	W06
	.byte		        Dn6 , v100
	.byte	W12
	.byte		N03
	.byte	W06
	.byte		        Cn4 , v120
	.byte	W06
	.byte		        Dn6 , v100
	.byte	W06
	.byte		        Cn4 , v120
	.byte	W06
	.byte		        Dn6 , v100
	.byte	W06
	.byte		        Ds4 , v080
	.byte	W06
	.byte		N02   , Gn6 , v040
	.byte	W03
	.byte		N03
	.byte	W03
	.byte		        Cn4 , v120
	.byte		N03   , Gn6 , v040
	.byte	W06
	.byte		        Dn6 , v100
	.byte	W06
	.byte		        Dn4 , v120
	.byte	W06
	.byte		        Dn6 , v100
	.byte	W06
	.byte	GOTO
	 .word	seq_102_0 + 0x19
	.byte	FINE

@*********************** Track 02 ***********************@

seq_102_1:
	.byte	KEYSH , seq_102_key+0
	.byte		VOICE , 123
	.byte	W01
	.byte		VOL   , 62*seq_102_mvl/mxv
	.byte	W01
	.byte		PAN   , c_v+0
	.byte	W22
	.byte	W06
	.byte	W78
	.byte		N03   , En3 , v120
	.byte	W06
	.byte	W96
	.byte	W72
	.byte	W96
	.byte	W72
	.byte	W96
	.byte	W72
	.byte	W96
	.byte	W72
	.byte	W96
	.byte	W72
	.byte	W96
	.byte	W72
	.byte	W96
	.byte	W72
	.byte	W96
	.byte	W72
	.byte		N03   , En3 , v120
	.byte	W96
	.byte	W72
	.byte	W96
	.byte	W72
	.byte	W96
	.byte	W72
	.byte	W96
	.byte	W72
	.byte		N03
	.byte	W96
	.byte	W96
	.byte	W96
	.byte	W60
	.byte		N03
	.byte	W12
	.byte	GOTO
	 .word	seq_102_1 + 0x11
	.byte	FINE

@*********************** Track 03 ***********************@

seq_102_2:
	.byte	KEYSH , seq_102_key+0
	.byte		VOICE , 6
	.byte	W01
	.byte		VOL   , 44*seq_102_mvl/mxv
	.byte	W01
	.byte		PAN   , c_v-24
	.byte	W22
	.byte	W06
	.byte	W84
	.byte		N02   , Fs4 , v120
	.byte	W02
	.byte		        Cn5 
	.byte	W02
	.byte		        Fs4 , v060
	.byte	W02
	.byte		        Cn5 
	.byte	W02
	.byte		        Fs4 , v040
	.byte	W02
	.byte		        Cn5 
	.byte	W24
	.byte	W02
	.byte		        Cn4 , v120
	.byte	W02
	.byte		        Fs4 
	.byte	W02
	.byte		        Cn4 , v060
	.byte	W02
	.byte		        Fs4 
	.byte	W02
	.byte		        Cn4 , v040
	.byte	W02
	.byte		        Fs4 
	.byte	W14
	.byte		        En4 , v120
	.byte	W02
	.byte		        As4 
	.byte	W02
	.byte		        En4 , v060
	.byte	W02
	.byte		        As4 
	.byte	W02
	.byte		        En4 , v040
	.byte	W02
	.byte		        As4 
	.byte	W02
	.byte		        As3 , v120
	.byte	W02
	.byte		        En4 
	.byte	W02
	.byte		        As3 , v060
	.byte	W02
	.byte		        En4 
	.byte	W02
	.byte		        As3 , v040
	.byte	W02
	.byte		        En4 
	.byte	W84
	.byte	W02
	.byte	PEND
	.byte	W24
	.byte		N02   , Fs3 , v120
	.byte	W02
	.byte		        Cn4 
	.byte	W02
	.byte		        Fs3 , v060
	.byte	W02
	.byte		        Cn4 
	.byte	W02
	.byte		        Fs3 , v040
	.byte	W02
	.byte		        Cn4 
	.byte	W02
	.byte		        Fs4 , v120
	.byte	W02
	.byte		        Cn5 
	.byte	W02
	.byte		        Fs4 , v060
	.byte	W02
	.byte		        Cn5 
	.byte	W02
	.byte		        Fs4 , v040
	.byte	W02
	.byte		        Cn5 
	.byte	W14
	.byte		        En4 , v120
	.byte	W02
	.byte		        As4 
	.byte	W02
	.byte		        En4 , v060
	.byte	W02
	.byte		        As4 
	.byte	W02
	.byte		        En4 , v040
	.byte	W02
	.byte		        As4 
	.byte	W96
	.byte	W02
	.byte	PEND
	.byte	PATT
	 .word	seq_102_2 + 0xD
	.byte	PATT
	 .word	seq_102_2 + 0x4D
	.byte		N02   , Gn4 , v120
	.byte	W02
	.byte		        Cs5 
	.byte	W02
	.byte		        Gn4 , v060
	.byte	W02
	.byte		        Cs5 
	.byte	W02
	.byte		        Gn4 , v040
	.byte	W02
	.byte		        Cs5 
	.byte	W24
	.byte	W02
	.byte		        Cs4 , v120
	.byte	W02
	.byte		        Gn4 
	.byte	W02
	.byte		        Cs4 , v060
	.byte	W02
	.byte		        Gn4 
	.byte	W02
	.byte		        Cs4 , v040
	.byte	W02
	.byte		        Gn4 
	.byte	W14
	.byte		        Fn4 , v120
	.byte	W02
	.byte		        Bn4 
	.byte	W02
	.byte		        Fn4 , v060
	.byte	W02
	.byte		        Bn4 
	.byte	W02
	.byte		        Fn4 , v040
	.byte	W02
	.byte		        Bn4 
	.byte	W02
	.byte		        Bn3 , v120
	.byte	W02
	.byte		        Fn4 
	.byte	W02
	.byte		        Bn3 , v060
	.byte	W02
	.byte		        Fn4 
	.byte	W02
	.byte		        Bn3 , v040
	.byte	W02
	.byte		        Fn4 
	.byte	W84
	.byte	W02
	.byte	W24
	.byte		        Gn3 , v120
	.byte	W02
	.byte		        Cs4 
	.byte	W02
	.byte		        Gn3 , v060
	.byte	W02
	.byte		        Cs4 
	.byte	W02
	.byte		        Gn3 , v040
	.byte	W02
	.byte		        Cs4 
	.byte	W02
	.byte		        Gn4 , v120
	.byte	W02
	.byte		        Cs5 
	.byte	W02
	.byte		        Gn4 , v060
	.byte	W02
	.byte		        Cs5 
	.byte	W02
	.byte		        Gn4 , v040
	.byte	W02
	.byte		        Cs5 
	.byte	W14
	.byte		        Fn4 , v120
	.byte	W02
	.byte		        Bn4 
	.byte	W02
	.byte		        Fn4 , v060
	.byte	W02
	.byte		        Bn4 
	.byte	W02
	.byte		        Fn4 , v040
	.byte	W02
	.byte		        Bn4 
	.byte	W96
	.byte	W02
	.byte	PATT
	 .word	seq_102_2 + 0xD
	.byte	PATT
	 .word	seq_102_2 + 0x4D
	.byte	W96
	.byte	W72
	.byte	W12
	.byte		N02   , Gs3 , v120
	.byte	W02
	.byte		        Dn4 
	.byte	W02
	.byte		        Gs3 , v060
	.byte	W02
	.byte		        Dn4 
	.byte	W02
	.byte		        Gs3 , v040
	.byte	W02
	.byte		        Dn4 
	.byte	W02
	.byte		        Gs4 , v120
	.byte	W02
	.byte		        Dn5 
	.byte	W02
	.byte		        Gs4 , v060
	.byte	W02
	.byte		        Dn5 
	.byte	W02
	.byte		        Gs4 , v040
	.byte	W02
	.byte		        Dn5 
	.byte	W14
	.byte		        Gs3 , v080
	.byte	W02
	.byte		        Dn4 
	.byte	W02
	.byte		        Gs3 , v060
	.byte	W02
	.byte		        Dn4 
	.byte	W02
	.byte		        Gs3 , v040
	.byte	W02
	.byte		        Dn4 
	.byte	W02
	.byte		        Gs4 , v080
	.byte	W02
	.byte		        Dn5 
	.byte	W02
	.byte		        Gs4 , v060
	.byte	W02
	.byte		        Dn5 
	.byte	W02
	.byte		        Gs4 , v040
	.byte	W02
	.byte		        Dn5 
	.byte	W14
	.byte		        Gn3 , v060
	.byte	W02
	.byte		        Cs4 
	.byte	W02
	.byte		        Gn3 , v040
	.byte	W02
	.byte		        Cs4 
	.byte	W02
	.byte		        Gn3 
	.byte	W02
	.byte		        Cs4 
	.byte	W02
	.byte		        Gn4 , v060
	.byte	W02
	.byte		        Cs5 
	.byte	W02
	.byte		        Gn4 , v040
	.byte	W02
	.byte		        Cs5 
	.byte	W02
	.byte		        Gn4 
	.byte	W02
	.byte		        Cs5 
	.byte	W60
	.byte	W02
	.byte	W96
	.byte	W72
	.byte	W12
	.byte		        Fs3 , v120
	.byte	W02
	.byte		        Cn4 
	.byte	W02
	.byte		        Fs3 , v060
	.byte	W02
	.byte		        Cn4 
	.byte	W02
	.byte		        Fs3 , v040
	.byte	W02
	.byte		        Cn4 
	.byte	W02
	.byte		        Fs4 , v120
	.byte	W02
	.byte		        Cn5 
	.byte	W02
	.byte		        Fs4 , v060
	.byte	W02
	.byte		        Cn5 
	.byte	W02
	.byte		        Fs4 , v040
	.byte	W02
	.byte		        Cn5 
	.byte	W14
	.byte		        Fs3 , v080
	.byte	W02
	.byte		        Cn4 
	.byte	W02
	.byte		        Fs3 , v060
	.byte	W02
	.byte		        Cn4 
	.byte	W02
	.byte		        Fs3 , v040
	.byte	W02
	.byte		        Cn4 
	.byte	W02
	.byte		        Fs4 , v080
	.byte	W02
	.byte		        Cn5 
	.byte	W02
	.byte		        Fs4 , v060
	.byte	W02
	.byte		        Cn5 
	.byte	W02
	.byte		        Fs4 , v040
	.byte	W02
	.byte		        Cn5 
	.byte	W14
	.byte		        Fn3 , v060
	.byte	W02
	.byte		        Bn3 
	.byte	W02
	.byte		        Fn3 , v040
	.byte	W02
	.byte		        Bn3 
	.byte	W02
	.byte		        Fn3 
	.byte	W02
	.byte		        Bn3 
	.byte	W02
	.byte		        Fn4 , v060
	.byte	W02
	.byte		        Bn4 
	.byte	W02
	.byte		        Fn4 , v040
	.byte	W02
	.byte		        Bn4 
	.byte	W02
	.byte		        Fn4 
	.byte	W02
	.byte		        Bn4 
	.byte	W60
	.byte	W02
	.byte	W96
	.byte	W96
	.byte	W96
	.byte	W72
	.byte	GOTO
	 .word	seq_102_2 + 0xD
	.byte	FINE

@*********************** Track 04 ***********************@

seq_102_3:
	.byte	KEYSH , seq_102_key+0
	.byte	W03
	.byte		VOICE , 4
	.byte	W01
	.byte		VOL   , 80*seq_102_mvl/mxv
	.byte	W01
	.byte		PAN   , c_v+0
	.byte	W19
	.byte	W06
	.byte	W84
	.byte		N04   , Cn0 , v120
	.byte	W18
	.byte		N05   , Cn1 
	.byte	W18
	.byte		        Cn0 
	.byte	W05
	.byte		        Cn0 , v040
	.byte	W19
	.byte		N04   , Cn1 , v120
	.byte	W12
	.byte		N12   , As0 
	.byte	W12
	.byte		N04   , Cn1 
	.byte	W36
	.byte		N12
	.byte	W24
	.byte		        As0 
	.byte	W12
	.byte		N04   , Cn1 
	.byte	W12
	.byte	PEND
	.byte	PATT
	 .word	seq_102_3 + 0xE
	.byte	PATT
	 .word	seq_102_3 + 0xE
	.byte	PATT
	 .word	seq_102_3 + 0xE
	.byte		N04   , Cs0 , v120
	.byte	W12
	.byte		N03   , Bn2 
	.byte		N03   , Fn3 
	.byte	W06
	.byte		N05   , Cs1 
	.byte	W06
	.byte		N08   , Cs3 , v100
	.byte		N08   , Gn3 
	.byte	W08
	.byte		N04   , Cs3 , v060
	.byte		N04   , Gn3 
	.byte	W04
	.byte		N05   , Cs0 , v120
	.byte	W05
	.byte		        Cs0 , v040
	.byte	W07
	.byte		N06   , Gn2 , v100
	.byte		N06   , Cs3 
	.byte	W06
	.byte		        Gn2 , v060
	.byte		N06   , Cs3 
	.byte	W06
	.byte		N04   , Cs1 , v120
	.byte	W12
	.byte		N12   , Bn0 
	.byte	W12
	.byte		N04   , Cs1 
	.byte	W06
	.byte		N03   , Bn2 
	.byte		N03   , Fn3 
	.byte	W03
	.byte		        Bn2 , v060
	.byte		N03   , Fn3 
	.byte	W03
	.byte		        As2 , v120
	.byte		N03   , En3 
	.byte	W03
	.byte		        As2 , v060
	.byte		N03   , En3 
	.byte	W03
	.byte		        Bn2 , v120
	.byte		N03   , Fn3 
	.byte	W03
	.byte		        Bn2 , v060
	.byte		N03   , Fn3 
	.byte	W03
	.byte		        Bn2 , v040
	.byte		N03   , Fn3 
	.byte	W06
	.byte		        Bn2 , v100
	.byte		N03   , Fn3 
	.byte	W03
	.byte		        Bn2 , v060
	.byte		N03   , Fn3 
	.byte	W03
	.byte		N12   , Cs1 , v120
	.byte	W24
	.byte		        Bn0 
	.byte	W12
	.byte		N04   , Cs1 
	.byte	W12
	.byte		        Cs0 
	.byte	W18
	.byte		N05   , Cs1 
	.byte	W18
	.byte		        Cs0 
	.byte	W05
	.byte		        Cs0 , v040
	.byte	W19
	.byte		N04   , Cs1 , v120
	.byte	W12
	.byte		N12   , Bn0 
	.byte	W12
	.byte		N04   , Cs1 
	.byte	W24
	.byte		        Cs0 
	.byte	W04
	.byte		N05   , Cs0 , v040
	.byte	W08
	.byte		N12   , Cs1 , v120
	.byte	W12
	.byte		N04   , Cs0 
	.byte	W12
	.byte		N12   , Bn0 
	.byte	W12
	.byte		N04   , Cs1 
	.byte	W12
	.byte		        Cn0 
	.byte	W12
	.byte		N03   , As2 
	.byte		N03   , En3 
	.byte	W06
	.byte		N05   , Cn1 
	.byte	W06
	.byte		N08   , Cn3 , v100
	.byte		N08   , Fs3 
	.byte	W08
	.byte		N04   , Cn3 , v060
	.byte		N04   , Fs3 
	.byte	W04
	.byte		N05   , Cn0 , v120
	.byte	W05
	.byte		        Cn0 , v040
	.byte	W07
	.byte		N06   , Fs2 , v100
	.byte		N06   , Cn3 
	.byte	W06
	.byte		        Fs2 , v060
	.byte		N06   , Cn3 
	.byte	W06
	.byte		N04   , Cn1 , v120
	.byte	W12
	.byte		N12   , As0 
	.byte	W12
	.byte		N04   , Cn1 
	.byte	W06
	.byte		N03   , As2 
	.byte		N03   , En3 
	.byte	W03
	.byte		        As2 , v060
	.byte		N03   , En3 
	.byte	W03
	.byte		        An2 , v120
	.byte		N03   , Ds3 
	.byte	W03
	.byte		        An2 , v060
	.byte		N03   , Ds3 
	.byte	W03
	.byte		        As2 , v120
	.byte		N03   , En3 
	.byte	W03
	.byte		        As2 , v060
	.byte		N03   , En3 
	.byte	W03
	.byte		        As2 , v040
	.byte		N03   , En3 
	.byte	W06
	.byte		N02   , As2 , v120
	.byte		N02   , En3 
	.byte	W03
	.byte		N03   , As2 , v060
	.byte		N03   , En3 
	.byte	W03
	.byte		N12   , Cn1 , v120
	.byte	W24
	.byte		        As0 
	.byte	W12
	.byte		N04   , Cn1 
	.byte	W12
	.byte		        Cn0 
	.byte	W18
	.byte		N05   , Cn1 
	.byte	W18
	.byte		        Cn0 
	.byte	W05
	.byte		        Cn0 , v040
	.byte	W19
	.byte		N04   , Cn1 , v120
	.byte	W12
	.byte		N12   , As0 
	.byte	W12
	.byte		N04   , Cn1 
	.byte	W36
	.byte		N12
	.byte	W36
	.byte		N04
	.byte	W12
	.byte		N04   , As0 , v120
	.byte	W18
	.byte		N05   , As1 
	.byte	W18
	.byte		        As0 
	.byte	W05
	.byte		        As0 , v040
	.byte	W19
	.byte		N04   , As1 , v120
	.byte	W12
	.byte		N12
	.byte	W12
	.byte		N04   , An1 
	.byte	W48
	.byte		        Cs4 
	.byte		N04   , Gn4 
	.byte	W04
	.byte		N08   , Cs4 , v040
	.byte		N08   , Gn4 
	.byte	W08
	.byte		N04   , Gn3 , v120
	.byte		N04   , Cs4 
	.byte	W04
	.byte		N08   , Gn3 , v040
	.byte		N08   , Cs4 
	.byte	W08
	.byte		N04   , Cs3 , v120
	.byte		N04   , Gn3 
	.byte	W04
	.byte		N08   , Cs3 , v040
	.byte		N08   , Gn3 
	.byte	W08
	.byte	PEND
	.byte	PATT
	 .word	seq_102_3 + 0x14E
	.byte		N04   , Gs0 , v120
	.byte	W18
	.byte		N05   , Gs1 
	.byte	W18
	.byte		        Gs0 
	.byte	W05
	.byte		        Gs0 , v040
	.byte	W19
	.byte		N04   , Gs1 , v120
	.byte	W12
	.byte		N12
	.byte	W12
	.byte		N04   , Gn1 
	.byte	W48
	.byte		        Bn3 
	.byte		N04   , Fn4 
	.byte	W04
	.byte		N08   , Bn3 , v040
	.byte		N08   , Fn4 
	.byte	W08
	.byte		N04   , Fn3 , v120
	.byte		N04   , Bn3 
	.byte	W04
	.byte		N08   , Fn3 , v040
	.byte		N08   , Bn3 
	.byte	W08
	.byte		N04   , Bn2 , v120
	.byte		N04   , Fn3 
	.byte	W04
	.byte		N08   , Bn2 , v040
	.byte		N08   , Fn3 
	.byte	W08
	.byte	PEND
	.byte	PATT
	 .word	seq_102_3 + 0x18B
	.byte	W24
	.byte		N12   , Dn2 , v120
	.byte		N12   , Gs2 
	.byte	W12
	.byte		N10   , En2 
	.byte		N10   , As2 
	.byte	W10
	.byte		        En2 , v060
	.byte		N10   , As2 
	.byte	W14
	.byte		        Fs2 , v120
	.byte		N10   , Cn3 
	.byte	W10
	.byte		        Fs2 , v060
	.byte		N10   , Cn3 
	.byte	W14
	.byte		N12   , Gs2 , v120
	.byte		N12   , Dn3 
	.byte	W12
	.byte		N10   , An2 
	.byte		N10   , Ds3 
	.byte	W10
	.byte		        An2 , v060
	.byte		N10   , Ds3 
	.byte	W14
	.byte		N12   , As2 , v120
	.byte		N12   , En3 
	.byte	W12
	.byte		N10   , Bn2 
	.byte		N10   , Fn3 
	.byte	W10
	.byte		        Bn2 , v060
	.byte		N10   , Fn3 
	.byte	W14
	.byte		        Cn3 , v120
	.byte		N10   , Fs3 
	.byte	W10
	.byte		        Cn3 , v060
	.byte		N10   , Fs3 
	.byte	W14
	.byte		N12   , Cs3 , v120
	.byte		N12   , Gn3 
	.byte	W12
	.byte		N68   , Dn3 
	.byte		N68   , Gs3 
	.byte	W68
	.byte	W03
	.byte		N24   , Dn3 , v040
	.byte		N24   , Gs3 
	.byte	W96
	.byte	W01
	.byte	GOTO
	 .word	seq_102_3 + 0xE
	.byte	FINE

@*********************** Track 05 ***********************@

seq_102_4:
	.byte	KEYSH , seq_102_key+0
	.byte	W03
	.byte		VOICE , 7
	.byte	W01
	.byte		VOL   , 56*seq_102_mvl/mxv
	.byte	W01
	.byte		PAN   , c_v+21
	.byte	W19
	.byte	W06
	.byte	W84
	.byte	W96
	.byte	W24
	.byte		N05   , Gs2 , v120
	.byte	W05
	.byte		N03   , Gs2 , v060
	.byte	W07
	.byte		N05   , As2 , v120
	.byte	W05
	.byte		N03   , As2 , v060
	.byte	W07
	.byte		N05   , Cn3 , v120
	.byte	W05
	.byte		N03   , Cn3 , v060
	.byte	W07
	.byte		N05   , Gs2 , v120
	.byte	W05
	.byte		N03   , Gs2 , v060
	.byte	W07
	.byte	PEND
	.byte	W96
	.byte	W12
	.byte		N05   , Gs2 , v120
	.byte	W05
	.byte		N03   , Gs2 , v060
	.byte	W07
	.byte		N05   , As2 , v120
	.byte	W05
	.byte		N03   , As2 , v060
	.byte	W07
	.byte		N05   , Cn3 , v120
	.byte	W05
	.byte		N03   , Cn3 , v060
	.byte	W07
	.byte		N05   , Dn3 , v120
	.byte	W05
	.byte		N03   , Dn3 , v060
	.byte	W19
	.byte	PEND
	.byte	PATT
	 .word	seq_102_4 + 0xE
	.byte	PATT
	 .word	seq_102_4 + 0x31
	.byte	W96
	.byte	W24
	.byte		N05   , An2 , v120
	.byte	W05
	.byte		N03   , An2 , v060
	.byte	W07
	.byte		N05   , Bn2 , v120
	.byte	W05
	.byte		N03   , Bn2 , v060
	.byte	W07
	.byte		N05   , Cs3 , v120
	.byte	W05
	.byte		N03   , Cs3 , v060
	.byte	W07
	.byte		N05   , An2 , v120
	.byte	W05
	.byte		N03   , An2 , v060
	.byte	W07
	.byte	W96
	.byte	W12
	.byte		N05   , An2 , v120
	.byte	W05
	.byte		N03   , An2 , v060
	.byte	W07
	.byte		N05   , Bn2 , v120
	.byte	W05
	.byte		N03   , Bn2 , v060
	.byte	W07
	.byte		N05   , Cs3 , v120
	.byte	W05
	.byte		N03   , Cs3 , v060
	.byte	W07
	.byte		N05   , Ds3 , v120
	.byte	W05
	.byte		N03   , Ds3 , v060
	.byte	W19
	.byte	PATT
	 .word	seq_102_4 + 0xE
	.byte	PATT
	 .word	seq_102_4 + 0x31
	.byte		N06   , Gs3 , v120
	.byte	W06
	.byte		        Gs3 , v060
	.byte	W06
	.byte		        Gs3 , v120
	.byte	W06
	.byte		        Gs3 , v060
	.byte	W06
	.byte		        Gs3 , v120
	.byte	W06
	.byte		        Gs3 , v060
	.byte	W06
	.byte		        Gs3 , v120
	.byte	W06
	.byte		        Gs3 , v060
	.byte	W06
	.byte		        Gs3 , v040
	.byte	W12
	.byte		N10   , Dn3 , v120
	.byte	W10
	.byte		N06   , Dn3 , v060
	.byte	W06
	.byte		N08   , Dn3 , v040
	.byte	W08
	.byte		N24   , Gn3 , v120
	.byte	W13
	.byte		BEND  , c_v-2
	.byte	W01
	.byte		        c_v-3
	.byte	W01
	.byte		        c_v-5
	.byte	W01
	.byte		        c_v-6
	.byte	W01
	.byte		        c_v-9
	.byte	W01
	.byte		        c_v-13
	.byte	W01
	.byte		        c_v-16
	.byte	W01
	.byte		        c_v-20
	.byte	W01
	.byte		        c_v-27
	.byte	W01
	.byte		        c_v-32
	.byte	W01
	.byte		        c_v+0
	.byte	W01
	.byte		N12   , Gn3 , v040
	.byte	W60
	.byte	PEND
	.byte	PATT
	 .word	seq_102_4 + 0xAC
	.byte		N06   , Fs3 , v120
	.byte	W06
	.byte		        Fs3 , v060
	.byte	W06
	.byte		        Fs3 , v120
	.byte	W06
	.byte		        Fs3 , v060
	.byte	W06
	.byte		        Fs3 , v120
	.byte	W06
	.byte		        Fs3 , v060
	.byte	W06
	.byte		        Fs3 , v120
	.byte	W06
	.byte		        Fs3 , v060
	.byte	W06
	.byte		        Fs3 , v040
	.byte	W12
	.byte		N10   , Cn3 , v120
	.byte	W10
	.byte		N06   , Cn3 , v060
	.byte	W06
	.byte		N08   , Cn3 , v040
	.byte	W08
	.byte		N24   , Fn3 , v120
	.byte	W13
	.byte		BEND  , c_v-2
	.byte	W01
	.byte		        c_v-3
	.byte	W01
	.byte		        c_v-5
	.byte	W01
	.byte		        c_v-6
	.byte	W01
	.byte		        c_v-9
	.byte	W01
	.byte		        c_v-13
	.byte	W01
	.byte		        c_v-16
	.byte	W01
	.byte		        c_v-20
	.byte	W01
	.byte		        c_v-27
	.byte	W01
	.byte		        c_v-32
	.byte	W01
	.byte		        c_v+0
	.byte	W01
	.byte		N12   , Fn3 , v040
	.byte	W60
	.byte	PEND
	.byte	PATT
	 .word	seq_102_4 + 0xF9
	.byte	W24
	.byte		N12   , En2 , v120
	.byte	W12
	.byte		N10   , Fs2 
	.byte	W24
	.byte		        Gs2 
	.byte	W24
	.byte		N12   , As2 
	.byte	W12
	.byte		N10   , Bn2 
	.byte	W24
	.byte		N12   , Cn3 
	.byte	W12
	.byte		N10   , Cs3 
	.byte	W24
	.byte		        Dn3 
	.byte	W24
	.byte		N12   , Ds3 
	.byte	W12
	.byte		N72   , En3 
	.byte	W14
	.byte		MOD   , 5
	.byte	W56
	.byte	W02
	.byte		N24   , En3 , v060
	.byte	W24
	.byte		        En3 , v040
	.byte	W68
	.byte	W03
	.byte		MOD   , 0
	.byte	W01
	.byte	GOTO
	 .word	seq_102_4 + 0xE
	.byte	FINE

@*********************** Track 06 ***********************@

seq_102_5:
	.byte	KEYSH , seq_102_key+0
	.byte	W03
	.byte		VOICE , 7
	.byte	W01
	.byte		VOL   , 56*seq_102_mvl/mxv
	.byte	W01
	.byte		PAN   , c_v+36
	.byte	W19
	.byte	W06
	.byte	W84
	.byte	W96
	.byte	W24
	.byte		N05   , Dn3 , v120
	.byte	W05
	.byte		N03   , Dn3 , v060
	.byte	W07
	.byte		N05   , En3 , v120
	.byte	W05
	.byte		N03   , En3 , v060
	.byte	W07
	.byte		N05   , Fs3 , v120
	.byte	W05
	.byte		N03   , Fs3 , v060
	.byte	W07
	.byte		N05   , Dn3 , v120
	.byte	W05
	.byte		N03   , Dn3 , v060
	.byte	W07
	.byte	PEND
	.byte	W96
	.byte	W12
	.byte		N05   , Dn3 , v120
	.byte	W05
	.byte		N03   , Dn3 , v060
	.byte	W07
	.byte		N05   , En3 , v120
	.byte	W05
	.byte		N03   , En3 , v060
	.byte	W07
	.byte		N05   , Fs3 , v120
	.byte	W05
	.byte		N03   , Fs3 , v060
	.byte	W07
	.byte		N05   , Gs3 , v120
	.byte	W05
	.byte		N03   , Gs3 , v060
	.byte	W19
	.byte	PEND
	.byte	PATT
	 .word	seq_102_5 + 0xE
	.byte	PATT
	 .word	seq_102_5 + 0x31
	.byte	W96
	.byte	W24
	.byte		N05   , Ds3 , v120
	.byte	W05
	.byte		N03   , Ds3 , v060
	.byte	W07
	.byte		N05   , Fn3 , v120
	.byte	W05
	.byte		N03   , Fn3 , v060
	.byte	W07
	.byte		N05   , Gn3 , v120
	.byte	W05
	.byte		N03   , Gn3 , v060
	.byte	W07
	.byte		N05   , Ds3 , v120
	.byte	W05
	.byte		N03   , Ds3 , v060
	.byte	W07
	.byte	W96
	.byte	W12
	.byte		N05   , Ds3 , v120
	.byte	W05
	.byte		N03   , Ds3 , v060
	.byte	W07
	.byte		N05   , Fn3 , v120
	.byte	W05
	.byte		N03   , Fn3 , v060
	.byte	W07
	.byte		N05   , Gn3 , v120
	.byte	W05
	.byte		N03   , Gn3 , v060
	.byte	W07
	.byte		N05   , An3 , v120
	.byte	W05
	.byte		N03   , An3 , v060
	.byte	W19
	.byte	PATT
	 .word	seq_102_5 + 0xE
	.byte	PATT
	 .word	seq_102_5 + 0x31
	.byte		N06   , Dn4 , v120
	.byte	W06
	.byte		        Dn4 , v060
	.byte	W06
	.byte		        Dn4 , v120
	.byte	W06
	.byte		        Dn4 , v060
	.byte	W06
	.byte		        Dn4 , v120
	.byte	W06
	.byte		        Dn4 , v060
	.byte	W06
	.byte		        Dn4 , v120
	.byte	W06
	.byte		        Dn4 , v060
	.byte	W06
	.byte		        Dn4 , v040
	.byte	W12
	.byte		N10   , Gs3 , v120
	.byte	W10
	.byte		N06   , Gs3 , v060
	.byte	W06
	.byte		N08   , Gs3 , v040
	.byte	W08
	.byte		N24   , Cs4 , v120
	.byte	W13
	.byte		BEND  , c_v-2
	.byte	W01
	.byte		        c_v-3
	.byte	W01
	.byte		        c_v-5
	.byte	W01
	.byte		        c_v-6
	.byte	W01
	.byte		        c_v-9
	.byte	W01
	.byte		        c_v-13
	.byte	W01
	.byte		        c_v-16
	.byte	W01
	.byte		        c_v-20
	.byte	W01
	.byte		        c_v-27
	.byte	W01
	.byte		        c_v-32
	.byte	W01
	.byte		        c_v+0
	.byte	W01
	.byte		N12   , Cs4 , v040
	.byte	W60
	.byte	PEND
	.byte	PATT
	 .word	seq_102_5 + 0xAC
	.byte		N06   , Cn4 , v120
	.byte	W06
	.byte		        Cn4 , v060
	.byte	W06
	.byte		        Cn4 , v120
	.byte	W06
	.byte		        Cn4 , v060
	.byte	W06
	.byte		        Cn4 , v120
	.byte	W06
	.byte		        Cn4 , v060
	.byte	W06
	.byte		        Cn4 , v120
	.byte	W06
	.byte		        Cn4 , v060
	.byte	W06
	.byte		        Cn4 , v040
	.byte	W12
	.byte		N10   , Fs3 , v120
	.byte	W10
	.byte		N06   , Fs3 , v060
	.byte	W06
	.byte		N08   , Fs3 , v040
	.byte	W08
	.byte		N24   , Bn3 , v120
	.byte	W13
	.byte		BEND  , c_v-2
	.byte	W01
	.byte		        c_v-3
	.byte	W01
	.byte		        c_v-5
	.byte	W01
	.byte		        c_v-6
	.byte	W01
	.byte		        c_v-9
	.byte	W01
	.byte		        c_v-13
	.byte	W01
	.byte		        c_v-16
	.byte	W01
	.byte		        c_v-20
	.byte	W01
	.byte		        c_v-27
	.byte	W01
	.byte		        c_v-32
	.byte	W01
	.byte		        c_v+0
	.byte	W01
	.byte		N12   , Bn3 , v040
	.byte	W60
	.byte	PEND
	.byte	PATT
	 .word	seq_102_5 + 0xF9
	.byte	W96
	.byte	W96
	.byte	W96
	.byte	W72
	.byte	GOTO
	 .word	seq_102_5 + 0xE
	.byte	FINE

@*********************** Track 07 ***********************@

seq_102_6:
	.byte	KEYSH , seq_102_key+0
	.byte	W06
	.byte		VOICE , 50
	.byte	W01
	.byte		VOL   , 31*seq_102_mvl/mxv
	.byte	W01
	.byte		PAN   , c_v+0
	.byte	W16
	.byte	W06
	.byte	W84
	.byte	W96
	.byte	W72
	.byte	W96
	.byte	W72
	.byte	W96
	.byte	W72
	.byte	W96
	.byte	W72
	.byte	W96
	.byte	W72
	.byte	W96
	.byte	W72
	.byte	W96
	.byte	W72
	.byte	W96
	.byte	W72
	.byte	W96
	.byte	W12
	.byte		N02   , Cs4 , v120
	.byte	W02
	.byte		        Gn4 
	.byte	W02
	.byte		        Gn4 , v080
	.byte	W02
	.byte		        Cs5 
	.byte	W02
	.byte		        Cs5 , v060
	.byte	W02
	.byte		        Gn5 
	.byte	W01
	.byte		PAN   , c_v-44
	.byte	W01
	.byte		N02   , Gn4 , v120
	.byte	W02
	.byte		        Cs5 
	.byte	W02
	.byte		        Gn4 , v080
	.byte	W02
	.byte		        Cs5 
	.byte	W02
	.byte		        Gn5 , v060
	.byte	W02
	.byte		        Cs6 
	.byte	W01
	.byte		PAN   , c_v+46
	.byte	W01
	.byte		N02   , Cs5 , v120
	.byte	W02
	.byte		        Gn5 
	.byte	W02
	.byte		        Cs5 , v080
	.byte	W02
	.byte		        Gn5 
	.byte	W02
	.byte		        Cs6 , v060
	.byte	W02
	.byte		        Gn6 
	.byte	W24
	.byte	W02
	.byte	W96
	.byte	W11
	.byte		PAN   , c_v+0
	.byte	W01
	.byte		N02   , Cs4 , v120
	.byte	W02
	.byte		        Gn4 
	.byte	W02
	.byte		        Gn4 , v080
	.byte	W02
	.byte		        Cs5 
	.byte	W02
	.byte		        Cs5 , v060
	.byte	W02
	.byte		        Gn5 
	.byte	W01
	.byte		PAN   , c_v-44
	.byte	W01
	.byte		N02   , Gn4 , v120
	.byte	W02
	.byte		        Cs5 
	.byte	W02
	.byte		        Gn4 , v080
	.byte	W02
	.byte		        Cs5 
	.byte	W02
	.byte		        Gn5 , v060
	.byte	W02
	.byte		        Cs6 
	.byte	W01
	.byte		PAN   , c_v+46
	.byte	W01
	.byte		N02   , Cs5 , v120
	.byte	W02
	.byte		        Gn5 
	.byte	W02
	.byte		        Cs5 , v080
	.byte	W02
	.byte		        Gn5 
	.byte	W02
	.byte		        Cs6 , v060
	.byte	W02
	.byte		        Gn6 
	.byte	W24
	.byte	W02
	.byte	W96
	.byte	W11
	.byte		PAN   , c_v+0
	.byte	W01
	.byte		N02   , Bn3 , v120
	.byte	W02
	.byte		        Fn4 
	.byte	W02
	.byte		        Fn4 , v080
	.byte	W02
	.byte		        Bn4 
	.byte	W02
	.byte		        Bn4 , v060
	.byte	W02
	.byte		        Fn5 
	.byte	W01
	.byte		PAN   , c_v-44
	.byte	W01
	.byte		N02   , Fn4 , v120
	.byte	W02
	.byte		        Bn4 
	.byte	W02
	.byte		        Fn4 , v080
	.byte	W02
	.byte		        Bn4 
	.byte	W02
	.byte		        Fn5 , v060
	.byte	W02
	.byte		        Bn5 
	.byte	W01
	.byte		PAN   , c_v+46
	.byte	W01
	.byte		N02   , Bn4 , v120
	.byte	W02
	.byte		        Fn5 
	.byte	W02
	.byte		        Bn4 , v080
	.byte	W02
	.byte		        Fn5 
	.byte	W02
	.byte		        Bn5 , v060
	.byte	W02
	.byte		        Fn6 
	.byte	W24
	.byte	W02
	.byte	PEND
	.byte	PATT
	 .word	seq_102_6 + 0x93
	.byte	W23
	.byte		PAN   , c_v+0
	.byte	W01
	.byte		N02   , Gs3 , v120
	.byte	W02
	.byte		        Dn4 
	.byte	W02
	.byte		        Dn4 , v080
	.byte	W02
	.byte		        Gs4 
	.byte	W02
	.byte		        Gs4 , v060
	.byte	W02
	.byte		        Dn5 
	.byte	W01
	.byte		PAN   , c_v-44
	.byte	W01
	.byte		N02   , As3 , v120
	.byte	W02
	.byte		        En4 
	.byte	W02
	.byte		        As3 , v080
	.byte	W02
	.byte		        En4 
	.byte	W02
	.byte		        As4 , v060
	.byte	W02
	.byte		        En5 
	.byte	W13
	.byte		PAN   , c_v+46
	.byte	W01
	.byte		N02   , Cn4 , v120
	.byte	W02
	.byte		        Fs4 
	.byte	W02
	.byte		        Cn4 , v080
	.byte	W02
	.byte		        Fs4 
	.byte	W02
	.byte		        Cn5 , v060
	.byte	W02
	.byte		        Fs5 
	.byte	W13
	.byte		PAN   , c_v+0
	.byte	W01
	.byte		N02   , Dn4 , v120
	.byte	W02
	.byte		        Gs4 
	.byte	W02
	.byte		        Dn4 , v080
	.byte	W02
	.byte		        Gs4 
	.byte	W02
	.byte		        Dn5 , v060
	.byte	W02
	.byte		        Gs5 
	.byte	W01
	.byte		PAN   , c_v-44
	.byte	W01
	.byte		N02   , Ds4 , v120
	.byte	W02
	.byte		        An4 
	.byte	W02
	.byte		        Ds4 , v080
	.byte	W02
	.byte		        An4 
	.byte	W02
	.byte		        Ds5 , v060
	.byte	W02
	.byte		        An5 
	.byte	W13
	.byte		PAN   , c_v+46
	.byte	W01
	.byte		N02   , En4 , v120
	.byte	W02
	.byte		        As4 
	.byte	W02
	.byte		        En4 , v080
	.byte	W02
	.byte		        As4 
	.byte	W02
	.byte		        En5 , v060
	.byte	W02
	.byte		        As5 
	.byte	W01
	.byte		PAN   , c_v+0
	.byte	W01
	.byte		N02   , Fn4 , v120
	.byte	W02
	.byte		        Bn4 
	.byte	W02
	.byte		        Fn4 , v080
	.byte	W02
	.byte		        Bn4 
	.byte	W02
	.byte		        Fn5 , v060
	.byte	W02
	.byte		        Bn5 
	.byte	W13
	.byte		PAN   , c_v-44
	.byte	W01
	.byte		N02   , Fs4 , v120
	.byte	W02
	.byte		        Cn5 
	.byte	W02
	.byte		        Fs4 , v080
	.byte	W02
	.byte		        Cn5 
	.byte	W02
	.byte		        Fs5 , v060
	.byte	W02
	.byte		        Cn6 
	.byte	W13
	.byte		PAN   , c_v+46
	.byte	W01
	.byte		N02   , Gn4 , v120
	.byte	W02
	.byte		        Cs5 
	.byte	W02
	.byte		        Gn4 , v080
	.byte	W02
	.byte		        Cs5 
	.byte	W02
	.byte		        Gn5 , v060
	.byte	W02
	.byte		        Cs6 
	.byte	W01
	.byte		PAN   , c_v-44
	.byte	W01
	.byte		N02   , Gs4 , v120
	.byte	W02
	.byte		        Dn5 
	.byte	W02
	.byte		        Gs4 , v080
	.byte	W02
	.byte		        Dn5 
	.byte	W02
	.byte		        Gs5 , v060
	.byte	W02
	.byte		        Dn6 
	.byte	W72
	.byte	W02
	.byte		        As4 , v120
	.byte	W02
	.byte		        As5 , v060
	.byte	W02
	.byte		        Dn5 , v120
	.byte	W02
	.byte		        Dn6 , v060
	.byte	W02
	.byte		        En5 , v120
	.byte	W02
	.byte		        En6 , v060
	.byte	W02
	.byte		        Gs5 , v120
	.byte	W02
	.byte		        Gs6 , v060
	.byte	W02
	.byte		        As4 
	.byte	W02
	.byte		        As5 
	.byte	W02
	.byte		        Dn5 
	.byte	W02
	.byte		        Dn6 
	.byte	W02
	.byte		        En5 
	.byte	W02
	.byte		        En6 
	.byte	W02
	.byte		        Gs5 
	.byte	W02
	.byte		        Gs6 
	.byte	W04
	.byte		        As4 , v040
	.byte	W02
	.byte		        As5 
	.byte	W02
	.byte		        Dn5 
	.byte	W02
	.byte		        Dn6 
	.byte	W02
	.byte		        En5 
	.byte	W02
	.byte		        En6 
	.byte	W02
	.byte		        Gs5 
	.byte	W02
	.byte		        Gs6 
	.byte	W04
	.byte		        As4 , v020
	.byte	W02
	.byte		        As5 
	.byte	W02
	.byte		        Dn5 
	.byte	W02
	.byte		        Dn6 
	.byte	W02
	.byte		        En5 
	.byte	W02
	.byte		        En6 
	.byte	W02
	.byte		        Gs5 
	.byte	W02
	.byte		        Gs6 
	.byte	W04
	.byte		        As4 
	.byte	W02
	.byte		        As5 
	.byte	W02
	.byte		        Dn5 
	.byte	W02
	.byte		        Dn6 
	.byte	W02
	.byte		        En5 
	.byte	W02
	.byte		        En6 
	.byte	W02
	.byte		        Gs5 
	.byte	W01
	.byte		PAN   , c_v+0
	.byte	W01
	.byte	GOTO
	 .word	seq_102_6 + 0xE
	.byte	FINE

@*********************** Track 08 ***********************@

seq_102_7:
	.byte	KEYSH , seq_102_key+0
	.byte	W06
	.byte		VOICE , 2
	.byte	W01
	.byte		VOL   , 37*seq_102_mvl/mxv
	.byte	W01
	.byte		PAN   , c_v+0
	.byte	W16
	.byte	W06
	.byte		N09   , En3 , v120
	.byte	W02
	.byte		        Gs3 , v100
	.byte	W02
	.byte		        Fs4 
	.byte	W02
	.byte		        As4 
	.byte	W03
	.byte		        Dn5 
	.byte	W01
	.byte		N11   , En3 , v060
	.byte	W02
	.byte		        Gs3 
	.byte	W02
	.byte		        Fs4 
	.byte	W02
	.byte		        As4 
	.byte	W03
	.byte		        Dn5 
	.byte	W05
	.byte		N09   , Dn3 , v120
	.byte	W02
	.byte		        Fs3 , v100
	.byte	W02
	.byte		        En4 
	.byte	W02
	.byte		        Gs4 
	.byte	W03
	.byte		        Cn5 
	.byte	W01
	.byte		N11   , Dn3 , v060
	.byte	W02
	.byte		        Fs3 
	.byte	W02
	.byte		        En4 
	.byte	W02
	.byte		        Gs4 
	.byte	W03
	.byte		        Cn5 
	.byte	W05
	.byte		N09   , Cn3 , v120
	.byte	W02
	.byte		        En3 , v100
	.byte	W02
	.byte		        Dn4 
	.byte	W02
	.byte		N13   , Fs4 
	.byte	W03
	.byte		N15   , As4 
	.byte	W01
	.byte		N09   , Cn3 , v060
	.byte	W02
	.byte		        En3 
	.byte	W02
	.byte		        Dn4 
	.byte	W22
	.byte	W96
	.byte	W72
	.byte	W96
	.byte	W72
	.byte	W96
	.byte	W72
	.byte	W96
	.byte	W72
	.byte	W96
	.byte	W72
	.byte	W96
	.byte	W72
	.byte	W96
	.byte	W72
	.byte	W96
	.byte	W72
	.byte	W96
	.byte	W72
	.byte	W96
	.byte	W72
	.byte	W96
	.byte	W72
	.byte	W96
	.byte	W72
	.byte	W96
	.byte	W96
	.byte	W96
	.byte	W72
	.byte	GOTO
	 .word	seq_102_7 + 0x56
	.byte	FINE

@*********************** Track 09 ***********************@

seq_102_8:
	.byte	KEYSH , seq_102_key+0
	.byte	W06
	.byte		VOICE , 100
	.byte	W01
	.byte		VOL   , 75*seq_102_mvl/mxv
	.byte	W01
	.byte		PAN   , c_v+0
	.byte	W16
	.byte	W06
	.byte	W84
	.byte		N04   , Cn2 , v120
	.byte	W18
	.byte		N05   , Cn3 
	.byte	W18
	.byte		        Cn2 
	.byte	W05
	.byte		        Cn2 , v040
	.byte	W19
	.byte		N04   , Cn3 , v120
	.byte	W12
	.byte		N12   , As2 
	.byte	W12
	.byte		N04   , Cn3 
	.byte	W24
	.byte		        Cn2 
	.byte	W04
	.byte		N05   , Cn2 , v040
	.byte	W08
	.byte		N12   , Cn3 , v120
	.byte	W12
	.byte		N04   , Cn2 
	.byte	W12
	.byte		N12   , As2 
	.byte	W12
	.byte		N04   , Cn3 
	.byte	W12
	.byte	PEND
	.byte	PATT
	 .word	seq_102_8 + 0xE
	.byte	PATT
	 .word	seq_102_8 + 0xE
	.byte	PATT
	 .word	seq_102_8 + 0xE
	.byte		N04   , Cs2 , v120
	.byte	W18
	.byte		N05   , Cs3 
	.byte	W18
	.byte		        Cs2 
	.byte	W05
	.byte		        Cs2 , v040
	.byte	W19
	.byte		N04   , Cs3 , v120
	.byte	W12
	.byte		N12   , Bn2 
	.byte	W12
	.byte		N04   , Cs3 
	.byte	W24
	.byte		        Cs2 
	.byte	W04
	.byte		N05   , Cs2 , v040
	.byte	W08
	.byte		N12   , Cs3 , v120
	.byte	W12
	.byte		N04   , Cs2 
	.byte	W12
	.byte		N12   , Bn2 
	.byte	W12
	.byte		N04   , Cs3 
	.byte	W12
	.byte	PEND
	.byte	PATT
	 .word	seq_102_8 + 0x47
	.byte	PATT
	 .word	seq_102_8 + 0xE
	.byte	PATT
	 .word	seq_102_8 + 0xE
	.byte		N04   , As1 , v120
	.byte	W18
	.byte		N05   , As2 
	.byte	W18
	.byte		        As1 
	.byte	W05
	.byte		        As1 , v040
	.byte	W19
	.byte		N04   , As2 , v120
	.byte	W12
	.byte		N12
	.byte	W12
	.byte		N04   , An2 
	.byte	W24
	.byte		        An1 
	.byte	W04
	.byte		N05   , An1 , v040
	.byte	W08
	.byte		N12   , An2 , v120
	.byte	W12
	.byte		N04   , An1 
	.byte	W12
	.byte		N12   , An2 
	.byte	W12
	.byte		N04   , An1 
	.byte	W12
	.byte	PEND
	.byte	PATT
	 .word	seq_102_8 + 0x80
	.byte		N04   , Gs1 , v120
	.byte	W18
	.byte		N05   , Gs2 
	.byte	W18
	.byte		        Gs1 
	.byte	W05
	.byte		        Gs1 , v040
	.byte	W19
	.byte		N04   , Gs2 , v120
	.byte	W12
	.byte		N12
	.byte	W12
	.byte		N04   , Gn2 
	.byte	W24
	.byte		        Gn1 
	.byte	W04
	.byte		N05   , Gn1 , v040
	.byte	W08
	.byte		N12   , Gn2 , v120
	.byte	W12
	.byte		N04   , Gn1 
	.byte	W12
	.byte		N12   , Gn2 
	.byte	W12
	.byte		N04   , Gn1 
	.byte	W12
	.byte	PEND
	.byte	PATT
	 .word	seq_102_8 + 0xAE
	.byte		N10   , En1 , v120
	.byte	W24
	.byte		N12   , En2 
	.byte	W12
	.byte		N10   , Fs2 
	.byte	W10
	.byte		N05   , Fs2 , v040
	.byte	W14
	.byte		N10   , Gs2 , v120
	.byte	W10
	.byte		N05   , Gs2 , v040
	.byte	W14
	.byte		N12   , As2 , v120
	.byte	W12
	.byte		N10   , Bn2 
	.byte	W10
	.byte		N05   , Bn2 , v040
	.byte	W14
	.byte		N12   , Cn3 , v120
	.byte	W12
	.byte		N10   , Cs3 
	.byte	W10
	.byte		N05   , Cs3 , v040
	.byte	W14
	.byte		N10   , Dn3 , v120
	.byte	W10
	.byte		N05   , Dn3 , v040
	.byte	W14
	.byte		N12   , Ds2 , v120
	.byte	W12
	.byte		N72   , En2 
	.byte	W72
	.byte		N24   , En2 , v040
	.byte	W24
	.byte		        En2 , v020
	.byte	W36
	.byte		N03   , En1 , v120
	.byte	W12
	.byte		N12
	.byte	W12
	.byte		N06   , En1 , v060
	.byte	W12
	.byte	GOTO
	 .word	seq_102_8 + 0xE
	.byte	FINE

@*********************** Track 10 ***********************@

seq_102_9:
	.byte	KEYSH , seq_102_key+0
	.byte	W09
	.byte		VOICE , 70
	.byte	W01
	.byte		VOL   , 44*seq_102_mvl/mxv
	.byte	W01
	.byte		PAN   , c_v+63
	.byte	W13
	.byte	W06
	.byte	W02
	.byte		N02   , En4 , v100
	.byte	W02
	.byte		        Gs4 
	.byte	W01
	.byte		        Dn5 
	.byte	W01
	.byte		        Fs5 
	.byte	W02
	.byte		        As5 
	.byte	W03
	.byte		        Dn6 
	.byte	W02
	.byte		        En4 , v060
	.byte	W02
	.byte		        Gs4 
	.byte	W01
	.byte		        Dn5 
	.byte	W01
	.byte		        Fs5 
	.byte	W02
	.byte		        As5 
	.byte	W03
	.byte		        Dn6 
	.byte	W04
	.byte		        Dn4 , v100
	.byte	W02
	.byte		        Fs4 
	.byte	W01
	.byte		        Cn5 
	.byte	W01
	.byte		        En5 
	.byte	W02
	.byte		        Gs5 
	.byte	W03
	.byte		        Cn6 
	.byte	W02
	.byte		        Dn4 , v060
	.byte	W02
	.byte		        Fs4 
	.byte	W01
	.byte		        Cn5 
	.byte	W01
	.byte		        En5 
	.byte	W02
	.byte		        Gs5 
	.byte	W03
	.byte		        Cn6 
	.byte	W04
	.byte		        Cn4 , v100
	.byte	W02
	.byte		        En4 
	.byte	W01
	.byte		        As4 
	.byte	W01
	.byte		        Dn5 
	.byte	W02
	.byte		        Fs5 
	.byte	W03
	.byte		        As5 
	.byte	W02
	.byte		        Cn4 , v060
	.byte	W02
	.byte		        En4 
	.byte	W01
	.byte		        As4 
	.byte	W01
	.byte		        Dn5 
	.byte	W02
	.byte		        Fs5 
	.byte	W03
	.byte		        As5 
	.byte	W03
	.byte		        Cn4 , v040
	.byte	W02
	.byte		        En4 
	.byte	W01
	.byte		        As4 
	.byte	W01
	.byte		        Dn5 
	.byte	W02
	.byte		        Fs5 
	.byte	W03
	.byte		        As5 
	.byte	W02
	.byte	W24
	.byte	W02
	.byte		N02   , Cn6 , v080
	.byte	W02
	.byte		        Fs6 , v100
	.byte	W02
	.byte		        Cn6 , v060
	.byte	W02
	.byte		        Fs6 
	.byte	W02
	.byte		        Cn6 
	.byte	W02
	.byte		        Fs6 , v040
	.byte	W02
	.byte		        Cn6 
	.byte	W02
	.byte		        Fs6 
	.byte	W02
	.byte		        Cn6 
	.byte	W02
	.byte		        Fs6 
	.byte	W02
	.byte		        Cn6 
	.byte	W02
	.byte		        Fs6 
	.byte	W02
	.byte		        Fs5 , v080
	.byte	W02
	.byte		        Cn6 , v100
	.byte	W02
	.byte		        Fs5 , v060
	.byte	W02
	.byte		        Cn6 
	.byte	W02
	.byte		        Fs5 
	.byte	W02
	.byte		        Cn6 , v040
	.byte	W02
	.byte		        Fs5 
	.byte	W02
	.byte		        Cn6 
	.byte	W02
	.byte		        Fs5 
	.byte	W02
	.byte		        Cn6 
	.byte	W02
	.byte		        Fs5 
	.byte	W02
	.byte		        Cn6 
	.byte	W02
	.byte		        As5 , v080
	.byte	W02
	.byte		        En6 , v100
	.byte	W02
	.byte		        As5 , v060
	.byte	W02
	.byte		        En6 
	.byte	W02
	.byte		        As5 
	.byte	W02
	.byte		        En6 , v040
	.byte	W02
	.byte		        As5 
	.byte	W02
	.byte		        En6 
	.byte	W02
	.byte		        As5 
	.byte	W02
	.byte		        En6 
	.byte	W02
	.byte		        As5 
	.byte	W02
	.byte		        En6 
	.byte	W72
	.byte	PEND
	.byte	W96
	.byte	W72
	.byte	PATT
	 .word	seq_102_9 + 0x6A
	.byte	W96
	.byte	W72
	.byte	W24
	.byte	W02
	.byte		N02   , Cs6 , v080
	.byte	W02
	.byte		        Gn6 , v100
	.byte	W02
	.byte		        Cs6 , v060
	.byte	W02
	.byte		        Gn6 
	.byte	W02
	.byte		        Cs6 
	.byte	W02
	.byte		        Gn6 , v040
	.byte	W02
	.byte		        Cs6 
	.byte	W02
	.byte		        Gn6 
	.byte	W02
	.byte		        Cs6 
	.byte	W02
	.byte		        Gn6 
	.byte	W02
	.byte		        Cs6 
	.byte	W02
	.byte		        Gn6 
	.byte	W02
	.byte		        Gn5 , v080
	.byte	W02
	.byte		        Cs6 , v100
	.byte	W02
	.byte		        Gn5 , v060
	.byte	W02
	.byte		        Cs6 
	.byte	W02
	.byte		        Gn5 
	.byte	W02
	.byte		        Cs6 , v040
	.byte	W02
	.byte		        Gn5 
	.byte	W02
	.byte		        Cs6 
	.byte	W02
	.byte		        Gn5 
	.byte	W02
	.byte		        Cs6 
	.byte	W02
	.byte		        Gn5 
	.byte	W02
	.byte		        Cs6 
	.byte	W02
	.byte		        Bn5 , v080
	.byte	W02
	.byte		        Fn6 , v100
	.byte	W02
	.byte		        Bn5 , v060
	.byte	W02
	.byte		        Fn6 
	.byte	W02
	.byte		        Bn5 
	.byte	W02
	.byte		        Fn6 , v040
	.byte	W02
	.byte		        Bn5 
	.byte	W02
	.byte		        Fn6 
	.byte	W02
	.byte		        Bn5 
	.byte	W02
	.byte		        Fn6 
	.byte	W02
	.byte		        Bn5 
	.byte	W02
	.byte		        Fn6 
	.byte	W72
	.byte	W96
	.byte	W72
	.byte	PATT
	 .word	seq_102_9 + 0x6A
	.byte	W84
	.byte	W02
	.byte		N02   , En4 , v120
	.byte	W02
	.byte		        As4 
	.byte	W02
	.byte		        En4 , v080
	.byte	W02
	.byte		        As4 
	.byte	W02
	.byte		        En4 , v060
	.byte	W02
	.byte		        As4 
	.byte	W02
	.byte		        Fs4 , v120
	.byte	W02
	.byte		        Cn5 
	.byte	W02
	.byte		        Fs4 , v080
	.byte	W02
	.byte		        Cn5 
	.byte	W02
	.byte		        Fs4 , v060
	.byte	W02
	.byte		        Cn5 
	.byte	W02
	.byte		        Gs4 , v120
	.byte	W02
	.byte		        Dn5 
	.byte	W02
	.byte		        Gs4 , v080
	.byte	W02
	.byte		        Dn5 
	.byte	W02
	.byte		        Gs4 , v060
	.byte	W02
	.byte		        Dn5 
	.byte	W02
	.byte		        As4 , v120
	.byte	W02
	.byte		        En5 
	.byte	W02
	.byte		        As4 , v080
	.byte	W02
	.byte		        En5 
	.byte	W02
	.byte		        As4 , v060
	.byte	W02
	.byte		        En5 
	.byte	W02
	.byte		        Cn5 , v120
	.byte	W02
	.byte		        Fs5 
	.byte	W02
	.byte		        Cn5 , v080
	.byte	W02
	.byte		        Fs5 
	.byte	W02
	.byte		        Cn5 , v060
	.byte	W02
	.byte		        Fs5 
	.byte	W02
	.byte		        Dn5 , v120
	.byte	W02
	.byte		        Gs5 
	.byte	W02
	.byte		        Dn5 , v080
	.byte	W02
	.byte		        Gs5 
	.byte	W02
	.byte		        Dn5 , v060
	.byte	W02
	.byte		        Gs5 
	.byte	W12
	.byte	W24
	.byte	W02
	.byte		N02   , Dn6 , v080
	.byte	W02
	.byte		        Gs6 , v100
	.byte	W02
	.byte		        Dn6 , v060
	.byte	W02
	.byte		        Gs6 
	.byte	W02
	.byte		        Dn6 
	.byte	W02
	.byte		        Gs6 , v040
	.byte	W02
	.byte		        Dn6 
	.byte	W02
	.byte		        Gs6 
	.byte	W02
	.byte		        Dn6 
	.byte	W02
	.byte		        Gs6 
	.byte	W02
	.byte		        Dn6 
	.byte	W02
	.byte		        Gs6 
	.byte	W02
	.byte		        Gs5 , v080
	.byte	W02
	.byte		        Dn6 , v100
	.byte	W02
	.byte		        Gs5 , v060
	.byte	W02
	.byte		        Dn6 
	.byte	W02
	.byte		        Gs5 
	.byte	W02
	.byte		        Dn6 , v040
	.byte	W02
	.byte		        Gs5 
	.byte	W02
	.byte		        Dn6 
	.byte	W02
	.byte		        Gs5 
	.byte	W02
	.byte		        Dn6 
	.byte	W02
	.byte		        Gs5 
	.byte	W02
	.byte		        Dn6 
	.byte	W02
	.byte		        En6 , v080
	.byte	W02
	.byte		        As6 , v100
	.byte	W02
	.byte		        En6 , v060
	.byte	W02
	.byte		        As6 
	.byte	W02
	.byte		        En6 
	.byte	W02
	.byte		        As6 , v040
	.byte	W02
	.byte		        En6 
	.byte	W02
	.byte		        As6 
	.byte	W02
	.byte		        En6 
	.byte	W02
	.byte		        As6 
	.byte	W02
	.byte		        En6 
	.byte	W02
	.byte		        As6 
	.byte	W72
	.byte	PEND
	.byte	PATT
	 .word	seq_102_9 + 0x186
	.byte	W24
	.byte	W02
	.byte		N02   , Cn6 , v080
	.byte	W02
	.byte		        Fs6 , v100
	.byte	W02
	.byte		        Cn6 , v060
	.byte	W02
	.byte		        Fs6 
	.byte	W02
	.byte		        Cn6 
	.byte	W02
	.byte		        Fs6 , v040
	.byte	W02
	.byte		        Cn6 
	.byte	W02
	.byte		        Fs6 
	.byte	W02
	.byte		        Cn6 
	.byte	W02
	.byte		        Fs6 
	.byte	W02
	.byte		        Cn6 
	.byte	W02
	.byte		        Fs6 
	.byte	W02
	.byte		        Fs5 , v080
	.byte	W02
	.byte		        Cn6 , v100
	.byte	W02
	.byte		        Fs5 , v060
	.byte	W02
	.byte		        Cn6 
	.byte	W02
	.byte		        Fs5 
	.byte	W02
	.byte		        Cn6 , v040
	.byte	W02
	.byte		        Fs5 
	.byte	W02
	.byte		        Cn6 
	.byte	W02
	.byte		        Fs5 
	.byte	W02
	.byte		        Cn6 
	.byte	W02
	.byte		        Fs5 
	.byte	W02
	.byte		        Cn6 
	.byte	W02
	.byte		        Dn6 , v080
	.byte	W02
	.byte		        Gs6 , v100
	.byte	W02
	.byte		        Dn6 , v060
	.byte	W02
	.byte		        Gs6 
	.byte	W02
	.byte		        Dn6 
	.byte	W02
	.byte		        Gs6 , v040
	.byte	W02
	.byte		        Dn6 
	.byte	W02
	.byte		        Gs6 
	.byte	W02
	.byte		        Dn6 
	.byte	W02
	.byte		        Gs6 
	.byte	W02
	.byte		        Dn6 
	.byte	W02
	.byte		        Gs6 
	.byte	W72
	.byte	PEND
	.byte	PATT
	 .word	seq_102_9 + 0x1E3
	.byte	W24
	.byte	W02
	.byte		N02   , Dn5 , v100
	.byte	W02
	.byte		        Gs5 , v080
	.byte	W02
	.byte		        Dn5 , v060
	.byte	W02
	.byte		        Gs5 
	.byte	W02
	.byte		        Dn5 
	.byte	W02
	.byte		        Gs5 , v040
	.byte	W02
	.byte		        Dn5 
	.byte	W02
	.byte		        Gs5 
	.byte	W02
	.byte		        Dn5 
	.byte	W02
	.byte		        Gs5 
	.byte	W02
	.byte		        Dn5 
	.byte	W02
	.byte		        Gs5 
	.byte	W14
	.byte		        Gs4 , v100
	.byte	W02
	.byte		        Dn5 , v080
	.byte	W02
	.byte		        Gs4 , v060
	.byte	W02
	.byte		        Dn5 
	.byte	W02
	.byte		        Gs4 
	.byte	W02
	.byte		        Dn5 , v040
	.byte	W02
	.byte		        Gs4 
	.byte	W02
	.byte		        Dn5 
	.byte	W02
	.byte		        Gs4 
	.byte	W02
	.byte		        Dn5 
	.byte	W02
	.byte		        Gs4 
	.byte	W02
	.byte		        Dn5 
	.byte	W12
	.byte	W02
	.byte		        An4 , v100
	.byte	W02
	.byte		        Ds5 , v080
	.byte	W02
	.byte		        An4 , v060
	.byte	W02
	.byte		        Ds5 
	.byte	W02
	.byte		        An4 
	.byte	W02
	.byte		        Ds5 , v040
	.byte	W02
	.byte		        An4 
	.byte	W02
	.byte		        Ds5 
	.byte	W02
	.byte		        An4 
	.byte	W02
	.byte		        Ds5 
	.byte	W02
	.byte		        An4 
	.byte	W02
	.byte		        Ds5 
	.byte	W14
	.byte		        Cs5 , v100
	.byte	W02
	.byte		        Fn5 , v080
	.byte	W02
	.byte		        Cs5 , v060
	.byte	W02
	.byte		        Fn5 
	.byte	W02
	.byte		        Cs5 
	.byte	W02
	.byte		        Fn5 , v040
	.byte	W02
	.byte		        Cs5 
	.byte	W02
	.byte		        Fn5 
	.byte	W02
	.byte		        Cs5 
	.byte	W02
	.byte		        Fn5 
	.byte	W02
	.byte		        Cs5 
	.byte	W02
	.byte		        Fn5 
	.byte	W14
	.byte		        Gs4 , v100
	.byte	W02
	.byte		        Cs5 , v080
	.byte	W02
	.byte		        Gs4 , v060
	.byte	W02
	.byte		        Cs5 
	.byte	W02
	.byte		        Gs4 
	.byte	W02
	.byte		        Cs5 , v040
	.byte	W02
	.byte		        Gs4 
	.byte	W02
	.byte		        Cs5 
	.byte	W02
	.byte		        Gs4 
	.byte	W02
	.byte		        Cs5 
	.byte	W02
	.byte		        Gs4 
	.byte	W02
	.byte		        Cs5 
	.byte	W02
	.byte		        Gs6 , v100
	.byte	W02
	.byte		        As5 , v080
	.byte	W02
	.byte		        Gs6 , v060
	.byte	W02
	.byte		        As5 
	.byte	W02
	.byte		        Gs6 
	.byte	W02
	.byte		        As5 , v040
	.byte	W02
	.byte		        Gs6 
	.byte	W02
	.byte		        As5 
	.byte	W02
	.byte		        Gs6 
	.byte	W02
	.byte		        As5 
	.byte	W02
	.byte		        Gs6 
	.byte	W02
	.byte		        As5 
	.byte	W60
	.byte		        As5 , v120
	.byte	W02
	.byte		        As6 , v060
	.byte	W02
	.byte		        Dn6 , v120
	.byte	W02
	.byte		        Dn7 , v060
	.byte	W02
	.byte		        En6 , v120
	.byte	W02
	.byte		        En7 , v060
	.byte	W02
	.byte		        Gs6 , v120
	.byte	W02
	.byte		        Gs7 , v060
	.byte	W02
	.byte		        As5 
	.byte	W02
	.byte		        As6 
	.byte	W02
	.byte		        Dn6 
	.byte	W02
	.byte		        Dn7 
	.byte	W02
	.byte		        En6 
	.byte	W02
	.byte		        En7 
	.byte	W02
	.byte		        Gs6 
	.byte	W02
	.byte		        Gs7 
	.byte	W04
	.byte		        As5 , v040
	.byte	W02
	.byte		        As6 
	.byte	W02
	.byte		        Dn6 
	.byte	W02
	.byte		        Dn7 
	.byte	W02
	.byte		        En6 
	.byte	W02
	.byte		        En7 
	.byte	W02
	.byte		        Gs6 
	.byte	W02
	.byte		        Gs7 
	.byte	W04
	.byte		        As5 , v020
	.byte	W02
	.byte		        As6 
	.byte	W02
	.byte		        Dn6 
	.byte	W02
	.byte		        Dn7 
	.byte	W02
	.byte		        En6 
	.byte	W02
	.byte		        En7 
	.byte	W02
	.byte		        Gs6 
	.byte	W02
	.byte		        Gs7 
	.byte	W04
	.byte		        As5 
	.byte	W02
	.byte		        As6 
	.byte	W02
	.byte		        Dn6 
	.byte	W02
	.byte		        Dn7 
	.byte	W02
	.byte		        En6 
	.byte	W02
	.byte		        En7 
	.byte	W02
	.byte		        Gs6 
	.byte	W02
	.byte	GOTO
	 .word	seq_102_9 + 0x6A
	.byte	FINE

@*********************** Track 11 ***********************@

seq_102_10:
	.byte	KEYSH , seq_102_key+0
	.byte	W09
	.byte		VOICE , 81
	.byte	W01
	.byte		VOL   , 69*seq_102_mvl/mxv
	.byte	W01
	.byte		PAN   , c_v-64
	.byte	W13
	.byte	W06
	.byte		N02   , En4 , v120
	.byte	W02
	.byte		        Gs4 
	.byte	W01
	.byte		        Dn5 
	.byte	W01
	.byte		        Fs5 
	.byte	W02
	.byte		        As5 
	.byte	W03
	.byte		        Dn6 
	.byte	W03
	.byte		        En4 , v060
	.byte	W02
	.byte		        Gs4 
	.byte	W01
	.byte		        Dn5 
	.byte	W01
	.byte		        Fs5 
	.byte	W02
	.byte		        As5 
	.byte	W03
	.byte		        Dn6 
	.byte	W03
	.byte		        Dn4 , v120
	.byte	W02
	.byte		        Fs4 
	.byte	W01
	.byte		        Cn5 
	.byte	W01
	.byte		        En5 
	.byte	W02
	.byte		        Gs5 
	.byte	W03
	.byte		        Cn6 
	.byte	W03
	.byte		        Dn4 , v060
	.byte	W02
	.byte		        Fs4 
	.byte	W01
	.byte		        Cn5 
	.byte	W01
	.byte		        En5 
	.byte	W02
	.byte		        Gs5 
	.byte	W03
	.byte		        Cn6 
	.byte	W03
	.byte		        Cn4 , v120
	.byte	W02
	.byte		        En4 
	.byte	W01
	.byte		        As4 
	.byte	W01
	.byte		        Dn5 
	.byte	W02
	.byte		        Fs5 
	.byte	W03
	.byte		        As5 
	.byte	W03
	.byte		        Cn4 , v060
	.byte	W02
	.byte		        En4 
	.byte	W01
	.byte		        As4 
	.byte	W01
	.byte		        Dn5 
	.byte	W02
	.byte		        Fs5 
	.byte	W03
	.byte		        As5 
	.byte	W03
	.byte		        Cn4 , v040
	.byte	W02
	.byte		        En4 
	.byte	W01
	.byte		        As4 
	.byte	W01
	.byte		        Dn5 
	.byte	W02
	.byte		        Fs5 
	.byte	W03
	.byte		        As5 
	.byte	W03
	.byte	W24
	.byte		N02   , Cn6 , v100
	.byte	W02
	.byte		        Fs5 , v080
	.byte	W02
	.byte		        Cn6 , v060
	.byte	W02
	.byte		        Fs5 
	.byte	W02
	.byte		        Cn6 
	.byte	W02
	.byte		        Fs5 , v040
	.byte	W02
	.byte		        Cn6 
	.byte	W02
	.byte		        Fs5 
	.byte	W02
	.byte		        Cn6 
	.byte	W02
	.byte		        Fs5 
	.byte	W02
	.byte		        Cn6 
	.byte	W02
	.byte		        Fs5 
	.byte	W02
	.byte		        Fs5 , v100
	.byte	W02
	.byte		        Cn5 , v080
	.byte	W02
	.byte		        Fs5 , v060
	.byte	W02
	.byte		        Cn5 
	.byte	W02
	.byte		        Fs5 
	.byte	W02
	.byte		        Cn5 , v040
	.byte	W02
	.byte		        Fs5 
	.byte	W02
	.byte		        Cn5 
	.byte	W02
	.byte		        Fs5 
	.byte	W02
	.byte		        Cn5 
	.byte	W02
	.byte		        Fs5 
	.byte	W02
	.byte		        Cn5 
	.byte	W02
	.byte		        As5 , v100
	.byte	W02
	.byte		        En5 , v080
	.byte	W02
	.byte		        As5 , v060
	.byte	W02
	.byte		        En5 
	.byte	W02
	.byte		        As5 
	.byte	W02
	.byte		        En5 , v040
	.byte	W02
	.byte		        As5 
	.byte	W02
	.byte		        En5 
	.byte	W02
	.byte		        As5 
	.byte	W02
	.byte		        En5 
	.byte	W02
	.byte		        As5 
	.byte	W02
	.byte		        En5 
	.byte	W72
	.byte	W02
	.byte	PEND
	.byte	W96
	.byte	W72
	.byte	PATT
	 .word	seq_102_10 + 0x69
	.byte	W96
	.byte	W72
	.byte	W24
	.byte		N02   , Cs6 , v100
	.byte	W02
	.byte		        Gn5 , v080
	.byte	W02
	.byte		        Cs6 , v060
	.byte	W02
	.byte		        Gn5 
	.byte	W02
	.byte		        Cs6 
	.byte	W02
	.byte		        Gn5 , v040
	.byte	W02
	.byte		        Cs6 
	.byte	W02
	.byte		        Gn5 
	.byte	W02
	.byte		        Cs6 
	.byte	W02
	.byte		        Gn5 
	.byte	W02
	.byte		        Cs6 
	.byte	W02
	.byte		        Gn5 
	.byte	W02
	.byte		        Gn5 , v100
	.byte	W02
	.byte		        Cs5 , v080
	.byte	W02
	.byte		        Gn5 , v060
	.byte	W02
	.byte		        Cs5 
	.byte	W02
	.byte		        Gn5 
	.byte	W02
	.byte		        Cs5 , v040
	.byte	W02
	.byte		        Gn5 
	.byte	W02
	.byte		        Cs5 
	.byte	W02
	.byte		        Gn5 
	.byte	W02
	.byte		        Cs5 
	.byte	W02
	.byte		        Gn5 
	.byte	W02
	.byte		        Cs5 
	.byte	W02
	.byte		        Bn5 , v100
	.byte	W02
	.byte		        Fn5 , v080
	.byte	W02
	.byte		        Bn5 , v060
	.byte	W02
	.byte		        Fn5 
	.byte	W02
	.byte		        Bn5 
	.byte	W02
	.byte		        Fn5 , v040
	.byte	W02
	.byte		        Bn5 
	.byte	W02
	.byte		        Fn5 
	.byte	W02
	.byte		        Bn5 
	.byte	W02
	.byte		        Fn5 
	.byte	W02
	.byte		        Bn5 
	.byte	W02
	.byte		        Fn5 
	.byte	W72
	.byte	W02
	.byte	W96
	.byte	W72
	.byte	PATT
	 .word	seq_102_10 + 0x69
	.byte	W84
	.byte		N02   , En4 , v120
	.byte	W02
	.byte		        As4 
	.byte	W02
	.byte		        En4 , v080
	.byte	W02
	.byte		        As4 
	.byte	W02
	.byte		        En4 , v060
	.byte	W02
	.byte		        As4 
	.byte	W02
	.byte		        Fs4 , v120
	.byte	W02
	.byte		        Cn5 
	.byte	W02
	.byte		        Fs4 , v080
	.byte	W02
	.byte		        Cn5 
	.byte	W02
	.byte		        Fs4 , v060
	.byte	W02
	.byte		        Cn5 
	.byte	W02
	.byte		        Gs4 , v120
	.byte	W02
	.byte		        Dn5 
	.byte	W02
	.byte		        Gs4 , v080
	.byte	W02
	.byte		        Dn5 
	.byte	W02
	.byte		        Gs4 , v060
	.byte	W02
	.byte		        Dn5 
	.byte	W02
	.byte		        As4 , v120
	.byte	W02
	.byte		        En5 
	.byte	W02
	.byte		        As4 , v080
	.byte	W02
	.byte		        En5 
	.byte	W02
	.byte		        As4 , v060
	.byte	W02
	.byte		        En5 
	.byte	W02
	.byte		        Cn5 , v120
	.byte	W02
	.byte		        Fs5 
	.byte	W02
	.byte		        Cn5 , v080
	.byte	W02
	.byte		        Fs5 
	.byte	W02
	.byte		        Cn5 , v060
	.byte	W02
	.byte		        Fs5 
	.byte	W02
	.byte		        Dn5 , v120
	.byte	W02
	.byte		        Gs5 
	.byte	W02
	.byte		        Dn5 , v080
	.byte	W02
	.byte		        Gs5 
	.byte	W02
	.byte		        Dn5 , v060
	.byte	W02
	.byte		        Gs5 
	.byte	W14
	.byte	W24
	.byte		N02   , Dn6 , v100
	.byte	W02
	.byte		        Gs5 , v080
	.byte	W02
	.byte		        Dn6 , v060
	.byte	W02
	.byte		        Gs5 
	.byte	W02
	.byte		        Dn6 
	.byte	W02
	.byte		        Gs5 , v040
	.byte	W02
	.byte		        Dn6 
	.byte	W02
	.byte		        Gs5 
	.byte	W02
	.byte		        Dn6 
	.byte	W02
	.byte		        Gs5 
	.byte	W02
	.byte		        Dn6 
	.byte	W02
	.byte		        Gs5 
	.byte	W02
	.byte		        Gs5 , v100
	.byte	W02
	.byte		        Dn5 , v080
	.byte	W02
	.byte		        Gs5 , v060
	.byte	W02
	.byte		        Dn5 
	.byte	W02
	.byte		        Gs5 
	.byte	W02
	.byte		        Dn5 , v040
	.byte	W02
	.byte		        Gs5 
	.byte	W02
	.byte		        Dn5 
	.byte	W02
	.byte		        Gs5 
	.byte	W02
	.byte		        Dn5 
	.byte	W02
	.byte		        Gs5 
	.byte	W02
	.byte		        Dn5 
	.byte	W02
	.byte		        As5 , v100
	.byte	W02
	.byte		        Dn5 , v080
	.byte	W02
	.byte		        As5 , v060
	.byte	W02
	.byte		        Dn5 
	.byte	W02
	.byte		        As5 
	.byte	W02
	.byte		        Dn5 , v040
	.byte	W02
	.byte		        As5 
	.byte	W02
	.byte		        Dn5 
	.byte	W02
	.byte		        As5 
	.byte	W02
	.byte		        Dn5 
	.byte	W02
	.byte		        As5 
	.byte	W02
	.byte		        Dn5 
	.byte	W72
	.byte	W02
	.byte	PEND
	.byte	PATT
	 .word	seq_102_10 + 0x184
	.byte	W24
	.byte		N02   , Cn6 , v100
	.byte	W02
	.byte		        Fs5 , v080
	.byte	W02
	.byte		        Cn6 , v060
	.byte	W02
	.byte		        Fs5 
	.byte	W02
	.byte		        Cn6 
	.byte	W02
	.byte		        Fs5 , v040
	.byte	W02
	.byte		        Cn6 
	.byte	W02
	.byte		        Fs5 
	.byte	W02
	.byte		        Cn6 
	.byte	W02
	.byte		        Fs5 
	.byte	W02
	.byte		        Cn6 
	.byte	W02
	.byte		        Fs5 
	.byte	W02
	.byte		        Fs5 , v100
	.byte	W02
	.byte		        Cn5 , v080
	.byte	W02
	.byte		        Fs5 , v060
	.byte	W02
	.byte		        Cn5 
	.byte	W02
	.byte		        Fs5 
	.byte	W02
	.byte		        Cn5 , v040
	.byte	W02
	.byte		        Fs5 
	.byte	W02
	.byte		        Cn5 
	.byte	W02
	.byte		        Fs5 
	.byte	W02
	.byte		        Cn5 
	.byte	W02
	.byte		        Fs5 
	.byte	W02
	.byte		        Cn5 
	.byte	W02
	.byte		        Gs5 , v100
	.byte	W02
	.byte		        Cn5 , v080
	.byte	W02
	.byte		        Gs5 , v060
	.byte	W02
	.byte		        Cn5 
	.byte	W02
	.byte		        Gs5 
	.byte	W02
	.byte		        Cn5 , v040
	.byte	W02
	.byte		        Gs5 
	.byte	W02
	.byte		        Cn5 
	.byte	W02
	.byte		        Gs5 
	.byte	W02
	.byte		        Cn5 
	.byte	W02
	.byte		        Gs5 
	.byte	W02
	.byte		        Cn5 
	.byte	W72
	.byte	W02
	.byte	PEND
	.byte	PATT
	 .word	seq_102_10 + 0x1E1
	.byte	W24
	.byte		N02   , Dn6 , v100
	.byte	W02
	.byte		        Gs5 , v080
	.byte	W02
	.byte		        Dn6 , v060
	.byte	W02
	.byte		        Gs5 
	.byte	W02
	.byte		        Dn6 
	.byte	W02
	.byte		        Gs5 , v040
	.byte	W02
	.byte		        Dn6 
	.byte	W02
	.byte		        Gs5 
	.byte	W02
	.byte		        Dn6 
	.byte	W02
	.byte		        Gs5 
	.byte	W02
	.byte		        Dn6 
	.byte	W02
	.byte		        Gs5 
	.byte	W14
	.byte		        Gs5 , v100
	.byte	W02
	.byte		        Dn5 , v080
	.byte	W02
	.byte		        Gs5 , v060
	.byte	W02
	.byte		        Dn5 
	.byte	W02
	.byte		        Gs5 
	.byte	W02
	.byte		        Dn5 , v040
	.byte	W02
	.byte		        Gs5 
	.byte	W02
	.byte		        Dn5 
	.byte	W02
	.byte		        Gs5 
	.byte	W02
	.byte		        Dn5 
	.byte	W02
	.byte		        Gs5 
	.byte	W02
	.byte		        Dn5 
	.byte	W14
	.byte		        An5 , v100
	.byte	W02
	.byte		        Ds5 , v080
	.byte	W02
	.byte		        An5 , v060
	.byte	W02
	.byte		        Ds5 
	.byte	W02
	.byte		        An5 
	.byte	W02
	.byte		        Ds5 , v040
	.byte	W02
	.byte		        An5 
	.byte	W02
	.byte		        Ds5 
	.byte	W02
	.byte		        An5 
	.byte	W02
	.byte		        Ds5 
	.byte	W02
	.byte		        An5 
	.byte	W02
	.byte		        Ds5 
	.byte	W14
	.byte		        Cs6 , v100
	.byte	W02
	.byte		        Fn5 , v080
	.byte	W02
	.byte		        Cs6 , v060
	.byte	W02
	.byte		        Fn5 
	.byte	W02
	.byte		        Cs6 
	.byte	W02
	.byte		        Fn5 , v040
	.byte	W02
	.byte		        Cs6 
	.byte	W02
	.byte		        Fn5 
	.byte	W02
	.byte		        Cs6 
	.byte	W02
	.byte		        Fn5 
	.byte	W02
	.byte		        Cs6 
	.byte	W02
	.byte		        Fn5 
	.byte	W14
	.byte		        Gn5 , v100
	.byte	W02
	.byte		        Cs5 , v080
	.byte	W02
	.byte		        Gn5 , v060
	.byte	W02
	.byte		        Cs5 
	.byte	W02
	.byte		        Gn5 
	.byte	W02
	.byte		        Cs5 , v040
	.byte	W02
	.byte		        Gn5 
	.byte	W02
	.byte		        Cs5 
	.byte	W02
	.byte		        Gn5 
	.byte	W02
	.byte		        Cs5 
	.byte	W02
	.byte		        Gn5 
	.byte	W02
	.byte		        Cs5 
	.byte	W02
	.byte		        Dn6 , v100
	.byte	W02
	.byte		        Gs5 , v080
	.byte	W02
	.byte		        Dn6 , v060
	.byte	W02
	.byte		        Gs5 
	.byte	W02
	.byte		        Dn6 
	.byte	W02
	.byte		        Gs5 , v040
	.byte	W02
	.byte		        Dn6 
	.byte	W02
	.byte		        Gs5 
	.byte	W02
	.byte		        Dn6 
	.byte	W02
	.byte		        Gs5 
	.byte	W02
	.byte		        Dn6 
	.byte	W02
	.byte		        Gs5 
	.byte	W96
	.byte	W48
	.byte	W02
	.byte	GOTO
	 .word	seq_102_10 + 0x69
	.byte	FINE

@*********************** Track 12 ***********************@

seq_102_11:
	.byte	KEYSH , seq_102_key+0
	.byte	W06
	.byte		VOICE , 110
	.byte	W01
	.byte		VOL   , 25*seq_102_mvl/mxv
	.byte	W01
	.byte		PAN   , c_v+63
	.byte	W16
	.byte	W06
	.byte	W84
	.byte	W12
	.byte		N04   , Cn5 , v120
	.byte	W24
	.byte		N04
	.byte	W06
	.byte		N04
	.byte	W18
	.byte		N04
	.byte	W24
	.byte		N04
	.byte	W24
	.byte		N04
	.byte	W06
	.byte		N04
	.byte	W18
	.byte		N04
	.byte	W24
	.byte		N04
	.byte	W12
	.byte	PEND
	.byte	PATT
	 .word	seq_102_11 + 0xE
	.byte	PATT
	 .word	seq_102_11 + 0xE
	.byte	PATT
	 .word	seq_102_11 + 0xE
	.byte	PATT
	 .word	seq_102_11 + 0xE
	.byte	PATT
	 .word	seq_102_11 + 0xE
	.byte	PATT
	 .word	seq_102_11 + 0xE
	.byte	PATT
	 .word	seq_102_11 + 0xE
	.byte	PATT
	 .word	seq_102_11 + 0xE
	.byte	PATT
	 .word	seq_102_11 + 0xE
	.byte	PATT
	 .word	seq_102_11 + 0xE
	.byte	PATT
	 .word	seq_102_11 + 0xE
	.byte	W12
	.byte		N04   , Cn5 , v120
	.byte	W06
	.byte		N04
	.byte	W18
	.byte		N04
	.byte	W24
	.byte		N04
	.byte	W24
	.byte		N04
	.byte	W06
	.byte		N04
	.byte	W06
	.byte	PEND
	.byte	PATT
	 .word	seq_102_11 + 0x5B
	.byte	W12
	.byte		N04   , Cn5 , v120
	.byte	W06
	.byte		N04
	.byte	W18
	.byte		N04
	.byte	W24
	.byte		N04
	.byte	W24
	.byte		N04
	.byte	W06
	.byte		N04
	.byte	W18
	.byte		N04
	.byte	W06
	.byte		N04
	.byte	W18
	.byte		N04
	.byte	W24
	.byte		N04
	.byte	W12
	.byte	GOTO
	 .word	seq_102_11 + 0xE
	.byte	FINE

@******************************************************@

	.align	2

seq_102:
	.byte	12	@ NumTrks
	.byte	0	@ NumBlks
	.byte	seq_102_pri	@ Priority
	.byte	seq_102_rev	@ Reverb

	.word	seq_102_grp

	.word	seq_102_0
	.word	seq_102_1
	.word	seq_102_2
	.word	seq_102_3
	.word	seq_102_4
	.word	seq_102_5
	.word	seq_102_6
	.word	seq_102_7
	.word	seq_102_8
	.word	seq_102_9
	.word	seq_102_10
	.word	seq_102_11

	.end
