@ File generated by m4a2s Song-Module
	.include "MPlayDef.s"

	.equ	seq_204_grp, bank_025
	.equ	seq_204_pri, 50
	.equ	seq_204_rev, 198
	.equ	seq_204_mvl, 127
	.equ	seq_204_key, 0

	.section .rodata
	.global	seq_204
	.align	2

@*********************** Track 01 ***********************@

seq_204_0:
	.byte	KEYSH , seq_204_key+0
	.byte	TEMPO , 150/2
	.byte		VOICE , 42
	.byte	W01
	.byte		VOL   , 75*seq_204_mvl/mxv
	.byte	W01
	.byte		PAN   , c_v+0
	.byte	W01
	.byte		MODT  , mod_tre
	.byte	W01
	.byte		N03   , Fn3 , v120
	.byte	W08
	.byte		N03
	.byte	W08
	.byte		N03
	.byte	W08
	.byte		        Gn3 
	.byte	W16
	.byte		        As3 
	.byte	W08
	.byte		N42   , An3 
	.byte	W08
	.byte		MOD   , 40
	.byte	W12
	.byte		        50
	.byte		VOL   , 73*seq_204_mvl/mxv
	.byte	W03
	.byte		        68*seq_204_mvl/mxv
	.byte	W02
	.byte		        65*seq_204_mvl/mxv
	.byte	W02
	.byte		        59*seq_204_mvl/mxv
	.byte	W01
	.byte		MOD   , 65
	.byte	W01
	.byte		VOL   , 56*seq_204_mvl/mxv
	.byte	W01
	.byte		        52*seq_204_mvl/mxv
	.byte	W02
	.byte		        49*seq_204_mvl/mxv
	.byte	W02
	.byte		        43*seq_204_mvl/mxv
	.byte	W02
	.byte		        37*seq_204_mvl/mxv
	.byte	W02
	.byte		        30*seq_204_mvl/mxv
	.byte	W02
	.byte		        22*seq_204_mvl/mxv
	.byte	W02
	.byte		        15*seq_204_mvl/mxv
	.byte	FINE

@*********************** Track 02 ***********************@

seq_204_1:
	.byte	KEYSH , seq_204_key+0
	.byte		VOICE , 48
	.byte	W01
	.byte		VOL   , 94*seq_204_mvl/mxv
	.byte	W01
	.byte		PAN   , c_v-20
	.byte	W01
	.byte		N04   , Fn4 , v120
	.byte	W05
	.byte		N03   , Fn4 , v032
	.byte	W03
	.byte		N04   , Fn4 , v120
	.byte	W01
	.byte	W04
	.byte		N03   , Fn4 , v032
	.byte	W03
	.byte		N04   , Fn4 , v120
	.byte	W05
	.byte		N03   , Fn4 , v032
	.byte	W03
	.byte		N04   , Gn4 , v120
	.byte	W16
	.byte		        As4 
	.byte	W08
	.byte		N32   , An4 , v100
	.byte	W32
	.byte	W01
	.byte	FINE

@*********************** Track 03 ***********************@

seq_204_2:
	.byte	KEYSH , seq_204_key+0
	.byte		VOICE , 48
	.byte	W01
	.byte		VOL   , 85*seq_204_mvl/mxv
	.byte	W01
	.byte		PAN   , c_v+20
	.byte	W01
	.byte		N04   , Cs4 , v120
	.byte	W05
	.byte		N03   , Cs4 , v032
	.byte	W03
	.byte		N04   , Cs4 , v120
	.byte	W01
	.byte	W04
	.byte		N03   , Cs4 , v032
	.byte	W03
	.byte		N04   , Cs4 , v120
	.byte	W05
	.byte		N03   , Cs4 , v032
	.byte	W03
	.byte		N04   , Ds4 , v120
	.byte	W16
	.byte		        Gn4 
	.byte	W08
	.byte		N32   , Fn4 , v100
	.byte	W32
	.byte	W01
	.byte	FINE

@******************************************************@

	.align	2

seq_204:
	.byte	3	@ NumTrks
	.byte	0	@ NumBlks
	.byte	seq_204_pri	@ Priority
	.byte	seq_204_rev	@ Reverb

	.word	seq_204_grp

	.word	seq_204_0
	.word	seq_204_1
	.word	seq_204_2

	.end
