@ File generated by m4a2s Song-Module
	.include "MPlayDef.s"

	.equ	seq_119_grp, bank_014
	.equ	seq_119_pri, 50
	.equ	seq_119_rev, 203
	.equ	seq_119_mvl, 127
	.equ	seq_119_key, 0

	.section .rodata
	.global	seq_119
	.align	2

@*********************** Track 01 ***********************@

seq_119_0:
	.byte	KEYSH , seq_119_key+0
	.byte	TEMPO , 90/2
	.byte		VOICE , 43
	.byte	W01
	.byte		VOL   , 103*seq_119_mvl/mxv
	.byte	W01
	.byte		PAN   , c_v+0
	.byte	W01
	.byte		LFOS  , 80
	.byte	W01
	.byte		MODT  , mod_pan
	.byte	W01
	.byte		MOD   , 20
	.byte	W01
	.byte		BENDR , 12
	.byte	W17
	.byte		VOL   , 0*seq_119_mvl/mxv
	.byte	W01
	.byte		TIE   , Cn1 , v120
	.byte	W02
	.byte		VOL   , 0*seq_119_mvl/mxv
	.byte	W04
	.byte		        4*seq_119_mvl/mxv
	.byte	W05
	.byte		        7*seq_119_mvl/mxv
	.byte	W04
	.byte		        11*seq_119_mvl/mxv
	.byte	W05
	.byte		        14*seq_119_mvl/mxv
	.byte	W04
	.byte		        18*seq_119_mvl/mxv
	.byte	W05
	.byte		        21*seq_119_mvl/mxv
	.byte	W04
	.byte		        25*seq_119_mvl/mxv
	.byte	W05
	.byte		        28*seq_119_mvl/mxv
	.byte	W05
	.byte		        32*seq_119_mvl/mxv
	.byte	W04
	.byte		        35*seq_119_mvl/mxv
	.byte	W05
	.byte		        38*seq_119_mvl/mxv
	.byte	W04
	.byte		        42*seq_119_mvl/mxv
	.byte	W05
	.byte		        45*seq_119_mvl/mxv
	.byte	W04
	.byte		        49*seq_119_mvl/mxv
	.byte	W03
	.byte		        51*seq_119_mvl/mxv
	.byte	W28
	.byte	W96
	.byte	W04
	.byte		BEND  , c_v-2
	.byte	W04
	.byte		        c_v-5
	.byte	W07
	.byte		        c_v-8
	.byte	W12
	.byte		        c_v-12
	.byte	W14
	.byte		        c_v-16
	.byte	W07
	.byte		        c_v-19
	.byte	W09
	.byte		        c_v-22
	.byte	W04
	.byte		        c_v-25
	.byte	W07
	.byte		        c_v-28
	.byte	W03
	.byte		        c_v-31
	.byte	W24
	.byte	W01
	.byte	PEND
	.byte	W04
	.byte		BEND  , c_v-26
	.byte	W09
	.byte		        c_v-23
	.byte	W09
	.byte		        c_v-20
	.byte	W07
	.byte		        c_v-17
	.byte	W07
	.byte		        c_v-13
	.byte	W09
	.byte		        c_v-10
	.byte	W07
	.byte		        c_v-7
	.byte	W05
	.byte		        c_v-4
	.byte	W10
	.byte		        c_v+0
	.byte	W28
	.byte	W01
	.byte	PEND
	.byte	W96
	.byte	W09
	.byte		BEND  , c_v-2
	.byte	W04
	.byte		        c_v-5
	.byte	W07
	.byte		        c_v-8
	.byte	W12
	.byte		        c_v-12
	.byte	W14
	.byte		        c_v-16
	.byte	W07
	.byte		        c_v-19
	.byte	W09
	.byte		        c_v-22
	.byte	W04
	.byte		        c_v-25
	.byte	W07
	.byte		        c_v-28
	.byte	W03
	.byte		        c_v-31
	.byte	W20
	.byte	PEND
	.byte	W09
	.byte		BEND  , c_v-26
	.byte	W09
	.byte		        c_v-23
	.byte	W09
	.byte		        c_v-20
	.byte	W07
	.byte		        c_v-17
	.byte	W07
	.byte		        c_v-13
	.byte	W09
	.byte		        c_v-10
	.byte	W07
	.byte		        c_v-7
	.byte	W05
	.byte		        c_v-4
	.byte	W10
	.byte		        c_v+0
	.byte	W24
	.byte	PEND
	.byte	W96
	.byte	W07
	.byte		BEND  , c_v+2
	.byte	W08
	.byte		        c_v+5
	.byte	W08
	.byte		        c_v+8
	.byte	W06
	.byte		        c_v+11
	.byte	W05
	.byte		        c_v+14
	.byte	W13
	.byte		        c_v+12
	.byte	W05
	.byte		        c_v+9
	.byte	W07
	.byte		        c_v+6
	.byte	W05
	.byte		        c_v+3
	.byte	W07
	.byte		        c_v+0
	.byte	W24
	.byte	W01
	.byte	PEND
	.byte	W78
	.byte		BEND  , c_v-2
	.byte	W04
	.byte		        c_v-5
	.byte	W07
	.byte		        c_v-8
	.byte	W07
	.byte	PEND
	.byte	W05
	.byte		BEND  , c_v-12
	.byte	W14
	.byte		        c_v-16
	.byte	W07
	.byte		        c_v-19
	.byte	W09
	.byte		        c_v-22
	.byte	W04
	.byte		        c_v-25
	.byte	W07
	.byte		        c_v-28
	.byte	W03
	.byte		        c_v-31
	.byte	W28
	.byte	W01
	.byte		        c_v-26
	.byte	W09
	.byte		        c_v-23
	.byte	W09
	.byte	PEND
	.byte		BEND  , c_v-20
	.byte	W07
	.byte		        c_v-17
	.byte	W07
	.byte		        c_v-13
	.byte	W09
	.byte		        c_v-10
	.byte	W07
	.byte		        c_v-7
	.byte	W05
	.byte		        c_v-4
	.byte	W10
	.byte		        c_v+0
	.byte	W48
	.byte	W03
	.byte	PEND
	.byte	W64
	.byte	W01
	.byte		BEND  , c_v+2
	.byte	W08
	.byte		        c_v+5
	.byte	W08
	.byte		        c_v+8
	.byte	W06
	.byte		        c_v+11
	.byte	W05
	.byte		        c_v+14
	.byte	W04
	.byte	PEND
	.byte	W09
	.byte		BEND  , c_v+12
	.byte	W05
	.byte		        c_v+9
	.byte	W07
	.byte		        c_v+6
	.byte	W05
	.byte		        c_v+3
	.byte	W07
	.byte		        c_v+0
	.byte	W60
	.byte	W03
	.byte	PEND
	.byte	W96
	.byte	W96
	.byte	PATT
	 .word	seq_119_0 + 0x42
	.byte	PATT
	 .word	seq_119_0 + 0x5A
	.byte	W96
	.byte	PATT
	 .word	seq_119_0 + 0x71
	.byte	PATT
	 .word	seq_119_0 + 0x88
	.byte	W96
	.byte	PATT
	 .word	seq_119_0 + 0x9E
	.byte	PATT
	 .word	seq_119_0 + 0xB6
	.byte	PATT
	 .word	seq_119_0 + 0xBF
	.byte	PATT
	 .word	seq_119_0 + 0xD5
	.byte	PATT
	 .word	seq_119_0 + 0xE6
	.byte	PATT
	 .word	seq_119_0 + 0xF4
	.byte	W96
	.byte	W96
	.byte	PATT
	 .word	seq_119_0 + 0x42
	.byte	PATT
	 .word	seq_119_0 + 0x5A
	.byte	W96
	.byte	PATT
	 .word	seq_119_0 + 0x71
	.byte	PATT
	 .word	seq_119_0 + 0x88
	.byte	W96
	.byte	PATT
	 .word	seq_119_0 + 0x9E
	.byte	PATT
	 .word	seq_119_0 + 0xB6
	.byte	PATT
	 .word	seq_119_0 + 0xBF
	.byte	PATT
	 .word	seq_119_0 + 0xD5
	.byte	PATT
	 .word	seq_119_0 + 0xE6
	.byte	PATT
	 .word	seq_119_0 + 0xF4
	.byte	W96
	.byte	W96
	.byte	PATT
	 .word	seq_119_0 + 0x42
	.byte	PATT
	 .word	seq_119_0 + 0x5A
	.byte	W96
	.byte	PATT
	 .word	seq_119_0 + 0x71
	.byte	PATT
	 .word	seq_119_0 + 0x88
	.byte	W96
	.byte	PATT
	 .word	seq_119_0 + 0x9E
	.byte	PATT
	 .word	seq_119_0 + 0xB6
	.byte	PATT
	 .word	seq_119_0 + 0xBF
	.byte	PATT
	 .word	seq_119_0 + 0xD5
	.byte	PATT
	 .word	seq_119_0 + 0xE6
	.byte	PATT
	 .word	seq_119_0 + 0xF4
	.byte	W96
	.byte	W96
	.byte	PATT
	 .word	seq_119_0 + 0x42
	.byte	PATT
	 .word	seq_119_0 + 0x5A
	.byte	W96
	.byte	PATT
	 .word	seq_119_0 + 0x71
	.byte	PATT
	 .word	seq_119_0 + 0x88
	.byte	W96
	.byte	PATT
	 .word	seq_119_0 + 0x9E
	.byte	PATT
	 .word	seq_119_0 + 0xB6
	.byte	PATT
	 .word	seq_119_0 + 0xBF
	.byte	PATT
	 .word	seq_119_0 + 0xD5
	.byte	PATT
	 .word	seq_119_0 + 0xE6
	.byte	PATT
	 .word	seq_119_0 + 0xF4
	.byte	W96
	.byte	W96
	.byte	PATT
	 .word	seq_119_0 + 0x42
	.byte	PATT
	 .word	seq_119_0 + 0x5A
	.byte	W96
	.byte	PATT
	 .word	seq_119_0 + 0x71
	.byte	PATT
	 .word	seq_119_0 + 0x88
	.byte	W96
	.byte	PATT
	 .word	seq_119_0 + 0x9E
	.byte	PATT
	 .word	seq_119_0 + 0xB6
	.byte	PATT
	 .word	seq_119_0 + 0xBF
	.byte	PATT
	 .word	seq_119_0 + 0xD5
	.byte	PATT
	 .word	seq_119_0 + 0xE6
	.byte	PATT
	 .word	seq_119_0 + 0xF4
	.byte	W96
	.byte	W96
	.byte	PATT
	 .word	seq_119_0 + 0x42
	.byte	PATT
	 .word	seq_119_0 + 0x5A
	.byte	W96
	.byte	PATT
	 .word	seq_119_0 + 0x71
	.byte	PATT
	 .word	seq_119_0 + 0x88
	.byte	W96
	.byte	PATT
	 .word	seq_119_0 + 0x9E
	.byte	PATT
	 .word	seq_119_0 + 0xB6
	.byte	PATT
	 .word	seq_119_0 + 0xBF
	.byte	PATT
	 .word	seq_119_0 + 0xD5
	.byte	PATT
	 .word	seq_119_0 + 0xE6
	.byte	PATT
	 .word	seq_119_0 + 0xF4
	.byte	W96
	.byte	W96
	.byte	PATT
	 .word	seq_119_0 + 0x42
	.byte	PATT
	 .word	seq_119_0 + 0x5A
	.byte	W96
	.byte	PATT
	 .word	seq_119_0 + 0x71
	.byte	PATT
	 .word	seq_119_0 + 0x88
	.byte	W96
	.byte	PATT
	 .word	seq_119_0 + 0x9E
	.byte	PATT
	 .word	seq_119_0 + 0xB6
	.byte	PATT
	 .word	seq_119_0 + 0xBF
	.byte	PATT
	 .word	seq_119_0 + 0xD5
	.byte	PATT
	 .word	seq_119_0 + 0xE6
	.byte	PATT
	 .word	seq_119_0 + 0xF4
	.byte	W96
	.byte	W96
	.byte	PATT
	 .word	seq_119_0 + 0x42
	.byte	PATT
	 .word	seq_119_0 + 0x5A
	.byte	W96
	.byte	PATT
	 .word	seq_119_0 + 0x71
	.byte	PATT
	 .word	seq_119_0 + 0x88
	.byte	W96
	.byte	PATT
	 .word	seq_119_0 + 0x9E
	.byte	PATT
	 .word	seq_119_0 + 0xB6
	.byte	PATT
	 .word	seq_119_0 + 0xBF
	.byte	PATT
	 .word	seq_119_0 + 0xD5
	.byte	PATT
	 .word	seq_119_0 + 0xE6
	.byte	PATT
	 .word	seq_119_0 + 0xF4
	.byte	W96
	.byte	W96
	.byte	PATT
	 .word	seq_119_0 + 0x42
	.byte	PATT
	 .word	seq_119_0 + 0x5A
	.byte	W96
	.byte	PATT
	 .word	seq_119_0 + 0x71
	.byte	PATT
	 .word	seq_119_0 + 0x88
	.byte	W96
	.byte	PATT
	 .word	seq_119_0 + 0x9E
	.byte	PATT
	 .word	seq_119_0 + 0xB6
	.byte	PATT
	 .word	seq_119_0 + 0xBF
	.byte	PATT
	 .word	seq_119_0 + 0xD5
	.byte	PATT
	 .word	seq_119_0 + 0xE6
	.byte	PATT
	 .word	seq_119_0 + 0xF4
	.byte	W96
	.byte	W96
	.byte	PATT
	 .word	seq_119_0 + 0x42
	.byte	PATT
	 .word	seq_119_0 + 0x5A
	.byte	W96
	.byte	PATT
	 .word	seq_119_0 + 0x71
	.byte	PATT
	 .word	seq_119_0 + 0x88
	.byte	W96
	.byte	PATT
	 .word	seq_119_0 + 0x9E
	.byte	PATT
	 .word	seq_119_0 + 0xB6
	.byte	PATT
	 .word	seq_119_0 + 0xBF
	.byte	PATT
	 .word	seq_119_0 + 0xD5
	.byte	PATT
	 .word	seq_119_0 + 0xE6
	.byte	PATT
	 .word	seq_119_0 + 0xF4
	.byte	W96
	.byte	W96
	.byte	PATT
	 .word	seq_119_0 + 0x42
	.byte	PATT
	 .word	seq_119_0 + 0x5A
	.byte	W96
	.byte	PATT
	 .word	seq_119_0 + 0x71
	.byte	PATT
	 .word	seq_119_0 + 0x88
	.byte	W96
	.byte	PATT
	 .word	seq_119_0 + 0x9E
	.byte	PATT
	 .word	seq_119_0 + 0xB6
	.byte	PATT
	 .word	seq_119_0 + 0xBF
	.byte	PATT
	 .word	seq_119_0 + 0xD5
	.byte	PATT
	 .word	seq_119_0 + 0xE6
	.byte	PATT
	 .word	seq_119_0 + 0xF4
	.byte	W96
	.byte	W96
	.byte	PATT
	 .word	seq_119_0 + 0x42
	.byte	PATT
	 .word	seq_119_0 + 0x5A
	.byte	W96
	.byte	PATT
	 .word	seq_119_0 + 0x71
	.byte	PATT
	 .word	seq_119_0 + 0x88
	.byte	W96
	.byte	PATT
	 .word	seq_119_0 + 0x9E
	.byte	PATT
	 .word	seq_119_0 + 0xB6
	.byte	PATT
	 .word	seq_119_0 + 0xBF
	.byte	PATT
	 .word	seq_119_0 + 0xD5
	.byte	PATT
	 .word	seq_119_0 + 0xE6
	.byte	PATT
	 .word	seq_119_0 + 0xF4
	.byte	W96
	.byte	W96
	.byte	PATT
	 .word	seq_119_0 + 0x42
	.byte	PATT
	 .word	seq_119_0 + 0x5A
	.byte	W96
	.byte	PATT
	 .word	seq_119_0 + 0x71
	.byte	PATT
	 .word	seq_119_0 + 0x88
	.byte	W96
	.byte	PATT
	 .word	seq_119_0 + 0x9E
	.byte	PATT
	 .word	seq_119_0 + 0xB6
	.byte	PATT
	 .word	seq_119_0 + 0xBF
	.byte	PATT
	 .word	seq_119_0 + 0xD5
	.byte	PATT
	 .word	seq_119_0 + 0xE6
	.byte	PATT
	 .word	seq_119_0 + 0xF4
	.byte	W96
	.byte	W96
	.byte	PATT
	 .word	seq_119_0 + 0x42
	.byte	PATT
	 .word	seq_119_0 + 0x5A
	.byte	W96
	.byte	PATT
	 .word	seq_119_0 + 0x71
	.byte	PATT
	 .word	seq_119_0 + 0x88
	.byte	W96
	.byte	PATT
	 .word	seq_119_0 + 0x9E
	.byte	PATT
	 .word	seq_119_0 + 0xB6
	.byte	PATT
	 .word	seq_119_0 + 0xBF
	.byte	PATT
	 .word	seq_119_0 + 0xD5
	.byte	PATT
	 .word	seq_119_0 + 0xE6
	.byte	PATT
	 .word	seq_119_0 + 0xF4
	.byte	W96
	.byte	W96
	.byte	PATT
	 .word	seq_119_0 + 0x42
	.byte	PATT
	 .word	seq_119_0 + 0x5A
	.byte	W96
	.byte	PATT
	 .word	seq_119_0 + 0x71
	.byte	PATT
	 .word	seq_119_0 + 0x88
	.byte	W96
	.byte	PATT
	 .word	seq_119_0 + 0x9E
	.byte	PATT
	 .word	seq_119_0 + 0xB6
	.byte	PATT
	 .word	seq_119_0 + 0xBF
	.byte	PATT
	 .word	seq_119_0 + 0xD5
	.byte	PATT
	 .word	seq_119_0 + 0xE6
	.byte	PATT
	 .word	seq_119_0 + 0xF4
	.byte	W96
	.byte	W96
	.byte	PATT
	 .word	seq_119_0 + 0x42
	.byte	PATT
	 .word	seq_119_0 + 0x5A
	.byte	W96
	.byte	PATT
	 .word	seq_119_0 + 0x71
	.byte	PATT
	 .word	seq_119_0 + 0x88
	.byte	W96
	.byte	PATT
	 .word	seq_119_0 + 0x9E
	.byte	PATT
	 .word	seq_119_0 + 0xB6
	.byte	W05
	.byte		BEND  , c_v-12
	.byte	W14
	.byte		        c_v-16
	.byte	W05
	.byte		VOL   , 51*seq_119_mvl/mxv
	.byte	W02
	.byte		BEND  , c_v-19
	.byte	W03
	.byte		VOL   , 47*seq_119_mvl/mxv
	.byte	W05
	.byte		        44*seq_119_mvl/mxv
	.byte	W01
	.byte		BEND  , c_v-22
	.byte	W03
	.byte		VOL   , 40*seq_119_mvl/mxv
	.byte	W01
	.byte		BEND  , c_v-25
	.byte	W04
	.byte		VOL   , 37*seq_119_mvl/mxv
	.byte	W03
	.byte		BEND  , c_v-28
	.byte	W02
	.byte		VOL   , 33*seq_119_mvl/mxv
	.byte	W01
	.byte		BEND  , c_v-31
	.byte	W03
	.byte		VOL   , 30*seq_119_mvl/mxv
	.byte	W05
	.byte		        26*seq_119_mvl/mxv
	.byte	W05
	.byte		        23*seq_119_mvl/mxv
	.byte	W04
	.byte		        19*seq_119_mvl/mxv
	.byte	W05
	.byte		        16*seq_119_mvl/mxv
	.byte	W05
	.byte		        12*seq_119_mvl/mxv
	.byte	W02
	.byte		BEND  , c_v-26
	.byte	W02
	.byte		VOL   , 9*seq_119_mvl/mxv
	.byte	W05
	.byte		        6*seq_119_mvl/mxv
	.byte	W02
	.byte		BEND  , c_v-23
	.byte	W03
	.byte		VOL   , 2*seq_119_mvl/mxv
	.byte	W03
	.byte		        0*seq_119_mvl/mxv
	.byte	W03
	.byte		EOT   , Cn1 
	.byte	GOTO
	 .word	seq_119_0 + 0x1C
	.byte	FINE

@*********************** Track 02 ***********************@

seq_119_1:
	.byte	KEYSH , seq_119_key+0
	.byte		VOICE , 41
	.byte	W01
	.byte		VOL   , 0*seq_119_mvl/mxv
	.byte	W01
	.byte		PAN   , c_v-64
	.byte	W01
	.byte		LFOS  , 30
	.byte	W01
	.byte		MODT  , mod_vib
	.byte	W01
	.byte		BENDR , 12
	.byte	W18
	.byte		VOL   , 0*seq_119_mvl/mxv
	.byte	W01
	.byte		TIE   , Cs2 , v060
	.byte	W08
	.byte		VOL   , 0*seq_119_mvl/mxv
	.byte	W01
	.byte		        1*seq_119_mvl/mxv
	.byte	W01
	.byte		        2*seq_119_mvl/mxv
	.byte	W01
	.byte		        3*seq_119_mvl/mxv
	.byte	W01
	.byte		        4*seq_119_mvl/mxv
	.byte	W01
	.byte		        5*seq_119_mvl/mxv
	.byte	W01
	.byte		        6*seq_119_mvl/mxv
	.byte	W01
	.byte		        6*seq_119_mvl/mxv
	.byte	W01
	.byte		        7*seq_119_mvl/mxv
	.byte	W01
	.byte		        8*seq_119_mvl/mxv
	.byte	W01
	.byte		        9*seq_119_mvl/mxv
	.byte	W01
	.byte		        10*seq_119_mvl/mxv
	.byte	W01
	.byte		        11*seq_119_mvl/mxv
	.byte	W01
	.byte		        12*seq_119_mvl/mxv
	.byte	W01
	.byte		        12*seq_119_mvl/mxv
	.byte	W01
	.byte		        14*seq_119_mvl/mxv
	.byte	W01
	.byte		        15*seq_119_mvl/mxv
	.byte	W01
	.byte		        16*seq_119_mvl/mxv
	.byte	W01
	.byte		        17*seq_119_mvl/mxv
	.byte	W01
	.byte		        18*seq_119_mvl/mxv
	.byte	W01
	.byte		        19*seq_119_mvl/mxv
	.byte	W01
	.byte		        19*seq_119_mvl/mxv
	.byte	W01
	.byte		        20*seq_119_mvl/mxv
	.byte	W01
	.byte		        21*seq_119_mvl/mxv
	.byte	W01
	.byte		        22*seq_119_mvl/mxv
	.byte	W01
	.byte		        23*seq_119_mvl/mxv
	.byte	W01
	.byte		        24*seq_119_mvl/mxv
	.byte	W01
	.byte		        25*seq_119_mvl/mxv
	.byte	W01
	.byte		        25*seq_119_mvl/mxv
	.byte	W60
	.byte	W96
	.byte	W96
	.byte	W96
	.byte	W96
	.byte	W96
	.byte	W96
	.byte	W96
	.byte	W96
	.byte	W96
	.byte	W96
	.byte	W96
	.byte	W96
	.byte	W96
	.byte	W96
	.byte	W96
	.byte	W96
	.byte	W96
	.byte	W96
	.byte	W96
	.byte	W96
	.byte	W96
	.byte	W96
	.byte	W96
	.byte	W96
	.byte	W96
	.byte	W96
	.byte	W96
	.byte	W96
	.byte	W96
	.byte	W96
	.byte	W96
	.byte	W96
	.byte	W96
	.byte	W96
	.byte	W96
	.byte	W96
	.byte	W96
	.byte	W96
	.byte	W96
	.byte	W96
	.byte	W96
	.byte	W96
	.byte	W96
	.byte	W96
	.byte	W96
	.byte	W96
	.byte	W96
	.byte	W96
	.byte	W96
	.byte	W96
	.byte	W96
	.byte	W96
	.byte	W96
	.byte	W96
	.byte	W96
	.byte	W96
	.byte	W96
	.byte	W96
	.byte	W96
	.byte	W96
	.byte	W96
	.byte	W96
	.byte	W96
	.byte	W96
	.byte	W96
	.byte	W96
	.byte	W96
	.byte	W96
	.byte	W96
	.byte	W96
	.byte	W96
	.byte	W96
	.byte	W96
	.byte	W96
	.byte	W96
	.byte	W96
	.byte	W96
	.byte	W96
	.byte	W96
	.byte	W96
	.byte	W96
	.byte	W96
	.byte	W96
	.byte	W96
	.byte	W96
	.byte	W96
	.byte	W96
	.byte	W96
	.byte	W96
	.byte	W96
	.byte	W96
	.byte	W96
	.byte	W96
	.byte	W96
	.byte	W96
	.byte	W96
	.byte	W96
	.byte	W96
	.byte	W96
	.byte	W96
	.byte	W96
	.byte	W96
	.byte	W96
	.byte	W96
	.byte	W96
	.byte	W96
	.byte	W96
	.byte	W96
	.byte	W96
	.byte	W96
	.byte	W96
	.byte	W96
	.byte	W96
	.byte	W96
	.byte	W96
	.byte	W96
	.byte	W96
	.byte	W96
	.byte	W96
	.byte	W96
	.byte	W96
	.byte	W96
	.byte	W96
	.byte	W96
	.byte	W96
	.byte	W96
	.byte	W96
	.byte	W96
	.byte	W96
	.byte	W96
	.byte	W96
	.byte	W96
	.byte	W96
	.byte	W96
	.byte	W96
	.byte	W96
	.byte	W96
	.byte	W96
	.byte	W96
	.byte	W96
	.byte	W96
	.byte	W96
	.byte	W96
	.byte	W96
	.byte	W96
	.byte	W96
	.byte	W96
	.byte	W96
	.byte	W96
	.byte	W96
	.byte	W96
	.byte	W96
	.byte	W96
	.byte	W96
	.byte	W96
	.byte	W96
	.byte	W96
	.byte	W96
	.byte	W96
	.byte	W96
	.byte	W96
	.byte	W96
	.byte	W96
	.byte	W96
	.byte	W96
	.byte	W96
	.byte	W96
	.byte	W96
	.byte	W96
	.byte	W96
	.byte	W96
	.byte	W96
	.byte	W96
	.byte	W96
	.byte	W96
	.byte	W96
	.byte	W96
	.byte	W96
	.byte	W96
	.byte	W96
	.byte	W96
	.byte	W96
	.byte	W96
	.byte	W96
	.byte	W96
	.byte	W96
	.byte	W96
	.byte	W96
	.byte	W96
	.byte	W96
	.byte	W96
	.byte	W96
	.byte	W96
	.byte	W96
	.byte	W96
	.byte	W96
	.byte	W96
	.byte	W96
	.byte	W96
	.byte	W96
	.byte	W96
	.byte	W96
	.byte	W96
	.byte	W96
	.byte	W96
	.byte	W96
	.byte	W96
	.byte	W96
	.byte	W96
	.byte	W96
	.byte	W96
	.byte	W96
	.byte	W96
	.byte	W96
	.byte	W96
	.byte	W96
	.byte	W96
	.byte	W96
	.byte	W96
	.byte	W96
	.byte	W96
	.byte	W96
	.byte	W96
	.byte	W96
	.byte	W96
	.byte	W96
	.byte	W96
	.byte	W96
	.byte	W96
	.byte	W96
	.byte	W96
	.byte	W96
	.byte	W96
	.byte	W48
	.byte	W02
	.byte		        25*seq_119_mvl/mxv
	.byte	W02
	.byte		        24*seq_119_mvl/mxv
	.byte	W01
	.byte		        23*seq_119_mvl/mxv
	.byte	W02
	.byte		        22*seq_119_mvl/mxv
	.byte	W01
	.byte		        21*seq_119_mvl/mxv
	.byte	W02
	.byte		        20*seq_119_mvl/mxv
	.byte	W01
	.byte		        19*seq_119_mvl/mxv
	.byte	W02
	.byte		        19*seq_119_mvl/mxv
	.byte	W01
	.byte		        18*seq_119_mvl/mxv
	.byte	W02
	.byte		        17*seq_119_mvl/mxv
	.byte	W01
	.byte		        16*seq_119_mvl/mxv
	.byte	W02
	.byte		        15*seq_119_mvl/mxv
	.byte	W01
	.byte		        14*seq_119_mvl/mxv
	.byte	W02
	.byte		        13*seq_119_mvl/mxv
	.byte	W01
	.byte		        12*seq_119_mvl/mxv
	.byte	W02
	.byte		        12*seq_119_mvl/mxv
	.byte	W01
	.byte		        11*seq_119_mvl/mxv
	.byte	W02
	.byte		        10*seq_119_mvl/mxv
	.byte	W01
	.byte		        9*seq_119_mvl/mxv
	.byte	W02
	.byte		        8*seq_119_mvl/mxv
	.byte	W01
	.byte		        7*seq_119_mvl/mxv
	.byte	W02
	.byte		        6*seq_119_mvl/mxv
	.byte	W01
	.byte		        6*seq_119_mvl/mxv
	.byte	W02
	.byte		        5*seq_119_mvl/mxv
	.byte	W01
	.byte		        4*seq_119_mvl/mxv
	.byte	W02
	.byte		        3*seq_119_mvl/mxv
	.byte	W01
	.byte		        2*seq_119_mvl/mxv
	.byte	W02
	.byte		        1*seq_119_mvl/mxv
	.byte	W01
	.byte		        0*seq_119_mvl/mxv
	.byte	W02
	.byte		        0*seq_119_mvl/mxv
	.byte	W02
	.byte		EOT
	.byte	GOTO
	 .word	seq_119_1 + 0x17
	.byte	FINE

@*********************** Track 03 ***********************@

seq_119_2:
	.byte	KEYSH , seq_119_key+0
	.byte		VOICE , 41
	.byte	W01
	.byte		VOL   , 0*seq_119_mvl/mxv
	.byte	W01
	.byte		PAN   , c_v+63
	.byte	W01
	.byte		LFOS  , 100
	.byte	W01
	.byte		MODT  , mod_pan
	.byte	W01
	.byte		MOD   , 60
	.byte	W01
	.byte		BENDR , 12
	.byte	W17
	.byte		VOL   , 0*seq_119_mvl/mxv
	.byte	W01
	.byte		TIE   , Fn1 , v120
	.byte	W11
	.byte		VOL   , 3*seq_119_mvl/mxv
	.byte	W04
	.byte		        6*seq_119_mvl/mxv
	.byte	W04
	.byte		        10*seq_119_mvl/mxv
	.byte	W04
	.byte		        14*seq_119_mvl/mxv
	.byte	W04
	.byte		        18*seq_119_mvl/mxv
	.byte	W04
	.byte		        21*seq_119_mvl/mxv
	.byte	W04
	.byte		        25*seq_119_mvl/mxv
	.byte	W60
	.byte	W01
	.byte	W96
	.byte	W96
	.byte	W96
	.byte	W96
	.byte	W96
	.byte	W96
	.byte	W96
	.byte	W96
	.byte	W96
	.byte	W96
	.byte	W96
	.byte	W96
	.byte	W96
	.byte	W96
	.byte	W96
	.byte	W96
	.byte	W96
	.byte	W96
	.byte	W96
	.byte	W96
	.byte	W96
	.byte	W96
	.byte	W96
	.byte	W96
	.byte	W96
	.byte	W96
	.byte	W96
	.byte	W96
	.byte	W96
	.byte	W96
	.byte	W96
	.byte	W96
	.byte	W96
	.byte	W96
	.byte	W96
	.byte	W96
	.byte	W96
	.byte	W96
	.byte	W96
	.byte	W96
	.byte	W96
	.byte	W96
	.byte	W96
	.byte	W96
	.byte	W96
	.byte	W96
	.byte	W96
	.byte	W96
	.byte	W96
	.byte	W96
	.byte	W96
	.byte	W96
	.byte	W96
	.byte	W96
	.byte	W96
	.byte	W96
	.byte	W96
	.byte	W96
	.byte	W96
	.byte	W96
	.byte	W96
	.byte	W96
	.byte	W96
	.byte	W96
	.byte	W96
	.byte	W96
	.byte	W96
	.byte	W96
	.byte	W96
	.byte	W96
	.byte	W96
	.byte	W96
	.byte	W96
	.byte	W96
	.byte	W96
	.byte	W96
	.byte	W96
	.byte	W96
	.byte	W96
	.byte	W96
	.byte	W96
	.byte	W96
	.byte	W96
	.byte	W96
	.byte	W96
	.byte	W96
	.byte	W96
	.byte	W96
	.byte	W96
	.byte	W96
	.byte	W96
	.byte	W96
	.byte	W96
	.byte	W96
	.byte	W96
	.byte	W96
	.byte	W96
	.byte	W96
	.byte	W96
	.byte	W96
	.byte	W96
	.byte	W96
	.byte	W96
	.byte	W96
	.byte	W96
	.byte	W96
	.byte	W96
	.byte	W96
	.byte	W96
	.byte	W96
	.byte	W96
	.byte	W96
	.byte	W96
	.byte	W96
	.byte	W96
	.byte	W96
	.byte	W96
	.byte	W96
	.byte	W96
	.byte	W96
	.byte	W96
	.byte	W96
	.byte	W96
	.byte	W96
	.byte	W96
	.byte	W96
	.byte	W96
	.byte	W96
	.byte	W96
	.byte	W96
	.byte	W96
	.byte	W96
	.byte	W96
	.byte	W96
	.byte	W96
	.byte	W96
	.byte	W96
	.byte	W96
	.byte	W96
	.byte	W96
	.byte	W96
	.byte	W96
	.byte	W96
	.byte	W96
	.byte	W96
	.byte	W96
	.byte	W96
	.byte	W96
	.byte	W96
	.byte	W96
	.byte	W96
	.byte	W96
	.byte	W96
	.byte	W96
	.byte	W96
	.byte	W96
	.byte	W96
	.byte	W96
	.byte	W96
	.byte	W96
	.byte	W96
	.byte	W96
	.byte	W96
	.byte	W96
	.byte	W96
	.byte	W96
	.byte	W96
	.byte	W96
	.byte	W96
	.byte	W96
	.byte	W96
	.byte	W96
	.byte	W96
	.byte	W96
	.byte	W96
	.byte	W96
	.byte	W96
	.byte	W96
	.byte	W96
	.byte	W96
	.byte	W96
	.byte	W96
	.byte	W96
	.byte	W96
	.byte	W96
	.byte	W96
	.byte	W96
	.byte	W96
	.byte	W96
	.byte	W96
	.byte	W96
	.byte	W96
	.byte	W96
	.byte	W96
	.byte	W96
	.byte	W96
	.byte	W96
	.byte	W96
	.byte	W96
	.byte	W96
	.byte	W96
	.byte	W96
	.byte	W96
	.byte	W96
	.byte	W96
	.byte	W96
	.byte	W96
	.byte	W96
	.byte	W96
	.byte	W96
	.byte	W96
	.byte	W96
	.byte	W96
	.byte	W96
	.byte	W96
	.byte	W96
	.byte	W96
	.byte	W96
	.byte	W96
	.byte	W96
	.byte	W96
	.byte	W96
	.byte	W96
	.byte	W96
	.byte	W96
	.byte	W96
	.byte	W96
	.byte	W96
	.byte	W96
	.byte	W96
	.byte	W96
	.byte	W96
	.byte	W96
	.byte	W48
	.byte	W02
	.byte		        25*seq_119_mvl/mxv
	.byte	W06
	.byte		        21*seq_119_mvl/mxv
	.byte	W06
	.byte		        18*seq_119_mvl/mxv
	.byte	W06
	.byte		        14*seq_119_mvl/mxv
	.byte	W06
	.byte		        11*seq_119_mvl/mxv
	.byte	W06
	.byte		        7*seq_119_mvl/mxv
	.byte	W06
	.byte		        4*seq_119_mvl/mxv
	.byte	W08
	.byte		        0*seq_119_mvl/mxv
	.byte	W02
	.byte		EOT
	.byte	GOTO
	 .word	seq_119_2 + 0x1A
	.byte	FINE

@*********************** Track 04 ***********************@

seq_119_3:
	.byte	KEYSH , seq_119_key+0
	.byte	W06
	.byte		VOICE , 30
	.byte	W01
	.byte		VOL   , 0*seq_119_mvl/mxv
	.byte	W01
	.byte		PAN   , c_v+0
	.byte	W01
	.byte		LFOS  , 1
	.byte	W01
	.byte		MODT  , mod_pan
	.byte	W01
	.byte		MOD   , 120
	.byte	W13
	.byte	W96
	.byte	W02
	.byte		VOL   , 8*seq_119_mvl/mxv
	.byte	W01
	.byte		N02   , Cn4 , v040
	.byte	W02
	.byte		VOL   , 17*seq_119_mvl/mxv
	.byte	W01
	.byte		N02   , Fn4 , v020
	.byte	W02
	.byte		VOL   , 30*seq_119_mvl/mxv
	.byte	W01
	.byte		N02   , Fn4 , v040
	.byte	W02
	.byte		VOL   , 38*seq_119_mvl/mxv
	.byte	W01
	.byte		N02   , Ds4 , v020
	.byte	W02
	.byte		VOL   , 47*seq_119_mvl/mxv
	.byte	W01
	.byte		N02   , Ds4 , v040
	.byte	W02
	.byte		VOL   , 64*seq_119_mvl/mxv
	.byte	W01
	.byte		N02   , As4 
	.byte	W03
	.byte		N02
	.byte	W03
	.byte		        Cn4 
	.byte	W03
	.byte		N02
	.byte	W03
	.byte		        Ds5 
	.byte	W03
	.byte		N02
	.byte	W03
	.byte		        Ds4 , v060
	.byte	W03
	.byte		        Ds4 , v040
	.byte	W03
	.byte		        Fn4 , v060
	.byte	W03
	.byte		        Fn4 , v040
	.byte	W03
	.byte		        Cn4 , v080
	.byte	W03
	.byte		        Cn4 , v040
	.byte	W03
	.byte		        As4 , v080
	.byte	W03
	.byte		        As4 , v040
	.byte	W03
	.byte		        Ds4 , v080
	.byte	W03
	.byte		        Ds4 , v040
	.byte	W03
	.byte		        Ds5 , v080
	.byte	W03
	.byte		        Ds5 , v040
	.byte	W03
	.byte		        Cn4 , v100
	.byte	W03
	.byte		        Cn4 , v040
	.byte	W03
	.byte		        Fn4 , v100
	.byte	W03
	.byte		        Fn4 , v040
	.byte	W03
	.byte		        Ds4 , v120
	.byte	W03
	.byte		        Ds4 , v040
	.byte	W03
	.byte		        As4 , v120
	.byte	W03
	.byte		        As4 , v040
	.byte	W03
	.byte	PEND
	.byte		N02   , Cn4 , v120
	.byte	W03
	.byte		        Cn4 , v040
	.byte	W03
	.byte		        Fn4 , v120
	.byte	W03
	.byte		        Fn4 , v040
	.byte	W03
	.byte		        Ds4 , v100
	.byte	W03
	.byte		        Ds4 , v040
	.byte	W03
	.byte		        As4 , v100
	.byte	W03
	.byte		        As4 , v040
	.byte	W03
	.byte		        Cn4 , v100
	.byte	W03
	.byte		        Cn4 , v040
	.byte	W03
	.byte		        Ds5 , v080
	.byte	W03
	.byte		        Ds5 , v040
	.byte	W01
	.byte		        Ds6 , v020
	.byte	W02
	.byte		        Ds4 , v080
	.byte	W03
	.byte		        Ds4 , v040
	.byte	W03
	.byte		        Fn4 , v080
	.byte	W03
	.byte		        Fn4 , v040
	.byte	W03
	.byte		        Cn4 , v060
	.byte	W03
	.byte		        Cn4 , v040
	.byte	W03
	.byte		        As4 , v060
	.byte	W03
	.byte		        As4 , v040
	.byte	W03
	.byte		        Ds4 
	.byte	W03
	.byte		N02
	.byte	W03
	.byte		        Ds5 
	.byte	W03
	.byte		N02
	.byte	W03
	.byte		        Cn4 
	.byte	W03
	.byte		N02
	.byte	W03
	.byte		        Fn4 , v020
	.byte	W03
	.byte		        Fn4 , v040
	.byte	W03
	.byte		        Ds4 , v020
	.byte	W03
	.byte		        Ds4 , v040
	.byte	W03
	.byte		        As4 , v020
	.byte	W03
	.byte		        As4 , v040
	.byte	W03
	.byte	PEND
	.byte		N02   , Cn4 , v020
	.byte	W03
	.byte		        Cn4 , v040
	.byte	W03
	.byte		        Fn4 , v020
	.byte	W03
	.byte		        Fn4 , v040
	.byte	W03
	.byte		        Ds4 , v020
	.byte	W03
	.byte		        Ds4 , v040
	.byte	W03
	.byte		        As4 
	.byte	W03
	.byte		N02
	.byte	W03
	.byte		        Cn4 
	.byte	W03
	.byte		N02
	.byte	W03
	.byte		        Ds5 
	.byte	W03
	.byte		N02
	.byte	W03
	.byte		        Ds4 , v060
	.byte	W03
	.byte		        Ds4 , v040
	.byte	W03
	.byte		        Fn4 , v060
	.byte	W03
	.byte		        Fn4 , v040
	.byte	W03
	.byte		        Cn4 , v080
	.byte	W03
	.byte		        Cn4 , v040
	.byte	W03
	.byte		        As4 , v080
	.byte	W03
	.byte		        As4 , v040
	.byte	W03
	.byte		        Ds4 , v080
	.byte	W03
	.byte		        Ds4 , v040
	.byte	W03
	.byte		        Ds5 , v080
	.byte	W03
	.byte		        Ds5 , v040
	.byte	W03
	.byte		        Cn4 , v100
	.byte	W03
	.byte		        Cn4 , v040
	.byte	W03
	.byte		        Fn4 , v100
	.byte	W03
	.byte		        Fn4 , v040
	.byte	W03
	.byte		        Ds4 , v120
	.byte	W03
	.byte		        Ds4 , v040
	.byte	W03
	.byte		        As4 , v120
	.byte	W03
	.byte		        As4 , v040
	.byte	W03
	.byte	PEND
	.byte		N02   , Cn4 , v120
	.byte	W03
	.byte		        Cn4 , v040
	.byte	W03
	.byte		        Fn4 , v120
	.byte	W03
	.byte		        Fn4 , v040
	.byte	W03
	.byte		        Ds4 , v100
	.byte	W03
	.byte		        Ds4 , v040
	.byte	W03
	.byte		        As4 , v100
	.byte	W03
	.byte		        As4 , v040
	.byte	W03
	.byte		        Cn4 , v100
	.byte	W03
	.byte		        Cn4 , v040
	.byte	W03
	.byte		        Ds5 , v080
	.byte	W03
	.byte		        Ds5 , v040
	.byte	W03
	.byte		        Ds4 , v080
	.byte	W03
	.byte		        Ds4 , v040
	.byte	W03
	.byte		        Fn4 , v080
	.byte	W03
	.byte		        Fn4 , v040
	.byte	W03
	.byte		        Cn4 , v060
	.byte	W03
	.byte		        Cn4 , v040
	.byte	W03
	.byte		        As4 , v060
	.byte	W03
	.byte		        As4 , v040
	.byte	W03
	.byte		        Ds4 
	.byte	W03
	.byte		N02
	.byte	W03
	.byte		        Ds5 
	.byte	W03
	.byte		N02
	.byte	W03
	.byte		        Cn4 
	.byte	W03
	.byte		N02
	.byte	W03
	.byte		        Fn4 , v020
	.byte	W03
	.byte		        Fn4 , v040
	.byte	W03
	.byte		        Ds4 , v020
	.byte	W03
	.byte		        Ds4 , v040
	.byte	W03
	.byte		        As4 , v020
	.byte	W03
	.byte		        As4 , v040
	.byte	W03
	.byte	PEND
	.byte		N02   , Bn3 , v020
	.byte	W03
	.byte		        Bn3 , v040
	.byte	W03
	.byte		        En4 , v020
	.byte	W03
	.byte		        En4 , v040
	.byte	W03
	.byte		        Dn4 , v020
	.byte	W03
	.byte		        Dn4 , v040
	.byte	W03
	.byte		        An4 
	.byte	W03
	.byte		N02
	.byte	W03
	.byte		        Bn3 
	.byte	W03
	.byte		N02
	.byte	W03
	.byte		        Dn5 
	.byte	W03
	.byte		N02
	.byte	W03
	.byte		        Dn4 , v060
	.byte	W03
	.byte		        Dn4 , v040
	.byte	W03
	.byte		        En4 , v060
	.byte	W03
	.byte		        En4 , v040
	.byte	W03
	.byte		        Bn3 , v080
	.byte	W03
	.byte		        Bn3 , v040
	.byte	W03
	.byte		        An4 , v080
	.byte	W03
	.byte		        An4 , v040
	.byte	W03
	.byte		        Dn4 , v080
	.byte	W03
	.byte		        Dn4 , v040
	.byte	W03
	.byte		        Dn5 , v080
	.byte	W03
	.byte		        Dn5 , v040
	.byte	W03
	.byte		        Bn3 , v100
	.byte	W03
	.byte		        Bn3 , v040
	.byte	W03
	.byte		        En4 , v100
	.byte	W03
	.byte		        En4 , v040
	.byte	W03
	.byte		        Dn4 , v120
	.byte	W03
	.byte		        Dn4 , v040
	.byte	W03
	.byte		        An4 , v120
	.byte	W03
	.byte		        An4 , v040
	.byte	W03
	.byte	PEND
	.byte		N02   , Bn3 , v120
	.byte	W03
	.byte		        Bn3 , v040
	.byte	W03
	.byte		        En4 , v120
	.byte	W03
	.byte		        En4 , v040
	.byte	W03
	.byte		        Dn4 , v100
	.byte	W03
	.byte		        Dn4 , v040
	.byte	W03
	.byte		        An4 , v100
	.byte	W03
	.byte		        An4 , v040
	.byte	W03
	.byte		        Bn3 , v100
	.byte	W03
	.byte		        Bn3 , v040
	.byte	W03
	.byte		        Dn5 , v080
	.byte	W03
	.byte		        Dn5 , v040
	.byte	W03
	.byte		        Dn4 , v080
	.byte	W03
	.byte		        Dn4 , v040
	.byte	W03
	.byte		        En4 , v080
	.byte	W03
	.byte		        En4 , v040
	.byte	W03
	.byte		        Bn3 , v060
	.byte	W03
	.byte		        Bn3 , v040
	.byte	W03
	.byte		        An4 , v060
	.byte	W03
	.byte		        An4 , v040
	.byte	W03
	.byte		        Dn4 
	.byte	W03
	.byte		N02
	.byte	W03
	.byte		        Dn5 
	.byte	W03
	.byte		N02
	.byte	W03
	.byte		        Bn3 
	.byte	W03
	.byte		N02
	.byte	W03
	.byte		        En4 , v020
	.byte	W03
	.byte		        En4 , v040
	.byte	W03
	.byte		        Dn4 , v020
	.byte	W03
	.byte		        Dn4 , v040
	.byte	W03
	.byte		        An4 , v020
	.byte	W03
	.byte		        An4 , v040
	.byte	W03
	.byte	PEND
	.byte	PATT
	 .word	seq_119_3 + 0x19E
	.byte	PATT
	 .word	seq_119_3 + 0x1FA
	.byte	PATT
	 .word	seq_119_3 + 0x16
	.byte	PATT
	 .word	seq_119_3 + 0x87
	.byte	PATT
	 .word	seq_119_3 + 0xE6
	.byte	PATT
	 .word	seq_119_3 + 0x142
	.byte	PATT
	 .word	seq_119_3 + 0x19E
	.byte	PATT
	 .word	seq_119_3 + 0x1FA
	.byte	PATT
	 .word	seq_119_3 + 0x19E
	.byte	PATT
	 .word	seq_119_3 + 0x1FA
	.byte	PATT
	 .word	seq_119_3 + 0x16
	.byte	PATT
	 .word	seq_119_3 + 0x87
	.byte	PATT
	 .word	seq_119_3 + 0xE6
	.byte	PATT
	 .word	seq_119_3 + 0x142
	.byte	PATT
	 .word	seq_119_3 + 0x19E
	.byte	PATT
	 .word	seq_119_3 + 0x1FA
	.byte	PATT
	 .word	seq_119_3 + 0x19E
	.byte	PATT
	 .word	seq_119_3 + 0x1FA
	.byte	PATT
	 .word	seq_119_3 + 0x16
	.byte	PATT
	 .word	seq_119_3 + 0x87
	.byte	PATT
	 .word	seq_119_3 + 0xE6
	.byte	PATT
	 .word	seq_119_3 + 0x142
	.byte	PATT
	 .word	seq_119_3 + 0x19E
	.byte	PATT
	 .word	seq_119_3 + 0x1FA
	.byte	PATT
	 .word	seq_119_3 + 0x19E
	.byte	PATT
	 .word	seq_119_3 + 0x1FA
	.byte	PATT
	 .word	seq_119_3 + 0x16
	.byte	PATT
	 .word	seq_119_3 + 0x87
	.byte	PATT
	 .word	seq_119_3 + 0xE6
	.byte	PATT
	 .word	seq_119_3 + 0x142
	.byte	PATT
	 .word	seq_119_3 + 0x19E
	.byte	PATT
	 .word	seq_119_3 + 0x1FA
	.byte	PATT
	 .word	seq_119_3 + 0x19E
	.byte	PATT
	 .word	seq_119_3 + 0x1FA
	.byte	PATT
	 .word	seq_119_3 + 0x16
	.byte	PATT
	 .word	seq_119_3 + 0x87
	.byte	PATT
	 .word	seq_119_3 + 0xE6
	.byte	PATT
	 .word	seq_119_3 + 0x142
	.byte	PATT
	 .word	seq_119_3 + 0x19E
	.byte	PATT
	 .word	seq_119_3 + 0x1FA
	.byte	PATT
	 .word	seq_119_3 + 0x19E
	.byte	PATT
	 .word	seq_119_3 + 0x1FA
	.byte	PATT
	 .word	seq_119_3 + 0x16
	.byte	PATT
	 .word	seq_119_3 + 0x87
	.byte	PATT
	 .word	seq_119_3 + 0xE6
	.byte	PATT
	 .word	seq_119_3 + 0x142
	.byte	PATT
	 .word	seq_119_3 + 0x19E
	.byte	PATT
	 .word	seq_119_3 + 0x1FA
	.byte	PATT
	 .word	seq_119_3 + 0x19E
	.byte	PATT
	 .word	seq_119_3 + 0x1FA
	.byte	PATT
	 .word	seq_119_3 + 0x16
	.byte	PATT
	 .word	seq_119_3 + 0x87
	.byte	PATT
	 .word	seq_119_3 + 0xE6
	.byte	PATT
	 .word	seq_119_3 + 0x142
	.byte	PATT
	 .word	seq_119_3 + 0x19E
	.byte	PATT
	 .word	seq_119_3 + 0x1FA
	.byte	PATT
	 .word	seq_119_3 + 0x19E
	.byte	PATT
	 .word	seq_119_3 + 0x1FA
	.byte	PATT
	 .word	seq_119_3 + 0x16
	.byte	PATT
	 .word	seq_119_3 + 0x87
	.byte	PATT
	 .word	seq_119_3 + 0xE6
	.byte	PATT
	 .word	seq_119_3 + 0x142
	.byte	PATT
	 .word	seq_119_3 + 0x19E
	.byte	PATT
	 .word	seq_119_3 + 0x1FA
	.byte	PATT
	 .word	seq_119_3 + 0x19E
	.byte	PATT
	 .word	seq_119_3 + 0x1FA
	.byte	PATT
	 .word	seq_119_3 + 0x16
	.byte	PATT
	 .word	seq_119_3 + 0x87
	.byte	PATT
	 .word	seq_119_3 + 0xE6
	.byte	PATT
	 .word	seq_119_3 + 0x142
	.byte	PATT
	 .word	seq_119_3 + 0x19E
	.byte	PATT
	 .word	seq_119_3 + 0x1FA
	.byte	PATT
	 .word	seq_119_3 + 0x19E
	.byte	PATT
	 .word	seq_119_3 + 0x1FA
	.byte	PATT
	 .word	seq_119_3 + 0x16
	.byte	PATT
	 .word	seq_119_3 + 0x87
	.byte	PATT
	 .word	seq_119_3 + 0xE6
	.byte	PATT
	 .word	seq_119_3 + 0x142
	.byte	PATT
	 .word	seq_119_3 + 0x19E
	.byte	PATT
	 .word	seq_119_3 + 0x1FA
	.byte	PATT
	 .word	seq_119_3 + 0x19E
	.byte	PATT
	 .word	seq_119_3 + 0x1FA
	.byte	PATT
	 .word	seq_119_3 + 0x16
	.byte	PATT
	 .word	seq_119_3 + 0x87
	.byte	PATT
	 .word	seq_119_3 + 0xE6
	.byte	PATT
	 .word	seq_119_3 + 0x142
	.byte	PATT
	 .word	seq_119_3 + 0x19E
	.byte	PATT
	 .word	seq_119_3 + 0x1FA
	.byte	PATT
	 .word	seq_119_3 + 0x19E
	.byte	PATT
	 .word	seq_119_3 + 0x1FA
	.byte	PATT
	 .word	seq_119_3 + 0x16
	.byte	PATT
	 .word	seq_119_3 + 0x87
	.byte	PATT
	 .word	seq_119_3 + 0xE6
	.byte	PATT
	 .word	seq_119_3 + 0x142
	.byte	PATT
	 .word	seq_119_3 + 0x19E
	.byte	PATT
	 .word	seq_119_3 + 0x1FA
	.byte	PATT
	 .word	seq_119_3 + 0x19E
	.byte	PATT
	 .word	seq_119_3 + 0x1FA
	.byte	PATT
	 .word	seq_119_3 + 0x16
	.byte	PATT
	 .word	seq_119_3 + 0x87
	.byte	PATT
	 .word	seq_119_3 + 0xE6
	.byte	PATT
	 .word	seq_119_3 + 0x142
	.byte	PATT
	 .word	seq_119_3 + 0x19E
	.byte	PATT
	 .word	seq_119_3 + 0x1FA
	.byte	PATT
	 .word	seq_119_3 + 0x19E
	.byte	PATT
	 .word	seq_119_3 + 0x1FA
	.byte	PATT
	 .word	seq_119_3 + 0x16
	.byte	PATT
	 .word	seq_119_3 + 0x87
	.byte	PATT
	 .word	seq_119_3 + 0xE6
	.byte	PATT
	 .word	seq_119_3 + 0x142
	.byte	PATT
	 .word	seq_119_3 + 0x19E
	.byte	PATT
	 .word	seq_119_3 + 0x1FA
	.byte	PATT
	 .word	seq_119_3 + 0x19E
	.byte	PATT
	 .word	seq_119_3 + 0x1FA
	.byte	PATT
	 .word	seq_119_3 + 0x16
	.byte	PATT
	 .word	seq_119_3 + 0x87
	.byte	PATT
	 .word	seq_119_3 + 0xE6
	.byte	PATT
	 .word	seq_119_3 + 0x142
	.byte	PATT
	 .word	seq_119_3 + 0x19E
	.byte	PATT
	 .word	seq_119_3 + 0x1FA
	.byte	PATT
	 .word	seq_119_3 + 0x19E
	.byte	PATT
	 .word	seq_119_3 + 0x1FA
	.byte	PATT
	 .word	seq_119_3 + 0x16
	.byte	PATT
	 .word	seq_119_3 + 0x87
	.byte	PATT
	 .word	seq_119_3 + 0xE6
	.byte	PATT
	 .word	seq_119_3 + 0x142
	.byte	PATT
	 .word	seq_119_3 + 0x19E
	.byte	PATT
	 .word	seq_119_3 + 0x1FA
	.byte	PATT
	 .word	seq_119_3 + 0x19E
	.byte	PATT
	 .word	seq_119_3 + 0x1FA
	.byte	PATT
	 .word	seq_119_3 + 0x16
	.byte	PATT
	 .word	seq_119_3 + 0x87
	.byte	PATT
	 .word	seq_119_3 + 0xE6
	.byte	PATT
	 .word	seq_119_3 + 0x142
	.byte	PATT
	 .word	seq_119_3 + 0x19E
	.byte	PATT
	 .word	seq_119_3 + 0x1FA
	.byte	PATT
	 .word	seq_119_3 + 0x19E
	.byte	PATT
	 .word	seq_119_3 + 0x1FA
	.byte	PATT
	 .word	seq_119_3 + 0x16
	.byte	PATT
	 .word	seq_119_3 + 0x87
	.byte	PATT
	 .word	seq_119_3 + 0xE6
	.byte	PATT
	 .word	seq_119_3 + 0x142
	.byte	PATT
	 .word	seq_119_3 + 0x19E
	.byte	PATT
	 .word	seq_119_3 + 0x1FA
	.byte	PATT
	 .word	seq_119_3 + 0x19E
	.byte	PATT
	 .word	seq_119_3 + 0x1FA
	.byte	PATT
	 .word	seq_119_3 + 0x16
	.byte	PATT
	 .word	seq_119_3 + 0x87
	.byte	PATT
	 .word	seq_119_3 + 0xE6
	.byte	PATT
	 .word	seq_119_3 + 0x142
	.byte	PATT
	 .word	seq_119_3 + 0x19E
	.byte	PATT
	 .word	seq_119_3 + 0x1FA
	.byte	PATT
	 .word	seq_119_3 + 0x19E
	.byte	PATT
	 .word	seq_119_3 + 0x1FA
	.byte	PATT
	 .word	seq_119_3 + 0x16
	.byte	PATT
	 .word	seq_119_3 + 0x87
	.byte	PATT
	 .word	seq_119_3 + 0xE6
	.byte	PATT
	 .word	seq_119_3 + 0x142
	.byte	PATT
	 .word	seq_119_3 + 0x19E
	.byte	PATT
	 .word	seq_119_3 + 0x1FA
	.byte	PATT
	 .word	seq_119_3 + 0x19E
	.byte	PATT
	 .word	seq_119_3 + 0x1FA
	.byte	PATT
	 .word	seq_119_3 + 0x16
	.byte	PATT
	 .word	seq_119_3 + 0x87
	.byte	PATT
	 .word	seq_119_3 + 0xE6
	.byte	PATT
	 .word	seq_119_3 + 0x142
	.byte	PATT
	 .word	seq_119_3 + 0x19E
	.byte	PATT
	 .word	seq_119_3 + 0x1FA
	.byte	PATT
	 .word	seq_119_3 + 0x19E
	.byte	PATT
	 .word	seq_119_3 + 0x1FA
	.byte	PATT
	 .word	seq_119_3 + 0x16
	.byte	PATT
	 .word	seq_119_3 + 0x87
	.byte	PATT
	 .word	seq_119_3 + 0xE6
	.byte	PATT
	 .word	seq_119_3 + 0x142
	.byte	PATT
	 .word	seq_119_3 + 0x19E
	.byte	PATT
	 .word	seq_119_3 + 0x1FA
	.byte	PATT
	 .word	seq_119_3 + 0x19E
	.byte	PATT
	 .word	seq_119_3 + 0x1FA
	.byte	PATT
	 .word	seq_119_3 + 0x16
	.byte	PATT
	 .word	seq_119_3 + 0x87
	.byte	PATT
	 .word	seq_119_3 + 0xE6
	.byte	PATT
	 .word	seq_119_3 + 0x142
	.byte	PATT
	 .word	seq_119_3 + 0x19E
	.byte	PATT
	 .word	seq_119_3 + 0x1FA
	.byte	PATT
	 .word	seq_119_3 + 0x19E
	.byte	PATT
	 .word	seq_119_3 + 0x1FA
	.byte	PATT
	 .word	seq_119_3 + 0x16
	.byte	PATT
	 .word	seq_119_3 + 0x87
	.byte	PATT
	 .word	seq_119_3 + 0xE6
	.byte	PATT
	 .word	seq_119_3 + 0x142
	.byte	PATT
	 .word	seq_119_3 + 0x19E
	.byte	PATT
	 .word	seq_119_3 + 0x1FA
	.byte	PATT
	 .word	seq_119_3 + 0x19E
	.byte	PATT
	 .word	seq_119_3 + 0x1FA
	.byte	PATT
	 .word	seq_119_3 + 0x16
	.byte	PATT
	 .word	seq_119_3 + 0x87
	.byte	PATT
	 .word	seq_119_3 + 0xE6
	.byte	PATT
	 .word	seq_119_3 + 0x142
	.byte	PATT
	 .word	seq_119_3 + 0x19E
	.byte	PATT
	 .word	seq_119_3 + 0x1FA
	.byte	PATT
	 .word	seq_119_3 + 0x19E
	.byte	PATT
	 .word	seq_119_3 + 0x1FA
	.byte	PATT
	 .word	seq_119_3 + 0x16
	.byte	PATT
	 .word	seq_119_3 + 0x87
	.byte	PATT
	 .word	seq_119_3 + 0xE6
	.byte	PATT
	 .word	seq_119_3 + 0x142
	.byte	PATT
	 .word	seq_119_3 + 0x19E
	.byte	PATT
	 .word	seq_119_3 + 0x1FA
	.byte	PATT
	 .word	seq_119_3 + 0x19E
	.byte	PATT
	 .word	seq_119_3 + 0x1FA
	.byte	PATT
	 .word	seq_119_3 + 0x16
	.byte	PATT
	 .word	seq_119_3 + 0x87
	.byte	PATT
	 .word	seq_119_3 + 0xE6
	.byte	PATT
	 .word	seq_119_3 + 0x142
	.byte	PATT
	 .word	seq_119_3 + 0x19E
	.byte	PATT
	 .word	seq_119_3 + 0x1FA
	.byte	PATT
	 .word	seq_119_3 + 0x19E
	.byte	PATT
	 .word	seq_119_3 + 0x1FA
	.byte	PATT
	 .word	seq_119_3 + 0x16
	.byte	PATT
	 .word	seq_119_3 + 0x87
	.byte	PATT
	 .word	seq_119_3 + 0xE6
	.byte	PATT
	 .word	seq_119_3 + 0x142
	.byte	PATT
	 .word	seq_119_3 + 0x19E
	.byte	PATT
	 .word	seq_119_3 + 0x1FA
	.byte	PATT
	 .word	seq_119_3 + 0x19E
	.byte	PATT
	 .word	seq_119_3 + 0x1FA
	.byte	W96
	.byte	W96
	.byte	GOTO
	 .word	seq_119_3 + 0x15
	.byte	FINE

@*********************** Track 05 ***********************@

seq_119_4:
	.byte	KEYSH , seq_119_key+0
	.byte	W06
	.byte		VOICE , 110
	.byte	W01
	.byte		VOL   , 0*seq_119_mvl/mxv
	.byte	W01
	.byte		PAN   , c_v+0
	.byte	W01
	.byte		LFOS  , 0
	.byte	W01
	.byte		MODT  , mod_vib
	.byte	W01
	.byte		MOD   , 0
	.byte	W13
	.byte		TIE   , Fs2 , v120
	.byte	W14
	.byte		VOL   , 8*seq_119_mvl/mxv
	.byte	W15
	.byte		        17*seq_119_mvl/mxv
	.byte	W15
	.byte		        25*seq_119_mvl/mxv
	.byte	W15
	.byte		        34*seq_119_mvl/mxv
	.byte	W36
	.byte	W01
	.byte	W96
	.byte	W96
	.byte	W96
	.byte	W96
	.byte	W96
	.byte	W96
	.byte	W96
	.byte	W96
	.byte	W96
	.byte	W96
	.byte	W96
	.byte	W96
	.byte	W96
	.byte	W96
	.byte	W96
	.byte	W96
	.byte	W96
	.byte	W96
	.byte	W96
	.byte	W96
	.byte	W96
	.byte	W96
	.byte	W96
	.byte	W96
	.byte	W96
	.byte	W96
	.byte	W96
	.byte	W96
	.byte	W96
	.byte	W96
	.byte	W96
	.byte	W96
	.byte	W96
	.byte	W96
	.byte	W96
	.byte	W96
	.byte	W96
	.byte	W96
	.byte	W96
	.byte	W96
	.byte	W96
	.byte	W96
	.byte	W96
	.byte	W96
	.byte	W96
	.byte	W96
	.byte	W96
	.byte	W96
	.byte	W96
	.byte	W96
	.byte	W96
	.byte	W96
	.byte	W96
	.byte	W96
	.byte	W96
	.byte	W96
	.byte	W96
	.byte	W96
	.byte	W96
	.byte	W96
	.byte	W96
	.byte	W96
	.byte	W96
	.byte	W96
	.byte	W96
	.byte	W96
	.byte	W96
	.byte	W96
	.byte	W96
	.byte	W96
	.byte	W96
	.byte	W96
	.byte	W96
	.byte	W96
	.byte	W96
	.byte	W96
	.byte	W96
	.byte	W96
	.byte	W96
	.byte	W96
	.byte	W96
	.byte	W96
	.byte	W96
	.byte	W96
	.byte	W96
	.byte	W96
	.byte	W96
	.byte	W96
	.byte	W96
	.byte	W96
	.byte	W96
	.byte	W96
	.byte	W96
	.byte	W96
	.byte	W96
	.byte	W96
	.byte	W96
	.byte	W96
	.byte	W96
	.byte	W96
	.byte	W96
	.byte	W96
	.byte	W96
	.byte	W96
	.byte	W96
	.byte	W96
	.byte	W96
	.byte	W96
	.byte	W96
	.byte	W96
	.byte	W96
	.byte	W96
	.byte	W96
	.byte	W96
	.byte	W96
	.byte	W96
	.byte	W96
	.byte	W96
	.byte	W96
	.byte	W96
	.byte	W96
	.byte	W96
	.byte	W96
	.byte	W96
	.byte	W96
	.byte	W96
	.byte	W96
	.byte	W96
	.byte	W96
	.byte	W96
	.byte	W96
	.byte	W96
	.byte	W96
	.byte	W96
	.byte	W96
	.byte	W96
	.byte	W96
	.byte	W96
	.byte	W96
	.byte	W96
	.byte	W96
	.byte	W96
	.byte	W96
	.byte	W96
	.byte	W96
	.byte	W96
	.byte	W96
	.byte	W96
	.byte	W96
	.byte	W96
	.byte	W96
	.byte	W96
	.byte	W96
	.byte	W96
	.byte	W96
	.byte	W96
	.byte	W96
	.byte	W96
	.byte	W96
	.byte	W96
	.byte	W96
	.byte	W96
	.byte	W96
	.byte	W96
	.byte	W96
	.byte	W96
	.byte	W96
	.byte	W96
	.byte	W96
	.byte	W96
	.byte	W96
	.byte	W96
	.byte	W96
	.byte	W96
	.byte	W96
	.byte	W96
	.byte	W96
	.byte	W96
	.byte	W96
	.byte	W96
	.byte	W96
	.byte	W96
	.byte	W96
	.byte	W96
	.byte	W96
	.byte	W96
	.byte	W96
	.byte	W96
	.byte	W96
	.byte	W96
	.byte	W96
	.byte	W96
	.byte	W96
	.byte	W96
	.byte	W96
	.byte	W96
	.byte	W96
	.byte	W96
	.byte	W96
	.byte	W96
	.byte	W96
	.byte	W96
	.byte	W96
	.byte	W96
	.byte	W96
	.byte	W96
	.byte	W96
	.byte	W96
	.byte	W96
	.byte	W96
	.byte	W96
	.byte	W96
	.byte	W96
	.byte	W96
	.byte	W96
	.byte	W96
	.byte	W96
	.byte	W96
	.byte	W96
	.byte	W96
	.byte	W96
	.byte	W96
	.byte	W96
	.byte	W96
	.byte	W96
	.byte	W96
	.byte	W96
	.byte	W96
	.byte	W96
	.byte	W96
	.byte	W96
	.byte	W96
	.byte	W96
	.byte	W48
	.byte	W02
	.byte		        25*seq_119_mvl/mxv
	.byte	W15
	.byte		        17*seq_119_mvl/mxv
	.byte	W15
	.byte		        8*seq_119_mvl/mxv
	.byte	W02
	.byte		        0*seq_119_mvl/mxv
	.byte	W14
	.byte		EOT
	.byte	GOTO
	 .word	seq_119_4 + 0x15
	.byte	FINE

@******************************************************@

	.align	2

seq_119:
	.byte	5	@ NumTrks
	.byte	0	@ NumBlks
	.byte	seq_119_pri	@ Priority
	.byte	seq_119_rev	@ Reverb

	.word	seq_119_grp

	.word	seq_119_0
	.word	seq_119_1
	.word	seq_119_2
	.word	seq_119_3
	.word	seq_119_4

	.end
