@ File generated by m4a2s Song-Module
	.include "MPlayDef.s"

	.equ	seq_213_grp, bank_025
	.equ	seq_213_pri, 50
	.equ	seq_213_rev, 178
	.equ	seq_213_mvl, 127
	.equ	seq_213_key, 0

	.section .rodata
	.global	seq_213
	.align	2

@*********************** Track 01 ***********************@

seq_213_0:
	.byte	KEYSH , seq_213_key+0
	.byte	TEMPO , 150/2
	.byte		VOICE , 48
	.byte	W01
	.byte		VOL   , 77*seq_213_mvl/mxv
	.byte	W01
	.byte		PAN   , c_v-20
	.byte	W01
	.byte		N03   , En5 , v120
	.byte	W03
	.byte		N02   , En4 , v020
	.byte	W03
	.byte		N03   , Dn5 , v120
	.byte	W03
	.byte		N02   , Dn4 , v020
	.byte	W03
	.byte		N03   , Cs5 , v120
	.byte	W03
	.byte		N02   , Cs4 , v020
	.byte	W03
	.byte		N12   , An4 , v052
	.byte	W12
	.byte		N06   , An4 , v028
	.byte	W06
	.byte		        An4 , v012
	.byte	W06
	.byte	FINE

@*********************** Track 02 ***********************@

seq_213_1:
	.byte	KEYSH , seq_213_key+0
	.byte		VOICE , 48
	.byte	W01
	.byte		VOL   , 69*seq_213_mvl/mxv
	.byte	W01
	.byte		PAN   , c_v+0
	.byte	W01
	.byte		N03   , Cs5 , v120
	.byte	W03
	.byte		N02   , En4 , v052
	.byte	W03
	.byte		N03   , Dn5 , v120
	.byte	W03
	.byte		N02   , Fs4 , v052
	.byte	W03
	.byte		N03   , En5 , v120
	.byte	W03
	.byte		N02   , Gs4 , v052
	.byte	W03
	.byte		N12   , An5 , v100
	.byte	W12
	.byte	FINE

@*********************** Track 03 ***********************@

seq_213_2:
	.byte	KEYSH , seq_213_key+0
	.byte		VOICE , 48
	.byte	W01
	.byte		VOL   , 60*seq_213_mvl/mxv
	.byte	W01
	.byte		PAN   , c_v+20
	.byte	W01
	.byte		N02   , En4 , v120
	.byte	W03
	.byte		        En5 , v052
	.byte	W03
	.byte		        Fs4 , v120
	.byte	W03
	.byte		        Fs5 , v052
	.byte	W03
	.byte		        Gs4 , v120
	.byte	W03
	.byte		        Gs5 , v052
	.byte	W03
	.byte		N12   , Cs5 , v080
	.byte	W12
	.byte		N06   , Cs5 , v040
	.byte	W06
	.byte		        Cs5 , v020
	.byte	W06
	.byte	FINE

@******************************************************@

	.align	2

seq_213:
	.byte	3	@ NumTrks
	.byte	0	@ NumBlks
	.byte	seq_213_pri	@ Priority
	.byte	seq_213_rev	@ Reverb

	.word	seq_213_grp

	.word	seq_213_0
	.word	seq_213_1
	.word	seq_213_2

	.end
