@ File generated by m4a2s Song-Module
	.include "MPlayDef.s"

	.equ	seq_032_grp, bank_000
	.equ	seq_032_pri, 50
	.equ	seq_032_rev, 198
	.equ	seq_032_mvl, 127
	.equ	seq_032_key, 0

	.section .rodata
	.global	seq_032
	.align	2

@*********************** Track 01 ***********************@

seq_032_0:
	.byte	KEYSH , seq_032_key+0
	.byte	TEMPO , 134/2
	.byte		VOICE , 95
	.byte		VOL   , 88*seq_032_mvl/mxv
	.byte		PAN   , c_v+0
	.byte	W36
	.byte	W24
	.byte		MOD   , 43
	.byte		LFOS  , 33
	.byte		MODT  , mod_tre
	.byte	W01
	.byte		LFODL , 0
	.byte	W02
	.byte		VOICE , 95
	.byte		VOL   , 88*seq_032_mvl/mxv
	.byte		PAN   , c_v+0
	.byte	W68
	.byte	W01
	.byte	PEND
	.byte	W68
	.byte	W03
	.byte		VOL   , 70*seq_032_mvl/mxv
	.byte	W01
	.byte		N24   , Fn2 , v112
	.byte	W01
	.byte		VOL   , 77*seq_032_mvl/mxv
	.byte	W01
	.byte		        84*seq_032_mvl/mxv
	.byte	W01
	.byte		        92*seq_032_mvl/mxv
	.byte	W02
	.byte		        100*seq_032_mvl/mxv
	.byte	W18
	.byte		        70*seq_032_mvl/mxv
	.byte	W01
	.byte	PEND
	.byte		N36   , Gn2 , v092
	.byte	W01
	.byte		VOL   , 78*seq_032_mvl/mxv
	.byte	W01
	.byte		        82*seq_032_mvl/mxv
	.byte	W01
	.byte		        85*seq_032_mvl/mxv
	.byte	W02
	.byte		        92*seq_032_mvl/mxv
	.byte	W02
	.byte		        99*seq_032_mvl/mxv
	.byte	W02
	.byte		        105*seq_032_mvl/mxv
	.byte	W02
	.byte		        112*seq_032_mvl/mxv
	.byte	W02
	.byte		        119*seq_032_mvl/mxv
	.byte	W01
	.byte		        123*seq_032_mvl/mxv
	.byte	W03
	.byte		        125*seq_032_mvl/mxv
	.byte	W02
	.byte		        121*seq_032_mvl/mxv
	.byte	W02
	.byte		        119*seq_032_mvl/mxv
	.byte	W02
	.byte		        117*seq_032_mvl/mxv
	.byte	W01
	.byte		        116*seq_032_mvl/mxv
	.byte	W01
	.byte		        115*seq_032_mvl/mxv
	.byte	W01
	.byte		        113*seq_032_mvl/mxv
	.byte	W01
	.byte		        112*seq_032_mvl/mxv
	.byte	W01
	.byte		        108*seq_032_mvl/mxv
	.byte	W01
	.byte		        103*seq_032_mvl/mxv
	.byte	W01
	.byte		        98*seq_032_mvl/mxv
	.byte	W02
	.byte		        88*seq_032_mvl/mxv
	.byte	W03
	.byte		        70*seq_032_mvl/mxv
	.byte	W01
	.byte		N36   , Dn3 
	.byte	W07
	.byte		VOL   , 77*seq_032_mvl/mxv
	.byte	W01
	.byte		        84*seq_032_mvl/mxv
	.byte	W01
	.byte		        92*seq_032_mvl/mxv
	.byte	W02
	.byte		        100*seq_032_mvl/mxv
	.byte	W24
	.byte	W01
	.byte		N24   , Fn2 , v060
	.byte	W23
	.byte		VOL   , 70*seq_032_mvl/mxv
	.byte	W01
	.byte	PEND
	.byte		N36   , Gn2 , v092
	.byte	W01
	.byte		VOL   , 78*seq_032_mvl/mxv
	.byte	W01
	.byte		        82*seq_032_mvl/mxv
	.byte	W01
	.byte		        85*seq_032_mvl/mxv
	.byte	W02
	.byte		        92*seq_032_mvl/mxv
	.byte	W02
	.byte		        99*seq_032_mvl/mxv
	.byte	W02
	.byte		        105*seq_032_mvl/mxv
	.byte	W02
	.byte		        112*seq_032_mvl/mxv
	.byte	W02
	.byte		        119*seq_032_mvl/mxv
	.byte	W01
	.byte		        123*seq_032_mvl/mxv
	.byte	W03
	.byte		        125*seq_032_mvl/mxv
	.byte	W02
	.byte		        121*seq_032_mvl/mxv
	.byte	W02
	.byte		        119*seq_032_mvl/mxv
	.byte	W02
	.byte		        117*seq_032_mvl/mxv
	.byte	W01
	.byte		        116*seq_032_mvl/mxv
	.byte	W01
	.byte		        115*seq_032_mvl/mxv
	.byte	W01
	.byte		        113*seq_032_mvl/mxv
	.byte	W01
	.byte		        112*seq_032_mvl/mxv
	.byte	W01
	.byte		        108*seq_032_mvl/mxv
	.byte	W01
	.byte		        103*seq_032_mvl/mxv
	.byte	W01
	.byte		        98*seq_032_mvl/mxv
	.byte	W02
	.byte		        88*seq_032_mvl/mxv
	.byte	W03
	.byte		        70*seq_032_mvl/mxv
	.byte	W01
	.byte		N36   , Dn3 
	.byte	W07
	.byte		VOL   , 77*seq_032_mvl/mxv
	.byte	W01
	.byte		        84*seq_032_mvl/mxv
	.byte	W01
	.byte		        92*seq_032_mvl/mxv
	.byte	W02
	.byte		        100*seq_032_mvl/mxv
	.byte	W24
	.byte	W01
	.byte		N24   , Cn3 , v060
	.byte	W23
	.byte		VOL   , 74*seq_032_mvl/mxv
	.byte	W01
	.byte	PEND
	.byte		N36   , Dn3 , v092
	.byte	W01
	.byte		VOL   , 77*seq_032_mvl/mxv
	.byte	W01
	.byte		        84*seq_032_mvl/mxv
	.byte	W01
	.byte		        92*seq_032_mvl/mxv
	.byte	W02
	.byte		        100*seq_032_mvl/mxv
	.byte	W30
	.byte		        74*seq_032_mvl/mxv
	.byte	W01
	.byte		N36   , Gn3 
	.byte	W01
	.byte		VOL   , 77*seq_032_mvl/mxv
	.byte	W01
	.byte		        84*seq_032_mvl/mxv
	.byte	W01
	.byte		        92*seq_032_mvl/mxv
	.byte	W02
	.byte		        100*seq_032_mvl/mxv
	.byte	W30
	.byte		        74*seq_032_mvl/mxv
	.byte	W01
	.byte		N24   , As3 
	.byte	W01
	.byte		VOL   , 77*seq_032_mvl/mxv
	.byte	W01
	.byte		        84*seq_032_mvl/mxv
	.byte	W01
	.byte		        92*seq_032_mvl/mxv
	.byte	W02
	.byte		        100*seq_032_mvl/mxv
	.byte	W18
	.byte		        74*seq_032_mvl/mxv
	.byte	W01
	.byte	PEND
	.byte		N36   , An3 , v092
	.byte	W01
	.byte		VOL   , 77*seq_032_mvl/mxv
	.byte	W01
	.byte		        84*seq_032_mvl/mxv
	.byte	W01
	.byte		        92*seq_032_mvl/mxv
	.byte	W02
	.byte		        100*seq_032_mvl/mxv
	.byte	W30
	.byte		        74*seq_032_mvl/mxv
	.byte	W01
	.byte		N36   , Fn3 
	.byte	W07
	.byte		VOL   , 77*seq_032_mvl/mxv
	.byte	W01
	.byte		        84*seq_032_mvl/mxv
	.byte	W01
	.byte		        92*seq_032_mvl/mxv
	.byte	W02
	.byte		        100*seq_032_mvl/mxv
	.byte	W24
	.byte		        74*seq_032_mvl/mxv
	.byte	W01
	.byte		N24   , Cn3 , v064
	.byte	W01
	.byte		VOL   , 77*seq_032_mvl/mxv
	.byte	W01
	.byte		        84*seq_032_mvl/mxv
	.byte	W01
	.byte		        92*seq_032_mvl/mxv
	.byte	W02
	.byte		        100*seq_032_mvl/mxv
	.byte	W18
	.byte		        67*seq_032_mvl/mxv
	.byte	W01
	.byte	PEND
	.byte		TIE   , Dn3 , v092
	.byte	W07
	.byte		VOL   , 70*seq_032_mvl/mxv
	.byte	W04
	.byte		        71*seq_032_mvl/mxv
	.byte	W03
	.byte		        72*seq_032_mvl/mxv
	.byte	W04
	.byte		        74*seq_032_mvl/mxv
	.byte	W03
	.byte		        75*seq_032_mvl/mxv
	.byte	W04
	.byte		        76*seq_032_mvl/mxv
	.byte	W03
	.byte		        77*seq_032_mvl/mxv
	.byte	W03
	.byte		        78*seq_032_mvl/mxv
	.byte	W04
	.byte		        79*seq_032_mvl/mxv
	.byte	W03
	.byte		        81*seq_032_mvl/mxv
	.byte	W04
	.byte		        82*seq_032_mvl/mxv
	.byte	W03
	.byte		        83*seq_032_mvl/mxv
	.byte	W03
	.byte		        84*seq_032_mvl/mxv
	.byte	W04
	.byte		        85*seq_032_mvl/mxv
	.byte	W03
	.byte		        86*seq_032_mvl/mxv
	.byte	W04
	.byte		        88*seq_032_mvl/mxv
	.byte	W03
	.byte		        89*seq_032_mvl/mxv
	.byte	W03
	.byte		        90*seq_032_mvl/mxv
	.byte	W04
	.byte		        91*seq_032_mvl/mxv
	.byte	W03
	.byte		        92*seq_032_mvl/mxv
	.byte	W04
	.byte		        96*seq_032_mvl/mxv
	.byte	W03
	.byte		        99*seq_032_mvl/mxv
	.byte	W03
	.byte		        102*seq_032_mvl/mxv
	.byte	W04
	.byte		        106*seq_032_mvl/mxv
	.byte	W03
	.byte		        109*seq_032_mvl/mxv
	.byte	W04
	.byte		        113*seq_032_mvl/mxv
	.byte	W03
	.byte	PEND
	.byte		VOL   , 116*seq_032_mvl/mxv
	.byte	W03
	.byte		        119*seq_032_mvl/mxv
	.byte	W04
	.byte		        122*seq_032_mvl/mxv
	.byte	W03
	.byte		        121*seq_032_mvl/mxv
	.byte	W04
	.byte		        120*seq_032_mvl/mxv
	.byte	W03
	.byte		        119*seq_032_mvl/mxv
	.byte	W04
	.byte		        117*seq_032_mvl/mxv
	.byte	W03
	.byte		        116*seq_032_mvl/mxv
	.byte	W03
	.byte		        115*seq_032_mvl/mxv
	.byte	W04
	.byte		        114*seq_032_mvl/mxv
	.byte	W03
	.byte		        113*seq_032_mvl/mxv
	.byte	W04
	.byte		        111*seq_032_mvl/mxv
	.byte	W03
	.byte		        110*seq_032_mvl/mxv
	.byte	W03
	.byte		        109*seq_032_mvl/mxv
	.byte	W04
	.byte		        108*seq_032_mvl/mxv
	.byte	W03
	.byte		        107*seq_032_mvl/mxv
	.byte	W04
	.byte		        105*seq_032_mvl/mxv
	.byte	W03
	.byte		        102*seq_032_mvl/mxv
	.byte	W03
	.byte		        98*seq_032_mvl/mxv
	.byte	W04
	.byte		        92*seq_032_mvl/mxv
	.byte	W03
	.byte		        88*seq_032_mvl/mxv
	.byte	W04
	.byte		        82*seq_032_mvl/mxv
	.byte	W03
	.byte		        82*seq_032_mvl/mxv
	.byte	W03
	.byte		        73*seq_032_mvl/mxv
	.byte	W04
	.byte		        62*seq_032_mvl/mxv
	.byte	W03
	.byte		        52*seq_032_mvl/mxv
	.byte	W04
	.byte		        40*seq_032_mvl/mxv
	.byte	W03
	.byte		        31*seq_032_mvl/mxv
	.byte	W04
	.byte	PEND
	.byte		EOT   , Dn3 
	.byte	W96
	.byte	PATT
	 .word	seq_032_0 + 0x1F
	.byte	PATT
	 .word	seq_032_0 + 0x34
	.byte	PATT
	 .word	seq_032_0 + 0x7A
	.byte	PATT
	 .word	seq_032_0 + 0xC0
	.byte	PATT
	 .word	seq_032_0 + 0xEC
	.byte	PATT
	 .word	seq_032_0 + 0x119
	.byte		VOL   , 116*seq_032_mvl/mxv
	.byte	W03
	.byte		        119*seq_032_mvl/mxv
	.byte	W04
	.byte		        122*seq_032_mvl/mxv
	.byte	W03
	.byte		        121*seq_032_mvl/mxv
	.byte	W04
	.byte		        120*seq_032_mvl/mxv
	.byte	W03
	.byte		        119*seq_032_mvl/mxv
	.byte	W04
	.byte		        117*seq_032_mvl/mxv
	.byte	W03
	.byte		        116*seq_032_mvl/mxv
	.byte	W03
	.byte		        115*seq_032_mvl/mxv
	.byte	W04
	.byte		        114*seq_032_mvl/mxv
	.byte	W03
	.byte		        113*seq_032_mvl/mxv
	.byte	W04
	.byte		        111*seq_032_mvl/mxv
	.byte	W03
	.byte		        110*seq_032_mvl/mxv
	.byte	W03
	.byte		        109*seq_032_mvl/mxv
	.byte	W04
	.byte		        108*seq_032_mvl/mxv
	.byte	W03
	.byte		        107*seq_032_mvl/mxv
	.byte	W04
	.byte		        105*seq_032_mvl/mxv
	.byte	W03
	.byte		        102*seq_032_mvl/mxv
	.byte	W03
	.byte		        98*seq_032_mvl/mxv
	.byte	W04
	.byte		        92*seq_032_mvl/mxv
	.byte	W03
	.byte		        88*seq_032_mvl/mxv
	.byte	W04
	.byte		MOD   , 70
	.byte		VOL   , 82*seq_032_mvl/mxv
	.byte		LFOS  , 30
	.byte		MODT  , mod_pan
	.byte	W01
	.byte		LFODL , 0
	.byte	W02
	.byte		VOL   , 82*seq_032_mvl/mxv
	.byte	W03
	.byte		        73*seq_032_mvl/mxv
	.byte	W04
	.byte		        62*seq_032_mvl/mxv
	.byte	W03
	.byte		        52*seq_032_mvl/mxv
	.byte	W04
	.byte		        40*seq_032_mvl/mxv
	.byte	W03
	.byte		        31*seq_032_mvl/mxv
	.byte	W04
	.byte	PEND
	.byte		EOT   , Dn3 
	.byte	W03
	.byte		VOICE , 102
	.byte		VOL   , 123*seq_032_mvl/mxv
	.byte		PAN   , c_v+0
	.byte	W92
	.byte	W01
	.byte	PEND
	.byte	W72
	.byte		N11   , Dn3 , v072
	.byte	W24
	.byte		N84   , Gn3 , v072
	.byte	W84
	.byte		N05   , Fs3 
	.byte	W12
	.byte	PEND
	.byte		N11   , Gn3 , v072
	.byte	W12
	.byte		N05   , Fs3 
	.byte	W06
	.byte		        Dn3 
	.byte	W06
	.byte		N03   , Dn2 
	.byte	W06
	.byte		N05   , Cn3 
	.byte	W06
	.byte		N03   , Dn2 
	.byte	W06
	.byte		N05   , Dn3 
	.byte	W06
	.byte		N03   , Dn2 
	.byte	W06
	.byte		N05   , As2 
	.byte	W06
	.byte		        Gn2 
	.byte	W06
	.byte		        Cn3 
	.byte	W06
	.byte		N03   , Dn2 
	.byte	W06
	.byte		N05   , Gn2 
	.byte	W06
	.byte		N11   , Dn2 
	.byte	W12
	.byte	PEND
	.byte		N05   , An2 , v072
	.byte	W06
	.byte		N05
	.byte	W06
	.byte		        Gn2 
	.byte	W06
	.byte		        An2 
	.byte	W06
	.byte		N03   , Cn2 
	.byte	W06
	.byte		        Dn2 
	.byte	W06
	.byte		N05   , An2 
	.byte	W06
	.byte		N05
	.byte	W06
	.byte		        Gn2 
	.byte	W06
	.byte		        An2 
	.byte	W06
	.byte		N03   , Dn2 
	.byte	W06
	.byte		N05   , An2 
	.byte	W06
	.byte		N03   , Cn2 
	.byte	W06
	.byte		N05   , Gn2 
	.byte	W06
	.byte		        An2 
	.byte	W06
	.byte		        Dn2 
	.byte	W06
	.byte	PEND
	.byte	W96
	.byte	W06
	.byte		N05   , Dn2 , v072
	.byte	W06
	.byte		        Gn2 
	.byte	W06
	.byte		        An2 
	.byte	W06
	.byte		N03   , An1 
	.byte	W06
	.byte		N05   , Gn2 
	.byte	W12
	.byte		        An2 
	.byte	W06
	.byte		N03   , An1 
	.byte	W06
	.byte		N05   , Dn3 
	.byte	W06
	.byte		        Gn2 
	.byte	W06
	.byte		        An2 
	.byte	W06
	.byte		N03   , An1 
	.byte	W06
	.byte		N05   , Dn2 
	.byte	W06
	.byte		N03   , Dn1 
	.byte	W06
	.byte		N05   , An1 
	.byte	W06
	.byte	PEND
	.byte		N05   , Fn2 , v072
	.byte	W06
	.byte		N05
	.byte	W06
	.byte		        En2 
	.byte	W06
	.byte		        Fn2 
	.byte	W06
	.byte		N03   , An1 
	.byte	W06
	.byte		N05   , En2 
	.byte	W12
	.byte		        Fn2 
	.byte	W06
	.byte		        En2 
	.byte	W06
	.byte		        Fn2 
	.byte	W06
	.byte		N03   , An1 
	.byte	W06
	.byte		N11   , Fn2 
	.byte	W12
	.byte		N05   , Dn2 
	.byte	W06
	.byte		        Fn2 
	.byte	W06
	.byte		        An2 
	.byte	W06
	.byte	PEND
	.byte	W06
	.byte		N05   , Dn2 , v072
	.byte	W06
	.byte		        Dn3 
	.byte	W06
	.byte		        Gn2 
	.byte	W06
	.byte		        An2 
	.byte	W06
	.byte		        Dn3 
	.byte	W06
	.byte		N02   , Dn2 
	.byte	W06
	.byte		N11   , An2 
	.byte	W12
	.byte		N05   , Gn2 
	.byte	W06
	.byte		        An2 
	.byte	W06
	.byte		N17   , Dn2 
	.byte	W30
	.byte	PEND
	.byte	W96
	.byte	W96
	.byte	W96
	.byte	W96
	.byte	W96
	.byte	W96
	.byte	W96
	.byte	W96
	.byte	W96
	.byte	W96
	.byte	W96
	.byte	W96
	.byte	W96
	.byte	W96
	.byte	W96
	.byte	W96
	.byte	W96
	.byte	W96
	.byte	W96
	.byte	W96
	.byte	W96
	.byte	W96
	.byte	W96
	.byte	W96
	.byte	W96
	.byte	W96
	.byte	W96
	.byte	W96
	.byte	W96
	.byte	W96
	.byte	W96
	.byte	PATT
	 .word	seq_032_0 + 0xB
	.byte	PATT
	 .word	seq_032_0 + 0x1F
	.byte	PATT
	 .word	seq_032_0 + 0x34
	.byte	PATT
	 .word	seq_032_0 + 0x7A
	.byte	PATT
	 .word	seq_032_0 + 0xC0
	.byte	PATT
	 .word	seq_032_0 + 0xEC
	.byte	PATT
	 .word	seq_032_0 + 0x119
	.byte	PATT
	 .word	seq_032_0 + 0x153
	.byte		EOT   , Dn3 
	.byte	W96
	.byte	PATT
	 .word	seq_032_0 + 0x1F
	.byte	PATT
	 .word	seq_032_0 + 0x34
	.byte	PATT
	 .word	seq_032_0 + 0x7A
	.byte	PATT
	 .word	seq_032_0 + 0xC0
	.byte	PATT
	 .word	seq_032_0 + 0xEC
	.byte	PATT
	 .word	seq_032_0 + 0x119
	.byte	PATT
	 .word	seq_032_0 + 0x1AE
	.byte		EOT   , Dn3 
	.byte	PATT
	 .word	seq_032_0 + 0x1F5
	.byte	W72
	.byte		N11   , Dn3 , v072
	.byte	W24
	.byte	PATT
	 .word	seq_032_0 + 0x204
	.byte	PATT
	 .word	seq_032_0 + 0x20C
	.byte	PATT
	 .word	seq_032_0 + 0x235
	.byte	W96
	.byte	PATT
	 .word	seq_032_0 + 0x25F
	.byte	PATT
	 .word	seq_032_0 + 0x287
	.byte	PATT
	 .word	seq_032_0 + 0x2AB
	.byte	W96
	.byte	W96
	.byte	W96
	.byte	W96
	.byte	W96
	.byte	W96
	.byte	W96
	.byte	W96
	.byte	W96
	.byte	GOTO
	 .word	seq_032_0 + 0x2D0
	.byte	FINE

@*********************** Track 02 ***********************@

seq_032_1:
	.byte	KEYSH , seq_032_key+0
	.byte	W01
	.byte		VOICE , 45
	.byte		VOL   , 68*seq_032_mvl/mxv
	.byte		PAN   , c_v-40
	.byte	W01
	.byte		MOD   , 4
	.byte		LFOS  , 20
	.byte		MODT  , mod_tre
	.byte	W01
	.byte		BENDR , 2
	.byte		LFODL , 20
	.byte	W20
	.byte		VOL   , 0*seq_032_mvl/mxv
	.byte		BEND  , c_v+0
	.byte	W01
	.byte		TIE   , Dn3 , v112
	.byte	W07
	.byte		VOL   , 1*seq_032_mvl/mxv
	.byte	W03
	.byte		        2*seq_032_mvl/mxv
	.byte	W02
	.byte	W01
	.byte		        4*seq_032_mvl/mxv
	.byte	W03
	.byte		        5*seq_032_mvl/mxv
	.byte	W03
	.byte		        6*seq_032_mvl/mxv
	.byte	W03
	.byte		        8*seq_032_mvl/mxv
	.byte	W03
	.byte		        13*seq_032_mvl/mxv
	.byte	W03
	.byte		        13*seq_032_mvl/mxv
	.byte	W03
	.byte		        16*seq_032_mvl/mxv
	.byte	W03
	.byte		        19*seq_032_mvl/mxv
	.byte	W03
	.byte		        23*seq_032_mvl/mxv
	.byte	W03
	.byte		        26*seq_032_mvl/mxv
	.byte	W03
	.byte		        30*seq_032_mvl/mxv
	.byte	W03
	.byte		        33*seq_032_mvl/mxv
	.byte	W03
	.byte		        37*seq_032_mvl/mxv
	.byte	W03
	.byte		        42*seq_032_mvl/mxv
	.byte	W03
	.byte		        46*seq_032_mvl/mxv
	.byte	W03
	.byte		        52*seq_032_mvl/mxv
	.byte	W03
	.byte		        57*seq_032_mvl/mxv
	.byte	W03
	.byte		        63*seq_032_mvl/mxv
	.byte	W03
	.byte		        70*seq_032_mvl/mxv
	.byte	W03
	.byte		        77*seq_032_mvl/mxv
	.byte	W03
	.byte		        84*seq_032_mvl/mxv
	.byte	W03
	.byte		        92*seq_032_mvl/mxv
	.byte	W03
	.byte		        100*seq_032_mvl/mxv
	.byte	W03
	.byte		        113*seq_032_mvl/mxv
	.byte	W03
	.byte		        123*seq_032_mvl/mxv
	.byte	W03
	.byte		        120*seq_032_mvl/mxv
	.byte	W03
	.byte		        119*seq_032_mvl/mxv
	.byte	W03
	.byte		        117*seq_032_mvl/mxv
	.byte	W03
	.byte		        116*seq_032_mvl/mxv
	.byte	W03
	.byte		        114*seq_032_mvl/mxv
	.byte	W03
	.byte		        112*seq_032_mvl/mxv
	.byte	W05
	.byte		        108*seq_032_mvl/mxv
	.byte	W03
	.byte		        107*seq_032_mvl/mxv
	.byte	W02
	.byte		        104*seq_032_mvl/mxv
	.byte	W03
	.byte		        100*seq_032_mvl/mxv
	.byte	W02
	.byte		        97*seq_032_mvl/mxv
	.byte	W03
	.byte		        95*seq_032_mvl/mxv
	.byte		BEND  , c_v-2
	.byte	W02
	.byte		VOL   , 92*seq_032_mvl/mxv
	.byte		BEND  , c_v-5
	.byte	W01
	.byte		        c_v-5
	.byte	W01
	.byte		VOL   , 89*seq_032_mvl/mxv
	.byte	W01
	.byte		BEND  , c_v-6
	.byte	W01
	.byte		        c_v-6
	.byte	W01
	.byte		VOL   , 84*seq_032_mvl/mxv
	.byte	W01
	.byte		BEND  , c_v-7
	.byte	W01
	.byte		VOL   , 82*seq_032_mvl/mxv
	.byte		BEND  , c_v-8
	.byte	W02
	.byte		        c_v-8
	.byte	W01
	.byte		VOL   , 75*seq_032_mvl/mxv
	.byte		BEND  , c_v-9
	.byte	W02
	.byte		VOL   , 69*seq_032_mvl/mxv
	.byte	W01
	.byte		BEND  , c_v-10
	.byte	W02
	.byte		VOL   , 62*seq_032_mvl/mxv
	.byte		BEND  , c_v-11
	.byte	W02
	.byte		VOL   , 60*seq_032_mvl/mxv
	.byte	W01
	.byte		BEND  , c_v-16
	.byte	W01
	.byte		VOL   , 55*seq_032_mvl/mxv
	.byte		BEND  , c_v-17
	.byte	W02
	.byte		        c_v-19
	.byte	W01
	.byte		VOL   , 50*seq_032_mvl/mxv
	.byte		BEND  , c_v-20
	.byte	W02
	.byte		VOL   , 44*seq_032_mvl/mxv
	.byte		BEND  , c_v-22
	.byte	W01
	.byte		        c_v-23
	.byte	W02
	.byte		VOL   , 29*seq_032_mvl/mxv
	.byte		BEND  , c_v-25
	.byte	W01
	.byte		        c_v-27
	.byte	W01
	.byte		VOL   , 16*seq_032_mvl/mxv
	.byte	W01
	.byte		BEND  , c_v-31
	.byte	W01
	.byte		        c_v-34
	.byte	W02
	.byte		        c_v-37
	.byte	W01
	.byte		        c_v-40
	.byte	W02
	.byte		        c_v-43
	.byte	W03
	.byte		EOT
	.byte	W40
	.byte	W01
	.byte		VOICE , 95
	.byte		VOL   , 93*seq_032_mvl/mxv
	.byte		PAN   , c_v-20
	.byte		BEND  , c_v+0
	.byte	W01
	.byte		TIE   , Dn2 , v096
	.byte	W96
	.byte	W96
	.byte		EOT
	.byte		TIE   , Fn2 
	.byte	W96
	.byte	W96
	.byte		EOT
	.byte		TIE   , En2 
	.byte	W96
	.byte	W96
	.byte		EOT
	.byte		N96   , Ds2 
	.byte	W96
	.byte		        Fn2 
	.byte	W96
	.byte		TIE   , Dn2 
	.byte	W96
	.byte	W96
	.byte		EOT
	.byte		TIE   , Fn2 
	.byte	W96
	.byte	W96
	.byte		EOT
	.byte		TIE   , En2 
	.byte	W96
	.byte	W96
	.byte		EOT
	.byte		N36   , Ds2 , v096
	.byte	W36
	.byte		N60
	.byte	W60
	.byte	PEND
	.byte		N36   , Fn2 , v096
	.byte	W36
	.byte		N36
	.byte	W56
	.byte	W03
	.byte		PAN   , c_v+0
	.byte	W01
	.byte	PEND
	.byte		N72   , Dn2 , v096
	.byte	W84
	.byte		TIE   , Fn2 
	.byte	W12
	.byte	PEND
	.byte	W96
	.byte		EOT
	.byte		N72   , En2 , v096
	.byte	W84
	.byte		N36   , Ds2 
	.byte	W12
	.byte	PEND
	.byte	W36
	.byte		N60   , Fn2 
	.byte	W60
	.byte	PATT
	 .word	seq_032_1 + 0x10D
	.byte	W96
	.byte		EOT   , Fn2 
	.byte	PATT
	 .word	seq_032_1 + 0x117
	.byte	W36
	.byte		N36   , Fn2 , v096
	.byte	W56
	.byte	W03
	.byte		VOICE , 119
	.byte		VOL   , 73*seq_032_mvl/mxv
	.byte		PAN   , c_v-30
	.byte		BEND  , c_v+0
	.byte	W01
	.byte	PEND
	.byte		TIE   , Dn3 , v127
	.byte	W96
	.byte	W96
	.byte		EOT
	.byte		TIE   , Fn3 
	.byte	W96
	.byte	W96
	.byte		EOT
	.byte		TIE   , En3 
	.byte	W96
	.byte	W96
	.byte		EOT
	.byte		N96   , Ds3 
	.byte	W96
	.byte		        Fn3 
	.byte	W96
	.byte		TIE   , Dn3 , v127
	.byte	W96
	.byte	W96
	.byte		EOT
	.byte		TIE   , Fn3 
	.byte	W96
	.byte	W96
	.byte		EOT
	.byte		TIE   , En3 
	.byte	W96
	.byte	W96
	.byte		EOT
	.byte		N96   , Ds3 
	.byte	W96
	.byte		        Fn3 
	.byte	W92
	.byte	W03
	.byte		VOICE , 95
	.byte		VOL   , 73*seq_032_mvl/mxv
	.byte		PAN   , c_v-30
	.byte		BEND  , c_v+0
	.byte	W01
	.byte		TIE   , Dn2 , v092
	.byte	W96
	.byte	W96
	.byte		EOT
	.byte		TIE   , Fn2 
	.byte	W96
	.byte	W96
	.byte		EOT
	.byte		TIE   , En2 
	.byte	W96
	.byte	W96
	.byte		EOT
	.byte		N96   , Ds2 
	.byte	W96
	.byte		N72   , Fn2 
	.byte	W96
	.byte		TIE   , Dn2 
	.byte	W96
	.byte	W96
	.byte		EOT
	.byte		TIE   , Fn2 
	.byte	W96
	.byte	W96
	.byte		EOT
	.byte		TIE   , En2 
	.byte	W96
	.byte	W96
	.byte		EOT
	.byte		N96   , Ds2 
	.byte	W96
	.byte		N72   , Fn2 
	.byte	W96
	.byte		TIE   , Dn2 , v096
	.byte	W96
	.byte	W96
	.byte		EOT
	.byte		TIE   , Fn2 
	.byte	W96
	.byte	W96
	.byte		EOT
	.byte		TIE   , En2 
	.byte	W96
	.byte	W96
	.byte		EOT
	.byte		N96   , Ds2 
	.byte	W96
	.byte		N72   , Fn2 
	.byte	W96
	.byte		TIE   , Dn2 
	.byte	W96
	.byte	W96
	.byte		EOT
	.byte		TIE   , Fn2 
	.byte	W96
	.byte	W96
	.byte		EOT
	.byte		TIE   , En2 
	.byte	W96
	.byte	W96
	.byte		EOT
	.byte	PATT
	 .word	seq_032_1 + 0xFB
	.byte	PATT
	 .word	seq_032_1 + 0x102
	.byte	PATT
	 .word	seq_032_1 + 0x10D
	.byte	W96
	.byte		EOT   , Fn2 
	.byte	PATT
	 .word	seq_032_1 + 0x117
	.byte	W36
	.byte		N60   , Fn2 , v096
	.byte	W60
	.byte	PATT
	 .word	seq_032_1 + 0x10D
	.byte	W96
	.byte		EOT   , Fn2 
	.byte	PATT
	 .word	seq_032_1 + 0x117
	.byte	PATT
	 .word	seq_032_1 + 0x130
	.byte		TIE   , Dn3 , v127
	.byte	W96
	.byte	W96
	.byte		EOT
	.byte		TIE   , Fn3 
	.byte	W96
	.byte	W96
	.byte		EOT
	.byte		TIE   , En3 
	.byte	W96
	.byte	W96
	.byte		EOT
	.byte		N96   , Ds3 
	.byte	W96
	.byte		        Fn3 
	.byte	W96
	.byte	GOTO
	 .word	seq_032_1 + 0x155
	.byte	FINE

@*********************** Track 03 ***********************@

seq_032_2:
	.byte	KEYSH , seq_032_key+0
	.byte	W04
	.byte		VOICE , 45
	.byte		VOL   , 68*seq_032_mvl/mxv
	.byte		PAN   , c_v+20
	.byte	W01
	.byte		MOD   , 4
	.byte		LFOS  , 20
	.byte		MODT  , mod_tre
	.byte	W01
	.byte		BENDR , 2
	.byte		LFODL , 20
	.byte	W17
	.byte		VOL   , 0*seq_032_mvl/mxv
	.byte		BEND  , c_v+0
	.byte	W01
	.byte		TIE   , An2 , v112
	.byte	W07
	.byte		VOL   , 1*seq_032_mvl/mxv
	.byte	W03
	.byte		        2*seq_032_mvl/mxv
	.byte	W02
	.byte	W01
	.byte		        4*seq_032_mvl/mxv
	.byte	W03
	.byte		        5*seq_032_mvl/mxv
	.byte	W03
	.byte		        6*seq_032_mvl/mxv
	.byte	W03
	.byte		        8*seq_032_mvl/mxv
	.byte	W03
	.byte		        13*seq_032_mvl/mxv
	.byte	W03
	.byte		        13*seq_032_mvl/mxv
	.byte	W03
	.byte		        16*seq_032_mvl/mxv
	.byte	W03
	.byte		        19*seq_032_mvl/mxv
	.byte	W03
	.byte		        23*seq_032_mvl/mxv
	.byte	W03
	.byte		        26*seq_032_mvl/mxv
	.byte	W03
	.byte		        30*seq_032_mvl/mxv
	.byte	W03
	.byte		        33*seq_032_mvl/mxv
	.byte	W03
	.byte		        37*seq_032_mvl/mxv
	.byte	W03
	.byte		        42*seq_032_mvl/mxv
	.byte	W03
	.byte		        46*seq_032_mvl/mxv
	.byte	W03
	.byte		        52*seq_032_mvl/mxv
	.byte	W03
	.byte		        57*seq_032_mvl/mxv
	.byte	W03
	.byte		        63*seq_032_mvl/mxv
	.byte	W03
	.byte		        70*seq_032_mvl/mxv
	.byte	W03
	.byte		        77*seq_032_mvl/mxv
	.byte	W03
	.byte		        84*seq_032_mvl/mxv
	.byte	W03
	.byte		        92*seq_032_mvl/mxv
	.byte	W03
	.byte		        100*seq_032_mvl/mxv
	.byte	W03
	.byte		        113*seq_032_mvl/mxv
	.byte	W03
	.byte		        123*seq_032_mvl/mxv
	.byte	W03
	.byte		        120*seq_032_mvl/mxv
	.byte	W03
	.byte		        119*seq_032_mvl/mxv
	.byte	W03
	.byte		        117*seq_032_mvl/mxv
	.byte	W03
	.byte		        116*seq_032_mvl/mxv
	.byte	W03
	.byte		        114*seq_032_mvl/mxv
	.byte	W03
	.byte		        112*seq_032_mvl/mxv
	.byte	W05
	.byte		        108*seq_032_mvl/mxv
	.byte	W03
	.byte		        107*seq_032_mvl/mxv
	.byte	W02
	.byte		        104*seq_032_mvl/mxv
	.byte	W03
	.byte		        100*seq_032_mvl/mxv
	.byte	W02
	.byte		        97*seq_032_mvl/mxv
	.byte	W03
	.byte		        95*seq_032_mvl/mxv
	.byte		BEND  , c_v-2
	.byte	W02
	.byte		VOL   , 92*seq_032_mvl/mxv
	.byte		BEND  , c_v-5
	.byte	W01
	.byte		        c_v-5
	.byte	W01
	.byte		VOL   , 89*seq_032_mvl/mxv
	.byte	W01
	.byte		BEND  , c_v-6
	.byte	W01
	.byte		        c_v-6
	.byte	W01
	.byte		VOL   , 84*seq_032_mvl/mxv
	.byte	W01
	.byte		BEND  , c_v-7
	.byte	W01
	.byte		VOL   , 82*seq_032_mvl/mxv
	.byte		BEND  , c_v-8
	.byte	W02
	.byte		        c_v-8
	.byte	W01
	.byte		VOL   , 75*seq_032_mvl/mxv
	.byte		BEND  , c_v-9
	.byte	W02
	.byte		VOL   , 69*seq_032_mvl/mxv
	.byte	W01
	.byte		BEND  , c_v-10
	.byte	W02
	.byte		VOL   , 62*seq_032_mvl/mxv
	.byte		BEND  , c_v-11
	.byte	W02
	.byte		VOL   , 60*seq_032_mvl/mxv
	.byte	W01
	.byte		BEND  , c_v-16
	.byte	W01
	.byte		VOL   , 55*seq_032_mvl/mxv
	.byte		BEND  , c_v-17
	.byte	W02
	.byte		        c_v-19
	.byte	W01
	.byte		VOL   , 50*seq_032_mvl/mxv
	.byte		BEND  , c_v-20
	.byte	W02
	.byte		VOL   , 44*seq_032_mvl/mxv
	.byte		BEND  , c_v-22
	.byte	W01
	.byte		        c_v-23
	.byte	W02
	.byte		VOL   , 29*seq_032_mvl/mxv
	.byte		BEND  , c_v-25
	.byte	W01
	.byte		        c_v-27
	.byte	W01
	.byte		VOL   , 16*seq_032_mvl/mxv
	.byte	W01
	.byte		BEND  , c_v-31
	.byte	W01
	.byte		        c_v-34
	.byte	W02
	.byte		        c_v-37
	.byte	W01
	.byte		        c_v-40
	.byte	W02
	.byte		        c_v-43
	.byte	W03
	.byte		EOT
	.byte	W40
	.byte	W01
	.byte		VOICE , 95
	.byte		VOL   , 93*seq_032_mvl/mxv
	.byte		PAN   , c_v+20
	.byte		BEND  , c_v+0
	.byte	W01
	.byte		TIE   , Gn1 , v096
	.byte	W96
	.byte	W96
	.byte		EOT
	.byte		TIE   , As1 
	.byte	W96
	.byte	W96
	.byte		EOT
	.byte		TIE   , Gn1 
	.byte	W96
	.byte	W96
	.byte		EOT
	.byte		N96
	.byte	W96
	.byte		        An1 
	.byte	W96
	.byte		TIE   , Gn1 
	.byte	W96
	.byte	W96
	.byte		EOT
	.byte		TIE   , As1 
	.byte	W96
	.byte	W96
	.byte		EOT
	.byte		TIE   , Gn1 
	.byte	W96
	.byte	W96
	.byte		EOT
	.byte		N36   , Gn1 , v096
	.byte	W36
	.byte		N60
	.byte	W60
	.byte	PEND
	.byte		N36   , An1 , v096
	.byte	W36
	.byte		N36
	.byte	W56
	.byte	W03
	.byte		PAN   , c_v+0
	.byte	W01
	.byte	PEND
	.byte		N72   , Gn1 , v088
	.byte	W84
	.byte		TIE   , As1 
	.byte	W12
	.byte	PEND
	.byte	W96
	.byte		EOT
	.byte		N72   , Gn1 , v088
	.byte	W84
	.byte		N36
	.byte	W12
	.byte	PEND
	.byte	W36
	.byte		N60   , An1 
	.byte	W60
	.byte	PATT
	 .word	seq_032_2 + 0x10C
	.byte	W96
	.byte		EOT   , As1 
	.byte	PATT
	 .word	seq_032_2 + 0x116
	.byte	W36
	.byte		N36   , An1 , v088
	.byte	W56
	.byte	W03
	.byte		VOICE , 115
	.byte		VOL   , 78*seq_032_mvl/mxv
	.byte		PAN   , c_v+30
	.byte		BEND  , c_v+0
	.byte	W01
	.byte	PEND
	.byte		TIE   , Bn2 , v120
	.byte	W96
	.byte	W96
	.byte		EOT
	.byte		TIE   , Dn3 
	.byte	W96
	.byte	W96
	.byte		EOT
	.byte		TIE   , Cn3 
	.byte	W96
	.byte	W96
	.byte	W96
	.byte		EOT
	.byte		N96   , Dn3 
	.byte	W96
	.byte		TIE   , Bn2 , v120
	.byte	W96
	.byte	W96
	.byte		EOT
	.byte		TIE   , Dn3 
	.byte	W96
	.byte	W96
	.byte		EOT
	.byte		TIE   , Cn3 
	.byte	W96
	.byte	W96
	.byte	W96
	.byte		EOT
	.byte		N96   , Dn3 
	.byte	W92
	.byte	W03
	.byte		VOICE , 95
	.byte		VOL   , 78*seq_032_mvl/mxv
	.byte		PAN   , c_v+30
	.byte		BEND  , c_v+0
	.byte	W01
	.byte		TIE   , Gn1 , v092
	.byte	W96
	.byte	W96
	.byte		EOT
	.byte		TIE   , As1 
	.byte	W96
	.byte	W96
	.byte		EOT
	.byte		TIE   , Gn1 
	.byte	W96
	.byte	W96
	.byte		EOT
	.byte		N96
	.byte	W96
	.byte		N72   , An1 
	.byte	W96
	.byte		TIE   , Gn1 
	.byte	W96
	.byte	W96
	.byte		EOT
	.byte		TIE   , As1 
	.byte	W96
	.byte	W96
	.byte		EOT
	.byte		TIE   , Gn1 
	.byte	W96
	.byte	W96
	.byte		EOT
	.byte		N96
	.byte	W96
	.byte		N72   , An1 
	.byte	W96
	.byte		TIE   , Gn1 , v096
	.byte	W96
	.byte	W96
	.byte		EOT
	.byte		TIE   , As1 
	.byte	W96
	.byte	W96
	.byte		EOT
	.byte		TIE   , Gn1 
	.byte	W96
	.byte	W96
	.byte		EOT
	.byte		N96
	.byte	W96
	.byte		N72   , An1 
	.byte	W96
	.byte		TIE   , Gn1 
	.byte	W96
	.byte	W96
	.byte		EOT
	.byte		TIE   , As1 
	.byte	W96
	.byte	W96
	.byte		EOT
	.byte		TIE   , Gn1 
	.byte	W96
	.byte	W96
	.byte		EOT
	.byte	PATT
	 .word	seq_032_2 + 0xFA
	.byte	PATT
	 .word	seq_032_2 + 0x101
	.byte	PATT
	 .word	seq_032_2 + 0x10C
	.byte	W96
	.byte		EOT   , As1 
	.byte	PATT
	 .word	seq_032_2 + 0x116
	.byte	W36
	.byte		N60   , An1 , v088
	.byte	W60
	.byte	PATT
	 .word	seq_032_2 + 0x10C
	.byte	W96
	.byte		EOT   , As1 
	.byte	PATT
	 .word	seq_032_2 + 0x116
	.byte	PATT
	 .word	seq_032_2 + 0x12E
	.byte		TIE   , Bn2 , v120
	.byte	W96
	.byte	W96
	.byte		EOT
	.byte		TIE   , Dn3 
	.byte	W96
	.byte	W96
	.byte		EOT
	.byte		TIE   , Cn3 
	.byte	W96
	.byte	W96
	.byte	W96
	.byte		EOT
	.byte		N96   , Dn3 
	.byte	W96
	.byte	GOTO
	 .word	seq_032_2 + 0x152
	.byte	FINE

@*********************** Track 04 ***********************@

seq_032_3:
	.byte	KEYSH , seq_032_key+0
	.byte	W07
	.byte		VOICE , 45
	.byte		VOL   , 68*seq_032_mvl/mxv
	.byte		PAN   , c_v+0
	.byte	W01
	.byte		MOD   , 4
	.byte		LFOS  , 20
	.byte		MODT  , mod_tre
	.byte	W01
	.byte		BENDR , 2
	.byte		LFODL , 20
	.byte	W14
	.byte		VOL   , 0*seq_032_mvl/mxv
	.byte		BEND  , c_v+0
	.byte	W01
	.byte		TIE   , En2 , v112
	.byte	W07
	.byte		VOL   , 1*seq_032_mvl/mxv
	.byte	W03
	.byte		        2*seq_032_mvl/mxv
	.byte	W02
	.byte	W01
	.byte		        4*seq_032_mvl/mxv
	.byte	W03
	.byte		        5*seq_032_mvl/mxv
	.byte	W03
	.byte		        6*seq_032_mvl/mxv
	.byte	W03
	.byte		        8*seq_032_mvl/mxv
	.byte	W03
	.byte		        13*seq_032_mvl/mxv
	.byte	W03
	.byte		        13*seq_032_mvl/mxv
	.byte	W03
	.byte		        16*seq_032_mvl/mxv
	.byte	W03
	.byte		        19*seq_032_mvl/mxv
	.byte	W03
	.byte		        23*seq_032_mvl/mxv
	.byte	W03
	.byte		        26*seq_032_mvl/mxv
	.byte	W03
	.byte		        30*seq_032_mvl/mxv
	.byte	W03
	.byte		        33*seq_032_mvl/mxv
	.byte	W03
	.byte		        37*seq_032_mvl/mxv
	.byte	W03
	.byte		        42*seq_032_mvl/mxv
	.byte	W03
	.byte		        46*seq_032_mvl/mxv
	.byte	W03
	.byte		        52*seq_032_mvl/mxv
	.byte	W03
	.byte		        57*seq_032_mvl/mxv
	.byte	W03
	.byte		        63*seq_032_mvl/mxv
	.byte	W03
	.byte		        70*seq_032_mvl/mxv
	.byte	W03
	.byte		        77*seq_032_mvl/mxv
	.byte	W03
	.byte		        84*seq_032_mvl/mxv
	.byte	W03
	.byte		        92*seq_032_mvl/mxv
	.byte	W03
	.byte		        100*seq_032_mvl/mxv
	.byte	W03
	.byte		        113*seq_032_mvl/mxv
	.byte	W03
	.byte		        123*seq_032_mvl/mxv
	.byte	W03
	.byte		        120*seq_032_mvl/mxv
	.byte	W03
	.byte		        119*seq_032_mvl/mxv
	.byte	W03
	.byte		        117*seq_032_mvl/mxv
	.byte	W03
	.byte		        116*seq_032_mvl/mxv
	.byte	W03
	.byte		        114*seq_032_mvl/mxv
	.byte	W03
	.byte		        112*seq_032_mvl/mxv
	.byte	W05
	.byte		        108*seq_032_mvl/mxv
	.byte	W03
	.byte		        107*seq_032_mvl/mxv
	.byte	W02
	.byte		        104*seq_032_mvl/mxv
	.byte	W03
	.byte		        100*seq_032_mvl/mxv
	.byte	W02
	.byte		        97*seq_032_mvl/mxv
	.byte	W03
	.byte		        95*seq_032_mvl/mxv
	.byte		BEND  , c_v-2
	.byte	W02
	.byte		VOL   , 92*seq_032_mvl/mxv
	.byte		BEND  , c_v-5
	.byte	W01
	.byte		        c_v-5
	.byte	W01
	.byte		VOL   , 89*seq_032_mvl/mxv
	.byte	W01
	.byte		BEND  , c_v-6
	.byte	W01
	.byte		        c_v-6
	.byte	W01
	.byte		VOL   , 84*seq_032_mvl/mxv
	.byte	W01
	.byte		BEND  , c_v-7
	.byte	W01
	.byte		VOL   , 82*seq_032_mvl/mxv
	.byte		BEND  , c_v-8
	.byte	W02
	.byte		        c_v-8
	.byte	W01
	.byte		VOL   , 75*seq_032_mvl/mxv
	.byte		BEND  , c_v-9
	.byte	W02
	.byte		VOL   , 69*seq_032_mvl/mxv
	.byte	W01
	.byte		BEND  , c_v-10
	.byte	W02
	.byte		VOL   , 62*seq_032_mvl/mxv
	.byte		BEND  , c_v-11
	.byte	W02
	.byte		VOL   , 60*seq_032_mvl/mxv
	.byte	W01
	.byte		BEND  , c_v-16
	.byte	W01
	.byte		VOL   , 55*seq_032_mvl/mxv
	.byte		BEND  , c_v-17
	.byte	W02
	.byte		        c_v-19
	.byte	W01
	.byte		VOL   , 50*seq_032_mvl/mxv
	.byte		BEND  , c_v-20
	.byte	W02
	.byte		VOL   , 44*seq_032_mvl/mxv
	.byte		BEND  , c_v-22
	.byte	W01
	.byte		        c_v-23
	.byte	W02
	.byte		VOL   , 29*seq_032_mvl/mxv
	.byte		BEND  , c_v-25
	.byte	W01
	.byte		        c_v-27
	.byte	W01
	.byte		VOL   , 16*seq_032_mvl/mxv
	.byte	W01
	.byte		BEND  , c_v-31
	.byte	W01
	.byte		        c_v-34
	.byte	W02
	.byte		        c_v-37
	.byte	W01
	.byte		        c_v-40
	.byte	W02
	.byte		        c_v-43
	.byte	W03
	.byte		EOT
	.byte	W32
	.byte	W03
	.byte		VOL   , 83*seq_032_mvl/mxv
	.byte		MODT  , mod_pan
	.byte		LFODL , 0
	.byte		BEND  , c_v+0
	.byte	W06
	.byte		VOICE , 7
	.byte		MOD   , 0
	.byte		LFOS  , 30
	.byte	W01
	.byte		N05   , Gn2 , v112
	.byte	W06
	.byte		        Gn2 , v032
	.byte	W06
	.byte		        Gn2 , v072
	.byte	W06
	.byte		        Gn2 , v032
	.byte	W18
	.byte		        Dn3 , v112
	.byte	W06
	.byte		N30   , Dn3 , v072
	.byte	W30
	.byte		N24   , Fn2 , v080
	.byte	W24
	.byte	PEND
	.byte		N05   , Gn2 , v112
	.byte	W06
	.byte		        Gn2 , v032
	.byte	W06
	.byte		        Gn2 , v072
	.byte	W06
	.byte		        Gn2 , v032
	.byte	W18
	.byte		        Dn3 , v112
	.byte	W06
	.byte		N30   , Dn3 , v072
	.byte	W30
	.byte		N24   , Cn3 , v080
	.byte	W24
	.byte	PEND
	.byte		N05   , Dn3 , v112
	.byte	W06
	.byte		        Dn3 , v032
	.byte	W06
	.byte		        Dn3 , v072
	.byte	W06
	.byte		        Dn3 , v032
	.byte	W18
	.byte		        Gn3 , v112
	.byte	W06
	.byte		        Gn3 , v032
	.byte	W06
	.byte		        Gn3 , v072
	.byte	W06
	.byte		        Gn3 , v032
	.byte	W18
	.byte		        As3 , v112
	.byte	W06
	.byte		N18   , As3 , v080
	.byte	W18
	.byte	PEND
	.byte		N05   , An3 , v112
	.byte	W06
	.byte		        An3 , v032
	.byte	W06
	.byte		        An3 , v072
	.byte	W06
	.byte		        An3 , v032
	.byte	W18
	.byte		        Fn3 , v112
	.byte	W06
	.byte		        Fn3 , v032
	.byte	W06
	.byte		        Fn3 , v072
	.byte	W06
	.byte		        Fn3 , v032
	.byte	W18
	.byte		        Cn3 , v112
	.byte	W06
	.byte		N18   , Cn3 , v080
	.byte	W17
	.byte		VOICE , 102
	.byte		MOD   , 75
	.byte		VOL   , 59*seq_032_mvl/mxv
	.byte		BEND  , c_v+0
	.byte	W01
	.byte	PEND
	.byte		N36   , Dn2 , v068
	.byte	W01
	.byte		VOL   , 44*seq_032_mvl/mxv
	.byte	W02
	.byte		        69*seq_032_mvl/mxv
	.byte	W02
	.byte		        91*seq_032_mvl/mxv
	.byte	W02
	.byte		        102*seq_032_mvl/mxv
	.byte	W28
	.byte	W01
	.byte		N36   , Gn2 , v080
	.byte	W36
	.byte		N24   , As2 , v108
	.byte	W24
	.byte	PEND
	.byte		N36   , An2 , v076
	.byte	W36
	.byte		        Fn2 
	.byte	W36
	.byte		N24   , Cn2 , v060
	.byte	W05
	.byte		VOL   , 100*seq_032_mvl/mxv
	.byte	W05
	.byte		        89*seq_032_mvl/mxv
	.byte	W02
	.byte		        81*seq_032_mvl/mxv
	.byte	W02
	.byte		        72*seq_032_mvl/mxv
	.byte	W02
	.byte		        64*seq_032_mvl/mxv
	.byte	W02
	.byte		        57*seq_032_mvl/mxv
	.byte	W02
	.byte		        46*seq_032_mvl/mxv
	.byte	W02
	.byte		        26*seq_032_mvl/mxv
	.byte	W02
	.byte	PEND
	.byte	W96
	.byte	W92
	.byte	W03
	.byte		VOICE , 7
	.byte		MOD   , 0
	.byte		VOL   , 83*seq_032_mvl/mxv
	.byte		BEND  , c_v+0
	.byte	W01
	.byte	PEND
	.byte	PATT
	 .word	seq_032_3 + 0xDE
	.byte	PATT
	 .word	seq_032_3 + 0xF7
	.byte	PATT
	 .word	seq_032_3 + 0x110
	.byte	PATT
	 .word	seq_032_3 + 0x131
	.byte	PATT
	 .word	seq_032_3 + 0x15B
	.byte	PATT
	 .word	seq_032_3 + 0x172
	.byte	W96
	.byte	W96
	.byte	W96
	.byte	W96
	.byte	W96
	.byte	W96
	.byte	W96
	.byte	W96
	.byte	W96
	.byte	W92
	.byte	W03
	.byte		VOICE , 119
	.byte		MOD   , 20
	.byte		VOL   , 73*seq_032_mvl/mxv
	.byte		BEND  , c_v+0
	.byte	W01
	.byte	PEND
	.byte		TIE   , En2 , v116
	.byte	W96
	.byte	W96
	.byte		EOT
	.byte		TIE   , Gn2 
	.byte	W96
	.byte	W96
	.byte	W96
	.byte	W96
	.byte		EOT
	.byte	W96
	.byte	W96
	.byte		TIE   , En2 , v116
	.byte	W96
	.byte	W96
	.byte		EOT
	.byte		TIE   , Gn2 
	.byte	W96
	.byte	W96
	.byte	W96
	.byte	W96
	.byte		EOT
	.byte	W96
	.byte	W92
	.byte	W03
	.byte		VOICE , 119
	.byte		VOL   , 63*seq_032_mvl/mxv
	.byte		BEND  , c_v+0
	.byte	W01
	.byte	W96
	.byte	W96
	.byte	W96
	.byte	W96
	.byte	W96
	.byte	W96
	.byte	W96
	.byte	W96
	.byte	W96
	.byte	W96
	.byte	W96
	.byte	W96
	.byte	W96
	.byte	W96
	.byte	W96
	.byte	W96
	.byte	W78
	.byte		MOD   , 70
	.byte		LFOS  , 30
	.byte		MODT  , mod_pan
	.byte	W01
	.byte		LFODL , 0
	.byte	W17
	.byte	W05
	.byte		VOICE , 102
	.byte		VOL   , 59*seq_032_mvl/mxv
	.byte		BEND  , c_v+0
	.byte	W90
	.byte	W01
	.byte	W96
	.byte	W92
	.byte	W03
	.byte		VOL   , 29*seq_032_mvl/mxv
	.byte	W01
	.byte	PATT
	 .word	seq_032_3 + 0x15B
	.byte		N36   , An2 , v076
	.byte	W36
	.byte		        Fn2 
	.byte	W36
	.byte		N24   , Cn2 , v060
	.byte	W05
	.byte		VOL   , 100*seq_032_mvl/mxv
	.byte	W05
	.byte		        89*seq_032_mvl/mxv
	.byte	W02
	.byte		        81*seq_032_mvl/mxv
	.byte	W02
	.byte		        72*seq_032_mvl/mxv
	.byte	W02
	.byte		        64*seq_032_mvl/mxv
	.byte	W02
	.byte		        57*seq_032_mvl/mxv
	.byte	W02
	.byte		        46*seq_032_mvl/mxv
	.byte	W02
	.byte		        26*seq_032_mvl/mxv
	.byte	W01
	.byte		        78*seq_032_mvl/mxv
	.byte	W01
	.byte		N11   , Gn3 , v080
	.byte	W12
	.byte		N05   , Fn3 
	.byte	W06
	.byte		        Dn3 
	.byte	W06
	.byte		N03   , Dn2 
	.byte	W06
	.byte		N05   , Cn3 
	.byte	W06
	.byte		N03   , Dn2 
	.byte	W06
	.byte		N05   , Dn3 
	.byte	W06
	.byte		N03   , Dn2 
	.byte	W06
	.byte		N05   , Gn2 
	.byte	W06
	.byte		        Dn2 
	.byte	W06
	.byte		        As2 
	.byte	W06
	.byte		N03   , Dn2 
	.byte	W06
	.byte		N05   , Cn2 
	.byte	W06
	.byte		N11   , Dn2 
	.byte	W12
	.byte	PATT
	 .word	seq_032_3 + 0x18F
	.byte	PATT
	 .word	seq_032_3 + 0xDE
	.byte	PATT
	 .word	seq_032_3 + 0xF7
	.byte	PATT
	 .word	seq_032_3 + 0x110
	.byte	PATT
	 .word	seq_032_3 + 0x131
	.byte	PATT
	 .word	seq_032_3 + 0x15B
	.byte	PATT
	 .word	seq_032_3 + 0x172
	.byte	W96
	.byte	W96
	.byte	W96
	.byte	W96
	.byte	W96
	.byte	W96
	.byte	W96
	.byte	W96
	.byte	W96
	.byte	PATT
	 .word	seq_032_3 + 0x1C2
	.byte		TIE   , En2 , v116
	.byte	W96
	.byte	W96
	.byte		EOT
	.byte		TIE   , Gn2 
	.byte	W96
	.byte	W96
	.byte	W96
	.byte	W96
	.byte		EOT
	.byte	W96
	.byte	W96
	.byte	GOTO
	 .word	seq_032_3 + 0x1DD
	.byte	FINE

@*********************** Track 05 ***********************@

seq_032_4:
	.byte	KEYSH , seq_032_key+0
	.byte	W10
	.byte		VOICE , 52
	.byte		VOL   , 98*seq_032_mvl/mxv
	.byte		PAN   , c_v+0
	.byte	W01
	.byte		MOD   , 5
	.byte		LFOS  , 13
	.byte		MODT  , mod_tre
	.byte	W24
	.byte	W01
	.byte	W96
	.byte	W96
	.byte		N96   , Bn2 , v060
	.byte	W96
	.byte		N96
	.byte	W96
	.byte		        Dn3 
	.byte	W96
	.byte		N96
	.byte	W96
	.byte		        Cn3 
	.byte	W96
	.byte		N96
	.byte	W96
	.byte		N36   , As2 
	.byte	W36
	.byte		N60
	.byte	W60
	.byte		N36   , Cn3 
	.byte	W36
	.byte		N60
	.byte	W60
	.byte		N96   , Bn2 , v068
	.byte	W96
	.byte		N96
	.byte	W96
	.byte		        Dn3 
	.byte	W96
	.byte		N96
	.byte	W96
	.byte		        Cn3 
	.byte	W96
	.byte		N96
	.byte	W96
	.byte		N36   , As2 
	.byte	W36
	.byte		N24
	.byte	W24
	.byte		N36
	.byte	W36
	.byte		N12   , Cn3 
	.byte	W12
	.byte		N24
	.byte	W24
	.byte		N24
	.byte	W24
	.byte		N12
	.byte	W32
	.byte	W03
	.byte		MOD   , 0
	.byte	W01
	.byte		N72   , Bn2 , v080
	.byte	W96
	.byte		N96   , Dn3 
	.byte	W96
	.byte		N72   , Cn3 , v080
	.byte	W84
	.byte		N36   , As2 
	.byte	W12
	.byte	PEND
	.byte	W36
	.byte		N60   , Cn3 
	.byte	W60
	.byte		N72   , Bn2 
	.byte	W96
	.byte		N96   , Dn3 
	.byte	W96
	.byte		N72   , Cn3 
	.byte	W96
	.byte	W92
	.byte	W03
	.byte		VOICE , 53
	.byte		MOD   , 24
	.byte	W01
	.byte	PEND
	.byte		TIE   , Gn2 , v092
	.byte	W96
	.byte	W96
	.byte		EOT
	.byte		TIE   , As2 
	.byte	W96
	.byte	W96
	.byte		EOT
	.byte		TIE   , An2 
	.byte	W96
	.byte	W96
	.byte		EOT
	.byte		N96   , As2 
	.byte	W96
	.byte		        Cn3 
	.byte	W92
	.byte	W03
	.byte		MOD   , 24
	.byte	W01
	.byte		TIE   , Gn2 , v092
	.byte	W96
	.byte	W96
	.byte		EOT
	.byte		TIE   , As2 
	.byte	W96
	.byte	W96
	.byte		EOT
	.byte		TIE   , An2 
	.byte	W96
	.byte	W96
	.byte		EOT
	.byte		N96   , As2 
	.byte	W96
	.byte		        Cn3 
	.byte	W92
	.byte	W03
	.byte		VOICE , 52
	.byte	W01
	.byte		TIE   , Bn2 , v052
	.byte	W96
	.byte	W96
	.byte		EOT
	.byte		TIE   , Dn3 
	.byte	W96
	.byte	W96
	.byte		EOT
	.byte		TIE   , Cn3 
	.byte	W96
	.byte	W96
	.byte		EOT
	.byte		N96   , As2 
	.byte	W96
	.byte		N72   , Cn3 
	.byte	W96
	.byte		TIE   , Bn2 
	.byte	W96
	.byte	W96
	.byte		EOT
	.byte		TIE   , Dn3 
	.byte	W96
	.byte	W96
	.byte		EOT
	.byte		TIE   , Cn3 
	.byte	W96
	.byte	W96
	.byte		EOT
	.byte		N96   , As2 
	.byte	W96
	.byte		        Cn3 
	.byte	W92
	.byte	W03
	.byte		VOICE , 52
	.byte	W01
	.byte		TIE   , Bn2 , v060
	.byte	W96
	.byte	W96
	.byte		EOT
	.byte		TIE   , Dn3 
	.byte	W96
	.byte	W96
	.byte		EOT
	.byte		TIE   , Cn3 
	.byte	W96
	.byte	W96
	.byte		EOT
	.byte		N96   , As2 
	.byte	W96
	.byte		N72   , Cn3 
	.byte	W96
	.byte		N96   , Bn2 
	.byte	W96
	.byte		N96
	.byte	W96
	.byte		        Dn3 
	.byte	W96
	.byte		N96
	.byte	W96
	.byte		        Cn3 
	.byte	W96
	.byte		N96
	.byte	W96
	.byte		N36   , As2 
	.byte	W36
	.byte		N24
	.byte	W24
	.byte		N36
	.byte	W36
	.byte		N12   , Cn3 
	.byte	W12
	.byte		N24
	.byte	W24
	.byte		N24
	.byte	W24
	.byte		N12
	.byte	W32
	.byte	W03
	.byte		MOD   , 0
	.byte	W01
	.byte		N72   , Bn2 , v080
	.byte	W96
	.byte		N96   , Dn3 
	.byte	W96
	.byte	PATT
	 .word	seq_032_4 + 0x55
	.byte	W36
	.byte		N60   , Cn3 , v080
	.byte	W60
	.byte		N72   , Bn2 
	.byte	W96
	.byte		N96   , Dn3 
	.byte	W96
	.byte		N72   , Cn3 
	.byte	W96
	.byte	PATT
	 .word	seq_032_4 + 0x6A
	.byte		TIE   , Gn2 , v092
	.byte	W96
	.byte	W96
	.byte		EOT
	.byte		TIE   , As2 
	.byte	W96
	.byte	W96
	.byte		EOT
	.byte		TIE   , An2 
	.byte	W96
	.byte	W96
	.byte		EOT
	.byte		N96   , As2 
	.byte	W96
	.byte		        Cn3 
	.byte	W96
	.byte	GOTO
	 .word	seq_032_4 + 0x8B
	.byte	FINE

@*********************** Track 06 ***********************@

seq_032_5:
	.byte	KEYSH , seq_032_key+0
	.byte	W12
	.byte		VOICE , 53
	.byte		VOL   , 125*seq_032_mvl/mxv
	.byte		PAN   , c_v+0
	.byte	W01
	.byte		MOD   , 0
	.byte		MODT  , mod_pan
	.byte	W23
	.byte	W96
	.byte	W96
	.byte	W92
	.byte	W03
	.byte		PAN   , c_v+0
	.byte	W01
	.byte	PEND
	.byte	W52
	.byte	W01
	.byte		PAN   , c_v+0
	.byte	W01
	.byte		N02   , Dn2 , v112
	.byte	W03
	.byte		N03   , Dn2 , v068
	.byte	W02
	.byte		PAN   , c_v+30
	.byte	W01
	.byte		N02   , An2 , v112
	.byte	W03
	.byte		N03   , An2 , v068
	.byte	W02
	.byte		PAN   , c_v-30
	.byte	W01
	.byte		N02   , Dn3 , v112
	.byte	W03
	.byte		N03   , Dn3 , v068
	.byte	W02
	.byte		PAN   , c_v+30
	.byte	W01
	.byte		N02   , An3 , v112
	.byte	W03
	.byte		N03   , An3 , v040
	.byte	W02
	.byte		PAN   , c_v-30
	.byte	W01
	.byte		N02   , Dn4 , v112
	.byte	W03
	.byte		N03   , Dn4 , v040
	.byte	W02
	.byte		PAN   , c_v+30
	.byte	W01
	.byte		N02   , An4 , v112
	.byte	W03
	.byte		N03   , An4 , v040
	.byte	W02
	.byte		PAN   , c_v-30
	.byte	W01
	.byte		N02   , Dn5 , v112
	.byte	W03
	.byte		N03   , Dn5 , v040
	.byte	W03
	.byte	PEND
	.byte	PATT
	 .word	seq_032_5 + 0x11
	.byte	PATT
	 .word	seq_032_5 + 0x17
	.byte	PATT
	 .word	seq_032_5 + 0x11
	.byte	PATT
	 .word	seq_032_5 + 0x17
	.byte	PATT
	 .word	seq_032_5 + 0x11
	.byte	PATT
	 .word	seq_032_5 + 0x17
	.byte	PATT
	 .word	seq_032_5 + 0x11
	.byte	PATT
	 .word	seq_032_5 + 0x17
	.byte	PATT
	 .word	seq_032_5 + 0x11
	.byte	PATT
	 .word	seq_032_5 + 0x17
	.byte	PATT
	 .word	seq_032_5 + 0x11
	.byte	PATT
	 .word	seq_032_5 + 0x17
	.byte	PATT
	 .word	seq_032_5 + 0x11
	.byte	W52
	.byte	W01
	.byte		PAN   , c_v+0
	.byte	W01
	.byte		N02   , Dn2 , v112
	.byte	W03
	.byte		N03   , Dn2 , v068
	.byte	W02
	.byte		PAN   , c_v+30
	.byte	W01
	.byte		N02   , An2 , v112
	.byte	W03
	.byte		N03   , An2 , v068
	.byte	W02
	.byte		PAN   , c_v-30
	.byte	W01
	.byte		N02   , Dn3 , v112
	.byte	W03
	.byte		N03   , Dn3 , v068
	.byte	W02
	.byte		PAN   , c_v+30
	.byte	W01
	.byte		N02   , An3 , v112
	.byte	W03
	.byte		N03   , An3 , v040
	.byte	W02
	.byte		PAN   , c_v-30
	.byte	W06
	.byte		        c_v+30
	.byte	W06
	.byte		        c_v-30
	.byte	W07
	.byte	PEND
	.byte	PATT
	 .word	seq_032_5 + 0x11
	.byte	PATT
	 .word	seq_032_5 + 0x17
	.byte	PATT
	 .word	seq_032_5 + 0x11
	.byte	PATT
	 .word	seq_032_5 + 0x17
	.byte	PATT
	 .word	seq_032_5 + 0x11
	.byte	PATT
	 .word	seq_032_5 + 0x17
	.byte	W96
	.byte	W28
	.byte	W01
	.byte		PAN   , c_v+0
	.byte	W01
	.byte		N02   , Dn2 , v112
	.byte	W03
	.byte		N03   , Dn2 , v068
	.byte	W02
	.byte		PAN   , c_v+30
	.byte	W01
	.byte		N02   , An2 , v112
	.byte	W03
	.byte		N03   , An2 , v068
	.byte	W02
	.byte		PAN   , c_v-30
	.byte	W01
	.byte		N02   , Dn3 , v112
	.byte	W03
	.byte		N03   , Dn3 , v068
	.byte	W02
	.byte		PAN   , c_v+30
	.byte	W01
	.byte		N02   , An3 , v112
	.byte	W03
	.byte		N03   , An3 , v040
	.byte	W02
	.byte		PAN   , c_v-30
	.byte	W01
	.byte		N02   , Dn4 , v112
	.byte	W03
	.byte		N03   , Dn4 , v040
	.byte	W02
	.byte		PAN   , c_v+30
	.byte	W01
	.byte		N02   , An4 , v112
	.byte	W03
	.byte		N03   , An4 , v040
	.byte	W02
	.byte		PAN   , c_v-30
	.byte	W01
	.byte		N02   , Dn5 , v112
	.byte	W03
	.byte		N03   , Dn5 , v040
	.byte	W24
	.byte	W02
	.byte		VOICE , 52
	.byte		MOD   , 50
	.byte		PAN   , c_v+0
	.byte	W01
	.byte	PEND
	.byte		N06   , Dn4 , v068
	.byte	W06
	.byte		N02   , Dn3 , v020
	.byte	W06
	.byte		        Gn3 , v068
	.byte	W06
	.byte		        Dn3 , v036
	.byte	W06
	.byte		        An3 , v068
	.byte	W06
	.byte		N06   , Dn4 
	.byte	W06
	.byte		N02   , An3 , v020
	.byte	W06
	.byte		N06   , Dn4 , v068
	.byte	W06
	.byte		N02   , Dn3 , v020
	.byte	W06
	.byte		N06   , Cs4 , v068
	.byte	W06
	.byte		N02   , An3 
	.byte	W06
	.byte		        Dn3 , v020
	.byte	W06
	.byte		N12   , Dn4 , v068
	.byte	W12
	.byte		N02   , Cn3 
	.byte	W06
	.byte		        Dn3 , v020
	.byte	W06
	.byte	PEND
	.byte		N06   , Dn4 , v068
	.byte	W06
	.byte		N02   , Dn3 , v020
	.byte	W06
	.byte		        Gn3 , v068
	.byte	W06
	.byte		        Dn3 , v036
	.byte	W06
	.byte		        An3 , v068
	.byte	W06
	.byte		N06   , Dn4 
	.byte	W06
	.byte		N02   , An3 , v020
	.byte	W06
	.byte		N06   , Dn4 , v068
	.byte	W06
	.byte		N02   , Dn3 , v020
	.byte	W06
	.byte		N06   , Cs4 , v068
	.byte	W06
	.byte		N02   , An3 
	.byte	W06
	.byte		        Dn3 , v020
	.byte	W06
	.byte		N12   , Dn4 , v068
	.byte	W12
	.byte		N02   , Gn3 
	.byte	W06
	.byte		        An3 , v020
	.byte	W06
	.byte	PEND
	.byte		N06   , Fn4 , v068
	.byte	W06
	.byte		N02   , Fn3 , v020
	.byte	W06
	.byte		        As3 , v068
	.byte	W06
	.byte		        Fn3 , v036
	.byte	W06
	.byte		        As3 , v068
	.byte	W06
	.byte		N06   , Fn4 
	.byte	W06
	.byte		N02   , As3 , v020
	.byte	W06
	.byte		N06   , Fn4 , v068
	.byte	W06
	.byte		N02   , Fn3 , v020
	.byte	W06
	.byte		N06   , En4 , v068
	.byte	W06
	.byte		N02   , As3 
	.byte	W06
	.byte		        En4 , v020
	.byte	W06
	.byte		N12   , Fn4 , v068
	.byte	W12
	.byte		N02   , An3 
	.byte	W06
	.byte		        As3 , v020
	.byte	W06
	.byte	PEND
	.byte	PATT
	 .word	seq_032_5 + 0x1BF
	.byte		N06   , Gn4 , v068
	.byte	W06
	.byte		N02   , Gn3 , v020
	.byte	W06
	.byte		        Cn4 , v068
	.byte	W06
	.byte		        Gn3 , v036
	.byte	W06
	.byte		        Cn4 , v068
	.byte	W06
	.byte		N06   , Gn4 
	.byte	W06
	.byte		N02   , Cn4 , v020
	.byte	W06
	.byte		N06   , Gn4 , v068
	.byte	W06
	.byte		N02   , Gn3 , v020
	.byte	W06
	.byte		N06   , Fs4 , v068
	.byte	W06
	.byte		N02   , Cn4 
	.byte	W06
	.byte		        Dn4 , v020
	.byte	W06
	.byte		N12   , Gn4 , v068
	.byte	W12
	.byte		N02   , Cn4 
	.byte	W06
	.byte		        Dn4 , v020
	.byte	W06
	.byte	PEND
	.byte	PATT
	 .word	seq_032_5 + 0x1F9
	.byte		N06   , As4 , v068
	.byte	W06
	.byte		N02   , As3 , v020
	.byte	W06
	.byte		        Ds4 , v068
	.byte	W06
	.byte		        As3 , v036
	.byte	W06
	.byte		        Ds4 , v068
	.byte	W06
	.byte		N06   , As4 
	.byte	W06
	.byte		N02   , Ds4 , v020
	.byte	W06
	.byte		N06   , As4 , v068
	.byte	W06
	.byte		N02   , As3 , v020
	.byte	W06
	.byte		N06   , An4 , v068
	.byte	W06
	.byte		N02   , Ds4 
	.byte	W06
	.byte		        Fn4 , v020
	.byte	W06
	.byte		N12   , As4 , v068
	.byte	W12
	.byte		N02   , Ds4 
	.byte	W06
	.byte		        Fn4 , v020
	.byte	W06
	.byte	PEND
	.byte		N06   , Cn5 , v068
	.byte	W06
	.byte		N02   , Cn4 , v020
	.byte	W06
	.byte		        Fn4 , v068
	.byte	W06
	.byte		        Cn4 , v036
	.byte	W06
	.byte		        Fn4 , v068
	.byte	W06
	.byte		N06   , Cn5 
	.byte	W06
	.byte		N02   , Fn4 , v020
	.byte	W06
	.byte		N06   , Cn5 , v068
	.byte	W06
	.byte		N02   , Cn4 , v020
	.byte	W06
	.byte		N06   , Bn4 , v068
	.byte	W06
	.byte		N02   , En4 
	.byte	W06
	.byte		        Fn4 , v020
	.byte	W06
	.byte		N12   , Cn5 , v068
	.byte	W12
	.byte		N02   , As3 
	.byte	W06
	.byte		        Cn4 , v020
	.byte	W06
	.byte	PEND
	.byte	PATT
	 .word	seq_032_5 + 0x155
	.byte	PATT
	 .word	seq_032_5 + 0x18A
	.byte	PATT
	 .word	seq_032_5 + 0x1BF
	.byte	PATT
	 .word	seq_032_5 + 0x1BF
	.byte	PATT
	 .word	seq_032_5 + 0x1F9
	.byte	PATT
	 .word	seq_032_5 + 0x1F9
	.byte	PATT
	 .word	seq_032_5 + 0x233
	.byte		N06   , Cn5 , v068
	.byte	W06
	.byte		N02   , Cn4 , v020
	.byte	W06
	.byte		        Fn4 , v068
	.byte	W06
	.byte		        Cn4 , v036
	.byte	W06
	.byte		        Fn4 , v068
	.byte	W06
	.byte		N06   , Cn5 
	.byte	W06
	.byte		N02   , Fn4 , v020
	.byte	W06
	.byte		N06   , Cn5 , v068
	.byte	W06
	.byte		N02   , Cn4 , v020
	.byte	W06
	.byte		N06   , Bn4 , v068
	.byte	W06
	.byte		N02   , En4 
	.byte	W06
	.byte		        Fn4 , v020
	.byte	W06
	.byte		N12   , Cn5 , v068
	.byte	W12
	.byte		N02   , As3 
	.byte	W06
	.byte		        Cn4 , v020
	.byte	W05
	.byte		VOICE , 53
	.byte		PAN   , c_v+0
	.byte	W01
	.byte	PATT
	 .word	seq_032_5 + 0x155
	.byte	PATT
	 .word	seq_032_5 + 0x18A
	.byte	PATT
	 .word	seq_032_5 + 0x1BF
	.byte	PATT
	 .word	seq_032_5 + 0x1BF
	.byte	PATT
	 .word	seq_032_5 + 0x1F9
	.byte	PATT
	 .word	seq_032_5 + 0x1F9
	.byte	PATT
	 .word	seq_032_5 + 0x233
	.byte	PATT
	 .word	seq_032_5 + 0x268
	.byte	PATT
	 .word	seq_032_5 + 0x155
	.byte	PATT
	 .word	seq_032_5 + 0x18A
	.byte	PATT
	 .word	seq_032_5 + 0x1BF
	.byte	PATT
	 .word	seq_032_5 + 0x1BF
	.byte	PATT
	 .word	seq_032_5 + 0x1F9
	.byte	PATT
	 .word	seq_032_5 + 0x1F9
	.byte	PATT
	 .word	seq_032_5 + 0x233
	.byte	PATT
	 .word	seq_032_5 + 0x268
	.byte	PATT
	 .word	seq_032_5 + 0x17
	.byte	W11
	.byte		PAN   , c_v+30
	.byte	W12
	.byte		        c_v-30
	.byte	W12
	.byte		        c_v+30
	.byte	W12
	.byte		        c_v-30
	.byte	W12
	.byte		        c_v+30
	.byte	W12
	.byte		        c_v-30
	.byte	W12
	.byte		        c_v+30
	.byte	W13
	.byte	PEND
	.byte	PATT
	 .word	seq_032_5 + 0x17
	.byte	PATT
	 .word	seq_032_5 + 0x34E
	.byte	PATT
	 .word	seq_032_5 + 0x17
	.byte	PATT
	 .word	seq_032_5 + 0x34E
	.byte	PATT
	 .word	seq_032_5 + 0x17
	.byte	PATT
	 .word	seq_032_5 + 0x34E
	.byte	PATT
	 .word	seq_032_5 + 0x17
	.byte	PATT
	 .word	seq_032_5 + 0x34E
	.byte	PATT
	 .word	seq_032_5 + 0x17
	.byte	PATT
	 .word	seq_032_5 + 0x34E
	.byte	W52
	.byte	W01
	.byte		PAN   , c_v+0
	.byte	W01
	.byte		N02   , Dn2 , v112
	.byte	W03
	.byte		N03   , Dn2 , v068
	.byte	W02
	.byte		PAN   , c_v+30
	.byte	W01
	.byte		N02   , An2 , v112
	.byte	W03
	.byte		N03   , An2 , v068
	.byte	W02
	.byte		PAN   , c_v-30
	.byte	W01
	.byte		N02   , Dn3 , v112
	.byte	W03
	.byte		N03   , Dn3 , v068
	.byte	W02
	.byte		PAN   , c_v+30
	.byte	W01
	.byte		N02   , An3 , v112
	.byte	W03
	.byte		N03   , An3 , v040
	.byte	W02
	.byte		PAN   , c_v-30
	.byte	W01
	.byte		N02   , Dn4 , v112
	.byte	W03
	.byte		N03   , Dn4 , v040
	.byte	W02
	.byte		PAN   , c_v+30
	.byte	W01
	.byte		N02   , An4 , v112
	.byte	W03
	.byte		N03   , An4 , v040
	.byte	W02
	.byte		PAN   , c_v-30
	.byte	W01
	.byte		N02   , Dn5 , v112
	.byte	W03
	.byte		N03   , Dn5 , v040
	.byte	W02
	.byte		PAN   , c_v+0
	.byte	W01
	.byte	W11
	.byte		        c_v+30
	.byte	W12
	.byte		        c_v-30
	.byte	W12
	.byte		        c_v+30
	.byte	W12
	.byte		        c_v-30
	.byte	W06
	.byte		        c_v+0
	.byte	W01
	.byte		N02   , Dn2 , v112
	.byte	W03
	.byte		N03   , Dn2 , v068
	.byte	W02
	.byte		PAN   , c_v+30
	.byte	W01
	.byte		N02   , An2 , v112
	.byte	W03
	.byte		N03   , An2 , v068
	.byte	W02
	.byte		PAN   , c_v-30
	.byte	W01
	.byte		N02   , Dn3 , v112
	.byte	W03
	.byte		N03   , Dn3 , v068
	.byte	W02
	.byte		PAN   , c_v-30
	.byte	W01
	.byte		N02   , An3 , v112
	.byte	W03
	.byte		N03   , An3 , v040
	.byte	W02
	.byte		PAN   , c_v-30
	.byte	W01
	.byte		N02   , Dn4 , v112
	.byte	W03
	.byte		N03   , Dn4 , v040
	.byte	W02
	.byte		PAN   , c_v+30
	.byte	W01
	.byte		N02   , An4 , v112
	.byte	W03
	.byte		N03   , An4 , v040
	.byte	W02
	.byte		PAN   , c_v-30
	.byte	W01
	.byte		N02   , Dn5 , v112
	.byte	W03
	.byte		N03   , Dn5 , v040
	.byte	W03
	.byte	PATT
	 .word	seq_032_5 + 0x11
	.byte	PATT
	 .word	seq_032_5 + 0xA8
	.byte	PATT
	 .word	seq_032_5 + 0x11
	.byte	PATT
	 .word	seq_032_5 + 0x17
	.byte	PATT
	 .word	seq_032_5 + 0x11
	.byte	PATT
	 .word	seq_032_5 + 0x17
	.byte	PATT
	 .word	seq_032_5 + 0x11
	.byte	PATT
	 .word	seq_032_5 + 0x17
	.byte	W96
	.byte	PATT
	 .word	seq_032_5 + 0xFD
	.byte	PATT
	 .word	seq_032_5 + 0x155
	.byte	PATT
	 .word	seq_032_5 + 0x18A
	.byte	PATT
	 .word	seq_032_5 + 0x1BF
	.byte	PATT
	 .word	seq_032_5 + 0x1BF
	.byte	PATT
	 .word	seq_032_5 + 0x1F9
	.byte	PATT
	 .word	seq_032_5 + 0x1F9
	.byte	PATT
	 .word	seq_032_5 + 0x233
	.byte	PATT
	 .word	seq_032_5 + 0x268
	.byte	GOTO
	 .word	seq_032_5 + 0x29D
	.byte	FINE

@*********************** Track 07 ***********************@

seq_032_6:
	.byte	KEYSH , seq_032_key+0
	.byte	W14
	.byte		VOICE , 7
	.byte		VOL   , 78*seq_032_mvl/mxv
	.byte		PAN   , c_v-20
	.byte	W01
	.byte		MOD   , 35
	.byte		LFOS  , 60
	.byte		MODT  , mod_tre
	.byte	W20
	.byte		VOICE , 95
	.byte		VOL   , 108*seq_032_mvl/mxv
	.byte		PAN   , c_v-20
	.byte	W01
	.byte	W76
	.byte		N05   , Dn3 , v120
	.byte	W06
	.byte		        Gn3 , v068
	.byte	W06
	.byte		        Dn4 , v100
	.byte	W06
	.byte		        Gn4 , v120
	.byte	W02
	.byte	W04
	.byte		        En4 , v068
	.byte	W06
	.byte		        Cn4 , v100
	.byte	W06
	.byte		        An3 , v048
	.byte	W06
	.byte		        En4 , v096
	.byte	W06
	.byte		        Cn4 , v060
	.byte	W06
	.byte		        An3 , v072
	.byte	W06
	.byte		        En3 , v056
	.byte	W06
	.byte		        Gn3 , v080
	.byte	W06
	.byte		        En3 , v036
	.byte	W06
	.byte		        Cn3 , v048
	.byte	W06
	.byte		        An2 , v032
	.byte	W06
	.byte		N07   , En2 , v036
	.byte	W24
	.byte	W02
	.byte	W96
	.byte	W96
	.byte	W96
	.byte	W96
	.byte	W96
	.byte	W60
	.byte	W02
	.byte		VOICE , 7
	.byte		VOL   , 68*seq_032_mvl/mxv
	.byte		PAN   , c_v-50
	.byte	W01
	.byte		MOD   , 85
	.byte		LFOS  , 37
	.byte		MODT  , mod_tre
	.byte	W01
	.byte		LFODL , 1
	.byte	W32
	.byte	PEND
	.byte		N05   , Gn3 , v112
	.byte	W06
	.byte		        Gn3 , v032
	.byte	W06
	.byte		        Gn3 , v048
	.byte	W06
	.byte		        Gn3 , v032
	.byte	W18
	.byte		        As3 , v092
	.byte	W06
	.byte		N54   , As3 , v056
	.byte	W54
	.byte	PEND
	.byte		N05   , An3 , v112
	.byte	W06
	.byte		        An3 , v032
	.byte	W06
	.byte		        An3 , v048
	.byte	W06
	.byte		        An3 , v032
	.byte	W18
	.byte		        Cn4 , v092
	.byte	W06
	.byte		N54   , Cn4 , v056
	.byte	W04
	.byte		VOL   , 36*seq_032_mvl/mxv
	.byte	W04
	.byte		        40*seq_032_mvl/mxv
	.byte	W03
	.byte		        43*seq_032_mvl/mxv
	.byte	W02
	.byte		        46*seq_032_mvl/mxv
	.byte	W02
	.byte		        49*seq_032_mvl/mxv
	.byte	W02
	.byte		        54*seq_032_mvl/mxv
	.byte	W02
	.byte		        60*seq_032_mvl/mxv
	.byte	W03
	.byte		        63*seq_032_mvl/mxv
	.byte	W02
	.byte		        71*seq_032_mvl/mxv
	.byte	W02
	.byte		        79*seq_032_mvl/mxv
	.byte	W02
	.byte		        87*seq_032_mvl/mxv
	.byte	W02
	.byte		        84*seq_032_mvl/mxv
	.byte	W03
	.byte		        78*seq_032_mvl/mxv
	.byte	W02
	.byte		        74*seq_032_mvl/mxv
	.byte	W02
	.byte		        70*seq_032_mvl/mxv
	.byte	W02
	.byte		        65*seq_032_mvl/mxv
	.byte	W02
	.byte		        62*seq_032_mvl/mxv
	.byte	W03
	.byte		        56*seq_032_mvl/mxv
	.byte	W02
	.byte		        51*seq_032_mvl/mxv
	.byte	W02
	.byte		        36*seq_032_mvl/mxv
	.byte	W02
	.byte		        25*seq_032_mvl/mxv
	.byte	W02
	.byte		        15*seq_032_mvl/mxv
	.byte	W02
	.byte	W96
	.byte	W96
	.byte	W96
	.byte	W96
	.byte	W96
	.byte	W60
	.byte	W02
	.byte		VOL   , 68*seq_032_mvl/mxv
	.byte	W32
	.byte	W02
	.byte	PEND
	.byte	PATT
	 .word	seq_032_6 + 0x66
	.byte		N05   , An3 , v112
	.byte	W06
	.byte		        An3 , v032
	.byte	W06
	.byte		        An3 , v048
	.byte	W06
	.byte		        An3 , v032
	.byte	W18
	.byte		        Cn4 , v092
	.byte	W06
	.byte		N30   , Cn4 , v056
	.byte	W54
	.byte	PEND
	.byte	W14
	.byte		VOICE , 7
	.byte		VOL   , 68*seq_032_mvl/mxv
	.byte		PAN   , c_v+0
	.byte	W01
	.byte		MOD   , 60
	.byte		LFOS  , 60
	.byte		MODT  , mod_pan
	.byte	W80
	.byte	W01
	.byte	PEND
	.byte	W96
	.byte	W84
	.byte		N05   , Cn4 , v112
	.byte	W06
	.byte		        Cn4 , v032
	.byte	W06
	.byte	PEND
	.byte	W12
	.byte		N05   , As3 , v112
	.byte	W06
	.byte		        As3 , v032
	.byte	W18
	.byte		        An3 , v112
	.byte	W06
	.byte		        An3 , v032
	.byte	W18
	.byte		        As3 , v112
	.byte	W06
	.byte		        As3 , v032
	.byte	W18
	.byte		        Gn3 , v112
	.byte	W06
	.byte		N17   , Gn3 , v072
	.byte	W06
	.byte	PEND
	.byte	W96
	.byte	W96
	.byte	PATT
	 .word	seq_032_6 + 0xF4
	.byte	W12
	.byte		N05   , As3 , v112
	.byte	W06
	.byte		        As3 , v032
	.byte	W18
	.byte		        An3 , v112
	.byte	W06
	.byte		        An3 , v032
	.byte	W18
	.byte		        As3 , v112
	.byte	W06
	.byte		        As3 , v072
	.byte	W06
	.byte		N11   , As3 , v032
	.byte	W24
	.byte	PEND
	.byte	W96
	.byte	W96
	.byte	W96
	.byte	W60
	.byte	W02
	.byte		VOICE , 7
	.byte		VOL   , 68*seq_032_mvl/mxv
	.byte		PAN   , c_v-30
	.byte	W01
	.byte		MOD   , 85
	.byte		LFOS  , 37
	.byte		MODT  , mod_tre
	.byte	W01
	.byte		LFODL , 1
	.byte	W32
	.byte	PEND
	.byte	W96
	.byte	W96
	.byte		N05   , Gn3 , v112
	.byte	W06
	.byte		        Gn3 , v032
	.byte	W06
	.byte		        Gn3 , v072
	.byte	W06
	.byte		        Gn3 , v032
	.byte	W18
	.byte		        As3 , v112
	.byte	W06
	.byte		N54   , As3 , v072
	.byte	W54
	.byte	PEND
	.byte		N05   , An3 , v112
	.byte	W06
	.byte		        An3 , v032
	.byte	W06
	.byte		        An3 , v072
	.byte	W06
	.byte		        An3 , v032
	.byte	W18
	.byte		        Cn4 , v112
	.byte	W06
	.byte		N54   , Cn4 , v072
	.byte	W54
	.byte	PEND
	.byte	W96
	.byte	W96
	.byte	W96
	.byte	W96
	.byte	PATT
	 .word	seq_032_6 + 0xC1
	.byte	W96
	.byte		N05   , Gn3 , v112
	.byte	W06
	.byte		        Gn3 , v032
	.byte	W06
	.byte		        Gn3 , v072
	.byte	W06
	.byte		        Gn3 , v032
	.byte	W18
	.byte		        As3 , v112
	.byte	W06
	.byte		N52   , As3 , v072
	.byte	W54
	.byte	PEND
	.byte		N05   , An3 , v112
	.byte	W06
	.byte		        An3 , v032
	.byte	W06
	.byte		        An3 , v072
	.byte	W06
	.byte		        An3 , v032
	.byte	W18
	.byte		        Cn4 , v112
	.byte	W06
	.byte		        Cn4 , v072
	.byte	W30
	.byte		        Fn4 , v112
	.byte	W06
	.byte		N17   , Fn4 , v072
	.byte	W18
	.byte	PEND
	.byte		N05   , Dn4 , v112
	.byte	W06
	.byte		N90   , Dn4 , v072
	.byte	W08
	.byte		VOL   , 45*seq_032_mvl/mxv
	.byte	W02
	.byte		        46*seq_032_mvl/mxv
	.byte	W02
	.byte		        47*seq_032_mvl/mxv
	.byte	W01
	.byte		        48*seq_032_mvl/mxv
	.byte	W02
	.byte		        49*seq_032_mvl/mxv
	.byte	W02
	.byte		        50*seq_032_mvl/mxv
	.byte	W01
	.byte		        51*seq_032_mvl/mxv
	.byte	W02
	.byte		        52*seq_032_mvl/mxv
	.byte	W02
	.byte		        54*seq_032_mvl/mxv
	.byte	W01
	.byte		        55*seq_032_mvl/mxv
	.byte	W02
	.byte		        56*seq_032_mvl/mxv
	.byte	W02
	.byte		        58*seq_032_mvl/mxv
	.byte	W01
	.byte		        59*seq_032_mvl/mxv
	.byte	W02
	.byte		        60*seq_032_mvl/mxv
	.byte	W01
	.byte		        61*seq_032_mvl/mxv
	.byte	W02
	.byte		        63*seq_032_mvl/mxv
	.byte	W02
	.byte		        65*seq_032_mvl/mxv
	.byte	W01
	.byte		        67*seq_032_mvl/mxv
	.byte	W02
	.byte		        69*seq_032_mvl/mxv
	.byte	W02
	.byte		        72*seq_032_mvl/mxv
	.byte	W01
	.byte		        73*seq_032_mvl/mxv
	.byte	W02
	.byte		        76*seq_032_mvl/mxv
	.byte	W02
	.byte		        80*seq_032_mvl/mxv
	.byte	W01
	.byte		        82*seq_032_mvl/mxv
	.byte	W02
	.byte		        86*seq_032_mvl/mxv
	.byte	W01
	.byte		        86*seq_032_mvl/mxv
	.byte	W02
	.byte		        90*seq_032_mvl/mxv
	.byte	W02
	.byte		        94*seq_032_mvl/mxv
	.byte	W01
	.byte		        96*seq_032_mvl/mxv
	.byte	W02
	.byte		        99*seq_032_mvl/mxv
	.byte	W02
	.byte		        100*seq_032_mvl/mxv
	.byte	W01
	.byte		        98*seq_032_mvl/mxv
	.byte	W02
	.byte		        97*seq_032_mvl/mxv
	.byte	W02
	.byte		        95*seq_032_mvl/mxv
	.byte	W01
	.byte		        94*seq_032_mvl/mxv
	.byte	W02
	.byte		        90*seq_032_mvl/mxv
	.byte	W02
	.byte		        86*seq_032_mvl/mxv
	.byte	W01
	.byte		        84*seq_032_mvl/mxv
	.byte	W02
	.byte		        81*seq_032_mvl/mxv
	.byte	W01
	.byte		        78*seq_032_mvl/mxv
	.byte	W02
	.byte		        74*seq_032_mvl/mxv
	.byte	W02
	.byte		        67*seq_032_mvl/mxv
	.byte	W01
	.byte		        64*seq_032_mvl/mxv
	.byte	W02
	.byte		        58*seq_032_mvl/mxv
	.byte	W02
	.byte		        47*seq_032_mvl/mxv
	.byte	W01
	.byte		        42*seq_032_mvl/mxv
	.byte	W02
	.byte		        35*seq_032_mvl/mxv
	.byte	W02
	.byte		        26*seq_032_mvl/mxv
	.byte	W01
	.byte		        21*seq_032_mvl/mxv
	.byte	W02
	.byte		        12*seq_032_mvl/mxv
	.byte	W01
	.byte	PEND
	.byte	W96
	.byte	W96
	.byte	W96
	.byte	PATT
	 .word	seq_032_6 + 0xC1
	.byte	W96
	.byte	PATT
	 .word	seq_032_6 + 0x186
	.byte	PATT
	 .word	seq_032_6 + 0x19B
	.byte	PATT
	 .word	seq_032_6 + 0x1B6
	.byte	W96
	.byte	W96
	.byte	W96
	.byte	PATT
	 .word	seq_032_6 + 0xC1
	.byte	W96
	.byte	PATT
	 .word	seq_032_6 + 0x186
	.byte	PATT
	 .word	seq_032_6 + 0x19B
	.byte	PATT
	 .word	seq_032_6 + 0x1B6
	.byte	W96
	.byte	W96
	.byte	W96
	.byte	W92
	.byte	W03
	.byte		VOICE , 95
	.byte		VOL   , 108*seq_032_mvl/mxv
	.byte		PAN   , c_v-20
	.byte	W01
	.byte	W96
	.byte	W76
	.byte		N05   , Dn3 , v080
	.byte	W06
	.byte		        Fn3 , v060
	.byte	W06
	.byte		        An3 , v080
	.byte	W06
	.byte		        Fn4 , v120
	.byte	W02
	.byte	W04
	.byte		        Cn4 , v068
	.byte	W06
	.byte		        An3 , v100
	.byte	W06
	.byte		        Fn3 , v048
	.byte	W06
	.byte		        Cn4 , v096
	.byte	W06
	.byte		        An3 , v060
	.byte	W06
	.byte		        Fn3 , v072
	.byte	W06
	.byte		N09   , An3 , v076
	.byte	W12
	.byte		N05   , Fn3 , v068
	.byte	W06
	.byte		        Cn3 , v100
	.byte	W06
	.byte		        An2 , v048
	.byte	W06
	.byte		        Fn2 , v084
	.byte	W24
	.byte	W02
	.byte	W96
	.byte	W96
	.byte	W96
	.byte	W96
	.byte	W96
	.byte	PATT
	 .word	seq_032_6 + 0x52
	.byte	PATT
	 .word	seq_032_6 + 0x66
	.byte	PATT
	 .word	seq_032_6 + 0xCD
	.byte	PATT
	 .word	seq_032_6 + 0xE2
	.byte	W96
	.byte	PATT
	 .word	seq_032_6 + 0xF4
	.byte	PATT
	 .word	seq_032_6 + 0xFD
	.byte	W96
	.byte	W96
	.byte	PATT
	 .word	seq_032_6 + 0xF4
	.byte	PATT
	 .word	seq_032_6 + 0x120
	.byte	W96
	.byte	W96
	.byte	W96
	.byte	PATT
	 .word	seq_032_6 + 0x13C
	.byte	W96
	.byte	W96
	.byte	PATT
	 .word	seq_032_6 + 0x152
	.byte	PATT
	 .word	seq_032_6 + 0x167
	.byte	GOTO
	 .word	seq_032_6 + 0x17C
	.byte	FINE

@*********************** Track 08 ***********************@

seq_032_7:
	.byte	KEYSH , seq_032_key+0
	.byte	W16
	.byte		VOICE , 7
	.byte		VOL   , 78*seq_032_mvl/mxv
	.byte		PAN   , c_v+20
	.byte	W01
	.byte		MOD   , 0
	.byte		LFOS  , 60
	.byte		MODT  , mod_vib
	.byte	W18
	.byte		VOICE , 95
	.byte		VOL   , 125*seq_032_mvl/mxv
	.byte		PAN   , c_v+20
	.byte	W01
	.byte	W76
	.byte		N05   , Dn2 , v120
	.byte	W06
	.byte		        Gn2 , v068
	.byte	W06
	.byte		        Dn3 , v100
	.byte	W06
	.byte		        Gn3 , v120
	.byte	W02
	.byte	W04
	.byte		        En3 , v068
	.byte	W06
	.byte		        Cn3 , v100
	.byte	W06
	.byte		        An2 , v048
	.byte	W06
	.byte		        En3 , v096
	.byte	W06
	.byte		        Cn3 , v060
	.byte	W06
	.byte		        An2 , v072
	.byte	W06
	.byte		        En2 , v048
	.byte	W06
	.byte		        Gn2 , v112
	.byte	W06
	.byte		        En2 , v036
	.byte	W06
	.byte		        Cn2 , v048
	.byte	W06
	.byte		        An1 , v032
	.byte	W06
	.byte		N07   , En1 , v036
	.byte	W24
	.byte	W02
	.byte	W96
	.byte	W96
	.byte	W96
	.byte	W96
	.byte	W96
	.byte	W60
	.byte	W02
	.byte		VOICE , 7
	.byte		VOL   , 73*seq_032_mvl/mxv
	.byte		PAN   , c_v+50
	.byte	W01
	.byte		MOD   , 65
	.byte		LFOS  , 52
	.byte		MODT  , mod_tre
	.byte	W01
	.byte		LFODL , 2
	.byte	W32
	.byte		N05   , Ds3 , v112
	.byte	W06
	.byte		        Ds3 , v032
	.byte	W06
	.byte		        Ds3 , v048
	.byte	W06
	.byte		        Ds3 , v032
	.byte	W18
	.byte		        Gn3 , v092
	.byte	W06
	.byte		N54   , Gn3 , v056
	.byte	W54
	.byte	PEND
	.byte		N05   , Fn3 , v112
	.byte	W06
	.byte		        Fn3 , v032
	.byte	W06
	.byte		        Fn3 , v048
	.byte	W06
	.byte		        Fn3 , v032
	.byte	W18
	.byte		        An3 , v092
	.byte	W06
	.byte		N54   , An3 , v056
	.byte	W04
	.byte		VOL   , 36*seq_032_mvl/mxv
	.byte	W04
	.byte		        40*seq_032_mvl/mxv
	.byte	W03
	.byte		        43*seq_032_mvl/mxv
	.byte	W02
	.byte		        46*seq_032_mvl/mxv
	.byte	W02
	.byte		        49*seq_032_mvl/mxv
	.byte	W02
	.byte		        54*seq_032_mvl/mxv
	.byte	W02
	.byte		        60*seq_032_mvl/mxv
	.byte	W03
	.byte		        63*seq_032_mvl/mxv
	.byte	W02
	.byte		        71*seq_032_mvl/mxv
	.byte	W02
	.byte		        79*seq_032_mvl/mxv
	.byte	W02
	.byte		        87*seq_032_mvl/mxv
	.byte	W02
	.byte		        84*seq_032_mvl/mxv
	.byte	W03
	.byte		        78*seq_032_mvl/mxv
	.byte	W02
	.byte		        74*seq_032_mvl/mxv
	.byte	W02
	.byte		        70*seq_032_mvl/mxv
	.byte	W02
	.byte		        65*seq_032_mvl/mxv
	.byte	W02
	.byte		        62*seq_032_mvl/mxv
	.byte	W03
	.byte		        56*seq_032_mvl/mxv
	.byte	W02
	.byte		        51*seq_032_mvl/mxv
	.byte	W02
	.byte		        36*seq_032_mvl/mxv
	.byte	W02
	.byte		        25*seq_032_mvl/mxv
	.byte	W02
	.byte		        15*seq_032_mvl/mxv
	.byte	W02
	.byte	W96
	.byte	W96
	.byte	W96
	.byte	W96
	.byte	W96
	.byte	W60
	.byte	W02
	.byte		VOL   , 68*seq_032_mvl/mxv
	.byte	W32
	.byte	W02
	.byte	PEND
	.byte		N05   , Ds3 , v112
	.byte	W06
	.byte		        Ds3 , v032
	.byte	W06
	.byte		        Ds3 , v060
	.byte	W06
	.byte		        Ds3 , v032
	.byte	W18
	.byte		        Gn3 , v092
	.byte	W06
	.byte		N54   , Gn3 , v056
	.byte	W54
	.byte		N05   , Fn3 , v112
	.byte	W06
	.byte		        Fn3 , v032
	.byte	W06
	.byte		        Fn3 , v060
	.byte	W06
	.byte		        Fn3 , v032
	.byte	W18
	.byte		        An3 , v092
	.byte	W06
	.byte		N30   , An3 , v056
	.byte	W54
	.byte	W96
	.byte	W96
	.byte	W96
	.byte	W96
	.byte	W96
	.byte	W96
	.byte	W96
	.byte	W96
	.byte	W96
	.byte	W96
	.byte	W96
	.byte	W60
	.byte	W02
	.byte		VOICE , 7
	.byte		VOL   , 73*seq_032_mvl/mxv
	.byte		PAN   , c_v+30
	.byte	W01
	.byte		MOD   , 70
	.byte		LFOS  , 40
	.byte		MODT  , mod_tre
	.byte	W01
	.byte		LFODL , 3
	.byte	W32
	.byte	PEND
	.byte	W96
	.byte	W96
	.byte		N05   , Ds3 , v112
	.byte	W06
	.byte		        Ds3 , v032
	.byte	W06
	.byte		        Ds3 , v072
	.byte	W06
	.byte		        Ds3 , v032
	.byte	W18
	.byte		        Gn3 , v112
	.byte	W06
	.byte		N54   , Gn3 , v072
	.byte	W54
	.byte	PEND
	.byte		N05   , Fn3 , v112
	.byte	W06
	.byte		        Fn3 , v032
	.byte	W06
	.byte		        Fn3 , v072
	.byte	W06
	.byte		        Fn3 , v032
	.byte	W18
	.byte		        An3 , v112
	.byte	W06
	.byte		N54   , An3 , v072
	.byte	W54
	.byte	PEND
	.byte	W96
	.byte	W96
	.byte	W96
	.byte	W96
	.byte	PATT
	 .word	seq_032_7 + 0xC0
	.byte	W96
	.byte		N05   , Ds3 , v112
	.byte	W06
	.byte		        Ds3 , v032
	.byte	W06
	.byte		        Ds3 , v072
	.byte	W06
	.byte		        Ds3 , v032
	.byte	W18
	.byte		        Gn3 , v112
	.byte	W06
	.byte		N52   , Gn3 , v072
	.byte	W54
	.byte	PEND
	.byte		N05   , Fn3 , v112
	.byte	W06
	.byte		        Fn3 , v032
	.byte	W06
	.byte		        Fn3 , v072
	.byte	W06
	.byte		        Fn3 , v032
	.byte	W18
	.byte		        An3 , v112
	.byte	W06
	.byte		        An3 , v072
	.byte	W30
	.byte		        An3 , v112
	.byte	W06
	.byte		N17   , An3 , v072
	.byte	W18
	.byte	PEND
	.byte		N05   , Bn3 , v112
	.byte	W06
	.byte		N90   , Bn3 , v072
	.byte	W08
	.byte		VOL   , 45*seq_032_mvl/mxv
	.byte	W02
	.byte		        46*seq_032_mvl/mxv
	.byte	W02
	.byte		        47*seq_032_mvl/mxv
	.byte	W01
	.byte		        48*seq_032_mvl/mxv
	.byte	W02
	.byte		        49*seq_032_mvl/mxv
	.byte	W02
	.byte		        50*seq_032_mvl/mxv
	.byte	W01
	.byte		        51*seq_032_mvl/mxv
	.byte	W02
	.byte		        52*seq_032_mvl/mxv
	.byte	W02
	.byte		        54*seq_032_mvl/mxv
	.byte	W01
	.byte		        55*seq_032_mvl/mxv
	.byte	W02
	.byte		        56*seq_032_mvl/mxv
	.byte	W02
	.byte		        58*seq_032_mvl/mxv
	.byte	W01
	.byte		        59*seq_032_mvl/mxv
	.byte	W02
	.byte		        60*seq_032_mvl/mxv
	.byte	W01
	.byte		        61*seq_032_mvl/mxv
	.byte	W02
	.byte		        63*seq_032_mvl/mxv
	.byte	W02
	.byte		        65*seq_032_mvl/mxv
	.byte	W01
	.byte		        67*seq_032_mvl/mxv
	.byte	W02
	.byte		        69*seq_032_mvl/mxv
	.byte	W02
	.byte		        72*seq_032_mvl/mxv
	.byte	W01
	.byte		        73*seq_032_mvl/mxv
	.byte	W02
	.byte		        76*seq_032_mvl/mxv
	.byte	W02
	.byte		        80*seq_032_mvl/mxv
	.byte	W01
	.byte		        82*seq_032_mvl/mxv
	.byte	W02
	.byte		        86*seq_032_mvl/mxv
	.byte	W01
	.byte		        86*seq_032_mvl/mxv
	.byte	W02
	.byte		        90*seq_032_mvl/mxv
	.byte	W02
	.byte		        94*seq_032_mvl/mxv
	.byte	W01
	.byte		        96*seq_032_mvl/mxv
	.byte	W02
	.byte		        99*seq_032_mvl/mxv
	.byte	W02
	.byte		        100*seq_032_mvl/mxv
	.byte	W01
	.byte		        98*seq_032_mvl/mxv
	.byte	W02
	.byte		        97*seq_032_mvl/mxv
	.byte	W02
	.byte		        95*seq_032_mvl/mxv
	.byte	W01
	.byte		        94*seq_032_mvl/mxv
	.byte	W02
	.byte		        90*seq_032_mvl/mxv
	.byte	W02
	.byte		        86*seq_032_mvl/mxv
	.byte	W01
	.byte		        84*seq_032_mvl/mxv
	.byte	W02
	.byte		        81*seq_032_mvl/mxv
	.byte	W01
	.byte		        78*seq_032_mvl/mxv
	.byte	W02
	.byte		        74*seq_032_mvl/mxv
	.byte	W02
	.byte		        67*seq_032_mvl/mxv
	.byte	W01
	.byte		        64*seq_032_mvl/mxv
	.byte	W02
	.byte		        58*seq_032_mvl/mxv
	.byte	W02
	.byte		        47*seq_032_mvl/mxv
	.byte	W01
	.byte		        42*seq_032_mvl/mxv
	.byte	W02
	.byte		        35*seq_032_mvl/mxv
	.byte	W02
	.byte		        26*seq_032_mvl/mxv
	.byte	W01
	.byte		        21*seq_032_mvl/mxv
	.byte	W02
	.byte		        12*seq_032_mvl/mxv
	.byte	W01
	.byte	PEND
	.byte	W96
	.byte	W96
	.byte	W96
	.byte	PATT
	 .word	seq_032_7 + 0xC0
	.byte	W96
	.byte	PATT
	 .word	seq_032_7 + 0x144
	.byte	PATT
	 .word	seq_032_7 + 0x159
	.byte	PATT
	 .word	seq_032_7 + 0x174
	.byte	W96
	.byte	W96
	.byte	W96
	.byte	PATT
	 .word	seq_032_7 + 0xC0
	.byte	W96
	.byte	PATT
	 .word	seq_032_7 + 0x144
	.byte	PATT
	 .word	seq_032_7 + 0x159
	.byte	PATT
	 .word	seq_032_7 + 0x174
	.byte	W96
	.byte	W96
	.byte	W96
	.byte	W92
	.byte	W03
	.byte		VOICE , 95
	.byte		VOL   , 125*seq_032_mvl/mxv
	.byte		PAN   , c_v+20
	.byte	W01
	.byte	W96
	.byte	W76
	.byte		N05   , Dn2 , v080
	.byte	W06
	.byte		        Fn2 , v060
	.byte	W06
	.byte		        An2 , v080
	.byte	W06
	.byte		        Fn3 , v120
	.byte	W02
	.byte	W04
	.byte		        Cn3 , v068
	.byte	W06
	.byte		        An2 , v100
	.byte	W06
	.byte		        Fn2 , v048
	.byte	W06
	.byte		        Cn3 , v096
	.byte	W06
	.byte		        An2 , v060
	.byte	W06
	.byte		        Fn2 , v072
	.byte	W06
	.byte		N09   , An2 , v076
	.byte	W12
	.byte		N05   , Fn2 , v068
	.byte	W06
	.byte		        Cn2 , v100
	.byte	W06
	.byte		        An1 , v048
	.byte	W06
	.byte		        Fn1 , v084
	.byte	W24
	.byte	W02
	.byte	W96
	.byte	W96
	.byte	W96
	.byte	W96
	.byte	W96
	.byte	W60
	.byte	W02
	.byte		VOICE , 7
	.byte		VOL   , 73*seq_032_mvl/mxv
	.byte		PAN   , c_v+50
	.byte	W01
	.byte		MOD   , 85
	.byte		LFOS  , 52
	.byte		MODT  , mod_tre
	.byte	W01
	.byte		LFODL , 1
	.byte	W32
	.byte	PATT
	 .word	seq_032_7 + 0x65
	.byte		N05   , Fn3 , v112
	.byte	W06
	.byte		        Fn3 , v032
	.byte	W06
	.byte		        Fn3 , v048
	.byte	W06
	.byte		        Fn3 , v032
	.byte	W18
	.byte		        An3 , v092
	.byte	W06
	.byte		N30   , An3 , v056
	.byte	W54
	.byte	W96
	.byte	W96
	.byte	W96
	.byte	W96
	.byte	W96
	.byte	W96
	.byte	W96
	.byte	W96
	.byte	W96
	.byte	W96
	.byte	W96
	.byte	PATT
	 .word	seq_032_7 + 0xFA
	.byte	W96
	.byte	W96
	.byte	PATT
	 .word	seq_032_7 + 0x110
	.byte	PATT
	 .word	seq_032_7 + 0x125
	.byte	GOTO
	 .word	seq_032_7 + 0x13A
	.byte	FINE

@*********************** Track 09 ***********************@

seq_032_8:
	.byte	KEYSH , seq_032_key+0
	.byte	W18
	.byte		VOICE , 127
	.byte		VOL   , 78*seq_032_mvl/mxv
	.byte		PAN   , c_v+0
	.byte	W18
	.byte		N12   , En2 , v052
	.byte	W12
	.byte		N02   , Fs1 , v056
	.byte	W06
	.byte		N02
	.byte	W06
	.byte		N02
	.byte	W03
	.byte		N03   , Ds2 , v032
	.byte	W03
	.byte		N04   , En2 , v040
	.byte	W06
	.byte		N02   , Fs1 , v056
	.byte	W03
	.byte		N03   , Ds2 , v032
	.byte	W03
	.byte		N04   , En2 , v040
	.byte	W06
	.byte		N02   , Fs1 , v056
	.byte	W06
	.byte		N02
	.byte	W06
	.byte		N02
	.byte	W06
	.byte		N02
	.byte	W06
	.byte		N12   , En2 , v052
	.byte	W12
	.byte		N02   , Fs1 , v056
	.byte	W06
	.byte		N02
	.byte	W06
	.byte	PEND
	.byte		N12   , En2 , v052
	.byte	W12
	.byte		N02   , Fs1 , v056
	.byte	W06
	.byte		N02
	.byte	W06
	.byte		N02
	.byte	W03
	.byte		N03   , Ds2 , v032
	.byte	W03
	.byte		N02   , Fs1 , v056
	.byte	W06
	.byte		N12   , En2 , v052
	.byte	W12
	.byte		N02   , Fs1 , v056
	.byte	W06
	.byte		N02
	.byte	W06
	.byte		N02
	.byte	W06
	.byte		N02
	.byte	W06
	.byte		N12   , Ds2 , v052
	.byte	W24
	.byte		N12   , En2 , v052
	.byte	W12
	.byte		N02   , Fs1 , v056
	.byte	W06
	.byte		N02
	.byte	W06
	.byte		N02
	.byte	W03
	.byte		N03   , Ds2 , v032
	.byte	W03
	.byte		N04   , En2 , v040
	.byte	W06
	.byte		N02   , Fs1 , v056
	.byte	W03
	.byte		N03   , Ds2 , v032
	.byte	W03
	.byte		N04   , En2 , v040
	.byte	W06
	.byte		N02   , Fs1 , v056
	.byte	W06
	.byte		N02
	.byte	W06
	.byte		N02
	.byte	W06
	.byte		N02
	.byte	W06
	.byte		N12   , En2 , v052
	.byte	W12
	.byte		N02   , Fs1 , v056
	.byte	W06
	.byte		N02
	.byte	W03
	.byte		N03   , Ds2 , v032
	.byte	W03
	.byte	PEND
	.byte		N03   , En2 , v052
	.byte	W03
	.byte		        Ds2 , v032
	.byte	W03
	.byte		N02   , Fs1 , v056
	.byte	W03
	.byte		N03   , Ds2 , v032
	.byte	W03
	.byte		N02   , Fs1 , v056
	.byte	W06
	.byte		N02
	.byte	W06
	.byte		N02
	.byte	W03
	.byte		N03   , Ds2 , v032
	.byte	W03
	.byte		N04   , En2 , v040
	.byte	W06
	.byte		N02   , Fs1 , v056
	.byte	W06
	.byte		N06   , En2 
	.byte	W06
	.byte		N02   , Fs1 
	.byte	W06
	.byte		N02
	.byte	W06
	.byte		N02
	.byte	W06
	.byte		N02
	.byte	W06
	.byte		N12   , En2 , v052
	.byte	W12
	.byte		N02   , Fs1 , v056
	.byte	W06
	.byte		N02
	.byte	W03
	.byte		N03   , Ds2 , v032
	.byte	W03
	.byte	PEND
	.byte	PATT
	 .word	seq_032_8 + 0x65
	.byte	PATT
	 .word	seq_032_8 + 0x9E
	.byte	PATT
	 .word	seq_032_8 + 0x65
	.byte	PATT
	 .word	seq_032_8 + 0x9E
	.byte	PATT
	 .word	seq_032_8 + 0x65
	.byte	PATT
	 .word	seq_032_8 + 0x9E
	.byte	PATT
	 .word	seq_032_8 + 0x65
	.byte	PATT
	 .word	seq_032_8 + 0x9E
	.byte	PATT
	 .word	seq_032_8 + 0x65
	.byte	PATT
	 .word	seq_032_8 + 0x9E
	.byte	PATT
	 .word	seq_032_8 + 0x65
	.byte	PATT
	 .word	seq_032_8 + 0x9E
	.byte	PATT
	 .word	seq_032_8 + 0xA
	.byte		N12   , En2 , v052
	.byte	W12
	.byte		N02   , Fs1 , v056
	.byte	W06
	.byte		N02
	.byte	W06
	.byte		N02
	.byte	W03
	.byte		N03   , Ds2 , v032
	.byte	W03
	.byte		N02   , Fs1 , v056
	.byte	W06
	.byte		N02
	.byte	W06
	.byte		N02
	.byte	W06
	.byte		N12   , En2 , v052
	.byte	W12
	.byte		N02   , Fs1 , v056
	.byte	W06
	.byte		N02
	.byte	W06
	.byte		N12   , Ds2 , v052
	.byte	W24
	.byte	PEND
	.byte	PATT
	 .word	seq_032_8 + 0x65
	.byte	PATT
	 .word	seq_032_8 + 0x9E
	.byte	PATT
	 .word	seq_032_8 + 0x65
	.byte	PATT
	 .word	seq_032_8 + 0x9E
	.byte	PATT
	 .word	seq_032_8 + 0x65
	.byte	PATT
	 .word	seq_032_8 + 0x9E
	.byte	PATT
	 .word	seq_032_8 + 0xA
	.byte	PATT
	 .word	seq_032_8 + 0x11D
	.byte	PATT
	 .word	seq_032_8 + 0x65
	.byte	PATT
	 .word	seq_032_8 + 0x9E
	.byte	PATT
	 .word	seq_032_8 + 0x65
	.byte	PATT
	 .word	seq_032_8 + 0x9E
	.byte	PATT
	 .word	seq_032_8 + 0x65
	.byte	PATT
	 .word	seq_032_8 + 0x9E
	.byte	PATT
	 .word	seq_032_8 + 0x65
	.byte	PATT
	 .word	seq_032_8 + 0x9E
	.byte	PATT
	 .word	seq_032_8 + 0x65
	.byte	PATT
	 .word	seq_032_8 + 0x9E
	.byte	PATT
	 .word	seq_032_8 + 0x65
	.byte	PATT
	 .word	seq_032_8 + 0x9E
	.byte	PATT
	 .word	seq_032_8 + 0x65
	.byte	PATT
	 .word	seq_032_8 + 0x9E
	.byte	PATT
	 .word	seq_032_8 + 0x65
	.byte	PATT
	 .word	seq_032_8 + 0x9E
	.byte	PATT
	 .word	seq_032_8 + 0x65
	.byte	PATT
	 .word	seq_032_8 + 0x9E
	.byte	PATT
	 .word	seq_032_8 + 0x65
	.byte	PATT
	 .word	seq_032_8 + 0x9E
	.byte	PATT
	 .word	seq_032_8 + 0x65
	.byte	PATT
	 .word	seq_032_8 + 0x9E
	.byte	PATT
	 .word	seq_032_8 + 0xA
	.byte	PATT
	 .word	seq_032_8 + 0x11D
	.byte	PATT
	 .word	seq_032_8 + 0x65
	.byte	PATT
	 .word	seq_032_8 + 0x9E
	.byte	PATT
	 .word	seq_032_8 + 0x65
	.byte	PATT
	 .word	seq_032_8 + 0x9E
	.byte	PATT
	 .word	seq_032_8 + 0x65
	.byte	PATT
	 .word	seq_032_8 + 0x9E
	.byte	PATT
	 .word	seq_032_8 + 0x65
	.byte	PATT
	 .word	seq_032_8 + 0x9E
	.byte	PATT
	 .word	seq_032_8 + 0x65
	.byte	PATT
	 .word	seq_032_8 + 0x9E
	.byte	PATT
	 .word	seq_032_8 + 0x65
	.byte	PATT
	 .word	seq_032_8 + 0x9E
	.byte	PATT
	 .word	seq_032_8 + 0x65
	.byte	PATT
	 .word	seq_032_8 + 0x9E
	.byte	PATT
	 .word	seq_032_8 + 0xA
	.byte	PATT
	 .word	seq_032_8 + 0x11D
	.byte	PATT
	 .word	seq_032_8 + 0x65
	.byte	PATT
	 .word	seq_032_8 + 0x9E
	.byte	PATT
	 .word	seq_032_8 + 0x65
	.byte	PATT
	 .word	seq_032_8 + 0x9E
	.byte	PATT
	 .word	seq_032_8 + 0x65
	.byte	PATT
	 .word	seq_032_8 + 0x9E
	.byte	PATT
	 .word	seq_032_8 + 0xA
	.byte	PATT
	 .word	seq_032_8 + 0x11D
	.byte	PATT
	 .word	seq_032_8 + 0x65
	.byte	PATT
	 .word	seq_032_8 + 0x9E
	.byte	PATT
	 .word	seq_032_8 + 0x65
	.byte	PATT
	 .word	seq_032_8 + 0x9E
	.byte	PATT
	 .word	seq_032_8 + 0x65
	.byte	PATT
	 .word	seq_032_8 + 0x9E
	.byte	PATT
	 .word	seq_032_8 + 0xA
	.byte	PATT
	 .word	seq_032_8 + 0x11D
	.byte	PATT
	 .word	seq_032_8 + 0x65
	.byte	PATT
	 .word	seq_032_8 + 0x9E
	.byte	PATT
	 .word	seq_032_8 + 0x65
	.byte	PATT
	 .word	seq_032_8 + 0x9E
	.byte	PATT
	 .word	seq_032_8 + 0x65
	.byte	PATT
	 .word	seq_032_8 + 0x9E
	.byte	PATT
	 .word	seq_032_8 + 0x65
	.byte	PATT
	 .word	seq_032_8 + 0x9E
	.byte	GOTO
	 .word	seq_032_8 + 0x194
	.byte	FINE

@*********************** Track 10 ***********************@

seq_032_9:
	.byte	KEYSH , seq_032_key+0
	.byte	W19
	.byte		VOICE , 37
	.byte		MOD   , 0
	.byte		BENDR , 12
	.byte	W01
	.byte		VOL   , 125*seq_032_mvl/mxv
	.byte		PAN   , c_v+0
	.byte		MODT  , mod_vib
	.byte	W16
	.byte		BEND  , c_v-11
	.byte	W03
	.byte		        c_v-6
	.byte	W02
	.byte		        c_v+0
	.byte	W13
	.byte		        c_v-7
	.byte	W01
	.byte		        c_v-12
	.byte	W01
	.byte		        c_v-16
	.byte	W01
	.byte		        c_v-21
	.byte	W01
	.byte		        c_v-26
	.byte	W01
	.byte		        c_v-32
	.byte	W01
	.byte		        c_v-37
	.byte	W01
	.byte		        c_v-41
	.byte	W01
	.byte		        c_v-46
	.byte	W01
	.byte		        c_v-55
	.byte	W01
	.byte		        c_v-60
	.byte	W01
	.byte		        c_v-64
	.byte	W20
	.byte		        c_v-52
	.byte	W01
	.byte		        c_v-14
	.byte	W01
	.byte		        c_v-6
	.byte	W01
	.byte		        c_v+0
	.byte	W19
	.byte		        c_v+0
	.byte	W01
	.byte		N32   , Gn1 , v127
	.byte	W02
	.byte		BEND  , c_v+4
	.byte	W03
	.byte		        c_v+8
	.byte	W03
	.byte		        c_v+11
	.byte	W03
	.byte		        c_v+15
	.byte	W03
	.byte		        c_v+18
	.byte	W03
	.byte		        c_v+22
	.byte	W03
	.byte		        c_v+27
	.byte	W02
	.byte		        c_v+30
	.byte	W02
	.byte		        c_v+37
	.byte	W12
	.byte		N05   , Gn2 
	.byte	W06
	.byte		        Gn1 
	.byte	W06
	.byte		        Gn2 
	.byte	W06
	.byte		N05
	.byte	W06
	.byte		        Gn1 
	.byte	W06
	.byte		N11
	.byte	W12
	.byte		N05
	.byte	W06
	.byte		        Gn2 
	.byte	W06
	.byte		N05
	.byte	W06
	.byte		N24
	.byte	W02
	.byte		VOL   , 103*seq_032_mvl/mxv
	.byte	W02
	.byte		        92*seq_032_mvl/mxv
	.byte	W02
	.byte		        79*seq_032_mvl/mxv
	.byte	W02
	.byte		        62*seq_032_mvl/mxv
	.byte		BEND  , c_v+33
	.byte	W01
	.byte		VOL   , 60*seq_032_mvl/mxv
	.byte		BEND  , c_v+31
	.byte	W01
	.byte		VOL   , 54*seq_032_mvl/mxv
	.byte		BEND  , c_v+29
	.byte	W01
	.byte		VOL   , 51*seq_032_mvl/mxv
	.byte		BEND  , c_v+27
	.byte	W01
	.byte		VOL   , 46*seq_032_mvl/mxv
	.byte		BEND  , c_v+24
	.byte	W01
	.byte		VOL   , 41*seq_032_mvl/mxv
	.byte		BEND  , c_v+22
	.byte	W01
	.byte		VOL   , 36*seq_032_mvl/mxv
	.byte		BEND  , c_v+20
	.byte	W01
	.byte		VOL   , 31*seq_032_mvl/mxv
	.byte		BEND  , c_v+18
	.byte	W01
	.byte		VOL   , 26*seq_032_mvl/mxv
	.byte		BEND  , c_v+15
	.byte	W01
	.byte		        c_v+13
	.byte	W01
	.byte		        c_v+11
	.byte	W01
	.byte		        c_v+9
	.byte	W04
	.byte		VOL   , 125*seq_032_mvl/mxv
	.byte		BEND  , c_v+0
	.byte	W01
	.byte		BEND  , c_v-11
	.byte		N36   , An2 , v127
	.byte	W03
	.byte		BEND  , c_v-6
	.byte	W02
	.byte		        c_v+0
	.byte	W13
	.byte		        c_v-7
	.byte	W01
	.byte		        c_v-12
	.byte	W01
	.byte		        c_v-16
	.byte	W01
	.byte		        c_v-21
	.byte	W01
	.byte		        c_v-26
	.byte	W01
	.byte		        c_v-32
	.byte	W01
	.byte		        c_v-37
	.byte	W01
	.byte		        c_v-41
	.byte	W01
	.byte		        c_v-46
	.byte	W01
	.byte		        c_v-55
	.byte	W01
	.byte		        c_v-60
	.byte	W01
	.byte		        c_v-64
	.byte	W20
	.byte		        c_v-52
	.byte	W01
	.byte		        c_v-14
	.byte	W01
	.byte		        c_v-6
	.byte	W01
	.byte		        c_v+0
	.byte	W20
	.byte		N06   , Dn3 
	.byte	W06
	.byte		        An2 , v092
	.byte	W06
	.byte		N04   , Cn3 , v127
	.byte	W06
	.byte		N06   , Gn2 
	.byte	W06
	.byte	PEND
	.byte		BEND  , c_v-11
	.byte		N12   , An2 , v127
	.byte	W03
	.byte		BEND  , c_v-6
	.byte	W02
	.byte		        c_v+0
	.byte	W07
	.byte		N12   , An2 , v092
	.byte	W12
	.byte		N02   , Dn2 , v127
	.byte	W12
	.byte		BEND  , c_v-6
	.byte		N12   , Dn3 
	.byte	W01
	.byte		BEND  , c_v-3
	.byte	W02
	.byte		        c_v+0
	.byte	W09
	.byte		N12   , Dn3 , v092
	.byte	W12
	.byte		N02   , An2 , v127
	.byte	W12
	.byte		BEND  , c_v-11
	.byte		N12   , Gn3 
	.byte	W01
	.byte		BEND  , c_v-6
	.byte	W02
	.byte		        c_v+0
	.byte	W09
	.byte		N12   , Gn3 , v088
	.byte	W12
	.byte	PEND
	.byte		BEND  , c_v-11
	.byte		N36   , Cn3 , v127
	.byte	W03
	.byte		BEND  , c_v-6
	.byte	W02
	.byte		        c_v+0
	.byte	W13
	.byte		        c_v-7
	.byte	W01
	.byte		        c_v-12
	.byte	W01
	.byte		        c_v-16
	.byte	W01
	.byte		        c_v-21
	.byte	W01
	.byte		        c_v-26
	.byte	W01
	.byte		        c_v-32
	.byte	W01
	.byte		        c_v-37
	.byte	W01
	.byte		        c_v-41
	.byte	W01
	.byte		        c_v-46
	.byte	W01
	.byte		        c_v-55
	.byte	W01
	.byte		        c_v-60
	.byte	W01
	.byte		        c_v-64
	.byte	W20
	.byte		        c_v-52
	.byte	W01
	.byte		        c_v-14
	.byte	W01
	.byte		        c_v-6
	.byte	W01
	.byte		        c_v+0
	.byte	W20
	.byte		N06   , Fn3 
	.byte	W06
	.byte		        Cn3 , v092
	.byte	W06
	.byte		N04   , Dn3 , v127
	.byte	W06
	.byte		N06   , An2 
	.byte	W06
	.byte	PEND
	.byte		BEND  , c_v-11
	.byte		N12   , Cn3 , v127
	.byte	W03
	.byte		BEND  , c_v-6
	.byte	W02
	.byte		        c_v+0
	.byte	W07
	.byte		N12   , Cn3 , v092
	.byte	W12
	.byte		N02   , Fn2 , v127
	.byte	W12
	.byte		BEND  , c_v-6
	.byte		N12   , Fn3 
	.byte	W01
	.byte		BEND  , c_v-3
	.byte	W02
	.byte		        c_v+0
	.byte	W09
	.byte		N12   , Fn3 , v092
	.byte	W12
	.byte		N02   , Cn3 , v127
	.byte	W12
	.byte		BEND  , c_v-11
	.byte		N12   , An3 
	.byte	W01
	.byte		BEND  , c_v-6
	.byte	W02
	.byte		        c_v+0
	.byte	W09
	.byte		N12   , An3 , v088
	.byte	W12
	.byte	PEND
	.byte		BEND  , c_v-11
	.byte		N36   , Dn3 , v127
	.byte	W03
	.byte		BEND  , c_v-6
	.byte	W02
	.byte		        c_v+0
	.byte	W13
	.byte		        c_v-7
	.byte	W01
	.byte		        c_v-12
	.byte	W01
	.byte		        c_v-16
	.byte	W01
	.byte		        c_v-21
	.byte	W01
	.byte		        c_v-26
	.byte	W01
	.byte		        c_v-32
	.byte	W01
	.byte		        c_v-37
	.byte	W01
	.byte		        c_v-41
	.byte	W01
	.byte		        c_v-46
	.byte	W01
	.byte		        c_v-55
	.byte	W01
	.byte		        c_v-60
	.byte	W01
	.byte		        c_v-64
	.byte	W20
	.byte		        c_v-52
	.byte	W01
	.byte		        c_v-14
	.byte	W01
	.byte		        c_v-6
	.byte	W01
	.byte		        c_v+0
	.byte	W14
	.byte		N06   , An2 
	.byte	W06
	.byte		        Dn3 
	.byte	W06
	.byte		        Fn2 , v092
	.byte	W06
	.byte		N04   , Cn3 , v127
	.byte	W06
	.byte		N06   , Gn2 
	.byte	W06
	.byte	PEND
	.byte		BEND  , c_v-11
	.byte		N24   , Dn3 , v127
	.byte	W03
	.byte		BEND  , c_v-6
	.byte	W02
	.byte		        c_v+0
	.byte	W30
	.byte	W01
	.byte		        c_v-6
	.byte		N24   , Gn2 
	.byte	W01
	.byte		BEND  , c_v-3
	.byte	W02
	.byte		        c_v+0
	.byte	W32
	.byte	W01
	.byte		        c_v-11
	.byte		N24   , Cn3 
	.byte	W01
	.byte		BEND  , c_v-6
	.byte	W02
	.byte		        c_v+0
	.byte	W21
	.byte	PEND
	.byte		BEND  , c_v-11
	.byte		N12   , Fn2 , v127
	.byte	W05
	.byte		BEND  , c_v-6
	.byte	W02
	.byte		        c_v+0
	.byte	W05
	.byte		N12   , Fn2 , v092
	.byte	W24
	.byte		        As2 , v127
	.byte	W12
	.byte		        As2 , v092
	.byte	W12
	.byte		N06   , Dn2 , v127
	.byte	W06
	.byte		        Fn2 
	.byte	W06
	.byte		        Cn3 
	.byte	W06
	.byte		        Fn2 , v092
	.byte	W06
	.byte		N12   , As2 
	.byte	W12
	.byte	PEND
	.byte		BEND  , c_v-11
	.byte		N12   , Gn2 , v127
	.byte	W05
	.byte		BEND  , c_v-6
	.byte	W02
	.byte		        c_v+0
	.byte	W05
	.byte		N12   , Gn2 , v092
	.byte	W12
	.byte		N02   , Cn2 , v127
	.byte	W12
	.byte		N12   , Cn3 
	.byte	W12
	.byte		        Cn3 , v092
	.byte	W12
	.byte		N02   , Gn2 , v127
	.byte	W12
	.byte		N12   , Fn3 
	.byte	W02
	.byte		VOL   , 103*seq_032_mvl/mxv
	.byte	W02
	.byte		        92*seq_032_mvl/mxv
	.byte	W02
	.byte		        79*seq_032_mvl/mxv
	.byte	W02
	.byte		        62*seq_032_mvl/mxv
	.byte		BEND  , c_v+0
	.byte	W01
	.byte		VOL   , 60*seq_032_mvl/mxv
	.byte		BEND  , c_v-2
	.byte	W01
	.byte		VOL   , 54*seq_032_mvl/mxv
	.byte		BEND  , c_v-4
	.byte	W01
	.byte		VOL   , 51*seq_032_mvl/mxv
	.byte		BEND  , c_v-6
	.byte	W01
	.byte		VOL   , 46*seq_032_mvl/mxv
	.byte		BEND  , c_v-9
	.byte		N12   , Fn3 , v088
	.byte	W01
	.byte		VOL   , 41*seq_032_mvl/mxv
	.byte		BEND  , c_v-11
	.byte	W01
	.byte		VOL   , 36*seq_032_mvl/mxv
	.byte		BEND  , c_v-13
	.byte	W01
	.byte		VOL   , 31*seq_032_mvl/mxv
	.byte		BEND  , c_v-15
	.byte	W01
	.byte		VOL   , 26*seq_032_mvl/mxv
	.byte		BEND  , c_v-18
	.byte	W01
	.byte		        c_v-20
	.byte	W01
	.byte		        c_v-22
	.byte	W01
	.byte		        c_v-24
	.byte	W04
	.byte		VOL   , 125*seq_032_mvl/mxv
	.byte		BEND  , c_v+0
	.byte	W01
	.byte	PEND
	.byte	PATT
	 .word	seq_032_9 + 0xA4
	.byte	PATT
	 .word	seq_032_9 + 0xDD
	.byte	PATT
	 .word	seq_032_9 + 0x111
	.byte	PATT
	 .word	seq_032_9 + 0x14A
	.byte	PATT
	 .word	seq_032_9 + 0x17E
	.byte	PATT
	 .word	seq_032_9 + 0x1B9
	.byte	PATT
	 .word	seq_032_9 + 0x1D9
	.byte		BEND  , c_v-11
	.byte		N12   , Gn2 , v127
	.byte	W05
	.byte		BEND  , c_v-6
	.byte	W02
	.byte		        c_v+0
	.byte	W05
	.byte		N12   , Gn2 , v092
	.byte	W12
	.byte		N02   , Cn2 , v127
	.byte	W12
	.byte		N12   , Cn3 
	.byte	W12
	.byte		        Cn3 , v092
	.byte	W12
	.byte		N02   , Gn2 , v127
	.byte	W12
	.byte		N24
	.byte	W02
	.byte		VOL   , 103*seq_032_mvl/mxv
	.byte	W02
	.byte		        92*seq_032_mvl/mxv
	.byte	W02
	.byte		        79*seq_032_mvl/mxv
	.byte	W02
	.byte		        62*seq_032_mvl/mxv
	.byte		BEND  , c_v+0
	.byte	W01
	.byte		VOL   , 60*seq_032_mvl/mxv
	.byte		BEND  , c_v-2
	.byte	W01
	.byte		VOL   , 54*seq_032_mvl/mxv
	.byte		BEND  , c_v-4
	.byte	W01
	.byte		VOL   , 51*seq_032_mvl/mxv
	.byte		BEND  , c_v-6
	.byte	W01
	.byte		VOL   , 46*seq_032_mvl/mxv
	.byte		BEND  , c_v-9
	.byte	W01
	.byte		VOL   , 41*seq_032_mvl/mxv
	.byte		BEND  , c_v-11
	.byte	W01
	.byte		VOL   , 36*seq_032_mvl/mxv
	.byte		BEND  , c_v-13
	.byte	W01
	.byte		VOL   , 31*seq_032_mvl/mxv
	.byte		BEND  , c_v-15
	.byte	W01
	.byte		VOL   , 26*seq_032_mvl/mxv
	.byte		BEND  , c_v-18
	.byte	W01
	.byte		        c_v-20
	.byte	W01
	.byte		        c_v-22
	.byte	W01
	.byte		        c_v-24
	.byte	W04
	.byte		VOL   , 125*seq_032_mvl/mxv
	.byte		BEND  , c_v+0
	.byte	W01
	.byte	PEND
	.byte		N12   , An2 , v127
	.byte	W12
	.byte		N06   , Gn2 
	.byte	W06
	.byte		        An2 
	.byte	W06
	.byte		N01   , Dn2 , v052
	.byte	W06
	.byte		N06   , Dn3 , v127
	.byte	W06
	.byte		N01   , Dn2 , v052
	.byte	W06
	.byte		N06   , An2 , v127
	.byte	W06
	.byte		N01   , En2 , v052
	.byte	W06
	.byte		N06   , Dn3 , v127
	.byte	W06
	.byte		        An2 
	.byte	W06
	.byte		        Dn2 
	.byte	W06
	.byte		N01   , An1 , v052
	.byte	W06
	.byte		N06   , Cn2 , v127
	.byte	W06
	.byte		        An2 
	.byte	W06
	.byte		        Dn2 
	.byte	W06
	.byte	PEND
	.byte		N12   , Cn3 , v127
	.byte	W12
	.byte		N06   , Fn2 
	.byte	W06
	.byte		        Fn3 
	.byte	W06
	.byte		        En3 
	.byte	W06
	.byte		        Fn3 
	.byte	W06
	.byte		N01   , Fn2 , v052
	.byte	W06
	.byte		N06   , Cn3 , v127
	.byte	W06
	.byte		N01   , Fn2 , v052
	.byte	W06
	.byte		N06   , En2 , v127
	.byte	W06
	.byte		        Fn2 
	.byte	W06
	.byte		        An2 
	.byte	W12
	.byte		        An1 
	.byte	W06
	.byte		        Cn2 
	.byte	W06
	.byte		        An1 
	.byte	W06
	.byte	PEND
	.byte		N12   , Dn2 , v127
	.byte	W12
	.byte		N06   , Cn2 
	.byte	W06
	.byte		        Dn2 
	.byte	W06
	.byte		N01   , An1 , v052
	.byte	W06
	.byte		N06   , Gn2 , v127
	.byte	W06
	.byte		N01   , Dn2 , v052
	.byte	W06
	.byte		N06   , An2 , v127
	.byte	W06
	.byte		N01   , Dn2 , v052
	.byte	W06
	.byte		N06   , Cn2 , v127
	.byte	W06
	.byte		        Dn2 
	.byte	W06
	.byte		        An1 
	.byte	W06
	.byte		N01   , Dn2 , v052
	.byte	W12
	.byte		N18   , Fn2 , v127
	.byte	W12
	.byte	PEND
	.byte	W12
	.byte		N06   , Dn2 , v127
	.byte	W06
	.byte		N01   , As1 , v052
	.byte	W06
	.byte		N06   , Fn2 , v127
	.byte	W06
	.byte		N01   , As1 , v052
	.byte	W06
	.byte		N18   , Gn2 , v127
	.byte	W18
	.byte		N01   , Cn2 , v052
	.byte	W06
	.byte		N06   , Dn2 , v127
	.byte	W06
	.byte		N01   , Cn2 , v052
	.byte	W06
	.byte		N24   , Gn2 , v127
	.byte	W02
	.byte		VOL   , 103*seq_032_mvl/mxv
	.byte	W02
	.byte		        92*seq_032_mvl/mxv
	.byte	W02
	.byte		        79*seq_032_mvl/mxv
	.byte	W02
	.byte		        62*seq_032_mvl/mxv
	.byte		BEND  , c_v+0
	.byte	W01
	.byte		VOL   , 60*seq_032_mvl/mxv
	.byte		BEND  , c_v-2
	.byte	W01
	.byte		VOL   , 54*seq_032_mvl/mxv
	.byte		BEND  , c_v-4
	.byte	W01
	.byte		VOL   , 51*seq_032_mvl/mxv
	.byte		BEND  , c_v-6
	.byte	W01
	.byte		VOL   , 46*seq_032_mvl/mxv
	.byte		BEND  , c_v-9
	.byte	W01
	.byte		VOL   , 41*seq_032_mvl/mxv
	.byte		BEND  , c_v-11
	.byte	W01
	.byte		VOL   , 36*seq_032_mvl/mxv
	.byte		BEND  , c_v-13
	.byte	W01
	.byte		VOL   , 31*seq_032_mvl/mxv
	.byte		BEND  , c_v-15
	.byte	W01
	.byte		VOL   , 26*seq_032_mvl/mxv
	.byte		BEND  , c_v-18
	.byte	W01
	.byte		        c_v-20
	.byte	W01
	.byte		        c_v-22
	.byte	W01
	.byte		        c_v-24
	.byte	W04
	.byte		VOL   , 125*seq_032_mvl/mxv
	.byte		BEND  , c_v+0
	.byte	W01
	.byte	PEND
	.byte	PATT
	 .word	seq_032_9 + 0x2E0
	.byte	PATT
	 .word	seq_032_9 + 0x312
	.byte	PATT
	 .word	seq_032_9 + 0x33A
	.byte	PATT
	 .word	seq_032_9 + 0x368
	.byte	PATT
	 .word	seq_032_9 + 0xA4
	.byte	PATT
	 .word	seq_032_9 + 0xDD
	.byte	PATT
	 .word	seq_032_9 + 0x111
	.byte	PATT
	 .word	seq_032_9 + 0x14A
	.byte	PATT
	 .word	seq_032_9 + 0x17E
	.byte	PATT
	 .word	seq_032_9 + 0x1B9
	.byte	PATT
	 .word	seq_032_9 + 0x1D9
	.byte	PATT
	 .word	seq_032_9 + 0x1FD
	.byte	PATT
	 .word	seq_032_9 + 0xA4
	.byte	PATT
	 .word	seq_032_9 + 0xDD
	.byte	PATT
	 .word	seq_032_9 + 0x111
	.byte	PATT
	 .word	seq_032_9 + 0x14A
	.byte	PATT
	 .word	seq_032_9 + 0x17E
	.byte	PATT
	 .word	seq_032_9 + 0x1B9
	.byte	PATT
	 .word	seq_032_9 + 0x1D9
	.byte		BEND  , c_v-11
	.byte		N12   , Gn2 , v127
	.byte	W05
	.byte		BEND  , c_v-6
	.byte	W02
	.byte		        c_v+0
	.byte	W05
	.byte		N12   , Gn2 , v092
	.byte	W12
	.byte		N02   , Cn2 , v127
	.byte	W12
	.byte		N12   , Cn3 
	.byte	W12
	.byte		        Cn3 , v092
	.byte	W12
	.byte		N02   , Gn2 , v127
	.byte	W12
	.byte		N24
	.byte	W02
	.byte		VOL   , 103*seq_032_mvl/mxv
	.byte	W02
	.byte		        92*seq_032_mvl/mxv
	.byte	W02
	.byte		        79*seq_032_mvl/mxv
	.byte	W02
	.byte		        62*seq_032_mvl/mxv
	.byte		BEND  , c_v+0
	.byte	W01
	.byte		VOL   , 60*seq_032_mvl/mxv
	.byte		BEND  , c_v-2
	.byte	W01
	.byte		VOL   , 54*seq_032_mvl/mxv
	.byte		BEND  , c_v-4
	.byte	W01
	.byte		VOL   , 51*seq_032_mvl/mxv
	.byte		BEND  , c_v-6
	.byte	W01
	.byte		VOL   , 46*seq_032_mvl/mxv
	.byte		BEND  , c_v-9
	.byte	W01
	.byte		VOL   , 41*seq_032_mvl/mxv
	.byte		BEND  , c_v-11
	.byte	W01
	.byte		VOL   , 36*seq_032_mvl/mxv
	.byte		BEND  , c_v-13
	.byte	W01
	.byte		VOL   , 31*seq_032_mvl/mxv
	.byte		BEND  , c_v-15
	.byte	W01
	.byte		VOL   , 26*seq_032_mvl/mxv
	.byte		BEND  , c_v-18
	.byte	W01
	.byte		        c_v-20
	.byte	W01
	.byte		        c_v-22
	.byte	W01
	.byte		        c_v-24
	.byte	W04
	.byte		VOL   , 125*seq_032_mvl/mxv
	.byte		BEND  , c_v-11
	.byte	W01
	.byte		N30   , An2 , v127
	.byte	W02
	.byte		BEND  , c_v-6
	.byte	W03
	.byte		        c_v+0
	.byte	W24
	.byte	W01
	.byte		N06   , Gn2 
	.byte	W06
	.byte		N01   , Dn2 , v052
	.byte	W05
	.byte		BEND  , c_v-11
	.byte	W01
	.byte		N30   , An2 , v127
	.byte	W01
	.byte		BEND  , c_v-6
	.byte	W01
	.byte		        c_v+0
	.byte	W28
	.byte		N01   , An1 , v052
	.byte	W12
	.byte		N12   , Cn2 , v127
	.byte	W12
	.byte	PEND
	.byte		N12   , Dn2 , v127
	.byte	W12
	.byte		N06   , Cn2 
	.byte	W06
	.byte		        Dn2 
	.byte	W12
	.byte		        Gn2 
	.byte	W06
	.byte		N01   , Dn2 , v052
	.byte	W06
	.byte		N06   , An2 , v127
	.byte	W06
	.byte		N01   , Dn2 , v052
	.byte	W06
	.byte		N06   , Dn3 , v127
	.byte	W06
	.byte		N01   , An2 , v052
	.byte	W06
	.byte		N06   , Cn3 , v127
	.byte	W06
	.byte		N01   , Dn2 , v052
	.byte	W06
	.byte		N06   , Gn2 , v127
	.byte	W06
	.byte		N12   , An2 
	.byte	W11
	.byte		BEND  , c_v-11
	.byte	W01
	.byte	PEND
	.byte		N30   , Cn3 , v127
	.byte	W02
	.byte		BEND  , c_v-6
	.byte	W03
	.byte		        c_v+0
	.byte	W24
	.byte	W01
	.byte		N06   , As2 
	.byte	W06
	.byte		N01   , Fn2 , v052
	.byte	W05
	.byte		BEND  , c_v-11
	.byte	W01
	.byte		N30   , Cn3 , v127
	.byte	W01
	.byte		BEND  , c_v-6
	.byte	W01
	.byte		        c_v+0
	.byte	W28
	.byte		N01   , Fn2 , v052
	.byte	W12
	.byte		N12   , As2 , v127
	.byte	W12
	.byte	PEND
	.byte		N12   , Fn3 , v127
	.byte	W12
	.byte		N06   , Ds3 
	.byte	W06
	.byte		        Fn3 
	.byte	W12
	.byte		        Cn3 
	.byte	W06
	.byte		N01   , Fn2 , v052
	.byte	W06
	.byte		N06   , Ds3 , v127
	.byte	W06
	.byte		N01   , Fn2 , v052
	.byte	W06
	.byte		N06   , As2 , v127
	.byte	W06
	.byte		        Cn3 
	.byte	W06
	.byte		N01   , Fn2 , v052
	.byte	W06
	.byte		N06   , Dn3 , v127
	.byte	W06
	.byte		        Fn2 , v080
	.byte	W06
	.byte		        Gn2 , v127
	.byte	W06
	.byte		        Dn2 , v080
	.byte	W05
	.byte		BEND  , c_v-11
	.byte	W01
	.byte	PEND
	.byte		N30   , Dn3 , v127
	.byte	W02
	.byte		BEND  , c_v-6
	.byte	W03
	.byte		        c_v+0
	.byte	W24
	.byte	W01
	.byte		N06   , Cn3 
	.byte	W06
	.byte		N01   , An2 , v052
	.byte	W05
	.byte		BEND  , c_v-11
	.byte	W01
	.byte		N30   , Dn3 , v127
	.byte	W01
	.byte		BEND  , c_v-6
	.byte	W01
	.byte		        c_v+0
	.byte	W28
	.byte		N01   , Dn2 , v052
	.byte	W12
	.byte		N12   , An2 , v127
	.byte	W12
	.byte	PEND
	.byte		N12   , Dn3 , v127
	.byte	W12
	.byte		N06   , Cn3 
	.byte	W06
	.byte		        Dn3 
	.byte	W12
	.byte		        Cn3 
	.byte	W06
	.byte		N01   , An2 , v052
	.byte	W06
	.byte		N06   , Gn3 , v127
	.byte	W12
	.byte		        Fn3 
	.byte	W06
	.byte		N01   , Dn3 , v052
	.byte	W06
	.byte		N06   , En3 , v127
	.byte	W06
	.byte		N01   , Gn2 , v052
	.byte	W06
	.byte		N06   , Fn3 , v127
	.byte	W06
	.byte		N12   , Dn3 
	.byte	W12
	.byte	PEND
	.byte		N12   , Fn3 , v127
	.byte	W12
	.byte		N06   , Ds3 
	.byte	W06
	.byte		        Fn3 
	.byte	W06
	.byte		N01   , Fn2 , v052
	.byte	W12
	.byte		N12   , Fn3 , v127
	.byte	W12
	.byte		N06   , Ds3 
	.byte	W06
	.byte		        Fn3 
	.byte	W06
	.byte		N01   , Cn3 , v052
	.byte	W06
	.byte		N06   , Fn3 , v127
	.byte	W06
	.byte		N01   , Fn2 , v052
	.byte	W06
	.byte		N06   , Cn4 , v127
	.byte	W06
	.byte		N12   , As3 
	.byte	W12
	.byte	PEND
	.byte		        Gn3 
	.byte	W12
	.byte		N06   , Fn3 
	.byte	W06
	.byte		        Gn3 
	.byte	W06
	.byte		N01   , Gn2 , v052
	.byte	W06
	.byte		N06   , Ds3 , v127
	.byte	W06
	.byte		N01   , Ds2 , v052
	.byte	W06
	.byte		N06   , Fn3 , v127
	.byte	W06
	.byte		N01   , Fn2 , v052
	.byte	W06
	.byte		N06   , As2 , v127
	.byte	W06
	.byte		        Cn3 
	.byte	W06
	.byte		N01   , Gn2 , v052
	.byte	W06
	.byte		N24   , Dn3 , v127
	.byte	W02
	.byte		VOL   , 103*seq_032_mvl/mxv
	.byte	W02
	.byte		        92*seq_032_mvl/mxv
	.byte	W02
	.byte		        79*seq_032_mvl/mxv
	.byte	W02
	.byte		        62*seq_032_mvl/mxv
	.byte		BEND  , c_v+0
	.byte	W01
	.byte		VOL   , 60*seq_032_mvl/mxv
	.byte		BEND  , c_v-2
	.byte	W01
	.byte		VOL   , 54*seq_032_mvl/mxv
	.byte		BEND  , c_v-4
	.byte	W01
	.byte		VOL   , 51*seq_032_mvl/mxv
	.byte		BEND  , c_v-6
	.byte	W01
	.byte		VOL   , 46*seq_032_mvl/mxv
	.byte		BEND  , c_v-9
	.byte	W01
	.byte		VOL   , 41*seq_032_mvl/mxv
	.byte		BEND  , c_v-11
	.byte	W01
	.byte		VOL   , 36*seq_032_mvl/mxv
	.byte		BEND  , c_v-13
	.byte	W01
	.byte		VOL   , 31*seq_032_mvl/mxv
	.byte		BEND  , c_v-15
	.byte	W01
	.byte		VOL   , 26*seq_032_mvl/mxv
	.byte		BEND  , c_v-18
	.byte	W01
	.byte		        c_v-20
	.byte	W01
	.byte		        c_v-22
	.byte	W01
	.byte		        c_v-24
	.byte	W04
	.byte		VOL   , 125*seq_032_mvl/mxv
	.byte		BEND  , c_v-11
	.byte	W01
	.byte	PATT
	 .word	seq_032_9 + 0x488
	.byte	PATT
	 .word	seq_032_9 + 0x4AE
	.byte	PATT
	 .word	seq_032_9 + 0x4E0
	.byte	PATT
	 .word	seq_032_9 + 0x506
	.byte	PATT
	 .word	seq_032_9 + 0x538
	.byte	PATT
	 .word	seq_032_9 + 0x55E
	.byte	PATT
	 .word	seq_032_9 + 0x587
	.byte		N12   , Gn3 , v127
	.byte	W12
	.byte		N06   , Fn3 
	.byte	W06
	.byte		        Gn3 
	.byte	W06
	.byte		N01   , Gn2 , v052
	.byte	W06
	.byte		N06   , Ds3 , v127
	.byte	W06
	.byte		N01   , Ds2 , v052
	.byte	W06
	.byte		N06   , Fn3 , v127
	.byte	W06
	.byte		N01   , Fn2 , v052
	.byte	W06
	.byte		N06   , As2 , v127
	.byte	W06
	.byte		        Cn3 
	.byte	W06
	.byte		N01   , Gn2 , v052
	.byte	W06
	.byte		N24   , Dn3 , v127
	.byte	W02
	.byte		VOL   , 103*seq_032_mvl/mxv
	.byte	W02
	.byte		        92*seq_032_mvl/mxv
	.byte	W02
	.byte		        79*seq_032_mvl/mxv
	.byte	W02
	.byte		        62*seq_032_mvl/mxv
	.byte		BEND  , c_v+0
	.byte	W01
	.byte		VOL   , 60*seq_032_mvl/mxv
	.byte		BEND  , c_v-2
	.byte	W01
	.byte		VOL   , 54*seq_032_mvl/mxv
	.byte		BEND  , c_v-4
	.byte	W01
	.byte		VOL   , 51*seq_032_mvl/mxv
	.byte		BEND  , c_v-6
	.byte	W01
	.byte		VOL   , 46*seq_032_mvl/mxv
	.byte		BEND  , c_v-9
	.byte	W01
	.byte		VOL   , 41*seq_032_mvl/mxv
	.byte		BEND  , c_v-11
	.byte	W01
	.byte		VOL   , 36*seq_032_mvl/mxv
	.byte		BEND  , c_v-13
	.byte	W01
	.byte		VOL   , 31*seq_032_mvl/mxv
	.byte		BEND  , c_v-15
	.byte	W01
	.byte		VOL   , 26*seq_032_mvl/mxv
	.byte		BEND  , c_v-18
	.byte	W01
	.byte		        c_v-20
	.byte	W01
	.byte		        c_v-22
	.byte	W01
	.byte		        c_v-24
	.byte	W04
	.byte		VOL   , 125*seq_032_mvl/mxv
	.byte		BEND  , c_v+0
	.byte	W01
	.byte	PATT
	 .word	seq_032_9 + 0xA4
	.byte	PATT
	 .word	seq_032_9 + 0xDD
	.byte	PATT
	 .word	seq_032_9 + 0x111
	.byte	PATT
	 .word	seq_032_9 + 0x14A
	.byte	PATT
	 .word	seq_032_9 + 0x17E
	.byte	PATT
	 .word	seq_032_9 + 0x1B9
	.byte	PATT
	 .word	seq_032_9 + 0x1D9
	.byte	PATT
	 .word	seq_032_9 + 0x1FD
	.byte	PATT
	 .word	seq_032_9 + 0xA4
	.byte	PATT
	 .word	seq_032_9 + 0xDD
	.byte	PATT
	 .word	seq_032_9 + 0x111
	.byte	PATT
	 .word	seq_032_9 + 0x14A
	.byte	PATT
	 .word	seq_032_9 + 0x17E
	.byte	PATT
	 .word	seq_032_9 + 0x1B9
	.byte	PATT
	 .word	seq_032_9 + 0x1D9
	.byte	PATT
	 .word	seq_032_9 + 0x282
	.byte	PATT
	 .word	seq_032_9 + 0x2E0
	.byte	PATT
	 .word	seq_032_9 + 0x312
	.byte	PATT
	 .word	seq_032_9 + 0x33A
	.byte	PATT
	 .word	seq_032_9 + 0x368
	.byte	PATT
	 .word	seq_032_9 + 0x2E0
	.byte	PATT
	 .word	seq_032_9 + 0x312
	.byte	PATT
	 .word	seq_032_9 + 0x33A
	.byte	PATT
	 .word	seq_032_9 + 0x368
	.byte	PATT
	 .word	seq_032_9 + 0xA4
	.byte	PATT
	 .word	seq_032_9 + 0xDD
	.byte	PATT
	 .word	seq_032_9 + 0x111
	.byte	PATT
	 .word	seq_032_9 + 0x14A
	.byte	PATT
	 .word	seq_032_9 + 0x17E
	.byte	PATT
	 .word	seq_032_9 + 0x1B9
	.byte	PATT
	 .word	seq_032_9 + 0x1D9
	.byte	PATT
	 .word	seq_032_9 + 0x1FD
	.byte	GOTO
	 .word	seq_032_9 + 0x408
	.byte	FINE

@*********************** Track 11 ***********************@

seq_032_10:
	.byte	KEYSH , seq_032_key+0
	.byte	W21
	.byte		VOICE , 127
	.byte		VOL   , 125*seq_032_mvl/mxv
	.byte		PAN   , c_v+0
	.byte	W15
	.byte	W92
	.byte	W03
	.byte		VOICE , 127
	.byte	W01
	.byte		N02   , An1 , v032
	.byte	W06
	.byte		        An1 , v016
	.byte	W06
	.byte		        An1 , v020
	.byte	W06
	.byte		N02
	.byte	W06
	.byte		        An1 , v072
	.byte	W06
	.byte		        An1 , v012
	.byte	W06
	.byte		        An1 , v044
	.byte	W06
	.byte		        An1 , v016
	.byte	W06
	.byte		        An1 , v096
	.byte	W06
	.byte		        An1 , v040
	.byte	W06
	.byte		        An1 , v072
	.byte	W06
	.byte		        An1 , v024
	.byte	W06
	.byte		N05   , An1 , v127
	.byte	W24
	.byte	PEND
	.byte		N03   , Cn1 , v120
	.byte	W18
	.byte		N03
	.byte	W66
	.byte		        Cn1 , v068
	.byte	W12
	.byte	PEND
	.byte	PATT
	 .word	seq_032_10 + 0x38
	.byte	PATT
	 .word	seq_032_10 + 0x38
	.byte	PATT
	 .word	seq_032_10 + 0x38
	.byte	PATT
	 .word	seq_032_10 + 0x38
	.byte	PATT
	 .word	seq_032_10 + 0x38
	.byte	PATT
	 .word	seq_032_10 + 0x38
	.byte	PATT
	 .word	seq_032_10 + 0x38
	.byte	PATT
	 .word	seq_032_10 + 0x38
	.byte	PATT
	 .word	seq_032_10 + 0x38
	.byte	PATT
	 .word	seq_032_10 + 0x38
	.byte	PATT
	 .word	seq_032_10 + 0x38
	.byte	PATT
	 .word	seq_032_10 + 0x38
	.byte	PATT
	 .word	seq_032_10 + 0x38
	.byte		N03   , Cn1 , v120
	.byte	W18
	.byte		N03
	.byte	W66
	.byte		        Cn1 , v068
	.byte	W11
	.byte		VOICE , 127
	.byte	W01
	.byte		N03   , Cn1 , v120
	.byte		N02   , An1 , v032
	.byte	W06
	.byte		        An1 , v016
	.byte	W06
	.byte		        An1 , v020
	.byte	W06
	.byte		N03   , Cn1 , v120
	.byte		N02   , An1 , v020
	.byte	W06
	.byte		        An1 , v072
	.byte	W06
	.byte		        An1 , v012
	.byte	W06
	.byte		        An1 , v044
	.byte	W06
	.byte		        An1 , v016
	.byte	W06
	.byte		        An1 , v096
	.byte	W06
	.byte		        An1 , v040
	.byte	W06
	.byte		        An1 , v072
	.byte	W06
	.byte		        An1 , v024
	.byte	W06
	.byte		N05   , An1 , v127
	.byte	W12
	.byte		N03   , Cn1 , v068
	.byte	W12
	.byte		N03   , Cn1 , v120
	.byte	W06
	.byte		N06   , Gs4 , v036
	.byte	W06
	.byte		N03   , Cn1 , v120
	.byte	W06
	.byte		        Cn1 , v036
	.byte		N06   , An4 
	.byte	W06
	.byte		N03   , Dn1 , v120
	.byte	W06
	.byte		N06   , An4 , v036
	.byte	W06
	.byte		N03   , Cn1 , v060
	.byte	W06
	.byte		        Cn1 , v120
	.byte	W12
	.byte		N03
	.byte	W03
	.byte		        Gs4 , v016
	.byte	W03
	.byte		N06   , An4 , v036
	.byte	W06
	.byte		N03   , Cn1 , v060
	.byte	W06
	.byte		        Dn1 , v120
	.byte	W06
	.byte		        An4 , v016
	.byte	W03
	.byte		        Gs4 , v056
	.byte	W03
	.byte		        Cn1 , v120
	.byte	W06
	.byte		        Cn1 , v036
	.byte	W06
	.byte	PEND
	.byte	PATT
	 .word	seq_032_10 + 0xC3
	.byte	PATT
	 .word	seq_032_10 + 0xC3
	.byte	PATT
	 .word	seq_032_10 + 0xC3
	.byte	PATT
	 .word	seq_032_10 + 0xC3
	.byte	PATT
	 .word	seq_032_10 + 0xC3
	.byte		N03   , Cn1 , v120
	.byte	W06
	.byte		N06   , Gs4 , v036
	.byte	W06
	.byte		N03   , Cn1 , v120
	.byte	W06
	.byte		        Cn1 , v036
	.byte		N06   , An4 
	.byte	W06
	.byte		N03   , Dn1 , v120
	.byte	W06
	.byte		N06   , An4 , v036
	.byte	W06
	.byte		N03   , Cn1 , v060
	.byte	W06
	.byte		        Cn1 , v120
	.byte	W12
	.byte		N03
	.byte	W03
	.byte		        Gs4 , v016
	.byte	W03
	.byte		N06   , An4 , v036
	.byte	W06
	.byte		N03   , Cn1 , v060
	.byte	W06
	.byte		        Dn1 , v120
	.byte	W06
	.byte		        An4 , v016
	.byte	W03
	.byte		        Gs4 , v056
	.byte	W03
	.byte		        Cn1 , v120
	.byte	W06
	.byte		        Cn1 , v036
	.byte	W05
	.byte		VOICE , 127
	.byte	W01
	.byte	PEND
	.byte	PATT
	 .word	seq_032_10 + 0xF
	.byte	PATT
	 .word	seq_032_10 + 0xC3
	.byte	PATT
	 .word	seq_032_10 + 0xC3
	.byte	PATT
	 .word	seq_032_10 + 0xC3
	.byte	PATT
	 .word	seq_032_10 + 0xC3
	.byte	PATT
	 .word	seq_032_10 + 0xC3
	.byte	PATT
	 .word	seq_032_10 + 0xC3
	.byte	PATT
	 .word	seq_032_10 + 0xC3
	.byte	PATT
	 .word	seq_032_10 + 0xC3
	.byte	PATT
	 .word	seq_032_10 + 0xC3
	.byte	PATT
	 .word	seq_032_10 + 0xC3
	.byte	PATT
	 .word	seq_032_10 + 0xC3
	.byte	PATT
	 .word	seq_032_10 + 0xC3
	.byte	PATT
	 .word	seq_032_10 + 0xC3
	.byte	PATT
	 .word	seq_032_10 + 0xC3
	.byte	PATT
	 .word	seq_032_10 + 0xC3
	.byte	PATT
	 .word	seq_032_10 + 0xC3
	.byte	PATT
	 .word	seq_032_10 + 0x38
	.byte		N03   , Cn1 , v120
	.byte	W18
	.byte		N03
	.byte	W78
	.byte	PEND
	.byte	PATT
	 .word	seq_032_10 + 0x38
	.byte	PATT
	 .word	seq_032_10 + 0x1B3
	.byte	PATT
	 .word	seq_032_10 + 0x38
	.byte	PATT
	 .word	seq_032_10 + 0x1B3
	.byte	PATT
	 .word	seq_032_10 + 0x38
	.byte		N03   , Cn1 , v120
	.byte	W06
	.byte		N02   , An1 , v016
	.byte	W06
	.byte		        An1 , v020
	.byte	W06
	.byte		N03   , Cn1 , v120
	.byte		N02   , An1 , v020
	.byte	W12
	.byte		        An1 , v012
	.byte	W06
	.byte		        An1 , v044
	.byte	W06
	.byte		        An1 , v016
	.byte	W12
	.byte		        An1 , v040
	.byte	W06
	.byte		        An1 , v072
	.byte	W06
	.byte		        An1 , v024
	.byte	W06
	.byte		        An1 , v108
	.byte	W24
	.byte	PATT
	 .word	seq_032_10 + 0xC3
	.byte	PATT
	 .word	seq_032_10 + 0xC3
	.byte	PATT
	 .word	seq_032_10 + 0xC3
	.byte	PATT
	 .word	seq_032_10 + 0xC3
	.byte	PATT
	 .word	seq_032_10 + 0xC3
	.byte	PATT
	 .word	seq_032_10 + 0xC3
	.byte	PATT
	 .word	seq_032_10 + 0xC3
	.byte	PATT
	 .word	seq_032_10 + 0xC3
	.byte	W96
	.byte	W96
	.byte	W96
	.byte	W96
	.byte	PATT
	 .word	seq_032_10 + 0x38
	.byte	PATT
	 .word	seq_032_10 + 0x38
	.byte		N03   , Cn1 , v120
	.byte	W24
	.byte		N03
	.byte	W24
	.byte		N03
	.byte	W24
	.byte		N03
	.byte	W23
	.byte		VOICE , 127
	.byte	W01
	.byte	PATT
	 .word	seq_032_10 + 0xF
	.byte	PATT
	 .word	seq_032_10 + 0xC3
	.byte	PATT
	 .word	seq_032_10 + 0xC3
	.byte	PATT
	 .word	seq_032_10 + 0xC3
	.byte	PATT
	 .word	seq_032_10 + 0xC3
	.byte	PATT
	 .word	seq_032_10 + 0xC3
	.byte	PATT
	 .word	seq_032_10 + 0xC3
	.byte	PATT
	 .word	seq_032_10 + 0x119
	.byte	PATT
	 .word	seq_032_10 + 0xF
	.byte	PATT
	 .word	seq_032_10 + 0xC3
	.byte	PATT
	 .word	seq_032_10 + 0xC3
	.byte	PATT
	 .word	seq_032_10 + 0xC3
	.byte	PATT
	 .word	seq_032_10 + 0xC3
	.byte	PATT
	 .word	seq_032_10 + 0xC3
	.byte	PATT
	 .word	seq_032_10 + 0xC3
	.byte	PATT
	 .word	seq_032_10 + 0x119
	.byte	PATT
	 .word	seq_032_10 + 0xF
	.byte	PATT
	 .word	seq_032_10 + 0xC3
	.byte	PATT
	 .word	seq_032_10 + 0xC3
	.byte	PATT
	 .word	seq_032_10 + 0xC3
	.byte	PATT
	 .word	seq_032_10 + 0xC3
	.byte	PATT
	 .word	seq_032_10 + 0xC3
	.byte	PATT
	 .word	seq_032_10 + 0xC3
	.byte	PATT
	 .word	seq_032_10 + 0xC3
	.byte	PATT
	 .word	seq_032_10 + 0xC3
	.byte	GOTO
	 .word	seq_032_10 + 0x186
	.byte	FINE

@*********************** Track 12 ***********************@

seq_032_11:
	.byte	KEYSH , seq_032_key+0
	.byte	W22
	.byte		VOICE , 127
	.byte		VOL   , 125*seq_032_mvl/mxv
	.byte		PAN   , c_v+0
	.byte	W14
	.byte	W96
	.byte	W12
	.byte		N03   , Cs1 , v032
	.byte	W24
	.byte		        Cs1 , v052
	.byte	W24
	.byte		        Cs1 , v072
	.byte	W06
	.byte		        Gn1 , v048
	.byte	W06
	.byte		        Gn1 , v080
	.byte	W24
	.byte	PEND
	.byte	W96
	.byte	W96
	.byte	W96
	.byte	W96
	.byte	W96
	.byte	W96
	.byte	W96
	.byte	W96
	.byte	W96
	.byte	W96
	.byte	W96
	.byte	W96
	.byte	W96
	.byte	W96
	.byte	W96
	.byte	PATT
	 .word	seq_032_11 + 0xB
	.byte	W96
	.byte	W96
	.byte	W96
	.byte	W96
	.byte	W96
	.byte	W96
	.byte	W96
	.byte	PATT
	 .word	seq_032_11 + 0xB
	.byte		N04   , Ds3 , v076
	.byte	W12
	.byte		        Dn3 
	.byte	W12
	.byte		        Cs3 
	.byte	W06
	.byte		        Dn3 
	.byte	W06
	.byte		N06   , Gs4 , v048
	.byte	W06
	.byte		N04   , Cs3 , v076
	.byte	W12
	.byte		        Dn3 
	.byte	W12
	.byte		        Ds3 
	.byte	W12
	.byte		        En3 
	.byte	W06
	.byte		        Cs3 
	.byte	W06
	.byte		        Dn3 
	.byte	W06
	.byte	PEND
	.byte		N04   , Ds3 , v076
	.byte	W12
	.byte		        Dn3 
	.byte	W12
	.byte		        Cs3 
	.byte	W06
	.byte		        Dn3 
	.byte	W06
	.byte		N06   , Gs4 , v048
	.byte	W06
	.byte		N04   , Cs3 , v076
	.byte	W12
	.byte		        Dn3 
	.byte	W12
	.byte		        En3 
	.byte	W12
	.byte		        Cs3 
	.byte	W06
	.byte		        Dn3 
	.byte	W12
	.byte	PEND
	.byte	PATT
	 .word	seq_032_11 + 0x3D
	.byte	PATT
	 .word	seq_032_11 + 0x5A
	.byte	PATT
	 .word	seq_032_11 + 0x3D
	.byte	PATT
	 .word	seq_032_11 + 0x5A
	.byte	PATT
	 .word	seq_032_11 + 0x3D
	.byte	PATT
	 .word	seq_032_11 + 0x5A
	.byte	PATT
	 .word	seq_032_11 + 0x3D
	.byte	PATT
	 .word	seq_032_11 + 0x5A
	.byte	PATT
	 .word	seq_032_11 + 0x3D
	.byte	PATT
	 .word	seq_032_11 + 0x5A
	.byte	PATT
	 .word	seq_032_11 + 0x3D
	.byte	PATT
	 .word	seq_032_11 + 0x5A
	.byte	PATT
	 .word	seq_032_11 + 0x3D
	.byte	PATT
	 .word	seq_032_11 + 0x5A
	.byte	W96
	.byte	W96
	.byte	W96
	.byte	W96
	.byte	W96
	.byte	W96
	.byte	W96
	.byte		N03   , Cn1 , v120
	.byte	W12
	.byte		        Cs1 , v032
	.byte	W12
	.byte		        Cn1 , v120
	.byte	W12
	.byte		        Cs1 , v052
	.byte	W12
	.byte		        Cn1 , v120
	.byte	W12
	.byte		        Cs1 , v072
	.byte	W06
	.byte		        Gn1 , v048
	.byte	W06
	.byte		        Cn1 , v120
	.byte	W24
	.byte	PATT
	 .word	seq_032_11 + 0x3D
	.byte	PATT
	 .word	seq_032_11 + 0x5A
	.byte	PATT
	 .word	seq_032_11 + 0x3D
	.byte	PATT
	 .word	seq_032_11 + 0x5A
	.byte	PATT
	 .word	seq_032_11 + 0x3D
	.byte	PATT
	 .word	seq_032_11 + 0x5A
	.byte	PATT
	 .word	seq_032_11 + 0x3D
	.byte	PATT
	 .word	seq_032_11 + 0x5A
	.byte	W96
	.byte	W96
	.byte	W96
	.byte	W96
	.byte	W96
	.byte	W96
	.byte	W96
	.byte	PATT
	 .word	seq_032_11 + 0xB
	.byte	W96
	.byte	W96
	.byte	W96
	.byte	W96
	.byte	W96
	.byte	W96
	.byte	W96
	.byte	PATT
	 .word	seq_032_11 + 0xB
	.byte	W96
	.byte	W96
	.byte	W96
	.byte	W96
	.byte	W96
	.byte	W96
	.byte	W96
	.byte	PATT
	 .word	seq_032_11 + 0xB
	.byte	PATT
	 .word	seq_032_11 + 0x3D
	.byte	PATT
	 .word	seq_032_11 + 0x5A
	.byte	PATT
	 .word	seq_032_11 + 0x3D
	.byte	PATT
	 .word	seq_032_11 + 0x5A
	.byte	PATT
	 .word	seq_032_11 + 0x3D
	.byte	PATT
	 .word	seq_032_11 + 0x5A
	.byte	PATT
	 .word	seq_032_11 + 0x3D
	.byte	PATT
	 .word	seq_032_11 + 0x5A
	.byte	GOTO
	 .word	seq_032_11 + 0x93
	.byte	FINE

@******************************************************@

	.align	2

seq_032:
	.byte	12	@ NumTrks
	.byte	0	@ NumBlks
	.byte	seq_032_pri	@ Priority
	.byte	seq_032_rev	@ Reverb

	.word	seq_032_grp

	.word	seq_032_0
	.word	seq_032_1
	.word	seq_032_2
	.word	seq_032_3
	.word	seq_032_4
	.word	seq_032_5
	.word	seq_032_6
	.word	seq_032_7
	.word	seq_032_8
	.word	seq_032_9
	.word	seq_032_10
	.word	seq_032_11

	.end
