@ File generated by m4a2s Song-Module
	.include "MPlayDef.s"

	.equ	seq_124_grp, bank_014
	.equ	seq_124_pri, 50
	.equ	seq_124_rev, 198
	.equ	seq_124_mvl, 127
	.equ	seq_124_key, 0

	.section .rodata
	.global	seq_124
	.align	2

@*********************** Track 01 ***********************@

seq_124_0:
	.byte	KEYSH , seq_124_key+0
	.byte	TEMPO , 240/2
	.byte		VOICE , 121
	.byte	W01
	.byte		VOL   , 63*seq_124_mvl/mxv
	.byte	W01
	.byte		PAN   , c_v+0
	.byte	W10
	.byte	TEMPO , 88/2
	.byte	W12
	.byte		N02   , As1 , v080
	.byte	W02
	.byte		        As1 , v100
	.byte	W02
	.byte		        As1 , v120
	.byte	W02
	.byte		N18   , As1 , v120
	.byte	W18
	.byte		N18
	.byte	W36
	.byte		N18
	.byte	W18
	.byte		N12
	.byte	W12
	.byte		        Fn1 
	.byte	W12
	.byte	PEND
	.byte	PATT
	 .word	seq_124_0 + 0x1A
	.byte	PATT
	 .word	seq_124_0 + 0x1A
	.byte		N18   , As1 , v120
	.byte	W18
	.byte		N18
	.byte	W36
	.byte		N06
	.byte	W06
	.byte		N12
	.byte	W12
	.byte		N12
	.byte	W12
	.byte		N06
	.byte	W06
	.byte		N02   , As1 , v080
	.byte	W02
	.byte		        As1 , v100
	.byte	W02
	.byte		        As1 , v120
	.byte	W02
	.byte		N18   , As1 , v120
	.byte	W18
	.byte		N18
	.byte	W30
	.byte		        Cs2 
	.byte	W18
	.byte		N18
	.byte	W30
	.byte	PEND
	.byte		N18   , En2 , v120
	.byte	W18
	.byte		N18
	.byte	W30
	.byte		        Gn2 
	.byte	W18
	.byte		N18
	.byte	W30
	.byte	PEND
	.byte	PATT
	 .word	seq_124_0 + 0x49
	.byte		N18   , En2 , v120
	.byte	W18
	.byte		N18
	.byte	W24
	.byte	TEMPO , 86/2
	.byte	W06
	.byte		        Gn2 
	.byte	W18
	.byte	TEMPO , 80/2
	.byte		N18
	.byte	W24
	.byte	TEMPO , 88/2
	.byte		N02   , As1 , v080
	.byte	W02
	.byte		        As1 , v100
	.byte	W02
	.byte		        As1 , v120
	.byte	W02
	.byte	PATT
	 .word	seq_124_0 + 0x1A
	.byte	PATT
	 .word	seq_124_0 + 0x1A
	.byte	PATT
	 .word	seq_124_0 + 0x1A
	.byte		N18   , As1 , v120
	.byte	W18
	.byte		N18
	.byte	W36
	.byte		N18
	.byte	W18
	.byte		N12
	.byte	W12
	.byte		N06
	.byte	W06
	.byte		N02   , As1 , v080
	.byte	W02
	.byte		        As1 , v100
	.byte	W02
	.byte		        As1 , v120
	.byte	W02
	.byte		N18   , As1 , v120
	.byte	W18
	.byte		N18
	.byte	W36
	.byte		N18
	.byte	W18
	.byte		N18
	.byte	W24
	.byte	PEND
	.byte	PATT
	 .word	seq_124_0 + 0xA4
	.byte	PATT
	 .word	seq_124_0 + 0xA4
	.byte	PATT
	 .word	seq_124_0 + 0x1A
	.byte	PATT
	 .word	seq_124_0 + 0xA4
	.byte	PATT
	 .word	seq_124_0 + 0xA4
	.byte	PATT
	 .word	seq_124_0 + 0xA4
	.byte	PATT
	 .word	seq_124_0 + 0x1A
	.byte		N18   , An1 , v120
	.byte	W18
	.byte		N18
	.byte	W36
	.byte		N18
	.byte	W18
	.byte		N18
	.byte	W24
	.byte	PEND
	.byte	PATT
	 .word	seq_124_0 + 0xD2
	.byte	PATT
	 .word	seq_124_0 + 0xD2
	.byte		N18   , An1 , v120
	.byte	W18
	.byte		N18
	.byte	W36
	.byte		N18
	.byte	W18
	.byte		N12
	.byte	W12
	.byte		        En1 
	.byte	W12
	.byte	PATT
	 .word	seq_124_0 + 0xA4
	.byte	PATT
	 .word	seq_124_0 + 0xA4
	.byte	PATT
	 .word	seq_124_0 + 0xA4
	.byte		N18   , As1 , v120
	.byte	W18
	.byte		N18
	.byte	W24
	.byte		N02   , As1 , v080
	.byte	W02
	.byte		        As1 , v100
	.byte	W02
	.byte		        As1 , v120
	.byte	W02
	.byte		N06   , As1 , v060
	.byte	W06
	.byte		N03   , As1 , v120
	.byte	W03
	.byte		        As1 , v060
	.byte	W03
	.byte		N06   , As1 , v120
	.byte	W06
	.byte		        As1 , v060
	.byte	W06
	.byte		N12   , As1 , v120
	.byte	W12
	.byte		        Fn1 
	.byte	W12
	.byte	PATT
	 .word	seq_124_0 + 0xA4
	.byte	PATT
	 .word	seq_124_0 + 0xA4
	.byte	PATT
	 .word	seq_124_0 + 0xA4
	.byte	PATT
	 .word	seq_124_0 + 0x1A
	.byte	PATT
	 .word	seq_124_0 + 0xA4
	.byte	PATT
	 .word	seq_124_0 + 0xA4
	.byte	PATT
	 .word	seq_124_0 + 0xA4
	.byte	PATT
	 .word	seq_124_0 + 0x1A
	.byte		N18   , Bn1 , v120
	.byte	W18
	.byte		N18
	.byte	W36
	.byte		N18
	.byte	W18
	.byte		N18
	.byte	W24
	.byte	PEND
	.byte	PATT
	 .word	seq_124_0 + 0x152
	.byte	PATT
	 .word	seq_124_0 + 0x152
	.byte		N18   , Bn1 , v120
	.byte	W18
	.byte		N18
	.byte	W24
	.byte		N02   , Bn1 , v080
	.byte	W02
	.byte		        Bn1 , v100
	.byte	W02
	.byte		        Bn1 , v120
	.byte	W02
	.byte		N06   , Bn1 , v060
	.byte	W06
	.byte		N03   , Bn1 , v120
	.byte	W03
	.byte		        Bn1 , v060
	.byte	W03
	.byte		N06   , Bn1 , v120
	.byte	W06
	.byte		        Bn1 , v060
	.byte	W06
	.byte		N12   , Bn1 , v120
	.byte	W12
	.byte		        Fs1 
	.byte	W12
	.byte	PATT
	 .word	seq_124_0 + 0x49
	.byte	PATT
	 .word	seq_124_0 + 0x54
	.byte	PATT
	 .word	seq_124_0 + 0x49
	.byte	PATT
	 .word	seq_124_0 + 0x54
	.byte	PATT
	 .word	seq_124_0 + 0x49
	.byte	PATT
	 .word	seq_124_0 + 0x54
	.byte	PATT
	 .word	seq_124_0 + 0x49
	.byte	PATT
	 .word	seq_124_0 + 0x54
	.byte	W06
	.byte		N18   , As1 , v120
	.byte	W12
	.byte	TEMPO , 80/2
	.byte	W06
	.byte		N02   , As1 , v100
	.byte	W02
	.byte		        As1 , v080
	.byte	W02
	.byte		        As1 , v060
	.byte	W02
	.byte		        As1 , v040
	.byte	W02
	.byte		        As1 , v060
	.byte	W02
	.byte		N02
	.byte	W02
	.byte		        As1 , v080
	.byte	W02
	.byte		        As1 , v100
	.byte	W02
	.byte		N02
	.byte	W02
	.byte	TEMPO , 88/2
	.byte		N02
	.byte	W02
	.byte		N02
	.byte	W02
	.byte		N02
	.byte	W02
	.byte		N18   , As1 , v120
	.byte	W18
	.byte	TEMPO , 84/2
	.byte		N18
	.byte	W24
	.byte	TEMPO , 88/2
	.byte	W12
	.byte		N18
	.byte	W18
	.byte		N12
	.byte	W12
	.byte		        Fn1 
	.byte	W12
	.byte	PATT
	 .word	seq_124_0 + 0x1A
	.byte	PATT
	 .word	seq_124_0 + 0x1A
	.byte	PATT
	 .word	seq_124_0 + 0x1A
	.byte	GOTO
	 .word	seq_124_0 + 0x7F
	.byte	FINE

@*********************** Track 02 ***********************@

seq_124_1:
	.byte	KEYSH , seq_124_key+0
	.byte		VOICE , 12
	.byte	W01
	.byte		VOL   , 7*seq_124_mvl/mxv
	.byte	W01
	.byte		PAN   , c_v-24
	.byte	W01
	.byte		LFOS  , 30
	.byte	W01
	.byte		MODT  , mod_pan
	.byte	W01
	.byte		LFODL , 0
	.byte	W01
	.byte		MOD   , 40
	.byte	W18
	.byte	W06
	.byte		N06   , Fn3 , v100
	.byte	W05
	.byte		VOL   , 14*seq_124_mvl/mxv
	.byte	W01
	.byte		N06   , Fs3 
	.byte	W06
	.byte		        Fn3 
	.byte	W06
	.byte		        Fs3 
	.byte	W03
	.byte		VOL   , 21*seq_124_mvl/mxv
	.byte	W03
	.byte		N06   , Fn3 
	.byte	W06
	.byte		        Fs3 
	.byte	W04
	.byte		VOL   , 28*seq_124_mvl/mxv
	.byte	W02
	.byte		N06   , Fn3 
	.byte	W04
	.byte		VOL   , 35*seq_124_mvl/mxv
	.byte	W02
	.byte		N06   , Fs3 
	.byte	W05
	.byte		VOL   , 42*seq_124_mvl/mxv
	.byte	W01
	.byte		N06   , Fn3 
	.byte	W06
	.byte		        Fs3 
	.byte	W01
	.byte		VOL   , 49*seq_124_mvl/mxv
	.byte	W03
	.byte		        56*seq_124_mvl/mxv
	.byte	W02
	.byte		N06   , Fn3 
	.byte	W03
	.byte		VOL   , 63*seq_124_mvl/mxv
	.byte	W03
	.byte		N06   , Fs3 
	.byte	W01
	.byte		VOL   , 56*seq_124_mvl/mxv
	.byte	W04
	.byte		        49*seq_124_mvl/mxv
	.byte	W01
	.byte		N06   , Fn3 
	.byte	W03
	.byte		VOL   , 42*seq_124_mvl/mxv
	.byte	W03
	.byte		N06   , Fs3 
	.byte	W01
	.byte		VOL   , 35*seq_124_mvl/mxv
	.byte	W03
	.byte		        28*seq_124_mvl/mxv
	.byte	W02
	.byte		N06   , Fn3 
	.byte	W03
	.byte		VOL   , 21*seq_124_mvl/mxv
	.byte	W03
	.byte		N06   , Fs3 
	.byte	W02
	.byte		VOL   , 14*seq_124_mvl/mxv
	.byte	W03
	.byte		        7*seq_124_mvl/mxv
	.byte	W01
	.byte	PEND
	.byte		N06   , Gs3 , v100
	.byte	W05
	.byte		VOL   , 14*seq_124_mvl/mxv
	.byte	W01
	.byte		N06   , An3 
	.byte	W06
	.byte		        Gs3 
	.byte	W06
	.byte		        An3 
	.byte	W03
	.byte		VOL   , 21*seq_124_mvl/mxv
	.byte	W03
	.byte		N06   , Gs3 
	.byte	W06
	.byte		        An3 
	.byte	W04
	.byte		VOL   , 28*seq_124_mvl/mxv
	.byte	W02
	.byte		N06   , Gs3 
	.byte	W04
	.byte		VOL   , 35*seq_124_mvl/mxv
	.byte	W02
	.byte		N06   , An3 
	.byte	W05
	.byte		VOL   , 42*seq_124_mvl/mxv
	.byte	W01
	.byte		N06   , Gs3 
	.byte	W05
	.byte		VOL   , 49*seq_124_mvl/mxv
	.byte	W01
	.byte		N06   , An3 
	.byte	W04
	.byte		VOL   , 56*seq_124_mvl/mxv
	.byte	W02
	.byte		N06   , Gs3 
	.byte	W03
	.byte		VOL   , 63*seq_124_mvl/mxv
	.byte	W03
	.byte		N06   , An3 
	.byte	W01
	.byte		VOL   , 56*seq_124_mvl/mxv
	.byte	W04
	.byte		        49*seq_124_mvl/mxv
	.byte	W01
	.byte		N06   , Gs3 
	.byte	W03
	.byte		VOL   , 42*seq_124_mvl/mxv
	.byte	W03
	.byte		N06   , An3 
	.byte	W01
	.byte		VOL   , 35*seq_124_mvl/mxv
	.byte	W03
	.byte		        28*seq_124_mvl/mxv
	.byte	W02
	.byte		N06   , Gs3 
	.byte	W03
	.byte		VOL   , 21*seq_124_mvl/mxv
	.byte	W03
	.byte		N06   , An3 
	.byte	W02
	.byte		VOL   , 14*seq_124_mvl/mxv
	.byte	W03
	.byte		        7*seq_124_mvl/mxv
	.byte	W01
	.byte	PEND
	.byte	PATT
	 .word	seq_124_1 + 0x18
	.byte	PATT
	 .word	seq_124_1 + 0x72
	.byte		N06   , Fn3 , v100
	.byte	W05
	.byte		VOL   , 21*seq_124_mvl/mxv
	.byte	W01
	.byte		N06   , Fs3 
	.byte	W06
	.byte		        Fn3 
	.byte	W06
	.byte		        Fs3 
	.byte	W03
	.byte		VOL   , 28*seq_124_mvl/mxv
	.byte	W03
	.byte		N06   , Fn3 
	.byte	W06
	.byte		        Fs3 
	.byte	W04
	.byte		VOL   , 35*seq_124_mvl/mxv
	.byte	W02
	.byte		N06   , Fn3 
	.byte	W04
	.byte		VOL   , 42*seq_124_mvl/mxv
	.byte	W02
	.byte		N06   , Fs3 
	.byte	W05
	.byte		VOL   , 49*seq_124_mvl/mxv
	.byte	W01
	.byte		N06   , Gs3 
	.byte	W06
	.byte		        An3 
	.byte	W01
	.byte		VOL   , 56*seq_124_mvl/mxv
	.byte	W03
	.byte		        63*seq_124_mvl/mxv
	.byte	W02
	.byte		N06   , Gs3 
	.byte	W03
	.byte		VOL   , 70*seq_124_mvl/mxv
	.byte	W03
	.byte		N06   , An3 
	.byte	W01
	.byte		VOL   , 63*seq_124_mvl/mxv
	.byte	W04
	.byte		        56*seq_124_mvl/mxv
	.byte	W01
	.byte		N06   , Gs3 
	.byte	W03
	.byte		VOL   , 49*seq_124_mvl/mxv
	.byte	W03
	.byte		N06   , An3 
	.byte	W01
	.byte		VOL   , 42*seq_124_mvl/mxv
	.byte	W03
	.byte		        35*seq_124_mvl/mxv
	.byte	W02
	.byte		N06   , Gs3 
	.byte	W03
	.byte		VOL   , 28*seq_124_mvl/mxv
	.byte	W03
	.byte		N06   , An3 
	.byte	W02
	.byte		VOL   , 21*seq_124_mvl/mxv
	.byte	W03
	.byte		        14*seq_124_mvl/mxv
	.byte	W01
	.byte	PEND
	.byte		N06   , Dn3 , v100
	.byte	W05
	.byte		VOL   , 21*seq_124_mvl/mxv
	.byte	W01
	.byte		N06   , Ds3 
	.byte	W06
	.byte		        Dn3 
	.byte	W06
	.byte		        Ds3 
	.byte	W03
	.byte		VOL   , 28*seq_124_mvl/mxv
	.byte	W03
	.byte		N06   , Dn3 
	.byte	W06
	.byte		        Ds3 
	.byte	W04
	.byte		VOL   , 35*seq_124_mvl/mxv
	.byte	W02
	.byte		N06   , Dn3 
	.byte	W04
	.byte		VOL   , 42*seq_124_mvl/mxv
	.byte	W02
	.byte		N06   , Ds3 
	.byte	W05
	.byte		VOL   , 49*seq_124_mvl/mxv
	.byte	W01
	.byte		N06   , Fn3 
	.byte	W06
	.byte		VOL   , 56*seq_124_mvl/mxv
	.byte		N06   , Fs3 
	.byte	W04
	.byte		VOL   , 63*seq_124_mvl/mxv
	.byte	W02
	.byte		N06   , Fn3 
	.byte	W03
	.byte		VOL   , 70*seq_124_mvl/mxv
	.byte	W03
	.byte		N06   , Fs3 
	.byte	W01
	.byte		VOL   , 63*seq_124_mvl/mxv
	.byte	W04
	.byte		        56*seq_124_mvl/mxv
	.byte	W01
	.byte		N06   , Fn3 
	.byte	W03
	.byte		VOL   , 49*seq_124_mvl/mxv
	.byte	W03
	.byte		N06   , Fs3 
	.byte	W01
	.byte		VOL   , 42*seq_124_mvl/mxv
	.byte	W03
	.byte		        35*seq_124_mvl/mxv
	.byte	W02
	.byte		N06   , Fn3 
	.byte	W03
	.byte		VOL   , 28*seq_124_mvl/mxv
	.byte	W03
	.byte		N06   , Fs3 
	.byte	W02
	.byte		VOL   , 21*seq_124_mvl/mxv
	.byte	W03
	.byte		        14*seq_124_mvl/mxv
	.byte	W01
	.byte	PEND
	.byte	PATT
	 .word	seq_124_1 + 0xD8
	.byte	PATT
	 .word	seq_124_1 + 0x132
	.byte	PATT
	 .word	seq_124_1 + 0x18
	.byte	PATT
	 .word	seq_124_1 + 0x72
	.byte	PATT
	 .word	seq_124_1 + 0x18
	.byte	PATT
	 .word	seq_124_1 + 0x72
	.byte	W96
	.byte	W96
	.byte	PATT
	 .word	seq_124_1 + 0x18
	.byte	PATT
	 .word	seq_124_1 + 0x72
	.byte	W96
	.byte	W96
	.byte	PATT
	 .word	seq_124_1 + 0x18
	.byte	PATT
	 .word	seq_124_1 + 0x72
	.byte	W96
	.byte	W96
	.byte		N06   , En3 , v100
	.byte	W05
	.byte		VOL   , 14*seq_124_mvl/mxv
	.byte	W01
	.byte		N06   , Fn3 
	.byte	W06
	.byte		        En3 
	.byte	W06
	.byte		        Fn3 
	.byte	W03
	.byte		VOL   , 21*seq_124_mvl/mxv
	.byte	W03
	.byte		N06   , En3 
	.byte	W06
	.byte		        Fn3 
	.byte	W04
	.byte		VOL   , 28*seq_124_mvl/mxv
	.byte	W02
	.byte		N06   , En3 
	.byte	W04
	.byte		VOL   , 35*seq_124_mvl/mxv
	.byte	W02
	.byte		N06   , Fn3 
	.byte	W05
	.byte		VOL   , 42*seq_124_mvl/mxv
	.byte	W01
	.byte		N06   , En3 
	.byte	W06
	.byte		        Fn3 
	.byte	W01
	.byte		VOL   , 49*seq_124_mvl/mxv
	.byte	W03
	.byte		        56*seq_124_mvl/mxv
	.byte	W02
	.byte		N06   , En3 
	.byte	W03
	.byte		VOL   , 63*seq_124_mvl/mxv
	.byte	W03
	.byte		N06   , Fn3 
	.byte	W01
	.byte		VOL   , 56*seq_124_mvl/mxv
	.byte	W04
	.byte		        49*seq_124_mvl/mxv
	.byte	W01
	.byte		N06   , En3 
	.byte	W03
	.byte		VOL   , 42*seq_124_mvl/mxv
	.byte	W03
	.byte		N06   , Fn3 
	.byte	W01
	.byte		VOL   , 35*seq_124_mvl/mxv
	.byte	W03
	.byte		        28*seq_124_mvl/mxv
	.byte	W02
	.byte		N06   , En3 
	.byte	W03
	.byte		VOL   , 21*seq_124_mvl/mxv
	.byte	W03
	.byte		N06   , Fn3 
	.byte	W02
	.byte		VOL   , 14*seq_124_mvl/mxv
	.byte	W03
	.byte		        7*seq_124_mvl/mxv
	.byte	W01
	.byte		N06   , Gn3 
	.byte	W05
	.byte		VOL   , 14*seq_124_mvl/mxv
	.byte	W01
	.byte		N06   , Gs3 
	.byte	W06
	.byte		        Gn3 
	.byte	W06
	.byte		        Gs3 
	.byte	W03
	.byte		VOL   , 21*seq_124_mvl/mxv
	.byte	W03
	.byte		N06   , Gn3 
	.byte	W06
	.byte		        Gs3 
	.byte	W04
	.byte		VOL   , 28*seq_124_mvl/mxv
	.byte	W02
	.byte		N06   , Gn3 
	.byte	W04
	.byte		VOL   , 35*seq_124_mvl/mxv
	.byte	W02
	.byte		N06   , Gs3 
	.byte	W05
	.byte		VOL   , 42*seq_124_mvl/mxv
	.byte	W01
	.byte		N06   , Gn3 
	.byte	W05
	.byte		VOL   , 49*seq_124_mvl/mxv
	.byte	W01
	.byte		N06   , Gs3 
	.byte	W04
	.byte		VOL   , 56*seq_124_mvl/mxv
	.byte	W02
	.byte		N06   , Gn3 
	.byte	W03
	.byte		VOL   , 63*seq_124_mvl/mxv
	.byte	W03
	.byte		N06   , Gs3 
	.byte	W01
	.byte		VOL   , 56*seq_124_mvl/mxv
	.byte	W04
	.byte		        49*seq_124_mvl/mxv
	.byte	W01
	.byte		N06   , Gn3 
	.byte	W03
	.byte		VOL   , 42*seq_124_mvl/mxv
	.byte	W03
	.byte		N06   , Gs3 
	.byte	W01
	.byte		VOL   , 35*seq_124_mvl/mxv
	.byte	W03
	.byte		        28*seq_124_mvl/mxv
	.byte	W02
	.byte		N06   , Gn3 
	.byte	W03
	.byte		VOL   , 21*seq_124_mvl/mxv
	.byte	W03
	.byte		N06   , Gs3 
	.byte	W02
	.byte		VOL   , 14*seq_124_mvl/mxv
	.byte	W03
	.byte		        7*seq_124_mvl/mxv
	.byte	W01
	.byte	W96
	.byte	W96
	.byte	PATT
	 .word	seq_124_1 + 0x18
	.byte	PATT
	 .word	seq_124_1 + 0x72
	.byte	W05
	.byte		VOL   , 70*seq_124_mvl/mxv
	.byte	W01
	.byte		N03   , Fn2 , v120
	.byte	W03
	.byte		        Fn2 , v060
	.byte	W09
	.byte		        Fn3 , v120
	.byte	W03
	.byte		        Fn3 , v060
	.byte	W21
	.byte		        Ds3 , v120
	.byte	W03
	.byte		        Ds3 , v060
	.byte	W21
	.byte		        Cs3 , v120
	.byte	W03
	.byte		        Cs3 , v060
	.byte	W21
	.byte		        Cn3 , v120
	.byte	W03
	.byte		        Cn3 , v060
	.byte	W03
	.byte	PEND
	.byte	W18
	.byte		N03   , As2 , v120
	.byte	W03
	.byte		        As2 , v060
	.byte	W21
	.byte		        Gs2 , v120
	.byte	W03
	.byte		        Gs2 , v060
	.byte	W15
	.byte		        Gs1 , v120
	.byte	W03
	.byte		        Gs1 , v060
	.byte	W09
	.byte		        As1 , v120
	.byte	W03
	.byte		        As1 , v060
	.byte	W09
	.byte		        En1 , v120
	.byte	W03
	.byte		        En1 , v060
	.byte	W09
	.byte	PEND
	.byte	PATT
	 .word	seq_124_1 + 0x18
	.byte	PATT
	 .word	seq_124_1 + 0x72
	.byte	PATT
	 .word	seq_124_1 + 0x284
	.byte	PATT
	 .word	seq_124_1 + 0x2A8
	.byte	PATT
	 .word	seq_124_1 + 0x18
	.byte	PATT
	 .word	seq_124_1 + 0x72
	.byte	W96
	.byte	W96
	.byte		N06   , Fs3 , v100
	.byte	W05
	.byte		VOL   , 14*seq_124_mvl/mxv
	.byte	W01
	.byte		N06   , Gn3 
	.byte	W06
	.byte		        Fs3 
	.byte	W06
	.byte		        Gn3 
	.byte	W03
	.byte		VOL   , 21*seq_124_mvl/mxv
	.byte	W03
	.byte		N06   , Fs3 
	.byte	W06
	.byte		        Gn3 
	.byte	W04
	.byte		VOL   , 28*seq_124_mvl/mxv
	.byte	W02
	.byte		N06   , Fs3 
	.byte	W04
	.byte		VOL   , 35*seq_124_mvl/mxv
	.byte	W02
	.byte		N06   , Gn3 
	.byte	W05
	.byte		VOL   , 42*seq_124_mvl/mxv
	.byte	W01
	.byte		N06   , Fs3 
	.byte	W06
	.byte		        Gn3 
	.byte	W01
	.byte		VOL   , 49*seq_124_mvl/mxv
	.byte	W03
	.byte		        56*seq_124_mvl/mxv
	.byte	W02
	.byte		N06   , Fs3 
	.byte	W03
	.byte		VOL   , 63*seq_124_mvl/mxv
	.byte	W03
	.byte		N06   , Gn3 
	.byte	W01
	.byte		VOL   , 56*seq_124_mvl/mxv
	.byte	W04
	.byte		        49*seq_124_mvl/mxv
	.byte	W01
	.byte		N06   , Fs3 
	.byte	W03
	.byte		VOL   , 42*seq_124_mvl/mxv
	.byte	W03
	.byte		N06   , Gn3 
	.byte	W01
	.byte		VOL   , 35*seq_124_mvl/mxv
	.byte	W03
	.byte		        28*seq_124_mvl/mxv
	.byte	W02
	.byte		N06   , Fs3 
	.byte	W03
	.byte		VOL   , 21*seq_124_mvl/mxv
	.byte	W03
	.byte		N06   , Gn3 
	.byte	W02
	.byte		VOL   , 14*seq_124_mvl/mxv
	.byte	W03
	.byte		        7*seq_124_mvl/mxv
	.byte	W01
	.byte		N06   , An3 
	.byte	W05
	.byte		VOL   , 14*seq_124_mvl/mxv
	.byte	W01
	.byte		N06   , As3 
	.byte	W06
	.byte		        An3 
	.byte	W06
	.byte		        As3 
	.byte	W03
	.byte		VOL   , 21*seq_124_mvl/mxv
	.byte	W03
	.byte		N06   , An3 
	.byte	W06
	.byte		        As3 
	.byte	W04
	.byte		VOL   , 28*seq_124_mvl/mxv
	.byte	W02
	.byte		N06   , An3 
	.byte	W04
	.byte		VOL   , 35*seq_124_mvl/mxv
	.byte	W02
	.byte		N06   , As3 
	.byte	W05
	.byte		VOL   , 42*seq_124_mvl/mxv
	.byte	W01
	.byte		N06   , An3 
	.byte	W05
	.byte		VOL   , 49*seq_124_mvl/mxv
	.byte	W01
	.byte		N06   , As3 
	.byte	W04
	.byte		VOL   , 56*seq_124_mvl/mxv
	.byte	W02
	.byte		N06   , An3 
	.byte	W03
	.byte		VOL   , 63*seq_124_mvl/mxv
	.byte	W03
	.byte		N06   , As3 
	.byte	W01
	.byte		VOL   , 56*seq_124_mvl/mxv
	.byte	W04
	.byte		        49*seq_124_mvl/mxv
	.byte	W01
	.byte		N06   , An3 
	.byte	W03
	.byte		VOL   , 42*seq_124_mvl/mxv
	.byte	W03
	.byte		N06   , As3 
	.byte	W01
	.byte		VOL   , 35*seq_124_mvl/mxv
	.byte	W03
	.byte		        28*seq_124_mvl/mxv
	.byte	W02
	.byte		N06   , An3 
	.byte	W03
	.byte		VOL   , 21*seq_124_mvl/mxv
	.byte	W03
	.byte		N06   , As3 
	.byte	W02
	.byte		VOL   , 14*seq_124_mvl/mxv
	.byte	W03
	.byte		        7*seq_124_mvl/mxv
	.byte	W01
	.byte	PATT
	 .word	seq_124_1 + 0xD8
	.byte	PATT
	 .word	seq_124_1 + 0x132
	.byte	PATT
	 .word	seq_124_1 + 0xD8
	.byte	PATT
	 .word	seq_124_1 + 0x132
	.byte	PATT
	 .word	seq_124_1 + 0xD8
	.byte	PATT
	 .word	seq_124_1 + 0x132
	.byte	PATT
	 .word	seq_124_1 + 0xD8
	.byte	PATT
	 .word	seq_124_1 + 0x132
	.byte	W48
	.byte		N06   , Fn3 , v100
	.byte	W05
	.byte		VOL   , 21*seq_124_mvl/mxv
	.byte	W01
	.byte		N06   , Fs3 
	.byte	W06
	.byte		        Fn3 
	.byte	W06
	.byte		        Fs3 
	.byte	W03
	.byte		VOL   , 28*seq_124_mvl/mxv
	.byte	W03
	.byte		N06   , Fn3 
	.byte	W06
	.byte		        Fs3 
	.byte	W04
	.byte		VOL   , 35*seq_124_mvl/mxv
	.byte	W02
	.byte		N06   , Fn3 
	.byte	W04
	.byte		VOL   , 42*seq_124_mvl/mxv
	.byte	W02
	.byte		N06   , Fs3 
	.byte	W05
	.byte		VOL   , 49*seq_124_mvl/mxv
	.byte	W01
	.byte		N06   , Fn3 
	.byte	W06
	.byte		        Fs3 
	.byte	W01
	.byte		VOL   , 56*seq_124_mvl/mxv
	.byte	W03
	.byte		        63*seq_124_mvl/mxv
	.byte	W02
	.byte		N06   , Fn3 
	.byte	W03
	.byte		VOL   , 70*seq_124_mvl/mxv
	.byte	W03
	.byte		N06   , Fs3 
	.byte	W01
	.byte		VOL   , 63*seq_124_mvl/mxv
	.byte	W04
	.byte		        56*seq_124_mvl/mxv
	.byte	W01
	.byte		N06   , Fn3 
	.byte	W03
	.byte		VOL   , 49*seq_124_mvl/mxv
	.byte	W03
	.byte		N06   , Fs3 
	.byte	W01
	.byte		VOL   , 42*seq_124_mvl/mxv
	.byte	W03
	.byte		        35*seq_124_mvl/mxv
	.byte	W02
	.byte		N06   , Fn3 
	.byte	W03
	.byte		VOL   , 28*seq_124_mvl/mxv
	.byte	W03
	.byte		N06   , Fs3 
	.byte	W02
	.byte		VOL   , 21*seq_124_mvl/mxv
	.byte	W03
	.byte		        14*seq_124_mvl/mxv
	.byte	W01
	.byte		N06   , Gs3 
	.byte	W05
	.byte		VOL   , 21*seq_124_mvl/mxv
	.byte	W01
	.byte		N06   , An3 
	.byte	W06
	.byte		        Gs3 
	.byte	W06
	.byte		        An3 
	.byte	W03
	.byte		VOL   , 28*seq_124_mvl/mxv
	.byte	W03
	.byte		N06   , Gs3 
	.byte	W06
	.byte		        An3 
	.byte	W04
	.byte		VOL   , 35*seq_124_mvl/mxv
	.byte	W02
	.byte		N06   , Gs3 
	.byte	W04
	.byte		VOL   , 42*seq_124_mvl/mxv
	.byte	W02
	.byte		N06   , An3 
	.byte	W05
	.byte		VOL   , 49*seq_124_mvl/mxv
	.byte	W01
	.byte		N06   , Gs3 
	.byte	W05
	.byte		VOL   , 56*seq_124_mvl/mxv
	.byte	W01
	.byte		N06   , An3 
	.byte	W04
	.byte		VOL   , 63*seq_124_mvl/mxv
	.byte	W02
	.byte		N06   , Gs3 
	.byte	W03
	.byte		VOL   , 70*seq_124_mvl/mxv
	.byte	W03
	.byte		N06   , An3 
	.byte	W01
	.byte		VOL   , 63*seq_124_mvl/mxv
	.byte	W04
	.byte		        56*seq_124_mvl/mxv
	.byte	W01
	.byte		N06   , Gs3 
	.byte	W03
	.byte		VOL   , 49*seq_124_mvl/mxv
	.byte	W03
	.byte		N06   , An3 
	.byte	W01
	.byte		VOL   , 42*seq_124_mvl/mxv
	.byte	W03
	.byte		        35*seq_124_mvl/mxv
	.byte	W02
	.byte		N06   , Gs3 
	.byte	W03
	.byte		VOL   , 28*seq_124_mvl/mxv
	.byte	W03
	.byte		N06   , An3 
	.byte	W02
	.byte		VOL   , 21*seq_124_mvl/mxv
	.byte	W03
	.byte		        14*seq_124_mvl/mxv
	.byte	W01
	.byte	PATT
	 .word	seq_124_1 + 0x18
	.byte	PATT
	 .word	seq_124_1 + 0x72
	.byte	GOTO
	 .word	seq_124_1 + 0x197
	.byte	FINE

@*********************** Track 03 ***********************@

seq_124_2:
	.byte	KEYSH , seq_124_key+0
	.byte		VOICE , 12
	.byte	W01
	.byte		VOL   , 7*seq_124_mvl/mxv
	.byte	W01
	.byte		PAN   , c_v+36
	.byte	W01
	.byte		LFOS  , 20
	.byte	W01
	.byte		MODT  , mod_pan
	.byte	W01
	.byte		BENDR , 0
	.byte	W01
	.byte		MOD   , 40
	.byte	W18
	.byte	W06
	.byte		N06   , Gs2 , v100
	.byte	W05
	.byte		VOL   , 14*seq_124_mvl/mxv
	.byte	W01
	.byte		N06   , An2 
	.byte	W06
	.byte		        Gs2 
	.byte	W06
	.byte		        An2 
	.byte	W03
	.byte		VOL   , 21*seq_124_mvl/mxv
	.byte	W03
	.byte		N06   , Gs2 
	.byte	W06
	.byte		        An2 
	.byte	W04
	.byte		VOL   , 28*seq_124_mvl/mxv
	.byte	W02
	.byte		N06   , Gs2 
	.byte	W04
	.byte		VOL   , 35*seq_124_mvl/mxv
	.byte	W02
	.byte		N06   , An2 
	.byte	W05
	.byte		VOL   , 42*seq_124_mvl/mxv
	.byte	W01
	.byte		N06   , Gs2 
	.byte	W06
	.byte		        An2 
	.byte	W01
	.byte		VOL   , 49*seq_124_mvl/mxv
	.byte	W03
	.byte		        56*seq_124_mvl/mxv
	.byte	W02
	.byte		N06   , Gs2 
	.byte	W03
	.byte		VOL   , 63*seq_124_mvl/mxv
	.byte	W03
	.byte		N06   , An2 
	.byte	W01
	.byte		VOL   , 56*seq_124_mvl/mxv
	.byte	W04
	.byte		        49*seq_124_mvl/mxv
	.byte	W01
	.byte		N06   , Gs2 
	.byte	W03
	.byte		VOL   , 42*seq_124_mvl/mxv
	.byte	W03
	.byte		N06   , An2 
	.byte	W01
	.byte		VOL   , 35*seq_124_mvl/mxv
	.byte	W03
	.byte		        28*seq_124_mvl/mxv
	.byte	W02
	.byte		N06   , Gs2 
	.byte	W03
	.byte		VOL   , 21*seq_124_mvl/mxv
	.byte	W03
	.byte		N06   , An2 
	.byte	W02
	.byte		VOL   , 14*seq_124_mvl/mxv
	.byte	W03
	.byte		        7*seq_124_mvl/mxv
	.byte	W01
	.byte	PEND
	.byte		N06   , Cs3 , v100
	.byte	W05
	.byte		VOL   , 14*seq_124_mvl/mxv
	.byte	W01
	.byte		N06   , Dn3 
	.byte	W06
	.byte		        Cs3 
	.byte	W06
	.byte		        Dn3 
	.byte	W03
	.byte		VOL   , 21*seq_124_mvl/mxv
	.byte	W03
	.byte		N06   , Cs3 
	.byte	W06
	.byte		        Dn3 
	.byte	W04
	.byte		VOL   , 28*seq_124_mvl/mxv
	.byte	W02
	.byte		N06   , Cs3 
	.byte	W04
	.byte		VOL   , 35*seq_124_mvl/mxv
	.byte	W02
	.byte		N06   , Dn3 
	.byte	W05
	.byte		VOL   , 42*seq_124_mvl/mxv
	.byte	W01
	.byte		N06   , Cs3 
	.byte	W05
	.byte		VOL   , 49*seq_124_mvl/mxv
	.byte	W01
	.byte		N06   , Dn3 
	.byte	W04
	.byte		VOL   , 56*seq_124_mvl/mxv
	.byte	W02
	.byte		N06   , Cs3 
	.byte	W03
	.byte		VOL   , 63*seq_124_mvl/mxv
	.byte	W03
	.byte		N06   , Dn3 
	.byte	W01
	.byte		VOL   , 56*seq_124_mvl/mxv
	.byte	W04
	.byte		        49*seq_124_mvl/mxv
	.byte	W01
	.byte		N06   , Cs3 
	.byte	W03
	.byte		VOL   , 42*seq_124_mvl/mxv
	.byte	W03
	.byte		N06   , Dn3 
	.byte	W01
	.byte		VOL   , 35*seq_124_mvl/mxv
	.byte	W03
	.byte		        28*seq_124_mvl/mxv
	.byte	W02
	.byte		N06   , Cs3 
	.byte	W03
	.byte		VOL   , 21*seq_124_mvl/mxv
	.byte	W03
	.byte		N06   , Dn3 
	.byte	W02
	.byte		VOL   , 14*seq_124_mvl/mxv
	.byte	W03
	.byte		        7*seq_124_mvl/mxv
	.byte	W01
	.byte	PEND
	.byte	PATT
	 .word	seq_124_2 + 0x18
	.byte	PATT
	 .word	seq_124_2 + 0x72
	.byte		N06   , Gs2 , v100
	.byte	W05
	.byte		VOL   , 21*seq_124_mvl/mxv
	.byte	W01
	.byte		N06   , An2 
	.byte	W06
	.byte		        Gs2 
	.byte	W06
	.byte		        An2 
	.byte	W03
	.byte		VOL   , 28*seq_124_mvl/mxv
	.byte	W03
	.byte		N06   , Gs2 
	.byte	W06
	.byte		        An2 
	.byte	W04
	.byte		VOL   , 35*seq_124_mvl/mxv
	.byte	W02
	.byte		N06   , Gs2 
	.byte	W04
	.byte		VOL   , 42*seq_124_mvl/mxv
	.byte	W02
	.byte		N06   , An2 
	.byte	W05
	.byte		VOL   , 49*seq_124_mvl/mxv
	.byte	W01
	.byte		N06   , Bn2 
	.byte	W06
	.byte		        Cn3 
	.byte	W01
	.byte		VOL   , 56*seq_124_mvl/mxv
	.byte	W03
	.byte		        63*seq_124_mvl/mxv
	.byte	W02
	.byte		N06   , Bn2 
	.byte	W03
	.byte		VOL   , 70*seq_124_mvl/mxv
	.byte	W03
	.byte		N06   , Cn3 
	.byte	W01
	.byte		VOL   , 63*seq_124_mvl/mxv
	.byte	W04
	.byte		        56*seq_124_mvl/mxv
	.byte	W01
	.byte		N06   , Bn2 
	.byte	W03
	.byte		VOL   , 49*seq_124_mvl/mxv
	.byte	W03
	.byte		N06   , Cn3 
	.byte	W01
	.byte		VOL   , 42*seq_124_mvl/mxv
	.byte	W03
	.byte		        35*seq_124_mvl/mxv
	.byte	W02
	.byte		N06   , Bn2 
	.byte	W03
	.byte		VOL   , 28*seq_124_mvl/mxv
	.byte	W03
	.byte		N06   , Cn3 
	.byte	W02
	.byte		VOL   , 21*seq_124_mvl/mxv
	.byte	W03
	.byte		        14*seq_124_mvl/mxv
	.byte	W01
	.byte	PEND
	.byte		N06   , Gn2 , v100
	.byte	W05
	.byte		VOL   , 21*seq_124_mvl/mxv
	.byte	W01
	.byte		N06   , Gs2 
	.byte	W06
	.byte		        Gn2 
	.byte	W06
	.byte		        Gs2 
	.byte	W03
	.byte		VOL   , 28*seq_124_mvl/mxv
	.byte	W03
	.byte		N06   , Gn2 
	.byte	W06
	.byte		        Gs2 
	.byte	W04
	.byte		VOL   , 35*seq_124_mvl/mxv
	.byte	W02
	.byte		N06   , Gn2 
	.byte	W04
	.byte		VOL   , 42*seq_124_mvl/mxv
	.byte	W02
	.byte		N06   , Gs2 
	.byte	W05
	.byte		VOL   , 49*seq_124_mvl/mxv
	.byte	W01
	.byte		N06   , As2 
	.byte	W06
	.byte		VOL   , 56*seq_124_mvl/mxv
	.byte		N06   , Bn2 
	.byte	W04
	.byte		VOL   , 63*seq_124_mvl/mxv
	.byte	W02
	.byte		N06   , As2 
	.byte	W03
	.byte		VOL   , 70*seq_124_mvl/mxv
	.byte	W03
	.byte		N06   , Bn2 
	.byte	W01
	.byte		VOL   , 63*seq_124_mvl/mxv
	.byte	W04
	.byte		        56*seq_124_mvl/mxv
	.byte	W01
	.byte		N06   , As2 
	.byte	W03
	.byte		VOL   , 49*seq_124_mvl/mxv
	.byte	W03
	.byte		N06   , Bn2 
	.byte	W01
	.byte		VOL   , 42*seq_124_mvl/mxv
	.byte	W03
	.byte		        35*seq_124_mvl/mxv
	.byte	W02
	.byte		N06   , As2 
	.byte	W03
	.byte		VOL   , 28*seq_124_mvl/mxv
	.byte	W03
	.byte		N06   , Bn2 
	.byte	W02
	.byte		VOL   , 21*seq_124_mvl/mxv
	.byte	W03
	.byte		        14*seq_124_mvl/mxv
	.byte	W01
	.byte	PEND
	.byte	PATT
	 .word	seq_124_2 + 0xD8
	.byte	PATT
	 .word	seq_124_2 + 0x132
	.byte	PATT
	 .word	seq_124_2 + 0x18
	.byte	PATT
	 .word	seq_124_2 + 0x72
	.byte	PATT
	 .word	seq_124_2 + 0x18
	.byte	PATT
	 .word	seq_124_2 + 0x72
	.byte	W96
	.byte	W96
	.byte	PATT
	 .word	seq_124_2 + 0x18
	.byte	PATT
	 .word	seq_124_2 + 0x72
	.byte	W96
	.byte	W96
	.byte	PATT
	 .word	seq_124_2 + 0x18
	.byte	PATT
	 .word	seq_124_2 + 0x72
	.byte	W96
	.byte	W96
	.byte		N06   , Gn2 , v100
	.byte	W05
	.byte		VOL   , 14*seq_124_mvl/mxv
	.byte	W01
	.byte		N06   , Gs2 
	.byte	W06
	.byte		        Gn2 
	.byte	W06
	.byte		        Gs2 
	.byte	W03
	.byte		VOL   , 21*seq_124_mvl/mxv
	.byte	W03
	.byte		N06   , Gn2 
	.byte	W06
	.byte		        Gs2 
	.byte	W04
	.byte		VOL   , 28*seq_124_mvl/mxv
	.byte	W02
	.byte		N06   , Gn2 
	.byte	W04
	.byte		VOL   , 35*seq_124_mvl/mxv
	.byte	W02
	.byte		N06   , Gs2 
	.byte	W05
	.byte		VOL   , 42*seq_124_mvl/mxv
	.byte	W01
	.byte		N06   , Gn2 
	.byte	W06
	.byte		        Gs2 
	.byte	W01
	.byte		VOL   , 49*seq_124_mvl/mxv
	.byte	W03
	.byte		        56*seq_124_mvl/mxv
	.byte	W02
	.byte		N06   , Gn2 
	.byte	W03
	.byte		VOL   , 63*seq_124_mvl/mxv
	.byte	W03
	.byte		N06   , Gs2 
	.byte	W01
	.byte		VOL   , 56*seq_124_mvl/mxv
	.byte	W04
	.byte		        49*seq_124_mvl/mxv
	.byte	W01
	.byte		N06   , Gn2 
	.byte	W03
	.byte		VOL   , 42*seq_124_mvl/mxv
	.byte	W03
	.byte		N06   , Gs2 
	.byte	W01
	.byte		VOL   , 35*seq_124_mvl/mxv
	.byte	W03
	.byte		        28*seq_124_mvl/mxv
	.byte	W02
	.byte		N06   , Gn2 
	.byte	W03
	.byte		VOL   , 21*seq_124_mvl/mxv
	.byte	W03
	.byte		N06   , Gs2 
	.byte	W02
	.byte		VOL   , 14*seq_124_mvl/mxv
	.byte	W03
	.byte		        7*seq_124_mvl/mxv
	.byte	W01
	.byte		N06   , Cn3 
	.byte	W05
	.byte		VOL   , 14*seq_124_mvl/mxv
	.byte	W01
	.byte		N06   , Cs3 
	.byte	W06
	.byte		        Cn3 
	.byte	W06
	.byte		        Cs3 
	.byte	W03
	.byte		VOL   , 21*seq_124_mvl/mxv
	.byte	W03
	.byte		N06   , Cn3 
	.byte	W06
	.byte		        Cs3 
	.byte	W04
	.byte		VOL   , 28*seq_124_mvl/mxv
	.byte	W02
	.byte		N06   , Cn3 
	.byte	W04
	.byte		VOL   , 35*seq_124_mvl/mxv
	.byte	W02
	.byte		N06   , Cs3 
	.byte	W05
	.byte		VOL   , 42*seq_124_mvl/mxv
	.byte	W01
	.byte		N06   , Cn3 
	.byte	W05
	.byte		VOL   , 49*seq_124_mvl/mxv
	.byte	W01
	.byte		N06   , Cs3 
	.byte	W04
	.byte		VOL   , 56*seq_124_mvl/mxv
	.byte	W02
	.byte		N06   , Cn3 
	.byte	W03
	.byte		VOL   , 63*seq_124_mvl/mxv
	.byte	W03
	.byte		N06   , Cs3 
	.byte	W01
	.byte		VOL   , 56*seq_124_mvl/mxv
	.byte	W04
	.byte		        49*seq_124_mvl/mxv
	.byte	W01
	.byte		N06   , Cn3 
	.byte	W03
	.byte		VOL   , 42*seq_124_mvl/mxv
	.byte	W03
	.byte		N06   , Cs3 
	.byte	W01
	.byte		VOL   , 35*seq_124_mvl/mxv
	.byte	W03
	.byte		        28*seq_124_mvl/mxv
	.byte	W02
	.byte		N06   , Cn3 
	.byte	W03
	.byte		VOL   , 21*seq_124_mvl/mxv
	.byte	W03
	.byte		N06   , Cs3 
	.byte	W02
	.byte		VOL   , 14*seq_124_mvl/mxv
	.byte	W03
	.byte		        7*seq_124_mvl/mxv
	.byte	W01
	.byte	W96
	.byte	W96
	.byte	PATT
	 .word	seq_124_2 + 0x18
	.byte	PATT
	 .word	seq_124_2 + 0x72
	.byte	W11
	.byte		VOL   , 49*seq_124_mvl/mxv
	.byte	W01
	.byte		N03   , Fs2 , v120
	.byte	W03
	.byte		        Fs2 , v060
	.byte	W09
	.byte		N08   , Fs3 , v120
	.byte	W08
	.byte		N03   , Fs3 , v060
	.byte	W16
	.byte		N08   , Fn3 , v120
	.byte	W08
	.byte		N03   , Fn3 , v060
	.byte	W16
	.byte		N08   , Ds3 , v120
	.byte	W08
	.byte		N03   , Ds3 , v060
	.byte	W16
	.byte	PEND
	.byte		N08   , Cs3 , v120
	.byte	W08
	.byte		N03   , Cs3 , v060
	.byte	W16
	.byte		N08   , Cn3 , v120
	.byte	W08
	.byte		N03   , Cn3 , v060
	.byte	W16
	.byte		N06   , An2 , v120
	.byte	W06
	.byte		N03   , Ds2 
	.byte	W03
	.byte		        Ds2 , v060
	.byte	W09
	.byte		        An1 , v120
	.byte	W03
	.byte		        An1 , v060
	.byte	W09
	.byte		        Fn1 , v120
	.byte	W03
	.byte		        Fn1 , v060
	.byte	W09
	.byte		        Ds1 , v120
	.byte	W03
	.byte		        Ds1 , v060
	.byte	W03
	.byte	PEND
	.byte	PATT
	 .word	seq_124_2 + 0x18
	.byte	PATT
	 .word	seq_124_2 + 0x72
	.byte	PATT
	 .word	seq_124_2 + 0x284
	.byte	PATT
	 .word	seq_124_2 + 0x2A8
	.byte	PATT
	 .word	seq_124_2 + 0x18
	.byte	PATT
	 .word	seq_124_2 + 0x72
	.byte	W96
	.byte	W96
	.byte		N06   , An2 , v100
	.byte	W05
	.byte		VOL   , 14*seq_124_mvl/mxv
	.byte	W01
	.byte		N06   , As2 
	.byte	W06
	.byte		        An2 
	.byte	W06
	.byte		        As2 
	.byte	W03
	.byte		VOL   , 21*seq_124_mvl/mxv
	.byte	W03
	.byte		N06   , An2 
	.byte	W06
	.byte		        As2 
	.byte	W04
	.byte		VOL   , 28*seq_124_mvl/mxv
	.byte	W02
	.byte		N06   , An2 
	.byte	W04
	.byte		VOL   , 35*seq_124_mvl/mxv
	.byte	W02
	.byte		N06   , As2 
	.byte	W05
	.byte		VOL   , 42*seq_124_mvl/mxv
	.byte	W01
	.byte		N06   , An2 
	.byte	W06
	.byte		        As2 
	.byte	W01
	.byte		VOL   , 49*seq_124_mvl/mxv
	.byte	W03
	.byte		        56*seq_124_mvl/mxv
	.byte	W02
	.byte		N06   , An2 
	.byte	W03
	.byte		VOL   , 63*seq_124_mvl/mxv
	.byte	W03
	.byte		N06   , As2 
	.byte	W01
	.byte		VOL   , 56*seq_124_mvl/mxv
	.byte	W04
	.byte		        49*seq_124_mvl/mxv
	.byte	W01
	.byte		N06   , An2 
	.byte	W03
	.byte		VOL   , 42*seq_124_mvl/mxv
	.byte	W03
	.byte		N06   , As2 
	.byte	W01
	.byte		VOL   , 35*seq_124_mvl/mxv
	.byte	W03
	.byte		        28*seq_124_mvl/mxv
	.byte	W02
	.byte		N06   , An2 
	.byte	W03
	.byte		VOL   , 21*seq_124_mvl/mxv
	.byte	W03
	.byte		N06   , As2 
	.byte	W02
	.byte		VOL   , 14*seq_124_mvl/mxv
	.byte	W03
	.byte		        7*seq_124_mvl/mxv
	.byte	W01
	.byte		N06   , Dn3 
	.byte	W05
	.byte		VOL   , 14*seq_124_mvl/mxv
	.byte	W01
	.byte		N06   , Ds3 
	.byte	W06
	.byte		        Dn3 
	.byte	W06
	.byte		        Ds3 
	.byte	W03
	.byte		VOL   , 21*seq_124_mvl/mxv
	.byte	W03
	.byte		N06   , Dn3 
	.byte	W06
	.byte		        Ds3 
	.byte	W04
	.byte		VOL   , 28*seq_124_mvl/mxv
	.byte	W02
	.byte		N06   , Dn3 
	.byte	W04
	.byte		VOL   , 35*seq_124_mvl/mxv
	.byte	W02
	.byte		N06   , Ds3 
	.byte	W05
	.byte		VOL   , 42*seq_124_mvl/mxv
	.byte	W01
	.byte		N06   , Dn3 
	.byte	W05
	.byte		VOL   , 49*seq_124_mvl/mxv
	.byte	W01
	.byte		N06   , Ds3 
	.byte	W04
	.byte		VOL   , 56*seq_124_mvl/mxv
	.byte	W02
	.byte		N06   , Dn3 
	.byte	W03
	.byte		VOL   , 63*seq_124_mvl/mxv
	.byte	W03
	.byte		N06   , Ds3 
	.byte	W01
	.byte		VOL   , 56*seq_124_mvl/mxv
	.byte	W04
	.byte		        49*seq_124_mvl/mxv
	.byte	W01
	.byte		N06   , Dn3 
	.byte	W03
	.byte		VOL   , 42*seq_124_mvl/mxv
	.byte	W03
	.byte		N06   , Ds3 
	.byte	W01
	.byte		VOL   , 35*seq_124_mvl/mxv
	.byte	W03
	.byte		        28*seq_124_mvl/mxv
	.byte	W02
	.byte		N06   , Dn3 
	.byte	W03
	.byte		VOL   , 21*seq_124_mvl/mxv
	.byte	W03
	.byte		N06   , Ds3 
	.byte	W02
	.byte		VOL   , 14*seq_124_mvl/mxv
	.byte	W03
	.byte		        7*seq_124_mvl/mxv
	.byte	W01
	.byte	PATT
	 .word	seq_124_2 + 0xD8
	.byte	PATT
	 .word	seq_124_2 + 0x132
	.byte	PATT
	 .word	seq_124_2 + 0xD8
	.byte	PATT
	 .word	seq_124_2 + 0x132
	.byte	PATT
	 .word	seq_124_2 + 0xD8
	.byte	PATT
	 .word	seq_124_2 + 0x132
	.byte	PATT
	 .word	seq_124_2 + 0xD8
	.byte	PATT
	 .word	seq_124_2 + 0x132
	.byte	W48
	.byte		N06   , Gs2 , v100
	.byte	W05
	.byte		VOL   , 21*seq_124_mvl/mxv
	.byte	W01
	.byte		N06   , An2 
	.byte	W06
	.byte		        Gs2 
	.byte	W06
	.byte		        An2 
	.byte	W03
	.byte		VOL   , 28*seq_124_mvl/mxv
	.byte	W03
	.byte		N06   , Gs2 
	.byte	W06
	.byte		        An2 
	.byte	W04
	.byte		VOL   , 35*seq_124_mvl/mxv
	.byte	W02
	.byte		N06   , Gs2 
	.byte	W04
	.byte		VOL   , 42*seq_124_mvl/mxv
	.byte	W02
	.byte		N06   , An2 
	.byte	W05
	.byte		VOL   , 49*seq_124_mvl/mxv
	.byte	W01
	.byte		N06   , Gs2 
	.byte	W06
	.byte		        An2 
	.byte	W01
	.byte		VOL   , 56*seq_124_mvl/mxv
	.byte	W03
	.byte		        63*seq_124_mvl/mxv
	.byte	W02
	.byte		N06   , Gs2 
	.byte	W03
	.byte		VOL   , 70*seq_124_mvl/mxv
	.byte	W03
	.byte		N06   , An2 
	.byte	W01
	.byte		VOL   , 63*seq_124_mvl/mxv
	.byte	W04
	.byte		        56*seq_124_mvl/mxv
	.byte	W01
	.byte		N06   , Gs2 
	.byte	W03
	.byte		VOL   , 49*seq_124_mvl/mxv
	.byte	W03
	.byte		N06   , An2 
	.byte	W01
	.byte		VOL   , 42*seq_124_mvl/mxv
	.byte	W03
	.byte		        35*seq_124_mvl/mxv
	.byte	W02
	.byte		N06   , Gs2 
	.byte	W03
	.byte		VOL   , 28*seq_124_mvl/mxv
	.byte	W03
	.byte		N06   , An2 
	.byte	W02
	.byte		VOL   , 21*seq_124_mvl/mxv
	.byte	W03
	.byte		        14*seq_124_mvl/mxv
	.byte	W01
	.byte		N06   , Cs3 
	.byte	W05
	.byte		VOL   , 21*seq_124_mvl/mxv
	.byte	W01
	.byte		N06   , Dn3 
	.byte	W06
	.byte		        Cs3 
	.byte	W06
	.byte		        Dn3 
	.byte	W03
	.byte		VOL   , 28*seq_124_mvl/mxv
	.byte	W03
	.byte		N06   , Cs3 
	.byte	W06
	.byte		        Dn3 
	.byte	W04
	.byte		VOL   , 35*seq_124_mvl/mxv
	.byte	W02
	.byte		N06   , Cs3 
	.byte	W04
	.byte		VOL   , 42*seq_124_mvl/mxv
	.byte	W02
	.byte		N06   , Dn3 
	.byte	W05
	.byte		VOL   , 49*seq_124_mvl/mxv
	.byte	W01
	.byte		N06   , Cs3 
	.byte	W05
	.byte		VOL   , 56*seq_124_mvl/mxv
	.byte	W01
	.byte		N06   , Dn3 
	.byte	W04
	.byte		VOL   , 63*seq_124_mvl/mxv
	.byte	W02
	.byte		N06   , Cs3 
	.byte	W03
	.byte		VOL   , 70*seq_124_mvl/mxv
	.byte	W03
	.byte		N06   , Dn3 
	.byte	W01
	.byte		VOL   , 63*seq_124_mvl/mxv
	.byte	W04
	.byte		        56*seq_124_mvl/mxv
	.byte	W01
	.byte		N06   , Cs3 
	.byte	W03
	.byte		VOL   , 49*seq_124_mvl/mxv
	.byte	W03
	.byte		N06   , Dn3 
	.byte	W01
	.byte		VOL   , 42*seq_124_mvl/mxv
	.byte	W03
	.byte		        35*seq_124_mvl/mxv
	.byte	W02
	.byte		N06   , Cs3 
	.byte	W03
	.byte		VOL   , 28*seq_124_mvl/mxv
	.byte	W03
	.byte		N06   , Dn3 
	.byte	W02
	.byte		VOL   , 21*seq_124_mvl/mxv
	.byte	W03
	.byte		        14*seq_124_mvl/mxv
	.byte	W01
	.byte	PATT
	 .word	seq_124_2 + 0x18
	.byte	PATT
	 .word	seq_124_2 + 0x72
	.byte	GOTO
	 .word	seq_124_2 + 0x197
	.byte	FINE

@*********************** Track 04 ***********************@

seq_124_3:
	.byte	KEYSH , seq_124_key+0
	.byte	W06
	.byte		VOICE , 22
	.byte	W01
	.byte		VOL   , 70*seq_124_mvl/mxv
	.byte	W01
	.byte		PAN   , c_v+0
	.byte	W01
	.byte		LFOS  , 30
	.byte		MOD   , 0
	.byte	W01
	.byte		MODT  , mod_pan
	.byte	W01
	.byte		LFODL , 0
	.byte	W13
	.byte	W06
	.byte	W96
	.byte	W96
	.byte	W96
	.byte	W92
	.byte	W03
	.byte		N12   , Cs4 , v120
	.byte	W01
	.byte	PEND
	.byte	W11
	.byte		N12   , Cn4 , v120
	.byte	W12
	.byte		        Fn4 
	.byte	W12
	.byte		        Ds4 
	.byte	W12
	.byte		N18   , En4 
	.byte	W18
	.byte		        En4 , v060
	.byte	W18
	.byte		N06   , Fs4 , v120
	.byte	W06
	.byte		N18   , Gn4 
	.byte	W07
	.byte	PEND
	.byte	W11
	.byte		N18   , Gn4 , v060
	.byte	W84
	.byte	W01
	.byte	PEND
	.byte	W96
	.byte	W96
	.byte	W96
	.byte	W96
	.byte	W96
	.byte	W92
	.byte	W02
	.byte		VOL   , 49*seq_124_mvl/mxv
	.byte	W01
	.byte		N24   , Cs5 , v120
	.byte	W01
	.byte	PEND
	.byte	W03
	.byte		VOL   , 56*seq_124_mvl/mxv
	.byte	W07
	.byte		        63*seq_124_mvl/mxv
	.byte	W06
	.byte		        70*seq_124_mvl/mxv
	.byte	W06
	.byte		        49*seq_124_mvl/mxv
	.byte	W01
	.byte		N24   , Cn5 , v120
	.byte	W04
	.byte		VOL   , 56*seq_124_mvl/mxv
	.byte	W07
	.byte		        63*seq_124_mvl/mxv
	.byte	W06
	.byte		        70*seq_124_mvl/mxv
	.byte	W06
	.byte		        49*seq_124_mvl/mxv
	.byte	W01
	.byte		N24   , Gs4 
	.byte	W04
	.byte		VOL   , 56*seq_124_mvl/mxv
	.byte	W07
	.byte		        63*seq_124_mvl/mxv
	.byte	W06
	.byte		        70*seq_124_mvl/mxv
	.byte	W07
	.byte		N12   , En4 , v100
	.byte	W11
	.byte		VOL   , 49*seq_124_mvl/mxv
	.byte	W01
	.byte		N24   , Gs4 , v120
	.byte	W04
	.byte		VOL   , 56*seq_124_mvl/mxv
	.byte	W07
	.byte		        63*seq_124_mvl/mxv
	.byte	W02
	.byte	PEND
	.byte	W04
	.byte		VOL   , 70*seq_124_mvl/mxv
	.byte	W07
	.byte		N24   , Fn4 , v120
	.byte	W12
	.byte		VOL   , 63*seq_124_mvl/mxv
	.byte	W04
	.byte		        56*seq_124_mvl/mxv
	.byte	W04
	.byte		        49*seq_124_mvl/mxv
	.byte	W03
	.byte		        42*seq_124_mvl/mxv
	.byte	W01
	.byte		N11   , Fn4 , v060
	.byte	W11
	.byte		VOL   , 70*seq_124_mvl/mxv
	.byte	W01
	.byte		N06   , Fn4 , v120
	.byte	W06
	.byte		        Fs4 
	.byte	W06
	.byte		N12   , Gs4 
	.byte	W12
	.byte		        Fs4 
	.byte	W12
	.byte		        En4 , v100
	.byte	W12
	.byte		        Fn4 , v120
	.byte	W01
	.byte	PEND
	.byte	W11
	.byte		N12   , Fn4 , v060
	.byte	W84
	.byte	W01
	.byte	PEND
	.byte	PATT
	 .word	seq_124_3 + 0x45
	.byte	PATT
	 .word	seq_124_3 + 0x4F
	.byte	PATT
	 .word	seq_124_3 + 0x81
	.byte	PATT
	 .word	seq_124_3 + 0xAB
	.byte	W92
	.byte	W02
	.byte		VOL   , 49*seq_124_mvl/mxv
	.byte	W01
	.byte		N24   , Cn5 , v120
	.byte	W01
	.byte	W03
	.byte		VOL   , 56*seq_124_mvl/mxv
	.byte	W07
	.byte		        63*seq_124_mvl/mxv
	.byte	W06
	.byte		        70*seq_124_mvl/mxv
	.byte	W06
	.byte		        49*seq_124_mvl/mxv
	.byte	W01
	.byte		N24   , Bn4 
	.byte	W04
	.byte		VOL   , 56*seq_124_mvl/mxv
	.byte	W07
	.byte		        63*seq_124_mvl/mxv
	.byte	W06
	.byte		        70*seq_124_mvl/mxv
	.byte	W06
	.byte		        49*seq_124_mvl/mxv
	.byte	W01
	.byte		N24   , Gn4 
	.byte	W04
	.byte		VOL   , 56*seq_124_mvl/mxv
	.byte	W07
	.byte		        63*seq_124_mvl/mxv
	.byte	W06
	.byte		        70*seq_124_mvl/mxv
	.byte	W07
	.byte		N12   , Ds4 , v100
	.byte	W11
	.byte		VOL   , 49*seq_124_mvl/mxv
	.byte	W01
	.byte		N24   , Gn4 , v120
	.byte	W04
	.byte		VOL   , 56*seq_124_mvl/mxv
	.byte	W07
	.byte		        63*seq_124_mvl/mxv
	.byte	W02
	.byte	W04
	.byte		        70*seq_124_mvl/mxv
	.byte	W07
	.byte		N24   , En4 
	.byte	W12
	.byte		VOL   , 63*seq_124_mvl/mxv
	.byte	W04
	.byte		        56*seq_124_mvl/mxv
	.byte	W04
	.byte		        49*seq_124_mvl/mxv
	.byte	W03
	.byte		        42*seq_124_mvl/mxv
	.byte	W01
	.byte		N11   , En4 , v060
	.byte	W11
	.byte		VOL   , 70*seq_124_mvl/mxv
	.byte	W01
	.byte		N06   , En4 , v120
	.byte	W06
	.byte		        Fn4 
	.byte	W06
	.byte		N12   , Gn4 
	.byte	W12
	.byte		        Fn4 
	.byte	W12
	.byte		        Ds4 , v100
	.byte	W12
	.byte		        En4 , v120
	.byte	W01
	.byte	W11
	.byte		        En4 , v060
	.byte	W84
	.byte	W01
	.byte	PATT
	 .word	seq_124_3 + 0x45
	.byte	PATT
	 .word	seq_124_3 + 0x4F
	.byte	PATT
	 .word	seq_124_3 + 0x81
	.byte	PATT
	 .word	seq_124_3 + 0xAB
	.byte	W96
	.byte	W96
	.byte	W96
	.byte	W96
	.byte	W96
	.byte	W96
	.byte	W96
	.byte	W96
	.byte	W92
	.byte	W02
	.byte		VOL   , 49*seq_124_mvl/mxv
	.byte	W01
	.byte		N24   , Dn5 , v120
	.byte	W01
	.byte	W03
	.byte		VOL   , 56*seq_124_mvl/mxv
	.byte	W07
	.byte		        63*seq_124_mvl/mxv
	.byte	W06
	.byte		        70*seq_124_mvl/mxv
	.byte	W06
	.byte		        49*seq_124_mvl/mxv
	.byte	W01
	.byte		N24   , Cs5 
	.byte	W04
	.byte		VOL   , 56*seq_124_mvl/mxv
	.byte	W07
	.byte		        63*seq_124_mvl/mxv
	.byte	W06
	.byte		        70*seq_124_mvl/mxv
	.byte	W06
	.byte		        49*seq_124_mvl/mxv
	.byte	W01
	.byte		N24   , An4 
	.byte	W04
	.byte		VOL   , 56*seq_124_mvl/mxv
	.byte	W07
	.byte		        63*seq_124_mvl/mxv
	.byte	W06
	.byte		        70*seq_124_mvl/mxv
	.byte	W07
	.byte		N12   , Fn4 , v100
	.byte	W11
	.byte		VOL   , 49*seq_124_mvl/mxv
	.byte	W01
	.byte		N24   , An4 , v120
	.byte	W04
	.byte		VOL   , 56*seq_124_mvl/mxv
	.byte	W07
	.byte		        63*seq_124_mvl/mxv
	.byte	W02
	.byte	W04
	.byte		        70*seq_124_mvl/mxv
	.byte	W07
	.byte		N24   , Fs4 
	.byte	W12
	.byte		VOL   , 63*seq_124_mvl/mxv
	.byte	W04
	.byte		        56*seq_124_mvl/mxv
	.byte	W04
	.byte		        49*seq_124_mvl/mxv
	.byte	W03
	.byte		        42*seq_124_mvl/mxv
	.byte	W01
	.byte		N11   , Fs4 , v060
	.byte	W11
	.byte		VOL   , 70*seq_124_mvl/mxv
	.byte	W01
	.byte		N06   , Fs4 , v120
	.byte	W06
	.byte		        Gn4 
	.byte	W06
	.byte		N12   , An4 
	.byte	W12
	.byte		        Gn4 
	.byte	W12
	.byte		        An4 , v100
	.byte	W12
	.byte		        Fs4 , v120
	.byte	W01
	.byte	W11
	.byte		        Fs4 , v060
	.byte	W84
	.byte	W01
	.byte	PATT
	 .word	seq_124_3 + 0x1B
	.byte	PATT
	 .word	seq_124_3 + 0x22
	.byte	PATT
	 .word	seq_124_3 + 0x39
	.byte	W96
	.byte	PATT
	 .word	seq_124_3 + 0x1B
	.byte	PATT
	 .word	seq_124_3 + 0x22
	.byte	PATT
	 .word	seq_124_3 + 0x39
	.byte	W96
	.byte	W92
	.byte	W01
	.byte		VOL   , 49*seq_124_mvl/mxv
	.byte	W01
	.byte		VOICE , 52
	.byte	W01
	.byte		MOD   , 120
	.byte	W01
	.byte		N03   , Bn1 , v100
	.byte	W01
	.byte		        Fn2 , v120
	.byte	W05
	.byte		        Fn2 , v100
	.byte	W01
	.byte		        As2 , v120
	.byte	W05
	.byte		        As2 , v100
	.byte	W01
	.byte		        Ds3 , v120
	.byte	W05
	.byte		        Ds3 , v100
	.byte	W01
	.byte		        Gs3 , v120
	.byte	W05
	.byte		        Gs3 , v100
	.byte	W01
	.byte		        Cs4 , v120
	.byte	W05
	.byte		        Cs4 , v100
	.byte	W01
	.byte		        Fs4 , v120
	.byte	W05
	.byte		        Fs4 , v100
	.byte	W01
	.byte		        Bn4 
	.byte	W05
	.byte		        Bn4 , v080
	.byte	W01
	.byte		        En5 , v100
	.byte	W05
	.byte	W92
	.byte	W02
	.byte		VOICE , 22
	.byte	W02
	.byte	W92
	.byte	W02
	.byte		VOL   , 70*seq_124_mvl/mxv
	.byte	W01
	.byte		MOD   , 0
	.byte	W01
	.byte	W96
	.byte	W96
	.byte	GOTO
	 .word	seq_124_3 + 0x42
	.byte	FINE

@*********************** Track 05 ***********************@

seq_124_4:
	.byte	KEYSH , seq_124_key+0
	.byte	W06
	.byte		VOICE , 12
	.byte	W01
	.byte		VOL   , 7*seq_124_mvl/mxv
	.byte	W01
	.byte		PAN   , c_v+0
	.byte	W01
	.byte		LFOS  , 15
	.byte	W01
	.byte		MODT  , mod_pan
	.byte	W01
	.byte		LFODL , 0
	.byte	W13
	.byte	W06
	.byte		N06   , Cs3 , v100
	.byte	W05
	.byte		VOL   , 14*seq_124_mvl/mxv
	.byte	W01
	.byte		N06   , Dn3 
	.byte	W06
	.byte		        Cs3 
	.byte	W06
	.byte		        Dn3 
	.byte	W03
	.byte		VOL   , 21*seq_124_mvl/mxv
	.byte	W03
	.byte		N06   , Cs3 
	.byte	W06
	.byte		        Dn3 
	.byte	W04
	.byte		VOL   , 28*seq_124_mvl/mxv
	.byte	W02
	.byte		N06   , Cs3 
	.byte	W04
	.byte		VOL   , 35*seq_124_mvl/mxv
	.byte	W02
	.byte		N06   , Dn3 
	.byte	W05
	.byte		VOL   , 42*seq_124_mvl/mxv
	.byte	W01
	.byte		N06   , Cs3 
	.byte	W06
	.byte		        Dn3 
	.byte	W01
	.byte		VOL   , 49*seq_124_mvl/mxv
	.byte	W03
	.byte		        56*seq_124_mvl/mxv
	.byte	W02
	.byte		N06   , Cs3 
	.byte	W03
	.byte		VOL   , 63*seq_124_mvl/mxv
	.byte	W03
	.byte		N06   , Dn3 
	.byte	W01
	.byte		VOL   , 56*seq_124_mvl/mxv
	.byte	W04
	.byte		        49*seq_124_mvl/mxv
	.byte	W01
	.byte		N06   , Cs3 
	.byte	W03
	.byte		VOL   , 42*seq_124_mvl/mxv
	.byte	W03
	.byte		N06   , Dn3 
	.byte	W01
	.byte		VOL   , 35*seq_124_mvl/mxv
	.byte	W03
	.byte		        28*seq_124_mvl/mxv
	.byte	W02
	.byte		N06   , Cs3 
	.byte	W03
	.byte		VOL   , 21*seq_124_mvl/mxv
	.byte	W03
	.byte		N06   , Dn3 
	.byte	W02
	.byte		VOL   , 14*seq_124_mvl/mxv
	.byte	W03
	.byte		        7*seq_124_mvl/mxv
	.byte	W01
	.byte	PEND
	.byte		N06   , Fn3 , v100
	.byte	W05
	.byte		VOL   , 14*seq_124_mvl/mxv
	.byte	W01
	.byte		N06   , Fs3 
	.byte	W06
	.byte		        Fn3 
	.byte	W06
	.byte		        Fs3 
	.byte	W03
	.byte		VOL   , 21*seq_124_mvl/mxv
	.byte	W03
	.byte		N06   , Fn3 
	.byte	W06
	.byte		        Fs3 
	.byte	W04
	.byte		VOL   , 28*seq_124_mvl/mxv
	.byte	W02
	.byte		N06   , Fn3 
	.byte	W04
	.byte		VOL   , 35*seq_124_mvl/mxv
	.byte	W02
	.byte		N06   , Fs3 
	.byte	W05
	.byte		VOL   , 42*seq_124_mvl/mxv
	.byte	W01
	.byte		N06   , Fn3 
	.byte	W05
	.byte		VOL   , 49*seq_124_mvl/mxv
	.byte	W01
	.byte		N06   , Fs3 
	.byte	W04
	.byte		VOL   , 56*seq_124_mvl/mxv
	.byte	W02
	.byte		N06   , Fn3 
	.byte	W03
	.byte		VOL   , 63*seq_124_mvl/mxv
	.byte	W03
	.byte		N06   , Fs3 
	.byte	W01
	.byte		VOL   , 56*seq_124_mvl/mxv
	.byte	W04
	.byte		        49*seq_124_mvl/mxv
	.byte	W01
	.byte		N06   , Fn3 
	.byte	W03
	.byte		VOL   , 42*seq_124_mvl/mxv
	.byte	W03
	.byte		N06   , Fs3 
	.byte	W01
	.byte		VOL   , 35*seq_124_mvl/mxv
	.byte	W03
	.byte		        28*seq_124_mvl/mxv
	.byte	W02
	.byte		N06   , Fn3 
	.byte	W03
	.byte		VOL   , 21*seq_124_mvl/mxv
	.byte	W03
	.byte		N06   , Fs3 
	.byte	W02
	.byte		VOL   , 14*seq_124_mvl/mxv
	.byte	W03
	.byte		        7*seq_124_mvl/mxv
	.byte	W01
	.byte	PEND
	.byte	PATT
	 .word	seq_124_4 + 0x16
	.byte		N06   , Fn3 , v100
	.byte	W05
	.byte		VOL   , 14*seq_124_mvl/mxv
	.byte	W01
	.byte		N06   , Fs3 
	.byte	W06
	.byte		        Fn3 
	.byte	W06
	.byte		        Fs3 
	.byte	W03
	.byte		VOL   , 21*seq_124_mvl/mxv
	.byte	W03
	.byte		N06   , Fn3 
	.byte	W06
	.byte		        Fs3 
	.byte	W04
	.byte		VOL   , 28*seq_124_mvl/mxv
	.byte	W02
	.byte		N06   , En4 
	.byte	W04
	.byte		VOL   , 35*seq_124_mvl/mxv
	.byte	W02
	.byte		N06   , Fn4 
	.byte	W05
	.byte		VOL   , 42*seq_124_mvl/mxv
	.byte	W01
	.byte		N06   , En4 , v080
	.byte	W05
	.byte		VOL   , 49*seq_124_mvl/mxv
	.byte	W01
	.byte		N06   , Fn4 
	.byte	W04
	.byte		VOL   , 56*seq_124_mvl/mxv
	.byte	W02
	.byte		N06   , En4 
	.byte	W03
	.byte		VOL   , 63*seq_124_mvl/mxv
	.byte	W03
	.byte		N06   , Fn4 
	.byte	W01
	.byte		VOL   , 56*seq_124_mvl/mxv
	.byte	W04
	.byte		        49*seq_124_mvl/mxv
	.byte	W01
	.byte		N06   , En4 
	.byte	W03
	.byte		VOL   , 42*seq_124_mvl/mxv
	.byte	W03
	.byte		N06   , Fn4 
	.byte	W01
	.byte		VOL   , 35*seq_124_mvl/mxv
	.byte	W03
	.byte		        28*seq_124_mvl/mxv
	.byte	W02
	.byte		N06   , En4 
	.byte	W03
	.byte		VOL   , 21*seq_124_mvl/mxv
	.byte	W03
	.byte		N06   , Fn4 
	.byte	W02
	.byte		VOL   , 14*seq_124_mvl/mxv
	.byte	W03
	.byte		        7*seq_124_mvl/mxv
	.byte	W01
	.byte	W96
	.byte	W96
	.byte	W96
	.byte	W96
	.byte	PATT
	 .word	seq_124_4 + 0x16
	.byte	PATT
	 .word	seq_124_4 + 0x70
	.byte	PATT
	 .word	seq_124_4 + 0x16
	.byte	PATT
	 .word	seq_124_4 + 0x70
	.byte	W96
	.byte	W96
	.byte	PATT
	 .word	seq_124_4 + 0x16
	.byte	PATT
	 .word	seq_124_4 + 0x70
	.byte	W96
	.byte	W96
	.byte	PATT
	 .word	seq_124_4 + 0x16
	.byte	PATT
	 .word	seq_124_4 + 0x70
	.byte	W96
	.byte	W96
	.byte		N06   , Cn3 , v100
	.byte	W05
	.byte		VOL   , 14*seq_124_mvl/mxv
	.byte	W01
	.byte		N06   , Cs3 
	.byte	W06
	.byte		        Cn3 
	.byte	W06
	.byte		        Cs3 
	.byte	W03
	.byte		VOL   , 21*seq_124_mvl/mxv
	.byte	W03
	.byte		N06   , Cn3 
	.byte	W06
	.byte		        Cs3 
	.byte	W04
	.byte		VOL   , 28*seq_124_mvl/mxv
	.byte	W02
	.byte		N06   , Cn3 
	.byte	W04
	.byte		VOL   , 35*seq_124_mvl/mxv
	.byte	W02
	.byte		N06   , Cs3 
	.byte	W05
	.byte		VOL   , 42*seq_124_mvl/mxv
	.byte	W01
	.byte		N06   , Cn3 
	.byte	W06
	.byte		        Cs3 
	.byte	W01
	.byte		VOL   , 49*seq_124_mvl/mxv
	.byte	W03
	.byte		        56*seq_124_mvl/mxv
	.byte	W02
	.byte		N06   , Cn3 
	.byte	W03
	.byte		VOL   , 63*seq_124_mvl/mxv
	.byte	W03
	.byte		N06   , Cs3 
	.byte	W01
	.byte		VOL   , 56*seq_124_mvl/mxv
	.byte	W04
	.byte		        49*seq_124_mvl/mxv
	.byte	W01
	.byte		N06   , Cn3 
	.byte	W03
	.byte		VOL   , 42*seq_124_mvl/mxv
	.byte	W03
	.byte		N06   , Cs3 
	.byte	W01
	.byte		VOL   , 35*seq_124_mvl/mxv
	.byte	W03
	.byte		        28*seq_124_mvl/mxv
	.byte	W02
	.byte		N06   , Cn3 
	.byte	W03
	.byte		VOL   , 21*seq_124_mvl/mxv
	.byte	W03
	.byte		N06   , Cs3 
	.byte	W02
	.byte		VOL   , 14*seq_124_mvl/mxv
	.byte	W03
	.byte		        7*seq_124_mvl/mxv
	.byte	W01
	.byte		N06   , En3 
	.byte	W05
	.byte		VOL   , 14*seq_124_mvl/mxv
	.byte	W01
	.byte		N06   , Fn3 
	.byte	W06
	.byte		        En3 
	.byte	W06
	.byte		        Fn3 
	.byte	W03
	.byte		VOL   , 21*seq_124_mvl/mxv
	.byte	W03
	.byte		N06   , En3 
	.byte	W06
	.byte		        Fn3 
	.byte	W04
	.byte		VOL   , 28*seq_124_mvl/mxv
	.byte	W02
	.byte		N06   , En3 
	.byte	W04
	.byte		VOL   , 35*seq_124_mvl/mxv
	.byte	W02
	.byte		N06   , Fn3 
	.byte	W05
	.byte		VOL   , 42*seq_124_mvl/mxv
	.byte	W01
	.byte		N06   , En3 
	.byte	W05
	.byte		VOL   , 49*seq_124_mvl/mxv
	.byte	W01
	.byte		N06   , Fn3 
	.byte	W04
	.byte		VOL   , 56*seq_124_mvl/mxv
	.byte	W02
	.byte		N06   , En3 
	.byte	W03
	.byte		VOL   , 63*seq_124_mvl/mxv
	.byte	W03
	.byte		N06   , Fn3 
	.byte	W01
	.byte		VOL   , 56*seq_124_mvl/mxv
	.byte	W04
	.byte		        49*seq_124_mvl/mxv
	.byte	W01
	.byte		N06   , En3 
	.byte	W03
	.byte		VOL   , 42*seq_124_mvl/mxv
	.byte	W03
	.byte		N06   , Fn3 
	.byte	W01
	.byte		VOL   , 35*seq_124_mvl/mxv
	.byte	W03
	.byte		        28*seq_124_mvl/mxv
	.byte	W02
	.byte		N06   , En3 
	.byte	W03
	.byte		VOL   , 21*seq_124_mvl/mxv
	.byte	W03
	.byte		N06   , Fn3 
	.byte	W02
	.byte		VOL   , 14*seq_124_mvl/mxv
	.byte	W03
	.byte		        7*seq_124_mvl/mxv
	.byte	W01
	.byte	W96
	.byte	W96
	.byte	PATT
	 .word	seq_124_4 + 0x16
	.byte	PATT
	 .word	seq_124_4 + 0x70
	.byte	W96
	.byte	W96
	.byte	PATT
	 .word	seq_124_4 + 0x16
	.byte	PATT
	 .word	seq_124_4 + 0x70
	.byte	W96
	.byte	W96
	.byte	PATT
	 .word	seq_124_4 + 0x16
	.byte	PATT
	 .word	seq_124_4 + 0x70
	.byte	W96
	.byte	W96
	.byte		N06   , Dn3 , v100
	.byte	W05
	.byte		VOL   , 14*seq_124_mvl/mxv
	.byte	W01
	.byte		N06   , Ds3 
	.byte	W06
	.byte		        Dn3 
	.byte	W06
	.byte		        Ds3 
	.byte	W03
	.byte		VOL   , 21*seq_124_mvl/mxv
	.byte	W03
	.byte		N06   , Dn3 
	.byte	W06
	.byte		        Ds3 
	.byte	W04
	.byte		VOL   , 28*seq_124_mvl/mxv
	.byte	W02
	.byte		N06   , Dn3 
	.byte	W04
	.byte		VOL   , 35*seq_124_mvl/mxv
	.byte	W02
	.byte		N06   , Ds3 
	.byte	W05
	.byte		VOL   , 42*seq_124_mvl/mxv
	.byte	W01
	.byte		N06   , Dn3 
	.byte	W06
	.byte		        Ds3 
	.byte	W01
	.byte		VOL   , 49*seq_124_mvl/mxv
	.byte	W03
	.byte		        56*seq_124_mvl/mxv
	.byte	W02
	.byte		N06   , Dn3 
	.byte	W03
	.byte		VOL   , 63*seq_124_mvl/mxv
	.byte	W03
	.byte		N06   , Ds3 
	.byte	W01
	.byte		VOL   , 56*seq_124_mvl/mxv
	.byte	W04
	.byte		        49*seq_124_mvl/mxv
	.byte	W01
	.byte		N06   , Dn3 
	.byte	W03
	.byte		VOL   , 42*seq_124_mvl/mxv
	.byte	W03
	.byte		N06   , Ds3 
	.byte	W01
	.byte		VOL   , 35*seq_124_mvl/mxv
	.byte	W03
	.byte		        28*seq_124_mvl/mxv
	.byte	W02
	.byte		N06   , Dn3 
	.byte	W03
	.byte		VOL   , 21*seq_124_mvl/mxv
	.byte	W03
	.byte		N06   , Ds3 
	.byte	W02
	.byte		VOL   , 14*seq_124_mvl/mxv
	.byte	W03
	.byte		        7*seq_124_mvl/mxv
	.byte	W01
	.byte		N06   , Fs3 
	.byte	W05
	.byte		VOL   , 14*seq_124_mvl/mxv
	.byte	W01
	.byte		N06   , Gn3 
	.byte	W06
	.byte		        Fs3 
	.byte	W06
	.byte		        Gn3 
	.byte	W03
	.byte		VOL   , 21*seq_124_mvl/mxv
	.byte	W03
	.byte		N06   , Fs3 
	.byte	W06
	.byte		        Gn3 
	.byte	W04
	.byte		VOL   , 28*seq_124_mvl/mxv
	.byte	W02
	.byte		N06   , Fs3 
	.byte	W04
	.byte		VOL   , 35*seq_124_mvl/mxv
	.byte	W02
	.byte		N06   , Gn3 
	.byte	W05
	.byte		VOL   , 42*seq_124_mvl/mxv
	.byte	W01
	.byte		N06   , Fs3 
	.byte	W05
	.byte		VOL   , 49*seq_124_mvl/mxv
	.byte	W01
	.byte		N06   , Gn3 
	.byte	W04
	.byte		VOL   , 56*seq_124_mvl/mxv
	.byte	W02
	.byte		N06   , Fs3 
	.byte	W03
	.byte		VOL   , 63*seq_124_mvl/mxv
	.byte	W03
	.byte		N06   , Gn3 
	.byte	W01
	.byte		VOL   , 56*seq_124_mvl/mxv
	.byte	W04
	.byte		        49*seq_124_mvl/mxv
	.byte	W01
	.byte		N06   , Fs3 
	.byte	W03
	.byte		VOL   , 42*seq_124_mvl/mxv
	.byte	W03
	.byte		N06   , Gn3 
	.byte	W01
	.byte		VOL   , 35*seq_124_mvl/mxv
	.byte	W03
	.byte		        28*seq_124_mvl/mxv
	.byte	W02
	.byte		N06   , Fs3 
	.byte	W03
	.byte		VOL   , 21*seq_124_mvl/mxv
	.byte	W03
	.byte		N06   , Gn3 
	.byte	W02
	.byte		VOL   , 14*seq_124_mvl/mxv
	.byte	W03
	.byte		        7*seq_124_mvl/mxv
	.byte	W01
	.byte	W96
	.byte	W96
	.byte	W96
	.byte	W96
	.byte	W96
	.byte	W96
	.byte	W96
	.byte	W96
	.byte	W48
	.byte	PATT
	 .word	seq_124_4 + 0x16
	.byte	PATT
	 .word	seq_124_4 + 0x70
	.byte	PATT
	 .word	seq_124_4 + 0x16
	.byte	PATT
	 .word	seq_124_4 + 0x70
	.byte	GOTO
	 .word	seq_124_4 + 0x131
	.byte	FINE

@*********************** Track 06 ***********************@

seq_124_5:
	.byte	KEYSH , seq_124_key+0
	.byte	W06
	.byte		VOICE , 58
	.byte	W01
	.byte		VOL   , 21*seq_124_mvl/mxv
	.byte	W01
	.byte		PAN   , c_v+0
	.byte	W01
	.byte		LFOS  , 1
	.byte	W01
	.byte		MODT  , mod_pan
	.byte	W01
	.byte		BENDR , 12
	.byte	W01
	.byte		MOD   , 20
	.byte	W12
	.byte	W06
	.byte	W24
	.byte		N72   , As2 , v100
	.byte	W04
	.byte		VOL   , 28*seq_124_mvl/mxv
	.byte	W08
	.byte		        35*seq_124_mvl/mxv
	.byte	W13
	.byte		        42*seq_124_mvl/mxv
	.byte	W09
	.byte		        49*seq_124_mvl/mxv
	.byte	W14
	.byte		        42*seq_124_mvl/mxv
	.byte	W11
	.byte		        35*seq_124_mvl/mxv
	.byte	W04
	.byte		        28*seq_124_mvl/mxv
	.byte	W02
	.byte		MOD   , 0
	.byte	W02
	.byte		VOL   , 21*seq_124_mvl/mxv
	.byte	W04
	.byte		        14*seq_124_mvl/mxv
	.byte	W01
	.byte	W22
	.byte		MOD   , 20
	.byte	W01
	.byte		VOL   , 21*seq_124_mvl/mxv
	.byte	W01
	.byte		N72   , As1 , v100
	.byte	W04
	.byte		VOL   , 28*seq_124_mvl/mxv
	.byte	W08
	.byte		        35*seq_124_mvl/mxv
	.byte	W13
	.byte		        42*seq_124_mvl/mxv
	.byte	W09
	.byte		        49*seq_124_mvl/mxv
	.byte	W14
	.byte		        42*seq_124_mvl/mxv
	.byte	W11
	.byte		        35*seq_124_mvl/mxv
	.byte	W04
	.byte		        28*seq_124_mvl/mxv
	.byte	W02
	.byte		MOD   , 0
	.byte	W02
	.byte		VOL   , 21*seq_124_mvl/mxv
	.byte	W05
	.byte	PEND
	.byte	W24
	.byte		N72   , As2 , v100
	.byte	W04
	.byte		VOL   , 28*seq_124_mvl/mxv
	.byte	W08
	.byte		        35*seq_124_mvl/mxv
	.byte	W13
	.byte		        42*seq_124_mvl/mxv
	.byte	W09
	.byte		        49*seq_124_mvl/mxv
	.byte	W14
	.byte		        42*seq_124_mvl/mxv
	.byte	W11
	.byte		        35*seq_124_mvl/mxv
	.byte	W04
	.byte		        28*seq_124_mvl/mxv
	.byte	W04
	.byte		        21*seq_124_mvl/mxv
	.byte	W04
	.byte		        14*seq_124_mvl/mxv
	.byte	W01
	.byte	PEND
	.byte	PATT
	 .word	seq_124_5 + 0x35
	.byte		N48   , As2 , v100
	.byte	W13
	.byte		VOL   , 21*seq_124_mvl/mxv
	.byte	W10
	.byte		MOD   , 20
	.byte	W05
	.byte		VOL   , 28*seq_124_mvl/mxv
	.byte	W08
	.byte		        35*seq_124_mvl/mxv
	.byte	W12
	.byte		N48   , Cs3 
	.byte	W01
	.byte		VOL   , 42*seq_124_mvl/mxv
	.byte	W09
	.byte		        49*seq_124_mvl/mxv
	.byte	W14
	.byte		        42*seq_124_mvl/mxv
	.byte	W11
	.byte		        35*seq_124_mvl/mxv
	.byte	W04
	.byte		        28*seq_124_mvl/mxv
	.byte	W02
	.byte		MOD   , 0
	.byte	W02
	.byte		VOL   , 21*seq_124_mvl/mxv
	.byte	W04
	.byte		        14*seq_124_mvl/mxv
	.byte	W01
	.byte	PEND
	.byte		N48   , En2 , v100
	.byte	W01
	.byte		VOL   , 21*seq_124_mvl/mxv
	.byte	W04
	.byte		        28*seq_124_mvl/mxv
	.byte	W08
	.byte		        21*seq_124_mvl/mxv
	.byte	W10
	.byte		MOD   , 20
	.byte	W05
	.byte		VOL   , 28*seq_124_mvl/mxv
	.byte	W08
	.byte		        35*seq_124_mvl/mxv
	.byte	W12
	.byte		N48   , Gn2 
	.byte	W01
	.byte		VOL   , 42*seq_124_mvl/mxv
	.byte	W09
	.byte		        49*seq_124_mvl/mxv
	.byte	W14
	.byte		        42*seq_124_mvl/mxv
	.byte	W11
	.byte		        35*seq_124_mvl/mxv
	.byte	W04
	.byte		        28*seq_124_mvl/mxv
	.byte	W02
	.byte		MOD   , 0
	.byte	W02
	.byte		VOL   , 21*seq_124_mvl/mxv
	.byte	W05
	.byte	PEND
	.byte		N48   , As2 , v100
	.byte	W23
	.byte		MOD   , 20
	.byte	W05
	.byte		VOL   , 28*seq_124_mvl/mxv
	.byte	W08
	.byte		        35*seq_124_mvl/mxv
	.byte	W12
	.byte		N48   , Cs3 
	.byte	W01
	.byte		VOL   , 42*seq_124_mvl/mxv
	.byte	W09
	.byte		        49*seq_124_mvl/mxv
	.byte	W14
	.byte		        42*seq_124_mvl/mxv
	.byte	W11
	.byte		        35*seq_124_mvl/mxv
	.byte	W04
	.byte		        28*seq_124_mvl/mxv
	.byte	W02
	.byte		MOD   , 0
	.byte	W02
	.byte		VOL   , 21*seq_124_mvl/mxv
	.byte	W04
	.byte		        14*seq_124_mvl/mxv
	.byte	W01
	.byte	PEND
	.byte		N48   , En2 , v100
	.byte	W01
	.byte		VOL   , 21*seq_124_mvl/mxv
	.byte	W04
	.byte		        28*seq_124_mvl/mxv
	.byte	W08
	.byte		        21*seq_124_mvl/mxv
	.byte	W10
	.byte		MOD   , 20
	.byte	W05
	.byte		VOL   , 28*seq_124_mvl/mxv
	.byte	W08
	.byte		        35*seq_124_mvl/mxv
	.byte	W12
	.byte		N48   , Gn2 
	.byte	W01
	.byte		VOL   , 42*seq_124_mvl/mxv
	.byte	W09
	.byte		        49*seq_124_mvl/mxv
	.byte	W14
	.byte		        42*seq_124_mvl/mxv
	.byte	W11
	.byte		        35*seq_124_mvl/mxv
	.byte	W04
	.byte		        28*seq_124_mvl/mxv
	.byte	W02
	.byte		MOD   , 0
	.byte	W02
	.byte		VOL   , 21*seq_124_mvl/mxv
	.byte	W01
	.byte		        14*seq_124_mvl/mxv
	.byte	W04
	.byte	PEND
	.byte	W24
	.byte		N72   , As2 , v100
	.byte	W01
	.byte		VOL   , 21*seq_124_mvl/mxv
	.byte	W03
	.byte		        28*seq_124_mvl/mxv
	.byte	W08
	.byte		        35*seq_124_mvl/mxv
	.byte	W13
	.byte		        42*seq_124_mvl/mxv
	.byte	W09
	.byte		        49*seq_124_mvl/mxv
	.byte	W14
	.byte		        42*seq_124_mvl/mxv
	.byte	W11
	.byte		        35*seq_124_mvl/mxv
	.byte	W04
	.byte		        28*seq_124_mvl/mxv
	.byte	W04
	.byte		        21*seq_124_mvl/mxv
	.byte	W04
	.byte		        14*seq_124_mvl/mxv
	.byte	W01
	.byte	PATT
	 .word	seq_124_5 + 0x35
	.byte	PATT
	 .word	seq_124_5 + 0x56
	.byte	PATT
	 .word	seq_124_5 + 0x35
	.byte		N72   , Fn2 , v100
	.byte		N72   , Cs3 
	.byte	W01
	.byte		VOL   , 35*seq_124_mvl/mxv
	.byte	W04
	.byte		        42*seq_124_mvl/mxv
	.byte	W08
	.byte		        35*seq_124_mvl/mxv
	.byte	W10
	.byte		MOD   , 20
	.byte	W05
	.byte		VOL   , 42*seq_124_mvl/mxv
	.byte	W08
	.byte		        49*seq_124_mvl/mxv
	.byte	W13
	.byte		        56*seq_124_mvl/mxv
	.byte	W09
	.byte		        63*seq_124_mvl/mxv
	.byte	W14
	.byte		N24   , En2 
	.byte		N24   , Cs3 , v060
	.byte	W01
	.byte		VOL   , 56*seq_124_mvl/mxv
	.byte	W10
	.byte		        49*seq_124_mvl/mxv
	.byte	W04
	.byte		        42*seq_124_mvl/mxv
	.byte	W02
	.byte		MOD   , 0
	.byte	W02
	.byte		VOL   , 35*seq_124_mvl/mxv
	.byte	W04
	.byte		        28*seq_124_mvl/mxv
	.byte	W01
	.byte	PEND
	.byte		N72   , Fn2 , v100
	.byte		N72   , Cs3 
	.byte	W01
	.byte		VOL   , 35*seq_124_mvl/mxv
	.byte	W04
	.byte		        42*seq_124_mvl/mxv
	.byte	W08
	.byte		        35*seq_124_mvl/mxv
	.byte	W10
	.byte		MOD   , 20
	.byte	W05
	.byte		VOL   , 42*seq_124_mvl/mxv
	.byte	W08
	.byte		        49*seq_124_mvl/mxv
	.byte	W13
	.byte		        56*seq_124_mvl/mxv
	.byte	W09
	.byte		        63*seq_124_mvl/mxv
	.byte	W14
	.byte		N24   , En2 
	.byte		N24   , Cs3 , v060
	.byte	W01
	.byte		VOL   , 56*seq_124_mvl/mxv
	.byte	W10
	.byte		        49*seq_124_mvl/mxv
	.byte	W04
	.byte		        42*seq_124_mvl/mxv
	.byte	W02
	.byte		MOD   , 0
	.byte	W02
	.byte		VOL   , 35*seq_124_mvl/mxv
	.byte	W05
	.byte	PEND
	.byte	W22
	.byte		MOD   , 20
	.byte	W01
	.byte		VOL   , 28*seq_124_mvl/mxv
	.byte	W01
	.byte		N72   , As2 , v100
	.byte	W04
	.byte		VOL   , 35*seq_124_mvl/mxv
	.byte	W08
	.byte		        42*seq_124_mvl/mxv
	.byte	W13
	.byte		        49*seq_124_mvl/mxv
	.byte	W09
	.byte		        56*seq_124_mvl/mxv
	.byte	W14
	.byte		        49*seq_124_mvl/mxv
	.byte	W11
	.byte		        42*seq_124_mvl/mxv
	.byte	W04
	.byte		        35*seq_124_mvl/mxv
	.byte	W02
	.byte		MOD   , 0
	.byte	W02
	.byte		VOL   , 28*seq_124_mvl/mxv
	.byte	W04
	.byte		        21*seq_124_mvl/mxv
	.byte	W01
	.byte	PEND
	.byte		N96   , As1 , v100
	.byte	W01
	.byte		VOL   , 28*seq_124_mvl/mxv
	.byte	W04
	.byte		        35*seq_124_mvl/mxv
	.byte	W08
	.byte		        28*seq_124_mvl/mxv
	.byte	W10
	.byte		MOD   , 20
	.byte	W05
	.byte		VOL   , 35*seq_124_mvl/mxv
	.byte	W08
	.byte		        42*seq_124_mvl/mxv
	.byte	W13
	.byte		        49*seq_124_mvl/mxv
	.byte	W09
	.byte		        56*seq_124_mvl/mxv
	.byte	W14
	.byte		        49*seq_124_mvl/mxv
	.byte	W11
	.byte		        42*seq_124_mvl/mxv
	.byte	W04
	.byte		        35*seq_124_mvl/mxv
	.byte	W02
	.byte		MOD   , 0
	.byte	W02
	.byte		VOL   , 28*seq_124_mvl/mxv
	.byte	W04
	.byte		        21*seq_124_mvl/mxv
	.byte	W01
	.byte	PEND
	.byte	PATT
	 .word	seq_124_5 + 0x138
	.byte	PATT
	 .word	seq_124_5 + 0x167
	.byte	PATT
	 .word	seq_124_5 + 0x194
	.byte	PATT
	 .word	seq_124_5 + 0x1B7
	.byte		N72   , En2 , v100
	.byte		N72   , Cn3 
	.byte	W01
	.byte		VOL   , 35*seq_124_mvl/mxv
	.byte	W04
	.byte		        42*seq_124_mvl/mxv
	.byte	W08
	.byte		        35*seq_124_mvl/mxv
	.byte	W10
	.byte		MOD   , 20
	.byte	W05
	.byte		VOL   , 42*seq_124_mvl/mxv
	.byte	W08
	.byte		        49*seq_124_mvl/mxv
	.byte	W13
	.byte		        56*seq_124_mvl/mxv
	.byte	W09
	.byte		        63*seq_124_mvl/mxv
	.byte	W14
	.byte		N24   , Ds2 
	.byte		N24   , Cn3 , v060
	.byte	W01
	.byte		VOL   , 56*seq_124_mvl/mxv
	.byte	W10
	.byte		        49*seq_124_mvl/mxv
	.byte	W04
	.byte		        42*seq_124_mvl/mxv
	.byte	W02
	.byte		MOD   , 0
	.byte	W02
	.byte		VOL   , 35*seq_124_mvl/mxv
	.byte	W04
	.byte		        28*seq_124_mvl/mxv
	.byte	W01
	.byte		N72   , En2 , v100
	.byte		N72   , Cn3 
	.byte	W01
	.byte		VOL   , 35*seq_124_mvl/mxv
	.byte	W04
	.byte		        42*seq_124_mvl/mxv
	.byte	W08
	.byte		        35*seq_124_mvl/mxv
	.byte	W10
	.byte		MOD   , 20
	.byte	W05
	.byte		VOL   , 42*seq_124_mvl/mxv
	.byte	W08
	.byte		        49*seq_124_mvl/mxv
	.byte	W13
	.byte		        56*seq_124_mvl/mxv
	.byte	W09
	.byte		        63*seq_124_mvl/mxv
	.byte	W14
	.byte		N24   , Ds2 
	.byte		N24   , Cn3 , v060
	.byte	W01
	.byte		VOL   , 56*seq_124_mvl/mxv
	.byte	W10
	.byte		        49*seq_124_mvl/mxv
	.byte	W04
	.byte		        42*seq_124_mvl/mxv
	.byte	W02
	.byte		MOD   , 0
	.byte	W02
	.byte		VOL   , 35*seq_124_mvl/mxv
	.byte	W05
	.byte	W22
	.byte		MOD   , 20
	.byte	W01
	.byte		VOL   , 28*seq_124_mvl/mxv
	.byte	W01
	.byte		N72   , An2 , v100
	.byte	W04
	.byte		VOL   , 35*seq_124_mvl/mxv
	.byte	W08
	.byte		        42*seq_124_mvl/mxv
	.byte	W13
	.byte		        49*seq_124_mvl/mxv
	.byte	W09
	.byte		        56*seq_124_mvl/mxv
	.byte	W14
	.byte		        49*seq_124_mvl/mxv
	.byte	W11
	.byte		        42*seq_124_mvl/mxv
	.byte	W04
	.byte		        35*seq_124_mvl/mxv
	.byte	W02
	.byte		MOD   , 0
	.byte	W02
	.byte		VOL   , 28*seq_124_mvl/mxv
	.byte	W04
	.byte		        21*seq_124_mvl/mxv
	.byte	W01
	.byte		N96   , An1 
	.byte	W01
	.byte		VOL   , 28*seq_124_mvl/mxv
	.byte	W04
	.byte		        35*seq_124_mvl/mxv
	.byte	W08
	.byte		        28*seq_124_mvl/mxv
	.byte	W10
	.byte		MOD   , 20
	.byte	W05
	.byte		VOL   , 35*seq_124_mvl/mxv
	.byte	W08
	.byte		        42*seq_124_mvl/mxv
	.byte	W13
	.byte		        49*seq_124_mvl/mxv
	.byte	W09
	.byte		        56*seq_124_mvl/mxv
	.byte	W14
	.byte		        49*seq_124_mvl/mxv
	.byte	W11
	.byte		        42*seq_124_mvl/mxv
	.byte	W04
	.byte		        35*seq_124_mvl/mxv
	.byte	W02
	.byte		MOD   , 0
	.byte	W02
	.byte		VOL   , 28*seq_124_mvl/mxv
	.byte	W04
	.byte		        21*seq_124_mvl/mxv
	.byte	W01
	.byte	PATT
	 .word	seq_124_5 + 0x138
	.byte	PATT
	 .word	seq_124_5 + 0x167
	.byte	PATT
	 .word	seq_124_5 + 0x194
	.byte	PATT
	 .word	seq_124_5 + 0x1B7
	.byte	PATT
	 .word	seq_124_5 + 0x138
	.byte	PATT
	 .word	seq_124_5 + 0x167
	.byte	PATT
	 .word	seq_124_5 + 0x194
	.byte	PATT
	 .word	seq_124_5 + 0x1B7
	.byte	PATT
	 .word	seq_124_5 + 0x138
	.byte	PATT
	 .word	seq_124_5 + 0x167
	.byte	PATT
	 .word	seq_124_5 + 0x194
	.byte	PATT
	 .word	seq_124_5 + 0x1B7
	.byte		N72   , Fs2 , v100
	.byte		N72   , Dn3 
	.byte	W01
	.byte		VOL   , 35*seq_124_mvl/mxv
	.byte	W04
	.byte		        42*seq_124_mvl/mxv
	.byte	W08
	.byte		        35*seq_124_mvl/mxv
	.byte	W10
	.byte		MOD   , 20
	.byte	W05
	.byte		VOL   , 42*seq_124_mvl/mxv
	.byte	W08
	.byte		        49*seq_124_mvl/mxv
	.byte	W13
	.byte		        56*seq_124_mvl/mxv
	.byte	W09
	.byte		        63*seq_124_mvl/mxv
	.byte	W14
	.byte		N24   , Fn2 
	.byte		N24   , Dn3 , v060
	.byte	W01
	.byte		VOL   , 56*seq_124_mvl/mxv
	.byte	W10
	.byte		        49*seq_124_mvl/mxv
	.byte	W04
	.byte		        42*seq_124_mvl/mxv
	.byte	W02
	.byte		MOD   , 0
	.byte	W02
	.byte		VOL   , 35*seq_124_mvl/mxv
	.byte	W04
	.byte		        28*seq_124_mvl/mxv
	.byte	W01
	.byte		N72   , Fs2 , v100
	.byte		N72   , Dn3 
	.byte	W01
	.byte		VOL   , 35*seq_124_mvl/mxv
	.byte	W04
	.byte		        42*seq_124_mvl/mxv
	.byte	W08
	.byte		        35*seq_124_mvl/mxv
	.byte	W10
	.byte		MOD   , 20
	.byte	W05
	.byte		VOL   , 42*seq_124_mvl/mxv
	.byte	W08
	.byte		        49*seq_124_mvl/mxv
	.byte	W13
	.byte		        56*seq_124_mvl/mxv
	.byte	W09
	.byte		        63*seq_124_mvl/mxv
	.byte	W14
	.byte		N24   , Fn2 
	.byte		N24   , Dn3 , v060
	.byte	W01
	.byte		VOL   , 56*seq_124_mvl/mxv
	.byte	W10
	.byte		        49*seq_124_mvl/mxv
	.byte	W04
	.byte		        42*seq_124_mvl/mxv
	.byte	W02
	.byte		MOD   , 0
	.byte	W02
	.byte		VOL   , 35*seq_124_mvl/mxv
	.byte	W05
	.byte	W22
	.byte		MOD   , 20
	.byte	W01
	.byte		VOL   , 28*seq_124_mvl/mxv
	.byte	W01
	.byte		N72   , Bn2 , v100
	.byte	W04
	.byte		VOL   , 35*seq_124_mvl/mxv
	.byte	W08
	.byte		        42*seq_124_mvl/mxv
	.byte	W13
	.byte		        49*seq_124_mvl/mxv
	.byte	W09
	.byte		        56*seq_124_mvl/mxv
	.byte	W14
	.byte		        49*seq_124_mvl/mxv
	.byte	W11
	.byte		        42*seq_124_mvl/mxv
	.byte	W04
	.byte		        35*seq_124_mvl/mxv
	.byte	W02
	.byte		MOD   , 0
	.byte	W02
	.byte		VOL   , 28*seq_124_mvl/mxv
	.byte	W04
	.byte		        21*seq_124_mvl/mxv
	.byte	W01
	.byte		N90   , Bn1 
	.byte	W01
	.byte		VOL   , 28*seq_124_mvl/mxv
	.byte	W04
	.byte		        35*seq_124_mvl/mxv
	.byte	W08
	.byte		        28*seq_124_mvl/mxv
	.byte	W10
	.byte		MOD   , 20
	.byte	W05
	.byte		VOL   , 35*seq_124_mvl/mxv
	.byte	W08
	.byte		        42*seq_124_mvl/mxv
	.byte	W13
	.byte		        49*seq_124_mvl/mxv
	.byte	W09
	.byte		        56*seq_124_mvl/mxv
	.byte	W14
	.byte		        49*seq_124_mvl/mxv
	.byte	W11
	.byte		        42*seq_124_mvl/mxv
	.byte	W04
	.byte		        35*seq_124_mvl/mxv
	.byte	W02
	.byte		MOD   , 0
	.byte	W06
	.byte		VOL   , 28*seq_124_mvl/mxv
	.byte	W01
	.byte	PATT
	 .word	seq_124_5 + 0x74
	.byte	PATT
	 .word	seq_124_5 + 0x9A
	.byte		N48   , As2 , v100
	.byte	W23
	.byte		MOD   , 60
	.byte	W05
	.byte		VOL   , 28*seq_124_mvl/mxv
	.byte	W08
	.byte		        35*seq_124_mvl/mxv
	.byte	W12
	.byte		N48   , Cs3 
	.byte	W01
	.byte		VOL   , 42*seq_124_mvl/mxv
	.byte	W09
	.byte		        49*seq_124_mvl/mxv
	.byte	W14
	.byte		        42*seq_124_mvl/mxv
	.byte	W11
	.byte		        35*seq_124_mvl/mxv
	.byte	W04
	.byte		        28*seq_124_mvl/mxv
	.byte	W02
	.byte		MOD   , 0
	.byte	W02
	.byte		VOL   , 21*seq_124_mvl/mxv
	.byte	W04
	.byte		        14*seq_124_mvl/mxv
	.byte	W01
	.byte	PATT
	 .word	seq_124_5 + 0xE5
	.byte	PATT
	 .word	seq_124_5 + 0x74
	.byte	PATT
	 .word	seq_124_5 + 0x9A
	.byte	PATT
	 .word	seq_124_5 + 0xC2
	.byte	PATT
	 .word	seq_124_5 + 0xE5
	.byte	W48
	.byte	W22
	.byte		MOD   , 20
	.byte	W01
	.byte		VOL   , 21*seq_124_mvl/mxv
	.byte	W01
	.byte		N72   , As2 , v100
	.byte	W04
	.byte		VOL   , 28*seq_124_mvl/mxv
	.byte	W08
	.byte		        35*seq_124_mvl/mxv
	.byte	W13
	.byte		        42*seq_124_mvl/mxv
	.byte	W09
	.byte		        49*seq_124_mvl/mxv
	.byte	W14
	.byte		        42*seq_124_mvl/mxv
	.byte	W11
	.byte		        35*seq_124_mvl/mxv
	.byte	W04
	.byte		        28*seq_124_mvl/mxv
	.byte	W02
	.byte		MOD   , 0
	.byte	W02
	.byte		VOL   , 21*seq_124_mvl/mxv
	.byte	W04
	.byte		        14*seq_124_mvl/mxv
	.byte	W01
	.byte	PEND
	.byte	PATT
	 .word	seq_124_5 + 0x35
	.byte	PATT
	 .word	seq_124_5 + 0x3B1
	.byte	W22
	.byte		MOD   , 20
	.byte	W01
	.byte		VOL   , 21*seq_124_mvl/mxv
	.byte	W01
	.byte		N72   , As1 , v100
	.byte	W04
	.byte		VOL   , 28*seq_124_mvl/mxv
	.byte	W08
	.byte		        35*seq_124_mvl/mxv
	.byte	W13
	.byte		        42*seq_124_mvl/mxv
	.byte	W09
	.byte		        49*seq_124_mvl/mxv
	.byte	W14
	.byte		        42*seq_124_mvl/mxv
	.byte	W11
	.byte		        35*seq_124_mvl/mxv
	.byte	W04
	.byte		        28*seq_124_mvl/mxv
	.byte	W02
	.byte		MOD   , 0
	.byte	W02
	.byte		VOL   , 21*seq_124_mvl/mxv
	.byte	W02
	.byte		        14*seq_124_mvl/mxv
	.byte	W03
	.byte	GOTO
	 .word	seq_124_5 + 0x10F
	.byte	FINE

@*********************** Track 07 ***********************@

seq_124_6:
	.byte	KEYSH , seq_124_key+0
	.byte	W12
	.byte		VOICE , 26
	.byte	W01
	.byte		VOL   , 42*seq_124_mvl/mxv
	.byte	W01
	.byte		PAN   , c_v+0
	.byte	W01
	.byte		LFOS  , 20
	.byte	W01
	.byte		MODT  , mod_vib
	.byte	W01
	.byte		BENDR , 12
	.byte	W07
	.byte	W06
	.byte	W96
	.byte	W96
	.byte	W96
	.byte	W96
	.byte	W96
	.byte	W28
	.byte	W01
	.byte		BEND  , c_v-11
	.byte	W01
	.byte		N06   , Gn4 , v120
	.byte	W01
	.byte		BEND  , c_v-6
	.byte	W02
	.byte		        c_v+0
	.byte	W03
	.byte		N06   , An4 
	.byte	W06
	.byte		N30   , As4 
	.byte	W13
	.byte		MOD   , 10
	.byte	W02
	.byte		        0
	.byte	W03
	.byte		        10
	.byte	W01
	.byte		        20
	.byte	W01
	.byte		BEND  , c_v-6
	.byte	W01
	.byte		MOD   , 10
	.byte	W01
	.byte		        0
	.byte	W01
	.byte		BEND  , c_v-11
	.byte	W01
	.byte		        c_v-16
	.byte	W01
	.byte		        c_v-22
	.byte	W01
	.byte		        c_v-27
	.byte	W01
	.byte		        c_v-32
	.byte	W01
	.byte		        c_v-38
	.byte	W01
	.byte		        c_v-43
	.byte	W24
	.byte	W01
	.byte	PEND
	.byte	W92
	.byte	W03
	.byte		BEND  , c_v-6
	.byte	W01
	.byte	PEND
	.byte		N22   , Bn4 , v120
	.byte	W03
	.byte		BEND  , c_v+0
	.byte	W21
	.byte		N22   , Gn4 
	.byte	W06
	.byte		MOD   , 10
	.byte	W02
	.byte		        20
	.byte	W02
	.byte		        0
	.byte	W03
	.byte		        10
	.byte	W02
	.byte		        20
	.byte	W02
	.byte		        0
	.byte	W06
	.byte		BEND  , c_v-6
	.byte	W01
	.byte		N12   , Dn5 
	.byte	W03
	.byte		BEND  , c_v+0
	.byte	W09
	.byte		N12   , As4 
	.byte	W12
	.byte		N24   , Fn5 
	.byte	W06
	.byte		MOD   , 10
	.byte	W01
	.byte		        20
	.byte	W02
	.byte		        0
	.byte	W02
	.byte		        10
	.byte	W02
	.byte		        20
	.byte	W02
	.byte		        0
	.byte	W05
	.byte		BEND  , c_v-6
	.byte	W01
	.byte		        c_v-11
	.byte	W01
	.byte		        c_v-16
	.byte	W01
	.byte		        c_v-22
	.byte	W01
	.byte	W96
	.byte	W96
	.byte	W96
	.byte	W96
	.byte	W96
	.byte	W96
	.byte	W96
	.byte	W96
	.byte	W96
	.byte	W96
	.byte	W96
	.byte	W96
	.byte	W96
	.byte	W96
	.byte	W96
	.byte	W96
	.byte	W96
	.byte	W96
	.byte	W96
	.byte	W96
	.byte	W04
	.byte		BEND  , c_v+0
	.byte	W02
	.byte		N03   , Fn4 , v120
	.byte	W03
	.byte		        Fn4 , v060
	.byte	W03
	.byte		        Fs4 , v120
	.byte	W03
	.byte		        Fs4 , v060
	.byte	W03
	.byte		        Fn5 , v120
	.byte	W03
	.byte		        Fn5 , v060
	.byte	W03
	.byte		N08   , Fs5 , v120
	.byte	W08
	.byte		N03   , Fs5 , v060
	.byte	W10
	.byte		        Ds5 , v120
	.byte	W03
	.byte		        Ds5 , v060
	.byte	W03
	.byte		N08   , Fn5 , v120
	.byte	W08
	.byte		N03   , Fn5 , v060
	.byte	W10
	.byte		        Cs5 , v120
	.byte	W03
	.byte		        Cs5 , v060
	.byte	W03
	.byte		N08   , Ds5 , v120
	.byte	W08
	.byte		N03   , Ds5 , v060
	.byte	W10
	.byte		        Cn5 , v120
	.byte	W03
	.byte		        Cn5 , v060
	.byte	W03
	.byte		N08   , Cs5 , v120
	.byte	W08
	.byte		N03   , Cs5 , v060
	.byte	W10
	.byte		        As4 , v120
	.byte	W03
	.byte		        As4 , v060
	.byte	W03
	.byte		N08   , Cn5 , v120
	.byte	W08
	.byte		N03   , Cn5 , v060
	.byte	W10
	.byte		        Gs3 , v120
	.byte	W03
	.byte		        Gs3 , v060
	.byte	W03
	.byte		N06   , An3 , v120
	.byte	W06
	.byte		N03   , Ds4 
	.byte	W03
	.byte		        Ds4 , v060
	.byte	W03
	.byte		        Gs3 , v120
	.byte	W03
	.byte		        Gs3 , v060
	.byte	W03
	.byte		        An3 , v120
	.byte	W03
	.byte		        An3 , v060
	.byte	W03
	.byte		        As3 , v120
	.byte	W03
	.byte		        As3 , v060
	.byte	W03
	.byte		        Fn3 , v120
	.byte	W03
	.byte		        Fn3 , v060
	.byte	W03
	.byte		        En3 , v120
	.byte	W03
	.byte		        En3 , v060
	.byte	W03
	.byte		        Ds3 , v120
	.byte	W03
	.byte		        Ds3 , v060
	.byte	W03
	.byte	PEND
	.byte		N19   , Cs3 , v100
	.byte	W08
	.byte		BEND  , c_v+5
	.byte	W02
	.byte		        c_v+0
	.byte	W04
	.byte		        c_v-6
	.byte	W01
	.byte		        c_v-11
	.byte	W01
	.byte		        c_v-16
	.byte	W01
	.byte		        c_v-22
	.byte	W01
	.byte		        c_v-27
	.byte	W01
	.byte		        c_v-32
	.byte	W76
	.byte	W01
	.byte	PEND
	.byte	W96
	.byte	W05
	.byte		        c_v+0
	.byte	W01
	.byte		N03   , Fn4 , v120
	.byte	W03
	.byte		        Fn4 , v060
	.byte	W03
	.byte		        Fs4 , v120
	.byte	W03
	.byte		        Fs4 , v060
	.byte	W03
	.byte		        Fn5 , v120
	.byte	W03
	.byte		        Fn5 , v060
	.byte	W03
	.byte		N08   , Fs5 , v120
	.byte	W08
	.byte		N03   , Fs5 , v060
	.byte	W10
	.byte		        Ds5 , v120
	.byte	W03
	.byte		        Ds5 , v060
	.byte	W03
	.byte		N08   , Fn5 , v120
	.byte	W08
	.byte		N03   , Fn5 , v060
	.byte	W10
	.byte		        Cs5 , v120
	.byte	W03
	.byte		        Cs5 , v060
	.byte	W03
	.byte		N08   , Ds5 , v120
	.byte	W08
	.byte		N03   , Ds5 , v060
	.byte	W10
	.byte		        Cn5 , v120
	.byte	W03
	.byte		        Cn5 , v060
	.byte	W03
	.byte	PATT
	 .word	seq_124_6 + 0xE8
	.byte	PATT
	 .word	seq_124_6 + 0x133
	.byte	W96
	.byte	W96
	.byte	W96
	.byte	W96
	.byte	W96
	.byte	W96
	.byte	PATT
	 .word	seq_124_6 + 0x1B
	.byte	PATT
	 .word	seq_124_6 + 0x51
	.byte		N22   , Bn4 , v120
	.byte	W03
	.byte		BEND  , c_v+0
	.byte	W21
	.byte		N22   , Gn4 
	.byte	W06
	.byte		MOD   , 10
	.byte	W02
	.byte		        20
	.byte	W02
	.byte		        0
	.byte	W03
	.byte		        10
	.byte	W02
	.byte		        20
	.byte	W02
	.byte		        0
	.byte	W06
	.byte		BEND  , c_v-6
	.byte	W01
	.byte		N12   , Dn5 
	.byte	W03
	.byte		BEND  , c_v+0
	.byte	W09
	.byte		N12   , As4 
	.byte	W12
	.byte		N24   , Fn4 
	.byte	W06
	.byte		MOD   , 10
	.byte	W01
	.byte		        20
	.byte	W02
	.byte		        0
	.byte	W02
	.byte		        10
	.byte	W02
	.byte		        20
	.byte	W02
	.byte		        0
	.byte	W05
	.byte		BEND  , c_v-6
	.byte	W01
	.byte		        c_v-11
	.byte	W01
	.byte		        c_v-16
	.byte	W01
	.byte		        c_v-22
	.byte	W01
	.byte	W96
	.byte	PATT
	 .word	seq_124_6 + 0x1B
	.byte	PATT
	 .word	seq_124_6 + 0x51
	.byte		N22   , Bn4 , v120
	.byte	W05
	.byte		BEND  , c_v+0
	.byte	W19
	.byte		N22   , Gn4 
	.byte	W06
	.byte		MOD   , 10
	.byte	W02
	.byte		        20
	.byte	W02
	.byte		        0
	.byte	W03
	.byte		        10
	.byte	W02
	.byte		        20
	.byte	W02
	.byte		        0
	.byte	W06
	.byte		BEND  , c_v-6
	.byte	W01
	.byte		N12   , Dn5 
	.byte	W03
	.byte		BEND  , c_v+0
	.byte	W09
	.byte		N12   , As4 
	.byte	W12
	.byte		N24   , Fn5 
	.byte	W06
	.byte		MOD   , 10
	.byte	W01
	.byte		        20
	.byte	W02
	.byte		        0
	.byte	W02
	.byte		        10
	.byte	W02
	.byte		        20
	.byte	W02
	.byte		        0
	.byte	W04
	.byte		BEND  , c_v-6
	.byte	W01
	.byte		        c_v-11
	.byte	W01
	.byte		        c_v-16
	.byte	W01
	.byte		        c_v-22
	.byte	W01
	.byte		        c_v+0
	.byte	W01
	.byte		N24   , Fn5 , v040
	.byte	W06
	.byte		MOD   , 10
	.byte	W01
	.byte		        20
	.byte	W02
	.byte		        0
	.byte	W02
	.byte		        10
	.byte	W02
	.byte		        20
	.byte	W02
	.byte		        0
	.byte	W04
	.byte		BEND  , c_v-6
	.byte	W01
	.byte		        c_v-11
	.byte	W01
	.byte		        c_v-16
	.byte	W01
	.byte		        c_v-22
	.byte	W24
	.byte	W02
	.byte	W96
	.byte	W96
	.byte	W96
	.byte	W96
	.byte	GOTO
	 .word	seq_124_6 + 0x93
	.byte	FINE

@*********************** Track 08 ***********************@

seq_124_7:
	.byte	KEYSH , seq_124_key+0
	.byte	W18
	.byte		VOICE , 126
	.byte	W01
	.byte		VOL   , 28*seq_124_mvl/mxv
	.byte	W01
	.byte		PAN   , c_v+0
	.byte	W04
	.byte	W06
	.byte		N03   , Fn4 , v120
	.byte	W06
	.byte		N02   , Fn4 , v080
	.byte	W90
	.byte	PEND
	.byte	PATT
	 .word	seq_124_7 + 0xD
	.byte	PATT
	 .word	seq_124_7 + 0xD
	.byte	PATT
	 .word	seq_124_7 + 0xD
	.byte	W96
	.byte	W96
	.byte	W96
	.byte	W96
	.byte	PATT
	 .word	seq_124_7 + 0xD
	.byte	PATT
	 .word	seq_124_7 + 0xD
	.byte	PATT
	 .word	seq_124_7 + 0xD
	.byte	PATT
	 .word	seq_124_7 + 0xD
	.byte		N03   , Fn4 , v120
	.byte	W06
	.byte		N02   , Fn4 , v060
	.byte	W40
	.byte	W01
	.byte		        Cn5 , v100
	.byte	W48
	.byte	W01
	.byte	PEND
	.byte	W68
	.byte	W03
	.byte		N02   , Cn5 , v100
	.byte	W24
	.byte	W01
	.byte	PEND
	.byte	W96
	.byte	W96
	.byte	PATT
	 .word	seq_124_7 + 0x3D
	.byte	PATT
	 .word	seq_124_7 + 0x4B
	.byte	W96
	.byte	W96
	.byte	PATT
	 .word	seq_124_7 + 0x3D
	.byte	PATT
	 .word	seq_124_7 + 0x4B
	.byte	W96
	.byte	W96
	.byte	PATT
	 .word	seq_124_7 + 0x3D
	.byte	PATT
	 .word	seq_124_7 + 0x4B
	.byte	W96
	.byte	W96
	.byte		N03   , Fn4 , v120
	.byte	W96
	.byte	W96
	.byte	W96
	.byte	W96
	.byte		N03
	.byte	W96
	.byte	W96
	.byte	W96
	.byte	W96
	.byte	PATT
	 .word	seq_124_7 + 0x3D
	.byte	PATT
	 .word	seq_124_7 + 0x4B
	.byte	W96
	.byte	W96
	.byte	W96
	.byte	W96
	.byte	W96
	.byte	W96
	.byte	W96
	.byte	W96
	.byte	W96
	.byte	W96
	.byte	W48
	.byte	PATT
	 .word	seq_124_7 + 0xD
	.byte	PATT
	 .word	seq_124_7 + 0xD
	.byte	PATT
	 .word	seq_124_7 + 0xD
	.byte	PATT
	 .word	seq_124_7 + 0xD
	.byte	GOTO
	 .word	seq_124_7 + 0x29
	.byte	FINE

@*********************** Track 09 ***********************@

seq_124_8:
	.byte	KEYSH , seq_124_key+0
	.byte	W12
	.byte		VOICE , 104
	.byte	W01
	.byte		VOL   , 90*seq_124_mvl/mxv
	.byte	W01
	.byte		PAN   , c_v+0
	.byte	W01
	.byte		LFOS  , 20
	.byte	W01
	.byte		MODT  , mod_vib
	.byte	W01
	.byte		BENDR , 12
	.byte	W01
	.byte		LFODL , 60
	.byte	W01
	.byte		MOD   , 10
	.byte	W05
	.byte	W06
	.byte	W96
	.byte	W96
	.byte	W96
	.byte	W92
	.byte	W03
	.byte		BEND  , c_v-15
	.byte	W01
	.byte		N23   , As1 , v120
	.byte	W01
	.byte		BEND  , c_v-5
	.byte	W01
	.byte		        c_v+0
	.byte	W13
	.byte		        c_v-5
	.byte	W01
	.byte		        c_v-8
	.byte	W01
	.byte		        c_v-12
	.byte	W01
	.byte		        c_v-21
	.byte	W01
	.byte		        c_v-25
	.byte	W01
	.byte		        c_v-29
	.byte	W01
	.byte		        c_v-35
	.byte	W01
	.byte		        c_v-38
	.byte	W01
	.byte		        c_v-41
	.byte	W06
	.byte		        c_v-11
	.byte	W01
	.byte		N03
	.byte	W02
	.byte		BEND  , c_v+0
	.byte	W04
	.byte		N01
	.byte	W06
	.byte		N02
	.byte	W06
	.byte		N28   , Cs2 
	.byte	W16
	.byte		BEND  , c_v-2
	.byte	W01
	.byte		        c_v-7
	.byte	W01
	.byte		        c_v-9
	.byte	W01
	.byte		        c_v-12
	.byte	W01
	.byte		        c_v-19
	.byte	W01
	.byte		        c_v-23
	.byte	W01
	.byte		        c_v-28
	.byte	W01
	.byte		        c_v-38
	.byte	W01
	.byte		        c_v-45
	.byte	W01
	.byte		        c_v-51
	.byte	W01
	.byte		        c_v-62
	.byte	W01
	.byte		        c_v-64
	.byte	W20
	.byte		        c_v-15
	.byte	W01
	.byte	PEND
	.byte		N23   , En2 , v120
	.byte	W01
	.byte		BEND  , c_v-5
	.byte	W01
	.byte		        c_v+0
	.byte	W13
	.byte		        c_v-5
	.byte	W01
	.byte		        c_v-8
	.byte	W01
	.byte		        c_v-12
	.byte	W01
	.byte		        c_v-21
	.byte	W01
	.byte		        c_v-25
	.byte	W01
	.byte		        c_v-29
	.byte	W01
	.byte		        c_v-35
	.byte	W01
	.byte		        c_v-38
	.byte	W01
	.byte		        c_v-41
	.byte	W06
	.byte		        c_v-11
	.byte	W01
	.byte		N03
	.byte	W02
	.byte		BEND  , c_v+0
	.byte	W04
	.byte		N01   , En1 
	.byte	W06
	.byte		N02   , Fs1 
	.byte	W06
	.byte		N23   , Gn1 
	.byte	W15
	.byte		BEND  , c_v-3
	.byte	W01
	.byte		        c_v-6
	.byte	W01
	.byte		        c_v-13
	.byte	W01
	.byte		        c_v-17
	.byte	W01
	.byte		        c_v-21
	.byte	W01
	.byte		        c_v-30
	.byte	W01
	.byte		        c_v-35
	.byte	W01
	.byte		        c_v-40
	.byte	W01
	.byte		        c_v+0
	.byte	W01
	.byte		N23   , Gn2 
	.byte	W15
	.byte		BEND  , c_v-3
	.byte	W01
	.byte		        c_v-6
	.byte	W01
	.byte		        c_v-13
	.byte	W01
	.byte		        c_v-17
	.byte	W01
	.byte		        c_v-21
	.byte	W01
	.byte		        c_v-30
	.byte	W01
	.byte		        c_v-35
	.byte	W01
	.byte		        c_v-40
	.byte	W01
	.byte		        c_v-15
	.byte	W01
	.byte	PEND
	.byte	PATT
	 .word	seq_124_8 + 0x24
	.byte		N23   , En2 , v120
	.byte	W01
	.byte		BEND  , c_v-5
	.byte	W01
	.byte		        c_v+0
	.byte	W13
	.byte		        c_v-5
	.byte	W01
	.byte		        c_v-8
	.byte	W01
	.byte		        c_v-12
	.byte	W01
	.byte		        c_v-21
	.byte	W01
	.byte		        c_v-25
	.byte	W01
	.byte		        c_v-29
	.byte	W01
	.byte		        c_v-35
	.byte	W01
	.byte		        c_v-38
	.byte	W01
	.byte		        c_v-41
	.byte	W06
	.byte		        c_v-11
	.byte	W01
	.byte		N03
	.byte	W02
	.byte		BEND  , c_v+0
	.byte	W04
	.byte		N01   , En1 
	.byte	W06
	.byte		N02   , Fs1 
	.byte	W06
	.byte		N23   , Gn1 
	.byte	W15
	.byte		BEND  , c_v-3
	.byte	W01
	.byte		        c_v-6
	.byte	W01
	.byte		        c_v-13
	.byte	W01
	.byte		        c_v-17
	.byte	W01
	.byte		        c_v-21
	.byte	W01
	.byte		        c_v-30
	.byte	W01
	.byte		        c_v-35
	.byte	W01
	.byte		        c_v-40
	.byte	W01
	.byte		        c_v+0
	.byte	W01
	.byte		N23   , Gn2 
	.byte	W15
	.byte		BEND  , c_v-3
	.byte	W01
	.byte		        c_v-6
	.byte	W01
	.byte		        c_v-13
	.byte	W01
	.byte		        c_v-17
	.byte	W01
	.byte		        c_v-21
	.byte	W01
	.byte		        c_v-30
	.byte	W01
	.byte		        c_v-35
	.byte	W01
	.byte		        c_v-40
	.byte	W01
	.byte		        c_v+0
	.byte	W01
	.byte	PEND
	.byte	W96
	.byte	W96
	.byte	W96
	.byte	W96
	.byte		N04   , As1 , v120
	.byte	W06
	.byte		N02   , As1 , v060
	.byte	W06
	.byte		N03
	.byte	W06
	.byte		N04   , As1 , v120
	.byte	W06
	.byte		N02   , As1 , v060
	.byte	W06
	.byte		N03
	.byte	W06
	.byte		N03
	.byte	W06
	.byte		N03
	.byte	W06
	.byte		N03
	.byte	W06
	.byte		N04   , As1 , v120
	.byte	W06
	.byte		N02   , As1 , v060
	.byte	W06
	.byte		N03
	.byte	W06
	.byte		N04   , As1 , v120
	.byte	W06
	.byte		N02   , As1 , v060
	.byte	W06
	.byte		N03
	.byte	W06
	.byte		N03
	.byte	W06
	.byte	PEND
	.byte	PATT
	 .word	seq_124_8 + 0x11C
	.byte	PATT
	 .word	seq_124_8 + 0x11C
	.byte	PATT
	 .word	seq_124_8 + 0x11C
	.byte	PATT
	 .word	seq_124_8 + 0x11C
	.byte	PATT
	 .word	seq_124_8 + 0x11C
	.byte	PATT
	 .word	seq_124_8 + 0x11C
	.byte	PATT
	 .word	seq_124_8 + 0x11C
	.byte		N04   , An1 , v120
	.byte	W06
	.byte		N02   , An1 , v060
	.byte	W06
	.byte		N03
	.byte	W06
	.byte		N04   , An1 , v120
	.byte	W06
	.byte		N02   , An1 , v060
	.byte	W06
	.byte		N03
	.byte	W06
	.byte		N03
	.byte	W06
	.byte		N03
	.byte	W06
	.byte		N03
	.byte	W06
	.byte		N04   , An1 , v120
	.byte	W06
	.byte		N02   , An1 , v060
	.byte	W06
	.byte		N03
	.byte	W06
	.byte		N04   , An1 , v120
	.byte	W06
	.byte		N02   , An1 , v060
	.byte	W06
	.byte		N03
	.byte	W06
	.byte		N03
	.byte	W06
	.byte	PEND
	.byte	PATT
	 .word	seq_124_8 + 0x170
	.byte	PATT
	 .word	seq_124_8 + 0x170
	.byte	PATT
	 .word	seq_124_8 + 0x170
	.byte	PATT
	 .word	seq_124_8 + 0x11C
	.byte	PATT
	 .word	seq_124_8 + 0x11C
	.byte	PATT
	 .word	seq_124_8 + 0x11C
	.byte	PATT
	 .word	seq_124_8 + 0x11C
	.byte	PATT
	 .word	seq_124_8 + 0x11C
	.byte	PATT
	 .word	seq_124_8 + 0x11C
	.byte	PATT
	 .word	seq_124_8 + 0x11C
	.byte	PATT
	 .word	seq_124_8 + 0x11C
	.byte	PATT
	 .word	seq_124_8 + 0x11C
	.byte	PATT
	 .word	seq_124_8 + 0x11C
	.byte	PATT
	 .word	seq_124_8 + 0x11C
	.byte	PATT
	 .word	seq_124_8 + 0x11C
	.byte		N04   , Bn1 , v120
	.byte	W06
	.byte		N02   , Bn1 , v060
	.byte	W06
	.byte		N03
	.byte	W06
	.byte		N04   , Bn1 , v120
	.byte	W06
	.byte		N02   , Bn1 , v060
	.byte	W06
	.byte		N03
	.byte	W06
	.byte		N03
	.byte	W06
	.byte		N03
	.byte	W06
	.byte		N03
	.byte	W06
	.byte		N04   , Bn1 , v120
	.byte	W06
	.byte		N02   , Bn1 , v060
	.byte	W06
	.byte		N03
	.byte	W06
	.byte		N04   , Bn1 , v120
	.byte	W06
	.byte		N02   , Bn1 , v060
	.byte	W06
	.byte		N03
	.byte	W06
	.byte		N03
	.byte	W06
	.byte	PEND
	.byte	PATT
	 .word	seq_124_8 + 0x1EC
	.byte	PATT
	 .word	seq_124_8 + 0x1EC
	.byte		N04   , Bn1 , v120
	.byte	W06
	.byte		N02   , Bn1 , v060
	.byte	W06
	.byte		N03
	.byte	W06
	.byte		N04   , Bn1 , v120
	.byte	W06
	.byte		N02   , Bn1 , v060
	.byte	W06
	.byte		N03
	.byte	W06
	.byte		N03
	.byte	W06
	.byte		N03
	.byte	W06
	.byte		N03
	.byte	W06
	.byte		N04   , Bn1 , v120
	.byte	W06
	.byte		N02   , Bn1 , v060
	.byte	W06
	.byte		N03
	.byte	W06
	.byte		N04   , Bn1 , v120
	.byte	W06
	.byte		N02   , Bn1 , v060
	.byte	W06
	.byte		N03
	.byte	W06
	.byte		N03
	.byte	W05
	.byte		BEND  , c_v-15
	.byte	W01
	.byte	PATT
	 .word	seq_124_8 + 0x24
	.byte	PATT
	 .word	seq_124_8 + 0x69
	.byte	PATT
	 .word	seq_124_8 + 0x24
	.byte	PATT
	 .word	seq_124_8 + 0xC3
	.byte	PATT
	 .word	seq_124_8 + 0x24
	.byte	PATT
	 .word	seq_124_8 + 0x69
	.byte	PATT
	 .word	seq_124_8 + 0x24
	.byte	PATT
	 .word	seq_124_8 + 0xC3
	.byte	W48
	.byte	W96
	.byte	W96
	.byte	W96
	.byte	W96
	.byte	GOTO
	 .word	seq_124_8 + 0x118
	.byte	FINE

@*********************** Track 10 ***********************@

seq_124_9:
	.byte	KEYSH , seq_124_key+0
	.byte	W12
	.byte		VOICE , 72
	.byte	W01
	.byte		VOL   , 35*seq_124_mvl/mxv
	.byte	W01
	.byte		PAN   , c_v+0
	.byte	W01
	.byte		LFOS  , 10
	.byte	W01
	.byte		MODT  , mod_pan
	.byte	W01
	.byte		LFODL , 0
	.byte	W07
	.byte	W06
	.byte	W96
	.byte	W96
	.byte	W96
	.byte	W96
	.byte		N04   , Cs4 , v120
	.byte	W06
	.byte		N06   , Cs4 , v040
	.byte	W06
	.byte		N04   , Cn4 , v120
	.byte	W06
	.byte		N06   , Cn4 , v040
	.byte	W06
	.byte		N04   , Fn4 , v120
	.byte	W06
	.byte		N06   , Fn4 , v040
	.byte	W06
	.byte		N04   , Ds4 , v120
	.byte	W06
	.byte		N06   , Ds4 , v040
	.byte	W06
	.byte		N05   , En4 , v120
	.byte	W06
	.byte		N12   , En4 , v060
	.byte	W12
	.byte		        En4 , v040
	.byte	W12
	.byte		N04   , En4 , v120
	.byte	W05
	.byte		N01   , En4 , v060
	.byte	W01
	.byte		N04   , Fs4 , v120
	.byte	W05
	.byte		N01   , Fs4 , v060
	.byte	W01
	.byte		N04   , Gn4 , v120
	.byte	W06
	.byte	PEND
	.byte		N12   , Gn4 , v060
	.byte	W12
	.byte		        Gn4 , v040
	.byte	W32
	.byte	W03
	.byte		VOICE , 74
	.byte	W01
	.byte		N02   , Gn4 , v120
	.byte	W04
	.byte		        Gn4 , v060
	.byte	W02
	.byte		        Fs4 , v120
	.byte	W04
	.byte		        Fs4 , v060
	.byte	W02
	.byte		        Gn4 , v120
	.byte	W04
	.byte		        Gn4 , v060
	.byte	W02
	.byte		        Gs4 , v120
	.byte	W04
	.byte		        Gs4 , v060
	.byte	W02
	.byte		        An4 , v120
	.byte	W04
	.byte		        An4 , v060
	.byte	W02
	.byte		        As4 , v120
	.byte	W04
	.byte		        As4 , v060
	.byte	W02
	.byte		        Bn4 , v120
	.byte	W04
	.byte		        Bn4 , v060
	.byte	W02
	.byte		        Cn5 , v120
	.byte	W04
	.byte		        Cn5 , v060
	.byte	W01
	.byte		MOD   , 0
	.byte	W01
	.byte	PEND
	.byte		N02   , Cs5 , v120
	.byte	W04
	.byte		        Cs5 , v060
	.byte	W02
	.byte		        As4 , v120
	.byte	W04
	.byte		        As4 , v060
	.byte	W02
	.byte		        Fn4 , v120
	.byte	W04
	.byte		        Fn4 , v060
	.byte	W02
	.byte		        Cs4 , v120
	.byte	W04
	.byte		        Cs4 , v060
	.byte	W01
	.byte		MOD   , 60
	.byte	W01
	.byte		N06   , Fn5 , v120
	.byte	W06
	.byte		        Fn5 , v060
	.byte	W06
	.byte		        Fn5 , v040
	.byte	W11
	.byte		VOL   , 28*seq_124_mvl/mxv
	.byte	W01
	.byte		N06   , Gs4 , v100
	.byte	W06
	.byte		        An4 
	.byte	W01
	.byte		VOL   , 35*seq_124_mvl/mxv
	.byte	W03
	.byte		        42*seq_124_mvl/mxv
	.byte	W02
	.byte		N06   , Gs4 
	.byte	W03
	.byte		VOL   , 49*seq_124_mvl/mxv
	.byte	W03
	.byte		N06   , An4 
	.byte	W01
	.byte		VOL   , 42*seq_124_mvl/mxv
	.byte	W04
	.byte		        35*seq_124_mvl/mxv
	.byte	W01
	.byte		N06   , Gs4 
	.byte	W03
	.byte		VOL   , 28*seq_124_mvl/mxv
	.byte	W03
	.byte		N06   , An4 
	.byte	W01
	.byte		VOL   , 21*seq_124_mvl/mxv
	.byte	W03
	.byte		        14*seq_124_mvl/mxv
	.byte	W02
	.byte		N06   , Gs4 
	.byte	W03
	.byte		VOL   , 7*seq_124_mvl/mxv
	.byte	W03
	.byte		N06   , An4 
	.byte	W02
	.byte		VOL   , 0*seq_124_mvl/mxv
	.byte	W03
	.byte		        7*seq_124_mvl/mxv
	.byte	W01
	.byte	PEND
	.byte		N06   , Dn4 
	.byte	W05
	.byte		VOL   , 14*seq_124_mvl/mxv
	.byte	W01
	.byte		N06   , Ds4 
	.byte	W06
	.byte		        Dn4 
	.byte	W06
	.byte		        Ds4 
	.byte	W03
	.byte		VOL   , 21*seq_124_mvl/mxv
	.byte	W03
	.byte		N06   , Dn4 
	.byte	W06
	.byte		        Ds4 
	.byte	W04
	.byte		VOL   , 28*seq_124_mvl/mxv
	.byte	W02
	.byte		N06   , Dn4 
	.byte	W04
	.byte		VOL   , 35*seq_124_mvl/mxv
	.byte	W02
	.byte		N06   , Ds4 
	.byte	W05
	.byte		VOL   , 28*seq_124_mvl/mxv
	.byte	W01
	.byte		N06   , Fn4 
	.byte	W05
	.byte		VOL   , 35*seq_124_mvl/mxv
	.byte	W01
	.byte		N06   , Fs4 
	.byte	W04
	.byte		VOL   , 42*seq_124_mvl/mxv
	.byte	W02
	.byte		N06   , Fn4 
	.byte	W03
	.byte		VOL   , 49*seq_124_mvl/mxv
	.byte	W03
	.byte		N06   , Fs4 
	.byte	W01
	.byte		VOL   , 42*seq_124_mvl/mxv
	.byte	W04
	.byte		        35*seq_124_mvl/mxv
	.byte	W01
	.byte		N06   , Fn4 
	.byte	W03
	.byte		VOL   , 28*seq_124_mvl/mxv
	.byte	W03
	.byte		N06   , Fs4 
	.byte	W01
	.byte		VOL   , 21*seq_124_mvl/mxv
	.byte	W03
	.byte		        14*seq_124_mvl/mxv
	.byte	W02
	.byte		N06   , Fn4 
	.byte	W03
	.byte		VOL   , 7*seq_124_mvl/mxv
	.byte	W03
	.byte		N06   , Fs4 
	.byte	W02
	.byte		VOL   , 0*seq_124_mvl/mxv
	.byte	W04
	.byte	W92
	.byte	W03
	.byte		VOL   , 35*seq_124_mvl/mxv
	.byte	W01
	.byte	W96
	.byte	W96
	.byte	W92
	.byte	W03
	.byte		VOICE , 74
	.byte	W01
	.byte	PEND
	.byte		N10   , Cs4 , v120
	.byte	W11
	.byte		VOICE , 76
	.byte	W01
	.byte		N12   , Cs4 , v040
	.byte	W11
	.byte		VOICE , 74
	.byte	W01
	.byte		N10   , Cn4 , v120
	.byte	W11
	.byte		VOICE , 76
	.byte	W01
	.byte		N12   , Cn4 , v040
	.byte	W11
	.byte		VOICE , 74
	.byte	W01
	.byte		N10   , Gs3 , v120
	.byte	W11
	.byte		VOICE , 76
	.byte	W01
	.byte		N12   , Gs3 , v040
	.byte	W11
	.byte		VOICE , 74
	.byte	W01
	.byte		N12   , En3 , v120
	.byte	W11
	.byte		VOICE , 79
	.byte	W01
	.byte		N12   , Gs3 
	.byte	W11
	.byte		VOICE , 74
	.byte	W01
	.byte	PEND
	.byte		N12   , Gs3 , v040
	.byte	W12
	.byte		        Fn3 , v120
	.byte	W12
	.byte		N24   , Fn3 , v040
	.byte	W24
	.byte		N06   , Fn3 , v120
	.byte	W06
	.byte		        Fs3 
	.byte	W06
	.byte		N04   , Gs3 
	.byte	W06
	.byte		N06   , Gs3 , v040
	.byte	W06
	.byte		N04   , Fs3 , v120
	.byte	W06
	.byte		N06   , Fs3 , v040
	.byte	W06
	.byte		N04   , En3 , v120
	.byte	W06
	.byte		N06   , En3 , v040
	.byte	W06
	.byte	PEND
	.byte		N10   , Fn3 , v120
	.byte	W10
	.byte		N14   , Fn3 , v060
	.byte	W14
	.byte		N12   , Fn3 , v040
	.byte	W72
	.byte	W96
	.byte	PATT
	 .word	seq_124_9 + 0x15E
	.byte	PATT
	 .word	seq_124_9 + 0x196
	.byte		N10   , Fn3 , v120
	.byte	W10
	.byte		N14   , Fn3 , v060
	.byte	W14
	.byte		N12   , Fn3 , v040
	.byte	W24
	.byte		N06   , Fn5 , v100
	.byte	W06
	.byte		        Fs5 
	.byte	W06
	.byte		N04   , Gs5 
	.byte	W06
	.byte		N06   , Gs5 , v060
	.byte	W06
	.byte		N04   , Fs5 , v100
	.byte	W06
	.byte		N06   , Fs5 , v060
	.byte	W06
	.byte		N04   , En5 , v100
	.byte	W06
	.byte		N06   , En5 , v060
	.byte	W06
	.byte		N10   , Fn5 , v100
	.byte	W10
	.byte		N14   , Fn5 , v060
	.byte	W14
	.byte		N12   , Fn5 , v040
	.byte	W22
	.byte		MOD   , 120
	.byte	W01
	.byte		VOICE , 78
	.byte	W01
	.byte		N03   , Gs3 , v120
	.byte	W03
	.byte		        Gs3 , v060
	.byte	W03
	.byte		        An3 , v120
	.byte	W03
	.byte		        An3 , v060
	.byte	W03
	.byte		        Cs4 , v120
	.byte	W03
	.byte		        Cs4 , v060
	.byte	W03
	.byte		        Dn4 , v120
	.byte	W03
	.byte		        Dn4 , v060
	.byte	W03
	.byte		        Gs4 , v120
	.byte	W03
	.byte		        Gs4 , v060
	.byte	W03
	.byte		        An4 , v120
	.byte	W03
	.byte		        An4 , v060
	.byte	W03
	.byte		N02   , Fn4 , v120
	.byte	W03
	.byte		N03   , Fn4 , v060
	.byte	W03
	.byte		N02   , Fs4 , v120
	.byte	W03
	.byte		N03   , Fs4 , v060
	.byte	W01
	.byte		MOD   , 0
	.byte	W01
	.byte		VOICE , 74
	.byte	W01
	.byte		N10   , Cn4 , v120
	.byte	W11
	.byte		VOICE , 76
	.byte	W01
	.byte		N12   , Cn4 , v040
	.byte	W11
	.byte		VOICE , 74
	.byte	W01
	.byte		N10   , Bn3 , v120
	.byte	W11
	.byte		VOICE , 76
	.byte	W01
	.byte		N12   , Bn3 , v040
	.byte	W11
	.byte		VOICE , 74
	.byte	W01
	.byte		N10   , Gn3 , v120
	.byte	W11
	.byte		VOICE , 76
	.byte	W01
	.byte		N12   , Gn3 , v040
	.byte	W11
	.byte		VOICE , 74
	.byte	W01
	.byte		N12   , Ds3 , v120
	.byte	W11
	.byte		VOICE , 79
	.byte	W01
	.byte		N12   , Gn3 
	.byte	W11
	.byte		VOICE , 74
	.byte	W01
	.byte		N12   , Gn3 , v040
	.byte	W12
	.byte		        En3 , v120
	.byte	W12
	.byte		N24   , En3 , v040
	.byte	W24
	.byte		N06   , En3 , v120
	.byte	W06
	.byte		        Fn3 
	.byte	W06
	.byte		N04   , Gn3 
	.byte	W06
	.byte		N06   , Gn3 , v040
	.byte	W06
	.byte		N04   , Fn3 , v120
	.byte	W06
	.byte		N06   , Fn3 , v040
	.byte	W06
	.byte		N04   , Ds3 , v120
	.byte	W06
	.byte		N06   , Ds3 , v040
	.byte	W06
	.byte		N10   , En3 , v120
	.byte	W10
	.byte		N14   , En3 , v060
	.byte	W14
	.byte		N12   , En3 , v040
	.byte	W72
	.byte	W96
	.byte	PATT
	 .word	seq_124_9 + 0x15E
	.byte		N12   , Gs3 , v040
	.byte	W12
	.byte		        Fn3 , v120
	.byte	W12
	.byte		N24   , Fn3 , v040
	.byte	W24
	.byte		N06   , Fn4 , v120
	.byte	W06
	.byte		        Fs4 
	.byte	W06
	.byte		N04   , Gs4 
	.byte	W06
	.byte		N06   , Gs4 , v040
	.byte	W06
	.byte		N04   , Fs4 , v120
	.byte	W06
	.byte		N06   , Fs4 , v040
	.byte	W06
	.byte		N04   , En4 , v120
	.byte	W06
	.byte		N06   , En4 , v040
	.byte	W06
	.byte		N10   , Fn4 , v120
	.byte	W10
	.byte		N14   , Fn4 , v060
	.byte	W14
	.byte		N12   , Fn4 , v040
	.byte	W24
	.byte		N06   , Fn5 , v100
	.byte	W06
	.byte		        Fs5 
	.byte	W06
	.byte		N04   , Gs5 
	.byte	W06
	.byte		N06   , Gs5 , v060
	.byte	W06
	.byte		N04   , Fs5 , v100
	.byte	W06
	.byte		N06   , Fs5 , v060
	.byte	W06
	.byte		N04   , En5 , v100
	.byte	W06
	.byte		N06   , En5 , v060
	.byte	W06
	.byte		N10   , Fn5 , v100
	.byte	W10
	.byte		N14   , Fn5 , v060
	.byte	W14
	.byte		N12   , Fn5 , v040
	.byte	W22
	.byte		MOD   , 120
	.byte	W01
	.byte		VOICE , 78
	.byte	W01
	.byte		N03   , Gs3 , v120
	.byte	W03
	.byte		        Gs3 , v060
	.byte	W03
	.byte		        An3 , v120
	.byte	W03
	.byte		        An3 , v060
	.byte	W03
	.byte		        Cs4 , v120
	.byte	W03
	.byte		        Cs4 , v060
	.byte	W03
	.byte		        Dn4 , v120
	.byte	W03
	.byte		        Dn4 , v060
	.byte	W03
	.byte		        Gs4 , v120
	.byte	W03
	.byte		        Gs4 , v060
	.byte	W03
	.byte		        An4 , v120
	.byte	W03
	.byte		        An4 , v060
	.byte	W03
	.byte		N02   , Fn4 , v120
	.byte	W03
	.byte		N03   , Fn4 , v060
	.byte	W03
	.byte		N02   , Fs4 , v120
	.byte	W03
	.byte		N03   , Fs4 , v060
	.byte	W03
	.byte	W04
	.byte		MOD   , 0
	.byte	W02
	.byte		N03   , Fn3 , v120
	.byte	W03
	.byte		        Fn3 , v060
	.byte	W03
	.byte		        Fs3 , v120
	.byte	W03
	.byte		        Fs3 , v060
	.byte	W03
	.byte		        Fn4 , v120
	.byte	W03
	.byte		        Fn4 , v060
	.byte	W03
	.byte		N08   , Fs4 , v120
	.byte	W08
	.byte		N03   , Fs4 , v060
	.byte	W04
	.byte		N06
	.byte	W06
	.byte		N03   , Ds4 , v120
	.byte	W03
	.byte		        Ds4 , v060
	.byte	W03
	.byte		N08   , Fn4 , v120
	.byte	W08
	.byte		N03   , Fn4 , v060
	.byte	W04
	.byte		N06
	.byte	W06
	.byte		N03   , Cs4 , v120
	.byte	W03
	.byte		        Cs4 , v060
	.byte	W03
	.byte		N08   , Ds4 , v120
	.byte	W08
	.byte		N03   , Ds4 , v060
	.byte	W04
	.byte		N06
	.byte	W06
	.byte		N03   , Cn4 , v120
	.byte	W03
	.byte		        Cn4 , v060
	.byte	W03
	.byte		N08   , Cs4 , v120
	.byte	W08
	.byte		N03   , Cs4 , v060
	.byte	W04
	.byte		N06
	.byte	W06
	.byte		N03   , As3 , v120
	.byte	W03
	.byte		        As3 , v060
	.byte	W03
	.byte		N08   , Cn4 , v120
	.byte	W08
	.byte		N03   , Cn4 , v060
	.byte	W04
	.byte		N06
	.byte	W05
	.byte		VOICE , 97
	.byte	W01
	.byte		N03   , Gs5 , v120
	.byte	W03
	.byte		        Gs5 , v060
	.byte	W03
	.byte		N06   , An5 , v120
	.byte	W06
	.byte		N03   , Ds5 
	.byte	W03
	.byte		        Ds5 , v060
	.byte	W03
	.byte		        Gs4 , v120
	.byte	W03
	.byte		        Gs4 , v060
	.byte	W03
	.byte		        An4 , v120
	.byte	W03
	.byte		        An4 , v060
	.byte	W03
	.byte		        As4 , v120
	.byte	W03
	.byte		        As4 , v060
	.byte	W03
	.byte		        Fn4 , v120
	.byte	W03
	.byte		        Fn4 , v060
	.byte	W03
	.byte		        En4 , v120
	.byte	W03
	.byte		        En4 , v060
	.byte	W03
	.byte		        Ds4 , v120
	.byte	W03
	.byte		        Ds4 , v060
	.byte	W03
	.byte	PEND
	.byte		N10   , Cs3 , v080
	.byte	W10
	.byte		N14   , Cs3 , v040
	.byte	W84
	.byte	W02
	.byte	PEND
	.byte	W96
	.byte	W05
	.byte		VOICE , 78
	.byte	W01
	.byte		N03   , Fn3 , v120
	.byte	W03
	.byte		        Fn3 , v060
	.byte	W03
	.byte		        Fs3 , v120
	.byte	W03
	.byte		        Fs3 , v060
	.byte	W03
	.byte		        Fn4 , v120
	.byte	W03
	.byte		        Fn4 , v060
	.byte	W03
	.byte		N08   , Fs4 , v120
	.byte	W08
	.byte		N03   , Fs4 , v060
	.byte	W04
	.byte		N06
	.byte	W06
	.byte		N03   , Ds4 , v120
	.byte	W03
	.byte		        Ds4 , v060
	.byte	W03
	.byte		N08   , Fn4 , v120
	.byte	W08
	.byte		N03   , Fn4 , v060
	.byte	W04
	.byte		N06
	.byte	W06
	.byte		N03   , Cs4 , v120
	.byte	W03
	.byte		        Cs4 , v060
	.byte	W03
	.byte		N08   , Ds4 , v120
	.byte	W08
	.byte		N03   , Ds4 , v060
	.byte	W04
	.byte		N06
	.byte	W06
	.byte		N03   , Cn4 , v120
	.byte	W03
	.byte		        Cn4 , v060
	.byte	W03
	.byte	PATT
	 .word	seq_124_9 + 0x39F
	.byte	PATT
	 .word	seq_124_9 + 0x3F3
	.byte	PATT
	 .word	seq_124_9 + 0x158
	.byte		N10   , Dn5 , v120
	.byte	W11
	.byte		VOICE , 76
	.byte	W01
	.byte		N12   , Dn5 , v040
	.byte	W10
	.byte		MOD   , 60
	.byte	W01
	.byte		VOICE , 74
	.byte	W01
	.byte		N10   , Cs5 , v120
	.byte	W11
	.byte		VOICE , 76
	.byte	W01
	.byte		N12   , Cs5 , v040
	.byte	W10
	.byte		MOD   , 0
	.byte	W01
	.byte		VOICE , 74
	.byte	W01
	.byte		N10   , An4 , v120
	.byte	W11
	.byte		VOICE , 76
	.byte	W01
	.byte		N12   , An4 , v040
	.byte	W10
	.byte		MOD   , 60
	.byte	W01
	.byte		VOICE , 74
	.byte	W01
	.byte		N12   , Fn4 , v120
	.byte	W11
	.byte		VOICE , 79
	.byte	W01
	.byte		N12   , An4 
	.byte	W11
	.byte		VOICE , 74
	.byte	W01
	.byte		N12   , An4 , v040
	.byte	W12
	.byte		        Fs4 , v120
	.byte	W12
	.byte		N24   , Fs4 , v040
	.byte	W24
	.byte		N06   , Fs4 , v120
	.byte	W06
	.byte		        Gn4 
	.byte	W06
	.byte		N04   , An4 
	.byte	W06
	.byte		N06   , An4 , v040
	.byte	W06
	.byte		N04   , Gn4 , v120
	.byte	W06
	.byte		N06   , Gn4 , v040
	.byte	W06
	.byte		N04   , An4 , v120
	.byte	W06
	.byte		N06   , An4 , v040
	.byte	W06
	.byte		N10   , Fs4 , v100
	.byte	W10
	.byte		N14   , Fs4 , v060
	.byte	W84
	.byte	W02
	.byte	W92
	.byte	W01
	.byte		MOD   , 0
	.byte	W02
	.byte		VOICE , 72
	.byte	W01
	.byte	PATT
	 .word	seq_124_9 + 0x1A
	.byte	PATT
	 .word	seq_124_9 + 0x5A
	.byte	PATT
	 .word	seq_124_9 + 0x9A
	.byte		N06   , Dn4 , v100
	.byte	W05
	.byte		VOL   , 14*seq_124_mvl/mxv
	.byte	W01
	.byte		N06   , Ds4 
	.byte	W06
	.byte		        Dn4 
	.byte	W06
	.byte		        Ds4 
	.byte	W03
	.byte		VOL   , 21*seq_124_mvl/mxv
	.byte	W03
	.byte		N06   , Dn4 
	.byte	W06
	.byte		        Ds4 
	.byte	W04
	.byte		VOL   , 28*seq_124_mvl/mxv
	.byte	W02
	.byte		N06   , Dn4 
	.byte	W04
	.byte		VOL   , 35*seq_124_mvl/mxv
	.byte	W02
	.byte		N06   , Ds4 
	.byte	W05
	.byte		VOL   , 28*seq_124_mvl/mxv
	.byte	W01
	.byte		N06   , Fn4 
	.byte	W05
	.byte		VOL   , 35*seq_124_mvl/mxv
	.byte	W01
	.byte		N06   , Fs4 
	.byte	W04
	.byte		VOL   , 42*seq_124_mvl/mxv
	.byte	W02
	.byte		N06   , Fn4 
	.byte	W03
	.byte		VOL   , 49*seq_124_mvl/mxv
	.byte	W03
	.byte		N06   , Fs4 
	.byte	W01
	.byte		VOL   , 42*seq_124_mvl/mxv
	.byte	W04
	.byte		        35*seq_124_mvl/mxv
	.byte	W01
	.byte		N06   , Fn4 
	.byte	W03
	.byte		VOL   , 28*seq_124_mvl/mxv
	.byte	W03
	.byte		N06   , Fs4 
	.byte	W01
	.byte		VOL   , 21*seq_124_mvl/mxv
	.byte	W03
	.byte		        14*seq_124_mvl/mxv
	.byte	W02
	.byte		N06   , Fn4 
	.byte	W03
	.byte		VOL   , 7*seq_124_mvl/mxv
	.byte	W03
	.byte		N06   , Fs4 
	.byte	W02
	.byte		VOL   , 0*seq_124_mvl/mxv
	.byte	W01
	.byte		MOD   , 0
	.byte	W01
	.byte		VOL   , 35*seq_124_mvl/mxv
	.byte	W01
	.byte		VOICE , 72
	.byte	W01
	.byte	PATT
	 .word	seq_124_9 + 0x1A
	.byte	PATT
	 .word	seq_124_9 + 0x5A
	.byte	PATT
	 .word	seq_124_9 + 0x9A
	.byte		N06   , Dn4 , v100
	.byte	W05
	.byte		VOL   , 14*seq_124_mvl/mxv
	.byte	W01
	.byte		N06   , Ds4 
	.byte	W06
	.byte		        Dn4 
	.byte	W06
	.byte		        Ds4 
	.byte	W03
	.byte		VOL   , 21*seq_124_mvl/mxv
	.byte	W03
	.byte		N06   , Dn4 
	.byte	W06
	.byte		        Ds4 
	.byte	W04
	.byte		VOL   , 28*seq_124_mvl/mxv
	.byte	W02
	.byte		N06   , Dn4 
	.byte	W04
	.byte		VOL   , 35*seq_124_mvl/mxv
	.byte	W02
	.byte		N06   , Ds4 
	.byte	W05
	.byte		VOL   , 28*seq_124_mvl/mxv
	.byte	W01
	.byte		N06   , Fn4 
	.byte	W05
	.byte		VOL   , 35*seq_124_mvl/mxv
	.byte	W01
	.byte		N06   , Fs4 
	.byte	W04
	.byte		VOL   , 42*seq_124_mvl/mxv
	.byte	W02
	.byte		N06   , Fn4 
	.byte	W03
	.byte		VOL   , 49*seq_124_mvl/mxv
	.byte	W03
	.byte		N06   , Fs4 
	.byte	W01
	.byte		VOL   , 42*seq_124_mvl/mxv
	.byte	W04
	.byte		        35*seq_124_mvl/mxv
	.byte	W01
	.byte		N06   , Fn4 
	.byte	W03
	.byte		VOL   , 28*seq_124_mvl/mxv
	.byte	W03
	.byte		N06   , Fs4 
	.byte	W01
	.byte		VOL   , 21*seq_124_mvl/mxv
	.byte	W03
	.byte		        14*seq_124_mvl/mxv
	.byte	W02
	.byte		N06   , Fn4 
	.byte	W03
	.byte		VOL   , 7*seq_124_mvl/mxv
	.byte	W03
	.byte		N06   , Fs4 
	.byte	W02
	.byte		VOL   , 0*seq_124_mvl/mxv
	.byte	W03
	.byte		        35*seq_124_mvl/mxv
	.byte	W01
	.byte		N03   , Fn2 , v120
	.byte	W04
	.byte		N02   , Fn2 , v060
	.byte	W02
	.byte		N03   , As2 , v120
	.byte	W04
	.byte		N02   , As2 , v060
	.byte	W02
	.byte		N03   , Ds3 , v120
	.byte	W04
	.byte		N02   , Ds3 , v060
	.byte	W02
	.byte		N03   , Gs3 , v120
	.byte	W04
	.byte		N02   , Gs3 , v060
	.byte	W02
	.byte		N03   , Cs4 , v120
	.byte	W04
	.byte		N02   , Cs4 , v060
	.byte	W02
	.byte		N03   , Fs4 , v120
	.byte	W04
	.byte		N02   , Fs4 , v060
	.byte	W02
	.byte		N03   , Bn4 , v120
	.byte	W04
	.byte		N02   , Bn4 , v060
	.byte	W02
	.byte		N03   , En5 , v120
	.byte	W04
	.byte		N02   , En5 , v060
	.byte	W02
	.byte	W96
	.byte	W96
	.byte	W96
	.byte	W96
	.byte	GOTO
	 .word	seq_124_9 + 0x151
	.byte	FINE

@*********************** Track 11 ***********************@

seq_124_10:
	.byte	KEYSH , seq_124_key+0
	.byte	W18
	.byte		VOICE , 83
	.byte	W01
	.byte		VOL   , 28*seq_124_mvl/mxv
	.byte	W01
	.byte		PAN   , c_v+0
	.byte	W01
	.byte		LFOS  , 10
	.byte	W01
	.byte		MODT  , mod_pan
	.byte	W01
	.byte		LFODL , 0
	.byte	W01
	.byte	W06
	.byte	W96
	.byte	W96
	.byte	W96
	.byte	W96
	.byte		N05   , Fn3 , v120
	.byte	W06
	.byte		N06   , Fn3 , v040
	.byte	W06
	.byte		N05   , Ds3 , v120
	.byte	W06
	.byte		N06   , Ds3 , v040
	.byte	W06
	.byte		N05   , Gs3 , v120
	.byte	W06
	.byte		N06   , Gs3 , v040
	.byte	W06
	.byte		N05   , Fs3 , v120
	.byte	W06
	.byte		N06   , Fs3 , v040
	.byte	W06
	.byte		N05   , Gs3 , v120
	.byte	W06
	.byte		N24   , Gs3 , v040
	.byte	W24
	.byte		N04   , Gs3 , v120
	.byte	W05
	.byte		N01   , Gs3 , v040
	.byte	W01
	.byte		N04   , An3 , v120
	.byte	W05
	.byte		N01   , An3 , v040
	.byte	W01
	.byte		N04   , Bn3 , v120
	.byte	W06
	.byte		N12   , Bn3 , v060
	.byte	W12
	.byte		        Bn3 , v040
	.byte	W32
	.byte	W03
	.byte		VOICE , 88
	.byte	W01
	.byte		N02   , As3 , v120
	.byte	W04
	.byte		        As3 , v060
	.byte	W02
	.byte		        An3 , v120
	.byte	W04
	.byte		        An3 , v060
	.byte	W02
	.byte		        As3 , v120
	.byte	W04
	.byte		        As3 , v060
	.byte	W02
	.byte		        Bn3 , v120
	.byte	W04
	.byte		        Bn3 , v060
	.byte	W02
	.byte		        Cn4 , v120
	.byte	W04
	.byte		        Cn4 , v060
	.byte	W02
	.byte		        Cs4 , v120
	.byte	W04
	.byte		        Cs4 , v060
	.byte	W02
	.byte		        Dn4 , v120
	.byte	W04
	.byte		        Dn4 , v060
	.byte	W02
	.byte		N04   , Ds4 , v120
	.byte	W04
	.byte		N02   , Ds4 , v060
	.byte	W01
	.byte		MOD   , 0
	.byte	W01
	.byte	PEND
	.byte		N03   , Cs4 , v120
	.byte	W04
	.byte		N02   , Cs4 , v060
	.byte	W02
	.byte		N03   , As3 , v120
	.byte	W04
	.byte		N02   , As3 , v060
	.byte	W02
	.byte		N03   , Fn3 , v120
	.byte	W04
	.byte		N02   , Fn3 , v060
	.byte	W02
	.byte		N03   , Cs3 , v120
	.byte	W04
	.byte		N02   , Cs3 , v060
	.byte	W01
	.byte		MOD   , 60
	.byte	W01
	.byte		N06   , Fn4 , v120
	.byte	W06
	.byte		        Fn4 , v060
	.byte	W06
	.byte		        Fn4 , v040
	.byte	W11
	.byte		VOL   , 28*seq_124_mvl/mxv
	.byte	W01
	.byte		N06   , Bn4 , v100
	.byte	W06
	.byte		        Cn5 
	.byte	W01
	.byte		VOL   , 35*seq_124_mvl/mxv
	.byte	W03
	.byte		        42*seq_124_mvl/mxv
	.byte	W02
	.byte		N06   , Bn4 
	.byte	W03
	.byte		VOL   , 49*seq_124_mvl/mxv
	.byte	W03
	.byte		N06   , Cn5 
	.byte	W01
	.byte		VOL   , 42*seq_124_mvl/mxv
	.byte	W04
	.byte		        35*seq_124_mvl/mxv
	.byte	W01
	.byte		N06   , Bn4 
	.byte	W03
	.byte		VOL   , 28*seq_124_mvl/mxv
	.byte	W03
	.byte		N06   , Cn5 
	.byte	W01
	.byte		VOL   , 21*seq_124_mvl/mxv
	.byte	W03
	.byte		        14*seq_124_mvl/mxv
	.byte	W02
	.byte		N06   , Bn4 
	.byte	W03
	.byte		VOL   , 7*seq_124_mvl/mxv
	.byte	W03
	.byte		N06   , Cn5 
	.byte	W02
	.byte		VOL   , 0*seq_124_mvl/mxv
	.byte	W03
	.byte		        7*seq_124_mvl/mxv
	.byte	W01
	.byte	PEND
	.byte		N06   , Gn4 , v120
	.byte	W05
	.byte		VOL   , 14*seq_124_mvl/mxv
	.byte	W01
	.byte		N06   , Gs4 
	.byte	W06
	.byte		        Gn4 
	.byte	W06
	.byte		        Gs4 
	.byte	W03
	.byte		VOL   , 21*seq_124_mvl/mxv
	.byte	W03
	.byte		N06   , Gn4 
	.byte	W06
	.byte		        Gs4 
	.byte	W04
	.byte		VOL   , 28*seq_124_mvl/mxv
	.byte	W02
	.byte		N06   , Gn4 
	.byte	W04
	.byte		VOL   , 35*seq_124_mvl/mxv
	.byte	W02
	.byte		N06   , Gs4 
	.byte	W05
	.byte		VOL   , 28*seq_124_mvl/mxv
	.byte	W01
	.byte		N06   , As4 , v100
	.byte	W05
	.byte		VOL   , 35*seq_124_mvl/mxv
	.byte	W01
	.byte		N06   , Bn4 
	.byte	W04
	.byte		VOL   , 42*seq_124_mvl/mxv
	.byte	W02
	.byte		N06   , As4 
	.byte	W03
	.byte		VOL   , 49*seq_124_mvl/mxv
	.byte	W03
	.byte		N06   , Bn4 
	.byte	W01
	.byte		VOL   , 42*seq_124_mvl/mxv
	.byte	W04
	.byte		        35*seq_124_mvl/mxv
	.byte	W01
	.byte		N06   , As4 
	.byte	W03
	.byte		VOL   , 28*seq_124_mvl/mxv
	.byte	W03
	.byte		N06   , Bn4 
	.byte	W01
	.byte		VOL   , 21*seq_124_mvl/mxv
	.byte	W03
	.byte		        14*seq_124_mvl/mxv
	.byte	W02
	.byte		N06   , As4 
	.byte	W03
	.byte		VOL   , 7*seq_124_mvl/mxv
	.byte	W03
	.byte		N06   , Bn4 
	.byte	W02
	.byte		VOL   , 0*seq_124_mvl/mxv
	.byte	W04
	.byte	W92
	.byte	W03
	.byte		VOL   , 28*seq_124_mvl/mxv
	.byte	W01
	.byte	W96
	.byte	W96
	.byte	W92
	.byte	W03
	.byte		VOICE , 88
	.byte	W01
	.byte	PEND
	.byte		N12   , Fn4 , v120
	.byte	W11
	.byte		VOICE , 80
	.byte	W01
	.byte		N12   , Fn4 , v040
	.byte	W11
	.byte		VOICE , 88
	.byte	W01
	.byte		N12   , Ds4 , v120
	.byte	W11
	.byte		VOICE , 80
	.byte	W01
	.byte		N12   , Ds4 , v040
	.byte	W11
	.byte		VOICE , 88
	.byte	W01
	.byte		N12   , Cn4 , v120
	.byte	W11
	.byte		VOICE , 80
	.byte	W01
	.byte		N12   , Cn4 , v040
	.byte	W11
	.byte		VOICE , 88
	.byte	W01
	.byte		N12   , Gs3 , v120
	.byte	W12
	.byte		        Cn4 
	.byte	W12
	.byte	PEND
	.byte		N12   , Cn4 , v040
	.byte	W12
	.byte		        Gs3 , v120
	.byte	W12
	.byte		N24   , Gs3 , v040
	.byte	W24
	.byte		N06   , Fn2 , v120
	.byte	W06
	.byte		        Fs2 
	.byte	W06
	.byte		        Gs2 
	.byte	W08
	.byte		N04   , Gs2 , v040
	.byte	W04
	.byte		N06   , Fs2 , v120
	.byte	W08
	.byte		N04   , Fs2 , v040
	.byte	W04
	.byte		N06   , En2 , v120
	.byte	W08
	.byte		N04   , En2 , v040
	.byte	W04
	.byte	PEND
	.byte		N10   , Fn2 , v120
	.byte	W10
	.byte		N14   , Fn2 , v060
	.byte	W14
	.byte		N12   , Fn2 , v040
	.byte	W72
	.byte	W96
	.byte	PATT
	 .word	seq_124_10 + 0x165
	.byte	PATT
	 .word	seq_124_10 + 0x196
	.byte		N10   , Fn2 , v120
	.byte	W10
	.byte		N14   , Fn2 , v060
	.byte	W14
	.byte		N12   , Fn2 , v040
	.byte	W24
	.byte		N06   , Fn4 , v100
	.byte	W06
	.byte		        Fs4 
	.byte	W06
	.byte		        Gs4 
	.byte	W08
	.byte		N04   , Gs4 , v060
	.byte	W04
	.byte		N06   , Fs4 , v100
	.byte	W08
	.byte		N04   , Fs4 , v060
	.byte	W04
	.byte		N06   , En4 , v100
	.byte	W08
	.byte		N04   , En4 , v060
	.byte	W04
	.byte		N10   , Fn4 , v100
	.byte	W10
	.byte		N14   , Fn4 , v060
	.byte	W14
	.byte		N12   , Fn4 , v040
	.byte	W22
	.byte		MOD   , 120
	.byte	W01
	.byte		VOICE , 87
	.byte	W01
	.byte		N03   , Gs2 , v120
	.byte	W03
	.byte		        Gs2 , v060
	.byte	W03
	.byte		        An2 , v120
	.byte	W03
	.byte		        An2 , v060
	.byte	W03
	.byte		        Cs3 , v120
	.byte	W03
	.byte		        Cs3 , v060
	.byte	W03
	.byte		        Dn3 , v120
	.byte	W03
	.byte		        Dn3 , v060
	.byte	W03
	.byte		        Gs3 , v120
	.byte	W03
	.byte		        Gs3 , v060
	.byte	W03
	.byte		        An3 , v120
	.byte	W03
	.byte		        An3 , v060
	.byte	W03
	.byte		N02   , Fn3 , v120
	.byte	W03
	.byte		N03   , Fn3 , v060
	.byte	W03
	.byte		N02   , Fs3 , v120
	.byte	W03
	.byte		N03   , Fs3 , v060
	.byte	W01
	.byte		MOD   , 0
	.byte	W01
	.byte		VOICE , 88
	.byte	W01
	.byte		N12   , En4 , v120
	.byte	W11
	.byte		VOICE , 80
	.byte	W01
	.byte		N12   , En4 , v040
	.byte	W11
	.byte		VOICE , 88
	.byte	W01
	.byte		N12   , Dn4 , v120
	.byte	W11
	.byte		VOICE , 80
	.byte	W01
	.byte		N12   , Dn4 , v040
	.byte	W11
	.byte		VOICE , 88
	.byte	W01
	.byte		N12   , Bn3 , v120
	.byte	W11
	.byte		VOICE , 80
	.byte	W01
	.byte		N12   , Bn3 , v040
	.byte	W11
	.byte		VOICE , 88
	.byte	W01
	.byte		N12   , Gn3 , v120
	.byte	W12
	.byte		        Bn3 
	.byte	W12
	.byte		        Bn3 , v040
	.byte	W12
	.byte		        Gn3 , v120
	.byte	W12
	.byte		N24   , Gn3 , v040
	.byte	W24
	.byte		N06   , En2 , v120
	.byte	W06
	.byte		        Fn2 
	.byte	W06
	.byte		        Gn2 
	.byte	W08
	.byte		N04   , Gn2 , v040
	.byte	W04
	.byte		N06   , Fn2 , v120
	.byte	W08
	.byte		N04   , Fn2 , v040
	.byte	W04
	.byte		N06   , Ds2 , v120
	.byte	W08
	.byte		N04   , Ds2 , v040
	.byte	W04
	.byte		N10   , En2 , v120
	.byte	W10
	.byte		N14   , En2 , v060
	.byte	W14
	.byte		N12   , En2 , v040
	.byte	W72
	.byte	W96
	.byte	PATT
	 .word	seq_124_10 + 0x165
	.byte		N12   , Cn4 , v040
	.byte	W12
	.byte		        Gs3 , v120
	.byte	W12
	.byte		N24   , Gs3 , v040
	.byte	W24
	.byte		N06   , Fn3 , v120
	.byte	W06
	.byte		        Fs3 
	.byte	W06
	.byte		        Gs3 
	.byte	W08
	.byte		N04   , Gs3 , v040
	.byte	W04
	.byte		N06   , Fs3 , v120
	.byte	W08
	.byte		N04   , Fs3 , v040
	.byte	W04
	.byte		N06   , En3 , v120
	.byte	W08
	.byte		N04   , En3 , v040
	.byte	W04
	.byte		N10   , Fn3 , v120
	.byte	W10
	.byte		N14   , Fn3 , v060
	.byte	W14
	.byte		N12   , Fn3 , v040
	.byte	W24
	.byte		N06   , Fn4 , v100
	.byte	W06
	.byte		        Fs4 
	.byte	W06
	.byte		        Gs4 
	.byte	W08
	.byte		N04   , Gs4 , v060
	.byte	W04
	.byte		N06   , Fs4 , v100
	.byte	W08
	.byte		N04   , Fs4 , v060
	.byte	W04
	.byte		N06   , En4 , v100
	.byte	W08
	.byte		N04   , En4 , v060
	.byte	W04
	.byte		N10   , Fn4 , v100
	.byte	W10
	.byte		N14   , Fn4 , v060
	.byte	W14
	.byte		N12   , Fn4 , v040
	.byte	W22
	.byte		MOD   , 120
	.byte	W01
	.byte		VOICE , 87
	.byte	W01
	.byte		N03   , Gs2 , v120
	.byte	W03
	.byte		        Gs2 , v060
	.byte	W03
	.byte		        An2 , v120
	.byte	W03
	.byte		        An2 , v060
	.byte	W03
	.byte		        Cs3 , v120
	.byte	W03
	.byte		        Cs3 , v060
	.byte	W03
	.byte		        Dn3 , v120
	.byte	W03
	.byte		        Dn3 , v060
	.byte	W03
	.byte		        Gs3 , v120
	.byte	W03
	.byte		        Gs3 , v060
	.byte	W03
	.byte		        An3 , v120
	.byte	W03
	.byte		        An3 , v060
	.byte	W03
	.byte		N02   , Fn3 , v120
	.byte	W03
	.byte		N03   , Fn3 , v060
	.byte	W03
	.byte		N02   , Fs3 , v120
	.byte	W03
	.byte		N03   , Fs3 , v060
	.byte	W03
	.byte	W04
	.byte		MOD   , 0
	.byte	W02
	.byte		N03   , Fn2 , v120
	.byte	W03
	.byte		        Fn2 , v060
	.byte	W03
	.byte		        Fs2 , v120
	.byte	W03
	.byte		        Fs2 , v060
	.byte	W03
	.byte		        Fn3 , v120
	.byte	W03
	.byte		        Fn3 , v060
	.byte	W03
	.byte		N08   , Fs3 , v120
	.byte	W08
	.byte		N03   , Fs3 , v060
	.byte	W10
	.byte		        Ds3 , v120
	.byte	W03
	.byte		        Ds3 , v060
	.byte	W03
	.byte		N08   , Fn3 , v120
	.byte	W08
	.byte		N03   , Fn3 , v060
	.byte	W10
	.byte		        Cs3 , v120
	.byte	W03
	.byte		        Cs3 , v060
	.byte	W03
	.byte		N08   , Ds3 , v120
	.byte	W08
	.byte		N03   , Ds3 , v060
	.byte	W10
	.byte		        Cn3 , v120
	.byte	W03
	.byte		        Cn3 , v060
	.byte	W03
	.byte		N08   , Cs3 , v120
	.byte	W08
	.byte		N03   , Cs3 , v060
	.byte	W10
	.byte		        As2 , v120
	.byte	W03
	.byte		        As2 , v060
	.byte	W03
	.byte		N08   , Cn3 , v120
	.byte	W08
	.byte		N03   , Cn3 , v060
	.byte	W09
	.byte		VOICE , 88
	.byte	W01
	.byte		N03   , Gs4 , v120
	.byte	W03
	.byte		        Gs4 , v060
	.byte	W03
	.byte		N06   , An4 , v120
	.byte	W06
	.byte		N03   , Ds4 
	.byte	W03
	.byte		        Ds4 , v060
	.byte	W03
	.byte		        Gs3 , v120
	.byte	W03
	.byte		        Gs3 , v060
	.byte	W03
	.byte		        An3 , v120
	.byte	W03
	.byte		        An3 , v060
	.byte	W03
	.byte		        As3 , v120
	.byte	W03
	.byte		        As3 , v060
	.byte	W03
	.byte		        Fn3 , v120
	.byte	W03
	.byte		        Fn3 , v060
	.byte	W03
	.byte		        En3 , v120
	.byte	W03
	.byte		        En3 , v060
	.byte	W03
	.byte		        Ds3 , v120
	.byte	W03
	.byte		        Ds3 , v060
	.byte	W03
	.byte	PEND
	.byte		N10   , Cs2 , v080
	.byte	W10
	.byte		N14   , Cs2 , v040
	.byte	W84
	.byte	W02
	.byte	PEND
	.byte	W96
	.byte	W05
	.byte		VOICE , 87
	.byte	W01
	.byte		N03   , Fn2 , v120
	.byte	W03
	.byte		        Fn2 , v060
	.byte	W03
	.byte		        Fs2 , v120
	.byte	W03
	.byte		        Fs2 , v060
	.byte	W03
	.byte		        Fn3 , v120
	.byte	W03
	.byte		        Fn3 , v060
	.byte	W03
	.byte		N08   , Fs3 , v120
	.byte	W08
	.byte		N03   , Fs3 , v060
	.byte	W10
	.byte		        Ds3 , v120
	.byte	W03
	.byte		        Ds3 , v060
	.byte	W03
	.byte		N08   , Fn3 , v120
	.byte	W08
	.byte		N03   , Fn3 , v060
	.byte	W10
	.byte		        Cs3 , v120
	.byte	W03
	.byte		        Cs3 , v060
	.byte	W03
	.byte		N08   , Ds3 , v120
	.byte	W08
	.byte		N03   , Ds3 , v060
	.byte	W10
	.byte		        Cn3 , v120
	.byte	W03
	.byte		        Cn3 , v060
	.byte	W03
	.byte	PATT
	 .word	seq_124_10 + 0x389
	.byte	PATT
	 .word	seq_124_10 + 0x3D8
	.byte	PATT
	 .word	seq_124_10 + 0x15F
	.byte		N12   , Fs4 , v120
	.byte	W11
	.byte		VOICE , 80
	.byte	W01
	.byte		N12   , Fs4 , v040
	.byte	W10
	.byte		MOD   , 60
	.byte	W01
	.byte		VOICE , 88
	.byte	W01
	.byte		N12   , En4 , v120
	.byte	W11
	.byte		VOICE , 80
	.byte	W01
	.byte		N12   , En4 , v040
	.byte	W10
	.byte		MOD   , 0
	.byte	W01
	.byte		VOICE , 88
	.byte	W01
	.byte		N12   , Cs4 , v120
	.byte	W11
	.byte		VOICE , 80
	.byte	W01
	.byte		N12   , Cs4 , v040
	.byte	W10
	.byte		MOD   , 60
	.byte	W01
	.byte		VOICE , 88
	.byte	W01
	.byte		N12   , An3 , v120
	.byte	W12
	.byte		        Cs4 
	.byte	W12
	.byte		        Cs4 , v040
	.byte	W12
	.byte		        An3 , v120
	.byte	W12
	.byte		N24   , An3 , v040
	.byte	W24
	.byte		N06   , Fs3 , v120
	.byte	W06
	.byte		        Gn3 
	.byte	W06
	.byte		        An3 
	.byte	W08
	.byte		N04   , An3 , v040
	.byte	W04
	.byte		N06   , Gn3 , v120
	.byte	W08
	.byte		N04   , Gn3 , v040
	.byte	W04
	.byte		N06   , An3 , v120
	.byte	W08
	.byte		N04   , An3 , v040
	.byte	W04
	.byte		N10   , Fs3 , v100
	.byte	W10
	.byte		N14   , Fs3 , v060
	.byte	W84
	.byte	W02
	.byte	W92
	.byte	W01
	.byte		MOD   , 0
	.byte	W02
	.byte		VOICE , 83
	.byte	W01
	.byte		N05   , Fn3 , v120
	.byte	W06
	.byte		N06   , Fn3 , v060
	.byte	W06
	.byte		N05   , Ds3 , v120
	.byte	W06
	.byte		N06   , Ds3 , v060
	.byte	W06
	.byte		N05   , Gs3 , v120
	.byte	W06
	.byte		N06   , Gs3 , v060
	.byte	W06
	.byte		N05   , Fs3 , v120
	.byte	W06
	.byte		N06   , Fs3 , v060
	.byte	W06
	.byte		N05   , Gs3 , v120
	.byte	W06
	.byte		N24   , Gs3 , v060
	.byte	W24
	.byte		N04   , Gs3 , v120
	.byte	W05
	.byte		N01   , Gs3 , v060
	.byte	W01
	.byte		N04   , An3 , v120
	.byte	W05
	.byte		N01   , An3 , v060
	.byte	W01
	.byte		N04   , Bn3 , v120
	.byte	W06
	.byte	PEND
	.byte	PATT
	 .word	seq_124_10 + 0x56
	.byte	PATT
	 .word	seq_124_10 + 0x98
	.byte		N06   , Gn4 , v120
	.byte	W05
	.byte		VOL   , 14*seq_124_mvl/mxv
	.byte	W01
	.byte		N06   , Gs4 
	.byte	W06
	.byte		        Gn4 
	.byte	W06
	.byte		        Gs4 
	.byte	W03
	.byte		VOL   , 21*seq_124_mvl/mxv
	.byte	W03
	.byte		N06   , Gn4 
	.byte	W06
	.byte		        Gs4 
	.byte	W04
	.byte		VOL   , 28*seq_124_mvl/mxv
	.byte	W02
	.byte		N06   , Gn4 
	.byte	W04
	.byte		VOL   , 35*seq_124_mvl/mxv
	.byte	W02
	.byte		N06   , Gs4 
	.byte	W05
	.byte		VOL   , 28*seq_124_mvl/mxv
	.byte	W01
	.byte		N06   , As4 , v100
	.byte	W05
	.byte		VOL   , 35*seq_124_mvl/mxv
	.byte	W01
	.byte		N06   , Bn4 
	.byte	W04
	.byte		VOL   , 42*seq_124_mvl/mxv
	.byte	W02
	.byte		N06   , As4 
	.byte	W03
	.byte		VOL   , 49*seq_124_mvl/mxv
	.byte	W03
	.byte		N06   , Bn4 
	.byte	W01
	.byte		VOL   , 42*seq_124_mvl/mxv
	.byte	W04
	.byte		        35*seq_124_mvl/mxv
	.byte	W01
	.byte		N06   , As4 
	.byte	W03
	.byte		VOL   , 28*seq_124_mvl/mxv
	.byte	W03
	.byte		N06   , Bn4 
	.byte	W01
	.byte		VOL   , 21*seq_124_mvl/mxv
	.byte	W03
	.byte		        14*seq_124_mvl/mxv
	.byte	W02
	.byte		N06   , As4 
	.byte	W03
	.byte		VOL   , 7*seq_124_mvl/mxv
	.byte	W03
	.byte		N06   , Bn4 
	.byte	W02
	.byte		VOL   , 0*seq_124_mvl/mxv
	.byte	W01
	.byte		MOD   , 0
	.byte	W01
	.byte		VOL   , 28*seq_124_mvl/mxv
	.byte	W01
	.byte		VOICE , 83
	.byte	W01
	.byte	PATT
	 .word	seq_124_10 + 0x4A3
	.byte	PATT
	 .word	seq_124_10 + 0x56
	.byte	PATT
	 .word	seq_124_10 + 0x98
	.byte		N06   , Gn4 , v120
	.byte	W05
	.byte		VOL   , 14*seq_124_mvl/mxv
	.byte	W01
	.byte		N06   , Gs4 
	.byte	W06
	.byte		        Gn4 
	.byte	W06
	.byte		        Gs4 
	.byte	W03
	.byte		VOL   , 21*seq_124_mvl/mxv
	.byte	W03
	.byte		N06   , Gn4 
	.byte	W06
	.byte		        Gs4 
	.byte	W04
	.byte		VOL   , 28*seq_124_mvl/mxv
	.byte	W02
	.byte		N06   , Gn4 
	.byte	W04
	.byte		VOL   , 35*seq_124_mvl/mxv
	.byte	W02
	.byte		N06   , Gs4 
	.byte	W05
	.byte		VOL   , 28*seq_124_mvl/mxv
	.byte	W01
	.byte		N06   , As4 , v100
	.byte	W05
	.byte		VOL   , 35*seq_124_mvl/mxv
	.byte	W01
	.byte		N06   , Bn4 
	.byte	W04
	.byte		VOL   , 42*seq_124_mvl/mxv
	.byte	W02
	.byte		N06   , As4 
	.byte	W03
	.byte		VOL   , 49*seq_124_mvl/mxv
	.byte	W03
	.byte		N06   , Bn4 
	.byte	W01
	.byte		VOL   , 42*seq_124_mvl/mxv
	.byte	W04
	.byte		        35*seq_124_mvl/mxv
	.byte	W01
	.byte		N06   , As4 
	.byte	W03
	.byte		VOL   , 28*seq_124_mvl/mxv
	.byte	W03
	.byte		N06   , Bn4 
	.byte	W01
	.byte		VOL   , 21*seq_124_mvl/mxv
	.byte	W03
	.byte		        14*seq_124_mvl/mxv
	.byte	W02
	.byte		N06   , As4 
	.byte	W03
	.byte		VOL   , 7*seq_124_mvl/mxv
	.byte	W03
	.byte		N06   , Bn4 
	.byte	W02
	.byte		VOL   , 0*seq_124_mvl/mxv
	.byte	W03
	.byte		        28*seq_124_mvl/mxv
	.byte	W01
	.byte		N03   , Fn1 , v120
	.byte	W04
	.byte		N02   , Fn1 , v060
	.byte	W02
	.byte		N03   , As1 , v120
	.byte	W04
	.byte		N02   , As1 , v060
	.byte	W02
	.byte		N03   , Ds2 , v120
	.byte	W04
	.byte		N02   , Ds2 , v060
	.byte	W02
	.byte		N03   , Gs2 , v120
	.byte	W04
	.byte		N02   , Gs2 , v060
	.byte	W02
	.byte		N03   , Cs3 , v120
	.byte	W04
	.byte		N02   , Cs3 , v060
	.byte	W02
	.byte		N03   , Fs3 , v120
	.byte	W04
	.byte		N02   , Fs3 , v060
	.byte	W02
	.byte		N03   , Bn3 , v120
	.byte	W04
	.byte		N02   , Bn3 , v060
	.byte	W02
	.byte		N03   , En4 , v120
	.byte	W04
	.byte		N02   , En4 , v060
	.byte	W02
	.byte	W96
	.byte	W96
	.byte	W96
	.byte	W96
	.byte	GOTO
	 .word	seq_124_10 + 0x158
	.byte	FINE

@*********************** Track 12 ***********************@

seq_124_11:
	.byte	KEYSH , seq_124_key+0
	.byte	W18
	.byte		VOICE , 112
	.byte	W01
	.byte		VOL   , 28*seq_124_mvl/mxv
	.byte	W01
	.byte		PAN   , c_v+0
	.byte	W04
	.byte	W06
	.byte	W06
	.byte		N04   , Ds4 , v060
	.byte	W12
	.byte		N01   , Ds4 , v040
	.byte	W18
	.byte		N01
	.byte	W06
	.byte		        Ds4 , v060
	.byte	W02
	.byte		N01
	.byte	W02
	.byte		N01
	.byte	W08
	.byte		N02
	.byte	W12
	.byte		N01   , Ds4 , v040
	.byte	W06
	.byte		        Ds4 , v020
	.byte	W24
	.byte	PEND
	.byte	W06
	.byte		N04   , Ds4 , v060
	.byte	W12
	.byte		N01   , Ds4 , v040
	.byte	W18
	.byte		N01
	.byte	W06
	.byte		        Ds4 , v060
	.byte	W02
	.byte		N01
	.byte	W02
	.byte		N01
	.byte	W08
	.byte		N02
	.byte	W12
	.byte		N01   , Ds4 , v040
	.byte	W06
	.byte		        Ds4 , v020
	.byte	W12
	.byte		N02   , Ds4 , v060
	.byte	W06
	.byte		N01
	.byte	W02
	.byte		N01
	.byte	W02
	.byte		N01
	.byte	W02
	.byte	PEND
	.byte	PATT
	 .word	seq_124_11 + 0xD
	.byte	PATT
	 .word	seq_124_11 + 0x29
	.byte	PATT
	 .word	seq_124_11 + 0xD
	.byte	PATT
	 .word	seq_124_11 + 0x29
	.byte	PATT
	 .word	seq_124_11 + 0xD
	.byte	PATT
	 .word	seq_124_11 + 0x29
	.byte	PATT
	 .word	seq_124_11 + 0xD
	.byte	PATT
	 .word	seq_124_11 + 0x29
	.byte	PATT
	 .word	seq_124_11 + 0xD
	.byte	PATT
	 .word	seq_124_11 + 0x29
	.byte	PATT
	 .word	seq_124_11 + 0xD
	.byte	PATT
	 .word	seq_124_11 + 0x29
	.byte	PATT
	 .word	seq_124_11 + 0xD
	.byte	PATT
	 .word	seq_124_11 + 0x29
	.byte	PATT
	 .word	seq_124_11 + 0xD
	.byte	PATT
	 .word	seq_124_11 + 0x29
	.byte	PATT
	 .word	seq_124_11 + 0xD
	.byte	PATT
	 .word	seq_124_11 + 0x29
	.byte	PATT
	 .word	seq_124_11 + 0xD
	.byte	PATT
	 .word	seq_124_11 + 0x29
	.byte	PATT
	 .word	seq_124_11 + 0xD
	.byte	PATT
	 .word	seq_124_11 + 0x29
	.byte	PATT
	 .word	seq_124_11 + 0xD
	.byte	PATT
	 .word	seq_124_11 + 0x29
	.byte	PATT
	 .word	seq_124_11 + 0xD
	.byte	PATT
	 .word	seq_124_11 + 0x29
	.byte	PATT
	 .word	seq_124_11 + 0xD
	.byte	PATT
	 .word	seq_124_11 + 0x29
	.byte	PATT
	 .word	seq_124_11 + 0xD
	.byte	PATT
	 .word	seq_124_11 + 0x29
	.byte	PATT
	 .word	seq_124_11 + 0xD
	.byte	PATT
	 .word	seq_124_11 + 0x29
	.byte	PATT
	 .word	seq_124_11 + 0xD
	.byte	PATT
	 .word	seq_124_11 + 0x29
	.byte	PATT
	 .word	seq_124_11 + 0xD
	.byte	PATT
	 .word	seq_124_11 + 0x29
	.byte	PATT
	 .word	seq_124_11 + 0xD
	.byte	PATT
	 .word	seq_124_11 + 0x29
	.byte	PATT
	 .word	seq_124_11 + 0xD
	.byte	PATT
	 .word	seq_124_11 + 0x29
	.byte	PATT
	 .word	seq_124_11 + 0xD
	.byte	PATT
	 .word	seq_124_11 + 0x29
	.byte	PATT
	 .word	seq_124_11 + 0xD
	.byte	PATT
	 .word	seq_124_11 + 0x29
	.byte	PATT
	 .word	seq_124_11 + 0xD
	.byte	PATT
	 .word	seq_124_11 + 0x29
	.byte	W06
	.byte		N05   , Fn3 , v060
	.byte	W12
	.byte		N02   , Gs2 
	.byte	W06
	.byte		N11   , Fn3 
	.byte	W18
	.byte		N01   , Ds4 , v040
	.byte	W02
	.byte		N01
	.byte	W02
	.byte		N01
	.byte	W02
	.byte	PATT
	 .word	seq_124_11 + 0xD
	.byte	PATT
	 .word	seq_124_11 + 0x29
	.byte	PATT
	 .word	seq_124_11 + 0xD
	.byte	PATT
	 .word	seq_124_11 + 0x29
	.byte	GOTO
	 .word	seq_124_11 + 0x6D
	.byte	FINE

@******************************************************@

	.align	2

seq_124:
	.byte	12	@ NumTrks
	.byte	0	@ NumBlks
	.byte	seq_124_pri	@ Priority
	.byte	seq_124_rev	@ Reverb

	.word	seq_124_grp

	.word	seq_124_0
	.word	seq_124_1
	.word	seq_124_2
	.word	seq_124_3
	.word	seq_124_4
	.word	seq_124_5
	.word	seq_124_6
	.word	seq_124_7
	.word	seq_124_8
	.word	seq_124_9
	.word	seq_124_10
	.word	seq_124_11

	.end
