@ File generated by m4a2s Song-Module
	.include "MPlayDef.s"

	.equ	seq_100_grp, bank_014
	.equ	seq_100_pri, 50
	.equ	seq_100_rev, 168
	.equ	seq_100_mvl, 127
	.equ	seq_100_key, 0

	.section .rodata
	.global	seq_100
	.align	2

@*********************** Track 01 ***********************@

seq_100_0:
	.byte	KEYSH , seq_100_key+0
	.byte	TEMPO , 240/2
	.byte		VOICE , 127
	.byte	W01
	.byte		VOL   , 85*seq_100_mvl/mxv
	.byte	W01
	.byte		PAN   , c_v+0
	.byte	W10
	.byte	TEMPO , 130/2
	.byte	W12
	.byte		N03   , Cn4 , v120
	.byte	W24
	.byte		        Dn4 
	.byte	W24
	.byte		        Cn4 
	.byte	W12
	.byte		        Cn4 , v080
	.byte	W12
	.byte		        Dn4 , v120
	.byte	W24
	.byte		        Cn4 
	.byte	W24
	.byte		        Dn4 
	.byte	W24
	.byte		        Cn4 
	.byte	W06
	.byte		N04   , Gn6 , v060
	.byte	W06
	.byte		N03   , Cn4 , v080
	.byte	W06
	.byte		N04   , Gn6 , v040
	.byte	W06
	.byte		N03   , Dn4 , v120
	.byte	W12
	.byte		        Cn4 , v080
	.byte	W12
	.byte		        Cn4 , v120
	.byte	W24
	.byte		        Dn4 
	.byte	W24
	.byte		        Cn4 
	.byte	W12
	.byte		        Cn4 , v080
	.byte	W12
	.byte	PEND
	.byte		N03   , Dn4 , v120
	.byte	W24
	.byte		        Cn4 
	.byte	W24
	.byte		        Dn4 
	.byte	W24
	.byte		        Cn4 
	.byte	W12
	.byte		        Cn4 , v080
	.byte	W12
	.byte	PEND
	.byte	PATT
	 .word	seq_100_0 + 0x42
	.byte	PATT
	 .word	seq_100_0 + 0x42
	.byte		N03   , Dn4 , v120
	.byte	W12
	.byte		N03
	.byte	W12
	.byte		        Cn4 
	.byte	W18
	.byte		        Dn6 , v080
	.byte	W06
	.byte		        Dn4 , v120
	.byte	W06
	.byte		        Dn6 , v080
	.byte	W12
	.byte		        Cs6 , v040
	.byte	W06
	.byte		        Cn4 , v120
	.byte	W12
	.byte		        Cn4 , v080
	.byte	W12
	.byte	PEND
	.byte		        Dn4 , v120
	.byte	W06
	.byte		        Dn6 , v080
	.byte	W06
	.byte		        Cn4 , v120
	.byte	W06
	.byte		        Dn6 , v080
	.byte	W18
	.byte		        Cn4 , v120
	.byte	W06
	.byte		        Dn6 , v080
	.byte	W06
	.byte		        Dn4 , v120
	.byte	W06
	.byte		        Dn6 , v080
	.byte	W12
	.byte		        Cs6 , v040
	.byte	W06
	.byte		        Cn4 , v120
	.byte	W12
	.byte		        Cn4 , v080
	.byte	W12
	.byte		N03   , Dn4 , v120
	.byte	W24
	.byte		        Cn4 
	.byte	W18
	.byte		        Dn6 , v080
	.byte	W06
	.byte		        Dn4 , v120
	.byte	W06
	.byte		        Dn6 , v080
	.byte	W12
	.byte		        Cs6 , v040
	.byte	W06
	.byte		        Cn4 , v120
	.byte	W12
	.byte		        Cn4 , v080
	.byte	W12
	.byte	PEND
	.byte		N03   , Dn4 , v120
	.byte	W06
	.byte		        Dn6 , v080
	.byte	W06
	.byte		        Cn4 
	.byte	W06
	.byte		        Dn6 
	.byte	W06
	.byte		        Cn4 , v120
	.byte	W18
	.byte		        Dn6 , v080
	.byte	W06
	.byte		        Dn4 , v120
	.byte	W06
	.byte		        Dn6 , v080
	.byte	W12
	.byte		        Cs6 , v040
	.byte	W06
	.byte		        Cn4 , v120
	.byte	W12
	.byte		        Cn4 , v080
	.byte	W12
	.byte	PEND
	.byte		        Dn4 , v120
	.byte	W24
	.byte		        Cn4 
	.byte	W18
	.byte		        Dn6 , v080
	.byte	W06
	.byte		        Dn4 , v120
	.byte	W06
	.byte		        Dn6 , v080
	.byte	W18
	.byte		        Cn4 , v120
	.byte	W06
	.byte		N04   , Gn6 , v060
	.byte	W06
	.byte		N03   , Dn4 , v120
	.byte	W06
	.byte		N04   , Gn6 , v040
	.byte	W06
	.byte	PATT
	 .word	seq_100_0 + 0x30
	.byte	PATT
	 .word	seq_100_0 + 0x42
	.byte	PATT
	 .word	seq_100_0 + 0x42
	.byte	PATT
	 .word	seq_100_0 + 0x42
	.byte	PATT
	 .word	seq_100_0 + 0x5A
	.byte	PATT
	 .word	seq_100_0 + 0xAF
	.byte	PATT
	 .word	seq_100_0 + 0x96
	.byte		N03   , Dn4 , v120
	.byte	W06
	.byte		        Dn6 , v080
	.byte	W12
	.byte		N03
	.byte	W06
	.byte		        Cn4 , v120
	.byte	W18
	.byte		        Dn6 , v080
	.byte	W06
	.byte		        Dn4 , v120
	.byte	W06
	.byte		        Dn6 , v080
	.byte	W18
	.byte		        Cn4 , v120
	.byte	W06
	.byte		N04   , Gn6 , v060
	.byte	W06
	.byte		N03   , Dn4 , v120
	.byte	W06
	.byte		N04   , Gn6 , v040
	.byte	W06
	.byte		N03   , Dn4 , v120
	.byte	W12
	.byte		        Cn4 , v080
	.byte	W84
	.byte	W96
	.byte	W96
	.byte	FINE

@*********************** Track 02 ***********************@

seq_100_1:
	.byte	KEYSH , seq_100_key+0
	.byte		VOICE , 123
	.byte	W01
	.byte		VOL   , 66*seq_100_mvl/mxv
	.byte	W01
	.byte		PAN   , c_v+0
	.byte	W92
	.byte	W02
	.byte	W96
	.byte	W24
	.byte		N03   , En3 , v120
	.byte	W72
	.byte	W96
	.byte	W96
	.byte	W96
	.byte	W23
	.byte		PAN   , c_v+26
	.byte	W01
	.byte		N03
	.byte	W72
	.byte	W96
	.byte	W96
	.byte	W96
	.byte	W96
	.byte	W23
	.byte		PAN   , c_v-19
	.byte	W01
	.byte		N03
	.byte	W72
	.byte	W96
	.byte	W96
	.byte	W96
	.byte	W23
	.byte		PAN   , c_v+0
	.byte	W01
	.byte		N03
	.byte	W72
	.byte	W96
	.byte	W96
	.byte	W96
	.byte	W96
	.byte	W96
	.byte	W96
	.byte	FINE

@*********************** Track 03 ***********************@

seq_100_2:
	.byte	KEYSH , seq_100_key+0
	.byte		VOICE , 7
	.byte	W01
	.byte		VOL   , 46*seq_100_mvl/mxv
	.byte	W01
	.byte		PAN   , c_v-64
	.byte	W44
	.byte	W01
	.byte		MOD   , 5
	.byte	W01
	.byte		N03   , En3 , v120
	.byte	W12
	.byte		        En4 
	.byte	W12
	.byte		        Dn4 
	.byte	W12
	.byte		N18
	.byte	W12
	.byte	W12
	.byte		N03   , Dn4 , v120
	.byte	W48
	.byte		        En3 
	.byte	W12
	.byte		        Dn4 
	.byte	W12
	.byte		N18
	.byte	W12
	.byte	PEND
	.byte	W12
	.byte		N03   , Dn3 
	.byte	W32
	.byte	W03
	.byte		MOD   , 7
	.byte	W01
	.byte		N03   , En3 
	.byte	W12
	.byte		        En4 
	.byte	W12
	.byte		        Dn4 
	.byte	W12
	.byte		N18
	.byte	W12
	.byte	PATT
	 .word	seq_100_2 + 0x19
	.byte	W12
	.byte		N03   , Dn3 , v120
	.byte	W36
	.byte		        En3 
	.byte	W12
	.byte		        En4 
	.byte	W12
	.byte		        Dn4 
	.byte	W12
	.byte		N18
	.byte	W12
	.byte	PEND
	.byte	PATT
	 .word	seq_100_2 + 0x19
	.byte	W12
	.byte		N03   , Dn3 , v120
	.byte	W60
	.byte		        Fs4 
	.byte	W12
	.byte		N18
	.byte	W12
	.byte	W12
	.byte		N03   , Dn4 
	.byte	W60
	.byte		        Fs4 
	.byte	W12
	.byte		N18
	.byte	W12
	.byte	W12
	.byte		N03   , Fs3 
	.byte	W60
	.byte		        Fs4 
	.byte	W12
	.byte		N18
	.byte	W12
	.byte	W12
	.byte		N03   , Dn4 
	.byte	W36
	.byte		N12
	.byte		N12   , Fs4 
	.byte	W12
	.byte		N04   , En4 
	.byte		N04   , Gs4 
	.byte	W36
	.byte	W36
	.byte		N12   , En4 , v100
	.byte	W12
	.byte		        Dn4 
	.byte	W24
	.byte		        Cs4 
	.byte	W24
	.byte		        Bn3 
	.byte	W48
	.byte		N03   , En3 , v120
	.byte	W12
	.byte		        En4 
	.byte	W12
	.byte		        Dn4 
	.byte	W12
	.byte		N18
	.byte	W12
	.byte	PATT
	 .word	seq_100_2 + 0x19
	.byte	PATT
	 .word	seq_100_2 + 0x3B
	.byte	PATT
	 .word	seq_100_2 + 0x19
	.byte	W12
	.byte		N03   , Dn3 , v120
	.byte	W36
	.byte		N03
	.byte	W12
	.byte		        Fs4 
	.byte	W12
	.byte		        Dn4 
	.byte	W12
	.byte		N18
	.byte	W12
	.byte	W12
	.byte		N03
	.byte	W48
	.byte		        En3 
	.byte	W12
	.byte		N12   , Fs4 
	.byte	W12
	.byte		N04   , Gs4 
	.byte	W04
	.byte		        Gs4 , v060
	.byte	W08
	.byte		N12   , An4 , v120
	.byte	W12
	.byte		N04   , Bn4 
	.byte	W04
	.byte		        Bn4 , v060
	.byte	W08
	.byte		N05   , Cs5 , v120
	.byte	W05
	.byte		        Cs5 , v060
	.byte	W30
	.byte	W01
	.byte		N03   , En3 , v120
	.byte	W12
	.byte		        Gs4 
	.byte	W12
	.byte		N18
	.byte	W12
	.byte	W12
	.byte		N03
	.byte	W24
	.byte		N12   , En4 
	.byte	W12
	.byte		        Dn4 
	.byte	W24
	.byte		        Cs4 
	.byte	W24
	.byte		        Bn3 
	.byte	W96
	.byte	W96
	.byte	W96
	.byte	FINE

@*********************** Track 04 ***********************@

seq_100_3:
	.byte	KEYSH , seq_100_key+0
	.byte	W03
	.byte		VOICE , 7
	.byte	W01
	.byte		VOL   , 46*seq_100_mvl/mxv
	.byte	W01
	.byte		PAN   , c_v+63
	.byte	W42
	.byte		MOD   , 5
	.byte	W01
	.byte		N03   , Cs3 , v120
	.byte	W12
	.byte		        Cs4 
	.byte	W12
	.byte		        Bn3 
	.byte	W12
	.byte		N18
	.byte	W12
	.byte	W12
	.byte		N03   , Bn3 , v120
	.byte	W48
	.byte		        Cs3 
	.byte	W12
	.byte		        Bn3 
	.byte	W12
	.byte		N18
	.byte	W12
	.byte	PEND
	.byte	W12
	.byte		N03   , Bn2 
	.byte	W32
	.byte	W03
	.byte		MOD   , 7
	.byte	W01
	.byte		N03   , Cs3 
	.byte	W12
	.byte		        Cs4 
	.byte	W12
	.byte		        Bn3 
	.byte	W12
	.byte		N18
	.byte	W12
	.byte	PATT
	 .word	seq_100_3 + 0x19
	.byte	W12
	.byte		N03   , Bn2 , v120
	.byte	W36
	.byte		        Cs3 
	.byte	W12
	.byte		        Cs4 
	.byte	W12
	.byte		        Bn3 
	.byte	W12
	.byte		N18
	.byte	W12
	.byte	PEND
	.byte	PATT
	 .word	seq_100_3 + 0x19
	.byte	W12
	.byte		N03   , Bn2 , v120
	.byte	W60
	.byte		        Dn4 
	.byte	W12
	.byte		N18
	.byte	W12
	.byte	W12
	.byte		N03   , An3 
	.byte	W60
	.byte		        Dn4 
	.byte	W12
	.byte		N18
	.byte	W12
	.byte	W12
	.byte		N03   , Dn3 
	.byte	W60
	.byte		        Dn4 
	.byte	W12
	.byte		N18
	.byte	W12
	.byte	W12
	.byte		N03   , An3 
	.byte	W12
	.byte		N12   , Bn3 
	.byte		N12   , Dn4 
	.byte	W12
	.byte		N04   , Cs4 
	.byte		N04   , En4 
	.byte	W60
	.byte	W36
	.byte		N12   , Gs3 , v100
	.byte	W12
	.byte		        Fs3 
	.byte	W24
	.byte		        En3 
	.byte	W24
	.byte		        Dn3 
	.byte	W48
	.byte		N03   , Cs3 , v120
	.byte	W12
	.byte		        Cs4 
	.byte	W12
	.byte		        Bn3 
	.byte	W12
	.byte		N18
	.byte	W12
	.byte	PATT
	 .word	seq_100_3 + 0x19
	.byte	PATT
	 .word	seq_100_3 + 0x3B
	.byte	PATT
	 .word	seq_100_3 + 0x19
	.byte	W12
	.byte		N03   , Bn2 , v120
	.byte	W36
	.byte		        An2 
	.byte	W12
	.byte		        Bn3 
	.byte	W12
	.byte		        An3 
	.byte	W12
	.byte		N18
	.byte	W12
	.byte	W12
	.byte		N03
	.byte	W48
	.byte		        Cs3 
	.byte	W12
	.byte		N12   , An3 
	.byte	W12
	.byte		N04   , Bn3 
	.byte	W04
	.byte		        Bn3 , v060
	.byte	W08
	.byte		N12   , Cs4 , v120
	.byte	W12
	.byte		N04   , Ds4 
	.byte	W04
	.byte		        Ds4 , v060
	.byte	W08
	.byte		N05   , En4 , v120
	.byte	W05
	.byte		        En4 , v060
	.byte	W30
	.byte	W01
	.byte		N03   , Bn2 , v120
	.byte	W12
	.byte		        En4 
	.byte	W12
	.byte		N18
	.byte	W12
	.byte	W12
	.byte		N03
	.byte	W24
	.byte		N24   , Gs3 
	.byte	W36
	.byte		N12   , En3 
	.byte	W24
	.byte		        Dn3 
	.byte	W96
	.byte	W96
	.byte	W96
	.byte	FINE

@*********************** Track 05 ***********************@

seq_100_4:
	.byte	KEYSH , seq_100_key+0
	.byte	W03
	.byte		VOICE , 3
	.byte	W01
	.byte		VOL   , 40*seq_100_mvl/mxv
	.byte	W01
	.byte		PAN   , c_v+0
	.byte	W01
	.byte		LFOS  , 80
	.byte	W01
	.byte		MODT  , mod_pan
	.byte	W88
	.byte	W01
	.byte	W96
	.byte	W02
	.byte		MOD   , 80
	.byte	W01
	.byte		N02   , Gn5 , v100
	.byte	W02
	.byte		        Fs5 
	.byte	W02
	.byte		        En5 , v080
	.byte	W02
	.byte		        Dn5 
	.byte	W02
	.byte		        Bn4 , v060
	.byte	W02
	.byte		        An4 
	.byte	W02
	.byte		        Gn4 , v040
	.byte	W02
	.byte		        Fs4 
	.byte	W02
	.byte		        En4 , v020
	.byte	W02
	.byte		        Dn4 
	.byte	W72
	.byte	W03
	.byte	W72
	.byte		        En4 , v120
	.byte	W03
	.byte		MOD   , 0
	.byte	W01
	.byte		N02   , En5 
	.byte	W02
	.byte		        En4 , v080
	.byte	W04
	.byte		        En5 
	.byte	W02
	.byte		        Dn4 , v120
	.byte	W04
	.byte		        Dn5 
	.byte	W02
	.byte		        Dn4 , v080
	.byte	W04
	.byte		        Dn5 
	.byte	W02
	.byte		N02   , Cs4 , v120
	.byte	W04
	.byte		        Cs5 
	.byte	W02
	.byte		        Cs4 , v080
	.byte	W04
	.byte		        Cs5 
	.byte	W02
	.byte		        Bn3 , v120
	.byte	W04
	.byte		        Bn4 
	.byte	W02
	.byte		        Bn3 , v080
	.byte	W04
	.byte		        Bn4 
	.byte	W02
	.byte		        An4 , v120
	.byte	W72
	.byte	PEND
	.byte	W72
	.byte		N02   , En4 , v120
	.byte	W04
	.byte		        En5 
	.byte	W02
	.byte		        En4 , v080
	.byte	W04
	.byte		        En5 
	.byte	W02
	.byte		        Dn4 , v120
	.byte	W04
	.byte		        Dn5 
	.byte	W02
	.byte		        Dn4 , v080
	.byte	W04
	.byte		        Dn5 
	.byte	W02
	.byte	PEND
	.byte		        Cs4 , v120
	.byte	W04
	.byte		        Cs5 
	.byte	W02
	.byte		        Cs4 , v080
	.byte	W04
	.byte		        Cs5 
	.byte	W02
	.byte		        Bn3 , v120
	.byte	W04
	.byte		        Bn4 
	.byte	W02
	.byte		        Bn3 , v080
	.byte	W04
	.byte		        Bn4 
	.byte	W02
	.byte		        An4 , v120
	.byte	W23
	.byte		PAN   , c_v-24
	.byte	W01
	.byte		N02   , Cs4 
	.byte	W04
	.byte		        Cs5 , v080
	.byte	W02
	.byte		        An4 , v100
	.byte	W04
	.byte		        An5 , v080
	.byte	W02
	.byte		        En4 , v120
	.byte	W04
	.byte		        En5 , v080
	.byte	W02
	.byte		        En5 , v100
	.byte	W04
	.byte		        En6 , v080
	.byte	W24
	.byte	W02
	.byte		        Dn4 , v120
	.byte	W04
	.byte		        Dn5 , v080
	.byte	W02
	.byte		        An4 , v100
	.byte	W04
	.byte		        An5 , v080
	.byte	W02
	.byte		        Fs4 , v120
	.byte	W04
	.byte		        Fs5 , v080
	.byte	W02
	.byte		        An5 , v100
	.byte	W04
	.byte		        An6 , v080
	.byte	W02
	.byte		        An4 , v120
	.byte	W23
	.byte		PAN   , c_v+36
	.byte	W01
	.byte		N02   , Cs4 
	.byte	W04
	.byte		        Cs5 , v080
	.byte	W02
	.byte		        An4 , v100
	.byte	W04
	.byte		        An5 , v080
	.byte	W02
	.byte		        En4 , v120
	.byte	W04
	.byte		        En5 , v080
	.byte	W02
	.byte		        En5 , v100
	.byte	W04
	.byte		        En6 , v080
	.byte	W24
	.byte	W02
	.byte		        Dn4 , v120
	.byte	W04
	.byte		        Dn5 , v080
	.byte	W02
	.byte		        An4 , v100
	.byte	W04
	.byte		        An5 , v080
	.byte	W02
	.byte		        Fs4 , v120
	.byte	W04
	.byte		        Fs5 , v080
	.byte	W02
	.byte		        An5 , v100
	.byte	W04
	.byte		        An6 , v080
	.byte	W02
	.byte		        An4 , v120
	.byte	W23
	.byte		PAN   , c_v-24
	.byte	W01
	.byte		N02   , Cs4 
	.byte	W04
	.byte		        Cs5 , v080
	.byte	W02
	.byte		        An4 , v100
	.byte	W04
	.byte		        An5 , v080
	.byte	W02
	.byte		        En4 , v120
	.byte	W04
	.byte		        En5 , v080
	.byte	W02
	.byte		        En5 , v100
	.byte	W04
	.byte		        En6 , v080
	.byte	W24
	.byte	W02
	.byte		        Dn4 , v120
	.byte	W04
	.byte		        Dn5 , v080
	.byte	W02
	.byte		        An4 , v100
	.byte	W04
	.byte		        An5 , v080
	.byte	W02
	.byte		        Fs4 , v120
	.byte	W04
	.byte		        Fs5 , v080
	.byte	W02
	.byte		        An5 , v100
	.byte	W04
	.byte		        An6 , v080
	.byte	W02
	.byte		        Bn4 , v120
	.byte	W72
	.byte		PAN   , c_v+0
	.byte	W01
	.byte		N02   , Gs6 , v060
	.byte	W02
	.byte		        Fs6 
	.byte	W02
	.byte		        En6 
	.byte	W02
	.byte		        Dn6 
	.byte	W02
	.byte		        Bn5 
	.byte	W02
	.byte		        An5 
	.byte	W01
	.byte		PAN   , c_v-64
	.byte	W01
	.byte		N02   , Gs5 
	.byte	W02
	.byte		        Fs5 
	.byte	W02
	.byte		        En5 
	.byte	W02
	.byte		        Dn5 , v040
	.byte	W02
	.byte		        Bn4 
	.byte	W02
	.byte		        Gs4 
	.byte	W72
	.byte	W01
	.byte	W96
	.byte	W68
	.byte	W03
	.byte		PAN   , c_v+0
	.byte	W01
	.byte		N02   , En4 , v120
	.byte	W04
	.byte		        En5 
	.byte	W02
	.byte		        En4 , v080
	.byte	W04
	.byte		        En5 
	.byte	W02
	.byte		        Dn4 , v120
	.byte	W04
	.byte		        Dn5 
	.byte	W02
	.byte		        Dn4 , v080
	.byte	W04
	.byte		        Dn5 
	.byte	W02
	.byte	PATT
	 .word	seq_100_4 + 0x4C
	.byte	PATT
	 .word	seq_100_4 + 0x65
	.byte		N02   , Cs4 , v120
	.byte	W04
	.byte		        Cs5 
	.byte	W02
	.byte		        Cs4 , v080
	.byte	W04
	.byte		        Cs5 
	.byte	W02
	.byte		        Bn3 , v120
	.byte	W04
	.byte		        Bn4 
	.byte	W02
	.byte		        Bn3 , v080
	.byte	W04
	.byte		        Bn4 
	.byte	W02
	.byte		        An4 , v120
	.byte	W23
	.byte		PAN   , c_v-24
	.byte	W01
	.byte		N02   , Dn4 
	.byte	W04
	.byte		        Dn5 , v080
	.byte	W02
	.byte		        An4 , v100
	.byte	W04
	.byte		        An5 , v080
	.byte	W02
	.byte		        Fs4 , v120
	.byte	W04
	.byte		        Fs5 , v080
	.byte	W02
	.byte		        Fs5 , v100
	.byte	W04
	.byte		        Fs6 , v080
	.byte	W01
	.byte		PAN   , c_v+36
	.byte	W01
	.byte		N02   , Fn4 , v120
	.byte	W24
	.byte		        Dn4 
	.byte	W04
	.byte		        Dn5 , v080
	.byte	W02
	.byte		        An4 , v100
	.byte	W04
	.byte		        An5 , v080
	.byte	W02
	.byte		        Fn4 , v120
	.byte	W04
	.byte		        Fn5 , v080
	.byte	W02
	.byte		        An5 , v100
	.byte	W04
	.byte		        An6 , v080
	.byte	W02
	.byte		        En4 , v120
	.byte	W23
	.byte		PAN   , c_v-24
	.byte	W01
	.byte		N02   , Cs4 
	.byte	W04
	.byte		        Cs5 , v080
	.byte	W02
	.byte		        An4 , v100
	.byte	W04
	.byte		        An5 , v080
	.byte	W02
	.byte		        En4 , v120
	.byte	W04
	.byte		        En5 , v080
	.byte	W02
	.byte		        En5 , v100
	.byte	W04
	.byte		        En6 , v080
	.byte	W01
	.byte		PAN   , c_v+36
	.byte	W01
	.byte		N02   , Ds4 , v120
	.byte	W24
	.byte		N02
	.byte	W04
	.byte		        Ds5 , v080
	.byte	W02
	.byte		        An4 , v100
	.byte	W04
	.byte		        An5 , v080
	.byte	W02
	.byte		        Fs4 , v120
	.byte	W04
	.byte		        Fs5 , v080
	.byte	W02
	.byte		        Fs5 , v100
	.byte	W04
	.byte		        Fs6 , v080
	.byte	W02
	.byte		        En4 , v120
	.byte	W72
	.byte	W23
	.byte		PAN   , c_v+0
	.byte	W72
	.byte	W01
	.byte	W96
	.byte	W96
	.byte	W96
	.byte	FINE

@*********************** Track 06 ***********************@

seq_100_5:
	.byte	KEYSH , seq_100_key+0
	.byte	W03
	.byte		VOICE , 7
	.byte	W01
	.byte		VOL   , 53*seq_100_mvl/mxv
	.byte	W01
	.byte		PAN   , c_v+0
	.byte	W19
	.byte		N11   , An2 , v120
	.byte	W12
	.byte		N02   , En2 , v080
	.byte	W12
	.byte		N11   , An2 , v120
	.byte	W12
	.byte		N02   , En3 , v100
	.byte	W36
	.byte	W11
	.byte		BEND  , c_v-64
	.byte	W01
	.byte		N12   , Gn2 , v120
	.byte	W01
	.byte		BEND  , c_v-56
	.byte	W01
	.byte		        c_v-33
	.byte	W01
	.byte		        c_v-21
	.byte	W01
	.byte		        c_v+0
	.byte	W08
	.byte		N11   , An2 
	.byte	W12
	.byte		N02   , En2 , v080
	.byte	W12
	.byte		N11   , An2 , v120
	.byte	W12
	.byte		N02   , En3 , v100
	.byte	W36
	.byte	W24
	.byte		N11   , An2 , v120
	.byte	W12
	.byte		N02   , En2 , v080
	.byte	W12
	.byte		N11   , An2 , v120
	.byte	W12
	.byte		N02   , En3 , v100
	.byte	W11
	.byte		BEND  , c_v-64
	.byte	W01
	.byte		N02   , Gn3 
	.byte	W01
	.byte		BEND  , c_v-32
	.byte	W01
	.byte		        c_v+0
	.byte	W09
	.byte		        c_v-61
	.byte	W01
	.byte		N23   , Gn3 , v060
	.byte	W01
	.byte		BEND  , c_v-32
	.byte	W01
	.byte		        c_v+0
	.byte	W10
	.byte	W12
	.byte		N02   , Dn3 , v120
	.byte	W12
	.byte		N11   , Cs3 
	.byte	W12
	.byte		N02   , En2 , v080
	.byte	W12
	.byte		N11   , An2 , v120
	.byte	W12
	.byte		N02   , En3 , v100
	.byte	W11
	.byte		BEND  , c_v-64
	.byte	W01
	.byte		N02   , Gn2 
	.byte	W01
	.byte		BEND  , c_v-32
	.byte	W01
	.byte		        c_v+0
	.byte	W09
	.byte		        c_v-64
	.byte	W01
	.byte		N23   , Gn2 , v080
	.byte	W01
	.byte		BEND  , c_v-32
	.byte	W01
	.byte		        c_v+0
	.byte	W10
	.byte	PEND
	.byte	W12
	.byte		N02   , Dn3 , v080
	.byte	W12
	.byte		N11   , An2 , v120
	.byte	W12
	.byte		N02   , En2 , v080
	.byte	W12
	.byte		N11   , An2 , v120
	.byte	W12
	.byte		N02   , En3 , v100
	.byte	W11
	.byte		BEND  , c_v-64
	.byte	W01
	.byte		N02   , Gn3 
	.byte	W01
	.byte		BEND  , c_v-32
	.byte	W01
	.byte		        c_v+0
	.byte	W09
	.byte		        c_v-61
	.byte	W01
	.byte		N23   , Gn3 , v060
	.byte	W01
	.byte		BEND  , c_v-32
	.byte	W01
	.byte		        c_v+0
	.byte	W10
	.byte	PEND
	.byte	PATT
	 .word	seq_100_5 + 0x63
	.byte	W12
	.byte		N02   , Dn3 , v080
	.byte	W24
	.byte		N03   , En2 , v100
	.byte	W11
	.byte		BEND  , c_v-32
	.byte	W01
	.byte		N11   , An2 , v120
	.byte	W01
	.byte		BEND  , c_v-27
	.byte	W01
	.byte		        c_v-19
	.byte	W01
	.byte		        c_v-11
	.byte	W01
	.byte		        c_v+0
	.byte	W08
	.byte		N03   , En2 
	.byte	W12
	.byte		N11   , Dn2 
	.byte	W12
	.byte		N03   , An2 , v100
	.byte	W12
	.byte	W36
	.byte		N02   , En2 
	.byte	W11
	.byte		BEND  , c_v-32
	.byte	W01
	.byte		N11   , An2 , v120
	.byte	W01
	.byte		BEND  , c_v-27
	.byte	W01
	.byte		        c_v-19
	.byte	W01
	.byte		        c_v-11
	.byte	W01
	.byte		        c_v+0
	.byte	W08
	.byte		N03   , En2 
	.byte	W12
	.byte		N11   , Dn2 
	.byte	W12
	.byte		N03   , An2 , v100
	.byte	W12
	.byte	W12
	.byte		N03
	.byte	W24
	.byte		N02   , En2 
	.byte	W11
	.byte		BEND  , c_v-32
	.byte	W01
	.byte		N11   , An2 , v120
	.byte	W01
	.byte		BEND  , c_v-27
	.byte	W01
	.byte		        c_v-19
	.byte	W01
	.byte		        c_v-11
	.byte	W01
	.byte		        c_v+0
	.byte	W08
	.byte		N03   , En2 
	.byte	W12
	.byte		N11   , Dn2 
	.byte	W12
	.byte		N03   , An2 , v100
	.byte	W12
	.byte	W12
	.byte		N03
	.byte	W12
	.byte		N11   , Gs2 , v127
	.byte	W12
	.byte		N03   , An2 , v096
	.byte	W12
	.byte		N10   , Bn2 , v127
	.byte	W12
	.byte		N04   , Gs2 
	.byte	W36
	.byte	W36
	.byte		N12   , Gs2 , v100
	.byte		N12   , En3 , v120
	.byte	W12
	.byte		N10   , Fs2 , v100
	.byte		N10   , Dn3 , v120
	.byte	W24
	.byte		        En2 , v100
	.byte		N10   , Cs3 , v120
	.byte	W24
	.byte		        Dn2 , v100
	.byte		N10   , Bn2 , v120
	.byte	W24
	.byte		N11   , An2 
	.byte	W12
	.byte		N02   , En2 , v080
	.byte	W12
	.byte		N11   , An2 , v120
	.byte	W12
	.byte		N02   , En3 , v100
	.byte	W11
	.byte		BEND  , c_v-64
	.byte	W01
	.byte		N02   , Gn3 
	.byte	W01
	.byte		BEND  , c_v-32
	.byte	W01
	.byte		        c_v+0
	.byte	W09
	.byte		        c_v-61
	.byte	W01
	.byte		N23   , Gn3 , v060
	.byte	W01
	.byte		BEND  , c_v-32
	.byte	W01
	.byte		        c_v+0
	.byte	W10
	.byte	PATT
	 .word	seq_100_5 + 0x63
	.byte	PATT
	 .word	seq_100_5 + 0x8E
	.byte	PATT
	 .word	seq_100_5 + 0x63
	.byte	W12
	.byte		N02   , Dn3 , v080
	.byte	W84
	.byte	W60
	.byte		N03   , En2 , v120
	.byte	W12
	.byte		N12   , Fs2 
	.byte	W12
	.byte		N04   , Gs2 
	.byte	W04
	.byte		        Gs2 , v060
	.byte	W08
	.byte		N12   , An2 , v120
	.byte	W12
	.byte		N04   , Bn2 
	.byte	W04
	.byte		        Bn2 , v060
	.byte	W08
	.byte		N05   , Cs3 , v120
	.byte	W05
	.byte		        Cs3 , v060
	.byte	W30
	.byte	W01
	.byte		N03   , Gs2 , v120
	.byte	W12
	.byte		        Bn2 
	.byte	W11
	.byte		BEND  , c_v-55
	.byte	W01
	.byte		N18
	.byte	W02
	.byte		BEND  , c_v-26
	.byte	W01
	.byte		        c_v-10
	.byte	W02
	.byte		        c_v+0
	.byte	W07
	.byte	W12
	.byte		N03
	.byte	W24
	.byte		N12   , Gs2 , v100
	.byte		N12   , En3 , v120
	.byte	W12
	.byte		N10   , Fs2 , v100
	.byte		N10   , Dn3 , v120
	.byte	W24
	.byte		        En2 , v100
	.byte		N10   , Cs3 , v120
	.byte	W24
	.byte		        Dn2 , v100
	.byte		N10   , Bn2 , v120
	.byte	W96
	.byte	W96
	.byte	W96
	.byte	FINE

@*********************** Track 07 ***********************@

seq_100_6:
	.byte	KEYSH , seq_100_key+0
	.byte	W04
	.byte		VOICE , 50
	.byte	W01
	.byte		VOL   , 26*seq_100_mvl/mxv
	.byte	W01
	.byte		PAN   , c_v+0
	.byte	W01
	.byte		LFOS  , 60
	.byte	W01
	.byte		MODT  , mod_pan
	.byte	W01
	.byte		MOD   , 40
	.byte	W15
	.byte		N06   , En5 , v120
	.byte	W06
	.byte		        An5 
	.byte	W06
	.byte		        Cs6 
	.byte	W06
	.byte		        En6 
	.byte	W06
	.byte		        An6 
	.byte	W48
	.byte	W24
	.byte		        Cs7 
	.byte	W06
	.byte		        An6 
	.byte	W06
	.byte		        En6 
	.byte	W06
	.byte		        Cs6 
	.byte	W06
	.byte		        An5 
	.byte	W48
	.byte	W96
	.byte	W96
	.byte	W96
	.byte	W96
	.byte	W96
	.byte	W96
	.byte	W96
	.byte	W96
	.byte	W96
	.byte	W96
	.byte	W96
	.byte	W96
	.byte	W96
	.byte	W96
	.byte	W96
	.byte	W96
	.byte	W96
	.byte	W96
	.byte	W96
	.byte	W96
	.byte	FINE

@*********************** Track 08 ***********************@

seq_100_7:
	.byte	KEYSH , seq_100_key+0
	.byte	W10
	.byte		VOICE , 101
	.byte	W01
	.byte		VOL   , 85*seq_100_mvl/mxv
	.byte	W01
	.byte		PAN   , c_v+0
	.byte	W01
	.byte		BENDR , 3
	.byte	W11
	.byte		N10   , An1 , v120
	.byte	W12
	.byte		N01
	.byte	W11
	.byte		BEND  , c_v-43
	.byte	W01
	.byte		N12   , An2 
	.byte	W01
	.byte		BEND  , c_v-35
	.byte	W01
	.byte		        c_v-18
	.byte	W01
	.byte		        c_v+0
	.byte	W09
	.byte		N03   , An1 
	.byte	W12
	.byte		N04   , Gn1 
	.byte	W12
	.byte		        Gn1 , v100
	.byte	W11
	.byte		BEND  , c_v-43
	.byte	W01
	.byte		N12   , Gn2 , v120
	.byte	W01
	.byte		BEND  , c_v-35
	.byte	W01
	.byte		        c_v-18
	.byte	W01
	.byte		        c_v+0
	.byte	W09
	.byte		N04   , Gn1 
	.byte	W12
	.byte		N10   , An1 
	.byte	W12
	.byte		N01
	.byte	W11
	.byte		BEND  , c_v-43
	.byte	W01
	.byte		N12   , An2 
	.byte	W01
	.byte		BEND  , c_v-35
	.byte	W01
	.byte		        c_v-18
	.byte	W01
	.byte		        c_v+0
	.byte	W09
	.byte		N03   , An1 
	.byte	W12
	.byte		N04   , Gn1 
	.byte	W11
	.byte		MOD   , 40
	.byte	W01
	.byte		N32
	.byte	W12
	.byte	W23
	.byte		MOD   , 0
	.byte	W01
	.byte		N10   , An1 
	.byte	W12
	.byte		N01
	.byte	W11
	.byte		BEND  , c_v-43
	.byte	W01
	.byte		N12   , An2 
	.byte	W01
	.byte		BEND  , c_v-35
	.byte	W01
	.byte		        c_v-18
	.byte	W01
	.byte		        c_v+0
	.byte	W09
	.byte		N03   , An1 
	.byte	W12
	.byte		N04   , Gn1 
	.byte	W12
	.byte		        Gn1 , v100
	.byte	W11
	.byte		BEND  , c_v-43
	.byte	W01
	.byte		N12   , Gn2 , v120
	.byte	W01
	.byte		BEND  , c_v-35
	.byte	W01
	.byte		        c_v-18
	.byte	W01
	.byte		        c_v+0
	.byte	W09
	.byte		N04   , Gn1 
	.byte	W12
	.byte		N10   , An1 
	.byte	W12
	.byte		N01
	.byte	W11
	.byte		BEND  , c_v-43
	.byte	W01
	.byte		N12   , An2 
	.byte	W01
	.byte		BEND  , c_v-35
	.byte	W01
	.byte		        c_v-18
	.byte	W01
	.byte		        c_v+0
	.byte	W09
	.byte		N03   , An1 
	.byte	W12
	.byte		N04   , Gn1 
	.byte	W12
	.byte		        Gn1 , v100
	.byte	W11
	.byte		BEND  , c_v-43
	.byte	W01
	.byte	PEND
	.byte	PATT
	 .word	seq_100_7 + 0x7B
	.byte	PATT
	 .word	seq_100_7 + 0x7B
	.byte		N12   , Gn2 , v120
	.byte	W01
	.byte		BEND  , c_v-35
	.byte	W01
	.byte		        c_v-18
	.byte	W01
	.byte		        c_v+0
	.byte	W09
	.byte		N04   , Gn1 
	.byte	W12
	.byte		N10   , Cs2 
	.byte	W12
	.byte		N01
	.byte	W11
	.byte		BEND  , c_v-43
	.byte	W01
	.byte		N12   , Cs3 
	.byte	W01
	.byte		BEND  , c_v-35
	.byte	W01
	.byte		        c_v-18
	.byte	W01
	.byte		        c_v+0
	.byte	W09
	.byte		N03   , Cs2 
	.byte	W12
	.byte		N12   , Dn2 
	.byte	W12
	.byte		N04   , Dn3 
	.byte	W12
	.byte		N01   , Dn2 
	.byte	W12
	.byte		N06   , An2 
	.byte	W12
	.byte		N01   , Cs2 , v060
	.byte	W12
	.byte		N04   , Cs2 , v120
	.byte	W11
	.byte		BEND  , c_v-43
	.byte	W01
	.byte		N12   , Cs3 
	.byte	W01
	.byte		BEND  , c_v-35
	.byte	W01
	.byte		        c_v-18
	.byte	W01
	.byte		        c_v+0
	.byte	W09
	.byte		N03   , Cs2 
	.byte	W12
	.byte		N12   , Dn2 
	.byte	W12
	.byte		N04   , Dn3 
	.byte	W12
	.byte		N01   , Dn2 
	.byte	W12
	.byte		N06   , An2 
	.byte	W12
	.byte		N10   , Cs2 
	.byte	W12
	.byte		N01
	.byte	W11
	.byte		BEND  , c_v-43
	.byte	W01
	.byte		N12   , Cs3 
	.byte	W01
	.byte		BEND  , c_v-35
	.byte	W01
	.byte		        c_v-18
	.byte	W01
	.byte		        c_v+0
	.byte	W09
	.byte		N03   , Cs2 
	.byte	W12
	.byte		N12   , Dn2 
	.byte	W12
	.byte		N04   , Dn3 
	.byte	W12
	.byte		N01   , Dn2 
	.byte	W12
	.byte		N06   , An2 
	.byte	W11
	.byte		BEND  , c_v-43
	.byte	W01
	.byte		N12   , En2 
	.byte	W01
	.byte		BEND  , c_v-35
	.byte	W01
	.byte		        c_v-18
	.byte	W01
	.byte		        c_v+0
	.byte	W09
	.byte		N04   , Fs2 
	.byte	W12
	.byte		N12   , Gs2 
	.byte	W12
	.byte		N04   , En2 
	.byte	W24
	.byte		        En1 
	.byte	W11
	.byte		MOD   , 40
	.byte	W01
	.byte		N23
	.byte	W23
	.byte		MOD   , 0
	.byte	W01
	.byte		N03
	.byte	W11
	.byte		BEND  , c_v-43
	.byte	W01
	.byte		N11   , En2 
	.byte	W01
	.byte		BEND  , c_v-35
	.byte	W01
	.byte		        c_v-18
	.byte	W01
	.byte		        c_v+0
	.byte	W09
	.byte		N11   , Dn2 
	.byte	W12
	.byte		N01   , Dn2 , v060
	.byte	W12
	.byte		N11   , Cs2 , v120
	.byte	W12
	.byte		N01   , Cs2 , v060
	.byte	W12
	.byte		N11   , Bn1 , v120
	.byte	W12
	.byte		N01   , Bn1 , v060
	.byte	W12
	.byte		N10   , An1 , v120
	.byte	W12
	.byte		N01
	.byte	W11
	.byte		BEND  , c_v-43
	.byte	W01
	.byte		N12   , An2 
	.byte	W01
	.byte		BEND  , c_v-35
	.byte	W01
	.byte		        c_v-18
	.byte	W01
	.byte		        c_v+0
	.byte	W09
	.byte		N03   , An1 
	.byte	W12
	.byte		N04   , Gn1 
	.byte	W12
	.byte		        Gn1 , v100
	.byte	W11
	.byte		BEND  , c_v-43
	.byte	W01
	.byte	PATT
	 .word	seq_100_7 + 0x7B
	.byte	PATT
	 .word	seq_100_7 + 0x7B
	.byte	PATT
	 .word	seq_100_7 + 0x7B
	.byte		N12   , Gn2 , v120
	.byte	W01
	.byte		BEND  , c_v-35
	.byte	W01
	.byte		        c_v-18
	.byte	W01
	.byte		        c_v+0
	.byte	W09
	.byte		N04   , Gn1 
	.byte	W12
	.byte		N10   , Fs1 
	.byte	W12
	.byte		N01
	.byte	W11
	.byte		BEND  , c_v-43
	.byte	W01
	.byte		N12   , Fs2 
	.byte	W01
	.byte		BEND  , c_v-35
	.byte	W01
	.byte		        c_v-18
	.byte	W01
	.byte		        c_v+0
	.byte	W09
	.byte		N03   , Fs1 
	.byte	W12
	.byte		N04   , Fn1 
	.byte	W12
	.byte		        Fn1 , v100
	.byte	W11
	.byte		BEND  , c_v-43
	.byte	W01
	.byte		N12   , Fn2 , v120
	.byte	W01
	.byte		BEND  , c_v-35
	.byte	W01
	.byte		        c_v-18
	.byte	W01
	.byte		        c_v+0
	.byte	W09
	.byte		N04   , Fn1 
	.byte	W12
	.byte		N10   , En1 
	.byte	W12
	.byte		N01
	.byte	W11
	.byte		BEND  , c_v-43
	.byte	W01
	.byte		N12   , En2 
	.byte	W01
	.byte		BEND  , c_v-35
	.byte	W01
	.byte		        c_v-18
	.byte	W01
	.byte		        c_v+0
	.byte	W09
	.byte		N03   , En1 
	.byte	W12
	.byte		N04   , Ds1 
	.byte	W12
	.byte		        Ds1 , v100
	.byte	W11
	.byte		BEND  , c_v-43
	.byte	W01
	.byte		N12   , Ds2 , v120
	.byte	W01
	.byte		BEND  , c_v-35
	.byte	W01
	.byte		        c_v-18
	.byte	W01
	.byte		        c_v+0
	.byte	W09
	.byte		N04   , Ds1 
	.byte	W12
	.byte		N11   , En2 
	.byte	W12
	.byte		N01   , En2 , v060
	.byte	W12
	.byte		N10   , En1 , v120
	.byte	W24
	.byte		N12   , En2 
	.byte	W12
	.byte		N02   , Bn1 
	.byte	W12
	.byte		N12   , En1 
	.byte	W32
	.byte	W03
	.byte		BEND  , c_v-43
	.byte	W01
	.byte		N11   , En2 
	.byte	W01
	.byte		BEND  , c_v-35
	.byte	W01
	.byte		        c_v-18
	.byte	W01
	.byte		        c_v+0
	.byte	W09
	.byte		N11   , Dn2 
	.byte	W12
	.byte		N01   , Dn2 , v060
	.byte	W12
	.byte		N11   , Cs2 , v120
	.byte	W12
	.byte		N01   , Cs2 , v060
	.byte	W12
	.byte		N11   , Bn1 , v120
	.byte	W12
	.byte		N01   , Bn1 , v060
	.byte	W84
	.byte	W96
	.byte	W96
	.byte	FINE

@*********************** Track 09 ***********************@

seq_100_8:
	.byte	KEYSH , seq_100_key+0
	.byte	W10
	.byte		VOICE , 70
	.byte	W01
	.byte		VOL   , 46*seq_100_mvl/mxv
	.byte	W01
	.byte		PAN   , c_v+0
	.byte	W12
	.byte		BEND  , c_v-1
	.byte	W01
	.byte		N02   , Cs5 , v120
	.byte	W04
	.byte		        Cs5 , v020
	.byte	W02
	.byte		        En4 , v120
	.byte	W04
	.byte		        En4 , v020
	.byte	W02
	.byte		        En5 , v120
	.byte	W04
	.byte		        En5 , v020
	.byte	W02
	.byte		        An4 , v120
	.byte	W04
	.byte		        An4 , v020
	.byte	W02
	.byte		        Cs5 , v120
	.byte	W04
	.byte		        Cs5 , v020
	.byte	W02
	.byte		        En4 , v120
	.byte	W04
	.byte		        En4 , v020
	.byte	W02
	.byte		        En5 , v120
	.byte	W04
	.byte		        En5 , v020
	.byte	W02
	.byte		        An4 , v120
	.byte	W04
	.byte		        An4 , v020
	.byte	W02
	.byte		        Bn4 , v120
	.byte	W04
	.byte		        Bn4 , v020
	.byte	W02
	.byte		        Gn4 , v120
	.byte	W04
	.byte		        Gn4 , v020
	.byte	W02
	.byte		        Dn5 , v120
	.byte	W04
	.byte		        Dn5 , v020
	.byte	W02
	.byte		        Gn4 , v120
	.byte	W04
	.byte		        Gn4 , v020
	.byte	W01
	.byte	W01
	.byte		        Bn4 , v120
	.byte	W04
	.byte		        Bn4 , v020
	.byte	W02
	.byte		        Gn4 , v120
	.byte	W04
	.byte		        Gn4 , v020
	.byte	W02
	.byte		        Dn5 , v120
	.byte	W04
	.byte		        Dn5 , v020
	.byte	W02
	.byte		        Gn4 , v120
	.byte	W04
	.byte		        Gn4 , v020
	.byte	W02
	.byte		        Cs5 , v120
	.byte	W04
	.byte		        Cs5 , v020
	.byte	W02
	.byte		        En4 , v120
	.byte	W04
	.byte		        En4 , v020
	.byte	W02
	.byte		        En5 , v120
	.byte	W04
	.byte		        En5 , v020
	.byte	W02
	.byte		        An4 , v120
	.byte	W04
	.byte		        An4 , v020
	.byte	W02
	.byte		        Cs5 , v120
	.byte	W04
	.byte		        Cs5 , v020
	.byte	W02
	.byte		        En4 , v120
	.byte	W04
	.byte		        En4 , v020
	.byte	W02
	.byte		        En5 , v120
	.byte	W04
	.byte		        En5 , v020
	.byte	W02
	.byte		        An4 , v120
	.byte	W04
	.byte		        An4 , v020
	.byte	W02
	.byte		        Bn4 , v120
	.byte	W04
	.byte		        Bn4 , v020
	.byte	W02
	.byte		        Gn4 , v120
	.byte	W04
	.byte		        Gn4 , v020
	.byte	W02
	.byte		        Dn5 , v120
	.byte	W04
	.byte		        Dn5 , v020
	.byte	W02
	.byte		        Gn4 , v120
	.byte	W04
	.byte		N01   , Gn4 , v020
	.byte	W01
	.byte		N02   , Gn5 , v100
	.byte	W02
	.byte		        Fs5 
	.byte	W02
	.byte		        En5 
	.byte	W02
	.byte		        Dn5 
	.byte	W02
	.byte		        Bn4 
	.byte	W02
	.byte		        An4 
	.byte	W02
	.byte		        Gn4 
	.byte	W02
	.byte		        Fs4 
	.byte	W02
	.byte		        En4 
	.byte	W02
	.byte		        Dn4 
	.byte	W02
	.byte		        Bn3 
	.byte	W02
	.byte		        An3 
	.byte	W02
	.byte		N01   , Cn5 , v120
	.byte	W01
	.byte		N10   , Cs5 
	.byte	W11
	.byte		N05   , Cs5 , v100
	.byte	W07
	.byte		N02   , An4 , v120
	.byte	W04
	.byte		N01   , An4 , v040
	.byte	W01
	.byte		N11   , En5 , v120
	.byte	W12
	.byte		N05   , En5 , v100
	.byte	W07
	.byte		N02   , An4 , v120
	.byte	W04
	.byte		N01   , An4 , v040
	.byte	W01
	.byte		        Cs5 , v120
	.byte	W01
	.byte		N11   , Dn5 
	.byte	W11
	.byte		N03   , Cs5 
	.byte	W06
	.byte		N04   , Cs5 , v100
	.byte	W06
	.byte		N03   , Bn4 , v120
	.byte	W06
	.byte		N04   , Bn4 , v100
	.byte	W06
	.byte		        Fs5 , v120
	.byte	W06
	.byte		        Fs5 , v100
	.byte	W06
	.byte		N36   , En5 , v120
	.byte	W11
	.byte		MOD   , 8
	.byte	W24
	.byte		        9
	.byte	W01
	.byte		N17   , En5 , v092
	.byte	W19
	.byte		N02   , Gn4 , v120
	.byte	W04
	.byte		        Gn4 , v020
	.byte	W01
	.byte		MOD   , 0
	.byte	W01
	.byte		N02   , Dn5 , v120
	.byte	W04
	.byte		        Dn5 , v020
	.byte	W02
	.byte		        Gn4 , v120
	.byte	W04
	.byte		        Gn4 , v020
	.byte	W01
	.byte	PEND
	.byte	W01
	.byte		N02   , Bn4 , v120
	.byte	W04
	.byte		        Bn4 , v020
	.byte	W02
	.byte		        Gn4 , v120
	.byte	W04
	.byte		        Gn4 , v020
	.byte	W02
	.byte		        Dn5 , v120
	.byte	W04
	.byte		        Dn5 , v020
	.byte	W02
	.byte		        Gn4 , v120
	.byte	W04
	.byte		        Gn4 , v020
	.byte	W01
	.byte		N01   , Cn5 , v120
	.byte	W01
	.byte		N10   , Cs5 
	.byte	W11
	.byte		N05   , Cs5 , v100
	.byte	W07
	.byte		N02   , An4 , v120
	.byte	W03
	.byte		        An4 , v020
	.byte	W02
	.byte		N11   , En5 , v120
	.byte	W12
	.byte		N05   , En5 , v100
	.byte	W07
	.byte		N02   , An4 , v120
	.byte	W03
	.byte		        An4 , v020
	.byte	W02
	.byte		N01   , Cs5 , v120
	.byte	W01
	.byte		N11   , Dn5 
	.byte	W11
	.byte		N03   , Cs5 
	.byte	W06
	.byte		        Cs5 , v080
	.byte	W04
	.byte		N02   , Cs5 , v020
	.byte	W02
	.byte	PEND
	.byte		N03   , Bn4 , v120
	.byte	W06
	.byte		        Bn4 , v080
	.byte	W04
	.byte		N02   , Bn4 , v020
	.byte	W02
	.byte		N04   , Fs5 , v120
	.byte	W06
	.byte		N03   , Fs5 , v080
	.byte	W04
	.byte		N02   , Fs5 , v020
	.byte	W02
	.byte		N36   , En5 , v120
	.byte	W11
	.byte		MOD   , 8
	.byte	W24
	.byte		        9
	.byte	W01
	.byte		N17   , En5 , v092
	.byte	W18
	.byte		MOD   , 0
	.byte	W01
	.byte		N02   , Gn4 , v120
	.byte	W04
	.byte		        Gn4 , v020
	.byte	W02
	.byte		        Dn5 , v120
	.byte	W04
	.byte		        Dn5 , v020
	.byte	W02
	.byte		        Gn4 , v120
	.byte	W04
	.byte		        Gn4 , v020
	.byte	W01
	.byte	W01
	.byte		        Bn4 , v120
	.byte	W04
	.byte		        Bn4 , v020
	.byte	W02
	.byte		        Gn4 , v120
	.byte	W04
	.byte		        Gn4 , v020
	.byte	W02
	.byte		        Dn5 , v120
	.byte	W04
	.byte		        Dn5 , v020
	.byte	W02
	.byte		        Gn4 , v120
	.byte	W04
	.byte		MOD   , 8
	.byte		N01   , Gn4 , v020
	.byte	W01
	.byte		N24   , An5 , v120
	.byte	W23
	.byte		MOD   , 6
	.byte	W01
	.byte		N12   , An5 , v060
	.byte	W12
	.byte		N03   , Gn5 , v120
	.byte	W07
	.byte		N02   , Cs5 
	.byte	W04
	.byte		N01   , Cs5 , v020
	.byte	W01
	.byte		N12   , Fs5 , v120
	.byte	W12
	.byte		N04   , Dn5 
	.byte	W07
	.byte		N02   , Fs4 
	.byte	W04
	.byte		        Fs4 , v020
	.byte	W01
	.byte	W01
	.byte		        An4 , v120
	.byte	W04
	.byte		        An4 , v020
	.byte	W02
	.byte		        Fs4 , v120
	.byte	W04
	.byte		N01   , Fs4 , v020
	.byte	W01
	.byte		N03   , An4 , v120
	.byte	W07
	.byte		N02   , Dn5 
	.byte	W04
	.byte		N01   , Dn5 , v020
	.byte	W01
	.byte		N24   , An5 , v120
	.byte	W24
	.byte		N12   , An5 , v060
	.byte	W12
	.byte		N03   , Gn5 , v120
	.byte	W07
	.byte		N02   , Cs5 
	.byte	W04
	.byte		N01   , Cs5 , v020
	.byte	W01
	.byte		N12   , Fs5 , v120
	.byte	W12
	.byte		N04   , Dn5 
	.byte	W07
	.byte		N02   , Fs4 
	.byte	W04
	.byte		        Fs4 , v024
	.byte	W01
	.byte	W01
	.byte		        An4 , v120
	.byte	W04
	.byte		        An4 , v024
	.byte	W02
	.byte		        Fs4 , v120
	.byte	W04
	.byte		N01   , Fs4 , v020
	.byte	W01
	.byte		N03   , An4 , v120
	.byte	W07
	.byte		N02   , Dn5 
	.byte	W04
	.byte		N01   , Dn5 , v020
	.byte	W01
	.byte		N24   , An5 , v120
	.byte	W24
	.byte		N12   , An5 , v060
	.byte	W12
	.byte		N03   , Gn5 , v120
	.byte	W07
	.byte		N02   , Cs5 
	.byte	W04
	.byte		N01   , Cs5 , v020
	.byte	W01
	.byte		N12   , Fs5 , v120
	.byte	W12
	.byte		N04   , Dn5 
	.byte	W07
	.byte		N02   , Fs4 
	.byte	W04
	.byte		        Fs4 , v024
	.byte	W01
	.byte	W01
	.byte		        An4 , v120
	.byte	W04
	.byte		        An4 , v024
	.byte	W02
	.byte		        Fs4 , v120
	.byte	W04
	.byte		N01   , Fs4 , v020
	.byte	W01
	.byte		N03   , An4 , v120
	.byte	W07
	.byte		N02   , Dn5 
	.byte	W04
	.byte		N01   , Dn5 , v020
	.byte	W01
	.byte		N12   , Bn4 , v120
	.byte	W12
	.byte		N03   , Cs5 
	.byte	W05
	.byte		N06   , Cs5 , v040
	.byte	W07
	.byte		N12   , Dn5 , v120
	.byte	W12
	.byte		N04   , En5 
	.byte	W05
	.byte		N06   , En5 , v040
	.byte	W08
	.byte		N02   , Bn4 , v120
	.byte	W04
	.byte		        Bn4 , v020
	.byte	W02
	.byte		        Gs4 , v120
	.byte	W04
	.byte		        Gs4 , v020
	.byte	W02
	.byte		        En5 , v120
	.byte	W04
	.byte		        En5 , v020
	.byte	W02
	.byte		        Bn4 , v120
	.byte	W04
	.byte		N01   , Bn4 , v020
	.byte	W01
	.byte		N02   , Gs6 , v100
	.byte	W02
	.byte		        Fs6 
	.byte	W02
	.byte		        En6 
	.byte	W02
	.byte		        Dn6 
	.byte	W02
	.byte		        Bn5 
	.byte	W02
	.byte		        An5 
	.byte	W01
	.byte		PAN   , c_v-64
	.byte	W01
	.byte		N02   , Gs5 
	.byte	W02
	.byte		        Fs5 
	.byte	W02
	.byte		        En5 
	.byte	W02
	.byte		        Dn5 , v080
	.byte	W02
	.byte		        Bn4 
	.byte	W02
	.byte		        Gs4 
	.byte	W03
	.byte		PAN   , c_v+63
	.byte	W01
	.byte		N02   , An5 , v040
	.byte	W02
	.byte		        Gs5 
	.byte	W02
	.byte		        Fs5 
	.byte	W02
	.byte		        En5 
	.byte	W03
	.byte		PAN   , c_v+0
	.byte	W01
	.byte		N02   , As5 , v120
	.byte	W02
	.byte		N09   , Bn5 
	.byte	W11
	.byte		N02   , As5 , v060
	.byte	W02
	.byte		N09   , Bn5 
	.byte	W09
	.byte		N12   , Bn5 , v040
	.byte	W12
	.byte		N02   , As5 , v120
	.byte	W02
	.byte		N09   , Bn5 
	.byte	W11
	.byte		N02   , As5 , v060
	.byte	W02
	.byte		N09   , Bn5 
	.byte	W09
	.byte		N02   , As5 , v120
	.byte	W02
	.byte		N09   , Bn5 
	.byte	W11
	.byte		N02   , As5 , v020
	.byte	W02
	.byte		N09   , Bn5 
	.byte	W08
	.byte		MOD   , 0
	.byte	W01
	.byte		N01   , Cn5 , v120
	.byte	W01
	.byte		N10   , Cs5 
	.byte	W11
	.byte		N05   , Cs5 , v100
	.byte	W07
	.byte		N02   , An4 , v120
	.byte	W04
	.byte		N01   , An4 , v040
	.byte	W01
	.byte		N11   , En5 , v120
	.byte	W12
	.byte		N05   , En5 , v100
	.byte	W07
	.byte		N02   , An4 , v120
	.byte	W04
	.byte		N01   , An4 , v040
	.byte	W01
	.byte		        Cs5 , v120
	.byte	W01
	.byte		N11   , Dn5 
	.byte	W11
	.byte		N03   , Cs5 
	.byte	W06
	.byte		N04   , Cs5 , v100
	.byte	W06
	.byte	PATT
	 .word	seq_100_8 + 0x104
	.byte	PATT
	 .word	seq_100_8 + 0x137
	.byte		N03   , Bn4 , v120
	.byte	W06
	.byte		        Bn4 , v080
	.byte	W04
	.byte		N02   , Bn4 , v020
	.byte	W02
	.byte		N04   , Fs5 , v120
	.byte	W06
	.byte		N03   , Fs5 , v080
	.byte	W04
	.byte		N02   , Fs5 , v020
	.byte	W02
	.byte		N36   , En5 , v120
	.byte	W11
	.byte		MOD   , 8
	.byte	W24
	.byte		        15
	.byte	W01
	.byte		N17   , En5 , v092
	.byte	W19
	.byte		N02   , Gn4 , v120
	.byte	W04
	.byte		        Gn4 , v020
	.byte	W01
	.byte		MOD   , 0
	.byte	W01
	.byte		N02   , Dn5 , v120
	.byte	W04
	.byte		        Dn5 , v020
	.byte	W02
	.byte		        Gn4 , v120
	.byte	W04
	.byte		        Gn4 , v020
	.byte	W01
	.byte	W01
	.byte		        Bn4 , v120
	.byte	W04
	.byte		        Bn4 , v020
	.byte	W02
	.byte		        Gn4 , v120
	.byte	W04
	.byte		        Gn4 , v020
	.byte	W02
	.byte		        Dn5 , v120
	.byte	W04
	.byte		        Dn5 , v020
	.byte	W02
	.byte		        Gn4 , v120
	.byte	W05
	.byte		N12   , Dn5 
	.byte	W12
	.byte		N05   , En5 
	.byte	W04
	.byte		MOD   , 10
	.byte	W01
	.byte		N06   , En5 , v060
	.byte	W07
	.byte		N05   , Fs5 , v120
	.byte	W05
	.byte		N06   , Fs5 , v060
	.byte	W07
	.byte		N05   , An5 , v120
	.byte	W05
	.byte		N06   , An5 , v060
	.byte	W06
	.byte		        An5 , v040
	.byte	W06
	.byte		N06
	.byte	W07
	.byte		        An5 , v120
	.byte	W06
	.byte		        An5 , v060
	.byte	W06
	.byte		        An5 , v040
	.byte	W06
	.byte		N06
	.byte	W06
	.byte		N05   , Dn5 , v120
	.byte	W05
	.byte		N06   , Dn5 , v060
	.byte	W07
	.byte		N12   , Bn5 , v120
	.byte	W12
	.byte		N04   , An5 
	.byte	W04
	.byte		N08   , An5 , v060
	.byte	W08
	.byte		N12   , Bn5 , v120
	.byte	W12
	.byte		N04   , An5 
	.byte	W04
	.byte		N14   , An5 , v060
	.byte	W14
	.byte		N13   , An5 , v040
	.byte	W13
	.byte		N02   , Fs4 , v120
	.byte	W04
	.byte		        Fs4 , v020
	.byte	W01
	.byte	W01
	.byte		        Ds5 , v120
	.byte	W04
	.byte		        Ds5 , v020
	.byte	W02
	.byte		        An4 , v120
	.byte	W04
	.byte		        An4 , v020
	.byte	W02
	.byte		        Fs5 , v120
	.byte	W04
	.byte		        Fs5 , v020
	.byte	W02
	.byte		        Fs4 , v120
	.byte	W04
	.byte		        Fs4 , v020
	.byte	W02
	.byte		        Gs4 , v120
	.byte	W04
	.byte		        Gs4 , v020
	.byte	W02
	.byte		        Gs5 , v120
	.byte	W04
	.byte		N01   , Gs5 , v020
	.byte	W01
	.byte		N04   , An5 , v120
	.byte	W04
	.byte		N08   , An5 , v060
	.byte	W08
	.byte		N12   , Gs5 , v120
	.byte	W12
	.byte		N04   , Fs5 
	.byte	W04
	.byte		N08   , Fs5 , v060
	.byte	W08
	.byte		N12   , En5 , v120
	.byte	W12
	.byte		N04   , Dn5 
	.byte	W04
	.byte		N08   , Dn5 , v060
	.byte	W08
	.byte		N12   , Cs5 , v120
	.byte	W12
	.byte		N04   , Bn4 
	.byte	W04
	.byte		N08   , Bn4 , v060
	.byte	W08
	.byte		N12   , An4 , v120
	.byte	W12
	.byte		N06   , An4 , v060
	.byte	W06
	.byte		        An4 , v040
	.byte	W06
	.byte		N12   , Gs4 , v120
	.byte	W12
	.byte		N06   , Gs4 , v060
	.byte	W06
	.byte		        Gs4 , v040
	.byte	W06
	.byte		N12   , An4 , v120
	.byte	W12
	.byte		N06   , An4 , v060
	.byte	W06
	.byte		        An4 , v040
	.byte	W06
	.byte		N12   , Bn4 , v120
	.byte	W12
	.byte		N06   , Bn4 , v060
	.byte	W06
	.byte		        Bn4 , v040
	.byte	W05
	.byte		MOD   , 0
	.byte	W72
	.byte	W01
	.byte	W96
	.byte	W96
	.byte	FINE

@*********************** Track 10 ***********************@

seq_100_9:
	.byte	KEYSH , seq_100_key+0
	.byte	W11
	.byte		VOICE , 83
	.byte	W01
	.byte		VOL   , 40*seq_100_mvl/mxv
	.byte	W01
	.byte		PAN   , c_v+0
	.byte	W11
	.byte		N02   , En4 , v120
	.byte	W04
	.byte		        En4 , v040
	.byte	W02
	.byte		        An3 , v120
	.byte	W04
	.byte		        An3 , v040
	.byte	W02
	.byte		        An4 , v120
	.byte	W04
	.byte		        An4 , v040
	.byte	W02
	.byte		        Cs4 , v120
	.byte	W04
	.byte		        Cs4 , v040
	.byte	W02
	.byte		        En4 , v120
	.byte	W04
	.byte		        En4 , v040
	.byte	W02
	.byte		        An3 , v120
	.byte	W04
	.byte		        An3 , v040
	.byte	W02
	.byte		        An4 , v120
	.byte	W04
	.byte		        An4 , v040
	.byte	W02
	.byte		        Cs4 , v120
	.byte	W04
	.byte		        Cs4 , v040
	.byte	W02
	.byte		        Dn4 , v120
	.byte	W04
	.byte		        Dn4 , v040
	.byte	W02
	.byte		        Bn3 , v120
	.byte	W04
	.byte		        Bn3 , v040
	.byte	W02
	.byte		        Gn4 , v120
	.byte	W04
	.byte		        Gn4 , v040
	.byte	W02
	.byte		        Bn3 , v120
	.byte	W04
	.byte		        Bn3 , v040
	.byte	W02
	.byte		N02   , Dn4 , v120
	.byte	W04
	.byte		        Dn4 , v040
	.byte	W02
	.byte		        Bn3 , v120
	.byte	W04
	.byte		        Bn3 , v040
	.byte	W02
	.byte		        Gn4 , v120
	.byte	W04
	.byte		        Gn4 , v040
	.byte	W02
	.byte		        Bn3 , v120
	.byte	W04
	.byte		        Bn3 , v040
	.byte	W02
	.byte		        En4 , v120
	.byte	W04
	.byte		        En4 , v040
	.byte	W02
	.byte		        An3 , v120
	.byte	W04
	.byte		        An3 , v040
	.byte	W02
	.byte		        An4 , v120
	.byte	W04
	.byte		        An4 , v040
	.byte	W02
	.byte		        Cs4 , v120
	.byte	W04
	.byte		        Cs4 , v040
	.byte	W02
	.byte		        En4 , v120
	.byte	W04
	.byte		        En4 , v040
	.byte	W02
	.byte		        An3 , v120
	.byte	W04
	.byte		        An3 , v040
	.byte	W02
	.byte		        An4 , v120
	.byte	W04
	.byte		        An4 , v040
	.byte	W02
	.byte		        Cs4 , v120
	.byte	W04
	.byte		        Cs4 , v040
	.byte	W02
	.byte		        Dn4 , v120
	.byte	W04
	.byte		        Dn4 , v040
	.byte	W02
	.byte		        Bn3 , v120
	.byte	W04
	.byte		        Bn3 , v040
	.byte	W02
	.byte		        Gn4 , v120
	.byte	W04
	.byte		        Gn4 , v040
	.byte	W02
	.byte		        Bn3 , v120
	.byte	W04
	.byte		        Bn3 , v040
	.byte	W02
	.byte	PEND
	.byte	W03
	.byte		        Gn5 , v060
	.byte	W02
	.byte		        Fs5 
	.byte	W02
	.byte		        En5 
	.byte	W02
	.byte		        Dn5 
	.byte	W02
	.byte		        Bn4 
	.byte	W02
	.byte		        An4 
	.byte	W02
	.byte		        Gn4 
	.byte	W02
	.byte		        Fs4 
	.byte	W02
	.byte		        En4 
	.byte	W02
	.byte		        Dn4 
	.byte	W02
	.byte		N01   , Bn3 
	.byte	W01
	.byte		N02   , En4 , v120
	.byte	W04
	.byte		        En4 , v040
	.byte	W02
	.byte		        An3 , v120
	.byte	W04
	.byte		        An3 , v040
	.byte	W02
	.byte		        An4 , v120
	.byte	W04
	.byte		        An4 , v040
	.byte	W02
	.byte		        Cs4 , v120
	.byte	W04
	.byte		        Cs4 , v040
	.byte	W02
	.byte		        En4 , v120
	.byte	W04
	.byte		        En4 , v040
	.byte	W02
	.byte		        An3 , v120
	.byte	W04
	.byte		        An3 , v040
	.byte	W02
	.byte		        An4 , v120
	.byte	W04
	.byte		        An4 , v040
	.byte	W02
	.byte		        Cs4 , v120
	.byte	W04
	.byte		        Cs4 , v040
	.byte	W02
	.byte		        Dn4 , v120
	.byte	W04
	.byte		        Dn4 , v040
	.byte	W02
	.byte		        Bn3 , v120
	.byte	W04
	.byte		        Bn3 , v040
	.byte	W02
	.byte		        Gn4 , v120
	.byte	W04
	.byte		        Gn4 , v040
	.byte	W02
	.byte		        Bn3 , v120
	.byte	W04
	.byte		        Bn3 , v040
	.byte	W02
	.byte	PATT
	 .word	seq_100_9 + 0x55
	.byte	PATT
	 .word	seq_100_9 + 0x55
	.byte	PATT
	 .word	seq_100_9 + 0x55
	.byte		N02   , Dn4 , v120
	.byte	W04
	.byte		        Dn4 , v040
	.byte	W02
	.byte		        Bn3 , v120
	.byte	W04
	.byte		        Bn3 , v040
	.byte	W02
	.byte		        Gn4 , v120
	.byte	W04
	.byte		        Gn4 , v040
	.byte	W02
	.byte		        Bn3 , v120
	.byte	W04
	.byte		        Bn3 , v040
	.byte	W01
	.byte		MOD   , 4
	.byte	W01
	.byte		N24   , Cs5 , v120
	.byte	W24
	.byte		N02   , Cs4 
	.byte	W04
	.byte		        Cs4 , v040
	.byte	W02
	.byte		        An3 , v120
	.byte	W04
	.byte		        An3 , v040
	.byte	W02
	.byte		        An4 , v120
	.byte	W04
	.byte		        An4 , v040
	.byte	W02
	.byte		        En4 , v120
	.byte	W04
	.byte		        En4 , v040
	.byte	W02
	.byte		N12   , Dn5 , v120
	.byte	W12
	.byte		N05   , An4 
	.byte	W06
	.byte		N02   , An3 
	.byte	W04
	.byte		        An3 , v040
	.byte	W02
	.byte		N02   , Dn4 , v120
	.byte	W04
	.byte		        Dn4 , v040
	.byte	W02
	.byte		        An3 , v120
	.byte	W04
	.byte		        An3 , v040
	.byte	W02
	.byte		        Fs4 , v120
	.byte	W04
	.byte		        Fs4 , v040
	.byte	W02
	.byte		        Dn4 , v120
	.byte	W04
	.byte		        Dn4 , v040
	.byte	W02
	.byte		N24   , Cs5 , v120
	.byte	W24
	.byte		N02   , Cs4 
	.byte	W04
	.byte		        Cs4 , v040
	.byte	W02
	.byte		        An3 , v120
	.byte	W04
	.byte		        An3 , v040
	.byte	W02
	.byte		        An4 , v120
	.byte	W04
	.byte		        An4 , v040
	.byte	W02
	.byte		        En4 , v120
	.byte	W04
	.byte		        En4 , v040
	.byte	W02
	.byte		N12   , Dn5 , v120
	.byte	W12
	.byte		N05   , An4 
	.byte	W06
	.byte		N02   , An3 
	.byte	W04
	.byte		        An3 , v040
	.byte	W02
	.byte	PEND
	.byte	PATT
	 .word	seq_100_9 + 0x16D
	.byte		N02   , Dn4 , v120
	.byte	W04
	.byte		        Dn4 , v040
	.byte	W02
	.byte		        An3 , v120
	.byte	W04
	.byte		        An3 , v040
	.byte	W02
	.byte		        Fs4 , v120
	.byte	W04
	.byte		        Fs4 , v040
	.byte	W02
	.byte		        Dn4 , v120
	.byte	W04
	.byte		        Dn4 , v040
	.byte	W02
	.byte		N12   , Dn4 , v120
	.byte	W12
	.byte		N03   , En4 
	.byte	W05
	.byte		N06   , En4 , v040
	.byte	W07
	.byte		N12   , Fs4 , v120
	.byte	W12
	.byte		N04   , Gs4 
	.byte	W05
	.byte		N06   , Gs4 , v040
	.byte	W07
	.byte		N02   , En4 , v100
	.byte	W04
	.byte		        En4 , v040
	.byte	W02
	.byte		        Bn3 , v100
	.byte	W04
	.byte		        Bn3 , v040
	.byte	W02
	.byte		        Gs4 , v100
	.byte	W04
	.byte		        Gs4 , v040
	.byte	W02
	.byte		        En4 , v100
	.byte	W04
	.byte		        En4 , v040
	.byte	W02
	.byte	W02
	.byte		        Gs5 , v100
	.byte	W02
	.byte		        Fs5 
	.byte	W02
	.byte		        En5 
	.byte	W02
	.byte		        Dn5 
	.byte	W02
	.byte		        Bn4 
	.byte	W02
	.byte		        An4 
	.byte	W01
	.byte		PAN   , c_v-64
	.byte	W01
	.byte		N02   , Gs4 
	.byte	W02
	.byte		        Fs4 
	.byte	W02
	.byte		        En4 , v080
	.byte	W02
	.byte		        Dn4 
	.byte	W02
	.byte		        Bn3 
	.byte	W02
	.byte		PAN   , c_v+63
	.byte	W01
	.byte		N02   , Dn5 , v040
	.byte	W02
	.byte		        Bn4 
	.byte	W02
	.byte		        An4 
	.byte	W02
	.byte		        Gs4 
	.byte	W02
	.byte		        Fs4 
	.byte	W02
	.byte		PAN   , c_v+0
	.byte	W01
	.byte		N02   , Ds5 , v120
	.byte	W02
	.byte		N09   , En5 
	.byte	W10
	.byte		N02   , Ds5 , v060
	.byte	W02
	.byte		N09   , En5 
	.byte	W09
	.byte		N12   , En5 , v040
	.byte	W13
	.byte		N02   , Ds5 , v120
	.byte	W02
	.byte		N09   , En5 
	.byte	W10
	.byte		N02   , Ds5 , v060
	.byte	W02
	.byte		N09   , En5 
	.byte	W10
	.byte		N02   , Ds5 , v120
	.byte	W02
	.byte		N09   , En5 
	.byte	W10
	.byte		N02   , Ds5 , v040
	.byte	W02
	.byte		N09   , En5 
	.byte	W10
	.byte		N02   , En4 , v120
	.byte	W04
	.byte		        En4 , v040
	.byte	W02
	.byte		        An3 , v120
	.byte	W04
	.byte		        An3 , v040
	.byte	W02
	.byte		        An4 , v120
	.byte	W04
	.byte		        An4 , v040
	.byte	W02
	.byte		        Cs4 , v120
	.byte	W04
	.byte		        Cs4 , v040
	.byte	W02
	.byte		        En4 , v120
	.byte	W04
	.byte		        En4 , v040
	.byte	W02
	.byte		        An3 , v120
	.byte	W04
	.byte		        An3 , v040
	.byte	W02
	.byte		        An4 , v120
	.byte	W04
	.byte		        An4 , v040
	.byte	W02
	.byte		        Cs4 , v120
	.byte	W04
	.byte		        Cs4 , v040
	.byte	W02
	.byte		        Dn4 , v120
	.byte	W04
	.byte		        Dn4 , v040
	.byte	W02
	.byte		        Bn3 , v120
	.byte	W04
	.byte		        Bn3 , v040
	.byte	W02
	.byte		        Gn4 , v120
	.byte	W04
	.byte		        Gn4 , v040
	.byte	W02
	.byte		        Bn3 , v120
	.byte	W04
	.byte		        Bn3 , v040
	.byte	W02
	.byte	PATT
	 .word	seq_100_9 + 0x55
	.byte	PATT
	 .word	seq_100_9 + 0x55
	.byte	PATT
	 .word	seq_100_9 + 0x55
	.byte		N02   , Dn4 , v120
	.byte	W04
	.byte		        Dn4 , v040
	.byte	W02
	.byte		        Bn3 , v120
	.byte	W04
	.byte		        Bn3 , v040
	.byte	W02
	.byte		        Gn4 , v120
	.byte	W04
	.byte		        Gn4 , v040
	.byte	W02
	.byte		        Bn3 , v120
	.byte	W04
	.byte		        Bn3 , v040
	.byte	W02
	.byte		N17   , An4 , v120
	.byte	W18
	.byte		N02
	.byte	W06
	.byte		N05   , Dn5 
	.byte	W06
	.byte		N02   , Fs4 
	.byte	W04
	.byte		        Fs4 , v040
	.byte	W02
	.byte		N05   , Dn5 , v120
	.byte	W06
	.byte		N02   , An4 
	.byte	W04
	.byte		        An4 , v040
	.byte	W02
	.byte		        Dn5 , v120
	.byte	W04
	.byte		        Dn5 , v040
	.byte	W02
	.byte		        An4 , v120
	.byte	W04
	.byte		        An4 , v040
	.byte	W02
	.byte		N06   , Dn5 , v120
	.byte	W06
	.byte		N02   , Fn4 
	.byte	W04
	.byte		        Fn4 , v040
	.byte	W02
	.byte		        An4 , v120
	.byte	W04
	.byte		        An4 , v040
	.byte	W02
	.byte		        Dn5 , v120
	.byte	W04
	.byte		        Dn5 , v040
	.byte	W02
	.byte		N05   , An4 , v120
	.byte	W06
	.byte		N02   , Fn4 
	.byte	W04
	.byte		        Fn4 , v040
	.byte	W02
	.byte		N12   , En5 , v120
	.byte	W12
	.byte		N04   , Cs5 
	.byte	W06
	.byte		N02   , An4 
	.byte	W04
	.byte		        An4 , v040
	.byte	W02
	.byte		N12   , En5 , v120
	.byte	W12
	.byte		N04   , Cs5 
	.byte	W06
	.byte		N02   , An4 
	.byte	W04
	.byte		        An4 , v040
	.byte	W02
	.byte		        Bn4 , v120
	.byte	W04
	.byte		        Bn4 , v040
	.byte	W02
	.byte		        Fs4 , v120
	.byte	W04
	.byte		        Fs4 , v040
	.byte	W02
	.byte		        Ds5 , v120
	.byte	W04
	.byte		        Ds5 , v040
	.byte	W02
	.byte		        Ds4 , v120
	.byte	W04
	.byte		        Ds4 , v040
	.byte	W02
	.byte		        Bn4 , v120
	.byte	W04
	.byte		        Bn4 , v040
	.byte	W02
	.byte		        Fs4 , v120
	.byte	W04
	.byte		        Fs4 , v040
	.byte	W02
	.byte		        Ds5 , v120
	.byte	W04
	.byte		        Ds5 , v040
	.byte	W02
	.byte		        Ds4 , v120
	.byte	W04
	.byte		        Ds4 , v040
	.byte	W02
	.byte		        En4 , v120
	.byte	W04
	.byte		        En4 , v040
	.byte	W02
	.byte		        En5 , v120
	.byte	W04
	.byte		        En5 , v040
	.byte	W02
	.byte		N04   , Cs5 , v120
	.byte	W06
	.byte		N02   , Bn4 
	.byte	W04
	.byte		        Bn4 , v040
	.byte	W02
	.byte		N12   , Bn4 , v120
	.byte	W12
	.byte		N04   , An4 
	.byte	W06
	.byte		N02   , Gs4 
	.byte	W04
	.byte		        Gs4 , v040
	.byte	W02
	.byte		N12   , Gs4 , v120
	.byte	W12
	.byte		N04   , Fs4 
	.byte	W06
	.byte		N02   , Gs4 
	.byte	W04
	.byte		        Gs4 , v040
	.byte	W02
	.byte		N12   , En4 , v120
	.byte	W12
	.byte		N04   , Dn4 
	.byte	W06
	.byte		N02
	.byte	W04
	.byte		        Dn4 , v040
	.byte	W02
	.byte		N12   , En4 , v120
	.byte	W12
	.byte		        En5 , v040
	.byte	W12
	.byte		        En4 , v120
	.byte	W12
	.byte		        En5 , v040
	.byte	W12
	.byte		        En4 , v120
	.byte	W12
	.byte		        En5 , v040
	.byte	W12
	.byte		        En4 , v120
	.byte	W12
	.byte		        En5 , v040
	.byte	W11
	.byte		MOD   , 0
	.byte	W72
	.byte	W01
	.byte	W96
	.byte	W96
	.byte	FINE

@*********************** Track 11 ***********************@

seq_100_10:
	.byte	KEYSH , seq_100_key+0
	.byte	W11
	.byte		VOICE , 112
	.byte	W01
	.byte		VOL   , 46*seq_100_mvl/mxv
	.byte	W01
	.byte		PAN   , c_v+0
	.byte	W17
	.byte		N02   , An4 , v040
	.byte	W06
	.byte		        An4 , v100
	.byte	W06
	.byte		        An4 , v040
	.byte	W12
	.byte		N02
	.byte	W06
	.byte		        An4 , v100
	.byte	W06
	.byte		        An4 , v040
	.byte	W12
	.byte		N02
	.byte	W06
	.byte		        An4 , v100
	.byte	W06
	.byte		        An4 , v040
	.byte	W06
	.byte	W06
	.byte		N02   , An4 , v040
	.byte	W06
	.byte		        An4 , v100
	.byte	W06
	.byte		        An4 , v040
	.byte	W12
	.byte		N02
	.byte	W06
	.byte		        An4 , v100
	.byte	W06
	.byte		        An4 , v040
	.byte	W12
	.byte		N02
	.byte	W06
	.byte		        An4 , v100
	.byte	W06
	.byte		        An4 , v040
	.byte	W12
	.byte		N02
	.byte	W06
	.byte		        An4 , v100
	.byte	W06
	.byte		        An4 , v040
	.byte	W06
	.byte	PEND
	.byte	PATT
	 .word	seq_100_10 + 0x26
	.byte	PATT
	 .word	seq_100_10 + 0x26
	.byte	PATT
	 .word	seq_100_10 + 0x26
	.byte	PATT
	 .word	seq_100_10 + 0x26
	.byte	PATT
	 .word	seq_100_10 + 0x26
	.byte	PATT
	 .word	seq_100_10 + 0x26
	.byte	PATT
	 .word	seq_100_10 + 0x26
	.byte	PATT
	 .word	seq_100_10 + 0x26
	.byte	PATT
	 .word	seq_100_10 + 0x26
	.byte	PATT
	 .word	seq_100_10 + 0x26
	.byte	PATT
	 .word	seq_100_10 + 0x26
	.byte	PATT
	 .word	seq_100_10 + 0x26
	.byte	PATT
	 .word	seq_100_10 + 0x26
	.byte	PATT
	 .word	seq_100_10 + 0x26
	.byte	PATT
	 .word	seq_100_10 + 0x26
	.byte	PATT
	 .word	seq_100_10 + 0x26
	.byte	PATT
	 .word	seq_100_10 + 0x26
	.byte	W06
	.byte		N02   , An4 , v040
	.byte	W06
	.byte		        An4 , v100
	.byte	W06
	.byte		        An4 , v040
	.byte	W78
	.byte	W96
	.byte	W96
	.byte	FINE

@******************************************************@

	.align	2

seq_100:
	.byte	11	@ NumTrks
	.byte	0	@ NumBlks
	.byte	seq_100_pri	@ Priority
	.byte	seq_100_rev	@ Reverb

	.word	seq_100_grp

	.word	seq_100_0
	.word	seq_100_1
	.word	seq_100_2
	.word	seq_100_3
	.word	seq_100_4
	.word	seq_100_5
	.word	seq_100_6
	.word	seq_100_7
	.word	seq_100_8
	.word	seq_100_9
	.word	seq_100_10

	.end
