@ File generated by m4a2s Song-Module
	.include "MPlayDef.s"

	.equ	seq_022_grp, bank_000
	.equ	seq_022_pri, 50
	.equ	seq_022_rev, 188
	.equ	seq_022_mvl, 127
	.equ	seq_022_key, 0

	.section .rodata
	.global	seq_022
	.align	2

@*********************** Track 01 ***********************@

seq_022_0:
	.byte	KEYSH , seq_022_key+0
	.byte	TEMPO , 116/2
	.byte		VOICE , 76
	.byte		VOL   , 66*seq_022_mvl/mxv
	.byte		PAN   , c_v+0
	.byte	W01
	.byte		MOD   , 70
	.byte		BENDR , 12
	.byte		LFOS  , 35
	.byte	W01
	.byte		MODT  , mod_tre
	.byte	W22
	.byte	W96
	.byte	W96
	.byte	W96
	.byte	W96
	.byte	W96
	.byte	W92
	.byte	W03
	.byte		VOL   , 66*seq_022_mvl/mxv
	.byte		BEND  , c_v-4
	.byte	W01
	.byte		N40   , Bn3 , v120
	.byte	W03
	.byte		BEND  , c_v-4
	.byte	W02
	.byte		        c_v-3
	.byte	W01
	.byte		        c_v-2
	.byte	W01
	.byte		        c_v+0
	.byte	W11
	.byte		VOL   , 60*seq_022_mvl/mxv
	.byte	W05
	.byte		        56*seq_022_mvl/mxv
	.byte	W03
	.byte		        52*seq_022_mvl/mxv
	.byte	W04
	.byte		        48*seq_022_mvl/mxv
	.byte	W02
	.byte		        45*seq_022_mvl/mxv
	.byte	W08
	.byte		N05   , An3 , v108
	.byte	W03
	.byte		        Bn3 , v120
	.byte	W04
	.byte		VOL   , 66*seq_022_mvl/mxv
	.byte		N42   , Fs4 , v072
	.byte	W24
	.byte	W01
	.byte		VOL   , 64*seq_022_mvl/mxv
	.byte	W03
	.byte		        60*seq_022_mvl/mxv
	.byte	W02
	.byte		        58*seq_022_mvl/mxv
	.byte	W02
	.byte		        56*seq_022_mvl/mxv
	.byte	W02
	.byte		        53*seq_022_mvl/mxv
	.byte	W02
	.byte		        50*seq_022_mvl/mxv
	.byte	W02
	.byte		        44*seq_022_mvl/mxv
	.byte	W01
	.byte		        42*seq_022_mvl/mxv
	.byte	W01
	.byte		        38*seq_022_mvl/mxv
	.byte	W01
	.byte		        36*seq_022_mvl/mxv
	.byte	W01
	.byte		        32*seq_022_mvl/mxv
	.byte	W06
	.byte		        66*seq_022_mvl/mxv
	.byte		BEND  , c_v-4
	.byte	W01
	.byte		N36   , En4 , v120
	.byte	W03
	.byte		BEND  , c_v-4
	.byte	W02
	.byte		        c_v-3
	.byte	W01
	.byte		        c_v-2
	.byte	W01
	.byte		        c_v+0
	.byte	W32
	.byte	W01
	.byte		N05   , En4 , v108
	.byte	W03
	.byte		        Fs4 , v100
	.byte	W04
	.byte		VOL   , 66*seq_022_mvl/mxv
	.byte		BEND  , c_v-4
	.byte	W01
	.byte		N23   , En4 , v120
	.byte	W03
	.byte		BEND  , c_v-4
	.byte	W02
	.byte		        c_v-3
	.byte	W01
	.byte		        c_v-2
	.byte	W01
	.byte		        c_v+0
	.byte	W17
	.byte		N23   , Cs4 
	.byte	W24
	.byte		N84   , An3 
	.byte	W42
	.byte		VOL   , 63*seq_022_mvl/mxv
	.byte	W08
	.byte		        62*seq_022_mvl/mxv
	.byte	W06
	.byte		        59*seq_022_mvl/mxv
	.byte		BEND  , c_v+0
	.byte	W04
	.byte		VOL   , 58*seq_022_mvl/mxv
	.byte	W02
	.byte		BEND  , c_v-1
	.byte	W02
	.byte		VOL   , 55*seq_022_mvl/mxv
	.byte	W02
	.byte		BEND  , c_v-2
	.byte	W01
	.byte		VOL   , 53*seq_022_mvl/mxv
	.byte	W01
	.byte		BEND  , c_v-2
	.byte	W01
	.byte		VOL   , 51*seq_022_mvl/mxv
	.byte	W01
	.byte		BEND  , c_v-3
	.byte	W01
	.byte		VOL   , 48*seq_022_mvl/mxv
	.byte	W01
	.byte		        46*seq_022_mvl/mxv
	.byte		BEND  , c_v-4
	.byte	W02
	.byte		VOL   , 42*seq_022_mvl/mxv
	.byte		BEND  , c_v-4
	.byte	W02
	.byte		VOL   , 37*seq_022_mvl/mxv
	.byte	W02
	.byte		        32*seq_022_mvl/mxv
	.byte	W02
	.byte		        27*seq_022_mvl/mxv
	.byte	W02
	.byte		        20*seq_022_mvl/mxv
	.byte	W14
	.byte	W68
	.byte	W03
	.byte		        66*seq_022_mvl/mxv
	.byte		BEND  , c_v+0
	.byte	W01
	.byte		N24   , Bn3 , v112
	.byte	W23
	.byte		BEND  , c_v-4
	.byte	W01
	.byte		N72   , Fs4 , v060
	.byte	W03
	.byte		BEND  , c_v-4
	.byte	W02
	.byte		        c_v-3
	.byte	W01
	.byte		        c_v-2
	.byte	W01
	.byte		        c_v+0
	.byte	W64
	.byte	W01
	.byte		N24   , En4 , v092
	.byte	W06
	.byte		VOL   , 64*seq_022_mvl/mxv
	.byte	W03
	.byte		        62*seq_022_mvl/mxv
	.byte	W02
	.byte		        59*seq_022_mvl/mxv
	.byte	W02
	.byte		        58*seq_022_mvl/mxv
	.byte	W02
	.byte		        56*seq_022_mvl/mxv
	.byte	W02
	.byte		        52*seq_022_mvl/mxv
	.byte	W02
	.byte		        48*seq_022_mvl/mxv
	.byte	W04
	.byte		        66*seq_022_mvl/mxv
	.byte		BEND  , c_v-4
	.byte	W01
	.byte		N48   , An4 , v080
	.byte	W03
	.byte		BEND  , c_v-4
	.byte	W02
	.byte		        c_v-3
	.byte	W01
	.byte		        c_v-2
	.byte	W01
	.byte		        c_v+0
	.byte	W40
	.byte		        c_v-4
	.byte	W01
	.byte		N36   , Gs4 , v060
	.byte	W03
	.byte		BEND  , c_v-4
	.byte	W02
	.byte		        c_v-3
	.byte	W01
	.byte		        c_v-2
	.byte	W01
	.byte		        c_v+0
	.byte	W28
	.byte	W01
	.byte		N04   , Gs4 , v072
	.byte	W03
	.byte		        An4 
	.byte	W03
	.byte		        Gs4 
	.byte	W03
	.byte		TIE   , Fs4 , v056
	.byte	W03
	.byte	W03
	.byte		VOL   , 41*seq_022_mvl/mxv
	.byte	W32
	.byte		        43*seq_022_mvl/mxv
	.byte	W03
	.byte		        45*seq_022_mvl/mxv
	.byte	W03
	.byte		        47*seq_022_mvl/mxv
	.byte	W03
	.byte		        51*seq_022_mvl/mxv
	.byte	W03
	.byte		        55*seq_022_mvl/mxv
	.byte	W02
	.byte		        57*seq_022_mvl/mxv
	.byte	W05
	.byte		        63*seq_022_mvl/mxv
	.byte	W08
	.byte		        62*seq_022_mvl/mxv
	.byte	W06
	.byte		        59*seq_022_mvl/mxv
	.byte	W04
	.byte		        58*seq_022_mvl/mxv
	.byte	W02
	.byte		BEND  , c_v+0
	.byte	W02
	.byte		VOL   , 55*seq_022_mvl/mxv
	.byte	W03
	.byte		        53*seq_022_mvl/mxv
	.byte	W01
	.byte		BEND  , c_v-1
	.byte	W01
	.byte		VOL   , 51*seq_022_mvl/mxv
	.byte	W02
	.byte		        48*seq_022_mvl/mxv
	.byte	W01
	.byte		        46*seq_022_mvl/mxv
	.byte		BEND  , c_v-2
	.byte	W02
	.byte		VOL   , 42*seq_022_mvl/mxv
	.byte		BEND  , c_v-2
	.byte	W02
	.byte		VOL   , 37*seq_022_mvl/mxv
	.byte		BEND  , c_v-3
	.byte	W02
	.byte		VOL   , 32*seq_022_mvl/mxv
	.byte		BEND  , c_v-4
	.byte	W02
	.byte		VOL   , 27*seq_022_mvl/mxv
	.byte		BEND  , c_v-4
	.byte	W02
	.byte		VOL   , 20*seq_022_mvl/mxv
	.byte	W02
	.byte	PEND
	.byte		EOT   , Fs4 
	.byte	W96
	.byte	W96
	.byte	W96
	.byte	W96
	.byte	W96
	.byte	W96
	.byte	W96
	.byte	W96
	.byte	W96
	.byte	W96
	.byte	W15
	.byte		BEND  , c_v+0
	.byte	W01
	.byte		VOICE , 46
	.byte		VOL   , 76*seq_022_mvl/mxv
	.byte		PAN   , c_v+0
	.byte	W01
	.byte		MOD   , 100
	.byte		MODT  , mod_pan
	.byte	W78
	.byte	W01
	.byte	W12
	.byte		N03   , Bn3 , v112
	.byte	W03
	.byte		        Bn3 , v020
	.byte	W03
	.byte		        Bn3 , v040
	.byte	W03
	.byte		        Bn3 , v020
	.byte	W03
	.byte		        Fs4 , v112
	.byte	W03
	.byte		        Fs4 , v020
	.byte	W03
	.byte		        Fs4 , v040
	.byte	W03
	.byte		        Fs4 , v020
	.byte	W03
	.byte		        En4 , v056
	.byte	W03
	.byte		        En4 , v020
	.byte	W03
	.byte		        En4 , v012
	.byte	W03
	.byte		        En4 , v020
	.byte	W03
	.byte		        Fs4 , v112
	.byte	W03
	.byte		        Fs4 , v020
	.byte	W03
	.byte		        Fs4 , v040
	.byte	W03
	.byte		        Fs4 , v020
	.byte	W03
	.byte		        Bn4 , v112
	.byte	W03
	.byte		        Bn4 , v020
	.byte	W03
	.byte		        Bn4 , v040
	.byte	W03
	.byte		        Bn4 , v020
	.byte	W15
	.byte		        An4 , v112
	.byte	W03
	.byte		        An4 , v020
	.byte	W03
	.byte		        An4 , v040
	.byte	W03
	.byte		        An4 , v020
	.byte	W03
	.byte	PEND
	.byte	W12
	.byte		N03   , Gs4 , v112
	.byte	W03
	.byte		        Gs4 , v020
	.byte	W03
	.byte		        Gs4 , v040
	.byte	W03
	.byte		        Gs4 , v020
	.byte	W15
	.byte		        Fs4 , v112
	.byte	W03
	.byte		        Fs4 , v020
	.byte	W03
	.byte		        Fs4 , v040
	.byte	W03
	.byte		        Fs4 , v020
	.byte	W15
	.byte		        En4 , v112
	.byte	W03
	.byte		        En4 , v020
	.byte	W03
	.byte		        En4 , v040
	.byte	W03
	.byte		        En4 , v020
	.byte	W15
	.byte		        Fs4 , v112
	.byte	W03
	.byte		        Fs4 , v020
	.byte	W03
	.byte		        Fs4 , v040
	.byte	W03
	.byte		        Fs4 , v020
	.byte	W03
	.byte	PEND
	.byte	W96
	.byte	W96
	.byte	PATT
	 .word	seq_022_0 + 0x181
	.byte	PATT
	 .word	seq_022_0 + 0x1CC
	.byte	W96
	.byte	W96
	.byte	W96
	.byte	W96
	.byte	W96
	.byte	W96
	.byte	W96
	.byte	W96
	.byte	W96
	.byte	W16
	.byte		VOICE , 5
	.byte		VOL   , 76*seq_022_mvl/mxv
	.byte	W01
	.byte		MOD   , 100
	.byte	W78
	.byte	W01
	.byte		N04   , Bn3 , v100
	.byte	W06
	.byte		        Bn3 , v016
	.byte	W18
	.byte		N12   , Bn3 , v100
	.byte	W24
	.byte		N04   , Fs3 
	.byte	W06
	.byte		        Fs3 , v016
	.byte	W06
	.byte		        Bn3 , v100
	.byte	W06
	.byte		        Bn3 , v016
	.byte	W06
	.byte		        Fs3 , v100
	.byte	W06
	.byte		        Fs3 , v016
	.byte	W06
	.byte		N12   , Bn3 , v080
	.byte	W12
	.byte	PEND
	.byte	W12
	.byte		N04   , Fs3 , v100
	.byte	W12
	.byte		        Fs3 , v016
	.byte	W12
	.byte		N12   , Fs4 , v080
	.byte	W24
	.byte		N04   , Fs3 , v100
	.byte	W06
	.byte		        Fs3 , v016
	.byte	W06
	.byte		        An3 , v100
	.byte	W06
	.byte		        Fs3 , v016
	.byte	W06
	.byte		N12   , An3 , v100
	.byte	W12
	.byte	PATT
	 .word	seq_022_0 + 0x21E
	.byte	W84
	.byte	W03
	.byte		BEND  , c_v+0
	.byte	W01
	.byte		VOICE , 46
	.byte		VOL   , 76*seq_022_mvl/mxv
	.byte		PAN   , c_v+0
	.byte	W01
	.byte		MOD   , 100
	.byte		MODT  , mod_pan
	.byte	W07
	.byte	PATT
	 .word	seq_022_0 + 0x181
	.byte	PATT
	 .word	seq_022_0 + 0x1CC
	.byte	W96
	.byte	W96
	.byte	PATT
	 .word	seq_022_0 + 0x181
	.byte	PATT
	 .word	seq_022_0 + 0x1CC
	.byte	W96
	.byte	W96
	.byte	W96
	.byte	W96
	.byte	W96
	.byte	W96
	.byte	W96
	.byte	W96
	.byte		VOICE , 76
	.byte		VOL   , 66*seq_022_mvl/mxv
	.byte	W01
	.byte		MOD   , 80
	.byte		BENDR , 12
	.byte		LFOS  , 35
	.byte	W01
	.byte		MODT  , mod_tre
	.byte	W07
	.byte		BEND  , c_v+0
	.byte	W84
	.byte	W03
	.byte	W68
	.byte	W03
	.byte		VOL   , 66*seq_022_mvl/mxv
	.byte	W01
	.byte		N16   , Cs4 , v112
	.byte	W04
	.byte		VOL   , 61*seq_022_mvl/mxv
	.byte	W02
	.byte		        56*seq_022_mvl/mxv
	.byte	W02
	.byte		        51*seq_022_mvl/mxv
	.byte	W02
	.byte		        46*seq_022_mvl/mxv
	.byte	W02
	.byte		        36*seq_022_mvl/mxv
	.byte	W01
	.byte		        29*seq_022_mvl/mxv
	.byte	W02
	.byte		        16*seq_022_mvl/mxv
	.byte	W08
	.byte		        66*seq_022_mvl/mxv
	.byte		BEND  , c_v-4
	.byte	W01
	.byte		N76   , Fs4 , v080
	.byte	W03
	.byte		VOL   , 48*seq_022_mvl/mxv
	.byte		BEND  , c_v-4
	.byte	W02
	.byte		        c_v-3
	.byte	W01
	.byte		        c_v-2
	.byte	W01
	.byte		        c_v+0
	.byte	W08
	.byte		VOL   , 53*seq_022_mvl/mxv
	.byte	W14
	.byte		        60*seq_022_mvl/mxv
	.byte	W06
	.byte		        65*seq_022_mvl/mxv
	.byte	W05
	.byte		        70*seq_022_mvl/mxv
	.byte	W06
	.byte		        78*seq_022_mvl/mxv
	.byte	W04
	.byte		        83*seq_022_mvl/mxv
	.byte	W03
	.byte		        77*seq_022_mvl/mxv
	.byte	W03
	.byte		        72*seq_022_mvl/mxv
	.byte	W02
	.byte		        67*seq_022_mvl/mxv
	.byte	W02
	.byte		        62*seq_022_mvl/mxv
	.byte	W02
	.byte		        56*seq_022_mvl/mxv
	.byte	W02
	.byte		        50*seq_022_mvl/mxv
	.byte	W02
	.byte		        42*seq_022_mvl/mxv
	.byte	W02
	.byte		        35*seq_022_mvl/mxv
	.byte	W01
	.byte		        28*seq_022_mvl/mxv
	.byte	W01
	.byte		        20*seq_022_mvl/mxv
	.byte	W13
	.byte		        66*seq_022_mvl/mxv
	.byte	W01
	.byte		N05   , En4 , v096
	.byte	W06
	.byte		        Fs4 , v072
	.byte	W05
	.byte		BEND  , c_v-4
	.byte	W01
	.byte		N68   , Cs5 , v084
	.byte	W03
	.byte		VOL   , 48*seq_022_mvl/mxv
	.byte		BEND  , c_v-4
	.byte	W02
	.byte		        c_v-3
	.byte	W01
	.byte		        c_v-2
	.byte	W01
	.byte		        c_v+0
	.byte	W08
	.byte		VOL   , 53*seq_022_mvl/mxv
	.byte	W03
	.byte		        54*seq_022_mvl/mxv
	.byte	W02
	.byte		        57*seq_022_mvl/mxv
	.byte	W02
	.byte		        60*seq_022_mvl/mxv
	.byte	W02
	.byte		        64*seq_022_mvl/mxv
	.byte	W02
	.byte		        67*seq_022_mvl/mxv
	.byte	W03
	.byte		        72*seq_022_mvl/mxv
	.byte	W03
	.byte		        77*seq_022_mvl/mxv
	.byte	W02
	.byte		        81*seq_022_mvl/mxv
	.byte	W03
	.byte		        76*seq_022_mvl/mxv
	.byte	W04
	.byte		        73*seq_022_mvl/mxv
	.byte	W03
	.byte		        68*seq_022_mvl/mxv
	.byte	W03
	.byte		        64*seq_022_mvl/mxv
	.byte	W02
	.byte		        60*seq_022_mvl/mxv
	.byte	W02
	.byte		        53*seq_022_mvl/mxv
	.byte	W02
	.byte		        45*seq_022_mvl/mxv
	.byte	W02
	.byte		        37*seq_022_mvl/mxv
	.byte	W02
	.byte		        28*seq_022_mvl/mxv
	.byte	W02
	.byte		        20*seq_022_mvl/mxv
	.byte	W01
	.byte		        16*seq_022_mvl/mxv
	.byte	W01
	.byte		        12*seq_022_mvl/mxv
	.byte	W10
	.byte		        66*seq_022_mvl/mxv
	.byte	W01
	.byte		N23   , En5 , v060
	.byte	W24
	.byte		N64   , Ds5 , v084
	.byte	W03
	.byte		VOL   , 48*seq_022_mvl/mxv
	.byte	W12
	.byte		        52*seq_022_mvl/mxv
	.byte	W03
	.byte		        58*seq_022_mvl/mxv
	.byte	W02
	.byte		        62*seq_022_mvl/mxv
	.byte	W02
	.byte		        65*seq_022_mvl/mxv
	.byte	W02
	.byte		        69*seq_022_mvl/mxv
	.byte	W02
	.byte		        67*seq_022_mvl/mxv
	.byte	W03
	.byte		        70*seq_022_mvl/mxv
	.byte	W03
	.byte		        68*seq_022_mvl/mxv
	.byte	W02
	.byte		        67*seq_022_mvl/mxv
	.byte	W03
	.byte		        66*seq_022_mvl/mxv
	.byte	W04
	.byte		        60*seq_022_mvl/mxv
	.byte	W03
	.byte		        54*seq_022_mvl/mxv
	.byte	W03
	.byte		        48*seq_022_mvl/mxv
	.byte	W02
	.byte		        44*seq_022_mvl/mxv
	.byte	W02
	.byte		        40*seq_022_mvl/mxv
	.byte	W02
	.byte		        35*seq_022_mvl/mxv
	.byte	W02
	.byte		        31*seq_022_mvl/mxv
	.byte	W02
	.byte		        27*seq_022_mvl/mxv
	.byte	W02
	.byte		        22*seq_022_mvl/mxv
	.byte	W01
	.byte		        20*seq_022_mvl/mxv
	.byte	W01
	.byte		        18*seq_022_mvl/mxv
	.byte	W10
	.byte		        66*seq_022_mvl/mxv
	.byte	W01
	.byte		N23   , Bn4 , v088
	.byte	W23
	.byte		BEND  , c_v-4
	.byte	W01
	.byte	PEND
	.byte		VOL   , 33*seq_022_mvl/mxv
	.byte		N36   , Fs5 , v112
	.byte	W03
	.byte		BEND  , c_v-4
	.byte	W02
	.byte		        c_v-3
	.byte	W01
	.byte		VOL   , 35*seq_022_mvl/mxv
	.byte		BEND  , c_v-2
	.byte	W01
	.byte		        c_v+0
	.byte	W01
	.byte		VOL   , 38*seq_022_mvl/mxv
	.byte	W03
	.byte		        38*seq_022_mvl/mxv
	.byte	W03
	.byte		        44*seq_022_mvl/mxv
	.byte	W02
	.byte		        48*seq_022_mvl/mxv
	.byte	W01
	.byte		        50*seq_022_mvl/mxv
	.byte	W01
	.byte		        52*seq_022_mvl/mxv
	.byte	W01
	.byte		        54*seq_022_mvl/mxv
	.byte	W01
	.byte		        48*seq_022_mvl/mxv
	.byte	W01
	.byte		        52*seq_022_mvl/mxv
	.byte	W01
	.byte		        50*seq_022_mvl/mxv
	.byte	W01
	.byte		        49*seq_022_mvl/mxv
	.byte	W01
	.byte		        46*seq_022_mvl/mxv
	.byte	W01
	.byte		        42*seq_022_mvl/mxv
	.byte	W01
	.byte		        37*seq_022_mvl/mxv
	.byte	W01
	.byte		        32*seq_022_mvl/mxv
	.byte	W08
	.byte		        66*seq_022_mvl/mxv
	.byte	W01
	.byte		N05   , En5 , v096
	.byte	W04
	.byte		        Fs5 , v056
	.byte	W03
	.byte		        En5 , v072
	.byte	W04
	.byte		BEND  , c_v-4
	.byte	W01
	.byte		N32   , Ds5 , v112
	.byte	W03
	.byte		BEND  , c_v-4
	.byte	W02
	.byte		        c_v-3
	.byte	W01
	.byte		        c_v-2
	.byte	W01
	.byte		        c_v+0
	.byte	W15
	.byte		VOL   , 60*seq_022_mvl/mxv
	.byte	W01
	.byte		        58*seq_022_mvl/mxv
	.byte	W01
	.byte		        56*seq_022_mvl/mxv
	.byte	W01
	.byte		        54*seq_022_mvl/mxv
	.byte	W01
	.byte		        51*seq_022_mvl/mxv
	.byte	W01
	.byte		        49*seq_022_mvl/mxv
	.byte	W01
	.byte		        47*seq_022_mvl/mxv
	.byte	W01
	.byte		        45*seq_022_mvl/mxv
	.byte	W01
	.byte		        42*seq_022_mvl/mxv
	.byte	W01
	.byte		        40*seq_022_mvl/mxv
	.byte	W01
	.byte		        36*seq_022_mvl/mxv
	.byte	W01
	.byte		        30*seq_022_mvl/mxv
	.byte	W01
	.byte		        26*seq_022_mvl/mxv
	.byte	W01
	.byte		        20*seq_022_mvl/mxv
	.byte	W01
	.byte		        16*seq_022_mvl/mxv
	.byte	W01
	.byte		        10*seq_022_mvl/mxv
	.byte	W10
	.byte		        66*seq_022_mvl/mxv
	.byte		BEND  , c_v-4
	.byte	W01
	.byte	PEND
	.byte		N80   , Cs5 
	.byte	W03
	.byte		VOL   , 40*seq_022_mvl/mxv
	.byte		BEND  , c_v-4
	.byte	W02
	.byte		        c_v-3
	.byte	W01
	.byte		        c_v-2
	.byte	W01
	.byte		        c_v+0
	.byte	W08
	.byte		VOL   , 46*seq_022_mvl/mxv
	.byte	W14
	.byte		        50*seq_022_mvl/mxv
	.byte	W06
	.byte		        55*seq_022_mvl/mxv
	.byte	W05
	.byte		        58*seq_022_mvl/mxv
	.byte	W06
	.byte		        62*seq_022_mvl/mxv
	.byte	W04
	.byte		        65*seq_022_mvl/mxv
	.byte	W03
	.byte		        64*seq_022_mvl/mxv
	.byte	W03
	.byte		        63*seq_022_mvl/mxv
	.byte	W02
	.byte		        62*seq_022_mvl/mxv
	.byte	W02
	.byte		        61*seq_022_mvl/mxv
	.byte	W02
	.byte		        60*seq_022_mvl/mxv
	.byte		BEND  , c_v+0
	.byte	W02
	.byte		VOL   , 59*seq_022_mvl/mxv
	.byte	W02
	.byte		        55*seq_022_mvl/mxv
	.byte	W02
	.byte		        51*seq_022_mvl/mxv
	.byte		BEND  , c_v-1
	.byte	W02
	.byte		VOL   , 46*seq_022_mvl/mxv
	.byte	W02
	.byte		        42*seq_022_mvl/mxv
	.byte		BEND  , c_v-2
	.byte	W02
	.byte		VOL   , 38*seq_022_mvl/mxv
	.byte		BEND  , c_v-2
	.byte	W02
	.byte		VOL   , 34*seq_022_mvl/mxv
	.byte		BEND  , c_v-3
	.byte	W02
	.byte		VOL   , 29*seq_022_mvl/mxv
	.byte		BEND  , c_v-4
	.byte	W02
	.byte		        c_v-4
	.byte	W15
	.byte		VOL   , 66*seq_022_mvl/mxv
	.byte		BEND  , c_v-4
	.byte	W01
	.byte		N36   , Cs5 , v084
	.byte	W03
	.byte		BEND  , c_v-4
	.byte	W02
	.byte		        c_v-3
	.byte	W01
	.byte		        c_v-2
	.byte	W01
	.byte		        c_v+0
	.byte	W28
	.byte	W01
	.byte		N36   , Fs5 , v052
	.byte	W32
	.byte	W03
	.byte		VOL   , 66*seq_022_mvl/mxv
	.byte		BEND  , c_v+0
	.byte	W01
	.byte		N24   , An5 , v084
	.byte	W23
	.byte		BEND  , c_v-4
	.byte	W01
	.byte		N68   , Gs5 , v092
	.byte	W03
	.byte		BEND  , c_v-4
	.byte	W02
	.byte		        c_v-3
	.byte	W01
	.byte		        c_v-2
	.byte	W01
	.byte		        c_v+0
	.byte	W02
	.byte		VOL   , 43*seq_022_mvl/mxv
	.byte	W12
	.byte		        45*seq_022_mvl/mxv
	.byte	W03
	.byte		        51*seq_022_mvl/mxv
	.byte	W02
	.byte		        54*seq_022_mvl/mxv
	.byte	W02
	.byte		        56*seq_022_mvl/mxv
	.byte	W02
	.byte		        58*seq_022_mvl/mxv
	.byte	W02
	.byte		        61*seq_022_mvl/mxv
	.byte	W03
	.byte		        64*seq_022_mvl/mxv
	.byte	W03
	.byte		        68*seq_022_mvl/mxv
	.byte	W02
	.byte		        66*seq_022_mvl/mxv
	.byte	W03
	.byte		        61*seq_022_mvl/mxv
	.byte	W04
	.byte		        56*seq_022_mvl/mxv
	.byte	W03
	.byte		        52*seq_022_mvl/mxv
	.byte	W03
	.byte		        48*seq_022_mvl/mxv
	.byte	W02
	.byte		        45*seq_022_mvl/mxv
	.byte	W02
	.byte		        42*seq_022_mvl/mxv
	.byte	W02
	.byte		        35*seq_022_mvl/mxv
	.byte	W02
	.byte		        28*seq_022_mvl/mxv
	.byte	W02
	.byte		        21*seq_022_mvl/mxv
	.byte	W02
	.byte		        14*seq_022_mvl/mxv
	.byte	W01
	.byte		        10*seq_022_mvl/mxv
	.byte	W01
	.byte		        7*seq_022_mvl/mxv
	.byte	W04
	.byte		        66*seq_022_mvl/mxv
	.byte	W01
	.byte		N23   , En5 , v080
	.byte	W23
	.byte		BEND  , c_v-4
	.byte	W01
	.byte		N36   , Bn5 , v112
	.byte	W03
	.byte		BEND  , c_v-4
	.byte	W02
	.byte		        c_v-3
	.byte	W01
	.byte		        c_v-2
	.byte	W01
	.byte		        c_v+0
	.byte	W28
	.byte	W01
	.byte		N05   , An5 , v096
	.byte	W04
	.byte		        Bn5 
	.byte	W03
	.byte		        An5 , v092
	.byte	W04
	.byte		BEND  , c_v-4
	.byte	W01
	.byte		N44   , Gs5 
	.byte	W02
	.byte		VOL   , 34*seq_022_mvl/mxv
	.byte	W01
	.byte		BEND  , c_v-4
	.byte	W02
	.byte		        c_v-3
	.byte	W01
	.byte		        c_v-2
	.byte	W01
	.byte		        c_v+0
	.byte	W02
	.byte		VOL   , 38*seq_022_mvl/mxv
	.byte	W03
	.byte		        40*seq_022_mvl/mxv
	.byte	W03
	.byte		        46*seq_022_mvl/mxv
	.byte	W03
	.byte		        52*seq_022_mvl/mxv
	.byte	W02
	.byte		        59*seq_022_mvl/mxv
	.byte	W04
	.byte		        64*seq_022_mvl/mxv
	.byte	W02
	.byte		BEND  , c_v+0
	.byte	W01
	.byte		VOL   , 60*seq_022_mvl/mxv
	.byte	W02
	.byte		        58*seq_022_mvl/mxv
	.byte	W02
	.byte		        56*seq_022_mvl/mxv
	.byte	W01
	.byte		BEND  , c_v-1
	.byte	W01
	.byte		VOL   , 53*seq_022_mvl/mxv
	.byte	W02
	.byte		        50*seq_022_mvl/mxv
	.byte	W01
	.byte		BEND  , c_v-2
	.byte	W01
	.byte		VOL   , 44*seq_022_mvl/mxv
	.byte	W01
	.byte		        42*seq_022_mvl/mxv
	.byte		BEND  , c_v-2
	.byte	W01
	.byte		VOL   , 38*seq_022_mvl/mxv
	.byte	W01
	.byte		        36*seq_022_mvl/mxv
	.byte		BEND  , c_v-3
	.byte	W01
	.byte		VOL   , 32*seq_022_mvl/mxv
	.byte	W01
	.byte		BEND  , c_v-4
	.byte	W01
	.byte		VOL   , 28*seq_022_mvl/mxv
	.byte	W01
	.byte		BEND  , c_v-4
	.byte	W01
	.byte		VOL   , 24*seq_022_mvl/mxv
	.byte	W02
	.byte		        15*seq_022_mvl/mxv
	.byte	W01
	.byte	W96
	.byte	W64
	.byte	W01
	.byte		        66*seq_022_mvl/mxv
	.byte	W06
	.byte		BEND  , c_v+0
	.byte	W01
	.byte		N23   , Cs4 , v072
	.byte	W23
	.byte		BEND  , c_v-4
	.byte	W01
	.byte		N32   , Fs4 , v072
	.byte	W03
	.byte		BEND  , c_v-4
	.byte	W02
	.byte		        c_v-3
	.byte	W01
	.byte		        c_v-2
	.byte	W01
	.byte		        c_v+0
	.byte	W11
	.byte		VOL   , 60*seq_022_mvl/mxv
	.byte	W05
	.byte		        56*seq_022_mvl/mxv
	.byte	W03
	.byte		        52*seq_022_mvl/mxv
	.byte	W04
	.byte		        48*seq_022_mvl/mxv
	.byte	W02
	.byte		        45*seq_022_mvl/mxv
	.byte	W04
	.byte		N06   , En4 , v108
	.byte	W06
	.byte		        Fs4 , v080
	.byte	W05
	.byte		VOL   , 66*seq_022_mvl/mxv
	.byte	W01
	.byte		N42   , Cs5 , v072
	.byte	W24
	.byte		VOL   , 64*seq_022_mvl/mxv
	.byte	W03
	.byte		        60*seq_022_mvl/mxv
	.byte	W02
	.byte		        58*seq_022_mvl/mxv
	.byte	W02
	.byte		        56*seq_022_mvl/mxv
	.byte	W02
	.byte		        53*seq_022_mvl/mxv
	.byte	W02
	.byte		        50*seq_022_mvl/mxv
	.byte	W02
	.byte		        44*seq_022_mvl/mxv
	.byte	W01
	.byte		        42*seq_022_mvl/mxv
	.byte	W01
	.byte		        38*seq_022_mvl/mxv
	.byte	W01
	.byte		        36*seq_022_mvl/mxv
	.byte	W01
	.byte		        32*seq_022_mvl/mxv
	.byte	W06
	.byte		        66*seq_022_mvl/mxv
	.byte		BEND  , c_v-4
	.byte	W01
	.byte	PEND
	.byte		N36   , Bn4 , v056
	.byte	W03
	.byte		BEND  , c_v-4
	.byte	W02
	.byte		        c_v-3
	.byte	W01
	.byte		        c_v-2
	.byte	W01
	.byte		        c_v+0
	.byte	W28
	.byte	W01
	.byte		N06   , Bn4 , v068
	.byte	W06
	.byte		        Cs5 , v060
	.byte	W05
	.byte		VOL   , 66*seq_022_mvl/mxv
	.byte		BEND  , c_v-4
	.byte	W01
	.byte		N23   , Bn4 , v072
	.byte	W03
	.byte		BEND  , c_v-4
	.byte	W02
	.byte		        c_v-3
	.byte	W01
	.byte		        c_v-2
	.byte	W01
	.byte		        c_v+0
	.byte	W17
	.byte		N23   , Gs4 
	.byte	W24
	.byte		N84   , Fs4 , v072
	.byte	W42
	.byte		VOL   , 63*seq_022_mvl/mxv
	.byte	W08
	.byte		        62*seq_022_mvl/mxv
	.byte	W06
	.byte		        59*seq_022_mvl/mxv
	.byte		BEND  , c_v+0
	.byte	W04
	.byte		VOL   , 58*seq_022_mvl/mxv
	.byte	W02
	.byte		BEND  , c_v-1
	.byte	W02
	.byte		VOL   , 55*seq_022_mvl/mxv
	.byte	W02
	.byte		BEND  , c_v-2
	.byte	W01
	.byte		VOL   , 53*seq_022_mvl/mxv
	.byte	W01
	.byte		BEND  , c_v-2
	.byte	W01
	.byte		VOL   , 51*seq_022_mvl/mxv
	.byte	W01
	.byte		BEND  , c_v-3
	.byte	W01
	.byte		VOL   , 48*seq_022_mvl/mxv
	.byte	W01
	.byte		        46*seq_022_mvl/mxv
	.byte		BEND  , c_v-4
	.byte	W02
	.byte		VOL   , 42*seq_022_mvl/mxv
	.byte		BEND  , c_v-4
	.byte	W02
	.byte		VOL   , 37*seq_022_mvl/mxv
	.byte	W02
	.byte		        32*seq_022_mvl/mxv
	.byte	W02
	.byte		        27*seq_022_mvl/mxv
	.byte	W02
	.byte		        20*seq_022_mvl/mxv
	.byte	W14
	.byte	PEND
	.byte	W68
	.byte	W03
	.byte		VOL   , 66*seq_022_mvl/mxv
	.byte		BEND  , c_v+0
	.byte	W01
	.byte		N24   , Fs4 , v072
	.byte	W23
	.byte		BEND  , c_v-4
	.byte	W01
	.byte	PEND
	.byte		N72   , Cs5 , v060
	.byte	W03
	.byte		BEND  , c_v-4
	.byte	W02
	.byte		        c_v-3
	.byte	W01
	.byte		        c_v-2
	.byte	W01
	.byte		        c_v+0
	.byte	W64
	.byte	W01
	.byte		N24   , Bn4 , v092
	.byte	W06
	.byte		VOL   , 64*seq_022_mvl/mxv
	.byte	W03
	.byte		        62*seq_022_mvl/mxv
	.byte	W02
	.byte		        59*seq_022_mvl/mxv
	.byte	W02
	.byte		        58*seq_022_mvl/mxv
	.byte	W02
	.byte		        56*seq_022_mvl/mxv
	.byte	W02
	.byte		        52*seq_022_mvl/mxv
	.byte	W02
	.byte		        48*seq_022_mvl/mxv
	.byte	W04
	.byte		        66*seq_022_mvl/mxv
	.byte		BEND  , c_v-4
	.byte	W01
	.byte	PEND
	.byte		N48   , Fs5 , v080
	.byte	W03
	.byte		BEND  , c_v-4
	.byte	W02
	.byte		        c_v-3
	.byte	W01
	.byte		        c_v-2
	.byte	W01
	.byte		        c_v+0
	.byte	W40
	.byte		        c_v-4
	.byte	W01
	.byte		N36   , En5 , v060
	.byte	W03
	.byte		BEND  , c_v-4
	.byte	W02
	.byte		        c_v-3
	.byte	W01
	.byte		        c_v-2
	.byte	W01
	.byte		        c_v+0
	.byte	W28
	.byte	W01
	.byte		N04   , En5 , v072
	.byte	W03
	.byte		        Fs5 
	.byte	W03
	.byte		        En5 
	.byte	W03
	.byte		TIE   , Cs5 , v056
	.byte	W03
	.byte	PEND
	.byte	PATT
	 .word	seq_022_0 + 0x120
	.byte		EOT   , Cs5 
	.byte	W68
	.byte	W03
	.byte		VOL   , 66*seq_022_mvl/mxv
	.byte		BEND  , c_v+0
	.byte	W01
	.byte		N23   , Cs4 , v072
	.byte	W23
	.byte		BEND  , c_v-4
	.byte	W01
	.byte	PATT
	 .word	seq_022_0 + 0x512
	.byte		N36   , Bn4 , v072
	.byte	W03
	.byte		BEND  , c_v-4
	.byte	W02
	.byte		        c_v-3
	.byte	W01
	.byte		        c_v-2
	.byte	W01
	.byte		        c_v+0
	.byte	W28
	.byte	W01
	.byte		N06   , Bn4 , v068
	.byte	W06
	.byte		        Cs5 , v060
	.byte	W05
	.byte		VOL   , 66*seq_022_mvl/mxv
	.byte		BEND  , c_v-4
	.byte	W01
	.byte		N23   , Bn4 , v072
	.byte	W03
	.byte		BEND  , c_v-4
	.byte	W02
	.byte		        c_v-3
	.byte	W01
	.byte		        c_v-2
	.byte	W01
	.byte		        c_v+0
	.byte	W17
	.byte		N23   , Gs4 
	.byte	W24
	.byte	PATT
	 .word	seq_022_0 + 0x57E
	.byte	PATT
	 .word	seq_022_0 + 0x5B9
	.byte	PATT
	 .word	seq_022_0 + 0x5C8
	.byte	PATT
	 .word	seq_022_0 + 0x5EE
	.byte	W03
	.byte		VOL   , 41*seq_022_mvl/mxv
	.byte	W32
	.byte		        43*seq_022_mvl/mxv
	.byte	W03
	.byte		        45*seq_022_mvl/mxv
	.byte	W03
	.byte		        47*seq_022_mvl/mxv
	.byte	W03
	.byte		        51*seq_022_mvl/mxv
	.byte	W03
	.byte		        55*seq_022_mvl/mxv
	.byte	W02
	.byte		        57*seq_022_mvl/mxv
	.byte	W05
	.byte		        63*seq_022_mvl/mxv
	.byte	W08
	.byte		        62*seq_022_mvl/mxv
	.byte	W06
	.byte		        59*seq_022_mvl/mxv
	.byte	W04
	.byte		        58*seq_022_mvl/mxv
	.byte	W02
	.byte		BEND  , c_v+0
	.byte	W02
	.byte		VOL   , 55*seq_022_mvl/mxv
	.byte	W03
	.byte		        53*seq_022_mvl/mxv
	.byte	W01
	.byte		BEND  , c_v-1
	.byte	W01
	.byte		VOL   , 51*seq_022_mvl/mxv
	.byte	W02
	.byte		        48*seq_022_mvl/mxv
	.byte	W01
	.byte		        46*seq_022_mvl/mxv
	.byte		BEND  , c_v-2
	.byte	W02
	.byte		VOL   , 42*seq_022_mvl/mxv
	.byte		BEND  , c_v-2
	.byte	W02
	.byte		VOL   , 37*seq_022_mvl/mxv
	.byte		BEND  , c_v-3
	.byte	W02
	.byte		VOL   , 32*seq_022_mvl/mxv
	.byte		BEND  , c_v-4
	.byte	W02
	.byte		VOL   , 27*seq_022_mvl/mxv
	.byte		BEND  , c_v-4
	.byte	W02
	.byte		VOL   , 20*seq_022_mvl/mxv
	.byte	W01
	.byte		VOICE , 45
	.byte		MOD   , 50
	.byte		PAN   , c_v+0
	.byte	W01
	.byte		EOT   , Cs5 
	.byte	W68
	.byte	W03
	.byte		VOL   , 66*seq_022_mvl/mxv
	.byte		BEND  , c_v-2
	.byte	W01
	.byte		N17   , Cs3 , v100
	.byte	W03
	.byte		BEND  , c_v-2
	.byte	W02
	.byte		VOL   , 60*seq_022_mvl/mxv
	.byte		BEND  , c_v-1
	.byte	W01
	.byte		        c_v-1
	.byte	W01
	.byte		VOL   , 53*seq_022_mvl/mxv
	.byte		BEND  , c_v+0
	.byte	W02
	.byte		VOL   , 49*seq_022_mvl/mxv
	.byte	W02
	.byte		        46*seq_022_mvl/mxv
	.byte	W01
	.byte		        42*seq_022_mvl/mxv
	.byte	W01
	.byte		        39*seq_022_mvl/mxv
	.byte	W01
	.byte		        36*seq_022_mvl/mxv
	.byte	W01
	.byte		        34*seq_022_mvl/mxv
	.byte	W01
	.byte		        32*seq_022_mvl/mxv
	.byte	W01
	.byte		        29*seq_022_mvl/mxv
	.byte	W06
	.byte		        64*seq_022_mvl/mxv
	.byte	W01
	.byte		N32   , Fs3 
	.byte	W06
	.byte		VOL   , 40*seq_022_mvl/mxv
	.byte	W05
	.byte		        45*seq_022_mvl/mxv
	.byte	W02
	.byte		        50*seq_022_mvl/mxv
	.byte	W02
	.byte		        56*seq_022_mvl/mxv
	.byte	W02
	.byte		        65*seq_022_mvl/mxv
	.byte	W01
	.byte		        76*seq_022_mvl/mxv
	.byte	W03
	.byte		        74*seq_022_mvl/mxv
	.byte	W02
	.byte		        68*seq_022_mvl/mxv
	.byte	W01
	.byte		        66*seq_022_mvl/mxv
	.byte	W02
	.byte		        60*seq_022_mvl/mxv
	.byte	W04
	.byte		        54*seq_022_mvl/mxv
	.byte	W02
	.byte		        45*seq_022_mvl/mxv
	.byte	W04
	.byte		N06   , En3 
	.byte	W06
	.byte		        Fs3 
	.byte	W05
	.byte		VOL   , 66*seq_022_mvl/mxv
	.byte	W01
	.byte		N42   , Cs4 
	.byte	W24
	.byte		VOL   , 64*seq_022_mvl/mxv
	.byte	W03
	.byte		        60*seq_022_mvl/mxv
	.byte	W02
	.byte		        58*seq_022_mvl/mxv
	.byte	W02
	.byte		        56*seq_022_mvl/mxv
	.byte	W02
	.byte		        53*seq_022_mvl/mxv
	.byte	W02
	.byte		        50*seq_022_mvl/mxv
	.byte	W02
	.byte		        44*seq_022_mvl/mxv
	.byte	W01
	.byte		        42*seq_022_mvl/mxv
	.byte	W01
	.byte		        38*seq_022_mvl/mxv
	.byte	W01
	.byte		        36*seq_022_mvl/mxv
	.byte	W01
	.byte		        32*seq_022_mvl/mxv
	.byte	W06
	.byte		        66*seq_022_mvl/mxv
	.byte		BEND  , c_v-4
	.byte	W01
	.byte		N36   , Bn3 
	.byte	W03
	.byte		BEND  , c_v-4
	.byte	W02
	.byte		        c_v-3
	.byte	W01
	.byte		        c_v-2
	.byte	W01
	.byte		        c_v+0
	.byte	W28
	.byte	W01
	.byte		N06
	.byte	W06
	.byte		        Cs4 
	.byte	W05
	.byte		VOL   , 66*seq_022_mvl/mxv
	.byte	W01
	.byte		N23   , Bn3 
	.byte	W24
	.byte		        Gs3 , v076
	.byte	W24
	.byte		N96   , Fs3 , v100
	.byte	W42
	.byte		VOL   , 63*seq_022_mvl/mxv
	.byte	W08
	.byte		        62*seq_022_mvl/mxv
	.byte	W06
	.byte		        59*seq_022_mvl/mxv
	.byte	W04
	.byte		        58*seq_022_mvl/mxv
	.byte	W04
	.byte		        55*seq_022_mvl/mxv
	.byte	W03
	.byte		        53*seq_022_mvl/mxv
	.byte	W02
	.byte		        51*seq_022_mvl/mxv
	.byte	W02
	.byte		        48*seq_022_mvl/mxv
	.byte	W01
	.byte		        46*seq_022_mvl/mxv
	.byte	W02
	.byte		        42*seq_022_mvl/mxv
	.byte	W02
	.byte		        37*seq_022_mvl/mxv
	.byte	W02
	.byte		        32*seq_022_mvl/mxv
	.byte	W02
	.byte		        27*seq_022_mvl/mxv
	.byte	W02
	.byte		        20*seq_022_mvl/mxv
	.byte	W14
	.byte	W68
	.byte	W03
	.byte		        66*seq_022_mvl/mxv
	.byte	W01
	.byte		N24
	.byte	W24
	.byte		N72   , Cs4 
	.byte	W72
	.byte		N24   , Bn3 
	.byte	W06
	.byte		VOL   , 64*seq_022_mvl/mxv
	.byte	W03
	.byte		        62*seq_022_mvl/mxv
	.byte	W02
	.byte		        59*seq_022_mvl/mxv
	.byte	W02
	.byte		        58*seq_022_mvl/mxv
	.byte	W02
	.byte		        56*seq_022_mvl/mxv
	.byte	W02
	.byte		        52*seq_022_mvl/mxv
	.byte	W02
	.byte		        48*seq_022_mvl/mxv
	.byte	W04
	.byte		        66*seq_022_mvl/mxv
	.byte		BEND  , c_v-4
	.byte	W01
	.byte		N48   , Fs4 
	.byte	W03
	.byte		BEND  , c_v-4
	.byte	W02
	.byte		        c_v-3
	.byte	W01
	.byte		        c_v-2
	.byte	W01
	.byte		        c_v+0
	.byte	W40
	.byte	W01
	.byte		N36   , En4 
	.byte	W36
	.byte		N06   , Fs4 
	.byte	W06
	.byte		        En4 
	.byte	W05
	.byte		BEND  , c_v+0
	.byte	W01
	.byte		TIE   , Cs4 
	.byte	W03
	.byte		VOL   , 41*seq_022_mvl/mxv
	.byte	W32
	.byte		        43*seq_022_mvl/mxv
	.byte	W03
	.byte		        45*seq_022_mvl/mxv
	.byte	W03
	.byte		        47*seq_022_mvl/mxv
	.byte	W03
	.byte		        51*seq_022_mvl/mxv
	.byte	W03
	.byte		        55*seq_022_mvl/mxv
	.byte	W02
	.byte		        57*seq_022_mvl/mxv
	.byte	W14
	.byte		        60*seq_022_mvl/mxv
	.byte	W09
	.byte		        65*seq_022_mvl/mxv
	.byte	W08
	.byte		        68*seq_022_mvl/mxv
	.byte	W07
	.byte		        71*seq_022_mvl/mxv
	.byte	W09
	.byte	W01
	.byte		        69*seq_022_mvl/mxv
	.byte	W03
	.byte		        68*seq_022_mvl/mxv
	.byte	W04
	.byte		        66*seq_022_mvl/mxv
	.byte	W04
	.byte		        63*seq_022_mvl/mxv
	.byte	W08
	.byte		        62*seq_022_mvl/mxv
	.byte	W04
	.byte		BEND  , c_v+0
	.byte	W02
	.byte		VOL   , 59*seq_022_mvl/mxv
	.byte	W04
	.byte		        58*seq_022_mvl/mxv
	.byte	W04
	.byte		        55*seq_022_mvl/mxv
	.byte	W02
	.byte		BEND  , c_v-1
	.byte	W01
	.byte		VOL   , 53*seq_022_mvl/mxv
	.byte	W01
	.byte		BEND  , c_v-1
	.byte	W01
	.byte		VOL   , 51*seq_022_mvl/mxv
	.byte	W01
	.byte		BEND  , c_v-2
	.byte	W01
	.byte		VOL   , 48*seq_022_mvl/mxv
	.byte	W01
	.byte		        46*seq_022_mvl/mxv
	.byte		BEND  , c_v-2
	.byte	W02
	.byte		VOL   , 42*seq_022_mvl/mxv
	.byte	W02
	.byte		        37*seq_022_mvl/mxv
	.byte	W02
	.byte		        32*seq_022_mvl/mxv
	.byte	W02
	.byte		        27*seq_022_mvl/mxv
	.byte	W02
	.byte		        20*seq_022_mvl/mxv
	.byte	W13
	.byte		EOT
	.byte	W06
	.byte		VOL   , 66*seq_022_mvl/mxv
	.byte	W24
	.byte	W01
	.byte	W96
	.byte	W96
	.byte	W68
	.byte	W03
	.byte		        66*seq_022_mvl/mxv
	.byte		BEND  , c_v+0
	.byte	W01
	.byte		N04   , Fs4 , v060
	.byte	W06
	.byte		        Gs4 , v048
	.byte	W06
	.byte		        An4 
	.byte	W06
	.byte		        Bn4 , v080
	.byte	W06
	.byte		N68   , Cs5 , v100
	.byte	W03
	.byte		VOL   , 48*seq_022_mvl/mxv
	.byte	W12
	.byte		        53*seq_022_mvl/mxv
	.byte	W03
	.byte		        54*seq_022_mvl/mxv
	.byte	W02
	.byte		        57*seq_022_mvl/mxv
	.byte	W02
	.byte		        60*seq_022_mvl/mxv
	.byte	W02
	.byte		        64*seq_022_mvl/mxv
	.byte	W02
	.byte		        67*seq_022_mvl/mxv
	.byte	W03
	.byte		        72*seq_022_mvl/mxv
	.byte	W03
	.byte		        77*seq_022_mvl/mxv
	.byte	W02
	.byte		        81*seq_022_mvl/mxv
	.byte	W03
	.byte		        76*seq_022_mvl/mxv
	.byte	W04
	.byte		        73*seq_022_mvl/mxv
	.byte	W03
	.byte		        68*seq_022_mvl/mxv
	.byte	W03
	.byte		        64*seq_022_mvl/mxv
	.byte	W02
	.byte		        60*seq_022_mvl/mxv
	.byte	W02
	.byte		        53*seq_022_mvl/mxv
	.byte	W02
	.byte		        45*seq_022_mvl/mxv
	.byte	W02
	.byte		        37*seq_022_mvl/mxv
	.byte	W02
	.byte		        28*seq_022_mvl/mxv
	.byte	W02
	.byte		        20*seq_022_mvl/mxv
	.byte	W01
	.byte		        16*seq_022_mvl/mxv
	.byte	W01
	.byte		        12*seq_022_mvl/mxv
	.byte	W10
	.byte		        66*seq_022_mvl/mxv
	.byte	W01
	.byte		N23   , En5 , v060
	.byte	W24
	.byte	PATT
	 .word	seq_022_0 + 0x33C
	.byte	PATT
	 .word	seq_022_0 + 0x377
	.byte		N80   , Cs5 , v112
	.byte	W03
	.byte		VOL   , 40*seq_022_mvl/mxv
	.byte		BEND  , c_v-4
	.byte	W02
	.byte		        c_v-3
	.byte	W01
	.byte		        c_v-2
	.byte	W01
	.byte		        c_v+0
	.byte	W08
	.byte		VOL   , 46*seq_022_mvl/mxv
	.byte	W14
	.byte		        50*seq_022_mvl/mxv
	.byte	W06
	.byte		        55*seq_022_mvl/mxv
	.byte	W05
	.byte		        58*seq_022_mvl/mxv
	.byte	W06
	.byte		        62*seq_022_mvl/mxv
	.byte	W04
	.byte		        65*seq_022_mvl/mxv
	.byte	W03
	.byte		        64*seq_022_mvl/mxv
	.byte	W03
	.byte		        63*seq_022_mvl/mxv
	.byte	W02
	.byte		        62*seq_022_mvl/mxv
	.byte	W02
	.byte		        61*seq_022_mvl/mxv
	.byte	W02
	.byte		        60*seq_022_mvl/mxv
	.byte		BEND  , c_v+0
	.byte	W02
	.byte		VOL   , 59*seq_022_mvl/mxv
	.byte	W02
	.byte		        55*seq_022_mvl/mxv
	.byte	W02
	.byte		        51*seq_022_mvl/mxv
	.byte		BEND  , c_v-1
	.byte	W02
	.byte		VOL   , 46*seq_022_mvl/mxv
	.byte	W02
	.byte		        42*seq_022_mvl/mxv
	.byte		BEND  , c_v-2
	.byte	W02
	.byte		VOL   , 38*seq_022_mvl/mxv
	.byte		BEND  , c_v-2
	.byte	W02
	.byte		VOL   , 34*seq_022_mvl/mxv
	.byte		BEND  , c_v-3
	.byte	W02
	.byte		VOL   , 29*seq_022_mvl/mxv
	.byte		BEND  , c_v-4
	.byte	W02
	.byte		        c_v-4
	.byte	W16
	.byte	W96
	.byte	W96
	.byte	W96
	.byte	W96
	.byte	W96
	.byte	W96
	.byte	W96
	.byte	W96
	.byte	W96
	.byte	W96
	.byte	W96
	.byte	GOTO
	 .word	seq_022_0 + 0x16D
	.byte	FINE

@*********************** Track 02 ***********************@

seq_022_1:
	.byte	KEYSH , seq_022_key+0
	.byte	W02
	.byte		VOICE , 14
	.byte		VOL   , 66*seq_022_mvl/mxv
	.byte	W01
	.byte		MOD   , 120
	.byte		PAN   , c_v+0
	.byte		MODT  , mod_pan
	.byte	W21
	.byte	W96
	.byte	W96
	.byte	W96
	.byte	W96
	.byte	W96
	.byte	W96
	.byte	W96
	.byte	W96
	.byte	W96
	.byte	W96
	.byte	W96
	.byte	W96
	.byte	W96
	.byte	W96
	.byte	W96
	.byte	W96
	.byte	W96
	.byte	W96
	.byte	W96
	.byte	W96
	.byte	W96
	.byte	W96
	.byte	W96
	.byte	W96
	.byte	W96
	.byte	W96
	.byte	W84
	.byte		N04   , Bn3 , v112
	.byte	W06
	.byte		        Bn3 , v068
	.byte	W06
	.byte	PEND
	.byte		N04   , Bn3 , v032
	.byte	W12
	.byte		        Fs3 , v112
	.byte	W06
	.byte		        Fs3 , v068
	.byte	W06
	.byte		        Fs3 , v032
	.byte	W12
	.byte		        An3 , v112
	.byte	W06
	.byte		        An3 , v068
	.byte	W06
	.byte		        An3 , v032
	.byte	W12
	.byte		        En3 , v112
	.byte	W06
	.byte		        En3 , v068
	.byte	W06
	.byte		        En3 , v032
	.byte	W24
	.byte	PEND
	.byte	W96
	.byte	W96
	.byte	W84
	.byte		N04   , En4 , v088
	.byte	W06
	.byte		        En4 , v040
	.byte	W06
	.byte	PEND
	.byte		N04   , En4 , v032
	.byte	W12
	.byte		        Cs4 , v088
	.byte	W06
	.byte		        Cs4 , v040
	.byte	W06
	.byte		        Cs4 , v032
	.byte	W12
	.byte		        Dn4 , v088
	.byte	W06
	.byte		        Dn4 , v040
	.byte	W06
	.byte		        Dn4 , v032
	.byte	W12
	.byte		        An3 , v088
	.byte	W06
	.byte		        An3 , v040
	.byte	W06
	.byte		        An3 , v032
	.byte	W24
	.byte	PEND
	.byte	W96
	.byte	W96
	.byte	W96
	.byte	W96
	.byte	W96
	.byte	W96
	.byte	W96
	.byte	W96
	.byte	W96
	.byte	W96
	.byte	W84
	.byte		        Bn3 , v092
	.byte	W06
	.byte		        Bn3 , v028
	.byte	W06
	.byte		        Bn3 , v012
	.byte	W12
	.byte		        Fs3 , v092
	.byte	W06
	.byte		        Fs3 , v028
	.byte	W06
	.byte		        Fs3 , v012
	.byte	W12
	.byte		        An3 , v092
	.byte	W06
	.byte		        An3 , v028
	.byte	W06
	.byte		        An3 , v012
	.byte	W12
	.byte		        En3 , v092
	.byte	W06
	.byte		        En3 , v028
	.byte	W06
	.byte		        En3 , v012
	.byte	W24
	.byte	W96
	.byte	W96
	.byte	PATT
	 .word	seq_022_1 + 0x29
	.byte	PATT
	 .word	seq_022_1 + 0x32
	.byte	W96
	.byte	W96
	.byte	PATT
	 .word	seq_022_1 + 0x54
	.byte	PATT
	 .word	seq_022_1 + 0x5D
	.byte	W96
	.byte	W96
	.byte	W96
	.byte	W96
	.byte	W96
	.byte	W96
	.byte	W96
	.byte	W96
	.byte	W96
	.byte	W96
	.byte	W96
	.byte	W96
	.byte	W96
	.byte	W96
	.byte	W96
	.byte	W96
	.byte	W96
	.byte	W96
	.byte	W96
	.byte	W96
	.byte	W96
	.byte	W96
	.byte	W96
	.byte	W96
	.byte	W96
	.byte	W96
	.byte	W96
	.byte	W96
	.byte	W96
	.byte	W96
	.byte	W96
	.byte	W96
	.byte	W96
	.byte	W96
	.byte	W96
	.byte	W96
	.byte	W96
	.byte	W96
	.byte	W96
	.byte		VOICE , 76
	.byte		VOL   , 66*seq_022_mvl/mxv
	.byte	W01
	.byte		MOD   , 80
	.byte		BENDR , 12
	.byte		LFOS  , 35
	.byte	W01
	.byte		MODT  , mod_tre
	.byte	W07
	.byte		BEND  , c_v+0
	.byte	W84
	.byte	W03
	.byte	W96
	.byte	W64
	.byte	W01
	.byte		VOL   , 66*seq_022_mvl/mxv
	.byte	W06
	.byte		BEND  , c_v+0
	.byte	W01
	.byte		N23   , Cs4 , v072
	.byte	W23
	.byte		BEND  , c_v-4
	.byte	W01
	.byte		N32   , Fs4 
	.byte	W03
	.byte		BEND  , c_v-4
	.byte	W02
	.byte		        c_v-3
	.byte	W01
	.byte		        c_v-2
	.byte	W01
	.byte		        c_v+0
	.byte	W11
	.byte		VOL   , 60*seq_022_mvl/mxv
	.byte	W05
	.byte		        56*seq_022_mvl/mxv
	.byte	W03
	.byte		        52*seq_022_mvl/mxv
	.byte	W04
	.byte		        48*seq_022_mvl/mxv
	.byte	W02
	.byte		        45*seq_022_mvl/mxv
	.byte	W04
	.byte		N06   , En4 , v108
	.byte	W06
	.byte		        Fs4 , v080
	.byte	W05
	.byte		VOL   , 66*seq_022_mvl/mxv
	.byte	W01
	.byte		N42   , Cs5 , v072
	.byte	W24
	.byte		VOL   , 64*seq_022_mvl/mxv
	.byte	W03
	.byte		        60*seq_022_mvl/mxv
	.byte	W02
	.byte		        58*seq_022_mvl/mxv
	.byte	W02
	.byte		        56*seq_022_mvl/mxv
	.byte	W02
	.byte		        53*seq_022_mvl/mxv
	.byte	W02
	.byte		        50*seq_022_mvl/mxv
	.byte	W02
	.byte		        44*seq_022_mvl/mxv
	.byte	W01
	.byte		        42*seq_022_mvl/mxv
	.byte	W01
	.byte		        38*seq_022_mvl/mxv
	.byte	W01
	.byte		        36*seq_022_mvl/mxv
	.byte	W01
	.byte		        32*seq_022_mvl/mxv
	.byte	W06
	.byte		        66*seq_022_mvl/mxv
	.byte		BEND  , c_v-4
	.byte	W01
	.byte		N36   , Bn4 , v056
	.byte	W03
	.byte		BEND  , c_v-4
	.byte	W02
	.byte		        c_v-3
	.byte	W01
	.byte		        c_v-2
	.byte	W01
	.byte		        c_v+0
	.byte	W28
	.byte	W01
	.byte		N06   , Bn4 , v068
	.byte	W06
	.byte		        Cs5 , v060
	.byte	W05
	.byte		VOL   , 66*seq_022_mvl/mxv
	.byte		BEND  , c_v-4
	.byte	W01
	.byte		N23   , Bn4 , v072
	.byte	W03
	.byte		BEND  , c_v-4
	.byte	W02
	.byte		        c_v-3
	.byte	W01
	.byte		        c_v-2
	.byte	W01
	.byte		        c_v+0
	.byte	W17
	.byte		N23   , Gs4 
	.byte	W24
	.byte		N84   , Fs4 
	.byte	W42
	.byte		VOL   , 63*seq_022_mvl/mxv
	.byte	W08
	.byte		        62*seq_022_mvl/mxv
	.byte	W06
	.byte		        59*seq_022_mvl/mxv
	.byte		BEND  , c_v+0
	.byte	W04
	.byte		VOL   , 58*seq_022_mvl/mxv
	.byte	W02
	.byte		BEND  , c_v-1
	.byte	W02
	.byte		VOL   , 55*seq_022_mvl/mxv
	.byte	W02
	.byte		BEND  , c_v-2
	.byte	W01
	.byte		VOL   , 53*seq_022_mvl/mxv
	.byte	W01
	.byte		BEND  , c_v-2
	.byte	W01
	.byte		VOL   , 51*seq_022_mvl/mxv
	.byte	W01
	.byte		BEND  , c_v-3
	.byte	W01
	.byte		VOL   , 48*seq_022_mvl/mxv
	.byte	W01
	.byte		        46*seq_022_mvl/mxv
	.byte		BEND  , c_v-4
	.byte	W02
	.byte		VOL   , 42*seq_022_mvl/mxv
	.byte		BEND  , c_v-4
	.byte	W02
	.byte		VOL   , 37*seq_022_mvl/mxv
	.byte	W02
	.byte		        32*seq_022_mvl/mxv
	.byte	W02
	.byte		        27*seq_022_mvl/mxv
	.byte	W02
	.byte		        20*seq_022_mvl/mxv
	.byte	W14
	.byte	W96
	.byte	W96
	.byte	W03
	.byte		VOICE , 14
	.byte		VOL   , 66*seq_022_mvl/mxv
	.byte		PAN   , c_v+0
	.byte	W01
	.byte		MOD   , 120
	.byte		MODT  , mod_pan
	.byte		BEND  , c_v+0
	.byte	W92
	.byte	W96
	.byte	W96
	.byte	W84
	.byte		N04   , Bn3 , v088
	.byte	W06
	.byte		        Bn3 , v040
	.byte	W06
	.byte		        Bn3 , v032
	.byte	W12
	.byte		        Gs3 , v088
	.byte	W06
	.byte		        Gs3 , v040
	.byte	W06
	.byte		        Gs3 , v032
	.byte	W12
	.byte		        An3 , v088
	.byte	W06
	.byte		        An3 , v040
	.byte	W06
	.byte		        An3 , v032
	.byte	W12
	.byte		        En3 , v088
	.byte	W06
	.byte		        En3 , v040
	.byte	W06
	.byte		        En3 , v032
	.byte	W24
	.byte	W96
	.byte	W96
	.byte	PATT
	 .word	seq_022_1 + 0x54
	.byte	PATT
	 .word	seq_022_1 + 0x5D
	.byte	W96
	.byte	W96
	.byte	W96
	.byte	W96
	.byte	GOTO
	 .word	seq_022_1 + 0x23
	.byte	FINE

@*********************** Track 03 ***********************@

seq_022_2:
	.byte	KEYSH , seq_022_key+0
	.byte	W04
	.byte		VOICE , 24
	.byte		VOL   , 85*seq_022_mvl/mxv
	.byte		PAN   , c_v+0
	.byte	W01
	.byte		MOD   , 60
	.byte		LFOS  , 20
	.byte		MODT  , mod_pan
	.byte	W01
	.byte		BENDR , 12
	.byte		LFODL , 20
	.byte	W18
	.byte	W96
	.byte	W96
	.byte	W96
	.byte	W96
	.byte		N48   , En4 , v052
	.byte	W48
	.byte		        An4 
	.byte	W48
	.byte	PEND
	.byte		N48   , Gs4 , v052
	.byte	W48
	.byte		        An4 
	.byte	W48
	.byte	PEND
	.byte		TIE   , Fs4 
	.byte	W96
	.byte	W96
	.byte		EOT
	.byte	PATT
	 .word	seq_022_2 + 0x1A
	.byte	PATT
	 .word	seq_022_2 + 0x21
	.byte		TIE   , Fs4 , v052
	.byte	W96
	.byte	W96
	.byte		EOT
	.byte	W96
	.byte	W96
	.byte	W96
	.byte	W92
	.byte	W03
	.byte		VOICE , 95
	.byte		MOD   , 50
	.byte		VOL   , 85*seq_022_mvl/mxv
	.byte		LFOS  , 15
	.byte		MODT  , mod_pan
	.byte		BEND  , c_v-5
	.byte	W01
	.byte	PEND
	.byte		N36   , Fs2 , v120
	.byte	W01
	.byte		BEND  , c_v-4
	.byte	W01
	.byte		        c_v-3
	.byte	W01
	.byte		        c_v-2
	.byte	W01
	.byte		        c_v-1
	.byte	W01
	.byte		        c_v+0
	.byte	W22
	.byte		VOL   , 82*seq_022_mvl/mxv
	.byte	W01
	.byte		        79*seq_022_mvl/mxv
	.byte	W01
	.byte		        76*seq_022_mvl/mxv
	.byte	W01
	.byte		        69*seq_022_mvl/mxv
	.byte	W01
	.byte		        62*seq_022_mvl/mxv
	.byte	W01
	.byte		        57*seq_022_mvl/mxv
	.byte	W01
	.byte		        48*seq_022_mvl/mxv
	.byte	W01
	.byte		        38*seq_022_mvl/mxv
	.byte	W01
	.byte		        29*seq_022_mvl/mxv
	.byte	W01
	.byte		        20*seq_022_mvl/mxv
	.byte	W11
	.byte		        85*seq_022_mvl/mxv
	.byte	W01
	.byte		N24   , Bn2 , v088
	.byte	W19
	.byte		VOL   , 83*seq_022_mvl/mxv
	.byte	W02
	.byte		        76*seq_022_mvl/mxv
	.byte	W01
	.byte		        72*seq_022_mvl/mxv
	.byte	W01
	.byte		        64*seq_022_mvl/mxv
	.byte	W01
	.byte		        59*seq_022_mvl/mxv
	.byte	W01
	.byte		        50*seq_022_mvl/mxv
	.byte	W01
	.byte		        42*seq_022_mvl/mxv
	.byte	W01
	.byte		        34*seq_022_mvl/mxv
	.byte	W01
	.byte		        24*seq_022_mvl/mxv
	.byte	W07
	.byte		        85*seq_022_mvl/mxv
	.byte		BEND  , c_v-5
	.byte	W01
	.byte		N90   , Fs3 , v060
	.byte	W01
	.byte		BEND  , c_v-3
	.byte	W01
	.byte		        c_v-2
	.byte	W01
	.byte		        c_v+0
	.byte	W09
	.byte	PEND
	.byte	W48
	.byte		VOL   , 82*seq_022_mvl/mxv
	.byte	W10
	.byte		        80*seq_022_mvl/mxv
	.byte	W05
	.byte		        73*seq_022_mvl/mxv
	.byte	W04
	.byte		        68*seq_022_mvl/mxv
	.byte	W03
	.byte		        65*seq_022_mvl/mxv
	.byte	W02
	.byte		        62*seq_022_mvl/mxv
	.byte	W03
	.byte		        53*seq_022_mvl/mxv
	.byte	W03
	.byte		        44*seq_022_mvl/mxv
	.byte	W04
	.byte		        32*seq_022_mvl/mxv
	.byte	W02
	.byte		        25*seq_022_mvl/mxv
	.byte	W11
	.byte		BEND  , c_v+0
	.byte	W01
	.byte	PEND
	.byte		VOL   , 35*seq_022_mvl/mxv
	.byte		N36   , Bn2 , v112
	.byte	W02
	.byte		VOL   , 44*seq_022_mvl/mxv
	.byte	W02
	.byte		        52*seq_022_mvl/mxv
	.byte	W02
	.byte		        58*seq_022_mvl/mxv
	.byte	W02
	.byte		        67*seq_022_mvl/mxv
	.byte	W03
	.byte		        70*seq_022_mvl/mxv
	.byte	W06
	.byte		        76*seq_022_mvl/mxv
	.byte	W03
	.byte		        80*seq_022_mvl/mxv
	.byte	W02
	.byte		        81*seq_022_mvl/mxv
	.byte	W01
	.byte		        82*seq_022_mvl/mxv
	.byte	W01
	.byte		        85*seq_022_mvl/mxv
	.byte	W09
	.byte		        82*seq_022_mvl/mxv
	.byte	W01
	.byte		        79*seq_022_mvl/mxv
	.byte	W01
	.byte		        76*seq_022_mvl/mxv
	.byte	W01
	.byte		        69*seq_022_mvl/mxv
	.byte	W01
	.byte		        62*seq_022_mvl/mxv
	.byte	W01
	.byte		        57*seq_022_mvl/mxv
	.byte	W01
	.byte		        48*seq_022_mvl/mxv
	.byte	W01
	.byte		        38*seq_022_mvl/mxv
	.byte	W07
	.byte		        85*seq_022_mvl/mxv
	.byte	W01
	.byte		N24   , Fs3 , v088
	.byte	W19
	.byte		VOL   , 83*seq_022_mvl/mxv
	.byte	W02
	.byte		        76*seq_022_mvl/mxv
	.byte	W01
	.byte		        72*seq_022_mvl/mxv
	.byte	W01
	.byte		        64*seq_022_mvl/mxv
	.byte	W01
	.byte		        59*seq_022_mvl/mxv
	.byte	W01
	.byte		        50*seq_022_mvl/mxv
	.byte	W01
	.byte		        42*seq_022_mvl/mxv
	.byte	W01
	.byte		        34*seq_022_mvl/mxv
	.byte	W01
	.byte		        24*seq_022_mvl/mxv
	.byte	W07
	.byte		        85*seq_022_mvl/mxv
	.byte	W01
	.byte		N36   , Bn3 , v060
	.byte	W12
	.byte	PEND
	.byte	W13
	.byte		VOL   , 79*seq_022_mvl/mxv
	.byte	W03
	.byte		        75*seq_022_mvl/mxv
	.byte	W02
	.byte		        72*seq_022_mvl/mxv
	.byte	W03
	.byte		        67*seq_022_mvl/mxv
	.byte	W01
	.byte		        63*seq_022_mvl/mxv
	.byte	W01
	.byte		        59*seq_022_mvl/mxv
	.byte	W01
	.byte		        55*seq_022_mvl/mxv
	.byte	W01
	.byte		        51*seq_022_mvl/mxv
	.byte	W01
	.byte		        46*seq_022_mvl/mxv
	.byte	W01
	.byte		        39*seq_022_mvl/mxv
	.byte	W01
	.byte		        31*seq_022_mvl/mxv
	.byte	W01
	.byte		        23*seq_022_mvl/mxv
	.byte	W01
	.byte		        15*seq_022_mvl/mxv
	.byte	W05
	.byte		        20*seq_022_mvl/mxv
	.byte	W01
	.byte		        40*seq_022_mvl/mxv
	.byte		N48   , Cs4 , v080
	.byte	W01
	.byte		VOL   , 60*seq_022_mvl/mxv
	.byte	W01
	.byte		        74*seq_022_mvl/mxv
	.byte	W01
	.byte		        85*seq_022_mvl/mxv
	.byte	W21
	.byte		        82*seq_022_mvl/mxv
	.byte	W04
	.byte		        79*seq_022_mvl/mxv
	.byte	W03
	.byte		        78*seq_022_mvl/mxv
	.byte	W02
	.byte		        76*seq_022_mvl/mxv
	.byte	W02
	.byte		        75*seq_022_mvl/mxv
	.byte	W02
	.byte		        74*seq_022_mvl/mxv
	.byte	W03
	.byte		        72*seq_022_mvl/mxv
	.byte	W02
	.byte		        68*seq_022_mvl/mxv
	.byte	W03
	.byte		        62*seq_022_mvl/mxv
	.byte	W01
	.byte		        60*seq_022_mvl/mxv
	.byte	W01
	.byte		        56*seq_022_mvl/mxv
	.byte	W01
	.byte		        51*seq_022_mvl/mxv
	.byte	W01
	.byte		        46*seq_022_mvl/mxv
	.byte	W01
	.byte		        40*seq_022_mvl/mxv
	.byte	W01
	.byte		        35*seq_022_mvl/mxv
	.byte	W01
	.byte		        30*seq_022_mvl/mxv
	.byte	W01
	.byte		        24*seq_022_mvl/mxv
	.byte	W01
	.byte		        19*seq_022_mvl/mxv
	.byte	W05
	.byte		        85*seq_022_mvl/mxv
	.byte		BEND  , c_v-5
	.byte	W01
	.byte	PEND
	.byte	PATT
	 .word	seq_022_2 + 0x50
	.byte	PATT
	 .word	seq_022_2 + 0x9D
	.byte	PATT
	 .word	seq_022_2 + 0xB7
	.byte	W13
	.byte		VOL   , 79*seq_022_mvl/mxv
	.byte	W03
	.byte		        75*seq_022_mvl/mxv
	.byte	W02
	.byte		        72*seq_022_mvl/mxv
	.byte	W03
	.byte		        67*seq_022_mvl/mxv
	.byte	W01
	.byte		        63*seq_022_mvl/mxv
	.byte	W01
	.byte		        59*seq_022_mvl/mxv
	.byte	W01
	.byte		        55*seq_022_mvl/mxv
	.byte	W01
	.byte		        51*seq_022_mvl/mxv
	.byte	W01
	.byte		        46*seq_022_mvl/mxv
	.byte	W01
	.byte		        39*seq_022_mvl/mxv
	.byte	W01
	.byte		        31*seq_022_mvl/mxv
	.byte	W01
	.byte		        23*seq_022_mvl/mxv
	.byte	W01
	.byte		        15*seq_022_mvl/mxv
	.byte	W05
	.byte		        20*seq_022_mvl/mxv
	.byte	W01
	.byte		        40*seq_022_mvl/mxv
	.byte		N48   , Cs4 , v080
	.byte	W01
	.byte		VOL   , 60*seq_022_mvl/mxv
	.byte	W01
	.byte		        74*seq_022_mvl/mxv
	.byte	W01
	.byte		        85*seq_022_mvl/mxv
	.byte	W21
	.byte		        82*seq_022_mvl/mxv
	.byte	W04
	.byte		        79*seq_022_mvl/mxv
	.byte	W03
	.byte		        78*seq_022_mvl/mxv
	.byte	W02
	.byte		        76*seq_022_mvl/mxv
	.byte	W02
	.byte		        75*seq_022_mvl/mxv
	.byte	W02
	.byte		        74*seq_022_mvl/mxv
	.byte	W03
	.byte		        72*seq_022_mvl/mxv
	.byte	W02
	.byte		        68*seq_022_mvl/mxv
	.byte	W03
	.byte		        62*seq_022_mvl/mxv
	.byte	W01
	.byte		        60*seq_022_mvl/mxv
	.byte	W01
	.byte		        56*seq_022_mvl/mxv
	.byte	W01
	.byte		        51*seq_022_mvl/mxv
	.byte	W01
	.byte		        46*seq_022_mvl/mxv
	.byte	W01
	.byte		        40*seq_022_mvl/mxv
	.byte	W01
	.byte		        35*seq_022_mvl/mxv
	.byte	W01
	.byte		        30*seq_022_mvl/mxv
	.byte	W01
	.byte		        24*seq_022_mvl/mxv
	.byte	W01
	.byte		        19*seq_022_mvl/mxv
	.byte	W06
	.byte	PEND
	.byte	W96
	.byte	W96
	.byte	W96
	.byte	W96
	.byte	W96
	.byte	W96
	.byte	W96
	.byte	PATT
	 .word	seq_022_2 + 0x40
	.byte	PATT
	 .word	seq_022_2 + 0x50
	.byte	PATT
	 .word	seq_022_2 + 0x9D
	.byte	PATT
	 .word	seq_022_2 + 0xB7
	.byte	PATT
	 .word	seq_022_2 + 0x102
	.byte	PATT
	 .word	seq_022_2 + 0x50
	.byte	PATT
	 .word	seq_022_2 + 0x9D
	.byte	PATT
	 .word	seq_022_2 + 0xB7
	.byte	PATT
	 .word	seq_022_2 + 0x164
	.byte	W96
	.byte	W96
	.byte	W96
	.byte	W96
	.byte	W96
	.byte	W96
	.byte	W96
	.byte	W96
	.byte	W96
	.byte	W96
	.byte	W96
	.byte	PATT
	 .word	seq_022_2 + 0x40
	.byte	PATT
	 .word	seq_022_2 + 0x50
	.byte	PATT
	 .word	seq_022_2 + 0x9D
	.byte	PATT
	 .word	seq_022_2 + 0xB7
	.byte	PATT
	 .word	seq_022_2 + 0x102
	.byte	PATT
	 .word	seq_022_2 + 0x50
	.byte	PATT
	 .word	seq_022_2 + 0x9D
	.byte	PATT
	 .word	seq_022_2 + 0xB7
	.byte	W13
	.byte		VOL   , 79*seq_022_mvl/mxv
	.byte	W03
	.byte		        75*seq_022_mvl/mxv
	.byte	W02
	.byte		        72*seq_022_mvl/mxv
	.byte	W03
	.byte		        67*seq_022_mvl/mxv
	.byte	W01
	.byte		        63*seq_022_mvl/mxv
	.byte	W01
	.byte		        59*seq_022_mvl/mxv
	.byte	W01
	.byte		        55*seq_022_mvl/mxv
	.byte	W01
	.byte		        51*seq_022_mvl/mxv
	.byte	W01
	.byte		        46*seq_022_mvl/mxv
	.byte	W01
	.byte		        39*seq_022_mvl/mxv
	.byte	W01
	.byte		        31*seq_022_mvl/mxv
	.byte	W01
	.byte		        23*seq_022_mvl/mxv
	.byte	W01
	.byte		        15*seq_022_mvl/mxv
	.byte	W05
	.byte		        20*seq_022_mvl/mxv
	.byte	W01
	.byte		        40*seq_022_mvl/mxv
	.byte		N48   , Cs4 , v080
	.byte	W01
	.byte		VOL   , 60*seq_022_mvl/mxv
	.byte	W01
	.byte		        74*seq_022_mvl/mxv
	.byte	W01
	.byte		        85*seq_022_mvl/mxv
	.byte	W21
	.byte		        82*seq_022_mvl/mxv
	.byte	W04
	.byte		        79*seq_022_mvl/mxv
	.byte	W03
	.byte		        78*seq_022_mvl/mxv
	.byte	W02
	.byte		        76*seq_022_mvl/mxv
	.byte	W02
	.byte		        75*seq_022_mvl/mxv
	.byte	W02
	.byte		        74*seq_022_mvl/mxv
	.byte	W03
	.byte		        72*seq_022_mvl/mxv
	.byte	W02
	.byte		        68*seq_022_mvl/mxv
	.byte	W03
	.byte		        62*seq_022_mvl/mxv
	.byte	W01
	.byte		        60*seq_022_mvl/mxv
	.byte	W01
	.byte		        56*seq_022_mvl/mxv
	.byte	W01
	.byte		        51*seq_022_mvl/mxv
	.byte	W01
	.byte		        46*seq_022_mvl/mxv
	.byte	W01
	.byte		        40*seq_022_mvl/mxv
	.byte	W01
	.byte		        35*seq_022_mvl/mxv
	.byte	W01
	.byte		        30*seq_022_mvl/mxv
	.byte	W01
	.byte		        24*seq_022_mvl/mxv
	.byte	W01
	.byte		        19*seq_022_mvl/mxv
	.byte	W05
	.byte		VOICE , 24
	.byte		VOL   , 80*seq_022_mvl/mxv
	.byte		PAN   , c_v+0
	.byte	W01
	.byte	W96
	.byte	W96
	.byte	W96
	.byte	W96
	.byte	W96
	.byte	W96
	.byte	W96
	.byte	W96
	.byte	W96
	.byte	W96
	.byte	W96
	.byte	W96
	.byte	W96
	.byte	W96
	.byte	W96
	.byte	W96
	.byte	W96
	.byte	W96
	.byte	W96
	.byte	W96
	.byte	W96
	.byte	W96
	.byte	W96
	.byte	W96
	.byte	W96
	.byte	W96
	.byte	W96
	.byte	W96
	.byte	W96
	.byte	W96
	.byte	W96
	.byte	W96
	.byte	W96
	.byte	W96
	.byte	W96
	.byte	W96
	.byte	W96
	.byte	W96
	.byte	W92
	.byte	W03
	.byte		VOICE , 7
	.byte	W01
	.byte	W96
	.byte		N48   , Fs3 , v092
	.byte	W60
	.byte		N06
	.byte	W06
	.byte		        Fs3 , v052
	.byte	W18
	.byte		N84   , Gs3 , v092
	.byte	W12
	.byte	W96
	.byte		N48   , An3 
	.byte	W60
	.byte		N06
	.byte	W06
	.byte		        An3 , v052
	.byte	W18
	.byte		N84   , Bn3 , v092
	.byte	W12
	.byte	W96
	.byte		N48   , Fs3 , v076
	.byte	W60
	.byte		N06
	.byte	W06
	.byte		        Fs3 , v036
	.byte	W18
	.byte		N84   , Gs3 , v076
	.byte	W12
	.byte	W96
	.byte		N48   , An3 
	.byte	W60
	.byte		N06
	.byte	W06
	.byte		        An3 , v036
	.byte	W18
	.byte		N84   , Bn3 , v076
	.byte	W12
	.byte	PATT
	 .word	seq_022_2 + 0x40
	.byte	PATT
	 .word	seq_022_2 + 0x50
	.byte	PATT
	 .word	seq_022_2 + 0x9D
	.byte	PATT
	 .word	seq_022_2 + 0xB7
	.byte	PATT
	 .word	seq_022_2 + 0x164
	.byte	GOTO
	 .word	seq_022_2 + 0x155
	.byte	FINE

@*********************** Track 04 ***********************@

seq_022_3:
	.byte	KEYSH , seq_022_key+0
	.byte	W06
	.byte		VOICE , 95
	.byte	W01
	.byte		MOD   , 45
	.byte		VOL   , 73*seq_022_mvl/mxv
	.byte		PAN   , c_v-63
	.byte	W01
	.byte		BENDR , 12
	.byte		LFOS  , 20
	.byte		MODT  , mod_pan
	.byte	W01
	.byte		LFODL , 20
	.byte	W14
	.byte		VOL   , 0*seq_022_mvl/mxv
	.byte	W01
	.byte		TIE   , Fs2 , v052
	.byte	W05
	.byte		VOL   , 2*seq_022_mvl/mxv
	.byte	W06
	.byte		        2*seq_022_mvl/mxv
	.byte	W07
	.byte		        6*seq_022_mvl/mxv
	.byte	W06
	.byte		        8*seq_022_mvl/mxv
	.byte	W06
	.byte		        11*seq_022_mvl/mxv
	.byte	W06
	.byte		        14*seq_022_mvl/mxv
	.byte	W07
	.byte		        16*seq_022_mvl/mxv
	.byte	W06
	.byte		        19*seq_022_mvl/mxv
	.byte	W06
	.byte		        22*seq_022_mvl/mxv
	.byte	W07
	.byte		        25*seq_022_mvl/mxv
	.byte	W06
	.byte		        28*seq_022_mvl/mxv
	.byte	W06
	.byte		        30*seq_022_mvl/mxv
	.byte	W06
	.byte		        33*seq_022_mvl/mxv
	.byte	W07
	.byte		        36*seq_022_mvl/mxv
	.byte	W06
	.byte		        39*seq_022_mvl/mxv
	.byte	W03
	.byte	W03
	.byte		        42*seq_022_mvl/mxv
	.byte	W07
	.byte		        45*seq_022_mvl/mxv
	.byte	W06
	.byte		        48*seq_022_mvl/mxv
	.byte	W06
	.byte		        50*seq_022_mvl/mxv
	.byte	W06
	.byte		        53*seq_022_mvl/mxv
	.byte	W07
	.byte		        56*seq_022_mvl/mxv
	.byte	W06
	.byte		        58*seq_022_mvl/mxv
	.byte	W06
	.byte		        61*seq_022_mvl/mxv
	.byte	W07
	.byte		        64*seq_022_mvl/mxv
	.byte	W06
	.byte		        67*seq_022_mvl/mxv
	.byte	W06
	.byte		        70*seq_022_mvl/mxv
	.byte	W06
	.byte		        72*seq_022_mvl/mxv
	.byte	W07
	.byte		        76*seq_022_mvl/mxv
	.byte	W06
	.byte		        78*seq_022_mvl/mxv
	.byte	W06
	.byte		        81*seq_022_mvl/mxv
	.byte	W05
	.byte	W02
	.byte		        85*seq_022_mvl/mxv
	.byte	W92
	.byte	W02
	.byte	W92
	.byte	W03
	.byte		VOICE , 24
	.byte	W01
	.byte		EOT
	.byte		N48   , Cs4 , v040
	.byte	W48
	.byte		TIE   , En4 
	.byte	W48
	.byte	PEND
	.byte	W96
	.byte		EOT
	.byte		TIE   , Dn4 
	.byte	W96
	.byte	W96
	.byte		EOT
	.byte	PATT
	 .word	seq_022_3 + 0x66
	.byte	W96
	.byte		EOT   , En4 
	.byte		TIE   , Dn4 , v040
	.byte	W96
	.byte	W96
	.byte		EOT
	.byte		TIE   , Fs4 
	.byte	W96
	.byte	W36
	.byte	W01
	.byte		VOL   , 63*seq_022_mvl/mxv
	.byte	W56
	.byte	W03
	.byte	W68
	.byte	W01
	.byte		        55*seq_022_mvl/mxv
	.byte	W08
	.byte		        56*seq_022_mvl/mxv
	.byte	W07
	.byte		        54*seq_022_mvl/mxv
	.byte	W07
	.byte		        52*seq_022_mvl/mxv
	.byte	W05
	.byte	W02
	.byte		        50*seq_022_mvl/mxv
	.byte	W07
	.byte		        49*seq_022_mvl/mxv
	.byte	W07
	.byte		        47*seq_022_mvl/mxv
	.byte	W07
	.byte		        46*seq_022_mvl/mxv
	.byte	W07
	.byte		        44*seq_022_mvl/mxv
	.byte	W07
	.byte		        39*seq_022_mvl/mxv
	.byte	W08
	.byte		        34*seq_022_mvl/mxv
	.byte	W07
	.byte		        30*seq_022_mvl/mxv
	.byte	W07
	.byte		        26*seq_022_mvl/mxv
	.byte	W07
	.byte		        22*seq_022_mvl/mxv
	.byte	W07
	.byte		        18*seq_022_mvl/mxv
	.byte	W07
	.byte		        14*seq_022_mvl/mxv
	.byte	W07
	.byte		        9*seq_022_mvl/mxv
	.byte	W08
	.byte		VOICE , 95
	.byte		VOL   , 73*seq_022_mvl/mxv
	.byte		PAN   , c_v-30
	.byte	W01
	.byte		EOT
	.byte		N48   , Bn1 , v060
	.byte	W48
	.byte		N36
	.byte	W36
	.byte		        An1 
	.byte	W12
	.byte	PEND
	.byte	W23
	.byte		VOICE , 7
	.byte		PAN   , c_v-20
	.byte	W01
	.byte		N12   , Dn2 , v060
	.byte	W12
	.byte		        Fs2 
	.byte	W12
	.byte		N01   , Dn2 , v012
	.byte	W12
	.byte		N06   , An2 , v060
	.byte	W24
	.byte		N42   , Gs2 
	.byte	W12
	.byte	PEND
	.byte	W44
	.byte	W03
	.byte		VOICE , 95
	.byte		PAN   , c_v-30
	.byte	W01
	.byte		N12   , Bn1 , v060
	.byte	W12
	.byte		N06   , En2 
	.byte	W12
	.byte		N01   , En2 , v012
	.byte	W12
	.byte		N36   , Dn2 , v060
	.byte	W12
	.byte	PEND
	.byte	W36
	.byte		N42   , Cs2 , v060
	.byte	W56
	.byte	W03
	.byte		VOICE , 95
	.byte		VOL   , 73*seq_022_mvl/mxv
	.byte		PAN   , c_v-30
	.byte	W01
	.byte	PEND
	.byte	PATT
	 .word	seq_022_3 + 0xB9
	.byte	PATT
	 .word	seq_022_3 + 0xC2
	.byte	PATT
	 .word	seq_022_3 + 0xDA
	.byte	W36
	.byte		N42   , Cs2 , v060
	.byte	W56
	.byte	W03
	.byte		VOL   , 53*seq_022_mvl/mxv
	.byte		PAN   , c_v-10
	.byte	W01
	.byte		N72   , Fs2 , v076
	.byte	W84
	.byte		TIE   , Gs2 
	.byte	W12
	.byte	PEND
	.byte	W96
	.byte		EOT
	.byte		N72   , An2 , v076
	.byte	W84
	.byte		TIE   , Gs2 
	.byte	W12
	.byte	PEND
	.byte	W96
	.byte		EOT
	.byte	PATT
	 .word	seq_022_3 + 0x119
	.byte	W96
	.byte		EOT   , Gs2 
	.byte	PATT
	 .word	seq_022_3 + 0x123
	.byte	W92
	.byte	W03
	.byte		VOICE , 95
	.byte		VOL   , 73*seq_022_mvl/mxv
	.byte		PAN   , c_v-30
	.byte	W01
	.byte	PEND
	.byte		EOT   , Gs2 
	.byte	PATT
	 .word	seq_022_3 + 0xB9
	.byte	PATT
	 .word	seq_022_3 + 0xC2
	.byte	PATT
	 .word	seq_022_3 + 0xDA
	.byte	PATT
	 .word	seq_022_3 + 0xF1
	.byte	PATT
	 .word	seq_022_3 + 0xB9
	.byte	PATT
	 .word	seq_022_3 + 0xC2
	.byte	PATT
	 .word	seq_022_3 + 0xDA
	.byte	W36
	.byte		N42   , Cs2 , v060
	.byte	W60
	.byte	W96
	.byte	W96
	.byte	W96
	.byte	W92
	.byte	W03
	.byte		VOL   , 53*seq_022_mvl/mxv
	.byte		PAN   , c_v-10
	.byte	W01
	.byte	PATT
	 .word	seq_022_3 + 0x119
	.byte	W96
	.byte		EOT   , Gs2 
	.byte	PATT
	 .word	seq_022_3 + 0x123
	.byte	W96
	.byte		EOT   , Gs2 
	.byte	PATT
	 .word	seq_022_3 + 0x119
	.byte	W96
	.byte		EOT   , Gs2 
	.byte	PATT
	 .word	seq_022_3 + 0x123
	.byte	PATT
	 .word	seq_022_3 + 0x13A
	.byte		EOT   , Gs2 
	.byte	PATT
	 .word	seq_022_3 + 0xB9
	.byte	PATT
	 .word	seq_022_3 + 0xC2
	.byte	PATT
	 .word	seq_022_3 + 0xDA
	.byte	PATT
	 .word	seq_022_3 + 0xF1
	.byte	PATT
	 .word	seq_022_3 + 0xB9
	.byte	PATT
	 .word	seq_022_3 + 0xC2
	.byte	PATT
	 .word	seq_022_3 + 0xDA
	.byte	W36
	.byte		N42   , Cs2 , v060
	.byte	W56
	.byte	W03
	.byte		VOICE , 24
	.byte	W01
	.byte		N96   , Fs4 , v040
	.byte	W96
	.byte		        An4 
	.byte	W96
	.byte		TIE   , Gs4 
	.byte	W96
	.byte	W96
	.byte		EOT
	.byte		N96   , Fs4 
	.byte	W96
	.byte		        An4 
	.byte	W96
	.byte		TIE   , Gs4 
	.byte	W96
	.byte	W92
	.byte	W03
	.byte		VOICE , 95
	.byte		VOL   , 73*seq_022_mvl/mxv
	.byte	W01
	.byte		EOT
	.byte		N48   , Fs2 , v080
	.byte	W48
	.byte		        An2 
	.byte	W48
	.byte	PEND
	.byte		N48   , Gs2 , v080
	.byte	W48
	.byte		        An2 
	.byte	W48
	.byte	PEND
	.byte		TIE   , En2 
	.byte	W96
	.byte	W96
	.byte		EOT
	.byte	PATT
	 .word	seq_022_3 + 0x1E3
	.byte	PATT
	 .word	seq_022_3 + 0x1EA
	.byte		N96   , Gs2 , v080
	.byte	W96
	.byte		        En2 
	.byte	W96
	.byte	PATT
	 .word	seq_022_3 + 0x1E3
	.byte	PATT
	 .word	seq_022_3 + 0x1EA
	.byte		TIE   , En2 , v080
	.byte	W96
	.byte	W96
	.byte		EOT
	.byte	PATT
	 .word	seq_022_3 + 0x1E3
	.byte	PATT
	 .word	seq_022_3 + 0x1EA
	.byte		N96   , Bn2 , v080
	.byte	W96
	.byte		        Gs2 
	.byte	W96
	.byte	PATT
	 .word	seq_022_3 + 0x1E3
	.byte	PATT
	 .word	seq_022_3 + 0x1EA
	.byte		TIE   , En2 , v080
	.byte	W96
	.byte	W96
	.byte		EOT
	.byte	PATT
	 .word	seq_022_3 + 0x1E3
	.byte	PATT
	 .word	seq_022_3 + 0x1EA
	.byte		N96   , Bn2 , v080
	.byte	W96
	.byte		        Gs2 
	.byte	W96
	.byte	PATT
	 .word	seq_022_3 + 0x1E3
	.byte	PATT
	 .word	seq_022_3 + 0x1EA
	.byte		TIE   , En2 , v080
	.byte	W96
	.byte	W96
	.byte		EOT
	.byte	PATT
	 .word	seq_022_3 + 0x1E3
	.byte	PATT
	 .word	seq_022_3 + 0x1EA
	.byte		N96   , Bn2 , v080
	.byte	W96
	.byte		        Gs2 
	.byte	W96
	.byte		N48   , Dn2 , v092
	.byte	W60
	.byte		N09
	.byte	W24
	.byte		TIE   , En2 
	.byte	W12
	.byte	PEND
	.byte	W96
	.byte		EOT
	.byte		N48   , Fs2 , v092
	.byte	W60
	.byte		N09
	.byte	W24
	.byte		TIE   , Gs2 
	.byte	W12
	.byte	PEND
	.byte	W96
	.byte		EOT
	.byte	PATT
	 .word	seq_022_3 + 0x266
	.byte	W96
	.byte		EOT   , En2 
	.byte	PATT
	 .word	seq_022_3 + 0x272
	.byte	PATT
	 .word	seq_022_3 + 0x13A
	.byte		EOT   , Gs2 
	.byte	PATT
	 .word	seq_022_3 + 0xB9
	.byte	PATT
	 .word	seq_022_3 + 0xC2
	.byte	PATT
	 .word	seq_022_3 + 0xDA
	.byte	W36
	.byte		N42   , Cs2 , v060
	.byte	W60
	.byte	GOTO
	 .word	seq_022_3 + 0xFF
	.byte	FINE

@*********************** Track 05 ***********************@

seq_022_4:
	.byte	KEYSH , seq_022_key+0
	.byte	W09
	.byte		VOICE , 95
	.byte		VOL   , 73*seq_022_mvl/mxv
	.byte	W01
	.byte		MOD   , 45
	.byte		PAN   , c_v+63
	.byte		LFOS  , 20
	.byte	W01
	.byte		BENDR , 12
	.byte		MODT  , mod_pan
	.byte		LFODL , 20
	.byte	W12
	.byte		VOL   , 0*seq_022_mvl/mxv
	.byte	W01
	.byte		TIE   , Bn1 , v052
	.byte	W05
	.byte		VOL   , 2*seq_022_mvl/mxv
	.byte	W06
	.byte		        2*seq_022_mvl/mxv
	.byte	W07
	.byte		        6*seq_022_mvl/mxv
	.byte	W06
	.byte		        8*seq_022_mvl/mxv
	.byte	W06
	.byte		        11*seq_022_mvl/mxv
	.byte	W06
	.byte		        14*seq_022_mvl/mxv
	.byte	W07
	.byte		        16*seq_022_mvl/mxv
	.byte	W06
	.byte		        19*seq_022_mvl/mxv
	.byte	W06
	.byte		        22*seq_022_mvl/mxv
	.byte	W07
	.byte		        25*seq_022_mvl/mxv
	.byte	W06
	.byte		        28*seq_022_mvl/mxv
	.byte	W06
	.byte		        30*seq_022_mvl/mxv
	.byte	W06
	.byte		        33*seq_022_mvl/mxv
	.byte	W07
	.byte		        36*seq_022_mvl/mxv
	.byte	W06
	.byte		        39*seq_022_mvl/mxv
	.byte	W03
	.byte	W03
	.byte		        42*seq_022_mvl/mxv
	.byte	W07
	.byte		        45*seq_022_mvl/mxv
	.byte	W06
	.byte		        48*seq_022_mvl/mxv
	.byte	W06
	.byte		        50*seq_022_mvl/mxv
	.byte	W06
	.byte		        53*seq_022_mvl/mxv
	.byte	W07
	.byte		        56*seq_022_mvl/mxv
	.byte	W06
	.byte		        58*seq_022_mvl/mxv
	.byte	W06
	.byte		        61*seq_022_mvl/mxv
	.byte	W07
	.byte		        64*seq_022_mvl/mxv
	.byte	W06
	.byte		        67*seq_022_mvl/mxv
	.byte	W06
	.byte		        70*seq_022_mvl/mxv
	.byte	W06
	.byte		        72*seq_022_mvl/mxv
	.byte	W07
	.byte		        76*seq_022_mvl/mxv
	.byte	W06
	.byte		        78*seq_022_mvl/mxv
	.byte	W06
	.byte		        81*seq_022_mvl/mxv
	.byte	W05
	.byte	W02
	.byte		        85*seq_022_mvl/mxv
	.byte	W92
	.byte	W02
	.byte	W92
	.byte	W03
	.byte		VOICE , 24
	.byte	W01
	.byte		EOT
	.byte		N48   , An3 , v040
	.byte	W48
	.byte		TIE   , Cs4 
	.byte	W48
	.byte	PEND
	.byte	W96
	.byte		EOT
	.byte		TIE   , Bn3 
	.byte	W96
	.byte	W96
	.byte		EOT
	.byte	PATT
	 .word	seq_022_4 + 0x65
	.byte	W96
	.byte		EOT   , Cs4 
	.byte		TIE   , Bn3 , v040
	.byte	W96
	.byte	W96
	.byte		EOT
	.byte		TIE
	.byte	W96
	.byte	W36
	.byte	W01
	.byte		VOL   , 63*seq_022_mvl/mxv
	.byte	W56
	.byte	W03
	.byte	W68
	.byte	W01
	.byte		        55*seq_022_mvl/mxv
	.byte	W08
	.byte		        56*seq_022_mvl/mxv
	.byte	W07
	.byte		        54*seq_022_mvl/mxv
	.byte	W07
	.byte		        52*seq_022_mvl/mxv
	.byte	W05
	.byte	W02
	.byte		        50*seq_022_mvl/mxv
	.byte	W07
	.byte		        49*seq_022_mvl/mxv
	.byte	W07
	.byte		        47*seq_022_mvl/mxv
	.byte	W07
	.byte		        46*seq_022_mvl/mxv
	.byte	W07
	.byte		        44*seq_022_mvl/mxv
	.byte	W07
	.byte		        39*seq_022_mvl/mxv
	.byte	W08
	.byte		        34*seq_022_mvl/mxv
	.byte	W07
	.byte		        30*seq_022_mvl/mxv
	.byte	W07
	.byte		        26*seq_022_mvl/mxv
	.byte	W07
	.byte		        22*seq_022_mvl/mxv
	.byte	W07
	.byte		        18*seq_022_mvl/mxv
	.byte	W07
	.byte		        14*seq_022_mvl/mxv
	.byte	W07
	.byte		        9*seq_022_mvl/mxv
	.byte	W08
	.byte		VOICE , 95
	.byte		VOL   , 85*seq_022_mvl/mxv
	.byte		PAN   , c_v+30
	.byte	W01
	.byte		EOT
	.byte		TIE   , Dn2 , v060
	.byte	W96
	.byte		VOL   , 76*seq_022_mvl/mxv
	.byte	W03
	.byte		        79*seq_022_mvl/mxv
	.byte	W02
	.byte		        79*seq_022_mvl/mxv
	.byte	W02
	.byte		        78*seq_022_mvl/mxv
	.byte	W02
	.byte		        78*seq_022_mvl/mxv
	.byte	W02
	.byte		        78*seq_022_mvl/mxv
	.byte	W02
	.byte		        78*seq_022_mvl/mxv
	.byte	W02
	.byte		        78*seq_022_mvl/mxv
	.byte	W02
	.byte		        77*seq_022_mvl/mxv
	.byte	W02
	.byte		        77*seq_022_mvl/mxv
	.byte	W02
	.byte		        76*seq_022_mvl/mxv
	.byte	W02
	.byte		        76*seq_022_mvl/mxv
	.byte	W03
	.byte		        76*seq_022_mvl/mxv
	.byte	W02
	.byte		        76*seq_022_mvl/mxv
	.byte	W02
	.byte		        75*seq_022_mvl/mxv
	.byte	W02
	.byte		        75*seq_022_mvl/mxv
	.byte	W02
	.byte		        75*seq_022_mvl/mxv
	.byte	W02
	.byte		        74*seq_022_mvl/mxv
	.byte	W02
	.byte		        74*seq_022_mvl/mxv
	.byte	W02
	.byte		        74*seq_022_mvl/mxv
	.byte	W02
	.byte		        74*seq_022_mvl/mxv
	.byte	W02
	.byte		        74*seq_022_mvl/mxv
	.byte	W02
	.byte		        73*seq_022_mvl/mxv
	.byte	W08
	.byte		        72*seq_022_mvl/mxv
	.byte	W10
	.byte		        70*seq_022_mvl/mxv
	.byte	W05
	.byte		        68*seq_022_mvl/mxv
	.byte	W04
	.byte		        65*seq_022_mvl/mxv
	.byte	W03
	.byte		        63*seq_022_mvl/mxv
	.byte	W02
	.byte		        61*seq_022_mvl/mxv
	.byte	W03
	.byte		        54*seq_022_mvl/mxv
	.byte	W03
	.byte		        48*seq_022_mvl/mxv
	.byte	W04
	.byte		        38*seq_022_mvl/mxv
	.byte	W02
	.byte	PEND
	.byte		EOT   , Dn2 
	.byte		VOL   , 34*seq_022_mvl/mxv
	.byte	W06
	.byte		VOL   , 35*seq_022_mvl/mxv
	.byte		N72   , Gs1 , v060
	.byte	W02
	.byte		VOL   , 40*seq_022_mvl/mxv
	.byte	W02
	.byte		        47*seq_022_mvl/mxv
	.byte	W02
	.byte		        54*seq_022_mvl/mxv
	.byte	W02
	.byte		        61*seq_022_mvl/mxv
	.byte	W03
	.byte		        72*seq_022_mvl/mxv
	.byte	W44
	.byte	W02
	.byte		        62*seq_022_mvl/mxv
	.byte	W04
	.byte		        58*seq_022_mvl/mxv
	.byte	W03
	.byte		        55*seq_022_mvl/mxv
	.byte	W04
	.byte		        51*seq_022_mvl/mxv
	.byte	W03
	.byte		        48*seq_022_mvl/mxv
	.byte	W03
	.byte		        44*seq_022_mvl/mxv
	.byte	W02
	.byte		        43*seq_022_mvl/mxv
	.byte	W02
	.byte		        40*seq_022_mvl/mxv
	.byte	W02
	.byte		        38*seq_022_mvl/mxv
	.byte	W03
	.byte		VOICE , 7
	.byte		VOL   , 72*seq_022_mvl/mxv
	.byte		PAN   , c_v+20
	.byte	W01
	.byte		N48   , An2 
	.byte	W12
	.byte	PEND
	.byte	W36
	.byte		N12   , Cs3 , v060
	.byte	W24
	.byte		N30   , An2 
	.byte	W32
	.byte	W03
	.byte		VOICE , 95
	.byte		VOL   , 85*seq_022_mvl/mxv
	.byte		PAN   , c_v+30
	.byte	W01
	.byte	PEND
	.byte		TIE   , Dn2 , v060
	.byte	W96
	.byte	PATT
	 .word	seq_022_4 + 0xBB
	.byte		EOT   , Dn2 
	.byte		VOL   , 34*seq_022_mvl/mxv
	.byte	W06
	.byte	PATT
	 .word	seq_022_4 + 0x102
	.byte	W36
	.byte		N12   , Cs3 , v060
	.byte	W24
	.byte		N30   , An2 
	.byte	W32
	.byte	W03
	.byte		VOICE , 95
	.byte		VOL   , 60*seq_022_mvl/mxv
	.byte		PAN   , c_v+10
	.byte	W01
	.byte		N72   , Dn2 , v080
	.byte	W84
	.byte		TIE   , Bn1 
	.byte	W12
	.byte	PEND
	.byte	W96
	.byte		EOT
	.byte	PATT
	 .word	seq_022_4 + 0x165
	.byte	W96
	.byte		EOT   , Bn1 
	.byte	PATT
	 .word	seq_022_4 + 0x165
	.byte	W96
	.byte		EOT   , Bn1 
	.byte	PATT
	 .word	seq_022_4 + 0x165
	.byte	W92
	.byte	W03
	.byte		VOICE , 95
	.byte		VOL   , 85*seq_022_mvl/mxv
	.byte		PAN   , c_v+30
	.byte	W01
	.byte	PEND
	.byte		EOT   , Bn1 
	.byte		TIE   , Dn2 , v060
	.byte	W96
	.byte	PATT
	 .word	seq_022_4 + 0xBB
	.byte		EOT   , Dn2 
	.byte		VOL   , 34*seq_022_mvl/mxv
	.byte	W06
	.byte	PATT
	 .word	seq_022_4 + 0x102
	.byte	PATT
	 .word	seq_022_4 + 0x131
	.byte		TIE   , Dn2 , v060
	.byte	W96
	.byte	PATT
	 .word	seq_022_4 + 0xBB
	.byte		EOT   , Dn2 
	.byte		VOL   , 34*seq_022_mvl/mxv
	.byte	W06
	.byte	PATT
	 .word	seq_022_4 + 0x102
	.byte	W36
	.byte		N12   , Cs3 , v060
	.byte	W24
	.byte		N30   , An2 
	.byte	W36
	.byte	PEND
	.byte	W96
	.byte	W96
	.byte	W96
	.byte	W92
	.byte	W03
	.byte		VOICE , 95
	.byte		VOL   , 60*seq_022_mvl/mxv
	.byte		PAN   , c_v+10
	.byte	W01
	.byte	PATT
	 .word	seq_022_4 + 0x165
	.byte	W96
	.byte		EOT   , Bn1 
	.byte	PATT
	 .word	seq_022_4 + 0x165
	.byte	W96
	.byte		EOT   , Bn1 
	.byte	PATT
	 .word	seq_022_4 + 0x165
	.byte	W96
	.byte		EOT   , Bn1 
	.byte	PATT
	 .word	seq_022_4 + 0x165
	.byte	PATT
	 .word	seq_022_4 + 0x184
	.byte		EOT   , Bn1 
	.byte		TIE   , Dn2 , v060
	.byte	W96
	.byte	PATT
	 .word	seq_022_4 + 0xBB
	.byte		EOT   , Dn2 
	.byte		VOL   , 34*seq_022_mvl/mxv
	.byte	W06
	.byte	PATT
	 .word	seq_022_4 + 0x102
	.byte	PATT
	 .word	seq_022_4 + 0x131
	.byte		TIE   , Dn2 , v060
	.byte	W96
	.byte	PATT
	 .word	seq_022_4 + 0xBB
	.byte		EOT   , Dn2 
	.byte		VOL   , 34*seq_022_mvl/mxv
	.byte	W06
	.byte		        35*seq_022_mvl/mxv
	.byte		N72   , Gs1 , v060
	.byte	W02
	.byte		VOL   , 40*seq_022_mvl/mxv
	.byte	W02
	.byte		        47*seq_022_mvl/mxv
	.byte	W02
	.byte		        54*seq_022_mvl/mxv
	.byte	W02
	.byte		        61*seq_022_mvl/mxv
	.byte	W03
	.byte		        72*seq_022_mvl/mxv
	.byte	W44
	.byte	W02
	.byte		        62*seq_022_mvl/mxv
	.byte	W04
	.byte		        58*seq_022_mvl/mxv
	.byte	W03
	.byte		        55*seq_022_mvl/mxv
	.byte	W04
	.byte		        51*seq_022_mvl/mxv
	.byte	W03
	.byte		        48*seq_022_mvl/mxv
	.byte	W03
	.byte		        44*seq_022_mvl/mxv
	.byte	W02
	.byte		        43*seq_022_mvl/mxv
	.byte	W02
	.byte		        40*seq_022_mvl/mxv
	.byte	W02
	.byte		        38*seq_022_mvl/mxv
	.byte	W03
	.byte		VOICE , 7
	.byte		VOL   , 72*seq_022_mvl/mxv
	.byte		PAN   , c_v+20
	.byte	W01
	.byte		N36   , An2 
	.byte	W12
	.byte	W36
	.byte		N36
	.byte	W56
	.byte	W03
	.byte		VOICE , 24
	.byte	W01
	.byte		N96   , Cs4 , v052
	.byte	W96
	.byte		        Fs4 
	.byte	W96
	.byte		TIE   , Bn3 
	.byte	W96
	.byte	W96
	.byte		EOT
	.byte		N96   , Cs4 
	.byte	W96
	.byte		        Fs4 
	.byte	W96
	.byte		TIE   , Bn3 
	.byte	W96
	.byte	W92
	.byte	W03
	.byte		VOICE , 95
	.byte		VOL   , 73*seq_022_mvl/mxv
	.byte	W01
	.byte		EOT
	.byte		N48   , Cs2 , v080
	.byte	W48
	.byte		        Fs2 
	.byte	W48
	.byte	PEND
	.byte		N48   , En2 , v080
	.byte	W48
	.byte		        Fs2 
	.byte	W48
	.byte	PEND
	.byte		TIE   , Cs2 
	.byte	W96
	.byte	W96
	.byte		EOT
	.byte	PATT
	 .word	seq_022_4 + 0x269
	.byte	PATT
	 .word	seq_022_4 + 0x270
	.byte		N96   , En2 , v080
	.byte	W96
	.byte		        Cs2 
	.byte	W96
	.byte	PATT
	 .word	seq_022_4 + 0x269
	.byte	PATT
	 .word	seq_022_4 + 0x270
	.byte		TIE   , Cs2 , v080
	.byte	W96
	.byte	W96
	.byte		EOT
	.byte	PATT
	 .word	seq_022_4 + 0x269
	.byte	PATT
	 .word	seq_022_4 + 0x270
	.byte		N96   , Gs2 , v080
	.byte	W96
	.byte		        En2 
	.byte	W96
	.byte	PATT
	 .word	seq_022_4 + 0x269
	.byte	PATT
	 .word	seq_022_4 + 0x270
	.byte		TIE   , Cs2 , v080
	.byte	W96
	.byte	W96
	.byte		EOT
	.byte	PATT
	 .word	seq_022_4 + 0x269
	.byte	PATT
	 .word	seq_022_4 + 0x270
	.byte		N96   , Gs2 , v080
	.byte	W96
	.byte		        En2 
	.byte	W96
	.byte	PATT
	 .word	seq_022_4 + 0x269
	.byte	PATT
	 .word	seq_022_4 + 0x270
	.byte		TIE   , Cs2 , v080
	.byte	W96
	.byte	W96
	.byte		EOT
	.byte	PATT
	 .word	seq_022_4 + 0x269
	.byte	PATT
	 .word	seq_022_4 + 0x270
	.byte		N96   , Gs2 , v080
	.byte	W96
	.byte		        En2 
	.byte	W96
	.byte		N48   , An1 , v092
	.byte	W60
	.byte		N09
	.byte	W12
	.byte		N06   , An1 , v060
	.byte	W12
	.byte		TIE   , Bn1 , v092
	.byte	W12
	.byte	W96
	.byte		EOT
	.byte		N48   , Dn2 , v092
	.byte	W60
	.byte		N09
	.byte	W24
	.byte		TIE   , En2 
	.byte	W12
	.byte	PEND
	.byte	W96
	.byte		EOT
	.byte		N48   , An1 
	.byte	W60
	.byte		N09
	.byte	W24
	.byte		TIE   , Bn1 
	.byte	W12
	.byte	W96
	.byte		EOT
	.byte	PATT
	 .word	seq_022_4 + 0x2FC
	.byte	PATT
	 .word	seq_022_4 + 0x184
	.byte		EOT   , En2 
	.byte		TIE   , Dn2 , v060
	.byte	W96
	.byte	PATT
	 .word	seq_022_4 + 0xBB
	.byte		EOT   , Dn2 
	.byte		VOL   , 34*seq_022_mvl/mxv
	.byte	W06
	.byte	PATT
	 .word	seq_022_4 + 0x102
	.byte	PATT
	 .word	seq_022_4 + 0x1BB
	.byte	GOTO
	 .word	seq_022_4 + 0x142
	.byte	FINE

@*********************** Track 06 ***********************@

seq_022_5:
	.byte	KEYSH , seq_022_key+0
	.byte	W12
	.byte		VOICE , 81
	.byte		VOL   , 53*seq_022_mvl/mxv
	.byte		PAN   , c_v+0
	.byte	W01
	.byte		MOD   , 4
	.byte		LFOS  , 60
	.byte		MODT  , mod_vib
	.byte	W11
	.byte	W96
	.byte	W96
	.byte	W96
	.byte	W96
	.byte		TIE   , Fs3 , v060
	.byte	W96
	.byte	W96
	.byte		EOT
	.byte		TIE
	.byte	W96
	.byte	W96
	.byte		EOT
	.byte		TIE
	.byte	W96
	.byte	W96
	.byte		EOT
	.byte		TIE
	.byte	W96
	.byte	W92
	.byte	W03
	.byte		VOICE , 70
	.byte		MOD   , 0
	.byte		VOL   , 85*seq_022_mvl/mxv
	.byte		PAN   , c_v+40
	.byte	W01
	.byte	PEND
	.byte		EOT   , Fs3 
	.byte		N03   , Bn3 , v120
	.byte	W03
	.byte		        Bn3 , v052
	.byte	W02
	.byte		PAN   , c_v-40
	.byte	W01
	.byte		N02   , En3 , v072
	.byte	W03
	.byte		        En3 , v032
	.byte	W02
	.byte		PAN   , c_v+40
	.byte	W01
	.byte		N02   , Fs3 , v120
	.byte	W03
	.byte		        Fs3 , v032
	.byte	W02
	.byte		PAN   , c_v-40
	.byte	W01
	.byte		N03   , Bn3 , v120
	.byte	W03
	.byte		        Bn3 , v052
	.byte	W02
	.byte		PAN   , c_v+40
	.byte	W01
	.byte		N02   , En3 , v072
	.byte	W03
	.byte		        En3 , v032
	.byte	W02
	.byte		PAN   , c_v-40
	.byte	W01
	.byte		N02   , Fs3 , v120
	.byte	W03
	.byte		        Fs3 , v032
	.byte	W02
	.byte		PAN   , c_v+40
	.byte	W01
	.byte		N03   , Bn3 , v120
	.byte	W03
	.byte		        Bn3 , v052
	.byte	W02
	.byte		PAN   , c_v-40
	.byte	W01
	.byte		N02   , En3 , v072
	.byte	W03
	.byte		        En3 , v032
	.byte	W02
	.byte		PAN   , c_v+40
	.byte	W01
	.byte		N02   , Fs3 , v120
	.byte	W03
	.byte		        Fs3 , v032
	.byte	W02
	.byte		PAN   , c_v-40
	.byte	W01
	.byte		N03   , Bn3 , v120
	.byte	W03
	.byte		        Bn3 , v052
	.byte	W02
	.byte		PAN   , c_v+40
	.byte	W01
	.byte		N02   , En3 , v072
	.byte	W03
	.byte		        En3 , v032
	.byte	W02
	.byte		PAN   , c_v-40
	.byte	W01
	.byte		N02   , Fs3 , v120
	.byte	W03
	.byte		        Fs3 , v032
	.byte	W02
	.byte		PAN   , c_v+40
	.byte	W01
	.byte		N03   , Bn3 , v120
	.byte	W03
	.byte		        Bn3 , v052
	.byte	W02
	.byte		PAN   , c_v-40
	.byte	W01
	.byte		N02   , En3 , v072
	.byte	W03
	.byte		        En3 , v032
	.byte	W02
	.byte		PAN   , c_v+40
	.byte	W01
	.byte		N02   , Fs3 , v060
	.byte	W03
	.byte		        Fs3 , v040
	.byte	W02
	.byte		PAN   , c_v-40
	.byte	W01
	.byte		N02   , Bn2 , v060
	.byte	W03
	.byte		        Bn2 , v040
	.byte	W02
	.byte		PAN   , c_v+40
	.byte	W01
	.byte	PEND
	.byte	PATT
	 .word	seq_022_5 + 0x33
	.byte	PATT
	 .word	seq_022_5 + 0x33
	.byte	PATT
	 .word	seq_022_5 + 0x33
	.byte	PATT
	 .word	seq_022_5 + 0x33
	.byte	PATT
	 .word	seq_022_5 + 0x33
	.byte	PATT
	 .word	seq_022_5 + 0x33
	.byte	PATT
	 .word	seq_022_5 + 0x33
	.byte	PATT
	 .word	seq_022_5 + 0x33
	.byte	PATT
	 .word	seq_022_5 + 0x33
	.byte	PATT
	 .word	seq_022_5 + 0x33
	.byte		N03   , Bn3 , v120
	.byte	W03
	.byte		        Bn3 , v052
	.byte	W02
	.byte		PAN   , c_v-40
	.byte	W01
	.byte		N02   , En3 , v072
	.byte	W03
	.byte		        En3 , v032
	.byte	W02
	.byte		PAN   , c_v+40
	.byte	W01
	.byte		N02   , Fs3 , v120
	.byte	W03
	.byte		        Fs3 , v032
	.byte	W02
	.byte		PAN   , c_v-40
	.byte	W01
	.byte		N03   , Bn3 , v120
	.byte	W03
	.byte		        Bn3 , v052
	.byte	W02
	.byte		PAN   , c_v+40
	.byte	W01
	.byte		N02   , En3 , v072
	.byte	W03
	.byte		        En3 , v032
	.byte	W02
	.byte		PAN   , c_v-40
	.byte	W01
	.byte		N02   , Fs3 , v120
	.byte	W03
	.byte		        Fs3 , v032
	.byte	W02
	.byte		PAN   , c_v+40
	.byte	W01
	.byte		N03   , Bn3 , v120
	.byte	W03
	.byte		        Bn3 , v052
	.byte	W02
	.byte		PAN   , c_v-40
	.byte	W01
	.byte		N02   , En3 , v072
	.byte	W03
	.byte		        En3 , v032
	.byte	W02
	.byte		PAN   , c_v+40
	.byte	W01
	.byte		N02   , Fs3 , v120
	.byte	W03
	.byte		        Fs3 , v032
	.byte	W02
	.byte		PAN   , c_v-40
	.byte	W01
	.byte		N03   , Bn3 , v120
	.byte	W03
	.byte		        Bn3 , v052
	.byte	W02
	.byte		PAN   , c_v+40
	.byte	W01
	.byte		N02   , En3 , v072
	.byte	W03
	.byte		        En3 , v032
	.byte	W02
	.byte		PAN   , c_v-40
	.byte	W01
	.byte		N02   , Fs3 , v120
	.byte	W03
	.byte		        Fs3 , v032
	.byte	W02
	.byte		PAN   , c_v+40
	.byte	W01
	.byte		N03   , Bn3 , v120
	.byte	W03
	.byte		        Bn3 , v052
	.byte	W02
	.byte		PAN   , c_v-40
	.byte	W01
	.byte		N02   , En3 , v072
	.byte	W03
	.byte		        En3 , v032
	.byte	W02
	.byte		PAN   , c_v+40
	.byte	W01
	.byte		N02   , Fs3 , v060
	.byte	W03
	.byte		        Fs3 , v040
	.byte	W02
	.byte		PAN   , c_v-40
	.byte	W01
	.byte		N02   , Bn2 , v060
	.byte	W03
	.byte		        Bn2 , v040
	.byte	W03
	.byte	PEND
	.byte	W96
	.byte	W96
	.byte	W96
	.byte	W96
	.byte	W96
	.byte	W96
	.byte	W96
	.byte	W92
	.byte	W03
	.byte		PAN   , c_v+40
	.byte	W01
	.byte	PATT
	 .word	seq_022_5 + 0x33
	.byte	PATT
	 .word	seq_022_5 + 0x33
	.byte	PATT
	 .word	seq_022_5 + 0x33
	.byte	PATT
	 .word	seq_022_5 + 0x33
	.byte	PATT
	 .word	seq_022_5 + 0x33
	.byte	PATT
	 .word	seq_022_5 + 0x33
	.byte	PATT
	 .word	seq_022_5 + 0x33
	.byte	PATT
	 .word	seq_022_5 + 0x33
	.byte	PATT
	 .word	seq_022_5 + 0x33
	.byte	PATT
	 .word	seq_022_5 + 0x33
	.byte		N03   , Bn3 , v120
	.byte	W03
	.byte		        Bn3 , v052
	.byte	W02
	.byte		PAN   , c_v-40
	.byte	W01
	.byte		N02   , En3 , v072
	.byte	W03
	.byte		        En3 , v032
	.byte	W02
	.byte		PAN   , c_v+40
	.byte	W01
	.byte		N02   , Fs3 , v120
	.byte	W03
	.byte		        Fs3 , v032
	.byte	W02
	.byte		PAN   , c_v-40
	.byte	W01
	.byte		N03   , Bn3 , v120
	.byte	W03
	.byte		        Bn3 , v052
	.byte	W02
	.byte		PAN   , c_v+40
	.byte	W01
	.byte		N02   , En3 , v072
	.byte	W03
	.byte		        En3 , v032
	.byte	W02
	.byte		PAN   , c_v-40
	.byte	W01
	.byte		N02   , Fs3 , v120
	.byte	W03
	.byte		        Fs3 , v032
	.byte	W02
	.byte		PAN   , c_v+40
	.byte	W01
	.byte		N03   , Bn3 , v120
	.byte	W03
	.byte		        Bn3 , v052
	.byte	W02
	.byte		PAN   , c_v-40
	.byte	W01
	.byte		N02   , En3 , v072
	.byte	W03
	.byte		        En3 , v032
	.byte	W02
	.byte		PAN   , c_v+40
	.byte	W01
	.byte		N02   , Fs3 , v120
	.byte	W03
	.byte		        Fs3 , v032
	.byte	W02
	.byte		PAN   , c_v-40
	.byte	W01
	.byte		N03   , Bn3 , v120
	.byte	W03
	.byte		        Bn3 , v052
	.byte	W02
	.byte		PAN   , c_v+40
	.byte	W01
	.byte		N02   , En3 , v072
	.byte	W03
	.byte		        En3 , v032
	.byte	W02
	.byte		PAN   , c_v-40
	.byte	W01
	.byte		N02   , Fs3 , v120
	.byte	W03
	.byte		        Fs3 , v032
	.byte	W02
	.byte		PAN   , c_v+40
	.byte	W01
	.byte		N03   , Bn3 , v120
	.byte	W03
	.byte		        Bn3 , v052
	.byte	W02
	.byte		PAN   , c_v-40
	.byte	W01
	.byte		N02   , En3 , v072
	.byte	W03
	.byte		        En3 , v032
	.byte	W02
	.byte		PAN   , c_v+40
	.byte	W01
	.byte		N02   , Fs3 , v060
	.byte	W03
	.byte		        Fs3 , v040
	.byte	W02
	.byte		PAN   , c_v-40
	.byte	W06
	.byte		        c_v+40
	.byte	W01
	.byte	W05
	.byte		PAN   , c_v-40
	.byte	W06
	.byte		        c_v+40
	.byte	W06
	.byte		        c_v-40
	.byte	W06
	.byte		        c_v+40
	.byte	W06
	.byte		        c_v-40
	.byte	W06
	.byte		        c_v+40
	.byte	W06
	.byte		        c_v-40
	.byte	W06
	.byte		        c_v+40
	.byte	W06
	.byte		        c_v-40
	.byte	W06
	.byte		        c_v+40
	.byte	W06
	.byte		        c_v-40
	.byte	W06
	.byte		        c_v+40
	.byte	W06
	.byte		        c_v-40
	.byte	W06
	.byte		        c_v+40
	.byte	W06
	.byte		        c_v-40
	.byte	W06
	.byte		        c_v+40
	.byte	W01
	.byte	PEND
	.byte	PATT
	 .word	seq_022_5 + 0x33
	.byte	PATT
	 .word	seq_022_5 + 0x33
	.byte	PATT
	 .word	seq_022_5 + 0x33
	.byte	PATT
	 .word	seq_022_5 + 0x33
	.byte	PATT
	 .word	seq_022_5 + 0x33
	.byte	PATT
	 .word	seq_022_5 + 0x33
	.byte	PATT
	 .word	seq_022_5 + 0x33
	.byte	PATT
	 .word	seq_022_5 + 0x33
	.byte	PATT
	 .word	seq_022_5 + 0x33
	.byte	PATT
	 .word	seq_022_5 + 0x33
	.byte	PATT
	 .word	seq_022_5 + 0x33
	.byte	PATT
	 .word	seq_022_5 + 0x33
	.byte	PATT
	 .word	seq_022_5 + 0x33
	.byte	PATT
	 .word	seq_022_5 + 0x33
	.byte		N03   , Bn3 , v120
	.byte	W03
	.byte		        Bn3 , v052
	.byte	W02
	.byte		PAN   , c_v-40
	.byte	W01
	.byte		N02   , En3 , v072
	.byte	W03
	.byte		        En3 , v032
	.byte	W02
	.byte		PAN   , c_v+40
	.byte	W01
	.byte		N02   , Fs3 , v120
	.byte	W03
	.byte		        Fs3 , v032
	.byte	W02
	.byte		PAN   , c_v-40
	.byte	W01
	.byte		N03   , Bn3 , v120
	.byte	W03
	.byte		        Bn3 , v052
	.byte	W02
	.byte		PAN   , c_v+40
	.byte	W01
	.byte		N02   , En3 , v072
	.byte	W03
	.byte		        En3 , v032
	.byte	W02
	.byte		PAN   , c_v-40
	.byte	W01
	.byte		N02   , Fs3 , v120
	.byte	W03
	.byte		        Fs3 , v032
	.byte	W02
	.byte		PAN   , c_v+40
	.byte	W01
	.byte		N03   , Bn3 , v120
	.byte	W03
	.byte		        Bn3 , v052
	.byte	W02
	.byte		PAN   , c_v-40
	.byte	W01
	.byte		N02   , En3 , v072
	.byte	W03
	.byte		        En3 , v032
	.byte	W02
	.byte		PAN   , c_v+40
	.byte	W01
	.byte		N02   , Fs3 , v120
	.byte	W03
	.byte		        Fs3 , v032
	.byte	W02
	.byte		PAN   , c_v-40
	.byte	W01
	.byte		N03   , Bn3 , v120
	.byte	W03
	.byte		        Bn3 , v052
	.byte	W02
	.byte		PAN   , c_v+40
	.byte	W01
	.byte		N02   , En3 , v072
	.byte	W03
	.byte		        En3 , v032
	.byte	W02
	.byte		PAN   , c_v-40
	.byte	W01
	.byte		N02   , Fs3 , v120
	.byte	W03
	.byte		        Fs3 , v032
	.byte	W02
	.byte		PAN   , c_v+40
	.byte	W01
	.byte		N03   , Bn3 , v120
	.byte	W03
	.byte		        Bn3 , v052
	.byte	W02
	.byte		PAN   , c_v-40
	.byte	W01
	.byte		N02   , En3 , v072
	.byte	W03
	.byte		        En3 , v032
	.byte	W02
	.byte		PAN   , c_v+40
	.byte	W01
	.byte		N02   , Fs3 , v060
	.byte	W03
	.byte		        Fs3 , v040
	.byte	W02
	.byte		PAN   , c_v-40
	.byte	W01
	.byte		N02   , Bn2 , v060
	.byte	W03
	.byte		        Bn2 , v040
	.byte	W02
	.byte		VOICE , 81
	.byte		MOD   , 3
	.byte		VOL   , 53*seq_022_mvl/mxv
	.byte		PAN   , c_v+0
	.byte	W01
	.byte	W05
	.byte		        c_v-40
	.byte	W06
	.byte		        c_v+40
	.byte	W06
	.byte		        c_v-40
	.byte	W06
	.byte		        c_v+40
	.byte	W06
	.byte		        c_v-40
	.byte	W06
	.byte		        c_v+40
	.byte	W06
	.byte		        c_v-40
	.byte	W06
	.byte		        c_v+40
	.byte	W06
	.byte		        c_v-40
	.byte	W06
	.byte		        c_v+40
	.byte	W06
	.byte		        c_v-40
	.byte	W06
	.byte		        c_v+40
	.byte	W06
	.byte		        c_v-40
	.byte	W06
	.byte		        c_v+40
	.byte	W06
	.byte		        c_v-40
	.byte	W07
	.byte		TIE   , An2 , v060
	.byte	W96
	.byte	W96
	.byte		EOT
	.byte		TIE   , Bn2 
	.byte	W96
	.byte	W96
	.byte		EOT
	.byte		TIE   , An2 
	.byte	W96
	.byte	W96
	.byte		EOT
	.byte		TIE   , Bn2 
	.byte	W96
	.byte	PATT
	 .word	seq_022_5 + 0x25
	.byte		EOT   , Bn2 
	.byte		N03   , Fs4 , v120
	.byte	W03
	.byte		        Fs4 , v052
	.byte	W02
	.byte		PAN   , c_v-40
	.byte	W01
	.byte		N02   , Bn3 , v072
	.byte	W03
	.byte		        Bn3 , v032
	.byte	W02
	.byte		PAN   , c_v+40
	.byte	W01
	.byte		N02   , Cs4 , v120
	.byte	W03
	.byte		        Cs4 , v032
	.byte	W02
	.byte		PAN   , c_v-40
	.byte	W01
	.byte		N03   , Fs4 , v120
	.byte	W03
	.byte		        Fs4 , v052
	.byte	W02
	.byte		PAN   , c_v+40
	.byte	W01
	.byte		N02   , Bn3 , v072
	.byte	W03
	.byte		        Bn3 , v032
	.byte	W02
	.byte		PAN   , c_v-40
	.byte	W01
	.byte		N02   , Cs4 , v120
	.byte	W03
	.byte		        Cs4 , v032
	.byte	W02
	.byte		PAN   , c_v+40
	.byte	W01
	.byte		N03   , Fs4 , v120
	.byte	W03
	.byte		        Fs4 , v052
	.byte	W02
	.byte		PAN   , c_v-40
	.byte	W01
	.byte		N02   , Bn3 , v072
	.byte	W03
	.byte		        Bn3 , v032
	.byte	W02
	.byte		PAN   , c_v+40
	.byte	W01
	.byte		N02   , Cs4 , v120
	.byte	W03
	.byte		        Cs4 , v032
	.byte	W02
	.byte		PAN   , c_v-40
	.byte	W01
	.byte		N03   , Fs4 , v120
	.byte	W03
	.byte		        Fs4 , v052
	.byte	W02
	.byte		PAN   , c_v+40
	.byte	W01
	.byte		N02   , Bn3 , v072
	.byte	W03
	.byte		        Bn3 , v032
	.byte	W02
	.byte		PAN   , c_v-40
	.byte	W01
	.byte		N02   , Cs4 , v120
	.byte	W03
	.byte		        Cs4 , v032
	.byte	W02
	.byte		PAN   , c_v+40
	.byte	W01
	.byte		N03   , Fs4 , v120
	.byte	W03
	.byte		        Fs4 , v052
	.byte	W02
	.byte		PAN   , c_v-40
	.byte	W01
	.byte		N02   , Bn3 , v072
	.byte	W03
	.byte		        Bn3 , v032
	.byte	W02
	.byte		PAN   , c_v+40
	.byte	W01
	.byte		N02   , Cs4 , v060
	.byte	W03
	.byte		        Cs4 , v040
	.byte	W02
	.byte		PAN   , c_v-40
	.byte	W01
	.byte		N02   , Fs3 , v060
	.byte	W03
	.byte		        Fs3 , v040
	.byte	W02
	.byte		PAN   , c_v+40
	.byte	W01
	.byte	PEND
	.byte	PATT
	 .word	seq_022_5 + 0x3C2
	.byte	PATT
	 .word	seq_022_5 + 0x3C2
	.byte	PATT
	 .word	seq_022_5 + 0x3C2
	.byte	PATT
	 .word	seq_022_5 + 0x3C2
	.byte	PATT
	 .word	seq_022_5 + 0x3C2
	.byte	PATT
	 .word	seq_022_5 + 0x3C2
	.byte	PATT
	 .word	seq_022_5 + 0x3C2
	.byte	PATT
	 .word	seq_022_5 + 0x3C2
	.byte	PATT
	 .word	seq_022_5 + 0x3C2
	.byte	PATT
	 .word	seq_022_5 + 0x3C2
	.byte	PATT
	 .word	seq_022_5 + 0x3C2
	.byte	PATT
	 .word	seq_022_5 + 0x3C2
	.byte	PATT
	 .word	seq_022_5 + 0x3C2
	.byte	PATT
	 .word	seq_022_5 + 0x3C2
	.byte		N03   , Fs4 , v120
	.byte	W03
	.byte		        Fs4 , v052
	.byte	W02
	.byte		PAN   , c_v-40
	.byte	W01
	.byte		N02   , Bn3 , v072
	.byte	W03
	.byte		        Bn3 , v032
	.byte	W02
	.byte		PAN   , c_v+40
	.byte	W01
	.byte		N02   , Cs4 , v120
	.byte	W03
	.byte		        Cs4 , v032
	.byte	W02
	.byte		PAN   , c_v-40
	.byte	W01
	.byte		N03   , Fs4 , v120
	.byte	W03
	.byte		        Fs4 , v052
	.byte	W02
	.byte		PAN   , c_v+40
	.byte	W01
	.byte		N02   , Bn3 , v072
	.byte	W03
	.byte		        Bn3 , v032
	.byte	W02
	.byte		PAN   , c_v-40
	.byte	W01
	.byte		N02   , Cs4 , v120
	.byte	W03
	.byte		        Cs4 , v032
	.byte	W02
	.byte		PAN   , c_v+40
	.byte	W01
	.byte		N03   , Fs4 , v120
	.byte	W03
	.byte		        Fs4 , v052
	.byte	W02
	.byte		PAN   , c_v-40
	.byte	W01
	.byte		N02   , Bn3 , v072
	.byte	W03
	.byte		        Bn3 , v032
	.byte	W02
	.byte		PAN   , c_v+40
	.byte	W01
	.byte		N02   , Cs4 , v120
	.byte	W03
	.byte		        Cs4 , v032
	.byte	W02
	.byte		PAN   , c_v-40
	.byte	W01
	.byte		N03   , Fs4 , v120
	.byte	W03
	.byte		        Fs4 , v052
	.byte	W02
	.byte		PAN   , c_v+40
	.byte	W01
	.byte		N02   , Bn3 , v072
	.byte	W03
	.byte		        Bn3 , v032
	.byte	W02
	.byte		PAN   , c_v-40
	.byte	W01
	.byte		N02   , Cs4 , v120
	.byte	W03
	.byte		        Cs4 , v032
	.byte	W02
	.byte		PAN   , c_v+40
	.byte	W01
	.byte		N03   , Fs4 , v120
	.byte	W03
	.byte		        Fs4 , v052
	.byte	W02
	.byte		PAN   , c_v-40
	.byte	W01
	.byte		N02   , Bn3 , v072
	.byte	W03
	.byte		        Bn3 , v032
	.byte	W02
	.byte		PAN   , c_v+40
	.byte	W01
	.byte		N02   , Cs4 , v060
	.byte	W03
	.byte		        Cs4 , v040
	.byte	W02
	.byte		PAN   , c_v-40
	.byte	W01
	.byte		N02   , Fs3 , v060
	.byte	W03
	.byte		        Fs3 , v040
	.byte	W02
	.byte		VOICE , 81
	.byte		MOD   , 3
	.byte		VOL   , 53*seq_022_mvl/mxv
	.byte		PAN   , c_v+0
	.byte	W01
	.byte		TIE   , An2 , v060
	.byte	W96
	.byte	W96
	.byte		EOT
	.byte		TIE   , Bn2 
	.byte	W96
	.byte	W96
	.byte		EOT
	.byte		TIE   , An2 
	.byte	W96
	.byte	W96
	.byte		EOT
	.byte		TIE   , Bn2 
	.byte	W96
	.byte	W96
	.byte		EOT
	.byte		TIE   , An2 
	.byte	W96
	.byte	W96
	.byte		EOT
	.byte		TIE   , Bn2 
	.byte	W96
	.byte	W96
	.byte		EOT
	.byte		TIE   , An2 
	.byte	W96
	.byte	W96
	.byte		EOT
	.byte		TIE   , Bn2 
	.byte	W96
	.byte	PATT
	 .word	seq_022_5 + 0x25
	.byte		EOT   , Bn2 
	.byte	PATT
	 .word	seq_022_5 + 0x33
	.byte	PATT
	 .word	seq_022_5 + 0x33
	.byte	PATT
	 .word	seq_022_5 + 0x33
	.byte	PATT
	 .word	seq_022_5 + 0x33
	.byte	PATT
	 .word	seq_022_5 + 0x33
	.byte	PATT
	 .word	seq_022_5 + 0x33
	.byte	PATT
	 .word	seq_022_5 + 0x33
	.byte	PATT
	 .word	seq_022_5 + 0x27A
	.byte	PATT
	 .word	seq_022_5 + 0x33
	.byte	PATT
	 .word	seq_022_5 + 0x33
	.byte	PATT
	 .word	seq_022_5 + 0x33
	.byte	PATT
	 .word	seq_022_5 + 0x106
	.byte	GOTO
	 .word	seq_022_5 + 0xF7
	.byte	FINE

@*********************** Track 07 ***********************@

seq_022_6:
	.byte	KEYSH , seq_022_key+0
	.byte	W14
	.byte		VOICE , 53
	.byte		VOL   , 85*seq_022_mvl/mxv
	.byte		PAN   , c_v+0
	.byte	W01
	.byte		MOD   , 0
	.byte		MODT  , mod_tre
	.byte	W09
	.byte	W96
	.byte	W96
	.byte	W96
	.byte	W92
	.byte	W03
	.byte		PAN   , c_v+63
	.byte	W01
	.byte		N04   , Fs4 , v100
	.byte	W06
	.byte		        Fs4 , v016
	.byte	W05
	.byte		PAN   , c_v+0
	.byte	W01
	.byte		N12   , Bn3 , v100
	.byte	W23
	.byte		PAN   , c_v-63
	.byte	W01
	.byte		N04   , Bn2 
	.byte	W06
	.byte		        Bn2 , v016
	.byte	W05
	.byte		PAN   , c_v+0
	.byte	W01
	.byte		N04   , Fs3 , v100
	.byte	W06
	.byte		        Fs3 , v016
	.byte	W05
	.byte		PAN   , c_v+63
	.byte	W01
	.byte		N04   , Bn3 , v100
	.byte	W06
	.byte		        Bn3 , v016
	.byte	W05
	.byte		PAN   , c_v+0
	.byte	W01
	.byte		N04   , Fs3 , v100
	.byte	W06
	.byte		        Fs3 , v016
	.byte	W06
	.byte		N12   , Fs4 , v060
	.byte	W11
	.byte		PAN   , c_v+0
	.byte	W01
	.byte	PEND
	.byte	W11
	.byte		PAN   , c_v-63
	.byte	W01
	.byte		N04   , Bn2 , v100
	.byte	W06
	.byte		        Bn2 , v016
	.byte	W05
	.byte		PAN   , c_v+0
	.byte	W13
	.byte		N12   , Bn3 , v100
	.byte	W23
	.byte		PAN   , c_v+63
	.byte	W01
	.byte		N04   , Fs3 
	.byte	W06
	.byte		        Fs3 , v016
	.byte	W05
	.byte		PAN   , c_v+0
	.byte	W13
	.byte		N12   , Fs3 , v100
	.byte	W11
	.byte		PAN   , c_v+63
	.byte	W01
	.byte	PEND
	.byte	W11
	.byte		PAN   , c_v+0
	.byte	W01
	.byte		N04   , Bn2 , v100
	.byte	W06
	.byte		        Bn2 , v016
	.byte	W06
	.byte		        Fs3 , v100
	.byte	W06
	.byte		        Fs3 , v016
	.byte	W05
	.byte		PAN   , c_v-63
	.byte	W01
	.byte		N04   , Bn2 , v100
	.byte	W06
	.byte		        Bn2 , v016
	.byte	W05
	.byte		PAN   , c_v+0
	.byte	W12
	.byte		        c_v+63
	.byte	W01
	.byte		N04   , Bn3 , v100
	.byte	W06
	.byte		        Bn3 , v016
	.byte	W05
	.byte		PAN   , c_v+0
	.byte	W01
	.byte		N04   , Fs3 , v100
	.byte	W06
	.byte		        Fs3 , v016
	.byte	W06
	.byte		N12   , Fs4 , v060
	.byte	W11
	.byte		PAN   , c_v+0
	.byte	W01
	.byte	PEND
	.byte		N04   , Bn2 , v100
	.byte	W06
	.byte		        Bn2 , v016
	.byte	W05
	.byte		PAN   , c_v-63
	.byte	W01
	.byte		N04   , Bn3 , v100
	.byte	W06
	.byte		        Bn3 , v016
	.byte	W05
	.byte		PAN   , c_v+0
	.byte	W13
	.byte		N04   , Fs3 , v100
	.byte	W06
	.byte		        Fs3 , v016
	.byte	W17
	.byte		PAN   , c_v+0
	.byte	W01
	.byte		N12   , Fs4 , v060
	.byte	W11
	.byte		PAN   , c_v+0
	.byte	W13
	.byte		N04   , Fs3 , v100
	.byte	W06
	.byte		        Fs3 , v016
	.byte	W05
	.byte		PAN   , c_v+63
	.byte	W01
	.byte	PEND
	.byte	PATT
	 .word	seq_022_6 + 0x17
	.byte	PATT
	 .word	seq_022_6 + 0x54
	.byte	PATT
	 .word	seq_022_6 + 0x7A
	.byte	PATT
	 .word	seq_022_6 + 0xB3
	.byte	PATT
	 .word	seq_022_6 + 0x17
	.byte	PATT
	 .word	seq_022_6 + 0x54
	.byte	PATT
	 .word	seq_022_6 + 0x7A
	.byte	PATT
	 .word	seq_022_6 + 0xB3
	.byte		N04   , Fs4 , v100
	.byte	W06
	.byte		        Fs4 , v016
	.byte	W05
	.byte		PAN   , c_v+0
	.byte	W01
	.byte		N12   , Bn3 , v100
	.byte	W12
	.byte		N04   , Bn2 
	.byte	W06
	.byte		        Bn2 , v016
	.byte	W05
	.byte		PAN   , c_v-63
	.byte	W01
	.byte		N04   , Bn3 , v100
	.byte	W06
	.byte		        Bn3 , v016
	.byte	W05
	.byte		PAN   , c_v+0
	.byte	W01
	.byte		N04   , Fs3 , v100
	.byte	W06
	.byte		        Fs3 , v016
	.byte	W05
	.byte		PAN   , c_v+63
	.byte	W01
	.byte		N04   , Bn3 , v100
	.byte	W06
	.byte		        Bn3 , v016
	.byte	W05
	.byte		PAN   , c_v+0
	.byte	W01
	.byte		N04   , Fs3 , v100
	.byte	W06
	.byte		        Fs3 , v016
	.byte	W06
	.byte		N12   , Fs4 , v060
	.byte	W11
	.byte		PAN   , c_v+0
	.byte	W01
	.byte	PEND
	.byte		N04   , Bn2 , v100
	.byte	W06
	.byte		        Bn2 , v016
	.byte	W05
	.byte		PAN   , c_v-63
	.byte	W01
	.byte		N04   , Bn3 , v100
	.byte	W06
	.byte		        Bn3 , v016
	.byte	W05
	.byte		PAN   , c_v+0
	.byte	W01
	.byte		N04   , Fs3 , v100
	.byte	W06
	.byte		        Fs3 , v016
	.byte	W06
	.byte		N12   , Bn4 , v068
	.byte	W12
	.byte		N04   , Fs3 , v100
	.byte	W06
	.byte		        Fs3 , v016
	.byte	W05
	.byte		PAN   , c_v+63
	.byte	W01
	.byte		N04   , Bn3 , v100
	.byte	W06
	.byte		        Bn3 , v016
	.byte	W05
	.byte		PAN   , c_v+0
	.byte	W01
	.byte		N04   , Bn2 , v100
	.byte	W06
	.byte		        Bn2 , v016
	.byte	W06
	.byte		N12   , Fs3 , v100
	.byte	W11
	.byte		PAN   , c_v+63
	.byte	W01
	.byte	PEND
	.byte		N04   , Bn2 , v100
	.byte	W06
	.byte		        Bn2 , v016
	.byte	W05
	.byte		PAN   , c_v+0
	.byte	W01
	.byte		N12   , Bn3 , v100
	.byte	W12
	.byte		N04   , Fs3 
	.byte	W06
	.byte		        Fs3 , v016
	.byte	W05
	.byte		PAN   , c_v-63
	.byte	W01
	.byte		N04   , Bn2 , v100
	.byte	W06
	.byte		        Bn2 , v016
	.byte	W05
	.byte		PAN   , c_v+0
	.byte	W01
	.byte		N04   , Fs3 , v100
	.byte	W06
	.byte		        Fs3 , v016
	.byte	W05
	.byte		PAN   , c_v+63
	.byte	W01
	.byte		N04   , Bn3 , v100
	.byte	W06
	.byte		        Bn3 , v016
	.byte	W05
	.byte		PAN   , c_v+0
	.byte	W01
	.byte		N04   , Fs3 , v100
	.byte	W06
	.byte		        Fs3 , v016
	.byte	W06
	.byte		N12   , Fs4 , v060
	.byte	W11
	.byte		PAN   , c_v+0
	.byte	W01
	.byte	PEND
	.byte		N04   , Bn2 , v100
	.byte	W06
	.byte		        Bn2 , v016
	.byte	W05
	.byte		PAN   , c_v-63
	.byte	W01
	.byte		N04   , Bn3 , v100
	.byte	W06
	.byte		        Bn3 , v016
	.byte	W05
	.byte		PAN   , c_v+0
	.byte	W01
	.byte		N04   , Fs3 , v100
	.byte	W06
	.byte		        Fs3 , v016
	.byte	W06
	.byte		N12   , Bn4 , v068
	.byte	W12
	.byte		N04   , Fs3 , v100
	.byte	W06
	.byte		        Fs3 , v016
	.byte	W05
	.byte		PAN   , c_v+0
	.byte	W01
	.byte		N12   , Bn3 , v100
	.byte	W11
	.byte		PAN   , c_v+63
	.byte	W01
	.byte		N04   , Fs4 , v080
	.byte	W06
	.byte		        Fs4 , v016
	.byte	W05
	.byte		PAN   , c_v+0
	.byte	W01
	.byte		N12   , Fs3 , v100
	.byte	W11
	.byte		PAN   , c_v+63
	.byte	W01
	.byte	PEND
	.byte	PATT
	 .word	seq_022_6 + 0x10B
	.byte	PATT
	 .word	seq_022_6 + 0x14F
	.byte	PATT
	 .word	seq_022_6 + 0x191
	.byte	PATT
	 .word	seq_022_6 + 0x1D5
	.byte	PATT
	 .word	seq_022_6 + 0x10B
	.byte	PATT
	 .word	seq_022_6 + 0x14F
	.byte	PATT
	 .word	seq_022_6 + 0x191
	.byte	PATT
	 .word	seq_022_6 + 0x1D5
	.byte	PATT
	 .word	seq_022_6 + 0x10B
	.byte	PATT
	 .word	seq_022_6 + 0x14F
	.byte	PATT
	 .word	seq_022_6 + 0x191
	.byte	PATT
	 .word	seq_022_6 + 0x1D5
	.byte	PATT
	 .word	seq_022_6 + 0x10B
	.byte	PATT
	 .word	seq_022_6 + 0x14F
	.byte	PATT
	 .word	seq_022_6 + 0x191
	.byte	PATT
	 .word	seq_022_6 + 0x1D5
	.byte	PATT
	 .word	seq_022_6 + 0x10B
	.byte	PATT
	 .word	seq_022_6 + 0x14F
	.byte	PATT
	 .word	seq_022_6 + 0x191
	.byte	PATT
	 .word	seq_022_6 + 0x1D5
	.byte	PATT
	 .word	seq_022_6 + 0x10B
	.byte	PATT
	 .word	seq_022_6 + 0x14F
	.byte		N04   , Bn2 , v100
	.byte	W06
	.byte		        Bn2 , v016
	.byte	W05
	.byte		PAN   , c_v+0
	.byte	W01
	.byte		N12   , Bn3 , v100
	.byte	W12
	.byte		N04   , Fs3 
	.byte	W06
	.byte		        Fs3 , v016
	.byte	W05
	.byte		PAN   , c_v-63
	.byte	W01
	.byte		N04   , Bn2 , v100
	.byte	W06
	.byte		        Bn2 , v016
	.byte	W05
	.byte		PAN   , c_v+0
	.byte	W01
	.byte		N04   , Fs3 , v100
	.byte	W06
	.byte		        Fs3 , v016
	.byte	W05
	.byte		PAN   , c_v+63
	.byte	W01
	.byte		N04   , Bn3 , v100
	.byte	W06
	.byte		        Bn3 , v016
	.byte	W05
	.byte		PAN   , c_v+0
	.byte	W01
	.byte		N04   , Fs3 , v100
	.byte	W06
	.byte		        Fs3 , v016
	.byte	W06
	.byte		N12   , Bn3 , v060
	.byte	W12
	.byte	W12
	.byte		        Fs3 
	.byte	W24
	.byte		        An3 , v068
	.byte	W24
	.byte		        En3 , v100
	.byte	W32
	.byte	W03
	.byte		PAN   , c_v+63
	.byte	W01
	.byte	PATT
	 .word	seq_022_6 + 0x10B
	.byte	PATT
	 .word	seq_022_6 + 0x14F
	.byte	PATT
	 .word	seq_022_6 + 0x191
	.byte	PATT
	 .word	seq_022_6 + 0x1D5
	.byte	PATT
	 .word	seq_022_6 + 0x10B
	.byte	PATT
	 .word	seq_022_6 + 0x14F
	.byte	PATT
	 .word	seq_022_6 + 0x191
	.byte	PATT
	 .word	seq_022_6 + 0x1D5
	.byte	PATT
	 .word	seq_022_6 + 0x10B
	.byte	PATT
	 .word	seq_022_6 + 0x14F
	.byte	PATT
	 .word	seq_022_6 + 0x191
	.byte	PATT
	 .word	seq_022_6 + 0x1D5
	.byte	PATT
	 .word	seq_022_6 + 0x10B
	.byte	PATT
	 .word	seq_022_6 + 0x14F
	.byte	PATT
	 .word	seq_022_6 + 0x191
	.byte		N04   , Fs3 , v100
	.byte	W06
	.byte		        Fs3 , v016
	.byte	W05
	.byte		PAN   , c_v-63
	.byte	W01
	.byte		N12   , Fs4 , v060
	.byte	W11
	.byte		PAN   , c_v+0
	.byte	W01
	.byte		N04   , Fs3 , v100
	.byte	W06
	.byte		        Fs3 , v016
	.byte	W06
	.byte		N12   , Fs4 , v060
	.byte	W23
	.byte		PAN   , c_v+0
	.byte	W12
	.byte		        c_v+63
	.byte	W12
	.byte		        c_v+0
	.byte	W12
	.byte		VOL   , 66*seq_022_mvl/mxv
	.byte		PAN   , c_v+63
	.byte	W01
	.byte		N04   , En4 , v100
	.byte	W06
	.byte		        En4 , v016
	.byte	W05
	.byte		PAN   , c_v+0
	.byte	W01
	.byte		N12   , An3 , v080
	.byte	W23
	.byte		PAN   , c_v-63
	.byte	W01
	.byte		N04   , En3 , v100
	.byte	W06
	.byte		        En3 , v016
	.byte	W05
	.byte		PAN   , c_v+0
	.byte	W01
	.byte		N04   , An3 , v100
	.byte	W06
	.byte		        An3 , v016
	.byte	W05
	.byte		PAN   , c_v+63
	.byte	W01
	.byte		N04   , En4 , v100
	.byte	W06
	.byte		        En4 , v016
	.byte	W05
	.byte		PAN   , c_v+0
	.byte	W01
	.byte		N04   , En3 , v100
	.byte	W06
	.byte		        En3 , v016
	.byte	W06
	.byte		N12   , An3 , v060
	.byte	W11
	.byte		PAN   , c_v+0
	.byte	W01
	.byte	PEND
	.byte		N04   , An3 , v072
	.byte	W06
	.byte		        An3 , v016
	.byte	W05
	.byte		PAN   , c_v-63
	.byte	W01
	.byte		N04   , En4 , v100
	.byte	W06
	.byte		        En4 , v016
	.byte	W05
	.byte		PAN   , c_v+0
	.byte	W01
	.byte		N04   , An3 , v072
	.byte	W06
	.byte		        An3 , v016
	.byte	W06
	.byte		N12   , An4 , v052
	.byte	W12
	.byte		N04   , An3 , v072
	.byte	W06
	.byte		        An3 , v016
	.byte	W05
	.byte		PAN   , c_v+63
	.byte	W01
	.byte		N04   , En4 , v100
	.byte	W06
	.byte		        En4 , v016
	.byte	W05
	.byte		PAN   , c_v+0
	.byte	W01
	.byte		N04   , En3 , v072
	.byte	W06
	.byte		        En3 , v016
	.byte	W06
	.byte		N12   , An3 , v080
	.byte	W11
	.byte		PAN   , c_v+63
	.byte	W01
	.byte	PEND
	.byte		N04   , Fs4 , v100
	.byte	W06
	.byte		        Fs4 , v016
	.byte	W05
	.byte		PAN   , c_v+0
	.byte	W01
	.byte		N12   , Bn3 , v080
	.byte	W23
	.byte		PAN   , c_v-63
	.byte	W01
	.byte		N04   , Fs3 , v100
	.byte	W06
	.byte		        Fs3 , v016
	.byte	W05
	.byte		PAN   , c_v+0
	.byte	W01
	.byte		N04   , Bn3 , v100
	.byte	W06
	.byte		        Bn3 , v016
	.byte	W05
	.byte		PAN   , c_v+63
	.byte	W01
	.byte		N04   , Fs4 , v100
	.byte	W06
	.byte		        Fs4 , v016
	.byte	W05
	.byte		PAN   , c_v+0
	.byte	W01
	.byte		N04   , Fs3 , v100
	.byte	W06
	.byte		        Fs3 , v016
	.byte	W06
	.byte		N12   , Bn3 , v060
	.byte	W11
	.byte		PAN   , c_v+0
	.byte	W01
	.byte	PEND
	.byte		N04   , Bn3 , v072
	.byte	W06
	.byte		        Bn3 , v016
	.byte	W05
	.byte		PAN   , c_v-63
	.byte	W01
	.byte		N04   , Fs4 , v100
	.byte	W06
	.byte		        Fs4 , v016
	.byte	W05
	.byte		PAN   , c_v+0
	.byte	W01
	.byte		N04   , Bn3 , v072
	.byte	W06
	.byte		        Bn3 , v016
	.byte	W06
	.byte		N12   , Bn4 , v052
	.byte	W12
	.byte		N04   , Bn3 , v072
	.byte	W06
	.byte		        Bn3 , v016
	.byte	W05
	.byte		PAN   , c_v+63
	.byte	W01
	.byte		N04   , Fs4 , v100
	.byte	W06
	.byte		        Fs4 , v016
	.byte	W05
	.byte		PAN   , c_v+0
	.byte	W01
	.byte		N04   , Fs3 , v072
	.byte	W06
	.byte		        Fs3 , v016
	.byte	W06
	.byte		N12   , Bn3 , v080
	.byte	W11
	.byte		PAN   , c_v+63
	.byte	W01
	.byte	PEND
	.byte	PATT
	 .word	seq_022_6 + 0x345
	.byte	PATT
	 .word	seq_022_6 + 0x383
	.byte	PATT
	 .word	seq_022_6 + 0x3C5
	.byte		N04   , Bn3 , v072
	.byte	W06
	.byte		        Bn3 , v016
	.byte	W05
	.byte		PAN   , c_v-63
	.byte	W01
	.byte		N04   , Fs4 , v100
	.byte	W06
	.byte		        Fs4 , v016
	.byte	W05
	.byte		PAN   , c_v+0
	.byte	W01
	.byte		N04   , Bn3 , v072
	.byte	W06
	.byte		        Bn3 , v016
	.byte	W06
	.byte		N12   , Bn4 , v052
	.byte	W12
	.byte		N04   , Bn3 , v072
	.byte	W06
	.byte		        Bn3 , v016
	.byte	W05
	.byte		PAN   , c_v+63
	.byte	W01
	.byte		N04   , Fs4 , v100
	.byte	W06
	.byte		        Fs4 , v016
	.byte	W05
	.byte		PAN   , c_v+0
	.byte	W01
	.byte		N04   , Fs3 , v072
	.byte	W06
	.byte		        Fs3 , v016
	.byte	W06
	.byte		N12   , Bn3 , v080
	.byte	W11
	.byte		VOL   , 85*seq_022_mvl/mxv
	.byte		PAN   , c_v+63
	.byte	W01
	.byte	PEND
	.byte	PATT
	 .word	seq_022_6 + 0x345
	.byte	PATT
	 .word	seq_022_6 + 0x383
	.byte	PATT
	 .word	seq_022_6 + 0x3C5
	.byte	PATT
	 .word	seq_022_6 + 0x454
	.byte	PATT
	 .word	seq_022_6 + 0x345
	.byte	PATT
	 .word	seq_022_6 + 0x383
	.byte	PATT
	 .word	seq_022_6 + 0x3C5
	.byte	PATT
	 .word	seq_022_6 + 0x454
	.byte	PATT
	 .word	seq_022_6 + 0x345
	.byte	PATT
	 .word	seq_022_6 + 0x383
	.byte	PATT
	 .word	seq_022_6 + 0x3C5
	.byte	PATT
	 .word	seq_022_6 + 0x403
	.byte	PATT
	 .word	seq_022_6 + 0x345
	.byte	PATT
	 .word	seq_022_6 + 0x383
	.byte	PATT
	 .word	seq_022_6 + 0x3C5
	.byte	PATT
	 .word	seq_022_6 + 0x403
	.byte	PATT
	 .word	seq_022_6 + 0x345
	.byte	PATT
	 .word	seq_022_6 + 0x383
	.byte	PATT
	 .word	seq_022_6 + 0x3C5
	.byte	PATT
	 .word	seq_022_6 + 0x403
	.byte	PATT
	 .word	seq_022_6 + 0x345
	.byte	PATT
	 .word	seq_022_6 + 0x383
	.byte	PATT
	 .word	seq_022_6 + 0x3C5
	.byte		N04   , Bn3 , v072
	.byte	W06
	.byte		        Bn3 , v016
	.byte	W05
	.byte		PAN   , c_v-63
	.byte	W01
	.byte		N04   , Fs4 , v100
	.byte	W06
	.byte		        Fs4 , v016
	.byte	W05
	.byte		PAN   , c_v+0
	.byte	W01
	.byte		N04   , Bn3 , v072
	.byte	W06
	.byte		        Bn3 , v016
	.byte	W06
	.byte		N12   , Bn4 , v052
	.byte	W12
	.byte		N04   , Bn3 , v072
	.byte	W06
	.byte		        Bn3 , v016
	.byte	W05
	.byte		PAN   , c_v+63
	.byte	W01
	.byte		N04   , Fs4 , v100
	.byte	W06
	.byte		        Fs4 , v016
	.byte	W05
	.byte		PAN   , c_v+0
	.byte	W01
	.byte		N04   , Fs3 , v072
	.byte	W06
	.byte		        Fs3 , v016
	.byte	W06
	.byte		N12   , Bn3 , v080
	.byte	W11
	.byte		PAN   , c_v+0
	.byte	W01
	.byte	W11
	.byte		PAN   , c_v-63
	.byte	W01
	.byte		N10   , Fs4 , v080
	.byte	W23
	.byte		PAN   , c_v+63
	.byte	W01
	.byte		N10
	.byte	W23
	.byte		PAN   , c_v-63
	.byte	W01
	.byte		N10
	.byte	W23
	.byte		PAN   , c_v+63
	.byte	W01
	.byte		N10
	.byte	W12
	.byte	PEND
	.byte	W11
	.byte		PAN   , c_v-63
	.byte	W01
	.byte		N10   , Fs4 , v080
	.byte	W23
	.byte		PAN   , c_v+63
	.byte	W01
	.byte		N10
	.byte	W23
	.byte		PAN   , c_v-63
	.byte	W01
	.byte		N10
	.byte	W23
	.byte		PAN   , c_v+63
	.byte	W01
	.byte		N10   , Cs4 
	.byte	W11
	.byte		PAN   , c_v+0
	.byte	W01
	.byte	PEND
	.byte	PATT
	 .word	seq_022_6 + 0x54C
	.byte	PATT
	 .word	seq_022_6 + 0x564
	.byte	PATT
	 .word	seq_022_6 + 0x54C
	.byte	PATT
	 .word	seq_022_6 + 0x564
	.byte	PATT
	 .word	seq_022_6 + 0x54C
	.byte	W11
	.byte		PAN   , c_v-63
	.byte	W01
	.byte		N10   , Fs4 , v080
	.byte	W23
	.byte		PAN   , c_v+63
	.byte	W01
	.byte		N10
	.byte	W23
	.byte		PAN   , c_v-63
	.byte	W01
	.byte		N10
	.byte	W23
	.byte		PAN   , c_v+63
	.byte	W01
	.byte		N10   , Cs4 
	.byte	W11
	.byte		PAN   , c_v+63
	.byte	W01
	.byte	PATT
	 .word	seq_022_6 + 0x10B
	.byte	PATT
	 .word	seq_022_6 + 0x14F
	.byte	PATT
	 .word	seq_022_6 + 0x191
	.byte	PATT
	 .word	seq_022_6 + 0x1D5
	.byte	PATT
	 .word	seq_022_6 + 0x10B
	.byte	PATT
	 .word	seq_022_6 + 0x14F
	.byte	PATT
	 .word	seq_022_6 + 0x191
	.byte	PATT
	 .word	seq_022_6 + 0x1D5
	.byte	PATT
	 .word	seq_022_6 + 0x10B
	.byte	PATT
	 .word	seq_022_6 + 0x14F
	.byte	PATT
	 .word	seq_022_6 + 0x191
	.byte		N04   , Bn2 , v100
	.byte	W06
	.byte		        Bn2 , v016
	.byte	W05
	.byte		PAN   , c_v-63
	.byte	W01
	.byte		N04   , Bn3 , v100
	.byte	W06
	.byte		        Bn3 , v016
	.byte	W05
	.byte		PAN   , c_v+0
	.byte	W01
	.byte		N04   , Fs3 , v100
	.byte	W06
	.byte		        Fs3 , v016
	.byte	W06
	.byte		N12   , Bn4 , v068
	.byte	W12
	.byte		N04   , Fs3 , v100
	.byte	W06
	.byte		        Fs3 , v016
	.byte	W05
	.byte		PAN   , c_v+0
	.byte	W01
	.byte		N12   , Bn3 , v100
	.byte	W11
	.byte		PAN   , c_v+63
	.byte	W01
	.byte		N04   , Fs4 , v080
	.byte	W06
	.byte		        Fs4 , v016
	.byte	W05
	.byte		PAN   , c_v+0
	.byte	W01
	.byte		N12   , Fs3 , v100
	.byte	W12
	.byte	GOTO
	 .word	seq_022_6 + 0x217
	.byte	FINE

@*********************** Track 08 ***********************@

seq_022_7:
	.byte	KEYSH , seq_022_key+0
	.byte	W15
	.byte		VOICE , 10
	.byte	W01
	.byte		MOD   , 100
	.byte		VOL   , 53*seq_022_mvl/mxv
	.byte		PAN   , c_v+0
	.byte	W01
	.byte		MODT  , mod_pan
	.byte	W07
	.byte		N05   , Bn3 , v100
	.byte	W06
	.byte		        Bn3 , v048
	.byte	W06
	.byte		        En3 , v072
	.byte	W06
	.byte		        En3 , v048
	.byte	W06
	.byte		        Fs3 , v100
	.byte	W06
	.byte		        Fs3 , v048
	.byte	W06
	.byte		        Bn2 , v072
	.byte	W06
	.byte		        Bn2 , v048
	.byte	W06
	.byte		        En3 , v100
	.byte	W06
	.byte		        En3 , v048
	.byte	W06
	.byte		        Fs3 , v072
	.byte	W06
	.byte		        Fs3 , v048
	.byte	W06
	.byte		        Bn2 , v072
	.byte	W06
	.byte		        Bn2 , v048
	.byte	W06
	.byte		        Bn3 , v100
	.byte	W06
	.byte		        Bn3 , v048
	.byte	W06
	.byte	PEND
	.byte		N05   , En3 , v100
	.byte	W06
	.byte		        En3 , v048
	.byte	W06
	.byte		        Fs3 , v072
	.byte	W06
	.byte		        Fs3 , v048
	.byte	W06
	.byte		        Bn2 , v100
	.byte	W06
	.byte		        Bn2 , v048
	.byte	W06
	.byte		        En3 , v072
	.byte	W06
	.byte		        En3 , v048
	.byte	W06
	.byte		        Fs3 , v100
	.byte	W06
	.byte		        Fs3 , v048
	.byte	W06
	.byte		        Bn2 , v072
	.byte	W06
	.byte		        Bn2 , v048
	.byte	W06
	.byte		        En3 , v100
	.byte	W06
	.byte		        En3 , v048
	.byte	W06
	.byte		        An2 , v072
	.byte	W06
	.byte		        An2 , v048
	.byte	W06
	.byte	PEND
	.byte	PATT
	 .word	seq_022_7 + 0x10
	.byte	PATT
	 .word	seq_022_7 + 0x42
	.byte	PATT
	 .word	seq_022_7 + 0x10
	.byte	PATT
	 .word	seq_022_7 + 0x42
	.byte	PATT
	 .word	seq_022_7 + 0x10
	.byte	PATT
	 .word	seq_022_7 + 0x42
	.byte	PATT
	 .word	seq_022_7 + 0x10
	.byte	PATT
	 .word	seq_022_7 + 0x42
	.byte	PATT
	 .word	seq_022_7 + 0x10
	.byte	PATT
	 .word	seq_022_7 + 0x42
	.byte		N05   , Bn3 , v100
	.byte	W06
	.byte		        Bn3 , v048
	.byte	W06
	.byte		        En3 , v072
	.byte	W06
	.byte		        En3 , v028
	.byte	W06
	.byte		        Fs3 , v100
	.byte	W06
	.byte		        Fs3 , v048
	.byte	W06
	.byte		        Bn2 , v072
	.byte	W06
	.byte		        Bn2 , v048
	.byte	W06
	.byte		        En3 , v100
	.byte	W06
	.byte		        En3 , v028
	.byte	W06
	.byte		        Fs3 , v072
	.byte	W06
	.byte		        Fs3 , v028
	.byte	W06
	.byte		        Bn2 , v072
	.byte	W06
	.byte		        Bn2 , v028
	.byte	W06
	.byte		        Bn3 , v100
	.byte	W06
	.byte		        Bn3 , v028
	.byte	W06
	.byte	PEND
	.byte		N05   , En3 , v100
	.byte	W06
	.byte		        En3 , v028
	.byte	W06
	.byte		        Fs3 , v072
	.byte	W06
	.byte		        Fs3 , v028
	.byte	W06
	.byte		        Bn2 , v100
	.byte	W06
	.byte		        Bn2 , v048
	.byte	W06
	.byte		        En3 , v072
	.byte	W06
	.byte		        En3 , v028
	.byte	W06
	.byte		        Fs3 , v100
	.byte	W06
	.byte		        Fs3 , v048
	.byte	W06
	.byte		        Bn2 , v072
	.byte	W06
	.byte		        Bn2 , v048
	.byte	W06
	.byte		        En3 , v100
	.byte	W06
	.byte		        En3 , v028
	.byte	W06
	.byte		        An2 , v072
	.byte	W06
	.byte		        An2 , v048
	.byte	W06
	.byte	PEND
	.byte	PATT
	 .word	seq_022_7 + 0xA6
	.byte	PATT
	 .word	seq_022_7 + 0xD8
	.byte	PATT
	 .word	seq_022_7 + 0xA6
	.byte	PATT
	 .word	seq_022_7 + 0xD8
	.byte	PATT
	 .word	seq_022_7 + 0xA6
	.byte	PATT
	 .word	seq_022_7 + 0xD8
	.byte	PATT
	 .word	seq_022_7 + 0xA6
	.byte	PATT
	 .word	seq_022_7 + 0xD8
	.byte	PATT
	 .word	seq_022_7 + 0xA6
	.byte	PATT
	 .word	seq_022_7 + 0xD8
	.byte	W96
	.byte	W96
	.byte	W96
	.byte	W96
	.byte	W96
	.byte	W96
	.byte	W96
	.byte	W96
	.byte	PATT
	 .word	seq_022_7 + 0xA6
	.byte	PATT
	 .word	seq_022_7 + 0xD8
	.byte	PATT
	 .word	seq_022_7 + 0xA6
	.byte	PATT
	 .word	seq_022_7 + 0xD8
	.byte	PATT
	 .word	seq_022_7 + 0xA6
	.byte	PATT
	 .word	seq_022_7 + 0xD8
	.byte	PATT
	 .word	seq_022_7 + 0xA6
	.byte	PATT
	 .word	seq_022_7 + 0xD8
	.byte	W96
	.byte	W96
	.byte	W96
	.byte	W96
	.byte	W96
	.byte	W96
	.byte	W96
	.byte	W96
	.byte	W96
	.byte	W96
	.byte	W96
	.byte	W96
	.byte	PATT
	 .word	seq_022_7 + 0xA6
	.byte	PATT
	 .word	seq_022_7 + 0xD8
	.byte	PATT
	 .word	seq_022_7 + 0xA6
	.byte	PATT
	 .word	seq_022_7 + 0xD8
	.byte	PATT
	 .word	seq_022_7 + 0xA6
	.byte	PATT
	 .word	seq_022_7 + 0xD8
	.byte		N05   , Bn3 , v100
	.byte	W06
	.byte		        Bn3 , v048
	.byte	W06
	.byte		        En3 , v072
	.byte	W06
	.byte		        En3 , v028
	.byte	W06
	.byte		        Fs3 , v100
	.byte	W06
	.byte		        Fs3 , v048
	.byte	W06
	.byte		        Bn2 , v072
	.byte	W06
	.byte		        Bn2 , v048
	.byte	W06
	.byte		        En3 , v100
	.byte	W06
	.byte		        En3 , v028
	.byte	W06
	.byte		        Fs3 , v072
	.byte	W06
	.byte		        Fs3 , v028
	.byte	W06
	.byte		        Bn2 , v072
	.byte	W06
	.byte		        Bn2 , v028
	.byte	W06
	.byte		        Bn3 , v100
	.byte	W06
	.byte		        Bn3 , v028
	.byte	W05
	.byte		VOL   , 76*seq_022_mvl/mxv
	.byte	W01
	.byte	W92
	.byte	W03
	.byte		VOICE , 46
	.byte		PAN   , c_v+0
	.byte	W01
	.byte		N03   , Cs3 , v088
	.byte	W11
	.byte		PAN   , c_v+20
	.byte	W01
	.byte		N03   , Cs4 , v092
	.byte	W12
	.byte		        Cs4 , v028
	.byte	W11
	.byte		PAN   , c_v-20
	.byte	W01
	.byte		N03   , Fs4 , v092
	.byte	W12
	.byte		        Fs4 , v028
	.byte	W11
	.byte		PAN   , c_v+20
	.byte	W01
	.byte		N03   , Cs4 , v092
	.byte	W12
	.byte		        Cs4 , v028
	.byte	W10
	.byte		PAN   , c_v-20
	.byte	W02
	.byte		N03   , An4 , v092
	.byte	W12
	.byte	PEND
	.byte		        An4 , v028
	.byte	W10
	.byte		PAN   , c_v+20
	.byte	W02
	.byte		N03   , Fs4 , v092
	.byte	W12
	.byte		        Fs4 , v028
	.byte	W11
	.byte		PAN   , c_v-20
	.byte	W01
	.byte		N03   , Cs5 , v092
	.byte	W12
	.byte		        Cs5 , v028
	.byte	W11
	.byte		PAN   , c_v+20
	.byte	W01
	.byte		N03   , An4 , v092
	.byte	W11
	.byte		PAN   , c_v+0
	.byte	W01
	.byte		N03   , En4 
	.byte	W12
	.byte		        En4 , v028
	.byte	W11
	.byte		PAN   , c_v+0
	.byte	W01
	.byte		N03   , Ds3 , v088
	.byte	W11
	.byte		PAN   , c_v+20
	.byte	W01
	.byte		N03   , Ds4 , v092
	.byte	W12
	.byte		        Ds4 , v028
	.byte	W11
	.byte		PAN   , c_v-20
	.byte	W01
	.byte		N03   , Gs4 , v092
	.byte	W12
	.byte		        Gs4 , v028
	.byte	W11
	.byte		PAN   , c_v+20
	.byte	W01
	.byte		N03   , Ds4 , v092
	.byte	W12
	.byte		        Ds4 , v028
	.byte	W10
	.byte		PAN   , c_v-20
	.byte	W02
	.byte		N03   , Bn4 , v092
	.byte	W12
	.byte	PEND
	.byte		        Bn4 , v028
	.byte	W10
	.byte		PAN   , c_v+20
	.byte	W02
	.byte		N03   , Gs4 , v092
	.byte	W12
	.byte		        Gs4 , v028
	.byte	W11
	.byte		PAN   , c_v-20
	.byte	W01
	.byte		N03   , Ds5 , v092
	.byte	W12
	.byte		        Ds5 , v028
	.byte	W11
	.byte		PAN   , c_v+20
	.byte	W01
	.byte		N03   , Bn4 , v092
	.byte	W11
	.byte		PAN   , c_v+0
	.byte	W01
	.byte		N03   , Fs4 
	.byte	W12
	.byte		        Fs4 , v028
	.byte	W11
	.byte		PAN   , c_v+0
	.byte	W01
	.byte	PATT
	 .word	seq_022_7 + 0x1D1
	.byte		N03   , An4 , v028
	.byte	W10
	.byte		PAN   , c_v+20
	.byte	W02
	.byte		N03   , Fs4 , v092
	.byte	W12
	.byte		        Fs4 , v028
	.byte	W11
	.byte		PAN   , c_v-20
	.byte	W01
	.byte		N03   , Cs5 , v092
	.byte	W12
	.byte		        Cs5 , v028
	.byte	W11
	.byte		PAN   , c_v+20
	.byte	W01
	.byte		N03   , An4 , v092
	.byte	W11
	.byte		PAN   , c_v+0
	.byte	W01
	.byte		N03   , En5 
	.byte	W12
	.byte		        En5 , v028
	.byte	W11
	.byte		PAN   , c_v+0
	.byte	W01
	.byte	PATT
	 .word	seq_022_7 + 0x225
	.byte		N03   , Bn4 , v028
	.byte	W10
	.byte		PAN   , c_v+20
	.byte	W02
	.byte		N03   , Gs4 , v092
	.byte	W12
	.byte		        Gs4 , v028
	.byte	W11
	.byte		PAN   , c_v-20
	.byte	W01
	.byte		N03   , Ds5 , v092
	.byte	W12
	.byte		        Ds5 , v028
	.byte	W11
	.byte		PAN   , c_v+20
	.byte	W01
	.byte		N03   , Bn4 , v092
	.byte	W11
	.byte		PAN   , c_v+0
	.byte	W01
	.byte		N03   , Gs4 
	.byte	W23
	.byte		VOICE , 5
	.byte		MOD   , 0
	.byte		VOL   , 85*seq_022_mvl/mxv
	.byte		PAN   , c_v+0
	.byte	W01
	.byte		N05   , Fs4 , v080
	.byte	W06
	.byte		        Fs4 , v028
	.byte	W06
	.byte		        Bn3 , v052
	.byte	W06
	.byte		        Bn3 , v028
	.byte	W05
	.byte		PAN   , c_v-63
	.byte	W01
	.byte		N05   , Cs4 , v080
	.byte	W06
	.byte		        Cs4 , v028
	.byte	W06
	.byte		        Fs3 , v052
	.byte	W06
	.byte		        Fs3 , v028
	.byte	W05
	.byte		PAN   , c_v+63
	.byte	W01
	.byte		N05   , Bn3 , v080
	.byte	W06
	.byte		        Bn3 , v028
	.byte	W05
	.byte		PAN   , c_v-63
	.byte	W01
	.byte		N05   , Cs4 , v052
	.byte	W06
	.byte		        Cs4 , v028
	.byte	W05
	.byte		PAN   , c_v-10
	.byte	W01
	.byte		N05   , Fs3 , v052
	.byte	W06
	.byte		        Fs3 , v028
	.byte	W05
	.byte		PAN   , c_v+63
	.byte	W01
	.byte		N05   , Fs4 , v080
	.byte	W06
	.byte		        Fs4 , v028
	.byte	W05
	.byte		PAN   , c_v-63
	.byte	W01
	.byte	PEND
	.byte		N05   , Bn3 , v080
	.byte	W06
	.byte		        Bn3 , v028
	.byte	W05
	.byte		PAN   , c_v-10
	.byte	W01
	.byte		N05   , Cs4 , v052
	.byte	W06
	.byte		        Cs4 , v028
	.byte	W05
	.byte		PAN   , c_v-63
	.byte	W01
	.byte		N05   , Fs3 , v080
	.byte	W06
	.byte		        Fs3 , v028
	.byte	W05
	.byte		PAN   , c_v+63
	.byte	W01
	.byte		N05   , Bn3 , v052
	.byte	W06
	.byte		        Bn3 , v028
	.byte	W05
	.byte		PAN   , c_v-63
	.byte	W01
	.byte		N05   , Cs4 , v080
	.byte	W06
	.byte		        Cs4 , v028
	.byte	W06
	.byte		        Fs3 , v052
	.byte	W06
	.byte		        Fs3 , v028
	.byte	W05
	.byte		PAN   , c_v+63
	.byte	W01
	.byte		N05   , Bn3 , v080
	.byte	W06
	.byte		        Bn3 , v028
	.byte	W06
	.byte		        Fs3 , v052
	.byte	W06
	.byte		        Fs3 , v028
	.byte	W05
	.byte		PAN   , c_v+0
	.byte	W01
	.byte	PEND
	.byte	PATT
	 .word	seq_022_7 + 0x2DC
	.byte	PATT
	 .word	seq_022_7 + 0x325
	.byte	PATT
	 .word	seq_022_7 + 0x2DC
	.byte	PATT
	 .word	seq_022_7 + 0x325
	.byte	PATT
	 .word	seq_022_7 + 0x2DC
	.byte	PATT
	 .word	seq_022_7 + 0x325
	.byte	PATT
	 .word	seq_022_7 + 0x2DC
	.byte	PATT
	 .word	seq_022_7 + 0x325
	.byte	PATT
	 .word	seq_022_7 + 0x2DC
	.byte	PATT
	 .word	seq_022_7 + 0x325
	.byte	PATT
	 .word	seq_022_7 + 0x2DC
	.byte	PATT
	 .word	seq_022_7 + 0x325
	.byte	PATT
	 .word	seq_022_7 + 0x2DC
	.byte		N05   , Bn3 , v080
	.byte	W06
	.byte		        Bn3 , v028
	.byte	W05
	.byte		PAN   , c_v-10
	.byte	W01
	.byte		N05   , Cs4 , v052
	.byte	W06
	.byte		        Cs4 , v028
	.byte	W05
	.byte		PAN   , c_v-63
	.byte	W01
	.byte		N05   , Fs3 , v080
	.byte	W06
	.byte		        Fs3 , v028
	.byte	W05
	.byte		PAN   , c_v+63
	.byte	W01
	.byte		N05   , Bn3 , v052
	.byte	W06
	.byte		        Bn3 , v028
	.byte	W05
	.byte		PAN   , c_v-63
	.byte	W01
	.byte		N05   , Cs4 , v080
	.byte	W06
	.byte		        Cs4 , v028
	.byte	W06
	.byte		        Fs3 , v052
	.byte	W06
	.byte		        Fs3 , v028
	.byte	W05
	.byte		PAN   , c_v+63
	.byte	W01
	.byte		N05   , Bn3 , v080
	.byte	W06
	.byte		        Bn3 , v028
	.byte	W06
	.byte		        Fs3 , v052
	.byte	W06
	.byte		        Fs3 , v028
	.byte	W05
	.byte		VOICE , 46
	.byte		PAN   , c_v+0
	.byte	W01
	.byte		N03   , Cs3 , v108
	.byte	W11
	.byte		PAN   , c_v+20
	.byte	W01
	.byte		N03   , Cs4 , v112
	.byte	W12
	.byte		        Cs4 , v048
	.byte	W11
	.byte		PAN   , c_v-20
	.byte	W01
	.byte		N03   , Cs4 , v112
	.byte	W12
	.byte		        Cs4 , v048
	.byte	W11
	.byte		PAN   , c_v+20
	.byte	W01
	.byte		N03   , Cs4 , v112
	.byte	W12
	.byte		        Cs4 , v048
	.byte	W10
	.byte		PAN   , c_v-20
	.byte	W02
	.byte		N03   , Cs4 , v112
	.byte	W12
	.byte	PEND
	.byte		N03   , Cs4 , v048
	.byte	W10
	.byte		PAN   , c_v+20
	.byte	W02
	.byte		N03   , Cs4 , v112
	.byte	W12
	.byte		        Cs4 , v048
	.byte	W11
	.byte		PAN   , c_v-20
	.byte	W01
	.byte		N03   , Cs4 , v112
	.byte	W12
	.byte		        Cs4 , v048
	.byte	W11
	.byte		PAN   , c_v+20
	.byte	W01
	.byte		N03   , Cs4 , v112
	.byte	W12
	.byte		        Cs4 , v048
	.byte	W11
	.byte		PAN   , c_v-20
	.byte	W01
	.byte		N03   , Cs4 , v112
	.byte	W11
	.byte		PAN   , c_v+0
	.byte	W01
	.byte	PEND
	.byte		N03   , Fs3 , v108
	.byte	W11
	.byte		PAN   , c_v+20
	.byte	W01
	.byte		N03   , Cs4 , v112
	.byte	W12
	.byte		        Cs4 , v048
	.byte	W11
	.byte		PAN   , c_v-20
	.byte	W01
	.byte		N03   , Cs4 , v112
	.byte	W12
	.byte		        Cs4 , v048
	.byte	W11
	.byte		PAN   , c_v+20
	.byte	W01
	.byte		N03   , Cs4 , v112
	.byte	W12
	.byte		        Cs4 , v048
	.byte	W10
	.byte		PAN   , c_v-20
	.byte	W02
	.byte		N03   , Cs4 , v112
	.byte	W12
	.byte	PEND
	.byte	PATT
	 .word	seq_022_7 + 0x423
	.byte	PATT
	 .word	seq_022_7 + 0x3F9
	.byte		N03   , Cs4 , v048
	.byte	W10
	.byte		PAN   , c_v+20
	.byte	W02
	.byte		N03   , Cs4 , v112
	.byte	W12
	.byte		        Cs4 , v048
	.byte	W11
	.byte		PAN   , c_v-20
	.byte	W01
	.byte		N03   , Cs4 , v112
	.byte	W12
	.byte		        Cs4 , v048
	.byte	W11
	.byte		PAN   , c_v+20
	.byte	W01
	.byte		N03   , Cs4 , v112
	.byte	W11
	.byte		PAN   , c_v+0
	.byte	W01
	.byte		N03   , Cs4 , v048
	.byte	W12
	.byte		        Cs4 , v112
	.byte	W11
	.byte		PAN   , c_v+0
	.byte	W01
	.byte	PEND
	.byte	PATT
	 .word	seq_022_7 + 0x450
	.byte		N03   , Cs4 , v048
	.byte	W10
	.byte		PAN   , c_v+20
	.byte	W02
	.byte		N03   , Cs4 , v112
	.byte	W12
	.byte		        Cs4 , v048
	.byte	W11
	.byte		PAN   , c_v-20
	.byte	W01
	.byte		N03   , Cs4 , v112
	.byte	W12
	.byte		        Cs4 , v048
	.byte	W11
	.byte		PAN   , c_v+20
	.byte	W01
	.byte		N03   , Cs4 , v112
	.byte	W11
	.byte		PAN   , c_v+0
	.byte	W01
	.byte		N03   , Cs4 , v048
	.byte	W12
	.byte		        Cs4 , v112
	.byte	W11
	.byte		VOICE , 46
	.byte		PAN   , c_v+0
	.byte	W01
	.byte	PATT
	 .word	seq_022_7 + 0x3F9
	.byte	PATT
	 .word	seq_022_7 + 0x423
	.byte	PATT
	 .word	seq_022_7 + 0x450
	.byte	PATT
	 .word	seq_022_7 + 0x423
	.byte	PATT
	 .word	seq_022_7 + 0x3F9
	.byte	PATT
	 .word	seq_022_7 + 0x484
	.byte	PATT
	 .word	seq_022_7 + 0x450
	.byte		N03   , Cs4 , v048
	.byte	W10
	.byte		PAN   , c_v+20
	.byte	W02
	.byte		N03   , Cs4 , v112
	.byte	W12
	.byte		        Cs4 , v048
	.byte	W11
	.byte		PAN   , c_v-20
	.byte	W01
	.byte		N03   , Cs4 , v112
	.byte	W12
	.byte		        Cs4 , v048
	.byte	W11
	.byte		PAN   , c_v+20
	.byte	W01
	.byte		N03   , Cs4 , v112
	.byte	W11
	.byte		PAN   , c_v+0
	.byte	W01
	.byte		N03   , Cs4 , v048
	.byte	W12
	.byte		        Cs4 , v112
	.byte	W12
	.byte	W96
	.byte	W96
	.byte	W96
	.byte	W96
	.byte	W96
	.byte	W96
	.byte	W96
	.byte	W92
	.byte	W03
	.byte		VOICE , 10
	.byte		MOD   , 100
	.byte		VOL   , 53*seq_022_mvl/mxv
	.byte	W01
	.byte	PATT
	 .word	seq_022_7 + 0xA6
	.byte	PATT
	 .word	seq_022_7 + 0xD8
	.byte	PATT
	 .word	seq_022_7 + 0xA6
	.byte	PATT
	 .word	seq_022_7 + 0xD8
	.byte	GOTO
	 .word	seq_022_7 + 0x128
	.byte	FINE

@*********************** Track 09 ***********************@

seq_022_8:
	.byte	KEYSH , seq_022_key+0
	.byte	W17
	.byte		VOICE , 127
	.byte		VOL   , 73*seq_022_mvl/mxv
	.byte	W01
	.byte		PAN   , c_v+0
	.byte	W05
	.byte		        c_v+0
	.byte	W01
	.byte		N05   , Fs1 , v052
	.byte	W06
	.byte		N02   , Fs1 , v016
	.byte	W06
	.byte		N12   , En2 , v052
	.byte	W11
	.byte		PAN   , c_v+63
	.byte	W01
	.byte		N02   , Fs1 , v112
	.byte	W11
	.byte		PAN   , c_v-63
	.byte	W01
	.byte		N02   , Fs1 , v060
	.byte	W06
	.byte		        Fs1 , v016
	.byte	W05
	.byte		PAN   , c_v+63
	.byte	W01
	.byte		N02   , Fs1 , v112
	.byte	W06
	.byte		        Fs1 , v016
	.byte	W05
	.byte		PAN   , c_v-63
	.byte	W01
	.byte		N02   , Fs1 , v060
	.byte	W06
	.byte		        Fs1 , v016
	.byte	W05
	.byte		PAN   , c_v+63
	.byte	W01
	.byte		N02   , Fs1 , v112
	.byte	W11
	.byte		PAN   , c_v-63
	.byte	W01
	.byte		N02   , Fs1 , v060
	.byte	W06
	.byte		        Fs1 , v016
	.byte	W05
	.byte		PAN   , c_v+63
	.byte	W01
	.byte		N02   , Fs1 , v112
	.byte	W06
	.byte		        Fs1 , v016
	.byte	W05
	.byte		PAN   , c_v-63
	.byte	W01
	.byte		N02   , Fs1 , v060
	.byte	W06
	.byte		        Fs1 , v016
	.byte	W05
	.byte		PAN   , c_v+63
	.byte	W01
	.byte		N02   , Fs1 , v112
	.byte	W11
	.byte		PAN   , c_v-63
	.byte	W01
	.byte		N02   , Fs1 , v060
	.byte	W06
	.byte		        Fs1 , v016
	.byte	W05
	.byte		PAN   , c_v+63
	.byte	W01
	.byte		N02   , Fs1 , v112
	.byte	W06
	.byte		        Fs1 , v016
	.byte	W05
	.byte		PAN   , c_v-63
	.byte	W01
	.byte		N02   , Fs1 , v060
	.byte	W06
	.byte		        Fs1 , v016
	.byte	W05
	.byte		PAN   , c_v+63
	.byte	W01
	.byte		N02   , Fs1 , v112
	.byte	W11
	.byte		PAN   , c_v-63
	.byte	W01
	.byte		N02   , Fs1 , v060
	.byte	W06
	.byte		        Fs1 , v016
	.byte	W05
	.byte		PAN   , c_v+0
	.byte	W01
	.byte		N05   , Fs1 , v080
	.byte	W06
	.byte		N02   , Fs1 , v016
	.byte	W06
	.byte		N12   , En2 , v052
	.byte	W11
	.byte		PAN   , c_v+63
	.byte	W01
	.byte		N02   , Fs1 , v112
	.byte	W11
	.byte		PAN   , c_v-63
	.byte	W01
	.byte		N02   , Fs1 , v060
	.byte	W06
	.byte		        Fs1 , v016
	.byte	W05
	.byte		PAN   , c_v+63
	.byte	W01
	.byte		N02   , Fs1 , v112
	.byte	W06
	.byte		        Fs1 , v016
	.byte	W05
	.byte		PAN   , c_v-63
	.byte	W01
	.byte		N02   , Fs1 , v060
	.byte	W06
	.byte		        Fs1 , v016
	.byte	W05
	.byte		PAN   , c_v+63
	.byte	W01
	.byte		N02   , Fs1 , v112
	.byte	W11
	.byte		PAN   , c_v-63
	.byte	W01
	.byte		N02   , Fs1 , v060
	.byte	W06
	.byte		        Fs1 , v016
	.byte	W05
	.byte		PAN   , c_v+63
	.byte	W01
	.byte		N02   , Fs1 , v112
	.byte	W06
	.byte		        Fs1 , v016
	.byte	W05
	.byte		PAN   , c_v-63
	.byte	W01
	.byte		N02   , Fs1 , v060
	.byte	W06
	.byte		        Fs1 , v016
	.byte	W05
	.byte		PAN   , c_v+63
	.byte	W01
	.byte		N02   , Fs1 , v112
	.byte	W11
	.byte		PAN   , c_v-63
	.byte	W01
	.byte		N02   , Fs1 , v060
	.byte	W06
	.byte		        Fs1 , v016
	.byte	W05
	.byte		VOL   , 63*seq_022_mvl/mxv
	.byte		PAN   , c_v+0
	.byte	W01
	.byte		N02   , Fs1 , v112
	.byte	W03
	.byte		        Fs1 , v016
	.byte	W03
	.byte		        Fs1 , v032
	.byte	W06
	.byte		N12   , En2 , v060
	.byte	W12
	.byte		N02   , Fs1 , v112
	.byte	W06
	.byte		        Fs1 , v012
	.byte	W06
	.byte		N12   , En2 , v060
	.byte	W11
	.byte		VOL   , 50*seq_022_mvl/mxv
	.byte		PAN   , c_v+0
	.byte	W01
	.byte		N02   , Gs1 , v092
	.byte	W03
	.byte		        Fs1 , v032
	.byte	W03
	.byte		N03   , Ds2 
	.byte	W06
	.byte		N12   , En2 , v072
	.byte	W12
	.byte		N02   , Gs1 , v092
	.byte	W03
	.byte		        Fs1 , v032
	.byte	W03
	.byte		N03   , Ds2 
	.byte	W06
	.byte		N02   , Gs1 , v092
	.byte	W06
	.byte		N03   , Ds2 , v032
	.byte	W06
	.byte		N02   , Gs1 , v092
	.byte	W03
	.byte		        Fs1 , v032
	.byte	W03
	.byte		N03   , Ds2 
	.byte	W06
	.byte		N02   , Gs1 , v092
	.byte	W03
	.byte		        Fs1 , v032
	.byte	W03
	.byte		N03   , Ds2 
	.byte	W06
	.byte		N02   , Gs1 , v092
	.byte	W03
	.byte		        Fs1 , v032
	.byte	W03
	.byte		N03   , Ds2 
	.byte	W06
	.byte		N02   , Gs1 , v092
	.byte	W03
	.byte		        Fs1 , v032
	.byte	W03
	.byte		N03   , Ds2 
	.byte	W06
	.byte	PEND
	.byte		N02   , Gs1 , v092
	.byte	W03
	.byte		        Fs1 , v032
	.byte	W03
	.byte		N03   , Ds2 
	.byte	W06
	.byte		N12   , En2 , v072
	.byte	W12
	.byte		N02   , Gs1 , v092
	.byte	W03
	.byte		        Fs1 , v032
	.byte	W03
	.byte		N03   , Ds2 
	.byte	W06
	.byte		N02   , Gs1 , v092
	.byte	W03
	.byte		        Fs1 , v032
	.byte	W03
	.byte		N03   , Ds2 
	.byte	W06
	.byte		N02   , Gs1 , v092
	.byte	W03
	.byte		        Fs1 , v032
	.byte	W03
	.byte		N03   , Ds2 
	.byte	W06
	.byte		N02   , Gs1 , v092
	.byte	W03
	.byte		        Fs1 , v032
	.byte	W03
	.byte		N03   , Ds2 
	.byte	W06
	.byte		N02   , Gs1 , v092
	.byte	W03
	.byte		        Fs1 , v032
	.byte	W03
	.byte		N03   , Ds2 
	.byte	W06
	.byte		N12   , En2 , v072
	.byte	W11
	.byte		VOL   , 50*seq_022_mvl/mxv
	.byte		PAN   , c_v+0
	.byte	W01
	.byte	PEND
	.byte	PATT
	 .word	seq_022_8 + 0x126
	.byte	PATT
	 .word	seq_022_8 + 0x16F
	.byte	PATT
	 .word	seq_022_8 + 0x126
	.byte	PATT
	 .word	seq_022_8 + 0x16F
	.byte	PATT
	 .word	seq_022_8 + 0x126
	.byte	PATT
	 .word	seq_022_8 + 0x16F
	.byte	PATT
	 .word	seq_022_8 + 0x126
	.byte	PATT
	 .word	seq_022_8 + 0x16F
	.byte		N02   , Gs1 , v092
	.byte	W03
	.byte		        Fs1 , v032
	.byte	W03
	.byte		N03   , Ds2 
	.byte	W06
	.byte		N12   , En2 , v072
	.byte	W12
	.byte		N02   , Gs1 , v092
	.byte	W03
	.byte		        Fs1 , v032
	.byte	W03
	.byte		N03   , Ds2 
	.byte	W06
	.byte		N02   , Gs1 , v092
	.byte	W06
	.byte		N03   , Ds2 , v032
	.byte	W06
	.byte		N02   , Gs1 , v092
	.byte	W03
	.byte		        Fs1 , v032
	.byte	W03
	.byte		N03   , Ds2 
	.byte	W06
	.byte		N02   , Gs1 , v092
	.byte	W03
	.byte		        Fs1 , v032
	.byte	W03
	.byte		N03   , Ds2 
	.byte	W06
	.byte		N02   , Gs1 , v092
	.byte	W03
	.byte		        Fs1 , v032
	.byte	W03
	.byte		N03   , Ds2 
	.byte	W06
	.byte		N12   , En2 , v072
	.byte	W12
	.byte		N02   , Gs1 , v092
	.byte	W03
	.byte		        Fs1 , v032
	.byte	W03
	.byte		N03   , Ds2 
	.byte	W06
	.byte		N02   , Gs1 , v092
	.byte	W03
	.byte		        Fs1 , v032
	.byte	W03
	.byte		N03   , Ds2 
	.byte	W06
	.byte		N02   , Gs1 , v092
	.byte	W03
	.byte		        Fs1 , v032
	.byte	W03
	.byte		N03   , Ds2 
	.byte	W06
	.byte		N12   , En2 , v072
	.byte	W12
	.byte		N02   , Gs1 , v092
	.byte	W03
	.byte		        Fs1 , v032
	.byte	W03
	.byte		N03   , Ds2 
	.byte	W06
	.byte		N12   , En2 , v072
	.byte	W12
	.byte		        Ds2 
	.byte	W12
	.byte		N12
	.byte	W11
	.byte		VOL   , 50*seq_022_mvl/mxv
	.byte		PAN   , c_v+0
	.byte	W01
	.byte	PATT
	 .word	seq_022_8 + 0x126
	.byte	PATT
	 .word	seq_022_8 + 0x16F
	.byte	PATT
	 .word	seq_022_8 + 0x126
	.byte	PATT
	 .word	seq_022_8 + 0x16F
	.byte	PATT
	 .word	seq_022_8 + 0x126
	.byte	PATT
	 .word	seq_022_8 + 0x16F
	.byte	PATT
	 .word	seq_022_8 + 0x126
	.byte	PATT
	 .word	seq_022_8 + 0x16F
	.byte	PATT
	 .word	seq_022_8 + 0x126
	.byte	PATT
	 .word	seq_022_8 + 0x16F
	.byte	PATT
	 .word	seq_022_8 + 0x126
	.byte	PATT
	 .word	seq_022_8 + 0x16F
	.byte	PATT
	 .word	seq_022_8 + 0x126
	.byte	PATT
	 .word	seq_022_8 + 0x16F
	.byte		N02   , Gs1 , v092
	.byte	W03
	.byte		        Fs1 , v032
	.byte	W03
	.byte		N03   , Ds2 
	.byte	W06
	.byte		N12   , En2 , v072
	.byte	W12
	.byte		N02   , Gs1 , v092
	.byte	W03
	.byte		        Fs1 , v032
	.byte	W03
	.byte		N03   , Ds2 
	.byte	W06
	.byte		N02   , Gs1 , v092
	.byte	W06
	.byte		N03   , Ds2 , v032
	.byte	W06
	.byte		N02   , Gs1 , v092
	.byte	W03
	.byte		        Fs1 , v032
	.byte	W03
	.byte		N03   , Ds2 
	.byte	W06
	.byte		N12   , Ds2 , v072
	.byte	W12
	.byte		N12
	.byte	W12
	.byte		        En2 
	.byte	W12
	.byte	PEND
	.byte		N02   , Gs1 , v092
	.byte	W03
	.byte		        Fs1 , v032
	.byte	W03
	.byte		N03   , Ds2 
	.byte	W06
	.byte		N12   , En2 , v072
	.byte	W12
	.byte		N02   , Gs1 , v092
	.byte	W03
	.byte		        Fs1 , v032
	.byte	W03
	.byte		N03   , Ds2 
	.byte	W06
	.byte		N12   , En2 , v072
	.byte	W12
	.byte		N02   , Gs1 , v092
	.byte	W03
	.byte		        Fs1 , v032
	.byte	W03
	.byte		N03   , Ds2 
	.byte	W06
	.byte		N12   , En2 , v072
	.byte	W12
	.byte		        Ds2 
	.byte	W12
	.byte		N12
	.byte	W11
	.byte		VOL   , 50*seq_022_mvl/mxv
	.byte		PAN   , c_v+0
	.byte	W01
	.byte	PEND
	.byte	PATT
	 .word	seq_022_8 + 0x126
	.byte	PATT
	 .word	seq_022_8 + 0x16F
	.byte	PATT
	 .word	seq_022_8 + 0x126
	.byte	PATT
	 .word	seq_022_8 + 0x16F
	.byte	PATT
	 .word	seq_022_8 + 0x126
	.byte	PATT
	 .word	seq_022_8 + 0x16F
	.byte	PATT
	 .word	seq_022_8 + 0x126
	.byte	PATT
	 .word	seq_022_8 + 0x16F
	.byte		N08   , Gs1 , v092
	.byte	W09
	.byte		N02   , Fs1 , v032
	.byte	W03
	.byte		N12   , En2 , v072
	.byte	W12
	.byte		N02   , Gs1 , v092
	.byte	W03
	.byte		        Fs1 , v032
	.byte	W03
	.byte		N03   , Ds2 
	.byte	W06
	.byte		N02   , Gs1 , v092
	.byte	W06
	.byte		N03   , Ds2 , v032
	.byte	W06
	.byte		N02   , Gs1 , v092
	.byte	W03
	.byte		        Fs1 , v032
	.byte	W03
	.byte		N03   , Ds2 
	.byte	W06
	.byte		N12   , En2 , v072
	.byte	W12
	.byte		N02   , Gs1 , v092
	.byte	W03
	.byte		        Fs1 , v032
	.byte	W03
	.byte		N03   , Ds2 
	.byte	W06
	.byte		N12   , En2 , v072
	.byte	W12
	.byte	PEND
	.byte		N02   , Gs1 , v092
	.byte	W03
	.byte		        Fs1 , v032
	.byte	W03
	.byte		N03   , Ds2 
	.byte	W06
	.byte		N02   , Gs1 , v092
	.byte	W03
	.byte		        Fs1 , v032
	.byte	W03
	.byte		N03   , Ds2 
	.byte	W06
	.byte		N02   , Gs1 , v092
	.byte	W03
	.byte		        Fs1 , v032
	.byte	W03
	.byte		N03   , Ds2 
	.byte	W06
	.byte		N12   , En2 , v072
	.byte	W12
	.byte		N02   , Gs1 , v092
	.byte	W03
	.byte		        Fs1 , v032
	.byte	W03
	.byte		N03   , Ds2 
	.byte	W06
	.byte		N12   , En2 , v072
	.byte	W12
	.byte		N02   , Gs1 , v092
	.byte	W03
	.byte		        Fs1 , v032
	.byte	W03
	.byte		N03   , Ds2 
	.byte	W06
	.byte		N02   , Gs1 , v092
	.byte	W03
	.byte		        Fs1 , v032
	.byte	W03
	.byte		N03   , Ds2 
	.byte	W05
	.byte		VOL   , 50*seq_022_mvl/mxv
	.byte		PAN   , c_v+0
	.byte	W01
	.byte	PATT
	 .word	seq_022_8 + 0x331
	.byte		N02   , Gs1 , v092
	.byte	W12
	.byte		N12   , En2 , v072
	.byte	W24
	.byte		N12
	.byte	W12
	.byte		N02   , Gs1 , v092
	.byte	W06
	.byte		N03   , Ds2 , v032
	.byte	W06
	.byte		N12   , En2 , v072
	.byte	W12
	.byte		N24   , Ds2 , v080
	.byte	W23
	.byte		VOL   , 50*seq_022_mvl/mxv
	.byte		PAN   , c_v+0
	.byte	W01
	.byte		N12   , En2 , v072
	.byte	W12
	.byte		N02   , Gs1 , v092
	.byte	W03
	.byte		        Fs1 , v032
	.byte	W03
	.byte		N03   , Ds2 
	.byte	W06
	.byte		N02   , Gs1 , v092
	.byte	W03
	.byte		        Fs1 , v032
	.byte	W03
	.byte		N03   , Ds2 
	.byte	W06
	.byte		N02   , Gs1 , v092
	.byte	W06
	.byte		N03   , Ds2 , v032
	.byte	W06
	.byte		N02   , Gs1 , v092
	.byte	W03
	.byte		        Fs1 , v032
	.byte	W03
	.byte		N03   , Ds2 
	.byte	W06
	.byte		N02   , Gs1 , v092
	.byte	W03
	.byte		        Fs1 , v032
	.byte	W03
	.byte		N03   , Ds2 
	.byte	W06
	.byte		N02   , Gs1 , v092
	.byte	W03
	.byte		        Fs1 , v032
	.byte	W03
	.byte		N03   , Ds2 
	.byte	W06
	.byte		N02   , Gs1 , v092
	.byte	W03
	.byte		        Fs1 , v032
	.byte	W03
	.byte		N03   , Ds2 
	.byte	W06
	.byte	PATT
	 .word	seq_022_8 + 0x16F
	.byte	PATT
	 .word	seq_022_8 + 0x126
	.byte	PATT
	 .word	seq_022_8 + 0x16F
	.byte	PATT
	 .word	seq_022_8 + 0x126
	.byte	PATT
	 .word	seq_022_8 + 0x16F
	.byte	PATT
	 .word	seq_022_8 + 0x2A2
	.byte	PATT
	 .word	seq_022_8 + 0x2D5
	.byte	PATT
	 .word	seq_022_8 + 0x126
	.byte	PATT
	 .word	seq_022_8 + 0x16F
	.byte	PATT
	 .word	seq_022_8 + 0x126
	.byte	PATT
	 .word	seq_022_8 + 0x16F
	.byte	PATT
	 .word	seq_022_8 + 0x126
	.byte	PATT
	 .word	seq_022_8 + 0x16F
	.byte	PATT
	 .word	seq_022_8 + 0x331
	.byte		N02   , Gs1 , v092
	.byte	W03
	.byte		        Fs1 , v032
	.byte	W03
	.byte		N03   , Ds2 
	.byte	W06
	.byte		N02   , Gs1 , v092
	.byte	W03
	.byte		        Fs1 , v032
	.byte	W03
	.byte		N03   , Ds2 
	.byte	W06
	.byte		N02   , Gs1 , v092
	.byte	W03
	.byte		        Fs1 , v032
	.byte	W03
	.byte		N03   , Ds2 
	.byte	W06
	.byte		N12   , En2 , v072
	.byte	W12
	.byte		N02   , Gs1 , v092
	.byte	W03
	.byte		        Fs1 , v032
	.byte	W03
	.byte		N03   , Ds2 
	.byte	W06
	.byte		N12   , En2 , v072
	.byte	W12
	.byte		N02   , Gs1 , v092
	.byte	W03
	.byte		        Fs1 , v032
	.byte	W03
	.byte		N03   , Ds2 
	.byte	W06
	.byte		N02   , Gs1 , v092
	.byte	W03
	.byte		        Fs1 , v032
	.byte	W03
	.byte		N03   , Ds2 
	.byte	W06
	.byte	W24
	.byte		PAN   , c_v+0
	.byte	W36
	.byte		N02   , En2 , v012
	.byte	W03
	.byte		N02
	.byte	W03
	.byte		N02
	.byte	W03
	.byte		        En2 , v016
	.byte	W03
	.byte		N02
	.byte	W03
	.byte		N02
	.byte	W03
	.byte		        En2 , v020
	.byte	W03
	.byte		N02
	.byte	W03
	.byte		        En2 , v024
	.byte	W03
	.byte		N02
	.byte	W03
	.byte		N02
	.byte	W03
	.byte		        En2 , v028
	.byte	W03
	.byte	PEND
	.byte		N02   , En2 , v028
	.byte	W03
	.byte		        En2 , v032
	.byte	W03
	.byte		N02
	.byte	W03
	.byte		N02
	.byte	W03
	.byte		        En2 , v036
	.byte	W03
	.byte		N02
	.byte	W03
	.byte		        En2 , v040
	.byte	W03
	.byte		        En2 , v044
	.byte	W03
	.byte		N02
	.byte	W03
	.byte		        En2 , v048
	.byte	W03
	.byte		        En2 , v052
	.byte	W03
	.byte		        En2 , v056
	.byte	W03
	.byte		        En2 , v060
	.byte	W03
	.byte		N02
	.byte	W03
	.byte		        En2 , v064
	.byte	W03
	.byte		        En2 , v076
	.byte	W03
	.byte		        En2 , v084
	.byte	W03
	.byte		        En2 , v088
	.byte	W03
	.byte		        En2 , v096
	.byte	W03
	.byte		        En2 , v100
	.byte	W03
	.byte		N02
	.byte	W03
	.byte		        En2 , v096
	.byte	W03
	.byte		        En2 , v092
	.byte	W03
	.byte		        En2 , v088
	.byte	W03
	.byte		        En2 , v084
	.byte	W03
	.byte		        En2 , v080
	.byte	W03
	.byte		N02
	.byte	W03
	.byte		        En2 , v072
	.byte	W03
	.byte		        En2 , v068
	.byte	W03
	.byte		        En2 , v064
	.byte	W03
	.byte		        En2 , v056
	.byte	W03
	.byte		        En2 , v052
	.byte	W03
	.byte	PEND
	.byte		N02   , En2 , v048
	.byte	W03
	.byte		        En2 , v044
	.byte	W03
	.byte		        En2 , v036
	.byte	W03
	.byte		        En2 , v032
	.byte	W03
	.byte		        En2 , v028
	.byte	W03
	.byte		        En2 , v024
	.byte	W03
	.byte		        En2 , v016
	.byte	W03
	.byte		        En2 , v012
	.byte	W03
	.byte		PAN   , c_v+63
	.byte		N02   , En2 , v008
	.byte	W36
	.byte		        En2 , v012
	.byte	W03
	.byte		N02
	.byte	W03
	.byte		N02
	.byte	W03
	.byte		        En2 , v016
	.byte	W03
	.byte		N02
	.byte	W03
	.byte		N02
	.byte	W03
	.byte		        En2 , v020
	.byte	W03
	.byte		N02
	.byte	W03
	.byte		        En2 , v024
	.byte	W03
	.byte		N02
	.byte	W03
	.byte		N02
	.byte	W03
	.byte		        En2 , v028
	.byte	W03
	.byte	PEND
	.byte	PATT
	 .word	seq_022_8 + 0x4CE
	.byte		N02   , En2 , v048
	.byte	W03
	.byte		        En2 , v044
	.byte	W03
	.byte		        En2 , v036
	.byte	W03
	.byte		        En2 , v032
	.byte	W03
	.byte		        En2 , v028
	.byte	W03
	.byte		        En2 , v024
	.byte	W03
	.byte		        En2 , v016
	.byte	W03
	.byte		        En2 , v012
	.byte	W03
	.byte		PAN   , c_v-63
	.byte		N02   , En2 , v008
	.byte	W36
	.byte		        En2 , v012
	.byte	W03
	.byte		N02
	.byte	W03
	.byte		N02
	.byte	W03
	.byte		        En2 , v016
	.byte	W03
	.byte		N02
	.byte	W03
	.byte		N02
	.byte	W03
	.byte		        En2 , v020
	.byte	W03
	.byte		N02
	.byte	W03
	.byte		        En2 , v024
	.byte	W03
	.byte		N02
	.byte	W03
	.byte		N02
	.byte	W03
	.byte		        En2 , v028
	.byte	W03
	.byte	PEND
	.byte	PATT
	 .word	seq_022_8 + 0x4CE
	.byte		N02   , En2 , v048
	.byte	W03
	.byte		        En2 , v044
	.byte	W03
	.byte		        En2 , v036
	.byte	W03
	.byte		        En2 , v032
	.byte	W03
	.byte		        En2 , v028
	.byte	W03
	.byte		        En2 , v024
	.byte	W03
	.byte		        En2 , v016
	.byte	W03
	.byte		        En2 , v012
	.byte	W03
	.byte		        En2 , v008
	.byte	W24
	.byte		PAN   , c_v+0
	.byte	W48
	.byte	PATT
	 .word	seq_022_8 + 0x2D5
	.byte	PATT
	 .word	seq_022_8 + 0x331
	.byte		N02   , Gs1 , v092
	.byte	W03
	.byte		        Fs1 , v032
	.byte	W03
	.byte		N03   , Ds2 
	.byte	W06
	.byte		N12   , En2 , v072
	.byte	W12
	.byte		N02   , Gs1 , v092
	.byte	W06
	.byte		N03   , Ds2 , v032
	.byte	W06
	.byte		N02   , Gs1 , v092
	.byte	W06
	.byte		N03   , Ds2 , v032
	.byte	W06
	.byte		N02   , Gs1 , v092
	.byte	W03
	.byte		        Fs1 , v032
	.byte	W03
	.byte		N03   , Ds2 
	.byte	W06
	.byte		N12   , En2 , v072
	.byte	W12
	.byte		N02   , Gs1 , v092
	.byte	W03
	.byte		        Fs1 , v032
	.byte	W03
	.byte		N03   , Ds2 
	.byte	W06
	.byte		N06   , En2 , v072
	.byte	W06
	.byte		N03   , Ds2 , v032
	.byte	W05
	.byte		VOL   , 50*seq_022_mvl/mxv
	.byte		PAN   , c_v+0
	.byte	W01
	.byte	PEND
	.byte	PATT
	 .word	seq_022_8 + 0x331
	.byte	PATT
	 .word	seq_022_8 + 0x5D6
	.byte	PATT
	 .word	seq_022_8 + 0x331
	.byte	PATT
	 .word	seq_022_8 + 0x5D6
	.byte	PATT
	 .word	seq_022_8 + 0x331
	.byte	PATT
	 .word	seq_022_8 + 0x5D6
	.byte	PATT
	 .word	seq_022_8 + 0x331
	.byte	PATT
	 .word	seq_022_8 + 0x5D6
	.byte	PATT
	 .word	seq_022_8 + 0x331
	.byte	PATT
	 .word	seq_022_8 + 0x5D6
	.byte	PATT
	 .word	seq_022_8 + 0x331
	.byte	PATT
	 .word	seq_022_8 + 0x5D6
	.byte	PATT
	 .word	seq_022_8 + 0x331
	.byte	PATT
	 .word	seq_022_8 + 0x5D6
	.byte		N08   , Gs1 , v092
	.byte	W09
	.byte		N02   , Fs1 , v032
	.byte	W03
	.byte		        Gs1 , v092
	.byte	W03
	.byte		        Fs1 , v032
	.byte	W03
	.byte		N03   , Ds2 
	.byte	W06
	.byte		N02   , Gs1 , v092
	.byte	W03
	.byte		        Fs1 , v032
	.byte	W03
	.byte		N03   , Ds2 
	.byte	W06
	.byte		N12   , En2 , v072
	.byte	W12
	.byte		N02   , Gs1 , v092
	.byte	W03
	.byte		        Fs1 , v032
	.byte	W03
	.byte		N03   , Ds2 
	.byte	W06
	.byte		N02   , Gs1 , v092
	.byte	W03
	.byte		        Fs1 , v032
	.byte	W03
	.byte		N03   , Ds2 
	.byte	W06
	.byte		N02   , Gs1 , v092
	.byte	W03
	.byte		        Fs1 , v032
	.byte	W03
	.byte		N03   , Ds2 
	.byte	W06
	.byte		N02   , Gs1 , v092
	.byte	W03
	.byte		        Fs1 , v032
	.byte	W03
	.byte		N03   , Ds2 
	.byte	W06
	.byte	PEND
	.byte		N08   , Gs1 , v092
	.byte	W09
	.byte		N02   , Fs1 , v032
	.byte	W03
	.byte		        Gs1 , v092
	.byte	W03
	.byte		        Fs1 , v032
	.byte	W03
	.byte		N03   , Ds2 
	.byte	W06
	.byte		N02   , Gs1 , v092
	.byte	W03
	.byte		        Fs1 , v032
	.byte	W03
	.byte		N03   , Ds2 
	.byte	W06
	.byte		N12   , En2 , v072
	.byte	W12
	.byte		N02   , Gs1 , v092
	.byte	W03
	.byte		        Fs1 , v032
	.byte	W03
	.byte		N03   , Ds2 
	.byte	W06
	.byte		N02   , Gs1 , v092
	.byte	W03
	.byte		        Fs1 , v032
	.byte	W03
	.byte		N03   , Ds2 
	.byte	W06
	.byte		N02   , Gs1 , v092
	.byte	W03
	.byte		        Fs1 , v032
	.byte	W03
	.byte		N03   , Ds2 
	.byte	W06
	.byte		N02   , Gs1 , v092
	.byte	W03
	.byte		        Fs1 , v032
	.byte	W03
	.byte		N03   , Ds2 
	.byte	W05
	.byte		VOL   , 50*seq_022_mvl/mxv
	.byte		PAN   , c_v+0
	.byte	W01
	.byte	PEND
	.byte	PATT
	 .word	seq_022_8 + 0x660
	.byte	PATT
	 .word	seq_022_8 + 0x6A8
	.byte	PATT
	 .word	seq_022_8 + 0x660
	.byte	PATT
	 .word	seq_022_8 + 0x6A8
	.byte	PATT
	 .word	seq_022_8 + 0x660
	.byte	PATT
	 .word	seq_022_8 + 0x660
	.byte	PATT
	 .word	seq_022_8 + 0x4AB
	.byte	PATT
	 .word	seq_022_8 + 0x4CE
	.byte	PATT
	 .word	seq_022_8 + 0x529
	.byte	PATT
	 .word	seq_022_8 + 0x4CE
	.byte	PATT
	 .word	seq_022_8 + 0x56B
	.byte	PATT
	 .word	seq_022_8 + 0x4CE
	.byte		N02   , En2 , v048
	.byte	W03
	.byte		        En2 , v044
	.byte	W03
	.byte		        En2 , v036
	.byte	W03
	.byte		        En2 , v032
	.byte	W03
	.byte		        En2 , v028
	.byte	W03
	.byte		        En2 , v024
	.byte	W03
	.byte		        En2 , v016
	.byte	W03
	.byte		        En2 , v012
	.byte	W03
	.byte		        En2 , v008
	.byte	W23
	.byte		PAN   , c_v+0
	.byte	W01
	.byte		N12   , En2 , v072
	.byte	W12
	.byte		N02   , Gs1 , v092
	.byte	W06
	.byte		N03   , Ds2 , v032
	.byte	W06
	.byte		N02   , Gs1 , v092
	.byte	W03
	.byte		        Fs1 , v032
	.byte	W03
	.byte		N03   , Ds2 
	.byte	W06
	.byte		N02   , Gs1 , v092
	.byte	W03
	.byte		        Fs1 , v032
	.byte	W03
	.byte		N03   , Ds2 
	.byte	W06
	.byte		N02   , Gs1 , v092
	.byte	W12
	.byte		N12   , En2 , v072
	.byte	W12
	.byte		N02   , Gs1 , v092
	.byte	W12
	.byte		N12   , En2 , v072
	.byte	W12
	.byte		N02   , Gs1 , v092
	.byte	W06
	.byte		N03   , Ds2 , v032
	.byte	W06
	.byte		N12   , En2 , v072
	.byte	W12
	.byte		N24   , Ds2 , v080
	.byte	W23
	.byte		VOL   , 50*seq_022_mvl/mxv
	.byte		PAN   , c_v+0
	.byte	W01
	.byte	PATT
	 .word	seq_022_8 + 0x126
	.byte	PATT
	 .word	seq_022_8 + 0x16F
	.byte	PATT
	 .word	seq_022_8 + 0x126
	.byte	PATT
	 .word	seq_022_8 + 0x16F
	.byte	PATT
	 .word	seq_022_8 + 0x126
	.byte	PATT
	 .word	seq_022_8 + 0x16F
	.byte	W72
	.byte		N12   , Ds2 , v072
	.byte	W12
	.byte		        En2 
	.byte	W12
	.byte	PATT
	 .word	seq_022_8 + 0x2D5
	.byte	PATT
	 .word	seq_022_8 + 0x126
	.byte	PATT
	 .word	seq_022_8 + 0x16F
	.byte	PATT
	 .word	seq_022_8 + 0x126
	.byte		N02   , Gs1 , v092
	.byte	W03
	.byte		        Fs1 , v032
	.byte	W03
	.byte		N03   , Ds2 
	.byte	W06
	.byte		N12   , En2 , v072
	.byte	W12
	.byte		N02   , Gs1 , v092
	.byte	W03
	.byte		        Fs1 , v032
	.byte	W03
	.byte		N03   , Ds2 
	.byte	W06
	.byte		N02   , Gs1 , v092
	.byte	W03
	.byte		        Fs1 , v032
	.byte	W03
	.byte		N03   , Ds2 
	.byte	W06
	.byte		N02   , Gs1 , v092
	.byte	W03
	.byte		        Fs1 , v032
	.byte	W03
	.byte		N03   , Ds2 
	.byte	W06
	.byte		N02   , Gs1 , v092
	.byte	W03
	.byte		        Fs1 , v032
	.byte	W03
	.byte		N03   , Ds2 
	.byte	W06
	.byte		N02   , Gs1 , v092
	.byte	W03
	.byte		        Fs1 , v032
	.byte	W03
	.byte		N03   , Ds2 
	.byte	W06
	.byte		N12   , En2 , v072
	.byte	W12
	.byte	GOTO
	 .word	seq_022_8 + 0x270
	.byte	FINE

@*********************** Track 10 ***********************@

seq_022_9:
	.byte	KEYSH , seq_022_key+0
	.byte	W18
	.byte		VOICE , 93
	.byte		VOL   , 85*seq_022_mvl/mxv
	.byte	W01
	.byte		MOD   , 2
	.byte		PAN   , c_v+0
	.byte		BENDR , 12
	.byte	W01
	.byte		MODT  , mod_vib
	.byte	W04
	.byte	W96
	.byte	W96
	.byte	W92
	.byte	W03
	.byte		VOICE , 32
	.byte	W01
	.byte	W96
	.byte		TIE   , Bn2 , v127
	.byte	W96
	.byte	W96
	.byte		EOT
	.byte		TIE
	.byte	W96
	.byte	W96
	.byte		EOT
	.byte		TIE
	.byte	W96
	.byte	W96
	.byte		EOT
	.byte		TIE
	.byte	W96
	.byte	W96
	.byte		EOT
	.byte		TIE
	.byte	W96
	.byte	W96
	.byte		EOT
	.byte		TIE
	.byte	W96
	.byte	W92
	.byte	W03
	.byte		VOICE , 37
	.byte	W01
	.byte		EOT
	.byte		N10   , Bn2 , v127
	.byte	W12
	.byte		N10
	.byte	W12
	.byte		N06   , Bn2 , v072
	.byte	W12
	.byte		        Bn2 , v127
	.byte	W12
	.byte		        Bn2 , v072
	.byte	W12
	.byte		        Bn2 , v127
	.byte	W12
	.byte		        Bn2 , v072
	.byte	W12
	.byte		N12   , An2 , v127
	.byte	W12
	.byte	PEND
	.byte		N06   , An2 , v072
	.byte	W12
	.byte		        An2 , v127
	.byte	W12
	.byte		        An2 , v072
	.byte	W12
	.byte		        An2 , v127
	.byte	W12
	.byte		        An2 , v072
	.byte	W12
	.byte		        An2 , v127
	.byte	W12
	.byte		        An2 , v072
	.byte	W12
	.byte		N12   , Gs2 , v127
	.byte	W12
	.byte	PEND
	.byte		N04   , Gs2 , v072
	.byte	W12
	.byte		N06   , Gs2 , v127
	.byte	W12
	.byte		        Gs2 , v072
	.byte	W12
	.byte		        Gs2 , v127
	.byte	W12
	.byte		        Gs2 , v072
	.byte	W12
	.byte		        Gs2 , v127
	.byte	W12
	.byte		        Gs2 , v072
	.byte	W12
	.byte		N12   , An2 , v127
	.byte	W12
	.byte	PEND
	.byte		N04   , An2 , v127
	.byte	W12
	.byte		N06   , En2 
	.byte	W06
	.byte		        En2 , v072
	.byte	W06
	.byte		N04   , Cs2 , v127
	.byte	W12
	.byte		N06   , An2 
	.byte	W06
	.byte		        An2 , v072
	.byte	W06
	.byte		N04   , En2 , v127
	.byte	W12
	.byte		N06   , Cs3 
	.byte	W06
	.byte		        Cs3 , v072
	.byte	W06
	.byte		N24   , An2 , v127
	.byte	W24
	.byte	PEND
	.byte	PATT
	 .word	seq_022_9 + 0x38
	.byte	PATT
	 .word	seq_022_9 + 0x53
	.byte	PATT
	 .word	seq_022_9 + 0x6E
	.byte	PATT
	 .word	seq_022_9 + 0x8A
	.byte		N10   , Bn2 , v127
	.byte	W12
	.byte		N06
	.byte	W12
	.byte		        Bn2 , v072
	.byte	W12
	.byte		        Bn2 , v127
	.byte	W12
	.byte		        Bn2 , v072
	.byte	W12
	.byte		        Bn2 , v127
	.byte	W12
	.byte		        Bn2 , v072
	.byte	W12
	.byte		N10   , En2 , v127
	.byte	W12
	.byte	PEND
	.byte		N06   , En2 , v072
	.byte	W12
	.byte		        En3 , v127
	.byte	W12
	.byte		        En2 , v072
	.byte	W12
	.byte		        Bn2 , v127
	.byte	W12
	.byte		        Bn1 , v072
	.byte	W12
	.byte		        En2 , v127
	.byte	W12
	.byte		N04   , Bn1 
	.byte	W12
	.byte		N06   , Dn2 
	.byte	W06
	.byte		        Dn2 , v072
	.byte	W06
	.byte	PEND
	.byte		N04   , Dn2 , v127
	.byte	W12
	.byte		N06   , Dn3 
	.byte	W12
	.byte		        Dn3 , v072
	.byte	W12
	.byte		        Dn3 , v127
	.byte	W12
	.byte		        Dn2 , v072
	.byte	W12
	.byte		        Dn3 , v127
	.byte	W12
	.byte		N04   , Dn2 , v072
	.byte	W12
	.byte		N06   , En2 , v127
	.byte	W06
	.byte		        En2 , v072
	.byte	W06
	.byte	PEND
	.byte		N04   , En2 , v127
	.byte	W12
	.byte		N06   , Cs2 
	.byte	W06
	.byte		        Cs2 , v072
	.byte	W06
	.byte		N04   , Cs2 , v127
	.byte	W12
	.byte		N06   , En2 
	.byte	W06
	.byte		        En2 , v072
	.byte	W06
	.byte		N04   , En2 , v127
	.byte	W12
	.byte		N06   , Cs3 
	.byte	W06
	.byte		        Cs3 , v072
	.byte	W06
	.byte		N24   , An2 , v127
	.byte	W24
	.byte	PEND
	.byte		N10   , Bn2 , v127
	.byte	W12
	.byte		N06
	.byte	W12
	.byte		        Bn2 , v072
	.byte	W12
	.byte		        Bn2 , v127
	.byte	W12
	.byte		        Bn2 , v072
	.byte	W12
	.byte		        Bn2 , v127
	.byte	W12
	.byte		        Bn2 , v072
	.byte	W12
	.byte		        En2 , v127
	.byte	W06
	.byte		        En2 , v072
	.byte	W06
	.byte	PEND
	.byte		N04   , En2 , v127
	.byte	W12
	.byte		N06   , En3 
	.byte	W06
	.byte		        En3 , v072
	.byte	W06
	.byte		N04   , En2 , v127
	.byte	W12
	.byte		N06   , Bn2 
	.byte	W06
	.byte		        Bn2 , v072
	.byte	W06
	.byte		N04   , En2 , v127
	.byte	W12
	.byte		N06
	.byte	W06
	.byte		        En2 , v072
	.byte	W06
	.byte		N04   , Bn1 , v127
	.byte	W12
	.byte		N06   , Dn2 
	.byte	W06
	.byte		        Dn2 , v072
	.byte	W06
	.byte	PEND
	.byte		N04   , Dn2 , v127
	.byte	W12
	.byte		N06   , Dn3 
	.byte	W12
	.byte		        Dn3 , v072
	.byte	W12
	.byte		        Dn3 , v127
	.byte	W12
	.byte		        Dn2 , v072
	.byte	W12
	.byte		        Dn3 , v127
	.byte	W12
	.byte		N04   , Dn2 , v072
	.byte	W12
	.byte		N12   , En3 , v127
	.byte	W12
	.byte	PEND
	.byte		N01   , Fs2 , v072
	.byte	W12
	.byte		N12   , Cs3 , v127
	.byte	W12
	.byte		N01   , Fs2 , v072
	.byte	W12
	.byte		N12   , Dn3 , v127
	.byte	W12
	.byte		N01   , Fs2 , v072
	.byte	W12
	.byte		N12   , An2 , v127
	.byte	W12
	.byte		N06   , Fs2 
	.byte	W06
	.byte		        Fs2 , v092
	.byte	W06
	.byte		N12   , An2 , v127
	.byte	W12
	.byte	PEND
	.byte	PATT
	 .word	seq_022_9 + 0x38
	.byte	PATT
	 .word	seq_022_9 + 0x53
	.byte	PATT
	 .word	seq_022_9 + 0x6E
	.byte	PATT
	 .word	seq_022_9 + 0x8A
	.byte	PATT
	 .word	seq_022_9 + 0x38
	.byte	PATT
	 .word	seq_022_9 + 0x53
	.byte	PATT
	 .word	seq_022_9 + 0x6E
	.byte	PATT
	 .word	seq_022_9 + 0x8A
	.byte		N12   , Bn2 , v127
	.byte	W11
	.byte		BEND  , c_v-11
	.byte	W02
	.byte		        c_v-8
	.byte	W01
	.byte		        c_v-6
	.byte	W01
	.byte		        c_v+0
	.byte	W09
	.byte		N12
	.byte	W12
	.byte		N03
	.byte	W03
	.byte		N01   , Bn2 , v032
	.byte	W09
	.byte		N03   , Fs2 , v127
	.byte	W03
	.byte		N01   , Fs2 , v032
	.byte	W09
	.byte		N12   , Bn2 , v127
	.byte	W12
	.byte		N03   , Fs2 
	.byte	W03
	.byte		N01   , Fs2 , v032
	.byte	W08
	.byte		BEND  , c_v-11
	.byte	W01
	.byte		N12   , Bn2 , v127
	.byte	W01
	.byte		BEND  , c_v-8
	.byte	W01
	.byte		        c_v-6
	.byte	W01
	.byte		        c_v+0
	.byte	W09
	.byte		N03
	.byte	W03
	.byte		N01   , Bn2 , v032
	.byte	W09
	.byte		N12   , Fs2 , v127
	.byte	W12
	.byte		N03
	.byte	W03
	.byte		N01   , Fs2 , v032
	.byte	W09
	.byte		N12   , Cs3 , v127
	.byte	W12
	.byte		N03   , En2 
	.byte	W03
	.byte		N01   , En2 , v032
	.byte	W09
	.byte		N12   , Fs2 , v127
	.byte	W12
	.byte		N24   , An2 
	.byte	W11
	.byte		BEND  , c_v-11
	.byte	W02
	.byte		        c_v-8
	.byte	W01
	.byte		        c_v-6
	.byte	W01
	.byte		        c_v+0
	.byte	W09
	.byte		N12   , Bn2 
	.byte	W24
	.byte		N12
	.byte	W12
	.byte		N03
	.byte	W03
	.byte		N01   , Bn2 , v032
	.byte	W09
	.byte		N03   , Fs2 , v127
	.byte	W03
	.byte		N01   , Fs2 , v032
	.byte	W08
	.byte		BEND  , c_v-11
	.byte	W01
	.byte		N12   , Bn2 , v127
	.byte	W01
	.byte		BEND  , c_v-8
	.byte	W01
	.byte		        c_v-6
	.byte	W01
	.byte		        c_v+0
	.byte	W09
	.byte		N03   , Fs2 
	.byte	W03
	.byte		N01   , Fs2 , v032
	.byte	W08
	.byte		BEND  , c_v-11
	.byte	W01
	.byte		N12   , Bn2 , v127
	.byte	W01
	.byte		BEND  , c_v-8
	.byte	W01
	.byte		        c_v-6
	.byte	W01
	.byte		        c_v+0
	.byte	W09
	.byte	W32
	.byte	W03
	.byte		        c_v-11
	.byte	W02
	.byte		        c_v-8
	.byte	W01
	.byte		        c_v-6
	.byte	W01
	.byte		        c_v+0
	.byte	W20
	.byte		        c_v-11
	.byte	W02
	.byte		        c_v-8
	.byte	W01
	.byte		        c_v-6
	.byte	W01
	.byte		        c_v+0
	.byte	W32
	.byte	W01
	.byte	PATT
	 .word	seq_022_9 + 0xC1
	.byte	PATT
	 .word	seq_022_9 + 0xDB
	.byte	PATT
	 .word	seq_022_9 + 0xF8
	.byte	PATT
	 .word	seq_022_9 + 0x117
	.byte	PATT
	 .word	seq_022_9 + 0x13A
	.byte	PATT
	 .word	seq_022_9 + 0x156
	.byte	PATT
	 .word	seq_022_9 + 0x17E
	.byte	PATT
	 .word	seq_022_9 + 0x19A
	.byte	PATT
	 .word	seq_022_9 + 0x38
	.byte	PATT
	 .word	seq_022_9 + 0x53
	.byte	PATT
	 .word	seq_022_9 + 0x6E
	.byte	PATT
	 .word	seq_022_9 + 0x8A
	.byte	PATT
	 .word	seq_022_9 + 0x38
	.byte	PATT
	 .word	seq_022_9 + 0x53
	.byte	PATT
	 .word	seq_022_9 + 0x6E
	.byte		N04   , An2 , v127
	.byte	W12
	.byte		N06
	.byte	W06
	.byte		        An2 , v072
	.byte	W06
	.byte		N04   , Cs2 , v127
	.byte	W12
	.byte		N24   , An2 
	.byte	W24
	.byte		N04   , Cs2 
	.byte	W12
	.byte		N24   , An2 
	.byte	W23
	.byte		VOICE , 91
	.byte	W01
	.byte		TIE   , Dn2 
	.byte	W96
	.byte	W96
	.byte		EOT
	.byte		TIE   , En2 
	.byte	W96
	.byte	W96
	.byte		EOT
	.byte		TIE   , Dn2 
	.byte	W96
	.byte	W96
	.byte		EOT
	.byte		TIE   , En2 
	.byte	W96
	.byte	W96
	.byte		EOT
	.byte		TIE   , Dn2 
	.byte	W96
	.byte	W96
	.byte		EOT
	.byte		TIE   , En2 
	.byte	W96
	.byte	W96
	.byte		EOT
	.byte		TIE   , Dn2 
	.byte	W96
	.byte	W96
	.byte		EOT
	.byte		TIE   , En2 
	.byte	W96
	.byte	W96
	.byte		EOT
	.byte		TIE   , Dn2 
	.byte	W96
	.byte	W96
	.byte		EOT
	.byte		TIE   , En2 
	.byte	W96
	.byte	W96
	.byte		EOT
	.byte		TIE   , Dn2 
	.byte	W96
	.byte	W96
	.byte		EOT
	.byte		TIE   , En2 
	.byte	W96
	.byte	W96
	.byte		EOT
	.byte		TIE   , Dn2 
	.byte	W96
	.byte	W96
	.byte		EOT
	.byte		TIE   , En2 
	.byte	W96
	.byte	W96
	.byte		EOT
	.byte		TIE   , Dn2 
	.byte	W96
	.byte	W96
	.byte		EOT
	.byte		N96   , En2 
	.byte	W96
	.byte		N48
	.byte	W48
	.byte		        Cs2 
	.byte	W48
	.byte		TIE   , Bn1 
	.byte	W96
	.byte	W96
	.byte		EOT
	.byte		TIE   , Cs2 
	.byte	W96
	.byte	W96
	.byte		EOT
	.byte		TIE   , Dn2 
	.byte	W96
	.byte	W96
	.byte		EOT
	.byte		N96   , En2 
	.byte	W96
	.byte		N48
	.byte	W48
	.byte		        Cs2 
	.byte	W44
	.byte	W03
	.byte		VOICE , 37
	.byte		VOL   , 85*seq_022_mvl/mxv
	.byte	W01
	.byte		N10   , Dn2 , v127
	.byte	W12
	.byte		N06   , Dn3 
	.byte	W12
	.byte		        Dn3 , v072
	.byte	W12
	.byte		        Dn3 , v127
	.byte	W12
	.byte		        Dn3 , v072
	.byte	W12
	.byte		        Dn3 , v127
	.byte	W12
	.byte		        Dn3 , v072
	.byte	W12
	.byte		        Dn3 , v127
	.byte	W12
	.byte	PEND
	.byte		N06   , Dn3 , v072
	.byte	W12
	.byte		        Dn3 , v127
	.byte	W12
	.byte		        Dn3 , v072
	.byte	W12
	.byte		        Dn3 , v127
	.byte	W12
	.byte		        Dn3 , v072
	.byte	W12
	.byte		        Dn3 , v127
	.byte	W12
	.byte		        Dn3 , v072
	.byte	W12
	.byte		N10   , Dn3 , v127
	.byte	W12
	.byte	PEND
	.byte	PATT
	 .word	seq_022_9 + 0x361
	.byte	PATT
	 .word	seq_022_9 + 0x37B
	.byte	PATT
	 .word	seq_022_9 + 0x361
	.byte	PATT
	 .word	seq_022_9 + 0x37B
	.byte		N10   , Dn2 , v127
	.byte	W12
	.byte		N06   , Dn3 
	.byte	W12
	.byte		        Dn3 , v072
	.byte	W12
	.byte		        Dn3 , v127
	.byte	W12
	.byte		        Dn3 , v072
	.byte	W12
	.byte		        Dn3 , v127
	.byte	W12
	.byte		        Dn3 , v072
	.byte	W12
	.byte		        En2 , v127
	.byte	W06
	.byte		        En2 , v072
	.byte	W06
	.byte		N04   , En2 , v127
	.byte	W12
	.byte		N06   , Cs2 
	.byte	W06
	.byte		        Cs2 , v072
	.byte	W06
	.byte		N04   , Cs2 , v127
	.byte	W12
	.byte		N06   , Dn2 
	.byte	W06
	.byte		        Dn2 , v072
	.byte	W06
	.byte		N04   , Dn2 , v127
	.byte	W12
	.byte		N06   , An1 
	.byte	W06
	.byte		        An1 , v072
	.byte	W06
	.byte		        An2 , v127
	.byte	W06
	.byte		        An2 , v072
	.byte	W06
	.byte		N12   , An2 , v127
	.byte	W12
	.byte	PATT
	 .word	seq_022_9 + 0x38
	.byte	PATT
	 .word	seq_022_9 + 0x53
	.byte	PATT
	 .word	seq_022_9 + 0x6E
	.byte	PATT
	 .word	seq_022_9 + 0x8A
	.byte	GOTO
	 .word	seq_022_9 + 0xAD
	.byte	FINE

@*********************** Track 11 ***********************@

seq_022_10:
	.byte	KEYSH , seq_022_key+0
	.byte	W20
	.byte		VOL   , 85*seq_022_mvl/mxv
	.byte		PAN   , c_v+0
	.byte	W01
	.byte		VOICE , 127
	.byte	W03
	.byte	W96
	.byte	W96
	.byte	W96
	.byte	W96
	.byte	W96
	.byte	W96
	.byte	W96
	.byte	W96
	.byte	W96
	.byte	W96
	.byte	W96
	.byte	W96
	.byte		N03   , Cn1 , v120
	.byte	W24
	.byte		        Dn1 
	.byte	W12
	.byte		        Cn1 
	.byte	W24
	.byte		N03
	.byte	W12
	.byte		        Dn1 
	.byte	W12
	.byte		        Cn1 
	.byte	W12
	.byte	PEND
	.byte	W12
	.byte		N03
	.byte	W12
	.byte		        Dn1 
	.byte	W12
	.byte		        Cn1 
	.byte	W24
	.byte		N03
	.byte	W12
	.byte		        Dn1 
	.byte	W24
	.byte	PATT
	 .word	seq_022_10 + 0x17
	.byte	W12
	.byte		N03   , Cn1 , v120
	.byte	W12
	.byte		        Dn1 
	.byte	W12
	.byte		        Cn1 
	.byte	W24
	.byte		N03
	.byte	W12
	.byte		        Dn1 
	.byte	W12
	.byte		N03
	.byte	W12
	.byte		N03   , Cn1 , v120
	.byte	W06
	.byte		        Ds3 , v080
	.byte	W06
	.byte		N06   , Fs2 , v120
	.byte	W06
	.byte		N03   , En3 , v080
	.byte	W06
	.byte		        Dn1 , v120
	.byte	W06
	.byte		        Dn3 
	.byte	W06
	.byte		        Cn1 
	.byte	W06
	.byte		        Ds3 , v072
	.byte	W12
	.byte		        Dn3 , v120
	.byte	W06
	.byte		        Cn1 
	.byte	W06
	.byte		        En3 , v080
	.byte	W06
	.byte		        Dn1 , v120
	.byte	W06
	.byte		        Ds3 , v072
	.byte	W06
	.byte		        Cn1 , v120
	.byte	W06
	.byte		        Dn3 
	.byte	W06
	.byte	PEND
	.byte	W06
	.byte		N03   , Ds3 , v080
	.byte	W06
	.byte		        Cn1 , v120
	.byte	W06
	.byte		        En3 , v080
	.byte	W06
	.byte		        Dn1 , v120
	.byte	W06
	.byte		        Dn3 
	.byte	W06
	.byte		        Cn1 
	.byte	W06
	.byte		        Ds3 , v072
	.byte	W12
	.byte		        Dn3 , v120
	.byte	W06
	.byte		        Cn1 
	.byte	W06
	.byte		        En3 , v080
	.byte	W06
	.byte		        Dn1 , v120
	.byte	W06
	.byte		        Ds3 , v072
	.byte	W06
	.byte		N06   , Gs4 , v080
	.byte	W06
	.byte		N03   , Dn3 , v120
	.byte	W06
	.byte	PEND
	.byte		N03   , Cn1 , v120
	.byte	W06
	.byte		        Ds3 , v080
	.byte	W06
	.byte		N06   , An4 , v072
	.byte	W06
	.byte		N03   , En3 , v080
	.byte	W06
	.byte		        Dn1 , v120
	.byte	W06
	.byte		        Dn3 
	.byte	W06
	.byte		        Cn1 
	.byte	W06
	.byte		        Ds3 , v072
	.byte	W12
	.byte		        Dn3 , v120
	.byte	W06
	.byte		        Cn1 
	.byte	W06
	.byte		        En3 , v080
	.byte	W06
	.byte		        Dn1 , v120
	.byte	W06
	.byte		        Ds3 , v072
	.byte	W06
	.byte		        Cn1 , v120
	.byte	W06
	.byte		        Dn3 
	.byte	W06
	.byte	PEND
	.byte	W06
	.byte		N03   , Ds3 , v080
	.byte	W06
	.byte		        Cn1 , v120
	.byte	W06
	.byte		        En3 , v080
	.byte	W06
	.byte		        Dn1 , v120
	.byte	W06
	.byte		        Dn3 
	.byte	W06
	.byte		        Cn1 
	.byte	W06
	.byte		        Ds3 , v072
	.byte	W12
	.byte		        Dn3 , v120
	.byte	W06
	.byte		        Cn1 
	.byte	W06
	.byte		        En3 , v080
	.byte	W06
	.byte		        Dn1 , v120
	.byte	W06
	.byte		        Ds3 , v072
	.byte	W06
	.byte		N06   , Fn3 , v120
	.byte	W06
	.byte		N03   , Dn3 
	.byte	W06
	.byte	PEND
	.byte	PATT
	 .word	seq_022_10 + 0x45
	.byte	PATT
	 .word	seq_022_10 + 0x72
	.byte	PATT
	 .word	seq_022_10 + 0x9E
	.byte	PATT
	 .word	seq_022_10 + 0xCB
	.byte	PATT
	 .word	seq_022_10 + 0x45
	.byte	PATT
	 .word	seq_022_10 + 0x72
	.byte	PATT
	 .word	seq_022_10 + 0x9E
	.byte	PATT
	 .word	seq_022_10 + 0xCB
	.byte	PATT
	 .word	seq_022_10 + 0x45
	.byte	PATT
	 .word	seq_022_10 + 0x72
	.byte		N03   , Cn1 , v120
	.byte	W06
	.byte		        Ds3 , v080
	.byte	W06
	.byte		N06   , An4 , v072
	.byte	W06
	.byte		N03   , En3 , v080
	.byte	W06
	.byte		        Dn1 , v120
	.byte	W06
	.byte		        Dn3 
	.byte	W06
	.byte		        Cn1 
	.byte	W06
	.byte		        Ds3 , v072
	.byte	W06
	.byte		        Cn1 , v120
	.byte	W06
	.byte		        Dn3 
	.byte	W06
	.byte		        Dn1 
	.byte	W06
	.byte		        En3 , v080
	.byte	W06
	.byte		        Dn1 , v120
	.byte	W06
	.byte		        Ds3 , v072
	.byte	W06
	.byte		        An4 , v080
	.byte	W12
	.byte	PEND
	.byte		N03   , Cn1 , v120
	.byte	W06
	.byte		        Gs4 , v012
	.byte	W06
	.byte		        An4 , v080
	.byte	W12
	.byte		        Cn1 , v120
	.byte	W12
	.byte		        An4 , v080
	.byte	W12
	.byte		        Cn1 , v120
	.byte	W09
	.byte		        Dn1 , v016
	.byte	W03
	.byte		        Dn1 , v120
	.byte	W09
	.byte		        Dn1 , v016
	.byte	W03
	.byte		        Dn1 , v120
	.byte	W06
	.byte		        Dn1 , v052
	.byte	W06
	.byte		        Dn1 , v120
	.byte	W12
	.byte	PEND
	.byte	PATT
	 .word	seq_022_10 + 0x45
	.byte	PATT
	 .word	seq_022_10 + 0x72
	.byte	PATT
	 .word	seq_022_10 + 0x9E
	.byte	PATT
	 .word	seq_022_10 + 0xCB
	.byte	PATT
	 .word	seq_022_10 + 0x45
	.byte	PATT
	 .word	seq_022_10 + 0x72
	.byte	PATT
	 .word	seq_022_10 + 0x9E
	.byte	PATT
	 .word	seq_022_10 + 0xCB
	.byte	PATT
	 .word	seq_022_10 + 0x45
	.byte	PATT
	 .word	seq_022_10 + 0x72
	.byte		N03   , Cn1 , v120
	.byte	W06
	.byte		        Ds3 , v080
	.byte	W06
	.byte		N06   , An4 , v092
	.byte	W06
	.byte		N03   , En3 , v080
	.byte	W06
	.byte		        Dn1 , v120
	.byte	W06
	.byte		        Dn3 
	.byte	W06
	.byte		N06   , Gs4 , v092
	.byte	W06
	.byte		N03   , Ds3 , v072
	.byte	W06
	.byte		        Cn1 , v120
	.byte	W06
	.byte		        Dn3 
	.byte	W06
	.byte		        Dn1 
	.byte	W06
	.byte		        En3 , v080
	.byte	W12
	.byte		        Ds3 , v072
	.byte	W06
	.byte		        Dn1 , v120
	.byte	W06
	.byte		        Dn3 
	.byte	W06
	.byte	W12
	.byte		        Dn1 
	.byte	W24
	.byte		N03
	.byte	W12
	.byte		        Gs4 , v080
	.byte	W12
	.byte		        An4 
	.byte	W12
	.byte		        Gs4 , v020
	.byte	W24
	.byte	PATT
	 .word	seq_022_10 + 0x45
	.byte	PATT
	 .word	seq_022_10 + 0x72
	.byte	PATT
	 .word	seq_022_10 + 0x9E
	.byte	PATT
	 .word	seq_022_10 + 0xCB
	.byte	PATT
	 .word	seq_022_10 + 0x45
	.byte	PATT
	 .word	seq_022_10 + 0x72
	.byte	PATT
	 .word	seq_022_10 + 0x128
	.byte	PATT
	 .word	seq_022_10 + 0x155
	.byte	PATT
	 .word	seq_022_10 + 0x45
	.byte	PATT
	 .word	seq_022_10 + 0x72
	.byte	PATT
	 .word	seq_022_10 + 0x9E
	.byte	PATT
	 .word	seq_022_10 + 0xCB
	.byte	PATT
	 .word	seq_022_10 + 0x45
	.byte	PATT
	 .word	seq_022_10 + 0x72
	.byte		N03   , Cn1 , v120
	.byte	W06
	.byte		        Ds3 , v080
	.byte	W06
	.byte		N06   , An4 , v072
	.byte	W06
	.byte		N03   , En3 , v080
	.byte	W06
	.byte		        Dn1 , v120
	.byte	W06
	.byte		        Dn3 
	.byte	W06
	.byte		        Cn1 
	.byte	W06
	.byte		        Ds3 , v072
	.byte	W12
	.byte		        Dn3 , v120
	.byte	W06
	.byte		        Cn1 
	.byte	W06
	.byte		        En3 , v080
	.byte	W06
	.byte		        Dn1 , v120
	.byte	W06
	.byte		        Ds3 , v072
	.byte	W06
	.byte		        Cn1 , v120
	.byte	W12
	.byte	W09
	.byte		        Dn1 , v016
	.byte	W03
	.byte		        Dn1 , v120
	.byte	W24
	.byte		N03
	.byte	W18
	.byte		        Gs4 , v012
	.byte	W06
	.byte		        Dn1 , v120
	.byte	W06
	.byte		        Gs4 , v012
	.byte	W06
	.byte		        An4 , v080
	.byte	W06
	.byte		        Fs2 , v008
	.byte	W03
	.byte		        Fs2 , v012
	.byte	W03
	.byte		N03
	.byte	W03
	.byte		        Fs2 , v028
	.byte	W03
	.byte		        Fs2 , v044
	.byte	W03
	.byte		        Fs2 , v072
	.byte	W03
	.byte		N06   , Fs2 , v088
	.byte	W96
	.byte	W96
	.byte	W96
	.byte	W96
	.byte	W96
	.byte	W96
	.byte	W96
	.byte		N03   , Cn1 , v120
	.byte	W06
	.byte		        Gs4 , v012
	.byte	W06
	.byte		        An4 , v080
	.byte	W06
	.byte		        Gs4 , v012
	.byte	W06
	.byte		        Cn1 , v120
	.byte	W12
	.byte		        An4 , v080
	.byte	W12
	.byte		        Cn1 , v120
	.byte	W12
	.byte		        Dn1 
	.byte	W06
	.byte		        Dn1 , v032
	.byte	W06
	.byte		        Dn1 , v120
	.byte	W12
	.byte		N03
	.byte	W06
	.byte		        Dn1 , v040
	.byte	W06
	.byte		N03   , Cn1 , v120
	.byte	W06
	.byte		        Ds3 , v080
	.byte	W06
	.byte		N06   , An4 , v092
	.byte	W06
	.byte		N03   , En3 , v080
	.byte	W06
	.byte		        Dn1 , v120
	.byte	W06
	.byte		        Dn3 
	.byte	W06
	.byte		        Cn1 
	.byte	W06
	.byte		        Ds3 , v072
	.byte	W12
	.byte		        Dn3 , v120
	.byte	W06
	.byte		        Cn1 
	.byte	W06
	.byte		        En3 , v080
	.byte	W06
	.byte		        Dn1 , v120
	.byte	W06
	.byte		        Ds3 , v072
	.byte	W06
	.byte		        Cn1 , v092
	.byte	W06
	.byte		        Dn3 , v120
	.byte	W06
	.byte	PEND
	.byte	PATT
	 .word	seq_022_10 + 0x2AB
	.byte	PATT
	 .word	seq_022_10 + 0x2AB
	.byte	PATT
	 .word	seq_022_10 + 0x2AB
	.byte	PATT
	 .word	seq_022_10 + 0x2AB
	.byte	PATT
	 .word	seq_022_10 + 0x2AB
	.byte	PATT
	 .word	seq_022_10 + 0x2AB
	.byte	PATT
	 .word	seq_022_10 + 0x2AB
	.byte	PATT
	 .word	seq_022_10 + 0x2AB
	.byte	PATT
	 .word	seq_022_10 + 0x2AB
	.byte	PATT
	 .word	seq_022_10 + 0x2AB
	.byte	PATT
	 .word	seq_022_10 + 0x2AB
	.byte	PATT
	 .word	seq_022_10 + 0x2AB
	.byte	PATT
	 .word	seq_022_10 + 0x2AB
	.byte	PATT
	 .word	seq_022_10 + 0x2AB
	.byte	PATT
	 .word	seq_022_10 + 0x2AB
	.byte	W96
	.byte	W96
	.byte	W96
	.byte	W96
	.byte	W96
	.byte	W96
	.byte	W96
	.byte	W96
	.byte	W96
	.byte	W96
	.byte	W96
	.byte	W96
	.byte	W96
	.byte	W96
	.byte	W96
	.byte	W96
	.byte	PATT
	 .word	seq_022_10 + 0x45
	.byte	PATT
	 .word	seq_022_10 + 0x72
	.byte	PATT
	 .word	seq_022_10 + 0x9E
	.byte	PATT
	 .word	seq_022_10 + 0xCB
	.byte	PATT
	 .word	seq_022_10 + 0x45
	.byte	PATT
	 .word	seq_022_10 + 0x72
	.byte	W12
	.byte		N06   , An4 , v072
	.byte	W72
	.byte		N03   , An4 , v080
	.byte	W12
	.byte	PATT
	 .word	seq_022_10 + 0x155
	.byte	PATT
	 .word	seq_022_10 + 0x45
	.byte	PATT
	 .word	seq_022_10 + 0x72
	.byte	PATT
	 .word	seq_022_10 + 0x9E
	.byte	PATT
	 .word	seq_022_10 + 0xCB
	.byte	GOTO
	 .word	seq_022_10 + 0xF6
	.byte	FINE

@******************************************************@

	.align	2

seq_022:
	.byte	11	@ NumTrks
	.byte	0	@ NumBlks
	.byte	seq_022_pri	@ Priority
	.byte	seq_022_rev	@ Reverb

	.word	seq_022_grp

	.word	seq_022_0
	.word	seq_022_1
	.word	seq_022_2
	.word	seq_022_3
	.word	seq_022_4
	.word	seq_022_5
	.word	seq_022_6
	.word	seq_022_7
	.word	seq_022_8
	.word	seq_022_9
	.word	seq_022_10

	.end
