@ File generated by m4a2s Song-Module
	.include "MPlayDef.s"

	.equ	seq_018_grp, bank_000
	.equ	seq_018_pri, 50
	.equ	seq_018_rev, 198
	.equ	seq_018_mvl, 127
	.equ	seq_018_key, 0

	.section .rodata
	.global	seq_018
	.align	2

@*********************** Track 01 ***********************@

seq_018_0:
	.byte	KEYSH , seq_018_key+0
	.byte	TEMPO , 100/2
	.byte		VOICE , 93
	.byte		VOL   , 90*seq_018_mvl/mxv
	.byte		PAN   , c_v+0
	.byte	W01
	.byte		BENDR , 12
	.byte	W17
	.byte	W23
	.byte		VOICE , 41
	.byte	W01
	.byte		N04   , An1 , v127
	.byte	W05
	.byte		VOICE , 26
	.byte	W01
	.byte		N03   , En3 , v080
	.byte	W03
	.byte		        En3 , v012
	.byte	W02
	.byte		VOICE , 41
	.byte	W01
	.byte		N04   , En1 , v127
	.byte	W05
	.byte		VOICE , 26
	.byte	W01
	.byte		N03   , An3 , v080
	.byte	W03
	.byte		        An3 , v012
	.byte	W02
	.byte		VOICE , 41
	.byte	W01
	.byte		N04   , An1 , v127
	.byte	W05
	.byte		VOICE , 26
	.byte	W01
	.byte		N03   , En3 , v080
	.byte	W03
	.byte		        En3 , v012
	.byte	W02
	.byte		VOICE , 41
	.byte	W01
	.byte		N04   , En1 , v127
	.byte	W05
	.byte		VOICE , 26
	.byte	W01
	.byte		N03   , An3 , v080
	.byte	W03
	.byte		        An3 , v012
	.byte	W02
	.byte		VOICE , 41
	.byte	W01
	.byte		N04   , An1 , v127
	.byte	W05
	.byte		VOICE , 26
	.byte	W01
	.byte		N03   , En3 , v080
	.byte	W03
	.byte		        En3 , v012
	.byte	W02
	.byte		VOICE , 41
	.byte	W01
	.byte		N04   , En1 , v127
	.byte	W05
	.byte		VOICE , 26
	.byte	W01
	.byte		N03   , An3 , v080
	.byte	W03
	.byte		        An3 , v012
	.byte	W02
	.byte		VOICE , 41
	.byte	W01
	.byte		N04   , An1 , v127
	.byte	W05
	.byte		VOICE , 26
	.byte	W01
	.byte		N03   , En3 , v080
	.byte	W03
	.byte		        En3 , v012
	.byte	W02
	.byte		VOICE , 41
	.byte	W01
	.byte		N04   , En1 , v127
	.byte	W05
	.byte		VOICE , 26
	.byte	W01
	.byte		N03   , An3 , v080
	.byte	W03
	.byte		        An3 , v012
	.byte	W02
	.byte		VOICE , 41
	.byte	W01
	.byte	PEND
	.byte		N04   , Dn2 , v127
	.byte	W05
	.byte		VOICE , 26
	.byte	W01
	.byte		N03   , Dn3 , v080
	.byte	W03
	.byte		        Dn3 , v012
	.byte	W02
	.byte		VOICE , 41
	.byte	W01
	.byte		N04   , An1 , v127
	.byte	W05
	.byte		VOICE , 26
	.byte	W01
	.byte		N03   , An3 , v080
	.byte	W03
	.byte		        An3 , v012
	.byte	W02
	.byte		VOICE , 41
	.byte	W01
	.byte		N04   , Dn2 , v127
	.byte	W05
	.byte		VOICE , 26
	.byte	W01
	.byte		N03   , Dn3 , v080
	.byte	W03
	.byte		        Dn3 , v012
	.byte	W02
	.byte		VOICE , 41
	.byte	W01
	.byte		N04   , An1 , v127
	.byte	W05
	.byte		VOICE , 26
	.byte	W01
	.byte		N03   , An3 , v080
	.byte	W03
	.byte		        An3 , v012
	.byte	W02
	.byte		VOICE , 41
	.byte	W01
	.byte		N04   , Dn2 , v127
	.byte	W05
	.byte		VOICE , 26
	.byte	W01
	.byte		N03   , Dn3 , v080
	.byte	W03
	.byte		        Dn3 , v012
	.byte	W02
	.byte		VOICE , 41
	.byte	W01
	.byte		N04   , An1 , v127
	.byte	W05
	.byte		VOICE , 26
	.byte	W01
	.byte		N03   , An3 , v080
	.byte	W03
	.byte		        An3 , v012
	.byte	W02
	.byte		VOICE , 41
	.byte	W01
	.byte		N04   , Dn2 , v127
	.byte	W05
	.byte		VOICE , 26
	.byte	W01
	.byte		N03   , Dn3 , v080
	.byte	W03
	.byte		        Dn3 , v012
	.byte	W02
	.byte		VOICE , 41
	.byte	W01
	.byte		N04   , An1 , v127
	.byte	W05
	.byte		VOICE , 26
	.byte	W01
	.byte		N03   , An3 , v080
	.byte	W03
	.byte		        An3 , v012
	.byte	W02
	.byte		VOICE , 41
	.byte	W01
	.byte	PEND
	.byte	PATT
	 .word	seq_018_0 + 0x12
	.byte		N15   , En2 , v127
	.byte	W24
	.byte		N15
	.byte	W24
	.byte		N09   , Dn2 
	.byte	W12
	.byte		        Dn1 
	.byte	W12
	.byte		        Fs1 
	.byte	W12
	.byte		        Gn1 
	.byte	W11
	.byte		VOICE , 41
	.byte	W01
	.byte	PEND
	.byte	PATT
	 .word	seq_018_0 + 0x12
	.byte	PATT
	 .word	seq_018_0 + 0x9B
	.byte	PATT
	 .word	seq_018_0 + 0x12
	.byte	PATT
	 .word	seq_018_0 + 0x129
	.byte		N15   , An1 , v127
	.byte	W24
	.byte		N12
	.byte	W18
	.byte		N09
	.byte	W12
	.byte		N06
	.byte	W06
	.byte		        En1 
	.byte	W06
	.byte		        En1 , v072
	.byte	W06
	.byte		        Gn1 , v127
	.byte	W06
	.byte		        Gn1 , v040
	.byte	W06
	.byte		        An1 , v127
	.byte	W06
	.byte		        An1 , v040
	.byte	W05
	.byte		VOICE , 41
	.byte	W01
	.byte		N15   , Dn2 , v127
	.byte	W24
	.byte		N12
	.byte	W18
	.byte		N09
	.byte	W12
	.byte		N06
	.byte	W06
	.byte		N09   , Dn1 
	.byte	W12
	.byte		        Fs1 
	.byte	W12
	.byte		        Gn1 
	.byte	W11
	.byte		VOICE , 41
	.byte	W01
	.byte		N15   , An1 
	.byte	W24
	.byte		N15
	.byte	W24
	.byte		N09
	.byte	W12
	.byte		        En1 
	.byte	W12
	.byte		        Gn1 
	.byte	W12
	.byte		        An1 
	.byte	W11
	.byte		VOICE , 41
	.byte	W01
	.byte		N15   , Dn2 
	.byte	W24
	.byte		N15
	.byte	W24
	.byte		N09
	.byte	W12
	.byte		        An1 
	.byte	W12
	.byte		        Cn2 
	.byte	W12
	.byte		        Dn2 
	.byte	W11
	.byte		VOICE , 41
	.byte	W01
	.byte	PATT
	 .word	seq_018_0 + 0x12
	.byte	PATT
	 .word	seq_018_0 + 0x9B
	.byte	PATT
	 .word	seq_018_0 + 0x12
	.byte	PATT
	 .word	seq_018_0 + 0x9B
	.byte		N04   , En2 , v127
	.byte	W05
	.byte		VOICE , 26
	.byte	W01
	.byte		N03   , Bn3 , v080
	.byte	W03
	.byte		        Bn3 , v012
	.byte	W02
	.byte		VOICE , 41
	.byte	W01
	.byte		N04   , Bn1 , v127
	.byte	W05
	.byte		VOICE , 26
	.byte	W01
	.byte		N03   , En4 , v080
	.byte	W03
	.byte		        En4 , v012
	.byte	W02
	.byte		VOICE , 41
	.byte	W01
	.byte		N04   , En2 , v127
	.byte	W05
	.byte		VOICE , 26
	.byte	W01
	.byte		N03   , Bn3 , v080
	.byte	W03
	.byte		        Bn3 , v012
	.byte	W02
	.byte		VOICE , 41
	.byte	W01
	.byte		N04   , Bn1 , v127
	.byte	W05
	.byte		VOICE , 26
	.byte	W01
	.byte		N03   , En4 , v080
	.byte	W03
	.byte		        En4 , v012
	.byte	W02
	.byte		VOICE , 41
	.byte	W01
	.byte		N04   , En2 , v127
	.byte	W05
	.byte		VOICE , 26
	.byte	W01
	.byte		N03   , Bn3 , v080
	.byte	W03
	.byte		        Bn3 , v012
	.byte	W02
	.byte		VOICE , 41
	.byte	W01
	.byte		N04   , Bn1 , v127
	.byte	W05
	.byte		VOICE , 26
	.byte	W01
	.byte		N03   , En4 , v080
	.byte	W03
	.byte		        En4 , v012
	.byte	W02
	.byte		VOICE , 41
	.byte	W01
	.byte		N04   , En2 , v127
	.byte	W05
	.byte		VOICE , 26
	.byte	W01
	.byte		N03   , Bn3 , v080
	.byte	W03
	.byte		        Bn3 , v012
	.byte	W02
	.byte		VOICE , 41
	.byte	W01
	.byte		N04   , Bn1 , v127
	.byte	W05
	.byte		VOICE , 26
	.byte	W01
	.byte		N03   , En4 , v080
	.byte	W03
	.byte		        En4 , v012
	.byte	W02
	.byte		VOICE , 41
	.byte	W01
	.byte	PEND
	.byte	PATT
	 .word	seq_018_0 + 0x9B
	.byte	PATT
	 .word	seq_018_0 + 0x1B6
	.byte		N04   , Dn2 , v127
	.byte	W05
	.byte		VOICE , 26
	.byte	W01
	.byte		N03   , Dn3 , v080
	.byte	W03
	.byte		        Dn3 , v012
	.byte	W02
	.byte		VOICE , 41
	.byte	W01
	.byte		N04   , An1 , v127
	.byte	W05
	.byte		VOICE , 26
	.byte	W01
	.byte		N03   , An3 , v080
	.byte	W03
	.byte		        An3 , v012
	.byte	W02
	.byte		VOICE , 41
	.byte	W01
	.byte		N04   , Dn2 , v127
	.byte	W05
	.byte		VOICE , 26
	.byte	W01
	.byte		N03   , Dn3 , v080
	.byte	W03
	.byte		        Dn3 , v012
	.byte	W02
	.byte		VOICE , 41
	.byte	W01
	.byte		N04   , An1 , v127
	.byte	W05
	.byte		VOICE , 26
	.byte	W01
	.byte		N03   , An3 , v080
	.byte	W03
	.byte		        An3 , v012
	.byte	W02
	.byte		VOICE , 41
	.byte	W01
	.byte		N04   , Dn2 , v127
	.byte	W05
	.byte		VOICE , 26
	.byte	W06
	.byte		        Fn1 
	.byte	W01
	.byte		N06   , An1 
	.byte	W05
	.byte		VOICE , 26
	.byte	W06
	.byte		        Fn1 
	.byte	W01
	.byte		N06   , Bn1 
	.byte	W05
	.byte		VOICE , 26
	.byte	W06
	.byte		        Fn1 
	.byte	W01
	.byte		N06   , Cs2 
	.byte	W05
	.byte		VOICE , 26
	.byte	W06
	.byte		        Fn1 
	.byte	W01
	.byte	PATT
	 .word	seq_018_0 + 0x1B6
	.byte	PATT
	 .word	seq_018_0 + 0x9B
	.byte	PATT
	 .word	seq_018_0 + 0x1B6
	.byte		N15   , Dn2 , v127
	.byte	W24
	.byte		N15
	.byte	W24
	.byte		N09
	.byte	W12
	.byte		        Dn1 
	.byte	W12
	.byte		        Fs1 
	.byte	W12
	.byte		        Gn1 
	.byte	W12
	.byte	GOTO
	 .word	seq_018_0 + 0x12
	.byte	FINE

@*********************** Track 02 ***********************@

seq_018_1:
	.byte	KEYSH , seq_018_key+0
	.byte	W01
	.byte		VOICE , 20
	.byte		VOL   , 85*seq_018_mvl/mxv
	.byte	W01
	.byte		MOD   , 55
	.byte		PAN   , c_v+0
	.byte		MODT  , mod_pan
	.byte	W16
	.byte	W24
	.byte	W96
	.byte	W96
	.byte	W96
	.byte	W96
	.byte	W96
	.byte	W96
	.byte	W96
	.byte	W96
	.byte	W96
	.byte	W96
	.byte	W96
	.byte	W96
	.byte	W96
	.byte	W96
	.byte	W96
	.byte	W54
	.byte		N03   , Dn3 , v112
	.byte	W06
	.byte		N03
	.byte	W06
	.byte		        An3 
	.byte	W06
	.byte		N03
	.byte	W06
	.byte		        Bn3 
	.byte	W06
	.byte		N03
	.byte	W06
	.byte		        Cs4 
	.byte	W06
	.byte		N03   , Dn4 , v112
	.byte	W06
	.byte		        Cs4 , v120
	.byte	W12
	.byte		N04   , Bn3 
	.byte	W12
	.byte		        An3 
	.byte	W12
	.byte		        Gs3 
	.byte	W54
	.byte	PEND
	.byte		N04   , Cn4 , v120
	.byte	W06
	.byte		N03   , Bn3 
	.byte	W12
	.byte		N04   , An3 
	.byte	W12
	.byte		        Gn3 
	.byte	W12
	.byte		        Fs3 
	.byte	W54
	.byte	PEND
	.byte		N04   , Dn4 , v120
	.byte	W06
	.byte		N03   , Cs4 
	.byte	W12
	.byte		        Bn3 
	.byte	W12
	.byte		        An3 
	.byte	W12
	.byte		        Gs3 
	.byte	W12
	.byte		N04   , Fs3 
	.byte	W12
	.byte		N03   , En3 
	.byte	W12
	.byte		N05   , Dn3 
	.byte	W12
	.byte		        En3 
	.byte	W06
	.byte	PEND
	.byte	W96
	.byte	PATT
	 .word	seq_018_1 + 0x30
	.byte	PATT
	 .word	seq_018_1 + 0x3F
	.byte	PATT
	 .word	seq_018_1 + 0x4E
	.byte	W96
	.byte	GOTO
	 .word	seq_018_1 + 0x10
	.byte	FINE

@*********************** Track 03 ***********************@

seq_018_2:
	.byte	KEYSH , seq_018_key+0
	.byte	W03
	.byte		VOICE , 76
	.byte		MOD   , 2
	.byte		MODT  , mod_vib
	.byte	W01
	.byte		VOL   , 63*seq_018_mvl/mxv
	.byte		PAN   , c_v+0
	.byte	W14
	.byte	W24
	.byte	W96
	.byte	W96
	.byte	W96
	.byte	W96
	.byte	W96
	.byte	W96
	.byte		VOICE , 76
	.byte	W01
	.byte		VOL   , 56*seq_018_mvl/mxv
	.byte	W01
	.byte		PAN   , c_v+0
	.byte	W01
	.byte		MODT  , mod_vib
	.byte	W01
	.byte		MOD   , 2
	.byte	W92
	.byte	W96
	.byte	W16
	.byte		N03   , En3 , v112
	.byte	W06
	.byte		        An3 
	.byte	W06
	.byte		        Dn4 
	.byte	W06
	.byte		        Fs4 
	.byte	W07
	.byte		N19   , Gn4 
	.byte	W24
	.byte		N11
	.byte	W14
	.byte		N03   , Fs4 , v120
	.byte	W05
	.byte		        Dn4 , v084
	.byte	W06
	.byte		N36   , An3 , v120
	.byte	W06
	.byte	W96
	.byte	W16
	.byte		N03   , En3 , v112
	.byte	W06
	.byte		        An3 
	.byte	W06
	.byte		        Dn4 
	.byte	W06
	.byte		        Fs4 
	.byte	W07
	.byte		N19   , Gn4 
	.byte	W24
	.byte		N11
	.byte	W14
	.byte		N03   , Fs4 , v120
	.byte	W05
	.byte		        Dn4 , v084
	.byte	W06
	.byte		N36   , An4 , v120
	.byte	W06
	.byte	W96
	.byte		PAN   , c_v+10
	.byte	W16
	.byte		N03   , En4 , v072
	.byte	W06
	.byte		        An4 
	.byte	W06
	.byte		        Dn5 
	.byte	W06
	.byte		        Fs5 
	.byte	W07
	.byte		N19   , Gn5 
	.byte	W24
	.byte		N11
	.byte	W14
	.byte		N03   , Fs5 , v080
	.byte	W05
	.byte		        Dn5 , v052
	.byte	W06
	.byte		N36   , An4 , v060
	.byte	W06
	.byte	W96
	.byte	W16
	.byte		N03   , En4 , v072
	.byte	W06
	.byte		        An4 
	.byte	W06
	.byte		        Dn5 
	.byte	W06
	.byte		        Fs5 
	.byte	W07
	.byte		N19   , Gn5 
	.byte	W24
	.byte		N11
	.byte	W14
	.byte		N03   , Fs5 , v080
	.byte	W05
	.byte		        Dn5 , v052
	.byte	W06
	.byte		N36   , An5 , v060
	.byte	W06
	.byte	W96
	.byte	W96
	.byte	W96
	.byte	W96
	.byte	W96
	.byte	W96
	.byte	W96
	.byte	W96
	.byte	W96
	.byte	GOTO
	 .word	seq_018_2 + 0x10
	.byte	FINE

@*********************** Track 04 ***********************@

seq_018_3:
	.byte	KEYSH , seq_018_key+0
	.byte	W05
	.byte		VOICE , 18
	.byte	W01
	.byte		VOL   , 70*seq_018_mvl/mxv
	.byte		PAN   , c_v-30
	.byte		BENDR , 12
	.byte	W12
	.byte	W24
	.byte	W96
	.byte	W92
	.byte	W03
	.byte		VOICE , 95
	.byte	W01
	.byte	PEND
	.byte	W96
	.byte		N03   , Gs2 , v120
	.byte	W24
	.byte		N03
	.byte	W23
	.byte		        Dn3 , v072
	.byte	W06
	.byte		        Fs3 
	.byte	W06
	.byte		        An3 
	.byte	W06
	.byte		N06   , Cn4 
	.byte	W13
	.byte		N03   , Bn3 
	.byte	W06
	.byte		        Gn3 , v060
	.byte	W06
	.byte		        An3 , v080
	.byte	W06
	.byte	PEND
	.byte	W96
	.byte	W96
	.byte	W96
	.byte	PATT
	 .word	seq_018_3 + 0x16
	.byte		N92   , En2 , v056
	.byte	W92
	.byte	W03
	.byte		N66   , Fs2 
	.byte	W01
	.byte	W64
	.byte	W01
	.byte		N18   , Dn2 
	.byte	W18
	.byte		N12   , Ds2 
	.byte	W12
	.byte		N96   , En2 
	.byte	W01
	.byte	W92
	.byte	W03
	.byte		N42   , Fs2 
	.byte	W01
	.byte	W40
	.byte	W01
	.byte		N11   , An2 , v120
	.byte	W18
	.byte		N03   , Gs2 , v127
	.byte	W12
	.byte		        Gn2 , v120
	.byte	W12
	.byte		        Fs2 , v127
	.byte	W13
	.byte	W10
	.byte		N04   , Gn3 , v112
	.byte	W06
	.byte		N03   , Gn3 , v032
	.byte	W18
	.byte		N04   , Gn3 , v112
	.byte	W06
	.byte		N03   , Gn3 , v032
	.byte	W18
	.byte		N04   , Gn3 , v112
	.byte	W06
	.byte		N03   , Gn3 , v032
	.byte	W18
	.byte		N04   , Gn3 , v112
	.byte	W06
	.byte		N03   , Gn3 , v032
	.byte	W08
	.byte	PEND
	.byte	W10
	.byte		N04   , Fs3 , v112
	.byte	W06
	.byte		N03   , Fs3 , v032
	.byte	W18
	.byte		N04   , Fs3 , v112
	.byte	W06
	.byte		N03   , Fs3 , v032
	.byte	W18
	.byte		N04   , Fs3 , v112
	.byte	W06
	.byte		N03   , Fs3 , v032
	.byte	W18
	.byte		N04   , Fs3 , v112
	.byte	W06
	.byte		N03   , Fs3 , v032
	.byte	W08
	.byte	PATT
	 .word	seq_018_3 + 0x60
	.byte	W10
	.byte		N04   , Fs3 , v112
	.byte	W06
	.byte		N03   , Fs3 , v032
	.byte	W18
	.byte		N04   , Fs3 , v112
	.byte	W06
	.byte		N03   , Fs3 , v032
	.byte	W18
	.byte		N04   , Fs3 , v112
	.byte	W06
	.byte		N03   , Fs3 , v032
	.byte	W18
	.byte		N04   , Fs3 , v112
	.byte	W06
	.byte		N03   , Fs3 , v032
	.byte	W07
	.byte		VOICE , 18
	.byte	W01
	.byte		BEND  , c_v+0
	.byte	W54
	.byte		N02   , Gs2 , v052
	.byte	W06
	.byte		        Gs2 , v112
	.byte	W03
	.byte		        Gs2 , v032
	.byte	W03
	.byte		        Bn2 , v052
	.byte	W06
	.byte		        Bn2 , v112
	.byte	W03
	.byte		        Bn2 , v032
	.byte	W03
	.byte		        En3 , v052
	.byte	W06
	.byte		        En3 , v112
	.byte	W03
	.byte		        En3 , v032
	.byte	W03
	.byte		        Gs3 , v112
	.byte	W03
	.byte		        Gs3 , v032
	.byte	W03
	.byte	PEND
	.byte	W54
	.byte		N02   , An2 , v052
	.byte	W06
	.byte		        An2 , v112
	.byte	W03
	.byte		        An2 , v032
	.byte	W03
	.byte		        Cn3 , v052
	.byte	W06
	.byte		        Cn3 , v112
	.byte	W03
	.byte		        Cn3 , v032
	.byte	W03
	.byte		        Fs3 , v052
	.byte	W06
	.byte		        Fs3 , v112
	.byte	W03
	.byte		        Fs3 , v032
	.byte	W03
	.byte		        An3 , v112
	.byte	W03
	.byte		        An3 , v032
	.byte	W03
	.byte	PEND
	.byte	W96
	.byte		VOICE , 99
	.byte		PAN   , c_v+0
	.byte	W36
	.byte		N05   , Fs3 , v056
	.byte	W11
	.byte		BEND  , c_v-27
	.byte	W01
	.byte		N17   , Bn3 
	.byte	W01
	.byte		BEND  , c_v-18
	.byte	W01
	.byte		        c_v-12
	.byte	W01
	.byte		        c_v+0
	.byte	W09
	.byte		        c_v-4
	.byte	W01
	.byte		        c_v-7
	.byte	W01
	.byte		        c_v-11
	.byte	W01
	.byte		        c_v-27
	.byte	W09
	.byte		N17
	.byte	W01
	.byte		BEND  , c_v-18
	.byte	W01
	.byte		        c_v-12
	.byte	W01
	.byte		        c_v+0
	.byte	W09
	.byte		        c_v-4
	.byte	W01
	.byte		        c_v-7
	.byte	W01
	.byte		        c_v-11
	.byte	W01
	.byte		        c_v-27
	.byte	W08
	.byte		VOICE , 18
	.byte		PAN   , c_v-30
	.byte	W01
	.byte	PATT
	 .word	seq_018_3 + 0xCC
	.byte	PATT
	 .word	seq_018_3 + 0xF2
	.byte	PATT
	 .word	seq_018_3 + 0xF
	.byte		N03   , En3 , v080
	.byte	W24
	.byte		N03
	.byte	W23
	.byte		        Dn3 , v072
	.byte	W06
	.byte		        Fs3 
	.byte	W06
	.byte		        An3 
	.byte	W06
	.byte		N06   , Cn4 
	.byte	W13
	.byte		N03   , Bn3 
	.byte	W06
	.byte		        Gn3 , v060
	.byte	W06
	.byte		        An3 , v080
	.byte	W06
	.byte	GOTO
	 .word	seq_018_3 + 0xE
	.byte	FINE

@*********************** Track 05 ***********************@

seq_018_4:
	.byte	KEYSH , seq_018_key+0
	.byte	W07
	.byte		VOICE , 18
	.byte		VOL   , 70*seq_018_mvl/mxv
	.byte		BENDR , 12
	.byte	W01
	.byte		PAN   , c_v+30
	.byte	W10
	.byte	W24
	.byte	W96
	.byte	W92
	.byte	W03
	.byte		VOICE , 95
	.byte	W01
	.byte	PEND
	.byte	W96
	.byte		N03   , En2 , v120
	.byte	W24
	.byte		N03
	.byte	W23
	.byte		        Dn2 , v112
	.byte	W06
	.byte		        Fs2 
	.byte	W06
	.byte		        An2 
	.byte	W06
	.byte		N06   , Cn3 
	.byte	W13
	.byte		N03   , Bn2 
	.byte	W06
	.byte		        Gn2 , v100
	.byte	W06
	.byte		        An2 , v120
	.byte	W06
	.byte	PEND
	.byte	W96
	.byte	W96
	.byte	W96
	.byte	PATT
	 .word	seq_018_4 + 0x16
	.byte		N92   , Cs2 , v060
	.byte	W92
	.byte	W03
	.byte		N96   , Dn2 
	.byte	W01
	.byte	W92
	.byte	W03
	.byte		        Cs2 
	.byte	W01
	.byte	W92
	.byte	W03
	.byte		N42   , Dn2 
	.byte	W01
	.byte	W40
	.byte	W01
	.byte		N11   , Fs2 , v120
	.byte	W18
	.byte		N03   , Fn2 , v127
	.byte	W12
	.byte		        En2 , v120
	.byte	W12
	.byte		        Ds2 , v127
	.byte	W13
	.byte	W10
	.byte		N04   , Cs3 , v112
	.byte	W06
	.byte		N03   , Cs3 , v032
	.byte	W18
	.byte		N04   , Cs3 , v112
	.byte	W06
	.byte		N03   , Cs3 , v032
	.byte	W18
	.byte		N04   , Cs3 , v112
	.byte	W06
	.byte		N03   , Cs3 , v032
	.byte	W18
	.byte		N04   , Cs3 , v112
	.byte	W06
	.byte		N03   , Cs3 , v032
	.byte	W08
	.byte	PEND
	.byte	W10
	.byte		N04   , Dn3 , v112
	.byte	W06
	.byte		N03   , Dn3 , v032
	.byte	W18
	.byte		N04   , Dn3 , v112
	.byte	W06
	.byte		N03   , Dn3 , v032
	.byte	W18
	.byte		N04   , Dn3 , v112
	.byte	W06
	.byte		N03   , Dn3 , v032
	.byte	W18
	.byte		N04   , Dn3 , v112
	.byte	W06
	.byte		N03   , Dn3 , v032
	.byte	W08
	.byte	PATT
	 .word	seq_018_4 + 0x59
	.byte	W10
	.byte		N04   , Dn3 , v112
	.byte	W06
	.byte		N03   , Dn3 , v032
	.byte	W18
	.byte		N04   , Dn3 , v112
	.byte	W06
	.byte		N03   , Dn3 , v032
	.byte	W18
	.byte		N04   , Dn3 , v112
	.byte	W06
	.byte		N03   , Dn3 , v032
	.byte	W18
	.byte		N04   , Dn3 , v112
	.byte	W06
	.byte		N03   , Dn3 , v032
	.byte	W07
	.byte		VOICE , 18
	.byte	W01
	.byte		BEND  , c_v+0
	.byte	W54
	.byte		N02   , En2 , v052
	.byte	W06
	.byte		        En2 , v112
	.byte	W03
	.byte		        En2 , v032
	.byte	W03
	.byte		        Gs2 , v052
	.byte	W06
	.byte		        Gs2 , v112
	.byte	W03
	.byte		        Gs2 , v032
	.byte	W03
	.byte		        Bn2 , v052
	.byte	W06
	.byte		        Bn2 , v112
	.byte	W03
	.byte		        Bn2 , v032
	.byte	W03
	.byte		        En3 , v112
	.byte	W03
	.byte		        En3 , v032
	.byte	W03
	.byte	W54
	.byte		N02   , Fs2 , v052
	.byte	W06
	.byte		        Fs2 , v112
	.byte	W03
	.byte		        Fs2 , v032
	.byte	W03
	.byte		        An2 , v052
	.byte	W06
	.byte		        An2 , v112
	.byte	W03
	.byte		        An2 , v032
	.byte	W03
	.byte		        Dn3 , v052
	.byte	W06
	.byte		        Dn3 , v112
	.byte	W03
	.byte		        Dn3 , v032
	.byte	W03
	.byte		        Fs3 , v112
	.byte	W03
	.byte		        Fs3 , v032
	.byte	W03
	.byte	PEND
	.byte	W96
	.byte		VOICE , 99
	.byte		PAN   , c_v+0
	.byte	W36
	.byte		N05   , Fs3 , v056
	.byte	W11
	.byte		BEND  , c_v-27
	.byte	W01
	.byte		N17   , Bn3 
	.byte	W01
	.byte		BEND  , c_v-18
	.byte	W01
	.byte		        c_v-12
	.byte	W01
	.byte		        c_v+0
	.byte	W09
	.byte		        c_v-4
	.byte	W01
	.byte		        c_v-7
	.byte	W01
	.byte		        c_v-11
	.byte	W01
	.byte		        c_v-27
	.byte	W09
	.byte		N17
	.byte	W01
	.byte		BEND  , c_v-18
	.byte	W01
	.byte		        c_v-12
	.byte	W01
	.byte		        c_v+0
	.byte	W09
	.byte		        c_v-4
	.byte	W01
	.byte		        c_v-7
	.byte	W01
	.byte		        c_v-11
	.byte	W01
	.byte		        c_v-27
	.byte	W08
	.byte		VOICE , 18
	.byte		PAN   , c_v+30
	.byte	W01
	.byte		BEND  , c_v+0
	.byte	W48
	.byte		VOICE , 18
	.byte	W06
	.byte		N02   , En2 , v052
	.byte	W06
	.byte		        En2 , v112
	.byte	W03
	.byte		        En2 , v032
	.byte	W03
	.byte		        Gs2 , v052
	.byte	W06
	.byte		        Gs2 , v112
	.byte	W03
	.byte		        Gs2 , v032
	.byte	W03
	.byte		        Bn2 , v052
	.byte	W06
	.byte		        Bn2 , v112
	.byte	W03
	.byte		        Bn2 , v032
	.byte	W03
	.byte		        En3 , v112
	.byte	W03
	.byte		        En3 , v032
	.byte	W03
	.byte	PATT
	 .word	seq_018_4 + 0xEA
	.byte	PATT
	 .word	seq_018_4 + 0xF
	.byte	PATT
	 .word	seq_018_4 + 0x16
	.byte	GOTO
	 .word	seq_018_4 + 0xE
	.byte	FINE

@*********************** Track 06 ***********************@

seq_018_5:
	.byte	KEYSH , seq_018_key+0
	.byte	W08
	.byte		VOICE , 70
	.byte		PAN   , c_v+0
	.byte	W01
	.byte		VOL   , 67*seq_018_mvl/mxv
	.byte		BENDR , 12
	.byte		MODT  , mod_pan
	.byte	W09
	.byte		N03   , An3 , v127
	.byte	W03
	.byte		        Gs3 
	.byte	W03
	.byte		        Gn3 
	.byte	W03
	.byte		        Fs3 
	.byte	W03
	.byte		        Fn3 
	.byte	W03
	.byte		        En3 
	.byte	W03
	.byte		        Ds3 
	.byte	W03
	.byte		        Dn3 
	.byte	W03
	.byte		N03   , Cs3 , v080
	.byte	W03
	.byte		        Cs3 , v020
	.byte	W03
	.byte		        Gn3 , v127
	.byte	W03
	.byte		        Gn3 , v020
	.byte	W03
	.byte		N03
	.byte	W06
	.byte		        Gn3 , v127
	.byte	W03
	.byte		        Gn3 , v020
	.byte	W03
	.byte		N03
	.byte	W06
	.byte		        Gn3 , v127
	.byte	W03
	.byte		        Gn3 , v020
	.byte	W03
	.byte		N03
	.byte	W06
	.byte		        Gn3 , v127
	.byte	W03
	.byte		        Gn3 , v020
	.byte	W03
	.byte		N03
	.byte	W06
	.byte		        Gn3 , v127
	.byte	W03
	.byte		        Gn3 , v020
	.byte	W03
	.byte		N03
	.byte	W06
	.byte		        Gn3 , v127
	.byte	W03
	.byte		        Gn3 , v020
	.byte	W03
	.byte		N03
	.byte	W06
	.byte		        Gn3 , v127
	.byte	W03
	.byte		        Gn3 , v020
	.byte	W03
	.byte		N03
	.byte	W06
	.byte		        Gn3 , v127
	.byte	W03
	.byte		        Gn3 , v020
	.byte	W03
	.byte	PEND
	.byte		N03   , Cn3 , v080
	.byte	W03
	.byte		        Cn3 , v020
	.byte	W03
	.byte		        Fs3 , v127
	.byte	W03
	.byte		        Fs3 , v020
	.byte	W03
	.byte		N03
	.byte	W06
	.byte		        Fs3 , v127
	.byte	W03
	.byte		        Fs3 , v020
	.byte	W03
	.byte		N03
	.byte	W06
	.byte		        Fs3 , v127
	.byte	W03
	.byte		        Fs3 , v020
	.byte	W03
	.byte		N03
	.byte	W06
	.byte		        Fs3 , v127
	.byte	W03
	.byte		        Fs3 , v020
	.byte	W03
	.byte		N03
	.byte	W06
	.byte		        Fs3 , v127
	.byte	W03
	.byte		        Fs3 , v020
	.byte	W03
	.byte		N03
	.byte	W06
	.byte		        Fs3 , v127
	.byte	W03
	.byte		        Fs3 , v020
	.byte	W03
	.byte		N03
	.byte	W06
	.byte		        Fs3 , v127
	.byte	W03
	.byte		        Fs3 , v020
	.byte	W03
	.byte		N03
	.byte	W06
	.byte		        Fs3 , v127
	.byte	W03
	.byte		        Fs3 , v020
	.byte	W03
	.byte	PEND
	.byte	PATT
	 .word	seq_018_5 + 0x21
	.byte		N06   , Gs3 , v127
	.byte	W12
	.byte		N03
	.byte	W03
	.byte		        Gs3 , v020
	.byte	W03
	.byte		N03
	.byte	W06
	.byte		N06   , Gs3 , v127
	.byte	W12
	.byte		N03
	.byte	W03
	.byte		        Gs3 , v020
	.byte	W03
	.byte		N03
	.byte	W06
	.byte		        Fs3 , v127
	.byte	W03
	.byte		        Fs3 , v020
	.byte	W03
	.byte		N03
	.byte	W06
	.byte		        Fs3 , v127
	.byte	W03
	.byte		        Fs3 , v020
	.byte	W03
	.byte		N03
	.byte	W06
	.byte		        Fs3 , v127
	.byte	W03
	.byte		        Fs3 , v020
	.byte	W03
	.byte		N03
	.byte	W06
	.byte		        Fs3 , v127
	.byte	W03
	.byte		        Fs3 , v020
	.byte	W03
	.byte		N03
	.byte	W06
	.byte	PEND
	.byte	PATT
	 .word	seq_018_5 + 0x21
	.byte	PATT
	 .word	seq_018_5 + 0x67
	.byte	PATT
	 .word	seq_018_5 + 0x21
	.byte	PATT
	 .word	seq_018_5 + 0xB2
	.byte		N06   , En3 , v127
	.byte	W12
	.byte		N03
	.byte	W03
	.byte		        En3 , v020
	.byte	W03
	.byte		N03
	.byte	W06
	.byte		N06   , En3 , v127
	.byte	W12
	.byte		N03
	.byte	W03
	.byte		        En3 , v020
	.byte	W03
	.byte		N06   , En3 , v127
	.byte	W06
	.byte		        En3 , v072
	.byte	W06
	.byte		N03   , En3 , v020
	.byte	W03
	.byte		N03
	.byte	W09
	.byte		N06   , En3 , v127
	.byte	W06
	.byte		        En3 , v072
	.byte	W06
	.byte		N03   , En3 , v020
	.byte	W03
	.byte		N03
	.byte	W03
	.byte		N06   , Gn3 , v127
	.byte	W06
	.byte		N03   , Gn3 , v020
	.byte	W03
	.byte		N03
	.byte	W03
	.byte	PEND
	.byte		N06   , Fs3 , v127
	.byte	W12
	.byte		N03
	.byte	W03
	.byte		        Fs3 , v020
	.byte	W03
	.byte		N03
	.byte	W06
	.byte		N06   , Fs3 , v127
	.byte	W12
	.byte		N03
	.byte	W03
	.byte		        Fs3 , v020
	.byte	W03
	.byte		N06   , Fs3 , v127
	.byte	W06
	.byte		        Fs3 , v072
	.byte	W06
	.byte		N03   , Fs3 , v020
	.byte	W03
	.byte		N03
	.byte	W09
	.byte		N06   , Dn3 , v127
	.byte	W06
	.byte		        Dn3 , v072
	.byte	W06
	.byte		N03   , Dn3 , v020
	.byte	W03
	.byte		N03
	.byte	W03
	.byte		N06   , Ds3 , v127
	.byte	W06
	.byte		N03   , Ds3 , v020
	.byte	W03
	.byte		N03
	.byte	W03
	.byte	PATT
	 .word	seq_018_5 + 0xFD
	.byte		N06   , Fs3 , v127
	.byte	W12
	.byte		N03
	.byte	W03
	.byte		        Fs3 , v020
	.byte	W03
	.byte		N03
	.byte	W06
	.byte		N06   , Fs3 , v127
	.byte	W12
	.byte		N03
	.byte	W03
	.byte		        Fs3 , v020
	.byte	W03
	.byte		N06   , An3 , v127
	.byte	W06
	.byte		        An3 , v072
	.byte	W06
	.byte		N03   , An3 , v020
	.byte	W03
	.byte		N03
	.byte	W03
	.byte		N06   , Gs3 , v127
	.byte	W06
	.byte		N03   , Gs3 , v020
	.byte	W03
	.byte		N03
	.byte	W03
	.byte		N06   , Gn3 , v127
	.byte	W06
	.byte		N03   , Gn3 , v020
	.byte	W03
	.byte		N03
	.byte	W03
	.byte		N06   , Fs3 , v127
	.byte	W06
	.byte		N03   , Fs3 , v020
	.byte	W03
	.byte		N03
	.byte	W03
	.byte	PATT
	 .word	seq_018_5 + 0x21
	.byte	PATT
	 .word	seq_018_5 + 0x67
	.byte	PATT
	 .word	seq_018_5 + 0x21
	.byte	PATT
	 .word	seq_018_5 + 0x67
	.byte		N03   , Dn3 , v080
	.byte	W03
	.byte		        Dn3 , v020
	.byte	W03
	.byte		        Gs3 , v127
	.byte	W03
	.byte		        Gs3 , v020
	.byte	W03
	.byte		N03
	.byte	W06
	.byte		        Gs3 , v127
	.byte	W03
	.byte		        Gs3 , v020
	.byte	W03
	.byte		N03
	.byte	W06
	.byte		        Gs3 , v127
	.byte	W03
	.byte		        Gs3 , v020
	.byte	W03
	.byte		N03
	.byte	W06
	.byte		        Gs3 , v127
	.byte	W03
	.byte		        Gs3 , v020
	.byte	W03
	.byte		N03
	.byte	W06
	.byte		        Gs3 , v127
	.byte	W03
	.byte		        Gs3 , v020
	.byte	W03
	.byte		N03
	.byte	W06
	.byte		        Gs3 , v127
	.byte	W03
	.byte		        Gs3 , v020
	.byte	W03
	.byte		N03
	.byte	W06
	.byte		        Gs3 , v127
	.byte	W03
	.byte		        Gs3 , v020
	.byte	W03
	.byte		N03
	.byte	W06
	.byte		        Gs3 , v127
	.byte	W03
	.byte		        Gs3 , v020
	.byte	W03
	.byte	PEND
	.byte	PATT
	 .word	seq_018_5 + 0x67
	.byte	PATT
	 .word	seq_018_5 + 0x1C6
	.byte		N03   , Cn3 , v080
	.byte	W03
	.byte		        Cn3 , v020
	.byte	W03
	.byte		        Fs3 , v127
	.byte	W03
	.byte		        Fs3 , v020
	.byte	W03
	.byte		N03
	.byte	W06
	.byte		        Fs3 , v127
	.byte	W03
	.byte		        Fs3 , v020
	.byte	W03
	.byte		N03
	.byte	W06
	.byte		        Fs3 , v127
	.byte	W03
	.byte		        Fs3 , v020
	.byte	W03
	.byte		N03
	.byte	W06
	.byte		        Fs3 , v127
	.byte	W03
	.byte		        Fs3 , v020
	.byte	W03
	.byte		N06   , Fs3 , v127
	.byte	W12
	.byte		N03
	.byte	W03
	.byte		        Fs3 , v020
	.byte	W03
	.byte		N03
	.byte	W06
	.byte		N06   , Fs3 , v127
	.byte	W12
	.byte		N03
	.byte	W03
	.byte		        Fs3 , v020
	.byte	W03
	.byte		N03
	.byte	W06
	.byte	PATT
	 .word	seq_018_5 + 0x1C6
	.byte	PATT
	 .word	seq_018_5 + 0x67
	.byte	PATT
	 .word	seq_018_5 + 0x1C6
	.byte		N06   , En3 , v127
	.byte	W12
	.byte		N03
	.byte	W03
	.byte		        En3 , v020
	.byte	W03
	.byte		N03
	.byte	W06
	.byte		N06   , En3 , v127
	.byte	W12
	.byte		N03
	.byte	W03
	.byte		        En3 , v020
	.byte	W03
	.byte		N03
	.byte	W06
	.byte		        Fs3 , v127
	.byte	W03
	.byte		        Fs3 , v020
	.byte	W03
	.byte		N03
	.byte	W06
	.byte		        Fs3 , v127
	.byte	W03
	.byte		        Fs3 , v020
	.byte	W03
	.byte		N03
	.byte	W06
	.byte		        Fs3 , v127
	.byte	W03
	.byte		        Fs3 , v020
	.byte	W03
	.byte		N03
	.byte	W06
	.byte		        Fs3 , v127
	.byte	W03
	.byte		        Fs3 , v020
	.byte	W03
	.byte		N03
	.byte	W06
	.byte	GOTO
	 .word	seq_018_5 + 0x21
	.byte	FINE

@*********************** Track 07 ***********************@

seq_018_6:
	.byte	KEYSH , seq_018_key+0
	.byte	W10
	.byte		VOICE , 71
	.byte		BENDR , 12
	.byte		MODT  , mod_pan
	.byte	W01
	.byte		VOL   , 63*seq_018_mvl/mxv
	.byte		PAN   , c_v+0
	.byte	W07
	.byte		N03   , Fs3 , v127
	.byte	W03
	.byte		        Fn3 
	.byte	W03
	.byte		        En3 
	.byte	W03
	.byte		        Ds3 
	.byte	W03
	.byte		        Dn3 
	.byte	W03
	.byte		        Cs3 
	.byte	W03
	.byte		        Cn3 
	.byte	W03
	.byte		        Bn2 
	.byte	W03
	.byte		N03   , An2 , v060
	.byte	W03
	.byte		        An2 , v020
	.byte	W03
	.byte		        Cs3 , v127
	.byte	W03
	.byte		        Cs3 , v020
	.byte	W03
	.byte		N03
	.byte	W06
	.byte		        Cs3 , v127
	.byte	W03
	.byte		        Cs3 , v020
	.byte	W03
	.byte		N03
	.byte	W06
	.byte		        Cs3 , v127
	.byte	W03
	.byte		        Cs3 , v020
	.byte	W03
	.byte		N03
	.byte	W06
	.byte		        Cs3 , v127
	.byte	W03
	.byte		        Cs3 , v020
	.byte	W03
	.byte		N03
	.byte	W06
	.byte		        Cs3 , v127
	.byte	W03
	.byte		        Cs3 , v020
	.byte	W03
	.byte		N03
	.byte	W06
	.byte		        Cs3 , v127
	.byte	W03
	.byte		        Cs3 , v020
	.byte	W03
	.byte		N03
	.byte	W06
	.byte		        Cs3 , v127
	.byte	W03
	.byte		        Cs3 , v020
	.byte	W03
	.byte		N03
	.byte	W06
	.byte		        Cs3 , v127
	.byte	W03
	.byte		        Cs3 , v020
	.byte	W03
	.byte	PEND
	.byte		N03   , An2 , v060
	.byte	W03
	.byte		        An2 , v020
	.byte	W03
	.byte		        Cn3 , v127
	.byte	W03
	.byte		        Cn3 , v020
	.byte	W03
	.byte		N03
	.byte	W06
	.byte		        Cn3 , v127
	.byte	W03
	.byte		        Cn3 , v020
	.byte	W03
	.byte		N03
	.byte	W06
	.byte		        Cn3 , v127
	.byte	W03
	.byte		        Cn3 , v020
	.byte	W03
	.byte		N03
	.byte	W06
	.byte		        Cn3 , v127
	.byte	W03
	.byte		        Cn3 , v020
	.byte	W03
	.byte		N03
	.byte	W06
	.byte		        Cn3 , v127
	.byte	W03
	.byte		        Cn3 , v020
	.byte	W03
	.byte		N03
	.byte	W06
	.byte		        Cn3 , v127
	.byte	W03
	.byte		        Cn3 , v020
	.byte	W03
	.byte		N03
	.byte	W06
	.byte		        Cn3 , v127
	.byte	W03
	.byte		        Cn3 , v020
	.byte	W03
	.byte		N03
	.byte	W06
	.byte		        Cn3 , v127
	.byte	W03
	.byte		        Cn3 , v020
	.byte	W03
	.byte	PEND
	.byte	PATT
	 .word	seq_018_6 + 0x21
	.byte		N06   , Dn3 , v127
	.byte	W12
	.byte		N03
	.byte	W03
	.byte		        Dn3 , v020
	.byte	W03
	.byte		N03
	.byte	W06
	.byte		N06   , Dn3 , v127
	.byte	W12
	.byte		N03
	.byte	W03
	.byte		        Dn3 , v020
	.byte	W03
	.byte		N03
	.byte	W06
	.byte		        Dn3 , v127
	.byte	W03
	.byte		        Dn3 , v020
	.byte	W03
	.byte		N03
	.byte	W06
	.byte		        Dn3 , v127
	.byte	W03
	.byte		        Dn3 , v020
	.byte	W03
	.byte		N03
	.byte	W06
	.byte		        Dn3 , v127
	.byte	W03
	.byte		        Dn3 , v020
	.byte	W03
	.byte		N03
	.byte	W06
	.byte		        Dn3 , v127
	.byte	W03
	.byte		        Dn3 , v020
	.byte	W03
	.byte		N03
	.byte	W06
	.byte	PEND
	.byte	PATT
	 .word	seq_018_6 + 0x21
	.byte	PATT
	 .word	seq_018_6 + 0x67
	.byte	PATT
	 .word	seq_018_6 + 0x21
	.byte	PATT
	 .word	seq_018_6 + 0xB2
	.byte		N06   , Cs3 , v127
	.byte	W12
	.byte		N03
	.byte	W03
	.byte		        Cs3 , v020
	.byte	W03
	.byte		N03
	.byte	W06
	.byte		N06   , Cs3 , v127
	.byte	W12
	.byte		N03
	.byte	W03
	.byte		        Cs3 , v020
	.byte	W03
	.byte		N06   , Cs3 , v127
	.byte	W06
	.byte		        Cs3 , v072
	.byte	W06
	.byte		N03   , Cs3 , v020
	.byte	W03
	.byte		N03
	.byte	W09
	.byte		N06   , Cs3 , v127
	.byte	W06
	.byte		        Cs3 , v072
	.byte	W06
	.byte		N03   , Cs3 , v020
	.byte	W03
	.byte		N03
	.byte	W03
	.byte		N06   , En3 , v127
	.byte	W06
	.byte		N03   , En3 , v020
	.byte	W03
	.byte		N03
	.byte	W03
	.byte	PEND
	.byte		N06   , Cn3 , v127
	.byte	W12
	.byte		N03
	.byte	W03
	.byte		        Cn3 , v020
	.byte	W03
	.byte		N03
	.byte	W06
	.byte		N06   , Cn3 , v127
	.byte	W12
	.byte		N03
	.byte	W03
	.byte		        Cn3 , v020
	.byte	W03
	.byte		N06   , Cn3 , v127
	.byte	W06
	.byte		        Cn3 , v072
	.byte	W06
	.byte		N03   , Cn3 , v020
	.byte	W03
	.byte		N03
	.byte	W09
	.byte		N06   , Cn3 , v127
	.byte	W06
	.byte		        Cn3 , v072
	.byte	W06
	.byte		N03   , Cn3 , v020
	.byte	W03
	.byte		N03
	.byte	W03
	.byte		N06   , Cn3 , v127
	.byte	W06
	.byte		N03   , Cn3 , v020
	.byte	W03
	.byte		N03
	.byte	W03
	.byte	PATT
	 .word	seq_018_6 + 0xFD
	.byte		N06   , Cn3 , v127
	.byte	W12
	.byte		N03
	.byte	W03
	.byte		        Cn3 , v020
	.byte	W03
	.byte		N03
	.byte	W06
	.byte		N06   , Cn3 , v127
	.byte	W12
	.byte		N03
	.byte	W03
	.byte		        Cn3 , v020
	.byte	W03
	.byte		N06   , Fs3 , v127
	.byte	W06
	.byte		        Fs3 , v072
	.byte	W06
	.byte		N03   , Fs3 , v020
	.byte	W03
	.byte		N03
	.byte	W03
	.byte		N06   , Fn3 , v127
	.byte	W06
	.byte		N03   , Fn3 , v020
	.byte	W03
	.byte		N03
	.byte	W03
	.byte		N06   , En3 , v127
	.byte	W06
	.byte		N03   , En3 , v020
	.byte	W03
	.byte		N03
	.byte	W03
	.byte		N06   , Ds3 , v127
	.byte	W06
	.byte		N03   , Ds3 , v020
	.byte	W03
	.byte		N03
	.byte	W03
	.byte	PATT
	 .word	seq_018_6 + 0x21
	.byte	PATT
	 .word	seq_018_6 + 0x67
	.byte	PATT
	 .word	seq_018_6 + 0x21
	.byte	PATT
	 .word	seq_018_6 + 0x67
	.byte		N03   , Bn2 , v060
	.byte	W03
	.byte		        Bn2 , v020
	.byte	W03
	.byte		        Dn3 , v127
	.byte	W03
	.byte		        Dn3 , v020
	.byte	W03
	.byte		N03
	.byte	W06
	.byte		        Dn3 , v127
	.byte	W03
	.byte		        Dn3 , v020
	.byte	W03
	.byte		N03
	.byte	W06
	.byte		        Dn3 , v127
	.byte	W03
	.byte		        Dn3 , v020
	.byte	W03
	.byte		N03
	.byte	W06
	.byte		        Dn3 , v127
	.byte	W03
	.byte		        Dn3 , v020
	.byte	W03
	.byte		N03
	.byte	W06
	.byte		        Dn3 , v127
	.byte	W03
	.byte		        Dn3 , v020
	.byte	W03
	.byte		N03
	.byte	W06
	.byte		        Dn3 , v127
	.byte	W03
	.byte		        Dn3 , v020
	.byte	W03
	.byte		N03
	.byte	W06
	.byte		        Dn3 , v127
	.byte	W03
	.byte		        Dn3 , v020
	.byte	W03
	.byte		N03
	.byte	W06
	.byte		        Dn3 , v127
	.byte	W03
	.byte		        Dn3 , v020
	.byte	W03
	.byte	PEND
	.byte	PATT
	 .word	seq_018_6 + 0x67
	.byte	PATT
	 .word	seq_018_6 + 0x1C6
	.byte		N03   , An2 , v060
	.byte	W03
	.byte		        An2 , v020
	.byte	W03
	.byte		        Cn3 , v127
	.byte	W03
	.byte		        Cn3 , v020
	.byte	W03
	.byte		N03
	.byte	W06
	.byte		        Cn3 , v127
	.byte	W03
	.byte		        Cn3 , v020
	.byte	W03
	.byte		N03
	.byte	W06
	.byte		        Cn3 , v127
	.byte	W03
	.byte		        Cn3 , v020
	.byte	W03
	.byte		N03
	.byte	W06
	.byte		        Cn3 , v127
	.byte	W03
	.byte		        Cn3 , v020
	.byte	W03
	.byte		N06   , Cn3 , v127
	.byte	W12
	.byte		N03
	.byte	W03
	.byte		        Cn3 , v020
	.byte	W03
	.byte		N03
	.byte	W06
	.byte		N06   , Cn3 , v127
	.byte	W12
	.byte		N03
	.byte	W03
	.byte		        Cn3 , v020
	.byte	W03
	.byte		N03
	.byte	W06
	.byte	PATT
	 .word	seq_018_6 + 0x1C6
	.byte	PATT
	 .word	seq_018_6 + 0x67
	.byte	PATT
	 .word	seq_018_6 + 0x1C6
	.byte	PATT
	 .word	seq_018_6 + 0xB2
	.byte	GOTO
	 .word	seq_018_6 + 0x21
	.byte	FINE

@*********************** Track 08 ***********************@

seq_018_7:
	.byte	KEYSH , seq_018_key+0
	.byte	W12
	.byte		VOICE , 5
	.byte		MOD   , 100
	.byte		MODT  , mod_pan
	.byte	W01
	.byte		VOL   , 85*seq_018_mvl/mxv
	.byte		PAN   , c_v+0
	.byte	W05
	.byte	W24
	.byte		BEND  , c_v+0
	.byte	W54
	.byte		N02   , En3 , v040
	.byte	W06
	.byte		        En3 , v112
	.byte	W06
	.byte		        An3 , v040
	.byte	W06
	.byte		        An3 , v112
	.byte	W06
	.byte		        Cs4 , v040
	.byte	W06
	.byte		        Cs4 , v080
	.byte	W06
	.byte		        En4 , v076
	.byte	W06
	.byte	PEND
	.byte	W54
	.byte		N02   , An3 , v040
	.byte	W06
	.byte		        An3 , v112
	.byte	W06
	.byte		        Dn4 , v040
	.byte	W06
	.byte		        Dn4 , v112
	.byte	W06
	.byte		        Fs4 , v040
	.byte	W06
	.byte		        Fs4 , v080
	.byte	W06
	.byte		        An4 , v076
	.byte	W06
	.byte	PEND
	.byte	PATT
	 .word	seq_018_7 + 0x10
	.byte	W96
	.byte	PATT
	 .word	seq_018_7 + 0x10
	.byte	PATT
	 .word	seq_018_7 + 0x2A
	.byte	PATT
	 .word	seq_018_7 + 0x10
	.byte	W96
	.byte	W96
	.byte	W96
	.byte	W96
	.byte	W96
	.byte	W96
	.byte	W96
	.byte	W96
	.byte	W54
	.byte		N03   , Dn4 , v112
	.byte	W06
	.byte		N03
	.byte	W06
	.byte		        An4 
	.byte	W06
	.byte		N03
	.byte	W06
	.byte		        Bn4 
	.byte	W06
	.byte		N03
	.byte	W06
	.byte		        Cs5 
	.byte	W06
	.byte		N04   , Dn5 , v120
	.byte	W06
	.byte		N03   , Cs5 
	.byte	W12
	.byte		N04   , Bn4 
	.byte	W12
	.byte		        An4 
	.byte	W12
	.byte		        Gs4 
	.byte	W54
	.byte	PEND
	.byte		N04   , Cn5 , v120
	.byte	W06
	.byte		N03   , Bn4 
	.byte	W12
	.byte		N04   , An4 
	.byte	W12
	.byte		        Gn4 
	.byte	W12
	.byte		        Fs4 
	.byte	W54
	.byte	PEND
	.byte		N04   , Dn5 , v120
	.byte	W06
	.byte		N03   , Cs5 
	.byte	W12
	.byte		        Bn4 
	.byte	W12
	.byte		        An4 
	.byte	W12
	.byte		        Gs4 
	.byte	W12
	.byte		N04   , Fs4 
	.byte	W12
	.byte		N03   , En4 
	.byte	W12
	.byte		N05   , Dn4 
	.byte	W12
	.byte		        En4 
	.byte	W06
	.byte	PEND
	.byte	W96
	.byte	PATT
	 .word	seq_018_7 + 0x70
	.byte	PATT
	 .word	seq_018_7 + 0x7F
	.byte	PATT
	 .word	seq_018_7 + 0x8E
	.byte	W96
	.byte	GOTO
	 .word	seq_018_7 + 0x10
	.byte	FINE

@*********************** Track 09 ***********************@

seq_018_8:
	.byte	KEYSH , seq_018_key+0
	.byte	W13
	.byte		VOL   , 56*seq_018_mvl/mxv
	.byte	W01
	.byte		VOICE , 46
	.byte		PAN   , c_v+0
	.byte		MODT  , mod_pan
	.byte	W01
	.byte		MOD   , 15
	.byte	W03
	.byte	W24
	.byte	W96
	.byte	W96
	.byte	W96
	.byte		N03   , Gs4 , v127
	.byte	W24
	.byte		N03
	.byte	W24
	.byte		        Dn4 
	.byte	W06
	.byte		        Fs4 
	.byte	W06
	.byte		        An4 
	.byte	W06
	.byte		N05   , Cn5 
	.byte	W12
	.byte		N03   , Bn4 
	.byte	W06
	.byte		        Gn4 
	.byte	W06
	.byte		        An4 
	.byte	W06
	.byte	PEND
	.byte	W96
	.byte	W96
	.byte	W96
	.byte	PATT
	 .word	seq_018_8 + 0x14
	.byte	W96
	.byte	W96
	.byte	W96
	.byte	W96
	.byte		VOICE , 45
	.byte		PAN   , c_v-10
	.byte	W16
	.byte		N03   , En3 , v072
	.byte	W06
	.byte		        An3 
	.byte	W06
	.byte		        Dn4 
	.byte	W06
	.byte		        Fs4 
	.byte	W07
	.byte		N19   , Gn4 
	.byte	W24
	.byte		N11
	.byte	W14
	.byte		N03   , Fs4 , v080
	.byte	W05
	.byte		        Dn4 , v052
	.byte	W06
	.byte		N36   , An3 , v060
	.byte	W06
	.byte	W96
	.byte	W16
	.byte		N03   , En3 , v072
	.byte	W06
	.byte		        An3 
	.byte	W06
	.byte		        Dn4 
	.byte	W06
	.byte		        Fs4 
	.byte	W07
	.byte		N19   , Gn4 
	.byte	W24
	.byte		N11
	.byte	W14
	.byte		N03   , Fs4 , v080
	.byte	W05
	.byte		        Dn4 , v052
	.byte	W06
	.byte		N36   , An4 , v060
	.byte	W06
	.byte	W96
	.byte	W96
	.byte	W96
	.byte	W96
	.byte	W96
	.byte	W96
	.byte	W96
	.byte	W12
	.byte		VOICE , 46
	.byte	W01
	.byte		VOL   , 56*seq_018_mvl/mxv
	.byte	W01
	.byte		PAN   , c_v+0
	.byte	W01
	.byte		MODT  , mod_pan
	.byte	W01
	.byte		MOD   , 15
	.byte	W80
	.byte	W48
	.byte		N03   , Dn4 , v127
	.byte	W06
	.byte		        Fs4 
	.byte	W06
	.byte		        An4 
	.byte	W06
	.byte		N05   , Cn5 
	.byte	W12
	.byte		N03   , Bn4 
	.byte	W06
	.byte		        Gn4 
	.byte	W06
	.byte		        An4 
	.byte	W06
	.byte	GOTO
	 .word	seq_018_8 + 0x11
	.byte	FINE

@*********************** Track 10 ***********************@

seq_018_9:
	.byte	KEYSH , seq_018_key+0
	.byte	W15
	.byte		VOICE , 127
	.byte		VOL   , 90*seq_018_mvl/mxv
	.byte	W01
	.byte		PAN   , c_v+0
	.byte	W02
	.byte	W24
	.byte		N06   , Cn1 , v120
	.byte	W12
	.byte		N03   , Dn1 , v112
	.byte	W12
	.byte		N06   , Cn1 , v120
	.byte	W12
	.byte		N03   , Dn1 , v112
	.byte	W12
	.byte		N06   , Cn1 , v120
	.byte	W12
	.byte		N03   , Dn1 , v112
	.byte	W12
	.byte		N06   , Cn1 , v120
	.byte	W12
	.byte		N03   , Dn1 , v112
	.byte	W12
	.byte	PEND
	.byte	PATT
	 .word	seq_018_9 + 0xC
	.byte	PATT
	 .word	seq_018_9 + 0xC
	.byte		N06   , Cn1 , v120
	.byte	W12
	.byte		N03   , Dn1 , v112
	.byte	W12
	.byte		N06   , Cn1 , v120
	.byte	W12
	.byte		N03   , Dn1 , v112
	.byte	W12
	.byte		N06   , Cn1 , v120
	.byte	W24
	.byte		N03   , Dn1 , v112
	.byte	W06
	.byte		        Dn1 , v048
	.byte	W06
	.byte		        Dn1 , v080
	.byte	W06
	.byte		        Dn1 , v076
	.byte	W06
	.byte	PEND
	.byte	PATT
	 .word	seq_018_9 + 0xC
	.byte	PATT
	 .word	seq_018_9 + 0xC
	.byte	PATT
	 .word	seq_018_9 + 0xC
	.byte	PATT
	 .word	seq_018_9 + 0x37
	.byte		N06   , Cn1 , v120
	.byte	W24
	.byte		N03   , Gn1 
	.byte	W24
	.byte		N06   , Cn1 
	.byte	W24
	.byte		N03   , Gn1 
	.byte	W12
	.byte		N06   , Cn1 
	.byte	W12
	.byte	PEND
	.byte	PATT
	 .word	seq_018_9 + 0x6D
	.byte	PATT
	 .word	seq_018_9 + 0x6D
	.byte		N06   , Cn1 , v120
	.byte	W24
	.byte		N03   , Gn1 
	.byte	W24
	.byte		N06   , Cn1 
	.byte	W12
	.byte		N03   , Dn1 , v112
	.byte	W12
	.byte		N06   , Cn1 , v120
	.byte	W12
	.byte		N03   , Dn1 , v112
	.byte	W06
	.byte		        Dn1 , v072
	.byte	W06
	.byte	PATT
	 .word	seq_018_9 + 0xC
	.byte	PATT
	 .word	seq_018_9 + 0xC
	.byte	PATT
	 .word	seq_018_9 + 0xC
	.byte	PATT
	 .word	seq_018_9 + 0xC
	.byte	PATT
	 .word	seq_018_9 + 0xC
	.byte	PATT
	 .word	seq_018_9 + 0xC
	.byte	PATT
	 .word	seq_018_9 + 0xC
	.byte		N06   , Cn1 , v120
	.byte	W12
	.byte		N03   , Dn1 , v112
	.byte	W12
	.byte		N06   , Cn1 , v120
	.byte	W12
	.byte		N03   , Dn1 , v112
	.byte	W12
	.byte		N06   , Cn1 , v120
	.byte	W12
	.byte		N03   , Dn1 , v112
	.byte	W12
	.byte		N06   , Cn1 , v120
	.byte	W12
	.byte		N03   , Dn1 , v112
	.byte	W03
	.byte		        Dn1 , v052
	.byte	W03
	.byte		        Dn1 , v072
	.byte	W03
	.byte		        Dn1 , v092
	.byte	W03
	.byte	PATT
	 .word	seq_018_9 + 0xC
	.byte	PATT
	 .word	seq_018_9 + 0xC
	.byte	PATT
	 .word	seq_018_9 + 0xC
	.byte		N06   , Cn1 , v120
	.byte	W24
	.byte		N06
	.byte	W24
	.byte		N06
	.byte	W24
	.byte		N03   , Dn1 , v112
	.byte	W12
	.byte		N03
	.byte	W03
	.byte		        Dn1 , v052
	.byte	W03
	.byte		        Dn1 , v092
	.byte	W03
	.byte		        Dn1 , v064
	.byte	W03
	.byte	GOTO
	 .word	seq_018_9 + 0xC
	.byte	FINE

@*********************** Track 11 ***********************@

seq_018_10:
	.byte	KEYSH , seq_018_key+0
	.byte	W16
	.byte		VOICE , 127
	.byte		VOL   , 90*seq_018_mvl/mxv
	.byte	W01
	.byte		PAN   , c_v+0
	.byte	W01
	.byte	W24
	.byte	W06
	.byte		N06   , Dn3 , v120
	.byte	W12
	.byte		        Ds3 , v080
	.byte	W12
	.byte		        Fn3 , v100
	.byte	W06
	.byte		        Dn3 , v120
	.byte	W06
	.byte		        Cs3 , v080
	.byte	W12
	.byte		        Dn3 , v120
	.byte	W12
	.byte		        Fn3 , v100
	.byte	W06
	.byte		        Gs4 , v080
	.byte	W06
	.byte		        An4 
	.byte	W06
	.byte		        Dn3 , v120
	.byte	W06
	.byte		        Gs4 , v080
	.byte	W06
	.byte	PEND
	.byte	PATT
	 .word	seq_018_10 + 0xC
	.byte	PATT
	 .word	seq_018_10 + 0xC
	.byte	W12
	.byte		N06   , An4 , v080
	.byte	W24
	.byte		N06
	.byte	W18
	.byte		        Fn3 , v100
	.byte	W06
	.byte		        Dn3 , v120
	.byte	W06
	.byte		        Cs3 , v080
	.byte	W06
	.byte		        Fn3 , v100
	.byte	W12
	.byte		N06
	.byte	W12
	.byte	PEND
	.byte	PATT
	 .word	seq_018_10 + 0xC
	.byte	PATT
	 .word	seq_018_10 + 0xC
	.byte	PATT
	 .word	seq_018_10 + 0xC
	.byte	PATT
	 .word	seq_018_10 + 0x39
	.byte		N06   , Gs4 , v080
	.byte	W12
	.byte		        An4 
	.byte	W12
	.byte		        Gs4 
	.byte	W12
	.byte		        An4 
	.byte	W18
	.byte		        Gs4 
	.byte	W06
	.byte		        Fn3 
	.byte	W06
	.byte		        Gs4 
	.byte	W18
	.byte		        Fn3 
	.byte	W12
	.byte	PEND
	.byte		N06   , Gs4 , v080
	.byte	W12
	.byte		        An4 
	.byte	W12
	.byte		        Gs4 
	.byte	W12
	.byte		        An4 
	.byte	W12
	.byte		        Fn3 
	.byte	W06
	.byte		        Gs4 
	.byte	W06
	.byte		        Fn3 
	.byte	W06
	.byte		        Gs4 
	.byte	W12
	.byte		        Dn3 , v112
	.byte	W06
	.byte		        Fn3 , v080
	.byte	W06
	.byte		        Dn3 
	.byte	W06
	.byte	PEND
	.byte	PATT
	 .word	seq_018_10 + 0x63
	.byte	PATT
	 .word	seq_018_10 + 0x76
	.byte	PATT
	 .word	seq_018_10 + 0xC
	.byte	PATT
	 .word	seq_018_10 + 0xC
	.byte	PATT
	 .word	seq_018_10 + 0xC
	.byte	PATT
	 .word	seq_018_10 + 0xC
	.byte	PATT
	 .word	seq_018_10 + 0xC
	.byte	PATT
	 .word	seq_018_10 + 0xC
	.byte	PATT
	 .word	seq_018_10 + 0xC
	.byte	W06
	.byte		N06   , Dn3 , v120
	.byte	W12
	.byte		        Ds3 , v080
	.byte	W06
	.byte		        Gs4 
	.byte	W12
	.byte		        An4 
	.byte	W12
	.byte		        Gs4 
	.byte	W12
	.byte		        An4 
	.byte	W24
	.byte		        Dn3 , v120
	.byte	W12
	.byte	PATT
	 .word	seq_018_10 + 0xC
	.byte	PATT
	 .word	seq_018_10 + 0xC
	.byte	PATT
	 .word	seq_018_10 + 0xC
	.byte		N06   , Gs4 , v080
	.byte	W12
	.byte		        An4 
	.byte	W12
	.byte		        Gs4 
	.byte	W12
	.byte		        An4 
	.byte	W60
	.byte	GOTO
	 .word	seq_018_10 + 0xC
	.byte	FINE

@*********************** Track 12 ***********************@

seq_018_11:
	.byte	KEYSH , seq_018_key+0
	.byte	W17
	.byte		VOICE , 127
	.byte		VOL   , 56*seq_018_mvl/mxv
	.byte	W01
	.byte		PAN   , c_v+0
	.byte	W24
	.byte		N02   , Gs1 , v112
	.byte	W03
	.byte		        Gs1 , v020
	.byte	W03
	.byte		        Gs1 , v080
	.byte	W06
	.byte		N06   , Ds2 , v092
	.byte	W06
	.byte		N02   , Gs1 , v080
	.byte	W03
	.byte		        Gs1 , v020
	.byte	W03
	.byte		        Gs1 , v112
	.byte	W03
	.byte		        Gs1 , v020
	.byte	W03
	.byte		        Gs1 , v080
	.byte	W06
	.byte		N06   , Ds2 , v092
	.byte	W06
	.byte		N02   , Gs1 , v080
	.byte	W03
	.byte		        Gs1 , v020
	.byte	W03
	.byte		        Gs1 , v112
	.byte	W03
	.byte		        Gs1 , v020
	.byte	W03
	.byte		        Gs1 , v080
	.byte	W06
	.byte		N06   , Ds2 , v092
	.byte	W06
	.byte		N02   , Gs1 , v080
	.byte	W03
	.byte		        Gs1 , v020
	.byte	W03
	.byte		        Gs1 , v112
	.byte	W03
	.byte		        Gs1 , v020
	.byte	W03
	.byte		        Gs1 , v080
	.byte	W06
	.byte		N06   , Ds2 , v092
	.byte	W06
	.byte		N02   , Gs1 , v080
	.byte	W03
	.byte		        Gs1 , v020
	.byte	W03
	.byte	PEND
	.byte	PATT
	 .word	seq_018_11 + 0xB
	.byte	PATT
	 .word	seq_018_11 + 0xB
	.byte		N02   , Gs1 , v112
	.byte	W12
	.byte		N06   , Ds2 , v092
	.byte	W12
	.byte		N02   , Gs1 , v112
	.byte	W12
	.byte		N06   , Ds2 , v092
	.byte	W12
	.byte		N02   , Gs1 , v112
	.byte	W24
	.byte		N02
	.byte	W12
	.byte		N12   , En2 , v092
	.byte	W12
	.byte	PEND
	.byte	PATT
	 .word	seq_018_11 + 0xB
	.byte	PATT
	 .word	seq_018_11 + 0xB
	.byte	PATT
	 .word	seq_018_11 + 0xB
	.byte	PATT
	 .word	seq_018_11 + 0x67
	.byte		N18   , Ds2 , v092
	.byte	W24
	.byte		N18
	.byte	W18
	.byte		N18
	.byte	W30
	.byte		N02   , Gs1 , v112
	.byte	W12
	.byte		N12   , En2 , v092
	.byte	W12
	.byte	PEND
	.byte	PATT
	 .word	seq_018_11 + 0x96
	.byte	PATT
	 .word	seq_018_11 + 0x96
	.byte		N18   , Ds2 , v092
	.byte	W24
	.byte		N18
	.byte	W24
	.byte		N02   , Gs1 , v112
	.byte	W03
	.byte		        Gs1 , v020
	.byte	W03
	.byte		        Gs1 , v056
	.byte	W06
	.byte		N06   , En2 , v092
	.byte	W12
	.byte		N02   , Gs1 , v112
	.byte	W03
	.byte		        Gs1 , v020
	.byte	W03
	.byte		        Gs1 , v056
	.byte	W06
	.byte		N12   , En2 , v092
	.byte	W12
	.byte	PATT
	 .word	seq_018_11 + 0xB
	.byte	PATT
	 .word	seq_018_11 + 0xB
	.byte	PATT
	 .word	seq_018_11 + 0xB
	.byte	PATT
	 .word	seq_018_11 + 0xB
	.byte	PATT
	 .word	seq_018_11 + 0xB
	.byte	PATT
	 .word	seq_018_11 + 0xB
	.byte	PATT
	 .word	seq_018_11 + 0xB
	.byte		N02   , Gs1 , v112
	.byte	W03
	.byte		        Gs1 , v020
	.byte	W03
	.byte		        Gs1 , v080
	.byte	W06
	.byte		N06   , Ds2 , v092
	.byte	W06
	.byte		N02   , Gs1 , v080
	.byte	W03
	.byte		        Gs1 , v020
	.byte	W03
	.byte		        Gs1 , v112
	.byte	W03
	.byte		        Gs1 , v020
	.byte	W03
	.byte		        Gs1 , v080
	.byte	W06
	.byte		N12   , En2 , v092
	.byte	W12
	.byte		N02   , Gs1 , v112
	.byte	W12
	.byte		N12   , En2 , v092
	.byte	W12
	.byte		N02   , Gs1 , v112
	.byte	W12
	.byte		N12   , En2 , v092
	.byte	W12
	.byte	PATT
	 .word	seq_018_11 + 0xB
	.byte	PATT
	 .word	seq_018_11 + 0xB
	.byte	PATT
	 .word	seq_018_11 + 0xB
	.byte		N18   , Ds2 , v092
	.byte	W24
	.byte		N18
	.byte	W24
	.byte		N02   , Gs1 , v112
	.byte	W12
	.byte		N12   , En2 , v092
	.byte	W12
	.byte		N02   , Gs1 , v112
	.byte	W12
	.byte		N12   , En2 , v092
	.byte	W12
	.byte	GOTO
	 .word	seq_018_11 + 0xB
	.byte	FINE

@******************************************************@

	.align	2

seq_018:
	.byte	12	@ NumTrks
	.byte	0	@ NumBlks
	.byte	seq_018_pri	@ Priority
	.byte	seq_018_rev	@ Reverb

	.word	seq_018_grp

	.word	seq_018_0
	.word	seq_018_1
	.word	seq_018_2
	.word	seq_018_3
	.word	seq_018_4
	.word	seq_018_5
	.word	seq_018_6
	.word	seq_018_7
	.word	seq_018_8
	.word	seq_018_9
	.word	seq_018_10
	.word	seq_018_11

	.end
