@ File generated by m4a2s Song-Module
	.include "MPlayDef.s"

	.equ	seq_101_grp, bank_014
	.equ	seq_101_pri, 50
	.equ	seq_101_rev, 203
	.equ	seq_101_mvl, 127
	.equ	seq_101_key, 0

	.section .rodata
	.global	seq_101
	.align	2

@*********************** Track 01 ***********************@

seq_101_0:
	.byte	KEYSH , seq_101_key+0
	.byte	TEMPO , 240/2
	.byte		VOICE , 127
	.byte	W01
	.byte		VOL   , 74*seq_101_mvl/mxv
	.byte	W01
	.byte		PAN   , c_v+0
	.byte	W22
	.byte	TEMPO , 144/2
	.byte		N11   , An7 , v060
	.byte	W24
	.byte		N03   , Gs7 , v080
	.byte	W12
	.byte		        Dn6 , v120
	.byte	W12
	.byte		        Fs5 
	.byte	W12
	.byte		        Ds6 
	.byte	W12
	.byte		N11   , An7 , v060
	.byte	W12
	.byte		N03   , Dn6 , v120
	.byte	W12
	.byte		        Gs7 , v080
	.byte	W12
	.byte		        Gs7 , v040
	.byte	W12
	.byte		        Ds4 , v100
	.byte	W24
	.byte		N11   , An7 , v060
	.byte	W24
	.byte		N03   , Gs7 , v080
	.byte	W12
	.byte		        Dn6 , v120
	.byte	W12
	.byte		        Fs5 
	.byte	W12
	.byte		        Ds6 , v080
	.byte	W12
	.byte	PEND
	.byte		N11   , An7 , v060
	.byte	W12
	.byte		N03   , Dn6 , v080
	.byte	W12
	.byte		        Gs7 
	.byte	W12
	.byte		        Gs7 , v040
	.byte	W12
	.byte		        Ds4 , v100
	.byte	W24
	.byte	PEND
	.byte	PATT
	 .word	seq_101_0 + 0x2F
	.byte	PATT
	 .word	seq_101_0 + 0x40
	.byte	PATT
	 .word	seq_101_0 + 0x2F
	.byte	PATT
	 .word	seq_101_0 + 0x40
	.byte	PATT
	 .word	seq_101_0 + 0x2F
	.byte	PATT
	 .word	seq_101_0 + 0x40
	.byte	PATT
	 .word	seq_101_0 + 0x2F
	.byte	PATT
	 .word	seq_101_0 + 0x40
	.byte	PATT
	 .word	seq_101_0 + 0x2F
	.byte	PATT
	 .word	seq_101_0 + 0x40
	.byte	PATT
	 .word	seq_101_0 + 0x2F
	.byte	TEMPO , 134/2
	.byte		N11   , An7 , v060
	.byte	W12
	.byte		N03   , Dn6 , v080
	.byte	W12
	.byte		        Gs7 
	.byte	W12
	.byte		        Gs7 , v040
	.byte	W12
	.byte	TEMPO , 144/2
	.byte		        Ds4 , v100
	.byte	W24
	.byte	PATT
	 .word	seq_101_0 + 0x2F
	.byte	PATT
	 .word	seq_101_0 + 0x40
	.byte	PATT
	 .word	seq_101_0 + 0x2F
	.byte	PATT
	 .word	seq_101_0 + 0x40
	.byte	PATT
	 .word	seq_101_0 + 0x2F
	.byte	PATT
	 .word	seq_101_0 + 0x40
	.byte	PATT
	 .word	seq_101_0 + 0x2F
	.byte	PATT
	 .word	seq_101_0 + 0x40
	.byte	PATT
	 .word	seq_101_0 + 0x2F
	.byte	PATT
	 .word	seq_101_0 + 0x40
	.byte	PATT
	 .word	seq_101_0 + 0x2F
	.byte	PATT
	 .word	seq_101_0 + 0x40
	.byte	PATT
	 .word	seq_101_0 + 0x2F
	.byte	PATT
	 .word	seq_101_0 + 0x40
	.byte		N11   , An7 , v060
	.byte	W24
	.byte		N03   , Gs7 , v080
	.byte	W12
	.byte		        Dn6 , v120
	.byte	W12
	.byte	TEMPO , 140/2
	.byte		        Fs5 
	.byte	W12
	.byte		        Ds6 , v080
	.byte	W12
	.byte		N11   , An7 , v060
	.byte	W12
	.byte		N03   , Dn6 , v080
	.byte	W12
	.byte		        Gs7 
	.byte	W12
	.byte		        Gs7 , v040
	.byte	W12
	.byte	TEMPO , 144/2
	.byte		        Ds4 , v100
	.byte	W24
	.byte	PATT
	 .word	seq_101_0 + 0x2F
	.byte	PATT
	 .word	seq_101_0 + 0x40
	.byte	PATT
	 .word	seq_101_0 + 0x2F
	.byte	PATT
	 .word	seq_101_0 + 0x40
	.byte	PATT
	 .word	seq_101_0 + 0x2F
	.byte	PATT
	 .word	seq_101_0 + 0x40
	.byte	PATT
	 .word	seq_101_0 + 0x2F
	.byte	PATT
	 .word	seq_101_0 + 0x40
	.byte	PATT
	 .word	seq_101_0 + 0x2F
	.byte	PATT
	 .word	seq_101_0 + 0x40
	.byte	PATT
	 .word	seq_101_0 + 0x2F
	.byte	PATT
	 .word	seq_101_0 + 0x40
	.byte	PATT
	 .word	seq_101_0 + 0x2F
	.byte		N11   , An7 , v060
	.byte	W12
	.byte		N03   , Dn6 , v080
	.byte	W12
	.byte		        Gs7 
	.byte	W12
	.byte		        Gs7 , v040
	.byte	W12
	.byte	TEMPO , 134/2
	.byte		        Ds4 , v100
	.byte	W24
	.byte		N11   , An7 , v060
	.byte	W24
	.byte	TEMPO , 114/2
	.byte		N03   , Gs7 , v080
	.byte	W12
	.byte		        Dn6 , v120
	.byte	W12
	.byte	TEMPO , 94/2
	.byte		        Fs5 
	.byte	W12
	.byte		        Ds6 , v080
	.byte	W12
	.byte	TEMPO , 80/2
	.byte	W24
	.byte	TEMPO , 90/2
	.byte	W48
	.byte	GOTO
	 .word	seq_101_0 + 0xD
	.byte	FINE

@*********************** Track 02 ***********************@

seq_101_1:
	.byte	KEYSH , seq_101_key+0
	.byte		VOICE , 5
	.byte	W01
	.byte		VOL   , 82*seq_101_mvl/mxv
	.byte	W01
	.byte		PAN   , c_v+0
	.byte	W01
	.byte		MODT  , mod_tre
	.byte	W01
	.byte		LFOS  , 20
	.byte	W20
	.byte		N24   , Bn3 , v120
	.byte	W24
	.byte		N12   , Bn3 , v040
	.byte	W12
	.byte		        As3 , v120
	.byte	W12
	.byte		N24   , Bn3 
	.byte	W24
	.byte	PEND
	.byte		N22   , Cn4 , v120
	.byte	W22
	.byte		N02   , Cn4 , v040
	.byte	W02
	.byte		N22   , Dn4 , v120
	.byte	W22
	.byte		N02   , Dn4 , v040
	.byte	W02
	.byte		N22   , En4 , v120
	.byte	W22
	.byte		N02   , En4 , v040
	.byte	W02
	.byte	PEND
	.byte		N24   , Dn4 , v120
	.byte	W24
	.byte		        An3 
	.byte	W24
	.byte		N12   , An3 , v040
	.byte	W12
	.byte		        Cn4 , v120
	.byte	W12
	.byte	PEND
	.byte		N48   , Bn3 , v120
	.byte	W24
	.byte	W01
	.byte		MOD   , 60
	.byte	W23
	.byte		N24   , Bn3 , v040
	.byte	W23
	.byte		MOD   , 0
	.byte	W01
	.byte	PEND
	.byte		N30   , Cn4 , v120
	.byte	W30
	.byte		N06   , Cn4 , v040
	.byte	W06
	.byte		N12   , Bn3 , v120
	.byte	W12
	.byte		        An3 
	.byte	W12
	.byte		N06   , Gn3 
	.byte	W06
	.byte		        Gn3 , v040
	.byte	W06
	.byte		N48   , Gn3 , v120
	.byte	W24
	.byte	W01
	.byte		MOD   , 60
	.byte	W23
	.byte		N24   , Gn3 , v040
	.byte	W23
	.byte		MOD   , 0
	.byte	W01
	.byte		N22   , Dn4 , v120
	.byte	W22
	.byte		N02   , Dn4 , v040
	.byte	W02
	.byte		N10   , Cn4 , v120
	.byte	W10
	.byte		N14   , Cn4 , v040
	.byte	W14
	.byte		N10   , Bn3 , v120
	.byte	W10
	.byte		N14   , Bn3 , v040
	.byte	W14
	.byte		N48   , Bn3 , v120
	.byte	W24
	.byte	W01
	.byte		MOD   , 60
	.byte	W22
	.byte		        0
	.byte	W01
	.byte		N24   , An3 
	.byte	W24
	.byte	PATT
	 .word	seq_101_1 + 0x11
	.byte	PATT
	 .word	seq_101_1 + 0x20
	.byte	PATT
	 .word	seq_101_1 + 0x39
	.byte	PATT
	 .word	seq_101_1 + 0x47
	.byte		N30   , Cn4 , v120
	.byte	W30
	.byte		N06   , Cn4 , v040
	.byte	W06
	.byte		N12   , Bn3 , v120
	.byte	W12
	.byte		        An3 
	.byte	W12
	.byte		N08   , Gn3 
	.byte	W08
	.byte		N04   , Gn3 , v040
	.byte	W04
	.byte		N01   , Cs4 , v080
	.byte	W01
	.byte		N24   , Dn4 , v120
	.byte	W23
	.byte		N11   , Gn3 
	.byte	W11
	.byte		N13   , Gn3 , v040
	.byte	W13
	.byte		N24   , Dn3 , v120
	.byte	W24
	.byte		        En3 
	.byte	W24
	.byte		N10   , An3 
	.byte	W10
	.byte		N14   , An3 , v040
	.byte	W14
	.byte		N02   , Fs3 , v120
	.byte	W02
	.byte		        Gn3 , v100
	.byte	W02
	.byte		N20   , Fs3 , v120
	.byte	W20
	.byte		N72   , Gn3 
	.byte	W24
	.byte	W01
	.byte		MOD   , 60
	.byte	W12
	.byte		VOL   , 74*seq_101_mvl/mxv
	.byte	W03
	.byte		        67*seq_101_mvl/mxv
	.byte	W03
	.byte		        59*seq_101_mvl/mxv
	.byte	W04
	.byte		        52*seq_101_mvl/mxv
	.byte	W04
	.byte		        44*seq_101_mvl/mxv
	.byte	W03
	.byte		        37*seq_101_mvl/mxv
	.byte	W03
	.byte		        29*seq_101_mvl/mxv
	.byte	W04
	.byte		        22*seq_101_mvl/mxv
	.byte	W03
	.byte		        14*seq_101_mvl/mxv
	.byte	W04
	.byte		        7*seq_101_mvl/mxv
	.byte	W03
	.byte		MOD   , 0
	.byte	W01
	.byte	W72
	.byte	W72
	.byte	W72
	.byte	W72
	.byte	W72
	.byte	W72
	.byte	W72
	.byte	W72
	.byte	W72
	.byte	W72
	.byte	W72
	.byte	W72
	.byte	W72
	.byte	W72
	.byte	W72
	.byte	W72
	.byte	W72
	.byte	W72
	.byte	W72
	.byte	W72
	.byte	W72
	.byte	W72
	.byte	W72
	.byte	W72
	.byte	W72
	.byte	W72
	.byte	W72
	.byte	W68
	.byte	W03
	.byte		VOL   , 82*seq_101_mvl/mxv
	.byte	W01
	.byte		N24   , En3 
	.byte	W01
	.byte		VOL   , 74*seq_101_mvl/mxv
	.byte	W01
	.byte		        67*seq_101_mvl/mxv
	.byte	W01
	.byte		        59*seq_101_mvl/mxv
	.byte	W01
	.byte		        52*seq_101_mvl/mxv
	.byte	W01
	.byte		        44*seq_101_mvl/mxv
	.byte	W01
	.byte		        37*seq_101_mvl/mxv
	.byte	W11
	.byte		        44*seq_101_mvl/mxv
	.byte	W07
	.byte		N24   , Fs3 
	.byte	W03
	.byte		VOL   , 52*seq_101_mvl/mxv
	.byte	W11
	.byte		        59*seq_101_mvl/mxv
	.byte	W10
	.byte		N24   , Gn3 
	.byte	W01
	.byte		VOL   , 67*seq_101_mvl/mxv
	.byte	W23
	.byte		N24   , Bn3 
	.byte	W24
	.byte		        An3 
	.byte	W24
	.byte		        Gn3 , v112
	.byte	W17
	.byte		VOL   , 59*seq_101_mvl/mxv
	.byte	W05
	.byte		        52*seq_101_mvl/mxv
	.byte	W02
	.byte		N54   , Bn3 , v120
	.byte	W06
	.byte		VOL   , 44*seq_101_mvl/mxv
	.byte	W08
	.byte		        52*seq_101_mvl/mxv
	.byte	W08
	.byte		        59*seq_101_mvl/mxv
	.byte	W01
	.byte		MOD   , 60
	.byte	W07
	.byte		VOL   , 67*seq_101_mvl/mxv
	.byte	W08
	.byte		        74*seq_101_mvl/mxv
	.byte	W16
	.byte		N18   , Bn3 , v060
	.byte	W10
	.byte		VOL   , 67*seq_101_mvl/mxv
	.byte	W02
	.byte		        59*seq_101_mvl/mxv
	.byte	W02
	.byte		        52*seq_101_mvl/mxv
	.byte	W01
	.byte		MOD   , 0
	.byte	W03
	.byte		N54   , An3 , v112
	.byte	W05
	.byte		VOL   , 44*seq_101_mvl/mxv
	.byte	W18
	.byte		MOD   , 60
	.byte	W06
	.byte		VOL   , 52*seq_101_mvl/mxv
	.byte	W21
	.byte		        59*seq_101_mvl/mxv
	.byte	W04
	.byte		N18   , An3 , v060
	.byte	W15
	.byte		MOD   , 0
	.byte	W02
	.byte		VOL   , 82*seq_101_mvl/mxv
	.byte	W01
	.byte	GOTO
	 .word	seq_101_1 + 0x11
	.byte	FINE

@*********************** Track 03 ***********************@

seq_101_2:
	.byte	KEYSH , seq_101_key+0
	.byte		VOICE , 1
	.byte	W01
	.byte		VOL   , 67*seq_101_mvl/mxv
	.byte	W01
	.byte		PAN   , c_v+26
	.byte	W22
	.byte		N24   , Gn2 , v120
	.byte	W24
	.byte	W03
	.byte		N21   , Gn2 , v040
	.byte	W44
	.byte	W01
	.byte	PEND
	.byte		N24   , An2 , v120
	.byte	W24
	.byte	W03
	.byte		N21   , An2 , v040
	.byte	W44
	.byte	W01
	.byte	PEND
	.byte		N24   , Fs2 , v120
	.byte	W24
	.byte	W03
	.byte		N21   , Fs2 , v040
	.byte	W44
	.byte	W01
	.byte	PEND
	.byte	PATT
	 .word	seq_101_2 + 0xB
	.byte		N24   , Cn3 , v120
	.byte	W24
	.byte	W03
	.byte		N21   , Cn3 , v040
	.byte	W44
	.byte	W01
	.byte	PEND
	.byte		N24   , Bn2 , v120
	.byte	W24
	.byte	W03
	.byte		N21   , Bn2 , v040
	.byte	W44
	.byte	W01
	.byte	PATT
	 .word	seq_101_2 + 0x16
	.byte		N24   , Dn3 , v120
	.byte	W24
	.byte	W03
	.byte		N21   , Dn3 , v040
	.byte	W21
	.byte		N24   , Fs2 , v120
	.byte	W24
	.byte	PATT
	 .word	seq_101_2 + 0xB
	.byte	PATT
	 .word	seq_101_2 + 0x16
	.byte	PATT
	 .word	seq_101_2 + 0x21
	.byte	PATT
	 .word	seq_101_2 + 0xB
	.byte	PATT
	 .word	seq_101_2 + 0x31
	.byte		N24   , Bn2 , v120
	.byte	W24
	.byte	W03
	.byte		N21   , Bn2 , v040
	.byte	W21
	.byte		N24   , En3 , v120
	.byte	W24
	.byte		        An2 
	.byte	W24
	.byte	W03
	.byte		N21   , An2 , v040
	.byte	W21
	.byte		N24   , Dn3 , v120
	.byte	W24
	.byte		N11   , Gn2 
	.byte	W11
	.byte		N13   , Gn2 , v040
	.byte	W13
	.byte		N15   , Gn2 , v120
	.byte	W15
	.byte		N21   , Gn2 , v040
	.byte	W21
	.byte		N12   , Gn2 , v020
	.byte	W12
	.byte	W72
	.byte	W72
	.byte	W72
	.byte	W72
	.byte	W72
	.byte	W72
	.byte	W72
	.byte	W72
	.byte	W72
	.byte	W72
	.byte	W72
	.byte	W72
	.byte	W72
	.byte	W72
	.byte	W72
	.byte	W72
	.byte	W72
	.byte	W72
	.byte	W72
	.byte	W72
	.byte	W72
	.byte	W72
	.byte	W72
	.byte	W72
	.byte	W72
	.byte	W72
	.byte	W72
	.byte	W72
	.byte	W72
	.byte	W72
	.byte	W72
	.byte		N15   , An2 , v120
	.byte	W15
	.byte		N09   , An2 , v040
	.byte	W09
	.byte		N15   , Bn2 , v120
	.byte	W15
	.byte		N09   , Bn2 , v040
	.byte	W09
	.byte		N15   , Cn3 , v120
	.byte	W15
	.byte		N09   , Cn3 , v040
	.byte	W09
	.byte	GOTO
	 .word	seq_101_2 + 0xB
	.byte	FINE

@*********************** Track 04 ***********************@

seq_101_3:
	.byte	KEYSH , seq_101_key+0
	.byte	W03
	.byte		VOICE , 4
	.byte	W01
	.byte		VOL   , 67*seq_101_mvl/mxv
	.byte	W01
	.byte		PAN   , c_v+16
	.byte	W01
	.byte		MODT  , mod_vib
	.byte	W01
	.byte		LFOS  , 20
	.byte	W01
	.byte		LFODL , 40
	.byte	W01
	.byte		MOD   , 4
	.byte	W15
	.byte	W72
	.byte	W72
	.byte	W72
	.byte	W72
	.byte	W72
	.byte	W72
	.byte	W72
	.byte	W72
	.byte	W72
	.byte	W72
	.byte	W72
	.byte	W72
	.byte	W72
	.byte	W72
	.byte	W72
	.byte	W72
	.byte		N24   , Bn2 , v120
	.byte	W16
	.byte		VOL   , 67*seq_101_mvl/mxv
	.byte	W08
	.byte		N24   , Cn3 
	.byte	W08
	.byte		VOL   , 74*seq_101_mvl/mxv
	.byte	W16
	.byte		N24   , Dn3 
	.byte	W01
	.byte		VOL   , 82*seq_101_mvl/mxv
	.byte	W20
	.byte		        74*seq_101_mvl/mxv
	.byte	W01
	.byte		        67*seq_101_mvl/mxv
	.byte	W01
	.byte		        59*seq_101_mvl/mxv
	.byte	W01
	.byte	PEND
	.byte		N48   , Fs3 , v120
	.byte	W10
	.byte		VOL   , 67*seq_101_mvl/mxv
	.byte	W11
	.byte		        74*seq_101_mvl/mxv
	.byte	W07
	.byte		        67*seq_101_mvl/mxv
	.byte	W18
	.byte		        44*seq_101_mvl/mxv
	.byte	W02
	.byte		N24   , Gn3 
	.byte	W06
	.byte		VOL   , 52*seq_101_mvl/mxv
	.byte	W08
	.byte		        59*seq_101_mvl/mxv
	.byte	W06
	.byte		        67*seq_101_mvl/mxv
	.byte	W02
	.byte		        74*seq_101_mvl/mxv
	.byte	W01
	.byte		        44*seq_101_mvl/mxv
	.byte	W01
	.byte	PEND
	.byte		N72   , Dn3 , v120
	.byte	W06
	.byte		VOL   , 52*seq_101_mvl/mxv
	.byte	W09
	.byte		        59*seq_101_mvl/mxv
	.byte	W10
	.byte		        67*seq_101_mvl/mxv
	.byte	W11
	.byte		        74*seq_101_mvl/mxv
	.byte	W10
	.byte		        67*seq_101_mvl/mxv
	.byte	W09
	.byte		        44*seq_101_mvl/mxv
	.byte	W09
	.byte		        37*seq_101_mvl/mxv
	.byte	W07
	.byte		        44*seq_101_mvl/mxv
	.byte	W01
	.byte	PEND
	.byte		N72   , Gn2 , v120
	.byte	W06
	.byte		VOL   , 52*seq_101_mvl/mxv
	.byte	W09
	.byte		        59*seq_101_mvl/mxv
	.byte	W10
	.byte		        67*seq_101_mvl/mxv
	.byte	W11
	.byte		        74*seq_101_mvl/mxv
	.byte	W10
	.byte		        67*seq_101_mvl/mxv
	.byte	W09
	.byte		        44*seq_101_mvl/mxv
	.byte	W09
	.byte		        37*seq_101_mvl/mxv
	.byte	W07
	.byte		        44*seq_101_mvl/mxv
	.byte	W01
	.byte	PEND
	.byte		N24   , Cn3 , v120
	.byte	W04
	.byte		VOL   , 52*seq_101_mvl/mxv
	.byte	W01
	.byte		        59*seq_101_mvl/mxv
	.byte	W02
	.byte		        67*seq_101_mvl/mxv
	.byte	W01
	.byte		        74*seq_101_mvl/mxv
	.byte	W16
	.byte		N24   , Bn2 , v100
	.byte	W24
	.byte		        Cn3 
	.byte	W23
	.byte		VOL   , 59*seq_101_mvl/mxv
	.byte	W01
	.byte	PEND
	.byte		N48   , Dn3 , v120
	.byte	W10
	.byte		VOL   , 67*seq_101_mvl/mxv
	.byte	W11
	.byte		        74*seq_101_mvl/mxv
	.byte	W07
	.byte		        67*seq_101_mvl/mxv
	.byte	W18
	.byte		        44*seq_101_mvl/mxv
	.byte	W02
	.byte		N24   , An2 
	.byte	W06
	.byte		VOL   , 52*seq_101_mvl/mxv
	.byte	W08
	.byte		        59*seq_101_mvl/mxv
	.byte	W06
	.byte		        67*seq_101_mvl/mxv
	.byte	W02
	.byte		        74*seq_101_mvl/mxv
	.byte	W01
	.byte		        44*seq_101_mvl/mxv
	.byte	W01
	.byte	PEND
	.byte		TIE   , Bn2 , v120
	.byte	W01
	.byte		VOL   , 67*seq_101_mvl/mxv
	.byte	W03
	.byte		        59*seq_101_mvl/mxv
	.byte	W03
	.byte		        52*seq_101_mvl/mxv
	.byte	W03
	.byte		        44*seq_101_mvl/mxv
	.byte	W19
	.byte		        52*seq_101_mvl/mxv
	.byte	W18
	.byte		        59*seq_101_mvl/mxv
	.byte	W19
	.byte		        67*seq_101_mvl/mxv
	.byte	W06
	.byte	PEND
	.byte	W12
	.byte		VOL   , 74*seq_101_mvl/mxv
	.byte	W19
	.byte		        82*seq_101_mvl/mxv
	.byte	W15
	.byte		        89*seq_101_mvl/mxv
	.byte	W02
	.byte	PEND
	.byte		EOT   , Bn2 
	.byte		N24   , Bn2 , v080
	.byte	W04
	.byte		VOL   , 82*seq_101_mvl/mxv
	.byte	W01
	.byte		        74*seq_101_mvl/mxv
	.byte	W01
	.byte		        67*seq_101_mvl/mxv
	.byte	W01
	.byte		        59*seq_101_mvl/mxv
	.byte	W01
	.byte		        52*seq_101_mvl/mxv
	.byte	W01
	.byte		        44*seq_101_mvl/mxv
	.byte	W01
	.byte		        37*seq_101_mvl/mxv
	.byte	W01
	.byte		        29*seq_101_mvl/mxv
	.byte	W12
	.byte		        44*seq_101_mvl/mxv
	.byte	W01
	.byte		N36   , Cn3 , v120
	.byte	W04
	.byte		VOL   , 52*seq_101_mvl/mxv
	.byte	W04
	.byte		        59*seq_101_mvl/mxv
	.byte	W04
	.byte		        67*seq_101_mvl/mxv
	.byte	W04
	.byte		        74*seq_101_mvl/mxv
	.byte	W04
	.byte		        82*seq_101_mvl/mxv
	.byte	W16
	.byte		N12   , Bn2 
	.byte	W12
	.byte		        An2 , v100
	.byte	W12
	.byte		        Gn2 
	.byte	W12
	.byte	PEND
	.byte		N07   , An2 , v120
	.byte	W07
	.byte		N05   , An2 , v040
	.byte	W05
	.byte		N06   , An2 , v020
	.byte	W56
	.byte	W03
	.byte		VOL   , 44*seq_101_mvl/mxv
	.byte	W01
	.byte	PEND
	.byte		N36   , Bn2 , v120
	.byte	W04
	.byte		VOL   , 52*seq_101_mvl/mxv
	.byte	W04
	.byte		        59*seq_101_mvl/mxv
	.byte	W04
	.byte		        67*seq_101_mvl/mxv
	.byte	W04
	.byte		        74*seq_101_mvl/mxv
	.byte	W04
	.byte		        82*seq_101_mvl/mxv
	.byte	W16
	.byte		N12   , An2 
	.byte	W12
	.byte		        Gn2 , v100
	.byte	W12
	.byte		        Fs2 
	.byte	W12
	.byte	PEND
	.byte		N07   , Gn2 , v120
	.byte	W07
	.byte		N05   , Gn2 , v040
	.byte	W05
	.byte		N06   , Gn2 , v020
	.byte	W60
	.byte	PEND
	.byte	W72
	.byte	W72
	.byte	W72
	.byte	W72
	.byte	PATT
	 .word	seq_101_3 + 0x28
	.byte	PATT
	 .word	seq_101_3 + 0x42
	.byte	PATT
	 .word	seq_101_3 + 0x5E
	.byte	PATT
	 .word	seq_101_3 + 0x74
	.byte	PATT
	 .word	seq_101_3 + 0x8A
	.byte	PATT
	 .word	seq_101_3 + 0xA1
	.byte	PATT
	 .word	seq_101_3 + 0xBD
	.byte	PATT
	 .word	seq_101_3 + 0xD1
	.byte		EOT   , Bn2 
	.byte		N24   , Bn2 , v080
	.byte	W04
	.byte		VOL   , 82*seq_101_mvl/mxv
	.byte	W01
	.byte		        74*seq_101_mvl/mxv
	.byte	W01
	.byte		        67*seq_101_mvl/mxv
	.byte	W01
	.byte		        59*seq_101_mvl/mxv
	.byte	W01
	.byte		        52*seq_101_mvl/mxv
	.byte	W01
	.byte		        44*seq_101_mvl/mxv
	.byte	W01
	.byte		        37*seq_101_mvl/mxv
	.byte	W01
	.byte		        29*seq_101_mvl/mxv
	.byte	W12
	.byte		        44*seq_101_mvl/mxv
	.byte	W01
	.byte	PATT
	 .word	seq_101_3 + 0xF3
	.byte	PATT
	 .word	seq_101_3 + 0x10B
	.byte	PATT
	 .word	seq_101_3 + 0x11C
	.byte	PATT
	 .word	seq_101_3 + 0x134
	.byte	W72
	.byte	W72
	.byte	W68
	.byte	W03
	.byte		VOL   , 52*seq_101_mvl/mxv
	.byte	W01
	.byte		N12   , Cn4 , v100
	.byte	W02
	.byte		VOL   , 59*seq_101_mvl/mxv
	.byte	W02
	.byte		        67*seq_101_mvl/mxv
	.byte	W02
	.byte		        74*seq_101_mvl/mxv
	.byte	W02
	.byte		        82*seq_101_mvl/mxv
	.byte	W04
	.byte		N05   , An3 
	.byte	W05
	.byte		N07   , An3 , v020
	.byte	W06
	.byte		VOL   , 52*seq_101_mvl/mxv
	.byte	W01
	.byte		N12   , Fs3 , v100
	.byte	W02
	.byte		VOL   , 59*seq_101_mvl/mxv
	.byte	W02
	.byte		        67*seq_101_mvl/mxv
	.byte	W02
	.byte		        74*seq_101_mvl/mxv
	.byte	W02
	.byte		        82*seq_101_mvl/mxv
	.byte	W04
	.byte		N05   , Ds3 
	.byte	W05
	.byte		N07   , Ds3 , v020
	.byte	W06
	.byte		VOL   , 52*seq_101_mvl/mxv
	.byte	W01
	.byte		N12   , Cn3 , v100
	.byte	W02
	.byte		VOL   , 59*seq_101_mvl/mxv
	.byte	W02
	.byte		        67*seq_101_mvl/mxv
	.byte	W02
	.byte		        74*seq_101_mvl/mxv
	.byte	W02
	.byte		        82*seq_101_mvl/mxv
	.byte	W04
	.byte		N05   , An2 
	.byte	W05
	.byte		N07   , An2 , v020
	.byte	W06
	.byte		VOL   , 67*seq_101_mvl/mxv
	.byte	W01
	.byte	GOTO
	 .word	seq_101_3 + 0x18
	.byte	FINE

@*********************** Track 05 ***********************@

seq_101_4:
	.byte	KEYSH , seq_101_key+0
	.byte	W03
	.byte		VOICE , 4
	.byte	W01
	.byte		VOL   , 52*seq_101_mvl/mxv
	.byte	W01
	.byte		PAN   , c_v-34
	.byte	W19
	.byte	W72
	.byte	W72
	.byte	W72
	.byte	W72
	.byte	W72
	.byte	W72
	.byte	W72
	.byte	W72
	.byte	W72
	.byte	W72
	.byte	W72
	.byte	W72
	.byte	W72
	.byte	W72
	.byte	W72
	.byte	W72
	.byte		N24   , Dn2 , v120
	.byte	W18
	.byte		VOL   , 59*seq_101_mvl/mxv
	.byte	W06
	.byte		N24   , En2 
	.byte	W13
	.byte		VOL   , 67*seq_101_mvl/mxv
	.byte	W11
	.byte		N24   , Fs2 
	.byte	W08
	.byte		VOL   , 74*seq_101_mvl/mxv
	.byte	W12
	.byte		        82*seq_101_mvl/mxv
	.byte	W02
	.byte		        74*seq_101_mvl/mxv
	.byte	W01
	.byte		        67*seq_101_mvl/mxv
	.byte	W01
	.byte	PEND
	.byte		N48   , An2 , v120
	.byte	W01
	.byte		VOL   , 59*seq_101_mvl/mxv
	.byte	W01
	.byte		        53*seq_101_mvl/mxv
	.byte	W04
	.byte		        44*seq_101_mvl/mxv
	.byte	W07
	.byte		        52*seq_101_mvl/mxv
	.byte	W07
	.byte		        59*seq_101_mvl/mxv
	.byte	W07
	.byte		        67*seq_101_mvl/mxv
	.byte	W07
	.byte		        74*seq_101_mvl/mxv
	.byte	W09
	.byte		        67*seq_101_mvl/mxv
	.byte	W01
	.byte		        59*seq_101_mvl/mxv
	.byte	W01
	.byte		        52*seq_101_mvl/mxv
	.byte	W01
	.byte		        44*seq_101_mvl/mxv
	.byte	W02
	.byte		N24   , Bn2 
	.byte	W06
	.byte		VOL   , 52*seq_101_mvl/mxv
	.byte	W08
	.byte		        59*seq_101_mvl/mxv
	.byte	W06
	.byte		        67*seq_101_mvl/mxv
	.byte	W02
	.byte		        74*seq_101_mvl/mxv
	.byte	W01
	.byte		        37*seq_101_mvl/mxv
	.byte	W01
	.byte	PEND
	.byte		N72   , Gn2 , v100
	.byte	W06
	.byte		VOL   , 44*seq_101_mvl/mxv
	.byte	W09
	.byte		        52*seq_101_mvl/mxv
	.byte	W10
	.byte		        59*seq_101_mvl/mxv
	.byte	W11
	.byte		        67*seq_101_mvl/mxv
	.byte	W10
	.byte		        59*seq_101_mvl/mxv
	.byte	W09
	.byte		        44*seq_101_mvl/mxv
	.byte	W01
	.byte		        22*seq_101_mvl/mxv
	.byte	W15
	.byte		        29*seq_101_mvl/mxv
	.byte	W01
	.byte	PEND
	.byte		N72   , Bn1 , v100
	.byte	W04
	.byte		VOL   , 37*seq_101_mvl/mxv
	.byte	W02
	.byte		        44*seq_101_mvl/mxv
	.byte	W15
	.byte		        52*seq_101_mvl/mxv
	.byte	W10
	.byte		        59*seq_101_mvl/mxv
	.byte	W11
	.byte		        67*seq_101_mvl/mxv
	.byte	W10
	.byte		        59*seq_101_mvl/mxv
	.byte	W03
	.byte		        44*seq_101_mvl/mxv
	.byte	W01
	.byte		        22*seq_101_mvl/mxv
	.byte	W15
	.byte		        29*seq_101_mvl/mxv
	.byte	W01
	.byte	PEND
	.byte		N48   , En2 , v120
	.byte	W05
	.byte		VOL   , 37*seq_101_mvl/mxv
	.byte	W07
	.byte		        44*seq_101_mvl/mxv
	.byte	W06
	.byte		        52*seq_101_mvl/mxv
	.byte	W06
	.byte		        59*seq_101_mvl/mxv
	.byte	W07
	.byte		        67*seq_101_mvl/mxv
	.byte	W06
	.byte		        74*seq_101_mvl/mxv
	.byte	W06
	.byte		        82*seq_101_mvl/mxv
	.byte	W05
	.byte		N12   , An2 
	.byte	W12
	.byte		        Gn2 , v100
	.byte	W11
	.byte		VOL   , 44*seq_101_mvl/mxv
	.byte	W01
	.byte	PEND
	.byte		N24   , Fs2 , v120
	.byte	W06
	.byte		VOL   , 52*seq_101_mvl/mxv
	.byte	W06
	.byte		        59*seq_101_mvl/mxv
	.byte	W06
	.byte		        67*seq_101_mvl/mxv
	.byte	W04
	.byte		        74*seq_101_mvl/mxv
	.byte	W01
	.byte		        44*seq_101_mvl/mxv
	.byte	W01
	.byte		N24   , En2 
	.byte	W06
	.byte		VOL   , 52*seq_101_mvl/mxv
	.byte	W06
	.byte		        59*seq_101_mvl/mxv
	.byte	W06
	.byte		        67*seq_101_mvl/mxv
	.byte	W04
	.byte		        74*seq_101_mvl/mxv
	.byte	W01
	.byte		        44*seq_101_mvl/mxv
	.byte	W01
	.byte		N72   , Dn2 
	.byte	W06
	.byte		VOL   , 52*seq_101_mvl/mxv
	.byte	W06
	.byte		        59*seq_101_mvl/mxv
	.byte	W06
	.byte		        67*seq_101_mvl/mxv
	.byte	W04
	.byte		        74*seq_101_mvl/mxv
	.byte	W02
	.byte	PEND
	.byte		VOL   , 67*seq_101_mvl/mxv
	.byte	W03
	.byte		        59*seq_101_mvl/mxv
	.byte	W01
	.byte		        52*seq_101_mvl/mxv
	.byte	W05
	.byte		        44*seq_101_mvl/mxv
	.byte	W10
	.byte		        52*seq_101_mvl/mxv
	.byte	W10
	.byte		        59*seq_101_mvl/mxv
	.byte	W08
	.byte		        67*seq_101_mvl/mxv
	.byte	W03
	.byte		        59*seq_101_mvl/mxv
	.byte	W03
	.byte		        52*seq_101_mvl/mxv
	.byte	W04
	.byte		        44*seq_101_mvl/mxv
	.byte	W01
	.byte		N24   , En2 , v120
	.byte	W07
	.byte		VOL   , 52*seq_101_mvl/mxv
	.byte	W08
	.byte		        59*seq_101_mvl/mxv
	.byte	W06
	.byte		        67*seq_101_mvl/mxv
	.byte	W02
	.byte		        59*seq_101_mvl/mxv
	.byte	W01
	.byte	PEND
	.byte		N48   , Fn2 , v120
	.byte	W01
	.byte		VOL   , 52*seq_101_mvl/mxv
	.byte	W02
	.byte		        44*seq_101_mvl/mxv
	.byte	W01
	.byte		        37*seq_101_mvl/mxv
	.byte	W12
	.byte		        44*seq_101_mvl/mxv
	.byte	W16
	.byte		        52*seq_101_mvl/mxv
	.byte	W15
	.byte		        59*seq_101_mvl/mxv
	.byte	W01
	.byte		N24   , Fn2 , v060
	.byte	W14
	.byte		VOL   , 67*seq_101_mvl/mxv
	.byte	W08
	.byte		        74*seq_101_mvl/mxv
	.byte	W01
	.byte		        14*seq_101_mvl/mxv
	.byte	W01
	.byte	PEND
	.byte		N36   , En2 , v120
	.byte	W02
	.byte		VOL   , 22*seq_101_mvl/mxv
	.byte	W04
	.byte		        29*seq_101_mvl/mxv
	.byte	W04
	.byte		        37*seq_101_mvl/mxv
	.byte	W04
	.byte		        44*seq_101_mvl/mxv
	.byte	W03
	.byte		        52*seq_101_mvl/mxv
	.byte	W04
	.byte		        59*seq_101_mvl/mxv
	.byte	W04
	.byte		        67*seq_101_mvl/mxv
	.byte	W04
	.byte		        74*seq_101_mvl/mxv
	.byte	W07
	.byte		N12   , Dn2 
	.byte	W12
	.byte		        Cn2 , v100
	.byte	W12
	.byte		        Bn1 
	.byte	W12
	.byte	PEND
	.byte		N07   , Dn2 , v100
	.byte	W07
	.byte		N05   , Dn2 , v060
	.byte	W05
	.byte		N06   , Dn2 , v040
	.byte	W56
	.byte	W03
	.byte		VOL   , 14*seq_101_mvl/mxv
	.byte	W01
	.byte	PEND
	.byte		N36   , Dn2 , v120
	.byte	W02
	.byte		VOL   , 22*seq_101_mvl/mxv
	.byte	W04
	.byte		        29*seq_101_mvl/mxv
	.byte	W04
	.byte		        37*seq_101_mvl/mxv
	.byte	W04
	.byte		        44*seq_101_mvl/mxv
	.byte	W03
	.byte		        52*seq_101_mvl/mxv
	.byte	W04
	.byte		        59*seq_101_mvl/mxv
	.byte	W04
	.byte		        67*seq_101_mvl/mxv
	.byte	W04
	.byte		        74*seq_101_mvl/mxv
	.byte	W07
	.byte		N12   , Cn2 
	.byte	W12
	.byte		        Bn1 , v100
	.byte	W12
	.byte		        As1 
	.byte	W12
	.byte	PEND
	.byte		N07   , Bn1 , v100
	.byte	W07
	.byte		N05   , Bn1 , v060
	.byte	W05
	.byte		N06   , Bn1 , v040
	.byte	W60
	.byte	PEND
	.byte	W72
	.byte	W72
	.byte	W72
	.byte	W72
	.byte	PATT
	 .word	seq_101_4 + 0x1C
	.byte	PATT
	 .word	seq_101_4 + 0x36
	.byte	PATT
	 .word	seq_101_4 + 0x60
	.byte	PATT
	 .word	seq_101_4 + 0x76
	.byte	PATT
	 .word	seq_101_4 + 0x8E
	.byte	PATT
	 .word	seq_101_4 + 0xAB
	.byte	PATT
	 .word	seq_101_4 + 0xD5
	.byte	PATT
	 .word	seq_101_4 + 0xF8
	.byte	PATT
	 .word	seq_101_4 + 0x115
	.byte	PATT
	 .word	seq_101_4 + 0x133
	.byte	PATT
	 .word	seq_101_4 + 0x144
	.byte	PATT
	 .word	seq_101_4 + 0x162
	.byte	W72
	.byte	W72
	.byte	W68
	.byte	W03
	.byte		VOL   , 52*seq_101_mvl/mxv
	.byte	W01
	.byte		N12   , Ds3 , v100
	.byte	W02
	.byte		VOL   , 59*seq_101_mvl/mxv
	.byte	W02
	.byte		        67*seq_101_mvl/mxv
	.byte	W02
	.byte		        74*seq_101_mvl/mxv
	.byte	W02
	.byte		        82*seq_101_mvl/mxv
	.byte	W04
	.byte		N05   , Cn3 
	.byte	W05
	.byte		N07   , Cn3 , v020
	.byte	W06
	.byte		VOL   , 52*seq_101_mvl/mxv
	.byte	W01
	.byte		N12   , An2 , v100
	.byte	W02
	.byte		VOL   , 59*seq_101_mvl/mxv
	.byte	W02
	.byte		        67*seq_101_mvl/mxv
	.byte	W02
	.byte		        74*seq_101_mvl/mxv
	.byte	W02
	.byte		        82*seq_101_mvl/mxv
	.byte	W04
	.byte		N05   , Fs2 
	.byte	W05
	.byte		N07   , Fs2 , v020
	.byte	W06
	.byte		VOL   , 52*seq_101_mvl/mxv
	.byte	W01
	.byte		N12   , Ds2 , v100
	.byte	W02
	.byte		VOL   , 59*seq_101_mvl/mxv
	.byte	W02
	.byte		        67*seq_101_mvl/mxv
	.byte	W02
	.byte		        74*seq_101_mvl/mxv
	.byte	W02
	.byte		        82*seq_101_mvl/mxv
	.byte	W04
	.byte		N05   , Cn2 
	.byte	W05
	.byte		N07   , Cn2 , v020
	.byte	W06
	.byte		VOL   , 52*seq_101_mvl/mxv
	.byte	W01
	.byte	GOTO
	 .word	seq_101_4 + 0xC
	.byte	FINE

@*********************** Track 06 ***********************@

seq_101_5:
	.byte	KEYSH , seq_101_key+0
	.byte	W06
	.byte		VOICE , 2
	.byte	W01
	.byte		VOL   , 59*seq_101_mvl/mxv
	.byte	W01
	.byte		PAN   , c_v-24
	.byte	W16
	.byte	W72
	.byte	W72
	.byte	W72
	.byte	W72
	.byte	W72
	.byte	W72
	.byte	W72
	.byte	W72
	.byte	W72
	.byte	W72
	.byte	W72
	.byte	W72
	.byte	W72
	.byte	W72
	.byte	W72
	.byte	W72
	.byte	W01
	.byte		N09   , Gn2 , v120
	.byte	W12
	.byte		        Bn2 , v080
	.byte	W12
	.byte		        Dn3 
	.byte	W12
	.byte		        Gn3 
	.byte	W12
	.byte		        Bn3 
	.byte	W23
	.byte	PEND
	.byte	W01
	.byte		N09   , Cn3 , v120
	.byte	W12
	.byte		        Dn3 , v080
	.byte	W12
	.byte		        Fs3 
	.byte	W12
	.byte		        Gn3 
	.byte	W12
	.byte		        Dn4 
	.byte	W23
	.byte	PEND
	.byte	W01
	.byte		N09   , Bn2 , v120
	.byte	W12
	.byte		        Dn3 , v080
	.byte	W12
	.byte		        Gn3 
	.byte	W12
	.byte		        Bn3 
	.byte	W12
	.byte		        Dn4 
	.byte	W23
	.byte	PEND
	.byte	W01
	.byte		N09   , En2 , v120
	.byte	W12
	.byte		        Bn2 , v080
	.byte	W12
	.byte		        Dn3 
	.byte	W12
	.byte		        Gn3 
	.byte	W12
	.byte		        Bn3 
	.byte	W23
	.byte	PEND
	.byte	W01
	.byte		N09   , An2 , v120
	.byte	W12
	.byte		        Cn3 , v080
	.byte	W12
	.byte		        En3 
	.byte	W12
	.byte		        An3 
	.byte	W12
	.byte		        Cn4 
	.byte	W23
	.byte	PEND
	.byte	W01
	.byte		N09   , Fs2 , v120
	.byte	W12
	.byte		        An2 , v080
	.byte	W12
	.byte		        Dn3 
	.byte	W12
	.byte		        Fs3 
	.byte	W12
	.byte		        An3 
	.byte	W23
	.byte	PEND
	.byte	PATT
	 .word	seq_101_5 + 0x1C
	.byte	W01
	.byte		N09   , Gn2 , v120
	.byte	W12
	.byte		        Bn2 , v080
	.byte	W12
	.byte		        Dn3 
	.byte	W12
	.byte		        Fn3 
	.byte	W12
	.byte		        Bn3 
	.byte	W23
	.byte	PEND
	.byte	PATT
	 .word	seq_101_5 + 0x58
	.byte	PATT
	 .word	seq_101_5 + 0x67
	.byte	PATT
	 .word	seq_101_5 + 0x1C
	.byte	W01
	.byte		N09   , En2 , v120
	.byte	W12
	.byte		        Gn2 , v080
	.byte	W12
	.byte		        Bn2 
	.byte	W12
	.byte		        En3 
	.byte	W12
	.byte		        Gn3 
	.byte	W23
	.byte	PEND
	.byte	W01
	.byte		N09   , An1 , v120
	.byte	W12
	.byte		        An2 , v080
	.byte	W12
	.byte		        Cn3 
	.byte	W12
	.byte		        En3 
	.byte	W12
	.byte		        Gn3 
	.byte	W23
	.byte	PEND
	.byte	W01
	.byte		N09   , An1 , v120
	.byte	W12
	.byte		        An2 , v080
	.byte	W12
	.byte		        Cs3 
	.byte	W12
	.byte		        En3 
	.byte	W12
	.byte		        An3 
	.byte	W23
	.byte	PEND
	.byte	W01
	.byte		N09   , Dn2 , v120
	.byte	W12
	.byte		        Cn3 , v080
	.byte	W12
	.byte		        Dn3 
	.byte	W12
	.byte		        En3 
	.byte	W12
	.byte		        Gn3 
	.byte	W23
	.byte	PEND
	.byte	W01
	.byte		        Dn2 , v120
	.byte	W02
	.byte		        Ds3 , v100
	.byte	W02
	.byte		        Fs3 
	.byte	W05
	.byte		        Dn2 , v040
	.byte	W02
	.byte		        Ds3 
	.byte	W02
	.byte		        Fs3 
	.byte	W56
	.byte	W02
	.byte	PATT
	 .word	seq_101_5 + 0x1C
	.byte	PATT
	 .word	seq_101_5 + 0x2B
	.byte	PATT
	 .word	seq_101_5 + 0x3A
	.byte	PATT
	 .word	seq_101_5 + 0x49
	.byte	PATT
	 .word	seq_101_5 + 0x58
	.byte	PATT
	 .word	seq_101_5 + 0x67
	.byte	PATT
	 .word	seq_101_5 + 0x1C
	.byte	PATT
	 .word	seq_101_5 + 0x7B
	.byte	PATT
	 .word	seq_101_5 + 0x58
	.byte	PATT
	 .word	seq_101_5 + 0x67
	.byte	PATT
	 .word	seq_101_5 + 0x1C
	.byte	PATT
	 .word	seq_101_5 + 0x99
	.byte	PATT
	 .word	seq_101_5 + 0xA8
	.byte	PATT
	 .word	seq_101_5 + 0xB7
	.byte	PATT
	 .word	seq_101_5 + 0xC6
	.byte	W01
	.byte		N09   , Dn2 , v120
	.byte	W09
	.byte		        Dn2 , v040
	.byte	W09
	.byte		        Dn2 , v020
	.byte	W52
	.byte	W01
	.byte	GOTO
	 .word	seq_101_5 + 0xC
	.byte	FINE

@*********************** Track 07 ***********************@

seq_101_6:
	.byte	KEYSH , seq_101_key+0
	.byte	W03
	.byte		VOICE , 6
	.byte	W01
	.byte		VOL   , 44*seq_101_mvl/mxv
	.byte	W01
	.byte		PAN   , c_v-34
	.byte	W19
	.byte	W24
	.byte		N02   , Bn3 , v120
	.byte	W02
	.byte		        Dn4 
	.byte	W02
	.byte		        Bn3 , v060
	.byte	W02
	.byte		        Dn4 
	.byte	W17
	.byte		PAN   , c_v+26
	.byte	W01
	.byte		N02   , Bn3 , v120
	.byte	W02
	.byte		        Dn4 
	.byte	W02
	.byte		        Bn3 , v060
	.byte	W02
	.byte		        Dn4 
	.byte	W18
	.byte	W23
	.byte		PAN   , c_v-34
	.byte	W01
	.byte		N02   , Bn3 , v120
	.byte	W02
	.byte		        Dn4 
	.byte	W02
	.byte		        Bn3 , v060
	.byte	W02
	.byte		        Dn4 
	.byte	W17
	.byte		PAN   , c_v+26
	.byte	W01
	.byte		N02   , Cn4 , v120
	.byte	W02
	.byte		        En4 
	.byte	W02
	.byte		        Cn4 , v060
	.byte	W02
	.byte		        En4 
	.byte	W18
	.byte	PEND
	.byte	W23
	.byte		PAN   , c_v-34
	.byte	W01
	.byte		N02   , An3 , v120
	.byte	W02
	.byte		        Dn4 
	.byte	W02
	.byte		        An3 , v060
	.byte	W02
	.byte		        Dn4 
	.byte	W17
	.byte		PAN   , c_v+26
	.byte	W01
	.byte		N02   , An3 , v120
	.byte	W02
	.byte		        Dn4 
	.byte	W02
	.byte		        An3 , v060
	.byte	W02
	.byte		        Dn4 
	.byte	W18
	.byte	PEND
	.byte	W23
	.byte		PAN   , c_v-34
	.byte	W01
	.byte		N02   , Bn3 , v120
	.byte	W02
	.byte		        Dn4 
	.byte	W02
	.byte		        Bn3 , v060
	.byte	W02
	.byte		        Dn4 
	.byte	W17
	.byte		PAN   , c_v+26
	.byte	W01
	.byte		N02   , Bn3 , v120
	.byte	W02
	.byte		        Dn4 
	.byte	W02
	.byte		        Bn3 , v060
	.byte	W02
	.byte		        Dn4 
	.byte	W18
	.byte	PEND
	.byte	W23
	.byte		PAN   , c_v-34
	.byte	W01
	.byte		N02   , Cn4 , v120
	.byte	W02
	.byte		        En4 
	.byte	W02
	.byte		        Cn4 , v060
	.byte	W02
	.byte		        En4 
	.byte	W17
	.byte		PAN   , c_v+26
	.byte	W01
	.byte		N02   , Cn4 , v120
	.byte	W02
	.byte		        En4 
	.byte	W02
	.byte		        Cn4 , v060
	.byte	W02
	.byte		        En4 
	.byte	W18
	.byte	PEND
	.byte	PATT
	 .word	seq_101_6 + 0x62
	.byte	W23
	.byte		PAN   , c_v-34
	.byte	W01
	.byte		N02   , An3 , v120
	.byte	W02
	.byte		        Dn4 
	.byte	W02
	.byte		        An3 , v060
	.byte	W02
	.byte		        Dn4 
	.byte	W17
	.byte		PAN   , c_v+26
	.byte	W01
	.byte		N02   , Bn3 , v120
	.byte	W02
	.byte		        Dn4 
	.byte	W02
	.byte		        Bn3 , v060
	.byte	W02
	.byte		        Dn4 
	.byte	W18
	.byte	PATT
	 .word	seq_101_6 + 0x62
	.byte	PATT
	 .word	seq_101_6 + 0x62
	.byte	PATT
	 .word	seq_101_6 + 0x26
	.byte	PATT
	 .word	seq_101_6 + 0x44
	.byte	PATT
	 .word	seq_101_6 + 0x62
	.byte	PATT
	 .word	seq_101_6 + 0x80
	.byte	W23
	.byte		PAN   , c_v-34
	.byte	W01
	.byte		N02   , Bn3 , v120
	.byte	W02
	.byte		        Dn4 
	.byte	W02
	.byte		        Bn3 , v060
	.byte	W02
	.byte		        Dn4 
	.byte	W17
	.byte		PAN   , c_v+26
	.byte	W01
	.byte		N02   , Bn3 , v120
	.byte	W02
	.byte		        Gn4 
	.byte	W02
	.byte		        Bn3 , v060
	.byte	W02
	.byte		        Gn4 
	.byte	W18
	.byte	W23
	.byte		PAN   , c_v-34
	.byte	W01
	.byte		N02   , Cn4 , v120
	.byte	W02
	.byte		        En4 
	.byte	W02
	.byte		        Cn4 , v060
	.byte	W02
	.byte		        En4 
	.byte	W17
	.byte		PAN   , c_v+26
	.byte	W01
	.byte		N02   , Fs3 , v120
	.byte	W02
	.byte		        Cn4 
	.byte	W02
	.byte		        Fs3 , v060
	.byte	W02
	.byte		        Cn4 
	.byte	W17
	.byte		PAN   , c_v-34
	.byte	W01
	.byte		N02   , Gn3 , v120
	.byte	W02
	.byte		        Bn3 
	.byte	W02
	.byte		        Gn3 , v060
	.byte	W02
	.byte		        Bn3 
	.byte	W02
	.byte		        Gn3 , v040
	.byte	W02
	.byte		        Bn3 
	.byte	W02
	.byte		        Gn3 
	.byte	W02
	.byte		        Bn3 
	.byte	W02
	.byte		        Gn3 , v020
	.byte	W02
	.byte		        Bn3 
	.byte	W02
	.byte		        Gn3 
	.byte	W02
	.byte		        Bn3 
	.byte	W01
	.byte		PAN   , c_v+26
	.byte	W01
	.byte		N02   , Gn4 , v120
	.byte	W02
	.byte		        Bn4 
	.byte	W02
	.byte		        Gn4 , v060
	.byte	W02
	.byte		        Bn4 
	.byte	W02
	.byte		        Gn4 , v040
	.byte	W02
	.byte		        Bn4 
	.byte	W02
	.byte		        Gn4 
	.byte	W02
	.byte		        Bn4 
	.byte	W02
	.byte		        Gn4 
	.byte	W02
	.byte		        Bn4 
	.byte	W02
	.byte		        Gn4 
	.byte	W02
	.byte		        Bn4 , v020
	.byte	W02
	.byte		        Gn4 
	.byte	W02
	.byte		        Bn4 
	.byte	W02
	.byte		        Gn4 
	.byte	W02
	.byte		        Bn4 
	.byte	W18
	.byte	W72
	.byte	W72
	.byte	W72
	.byte	W72
	.byte	W72
	.byte	W72
	.byte	W72
	.byte	W72
	.byte	W72
	.byte	W24
	.byte		PAN   , c_v+16
	.byte	W01
	.byte		N02   , Dn3 , v120
	.byte	W02
	.byte		        An3 , v100
	.byte	W02
	.byte		        Dn4 , v120
	.byte	W02
	.byte		        Dn3 , v040
	.byte	W02
	.byte		        An3 
	.byte	W02
	.byte		        Dn4 
	.byte	W02
	.byte		        Dn3 , v020
	.byte	W02
	.byte		        An3 
	.byte	W02
	.byte		        Dn4 
	.byte	W08
	.byte		        Dn4 , v100
	.byte	W02
	.byte		        An4 , v080
	.byte	W02
	.byte		        Dn5 , v100
	.byte	W02
	.byte		        Dn4 , v040
	.byte	W02
	.byte		        An4 
	.byte	W02
	.byte		        Dn5 
	.byte	W02
	.byte		        Dn4 , v020
	.byte	W02
	.byte		        An4 
	.byte	W02
	.byte		        Dn5 
	.byte	W07
	.byte	W72
	.byte	W24
	.byte	W01
	.byte		N02   , Dn3 , v120
	.byte	W02
	.byte		        Gn3 , v100
	.byte	W02
	.byte		        Dn4 , v120
	.byte	W02
	.byte		        Dn3 , v040
	.byte	W02
	.byte		        Gn3 
	.byte	W02
	.byte		        Dn4 
	.byte	W02
	.byte		        Dn3 , v020
	.byte	W02
	.byte		        Gn3 
	.byte	W02
	.byte		        Dn4 
	.byte	W08
	.byte		        Dn4 , v100
	.byte	W02
	.byte		        Gn4 , v080
	.byte	W02
	.byte		        Dn5 , v100
	.byte	W02
	.byte		        Dn4 , v040
	.byte	W02
	.byte		        Gn4 
	.byte	W02
	.byte		        Dn5 
	.byte	W02
	.byte		        Dn4 , v020
	.byte	W02
	.byte		        Gn4 
	.byte	W02
	.byte		        Dn5 
	.byte	W07
	.byte	PEND
	.byte	W72
	.byte	W72
	.byte	W72
	.byte	W72
	.byte	W72
	.byte	W72
	.byte	W72
	.byte	W72
	.byte	W72
	.byte	W72
	.byte	W72
	.byte	W72
	.byte	W72
	.byte	W24
	.byte	W01
	.byte		        Dn3 , v120
	.byte	W02
	.byte		        An3 , v100
	.byte	W02
	.byte		        Dn4 , v120
	.byte	W02
	.byte		        Dn3 , v040
	.byte	W02
	.byte		        An3 
	.byte	W02
	.byte		        Dn4 
	.byte	W02
	.byte		        Dn3 , v020
	.byte	W02
	.byte		        An3 
	.byte	W02
	.byte		        Dn4 
	.byte	W08
	.byte		        Dn4 , v100
	.byte	W02
	.byte		        An4 , v080
	.byte	W02
	.byte		        Dn5 , v100
	.byte	W02
	.byte		        Dn4 , v040
	.byte	W02
	.byte		        An4 
	.byte	W02
	.byte		        Dn5 
	.byte	W02
	.byte		        Dn4 , v020
	.byte	W02
	.byte		        An4 
	.byte	W02
	.byte		        Dn5 
	.byte	W07
	.byte	W72
	.byte	PATT
	 .word	seq_101_6 + 0x19D
	.byte	W72
	.byte	W72
	.byte	W72
	.byte	W68
	.byte	W01
	.byte		PAN   , c_v-34
	.byte	W03
	.byte	GOTO
	 .word	seq_101_6 + 0xC
	.byte	FINE

@*********************** Track 08 ***********************@

seq_101_7:
	.byte	KEYSH , seq_101_key+0
	.byte	W06
	.byte		VOICE , 31
	.byte	W01
	.byte		VOL   , 37*seq_101_mvl/mxv
	.byte	W01
	.byte		PAN   , c_v-34
	.byte	W16
	.byte	W01
	.byte		N24   , Dn3 , v120
	.byte	W24
	.byte	W03
	.byte		N21   , Dn3 , v040
	.byte	W21
	.byte		N24   , Dn3 , v120
	.byte	W23
	.byte	PEND
	.byte	W01
	.byte		N24   , Cn3 , v120
	.byte	W24
	.byte	W03
	.byte		N21   , Cn3 , v040
	.byte	W21
	.byte		N24   , Bn2 , v120
	.byte	W23
	.byte	PEND
	.byte	W01
	.byte		N24   , An2 , v120
	.byte	W24
	.byte	W03
	.byte		N21   , An2 , v040
	.byte	W21
	.byte		N24   , En3 , v120
	.byte	W23
	.byte	PEND
	.byte	W01
	.byte		N24   , Dn3 , v120
	.byte	W24
	.byte	W03
	.byte		        Dn3 , v040
	.byte	W24
	.byte	W03
	.byte		N18   , Dn3 , v020
	.byte	W17
	.byte	PEND
	.byte	W01
	.byte		N24   , En3 , v120
	.byte	W24
	.byte	W03
	.byte		N21   , En3 , v040
	.byte	W21
	.byte		N12   , Fs3 , v120
	.byte	W12
	.byte		        En3 
	.byte	W11
	.byte	PEND
	.byte	PATT
	 .word	seq_101_7 + 0xC
	.byte	W01
	.byte		N24   , En3 , v120
	.byte	W24
	.byte		N12   , Fs3 
	.byte	W12
	.byte		        Fs3 , v040
	.byte	W12
	.byte		        Gn3 , v120
	.byte	W12
	.byte		        Gn3 , v040
	.byte	W11
	.byte	W01
	.byte		N36   , En3 , v120
	.byte	W36
	.byte		N06   , Fs3 
	.byte	W06
	.byte		        En3 
	.byte	W06
	.byte		N21   , Dn3 
	.byte	W21
	.byte		N03   , Dn3 , v040
	.byte	W02
	.byte	PATT
	 .word	seq_101_7 + 0xC
	.byte	PATT
	 .word	seq_101_7 + 0x1B
	.byte	PATT
	 .word	seq_101_7 + 0x2A
	.byte	PATT
	 .word	seq_101_7 + 0x39
	.byte	PATT
	 .word	seq_101_7 + 0x48
	.byte	W01
	.byte		N24   , Dn3 , v120
	.byte	W24
	.byte	W03
	.byte		N21   , Dn3 , v040
	.byte	W21
	.byte		N24   , Bn2 , v120
	.byte	W23
	.byte	W01
	.byte		        Cn3 
	.byte	W24
	.byte		N10   , Dn3 
	.byte	W10
	.byte		N14   , Dn3 , v040
	.byte	W14
	.byte		N10   , Cn3 , v120
	.byte	W10
	.byte		N14   , Cn3 , v040
	.byte	W13
	.byte	W01
	.byte		N48   , Bn2 , v120
	.byte	W48
	.byte		N23   , Bn2 , v040
	.byte	W23
	.byte	W72
	.byte	W72
	.byte	W72
	.byte	W72
	.byte	W72
	.byte	W72
	.byte	W72
	.byte	W72
	.byte	W72
	.byte	W72
	.byte	W72
	.byte	W72
	.byte	W01
	.byte		N24   , En3 , v120
	.byte	W24
	.byte		        Fs3 , v100
	.byte	W24
	.byte		        Gn3 , v080
	.byte	W23
	.byte	W01
	.byte		        Bn3 , v100
	.byte	W24
	.byte		        An3 
	.byte	W24
	.byte		        Gn3 
	.byte	W23
	.byte	W01
	.byte		N60   , Bn3 
	.byte	W40
	.byte	W01
	.byte		VOL   , 29*seq_101_mvl/mxv
	.byte	W16
	.byte		        22*seq_101_mvl/mxv
	.byte	W03
	.byte		N12   , Bn3 , v040
	.byte	W10
	.byte		VOL   , 29*seq_101_mvl/mxv
	.byte	W01
	.byte		        37*seq_101_mvl/mxv
	.byte	W01
	.byte		N68   , An3 , v080
	.byte	W44
	.byte	W03
	.byte		VOL   , 29*seq_101_mvl/mxv
	.byte	W08
	.byte		        22*seq_101_mvl/mxv
	.byte	W09
	.byte		        14*seq_101_mvl/mxv
	.byte	W06
	.byte		        7*seq_101_mvl/mxv
	.byte	W01
	.byte	W72
	.byte	W72
	.byte	W72
	.byte	W72
	.byte	W72
	.byte	W72
	.byte	W72
	.byte	W72
	.byte	W72
	.byte	W72
	.byte	W72
	.byte	W72
	.byte	W72
	.byte	W72
	.byte	W72
	.byte	W68
	.byte	W02
	.byte		        37*seq_101_mvl/mxv
	.byte	W02
	.byte	GOTO
	 .word	seq_101_7 + 0xC
	.byte	FINE

@*********************** Track 09 ***********************@

seq_101_8:
	.byte	KEYSH , seq_101_key+0
	.byte	W06
	.byte		VOICE , 25
	.byte	W01
	.byte		VOL   , 29*seq_101_mvl/mxv
	.byte	W01
	.byte		PAN   , c_v-64
	.byte	W16
	.byte	W72
	.byte	W72
	.byte	W72
	.byte	W72
	.byte	W72
	.byte	W72
	.byte	W72
	.byte	W72
	.byte	W72
	.byte	W72
	.byte	W72
	.byte	W72
	.byte	W72
	.byte	W72
	.byte	W72
	.byte	W72
	.byte	W72
	.byte	W72
	.byte	W72
	.byte	W72
	.byte	W72
	.byte	W72
	.byte	W72
	.byte	W72
	.byte	W72
	.byte	W72
	.byte	W72
	.byte	W72
	.byte	W72
	.byte	W72
	.byte	W72
	.byte	W72
	.byte	W72
	.byte	W72
	.byte	W72
	.byte	W72
	.byte	W72
	.byte	W72
	.byte	W12
	.byte		N02   , Bn3 , v120
	.byte	W02
	.byte		        Dn4 
	.byte	W02
	.byte		        Bn3 , v060
	.byte	W02
	.byte		        Dn4 
	.byte	W02
	.byte		        Bn3 , v040
	.byte	W02
	.byte		        Dn4 
	.byte	W02
	.byte		        Bn3 , v120
	.byte	W02
	.byte		        Dn4 
	.byte	W02
	.byte		        Bn3 , v060
	.byte	W02
	.byte		        Dn4 
	.byte	W02
	.byte		        Bn3 , v040
	.byte	W02
	.byte		        Dn4 
	.byte	W02
	.byte		        Dn4 , v120
	.byte	W02
	.byte		        Gn4 
	.byte	W02
	.byte		        Dn4 , v060
	.byte	W02
	.byte		        Gn4 
	.byte	W02
	.byte		        Dn4 , v040
	.byte	W02
	.byte		        Gn4 
	.byte	W02
	.byte		        Dn4 , v120
	.byte	W02
	.byte		        Gn4 
	.byte	W02
	.byte		        Dn4 , v060
	.byte	W02
	.byte		        Gn4 
	.byte	W02
	.byte		        Dn4 , v040
	.byte	W02
	.byte		        Gn4 
	.byte	W02
	.byte		        Dn4 , v120
	.byte	W02
	.byte		        Bn4 
	.byte	W02
	.byte		        Dn4 , v060
	.byte	W02
	.byte		        Bn4 
	.byte	W02
	.byte		        Dn4 , v040
	.byte	W02
	.byte		        Bn4 
	.byte	W02
	.byte	W11
	.byte		PAN   , c_v+63
	.byte	W01
	.byte		N02   , Bn3 , v120
	.byte	W02
	.byte		        Dn4 
	.byte	W02
	.byte		        Bn3 , v060
	.byte	W02
	.byte		        Dn4 
	.byte	W02
	.byte		        Bn3 , v040
	.byte	W02
	.byte		        Dn4 
	.byte	W02
	.byte		        Dn4 , v120
	.byte	W02
	.byte		        Fn4 
	.byte	W02
	.byte		        Dn4 , v060
	.byte	W02
	.byte		        Fn4 
	.byte	W02
	.byte		        Dn4 , v040
	.byte	W02
	.byte		        Fn4 
	.byte	W02
	.byte		        Dn4 , v120
	.byte	W02
	.byte		        Bn4 
	.byte	W02
	.byte		        Dn4 , v060
	.byte	W02
	.byte		        Bn4 
	.byte	W02
	.byte		        Dn4 , v040
	.byte	W02
	.byte		        Bn4 
	.byte	W02
	.byte		        Bn4 , v120
	.byte	W02
	.byte		        Dn5 
	.byte	W02
	.byte		        Bn4 , v060
	.byte	W02
	.byte		        Dn5 
	.byte	W02
	.byte		        Bn4 , v040
	.byte	W02
	.byte		        Dn5 
	.byte	W02
	.byte		        Fn4 , v120
	.byte	W02
	.byte		        Bn4 
	.byte	W02
	.byte		        Fn4 , v060
	.byte	W02
	.byte		        Bn4 
	.byte	W02
	.byte		        Fn4 , v040
	.byte	W02
	.byte		        Bn4 
	.byte	W02
	.byte	W72
	.byte	W72
	.byte	W72
	.byte	W56
	.byte	W03
	.byte		PAN   , c_v-49
	.byte	W01
	.byte		N02   , Bn3 , v120
	.byte	W02
	.byte		        En4 
	.byte	W02
	.byte		        Bn3 , v060
	.byte	W02
	.byte		        En4 
	.byte	W02
	.byte		        Bn3 , v040
	.byte	W02
	.byte		        En4 
	.byte	W02
	.byte		        An3 , v120
	.byte	W02
	.byte		        En4 
	.byte	W02
	.byte		        An3 , v060
	.byte	W02
	.byte		        En4 
	.byte	W02
	.byte		        An3 , v040
	.byte	W02
	.byte		        En4 
	.byte	W02
	.byte		        Cn4 , v120
	.byte	W02
	.byte		        Fs4 
	.byte	W02
	.byte		        Cn4 , v060
	.byte	W02
	.byte		        Fs4 
	.byte	W02
	.byte		        Cn4 , v040
	.byte	W02
	.byte		        Fs4 
	.byte	W02
	.byte		        Dn4 , v120
	.byte	W02
	.byte		        Fs4 
	.byte	W02
	.byte		        Dn4 , v060
	.byte	W02
	.byte		        Fs4 
	.byte	W02
	.byte		        Dn4 , v040
	.byte	W02
	.byte		        Fs4 
	.byte	W02
	.byte		        En4 , v120
	.byte	W02
	.byte		        Gn4 
	.byte	W02
	.byte		        En4 , v060
	.byte	W02
	.byte		        Gn4 
	.byte	W02
	.byte		        En4 , v040
	.byte	W02
	.byte		        Gn4 
	.byte	W13
	.byte		PAN   , c_v+26
	.byte	W01
	.byte		N02   , Cs4 , v120
	.byte	W02
	.byte		        En4 
	.byte	W02
	.byte		        Cs4 , v060
	.byte	W02
	.byte		        En4 
	.byte	W02
	.byte		        Cs4 , v040
	.byte	W02
	.byte		        En4 
	.byte	W02
	.byte		        An3 , v120
	.byte	W02
	.byte		        En4 
	.byte	W02
	.byte		        An3 , v060
	.byte	W02
	.byte		        En4 
	.byte	W02
	.byte		        An3 , v040
	.byte	W02
	.byte		        En4 
	.byte	W02
	.byte		        En4 , v120
	.byte	W02
	.byte		        Gn4 
	.byte	W02
	.byte		        En4 , v060
	.byte	W02
	.byte		        Gn4 
	.byte	W02
	.byte		        En4 , v040
	.byte	W02
	.byte		        Gn4 
	.byte	W02
	.byte		        Gn4 , v120
	.byte	W02
	.byte		        Bn4 
	.byte	W02
	.byte		        Gn4 , v060
	.byte	W02
	.byte		        Bn4 
	.byte	W02
	.byte		        Gn4 , v040
	.byte	W02
	.byte		        Bn4 
	.byte	W02
	.byte		        En4 , v120
	.byte	W02
	.byte		        Gn4 
	.byte	W02
	.byte		        En4 , v060
	.byte	W02
	.byte		        Gn4 
	.byte	W02
	.byte		        En4 , v040
	.byte	W02
	.byte		        Gn4 
	.byte	W24
	.byte	W02
	.byte	W68
	.byte	W03
	.byte		PAN   , c_v-64
	.byte	W01
	.byte	W72
	.byte	GOTO
	 .word	seq_101_8 + 0xC
	.byte	FINE

@*********************** Track 10 ***********************@

seq_101_9:
	.byte	KEYSH , seq_101_key+0
	.byte	W09
	.byte		VOICE , 70
	.byte	W01
	.byte		VOL   , 22*seq_101_mvl/mxv
	.byte	W01
	.byte		PAN   , c_v+0
	.byte	W01
	.byte		MODT  , mod_vib
	.byte	W01
	.byte		LFOS  , 30
	.byte	W01
	.byte		MOD   , 1
	.byte	W10
	.byte	W72
	.byte	W72
	.byte	W72
	.byte	W72
	.byte	W72
	.byte	W72
	.byte	W72
	.byte	W72
	.byte	W72
	.byte	W72
	.byte	W72
	.byte	W72
	.byte	W72
	.byte	W72
	.byte	W72
	.byte	W72
	.byte		N24   , Bn4 , v120
	.byte	W24
	.byte		        Cn5 
	.byte	W24
	.byte		        Dn5 
	.byte	W24
	.byte	PEND
	.byte		N36   , Fs5 , v120
	.byte	W36
	.byte		N12   , Fs5 , v080
	.byte	W12
	.byte		N24   , Gn5 , v120
	.byte	W24
	.byte	PEND
	.byte		N60   , Dn5 , v120
	.byte	W60
	.byte		N12   , Dn5 , v080
	.byte	W12
	.byte	PEND
	.byte		N60   , Gn4 , v120
	.byte	W60
	.byte		N12   , Gn4 , v080
	.byte	W12
	.byte	PEND
	.byte		N24   , Cn5 , v120
	.byte	W24
	.byte		        Bn4 
	.byte	W24
	.byte		        Cn5 
	.byte	W24
	.byte	PEND
	.byte		N48   , Dn5 , v120
	.byte	W48
	.byte		N24   , An4 
	.byte	W24
	.byte	PEND
	.byte		N96   , Bn4 
	.byte	W72
	.byte	W24
	.byte		N48   , Bn4 , v080
	.byte	W48
	.byte	W72
	.byte	W72
	.byte	W72
	.byte	W72
	.byte	W72
	.byte	W72
	.byte	W72
	.byte	W72
	.byte	PATT
	 .word	seq_101_9 + 0x25
	.byte	PATT
	 .word	seq_101_9 + 0x2E
	.byte	PATT
	 .word	seq_101_9 + 0x3B
	.byte	PATT
	 .word	seq_101_9 + 0x44
	.byte	PATT
	 .word	seq_101_9 + 0x4D
	.byte	PATT
	 .word	seq_101_9 + 0x56
	.byte		N96   , Bn4 , v120
	.byte	W72
	.byte	W24
	.byte		N48   , Bn4 , v080
	.byte	W48
	.byte	W72
	.byte	W72
	.byte	W72
	.byte	W72
	.byte	W72
	.byte	W72
	.byte	W72
	.byte		N12   , An4 , v120
	.byte	W12
	.byte		N05   , Fs4 , v100
	.byte	W05
	.byte		N07   , Fs4 , v060
	.byte	W07
	.byte		N12   , Ds4 , v120
	.byte	W12
	.byte		N05   , Cn4 , v100
	.byte	W05
	.byte		N07   , Cn4 , v060
	.byte	W07
	.byte		N12   , An3 , v120
	.byte	W12
	.byte		N05   , Fs3 , v100
	.byte	W05
	.byte		N07   , Fs3 , v060
	.byte	W07
	.byte	GOTO
	 .word	seq_101_9 + 0x15
	.byte	FINE

@*********************** Track 11 ***********************@

seq_101_10:
	.byte	KEYSH , seq_101_key+0
	.byte	W09
	.byte		VOICE , 80
	.byte	W01
	.byte		VOL   , 29*seq_101_mvl/mxv
	.byte	W01
	.byte		PAN   , c_v+0
	.byte	W01
	.byte		MODT  , mod_vib
	.byte	W01
	.byte		LFOS  , 30
	.byte	W01
	.byte		MOD   , 3
	.byte	W10
	.byte	W72
	.byte	W72
	.byte	W72
	.byte	W72
	.byte	W72
	.byte	W72
	.byte	W72
	.byte	W72
	.byte	W72
	.byte	W72
	.byte	W72
	.byte	W72
	.byte	W72
	.byte	W72
	.byte	W72
	.byte	W72
	.byte		N24   , Dn4 , v120
	.byte	W24
	.byte		        En4 
	.byte	W24
	.byte		        Fs4 
	.byte	W24
	.byte	PEND
	.byte		N36   , An4 , v120
	.byte	W36
	.byte		N12   , An4 , v080
	.byte	W12
	.byte		N24   , Bn4 , v120
	.byte	W24
	.byte	PEND
	.byte		N60   , Gn4 , v120
	.byte	W60
	.byte		N12   , Gn4 , v080
	.byte	W12
	.byte	PEND
	.byte		N60   , Bn3 , v120
	.byte	W60
	.byte		N12   , Bn3 , v080
	.byte	W12
	.byte	PEND
	.byte		N36   , En4 , v120
	.byte	W36
	.byte		N12   , En4 , v080
	.byte	W12
	.byte		        An4 , v120
	.byte	W12
	.byte		        Gn4 
	.byte	W12
	.byte	PEND
	.byte		N24   , Fs4 , v120
	.byte	W24
	.byte		        En4 
	.byte	W24
	.byte		        Dn4 
	.byte	W24
	.byte	PEND
	.byte		N48   , Dn4 , v120
	.byte	W48
	.byte		N24   , En4 
	.byte	W24
	.byte	PEND
	.byte		N48   , Fn4 , v120
	.byte	W48
	.byte		N24   , Fn4 , v080
	.byte	W24
	.byte	PEND
	.byte	W72
	.byte	W72
	.byte	W72
	.byte	W72
	.byte	W72
	.byte	W72
	.byte	W72
	.byte	W72
	.byte	PATT
	 .word	seq_101_10 + 0x25
	.byte	PATT
	 .word	seq_101_10 + 0x2E
	.byte	PATT
	 .word	seq_101_10 + 0x3B
	.byte	PATT
	 .word	seq_101_10 + 0x44
	.byte	PATT
	 .word	seq_101_10 + 0x4D
	.byte	PATT
	 .word	seq_101_10 + 0x5B
	.byte	PATT
	 .word	seq_101_10 + 0x64
	.byte	PATT
	 .word	seq_101_10 + 0x6C
	.byte	W72
	.byte	W72
	.byte	W72
	.byte	W72
	.byte	W72
	.byte	W72
	.byte	W72
	.byte		N12   , Cn4 , v120
	.byte	W12
	.byte		N05   , An3 , v100
	.byte	W05
	.byte		N07   , An3 , v060
	.byte	W07
	.byte		N12   , Fs3 , v120
	.byte	W12
	.byte		N05   , Ds3 , v100
	.byte	W05
	.byte		N07   , Ds3 , v060
	.byte	W07
	.byte		N12   , Cn3 , v120
	.byte	W12
	.byte		N05   , An2 , v100
	.byte	W05
	.byte		N07   , An2 , v060
	.byte	W07
	.byte	GOTO
	 .word	seq_101_10 + 0x15
	.byte	FINE

@******************************************************@

	.align	2

seq_101:
	.byte	11	@ NumTrks
	.byte	0	@ NumBlks
	.byte	seq_101_pri	@ Priority
	.byte	seq_101_rev	@ Reverb

	.word	seq_101_grp

	.word	seq_101_0
	.word	seq_101_1
	.word	seq_101_2
	.word	seq_101_3
	.word	seq_101_4
	.word	seq_101_5
	.word	seq_101_6
	.word	seq_101_7
	.word	seq_101_8
	.word	seq_101_9
	.word	seq_101_10

	.end
