@ File generated by m4a2s Song-Module
	.include "MPlayDef.s"

	.equ	seq_210_grp, bank_025
	.equ	seq_210_pri, 50
	.equ	seq_210_rev, 178
	.equ	seq_210_mvl, 127
	.equ	seq_210_key, 0

	.section .rodata
	.global	seq_210
	.align	2

@*********************** Track 01 ***********************@

seq_210_0:
	.byte	KEYSH , seq_210_key+0
	.byte	TEMPO , 158/2
	.byte		VOICE , 48
	.byte		MOD   , 120
	.byte		VOL   , 80*seq_210_mvl/mxv
	.byte	W01
	.byte		PAN   , c_v+0
	.byte		MODT  , mod_pan
	.byte	W11
	.byte		N12   , Gn2 , v092
	.byte	W12
	.byte		        Cn3 
	.byte	W12
	.byte		        Fn3 
	.byte	W12
	.byte	TEMPO , 168/2
	.byte		        As3 
	.byte	W12
	.byte	TEMPO , 192/2
	.byte		        Cn4 
	.byte	W12
	.byte		        Fn4 
	.byte	W12
	.byte	FINE

@*********************** Track 02 ***********************@

seq_210_1:
	.byte	KEYSH , seq_210_key+0
	.byte	W02
	.byte		VOICE , 42
	.byte		MOD   , 50
	.byte		VOL   , 80*seq_210_mvl/mxv
	.byte	W01
	.byte		MODT  , mod_pan
	.byte		PAN   , c_v+0
	.byte	W09
	.byte		N03   , Gn2 , v127
	.byte	W06
	.byte		        Gn2 , v052
	.byte	W06
	.byte		        Cn3 , v127
	.byte	W06
	.byte		        Cn3 , v052
	.byte	W06
	.byte		        Fn3 , v127
	.byte	W06
	.byte		        Fn3 , v052
	.byte	W06
	.byte		        As3 , v127
	.byte	W06
	.byte		        As3 , v052
	.byte	W06
	.byte		        Cn4 , v127
	.byte	W06
	.byte		        Cn4 , v052
	.byte	W06
	.byte		        Fn4 , v127
	.byte	W06
	.byte		        Fn4 , v052
	.byte	W03
	.byte	FINE

@*********************** Track 03 ***********************@

seq_210_2:
	.byte	KEYSH , seq_210_key+0
	.byte	W04
	.byte		VOICE , 42
	.byte		MOD   , 50
	.byte		VOL   , 80*seq_210_mvl/mxv
	.byte	W01
	.byte		MODT  , mod_pan
	.byte		PAN   , c_v+0
	.byte	W07
	.byte		N03   , Dn2 , v127
	.byte	W06
	.byte		        Dn2 , v052
	.byte	W06
	.byte		        Gn2 , v127
	.byte	W06
	.byte		        Gn2 , v052
	.byte	W06
	.byte		        Cn3 , v127
	.byte	W06
	.byte		        Cn3 , v052
	.byte	W06
	.byte		        Fn3 , v127
	.byte	W06
	.byte		        Fn3 , v052
	.byte	W06
	.byte		        Gn3 , v127
	.byte	W06
	.byte		        Gn3 , v052
	.byte	W06
	.byte		        Cn4 , v127
	.byte	W06
	.byte		        Cn4 , v052
	.byte	W03
	.byte	FINE

@*********************** Track 04 ***********************@

seq_210_3:
	.byte	KEYSH , seq_210_key+0
	.byte	W06
	.byte		VOICE , 48
	.byte		MOD   , 50
	.byte		VOL   , 59*seq_210_mvl/mxv
	.byte	W01
	.byte		MODT  , mod_pan
	.byte		PAN   , c_v+0
	.byte	W05
	.byte		N04   , Gn2 , v127
	.byte	W06
	.byte		        Gn2 , v060
	.byte	W06
	.byte		        Cn3 , v127
	.byte	W06
	.byte		        Cn3 , v060
	.byte	W06
	.byte		        Fn3 , v127
	.byte	W06
	.byte		        Fn3 , v060
	.byte	W06
	.byte		        As3 , v127
	.byte	W06
	.byte		        As3 , v060
	.byte	W06
	.byte		        Cn4 , v127
	.byte	W06
	.byte		        Cn4 , v060
	.byte	W06
	.byte		        Fn4 , v127
	.byte	W06
	.byte		        Fn4 , v060
	.byte	W04
	.byte	FINE

@*********************** Track 05 ***********************@

seq_210_4:
	.byte	KEYSH , seq_210_key+0
	.byte	W08
	.byte		VOICE , 78
	.byte		PAN   , c_v+30
	.byte		VOL   , 50*seq_210_mvl/mxv
	.byte	W04
	.byte		N04   , Gn2 , v127
	.byte	W11
	.byte		PAN   , c_v-30
	.byte	W01
	.byte		N04   , Cn3 
	.byte	W11
	.byte		PAN   , c_v+30
	.byte	W01
	.byte		N04   , Fn3 
	.byte	W11
	.byte		PAN   , c_v-30
	.byte	W01
	.byte		N04   , As3 
	.byte	W11
	.byte		PAN   , c_v+30
	.byte	W01
	.byte		N04   , Cn4 
	.byte	W06
	.byte		        Cn4 , v060
	.byte	W05
	.byte		PAN   , c_v-30
	.byte	W01
	.byte		N04   , Fn4 , v127
	.byte	W06
	.byte		        Fn4 , v060
	.byte	W04
	.byte	FINE

@*********************** Track 06 ***********************@

seq_210_5:
	.byte	KEYSH , seq_210_key+0
	.byte	W09
	.byte		VOICE , 77
	.byte		PAN   , c_v-30
	.byte		VOL   , 50*seq_210_mvl/mxv
	.byte	W03
	.byte		N04   , Dn2 , v127
	.byte	W11
	.byte		PAN   , c_v+30
	.byte	W01
	.byte		N04   , Gn2 
	.byte	W11
	.byte		PAN   , c_v-30
	.byte	W01
	.byte		N04   , Cn3 
	.byte	W11
	.byte		PAN   , c_v+30
	.byte	W01
	.byte		N04   , Fn3 
	.byte	W11
	.byte		PAN   , c_v-30
	.byte	W01
	.byte		N04   , Gn3 
	.byte	W06
	.byte		        Gn3 , v060
	.byte	W05
	.byte		PAN   , c_v+30
	.byte	W01
	.byte		N04   , Cn4 , v127
	.byte	W06
	.byte		        Cn4 , v060
	.byte	W04
	.byte	FINE

@******************************************************@

	.align	2

seq_210:
	.byte	6	@ NumTrks
	.byte	0	@ NumBlks
	.byte	seq_210_pri	@ Priority
	.byte	seq_210_rev	@ Reverb

	.word	seq_210_grp

	.word	seq_210_0
	.word	seq_210_1
	.word	seq_210_2
	.word	seq_210_3
	.word	seq_210_4
	.word	seq_210_5

	.end
