@ File generated by m4a2s Song-Module
	.include "MPlayDef.s"

	.equ	seq_125_grp, bank_014
	.equ	seq_125_pri, 50
	.equ	seq_125_rev, 188
	.equ	seq_125_mvl, 127
	.equ	seq_125_key, 0

	.section .rodata
	.global	seq_125
	.align	2

@*********************** Track 01 ***********************@

seq_125_0:
	.byte	KEYSH , seq_125_key+0
	.byte	TEMPO , 240/2
	.byte		VOICE , 127
	.byte	W01
	.byte		VOL   , 66*seq_125_mvl/mxv
	.byte	W01
	.byte		PAN   , c_v+0
	.byte	W10
	.byte	TEMPO , 90/2
	.byte	W12
	.byte	W24
	.byte	TEMPO , 88/2
	.byte	W24
	.byte		N02   , Gs7 , v040
	.byte	W06
	.byte	TEMPO , 84/2
	.byte	W06
	.byte		N09   , An7 , v060
	.byte	W12
	.byte	TEMPO , 88/2
	.byte		N02   , Gs7 , v040
	.byte	W06
	.byte		N03   , Gs7 , v060
	.byte	W06
	.byte	TEMPO , 44/2
	.byte		N03
	.byte	W12
	.byte	TEMPO , 90/2
	.byte		N03   , Cs6 , v120
	.byte	W12
	.byte		        Dn6 , v060
	.byte	W06
	.byte		        Cs6 , v120
	.byte	W30
	.byte		        Gs5 , v080
	.byte	W18
	.byte		        Bn6 , v100
	.byte	W06
	.byte		        Cn7 , v120
	.byte	W12
	.byte		N09   , An7 , v060
	.byte	W12
	.byte		N02   , Gn6 , v040
	.byte	W12
	.byte		N03   , Fs5 , v060
	.byte	W06
	.byte		N02   , Gn6 , v040
	.byte	W30
	.byte		N03   , Gs5 , v080
	.byte	W12
	.byte		        Bn6 , v120
	.byte	W12
	.byte		N03
	.byte	W24
	.byte	PEND
	.byte		N03   , Cs6 , v120
	.byte	W12
	.byte		        Dn6 , v060
	.byte	W06
	.byte		        Cs6 , v120
	.byte	W30
	.byte		        Gs5 , v080
	.byte	W18
	.byte		        Bn6 , v100
	.byte	W06
	.byte		        Cn7 , v120
	.byte	W12
	.byte		N09   , An7 , v060
	.byte	W12
	.byte	PEND
	.byte		N03   , Fn7 
	.byte	W06
	.byte		        Fs5 
	.byte	W06
	.byte		        Fn7 
	.byte	W36
	.byte		        Gs5 , v080
	.byte	W12
	.byte		        Bn6 , v120
	.byte	W12
	.byte		N03
	.byte	W24
	.byte	PATT
	 .word	seq_125_0 + 0x5C
	.byte	PATT
	 .word	seq_125_0 + 0x46
	.byte	PATT
	 .word	seq_125_0 + 0x5C
	.byte		N03   , Fn7 , v060
	.byte	W06
	.byte		        Fs5 
	.byte	W06
	.byte		        Fn7 
	.byte	W36
	.byte		        Gs5 , v080
	.byte	W12
	.byte		        Bn6 , v120
	.byte	W12
	.byte		N03
	.byte	W06
	.byte		        Gs7 , v060
	.byte	W06
	.byte		N09   , An7 
	.byte	W12
	.byte	PEND
	.byte	PATT
	 .word	seq_125_0 + 0x5C
	.byte	PATT
	 .word	seq_125_0 + 0x46
	.byte	PATT
	 .word	seq_125_0 + 0x5C
	.byte	PATT
	 .word	seq_125_0 + 0x46
	.byte	PATT
	 .word	seq_125_0 + 0x5C
	.byte	PATT
	 .word	seq_125_0 + 0x46
	.byte	PATT
	 .word	seq_125_0 + 0x5C
	.byte	PATT
	 .word	seq_125_0 + 0x92
	.byte	GOTO
	 .word	seq_125_0 + 0x2D
	.byte	FINE

@*********************** Track 02 ***********************@

seq_125_1:
	.byte	KEYSH , seq_125_key+0
	.byte		VOICE , 24
	.byte	W01
	.byte		VOL   , 55*seq_125_mvl/mxv
	.byte	W01
	.byte		PAN   , c_v-24
	.byte	W22
	.byte	W96
	.byte	W12
	.byte		N02   , Gs2 , v120
	.byte		N02   , En3 
	.byte	W24
	.byte		        Fs2 
	.byte		N02   , Dn3 
	.byte	W24
	.byte		        Gs2 
	.byte		N02   , En3 
	.byte	W24
	.byte		        Fs2 
	.byte		N02   , Dn3 
	.byte	W12
	.byte	PEND
	.byte	PATT
	 .word	seq_125_1 + 0xC
	.byte	PATT
	 .word	seq_125_1 + 0xC
	.byte		N02   , Gs2 , v120
	.byte		N02   , En3 
	.byte	W12
	.byte		        Gs2 
	.byte		N02   , En3 
	.byte	W72
	.byte		        Fs2 
	.byte		N02   , Dn3 
	.byte	W12
	.byte	PEND
	.byte	PATT
	 .word	seq_125_1 + 0xC
	.byte	W12
	.byte		N02   , Gs2 , v120
	.byte		N02   , En3 
	.byte	W24
	.byte		        Fs2 
	.byte		N02   , Dn3 
	.byte	W12
	.byte		        Gs2 
	.byte		N02   , En3 
	.byte	W48
	.byte	PATT
	 .word	seq_125_1 + 0xC
	.byte	PATT
	 .word	seq_125_1 + 0x2A
	.byte	PATT
	 .word	seq_125_1 + 0xC
	.byte	PATT
	 .word	seq_125_1 + 0xC
	.byte	PATT
	 .word	seq_125_1 + 0xC
	.byte	PATT
	 .word	seq_125_1 + 0xC
	.byte	PATT
	 .word	seq_125_1 + 0xC
	.byte	PATT
	 .word	seq_125_1 + 0xC
	.byte	PATT
	 .word	seq_125_1 + 0xC
	.byte	PATT
	 .word	seq_125_1 + 0x2A
	.byte	GOTO
	 .word	seq_125_1 + 0xC
	.byte	FINE

@*********************** Track 03 ***********************@

seq_125_2:
	.byte	KEYSH , seq_125_key+0
	.byte		VOICE , 22
	.byte	W01
	.byte		VOL   , 38*seq_125_mvl/mxv
	.byte	W01
	.byte		PAN   , c_v+0
	.byte	W01
	.byte		LFOS  , 30
	.byte	W01
	.byte		MODT  , mod_tre
	.byte	W01
	.byte		BENDR , 12
	.byte	W19
	.byte	W96
	.byte	W96
	.byte	W96
	.byte	W96
	.byte	W96
	.byte	W96
	.byte	W96
	.byte	W96
	.byte	W96
	.byte	W09
	.byte		MOD   , 20
	.byte	W02
	.byte		N11   , Dn5 , v100
	.byte	W12
	.byte		N05   , En5 , v120
	.byte	W05
	.byte		N03   , En5 , v040
	.byte	W07
	.byte		N05   , Fs5 , v100
	.byte	W05
	.byte		N03   , Fs5 , v020
	.byte	W07
	.byte		N11   , Gs5 , v120
	.byte	W12
	.byte		N05   , Fs5 , v100
	.byte	W05
	.byte		N03   , Fs5 , v020
	.byte	W07
	.byte		N05   , En5 , v120
	.byte	W05
	.byte		N03   , En5 , v040
	.byte	W07
	.byte		N05   , Dn5 , v100
	.byte	W05
	.byte		N03   , Dn5 , v020
	.byte	W06
	.byte		MOD   , 40
	.byte	W01
	.byte		N06   , Cn5 , v120
	.byte	W01
	.byte	W05
	.byte		        Dn5 
	.byte	W06
	.byte		        Cn5 
	.byte	W06
	.byte		        Dn5 
	.byte	W06
	.byte		N05   , Cn5 
	.byte	W05
	.byte		N02   , Cn5 , v040
	.byte	W68
	.byte	W09
	.byte		MOD   , 20
	.byte	W02
	.byte		N11   , Dn5 , v100
	.byte	W12
	.byte		N05   , En5 , v120
	.byte	W05
	.byte		N03   , En5 , v040
	.byte	W07
	.byte		N05   , Fs5 , v100
	.byte	W05
	.byte		N03   , Fs5 , v020
	.byte	W07
	.byte		N11   , Gs5 , v120
	.byte	W12
	.byte		N05   , Fs5 , v100
	.byte	W05
	.byte		N03   , Fs5 , v020
	.byte	W07
	.byte		N05   , En5 , v120
	.byte	W05
	.byte		N03   , En5 , v040
	.byte	W07
	.byte		N05   , Dn5 , v100
	.byte	W05
	.byte		N03   , Dn5 , v020
	.byte	W06
	.byte		MOD   , 40
	.byte	W01
	.byte		N06   , As5 , v120
	.byte	W01
	.byte	W05
	.byte		        Cn6 
	.byte	W06
	.byte		        As5 
	.byte	W06
	.byte		        Cn6 
	.byte	W06
	.byte		N05   , As5 
	.byte	W05
	.byte		N02   , As5 , v040
	.byte	W68
	.byte	W22
	.byte		VOL   , 33*seq_125_mvl/mxv
	.byte	W01
	.byte		N32   , En5 , v120
	.byte	W06
	.byte		VOL   , 38*seq_125_mvl/mxv
	.byte	W06
	.byte		        44*seq_125_mvl/mxv
	.byte	W04
	.byte		MOD   , 60
	.byte	W02
	.byte		VOL   , 49*seq_125_mvl/mxv
	.byte	W05
	.byte		        55*seq_125_mvl/mxv
	.byte	W04
	.byte		        44*seq_125_mvl/mxv
	.byte	W01
	.byte		        38*seq_125_mvl/mxv
	.byte	W02
	.byte		        33*seq_125_mvl/mxv
	.byte	W01
	.byte		        27*seq_125_mvl/mxv
	.byte	W01
	.byte		        22*seq_125_mvl/mxv
	.byte	W01
	.byte		MOD   , 0
	.byte	W01
	.byte		VOL   , 16*seq_125_mvl/mxv
	.byte	W01
	.byte		        55*seq_125_mvl/mxv
	.byte	W01
	.byte		N06   , Dn5 
	.byte	W06
	.byte		        En5 
	.byte	W06
	.byte		N05   , Fs5 
	.byte	W05
	.byte		N03   , Fs5 , v040
	.byte	W07
	.byte		N05   , Gs5 , v100
	.byte	W05
	.byte		N03   , Gs5 , v040
	.byte	W07
	.byte		N05   , Fs5 , v120
	.byte	W01
	.byte	W04
	.byte		N03   , Fs5 , v040
	.byte	W07
	.byte		N05   , En5 , v100
	.byte	W05
	.byte		N03   , En5 , v040
	.byte	W07
	.byte		N05   , Dn5 , v120
	.byte	W05
	.byte		N03   , Dn5 , v040
	.byte	W07
	.byte		N05   , Cn5 , v100
	.byte	W05
	.byte		N03   , Cn5 , v040
	.byte	W07
	.byte		N05   , As4 , v120
	.byte	W05
	.byte		N03   , As4 , v040
	.byte	W07
	.byte		N06   , As4 , v120
	.byte	W06
	.byte		        Cn5 , v100
	.byte	W06
	.byte		N18   , Gs4 , v120
	.byte	W18
	.byte		N06   , As4 , v100
	.byte	W06
	.byte		N05   , En4 , v120
	.byte	W01
	.byte	W04
	.byte		N03   , En4 , v040
	.byte	W18
	.byte		VOL   , 27*seq_125_mvl/mxv
	.byte	W01
	.byte		N24   , En4 , v120
	.byte	W03
	.byte		VOL   , 33*seq_125_mvl/mxv
	.byte	W05
	.byte		        38*seq_125_mvl/mxv
	.byte	W04
	.byte		        44*seq_125_mvl/mxv
	.byte	W04
	.byte		        49*seq_125_mvl/mxv
	.byte	W04
	.byte		        55*seq_125_mvl/mxv
	.byte	W04
	.byte		N04   , En4 , v040
	.byte	W23
	.byte		VOL   , 27*seq_125_mvl/mxv
	.byte	W01
	.byte		N24   , En4 , v100
	.byte	W07
	.byte		VOL   , 33*seq_125_mvl/mxv
	.byte	W08
	.byte		        38*seq_125_mvl/mxv
	.byte	W07
	.byte		        44*seq_125_mvl/mxv
	.byte	W01
	.byte		        38*seq_125_mvl/mxv
	.byte	W01
	.byte		N04   , En4 , v040
	.byte	W01
	.byte	W96
	.byte	GOTO
	 .word	seq_125_2 + 0x15
	.byte	FINE

@*********************** Track 04 ***********************@

seq_125_3:
	.byte	KEYSH , seq_125_key+0
	.byte	W06
	.byte		VOICE , 12
	.byte	W01
	.byte		VOL   , 33*seq_125_mvl/mxv
	.byte	W01
	.byte		PAN   , c_v+0
	.byte	W01
	.byte		LFOS  , 60
	.byte	W01
	.byte		MODT  , mod_tre
	.byte	W02
	.byte		BENDR , 12
	.byte	W12
	.byte	W92
	.byte	W03
	.byte		BEND  , c_v-6
	.byte	W01
	.byte		N24   , Cn3 , v120
	.byte		N24   , Fs3 
	.byte	W02
	.byte		BEND  , c_v-3
	.byte	W01
	.byte		VOL   , 38*seq_125_mvl/mxv
	.byte	W01
	.byte		BEND  , c_v+0
	.byte	W04
	.byte		VOL   , 44*seq_125_mvl/mxv
	.byte	W04
	.byte		        49*seq_125_mvl/mxv
	.byte	W05
	.byte		        55*seq_125_mvl/mxv
	.byte	W04
	.byte		        60*seq_125_mvl/mxv
	.byte	W02
	.byte		        33*seq_125_mvl/mxv
	.byte	W01
	.byte		N24   , As2 
	.byte		N24   , En3 
	.byte	W03
	.byte		VOL   , 38*seq_125_mvl/mxv
	.byte	W05
	.byte		        44*seq_125_mvl/mxv
	.byte	W04
	.byte		        49*seq_125_mvl/mxv
	.byte	W05
	.byte		        55*seq_125_mvl/mxv
	.byte	W04
	.byte		        60*seq_125_mvl/mxv
	.byte	W03
	.byte		N06   , Dn3 , v100
	.byte		N06   , Gs3 
	.byte	W48
	.byte	PEND
	.byte	W10
	.byte		MOD   , 40
	.byte	W01
	.byte		VOL   , 33*seq_125_mvl/mxv
	.byte	W01
	.byte		N12   , En3 , v120
	.byte		N12   , As3 
	.byte	W01
	.byte		VOL   , 38*seq_125_mvl/mxv
	.byte	W02
	.byte		        44*seq_125_mvl/mxv
	.byte	W02
	.byte		        49*seq_125_mvl/mxv
	.byte	W02
	.byte		        55*seq_125_mvl/mxv
	.byte	W05
	.byte		N06   , Cn3 
	.byte		N06   , Fs3 
	.byte	W12
	.byte		        As2 
	.byte		N06   , En3 
	.byte	W12
	.byte		        Dn3 , v100
	.byte		N06   , Gs3 
	.byte	W44
	.byte	W01
	.byte		MOD   , 0
	.byte	W01
	.byte		VOL   , 33*seq_125_mvl/mxv
	.byte	W01
	.byte		BEND  , c_v-6
	.byte	W01
	.byte	PEND
	.byte	PATT
	 .word	seq_125_3 + 0x1A
	.byte	W92
	.byte	W02
	.byte		VOL   , 33*seq_125_mvl/mxv
	.byte	W01
	.byte		BEND  , c_v-6
	.byte	W01
	.byte	PEND
	.byte	PATT
	 .word	seq_125_3 + 0x1A
	.byte	PATT
	 .word	seq_125_3 + 0x4B
	.byte	PATT
	 .word	seq_125_3 + 0x1A
	.byte	W96
	.byte	W09
	.byte		MOD   , 40
	.byte	W01
	.byte		VOL   , 49*seq_125_mvl/mxv
	.byte	W01
	.byte		N11   , Gs2 , v100
	.byte	W12
	.byte		N05   , As2 , v120
	.byte	W05
	.byte		N03   , As2 , v040
	.byte	W07
	.byte		N05   , Cn3 , v100
	.byte	W05
	.byte		N03   , Cn3 , v020
	.byte	W07
	.byte		N11   , Dn3 , v120
	.byte	W12
	.byte		N05   , Cn3 , v100
	.byte	W05
	.byte		N03   , Cn3 , v020
	.byte	W07
	.byte		N05   , As2 , v120
	.byte	W05
	.byte		N03   , As2 , v040
	.byte	W07
	.byte		N05   , Gs2 , v100
	.byte	W05
	.byte		N03   , Gs2 , v020
	.byte	W07
	.byte		N06   , Fs2 , v120
	.byte	W01
	.byte	W05
	.byte		        Gs2 
	.byte	W06
	.byte		        Fs2 
	.byte	W06
	.byte		        Gs2 
	.byte	W06
	.byte		N05   , Fs2 
	.byte	W05
	.byte		N02   , Fs2 , v040
	.byte	W68
	.byte	W11
	.byte		N11   , Gs2 , v100
	.byte	W12
	.byte		N05   , As2 , v120
	.byte	W05
	.byte		N03   , As2 , v040
	.byte	W07
	.byte		N05   , Cn3 , v100
	.byte	W05
	.byte		N03   , Cn3 , v020
	.byte	W07
	.byte		N11   , Dn3 , v120
	.byte	W12
	.byte		N05   , Cn3 , v100
	.byte	W05
	.byte		N03   , Cn3 , v020
	.byte	W07
	.byte		N05   , As2 , v120
	.byte	W05
	.byte		N03   , As2 , v040
	.byte	W07
	.byte		N05   , Gs2 , v100
	.byte	W05
	.byte		N03   , Gs2 , v020
	.byte	W07
	.byte		N06   , En3 , v120
	.byte	W01
	.byte	W05
	.byte		        Fs3 
	.byte	W06
	.byte		        En3 
	.byte	W06
	.byte		        Fs3 
	.byte	W06
	.byte		N05   , En3 
	.byte	W05
	.byte		N02   , En3 , v040
	.byte	W68
	.byte	W23
	.byte		N32   , As2 , v080
	.byte	W16
	.byte		MOD   , 60
	.byte	W19
	.byte		        0
	.byte	W01
	.byte		N06   , Gs2 , v100
	.byte	W06
	.byte		        As2 
	.byte	W06
	.byte		N05   , Cn3 
	.byte	W05
	.byte		N03   , Cn3 , v040
	.byte	W07
	.byte		N05   , Dn3 , v100
	.byte	W05
	.byte		N03   , Dn3 , v040
	.byte	W07
	.byte		N05   , Cn3 , v100
	.byte	W01
	.byte	W04
	.byte		N03   , Cn3 , v040
	.byte	W07
	.byte		N05   , As2 , v100
	.byte	W05
	.byte		N03   , As2 , v040
	.byte	W07
	.byte		N05   , Gs2 , v100
	.byte	W05
	.byte		N03   , Gs2 , v040
	.byte	W07
	.byte		N05   , Fs2 , v100
	.byte	W05
	.byte		N03   , Fs2 , v040
	.byte	W07
	.byte		N05   , En2 , v100
	.byte	W05
	.byte		N03   , En2 , v040
	.byte	W07
	.byte		N06   , En2 , v100
	.byte	W06
	.byte		        Fs2 
	.byte	W06
	.byte		N18   , Dn2 
	.byte	W18
	.byte		N06   , En2 
	.byte	W06
	.byte		N05   , As1 
	.byte	W01
	.byte	W04
	.byte		N03   , As1 , v040
	.byte	W19
	.byte		N24   , As1 , v100
	.byte	W24
	.byte		N04   , As1 , v040
	.byte	W48
	.byte	W01
	.byte	PATT
	 .word	seq_125_3 + 0x7F
	.byte	GOTO
	 .word	seq_125_3 + 0x1A
	.byte	FINE

@*********************** Track 05 ***********************@

seq_125_4:
	.byte	KEYSH , seq_125_key+0
	.byte		VOICE , 6
	.byte	W01
	.byte		VOL   , 44*seq_125_mvl/mxv
	.byte	W01
	.byte		PAN   , c_v+0
	.byte	W01
	.byte		LFOS  , 40
	.byte	W01
	.byte		MODT  , mod_pan
	.byte	W01
	.byte		MOD   , 20
	.byte	W19
	.byte	W01
	.byte		N02   , Cn2 , v120
	.byte		N02   , Cn4 , v080
	.byte	W01
	.byte		        En4 , v100
	.byte	W01
	.byte		        Cn2 , v040
	.byte	W01
	.byte		        Cn4 , v020
	.byte	W01
	.byte		        En4 , v040
	.byte	W02
	.byte		        Dn4 , v080
	.byte	W01
	.byte		        Fs4 , v100
	.byte	W02
	.byte		        Dn4 , v020
	.byte	W01
	.byte		        Fs4 , v040
	.byte	W02
	.byte		        Cn3 , v120
	.byte		N02   , En4 , v080
	.byte	W01
	.byte		        Gs4 , v100
	.byte	W01
	.byte		        Cn3 , v040
	.byte	W01
	.byte		        En4 , v020
	.byte	W01
	.byte		        Gs4 , v040
	.byte	W02
	.byte		        Cn4 , v080
	.byte	W01
	.byte		        En4 , v100
	.byte	W02
	.byte		        Cn4 , v020
	.byte	W01
	.byte		        En4 , v040
	.byte	W02
	.byte		        As1 , v120
	.byte		N02   , As3 , v080
	.byte	W01
	.byte		        Dn4 , v100
	.byte	W01
	.byte		        As1 , v040
	.byte	W01
	.byte		        As3 , v020
	.byte	W01
	.byte		        Dn4 , v040
	.byte	W08
	.byte		        As2 , v120
	.byte		N02   , Dn4 , v080
	.byte	W01
	.byte		        Gs4 , v100
	.byte	W01
	.byte		        As2 , v040
	.byte	W01
	.byte		        Dn4 , v020
	.byte	W01
	.byte		        Gs4 , v040
	.byte	W08
	.byte		        Gs1 , v120
	.byte		N02   , Fs3 , v080
	.byte	W01
	.byte		        Cn4 , v100
	.byte	W01
	.byte		        Gs1 , v040
	.byte	W01
	.byte		        Fs3 , v020
	.byte	W01
	.byte		        Cn4 , v040
	.byte	W08
	.byte		        Gs2 , v120
	.byte		N02   , Fs4 , v080
	.byte	W01
	.byte		        Cn5 , v100
	.byte	W01
	.byte		        Gs2 , v040
	.byte	W01
	.byte		        Fs4 , v020
	.byte	W01
	.byte		        Cn5 , v040
	.byte	W02
	.byte		        Fs4 , v020
	.byte	W01
	.byte		        Cn5 , v040
	.byte	W24
	.byte	W03
	.byte		PAN   , c_v+16
	.byte	W01
	.byte	W96
	.byte	W96
	.byte	W54
	.byte		N02   , En3 , v100
	.byte		N02   , As3 
	.byte	W03
	.byte		N01   , En4 , v020
	.byte		N01   , As4 
	.byte	W01
	.byte		        En3 
	.byte		N01   , As3 
	.byte	W02
	.byte		N02   , Fs3 , v120
	.byte		N02   , Cn4 
	.byte	W03
	.byte		N01   , Fs4 , v020
	.byte		N01   , Cn5 
	.byte	W01
	.byte		        Fs3 
	.byte		N01   , Cn4 
	.byte	W02
	.byte		N02   , Gs3 , v120
	.byte		N02   , Dn4 
	.byte	W03
	.byte		N01   , Gs4 , v020
	.byte		N01   , Dn5 
	.byte	W01
	.byte		        Gs3 
	.byte		N01   , Dn4 
	.byte	W02
	.byte		N02   , As3 , v120
	.byte		N02   , En4 
	.byte	W03
	.byte		N01   , As4 , v020
	.byte		N01   , En5 
	.byte	W01
	.byte		        As3 
	.byte		N01   , En4 
	.byte	W02
	.byte		N02   , Cn4 , v100
	.byte		N02   , Fs4 
	.byte	W03
	.byte		N01   , Cn5 , v020
	.byte		N01   , Fs5 
	.byte	W01
	.byte		        Cn4 
	.byte		N01   , Fs4 
	.byte	W02
	.byte		N02   , Dn4 , v100
	.byte		N02   , Gs4 
	.byte	W03
	.byte		N01   , Dn5 , v020
	.byte		N01   , Gs5 
	.byte	W01
	.byte		        Dn4 
	.byte		N01   , Gs4 
	.byte	W08
	.byte	PEND
	.byte	W96
	.byte	W96
	.byte	W96
	.byte	PATT
	 .word	seq_125_4 + 0xA6
	.byte	W96
	.byte	W96
	.byte	W96
	.byte	W96
	.byte	W96
	.byte	W96
	.byte	W96
	.byte	PATT
	 .word	seq_125_4 + 0xA6
	.byte	W96
	.byte	GOTO
	 .word	seq_125_4 + 0xA4
	.byte	FINE

@*********************** Track 06 ***********************@

seq_125_5:
	.byte	KEYSH , seq_125_key+0
	.byte	W12
	.byte		VOICE , 25
	.byte	W01
	.byte		VOL   , 38*seq_125_mvl/mxv
	.byte	W01
	.byte		PAN   , c_v+0
	.byte	W01
	.byte		LFOS  , 20
	.byte	W01
	.byte		MODT  , mod_pan
	.byte	W01
	.byte		BENDR , 12
	.byte	W01
	.byte		MOD   , 40
	.byte	W06
	.byte	W02
	.byte		N02   , En5 , v120
	.byte	W02
	.byte		        En6 , v040
	.byte	W02
	.byte		        En5 , v020
	.byte	W02
	.byte		        Fs5 , v120
	.byte	W02
	.byte		        Fs6 , v040
	.byte	W02
	.byte		        Fs5 , v020
	.byte	W02
	.byte		        Gs5 , v120
	.byte	W02
	.byte		        Gs6 , v040
	.byte	W02
	.byte		        Gs5 , v020
	.byte	W02
	.byte		        En5 , v120
	.byte	W02
	.byte		        En6 , v040
	.byte	W02
	.byte		        En5 , v020
	.byte	W02
	.byte		        Dn5 , v120
	.byte	W02
	.byte		        Dn6 , v040
	.byte	W02
	.byte		        Dn5 , v020
	.byte	W02
	.byte		        Dn6 , v040
	.byte	W02
	.byte		        Dn5 , v020
	.byte	W02
	.byte		        Dn6 
	.byte	W02
	.byte		        Gs5 , v120
	.byte	W02
	.byte		        Gs6 , v040
	.byte	W02
	.byte		        Gs5 , v020
	.byte	W02
	.byte		        Gs6 , v040
	.byte	W02
	.byte		        Gs5 , v020
	.byte	W02
	.byte		        Gs6 
	.byte	W02
	.byte		        Cn5 , v120
	.byte	W02
	.byte		        Cn6 , v040
	.byte	W02
	.byte		        Cn5 , v020
	.byte	W02
	.byte		        Cn6 , v040
	.byte	W02
	.byte		        Cn5 , v020
	.byte	W02
	.byte		        Cn6 
	.byte	W02
	.byte		        Cn5 , v080
	.byte	W02
	.byte		        Cn6 , v040
	.byte	W02
	.byte		        Cn5 , v020
	.byte	W02
	.byte		        Cn6 , v040
	.byte	W02
	.byte		        Cn5 , v020
	.byte	W02
	.byte		        Cn6 
	.byte	W02
	.byte		        Cn5 
	.byte	W02
	.byte		        Cn6 
	.byte	W02
	.byte		        Cn5 
	.byte	W15
	.byte		MOD   , 0
	.byte	W01
	.byte		PAN   , c_v+16
	.byte	W01
	.byte		VOL   , 33*seq_125_mvl/mxv
	.byte	W01
	.byte	W96
	.byte	W96
	.byte	W96
	.byte	W96
	.byte	W96
	.byte	W96
	.byte	W96
	.byte		N02   , Gs2 , v080
	.byte	W01
	.byte		N01   , Gs3 , v040
	.byte	W02
	.byte		N02   , Gs3 , v080
	.byte	W01
	.byte		N01   , Gs4 , v040
	.byte	W02
	.byte		N02   , Gs4 , v080
	.byte	W01
	.byte		N01   , Gs5 , v040
	.byte	W02
	.byte		N03   , Gs5 , v080
	.byte	W84
	.byte	W03
	.byte	W96
	.byte	W48
	.byte		N02   , Fs4 , v120
	.byte	W01
	.byte		        Cn5 
	.byte	W01
	.byte		        Fs5 , v020
	.byte	W01
	.byte		        Cn6 
	.byte	W01
	.byte		N01   , Fs4 , v040
	.byte	W01
	.byte		        Cn5 
	.byte	W01
	.byte		N02   , Gs4 , v120
	.byte	W01
	.byte		        Dn5 
	.byte	W01
	.byte		        Gs5 , v020
	.byte	W01
	.byte		        Dn6 
	.byte	W01
	.byte		N01   , Gs4 , v040
	.byte	W01
	.byte		        Dn5 
	.byte	W01
	.byte		N02   , Fs4 , v120
	.byte	W01
	.byte		        Cn5 
	.byte	W01
	.byte		        Fs5 , v020
	.byte	W01
	.byte		        Cn6 
	.byte	W01
	.byte		N01   , Fs4 , v040
	.byte	W01
	.byte		        Cn5 
	.byte	W01
	.byte		N02   , Gs4 , v120
	.byte	W01
	.byte		        Dn5 
	.byte	W01
	.byte		        Gs5 , v020
	.byte	W01
	.byte		        Dn6 
	.byte	W01
	.byte		N01   , Gs4 , v040
	.byte	W01
	.byte		        Dn5 
	.byte	W01
	.byte		N02   , Fs4 , v120
	.byte	W01
	.byte		        Cn5 
	.byte	W01
	.byte		        Fs5 , v020
	.byte	W01
	.byte		        Cn6 
	.byte	W01
	.byte		N01   , Fs4 , v040
	.byte	W01
	.byte		        Cn5 
	.byte	W19
	.byte	W96
	.byte	W48
	.byte		N02   , En5 , v120
	.byte	W01
	.byte		        As5 
	.byte	W01
	.byte		        En6 , v020
	.byte	W01
	.byte		        As6 
	.byte	W01
	.byte		N01   , En5 , v040
	.byte	W01
	.byte		        As5 
	.byte	W01
	.byte		N02   , Fs5 , v120
	.byte	W01
	.byte		        Cn6 
	.byte	W01
	.byte		        Fs6 , v020
	.byte	W01
	.byte		        Cn7 
	.byte	W01
	.byte		N01   , Fs5 , v040
	.byte	W01
	.byte		        Cn6 
	.byte	W01
	.byte		N02   , En5 , v120
	.byte	W01
	.byte		        As5 
	.byte	W01
	.byte		        En6 , v020
	.byte	W01
	.byte		        As6 
	.byte	W01
	.byte		N01   , En5 , v040
	.byte	W01
	.byte		        As5 
	.byte	W01
	.byte		N02   , Fs5 , v120
	.byte	W01
	.byte		        Cn6 
	.byte	W01
	.byte		        Fs6 , v020
	.byte	W01
	.byte		        Cn7 
	.byte	W01
	.byte		N01   , Fs5 , v040
	.byte	W01
	.byte		        Cn6 
	.byte	W01
	.byte		N02   , En5 , v120
	.byte	W01
	.byte		        As5 
	.byte	W01
	.byte		        En6 , v020
	.byte	W01
	.byte		        As6 
	.byte	W01
	.byte		N01   , En5 , v040
	.byte	W01
	.byte		        As5 
	.byte	W19
	.byte	W96
	.byte	W96
	.byte	W96
	.byte	W96
	.byte	GOTO
	 .word	seq_125_5 + 0x91
	.byte	FINE

@*********************** Track 07 ***********************@

seq_125_6:
	.byte	KEYSH , seq_125_key+0
	.byte	W12
	.byte		VOICE , 62
	.byte	W01
	.byte		VOL   , 22*seq_125_mvl/mxv
	.byte	W01
	.byte		PAN   , c_v+0
	.byte	W01
	.byte		LFOS  , 10
	.byte	W01
	.byte		MODT  , mod_pan
	.byte	W01
	.byte		BENDR , 12
	.byte	W01
	.byte		MOD   , 120
	.byte	W06
	.byte	W96
	.byte	W96
	.byte	W96
	.byte	W96
	.byte	W96
	.byte	W96
	.byte	W96
	.byte	W96
	.byte	W60
	.byte		N15   , Dn4 , v120
	.byte		N15   , Gs4 
	.byte	W08
	.byte		BEND  , c_v+5
	.byte	W01
	.byte		        c_v+11
	.byte	W01
	.byte		        c_v+19
	.byte	W01
	.byte		        c_v+28
	.byte	W01
	.byte		        c_v+37
	.byte	W01
	.byte		        c_v+51
	.byte	W01
	.byte		        c_v+61
	.byte	W01
	.byte		        c_v+63
	.byte	W21
	.byte	W96
	.byte	W96
	.byte	W96
	.byte	W96
	.byte	W96
	.byte	W96
	.byte	W96
	.byte	W56
	.byte	W03
	.byte		        c_v+0
	.byte	W01
	.byte		N15   , Dn4 
	.byte		N15   , Gs4 
	.byte	W08
	.byte		BEND  , c_v+5
	.byte	W01
	.byte		        c_v+11
	.byte	W01
	.byte		        c_v+19
	.byte	W01
	.byte		        c_v+28
	.byte	W01
	.byte		        c_v+37
	.byte	W01
	.byte		        c_v+51
	.byte	W01
	.byte		        c_v+61
	.byte	W01
	.byte		        c_v+63
	.byte	W20
	.byte		        c_v+0
	.byte	W01
	.byte	GOTO
	 .word	seq_125_6 + 0x19
	.byte	FINE

@*********************** Track 08 ***********************@

seq_125_7:
	.byte	KEYSH , seq_125_key+0
	.byte	W06
	.byte		VOICE , 27
	.byte	W01
	.byte		VOL   , 16*seq_125_mvl/mxv
	.byte	W01
	.byte		PAN   , c_v+0
	.byte	W01
	.byte		LFOS  , 20
	.byte	W01
	.byte		MODT  , mod_pan
	.byte	W01
	.byte		BENDR , 12
	.byte	W01
	.byte		MOD   , 100
	.byte	W12
	.byte	W96
	.byte	W96
	.byte	W96
	.byte	W96
	.byte	W11
	.byte		BEND  , c_v-64
	.byte	W01
	.byte		N80   , Cn5 , v100
	.byte	W01
	.byte		BEND  , c_v+22
	.byte	W01
	.byte		        c_v+26
	.byte	W01
	.byte		        c_v+23
	.byte	W02
	.byte		        c_v+28
	.byte	W01
	.byte		        c_v+37
	.byte	W01
	.byte		        c_v+49
	.byte	W01
	.byte		        c_v+62
	.byte	W02
	.byte		        c_v+55
	.byte	W01
	.byte		        c_v+48
	.byte	W01
	.byte		        c_v+50
	.byte	W01
	.byte		        c_v+56
	.byte	W01
	.byte		        c_v+61
	.byte	W01
	.byte		        c_v+63
	.byte	W02
	.byte		        c_v+58
	.byte	W01
	.byte		        c_v+53
	.byte	W01
	.byte		        c_v+50
	.byte	W01
	.byte		        c_v+45
	.byte	W01
	.byte		        c_v+43
	.byte	W01
	.byte		        c_v+45
	.byte	W01
	.byte		        c_v+48
	.byte	W01
	.byte		        c_v+50
	.byte	W01
	.byte		        c_v+52
	.byte	W01
	.byte		        c_v+49
	.byte	W01
	.byte		        c_v+47
	.byte	W01
	.byte		        c_v+45
	.byte	W02
	.byte		        c_v+47
	.byte	W01
	.byte		        c_v+49
	.byte	W02
	.byte		        c_v+47
	.byte	W01
	.byte		        c_v+43
	.byte	W01
	.byte		        c_v+39
	.byte	W02
	.byte		        c_v+41
	.byte	W02
	.byte		        c_v+39
	.byte	W01
	.byte		        c_v+36
	.byte	W01
	.byte		        c_v+34
	.byte	W02
	.byte		        c_v+37
	.byte	W01
	.byte		        c_v+40
	.byte	W02
	.byte		        c_v+39
	.byte	W01
	.byte		        c_v+35
	.byte	W01
	.byte		        c_v+33
	.byte	W01
	.byte		        c_v+31
	.byte	W02
	.byte		        c_v+33
	.byte	W02
	.byte		        c_v+29
	.byte	W01
	.byte		        c_v+26
	.byte	W01
	.byte		        c_v+20
	.byte	W02
	.byte		        c_v+23
	.byte	W01
	.byte		        c_v+24
	.byte	W02
	.byte		        c_v+14
	.byte	W01
	.byte		        c_v+17
	.byte	W01
	.byte		        c_v+20
	.byte	W01
	.byte		        c_v+25
	.byte	W01
	.byte		        c_v+21
	.byte	W01
	.byte		        c_v+17
	.byte	W01
	.byte		        c_v+13
	.byte	W01
	.byte		        c_v+9
	.byte	W01
	.byte		        c_v+5
	.byte	W02
	.byte		        c_v+7
	.byte	W01
	.byte		        c_v+9
	.byte	W01
	.byte		        c_v+9
	.byte	W01
	.byte		        c_v+2
	.byte	W01
	.byte		        c_v-5
	.byte	W01
	.byte		        c_v-6
	.byte	W01
	.byte		        c_v-3
	.byte	W01
	.byte		        c_v+0
	.byte	W01
	.byte		        c_v+3
	.byte	W01
	.byte		        c_v+6
	.byte	W01
	.byte		        c_v+3
	.byte	W01
	.byte		        c_v-4
	.byte	W01
	.byte		        c_v-15
	.byte	W01
	.byte		        c_v-19
	.byte	W01
	.byte	W96
	.byte	W96
	.byte	W96
	.byte	W96
	.byte	W96
	.byte	W96
	.byte	W96
	.byte	W96
	.byte	W96
	.byte	W96
	.byte	W96
	.byte	W96
	.byte	GOTO
	 .word	seq_125_7 + 0x19
	.byte	FINE

@*********************** Track 09 ***********************@

seq_125_8:
	.byte	KEYSH , seq_125_key+0
	.byte	W12
	.byte		VOICE , 100
	.byte	W01
	.byte		VOL   , 70*seq_125_mvl/mxv
	.byte	W01
	.byte		PAN   , c_v+0
	.byte	W01
	.byte		LFOS  , 30
	.byte	W01
	.byte		MODT  , mod_vib
	.byte	W01
	.byte		BENDR , 12
	.byte	W07
	.byte	W96
	.byte		N06   , Cn2 , v120
	.byte	W06
	.byte		N01   , Cn3 
	.byte	W06
	.byte		N02   , Cn4 
	.byte	W06
	.byte		N03   , Cn3 
	.byte	W06
	.byte		N05   , Gs1 
	.byte	W12
	.byte		N04   , Fs3 
	.byte	W12
	.byte		N06   , Cn2 
	.byte	W06
	.byte		N01   , Cn3 
	.byte	W06
	.byte		N02   , Cn4 
	.byte	W06
	.byte		N03   , Cn3 
	.byte	W06
	.byte		N05   , Gs1 
	.byte	W06
	.byte		N01   , Cn3 
	.byte	W06
	.byte		N05   , As3 
	.byte	W12
	.byte	PEND
	.byte	PATT
	 .word	seq_125_8 + 0x16
	.byte	PATT
	 .word	seq_125_8 + 0x16
	.byte		N05   , Cn2 , v120
	.byte	W06
	.byte		N01   , Cn3 
	.byte	W06
	.byte		N05   , Cn2 
	.byte	W06
	.byte		N01   , Cn3 
	.byte	W54
	.byte		N05   , Gs1 
	.byte	W06
	.byte		N01   , Cn3 
	.byte	W06
	.byte		N05   , As3 
	.byte	W12
	.byte	PEND
	.byte	PATT
	 .word	seq_125_8 + 0x16
	.byte		N06   , Cn2 , v120
	.byte	W06
	.byte		N01   , Cn3 
	.byte	W06
	.byte		N02   , Cn4 
	.byte	W06
	.byte		N03   , Cn3 
	.byte	W06
	.byte		N05   , Gs1 
	.byte	W12
	.byte		N04   , Fs3 
	.byte	W12
	.byte		N06   , Cn2 
	.byte	W48
	.byte	PATT
	 .word	seq_125_8 + 0x16
	.byte	PATT
	 .word	seq_125_8 + 0x49
	.byte	PATT
	 .word	seq_125_8 + 0x16
	.byte	PATT
	 .word	seq_125_8 + 0x16
	.byte	PATT
	 .word	seq_125_8 + 0x16
	.byte	PATT
	 .word	seq_125_8 + 0x16
	.byte	PATT
	 .word	seq_125_8 + 0x16
	.byte	PATT
	 .word	seq_125_8 + 0x16
	.byte	PATT
	 .word	seq_125_8 + 0x16
	.byte	PATT
	 .word	seq_125_8 + 0x49
	.byte	GOTO
	 .word	seq_125_8 + 0x16
	.byte	FINE

@*********************** Track 10 ***********************@

seq_125_9:
	.byte	KEYSH , seq_125_key+0
	.byte	W18
	.byte		VOICE , 74
	.byte	W01
	.byte		VOL   , 33*seq_125_mvl/mxv
	.byte	W01
	.byte		PAN   , c_v+0
	.byte	W01
	.byte		LFOS  , 20
	.byte	W01
	.byte		MODT  , mod_vib
	.byte	W02
	.byte	W02
	.byte		N03   , En5 , v080
	.byte	W04
	.byte		N02   , En5 , v040
	.byte	W02
	.byte		N03   , Fs5 , v080
	.byte	W04
	.byte		N02   , Fs5 , v040
	.byte	W02
	.byte		N03   , Gs5 , v080
	.byte	W04
	.byte		N02   , Gs5 , v040
	.byte	W02
	.byte		N03   , En5 , v080
	.byte	W04
	.byte		N02   , En5 , v040
	.byte	W02
	.byte		N03   , Dn5 , v080
	.byte	W04
	.byte		N02   , Dn5 , v040
	.byte	W08
	.byte		N03   , Gs5 , v080
	.byte	W04
	.byte		N02   , Gs5 , v040
	.byte	W08
	.byte		N03   , Cn5 , v080
	.byte	W04
	.byte		N02   , Cn5 , v040
	.byte	W08
	.byte		N03   , Cn5 , v060
	.byte	W04
	.byte		N02   , Cn5 , v040
	.byte	W30
	.byte		N06   , Cn2 , v120
	.byte	W06
	.byte		N01   , Cn3 
	.byte	W02
	.byte		        Cn3 , v060
	.byte	W04
	.byte		N02   , Cn4 , v120
	.byte	W03
	.byte		N01   , Cn4 , v060
	.byte	W03
	.byte		N03   , Cn3 , v120
	.byte	W04
	.byte		N02   , Cn3 , v060
	.byte	W02
	.byte		N05   , Gs1 , v120
	.byte	W12
	.byte		N04   , Fs3 
	.byte	W05
	.byte		N01   , Fs3 , v060
	.byte	W07
	.byte		N06   , Cn2 , v120
	.byte	W06
	.byte		N01   , Cn3 
	.byte	W02
	.byte		        Cn3 , v060
	.byte	W04
	.byte		N02   , Cn4 , v120
	.byte	W03
	.byte		N01   , Cn4 , v060
	.byte	W03
	.byte		N03   , Cn3 , v120
	.byte	W04
	.byte		N02   , Cn3 , v060
	.byte	W02
	.byte		N05   , Gs1 , v120
	.byte	W06
	.byte		N01   , Cn3 
	.byte	W02
	.byte		        Cn3 , v060
	.byte	W04
	.byte		N05   , As3 , v120
	.byte	W06
	.byte		N01   , As3 , v040
	.byte	W06
	.byte	PEND
	.byte		N06   , Cn2 , v120
	.byte	W06
	.byte		N01   , Cn3 
	.byte	W02
	.byte		        Cn3 , v060
	.byte	W04
	.byte		N02   , Cn4 , v120
	.byte	W03
	.byte		N01   , Cn4 , v060
	.byte	W03
	.byte		N03   , Cn3 , v120
	.byte	W04
	.byte		N02   , Cn3 , v060
	.byte	W02
	.byte		N05   , Gs1 , v120
	.byte	W12
	.byte		N04   , Fs3 
	.byte	W05
	.byte		N01   , Fs3 , v060
	.byte	W07
	.byte		N06   , Cn2 , v120
	.byte	W06
	.byte		N03   , En4 
	.byte	W04
	.byte		N02   , En4 , v040
	.byte	W02
	.byte		N03   , Gs3 , v120
	.byte	W04
	.byte		N02   , Gs3 , v040
	.byte	W02
	.byte		N03   , As3 , v120
	.byte	W04
	.byte		N02   , As3 , v040
	.byte	W02
	.byte		N03   , Cn4 , v120
	.byte	W04
	.byte		N02   , Cn4 , v040
	.byte	W02
	.byte		N03   , Dn4 , v120
	.byte	W04
	.byte		N02   , Dn4 , v040
	.byte	W02
	.byte		N03   , En4 , v120
	.byte	W04
	.byte		N02   , En4 , v040
	.byte	W08
	.byte	PEND
	.byte	PATT
	 .word	seq_125_9 + 0x53
	.byte		N06   , Cn2 , v120
	.byte	W06
	.byte		N01   , Cn3 
	.byte	W02
	.byte		        Cn3 , v060
	.byte	W04
	.byte		N06   , Cn2 , v120
	.byte	W60
	.byte		N05   , Gs1 
	.byte	W06
	.byte		N01   , Cn3 
	.byte	W02
	.byte		        Cn3 , v060
	.byte	W04
	.byte		N05   , As3 , v120
	.byte	W06
	.byte		N01   , As3 , v040
	.byte	W06
	.byte	PEND
	.byte	PATT
	 .word	seq_125_9 + 0x53
	.byte	PATT
	 .word	seq_125_9 + 0xA5
	.byte	PATT
	 .word	seq_125_9 + 0x53
	.byte		N06   , Cn2 , v120
	.byte	W06
	.byte		N01   , Cn3 
	.byte	W02
	.byte		        Cn3 , v060
	.byte	W04
	.byte		N06   , Cn2 , v120
	.byte	W60
	.byte		N05   , Gs1 
	.byte	W06
	.byte		N01   , Cn3 
	.byte	W02
	.byte		        Cn3 , v060
	.byte	W04
	.byte		N05   , As3 , v120
	.byte	W06
	.byte		N01   , As3 , v040
	.byte	W04
	.byte		MOD   , 10
	.byte	W01
	.byte		VOICE , 97
	.byte	W01
	.byte	W12
	.byte		N12   , Dn5 , v080
	.byte	W12
	.byte		N05   , En5 
	.byte	W05
	.byte		N03   , En5 , v040
	.byte	W07
	.byte		N05   , Fs5 , v080
	.byte	W05
	.byte		N03   , Fs5 , v040
	.byte	W07
	.byte		N12   , Gs5 , v080
	.byte	W12
	.byte		N05   , Fs5 
	.byte	W05
	.byte		N03   , Fs5 , v040
	.byte	W07
	.byte		N05   , En5 , v080
	.byte	W05
	.byte		N03   , En5 , v040
	.byte	W07
	.byte		N05   , Dn5 , v080
	.byte	W05
	.byte		N03   , Dn5 , v040
	.byte	W05
	.byte		MOD   , 0
	.byte	W01
	.byte		VOICE , 74
	.byte	W01
	.byte	PEND
	.byte		N06   , Cn2 , v120
	.byte	W06
	.byte		N01   , Cn3 
	.byte	W02
	.byte		        Cn3 , v060
	.byte	W04
	.byte		N02   , Cn4 , v120
	.byte	W03
	.byte		N01   , Cn4 , v060
	.byte	W03
	.byte		N03   , Cn3 , v120
	.byte	W04
	.byte		N02   , Cn3 , v060
	.byte	W02
	.byte		N05   , Gs1 , v120
	.byte	W12
	.byte		N04   , Fs3 
	.byte	W05
	.byte		N01   , Fs3 , v060
	.byte	W07
	.byte		N02   , Cn4 , v120
	.byte	W02
	.byte		        Cn5 , v040
	.byte	W02
	.byte		        Cn4 , v020
	.byte	W02
	.byte		        Dn4 , v120
	.byte	W02
	.byte		        Dn5 , v040
	.byte	W02
	.byte		        Dn4 , v020
	.byte	W02
	.byte		        Cn4 , v120
	.byte	W02
	.byte		        Cn5 , v040
	.byte	W02
	.byte		        Cn4 , v020
	.byte	W02
	.byte		        Dn4 , v120
	.byte	W02
	.byte		        Dn5 , v040
	.byte	W02
	.byte		        Dn4 , v020
	.byte	W02
	.byte		        Cn4 , v120
	.byte	W02
	.byte		        Cn5 , v040
	.byte	W02
	.byte		        Cn4 , v020
	.byte	W08
	.byte		N05   , As3 , v120
	.byte	W06
	.byte		N01   , As3 , v040
	.byte	W04
	.byte		MOD   , 10
	.byte	W01
	.byte		VOICE , 97
	.byte	W01
	.byte	PATT
	 .word	seq_125_9 + 0x157
	.byte		N06   , Cn2 , v120
	.byte	W06
	.byte		N01   , Cn3 
	.byte	W02
	.byte		        Cn3 , v060
	.byte	W04
	.byte		N02   , Cn4 , v120
	.byte	W03
	.byte		N01   , Cn4 , v060
	.byte	W03
	.byte		N03   , Cn3 , v120
	.byte	W04
	.byte		N02   , Cn3 , v060
	.byte	W02
	.byte		N05   , Gs1 , v120
	.byte	W12
	.byte		N04   , Fs3 
	.byte	W05
	.byte		N01   , Fs3 , v060
	.byte	W07
	.byte		N02   , As3 , v120
	.byte	W02
	.byte		        As4 , v040
	.byte	W02
	.byte		        As3 , v020
	.byte	W02
	.byte		        Cn4 , v120
	.byte	W02
	.byte		        Cn5 , v040
	.byte	W02
	.byte		        Cn4 , v020
	.byte	W02
	.byte		        As3 , v120
	.byte	W02
	.byte		        As4 , v040
	.byte	W02
	.byte		        As3 , v020
	.byte	W02
	.byte		        Cn4 , v120
	.byte	W02
	.byte		        Cn5 , v040
	.byte	W02
	.byte		        Cn4 , v020
	.byte	W02
	.byte		        As3 , v120
	.byte	W02
	.byte		        As4 , v040
	.byte	W02
	.byte		        As3 , v020
	.byte	W08
	.byte		N05   , As3 , v120
	.byte	W06
	.byte		N01   , As3 , v040
	.byte	W06
	.byte	PATT
	 .word	seq_125_9 + 0x53
	.byte	PATT
	 .word	seq_125_9 + 0x53
	.byte	PATT
	 .word	seq_125_9 + 0x53
	.byte	PATT
	 .word	seq_125_9 + 0x103
	.byte	GOTO
	 .word	seq_125_9 + 0x53
	.byte	FINE

@*********************** Track 11 ***********************@

seq_125_10:
	.byte	KEYSH , seq_125_key+0
	.byte	W18
	.byte		VOICE , 80
	.byte	W01
	.byte		VOL   , 27*seq_125_mvl/mxv
	.byte	W01
	.byte		PAN   , c_v+0
	.byte	W01
	.byte		LFOS  , 20
	.byte	W01
	.byte		MODT  , mod_vib
	.byte	W02
	.byte	W01
	.byte		N03   , Cn5 , v120
	.byte	W03
	.byte		N02   , Cn5 , v040
	.byte	W03
	.byte		N03   , Dn5 , v120
	.byte	W03
	.byte		N02   , Dn5 , v040
	.byte	W03
	.byte		N03   , En5 , v120
	.byte	W03
	.byte		N02   , En5 , v040
	.byte	W03
	.byte		N03   , Cn5 , v120
	.byte	W03
	.byte		N02   , Cn5 , v040
	.byte	W03
	.byte		N03   , As4 , v120
	.byte	W03
	.byte		N02   , As4 , v040
	.byte	W09
	.byte		N03   , En5 , v120
	.byte	W03
	.byte		N02   , En5 , v040
	.byte	W09
	.byte		N03   , Gs4 , v120
	.byte	W03
	.byte		N02   , Gs4 , v040
	.byte	W09
	.byte		N03   , Gs4 , v120
	.byte	W03
	.byte		N02   , Gs4 , v040
	.byte	W32
	.byte	W96
	.byte	W54
	.byte		N03   , Gs4 , v120
	.byte	W04
	.byte		N02   , Gs4 , v040
	.byte	W02
	.byte		N03   , Cn4 , v120
	.byte	W04
	.byte		N02   , Cn4 , v040
	.byte	W02
	.byte		N03   , Dn4 , v120
	.byte	W04
	.byte		N02   , Dn4 , v040
	.byte	W02
	.byte		N03   , En4 , v120
	.byte	W04
	.byte		N02   , En4 , v040
	.byte	W02
	.byte		N03   , Fs4 , v120
	.byte	W04
	.byte		N02   , Fs4 , v040
	.byte	W02
	.byte		N03   , Gs4 , v120
	.byte	W04
	.byte		N02   , Gs4 , v040
	.byte	W08
	.byte	PEND
	.byte	W96
	.byte	W01
	.byte		N03   , Gs2 , v120
	.byte	W03
	.byte		        Gs3 
	.byte	W03
	.byte		        Gs4 
	.byte	W03
	.byte		N05   , Gs5 
	.byte	W84
	.byte	W02
	.byte	PEND
	.byte	W96
	.byte	PATT
	 .word	seq_125_10 + 0x54
	.byte	W96
	.byte	W01
	.byte		N03   , Gs2 , v120
	.byte	W03
	.byte		        Gs3 
	.byte	W03
	.byte		        Gs4 
	.byte	W03
	.byte		N05   , Gs5 
	.byte	W84
	.byte	W01
	.byte		VOICE , 82
	.byte	W01
	.byte		N06   , Cn2 , v120
	.byte	W06
	.byte		N01   , Cn3 
	.byte	W02
	.byte		        Cn3 , v060
	.byte	W04
	.byte		N02   , Cn4 , v120
	.byte	W03
	.byte		N01   , Cn4 , v060
	.byte	W03
	.byte		N03   , Cn3 , v120
	.byte	W04
	.byte		N02   , Cn3 , v060
	.byte	W02
	.byte		N05   , Gs1 , v120
	.byte	W12
	.byte		N04   , Fs3 
	.byte	W05
	.byte		N01   , Fs3 , v060
	.byte	W07
	.byte		N06   , Cn2 , v120
	.byte	W06
	.byte		N01   , Cn3 
	.byte	W02
	.byte		        Cn3 , v060
	.byte	W04
	.byte		N02   , Cn4 , v120
	.byte	W03
	.byte		N01   , Cn4 , v060
	.byte	W03
	.byte		N03   , Cn3 , v120
	.byte	W04
	.byte		N02   , Cn3 , v060
	.byte	W02
	.byte		N05   , Gs1 , v120
	.byte	W06
	.byte		N01   , Cn3 
	.byte	W02
	.byte		        Cn3 , v060
	.byte	W04
	.byte		N05   , As3 , v120
	.byte	W06
	.byte		N01   , As3 , v040
	.byte	W05
	.byte		VOICE , 80
	.byte		MOD   , 10
	.byte	W01
	.byte	PEND
	.byte		N04   , Cn5 , v120
	.byte	W04
	.byte		N02   , Cn5 , v060
	.byte	W02
	.byte		N04   , Dn5 , v120
	.byte	W04
	.byte		N02   , Dn5 , v060
	.byte	W02
	.byte		N04   , Cn5 , v120
	.byte	W04
	.byte		N02   , Cn5 , v060
	.byte	W02
	.byte		N04   , Dn5 , v120
	.byte	W04
	.byte		N02   , Dn5 , v060
	.byte	W02
	.byte		N04   , Cn5 , v120
	.byte	W04
	.byte		N02   , Cn5 , v060
	.byte	W19
	.byte		MOD   , 0
	.byte	W01
	.byte		N02   , Fs4 , v120
	.byte	W02
	.byte		        Fs5 , v080
	.byte	W02
	.byte		        Fs4 
	.byte	W02
	.byte		        Gs4 , v120
	.byte	W02
	.byte		        Gs5 , v080
	.byte	W02
	.byte		        Gs4 
	.byte	W02
	.byte		        Fs4 , v120
	.byte	W02
	.byte		        Fs5 , v080
	.byte	W02
	.byte		        Fs4 
	.byte	W02
	.byte		        Gs4 , v120
	.byte	W02
	.byte		        Gs5 , v080
	.byte	W02
	.byte		        Gs4 
	.byte	W02
	.byte		        Fs4 , v120
	.byte	W02
	.byte		        Fs5 , v080
	.byte	W02
	.byte		        Fs4 
	.byte	W19
	.byte		VOICE , 82
	.byte	W01
	.byte	PATT
	 .word	seq_125_10 + 0xAC
	.byte		N04   , As5 , v120
	.byte	W04
	.byte		N02   , As5 , v060
	.byte	W02
	.byte		N04   , Cn6 , v120
	.byte	W04
	.byte		N02   , Cn6 , v060
	.byte	W02
	.byte		N04   , As5 , v120
	.byte	W04
	.byte		N02   , As5 , v060
	.byte	W02
	.byte		N04   , Cn6 , v120
	.byte	W04
	.byte		N02   , Cn6 , v060
	.byte	W02
	.byte		N04   , As5 , v120
	.byte	W04
	.byte		N02   , As5 , v060
	.byte	W19
	.byte		MOD   , 0
	.byte	W01
	.byte		N02   , As4 , v120
	.byte	W02
	.byte		        As5 , v080
	.byte	W02
	.byte		        As4 
	.byte	W02
	.byte		        Cn5 , v120
	.byte	W02
	.byte		        Cn6 , v080
	.byte	W02
	.byte		        Cn5 
	.byte	W02
	.byte		        As4 , v120
	.byte	W02
	.byte		        As5 , v080
	.byte	W02
	.byte		        As4 
	.byte	W02
	.byte		        Cn5 , v120
	.byte	W02
	.byte		        Cn6 , v080
	.byte	W02
	.byte		        Cn5 
	.byte	W02
	.byte		        As4 , v120
	.byte	W02
	.byte		        As5 , v080
	.byte	W02
	.byte		        As4 
	.byte	W20
	.byte	W96
	.byte	W96
	.byte	W96
	.byte	PATT
	 .word	seq_125_10 + 0x87
	.byte	GOTO
	 .word	seq_125_10 + 0x53
	.byte	FINE

@*********************** Track 12 ***********************@

seq_125_11:
	.byte	KEYSH , seq_125_key+0
	.byte	W18
	.byte		VOICE , 112
	.byte	W01
	.byte		VOL   , 16*seq_125_mvl/mxv
	.byte	W01
	.byte		PAN   , c_v+0
	.byte	W04
	.byte	W96
	.byte		N01   , Ds4 , v100
	.byte	W12
	.byte		N02   , Ds4 , v120
	.byte	W06
	.byte		N01   , Ds4 , v080
	.byte	W06
	.byte		        Ds4 , v120
	.byte	W12
	.byte		        Ds4 , v080
	.byte	W12
	.byte		        Ds4 , v100
	.byte	W12
	.byte		N02   , Ds4 , v120
	.byte	W06
	.byte		N01   , Ds4 , v080
	.byte	W06
	.byte		N02   , Ds4 , v120
	.byte	W12
	.byte		N01   , Ds4 , v080
	.byte	W12
	.byte	PEND
	.byte	PATT
	 .word	seq_125_11 + 0xD
	.byte	PATT
	 .word	seq_125_11 + 0xD
	.byte	PATT
	 .word	seq_125_11 + 0xD
	.byte	PATT
	 .word	seq_125_11 + 0xD
	.byte	PATT
	 .word	seq_125_11 + 0xD
	.byte	PATT
	 .word	seq_125_11 + 0xD
	.byte	PATT
	 .word	seq_125_11 + 0xD
	.byte	PATT
	 .word	seq_125_11 + 0xD
	.byte	PATT
	 .word	seq_125_11 + 0xD
	.byte	PATT
	 .word	seq_125_11 + 0xD
	.byte	PATT
	 .word	seq_125_11 + 0xD
	.byte	PATT
	 .word	seq_125_11 + 0xD
	.byte	PATT
	 .word	seq_125_11 + 0xD
	.byte	PATT
	 .word	seq_125_11 + 0xD
	.byte	PATT
	 .word	seq_125_11 + 0xD
	.byte	GOTO
	 .word	seq_125_11 + 0xD
	.byte	FINE

@******************************************************@

	.align	2

seq_125:
	.byte	12	@ NumTrks
	.byte	0	@ NumBlks
	.byte	seq_125_pri	@ Priority
	.byte	seq_125_rev	@ Reverb

	.word	seq_125_grp

	.word	seq_125_0
	.word	seq_125_1
	.word	seq_125_2
	.word	seq_125_3
	.word	seq_125_4
	.word	seq_125_5
	.word	seq_125_6
	.word	seq_125_7
	.word	seq_125_8
	.word	seq_125_9
	.word	seq_125_10
	.word	seq_125_11

	.end
