@ File generated by m4a2s Song-Module
	.include "MPlayDef.s"

	.equ	seq_123_grp, bank_014
	.equ	seq_123_pri, 50
	.equ	seq_123_rev, 198
	.equ	seq_123_mvl, 127
	.equ	seq_123_key, 0

	.section .rodata
	.global	seq_123
	.align	2

@*********************** Track 01 ***********************@

seq_123_0:
	.byte	KEYSH , seq_123_key+0
	.byte	TEMPO , 240/2
	.byte		VOICE , 127
	.byte	W01
	.byte		VOL   , 75*seq_123_mvl/mxv
	.byte	W01
	.byte		PAN   , c_v+0
	.byte	W10
	.byte	TEMPO , 92/2
	.byte	W12
	.byte		N02   , Ds6 , v120
	.byte	W02
	.byte		        Ds6 , v060
	.byte	W02
	.byte		        Ds6 , v040
	.byte	W02
	.byte		N02
	.byte	W02
	.byte		        Ds6 , v020
	.byte	W02
	.byte		N02
	.byte	W14
	.byte		        Dn6 , v120
	.byte	W02
	.byte		        Dn6 , v060
	.byte	W02
	.byte		        Dn6 , v040
	.byte	W02
	.byte		N02
	.byte	W02
	.byte		        Dn6 , v020
	.byte	W02
	.byte		N02
	.byte	W02
	.byte		N03   , Cs6 , v100
	.byte	W12
	.byte	TEMPO , 86/2
	.byte		N02   , Gs5 , v060
	.byte	W12
	.byte		N03   , Dn6 , v100
	.byte	W12
	.byte	TEMPO , 82/2
	.byte		N02   , Dn6 , v080
	.byte	W02
	.byte		        Dn6 , v040
	.byte	W02
	.byte		N02
	.byte	W02
	.byte		        Dn6 , v060
	.byte	W02
	.byte		N02
	.byte	W02
	.byte		        Dn6 , v080
	.byte	W02
	.byte		        Dn6 , v100
	.byte	W12
	.byte	TEMPO , 92/2
	.byte		N03   , Cn7 , v100
	.byte	W06
	.byte		        Bn6 , v060
	.byte	W42
	.byte		        Gs5 
	.byte	W12
	.byte		        Dn6 , v120
	.byte	W36
	.byte	W12
	.byte		N03   , Ds6 , v100
	.byte	W12
	.byte		        Dn6 , v120
	.byte	W24
	.byte		        As5 , v100
	.byte	W12
	.byte		        Dn6 , v120
	.byte	W36
	.byte	PEND
	.byte		N03   , Cn7 , v100
	.byte	W06
	.byte		        Bn6 , v060
	.byte	W42
	.byte		        Gs5 
	.byte	W12
	.byte		        Dn6 , v120
	.byte	W36
	.byte	PEND
	.byte	PATT
	 .word	seq_123_0 + 0x63
	.byte	PATT
	 .word	seq_123_0 + 0x72
	.byte	PATT
	 .word	seq_123_0 + 0x63
	.byte	PATT
	 .word	seq_123_0 + 0x72
	.byte	PATT
	 .word	seq_123_0 + 0x63
	.byte	PATT
	 .word	seq_123_0 + 0x72
	.byte	PATT
	 .word	seq_123_0 + 0x63
	.byte	PATT
	 .word	seq_123_0 + 0x72
	.byte	PATT
	 .word	seq_123_0 + 0x63
	.byte	PATT
	 .word	seq_123_0 + 0x72
	.byte	PATT
	 .word	seq_123_0 + 0x63
	.byte	PATT
	 .word	seq_123_0 + 0x72
	.byte	PATT
	 .word	seq_123_0 + 0x63
	.byte	PATT
	 .word	seq_123_0 + 0x72
	.byte	PATT
	 .word	seq_123_0 + 0x63
	.byte	PATT
	 .word	seq_123_0 + 0x72
	.byte	PATT
	 .word	seq_123_0 + 0x63
	.byte	PATT
	 .word	seq_123_0 + 0x72
	.byte	PATT
	 .word	seq_123_0 + 0x63
	.byte	PATT
	 .word	seq_123_0 + 0x72
	.byte	PATT
	 .word	seq_123_0 + 0x63
	.byte	PATT
	 .word	seq_123_0 + 0x72
	.byte	PATT
	 .word	seq_123_0 + 0x63
	.byte	PATT
	 .word	seq_123_0 + 0x72
	.byte	PATT
	 .word	seq_123_0 + 0x63
	.byte	PATT
	 .word	seq_123_0 + 0x72
	.byte	W12
	.byte		N03   , Ds6 , v100
	.byte	W12
	.byte		        Dn6 , v120
	.byte	W24
	.byte		        As5 , v100
	.byte	W12
	.byte		        Dn6 , v120
	.byte	W24
	.byte		N02   , Ds6 
	.byte	W02
	.byte		        Ds6 , v060
	.byte	W02
	.byte		        Ds6 , v040
	.byte	W02
	.byte	TEMPO , 70/2
	.byte		N02
	.byte	W02
	.byte		        Ds6 , v020
	.byte	W02
	.byte		N02
	.byte	W02
	.byte	TEMPO , 90/2
	.byte	W12
	.byte		N03   , Ds6 , v100
	.byte	W12
	.byte		N02   , Dn6 , v120
	.byte	W02
	.byte		        Dn6 , v060
	.byte	W02
	.byte		        Dn6 , v040
	.byte	W02
	.byte		N02
	.byte	W02
	.byte		        Dn6 , v020
	.byte	W02
	.byte		N02
	.byte	W02
	.byte		N03   , Cs6 , v100
	.byte	W12
	.byte	TEMPO , 84/2
	.byte		N02   , Gs5 , v060
	.byte	W12
	.byte		N03   , Dn6 , v100
	.byte	W12
	.byte	TEMPO , 74/2
	.byte		N02   , Dn6 , v080
	.byte	W02
	.byte		        Dn6 , v040
	.byte	W02
	.byte		N02
	.byte	W02
	.byte		        Dn6 , v060
	.byte	W02
	.byte		N02
	.byte	W02
	.byte		        Dn6 , v080
	.byte	W02
	.byte		        Dn6 , v100
	.byte	W12
	.byte	GOTO
	 .word	seq_123_0 + 0x55
	.byte	FINE

@*********************** Track 02 ***********************@

seq_123_1:
	.byte	KEYSH , seq_123_key+0
	.byte		VOICE , 6
	.byte	W01
	.byte		VOL   , 69*seq_123_mvl/mxv
	.byte	W01
	.byte		PAN   , c_v+0
	.byte	W01
	.byte		LFOS  , 40
	.byte	W01
	.byte		MODT  , mod_pan
	.byte	W01
	.byte		LFODL , 0
	.byte	W19
	.byte	W11
	.byte		MOD   , 120
	.byte	W01
	.byte		N06   , Ds3 , v100
	.byte	W06
	.byte		        Ds3 , v040
	.byte	W05
	.byte		MOD   , 0
	.byte	W01
	.byte		N06   , Gs3 , v120
	.byte	W06
	.byte		        Gs3 , v040
	.byte	W05
	.byte		MOD   , 120
	.byte	W01
	.byte		N06   , Ds4 , v100
	.byte	W06
	.byte		        Ds4 , v040
	.byte	W05
	.byte		MOD   , 0
	.byte	W01
	.byte		N06   , As3 , v120
	.byte	W06
	.byte		        As3 , v040
	.byte	W05
	.byte		MOD   , 120
	.byte	W01
	.byte		N06   , Fn3 , v100
	.byte	W06
	.byte		        Fn3 , v040
	.byte	W05
	.byte		MOD   , 0
	.byte	W01
	.byte		N06   , Cn4 , v120
	.byte	W06
	.byte		        Cn4 , v040
	.byte	W06
	.byte		        Gn3 , v100
	.byte	W06
	.byte		        Gn3 , v040
	.byte	W05
	.byte		VOICE , 52
	.byte	W01
	.byte		N06   , As3 , v080
	.byte	W06
	.byte		        As3 , v020
	.byte	W06
	.byte		        As3 , v040
	.byte	W84
	.byte	PEND
	.byte	W96
	.byte	W96
	.byte	W96
	.byte	PATT
	 .word	seq_123_1 + 0x5A
	.byte	W96
	.byte	W96
	.byte	W92
	.byte	W02
	.byte		VOICE , 6
	.byte	W01
	.byte		MOD   , 60
	.byte	W01
	.byte		N06   , As4 , v120
	.byte	W06
	.byte		        As4 , v020
	.byte	W06
	.byte		        As4 , v040
	.byte	W12
	.byte		        Fn4 , v100
	.byte	W06
	.byte		        Fn4 , v020
	.byte	W06
	.byte		        Fn4 , v040
	.byte	W12
	.byte		        Dn4 , v120
	.byte	W06
	.byte		        Dn4 , v020
	.byte	W06
	.byte		        Dn4 , v040
	.byte	W12
	.byte		        Fn4 , v100
	.byte	W06
	.byte		        Fn4 , v020
	.byte	W06
	.byte		        Fn4 , v040
	.byte	W12
	.byte	PEND
	.byte		N06   , Ds4 , v120
	.byte	W12
	.byte		        Ds4 , v020
	.byte	W84
	.byte	PEND
	.byte	W96
	.byte	W96
	.byte	PATT
	 .word	seq_123_1 + 0x77
	.byte	PATT
	 .word	seq_123_1 + 0x9D
	.byte	W96
	.byte	W96
	.byte	W44
	.byte	W02
	.byte		MOD   , 40
	.byte	W01
	.byte		VOICE , 6
	.byte	W01
	.byte		N02   , Fn4 , v120
	.byte	W02
	.byte		        Fn5 , v040
	.byte	W02
	.byte		        Fn4 , v020
	.byte	W02
	.byte		        Fn5 
	.byte	W02
	.byte		        Fn4 
	.byte	W40
	.byte		        Fs4 , v120
	.byte	W02
	.byte		        Fs5 , v040
	.byte	W02
	.byte		        Fs4 , v020
	.byte	W02
	.byte		        Fs5 
	.byte	W02
	.byte		        Fs4 
	.byte	W40
	.byte		        Bn4 , v120
	.byte	W02
	.byte		        Bn5 , v040
	.byte	W02
	.byte		        Bn4 , v020
	.byte	W02
	.byte		        Bn5 
	.byte	W02
	.byte		        Bn4 
	.byte	W36
	.byte	W03
	.byte		VOICE , 52
	.byte	W01
	.byte		N12   , As4 , v120
	.byte	W96
	.byte	W96
	.byte	W44
	.byte	W03
	.byte		VOICE , 6
	.byte	W01
	.byte		N02   , Fn4 
	.byte	W02
	.byte		        Fn5 , v040
	.byte	W02
	.byte		        Fn4 , v020
	.byte	W02
	.byte		        Fn5 
	.byte	W02
	.byte		        Fn4 
	.byte	W40
	.byte		        Fs4 , v120
	.byte	W02
	.byte		        Fs5 , v040
	.byte	W02
	.byte		        Fs4 , v020
	.byte	W02
	.byte		        Fs5 
	.byte	W02
	.byte		        Fs4 
	.byte	W40
	.byte		        Bn4 , v120
	.byte	W02
	.byte		        Bn5 , v040
	.byte	W02
	.byte		        Bn4 , v020
	.byte	W02
	.byte		        Bn5 
	.byte	W02
	.byte		        Bn4 
	.byte	W40
	.byte	W23
	.byte		MOD   , 80
	.byte	W01
	.byte		N12   , Ds3 , v120
	.byte	W12
	.byte		        Ds3 , v040
	.byte	W11
	.byte		MOD   , 0
	.byte	W01
	.byte		N12   , Gs3 , v120
	.byte	W12
	.byte		        Gs3 , v040
	.byte	W11
	.byte		MOD   , 80
	.byte	W01
	.byte		N12   , Ds4 , v120
	.byte	W12
	.byte		        Ds4 , v040
	.byte	W11
	.byte		MOD   , 0
	.byte	W01
	.byte		N12   , Dn4 , v120
	.byte	W12
	.byte		        Dn4 , v040
	.byte	W80
	.byte	W03
	.byte		MOD   , 40
	.byte	W01
	.byte		N06   , Ds4 , v120
	.byte	W06
	.byte		        Ds4 , v060
	.byte	W06
	.byte		        Ds4 , v040
	.byte	W06
	.byte		        Ds4 , v020
	.byte	W78
	.byte	W96
	.byte	W23
	.byte		MOD   , 80
	.byte	W01
	.byte		N12   , Fs4 , v120
	.byte	W12
	.byte		        Fs4 , v040
	.byte	W11
	.byte		MOD   , 0
	.byte	W01
	.byte		N12   , Ds4 , v120
	.byte	W12
	.byte		        Ds4 , v040
	.byte	W11
	.byte		MOD   , 80
	.byte	W01
	.byte		N12   , Bn4 , v120
	.byte	W12
	.byte		        Bn4 , v040
	.byte	W11
	.byte		MOD   , 0
	.byte	W01
	.byte		N12   , Gn4 , v120
	.byte	W12
	.byte		        Gn4 , v040
	.byte	W80
	.byte	W03
	.byte		MOD   , 40
	.byte	W01
	.byte		N06   , Fn4 , v120
	.byte	W06
	.byte		        Fn4 , v060
	.byte	W06
	.byte		        Fn4 , v040
	.byte	W06
	.byte		        Fn4 , v020
	.byte	W78
	.byte	W96
	.byte	W11
	.byte		MOD   , 120
	.byte	W01
	.byte		N06   , Ds3 , v100
	.byte	W06
	.byte		        Ds3 , v040
	.byte	W05
	.byte		MOD   , 0
	.byte	W01
	.byte		N06   , Gs3 , v120
	.byte	W06
	.byte		        Gs3 , v040
	.byte	W05
	.byte		MOD   , 120
	.byte	W01
	.byte		N06   , Ds4 , v100
	.byte	W06
	.byte		        Ds4 , v040
	.byte	W05
	.byte		MOD   , 0
	.byte	W01
	.byte		N06   , As3 , v120
	.byte	W06
	.byte		        As3 , v040
	.byte	W05
	.byte		MOD   , 120
	.byte	W01
	.byte		N06   , Fn3 , v100
	.byte	W06
	.byte		        Fn3 , v040
	.byte	W05
	.byte		MOD   , 0
	.byte	W01
	.byte		N06   , Cn4 , v120
	.byte	W06
	.byte		        Cn4 , v040
	.byte	W06
	.byte		        Gn3 , v080
	.byte	W06
	.byte		        Gn3 , v040
	.byte	W05
	.byte		VOICE , 52
	.byte	W01
	.byte	GOTO
	 .word	seq_123_1 + 0x5A
	.byte	FINE

@*********************** Track 03 ***********************@

seq_123_2:
	.byte	KEYSH , seq_123_key+0
	.byte		VOICE , 4
	.byte	W01
	.byte		VOL   , 25*seq_123_mvl/mxv
	.byte	W01
	.byte		PAN   , c_v-44
	.byte	W01
	.byte		LFOS  , 0
	.byte	W01
	.byte		MODT  , mod_vib
	.byte	W01
	.byte		LFODL , 0
	.byte	W19
	.byte		N96   , As1 , v120
	.byte		N48   , Cs2 , v100
	.byte	W06
	.byte		VOL   , 31*seq_123_mvl/mxv
	.byte	W12
	.byte		        37*seq_123_mvl/mxv
	.byte	W12
	.byte		        44*seq_123_mvl/mxv
	.byte	W11
	.byte		        50*seq_123_mvl/mxv
	.byte	W07
	.byte		N48   , Cn2 , v080
	.byte	W05
	.byte		VOL   , 56*seq_123_mvl/mxv
	.byte	W12
	.byte		        62*seq_123_mvl/mxv
	.byte	W11
	.byte		        69*seq_123_mvl/mxv
	.byte	W04
	.byte		        62*seq_123_mvl/mxv
	.byte	W02
	.byte		        56*seq_123_mvl/mxv
	.byte	W03
	.byte		        50*seq_123_mvl/mxv
	.byte	W02
	.byte		        44*seq_123_mvl/mxv
	.byte	W02
	.byte		        37*seq_123_mvl/mxv
	.byte	W03
	.byte		        31*seq_123_mvl/mxv
	.byte	W02
	.byte		        25*seq_123_mvl/mxv
	.byte	W02
	.byte		N06   , Dn2 , v120
	.byte	W01
	.byte		VOL   , 18*seq_123_mvl/mxv
	.byte	W04
	.byte		        25*seq_123_mvl/mxv
	.byte	W01
	.byte		N06   , Ds2 
	.byte	W05
	.byte		VOL   , 31*seq_123_mvl/mxv
	.byte	W01
	.byte		N06   , Dn2 
	.byte	W06
	.byte		        Ds2 
	.byte	W03
	.byte		VOL   , 37*seq_123_mvl/mxv
	.byte	W03
	.byte		N06   , Dn2 
	.byte	W06
	.byte		        Ds2 
	.byte	W04
	.byte		VOL   , 44*seq_123_mvl/mxv
	.byte	W02
	.byte		N06   , Dn2 
	.byte	W04
	.byte		VOL   , 50*seq_123_mvl/mxv
	.byte	W02
	.byte		N06   , Ds2 
	.byte	W05
	.byte		VOL   , 56*seq_123_mvl/mxv
	.byte	W01
	.byte		N06   , Dn2 
	.byte	W06
	.byte		        Ds2 
	.byte	W01
	.byte		VOL   , 62*seq_123_mvl/mxv
	.byte	W03
	.byte		        69*seq_123_mvl/mxv
	.byte	W02
	.byte		N06   , Dn2 
	.byte	W03
	.byte		VOL   , 75*seq_123_mvl/mxv
	.byte	W03
	.byte		N06   , Ds2 
	.byte	W01
	.byte		VOL   , 69*seq_123_mvl/mxv
	.byte	W04
	.byte		        62*seq_123_mvl/mxv
	.byte	W01
	.byte		N06   , Dn2 
	.byte	W03
	.byte		VOL   , 56*seq_123_mvl/mxv
	.byte	W03
	.byte		N06   , Ds2 
	.byte	W01
	.byte		VOL   , 50*seq_123_mvl/mxv
	.byte	W03
	.byte		        44*seq_123_mvl/mxv
	.byte	W02
	.byte		N06   , Dn2 
	.byte	W03
	.byte		VOL   , 37*seq_123_mvl/mxv
	.byte	W03
	.byte		N06   , Ds2 
	.byte	W02
	.byte		VOL   , 31*seq_123_mvl/mxv
	.byte	W03
	.byte		        25*seq_123_mvl/mxv
	.byte	W01
	.byte	PEND
	.byte		N06   , Fn2 , v120
	.byte	W06
	.byte		        Fs2 
	.byte	W01
	.byte		VOL   , 18*seq_123_mvl/mxv
	.byte	W04
	.byte		        25*seq_123_mvl/mxv
	.byte	W01
	.byte		N06   , Fn2 
	.byte	W05
	.byte		VOL   , 31*seq_123_mvl/mxv
	.byte	W01
	.byte		N06   , Fs2 
	.byte	W03
	.byte		VOL   , 37*seq_123_mvl/mxv
	.byte	W03
	.byte		N06   , Fn2 
	.byte	W06
	.byte		        Fs2 
	.byte	W04
	.byte		VOL   , 44*seq_123_mvl/mxv
	.byte	W02
	.byte		N06   , Fn2 
	.byte	W04
	.byte		VOL   , 50*seq_123_mvl/mxv
	.byte	W02
	.byte		N06   , Fs2 
	.byte	W05
	.byte		VOL   , 56*seq_123_mvl/mxv
	.byte	W01
	.byte		N06   , Fn2 
	.byte	W06
	.byte		        Fs2 
	.byte	W01
	.byte		VOL   , 62*seq_123_mvl/mxv
	.byte	W03
	.byte		        69*seq_123_mvl/mxv
	.byte	W02
	.byte		N06   , Fn2 
	.byte	W03
	.byte		VOL   , 75*seq_123_mvl/mxv
	.byte	W03
	.byte		N06   , Fs2 
	.byte	W01
	.byte		VOL   , 69*seq_123_mvl/mxv
	.byte	W04
	.byte		        62*seq_123_mvl/mxv
	.byte	W01
	.byte		N06   , Fn2 
	.byte	W03
	.byte		VOL   , 56*seq_123_mvl/mxv
	.byte	W03
	.byte		N06   , Fs2 
	.byte	W01
	.byte		VOL   , 50*seq_123_mvl/mxv
	.byte	W03
	.byte		        44*seq_123_mvl/mxv
	.byte	W02
	.byte		N06   , Fn2 
	.byte	W03
	.byte		VOL   , 37*seq_123_mvl/mxv
	.byte	W02
	.byte		        31*seq_123_mvl/mxv
	.byte	W01
	.byte		N06   , Fs2 
	.byte	W01
	.byte		VOL   , 25*seq_123_mvl/mxv
	.byte	W02
	.byte		        18*seq_123_mvl/mxv
	.byte	W01
	.byte		        12*seq_123_mvl/mxv
	.byte	W02
	.byte	PEND
	.byte		N06   , Dn3 , v120
	.byte	W05
	.byte		VOL   , 18*seq_123_mvl/mxv
	.byte	W01
	.byte		N06   , Ds3 
	.byte	W06
	.byte		        Dn3 
	.byte	W06
	.byte		        Ds3 
	.byte	W03
	.byte		VOL   , 25*seq_123_mvl/mxv
	.byte	W03
	.byte		N06   , Dn3 
	.byte	W06
	.byte		        Ds3 
	.byte	W04
	.byte		VOL   , 31*seq_123_mvl/mxv
	.byte	W02
	.byte		N06   , Dn3 
	.byte	W04
	.byte		VOL   , 37*seq_123_mvl/mxv
	.byte	W02
	.byte		N06   , Ds3 
	.byte	W05
	.byte		VOL   , 44*seq_123_mvl/mxv
	.byte	W01
	.byte		N06   , Dn3 
	.byte	W06
	.byte		        Ds3 
	.byte	W01
	.byte		VOL   , 50*seq_123_mvl/mxv
	.byte	W03
	.byte		        56*seq_123_mvl/mxv
	.byte	W02
	.byte		N06   , Dn3 
	.byte	W03
	.byte		VOL   , 62*seq_123_mvl/mxv
	.byte	W03
	.byte		N06   , Ds3 
	.byte	W01
	.byte		VOL   , 56*seq_123_mvl/mxv
	.byte	W04
	.byte		        50*seq_123_mvl/mxv
	.byte	W01
	.byte		N06   , Dn3 
	.byte	W03
	.byte		VOL   , 44*seq_123_mvl/mxv
	.byte	W03
	.byte		N06   , Ds3 
	.byte	W01
	.byte		VOL   , 37*seq_123_mvl/mxv
	.byte	W03
	.byte		        31*seq_123_mvl/mxv
	.byte	W02
	.byte		N06   , Dn3 
	.byte	W03
	.byte		VOL   , 25*seq_123_mvl/mxv
	.byte	W03
	.byte		N06   , Ds3 
	.byte	W02
	.byte		VOL   , 18*seq_123_mvl/mxv
	.byte	W03
	.byte		        12*seq_123_mvl/mxv
	.byte	W01
	.byte	PEND
	.byte		N06   , Fn3 , v120
	.byte	W05
	.byte		VOL   , 18*seq_123_mvl/mxv
	.byte	W01
	.byte		N06   , Fs3 
	.byte	W06
	.byte		        Fn3 
	.byte	W06
	.byte		        Fs3 
	.byte	W03
	.byte		VOL   , 25*seq_123_mvl/mxv
	.byte	W03
	.byte		N06   , Fn3 
	.byte	W06
	.byte		        Fs3 
	.byte	W04
	.byte		VOL   , 31*seq_123_mvl/mxv
	.byte	W02
	.byte		N06   , Fn3 
	.byte	W04
	.byte		VOL   , 37*seq_123_mvl/mxv
	.byte	W02
	.byte		N06   , Fs3 
	.byte	W05
	.byte		VOL   , 44*seq_123_mvl/mxv
	.byte	W01
	.byte		N06   , Fn3 
	.byte	W06
	.byte		        Fs3 
	.byte	W01
	.byte		VOL   , 50*seq_123_mvl/mxv
	.byte	W03
	.byte		        56*seq_123_mvl/mxv
	.byte	W02
	.byte		N06   , Fn3 
	.byte	W03
	.byte		VOL   , 62*seq_123_mvl/mxv
	.byte	W03
	.byte		N06   , Fs3 
	.byte	W01
	.byte		VOL   , 56*seq_123_mvl/mxv
	.byte	W04
	.byte		        50*seq_123_mvl/mxv
	.byte	W01
	.byte		N06   , Fn3 
	.byte	W03
	.byte		VOL   , 44*seq_123_mvl/mxv
	.byte	W03
	.byte		N06   , Fs3 
	.byte	W01
	.byte		VOL   , 37*seq_123_mvl/mxv
	.byte	W03
	.byte		        31*seq_123_mvl/mxv
	.byte	W02
	.byte		N06   , Fn3 
	.byte	W03
	.byte		VOL   , 25*seq_123_mvl/mxv
	.byte	W03
	.byte		N06   , Fs3 
	.byte	W02
	.byte		VOL   , 18*seq_123_mvl/mxv
	.byte	W03
	.byte		        12*seq_123_mvl/mxv
	.byte	W01
	.byte	PEND
	.byte	PATT
	 .word	seq_123_2 + 0x3D
	.byte	PATT
	 .word	seq_123_2 + 0x9D
	.byte	PATT
	 .word	seq_123_2 + 0x101
	.byte	PATT
	 .word	seq_123_2 + 0x15B
	.byte	PATT
	 .word	seq_123_2 + 0x3D
	.byte	PATT
	 .word	seq_123_2 + 0x9D
	.byte	PATT
	 .word	seq_123_2 + 0x101
	.byte	PATT
	 .word	seq_123_2 + 0x15B
	.byte	PATT
	 .word	seq_123_2 + 0x3D
	.byte	PATT
	 .word	seq_123_2 + 0x9D
	.byte	PATT
	 .word	seq_123_2 + 0x101
	.byte	PATT
	 .word	seq_123_2 + 0x15B
	.byte	PATT
	 .word	seq_123_2 + 0x3D
	.byte	PATT
	 .word	seq_123_2 + 0x9D
	.byte	PATT
	 .word	seq_123_2 + 0x101
	.byte	PATT
	 .word	seq_123_2 + 0x15B
	.byte	PATT
	 .word	seq_123_2 + 0x3D
	.byte	PATT
	 .word	seq_123_2 + 0x9D
	.byte		N96   , Gs2 , v120
	.byte	W05
	.byte		VOL   , 18*seq_123_mvl/mxv
	.byte	W16
	.byte		        25*seq_123_mvl/mxv
	.byte	W13
	.byte		        31*seq_123_mvl/mxv
	.byte	W06
	.byte		        37*seq_123_mvl/mxv
	.byte	W07
	.byte		        44*seq_123_mvl/mxv
	.byte	W08
	.byte		        50*seq_123_mvl/mxv
	.byte	W03
	.byte		        56*seq_123_mvl/mxv
	.byte	W05
	.byte		        62*seq_123_mvl/mxv
	.byte	W04
	.byte		        56*seq_123_mvl/mxv
	.byte	W04
	.byte		        50*seq_123_mvl/mxv
	.byte	W04
	.byte		        44*seq_123_mvl/mxv
	.byte	W04
	.byte		        37*seq_123_mvl/mxv
	.byte	W03
	.byte		        31*seq_123_mvl/mxv
	.byte	W05
	.byte		        25*seq_123_mvl/mxv
	.byte	W05
	.byte		        18*seq_123_mvl/mxv
	.byte	W03
	.byte		        12*seq_123_mvl/mxv
	.byte	W01
	.byte	W96
	.byte		N06   , Cn3 
	.byte	W05
	.byte		VOL   , 18*seq_123_mvl/mxv
	.byte	W01
	.byte		N06   , Cs3 
	.byte	W06
	.byte		        Cn3 
	.byte	W06
	.byte		        Cs3 
	.byte	W03
	.byte		VOL   , 25*seq_123_mvl/mxv
	.byte	W03
	.byte		N06   , Cn3 
	.byte	W06
	.byte		        Cs3 
	.byte	W04
	.byte		VOL   , 31*seq_123_mvl/mxv
	.byte	W02
	.byte		N06   , Cn3 
	.byte	W04
	.byte		VOL   , 37*seq_123_mvl/mxv
	.byte	W02
	.byte		N06   , Cs3 
	.byte	W05
	.byte		VOL   , 44*seq_123_mvl/mxv
	.byte	W01
	.byte		N06   , Cn3 
	.byte	W06
	.byte		        Cs3 
	.byte	W01
	.byte		VOL   , 50*seq_123_mvl/mxv
	.byte	W03
	.byte		        56*seq_123_mvl/mxv
	.byte	W02
	.byte		N06   , Cn3 
	.byte	W03
	.byte		VOL   , 62*seq_123_mvl/mxv
	.byte	W03
	.byte		N06   , Cs3 
	.byte	W01
	.byte		VOL   , 56*seq_123_mvl/mxv
	.byte	W04
	.byte		        50*seq_123_mvl/mxv
	.byte	W01
	.byte		N06   , Cn3 
	.byte	W03
	.byte		VOL   , 44*seq_123_mvl/mxv
	.byte	W03
	.byte		N06   , Cs3 
	.byte	W01
	.byte		VOL   , 37*seq_123_mvl/mxv
	.byte	W03
	.byte		        31*seq_123_mvl/mxv
	.byte	W02
	.byte		N06   , Cn3 
	.byte	W03
	.byte		VOL   , 25*seq_123_mvl/mxv
	.byte	W03
	.byte		N06   , Cs3 
	.byte	W02
	.byte		VOL   , 18*seq_123_mvl/mxv
	.byte	W03
	.byte		        12*seq_123_mvl/mxv
	.byte	W01
	.byte		N06   , En3 
	.byte	W05
	.byte		VOL   , 18*seq_123_mvl/mxv
	.byte	W01
	.byte		N06   , Fn3 
	.byte	W06
	.byte		        En3 
	.byte	W06
	.byte		        Fn3 
	.byte	W03
	.byte		VOL   , 25*seq_123_mvl/mxv
	.byte	W03
	.byte		N06   , En3 
	.byte	W06
	.byte		        Fn3 
	.byte	W04
	.byte		VOL   , 31*seq_123_mvl/mxv
	.byte	W02
	.byte		N06   , En3 
	.byte	W04
	.byte		VOL   , 37*seq_123_mvl/mxv
	.byte	W02
	.byte		N06   , Fn3 
	.byte	W05
	.byte		VOL   , 44*seq_123_mvl/mxv
	.byte	W01
	.byte		N06   , En3 
	.byte	W06
	.byte		        Fn3 
	.byte	W01
	.byte		VOL   , 50*seq_123_mvl/mxv
	.byte	W03
	.byte		        56*seq_123_mvl/mxv
	.byte	W02
	.byte		N06   , En3 
	.byte	W03
	.byte		VOL   , 62*seq_123_mvl/mxv
	.byte	W03
	.byte		N06   , Fn3 
	.byte	W01
	.byte		VOL   , 56*seq_123_mvl/mxv
	.byte	W04
	.byte		        50*seq_123_mvl/mxv
	.byte	W01
	.byte		N06   , En3 
	.byte	W03
	.byte		VOL   , 44*seq_123_mvl/mxv
	.byte	W03
	.byte		N06   , Fn3 
	.byte	W01
	.byte		VOL   , 37*seq_123_mvl/mxv
	.byte	W03
	.byte		        31*seq_123_mvl/mxv
	.byte	W02
	.byte		N06   , En3 
	.byte	W03
	.byte		VOL   , 25*seq_123_mvl/mxv
	.byte	W03
	.byte		N06   , Fn3 
	.byte	W02
	.byte		VOL   , 18*seq_123_mvl/mxv
	.byte	W03
	.byte		        12*seq_123_mvl/mxv
	.byte	W01
	.byte		N96   , Bn2 
	.byte	W05
	.byte		VOL   , 18*seq_123_mvl/mxv
	.byte	W16
	.byte		        25*seq_123_mvl/mxv
	.byte	W13
	.byte		        31*seq_123_mvl/mxv
	.byte	W06
	.byte		        37*seq_123_mvl/mxv
	.byte	W07
	.byte		        44*seq_123_mvl/mxv
	.byte	W08
	.byte		        50*seq_123_mvl/mxv
	.byte	W03
	.byte		        56*seq_123_mvl/mxv
	.byte	W05
	.byte		        62*seq_123_mvl/mxv
	.byte	W04
	.byte		        56*seq_123_mvl/mxv
	.byte	W04
	.byte		        50*seq_123_mvl/mxv
	.byte	W04
	.byte		        44*seq_123_mvl/mxv
	.byte	W04
	.byte		        37*seq_123_mvl/mxv
	.byte	W03
	.byte		        31*seq_123_mvl/mxv
	.byte	W05
	.byte		        25*seq_123_mvl/mxv
	.byte	W05
	.byte		        18*seq_123_mvl/mxv
	.byte	W03
	.byte		        12*seq_123_mvl/mxv
	.byte	W01
	.byte	W96
	.byte		N06   , Fn2 
	.byte	W01
	.byte		VOL   , 18*seq_123_mvl/mxv
	.byte	W04
	.byte		        25*seq_123_mvl/mxv
	.byte	W01
	.byte		N06   , Fs2 
	.byte	W05
	.byte		VOL   , 31*seq_123_mvl/mxv
	.byte	W01
	.byte		N06   , Fn2 
	.byte	W06
	.byte		        Fs2 
	.byte	W03
	.byte		VOL   , 37*seq_123_mvl/mxv
	.byte	W03
	.byte		N06   , Fn2 
	.byte	W06
	.byte		        Fs2 
	.byte	W04
	.byte		VOL   , 44*seq_123_mvl/mxv
	.byte	W02
	.byte		N06   , Fn2 
	.byte	W04
	.byte		VOL   , 50*seq_123_mvl/mxv
	.byte	W02
	.byte		N06   , Fs2 
	.byte	W05
	.byte		VOL   , 56*seq_123_mvl/mxv
	.byte	W01
	.byte		N06   , Fn2 
	.byte	W06
	.byte		        Fs2 
	.byte	W01
	.byte		VOL   , 62*seq_123_mvl/mxv
	.byte	W03
	.byte		        69*seq_123_mvl/mxv
	.byte	W02
	.byte		N06   , Fn2 
	.byte	W03
	.byte		VOL   , 75*seq_123_mvl/mxv
	.byte	W03
	.byte		N06   , Fs2 
	.byte	W01
	.byte		VOL   , 69*seq_123_mvl/mxv
	.byte	W04
	.byte		        62*seq_123_mvl/mxv
	.byte	W01
	.byte		N06   , Fn2 
	.byte	W03
	.byte		VOL   , 56*seq_123_mvl/mxv
	.byte	W03
	.byte		N06   , Fs2 
	.byte	W01
	.byte		VOL   , 50*seq_123_mvl/mxv
	.byte	W03
	.byte		        44*seq_123_mvl/mxv
	.byte	W02
	.byte		N06   , Fn2 
	.byte	W03
	.byte		VOL   , 37*seq_123_mvl/mxv
	.byte	W03
	.byte		N06   , Fs2 
	.byte	W02
	.byte		VOL   , 31*seq_123_mvl/mxv
	.byte	W03
	.byte		        25*seq_123_mvl/mxv
	.byte	W01
	.byte		N06   , Gs2 
	.byte	W06
	.byte		        An2 
	.byte	W01
	.byte		VOL   , 18*seq_123_mvl/mxv
	.byte	W05
	.byte		N06   , Gs2 
	.byte	W06
	.byte		        An2 
	.byte	W01
	.byte		VOL   , 25*seq_123_mvl/mxv
	.byte	W05
	.byte		N06   , Gs2 
	.byte	W06
	.byte		        An2 
	.byte	W01
	.byte		VOL   , 31*seq_123_mvl/mxv
	.byte	W05
	.byte		N06   , Gs2 
	.byte	W01
	.byte		VOL   , 37*seq_123_mvl/mxv
	.byte	W05
	.byte		N06   , An2 
	.byte	W02
	.byte		VOL   , 44*seq_123_mvl/mxv
	.byte	W04
	.byte		N06   , Gs2 
	.byte	W03
	.byte		VOL   , 50*seq_123_mvl/mxv
	.byte	W03
	.byte		N06   , An2 
	.byte	W01
	.byte		VOL   , 56*seq_123_mvl/mxv
	.byte	W05
	.byte		N06   , Bn2 
	.byte	W01
	.byte		VOL   , 62*seq_123_mvl/mxv
	.byte	W03
	.byte		        56*seq_123_mvl/mxv
	.byte	W02
	.byte		N06   , Cn3 
	.byte	W02
	.byte		VOL   , 50*seq_123_mvl/mxv
	.byte	W04
	.byte		N06   , Dn3 
	.byte	W01
	.byte		VOL   , 44*seq_123_mvl/mxv
	.byte	W03
	.byte		        50*seq_123_mvl/mxv
	.byte	W02
	.byte		N06   , En3 
	.byte	W01
	.byte		VOL   , 56*seq_123_mvl/mxv
	.byte	W05
	.byte		N06   , Fn3 
	.byte	W01
	.byte		VOL   , 62*seq_123_mvl/mxv
	.byte	W05
	.byte		N06   , Fs3 
	.byte	W05
	.byte		VOL   , 12*seq_123_mvl/mxv
	.byte	W01
	.byte	W96
	.byte	GOTO
	 .word	seq_123_2 + 0x3D
	.byte	FINE

@*********************** Track 04 ***********************@

seq_123_3:
	.byte	KEYSH , seq_123_key+0
	.byte	W06
	.byte		VOICE , 4
	.byte	W01
	.byte		VOL   , 25*seq_123_mvl/mxv
	.byte	W01
	.byte		PAN   , c_v+36
	.byte	W01
	.byte		LFOS  , 0
	.byte	W01
	.byte		MODT  , mod_vib
	.byte	W01
	.byte		LFODL , 0
	.byte	W13
	.byte		N96   , Ds1 , v120
	.byte	W11
	.byte		VOL   , 31*seq_123_mvl/mxv
	.byte	W10
	.byte		        37*seq_123_mvl/mxv
	.byte	W10
	.byte		        44*seq_123_mvl/mxv
	.byte	W10
	.byte		        50*seq_123_mvl/mxv
	.byte	W09
	.byte		        56*seq_123_mvl/mxv
	.byte	W10
	.byte		        62*seq_123_mvl/mxv
	.byte	W10
	.byte		        69*seq_123_mvl/mxv
	.byte	W06
	.byte		        62*seq_123_mvl/mxv
	.byte	W03
	.byte		        56*seq_123_mvl/mxv
	.byte	W04
	.byte		        50*seq_123_mvl/mxv
	.byte	W03
	.byte		        44*seq_123_mvl/mxv
	.byte	W03
	.byte		        37*seq_123_mvl/mxv
	.byte	W03
	.byte		        31*seq_123_mvl/mxv
	.byte	W03
	.byte		        25*seq_123_mvl/mxv
	.byte	W01
	.byte		N06   , As1 , v120
	.byte	W01
	.byte		VOL   , 18*seq_123_mvl/mxv
	.byte	W04
	.byte		        25*seq_123_mvl/mxv
	.byte	W01
	.byte		N06   , Bn1 
	.byte	W05
	.byte		VOL   , 31*seq_123_mvl/mxv
	.byte	W01
	.byte		N06   , As1 
	.byte	W06
	.byte		        Bn1 
	.byte	W03
	.byte		VOL   , 37*seq_123_mvl/mxv
	.byte	W03
	.byte		N06   , As1 
	.byte	W06
	.byte		        Bn1 
	.byte	W04
	.byte		VOL   , 44*seq_123_mvl/mxv
	.byte	W02
	.byte		N06   , As1 
	.byte	W04
	.byte		VOL   , 50*seq_123_mvl/mxv
	.byte	W02
	.byte		N06   , Bn1 
	.byte	W05
	.byte		VOL   , 56*seq_123_mvl/mxv
	.byte	W01
	.byte		N06   , As1 
	.byte	W06
	.byte		        Bn1 
	.byte	W01
	.byte		VOL   , 62*seq_123_mvl/mxv
	.byte	W03
	.byte		        69*seq_123_mvl/mxv
	.byte	W02
	.byte		N06   , As1 
	.byte	W03
	.byte		VOL   , 75*seq_123_mvl/mxv
	.byte	W03
	.byte		N06   , Bn1 
	.byte	W01
	.byte		VOL   , 69*seq_123_mvl/mxv
	.byte	W04
	.byte		        62*seq_123_mvl/mxv
	.byte	W01
	.byte		N06   , As1 
	.byte	W03
	.byte		VOL   , 56*seq_123_mvl/mxv
	.byte	W03
	.byte		N06   , Bn1 
	.byte	W01
	.byte		VOL   , 50*seq_123_mvl/mxv
	.byte	W03
	.byte		        44*seq_123_mvl/mxv
	.byte	W02
	.byte		N06   , As1 
	.byte	W03
	.byte		VOL   , 37*seq_123_mvl/mxv
	.byte	W03
	.byte		N06   , Bn1 
	.byte	W02
	.byte		VOL   , 31*seq_123_mvl/mxv
	.byte	W03
	.byte		        25*seq_123_mvl/mxv
	.byte	W01
	.byte	PEND
	.byte		N06   , Bn1 , v120
	.byte	W06
	.byte		        Cn2 
	.byte	W01
	.byte		VOL   , 18*seq_123_mvl/mxv
	.byte	W04
	.byte		        25*seq_123_mvl/mxv
	.byte	W01
	.byte		N06   , Bn1 
	.byte	W05
	.byte		VOL   , 31*seq_123_mvl/mxv
	.byte	W01
	.byte		N06   , Cn2 
	.byte	W03
	.byte		VOL   , 37*seq_123_mvl/mxv
	.byte	W03
	.byte		N06   , Bn1 
	.byte	W06
	.byte		        Cn2 
	.byte	W04
	.byte		VOL   , 44*seq_123_mvl/mxv
	.byte	W02
	.byte		N06   , Bn1 
	.byte	W04
	.byte		VOL   , 50*seq_123_mvl/mxv
	.byte	W02
	.byte		N06   , Cn2 
	.byte	W05
	.byte		VOL   , 56*seq_123_mvl/mxv
	.byte	W01
	.byte		N06   , Bn1 
	.byte	W06
	.byte		        Cn2 
	.byte	W01
	.byte		VOL   , 62*seq_123_mvl/mxv
	.byte	W03
	.byte		        69*seq_123_mvl/mxv
	.byte	W02
	.byte		N06   , Bn1 
	.byte	W03
	.byte		VOL   , 75*seq_123_mvl/mxv
	.byte	W03
	.byte		N06   , Cn2 
	.byte	W01
	.byte		VOL   , 69*seq_123_mvl/mxv
	.byte	W04
	.byte		        62*seq_123_mvl/mxv
	.byte	W01
	.byte		N06   , Bn1 
	.byte	W03
	.byte		VOL   , 56*seq_123_mvl/mxv
	.byte	W03
	.byte		N06   , Cn2 
	.byte	W01
	.byte		VOL   , 50*seq_123_mvl/mxv
	.byte	W03
	.byte		        44*seq_123_mvl/mxv
	.byte	W02
	.byte		N06   , Bn1 
	.byte	W03
	.byte		VOL   , 37*seq_123_mvl/mxv
	.byte	W02
	.byte		        31*seq_123_mvl/mxv
	.byte	W01
	.byte		N06   , Cn2 
	.byte	W01
	.byte		VOL   , 25*seq_123_mvl/mxv
	.byte	W02
	.byte		        18*seq_123_mvl/mxv
	.byte	W01
	.byte		        12*seq_123_mvl/mxv
	.byte	W02
	.byte	PEND
	.byte		N06   , As2 , v120
	.byte	W05
	.byte		VOL   , 18*seq_123_mvl/mxv
	.byte	W01
	.byte		N06   , Bn2 
	.byte	W06
	.byte		        As2 
	.byte	W06
	.byte		        Bn2 
	.byte	W03
	.byte		VOL   , 25*seq_123_mvl/mxv
	.byte	W03
	.byte		N06   , As2 
	.byte	W06
	.byte		        Bn2 
	.byte	W04
	.byte		VOL   , 31*seq_123_mvl/mxv
	.byte	W02
	.byte		N06   , As2 
	.byte	W04
	.byte		VOL   , 37*seq_123_mvl/mxv
	.byte	W02
	.byte		N06   , Bn2 
	.byte	W05
	.byte		VOL   , 44*seq_123_mvl/mxv
	.byte	W01
	.byte		N06   , As2 
	.byte	W06
	.byte		        Bn2 
	.byte	W01
	.byte		VOL   , 50*seq_123_mvl/mxv
	.byte	W03
	.byte		        56*seq_123_mvl/mxv
	.byte	W02
	.byte		N06   , As2 
	.byte	W03
	.byte		VOL   , 62*seq_123_mvl/mxv
	.byte	W03
	.byte		N06   , Bn2 
	.byte	W01
	.byte		VOL   , 56*seq_123_mvl/mxv
	.byte	W04
	.byte		        50*seq_123_mvl/mxv
	.byte	W01
	.byte		N06   , As2 
	.byte	W03
	.byte		VOL   , 44*seq_123_mvl/mxv
	.byte	W03
	.byte		N06   , Bn2 
	.byte	W01
	.byte		VOL   , 37*seq_123_mvl/mxv
	.byte	W03
	.byte		        31*seq_123_mvl/mxv
	.byte	W02
	.byte		N06   , As2 
	.byte	W03
	.byte		VOL   , 25*seq_123_mvl/mxv
	.byte	W03
	.byte		N06   , Bn2 
	.byte	W02
	.byte		VOL   , 18*seq_123_mvl/mxv
	.byte	W03
	.byte		        12*seq_123_mvl/mxv
	.byte	W01
	.byte	PEND
	.byte		N06   , Bn2 , v120
	.byte	W05
	.byte		VOL   , 18*seq_123_mvl/mxv
	.byte	W01
	.byte		N06   , Cn3 
	.byte	W06
	.byte		        Bn2 
	.byte	W06
	.byte		        Cn3 
	.byte	W03
	.byte		VOL   , 25*seq_123_mvl/mxv
	.byte	W03
	.byte		N06   , Bn2 
	.byte	W06
	.byte		        Cn3 
	.byte	W04
	.byte		VOL   , 31*seq_123_mvl/mxv
	.byte	W02
	.byte		N06   , Bn2 
	.byte	W04
	.byte		VOL   , 37*seq_123_mvl/mxv
	.byte	W02
	.byte		N06   , Cn3 
	.byte	W05
	.byte		VOL   , 44*seq_123_mvl/mxv
	.byte	W01
	.byte		N06   , Bn2 
	.byte	W06
	.byte		        Cn3 
	.byte	W01
	.byte		VOL   , 50*seq_123_mvl/mxv
	.byte	W03
	.byte		        56*seq_123_mvl/mxv
	.byte	W02
	.byte		N06   , Bn2 
	.byte	W03
	.byte		VOL   , 62*seq_123_mvl/mxv
	.byte	W03
	.byte		N06   , Cn3 
	.byte	W01
	.byte		VOL   , 56*seq_123_mvl/mxv
	.byte	W04
	.byte		        50*seq_123_mvl/mxv
	.byte	W01
	.byte		N06   , Bn2 
	.byte	W03
	.byte		VOL   , 44*seq_123_mvl/mxv
	.byte	W03
	.byte		N06   , Cn3 
	.byte	W01
	.byte		VOL   , 37*seq_123_mvl/mxv
	.byte	W03
	.byte		        31*seq_123_mvl/mxv
	.byte	W02
	.byte		N06   , Bn2 
	.byte	W03
	.byte		VOL   , 25*seq_123_mvl/mxv
	.byte	W03
	.byte		N06   , Cn3 
	.byte	W02
	.byte		VOL   , 18*seq_123_mvl/mxv
	.byte	W03
	.byte		        12*seq_123_mvl/mxv
	.byte	W01
	.byte	PEND
	.byte	PATT
	 .word	seq_123_3 + 0x36
	.byte	PATT
	 .word	seq_123_3 + 0x96
	.byte	PATT
	 .word	seq_123_3 + 0xFA
	.byte	PATT
	 .word	seq_123_3 + 0x154
	.byte	PATT
	 .word	seq_123_3 + 0x36
	.byte	PATT
	 .word	seq_123_3 + 0x96
	.byte	PATT
	 .word	seq_123_3 + 0xFA
	.byte	PATT
	 .word	seq_123_3 + 0x154
	.byte	PATT
	 .word	seq_123_3 + 0x36
	.byte	PATT
	 .word	seq_123_3 + 0x96
	.byte	PATT
	 .word	seq_123_3 + 0xFA
	.byte	PATT
	 .word	seq_123_3 + 0x154
	.byte	PATT
	 .word	seq_123_3 + 0x36
	.byte	PATT
	 .word	seq_123_3 + 0x96
	.byte	PATT
	 .word	seq_123_3 + 0xFA
	.byte	PATT
	 .word	seq_123_3 + 0x154
	.byte	PATT
	 .word	seq_123_3 + 0x36
	.byte	PATT
	 .word	seq_123_3 + 0x96
	.byte	W92
	.byte	W03
	.byte		VOL   , 12*seq_123_mvl/mxv
	.byte	W01
	.byte	PEND
	.byte		N96   , As2 , v120
	.byte	W05
	.byte		VOL   , 18*seq_123_mvl/mxv
	.byte	W16
	.byte		        25*seq_123_mvl/mxv
	.byte	W13
	.byte		        31*seq_123_mvl/mxv
	.byte	W06
	.byte		        37*seq_123_mvl/mxv
	.byte	W07
	.byte		        44*seq_123_mvl/mxv
	.byte	W07
	.byte		        50*seq_123_mvl/mxv
	.byte	W04
	.byte		        56*seq_123_mvl/mxv
	.byte	W05
	.byte		        62*seq_123_mvl/mxv
	.byte	W04
	.byte		        56*seq_123_mvl/mxv
	.byte	W04
	.byte		        50*seq_123_mvl/mxv
	.byte	W04
	.byte		        44*seq_123_mvl/mxv
	.byte	W04
	.byte		        37*seq_123_mvl/mxv
	.byte	W03
	.byte		        31*seq_123_mvl/mxv
	.byte	W05
	.byte		        25*seq_123_mvl/mxv
	.byte	W05
	.byte		        18*seq_123_mvl/mxv
	.byte	W03
	.byte		        12*seq_123_mvl/mxv
	.byte	W01
	.byte		N06   , Gs2 
	.byte	W05
	.byte		VOL   , 18*seq_123_mvl/mxv
	.byte	W01
	.byte		N06   , An2 
	.byte	W06
	.byte		        Gs2 
	.byte	W06
	.byte		        An2 
	.byte	W03
	.byte		VOL   , 25*seq_123_mvl/mxv
	.byte	W03
	.byte		N06   , Gs2 
	.byte	W06
	.byte		        An2 
	.byte	W04
	.byte		VOL   , 31*seq_123_mvl/mxv
	.byte	W02
	.byte		N06   , Gs2 
	.byte	W04
	.byte		VOL   , 37*seq_123_mvl/mxv
	.byte	W02
	.byte		N06   , An2 
	.byte	W05
	.byte		VOL   , 44*seq_123_mvl/mxv
	.byte	W01
	.byte		N06   , Gs2 
	.byte	W06
	.byte		        An2 
	.byte	W01
	.byte		VOL   , 50*seq_123_mvl/mxv
	.byte	W03
	.byte		        56*seq_123_mvl/mxv
	.byte	W02
	.byte		N06   , Gs2 
	.byte	W03
	.byte		VOL   , 62*seq_123_mvl/mxv
	.byte	W03
	.byte		N06   , An2 
	.byte	W01
	.byte		VOL   , 56*seq_123_mvl/mxv
	.byte	W04
	.byte		        50*seq_123_mvl/mxv
	.byte	W01
	.byte		N06   , Gs2 
	.byte	W03
	.byte		VOL   , 44*seq_123_mvl/mxv
	.byte	W03
	.byte		N06   , An2 
	.byte	W01
	.byte		VOL   , 37*seq_123_mvl/mxv
	.byte	W03
	.byte		        31*seq_123_mvl/mxv
	.byte	W02
	.byte		N06   , Gs2 
	.byte	W03
	.byte		VOL   , 25*seq_123_mvl/mxv
	.byte	W03
	.byte		N06   , An2 
	.byte	W02
	.byte		VOL   , 18*seq_123_mvl/mxv
	.byte	W03
	.byte		        12*seq_123_mvl/mxv
	.byte	W01
	.byte	PATT
	 .word	seq_123_3 + 0xFA
	.byte	PATT
	 .word	seq_123_3 + 0x208
	.byte		N96   , Cn3 , v120
	.byte	W05
	.byte		VOL   , 18*seq_123_mvl/mxv
	.byte	W16
	.byte		        25*seq_123_mvl/mxv
	.byte	W13
	.byte		        31*seq_123_mvl/mxv
	.byte	W06
	.byte		        37*seq_123_mvl/mxv
	.byte	W07
	.byte		        44*seq_123_mvl/mxv
	.byte	W07
	.byte		        50*seq_123_mvl/mxv
	.byte	W04
	.byte		        56*seq_123_mvl/mxv
	.byte	W05
	.byte		        62*seq_123_mvl/mxv
	.byte	W04
	.byte		        56*seq_123_mvl/mxv
	.byte	W04
	.byte		        50*seq_123_mvl/mxv
	.byte	W04
	.byte		        44*seq_123_mvl/mxv
	.byte	W04
	.byte		        37*seq_123_mvl/mxv
	.byte	W03
	.byte		        31*seq_123_mvl/mxv
	.byte	W05
	.byte		        25*seq_123_mvl/mxv
	.byte	W05
	.byte		        18*seq_123_mvl/mxv
	.byte	W03
	.byte		        12*seq_123_mvl/mxv
	.byte	W01
	.byte		N06   , Cs2 
	.byte	W01
	.byte		VOL   , 18*seq_123_mvl/mxv
	.byte	W04
	.byte		        25*seq_123_mvl/mxv
	.byte	W01
	.byte		N06   , Dn2 
	.byte	W05
	.byte		VOL   , 31*seq_123_mvl/mxv
	.byte	W01
	.byte		N06   , Cs2 
	.byte	W06
	.byte		        Dn2 
	.byte	W03
	.byte		VOL   , 37*seq_123_mvl/mxv
	.byte	W03
	.byte		N06   , Cs2 
	.byte	W06
	.byte		        Dn2 
	.byte	W04
	.byte		VOL   , 44*seq_123_mvl/mxv
	.byte	W02
	.byte		N06   , Cs2 
	.byte	W04
	.byte		VOL   , 50*seq_123_mvl/mxv
	.byte	W02
	.byte		N06   , Dn2 
	.byte	W05
	.byte		VOL   , 56*seq_123_mvl/mxv
	.byte	W01
	.byte		N06   , Cs2 
	.byte	W06
	.byte		        Dn2 
	.byte	W01
	.byte		VOL   , 62*seq_123_mvl/mxv
	.byte	W03
	.byte		        69*seq_123_mvl/mxv
	.byte	W02
	.byte		N06   , Cs2 
	.byte	W03
	.byte		VOL   , 75*seq_123_mvl/mxv
	.byte	W03
	.byte		N06   , Dn2 
	.byte	W01
	.byte		VOL   , 69*seq_123_mvl/mxv
	.byte	W04
	.byte		        62*seq_123_mvl/mxv
	.byte	W01
	.byte		N06   , Cs2 
	.byte	W03
	.byte		VOL   , 56*seq_123_mvl/mxv
	.byte	W03
	.byte		N06   , Dn2 
	.byte	W01
	.byte		VOL   , 50*seq_123_mvl/mxv
	.byte	W03
	.byte		        44*seq_123_mvl/mxv
	.byte	W02
	.byte		N06   , Cs2 
	.byte	W03
	.byte		VOL   , 37*seq_123_mvl/mxv
	.byte	W03
	.byte		N06   , Dn2 
	.byte	W02
	.byte		VOL   , 31*seq_123_mvl/mxv
	.byte	W03
	.byte		        25*seq_123_mvl/mxv
	.byte	W01
	.byte		N06
	.byte	W06
	.byte		        Ds2 
	.byte	W01
	.byte		VOL   , 18*seq_123_mvl/mxv
	.byte	W05
	.byte		N06   , Dn2 
	.byte	W06
	.byte		        Ds2 
	.byte	W01
	.byte		VOL   , 25*seq_123_mvl/mxv
	.byte	W05
	.byte		N06   , Dn2 
	.byte	W06
	.byte		        Ds2 
	.byte	W01
	.byte		VOL   , 31*seq_123_mvl/mxv
	.byte	W05
	.byte		N06   , Dn2 
	.byte	W01
	.byte		VOL   , 37*seq_123_mvl/mxv
	.byte	W05
	.byte		N06   , Ds2 
	.byte	W02
	.byte		VOL   , 44*seq_123_mvl/mxv
	.byte	W04
	.byte		N06   , Dn2 
	.byte	W03
	.byte		VOL   , 50*seq_123_mvl/mxv
	.byte	W03
	.byte		N06   , Ds2 
	.byte	W01
	.byte		VOL   , 56*seq_123_mvl/mxv
	.byte	W05
	.byte		N06   , Fn2 
	.byte	W01
	.byte		VOL   , 62*seq_123_mvl/mxv
	.byte	W03
	.byte		        56*seq_123_mvl/mxv
	.byte	W02
	.byte		N06   , Fs2 
	.byte	W02
	.byte		VOL   , 50*seq_123_mvl/mxv
	.byte	W04
	.byte		N06   , Gs2 
	.byte	W01
	.byte		VOL   , 44*seq_123_mvl/mxv
	.byte	W03
	.byte		        50*seq_123_mvl/mxv
	.byte	W02
	.byte		N06   , An2 
	.byte	W01
	.byte		VOL   , 56*seq_123_mvl/mxv
	.byte	W05
	.byte		N06   , As2 
	.byte	W01
	.byte		VOL   , 62*seq_123_mvl/mxv
	.byte	W05
	.byte		N06   , Bn2 
	.byte	W05
	.byte		VOL   , 12*seq_123_mvl/mxv
	.byte	W01
	.byte	W96
	.byte	GOTO
	 .word	seq_123_3 + 0x36
	.byte	FINE

@*********************** Track 05 ***********************@

seq_123_4:
	.byte	KEYSH , seq_123_key+0
	.byte	W06
	.byte		VOICE , 15
	.byte	W01
	.byte		VOL   , 18*seq_123_mvl/mxv
	.byte	W01
	.byte		PAN   , c_v+0
	.byte	W01
	.byte		LFOS  , 30
	.byte	W01
	.byte		MODT  , mod_pan
	.byte	W01
	.byte		MOD   , 0
	.byte	W13
	.byte	W96
	.byte	W96
	.byte	W96
	.byte		N96   , Dn2 , v080
	.byte		N96   , Fn2 , v120
	.byte	W01
	.byte		VOL   , 18*seq_123_mvl/mxv
	.byte	W04
	.byte		        25*seq_123_mvl/mxv
	.byte	W08
	.byte		        18*seq_123_mvl/mxv
	.byte	W10
	.byte		MOD   , 60
	.byte	W05
	.byte		VOL   , 25*seq_123_mvl/mxv
	.byte	W08
	.byte		        31*seq_123_mvl/mxv
	.byte	W13
	.byte		        37*seq_123_mvl/mxv
	.byte	W09
	.byte		        44*seq_123_mvl/mxv
	.byte	W14
	.byte		        37*seq_123_mvl/mxv
	.byte	W11
	.byte		        31*seq_123_mvl/mxv
	.byte	W04
	.byte		        25*seq_123_mvl/mxv
	.byte	W02
	.byte		MOD   , 0
	.byte	W02
	.byte		VOL   , 18*seq_123_mvl/mxv
	.byte	W04
	.byte		        12*seq_123_mvl/mxv
	.byte	W01
	.byte	PEND
	.byte		N96   , Ds2 , v080
	.byte		N96   , Fs2 , v120
	.byte	W01
	.byte		VOL   , 18*seq_123_mvl/mxv
	.byte	W04
	.byte		        25*seq_123_mvl/mxv
	.byte	W08
	.byte		        18*seq_123_mvl/mxv
	.byte	W10
	.byte		MOD   , 60
	.byte	W05
	.byte		VOL   , 25*seq_123_mvl/mxv
	.byte	W08
	.byte		        31*seq_123_mvl/mxv
	.byte	W13
	.byte		        37*seq_123_mvl/mxv
	.byte	W09
	.byte		        44*seq_123_mvl/mxv
	.byte	W14
	.byte		        37*seq_123_mvl/mxv
	.byte	W11
	.byte		        31*seq_123_mvl/mxv
	.byte	W04
	.byte		        25*seq_123_mvl/mxv
	.byte	W02
	.byte		MOD   , 0
	.byte	W02
	.byte		VOL   , 18*seq_123_mvl/mxv
	.byte	W04
	.byte		        12*seq_123_mvl/mxv
	.byte	W01
	.byte	PEND
	.byte	W96
	.byte	W96
	.byte	PATT
	 .word	seq_123_4 + 0x18
	.byte	PATT
	 .word	seq_123_4 + 0x41
	.byte	W96
	.byte	W96
	.byte		N96   , Fn2 , v120
	.byte	W01
	.byte		VOL   , 18*seq_123_mvl/mxv
	.byte	W04
	.byte		        25*seq_123_mvl/mxv
	.byte	W08
	.byte		        18*seq_123_mvl/mxv
	.byte	W10
	.byte		MOD   , 60
	.byte	W05
	.byte		VOL   , 25*seq_123_mvl/mxv
	.byte	W08
	.byte		        31*seq_123_mvl/mxv
	.byte	W13
	.byte		        37*seq_123_mvl/mxv
	.byte	W09
	.byte		        44*seq_123_mvl/mxv
	.byte	W14
	.byte		        37*seq_123_mvl/mxv
	.byte	W11
	.byte		        31*seq_123_mvl/mxv
	.byte	W04
	.byte		        25*seq_123_mvl/mxv
	.byte	W02
	.byte		MOD   , 0
	.byte	W02
	.byte		VOL   , 18*seq_123_mvl/mxv
	.byte	W04
	.byte		        12*seq_123_mvl/mxv
	.byte	W01
	.byte		N96   , Fs2 
	.byte	W01
	.byte		VOL   , 18*seq_123_mvl/mxv
	.byte	W04
	.byte		        25*seq_123_mvl/mxv
	.byte	W08
	.byte		        18*seq_123_mvl/mxv
	.byte	W10
	.byte		MOD   , 60
	.byte	W05
	.byte		VOL   , 25*seq_123_mvl/mxv
	.byte	W08
	.byte		        31*seq_123_mvl/mxv
	.byte	W13
	.byte		        37*seq_123_mvl/mxv
	.byte	W09
	.byte		        44*seq_123_mvl/mxv
	.byte	W14
	.byte		        37*seq_123_mvl/mxv
	.byte	W11
	.byte		        31*seq_123_mvl/mxv
	.byte	W04
	.byte		        25*seq_123_mvl/mxv
	.byte	W02
	.byte		MOD   , 0
	.byte	W02
	.byte		VOL   , 18*seq_123_mvl/mxv
	.byte	W04
	.byte		        12*seq_123_mvl/mxv
	.byte	W01
	.byte	W96
	.byte	W96
	.byte	PATT
	 .word	seq_123_4 + 0x18
	.byte	PATT
	 .word	seq_123_4 + 0x41
	.byte	W96
	.byte	W96
	.byte	W96
	.byte	W96
	.byte	W96
	.byte	W96
	.byte		N96   , Ds2 , v120
	.byte		N96   , Cn3 
	.byte	W01
	.byte		VOL   , 18*seq_123_mvl/mxv
	.byte	W04
	.byte		        25*seq_123_mvl/mxv
	.byte	W08
	.byte		        18*seq_123_mvl/mxv
	.byte	W10
	.byte		MOD   , 60
	.byte	W05
	.byte		VOL   , 25*seq_123_mvl/mxv
	.byte	W08
	.byte		        31*seq_123_mvl/mxv
	.byte	W13
	.byte		        37*seq_123_mvl/mxv
	.byte	W09
	.byte		        44*seq_123_mvl/mxv
	.byte	W14
	.byte		        37*seq_123_mvl/mxv
	.byte	W11
	.byte		        31*seq_123_mvl/mxv
	.byte	W04
	.byte		        25*seq_123_mvl/mxv
	.byte	W02
	.byte		MOD   , 0
	.byte	W02
	.byte		VOL   , 18*seq_123_mvl/mxv
	.byte	W04
	.byte		        12*seq_123_mvl/mxv
	.byte	W01
	.byte		N96   , Fn2 
	.byte		N96   , Dn3 
	.byte	W01
	.byte		VOL   , 18*seq_123_mvl/mxv
	.byte	W04
	.byte		        25*seq_123_mvl/mxv
	.byte	W08
	.byte		        18*seq_123_mvl/mxv
	.byte	W10
	.byte		MOD   , 60
	.byte	W05
	.byte		VOL   , 25*seq_123_mvl/mxv
	.byte	W08
	.byte		        31*seq_123_mvl/mxv
	.byte	W13
	.byte		        37*seq_123_mvl/mxv
	.byte	W09
	.byte		        44*seq_123_mvl/mxv
	.byte	W14
	.byte		        37*seq_123_mvl/mxv
	.byte	W11
	.byte		        31*seq_123_mvl/mxv
	.byte	W04
	.byte		        25*seq_123_mvl/mxv
	.byte	W02
	.byte		MOD   , 0
	.byte	W02
	.byte		VOL   , 18*seq_123_mvl/mxv
	.byte	W04
	.byte		        12*seq_123_mvl/mxv
	.byte	W01
	.byte	W96
	.byte	W96
	.byte		N96   , Fs2 
	.byte		N96   , Ds3 
	.byte	W01
	.byte		VOL   , 18*seq_123_mvl/mxv
	.byte	W04
	.byte		        25*seq_123_mvl/mxv
	.byte	W08
	.byte		        18*seq_123_mvl/mxv
	.byte	W10
	.byte		MOD   , 60
	.byte	W05
	.byte		VOL   , 25*seq_123_mvl/mxv
	.byte	W08
	.byte		        31*seq_123_mvl/mxv
	.byte	W13
	.byte		        37*seq_123_mvl/mxv
	.byte	W09
	.byte		        44*seq_123_mvl/mxv
	.byte	W14
	.byte		        37*seq_123_mvl/mxv
	.byte	W11
	.byte		        31*seq_123_mvl/mxv
	.byte	W04
	.byte		        25*seq_123_mvl/mxv
	.byte	W02
	.byte		MOD   , 0
	.byte	W02
	.byte		VOL   , 18*seq_123_mvl/mxv
	.byte	W04
	.byte		        12*seq_123_mvl/mxv
	.byte	W01
	.byte		N96   , Gn2 
	.byte		N96   , En3 
	.byte	W01
	.byte		VOL   , 18*seq_123_mvl/mxv
	.byte	W04
	.byte		        25*seq_123_mvl/mxv
	.byte	W08
	.byte		        18*seq_123_mvl/mxv
	.byte	W10
	.byte		MOD   , 60
	.byte	W05
	.byte		VOL   , 25*seq_123_mvl/mxv
	.byte	W08
	.byte		        31*seq_123_mvl/mxv
	.byte	W13
	.byte		        37*seq_123_mvl/mxv
	.byte	W09
	.byte		        44*seq_123_mvl/mxv
	.byte	W14
	.byte		        37*seq_123_mvl/mxv
	.byte	W11
	.byte		        31*seq_123_mvl/mxv
	.byte	W04
	.byte		        25*seq_123_mvl/mxv
	.byte	W02
	.byte		MOD   , 0
	.byte	W02
	.byte		VOL   , 18*seq_123_mvl/mxv
	.byte	W04
	.byte		        12*seq_123_mvl/mxv
	.byte	W01
	.byte	W96
	.byte	W96
	.byte	W96
	.byte	GOTO
	 .word	seq_123_4 + 0x16
	.byte	FINE

@*********************** Track 06 ***********************@

seq_123_5:
	.byte	KEYSH , seq_123_key+0
	.byte	W06
	.byte		VOICE , 5
	.byte	W01
	.byte		VOL   , 12*seq_123_mvl/mxv
	.byte	W01
	.byte		PAN   , c_v+0
	.byte	W01
	.byte		LFOS  , 30
	.byte	W01
	.byte		MODT  , mod_tre
	.byte	W01
	.byte		LFODL , 0
	.byte	W13
	.byte	W96
	.byte	W96
	.byte	W96
	.byte	W96
	.byte	W96
	.byte	W96
	.byte	W96
	.byte	W96
	.byte	W96
	.byte	W24
	.byte		VOL   , 62*seq_123_mvl/mxv
	.byte	W01
	.byte		N24   , Fn3 , v100
	.byte	W24
	.byte		        Dn4 , v120
	.byte	W24
	.byte		        Fn4 , v100
	.byte	W23
	.byte	W01
	.byte		N44   , Ds4 , v120
	.byte	W19
	.byte		VOL   , 56*seq_123_mvl/mxv
	.byte	W01
	.byte		MOD   , 40
	.byte	W03
	.byte		VOL   , 50*seq_123_mvl/mxv
	.byte	W04
	.byte		        44*seq_123_mvl/mxv
	.byte	W04
	.byte		        37*seq_123_mvl/mxv
	.byte	W04
	.byte		        31*seq_123_mvl/mxv
	.byte	W04
	.byte		        25*seq_123_mvl/mxv
	.byte	W03
	.byte		        18*seq_123_mvl/mxv
	.byte	W04
	.byte		MOD   , 0
	.byte	W01
	.byte		VOL   , 62*seq_123_mvl/mxv
	.byte	W01
	.byte		N24   , Cs4 
	.byte	W24
	.byte		N18   , Bn3 , v100
	.byte	W18
	.byte		N03   , As3 
	.byte	W03
	.byte		        Bn3 , v120
	.byte	W02
	.byte	W01
	.byte		N68   , As3 , v100
	.byte	W24
	.byte	W02
	.byte		MOD   , 60
	.byte	W09
	.byte		VOL   , 56*seq_123_mvl/mxv
	.byte	W04
	.byte		        50*seq_123_mvl/mxv
	.byte	W05
	.byte		        44*seq_123_mvl/mxv
	.byte	W04
	.byte		        37*seq_123_mvl/mxv
	.byte	W05
	.byte		        31*seq_123_mvl/mxv
	.byte	W04
	.byte		        25*seq_123_mvl/mxv
	.byte	W05
	.byte		        18*seq_123_mvl/mxv
	.byte	W04
	.byte		        12*seq_123_mvl/mxv
	.byte	W03
	.byte		        6*seq_123_mvl/mxv
	.byte	W01
	.byte		        0*seq_123_mvl/mxv
	.byte	W01
	.byte		MOD   , 0
	.byte	W23
	.byte		VOL   , 50*seq_123_mvl/mxv
	.byte	W01
	.byte	W01
	.byte		N02   , Ds5 , v120
	.byte	W02
	.byte		        Dn5 , v100
	.byte	W02
	.byte		        Bn4 
	.byte	W01
	.byte		VOL   , 31*seq_123_mvl/mxv
	.byte	W01
	.byte		N88   , As4 
	.byte	W32
	.byte	W02
	.byte		MOD   , 80
	.byte	W02
	.byte		BEND  , c_v+2
	.byte	W01
	.byte		        c_v+3
	.byte	W01
	.byte		        c_v+4
	.byte	W01
	.byte		        c_v+7
	.byte	W01
	.byte		        c_v+8
	.byte	W01
	.byte		        c_v+9
	.byte	W01
	.byte		        c_v+10
	.byte	W01
	.byte		        c_v+11
	.byte	W02
	.byte		        c_v+12
	.byte	W01
	.byte		        c_v+13
	.byte	W01
	.byte		        c_v+14
	.byte	W02
	.byte		        c_v+15
	.byte	W02
	.byte		        c_v+16
	.byte	W01
	.byte		        c_v+17
	.byte	W02
	.byte		        c_v+18
	.byte	W01
	.byte		        c_v+19
	.byte	W01
	.byte		        c_v+20
	.byte	W01
	.byte		        c_v+21
	.byte	W01
	.byte		        c_v+22
	.byte	W01
	.byte		        c_v+23
	.byte	W01
	.byte		        c_v+24
	.byte	W02
	.byte		        c_v+26
	.byte	W01
	.byte		        c_v+27
	.byte	W01
	.byte		        c_v+28
	.byte	W01
	.byte		        c_v+29
	.byte	W01
	.byte		        c_v+30
	.byte	W01
	.byte		        c_v+31
	.byte	W02
	.byte		VOL   , 25*seq_123_mvl/mxv
	.byte	W01
	.byte		BEND  , c_v+34
	.byte	W01
	.byte		        c_v+35
	.byte	W01
	.byte		        c_v+36
	.byte	W01
	.byte		VOL   , 18*seq_123_mvl/mxv
	.byte	W01
	.byte		BEND  , c_v+39
	.byte	W01
	.byte		        c_v+40
	.byte	W01
	.byte		MOD   , 0
	.byte	W01
	.byte		BEND  , c_v+43
	.byte	W01
	.byte		VOL   , 12*seq_123_mvl/mxv
	.byte	W01
	.byte		BEND  , c_v+47
	.byte	W01
	.byte		        c_v+49
	.byte	W01
	.byte		        c_v+51
	.byte	W01
	.byte		VOL   , 6*seq_123_mvl/mxv
	.byte	W01
	.byte		BEND  , c_v+60
	.byte	W01
	.byte		        c_v+63
	.byte	W03
	.byte		VOL   , 0*seq_123_mvl/mxv
	.byte	W02
	.byte	W96
	.byte	W96
	.byte	W96
	.byte	W96
	.byte	W96
	.byte	W96
	.byte	W23
	.byte		BEND  , c_v+0
	.byte	W01
	.byte		VOL   , 62*seq_123_mvl/mxv
	.byte	W01
	.byte		N24   , Fn3 
	.byte	W24
	.byte		        Dn4 , v120
	.byte	W24
	.byte		        Fn4 , v100
	.byte	W23
	.byte	W01
	.byte		N44   , Ds4 , v120
	.byte	W19
	.byte		VOL   , 56*seq_123_mvl/mxv
	.byte	W01
	.byte		MOD   , 40
	.byte	W03
	.byte		VOL   , 50*seq_123_mvl/mxv
	.byte	W04
	.byte		        44*seq_123_mvl/mxv
	.byte	W04
	.byte		        37*seq_123_mvl/mxv
	.byte	W04
	.byte		        31*seq_123_mvl/mxv
	.byte	W04
	.byte		        25*seq_123_mvl/mxv
	.byte	W03
	.byte		        18*seq_123_mvl/mxv
	.byte	W04
	.byte		MOD   , 0
	.byte	W01
	.byte		VOL   , 62*seq_123_mvl/mxv
	.byte	W01
	.byte		N24   , Cs4 
	.byte	W24
	.byte		        Bn3 
	.byte	W23
	.byte	W01
	.byte		N06   , Dn4 
	.byte	W06
	.byte		        Ds4 
	.byte	W06
	.byte		N84   , Fn4 , v100
	.byte	W18
	.byte		MOD   , 80
	.byte	W22
	.byte		VOL   , 56*seq_123_mvl/mxv
	.byte	W05
	.byte		        50*seq_123_mvl/mxv
	.byte	W06
	.byte		        44*seq_123_mvl/mxv
	.byte	W05
	.byte		        37*seq_123_mvl/mxv
	.byte	W05
	.byte		        31*seq_123_mvl/mxv
	.byte	W06
	.byte		        25*seq_123_mvl/mxv
	.byte	W05
	.byte		        18*seq_123_mvl/mxv
	.byte	W05
	.byte		        12*seq_123_mvl/mxv
	.byte	W04
	.byte		        6*seq_123_mvl/mxv
	.byte	W02
	.byte	W92
	.byte	W03
	.byte		MOD   , 0
	.byte	W01
	.byte	W96
	.byte	W96
	.byte	W96
	.byte	W96
	.byte	W96
	.byte	W96
	.byte	W96
	.byte	W96
	.byte	W96
	.byte	GOTO
	 .word	seq_123_5 + 0x16
	.byte	FINE

@*********************** Track 07 ***********************@

seq_123_6:
	.byte	KEYSH , seq_123_key+0
	.byte	W12
	.byte		VOICE , 61
	.byte	W01
	.byte		VOL   , 44*seq_123_mvl/mxv
	.byte	W01
	.byte		PAN   , c_v+0
	.byte	W01
	.byte		LFOS  , 30
	.byte	W01
	.byte		MODT  , mod_tre
	.byte	W01
	.byte		LFODL , 0
	.byte	W07
	.byte	W96
	.byte	W22
	.byte		MOD   , 0
	.byte	W01
	.byte		VOL   , 44*seq_123_mvl/mxv
	.byte	W01
	.byte		N24   , As3 , v120
	.byte	W05
	.byte		VOL   , 50*seq_123_mvl/mxv
	.byte	W06
	.byte		        56*seq_123_mvl/mxv
	.byte	W05
	.byte		        62*seq_123_mvl/mxv
	.byte	W04
	.byte		        69*seq_123_mvl/mxv
	.byte	W04
	.byte		N24   , Fn3 , v100
	.byte	W24
	.byte		        Dn3 , v120
	.byte	W24
	.byte		N96   , Ds3 , v120
	.byte	W24
	.byte	W01
	.byte		MOD   , 10
	.byte	W02
	.byte		        20
	.byte	W03
	.byte		        30
	.byte	W03
	.byte		        40
	.byte	W04
	.byte		        50
	.byte	W04
	.byte		VOL   , 62*seq_123_mvl/mxv
	.byte	W01
	.byte		MOD   , 60
	.byte	W06
	.byte		        80
	.byte	W01
	.byte		VOL   , 56*seq_123_mvl/mxv
	.byte	W07
	.byte		        50*seq_123_mvl/mxv
	.byte	W06
	.byte		        44*seq_123_mvl/mxv
	.byte	W07
	.byte		        37*seq_123_mvl/mxv
	.byte	W06
	.byte		        31*seq_123_mvl/mxv
	.byte	W07
	.byte		        25*seq_123_mvl/mxv
	.byte	W07
	.byte		        18*seq_123_mvl/mxv
	.byte	W02
	.byte		        12*seq_123_mvl/mxv
	.byte	W02
	.byte		MOD   , 0
	.byte	W01
	.byte		VOL   , 6*seq_123_mvl/mxv
	.byte	W01
	.byte		        0*seq_123_mvl/mxv
	.byte	W01
	.byte	PEND
	.byte	W96
	.byte	W96
	.byte	W23
	.byte		        44*seq_123_mvl/mxv
	.byte	W01
	.byte		N24   , As3 
	.byte	W05
	.byte		VOL   , 50*seq_123_mvl/mxv
	.byte	W06
	.byte		        56*seq_123_mvl/mxv
	.byte	W05
	.byte		        62*seq_123_mvl/mxv
	.byte	W04
	.byte		        69*seq_123_mvl/mxv
	.byte	W04
	.byte		N24   , Fn3 , v100
	.byte	W24
	.byte		        Dn3 , v120
	.byte	W24
	.byte	PATT
	 .word	seq_123_6 + 0x31
	.byte	W96
	.byte	W96
	.byte	W96
	.byte	W96
	.byte	W96
	.byte	W96
	.byte	W96
	.byte	W96
	.byte	W96
	.byte	W96
	.byte	W96
	.byte	W96
	.byte	W96
	.byte	W96
	.byte	W96
	.byte	W96
	.byte	W96
	.byte	W92
	.byte	W01
	.byte		VOICE , 25
	.byte	W01
	.byte		VOL   , 50*seq_123_mvl/mxv
	.byte	W01
	.byte		MOD   , 120
	.byte	W01
	.byte		N02   , Gs3 , v120
	.byte	W02
	.byte		        Gs4 , v060
	.byte	W02
	.byte		        Gs3 , v040
	.byte	W02
	.byte		        Gs4 
	.byte	W02
	.byte		        Gs3 
	.byte	W02
	.byte		        Gs4 
	.byte	W02
	.byte		        Gs3 , v020
	.byte	W02
	.byte		        Gs4 
	.byte	W02
	.byte		        Gs3 
	.byte	W02
	.byte		        Gs4 
	.byte	W02
	.byte		        Gs3 
	.byte	W02
	.byte		        Gs4 
	.byte	W72
	.byte	W02
	.byte	W96
	.byte	W96
	.byte	W96
	.byte		        Cs4 , v120
	.byte	W02
	.byte		        Cs5 , v060
	.byte	W02
	.byte		        Cs4 , v040
	.byte	W02
	.byte		        Cs5 
	.byte	W02
	.byte		        Cs4 
	.byte	W02
	.byte		        Cs5 
	.byte	W02
	.byte		        Cs4 , v020
	.byte	W02
	.byte		        Cs5 
	.byte	W02
	.byte		        Cs4 
	.byte	W02
	.byte		        Cs5 
	.byte	W02
	.byte		        Cs4 
	.byte	W02
	.byte		        Cs5 
	.byte	W72
	.byte	W02
	.byte		        Dn3 , v120
	.byte	W02
	.byte		        Dn4 , v060
	.byte	W02
	.byte		        Dn3 , v040
	.byte	W02
	.byte		        Dn4 
	.byte	W02
	.byte		        Dn3 
	.byte	W02
	.byte		        Dn4 , v020
	.byte	W02
	.byte		        An2 , v120
	.byte	W02
	.byte		        An3 , v060
	.byte	W02
	.byte		        An2 , v040
	.byte	W02
	.byte		        An3 
	.byte	W02
	.byte		        An2 
	.byte	W02
	.byte		        An3 , v020
	.byte	W02
	.byte		        Fs2 , v120
	.byte	W02
	.byte		        Fs3 , v060
	.byte	W02
	.byte		        Fs2 , v040
	.byte	W02
	.byte		        Fs3 
	.byte	W02
	.byte		        Fs2 
	.byte	W02
	.byte		        Fs3 
	.byte	W02
	.byte		        Fs2 
	.byte	W02
	.byte		        Fs3 
	.byte	W02
	.byte		        Fs2 
	.byte	W02
	.byte		        Fs3 , v020
	.byte	W02
	.byte		        Fs2 
	.byte	W02
	.byte		        Fs3 
	.byte	W02
	.byte		        Fs2 
	.byte	W02
	.byte		        Fs3 
	.byte	W02
	.byte		        Fs2 
	.byte	W02
	.byte		        Fs3 
	.byte	W02
	.byte		        Fs2 
	.byte	W02
	.byte		        Fs3 
	.byte	W02
	.byte		        En2 , v120
	.byte	W02
	.byte		        En3 , v060
	.byte	W02
	.byte		        En2 , v040
	.byte	W02
	.byte		        En3 
	.byte	W02
	.byte		        En2 
	.byte	W02
	.byte		        En3 , v020
	.byte	W02
	.byte		        En2 
	.byte	W02
	.byte		        En3 
	.byte	W02
	.byte		        En2 
	.byte	W02
	.byte		        En3 
	.byte	W02
	.byte		        En2 
	.byte	W02
	.byte		        En3 
	.byte	W13
	.byte		MOD   , 40
	.byte	W01
	.byte	W12
	.byte		N02   , Ds3 , v120
	.byte	W02
	.byte		        Ds4 , v060
	.byte	W02
	.byte		        Ds3 , v040
	.byte	W02
	.byte		        Ds4 
	.byte	W02
	.byte		        Ds3 
	.byte	W02
	.byte		        Ds4 , v020
	.byte	W02
	.byte		        Gs3 , v120
	.byte	W02
	.byte		        Gs4 , v060
	.byte	W02
	.byte		        Gs3 , v040
	.byte	W02
	.byte		        Gs4 
	.byte	W02
	.byte		        Gs3 
	.byte	W02
	.byte		        Gs4 , v020
	.byte	W02
	.byte		        Ds4 , v120
	.byte	W02
	.byte		        Ds5 , v060
	.byte	W02
	.byte		        Ds4 , v040
	.byte	W02
	.byte		        Ds5 
	.byte	W02
	.byte		        Ds4 
	.byte	W02
	.byte		        Ds5 , v020
	.byte	W02
	.byte		        As3 , v120
	.byte	W02
	.byte		        As4 , v060
	.byte	W02
	.byte		        As3 , v040
	.byte	W02
	.byte		        As4 
	.byte	W02
	.byte		        As3 
	.byte	W02
	.byte		        As4 , v020
	.byte	W02
	.byte		        Fn3 , v120
	.byte	W02
	.byte		        Fn4 , v060
	.byte	W02
	.byte		        Fn3 , v040
	.byte	W02
	.byte		        Fn4 
	.byte	W02
	.byte		        Fn3 
	.byte	W02
	.byte		        Fn4 , v020
	.byte	W02
	.byte		        Cn4 , v100
	.byte	W02
	.byte		        Cn5 , v060
	.byte	W02
	.byte		        Cn4 , v040
	.byte	W02
	.byte		        Cn5 
	.byte	W02
	.byte		        Cn4 
	.byte	W02
	.byte		        Cn5 , v020
	.byte	W02
	.byte		        Gn3 , v100
	.byte	W02
	.byte		        Gn4 , v060
	.byte	W02
	.byte		        Gn3 , v040
	.byte	W02
	.byte		        Gn4 
	.byte	W02
	.byte		        Gn3 
	.byte	W02
	.byte		        Gn4 , v020
	.byte	W01
	.byte		VOICE , 61
	.byte	W01
	.byte	GOTO
	 .word	seq_123_6 + 0x16
	.byte	FINE

@*********************** Track 08 ***********************@

seq_123_7:
	.byte	KEYSH , seq_123_key+0
	.byte	W18
	.byte		VOICE , 21
	.byte	W01
	.byte		VOL   , 18*seq_123_mvl/mxv
	.byte	W01
	.byte		PAN   , c_v-24
	.byte	W04
	.byte	W96
	.byte	W24
	.byte		N24   , Fn2 , v120
	.byte	W10
	.byte		VOL   , 25*seq_123_mvl/mxv
	.byte	W06
	.byte		        31*seq_123_mvl/mxv
	.byte	W05
	.byte		        37*seq_123_mvl/mxv
	.byte	W03
	.byte		N24   , Dn2 , v100
	.byte	W22
	.byte		VOL   , 31*seq_123_mvl/mxv
	.byte	W02
	.byte		N24   , Fn2 , v120
	.byte	W24
	.byte	PEND
	.byte		N96   , Fs2 , v120
	.byte	W24
	.byte	W02
	.byte		VOL   , 37*seq_123_mvl/mxv
	.byte	W32
	.byte	W01
	.byte		        31*seq_123_mvl/mxv
	.byte	W10
	.byte		        25*seq_123_mvl/mxv
	.byte	W05
	.byte		        18*seq_123_mvl/mxv
	.byte	W06
	.byte		        12*seq_123_mvl/mxv
	.byte	W05
	.byte		        6*seq_123_mvl/mxv
	.byte	W05
	.byte		        0*seq_123_mvl/mxv
	.byte	W06
	.byte	PEND
	.byte	W96
	.byte	W96
	.byte	PATT
	 .word	seq_123_7 + 0xD
	.byte	PATT
	 .word	seq_123_7 + 0x25
	.byte	W96
	.byte	W96
	.byte	W96
	.byte	W96
	.byte	W96
	.byte	W96
	.byte	W96
	.byte	W96
	.byte	W96
	.byte	W96
	.byte	W96
	.byte	W96
	.byte	W96
	.byte	W96
	.byte	W96
	.byte	W96
	.byte	W96
	.byte	W96
	.byte	W96
	.byte	W96
	.byte	W96
	.byte	W96
	.byte	W96
	.byte	W96
	.byte	W96
	.byte	GOTO
	 .word	seq_123_7 + 0xD
	.byte	FINE

@*********************** Track 09 ***********************@

seq_123_8:
	.byte	KEYSH , seq_123_key+0
	.byte	W12
	.byte		VOICE , 104
	.byte	W01
	.byte		VOL   , 80*seq_123_mvl/mxv
	.byte	W01
	.byte		PAN   , c_v+0
	.byte	W01
	.byte		LFOS  , 30
	.byte	W01
	.byte		BENDR , 12
	.byte	W01
	.byte		LFODL , 0
	.byte	W07
	.byte	W96
	.byte	W01
	.byte		N03   , Cn2 , v120
	.byte	W06
	.byte		N03
	.byte	W06
	.byte		N02   , Cn2 , v040
	.byte	W12
	.byte		N03
	.byte	W12
	.byte		N02
	.byte	W06
	.byte		N03   , Cn2 , v120
	.byte	W06
	.byte		N01   , Cn2 , v040
	.byte	W06
	.byte		N03   , Cn2 , v120
	.byte	W06
	.byte		N03
	.byte	W12
	.byte		        Cn2 , v040
	.byte	W12
	.byte		N03
	.byte	W11
	.byte	PEND
	.byte	W01
	.byte		N03   , Cs2 , v120
	.byte	W06
	.byte		N03
	.byte	W06
	.byte		N02   , Cs2 , v040
	.byte	W12
	.byte		N03
	.byte	W12
	.byte		N02
	.byte	W06
	.byte		N03   , Cs2 , v120
	.byte	W06
	.byte		N01   , Cs2 , v040
	.byte	W06
	.byte		N03   , Cs2 , v120
	.byte	W06
	.byte		N03
	.byte	W12
	.byte		        Cs2 , v040
	.byte	W12
	.byte		N03
	.byte	W11
	.byte	PEND
	.byte	PATT
	 .word	seq_123_8 + 0x16
	.byte	PATT
	 .word	seq_123_8 + 0x39
	.byte	PATT
	 .word	seq_123_8 + 0x16
	.byte	PATT
	 .word	seq_123_8 + 0x39
	.byte	PATT
	 .word	seq_123_8 + 0x16
	.byte	PATT
	 .word	seq_123_8 + 0x39
	.byte	PATT
	 .word	seq_123_8 + 0x16
	.byte	PATT
	 .word	seq_123_8 + 0x39
	.byte	PATT
	 .word	seq_123_8 + 0x16
	.byte	PATT
	 .word	seq_123_8 + 0x39
	.byte	PATT
	 .word	seq_123_8 + 0x16
	.byte	PATT
	 .word	seq_123_8 + 0x39
	.byte	PATT
	 .word	seq_123_8 + 0x16
	.byte	PATT
	 .word	seq_123_8 + 0x39
	.byte	PATT
	 .word	seq_123_8 + 0x16
	.byte	PATT
	 .word	seq_123_8 + 0x39
	.byte	PATT
	 .word	seq_123_8 + 0x16
	.byte	PATT
	 .word	seq_123_8 + 0x39
	.byte	PATT
	 .word	seq_123_8 + 0x16
	.byte	PATT
	 .word	seq_123_8 + 0x39
	.byte	W01
	.byte		N03   , As1 , v120
	.byte	W06
	.byte		N03
	.byte	W06
	.byte		N02   , As1 , v040
	.byte	W12
	.byte		N03
	.byte	W12
	.byte		N02
	.byte	W06
	.byte		N03   , As1 , v120
	.byte	W06
	.byte		N01   , As1 , v040
	.byte	W06
	.byte		N03   , As1 , v120
	.byte	W06
	.byte		N03
	.byte	W12
	.byte		        As1 , v040
	.byte	W12
	.byte		N03
	.byte	W11
	.byte	PEND
	.byte	PATT
	 .word	seq_123_8 + 0x16
	.byte	PATT
	 .word	seq_123_8 + 0xC0
	.byte	PATT
	 .word	seq_123_8 + 0x16
	.byte	PATT
	 .word	seq_123_8 + 0x39
	.byte	W01
	.byte		N03   , Dn2 , v120
	.byte	W06
	.byte		N03
	.byte	W06
	.byte		N02   , Dn2 , v040
	.byte	W12
	.byte		N03
	.byte	W12
	.byte		N02
	.byte	W06
	.byte		N03   , Dn2 , v120
	.byte	W06
	.byte		N01   , Dn2 , v040
	.byte	W06
	.byte		N03   , Dn2 , v120
	.byte	W06
	.byte		N03
	.byte	W12
	.byte		        Dn2 , v040
	.byte	W12
	.byte		N03
	.byte	W11
	.byte	W01
	.byte		        Ds2 , v120
	.byte	W06
	.byte		N03
	.byte	W06
	.byte		N02   , Ds2 , v040
	.byte	W12
	.byte		N03
	.byte	W12
	.byte		N02
	.byte	W06
	.byte		N03   , Ds2 , v120
	.byte	W06
	.byte		N01   , Ds2 , v040
	.byte	W06
	.byte		N03   , Ds2 , v120
	.byte	W06
	.byte		N03
	.byte	W12
	.byte		        Ds2 , v040
	.byte	W12
	.byte		N03
	.byte	W11
	.byte	W01
	.byte		        En2 , v120
	.byte	W06
	.byte		N03
	.byte	W06
	.byte		N02   , En2 , v040
	.byte	W12
	.byte		N03
	.byte	W12
	.byte		N02
	.byte	W12
	.byte		N12   , En2 , v120
	.byte	W12
	.byte		N09   , Dn2 
	.byte	W09
	.byte		N04   , Dn2 , v060
	.byte	W15
	.byte		N06   , Cs2 , v120
	.byte	W06
	.byte		N04   , Cs2 , v060
	.byte	W05
	.byte	W96
	.byte	GOTO
	 .word	seq_123_8 + 0x16
	.byte	FINE

@*********************** Track 10 ***********************@

seq_123_9:
	.byte	KEYSH , seq_123_key+0
	.byte	W12
	.byte		VOICE , 74
	.byte	W01
	.byte		VOL   , 44*seq_123_mvl/mxv
	.byte	W01
	.byte		PAN   , c_v+0
	.byte	W01
	.byte		LFOS  , 10
	.byte	W01
	.byte		MODT  , mod_pan
	.byte	W08
	.byte	W12
	.byte		N02   , Ds2 , v120
	.byte	W02
	.byte		        Ds3 , v060
	.byte	W02
	.byte		        Ds2 , v040
	.byte	W02
	.byte		        Ds3 
	.byte	W02
	.byte		        Ds2 
	.byte	W02
	.byte		        Ds3 , v020
	.byte	W02
	.byte		        Gs2 , v120
	.byte	W02
	.byte		        Gs3 , v060
	.byte	W02
	.byte		        Gs2 , v040
	.byte	W02
	.byte		        Gs3 
	.byte	W02
	.byte		        Gs2 
	.byte	W02
	.byte		        Gs3 , v020
	.byte	W02
	.byte		        Ds3 , v120
	.byte	W02
	.byte		        Ds4 , v060
	.byte	W02
	.byte		        Ds3 , v040
	.byte	W02
	.byte		        Ds4 
	.byte	W02
	.byte		        Ds3 
	.byte	W02
	.byte		        Ds4 , v020
	.byte	W02
	.byte		        As2 , v120
	.byte	W02
	.byte		        As3 , v060
	.byte	W02
	.byte		        As2 , v040
	.byte	W02
	.byte		        As3 
	.byte	W02
	.byte		        As2 
	.byte	W02
	.byte		        As3 , v020
	.byte	W02
	.byte		        Fn2 , v120
	.byte	W02
	.byte		        Fn3 , v060
	.byte	W02
	.byte		        Fn2 , v040
	.byte	W02
	.byte		        Fn3 
	.byte	W02
	.byte		        Fn2 
	.byte	W02
	.byte		        Fn3 , v020
	.byte	W02
	.byte		        Cn3 , v100
	.byte	W02
	.byte		        Cn4 , v060
	.byte	W02
	.byte		        Cn3 , v040
	.byte	W02
	.byte		        Cn4 
	.byte	W02
	.byte		        Cn3 
	.byte	W02
	.byte		        Cn4 , v020
	.byte	W02
	.byte		        Gn2 , v100
	.byte	W02
	.byte		        Gn3 , v060
	.byte	W02
	.byte		        Gn2 , v040
	.byte	W02
	.byte		        Gn3 
	.byte	W02
	.byte		        Gn2 
	.byte	W02
	.byte		        Gn3 , v020
	.byte	W02
	.byte		N12   , As3 , v120
	.byte	W11
	.byte		VOICE , 76
	.byte	W01
	.byte		N12   , As3 , v040
	.byte	W11
	.byte		VOICE , 74
	.byte	W01
	.byte		N12   , Fn3 , v120
	.byte	W11
	.byte		VOICE , 76
	.byte	W01
	.byte		N12   , Fn3 , v040
	.byte	W11
	.byte		VOICE , 74
	.byte	W01
	.byte		N12   , Dn3 , v120
	.byte	W11
	.byte		VOICE , 76
	.byte	W01
	.byte		N12   , Dn3 , v040
	.byte	W11
	.byte		VOICE , 74
	.byte	W01
	.byte		N12   , As2 , v120
	.byte	W11
	.byte		VOICE , 79
	.byte	W01
	.byte		N12   , As2 , v040
	.byte	W12
	.byte	PEND
	.byte		N06   , Bn2 , v100
	.byte	W05
	.byte		VOICE , 74
	.byte	W01
	.byte		N06   , Cs3 , v120
	.byte	W05
	.byte		VOICE , 76
	.byte	W01
	.byte		N12   , Ds3 
	.byte	W11
	.byte		VOICE , 74
	.byte	W01
	.byte		N12   , Cs3 
	.byte	W11
	.byte		VOICE , 76
	.byte	W01
	.byte		N12   , Bn2 
	.byte	W11
	.byte		VOICE , 74
	.byte	W01
	.byte		N12   , As2 
	.byte	W11
	.byte		VOICE , 76
	.byte	W01
	.byte		N12   , As2 , v060
	.byte	W11
	.byte		VOICE , 74
	.byte	W01
	.byte		N12   , Gs2 , v120
	.byte	W11
	.byte		VOICE , 76
	.byte	W01
	.byte		N12   , Gs2 , v060
	.byte	W11
	.byte		VOICE , 74
	.byte	W01
	.byte	PEND
	.byte		N12   , As2 , v120
	.byte	W11
	.byte		VOICE , 76
	.byte	W01
	.byte		N12   , As2 , v060
	.byte	W12
	.byte		N06   , As2 , v040
	.byte	W72
	.byte	PEND
	.byte	W92
	.byte	W03
	.byte		VOICE , 74
	.byte	W01
	.byte	PEND
	.byte	PATT
	 .word	seq_123_9 + 0x84
	.byte	PATT
	 .word	seq_123_9 + 0xBA
	.byte	PATT
	 .word	seq_123_9 + 0xF6
	.byte	PATT
	 .word	seq_123_9 + 0x106
	.byte	PATT
	 .word	seq_123_9 + 0x84
	.byte	PATT
	 .word	seq_123_9 + 0xBA
	.byte	PATT
	 .word	seq_123_9 + 0xF6
	.byte	PATT
	 .word	seq_123_9 + 0x106
	.byte	PATT
	 .word	seq_123_9 + 0x84
	.byte		N06   , Bn2 , v100
	.byte	W05
	.byte		VOICE , 74
	.byte	W01
	.byte		N06   , Cs3 , v120
	.byte	W05
	.byte		VOICE , 76
	.byte	W01
	.byte		N12   , Ds3 
	.byte	W11
	.byte		VOICE , 74
	.byte	W01
	.byte		N12   , Cs3 
	.byte	W11
	.byte		VOICE , 76
	.byte	W01
	.byte		N12   , Bn2 
	.byte	W11
	.byte		VOICE , 74
	.byte	W01
	.byte		N12   , As2 
	.byte	W11
	.byte		VOICE , 76
	.byte	W01
	.byte		N12   , As2 , v060
	.byte	W11
	.byte		VOICE , 74
	.byte	W01
	.byte		N12   , Gs2 , v120
	.byte	W11
	.byte		VOICE , 76
	.byte	W01
	.byte		N12   , Gs2 , v060
	.byte	W10
	.byte		MOD   , 0
	.byte	W01
	.byte		VOICE , 74
	.byte	W01
	.byte	PATT
	 .word	seq_123_9 + 0x84
	.byte	PATT
	 .word	seq_123_9 + 0xBA
	.byte	PATT
	 .word	seq_123_9 + 0xF6
	.byte	PATT
	 .word	seq_123_9 + 0x106
	.byte	PATT
	 .word	seq_123_9 + 0x84
	.byte		N06   , Bn2 , v100
	.byte	W05
	.byte		VOICE , 74
	.byte	W01
	.byte		N06   , Cs3 , v120
	.byte	W05
	.byte		VOICE , 76
	.byte	W01
	.byte		N12   , Ds3 
	.byte	W11
	.byte		VOICE , 74
	.byte	W01
	.byte		N12   , Cs3 
	.byte	W11
	.byte		VOICE , 76
	.byte	W01
	.byte		N12   , Bn2 
	.byte	W11
	.byte		VOICE , 74
	.byte	W01
	.byte		N12   , As2 
	.byte	W11
	.byte		VOICE , 76
	.byte	W01
	.byte		N12   , As2 , v040
	.byte	W11
	.byte		VOICE , 74
	.byte	W01
	.byte		N12   , Fn3 , v120
	.byte	W11
	.byte		VOICE , 76
	.byte	W01
	.byte		N12   , Fn3 , v040
	.byte	W11
	.byte		VOICE , 74
	.byte	W01
	.byte		N12   , As3 , v120
	.byte	W11
	.byte		VOICE , 76
	.byte	W01
	.byte		N12   , As3 , v060
	.byte	W12
	.byte		N06   , As3 , v040
	.byte	W72
	.byte	W96
	.byte	W23
	.byte		VOICE , 74
	.byte	W01
	.byte		N12   , Cn3 , v120
	.byte	W11
	.byte		VOICE , 76
	.byte	W01
	.byte		N12   , Cn3 , v060
	.byte	W11
	.byte		VOICE , 74
	.byte	W01
	.byte		N12   , Ds3 , v120
	.byte	W11
	.byte		VOICE , 76
	.byte	W01
	.byte		N12   , Ds3 , v060
	.byte	W11
	.byte		VOICE , 74
	.byte	W01
	.byte		N12   , Cn4 , v120
	.byte	W11
	.byte		VOICE , 79
	.byte	W01
	.byte		N12   , Cn4 , v060
	.byte	W12
	.byte		        Fn3 , v120
	.byte	W11
	.byte		VOICE , 76
	.byte	W01
	.byte		N12   , Fn3 , v060
	.byte	W12
	.byte		        Fn3 , v040
	.byte	W68
	.byte	W03
	.byte		VOICE , 74
	.byte	W01
	.byte		N12   , Ds3 , v120
	.byte	W11
	.byte		VOICE , 76
	.byte	W01
	.byte		N06   , Ds3 , v060
	.byte	W06
	.byte		        Ds3 , v020
	.byte	W78
	.byte	W96
	.byte	W23
	.byte		VOICE , 74
	.byte	W01
	.byte		N12   , Fs3 , v120
	.byte	W11
	.byte		VOICE , 76
	.byte	W01
	.byte		N12   , Fs3 , v060
	.byte	W11
	.byte		VOICE , 74
	.byte	W01
	.byte		N12   , Ds3 , v120
	.byte	W11
	.byte		VOICE , 76
	.byte	W01
	.byte		N12   , Ds3 , v060
	.byte	W11
	.byte		VOICE , 74
	.byte	W01
	.byte		N12   , Bn3 , v120
	.byte	W11
	.byte		VOICE , 79
	.byte	W01
	.byte		N12   , Bn3 , v060
	.byte	W12
	.byte		        Gn3 , v120
	.byte	W11
	.byte		VOICE , 76
	.byte	W01
	.byte		N12   , Gn3 , v060
	.byte	W12
	.byte		        Gn3 , v040
	.byte	W68
	.byte	W03
	.byte		VOICE , 74
	.byte	W01
	.byte		N12   , Fn3 , v120
	.byte	W11
	.byte		VOICE , 76
	.byte	W01
	.byte		N06   , Fn3 , v060
	.byte	W06
	.byte		        Fn3 , v040
	.byte	W78
	.byte	W96
	.byte	W11
	.byte		VOICE , 74
	.byte	W01
	.byte		N02   , Ds2 , v120
	.byte	W02
	.byte		        Ds3 , v060
	.byte	W02
	.byte		        Ds2 , v040
	.byte	W02
	.byte		        Ds3 
	.byte	W02
	.byte		        Ds2 
	.byte	W02
	.byte		        Ds3 , v020
	.byte	W02
	.byte		        Gs2 , v120
	.byte	W02
	.byte		        Gs3 , v060
	.byte	W02
	.byte		        Gs2 , v040
	.byte	W02
	.byte		        Gs3 
	.byte	W02
	.byte		        Gs2 
	.byte	W02
	.byte		        Gs3 , v020
	.byte	W02
	.byte		        Ds3 , v120
	.byte	W02
	.byte		        Ds4 , v060
	.byte	W02
	.byte		        Ds3 , v040
	.byte	W02
	.byte		        Ds4 
	.byte	W02
	.byte		        Ds3 
	.byte	W02
	.byte		        Ds4 , v020
	.byte	W02
	.byte		        As2 , v120
	.byte	W02
	.byte		        As3 , v060
	.byte	W02
	.byte		        As2 , v040
	.byte	W02
	.byte		        As3 
	.byte	W02
	.byte		        As2 
	.byte	W02
	.byte		        As3 , v020
	.byte	W02
	.byte		        Fn2 , v120
	.byte	W02
	.byte		        Fn3 , v060
	.byte	W02
	.byte		        Fn2 , v040
	.byte	W02
	.byte		        Fn3 
	.byte	W02
	.byte		        Fn2 
	.byte	W02
	.byte		        Fn3 , v020
	.byte	W02
	.byte		        Cn3 , v100
	.byte	W02
	.byte		        Cn4 , v060
	.byte	W02
	.byte		        Cn3 , v040
	.byte	W02
	.byte		        Cn4 
	.byte	W02
	.byte		        Cn3 
	.byte	W02
	.byte		        Cn4 , v020
	.byte	W02
	.byte		        Gn2 , v100
	.byte	W02
	.byte		        Gn3 , v060
	.byte	W02
	.byte		        Gn2 , v040
	.byte	W02
	.byte		        Gn3 
	.byte	W02
	.byte		        Gn2 
	.byte	W02
	.byte		        Gn3 , v020
	.byte	W02
	.byte	GOTO
	 .word	seq_123_9 + 0x84
	.byte	FINE

@*********************** Track 11 ***********************@

seq_123_10:
	.byte	KEYSH , seq_123_key+0
	.byte	W18
	.byte		VOICE , 88
	.byte	W01
	.byte		VOL   , 31*seq_123_mvl/mxv
	.byte	W01
	.byte		PAN   , c_v+0
	.byte	W01
	.byte		LFOS  , 10
	.byte	W01
	.byte		MODT  , mod_pan
	.byte	W02
	.byte	W12
	.byte		N02   , Ds1 , v120
	.byte	W02
	.byte		        Ds2 , v060
	.byte	W02
	.byte		        Ds1 , v040
	.byte	W02
	.byte		        Ds2 
	.byte	W02
	.byte		        Ds1 
	.byte	W02
	.byte		        Ds2 , v020
	.byte	W02
	.byte		        Gs1 , v120
	.byte	W02
	.byte		        Gs2 , v060
	.byte	W02
	.byte		        Gs1 , v040
	.byte	W02
	.byte		        Gs2 
	.byte	W02
	.byte		        Gs1 
	.byte	W02
	.byte		        Gs2 , v020
	.byte	W02
	.byte		        Ds2 , v120
	.byte	W02
	.byte		        Ds3 , v060
	.byte	W02
	.byte		        Ds2 , v040
	.byte	W02
	.byte		        Ds3 
	.byte	W02
	.byte		        Ds2 
	.byte	W02
	.byte		        Ds3 , v020
	.byte	W02
	.byte		        As1 , v120
	.byte	W02
	.byte		        As2 , v060
	.byte	W02
	.byte		        As1 , v040
	.byte	W02
	.byte		        As2 
	.byte	W02
	.byte		        As1 
	.byte	W02
	.byte		        As2 , v020
	.byte	W02
	.byte		        Fn1 , v120
	.byte	W02
	.byte		        Fn2 , v060
	.byte	W02
	.byte		        Fn1 , v040
	.byte	W02
	.byte		        Fn2 
	.byte	W02
	.byte		        Fn1 
	.byte	W02
	.byte		        Fn2 , v020
	.byte	W02
	.byte		        Cn2 , v100
	.byte	W02
	.byte		        Cn3 , v060
	.byte	W02
	.byte		        Cn2 , v040
	.byte	W02
	.byte		        Cn3 
	.byte	W02
	.byte		        Cn2 
	.byte	W02
	.byte		        Cn3 , v020
	.byte	W02
	.byte		        Gn1 , v100
	.byte	W02
	.byte		        Gn2 , v060
	.byte	W02
	.byte		        Gn1 , v040
	.byte	W02
	.byte		        Gn2 
	.byte	W02
	.byte		        Gn1 
	.byte	W02
	.byte		        Gn2 , v020
	.byte	W02
	.byte		N12   , Dn3 , v120
	.byte	W11
	.byte		VOICE , 80
	.byte	W01
	.byte		N12   , Dn3 , v060
	.byte	W11
	.byte		VOICE , 88
	.byte	W01
	.byte		N12   , As2 , v120
	.byte	W11
	.byte		VOICE , 80
	.byte	W01
	.byte		N12   , As2 , v060
	.byte	W11
	.byte		VOICE , 88
	.byte	W01
	.byte		N12   , Fn2 , v120
	.byte	W11
	.byte		VOICE , 80
	.byte	W01
	.byte		N12   , Fn2 , v060
	.byte	W11
	.byte		VOICE , 88
	.byte	W01
	.byte		N12   , Dn2 , v120
	.byte	W11
	.byte		VOICE , 80
	.byte	W01
	.byte		N12   , Dn2 , v060
	.byte	W12
	.byte	PEND
	.byte		N06   , Fs2 , v100
	.byte	W05
	.byte		VOICE , 88
	.byte	W01
	.byte		N06   , As2 , v120
	.byte	W05
	.byte		VOICE , 80
	.byte	W01
	.byte		N12   , Bn2 
	.byte	W11
	.byte		VOICE , 88
	.byte	W01
	.byte		N12   , As2 
	.byte	W11
	.byte		VOICE , 80
	.byte	W01
	.byte		N12   , Fs2 , v100
	.byte	W11
	.byte		VOICE , 88
	.byte	W01
	.byte		N12   , Fs2 , v120
	.byte	W11
	.byte		VOICE , 80
	.byte	W01
	.byte		N12   , Fs2 , v060
	.byte	W11
	.byte		VOICE , 88
	.byte	W01
	.byte		N12   , Ds2 , v120
	.byte	W11
	.byte		VOICE , 80
	.byte	W01
	.byte		N12   , Ds2 , v060
	.byte	W11
	.byte		VOICE , 88
	.byte	W01
	.byte	PEND
	.byte		N12   , Dn2 , v120
	.byte	W11
	.byte		VOICE , 80
	.byte	W01
	.byte		N06   , Dn2 , v060
	.byte	W06
	.byte		N12   , Dn2 , v040
	.byte	W78
	.byte	PEND
	.byte	W92
	.byte	W03
	.byte		VOICE , 88
	.byte	W01
	.byte	PEND
	.byte	PATT
	 .word	seq_123_10 + 0x84
	.byte	PATT
	 .word	seq_123_10 + 0xBA
	.byte	PATT
	 .word	seq_123_10 + 0xF8
	.byte	PATT
	 .word	seq_123_10 + 0x108
	.byte	PATT
	 .word	seq_123_10 + 0x84
	.byte	PATT
	 .word	seq_123_10 + 0xBA
	.byte	PATT
	 .word	seq_123_10 + 0xF8
	.byte	PATT
	 .word	seq_123_10 + 0x108
	.byte	PATT
	 .word	seq_123_10 + 0x84
	.byte		N06   , Fs2 , v100
	.byte	W05
	.byte		VOICE , 88
	.byte	W01
	.byte		N06   , As2 , v120
	.byte	W05
	.byte		VOICE , 80
	.byte	W01
	.byte		N12   , Bn2 
	.byte	W11
	.byte		VOICE , 88
	.byte	W01
	.byte		N12   , As2 
	.byte	W11
	.byte		VOICE , 80
	.byte	W01
	.byte		N12   , Fs2 , v100
	.byte	W11
	.byte		VOICE , 88
	.byte	W01
	.byte		N12   , Fs2 , v120
	.byte	W11
	.byte		VOICE , 80
	.byte	W01
	.byte		N12   , Fs2 , v060
	.byte	W11
	.byte		VOICE , 88
	.byte	W01
	.byte		N12   , Ds2 , v120
	.byte	W11
	.byte		VOICE , 80
	.byte	W01
	.byte		N12   , Ds2 , v060
	.byte	W10
	.byte		MOD   , 0
	.byte	W01
	.byte		VOICE , 88
	.byte	W01
	.byte	PATT
	 .word	seq_123_10 + 0x84
	.byte	PATT
	 .word	seq_123_10 + 0xBA
	.byte	PATT
	 .word	seq_123_10 + 0xF8
	.byte	PATT
	 .word	seq_123_10 + 0x108
	.byte		N12   , Dn3 , v120
	.byte	W11
	.byte		VOICE , 80
	.byte	W01
	.byte		N12   , Dn3 , v040
	.byte	W11
	.byte		VOICE , 88
	.byte	W01
	.byte		N12   , As2 , v120
	.byte	W11
	.byte		VOICE , 80
	.byte	W01
	.byte		N12   , As2 , v040
	.byte	W11
	.byte		VOICE , 88
	.byte	W01
	.byte		N12   , Fn2 , v120
	.byte	W11
	.byte		VOICE , 80
	.byte	W01
	.byte		N12   , Fn2 , v040
	.byte	W11
	.byte		VOICE , 88
	.byte	W01
	.byte		N12   , Dn2 , v120
	.byte	W11
	.byte		VOICE , 80
	.byte	W01
	.byte		N12   , Dn2 , v040
	.byte	W12
	.byte		N06   , Fs2 , v100
	.byte	W05
	.byte		VOICE , 88
	.byte	W01
	.byte		N06   , As2 , v120
	.byte	W05
	.byte		VOICE , 80
	.byte	W01
	.byte		N12   , Bn2 
	.byte	W11
	.byte		VOICE , 88
	.byte	W01
	.byte		N12   , As2 
	.byte	W11
	.byte		VOICE , 80
	.byte	W01
	.byte		N12   , Fs2 , v100
	.byte	W11
	.byte		VOICE , 88
	.byte	W01
	.byte		N12   , Fs2 , v120
	.byte	W11
	.byte		VOICE , 80
	.byte	W01
	.byte		N12   , Fs2 , v040
	.byte	W11
	.byte		VOICE , 88
	.byte	W01
	.byte		N12   , Ds2 , v120
	.byte	W11
	.byte		VOICE , 80
	.byte	W01
	.byte		N12   , Ds2 , v040
	.byte	W11
	.byte		VOICE , 88
	.byte	W01
	.byte	PATT
	 .word	seq_123_10 + 0xF8
	.byte	W96
	.byte	W23
	.byte		VOICE , 88
	.byte	W01
	.byte		N12   , Gs2 , v120
	.byte	W11
	.byte		VOICE , 80
	.byte	W01
	.byte		N12   , Gs2 , v060
	.byte	W11
	.byte		VOICE , 88
	.byte	W01
	.byte		N12   , Cn3 , v120
	.byte	W11
	.byte		VOICE , 80
	.byte	W01
	.byte		N12   , Cn3 , v060
	.byte	W11
	.byte		VOICE , 88
	.byte	W01
	.byte		N12   , Gs3 , v120
	.byte	W11
	.byte		VOICE , 80
	.byte	W01
	.byte		N12   , Gs3 , v060
	.byte	W12
	.byte		        As3 , v120
	.byte	W11
	.byte		VOICE , 80
	.byte	W01
	.byte		N12   , As3 , v060
	.byte	W12
	.byte		        As3 , v040
	.byte	W68
	.byte	W03
	.byte		VOICE , 88
	.byte	W01
	.byte		N12   , Cn4 , v120
	.byte	W11
	.byte		VOICE , 80
	.byte	W01
	.byte		N06   , Cn4 , v060
	.byte	W06
	.byte		        Cn4 , v040
	.byte	W78
	.byte	W96
	.byte	W23
	.byte		VOICE , 88
	.byte	W01
	.byte		N12   , Bn2 , v120
	.byte	W11
	.byte		VOICE , 80
	.byte	W01
	.byte		N12   , Bn2 , v060
	.byte	W11
	.byte		VOICE , 88
	.byte	W01
	.byte		N12   , Fs2 , v120
	.byte	W11
	.byte		VOICE , 80
	.byte	W01
	.byte		N12   , Fs2 , v060
	.byte	W11
	.byte		VOICE , 88
	.byte	W01
	.byte		N12   , Ds3 , v120
	.byte	W11
	.byte		VOICE , 80
	.byte	W01
	.byte		N12   , Ds3 , v060
	.byte	W12
	.byte		        Cn3 , v120
	.byte	W11
	.byte		VOICE , 80
	.byte	W01
	.byte		N12   , Cn3 , v060
	.byte	W12
	.byte		        Cn3 , v040
	.byte	W68
	.byte	W03
	.byte		VOICE , 88
	.byte	W01
	.byte		N12   , Cs3 , v120
	.byte	W11
	.byte		VOICE , 80
	.byte	W01
	.byte		N06   , Cs3 , v060
	.byte	W06
	.byte		        Cs3 , v040
	.byte	W78
	.byte	W96
	.byte	W11
	.byte		VOICE , 88
	.byte	W01
	.byte		N02   , Ds1 , v120
	.byte	W02
	.byte		        Ds2 , v060
	.byte	W02
	.byte		        Ds1 , v040
	.byte	W02
	.byte		        Ds2 
	.byte	W02
	.byte		        Ds1 
	.byte	W02
	.byte		        Ds2 , v020
	.byte	W02
	.byte		        Gs1 , v120
	.byte	W02
	.byte		        Gs2 , v060
	.byte	W02
	.byte		        Gs1 , v040
	.byte	W02
	.byte		        Gs2 
	.byte	W02
	.byte		        Gs1 
	.byte	W02
	.byte		        Gs2 , v020
	.byte	W02
	.byte		        Ds2 , v120
	.byte	W02
	.byte		        Ds3 , v060
	.byte	W02
	.byte		        Ds2 , v040
	.byte	W02
	.byte		        Ds3 
	.byte	W02
	.byte		        Ds2 
	.byte	W02
	.byte		        Ds3 , v020
	.byte	W02
	.byte		        As1 , v120
	.byte	W02
	.byte		        As2 , v060
	.byte	W02
	.byte		        As1 , v040
	.byte	W02
	.byte		        As2 
	.byte	W02
	.byte		        As1 
	.byte	W02
	.byte		        As2 , v020
	.byte	W02
	.byte		        Fn1 , v120
	.byte	W02
	.byte		        Fn2 , v060
	.byte	W02
	.byte		        Fn1 , v040
	.byte	W02
	.byte		        Fn2 
	.byte	W02
	.byte		        Fn1 
	.byte	W02
	.byte		        Fn2 , v020
	.byte	W02
	.byte		        Cn2 , v100
	.byte	W02
	.byte		        Cn3 , v060
	.byte	W02
	.byte		        Cn2 , v040
	.byte	W02
	.byte		        Cn3 
	.byte	W02
	.byte		        Cn2 
	.byte	W02
	.byte		        Cn3 , v020
	.byte	W02
	.byte		        Gn1 , v100
	.byte	W02
	.byte		        Gn2 , v060
	.byte	W02
	.byte		        Gn1 , v040
	.byte	W02
	.byte		        Gn2 
	.byte	W02
	.byte		        Gn1 
	.byte	W02
	.byte		        Gn2 , v020
	.byte	W02
	.byte	GOTO
	 .word	seq_123_10 + 0x84
	.byte	FINE

@*********************** Track 12 ***********************@

seq_123_11:
	.byte	KEYSH , seq_123_key+0
	.byte	W18
	.byte		VOICE , 112
	.byte	W01
	.byte		VOL   , 25*seq_123_mvl/mxv
	.byte	W01
	.byte		PAN   , c_v+0
	.byte	W04
	.byte	W96
	.byte		N02   , Gn4 , v120
	.byte	W06
	.byte		N01   , Gn4 , v100
	.byte	W36
	.byte		        Gn4 , v120
	.byte	W18
	.byte		        Gn4 , v100
	.byte	W36
	.byte	PEND
	.byte	PATT
	 .word	seq_123_11 + 0xD
	.byte	PATT
	 .word	seq_123_11 + 0xD
	.byte	PATT
	 .word	seq_123_11 + 0xD
	.byte	PATT
	 .word	seq_123_11 + 0xD
	.byte	PATT
	 .word	seq_123_11 + 0xD
	.byte	PATT
	 .word	seq_123_11 + 0xD
	.byte	PATT
	 .word	seq_123_11 + 0xD
	.byte	PATT
	 .word	seq_123_11 + 0xD
	.byte	PATT
	 .word	seq_123_11 + 0xD
	.byte	PATT
	 .word	seq_123_11 + 0xD
	.byte	PATT
	 .word	seq_123_11 + 0xD
	.byte	PATT
	 .word	seq_123_11 + 0xD
	.byte	PATT
	 .word	seq_123_11 + 0xD
	.byte	PATT
	 .word	seq_123_11 + 0xD
	.byte	PATT
	 .word	seq_123_11 + 0xD
	.byte	PATT
	 .word	seq_123_11 + 0xD
	.byte	PATT
	 .word	seq_123_11 + 0xD
	.byte	PATT
	 .word	seq_123_11 + 0xD
	.byte	PATT
	 .word	seq_123_11 + 0xD
	.byte	PATT
	 .word	seq_123_11 + 0xD
	.byte	PATT
	 .word	seq_123_11 + 0xD
	.byte	PATT
	 .word	seq_123_11 + 0xD
	.byte	PATT
	 .word	seq_123_11 + 0xD
	.byte	PATT
	 .word	seq_123_11 + 0xD
	.byte	PATT
	 .word	seq_123_11 + 0xD
	.byte	PATT
	 .word	seq_123_11 + 0xD
	.byte	PATT
	 .word	seq_123_11 + 0xD
	.byte	PATT
	 .word	seq_123_11 + 0xD
	.byte	PATT
	 .word	seq_123_11 + 0xD
	.byte	W96
	.byte	GOTO
	 .word	seq_123_11 + 0xD
	.byte	FINE

@******************************************************@

	.align	2

seq_123:
	.byte	12	@ NumTrks
	.byte	0	@ NumBlks
	.byte	seq_123_pri	@ Priority
	.byte	seq_123_rev	@ Reverb

	.word	seq_123_grp

	.word	seq_123_0
	.word	seq_123_1
	.word	seq_123_2
	.word	seq_123_3
	.word	seq_123_4
	.word	seq_123_5
	.word	seq_123_6
	.word	seq_123_7
	.word	seq_123_8
	.word	seq_123_9
	.word	seq_123_10
	.word	seq_123_11

	.end
