@ File generated by m4a2s Song-Module
	.include "MPlayDef.s"

	.equ	seq_214_grp, bank_025
	.equ	seq_214_pri, 50
	.equ	seq_214_rev, 178
	.equ	seq_214_mvl, 127
	.equ	seq_214_key, 0

	.section .rodata
	.global	seq_214
	.align	2

@*********************** Track 01 ***********************@

seq_214_0:
	.byte	KEYSH , seq_214_key+0
	.byte	TEMPO , 80/2
	.byte		VOICE , 48
	.byte	W01
	.byte		VOL   , 85*seq_214_mvl/mxv
	.byte	W01
	.byte		PAN   , c_v+0
	.byte	W09
	.byte		N04   , En4 , v092
	.byte	W01
	.byte	W01
	.byte		        Gn5 
	.byte	W03
	.byte		N02   , En4 , v020
	.byte	W03
	.byte		N01   , Gn5 
	.byte	W04
	.byte		N04   , Fs4 , v080
	.byte	W02
	.byte		        Fs5 
	.byte	W03
	.byte		N02   , Fs4 , v020
	.byte	W03
	.byte		N01   , Fs5 
	.byte	W04
	.byte		N06   , Gn4 , v060
	.byte	W02
	.byte		N04   , En5 
	.byte	W05
	.byte		N02   , Gn4 , v020
	.byte	W01
	.byte		N01   , En5 
	.byte	W04
	.byte		N04   , Gs4 , v072
	.byte	W02
	.byte		N03   , Dn5 
	.byte	W03
	.byte		N02   , Gs4 , v020
	.byte	W03
	.byte		N01   , Dn5 
	.byte	W04
	.byte		N04   , An4 , v060
	.byte	W02
	.byte		N05   , Fs5 
	.byte	W03
	.byte		N02   , An4 , v020
	.byte	W03
	.byte		        Fs5 
	.byte	W04
	.byte		N04   , En4 , v052
	.byte	W05
	.byte		N02   , En4 , v020
	.byte	W08
	.byte		N04   , Gs3 , v080
	.byte	W03
	.byte		        Bn3 
	.byte	W02
	.byte		N01   , Gs3 , v020
	.byte	W01
	.byte		N04   , Gs4 , v060
	.byte	W02
	.byte		N01   , Bn3 , v020
	.byte	W01
	.byte		N04   , Bn4 , v060
	.byte	W02
	.byte		N01   , Gs4 , v020
	.byte	W01
	.byte		N04   , En5 , v060
	.byte	W02
	.byte		N01   , Bn4 , v020
	.byte	W04
	.byte		        En5 
	.byte	W02
	.byte	FINE

@******************************************************@

	.align	2

seq_214:
	.byte	1	@ NumTrks
	.byte	0	@ NumBlks
	.byte	seq_214_pri	@ Priority
	.byte	seq_214_rev	@ Reverb

	.word	seq_214_grp

	.word	seq_214_0

	.end
