@ File generated by m4a2s Song-Module
	.include "MPlayDef.s"

	.equ	seq_020_grp, bank_000
	.equ	seq_020_pri, 50
	.equ	seq_020_rev, 188
	.equ	seq_020_mvl, 127
	.equ	seq_020_key, 0

	.section .rodata
	.global	seq_020
	.align	2

@*********************** Track 01 ***********************@

seq_020_0:
	.byte	KEYSH , seq_020_key+0
	.byte	TEMPO , 100/2
	.byte		VOICE , 76
	.byte		VOL   , 66*seq_020_mvl/mxv
	.byte		PAN   , c_v+0
	.byte	W01
	.byte		MOD   , 60
	.byte		BENDR , 12
	.byte		LFOS  , 35
	.byte	W01
	.byte		MODT  , mod_tre
	.byte	W22
	.byte	W24
	.byte	W72
	.byte	W72
	.byte	W44
	.byte	W03
	.byte		VOL   , 66*seq_020_mvl/mxv
	.byte		BEND  , c_v-4
	.byte	W01
	.byte		N12   , Gs3 , v092
	.byte	W03
	.byte		BEND  , c_v-4
	.byte	W02
	.byte		        c_v-3
	.byte	W01
	.byte		        c_v-2
	.byte	W01
	.byte		        c_v+0
	.byte	W17
	.byte		N30   , Gs4 , v072
	.byte	W36
	.byte	W01
	.byte		N06   , Fs4 , v092
	.byte	W05
	.byte		N05   , Gs4 , v100
	.byte	W03
	.byte		        Fs4 , v060
	.byte	W15
	.byte		N04   , Cs4 , v092
	.byte	W11
	.byte		BEND  , c_v-4
	.byte	W01
	.byte		N96   , Ds4 
	.byte	W03
	.byte		BEND  , c_v-4
	.byte	W02
	.byte		        c_v-3
	.byte	W01
	.byte		        c_v-2
	.byte	W01
	.byte		        c_v+0
	.byte	W40
	.byte	W01
	.byte		VOL   , 63*seq_020_mvl/mxv
	.byte	W08
	.byte		        62*seq_020_mvl/mxv
	.byte	W06
	.byte		        59*seq_020_mvl/mxv
	.byte		BEND  , c_v+0
	.byte	W04
	.byte		VOL   , 58*seq_020_mvl/mxv
	.byte	W02
	.byte		BEND  , c_v-1
	.byte	W02
	.byte		VOL   , 55*seq_020_mvl/mxv
	.byte	W02
	.byte		BEND  , c_v-2
	.byte	W01
	.byte		VOL   , 53*seq_020_mvl/mxv
	.byte	W01
	.byte		BEND  , c_v-2
	.byte	W01
	.byte		VOL   , 51*seq_020_mvl/mxv
	.byte	W01
	.byte		BEND  , c_v-3
	.byte	W01
	.byte		VOL   , 48*seq_020_mvl/mxv
	.byte	W01
	.byte		        46*seq_020_mvl/mxv
	.byte		BEND  , c_v-4
	.byte	W02
	.byte		VOL   , 42*seq_020_mvl/mxv
	.byte		BEND  , c_v-4
	.byte	W02
	.byte		VOL   , 37*seq_020_mvl/mxv
	.byte	W02
	.byte		        32*seq_020_mvl/mxv
	.byte	W02
	.byte		        27*seq_020_mvl/mxv
	.byte	W02
	.byte		        20*seq_020_mvl/mxv
	.byte	W56
	.byte	W72
	.byte	W72
	.byte	W72
	.byte	W72
	.byte	W72
	.byte	W72
	.byte	W72
	.byte	W72
	.byte	W72
	.byte	W72
	.byte	W72
	.byte	W72
	.byte	W72
	.byte	W44
	.byte	W03
	.byte		VOL   , 60*seq_020_mvl/mxv
	.byte		BEND  , c_v+0
	.byte	W01
	.byte		N12   , Ds3 , v127
	.byte	W23
	.byte		VOL   , 60*seq_020_mvl/mxv
	.byte		BEND  , c_v-11
	.byte	W01
	.byte		N36   , Gs3 
	.byte	W01
	.byte		BEND  , c_v-8
	.byte	W02
	.byte		        c_v-4
	.byte	W02
	.byte		        c_v+0
	.byte	W42
	.byte	W01
	.byte		N04
	.byte	W06
	.byte		        Gs3 , v076
	.byte	W06
	.byte		        Fs3 , v112
	.byte	W06
	.byte		N03   , Gs3 , v127
	.byte	W03
	.byte		        Gs3 , v108
	.byte	W03
	.byte		N60   , Ds4 , v127
	.byte	W36
	.byte		VOL   , 56*seq_020_mvl/mxv
	.byte	W04
	.byte		        54*seq_020_mvl/mxv
	.byte	W04
	.byte		        50*seq_020_mvl/mxv
	.byte	W02
	.byte		        47*seq_020_mvl/mxv
	.byte	W02
	.byte		        42*seq_020_mvl/mxv
	.byte	W02
	.byte		        37*seq_020_mvl/mxv
	.byte	W02
	.byte		        32*seq_020_mvl/mxv
	.byte	W02
	.byte		        25*seq_020_mvl/mxv
	.byte	W02
	.byte		        19*seq_020_mvl/mxv
	.byte	W02
	.byte		        13*seq_020_mvl/mxv
	.byte	W13
	.byte		        60*seq_020_mvl/mxv
	.byte	W01
	.byte	PEND
	.byte		N24   , Fs4 , v100
	.byte	W36
	.byte		N04
	.byte	W06
	.byte		N06   , Gs4 
	.byte	W06
	.byte		N04   , Fs4 
	.byte	W06
	.byte		        Fs4 , v076
	.byte	W06
	.byte		        Cs4 , v127
	.byte	W06
	.byte		        Cs4 , v076
	.byte	W06
	.byte	PEND
	.byte		N60   , Ds4 , v127
	.byte	W36
	.byte		VOL   , 56*seq_020_mvl/mxv
	.byte	W04
	.byte		        54*seq_020_mvl/mxv
	.byte	W04
	.byte		        50*seq_020_mvl/mxv
	.byte	W02
	.byte		        47*seq_020_mvl/mxv
	.byte	W02
	.byte		        42*seq_020_mvl/mxv
	.byte	W02
	.byte		        37*seq_020_mvl/mxv
	.byte	W02
	.byte		        32*seq_020_mvl/mxv
	.byte	W02
	.byte		        25*seq_020_mvl/mxv
	.byte	W02
	.byte		        19*seq_020_mvl/mxv
	.byte	W02
	.byte		        13*seq_020_mvl/mxv
	.byte	W13
	.byte		        60*seq_020_mvl/mxv
	.byte		BEND  , c_v-11
	.byte	W01
	.byte	PEND
	.byte		N24   , Cs4 , v127
	.byte	W02
	.byte		BEND  , c_v-8
	.byte	W02
	.byte		        c_v-4
	.byte	W01
	.byte		        c_v+0
	.byte	W30
	.byte	W01
	.byte		N04
	.byte	W06
	.byte		N06   , Ds4 
	.byte	W06
	.byte		N04   , Cs4 
	.byte	W06
	.byte		        Cs4 , v076
	.byte	W06
	.byte		        Bn3 , v127
	.byte	W06
	.byte		        Bn3 , v076
	.byte	W06
	.byte	PEND
	.byte		N60   , Gs3 , v127
	.byte	W36
	.byte		VOL   , 56*seq_020_mvl/mxv
	.byte	W04
	.byte		        54*seq_020_mvl/mxv
	.byte	W04
	.byte		        50*seq_020_mvl/mxv
	.byte	W02
	.byte		        47*seq_020_mvl/mxv
	.byte	W02
	.byte		        42*seq_020_mvl/mxv
	.byte	W02
	.byte		        37*seq_020_mvl/mxv
	.byte	W02
	.byte		        32*seq_020_mvl/mxv
	.byte	W02
	.byte		        25*seq_020_mvl/mxv
	.byte	W02
	.byte		        19*seq_020_mvl/mxv
	.byte	W02
	.byte		        13*seq_020_mvl/mxv
	.byte	W13
	.byte		        60*seq_020_mvl/mxv
	.byte	W01
	.byte		N24   , Cs4 
	.byte	W36
	.byte		N04
	.byte	W06
	.byte		N06   , Ds4 
	.byte	W06
	.byte		N04   , Cs4 
	.byte	W06
	.byte		        Cs4 , v076
	.byte	W06
	.byte		        Bn3 , v127
	.byte	W06
	.byte		        Bn3 , v076
	.byte	W06
	.byte		N14   , Gs3 , v127
	.byte	W15
	.byte		N03
	.byte	W03
	.byte		        As3 , v100
	.byte	W03
	.byte		        Gs3 , v127
	.byte	W03
	.byte		N30   , Fs3 , v112
	.byte	W36
	.byte		N12   , Ds3 , v127
	.byte	W11
	.byte		VOL   , 60*seq_020_mvl/mxv
	.byte	W01
	.byte		N36   , Gs3 
	.byte	W48
	.byte		N04
	.byte	W06
	.byte		        Gs3 , v076
	.byte	W06
	.byte		        Fs3 , v112
	.byte	W06
	.byte		N03   , Gs3 , v127
	.byte	W03
	.byte		        Gs3 , v108
	.byte	W03
	.byte	PATT
	 .word	seq_020_0 + 0xBD
	.byte	PATT
	 .word	seq_020_0 + 0xD9
	.byte	PATT
	 .word	seq_020_0 + 0xEF
	.byte	PATT
	 .word	seq_020_0 + 0x10D
	.byte		N42   , Gs3 , v127
	.byte	W48
	.byte		N04
	.byte	W06
	.byte		        Gs3 , v076
	.byte	W06
	.byte		        Bn3 , v127
	.byte	W06
	.byte		        Bn3 , v076
	.byte	W06
	.byte		N24   , Cs4 , v127
	.byte	W36
	.byte		N04
	.byte	W06
	.byte		N06   , Ds4 
	.byte	W06
	.byte		N04   , Cs4 
	.byte	W06
	.byte		        Cs4 , v076
	.byte	W06
	.byte		        Bn3 , v120
	.byte	W06
	.byte		        Bn3 , v076
	.byte	W05
	.byte		BEND  , c_v-4
	.byte	W01
	.byte		N72   , Ds4 , v127
	.byte	W02
	.byte		BEND  , c_v-4
	.byte	W02
	.byte		        c_v-2
	.byte	W01
	.byte		        c_v+0
	.byte	W22
	.byte		VOL   , 58*seq_020_mvl/mxv
	.byte	W02
	.byte		        54*seq_020_mvl/mxv
	.byte	W01
	.byte		        54*seq_020_mvl/mxv
	.byte	W01
	.byte		        54*seq_020_mvl/mxv
	.byte	W02
	.byte		        52*seq_020_mvl/mxv
	.byte	W01
	.byte		        52*seq_020_mvl/mxv
	.byte	W01
	.byte		        52*seq_020_mvl/mxv
	.byte	W02
	.byte		        50*seq_020_mvl/mxv
	.byte	W01
	.byte		        50*seq_020_mvl/mxv
	.byte	W01
	.byte		        48*seq_020_mvl/mxv
	.byte	W02
	.byte		        44*seq_020_mvl/mxv
	.byte	W01
	.byte		        42*seq_020_mvl/mxv
	.byte	W01
	.byte		        40*seq_020_mvl/mxv
	.byte	W02
	.byte		        36*seq_020_mvl/mxv
	.byte		BEND  , c_v-1
	.byte	W01
	.byte		VOL   , 34*seq_020_mvl/mxv
	.byte	W01
	.byte		        32*seq_020_mvl/mxv
	.byte	W02
	.byte		        27*seq_020_mvl/mxv
	.byte		BEND  , c_v-1
	.byte	W01
	.byte		VOL   , 25*seq_020_mvl/mxv
	.byte	W01
	.byte		        23*seq_020_mvl/mxv
	.byte	W02
	.byte		        19*seq_020_mvl/mxv
	.byte		BEND  , c_v-2
	.byte	W02
	.byte		VOL   , 16*seq_020_mvl/mxv
	.byte	W02
	.byte		        13*seq_020_mvl/mxv
	.byte	W01
	.byte		BEND  , c_v-2
	.byte	W01
	.byte		VOL   , 10*seq_020_mvl/mxv
	.byte	W01
	.byte		BEND  , c_v-3
	.byte	W02
	.byte		        c_v-4
	.byte	W02
	.byte		        c_v-4
	.byte	W02
	.byte		        c_v-5
	.byte	W02
	.byte		        c_v-6
	.byte	W04
	.byte	W72
	.byte	W72
	.byte	W72
	.byte	W72
	.byte	W72
	.byte	W72
	.byte	W72
	.byte	W72
	.byte	GOTO
	 .word	seq_020_0 + 0x8C
	.byte	FINE

@*********************** Track 02 ***********************@

seq_020_1:
	.byte	KEYSH , seq_020_key+0
	.byte	W02
	.byte		VOICE , 24
	.byte		BENDR , 2
	.byte	W01
	.byte		MOD   , 50
	.byte		VOL   , 60*seq_020_mvl/mxv
	.byte		MODT  , mod_tre
	.byte	W01
	.byte		PAN   , c_v+30
	.byte		LFOS  , 35
	.byte	W19
	.byte		BEND  , c_v-64
	.byte	W01
	.byte		TIE   , Ds4 , v120
	.byte	W21
	.byte		BEND  , c_v-56
	.byte	W02
	.byte		        c_v-43
	.byte	W01
	.byte	W01
	.byte		        c_v-26
	.byte	W02
	.byte		        c_v-12
	.byte	W02
	.byte		        c_v+0
	.byte	W66
	.byte	W01
	.byte	W72
	.byte	W72
	.byte		EOT
	.byte	W72
	.byte	W72
	.byte	W72
	.byte	W72
	.byte	W72
	.byte	W72
	.byte	W72
	.byte	W72
	.byte	W72
	.byte	W72
	.byte	W72
	.byte	W72
	.byte	W72
	.byte	W72
	.byte	W72
	.byte	W72
	.byte	W72
	.byte	W24
	.byte		VOICE , 17
	.byte		VOL   , 66*seq_020_mvl/mxv
	.byte		PAN   , c_v+0
	.byte	W01
	.byte		MOD   , 80
	.byte		BENDR , 12
	.byte		LFOS  , 35
	.byte	W01
	.byte		MODT  , mod_pan
	.byte	W44
	.byte	W02
	.byte		N36   , Ds3 , v108
	.byte	W48
	.byte		N03   , Ds3 , v120
	.byte	W12
	.byte		N04   , Cs3 , v092
	.byte	W06
	.byte		        Ds3 , v112
	.byte	W06
	.byte		N60   , Fs3 , v092
	.byte	W72
	.byte	W18
	.byte		N04   , Gs3 , v112
	.byte	W06
	.byte		N03   , Fs3 , v120
	.byte	W12
	.byte		N06   , Ds3 
	.byte	W12
	.byte		N03   , Cs3 
	.byte	W12
	.byte		N06   , Bn2 
	.byte	W12
	.byte		N60   , Cs3 , v092
	.byte	W72
	.byte	W72
	.byte	W72
	.byte	W72
	.byte	W72
	.byte		N24   , Gs3 , v108
	.byte	W24
	.byte		N12
	.byte	W12
	.byte		N04   , As3 , v092
	.byte	W06
	.byte		        Gs3 , v112
	.byte	W06
	.byte		N03   , Fs3 , v120
	.byte	W12
	.byte		        Gs3 
	.byte	W12
	.byte		N60   , Ds3 , v092
	.byte	W72
	.byte	W18
	.byte		N04   , Fs3 , v112
	.byte	W06
	.byte		N03   , Gs3 , v120
	.byte	W12
	.byte		        Fs3 
	.byte	W12
	.byte		N24   , Ds3 , v092
	.byte	W24
	.byte	W72
	.byte	W72
	.byte	W72
	.byte	W72
	.byte	W72
	.byte	W72
	.byte	W72
	.byte	W72
	.byte	W72
	.byte	W72
	.byte	W72
	.byte	W72
	.byte	GOTO
	 .word	seq_020_1 + 0x34
	.byte	FINE

@*********************** Track 03 ***********************@

seq_020_2:
	.byte	KEYSH , seq_020_key+0
	.byte	W04
	.byte		VOICE , 24
	.byte	W01
	.byte		MOD   , 50
	.byte		VOL   , 66*seq_020_mvl/mxv
	.byte		BENDR , 2
	.byte	W01
	.byte		PAN   , c_v-30
	.byte		LFOS  , 30
	.byte		MODT  , mod_tre
	.byte	W17
	.byte		BEND  , c_v-64
	.byte	W01
	.byte		TIE   , Gs3 , v112
	.byte	W21
	.byte		BEND  , c_v-56
	.byte	W02
	.byte		        c_v-43
	.byte	W01
	.byte	W01
	.byte		        c_v-26
	.byte	W02
	.byte		        c_v-12
	.byte	W02
	.byte		        c_v+0
	.byte	W66
	.byte	W01
	.byte	W72
	.byte	W72
	.byte		EOT
	.byte	W72
	.byte	W72
	.byte	W72
	.byte	W72
	.byte	W72
	.byte	W72
	.byte	W72
	.byte	W72
	.byte	W72
	.byte	W72
	.byte	W72
	.byte	W72
	.byte	W72
	.byte	W72
	.byte	W72
	.byte	W72
	.byte	W72
	.byte	W24
	.byte		VOICE , 17
	.byte		VOL   , 66*seq_020_mvl/mxv
	.byte		PAN   , c_v+0
	.byte	W01
	.byte		MOD   , 60
	.byte		BENDR , 12
	.byte		LFOS  , 35
	.byte	W01
	.byte		MODT  , mod_pan
	.byte	W44
	.byte	W02
	.byte		N36   , Gs2 , v108
	.byte	W48
	.byte		N03   , Gs2 , v120
	.byte	W12
	.byte		N04   , Fs2 , v092
	.byte	W06
	.byte		        Gs2 , v112
	.byte	W06
	.byte		N60   , Bn2 , v092
	.byte	W72
	.byte	W18
	.byte		N04   , Ds3 , v112
	.byte	W06
	.byte		N03   , Cs3 , v120
	.byte	W12
	.byte		N06   , Bn2 
	.byte	W12
	.byte		N03   , Gs2 
	.byte	W12
	.byte		N06   , Fs2 
	.byte	W12
	.byte		N60   , En2 , v092
	.byte	W72
	.byte	W72
	.byte	W72
	.byte	W72
	.byte	W72
	.byte		N24   , Ds3 , v108
	.byte	W24
	.byte		N12
	.byte	W12
	.byte		N04   , Cs3 , v092
	.byte	W06
	.byte		        Ds3 , v112
	.byte	W06
	.byte		N03   , Cs3 , v120
	.byte	W12
	.byte		        Ds3 
	.byte	W12
	.byte		N48   , Bn2 , v092
	.byte	W72
	.byte	W18
	.byte		N04   , Cs3 , v112
	.byte	W06
	.byte		N03   , Ds3 , v120
	.byte	W12
	.byte		        Cs3 
	.byte	W12
	.byte		N24   , Bn2 , v092
	.byte	W24
	.byte	W72
	.byte	W72
	.byte	W72
	.byte	W72
	.byte	W72
	.byte	W72
	.byte	W72
	.byte	W72
	.byte	W72
	.byte	W72
	.byte	W72
	.byte	W72
	.byte	GOTO
	 .word	seq_020_2 + 0x34
	.byte	FINE

@*********************** Track 04 ***********************@

seq_020_3:
	.byte	KEYSH , seq_020_key+0
	.byte	W07
	.byte		VOICE , 37
	.byte		VOL   , 85*seq_020_mvl/mxv
	.byte		PAN   , c_v+0
	.byte	W01
	.byte		MOD   , 2
	.byte		BENDR , 12
	.byte		MODT  , mod_vib
	.byte	W16
	.byte	W24
	.byte		TIE   , Gs2 , v060
	.byte	W72
	.byte	W72
	.byte	W72
	.byte		EOT
	.byte	W68
	.byte	W03
	.byte		VOL   , 85*seq_020_mvl/mxv
	.byte		BEND  , c_v-27
	.byte	W01
	.byte		N48   , Gs2 , v127
	.byte	W02
	.byte		BEND  , c_v-22
	.byte	W01
	.byte		        c_v-16
	.byte	W01
	.byte		        c_v-11
	.byte	W01
	.byte		        c_v-6
	.byte	W01
	.byte		        c_v+0
	.byte	W24
	.byte	W01
	.byte		VOL   , 80*seq_020_mvl/mxv
	.byte	W03
	.byte		        75*seq_020_mvl/mxv
	.byte	W03
	.byte		        70*seq_020_mvl/mxv
	.byte	W02
	.byte		        64*seq_020_mvl/mxv
	.byte	W02
	.byte		        59*seq_020_mvl/mxv
	.byte	W01
	.byte		        54*seq_020_mvl/mxv
	.byte	W01
	.byte		        49*seq_020_mvl/mxv
	.byte	W01
	.byte		        46*seq_020_mvl/mxv
	.byte	W03
	.byte		        85*seq_020_mvl/mxv
	.byte	W01
	.byte		N06   , Cs2 
	.byte	W12
	.byte		N12   , Ds2 
	.byte	W11
	.byte		BEND  , c_v-27
	.byte	W01
	.byte	PEND
	.byte		N42   , Gs2 , v127
	.byte	W02
	.byte		BEND  , c_v-22
	.byte	W01
	.byte		        c_v-16
	.byte	W01
	.byte		        c_v-11
	.byte	W01
	.byte		        c_v-6
	.byte	W01
	.byte		        c_v+0
	.byte	W36
	.byte		N06   , Cs2 
	.byte	W06
	.byte		        Ds2 
	.byte	W12
	.byte		N12   , Gs2 
	.byte	W11
	.byte		BEND  , c_v-27
	.byte	W01
	.byte	PEND
	.byte		N48   , Bn2 , v127
	.byte	W02
	.byte		BEND  , c_v-22
	.byte	W01
	.byte		        c_v-16
	.byte	W01
	.byte		        c_v-11
	.byte	W01
	.byte		        c_v-6
	.byte	W01
	.byte		        c_v+0
	.byte	W24
	.byte	W01
	.byte		VOL   , 80*seq_020_mvl/mxv
	.byte	W03
	.byte		        75*seq_020_mvl/mxv
	.byte	W03
	.byte		        70*seq_020_mvl/mxv
	.byte	W02
	.byte		        64*seq_020_mvl/mxv
	.byte	W02
	.byte		        59*seq_020_mvl/mxv
	.byte	W01
	.byte		        54*seq_020_mvl/mxv
	.byte	W01
	.byte		        49*seq_020_mvl/mxv
	.byte	W01
	.byte		        46*seq_020_mvl/mxv
	.byte	W03
	.byte		        85*seq_020_mvl/mxv
	.byte	W01
	.byte		N06
	.byte	W12
	.byte		N12   , Gs2 
	.byte	W11
	.byte		BEND  , c_v-27
	.byte	W01
	.byte	PEND
	.byte		N36   , Bn2 , v127
	.byte	W02
	.byte		BEND  , c_v-22
	.byte	W01
	.byte		        c_v-16
	.byte	W01
	.byte		        c_v-11
	.byte	W01
	.byte		        c_v-6
	.byte	W01
	.byte		        c_v+0
	.byte	W30
	.byte		N06   , Bn1 
	.byte	W12
	.byte		        Bn2 
	.byte	W12
	.byte		        Gs2 
	.byte	W06
	.byte		        Bn2 
	.byte	W05
	.byte		BEND  , c_v-27
	.byte	W01
	.byte	PEND
	.byte		N48   , Cs3 , v127
	.byte	W02
	.byte		BEND  , c_v-22
	.byte	W01
	.byte		        c_v-16
	.byte	W01
	.byte		        c_v-11
	.byte	W01
	.byte		        c_v-6
	.byte	W01
	.byte		        c_v+0
	.byte	W24
	.byte	W01
	.byte		VOL   , 80*seq_020_mvl/mxv
	.byte	W03
	.byte		        75*seq_020_mvl/mxv
	.byte	W03
	.byte		        70*seq_020_mvl/mxv
	.byte	W02
	.byte		        64*seq_020_mvl/mxv
	.byte	W02
	.byte		        59*seq_020_mvl/mxv
	.byte	W01
	.byte		        54*seq_020_mvl/mxv
	.byte	W01
	.byte		        49*seq_020_mvl/mxv
	.byte	W01
	.byte		        46*seq_020_mvl/mxv
	.byte	W03
	.byte		        85*seq_020_mvl/mxv
	.byte	W01
	.byte		N06
	.byte	W12
	.byte		N12   , Gs2 
	.byte	W11
	.byte		BEND  , c_v-27
	.byte	W01
	.byte	PEND
	.byte		N36   , Cs3 , v127
	.byte	W02
	.byte		BEND  , c_v-22
	.byte	W01
	.byte		        c_v-16
	.byte	W01
	.byte		        c_v-11
	.byte	W01
	.byte		        c_v-6
	.byte	W01
	.byte		        c_v+0
	.byte	W30
	.byte		N06   , Gs2 
	.byte	W12
	.byte		        Cs3 
	.byte	W12
	.byte		        Cs2 
	.byte	W06
	.byte		        Ds2 
	.byte	W05
	.byte		VOL   , 85*seq_020_mvl/mxv
	.byte		BEND  , c_v-27
	.byte	W01
	.byte	PEND
	.byte		N48   , En2 , v127
	.byte	W02
	.byte		BEND  , c_v-22
	.byte	W01
	.byte		        c_v-16
	.byte	W01
	.byte		        c_v-11
	.byte	W01
	.byte		        c_v-6
	.byte	W01
	.byte		        c_v+0
	.byte	W42
	.byte		N06
	.byte	W12
	.byte		        Ds2 
	.byte	W06
	.byte		        En2 
	.byte	W05
	.byte		VOL   , 85*seq_020_mvl/mxv
	.byte		BEND  , c_v-27
	.byte	W01
	.byte	PEND
	.byte		N36   , Fs2 , v127
	.byte	W02
	.byte		BEND  , c_v-22
	.byte	W01
	.byte		        c_v-16
	.byte	W01
	.byte		        c_v-11
	.byte	W01
	.byte		        c_v-6
	.byte	W01
	.byte		        c_v+0
	.byte	W30
	.byte		N06   , Cs2 
	.byte	W06
	.byte		        En2 
	.byte	W06
	.byte		        Fs2 
	.byte	W12
	.byte		N12   , Ds2 
	.byte	W11
	.byte		VOL   , 85*seq_020_mvl/mxv
	.byte		BEND  , c_v-27
	.byte	W01
	.byte	PEND
	.byte	PATT
	 .word	seq_020_3 + 0x20
	.byte	PATT
	 .word	seq_020_3 + 0x4D
	.byte	PATT
	 .word	seq_020_3 + 0x68
	.byte	PATT
	 .word	seq_020_3 + 0x94
	.byte	PATT
	 .word	seq_020_3 + 0xB0
	.byte	PATT
	 .word	seq_020_3 + 0xDC
	.byte	PATT
	 .word	seq_020_3 + 0xFA
	.byte	PATT
	 .word	seq_020_3 + 0x115
	.byte		N18   , Gs2 , v127
	.byte	W03
	.byte		BEND  , c_v-22
	.byte	W01
	.byte		        c_v-16
	.byte	W01
	.byte		        c_v-11
	.byte	W01
	.byte		VOL   , 79*seq_020_mvl/mxv
	.byte		BEND  , c_v-6
	.byte	W01
	.byte		        c_v+0
	.byte	W01
	.byte		VOL   , 76*seq_020_mvl/mxv
	.byte	W01
	.byte		        74*seq_020_mvl/mxv
	.byte	W01
	.byte		        73*seq_020_mvl/mxv
	.byte	W01
	.byte		        62*seq_020_mvl/mxv
	.byte	W01
	.byte		        45*seq_020_mvl/mxv
	.byte	W01
	.byte		        31*seq_020_mvl/mxv
	.byte	W01
	.byte		        16*seq_020_mvl/mxv
	.byte	W01
	.byte		        2*seq_020_mvl/mxv
	.byte	W02
	.byte		        85*seq_020_mvl/mxv
	.byte		BEND  , c_v-11
	.byte	W01
	.byte		N18
	.byte	W02
	.byte		BEND  , c_v-6
	.byte	W01
	.byte		        c_v+0
	.byte	W15
	.byte		N06   , Ds2 
	.byte	W06
	.byte		N01
	.byte	W05
	.byte		BEND  , c_v-11
	.byte	W01
	.byte		N06   , Gs2 
	.byte	W01
	.byte		BEND  , c_v-6
	.byte	W01
	.byte		        c_v+0
	.byte	W04
	.byte		N01
	.byte	W05
	.byte		BEND  , c_v-11
	.byte	W01
	.byte		N12   , Ds2 
	.byte	W01
	.byte		BEND  , c_v-6
	.byte	W01
	.byte		        c_v+0
	.byte	W09
	.byte		VOL   , 85*seq_020_mvl/mxv
	.byte		BEND  , c_v-27
	.byte	W01
	.byte	PEND
	.byte		N10   , Gs2 , v127
	.byte	W03
	.byte		BEND  , c_v-22
	.byte	W01
	.byte		        c_v-16
	.byte	W01
	.byte		        c_v-11
	.byte	W01
	.byte		        c_v-6
	.byte	W01
	.byte		        c_v+0
	.byte	W05
	.byte		N04
	.byte	W06
	.byte		N04
	.byte	W06
	.byte		N04
	.byte	W12
	.byte		N12   , Cs2 
	.byte	W11
	.byte		BEND  , c_v-11
	.byte	W01
	.byte		N24   , Ds2 
	.byte	W01
	.byte		BEND  , c_v-6
	.byte	W01
	.byte		        c_v+0
	.byte	W21
	.byte		VOL   , 85*seq_020_mvl/mxv
	.byte		BEND  , c_v-27
	.byte	W01
	.byte	PEND
	.byte		N18   , Bn2 
	.byte	W03
	.byte		BEND  , c_v-22
	.byte	W01
	.byte		        c_v-16
	.byte	W01
	.byte		        c_v-11
	.byte	W01
	.byte		VOL   , 79*seq_020_mvl/mxv
	.byte		BEND  , c_v-6
	.byte	W01
	.byte		        c_v+0
	.byte	W01
	.byte		VOL   , 76*seq_020_mvl/mxv
	.byte	W01
	.byte		        74*seq_020_mvl/mxv
	.byte	W01
	.byte		        73*seq_020_mvl/mxv
	.byte	W01
	.byte		        62*seq_020_mvl/mxv
	.byte	W01
	.byte		        45*seq_020_mvl/mxv
	.byte	W01
	.byte		        31*seq_020_mvl/mxv
	.byte	W01
	.byte		        16*seq_020_mvl/mxv
	.byte	W01
	.byte		        2*seq_020_mvl/mxv
	.byte	W02
	.byte		        85*seq_020_mvl/mxv
	.byte		BEND  , c_v-11
	.byte	W01
	.byte		N12
	.byte	W02
	.byte		BEND  , c_v-6
	.byte	W01
	.byte		        c_v+0
	.byte	W09
	.byte		N01
	.byte	W06
	.byte		N12   , Fs2 
	.byte	W11
	.byte		BEND  , c_v-11
	.byte	W01
	.byte		N06   , Bn2 
	.byte	W01
	.byte		BEND  , c_v-6
	.byte	W01
	.byte		        c_v+0
	.byte	W04
	.byte		N01
	.byte	W06
	.byte		N12   , Fs2 
	.byte	W11
	.byte		VOL   , 85*seq_020_mvl/mxv
	.byte		BEND  , c_v-27
	.byte	W01
	.byte		N18   , Bn2 , v127
	.byte	W03
	.byte		BEND  , c_v-22
	.byte	W01
	.byte		        c_v-16
	.byte	W01
	.byte		        c_v-11
	.byte	W01
	.byte		VOL   , 79*seq_020_mvl/mxv
	.byte		BEND  , c_v-6
	.byte	W01
	.byte		        c_v+0
	.byte	W01
	.byte		VOL   , 76*seq_020_mvl/mxv
	.byte	W01
	.byte		        74*seq_020_mvl/mxv
	.byte	W01
	.byte		        73*seq_020_mvl/mxv
	.byte	W01
	.byte		        62*seq_020_mvl/mxv
	.byte	W01
	.byte		        45*seq_020_mvl/mxv
	.byte	W01
	.byte		        31*seq_020_mvl/mxv
	.byte	W01
	.byte		        16*seq_020_mvl/mxv
	.byte	W01
	.byte		        2*seq_020_mvl/mxv
	.byte	W02
	.byte		        85*seq_020_mvl/mxv
	.byte		BEND  , c_v-11
	.byte	W01
	.byte		N12
	.byte	W02
	.byte		BEND  , c_v-6
	.byte	W01
	.byte		        c_v+0
	.byte	W09
	.byte		N01
	.byte	W06
	.byte		N06   , Fs2 
	.byte	W06
	.byte		        Gs2 
	.byte	W05
	.byte		BEND  , c_v-11
	.byte	W01
	.byte		N06   , Ds3 
	.byte	W01
	.byte		BEND  , c_v-6
	.byte	W01
	.byte		        c_v+0
	.byte	W04
	.byte		N01
	.byte	W06
	.byte		N12   , Bn2 
	.byte	W11
	.byte		VOL   , 85*seq_020_mvl/mxv
	.byte		BEND  , c_v-27
	.byte	W01
	.byte	PEND
	.byte		N18   , Cs3 , v127
	.byte	W03
	.byte		BEND  , c_v-22
	.byte	W01
	.byte		        c_v-16
	.byte	W01
	.byte		        c_v-11
	.byte	W01
	.byte		VOL   , 79*seq_020_mvl/mxv
	.byte		BEND  , c_v-6
	.byte	W01
	.byte		        c_v+0
	.byte	W01
	.byte		VOL   , 76*seq_020_mvl/mxv
	.byte	W01
	.byte		        74*seq_020_mvl/mxv
	.byte	W01
	.byte		        73*seq_020_mvl/mxv
	.byte	W01
	.byte		        62*seq_020_mvl/mxv
	.byte	W01
	.byte		        45*seq_020_mvl/mxv
	.byte	W01
	.byte		        31*seq_020_mvl/mxv
	.byte	W01
	.byte		        16*seq_020_mvl/mxv
	.byte	W01
	.byte		        2*seq_020_mvl/mxv
	.byte	W02
	.byte		        85*seq_020_mvl/mxv
	.byte		BEND  , c_v-11
	.byte	W01
	.byte		N18
	.byte	W02
	.byte		BEND  , c_v-6
	.byte	W01
	.byte		        c_v+0
	.byte	W15
	.byte		N06   , Cs2 
	.byte	W06
	.byte		        En2 
	.byte	W05
	.byte		BEND  , c_v-11
	.byte	W01
	.byte		N06   , Fs2 
	.byte	W01
	.byte		BEND  , c_v-6
	.byte	W01
	.byte		        c_v+0
	.byte	W04
	.byte		N01
	.byte	W06
	.byte		N12   , Bn2 
	.byte	W11
	.byte		VOL   , 85*seq_020_mvl/mxv
	.byte		BEND  , c_v-27
	.byte	W01
	.byte	PEND
	.byte		N12   , Cs3 
	.byte	W03
	.byte		BEND  , c_v-22
	.byte	W01
	.byte		        c_v-16
	.byte	W01
	.byte		        c_v-11
	.byte	W01
	.byte		VOL   , 79*seq_020_mvl/mxv
	.byte		BEND  , c_v-6
	.byte	W01
	.byte		        c_v+0
	.byte	W01
	.byte		VOL   , 76*seq_020_mvl/mxv
	.byte	W01
	.byte		        74*seq_020_mvl/mxv
	.byte	W01
	.byte		        73*seq_020_mvl/mxv
	.byte	W01
	.byte		        62*seq_020_mvl/mxv
	.byte	W01
	.byte		        45*seq_020_mvl/mxv
	.byte		N06
	.byte	W01
	.byte		VOL   , 31*seq_020_mvl/mxv
	.byte	W01
	.byte		        16*seq_020_mvl/mxv
	.byte	W01
	.byte		        2*seq_020_mvl/mxv
	.byte	W02
	.byte		        85*seq_020_mvl/mxv
	.byte		BEND  , c_v-11
	.byte	W01
	.byte		N06   , Ds3 
	.byte	W02
	.byte		BEND  , c_v-6
	.byte	W01
	.byte		        c_v+0
	.byte	W03
	.byte		N06   , Cs3 
	.byte	W06
	.byte		N01
	.byte	W06
	.byte		N12   , Bn2 
	.byte	W11
	.byte		BEND  , c_v-11
	.byte	W01
	.byte		N06   , Gs2 
	.byte	W01
	.byte		BEND  , c_v-6
	.byte	W01
	.byte		        c_v+0
	.byte	W04
	.byte		N01
	.byte	W06
	.byte		N12   , Fs2 
	.byte	W11
	.byte		VOL   , 85*seq_020_mvl/mxv
	.byte		BEND  , c_v-27
	.byte	W01
	.byte		N18   , En2 
	.byte	W03
	.byte		BEND  , c_v-22
	.byte	W01
	.byte		        c_v-16
	.byte	W01
	.byte		        c_v-11
	.byte	W01
	.byte		VOL   , 79*seq_020_mvl/mxv
	.byte		BEND  , c_v-6
	.byte	W01
	.byte		        c_v+0
	.byte	W01
	.byte		VOL   , 76*seq_020_mvl/mxv
	.byte	W01
	.byte		        74*seq_020_mvl/mxv
	.byte	W01
	.byte		        73*seq_020_mvl/mxv
	.byte	W01
	.byte		        62*seq_020_mvl/mxv
	.byte	W01
	.byte		        45*seq_020_mvl/mxv
	.byte	W01
	.byte		        31*seq_020_mvl/mxv
	.byte	W01
	.byte		        16*seq_020_mvl/mxv
	.byte	W01
	.byte		        2*seq_020_mvl/mxv
	.byte	W02
	.byte		        85*seq_020_mvl/mxv
	.byte		BEND  , c_v-11
	.byte	W01
	.byte		N18
	.byte	W02
	.byte		BEND  , c_v-6
	.byte	W01
	.byte		        c_v+0
	.byte	W15
	.byte		N06   , Bn1 
	.byte	W06
	.byte		N01
	.byte	W05
	.byte		BEND  , c_v-11
	.byte	W01
	.byte		N06   , En2 
	.byte	W01
	.byte		BEND  , c_v-6
	.byte	W01
	.byte		        c_v+0
	.byte	W04
	.byte		N01
	.byte	W06
	.byte		N12   , Gs2 
	.byte	W11
	.byte		VOL   , 85*seq_020_mvl/mxv
	.byte		BEND  , c_v-27
	.byte	W01
	.byte		N10   , Fs2 
	.byte	W03
	.byte		BEND  , c_v-22
	.byte	W01
	.byte		        c_v-16
	.byte	W01
	.byte		        c_v-11
	.byte	W01
	.byte		VOL   , 79*seq_020_mvl/mxv
	.byte		BEND  , c_v-6
	.byte	W01
	.byte		        c_v+0
	.byte	W01
	.byte		VOL   , 76*seq_020_mvl/mxv
	.byte	W01
	.byte		        74*seq_020_mvl/mxv
	.byte	W01
	.byte		        73*seq_020_mvl/mxv
	.byte	W01
	.byte		        62*seq_020_mvl/mxv
	.byte	W01
	.byte		        45*seq_020_mvl/mxv
	.byte		N05
	.byte	W01
	.byte		VOL   , 31*seq_020_mvl/mxv
	.byte	W01
	.byte		        16*seq_020_mvl/mxv
	.byte	W01
	.byte		        2*seq_020_mvl/mxv
	.byte	W02
	.byte		        85*seq_020_mvl/mxv
	.byte		BEND  , c_v-11
	.byte	W01
	.byte		N05
	.byte	W02
	.byte		BEND  , c_v-6
	.byte	W01
	.byte		        c_v+0
	.byte	W03
	.byte		N04
	.byte	W12
	.byte		N12   , Cs2 
	.byte	W11
	.byte		BEND  , c_v-11
	.byte	W01
	.byte		N12   , Ds2 
	.byte	W01
	.byte		BEND  , c_v-6
	.byte	W01
	.byte		        c_v+0
	.byte	W10
	.byte		N12   , Fs2 
	.byte	W11
	.byte		VOL   , 85*seq_020_mvl/mxv
	.byte		BEND  , c_v-27
	.byte	W01
	.byte	PATT
	 .word	seq_020_3 + 0x15C
	.byte	PATT
	 .word	seq_020_3 + 0x1AD
	.byte		N18   , Bn2 , v127
	.byte	W03
	.byte		BEND  , c_v-22
	.byte	W01
	.byte		        c_v-16
	.byte	W01
	.byte		        c_v-11
	.byte	W01
	.byte		VOL   , 79*seq_020_mvl/mxv
	.byte		BEND  , c_v-6
	.byte	W01
	.byte		        c_v+0
	.byte	W01
	.byte		VOL   , 76*seq_020_mvl/mxv
	.byte	W01
	.byte		        74*seq_020_mvl/mxv
	.byte	W01
	.byte		        73*seq_020_mvl/mxv
	.byte	W01
	.byte		        62*seq_020_mvl/mxv
	.byte	W01
	.byte		        45*seq_020_mvl/mxv
	.byte	W01
	.byte		        31*seq_020_mvl/mxv
	.byte	W01
	.byte		        16*seq_020_mvl/mxv
	.byte	W01
	.byte		        2*seq_020_mvl/mxv
	.byte	W02
	.byte		        85*seq_020_mvl/mxv
	.byte		BEND  , c_v-11
	.byte	W01
	.byte		N12
	.byte	W02
	.byte		BEND  , c_v-6
	.byte	W01
	.byte		        c_v+0
	.byte	W09
	.byte		N01
	.byte	W06
	.byte		N06   , En2 
	.byte	W06
	.byte		        Fs2 
	.byte	W05
	.byte		BEND  , c_v-11
	.byte	W01
	.byte		N06   , Bn2 
	.byte	W01
	.byte		BEND  , c_v-6
	.byte	W01
	.byte		        c_v+0
	.byte	W04
	.byte		N01
	.byte	W06
	.byte		N12   , Fs2 
	.byte	W11
	.byte		VOL   , 85*seq_020_mvl/mxv
	.byte		BEND  , c_v-27
	.byte	W01
	.byte	PATT
	 .word	seq_020_3 + 0x21D
	.byte	PATT
	 .word	seq_020_3 + 0x268
	.byte		N12   , Cs3 , v127
	.byte	W03
	.byte		BEND  , c_v-22
	.byte	W01
	.byte		        c_v-16
	.byte	W01
	.byte		        c_v-11
	.byte	W01
	.byte		VOL   , 79*seq_020_mvl/mxv
	.byte		BEND  , c_v-6
	.byte	W01
	.byte		        c_v+0
	.byte	W01
	.byte		VOL   , 76*seq_020_mvl/mxv
	.byte	W01
	.byte		        74*seq_020_mvl/mxv
	.byte	W01
	.byte		        73*seq_020_mvl/mxv
	.byte	W01
	.byte		        62*seq_020_mvl/mxv
	.byte	W01
	.byte		        45*seq_020_mvl/mxv
	.byte		N06
	.byte	W01
	.byte		VOL   , 31*seq_020_mvl/mxv
	.byte	W01
	.byte		        16*seq_020_mvl/mxv
	.byte	W01
	.byte		        2*seq_020_mvl/mxv
	.byte	W02
	.byte		        85*seq_020_mvl/mxv
	.byte		BEND  , c_v-11
	.byte	W01
	.byte		N06   , Ds3 
	.byte	W02
	.byte		BEND  , c_v-6
	.byte	W01
	.byte		        c_v+0
	.byte	W03
	.byte		N06   , Cs3 
	.byte	W06
	.byte		N01
	.byte	W06
	.byte		N12   , Bn2 
	.byte	W11
	.byte		BEND  , c_v-11
	.byte	W01
	.byte		N06   , Gs2 
	.byte	W01
	.byte		BEND  , c_v-6
	.byte	W01
	.byte		        c_v+0
	.byte	W04
	.byte		N01
	.byte	W06
	.byte		N12   , Bn2 
	.byte	W11
	.byte		VOL   , 85*seq_020_mvl/mxv
	.byte	W01
	.byte		N18   , As2 
	.byte	W06
	.byte		VOL   , 79*seq_020_mvl/mxv
	.byte	W02
	.byte		        76*seq_020_mvl/mxv
	.byte	W01
	.byte		        74*seq_020_mvl/mxv
	.byte	W01
	.byte		        73*seq_020_mvl/mxv
	.byte	W01
	.byte		        62*seq_020_mvl/mxv
	.byte	W01
	.byte		        45*seq_020_mvl/mxv
	.byte	W01
	.byte		        31*seq_020_mvl/mxv
	.byte	W01
	.byte		        16*seq_020_mvl/mxv
	.byte	W01
	.byte		        2*seq_020_mvl/mxv
	.byte	W02
	.byte		        85*seq_020_mvl/mxv
	.byte	W01
	.byte		N06
	.byte	W06
	.byte		N06
	.byte	W06
	.byte		N01
	.byte	W06
	.byte		N06   , Cs3 
	.byte	W06
	.byte		N01
	.byte	W05
	.byte		BEND  , c_v-11
	.byte	W01
	.byte		N06   , En3 
	.byte	W01
	.byte		BEND  , c_v-6
	.byte	W01
	.byte		        c_v+0
	.byte	W04
	.byte		N01
	.byte	W06
	.byte		N12   , Cs3 
	.byte	W11
	.byte		VOL   , 85*seq_020_mvl/mxv
	.byte		BEND  , c_v-27
	.byte	W01
	.byte		N18   , Ds3 
	.byte	W03
	.byte		BEND  , c_v-22
	.byte	W01
	.byte		        c_v-16
	.byte	W01
	.byte		        c_v-11
	.byte	W01
	.byte		VOL   , 79*seq_020_mvl/mxv
	.byte		BEND  , c_v-6
	.byte	W01
	.byte		        c_v+0
	.byte	W01
	.byte		VOL   , 76*seq_020_mvl/mxv
	.byte	W01
	.byte		        74*seq_020_mvl/mxv
	.byte	W01
	.byte		        73*seq_020_mvl/mxv
	.byte	W01
	.byte		        62*seq_020_mvl/mxv
	.byte	W01
	.byte		        45*seq_020_mvl/mxv
	.byte	W01
	.byte		        31*seq_020_mvl/mxv
	.byte	W01
	.byte		        16*seq_020_mvl/mxv
	.byte	W01
	.byte		        2*seq_020_mvl/mxv
	.byte	W02
	.byte		        85*seq_020_mvl/mxv
	.byte		BEND  , c_v-11
	.byte	W01
	.byte		N06   , Gn3 
	.byte	W02
	.byte		BEND  , c_v-6
	.byte	W01
	.byte		        c_v+0
	.byte	W03
	.byte		N06   , Ds3 
	.byte	W12
	.byte		        Cs3 
	.byte	W06
	.byte		N01
	.byte	W05
	.byte		BEND  , c_v-11
	.byte	W01
	.byte		N24   , Ds3 
	.byte	W01
	.byte		BEND  , c_v-6
	.byte	W01
	.byte		        c_v+0
	.byte	W21
	.byte		VOL   , 85*seq_020_mvl/mxv
	.byte		BEND  , c_v-27
	.byte	W01
	.byte	PATT
	 .word	seq_020_3 + 0x20
	.byte	PATT
	 .word	seq_020_3 + 0x4D
	.byte	PATT
	 .word	seq_020_3 + 0x68
	.byte	PATT
	 .word	seq_020_3 + 0x94
	.byte	PATT
	 .word	seq_020_3 + 0xB0
	.byte	PATT
	 .word	seq_020_3 + 0xDC
	.byte	PATT
	 .word	seq_020_3 + 0xFA
	.byte		N36   , Fs2 , v127
	.byte	W02
	.byte		BEND  , c_v-22
	.byte	W01
	.byte		        c_v-16
	.byte	W01
	.byte		        c_v-11
	.byte	W01
	.byte		        c_v-6
	.byte	W01
	.byte		        c_v+0
	.byte	W30
	.byte		N06   , Cs2 
	.byte	W06
	.byte		        En2 
	.byte	W06
	.byte		        Fs2 
	.byte	W12
	.byte		N12   , Ds2 
	.byte	W12
	.byte	GOTO
	 .word	seq_020_3 + 0x134
	.byte	FINE

@*********************** Track 05 ***********************@

seq_020_4:
	.byte	KEYSH , seq_020_key+0
	.byte	W09
	.byte		VOICE , 95
	.byte		VOL   , 85*seq_020_mvl/mxv
	.byte		PAN   , c_v+20
	.byte	W01
	.byte		MOD   , 35
	.byte		LFOS  , 60
	.byte		MODT  , mod_tre
	.byte	W14
	.byte	W24
	.byte	W72
	.byte	W72
	.byte	W72
	.byte	W44
	.byte	W03
	.byte		BEND  , c_v-64
	.byte	W01
	.byte		N96   , Gs1 , v120
	.byte	W21
	.byte		BEND  , c_v-56
	.byte	W02
	.byte		        c_v-43
	.byte	W01
	.byte	W01
	.byte		        c_v-26
	.byte	W02
	.byte		        c_v-12
	.byte	W02
	.byte		        c_v+0
	.byte	W66
	.byte	W01
	.byte		N72   , Bn1 , v120
	.byte	W68
	.byte	W03
	.byte		BEND  , c_v-64
	.byte	W01
	.byte	PEND
	.byte		N60   , Ds2 , v120
	.byte	W01
	.byte		BEND  , c_v-56
	.byte	W02
	.byte		        c_v-43
	.byte	W02
	.byte		        c_v-26
	.byte	W02
	.byte		        c_v-12
	.byte	W02
	.byte		        c_v+0
	.byte	W48
	.byte	W03
	.byte		N04   , Cs2 
	.byte	W04
	.byte		        Ds2 
	.byte	W04
	.byte		        Cs2 
	.byte	W04
	.byte	PEND
	.byte	PATT
	 .word	seq_020_4 + 0x2B
	.byte		N48   , Gs1 , v120
	.byte	W01
	.byte		BEND  , c_v-56
	.byte	W02
	.byte		        c_v-43
	.byte	W02
	.byte		        c_v-26
	.byte	W02
	.byte		        c_v-12
	.byte	W02
	.byte		        c_v+0
	.byte	W36
	.byte	W03
	.byte		N24   , Bn1 
	.byte	W24
	.byte	PEND
	.byte		N48   , Ds2 , v100
	.byte	W48
	.byte		N24   , Gs2 
	.byte	W23
	.byte		BEND  , c_v-64
	.byte	W01
	.byte	PEND
	.byte		N60   , Fs2 , v100
	.byte	W01
	.byte		BEND  , c_v-56
	.byte	W02
	.byte		        c_v-43
	.byte	W02
	.byte		        c_v-26
	.byte	W02
	.byte		        c_v-12
	.byte	W02
	.byte		        c_v+0
	.byte	W48
	.byte	W03
	.byte		N04
	.byte	W04
	.byte		        Gs2 
	.byte	W04
	.byte		        Fs2 
	.byte	W04
	.byte	PEND
	.byte		N72   , Ds2 
	.byte	W68
	.byte	W03
	.byte		BEND  , c_v-64
	.byte	W01
	.byte		N72   , Gs1 , v120
	.byte	W01
	.byte		BEND  , c_v-56
	.byte	W02
	.byte		        c_v-43
	.byte	W02
	.byte		        c_v-26
	.byte	W02
	.byte		        c_v-12
	.byte	W02
	.byte		        c_v+0
	.byte	W60
	.byte	W03
	.byte	PEND
	.byte	PATT
	 .word	seq_020_4 + 0x2B
	.byte	PATT
	 .word	seq_020_4 + 0x34
	.byte	PATT
	 .word	seq_020_4 + 0x2B
	.byte	PATT
	 .word	seq_020_4 + 0x51
	.byte	PATT
	 .word	seq_020_4 + 0x65
	.byte	PATT
	 .word	seq_020_4 + 0x70
	.byte		N72   , Ds2 , v100
	.byte	W72
	.byte	W72
	.byte	W72
	.byte	W72
	.byte	W68
	.byte	W03
	.byte		PAN   , c_v-40
	.byte	W01
	.byte	W48
	.byte		N24   , Fs1 
	.byte	W24
	.byte		N48   , Gs1 
	.byte	W48
	.byte		N16   , Ds2 
	.byte	W16
	.byte		N05   , Cs2 
	.byte	W05
	.byte		N03   , Ds2 
	.byte	W03
	.byte		TIE   , Cs2 
	.byte	W01
	.byte		VOL   , 69*seq_020_mvl/mxv
	.byte	W02
	.byte		        66*seq_020_mvl/mxv
	.byte	W01
	.byte		        64*seq_020_mvl/mxv
	.byte	W01
	.byte		        62*seq_020_mvl/mxv
	.byte	W01
	.byte		        60*seq_020_mvl/mxv
	.byte	W01
	.byte		        58*seq_020_mvl/mxv
	.byte	W01
	.byte		        57*seq_020_mvl/mxv
	.byte	W01
	.byte		        55*seq_020_mvl/mxv
	.byte	W01
	.byte		        54*seq_020_mvl/mxv
	.byte	W01
	.byte		        52*seq_020_mvl/mxv
	.byte	W01
	.byte		        50*seq_020_mvl/mxv
	.byte	W01
	.byte		        48*seq_020_mvl/mxv
	.byte	W01
	.byte		        46*seq_020_mvl/mxv
	.byte	W05
	.byte		        48*seq_020_mvl/mxv
	.byte	W03
	.byte		        50*seq_020_mvl/mxv
	.byte	W03
	.byte		        52*seq_020_mvl/mxv
	.byte	W03
	.byte		        54*seq_020_mvl/mxv
	.byte	W03
	.byte		        56*seq_020_mvl/mxv
	.byte	W03
	.byte		        58*seq_020_mvl/mxv
	.byte	W03
	.byte		        60*seq_020_mvl/mxv
	.byte	W03
	.byte		        62*seq_020_mvl/mxv
	.byte	W03
	.byte		        64*seq_020_mvl/mxv
	.byte	W03
	.byte		        66*seq_020_mvl/mxv
	.byte	W03
	.byte		        68*seq_020_mvl/mxv
	.byte	W02
	.byte		        69*seq_020_mvl/mxv
	.byte	W02
	.byte		        70*seq_020_mvl/mxv
	.byte	W02
	.byte		        72*seq_020_mvl/mxv
	.byte	W02
	.byte		        73*seq_020_mvl/mxv
	.byte	W03
	.byte		        75*seq_020_mvl/mxv
	.byte	W03
	.byte		        77*seq_020_mvl/mxv
	.byte	W02
	.byte		        78*seq_020_mvl/mxv
	.byte	W05
	.byte		        78*seq_020_mvl/mxv
	.byte	W02
	.byte	W03
	.byte		        76*seq_020_mvl/mxv
	.byte	W05
	.byte		        74*seq_020_mvl/mxv
	.byte	W05
	.byte		        72*seq_020_mvl/mxv
	.byte	W04
	.byte		        70*seq_020_mvl/mxv
	.byte	W03
	.byte		        69*seq_020_mvl/mxv
	.byte	W02
	.byte		        68*seq_020_mvl/mxv
	.byte	W03
	.byte		        67*seq_020_mvl/mxv
	.byte	W02
	.byte		        57*seq_020_mvl/mxv
	.byte	W03
	.byte		        64*seq_020_mvl/mxv
	.byte	W02
	.byte		        62*seq_020_mvl/mxv
	.byte	W02
	.byte		        60*seq_020_mvl/mxv
	.byte	W03
	.byte		        57*seq_020_mvl/mxv
	.byte	W02
	.byte		        55*seq_020_mvl/mxv
	.byte	W03
	.byte		        52*seq_020_mvl/mxv
	.byte	W04
	.byte		        48*seq_020_mvl/mxv
	.byte	W03
	.byte		        45*seq_020_mvl/mxv
	.byte	W02
	.byte		        40*seq_020_mvl/mxv
	.byte	W03
	.byte		        34*seq_020_mvl/mxv
	.byte	W02
	.byte		        30*seq_020_mvl/mxv
	.byte	W02
	.byte		        26*seq_020_mvl/mxv
	.byte	W02
	.byte		        21*seq_020_mvl/mxv
	.byte	W02
	.byte		        17*seq_020_mvl/mxv
	.byte	W03
	.byte		        10*seq_020_mvl/mxv
	.byte	W07
	.byte		EOT
	.byte	W72
	.byte	W72
	.byte	W72
	.byte	W68
	.byte	W03
	.byte		VOL   , 80*seq_020_mvl/mxv
	.byte		PAN   , c_v+40
	.byte	W01
	.byte	W24
	.byte		N24   , Cs1 , v108
	.byte	W24
	.byte		        Ds1 
	.byte	W24
	.byte		        Fs1 
	.byte	W24
	.byte		        Gs1 
	.byte	W24
	.byte		        Bn1 
	.byte	W24
	.byte		N48   , Cs2 
	.byte	W48
	.byte		N24   , En2 
	.byte	W24
	.byte		N72   , Ds2 
	.byte	W68
	.byte	W03
	.byte		PAN   , c_v+20
	.byte		BEND  , c_v-64
	.byte	W01
	.byte	PATT
	 .word	seq_020_4 + 0x8E
	.byte	PATT
	 .word	seq_020_4 + 0x2B
	.byte	PATT
	 .word	seq_020_4 + 0x34
	.byte	PATT
	 .word	seq_020_4 + 0x2B
	.byte	PATT
	 .word	seq_020_4 + 0x51
	.byte	PATT
	 .word	seq_020_4 + 0x65
	.byte	PATT
	 .word	seq_020_4 + 0x70
	.byte		N72   , Ds2 , v100
	.byte	W72
	.byte	GOTO
	 .word	seq_020_4 + 0x8E
	.byte	FINE

@*********************** Track 06 ***********************@

seq_020_5:
	.byte	KEYSH , seq_020_key+0
	.byte	W11
	.byte		VOICE , 95
	.byte		VOL   , 85*seq_020_mvl/mxv
	.byte		PAN   , c_v-20
	.byte	W01
	.byte		MOD   , 35
	.byte		LFOS  , 60
	.byte		MODT  , mod_tre
	.byte	W12
	.byte	W24
	.byte	W72
	.byte	W72
	.byte	W72
	.byte	W44
	.byte	W03
	.byte		BEND  , c_v-64
	.byte	W01
	.byte		N96   , Ds1 , v112
	.byte	W21
	.byte		BEND  , c_v-56
	.byte	W02
	.byte		        c_v-43
	.byte	W01
	.byte	W01
	.byte		        c_v-26
	.byte	W02
	.byte		        c_v-12
	.byte	W02
	.byte		        c_v+0
	.byte	W66
	.byte	W01
	.byte		N72   , Ds1 , v112
	.byte	W68
	.byte	W03
	.byte		BEND  , c_v-64
	.byte	W01
	.byte	PEND
	.byte		N72   , Fs1 , v112
	.byte	W01
	.byte		BEND  , c_v-56
	.byte	W02
	.byte		        c_v-43
	.byte	W02
	.byte		        c_v-26
	.byte	W02
	.byte		        c_v-12
	.byte	W02
	.byte		        c_v+0
	.byte	W60
	.byte	W03
	.byte	PEND
	.byte		N72   , Fs1 , v112
	.byte	W68
	.byte	W03
	.byte		BEND  , c_v-64
	.byte	W01
	.byte	PEND
	.byte		N48   , En1 , v112
	.byte	W01
	.byte		BEND  , c_v-56
	.byte	W02
	.byte		        c_v-43
	.byte	W02
	.byte		        c_v-26
	.byte	W02
	.byte		        c_v-12
	.byte	W02
	.byte		        c_v+0
	.byte	W36
	.byte	W03
	.byte		N24   , Gs1 
	.byte	W24
	.byte	PEND
	.byte		N48   , Gs1 , v112
	.byte	W48
	.byte		N24   , Bn1 
	.byte	W23
	.byte		BEND  , c_v-64
	.byte	W01
	.byte	PEND
	.byte		N24   , En1 , v112
	.byte	W01
	.byte		BEND  , c_v-56
	.byte	W02
	.byte		        c_v-43
	.byte	W02
	.byte		        c_v-26
	.byte	W02
	.byte		        c_v-12
	.byte	W02
	.byte		        c_v+0
	.byte	W15
	.byte		N24   , Gs1 
	.byte	W24
	.byte		        Bn1 
	.byte	W24
	.byte	PEND
	.byte		N24   , As1 , v112
	.byte	W24
	.byte		        Gs1 
	.byte	W24
	.byte		        Fs1 
	.byte	W24
	.byte	PEND
	.byte		N72   , Ds1 , v112
	.byte	W72
	.byte	PATT
	 .word	seq_020_5 + 0x2B
	.byte	PATT
	 .word	seq_020_5 + 0x34
	.byte	PATT
	 .word	seq_020_5 + 0x45
	.byte	PATT
	 .word	seq_020_5 + 0x4E
	.byte	PATT
	 .word	seq_020_5 + 0x62
	.byte	PATT
	 .word	seq_020_5 + 0x6D
	.byte	PATT
	 .word	seq_020_5 + 0x82
	.byte	W72
	.byte	W72
	.byte	W72
	.byte	W68
	.byte	W03
	.byte		PAN   , c_v+40
	.byte	W01
	.byte	W48
	.byte		N24   , Bn0 , v100
	.byte	W24
	.byte		        Cs1 
	.byte	W24
	.byte		        Ds1 
	.byte	W24
	.byte		        Fs1 
	.byte	W24
	.byte		N72   , Gs1 
	.byte	W01
	.byte		VOL   , 73*seq_020_mvl/mxv
	.byte	W02
	.byte		        68*seq_020_mvl/mxv
	.byte	W01
	.byte		        67*seq_020_mvl/mxv
	.byte	W01
	.byte		        64*seq_020_mvl/mxv
	.byte	W01
	.byte		        62*seq_020_mvl/mxv
	.byte	W01
	.byte		        58*seq_020_mvl/mxv
	.byte	W01
	.byte		        56*seq_020_mvl/mxv
	.byte	W01
	.byte		        53*seq_020_mvl/mxv
	.byte	W01
	.byte		        50*seq_020_mvl/mxv
	.byte	W01
	.byte		        47*seq_020_mvl/mxv
	.byte	W01
	.byte		        44*seq_020_mvl/mxv
	.byte	W01
	.byte		        41*seq_020_mvl/mxv
	.byte	W01
	.byte		        38*seq_020_mvl/mxv
	.byte	W05
	.byte		        46*seq_020_mvl/mxv
	.byte	W03
	.byte		        48*seq_020_mvl/mxv
	.byte	W03
	.byte		        50*seq_020_mvl/mxv
	.byte	W03
	.byte		        52*seq_020_mvl/mxv
	.byte	W03
	.byte		        54*seq_020_mvl/mxv
	.byte	W03
	.byte		        55*seq_020_mvl/mxv
	.byte	W03
	.byte		        57*seq_020_mvl/mxv
	.byte	W03
	.byte		        59*seq_020_mvl/mxv
	.byte	W03
	.byte		        61*seq_020_mvl/mxv
	.byte	W03
	.byte		        63*seq_020_mvl/mxv
	.byte	W03
	.byte		        64*seq_020_mvl/mxv
	.byte	W02
	.byte		        66*seq_020_mvl/mxv
	.byte	W02
	.byte		        67*seq_020_mvl/mxv
	.byte	W02
	.byte		        68*seq_020_mvl/mxv
	.byte	W02
	.byte		        70*seq_020_mvl/mxv
	.byte	W03
	.byte		        72*seq_020_mvl/mxv
	.byte	W03
	.byte		        71*seq_020_mvl/mxv
	.byte	W02
	.byte		        74*seq_020_mvl/mxv
	.byte	W05
	.byte		        72*seq_020_mvl/mxv
	.byte	W02
	.byte		N72   , As1 
	.byte	W03
	.byte		VOL   , 70*seq_020_mvl/mxv
	.byte	W05
	.byte		        68*seq_020_mvl/mxv
	.byte	W05
	.byte		        66*seq_020_mvl/mxv
	.byte	W04
	.byte		        65*seq_020_mvl/mxv
	.byte	W03
	.byte		        62*seq_020_mvl/mxv
	.byte	W02
	.byte		        61*seq_020_mvl/mxv
	.byte	W03
	.byte		        59*seq_020_mvl/mxv
	.byte	W02
	.byte		        57*seq_020_mvl/mxv
	.byte	W03
	.byte		        55*seq_020_mvl/mxv
	.byte	W02
	.byte		        53*seq_020_mvl/mxv
	.byte	W02
	.byte		        52*seq_020_mvl/mxv
	.byte	W03
	.byte		        49*seq_020_mvl/mxv
	.byte	W02
	.byte		        48*seq_020_mvl/mxv
	.byte	W03
	.byte		        45*seq_020_mvl/mxv
	.byte	W04
	.byte		        40*seq_020_mvl/mxv
	.byte	W03
	.byte		        34*seq_020_mvl/mxv
	.byte	W02
	.byte		        30*seq_020_mvl/mxv
	.byte	W03
	.byte		        24*seq_020_mvl/mxv
	.byte	W02
	.byte		        20*seq_020_mvl/mxv
	.byte	W02
	.byte		        17*seq_020_mvl/mxv
	.byte	W02
	.byte		        13*seq_020_mvl/mxv
	.byte	W02
	.byte		        10*seq_020_mvl/mxv
	.byte	W03
	.byte		        7*seq_020_mvl/mxv
	.byte	W07
	.byte	W72
	.byte	W72
	.byte	W72
	.byte	W68
	.byte	W03
	.byte		        80*seq_020_mvl/mxv
	.byte		PAN   , c_v-40
	.byte	W01
	.byte	W24
	.byte		N24   , Fs1 , v112
	.byte	W24
	.byte		        Gs1 
	.byte	W24
	.byte		        Bn1 
	.byte	W24
	.byte		        Cs2 
	.byte	W24
	.byte		        Ds2 
	.byte	W24
	.byte		N48   , En2 
	.byte	W48
	.byte		N24   , Gs2 
	.byte	W24
	.byte		N72   , Gn2 
	.byte	W68
	.byte	W03
	.byte		PAN   , c_v-20
	.byte	W01
	.byte		N72   , Ds1 
	.byte	W72
	.byte	PATT
	 .word	seq_020_5 + 0x2B
	.byte	PATT
	 .word	seq_020_5 + 0x34
	.byte	PATT
	 .word	seq_020_5 + 0x45
	.byte	PATT
	 .word	seq_020_5 + 0x4E
	.byte	PATT
	 .word	seq_020_5 + 0x62
	.byte	PATT
	 .word	seq_020_5 + 0x6D
	.byte	PATT
	 .word	seq_020_5 + 0x82
	.byte	GOTO
	 .word	seq_020_5 + 0x8B
	.byte	FINE

@*********************** Track 07 ***********************@

seq_020_6:
	.byte	KEYSH , seq_020_key+0
	.byte	W13
	.byte		VOICE , 70
	.byte		VOL   , 73*seq_020_mvl/mxv
	.byte		PAN   , c_v-63
	.byte	W11
	.byte	W24
	.byte	W72
	.byte	W72
	.byte	W72
	.byte	W72
	.byte		N06   , Ds2 , v127
	.byte	W06
	.byte		N03   , Ds2 , v012
	.byte	W06
	.byte		N02   , Gs3 , v127
	.byte	W03
	.byte		        Gs3 , v060
	.byte	W03
	.byte		        Gs3 , v100
	.byte	W03
	.byte		        Gs3 , v040
	.byte	W03
	.byte		        Gs2 , v127
	.byte	W03
	.byte		        Gs2 , v072
	.byte	W03
	.byte		        Gs2 , v040
	.byte	W03
	.byte		        Gs2 , v032
	.byte	W03
	.byte		        Gs3 , v127
	.byte	W03
	.byte		        Gs3 , v060
	.byte	W03
	.byte		        Gs3 , v100
	.byte	W03
	.byte		        Gs3 , v040
	.byte	W03
	.byte		        Cs3 , v127
	.byte	W03
	.byte		        Cs3 , v072
	.byte	W03
	.byte		        Cs3 , v040
	.byte	W03
	.byte		        Cs3 , v032
	.byte	W03
	.byte		        Ds3 , v127
	.byte	W03
	.byte		        Ds3 , v072
	.byte	W03
	.byte		        Ds3 , v040
	.byte	W03
	.byte		        Ds3 , v032
	.byte	W03
	.byte	PEND
	.byte		N06   , Ds2 , v127
	.byte	W06
	.byte		N03   , Ds2 , v012
	.byte	W06
	.byte		N02   , Gs3 , v127
	.byte	W03
	.byte		        Gs3 , v060
	.byte	W03
	.byte		        Gs3 , v100
	.byte	W03
	.byte		        Gs3 , v040
	.byte	W03
	.byte		        Gs2 , v127
	.byte	W03
	.byte		        Gs2 , v072
	.byte	W03
	.byte		        Gs2 , v040
	.byte	W03
	.byte		        Gs2 , v032
	.byte	W03
	.byte		        Gs3 , v127
	.byte	W03
	.byte		        Gs3 , v060
	.byte	W03
	.byte		        Gs3 , v100
	.byte	W03
	.byte		        Gs3 , v040
	.byte	W03
	.byte		        Ds3 , v127
	.byte	W03
	.byte		        Ds3 , v072
	.byte	W03
	.byte		        Ds3 , v040
	.byte	W03
	.byte		        Ds3 , v032
	.byte	W15
	.byte	PEND
	.byte	PATT
	 .word	seq_020_6 + 0xF
	.byte	PATT
	 .word	seq_020_6 + 0x55
	.byte		N06   , Gs2 , v127
	.byte	W06
	.byte		N03   , Gs2 , v012
	.byte	W06
	.byte		N02   , Gs3 , v127
	.byte	W03
	.byte		        Gs3 , v060
	.byte	W03
	.byte		        Gs3 , v100
	.byte	W03
	.byte		        Gs3 , v040
	.byte	W03
	.byte		        Gs2 , v127
	.byte	W03
	.byte		        Gs2 , v072
	.byte	W03
	.byte		        Gs2 , v040
	.byte	W03
	.byte		        Gs2 , v032
	.byte	W03
	.byte		        Gs3 , v127
	.byte	W03
	.byte		        Gs3 , v060
	.byte	W03
	.byte		        Gs3 , v100
	.byte	W03
	.byte		        Gs3 , v040
	.byte	W03
	.byte		        Cs3 , v127
	.byte	W03
	.byte		        Cs3 , v072
	.byte	W03
	.byte		        Cs3 , v040
	.byte	W03
	.byte		        Cs3 , v032
	.byte	W03
	.byte		        Ds3 , v127
	.byte	W03
	.byte		        Ds3 , v072
	.byte	W03
	.byte		        Ds3 , v040
	.byte	W03
	.byte		        Ds3 , v032
	.byte	W03
	.byte	PEND
	.byte		N06   , Gs2 , v127
	.byte	W06
	.byte		N03   , Gs2 , v012
	.byte	W06
	.byte		N02   , Gs3 , v127
	.byte	W03
	.byte		        Gs3 , v060
	.byte	W03
	.byte		        Gs3 , v100
	.byte	W03
	.byte		        Gs3 , v040
	.byte	W03
	.byte		        Gs2 , v127
	.byte	W03
	.byte		        Gs2 , v072
	.byte	W03
	.byte		        Gs2 , v040
	.byte	W03
	.byte		        Gs2 , v032
	.byte	W03
	.byte		        Gs3 , v127
	.byte	W03
	.byte		        Gs3 , v060
	.byte	W03
	.byte		        Gs3 , v100
	.byte	W03
	.byte		        Gs3 , v040
	.byte	W03
	.byte		        Cs3 , v127
	.byte	W03
	.byte		        Cs3 , v072
	.byte	W03
	.byte		        Cs3 , v040
	.byte	W03
	.byte		        Cs3 , v032
	.byte	W15
	.byte	PEND
	.byte	PATT
	 .word	seq_020_6 + 0x99
	.byte	PATT
	 .word	seq_020_6 + 0xDF
	.byte	PATT
	 .word	seq_020_6 + 0xF
	.byte	PATT
	 .word	seq_020_6 + 0x55
	.byte	PATT
	 .word	seq_020_6 + 0xF
	.byte	PATT
	 .word	seq_020_6 + 0x55
	.byte	PATT
	 .word	seq_020_6 + 0x99
	.byte	PATT
	 .word	seq_020_6 + 0xDF
	.byte	PATT
	 .word	seq_020_6 + 0x99
	.byte		N06   , Gs2 , v127
	.byte	W06
	.byte		N03   , Gs2 , v012
	.byte	W06
	.byte		N02   , Gs3 , v127
	.byte	W03
	.byte		        Gs3 , v060
	.byte	W03
	.byte		        Gs3 , v100
	.byte	W03
	.byte		        Gs3 , v040
	.byte	W03
	.byte		        Gs2 , v127
	.byte	W03
	.byte		        Gs2 , v072
	.byte	W03
	.byte		        Gs2 , v040
	.byte	W03
	.byte		        Gs2 , v032
	.byte	W03
	.byte		        Gs3 , v127
	.byte	W03
	.byte		        Gs3 , v060
	.byte	W03
	.byte		        Gs3 , v100
	.byte	W03
	.byte		        Gs3 , v040
	.byte	W03
	.byte		        Cs3 , v127
	.byte	W03
	.byte		        Cs3 , v072
	.byte	W03
	.byte		        Cs3 , v040
	.byte	W03
	.byte		        Cs3 , v032
	.byte	W14
	.byte		MOD   , 50
	.byte		PAN   , c_v+0
	.byte		MODT  , mod_pan
	.byte	W01
	.byte		N06   , Gs1 , v127
	.byte	W06
	.byte		N03   , Gs1 , v012
	.byte	W06
	.byte		N02   , Gs3 , v127
	.byte	W03
	.byte		        Gs3 , v060
	.byte	W03
	.byte		        Gs3 , v100
	.byte	W03
	.byte		        Gs3 , v040
	.byte	W03
	.byte		        Ds3 , v080
	.byte	W06
	.byte		        Ds3 , v004
	.byte	W06
	.byte		        Gs3 , v127
	.byte	W03
	.byte		        Gs3 , v060
	.byte	W03
	.byte		        Gs3 , v040
	.byte	W03
	.byte		        Gs3 , v032
	.byte	W03
	.byte		        Cs3 , v127
	.byte	W03
	.byte		        Cs3 , v072
	.byte	W03
	.byte		        Cs3 , v040
	.byte	W03
	.byte		        Cs3 , v032
	.byte	W15
	.byte	PEND
	.byte		N06   , Gs1 , v127
	.byte	W06
	.byte		N03   , Gs1 , v012
	.byte	W06
	.byte		N02   , Gs3 , v127
	.byte	W03
	.byte		        Gs3 , v060
	.byte	W03
	.byte		        Gs3 , v100
	.byte	W03
	.byte		        Gs3 , v040
	.byte	W03
	.byte		        Ds3 , v080
	.byte	W06
	.byte		        Ds3 , v004
	.byte	W06
	.byte		        Gs3 , v127
	.byte	W03
	.byte		        Gs3 , v060
	.byte	W03
	.byte		        Gs3 , v040
	.byte	W03
	.byte		        Gs3 , v032
	.byte	W03
	.byte		        Ds3 , v127
	.byte	W03
	.byte		        Ds3 , v072
	.byte	W03
	.byte		        Ds3 , v040
	.byte	W03
	.byte		        Ds3 , v032
	.byte	W15
	.byte	PEND
	.byte		N06   , Bn1 , v127
	.byte	W06
	.byte		N03   , Bn1 , v012
	.byte	W06
	.byte		N02   , Fs3 , v127
	.byte	W03
	.byte		        Fs3 , v060
	.byte	W03
	.byte		        Fs3 , v100
	.byte	W03
	.byte		        Fs3 , v040
	.byte	W03
	.byte		        Bn2 , v080
	.byte	W06
	.byte		        Bn2 , v004
	.byte	W06
	.byte		        Fs3 , v127
	.byte	W03
	.byte		        Fs3 , v060
	.byte	W03
	.byte		        Fs3 , v040
	.byte	W03
	.byte		        Fs3 , v032
	.byte	W03
	.byte		        Ds3 , v127
	.byte	W03
	.byte		        Ds3 , v072
	.byte	W03
	.byte		        Ds3 , v040
	.byte	W03
	.byte		        Ds3 , v032
	.byte	W15
	.byte	PEND
	.byte		N06   , Bn1 , v127
	.byte	W06
	.byte		N03   , Bn1 , v012
	.byte	W06
	.byte		N02   , Fs3 , v127
	.byte	W03
	.byte		        Fs3 , v060
	.byte	W03
	.byte		        Fs3 , v100
	.byte	W03
	.byte		        Fs3 , v040
	.byte	W03
	.byte		        Bn2 , v080
	.byte	W06
	.byte		        Bn2 , v004
	.byte	W06
	.byte		        Fs3 , v127
	.byte	W03
	.byte		        Fs3 , v060
	.byte	W03
	.byte		        Fs3 , v040
	.byte	W03
	.byte		        Fs3 , v032
	.byte	W03
	.byte		        Bn2 , v127
	.byte	W03
	.byte		        Bn2 , v072
	.byte	W03
	.byte		        Bn2 , v040
	.byte	W03
	.byte		        Bn2 , v032
	.byte	W15
	.byte	PEND
	.byte		N06   , Cs1 , v127
	.byte	W06
	.byte		N03   , Cs1 , v012
	.byte	W06
	.byte		N02   , Cs3 , v127
	.byte	W03
	.byte		        Cs3 , v060
	.byte	W03
	.byte		        Cs3 , v100
	.byte	W03
	.byte		        Cs3 , v040
	.byte	W03
	.byte		        Gs2 , v080
	.byte	W06
	.byte		        Gs2 , v004
	.byte	W06
	.byte		        Cs3 , v127
	.byte	W03
	.byte		        Cs3 , v060
	.byte	W03
	.byte		        Cs3 , v040
	.byte	W03
	.byte		        Cs3 , v032
	.byte	W03
	.byte		        Gs2 , v127
	.byte	W03
	.byte		        Gs2 , v072
	.byte	W03
	.byte		        Gs2 , v040
	.byte	W03
	.byte		        Gs2 , v032
	.byte	W03
	.byte		        Fs2 , v127
	.byte	W03
	.byte		        Fs2 , v072
	.byte	W03
	.byte		        Fs2 , v040
	.byte	W03
	.byte		        Fs2 , v032
	.byte	W03
	.byte		N06   , Cs1 , v127
	.byte	W06
	.byte		N03   , Cs1 , v012
	.byte	W06
	.byte		N02   , Cs3 , v127
	.byte	W03
	.byte		        Cs3 , v060
	.byte	W03
	.byte		        Cs3 , v100
	.byte	W03
	.byte		        Cs3 , v040
	.byte	W03
	.byte		        Gs2 , v080
	.byte	W06
	.byte		        Gs2 , v004
	.byte	W06
	.byte		        Cs3 , v127
	.byte	W03
	.byte		        Cs3 , v060
	.byte	W03
	.byte		        Cs3 , v040
	.byte	W03
	.byte		        Cs3 , v032
	.byte	W03
	.byte		        Gs2 , v127
	.byte	W03
	.byte		        Gs2 , v072
	.byte	W03
	.byte		        Gs2 , v040
	.byte	W03
	.byte		        Gs2 , v032
	.byte	W15
	.byte		N06   , En1 , v127
	.byte	W06
	.byte		N03   , En1 , v012
	.byte	W06
	.byte		N02   , Cs3 , v127
	.byte	W03
	.byte		        Cs3 , v060
	.byte	W03
	.byte		        Cs3 , v100
	.byte	W03
	.byte		        Cs3 , v040
	.byte	W03
	.byte		        Gs2 , v080
	.byte	W06
	.byte		        Gs2 , v004
	.byte	W06
	.byte		        Bn2 , v127
	.byte	W03
	.byte		        Bn2 , v060
	.byte	W03
	.byte		        Bn2 , v040
	.byte	W03
	.byte		        Bn2 , v032
	.byte	W03
	.byte		        Gs2 , v080
	.byte	W06
	.byte		        Gs2 , v004
	.byte	W06
	.byte		        Bn2 , v127
	.byte	W03
	.byte		        Bn2 , v072
	.byte	W03
	.byte		        Bn2 , v040
	.byte	W03
	.byte		        Bn2 , v032
	.byte	W03
	.byte		N06   , Fs1 , v127
	.byte	W06
	.byte		N03   , Fs1 , v012
	.byte	W06
	.byte		N02   , Cs3 , v127
	.byte	W03
	.byte		        Cs3 , v060
	.byte	W03
	.byte		        Cs3 , v100
	.byte	W03
	.byte		        Cs3 , v040
	.byte	W03
	.byte		        Gs2 , v080
	.byte	W06
	.byte		        Gs2 , v004
	.byte	W06
	.byte		        Ds3 , v127
	.byte	W03
	.byte		        Ds3 , v060
	.byte	W03
	.byte		        Ds3 , v040
	.byte	W03
	.byte		        Ds3 , v032
	.byte	W03
	.byte		        Cs3 , v127
	.byte	W03
	.byte		        Cs3 , v072
	.byte	W03
	.byte		        Cs3 , v040
	.byte	W03
	.byte		        Cs3 , v032
	.byte	W15
	.byte	PATT
	 .word	seq_020_6 + 0x186
	.byte	PATT
	 .word	seq_020_6 + 0x1BA
	.byte	PATT
	 .word	seq_020_6 + 0x1EE
	.byte	PATT
	 .word	seq_020_6 + 0x222
	.byte		N06   , Cs2 , v127
	.byte	W06
	.byte		N03   , Cs2 , v012
	.byte	W06
	.byte		N02   , Cs3 , v127
	.byte	W03
	.byte		        Cs3 , v060
	.byte	W03
	.byte		        Cs3 , v100
	.byte	W03
	.byte		        Cs3 , v040
	.byte	W03
	.byte		        Gs2 , v080
	.byte	W06
	.byte		        Gs2 , v004
	.byte	W06
	.byte		        Cs3 , v127
	.byte	W03
	.byte		        Cs3 , v060
	.byte	W03
	.byte		        Cs3 , v040
	.byte	W03
	.byte		        Cs3 , v032
	.byte	W03
	.byte		        Gs2 , v127
	.byte	W03
	.byte		        Gs2 , v072
	.byte	W03
	.byte		        Gs2 , v040
	.byte	W03
	.byte		        Gs2 , v032
	.byte	W03
	.byte		        Bn2 , v127
	.byte	W03
	.byte		        Bn2 , v072
	.byte	W03
	.byte		        Bn2 , v040
	.byte	W03
	.byte		        Bn2 , v032
	.byte	W03
	.byte	PEND
	.byte	PATT
	 .word	seq_020_6 + 0x348
	.byte		N06   , As1 , v127
	.byte	W06
	.byte		N03   , As1 , v012
	.byte	W06
	.byte		N02   , En3 , v127
	.byte	W03
	.byte		        En3 , v060
	.byte	W03
	.byte		        En3 , v100
	.byte	W03
	.byte		        En3 , v040
	.byte	W03
	.byte		        Cs3 , v080
	.byte	W06
	.byte		        Cs3 , v004
	.byte	W06
	.byte		        En3 , v127
	.byte	W03
	.byte		        En3 , v060
	.byte	W03
	.byte		        En3 , v040
	.byte	W03
	.byte		        En3 , v032
	.byte	W03
	.byte		        Cs3 , v127
	.byte	W03
	.byte		        Cs3 , v072
	.byte	W03
	.byte		        Cs3 , v040
	.byte	W03
	.byte		        Cs3 , v032
	.byte	W03
	.byte		        Gs3 , v127
	.byte	W03
	.byte		        Gs3 , v072
	.byte	W03
	.byte		        Gs3 , v040
	.byte	W03
	.byte		        Gs3 , v032
	.byte	W03
	.byte		N06   , Gn3 , v127
	.byte	W06
	.byte		N03   , Gn3 , v012
	.byte	W06
	.byte		N02   , Gn3 , v127
	.byte	W03
	.byte		        Gn3 , v060
	.byte	W03
	.byte		        Gn3 , v100
	.byte	W03
	.byte		        Gn3 , v040
	.byte	W03
	.byte		        Gn3 , v080
	.byte	W06
	.byte		        Gn3 , v004
	.byte	W40
	.byte	W01
	.byte		MOD   , 0
	.byte		PAN   , c_v-63
	.byte	W01
	.byte	PATT
	 .word	seq_020_6 + 0xF
	.byte	PATT
	 .word	seq_020_6 + 0x55
	.byte	PATT
	 .word	seq_020_6 + 0xF
	.byte	PATT
	 .word	seq_020_6 + 0x55
	.byte	PATT
	 .word	seq_020_6 + 0x99
	.byte	PATT
	 .word	seq_020_6 + 0xDF
	.byte	PATT
	 .word	seq_020_6 + 0x99
	.byte	PATT
	 .word	seq_020_6 + 0xDF
	.byte	GOTO
	 .word	seq_020_6 + 0x123
	.byte	FINE

@*********************** Track 08 ***********************@

seq_020_7:
	.byte	KEYSH , seq_020_key+0
	.byte	W14
	.byte		VOICE , 71
	.byte		VOL   , 60*seq_020_mvl/mxv
	.byte		PAN   , c_v+63
	.byte	W10
	.byte	W24
	.byte	W72
	.byte	W72
	.byte	W72
	.byte	W72
	.byte		N06   , Gs1 , v127
	.byte	W06
	.byte		N03   , Gs1 , v012
	.byte	W06
	.byte		N02   , Ds3 , v127
	.byte	W03
	.byte		        Ds3 , v060
	.byte	W03
	.byte		        Ds3 , v100
	.byte	W03
	.byte		        Ds3 , v040
	.byte	W03
	.byte		        Ds2 , v127
	.byte	W03
	.byte		        Ds2 , v072
	.byte	W03
	.byte		        Ds2 , v040
	.byte	W03
	.byte		        Ds2 , v032
	.byte	W03
	.byte		        Ds3 , v127
	.byte	W03
	.byte		        Ds3 , v060
	.byte	W03
	.byte		        Ds3 , v100
	.byte	W03
	.byte		        Ds3 , v040
	.byte	W03
	.byte		        Fs2 , v127
	.byte	W03
	.byte		        Fs2 , v072
	.byte	W03
	.byte		        Fs2 , v040
	.byte	W03
	.byte		        Fs2 , v032
	.byte	W03
	.byte		        Gs2 , v127
	.byte	W03
	.byte		        Gs2 , v072
	.byte	W03
	.byte		        Gs2 , v040
	.byte	W03
	.byte		        Gs2 , v032
	.byte	W03
	.byte	PEND
	.byte		N06   , Gs1 , v127
	.byte	W06
	.byte		N03   , Gs1 , v012
	.byte	W06
	.byte		N02   , Ds3 , v127
	.byte	W03
	.byte		        Ds3 , v060
	.byte	W03
	.byte		        Ds3 , v100
	.byte	W03
	.byte		        Ds3 , v040
	.byte	W03
	.byte		        Ds2 , v127
	.byte	W03
	.byte		        Ds2 , v072
	.byte	W03
	.byte		        Ds2 , v040
	.byte	W03
	.byte		        Ds2 , v032
	.byte	W03
	.byte		        Ds3 , v127
	.byte	W03
	.byte		        Ds3 , v060
	.byte	W03
	.byte		        Ds3 , v100
	.byte	W03
	.byte		        Ds3 , v040
	.byte	W03
	.byte		        Gs2 , v127
	.byte	W03
	.byte		        Gs2 , v072
	.byte	W03
	.byte		        Gs2 , v040
	.byte	W03
	.byte		        Gs2 , v032
	.byte	W15
	.byte	PEND
	.byte		N06   , Bn1 , v127
	.byte	W06
	.byte		N03   , Bn1 , v012
	.byte	W06
	.byte		N02   , Ds3 , v127
	.byte	W03
	.byte		        Ds3 , v060
	.byte	W03
	.byte		        Ds3 , v100
	.byte	W03
	.byte		        Ds3 , v040
	.byte	W03
	.byte		        Ds2 , v127
	.byte	W03
	.byte		        Ds2 , v072
	.byte	W03
	.byte		        Ds2 , v040
	.byte	W03
	.byte		        Ds2 , v032
	.byte	W03
	.byte		        Ds3 , v127
	.byte	W03
	.byte		        Ds3 , v060
	.byte	W03
	.byte		        Ds3 , v100
	.byte	W03
	.byte		        Ds3 , v040
	.byte	W03
	.byte		        Fs2 , v127
	.byte	W03
	.byte		        Fs2 , v072
	.byte	W03
	.byte		        Fs2 , v040
	.byte	W03
	.byte		        Fs2 , v032
	.byte	W03
	.byte		        Gs2 , v127
	.byte	W03
	.byte		        Gs2 , v072
	.byte	W03
	.byte		        Gs2 , v040
	.byte	W03
	.byte		        Gs2 , v032
	.byte	W03
	.byte	PEND
	.byte		N06   , Bn1 , v127
	.byte	W06
	.byte		N03   , Bn1 , v012
	.byte	W06
	.byte		N02   , Ds3 , v127
	.byte	W03
	.byte		        Ds3 , v060
	.byte	W03
	.byte		        Ds3 , v100
	.byte	W03
	.byte		        Ds3 , v040
	.byte	W03
	.byte		        Ds2 , v127
	.byte	W03
	.byte		        Ds2 , v072
	.byte	W03
	.byte		        Ds2 , v040
	.byte	W03
	.byte		        Ds2 , v032
	.byte	W03
	.byte		        Ds3 , v127
	.byte	W03
	.byte		        Ds3 , v060
	.byte	W03
	.byte		        Ds3 , v100
	.byte	W03
	.byte		        Ds3 , v040
	.byte	W03
	.byte		        Gs2 , v127
	.byte	W03
	.byte		        Gs2 , v072
	.byte	W03
	.byte		        Gs2 , v040
	.byte	W03
	.byte		        Gs2 , v032
	.byte	W15
	.byte	PEND
	.byte		N06   , Cs2 , v127
	.byte	W06
	.byte		N03   , Cs2 , v012
	.byte	W06
	.byte		N02   , Ds3 , v127
	.byte	W03
	.byte		        Ds3 , v060
	.byte	W03
	.byte		        Ds3 , v100
	.byte	W03
	.byte		        Ds3 , v040
	.byte	W03
	.byte		        Ds2 , v127
	.byte	W03
	.byte		        Ds2 , v072
	.byte	W03
	.byte		        Ds2 , v040
	.byte	W03
	.byte		        Ds2 , v032
	.byte	W03
	.byte		        Ds3 , v127
	.byte	W03
	.byte		        Ds3 , v060
	.byte	W03
	.byte		        Ds3 , v100
	.byte	W03
	.byte		        Ds3 , v040
	.byte	W03
	.byte		        Fs2 , v127
	.byte	W03
	.byte		        Fs2 , v072
	.byte	W03
	.byte		        Fs2 , v040
	.byte	W03
	.byte		        Fs2 , v032
	.byte	W03
	.byte		        Gs2 , v127
	.byte	W03
	.byte		        Gs2 , v072
	.byte	W03
	.byte		        Gs2 , v040
	.byte	W03
	.byte		        Gs2 , v032
	.byte	W03
	.byte	PEND
	.byte		N06   , Cs2 , v127
	.byte	W06
	.byte		N03   , Cs2 , v012
	.byte	W06
	.byte		N02   , Ds3 , v127
	.byte	W03
	.byte		        Ds3 , v060
	.byte	W03
	.byte		        Ds3 , v100
	.byte	W03
	.byte		        Ds3 , v040
	.byte	W03
	.byte		        Ds2 , v127
	.byte	W03
	.byte		        Ds2 , v072
	.byte	W03
	.byte		        Ds2 , v040
	.byte	W03
	.byte		        Ds2 , v032
	.byte	W03
	.byte		        Ds3 , v127
	.byte	W03
	.byte		        Ds3 , v060
	.byte	W03
	.byte		        Ds3 , v100
	.byte	W03
	.byte		        Ds3 , v040
	.byte	W03
	.byte		        Fs2 , v127
	.byte	W03
	.byte		        Fs2 , v072
	.byte	W03
	.byte		        Fs2 , v040
	.byte	W03
	.byte		        Fs2 , v032
	.byte	W15
	.byte	PEND
	.byte	PATT
	 .word	seq_020_7 + 0x10F
	.byte	PATT
	 .word	seq_020_7 + 0x155
	.byte	PATT
	 .word	seq_020_7 + 0xF
	.byte	PATT
	 .word	seq_020_7 + 0x55
	.byte	PATT
	 .word	seq_020_7 + 0x8F
	.byte	PATT
	 .word	seq_020_7 + 0xD5
	.byte	PATT
	 .word	seq_020_7 + 0x10F
	.byte	PATT
	 .word	seq_020_7 + 0x155
	.byte	PATT
	 .word	seq_020_7 + 0x10F
	.byte		N06   , Cs2 , v127
	.byte	W06
	.byte		N03   , Cs2 , v012
	.byte	W06
	.byte		N02   , Ds3 , v127
	.byte	W03
	.byte		        Ds3 , v060
	.byte	W03
	.byte		        Ds3 , v100
	.byte	W03
	.byte		        Ds3 , v040
	.byte	W03
	.byte		        Ds2 , v127
	.byte	W03
	.byte		        Ds2 , v072
	.byte	W03
	.byte		        Ds2 , v040
	.byte	W03
	.byte		        Ds2 , v032
	.byte	W03
	.byte		        Ds3 , v127
	.byte	W03
	.byte		        Ds3 , v060
	.byte	W03
	.byte		        Ds3 , v100
	.byte	W03
	.byte		        Ds3 , v040
	.byte	W03
	.byte		        Fs2 , v127
	.byte	W03
	.byte		        Fs2 , v072
	.byte	W03
	.byte		        Fs2 , v040
	.byte	W03
	.byte		        Fs2 , v032
	.byte	W14
	.byte		MOD   , 20
	.byte		PAN   , c_v+0
	.byte		MODT  , mod_pan
	.byte	W01
	.byte	W12
	.byte		N02   , Ds3 , v127
	.byte	W03
	.byte		        Ds3 , v060
	.byte	W03
	.byte		        Ds3 , v100
	.byte	W03
	.byte		        Ds3 , v040
	.byte	W03
	.byte		        Gs2 , v080
	.byte	W06
	.byte		        Gs2 , v004
	.byte	W06
	.byte		        Ds3 , v127
	.byte	W03
	.byte		        Ds3 , v060
	.byte	W03
	.byte		        Ds3 , v040
	.byte	W03
	.byte		        Ds3 , v032
	.byte	W15
	.byte		        Ds3 , v127
	.byte	W03
	.byte		        Ds3 , v072
	.byte	W03
	.byte		        Ds3 , v040
	.byte	W03
	.byte		        Ds3 , v032
	.byte	W03
	.byte	PEND
	.byte	W12
	.byte		N02   , Ds3 , v127
	.byte	W03
	.byte		        Ds3 , v060
	.byte	W03
	.byte		        Ds3 , v100
	.byte	W03
	.byte		        Ds3 , v040
	.byte	W03
	.byte		        Gs2 , v080
	.byte	W06
	.byte		        Gs2 , v004
	.byte	W06
	.byte		        Ds3 , v127
	.byte	W03
	.byte		        Ds3 , v060
	.byte	W03
	.byte		        Ds3 , v040
	.byte	W03
	.byte		        Ds3 , v032
	.byte	W24
	.byte	W03
	.byte	PEND
	.byte	W12
	.byte		N02   , Ds3 , v127
	.byte	W03
	.byte		        Ds3 , v060
	.byte	W03
	.byte		        Ds3 , v100
	.byte	W03
	.byte		        Ds3 , v040
	.byte	W03
	.byte		        Fs2 , v080
	.byte	W06
	.byte		        Fs2 , v004
	.byte	W06
	.byte		        Ds3 , v127
	.byte	W03
	.byte		        Ds3 , v060
	.byte	W03
	.byte		        Ds3 , v040
	.byte	W03
	.byte		        Ds3 , v032
	.byte	W03
	.byte		        Bn2 , v127
	.byte	W03
	.byte		        Bn2 , v072
	.byte	W03
	.byte		        Bn2 , v040
	.byte	W03
	.byte		        Bn2 , v032
	.byte	W03
	.byte		        Cs3 , v127
	.byte	W03
	.byte		        Cs3 , v072
	.byte	W03
	.byte		        Cs3 , v040
	.byte	W03
	.byte		        Cs3 , v032
	.byte	W03
	.byte	PEND
	.byte	W12
	.byte		N02   , Ds3 , v127
	.byte	W03
	.byte		        Ds3 , v060
	.byte	W03
	.byte		        Ds3 , v100
	.byte	W03
	.byte		        Ds3 , v040
	.byte	W03
	.byte		        Fs2 , v080
	.byte	W06
	.byte		        Fs2 , v004
	.byte	W06
	.byte		        Ds3 , v127
	.byte	W03
	.byte		        Ds3 , v060
	.byte	W03
	.byte		        Ds3 , v040
	.byte	W03
	.byte		        Ds3 , v032
	.byte	W15
	.byte		        Ds3 , v127
	.byte	W03
	.byte		        Ds3 , v060
	.byte	W03
	.byte		        Ds3 , v040
	.byte	W03
	.byte		        Ds3 , v032
	.byte	W03
	.byte	PEND
	.byte	W12
	.byte		        Gs2 , v127
	.byte	W03
	.byte		        Gs2 , v060
	.byte	W03
	.byte		        Gs2 , v100
	.byte	W03
	.byte		        Gs2 , v040
	.byte	W03
	.byte		        Cs2 , v080
	.byte	W06
	.byte		        Cs2 , v004
	.byte	W06
	.byte		        Gs2 , v127
	.byte	W03
	.byte		        Gs2 , v060
	.byte	W03
	.byte		        Gs2 , v040
	.byte	W03
	.byte		        Gs2 , v032
	.byte	W03
	.byte		        En2 , v127
	.byte	W03
	.byte		        En2 , v072
	.byte	W03
	.byte		        En2 , v040
	.byte	W03
	.byte		        En2 , v032
	.byte	W15
	.byte	W12
	.byte		        Gs2 , v127
	.byte	W03
	.byte		        Gs2 , v060
	.byte	W03
	.byte		        Gs2 , v100
	.byte	W03
	.byte		        Gs2 , v040
	.byte	W03
	.byte		        Cs2 , v080
	.byte	W06
	.byte		        Cs2 , v004
	.byte	W06
	.byte		        Gs2 , v127
	.byte	W03
	.byte		        Gs2 , v060
	.byte	W03
	.byte		        Gs2 , v040
	.byte	W03
	.byte		        Gs2 , v032
	.byte	W15
	.byte		        Bn2 , v127
	.byte	W03
	.byte		        Bn2 , v072
	.byte	W03
	.byte		        Bn2 , v040
	.byte	W03
	.byte		        Bn2 , v032
	.byte	W03
	.byte	W12
	.byte		        Gs2 , v127
	.byte	W03
	.byte		        Gs2 , v060
	.byte	W03
	.byte		        Gs2 , v100
	.byte	W03
	.byte		        Gs2 , v040
	.byte	W03
	.byte		        En2 , v080
	.byte	W06
	.byte		        En2 , v004
	.byte	W06
	.byte		        Gs2 , v127
	.byte	W03
	.byte		        Gs2 , v060
	.byte	W03
	.byte		        Gs2 , v040
	.byte	W03
	.byte		        Gs2 , v032
	.byte	W15
	.byte		        Bn2 , v127
	.byte	W03
	.byte		        Bn2 , v072
	.byte	W03
	.byte		        Bn2 , v040
	.byte	W03
	.byte		        Bn2 , v032
	.byte	W03
	.byte	W12
	.byte		        As2 , v127
	.byte	W03
	.byte		        As2 , v060
	.byte	W03
	.byte		        As2 , v100
	.byte	W03
	.byte		        As2 , v040
	.byte	W03
	.byte		        En2 , v080
	.byte	W06
	.byte		        En2 , v004
	.byte	W06
	.byte		        Gs2 , v127
	.byte	W03
	.byte		        Gs2 , v060
	.byte	W03
	.byte		        Gs2 , v040
	.byte	W03
	.byte		        Gs2 , v032
	.byte	W03
	.byte		        Gs2 , v127
	.byte	W03
	.byte		        Gs2 , v072
	.byte	W03
	.byte		        Gs2 , v040
	.byte	W03
	.byte		        Gs2 , v032
	.byte	W15
	.byte	PATT
	 .word	seq_020_7 + 0x1FC
	.byte	PATT
	 .word	seq_020_7 + 0x229
	.byte	PATT
	 .word	seq_020_7 + 0x24B
	.byte	PATT
	 .word	seq_020_7 + 0x284
	.byte	W12
	.byte		N02   , Gs2 , v127
	.byte	W03
	.byte		        Gs2 , v060
	.byte	W03
	.byte		        Gs2 , v100
	.byte	W03
	.byte		        Gs2 , v040
	.byte	W03
	.byte		        En2 , v080
	.byte	W06
	.byte		        En2 , v004
	.byte	W06
	.byte		        Gs2 , v127
	.byte	W03
	.byte		        Gs2 , v060
	.byte	W03
	.byte		        Gs2 , v040
	.byte	W03
	.byte		        Gs2 , v032
	.byte	W03
	.byte		        En2 , v127
	.byte	W03
	.byte		        En2 , v072
	.byte	W03
	.byte		        En2 , v040
	.byte	W03
	.byte		        En2 , v032
	.byte	W03
	.byte		        Gs2 , v127
	.byte	W03
	.byte		        Gs2 , v072
	.byte	W03
	.byte		        Gs2 , v040
	.byte	W03
	.byte		        Gs2 , v032
	.byte	W03
	.byte	W12
	.byte		        Gs2 , v127
	.byte	W03
	.byte		        Gs2 , v060
	.byte	W03
	.byte		        Gs2 , v100
	.byte	W03
	.byte		        Gs2 , v040
	.byte	W03
	.byte		        En2 , v080
	.byte	W06
	.byte		        En2 , v004
	.byte	W06
	.byte		        Gs2 , v127
	.byte	W03
	.byte		        Gs2 , v060
	.byte	W03
	.byte		        Gs2 , v040
	.byte	W03
	.byte		        Gs2 , v032
	.byte	W15
	.byte		        En2 , v127
	.byte	W03
	.byte		        En2 , v072
	.byte	W03
	.byte		        En2 , v040
	.byte	W03
	.byte		        En2 , v032
	.byte	W03
	.byte	W12
	.byte		        Cs3 , v127
	.byte	W03
	.byte		        Cs3 , v060
	.byte	W03
	.byte		        Cs3 , v100
	.byte	W03
	.byte		        Cs3 , v040
	.byte	W03
	.byte		        Gs2 , v080
	.byte	W06
	.byte		        Gs2 , v004
	.byte	W06
	.byte		        Cs3 , v127
	.byte	W03
	.byte		        Cs3 , v060
	.byte	W03
	.byte		        Cs3 , v040
	.byte	W03
	.byte		        Cs3 , v032
	.byte	W03
	.byte		        Gs2 , v127
	.byte	W03
	.byte		        Gs2 , v072
	.byte	W03
	.byte		        Gs2 , v040
	.byte	W03
	.byte		        Gs2 , v032
	.byte	W03
	.byte		        En3 , v127
	.byte	W03
	.byte		        En3 , v072
	.byte	W03
	.byte		        En3 , v040
	.byte	W03
	.byte		        En3 , v032
	.byte	W03
	.byte		N06   , Ds3 , v127
	.byte	W06
	.byte		N03   , Ds3 , v012
	.byte	W06
	.byte		N02   , Ds3 , v127
	.byte	W03
	.byte		        Ds3 , v060
	.byte	W03
	.byte		        Ds3 , v100
	.byte	W03
	.byte		        Ds3 , v040
	.byte	W03
	.byte		        Ds3 , v080
	.byte	W06
	.byte		        Ds3 , v004
	.byte	W40
	.byte	W01
	.byte		MOD   , 0
	.byte		PAN   , c_v+63
	.byte	W01
	.byte	PATT
	 .word	seq_020_7 + 0xF
	.byte	PATT
	 .word	seq_020_7 + 0x55
	.byte	PATT
	 .word	seq_020_7 + 0x8F
	.byte	PATT
	 .word	seq_020_7 + 0xD5
	.byte	PATT
	 .word	seq_020_7 + 0x10F
	.byte	PATT
	 .word	seq_020_7 + 0x155
	.byte	PATT
	 .word	seq_020_7 + 0x10F
	.byte	PATT
	 .word	seq_020_7 + 0x155
	.byte	GOTO
	 .word	seq_020_7 + 0x199
	.byte	FINE

@*********************** Track 09 ***********************@

seq_020_8:
	.byte	KEYSH , seq_020_key+0
	.byte	W15
	.byte		VOICE , 50
	.byte		VOL   , 56*seq_020_mvl/mxv
	.byte		PAN   , c_v+0
	.byte	W01
	.byte		MOD   , 55
	.byte		PAN   , c_v+0
	.byte		MODT  , mod_pan
	.byte	W08
	.byte	W24
	.byte		N05   , Gs3 , v120
	.byte	W06
	.byte		        Gs3 , v040
	.byte	W06
	.byte		        Ds4 , v120
	.byte	W06
	.byte		N03   , Ds4 , v092
	.byte	W03
	.byte		        Ds4 , v052
	.byte	W03
	.byte		N05   , Cs4 , v092
	.byte	W06
	.byte		        Cs4 , v040
	.byte	W06
	.byte		        Ds4 , v120
	.byte	W06
	.byte		        Ds4 , v040
	.byte	W06
	.byte		        Fs4 , v052
	.byte	W06
	.byte		        Fs4 , v040
	.byte	W06
	.byte		        Gs4 , v060
	.byte	W06
	.byte		        Gs4 , v040
	.byte	W06
	.byte	PEND
	.byte		        Gs3 , v120
	.byte	W06
	.byte		        Gs3 , v040
	.byte	W06
	.byte		        Ds4 , v120
	.byte	W06
	.byte		N03   , Ds4 , v092
	.byte	W03
	.byte		        Ds4 , v052
	.byte	W03
	.byte		N05   , Cs4 , v092
	.byte	W06
	.byte		        Cs4 , v040
	.byte	W06
	.byte		        Ds4 , v120
	.byte	W06
	.byte		        Ds4 , v040
	.byte	W06
	.byte		        Fs4 , v052
	.byte	W06
	.byte		        Fs4 , v040
	.byte	W18
	.byte	PATT
	 .word	seq_020_8 + 0x12
	.byte		N05   , Gs3 , v120
	.byte	W06
	.byte		        Gs3 , v040
	.byte	W64
	.byte	W01
	.byte		PAN   , c_v-63
	.byte	W01
	.byte		N05   , Gs3 , v120
	.byte	W06
	.byte		        Gs3 , v040
	.byte	W05
	.byte		PAN   , c_v+63
	.byte	W01
	.byte		N05   , Ds4 , v120
	.byte	W06
	.byte		N03   , Ds4 , v092
	.byte	W03
	.byte		        Ds4 , v052
	.byte	W02
	.byte		PAN   , c_v-63
	.byte	W01
	.byte		N05   , Cs4 , v092
	.byte	W06
	.byte		        Cs4 , v040
	.byte	W05
	.byte		PAN   , c_v+63
	.byte	W01
	.byte		N05   , Ds4 , v120
	.byte	W06
	.byte		        Ds4 , v040
	.byte	W05
	.byte		PAN   , c_v-63
	.byte	W01
	.byte		N05   , Fs4 , v052
	.byte	W06
	.byte		        Fs4 , v040
	.byte	W05
	.byte		PAN   , c_v+63
	.byte	W01
	.byte		N05   , Gs4 , v060
	.byte	W06
	.byte		        Gs4 , v040
	.byte	W05
	.byte		PAN   , c_v-63
	.byte	W01
	.byte	PEND
	.byte		N05   , Gs3 , v120
	.byte	W06
	.byte		        Gs3 , v040
	.byte	W05
	.byte		PAN   , c_v+63
	.byte	W01
	.byte		N05   , Ds4 , v120
	.byte	W06
	.byte		N03   , Ds4 , v092
	.byte	W03
	.byte		        Ds4 , v052
	.byte	W02
	.byte		PAN   , c_v-63
	.byte	W01
	.byte		N05   , Cs4 , v092
	.byte	W06
	.byte		        Cs4 , v040
	.byte	W05
	.byte		PAN   , c_v+63
	.byte	W01
	.byte		N05   , Ds4 , v120
	.byte	W06
	.byte		        Ds4 , v040
	.byte	W05
	.byte		PAN   , c_v-63
	.byte	W01
	.byte		N05   , Fs4 , v052
	.byte	W06
	.byte		        Fs4 , v040
	.byte	W17
	.byte		PAN   , c_v+63
	.byte	W01
	.byte	PEND
	.byte		N05   , Gs3 , v120
	.byte	W06
	.byte		        Gs3 , v040
	.byte	W05
	.byte		PAN   , c_v-63
	.byte	W01
	.byte		N05   , Ds4 , v120
	.byte	W06
	.byte		N03   , Ds4 , v092
	.byte	W03
	.byte		        Ds4 , v052
	.byte	W02
	.byte		PAN   , c_v+63
	.byte	W01
	.byte		N05   , Cs4 , v092
	.byte	W06
	.byte		        Cs4 , v040
	.byte	W05
	.byte		PAN   , c_v-63
	.byte	W01
	.byte		N05   , Ds4 , v120
	.byte	W06
	.byte		        Ds4 , v040
	.byte	W05
	.byte		PAN   , c_v+63
	.byte	W01
	.byte		N05   , Fs4 , v052
	.byte	W06
	.byte		        Fs4 , v040
	.byte	W05
	.byte		PAN   , c_v-63
	.byte	W01
	.byte		N05   , Gs4 , v060
	.byte	W06
	.byte		        Gs4 , v040
	.byte	W05
	.byte		PAN   , c_v+63
	.byte	W01
	.byte	PEND
	.byte		N05   , Gs3 , v120
	.byte	W06
	.byte		        Gs3 , v040
	.byte	W05
	.byte		PAN   , c_v-63
	.byte	W01
	.byte		N05   , Ds4 , v120
	.byte	W06
	.byte		N03   , Ds4 , v092
	.byte	W03
	.byte		        Ds4 , v052
	.byte	W02
	.byte		PAN   , c_v+63
	.byte	W01
	.byte		N05   , Cs4 , v092
	.byte	W06
	.byte		        Cs4 , v040
	.byte	W05
	.byte		PAN   , c_v-63
	.byte	W01
	.byte		N05   , Ds4 , v120
	.byte	W06
	.byte		        Ds4 , v040
	.byte	W05
	.byte		PAN   , c_v+63
	.byte	W01
	.byte		N05   , Fs4 , v052
	.byte	W06
	.byte		        Fs4 , v040
	.byte	W05
	.byte		PAN   , c_v-63
	.byte	W01
	.byte		N05   , Ds4 , v120
	.byte	W06
	.byte		        Ds4 , v040
	.byte	W05
	.byte		PAN   , c_v-63
	.byte	W01
	.byte	PEND
	.byte	PATT
	 .word	seq_020_8 + 0x70
	.byte	PATT
	 .word	seq_020_8 + 0xB1
	.byte	PATT
	 .word	seq_020_8 + 0xE8
	.byte	PATT
	 .word	seq_020_8 + 0x129
	.byte	PATT
	 .word	seq_020_8 + 0x70
	.byte	PATT
	 .word	seq_020_8 + 0xB1
	.byte	PATT
	 .word	seq_020_8 + 0xE8
	.byte	PATT
	 .word	seq_020_8 + 0x129
	.byte	PATT
	 .word	seq_020_8 + 0x70
	.byte	PATT
	 .word	seq_020_8 + 0xB1
	.byte	PATT
	 .word	seq_020_8 + 0xE8
	.byte		N05   , Gs3 , v120
	.byte	W06
	.byte		        Gs3 , v040
	.byte	W05
	.byte		PAN   , c_v-63
	.byte	W01
	.byte		N05   , Ds4 , v120
	.byte	W06
	.byte		N03   , Ds4 , v092
	.byte	W03
	.byte		        Ds4 , v052
	.byte	W02
	.byte		PAN   , c_v+63
	.byte	W01
	.byte		N05   , Cs4 , v092
	.byte	W06
	.byte		        Cs4 , v040
	.byte	W05
	.byte		PAN   , c_v-63
	.byte	W01
	.byte		N05   , Ds4 , v120
	.byte	W06
	.byte		        Ds4 , v040
	.byte	W05
	.byte		PAN   , c_v+63
	.byte	W01
	.byte		N05   , Fs4 , v052
	.byte	W06
	.byte		        Fs4 , v040
	.byte	W05
	.byte		PAN   , c_v-63
	.byte	W01
	.byte		N05   , Ds4 , v120
	.byte	W06
	.byte		        Ds4 , v040
	.byte	W06
	.byte	PEND
	.byte	W72
	.byte	W72
	.byte	W72
	.byte	W72
	.byte	W72
	.byte	W72
	.byte	W72
	.byte	W72
	.byte	W72
	.byte	W72
	.byte	W72
	.byte	W72
	.byte	W72
	.byte	W72
	.byte	W72
	.byte	W68
	.byte	W03
	.byte		PAN   , c_v-63
	.byte	W01
	.byte	PATT
	 .word	seq_020_8 + 0x70
	.byte	PATT
	 .word	seq_020_8 + 0xB1
	.byte	PATT
	 .word	seq_020_8 + 0xE8
	.byte	PATT
	 .word	seq_020_8 + 0x129
	.byte	PATT
	 .word	seq_020_8 + 0x70
	.byte	PATT
	 .word	seq_020_8 + 0xB1
	.byte	PATT
	 .word	seq_020_8 + 0xE8
	.byte	PATT
	 .word	seq_020_8 + 0x1A1
	.byte	GOTO
	 .word	seq_020_8 + 0x17E
	.byte	FINE

@*********************** Track 10 ***********************@

seq_020_9:
	.byte	KEYSH , seq_020_key+0
	.byte	W17
	.byte		VOICE , 120
	.byte		VOL   , 85*seq_020_mvl/mxv
	.byte		PAN   , c_v+0
	.byte	W07
	.byte	W12
	.byte		N03   , Gs1 , v096
	.byte	W03
	.byte		        Gs1 , v100
	.byte	W06
	.byte		N15   , Gs1 , v127
	.byte	W03
	.byte	W12
	.byte		N12   , Gs1 , v048
	.byte	W12
	.byte		        Gs1 , v020
	.byte	W48
	.byte	W60
	.byte		N03   , Gs1 , v096
	.byte	W03
	.byte		        Gs1 , v100
	.byte	W06
	.byte		N15   , Gs1 , v127
	.byte	W03
	.byte	W72
	.byte	W72
	.byte		N12
	.byte	W72
	.byte		N12   , Gs1 , v127
	.byte	W60
	.byte		N03   , Gs1 , v096
	.byte	W03
	.byte		        Gs1 , v100
	.byte	W06
	.byte		N15   , Bn1 , v127
	.byte	W03
	.byte	PEND
	.byte	W72
	.byte		N12   , Bn1 , v127
	.byte	W60
	.byte		N03   , Gs1 , v096
	.byte	W03
	.byte		        Gs1 , v100
	.byte	W06
	.byte		N15   , Cs2 , v127
	.byte	W03
	.byte	PEND
	.byte	W72
	.byte		N12   , Cs2 , v127
	.byte	W60
	.byte		N03   , Gs1 , v096
	.byte	W03
	.byte		        Gs1 , v100
	.byte	W06
	.byte		N15   , En1 , v127
	.byte	W03
	.byte	PEND
	.byte	W72
	.byte		N12   , Fs1 
	.byte	W72
	.byte		N12   , Gs1 , v127
	.byte	W72
	.byte	PATT
	 .word	seq_020_9 + 0x2E
	.byte	W72
	.byte	PATT
	 .word	seq_020_9 + 0x3F
	.byte	W72
	.byte	PATT
	 .word	seq_020_9 + 0x50
	.byte	W72
	.byte		N12   , Fs1 , v127
	.byte	W24
	.byte		N12
	.byte	W24
	.byte		N12
	.byte	W24
	.byte	PEND
	.byte		        Gs1 
	.byte	W72
	.byte		N12
	.byte	W72
	.byte		        Bn1 
	.byte	W72
	.byte		N12
	.byte	W72
	.byte		        Cs2 
	.byte	W72
	.byte		N12
	.byte	W72
	.byte		        En1 
	.byte	W72
	.byte	PATT
	 .word	seq_020_9 + 0x7A
	.byte		N12   , Gs1 , v127
	.byte	W72
	.byte		N12
	.byte	W72
	.byte		        Bn1 
	.byte	W72
	.byte		N12
	.byte	W72
	.byte		        Cs2 
	.byte	W72
	.byte		N12
	.byte	W72
	.byte		        Dn2 
	.byte	W72
	.byte		        Ds2 
	.byte	W24
	.byte		N12
	.byte	W24
	.byte		N12
	.byte	W24
	.byte		        Gs1 
	.byte	W72
	.byte	PATT
	 .word	seq_020_9 + 0x2E
	.byte	W72
	.byte	PATT
	 .word	seq_020_9 + 0x3F
	.byte	W72
	.byte	PATT
	 .word	seq_020_9 + 0x50
	.byte	W72
	.byte	PATT
	 .word	seq_020_9 + 0x7A
	.byte	GOTO
	 .word	seq_020_9 + 0x64
	.byte	FINE

@*********************** Track 11 ***********************@

seq_020_10:
	.byte	KEYSH , seq_020_key+0
	.byte	W18
	.byte		VOICE , 127
	.byte		VOL   , 60*seq_020_mvl/mxv
	.byte		PAN   , c_v+0
	.byte	W06
	.byte	W24
	.byte		N02   , An3 , v092
	.byte	W12
	.byte		N02
	.byte	W06
	.byte		        An3 , v060
	.byte	W06
	.byte		        An3 , v092
	.byte	W12
	.byte		N02
	.byte	W12
	.byte		N02
	.byte	W12
	.byte		N02
	.byte	W12
	.byte	PEND
	.byte		N02
	.byte	W12
	.byte		N02
	.byte	W06
	.byte		        An3 , v060
	.byte	W06
	.byte		        An3 , v092
	.byte	W12
	.byte		N02
	.byte	W12
	.byte		N24   , En2 , v040
	.byte	W24
	.byte	PATT
	 .word	seq_020_10 + 0xB
	.byte		N08   , Ds2 , v072
	.byte	W48
	.byte		N08
	.byte	W12
	.byte		N12   , En2 , v040
	.byte	W12
	.byte		N02   , An3 , v092
	.byte	W12
	.byte		N02
	.byte	W06
	.byte		        An3 , v060
	.byte	W06
	.byte		        An3 , v092
	.byte	W06
	.byte		        An3 , v012
	.byte	W06
	.byte		        An3 , v092
	.byte	W12
	.byte		N02
	.byte	W12
	.byte		N02
	.byte	W06
	.byte		        An3 , v016
	.byte	W06
	.byte	PEND
	.byte		N02   , An3 , v092
	.byte	W12
	.byte		N02
	.byte	W06
	.byte		        An3 , v060
	.byte	W06
	.byte		        An3 , v092
	.byte	W06
	.byte		        An3 , v012
	.byte	W06
	.byte		        An3 , v092
	.byte	W12
	.byte		N24   , En2 , v040
	.byte	W24
	.byte	PEND
	.byte	PATT
	 .word	seq_020_10 + 0x3D
	.byte	PATT
	 .word	seq_020_10 + 0x57
	.byte	PATT
	 .word	seq_020_10 + 0x3D
	.byte	PATT
	 .word	seq_020_10 + 0x57
	.byte	PATT
	 .word	seq_020_10 + 0x3D
	.byte	PATT
	 .word	seq_020_10 + 0x57
	.byte	PATT
	 .word	seq_020_10 + 0x3D
	.byte	PATT
	 .word	seq_020_10 + 0x57
	.byte	PATT
	 .word	seq_020_10 + 0x3D
	.byte	PATT
	 .word	seq_020_10 + 0x57
	.byte	PATT
	 .word	seq_020_10 + 0x3D
	.byte	PATT
	 .word	seq_020_10 + 0x57
	.byte	PATT
	 .word	seq_020_10 + 0x3D
	.byte	PATT
	 .word	seq_020_10 + 0x57
	.byte	PATT
	 .word	seq_020_10 + 0x3D
	.byte	PATT
	 .word	seq_020_10 + 0x57
	.byte	PATT
	 .word	seq_020_10 + 0x3D
	.byte	PATT
	 .word	seq_020_10 + 0x57
	.byte	PATT
	 .word	seq_020_10 + 0x3D
	.byte	PATT
	 .word	seq_020_10 + 0x57
	.byte	PATT
	 .word	seq_020_10 + 0x3D
	.byte	PATT
	 .word	seq_020_10 + 0x57
	.byte	PATT
	 .word	seq_020_10 + 0x3D
	.byte	PATT
	 .word	seq_020_10 + 0x57
	.byte	PATT
	 .word	seq_020_10 + 0x3D
	.byte	PATT
	 .word	seq_020_10 + 0x57
	.byte	PATT
	 .word	seq_020_10 + 0x3D
	.byte	PATT
	 .word	seq_020_10 + 0x57
	.byte	PATT
	 .word	seq_020_10 + 0x3D
	.byte	PATT
	 .word	seq_020_10 + 0x57
	.byte	PATT
	 .word	seq_020_10 + 0x3D
	.byte	PATT
	 .word	seq_020_10 + 0x57
	.byte	PATT
	 .word	seq_020_10 + 0x3D
	.byte	PATT
	 .word	seq_020_10 + 0x57
	.byte	PATT
	 .word	seq_020_10 + 0x3D
	.byte	PATT
	 .word	seq_020_10 + 0x57
	.byte	PATT
	 .word	seq_020_10 + 0x3D
	.byte	PATT
	 .word	seq_020_10 + 0x57
	.byte	GOTO
	 .word	seq_020_10 + 0x8C
	.byte	FINE

@*********************** Track 12 ***********************@

seq_020_11:
	.byte	KEYSH , seq_020_key+0
	.byte	W19
	.byte		VOICE , 127
	.byte		VOL   , 85*seq_020_mvl/mxv
	.byte		PAN   , c_v+0
	.byte	W05
	.byte	W24
	.byte		N06   , Fs2 , v120
	.byte	W48
	.byte		        Fs2 , v100
	.byte	W24
	.byte	PEND
	.byte		N12   , An4 , v080
	.byte	W48
	.byte		N05   , Gn1 , v092
	.byte	W24
	.byte	PEND
	.byte	PATT
	 .word	seq_020_11 + 0xB
	.byte	PATT
	 .word	seq_020_11 + 0x13
	.byte		N06   , Fs2 , v120
	.byte	W12
	.byte		N05   , Ds3 , v080
	.byte	W06
	.byte		        Dn3 , v120
	.byte	W06
	.byte		        Cs3 , v100
	.byte	W12
	.byte		N06   , Fs2 
	.byte	W12
	.byte		N05   , Cs3 
	.byte	W12
	.byte		N06   , Fs2 
	.byte	W06
	.byte		N05   , Dn3 , v120
	.byte	W06
	.byte	PEND
	.byte		N12   , An4 , v080
	.byte	W12
	.byte		N05   , Ds3 
	.byte	W06
	.byte		        Dn3 , v120
	.byte	W06
	.byte		        Cs3 , v100
	.byte	W12
	.byte		        En3 , v080
	.byte	W12
	.byte		        Gn1 , v092
	.byte	W12
	.byte		        Ds3 , v080
	.byte	W12
	.byte	PEND
	.byte	PATT
	 .word	seq_020_11 + 0x26
	.byte	PATT
	 .word	seq_020_11 + 0x42
	.byte	PATT
	 .word	seq_020_11 + 0x26
	.byte	PATT
	 .word	seq_020_11 + 0x42
	.byte	PATT
	 .word	seq_020_11 + 0x26
	.byte	PATT
	 .word	seq_020_11 + 0x42
	.byte	PATT
	 .word	seq_020_11 + 0x26
	.byte	PATT
	 .word	seq_020_11 + 0x42
	.byte	PATT
	 .word	seq_020_11 + 0x26
	.byte	PATT
	 .word	seq_020_11 + 0x42
	.byte	PATT
	 .word	seq_020_11 + 0x26
	.byte	PATT
	 .word	seq_020_11 + 0x42
	.byte	PATT
	 .word	seq_020_11 + 0x26
	.byte	PATT
	 .word	seq_020_11 + 0x42
	.byte	PATT
	 .word	seq_020_11 + 0x26
	.byte	PATT
	 .word	seq_020_11 + 0x42
	.byte	PATT
	 .word	seq_020_11 + 0x26
	.byte	PATT
	 .word	seq_020_11 + 0x42
	.byte	PATT
	 .word	seq_020_11 + 0x26
	.byte	PATT
	 .word	seq_020_11 + 0x42
	.byte	PATT
	 .word	seq_020_11 + 0x26
	.byte	PATT
	 .word	seq_020_11 + 0x42
	.byte	PATT
	 .word	seq_020_11 + 0x26
	.byte	PATT
	 .word	seq_020_11 + 0x42
	.byte	PATT
	 .word	seq_020_11 + 0x26
	.byte	PATT
	 .word	seq_020_11 + 0x42
	.byte	PATT
	 .word	seq_020_11 + 0x26
	.byte	PATT
	 .word	seq_020_11 + 0x42
	.byte	PATT
	 .word	seq_020_11 + 0x26
	.byte		N12   , Gn1 , v080
	.byte	W12
	.byte		N05   , Ds3 
	.byte	W06
	.byte		        Dn3 , v120
	.byte	W06
	.byte		N12   , Gn1 , v080
	.byte	W12
	.byte		N05   , En3 
	.byte	W12
	.byte		N12   , Gn1 
	.byte	W12
	.byte		N05   , Ds3 
	.byte	W12
	.byte	PATT
	 .word	seq_020_11 + 0x26
	.byte	PATT
	 .word	seq_020_11 + 0x42
	.byte	PATT
	 .word	seq_020_11 + 0x26
	.byte	PATT
	 .word	seq_020_11 + 0x42
	.byte	PATT
	 .word	seq_020_11 + 0x26
	.byte	PATT
	 .word	seq_020_11 + 0x42
	.byte	PATT
	 .word	seq_020_11 + 0x26
	.byte	PATT
	 .word	seq_020_11 + 0x42
	.byte	GOTO
	 .word	seq_020_11 + 0x77
	.byte	FINE

@******************************************************@

	.align	2

seq_020:
	.byte	12	@ NumTrks
	.byte	0	@ NumBlks
	.byte	seq_020_pri	@ Priority
	.byte	seq_020_rev	@ Reverb

	.word	seq_020_grp

	.word	seq_020_0
	.word	seq_020_1
	.word	seq_020_2
	.word	seq_020_3
	.word	seq_020_4
	.word	seq_020_5
	.word	seq_020_6
	.word	seq_020_7
	.word	seq_020_8
	.word	seq_020_9
	.word	seq_020_10
	.word	seq_020_11

	.end
