@ File generated by m4a2s Song-Module
	.include "MPlayDef.s"

	.equ	seq_200_grp, bank_025
	.equ	seq_200_pri, 50
	.equ	seq_200_rev, 178
	.equ	seq_200_mvl, 127
	.equ	seq_200_key, 0

	.section .rodata
	.global	seq_200
	.align	2

@*********************** Track 01 ***********************@

seq_200_0:
	.byte	KEYSH , seq_200_key+0
	.byte	TEMPO , 128/2
	.byte		VOICE , 7
	.byte	W01
	.byte		VOL   , 94*seq_200_mvl/mxv
	.byte	W01
	.byte		PAN   , c_v+0
	.byte	W01
	.byte		MODT  , mod_tre
	.byte	W03
	.byte		MOD   , 70
	.byte	W06
	.byte		N04   , En3 , v112
	.byte	W08
	.byte		        An3 
	.byte	W08
	.byte		        Cs4 
	.byte	W08
	.byte		        Dn4 
	.byte	W08
	.byte		        Cs4 
	.byte	W08
	.byte		        An3 
	.byte	W08
	.byte		N32   , En4 , v092
	.byte	W32
	.byte	FINE

@*********************** Track 02 ***********************@

seq_200_1:
	.byte	KEYSH , seq_200_key+0
	.byte		VOICE , 7
	.byte	W01
	.byte		VOL   , 86*seq_200_mvl/mxv
	.byte	W01
	.byte		PAN   , c_v+0
	.byte	W01
	.byte		MODT  , mod_pan
	.byte	W03
	.byte		MOD   , 50
	.byte	W06
	.byte		N04   , En2 , v112
	.byte	W08
	.byte		        An2 
	.byte	W08
	.byte		        Cs3 
	.byte	W08
	.byte		        Dn3 
	.byte	W08
	.byte		        Cs3 
	.byte	W08
	.byte		        An2 
	.byte	W08
	.byte		N32   , En3 , v092
	.byte	W32
	.byte	FINE

@*********************** Track 03 ***********************@

seq_200_2:
	.byte	KEYSH , seq_200_key+0
	.byte		VOICE , 120
	.byte	W01
	.byte		VOL   , 98*seq_200_mvl/mxv
	.byte	W01
	.byte		PAN   , c_v+0
	.byte	W10
	.byte		N08   , An1 , v120
	.byte	W08
	.byte		        An1 , v060
	.byte	W08
	.byte		        An1 , v096
	.byte	W08
	.byte		        En2 , v120
	.byte	W08
	.byte		        En2 , v060
	.byte	W08
	.byte		        En2 , v100
	.byte	W08
	.byte		        An1 , v120
	.byte	W08
	.byte		N04   , An1 , v080
	.byte	W04
	.byte		        An1 , v056
	.byte	W04
	.byte		        An1 , v072
	.byte	W04
	.byte		        An1 , v100
	.byte	W04
	.byte		N12   , An1 , v120
	.byte	W12
	.byte	FINE

@*********************** Track 04 ***********************@

seq_200_3:
	.byte	KEYSH , seq_200_key+0
	.byte	W06
	.byte		VOICE , 77
	.byte	W01
	.byte		VOL   , 55*seq_200_mvl/mxv
	.byte	W01
	.byte		PAN   , c_v-63
	.byte	W04
	.byte		N08   , Cs3 , v112
	.byte	W16
	.byte		N03
	.byte	W03
	.byte		        Cs3 , v004
	.byte	W05
	.byte		N08   , Gn3 , v112
	.byte	W08
	.byte		        An3 
	.byte	W08
	.byte		N03   , Gn3 
	.byte	W03
	.byte		        Gn3 , v004
	.byte	W05
	.byte		N24   , An3 , v112
	.byte	W24
	.byte		N03   , Gn3 , v080
	.byte	W01
	.byte		        Fn3 , v076
	.byte	W01
	.byte		        En3 
	.byte	W01
	.byte		        Dn3 , v072
	.byte	W01
	.byte		        Cn3 , v068
	.byte	W01
	.byte		        Bn2 , v064
	.byte	W01
	.byte		        An2 , v060
	.byte	W03
	.byte	FINE

@*********************** Track 05 ***********************@

seq_200_4:
	.byte	KEYSH , seq_200_key+0
	.byte	W06
	.byte		VOICE , 78
	.byte	W01
	.byte		VOL   , 70*seq_200_mvl/mxv
	.byte	W01
	.byte		PAN   , c_v+63
	.byte	W04
	.byte		N08   , An2 , v112
	.byte	W08
	.byte		N03
	.byte	W08
	.byte		N03
	.byte	W08
	.byte		N08   , Bn2 
	.byte	W08
	.byte		N03   , Cs3 
	.byte	W08
	.byte		        Dn3 
	.byte	W08
	.byte		N24   , Cs3 
	.byte	W24
	.byte	FINE

@*********************** Track 06 ***********************@

seq_200_5:
	.byte	KEYSH , seq_200_key+0
	.byte	W06
	.byte		VOICE , 93
	.byte	W01
	.byte		VOL   , 78*seq_200_mvl/mxv
	.byte	W01
	.byte		PAN   , c_v+0
	.byte	W04
	.byte		N08   , An1 , v112
	.byte	W16
	.byte		        An1 , v072
	.byte	W08
	.byte		        En2 , v112
	.byte	W08
	.byte		        An2 , v080
	.byte	W08
	.byte		        Gn2 , v072
	.byte	W08
	.byte		N24   , An2 , v112
	.byte	W24
	.byte		N08   , An1 , v080
	.byte	W08
	.byte	FINE

@******************************************************@

	.align	2

seq_200:
	.byte	6	@ NumTrks
	.byte	0	@ NumBlks
	.byte	seq_200_pri	@ Priority
	.byte	seq_200_rev	@ Reverb

	.word	seq_200_grp

	.word	seq_200_0
	.word	seq_200_1
	.word	seq_200_2
	.word	seq_200_3
	.word	seq_200_4
	.word	seq_200_5

	.end
