@ File generated by m4a2s Song-Module
	.include "MPlayDef.s"

	.equ	seq_126_grp, bank_014
	.equ	seq_126_pri, 50
	.equ	seq_126_rev, 198
	.equ	seq_126_mvl, 127
	.equ	seq_126_key, 0

	.section .rodata
	.global	seq_126
	.align	2

@*********************** Track 01 ***********************@

seq_126_0:
	.byte	KEYSH , seq_126_key+0
	.byte	TEMPO , 82/2
	.byte		VOICE , 127
	.byte	W01
	.byte		VOL   , 28*seq_126_mvl/mxv
	.byte	W01
	.byte		PAN   , c_v-24
	.byte	W22
	.byte		N02   , Gs7 , v120
	.byte	W48
	.byte		N02
	.byte	W24
	.byte	PEND
	.byte	W24
	.byte		N02
	.byte	W48
	.byte	PATT
	 .word	seq_126_0 + 0xD
	.byte	W24
	.byte		N02   , Gs7 , v120
	.byte	W48
	.byte	PATT
	 .word	seq_126_0 + 0xD
	.byte	W24
	.byte		N02   , Gs7 , v120
	.byte	W48
	.byte	PATT
	 .word	seq_126_0 + 0xD
	.byte	W24
	.byte		N02   , Gs7 , v120
	.byte	W48
	.byte	PATT
	 .word	seq_126_0 + 0xD
	.byte	W24
	.byte		N02   , Gs7 , v120
	.byte	W48
	.byte	PATT
	 .word	seq_126_0 + 0xD
	.byte	W24
	.byte		N02   , Gs7 , v120
	.byte	W48
	.byte	PATT
	 .word	seq_126_0 + 0xD
	.byte	W24
	.byte		N02   , Gs7 , v120
	.byte	W48
	.byte	PATT
	 .word	seq_126_0 + 0xD
	.byte	W24
	.byte		N02   , Gs7 , v120
	.byte	W48
	.byte	PATT
	 .word	seq_126_0 + 0xD
	.byte	W24
	.byte		N02   , Gs7 , v120
	.byte	W48
	.byte	PATT
	 .word	seq_126_0 + 0xD
	.byte	W24
	.byte		N02   , Gs7 , v120
	.byte	W48
	.byte	PATT
	 .word	seq_126_0 + 0xD
	.byte	W24
	.byte		N02   , Gs7 , v120
	.byte	W48
	.byte	PATT
	 .word	seq_126_0 + 0xD
	.byte	W24
	.byte		N02   , Gs7 , v120
	.byte	W48
	.byte	PATT
	 .word	seq_126_0 + 0xD
	.byte	W24
	.byte		N02   , Gs7 , v120
	.byte	W48
	.byte	PATT
	 .word	seq_126_0 + 0xD
	.byte	W24
	.byte		N02   , Gs7 , v120
	.byte	W48
	.byte		N02   , Gs7 , v120
	.byte	W48
	.byte		N02
	.byte	W48
	.byte	PEND
	.byte	PATT
	 .word	seq_126_0 + 0x99
	.byte	PATT
	 .word	seq_126_0 + 0x99
	.byte	PATT
	 .word	seq_126_0 + 0x99
	.byte	PATT
	 .word	seq_126_0 + 0x99
	.byte	PATT
	 .word	seq_126_0 + 0x99
	.byte	PATT
	 .word	seq_126_0 + 0x99
	.byte		N02   , Gs7 , v120
	.byte	W48
	.byte	TEMPO , 80/2
	.byte		N02
	.byte	W48
	.byte	TEMPO , 82/2
	.byte		N02
	.byte	W48
	.byte		N02
	.byte	W24
	.byte	W24
	.byte		N02
	.byte	W48
	.byte	PATT
	 .word	seq_126_0 + 0xD
	.byte	W24
	.byte		N02   , Gs7 , v120
	.byte	W48
	.byte	GOTO
	 .word	seq_126_0 + 0xD
	.byte	FINE

@*********************** Track 02 ***********************@

seq_126_1:
	.byte	KEYSH , seq_126_key+0
	.byte	W12
	.byte		VOICE , 115
	.byte	W01
	.byte		VOL   , 56*seq_126_mvl/mxv
	.byte	W01
	.byte		PAN   , c_v+0
	.byte	W01
	.byte		LFOS  , 5
	.byte	W01
	.byte		MODT  , mod_pan
	.byte	W01
	.byte		BENDR , 12
	.byte	W07
	.byte	W72
	.byte	W72
	.byte	W72
	.byte	W72
	.byte		N18   , Gn1 , v120
	.byte	W18
	.byte		        Gn1 , v040
	.byte	W54
	.byte	PEND
	.byte	W72
	.byte	W72
	.byte	W72
	.byte	W72
	.byte	W72
	.byte	W72
	.byte		N06   , Cn0 , v120
	.byte	W06
	.byte		N01   , AsM1
	.byte	W06
	.byte		N05   , FsM1
	.byte	W06
	.byte		N01   , AsM1
	.byte	W06
	.byte		N06   , Fn0 
	.byte	W06
	.byte		N03   , Fn0 , v040
	.byte	W03
	.byte		        Fn0 , v020
	.byte	W03
	.byte		N02   , Cn0 , v120
	.byte	W06
	.byte		N01   , Dn0 
	.byte	W02
	.byte		N01
	.byte	W02
	.byte		N01
	.byte	W02
	.byte		N04   , En0 
	.byte	W06
	.byte		N02   , Gn0 
	.byte	W03
	.byte		        Gn0 , v040
	.byte	W03
	.byte		        En0 , v120
	.byte	W03
	.byte		        En0 , v040
	.byte	W03
	.byte		N01   , Dn0 , v120
	.byte	W02
	.byte		N01
	.byte	W02
	.byte		N01
	.byte	W01
	.byte		VOL   , 42*seq_126_mvl/mxv
	.byte	W01
	.byte		N06   , Cn0 , v120
	.byte	W06
	.byte		N01   , AsM1
	.byte	W06
	.byte		N06   , Cn0 
	.byte	W06
	.byte		N01   , AsM1
	.byte	W06
	.byte		N06   , Cn1 
	.byte	W03
	.byte		BEND  , c_v-28
	.byte	W01
	.byte		        c_v-43
	.byte	W02
	.byte		N01   , En0 
	.byte	W01
	.byte		BEND  , c_v+0
	.byte	W01
	.byte		N01
	.byte	W02
	.byte		N01
	.byte	W02
	.byte		N06   , Gn0 
	.byte	W06
	.byte		N02   , As0 
	.byte	W06
	.byte		N03   , Cn1 
	.byte	W01
	.byte		BEND  , c_v-23
	.byte	W01
	.byte		        c_v-45
	.byte	W01
	.byte		N02   , Cn1 , v040
	.byte	W01
	.byte		BEND  , c_v-61
	.byte	W01
	.byte		        c_v+0
	.byte	W01
	.byte		N05   , As0 , v120
	.byte	W06
	.byte		        Cn0 
	.byte	W06
	.byte		N01   , Dn0 
	.byte	W02
	.byte		N01
	.byte	W02
	.byte		N01
	.byte	W02
	.byte	PEND
	.byte		N06   , Cn0 , v120
	.byte	W06
	.byte		N01   , AsM1
	.byte	W06
	.byte		N05   , FsM1
	.byte	W06
	.byte		N02   , Dn0 
	.byte	W03
	.byte		        Dn0 , v040
	.byte	W03
	.byte		N04   , Cn0 , v120
	.byte	W06
	.byte		N03   , As0 
	.byte	W06
	.byte		N02   , Cn0 
	.byte	W06
	.byte		N01   , Dn0 
	.byte	W02
	.byte		N01
	.byte	W02
	.byte		N01
	.byte	W02
	.byte		N04   , Cs1 
	.byte	W04
	.byte		N02   , Cs1 , v080
	.byte	W02
	.byte		N03   , Gn0 , v120
	.byte	W06
	.byte		        En0 
	.byte	W06
	.byte		N01   , Dn0 
	.byte	W02
	.byte		N01
	.byte	W02
	.byte		N01
	.byte	W02
	.byte	PEND
	.byte	PATT
	 .word	seq_126_1 + 0x63
	.byte	PATT
	 .word	seq_126_1 + 0xA7
	.byte	PATT
	 .word	seq_126_1 + 0x63
	.byte	PATT
	 .word	seq_126_1 + 0xA7
	.byte	PATT
	 .word	seq_126_1 + 0x63
	.byte		N06   , Cn0 , v120
	.byte	W06
	.byte		N01   , AsM1
	.byte	W06
	.byte		N05   , FsM1
	.byte	W06
	.byte		N02   , Dn0 
	.byte	W03
	.byte		        Dn0 , v040
	.byte	W03
	.byte		N04   , Cn0 , v120
	.byte	W06
	.byte		N03   , As0 
	.byte	W06
	.byte		N02   , Cn0 
	.byte	W06
	.byte		N01   , Dn0 
	.byte	W02
	.byte		N01
	.byte	W02
	.byte		N01
	.byte	W02
	.byte		N04   , Cs1 
	.byte	W04
	.byte		N02   , Cs1 , v080
	.byte	W02
	.byte		N03   , Gn0 , v120
	.byte	W06
	.byte		        En0 
	.byte	W06
	.byte		N01   , Dn0 
	.byte	W02
	.byte		N01
	.byte	W02
	.byte		N01
	.byte	W01
	.byte		VOL   , 56*seq_126_mvl/mxv
	.byte	W01
	.byte	PATT
	 .word	seq_126_1 + 0x19
	.byte	W72
	.byte	W72
	.byte	W72
	.byte	W72
	.byte	W72
	.byte	W68
	.byte	W03
	.byte		VOL   , 49*seq_126_mvl/mxv
	.byte	W01
	.byte		N06   , Cn0 , v120
	.byte	W06
	.byte		N01   , AsM1
	.byte	W06
	.byte		N06   , Cn0 
	.byte	W06
	.byte		N01   , AsM1
	.byte	W06
	.byte		N06   , Cn1 
	.byte	W03
	.byte		BEND  , c_v-28
	.byte	W01
	.byte		        c_v-43
	.byte	W02
	.byte		N01   , En0 
	.byte	W01
	.byte		BEND  , c_v+0
	.byte	W01
	.byte		N01
	.byte	W02
	.byte		N01
	.byte	W02
	.byte		N06   , Gn0 
	.byte	W06
	.byte		N02   , As0 
	.byte	W06
	.byte		N03   , Cn1 
	.byte	W01
	.byte		BEND  , c_v-23
	.byte	W01
	.byte		        c_v-45
	.byte	W01
	.byte		N02   , Cn1 , v040
	.byte	W01
	.byte		BEND  , c_v-61
	.byte	W01
	.byte		        c_v+0
	.byte	W01
	.byte		N05   , As0 , v120
	.byte	W06
	.byte		        Cn0 
	.byte	W06
	.byte		N01   , Dn0 
	.byte	W02
	.byte		N01
	.byte	W02
	.byte		N01
	.byte	W01
	.byte		VOL   , 56*seq_126_mvl/mxv
	.byte	W01
	.byte		N18   , Gn1 , v120
	.byte	W18
	.byte		        Gn1 , v040
	.byte	W17
	.byte		VOL   , 42*seq_126_mvl/mxv
	.byte	W01
	.byte		N02   , Cn0 , v120
	.byte	W06
	.byte		N01   , Dn0 
	.byte	W02
	.byte		N01
	.byte	W02
	.byte		N01
	.byte	W02
	.byte		N04   , Cs1 
	.byte	W04
	.byte		N02   , Cs1 , v080
	.byte	W02
	.byte		N03   , Gn0 , v120
	.byte	W06
	.byte		        En0 
	.byte	W06
	.byte		N01   , Dn0 
	.byte	W02
	.byte		N01
	.byte	W02
	.byte		N01
	.byte	W02
	.byte		N04   , Cn0 
	.byte	W06
	.byte		N02   , Fn0 
	.byte	W06
	.byte		        Cn0 
	.byte	W06
	.byte		N01   , Dn0 
	.byte	W02
	.byte		N01
	.byte	W02
	.byte		N01
	.byte	W02
	.byte	PEND
	.byte		N06   , Cn0 , v120
	.byte	W06
	.byte		N01   , AsM1
	.byte	W06
	.byte		N06   , Cn0 
	.byte	W06
	.byte		N01   , AsM1
	.byte	W06
	.byte		N06   , Cn1 
	.byte	W03
	.byte		BEND  , c_v-28
	.byte	W01
	.byte		        c_v-43
	.byte	W02
	.byte		N01   , En0 
	.byte	W01
	.byte		BEND  , c_v+0
	.byte	W01
	.byte		N01
	.byte	W02
	.byte		N01
	.byte	W02
	.byte		N06   , Gn0 
	.byte	W06
	.byte		N02   , As0 
	.byte	W06
	.byte		N03   , Cn1 
	.byte	W01
	.byte		BEND  , c_v-23
	.byte	W01
	.byte		        c_v-45
	.byte	W01
	.byte		N02   , Cn1 , v040
	.byte	W01
	.byte		BEND  , c_v-61
	.byte	W01
	.byte		        c_v+0
	.byte	W01
	.byte		N05   , As0 , v120
	.byte	W06
	.byte		        Cn0 
	.byte	W06
	.byte		N01   , Dn0 
	.byte	W02
	.byte		N01
	.byte	W02
	.byte		N01
	.byte	W02
	.byte		N06   , Cn0 
	.byte	W06
	.byte		N01   , AsM1
	.byte	W06
	.byte		N05   , FsM1
	.byte	W06
	.byte		N02   , Dn0 
	.byte	W03
	.byte		        Dn0 , v040
	.byte	W03
	.byte	PEND
	.byte	PATT
	 .word	seq_126_1 + 0x1BC
	.byte		N06   , Cn0 , v120
	.byte	W06
	.byte		N01   , AsM1
	.byte	W06
	.byte		N06   , Cn0 
	.byte	W06
	.byte		N01   , AsM1
	.byte	W06
	.byte		N06   , Cn1 
	.byte	W03
	.byte		BEND  , c_v-28
	.byte	W01
	.byte		        c_v-43
	.byte	W02
	.byte		N01   , En0 
	.byte	W01
	.byte		BEND  , c_v+0
	.byte	W01
	.byte		N01
	.byte	W02
	.byte		N01
	.byte	W02
	.byte		N06   , Gn0 
	.byte	W06
	.byte		N02   , As0 
	.byte	W06
	.byte		N03   , Cn1 
	.byte	W01
	.byte		BEND  , c_v-23
	.byte	W01
	.byte		        c_v-45
	.byte	W01
	.byte		N02   , Cn1 , v040
	.byte	W01
	.byte		BEND  , c_v-61
	.byte	W01
	.byte		        c_v+0
	.byte	W01
	.byte		N05   , As0 , v120
	.byte	W06
	.byte		        Cn0 
	.byte	W06
	.byte		N01   , Dn0 
	.byte	W02
	.byte		N01
	.byte	W02
	.byte		N01
	.byte	W02
	.byte		N06   , Cn0 
	.byte	W06
	.byte		N01   , AsM1
	.byte	W06
	.byte		N05   , FsM1
	.byte	W06
	.byte		N02   , Dn0 
	.byte	W03
	.byte		        Dn0 , v040
	.byte	W02
	.byte		VOL   , 56*seq_126_mvl/mxv
	.byte	W01
	.byte	PATT
	 .word	seq_126_1 + 0x183
	.byte	PATT
	 .word	seq_126_1 + 0x1BC
	.byte	PATT
	 .word	seq_126_1 + 0x1BC
	.byte		N06   , Cn0 , v120
	.byte	W06
	.byte		N01   , AsM1
	.byte	W06
	.byte		N06   , Cn0 
	.byte	W06
	.byte		N01   , AsM1
	.byte	W06
	.byte		N06   , Cn1 
	.byte	W03
	.byte		BEND  , c_v-28
	.byte	W01
	.byte		        c_v-43
	.byte	W02
	.byte		N01   , En0 
	.byte	W01
	.byte		BEND  , c_v+0
	.byte	W01
	.byte		N01
	.byte	W02
	.byte		N01
	.byte	W02
	.byte		N06   , Gn0 
	.byte	W06
	.byte		N02   , As0 
	.byte	W06
	.byte		N03   , Cn1 
	.byte	W01
	.byte		BEND  , c_v-23
	.byte	W01
	.byte		        c_v-45
	.byte	W01
	.byte		N02   , Cn1 , v040
	.byte	W01
	.byte		BEND  , c_v-61
	.byte	W01
	.byte		        c_v+0
	.byte	W01
	.byte		N05   , As0 , v120
	.byte	W06
	.byte		        Cn0 
	.byte	W06
	.byte		N01   , Dn0 
	.byte	W02
	.byte		N01
	.byte	W02
	.byte		N01
	.byte	W01
	.byte		VOL   , 56*seq_126_mvl/mxv
	.byte	W01
	.byte		N18   , Gn1 
	.byte	W18
	.byte		N06   , Gn1 , v040
	.byte	W06
	.byte	PATT
	 .word	seq_126_1 + 0x19
	.byte	W23
	.byte		VOL   , 42*seq_126_mvl/mxv
	.byte	W48
	.byte	W01
	.byte	W72
	.byte	W72
	.byte	GOTO
	 .word	seq_126_1 + 0x15
	.byte	FINE

@*********************** Track 03 ***********************@

seq_126_2:
	.byte	KEYSH , seq_126_key+0
	.byte	W12
	.byte		VOICE , 22
	.byte	W01
	.byte		VOL   , 28*seq_126_mvl/mxv
	.byte	W01
	.byte		PAN   , c_v+0
	.byte	W01
	.byte		LFOS  , 40
	.byte	W01
	.byte		MODT  , mod_tre
	.byte	W01
	.byte		LFODL , 0
	.byte	W07
	.byte	W72
	.byte	W72
	.byte	W72
	.byte	W68
	.byte	W03
	.byte		MOD   , 80
	.byte	W01
	.byte		N36   , An3 , v080
	.byte		N36   , Dn4 , v120
	.byte	W02
	.byte		VOL   , 35*seq_126_mvl/mxv
	.byte	W03
	.byte		        42*seq_126_mvl/mxv
	.byte	W04
	.byte		        49*seq_126_mvl/mxv
	.byte	W03
	.byte		        56*seq_126_mvl/mxv
	.byte	W03
	.byte		        63*seq_126_mvl/mxv
	.byte	W21
	.byte		N24   , Dn4 , v080
	.byte		N24   , Gn4 , v100
	.byte	W24
	.byte		N12   , Gn4 , v080
	.byte		N12   , Cn5 
	.byte	W12
	.byte		N24   , Cn4 
	.byte		N24   , Fn4 , v100
	.byte	W24
	.byte		N48   , Fn4 , v080
	.byte		N48   , As4 
	.byte	W21
	.byte		VOL   , 56*seq_126_mvl/mxv
	.byte	W06
	.byte		        49*seq_126_mvl/mxv
	.byte	W05
	.byte		        42*seq_126_mvl/mxv
	.byte	W06
	.byte		        35*seq_126_mvl/mxv
	.byte	W06
	.byte		        28*seq_126_mvl/mxv
	.byte	W04
	.byte		N36   , An3 
	.byte		N36   , Dn4 , v120
	.byte	W02
	.byte		VOL   , 35*seq_126_mvl/mxv
	.byte	W03
	.byte		        42*seq_126_mvl/mxv
	.byte	W04
	.byte		        49*seq_126_mvl/mxv
	.byte	W03
	.byte		        56*seq_126_mvl/mxv
	.byte	W03
	.byte		        63*seq_126_mvl/mxv
	.byte	W21
	.byte		N24   , Dn3 , v080
	.byte		N24   , Gn3 , v120
	.byte	W24
	.byte		N12   , Gn3 , v080
	.byte		N12   , Cn4 , v120
	.byte	W12
	.byte		N24   , Cn3 , v080
	.byte		N24   , Fn3 , v120
	.byte	W24
	.byte		N48   , Fn3 , v080
	.byte		N48   , As3 , v120
	.byte	W23
	.byte		VOL   , 56*seq_126_mvl/mxv
	.byte	W08
	.byte		        49*seq_126_mvl/mxv
	.byte	W07
	.byte		        42*seq_126_mvl/mxv
	.byte	W06
	.byte		        35*seq_126_mvl/mxv
	.byte	W03
	.byte		        28*seq_126_mvl/mxv
	.byte	W01
	.byte		N36   , An3 , v080
	.byte		N36   , Dn4 , v120
	.byte	W04
	.byte		VOL   , 35*seq_126_mvl/mxv
	.byte	W10
	.byte		        42*seq_126_mvl/mxv
	.byte	W09
	.byte		        49*seq_126_mvl/mxv
	.byte	W10
	.byte		        56*seq_126_mvl/mxv
	.byte	W03
	.byte		N24   , Dn4 , v080
	.byte		N24   , Gn4 , v100
	.byte	W24
	.byte		N12   , Gn4 , v080
	.byte		N12   , Cn5 
	.byte	W12
	.byte		N24   , Cn4 
	.byte		N24   , Fn4 , v120
	.byte	W24
	.byte		N48   , Fn4 , v080
	.byte		N48   , As4 
	.byte	W24
	.byte	W03
	.byte		VOL   , 49*seq_126_mvl/mxv
	.byte	W05
	.byte		        42*seq_126_mvl/mxv
	.byte	W06
	.byte		        35*seq_126_mvl/mxv
	.byte	W06
	.byte		        28*seq_126_mvl/mxv
	.byte	W04
	.byte		N36   , An3 
	.byte		N36   , Dn4 , v120
	.byte	W02
	.byte		VOL   , 35*seq_126_mvl/mxv
	.byte	W03
	.byte		        42*seq_126_mvl/mxv
	.byte	W04
	.byte		        49*seq_126_mvl/mxv
	.byte	W03
	.byte		        56*seq_126_mvl/mxv
	.byte	W03
	.byte		        63*seq_126_mvl/mxv
	.byte	W21
	.byte		N24   , Dn4 , v080
	.byte		N24   , Gn4 , v100
	.byte	W24
	.byte		N12   , Gn3 , v080
	.byte		N12   , Cn4 , v120
	.byte	W12
	.byte		N48   , Cn3 , v080
	.byte		N48   , Fn3 , v120
	.byte	W36
	.byte		VOL   , 56*seq_126_mvl/mxv
	.byte	W08
	.byte		        49*seq_126_mvl/mxv
	.byte	W04
	.byte		N24   , Fn3 , v080
	.byte		N24   , As3 , v120
	.byte	W04
	.byte		VOL   , 42*seq_126_mvl/mxv
	.byte	W09
	.byte		        35*seq_126_mvl/mxv
	.byte	W07
	.byte		        28*seq_126_mvl/mxv
	.byte	W04
	.byte	W72
	.byte	W72
	.byte	W72
	.byte	W72
	.byte	W72
	.byte	W72
	.byte	W72
	.byte	W68
	.byte	W03
	.byte		        21*seq_126_mvl/mxv
	.byte	W01
	.byte		N72   , Dn4 
	.byte	W05
	.byte		VOL   , 28*seq_126_mvl/mxv
	.byte	W06
	.byte		        35*seq_126_mvl/mxv
	.byte	W05
	.byte		        42*seq_126_mvl/mxv
	.byte	W08
	.byte		        49*seq_126_mvl/mxv
	.byte	W15
	.byte		        42*seq_126_mvl/mxv
	.byte	W15
	.byte		        35*seq_126_mvl/mxv
	.byte	W12
	.byte		        28*seq_126_mvl/mxv
	.byte	W05
	.byte		        21*seq_126_mvl/mxv
	.byte	W01
	.byte		N72   , An3 
	.byte		N72   , Cn4 
	.byte	W05
	.byte		VOL   , 28*seq_126_mvl/mxv
	.byte	W06
	.byte		        35*seq_126_mvl/mxv
	.byte	W05
	.byte		        42*seq_126_mvl/mxv
	.byte	W08
	.byte		        49*seq_126_mvl/mxv
	.byte	W15
	.byte		        42*seq_126_mvl/mxv
	.byte	W15
	.byte		        35*seq_126_mvl/mxv
	.byte	W12
	.byte		        28*seq_126_mvl/mxv
	.byte	W05
	.byte		        21*seq_126_mvl/mxv
	.byte	W01
	.byte		N72   , An3 
	.byte	W05
	.byte		VOL   , 28*seq_126_mvl/mxv
	.byte	W06
	.byte		        35*seq_126_mvl/mxv
	.byte	W05
	.byte		        42*seq_126_mvl/mxv
	.byte	W08
	.byte		        49*seq_126_mvl/mxv
	.byte	W15
	.byte		        42*seq_126_mvl/mxv
	.byte	W15
	.byte		        35*seq_126_mvl/mxv
	.byte	W12
	.byte		        28*seq_126_mvl/mxv
	.byte	W05
	.byte		        21*seq_126_mvl/mxv
	.byte	W01
	.byte		N72   , As3 
	.byte	W05
	.byte		VOL   , 28*seq_126_mvl/mxv
	.byte	W06
	.byte		        35*seq_126_mvl/mxv
	.byte	W05
	.byte		        42*seq_126_mvl/mxv
	.byte	W08
	.byte		        49*seq_126_mvl/mxv
	.byte	W15
	.byte		        42*seq_126_mvl/mxv
	.byte	W15
	.byte		        35*seq_126_mvl/mxv
	.byte	W12
	.byte		        28*seq_126_mvl/mxv
	.byte	W04
	.byte		MOD   , 60
	.byte	W01
	.byte		VOL   , 7*seq_126_mvl/mxv
	.byte	W01
	.byte		N68   , Cn5 
	.byte	W09
	.byte		VOL   , 14*seq_126_mvl/mxv
	.byte	W09
	.byte		        21*seq_126_mvl/mxv
	.byte	W10
	.byte		        28*seq_126_mvl/mxv
	.byte	W09
	.byte		        35*seq_126_mvl/mxv
	.byte	W20
	.byte		        28*seq_126_mvl/mxv
	.byte	W04
	.byte		        21*seq_126_mvl/mxv
	.byte	W04
	.byte		        14*seq_126_mvl/mxv
	.byte	W06
	.byte		        7*seq_126_mvl/mxv
	.byte	W01
	.byte		N68   , Gn4 
	.byte		N68   , As4 
	.byte	W09
	.byte		VOL   , 14*seq_126_mvl/mxv
	.byte	W09
	.byte		        21*seq_126_mvl/mxv
	.byte	W10
	.byte		        28*seq_126_mvl/mxv
	.byte	W09
	.byte		        35*seq_126_mvl/mxv
	.byte	W20
	.byte		        28*seq_126_mvl/mxv
	.byte	W04
	.byte		        21*seq_126_mvl/mxv
	.byte	W04
	.byte		        14*seq_126_mvl/mxv
	.byte	W03
	.byte		        7*seq_126_mvl/mxv
	.byte	W04
	.byte		TIE   , An4 
	.byte	W06
	.byte		VOL   , 14*seq_126_mvl/mxv
	.byte	W19
	.byte		        21*seq_126_mvl/mxv
	.byte	W19
	.byte		        28*seq_126_mvl/mxv
	.byte	W19
	.byte		        35*seq_126_mvl/mxv
	.byte	W08
	.byte		        28*seq_126_mvl/mxv
	.byte	W01
	.byte		BEND  , c_v-2
	.byte	W01
	.byte		        c_v-3
	.byte	W01
	.byte		        c_v-4
	.byte	W01
	.byte		        c_v-7
	.byte	W01
	.byte		        c_v-9
	.byte	W01
	.byte		        c_v-11
	.byte	W01
	.byte		        c_v-12
	.byte	W01
	.byte		VOL   , 21*seq_126_mvl/mxv
	.byte	W01
	.byte		BEND  , c_v-16
	.byte	W01
	.byte		        c_v-18
	.byte	W01
	.byte		        c_v-19
	.byte	W01
	.byte		        c_v-21
	.byte	W01
	.byte		        c_v-24
	.byte	W01
	.byte		        c_v-26
	.byte	W01
	.byte		        c_v-27
	.byte	W01
	.byte		VOL   , 14*seq_126_mvl/mxv
	.byte	W02
	.byte		BEND  , c_v-31
	.byte	W01
	.byte		        c_v-32
	.byte	W01
	.byte		        c_v-33
	.byte	W01
	.byte		        c_v-36
	.byte	W01
	.byte		VOL   , 7*seq_126_mvl/mxv
	.byte	W01
	.byte		BEND  , c_v-40
	.byte	W01
	.byte		        c_v-41
	.byte	W01
	.byte		        c_v-43
	.byte	W01
	.byte		        c_v-45
	.byte	W01
	.byte		        c_v-47
	.byte	W01
	.byte		        c_v-49
	.byte	W01
	.byte		        c_v-51
	.byte	W01
	.byte		        c_v-57
	.byte	W01
	.byte		        c_v-60
	.byte	W01
	.byte		        c_v-64
	.byte	W05
	.byte		EOT
	.byte	W36
	.byte	W09
	.byte		BEND  , c_v+0
	.byte	W01
	.byte		VOL   , 42*seq_126_mvl/mxv
	.byte	W01
	.byte		N12   , Cs4 , v080
	.byte		N12   , Fn4 , v120
	.byte	W12
	.byte		        Ds4 , v080
	.byte		N12   , Gn4 , v120
	.byte	W12
	.byte		        Fn4 , v080
	.byte		N12   , Gs4 , v120
	.byte	W12
	.byte		        Gn4 , v080
	.byte		N12   , As4 , v120
	.byte	W12
	.byte		        Gs4 , v080
	.byte		N12   , Cn5 , v120
	.byte	W12
	.byte		        As4 , v080
	.byte		N12   , Cs5 , v120
	.byte	W12
	.byte		        As4 , v080
	.byte		N12   , Dn5 , v120
	.byte	W12
	.byte		        As4 , v040
	.byte		N12   , Dn5 
	.byte	W01
	.byte	W11
	.byte		N12   , Cn5 , v080
	.byte		N12   , En5 , v120
	.byte	W12
	.byte		        Dn5 , v080
	.byte		N12   , Fs5 , v120
	.byte	W12
	.byte		        Fs5 , v080
	.byte		N12   , An5 , v100
	.byte	W12
	.byte		        En5 , v080
	.byte		N12   , Gs5 , v120
	.byte	W12
	.byte		        Bn4 , v080
	.byte		N12   , En5 , v100
	.byte	W12
	.byte		        Gs4 , v080
	.byte		N12   , Bn4 , v120
	.byte	W12
	.byte		N24   , Gn4 , v080
	.byte		N24   , As4 , v120
	.byte	W13
	.byte	PEND
	.byte	W11
	.byte		N18   , Gn4 , v040
	.byte		N18   , As4 
	.byte	W18
	.byte		N12   , Gn4 , v020
	.byte		N12   , As4 
	.byte	W30
	.byte		        Gn4 , v080
	.byte		N12   , Cn5 , v120
	.byte	W12
	.byte		        Fn4 , v080
	.byte		N12   , As4 , v120
	.byte	W12
	.byte		        En4 , v080
	.byte		N12   , An4 , v120
	.byte	W12
	.byte		        En4 , v040
	.byte		N12   , An4 
	.byte	W01
	.byte	PEND
	.byte	W11
	.byte		N12   , En4 , v020
	.byte		N12   , An4 
	.byte	W84
	.byte	W01
	.byte	PEND
	.byte	W11
	.byte		        Cs4 , v080
	.byte		N12   , Fn4 , v120
	.byte	W12
	.byte		        Ds4 , v080
	.byte		N12   , Gn4 , v120
	.byte	W12
	.byte		        Fn4 , v080
	.byte		N12   , Gs4 , v120
	.byte	W12
	.byte		        Gn4 , v080
	.byte		N12   , As4 , v120
	.byte	W12
	.byte		        Gs4 , v080
	.byte		N12   , Cn5 , v120
	.byte	W12
	.byte		        As4 , v080
	.byte		N12   , Cs5 , v120
	.byte	W12
	.byte		        As4 , v080
	.byte		N12   , Dn5 , v120
	.byte	W12
	.byte		        As4 , v040
	.byte		N12   , Dn5 
	.byte	W01
	.byte	PATT
	 .word	seq_126_2 + 0x20E
	.byte	PATT
	 .word	seq_126_2 + 0x23C
	.byte	PATT
	 .word	seq_126_2 + 0x261
	.byte	W72
	.byte	W72
	.byte	W72
	.byte	W64
	.byte	W01
	.byte		VOL   , 28*seq_126_mvl/mxv
	.byte	W07
	.byte	GOTO
	 .word	seq_126_2 + 0x15
	.byte	FINE

@*********************** Track 04 ***********************@

seq_126_3:
	.byte	KEYSH , seq_126_key+0
	.byte	W06
	.byte		VOICE , 28
	.byte	W01
	.byte		VOL   , 70*seq_126_mvl/mxv
	.byte	W01
	.byte		PAN   , c_v+0
	.byte	W01
	.byte		LFOS  , 2
	.byte	W01
	.byte		MODT  , mod_pan
	.byte	W01
	.byte		LFODL , 0
	.byte	W13
	.byte		N12   , Dn2 , v120
	.byte		N12   , Gn3 , v100
	.byte	W11
	.byte		MOD   , 40
	.byte	W01
	.byte		N12   , Dn2 , v060
	.byte		N12   , Gn3 
	.byte	W11
	.byte		MOD   , 60
	.byte	W01
	.byte		N12   , Dn2 , v040
	.byte		N12   , Gn3 
	.byte	W11
	.byte		MOD   , 80
	.byte	W01
	.byte		N12   , Dn2 , v020
	.byte		N12   , Gn3 
	.byte	W32
	.byte	W03
	.byte		MOD   , 0
	.byte	W01
	.byte	PEND
	.byte		N12   , Cn3 , v120
	.byte	W11
	.byte		MOD   , 40
	.byte	W01
	.byte		N12   , Cn3 , v060
	.byte	W11
	.byte		MOD   , 60
	.byte	W01
	.byte		N12   , Cn3 , v040
	.byte	W11
	.byte		MOD   , 80
	.byte	W01
	.byte		N12   , Cn3 , v020
	.byte	W32
	.byte	W03
	.byte		MOD   , 0
	.byte	W01
	.byte	PEND
	.byte		N12   , Fn2 , v120
	.byte	W11
	.byte		MOD   , 40
	.byte	W01
	.byte		N12   , Fn2 , v060
	.byte	W11
	.byte		MOD   , 60
	.byte	W01
	.byte		N12   , Fn2 , v040
	.byte	W11
	.byte		MOD   , 80
	.byte	W01
	.byte		N12   , Fn2 , v020
	.byte	W32
	.byte	W03
	.byte		MOD   , 0
	.byte	W01
	.byte	PEND
	.byte		N12   , As2 , v120
	.byte	W11
	.byte		MOD   , 40
	.byte	W01
	.byte		N12   , As2 , v080
	.byte	W11
	.byte		MOD   , 60
	.byte	W01
	.byte		N12   , As2 , v040
	.byte	W11
	.byte		MOD   , 80
	.byte	W01
	.byte		N12   , As2 , v020
	.byte	W36
	.byte	W32
	.byte	W03
	.byte		MOD   , 0
	.byte	W01
	.byte		N12   , Dn3 , v080
	.byte	W11
	.byte		MOD   , 40
	.byte	W01
	.byte		N12   , Dn3 , v040
	.byte	W11
	.byte		MOD   , 60
	.byte	W01
	.byte		N12   , Dn3 , v020
	.byte	W11
	.byte		MOD   , 80
	.byte	W01
	.byte	PEND
	.byte	W72
	.byte	PATT
	 .word	seq_126_3 + 0x91
	.byte	W68
	.byte	W03
	.byte		MOD   , 0
	.byte	W01
	.byte	PEND
	.byte		N12   , Gn3 , v120
	.byte	W11
	.byte		MOD   , 40
	.byte	W01
	.byte		N12   , Gn3 , v080
	.byte	W11
	.byte		MOD   , 60
	.byte	W01
	.byte		N12   , Gn3 , v040
	.byte	W11
	.byte		MOD   , 80
	.byte	W01
	.byte		N12   , Gn3 , v020
	.byte	W36
	.byte	PEND
	.byte	W72
	.byte	W32
	.byte	W03
	.byte		MOD   , 0
	.byte	W01
	.byte		N12   , Dn3 , v080
	.byte	W11
	.byte		MOD   , 40
	.byte	W01
	.byte		N12   , Dn3 , v040
	.byte	W11
	.byte		MOD   , 60
	.byte	W01
	.byte		N12   , Dn3 , v020
	.byte	W12
	.byte	PATT
	 .word	seq_126_3 + 0xB2
	.byte	PATT
	 .word	seq_126_3 + 0x15
	.byte	PATT
	 .word	seq_126_3 + 0x3C
	.byte	PATT
	 .word	seq_126_3 + 0x5A
	.byte		N12   , As2 , v120
	.byte	W11
	.byte		MOD   , 40
	.byte	W01
	.byte		N12   , As2 , v060
	.byte	W11
	.byte		MOD   , 60
	.byte	W01
	.byte		N12   , As2 , v040
	.byte	W11
	.byte		MOD   , 80
	.byte	W01
	.byte		N12   , As2 , v020
	.byte	W32
	.byte	W03
	.byte		MOD   , 0
	.byte	W01
	.byte	PEND
	.byte	PATT
	 .word	seq_126_3 + 0x15
	.byte	PATT
	 .word	seq_126_3 + 0x3C
	.byte	PATT
	 .word	seq_126_3 + 0x5A
	.byte	PATT
	 .word	seq_126_3 + 0xFE
	.byte	PATT
	 .word	seq_126_3 + 0xB8
	.byte	W72
	.byte	W72
	.byte	PATT
	 .word	seq_126_3 + 0xB2
	.byte	PATT
	 .word	seq_126_3 + 0xB8
	.byte	W72
	.byte	W72
	.byte	W48
	.byte		N12   , Gn2 , v120
	.byte	W12
	.byte		        Gn2 , v080
	.byte	W11
	.byte		MOD   , 0
	.byte	W01
	.byte		N12   , Ds3 , v120
	.byte	W11
	.byte		MOD   , 80
	.byte	W01
	.byte		N12   , Ds3 , v040
	.byte	W84
	.byte	PEND
	.byte	W96
	.byte	W96
	.byte	W92
	.byte	W03
	.byte		MOD   , 0
	.byte	W01
	.byte	PATT
	 .word	seq_126_3 + 0x14E
	.byte	W96
	.byte	W96
	.byte	W68
	.byte	W03
	.byte		MOD   , 40
	.byte	W01
	.byte		N12   , Dn3 , v120
	.byte	W11
	.byte		MOD   , 60
	.byte	W01
	.byte		N12   , Dn3 , v020
	.byte	W11
	.byte		MOD   , 80
	.byte	W01
	.byte	PATT
	 .word	seq_126_3 + 0x15
	.byte	PATT
	 .word	seq_126_3 + 0x3C
	.byte	PATT
	 .word	seq_126_3 + 0x5A
	.byte	PATT
	 .word	seq_126_3 + 0xFE
	.byte	GOTO
	 .word	seq_126_3 + 0x15
	.byte	FINE

@*********************** Track 05 ***********************@

seq_126_4:
	.byte	KEYSH , seq_126_key+0
	.byte	W06
	.byte		VOICE , 58
	.byte	W01
	.byte		VOL   , 63*seq_126_mvl/mxv
	.byte	W01
	.byte		PAN   , c_v+0
	.byte	W01
	.byte		LFOS  , 1
	.byte		LFODL , 10
	.byte	W01
	.byte		MODT  , mod_pan
	.byte	W01
	.byte		BENDR , 12
	.byte	W13
	.byte		TIE   , Gn1 , v120
	.byte	W48
	.byte		MOD   , 40
	.byte	W24
	.byte	PEND
	.byte		N72   , Cn2 
	.byte	W72
	.byte		        Fn2 
	.byte	W72
	.byte		        As2 
	.byte	W68
	.byte	W03
	.byte		BEND  , c_v-55
	.byte	W01
	.byte		EOT   , Gn1 
	.byte		TIE   , Gn2 , v080
	.byte	W04
	.byte		BEND  , c_v-40
	.byte	W01
	.byte		        c_v-24
	.byte	W01
	.byte		        c_v-16
	.byte	W01
	.byte		        c_v-8
	.byte	W01
	.byte		        c_v+0
	.byte	W54
	.byte		        c_v-2
	.byte	W01
	.byte		        c_v-3
	.byte	W01
	.byte		        c_v-4
	.byte	W01
	.byte		        c_v-3
	.byte	W01
	.byte		        c_v-2
	.byte	W01
	.byte		        c_v+0
	.byte	W05
	.byte	W02
	.byte		        c_v-2
	.byte	W01
	.byte		        c_v-5
	.byte	W02
	.byte		        c_v-3
	.byte	W01
	.byte		        c_v+0
	.byte	W05
	.byte		        c_v-2
	.byte	W01
	.byte		        c_v-3
	.byte	W01
	.byte		        c_v-4
	.byte	W01
	.byte		        c_v-4
	.byte	W02
	.byte		        c_v-1
	.byte	W01
	.byte		        c_v+0
	.byte	W05
	.byte		        c_v-2
	.byte	W01
	.byte		        c_v-4
	.byte	W01
	.byte		        c_v-5
	.byte	W01
	.byte		        c_v-4
	.byte	W01
	.byte		        c_v-2
	.byte	W01
	.byte		        c_v+0
	.byte	W07
	.byte		        c_v-3
	.byte	W01
	.byte		        c_v-3
	.byte	W01
	.byte		        c_v-3
	.byte	W01
	.byte		        c_v+0
	.byte	W07
	.byte		        c_v-2
	.byte	W01
	.byte		        c_v-5
	.byte	W01
	.byte		        c_v-7
	.byte	W01
	.byte		        c_v-6
	.byte	W01
	.byte		        c_v-4
	.byte	W01
	.byte		        c_v+0
	.byte	W04
	.byte		        c_v-8
	.byte	W02
	.byte		        c_v-12
	.byte	W02
	.byte		        c_v-16
	.byte	W01
	.byte		        c_v-20
	.byte	W01
	.byte		        c_v-24
	.byte	W01
	.byte		        c_v-28
	.byte	W01
	.byte		        c_v-32
	.byte	W01
	.byte		        c_v-36
	.byte	W01
	.byte		        c_v-40
	.byte	W01
	.byte		        c_v-43
	.byte	W01
	.byte		        c_v-47
	.byte	W01
	.byte		        c_v-51
	.byte	W01
	.byte		        c_v-55
	.byte	W01
	.byte		        c_v-59
	.byte	W02
	.byte		        c_v-64
	.byte	W02
	.byte	W72
	.byte	W54
	.byte		        c_v-59
	.byte	W01
	.byte		        c_v-55
	.byte	W01
	.byte		        c_v-51
	.byte	W01
	.byte		        c_v-47
	.byte	W01
	.byte		        c_v-43
	.byte	W01
	.byte		        c_v-40
	.byte	W01
	.byte		        c_v-36
	.byte	W01
	.byte		        c_v-32
	.byte	W01
	.byte		        c_v-28
	.byte	W01
	.byte		        c_v-24
	.byte	W02
	.byte		        c_v-20
	.byte	W01
	.byte		        c_v-16
	.byte	W01
	.byte		        c_v-12
	.byte	W02
	.byte		        c_v-8
	.byte	W02
	.byte		        c_v-4
	.byte	W01
	.byte	W01
	.byte		        c_v+0
	.byte	W36
	.byte	W01
	.byte		        c_v-2
	.byte	W01
	.byte		        c_v-3
	.byte	W01
	.byte		        c_v-4
	.byte	W01
	.byte		        c_v-3
	.byte	W01
	.byte		        c_v-2
	.byte	W01
	.byte		        c_v+0
	.byte	W07
	.byte		        c_v-2
	.byte	W01
	.byte		        c_v-5
	.byte	W02
	.byte		        c_v-3
	.byte	W01
	.byte		        c_v+0
	.byte	W05
	.byte		        c_v-2
	.byte	W01
	.byte		        c_v-3
	.byte	W01
	.byte		        c_v-4
	.byte	W01
	.byte		        c_v-4
	.byte	W02
	.byte		        c_v-1
	.byte	W01
	.byte		        c_v+0
	.byte	W05
	.byte		        c_v-2
	.byte	W01
	.byte		        c_v-4
	.byte	W01
	.byte		        c_v-5
	.byte	W01
	.byte		        c_v-4
	.byte	W01
	.byte		        c_v-2
	.byte	W01
	.byte		        c_v+0
	.byte	W07
	.byte		        c_v-3
	.byte	W01
	.byte		        c_v-3
	.byte	W01
	.byte		        c_v-3
	.byte	W01
	.byte		        c_v+0
	.byte	W07
	.byte		        c_v-2
	.byte	W01
	.byte		        c_v-5
	.byte	W01
	.byte		        c_v-7
	.byte	W01
	.byte		        c_v-6
	.byte	W01
	.byte		        c_v-4
	.byte	W01
	.byte		        c_v+0
	.byte	W28
	.byte		        c_v-8
	.byte	W02
	.byte		        c_v-12
	.byte	W02
	.byte		        c_v-16
	.byte	W01
	.byte		        c_v-20
	.byte	W01
	.byte		        c_v-24
	.byte	W01
	.byte		        c_v-28
	.byte	W01
	.byte		        c_v-32
	.byte	W01
	.byte		        c_v-36
	.byte	W01
	.byte		        c_v-40
	.byte	W01
	.byte		        c_v-43
	.byte	W01
	.byte		        c_v-47
	.byte	W01
	.byte		        c_v-51
	.byte	W01
	.byte		        c_v-55
	.byte	W01
	.byte		        c_v-59
	.byte	W02
	.byte		        c_v-64
	.byte	W02
	.byte	W72
	.byte	W54
	.byte		        c_v-59
	.byte	W01
	.byte		        c_v-55
	.byte	W01
	.byte		        c_v-51
	.byte	W01
	.byte		        c_v-47
	.byte	W01
	.byte		        c_v-43
	.byte	W01
	.byte		        c_v-40
	.byte	W01
	.byte		        c_v-36
	.byte	W01
	.byte		        c_v-32
	.byte	W01
	.byte		        c_v-28
	.byte	W01
	.byte		        c_v-24
	.byte	W02
	.byte		        c_v-20
	.byte	W01
	.byte		        c_v-16
	.byte	W01
	.byte		        c_v-12
	.byte	W02
	.byte		        c_v-8
	.byte	W01
	.byte		        c_v+0
	.byte	W01
	.byte		MOD   , 0
	.byte	W01
	.byte		EOT
	.byte	PATT
	 .word	seq_126_4 + 0x17
	.byte		N72   , Cn2 , v120
	.byte	W72
	.byte		        Fn2 
	.byte	W72
	.byte		N72   , As2 , v120
	.byte	W68
	.byte	W03
	.byte		MOD   , 0
	.byte	W01
	.byte	PEND
	.byte		EOT   , Gn1 
	.byte	PATT
	 .word	seq_126_4 + 0x17
	.byte		N72   , Cn2 , v120
	.byte	W72
	.byte		        Fn2 
	.byte	W72
	.byte	PATT
	 .word	seq_126_4 + 0x14B
	.byte		EOT   , Gn1 
	.byte	PATT
	 .word	seq_126_4 + 0x17
	.byte	W72
	.byte	W72
	.byte	W68
	.byte	W03
	.byte		MOD   , 0
	.byte	W01
	.byte		EOT   , Gn1 
	.byte	PATT
	 .word	seq_126_4 + 0x17
	.byte	W72
	.byte	W72
	.byte	W68
	.byte	W03
	.byte		VOL   , 14*seq_126_mvl/mxv
	.byte	W01
	.byte		EOT   , Gn1 
	.byte		N84   , Ds2 , v120
	.byte	W23
	.byte		VOL   , 21*seq_126_mvl/mxv
	.byte	W14
	.byte		        28*seq_126_mvl/mxv
	.byte	W14
	.byte		        35*seq_126_mvl/mxv
	.byte	W13
	.byte		        42*seq_126_mvl/mxv
	.byte	W13
	.byte		        49*seq_126_mvl/mxv
	.byte	W07
	.byte		N60   , En2 
	.byte	W12
	.byte	PEND
	.byte	W48
	.byte		N36   , Fs2 , v120
	.byte	W36
	.byte		N72   , Fn2 
	.byte	W12
	.byte	PEND
	.byte	W19
	.byte		VOL   , 42*seq_126_mvl/mxv
	.byte	W08
	.byte		        35*seq_126_mvl/mxv
	.byte	W07
	.byte		        28*seq_126_mvl/mxv
	.byte	W08
	.byte		        35*seq_126_mvl/mxv
	.byte	W07
	.byte		        42*seq_126_mvl/mxv
	.byte	W07
	.byte		        49*seq_126_mvl/mxv
	.byte	W04
	.byte		N12   , As1 , v120
	.byte	W12
	.byte		        Cn2 
	.byte	W12
	.byte		TIE   , Dn2 
	.byte	W12
	.byte	PEND
	.byte	W44
	.byte		VOL   , 42*seq_126_mvl/mxv
	.byte	W15
	.byte		        35*seq_126_mvl/mxv
	.byte	W15
	.byte		        28*seq_126_mvl/mxv
	.byte	W22
	.byte		EOT
	.byte	PATT
	 .word	seq_126_4 + 0x184
	.byte	PATT
	 .word	seq_126_4 + 0x197
	.byte	PATT
	 .word	seq_126_4 + 0x1A0
	.byte	W32
	.byte		VOL   , 42*seq_126_mvl/mxv
	.byte	W08
	.byte		        35*seq_126_mvl/mxv
	.byte	W07
	.byte		        28*seq_126_mvl/mxv
	.byte	W08
	.byte		        35*seq_126_mvl/mxv
	.byte	W07
	.byte		        42*seq_126_mvl/mxv
	.byte	W07
	.byte		        49*seq_126_mvl/mxv
	.byte	W02
	.byte		MOD   , 0
	.byte	W24
	.byte	W01
	.byte		EOT   , Dn2 
	.byte		TIE   , Gn1 , v120
	.byte	W12
	.byte		MOD   , 40
	.byte	W60
	.byte		N72   , Cn2 
	.byte	W72
	.byte		        Fn2 
	.byte	W72
	.byte		        As2 
	.byte	W72
	.byte		EOT   , Gn1 
	.byte	GOTO
	 .word	seq_126_4 + 0x17
	.byte	FINE

@*********************** Track 06 ***********************@

seq_126_5:
	.byte	KEYSH , seq_126_key+0
	.byte		VOICE , 11
	.byte	W01
	.byte		VOL   , 77*seq_126_mvl/mxv
	.byte	W01
	.byte		PAN   , c_v-24
	.byte	W01
	.byte		LFOS  , 20
	.byte	W01
	.byte		MODT  , mod_pan
	.byte	W01
	.byte		LFODL , 0
	.byte	W19
	.byte	W72
	.byte	W72
	.byte	W72
	.byte	W72
	.byte	W72
	.byte	W72
	.byte	W72
	.byte	W72
	.byte	W72
	.byte	W72
	.byte	W72
	.byte	W72
	.byte	W72
	.byte	W72
	.byte	W72
	.byte	W72
	.byte	W72
	.byte	W72
	.byte	W72
	.byte	W72
	.byte	W72
	.byte		N02   , Gn3 , v120
	.byte	W02
	.byte		        Gn4 , v060
	.byte	W04
	.byte		        Gn3 , v040
	.byte	W02
	.byte		        Gn4 , v020
	.byte	W04
	.byte		        Fn3 , v120
	.byte	W02
	.byte		        Fn4 , v060
	.byte	W04
	.byte		        Gn3 , v120
	.byte	W02
	.byte		        Gn4 , v060
	.byte	W04
	.byte		        Dn3 , v120
	.byte	W02
	.byte		        Dn4 , v060
	.byte	W04
	.byte		        Dn3 , v040
	.byte	W02
	.byte		        Dn4 , v020
	.byte	W40
	.byte	PEND
	.byte	W72
	.byte	W72
	.byte	W72
	.byte	PATT
	 .word	seq_126_5 + 0x29
	.byte	W72
	.byte	W72
	.byte	W96
	.byte	W96
	.byte	W96
	.byte	W05
	.byte		VOL   , 28*seq_126_mvl/mxv
	.byte	W01
	.byte		N02   , An4 , v100
	.byte		N02   , Dn5 
	.byte	W02
	.byte		        An5 , v060
	.byte		N02   , Dn6 
	.byte	W04
	.byte		        Bn4 , v120
	.byte		N02   , En5 
	.byte	W02
	.byte		        Bn5 , v080
	.byte		N02   , En6 
	.byte	W04
	.byte		        An4 , v100
	.byte		N02   , Dn5 
	.byte	W02
	.byte		        An5 , v060
	.byte		N02   , Dn6 
	.byte	W04
	.byte		        En5 , v120
	.byte		N02   , An5 
	.byte	W02
	.byte		        En6 , v080
	.byte		N02   , An6 
	.byte	W04
	.byte		        En5 , v040
	.byte		N02   , An5 
	.byte	W02
	.byte		        En6 , v020
	.byte		N02   , An6 
	.byte	W04
	.byte		        En5 , v040
	.byte		N02   , An5 
	.byte	W02
	.byte		        En6 , v020
	.byte		N02   , An6 
	.byte	W03
	.byte		PAN   , c_v+26
	.byte	W01
	.byte		N02   , An4 , v100
	.byte		N02   , Dn5 
	.byte	W02
	.byte		        An5 , v060
	.byte		N02   , Dn6 
	.byte	W04
	.byte		        Bn4 , v120
	.byte		N02   , En5 
	.byte	W02
	.byte		        Bn5 , v080
	.byte		N02   , En6 
	.byte	W04
	.byte		        An4 , v100
	.byte		N02   , Dn5 
	.byte	W02
	.byte		        An5 , v060
	.byte		N02   , Dn6 
	.byte	W04
	.byte		        En5 , v120
	.byte		N02   , An5 
	.byte	W02
	.byte		        En6 , v080
	.byte		N02   , An6 
	.byte	W04
	.byte		        En5 , v040
	.byte		N02   , An5 
	.byte	W02
	.byte		        En6 , v020
	.byte		N02   , An6 
	.byte	W04
	.byte		        En5 , v040
	.byte		N02   , An5 
	.byte	W02
	.byte		        En6 , v020
	.byte		N02   , An6 
	.byte	W03
	.byte		PAN   , c_v-24
	.byte	W19
	.byte	W92
	.byte	W03
	.byte		VOL   , 77*seq_126_mvl/mxv
	.byte	W01
	.byte	W96
	.byte	W96
	.byte	W96
	.byte	W72
	.byte	W72
	.byte	W72
	.byte	W72
	.byte	GOTO
	 .word	seq_126_5 + 0x14
	.byte	FINE

@*********************** Track 07 ***********************@

seq_126_6:
	.byte	KEYSH , seq_126_key+0
	.byte		VOICE , 24
	.byte	W01
	.byte		VOL   , 21*seq_126_mvl/mxv
	.byte	W01
	.byte		PAN   , c_v+26
	.byte	W01
	.byte		LFOS  , 20
	.byte	W01
	.byte		MODT  , mod_pan
	.byte	W01
	.byte		LFODL , 0
	.byte	W19
	.byte	W72
	.byte	W72
	.byte	W72
	.byte	W72
	.byte	W72
	.byte	W72
	.byte	W72
	.byte	W72
	.byte	W72
	.byte	W72
	.byte	W72
	.byte	W72
	.byte	W72
	.byte	W72
	.byte	W72
	.byte	W72
	.byte	W72
	.byte	W72
	.byte	W72
	.byte	W72
	.byte	W72
	.byte	W72
	.byte	W36
	.byte		N05   , An3 , v120
	.byte	W01
	.byte		        Cn4 
	.byte	W05
	.byte		        Gn3 , v100
	.byte	W01
	.byte		        As3 
	.byte	W05
	.byte		        Fn3 , v120
	.byte	W01
	.byte		        An3 
	.byte	W05
	.byte		        Gn3 , v100
	.byte	W01
	.byte		        As3 
	.byte	W05
	.byte		        Fn3 
	.byte	W01
	.byte		        An3 
	.byte	W05
	.byte		N02   , Fn3 , v040
	.byte	W01
	.byte		        An3 
	.byte	W05
	.byte	PEND
	.byte		N05   , Dn3 , v100
	.byte	W01
	.byte		        Fn3 
	.byte	W05
	.byte		N02   , Dn3 , v040
	.byte	W01
	.byte		        Fn3 
	.byte	W05
	.byte		N05   , As2 , v100
	.byte	W01
	.byte		        Dn3 
	.byte	W05
	.byte		N02   , As2 , v040
	.byte	W01
	.byte		        Dn3 
	.byte	W05
	.byte		N05   , Fn3 , v100
	.byte	W01
	.byte		        An3 
	.byte	W05
	.byte		N02   , Fn3 , v040
	.byte	W01
	.byte		        An3 
	.byte	W05
	.byte		N05   , Dn3 , v080
	.byte	W01
	.byte		        Gn3 
	.byte	W05
	.byte		N02   , Dn3 , v040
	.byte	W01
	.byte		        Gn3 
	.byte	W28
	.byte	W01
	.byte	PEND
	.byte	W72
	.byte	W72
	.byte	PATT
	 .word	seq_126_6 + 0x2A
	.byte	PATT
	 .word	seq_126_6 + 0x4B
	.byte	W96
	.byte	W96
	.byte	W96
	.byte	W96
	.byte	W96
	.byte	W96
	.byte	W96
	.byte	W96
	.byte	W72
	.byte	W72
	.byte	W72
	.byte	W72
	.byte	GOTO
	 .word	seq_126_6 + 0x14
	.byte	FINE

@*********************** Track 08 ***********************@

seq_126_7:
	.byte	KEYSH , seq_126_key+0
	.byte	W06
	.byte		VOICE , 6
	.byte	W01
	.byte		VOL   , 42*seq_126_mvl/mxv
	.byte	W01
	.byte		PAN   , c_v+0
	.byte	W01
	.byte		LFOS  , 30
	.byte	W01
	.byte		MODT  , mod_pan
	.byte	W01
	.byte		LFODL , 0
	.byte	W01
	.byte		MOD   , 60
	.byte	W12
	.byte	W72
	.byte	W72
	.byte	W72
	.byte	W72
	.byte	W72
	.byte	W72
	.byte	W72
	.byte	W72
	.byte	W72
	.byte	W72
	.byte	W72
	.byte	W72
	.byte	W72
	.byte	W72
	.byte	W72
	.byte	W72
	.byte	W72
	.byte	W72
	.byte	W72
	.byte	W72
	.byte	W72
	.byte	W72
	.byte	W72
	.byte	W72
	.byte		N02   , Gn3 , v120
	.byte	W02
	.byte		        Gn4 , v060
	.byte	W04
	.byte		        Gn3 , v040
	.byte	W02
	.byte		        Gn4 , v020
	.byte	W04
	.byte		        Fn3 , v120
	.byte	W02
	.byte		        Fn4 , v060
	.byte	W04
	.byte		        Gn3 , v100
	.byte	W02
	.byte		        Gn4 , v060
	.byte	W04
	.byte		        Dn3 , v120
	.byte	W02
	.byte		        Dn4 , v060
	.byte	W04
	.byte		        Dn3 , v040
	.byte	W02
	.byte		        Dn4 , v020
	.byte	W04
	.byte		        Fn3 , v040
	.byte	W02
	.byte		        Fn4 , v020
	.byte	W04
	.byte		        Gn3 , v040
	.byte	W02
	.byte		        Gn4 , v020
	.byte	W04
	.byte		        Dn3 , v040
	.byte	W02
	.byte		        Dn4 , v020
	.byte	W04
	.byte		        Dn3 
	.byte	W02
	.byte		        Dn4 
	.byte	W16
	.byte	W72
	.byte	W72
	.byte	W72
	.byte	W96
	.byte	W96
	.byte	W96
	.byte	W96
	.byte	W96
	.byte	W96
	.byte	W96
	.byte	W96
	.byte	W72
	.byte	W72
	.byte	W72
	.byte	W72
	.byte	GOTO
	 .word	seq_126_7 + 0x18
	.byte	FINE

@*********************** Track 09 ***********************@

seq_126_8:
	.byte	KEYSH , seq_126_key+0
	.byte	W12
	.byte		VOICE , 104
	.byte	W01
	.byte		VOL   , 90*seq_126_mvl/mxv
	.byte	W01
	.byte		PAN   , c_v+0
	.byte	W01
	.byte		LFOS  , 20
	.byte	W01
	.byte		MODT  , mod_vib
	.byte	W01
	.byte		BENDR , 12
	.byte	W07
	.byte	W72
	.byte	W72
	.byte	W72
	.byte	W72
	.byte		N04   , Gn1 , v120
	.byte	W06
	.byte		        Gn1 , v040
	.byte	W06
	.byte		        Gn1 , v120
	.byte	W06
	.byte		        Gn1 , v040
	.byte	W06
	.byte		N04
	.byte	W06
	.byte		N04
	.byte	W06
	.byte		        Gn1 , v120
	.byte	W06
	.byte		        Gn1 , v040
	.byte	W06
	.byte		        Gn1 , v120
	.byte	W06
	.byte		        Gn1 , v040
	.byte	W06
	.byte		N04
	.byte	W06
	.byte		N04
	.byte	W06
	.byte	PEND
	.byte	PATT
	 .word	seq_126_8 + 0x19
	.byte	PATT
	 .word	seq_126_8 + 0x19
	.byte	PATT
	 .word	seq_126_8 + 0x19
	.byte	PATT
	 .word	seq_126_8 + 0x19
	.byte	PATT
	 .word	seq_126_8 + 0x19
	.byte	PATT
	 .word	seq_126_8 + 0x19
	.byte	PATT
	 .word	seq_126_8 + 0x19
	.byte	PATT
	 .word	seq_126_8 + 0x19
	.byte	PATT
	 .word	seq_126_8 + 0x19
	.byte	PATT
	 .word	seq_126_8 + 0x19
	.byte	PATT
	 .word	seq_126_8 + 0x19
	.byte	PATT
	 .word	seq_126_8 + 0x19
	.byte	PATT
	 .word	seq_126_8 + 0x19
	.byte	PATT
	 .word	seq_126_8 + 0x19
	.byte	PATT
	 .word	seq_126_8 + 0x19
	.byte	PATT
	 .word	seq_126_8 + 0x19
	.byte	PATT
	 .word	seq_126_8 + 0x19
	.byte	PATT
	 .word	seq_126_8 + 0x19
	.byte	PATT
	 .word	seq_126_8 + 0x19
	.byte	PATT
	 .word	seq_126_8 + 0x19
	.byte	PATT
	 .word	seq_126_8 + 0x19
	.byte	PATT
	 .word	seq_126_8 + 0x19
	.byte	PATT
	 .word	seq_126_8 + 0x19
	.byte		N04   , Ds1 , v120
	.byte	W06
	.byte		        Ds1 , v040
	.byte	W06
	.byte		        Ds1 , v120
	.byte	W06
	.byte		        Ds1 , v040
	.byte	W06
	.byte		N04
	.byte	W06
	.byte		N04
	.byte	W06
	.byte		        Ds1 , v120
	.byte	W06
	.byte		        Ds1 , v040
	.byte	W06
	.byte		        Ds1 , v120
	.byte	W06
	.byte		        Ds1 , v040
	.byte	W06
	.byte		N04
	.byte	W06
	.byte		N04
	.byte	W06
	.byte		        Ds1 , v120
	.byte	W06
	.byte		        Ds1 , v040
	.byte	W06
	.byte		N13   , En1 , v120
	.byte	W12
	.byte	PEND
	.byte	W06
	.byte		N04   , En1 , v040
	.byte	W06
	.byte		        En1 , v120
	.byte	W06
	.byte		        En1 , v040
	.byte	W06
	.byte		        En1 , v120
	.byte	W06
	.byte		        En1 , v040
	.byte	W06
	.byte		N04
	.byte	W06
	.byte		N04
	.byte	W06
	.byte		        Fs1 , v120
	.byte	W06
	.byte		        Fs1 , v040
	.byte	W06
	.byte		        Fs1 , v120
	.byte	W06
	.byte		        Fs1 , v040
	.byte	W06
	.byte		N04
	.byte	W06
	.byte		N04
	.byte	W06
	.byte		N13   , Fn1 , v120
	.byte	W12
	.byte	PEND
	.byte	W06
	.byte		N04   , Fn1 , v040
	.byte	W06
	.byte		        Fn1 , v120
	.byte	W06
	.byte		        Fn1 , v040
	.byte	W06
	.byte		        Fn1 , v120
	.byte	W06
	.byte		        Fn1 , v040
	.byte	W06
	.byte		N04
	.byte	W06
	.byte		N04
	.byte	W06
	.byte		        Fn1 , v120
	.byte	W06
	.byte		        Fn1 , v040
	.byte	W06
	.byte		        As1 , v120
	.byte	W06
	.byte		        As1 , v040
	.byte	W06
	.byte		        Cn2 , v120
	.byte	W06
	.byte		        Cn2 , v040
	.byte	W06
	.byte		N13   , Dn2 , v120
	.byte	W12
	.byte	PEND
	.byte	W06
	.byte		N04   , Dn2 , v040
	.byte	W06
	.byte		        Dn2 , v120
	.byte	W06
	.byte		        Dn2 , v040
	.byte	W06
	.byte		        Dn2 , v120
	.byte	W06
	.byte		        Dn2 , v040
	.byte	W06
	.byte		N04
	.byte	W06
	.byte		N04
	.byte	W06
	.byte		        Dn2 , v120
	.byte	W06
	.byte		        Dn2 , v040
	.byte	W06
	.byte		        Dn2 , v120
	.byte	W06
	.byte		        Dn2 , v040
	.byte	W06
	.byte		N04
	.byte	W06
	.byte		N04
	.byte	W06
	.byte		        Dn2 , v120
	.byte	W06
	.byte		        Dn2 , v040
	.byte	W06
	.byte	PATT
	 .word	seq_126_8 + 0xAE
	.byte	PATT
	 .word	seq_126_8 + 0xDA
	.byte	PATT
	 .word	seq_126_8 + 0x104
	.byte	W06
	.byte		N04   , Dn2 , v040
	.byte	W06
	.byte		        Dn2 , v120
	.byte	W06
	.byte		        Dn2 , v040
	.byte	W06
	.byte		        Dn2 , v120
	.byte	W06
	.byte		        Dn2 , v040
	.byte	W06
	.byte		N04
	.byte	W06
	.byte		N04
	.byte	W06
	.byte		        Dn2 , v120
	.byte	W06
	.byte		        Dn2 , v040
	.byte	W06
	.byte		        Dn2 , v120
	.byte	W06
	.byte		        Dn2 , v040
	.byte	W06
	.byte		N04
	.byte	W06
	.byte		N04
	.byte	W06
	.byte		N04
	.byte	W06
	.byte		N04
	.byte	W06
	.byte	W72
	.byte	W72
	.byte	W72
	.byte	W72
	.byte	GOTO
	 .word	seq_126_8 + 0x15
	.byte	FINE

@*********************** Track 10 ***********************@

seq_126_9:
	.byte	KEYSH , seq_126_key+0
	.byte	W18
	.byte		VOICE , 78
	.byte	W01
	.byte		VOL   , 35*seq_126_mvl/mxv
	.byte	W01
	.byte		PAN   , c_v+0
	.byte	W01
	.byte		LFOS  , 10
	.byte	W01
	.byte		MODT  , mod_pan
	.byte	W02
	.byte	W72
	.byte	W72
	.byte	W72
	.byte	W72
	.byte		N04   , Gn1 , v120
	.byte	W04
	.byte		N02   , Gn1 , v060
	.byte	W02
	.byte		N04   , Gn2 
	.byte	W04
	.byte		N02   , Gn2 , v040
	.byte	W02
	.byte		N04   , Gn1 , v120
	.byte	W04
	.byte		N02   , Gn1 , v060
	.byte	W02
	.byte		N04   , Gn2 
	.byte	W04
	.byte		N02   , Gn2 , v040
	.byte	W02
	.byte		N04   , Gn1 , v060
	.byte	W04
	.byte		N02   , Gn1 , v040
	.byte	W02
	.byte		N04   , Gn2 , v060
	.byte	W04
	.byte		N02   , Gn2 , v040
	.byte	W02
	.byte		N04   , Gn1 , v120
	.byte	W04
	.byte		N02   , Gn1 , v060
	.byte	W02
	.byte		N04   , Gn2 
	.byte	W04
	.byte		N02   , Gn2 , v040
	.byte	W02
	.byte		N04   , Gn1 , v120
	.byte	W04
	.byte		N02   , Gn1 , v060
	.byte	W02
	.byte		N04   , Gn2 
	.byte	W04
	.byte		N02   , Gn2 , v040
	.byte	W02
	.byte		N04   , Gn1 , v060
	.byte	W04
	.byte		N02   , Gn1 , v040
	.byte	W02
	.byte		N04   , Gn2 , v060
	.byte	W04
	.byte		N02   , Gn2 , v040
	.byte	W02
	.byte	PEND
	.byte	PATT
	 .word	seq_126_9 + 0x16
	.byte	PATT
	 .word	seq_126_9 + 0x16
	.byte		N04   , Gn1 , v120
	.byte	W04
	.byte		N02   , Gn1 , v060
	.byte	W02
	.byte		N04   , Gn2 
	.byte	W04
	.byte		N02   , Gn2 , v040
	.byte	W02
	.byte		N04   , Gn1 , v120
	.byte	W04
	.byte		N02   , Gn1 , v060
	.byte	W02
	.byte		N04   , Gn2 
	.byte	W04
	.byte		N02   , Gn2 , v040
	.byte	W02
	.byte		N04   , Gn1 , v060
	.byte	W04
	.byte		N02   , Gn1 , v040
	.byte	W02
	.byte		N04   , Gn2 , v060
	.byte	W04
	.byte		N02   , Gn2 , v040
	.byte	W02
	.byte		N04   , Gn1 , v120
	.byte	W04
	.byte		N02   , Gn1 , v060
	.byte	W02
	.byte		N04   , Gn2 
	.byte	W04
	.byte		N02   , Gn2 , v040
	.byte	W02
	.byte		N04   , As1 , v120
	.byte	W04
	.byte		N02   , As1 , v060
	.byte	W02
	.byte		N04   , Dn2 , v120
	.byte	W04
	.byte		N02   , Dn2 , v060
	.byte	W02
	.byte		N04   , Gn2 , v120
	.byte	W04
	.byte		N02   , Gn2 , v060
	.byte	W02
	.byte		N04   , As2 , v120
	.byte	W04
	.byte		N02   , As2 , v060
	.byte	W02
	.byte	PEND
	.byte	PATT
	 .word	seq_126_9 + 0x16
	.byte	PATT
	 .word	seq_126_9 + 0x16
	.byte	PATT
	 .word	seq_126_9 + 0x16
	.byte	PATT
	 .word	seq_126_9 + 0x7D
	.byte	PATT
	 .word	seq_126_9 + 0x16
	.byte	PATT
	 .word	seq_126_9 + 0x16
	.byte	PATT
	 .word	seq_126_9 + 0x16
	.byte	PATT
	 .word	seq_126_9 + 0x7D
	.byte	PATT
	 .word	seq_126_9 + 0x16
	.byte	PATT
	 .word	seq_126_9 + 0x16
	.byte	PATT
	 .word	seq_126_9 + 0x16
	.byte	PATT
	 .word	seq_126_9 + 0x7D
	.byte	PATT
	 .word	seq_126_9 + 0x16
	.byte	PATT
	 .word	seq_126_9 + 0x16
	.byte	PATT
	 .word	seq_126_9 + 0x16
	.byte	PATT
	 .word	seq_126_9 + 0x7D
	.byte	PATT
	 .word	seq_126_9 + 0x16
	.byte	PATT
	 .word	seq_126_9 + 0x16
	.byte	PATT
	 .word	seq_126_9 + 0x16
	.byte	PATT
	 .word	seq_126_9 + 0x7D
	.byte		N04   , Ds1 , v120
	.byte	W04
	.byte		N02   , Ds1 , v060
	.byte	W02
	.byte		N04   , Ds2 , v080
	.byte	W04
	.byte		N02   , Ds2 , v040
	.byte	W02
	.byte		N04   , Ds1 , v120
	.byte	W04
	.byte		N02   , Ds1 , v060
	.byte	W02
	.byte		N04   , Ds2 , v080
	.byte	W04
	.byte		N02   , Ds2 , v040
	.byte	W02
	.byte		N04   , Ds1 , v120
	.byte	W04
	.byte		N02   , Ds1 , v060
	.byte	W02
	.byte		N04   , Ds2 , v080
	.byte	W04
	.byte		N02   , Ds2 , v040
	.byte	W02
	.byte		N04   , Ds1 , v120
	.byte	W04
	.byte		N02   , Ds1 , v060
	.byte	W02
	.byte		N04   , Ds2 , v080
	.byte	W04
	.byte		N02   , Ds2 , v040
	.byte	W02
	.byte		N04   , Ds1 , v120
	.byte	W04
	.byte		N02   , Ds1 , v060
	.byte	W02
	.byte		N04   , Ds2 , v080
	.byte	W04
	.byte		N02   , Ds2 , v040
	.byte	W02
	.byte		N04   , Ds1 , v120
	.byte	W04
	.byte		N02   , Ds1 , v060
	.byte	W02
	.byte		N04   , Ds2 , v080
	.byte	W04
	.byte		N02   , Ds2 , v040
	.byte	W02
	.byte		N04   , Ds1 , v120
	.byte	W04
	.byte		N02   , Ds1 , v060
	.byte	W02
	.byte		N04   , Ds2 , v080
	.byte	W04
	.byte		N02   , Ds2 , v040
	.byte	W02
	.byte		N04   , En1 , v120
	.byte	W04
	.byte		N02   , En1 , v060
	.byte	W02
	.byte		N04   , En2 , v080
	.byte	W04
	.byte		N02   , En2 , v040
	.byte	W02
	.byte	PEND
	.byte		N04   , En1 , v120
	.byte	W04
	.byte		N02   , En1 , v060
	.byte	W02
	.byte		N04   , En2 , v080
	.byte	W04
	.byte		N02   , En2 , v040
	.byte	W02
	.byte		N04   , En1 , v120
	.byte	W04
	.byte		N02   , En1 , v060
	.byte	W02
	.byte		N04   , En2 , v080
	.byte	W04
	.byte		N02   , En2 , v040
	.byte	W02
	.byte		N04   , En1 , v120
	.byte	W04
	.byte		N02   , En1 , v060
	.byte	W02
	.byte		N04   , En2 , v080
	.byte	W04
	.byte		N02   , En2 , v040
	.byte	W02
	.byte		N04   , En1 , v120
	.byte	W04
	.byte		N02   , En1 , v060
	.byte	W02
	.byte		N04   , En2 , v080
	.byte	W04
	.byte		N02   , En2 , v040
	.byte	W02
	.byte		N04   , Fs1 , v120
	.byte	W04
	.byte		N02   , Fs1 , v060
	.byte	W02
	.byte		N04   , Fs2 , v080
	.byte	W04
	.byte		N02   , Fs2 , v040
	.byte	W02
	.byte		N04   , Fs1 , v120
	.byte	W04
	.byte		N02   , Fs1 , v060
	.byte	W02
	.byte		N04   , Fs2 , v080
	.byte	W04
	.byte		N02   , Fs2 , v040
	.byte	W02
	.byte		N04   , Fs1 , v120
	.byte	W04
	.byte		N02   , Fs1 , v060
	.byte	W02
	.byte		N04   , Fs2 , v080
	.byte	W04
	.byte		N02   , Fs2 , v040
	.byte	W02
	.byte		N04   , Fn1 , v120
	.byte	W04
	.byte		N02   , Fn1 , v060
	.byte	W02
	.byte		N04   , Fn2 , v080
	.byte	W04
	.byte		N02   , Fn2 , v040
	.byte	W02
	.byte	PEND
	.byte		N04   , Fn1 , v120
	.byte	W04
	.byte		N02   , Fn1 , v060
	.byte	W02
	.byte		N04   , Fn2 , v080
	.byte	W04
	.byte		N02   , Fn2 , v040
	.byte	W02
	.byte		N04   , Fn1 , v120
	.byte	W04
	.byte		N02   , Fn1 , v060
	.byte	W02
	.byte		N04   , Fn2 , v080
	.byte	W04
	.byte		N02   , Fn2 , v040
	.byte	W02
	.byte		N04   , Fn1 , v120
	.byte	W04
	.byte		N02   , Fn1 , v060
	.byte	W02
	.byte		N04   , Fn2 , v080
	.byte	W04
	.byte		N02   , Fn2 , v040
	.byte	W02
	.byte		N04   , Fn1 , v120
	.byte	W04
	.byte		N02   , Fn1 , v060
	.byte	W02
	.byte		N04   , Fn2 , v080
	.byte	W04
	.byte		N02   , Fn2 , v040
	.byte	W02
	.byte		N04   , Fn1 , v120
	.byte	W04
	.byte		N02   , Fn1 , v060
	.byte	W02
	.byte		N04   , Fn2 , v080
	.byte	W04
	.byte		N02   , Fn2 , v040
	.byte	W02
	.byte		N04   , As0 , v120
	.byte	W04
	.byte		N02   , As0 , v060
	.byte	W02
	.byte		N04   , As1 , v080
	.byte	W04
	.byte		N02   , As1 , v040
	.byte	W02
	.byte		N04   , Cn1 , v120
	.byte	W04
	.byte		N02   , Cn1 , v060
	.byte	W02
	.byte		N04   , Cn2 , v080
	.byte	W04
	.byte		N02   , Cn2 , v040
	.byte	W02
	.byte		N04   , Dn1 , v120
	.byte	W04
	.byte		N02   , Dn1 , v060
	.byte	W02
	.byte		N04   , Dn2 , v080
	.byte	W04
	.byte		N02   , Dn2 , v040
	.byte	W02
	.byte	PEND
	.byte		N04   , Dn1 , v120
	.byte	W04
	.byte		N02   , Dn1 , v060
	.byte	W02
	.byte		N04   , Dn2 , v080
	.byte	W04
	.byte		N02   , Dn2 , v040
	.byte	W02
	.byte		N04   , Dn1 , v120
	.byte	W04
	.byte		N02   , Dn1 , v060
	.byte	W02
	.byte		N04   , Dn2 , v080
	.byte	W04
	.byte		N02   , Dn2 , v040
	.byte	W02
	.byte		N04   , Dn1 , v120
	.byte	W04
	.byte		N02   , Dn1 , v060
	.byte	W02
	.byte		N04   , Dn2 , v080
	.byte	W04
	.byte		N02   , Dn2 , v040
	.byte	W02
	.byte		N04   , Dn1 , v120
	.byte	W04
	.byte		N02   , Dn1 , v060
	.byte	W02
	.byte		N04   , Dn2 , v080
	.byte	W04
	.byte		N02   , Dn2 , v040
	.byte	W02
	.byte		N04   , Dn1 , v120
	.byte	W04
	.byte		N02   , Dn1 , v060
	.byte	W02
	.byte		N04   , Dn2 , v080
	.byte	W04
	.byte		N02   , Dn2 , v040
	.byte	W02
	.byte		N04   , Dn1 , v120
	.byte	W04
	.byte		N02   , Dn1 , v060
	.byte	W02
	.byte		N04   , Dn2 , v080
	.byte	W04
	.byte		N02   , Dn2 , v040
	.byte	W02
	.byte		N04   , Dn1 , v120
	.byte	W04
	.byte		N02   , Dn1 , v060
	.byte	W02
	.byte		N04   , Dn2 , v080
	.byte	W04
	.byte		N02   , Dn2 , v040
	.byte	W02
	.byte		N04   , Dn1 , v120
	.byte	W04
	.byte		N02   , Dn1 , v060
	.byte	W02
	.byte		N04   , Dn2 , v080
	.byte	W04
	.byte		N02   , Dn2 , v040
	.byte	W02
	.byte	PEND
	.byte	PATT
	 .word	seq_126_9 + 0x13F
	.byte	PATT
	 .word	seq_126_9 + 0x1C0
	.byte	PATT
	 .word	seq_126_9 + 0x241
	.byte	PATT
	 .word	seq_126_9 + 0x2C2
	.byte	W72
	.byte	W72
	.byte	W72
	.byte	W72
	.byte	GOTO
	 .word	seq_126_9 + 0x12
	.byte	FINE

@*********************** Track 11 ***********************@

seq_126_10:
	.byte	KEYSH , seq_126_key+0
	.byte	W18
	.byte		VOICE , 88
	.byte	W01
	.byte		VOL   , 35*seq_126_mvl/mxv
	.byte	W01
	.byte		PAN   , c_v+0
	.byte	W01
	.byte		LFOS  , 10
	.byte	W01
	.byte		MODT  , mod_pan
	.byte	W02
	.byte	W72
	.byte	W72
	.byte	W72
	.byte	W72
	.byte		N04   , Gn2 , v120
	.byte	W04
	.byte		N02   , Gn2 , v060
	.byte	W02
	.byte		N04   , Gn3 
	.byte	W04
	.byte		N02   , Gn3 , v040
	.byte	W02
	.byte		N04   , Gn2 , v120
	.byte	W04
	.byte		N02   , Gn2 , v060
	.byte	W02
	.byte		N04   , Gn3 
	.byte	W04
	.byte		N02   , Gn3 , v040
	.byte	W02
	.byte		N04   , Gn2 , v060
	.byte	W04
	.byte		N02   , Gn2 , v040
	.byte	W02
	.byte		N04   , Gn3 , v060
	.byte	W04
	.byte		N02   , Gn3 , v040
	.byte	W02
	.byte		N04   , Gn2 , v120
	.byte	W04
	.byte		N02   , Gn2 , v060
	.byte	W02
	.byte		N04   , Gn3 
	.byte	W04
	.byte		N02   , Gn3 , v040
	.byte	W02
	.byte		N04   , Gn2 , v120
	.byte	W04
	.byte		N02   , Gn2 , v060
	.byte	W02
	.byte		N04   , Gn3 
	.byte	W04
	.byte		N02   , Gn3 , v040
	.byte	W02
	.byte		N04   , Gn2 , v060
	.byte	W04
	.byte		N02   , Gn2 , v040
	.byte	W02
	.byte		N04   , Gn3 , v060
	.byte	W04
	.byte		N02   , Gn3 , v040
	.byte	W02
	.byte	PEND
	.byte	PATT
	 .word	seq_126_10 + 0x16
	.byte	PATT
	 .word	seq_126_10 + 0x16
	.byte		N04   , Gn2 , v120
	.byte	W04
	.byte		N02   , Gn2 , v060
	.byte	W02
	.byte		N04   , Gn3 
	.byte	W04
	.byte		N02   , Gn3 , v040
	.byte	W02
	.byte		N04   , Gn2 , v120
	.byte	W04
	.byte		N02   , Gn2 , v060
	.byte	W02
	.byte		N04   , Gn3 
	.byte	W04
	.byte		N02   , Gn3 , v040
	.byte	W02
	.byte		N04   , Gn2 , v060
	.byte	W04
	.byte		N02   , Gn2 , v040
	.byte	W02
	.byte		N04   , Gn3 , v060
	.byte	W04
	.byte		N02   , Gn3 , v040
	.byte	W02
	.byte		N04   , Gn2 , v120
	.byte	W04
	.byte		N02   , Gn2 , v060
	.byte	W02
	.byte		N04   , Gn3 
	.byte	W04
	.byte		N02   , Gn3 , v040
	.byte	W02
	.byte		N04   , As2 , v120
	.byte	W04
	.byte		N02   , As2 , v060
	.byte	W02
	.byte		N04   , Dn3 , v120
	.byte	W04
	.byte		N02   , Dn3 , v060
	.byte	W02
	.byte		N04   , Gn3 , v120
	.byte	W04
	.byte		N02   , Gn3 , v060
	.byte	W02
	.byte		N04   , As3 , v120
	.byte	W04
	.byte		N02   , As3 , v060
	.byte	W02
	.byte	W72
	.byte	W72
	.byte	W72
	.byte	W72
	.byte	W72
	.byte	W72
	.byte	W72
	.byte	W72
	.byte	W72
	.byte	W72
	.byte	W72
	.byte	W72
	.byte	W72
	.byte	W72
	.byte	W72
	.byte	W72
	.byte		N04   , Gn1 , v120
	.byte	W06
	.byte		        Gn1 , v040
	.byte	W06
	.byte		        Gn1 , v120
	.byte	W06
	.byte		        Gn1 , v040
	.byte	W06
	.byte		N04
	.byte	W06
	.byte		N04
	.byte	W06
	.byte		        Gn1 , v120
	.byte	W06
	.byte		        Gn1 , v040
	.byte	W06
	.byte		        Gn1 , v120
	.byte	W06
	.byte		        Gn1 , v040
	.byte	W06
	.byte		N04
	.byte	W06
	.byte		N04
	.byte	W06
	.byte	PEND
	.byte	PATT
	 .word	seq_126_10 + 0xEA
	.byte	W72
	.byte	W72
	.byte		N04   , Ds2 , v120
	.byte	W04
	.byte		N02   , Ds2 , v060
	.byte	W02
	.byte		N04   , Ds3 
	.byte	W04
	.byte		N02   , Ds3 , v020
	.byte	W02
	.byte		N04   , Ds2 , v120
	.byte	W04
	.byte		N02   , Ds2 , v060
	.byte	W02
	.byte		N04   , Ds3 
	.byte	W04
	.byte		N02   , Ds3 , v020
	.byte	W02
	.byte		N04   , Ds2 , v120
	.byte	W04
	.byte		N02   , Ds2 , v060
	.byte	W02
	.byte		N04   , Ds3 
	.byte	W04
	.byte		N02   , Ds3 , v020
	.byte	W02
	.byte		N04   , Ds2 , v120
	.byte	W04
	.byte		N02   , Ds2 , v060
	.byte	W02
	.byte		N04   , Ds3 
	.byte	W04
	.byte		N02   , Ds3 , v020
	.byte	W02
	.byte		N04   , Ds2 , v120
	.byte	W04
	.byte		N02   , Ds2 , v060
	.byte	W02
	.byte		N04   , Ds3 
	.byte	W04
	.byte		N02   , Ds3 , v020
	.byte	W02
	.byte		N04   , Ds2 , v120
	.byte	W04
	.byte		N02   , Ds2 , v060
	.byte	W02
	.byte		N04   , Ds3 
	.byte	W04
	.byte		N02   , Ds3 , v020
	.byte	W02
	.byte		N04   , Ds2 , v120
	.byte	W04
	.byte		N02   , Ds2 , v060
	.byte	W02
	.byte		N04   , Ds3 
	.byte	W04
	.byte		N02   , Ds3 , v020
	.byte	W02
	.byte		N04   , En2 , v120
	.byte	W04
	.byte		N02   , En2 , v060
	.byte	W02
	.byte		N04   , En3 
	.byte	W04
	.byte		N02   , En3 , v020
	.byte	W02
	.byte	PEND
	.byte		N04   , En2 , v120
	.byte	W04
	.byte		N02   , En2 , v060
	.byte	W02
	.byte		N04   , En3 
	.byte	W04
	.byte		N02   , En3 , v020
	.byte	W02
	.byte		N04   , En2 , v120
	.byte	W04
	.byte		N02   , En2 , v060
	.byte	W02
	.byte		N04   , En3 
	.byte	W04
	.byte		N02   , En3 , v020
	.byte	W02
	.byte		N04   , En2 , v120
	.byte	W04
	.byte		N02   , En2 , v060
	.byte	W02
	.byte		N04   , En3 
	.byte	W04
	.byte		N02   , En3 , v020
	.byte	W02
	.byte		N04   , En2 , v120
	.byte	W04
	.byte		N02   , En2 , v060
	.byte	W02
	.byte		N04   , En3 
	.byte	W04
	.byte		N02   , En3 , v020
	.byte	W02
	.byte		N04   , Fs2 , v120
	.byte	W04
	.byte		N02   , Fs2 , v060
	.byte	W02
	.byte		N04   , Fs3 
	.byte	W04
	.byte		N02   , Fs3 , v020
	.byte	W02
	.byte		N04   , Fs2 , v120
	.byte	W04
	.byte		N02   , Fs2 , v060
	.byte	W02
	.byte		N04   , Fs3 
	.byte	W04
	.byte		N02   , Fs3 , v020
	.byte	W02
	.byte		N04   , Fs2 , v120
	.byte	W04
	.byte		N02   , Fs2 , v060
	.byte	W02
	.byte		N04   , Fs3 
	.byte	W04
	.byte		N02   , Fs3 , v020
	.byte	W02
	.byte		N04   , Fn2 , v120
	.byte	W04
	.byte		N02   , Fn2 , v060
	.byte	W02
	.byte		N04   , Fn3 
	.byte	W04
	.byte		N02   , Fn3 , v020
	.byte	W02
	.byte	PEND
	.byte		N04   , Fn2 , v120
	.byte	W04
	.byte		N02   , Fn2 , v060
	.byte	W02
	.byte		N04   , Fn3 
	.byte	W04
	.byte		N02   , Fn3 , v020
	.byte	W02
	.byte		N04   , Fn2 , v120
	.byte	W04
	.byte		N02   , Fn2 , v060
	.byte	W02
	.byte		N04   , Fn3 
	.byte	W04
	.byte		N02   , Fn3 , v020
	.byte	W02
	.byte		N04   , Fn2 , v120
	.byte	W04
	.byte		N02   , Fn2 , v060
	.byte	W02
	.byte		N04   , Fn3 
	.byte	W04
	.byte		N02   , Fn3 , v020
	.byte	W02
	.byte		N04   , Fn2 , v120
	.byte	W04
	.byte		N02   , Fn2 , v060
	.byte	W02
	.byte		N04   , Fn3 
	.byte	W04
	.byte		N02   , Fn3 , v020
	.byte	W02
	.byte		N04   , Fn2 , v120
	.byte	W04
	.byte		N02   , Fn2 , v060
	.byte	W02
	.byte		N04   , Fn3 
	.byte	W04
	.byte		N02   , Fn3 , v020
	.byte	W02
	.byte		N04   , As1 , v120
	.byte	W04
	.byte		N02   , As1 , v060
	.byte	W02
	.byte		N04   , As2 
	.byte	W04
	.byte		N02   , As2 , v020
	.byte	W02
	.byte		N04   , Cn2 , v120
	.byte	W04
	.byte		N02   , Cn2 , v060
	.byte	W02
	.byte		N04   , Cn3 
	.byte	W04
	.byte		N02   , Cn3 , v020
	.byte	W02
	.byte		N04   , Dn2 , v120
	.byte	W04
	.byte		N02   , Dn2 , v060
	.byte	W02
	.byte		N04   , Dn3 
	.byte	W04
	.byte		N02   , Dn3 , v020
	.byte	W02
	.byte	PEND
	.byte		N04   , Dn2 , v120
	.byte	W04
	.byte		N02   , Dn2 , v060
	.byte	W02
	.byte		N04   , Dn3 
	.byte	W04
	.byte		N02   , Dn3 , v020
	.byte	W02
	.byte		N04   , Dn2 , v120
	.byte	W04
	.byte		N02   , Dn2 , v060
	.byte	W02
	.byte		N04   , Dn3 
	.byte	W04
	.byte		N02   , Dn3 , v020
	.byte	W02
	.byte		N04   , Dn2 , v120
	.byte	W04
	.byte		N02   , Dn2 , v060
	.byte	W02
	.byte		N04   , Dn3 
	.byte	W04
	.byte		N02   , Dn3 , v020
	.byte	W02
	.byte		N04   , Dn2 , v120
	.byte	W04
	.byte		N02   , Dn2 , v060
	.byte	W02
	.byte		N04   , Dn3 
	.byte	W04
	.byte		N02   , Dn3 , v020
	.byte	W02
	.byte		N04   , Dn2 , v120
	.byte	W04
	.byte		N02   , Dn2 , v060
	.byte	W02
	.byte		N04   , Dn3 
	.byte	W04
	.byte		N02   , Dn3 , v020
	.byte	W02
	.byte		N04   , Dn2 , v120
	.byte	W04
	.byte		N02   , Dn2 , v060
	.byte	W02
	.byte		N04   , Dn3 
	.byte	W04
	.byte		N02   , Dn3 , v020
	.byte	W02
	.byte		N04   , Dn2 , v120
	.byte	W04
	.byte		N02   , Dn2 , v060
	.byte	W02
	.byte		N04   , Dn3 
	.byte	W04
	.byte		N02   , Dn3 , v020
	.byte	W02
	.byte		N04   , Dn2 , v120
	.byte	W04
	.byte		N02   , Dn2 , v060
	.byte	W02
	.byte		N04   , Dn3 
	.byte	W04
	.byte		N02   , Dn3 , v020
	.byte	W02
	.byte	PEND
	.byte	PATT
	 .word	seq_126_10 + 0x113
	.byte	PATT
	 .word	seq_126_10 + 0x18C
	.byte	PATT
	 .word	seq_126_10 + 0x205
	.byte	PATT
	 .word	seq_126_10 + 0x27E
	.byte	W72
	.byte	W72
	.byte	W72
	.byte	W72
	.byte	GOTO
	 .word	seq_126_10 + 0x12
	.byte	FINE

@*********************** Track 12 ***********************@

seq_126_11:
	.byte	KEYSH , seq_126_key+0
	.byte	W18
	.byte		VOICE , 112
	.byte	W01
	.byte		VOL   , 42*seq_126_mvl/mxv
	.byte	W01
	.byte		PAN   , c_v+0
	.byte	W04
	.byte	W72
	.byte	W72
	.byte	W72
	.byte	W72
	.byte		N08   , En2 , v120
	.byte	W08
	.byte		N04   , En2 , v060
	.byte	W64
	.byte	PEND
	.byte	PATT
	 .word	seq_126_11 + 0x10
	.byte	PATT
	 .word	seq_126_11 + 0x10
	.byte	PATT
	 .word	seq_126_11 + 0x10
	.byte	PATT
	 .word	seq_126_11 + 0x10
	.byte	PATT
	 .word	seq_126_11 + 0x10
	.byte	PATT
	 .word	seq_126_11 + 0x10
	.byte	PATT
	 .word	seq_126_11 + 0x10
	.byte	PATT
	 .word	seq_126_11 + 0x10
	.byte	PATT
	 .word	seq_126_11 + 0x10
	.byte	PATT
	 .word	seq_126_11 + 0x10
	.byte	PATT
	 .word	seq_126_11 + 0x10
	.byte	PATT
	 .word	seq_126_11 + 0x10
	.byte	PATT
	 .word	seq_126_11 + 0x10
	.byte	PATT
	 .word	seq_126_11 + 0x10
	.byte	PATT
	 .word	seq_126_11 + 0x10
	.byte	PATT
	 .word	seq_126_11 + 0x10
	.byte	PATT
	 .word	seq_126_11 + 0x10
	.byte	PATT
	 .word	seq_126_11 + 0x10
	.byte	PATT
	 .word	seq_126_11 + 0x10
	.byte	PATT
	 .word	seq_126_11 + 0x10
	.byte	PATT
	 .word	seq_126_11 + 0x10
	.byte	PATT
	 .word	seq_126_11 + 0x10
	.byte	PATT
	 .word	seq_126_11 + 0x10
	.byte		N08   , En2 , v120
	.byte	W08
	.byte		N04   , En2 , v060
	.byte	W88
	.byte	PEND
	.byte	PATT
	 .word	seq_126_11 + 0x8C
	.byte	PATT
	 .word	seq_126_11 + 0x8C
	.byte	PATT
	 .word	seq_126_11 + 0x8C
	.byte	PATT
	 .word	seq_126_11 + 0x8C
	.byte	PATT
	 .word	seq_126_11 + 0x8C
	.byte	PATT
	 .word	seq_126_11 + 0x8C
	.byte	PATT
	 .word	seq_126_11 + 0x8C
	.byte	PATT
	 .word	seq_126_11 + 0x10
	.byte	W72
	.byte	W72
	.byte	W72
	.byte	GOTO
	 .word	seq_126_11 + 0xC
	.byte	FINE

@******************************************************@

	.align	2

seq_126:
	.byte	12	@ NumTrks
	.byte	0	@ NumBlks
	.byte	seq_126_pri	@ Priority
	.byte	seq_126_rev	@ Reverb

	.word	seq_126_grp

	.word	seq_126_0
	.word	seq_126_1
	.word	seq_126_2
	.word	seq_126_3
	.word	seq_126_4
	.word	seq_126_5
	.word	seq_126_6
	.word	seq_126_7
	.word	seq_126_8
	.word	seq_126_9
	.word	seq_126_10
	.word	seq_126_11

	.end
