@ File generated by m4a2s Song-Module
	.include "MPlayDef.s"

	.equ	seq_403_grp, bank_026
	.equ	seq_403_pri, 127
	.equ	seq_403_rev, 0
	.equ	seq_403_mvl, 127
	.equ	seq_403_key, 0

	.section .rodata
	.global	seq_403
	.align	2

@*********************** Track 01 ***********************@

seq_403_0:
	.byte	KEYSH , seq_403_key+0
	.byte	TEMPO , 150/2
	.byte		VOICE , 12
	.byte		VOL   , 80*seq_403_mvl/mxv
	.byte		PAN   , c_v+0
	.byte	W01
	.byte		MOD   , 80
	.byte		LFOS  , 60
	.byte		MODT  , mod_tre
	.byte	W01
	.byte		N07   , En1 , v032
	.byte	W04
	.byte		N06   , Bn2 , v060
	.byte	W02
	.byte		N08   , As3 , v120
	.byte	W04
	.byte		N06   , Fs3 , v060
	.byte	W02
	.byte		N08   , Fs2 , v120
	.byte	W04
	.byte		N06   , Cs2 , v060
	.byte	W02
	.byte		N08   , Ds4 , v120
	.byte	W04
	.byte		N06   , Dn3 , v060
	.byte	W02
	.byte		N07   , Gs1 , v120
	.byte	W04
	.byte		N06   , An3 , v060
	.byte	W02
	.byte		VOL   , 78*seq_403_mvl/mxv
	.byte		N08   , Ds2 , v120
	.byte	W02
	.byte		VOL   , 77*seq_403_mvl/mxv
	.byte	W01
	.byte		        76*seq_403_mvl/mxv
	.byte	W01
	.byte		        75*seq_403_mvl/mxv
	.byte		N06   , Bn2 , v060
	.byte	W01
	.byte		VOL   , 74*seq_403_mvl/mxv
	.byte	W01
	.byte		        72*seq_403_mvl/mxv
	.byte		N08   , Fn4 , v120
	.byte	W01
	.byte		VOL   , 70*seq_403_mvl/mxv
	.byte	W01
	.byte		        68*seq_403_mvl/mxv
	.byte	W01
	.byte		        62*seq_403_mvl/mxv
	.byte	W01
	.byte		        59*seq_403_mvl/mxv
	.byte		N06   , Dn3 , v060
	.byte	W01
	.byte		VOL   , 55*seq_403_mvl/mxv
	.byte	W01
	.byte		        51*seq_403_mvl/mxv
	.byte		N08   , Cs4 , v120
	.byte	W01
	.byte		VOL   , 47*seq_403_mvl/mxv
	.byte	W01
	.byte		        42*seq_403_mvl/mxv
	.byte	W01
	.byte		        37*seq_403_mvl/mxv
	.byte	W01
	.byte		        32*seq_403_mvl/mxv
	.byte		N06   , Fs2 , v060
	.byte	W01
	.byte		VOICE , 4
	.byte		VOL   , 27*seq_403_mvl/mxv
	.byte	W01
	.byte		        21*seq_403_mvl/mxv
	.byte	W01
	.byte		        15*seq_403_mvl/mxv
	.byte	W01
	.byte		        8*seq_403_mvl/mxv
	.byte	W01
	.byte		        0*seq_403_mvl/mxv
	.byte	W01
	.byte	FINE

@******************************************************@

	.align	2

seq_403:
	.byte	1	@ NumTrks
	.byte	0	@ NumBlks
	.byte	seq_403_pri	@ Priority
	.byte	seq_403_rev	@ Reverb

	.word	seq_403_grp

	.word	seq_403_0

	.end
