@ File generated by m4a2s Song-Module
	.include "MPlayDef.s"

	.equ	seq_120_grp, bank_014
	.equ	seq_120_pri, 50
	.equ	seq_120_rev, 198
	.equ	seq_120_mvl, 127
	.equ	seq_120_key, 0

	.section .rodata
	.global	seq_120
	.align	2

@*********************** Track 01 ***********************@

seq_120_0:
	.byte	KEYSH , seq_120_key+0
	.byte	TEMPO , 240/2
	.byte		VOICE , 127
	.byte	W01
	.byte		VOL   , 75*seq_120_mvl/mxv
	.byte	W01
	.byte		PAN   , c_v+0
	.byte	W10
	.byte	TEMPO , 104/2
	.byte	W12
	.byte		N03   , Ds7 , v040
	.byte		N03   , Gs7 
	.byte	W06
	.byte		        Ds7 , v020
	.byte		N03   , Gs7 
	.byte	W06
	.byte		        Ds7 , v120
	.byte		N03   , Gs7 
	.byte	W06
	.byte		        Ds7 , v020
	.byte		N03   , Gs7 
	.byte	W06
	.byte		        Ds7 , v120
	.byte		N03   , Gs7 
	.byte	W06
	.byte		        Ds7 
	.byte		N03   , Gs7 
	.byte	W06
	.byte		        Ds7 , v020
	.byte		N03   , Gs7 
	.byte	W06
	.byte		        Ds7 , v120
	.byte		N03   , An7 
	.byte	W06
	.byte		N03   , Gn3 , v080
	.byte		N03   , Cn4 , v120
	.byte	W18
	.byte		        Fs5 , v080
	.byte	W06
	.byte		        Gn4 
	.byte	W24
	.byte		N02   , Gs5 , v060
	.byte	W12
	.byte		N03   , Cn4 , v120
	.byte	W12
	.byte		        Gn4 , v080
	.byte	W12
	.byte		        Fs5 
	.byte	W12
	.byte	PEND
	.byte		N03   , Cn4 , v120
	.byte	W18
	.byte		        Fs5 , v080
	.byte	W06
	.byte		        Gn4 
	.byte	W24
	.byte		N02   , Gs5 , v060
	.byte	W12
	.byte		N03   , Cn4 , v120
	.byte	W12
	.byte		        Gn4 , v080
	.byte	W12
	.byte		        Fs5 
	.byte	W12
	.byte	PEND
	.byte	PATT
	 .word	seq_120_0 + 0x52
	.byte		N03   , Cn4 , v120
	.byte	W18
	.byte		        Fs5 , v080
	.byte	W06
	.byte		        Gn4 
	.byte	W24
	.byte		N02   , Gs5 , v060
	.byte	W06
	.byte		N06   , Fs6 , v120
	.byte	W06
	.byte		N03   , Cn4 
	.byte	W06
	.byte		N06   , Fs6 , v100
	.byte	W06
	.byte		N03   , Gn4 , v080
	.byte	W12
	.byte		        Fs5 
	.byte	W12
	.byte	PEND
	.byte	PATT
	 .word	seq_120_0 + 0x52
	.byte	PATT
	 .word	seq_120_0 + 0x52
	.byte	PATT
	 .word	seq_120_0 + 0x52
	.byte	PATT
	 .word	seq_120_0 + 0x6E
	.byte	PATT
	 .word	seq_120_0 + 0x38
	.byte	PATT
	 .word	seq_120_0 + 0x52
	.byte	PATT
	 .word	seq_120_0 + 0x52
	.byte	PATT
	 .word	seq_120_0 + 0x6E
	.byte	PATT
	 .word	seq_120_0 + 0x52
	.byte	PATT
	 .word	seq_120_0 + 0x52
	.byte	PATT
	 .word	seq_120_0 + 0x52
	.byte	PATT
	 .word	seq_120_0 + 0x6E
	.byte	PATT
	 .word	seq_120_0 + 0x38
	.byte	PATT
	 .word	seq_120_0 + 0x52
	.byte	PATT
	 .word	seq_120_0 + 0x52
	.byte	PATT
	 .word	seq_120_0 + 0x6E
	.byte	PATT
	 .word	seq_120_0 + 0x52
	.byte	PATT
	 .word	seq_120_0 + 0x52
	.byte	PATT
	 .word	seq_120_0 + 0x52
	.byte		N03   , Cn4 , v120
	.byte	W18
	.byte		        Fs5 , v080
	.byte	W06
	.byte		        Gn4 
	.byte	W24
	.byte		N02   , Gs5 , v060
	.byte	W06
	.byte		N06   , Fs6 , v120
	.byte	W06
	.byte		N03   , Dn4 , v080
	.byte	W06
	.byte		N06   , Fs6 , v100
	.byte	W06
	.byte		        Dn4 , v080
	.byte	W06
	.byte		        Dn4 , v060
	.byte	W06
	.byte		N06
	.byte	W06
	.byte		N06
	.byte	W06
	.byte		N03   , Cn4 , v120
	.byte	W24
	.byte		        Gn3 , v060
	.byte		N03   , Gn4 , v100
	.byte	W24
	.byte		N02   , Gs5 , v060
	.byte	W12
	.byte		N03   , Fn4 , v100
	.byte	W24
	.byte		        Cn4 , v120
	.byte	W12
	.byte	W12
	.byte		N03   , Cn4 , v120
	.byte	W12
	.byte		        Gn4 , v080
	.byte	W24
	.byte		N02   , Gs5 , v060
	.byte	W12
	.byte		N03   , Cn4 , v120
	.byte	W12
	.byte		        En4 , v080
	.byte	W12
	.byte		        Fs5 
	.byte	W12
	.byte	PEND
	.byte		        Cn4 , v120
	.byte	W24
	.byte		        Gn3 , v060
	.byte		N03   , Gn4 , v080
	.byte	W24
	.byte		N02   , Gs5 , v060
	.byte	W12
	.byte		N03   , Fn4 , v080
	.byte	W24
	.byte		        Cn4 , v120
	.byte	W12
	.byte	PATT
	 .word	seq_120_0 + 0x124
	.byte		N03   , Cn4 , v120
	.byte	W24
	.byte		        Gn3 , v080
	.byte		N03   , Gn4 , v100
	.byte	W24
	.byte		N02   , Gs5 , v060
	.byte	W12
	.byte		N03   , Gn4 , v100
	.byte	W24
	.byte		        Cn4 , v120
	.byte	W12
	.byte	W12
	.byte		N03
	.byte	W12
	.byte		        Gn4 , v080
	.byte	W24
	.byte		N02   , Gs5 , v060
	.byte	W12
	.byte		N03   , Cn4 , v100
	.byte	W12
	.byte		        Gn4 , v080
	.byte	W12
	.byte		        Gn3 
	.byte		N03   , Cn4 , v120
	.byte	W12
	.byte	W12
	.byte		        Cn4 , v080
	.byte	W06
	.byte		        Fs5 
	.byte	W06
	.byte		        Gn4 
	.byte	W36
	.byte		        Cn4 , v120
	.byte	W24
	.byte		N03
	.byte	W12
	.byte	W12
	.byte		N03   , Cn4 , v120
	.byte	W06
	.byte		        Fs5 , v080
	.byte	W06
	.byte		        Gn4 
	.byte	W48
	.byte		N03
	.byte	W24
	.byte	PEND
	.byte		        Cn4 , v120
	.byte	W18
	.byte		        Fs5 , v080
	.byte	W06
	.byte		        Gn4 
	.byte	W36
	.byte		        Cn4 , v100
	.byte	W24
	.byte		        Cn4 , v120
	.byte	W12
	.byte	PATT
	 .word	seq_120_0 + 0x18B
	.byte		N03   , Cn4 , v120
	.byte	W18
	.byte		        Fs5 , v080
	.byte	W06
	.byte		        Gn4 
	.byte	W24
	.byte		N02   , Gs5 , v060
	.byte	W12
	.byte		N03   , Cn4 , v120
	.byte	W12
	.byte		        Gn4 , v080
	.byte	W12
	.byte		        Cn4 , v120
	.byte	W12
	.byte	W12
	.byte		        Cn4 , v100
	.byte	W06
	.byte		        Fs5 , v080
	.byte	W06
	.byte		        Gn4 
	.byte	W24
	.byte		N02   , Gs5 , v060
	.byte	W06
	.byte		N06   , Fs6 , v120
	.byte	W06
	.byte		N03   , Cn4 
	.byte	W06
	.byte		N06   , Fs6 , v100
	.byte	W06
	.byte		N03   , Gn4 , v080
	.byte	W12
	.byte		        Fs5 
	.byte	W12
	.byte		        Cn4 , v120
	.byte		N03   , Gs7 , v040
	.byte	W06
	.byte		        Gs7 , v020
	.byte	W06
	.byte		        Gs7 , v100
	.byte	W06
	.byte		        Gs7 , v020
	.byte	W06
	.byte		        Gn4 , v080
	.byte		N03   , Gs7 , v100
	.byte	W06
	.byte		N03
	.byte	W06
	.byte		        Gs7 , v020
	.byte	W06
	.byte		        An7 , v100
	.byte	W06
	.byte		        Cn4 , v120
	.byte		N03   , Gs7 , v040
	.byte	W06
	.byte		        Gs7 , v020
	.byte	W06
	.byte		        Cn4 , v100
	.byte		N03   , Gs7 
	.byte	W06
	.byte		        Gs7 , v020
	.byte	W06
	.byte		        Gn4 , v080
	.byte		N03   , Gs7 , v100
	.byte	W06
	.byte		N03
	.byte	W06
	.byte		        Gs7 , v020
	.byte	W06
	.byte		        An7 , v100
	.byte	W06
	.byte		        Cn4 , v120
	.byte		N03   , Gs7 , v040
	.byte	W06
	.byte		        Gs7 , v020
	.byte	W06
	.byte		        Cn4 , v100
	.byte		N03   , Gs7 , v120
	.byte	W06
	.byte		        Gs7 , v020
	.byte	W06
	.byte		        Gn4 , v080
	.byte	W06
	.byte		        Gn4 , v060
	.byte	W06
	.byte		        Gs7 , v120
	.byte	W12
	.byte		        Cn4 
	.byte	W06
	.byte		        Gn4 , v060
	.byte	W06
	.byte		        Cn4 , v100
	.byte	W12
	.byte		        Gn4 , v080
	.byte	W06
	.byte		        Gn4 , v060
	.byte	W06
	.byte		        An7 , v120
	.byte	W12
	.byte	GOTO
	 .word	seq_120_0 + 0x38
	.byte	FINE

@*********************** Track 02 ***********************@

seq_120_1:
	.byte	KEYSH , seq_120_key+0
	.byte		VOICE , 12
	.byte	W01
	.byte		VOL   , 62*seq_120_mvl/mxv
	.byte	W01
	.byte		PAN   , c_v+0
	.byte	W01
	.byte		LFOS  , 60
	.byte	W01
	.byte		MODT  , mod_tre
	.byte	W20
	.byte	W48
	.byte	W96
	.byte	W96
	.byte	W96
	.byte	W96
	.byte	W96
	.byte	W96
	.byte	W96
	.byte	W96
	.byte	W96
	.byte	W96
	.byte	W96
	.byte	W96
	.byte	W96
	.byte	W96
	.byte	W96
	.byte	W96
	.byte	W96
	.byte	W96
	.byte	W96
	.byte	W96
	.byte	W96
	.byte	W96
	.byte	W96
	.byte	W96
	.byte	W22
	.byte		MOD   , 60
	.byte	W02
	.byte		N24   , Cs2 , v120
	.byte		N24   , Fs2 
	.byte		N24   , Bn2 
	.byte	W01
	.byte		VOL   , 56*seq_120_mvl/mxv
	.byte	W01
	.byte		        50*seq_120_mvl/mxv
	.byte	W01
	.byte		        44*seq_120_mvl/mxv
	.byte	W01
	.byte		        37*seq_120_mvl/mxv
	.byte	W01
	.byte		MOD   , 40
	.byte	W01
	.byte		VOL   , 31*seq_120_mvl/mxv
	.byte	W01
	.byte		        25*seq_120_mvl/mxv
	.byte	W01
	.byte		        18*seq_120_mvl/mxv
	.byte	W01
	.byte		        25*seq_120_mvl/mxv
	.byte	W01
	.byte		        31*seq_120_mvl/mxv
	.byte	W01
	.byte		MOD   , 60
	.byte	W01
	.byte		VOL   , 37*seq_120_mvl/mxv
	.byte	W02
	.byte		        44*seq_120_mvl/mxv
	.byte	W01
	.byte		        50*seq_120_mvl/mxv
	.byte	W02
	.byte		        56*seq_120_mvl/mxv
	.byte	W01
	.byte		        62*seq_120_mvl/mxv
	.byte	W17
	.byte		MOD   , 0
	.byte	W01
	.byte		N09   , Bn1 
	.byte		N09   , En2 
	.byte		N09   , An2 
	.byte	W01
	.byte		VOL   , 37*seq_120_mvl/mxv
	.byte	W02
	.byte		        44*seq_120_mvl/mxv
	.byte	W01
	.byte		        50*seq_120_mvl/mxv
	.byte	W02
	.byte		        56*seq_120_mvl/mxv
	.byte	W02
	.byte		        62*seq_120_mvl/mxv
	.byte	W15
	.byte		MOD   , 80
	.byte	W01
	.byte		N08   , Fs2 
	.byte		N08   , Bn2 
	.byte		N08   , En3 
	.byte	W01
	.byte		VOL   , 37*seq_120_mvl/mxv
	.byte	W02
	.byte		        44*seq_120_mvl/mxv
	.byte	W01
	.byte		        50*seq_120_mvl/mxv
	.byte	W02
	.byte		        56*seq_120_mvl/mxv
	.byte	W02
	.byte		        62*seq_120_mvl/mxv
	.byte	W04
	.byte	W11
	.byte		MOD   , 60
	.byte	W01
	.byte		N56   , En2 
	.byte		N56   , An2 
	.byte		N56   , Dn3 
	.byte	W01
	.byte		VOL   , 56*seq_120_mvl/mxv
	.byte	W01
	.byte		        50*seq_120_mvl/mxv
	.byte	W01
	.byte		        44*seq_120_mvl/mxv
	.byte	W01
	.byte		        37*seq_120_mvl/mxv
	.byte	W01
	.byte		MOD   , 40
	.byte	W01
	.byte		VOL   , 31*seq_120_mvl/mxv
	.byte	W01
	.byte		        25*seq_120_mvl/mxv
	.byte	W04
	.byte		MOD   , 20
	.byte	W03
	.byte		VOL   , 31*seq_120_mvl/mxv
	.byte	W08
	.byte		        37*seq_120_mvl/mxv
	.byte	W01
	.byte		MOD   , 0
	.byte	W06
	.byte		        20
	.byte	W01
	.byte		VOL   , 44*seq_120_mvl/mxv
	.byte	W05
	.byte		MOD   , 40
	.byte	W03
	.byte		VOL   , 50*seq_120_mvl/mxv
	.byte	W03
	.byte		MOD   , 60
	.byte	W05
	.byte		VOL   , 56*seq_120_mvl/mxv
	.byte	W05
	.byte		        62*seq_120_mvl/mxv
	.byte	W04
	.byte		        69*seq_120_mvl/mxv
	.byte	W02
	.byte		        75*seq_120_mvl/mxv
	.byte	W24
	.byte	W03
	.byte	W23
	.byte		        62*seq_120_mvl/mxv
	.byte	W01
	.byte		N24   , Cs2 
	.byte		N24   , Fs2 
	.byte		N24   , Bn2 
	.byte	W01
	.byte		VOL   , 56*seq_120_mvl/mxv
	.byte	W01
	.byte		        50*seq_120_mvl/mxv
	.byte	W01
	.byte		        44*seq_120_mvl/mxv
	.byte	W01
	.byte		        37*seq_120_mvl/mxv
	.byte	W01
	.byte		MOD   , 40
	.byte	W01
	.byte		VOL   , 31*seq_120_mvl/mxv
	.byte	W01
	.byte		        25*seq_120_mvl/mxv
	.byte	W01
	.byte		        18*seq_120_mvl/mxv
	.byte	W01
	.byte		        25*seq_120_mvl/mxv
	.byte	W01
	.byte		        31*seq_120_mvl/mxv
	.byte	W01
	.byte		MOD   , 60
	.byte	W01
	.byte		VOL   , 37*seq_120_mvl/mxv
	.byte	W02
	.byte		        44*seq_120_mvl/mxv
	.byte	W01
	.byte		        50*seq_120_mvl/mxv
	.byte	W02
	.byte		        56*seq_120_mvl/mxv
	.byte	W01
	.byte		        62*seq_120_mvl/mxv
	.byte	W17
	.byte		MOD   , 0
	.byte	W01
	.byte		N09   , Bn1 
	.byte		N09   , En2 
	.byte		N09   , An2 
	.byte	W01
	.byte		VOL   , 37*seq_120_mvl/mxv
	.byte	W02
	.byte		        44*seq_120_mvl/mxv
	.byte	W01
	.byte		        50*seq_120_mvl/mxv
	.byte	W02
	.byte		        56*seq_120_mvl/mxv
	.byte	W02
	.byte		        62*seq_120_mvl/mxv
	.byte	W15
	.byte		MOD   , 80
	.byte	W01
	.byte		N08   , Gs2 
	.byte		N08   , Cs3 
	.byte		N08   , Fs3 
	.byte	W01
	.byte		VOL   , 37*seq_120_mvl/mxv
	.byte	W02
	.byte		        44*seq_120_mvl/mxv
	.byte	W01
	.byte		        50*seq_120_mvl/mxv
	.byte	W02
	.byte		        56*seq_120_mvl/mxv
	.byte	W02
	.byte		        62*seq_120_mvl/mxv
	.byte	W04
	.byte	W11
	.byte		MOD   , 60
	.byte	W01
	.byte		N56   , Fs2 
	.byte		N56   , Bn2 
	.byte		N56   , En3 
	.byte	W01
	.byte		VOL   , 56*seq_120_mvl/mxv
	.byte	W01
	.byte		        50*seq_120_mvl/mxv
	.byte	W01
	.byte		        44*seq_120_mvl/mxv
	.byte	W01
	.byte		        37*seq_120_mvl/mxv
	.byte	W01
	.byte		MOD   , 40
	.byte	W01
	.byte		VOL   , 31*seq_120_mvl/mxv
	.byte	W01
	.byte		        25*seq_120_mvl/mxv
	.byte	W04
	.byte		MOD   , 20
	.byte	W03
	.byte		VOL   , 31*seq_120_mvl/mxv
	.byte	W08
	.byte		        37*seq_120_mvl/mxv
	.byte	W01
	.byte		MOD   , 0
	.byte	W06
	.byte		        20
	.byte	W01
	.byte		VOL   , 44*seq_120_mvl/mxv
	.byte	W05
	.byte		MOD   , 40
	.byte	W03
	.byte		VOL   , 50*seq_120_mvl/mxv
	.byte	W03
	.byte		MOD   , 60
	.byte	W05
	.byte		VOL   , 56*seq_120_mvl/mxv
	.byte	W05
	.byte		        62*seq_120_mvl/mxv
	.byte	W04
	.byte		        69*seq_120_mvl/mxv
	.byte	W02
	.byte		        75*seq_120_mvl/mxv
	.byte	W24
	.byte	W03
	.byte	W23
	.byte		        62*seq_120_mvl/mxv
	.byte	W01
	.byte		N24   , Ds2 
	.byte		N24   , Gs2 
	.byte		N24   , Cs3 
	.byte	W01
	.byte		VOL   , 56*seq_120_mvl/mxv
	.byte	W01
	.byte		        50*seq_120_mvl/mxv
	.byte	W01
	.byte		        44*seq_120_mvl/mxv
	.byte	W01
	.byte		        37*seq_120_mvl/mxv
	.byte	W02
	.byte		        31*seq_120_mvl/mxv
	.byte	W01
	.byte		        25*seq_120_mvl/mxv
	.byte	W01
	.byte		        18*seq_120_mvl/mxv
	.byte	W01
	.byte		        25*seq_120_mvl/mxv
	.byte	W01
	.byte		        31*seq_120_mvl/mxv
	.byte	W02
	.byte		        37*seq_120_mvl/mxv
	.byte	W02
	.byte		        44*seq_120_mvl/mxv
	.byte	W01
	.byte		        50*seq_120_mvl/mxv
	.byte	W02
	.byte		        56*seq_120_mvl/mxv
	.byte	W01
	.byte		        62*seq_120_mvl/mxv
	.byte	W18
	.byte		N09   , Cs2 
	.byte		N09   , Fs2 
	.byte		N09   , Bn2 
	.byte	W01
	.byte		VOL   , 37*seq_120_mvl/mxv
	.byte	W02
	.byte		        44*seq_120_mvl/mxv
	.byte	W01
	.byte		        50*seq_120_mvl/mxv
	.byte	W02
	.byte		        56*seq_120_mvl/mxv
	.byte	W02
	.byte		        62*seq_120_mvl/mxv
	.byte	W16
	.byte		N08   , Gs2 
	.byte		N08   , Cs3 
	.byte		N08   , Fs3 
	.byte	W01
	.byte		VOL   , 37*seq_120_mvl/mxv
	.byte	W02
	.byte		        44*seq_120_mvl/mxv
	.byte	W01
	.byte		        50*seq_120_mvl/mxv
	.byte	W02
	.byte		        56*seq_120_mvl/mxv
	.byte	W02
	.byte		        62*seq_120_mvl/mxv
	.byte	W04
	.byte	W12
	.byte		N32   , Fs2 
	.byte		N32   , Bn2 
	.byte		N32   , En3 
	.byte	W01
	.byte		VOL   , 56*seq_120_mvl/mxv
	.byte	W01
	.byte		        50*seq_120_mvl/mxv
	.byte	W01
	.byte		        44*seq_120_mvl/mxv
	.byte	W01
	.byte		        37*seq_120_mvl/mxv
	.byte	W02
	.byte		        31*seq_120_mvl/mxv
	.byte	W01
	.byte		        25*seq_120_mvl/mxv
	.byte	W07
	.byte		        31*seq_120_mvl/mxv
	.byte	W06
	.byte		        37*seq_120_mvl/mxv
	.byte	W06
	.byte		        44*seq_120_mvl/mxv
	.byte	W06
	.byte		        56*seq_120_mvl/mxv
	.byte	W15
	.byte		        62*seq_120_mvl/mxv
	.byte	W02
	.byte		        37*seq_120_mvl/mxv
	.byte	W02
	.byte		        44*seq_120_mvl/mxv
	.byte	W01
	.byte		        50*seq_120_mvl/mxv
	.byte	W02
	.byte		        56*seq_120_mvl/mxv
	.byte	W02
	.byte		        62*seq_120_mvl/mxv
	.byte	W05
	.byte		N05   , Fn2 
	.byte		N05   , Bn2 
	.byte		N05   , En3 
	.byte	W01
	.byte		VOL   , 37*seq_120_mvl/mxv
	.byte	W02
	.byte		        44*seq_120_mvl/mxv
	.byte	W01
	.byte		        50*seq_120_mvl/mxv
	.byte	W07
	.byte		        62*seq_120_mvl/mxv
	.byte	W01
	.byte		N56   , Gn2 
	.byte		N56   , Cn3 
	.byte		N56   , Fn3 
	.byte	W04
	.byte		VOL   , 56*seq_120_mvl/mxv
	.byte	W01
	.byte		        50*seq_120_mvl/mxv
	.byte	W02
	.byte		        44*seq_120_mvl/mxv
	.byte	W01
	.byte		        37*seq_120_mvl/mxv
	.byte	W02
	.byte		        31*seq_120_mvl/mxv
	.byte	W01
	.byte		        25*seq_120_mvl/mxv
	.byte	W02
	.byte		        18*seq_120_mvl/mxv
	.byte	W08
	.byte		        25*seq_120_mvl/mxv
	.byte	W05
	.byte		        31*seq_120_mvl/mxv
	.byte	W05
	.byte		        37*seq_120_mvl/mxv
	.byte	W05
	.byte		        44*seq_120_mvl/mxv
	.byte	W06
	.byte		        50*seq_120_mvl/mxv
	.byte	W04
	.byte		        56*seq_120_mvl/mxv
	.byte	W03
	.byte		        62*seq_120_mvl/mxv
	.byte	W03
	.byte		        69*seq_120_mvl/mxv
	.byte	W03
	.byte		        75*seq_120_mvl/mxv
	.byte	W15
	.byte		        62*seq_120_mvl/mxv
	.byte	W02
	.byte		N07   , Gs2 
	.byte		N07   , Dn3 
	.byte		N07   , Gn3 
	.byte	W24
	.byte		N80   , Fs2 
	.byte		N80   , Bn2 
	.byte		N80   , En3 
	.byte	W04
	.byte		VOL   , 56*seq_120_mvl/mxv
	.byte	W01
	.byte		        50*seq_120_mvl/mxv
	.byte	W01
	.byte		        44*seq_120_mvl/mxv
	.byte	W01
	.byte		        37*seq_120_mvl/mxv
	.byte	W02
	.byte		        31*seq_120_mvl/mxv
	.byte	W02
	.byte	W10
	.byte		        37*seq_120_mvl/mxv
	.byte	W11
	.byte		        44*seq_120_mvl/mxv
	.byte	W10
	.byte		        50*seq_120_mvl/mxv
	.byte	W08
	.byte		        56*seq_120_mvl/mxv
	.byte	W06
	.byte		        50*seq_120_mvl/mxv
	.byte	W05
	.byte		        44*seq_120_mvl/mxv
	.byte	W06
	.byte		        37*seq_120_mvl/mxv
	.byte	W05
	.byte		        31*seq_120_mvl/mxv
	.byte	W06
	.byte		        25*seq_120_mvl/mxv
	.byte	W01
	.byte		BEND  , c_v-6
	.byte	W01
	.byte		        c_v-11
	.byte	W01
	.byte		        c_v-16
	.byte	W01
	.byte		VOL   , 18*seq_120_mvl/mxv
	.byte	W23
	.byte		BEND  , c_v+0
	.byte	W01
	.byte		MOD   , 20
	.byte	W01
	.byte		VOL   , 12*seq_120_mvl/mxv
	.byte	W01
	.byte		N44   , Gn2 
	.byte		N44   , Cn3 
	.byte		N44   , Fn3 
	.byte	W01
	.byte		VOL   , 18*seq_120_mvl/mxv
	.byte	W08
	.byte		        25*seq_120_mvl/mxv
	.byte	W01
	.byte		MOD   , 40
	.byte	W04
	.byte		VOL   , 31*seq_120_mvl/mxv
	.byte	W05
	.byte		        37*seq_120_mvl/mxv
	.byte	W05
	.byte		        44*seq_120_mvl/mxv
	.byte	W06
	.byte		        50*seq_120_mvl/mxv
	.byte	W04
	.byte		MOD   , 60
	.byte		VOL   , 56*seq_120_mvl/mxv
	.byte	W03
	.byte		        62*seq_120_mvl/mxv
	.byte	W03
	.byte		        69*seq_120_mvl/mxv
	.byte	W03
	.byte		        75*seq_120_mvl/mxv
	.byte	W15
	.byte		        62*seq_120_mvl/mxv
	.byte	W02
	.byte		N09   , Gs2 
	.byte		N09   , Dn3 
	.byte		N09   , Gn3 
	.byte	W01
	.byte		VOL   , 37*seq_120_mvl/mxv
	.byte	W02
	.byte		        44*seq_120_mvl/mxv
	.byte	W01
	.byte		        50*seq_120_mvl/mxv
	.byte	W02
	.byte		        56*seq_120_mvl/mxv
	.byte	W02
	.byte		        62*seq_120_mvl/mxv
	.byte	W15
	.byte		MOD   , 20
	.byte	W01
	.byte		N80   , Fs2 
	.byte		N80   , Bn2 
	.byte		N80   , En3 
	.byte	W04
	.byte		VOL   , 56*seq_120_mvl/mxv
	.byte	W01
	.byte		        50*seq_120_mvl/mxv
	.byte	W01
	.byte		        44*seq_120_mvl/mxv
	.byte	W01
	.byte		        37*seq_120_mvl/mxv
	.byte	W02
	.byte		        31*seq_120_mvl/mxv
	.byte	W02
	.byte	W10
	.byte		        37*seq_120_mvl/mxv
	.byte	W03
	.byte		MOD   , 40
	.byte	W08
	.byte		VOL   , 44*seq_120_mvl/mxv
	.byte	W10
	.byte		        50*seq_120_mvl/mxv
	.byte	W08
	.byte		        56*seq_120_mvl/mxv
	.byte	W06
	.byte		        50*seq_120_mvl/mxv
	.byte	W05
	.byte		        44*seq_120_mvl/mxv
	.byte	W06
	.byte		        37*seq_120_mvl/mxv
	.byte	W04
	.byte		MOD   , 60
	.byte	W01
	.byte		VOL   , 31*seq_120_mvl/mxv
	.byte	W06
	.byte		        25*seq_120_mvl/mxv
	.byte	W02
	.byte		MOD   , 0
	.byte	W01
	.byte		VOL   , 18*seq_120_mvl/mxv
	.byte	W24
	.byte	W01
	.byte		MOD   , 20
	.byte	W01
	.byte		VOL   , 12*seq_120_mvl/mxv
	.byte	W01
	.byte		N44   , Fn2 
	.byte		N44   , As2 
	.byte		N44   , Ds3 
	.byte	W01
	.byte		VOL   , 18*seq_120_mvl/mxv
	.byte	W08
	.byte		        25*seq_120_mvl/mxv
	.byte	W01
	.byte		MOD   , 40
	.byte	W04
	.byte		VOL   , 31*seq_120_mvl/mxv
	.byte	W05
	.byte		        37*seq_120_mvl/mxv
	.byte	W05
	.byte		        44*seq_120_mvl/mxv
	.byte	W06
	.byte		        50*seq_120_mvl/mxv
	.byte	W04
	.byte		MOD   , 60
	.byte		VOL   , 56*seq_120_mvl/mxv
	.byte	W03
	.byte		        62*seq_120_mvl/mxv
	.byte	W03
	.byte		        69*seq_120_mvl/mxv
	.byte	W03
	.byte		        75*seq_120_mvl/mxv
	.byte	W15
	.byte		        62*seq_120_mvl/mxv
	.byte	W02
	.byte		N09   , Fs2 
	.byte		N09   , Cn3 
	.byte		N09   , Fn3 
	.byte	W01
	.byte		VOL   , 37*seq_120_mvl/mxv
	.byte	W02
	.byte		        44*seq_120_mvl/mxv
	.byte	W01
	.byte		        50*seq_120_mvl/mxv
	.byte	W02
	.byte		        56*seq_120_mvl/mxv
	.byte	W02
	.byte		        62*seq_120_mvl/mxv
	.byte	W15
	.byte		MOD   , 20
	.byte	W01
	.byte		N80   , En2 
	.byte		N80   , An2 
	.byte		N80   , Dn3 
	.byte	W04
	.byte		VOL   , 56*seq_120_mvl/mxv
	.byte	W01
	.byte		        50*seq_120_mvl/mxv
	.byte	W01
	.byte		        44*seq_120_mvl/mxv
	.byte	W01
	.byte		        37*seq_120_mvl/mxv
	.byte	W02
	.byte		        31*seq_120_mvl/mxv
	.byte	W02
	.byte	W10
	.byte		        37*seq_120_mvl/mxv
	.byte	W03
	.byte		MOD   , 40
	.byte	W08
	.byte		VOL   , 44*seq_120_mvl/mxv
	.byte	W10
	.byte		        50*seq_120_mvl/mxv
	.byte	W08
	.byte		        56*seq_120_mvl/mxv
	.byte	W06
	.byte		        50*seq_120_mvl/mxv
	.byte	W05
	.byte		        44*seq_120_mvl/mxv
	.byte	W06
	.byte		        37*seq_120_mvl/mxv
	.byte	W04
	.byte		MOD   , 60
	.byte	W01
	.byte		VOL   , 31*seq_120_mvl/mxv
	.byte	W06
	.byte		        25*seq_120_mvl/mxv
	.byte	W02
	.byte		MOD   , 0
	.byte	W01
	.byte		VOL   , 18*seq_120_mvl/mxv
	.byte	W24
	.byte		MOD   , 60
	.byte	W01
	.byte		VOL   , 62*seq_120_mvl/mxv
	.byte	W01
	.byte		N88   , Ds2 
	.byte		N88   , Gs2 
	.byte		N88   , Cs3 
	.byte	W09
	.byte		VOL   , 56*seq_120_mvl/mxv
	.byte	W02
	.byte		        50*seq_120_mvl/mxv
	.byte	W01
	.byte		MOD   , 20
	.byte	W01
	.byte		VOL   , 44*seq_120_mvl/mxv
	.byte	W01
	.byte		        37*seq_120_mvl/mxv
	.byte	W04
	.byte		        31*seq_120_mvl/mxv
	.byte	W05
	.byte		        25*seq_120_mvl/mxv
	.byte	W03
	.byte		        31*seq_120_mvl/mxv
	.byte	W02
	.byte		MOD   , 40
	.byte	W02
	.byte		VOL   , 37*seq_120_mvl/mxv
	.byte	W03
	.byte		        44*seq_120_mvl/mxv
	.byte	W10
	.byte		        50*seq_120_mvl/mxv
	.byte	W06
	.byte		        56*seq_120_mvl/mxv
	.byte	W04
	.byte		        50*seq_120_mvl/mxv
	.byte	W05
	.byte		        44*seq_120_mvl/mxv
	.byte	W05
	.byte		        37*seq_120_mvl/mxv
	.byte	W02
	.byte		MOD   , 60
	.byte	W02
	.byte		VOL   , 31*seq_120_mvl/mxv
	.byte	W04
	.byte		        25*seq_120_mvl/mxv
	.byte	W05
	.byte		        18*seq_120_mvl/mxv
	.byte	W03
	.byte		        12*seq_120_mvl/mxv
	.byte	W05
	.byte		        6*seq_120_mvl/mxv
	.byte	W03
	.byte		MOD   , 20
	.byte	W01
	.byte		VOL   , 0*seq_120_mvl/mxv
	.byte	W06
	.byte		BEND  , c_v+0
	.byte	W01
	.byte		VOL   , 12*seq_120_mvl/mxv
	.byte	W01
	.byte		N90   , Ds3 
	.byte		N90   , Gs3 
	.byte		N90   , Cs4 
	.byte	W06
	.byte		VOL   , 18*seq_120_mvl/mxv
	.byte	W10
	.byte		        25*seq_120_mvl/mxv
	.byte	W09
	.byte		        31*seq_120_mvl/mxv
	.byte	W05
	.byte		MOD   , 40
	.byte	W03
	.byte		VOL   , 37*seq_120_mvl/mxv
	.byte	W10
	.byte		        44*seq_120_mvl/mxv
	.byte	W09
	.byte		        50*seq_120_mvl/mxv
	.byte	W10
	.byte		        56*seq_120_mvl/mxv
	.byte	W09
	.byte		        62*seq_120_mvl/mxv
	.byte	W08
	.byte		        50*seq_120_mvl/mxv
	.byte	W08
	.byte		        37*seq_120_mvl/mxv
	.byte	W08
	.byte		        62*seq_120_mvl/mxv
	.byte	W01
	.byte	GOTO
	 .word	seq_120_1 + 0x12
	.byte	FINE

@*********************** Track 03 ***********************@

seq_120_2:
	.byte	KEYSH , seq_120_key+0
	.byte		VOICE , 33
	.byte	W01
	.byte		VOL   , 50*seq_120_mvl/mxv
	.byte	W01
	.byte		PAN   , c_v+0
	.byte	W01
	.byte		LFOS  , 0
	.byte	W01
	.byte		MODT  , mod_vib
	.byte	W20
	.byte	W18
	.byte		N02   , As1 , v060
	.byte		N02   , As2 
	.byte	W02
	.byte		        As1 , v080
	.byte		N02   , As2 
	.byte	W02
	.byte		        As1 , v100
	.byte		N02   , As2 
	.byte	W02
	.byte		        As1 , v120
	.byte		N02   , As2 
	.byte	W06
	.byte		        As1 
	.byte		N02   , As2 
	.byte	W06
	.byte		        As1 , v060
	.byte		N02   , As2 
	.byte	W06
	.byte		        As1 , v120
	.byte		N02   , As2 
	.byte	W06
	.byte		N01   , As2 , v120
	.byte	W06
	.byte		N06
	.byte	W12
	.byte		N01
	.byte	W06
	.byte		N06
	.byte	W12
	.byte		N01
	.byte	W06
	.byte		N04
	.byte	W12
	.byte		N04
	.byte	W06
	.byte		N01   , As2 , v040
	.byte	W06
	.byte		N06   , As2 , v120
	.byte	W30
	.byte	PEND
	.byte	PATT
	 .word	seq_120_2 + 0x35
	.byte	PATT
	 .word	seq_120_2 + 0x35
	.byte	PATT
	 .word	seq_120_2 + 0x35
	.byte		N01   , Bn2 , v120
	.byte	W06
	.byte		N06
	.byte	W12
	.byte		N01
	.byte	W06
	.byte		N06
	.byte	W12
	.byte		N01
	.byte	W06
	.byte		N04
	.byte	W12
	.byte		N04
	.byte	W06
	.byte		N01   , Bn2 , v040
	.byte	W06
	.byte		N06   , Bn2 , v120
	.byte	W30
	.byte	PEND
	.byte	PATT
	 .word	seq_120_2 + 0x5D
	.byte	PATT
	 .word	seq_120_2 + 0x5D
	.byte		N01   , Bn2 , v120
	.byte	W06
	.byte		N06
	.byte	W12
	.byte		N01
	.byte	W06
	.byte		N06
	.byte	W12
	.byte		N01
	.byte	W06
	.byte		N04
	.byte	W06
	.byte		N01   , Bn2 , v040
	.byte	W06
	.byte		N04   , Bn2 , v120
	.byte	W06
	.byte		N01   , Bn2 , v040
	.byte	W06
	.byte		N06   , Bn2 , v120
	.byte	W06
	.byte		N02   , As1 
	.byte	W06
	.byte		N02
	.byte	W06
	.byte		        As1 , v060
	.byte	W06
	.byte		        As1 , v120
	.byte	W06
	.byte	PEND
	.byte	PATT
	 .word	seq_120_2 + 0x35
	.byte	PATT
	 .word	seq_120_2 + 0x35
	.byte	PATT
	 .word	seq_120_2 + 0x35
	.byte	PATT
	 .word	seq_120_2 + 0x35
	.byte	PATT
	 .word	seq_120_2 + 0x5D
	.byte	PATT
	 .word	seq_120_2 + 0x5D
	.byte	PATT
	 .word	seq_120_2 + 0x5D
	.byte	PATT
	 .word	seq_120_2 + 0x80
	.byte	PATT
	 .word	seq_120_2 + 0x35
	.byte	PATT
	 .word	seq_120_2 + 0x35
	.byte	PATT
	 .word	seq_120_2 + 0x35
	.byte	PATT
	 .word	seq_120_2 + 0x35
	.byte	PATT
	 .word	seq_120_2 + 0x5D
	.byte	PATT
	 .word	seq_120_2 + 0x5D
	.byte	PATT
	 .word	seq_120_2 + 0x5D
	.byte	PATT
	 .word	seq_120_2 + 0x80
	.byte		N04   , Ds2 , v120
	.byte	W01
	.byte		        Ds3 , v080
	.byte	W05
	.byte		N03   , Ds2 , v120
	.byte	W01
	.byte		        Ds3 , v080
	.byte	W05
	.byte		        Ds2 , v120
	.byte	W01
	.byte		        Ds3 , v080
	.byte	W05
	.byte		        Ds2 , v100
	.byte	W01
	.byte		        Ds3 , v060
	.byte	W76
	.byte	W01
	.byte	PEND
	.byte	W96
	.byte	PATT
	 .word	seq_120_2 + 0xFA
	.byte	W96
	.byte		N04   , Fn2 , v120
	.byte	W01
	.byte		        Fn3 , v080
	.byte	W05
	.byte		N03   , Fn2 , v120
	.byte	W01
	.byte		        Fn3 , v080
	.byte	W05
	.byte		        Fn2 , v120
	.byte	W01
	.byte		        Fn3 , v080
	.byte	W05
	.byte		        Fn2 , v100
	.byte	W01
	.byte		        Fn3 , v060
	.byte	W76
	.byte	W01
	.byte	W96
	.byte	W96
	.byte	W96
	.byte	W96
	.byte	W96
	.byte	W96
	.byte	W96
	.byte	W96
	.byte	W18
	.byte		N02   , As1 
	.byte	W02
	.byte		        As1 , v080
	.byte	W02
	.byte		        As1 , v100
	.byte	W02
	.byte		        As1 , v120
	.byte	W06
	.byte		N02
	.byte	W06
	.byte		        As1 , v060
	.byte	W06
	.byte		        As1 , v120
	.byte	W24
	.byte		        As1 , v060
	.byte	W02
	.byte		        As1 , v080
	.byte	W02
	.byte		        As1 , v100
	.byte	W02
	.byte		        As1 , v120
	.byte	W06
	.byte		N02
	.byte	W06
	.byte		        As1 , v060
	.byte	W06
	.byte		        As1 , v120
	.byte	W06
	.byte	GOTO
	 .word	seq_120_2 + 0x35
	.byte	FINE

@*********************** Track 04 ***********************@

seq_120_3:
	.byte	KEYSH , seq_120_key+0
	.byte	W06
	.byte		VOICE , 117
	.byte	W01
	.byte		VOL   , 25*seq_120_mvl/mxv
	.byte	W01
	.byte		PAN   , c_v+63
	.byte	W01
	.byte		LFOS  , 100
	.byte	W01
	.byte		MODT  , mod_pan
	.byte	W01
	.byte		MOD   , 40
	.byte	W13
	.byte	W48
	.byte	W96
	.byte	W96
	.byte	W96
	.byte	W96
	.byte	W96
	.byte	W96
	.byte	W96
	.byte	W96
	.byte	W96
	.byte	W96
	.byte	W96
	.byte	W96
	.byte	W96
	.byte	W96
	.byte	W96
	.byte	W96
	.byte	W12
	.byte		N02   , En2 , v120
	.byte	W02
	.byte		N01   , En2 , v060
	.byte	W02
	.byte		N02   , En2 , v040
	.byte	W02
	.byte		        An2 , v120
	.byte	W02
	.byte		N01   , An2 , v060
	.byte	W02
	.byte		N02   , An2 , v040
	.byte	W02
	.byte		        Dn3 , v120
	.byte	W02
	.byte		N01   , Dn3 , v060
	.byte	W02
	.byte		N02   , Dn3 , v040
	.byte	W02
	.byte		        Cs3 , v120
	.byte	W02
	.byte		N01   , Cs3 , v060
	.byte	W02
	.byte		N02   , Cs3 , v040
	.byte	W13
	.byte		PAN   , c_v-64
	.byte	W01
	.byte		N02   , En3 , v120
	.byte	W02
	.byte		N01   , En3 , v060
	.byte	W02
	.byte		N02   , En3 , v040
	.byte	W02
	.byte		        An3 , v120
	.byte	W02
	.byte		N01   , An3 , v060
	.byte	W02
	.byte		N02   , An3 , v040
	.byte	W02
	.byte		        Dn4 , v120
	.byte	W02
	.byte		N01   , Dn4 , v060
	.byte	W02
	.byte		N02   , Dn4 , v040
	.byte	W02
	.byte		        Cs4 , v120
	.byte	W02
	.byte		N01   , Cs4 , v060
	.byte	W02
	.byte		N02   , Cs4 , v040
	.byte	W24
	.byte	W02
	.byte	W96
	.byte	W96
	.byte	W96
	.byte	W10
	.byte		PAN   , c_v+63
	.byte	W02
	.byte		N02   , Fn2 , v120
	.byte	W02
	.byte		N01   , Fn2 , v060
	.byte	W02
	.byte		N02   , Fn2 , v040
	.byte	W02
	.byte		        As2 , v120
	.byte	W02
	.byte		N01   , As2 , v060
	.byte	W02
	.byte		N02   , As2 , v040
	.byte	W02
	.byte		        Ds3 , v120
	.byte	W02
	.byte		N01   , Ds3 , v060
	.byte	W02
	.byte		N02   , Ds3 , v040
	.byte	W02
	.byte		        Dn3 , v120
	.byte	W02
	.byte		N01   , Dn3 , v060
	.byte	W02
	.byte		N02   , Dn3 , v040
	.byte	W13
	.byte		PAN   , c_v-64
	.byte	W01
	.byte		N02   , Fn3 , v120
	.byte	W02
	.byte		N01   , Fn3 , v060
	.byte	W02
	.byte		N02   , Fn3 , v040
	.byte	W02
	.byte		        As3 , v120
	.byte	W02
	.byte		N01   , As3 , v060
	.byte	W02
	.byte		N02   , As3 , v040
	.byte	W02
	.byte		        Ds4 , v120
	.byte	W02
	.byte		N01   , Ds4 , v060
	.byte	W02
	.byte		N02   , Ds4 , v040
	.byte	W02
	.byte		        Dn4 , v120
	.byte	W02
	.byte		N01   , Dn4 , v060
	.byte	W02
	.byte		N02   , Dn4 , v040
	.byte	W24
	.byte	W02
	.byte	W96
	.byte	W10
	.byte		PAN   , c_v+63
	.byte	W02
	.byte		N02   , Fn2 , v120
	.byte	W02
	.byte		N01   , Fn2 , v060
	.byte	W02
	.byte		N02   , Fn2 , v040
	.byte	W02
	.byte		        As2 , v120
	.byte	W02
	.byte		N01   , As2 , v060
	.byte	W02
	.byte		N02   , As2 , v040
	.byte	W02
	.byte		        Ds3 , v120
	.byte	W02
	.byte		N01   , Ds3 , v060
	.byte	W02
	.byte		N02   , Ds3 , v040
	.byte	W02
	.byte		        Dn3 , v120
	.byte	W02
	.byte		N01   , Dn3 , v060
	.byte	W02
	.byte		N02   , Dn3 , v040
	.byte	W13
	.byte		PAN   , c_v-64
	.byte	W01
	.byte		N02   , Fn3 , v120
	.byte	W02
	.byte		N01   , Fn3 , v060
	.byte	W02
	.byte		N02   , Fn3 , v040
	.byte	W02
	.byte		        As3 , v120
	.byte	W02
	.byte		N01   , As3 , v060
	.byte	W02
	.byte		N02   , As3 , v040
	.byte	W02
	.byte		        Ds4 , v120
	.byte	W02
	.byte		N01   , Ds4 , v060
	.byte	W02
	.byte		N02   , Ds4 , v040
	.byte	W01
	.byte		PAN   , c_v+0
	.byte	W01
	.byte		N02   , Dn4 , v120
	.byte	W02
	.byte		N01   , Dn4 , v060
	.byte	W02
	.byte		N02   , Dn4 , v040
	.byte	W02
	.byte		        Fn4 , v080
	.byte	W02
	.byte		N01   , Fn4 , v060
	.byte	W02
	.byte		N02   , Fn4 , v040
	.byte	W02
	.byte		        As4 , v080
	.byte	W02
	.byte		N01   , As4 , v060
	.byte	W02
	.byte		N02   , As4 , v040
	.byte	W02
	.byte		        Ds5 , v100
	.byte	W02
	.byte		N01   , Ds5 , v060
	.byte	W02
	.byte		N02   , Ds5 , v040
	.byte	W02
	.byte		        Dn5 , v100
	.byte	W02
	.byte		N01   , Dn5 , v060
	.byte	W02
	.byte		N02   , Dn5 , v040
	.byte	W02
	.byte	W12
	.byte		        Fn4 , v120
	.byte	W02
	.byte		N01   , Fn4 , v060
	.byte	W02
	.byte		N02   , Fn4 , v040
	.byte	W14
	.byte		        Ds4 , v120
	.byte	W02
	.byte		N01   , Ds4 , v060
	.byte	W02
	.byte		N02   , Ds4 , v040
	.byte	W08
	.byte		        Dn4 , v120
	.byte	W02
	.byte		N01   , Dn4 , v060
	.byte	W02
	.byte		N02   , Dn4 , v040
	.byte	W14
	.byte		        Cs4 , v120
	.byte	W02
	.byte		N01   , Cs4 , v060
	.byte	W02
	.byte		N02   , Cs4 , v040
	.byte	W32
	.byte	W96
	.byte	W96
	.byte	W96
	.byte	W96
	.byte	W96
	.byte	W96
	.byte	W05
	.byte		PAN   , c_v+26
	.byte	W01
	.byte		N02   , En2 , v120
	.byte	W02
	.byte		N01   , En2 , v060
	.byte	W02
	.byte		N02   , En2 , v040
	.byte	W02
	.byte		        An2 , v120
	.byte	W02
	.byte		N01   , An2 , v060
	.byte	W02
	.byte		N02   , An2 , v040
	.byte	W02
	.byte		        Dn3 , v120
	.byte	W02
	.byte		N01   , Dn3 , v060
	.byte	W02
	.byte		N02   , Dn3 , v040
	.byte	W01
	.byte		PAN   , c_v-24
	.byte	W01
	.byte		N02   , Bn3 , v120
	.byte	W02
	.byte		N01   , Bn3 , v060
	.byte	W02
	.byte		N02   , Bn3 , v040
	.byte	W02
	.byte		        En4 , v120
	.byte	W02
	.byte		N01   , En4 , v060
	.byte	W02
	.byte		N02   , En4 , v040
	.byte	W02
	.byte		        An4 , v120
	.byte	W02
	.byte		N01   , An4 , v060
	.byte	W02
	.byte		N02   , An4 , v040
	.byte	W02
	.byte		        Dn5 , v120
	.byte	W02
	.byte		N01   , Dn5 , v060
	.byte	W02
	.byte		N02   , Dn5 , v040
	.byte	W48
	.byte	W02
	.byte	PEND
	.byte	W11
	.byte		PAN   , c_v+0
	.byte	W02
	.byte		N02   , Gs3 , v120
	.byte	W02
	.byte		N01   , Gs3 , v060
	.byte	W02
	.byte		N02   , Gs3 , v040
	.byte	W14
	.byte		        Gs3 , v120
	.byte	W02
	.byte		N01   , Gs3 , v060
	.byte	W02
	.byte		N02   , Gs3 , v040
	.byte	W14
	.byte		        Gs3 , v120
	.byte	W02
	.byte		N01   , Gs3 , v060
	.byte	W02
	.byte		N02   , Gs3 , v040
	.byte	W14
	.byte		        Gs3 , v120
	.byte	W02
	.byte		N01   , Gs3 , v060
	.byte	W02
	.byte		N02   , Gs3 , v040
	.byte	W24
	.byte	W01
	.byte	PEND
	.byte	PATT
	 .word	seq_120_3 + 0x1AF
	.byte	PATT
	 .word	seq_120_3 + 0x207
	.byte	W05
	.byte		PAN   , c_v+26
	.byte	W01
	.byte		N02   , Dn2 , v120
	.byte	W02
	.byte		N01   , Dn2 , v060
	.byte	W02
	.byte		N02   , Dn2 , v040
	.byte	W02
	.byte		        Gn2 , v120
	.byte	W02
	.byte		N01   , Gn2 , v060
	.byte	W02
	.byte		N02   , Gn2 , v040
	.byte	W02
	.byte		        Cn3 , v120
	.byte	W02
	.byte		N01   , Cn3 , v060
	.byte	W02
	.byte		N02   , Cn3 , v040
	.byte	W01
	.byte		PAN   , c_v-24
	.byte	W01
	.byte		N02   , An3 , v120
	.byte	W02
	.byte		N01   , An3 , v060
	.byte	W02
	.byte		N02   , An3 , v040
	.byte	W02
	.byte		        Dn4 , v120
	.byte	W02
	.byte		N01   , Dn4 , v060
	.byte	W02
	.byte		N02   , Dn4 , v040
	.byte	W02
	.byte		        Gn4 , v120
	.byte	W02
	.byte		N01   , Gn4 , v060
	.byte	W02
	.byte		N02   , Gn4 , v040
	.byte	W02
	.byte		        Cn5 , v120
	.byte	W02
	.byte		N01   , Cn5 , v060
	.byte	W02
	.byte		N02   , Cn5 , v040
	.byte	W48
	.byte	W02
	.byte	W11
	.byte		PAN   , c_v+0
	.byte	W02
	.byte		N02   , Fs3 , v120
	.byte	W02
	.byte		N01   , Fs3 , v060
	.byte	W02
	.byte		N02   , Fs3 , v040
	.byte	W14
	.byte		        Fs3 , v120
	.byte	W02
	.byte		N01   , Fs3 , v060
	.byte	W02
	.byte		N02   , Fs3 , v040
	.byte	W14
	.byte		        Fs3 , v120
	.byte	W02
	.byte		N01   , Fs3 , v060
	.byte	W02
	.byte		N02   , Fs3 , v040
	.byte	W14
	.byte		        Fs3 , v120
	.byte	W02
	.byte		N01   , Fs3 , v060
	.byte	W02
	.byte		N02   , Fs3 , v040
	.byte	W24
	.byte	W01
	.byte	W11
	.byte		PAN   , c_v+0
	.byte	W01
	.byte		N02   , Fn3 , v120
	.byte	W02
	.byte		N01   , Fn3 , v060
	.byte	W02
	.byte		N02   , Fn3 , v040
	.byte	W14
	.byte		        Fn3 , v120
	.byte	W02
	.byte		N01   , Fn3 , v060
	.byte	W02
	.byte		N02   , Fn3 , v040
	.byte	W14
	.byte		        Fn3 , v120
	.byte	W02
	.byte		N01   , Fn3 , v060
	.byte	W02
	.byte		N02   , Fn3 , v040
	.byte	W14
	.byte		        Fn3 , v120
	.byte	W02
	.byte		N01   , Fn3 , v060
	.byte	W02
	.byte		N02   , Fn3 , v040
	.byte	W24
	.byte	W01
	.byte		PAN   , c_v+63
	.byte	W01
	.byte	W96
	.byte	GOTO
	 .word	seq_120_3 + 0x16
	.byte	FINE

@*********************** Track 05 ***********************@

seq_120_4:
	.byte	KEYSH , seq_120_key+0
	.byte		VOICE , 32
	.byte	W01
	.byte		VOL   , 62*seq_120_mvl/mxv
	.byte	W01
	.byte		PAN   , c_v-24
	.byte	W01
	.byte		LFOS  , 40
	.byte	W01
	.byte		MODT  , mod_pan
	.byte	W20
	.byte	W48
	.byte		N01   , Cn1 , v120
	.byte	W06
	.byte		        Cn2 
	.byte	W12
	.byte		        Cn1 , v080
	.byte	W06
	.byte		N06   , Cn2 , v120
	.byte	W06
	.byte		N03   , Fn1 , v060
	.byte	W06
	.byte		N05   , As1 , v100
	.byte	W12
	.byte		N03   , Cn2 , v120
	.byte	W06
	.byte		N01   , Cn1 , v080
	.byte	W06
	.byte		N06   , As1 , v120
	.byte	W06
	.byte		N03   , Cn2 , v060
	.byte	W30
	.byte	PEND
	.byte	PATT
	 .word	seq_120_4 + 0x12
	.byte	PATT
	 .word	seq_120_4 + 0x12
	.byte	PATT
	 .word	seq_120_4 + 0x12
	.byte		N01   , Cs1 , v120
	.byte	W06
	.byte		        Cs2 
	.byte	W12
	.byte		        Cs1 , v080
	.byte	W06
	.byte		N06   , Cs2 , v120
	.byte	W06
	.byte		N03   , Fs1 , v060
	.byte	W06
	.byte		N05   , Bn1 , v100
	.byte	W12
	.byte		N03   , Cs2 , v120
	.byte	W06
	.byte		N01   , Cs1 , v080
	.byte	W06
	.byte		N06   , Bn1 , v120
	.byte	W06
	.byte		N03   , Cs2 , v060
	.byte	W30
	.byte	PEND
	.byte	PATT
	 .word	seq_120_4 + 0x47
	.byte	PATT
	 .word	seq_120_4 + 0x47
	.byte	PATT
	 .word	seq_120_4 + 0x47
	.byte	PATT
	 .word	seq_120_4 + 0x12
	.byte	PATT
	 .word	seq_120_4 + 0x12
	.byte	PATT
	 .word	seq_120_4 + 0x12
	.byte	PATT
	 .word	seq_120_4 + 0x12
	.byte	PATT
	 .word	seq_120_4 + 0x47
	.byte	PATT
	 .word	seq_120_4 + 0x47
	.byte	PATT
	 .word	seq_120_4 + 0x47
	.byte	PATT
	 .word	seq_120_4 + 0x47
	.byte	PATT
	 .word	seq_120_4 + 0x12
	.byte	PATT
	 .word	seq_120_4 + 0x12
	.byte	PATT
	 .word	seq_120_4 + 0x12
	.byte	PATT
	 .word	seq_120_4 + 0x12
	.byte	PATT
	 .word	seq_120_4 + 0x47
	.byte	PATT
	 .word	seq_120_4 + 0x47
	.byte	PATT
	 .word	seq_120_4 + 0x47
	.byte	PATT
	 .word	seq_120_4 + 0x47
	.byte	W30
	.byte		N01   , Bn1 , v040
	.byte	W06
	.byte		N03   , En2 , v060
	.byte	W06
	.byte		        Fs2 , v080
	.byte	W54
	.byte	W96
	.byte	W96
	.byte	W96
	.byte	W30
	.byte		N01   , Cs2 , v040
	.byte	W06
	.byte		N03   , Fs2 , v060
	.byte	W06
	.byte		        Gs2 , v080
	.byte	W54
	.byte	W96
	.byte	W96
	.byte	W96
	.byte	W96
	.byte	W96
	.byte	W96
	.byte	W96
	.byte	W96
	.byte	W96
	.byte	GOTO
	 .word	seq_120_4 + 0x12
	.byte	FINE

@*********************** Track 06 ***********************@

seq_120_5:
	.byte	KEYSH , seq_120_key+0
	.byte	W06
	.byte		VOICE , 34
	.byte	W01
	.byte		VOL   , 44*seq_120_mvl/mxv
	.byte	W01
	.byte		PAN   , c_v+16
	.byte	W01
	.byte		LFOS  , 60
	.byte	W01
	.byte		MODT  , mod_pan
	.byte	W01
	.byte		BENDR , 12
	.byte	W13
	.byte	W48
	.byte	W96
	.byte	W96
	.byte	W96
	.byte	W96
	.byte	W96
	.byte	W96
	.byte	W96
	.byte	W96
	.byte	W36
	.byte		N01   , An3 , v120
	.byte	W06
	.byte		        An3 , v100
	.byte	W05
	.byte		BEND  , c_v-6
	.byte	W01
	.byte		N06   , En3 , v120
	.byte		N06   , An3 
	.byte	W04
	.byte		BEND  , c_v+0
	.byte	W02
	.byte		N01   , An3 , v080
	.byte	W06
	.byte		        An3 , v120
	.byte	W06
	.byte		N04
	.byte	W30
	.byte	PEND
	.byte	W96
	.byte	PATT
	 .word	seq_120_5 + 0x1E
	.byte	W96
	.byte	W36
	.byte		N01   , As3 , v120
	.byte	W06
	.byte		        As3 , v100
	.byte	W05
	.byte		BEND  , c_v-6
	.byte	W01
	.byte		N06   , Fn3 , v120
	.byte		N06   , As3 
	.byte	W04
	.byte		BEND  , c_v+0
	.byte	W02
	.byte		N01   , As3 , v080
	.byte	W06
	.byte		        As3 , v120
	.byte	W06
	.byte		N04
	.byte	W30
	.byte	PEND
	.byte	W96
	.byte	PATT
	 .word	seq_120_5 + 0x43
	.byte	W96
	.byte	PATT
	 .word	seq_120_5 + 0x1E
	.byte	W96
	.byte	PATT
	 .word	seq_120_5 + 0x1E
	.byte	W96
	.byte	PATT
	 .word	seq_120_5 + 0x43
	.byte	W96
	.byte	PATT
	 .word	seq_120_5 + 0x43
	.byte	W96
	.byte	W96
	.byte	W36
	.byte		N01   , An3 , v120
	.byte	W06
	.byte		        An3 , v100
	.byte	W05
	.byte		BEND  , c_v-6
	.byte	W01
	.byte		N06   , An3 , v120
	.byte	W04
	.byte		BEND  , c_v+0
	.byte	W02
	.byte		N01   , An3 , v080
	.byte	W06
	.byte		        An3 , v120
	.byte	W06
	.byte		N04   , An3 , v080
	.byte	W30
	.byte	W96
	.byte	W96
	.byte	W96
	.byte	W36
	.byte		N01   , Bn3 , v120
	.byte	W06
	.byte		        Bn3 , v100
	.byte	W05
	.byte		BEND  , c_v-6
	.byte	W01
	.byte		N06   , Bn3 , v120
	.byte	W04
	.byte		BEND  , c_v+0
	.byte	W02
	.byte		N01   , Bn3 , v080
	.byte	W06
	.byte		        Bn3 , v120
	.byte	W06
	.byte		N04   , Bn3 , v080
	.byte	W30
	.byte	W96
	.byte	W96
	.byte	W96
	.byte	W96
	.byte	W96
	.byte	W96
	.byte	W96
	.byte	W96
	.byte	GOTO
	 .word	seq_120_5 + 0x16
	.byte	FINE

@*********************** Track 07 ***********************@

seq_120_6:
	.byte	KEYSH , seq_120_key+0
	.byte	W12
	.byte		VOICE , 118
	.byte	W01
	.byte		VOL   , 0*seq_120_mvl/mxv
	.byte	W01
	.byte		PAN   , c_v+0
	.byte	W01
	.byte		LFOS  , 5
	.byte	W01
	.byte		MODT  , mod_vib
	.byte	W01
	.byte		MOD   , 40
	.byte	W07
	.byte		N44   , Dn3 , v120
	.byte	W01
	.byte		VOL   , 6*seq_120_mvl/mxv
	.byte	W03
	.byte		        12*seq_120_mvl/mxv
	.byte	W04
	.byte		        18*seq_120_mvl/mxv
	.byte	W06
	.byte		        25*seq_120_mvl/mxv
	.byte	W05
	.byte		        31*seq_120_mvl/mxv
	.byte	W03
	.byte		        37*seq_120_mvl/mxv
	.byte	W05
	.byte		        44*seq_120_mvl/mxv
	.byte	W03
	.byte		        50*seq_120_mvl/mxv
	.byte	W04
	.byte		        56*seq_120_mvl/mxv
	.byte	W05
	.byte		        50*seq_120_mvl/mxv
	.byte	W09
	.byte	W96
	.byte	W96
	.byte	W96
	.byte	W96
	.byte	W96
	.byte	W96
	.byte	W96
	.byte	W40
	.byte	W01
	.byte		VOL   , 0*seq_120_mvl/mxv
	.byte	W01
	.byte		N52   , Dn3 , v080
	.byte	W06
	.byte		VOL   , 6*seq_120_mvl/mxv
	.byte	W04
	.byte		        12*seq_120_mvl/mxv
	.byte	W04
	.byte		        18*seq_120_mvl/mxv
	.byte	W06
	.byte		        25*seq_120_mvl/mxv
	.byte	W05
	.byte		        31*seq_120_mvl/mxv
	.byte	W03
	.byte		        37*seq_120_mvl/mxv
	.byte	W05
	.byte		        44*seq_120_mvl/mxv
	.byte	W03
	.byte		        50*seq_120_mvl/mxv
	.byte	W04
	.byte		        56*seq_120_mvl/mxv
	.byte	W05
	.byte		        62*seq_120_mvl/mxv
	.byte	W09
	.byte	PEND
	.byte	W96
	.byte	W96
	.byte	W96
	.byte	W96
	.byte	W96
	.byte	W96
	.byte	W96
	.byte	PATT
	 .word	seq_120_6 + 0x35
	.byte	W96
	.byte	W96
	.byte	W96
	.byte	W96
	.byte	W96
	.byte	W96
	.byte	W96
	.byte	PATT
	 .word	seq_120_6 + 0x35
	.byte	W96
	.byte	W96
	.byte	W96
	.byte	W40
	.byte	W01
	.byte		VOL   , 0*seq_120_mvl/mxv
	.byte	W01
	.byte		N52   , Fs2 , v080
	.byte	W06
	.byte		VOL   , 6*seq_120_mvl/mxv
	.byte	W04
	.byte		        12*seq_120_mvl/mxv
	.byte	W04
	.byte		        18*seq_120_mvl/mxv
	.byte	W06
	.byte		        25*seq_120_mvl/mxv
	.byte	W05
	.byte		        31*seq_120_mvl/mxv
	.byte	W03
	.byte		        37*seq_120_mvl/mxv
	.byte	W05
	.byte		        44*seq_120_mvl/mxv
	.byte	W03
	.byte		        50*seq_120_mvl/mxv
	.byte	W04
	.byte		        56*seq_120_mvl/mxv
	.byte	W05
	.byte		        62*seq_120_mvl/mxv
	.byte	W09
	.byte	W96
	.byte	W96
	.byte	W96
	.byte	W96
	.byte	W96
	.byte	W96
	.byte	W96
	.byte	W96
	.byte	W96
	.byte	W40
	.byte	W01
	.byte		        0*seq_120_mvl/mxv
	.byte	W01
	.byte		N52   , Dn3 , v120
	.byte	W06
	.byte		VOL   , 6*seq_120_mvl/mxv
	.byte	W04
	.byte		        12*seq_120_mvl/mxv
	.byte	W04
	.byte		        18*seq_120_mvl/mxv
	.byte	W06
	.byte		        25*seq_120_mvl/mxv
	.byte	W05
	.byte		        31*seq_120_mvl/mxv
	.byte	W03
	.byte		        37*seq_120_mvl/mxv
	.byte	W05
	.byte		        44*seq_120_mvl/mxv
	.byte	W03
	.byte		        50*seq_120_mvl/mxv
	.byte	W04
	.byte		        56*seq_120_mvl/mxv
	.byte	W05
	.byte		        62*seq_120_mvl/mxv
	.byte	W09
	.byte	GOTO
	 .word	seq_120_6 + 0x2E
	.byte	FINE

@*********************** Track 08 ***********************@

seq_120_7:
	.byte	KEYSH , seq_120_key+0
	.byte	W12
	.byte		VOICE , 100
	.byte	W01
	.byte		VOL   , 80*seq_120_mvl/mxv
	.byte	W01
	.byte		PAN   , c_v+0
	.byte	W01
	.byte		LFOS  , 30
	.byte	W01
	.byte		MODT  , mod_vib
	.byte	W01
	.byte		BENDR , 12
	.byte	W07
	.byte	W48
	.byte		N06   , Cn2 , v120
	.byte	W13
	.byte		N01   , Cn3 
	.byte	W05
	.byte		BEND  , c_v-7
	.byte	W01
	.byte		N24
	.byte	W01
	.byte		BEND  , c_v-5
	.byte	W01
	.byte		        c_v-3
	.byte	W01
	.byte		        c_v+0
	.byte	W14
	.byte		        c_v-3
	.byte	W01
	.byte		        c_v-6
	.byte	W01
	.byte		        c_v-10
	.byte	W01
	.byte		        c_v-14
	.byte	W01
	.byte		        c_v-18
	.byte	W01
	.byte		        c_v-23
	.byte	W01
	.byte		        c_v-27
	.byte	W01
	.byte		        c_v-32
	.byte	W01
	.byte		        c_v-41
	.byte	W01
	.byte		        c_v-46
	.byte	W01
	.byte		        c_v-52
	.byte	W01
	.byte		        c_v+0
	.byte	W01
	.byte		N01   , Cn2 
	.byte	W07
	.byte		N04   , An2 
	.byte	W06
	.byte		N01   , As2 
	.byte	W06
	.byte		N12
	.byte	W12
	.byte		N17   , An2 
	.byte	W04
	.byte		MOD   , 10
	.byte	W02
	.byte		        20
	.byte	W07
	.byte		        30
	.byte	W03
	.byte		        0
	.byte	W01
	.byte	PEND
	.byte		N06   , Cn2 , v120
	.byte	W13
	.byte		N01   , Cn3 
	.byte	W05
	.byte		BEND  , c_v-7
	.byte	W01
	.byte		N24
	.byte	W01
	.byte		BEND  , c_v-5
	.byte	W01
	.byte		        c_v-3
	.byte	W01
	.byte		        c_v+0
	.byte	W14
	.byte		        c_v-3
	.byte	W01
	.byte		        c_v-6
	.byte	W01
	.byte		        c_v-10
	.byte	W01
	.byte		        c_v-14
	.byte	W01
	.byte		        c_v-18
	.byte	W01
	.byte		        c_v-23
	.byte	W01
	.byte		        c_v-27
	.byte	W01
	.byte		        c_v-32
	.byte	W01
	.byte		        c_v-41
	.byte	W01
	.byte		        c_v-46
	.byte	W01
	.byte		        c_v-52
	.byte	W01
	.byte		        c_v+0
	.byte	W01
	.byte		N01   , Cn2 
	.byte	W07
	.byte		N04   , Bn2 
	.byte	W06
	.byte		N01   , As2 
	.byte	W06
	.byte		N28
	.byte	W16
	.byte		MOD   , 10
	.byte	W02
	.byte		        20
	.byte	W07
	.byte		        30
	.byte	W03
	.byte		        0
	.byte	W01
	.byte	PEND
	.byte	PATT
	 .word	seq_120_7 + 0x16
	.byte	PATT
	 .word	seq_120_7 + 0x59
	.byte		N06   , Cs2 , v120
	.byte	W13
	.byte		N01   , Cs3 
	.byte	W05
	.byte		BEND  , c_v-7
	.byte	W01
	.byte		N24
	.byte	W01
	.byte		BEND  , c_v-5
	.byte	W01
	.byte		        c_v-3
	.byte	W01
	.byte		        c_v+0
	.byte	W14
	.byte		        c_v-3
	.byte	W01
	.byte		        c_v-6
	.byte	W01
	.byte		        c_v-10
	.byte	W01
	.byte		        c_v-14
	.byte	W01
	.byte		        c_v-18
	.byte	W01
	.byte		        c_v-23
	.byte	W01
	.byte		        c_v-27
	.byte	W01
	.byte		        c_v-32
	.byte	W01
	.byte		        c_v-41
	.byte	W01
	.byte		        c_v-46
	.byte	W01
	.byte		        c_v-52
	.byte	W01
	.byte		        c_v+0
	.byte	W01
	.byte		N01   , Cs2 
	.byte	W07
	.byte		N04   , As2 
	.byte	W06
	.byte		N01   , Bn2 
	.byte	W06
	.byte		N12
	.byte	W12
	.byte		N17   , As2 
	.byte	W04
	.byte		MOD   , 10
	.byte	W02
	.byte		        20
	.byte	W07
	.byte		        30
	.byte	W03
	.byte		        0
	.byte	W01
	.byte	PEND
	.byte		N06   , Cs2 , v120
	.byte	W13
	.byte		N01   , Cs3 
	.byte	W05
	.byte		BEND  , c_v-7
	.byte	W01
	.byte		N24
	.byte	W01
	.byte		BEND  , c_v-5
	.byte	W01
	.byte		        c_v-3
	.byte	W01
	.byte		        c_v+0
	.byte	W14
	.byte		        c_v-3
	.byte	W01
	.byte		        c_v-6
	.byte	W01
	.byte		        c_v-10
	.byte	W01
	.byte		        c_v-14
	.byte	W01
	.byte		        c_v-18
	.byte	W01
	.byte		        c_v-23
	.byte	W01
	.byte		        c_v-27
	.byte	W01
	.byte		        c_v-32
	.byte	W01
	.byte		        c_v-41
	.byte	W01
	.byte		        c_v-46
	.byte	W01
	.byte		        c_v-52
	.byte	W01
	.byte		        c_v+0
	.byte	W01
	.byte		N01   , Cs2 
	.byte	W07
	.byte		N04   , Cn3 
	.byte	W06
	.byte		N01   , Bn2 
	.byte	W06
	.byte		N28
	.byte	W16
	.byte		MOD   , 10
	.byte	W02
	.byte		        20
	.byte	W07
	.byte		        30
	.byte	W03
	.byte		        0
	.byte	W01
	.byte	PEND
	.byte	PATT
	 .word	seq_120_7 + 0xA3
	.byte	PATT
	 .word	seq_120_7 + 0xE6
	.byte	PATT
	 .word	seq_120_7 + 0x16
	.byte	PATT
	 .word	seq_120_7 + 0x59
	.byte	PATT
	 .word	seq_120_7 + 0x16
	.byte	PATT
	 .word	seq_120_7 + 0x59
	.byte	PATT
	 .word	seq_120_7 + 0xA3
	.byte	PATT
	 .word	seq_120_7 + 0xE6
	.byte	PATT
	 .word	seq_120_7 + 0xA3
	.byte	PATT
	 .word	seq_120_7 + 0xE6
	.byte	PATT
	 .word	seq_120_7 + 0x16
	.byte	PATT
	 .word	seq_120_7 + 0x59
	.byte	PATT
	 .word	seq_120_7 + 0x16
	.byte	PATT
	 .word	seq_120_7 + 0x59
	.byte	PATT
	 .word	seq_120_7 + 0xA3
	.byte	PATT
	 .word	seq_120_7 + 0xE6
	.byte		N06   , Cs2 , v120
	.byte	W13
	.byte		N01   , Cs3 
	.byte	W05
	.byte		BEND  , c_v-7
	.byte	W01
	.byte		N24
	.byte	W01
	.byte		BEND  , c_v-5
	.byte	W01
	.byte		        c_v-3
	.byte	W01
	.byte		        c_v+0
	.byte	W18
	.byte		        c_v-4
	.byte	W01
	.byte		        c_v-8
	.byte	W01
	.byte		        c_v-13
	.byte	W01
	.byte		        c_v-18
	.byte	W01
	.byte		        c_v-24
	.byte	W01
	.byte		        c_v-30
	.byte	W02
	.byte		        c_v+0
	.byte	W01
	.byte		N01   , Cs2 
	.byte	W07
	.byte		N04   , As2 
	.byte	W06
	.byte		N01   , Bn2 
	.byte	W06
	.byte		N12
	.byte	W12
	.byte		N17   , As2 
	.byte	W04
	.byte		MOD   , 10
	.byte	W02
	.byte		        20
	.byte	W07
	.byte		        30
	.byte	W03
	.byte		        0
	.byte	W01
	.byte		N06   , Cs2 
	.byte	W13
	.byte		N01   , Cs3 
	.byte	W05
	.byte		BEND  , c_v-7
	.byte	W01
	.byte		N24
	.byte	W01
	.byte		BEND  , c_v-5
	.byte	W01
	.byte		        c_v-3
	.byte	W01
	.byte		        c_v+0
	.byte	W18
	.byte		        c_v-4
	.byte	W01
	.byte		        c_v-8
	.byte	W01
	.byte		        c_v-13
	.byte	W01
	.byte		        c_v-18
	.byte	W01
	.byte		        c_v-24
	.byte	W01
	.byte		        c_v-30
	.byte	W02
	.byte		        c_v+0
	.byte	W01
	.byte		N01   , Cs2 
	.byte	W07
	.byte		N04   , Cn3 
	.byte	W06
	.byte		N01   , Bn2 
	.byte	W06
	.byte		N28
	.byte	W16
	.byte		MOD   , 10
	.byte	W02
	.byte		        20
	.byte	W01
	.byte		BEND  , c_v-11
	.byte	W02
	.byte		        c_v-18
	.byte	W01
	.byte		        c_v-28
	.byte	W01
	.byte		        c_v-38
	.byte	W01
	.byte		        c_v-46
	.byte	W01
	.byte		MOD   , 30
	.byte	W01
	.byte		BEND  , c_v-64
	.byte	W01
	.byte		MOD   , 0
	.byte	W01
	.byte		BEND  , c_v+0
	.byte	W01
	.byte		N01   , Ds2 
	.byte	W06
	.byte		BEND  , c_v-26
	.byte	W01
	.byte		N17   , As1 
	.byte	W02
	.byte		BEND  , c_v-16
	.byte	W01
	.byte		        c_v-4
	.byte	W01
	.byte		        c_v+0
	.byte	W01
	.byte		        c_v+1
	.byte	W01
	.byte		        c_v+14
	.byte	W01
	.byte		        c_v+27
	.byte	W01
	.byte		        c_v+39
	.byte	W01
	.byte		        c_v+59
	.byte	W01
	.byte		        c_v+63
	.byte	W01
	.byte		        c_v+60
	.byte	W01
	.byte		        c_v+46
	.byte	W01
	.byte		        c_v+36
	.byte	W01
	.byte		        c_v+27
	.byte	W01
	.byte		        c_v+17
	.byte	W01
	.byte		        c_v+0
	.byte	W01
	.byte		N24   , Ds2 
	.byte	W21
	.byte		MOD   , 10
	.byte	W02
	.byte		        0
	.byte	W01
	.byte		N01
	.byte	W13
	.byte		N10   , Cs2 
	.byte	W24
	.byte		N08   , Gs2 
	.byte	W11
	.byte	W11
	.byte		BEND  , c_v-6
	.byte	W01
	.byte		N36   , Fs2 
	.byte	W03
	.byte		BEND  , c_v+0
	.byte	W24
	.byte	W03
	.byte		        c_v-3
	.byte	W01
	.byte		        c_v-9
	.byte	W01
	.byte		        c_v-16
	.byte	W01
	.byte		        c_v-24
	.byte	W01
	.byte		        c_v-32
	.byte	W01
	.byte		        c_v+0
	.byte	W01
	.byte		N48   , Fs1 
	.byte	W24
	.byte	W02
	.byte		MOD   , 10
	.byte	W03
	.byte		        20
	.byte	W18
	.byte		        0
	.byte	W01
	.byte		N01   , Ds2 
	.byte	W24
	.byte		N24
	.byte	W21
	.byte		MOD   , 10
	.byte	W02
	.byte		        0
	.byte	W01
	.byte		N01
	.byte	W13
	.byte		N10   , Cs2 
	.byte	W24
	.byte		N08   , As2 
	.byte	W11
	.byte	W12
	.byte		N36   , Gs2 
	.byte	W30
	.byte		BEND  , c_v-3
	.byte	W01
	.byte		        c_v-9
	.byte	W01
	.byte		        c_v-16
	.byte	W01
	.byte		        c_v-24
	.byte	W01
	.byte		        c_v-32
	.byte	W01
	.byte		        c_v+0
	.byte	W01
	.byte		N48   , Gs1 
	.byte	W24
	.byte	W02
	.byte		MOD   , 10
	.byte	W03
	.byte		        20
	.byte	W18
	.byte		        0
	.byte	W01
	.byte		N01   , Fn2 
	.byte	W06
	.byte		BEND  , c_v-26
	.byte	W01
	.byte		N17   , Cn2 
	.byte	W02
	.byte		BEND  , c_v-16
	.byte	W01
	.byte		        c_v-4
	.byte	W01
	.byte		        c_v+0
	.byte	W01
	.byte		        c_v+1
	.byte	W01
	.byte		        c_v+14
	.byte	W01
	.byte		        c_v+27
	.byte	W01
	.byte		        c_v+39
	.byte	W01
	.byte		        c_v+59
	.byte	W01
	.byte		        c_v+63
	.byte	W01
	.byte		        c_v+60
	.byte	W01
	.byte		        c_v+46
	.byte	W01
	.byte		        c_v+36
	.byte	W01
	.byte		        c_v+27
	.byte	W01
	.byte		        c_v+17
	.byte	W01
	.byte		        c_v+0
	.byte	W01
	.byte		N24   , Fn2 
	.byte	W21
	.byte		MOD   , 10
	.byte	W02
	.byte		        0
	.byte	W01
	.byte		N01
	.byte	W13
	.byte		N09   , Ds2 
	.byte	W24
	.byte		N08   , As2 
	.byte	W11
	.byte	W11
	.byte		BEND  , c_v-6
	.byte	W01
	.byte		N36   , Gs2 
	.byte	W03
	.byte		BEND  , c_v+0
	.byte	W24
	.byte	W03
	.byte		        c_v-3
	.byte	W01
	.byte		        c_v-9
	.byte	W01
	.byte		        c_v-16
	.byte	W01
	.byte		        c_v-24
	.byte	W01
	.byte		        c_v-32
	.byte	W01
	.byte		        c_v+0
	.byte	W01
	.byte		N23   , Gs1 
	.byte	W24
	.byte		N05
	.byte	W12
	.byte		N56   , As1 
	.byte	W12
	.byte	W14
	.byte		MOD   , 10
	.byte	W03
	.byte		        20
	.byte	W07
	.byte		        0
	.byte	W36
	.byte		N09   , Cn2 
	.byte	W24
	.byte		N23   , An1 
	.byte	W12
	.byte	W12
	.byte		N11   , En2 
	.byte	W12
	.byte		N36   , An2 
	.byte	W06
	.byte		BEND  , c_v+5
	.byte	W01
	.byte		        c_v+10
	.byte	W01
	.byte		        c_v+12
	.byte	W02
	.byte		        c_v+9
	.byte	W01
	.byte		        c_v+4
	.byte	W01
	.byte		        c_v+0
	.byte	W24
	.byte		N12   , En2 
	.byte	W12
	.byte		N22   , An1 
	.byte	W12
	.byte		BEND  , c_v-5
	.byte	W01
	.byte		        c_v-9
	.byte	W01
	.byte		        c_v-11
	.byte	W01
	.byte		        c_v-12
	.byte	W01
	.byte		        c_v-14
	.byte	W01
	.byte		        c_v-17
	.byte	W01
	.byte		        c_v-22
	.byte	W01
	.byte		        c_v-27
	.byte	W01
	.byte		        c_v-32
	.byte	W01
	.byte		        c_v-37
	.byte	W01
	.byte		        c_v-43
	.byte	W01
	.byte		        c_v+0
	.byte	W01
	.byte		N44   , As1 
	.byte	W24
	.byte		MOD   , 10
	.byte	W12
	.byte		        20
	.byte	W11
	.byte		        0
	.byte	W01
	.byte		N01
	.byte	W12
	.byte		N09   , Cn2 
	.byte	W12
	.byte		N01   , Cn2 , v060
	.byte	W12
	.byte		N24   , An1 , v120
	.byte	W12
	.byte	W12
	.byte		N12   , En2 
	.byte	W12
	.byte		N36   , An2 
	.byte	W06
	.byte		BEND  , c_v+5
	.byte	W01
	.byte		        c_v+10
	.byte	W01
	.byte		        c_v+12
	.byte	W02
	.byte		        c_v+9
	.byte	W01
	.byte		        c_v+4
	.byte	W01
	.byte		        c_v+0
	.byte	W24
	.byte		N12   , En2 
	.byte	W12
	.byte		N22   , An1 
	.byte	W12
	.byte		BEND  , c_v-5
	.byte	W01
	.byte		        c_v-9
	.byte	W01
	.byte		        c_v-11
	.byte	W01
	.byte		        c_v-12
	.byte	W01
	.byte		        c_v-14
	.byte	W01
	.byte		        c_v-17
	.byte	W01
	.byte		        c_v-22
	.byte	W01
	.byte		        c_v-27
	.byte	W01
	.byte		        c_v-32
	.byte	W01
	.byte		        c_v-37
	.byte	W01
	.byte		        c_v-43
	.byte	W01
	.byte		        c_v+0
	.byte	W01
	.byte		N44   , Gs1 
	.byte	W24
	.byte		MOD   , 10
	.byte	W12
	.byte		        20
	.byte	W11
	.byte		        0
	.byte	W01
	.byte		N01
	.byte	W12
	.byte		N09   , As1 
	.byte	W12
	.byte		N01   , As1 , v060
	.byte	W12
	.byte		N24   , Gn1 , v120
	.byte	W12
	.byte	W12
	.byte		N12   , Dn2 
	.byte	W12
	.byte		N36   , Gn2 
	.byte	W06
	.byte		BEND  , c_v+5
	.byte	W01
	.byte		        c_v+10
	.byte	W01
	.byte		        c_v+12
	.byte	W02
	.byte		        c_v+9
	.byte	W01
	.byte		        c_v+4
	.byte	W01
	.byte		        c_v+0
	.byte	W24
	.byte		N12   , Dn2 
	.byte	W12
	.byte		N22   , Gn1 
	.byte	W12
	.byte		BEND  , c_v-5
	.byte	W01
	.byte		        c_v-9
	.byte	W01
	.byte		        c_v-11
	.byte	W01
	.byte		        c_v-12
	.byte	W01
	.byte		        c_v-14
	.byte	W01
	.byte		        c_v-17
	.byte	W01
	.byte		        c_v-22
	.byte	W01
	.byte		        c_v-27
	.byte	W01
	.byte		        c_v-32
	.byte	W01
	.byte		        c_v-37
	.byte	W01
	.byte		        c_v-43
	.byte	W01
	.byte		        c_v+0
	.byte	W01
	.byte		N88   , Fs1 
	.byte	W30
	.byte		MOD   , 20
	.byte	W30
	.byte	W01
	.byte		BEND  , c_v-1
	.byte	W01
	.byte		        c_v-2
	.byte	W01
	.byte		        c_v-3
	.byte	W01
	.byte		        c_v-4
	.byte	W01
	.byte		        c_v-6
	.byte	W01
	.byte		        c_v-7
	.byte	W01
	.byte		        c_v-8
	.byte	W01
	.byte		        c_v-9
	.byte	W01
	.byte		        c_v-11
	.byte	W01
	.byte		        c_v-12
	.byte	W01
	.byte		        c_v-13
	.byte	W01
	.byte		        c_v-14
	.byte	W01
	.byte		        c_v-15
	.byte	W01
	.byte		        c_v-17
	.byte	W01
	.byte		        c_v-18
	.byte	W01
	.byte		        c_v-19
	.byte	W01
	.byte		        c_v-21
	.byte	W01
	.byte		        c_v-23
	.byte	W01
	.byte		        c_v-24
	.byte	W01
	.byte		        c_v-26
	.byte	W01
	.byte		        c_v-27
	.byte	W01
	.byte		        c_v-29
	.byte	W01
	.byte		        c_v-31
	.byte	W01
	.byte		        c_v-32
	.byte	W01
	.byte		        c_v-35
	.byte	W01
	.byte		        c_v-37
	.byte	W01
	.byte		MOD   , 0
	.byte	W08
	.byte		BEND  , c_v+0
	.byte	W01
	.byte		N04   , Fs2 
	.byte	W06
	.byte		        Fs1 
	.byte	W06
	.byte		        Fs1 , v060
	.byte	W06
	.byte		N02
	.byte	W06
	.byte		N04   , Fs1 , v120
	.byte	W06
	.byte		        Fs1 , v040
	.byte	W06
	.byte		        Fs2 , v120
	.byte	W06
	.byte		N04
	.byte	W06
	.byte		        Fs1 , v060
	.byte	W06
	.byte		N02
	.byte	W06
	.byte		N04   , Fs1 , v120
	.byte	W06
	.byte		        Fs1 , v040
	.byte	W06
	.byte		        Fs2 , v120
	.byte	W06
	.byte		        Fs1 
	.byte	W06
	.byte		        Fs1 , v060
	.byte	W06
	.byte		        Fs1 , v040
	.byte	W06
	.byte	GOTO
	 .word	seq_120_7 + 0x16
	.byte	FINE

@*********************** Track 09 ***********************@

seq_120_8:
	.byte	KEYSH , seq_120_key+0
	.byte	W18
	.byte		VOICE , 72
	.byte	W01
	.byte		VOL   , 44*seq_120_mvl/mxv
	.byte	W01
	.byte		PAN   , c_v+0
	.byte	W01
	.byte		LFOS  , 30
	.byte	W01
	.byte		MODT  , mod_vib
	.byte	W01
	.byte		BENDR , 12
	.byte	W01
	.byte	W48
	.byte		N06   , Cn3 , v120
	.byte	W06
	.byte		        Fn3 
	.byte	W06
	.byte		        As3 
	.byte	W06
	.byte		N30   , An3 
	.byte	W20
	.byte		MOD   , 10
	.byte	W07
	.byte		        20
	.byte	W01
	.byte		        0
	.byte	W01
	.byte		VOICE , 71
	.byte	W01
	.byte		N24   , An3 , v020
	.byte	W23
	.byte		VOICE , 72
	.byte	W01
	.byte		N06   , Cn3 , v120
	.byte	W06
	.byte		        Fn3 
	.byte	W06
	.byte		        As3 
	.byte	W06
	.byte		N07   , An3 
	.byte	W06
	.byte	PEND
	.byte		VOICE , 71
	.byte	W01
	.byte		N11   , An3 , v020
	.byte	W10
	.byte		VOICE , 72
	.byte	W01
	.byte		N05   , Cn4 , v120
	.byte	W04
	.byte		VOICE , 71
	.byte	W01
	.byte		N13   , Cn4 , v020
	.byte	W12
	.byte		VOICE , 72
	.byte	W01
	.byte		N06   , As3 , v120
	.byte	W05
	.byte		VOICE , 71
	.byte	W01
	.byte		N06   , As3 , v020
	.byte	W05
	.byte		VOICE , 72
	.byte	W01
	.byte		N06   , An3 , v120
	.byte	W05
	.byte		VOICE , 71
	.byte	W01
	.byte		N12   , An3 , v020
	.byte	W11
	.byte		VOICE , 72
	.byte	W01
	.byte		N24   , Gs3 , v120
	.byte	W16
	.byte		MOD   , 10
	.byte	W04
	.byte		        20
	.byte	W02
	.byte		        0
	.byte	W02
	.byte		N12   , Gs3 , v020
	.byte	W12
	.byte	PEND
	.byte	PATT
	 .word	seq_120_8 + 0x16
	.byte	PATT
	 .word	seq_120_8 + 0x3E
	.byte		N06   , Cs3 , v120
	.byte	W06
	.byte		        Fs3 
	.byte	W06
	.byte		        Bn3 
	.byte	W06
	.byte		N30   , As3 
	.byte	W20
	.byte		MOD   , 10
	.byte	W07
	.byte		        20
	.byte	W01
	.byte		        0
	.byte	W01
	.byte		VOICE , 71
	.byte	W01
	.byte		N24   , As3 , v020
	.byte	W23
	.byte		VOICE , 72
	.byte	W01
	.byte		N06   , Cs3 , v120
	.byte	W06
	.byte		        Fs3 
	.byte	W06
	.byte		        Bn3 
	.byte	W06
	.byte		N07   , As3 
	.byte	W06
	.byte	PEND
	.byte		VOICE , 71
	.byte	W01
	.byte		N11   , As3 , v020
	.byte	W10
	.byte		VOICE , 72
	.byte	W01
	.byte		N05   , Cs4 , v120
	.byte	W04
	.byte		VOICE , 71
	.byte	W01
	.byte		N13   , Cs4 , v020
	.byte	W12
	.byte		VOICE , 72
	.byte	W01
	.byte		N06   , Bn3 , v120
	.byte	W05
	.byte		VOICE , 71
	.byte	W01
	.byte		N06   , Bn3 , v020
	.byte	W05
	.byte		VOICE , 72
	.byte	W01
	.byte		N06   , As3 , v120
	.byte	W05
	.byte		VOICE , 71
	.byte	W01
	.byte		N12   , As3 , v020
	.byte	W11
	.byte		VOICE , 72
	.byte	W01
	.byte		N24   , An3 , v120
	.byte	W16
	.byte		MOD   , 10
	.byte	W04
	.byte		        20
	.byte	W02
	.byte		        0
	.byte	W02
	.byte		N12   , An3 , v020
	.byte	W12
	.byte	PEND
	.byte	PATT
	 .word	seq_120_8 + 0x8C
	.byte	PATT
	 .word	seq_120_8 + 0xB4
	.byte	PATT
	 .word	seq_120_8 + 0x16
	.byte	PATT
	 .word	seq_120_8 + 0x3E
	.byte	PATT
	 .word	seq_120_8 + 0x16
	.byte	PATT
	 .word	seq_120_8 + 0x3E
	.byte	PATT
	 .word	seq_120_8 + 0x8C
	.byte	PATT
	 .word	seq_120_8 + 0xB4
	.byte	PATT
	 .word	seq_120_8 + 0x8C
	.byte	PATT
	 .word	seq_120_8 + 0xB4
	.byte	PATT
	 .word	seq_120_8 + 0x16
	.byte	PATT
	 .word	seq_120_8 + 0x3E
	.byte	PATT
	 .word	seq_120_8 + 0x16
	.byte	PATT
	 .word	seq_120_8 + 0x3E
	.byte	PATT
	 .word	seq_120_8 + 0x8C
	.byte	PATT
	 .word	seq_120_8 + 0xB4
	.byte		VOICE , 72
	.byte		N06   , Cs3 , v120
	.byte	W06
	.byte		        Fs3 
	.byte	W06
	.byte		        Bn3 
	.byte	W06
	.byte		N30   , As3 
	.byte	W20
	.byte		MOD   , 10
	.byte	W07
	.byte		        20
	.byte	W01
	.byte		        0
	.byte	W01
	.byte		VOICE , 71
	.byte	W01
	.byte		N24   , As3 , v020
	.byte	W23
	.byte		VOICE , 72
	.byte	W01
	.byte		N06   , Cs3 , v120
	.byte	W06
	.byte		        Fs3 
	.byte	W06
	.byte		        Bn3 
	.byte	W06
	.byte		N07   , As3 
	.byte	W06
	.byte		VOICE , 71
	.byte	W01
	.byte		N11   , As3 , v020
	.byte	W10
	.byte		VOICE , 72
	.byte	W01
	.byte		N05   , Cs4 , v120
	.byte	W04
	.byte		VOICE , 71
	.byte	W01
	.byte		N13   , Cs4 , v020
	.byte	W12
	.byte		VOICE , 72
	.byte	W01
	.byte		N06   , Bn3 , v120
	.byte	W05
	.byte		VOICE , 71
	.byte	W01
	.byte		N06   , Bn3 , v020
	.byte	W05
	.byte		VOICE , 72
	.byte	W01
	.byte		N06   , As3 , v120
	.byte	W05
	.byte		VOICE , 71
	.byte	W01
	.byte		N12   , As3 , v020
	.byte	W11
	.byte		VOICE , 72
	.byte	W01
	.byte		N24   , An3 , v120
	.byte	W16
	.byte		MOD   , 10
	.byte	W03
	.byte		        20
	.byte	W03
	.byte		        0
	.byte	W02
	.byte		N12   , As3 
	.byte	W10
	.byte		VOL   , 31*seq_120_mvl/mxv
	.byte	W01
	.byte		VOICE , 71
	.byte	W01
	.byte		N21   , Bn3 
	.byte	W11
	.byte		BEND  , c_v-1
	.byte	W01
	.byte		        c_v-4
	.byte	W01
	.byte		        c_v-7
	.byte	W01
	.byte		        c_v-9
	.byte	W01
	.byte		        c_v-12
	.byte	W01
	.byte		        c_v-15
	.byte	W01
	.byte		        c_v-18
	.byte	W01
	.byte		        c_v-22
	.byte	W01
	.byte		        c_v-26
	.byte	W01
	.byte		        c_v-30
	.byte	W01
	.byte		N01   , An3 
	.byte	W01
	.byte		N02   , Gn3 
	.byte	W01
	.byte		BEND  , c_v-41
	.byte	W01
	.byte		N01   , Fn3 
	.byte	W01
	.byte		N02   , Ds3 
	.byte	W01
	.byte		BEND  , c_v-57
	.byte	W01
	.byte		N01   , Cs3 
	.byte	W01
	.byte		N02   , Bn2 , v100
	.byte	W01
	.byte		BEND  , c_v-64
	.byte	W01
	.byte		N01   , An2 
	.byte	W01
	.byte		N02   , Gn2 , v080
	.byte	W02
	.byte		N01   , Fn2 , v060
	.byte	W01
	.byte		N02   , Ds2 , v040
	.byte	W02
	.byte		N01   , Cs2 , v020
	.byte	W01
	.byte		N02   , Bn1 
	.byte	W56
	.byte	W01
	.byte		BEND  , c_v+0
	.byte	W02
	.byte	W44
	.byte	W01
	.byte		VOL   , 37*seq_120_mvl/mxv
	.byte	W01
	.byte		VOICE , 70
	.byte	W01
	.byte		PAN   , c_v-64
	.byte	W01
	.byte		N02   , En3 , v120
	.byte	W04
	.byte		        En3 , v060
	.byte	W02
	.byte		        An3 , v120
	.byte	W04
	.byte		        An3 , v060
	.byte	W02
	.byte		        Dn4 , v120
	.byte	W04
	.byte		        Dn4 , v060
	.byte	W02
	.byte		        Gn4 , v120
	.byte	W04
	.byte		        Gn4 , v060
	.byte	W01
	.byte		PAN   , c_v+63
	.byte	W01
	.byte		N02   , En3 , v120
	.byte	W04
	.byte		        En3 , v060
	.byte	W02
	.byte		        An3 , v120
	.byte	W04
	.byte		        An3 , v060
	.byte	W02
	.byte		        Dn4 , v120
	.byte	W04
	.byte		        Dn4 , v060
	.byte	W02
	.byte		        Gn4 , v120
	.byte	W04
	.byte		        Gn4 , v060
	.byte	W02
	.byte	W96
	.byte	W44
	.byte	W03
	.byte		PAN   , c_v-64
	.byte	W01
	.byte		N02   , Fs3 , v120
	.byte	W04
	.byte		        Fs3 , v060
	.byte	W02
	.byte		        Bn3 , v120
	.byte	W04
	.byte		        Bn3 , v060
	.byte	W02
	.byte		        En4 , v120
	.byte	W04
	.byte		        En4 , v060
	.byte	W02
	.byte		        An4 , v120
	.byte	W04
	.byte		        An4 , v060
	.byte	W01
	.byte		PAN   , c_v+63
	.byte	W01
	.byte		N02   , Fs3 , v120
	.byte	W04
	.byte		        Fs3 , v060
	.byte	W02
	.byte		        Bn3 , v120
	.byte	W04
	.byte		        Bn3 , v060
	.byte	W02
	.byte		        En4 , v120
	.byte	W04
	.byte		        En4 , v060
	.byte	W02
	.byte		        An4 , v120
	.byte	W04
	.byte		        An4 , v060
	.byte	W02
	.byte	W96
	.byte	W96
	.byte	W96
	.byte	W44
	.byte	W02
	.byte		VOICE , 70
	.byte	W01
	.byte		PAN   , c_v-64
	.byte	W01
	.byte		N02   , Bn3 , v120
	.byte	W04
	.byte		N01   , Bn3 , v060
	.byte	W01
	.byte		        Bn3 , v020
	.byte	W01
	.byte		N02   , En4 , v120
	.byte	W04
	.byte		N01   , En4 , v060
	.byte	W01
	.byte		        En4 , v020
	.byte	W01
	.byte		N02   , An4 , v120
	.byte	W04
	.byte		N01   , An4 , v060
	.byte	W01
	.byte		        An4 , v020
	.byte	W01
	.byte		N02   , Dn5 , v120
	.byte	W04
	.byte		N01   , Dn5 , v060
	.byte	W01
	.byte		PAN   , c_v+63
	.byte		N01   , Dn5 , v020
	.byte	W01
	.byte		N02   , Bn3 , v120
	.byte	W04
	.byte		N01   , Bn3 , v060
	.byte	W01
	.byte		        Bn3 , v020
	.byte	W01
	.byte		N02   , En4 , v120
	.byte	W04
	.byte		N01   , En4 , v060
	.byte	W01
	.byte		        En4 , v020
	.byte	W01
	.byte		N02   , An4 , v120
	.byte	W04
	.byte		N01   , An4 , v060
	.byte	W01
	.byte		        An4 , v020
	.byte	W01
	.byte		N02   , Dn5 , v120
	.byte	W04
	.byte		N01   , Dn5 , v060
	.byte	W01
	.byte		        Dn5 , v020
	.byte	W01
	.byte	W96
	.byte	W44
	.byte	W03
	.byte		PAN   , c_v-64
	.byte	W01
	.byte		N02   , Bn3 , v120
	.byte	W04
	.byte		        Bn3 , v060
	.byte	W02
	.byte		        En4 , v120
	.byte	W04
	.byte		        En4 , v060
	.byte	W02
	.byte		        An4 , v120
	.byte	W04
	.byte		        An4 , v060
	.byte	W02
	.byte		        Dn5 , v120
	.byte	W04
	.byte		        Dn5 , v060
	.byte	W01
	.byte		PAN   , c_v+63
	.byte	W01
	.byte		N02   , Bn3 , v120
	.byte	W04
	.byte		        Bn3 , v060
	.byte	W02
	.byte		        En4 , v120
	.byte	W04
	.byte		        En4 , v060
	.byte	W02
	.byte		        An4 , v120
	.byte	W04
	.byte		        An4 , v060
	.byte	W02
	.byte		        Dn5 , v120
	.byte	W04
	.byte		        Dn5 , v060
	.byte	W02
	.byte	W96
	.byte	W44
	.byte	W03
	.byte		PAN   , c_v-64
	.byte	W01
	.byte		N02   , An3 , v120
	.byte	W04
	.byte		        An3 , v060
	.byte	W02
	.byte		        Dn4 , v120
	.byte	W04
	.byte		        Dn4 , v060
	.byte	W02
	.byte		        Gn4 , v120
	.byte	W04
	.byte		        Gn4 , v060
	.byte	W02
	.byte		        Cn5 , v120
	.byte	W04
	.byte		        Cn5 , v060
	.byte	W01
	.byte		PAN   , c_v+63
	.byte	W01
	.byte		N02   , An3 , v120
	.byte	W04
	.byte		        An3 , v060
	.byte	W02
	.byte		        Dn4 , v120
	.byte	W04
	.byte		        Dn4 , v060
	.byte	W02
	.byte		        Gn4 , v120
	.byte	W04
	.byte		        Gn4 , v060
	.byte	W02
	.byte		        Cn5 , v120
	.byte	W04
	.byte		        Cn5 , v060
	.byte	W02
	.byte	W92
	.byte	W02
	.byte		VOL   , 25*seq_120_mvl/mxv
	.byte	W01
	.byte		PAN   , c_v+0
	.byte	W01
	.byte		N04   , Fs3 , v120
	.byte	W06
	.byte		        Fs2 
	.byte	W06
	.byte		        Fs2 , v060
	.byte	W06
	.byte		N02
	.byte	W06
	.byte		N04   , Fs2 , v120
	.byte	W06
	.byte		        Fs2 , v040
	.byte	W06
	.byte		        Fs3 , v120
	.byte	W06
	.byte		N04
	.byte	W06
	.byte		        Fs2 , v060
	.byte	W06
	.byte		N02
	.byte	W06
	.byte		N04   , Fs2 , v120
	.byte	W06
	.byte		        Fs2 , v040
	.byte	W06
	.byte		        Fs3 , v120
	.byte	W06
	.byte		        Fs2 
	.byte	W06
	.byte		        Fs2 , v060
	.byte	W06
	.byte		        Fs2 , v040
	.byte	W04
	.byte		VOL   , 44*seq_120_mvl/mxv
	.byte	W01
	.byte		VOICE , 72
	.byte	W01
	.byte	GOTO
	 .word	seq_120_8 + 0x16
	.byte	FINE

@*********************** Track 10 ***********************@

seq_120_9:
	.byte	KEYSH , seq_120_key+0
	.byte	W18
	.byte		VOICE , 83
	.byte	W01
	.byte		VOL   , 31*seq_120_mvl/mxv
	.byte	W01
	.byte		PAN   , c_v+0
	.byte	W01
	.byte		LFOS  , 30
	.byte	W01
	.byte		MODT  , mod_vib
	.byte	W01
	.byte		BENDR , 12
	.byte	W01
	.byte	W48
	.byte		N06   , Gn2 , v120
	.byte	W06
	.byte		        Cn3 
	.byte	W06
	.byte		        Fn3 
	.byte	W06
	.byte		N30   , En3 
	.byte	W20
	.byte		MOD   , 10
	.byte	W07
	.byte		        20
	.byte	W01
	.byte		        0
	.byte	W02
	.byte		N24   , En3 , v040
	.byte	W24
	.byte		N06   , Gn2 , v120
	.byte	W06
	.byte		        Cn3 
	.byte	W06
	.byte		        Fn3 
	.byte	W06
	.byte		N07   , En3 
	.byte	W06
	.byte	PEND
	.byte	W01
	.byte		N11   , En3 , v040
	.byte	W11
	.byte		N05   , Gn3 , v120
	.byte	W05
	.byte		N13   , Gn3 , v040
	.byte	W13
	.byte		N06   , Fn3 , v120
	.byte	W06
	.byte		        Fn3 , v040
	.byte	W06
	.byte		        En3 , v120
	.byte	W06
	.byte		N12   , En3 , v040
	.byte	W12
	.byte		N24   , Ds3 , v120
	.byte	W16
	.byte		MOD   , 10
	.byte	W04
	.byte		        20
	.byte	W02
	.byte		        0
	.byte	W02
	.byte		N12   , Ds3 , v040
	.byte	W12
	.byte	PEND
	.byte	PATT
	 .word	seq_120_9 + 0x16
	.byte	PATT
	 .word	seq_120_9 + 0x38
	.byte		N06   , Gs2 , v120
	.byte	W06
	.byte		        Cs3 
	.byte	W06
	.byte		        Fs3 
	.byte	W06
	.byte		N30   , Fn3 
	.byte	W20
	.byte		MOD   , 10
	.byte	W07
	.byte		        20
	.byte	W01
	.byte		        0
	.byte	W02
	.byte		N24   , Fn3 , v040
	.byte	W24
	.byte		N06   , Gs2 , v120
	.byte	W06
	.byte		        Cs3 
	.byte	W06
	.byte		        Fs3 
	.byte	W06
	.byte		N07   , Fn3 
	.byte	W06
	.byte	PEND
	.byte	W01
	.byte		N11   , Fn3 , v040
	.byte	W11
	.byte		N05   , Gs3 , v120
	.byte	W05
	.byte		N13   , Gs3 , v040
	.byte	W13
	.byte		N06   , Fs3 , v120
	.byte	W06
	.byte		        Fs3 , v040
	.byte	W06
	.byte		        Fn3 , v120
	.byte	W06
	.byte		N12   , Fn3 , v040
	.byte	W12
	.byte		N24   , En3 , v120
	.byte	W16
	.byte		MOD   , 10
	.byte	W04
	.byte		        20
	.byte	W02
	.byte		        0
	.byte	W02
	.byte		N12   , En3 , v040
	.byte	W12
	.byte	PEND
	.byte	PATT
	 .word	seq_120_9 + 0x6D
	.byte	PATT
	 .word	seq_120_9 + 0x8F
	.byte	PATT
	 .word	seq_120_9 + 0x16
	.byte	PATT
	 .word	seq_120_9 + 0x38
	.byte	PATT
	 .word	seq_120_9 + 0x16
	.byte	PATT
	 .word	seq_120_9 + 0x38
	.byte	PATT
	 .word	seq_120_9 + 0x6D
	.byte	PATT
	 .word	seq_120_9 + 0x8F
	.byte	PATT
	 .word	seq_120_9 + 0x6D
	.byte	PATT
	 .word	seq_120_9 + 0x8F
	.byte	PATT
	 .word	seq_120_9 + 0x16
	.byte	PATT
	 .word	seq_120_9 + 0x38
	.byte	PATT
	 .word	seq_120_9 + 0x16
	.byte	PATT
	 .word	seq_120_9 + 0x38
	.byte	PATT
	 .word	seq_120_9 + 0x6D
	.byte	PATT
	 .word	seq_120_9 + 0x8F
	.byte	PATT
	 .word	seq_120_9 + 0x6D
	.byte	W01
	.byte		N11   , Fn3 , v040
	.byte	W11
	.byte		N05   , Gs3 , v120
	.byte	W05
	.byte		N13   , Gs3 , v040
	.byte	W13
	.byte		N06   , Fs3 , v120
	.byte	W06
	.byte		        Fs3 , v040
	.byte	W06
	.byte		        Fn3 , v120
	.byte	W06
	.byte		N12   , Fn3 , v040
	.byte	W12
	.byte		N24   , En3 , v120
	.byte	W14
	.byte		MOD   , 10
	.byte	W04
	.byte		        20
	.byte	W04
	.byte		        0
	.byte	W02
	.byte		N12   , Fn3 
	.byte	W10
	.byte		VOL   , 18*seq_120_mvl/mxv
	.byte	W01
	.byte		VOICE , 83
	.byte	W01
	.byte		N21   , Fs3 
	.byte	W11
	.byte		BEND  , c_v-1
	.byte	W01
	.byte		        c_v-4
	.byte	W01
	.byte		        c_v-7
	.byte	W01
	.byte		        c_v-9
	.byte	W01
	.byte		        c_v-12
	.byte	W01
	.byte		        c_v-15
	.byte	W01
	.byte		        c_v-18
	.byte	W01
	.byte		        c_v-22
	.byte	W01
	.byte		        c_v-26
	.byte	W01
	.byte		        c_v-30
	.byte	W01
	.byte		N01   , En3 
	.byte	W01
	.byte		N02   , Dn3 
	.byte	W01
	.byte		BEND  , c_v-41
	.byte	W01
	.byte		N01   , Cn3 
	.byte	W01
	.byte		N02   , As2 
	.byte	W01
	.byte		BEND  , c_v-57
	.byte	W01
	.byte		N01   , Gs2 
	.byte	W01
	.byte		N02   , Fs2 , v100
	.byte	W01
	.byte		BEND  , c_v-64
	.byte	W01
	.byte		N01   , En2 
	.byte	W01
	.byte		N02   , Dn2 , v080
	.byte	W02
	.byte		N01   , Cn2 , v060
	.byte	W01
	.byte		N02   , As1 , v040
	.byte	W02
	.byte		N01   , Gs1 , v020
	.byte	W01
	.byte		N02   , Fs1 
	.byte	W56
	.byte	W01
	.byte		BEND  , c_v+0
	.byte	W02
	.byte	W44
	.byte	W02
	.byte		VOL   , 25*seq_120_mvl/mxv
	.byte	W01
	.byte		PAN   , c_v-64
	.byte	W01
	.byte		N02   , Bn2 , v120
	.byte	W04
	.byte		        Bn2 , v060
	.byte	W02
	.byte		        En3 , v120
	.byte	W04
	.byte		        En3 , v060
	.byte	W02
	.byte		        An3 , v120
	.byte	W04
	.byte		        An3 , v060
	.byte	W02
	.byte		        Dn4 , v120
	.byte	W04
	.byte		        Dn4 , v060
	.byte	W01
	.byte		PAN   , c_v+63
	.byte	W01
	.byte		N02   , Bn2 , v120
	.byte	W04
	.byte		        Bn2 , v060
	.byte	W02
	.byte		        En3 , v120
	.byte	W04
	.byte		        En3 , v060
	.byte	W02
	.byte		        An3 , v120
	.byte	W04
	.byte		        An3 , v060
	.byte	W02
	.byte		        Dn4 , v120
	.byte	W04
	.byte		        Dn4 , v060
	.byte	W02
	.byte	W96
	.byte	W44
	.byte	W03
	.byte		PAN   , c_v-64
	.byte	W01
	.byte		N02   , Cs3 , v120
	.byte	W04
	.byte		        Cs3 , v060
	.byte	W02
	.byte		        Fs3 , v120
	.byte	W04
	.byte		        Fs3 , v060
	.byte	W02
	.byte		        Bn3 , v120
	.byte	W04
	.byte		        Bn3 , v060
	.byte	W02
	.byte		        En4 , v120
	.byte	W04
	.byte		        En4 , v060
	.byte	W01
	.byte		PAN   , c_v+63
	.byte	W01
	.byte		N02   , Cs3 , v120
	.byte	W04
	.byte		        Cs3 , v060
	.byte	W02
	.byte		        Fs3 , v120
	.byte	W04
	.byte		        Fs3 , v060
	.byte	W02
	.byte		        Bn3 , v120
	.byte	W04
	.byte		        Bn3 , v060
	.byte	W02
	.byte		        En4 , v120
	.byte	W04
	.byte		        En4 , v060
	.byte	W02
	.byte	W96
	.byte	W96
	.byte	W96
	.byte	W44
	.byte	W03
	.byte		PAN   , c_v-64
	.byte	W01
	.byte		N02   , Fs3 , v120
	.byte	W04
	.byte		N01   , Fs3 , v060
	.byte	W01
	.byte		        Fs3 , v040
	.byte	W01
	.byte		N02   , Bn3 , v120
	.byte	W04
	.byte		N01   , Bn3 , v060
	.byte	W01
	.byte		        Bn3 , v040
	.byte	W01
	.byte		N02   , En4 , v120
	.byte	W04
	.byte		N01   , En4 , v060
	.byte	W01
	.byte		        En4 , v040
	.byte	W01
	.byte		N02   , An4 , v120
	.byte	W04
	.byte		N01   , An4 , v060
	.byte	W01
	.byte		PAN   , c_v+63
	.byte		N01   , An4 , v040
	.byte	W01
	.byte		N02   , Fs3 , v120
	.byte	W04
	.byte		N01   , Fs3 , v060
	.byte	W01
	.byte		        Fs3 , v040
	.byte	W01
	.byte		N02   , Bn3 , v120
	.byte	W04
	.byte		N01   , Bn3 , v060
	.byte	W01
	.byte		        Bn3 , v040
	.byte	W01
	.byte		N02   , En4 , v120
	.byte	W04
	.byte		N01   , En4 , v060
	.byte	W01
	.byte		        En4 , v040
	.byte	W01
	.byte		N02   , An4 , v120
	.byte	W04
	.byte		N01   , An4 , v060
	.byte	W01
	.byte		        An4 , v040
	.byte	W01
	.byte	W96
	.byte	W44
	.byte	W03
	.byte		PAN   , c_v-64
	.byte	W01
	.byte		N02   , Fs3 , v120
	.byte	W04
	.byte		        Fs3 , v060
	.byte	W02
	.byte		        Bn3 , v120
	.byte	W04
	.byte		        Bn3 , v060
	.byte	W02
	.byte		        En4 , v120
	.byte	W04
	.byte		        En4 , v060
	.byte	W02
	.byte		        An4 , v120
	.byte	W04
	.byte		        An4 , v060
	.byte	W01
	.byte		PAN   , c_v+63
	.byte	W01
	.byte		N02   , Fs3 , v120
	.byte	W04
	.byte		        Fs3 , v060
	.byte	W02
	.byte		        Bn3 , v120
	.byte	W04
	.byte		        Bn3 , v060
	.byte	W02
	.byte		        En4 , v120
	.byte	W04
	.byte		        En4 , v060
	.byte	W02
	.byte		        An4 , v120
	.byte	W04
	.byte		        An4 , v060
	.byte	W02
	.byte	W96
	.byte	W44
	.byte	W03
	.byte		PAN   , c_v-64
	.byte	W01
	.byte		N02   , En3 , v120
	.byte	W04
	.byte		        En3 , v060
	.byte	W02
	.byte		        An3 , v120
	.byte	W04
	.byte		        An3 , v060
	.byte	W02
	.byte		        Dn4 , v120
	.byte	W04
	.byte		        Dn4 , v060
	.byte	W02
	.byte		        Gn4 , v120
	.byte	W04
	.byte		        Gn4 , v060
	.byte	W01
	.byte		PAN   , c_v+63
	.byte	W01
	.byte		N02   , En3 , v120
	.byte	W04
	.byte		        En3 , v060
	.byte	W02
	.byte		        An3 , v120
	.byte	W04
	.byte		        An3 , v060
	.byte	W02
	.byte		        Dn4 , v120
	.byte	W04
	.byte		        Dn4 , v060
	.byte	W02
	.byte		        Gn4 , v120
	.byte	W04
	.byte		        Gn4 , v060
	.byte	W02
	.byte	W92
	.byte	W02
	.byte		VOL   , 18*seq_120_mvl/mxv
	.byte	W01
	.byte		PAN   , c_v+0
	.byte	W01
	.byte		N04   , Fs5 , v120
	.byte	W06
	.byte		        Fs4 
	.byte	W06
	.byte		        Fs4 , v060
	.byte	W06
	.byte		N02
	.byte	W06
	.byte		N04   , Fs4 , v120
	.byte	W06
	.byte		        Fs4 , v040
	.byte	W06
	.byte		        Fs5 , v120
	.byte	W06
	.byte		N04
	.byte	W06
	.byte		        Fs4 , v060
	.byte	W06
	.byte		N02
	.byte	W06
	.byte		N04   , Fs4 , v120
	.byte	W06
	.byte		        Fs4 , v040
	.byte	W06
	.byte		        Fs5 , v120
	.byte	W06
	.byte		        Fs4 
	.byte	W06
	.byte		        Fs4 , v060
	.byte	W06
	.byte		        Fs4 , v040
	.byte	W04
	.byte		VOL   , 31*seq_120_mvl/mxv
	.byte	W02
	.byte	GOTO
	 .word	seq_120_9 + 0x16
	.byte	FINE

@*********************** Track 11 ***********************@

seq_120_10:
	.byte	KEYSH , seq_120_key+0
	.byte	W18
	.byte		VOICE , 112
	.byte	W01
	.byte		VOL   , 37*seq_120_mvl/mxv
	.byte	W01
	.byte		PAN   , c_v+0
	.byte	W04
	.byte		N02   , Ds4 , v120
	.byte	W06
	.byte		N03   , Ds4 , v040
	.byte	W06
	.byte		N02   , Ds4 , v080
	.byte	W06
	.byte		N03   , Ds4 , v040
	.byte	W06
	.byte		N02   , Ds4 , v100
	.byte	W06
	.byte		        Ds4 , v080
	.byte	W06
	.byte		N03   , Ds4 , v040
	.byte	W06
	.byte		N02   , Ds4 , v120
	.byte	W06
	.byte		N01   , Ds4 , v060
	.byte	W12
	.byte		N02   , Ds4 , v120
	.byte	W12
	.byte		N11   , Ds3 , v100
	.byte	W12
	.byte		N02   , Ds4 , v120
	.byte	W24
	.byte		N02
	.byte	W12
	.byte		N11   , Ds3 , v100
	.byte	W12
	.byte		N02   , Ds4 , v120
	.byte	W12
	.byte	PEND
	.byte	PATT
	 .word	seq_120_10 + 0x2B
	.byte	PATT
	 .word	seq_120_10 + 0x2B
	.byte	PATT
	 .word	seq_120_10 + 0x2B
	.byte	PATT
	 .word	seq_120_10 + 0x2B
	.byte	PATT
	 .word	seq_120_10 + 0x2B
	.byte	PATT
	 .word	seq_120_10 + 0x2B
	.byte		N01   , Ds4 , v060
	.byte	W12
	.byte		N02   , Ds4 , v120
	.byte	W12
	.byte		N11   , Ds3 , v100
	.byte	W12
	.byte		N02   , Ds4 , v120
	.byte	W12
	.byte		N06   , Cn5 
	.byte	W06
	.byte		        Gn4 
	.byte	W06
	.byte		        Cn4 , v060
	.byte	W06
	.byte		        Gn3 , v120
	.byte	W06
	.byte		        Ds3 , v100
	.byte	W06
	.byte		        Dn3 , v120
	.byte	W06
	.byte		        Cn3 , v100
	.byte	W06
	.byte		        Gn2 
	.byte	W06
	.byte	PEND
	.byte	PATT
	 .word	seq_120_10 + 0x2B
	.byte	PATT
	 .word	seq_120_10 + 0x2B
	.byte	PATT
	 .word	seq_120_10 + 0x2B
	.byte	PATT
	 .word	seq_120_10 + 0x2B
	.byte	PATT
	 .word	seq_120_10 + 0x2B
	.byte	PATT
	 .word	seq_120_10 + 0x2B
	.byte	PATT
	 .word	seq_120_10 + 0x2B
	.byte	PATT
	 .word	seq_120_10 + 0x64
	.byte	PATT
	 .word	seq_120_10 + 0x2B
	.byte	PATT
	 .word	seq_120_10 + 0x2B
	.byte	PATT
	 .word	seq_120_10 + 0x2B
	.byte	PATT
	 .word	seq_120_10 + 0x2B
	.byte	PATT
	 .word	seq_120_10 + 0x2B
	.byte	PATT
	 .word	seq_120_10 + 0x2B
	.byte	PATT
	 .word	seq_120_10 + 0x2B
	.byte		N01   , Ds4 , v060
	.byte	W12
	.byte		N02   , Ds4 , v120
	.byte	W12
	.byte		N11   , Ds3 , v100
	.byte	W12
	.byte		N02   , Ds4 , v120
	.byte	W12
	.byte		N06   , Cn5 
	.byte	W06
	.byte		        Gn4 
	.byte	W06
	.byte		        Cn4 , v060
	.byte	W06
	.byte		        Gn3 , v100
	.byte	W06
	.byte		N05   , Ds3 
	.byte	W06
	.byte		        Cs3 
	.byte	W06
	.byte		        Bn2 
	.byte	W06
	.byte		        An2 
	.byte	W06
	.byte		N24   , Fs4 , v120
	.byte	W24
	.byte		N11   , Ds3 , v100
	.byte	W12
	.byte		N02   , Ds4 , v060
	.byte	W12
	.byte		        Ds4 , v100
	.byte	W12
	.byte		N11   , Ds3 
	.byte	W12
	.byte		N02   , Ds4 , v120
	.byte	W12
	.byte		        Ds4 , v060
	.byte	W12
	.byte	PEND
	.byte		N02   , Ds4 , v120
	.byte	W12
	.byte		        Ds4 , v060
	.byte	W12
	.byte		N11   , Ds3 , v100
	.byte	W12
	.byte		N02   , Ds4 , v060
	.byte	W12
	.byte		        Ds4 , v100
	.byte	W12
	.byte		        Ds4 , v060
	.byte	W12
	.byte		N11   , Ds3 , v100
	.byte	W12
	.byte		N02   , Ds4 , v060
	.byte	W12
	.byte	PEND
	.byte	PATT
	 .word	seq_120_10 + 0xFA
	.byte	PATT
	 .word	seq_120_10 + 0x114
	.byte	PATT
	 .word	seq_120_10 + 0xFA
	.byte	PATT
	 .word	seq_120_10 + 0x114
	.byte		N01   , Ds4 , v060
	.byte	W12
	.byte		N02   , Ds4 , v120
	.byte	W12
	.byte		N11   , Ds3 , v100
	.byte	W12
	.byte		N02   , Ds4 , v120
	.byte	W24
	.byte		N02
	.byte	W12
	.byte		N07   , Ds4 , v100
	.byte	W12
	.byte		N02   , Ds4 , v120
	.byte	W12
	.byte	PEND
	.byte	PATT
	 .word	seq_120_10 + 0x2B
	.byte	PATT
	 .word	seq_120_10 + 0x146
	.byte	PATT
	 .word	seq_120_10 + 0x2B
	.byte	PATT
	 .word	seq_120_10 + 0x2B
	.byte	PATT
	 .word	seq_120_10 + 0x2B
	.byte		N02   , Ds4 , v120
	.byte	W06
	.byte		N03   , Ds4 , v040
	.byte	W06
	.byte		N02   , Ds4 , v080
	.byte	W06
	.byte		N03   , Ds4 , v040
	.byte	W06
	.byte		N11   , Ds3 , v100
	.byte	W12
	.byte		N03   , Ds4 , v040
	.byte	W06
	.byte		N02   , Ds4 , v120
	.byte	W06
	.byte		N02
	.byte	W06
	.byte		N03   , Ds4 , v040
	.byte	W06
	.byte		N02   , Ds4 , v080
	.byte	W06
	.byte		N03   , Ds4 , v040
	.byte	W06
	.byte		N11   , Ds3 , v100
	.byte	W12
	.byte		N03   , Ds4 , v040
	.byte	W06
	.byte		N02   , Ds4 , v120
	.byte	W06
	.byte		N02
	.byte	W06
	.byte		N03   , Ds4 , v040
	.byte	W06
	.byte		N02   , Ds4 , v080
	.byte	W06
	.byte		N03   , Ds4 , v040
	.byte	W06
	.byte		N06   , Ds3 , v100
	.byte	W06
	.byte		N06
	.byte	W06
	.byte		N03   , Ds4 , v040
	.byte	W06
	.byte		N02   , Ds4 , v120
	.byte	W06
	.byte		N06   , Cn5 
	.byte	W06
	.byte		        Gn4 
	.byte	W06
	.byte		        Cn4 , v060
	.byte	W06
	.byte		        Gn3 , v100
	.byte	W06
	.byte		        Ds3 
	.byte	W06
	.byte		        Cs3 
	.byte	W06
	.byte		        Bn2 
	.byte	W06
	.byte		N05   , An2 
	.byte	W06
	.byte	GOTO
	 .word	seq_120_10 + 0x2B
	.byte	FINE

@******************************************************@

	.align	2

seq_120:
	.byte	11	@ NumTrks
	.byte	0	@ NumBlks
	.byte	seq_120_pri	@ Priority
	.byte	seq_120_rev	@ Reverb

	.word	seq_120_grp

	.word	seq_120_0
	.word	seq_120_1
	.word	seq_120_2
	.word	seq_120_3
	.word	seq_120_4
	.word	seq_120_5
	.word	seq_120_6
	.word	seq_120_7
	.word	seq_120_8
	.word	seq_120_9
	.word	seq_120_10

	.end
