@ File generated by m4a2s Song-Module
	.include "MPlayDef.s"

	.equ	seq_046_grp, bank_000
	.equ	seq_046_pri, 50
	.equ	seq_046_rev, 213
	.equ	seq_046_mvl, 127
	.equ	seq_046_key, 0

	.section .rodata
	.global	seq_046
	.align	2

@*********************** Track 01 ***********************@

seq_046_0:
	.byte	KEYSH , seq_046_key+0
	.byte	TEMPO , 110/2
	.byte		VOICE , 76
	.byte		BENDR , 2
	.byte		MODT  , mod_tre
	.byte	W01
	.byte		VOL   , 73*seq_046_mvl/mxv
	.byte		PAN   , c_v+0
	.byte		LFOS  , 40
	.byte	W01
	.byte		MOD   , 70
	.byte	W32
	.byte	W02
	.byte	TEMPO , 98/2
	.byte	W24
	.byte	TEMPO , 100/2
	.byte	W24
	.byte	TEMPO , 90/2
	.byte	W24
	.byte	TEMPO , 76/2
	.byte	W12
	.byte	TEMPO , 60/2
	.byte	W07
	.byte		N02   , En4 , v068
	.byte	W02
	.byte		        Fn4 , v040
	.byte	W03
	.byte	TEMPO , 82/2
	.byte		N21   , Gn4 , v084
	.byte	W48
	.byte	TEMPO , 76/2
	.byte		N07
	.byte	W16
	.byte		N02   , Gn4 , v124
	.byte	W08
	.byte	TEMPO , 68/2
	.byte		        Gn4 , v120
	.byte	W08
	.byte		        Fn4 , v104
	.byte	W04
	.byte	TEMPO , 40/2
	.byte	W04
	.byte		        Gn4 , v076
	.byte	W08
	.byte	W08
	.byte		N40   , Cn5 , v092
	.byte	W16
	.byte		VOL   , 64*seq_046_mvl/mxv
	.byte	W04
	.byte		        58*seq_046_mvl/mxv
	.byte	W03
	.byte		        53*seq_046_mvl/mxv
	.byte	W03
	.byte		        48*seq_046_mvl/mxv
	.byte	W02
	.byte		        43*seq_046_mvl/mxv
	.byte	W02
	.byte		        37*seq_046_mvl/mxv
	.byte	W02
	.byte		        32*seq_046_mvl/mxv
	.byte	W01
	.byte		        28*seq_046_mvl/mxv
	.byte	W02
	.byte		        24*seq_046_mvl/mxv
	.byte	W01
	.byte		        19*seq_046_mvl/mxv
	.byte	W01
	.byte		        10*seq_046_mvl/mxv
	.byte	W01
	.byte		        7*seq_046_mvl/mxv
	.byte	W01
	.byte		        3*seq_046_mvl/mxv
	.byte	W01
	.byte	FINE

@*********************** Track 02 ***********************@

seq_046_1:
	.byte	KEYSH , seq_046_key+0
	.byte	W02
	.byte		VOICE , 118
	.byte		BENDR , 2
	.byte	W01
	.byte		VOL   , 73*seq_046_mvl/mxv
	.byte		PAN   , c_v+0
	.byte		MODT  , mod_tre
	.byte	W01
	.byte		MOD   , 60
	.byte		LFOS  , 35
	.byte	W32
	.byte		N24   , Fn3 , v112
	.byte	W24
	.byte		        Cn4 
	.byte	W24
	.byte		        As3 
	.byte	W24
	.byte		        Ds4 
	.byte	W24
	.byte		N48   , Cn4 
	.byte	W84
	.byte	FINE

@*********************** Track 03 ***********************@

seq_046_2:
	.byte	KEYSH , seq_046_key+0
	.byte	W04
	.byte		VOICE , 24
	.byte	W01
	.byte		VOL   , 98*seq_046_mvl/mxv
	.byte		PAN   , c_v+0
	.byte		MODT  , mod_pan
	.byte	W30
	.byte		VOL   , 0*seq_046_mvl/mxv
	.byte	W01
	.byte	W02
	.byte		        3*seq_046_mvl/mxv
	.byte	W02
	.byte		        5*seq_046_mvl/mxv
	.byte	W02
	.byte		        8*seq_046_mvl/mxv
	.byte	W01
	.byte		        10*seq_046_mvl/mxv
	.byte	W02
	.byte		        12*seq_046_mvl/mxv
	.byte	W01
	.byte		        14*seq_046_mvl/mxv
	.byte	W02
	.byte		        17*seq_046_mvl/mxv
	.byte	W01
	.byte		        18*seq_046_mvl/mxv
	.byte	W02
	.byte		        21*seq_046_mvl/mxv
	.byte	W02
	.byte		        24*seq_046_mvl/mxv
	.byte	W01
	.byte		        25*seq_046_mvl/mxv
	.byte	W02
	.byte		        28*seq_046_mvl/mxv
	.byte	W01
	.byte		        29*seq_046_mvl/mxv
	.byte	W02
	.byte		        32*seq_046_mvl/mxv
	.byte	W01
	.byte		        33*seq_046_mvl/mxv
	.byte	W02
	.byte		        36*seq_046_mvl/mxv
	.byte	W02
	.byte		        39*seq_046_mvl/mxv
	.byte	W01
	.byte		        40*seq_046_mvl/mxv
	.byte	W02
	.byte		        43*seq_046_mvl/mxv
	.byte	W01
	.byte		        45*seq_046_mvl/mxv
	.byte	W02
	.byte		        47*seq_046_mvl/mxv
	.byte	W01
	.byte		        49*seq_046_mvl/mxv
	.byte	W02
	.byte		        52*seq_046_mvl/mxv
	.byte	W02
	.byte		        54*seq_046_mvl/mxv
	.byte	W01
	.byte		        56*seq_046_mvl/mxv
	.byte	W02
	.byte		        59*seq_046_mvl/mxv
	.byte	W01
	.byte		        60*seq_046_mvl/mxv
	.byte	W02
	.byte		        62*seq_046_mvl/mxv
	.byte	W01
	.byte		        63*seq_046_mvl/mxv
	.byte	W02
	.byte		        66*seq_046_mvl/mxv
	.byte	W02
	.byte		        69*seq_046_mvl/mxv
	.byte	W01
	.byte		        70*seq_046_mvl/mxv
	.byte	W02
	.byte		        73*seq_046_mvl/mxv
	.byte	W01
	.byte		        74*seq_046_mvl/mxv
	.byte	W02
	.byte		        77*seq_046_mvl/mxv
	.byte	W01
	.byte		        79*seq_046_mvl/mxv
	.byte	W02
	.byte		        81*seq_046_mvl/mxv
	.byte	W02
	.byte		        84*seq_046_mvl/mxv
	.byte	W01
	.byte		        86*seq_046_mvl/mxv
	.byte	W02
	.byte		        85*seq_046_mvl/mxv
	.byte	W01
	.byte		        84*seq_046_mvl/mxv
	.byte	W02
	.byte		        82*seq_046_mvl/mxv
	.byte	W01
	.byte		        81*seq_046_mvl/mxv
	.byte	W02
	.byte		        80*seq_046_mvl/mxv
	.byte	W04
	.byte		        73*seq_046_mvl/mxv
	.byte	W02
	.byte		        69*seq_046_mvl/mxv
	.byte	W01
	.byte		        67*seq_046_mvl/mxv
	.byte	W02
	.byte		        63*seq_046_mvl/mxv
	.byte	W01
	.byte		        62*seq_046_mvl/mxv
	.byte	W01
	.byte		        60*seq_046_mvl/mxv
	.byte	W02
	.byte		        56*seq_046_mvl/mxv
	.byte	W01
	.byte		        55*seq_046_mvl/mxv
	.byte	W02
	.byte		        47*seq_046_mvl/mxv
	.byte	W01
	.byte		        43*seq_046_mvl/mxv
	.byte	W01
	.byte		        39*seq_046_mvl/mxv
	.byte	W02
	.byte		        31*seq_046_mvl/mxv
	.byte	W01
	.byte		        27*seq_046_mvl/mxv
	.byte	W02
	.byte		        19*seq_046_mvl/mxv
	.byte	W01
	.byte		        15*seq_046_mvl/mxv
	.byte	W01
	.byte		        0*seq_046_mvl/mxv
	.byte	W01
	.byte	W02
	.byte		        3*seq_046_mvl/mxv
	.byte	W02
	.byte		        5*seq_046_mvl/mxv
	.byte	W02
	.byte		        8*seq_046_mvl/mxv
	.byte	W01
	.byte		        10*seq_046_mvl/mxv
	.byte	W02
	.byte		        12*seq_046_mvl/mxv
	.byte	W01
	.byte		        14*seq_046_mvl/mxv
	.byte	W02
	.byte		        17*seq_046_mvl/mxv
	.byte	W01
	.byte		        18*seq_046_mvl/mxv
	.byte	W02
	.byte		        21*seq_046_mvl/mxv
	.byte	W02
	.byte		        24*seq_046_mvl/mxv
	.byte	W01
	.byte		        25*seq_046_mvl/mxv
	.byte	W02
	.byte		        28*seq_046_mvl/mxv
	.byte	W01
	.byte		        29*seq_046_mvl/mxv
	.byte	W02
	.byte		        32*seq_046_mvl/mxv
	.byte	W01
	.byte		        33*seq_046_mvl/mxv
	.byte		TIE   , Gn4 , v056
	.byte	W02
	.byte		VOL   , 36*seq_046_mvl/mxv
	.byte	W02
	.byte		        39*seq_046_mvl/mxv
	.byte	W01
	.byte		        40*seq_046_mvl/mxv
	.byte	W02
	.byte		        43*seq_046_mvl/mxv
	.byte	W01
	.byte		        45*seq_046_mvl/mxv
	.byte	W02
	.byte		        47*seq_046_mvl/mxv
	.byte	W01
	.byte		        49*seq_046_mvl/mxv
	.byte	W02
	.byte		        52*seq_046_mvl/mxv
	.byte	W02
	.byte		        54*seq_046_mvl/mxv
	.byte	W01
	.byte		        56*seq_046_mvl/mxv
	.byte	W02
	.byte		        59*seq_046_mvl/mxv
	.byte	W01
	.byte		        60*seq_046_mvl/mxv
	.byte	W02
	.byte		        62*seq_046_mvl/mxv
	.byte	W01
	.byte		        63*seq_046_mvl/mxv
	.byte	W02
	.byte		        66*seq_046_mvl/mxv
	.byte	W02
	.byte		        69*seq_046_mvl/mxv
	.byte	W01
	.byte		        70*seq_046_mvl/mxv
	.byte	W02
	.byte		        73*seq_046_mvl/mxv
	.byte	W01
	.byte		        74*seq_046_mvl/mxv
	.byte	W02
	.byte		        77*seq_046_mvl/mxv
	.byte	W01
	.byte		        79*seq_046_mvl/mxv
	.byte	W02
	.byte		        81*seq_046_mvl/mxv
	.byte	W02
	.byte		        84*seq_046_mvl/mxv
	.byte	W01
	.byte		        86*seq_046_mvl/mxv
	.byte	W02
	.byte		        85*seq_046_mvl/mxv
	.byte	W01
	.byte		        84*seq_046_mvl/mxv
	.byte	W02
	.byte		        83*seq_046_mvl/mxv
	.byte	W01
	.byte		        82*seq_046_mvl/mxv
	.byte	W02
	.byte		        81*seq_046_mvl/mxv
	.byte	W04
	.byte		        78*seq_046_mvl/mxv
	.byte	W02
	.byte		        77*seq_046_mvl/mxv
	.byte	W01
	.byte		        76*seq_046_mvl/mxv
	.byte	W02
	.byte		        75*seq_046_mvl/mxv
	.byte	W01
	.byte		        74*seq_046_mvl/mxv
	.byte	W01
	.byte		        74*seq_046_mvl/mxv
	.byte	W02
	.byte		        72*seq_046_mvl/mxv
	.byte	W01
	.byte		        72*seq_046_mvl/mxv
	.byte	W02
	.byte		        70*seq_046_mvl/mxv
	.byte	W01
	.byte		        70*seq_046_mvl/mxv
	.byte	W01
	.byte		        69*seq_046_mvl/mxv
	.byte	W02
	.byte		        68*seq_046_mvl/mxv
	.byte	W01
	.byte		        67*seq_046_mvl/mxv
	.byte	W02
	.byte		        66*seq_046_mvl/mxv
	.byte	W01
	.byte		        65*seq_046_mvl/mxv
	.byte	W02
	.byte	W06
	.byte		        62*seq_046_mvl/mxv
	.byte	W02
	.byte		        61*seq_046_mvl/mxv
	.byte	W01
	.byte		        60*seq_046_mvl/mxv
	.byte	W02
	.byte		        58*seq_046_mvl/mxv
	.byte	W01
	.byte		        57*seq_046_mvl/mxv
	.byte	W02
	.byte		        55*seq_046_mvl/mxv
	.byte	W04
	.byte		        51*seq_046_mvl/mxv
	.byte	W02
	.byte		        49*seq_046_mvl/mxv
	.byte	W01
	.byte		        48*seq_046_mvl/mxv
	.byte	W02
	.byte		        46*seq_046_mvl/mxv
	.byte	W01
	.byte		        44*seq_046_mvl/mxv
	.byte	W01
	.byte		        42*seq_046_mvl/mxv
	.byte	W02
	.byte		        37*seq_046_mvl/mxv
	.byte	W01
	.byte		        34*seq_046_mvl/mxv
	.byte	W02
	.byte		        29*seq_046_mvl/mxv
	.byte	W01
	.byte		        27*seq_046_mvl/mxv
	.byte	W01
	.byte		        25*seq_046_mvl/mxv
	.byte	W02
	.byte		        20*seq_046_mvl/mxv
	.byte	W01
	.byte		        17*seq_046_mvl/mxv
	.byte	W02
	.byte		        12*seq_046_mvl/mxv
	.byte	W01
	.byte		        10*seq_046_mvl/mxv
	.byte	W10
	.byte		EOT
	.byte	FINE

@*********************** Track 04 ***********************@

seq_046_3:
	.byte	KEYSH , seq_046_key+0
	.byte	W06
	.byte		VOICE , 95
	.byte		VOL   , 108*seq_046_mvl/mxv
	.byte		PAN   , c_v-20
	.byte	W01
	.byte		MOD   , 45
	.byte		MODT  , mod_tre
	.byte	W28
	.byte		VOL   , 0*seq_046_mvl/mxv
	.byte	W01
	.byte		N48   , Cn2 , v100
	.byte	W02
	.byte		VOL   , 3*seq_046_mvl/mxv
	.byte	W02
	.byte		        5*seq_046_mvl/mxv
	.byte	W02
	.byte		        8*seq_046_mvl/mxv
	.byte	W01
	.byte		        10*seq_046_mvl/mxv
	.byte	W02
	.byte		        12*seq_046_mvl/mxv
	.byte	W01
	.byte		        14*seq_046_mvl/mxv
	.byte	W02
	.byte		        17*seq_046_mvl/mxv
	.byte	W01
	.byte		        18*seq_046_mvl/mxv
	.byte	W02
	.byte		        21*seq_046_mvl/mxv
	.byte	W02
	.byte		        24*seq_046_mvl/mxv
	.byte	W01
	.byte		        25*seq_046_mvl/mxv
	.byte	W02
	.byte		        28*seq_046_mvl/mxv
	.byte	W01
	.byte		        29*seq_046_mvl/mxv
	.byte	W02
	.byte		        32*seq_046_mvl/mxv
	.byte	W01
	.byte		        33*seq_046_mvl/mxv
	.byte	W02
	.byte		        36*seq_046_mvl/mxv
	.byte	W02
	.byte		        39*seq_046_mvl/mxv
	.byte	W01
	.byte		        40*seq_046_mvl/mxv
	.byte	W02
	.byte		        43*seq_046_mvl/mxv
	.byte	W01
	.byte		        45*seq_046_mvl/mxv
	.byte	W02
	.byte		        47*seq_046_mvl/mxv
	.byte	W01
	.byte		        49*seq_046_mvl/mxv
	.byte	W02
	.byte		        52*seq_046_mvl/mxv
	.byte	W02
	.byte		        54*seq_046_mvl/mxv
	.byte	W01
	.byte		        56*seq_046_mvl/mxv
	.byte	W02
	.byte		        59*seq_046_mvl/mxv
	.byte	W01
	.byte		        60*seq_046_mvl/mxv
	.byte	W02
	.byte		        62*seq_046_mvl/mxv
	.byte	W01
	.byte		        63*seq_046_mvl/mxv
	.byte	W02
	.byte		        66*seq_046_mvl/mxv
	.byte		N48   , As1 
	.byte	W02
	.byte		VOL   , 69*seq_046_mvl/mxv
	.byte	W01
	.byte		        70*seq_046_mvl/mxv
	.byte	W02
	.byte		        73*seq_046_mvl/mxv
	.byte	W01
	.byte		        74*seq_046_mvl/mxv
	.byte	W02
	.byte		        77*seq_046_mvl/mxv
	.byte	W01
	.byte		        79*seq_046_mvl/mxv
	.byte	W02
	.byte		        81*seq_046_mvl/mxv
	.byte	W02
	.byte		        84*seq_046_mvl/mxv
	.byte	W01
	.byte		        86*seq_046_mvl/mxv
	.byte	W02
	.byte		        85*seq_046_mvl/mxv
	.byte	W01
	.byte		        84*seq_046_mvl/mxv
	.byte	W02
	.byte		        82*seq_046_mvl/mxv
	.byte	W01
	.byte		        81*seq_046_mvl/mxv
	.byte	W02
	.byte		        80*seq_046_mvl/mxv
	.byte	W04
	.byte		        73*seq_046_mvl/mxv
	.byte	W02
	.byte		        69*seq_046_mvl/mxv
	.byte	W01
	.byte		        67*seq_046_mvl/mxv
	.byte	W02
	.byte		        63*seq_046_mvl/mxv
	.byte	W01
	.byte		        62*seq_046_mvl/mxv
	.byte	W01
	.byte		        60*seq_046_mvl/mxv
	.byte	W02
	.byte		        56*seq_046_mvl/mxv
	.byte	W01
	.byte		        55*seq_046_mvl/mxv
	.byte	W02
	.byte		        47*seq_046_mvl/mxv
	.byte	W01
	.byte		        43*seq_046_mvl/mxv
	.byte	W01
	.byte		        39*seq_046_mvl/mxv
	.byte	W02
	.byte		        31*seq_046_mvl/mxv
	.byte	W01
	.byte		        27*seq_046_mvl/mxv
	.byte	W02
	.byte		        19*seq_046_mvl/mxv
	.byte	W01
	.byte		        15*seq_046_mvl/mxv
	.byte	W01
	.byte		        0*seq_046_mvl/mxv
	.byte	W01
	.byte		TIE   , Cn2 
	.byte	W02
	.byte		VOL   , 3*seq_046_mvl/mxv
	.byte	W02
	.byte		        5*seq_046_mvl/mxv
	.byte	W02
	.byte		        8*seq_046_mvl/mxv
	.byte	W01
	.byte		        10*seq_046_mvl/mxv
	.byte	W02
	.byte		        12*seq_046_mvl/mxv
	.byte	W01
	.byte		        14*seq_046_mvl/mxv
	.byte	W02
	.byte		        17*seq_046_mvl/mxv
	.byte	W01
	.byte		        18*seq_046_mvl/mxv
	.byte	W02
	.byte		        21*seq_046_mvl/mxv
	.byte	W02
	.byte		        24*seq_046_mvl/mxv
	.byte	W01
	.byte		        25*seq_046_mvl/mxv
	.byte	W02
	.byte		        28*seq_046_mvl/mxv
	.byte	W01
	.byte		        29*seq_046_mvl/mxv
	.byte	W02
	.byte		        32*seq_046_mvl/mxv
	.byte	W01
	.byte		        33*seq_046_mvl/mxv
	.byte	W02
	.byte		        36*seq_046_mvl/mxv
	.byte	W02
	.byte		        39*seq_046_mvl/mxv
	.byte	W01
	.byte		        40*seq_046_mvl/mxv
	.byte	W02
	.byte		        43*seq_046_mvl/mxv
	.byte	W01
	.byte		        45*seq_046_mvl/mxv
	.byte	W02
	.byte		        47*seq_046_mvl/mxv
	.byte	W01
	.byte		        49*seq_046_mvl/mxv
	.byte	W02
	.byte		        52*seq_046_mvl/mxv
	.byte	W02
	.byte		        54*seq_046_mvl/mxv
	.byte	W01
	.byte		        56*seq_046_mvl/mxv
	.byte	W02
	.byte		        59*seq_046_mvl/mxv
	.byte	W01
	.byte		        60*seq_046_mvl/mxv
	.byte	W02
	.byte		        62*seq_046_mvl/mxv
	.byte	W01
	.byte		        63*seq_046_mvl/mxv
	.byte	W02
	.byte		        66*seq_046_mvl/mxv
	.byte	W02
	.byte		        69*seq_046_mvl/mxv
	.byte	W01
	.byte		        70*seq_046_mvl/mxv
	.byte	W02
	.byte		        73*seq_046_mvl/mxv
	.byte	W01
	.byte		        74*seq_046_mvl/mxv
	.byte	W02
	.byte		        77*seq_046_mvl/mxv
	.byte	W01
	.byte		        79*seq_046_mvl/mxv
	.byte	W02
	.byte		        81*seq_046_mvl/mxv
	.byte	W02
	.byte		        84*seq_046_mvl/mxv
	.byte	W01
	.byte		        86*seq_046_mvl/mxv
	.byte	W02
	.byte		        85*seq_046_mvl/mxv
	.byte	W01
	.byte		        84*seq_046_mvl/mxv
	.byte	W02
	.byte		        83*seq_046_mvl/mxv
	.byte	W01
	.byte		        82*seq_046_mvl/mxv
	.byte	W02
	.byte		        81*seq_046_mvl/mxv
	.byte	W04
	.byte		        78*seq_046_mvl/mxv
	.byte	W02
	.byte		        77*seq_046_mvl/mxv
	.byte	W01
	.byte		        76*seq_046_mvl/mxv
	.byte	W02
	.byte		        75*seq_046_mvl/mxv
	.byte	W01
	.byte		        74*seq_046_mvl/mxv
	.byte	W01
	.byte		        74*seq_046_mvl/mxv
	.byte	W02
	.byte		        72*seq_046_mvl/mxv
	.byte	W01
	.byte		        72*seq_046_mvl/mxv
	.byte	W02
	.byte		        70*seq_046_mvl/mxv
	.byte	W01
	.byte		        70*seq_046_mvl/mxv
	.byte	W01
	.byte		        69*seq_046_mvl/mxv
	.byte	W02
	.byte		        68*seq_046_mvl/mxv
	.byte	W01
	.byte		        67*seq_046_mvl/mxv
	.byte	W02
	.byte		        66*seq_046_mvl/mxv
	.byte	W01
	.byte		        65*seq_046_mvl/mxv
	.byte	W02
	.byte	W06
	.byte		        62*seq_046_mvl/mxv
	.byte	W02
	.byte		        61*seq_046_mvl/mxv
	.byte	W01
	.byte		        60*seq_046_mvl/mxv
	.byte	W02
	.byte		        58*seq_046_mvl/mxv
	.byte	W01
	.byte		        57*seq_046_mvl/mxv
	.byte	W02
	.byte		        55*seq_046_mvl/mxv
	.byte	W04
	.byte		        51*seq_046_mvl/mxv
	.byte	W02
	.byte		        49*seq_046_mvl/mxv
	.byte	W01
	.byte		        48*seq_046_mvl/mxv
	.byte	W02
	.byte		        46*seq_046_mvl/mxv
	.byte	W01
	.byte		        44*seq_046_mvl/mxv
	.byte	W01
	.byte		        42*seq_046_mvl/mxv
	.byte	W02
	.byte		        37*seq_046_mvl/mxv
	.byte	W01
	.byte		        34*seq_046_mvl/mxv
	.byte	W02
	.byte		        29*seq_046_mvl/mxv
	.byte	W01
	.byte		        27*seq_046_mvl/mxv
	.byte	W01
	.byte		        25*seq_046_mvl/mxv
	.byte	W02
	.byte		        20*seq_046_mvl/mxv
	.byte	W01
	.byte		        17*seq_046_mvl/mxv
	.byte	W02
	.byte		        12*seq_046_mvl/mxv
	.byte	W01
	.byte		        10*seq_046_mvl/mxv
	.byte	W10
	.byte		EOT
	.byte	FINE

@*********************** Track 05 ***********************@

seq_046_4:
	.byte	KEYSH , seq_046_key+0
	.byte	W07
	.byte		VOICE , 95
	.byte	W01
	.byte		MOD   , 45
	.byte		PAN   , c_v+20
	.byte		MODT  , mod_tre
	.byte	W01
	.byte		VOL   , 108*seq_046_mvl/mxv
	.byte	W24
	.byte	W02
	.byte		        0*seq_046_mvl/mxv
	.byte	W01
	.byte		N96   , Fn1 , v100
	.byte	W02
	.byte		VOL   , 3*seq_046_mvl/mxv
	.byte	W02
	.byte		        5*seq_046_mvl/mxv
	.byte	W02
	.byte		        8*seq_046_mvl/mxv
	.byte	W01
	.byte		        10*seq_046_mvl/mxv
	.byte	W02
	.byte		        12*seq_046_mvl/mxv
	.byte	W01
	.byte		        14*seq_046_mvl/mxv
	.byte	W02
	.byte		        17*seq_046_mvl/mxv
	.byte	W01
	.byte		        18*seq_046_mvl/mxv
	.byte	W02
	.byte		        21*seq_046_mvl/mxv
	.byte	W02
	.byte		        24*seq_046_mvl/mxv
	.byte	W01
	.byte		        25*seq_046_mvl/mxv
	.byte	W02
	.byte		        28*seq_046_mvl/mxv
	.byte	W01
	.byte		        29*seq_046_mvl/mxv
	.byte	W02
	.byte		        32*seq_046_mvl/mxv
	.byte	W01
	.byte		        33*seq_046_mvl/mxv
	.byte	W02
	.byte		        36*seq_046_mvl/mxv
	.byte	W02
	.byte		        39*seq_046_mvl/mxv
	.byte	W01
	.byte		        40*seq_046_mvl/mxv
	.byte	W02
	.byte		        43*seq_046_mvl/mxv
	.byte	W01
	.byte		        45*seq_046_mvl/mxv
	.byte	W02
	.byte		        47*seq_046_mvl/mxv
	.byte	W01
	.byte		        49*seq_046_mvl/mxv
	.byte	W02
	.byte		        52*seq_046_mvl/mxv
	.byte	W02
	.byte		        54*seq_046_mvl/mxv
	.byte	W01
	.byte		        56*seq_046_mvl/mxv
	.byte	W02
	.byte		        59*seq_046_mvl/mxv
	.byte	W01
	.byte		        60*seq_046_mvl/mxv
	.byte	W02
	.byte		        62*seq_046_mvl/mxv
	.byte	W01
	.byte		        63*seq_046_mvl/mxv
	.byte	W02
	.byte		        66*seq_046_mvl/mxv
	.byte	W02
	.byte		        69*seq_046_mvl/mxv
	.byte	W01
	.byte		        70*seq_046_mvl/mxv
	.byte	W02
	.byte		        73*seq_046_mvl/mxv
	.byte	W01
	.byte		        74*seq_046_mvl/mxv
	.byte	W02
	.byte		        77*seq_046_mvl/mxv
	.byte	W01
	.byte		        79*seq_046_mvl/mxv
	.byte	W02
	.byte		        81*seq_046_mvl/mxv
	.byte	W02
	.byte		        84*seq_046_mvl/mxv
	.byte	W01
	.byte		        86*seq_046_mvl/mxv
	.byte	W02
	.byte		        85*seq_046_mvl/mxv
	.byte	W01
	.byte		        84*seq_046_mvl/mxv
	.byte	W02
	.byte		        82*seq_046_mvl/mxv
	.byte	W01
	.byte		        81*seq_046_mvl/mxv
	.byte	W02
	.byte		        80*seq_046_mvl/mxv
	.byte	W04
	.byte		        73*seq_046_mvl/mxv
	.byte	W02
	.byte		        69*seq_046_mvl/mxv
	.byte	W01
	.byte		        67*seq_046_mvl/mxv
	.byte	W02
	.byte		        63*seq_046_mvl/mxv
	.byte	W01
	.byte		        62*seq_046_mvl/mxv
	.byte	W01
	.byte		        60*seq_046_mvl/mxv
	.byte	W02
	.byte		        56*seq_046_mvl/mxv
	.byte	W01
	.byte		        55*seq_046_mvl/mxv
	.byte	W02
	.byte		        47*seq_046_mvl/mxv
	.byte	W01
	.byte		        43*seq_046_mvl/mxv
	.byte	W01
	.byte		        39*seq_046_mvl/mxv
	.byte	W02
	.byte		        31*seq_046_mvl/mxv
	.byte	W01
	.byte		        27*seq_046_mvl/mxv
	.byte	W02
	.byte		        19*seq_046_mvl/mxv
	.byte	W01
	.byte		        15*seq_046_mvl/mxv
	.byte	W01
	.byte		        0*seq_046_mvl/mxv
	.byte	W01
	.byte		TIE   , En1 
	.byte	W02
	.byte		VOL   , 3*seq_046_mvl/mxv
	.byte	W02
	.byte		        5*seq_046_mvl/mxv
	.byte	W02
	.byte		        8*seq_046_mvl/mxv
	.byte	W01
	.byte		        10*seq_046_mvl/mxv
	.byte	W02
	.byte		        12*seq_046_mvl/mxv
	.byte	W01
	.byte		        14*seq_046_mvl/mxv
	.byte	W02
	.byte		        17*seq_046_mvl/mxv
	.byte	W01
	.byte		        18*seq_046_mvl/mxv
	.byte	W02
	.byte		        21*seq_046_mvl/mxv
	.byte	W02
	.byte		        24*seq_046_mvl/mxv
	.byte	W01
	.byte		        25*seq_046_mvl/mxv
	.byte	W02
	.byte		        28*seq_046_mvl/mxv
	.byte	W01
	.byte		        29*seq_046_mvl/mxv
	.byte	W02
	.byte		        32*seq_046_mvl/mxv
	.byte	W01
	.byte		        33*seq_046_mvl/mxv
	.byte	W02
	.byte		        36*seq_046_mvl/mxv
	.byte	W02
	.byte		        39*seq_046_mvl/mxv
	.byte	W01
	.byte		        40*seq_046_mvl/mxv
	.byte	W02
	.byte		        43*seq_046_mvl/mxv
	.byte	W01
	.byte		        45*seq_046_mvl/mxv
	.byte	W02
	.byte		        47*seq_046_mvl/mxv
	.byte	W01
	.byte		        49*seq_046_mvl/mxv
	.byte	W02
	.byte		        52*seq_046_mvl/mxv
	.byte	W02
	.byte		        54*seq_046_mvl/mxv
	.byte	W01
	.byte		        56*seq_046_mvl/mxv
	.byte	W02
	.byte		        59*seq_046_mvl/mxv
	.byte	W01
	.byte		        60*seq_046_mvl/mxv
	.byte	W02
	.byte		        62*seq_046_mvl/mxv
	.byte	W01
	.byte		        63*seq_046_mvl/mxv
	.byte	W02
	.byte		        66*seq_046_mvl/mxv
	.byte	W02
	.byte		        69*seq_046_mvl/mxv
	.byte	W01
	.byte		        70*seq_046_mvl/mxv
	.byte	W02
	.byte		        73*seq_046_mvl/mxv
	.byte	W01
	.byte		        74*seq_046_mvl/mxv
	.byte	W02
	.byte		        77*seq_046_mvl/mxv
	.byte	W01
	.byte		        79*seq_046_mvl/mxv
	.byte	W02
	.byte		        81*seq_046_mvl/mxv
	.byte	W02
	.byte		        84*seq_046_mvl/mxv
	.byte	W01
	.byte		        86*seq_046_mvl/mxv
	.byte	W02
	.byte		        85*seq_046_mvl/mxv
	.byte	W01
	.byte		        84*seq_046_mvl/mxv
	.byte	W02
	.byte		        83*seq_046_mvl/mxv
	.byte	W01
	.byte		        82*seq_046_mvl/mxv
	.byte	W02
	.byte		        81*seq_046_mvl/mxv
	.byte	W04
	.byte		        78*seq_046_mvl/mxv
	.byte	W02
	.byte		        77*seq_046_mvl/mxv
	.byte	W01
	.byte		        76*seq_046_mvl/mxv
	.byte	W02
	.byte		        75*seq_046_mvl/mxv
	.byte	W01
	.byte		        74*seq_046_mvl/mxv
	.byte	W01
	.byte		        74*seq_046_mvl/mxv
	.byte	W02
	.byte		        72*seq_046_mvl/mxv
	.byte	W01
	.byte		        72*seq_046_mvl/mxv
	.byte	W02
	.byte		        70*seq_046_mvl/mxv
	.byte	W01
	.byte		        70*seq_046_mvl/mxv
	.byte	W01
	.byte		        69*seq_046_mvl/mxv
	.byte	W02
	.byte		        68*seq_046_mvl/mxv
	.byte	W01
	.byte		        67*seq_046_mvl/mxv
	.byte	W02
	.byte		        66*seq_046_mvl/mxv
	.byte	W01
	.byte		        65*seq_046_mvl/mxv
	.byte	W02
	.byte	W06
	.byte		        62*seq_046_mvl/mxv
	.byte	W02
	.byte		        61*seq_046_mvl/mxv
	.byte	W01
	.byte		        60*seq_046_mvl/mxv
	.byte	W02
	.byte		        58*seq_046_mvl/mxv
	.byte	W01
	.byte		        57*seq_046_mvl/mxv
	.byte	W02
	.byte		        55*seq_046_mvl/mxv
	.byte	W04
	.byte		        51*seq_046_mvl/mxv
	.byte	W02
	.byte		        49*seq_046_mvl/mxv
	.byte	W01
	.byte		        48*seq_046_mvl/mxv
	.byte	W02
	.byte		        46*seq_046_mvl/mxv
	.byte	W01
	.byte		        44*seq_046_mvl/mxv
	.byte	W01
	.byte		        42*seq_046_mvl/mxv
	.byte	W02
	.byte		        37*seq_046_mvl/mxv
	.byte	W01
	.byte		        34*seq_046_mvl/mxv
	.byte	W02
	.byte		        29*seq_046_mvl/mxv
	.byte	W01
	.byte		        27*seq_046_mvl/mxv
	.byte	W01
	.byte		        25*seq_046_mvl/mxv
	.byte	W02
	.byte		        20*seq_046_mvl/mxv
	.byte	W01
	.byte		        17*seq_046_mvl/mxv
	.byte	W02
	.byte		        12*seq_046_mvl/mxv
	.byte	W01
	.byte		        10*seq_046_mvl/mxv
	.byte	W10
	.byte		EOT
	.byte	FINE

@*********************** Track 06 ***********************@

seq_046_5:
	.byte	KEYSH , seq_046_key+0
	.byte	W09
	.byte		VOICE , 9
	.byte		MODT  , mod_pan
	.byte	W01
	.byte		VOL   , 118*seq_046_mvl/mxv
	.byte		PAN   , c_v+0
	.byte	W24
	.byte	W02
	.byte		N08   , Cs2 , v127
	.byte	W08
	.byte		N04   , Gs2 , v092
	.byte	W08
	.byte		        Cn3 , v112
	.byte	W08
	.byte		        Fn3 , v100
	.byte	W24
	.byte		N08   , Fs2 , v127
	.byte	W08
	.byte		N04   , Cs3 , v092
	.byte	W08
	.byte		        Fn3 , v112
	.byte	W08
	.byte		        As3 , v100
	.byte	W24
	.byte		N08   , Cn2 , v080
	.byte	W08
	.byte		N04   , Cn3 , v092
	.byte	W08
	.byte		        Dn3 , v112
	.byte	W08
	.byte		        Gn3 , v056
	.byte	W24
	.byte		N08   , Cn2 , v080
	.byte	W08
	.byte		N04   , Cn3 , v092
	.byte	W08
	.byte		        Dn3 , v112
	.byte	W08
	.byte		N08   , Fn3 , v127
	.byte	W08
	.byte		N04   , En3 , v092
	.byte	W08
	.byte		        Cn3 , v056
	.byte	W08
	.byte	W08
	.byte		        Gn3 , v080
	.byte	W02
	.byte		        Dn4 , v060
	.byte	W01
	.byte		        En4 
	.byte	W01
	.byte		        Gn4 , v080
	.byte	W04
	.byte	FINE

@******************************************************@

	.align	2

seq_046:
	.byte	6	@ NumTrks
	.byte	0	@ NumBlks
	.byte	seq_046_pri	@ Priority
	.byte	seq_046_rev	@ Reverb

	.word	seq_046_grp

	.word	seq_046_0
	.word	seq_046_1
	.word	seq_046_2
	.word	seq_046_3
	.word	seq_046_4
	.word	seq_046_5

	.end
