@ File generated by m4a2s Song-Module
	.include "MPlayDef.s"

	.equ	seq_103_grp, bank_014
	.equ	seq_103_pri, 50
	.equ	seq_103_rev, 178
	.equ	seq_103_mvl, 127
	.equ	seq_103_key, 0

	.section .rodata
	.global	seq_103
	.align	2

@*********************** Track 01 ***********************@

seq_103_0:
	.byte	KEYSH , seq_103_key+0
	.byte	TEMPO , 240/2
	.byte		VOICE , 127
	.byte	W01
	.byte		VOL   , 61*seq_103_mvl/mxv
	.byte	W01
	.byte		PAN   , c_v+0
	.byte	W10
	.byte	TEMPO , 134/2
	.byte	W12
	.byte	W48
	.byte		N03   , Cn4 , v120
	.byte		N02   , Fs4 , v060
	.byte		N22   , Cs5 , v120
	.byte	W06
	.byte		N03   , Fs4 , v040
	.byte	W06
	.byte		N11   , Gs4 , v080
	.byte	W12
	.byte		N03   , En4 , v120
	.byte		N02   , Fs4 , v060
	.byte	W06
	.byte		N03   , Fs4 , v040
	.byte	W06
	.byte		        Cn4 , v100
	.byte		N11   , Gs4 , v080
	.byte	W12
	.byte		N03   , Cn4 , v120
	.byte		N02   , Fs4 , v060
	.byte	W06
	.byte		N03   , Fs4 , v040
	.byte	W06
	.byte		N11   , Gs4 , v080
	.byte	W12
	.byte		N03   , En4 , v120
	.byte		N02   , Fs4 , v060
	.byte	W06
	.byte		N03   , Fs4 , v040
	.byte	W06
	.byte		N11   , Gs4 , v080
	.byte	W12
	.byte	PEND
	.byte		N03   , Cn4 , v120
	.byte		N02   , Fs4 , v060
	.byte	W06
	.byte		N03   , Fs4 , v040
	.byte	W06
	.byte		N11   , Gs4 , v080
	.byte	W01
	.byte		N03   , Dn6 
	.byte	W11
	.byte		        En4 , v120
	.byte		N02   , Fs4 , v060
	.byte	W06
	.byte		N03   , Fs4 , v040
	.byte	W06
	.byte		        Cn4 , v120
	.byte		N11   , Gs4 , v080
	.byte	W07
	.byte		N03   , Ds6 , v060
	.byte	W05
	.byte		        Cn4 , v120
	.byte		N02   , Fs4 , v060
	.byte	W06
	.byte		N03   , Fs4 , v040
	.byte	W06
	.byte		N11   , Gs4 , v080
	.byte	W01
	.byte		N03   , Dn6 
	.byte	W11
	.byte		        En4 , v120
	.byte		N02   , Fs4 , v060
	.byte	W06
	.byte		N03   , Fs4 , v040
	.byte	W06
	.byte		N11   , Gs4 , v080
	.byte	W12
	.byte	PEND
	.byte		N03   , Cn4 , v120
	.byte		N02   , Fs4 , v060
	.byte	W06
	.byte		N03   , Fs4 , v040
	.byte	W06
	.byte		N11   , Gs4 , v080
	.byte	W12
	.byte		N03   , En4 , v120
	.byte		N02   , Fs4 , v060
	.byte	W06
	.byte		N03   , Fs4 , v040
	.byte	W06
	.byte		        Cn4 , v100
	.byte		N11   , Gs4 , v080
	.byte	W12
	.byte		N03   , Cn4 , v120
	.byte		N02   , Fs4 , v060
	.byte	W06
	.byte		N03   , Fs4 , v040
	.byte	W06
	.byte		N11   , Gs4 , v080
	.byte	W12
	.byte		N03   , En4 , v120
	.byte		N02   , Fs4 , v060
	.byte	W06
	.byte		N03   , Fs4 , v040
	.byte	W06
	.byte		N11   , Gs4 , v080
	.byte	W12
	.byte	PEND
	.byte		N03   , Cn4 , v120
	.byte		N02   , Fs4 , v060
	.byte	W06
	.byte		N03   , Fs4 , v040
	.byte	W06
	.byte		N11   , Gs4 , v080
	.byte	W01
	.byte		N03   , Dn6 
	.byte	W11
	.byte		        En4 , v120
	.byte		N02   , Fs4 , v060
	.byte	W06
	.byte		N03   , Fs4 , v040
	.byte	W06
	.byte		        Cn4 , v100
	.byte		N11   , Gs4 , v080
	.byte	W07
	.byte		N03   , Ds6 , v060
	.byte	W05
	.byte		        Cn4 , v120
	.byte		N02   , Fs4 , v060
	.byte	W06
	.byte		N03   , Fs4 , v040
	.byte	W06
	.byte		N11   , Gs4 , v080
	.byte	W01
	.byte		N03   , Dn6 
	.byte	W11
	.byte		        En4 , v120
	.byte		N02   , Fs4 , v060
	.byte	W06
	.byte		N03   , Fs4 , v040
	.byte	W06
	.byte		N11   , Gs4 , v080
	.byte	W12
	.byte	PATT
	 .word	seq_103_0 + 0x11
	.byte	PATT
	 .word	seq_103_0 + 0x53
	.byte	PATT
	 .word	seq_103_0 + 0x99
	.byte		N03   , Cn4 , v120
	.byte		N02   , Fs4 , v060
	.byte	W06
	.byte		N03   , Fs4 , v040
	.byte	W06
	.byte		N11   , Gs4 , v080
	.byte	W01
	.byte		N03   , Dn6 
	.byte	W11
	.byte		        En4 , v120
	.byte		N02   , Fs4 , v060
	.byte	W06
	.byte		N03   , Fs4 , v040
	.byte	W06
	.byte		        Cn4 , v100
	.byte		N11   , Gs4 , v080
	.byte	W07
	.byte		N03   , Ds6 , v060
	.byte	W05
	.byte		        Cn4 , v120
	.byte		N02   , Fs4 , v060
	.byte	W06
	.byte		N03   , Fs4 , v040
	.byte	W06
	.byte		        En4 , v120
	.byte		N11   , Gs4 , v080
	.byte	W12
	.byte		N03   , En4 , v120
	.byte		N02   , Fs4 , v060
	.byte	W06
	.byte		N03   , Fs4 , v040
	.byte	W06
	.byte		        Cn4 , v120
	.byte		N11   , Gs4 , v080
	.byte	W12
	.byte		N03   , Cn4 , v120
	.byte		N04   , Fs4 , v060
	.byte		N22   , Cs5 , v120
	.byte	W12
	.byte		N04   , Gs4 , v040
	.byte	W12
	.byte		N03   , Ds4 , v120
	.byte		N04   , Fs4 , v060
	.byte	W12
	.byte		N03   , Cn4 , v100
	.byte		N04   , Gs4 , v040
	.byte	W12
	.byte		N03   , Cn4 , v120
	.byte		N04   , Fs4 , v060
	.byte	W12
	.byte		        Gs4 , v040
	.byte		N03   , Dn6 , v080
	.byte	W12
	.byte		N04   , Fs4 , v060
	.byte		N03   , Gs5 , v080
	.byte	W12
	.byte		N04   , Gs4 , v040
	.byte	W12
	.byte		N03   , Cn4 , v120
	.byte		N04   , Fs4 , v060
	.byte	W12
	.byte		        Gs4 , v040
	.byte	W12
	.byte		N03   , Ds4 , v120
	.byte		N04   , Fs4 , v060
	.byte	W12
	.byte		N03   , Cn4 , v120
	.byte		N04   , Gs4 , v040
	.byte	W12
	.byte		N03   , Cn4 , v120
	.byte		N04   , Fs4 , v060
	.byte	W12
	.byte		        Gs4 , v040
	.byte		N03   , Dn6 , v080
	.byte	W12
	.byte		N04   , Fs4 , v060
	.byte		N03   , As4 , v120
	.byte		N03   , Fs5 
	.byte	W12
	.byte		N04   , Gs4 , v040
	.byte	W12
	.byte	PEND
	.byte		N03   , Cn4 , v120
	.byte		N04   , Fs4 , v060
	.byte	W12
	.byte		        Gs4 , v040
	.byte	W12
	.byte		N03   , Ds4 , v120
	.byte		N04   , Fs4 , v060
	.byte	W12
	.byte		N03   , Cn4 , v100
	.byte		N04   , Gs4 , v040
	.byte	W12
	.byte		N03   , Cn4 , v120
	.byte		N04   , Fs4 , v060
	.byte	W12
	.byte		        Gs4 , v040
	.byte		N03   , Dn6 , v080
	.byte	W12
	.byte		N04   , Fs4 , v060
	.byte		N03   , Gs5 , v080
	.byte	W12
	.byte		N04   , Gs4 , v040
	.byte	W12
	.byte	PEND
	.byte	PATT
	 .word	seq_103_0 + 0x1A7
	.byte	PATT
	 .word	seq_103_0 + 0x1DA
	.byte	PATT
	 .word	seq_103_0 + 0x1A7
	.byte		N03   , Cn4 , v120
	.byte		N04   , Fs4 , v060
	.byte	W12
	.byte		        Gs4 , v040
	.byte	W12
	.byte		N03   , Ds4 , v120
	.byte		N04   , Fs4 , v060
	.byte	W12
	.byte		N03   , Cn4 , v100
	.byte		N04   , Gs4 , v040
	.byte	W12
	.byte		N03   , Cn4 , v120
	.byte		N04   , Fs4 , v060
	.byte	W12
	.byte		N03   , Cn4 
	.byte		N04   , Gs4 , v040
	.byte		N03   , Dn6 , v080
	.byte	W06
	.byte		        Cn4 , v100
	.byte	W06
	.byte		        En4 , v120
	.byte		N04   , Fs4 , v060
	.byte		N22   , Cs5 , v120
	.byte	W12
	.byte		N04   , Gs4 , v040
	.byte	W12
	.byte		N03   , Cn4 , v120
	.byte		N04   , Fs4 , v060
	.byte	W12
	.byte		        Gs4 , v040
	.byte	W12
	.byte		N03   , En4 , v120
	.byte		N04   , Fs4 , v060
	.byte	W06
	.byte		        Fs4 , v040
	.byte	W06
	.byte		N03   , Cn4 , v120
	.byte		N04   , Gs4 , v040
	.byte	W12
	.byte		N03   , Cn4 , v120
	.byte		N04   , Fs4 , v060
	.byte	W06
	.byte		N03   , Dn4 , v120
	.byte		N04   , Fs4 , v040
	.byte	W06
	.byte		N03   , En4 , v120
	.byte		N11   , Gs4 , v080
	.byte	W12
	.byte		N03   , Dn4 , v120
	.byte		N02   , Fs4 , v060
	.byte	W06
	.byte		N03   , Fs4 , v040
	.byte	W06
	.byte		        Dn4 , v100
	.byte		N11   , Gs4 , v080
	.byte	W06
	.byte		N03   , Dn4 , v100
	.byte	W06
	.byte	GOTO
	 .word	seq_103_0 + 0x11
	.byte	FINE

@*********************** Track 02 ***********************@

seq_103_1:
	.byte	KEYSH , seq_103_key+0
	.byte		VOICE , 8
	.byte	W01
	.byte		VOL   , 56*seq_103_mvl/mxv
	.byte	W01
	.byte		PAN   , c_v+0
	.byte	W01
	.byte		LFOS  , 40
	.byte	W01
	.byte		MODT  , mod_pan
	.byte	W20
	.byte	W48
	.byte	W22
	.byte		MOD   , 0
	.byte	W02
	.byte		N01   , Cn4 , v040
	.byte		N01   , Ds4 , v080
	.byte	W01
	.byte		N23   , Cs4 
	.byte		N23   , En4 , v120
	.byte	W06
	.byte		MOD   , 80
	.byte	W17
	.byte		N08   , Bn3 , v080
	.byte		N08   , Dn4 , v120
	.byte	W08
	.byte		N05   , Bn3 , v040
	.byte		N05   , Dn4 
	.byte	W14
	.byte		MOD   , 0
	.byte	W02
	.byte		N01   , Cs4 
	.byte		N01   , Fn4 , v080
	.byte	W01
	.byte		N23   , Dn4 
	.byte		N23   , Fs4 , v120
	.byte	W06
	.byte		MOD   , 80
	.byte	W17
	.byte	PEND
	.byte		N08   , Cs4 , v080
	.byte		N08   , En4 , v120
	.byte	W08
	.byte		N05   , Cs4 , v040
	.byte		N05   , En4 
	.byte	W05
	.byte		N02   , Cn4 , v060
	.byte	W01
	.byte		        Bn3 
	.byte	W01
	.byte		N03   , An3 
	.byte	W01
	.byte		N02   , Gs3 , v040
	.byte	W02
	.byte		N03   , Fs3 
	.byte	W01
	.byte		N02   , En3 
	.byte	W02
	.byte		N03   , Dn3 
	.byte	W14
	.byte		MOD   , 40
	.byte	W01
	.byte		N04   , Cs4 
	.byte		N04   , En4 , v080
	.byte	W04
	.byte		        Dn4 , v060
	.byte		N04   , Fs4 , v100
	.byte	W04
	.byte		        En4 , v080
	.byte		N04   , Gs4 , v120
	.byte	W04
	.byte		N12   , Fs4 , v080
	.byte		N12   , An4 , v120
	.byte	W12
	.byte		N04   , En4 , v080
	.byte		N04   , Gs4 , v120
	.byte	W04
	.byte		        En4 , v040
	.byte		N04   , Gs4 
	.byte	W08
	.byte		N12   , Dn4 , v080
	.byte		N12   , Fs4 , v120
	.byte	W12
	.byte		N04   , En4 , v080
	.byte		N04   , Gs4 , v120
	.byte	W04
	.byte		        En4 , v040
	.byte		N04   , Gs4 
	.byte	W08
	.byte		N08   , Cs4 , v080
	.byte		N08   , En4 , v120
	.byte	W08
	.byte		N05   , Cs4 , v040
	.byte		N05   , En4 
	.byte	W16
	.byte		N08   , En2 , v080
	.byte	W08
	.byte		N04   , En2 , v040
	.byte	W16
	.byte		N08   , Bn1 , v080
	.byte	W08
	.byte		N04   , Bn1 , v040
	.byte	W40
	.byte		N08   , Cs2 , v080
	.byte	W08
	.byte		N04   , Cs2 , v040
	.byte	W40
	.byte		N06   , Dn2 , v080
	.byte	W06
	.byte		        Dn2 , v060
	.byte	W06
	.byte		        Bn1 , v080
	.byte	W06
	.byte		        Bn1 , v060
	.byte	W06
	.byte		        Cs2 , v080
	.byte	W06
	.byte		        Cs2 , v060
	.byte	W06
	.byte		        Dn2 , v080
	.byte	W06
	.byte		        Dn2 , v060
	.byte	W06
	.byte	PEND
	.byte	PATT
	 .word	seq_103_1 + 0x12
	.byte		N08   , Cs4 , v080
	.byte		N08   , En4 , v120
	.byte	W08
	.byte		N05   , Cs4 , v040
	.byte		N05   , En4 
	.byte	W05
	.byte		N02   , Cn4 , v060
	.byte	W01
	.byte		        Bn3 
	.byte	W01
	.byte		N03   , An3 
	.byte	W01
	.byte		N02   , Gs3 , v040
	.byte	W02
	.byte		N03   , Fs3 
	.byte	W01
	.byte		N02   , En3 
	.byte	W02
	.byte		N03   , Dn3 
	.byte	W14
	.byte		MOD   , 40
	.byte	W01
	.byte		N04   , Fs3 
	.byte		N04   , An3 , v080
	.byte	W04
	.byte		        Gs3 , v060
	.byte		N04   , Bn3 , v100
	.byte	W04
	.byte		        An3 , v080
	.byte		N04   , Cs4 , v120
	.byte	W04
	.byte		N12   , Fs3 , v080
	.byte		N12   , Dn4 , v120
	.byte	W12
	.byte		N04   , An3 , v080
	.byte		N04   , Cs4 , v120
	.byte	W04
	.byte		        An3 , v040
	.byte		N04   , Cs4 
	.byte	W08
	.byte		N12   , Gs3 , v080
	.byte		N12   , Dn4 , v120
	.byte	W12
	.byte		N04   , Gs3 , v080
	.byte		N04   , Bn3 , v120
	.byte	W04
	.byte		        Gs3 , v040
	.byte		N04   , Bn3 
	.byte	W08
	.byte		N08   , An3 , v120
	.byte	W08
	.byte		N05   , An3 , v040
	.byte	W16
	.byte		N08   , En2 , v080
	.byte	W08
	.byte		N04   , En2 , v040
	.byte	W16
	.byte		N08   , Bn1 , v080
	.byte	W08
	.byte		N04   , Bn1 , v040
	.byte	W40
	.byte	PATT
	 .word	seq_103_1 + 0xC1
	.byte	W96
	.byte	W96
	.byte	W96
	.byte	W96
	.byte	W96
	.byte	W96
	.byte	W96
	.byte	W96
	.byte	GOTO
	 .word	seq_103_1 + 0x12
	.byte	FINE

@*********************** Track 03 ***********************@

seq_103_2:
	.byte	KEYSH , seq_103_key+0
	.byte		VOICE , 12
	.byte	W01
	.byte		VOL   , 51*seq_103_mvl/mxv
	.byte	W01
	.byte		PAN   , c_v-14
	.byte	W22
	.byte	W48
	.byte	W24
	.byte		N12   , En3 , v120
	.byte		N12   , Cs4 
	.byte	W12
	.byte		        En3 , v060
	.byte		N12   , Cs4 
	.byte	W36
	.byte		N24   , Dn4 , v120
	.byte	W24
	.byte	W48
	.byte		N12   , Fs3 
	.byte		N12   , En4 
	.byte	W24
	.byte		        Cs4 
	.byte	W24
	.byte		N07   , En3 
	.byte		N07   , Cs4 
	.byte	W07
	.byte		        En3 , v060
	.byte		N07   , Cs4 
	.byte	W88
	.byte	W01
	.byte	W96
	.byte	W24
	.byte		N24   , En3 , v120
	.byte		N24   , Cs4 
	.byte	W48
	.byte		        Dn4 
	.byte	W24
	.byte	W96
	.byte	W24
	.byte		        En2 
	.byte		N24   , Cs3 
	.byte	W48
	.byte		        Fs2 
	.byte		N24   , Dn3 
	.byte	W24
	.byte	W48
	.byte		N12
	.byte	W24
	.byte		N12
	.byte	W24
	.byte		N07   , An2 
	.byte	W07
	.byte		        An2 , v040
	.byte	W40
	.byte	W01
	.byte		N24   , En3 , v120
	.byte	W48
	.byte	W48
	.byte		N12   , Dn3 , v120
	.byte	W24
	.byte		N24   , Fs3 
	.byte	W24
	.byte	PEND
	.byte	W96
	.byte	W96
	.byte	W48
	.byte		        En3 
	.byte	W48
	.byte	PATT
	 .word	seq_103_2 + 0x53
	.byte	W96
	.byte	W96
	.byte	GOTO
	 .word	seq_103_2 + 0xC
	.byte	FINE

@*********************** Track 04 ***********************@

seq_103_3:
	.byte	KEYSH , seq_103_key+0
	.byte	W06
	.byte		VOICE , 12
	.byte	W01
	.byte		VOL   , 51*seq_103_mvl/mxv
	.byte	W01
	.byte		PAN   , c_v+26
	.byte	W16
	.byte	W48
	.byte	W48
	.byte		N07   , Dn3 , v120
	.byte		N07   , Bn3 
	.byte	W07
	.byte		        Dn3 , v040
	.byte		N07   , Bn3 
	.byte	W40
	.byte	W01
	.byte	PEND
	.byte		        En3 , v120
	.byte		N07   , Cs4 
	.byte	W07
	.byte		        En3 , v040
	.byte		N07   , Cs4 
	.byte	W52
	.byte	W01
	.byte		N12   , Dn4 , v120
	.byte	W24
	.byte		N12
	.byte	W12
	.byte	W96
	.byte	W96
	.byte	PATT
	 .word	seq_103_3 + 0xD
	.byte		N07   , En3 , v120
	.byte		N07   , Cs4 
	.byte	W07
	.byte		        En3 , v040
	.byte		N07   , Cs4 
	.byte	W88
	.byte	W01
	.byte	W48
	.byte		        Dn2 , v120
	.byte		N07   , Bn2 
	.byte	W07
	.byte		        Dn2 , v040
	.byte		N07   , Bn2 
	.byte	W40
	.byte	W01
	.byte		        En2 , v120
	.byte		N07   , Cs3 
	.byte	W07
	.byte		        En2 , v040
	.byte		N07   , Cs3 
	.byte	W52
	.byte	W01
	.byte		N12   , Cs3 , v120
	.byte	W24
	.byte		        Bn2 
	.byte	W12
	.byte	W72
	.byte		N06   , Cs3 , v120
	.byte	W06
	.byte		N05   , Cs3 , v060
	.byte	W18
	.byte	PEND
	.byte	W60
	.byte		N12   , En3 , v120
	.byte	W36
	.byte		N07   , En3 , v120
	.byte	W07
	.byte		        En3 , v040
	.byte	W88
	.byte	W01
	.byte	PEND
	.byte	W96
	.byte	PATT
	 .word	seq_103_3 + 0x5C
	.byte	W60
	.byte		N12   , En3 , v120
	.byte	W36
	.byte	PATT
	 .word	seq_103_3 + 0x6B
	.byte	W96
	.byte	GOTO
	 .word	seq_103_3 + 0xD
	.byte	FINE

@*********************** Track 05 ***********************@

seq_103_4:
	.byte	KEYSH , seq_103_key+0
	.byte	W06
	.byte		VOICE , 3
	.byte	W01
	.byte		VOL   , 46*seq_103_mvl/mxv
	.byte	W01
	.byte		PAN   , c_v+0
	.byte	W01
	.byte		LFOS  , 20
	.byte	W01
	.byte		MODT  , mod_pan
	.byte	W14
	.byte		N06   , Cs4 , v080
	.byte		N06   , En4 , v120
	.byte	W06
	.byte		        An3 , v080
	.byte	W02
	.byte		N04   , Cs4 , v120
	.byte	W04
	.byte		N06   , Bn3 , v080
	.byte	W02
	.byte		N04   , Dn4 , v120
	.byte	W04
	.byte		N06   , Cs4 , v080
	.byte	W02
	.byte		N04   , En4 , v120
	.byte	W04
	.byte		N06   , Dn4 , v080
	.byte	W02
	.byte		N04   , Fs4 , v120
	.byte	W04
	.byte		N06   , En4 , v080
	.byte	W02
	.byte		N04   , Gs4 , v120
	.byte	W04
	.byte		N06   , Fs4 , v080
	.byte	W02
	.byte		N04   , An4 , v120
	.byte	W04
	.byte		N06   , Gs4 , v080
	.byte	W02
	.byte		N04   , Bn4 , v120
	.byte	W04
	.byte		N06   , An4 , v080
	.byte	W02
	.byte		N04   , Cs5 , v120
	.byte	W92
	.byte	W02
	.byte	W96
	.byte	W24
	.byte		N02   , En5 , v120
	.byte	W02
	.byte		        Cs6 , v080
	.byte	W02
	.byte		        En5 , v060
	.byte	W20
	.byte		        Dn5 , v120
	.byte	W02
	.byte		        Bn5 , v080
	.byte	W02
	.byte		        Dn5 , v060
	.byte	W20
	.byte		        Fs5 , v120
	.byte	W02
	.byte		        Dn6 , v080
	.byte	W02
	.byte		        Fs5 , v060
	.byte	W20
	.byte	PEND
	.byte		N02   , En5 , v120
	.byte	W02
	.byte		        Cs6 , v080
	.byte	W02
	.byte		        En5 , v060
	.byte	W92
	.byte	PEND
	.byte		N03   , Cs5 , v100
	.byte	W96
	.byte	W96
	.byte	PATT
	 .word	seq_103_4 + 0x5A
	.byte	PATT
	 .word	seq_103_4 + 0x78
	.byte		N02   , An4 , v120
	.byte		N02   , Cs5 
	.byte	W05
	.byte		        An4 , v080
	.byte		N02   , Cs5 
	.byte	W07
	.byte		        Dn5 , v120
	.byte	W05
	.byte		        Dn5 , v080
	.byte	W07
	.byte		        An4 , v120
	.byte		N02   , Cs5 
	.byte	W05
	.byte		        An4 , v080
	.byte		N02   , Cs5 
	.byte	W07
	.byte		        Dn5 , v120
	.byte	W05
	.byte		        Dn5 , v080
	.byte	W07
	.byte		        Cs5 , v120
	.byte	W05
	.byte		        Cs5 , v080
	.byte	W42
	.byte	W01
	.byte	W48
	.byte		N02   , Cs5 , v120
	.byte		N02   , En5 
	.byte	W05
	.byte		        Cs5 , v080
	.byte		N02   , En5 
	.byte	W07
	.byte		        Fs5 , v120
	.byte	W05
	.byte		        Fs5 , v080
	.byte	W07
	.byte		        Cs5 , v120
	.byte		N02   , En5 
	.byte	W05
	.byte		        Cs5 , v080
	.byte		N02   , En5 
	.byte	W07
	.byte		        Fs5 , v120
	.byte	W05
	.byte		        Fs5 , v080
	.byte	W07
	.byte	PEND
	.byte		        En5 , v120
	.byte	W05
	.byte		        En5 , v080
	.byte	W66
	.byte		MOD   , 60
	.byte	W01
	.byte		N02   , Fs4 , v060
	.byte	W02
	.byte		        En5 , v040
	.byte	W02
	.byte		        Fs5 
	.byte	W02
	.byte		        En6 
	.byte	W18
	.byte	W24
	.byte		        En4 , v060
	.byte	W02
	.byte		        Cs5 , v040
	.byte	W02
	.byte		        En5 
	.byte	W02
	.byte		        Cs6 
	.byte	W17
	.byte		MOD   , 0
	.byte	W01
	.byte		N02   , An5 , v120
	.byte	W05
	.byte		        An5 , v080
	.byte	W07
	.byte		        Gs5 , v120
	.byte	W05
	.byte		        Gs5 , v080
	.byte	W07
	.byte		        Dn5 , v120
	.byte		N02   , Fs5 
	.byte	W05
	.byte		        Dn5 , v080
	.byte		N02   , Fs5 
	.byte	W07
	.byte		        Cs5 , v120
	.byte		N02   , En5 
	.byte	W05
	.byte		        Cs5 , v080
	.byte		N02   , En5 
	.byte	W07
	.byte		        Cs5 , v120
	.byte	W05
	.byte		        Cs5 , v080
	.byte	W07
	.byte		        Dn5 , v120
	.byte	W05
	.byte		        Dn5 , v080
	.byte	W07
	.byte		        An4 , v120
	.byte		N02   , Cs5 
	.byte	W05
	.byte		        An4 , v080
	.byte		N02   , Cs5 
	.byte	W07
	.byte		        Dn5 , v120
	.byte	W05
	.byte		        Dn5 , v080
	.byte	W07
	.byte		        Cs5 , v120
	.byte	W05
	.byte		        Cs5 , v080
	.byte	W42
	.byte	W01
	.byte	PATT
	 .word	seq_103_4 + 0xBA
	.byte		N02   , En5 , v120
	.byte	W05
	.byte		        En5 , v080
	.byte	W90
	.byte	W01
	.byte	W12
	.byte		        Fs4 , v120
	.byte	W04
	.byte		        Dn4 , v080
	.byte	W01
	.byte		        Fs4 
	.byte	W04
	.byte		        Dn4 , v060
	.byte	W03
	.byte		        Gs4 , v120
	.byte	W04
	.byte		        En4 , v080
	.byte	W01
	.byte		        Gs4 
	.byte	W04
	.byte		        En4 , v060
	.byte	W03
	.byte		        An4 , v120
	.byte	W04
	.byte		        Fs4 , v080
	.byte	W01
	.byte		        An4 
	.byte	W04
	.byte		        Fs4 , v060
	.byte	W03
	.byte		        Bn4 , v120
	.byte	W04
	.byte		        Gs4 , v080
	.byte	W01
	.byte		        Bn4 
	.byte	W04
	.byte		        Gs4 , v060
	.byte	W03
	.byte		        Cs5 , v120
	.byte	W04
	.byte		        An4 , v080
	.byte	W01
	.byte		        Cs5 
	.byte	W04
	.byte		        An4 , v060
	.byte	W03
	.byte		        Dn5 , v120
	.byte	W04
	.byte		        Bn4 , v080
	.byte	W01
	.byte		        Dn5 
	.byte	W04
	.byte		        Bn4 , v060
	.byte	W03
	.byte		        En5 , v120
	.byte	W04
	.byte		        Cs5 , v080
	.byte	W01
	.byte		        En5 
	.byte	W04
	.byte		        Cs5 , v060
	.byte	W03
	.byte	GOTO
	 .word	seq_103_4 + 0x50
	.byte	FINE

@*********************** Track 06 ***********************@

seq_103_5:
	.byte	KEYSH , seq_103_key+0
	.byte	W06
	.byte		VOICE , 10
	.byte	W01
	.byte		VOL   , 46*seq_103_mvl/mxv
	.byte	W01
	.byte		PAN   , c_v+0
	.byte	W01
	.byte		LFOS  , 10
	.byte	W01
	.byte		MODT  , mod_pan
	.byte	W14
	.byte	W48
	.byte	W96
	.byte	W96
	.byte	W96
	.byte	W44
	.byte	W03
	.byte		MOD   , 20
	.byte	W01
	.byte		N05   , Dn4 , v080
	.byte		N05   , An4 , v120
	.byte	W05
	.byte		N07   , Dn4 , v060
	.byte		N07   , An4 
	.byte	W07
	.byte		N05   , Bn3 , v080
	.byte		N05   , Gs4 , v120
	.byte	W05
	.byte		N07   , Bn3 , v060
	.byte		N07   , Gs4 
	.byte	W07
	.byte		N05   , An3 , v080
	.byte		N05   , Fs4 , v120
	.byte	W05
	.byte		N07   , An3 , v060
	.byte		N07   , Fs4 
	.byte	W07
	.byte		N05   , Bn3 , v080
	.byte		N05   , Gs4 , v120
	.byte	W05
	.byte		N07   , Bn3 , v060
	.byte		N07   , Gs4 
	.byte	W07
	.byte		N05   , An3 , v080
	.byte		N05   , En4 , v120
	.byte	W05
	.byte		N07   , An3 , v060
	.byte		N07   , En4 
	.byte	W07
	.byte		N03   , An3 , v020
	.byte		N03   , En4 
	.byte	W84
	.byte	W96
	.byte	W96
	.byte	W48
	.byte		N05   , Fs3 , v080
	.byte		N05   , Dn5 , v120
	.byte	W05
	.byte		N07   , Fs3 , v060
	.byte		N07   , Dn5 
	.byte	W07
	.byte		N05   , An3 , v080
	.byte		N05   , Cs5 , v120
	.byte	W05
	.byte		N07   , An3 , v060
	.byte		N07   , Cs5 
	.byte	W07
	.byte		N05   , Gs3 , v080
	.byte		N05   , Dn5 , v120
	.byte	W05
	.byte		N07   , Gs3 , v060
	.byte		N07   , Dn5 
	.byte	W07
	.byte		N05   , Gs3 , v080
	.byte		N05   , Bn4 , v120
	.byte	W05
	.byte		N07   , Gs3 , v060
	.byte		N07   , Bn4 
	.byte	W07
	.byte		N05   , En3 , v080
	.byte		N05   , An4 , v120
	.byte	W05
	.byte		N07   , En3 , v060
	.byte		N07   , An4 
	.byte	W07
	.byte		N03   , En3 , v020
	.byte		N03   , An4 
	.byte	W36
	.byte		N18   , An4 , v080
	.byte	W48
	.byte		N18   , Gs4 , v080
	.byte	W48
	.byte		        Fs4 
	.byte	W48
	.byte	PEND
	.byte		        En4 
	.byte	W96
	.byte	W96
	.byte	W48
	.byte		        An4 
	.byte	W48
	.byte	PATT
	 .word	seq_103_5 + 0xB0
	.byte		N18   , En4 , v080
	.byte	W96
	.byte	W96
	.byte	GOTO
	 .word	seq_103_5 + 0x13
	.byte	FINE

@*********************** Track 07 ***********************@

seq_103_6:
	.byte	KEYSH , seq_103_key+0
	.byte	W12
	.byte		VOICE , 7
	.byte	W01
	.byte		VOL   , 51*seq_103_mvl/mxv
	.byte	W01
	.byte		PAN   , c_v-24
	.byte	W10
	.byte	W48
	.byte	W96
	.byte	W96
	.byte	W44
	.byte	W03
	.byte		BEND  , c_v-32
	.byte	W01
	.byte		N12   , Fs2 , v120
	.byte	W01
	.byte		BEND  , c_v-27
	.byte	W02
	.byte		        c_v-19
	.byte	W01
	.byte		        c_v-11
	.byte	W01
	.byte		        c_v-7
	.byte	W01
	.byte		        c_v+0
	.byte	W06
	.byte		N03   , Gs2 
	.byte	W03
	.byte		N05   , Gs2 , v060
	.byte	W09
	.byte		N12   , An2 , v120
	.byte	W12
	.byte		N03   , Bn2 
	.byte	W03
	.byte		N05   , Bn2 , v060
	.byte	W09
	.byte		        Cs3 , v120
	.byte	W05
	.byte		        Cs3 , v060
	.byte	W17
	.byte		PAN   , c_v+16
	.byte	W01
	.byte		BEND  , c_v-32
	.byte	W01
	.byte		N12   , Fs3 , v120
	.byte	W01
	.byte		BEND  , c_v-27
	.byte	W02
	.byte		        c_v-19
	.byte	W01
	.byte		        c_v-11
	.byte	W01
	.byte		        c_v-7
	.byte	W01
	.byte		        c_v+0
	.byte	W06
	.byte		N03   , Gs3 
	.byte	W03
	.byte		N05   , Gs3 , v060
	.byte	W09
	.byte		N12   , An3 , v120
	.byte	W12
	.byte		N03   , Bn3 
	.byte	W03
	.byte		N05   , Bn3 , v060
	.byte	W08
	.byte		BEND  , c_v-32
	.byte	W01
	.byte		N12   , Cs4 , v120
	.byte	W01
	.byte		BEND  , c_v-27
	.byte	W02
	.byte		        c_v-19
	.byte	W01
	.byte		        c_v-11
	.byte	W01
	.byte		        c_v-7
	.byte	W01
	.byte		        c_v+0
	.byte	W06
	.byte		N03   , Dn4 
	.byte	W03
	.byte		N05   , Dn4 , v060
	.byte	W09
	.byte	W96
	.byte	W32
	.byte	W03
	.byte		PAN   , c_v+0
	.byte	W01
	.byte		N04   , Cs3 , v080
	.byte		N04   , En3 , v040
	.byte	W04
	.byte		        Dn3 , v100
	.byte		N04   , Fs3 , v060
	.byte	W04
	.byte		        En3 , v120
	.byte		N04   , Fs3 , v080
	.byte	W04
	.byte		N12   , Fs3 , v120
	.byte		N12   , An3 
	.byte	W12
	.byte		N04   , En3 
	.byte	W04
	.byte		        En3 , v060
	.byte	W07
	.byte		BEND  , c_v-64
	.byte	W01
	.byte		N12   , Dn3 , v120
	.byte		N12   , Gs3 
	.byte	W01
	.byte		BEND  , c_v-31
	.byte	W02
	.byte		        c_v-16
	.byte	W02
	.byte		        c_v-8
	.byte	W01
	.byte		        c_v+0
	.byte	W06
	.byte		N04   , Dn3 
	.byte	W04
	.byte		        Dn3 , v060
	.byte	W04
	.byte		        Dn3 , v040
	.byte	W04
	.byte		N05   , Cs3 , v120
	.byte	W05
	.byte		        Cs3 , v060
	.byte	W90
	.byte	W01
	.byte	W11
	.byte		BEND  , c_v-64
	.byte	W01
	.byte		N04   , An2 , v120
	.byte		N04   , An3 
	.byte	W01
	.byte		BEND  , c_v-37
	.byte	W01
	.byte		        c_v-24
	.byte	W01
	.byte		        c_v+0
	.byte	W01
	.byte		N06   , An2 , v060
	.byte		N06   , An3 
	.byte	W07
	.byte		BEND  , c_v-32
	.byte	W01
	.byte		N12   , Bn2 , v120
	.byte		N12   , Bn3 
	.byte	W01
	.byte		BEND  , c_v-27
	.byte	W02
	.byte		        c_v-19
	.byte	W01
	.byte		        c_v-11
	.byte	W01
	.byte		        c_v-7
	.byte	W01
	.byte		        c_v+0
	.byte	W06
	.byte		N04   , Cs3 
	.byte		N04   , Cs4 
	.byte	W04
	.byte		N06   , Cs3 , v060
	.byte		N06   , Cs4 
	.byte	W08
	.byte		N03   , Dn3 , v120
	.byte	W03
	.byte		N05   , Dn3 , v060
	.byte	W36
	.byte	W02
	.byte		PAN   , c_v-24
	.byte	W07
	.byte	W96
	.byte	W96
	.byte	W96
	.byte	W96
	.byte	W96
	.byte	W96
	.byte	W96
	.byte	W96
	.byte	GOTO
	 .word	seq_103_6 + 0xD
	.byte	FINE

@*********************** Track 08 ***********************@

seq_103_7:
	.byte	KEYSH , seq_103_key+0
	.byte	W12
	.byte		VOICE , 52
	.byte	W01
	.byte		VOL   , 51*seq_103_mvl/mxv
	.byte	W01
	.byte		PAN   , c_v+0
	.byte	W01
	.byte		LFOS  , 60
	.byte	W01
	.byte		MODT  , mod_pan
	.byte	W08
	.byte	W48
	.byte	W96
	.byte	W96
	.byte	W96
	.byte	W96
	.byte	W96
	.byte	W96
	.byte	W96
	.byte	W96
	.byte	W96
	.byte	W96
	.byte	W44
	.byte	W02
	.byte		MOD   , 40
	.byte	W02
	.byte		N12   , Fs4 , v120
	.byte	W01
	.byte		N11   , En5 
	.byte	W44
	.byte	W02
	.byte		N12   , En4 , v100
	.byte	W01
	.byte		N11   , Cs5 
	.byte	W48
	.byte		N12   , Dn5 , v120
	.byte	W12
	.byte		        Cs5 , v100
	.byte	W12
	.byte		        Dn5 , v120
	.byte	W12
	.byte		        En5 , v100
	.byte	W12
	.byte		N06   , An4 , v080
	.byte	W96
	.byte	W92
	.byte	W03
	.byte		MOD   , 60
	.byte	W01
	.byte	W23
	.byte		N12   , En4 , v100
	.byte	W02
	.byte		N11   , Cs5 , v120
	.byte	W23
	.byte		N18   , Fs4 , v100
	.byte	W02
	.byte		N17   , Dn5 
	.byte	W22
	.byte		N18   , Gs4 
	.byte	W02
	.byte		N17   , En5 
	.byte	W22
	.byte	W11
	.byte		MOD   , 80
	.byte	W01
	.byte		N05   , Fs5 , v120
	.byte	W06
	.byte		        Fs5 , v060
	.byte	W06
	.byte		        Gs5 , v120
	.byte	W06
	.byte		        Gs5 , v060
	.byte	W06
	.byte		        An5 , v120
	.byte	W06
	.byte		        An5 , v060
	.byte	W06
	.byte		        Bn5 , v120
	.byte	W06
	.byte		        Bn5 , v060
	.byte	W06
	.byte		        Cs6 , v120
	.byte	W06
	.byte		        Cs6 , v060
	.byte	W06
	.byte		        Dn6 , v120
	.byte	W06
	.byte		        Dn6 , v060
	.byte	W06
	.byte		        En6 , v120
	.byte	W06
	.byte		        En6 , v060
	.byte	W06
	.byte	GOTO
	 .word	seq_103_7 + 0x13
	.byte	FINE

@*********************** Track 09 ***********************@

seq_103_8:
	.byte	KEYSH , seq_103_key+0
	.byte	W12
	.byte		VOICE , 101
	.byte	W01
	.byte		VOL   , 61*seq_103_mvl/mxv
	.byte	W01
	.byte		PAN   , c_v+0
	.byte	W01
	.byte		LFOS  , 30
	.byte	W01
	.byte		BENDR , 12
	.byte	W08
	.byte	W12
	.byte		N06   , En4 , v060
	.byte	W04
	.byte		BEND  , c_v+2
	.byte	W01
	.byte		        c_v+6
	.byte	W01
	.byte		N06   , Cs5 
	.byte	W01
	.byte		BEND  , c_v+10
	.byte	W01
	.byte		        c_v+12
	.byte	W01
	.byte		        c_v+15
	.byte	W01
	.byte		        c_v+17
	.byte	W01
	.byte		        c_v+21
	.byte	W01
	.byte		N06   , An4 
	.byte	W01
	.byte		BEND  , c_v+25
	.byte	W01
	.byte		        c_v+28
	.byte	W01
	.byte		        c_v+29
	.byte	W01
	.byte		        c_v+31
	.byte	W01
	.byte		        c_v+33
	.byte	W01
	.byte		N12   , Cs5 
	.byte	W01
	.byte		BEND  , c_v+36
	.byte	W01
	.byte		        c_v+38
	.byte	W01
	.byte		        c_v+40
	.byte	W01
	.byte		        c_v+43
	.byte	W01
	.byte		        c_v+45
	.byte	W01
	.byte		        c_v+48
	.byte	W01
	.byte		        c_v+52
	.byte	W01
	.byte		        c_v+57
	.byte	W01
	.byte		        c_v+59
	.byte	W01
	.byte		        c_v+62
	.byte	W02
	.byte		N06   , En5 
	.byte	W03
	.byte		BEND  , c_v+63
	.byte	W02
	.byte		        c_v+0
	.byte	W01
	.byte		N12   , An1 , v120
	.byte	W12
	.byte		        An1 , v040
	.byte	W11
	.byte		BEND  , c_v-64
	.byte	W01
	.byte		N13   , En2 , v120
	.byte	W01
	.byte		BEND  , c_v-32
	.byte	W02
	.byte		        c_v-16
	.byte	W01
	.byte		        c_v+0
	.byte	W09
	.byte		N11   , En2 , v040
	.byte	W11
	.byte		        Bn1 , v120
	.byte	W24
	.byte		N24   , Bn2 
	.byte	W05
	.byte		BEND  , c_v-6
	.byte	W01
	.byte		        c_v-9
	.byte	W01
	.byte		        c_v-12
	.byte	W01
	.byte		        c_v-13
	.byte	W01
	.byte		        c_v-16
	.byte	W01
	.byte		        c_v-19
	.byte	W01
	.byte		        c_v-21
	.byte	W01
	.byte		        c_v-23
	.byte	W01
	.byte		        c_v-27
	.byte	W01
	.byte		        c_v-31
	.byte	W01
	.byte		        c_v-35
	.byte	W01
	.byte		        c_v-37
	.byte	W01
	.byte		        c_v-42
	.byte	W01
	.byte		        c_v-44
	.byte	W01
	.byte		        c_v-50
	.byte	W01
	.byte		        c_v-56
	.byte	W01
	.byte		        c_v-61
	.byte	W01
	.byte		        c_v-63
	.byte	W01
	.byte		        c_v-64
	.byte	W01
	.byte	PEND
	.byte		N48   , Cs2 , v120
	.byte	W01
	.byte		BEND  , c_v-32
	.byte	W01
	.byte		        c_v-16
	.byte	W02
	.byte		        c_v+0
	.byte	W02
	.byte		MOD   , 9
	.byte	W30
	.byte		BEND  , c_v-6
	.byte	W01
	.byte		        c_v-10
	.byte	W01
	.byte		        c_v-14
	.byte	W01
	.byte		        c_v-21
	.byte	W01
	.byte		        c_v-26
	.byte	W01
	.byte		        c_v-28
	.byte	W03
	.byte		        c_v-26
	.byte	W01
	.byte		        c_v-23
	.byte	W01
	.byte		MOD   , 0
	.byte	W01
	.byte		BEND  , c_v+0
	.byte	W01
	.byte		N12   , Bn1 
	.byte	W12
	.byte		        Cs2 
	.byte	W12
	.byte		N24   , Bn1 
	.byte	W15
	.byte		BEND  , c_v-2
	.byte	W01
	.byte		        c_v-4
	.byte	W01
	.byte		        c_v-7
	.byte	W01
	.byte		        c_v-9
	.byte	W01
	.byte		        c_v-14
	.byte	W01
	.byte		        c_v-19
	.byte	W01
	.byte		        c_v-21
	.byte	W01
	.byte		        c_v-27
	.byte	W01
	.byte		        c_v-64
	.byte	W01
	.byte	PEND
	.byte		N12   , An1 , v120
	.byte	W01
	.byte		BEND  , c_v-32
	.byte	W01
	.byte		        c_v-16
	.byte	W02
	.byte		        c_v+0
	.byte	W08
	.byte		N12   , An1 , v040
	.byte	W11
	.byte		BEND  , c_v-64
	.byte	W01
	.byte		N13   , En2 , v120
	.byte	W01
	.byte		BEND  , c_v-32
	.byte	W02
	.byte		        c_v-16
	.byte	W01
	.byte		        c_v+0
	.byte	W09
	.byte		N11   , En2 , v040
	.byte	W11
	.byte		        Bn1 , v120
	.byte	W44
	.byte	W03
	.byte		BEND  , c_v-64
	.byte	W01
	.byte	PEND
	.byte		N48   , Cs2 
	.byte	W01
	.byte		BEND  , c_v-32
	.byte	W01
	.byte		        c_v-16
	.byte	W02
	.byte		        c_v+0
	.byte	W02
	.byte		MOD   , 9
	.byte	W40
	.byte		        0
	.byte	W01
	.byte		BEND  , c_v-64
	.byte	W01
	.byte		N12   , En2 
	.byte	W01
	.byte		BEND  , c_v-32
	.byte	W02
	.byte		        c_v-16
	.byte	W01
	.byte		        c_v+0
	.byte	W08
	.byte		N12   , Dn2 
	.byte	W12
	.byte		        Cs2 
	.byte	W12
	.byte		        Bn1 
	.byte	W12
	.byte	PATT
	 .word	seq_103_8 + 0x58
	.byte	PATT
	 .word	seq_103_8 + 0x9F
	.byte	PATT
	 .word	seq_103_8 + 0xE0
	.byte		N48   , Cs2 , v120
	.byte	W01
	.byte		BEND  , c_v-32
	.byte	W01
	.byte		        c_v-16
	.byte	W02
	.byte		        c_v+0
	.byte	W02
	.byte		MOD   , 9
	.byte	W32
	.byte	W01
	.byte		BEND  , c_v-4
	.byte	W01
	.byte		        c_v-9
	.byte	W01
	.byte		        c_v-16
	.byte	W01
	.byte		        c_v-21
	.byte	W01
	.byte		        c_v-24
	.byte	W01
	.byte		        c_v-28
	.byte	W01
	.byte		        c_v-32
	.byte	W01
	.byte		MOD   , 0
	.byte	W01
	.byte		BEND  , c_v-64
	.byte	W01
	.byte		N12   , Dn2 
	.byte	W01
	.byte		BEND  , c_v-32
	.byte	W02
	.byte		        c_v-16
	.byte	W01
	.byte		        c_v+0
	.byte	W08
	.byte		N12   , An1 
	.byte	W12
	.byte		        En2 
	.byte	W12
	.byte		        Bn1 
	.byte	W12
	.byte		N12   , An1 , v120
	.byte	W13
	.byte		N06   , An1 , v040
	.byte	W10
	.byte		BEND  , c_v-64
	.byte	W01
	.byte		N12   , En2 , v120
	.byte	W01
	.byte		BEND  , c_v-32
	.byte	W02
	.byte		        c_v-16
	.byte	W01
	.byte		        c_v+0
	.byte	W09
	.byte		N04   , En2 , v040
	.byte	W11
	.byte		N11   , Bn1 , v120
	.byte	W12
	.byte		N05   , Bn1 , v040
	.byte	W36
	.byte	PEND
	.byte		N12   , Cs2 , v120
	.byte	W13
	.byte		N04   , Cs2 , v040
	.byte	W32
	.byte	W03
	.byte		N11   , Dn2 , v120
	.byte	W12
	.byte		N05   , Dn2 , v040
	.byte	W12
	.byte		N11   , En2 , v120
	.byte	W12
	.byte		N05   , En2 , v040
	.byte	W12
	.byte	PEND
	.byte	PATT
	 .word	seq_103_8 + 0x170
	.byte	PATT
	 .word	seq_103_8 + 0x193
	.byte	PATT
	 .word	seq_103_8 + 0x170
	.byte		N12   , Cs2 , v120
	.byte	W13
	.byte		N04   , Cs2 , v040
	.byte	W32
	.byte	W03
	.byte		N11   , Dn2 , v120
	.byte	W12
	.byte		N05   , Dn2 , v040
	.byte	W12
	.byte		N11   , En2 , v120
	.byte	W12
	.byte		N05   , En2 , v040
	.byte	W11
	.byte		BEND  , c_v+0
	.byte	W01
	.byte		N12   , An1 , v120
	.byte	W13
	.byte		N06   , An1 , v040
	.byte	W10
	.byte		BEND  , c_v-64
	.byte	W01
	.byte		N12   , En2 , v120
	.byte	W01
	.byte		BEND  , c_v-32
	.byte	W02
	.byte		        c_v-16
	.byte	W01
	.byte		        c_v+0
	.byte	W09
	.byte		N04   , En2 , v040
	.byte	W11
	.byte		N11   , Bn1 , v120
	.byte	W12
	.byte		N05   , Bn1 , v040
	.byte	W06
	.byte		N01   , Bn1 , v120
	.byte	W06
	.byte		N24   , Bn2 
	.byte	W05
	.byte		BEND  , c_v-6
	.byte	W01
	.byte		        c_v-9
	.byte	W01
	.byte		        c_v-12
	.byte	W01
	.byte		        c_v-13
	.byte	W01
	.byte		        c_v-16
	.byte	W01
	.byte		        c_v-19
	.byte	W01
	.byte		        c_v-21
	.byte	W01
	.byte		        c_v-23
	.byte	W01
	.byte		        c_v-27
	.byte	W01
	.byte		        c_v-31
	.byte	W01
	.byte		        c_v-35
	.byte	W01
	.byte		        c_v-37
	.byte	W01
	.byte		        c_v-42
	.byte	W01
	.byte		        c_v-44
	.byte	W01
	.byte		        c_v-50
	.byte	W01
	.byte		        c_v-56
	.byte	W01
	.byte		        c_v-61
	.byte	W01
	.byte		        c_v-63
	.byte	W01
	.byte		        c_v-64
	.byte	W01
	.byte		N48   , Dn2 
	.byte	W01
	.byte		BEND  , c_v-32
	.byte	W01
	.byte		        c_v-16
	.byte	W02
	.byte		        c_v+0
	.byte	W08
	.byte		MOD   , 12
	.byte	W24
	.byte		BEND  , c_v-6
	.byte	W01
	.byte		        c_v-10
	.byte	W01
	.byte		        c_v-14
	.byte	W01
	.byte		        c_v-21
	.byte	W01
	.byte		        c_v-26
	.byte	W01
	.byte		        c_v-28
	.byte	W03
	.byte		        c_v-26
	.byte	W01
	.byte		        c_v-23
	.byte	W01
	.byte		MOD   , 0
	.byte	W01
	.byte		BEND  , c_v+0
	.byte	W01
	.byte		N12   , En2 
	.byte	W12
	.byte		        Bn1 
	.byte	W11
	.byte		MOD   , 10
	.byte	W01
	.byte		N24   , En2 
	.byte	W23
	.byte		MOD   , 0
	.byte	W01
	.byte	GOTO
	 .word	seq_103_8 + 0x58
	.byte	FINE

@*********************** Track 10 ***********************@

seq_103_9:
	.byte	KEYSH , seq_103_key+0
	.byte	W18
	.byte		VOICE , 73
	.byte	W01
	.byte		VOL   , 40*seq_103_mvl/mxv
	.byte	W01
	.byte		PAN   , c_v+0
	.byte	W01
	.byte		LFOS  , 30
	.byte	W01
	.byte		MODT  , mod_pan
	.byte	W01
	.byte		BENDR , 2
	.byte	W01
	.byte	W01
	.byte		N02   , En4 , v120
	.byte	W02
	.byte		        En5 , v100
	.byte	W02
	.byte		        En4 , v040
	.byte	W02
	.byte		        Cs4 , v120
	.byte	W02
	.byte		        Cs5 , v100
	.byte	W02
	.byte		        Cs4 , v040
	.byte	W02
	.byte		        Dn4 , v120
	.byte	W02
	.byte		        Dn5 , v100
	.byte	W02
	.byte		        Dn4 , v040
	.byte	W02
	.byte		        En4 , v120
	.byte	W02
	.byte		        En5 , v100
	.byte	W02
	.byte		        En4 , v040
	.byte	W02
	.byte		        Fs4 , v120
	.byte	W02
	.byte		        Fs5 , v100
	.byte	W02
	.byte		        Fs4 , v040
	.byte	W02
	.byte		        Gs4 , v120
	.byte	W02
	.byte		        Gs5 , v100
	.byte	W02
	.byte		        Gs4 , v040
	.byte	W02
	.byte		        An4 , v120
	.byte	W02
	.byte		        An5 , v100
	.byte	W02
	.byte		        An4 , v040
	.byte	W02
	.byte		        Bn4 , v120
	.byte	W02
	.byte		        Bn5 , v100
	.byte	W02
	.byte		        Bn4 , v040
	.byte	W01
	.byte	W01
	.byte		N02   , Cs5 , v120
	.byte	W02
	.byte		        Cs6 , v100
	.byte	W02
	.byte		        Cs5 , v040
	.byte	W17
	.byte		VOICE , 78
	.byte	W01
	.byte		BEND  , c_v-42
	.byte	W01
	.byte		N24   , En4 , v120
	.byte	W01
	.byte		BEND  , c_v-22
	.byte	W01
	.byte		        c_v-10
	.byte	W02
	.byte		        c_v+0
	.byte	W19
	.byte		VOICE , 76
	.byte	W01
	.byte		N07   , Dn4 , v100
	.byte	W07
	.byte		N05   , Dn4 , v060
	.byte	W05
	.byte		N12   , Dn4 , v040
	.byte	W10
	.byte		VOICE , 78
	.byte	W01
	.byte		BEND  , c_v-42
	.byte	W01
	.byte		N24   , Fs4 , v120
	.byte	W01
	.byte		BEND  , c_v-22
	.byte	W01
	.byte		        c_v-10
	.byte	W02
	.byte		        c_v+0
	.byte	W19
	.byte		VOICE , 76
	.byte	W01
	.byte		N07   , En4 , v100
	.byte	W07
	.byte		N05   , En4 , v060
	.byte	W05
	.byte		N36   , En4 , v040
	.byte	W02
	.byte		BEND  , c_v-6
	.byte	W01
	.byte		        c_v-8
	.byte	W02
	.byte		        c_v-12
	.byte	W04
	.byte		        c_v-6
	.byte	W01
	.byte		        c_v+0
	.byte	W04
	.byte		        c_v-6
	.byte	W01
	.byte		        c_v-8
	.byte	W02
	.byte		        c_v-12
	.byte	W04
	.byte		        c_v-6
	.byte	W01
	.byte		        c_v+0
	.byte	W04
	.byte		        c_v-6
	.byte	W01
	.byte		        c_v-8
	.byte	W02
	.byte		        c_v-12
	.byte	W04
	.byte		        c_v-6
	.byte	W01
	.byte		        c_v+0
	.byte	W01
	.byte		VOICE , 78
	.byte	W01
	.byte		N12   , An4 , v120
	.byte	W12
	.byte		N04   , Gs4 , v100
	.byte	W04
	.byte		N08   , Gs4 , v060
	.byte	W08
	.byte		N12   , Fs4 , v120
	.byte	W12
	.byte		N04   , Gs4 , v100
	.byte	W04
	.byte		N08   , Gs4 , v060
	.byte	W08
	.byte		N09   , En4 , v120
	.byte	W09
	.byte		N05   , En4 , v060
	.byte	W05
	.byte		N07   , En4 , v040
	.byte	W08
	.byte		MOD   , 50
	.byte	W01
	.byte		VOICE , 78
	.byte	W01
	.byte		N02   , En5 , v120
	.byte	W02
	.byte		N04   , En6 , v080
	.byte	W04
	.byte		N06   , En5 , v120
	.byte	W05
	.byte		VOICE , 92
	.byte	W01
	.byte		N06   , En5 , v060
	.byte	W06
	.byte		        En5 , v040
	.byte	W05
	.byte		VOICE , 78
	.byte	W01
	.byte		N06   , Dn5 , v120
	.byte	W05
	.byte		VOICE , 74
	.byte	W01
	.byte		N06   , Dn5 , v060
	.byte	W06
	.byte		        Dn5 , v040
	.byte	W06
	.byte		N06
	.byte	W05
	.byte		VOICE , 78
	.byte	W01
	.byte		N06   , Fs5 , v120
	.byte	W05
	.byte		VOICE , 92
	.byte	W01
	.byte		N06   , Fs5 , v060
	.byte	W06
	.byte		        Fs5 , v040
	.byte	W06
	.byte		N06
	.byte	W05
	.byte		VOICE , 78
	.byte	W01
	.byte		N06   , En5 , v120
	.byte	W05
	.byte		VOICE , 74
	.byte	W01
	.byte		N06   , En5 , v060
	.byte	W06
	.byte		        En5 , v040
	.byte	W06
	.byte		N06
	.byte	W06
	.byte		N06
	.byte	W06
	.byte		        En5 , v020
	.byte	W06
	.byte		N06
	.byte	W06
	.byte		N06
	.byte	W05
	.byte		VOICE , 74
	.byte	W01
	.byte		N05   , An5 , v120
	.byte	W05
	.byte		VOICE , 76
	.byte	W01
	.byte		N06   , An4 , v060
	.byte	W05
	.byte		VOICE , 74
	.byte	W01
	.byte		N05   , Gs5 , v120
	.byte	W05
	.byte		VOICE , 76
	.byte	W01
	.byte		N06   , Gs4 , v060
	.byte	W05
	.byte		VOICE , 74
	.byte	W01
	.byte		N05   , Fs5 , v120
	.byte	W05
	.byte		VOICE , 76
	.byte	W01
	.byte		N06   , Fs4 , v060
	.byte	W05
	.byte		VOICE , 74
	.byte	W01
	.byte		N05   , Gs5 , v120
	.byte	W05
	.byte		VOICE , 76
	.byte	W01
	.byte		N06   , Gs4 , v060
	.byte	W05
	.byte		VOICE , 74
	.byte	W01
	.byte		N05   , En5 , v120
	.byte	W05
	.byte		VOICE , 76
	.byte	W01
	.byte		N06   , En5 , v060
	.byte	W06
	.byte		        En5 , v040
	.byte	W06
	.byte		        En5 , v020
	.byte	W03
	.byte		MOD   , 0
	.byte	W01
	.byte		VOICE , 78
	.byte	W01
	.byte		BEND  , c_v-42
	.byte	W01
	.byte		N24   , En4 , v120
	.byte	W01
	.byte		BEND  , c_v-22
	.byte	W01
	.byte		        c_v-10
	.byte	W02
	.byte		        c_v+0
	.byte	W19
	.byte		VOICE , 76
	.byte	W01
	.byte		N07   , Dn4 , v100
	.byte	W07
	.byte		N05   , Dn4 , v060
	.byte	W05
	.byte		N12   , Dn4 , v040
	.byte	W10
	.byte		VOICE , 78
	.byte	W01
	.byte		BEND  , c_v-42
	.byte	W01
	.byte		N24   , Fs4 , v120
	.byte	W01
	.byte		BEND  , c_v-22
	.byte	W01
	.byte		        c_v-10
	.byte	W02
	.byte		        c_v+0
	.byte	W19
	.byte		VOICE , 76
	.byte	W01
	.byte		N07   , En4 , v100
	.byte	W07
	.byte		N05   , En4 , v060
	.byte	W05
	.byte		N36   , En4 , v040
	.byte	W02
	.byte		BEND  , c_v-6
	.byte	W01
	.byte		        c_v-8
	.byte	W02
	.byte		        c_v-12
	.byte	W04
	.byte		        c_v-6
	.byte	W01
	.byte		        c_v+0
	.byte	W04
	.byte		        c_v-6
	.byte	W01
	.byte		        c_v-8
	.byte	W02
	.byte		        c_v-12
	.byte	W04
	.byte		        c_v-6
	.byte	W01
	.byte		        c_v+0
	.byte	W04
	.byte		        c_v-6
	.byte	W01
	.byte		        c_v-8
	.byte	W02
	.byte		        c_v-12
	.byte	W04
	.byte		        c_v-6
	.byte	W01
	.byte		        c_v+0
	.byte	W01
	.byte		VOICE , 78
	.byte	W01
	.byte		N12   , Dn4 , v120
	.byte	W12
	.byte		N04   , Cs4 , v100
	.byte	W04
	.byte		N08   , Cs4 , v060
	.byte	W08
	.byte		N12   , Dn4 , v120
	.byte	W12
	.byte		N04   , Bn3 , v100
	.byte	W04
	.byte		N08   , Bn3 , v060
	.byte	W08
	.byte		N09   , An3 , v120
	.byte	W09
	.byte		N08   , An3 , v060
	.byte	W13
	.byte		MOD   , 50
	.byte	W01
	.byte		VOICE , 78
	.byte	W01
	.byte		N02   , En5 , v120
	.byte	W02
	.byte		N04   , En6 , v080
	.byte	W04
	.byte		N06   , En5 , v120
	.byte	W05
	.byte		VOICE , 92
	.byte	W01
	.byte		N06   , En5 , v060
	.byte	W06
	.byte		        En5 , v040
	.byte	W05
	.byte		VOICE , 78
	.byte	W01
	.byte		N06   , Dn5 , v120
	.byte	W05
	.byte		VOICE , 74
	.byte	W01
	.byte		N06   , Dn5 , v060
	.byte	W06
	.byte		        Dn5 , v040
	.byte	W06
	.byte		N06
	.byte	W05
	.byte		VOICE , 78
	.byte	W01
	.byte		N06   , Fs5 , v120
	.byte	W05
	.byte		VOICE , 92
	.byte	W01
	.byte		N06   , Fs5 , v060
	.byte	W06
	.byte		        Fs5 , v040
	.byte	W06
	.byte		N06
	.byte	W05
	.byte		VOICE , 78
	.byte	W01
	.byte		N06   , En5 , v120
	.byte	W05
	.byte		VOICE , 74
	.byte	W01
	.byte		N06   , En5 , v060
	.byte	W06
	.byte		        En5 , v040
	.byte	W06
	.byte		N06
	.byte	W06
	.byte		N06
	.byte	W06
	.byte		        En5 , v020
	.byte	W06
	.byte		N06
	.byte	W06
	.byte		N06
	.byte	W05
	.byte		VOICE , 74
	.byte	W01
	.byte		N05   , Dn5 , v120
	.byte	W05
	.byte		VOICE , 76
	.byte	W01
	.byte		N06   , Dn4 , v060
	.byte	W05
	.byte		VOICE , 74
	.byte	W01
	.byte		N05   , Cs5 , v120
	.byte	W05
	.byte		VOICE , 76
	.byte	W01
	.byte		N06   , Cs4 , v060
	.byte	W05
	.byte		VOICE , 74
	.byte	W01
	.byte		N05   , Dn5 , v120
	.byte	W05
	.byte		VOICE , 76
	.byte	W01
	.byte		N06   , Dn4 , v060
	.byte	W05
	.byte		VOICE , 74
	.byte	W01
	.byte		N05   , Bn4 , v120
	.byte	W05
	.byte		VOICE , 76
	.byte	W01
	.byte		N06   , Bn3 , v060
	.byte	W05
	.byte		VOICE , 74
	.byte	W01
	.byte		N05   , An4 , v120
	.byte	W05
	.byte		VOICE , 76
	.byte	W01
	.byte		N06   , An4 , v060
	.byte	W06
	.byte		        An4 , v040
	.byte	W06
	.byte		        An4 , v020
	.byte	W30
	.byte		MOD   , 0
	.byte	W01
	.byte		PAN   , c_v+63
	.byte	W01
	.byte		VOICE , 79
	.byte	W01
	.byte		N06   , An5 , v120
	.byte	W05
	.byte		VOICE , 76
	.byte	W01
	.byte		N06   , An5 , v040
	.byte	W06
	.byte		        An5 , v020
	.byte	W32
	.byte	W01
	.byte	W01
	.byte		PAN   , c_v-64
	.byte	W01
	.byte		VOICE , 79
	.byte	W01
	.byte		N06   , Gs5 , v120
	.byte	W05
	.byte		VOICE , 76
	.byte	W01
	.byte		N06   , Gs5 , v040
	.byte	W06
	.byte		        Gs5 , v020
	.byte	W32
	.byte	W02
	.byte		PAN   , c_v+63
	.byte	W01
	.byte		VOICE , 79
	.byte	W01
	.byte		N06   , Fs5 , v120
	.byte	W05
	.byte		VOICE , 76
	.byte	W01
	.byte		N06   , Fs5 , v040
	.byte	W06
	.byte		        Fs5 , v020
	.byte	W32
	.byte	W01
	.byte	PEND
	.byte	W01
	.byte		PAN   , c_v-64
	.byte	W01
	.byte		VOICE , 79
	.byte	W01
	.byte		N06   , En5 , v120
	.byte	W05
	.byte		VOICE , 76
	.byte	W01
	.byte		N06   , En5 , v040
	.byte	W06
	.byte		        En5 , v020
	.byte	W80
	.byte	W01
	.byte	W96
	.byte	W48
	.byte	W01
	.byte		PAN   , c_v+63
	.byte	W01
	.byte		VOICE , 79
	.byte	W01
	.byte		N06   , An5 , v120
	.byte	W05
	.byte		VOICE , 76
	.byte	W01
	.byte		N06   , An5 , v040
	.byte	W06
	.byte		        An5 , v020
	.byte	W32
	.byte	W01
	.byte	PATT
	 .word	seq_103_9 + 0x2E1
	.byte	W01
	.byte		PAN   , c_v-64
	.byte	W01
	.byte		VOICE , 79
	.byte	W01
	.byte		N06   , En5 , v120
	.byte	W05
	.byte		VOICE , 76
	.byte	W01
	.byte		N06   , En5 , v040
	.byte	W06
	.byte		        En5 , v020
	.byte	W08
	.byte		PAN   , c_v+0
	.byte	W72
	.byte	W01
	.byte	W10
	.byte		MOD   , 60
	.byte	W01
	.byte		VOICE , 79
	.byte	W01
	.byte		N03   , Fs4 , v120
	.byte	W02
	.byte		VOICE , 76
	.byte	W01
	.byte		N09   , Fs4 , v060
	.byte	W08
	.byte		VOICE , 79
	.byte	W01
	.byte		N03   , Gs4 , v120
	.byte	W02
	.byte		VOICE , 76
	.byte	W01
	.byte		N09   , Gs4 , v060
	.byte	W08
	.byte		VOICE , 79
	.byte	W01
	.byte		N03   , An4 , v120
	.byte	W02
	.byte		VOICE , 76
	.byte	W01
	.byte		N09   , An4 , v060
	.byte	W08
	.byte		VOICE , 79
	.byte	W01
	.byte		N03   , Bn4 , v120
	.byte	W02
	.byte		VOICE , 76
	.byte	W01
	.byte		N09   , Bn4 , v060
	.byte	W08
	.byte		VOICE , 79
	.byte	W01
	.byte		N03   , Cs5 , v120
	.byte	W02
	.byte		VOICE , 76
	.byte	W01
	.byte		N09   , Cs5 , v060
	.byte	W08
	.byte		VOICE , 79
	.byte	W01
	.byte		N03   , Dn5 , v120
	.byte	W02
	.byte		VOICE , 76
	.byte	W01
	.byte		N09   , Dn5 , v060
	.byte	W08
	.byte		VOICE , 79
	.byte	W01
	.byte		N03   , En5 , v120
	.byte	W02
	.byte		VOICE , 76
	.byte	W01
	.byte		N09   , En5 , v060
	.byte	W07
	.byte		MOD   , 0
	.byte	W01
	.byte		VOICE , 73
	.byte	W01
	.byte	GOTO
	 .word	seq_103_9 + 0x5F
	.byte	FINE

@*********************** Track 11 ***********************@

seq_103_10:
	.byte	KEYSH , seq_103_key+0
	.byte	W18
	.byte		VOICE , 87
	.byte	W01
	.byte		VOL   , 40*seq_103_mvl/mxv
	.byte	W01
	.byte		PAN   , c_v+0
	.byte	W01
	.byte		LFOS  , 40
	.byte	W01
	.byte		MODT  , mod_pan
	.byte	W01
	.byte		BENDR , 2
	.byte	W01
	.byte		N02   , Cs4 , v120
	.byte	W02
	.byte		        Cs5 , v080
	.byte	W02
	.byte		        Cs4 , v040
	.byte	W02
	.byte		        An3 , v120
	.byte	W02
	.byte		        An4 , v080
	.byte	W02
	.byte		        An3 , v040
	.byte	W02
	.byte		        Bn3 , v120
	.byte	W02
	.byte		        Bn4 , v080
	.byte	W02
	.byte		        Bn3 , v040
	.byte	W02
	.byte		        Cs4 , v120
	.byte	W02
	.byte		        Cs5 , v080
	.byte	W02
	.byte		        Cs4 , v040
	.byte	W02
	.byte		        Dn4 , v120
	.byte	W02
	.byte		        Dn5 , v080
	.byte	W02
	.byte		        Dn4 , v040
	.byte	W02
	.byte		        En4 , v120
	.byte	W02
	.byte		        En5 , v080
	.byte	W02
	.byte		        En4 , v040
	.byte	W02
	.byte		        Fs4 , v120
	.byte	W02
	.byte		        Fs5 , v080
	.byte	W02
	.byte		        Fs4 , v040
	.byte	W02
	.byte		        Gs4 , v120
	.byte	W02
	.byte		        Gs5 , v080
	.byte	W02
	.byte		        Gs4 , v040
	.byte	W02
	.byte		N02   , An4 , v120
	.byte	W02
	.byte		        An5 , v080
	.byte	W02
	.byte		        An4 , v040
	.byte	W18
	.byte		VOICE , 90
	.byte	W01
	.byte		BEND  , c_v-42
	.byte	W01
	.byte		N24   , Cs4 , v120
	.byte	W01
	.byte		BEND  , c_v-22
	.byte	W01
	.byte		        c_v-10
	.byte	W02
	.byte		        c_v+0
	.byte	W20
	.byte		N07   , Fs3 , v100
	.byte	W07
	.byte		N05   , Fs3 , v060
	.byte	W05
	.byte		N12   , Fs3 , v040
	.byte	W11
	.byte		BEND  , c_v-42
	.byte	W01
	.byte		N24   , An3 , v120
	.byte	W01
	.byte		BEND  , c_v-22
	.byte	W01
	.byte		        c_v-10
	.byte	W02
	.byte		        c_v+0
	.byte	W20
	.byte		N07   , Gs3 , v100
	.byte	W07
	.byte		N05   , Gs3 , v060
	.byte	W05
	.byte		N36   , Gs3 , v040
	.byte	W02
	.byte		BEND  , c_v-6
	.byte	W01
	.byte		        c_v-8
	.byte	W02
	.byte		        c_v-12
	.byte	W04
	.byte		        c_v-6
	.byte	W01
	.byte		        c_v+0
	.byte	W04
	.byte		        c_v-6
	.byte	W01
	.byte		        c_v-8
	.byte	W02
	.byte		        c_v-12
	.byte	W04
	.byte		        c_v-6
	.byte	W01
	.byte		        c_v+0
	.byte	W04
	.byte		        c_v-6
	.byte	W01
	.byte		        c_v-8
	.byte	W02
	.byte		        c_v-12
	.byte	W04
	.byte		        c_v-6
	.byte	W01
	.byte		        c_v+0
	.byte	W02
	.byte		N12   , Fs4 , v120
	.byte	W12
	.byte		N04   , En4 , v100
	.byte	W04
	.byte		N08   , En4 , v060
	.byte	W08
	.byte		N12   , Dn4 , v120
	.byte	W12
	.byte		N04   , En4 , v100
	.byte	W04
	.byte		N08   , En4 , v060
	.byte	W08
	.byte		N09   , Cs4 , v120
	.byte	W09
	.byte		N05   , Cs4 , v060
	.byte	W05
	.byte		N07   , Cs4 , v040
	.byte	W08
	.byte		MOD   , 50
	.byte	W01
	.byte		VOICE , 95
	.byte	W01
	.byte		N02   , En4 , v120
	.byte	W02
	.byte		N04   , En5 , v080
	.byte	W04
	.byte		N06   , En4 , v120
	.byte	W05
	.byte		VOICE , 86
	.byte	W01
	.byte		N06   , En4 , v060
	.byte	W06
	.byte		        En4 , v040
	.byte	W05
	.byte		VOICE , 95
	.byte	W01
	.byte		N06   , Dn4 , v120
	.byte	W05
	.byte		VOICE , 96
	.byte	W01
	.byte		N06   , Dn4 , v060
	.byte	W06
	.byte		        Dn4 , v040
	.byte	W06
	.byte		N06
	.byte	W05
	.byte		VOICE , 95
	.byte	W01
	.byte		N06   , Fs4 , v120
	.byte	W05
	.byte		VOICE , 86
	.byte	W01
	.byte		N06   , Fs4 , v060
	.byte	W06
	.byte		        Fs4 , v040
	.byte	W06
	.byte		N06
	.byte	W05
	.byte		VOICE , 95
	.byte	W01
	.byte		N06   , En4 , v120
	.byte	W05
	.byte		VOICE , 96
	.byte	W01
	.byte		N06   , En4 , v060
	.byte	W06
	.byte		        En4 , v040
	.byte	W06
	.byte		N06
	.byte	W06
	.byte		N06
	.byte	W06
	.byte		        En4 , v020
	.byte	W06
	.byte		N06
	.byte	W06
	.byte		N06
	.byte	W05
	.byte		VOICE , 95
	.byte	W01
	.byte		N05   , Fs5 , v120
	.byte	W05
	.byte		VOICE , 94
	.byte	W01
	.byte		N06   , Fs4 , v060
	.byte	W05
	.byte		VOICE , 95
	.byte	W01
	.byte		N05   , En5 , v120
	.byte	W05
	.byte		VOICE , 94
	.byte	W01
	.byte		N06   , En4 , v060
	.byte	W05
	.byte		VOICE , 95
	.byte	W01
	.byte		N05   , Dn5 , v120
	.byte	W05
	.byte		VOICE , 94
	.byte	W01
	.byte		N06   , Dn4 , v060
	.byte	W05
	.byte		VOICE , 95
	.byte	W01
	.byte		N05   , En5 , v120
	.byte	W05
	.byte		VOICE , 94
	.byte	W01
	.byte		N06   , En4 , v060
	.byte	W05
	.byte		VOICE , 95
	.byte	W01
	.byte		N05   , Cs5 , v120
	.byte	W05
	.byte		VOICE , 94
	.byte	W01
	.byte		N06   , Cs5 , v060
	.byte	W06
	.byte		        Cs5 , v040
	.byte	W06
	.byte		        Cs5 , v020
	.byte	W03
	.byte		MOD   , 0
	.byte	W01
	.byte		VOICE , 90
	.byte	W01
	.byte		BEND  , c_v-42
	.byte	W01
	.byte		N24   , Cs4 , v120
	.byte	W01
	.byte		BEND  , c_v-22
	.byte	W01
	.byte		        c_v-10
	.byte	W02
	.byte		        c_v+0
	.byte	W20
	.byte		N07   , Fs3 , v100
	.byte	W07
	.byte		N05   , Fs3 , v060
	.byte	W05
	.byte		N12   , Fs3 , v040
	.byte	W11
	.byte		BEND  , c_v-42
	.byte	W01
	.byte		N24   , An3 , v120
	.byte	W01
	.byte		BEND  , c_v-22
	.byte	W01
	.byte		        c_v-10
	.byte	W02
	.byte		        c_v+0
	.byte	W20
	.byte		N07   , Gs3 , v100
	.byte	W07
	.byte		N05   , Gs3 , v060
	.byte	W05
	.byte		N36   , Gs3 , v040
	.byte	W02
	.byte		BEND  , c_v-6
	.byte	W01
	.byte		        c_v-8
	.byte	W02
	.byte		        c_v-12
	.byte	W04
	.byte		        c_v-6
	.byte	W01
	.byte		        c_v+0
	.byte	W04
	.byte		        c_v-6
	.byte	W01
	.byte		        c_v-8
	.byte	W02
	.byte		        c_v-12
	.byte	W04
	.byte		        c_v-6
	.byte	W01
	.byte		        c_v+0
	.byte	W04
	.byte		        c_v-6
	.byte	W01
	.byte		        c_v-8
	.byte	W02
	.byte		        c_v-12
	.byte	W04
	.byte		        c_v-6
	.byte	W01
	.byte		        c_v+0
	.byte	W02
	.byte		N12   , Fs3 , v120
	.byte	W12
	.byte		N04   , An3 , v100
	.byte	W04
	.byte		N08   , An3 , v060
	.byte	W08
	.byte		N12   , Gs3 , v120
	.byte	W12
	.byte		N04   , En3 , v100
	.byte	W04
	.byte		N08   , En3 , v060
	.byte	W08
	.byte		N09   , Cs3 , v120
	.byte	W09
	.byte		N08   , Cs3 , v060
	.byte	W13
	.byte		MOD   , 50
	.byte	W01
	.byte		VOICE , 95
	.byte	W01
	.byte		N02   , En4 , v120
	.byte	W02
	.byte		N04   , En5 , v080
	.byte	W04
	.byte		N06   , En4 , v120
	.byte	W05
	.byte		VOICE , 86
	.byte	W01
	.byte		N06   , En4 , v060
	.byte	W06
	.byte		        En4 , v040
	.byte	W05
	.byte		VOICE , 95
	.byte	W01
	.byte		N06   , Dn4 , v120
	.byte	W05
	.byte		VOICE , 96
	.byte	W01
	.byte		N06   , Dn4 , v060
	.byte	W06
	.byte		        Dn4 , v040
	.byte	W06
	.byte		N06
	.byte	W05
	.byte		VOICE , 95
	.byte	W01
	.byte		N06   , Fs4 , v120
	.byte	W05
	.byte		VOICE , 86
	.byte	W01
	.byte		N06   , Fs4 , v060
	.byte	W06
	.byte		        Fs4 , v040
	.byte	W06
	.byte		N06
	.byte	W05
	.byte		VOICE , 95
	.byte	W01
	.byte		N06   , En4 , v120
	.byte	W05
	.byte		VOICE , 96
	.byte	W01
	.byte		N06   , En4 , v060
	.byte	W06
	.byte		        En4 , v040
	.byte	W06
	.byte		N06
	.byte	W06
	.byte		N06
	.byte	W06
	.byte		        En4 , v020
	.byte	W06
	.byte		N06
	.byte	W06
	.byte		N06
	.byte	W05
	.byte		VOICE , 95
	.byte	W01
	.byte		N05   , Fs4 , v120
	.byte	W05
	.byte		VOICE , 94
	.byte	W01
	.byte		N06   , Fs4 , v060
	.byte	W05
	.byte		VOICE , 95
	.byte	W01
	.byte		N05   , En4 , v120
	.byte	W05
	.byte		VOICE , 94
	.byte	W01
	.byte		N06   , En4 , v060
	.byte	W05
	.byte		VOICE , 95
	.byte	W01
	.byte		N05   , Fs4 , v120
	.byte	W05
	.byte		VOICE , 94
	.byte	W01
	.byte		N06   , Fs4 , v060
	.byte	W05
	.byte		VOICE , 95
	.byte	W01
	.byte		N05   , En4 , v120
	.byte	W05
	.byte		VOICE , 94
	.byte	W01
	.byte		N06   , En4 , v060
	.byte	W05
	.byte		VOICE , 95
	.byte	W01
	.byte		N05   , Cs4 , v120
	.byte	W05
	.byte		VOICE , 94
	.byte	W01
	.byte		N06   , Cs4 , v060
	.byte	W06
	.byte		        Cs4 , v040
	.byte	W06
	.byte		        Cs4 , v020
	.byte	W24
	.byte	W03
	.byte		MOD   , 20
	.byte	W01
	.byte		PAN   , c_v+63
	.byte	W01
	.byte		VOICE , 94
	.byte	W01
	.byte		N06   , An5 , v120
	.byte	W05
	.byte		VOICE , 88
	.byte	W01
	.byte		N06   , An5 , v060
	.byte	W06
	.byte		N12   , An5 , v020
	.byte	W32
	.byte	W02
	.byte		PAN   , c_v-64
	.byte	W01
	.byte		VOICE , 94
	.byte	W01
	.byte		N06   , Gs5 , v120
	.byte	W05
	.byte		VOICE , 88
	.byte	W01
	.byte		N06   , Gs5 , v060
	.byte	W06
	.byte		N12   , Gs5 , v020
	.byte	W32
	.byte	W02
	.byte		PAN   , c_v+63
	.byte	W01
	.byte		VOICE , 94
	.byte	W01
	.byte		N06   , Fs5 , v120
	.byte	W05
	.byte		VOICE , 88
	.byte	W01
	.byte		N06   , Fs5 , v060
	.byte	W06
	.byte		N12   , Fs5 , v020
	.byte	W32
	.byte	W02
	.byte		PAN   , c_v-64
	.byte	W01
	.byte		VOICE , 94
	.byte	W01
	.byte	PEND
	.byte		N06   , En5 , v120
	.byte	W05
	.byte		VOICE , 88
	.byte	W01
	.byte		N06   , En5 , v060
	.byte	W06
	.byte		N12   , En5 , v020
	.byte	W84
	.byte	W96
	.byte	W44
	.byte	W02
	.byte		PAN   , c_v+63
	.byte	W01
	.byte		VOICE , 94
	.byte	W01
	.byte		N06   , An5 , v120
	.byte	W05
	.byte		VOICE , 88
	.byte	W01
	.byte		N06   , An5 , v060
	.byte	W06
	.byte		N12   , An5 , v020
	.byte	W32
	.byte	W02
	.byte		PAN   , c_v-64
	.byte	W01
	.byte		VOICE , 94
	.byte	W01
	.byte	PATT
	 .word	seq_103_10 + 0x2CF
	.byte		N06   , En5 , v120
	.byte	W05
	.byte		VOICE , 88
	.byte	W01
	.byte		N06   , En5 , v060
	.byte	W06
	.byte		N12   , En5 , v020
	.byte	W11
	.byte		PAN   , c_v+0
	.byte	W72
	.byte	W01
	.byte	W10
	.byte		MOD   , 60
	.byte	W01
	.byte		VOICE , 87
	.byte	W01
	.byte		N03   , An3 , v120
	.byte	W02
	.byte		VOICE , 86
	.byte	W01
	.byte		N09   , An3 , v060
	.byte	W08
	.byte		VOICE , 87
	.byte	W01
	.byte		N03   , Bn3 , v120
	.byte	W02
	.byte		VOICE , 86
	.byte	W01
	.byte		N09   , Bn3 , v060
	.byte	W08
	.byte		VOICE , 87
	.byte	W01
	.byte		N03   , Cs4 , v120
	.byte	W02
	.byte		VOICE , 86
	.byte	W01
	.byte		N09   , Cs4 , v060
	.byte	W08
	.byte		VOICE , 87
	.byte	W01
	.byte		N03   , Dn4 , v120
	.byte	W02
	.byte		VOICE , 86
	.byte	W01
	.byte		N09   , Dn4 , v060
	.byte	W08
	.byte		VOICE , 87
	.byte	W01
	.byte		N03   , En4 , v120
	.byte	W02
	.byte		VOICE , 86
	.byte	W01
	.byte		N09   , En4 , v060
	.byte	W08
	.byte		VOICE , 87
	.byte	W01
	.byte		N03   , Fs4 , v120
	.byte	W02
	.byte		VOICE , 86
	.byte	W01
	.byte		N09   , Fs4 , v060
	.byte	W08
	.byte		VOICE , 87
	.byte	W01
	.byte		N03   , Gs4 , v120
	.byte	W02
	.byte		VOICE , 86
	.byte	W01
	.byte		N09   , Gs4 , v060
	.byte	W07
	.byte		MOD   , 0
	.byte	W01
	.byte		VOICE , 87
	.byte	W01
	.byte	GOTO
	 .word	seq_103_10 + 0x5E
	.byte	FINE

@******************************************************@

	.align	2

seq_103:
	.byte	11	@ NumTrks
	.byte	0	@ NumBlks
	.byte	seq_103_pri	@ Priority
	.byte	seq_103_rev	@ Reverb

	.word	seq_103_grp

	.word	seq_103_0
	.word	seq_103_1
	.word	seq_103_2
	.word	seq_103_3
	.word	seq_103_4
	.word	seq_103_5
	.word	seq_103_6
	.word	seq_103_7
	.word	seq_103_8
	.word	seq_103_9
	.word	seq_103_10

	.end
