@ File generated by m4a2s Song-Module
	.include "MPlayDef.s"

	.equ	seq_122_grp, bank_014
	.equ	seq_122_pri, 50
	.equ	seq_122_rev, 203
	.equ	seq_122_mvl, 127
	.equ	seq_122_key, 0

	.section .rodata
	.global	seq_122
	.align	2

@*********************** Track 01 ***********************@

seq_122_0:
	.byte	KEYSH , seq_122_key+0
	.byte	TEMPO , 140/2
	.byte		VOICE , 42
	.byte	W01
	.byte		VOL   , 0*seq_122_mvl/mxv
	.byte	W01
	.byte		PAN   , c_v-14
	.byte	W01
	.byte		LFOS  , 100
	.byte	W01
	.byte		MODT  , mod_pan
	.byte	W01
	.byte		BENDR , 5
	.byte	W01
	.byte		MOD   , 0
	.byte	W18
	.byte	W06
	.byte		TIE   , Cn1 , v120
	.byte	W02
	.byte		VOL   , 0*seq_122_mvl/mxv
	.byte	W10
	.byte		        4*seq_122_mvl/mxv
	.byte	W10
	.byte		        7*seq_122_mvl/mxv
	.byte	W10
	.byte		        11*seq_122_mvl/mxv
	.byte	W11
	.byte		        14*seq_122_mvl/mxv
	.byte	W10
	.byte		        18*seq_122_mvl/mxv
	.byte	W10
	.byte		        21*seq_122_mvl/mxv
	.byte	W10
	.byte		        25*seq_122_mvl/mxv
	.byte	W10
	.byte		        28*seq_122_mvl/mxv
	.byte	W07
	.byte	PEND
	.byte	W03
	.byte		VOL   , 32*seq_122_mvl/mxv
	.byte	W10
	.byte		        35*seq_122_mvl/mxv
	.byte	W11
	.byte		        38*seq_122_mvl/mxv
	.byte	W10
	.byte		        42*seq_122_mvl/mxv
	.byte	W10
	.byte		        45*seq_122_mvl/mxv
	.byte	W10
	.byte		        49*seq_122_mvl/mxv
	.byte	W36
	.byte	W01
	.byte		        48*seq_122_mvl/mxv
	.byte	W05
	.byte	PEND
	.byte		VOL   , 45*seq_122_mvl/mxv
	.byte	W05
	.byte		        41*seq_122_mvl/mxv
	.byte	W06
	.byte		        38*seq_122_mvl/mxv
	.byte	W05
	.byte		        34*seq_122_mvl/mxv
	.byte	W06
	.byte		        31*seq_122_mvl/mxv
	.byte	W05
	.byte		        27*seq_122_mvl/mxv
	.byte	W05
	.byte		        24*seq_122_mvl/mxv
	.byte	W06
	.byte		        20*seq_122_mvl/mxv
	.byte	W05
	.byte		        17*seq_122_mvl/mxv
	.byte	W06
	.byte		        13*seq_122_mvl/mxv
	.byte	W05
	.byte		        10*seq_122_mvl/mxv
	.byte	W05
	.byte		        6*seq_122_mvl/mxv
	.byte	W06
	.byte		        3*seq_122_mvl/mxv
	.byte	W05
	.byte		        0*seq_122_mvl/mxv
	.byte	W05
	.byte	PEND
	.byte		EOT   , Cn1 
	.byte	W01
	.byte		TIE   , Dn0 , v120
	.byte	W05
	.byte		VOL   , 3*seq_122_mvl/mxv
	.byte	W05
	.byte		        6*seq_122_mvl/mxv
	.byte	W05
	.byte		        10*seq_122_mvl/mxv
	.byte	W05
	.byte		VOL   , 13*seq_122_mvl/mxv
	.byte	W05
	.byte		        17*seq_122_mvl/mxv
	.byte	W06
	.byte		        20*seq_122_mvl/mxv
	.byte	W05
	.byte		        24*seq_122_mvl/mxv
	.byte	W05
	.byte		        27*seq_122_mvl/mxv
	.byte	W05
	.byte		        31*seq_122_mvl/mxv
	.byte	W05
	.byte		        34*seq_122_mvl/mxv
	.byte	W06
	.byte		        38*seq_122_mvl/mxv
	.byte	W05
	.byte		        41*seq_122_mvl/mxv
	.byte	W05
	.byte		        45*seq_122_mvl/mxv
	.byte	W05
	.byte		        48*seq_122_mvl/mxv
	.byte	W12
	.byte		        50*seq_122_mvl/mxv
	.byte	W05
	.byte		        46*seq_122_mvl/mxv
	.byte	W06
	.byte		        43*seq_122_mvl/mxv
	.byte	W05
	.byte		        39*seq_122_mvl/mxv
	.byte	W05
	.byte		        36*seq_122_mvl/mxv
	.byte	W06
	.byte		        32*seq_122_mvl/mxv
	.byte	W05
	.byte	PEND
	.byte		VOL   , 29*seq_122_mvl/mxv
	.byte	W06
	.byte		        25*seq_122_mvl/mxv
	.byte	W05
	.byte		        22*seq_122_mvl/mxv
	.byte	W05
	.byte		        19*seq_122_mvl/mxv
	.byte	W06
	.byte		        15*seq_122_mvl/mxv
	.byte	W05
	.byte		        12*seq_122_mvl/mxv
	.byte	W06
	.byte		        8*seq_122_mvl/mxv
	.byte	W05
	.byte		        5*seq_122_mvl/mxv
	.byte	W05
	.byte		        1*seq_122_mvl/mxv
	.byte	W03
	.byte	PEND
	.byte		EOT   , Dn0 
	.byte	W48
	.byte	W02
	.byte	W96
	.byte	W15
	.byte		TIE   , Bn0 , v120
	.byte	W03
	.byte		VOL   , 1*seq_122_mvl/mxv
	.byte	W08
	.byte		        5*seq_122_mvl/mxv
	.byte	W08
	.byte		        8*seq_122_mvl/mxv
	.byte	W07
	.byte		        12*seq_122_mvl/mxv
	.byte	W08
	.byte		        15*seq_122_mvl/mxv
	.byte	W08
	.byte		        19*seq_122_mvl/mxv
	.byte	W07
	.byte		        22*seq_122_mvl/mxv
	.byte	W08
	.byte		        25*seq_122_mvl/mxv
	.byte	W08
	.byte		        29*seq_122_mvl/mxv
	.byte	W07
	.byte		        32*seq_122_mvl/mxv
	.byte	W08
	.byte		        36*seq_122_mvl/mxv
	.byte	W01
	.byte	PEND
	.byte	W07
	.byte		VOL   , 39*seq_122_mvl/mxv
	.byte	W07
	.byte		        43*seq_122_mvl/mxv
	.byte	W08
	.byte		        46*seq_122_mvl/mxv
	.byte	W08
	.byte		        50*seq_122_mvl/mxv
	.byte	W19
	.byte		        48*seq_122_mvl/mxv
	.byte	W05
	.byte		        45*seq_122_mvl/mxv
	.byte	W05
	.byte		        41*seq_122_mvl/mxv
	.byte	W06
	.byte		        38*seq_122_mvl/mxv
	.byte	W05
	.byte		        34*seq_122_mvl/mxv
	.byte	W06
	.byte		        31*seq_122_mvl/mxv
	.byte	W05
	.byte		        27*seq_122_mvl/mxv
	.byte	W05
	.byte		        24*seq_122_mvl/mxv
	.byte	W06
	.byte		        20*seq_122_mvl/mxv
	.byte	W04
	.byte	PEND
	.byte	W01
	.byte		VOL   , 17*seq_122_mvl/mxv
	.byte	W06
	.byte		        13*seq_122_mvl/mxv
	.byte	W05
	.byte		        10*seq_122_mvl/mxv
	.byte	W05
	.byte		        6*seq_122_mvl/mxv
	.byte	W06
	.byte		        3*seq_122_mvl/mxv
	.byte	W05
	.byte	PEND
	.byte		EOT   , Bn0 
	.byte		VOL   , 0*seq_122_mvl/mxv
	.byte	W68
	.byte	W66
	.byte		TIE   , An0 , v120
	.byte	W07
	.byte		VOL   , 3*seq_122_mvl/mxv
	.byte	W07
	.byte		        6*seq_122_mvl/mxv
	.byte	W07
	.byte		        10*seq_122_mvl/mxv
	.byte	W07
	.byte		        13*seq_122_mvl/mxv
	.byte	W02
	.byte	PEND
	.byte	W05
	.byte		VOL   , 17*seq_122_mvl/mxv
	.byte	W07
	.byte		        20*seq_122_mvl/mxv
	.byte	W07
	.byte		        24*seq_122_mvl/mxv
	.byte	W07
	.byte		        27*seq_122_mvl/mxv
	.byte	W07
	.byte		        31*seq_122_mvl/mxv
	.byte	W07
	.byte		        34*seq_122_mvl/mxv
	.byte	W07
	.byte		        38*seq_122_mvl/mxv
	.byte	W07
	.byte		        41*seq_122_mvl/mxv
	.byte	W06
	.byte		        45*seq_122_mvl/mxv
	.byte	W07
	.byte		        48*seq_122_mvl/mxv
	.byte	W07
	.byte		        51*seq_122_mvl/mxv
	.byte	W07
	.byte		        53*seq_122_mvl/mxv
	.byte	W07
	.byte		        50*seq_122_mvl/mxv
	.byte	W08
	.byte	PEND
	.byte		VOL   , 46*seq_122_mvl/mxv
	.byte	W07
	.byte		        43*seq_122_mvl/mxv
	.byte	W07
	.byte		        39*seq_122_mvl/mxv
	.byte	W07
	.byte		        36*seq_122_mvl/mxv
	.byte	W07
	.byte		        32*seq_122_mvl/mxv
	.byte	W08
	.byte		        29*seq_122_mvl/mxv
	.byte	W07
	.byte		        25*seq_122_mvl/mxv
	.byte	W07
	.byte		        22*seq_122_mvl/mxv
	.byte	W07
	.byte		        19*seq_122_mvl/mxv
	.byte	W07
	.byte		        15*seq_122_mvl/mxv
	.byte	W07
	.byte		        12*seq_122_mvl/mxv
	.byte	W08
	.byte		        8*seq_122_mvl/mxv
	.byte	W07
	.byte		        5*seq_122_mvl/mxv
	.byte	W07
	.byte		        1*seq_122_mvl/mxv
	.byte	W03
	.byte	PEND
	.byte		EOT   , An0 
	.byte	W88
	.byte		TIE   , Fn1 , v120
	.byte	W03
	.byte		VOL   , 1*seq_122_mvl/mxv
	.byte	W05
	.byte	PEND
	.byte	W01
	.byte		VOL   , 5*seq_122_mvl/mxv
	.byte	W05
	.byte		        8*seq_122_mvl/mxv
	.byte	W05
	.byte		        12*seq_122_mvl/mxv
	.byte	W06
	.byte		        15*seq_122_mvl/mxv
	.byte	W05
	.byte		        19*seq_122_mvl/mxv
	.byte	W05
	.byte		        22*seq_122_mvl/mxv
	.byte	W06
	.byte		        25*seq_122_mvl/mxv
	.byte	W05
	.byte		        29*seq_122_mvl/mxv
	.byte	W05
	.byte		        32*seq_122_mvl/mxv
	.byte	W06
	.byte		        36*seq_122_mvl/mxv
	.byte	W05
	.byte		        39*seq_122_mvl/mxv
	.byte	W05
	.byte		        43*seq_122_mvl/mxv
	.byte	W06
	.byte		        46*seq_122_mvl/mxv
	.byte	W05
	.byte		        50*seq_122_mvl/mxv
	.byte	W05
	.byte		        53*seq_122_mvl/mxv
	.byte	W08
	.byte		        50*seq_122_mvl/mxv
	.byte	W08
	.byte		        46*seq_122_mvl/mxv
	.byte	W05
	.byte	PEND
	.byte	W02
	.byte		VOL   , 43*seq_122_mvl/mxv
	.byte	W08
	.byte		        39*seq_122_mvl/mxv
	.byte	W07
	.byte		        36*seq_122_mvl/mxv
	.byte	W08
	.byte		        32*seq_122_mvl/mxv
	.byte	W07
	.byte		        29*seq_122_mvl/mxv
	.byte	W08
	.byte		        25*seq_122_mvl/mxv
	.byte	W07
	.byte		        22*seq_122_mvl/mxv
	.byte	W08
	.byte		        19*seq_122_mvl/mxv
	.byte	W08
	.byte		        15*seq_122_mvl/mxv
	.byte	W07
	.byte		        12*seq_122_mvl/mxv
	.byte	W08
	.byte		        8*seq_122_mvl/mxv
	.byte	W07
	.byte		        5*seq_122_mvl/mxv
	.byte	W08
	.byte		        1*seq_122_mvl/mxv
	.byte	W03
	.byte	PEND
	.byte		EOT   , Fn1 
	.byte	W76
	.byte	W01
	.byte		TIE   , An1 , v120
	.byte	W02
	.byte		VOL   , 1*seq_122_mvl/mxv
	.byte	W07
	.byte		        5*seq_122_mvl/mxv
	.byte	W06
	.byte		        8*seq_122_mvl/mxv
	.byte	W04
	.byte	PEND
	.byte	W02
	.byte		VOL   , 12*seq_122_mvl/mxv
	.byte	W07
	.byte		        15*seq_122_mvl/mxv
	.byte	W06
	.byte		        19*seq_122_mvl/mxv
	.byte	W07
	.byte		        22*seq_122_mvl/mxv
	.byte	W06
	.byte		        25*seq_122_mvl/mxv
	.byte	W06
	.byte		        29*seq_122_mvl/mxv
	.byte	W07
	.byte		        32*seq_122_mvl/mxv
	.byte	W06
	.byte		        36*seq_122_mvl/mxv
	.byte	W07
	.byte		        39*seq_122_mvl/mxv
	.byte	W06
	.byte		        43*seq_122_mvl/mxv
	.byte	W06
	.byte		        46*seq_122_mvl/mxv
	.byte	W07
	.byte		        50*seq_122_mvl/mxv
	.byte	W12
	.byte		        48*seq_122_mvl/mxv
	.byte	W05
	.byte		        45*seq_122_mvl/mxv
	.byte	W05
	.byte		        41*seq_122_mvl/mxv
	.byte	W01
	.byte	PEND
	.byte	W05
	.byte		VOL   , 38*seq_122_mvl/mxv
	.byte	W05
	.byte		        34*seq_122_mvl/mxv
	.byte	W06
	.byte		        31*seq_122_mvl/mxv
	.byte	W05
	.byte		        27*seq_122_mvl/mxv
	.byte	W05
	.byte		        24*seq_122_mvl/mxv
	.byte	W06
	.byte		        20*seq_122_mvl/mxv
	.byte	W05
	.byte		        17*seq_122_mvl/mxv
	.byte	W06
	.byte		        13*seq_122_mvl/mxv
	.byte	W05
	.byte		        10*seq_122_mvl/mxv
	.byte	W05
	.byte		        6*seq_122_mvl/mxv
	.byte	W06
	.byte		        3*seq_122_mvl/mxv
	.byte	W05
	.byte		        0*seq_122_mvl/mxv
	.byte	W32
	.byte	PEND
	.byte	W64
	.byte		EOT   , An1 
	.byte	W32
	.byte	W68
	.byte	W03
	.byte		TIE   , Gn1 , v120
	.byte	W05
	.byte		VOL   , 3*seq_122_mvl/mxv
	.byte	W07
	.byte		        6*seq_122_mvl/mxv
	.byte	W06
	.byte		        10*seq_122_mvl/mxv
	.byte	W07
	.byte	PEND
	.byte		VOL   , 13*seq_122_mvl/mxv
	.byte	W06
	.byte		        17*seq_122_mvl/mxv
	.byte	W06
	.byte		        20*seq_122_mvl/mxv
	.byte	W07
	.byte		        24*seq_122_mvl/mxv
	.byte	W06
	.byte		        27*seq_122_mvl/mxv
	.byte	W07
	.byte		        31*seq_122_mvl/mxv
	.byte	W06
	.byte		        34*seq_122_mvl/mxv
	.byte	W06
	.byte		        38*seq_122_mvl/mxv
	.byte	W07
	.byte		        41*seq_122_mvl/mxv
	.byte	W06
	.byte		        45*seq_122_mvl/mxv
	.byte	W07
	.byte		        48*seq_122_mvl/mxv
	.byte	W12
	.byte		        50*seq_122_mvl/mxv
	.byte	W05
	.byte		        46*seq_122_mvl/mxv
	.byte	W06
	.byte		        43*seq_122_mvl/mxv
	.byte	W05
	.byte		        39*seq_122_mvl/mxv
	.byte	W04
	.byte	PEND
	.byte	W01
	.byte		VOL   , 36*seq_122_mvl/mxv
	.byte	W06
	.byte		        32*seq_122_mvl/mxv
	.byte	W05
	.byte		        29*seq_122_mvl/mxv
	.byte	W06
	.byte		        25*seq_122_mvl/mxv
	.byte	W05
	.byte		        22*seq_122_mvl/mxv
	.byte	W05
	.byte		        19*seq_122_mvl/mxv
	.byte	W06
	.byte		        15*seq_122_mvl/mxv
	.byte	W05
	.byte		        12*seq_122_mvl/mxv
	.byte	W06
	.byte		        8*seq_122_mvl/mxv
	.byte	W05
	.byte		        5*seq_122_mvl/mxv
	.byte	W04
	.byte		        2*seq_122_mvl/mxv
	.byte	W04
	.byte		        0*seq_122_mvl/mxv
	.byte	W36
	.byte	W02
	.byte	PEND
	.byte	W56
	.byte	W02
	.byte		EOT   , Gn1 
	.byte	W36
	.byte	W02
	.byte	PATT
	 .word	seq_122_0 + 0x19
	.byte	PATT
	 .word	seq_122_0 + 0x32
	.byte	PATT
	 .word	seq_122_0 + 0x44
	.byte		EOT   , Cn1 
	.byte	W01
	.byte		TIE   , Dn0 , v120
	.byte	W05
	.byte		VOL   , 3*seq_122_mvl/mxv
	.byte	W05
	.byte		        6*seq_122_mvl/mxv
	.byte	W05
	.byte		        10*seq_122_mvl/mxv
	.byte	W05
	.byte	PATT
	 .word	seq_122_0 + 0x70
	.byte	PATT
	 .word	seq_122_0 + 0x94
	.byte		EOT   , Dn0 
	.byte	W48
	.byte	W02
	.byte	W96
	.byte	PATT
	 .word	seq_122_0 + 0xAD
	.byte	PATT
	 .word	seq_122_0 + 0xCA
	.byte	PATT
	 .word	seq_122_0 + 0xE7
	.byte		EOT   , Bn0 
	.byte		VOL   , 0*seq_122_mvl/mxv
	.byte	W68
	.byte	PATT
	 .word	seq_122_0 + 0xF9
	.byte	PATT
	 .word	seq_122_0 + 0x108
	.byte	PATT
	 .word	seq_122_0 + 0x125
	.byte		EOT   , An0 
	.byte	PATT
	 .word	seq_122_0 + 0x145
	.byte	PATT
	 .word	seq_122_0 + 0x14E
	.byte	PATT
	 .word	seq_122_0 + 0x173
	.byte		EOT   , Fn1 
	.byte	PATT
	 .word	seq_122_0 + 0x192
	.byte	PATT
	 .word	seq_122_0 + 0x1A0
	.byte	PATT
	 .word	seq_122_0 + 0x1C1
	.byte	W64
	.byte		EOT   , An1 
	.byte	W32
	.byte	PATT
	 .word	seq_122_0 + 0x1E0
	.byte	PATT
	 .word	seq_122_0 + 0x1EE
	.byte	PATT
	 .word	seq_122_0 + 0x20E
	.byte	W56
	.byte	W02
	.byte		EOT   , Gn1 
	.byte	W36
	.byte	W02
	.byte	PATT
	 .word	seq_122_0 + 0x19
	.byte	PATT
	 .word	seq_122_0 + 0x32
	.byte	PATT
	 .word	seq_122_0 + 0x44
	.byte		EOT   , Cn1 
	.byte	W01
	.byte		TIE   , Dn0 , v120
	.byte	W05
	.byte		VOL   , 3*seq_122_mvl/mxv
	.byte	W05
	.byte		        6*seq_122_mvl/mxv
	.byte	W05
	.byte		        10*seq_122_mvl/mxv
	.byte	W05
	.byte	PATT
	 .word	seq_122_0 + 0x70
	.byte	PATT
	 .word	seq_122_0 + 0x94
	.byte		EOT   , Dn0 
	.byte	W48
	.byte	W02
	.byte	W96
	.byte	PATT
	 .word	seq_122_0 + 0xAD
	.byte	PATT
	 .word	seq_122_0 + 0xCA
	.byte	PATT
	 .word	seq_122_0 + 0xE7
	.byte		EOT   , Bn0 
	.byte		VOL   , 0*seq_122_mvl/mxv
	.byte	W68
	.byte	PATT
	 .word	seq_122_0 + 0xF9
	.byte	PATT
	 .word	seq_122_0 + 0x108
	.byte	PATT
	 .word	seq_122_0 + 0x125
	.byte		EOT   , An0 
	.byte	PATT
	 .word	seq_122_0 + 0x145
	.byte	PATT
	 .word	seq_122_0 + 0x14E
	.byte	PATT
	 .word	seq_122_0 + 0x173
	.byte		EOT   , Fn1 
	.byte	PATT
	 .word	seq_122_0 + 0x192
	.byte	PATT
	 .word	seq_122_0 + 0x1A0
	.byte	PATT
	 .word	seq_122_0 + 0x1C1
	.byte	W64
	.byte		EOT   , An1 
	.byte	W32
	.byte	PATT
	 .word	seq_122_0 + 0x1E0
	.byte	PATT
	 .word	seq_122_0 + 0x1EE
	.byte	PATT
	 .word	seq_122_0 + 0x20E
	.byte	W56
	.byte	W02
	.byte		EOT   , Gn1 
	.byte	W36
	.byte	W02
	.byte	PATT
	 .word	seq_122_0 + 0x19
	.byte	PATT
	 .word	seq_122_0 + 0x32
	.byte	PATT
	 .word	seq_122_0 + 0x44
	.byte		EOT   , Cn1 
	.byte	W01
	.byte		TIE   , Dn0 , v120
	.byte	W05
	.byte		VOL   , 3*seq_122_mvl/mxv
	.byte	W05
	.byte		        6*seq_122_mvl/mxv
	.byte	W05
	.byte		        10*seq_122_mvl/mxv
	.byte	W05
	.byte	PATT
	 .word	seq_122_0 + 0x70
	.byte	PATT
	 .word	seq_122_0 + 0x94
	.byte		EOT   , Dn0 
	.byte	W48
	.byte	W02
	.byte	W96
	.byte	PATT
	 .word	seq_122_0 + 0xAD
	.byte	PATT
	 .word	seq_122_0 + 0xCA
	.byte	PATT
	 .word	seq_122_0 + 0xE7
	.byte		EOT   , Bn0 
	.byte		VOL   , 0*seq_122_mvl/mxv
	.byte	W68
	.byte	PATT
	 .word	seq_122_0 + 0xF9
	.byte	PATT
	 .word	seq_122_0 + 0x108
	.byte	PATT
	 .word	seq_122_0 + 0x125
	.byte		EOT   , An0 
	.byte	PATT
	 .word	seq_122_0 + 0x145
	.byte	PATT
	 .word	seq_122_0 + 0x14E
	.byte	PATT
	 .word	seq_122_0 + 0x173
	.byte		EOT   , Fn1 
	.byte	PATT
	 .word	seq_122_0 + 0x192
	.byte	PATT
	 .word	seq_122_0 + 0x1A0
	.byte	PATT
	 .word	seq_122_0 + 0x1C1
	.byte	W64
	.byte		EOT   , An1 
	.byte	W32
	.byte	PATT
	 .word	seq_122_0 + 0x1E0
	.byte	PATT
	 .word	seq_122_0 + 0x1EE
	.byte	PATT
	 .word	seq_122_0 + 0x20E
	.byte	W56
	.byte	W02
	.byte		EOT   , Gn1 
	.byte	W36
	.byte	W02
	.byte	PATT
	 .word	seq_122_0 + 0x19
	.byte	PATT
	 .word	seq_122_0 + 0x32
	.byte	PATT
	 .word	seq_122_0 + 0x44
	.byte		EOT   , Cn1 
	.byte	W01
	.byte		TIE   , Dn0 , v120
	.byte	W05
	.byte		VOL   , 3*seq_122_mvl/mxv
	.byte	W05
	.byte		        6*seq_122_mvl/mxv
	.byte	W05
	.byte		        10*seq_122_mvl/mxv
	.byte	W05
	.byte	PATT
	 .word	seq_122_0 + 0x70
	.byte	PATT
	 .word	seq_122_0 + 0x94
	.byte		EOT   , Dn0 
	.byte	W48
	.byte	W02
	.byte	W96
	.byte	PATT
	 .word	seq_122_0 + 0xAD
	.byte	PATT
	 .word	seq_122_0 + 0xCA
	.byte	PATT
	 .word	seq_122_0 + 0xE7
	.byte		EOT   , Bn0 
	.byte		VOL   , 0*seq_122_mvl/mxv
	.byte	W68
	.byte	PATT
	 .word	seq_122_0 + 0xF9
	.byte	PATT
	 .word	seq_122_0 + 0x108
	.byte	PATT
	 .word	seq_122_0 + 0x125
	.byte		EOT   , An0 
	.byte	PATT
	 .word	seq_122_0 + 0x145
	.byte	PATT
	 .word	seq_122_0 + 0x14E
	.byte	PATT
	 .word	seq_122_0 + 0x173
	.byte		EOT   , Fn1 
	.byte	PATT
	 .word	seq_122_0 + 0x192
	.byte	PATT
	 .word	seq_122_0 + 0x1A0
	.byte	PATT
	 .word	seq_122_0 + 0x1C1
	.byte	W64
	.byte		EOT   , An1 
	.byte	W32
	.byte	PATT
	 .word	seq_122_0 + 0x1E0
	.byte	PATT
	 .word	seq_122_0 + 0x1EE
	.byte	PATT
	 .word	seq_122_0 + 0x20E
	.byte	W56
	.byte	W02
	.byte		EOT   , Gn1 
	.byte	W36
	.byte	W02
	.byte	PATT
	 .word	seq_122_0 + 0x19
	.byte	PATT
	 .word	seq_122_0 + 0x32
	.byte	PATT
	 .word	seq_122_0 + 0x44
	.byte		EOT   , Cn1 
	.byte	W01
	.byte		TIE   , Dn0 , v120
	.byte	W05
	.byte		VOL   , 3*seq_122_mvl/mxv
	.byte	W05
	.byte		        6*seq_122_mvl/mxv
	.byte	W05
	.byte		        10*seq_122_mvl/mxv
	.byte	W05
	.byte	PATT
	 .word	seq_122_0 + 0x70
	.byte	PATT
	 .word	seq_122_0 + 0x94
	.byte		EOT   , Dn0 
	.byte	W48
	.byte	W02
	.byte	W96
	.byte	PATT
	 .word	seq_122_0 + 0xAD
	.byte	PATT
	 .word	seq_122_0 + 0xCA
	.byte	PATT
	 .word	seq_122_0 + 0xE7
	.byte		EOT   , Bn0 
	.byte		VOL   , 0*seq_122_mvl/mxv
	.byte	W68
	.byte	PATT
	 .word	seq_122_0 + 0xF9
	.byte	PATT
	 .word	seq_122_0 + 0x108
	.byte	PATT
	 .word	seq_122_0 + 0x125
	.byte		EOT   , An0 
	.byte	PATT
	 .word	seq_122_0 + 0x145
	.byte	PATT
	 .word	seq_122_0 + 0x14E
	.byte	PATT
	 .word	seq_122_0 + 0x173
	.byte		EOT   , Fn1 
	.byte	PATT
	 .word	seq_122_0 + 0x192
	.byte	PATT
	 .word	seq_122_0 + 0x1A0
	.byte	PATT
	 .word	seq_122_0 + 0x1C1
	.byte	W64
	.byte		EOT   , An1 
	.byte	W32
	.byte	PATT
	 .word	seq_122_0 + 0x1E0
	.byte	PATT
	 .word	seq_122_0 + 0x1EE
	.byte	PATT
	 .word	seq_122_0 + 0x20E
	.byte	W56
	.byte	W02
	.byte		EOT   , Gn1 
	.byte	W36
	.byte	W02
	.byte	PATT
	 .word	seq_122_0 + 0x19
	.byte	PATT
	 .word	seq_122_0 + 0x32
	.byte	PATT
	 .word	seq_122_0 + 0x44
	.byte		EOT   , Cn1 
	.byte	W01
	.byte		TIE   , Dn0 , v120
	.byte	W05
	.byte		VOL   , 3*seq_122_mvl/mxv
	.byte	W05
	.byte		        6*seq_122_mvl/mxv
	.byte	W05
	.byte		        10*seq_122_mvl/mxv
	.byte	W05
	.byte	PATT
	 .word	seq_122_0 + 0x70
	.byte	PATT
	 .word	seq_122_0 + 0x94
	.byte		EOT   , Dn0 
	.byte	W48
	.byte	W02
	.byte	W96
	.byte	PATT
	 .word	seq_122_0 + 0xAD
	.byte	PATT
	 .word	seq_122_0 + 0xCA
	.byte	PATT
	 .word	seq_122_0 + 0xE7
	.byte		EOT   , Bn0 
	.byte		VOL   , 0*seq_122_mvl/mxv
	.byte	W68
	.byte	PATT
	 .word	seq_122_0 + 0xF9
	.byte	PATT
	 .word	seq_122_0 + 0x108
	.byte	PATT
	 .word	seq_122_0 + 0x125
	.byte		EOT   , An0 
	.byte	PATT
	 .word	seq_122_0 + 0x145
	.byte	PATT
	 .word	seq_122_0 + 0x14E
	.byte	PATT
	 .word	seq_122_0 + 0x173
	.byte		EOT   , Fn1 
	.byte	PATT
	 .word	seq_122_0 + 0x192
	.byte	PATT
	 .word	seq_122_0 + 0x1A0
	.byte	PATT
	 .word	seq_122_0 + 0x1C1
	.byte	W64
	.byte		EOT   , An1 
	.byte	W32
	.byte	PATT
	 .word	seq_122_0 + 0x1E0
	.byte	PATT
	 .word	seq_122_0 + 0x1EE
	.byte	PATT
	 .word	seq_122_0 + 0x20E
	.byte	W56
	.byte	W02
	.byte		EOT   , Gn1 
	.byte	W36
	.byte	W02
	.byte	PATT
	 .word	seq_122_0 + 0x19
	.byte	PATT
	 .word	seq_122_0 + 0x32
	.byte	PATT
	 .word	seq_122_0 + 0x44
	.byte		EOT   , Cn1 
	.byte	W01
	.byte		TIE   , Dn0 , v120
	.byte	W05
	.byte		VOL   , 3*seq_122_mvl/mxv
	.byte	W05
	.byte		        6*seq_122_mvl/mxv
	.byte	W05
	.byte		        10*seq_122_mvl/mxv
	.byte	W05
	.byte	PATT
	 .word	seq_122_0 + 0x70
	.byte	PATT
	 .word	seq_122_0 + 0x94
	.byte		EOT   , Dn0 
	.byte	W48
	.byte	W02
	.byte	W96
	.byte	PATT
	 .word	seq_122_0 + 0xAD
	.byte	PATT
	 .word	seq_122_0 + 0xCA
	.byte	PATT
	 .word	seq_122_0 + 0xE7
	.byte		EOT   , Bn0 
	.byte		VOL   , 0*seq_122_mvl/mxv
	.byte	W68
	.byte	PATT
	 .word	seq_122_0 + 0xF9
	.byte	PATT
	 .word	seq_122_0 + 0x108
	.byte	PATT
	 .word	seq_122_0 + 0x125
	.byte		EOT   , An0 
	.byte	PATT
	 .word	seq_122_0 + 0x145
	.byte	PATT
	 .word	seq_122_0 + 0x14E
	.byte	PATT
	 .word	seq_122_0 + 0x173
	.byte		EOT   , Fn1 
	.byte	PATT
	 .word	seq_122_0 + 0x192
	.byte	PATT
	 .word	seq_122_0 + 0x1A0
	.byte	PATT
	 .word	seq_122_0 + 0x1C1
	.byte	W64
	.byte		EOT   , An1 
	.byte	W32
	.byte	PATT
	 .word	seq_122_0 + 0x1E0
	.byte	PATT
	 .word	seq_122_0 + 0x1EE
	.byte	PATT
	 .word	seq_122_0 + 0x20E
	.byte	W56
	.byte	W02
	.byte		EOT   , Gn1 
	.byte	W36
	.byte	W02
	.byte	PATT
	 .word	seq_122_0 + 0x19
	.byte	PATT
	 .word	seq_122_0 + 0x32
	.byte	PATT
	 .word	seq_122_0 + 0x44
	.byte		EOT   , Cn1 
	.byte	W01
	.byte		TIE   , Dn0 , v120
	.byte	W05
	.byte		VOL   , 3*seq_122_mvl/mxv
	.byte	W05
	.byte		        6*seq_122_mvl/mxv
	.byte	W05
	.byte		        10*seq_122_mvl/mxv
	.byte	W05
	.byte	PATT
	 .word	seq_122_0 + 0x70
	.byte	PATT
	 .word	seq_122_0 + 0x94
	.byte		EOT   , Dn0 
	.byte	W48
	.byte	W02
	.byte	W96
	.byte	PATT
	 .word	seq_122_0 + 0xAD
	.byte	PATT
	 .word	seq_122_0 + 0xCA
	.byte	PATT
	 .word	seq_122_0 + 0xE7
	.byte		EOT   , Bn0 
	.byte		VOL   , 0*seq_122_mvl/mxv
	.byte	W68
	.byte	PATT
	 .word	seq_122_0 + 0xF9
	.byte	PATT
	 .word	seq_122_0 + 0x108
	.byte	PATT
	 .word	seq_122_0 + 0x125
	.byte		EOT   , An0 
	.byte	PATT
	 .word	seq_122_0 + 0x145
	.byte	PATT
	 .word	seq_122_0 + 0x14E
	.byte	PATT
	 .word	seq_122_0 + 0x173
	.byte		EOT   , Fn1 
	.byte	PATT
	 .word	seq_122_0 + 0x192
	.byte	PATT
	 .word	seq_122_0 + 0x1A0
	.byte	PATT
	 .word	seq_122_0 + 0x1C1
	.byte	W64
	.byte		EOT   , An1 
	.byte	W32
	.byte	PATT
	 .word	seq_122_0 + 0x1E0
	.byte	PATT
	 .word	seq_122_0 + 0x1EE
	.byte	PATT
	 .word	seq_122_0 + 0x20E
	.byte	W56
	.byte	W02
	.byte		EOT   , Gn1 
	.byte	W36
	.byte	W02
	.byte	PATT
	 .word	seq_122_0 + 0x19
	.byte	PATT
	 .word	seq_122_0 + 0x32
	.byte	PATT
	 .word	seq_122_0 + 0x44
	.byte		EOT   , Cn1 
	.byte	W01
	.byte		TIE   , Dn0 , v120
	.byte	W05
	.byte		VOL   , 3*seq_122_mvl/mxv
	.byte	W05
	.byte		        6*seq_122_mvl/mxv
	.byte	W05
	.byte		        10*seq_122_mvl/mxv
	.byte	W05
	.byte	PATT
	 .word	seq_122_0 + 0x70
	.byte	PATT
	 .word	seq_122_0 + 0x94
	.byte		EOT   , Dn0 
	.byte	W48
	.byte	W02
	.byte	W96
	.byte	PATT
	 .word	seq_122_0 + 0xAD
	.byte	PATT
	 .word	seq_122_0 + 0xCA
	.byte	PATT
	 .word	seq_122_0 + 0xE7
	.byte		EOT   , Bn0 
	.byte		VOL   , 0*seq_122_mvl/mxv
	.byte	W68
	.byte	PATT
	 .word	seq_122_0 + 0xF9
	.byte	PATT
	 .word	seq_122_0 + 0x108
	.byte	PATT
	 .word	seq_122_0 + 0x125
	.byte		EOT   , An0 
	.byte	PATT
	 .word	seq_122_0 + 0x145
	.byte	PATT
	 .word	seq_122_0 + 0x14E
	.byte	PATT
	 .word	seq_122_0 + 0x173
	.byte		EOT   , Fn1 
	.byte	PATT
	 .word	seq_122_0 + 0x192
	.byte	PATT
	 .word	seq_122_0 + 0x1A0
	.byte	PATT
	 .word	seq_122_0 + 0x1C1
	.byte	W64
	.byte		EOT   , An1 
	.byte	W32
	.byte	PATT
	 .word	seq_122_0 + 0x1E0
	.byte	PATT
	 .word	seq_122_0 + 0x1EE
	.byte	PATT
	 .word	seq_122_0 + 0x20E
	.byte	W56
	.byte	W02
	.byte		EOT   , Gn1 
	.byte	W36
	.byte	W02
	.byte	PATT
	 .word	seq_122_0 + 0x19
	.byte	PATT
	 .word	seq_122_0 + 0x32
	.byte	PATT
	 .word	seq_122_0 + 0x44
	.byte		EOT   , Cn1 
	.byte	W01
	.byte		TIE   , Dn0 , v120
	.byte	W05
	.byte		VOL   , 3*seq_122_mvl/mxv
	.byte	W05
	.byte		        6*seq_122_mvl/mxv
	.byte	W05
	.byte		        10*seq_122_mvl/mxv
	.byte	W05
	.byte	PATT
	 .word	seq_122_0 + 0x70
	.byte	PATT
	 .word	seq_122_0 + 0x94
	.byte		EOT   , Dn0 
	.byte	W48
	.byte	W02
	.byte	W96
	.byte	PATT
	 .word	seq_122_0 + 0xAD
	.byte	PATT
	 .word	seq_122_0 + 0xCA
	.byte	PATT
	 .word	seq_122_0 + 0xE7
	.byte		EOT   , Bn0 
	.byte		VOL   , 0*seq_122_mvl/mxv
	.byte	W68
	.byte	PATT
	 .word	seq_122_0 + 0xF9
	.byte	PATT
	 .word	seq_122_0 + 0x108
	.byte	PATT
	 .word	seq_122_0 + 0x125
	.byte		EOT   , An0 
	.byte	PATT
	 .word	seq_122_0 + 0x145
	.byte	PATT
	 .word	seq_122_0 + 0x14E
	.byte	PATT
	 .word	seq_122_0 + 0x173
	.byte		EOT   , Fn1 
	.byte	PATT
	 .word	seq_122_0 + 0x192
	.byte	PATT
	 .word	seq_122_0 + 0x1A0
	.byte	PATT
	 .word	seq_122_0 + 0x1C1
	.byte	W64
	.byte		EOT   , An1 
	.byte	W32
	.byte	PATT
	 .word	seq_122_0 + 0x1E0
	.byte	PATT
	 .word	seq_122_0 + 0x1EE
	.byte	PATT
	 .word	seq_122_0 + 0x20E
	.byte	W56
	.byte	W02
	.byte		EOT   , Gn1 
	.byte	W36
	.byte	W02
	.byte	PATT
	 .word	seq_122_0 + 0x19
	.byte	PATT
	 .word	seq_122_0 + 0x32
	.byte	PATT
	 .word	seq_122_0 + 0x44
	.byte		EOT   , Cn1 
	.byte	W01
	.byte		TIE   , Dn0 , v120
	.byte	W05
	.byte		VOL   , 3*seq_122_mvl/mxv
	.byte	W05
	.byte		        6*seq_122_mvl/mxv
	.byte	W05
	.byte		        10*seq_122_mvl/mxv
	.byte	W05
	.byte	PATT
	 .word	seq_122_0 + 0x70
	.byte	PATT
	 .word	seq_122_0 + 0x94
	.byte		EOT   , Dn0 
	.byte	W48
	.byte	W02
	.byte	W96
	.byte	PATT
	 .word	seq_122_0 + 0xAD
	.byte	PATT
	 .word	seq_122_0 + 0xCA
	.byte	PATT
	 .word	seq_122_0 + 0xE7
	.byte		EOT   , Bn0 
	.byte		VOL   , 0*seq_122_mvl/mxv
	.byte	W68
	.byte	PATT
	 .word	seq_122_0 + 0xF9
	.byte	PATT
	 .word	seq_122_0 + 0x108
	.byte	PATT
	 .word	seq_122_0 + 0x125
	.byte		EOT   , An0 
	.byte	PATT
	 .word	seq_122_0 + 0x145
	.byte	PATT
	 .word	seq_122_0 + 0x14E
	.byte	PATT
	 .word	seq_122_0 + 0x173
	.byte		EOT   , Fn1 
	.byte	PATT
	 .word	seq_122_0 + 0x192
	.byte	PATT
	 .word	seq_122_0 + 0x1A0
	.byte	PATT
	 .word	seq_122_0 + 0x1C1
	.byte	W64
	.byte		EOT   , An1 
	.byte	W32
	.byte	PATT
	 .word	seq_122_0 + 0x1E0
	.byte	PATT
	 .word	seq_122_0 + 0x1EE
	.byte	PATT
	 .word	seq_122_0 + 0x20E
	.byte	W56
	.byte	W02
	.byte		EOT   , Gn1 
	.byte	W36
	.byte	W02
	.byte	PATT
	 .word	seq_122_0 + 0x19
	.byte	PATT
	 .word	seq_122_0 + 0x32
	.byte	PATT
	 .word	seq_122_0 + 0x44
	.byte		EOT   , Cn1 
	.byte	W01
	.byte		TIE   , Dn0 , v120
	.byte	W05
	.byte		VOL   , 3*seq_122_mvl/mxv
	.byte	W05
	.byte		        6*seq_122_mvl/mxv
	.byte	W05
	.byte		        10*seq_122_mvl/mxv
	.byte	W05
	.byte	PATT
	 .word	seq_122_0 + 0x70
	.byte	PATT
	 .word	seq_122_0 + 0x94
	.byte		EOT   , Dn0 
	.byte	W48
	.byte	W02
	.byte	W96
	.byte	PATT
	 .word	seq_122_0 + 0xAD
	.byte	PATT
	 .word	seq_122_0 + 0xCA
	.byte	PATT
	 .word	seq_122_0 + 0xE7
	.byte		EOT   , Bn0 
	.byte		VOL   , 0*seq_122_mvl/mxv
	.byte	W68
	.byte	PATT
	 .word	seq_122_0 + 0xF9
	.byte	PATT
	 .word	seq_122_0 + 0x108
	.byte	PATT
	 .word	seq_122_0 + 0x125
	.byte		EOT   , An0 
	.byte	PATT
	 .word	seq_122_0 + 0x145
	.byte	PATT
	 .word	seq_122_0 + 0x14E
	.byte	PATT
	 .word	seq_122_0 + 0x173
	.byte		EOT   , Fn1 
	.byte	PATT
	 .word	seq_122_0 + 0x192
	.byte	PATT
	 .word	seq_122_0 + 0x1A0
	.byte	PATT
	 .word	seq_122_0 + 0x1C1
	.byte	W64
	.byte		EOT   , An1 
	.byte	W32
	.byte	PATT
	 .word	seq_122_0 + 0x1E0
	.byte	PATT
	 .word	seq_122_0 + 0x1EE
	.byte	PATT
	 .word	seq_122_0 + 0x20E
	.byte	W56
	.byte	W02
	.byte		EOT   , Gn1 
	.byte	W36
	.byte	W02
	.byte	PATT
	 .word	seq_122_0 + 0x19
	.byte	PATT
	 .word	seq_122_0 + 0x32
	.byte	PATT
	 .word	seq_122_0 + 0x44
	.byte		EOT   , Cn1 
	.byte	W01
	.byte		TIE   , Dn0 , v120
	.byte	W05
	.byte		VOL   , 3*seq_122_mvl/mxv
	.byte	W05
	.byte		        6*seq_122_mvl/mxv
	.byte	W05
	.byte		        10*seq_122_mvl/mxv
	.byte	W05
	.byte	PATT
	 .word	seq_122_0 + 0x70
	.byte	PATT
	 .word	seq_122_0 + 0x94
	.byte		EOT   , Dn0 
	.byte	W48
	.byte	W02
	.byte	W96
	.byte	PATT
	 .word	seq_122_0 + 0xAD
	.byte	PATT
	 .word	seq_122_0 + 0xCA
	.byte	PATT
	 .word	seq_122_0 + 0xE7
	.byte		EOT   , Bn0 
	.byte		VOL   , 0*seq_122_mvl/mxv
	.byte	W68
	.byte	PATT
	 .word	seq_122_0 + 0xF9
	.byte	PATT
	 .word	seq_122_0 + 0x108
	.byte	PATT
	 .word	seq_122_0 + 0x125
	.byte		EOT   , An0 
	.byte	PATT
	 .word	seq_122_0 + 0x145
	.byte	PATT
	 .word	seq_122_0 + 0x14E
	.byte	PATT
	 .word	seq_122_0 + 0x173
	.byte		EOT   , Fn1 
	.byte	PATT
	 .word	seq_122_0 + 0x192
	.byte	PATT
	 .word	seq_122_0 + 0x1A0
	.byte	PATT
	 .word	seq_122_0 + 0x1C1
	.byte	W64
	.byte		EOT   , An1 
	.byte	W32
	.byte	PATT
	 .word	seq_122_0 + 0x1E0
	.byte	PATT
	 .word	seq_122_0 + 0x1EE
	.byte	PATT
	 .word	seq_122_0 + 0x20E
	.byte	W56
	.byte	W02
	.byte		EOT   , Gn1 
	.byte	W36
	.byte	W02
	.byte	PATT
	 .word	seq_122_0 + 0x19
	.byte	PATT
	 .word	seq_122_0 + 0x32
	.byte	PATT
	 .word	seq_122_0 + 0x44
	.byte		EOT   , Cn1 
	.byte	W01
	.byte		TIE   , Dn0 , v120
	.byte	W05
	.byte		VOL   , 3*seq_122_mvl/mxv
	.byte	W05
	.byte		        6*seq_122_mvl/mxv
	.byte	W05
	.byte		        10*seq_122_mvl/mxv
	.byte	W05
	.byte	PATT
	 .word	seq_122_0 + 0x70
	.byte	PATT
	 .word	seq_122_0 + 0x94
	.byte		EOT   , Dn0 
	.byte	W48
	.byte	W02
	.byte	W96
	.byte	PATT
	 .word	seq_122_0 + 0xAD
	.byte	PATT
	 .word	seq_122_0 + 0xCA
	.byte	PATT
	 .word	seq_122_0 + 0xE7
	.byte		EOT   , Bn0 
	.byte		VOL   , 0*seq_122_mvl/mxv
	.byte	W68
	.byte	PATT
	 .word	seq_122_0 + 0xF9
	.byte	PATT
	 .word	seq_122_0 + 0x108
	.byte	PATT
	 .word	seq_122_0 + 0x125
	.byte		EOT   , An0 
	.byte	PATT
	 .word	seq_122_0 + 0x145
	.byte	PATT
	 .word	seq_122_0 + 0x14E
	.byte	PATT
	 .word	seq_122_0 + 0x173
	.byte		EOT   , Fn1 
	.byte	PATT
	 .word	seq_122_0 + 0x192
	.byte	PATT
	 .word	seq_122_0 + 0x1A0
	.byte	PATT
	 .word	seq_122_0 + 0x1C1
	.byte	W64
	.byte		EOT   , An1 
	.byte	W32
	.byte	PATT
	 .word	seq_122_0 + 0x1E0
	.byte	PATT
	 .word	seq_122_0 + 0x1EE
	.byte	PATT
	 .word	seq_122_0 + 0x20E
	.byte	W56
	.byte	W02
	.byte		EOT   , Gn1 
	.byte	W36
	.byte	W02
	.byte	PATT
	 .word	seq_122_0 + 0x19
	.byte	PATT
	 .word	seq_122_0 + 0x32
	.byte	PATT
	 .word	seq_122_0 + 0x44
	.byte		EOT   , Cn1 
	.byte	W01
	.byte		TIE   , Dn0 , v120
	.byte	W05
	.byte		VOL   , 3*seq_122_mvl/mxv
	.byte	W05
	.byte		        6*seq_122_mvl/mxv
	.byte	W05
	.byte		        10*seq_122_mvl/mxv
	.byte	W05
	.byte	PATT
	 .word	seq_122_0 + 0x70
	.byte	PATT
	 .word	seq_122_0 + 0x94
	.byte		EOT   , Dn0 
	.byte	W48
	.byte	W02
	.byte	W96
	.byte	PATT
	 .word	seq_122_0 + 0xAD
	.byte	PATT
	 .word	seq_122_0 + 0xCA
	.byte	PATT
	 .word	seq_122_0 + 0xE7
	.byte		EOT   , Bn0 
	.byte		VOL   , 0*seq_122_mvl/mxv
	.byte	W68
	.byte	PATT
	 .word	seq_122_0 + 0xF9
	.byte	PATT
	 .word	seq_122_0 + 0x108
	.byte	PATT
	 .word	seq_122_0 + 0x125
	.byte		EOT   , An0 
	.byte	PATT
	 .word	seq_122_0 + 0x145
	.byte	PATT
	 .word	seq_122_0 + 0x14E
	.byte	PATT
	 .word	seq_122_0 + 0x173
	.byte		EOT   , Fn1 
	.byte	PATT
	 .word	seq_122_0 + 0x192
	.byte	PATT
	 .word	seq_122_0 + 0x1A0
	.byte	PATT
	 .word	seq_122_0 + 0x1C1
	.byte	W64
	.byte		EOT   , An1 
	.byte	W32
	.byte	PATT
	 .word	seq_122_0 + 0x1E0
	.byte	PATT
	 .word	seq_122_0 + 0x1EE
	.byte	PATT
	 .word	seq_122_0 + 0x20E
	.byte	W56
	.byte	W02
	.byte		EOT   , Gn1 
	.byte	W36
	.byte	W02
	.byte	W96
	.byte	GOTO
	 .word	seq_122_0 + 0x19
	.byte	FINE

@*********************** Track 02 ***********************@

seq_122_1:
	.byte	KEYSH , seq_122_key+0
	.byte		VOICE , 44
	.byte	W01
	.byte		VOL   , 51*seq_122_mvl/mxv
	.byte	W01
	.byte		PAN   , c_v-64
	.byte	W01
	.byte		LFOS  , 30
	.byte	W01
	.byte		MODT  , mod_vib
	.byte	W01
	.byte		BENDR , 12
	.byte	W19
	.byte	W96
	.byte	W96
	.byte	W96
	.byte	W96
	.byte	W96
	.byte	W96
	.byte	W96
	.byte	W72
	.byte		TIE   , AnM1, v100
	.byte	W01
	.byte		VOL   , 0*seq_122_mvl/mxv
	.byte	W07
	.byte		        4*seq_122_mvl/mxv
	.byte	W04
	.byte		BEND  , c_v+3
	.byte	W02
	.byte		        c_v+6
	.byte	W01
	.byte		VOL   , 7*seq_122_mvl/mxv
	.byte	W02
	.byte		BEND  , c_v+11
	.byte	W02
	.byte		        c_v+13
	.byte	W03
	.byte		        c_v+17
	.byte	W01
	.byte		VOL   , 12*seq_122_mvl/mxv
	.byte	W01
	.byte	PEND
	.byte		BEND  , c_v+19
	.byte	W02
	.byte		        c_v+22
	.byte	W03
	.byte		        c_v+26
	.byte	W01
	.byte		VOL   , 15*seq_122_mvl/mxv
	.byte	W01
	.byte		BEND  , c_v+29
	.byte	W03
	.byte		        c_v+32
	.byte	W03
	.byte		VOL   , 19*seq_122_mvl/mxv
	.byte	W05
	.byte		BEND  , c_v+37
	.byte	W01
	.byte		VOL   , 22*seq_122_mvl/mxv
	.byte	W01
	.byte		BEND  , c_v+38
	.byte	W02
	.byte		        c_v+41
	.byte	W03
	.byte		        c_v+43
	.byte	W01
	.byte		VOL   , 25*seq_122_mvl/mxv
	.byte	W01
	.byte		BEND  , c_v+45
	.byte	W02
	.byte		        c_v+46
	.byte	W03
	.byte		        c_v+48
	.byte	W01
	.byte		VOL   , 29*seq_122_mvl/mxv
	.byte	W01
	.byte		BEND  , c_v+51
	.byte	W03
	.byte		        c_v+53
	.byte	W02
	.byte		        c_v+55
	.byte	W01
	.byte		VOL   , 32*seq_122_mvl/mxv
	.byte	W02
	.byte		BEND  , c_v+58
	.byte	W02
	.byte		        c_v+60
	.byte	W02
	.byte		VOL   , 36*seq_122_mvl/mxv
	.byte	W02
	.byte		BEND  , c_v+63
	.byte	W05
	.byte		VOL   , 39*seq_122_mvl/mxv
	.byte	W07
	.byte		        43*seq_122_mvl/mxv
	.byte	W08
	.byte		        47*seq_122_mvl/mxv
	.byte	W07
	.byte		        51*seq_122_mvl/mxv
	.byte	W21
	.byte	PEND
	.byte	W24
	.byte	W01
	.byte		BEND  , c_v+61
	.byte	W06
	.byte		        c_v+59
	.byte	W04
	.byte		        c_v+57
	.byte	W03
	.byte		        c_v+55
	.byte	W03
	.byte		        c_v+53
	.byte	W05
	.byte		        c_v+51
	.byte	W03
	.byte		        c_v+49
	.byte	W04
	.byte		        c_v+47
	.byte	W08
	.byte		        c_v+45
	.byte	W07
	.byte		        c_v+43
	.byte	W06
	.byte		        c_v+41
	.byte	W05
	.byte		        c_v+39
	.byte	W04
	.byte		        c_v+37
	.byte	W07
	.byte		        c_v+35
	.byte	W04
	.byte		        c_v+33
	.byte	W02
	.byte	PEND
	.byte	W02
	.byte		BEND  , c_v+31
	.byte	W08
	.byte		        c_v+29
	.byte	W08
	.byte		        c_v+27
	.byte	W03
	.byte		        c_v+25
	.byte	W04
	.byte		        c_v+23
	.byte	W04
	.byte		        c_v+21
	.byte	W08
	.byte		        c_v+19
	.byte	W07
	.byte		        c_v+17
	.byte	W05
	.byte		        c_v+15
	.byte	W04
	.byte		        c_v+13
	.byte	W09
	.byte		        c_v+10
	.byte	W05
	.byte		        c_v+8
	.byte	W01
	.byte		VOL   , 48*seq_122_mvl/mxv
	.byte	W02
	.byte		BEND  , c_v+6
	.byte	W03
	.byte		        c_v+3
	.byte	W01
	.byte		VOL   , 45*seq_122_mvl/mxv
	.byte	W02
	.byte		BEND  , c_v+1
	.byte	W03
	.byte		        c_v+0
	.byte	W01
	.byte		VOL   , 41*seq_122_mvl/mxv
	.byte	W06
	.byte		        38*seq_122_mvl/mxv
	.byte	W06
	.byte		        34*seq_122_mvl/mxv
	.byte	W04
	.byte	PEND
	.byte	W02
	.byte		VOL   , 31*seq_122_mvl/mxv
	.byte	W06
	.byte		        27*seq_122_mvl/mxv
	.byte	W06
	.byte		        24*seq_122_mvl/mxv
	.byte	W06
	.byte		        20*seq_122_mvl/mxv
	.byte	W06
	.byte		        17*seq_122_mvl/mxv
	.byte	W07
	.byte		        13*seq_122_mvl/mxv
	.byte	W06
	.byte		        10*seq_122_mvl/mxv
	.byte	W06
	.byte		        6*seq_122_mvl/mxv
	.byte	W06
	.byte		        3*seq_122_mvl/mxv
	.byte	W06
	.byte		        0*seq_122_mvl/mxv
	.byte	W03
	.byte	PEND
	.byte		EOT   , AnM1
	.byte	W36
	.byte	W96
	.byte	W96
	.byte	W96
	.byte	W96
	.byte	W96
	.byte	W96
	.byte	W96
	.byte	W24
	.byte		TIE   , AnM1, v100
	.byte	W01
	.byte		VOL   , 0*seq_122_mvl/mxv
	.byte	W07
	.byte		        4*seq_122_mvl/mxv
	.byte	W04
	.byte		BEND  , c_v+3
	.byte	W02
	.byte		        c_v+6
	.byte	W01
	.byte		VOL   , 7*seq_122_mvl/mxv
	.byte	W02
	.byte		BEND  , c_v+11
	.byte	W02
	.byte		        c_v+13
	.byte	W03
	.byte		        c_v+17
	.byte	W01
	.byte		VOL   , 12*seq_122_mvl/mxv
	.byte	W01
	.byte		BEND  , c_v+19
	.byte	W02
	.byte		        c_v+22
	.byte	W03
	.byte		        c_v+26
	.byte	W01
	.byte		VOL   , 15*seq_122_mvl/mxv
	.byte	W01
	.byte		BEND  , c_v+29
	.byte	W03
	.byte		        c_v+32
	.byte	W03
	.byte		VOL   , 19*seq_122_mvl/mxv
	.byte	W05
	.byte		BEND  , c_v+37
	.byte	W01
	.byte		VOL   , 22*seq_122_mvl/mxv
	.byte	W01
	.byte		BEND  , c_v+38
	.byte	W02
	.byte		        c_v+41
	.byte	W03
	.byte		        c_v+43
	.byte	W01
	.byte		VOL   , 25*seq_122_mvl/mxv
	.byte	W01
	.byte		BEND  , c_v+45
	.byte	W02
	.byte		        c_v+46
	.byte	W03
	.byte		        c_v+48
	.byte	W01
	.byte		VOL   , 29*seq_122_mvl/mxv
	.byte	W01
	.byte		BEND  , c_v+51
	.byte	W03
	.byte		        c_v+53
	.byte	W02
	.byte		        c_v+55
	.byte	W01
	.byte		VOL   , 32*seq_122_mvl/mxv
	.byte	W02
	.byte		BEND  , c_v+58
	.byte	W02
	.byte		        c_v+60
	.byte	W02
	.byte		VOL   , 36*seq_122_mvl/mxv
	.byte	W02
	.byte	PEND
	.byte		BEND  , c_v+63
	.byte	W05
	.byte		VOL   , 39*seq_122_mvl/mxv
	.byte	W07
	.byte		        43*seq_122_mvl/mxv
	.byte	W08
	.byte		        47*seq_122_mvl/mxv
	.byte	W07
	.byte		        51*seq_122_mvl/mxv
	.byte	W44
	.byte	W02
	.byte		BEND  , c_v+61
	.byte	W06
	.byte		        c_v+59
	.byte	W04
	.byte		        c_v+57
	.byte	W03
	.byte		        c_v+55
	.byte	W03
	.byte		        c_v+53
	.byte	W05
	.byte		        c_v+51
	.byte	W02
	.byte	PEND
	.byte	W01
	.byte		BEND  , c_v+49
	.byte	W04
	.byte		        c_v+47
	.byte	W08
	.byte		        c_v+45
	.byte	W07
	.byte		        c_v+43
	.byte	W06
	.byte		        c_v+41
	.byte	W05
	.byte		        c_v+39
	.byte	W04
	.byte		        c_v+37
	.byte	W07
	.byte		        c_v+35
	.byte	W04
	.byte		        c_v+33
	.byte	W04
	.byte		        c_v+31
	.byte	W08
	.byte		        c_v+29
	.byte	W08
	.byte		        c_v+27
	.byte	W03
	.byte		        c_v+25
	.byte	W04
	.byte		        c_v+23
	.byte	W04
	.byte		        c_v+21
	.byte	W08
	.byte		        c_v+19
	.byte	W07
	.byte		        c_v+17
	.byte	W04
	.byte	PEND
	.byte	W01
	.byte		BEND  , c_v+15
	.byte	W04
	.byte		        c_v+13
	.byte	W09
	.byte		        c_v+10
	.byte	W05
	.byte		        c_v+8
	.byte	W01
	.byte		VOL   , 48*seq_122_mvl/mxv
	.byte	W02
	.byte		BEND  , c_v+6
	.byte	W03
	.byte		        c_v+3
	.byte	W01
	.byte		VOL   , 45*seq_122_mvl/mxv
	.byte	W02
	.byte		BEND  , c_v+1
	.byte	W03
	.byte		        c_v+0
	.byte	W01
	.byte		VOL   , 41*seq_122_mvl/mxv
	.byte	W06
	.byte		        38*seq_122_mvl/mxv
	.byte	W06
	.byte		        34*seq_122_mvl/mxv
	.byte	W06
	.byte		        31*seq_122_mvl/mxv
	.byte	W06
	.byte		        27*seq_122_mvl/mxv
	.byte	W06
	.byte		        24*seq_122_mvl/mxv
	.byte	W06
	.byte		        20*seq_122_mvl/mxv
	.byte	W06
	.byte		        17*seq_122_mvl/mxv
	.byte	W07
	.byte		        13*seq_122_mvl/mxv
	.byte	W06
	.byte		        10*seq_122_mvl/mxv
	.byte	W06
	.byte		        6*seq_122_mvl/mxv
	.byte	W03
	.byte	PEND
	.byte	W03
	.byte		VOL   , 3*seq_122_mvl/mxv
	.byte	W06
	.byte		        0*seq_122_mvl/mxv
	.byte	W03
	.byte	PEND
	.byte		EOT   , AnM1
	.byte	W84
	.byte	W96
	.byte	W96
	.byte	W96
	.byte	W96
	.byte	W96
	.byte	W96
	.byte	PATT
	 .word	seq_122_1 + 0x1B
	.byte	PATT
	 .word	seq_122_1 + 0x38
	.byte	PATT
	 .word	seq_122_1 + 0x83
	.byte	PATT
	 .word	seq_122_1 + 0xA5
	.byte	PATT
	 .word	seq_122_1 + 0xD7
	.byte		EOT   , AnM1
	.byte	W36
	.byte	W96
	.byte	W96
	.byte	W96
	.byte	W96
	.byte	W96
	.byte	W96
	.byte	W96
	.byte	PATT
	 .word	seq_122_1 + 0xF8
	.byte	PATT
	 .word	seq_122_1 + 0x153
	.byte	PATT
	 .word	seq_122_1 + 0x16E
	.byte	PATT
	 .word	seq_122_1 + 0x193
	.byte	PATT
	 .word	seq_122_1 + 0x1C5
	.byte		EOT   , AnM1
	.byte	W84
	.byte	W96
	.byte	W96
	.byte	W96
	.byte	W96
	.byte	W96
	.byte	W96
	.byte	PATT
	 .word	seq_122_1 + 0x1B
	.byte	PATT
	 .word	seq_122_1 + 0x38
	.byte	PATT
	 .word	seq_122_1 + 0x83
	.byte	PATT
	 .word	seq_122_1 + 0xA5
	.byte	PATT
	 .word	seq_122_1 + 0xD7
	.byte		EOT   , AnM1
	.byte	W36
	.byte	W96
	.byte	W96
	.byte	W96
	.byte	W96
	.byte	W96
	.byte	W96
	.byte	W96
	.byte	PATT
	 .word	seq_122_1 + 0xF8
	.byte	PATT
	 .word	seq_122_1 + 0x153
	.byte	PATT
	 .word	seq_122_1 + 0x16E
	.byte	PATT
	 .word	seq_122_1 + 0x193
	.byte	PATT
	 .word	seq_122_1 + 0x1C5
	.byte		EOT   , AnM1
	.byte	W84
	.byte	W96
	.byte	W96
	.byte	W96
	.byte	W96
	.byte	W96
	.byte	W96
	.byte	PATT
	 .word	seq_122_1 + 0x1B
	.byte	PATT
	 .word	seq_122_1 + 0x38
	.byte	PATT
	 .word	seq_122_1 + 0x83
	.byte	PATT
	 .word	seq_122_1 + 0xA5
	.byte	PATT
	 .word	seq_122_1 + 0xD7
	.byte		EOT   , AnM1
	.byte	W36
	.byte	W96
	.byte	W96
	.byte	W96
	.byte	W96
	.byte	W96
	.byte	W96
	.byte	W96
	.byte	PATT
	 .word	seq_122_1 + 0xF8
	.byte	PATT
	 .word	seq_122_1 + 0x153
	.byte	PATT
	 .word	seq_122_1 + 0x16E
	.byte	PATT
	 .word	seq_122_1 + 0x193
	.byte	PATT
	 .word	seq_122_1 + 0x1C5
	.byte		EOT   , AnM1
	.byte	W84
	.byte	W96
	.byte	W96
	.byte	W96
	.byte	W96
	.byte	W96
	.byte	W96
	.byte	PATT
	 .word	seq_122_1 + 0x1B
	.byte	PATT
	 .word	seq_122_1 + 0x38
	.byte	PATT
	 .word	seq_122_1 + 0x83
	.byte	PATT
	 .word	seq_122_1 + 0xA5
	.byte	PATT
	 .word	seq_122_1 + 0xD7
	.byte		EOT   , AnM1
	.byte	W36
	.byte	W96
	.byte	W96
	.byte	W96
	.byte	W96
	.byte	W96
	.byte	W96
	.byte	W96
	.byte	PATT
	 .word	seq_122_1 + 0xF8
	.byte	PATT
	 .word	seq_122_1 + 0x153
	.byte	PATT
	 .word	seq_122_1 + 0x16E
	.byte	PATT
	 .word	seq_122_1 + 0x193
	.byte	PATT
	 .word	seq_122_1 + 0x1C5
	.byte		EOT   , AnM1
	.byte	W84
	.byte	W96
	.byte	W96
	.byte	W96
	.byte	W96
	.byte	W96
	.byte	W96
	.byte	PATT
	 .word	seq_122_1 + 0x1B
	.byte	PATT
	 .word	seq_122_1 + 0x38
	.byte	PATT
	 .word	seq_122_1 + 0x83
	.byte	PATT
	 .word	seq_122_1 + 0xA5
	.byte	PATT
	 .word	seq_122_1 + 0xD7
	.byte		EOT   , AnM1
	.byte	W36
	.byte	W96
	.byte	W96
	.byte	W96
	.byte	W96
	.byte	W96
	.byte	W96
	.byte	W96
	.byte	PATT
	 .word	seq_122_1 + 0xF8
	.byte	PATT
	 .word	seq_122_1 + 0x153
	.byte	PATT
	 .word	seq_122_1 + 0x16E
	.byte	PATT
	 .word	seq_122_1 + 0x193
	.byte	PATT
	 .word	seq_122_1 + 0x1C5
	.byte		EOT   , AnM1
	.byte	W84
	.byte	W96
	.byte	W96
	.byte	W96
	.byte	W96
	.byte	W96
	.byte	W96
	.byte	PATT
	 .word	seq_122_1 + 0x1B
	.byte	PATT
	 .word	seq_122_1 + 0x38
	.byte	PATT
	 .word	seq_122_1 + 0x83
	.byte	PATT
	 .word	seq_122_1 + 0xA5
	.byte	PATT
	 .word	seq_122_1 + 0xD7
	.byte		EOT   , AnM1
	.byte	W36
	.byte	W96
	.byte	W96
	.byte	W96
	.byte	W96
	.byte	W96
	.byte	W96
	.byte	W96
	.byte	PATT
	 .word	seq_122_1 + 0xF8
	.byte	PATT
	 .word	seq_122_1 + 0x153
	.byte	PATT
	 .word	seq_122_1 + 0x16E
	.byte	PATT
	 .word	seq_122_1 + 0x193
	.byte	PATT
	 .word	seq_122_1 + 0x1C5
	.byte		EOT   , AnM1
	.byte	W84
	.byte	W96
	.byte	W96
	.byte	W96
	.byte	W96
	.byte	W96
	.byte	W96
	.byte	PATT
	 .word	seq_122_1 + 0x1B
	.byte	PATT
	 .word	seq_122_1 + 0x38
	.byte	PATT
	 .word	seq_122_1 + 0x83
	.byte	PATT
	 .word	seq_122_1 + 0xA5
	.byte	PATT
	 .word	seq_122_1 + 0xD7
	.byte		EOT   , AnM1
	.byte	W36
	.byte	W96
	.byte	W96
	.byte	W96
	.byte	W96
	.byte	W96
	.byte	W96
	.byte	W96
	.byte	PATT
	 .word	seq_122_1 + 0xF8
	.byte	PATT
	 .word	seq_122_1 + 0x153
	.byte	PATT
	 .word	seq_122_1 + 0x16E
	.byte	PATT
	 .word	seq_122_1 + 0x193
	.byte	PATT
	 .word	seq_122_1 + 0x1C5
	.byte		EOT   , AnM1
	.byte	W84
	.byte	W96
	.byte	W96
	.byte	W96
	.byte	W96
	.byte	W96
	.byte	W96
	.byte	PATT
	 .word	seq_122_1 + 0x1B
	.byte	PATT
	 .word	seq_122_1 + 0x38
	.byte	PATT
	 .word	seq_122_1 + 0x83
	.byte	PATT
	 .word	seq_122_1 + 0xA5
	.byte	PATT
	 .word	seq_122_1 + 0xD7
	.byte		EOT   , AnM1
	.byte	W36
	.byte	W96
	.byte	W96
	.byte	W96
	.byte	W96
	.byte	W96
	.byte	W96
	.byte	W96
	.byte	PATT
	 .word	seq_122_1 + 0xF8
	.byte	PATT
	 .word	seq_122_1 + 0x153
	.byte	PATT
	 .word	seq_122_1 + 0x16E
	.byte	PATT
	 .word	seq_122_1 + 0x193
	.byte	PATT
	 .word	seq_122_1 + 0x1C5
	.byte		EOT   , AnM1
	.byte	W84
	.byte	W96
	.byte	W96
	.byte	W96
	.byte	W96
	.byte	W96
	.byte	W96
	.byte	PATT
	 .word	seq_122_1 + 0x1B
	.byte	PATT
	 .word	seq_122_1 + 0x38
	.byte	PATT
	 .word	seq_122_1 + 0x83
	.byte	PATT
	 .word	seq_122_1 + 0xA5
	.byte	PATT
	 .word	seq_122_1 + 0xD7
	.byte		EOT   , AnM1
	.byte	W36
	.byte	W96
	.byte	W96
	.byte	W96
	.byte	W96
	.byte	W96
	.byte	W96
	.byte	W96
	.byte	PATT
	 .word	seq_122_1 + 0xF8
	.byte	PATT
	 .word	seq_122_1 + 0x153
	.byte	PATT
	 .word	seq_122_1 + 0x16E
	.byte	PATT
	 .word	seq_122_1 + 0x193
	.byte	PATT
	 .word	seq_122_1 + 0x1C5
	.byte		EOT   , AnM1
	.byte	W84
	.byte	W96
	.byte	W96
	.byte	W96
	.byte	W96
	.byte	W96
	.byte	W96
	.byte	PATT
	 .word	seq_122_1 + 0x1B
	.byte	PATT
	 .word	seq_122_1 + 0x38
	.byte	PATT
	 .word	seq_122_1 + 0x83
	.byte	PATT
	 .word	seq_122_1 + 0xA5
	.byte	PATT
	 .word	seq_122_1 + 0xD7
	.byte		EOT   , AnM1
	.byte	W36
	.byte	W96
	.byte	W96
	.byte	W96
	.byte	W96
	.byte	W96
	.byte	W96
	.byte	W96
	.byte	PATT
	 .word	seq_122_1 + 0xF8
	.byte	PATT
	 .word	seq_122_1 + 0x153
	.byte	PATT
	 .word	seq_122_1 + 0x16E
	.byte	PATT
	 .word	seq_122_1 + 0x193
	.byte	PATT
	 .word	seq_122_1 + 0x1C5
	.byte		EOT   , AnM1
	.byte	W84
	.byte	W96
	.byte	W96
	.byte	W96
	.byte	W96
	.byte	W96
	.byte	W96
	.byte	PATT
	 .word	seq_122_1 + 0x1B
	.byte	PATT
	 .word	seq_122_1 + 0x38
	.byte	PATT
	 .word	seq_122_1 + 0x83
	.byte	PATT
	 .word	seq_122_1 + 0xA5
	.byte	PATT
	 .word	seq_122_1 + 0xD7
	.byte		EOT   , AnM1
	.byte	W36
	.byte	W96
	.byte	W96
	.byte	W96
	.byte	W96
	.byte	W96
	.byte	W96
	.byte	W96
	.byte	PATT
	 .word	seq_122_1 + 0xF8
	.byte	PATT
	 .word	seq_122_1 + 0x153
	.byte	PATT
	 .word	seq_122_1 + 0x16E
	.byte	PATT
	 .word	seq_122_1 + 0x193
	.byte	PATT
	 .word	seq_122_1 + 0x1C5
	.byte		EOT   , AnM1
	.byte	W84
	.byte	W96
	.byte	W96
	.byte	W96
	.byte	W96
	.byte	W96
	.byte	W96
	.byte	PATT
	 .word	seq_122_1 + 0x1B
	.byte	PATT
	 .word	seq_122_1 + 0x38
	.byte	PATT
	 .word	seq_122_1 + 0x83
	.byte	PATT
	 .word	seq_122_1 + 0xA5
	.byte	PATT
	 .word	seq_122_1 + 0xD7
	.byte		EOT   , AnM1
	.byte	W36
	.byte	W96
	.byte	W96
	.byte	W96
	.byte	W96
	.byte	W96
	.byte	W96
	.byte	W96
	.byte	PATT
	 .word	seq_122_1 + 0xF8
	.byte	PATT
	 .word	seq_122_1 + 0x153
	.byte	PATT
	 .word	seq_122_1 + 0x16E
	.byte	PATT
	 .word	seq_122_1 + 0x193
	.byte	PATT
	 .word	seq_122_1 + 0x1C5
	.byte		EOT   , AnM1
	.byte	W84
	.byte	W96
	.byte	W96
	.byte	W96
	.byte	W96
	.byte	W96
	.byte	W96
	.byte	PATT
	 .word	seq_122_1 + 0x1B
	.byte	PATT
	 .word	seq_122_1 + 0x38
	.byte	PATT
	 .word	seq_122_1 + 0x83
	.byte	PATT
	 .word	seq_122_1 + 0xA5
	.byte	PATT
	 .word	seq_122_1 + 0xD7
	.byte		EOT   , AnM1
	.byte	W36
	.byte	W96
	.byte	W96
	.byte	W96
	.byte	W96
	.byte	W96
	.byte	W96
	.byte	W96
	.byte	PATT
	 .word	seq_122_1 + 0xF8
	.byte	PATT
	 .word	seq_122_1 + 0x153
	.byte	PATT
	 .word	seq_122_1 + 0x16E
	.byte	PATT
	 .word	seq_122_1 + 0x193
	.byte	PATT
	 .word	seq_122_1 + 0x1C5
	.byte		EOT   , AnM1
	.byte	W84
	.byte	W96
	.byte	W96
	.byte	W96
	.byte	W96
	.byte	W96
	.byte	W96
	.byte	PATT
	 .word	seq_122_1 + 0x1B
	.byte	PATT
	 .word	seq_122_1 + 0x38
	.byte	PATT
	 .word	seq_122_1 + 0x83
	.byte	PATT
	 .word	seq_122_1 + 0xA5
	.byte	PATT
	 .word	seq_122_1 + 0xD7
	.byte		EOT   , AnM1
	.byte	W36
	.byte	W96
	.byte	W96
	.byte	W96
	.byte	W96
	.byte	W96
	.byte	W96
	.byte	W96
	.byte	PATT
	 .word	seq_122_1 + 0xF8
	.byte	PATT
	 .word	seq_122_1 + 0x153
	.byte	PATT
	 .word	seq_122_1 + 0x16E
	.byte	PATT
	 .word	seq_122_1 + 0x193
	.byte	PATT
	 .word	seq_122_1 + 0x1C5
	.byte		EOT   , AnM1
	.byte	W84
	.byte	W96
	.byte	W96
	.byte	W96
	.byte	W96
	.byte	W96
	.byte	W96
	.byte	PATT
	 .word	seq_122_1 + 0x1B
	.byte	PATT
	 .word	seq_122_1 + 0x38
	.byte	PATT
	 .word	seq_122_1 + 0x83
	.byte	PATT
	 .word	seq_122_1 + 0xA5
	.byte	PATT
	 .word	seq_122_1 + 0xD7
	.byte		EOT   , AnM1
	.byte	W36
	.byte	W96
	.byte	W96
	.byte	W96
	.byte	W96
	.byte	W96
	.byte	W96
	.byte	W96
	.byte	PATT
	 .word	seq_122_1 + 0xF8
	.byte	PATT
	 .word	seq_122_1 + 0x153
	.byte	PATT
	 .word	seq_122_1 + 0x16E
	.byte	PATT
	 .word	seq_122_1 + 0x193
	.byte	PATT
	 .word	seq_122_1 + 0x1C5
	.byte		EOT   , AnM1
	.byte	W84
	.byte	GOTO
	 .word	seq_122_1 + 0x14
	.byte	FINE

@*********************** Track 03 ***********************@

seq_122_2:
	.byte	KEYSH , seq_122_key+0
	.byte		VOICE , 44
	.byte	W01
	.byte		VOL   , 0*seq_122_mvl/mxv
	.byte	W01
	.byte		PAN   , c_v+0
	.byte	W01
	.byte		LFOS  , 100
	.byte	W01
	.byte		MODT  , mod_pan
	.byte	W01
	.byte		MOD   , 0
	.byte	W19
	.byte		TIE   , Gs0 , v120
	.byte	W02
	.byte		VOL   , 0*seq_122_mvl/mxv
	.byte	W01
	.byte		        1*seq_122_mvl/mxv
	.byte	W01
	.byte		        2*seq_122_mvl/mxv
	.byte	W01
	.byte		        3*seq_122_mvl/mxv
	.byte	W01
	.byte		        4*seq_122_mvl/mxv
	.byte	W01
	.byte		        5*seq_122_mvl/mxv
	.byte	W01
	.byte		        6*seq_122_mvl/mxv
	.byte	W01
	.byte		        6*seq_122_mvl/mxv
	.byte	W01
	.byte		        7*seq_122_mvl/mxv
	.byte	W01
	.byte		        8*seq_122_mvl/mxv
	.byte	W01
	.byte		        9*seq_122_mvl/mxv
	.byte	W01
	.byte		        10*seq_122_mvl/mxv
	.byte	W01
	.byte		        11*seq_122_mvl/mxv
	.byte	W01
	.byte		        12*seq_122_mvl/mxv
	.byte	W01
	.byte		        12*seq_122_mvl/mxv
	.byte	W01
	.byte		        14*seq_122_mvl/mxv
	.byte	W01
	.byte		        15*seq_122_mvl/mxv
	.byte	W01
	.byte		        16*seq_122_mvl/mxv
	.byte	W01
	.byte		        17*seq_122_mvl/mxv
	.byte	W01
	.byte		        18*seq_122_mvl/mxv
	.byte	W01
	.byte		        19*seq_122_mvl/mxv
	.byte	W01
	.byte		        19*seq_122_mvl/mxv
	.byte	W01
	.byte		        20*seq_122_mvl/mxv
	.byte	W01
	.byte		        21*seq_122_mvl/mxv
	.byte	W01
	.byte		        22*seq_122_mvl/mxv
	.byte	W01
	.byte		        23*seq_122_mvl/mxv
	.byte	W01
	.byte		        24*seq_122_mvl/mxv
	.byte	W01
	.byte		        25*seq_122_mvl/mxv
	.byte	W01
	.byte		        25*seq_122_mvl/mxv
	.byte	W66
	.byte	W96
	.byte	W96
	.byte	W96
	.byte	W96
	.byte	W96
	.byte	W96
	.byte	W96
	.byte	W96
	.byte	W96
	.byte	W96
	.byte	W96
	.byte	W96
	.byte	W96
	.byte	W96
	.byte	W96
	.byte	W96
	.byte	W96
	.byte	W96
	.byte	W96
	.byte	W96
	.byte	W96
	.byte	W96
	.byte	W96
	.byte	W96
	.byte	W96
	.byte	W96
	.byte	W96
	.byte	W96
	.byte	W96
	.byte	W96
	.byte	W96
	.byte	W96
	.byte	W96
	.byte	W96
	.byte	W96
	.byte	W96
	.byte	W96
	.byte	W96
	.byte	W96
	.byte	W96
	.byte	W96
	.byte	W96
	.byte	W96
	.byte	W96
	.byte	W96
	.byte	W96
	.byte	W96
	.byte	W96
	.byte	W96
	.byte	W96
	.byte	W96
	.byte	W96
	.byte	W96
	.byte	W96
	.byte	W96
	.byte	W96
	.byte	W96
	.byte	W96
	.byte	W96
	.byte	W96
	.byte	W96
	.byte	W96
	.byte	W96
	.byte	W96
	.byte	W96
	.byte	W96
	.byte	W96
	.byte	W96
	.byte	W96
	.byte	W96
	.byte	W96
	.byte	W96
	.byte	W96
	.byte	W96
	.byte	W96
	.byte	W96
	.byte	W96
	.byte	W96
	.byte	W96
	.byte	W96
	.byte	W96
	.byte	W96
	.byte	W96
	.byte	W96
	.byte	W96
	.byte	W96
	.byte	W96
	.byte	W96
	.byte	W96
	.byte	W96
	.byte	W96
	.byte	W96
	.byte	W96
	.byte	W96
	.byte	W96
	.byte	W96
	.byte	W96
	.byte	W96
	.byte	W96
	.byte	W96
	.byte	W96
	.byte	W96
	.byte	W96
	.byte	W96
	.byte	W96
	.byte	W96
	.byte	W96
	.byte	W96
	.byte	W96
	.byte	W96
	.byte	W96
	.byte	W96
	.byte	W96
	.byte	W96
	.byte	W96
	.byte	W96
	.byte	W96
	.byte	W96
	.byte	W96
	.byte	W96
	.byte	W96
	.byte	W96
	.byte	W96
	.byte	W96
	.byte	W96
	.byte	W96
	.byte	W96
	.byte	W96
	.byte	W96
	.byte	W96
	.byte	W96
	.byte	W96
	.byte	W96
	.byte	W96
	.byte	W96
	.byte	W96
	.byte	W96
	.byte	W96
	.byte	W96
	.byte	W96
	.byte	W96
	.byte	W96
	.byte	W96
	.byte	W96
	.byte	W96
	.byte	W96
	.byte	W96
	.byte	W96
	.byte	W96
	.byte	W96
	.byte	W96
	.byte	W96
	.byte	W96
	.byte	W96
	.byte	W96
	.byte	W96
	.byte	W96
	.byte	W96
	.byte	W96
	.byte	W96
	.byte	W96
	.byte	W96
	.byte	W96
	.byte	W96
	.byte	W96
	.byte	W96
	.byte	W96
	.byte	W96
	.byte	W96
	.byte	W96
	.byte	W96
	.byte	W96
	.byte	W96
	.byte	W96
	.byte	W96
	.byte	W96
	.byte	W96
	.byte	W96
	.byte	W96
	.byte	W96
	.byte	W96
	.byte	W96
	.byte	W96
	.byte	W96
	.byte	W96
	.byte	W96
	.byte	W96
	.byte	W96
	.byte	W96
	.byte	W96
	.byte	W96
	.byte	W96
	.byte	W96
	.byte	W96
	.byte	W96
	.byte	W96
	.byte	W96
	.byte	W96
	.byte	W96
	.byte	W96
	.byte	W96
	.byte	W96
	.byte	W96
	.byte	W96
	.byte	W96
	.byte	W96
	.byte	W96
	.byte	W96
	.byte	W96
	.byte	W96
	.byte	W96
	.byte	W96
	.byte	W96
	.byte	W96
	.byte	W96
	.byte	W96
	.byte	W96
	.byte	W96
	.byte	W96
	.byte	W96
	.byte	W96
	.byte	W96
	.byte	W96
	.byte	W96
	.byte	W96
	.byte	W96
	.byte	W96
	.byte	W96
	.byte	W96
	.byte	W96
	.byte	W96
	.byte	W96
	.byte	W96
	.byte	W96
	.byte	W96
	.byte	W96
	.byte	W96
	.byte	W96
	.byte	W96
	.byte	W96
	.byte	W96
	.byte	W96
	.byte	W96
	.byte	W96
	.byte	W96
	.byte	W96
	.byte	W96
	.byte	W96
	.byte	W96
	.byte	W96
	.byte	W96
	.byte	W96
	.byte	W96
	.byte	W96
	.byte	W96
	.byte	W96
	.byte	W96
	.byte	W96
	.byte	W96
	.byte	W96
	.byte	W96
	.byte	W96
	.byte	W96
	.byte	W96
	.byte	W96
	.byte	W96
	.byte	W96
	.byte	W96
	.byte	W96
	.byte	W96
	.byte	W96
	.byte	W96
	.byte	W96
	.byte	W96
	.byte	W96
	.byte	W96
	.byte	W96
	.byte	W96
	.byte	W96
	.byte	W96
	.byte	W96
	.byte	W96
	.byte	W96
	.byte	W96
	.byte	W96
	.byte	W96
	.byte	W96
	.byte	W96
	.byte	W96
	.byte	W96
	.byte	W96
	.byte	W96
	.byte	W96
	.byte	W96
	.byte	W96
	.byte	W96
	.byte	W96
	.byte	W96
	.byte	W96
	.byte	W96
	.byte	W96
	.byte	W96
	.byte	W96
	.byte	W96
	.byte	W96
	.byte	W96
	.byte	W96
	.byte	W96
	.byte	W96
	.byte	W96
	.byte	W96
	.byte	W96
	.byte	W96
	.byte	W96
	.byte	W96
	.byte	W96
	.byte	W96
	.byte	W96
	.byte	W96
	.byte	W96
	.byte	W96
	.byte	W96
	.byte	W96
	.byte	W96
	.byte	W96
	.byte	W96
	.byte	W96
	.byte	W96
	.byte	W96
	.byte	W96
	.byte	W96
	.byte	W96
	.byte	W96
	.byte	W96
	.byte	W96
	.byte	W96
	.byte	W96
	.byte	W96
	.byte	W96
	.byte	W96
	.byte	W96
	.byte	W96
	.byte	W96
	.byte	W96
	.byte	W96
	.byte	W96
	.byte	W96
	.byte	W96
	.byte	W96
	.byte	W96
	.byte	W96
	.byte	W96
	.byte	W96
	.byte	W96
	.byte	W96
	.byte	W96
	.byte	W96
	.byte	W96
	.byte	W96
	.byte	W96
	.byte	W96
	.byte	W96
	.byte	W96
	.byte	W96
	.byte	W96
	.byte	W96
	.byte	W96
	.byte	W44
	.byte		        25*seq_122_mvl/mxv
	.byte	W02
	.byte		        24*seq_122_mvl/mxv
	.byte	W01
	.byte		        23*seq_122_mvl/mxv
	.byte	W02
	.byte		        22*seq_122_mvl/mxv
	.byte	W01
	.byte		        21*seq_122_mvl/mxv
	.byte	W02
	.byte		        20*seq_122_mvl/mxv
	.byte	W01
	.byte		        19*seq_122_mvl/mxv
	.byte	W02
	.byte		        19*seq_122_mvl/mxv
	.byte	W01
	.byte		        18*seq_122_mvl/mxv
	.byte	W02
	.byte		        17*seq_122_mvl/mxv
	.byte	W01
	.byte		        16*seq_122_mvl/mxv
	.byte	W02
	.byte		        15*seq_122_mvl/mxv
	.byte	W01
	.byte		        14*seq_122_mvl/mxv
	.byte	W02
	.byte		        13*seq_122_mvl/mxv
	.byte	W01
	.byte		        12*seq_122_mvl/mxv
	.byte	W02
	.byte		        12*seq_122_mvl/mxv
	.byte	W01
	.byte		        11*seq_122_mvl/mxv
	.byte	W02
	.byte		        10*seq_122_mvl/mxv
	.byte	W01
	.byte		        9*seq_122_mvl/mxv
	.byte	W02
	.byte		        8*seq_122_mvl/mxv
	.byte	W01
	.byte		        7*seq_122_mvl/mxv
	.byte	W02
	.byte		        6*seq_122_mvl/mxv
	.byte	W01
	.byte		        6*seq_122_mvl/mxv
	.byte	W02
	.byte		        5*seq_122_mvl/mxv
	.byte	W01
	.byte		        4*seq_122_mvl/mxv
	.byte	W02
	.byte		        3*seq_122_mvl/mxv
	.byte	W01
	.byte		        2*seq_122_mvl/mxv
	.byte	W02
	.byte		        1*seq_122_mvl/mxv
	.byte	W01
	.byte		        0*seq_122_mvl/mxv
	.byte	W02
	.byte		        0*seq_122_mvl/mxv
	.byte	W08
	.byte		EOT
	.byte	GOTO
	 .word	seq_122_2 + 0x14
	.byte	FINE

@*********************** Track 04 ***********************@

seq_122_3:
	.byte	KEYSH , seq_122_key+0
	.byte	W06
	.byte		VOICE , 44
	.byte	W01
	.byte		VOL   , 25*seq_122_mvl/mxv
	.byte	W01
	.byte		PAN   , c_v+63
	.byte	W01
	.byte		LFOS  , 40
	.byte	W01
	.byte		MODT  , mod_pan
	.byte	W01
	.byte		MOD   , 0
	.byte	W13
	.byte	W96
	.byte	W96
	.byte	W96
	.byte	W96
	.byte	W96
	.byte	W96
	.byte	W96
	.byte	W72
	.byte	W02
	.byte		TIE   , FsM1, v120
	.byte	W01
	.byte		VOL   , 0*seq_122_mvl/mxv
	.byte	W07
	.byte		        4*seq_122_mvl/mxv
	.byte	W04
	.byte		BEND  , c_v+3
	.byte	W02
	.byte		        c_v+6
	.byte	W03
	.byte		        c_v+11
	.byte	W02
	.byte		        c_v+13
	.byte	W01
	.byte		VOL   , 10*seq_122_mvl/mxv
	.byte	W02
	.byte	PEND
	.byte		BEND  , c_v+17
	.byte	W02
	.byte		        c_v+19
	.byte	W02
	.byte		        c_v+22
	.byte	W01
	.byte		VOL   , 13*seq_122_mvl/mxv
	.byte	W02
	.byte		BEND  , c_v+26
	.byte	W02
	.byte		        c_v+29
	.byte	W02
	.byte		VOL   , 17*seq_122_mvl/mxv
	.byte	W01
	.byte		BEND  , c_v+32
	.byte	W06
	.byte		VOL   , 20*seq_122_mvl/mxv
	.byte	W02
	.byte		BEND  , c_v+37
	.byte	W02
	.byte		        c_v+38
	.byte	W02
	.byte		        c_v+41
	.byte	W01
	.byte		VOL   , 24*seq_122_mvl/mxv
	.byte	W02
	.byte		BEND  , c_v+43
	.byte	W02
	.byte		        c_v+45
	.byte	W02
	.byte		        c_v+46
	.byte	W01
	.byte		VOL   , 27*seq_122_mvl/mxv
	.byte	W02
	.byte		BEND  , c_v+48
	.byte	W02
	.byte		        c_v+51
	.byte	W02
	.byte		VOL   , 31*seq_122_mvl/mxv
	.byte	W01
	.byte		BEND  , c_v+53
	.byte	W02
	.byte		        c_v+55
	.byte	W03
	.byte		        c_v+58
	.byte	W01
	.byte		VOL   , 34*seq_122_mvl/mxv
	.byte	W01
	.byte		BEND  , c_v+60
	.byte	W04
	.byte		        c_v+63
	.byte	W02
	.byte		VOL   , 38*seq_122_mvl/mxv
	.byte	W07
	.byte		        41*seq_122_mvl/mxv
	.byte	W06
	.byte		        45*seq_122_mvl/mxv
	.byte	W07
	.byte		        48*seq_122_mvl/mxv
	.byte	W07
	.byte		        51*seq_122_mvl/mxv
	.byte	W17
	.byte	PEND
	.byte	W24
	.byte	W03
	.byte		BEND  , c_v+61
	.byte	W06
	.byte		        c_v+59
	.byte	W04
	.byte		        c_v+57
	.byte	W03
	.byte		        c_v+55
	.byte	W03
	.byte		        c_v+53
	.byte	W05
	.byte		        c_v+51
	.byte	W03
	.byte		        c_v+49
	.byte	W04
	.byte		        c_v+47
	.byte	W08
	.byte		        c_v+45
	.byte	W07
	.byte		        c_v+43
	.byte	W06
	.byte		        c_v+41
	.byte	W05
	.byte		        c_v+39
	.byte	W04
	.byte		        c_v+37
	.byte	W07
	.byte		        c_v+35
	.byte	W04
	.byte	PEND
	.byte		BEND  , c_v+33
	.byte	W04
	.byte		        c_v+31
	.byte	W08
	.byte		        c_v+29
	.byte	W08
	.byte		        c_v+27
	.byte	W03
	.byte		        c_v+25
	.byte	W04
	.byte		        c_v+23
	.byte	W04
	.byte		        c_v+21
	.byte	W08
	.byte		        c_v+19
	.byte	W07
	.byte		        c_v+17
	.byte	W05
	.byte		        c_v+15
	.byte	W04
	.byte		        c_v+13
	.byte	W09
	.byte		        c_v+10
	.byte	W05
	.byte		        c_v+8
	.byte	W01
	.byte		VOL   , 48*seq_122_mvl/mxv
	.byte	W02
	.byte		BEND  , c_v+6
	.byte	W03
	.byte		        c_v+3
	.byte	W01
	.byte		VOL   , 45*seq_122_mvl/mxv
	.byte	W02
	.byte		BEND  , c_v+1
	.byte	W03
	.byte		        c_v+0
	.byte	W01
	.byte		VOL   , 41*seq_122_mvl/mxv
	.byte	W06
	.byte		        38*seq_122_mvl/mxv
	.byte	W06
	.byte		        34*seq_122_mvl/mxv
	.byte	W02
	.byte	PEND
	.byte	W04
	.byte		VOL   , 31*seq_122_mvl/mxv
	.byte	W06
	.byte		        27*seq_122_mvl/mxv
	.byte	W06
	.byte		        24*seq_122_mvl/mxv
	.byte	W06
	.byte		        20*seq_122_mvl/mxv
	.byte	W06
	.byte		        17*seq_122_mvl/mxv
	.byte	W07
	.byte		        13*seq_122_mvl/mxv
	.byte	W06
	.byte		        10*seq_122_mvl/mxv
	.byte	W06
	.byte		        6*seq_122_mvl/mxv
	.byte	W06
	.byte		        3*seq_122_mvl/mxv
	.byte	W06
	.byte		        0*seq_122_mvl/mxv
	.byte	W03
	.byte	PEND
	.byte		EOT   , FsM1
	.byte	W32
	.byte	W02
	.byte	W96
	.byte	W96
	.byte	W96
	.byte	W96
	.byte	W96
	.byte	W96
	.byte	W96
	.byte	W24
	.byte	W02
	.byte		TIE   , FsM1, v120
	.byte	W01
	.byte		VOL   , 0*seq_122_mvl/mxv
	.byte	W07
	.byte		        4*seq_122_mvl/mxv
	.byte	W04
	.byte		BEND  , c_v+3
	.byte	W02
	.byte		        c_v+6
	.byte	W03
	.byte		        c_v+11
	.byte	W02
	.byte		        c_v+13
	.byte	W01
	.byte		VOL   , 10*seq_122_mvl/mxv
	.byte	W02
	.byte		BEND  , c_v+17
	.byte	W02
	.byte		        c_v+19
	.byte	W02
	.byte		        c_v+22
	.byte	W01
	.byte		VOL   , 13*seq_122_mvl/mxv
	.byte	W02
	.byte		BEND  , c_v+26
	.byte	W02
	.byte		        c_v+29
	.byte	W02
	.byte		VOL   , 17*seq_122_mvl/mxv
	.byte	W01
	.byte		BEND  , c_v+32
	.byte	W06
	.byte		VOL   , 20*seq_122_mvl/mxv
	.byte	W02
	.byte		BEND  , c_v+37
	.byte	W02
	.byte		        c_v+38
	.byte	W02
	.byte		        c_v+41
	.byte	W01
	.byte		VOL   , 24*seq_122_mvl/mxv
	.byte	W02
	.byte		BEND  , c_v+43
	.byte	W02
	.byte		        c_v+45
	.byte	W02
	.byte		        c_v+46
	.byte	W01
	.byte		VOL   , 27*seq_122_mvl/mxv
	.byte	W02
	.byte		BEND  , c_v+48
	.byte	W02
	.byte		        c_v+51
	.byte	W02
	.byte		VOL   , 31*seq_122_mvl/mxv
	.byte	W01
	.byte		BEND  , c_v+53
	.byte	W02
	.byte		        c_v+55
	.byte	W03
	.byte		        c_v+58
	.byte	W01
	.byte		VOL   , 34*seq_122_mvl/mxv
	.byte	W01
	.byte		BEND  , c_v+60
	.byte	W02
	.byte	PEND
	.byte	W02
	.byte		BEND  , c_v+63
	.byte	W02
	.byte		VOL   , 38*seq_122_mvl/mxv
	.byte	W07
	.byte		        41*seq_122_mvl/mxv
	.byte	W06
	.byte		        45*seq_122_mvl/mxv
	.byte	W07
	.byte		        48*seq_122_mvl/mxv
	.byte	W07
	.byte		        51*seq_122_mvl/mxv
	.byte	W44
	.byte		BEND  , c_v+61
	.byte	W06
	.byte		        c_v+59
	.byte	W04
	.byte		        c_v+57
	.byte	W03
	.byte		        c_v+55
	.byte	W03
	.byte		        c_v+53
	.byte	W05
	.byte	PEND
	.byte		BEND  , c_v+51
	.byte	W03
	.byte		        c_v+49
	.byte	W04
	.byte		        c_v+47
	.byte	W08
	.byte		        c_v+45
	.byte	W07
	.byte		        c_v+43
	.byte	W06
	.byte		        c_v+41
	.byte	W05
	.byte		        c_v+39
	.byte	W04
	.byte		        c_v+37
	.byte	W07
	.byte		        c_v+35
	.byte	W04
	.byte		        c_v+33
	.byte	W04
	.byte		        c_v+31
	.byte	W08
	.byte		        c_v+29
	.byte	W08
	.byte		        c_v+27
	.byte	W03
	.byte		        c_v+25
	.byte	W04
	.byte		        c_v+23
	.byte	W04
	.byte		        c_v+21
	.byte	W08
	.byte		        c_v+19
	.byte	W07
	.byte		        c_v+17
	.byte	W02
	.byte	PEND
	.byte	W03
	.byte		BEND  , c_v+15
	.byte	W04
	.byte		        c_v+13
	.byte	W09
	.byte		        c_v+10
	.byte	W05
	.byte		        c_v+8
	.byte	W01
	.byte		VOL   , 48*seq_122_mvl/mxv
	.byte	W02
	.byte		BEND  , c_v+6
	.byte	W03
	.byte		        c_v+3
	.byte	W01
	.byte		VOL   , 45*seq_122_mvl/mxv
	.byte	W02
	.byte		BEND  , c_v+1
	.byte	W03
	.byte		        c_v+0
	.byte	W01
	.byte		VOL   , 41*seq_122_mvl/mxv
	.byte	W06
	.byte		        38*seq_122_mvl/mxv
	.byte	W06
	.byte		        34*seq_122_mvl/mxv
	.byte	W06
	.byte		        31*seq_122_mvl/mxv
	.byte	W06
	.byte		        27*seq_122_mvl/mxv
	.byte	W06
	.byte		        24*seq_122_mvl/mxv
	.byte	W06
	.byte		        20*seq_122_mvl/mxv
	.byte	W06
	.byte		        17*seq_122_mvl/mxv
	.byte	W07
	.byte		        13*seq_122_mvl/mxv
	.byte	W06
	.byte		        10*seq_122_mvl/mxv
	.byte	W06
	.byte		        6*seq_122_mvl/mxv
	.byte	W01
	.byte	PEND
	.byte	W05
	.byte		VOL   , 3*seq_122_mvl/mxv
	.byte	W06
	.byte		        0*seq_122_mvl/mxv
	.byte	W03
	.byte	PEND
	.byte		EOT   , FsM1
	.byte	W80
	.byte	W02
	.byte	W96
	.byte	W96
	.byte	W96
	.byte	W96
	.byte	W96
	.byte	W96
	.byte	PATT
	 .word	seq_122_3 + 0x1C
	.byte	PATT
	 .word	seq_122_3 + 0x34
	.byte	PATT
	 .word	seq_122_3 + 0x83
	.byte	PATT
	 .word	seq_122_3 + 0xA3
	.byte	PATT
	 .word	seq_122_3 + 0xD6
	.byte		EOT   , FsM1
	.byte	W32
	.byte	W02
	.byte	W96
	.byte	W96
	.byte	W96
	.byte	W96
	.byte	W96
	.byte	W96
	.byte	W96
	.byte	PATT
	 .word	seq_122_3 + 0xF8
	.byte	PATT
	 .word	seq_122_3 + 0x151
	.byte	PATT
	 .word	seq_122_3 + 0x16C
	.byte	PATT
	 .word	seq_122_3 + 0x192
	.byte	PATT
	 .word	seq_122_3 + 0x1C4
	.byte		EOT   , FsM1
	.byte	W80
	.byte	W02
	.byte	W96
	.byte	W96
	.byte	W96
	.byte	W96
	.byte	W96
	.byte	W96
	.byte	PATT
	 .word	seq_122_3 + 0x1C
	.byte	PATT
	 .word	seq_122_3 + 0x34
	.byte	PATT
	 .word	seq_122_3 + 0x83
	.byte	PATT
	 .word	seq_122_3 + 0xA3
	.byte	PATT
	 .word	seq_122_3 + 0xD6
	.byte		EOT   , FsM1
	.byte	W32
	.byte	W02
	.byte	W96
	.byte	W96
	.byte	W96
	.byte	W96
	.byte	W96
	.byte	W96
	.byte	W96
	.byte	PATT
	 .word	seq_122_3 + 0xF8
	.byte	PATT
	 .word	seq_122_3 + 0x151
	.byte	PATT
	 .word	seq_122_3 + 0x16C
	.byte	PATT
	 .word	seq_122_3 + 0x192
	.byte	PATT
	 .word	seq_122_3 + 0x1C4
	.byte		EOT   , FsM1
	.byte	W80
	.byte	W02
	.byte	W96
	.byte	W96
	.byte	W96
	.byte	W96
	.byte	W96
	.byte	W96
	.byte	PATT
	 .word	seq_122_3 + 0x1C
	.byte	PATT
	 .word	seq_122_3 + 0x34
	.byte	PATT
	 .word	seq_122_3 + 0x83
	.byte	PATT
	 .word	seq_122_3 + 0xA3
	.byte	PATT
	 .word	seq_122_3 + 0xD6
	.byte		EOT   , FsM1
	.byte	W32
	.byte	W02
	.byte	W96
	.byte	W96
	.byte	W96
	.byte	W96
	.byte	W96
	.byte	W96
	.byte	W96
	.byte	PATT
	 .word	seq_122_3 + 0xF8
	.byte	PATT
	 .word	seq_122_3 + 0x151
	.byte	PATT
	 .word	seq_122_3 + 0x16C
	.byte	PATT
	 .word	seq_122_3 + 0x192
	.byte	PATT
	 .word	seq_122_3 + 0x1C4
	.byte		EOT   , FsM1
	.byte	W80
	.byte	W02
	.byte	W96
	.byte	W96
	.byte	W96
	.byte	W96
	.byte	W96
	.byte	W96
	.byte	PATT
	 .word	seq_122_3 + 0x1C
	.byte	PATT
	 .word	seq_122_3 + 0x34
	.byte	PATT
	 .word	seq_122_3 + 0x83
	.byte	PATT
	 .word	seq_122_3 + 0xA3
	.byte	PATT
	 .word	seq_122_3 + 0xD6
	.byte		EOT   , FsM1
	.byte	W32
	.byte	W02
	.byte	W96
	.byte	W96
	.byte	W96
	.byte	W96
	.byte	W96
	.byte	W96
	.byte	W96
	.byte	PATT
	 .word	seq_122_3 + 0xF8
	.byte	PATT
	 .word	seq_122_3 + 0x151
	.byte	PATT
	 .word	seq_122_3 + 0x16C
	.byte	PATT
	 .word	seq_122_3 + 0x192
	.byte	PATT
	 .word	seq_122_3 + 0x1C4
	.byte		EOT   , FsM1
	.byte	W80
	.byte	W02
	.byte	W96
	.byte	W96
	.byte	W96
	.byte	W96
	.byte	W96
	.byte	W96
	.byte	PATT
	 .word	seq_122_3 + 0x1C
	.byte	PATT
	 .word	seq_122_3 + 0x34
	.byte	PATT
	 .word	seq_122_3 + 0x83
	.byte	PATT
	 .word	seq_122_3 + 0xA3
	.byte	PATT
	 .word	seq_122_3 + 0xD6
	.byte		EOT   , FsM1
	.byte	W32
	.byte	W02
	.byte	W96
	.byte	W96
	.byte	W96
	.byte	W96
	.byte	W96
	.byte	W96
	.byte	W96
	.byte	PATT
	 .word	seq_122_3 + 0xF8
	.byte	PATT
	 .word	seq_122_3 + 0x151
	.byte	PATT
	 .word	seq_122_3 + 0x16C
	.byte	PATT
	 .word	seq_122_3 + 0x192
	.byte	PATT
	 .word	seq_122_3 + 0x1C4
	.byte		EOT   , FsM1
	.byte	W80
	.byte	W02
	.byte	W96
	.byte	W96
	.byte	W96
	.byte	W96
	.byte	W96
	.byte	W96
	.byte	PATT
	 .word	seq_122_3 + 0x1C
	.byte	PATT
	 .word	seq_122_3 + 0x34
	.byte	PATT
	 .word	seq_122_3 + 0x83
	.byte	PATT
	 .word	seq_122_3 + 0xA3
	.byte	PATT
	 .word	seq_122_3 + 0xD6
	.byte		EOT   , FsM1
	.byte	W32
	.byte	W02
	.byte	W96
	.byte	W96
	.byte	W96
	.byte	W96
	.byte	W96
	.byte	W96
	.byte	W96
	.byte	PATT
	 .word	seq_122_3 + 0xF8
	.byte	PATT
	 .word	seq_122_3 + 0x151
	.byte	PATT
	 .word	seq_122_3 + 0x16C
	.byte	PATT
	 .word	seq_122_3 + 0x192
	.byte	PATT
	 .word	seq_122_3 + 0x1C4
	.byte		EOT   , FsM1
	.byte	W80
	.byte	W02
	.byte	W96
	.byte	W96
	.byte	W96
	.byte	W96
	.byte	W96
	.byte	W96
	.byte	PATT
	 .word	seq_122_3 + 0x1C
	.byte	PATT
	 .word	seq_122_3 + 0x34
	.byte	PATT
	 .word	seq_122_3 + 0x83
	.byte	PATT
	 .word	seq_122_3 + 0xA3
	.byte	PATT
	 .word	seq_122_3 + 0xD6
	.byte		EOT   , FsM1
	.byte	W32
	.byte	W02
	.byte	W96
	.byte	W96
	.byte	W96
	.byte	W96
	.byte	W96
	.byte	W96
	.byte	W96
	.byte	PATT
	 .word	seq_122_3 + 0xF8
	.byte	PATT
	 .word	seq_122_3 + 0x151
	.byte	PATT
	 .word	seq_122_3 + 0x16C
	.byte	PATT
	 .word	seq_122_3 + 0x192
	.byte	PATT
	 .word	seq_122_3 + 0x1C4
	.byte		EOT   , FsM1
	.byte	W80
	.byte	W02
	.byte	W96
	.byte	W96
	.byte	W96
	.byte	W96
	.byte	W96
	.byte	W96
	.byte	PATT
	 .word	seq_122_3 + 0x1C
	.byte	PATT
	 .word	seq_122_3 + 0x34
	.byte	PATT
	 .word	seq_122_3 + 0x83
	.byte	PATT
	 .word	seq_122_3 + 0xA3
	.byte	PATT
	 .word	seq_122_3 + 0xD6
	.byte		EOT   , FsM1
	.byte	W32
	.byte	W02
	.byte	W96
	.byte	W96
	.byte	W96
	.byte	W96
	.byte	W96
	.byte	W96
	.byte	W96
	.byte	PATT
	 .word	seq_122_3 + 0xF8
	.byte	PATT
	 .word	seq_122_3 + 0x151
	.byte	PATT
	 .word	seq_122_3 + 0x16C
	.byte	PATT
	 .word	seq_122_3 + 0x192
	.byte	PATT
	 .word	seq_122_3 + 0x1C4
	.byte		EOT   , FsM1
	.byte	W80
	.byte	W02
	.byte	W96
	.byte	W96
	.byte	W96
	.byte	W96
	.byte	W96
	.byte	W96
	.byte	PATT
	 .word	seq_122_3 + 0x1C
	.byte	PATT
	 .word	seq_122_3 + 0x34
	.byte	PATT
	 .word	seq_122_3 + 0x83
	.byte	PATT
	 .word	seq_122_3 + 0xA3
	.byte	PATT
	 .word	seq_122_3 + 0xD6
	.byte		EOT   , FsM1
	.byte	W32
	.byte	W02
	.byte	W96
	.byte	W96
	.byte	W96
	.byte	W96
	.byte	W96
	.byte	W96
	.byte	W96
	.byte	PATT
	 .word	seq_122_3 + 0xF8
	.byte	PATT
	 .word	seq_122_3 + 0x151
	.byte	PATT
	 .word	seq_122_3 + 0x16C
	.byte	PATT
	 .word	seq_122_3 + 0x192
	.byte	PATT
	 .word	seq_122_3 + 0x1C4
	.byte		EOT   , FsM1
	.byte	W80
	.byte	W02
	.byte	W96
	.byte	W96
	.byte	W96
	.byte	W96
	.byte	W96
	.byte	W96
	.byte	PATT
	 .word	seq_122_3 + 0x1C
	.byte	PATT
	 .word	seq_122_3 + 0x34
	.byte	PATT
	 .word	seq_122_3 + 0x83
	.byte	PATT
	 .word	seq_122_3 + 0xA3
	.byte	PATT
	 .word	seq_122_3 + 0xD6
	.byte		EOT   , FsM1
	.byte	W32
	.byte	W02
	.byte	W96
	.byte	W96
	.byte	W96
	.byte	W96
	.byte	W96
	.byte	W96
	.byte	W96
	.byte	PATT
	 .word	seq_122_3 + 0xF8
	.byte	PATT
	 .word	seq_122_3 + 0x151
	.byte	PATT
	 .word	seq_122_3 + 0x16C
	.byte	PATT
	 .word	seq_122_3 + 0x192
	.byte	PATT
	 .word	seq_122_3 + 0x1C4
	.byte		EOT   , FsM1
	.byte	W80
	.byte	W02
	.byte	W96
	.byte	W96
	.byte	W96
	.byte	W96
	.byte	W96
	.byte	W96
	.byte	PATT
	 .word	seq_122_3 + 0x1C
	.byte	PATT
	 .word	seq_122_3 + 0x34
	.byte	PATT
	 .word	seq_122_3 + 0x83
	.byte	PATT
	 .word	seq_122_3 + 0xA3
	.byte	PATT
	 .word	seq_122_3 + 0xD6
	.byte		EOT   , FsM1
	.byte	W32
	.byte	W02
	.byte	W96
	.byte	W96
	.byte	W96
	.byte	W96
	.byte	W96
	.byte	W96
	.byte	W96
	.byte	PATT
	 .word	seq_122_3 + 0xF8
	.byte	PATT
	 .word	seq_122_3 + 0x151
	.byte	PATT
	 .word	seq_122_3 + 0x16C
	.byte	PATT
	 .word	seq_122_3 + 0x192
	.byte	PATT
	 .word	seq_122_3 + 0x1C4
	.byte		EOT   , FsM1
	.byte	W80
	.byte	W02
	.byte	W96
	.byte	W96
	.byte	W96
	.byte	W96
	.byte	W96
	.byte	W96
	.byte	PATT
	 .word	seq_122_3 + 0x1C
	.byte	PATT
	 .word	seq_122_3 + 0x34
	.byte	PATT
	 .word	seq_122_3 + 0x83
	.byte	PATT
	 .word	seq_122_3 + 0xA3
	.byte	PATT
	 .word	seq_122_3 + 0xD6
	.byte		EOT   , FsM1
	.byte	W32
	.byte	W02
	.byte	W96
	.byte	W96
	.byte	W96
	.byte	W96
	.byte	W96
	.byte	W96
	.byte	W96
	.byte	PATT
	 .word	seq_122_3 + 0xF8
	.byte	PATT
	 .word	seq_122_3 + 0x151
	.byte	PATT
	 .word	seq_122_3 + 0x16C
	.byte	PATT
	 .word	seq_122_3 + 0x192
	.byte	PATT
	 .word	seq_122_3 + 0x1C4
	.byte		EOT   , FsM1
	.byte	W80
	.byte	W02
	.byte	W96
	.byte	W96
	.byte	W96
	.byte	W96
	.byte	W96
	.byte	W96
	.byte	PATT
	 .word	seq_122_3 + 0x1C
	.byte	PATT
	 .word	seq_122_3 + 0x34
	.byte	PATT
	 .word	seq_122_3 + 0x83
	.byte	PATT
	 .word	seq_122_3 + 0xA3
	.byte	PATT
	 .word	seq_122_3 + 0xD6
	.byte		EOT   , FsM1
	.byte	W32
	.byte	W02
	.byte	W96
	.byte	W96
	.byte	W96
	.byte	W96
	.byte	W96
	.byte	W96
	.byte	W96
	.byte	PATT
	 .word	seq_122_3 + 0xF8
	.byte	PATT
	 .word	seq_122_3 + 0x151
	.byte	PATT
	 .word	seq_122_3 + 0x16C
	.byte	PATT
	 .word	seq_122_3 + 0x192
	.byte	PATT
	 .word	seq_122_3 + 0x1C4
	.byte		EOT   , FsM1
	.byte	W80
	.byte	W02
	.byte	W96
	.byte	W96
	.byte	W96
	.byte	W96
	.byte	W96
	.byte	W96
	.byte	PATT
	 .word	seq_122_3 + 0x1C
	.byte	PATT
	 .word	seq_122_3 + 0x34
	.byte	PATT
	 .word	seq_122_3 + 0x83
	.byte	PATT
	 .word	seq_122_3 + 0xA3
	.byte	PATT
	 .word	seq_122_3 + 0xD6
	.byte		EOT   , FsM1
	.byte	W32
	.byte	W02
	.byte	W96
	.byte	W96
	.byte	W96
	.byte	W96
	.byte	W96
	.byte	W96
	.byte	W96
	.byte	PATT
	 .word	seq_122_3 + 0xF8
	.byte	PATT
	 .word	seq_122_3 + 0x151
	.byte	PATT
	 .word	seq_122_3 + 0x16C
	.byte	PATT
	 .word	seq_122_3 + 0x192
	.byte	PATT
	 .word	seq_122_3 + 0x1C4
	.byte		EOT   , FsM1
	.byte	W80
	.byte	W02
	.byte	W96
	.byte	W96
	.byte	W96
	.byte	W96
	.byte	W96
	.byte	W96
	.byte	PATT
	 .word	seq_122_3 + 0x1C
	.byte	PATT
	 .word	seq_122_3 + 0x34
	.byte	PATT
	 .word	seq_122_3 + 0x83
	.byte	PATT
	 .word	seq_122_3 + 0xA3
	.byte	PATT
	 .word	seq_122_3 + 0xD6
	.byte		EOT   , FsM1
	.byte	W32
	.byte	W02
	.byte	W96
	.byte	W96
	.byte	W96
	.byte	W96
	.byte	W96
	.byte	W96
	.byte	W96
	.byte	PATT
	 .word	seq_122_3 + 0xF8
	.byte	PATT
	 .word	seq_122_3 + 0x151
	.byte	PATT
	 .word	seq_122_3 + 0x16C
	.byte	PATT
	 .word	seq_122_3 + 0x192
	.byte	PATT
	 .word	seq_122_3 + 0x1C4
	.byte		EOT   , FsM1
	.byte	W80
	.byte	W02
	.byte	GOTO
	 .word	seq_122_3 + 0x15
	.byte	FINE

@*********************** Track 05 ***********************@

seq_122_4:
	.byte	KEYSH , seq_122_key+0
	.byte		VOICE , 27
	.byte	W01
	.byte		VOL   , 8*seq_122_mvl/mxv
	.byte	W01
	.byte		PAN   , c_v+0
	.byte	W01
	.byte		LFOS  , 80
	.byte	W01
	.byte		MODT  , mod_pan
	.byte	W01
	.byte		BENDR , 18
	.byte	W19
	.byte	W96
	.byte		N02   , Cn6 , v120
	.byte	W02
	.byte		N01   , Cn5 , v060
	.byte	W02
	.byte		VOL   , 9*seq_122_mvl/mxv
	.byte	W14
	.byte		N02   , As4 , v120
	.byte	W01
	.byte		VOL   , 12*seq_122_mvl/mxv
	.byte	W01
	.byte		N01   , As3 , v060
	.byte	W13
	.byte		VOL   , 16*seq_122_mvl/mxv
	.byte	W03
	.byte		N02   , En5 , v120
	.byte	W02
	.byte		N01   , En4 , v060
	.byte	W10
	.byte		VOL   , 19*seq_122_mvl/mxv
	.byte	W06
	.byte		N02   , Cn5 , v120
	.byte	W02
	.byte		N01   , Cn4 , v060
	.byte	W06
	.byte		VOL   , 23*seq_122_mvl/mxv
	.byte	W10
	.byte		N02   , As5 , v120
	.byte	W02
	.byte		N01   , As4 , v060
	.byte	W03
	.byte		VOL   , 26*seq_122_mvl/mxv
	.byte	W13
	.byte		N02   , As4 , v120
	.byte	W01
	.byte		VOL   , 30*seq_122_mvl/mxv
	.byte	W01
	.byte		N01   , As3 , v060
	.byte	W04
	.byte	PEND
	.byte	W10
	.byte		VOL   , 33*seq_122_mvl/mxv
	.byte	W02
	.byte		N02   , Fs5 , v120
	.byte	W02
	.byte		N01   , Fs4 , v060
	.byte	W10
	.byte		VOL   , 37*seq_122_mvl/mxv
	.byte	W06
	.byte		N02   , Gs4 , v120
	.byte	W02
	.byte		N01   , Gs3 , v060
	.byte	W07
	.byte		VOL   , 40*seq_122_mvl/mxv
	.byte	W09
	.byte		N02   , As5 , v120
	.byte	W02
	.byte		N01   , As4 , v060
	.byte	W03
	.byte		VOL   , 44*seq_122_mvl/mxv
	.byte	W13
	.byte		N02   , Cn5 , v120
	.byte	W01
	.byte		VOL   , 40*seq_122_mvl/mxv
	.byte	W01
	.byte		N01   , Cn4 , v060
	.byte	W13
	.byte		VOL   , 37*seq_122_mvl/mxv
	.byte	W03
	.byte		N02   , Cn6 , v120
	.byte	W02
	.byte		N01   , Cn5 , v060
	.byte	W09
	.byte		VOL   , 33*seq_122_mvl/mxv
	.byte	W01
	.byte	PEND
	.byte	W06
	.byte		N02   , As4 , v120
	.byte	W02
	.byte		N01   , As3 , v060
	.byte	W05
	.byte		VOL   , 30*seq_122_mvl/mxv
	.byte	W11
	.byte		N02   , En5 , v120
	.byte	W02
	.byte		N01   , En4 , v060
	.byte	W01
	.byte		VOL   , 26*seq_122_mvl/mxv
	.byte	W14
	.byte		        23*seq_122_mvl/mxv
	.byte	W01
	.byte		N02   , Cn5 , v120
	.byte	W02
	.byte		N01   , Cn4 , v060
	.byte	W11
	.byte		VOL   , 19*seq_122_mvl/mxv
	.byte	W05
	.byte		N02   , Fs5 , v120
	.byte	W02
	.byte		N01   , Fs4 , v060
	.byte	W07
	.byte		VOL   , 16*seq_122_mvl/mxv
	.byte	W09
	.byte		N02   , Fs4 , v120
	.byte	W02
	.byte		N01   , Fs3 , v060
	.byte	W03
	.byte		VOL   , 12*seq_122_mvl/mxv
	.byte	W13
	.byte	PEND
	.byte	W48
	.byte		N02   , Cn6 , v120
	.byte	W02
	.byte		N01   , Cn5 , v060
	.byte	W02
	.byte		VOL   , 9*seq_122_mvl/mxv
	.byte	W14
	.byte		N02   , As4 , v120
	.byte	W01
	.byte		VOL   , 12*seq_122_mvl/mxv
	.byte	W01
	.byte		N01   , As3 , v060
	.byte	W13
	.byte		VOL   , 16*seq_122_mvl/mxv
	.byte	W03
	.byte		N02   , En5 , v120
	.byte	W02
	.byte		N01   , En4 , v060
	.byte	W10
	.byte	PEND
	.byte		VOL   , 19*seq_122_mvl/mxv
	.byte	W06
	.byte		N02   , Cn5 , v120
	.byte	W02
	.byte		N01   , Cn4 , v060
	.byte	W06
	.byte		VOL   , 23*seq_122_mvl/mxv
	.byte	W10
	.byte		N02   , As5 , v120
	.byte	W02
	.byte		N01   , As4 , v060
	.byte	W03
	.byte		VOL   , 26*seq_122_mvl/mxv
	.byte	W13
	.byte		N02   , As4 , v120
	.byte	W01
	.byte		VOL   , 30*seq_122_mvl/mxv
	.byte	W01
	.byte		N01   , As3 , v060
	.byte	W14
	.byte		VOL   , 33*seq_122_mvl/mxv
	.byte	W02
	.byte		N02   , Fs5 , v120
	.byte	W02
	.byte		N01   , Fs4 , v060
	.byte	W10
	.byte		VOL   , 37*seq_122_mvl/mxv
	.byte	W06
	.byte		N02   , Gs4 , v120
	.byte	W02
	.byte		N01   , Gs3 , v060
	.byte	W07
	.byte		VOL   , 40*seq_122_mvl/mxv
	.byte	W09
	.byte	PEND
	.byte		N02   , As5 , v120
	.byte	W02
	.byte		N01   , As4 , v060
	.byte	W03
	.byte		VOL   , 44*seq_122_mvl/mxv
	.byte	W13
	.byte		N02   , Cn5 , v120
	.byte	W01
	.byte		VOL   , 40*seq_122_mvl/mxv
	.byte	W01
	.byte		N01   , Cn4 , v060
	.byte	W13
	.byte		VOL   , 37*seq_122_mvl/mxv
	.byte	W03
	.byte		N02   , Cn6 , v120
	.byte	W02
	.byte		N01   , Cn5 , v060
	.byte	W09
	.byte		VOL   , 33*seq_122_mvl/mxv
	.byte	W07
	.byte		N02   , As4 , v120
	.byte	W02
	.byte		N01   , As3 , v060
	.byte	W05
	.byte		VOL   , 30*seq_122_mvl/mxv
	.byte	W11
	.byte		N02   , En5 , v120
	.byte	W02
	.byte		N01   , En4 , v060
	.byte	W01
	.byte		VOL   , 26*seq_122_mvl/mxv
	.byte	W14
	.byte		        23*seq_122_mvl/mxv
	.byte	W01
	.byte		N02   , Cn5 , v120
	.byte	W02
	.byte		N01   , Cn4 , v060
	.byte	W04
	.byte	PEND
	.byte	W07
	.byte		VOL   , 19*seq_122_mvl/mxv
	.byte	W05
	.byte		N02   , Fs5 , v120
	.byte	W02
	.byte		N01   , Fs4 , v060
	.byte	W07
	.byte		VOL   , 16*seq_122_mvl/mxv
	.byte	W09
	.byte		N02   , Fs4 , v120
	.byte	W02
	.byte		N01   , Fs3 , v060
	.byte	W03
	.byte		VOL   , 12*seq_122_mvl/mxv
	.byte	W60
	.byte	W01
	.byte	PEND
	.byte	W96
	.byte	W96
	.byte	W96
	.byte	W96
	.byte	PATT
	 .word	seq_122_4 + 0xD5
	.byte	PATT
	 .word	seq_122_4 + 0xF8
	.byte	PATT
	 .word	seq_122_4 + 0x136
	.byte	PATT
	 .word	seq_122_4 + 0x17B
	.byte	PATT
	 .word	seq_122_4 + 0x15
	.byte	PATT
	 .word	seq_122_4 + 0x5B
	.byte	PATT
	 .word	seq_122_4 + 0x9A
	.byte	W96
	.byte	W96
	.byte	W96
	.byte	W96
	.byte	W96
	.byte	PATT
	 .word	seq_122_4 + 0x15
	.byte	PATT
	 .word	seq_122_4 + 0x5B
	.byte	PATT
	 .word	seq_122_4 + 0x9A
	.byte	PATT
	 .word	seq_122_4 + 0xD5
	.byte	PATT
	 .word	seq_122_4 + 0xF8
	.byte	PATT
	 .word	seq_122_4 + 0x136
	.byte	PATT
	 .word	seq_122_4 + 0x17B
	.byte	W96
	.byte	W96
	.byte	W96
	.byte	W96
	.byte	PATT
	 .word	seq_122_4 + 0xD5
	.byte	PATT
	 .word	seq_122_4 + 0xF8
	.byte	PATT
	 .word	seq_122_4 + 0x136
	.byte	PATT
	 .word	seq_122_4 + 0x17B
	.byte	PATT
	 .word	seq_122_4 + 0x15
	.byte	PATT
	 .word	seq_122_4 + 0x5B
	.byte	PATT
	 .word	seq_122_4 + 0x9A
	.byte	W96
	.byte	W96
	.byte	W96
	.byte	W96
	.byte	W96
	.byte	PATT
	 .word	seq_122_4 + 0x15
	.byte	PATT
	 .word	seq_122_4 + 0x5B
	.byte	PATT
	 .word	seq_122_4 + 0x9A
	.byte	PATT
	 .word	seq_122_4 + 0xD5
	.byte	PATT
	 .word	seq_122_4 + 0xF8
	.byte	PATT
	 .word	seq_122_4 + 0x136
	.byte	PATT
	 .word	seq_122_4 + 0x17B
	.byte	W96
	.byte	W96
	.byte	W96
	.byte	W96
	.byte	PATT
	 .word	seq_122_4 + 0xD5
	.byte	PATT
	 .word	seq_122_4 + 0xF8
	.byte	PATT
	 .word	seq_122_4 + 0x136
	.byte	PATT
	 .word	seq_122_4 + 0x17B
	.byte	PATT
	 .word	seq_122_4 + 0x15
	.byte	PATT
	 .word	seq_122_4 + 0x5B
	.byte	PATT
	 .word	seq_122_4 + 0x9A
	.byte	W96
	.byte	W96
	.byte	W96
	.byte	W96
	.byte	W96
	.byte	PATT
	 .word	seq_122_4 + 0x15
	.byte	PATT
	 .word	seq_122_4 + 0x5B
	.byte	PATT
	 .word	seq_122_4 + 0x9A
	.byte	PATT
	 .word	seq_122_4 + 0xD5
	.byte	PATT
	 .word	seq_122_4 + 0xF8
	.byte	PATT
	 .word	seq_122_4 + 0x136
	.byte	PATT
	 .word	seq_122_4 + 0x17B
	.byte	W96
	.byte	W96
	.byte	W96
	.byte	W96
	.byte	PATT
	 .word	seq_122_4 + 0xD5
	.byte	PATT
	 .word	seq_122_4 + 0xF8
	.byte	PATT
	 .word	seq_122_4 + 0x136
	.byte	PATT
	 .word	seq_122_4 + 0x17B
	.byte	PATT
	 .word	seq_122_4 + 0x15
	.byte	PATT
	 .word	seq_122_4 + 0x5B
	.byte	PATT
	 .word	seq_122_4 + 0x9A
	.byte	W96
	.byte	W96
	.byte	W96
	.byte	W96
	.byte	W96
	.byte	PATT
	 .word	seq_122_4 + 0x15
	.byte	PATT
	 .word	seq_122_4 + 0x5B
	.byte	PATT
	 .word	seq_122_4 + 0x9A
	.byte	PATT
	 .word	seq_122_4 + 0xD5
	.byte	PATT
	 .word	seq_122_4 + 0xF8
	.byte	PATT
	 .word	seq_122_4 + 0x136
	.byte	PATT
	 .word	seq_122_4 + 0x17B
	.byte	W96
	.byte	W96
	.byte	W96
	.byte	W96
	.byte	PATT
	 .word	seq_122_4 + 0xD5
	.byte	PATT
	 .word	seq_122_4 + 0xF8
	.byte	PATT
	 .word	seq_122_4 + 0x136
	.byte	PATT
	 .word	seq_122_4 + 0x17B
	.byte	PATT
	 .word	seq_122_4 + 0x15
	.byte	PATT
	 .word	seq_122_4 + 0x5B
	.byte	PATT
	 .word	seq_122_4 + 0x9A
	.byte	W96
	.byte	W96
	.byte	W96
	.byte	W96
	.byte	W96
	.byte	PATT
	 .word	seq_122_4 + 0x15
	.byte	PATT
	 .word	seq_122_4 + 0x5B
	.byte	PATT
	 .word	seq_122_4 + 0x9A
	.byte	PATT
	 .word	seq_122_4 + 0xD5
	.byte	PATT
	 .word	seq_122_4 + 0xF8
	.byte	PATT
	 .word	seq_122_4 + 0x136
	.byte	PATT
	 .word	seq_122_4 + 0x17B
	.byte	W96
	.byte	W96
	.byte	W96
	.byte	W96
	.byte	PATT
	 .word	seq_122_4 + 0xD5
	.byte	PATT
	 .word	seq_122_4 + 0xF8
	.byte	PATT
	 .word	seq_122_4 + 0x136
	.byte	PATT
	 .word	seq_122_4 + 0x17B
	.byte	PATT
	 .word	seq_122_4 + 0x15
	.byte	PATT
	 .word	seq_122_4 + 0x5B
	.byte	PATT
	 .word	seq_122_4 + 0x9A
	.byte	W96
	.byte	W96
	.byte	W96
	.byte	W96
	.byte	W96
	.byte	PATT
	 .word	seq_122_4 + 0x15
	.byte	PATT
	 .word	seq_122_4 + 0x5B
	.byte	PATT
	 .word	seq_122_4 + 0x9A
	.byte	PATT
	 .word	seq_122_4 + 0xD5
	.byte	PATT
	 .word	seq_122_4 + 0xF8
	.byte	PATT
	 .word	seq_122_4 + 0x136
	.byte	PATT
	 .word	seq_122_4 + 0x17B
	.byte	W96
	.byte	W96
	.byte	W96
	.byte	W96
	.byte	PATT
	 .word	seq_122_4 + 0xD5
	.byte	PATT
	 .word	seq_122_4 + 0xF8
	.byte	PATT
	 .word	seq_122_4 + 0x136
	.byte	PATT
	 .word	seq_122_4 + 0x17B
	.byte	PATT
	 .word	seq_122_4 + 0x15
	.byte	PATT
	 .word	seq_122_4 + 0x5B
	.byte	PATT
	 .word	seq_122_4 + 0x9A
	.byte	W96
	.byte	W96
	.byte	W96
	.byte	W96
	.byte	W96
	.byte	PATT
	 .word	seq_122_4 + 0x15
	.byte	PATT
	 .word	seq_122_4 + 0x5B
	.byte	PATT
	 .word	seq_122_4 + 0x9A
	.byte	PATT
	 .word	seq_122_4 + 0xD5
	.byte	PATT
	 .word	seq_122_4 + 0xF8
	.byte	PATT
	 .word	seq_122_4 + 0x136
	.byte	PATT
	 .word	seq_122_4 + 0x17B
	.byte	W96
	.byte	W96
	.byte	W96
	.byte	W96
	.byte	PATT
	 .word	seq_122_4 + 0xD5
	.byte	PATT
	 .word	seq_122_4 + 0xF8
	.byte	PATT
	 .word	seq_122_4 + 0x136
	.byte	PATT
	 .word	seq_122_4 + 0x17B
	.byte	PATT
	 .word	seq_122_4 + 0x15
	.byte	PATT
	 .word	seq_122_4 + 0x5B
	.byte	PATT
	 .word	seq_122_4 + 0x9A
	.byte	W96
	.byte	W96
	.byte	W96
	.byte	W96
	.byte	W96
	.byte	PATT
	 .word	seq_122_4 + 0x15
	.byte	PATT
	 .word	seq_122_4 + 0x5B
	.byte	PATT
	 .word	seq_122_4 + 0x9A
	.byte	PATT
	 .word	seq_122_4 + 0xD5
	.byte	PATT
	 .word	seq_122_4 + 0xF8
	.byte	PATT
	 .word	seq_122_4 + 0x136
	.byte	PATT
	 .word	seq_122_4 + 0x17B
	.byte	W96
	.byte	W96
	.byte	W96
	.byte	W96
	.byte	PATT
	 .word	seq_122_4 + 0xD5
	.byte	PATT
	 .word	seq_122_4 + 0xF8
	.byte	PATT
	 .word	seq_122_4 + 0x136
	.byte	PATT
	 .word	seq_122_4 + 0x17B
	.byte	PATT
	 .word	seq_122_4 + 0x15
	.byte	PATT
	 .word	seq_122_4 + 0x5B
	.byte	PATT
	 .word	seq_122_4 + 0x9A
	.byte	W96
	.byte	W96
	.byte	W96
	.byte	W96
	.byte	W96
	.byte	PATT
	 .word	seq_122_4 + 0x15
	.byte	PATT
	 .word	seq_122_4 + 0x5B
	.byte	PATT
	 .word	seq_122_4 + 0x9A
	.byte	PATT
	 .word	seq_122_4 + 0xD5
	.byte	PATT
	 .word	seq_122_4 + 0xF8
	.byte	PATT
	 .word	seq_122_4 + 0x136
	.byte	PATT
	 .word	seq_122_4 + 0x17B
	.byte	W96
	.byte	W96
	.byte	W96
	.byte	W96
	.byte	PATT
	 .word	seq_122_4 + 0xD5
	.byte	PATT
	 .word	seq_122_4 + 0xF8
	.byte	PATT
	 .word	seq_122_4 + 0x136
	.byte	PATT
	 .word	seq_122_4 + 0x17B
	.byte	PATT
	 .word	seq_122_4 + 0x15
	.byte	PATT
	 .word	seq_122_4 + 0x5B
	.byte	PATT
	 .word	seq_122_4 + 0x9A
	.byte	W96
	.byte	W96
	.byte	W96
	.byte	W96
	.byte	W96
	.byte	PATT
	 .word	seq_122_4 + 0x15
	.byte	PATT
	 .word	seq_122_4 + 0x5B
	.byte	PATT
	 .word	seq_122_4 + 0x9A
	.byte	PATT
	 .word	seq_122_4 + 0xD5
	.byte	PATT
	 .word	seq_122_4 + 0xF8
	.byte	PATT
	 .word	seq_122_4 + 0x136
	.byte	PATT
	 .word	seq_122_4 + 0x17B
	.byte	W96
	.byte	W96
	.byte	W96
	.byte	W96
	.byte	PATT
	 .word	seq_122_4 + 0xD5
	.byte	PATT
	 .word	seq_122_4 + 0xF8
	.byte	PATT
	 .word	seq_122_4 + 0x136
	.byte	PATT
	 .word	seq_122_4 + 0x17B
	.byte	PATT
	 .word	seq_122_4 + 0x15
	.byte	PATT
	 .word	seq_122_4 + 0x5B
	.byte	PATT
	 .word	seq_122_4 + 0x9A
	.byte	W96
	.byte	W96
	.byte	W96
	.byte	W96
	.byte	W96
	.byte	PATT
	 .word	seq_122_4 + 0x15
	.byte	PATT
	 .word	seq_122_4 + 0x5B
	.byte	PATT
	 .word	seq_122_4 + 0x9A
	.byte	PATT
	 .word	seq_122_4 + 0xD5
	.byte	PATT
	 .word	seq_122_4 + 0xF8
	.byte	PATT
	 .word	seq_122_4 + 0x136
	.byte	PATT
	 .word	seq_122_4 + 0x17B
	.byte	W96
	.byte	W96
	.byte	W96
	.byte	W96
	.byte	PATT
	 .word	seq_122_4 + 0xD5
	.byte	PATT
	 .word	seq_122_4 + 0xF8
	.byte	PATT
	 .word	seq_122_4 + 0x136
	.byte	PATT
	 .word	seq_122_4 + 0x17B
	.byte	PATT
	 .word	seq_122_4 + 0x15
	.byte	PATT
	 .word	seq_122_4 + 0x5B
	.byte	PATT
	 .word	seq_122_4 + 0x9A
	.byte	W96
	.byte	W96
	.byte	W96
	.byte	W96
	.byte	W96
	.byte	PATT
	 .word	seq_122_4 + 0x15
	.byte	PATT
	 .word	seq_122_4 + 0x5B
	.byte	PATT
	 .word	seq_122_4 + 0x9A
	.byte	PATT
	 .word	seq_122_4 + 0xD5
	.byte	PATT
	 .word	seq_122_4 + 0xF8
	.byte	PATT
	 .word	seq_122_4 + 0x136
	.byte	PATT
	 .word	seq_122_4 + 0x17B
	.byte	W96
	.byte	W96
	.byte	W96
	.byte	W96
	.byte	PATT
	 .word	seq_122_4 + 0xD5
	.byte	PATT
	 .word	seq_122_4 + 0xF8
	.byte	PATT
	 .word	seq_122_4 + 0x136
	.byte	PATT
	 .word	seq_122_4 + 0x17B
	.byte	PATT
	 .word	seq_122_4 + 0x15
	.byte	PATT
	 .word	seq_122_4 + 0x5B
	.byte	PATT
	 .word	seq_122_4 + 0x9A
	.byte	W96
	.byte	W96
	.byte	W96
	.byte	W96
	.byte	W96
	.byte	PATT
	 .word	seq_122_4 + 0x15
	.byte	PATT
	 .word	seq_122_4 + 0x5B
	.byte	PATT
	 .word	seq_122_4 + 0x9A
	.byte	PATT
	 .word	seq_122_4 + 0xD5
	.byte	PATT
	 .word	seq_122_4 + 0xF8
	.byte	PATT
	 .word	seq_122_4 + 0x136
	.byte	PATT
	 .word	seq_122_4 + 0x17B
	.byte	W96
	.byte	W96
	.byte	W96
	.byte	W96
	.byte	PATT
	 .word	seq_122_4 + 0xD5
	.byte	PATT
	 .word	seq_122_4 + 0xF8
	.byte	PATT
	 .word	seq_122_4 + 0x136
	.byte	PATT
	 .word	seq_122_4 + 0x17B
	.byte	PATT
	 .word	seq_122_4 + 0x15
	.byte	PATT
	 .word	seq_122_4 + 0x5B
	.byte	PATT
	 .word	seq_122_4 + 0x9A
	.byte	W96
	.byte	W96
	.byte	W96
	.byte	W96
	.byte	W96
	.byte	PATT
	 .word	seq_122_4 + 0x15
	.byte	PATT
	 .word	seq_122_4 + 0x5B
	.byte	PATT
	 .word	seq_122_4 + 0x9A
	.byte	PATT
	 .word	seq_122_4 + 0xD5
	.byte	PATT
	 .word	seq_122_4 + 0xF8
	.byte	PATT
	 .word	seq_122_4 + 0x136
	.byte	PATT
	 .word	seq_122_4 + 0x17B
	.byte	W96
	.byte	W96
	.byte	W96
	.byte	W96
	.byte	PATT
	 .word	seq_122_4 + 0xD5
	.byte	PATT
	 .word	seq_122_4 + 0xF8
	.byte	PATT
	 .word	seq_122_4 + 0x136
	.byte	PATT
	 .word	seq_122_4 + 0x17B
	.byte	PATT
	 .word	seq_122_4 + 0x15
	.byte	PATT
	 .word	seq_122_4 + 0x5B
	.byte	PATT
	 .word	seq_122_4 + 0x9A
	.byte	W96
	.byte	W96
	.byte	W96
	.byte	W96
	.byte	W96
	.byte	PATT
	 .word	seq_122_4 + 0x15
	.byte	PATT
	 .word	seq_122_4 + 0x5B
	.byte	PATT
	 .word	seq_122_4 + 0x9A
	.byte	PATT
	 .word	seq_122_4 + 0xD5
	.byte	PATT
	 .word	seq_122_4 + 0xF8
	.byte	PATT
	 .word	seq_122_4 + 0x136
	.byte	PATT
	 .word	seq_122_4 + 0x17B
	.byte	W96
	.byte	W96
	.byte	W96
	.byte	W96
	.byte	PATT
	 .word	seq_122_4 + 0xD5
	.byte	PATT
	 .word	seq_122_4 + 0xF8
	.byte	PATT
	 .word	seq_122_4 + 0x136
	.byte	PATT
	 .word	seq_122_4 + 0x17B
	.byte	PATT
	 .word	seq_122_4 + 0x15
	.byte	PATT
	 .word	seq_122_4 + 0x5B
	.byte	PATT
	 .word	seq_122_4 + 0x9A
	.byte	W96
	.byte	W96
	.byte	W96
	.byte	W96
	.byte	W96
	.byte	GOTO
	 .word	seq_122_4 + 0x14
	.byte	FINE

@*********************** Track 06 ***********************@

seq_122_5:
	.byte	KEYSH , seq_122_key+0
	.byte	W06
	.byte		VOICE , 27
	.byte	W01
	.byte		VOL   , 4*seq_122_mvl/mxv
	.byte	W01
	.byte		PAN   , c_v-64
	.byte	W01
	.byte		LFOS  , 30
	.byte	W01
	.byte		MODT  , mod_vib
	.byte	W01
	.byte		LFODL , 0
	.byte	W13
	.byte	W96
	.byte	W09
	.byte		N02   , Cn6 , v080
	.byte	W02
	.byte		N01   , Cn5 , v020
	.byte	W05
	.byte		VOL   , 5*seq_122_mvl/mxv
	.byte	W11
	.byte		N02   , As4 , v080
	.byte	W02
	.byte		N01   , As3 , v020
	.byte	W07
	.byte		VOL   , 7*seq_122_mvl/mxv
	.byte	W09
	.byte		N02   , En5 , v080
	.byte	W02
	.byte		N01   , En4 , v020
	.byte	W09
	.byte		VOL   , 10*seq_122_mvl/mxv
	.byte	W07
	.byte		N02   , Cn5 , v080
	.byte	W02
	.byte		N01   , Cn4 , v020
	.byte	W11
	.byte		VOL   , 12*seq_122_mvl/mxv
	.byte	W05
	.byte		N02   , As5 , v080
	.byte	W02
	.byte		N01   , As4 , v020
	.byte	W13
	.byte	PEND
	.byte		VOL   , 15*seq_122_mvl/mxv
	.byte	W03
	.byte		N02   , As4 , v080
	.byte	W02
	.byte		N01   , As3 , v020
	.byte	W15
	.byte		VOL   , 18*seq_122_mvl/mxv
	.byte	W01
	.byte		N02   , Fs5 , v080
	.byte	W02
	.byte		N01   , Fs4 , v020
	.byte	W16
	.byte		N02   , Gs4 , v080
	.byte	W01
	.byte		VOL   , 20*seq_122_mvl/mxv
	.byte	W01
	.byte		N01   , Gs3 , v020
	.byte	W16
	.byte		N02   , As5 , v080
	.byte	W02
	.byte		N01   , As4 , v020
	.byte	W01
	.byte		VOL   , 21*seq_122_mvl/mxv
	.byte	W15
	.byte		N02   , Cn5 , v080
	.byte	W02
	.byte		N01   , Cn4 , v020
	.byte	W04
	.byte		VOL   , 19*seq_122_mvl/mxv
	.byte	W12
	.byte		N02   , Cn6 , v080
	.byte	W02
	.byte		N01   , Cn5 , v020
	.byte	W01
	.byte	PEND
	.byte	W06
	.byte		VOL   , 16*seq_122_mvl/mxv
	.byte	W09
	.byte		N02   , As4 , v080
	.byte	W02
	.byte		N01   , As3 , v020
	.byte	W10
	.byte		VOL   , 13*seq_122_mvl/mxv
	.byte	W06
	.byte		N02   , En5 , v080
	.byte	W02
	.byte		N01   , En4 , v020
	.byte	W13
	.byte		VOL   , 11*seq_122_mvl/mxv
	.byte	W03
	.byte		N02   , Cn5 , v080
	.byte	W02
	.byte		N01   , Cn4 , v020
	.byte	W16
	.byte		N02   , Fs5 , v080
	.byte	W01
	.byte		VOL   , 8*seq_122_mvl/mxv
	.byte	W01
	.byte		N01   , Fs4 , v020
	.byte	W16
	.byte		N02   , Fs4 , v080
	.byte	W02
	.byte		N01   , Fs3 , v020
	.byte	W01
	.byte		VOL   , 6*seq_122_mvl/mxv
	.byte	W06
	.byte	PEND
	.byte	W56
	.byte	W01
	.byte		N02   , Cn6 , v080
	.byte	W02
	.byte		N01   , Cn5 , v020
	.byte	W05
	.byte		VOL   , 5*seq_122_mvl/mxv
	.byte	W11
	.byte		N02   , As4 , v080
	.byte	W02
	.byte		N01   , As3 , v020
	.byte	W07
	.byte		VOL   , 7*seq_122_mvl/mxv
	.byte	W09
	.byte		N02   , En5 , v080
	.byte	W02
	.byte		N01   , En4 , v020
	.byte	W01
	.byte	PEND
	.byte	W08
	.byte		VOL   , 10*seq_122_mvl/mxv
	.byte	W07
	.byte		N02   , Cn5 , v080
	.byte	W02
	.byte		N01   , Cn4 , v020
	.byte	W11
	.byte		VOL   , 12*seq_122_mvl/mxv
	.byte	W05
	.byte		N02   , As5 , v080
	.byte	W02
	.byte		N01   , As4 , v020
	.byte	W13
	.byte		VOL   , 15*seq_122_mvl/mxv
	.byte	W03
	.byte		N02   , As4 , v080
	.byte	W02
	.byte		N01   , As3 , v020
	.byte	W15
	.byte		VOL   , 18*seq_122_mvl/mxv
	.byte	W01
	.byte		N02   , Fs5 , v080
	.byte	W02
	.byte		N01   , Fs4 , v020
	.byte	W16
	.byte		N02   , Gs4 , v080
	.byte	W01
	.byte		VOL   , 20*seq_122_mvl/mxv
	.byte	W01
	.byte		N01   , Gs3 , v020
	.byte	W07
	.byte	PEND
	.byte	W09
	.byte		N02   , As5 , v080
	.byte	W02
	.byte		N01   , As4 , v020
	.byte	W01
	.byte		VOL   , 21*seq_122_mvl/mxv
	.byte	W15
	.byte		N02   , Cn5 , v080
	.byte	W02
	.byte		N01   , Cn4 , v020
	.byte	W04
	.byte		VOL   , 19*seq_122_mvl/mxv
	.byte	W12
	.byte		N02   , Cn6 , v080
	.byte	W02
	.byte		N01   , Cn5 , v020
	.byte	W07
	.byte		VOL   , 16*seq_122_mvl/mxv
	.byte	W09
	.byte		N02   , As4 , v080
	.byte	W02
	.byte		N01   , As3 , v020
	.byte	W10
	.byte		VOL   , 13*seq_122_mvl/mxv
	.byte	W06
	.byte		N02   , En5 , v080
	.byte	W02
	.byte		N01   , En4 , v020
	.byte	W13
	.byte	PEND
	.byte		VOL   , 11*seq_122_mvl/mxv
	.byte	W03
	.byte		N02   , Cn5 , v080
	.byte	W02
	.byte		N01   , Cn4 , v020
	.byte	W16
	.byte		N02   , Fs5 , v080
	.byte	W01
	.byte		VOL   , 8*seq_122_mvl/mxv
	.byte	W01
	.byte		N01   , Fs4 , v020
	.byte	W16
	.byte		N02   , Fs4 , v080
	.byte	W02
	.byte		N01   , Fs3 , v020
	.byte	W01
	.byte		VOL   , 6*seq_122_mvl/mxv
	.byte	W54
	.byte	PEND
	.byte	W96
	.byte	W96
	.byte	W96
	.byte	W96
	.byte	PATT
	 .word	seq_122_5 + 0xC5
	.byte	PATT
	 .word	seq_122_5 + 0xE6
	.byte	PATT
	 .word	seq_122_5 + 0x11F
	.byte	PATT
	 .word	seq_122_5 + 0x155
	.byte	PATT
	 .word	seq_122_5 + 0x16
	.byte	PATT
	 .word	seq_122_5 + 0x4C
	.byte	PATT
	 .word	seq_122_5 + 0x8C
	.byte	W96
	.byte	W96
	.byte	W96
	.byte	W96
	.byte	W96
	.byte	PATT
	 .word	seq_122_5 + 0x16
	.byte	PATT
	 .word	seq_122_5 + 0x4C
	.byte	PATT
	 .word	seq_122_5 + 0x8C
	.byte	PATT
	 .word	seq_122_5 + 0xC5
	.byte	PATT
	 .word	seq_122_5 + 0xE6
	.byte	PATT
	 .word	seq_122_5 + 0x11F
	.byte	PATT
	 .word	seq_122_5 + 0x155
	.byte	W96
	.byte	W96
	.byte	W96
	.byte	W96
	.byte	PATT
	 .word	seq_122_5 + 0xC5
	.byte	PATT
	 .word	seq_122_5 + 0xE6
	.byte	PATT
	 .word	seq_122_5 + 0x11F
	.byte	PATT
	 .word	seq_122_5 + 0x155
	.byte	PATT
	 .word	seq_122_5 + 0x16
	.byte	PATT
	 .word	seq_122_5 + 0x4C
	.byte	PATT
	 .word	seq_122_5 + 0x8C
	.byte	W96
	.byte	W96
	.byte	W96
	.byte	W96
	.byte	W96
	.byte	PATT
	 .word	seq_122_5 + 0x16
	.byte	PATT
	 .word	seq_122_5 + 0x4C
	.byte	PATT
	 .word	seq_122_5 + 0x8C
	.byte	PATT
	 .word	seq_122_5 + 0xC5
	.byte	PATT
	 .word	seq_122_5 + 0xE6
	.byte	PATT
	 .word	seq_122_5 + 0x11F
	.byte	PATT
	 .word	seq_122_5 + 0x155
	.byte	W96
	.byte	W96
	.byte	W96
	.byte	W96
	.byte	PATT
	 .word	seq_122_5 + 0xC5
	.byte	PATT
	 .word	seq_122_5 + 0xE6
	.byte	PATT
	 .word	seq_122_5 + 0x11F
	.byte	PATT
	 .word	seq_122_5 + 0x155
	.byte	PATT
	 .word	seq_122_5 + 0x16
	.byte	PATT
	 .word	seq_122_5 + 0x4C
	.byte	PATT
	 .word	seq_122_5 + 0x8C
	.byte	W96
	.byte	W96
	.byte	W96
	.byte	W96
	.byte	W96
	.byte	PATT
	 .word	seq_122_5 + 0x16
	.byte	PATT
	 .word	seq_122_5 + 0x4C
	.byte	PATT
	 .word	seq_122_5 + 0x8C
	.byte	PATT
	 .word	seq_122_5 + 0xC5
	.byte	PATT
	 .word	seq_122_5 + 0xE6
	.byte	PATT
	 .word	seq_122_5 + 0x11F
	.byte	PATT
	 .word	seq_122_5 + 0x155
	.byte	W96
	.byte	W96
	.byte	W96
	.byte	W96
	.byte	PATT
	 .word	seq_122_5 + 0xC5
	.byte	PATT
	 .word	seq_122_5 + 0xE6
	.byte	PATT
	 .word	seq_122_5 + 0x11F
	.byte	PATT
	 .word	seq_122_5 + 0x155
	.byte	PATT
	 .word	seq_122_5 + 0x16
	.byte	PATT
	 .word	seq_122_5 + 0x4C
	.byte	PATT
	 .word	seq_122_5 + 0x8C
	.byte	W96
	.byte	W96
	.byte	W96
	.byte	W96
	.byte	W96
	.byte	PATT
	 .word	seq_122_5 + 0x16
	.byte	PATT
	 .word	seq_122_5 + 0x4C
	.byte	PATT
	 .word	seq_122_5 + 0x8C
	.byte	PATT
	 .word	seq_122_5 + 0xC5
	.byte	PATT
	 .word	seq_122_5 + 0xE6
	.byte	PATT
	 .word	seq_122_5 + 0x11F
	.byte	PATT
	 .word	seq_122_5 + 0x155
	.byte	W96
	.byte	W96
	.byte	W96
	.byte	W96
	.byte	PATT
	 .word	seq_122_5 + 0xC5
	.byte	PATT
	 .word	seq_122_5 + 0xE6
	.byte	PATT
	 .word	seq_122_5 + 0x11F
	.byte	PATT
	 .word	seq_122_5 + 0x155
	.byte	PATT
	 .word	seq_122_5 + 0x16
	.byte	PATT
	 .word	seq_122_5 + 0x4C
	.byte	PATT
	 .word	seq_122_5 + 0x8C
	.byte	W96
	.byte	W96
	.byte	W96
	.byte	W96
	.byte	W96
	.byte	PATT
	 .word	seq_122_5 + 0x16
	.byte	PATT
	 .word	seq_122_5 + 0x4C
	.byte	PATT
	 .word	seq_122_5 + 0x8C
	.byte	PATT
	 .word	seq_122_5 + 0xC5
	.byte	PATT
	 .word	seq_122_5 + 0xE6
	.byte	PATT
	 .word	seq_122_5 + 0x11F
	.byte	PATT
	 .word	seq_122_5 + 0x155
	.byte	W96
	.byte	W96
	.byte	W96
	.byte	W96
	.byte	PATT
	 .word	seq_122_5 + 0xC5
	.byte	PATT
	 .word	seq_122_5 + 0xE6
	.byte	PATT
	 .word	seq_122_5 + 0x11F
	.byte	PATT
	 .word	seq_122_5 + 0x155
	.byte	PATT
	 .word	seq_122_5 + 0x16
	.byte	PATT
	 .word	seq_122_5 + 0x4C
	.byte	PATT
	 .word	seq_122_5 + 0x8C
	.byte	W96
	.byte	W96
	.byte	W96
	.byte	W96
	.byte	W96
	.byte	PATT
	 .word	seq_122_5 + 0x16
	.byte	PATT
	 .word	seq_122_5 + 0x4C
	.byte	PATT
	 .word	seq_122_5 + 0x8C
	.byte	PATT
	 .word	seq_122_5 + 0xC5
	.byte	PATT
	 .word	seq_122_5 + 0xE6
	.byte	PATT
	 .word	seq_122_5 + 0x11F
	.byte	PATT
	 .word	seq_122_5 + 0x155
	.byte	W96
	.byte	W96
	.byte	W96
	.byte	W96
	.byte	PATT
	 .word	seq_122_5 + 0xC5
	.byte	PATT
	 .word	seq_122_5 + 0xE6
	.byte	PATT
	 .word	seq_122_5 + 0x11F
	.byte	PATT
	 .word	seq_122_5 + 0x155
	.byte	PATT
	 .word	seq_122_5 + 0x16
	.byte	PATT
	 .word	seq_122_5 + 0x4C
	.byte	PATT
	 .word	seq_122_5 + 0x8C
	.byte	W96
	.byte	W96
	.byte	W96
	.byte	W96
	.byte	W96
	.byte	PATT
	 .word	seq_122_5 + 0x16
	.byte	PATT
	 .word	seq_122_5 + 0x4C
	.byte	PATT
	 .word	seq_122_5 + 0x8C
	.byte	PATT
	 .word	seq_122_5 + 0xC5
	.byte	PATT
	 .word	seq_122_5 + 0xE6
	.byte	PATT
	 .word	seq_122_5 + 0x11F
	.byte	PATT
	 .word	seq_122_5 + 0x155
	.byte	W96
	.byte	W96
	.byte	W96
	.byte	W96
	.byte	PATT
	 .word	seq_122_5 + 0xC5
	.byte	PATT
	 .word	seq_122_5 + 0xE6
	.byte	PATT
	 .word	seq_122_5 + 0x11F
	.byte	PATT
	 .word	seq_122_5 + 0x155
	.byte	PATT
	 .word	seq_122_5 + 0x16
	.byte	PATT
	 .word	seq_122_5 + 0x4C
	.byte	PATT
	 .word	seq_122_5 + 0x8C
	.byte	W96
	.byte	W96
	.byte	W96
	.byte	W96
	.byte	W96
	.byte	PATT
	 .word	seq_122_5 + 0x16
	.byte	PATT
	 .word	seq_122_5 + 0x4C
	.byte	PATT
	 .word	seq_122_5 + 0x8C
	.byte	PATT
	 .word	seq_122_5 + 0xC5
	.byte	PATT
	 .word	seq_122_5 + 0xE6
	.byte	PATT
	 .word	seq_122_5 + 0x11F
	.byte	PATT
	 .word	seq_122_5 + 0x155
	.byte	W96
	.byte	W96
	.byte	W96
	.byte	W96
	.byte	PATT
	 .word	seq_122_5 + 0xC5
	.byte	PATT
	 .word	seq_122_5 + 0xE6
	.byte	PATT
	 .word	seq_122_5 + 0x11F
	.byte	PATT
	 .word	seq_122_5 + 0x155
	.byte	PATT
	 .word	seq_122_5 + 0x16
	.byte	PATT
	 .word	seq_122_5 + 0x4C
	.byte	PATT
	 .word	seq_122_5 + 0x8C
	.byte	W96
	.byte	W96
	.byte	W96
	.byte	W96
	.byte	W96
	.byte	PATT
	 .word	seq_122_5 + 0x16
	.byte	PATT
	 .word	seq_122_5 + 0x4C
	.byte	PATT
	 .word	seq_122_5 + 0x8C
	.byte	PATT
	 .word	seq_122_5 + 0xC5
	.byte	PATT
	 .word	seq_122_5 + 0xE6
	.byte	PATT
	 .word	seq_122_5 + 0x11F
	.byte	PATT
	 .word	seq_122_5 + 0x155
	.byte	W96
	.byte	W96
	.byte	W96
	.byte	W96
	.byte	PATT
	 .word	seq_122_5 + 0xC5
	.byte	PATT
	 .word	seq_122_5 + 0xE6
	.byte	PATT
	 .word	seq_122_5 + 0x11F
	.byte	PATT
	 .word	seq_122_5 + 0x155
	.byte	PATT
	 .word	seq_122_5 + 0x16
	.byte	PATT
	 .word	seq_122_5 + 0x4C
	.byte	PATT
	 .word	seq_122_5 + 0x8C
	.byte	W96
	.byte	W96
	.byte	W96
	.byte	W96
	.byte	W96
	.byte	PATT
	 .word	seq_122_5 + 0x16
	.byte	PATT
	 .word	seq_122_5 + 0x4C
	.byte	PATT
	 .word	seq_122_5 + 0x8C
	.byte	PATT
	 .word	seq_122_5 + 0xC5
	.byte	PATT
	 .word	seq_122_5 + 0xE6
	.byte	PATT
	 .word	seq_122_5 + 0x11F
	.byte	PATT
	 .word	seq_122_5 + 0x155
	.byte	W96
	.byte	W96
	.byte	W96
	.byte	W96
	.byte	PATT
	 .word	seq_122_5 + 0xC5
	.byte	PATT
	 .word	seq_122_5 + 0xE6
	.byte	PATT
	 .word	seq_122_5 + 0x11F
	.byte	PATT
	 .word	seq_122_5 + 0x155
	.byte	PATT
	 .word	seq_122_5 + 0x16
	.byte	PATT
	 .word	seq_122_5 + 0x4C
	.byte	PATT
	 .word	seq_122_5 + 0x8C
	.byte	W96
	.byte	W96
	.byte	W96
	.byte	W96
	.byte	W96
	.byte	PATT
	 .word	seq_122_5 + 0x16
	.byte	PATT
	 .word	seq_122_5 + 0x4C
	.byte	PATT
	 .word	seq_122_5 + 0x8C
	.byte	PATT
	 .word	seq_122_5 + 0xC5
	.byte	PATT
	 .word	seq_122_5 + 0xE6
	.byte	PATT
	 .word	seq_122_5 + 0x11F
	.byte	PATT
	 .word	seq_122_5 + 0x155
	.byte	W96
	.byte	W96
	.byte	W96
	.byte	W96
	.byte	PATT
	 .word	seq_122_5 + 0xC5
	.byte	PATT
	 .word	seq_122_5 + 0xE6
	.byte	PATT
	 .word	seq_122_5 + 0x11F
	.byte	PATT
	 .word	seq_122_5 + 0x155
	.byte	PATT
	 .word	seq_122_5 + 0x16
	.byte	PATT
	 .word	seq_122_5 + 0x4C
	.byte	PATT
	 .word	seq_122_5 + 0x8C
	.byte	W96
	.byte	W96
	.byte	W96
	.byte	W96
	.byte	W96
	.byte	PATT
	 .word	seq_122_5 + 0x16
	.byte	PATT
	 .word	seq_122_5 + 0x4C
	.byte	PATT
	 .word	seq_122_5 + 0x8C
	.byte	PATT
	 .word	seq_122_5 + 0xC5
	.byte	PATT
	 .word	seq_122_5 + 0xE6
	.byte	PATT
	 .word	seq_122_5 + 0x11F
	.byte	PATT
	 .word	seq_122_5 + 0x155
	.byte	W96
	.byte	W96
	.byte	W96
	.byte	W96
	.byte	PATT
	 .word	seq_122_5 + 0xC5
	.byte	PATT
	 .word	seq_122_5 + 0xE6
	.byte	PATT
	 .word	seq_122_5 + 0x11F
	.byte	PATT
	 .word	seq_122_5 + 0x155
	.byte	PATT
	 .word	seq_122_5 + 0x16
	.byte	PATT
	 .word	seq_122_5 + 0x4C
	.byte	PATT
	 .word	seq_122_5 + 0x8C
	.byte	W96
	.byte	W96
	.byte	W96
	.byte	W96
	.byte	W96
	.byte	PATT
	 .word	seq_122_5 + 0x16
	.byte	PATT
	 .word	seq_122_5 + 0x4C
	.byte	PATT
	 .word	seq_122_5 + 0x8C
	.byte	PATT
	 .word	seq_122_5 + 0xC5
	.byte	PATT
	 .word	seq_122_5 + 0xE6
	.byte	PATT
	 .word	seq_122_5 + 0x11F
	.byte	PATT
	 .word	seq_122_5 + 0x155
	.byte	W96
	.byte	W96
	.byte	W96
	.byte	W96
	.byte	PATT
	 .word	seq_122_5 + 0xC5
	.byte	PATT
	 .word	seq_122_5 + 0xE6
	.byte	PATT
	 .word	seq_122_5 + 0x11F
	.byte	PATT
	 .word	seq_122_5 + 0x155
	.byte	PATT
	 .word	seq_122_5 + 0x16
	.byte	PATT
	 .word	seq_122_5 + 0x4C
	.byte	PATT
	 .word	seq_122_5 + 0x8C
	.byte	W96
	.byte	W96
	.byte	W96
	.byte	W96
	.byte	W96
	.byte	PATT
	 .word	seq_122_5 + 0x16
	.byte	PATT
	 .word	seq_122_5 + 0x4C
	.byte	PATT
	 .word	seq_122_5 + 0x8C
	.byte	PATT
	 .word	seq_122_5 + 0xC5
	.byte	PATT
	 .word	seq_122_5 + 0xE6
	.byte	PATT
	 .word	seq_122_5 + 0x11F
	.byte	PATT
	 .word	seq_122_5 + 0x155
	.byte	W96
	.byte	W96
	.byte	W96
	.byte	W96
	.byte	PATT
	 .word	seq_122_5 + 0xC5
	.byte	PATT
	 .word	seq_122_5 + 0xE6
	.byte	PATT
	 .word	seq_122_5 + 0x11F
	.byte	PATT
	 .word	seq_122_5 + 0x155
	.byte	PATT
	 .word	seq_122_5 + 0x16
	.byte	PATT
	 .word	seq_122_5 + 0x4C
	.byte	PATT
	 .word	seq_122_5 + 0x8C
	.byte	W96
	.byte	W96
	.byte	W96
	.byte	W96
	.byte	W96
	.byte	PATT
	 .word	seq_122_5 + 0x16
	.byte	PATT
	 .word	seq_122_5 + 0x4C
	.byte	PATT
	 .word	seq_122_5 + 0x8C
	.byte	PATT
	 .word	seq_122_5 + 0xC5
	.byte	PATT
	 .word	seq_122_5 + 0xE6
	.byte	PATT
	 .word	seq_122_5 + 0x11F
	.byte	PATT
	 .word	seq_122_5 + 0x155
	.byte	W96
	.byte	W96
	.byte	W96
	.byte	W96
	.byte	PATT
	 .word	seq_122_5 + 0xC5
	.byte	PATT
	 .word	seq_122_5 + 0xE6
	.byte	PATT
	 .word	seq_122_5 + 0x11F
	.byte	PATT
	 .word	seq_122_5 + 0x155
	.byte	PATT
	 .word	seq_122_5 + 0x16
	.byte	PATT
	 .word	seq_122_5 + 0x4C
	.byte	PATT
	 .word	seq_122_5 + 0x8C
	.byte	W96
	.byte	W96
	.byte	W96
	.byte	W96
	.byte	W96
	.byte	GOTO
	 .word	seq_122_5 + 0x15
	.byte	FINE

@*********************** Track 07 ***********************@

seq_122_6:
	.byte	KEYSH , seq_122_key+0
	.byte	W12
	.byte		VOICE , 27
	.byte	W01
	.byte		VOL   , 4*seq_122_mvl/mxv
	.byte	W01
	.byte		PAN   , c_v+63
	.byte	W01
	.byte		LFOS  , 100
	.byte	W01
	.byte		MODT  , mod_pan
	.byte	W01
	.byte		MOD   , 0
	.byte	W07
	.byte	W96
	.byte	W18
	.byte		N02   , Cn6 , v080
	.byte	W02
	.byte		N01   , Cn5 , v020
	.byte	W05
	.byte		VOL   , 6*seq_122_mvl/mxv
	.byte	W11
	.byte		N02   , As4 , v080
	.byte	W02
	.byte		N01   , As3 , v020
	.byte	W08
	.byte		VOL   , 8*seq_122_mvl/mxv
	.byte	W08
	.byte		N02   , En5 , v080
	.byte	W02
	.byte		N01   , En4 , v020
	.byte	W10
	.byte		VOL   , 11*seq_122_mvl/mxv
	.byte	W06
	.byte		N02   , Cn5 , v080
	.byte	W02
	.byte		N01   , Cn4 , v020
	.byte	W13
	.byte		VOL   , 13*seq_122_mvl/mxv
	.byte	W03
	.byte		N02   , As5 , v080
	.byte	W02
	.byte		N01   , As4 , v020
	.byte	W04
	.byte	PEND
	.byte	W11
	.byte		VOL   , 16*seq_122_mvl/mxv
	.byte	W01
	.byte		N02   , As4 , v080
	.byte	W02
	.byte		N01   , As3 , v020
	.byte	W16
	.byte		N02   , Fs5 , v080
	.byte	W01
	.byte		VOL   , 19*seq_122_mvl/mxv
	.byte	W01
	.byte		N01   , Fs4 , v020
	.byte	W16
	.byte		N02   , Gs4 , v080
	.byte	W02
	.byte		N01   , Gs3 , v020
	.byte	W02
	.byte		VOL   , 21*seq_122_mvl/mxv
	.byte	W14
	.byte		N02   , As5 , v080
	.byte	W02
	.byte		N01   , As4 , v020
	.byte	W01
	.byte		VOL   , 19*seq_122_mvl/mxv
	.byte	W15
	.byte		N02   , Cn5 , v080
	.byte	W02
	.byte		N01   , Cn4 , v020
	.byte	W04
	.byte		VOL   , 17*seq_122_mvl/mxv
	.byte	W06
	.byte	PEND
	.byte	W06
	.byte		N02   , Cn6 , v080
	.byte	W02
	.byte		N01   , Cn5 , v020
	.byte	W08
	.byte		VOL   , 14*seq_122_mvl/mxv
	.byte	W08
	.byte		N02   , As4 , v080
	.byte	W02
	.byte		N01   , As3 , v020
	.byte	W12
	.byte		VOL   , 12*seq_122_mvl/mxv
	.byte	W04
	.byte		N02   , En5 , v080
	.byte	W02
	.byte		N01   , En4 , v020
	.byte	W16
	.byte		N02   , Cn5 , v080
	.byte	W01
	.byte		VOL   , 9*seq_122_mvl/mxv
	.byte	W01
	.byte		N01   , Cn4 , v020
	.byte	W16
	.byte		N02   , Fs5 , v080
	.byte	W02
	.byte		N01   , Fs4 , v020
	.byte	W09
	.byte		VOL   , 6*seq_122_mvl/mxv
	.byte	W07
	.byte	PEND
	.byte	W66
	.byte		N02   , Cn6 , v080
	.byte	W02
	.byte		N01   , Cn5 , v020
	.byte	W05
	.byte		VOL   , 6*seq_122_mvl/mxv
	.byte	W11
	.byte		N02   , As4 , v080
	.byte	W02
	.byte		N01   , As3 , v020
	.byte	W08
	.byte		VOL   , 8*seq_122_mvl/mxv
	.byte	W02
	.byte	PEND
	.byte	W06
	.byte		N02   , En5 , v080
	.byte	W02
	.byte		N01   , En4 , v020
	.byte	W10
	.byte		VOL   , 11*seq_122_mvl/mxv
	.byte	W06
	.byte		N02   , Cn5 , v080
	.byte	W02
	.byte		N01   , Cn4 , v020
	.byte	W13
	.byte		VOL   , 13*seq_122_mvl/mxv
	.byte	W03
	.byte		N02   , As5 , v080
	.byte	W02
	.byte		N01   , As4 , v020
	.byte	W15
	.byte		VOL   , 16*seq_122_mvl/mxv
	.byte	W01
	.byte		N02   , As4 , v080
	.byte	W02
	.byte		N01   , As3 , v020
	.byte	W16
	.byte		N02   , Fs5 , v080
	.byte	W01
	.byte		VOL   , 19*seq_122_mvl/mxv
	.byte	W01
	.byte		N01   , Fs4 , v020
	.byte	W16
	.byte	PEND
	.byte		N02   , Gs4 , v080
	.byte	W02
	.byte		N01   , Gs3 , v020
	.byte	W02
	.byte		VOL   , 21*seq_122_mvl/mxv
	.byte	W14
	.byte		N02   , As5 , v080
	.byte	W02
	.byte		N01   , As4 , v020
	.byte	W01
	.byte		VOL   , 19*seq_122_mvl/mxv
	.byte	W15
	.byte		N02   , Cn5 , v080
	.byte	W02
	.byte		N01   , Cn4 , v020
	.byte	W04
	.byte		VOL   , 17*seq_122_mvl/mxv
	.byte	W12
	.byte		N02   , Cn6 , v080
	.byte	W02
	.byte		N01   , Cn5 , v020
	.byte	W08
	.byte		VOL   , 14*seq_122_mvl/mxv
	.byte	W08
	.byte		N02   , As4 , v080
	.byte	W02
	.byte		N01   , As3 , v020
	.byte	W12
	.byte		VOL   , 12*seq_122_mvl/mxv
	.byte	W04
	.byte		N02   , En5 , v080
	.byte	W02
	.byte		N01   , En4 , v020
	.byte	W04
	.byte	PEND
	.byte	W12
	.byte		N02   , Cn5 , v080
	.byte	W01
	.byte		VOL   , 9*seq_122_mvl/mxv
	.byte	W01
	.byte		N01   , Cn4 , v020
	.byte	W16
	.byte		N02   , Fs5 , v080
	.byte	W02
	.byte		N01   , Fs4 , v020
	.byte	W09
	.byte		VOL   , 6*seq_122_mvl/mxv
	.byte	W54
	.byte	W01
	.byte	PEND
	.byte	W96
	.byte	W96
	.byte	W96
	.byte	W96
	.byte	PATT
	 .word	seq_122_6 + 0xBB
	.byte	PATT
	 .word	seq_122_6 + 0xD3
	.byte	PATT
	 .word	seq_122_6 + 0x109
	.byte	PATT
	 .word	seq_122_6 + 0x149
	.byte	PATT
	 .word	seq_122_6 + 0x16
	.byte	PATT
	 .word	seq_122_6 + 0x4C
	.byte	PATT
	 .word	seq_122_6 + 0x85
	.byte	W96
	.byte	W96
	.byte	W96
	.byte	W96
	.byte	W96
	.byte	PATT
	 .word	seq_122_6 + 0x16
	.byte	PATT
	 .word	seq_122_6 + 0x4C
	.byte	PATT
	 .word	seq_122_6 + 0x85
	.byte	PATT
	 .word	seq_122_6 + 0xBB
	.byte	PATT
	 .word	seq_122_6 + 0xD3
	.byte	PATT
	 .word	seq_122_6 + 0x109
	.byte	PATT
	 .word	seq_122_6 + 0x149
	.byte	W96
	.byte	W96
	.byte	W96
	.byte	W96
	.byte	PATT
	 .word	seq_122_6 + 0xBB
	.byte	PATT
	 .word	seq_122_6 + 0xD3
	.byte	PATT
	 .word	seq_122_6 + 0x109
	.byte	PATT
	 .word	seq_122_6 + 0x149
	.byte	PATT
	 .word	seq_122_6 + 0x16
	.byte	PATT
	 .word	seq_122_6 + 0x4C
	.byte	PATT
	 .word	seq_122_6 + 0x85
	.byte	W96
	.byte	W96
	.byte	W96
	.byte	W96
	.byte	W96
	.byte	PATT
	 .word	seq_122_6 + 0x16
	.byte	PATT
	 .word	seq_122_6 + 0x4C
	.byte	PATT
	 .word	seq_122_6 + 0x85
	.byte	PATT
	 .word	seq_122_6 + 0xBB
	.byte	PATT
	 .word	seq_122_6 + 0xD3
	.byte	PATT
	 .word	seq_122_6 + 0x109
	.byte	PATT
	 .word	seq_122_6 + 0x149
	.byte	W96
	.byte	W96
	.byte	W96
	.byte	W96
	.byte	PATT
	 .word	seq_122_6 + 0xBB
	.byte	PATT
	 .word	seq_122_6 + 0xD3
	.byte	PATT
	 .word	seq_122_6 + 0x109
	.byte	PATT
	 .word	seq_122_6 + 0x149
	.byte	PATT
	 .word	seq_122_6 + 0x16
	.byte	PATT
	 .word	seq_122_6 + 0x4C
	.byte	PATT
	 .word	seq_122_6 + 0x85
	.byte	W96
	.byte	W96
	.byte	W96
	.byte	W96
	.byte	W96
	.byte	PATT
	 .word	seq_122_6 + 0x16
	.byte	PATT
	 .word	seq_122_6 + 0x4C
	.byte	PATT
	 .word	seq_122_6 + 0x85
	.byte	PATT
	 .word	seq_122_6 + 0xBB
	.byte	PATT
	 .word	seq_122_6 + 0xD3
	.byte	PATT
	 .word	seq_122_6 + 0x109
	.byte	PATT
	 .word	seq_122_6 + 0x149
	.byte	W96
	.byte	W96
	.byte	W96
	.byte	W96
	.byte	PATT
	 .word	seq_122_6 + 0xBB
	.byte	PATT
	 .word	seq_122_6 + 0xD3
	.byte	PATT
	 .word	seq_122_6 + 0x109
	.byte	PATT
	 .word	seq_122_6 + 0x149
	.byte	PATT
	 .word	seq_122_6 + 0x16
	.byte	PATT
	 .word	seq_122_6 + 0x4C
	.byte	PATT
	 .word	seq_122_6 + 0x85
	.byte	W96
	.byte	W96
	.byte	W96
	.byte	W96
	.byte	W96
	.byte	PATT
	 .word	seq_122_6 + 0x16
	.byte	PATT
	 .word	seq_122_6 + 0x4C
	.byte	PATT
	 .word	seq_122_6 + 0x85
	.byte	PATT
	 .word	seq_122_6 + 0xBB
	.byte	PATT
	 .word	seq_122_6 + 0xD3
	.byte	PATT
	 .word	seq_122_6 + 0x109
	.byte	PATT
	 .word	seq_122_6 + 0x149
	.byte	W96
	.byte	W96
	.byte	W96
	.byte	W96
	.byte	PATT
	 .word	seq_122_6 + 0xBB
	.byte	PATT
	 .word	seq_122_6 + 0xD3
	.byte	PATT
	 .word	seq_122_6 + 0x109
	.byte	PATT
	 .word	seq_122_6 + 0x149
	.byte	PATT
	 .word	seq_122_6 + 0x16
	.byte	PATT
	 .word	seq_122_6 + 0x4C
	.byte	PATT
	 .word	seq_122_6 + 0x85
	.byte	W96
	.byte	W96
	.byte	W96
	.byte	W96
	.byte	W96
	.byte	PATT
	 .word	seq_122_6 + 0x16
	.byte	PATT
	 .word	seq_122_6 + 0x4C
	.byte	PATT
	 .word	seq_122_6 + 0x85
	.byte	PATT
	 .word	seq_122_6 + 0xBB
	.byte	PATT
	 .word	seq_122_6 + 0xD3
	.byte	PATT
	 .word	seq_122_6 + 0x109
	.byte	PATT
	 .word	seq_122_6 + 0x149
	.byte	W96
	.byte	W96
	.byte	W96
	.byte	W96
	.byte	PATT
	 .word	seq_122_6 + 0xBB
	.byte	PATT
	 .word	seq_122_6 + 0xD3
	.byte	PATT
	 .word	seq_122_6 + 0x109
	.byte	PATT
	 .word	seq_122_6 + 0x149
	.byte	PATT
	 .word	seq_122_6 + 0x16
	.byte	PATT
	 .word	seq_122_6 + 0x4C
	.byte	PATT
	 .word	seq_122_6 + 0x85
	.byte	W96
	.byte	W96
	.byte	W96
	.byte	W96
	.byte	W96
	.byte	PATT
	 .word	seq_122_6 + 0x16
	.byte	PATT
	 .word	seq_122_6 + 0x4C
	.byte	PATT
	 .word	seq_122_6 + 0x85
	.byte	PATT
	 .word	seq_122_6 + 0xBB
	.byte	PATT
	 .word	seq_122_6 + 0xD3
	.byte	PATT
	 .word	seq_122_6 + 0x109
	.byte	PATT
	 .word	seq_122_6 + 0x149
	.byte	W96
	.byte	W96
	.byte	W96
	.byte	W96
	.byte	PATT
	 .word	seq_122_6 + 0xBB
	.byte	PATT
	 .word	seq_122_6 + 0xD3
	.byte	PATT
	 .word	seq_122_6 + 0x109
	.byte	PATT
	 .word	seq_122_6 + 0x149
	.byte	PATT
	 .word	seq_122_6 + 0x16
	.byte	PATT
	 .word	seq_122_6 + 0x4C
	.byte	PATT
	 .word	seq_122_6 + 0x85
	.byte	W96
	.byte	W96
	.byte	W96
	.byte	W96
	.byte	W96
	.byte	PATT
	 .word	seq_122_6 + 0x16
	.byte	PATT
	 .word	seq_122_6 + 0x4C
	.byte	PATT
	 .word	seq_122_6 + 0x85
	.byte	PATT
	 .word	seq_122_6 + 0xBB
	.byte	PATT
	 .word	seq_122_6 + 0xD3
	.byte	PATT
	 .word	seq_122_6 + 0x109
	.byte	PATT
	 .word	seq_122_6 + 0x149
	.byte	W96
	.byte	W96
	.byte	W96
	.byte	W96
	.byte	PATT
	 .word	seq_122_6 + 0xBB
	.byte	PATT
	 .word	seq_122_6 + 0xD3
	.byte	PATT
	 .word	seq_122_6 + 0x109
	.byte	PATT
	 .word	seq_122_6 + 0x149
	.byte	PATT
	 .word	seq_122_6 + 0x16
	.byte	PATT
	 .word	seq_122_6 + 0x4C
	.byte	PATT
	 .word	seq_122_6 + 0x85
	.byte	W96
	.byte	W96
	.byte	W96
	.byte	W96
	.byte	W96
	.byte	PATT
	 .word	seq_122_6 + 0x16
	.byte	PATT
	 .word	seq_122_6 + 0x4C
	.byte	PATT
	 .word	seq_122_6 + 0x85
	.byte	PATT
	 .word	seq_122_6 + 0xBB
	.byte	PATT
	 .word	seq_122_6 + 0xD3
	.byte	PATT
	 .word	seq_122_6 + 0x109
	.byte	PATT
	 .word	seq_122_6 + 0x149
	.byte	W96
	.byte	W96
	.byte	W96
	.byte	W96
	.byte	PATT
	 .word	seq_122_6 + 0xBB
	.byte	PATT
	 .word	seq_122_6 + 0xD3
	.byte	PATT
	 .word	seq_122_6 + 0x109
	.byte	PATT
	 .word	seq_122_6 + 0x149
	.byte	PATT
	 .word	seq_122_6 + 0x16
	.byte	PATT
	 .word	seq_122_6 + 0x4C
	.byte	PATT
	 .word	seq_122_6 + 0x85
	.byte	W96
	.byte	W96
	.byte	W96
	.byte	W96
	.byte	W96
	.byte	PATT
	 .word	seq_122_6 + 0x16
	.byte	PATT
	 .word	seq_122_6 + 0x4C
	.byte	PATT
	 .word	seq_122_6 + 0x85
	.byte	PATT
	 .word	seq_122_6 + 0xBB
	.byte	PATT
	 .word	seq_122_6 + 0xD3
	.byte	PATT
	 .word	seq_122_6 + 0x109
	.byte	PATT
	 .word	seq_122_6 + 0x149
	.byte	W96
	.byte	W96
	.byte	W96
	.byte	W96
	.byte	PATT
	 .word	seq_122_6 + 0xBB
	.byte	PATT
	 .word	seq_122_6 + 0xD3
	.byte	PATT
	 .word	seq_122_6 + 0x109
	.byte	PATT
	 .word	seq_122_6 + 0x149
	.byte	PATT
	 .word	seq_122_6 + 0x16
	.byte	PATT
	 .word	seq_122_6 + 0x4C
	.byte	PATT
	 .word	seq_122_6 + 0x85
	.byte	W96
	.byte	W96
	.byte	W96
	.byte	W96
	.byte	W96
	.byte	PATT
	 .word	seq_122_6 + 0x16
	.byte	PATT
	 .word	seq_122_6 + 0x4C
	.byte	PATT
	 .word	seq_122_6 + 0x85
	.byte	PATT
	 .word	seq_122_6 + 0xBB
	.byte	PATT
	 .word	seq_122_6 + 0xD3
	.byte	PATT
	 .word	seq_122_6 + 0x109
	.byte	PATT
	 .word	seq_122_6 + 0x149
	.byte	W96
	.byte	W96
	.byte	W96
	.byte	W96
	.byte	PATT
	 .word	seq_122_6 + 0xBB
	.byte	PATT
	 .word	seq_122_6 + 0xD3
	.byte	PATT
	 .word	seq_122_6 + 0x109
	.byte	PATT
	 .word	seq_122_6 + 0x149
	.byte	PATT
	 .word	seq_122_6 + 0x16
	.byte	PATT
	 .word	seq_122_6 + 0x4C
	.byte	PATT
	 .word	seq_122_6 + 0x85
	.byte	W96
	.byte	W96
	.byte	W96
	.byte	W96
	.byte	W96
	.byte	PATT
	 .word	seq_122_6 + 0x16
	.byte	PATT
	 .word	seq_122_6 + 0x4C
	.byte	PATT
	 .word	seq_122_6 + 0x85
	.byte	PATT
	 .word	seq_122_6 + 0xBB
	.byte	PATT
	 .word	seq_122_6 + 0xD3
	.byte	PATT
	 .word	seq_122_6 + 0x109
	.byte	PATT
	 .word	seq_122_6 + 0x149
	.byte	W96
	.byte	W96
	.byte	W96
	.byte	W96
	.byte	PATT
	 .word	seq_122_6 + 0xBB
	.byte	PATT
	 .word	seq_122_6 + 0xD3
	.byte	PATT
	 .word	seq_122_6 + 0x109
	.byte	PATT
	 .word	seq_122_6 + 0x149
	.byte	PATT
	 .word	seq_122_6 + 0x16
	.byte	PATT
	 .word	seq_122_6 + 0x4C
	.byte	PATT
	 .word	seq_122_6 + 0x85
	.byte	W96
	.byte	W96
	.byte	W96
	.byte	W96
	.byte	W96
	.byte	PATT
	 .word	seq_122_6 + 0x16
	.byte	PATT
	 .word	seq_122_6 + 0x4C
	.byte	PATT
	 .word	seq_122_6 + 0x85
	.byte	PATT
	 .word	seq_122_6 + 0xBB
	.byte	PATT
	 .word	seq_122_6 + 0xD3
	.byte	PATT
	 .word	seq_122_6 + 0x109
	.byte	PATT
	 .word	seq_122_6 + 0x149
	.byte	W96
	.byte	W96
	.byte	W96
	.byte	W96
	.byte	PATT
	 .word	seq_122_6 + 0xBB
	.byte	PATT
	 .word	seq_122_6 + 0xD3
	.byte	PATT
	 .word	seq_122_6 + 0x109
	.byte	PATT
	 .word	seq_122_6 + 0x149
	.byte	PATT
	 .word	seq_122_6 + 0x16
	.byte	PATT
	 .word	seq_122_6 + 0x4C
	.byte	PATT
	 .word	seq_122_6 + 0x85
	.byte	W96
	.byte	W96
	.byte	W96
	.byte	W96
	.byte	W96
	.byte	PATT
	 .word	seq_122_6 + 0x16
	.byte	PATT
	 .word	seq_122_6 + 0x4C
	.byte	PATT
	 .word	seq_122_6 + 0x85
	.byte	PATT
	 .word	seq_122_6 + 0xBB
	.byte	PATT
	 .word	seq_122_6 + 0xD3
	.byte	PATT
	 .word	seq_122_6 + 0x109
	.byte	PATT
	 .word	seq_122_6 + 0x149
	.byte	W96
	.byte	W96
	.byte	W96
	.byte	W96
	.byte	PATT
	 .word	seq_122_6 + 0xBB
	.byte	PATT
	 .word	seq_122_6 + 0xD3
	.byte	PATT
	 .word	seq_122_6 + 0x109
	.byte	PATT
	 .word	seq_122_6 + 0x149
	.byte	PATT
	 .word	seq_122_6 + 0x16
	.byte	PATT
	 .word	seq_122_6 + 0x4C
	.byte	PATT
	 .word	seq_122_6 + 0x85
	.byte	W96
	.byte	W96
	.byte	W96
	.byte	W96
	.byte	W96
	.byte	PATT
	 .word	seq_122_6 + 0x16
	.byte	PATT
	 .word	seq_122_6 + 0x4C
	.byte	PATT
	 .word	seq_122_6 + 0x85
	.byte	PATT
	 .word	seq_122_6 + 0xBB
	.byte	PATT
	 .word	seq_122_6 + 0xD3
	.byte	PATT
	 .word	seq_122_6 + 0x109
	.byte	PATT
	 .word	seq_122_6 + 0x149
	.byte	W96
	.byte	W96
	.byte	W96
	.byte	W96
	.byte	PATT
	 .word	seq_122_6 + 0xBB
	.byte	PATT
	 .word	seq_122_6 + 0xD3
	.byte	PATT
	 .word	seq_122_6 + 0x109
	.byte	PATT
	 .word	seq_122_6 + 0x149
	.byte	PATT
	 .word	seq_122_6 + 0x16
	.byte	PATT
	 .word	seq_122_6 + 0x4C
	.byte	PATT
	 .word	seq_122_6 + 0x85
	.byte	W96
	.byte	W96
	.byte	W96
	.byte	W96
	.byte	W96
	.byte	PATT
	 .word	seq_122_6 + 0x16
	.byte	PATT
	 .word	seq_122_6 + 0x4C
	.byte	PATT
	 .word	seq_122_6 + 0x85
	.byte	PATT
	 .word	seq_122_6 + 0xBB
	.byte	PATT
	 .word	seq_122_6 + 0xD3
	.byte	PATT
	 .word	seq_122_6 + 0x109
	.byte	PATT
	 .word	seq_122_6 + 0x149
	.byte	W96
	.byte	W96
	.byte	W96
	.byte	W96
	.byte	PATT
	 .word	seq_122_6 + 0xBB
	.byte	PATT
	 .word	seq_122_6 + 0xD3
	.byte	PATT
	 .word	seq_122_6 + 0x109
	.byte	PATT
	 .word	seq_122_6 + 0x149
	.byte	PATT
	 .word	seq_122_6 + 0x16
	.byte	PATT
	 .word	seq_122_6 + 0x4C
	.byte	PATT
	 .word	seq_122_6 + 0x85
	.byte	W96
	.byte	W96
	.byte	W96
	.byte	W96
	.byte	W96
	.byte	GOTO
	 .word	seq_122_6 + 0x15
	.byte	FINE

@******************************************************@

	.align	2

seq_122:
	.byte	7	@ NumTrks
	.byte	0	@ NumBlks
	.byte	seq_122_pri	@ Priority
	.byte	seq_122_rev	@ Reverb

	.word	seq_122_grp

	.word	seq_122_0
	.word	seq_122_1
	.word	seq_122_2
	.word	seq_122_3
	.word	seq_122_4
	.word	seq_122_5
	.word	seq_122_6

	.end
