@ File generated by m4a2s Song-Module
	.include "MPlayDef.s"

	.equ	seq_615_grp, bank_026
	.equ	seq_615_pri, 127
	.equ	seq_615_rev, 0
	.equ	seq_615_mvl, 127
	.equ	seq_615_key, 0

	.section .rodata
	.global	seq_615
	.align	2

@*********************** Track 01 ***********************@

seq_615_0:
	.byte	KEYSH , seq_615_key+0
	.byte	TEMPO , 134/2
	.byte		VOICE , 20
	.byte		VOL   , 120*seq_615_mvl/mxv
	.byte		PAN   , c_v+0
	.byte	W01
	.byte		MOD   , 80
	.byte		LFOS  , 100
	.byte		MODT  , mod_pan
	.byte	W01
	.byte		N06   , Dn3 , v120
	.byte	W06
	.byte		N03   , Dn3 , v060
	.byte	W03
	.byte		        Dn3 , v040
	.byte	W02
	.byte		VOICE , 11
	.byte	W01
	.byte		N02   , Fs4 , v080
	.byte	W01
	.byte		VOICE , 20
	.byte	W01
	.byte		N10   , Dn3 , v060
	.byte	W10
	.byte		N12   , Dn3 , v020
	.byte	W11
	.byte		VOICE , 11
	.byte	W01
	.byte		N02   , Cs4 , v060
	.byte	W01
	.byte		VOICE , 20
	.byte	W01
	.byte		N07   , Dn3 
	.byte	W07
	.byte		N03   , Dn3 , v020
	.byte	W03
	.byte		N12   , Dn3 , v060
	.byte	W11
	.byte		VOICE , 11
	.byte	W01
	.byte		N02   , Gn4 , v080
	.byte	W02
	.byte		        Fn4 , v060
	.byte	W01
	.byte		VOICE , 20
	.byte	W01
	.byte		N06   , Dn3 , v080
	.byte	W05
	.byte		VOICE , 11
	.byte	W01
	.byte		N02   , Fn4 , v040
	.byte	W01
	.byte		VOICE , 20
	.byte	W01
	.byte		N15   , Dn3 , v060
	.byte	W15
	.byte		N03   , Dn3 , v020
	.byte	W02
	.byte		VOICE , 11
	.byte	W01
	.byte		N02   , Ds4 , v040
	.byte	W01
	.byte		VOICE , 20
	.byte	W01
	.byte		N06   , Dn3 
	.byte	W02
	.byte	W04
	.byte		N16   , Dn3 , v020
	.byte	W16
	.byte	FINE

@******************************************************@

	.align	2

seq_615:
	.byte	1	@ NumTrks
	.byte	0	@ NumBlks
	.byte	seq_615_pri	@ Priority
	.byte	seq_615_rev	@ Reverb

	.word	seq_615_grp

	.word	seq_615_0

	.end
