@ File generated by m4a2s Song-Module
	.include "MPlayDef.s"

	.equ	seq_117_grp, bank_014
	.equ	seq_117_pri, 50
	.equ	seq_117_rev, 203
	.equ	seq_117_mvl, 127
	.equ	seq_117_key, 0

	.section .rodata
	.global	seq_117
	.align	2

@*********************** Track 01 ***********************@

seq_117_0:
	.byte	KEYSH , seq_117_key+0
	.byte	TEMPO , 140/2
	.byte		VOICE , 42
	.byte	W01
	.byte		VOL   , 43*seq_117_mvl/mxv
	.byte	W01
	.byte		PAN   , c_v+0
	.byte	W01
	.byte		LFOS  , 100
	.byte	W01
	.byte		MODT  , mod_pan
	.byte	W01
	.byte		BENDR , 5
	.byte	W01
	.byte		MOD   , 60
	.byte	W18
	.byte	W96
	.byte	W12
	.byte		TIE   , Cs0 , v120
	.byte	W84
	.byte	PEND
	.byte	W96
	.byte	W36
	.byte		EOT
	.byte		TIE   , AnM1, v080
	.byte	W60
	.byte	W96
	.byte	W48
	.byte		EOT
	.byte		TIE   , Gs0 , v120
	.byte	W48
	.byte	W90
	.byte		EOT
	.byte		TIE   , Cn0 , v080
	.byte	W06
	.byte	W96
	.byte	W96
	.byte		EOT
	.byte	W96
	.byte	W78
	.byte		TIE   , Cs0 , v120
	.byte	W18
	.byte	PEND
	.byte	W96
	.byte	W96
	.byte	W36
	.byte		EOT
	.byte		TIE   , AnM1, v080
	.byte	W60
	.byte	W96
	.byte	W48
	.byte		EOT
	.byte		TIE   , Gs0 , v120
	.byte	W48
	.byte	W90
	.byte		EOT
	.byte		TIE   , Cn0 , v080
	.byte	W06
	.byte	W96
	.byte	W96
	.byte	W12
	.byte		EOT
	.byte	W84
	.byte	W96
	.byte	W96
	.byte	PATT
	 .word	seq_117_0 + 0x1A
	.byte	W96
	.byte	W36
	.byte		EOT   , Cs0 
	.byte		TIE   , AnM1, v080
	.byte	W60
	.byte	W96
	.byte	W48
	.byte		EOT
	.byte		TIE   , Gs0 , v120
	.byte	W48
	.byte	W90
	.byte		EOT
	.byte		TIE   , Cn0 , v080
	.byte	W06
	.byte	W96
	.byte	W96
	.byte		EOT
	.byte	W96
	.byte	PATT
	 .word	seq_117_0 + 0x38
	.byte	W96
	.byte	W96
	.byte	W36
	.byte		EOT   , Cs0 
	.byte		TIE   , AnM1, v080
	.byte	W60
	.byte	W96
	.byte	W48
	.byte		EOT
	.byte		TIE   , Gs0 , v120
	.byte	W48
	.byte	W90
	.byte		EOT
	.byte		TIE   , Cn0 , v080
	.byte	W06
	.byte	W96
	.byte	W96
	.byte	W12
	.byte		EOT
	.byte	W84
	.byte	W96
	.byte	W96
	.byte	PATT
	 .word	seq_117_0 + 0x1A
	.byte	W96
	.byte	W36
	.byte		EOT   , Cs0 
	.byte		TIE   , AnM1, v080
	.byte	W60
	.byte	W96
	.byte	W48
	.byte		EOT
	.byte		TIE   , Gs0 , v120
	.byte	W48
	.byte	W90
	.byte		EOT
	.byte		TIE   , Cn0 , v080
	.byte	W06
	.byte	W96
	.byte	W96
	.byte		EOT
	.byte	W96
	.byte	PATT
	 .word	seq_117_0 + 0x38
	.byte	W96
	.byte	W96
	.byte	W36
	.byte		EOT   , Cs0 
	.byte		TIE   , AnM1, v080
	.byte	W60
	.byte	W96
	.byte	W48
	.byte		EOT
	.byte		TIE   , Gs0 , v120
	.byte	W48
	.byte	W90
	.byte		EOT
	.byte		TIE   , Cn0 , v080
	.byte	W06
	.byte	W96
	.byte	W96
	.byte	W12
	.byte		EOT
	.byte	W84
	.byte	W96
	.byte	W96
	.byte	PATT
	 .word	seq_117_0 + 0x1A
	.byte	W96
	.byte	W36
	.byte		EOT   , Cs0 
	.byte		TIE   , AnM1, v080
	.byte	W60
	.byte	W96
	.byte	W48
	.byte		EOT
	.byte		TIE   , Gs0 , v120
	.byte	W48
	.byte	W90
	.byte		EOT
	.byte		TIE   , Cn0 , v080
	.byte	W06
	.byte	W96
	.byte	W96
	.byte		EOT
	.byte	W96
	.byte	PATT
	 .word	seq_117_0 + 0x38
	.byte	W96
	.byte	W96
	.byte	W36
	.byte		EOT   , Cs0 
	.byte		TIE   , AnM1, v080
	.byte	W60
	.byte	W96
	.byte	W48
	.byte		EOT
	.byte		TIE   , Gs0 , v120
	.byte	W48
	.byte	W90
	.byte		EOT
	.byte		TIE   , Cn0 , v080
	.byte	W06
	.byte	W96
	.byte	W96
	.byte	W12
	.byte		EOT
	.byte	W84
	.byte	W96
	.byte	W96
	.byte	PATT
	 .word	seq_117_0 + 0x1A
	.byte	W96
	.byte	W36
	.byte		EOT   , Cs0 
	.byte		TIE   , AnM1, v080
	.byte	W60
	.byte	W96
	.byte	W48
	.byte		EOT
	.byte		TIE   , Gs0 , v120
	.byte	W48
	.byte	W90
	.byte		EOT
	.byte		TIE   , Cn0 , v080
	.byte	W06
	.byte	W96
	.byte	W96
	.byte		EOT
	.byte	W96
	.byte	PATT
	 .word	seq_117_0 + 0x38
	.byte	W96
	.byte	W96
	.byte	W36
	.byte		EOT   , Cs0 
	.byte		TIE   , AnM1, v080
	.byte	W60
	.byte	W96
	.byte	W48
	.byte		EOT
	.byte		TIE   , Gs0 , v120
	.byte	W48
	.byte	W90
	.byte		EOT
	.byte		TIE   , Cn0 , v080
	.byte	W06
	.byte	W96
	.byte	W96
	.byte	W12
	.byte		EOT
	.byte	W84
	.byte	W96
	.byte	W96
	.byte	PATT
	 .word	seq_117_0 + 0x1A
	.byte	W96
	.byte	W36
	.byte		EOT   , Cs0 
	.byte		TIE   , AnM1, v080
	.byte	W60
	.byte	W96
	.byte	W48
	.byte		EOT
	.byte		TIE   , Gs0 , v120
	.byte	W48
	.byte	W90
	.byte		EOT
	.byte		TIE   , Cn0 , v080
	.byte	W06
	.byte	W96
	.byte	W96
	.byte		EOT
	.byte	W96
	.byte	PATT
	 .word	seq_117_0 + 0x38
	.byte	W96
	.byte	W96
	.byte	W36
	.byte		EOT   , Cs0 
	.byte		TIE   , AnM1, v080
	.byte	W60
	.byte	W96
	.byte	W48
	.byte		EOT
	.byte		TIE   , Gs0 , v120
	.byte	W48
	.byte	W90
	.byte		EOT
	.byte		TIE   , Cn0 , v080
	.byte	W06
	.byte	W96
	.byte	W96
	.byte	W12
	.byte		EOT
	.byte	W84
	.byte	W96
	.byte	W96
	.byte	PATT
	 .word	seq_117_0 + 0x1A
	.byte	W96
	.byte	W36
	.byte		EOT   , Cs0 
	.byte		TIE   , AnM1, v080
	.byte	W60
	.byte	W96
	.byte	W48
	.byte		EOT
	.byte		TIE   , Gs0 , v120
	.byte	W48
	.byte	W90
	.byte		EOT
	.byte		TIE   , Cn0 , v080
	.byte	W06
	.byte	W96
	.byte	W96
	.byte		EOT
	.byte	W96
	.byte	PATT
	 .word	seq_117_0 + 0x38
	.byte	W96
	.byte	W96
	.byte	W36
	.byte		EOT   , Cs0 
	.byte		TIE   , AnM1, v080
	.byte	W60
	.byte	W96
	.byte	W48
	.byte		EOT
	.byte		TIE   , Gs0 , v120
	.byte	W48
	.byte	W90
	.byte		EOT
	.byte		TIE   , Cn0 , v080
	.byte	W06
	.byte	W96
	.byte	W96
	.byte	W12
	.byte		EOT
	.byte	W84
	.byte	W96
	.byte	W96
	.byte	PATT
	 .word	seq_117_0 + 0x1A
	.byte	W96
	.byte	W36
	.byte		EOT   , Cs0 
	.byte		TIE   , AnM1, v080
	.byte	W60
	.byte	W96
	.byte	W48
	.byte		EOT
	.byte		TIE   , Gs0 , v120
	.byte	W48
	.byte	W90
	.byte		EOT
	.byte		TIE   , Cn0 , v080
	.byte	W06
	.byte	W96
	.byte	W96
	.byte		EOT
	.byte	W96
	.byte	PATT
	 .word	seq_117_0 + 0x38
	.byte	W96
	.byte	W96
	.byte	W36
	.byte		EOT   , Cs0 
	.byte		TIE   , AnM1, v080
	.byte	W60
	.byte	W96
	.byte	W48
	.byte		EOT
	.byte		TIE   , Gs0 , v120
	.byte	W48
	.byte	W90
	.byte		EOT
	.byte		TIE   , Cn0 , v080
	.byte	W06
	.byte	W96
	.byte	W96
	.byte	W12
	.byte		EOT
	.byte	W84
	.byte	W96
	.byte	W96
	.byte	PATT
	 .word	seq_117_0 + 0x1A
	.byte	W96
	.byte	W36
	.byte		EOT   , Cs0 
	.byte		TIE   , AnM1, v080
	.byte	W60
	.byte	W96
	.byte	W48
	.byte		EOT
	.byte		TIE   , Gs0 , v120
	.byte	W48
	.byte	W90
	.byte		EOT
	.byte		TIE   , Cn0 , v080
	.byte	W06
	.byte	W96
	.byte	W96
	.byte		EOT
	.byte	W96
	.byte	PATT
	 .word	seq_117_0 + 0x38
	.byte	W96
	.byte	W96
	.byte	W36
	.byte		EOT   , Cs0 
	.byte		TIE   , AnM1, v080
	.byte	W60
	.byte	W96
	.byte	W48
	.byte		EOT
	.byte		TIE   , Gs0 , v120
	.byte	W48
	.byte	W90
	.byte		EOT
	.byte		TIE   , Cn0 , v080
	.byte	W06
	.byte	W96
	.byte	W96
	.byte	W12
	.byte		EOT
	.byte	W84
	.byte	W96
	.byte	W96
	.byte	PATT
	 .word	seq_117_0 + 0x1A
	.byte	W96
	.byte	W36
	.byte		EOT   , Cs0 
	.byte		TIE   , AnM1, v080
	.byte	W60
	.byte	W96
	.byte	W48
	.byte		EOT
	.byte		TIE   , Gs0 , v120
	.byte	W48
	.byte	W90
	.byte		EOT
	.byte		TIE   , Cn0 , v080
	.byte	W06
	.byte	W96
	.byte	W96
	.byte		EOT
	.byte	W96
	.byte	PATT
	 .word	seq_117_0 + 0x38
	.byte	W96
	.byte	W96
	.byte	W36
	.byte		EOT   , Cs0 
	.byte		TIE   , AnM1, v080
	.byte	W60
	.byte	W96
	.byte	W48
	.byte		EOT
	.byte		TIE   , Gs0 , v120
	.byte	W48
	.byte	W90
	.byte		EOT
	.byte		TIE   , Cn0 , v080
	.byte	W06
	.byte	W96
	.byte	W96
	.byte	W12
	.byte		EOT
	.byte	W84
	.byte	W96
	.byte	W96
	.byte	PATT
	 .word	seq_117_0 + 0x1A
	.byte	W96
	.byte	W36
	.byte		EOT   , Cs0 
	.byte		TIE   , AnM1, v080
	.byte	W60
	.byte	W96
	.byte	W48
	.byte		EOT
	.byte		TIE   , Gs0 , v120
	.byte	W48
	.byte	W90
	.byte		EOT
	.byte		TIE   , Cn0 , v080
	.byte	W06
	.byte	W96
	.byte	W96
	.byte		EOT
	.byte	W96
	.byte	PATT
	 .word	seq_117_0 + 0x38
	.byte	W96
	.byte	W96
	.byte	W36
	.byte		EOT   , Cs0 
	.byte		TIE   , AnM1, v080
	.byte	W60
	.byte	W96
	.byte	W48
	.byte		EOT
	.byte		TIE   , Gs0 , v120
	.byte	W48
	.byte	W90
	.byte		EOT
	.byte		TIE   , Cn0 , v080
	.byte	W06
	.byte	W96
	.byte	W96
	.byte	W12
	.byte		EOT
	.byte	W84
	.byte	W96
	.byte	W96
	.byte	PATT
	 .word	seq_117_0 + 0x1A
	.byte	W96
	.byte	W36
	.byte		EOT   , Cs0 
	.byte		TIE   , AnM1, v080
	.byte	W60
	.byte	W96
	.byte	W48
	.byte		EOT
	.byte		TIE   , Gs0 , v120
	.byte	W48
	.byte	W90
	.byte		EOT
	.byte		TIE   , Cn0 , v080
	.byte	W06
	.byte	W96
	.byte	W96
	.byte		EOT
	.byte	W96
	.byte	PATT
	 .word	seq_117_0 + 0x38
	.byte	W96
	.byte	W96
	.byte	W36
	.byte		EOT   , Cs0 
	.byte		TIE   , AnM1, v080
	.byte	W60
	.byte	W96
	.byte	W48
	.byte		EOT
	.byte		TIE   , Gs0 , v120
	.byte	W48
	.byte	W90
	.byte		EOT
	.byte		TIE   , Cn0 , v080
	.byte	W06
	.byte	W96
	.byte	W96
	.byte	W12
	.byte		EOT
	.byte	W84
	.byte	W96
	.byte	W96
	.byte	PATT
	 .word	seq_117_0 + 0x1A
	.byte	W96
	.byte	W36
	.byte		EOT   , Cs0 
	.byte		TIE   , AnM1, v080
	.byte	W60
	.byte	W96
	.byte	W48
	.byte		EOT
	.byte		TIE   , Gs0 , v120
	.byte	W48
	.byte	W90
	.byte		EOT
	.byte		TIE   , Cn0 , v080
	.byte	W06
	.byte	W96
	.byte	W96
	.byte		EOT
	.byte	W96
	.byte	PATT
	 .word	seq_117_0 + 0x38
	.byte	W96
	.byte	W96
	.byte	W36
	.byte		EOT   , Cs0 
	.byte		TIE   , AnM1, v080
	.byte	W60
	.byte	W96
	.byte	W48
	.byte		EOT
	.byte		TIE   , Gs0 , v120
	.byte	W48
	.byte	W90
	.byte		EOT
	.byte		TIE   , Cn0 , v080
	.byte	W06
	.byte	W96
	.byte	W96
	.byte	W12
	.byte		EOT
	.byte	W84
	.byte	W96
	.byte	W96
	.byte	PATT
	 .word	seq_117_0 + 0x1A
	.byte	W96
	.byte	W36
	.byte		EOT   , Cs0 
	.byte		TIE   , AnM1, v080
	.byte	W60
	.byte	W96
	.byte	W48
	.byte		EOT
	.byte		TIE   , Gs0 , v120
	.byte	W48
	.byte	W90
	.byte		EOT
	.byte		TIE   , Cn0 , v080
	.byte	W06
	.byte	W96
	.byte	W96
	.byte		EOT
	.byte	W96
	.byte	PATT
	 .word	seq_117_0 + 0x38
	.byte	W96
	.byte	W96
	.byte	W36
	.byte		EOT   , Cs0 
	.byte		TIE   , AnM1, v080
	.byte	W60
	.byte	W96
	.byte	W48
	.byte		EOT
	.byte		TIE   , Gs0 , v120
	.byte	W48
	.byte	W90
	.byte		EOT
	.byte		TIE   , Cn0 , v080
	.byte	W06
	.byte	W96
	.byte	W96
	.byte	W12
	.byte		EOT
	.byte	W84
	.byte	W96
	.byte	W96
	.byte	PATT
	 .word	seq_117_0 + 0x1A
	.byte	W96
	.byte	W36
	.byte		EOT   , Cs0 
	.byte		TIE   , AnM1, v080
	.byte	W60
	.byte	W96
	.byte	W48
	.byte		EOT
	.byte		TIE   , Gs0 , v120
	.byte	W48
	.byte	W90
	.byte		EOT
	.byte		TIE   , Cn0 , v080
	.byte	W06
	.byte	W96
	.byte	W96
	.byte		EOT
	.byte	W96
	.byte	PATT
	 .word	seq_117_0 + 0x38
	.byte	W96
	.byte	W96
	.byte	W36
	.byte		EOT   , Cs0 
	.byte		TIE   , AnM1, v080
	.byte	W60
	.byte	W96
	.byte	W48
	.byte		EOT
	.byte		TIE   , Gs0 , v120
	.byte	W48
	.byte	W90
	.byte		EOT
	.byte		TIE   , Cn0 , v080
	.byte	W06
	.byte	W96
	.byte	W96
	.byte	W12
	.byte		EOT
	.byte	W84
	.byte	W96
	.byte	W96
	.byte	PATT
	 .word	seq_117_0 + 0x1A
	.byte	W96
	.byte	W36
	.byte		EOT   , Cs0 
	.byte		TIE   , AnM1, v080
	.byte	W60
	.byte	W96
	.byte	W48
	.byte		EOT
	.byte		TIE   , Gs0 , v120
	.byte	W48
	.byte	W90
	.byte		EOT
	.byte		TIE   , Cn0 , v080
	.byte	W06
	.byte	W96
	.byte	W96
	.byte		EOT
	.byte	W96
	.byte	PATT
	 .word	seq_117_0 + 0x38
	.byte	W96
	.byte	W96
	.byte	W36
	.byte		EOT   , Cs0 
	.byte		TIE   , AnM1, v080
	.byte	W60
	.byte	W96
	.byte	W48
	.byte		EOT
	.byte		TIE   , Gs0 , v120
	.byte	W48
	.byte	W90
	.byte		EOT
	.byte		TIE   , Cn0 , v080
	.byte	W06
	.byte	W96
	.byte	W96
	.byte	W12
	.byte		EOT
	.byte	W84
	.byte	W96
	.byte	W96
	.byte	PATT
	 .word	seq_117_0 + 0x1A
	.byte	W96
	.byte	W36
	.byte		EOT   , Cs0 
	.byte		TIE   , AnM1, v080
	.byte	W60
	.byte	W96
	.byte	W48
	.byte		EOT
	.byte		TIE   , Gs0 , v120
	.byte	W48
	.byte	W90
	.byte		EOT
	.byte		TIE   , Cn0 , v080
	.byte	W06
	.byte	W96
	.byte	W96
	.byte		EOT
	.byte	W96
	.byte	PATT
	 .word	seq_117_0 + 0x38
	.byte	W96
	.byte	W96
	.byte	W36
	.byte		EOT   , Cs0 
	.byte		TIE   , AnM1, v080
	.byte	W60
	.byte	W96
	.byte	W48
	.byte		EOT
	.byte		TIE   , Gs0 , v120
	.byte	W48
	.byte	W90
	.byte		EOT
	.byte		TIE   , Cn0 , v080
	.byte	W06
	.byte	W96
	.byte	W96
	.byte	W12
	.byte		EOT
	.byte	W84
	.byte	W96
	.byte	W96
	.byte	PATT
	 .word	seq_117_0 + 0x1A
	.byte	W96
	.byte	W36
	.byte		EOT   , Cs0 
	.byte		TIE   , AnM1, v080
	.byte	W60
	.byte	W96
	.byte	W48
	.byte		EOT
	.byte		TIE   , Gs0 , v120
	.byte	W48
	.byte	W90
	.byte		EOT
	.byte		TIE   , Cn0 , v080
	.byte	W06
	.byte	W96
	.byte	W96
	.byte		EOT
	.byte	W96
	.byte	PATT
	 .word	seq_117_0 + 0x38
	.byte	W96
	.byte	W96
	.byte	W36
	.byte		EOT   , Cs0 
	.byte		TIE   , AnM1, v080
	.byte	W60
	.byte	W96
	.byte	W48
	.byte		EOT
	.byte		TIE   , Gs0 , v120
	.byte	W48
	.byte	W90
	.byte		EOT
	.byte		TIE   , Cn0 , v080
	.byte	W06
	.byte	W96
	.byte	W96
	.byte	W12
	.byte		EOT
	.byte	W84
	.byte	W96
	.byte	GOTO
	 .word	seq_117_0 + 0x19
	.byte	FINE

@*********************** Track 02 ***********************@

seq_117_1:
	.byte	KEYSH , seq_117_key+0
	.byte		VOICE , 44
	.byte	W01
	.byte		VOL   , 0*seq_117_mvl/mxv
	.byte	W01
	.byte		PAN   , c_v-64
	.byte	W01
	.byte		LFOS  , 30
	.byte	W01
	.byte		MODT  , mod_vib
	.byte	W01
	.byte		LFODL , 0
	.byte	W19
	.byte		TIE   , Ds3 , v060
	.byte	W08
	.byte		VOL   , 0*seq_117_mvl/mxv
	.byte	W01
	.byte		        1*seq_117_mvl/mxv
	.byte	W01
	.byte		        2*seq_117_mvl/mxv
	.byte	W01
	.byte		        3*seq_117_mvl/mxv
	.byte	W01
	.byte		        4*seq_117_mvl/mxv
	.byte	W01
	.byte		        5*seq_117_mvl/mxv
	.byte	W01
	.byte		        6*seq_117_mvl/mxv
	.byte	W01
	.byte		        6*seq_117_mvl/mxv
	.byte	W01
	.byte		        7*seq_117_mvl/mxv
	.byte	W01
	.byte		        8*seq_117_mvl/mxv
	.byte	W01
	.byte		        9*seq_117_mvl/mxv
	.byte	W01
	.byte		        10*seq_117_mvl/mxv
	.byte	W01
	.byte		        11*seq_117_mvl/mxv
	.byte	W01
	.byte		        12*seq_117_mvl/mxv
	.byte	W01
	.byte		        12*seq_117_mvl/mxv
	.byte	W01
	.byte		        14*seq_117_mvl/mxv
	.byte	W01
	.byte		        15*seq_117_mvl/mxv
	.byte	W01
	.byte		        16*seq_117_mvl/mxv
	.byte	W01
	.byte		        17*seq_117_mvl/mxv
	.byte	W01
	.byte		        18*seq_117_mvl/mxv
	.byte	W01
	.byte		        19*seq_117_mvl/mxv
	.byte	W01
	.byte		        19*seq_117_mvl/mxv
	.byte	W01
	.byte		        20*seq_117_mvl/mxv
	.byte	W01
	.byte		        21*seq_117_mvl/mxv
	.byte	W64
	.byte	W01
	.byte	W96
	.byte	W96
	.byte	W96
	.byte	W96
	.byte	W96
	.byte	W96
	.byte	W96
	.byte	W96
	.byte	W96
	.byte	W96
	.byte	W96
	.byte	W96
	.byte	W96
	.byte	W96
	.byte	W96
	.byte	W96
	.byte	W96
	.byte	W96
	.byte	W96
	.byte	W96
	.byte	W96
	.byte	W96
	.byte	W96
	.byte	W96
	.byte	W96
	.byte	W96
	.byte	W96
	.byte	W96
	.byte	W96
	.byte	W96
	.byte	W96
	.byte	W96
	.byte	W96
	.byte	W96
	.byte	W96
	.byte	W96
	.byte	W96
	.byte	W96
	.byte	W96
	.byte	W96
	.byte	W96
	.byte	W96
	.byte	W96
	.byte	W96
	.byte	W96
	.byte	W96
	.byte	W96
	.byte	W96
	.byte	W96
	.byte	W96
	.byte	W96
	.byte	W96
	.byte	W96
	.byte	W96
	.byte	W96
	.byte	W96
	.byte	W96
	.byte	W96
	.byte	W96
	.byte	W96
	.byte	W96
	.byte	W96
	.byte	W96
	.byte	W96
	.byte	W96
	.byte	W96
	.byte	W96
	.byte	W96
	.byte	W96
	.byte	W96
	.byte	W96
	.byte	W96
	.byte	W96
	.byte	W96
	.byte	W96
	.byte	W96
	.byte	W96
	.byte	W96
	.byte	W96
	.byte	W96
	.byte	W96
	.byte	W96
	.byte	W96
	.byte	W96
	.byte	W96
	.byte	W96
	.byte	W96
	.byte	W96
	.byte	W96
	.byte	W96
	.byte	W96
	.byte	W96
	.byte	W96
	.byte	W96
	.byte	W96
	.byte	W96
	.byte	W96
	.byte	W96
	.byte	W96
	.byte	W96
	.byte	W96
	.byte	W96
	.byte	W96
	.byte	W96
	.byte	W96
	.byte	W96
	.byte	W96
	.byte	W96
	.byte	W96
	.byte	W96
	.byte	W96
	.byte	W96
	.byte	W96
	.byte	W96
	.byte	W96
	.byte	W96
	.byte	W96
	.byte	W96
	.byte	W96
	.byte	W96
	.byte	W96
	.byte	W96
	.byte	W96
	.byte	W96
	.byte	W96
	.byte	W96
	.byte	W96
	.byte	W96
	.byte	W96
	.byte	W96
	.byte	W96
	.byte	W96
	.byte	W96
	.byte	W96
	.byte	W96
	.byte	W96
	.byte	W96
	.byte	W96
	.byte	W96
	.byte	W96
	.byte	W96
	.byte	W96
	.byte	W96
	.byte	W96
	.byte	W96
	.byte	W96
	.byte	W96
	.byte	W96
	.byte	W96
	.byte	W96
	.byte	W96
	.byte	W96
	.byte	W96
	.byte	W96
	.byte	W96
	.byte	W96
	.byte	W96
	.byte	W96
	.byte	W96
	.byte	W96
	.byte	W96
	.byte	W96
	.byte	W96
	.byte	W96
	.byte	W96
	.byte	W96
	.byte	W96
	.byte	W96
	.byte	W96
	.byte	W96
	.byte	W96
	.byte	W96
	.byte	W96
	.byte	W96
	.byte	W96
	.byte	W96
	.byte	W96
	.byte	W96
	.byte	W96
	.byte	W96
	.byte	W96
	.byte	W96
	.byte	W96
	.byte	W96
	.byte	W96
	.byte	W96
	.byte	W96
	.byte	W96
	.byte	W96
	.byte	W96
	.byte	W96
	.byte	W96
	.byte	W96
	.byte	W96
	.byte	W96
	.byte	W96
	.byte	W96
	.byte	W96
	.byte	W96
	.byte	W96
	.byte	W96
	.byte	W96
	.byte	W96
	.byte	W96
	.byte	W96
	.byte	W96
	.byte	W96
	.byte	W96
	.byte	W96
	.byte	W96
	.byte	W96
	.byte	W96
	.byte	W96
	.byte	W96
	.byte	W96
	.byte	W96
	.byte	W96
	.byte	W96
	.byte	W96
	.byte	W96
	.byte	W96
	.byte	W96
	.byte	W96
	.byte	W96
	.byte	W96
	.byte	W96
	.byte	W96
	.byte	W96
	.byte	W96
	.byte	W96
	.byte	W96
	.byte	W96
	.byte	W96
	.byte	W96
	.byte	W96
	.byte	W96
	.byte	W96
	.byte	W96
	.byte	W96
	.byte	W96
	.byte	W96
	.byte	W96
	.byte	W96
	.byte	W96
	.byte	W96
	.byte	W96
	.byte	W96
	.byte	W96
	.byte	W96
	.byte	W96
	.byte	W96
	.byte	W96
	.byte	W96
	.byte	W96
	.byte	W96
	.byte	W96
	.byte	W96
	.byte	W96
	.byte	W96
	.byte	W96
	.byte	W96
	.byte	W96
	.byte	W96
	.byte	W96
	.byte	W96
	.byte	W96
	.byte	W96
	.byte	W96
	.byte	W96
	.byte	W96
	.byte	W96
	.byte	W96
	.byte	W96
	.byte	W96
	.byte	W96
	.byte	W96
	.byte	W96
	.byte	W96
	.byte	W96
	.byte	W96
	.byte	W96
	.byte	W96
	.byte	W96
	.byte	W96
	.byte	W96
	.byte	W96
	.byte	W96
	.byte	W96
	.byte	W96
	.byte	W96
	.byte	W96
	.byte	W96
	.byte	W96
	.byte	W96
	.byte	W96
	.byte	W96
	.byte	W96
	.byte	W96
	.byte	W96
	.byte	W96
	.byte	W96
	.byte	W96
	.byte	W96
	.byte	W96
	.byte	W96
	.byte	W96
	.byte	W96
	.byte	W96
	.byte	W96
	.byte	W96
	.byte	W96
	.byte	W96
	.byte	W96
	.byte	W96
	.byte	W96
	.byte	W96
	.byte	W96
	.byte	W96
	.byte	W96
	.byte	W96
	.byte	W96
	.byte	W96
	.byte	W96
	.byte	W96
	.byte	W96
	.byte	W96
	.byte	W96
	.byte	W96
	.byte	W96
	.byte	W96
	.byte	W96
	.byte	W96
	.byte	W96
	.byte	W96
	.byte	W96
	.byte	W96
	.byte	W96
	.byte	W96
	.byte	W96
	.byte	W96
	.byte	W96
	.byte	W96
	.byte	W96
	.byte	W96
	.byte	W96
	.byte	W96
	.byte	W96
	.byte	W96
	.byte	W96
	.byte	W96
	.byte	W96
	.byte	W96
	.byte	W96
	.byte	W96
	.byte	W96
	.byte	W96
	.byte	W96
	.byte	W96
	.byte	W96
	.byte	W96
	.byte	W96
	.byte	W96
	.byte	W96
	.byte	W96
	.byte	W96
	.byte	W96
	.byte	W96
	.byte	W96
	.byte	W96
	.byte	W96
	.byte	W96
	.byte	W96
	.byte	W96
	.byte	W96
	.byte	W96
	.byte	W96
	.byte	W56
	.byte	W02
	.byte		        20*seq_117_mvl/mxv
	.byte	W01
	.byte		        19*seq_117_mvl/mxv
	.byte	W02
	.byte		        19*seq_117_mvl/mxv
	.byte	W01
	.byte		        18*seq_117_mvl/mxv
	.byte	W02
	.byte		        17*seq_117_mvl/mxv
	.byte	W01
	.byte		        16*seq_117_mvl/mxv
	.byte	W02
	.byte		        15*seq_117_mvl/mxv
	.byte	W01
	.byte		        14*seq_117_mvl/mxv
	.byte	W02
	.byte		        13*seq_117_mvl/mxv
	.byte	W01
	.byte		        12*seq_117_mvl/mxv
	.byte	W02
	.byte		        12*seq_117_mvl/mxv
	.byte	W01
	.byte		        11*seq_117_mvl/mxv
	.byte	W02
	.byte		        10*seq_117_mvl/mxv
	.byte	W01
	.byte		        9*seq_117_mvl/mxv
	.byte	W02
	.byte		        8*seq_117_mvl/mxv
	.byte	W01
	.byte		        7*seq_117_mvl/mxv
	.byte	W02
	.byte		        6*seq_117_mvl/mxv
	.byte	W01
	.byte		        6*seq_117_mvl/mxv
	.byte	W02
	.byte		        5*seq_117_mvl/mxv
	.byte	W01
	.byte		        4*seq_117_mvl/mxv
	.byte	W02
	.byte		        3*seq_117_mvl/mxv
	.byte	W01
	.byte		        2*seq_117_mvl/mxv
	.byte	W02
	.byte		        1*seq_117_mvl/mxv
	.byte	W01
	.byte		        0*seq_117_mvl/mxv
	.byte	W02
	.byte		        0*seq_117_mvl/mxv
	.byte	W02
	.byte		EOT
	.byte	GOTO
	 .word	seq_117_1 + 0x14
	.byte	FINE

@*********************** Track 03 ***********************@

seq_117_2:
	.byte	KEYSH , seq_117_key+0
	.byte		VOICE , 44
	.byte	W01
	.byte		VOL   , 0*seq_117_mvl/mxv
	.byte	W01
	.byte		PAN   , c_v+63
	.byte	W01
	.byte		LFOS  , 100
	.byte	W01
	.byte		MODT  , mod_pan
	.byte	W01
	.byte		MOD   , 60
	.byte	W19
	.byte		TIE   , En2 , v120
	.byte	W08
	.byte		VOL   , 0*seq_117_mvl/mxv
	.byte	W01
	.byte		        1*seq_117_mvl/mxv
	.byte	W01
	.byte		        2*seq_117_mvl/mxv
	.byte	W01
	.byte		        3*seq_117_mvl/mxv
	.byte	W01
	.byte		        4*seq_117_mvl/mxv
	.byte	W01
	.byte		        5*seq_117_mvl/mxv
	.byte	W01
	.byte		        6*seq_117_mvl/mxv
	.byte	W01
	.byte		        6*seq_117_mvl/mxv
	.byte	W01
	.byte		        7*seq_117_mvl/mxv
	.byte	W01
	.byte		        8*seq_117_mvl/mxv
	.byte	W01
	.byte		        9*seq_117_mvl/mxv
	.byte	W01
	.byte		        10*seq_117_mvl/mxv
	.byte	W01
	.byte		        11*seq_117_mvl/mxv
	.byte	W01
	.byte		        12*seq_117_mvl/mxv
	.byte	W01
	.byte		        12*seq_117_mvl/mxv
	.byte	W01
	.byte		        14*seq_117_mvl/mxv
	.byte	W01
	.byte		        15*seq_117_mvl/mxv
	.byte	W01
	.byte		        16*seq_117_mvl/mxv
	.byte	W01
	.byte		        17*seq_117_mvl/mxv
	.byte	W01
	.byte		        18*seq_117_mvl/mxv
	.byte	W01
	.byte		        19*seq_117_mvl/mxv
	.byte	W01
	.byte		        19*seq_117_mvl/mxv
	.byte	W01
	.byte		        20*seq_117_mvl/mxv
	.byte	W01
	.byte		        21*seq_117_mvl/mxv
	.byte	W64
	.byte	W01
	.byte	W96
	.byte	W96
	.byte	W96
	.byte	W96
	.byte	W96
	.byte	W96
	.byte	W96
	.byte	W96
	.byte	W96
	.byte	W96
	.byte	W96
	.byte	W96
	.byte	W96
	.byte	W96
	.byte	W96
	.byte	W96
	.byte	W96
	.byte	W96
	.byte	W96
	.byte	W96
	.byte	W96
	.byte	W96
	.byte	W96
	.byte	W96
	.byte	W96
	.byte	W96
	.byte	W96
	.byte	W96
	.byte	W96
	.byte	W96
	.byte	W96
	.byte	W96
	.byte	W96
	.byte	W96
	.byte	W96
	.byte	W96
	.byte	W96
	.byte	W96
	.byte	W96
	.byte	W96
	.byte	W96
	.byte	W96
	.byte	W96
	.byte	W96
	.byte	W96
	.byte	W96
	.byte	W96
	.byte	W96
	.byte	W96
	.byte	W96
	.byte	W96
	.byte	W96
	.byte	W96
	.byte	W96
	.byte	W96
	.byte	W96
	.byte	W96
	.byte	W96
	.byte	W96
	.byte	W96
	.byte	W96
	.byte	W96
	.byte	W96
	.byte	W96
	.byte	W96
	.byte	W96
	.byte	W96
	.byte	W96
	.byte	W96
	.byte	W96
	.byte	W96
	.byte	W96
	.byte	W96
	.byte	W96
	.byte	W96
	.byte	W96
	.byte	W96
	.byte	W96
	.byte	W96
	.byte	W96
	.byte	W96
	.byte	W96
	.byte	W96
	.byte	W96
	.byte	W96
	.byte	W96
	.byte	W96
	.byte	W96
	.byte	W96
	.byte	W96
	.byte	W96
	.byte	W96
	.byte	W96
	.byte	W96
	.byte	W96
	.byte	W96
	.byte	W96
	.byte	W96
	.byte	W96
	.byte	W96
	.byte	W96
	.byte	W96
	.byte	W96
	.byte	W96
	.byte	W96
	.byte	W96
	.byte	W96
	.byte	W96
	.byte	W96
	.byte	W96
	.byte	W96
	.byte	W96
	.byte	W96
	.byte	W96
	.byte	W96
	.byte	W96
	.byte	W96
	.byte	W96
	.byte	W96
	.byte	W96
	.byte	W96
	.byte	W96
	.byte	W96
	.byte	W96
	.byte	W96
	.byte	W96
	.byte	W96
	.byte	W96
	.byte	W96
	.byte	W96
	.byte	W96
	.byte	W96
	.byte	W96
	.byte	W96
	.byte	W96
	.byte	W96
	.byte	W96
	.byte	W96
	.byte	W96
	.byte	W96
	.byte	W96
	.byte	W96
	.byte	W96
	.byte	W96
	.byte	W96
	.byte	W96
	.byte	W96
	.byte	W96
	.byte	W96
	.byte	W96
	.byte	W96
	.byte	W96
	.byte	W96
	.byte	W96
	.byte	W96
	.byte	W96
	.byte	W96
	.byte	W96
	.byte	W96
	.byte	W96
	.byte	W96
	.byte	W96
	.byte	W96
	.byte	W96
	.byte	W96
	.byte	W96
	.byte	W96
	.byte	W96
	.byte	W96
	.byte	W96
	.byte	W96
	.byte	W96
	.byte	W96
	.byte	W96
	.byte	W96
	.byte	W96
	.byte	W96
	.byte	W96
	.byte	W96
	.byte	W96
	.byte	W96
	.byte	W96
	.byte	W96
	.byte	W96
	.byte	W96
	.byte	W96
	.byte	W96
	.byte	W96
	.byte	W96
	.byte	W96
	.byte	W96
	.byte	W96
	.byte	W96
	.byte	W96
	.byte	W96
	.byte	W96
	.byte	W96
	.byte	W96
	.byte	W96
	.byte	W96
	.byte	W96
	.byte	W96
	.byte	W96
	.byte	W96
	.byte	W96
	.byte	W96
	.byte	W96
	.byte	W96
	.byte	W96
	.byte	W96
	.byte	W96
	.byte	W96
	.byte	W96
	.byte	W96
	.byte	W96
	.byte	W96
	.byte	W96
	.byte	W96
	.byte	W96
	.byte	W96
	.byte	W96
	.byte	W96
	.byte	W96
	.byte	W96
	.byte	W96
	.byte	W96
	.byte	W96
	.byte	W96
	.byte	W96
	.byte	W96
	.byte	W96
	.byte	W96
	.byte	W96
	.byte	W96
	.byte	W96
	.byte	W96
	.byte	W96
	.byte	W96
	.byte	W96
	.byte	W96
	.byte	W96
	.byte	W96
	.byte	W96
	.byte	W96
	.byte	W96
	.byte	W96
	.byte	W96
	.byte	W96
	.byte	W96
	.byte	W96
	.byte	W96
	.byte	W96
	.byte	W96
	.byte	W96
	.byte	W96
	.byte	W96
	.byte	W96
	.byte	W96
	.byte	W96
	.byte	W96
	.byte	W96
	.byte	W96
	.byte	W96
	.byte	W96
	.byte	W96
	.byte	W96
	.byte	W96
	.byte	W96
	.byte	W96
	.byte	W96
	.byte	W96
	.byte	W96
	.byte	W96
	.byte	W96
	.byte	W96
	.byte	W96
	.byte	W96
	.byte	W96
	.byte	W96
	.byte	W96
	.byte	W96
	.byte	W96
	.byte	W96
	.byte	W96
	.byte	W96
	.byte	W96
	.byte	W96
	.byte	W96
	.byte	W96
	.byte	W96
	.byte	W96
	.byte	W96
	.byte	W96
	.byte	W96
	.byte	W96
	.byte	W96
	.byte	W96
	.byte	W96
	.byte	W96
	.byte	W96
	.byte	W96
	.byte	W96
	.byte	W96
	.byte	W96
	.byte	W96
	.byte	W96
	.byte	W96
	.byte	W96
	.byte	W96
	.byte	W96
	.byte	W96
	.byte	W96
	.byte	W96
	.byte	W96
	.byte	W96
	.byte	W96
	.byte	W96
	.byte	W96
	.byte	W96
	.byte	W96
	.byte	W96
	.byte	W96
	.byte	W96
	.byte	W96
	.byte	W96
	.byte	W96
	.byte	W96
	.byte	W96
	.byte	W96
	.byte	W96
	.byte	W96
	.byte	W96
	.byte	W96
	.byte	W96
	.byte	W96
	.byte	W96
	.byte	W96
	.byte	W96
	.byte	W96
	.byte	W96
	.byte	W96
	.byte	W96
	.byte	W96
	.byte	W96
	.byte	W96
	.byte	W96
	.byte	W96
	.byte	W96
	.byte	W96
	.byte	W96
	.byte	W96
	.byte	W96
	.byte	W96
	.byte	W96
	.byte	W96
	.byte	W96
	.byte	W96
	.byte	W96
	.byte	W96
	.byte	W96
	.byte	W96
	.byte	W96
	.byte	W96
	.byte	W96
	.byte	W96
	.byte	W96
	.byte	W96
	.byte	W96
	.byte	W96
	.byte	W96
	.byte	W96
	.byte	W96
	.byte	W96
	.byte	W96
	.byte	W96
	.byte	W96
	.byte	W56
	.byte	W02
	.byte		        20*seq_117_mvl/mxv
	.byte	W01
	.byte		        19*seq_117_mvl/mxv
	.byte	W02
	.byte		        19*seq_117_mvl/mxv
	.byte	W01
	.byte		        18*seq_117_mvl/mxv
	.byte	W02
	.byte		        17*seq_117_mvl/mxv
	.byte	W01
	.byte		        16*seq_117_mvl/mxv
	.byte	W02
	.byte		        15*seq_117_mvl/mxv
	.byte	W01
	.byte		        14*seq_117_mvl/mxv
	.byte	W02
	.byte		        13*seq_117_mvl/mxv
	.byte	W01
	.byte		        12*seq_117_mvl/mxv
	.byte	W02
	.byte		        12*seq_117_mvl/mxv
	.byte	W01
	.byte		        11*seq_117_mvl/mxv
	.byte	W02
	.byte		        10*seq_117_mvl/mxv
	.byte	W01
	.byte		        9*seq_117_mvl/mxv
	.byte	W02
	.byte		        8*seq_117_mvl/mxv
	.byte	W01
	.byte		        7*seq_117_mvl/mxv
	.byte	W02
	.byte		        6*seq_117_mvl/mxv
	.byte	W01
	.byte		        6*seq_117_mvl/mxv
	.byte	W02
	.byte		        5*seq_117_mvl/mxv
	.byte	W01
	.byte		        4*seq_117_mvl/mxv
	.byte	W02
	.byte		        3*seq_117_mvl/mxv
	.byte	W01
	.byte		        2*seq_117_mvl/mxv
	.byte	W02
	.byte		        1*seq_117_mvl/mxv
	.byte	W01
	.byte		        0*seq_117_mvl/mxv
	.byte	W02
	.byte		        0*seq_117_mvl/mxv
	.byte	W02
	.byte		EOT
	.byte	GOTO
	 .word	seq_117_2 + 0x14
	.byte	FINE

@*********************** Track 04 ***********************@

seq_117_3:
	.byte	KEYSH , seq_117_key+0
	.byte	W06
	.byte		VOICE , 40
	.byte	W01
	.byte		VOL   , 25*seq_117_mvl/mxv
	.byte	W01
	.byte		PAN   , c_v-44
	.byte	W01
	.byte		LFOS  , 80
	.byte	W01
	.byte		MODT  , mod_pan
	.byte	W01
	.byte		MOD   , 20
	.byte	W13
	.byte	W96
	.byte	W96
	.byte	W42
	.byte		N54   , Bn1 , v040
	.byte	W54
	.byte	W96
	.byte	W96
	.byte	W30
	.byte		        Bn1 , v080
	.byte	W66
	.byte	W96
	.byte	W96
	.byte	W96
	.byte	W96
	.byte	W90
	.byte		        Fs1 , v060
	.byte	W06
	.byte	W96
	.byte	W96
	.byte	W18
	.byte		        Bn1 , v040
	.byte	W78
	.byte	W96
	.byte	W48
	.byte		        Bn1 , v080
	.byte	W48
	.byte	W96
	.byte	W96
	.byte	W96
	.byte	W96
	.byte	W96
	.byte	W42
	.byte		        Bn1 , v040
	.byte	W54
	.byte	W96
	.byte	W96
	.byte	W30
	.byte		        Bn1 , v080
	.byte	W66
	.byte	W96
	.byte	W96
	.byte	W96
	.byte	W96
	.byte	W90
	.byte		        Fs1 , v060
	.byte	W06
	.byte	W96
	.byte	W96
	.byte	W18
	.byte		        Bn1 , v040
	.byte	W78
	.byte	W96
	.byte	W48
	.byte		        Bn1 , v080
	.byte	W48
	.byte	W96
	.byte	W96
	.byte	W96
	.byte	W96
	.byte	W96
	.byte	W96
	.byte	W96
	.byte	W42
	.byte		        Bn1 , v040
	.byte	W54
	.byte	W96
	.byte	W96
	.byte	W30
	.byte		        Bn1 , v080
	.byte	W66
	.byte	W96
	.byte	W96
	.byte	W96
	.byte	W96
	.byte	W90
	.byte		        Fs1 , v060
	.byte	W06
	.byte	W96
	.byte	W96
	.byte	W18
	.byte		        Bn1 , v040
	.byte	W78
	.byte	W96
	.byte	W48
	.byte		        Bn1 , v080
	.byte	W48
	.byte	W96
	.byte	W96
	.byte	W96
	.byte	W96
	.byte	W96
	.byte	W96
	.byte	W96
	.byte	W42
	.byte		        Bn1 , v040
	.byte	W54
	.byte	W96
	.byte	W96
	.byte	W30
	.byte		        Bn1 , v080
	.byte	W66
	.byte	W96
	.byte	W96
	.byte	W96
	.byte	W96
	.byte	W90
	.byte		        Fs1 , v060
	.byte	W06
	.byte	W96
	.byte	W96
	.byte	W18
	.byte		        Bn1 , v040
	.byte	W78
	.byte	W96
	.byte	W48
	.byte		        Bn1 , v080
	.byte	W48
	.byte	W96
	.byte	W96
	.byte	W96
	.byte	W96
	.byte	W96
	.byte	W96
	.byte	W96
	.byte	W42
	.byte		        Bn1 , v040
	.byte	W54
	.byte	W96
	.byte	W96
	.byte	W30
	.byte		        Bn1 , v080
	.byte	W66
	.byte	W96
	.byte	W96
	.byte	W96
	.byte	W96
	.byte	W90
	.byte		        Fs1 , v060
	.byte	W06
	.byte	W96
	.byte	W96
	.byte	W18
	.byte		        Bn1 , v040
	.byte	W78
	.byte	W96
	.byte	W48
	.byte		        Bn1 , v080
	.byte	W48
	.byte	W96
	.byte	W96
	.byte	W96
	.byte	W96
	.byte	W96
	.byte	W96
	.byte	W96
	.byte	W42
	.byte		        Bn1 , v040
	.byte	W54
	.byte	W96
	.byte	W96
	.byte	W30
	.byte		        Bn1 , v080
	.byte	W66
	.byte	W96
	.byte	W96
	.byte	W96
	.byte	W96
	.byte	W90
	.byte		        Fs1 , v060
	.byte	W06
	.byte	W96
	.byte	W96
	.byte	W18
	.byte		        Bn1 , v040
	.byte	W78
	.byte	W96
	.byte	W48
	.byte		        Bn1 , v080
	.byte	W48
	.byte	W96
	.byte	W96
	.byte	W96
	.byte	W96
	.byte	W96
	.byte	W96
	.byte	W96
	.byte	W42
	.byte		        Bn1 , v040
	.byte	W54
	.byte	W96
	.byte	W96
	.byte	W30
	.byte		        Bn1 , v080
	.byte	W66
	.byte	W96
	.byte	W96
	.byte	W96
	.byte	W96
	.byte	W90
	.byte		        Fs1 , v060
	.byte	W06
	.byte	W96
	.byte	W96
	.byte	W18
	.byte		        Bn1 , v040
	.byte	W78
	.byte	W96
	.byte	W48
	.byte		        Bn1 , v080
	.byte	W48
	.byte	W96
	.byte	W96
	.byte	W96
	.byte	W96
	.byte	W96
	.byte	W96
	.byte	W96
	.byte	W42
	.byte		        Bn1 , v040
	.byte	W54
	.byte	W96
	.byte	W96
	.byte	W30
	.byte		        Bn1 , v080
	.byte	W66
	.byte	W96
	.byte	W96
	.byte	W96
	.byte	W96
	.byte	W90
	.byte		        Fs1 , v060
	.byte	W06
	.byte	W96
	.byte	W96
	.byte	W18
	.byte		        Bn1 , v040
	.byte	W78
	.byte	W96
	.byte	W48
	.byte		        Bn1 , v080
	.byte	W48
	.byte	W96
	.byte	W96
	.byte	W96
	.byte	W96
	.byte	W96
	.byte	W96
	.byte	W96
	.byte	W42
	.byte		        Bn1 , v040
	.byte	W54
	.byte	W96
	.byte	W96
	.byte	W30
	.byte		        Bn1 , v080
	.byte	W66
	.byte	W96
	.byte	W96
	.byte	W96
	.byte	W96
	.byte	W90
	.byte		        Fs1 , v060
	.byte	W06
	.byte	W96
	.byte	W96
	.byte	W18
	.byte		        Bn1 , v040
	.byte	W78
	.byte	W96
	.byte	W48
	.byte		        Bn1 , v080
	.byte	W48
	.byte	W96
	.byte	W96
	.byte	W96
	.byte	W96
	.byte	W96
	.byte	W96
	.byte	W96
	.byte	W42
	.byte		        Bn1 , v040
	.byte	W54
	.byte	W96
	.byte	W96
	.byte	W30
	.byte		        Bn1 , v080
	.byte	W66
	.byte	W96
	.byte	W96
	.byte	W96
	.byte	W96
	.byte	W90
	.byte		        Fs1 , v060
	.byte	W06
	.byte	W96
	.byte	W96
	.byte	W18
	.byte		        Bn1 , v040
	.byte	W78
	.byte	W96
	.byte	W48
	.byte		        Bn1 , v080
	.byte	W48
	.byte	W96
	.byte	W96
	.byte	W96
	.byte	W96
	.byte	W96
	.byte	W96
	.byte	W96
	.byte	W42
	.byte		        Bn1 , v040
	.byte	W54
	.byte	W96
	.byte	W96
	.byte	W30
	.byte		        Bn1 , v080
	.byte	W66
	.byte	W96
	.byte	W96
	.byte	W96
	.byte	W96
	.byte	W90
	.byte		        Fs1 , v060
	.byte	W06
	.byte	W96
	.byte	W96
	.byte	W18
	.byte		        Bn1 , v040
	.byte	W78
	.byte	W96
	.byte	W48
	.byte		        Bn1 , v080
	.byte	W48
	.byte	W96
	.byte	W96
	.byte	W96
	.byte	W96
	.byte	W96
	.byte	W96
	.byte	W96
	.byte	W42
	.byte		        Bn1 , v040
	.byte	W54
	.byte	W96
	.byte	W96
	.byte	W30
	.byte		        Bn1 , v080
	.byte	W66
	.byte	W96
	.byte	W96
	.byte	W96
	.byte	W96
	.byte	W90
	.byte		        Fs1 , v060
	.byte	W06
	.byte	W96
	.byte	W96
	.byte	W18
	.byte		        Bn1 , v040
	.byte	W78
	.byte	W96
	.byte	W48
	.byte		        Bn1 , v080
	.byte	W48
	.byte	W96
	.byte	W96
	.byte	W96
	.byte	W96
	.byte	W96
	.byte	W96
	.byte	W96
	.byte	W42
	.byte		        Bn1 , v040
	.byte	W54
	.byte	W96
	.byte	W96
	.byte	W30
	.byte		        Bn1 , v080
	.byte	W66
	.byte	W96
	.byte	W96
	.byte	W96
	.byte	W96
	.byte	W90
	.byte		        Fs1 , v060
	.byte	W06
	.byte	W96
	.byte	W96
	.byte	W18
	.byte		        Bn1 , v040
	.byte	W78
	.byte	W96
	.byte	W48
	.byte		        Bn1 , v080
	.byte	W48
	.byte	W96
	.byte	W96
	.byte	W96
	.byte	W96
	.byte	W96
	.byte	W96
	.byte	W96
	.byte	W42
	.byte		        Bn1 , v040
	.byte	W54
	.byte	W96
	.byte	W96
	.byte	W30
	.byte		        Bn1 , v080
	.byte	W66
	.byte	W96
	.byte	W96
	.byte	W96
	.byte	W96
	.byte	W90
	.byte		        Fs1 , v060
	.byte	W06
	.byte	W96
	.byte	W96
	.byte	W18
	.byte		        Bn1 , v040
	.byte	W78
	.byte	W96
	.byte	W48
	.byte		        Bn1 , v080
	.byte	W48
	.byte	W96
	.byte	W96
	.byte	W96
	.byte	W96
	.byte	W96
	.byte	W96
	.byte	W96
	.byte	W42
	.byte		        Bn1 , v040
	.byte	W54
	.byte	W96
	.byte	W96
	.byte	W30
	.byte		        Bn1 , v080
	.byte	W66
	.byte	W96
	.byte	W96
	.byte	W96
	.byte	W96
	.byte	W90
	.byte		        Fs1 , v060
	.byte	W06
	.byte	W96
	.byte	W96
	.byte	W18
	.byte		        Bn1 , v040
	.byte	W78
	.byte	W96
	.byte	W48
	.byte		        Bn1 , v080
	.byte	W48
	.byte	W96
	.byte	W96
	.byte	W96
	.byte	W96
	.byte	W96
	.byte	W96
	.byte	W96
	.byte	W42
	.byte		        Bn1 , v040
	.byte	W54
	.byte	W96
	.byte	W96
	.byte	W30
	.byte		        Bn1 , v080
	.byte	W66
	.byte	W96
	.byte	W96
	.byte	W96
	.byte	W96
	.byte	W90
	.byte		        Fs1 , v060
	.byte	W06
	.byte	W96
	.byte	W96
	.byte	W18
	.byte		        Bn1 , v040
	.byte	W78
	.byte	W96
	.byte	W48
	.byte		        Bn1 , v080
	.byte	W48
	.byte	W96
	.byte	W96
	.byte	W96
	.byte	W96
	.byte	W96
	.byte	W96
	.byte	W96
	.byte	W42
	.byte		        Bn1 , v040
	.byte	W54
	.byte	W96
	.byte	W96
	.byte	W30
	.byte		        Bn1 , v080
	.byte	W66
	.byte	W96
	.byte	W96
	.byte	W96
	.byte	W96
	.byte	W90
	.byte		        Fs1 , v060
	.byte	W06
	.byte	W96
	.byte	W96
	.byte	W18
	.byte		        Bn1 , v040
	.byte	W78
	.byte	W96
	.byte	W48
	.byte		        Bn1 , v080
	.byte	W48
	.byte	W96
	.byte	W96
	.byte	W96
	.byte	W96
	.byte	W96
	.byte	W96
	.byte	W96
	.byte	W42
	.byte		        Bn1 , v040
	.byte	W54
	.byte	W96
	.byte	W96
	.byte	W30
	.byte		        Bn1 , v080
	.byte	W66
	.byte	W96
	.byte	W96
	.byte	W96
	.byte	W96
	.byte	W90
	.byte		        Fs1 , v060
	.byte	W06
	.byte	W96
	.byte	W96
	.byte	W18
	.byte		        Bn1 , v040
	.byte	W78
	.byte	W96
	.byte	W48
	.byte		        Bn1 , v080
	.byte	W48
	.byte	W96
	.byte	W96
	.byte	W96
	.byte	W96
	.byte	W96
	.byte	W96
	.byte	W96
	.byte	GOTO
	 .word	seq_117_3 + 0x15
	.byte	FINE

@*********************** Track 05 ***********************@

seq_117_4:
	.byte	KEYSH , seq_117_key+0
	.byte		VOICE , 40
	.byte	W01
	.byte		VOL   , 25*seq_117_mvl/mxv
	.byte	W01
	.byte		PAN   , c_v+36
	.byte	W01
	.byte		LFOS  , 80
	.byte	W01
	.byte		MODT  , mod_pan
	.byte	W01
	.byte		MOD   , 20
	.byte	W19
	.byte	W96
	.byte	W12
	.byte		N54   , Fs1 , v060
	.byte	W84
	.byte	W96
	.byte		        Gn1 , v120
	.byte	W96
	.byte	W96
	.byte	W96
	.byte	W96
	.byte	W96
	.byte	W90
	.byte		        Fs1 , v100
	.byte	W06
	.byte	W96
	.byte	W48
	.byte		        Fs1 , v060
	.byte	W48
	.byte	W96
	.byte	W30
	.byte		        Gn1 , v040
	.byte	W66
	.byte	W96
	.byte	W96
	.byte	W96
	.byte	W96
	.byte	W24
	.byte		        Fs1 , v100
	.byte	W72
	.byte	W96
	.byte	W96
	.byte	W96
	.byte	W96
	.byte	W12
	.byte		        Fs1 , v060
	.byte	W84
	.byte	W96
	.byte		        Gn1 , v120
	.byte	W96
	.byte	W96
	.byte	W96
	.byte	W96
	.byte	W96
	.byte	W90
	.byte		        Fs1 , v100
	.byte	W06
	.byte	W96
	.byte	W48
	.byte		        Fs1 , v060
	.byte	W48
	.byte	W96
	.byte	W30
	.byte		        Gn1 , v040
	.byte	W66
	.byte	W96
	.byte	W96
	.byte	W96
	.byte	W96
	.byte	W24
	.byte		        Fs1 , v100
	.byte	W72
	.byte	W96
	.byte	W96
	.byte	W96
	.byte	W96
	.byte	W12
	.byte		        Fs1 , v060
	.byte	W84
	.byte	W96
	.byte		        Gn1 , v120
	.byte	W96
	.byte	W96
	.byte	W96
	.byte	W96
	.byte	W96
	.byte	W90
	.byte		        Fs1 , v100
	.byte	W06
	.byte	W96
	.byte	W48
	.byte		        Fs1 , v060
	.byte	W48
	.byte	W96
	.byte	W30
	.byte		        Gn1 , v040
	.byte	W66
	.byte	W96
	.byte	W96
	.byte	W96
	.byte	W96
	.byte	W24
	.byte		        Fs1 , v100
	.byte	W72
	.byte	W96
	.byte	W96
	.byte	W96
	.byte	W96
	.byte	W12
	.byte		        Fs1 , v060
	.byte	W84
	.byte	W96
	.byte		        Gn1 , v120
	.byte	W96
	.byte	W96
	.byte	W96
	.byte	W96
	.byte	W96
	.byte	W90
	.byte		        Fs1 , v100
	.byte	W06
	.byte	W96
	.byte	W48
	.byte		        Fs1 , v060
	.byte	W48
	.byte	W96
	.byte	W30
	.byte		        Gn1 , v040
	.byte	W66
	.byte	W96
	.byte	W96
	.byte	W96
	.byte	W96
	.byte	W24
	.byte		        Fs1 , v100
	.byte	W72
	.byte	W96
	.byte	W96
	.byte	W96
	.byte	W96
	.byte	W12
	.byte		        Fs1 , v060
	.byte	W84
	.byte	W96
	.byte		        Gn1 , v120
	.byte	W96
	.byte	W96
	.byte	W96
	.byte	W96
	.byte	W96
	.byte	W90
	.byte		        Fs1 , v100
	.byte	W06
	.byte	W96
	.byte	W48
	.byte		        Fs1 , v060
	.byte	W48
	.byte	W96
	.byte	W30
	.byte		        Gn1 , v040
	.byte	W66
	.byte	W96
	.byte	W96
	.byte	W96
	.byte	W96
	.byte	W24
	.byte		        Fs1 , v100
	.byte	W72
	.byte	W96
	.byte	W96
	.byte	W96
	.byte	W96
	.byte	W12
	.byte		        Fs1 , v060
	.byte	W84
	.byte	W96
	.byte		        Gn1 , v120
	.byte	W96
	.byte	W96
	.byte	W96
	.byte	W96
	.byte	W96
	.byte	W90
	.byte		        Fs1 , v100
	.byte	W06
	.byte	W96
	.byte	W48
	.byte		        Fs1 , v060
	.byte	W48
	.byte	W96
	.byte	W30
	.byte		        Gn1 , v040
	.byte	W66
	.byte	W96
	.byte	W96
	.byte	W96
	.byte	W96
	.byte	W24
	.byte		        Fs1 , v100
	.byte	W72
	.byte	W96
	.byte	W96
	.byte	W96
	.byte	W96
	.byte	W12
	.byte		        Fs1 , v060
	.byte	W84
	.byte	W96
	.byte		        Gn1 , v120
	.byte	W96
	.byte	W96
	.byte	W96
	.byte	W96
	.byte	W96
	.byte	W90
	.byte		        Fs1 , v100
	.byte	W06
	.byte	W96
	.byte	W48
	.byte		        Fs1 , v060
	.byte	W48
	.byte	W96
	.byte	W30
	.byte		        Gn1 , v040
	.byte	W66
	.byte	W96
	.byte	W96
	.byte	W96
	.byte	W96
	.byte	W24
	.byte		        Fs1 , v100
	.byte	W72
	.byte	W96
	.byte	W96
	.byte	W96
	.byte	W96
	.byte	W12
	.byte		        Fs1 , v060
	.byte	W84
	.byte	W96
	.byte		        Gn1 , v120
	.byte	W96
	.byte	W96
	.byte	W96
	.byte	W96
	.byte	W96
	.byte	W90
	.byte		        Fs1 , v100
	.byte	W06
	.byte	W96
	.byte	W48
	.byte		        Fs1 , v060
	.byte	W48
	.byte	W96
	.byte	W30
	.byte		        Gn1 , v040
	.byte	W66
	.byte	W96
	.byte	W96
	.byte	W96
	.byte	W96
	.byte	W24
	.byte		        Fs1 , v100
	.byte	W72
	.byte	W96
	.byte	W96
	.byte	W96
	.byte	W96
	.byte	W12
	.byte		        Fs1 , v060
	.byte	W84
	.byte	W96
	.byte		        Gn1 , v120
	.byte	W96
	.byte	W96
	.byte	W96
	.byte	W96
	.byte	W96
	.byte	W90
	.byte		        Fs1 , v100
	.byte	W06
	.byte	W96
	.byte	W48
	.byte		        Fs1 , v060
	.byte	W48
	.byte	W96
	.byte	W30
	.byte		        Gn1 , v040
	.byte	W66
	.byte	W96
	.byte	W96
	.byte	W96
	.byte	W96
	.byte	W24
	.byte		        Fs1 , v100
	.byte	W72
	.byte	W96
	.byte	W96
	.byte	W96
	.byte	W96
	.byte	W12
	.byte		        Fs1 , v060
	.byte	W84
	.byte	W96
	.byte		        Gn1 , v120
	.byte	W96
	.byte	W96
	.byte	W96
	.byte	W96
	.byte	W96
	.byte	W90
	.byte		        Fs1 , v100
	.byte	W06
	.byte	W96
	.byte	W48
	.byte		        Fs1 , v060
	.byte	W48
	.byte	W96
	.byte	W30
	.byte		        Gn1 , v040
	.byte	W66
	.byte	W96
	.byte	W96
	.byte	W96
	.byte	W96
	.byte	W24
	.byte		        Fs1 , v100
	.byte	W72
	.byte	W96
	.byte	W96
	.byte	W96
	.byte	W96
	.byte	W12
	.byte		        Fs1 , v060
	.byte	W84
	.byte	W96
	.byte		        Gn1 , v120
	.byte	W96
	.byte	W96
	.byte	W96
	.byte	W96
	.byte	W96
	.byte	W90
	.byte		        Fs1 , v100
	.byte	W06
	.byte	W96
	.byte	W48
	.byte		        Fs1 , v060
	.byte	W48
	.byte	W96
	.byte	W30
	.byte		        Gn1 , v040
	.byte	W66
	.byte	W96
	.byte	W96
	.byte	W96
	.byte	W96
	.byte	W24
	.byte		        Fs1 , v100
	.byte	W72
	.byte	W96
	.byte	W96
	.byte	W96
	.byte	W96
	.byte	W12
	.byte		        Fs1 , v060
	.byte	W84
	.byte	W96
	.byte		        Gn1 , v120
	.byte	W96
	.byte	W96
	.byte	W96
	.byte	W96
	.byte	W96
	.byte	W90
	.byte		        Fs1 , v100
	.byte	W06
	.byte	W96
	.byte	W48
	.byte		        Fs1 , v060
	.byte	W48
	.byte	W96
	.byte	W30
	.byte		        Gn1 , v040
	.byte	W66
	.byte	W96
	.byte	W96
	.byte	W96
	.byte	W96
	.byte	W24
	.byte		        Fs1 , v100
	.byte	W72
	.byte	W96
	.byte	W96
	.byte	W96
	.byte	W96
	.byte	W12
	.byte		        Fs1 , v060
	.byte	W84
	.byte	W96
	.byte		        Gn1 , v120
	.byte	W96
	.byte	W96
	.byte	W96
	.byte	W96
	.byte	W96
	.byte	W90
	.byte		        Fs1 , v100
	.byte	W06
	.byte	W96
	.byte	W48
	.byte		        Fs1 , v060
	.byte	W48
	.byte	W96
	.byte	W30
	.byte		        Gn1 , v040
	.byte	W66
	.byte	W96
	.byte	W96
	.byte	W96
	.byte	W96
	.byte	W24
	.byte		        Fs1 , v100
	.byte	W72
	.byte	W96
	.byte	W96
	.byte	W96
	.byte	W96
	.byte	W12
	.byte		        Fs1 , v060
	.byte	W84
	.byte	W96
	.byte		        Gn1 , v120
	.byte	W96
	.byte	W96
	.byte	W96
	.byte	W96
	.byte	W96
	.byte	W90
	.byte		        Fs1 , v100
	.byte	W06
	.byte	W96
	.byte	W48
	.byte		        Fs1 , v060
	.byte	W48
	.byte	W96
	.byte	W30
	.byte		        Gn1 , v040
	.byte	W66
	.byte	W96
	.byte	W96
	.byte	W96
	.byte	W96
	.byte	W24
	.byte		        Fs1 , v100
	.byte	W72
	.byte	W96
	.byte	W96
	.byte	W96
	.byte	W96
	.byte	W12
	.byte		        Fs1 , v060
	.byte	W84
	.byte	W96
	.byte		        Gn1 , v120
	.byte	W96
	.byte	W96
	.byte	W96
	.byte	W96
	.byte	W96
	.byte	W90
	.byte		        Fs1 , v100
	.byte	W06
	.byte	W96
	.byte	W48
	.byte		        Fs1 , v060
	.byte	W48
	.byte	W96
	.byte	W30
	.byte		        Gn1 , v040
	.byte	W66
	.byte	W96
	.byte	W96
	.byte	W96
	.byte	W96
	.byte	W24
	.byte		        Fs1 , v100
	.byte	W72
	.byte	W96
	.byte	W96
	.byte	W96
	.byte	W96
	.byte	W12
	.byte		        Fs1 , v060
	.byte	W84
	.byte	W96
	.byte		        Gn1 , v120
	.byte	W96
	.byte	W96
	.byte	W96
	.byte	W96
	.byte	W96
	.byte	W90
	.byte		        Fs1 , v100
	.byte	W06
	.byte	W96
	.byte	W48
	.byte		        Fs1 , v060
	.byte	W48
	.byte	W96
	.byte	W30
	.byte		        Gn1 , v040
	.byte	W66
	.byte	W96
	.byte	W96
	.byte	W96
	.byte	W96
	.byte	W24
	.byte		        Fs1 , v100
	.byte	W72
	.byte	W96
	.byte	W96
	.byte	W96
	.byte	W96
	.byte	W12
	.byte		        Fs1 , v060
	.byte	W84
	.byte	W96
	.byte		        Gn1 , v120
	.byte	W96
	.byte	W96
	.byte	W96
	.byte	W96
	.byte	W96
	.byte	W90
	.byte		        Fs1 , v100
	.byte	W06
	.byte	W96
	.byte	W48
	.byte		        Fs1 , v060
	.byte	W48
	.byte	W96
	.byte	W30
	.byte		        Gn1 , v040
	.byte	W66
	.byte	W96
	.byte	W96
	.byte	W96
	.byte	W96
	.byte	W24
	.byte		        Fs1 , v100
	.byte	W72
	.byte	W96
	.byte	W96
	.byte	W96
	.byte	W96
	.byte	W12
	.byte		        Fs1 , v060
	.byte	W84
	.byte	W96
	.byte		        Gn1 , v120
	.byte	W96
	.byte	W96
	.byte	W96
	.byte	W96
	.byte	W96
	.byte	W90
	.byte		        Fs1 , v100
	.byte	W06
	.byte	W96
	.byte	W48
	.byte		        Fs1 , v060
	.byte	W48
	.byte	W96
	.byte	W30
	.byte		        Gn1 , v040
	.byte	W66
	.byte	W96
	.byte	W96
	.byte	W96
	.byte	W96
	.byte	W24
	.byte		        Fs1 , v100
	.byte	W72
	.byte	W96
	.byte	W96
	.byte	W96
	.byte	GOTO
	 .word	seq_117_4 + 0x14
	.byte	FINE

@*********************** Track 06 ***********************@

seq_117_5:
	.byte	KEYSH , seq_117_key+0
	.byte	W06
	.byte		VOICE , 29
	.byte	W01
	.byte		VOL   , 103*seq_117_mvl/mxv
	.byte	W01
	.byte		PAN   , c_v+0
	.byte	W01
	.byte		LFOS  , 30
	.byte	W01
	.byte		MODT  , mod_tre
	.byte	W01
	.byte		LFODL , 0
	.byte	W13
	.byte	W96
	.byte	W96
	.byte	W96
	.byte	W90
	.byte		N02   , Cn2 , v120
	.byte	W06
	.byte	W13
	.byte		N02   , Fn2 , v120
	.byte	W19
	.byte		        Cn3 
	.byte	W19
	.byte		        As2 
	.byte	W44
	.byte	W01
	.byte	PEND
	.byte	W96
	.byte	W96
	.byte	W42
	.byte		N02   , Cn2 , v120
	.byte	W19
	.byte		        Fn2 
	.byte	W19
	.byte		        Cn3 
	.byte	W16
	.byte	PEND
	.byte	W03
	.byte		N02   , As2 , v120
	.byte	W19
	.byte		        Ds2 
	.byte	W19
	.byte		        Gs2 
	.byte	W54
	.byte	W01
	.byte	PEND
	.byte	W96
	.byte	W96
	.byte	W96
	.byte	W96
	.byte	W96
	.byte	W18
	.byte		N02   , Cn2 , v120
	.byte	W19
	.byte		        Fn2 
	.byte	W19
	.byte		        Cn3 
	.byte	W19
	.byte		        As2 
	.byte	W21
	.byte	PEND
	.byte	W96
	.byte	W96
	.byte	W96
	.byte	W96
	.byte	W18
	.byte		        Cn2 
	.byte	W19
	.byte		        Fn2 
	.byte	W19
	.byte		        Cn3 
	.byte	W19
	.byte		        As2 
	.byte	W19
	.byte		        Ds2 
	.byte	W02
	.byte	W17
	.byte		        Gs2 
	.byte	W78
	.byte	W01
	.byte	W96
	.byte	W96
	.byte	W96
	.byte	W96
	.byte	PATT
	 .word	seq_117_5 + 0x44
	.byte	W96
	.byte	W96
	.byte	PATT
	 .word	seq_117_5 + 0x2A
	.byte	PATT
	 .word	seq_117_5 + 0x34
	.byte	W96
	.byte	W96
	.byte	W96
	.byte	W96
	.byte	W96
	.byte	PATT
	 .word	seq_117_5 + 0x44
	.byte	W96
	.byte	W96
	.byte	W90
	.byte		N02   , Cn2 , v120
	.byte	W06
	.byte	W13
	.byte		        Fn2 
	.byte	W19
	.byte		        Cn3 
	.byte	W19
	.byte		        As2 
	.byte	W19
	.byte		        Ds2 
	.byte	W19
	.byte		        Gs2 
	.byte	W07
	.byte	W96
	.byte	W96
	.byte	W96
	.byte	W66
	.byte		N02   , Cn2 , v120
	.byte	W19
	.byte		        Fn2 
	.byte	W11
	.byte	PEND
	.byte	W08
	.byte		N02   , Cn3 , v120
	.byte	W19
	.byte		        As2 
	.byte	W68
	.byte	W01
	.byte	PEND
	.byte	W96
	.byte	W96
	.byte	W96
	.byte	W96
	.byte	PATT
	 .word	seq_117_5 + 0x2A
	.byte	PATT
	 .word	seq_117_5 + 0x34
	.byte	W96
	.byte	W96
	.byte	W96
	.byte	W96
	.byte	W96
	.byte	PATT
	 .word	seq_117_5 + 0x44
	.byte	W96
	.byte	W96
	.byte	W96
	.byte	PATT
	 .word	seq_117_5 + 0x2A
	.byte	PATT
	 .word	seq_117_5 + 0x34
	.byte	W96
	.byte	W96
	.byte	W96
	.byte	W96
	.byte	PATT
	 .word	seq_117_5 + 0x97
	.byte	PATT
	 .word	seq_117_5 + 0x9F
	.byte	W96
	.byte	W96
	.byte	W54
	.byte		N02   , Cn2 , v120
	.byte	W19
	.byte		        Fn2 
	.byte	W19
	.byte		        Cn3 
	.byte	W04
	.byte	W15
	.byte		        As2 
	.byte	W19
	.byte		        Ds2 
	.byte	W19
	.byte		        Gs2 
	.byte	W42
	.byte	W01
	.byte	W96
	.byte	W96
	.byte	W96
	.byte	W96
	.byte	W90
	.byte		        Cn2 
	.byte	W06
	.byte	PATT
	 .word	seq_117_5 + 0x1D
	.byte	W96
	.byte	W96
	.byte	PATT
	 .word	seq_117_5 + 0x97
	.byte	W08
	.byte		N02   , Cn3 , v120
	.byte	W19
	.byte		        As2 
	.byte	W19
	.byte		        Ds2 
	.byte	W19
	.byte		        Gs2 
	.byte	W30
	.byte	W01
	.byte	W96
	.byte	W96
	.byte	W96
	.byte	PATT
	 .word	seq_117_5 + 0x97
	.byte	PATT
	 .word	seq_117_5 + 0x9F
	.byte	W96
	.byte	W96
	.byte	W96
	.byte	W96
	.byte	PATT
	 .word	seq_117_5 + 0x2A
	.byte	PATT
	 .word	seq_117_5 + 0x34
	.byte	W96
	.byte	W96
	.byte	W96
	.byte	W96
	.byte	W96
	.byte	PATT
	 .word	seq_117_5 + 0x44
	.byte	W96
	.byte	W96
	.byte	W96
	.byte	PATT
	 .word	seq_117_5 + 0x2A
	.byte	PATT
	 .word	seq_117_5 + 0x34
	.byte	W96
	.byte	W96
	.byte	W96
	.byte	PATT
	 .word	seq_117_5 + 0x97
	.byte	PATT
	 .word	seq_117_5 + 0x9F
	.byte	W96
	.byte	W96
	.byte	W96
	.byte	W96
	.byte	PATT
	 .word	seq_117_5 + 0x2A
	.byte	PATT
	 .word	seq_117_5 + 0x34
	.byte	W96
	.byte	W96
	.byte	W96
	.byte	W96
	.byte	W96
	.byte	PATT
	 .word	seq_117_5 + 0x44
	.byte	W96
	.byte	W96
	.byte	W96
	.byte	PATT
	 .word	seq_117_5 + 0x2A
	.byte	PATT
	 .word	seq_117_5 + 0x34
	.byte	W96
	.byte	W96
	.byte	PATT
	 .word	seq_117_5 + 0x97
	.byte	PATT
	 .word	seq_117_5 + 0x9F
	.byte	W96
	.byte	W96
	.byte	W96
	.byte	W96
	.byte	PATT
	 .word	seq_117_5 + 0x2A
	.byte	PATT
	 .word	seq_117_5 + 0x34
	.byte	W96
	.byte	W96
	.byte	W96
	.byte	W96
	.byte	W96
	.byte	PATT
	 .word	seq_117_5 + 0x44
	.byte	W96
	.byte	W96
	.byte	W96
	.byte	PATT
	 .word	seq_117_5 + 0x2A
	.byte	PATT
	 .word	seq_117_5 + 0x34
	.byte	W96
	.byte	W96
	.byte	PATT
	 .word	seq_117_5 + 0x97
	.byte	PATT
	 .word	seq_117_5 + 0x9F
	.byte	W96
	.byte	W96
	.byte	W96
	.byte	W96
	.byte	PATT
	 .word	seq_117_5 + 0x2A
	.byte	PATT
	 .word	seq_117_5 + 0x34
	.byte	W96
	.byte	W96
	.byte	W96
	.byte	W96
	.byte	W96
	.byte	PATT
	 .word	seq_117_5 + 0x44
	.byte	W96
	.byte	W96
	.byte	W96
	.byte	PATT
	 .word	seq_117_5 + 0x2A
	.byte	PATT
	 .word	seq_117_5 + 0x34
	.byte	W96
	.byte	W96
	.byte	PATT
	 .word	seq_117_5 + 0x97
	.byte	PATT
	 .word	seq_117_5 + 0x9F
	.byte	W96
	.byte	W96
	.byte	W96
	.byte	W96
	.byte	PATT
	 .word	seq_117_5 + 0x2A
	.byte	PATT
	 .word	seq_117_5 + 0x34
	.byte	W96
	.byte	W96
	.byte	W96
	.byte	W96
	.byte	W96
	.byte	PATT
	 .word	seq_117_5 + 0x44
	.byte	W96
	.byte	W96
	.byte	W96
	.byte	PATT
	 .word	seq_117_5 + 0x2A
	.byte	PATT
	 .word	seq_117_5 + 0x34
	.byte	W96
	.byte	W96
	.byte	PATT
	 .word	seq_117_5 + 0x97
	.byte	PATT
	 .word	seq_117_5 + 0x9F
	.byte	W96
	.byte	W96
	.byte	W96
	.byte	W96
	.byte	PATT
	 .word	seq_117_5 + 0x2A
	.byte	PATT
	 .word	seq_117_5 + 0x34
	.byte	W96
	.byte	W96
	.byte	W96
	.byte	W96
	.byte	W96
	.byte	PATT
	 .word	seq_117_5 + 0x44
	.byte	W96
	.byte	W96
	.byte	W96
	.byte	PATT
	 .word	seq_117_5 + 0x2A
	.byte	PATT
	 .word	seq_117_5 + 0x34
	.byte	W96
	.byte	W96
	.byte	PATT
	 .word	seq_117_5 + 0x97
	.byte	PATT
	 .word	seq_117_5 + 0x9F
	.byte	W96
	.byte	W96
	.byte	W96
	.byte	W96
	.byte	PATT
	 .word	seq_117_5 + 0x2A
	.byte	PATT
	 .word	seq_117_5 + 0x34
	.byte	W96
	.byte	W96
	.byte	W96
	.byte	W96
	.byte	W96
	.byte	PATT
	 .word	seq_117_5 + 0x44
	.byte	W96
	.byte	W96
	.byte	W96
	.byte	PATT
	 .word	seq_117_5 + 0x2A
	.byte	PATT
	 .word	seq_117_5 + 0x34
	.byte	W96
	.byte	W96
	.byte	PATT
	 .word	seq_117_5 + 0x97
	.byte	PATT
	 .word	seq_117_5 + 0x9F
	.byte	W96
	.byte	W96
	.byte	W96
	.byte	W96
	.byte	PATT
	 .word	seq_117_5 + 0x2A
	.byte	PATT
	 .word	seq_117_5 + 0x34
	.byte	W96
	.byte	W96
	.byte	W96
	.byte	W96
	.byte	W96
	.byte	PATT
	 .word	seq_117_5 + 0x44
	.byte	W96
	.byte	W96
	.byte	W96
	.byte	PATT
	 .word	seq_117_5 + 0x2A
	.byte	PATT
	 .word	seq_117_5 + 0x34
	.byte	W96
	.byte	W96
	.byte	PATT
	 .word	seq_117_5 + 0x97
	.byte	PATT
	 .word	seq_117_5 + 0x9F
	.byte	W96
	.byte	W96
	.byte	W96
	.byte	W96
	.byte	PATT
	 .word	seq_117_5 + 0x2A
	.byte	PATT
	 .word	seq_117_5 + 0x34
	.byte	W96
	.byte	W96
	.byte	W96
	.byte	W96
	.byte	W96
	.byte	PATT
	 .word	seq_117_5 + 0x44
	.byte	W96
	.byte	W96
	.byte	W96
	.byte	PATT
	 .word	seq_117_5 + 0x2A
	.byte	PATT
	 .word	seq_117_5 + 0x34
	.byte	W96
	.byte	W96
	.byte	PATT
	 .word	seq_117_5 + 0x97
	.byte	PATT
	 .word	seq_117_5 + 0x9F
	.byte	W96
	.byte	W96
	.byte	W96
	.byte	W96
	.byte	PATT
	 .word	seq_117_5 + 0x2A
	.byte	PATT
	 .word	seq_117_5 + 0x34
	.byte	W96
	.byte	W96
	.byte	W96
	.byte	W96
	.byte	W96
	.byte	PATT
	 .word	seq_117_5 + 0x44
	.byte	W96
	.byte	W96
	.byte	W96
	.byte	PATT
	 .word	seq_117_5 + 0x2A
	.byte	PATT
	 .word	seq_117_5 + 0x34
	.byte	W96
	.byte	W96
	.byte	PATT
	 .word	seq_117_5 + 0x97
	.byte	PATT
	 .word	seq_117_5 + 0x9F
	.byte	W96
	.byte	W96
	.byte	W96
	.byte	W96
	.byte	PATT
	 .word	seq_117_5 + 0x2A
	.byte	PATT
	 .word	seq_117_5 + 0x34
	.byte	W96
	.byte	W96
	.byte	W96
	.byte	W96
	.byte	W96
	.byte	PATT
	 .word	seq_117_5 + 0x44
	.byte	W96
	.byte	W96
	.byte	W96
	.byte	PATT
	 .word	seq_117_5 + 0x2A
	.byte	PATT
	 .word	seq_117_5 + 0x34
	.byte	W96
	.byte	W96
	.byte	PATT
	 .word	seq_117_5 + 0x97
	.byte	PATT
	 .word	seq_117_5 + 0x9F
	.byte	W96
	.byte	W96
	.byte	W96
	.byte	W96
	.byte	PATT
	 .word	seq_117_5 + 0x2A
	.byte	PATT
	 .word	seq_117_5 + 0x34
	.byte	W96
	.byte	W96
	.byte	W96
	.byte	W96
	.byte	W96
	.byte	PATT
	 .word	seq_117_5 + 0x44
	.byte	W96
	.byte	W96
	.byte	W96
	.byte	PATT
	 .word	seq_117_5 + 0x2A
	.byte	PATT
	 .word	seq_117_5 + 0x34
	.byte	W96
	.byte	W96
	.byte	PATT
	 .word	seq_117_5 + 0x97
	.byte	PATT
	 .word	seq_117_5 + 0x9F
	.byte	W96
	.byte	W96
	.byte	W96
	.byte	W96
	.byte	PATT
	 .word	seq_117_5 + 0x2A
	.byte	PATT
	 .word	seq_117_5 + 0x34
	.byte	W96
	.byte	W96
	.byte	W96
	.byte	W96
	.byte	W96
	.byte	PATT
	 .word	seq_117_5 + 0x44
	.byte	W96
	.byte	W96
	.byte	W96
	.byte	PATT
	 .word	seq_117_5 + 0x2A
	.byte	PATT
	 .word	seq_117_5 + 0x34
	.byte	W96
	.byte	W96
	.byte	PATT
	 .word	seq_117_5 + 0x97
	.byte	PATT
	 .word	seq_117_5 + 0x9F
	.byte	W96
	.byte	W96
	.byte	W96
	.byte	W96
	.byte	PATT
	 .word	seq_117_5 + 0x2A
	.byte	PATT
	 .word	seq_117_5 + 0x34
	.byte	W96
	.byte	W96
	.byte	W96
	.byte	W96
	.byte	W96
	.byte	PATT
	 .word	seq_117_5 + 0x44
	.byte	W96
	.byte	W96
	.byte	W96
	.byte	PATT
	 .word	seq_117_5 + 0x2A
	.byte	PATT
	 .word	seq_117_5 + 0x34
	.byte	GOTO
	 .word	seq_117_5 + 0x15
	.byte	FINE

@******************************************************@

	.align	2

seq_117:
	.byte	6	@ NumTrks
	.byte	0	@ NumBlks
	.byte	seq_117_pri	@ Priority
	.byte	seq_117_rev	@ Reverb

	.word	seq_117_grp

	.word	seq_117_0
	.word	seq_117_1
	.word	seq_117_2
	.word	seq_117_3
	.word	seq_117_4
	.word	seq_117_5

	.end
