@ File generated by m4a2s Song-Module
	.include "MPlayDef.s"

	.equ	seq_031_grp, bank_014
	.equ	seq_031_pri, 50
	.equ	seq_031_rev, 203
	.equ	seq_031_mvl, 127
	.equ	seq_031_key, 0

	.section .rodata
	.global	seq_031
	.align	2

@*********************** Track 01 ***********************@

seq_031_0:
	.byte	KEYSH , seq_031_key+0
	.byte	TEMPO , 130/2
	.byte		VOICE , 43
	.byte		MOD   , 20
	.byte		VOL   , 0*seq_031_mvl/mxv
	.byte	W01
	.byte		PAN   , c_v-64
	.byte		BENDR , 5
	.byte		LFOS  , 100
	.byte	W01
	.byte		MODT  , mod_pan
	.byte	W22
	.byte		TIE   , Fs0 , v120
	.byte	W08
	.byte		VOL   , 0*seq_031_mvl/mxv
	.byte	W01
	.byte		        1*seq_031_mvl/mxv
	.byte	W01
	.byte		        2*seq_031_mvl/mxv
	.byte	W01
	.byte		        2*seq_031_mvl/mxv
	.byte	W01
	.byte		        3*seq_031_mvl/mxv
	.byte	W01
	.byte		        4*seq_031_mvl/mxv
	.byte	W01
	.byte		        4*seq_031_mvl/mxv
	.byte	W01
	.byte		        5*seq_031_mvl/mxv
	.byte	W01
	.byte		        6*seq_031_mvl/mxv
	.byte	W01
	.byte		        7*seq_031_mvl/mxv
	.byte	W01
	.byte		        7*seq_031_mvl/mxv
	.byte	W01
	.byte		        8*seq_031_mvl/mxv
	.byte	W01
	.byte		        9*seq_031_mvl/mxv
	.byte	W01
	.byte		        9*seq_031_mvl/mxv
	.byte	W01
	.byte		        10*seq_031_mvl/mxv
	.byte	W01
	.byte		        12*seq_031_mvl/mxv
	.byte	W01
	.byte		        12*seq_031_mvl/mxv
	.byte	W01
	.byte		        13*seq_031_mvl/mxv
	.byte	W01
	.byte		        14*seq_031_mvl/mxv
	.byte	W01
	.byte		        14*seq_031_mvl/mxv
	.byte	W01
	.byte		        15*seq_031_mvl/mxv
	.byte	W01
	.byte		        16*seq_031_mvl/mxv
	.byte	W01
	.byte		        17*seq_031_mvl/mxv
	.byte	W01
	.byte		        17*seq_031_mvl/mxv
	.byte	W01
	.byte		        18*seq_031_mvl/mxv
	.byte	W01
	.byte		        19*seq_031_mvl/mxv
	.byte	W01
	.byte		        19*seq_031_mvl/mxv
	.byte	W01
	.byte		        20*seq_031_mvl/mxv
	.byte	W01
	.byte		        21*seq_031_mvl/mxv
	.byte	W60
	.byte	W96
	.byte	W96
	.byte	W96
	.byte	W96
	.byte	W96
	.byte	W96
	.byte	W96
	.byte	W96
	.byte	W96
	.byte	W96
	.byte	W96
	.byte	W96
	.byte	W96
	.byte	W96
	.byte	W96
	.byte	W96
	.byte	W96
	.byte	W96
	.byte	W96
	.byte	W96
	.byte	W96
	.byte	W96
	.byte	W96
	.byte	W96
	.byte	W96
	.byte	W96
	.byte	W96
	.byte	W96
	.byte	W96
	.byte	W96
	.byte	W96
	.byte	W96
	.byte	W96
	.byte	W96
	.byte	W96
	.byte	W96
	.byte	W96
	.byte	W96
	.byte	W96
	.byte	W96
	.byte	W96
	.byte	W96
	.byte	W96
	.byte	W96
	.byte	W96
	.byte	W96
	.byte	W96
	.byte	W96
	.byte	W96
	.byte	W96
	.byte	W96
	.byte	W96
	.byte	W96
	.byte	W96
	.byte	W96
	.byte	W96
	.byte	W96
	.byte	W96
	.byte	W96
	.byte	W96
	.byte	W96
	.byte	W96
	.byte	W96
	.byte	W96
	.byte	W96
	.byte	W96
	.byte	W96
	.byte	W96
	.byte	W96
	.byte	W96
	.byte	W96
	.byte	W96
	.byte	W96
	.byte	W96
	.byte	W96
	.byte	W96
	.byte	W96
	.byte	W96
	.byte	W96
	.byte	W96
	.byte	W96
	.byte	W96
	.byte	W96
	.byte	W96
	.byte	W96
	.byte	W96
	.byte	W96
	.byte	W96
	.byte	W96
	.byte	W96
	.byte	W96
	.byte	W96
	.byte	W96
	.byte	W96
	.byte	W96
	.byte	W96
	.byte	W96
	.byte	W96
	.byte	W96
	.byte	W96
	.byte	W96
	.byte	W96
	.byte	W96
	.byte	W96
	.byte	W96
	.byte	W96
	.byte	W96
	.byte	W96
	.byte	W96
	.byte	W96
	.byte	W96
	.byte	W96
	.byte	W96
	.byte	W96
	.byte	W96
	.byte	W96
	.byte	W96
	.byte	W96
	.byte	W96
	.byte	W96
	.byte	W96
	.byte	W96
	.byte	W96
	.byte	W96
	.byte	W96
	.byte	W96
	.byte	W96
	.byte	W96
	.byte	W96
	.byte	W96
	.byte	W96
	.byte	W96
	.byte	W96
	.byte	W96
	.byte	W96
	.byte	W96
	.byte	W96
	.byte	W96
	.byte	W96
	.byte	W96
	.byte	W96
	.byte	W96
	.byte	W96
	.byte	W96
	.byte	W96
	.byte	W96
	.byte	W96
	.byte	W96
	.byte	W96
	.byte	W96
	.byte	W96
	.byte	W96
	.byte	W96
	.byte	W96
	.byte	W96
	.byte	W96
	.byte	W96
	.byte	W96
	.byte	W96
	.byte	W96
	.byte	W96
	.byte	W96
	.byte	W96
	.byte	W96
	.byte	W96
	.byte	W96
	.byte	W96
	.byte	W96
	.byte	W96
	.byte	W96
	.byte	W96
	.byte	W96
	.byte	W96
	.byte	W96
	.byte	W96
	.byte	W96
	.byte	W96
	.byte	W96
	.byte	W96
	.byte	W96
	.byte	W96
	.byte	W96
	.byte	W96
	.byte	W96
	.byte	W96
	.byte	W96
	.byte	W96
	.byte	W96
	.byte	W96
	.byte	W96
	.byte	W96
	.byte	W96
	.byte	W96
	.byte	W96
	.byte	W96
	.byte	W96
	.byte	W96
	.byte	W96
	.byte	W96
	.byte	W96
	.byte	W96
	.byte	W96
	.byte	W96
	.byte	W96
	.byte	W96
	.byte	W96
	.byte	W96
	.byte	W96
	.byte	W96
	.byte	W96
	.byte	W96
	.byte	W96
	.byte	W96
	.byte	W96
	.byte	W96
	.byte	W96
	.byte	W96
	.byte	W96
	.byte	W96
	.byte	W96
	.byte	W96
	.byte	W96
	.byte	W96
	.byte	W96
	.byte	W96
	.byte	W96
	.byte	W96
	.byte	W96
	.byte	W96
	.byte	W96
	.byte	W96
	.byte	W96
	.byte	W96
	.byte	W96
	.byte	W96
	.byte	W96
	.byte	W96
	.byte	W96
	.byte	W96
	.byte	W96
	.byte	W96
	.byte	W96
	.byte	W96
	.byte	W96
	.byte	W96
	.byte	W96
	.byte	W96
	.byte	W96
	.byte	W96
	.byte	W96
	.byte	W96
	.byte	W96
	.byte	W96
	.byte	W96
	.byte	W96
	.byte	W96
	.byte	W96
	.byte	W96
	.byte	W96
	.byte	W96
	.byte	W96
	.byte	W96
	.byte	W96
	.byte	W96
	.byte	W96
	.byte	W96
	.byte	W96
	.byte	W96
	.byte	W96
	.byte	W96
	.byte	W96
	.byte	W96
	.byte	W96
	.byte	W96
	.byte	W96
	.byte	W96
	.byte	W96
	.byte	W96
	.byte	W96
	.byte	W96
	.byte	W96
	.byte	W96
	.byte	W96
	.byte	W96
	.byte	W96
	.byte	W96
	.byte	W96
	.byte	W96
	.byte	W96
	.byte	W96
	.byte	W96
	.byte	W96
	.byte	W96
	.byte	W96
	.byte	W96
	.byte	W96
	.byte	W96
	.byte	W96
	.byte	W96
	.byte	W96
	.byte	W96
	.byte	W96
	.byte	W96
	.byte	W96
	.byte	W96
	.byte	W96
	.byte	W96
	.byte	W96
	.byte	W96
	.byte	W96
	.byte	W96
	.byte	W96
	.byte	W96
	.byte	W96
	.byte	W96
	.byte	W96
	.byte	W96
	.byte	W96
	.byte	W96
	.byte	W96
	.byte	W96
	.byte	W96
	.byte	W96
	.byte	W96
	.byte	W96
	.byte	W96
	.byte	W96
	.byte	W96
	.byte	W96
	.byte	W96
	.byte	W96
	.byte	W96
	.byte	W96
	.byte	W96
	.byte	W96
	.byte	W96
	.byte	W96
	.byte	W96
	.byte	W96
	.byte	W96
	.byte	W96
	.byte	W96
	.byte	W96
	.byte	W96
	.byte	W96
	.byte	W96
	.byte	W96
	.byte	W96
	.byte	W96
	.byte	W96
	.byte	W96
	.byte	W96
	.byte	W96
	.byte	W96
	.byte	W96
	.byte	W96
	.byte	W96
	.byte	W96
	.byte	W96
	.byte	W96
	.byte	W96
	.byte	W96
	.byte	W96
	.byte	W96
	.byte	W96
	.byte	W48
	.byte	W02
	.byte		        20*seq_031_mvl/mxv
	.byte	W02
	.byte		        19*seq_031_mvl/mxv
	.byte	W01
	.byte		        19*seq_031_mvl/mxv
	.byte	W02
	.byte		        18*seq_031_mvl/mxv
	.byte	W01
	.byte		        17*seq_031_mvl/mxv
	.byte	W02
	.byte		        17*seq_031_mvl/mxv
	.byte	W01
	.byte		        16*seq_031_mvl/mxv
	.byte	W02
	.byte		        15*seq_031_mvl/mxv
	.byte	W01
	.byte		        14*seq_031_mvl/mxv
	.byte	W02
	.byte		        14*seq_031_mvl/mxv
	.byte	W01
	.byte		        13*seq_031_mvl/mxv
	.byte	W02
	.byte		        12*seq_031_mvl/mxv
	.byte	W01
	.byte		        12*seq_031_mvl/mxv
	.byte	W02
	.byte		        11*seq_031_mvl/mxv
	.byte	W01
	.byte		        10*seq_031_mvl/mxv
	.byte	W02
	.byte		        9*seq_031_mvl/mxv
	.byte	W01
	.byte		        9*seq_031_mvl/mxv
	.byte	W02
	.byte		        8*seq_031_mvl/mxv
	.byte	W01
	.byte		        7*seq_031_mvl/mxv
	.byte	W02
	.byte		        7*seq_031_mvl/mxv
	.byte	W01
	.byte		        6*seq_031_mvl/mxv
	.byte	W02
	.byte		        5*seq_031_mvl/mxv
	.byte	W01
	.byte		        4*seq_031_mvl/mxv
	.byte	W02
	.byte		        4*seq_031_mvl/mxv
	.byte	W01
	.byte		        3*seq_031_mvl/mxv
	.byte	W02
	.byte		        2*seq_031_mvl/mxv
	.byte	W01
	.byte		        2*seq_031_mvl/mxv
	.byte	W02
	.byte		        1*seq_031_mvl/mxv
	.byte	W01
	.byte		        0*seq_031_mvl/mxv
	.byte	W02
	.byte		        0*seq_031_mvl/mxv
	.byte	W02
	.byte		EOT
	.byte	GOTO
	 .word	seq_031_0 + 0x15
	.byte	FINE

@*********************** Track 02 ***********************@

seq_031_1:
	.byte	KEYSH , seq_031_key+0
	.byte	W03
	.byte		VOICE , 41
	.byte		MOD   , 20
	.byte		VOL   , 0*seq_031_mvl/mxv
	.byte	W01
	.byte		PAN   , c_v+63
	.byte		LFOS  , 80
	.byte		MODT  , mod_pan
	.byte	W20
	.byte		TIE   , Fn1 , v120
	.byte	W08
	.byte		VOL   , 0*seq_031_mvl/mxv
	.byte	W01
	.byte		        1*seq_031_mvl/mxv
	.byte	W01
	.byte		        2*seq_031_mvl/mxv
	.byte	W01
	.byte		        2*seq_031_mvl/mxv
	.byte	W01
	.byte		        3*seq_031_mvl/mxv
	.byte	W01
	.byte		        4*seq_031_mvl/mxv
	.byte	W01
	.byte		        4*seq_031_mvl/mxv
	.byte	W01
	.byte		        5*seq_031_mvl/mxv
	.byte	W01
	.byte		        6*seq_031_mvl/mxv
	.byte	W01
	.byte		        7*seq_031_mvl/mxv
	.byte	W01
	.byte		        7*seq_031_mvl/mxv
	.byte	W01
	.byte		        8*seq_031_mvl/mxv
	.byte	W01
	.byte		        9*seq_031_mvl/mxv
	.byte	W01
	.byte		        9*seq_031_mvl/mxv
	.byte	W01
	.byte		        10*seq_031_mvl/mxv
	.byte	W01
	.byte		        12*seq_031_mvl/mxv
	.byte	W01
	.byte		        12*seq_031_mvl/mxv
	.byte	W01
	.byte		        13*seq_031_mvl/mxv
	.byte	W01
	.byte		        14*seq_031_mvl/mxv
	.byte	W01
	.byte		        14*seq_031_mvl/mxv
	.byte	W01
	.byte		        15*seq_031_mvl/mxv
	.byte	W01
	.byte		        16*seq_031_mvl/mxv
	.byte	W01
	.byte		        17*seq_031_mvl/mxv
	.byte	W01
	.byte		        17*seq_031_mvl/mxv
	.byte	W01
	.byte		        18*seq_031_mvl/mxv
	.byte	W01
	.byte		        19*seq_031_mvl/mxv
	.byte	W01
	.byte		        19*seq_031_mvl/mxv
	.byte	W01
	.byte		        20*seq_031_mvl/mxv
	.byte	W01
	.byte		        21*seq_031_mvl/mxv
	.byte	W60
	.byte	W96
	.byte	W96
	.byte	W96
	.byte	W96
	.byte	W96
	.byte	W96
	.byte	W96
	.byte	W96
	.byte	W96
	.byte	W96
	.byte	W96
	.byte	W96
	.byte	W96
	.byte	W96
	.byte	W96
	.byte	W96
	.byte	W96
	.byte	W96
	.byte	W96
	.byte	W96
	.byte	W96
	.byte	W96
	.byte	W96
	.byte	W96
	.byte	W96
	.byte	W96
	.byte	W96
	.byte	W96
	.byte	W96
	.byte	W96
	.byte	W96
	.byte	W96
	.byte	W96
	.byte	W96
	.byte	W96
	.byte	W96
	.byte	W96
	.byte	W96
	.byte	W96
	.byte	W96
	.byte	W96
	.byte	W96
	.byte	W96
	.byte	W96
	.byte	W96
	.byte	W96
	.byte	W96
	.byte	W96
	.byte	W96
	.byte	W96
	.byte	W96
	.byte	W96
	.byte	W96
	.byte	W96
	.byte	W96
	.byte	W96
	.byte	W96
	.byte	W96
	.byte	W96
	.byte	W96
	.byte	W96
	.byte	W96
	.byte	W96
	.byte	W96
	.byte	W96
	.byte	W96
	.byte	W96
	.byte	W96
	.byte	W96
	.byte	W96
	.byte	W96
	.byte	W96
	.byte	W96
	.byte	W96
	.byte	W96
	.byte	W96
	.byte	W96
	.byte	W96
	.byte	W96
	.byte	W96
	.byte	W96
	.byte	W96
	.byte	W96
	.byte	W96
	.byte	W96
	.byte	W96
	.byte	W96
	.byte	W96
	.byte	W96
	.byte	W96
	.byte	W96
	.byte	W96
	.byte	W96
	.byte	W96
	.byte	W96
	.byte	W96
	.byte	W96
	.byte	W96
	.byte	W96
	.byte	W96
	.byte	W96
	.byte	W96
	.byte	W96
	.byte	W96
	.byte	W96
	.byte	W96
	.byte	W96
	.byte	W96
	.byte	W96
	.byte	W96
	.byte	W96
	.byte	W96
	.byte	W96
	.byte	W96
	.byte	W96
	.byte	W96
	.byte	W96
	.byte	W96
	.byte	W96
	.byte	W96
	.byte	W96
	.byte	W96
	.byte	W96
	.byte	W96
	.byte	W96
	.byte	W96
	.byte	W96
	.byte	W96
	.byte	W96
	.byte	W96
	.byte	W96
	.byte	W96
	.byte	W96
	.byte	W96
	.byte	W96
	.byte	W96
	.byte	W96
	.byte	W96
	.byte	W96
	.byte	W96
	.byte	W96
	.byte	W96
	.byte	W96
	.byte	W96
	.byte	W96
	.byte	W96
	.byte	W96
	.byte	W96
	.byte	W96
	.byte	W96
	.byte	W96
	.byte	W96
	.byte	W96
	.byte	W96
	.byte	W96
	.byte	W96
	.byte	W96
	.byte	W96
	.byte	W96
	.byte	W96
	.byte	W96
	.byte	W96
	.byte	W96
	.byte	W96
	.byte	W96
	.byte	W96
	.byte	W96
	.byte	W96
	.byte	W96
	.byte	W96
	.byte	W96
	.byte	W96
	.byte	W96
	.byte	W96
	.byte	W96
	.byte	W96
	.byte	W96
	.byte	W96
	.byte	W96
	.byte	W96
	.byte	W96
	.byte	W96
	.byte	W96
	.byte	W96
	.byte	W96
	.byte	W96
	.byte	W96
	.byte	W96
	.byte	W96
	.byte	W96
	.byte	W96
	.byte	W96
	.byte	W96
	.byte	W96
	.byte	W96
	.byte	W96
	.byte	W96
	.byte	W96
	.byte	W96
	.byte	W96
	.byte	W96
	.byte	W96
	.byte	W96
	.byte	W96
	.byte	W96
	.byte	W96
	.byte	W96
	.byte	W96
	.byte	W96
	.byte	W96
	.byte	W96
	.byte	W96
	.byte	W96
	.byte	W96
	.byte	W96
	.byte	W96
	.byte	W96
	.byte	W96
	.byte	W96
	.byte	W96
	.byte	W96
	.byte	W96
	.byte	W96
	.byte	W96
	.byte	W96
	.byte	W96
	.byte	W96
	.byte	W96
	.byte	W96
	.byte	W96
	.byte	W96
	.byte	W96
	.byte	W96
	.byte	W96
	.byte	W96
	.byte	W96
	.byte	W96
	.byte	W96
	.byte	W96
	.byte	W96
	.byte	W96
	.byte	W96
	.byte	W96
	.byte	W96
	.byte	W96
	.byte	W96
	.byte	W96
	.byte	W96
	.byte	W96
	.byte	W96
	.byte	W96
	.byte	W96
	.byte	W96
	.byte	W96
	.byte	W96
	.byte	W96
	.byte	W96
	.byte	W96
	.byte	W96
	.byte	W96
	.byte	W96
	.byte	W96
	.byte	W96
	.byte	W96
	.byte	W96
	.byte	W96
	.byte	W96
	.byte	W96
	.byte	W96
	.byte	W96
	.byte	W96
	.byte	W96
	.byte	W96
	.byte	W96
	.byte	W96
	.byte	W96
	.byte	W96
	.byte	W96
	.byte	W96
	.byte	W96
	.byte	W96
	.byte	W96
	.byte	W96
	.byte	W96
	.byte	W96
	.byte	W96
	.byte	W96
	.byte	W96
	.byte	W96
	.byte	W96
	.byte	W96
	.byte	W96
	.byte	W96
	.byte	W96
	.byte	W96
	.byte	W96
	.byte	W96
	.byte	W96
	.byte	W96
	.byte	W96
	.byte	W96
	.byte	W96
	.byte	W96
	.byte	W96
	.byte	W96
	.byte	W96
	.byte	W96
	.byte	W96
	.byte	W96
	.byte	W96
	.byte	W96
	.byte	W96
	.byte	W96
	.byte	W96
	.byte	W96
	.byte	W96
	.byte	W96
	.byte	W96
	.byte	W96
	.byte	W96
	.byte	W96
	.byte	W96
	.byte	W96
	.byte	W96
	.byte	W96
	.byte	W96
	.byte	W96
	.byte	W96
	.byte	W96
	.byte	W96
	.byte	W96
	.byte	W96
	.byte	W96
	.byte	W96
	.byte	W96
	.byte	W96
	.byte	W96
	.byte	W96
	.byte	W96
	.byte	W96
	.byte	W96
	.byte	W96
	.byte	W96
	.byte	W96
	.byte	W96
	.byte	W96
	.byte	W96
	.byte	W96
	.byte	W96
	.byte	W96
	.byte	W96
	.byte	W96
	.byte	W96
	.byte	W96
	.byte	W96
	.byte	W96
	.byte	W96
	.byte	W96
	.byte	W96
	.byte	W96
	.byte	W96
	.byte	W96
	.byte	W96
	.byte	W96
	.byte	W96
	.byte	W48
	.byte	W02
	.byte		        20*seq_031_mvl/mxv
	.byte	W02
	.byte		        19*seq_031_mvl/mxv
	.byte	W01
	.byte		        19*seq_031_mvl/mxv
	.byte	W02
	.byte		        18*seq_031_mvl/mxv
	.byte	W01
	.byte		        17*seq_031_mvl/mxv
	.byte	W02
	.byte		        17*seq_031_mvl/mxv
	.byte	W01
	.byte		        16*seq_031_mvl/mxv
	.byte	W02
	.byte		        15*seq_031_mvl/mxv
	.byte	W01
	.byte		        14*seq_031_mvl/mxv
	.byte	W02
	.byte		        14*seq_031_mvl/mxv
	.byte	W01
	.byte		        13*seq_031_mvl/mxv
	.byte	W02
	.byte		        12*seq_031_mvl/mxv
	.byte	W01
	.byte		        12*seq_031_mvl/mxv
	.byte	W02
	.byte		        11*seq_031_mvl/mxv
	.byte	W01
	.byte		        10*seq_031_mvl/mxv
	.byte	W02
	.byte		        9*seq_031_mvl/mxv
	.byte	W01
	.byte		        9*seq_031_mvl/mxv
	.byte	W02
	.byte		        8*seq_031_mvl/mxv
	.byte	W01
	.byte		        7*seq_031_mvl/mxv
	.byte	W02
	.byte		        7*seq_031_mvl/mxv
	.byte	W01
	.byte		        6*seq_031_mvl/mxv
	.byte	W02
	.byte		        5*seq_031_mvl/mxv
	.byte	W01
	.byte		        4*seq_031_mvl/mxv
	.byte	W02
	.byte		        4*seq_031_mvl/mxv
	.byte	W01
	.byte		        3*seq_031_mvl/mxv
	.byte	W02
	.byte		        2*seq_031_mvl/mxv
	.byte	W01
	.byte		        2*seq_031_mvl/mxv
	.byte	W02
	.byte		        1*seq_031_mvl/mxv
	.byte	W01
	.byte		        0*seq_031_mvl/mxv
	.byte	W02
	.byte		        0*seq_031_mvl/mxv
	.byte	W02
	.byte		EOT
	.byte	GOTO
	 .word	seq_031_1 + 0x11
	.byte	FINE

@*********************** Track 03 ***********************@

seq_031_2:
	.byte	KEYSH , seq_031_key+0
	.byte	W05
	.byte		VOICE , 46
	.byte		VOL   , 49*seq_031_mvl/mxv
	.byte		PAN   , c_v+20
	.byte	W01
	.byte		BENDR , 12
	.byte		LFOS  , 100
	.byte		MODT  , mod_pan
	.byte	W18
	.byte	W96
	.byte		N13   , En1 , v112
	.byte	W13
	.byte		N15   , Cn2 , v072
	.byte	W15
	.byte		N07   , En1 , v040
	.byte	W07
	.byte		N15   , Cn2 
	.byte	W60
	.byte	W01
	.byte	PEND
	.byte	W96
	.byte	W96
	.byte	W42
	.byte	W01
	.byte		N09   , En1 , v112
	.byte	W09
	.byte		N07   , Gs1 , v060
	.byte	W07
	.byte		N13   , As1 , v080
	.byte	W13
	.byte		N09   , En1 , v032
	.byte	W09
	.byte		N21   , Gs1 
	.byte	W15
	.byte	PEND
	.byte	W96
	.byte	W96
	.byte	W96
	.byte	W96
	.byte	W96
	.byte	W96
	.byte	W96
	.byte	W96
	.byte	W96
	.byte	W96
	.byte	W96
	.byte	W96
	.byte	PATT
	 .word	seq_031_2 + 0x12
	.byte	W96
	.byte	W96
	.byte	PATT
	 .word	seq_031_2 + 0x25
	.byte	W96
	.byte	W96
	.byte	W96
	.byte	W96
	.byte	W96
	.byte	W96
	.byte	W96
	.byte	W96
	.byte	W96
	.byte	W96
	.byte	W96
	.byte	W96
	.byte	PATT
	 .word	seq_031_2 + 0x12
	.byte	W96
	.byte	W96
	.byte	PATT
	 .word	seq_031_2 + 0x25
	.byte	W96
	.byte	W96
	.byte	W96
	.byte	W96
	.byte	W96
	.byte	W96
	.byte	W96
	.byte	W96
	.byte	W96
	.byte	W96
	.byte	W96
	.byte	W96
	.byte	PATT
	 .word	seq_031_2 + 0x12
	.byte	W96
	.byte	W96
	.byte	PATT
	 .word	seq_031_2 + 0x25
	.byte	W96
	.byte	W96
	.byte	W96
	.byte	W96
	.byte	W96
	.byte	W96
	.byte	W96
	.byte	W96
	.byte	W96
	.byte	W96
	.byte	W96
	.byte	W96
	.byte	PATT
	 .word	seq_031_2 + 0x12
	.byte	W96
	.byte	W96
	.byte	PATT
	 .word	seq_031_2 + 0x25
	.byte	W96
	.byte	W96
	.byte	W96
	.byte	W96
	.byte	W96
	.byte	W96
	.byte	W96
	.byte	W96
	.byte	W96
	.byte	W96
	.byte	W96
	.byte	W96
	.byte	PATT
	 .word	seq_031_2 + 0x12
	.byte	W96
	.byte	W96
	.byte	PATT
	 .word	seq_031_2 + 0x25
	.byte	W96
	.byte	W96
	.byte	W96
	.byte	W96
	.byte	W96
	.byte	W96
	.byte	W96
	.byte	W96
	.byte	W96
	.byte	W96
	.byte	W96
	.byte	W96
	.byte	PATT
	 .word	seq_031_2 + 0x12
	.byte	W96
	.byte	W96
	.byte	PATT
	 .word	seq_031_2 + 0x25
	.byte	W96
	.byte	W96
	.byte	W96
	.byte	W96
	.byte	W96
	.byte	W96
	.byte	W96
	.byte	W96
	.byte	W96
	.byte	W96
	.byte	W96
	.byte	W96
	.byte	PATT
	 .word	seq_031_2 + 0x12
	.byte	W96
	.byte	W96
	.byte	PATT
	 .word	seq_031_2 + 0x25
	.byte	W96
	.byte	W96
	.byte	W96
	.byte	W96
	.byte	W96
	.byte	W96
	.byte	W96
	.byte	W96
	.byte	W96
	.byte	W96
	.byte	W96
	.byte	W96
	.byte	PATT
	 .word	seq_031_2 + 0x12
	.byte	W96
	.byte	W96
	.byte	PATT
	 .word	seq_031_2 + 0x25
	.byte	W96
	.byte	W96
	.byte	W96
	.byte	W96
	.byte	W96
	.byte	W96
	.byte	W96
	.byte	W96
	.byte	W96
	.byte	W96
	.byte	W96
	.byte	W96
	.byte	PATT
	 .word	seq_031_2 + 0x12
	.byte	W96
	.byte	W96
	.byte	PATT
	 .word	seq_031_2 + 0x25
	.byte	W96
	.byte	W96
	.byte	W96
	.byte	W96
	.byte	W96
	.byte	W96
	.byte	W96
	.byte	W96
	.byte	W96
	.byte	W96
	.byte	W96
	.byte	W96
	.byte	PATT
	 .word	seq_031_2 + 0x12
	.byte	W96
	.byte	W96
	.byte	PATT
	 .word	seq_031_2 + 0x25
	.byte	W96
	.byte	W96
	.byte	W96
	.byte	W96
	.byte	W96
	.byte	W96
	.byte	W96
	.byte	W96
	.byte	W96
	.byte	W96
	.byte	W96
	.byte	W96
	.byte	PATT
	 .word	seq_031_2 + 0x12
	.byte	W96
	.byte	W96
	.byte	PATT
	 .word	seq_031_2 + 0x25
	.byte	W96
	.byte	W96
	.byte	W96
	.byte	W96
	.byte	W96
	.byte	W96
	.byte	W96
	.byte	W96
	.byte	W96
	.byte	W96
	.byte	W96
	.byte	W96
	.byte	PATT
	 .word	seq_031_2 + 0x12
	.byte	W96
	.byte	W96
	.byte	PATT
	 .word	seq_031_2 + 0x25
	.byte	W96
	.byte	W96
	.byte	W96
	.byte	W96
	.byte	W96
	.byte	W96
	.byte	W96
	.byte	W96
	.byte	W96
	.byte	W96
	.byte	W96
	.byte	W96
	.byte	PATT
	 .word	seq_031_2 + 0x12
	.byte	W96
	.byte	W96
	.byte	PATT
	 .word	seq_031_2 + 0x25
	.byte	W96
	.byte	W96
	.byte	W96
	.byte	W96
	.byte	W96
	.byte	W96
	.byte	W96
	.byte	W96
	.byte	W96
	.byte	W96
	.byte	W96
	.byte	W96
	.byte	PATT
	 .word	seq_031_2 + 0x12
	.byte	W96
	.byte	W96
	.byte	PATT
	 .word	seq_031_2 + 0x25
	.byte	W96
	.byte	W96
	.byte	W96
	.byte	W96
	.byte	W96
	.byte	W96
	.byte	W96
	.byte	W96
	.byte	W96
	.byte	W96
	.byte	W96
	.byte	W96
	.byte	PATT
	 .word	seq_031_2 + 0x12
	.byte	W96
	.byte	W96
	.byte	PATT
	 .word	seq_031_2 + 0x25
	.byte	W96
	.byte	W96
	.byte	W96
	.byte	W96
	.byte	W96
	.byte	W96
	.byte	W96
	.byte	W96
	.byte	W96
	.byte	W96
	.byte	W96
	.byte	W96
	.byte	PATT
	 .word	seq_031_2 + 0x12
	.byte	W96
	.byte	W96
	.byte	PATT
	 .word	seq_031_2 + 0x25
	.byte	W96
	.byte	W96
	.byte	W96
	.byte	W96
	.byte	W96
	.byte	W96
	.byte	W96
	.byte	W96
	.byte	W96
	.byte	W96
	.byte	W96
	.byte	W96
	.byte	PATT
	 .word	seq_031_2 + 0x12
	.byte	W96
	.byte	W96
	.byte	PATT
	 .word	seq_031_2 + 0x25
	.byte	W96
	.byte	W96
	.byte	W96
	.byte	W96
	.byte	W96
	.byte	W96
	.byte	W96
	.byte	W96
	.byte	W96
	.byte	W96
	.byte	W96
	.byte	W96
	.byte	PATT
	 .word	seq_031_2 + 0x12
	.byte	W96
	.byte	W96
	.byte	PATT
	 .word	seq_031_2 + 0x25
	.byte	W96
	.byte	W96
	.byte	W96
	.byte	W96
	.byte	W96
	.byte	W96
	.byte	W96
	.byte	W96
	.byte	W96
	.byte	W96
	.byte	W96
	.byte	W96
	.byte	PATT
	 .word	seq_031_2 + 0x12
	.byte	W96
	.byte	W96
	.byte	PATT
	 .word	seq_031_2 + 0x25
	.byte	W96
	.byte	W96
	.byte	W96
	.byte	W96
	.byte	W96
	.byte	W96
	.byte	W96
	.byte	W96
	.byte	W96
	.byte	W96
	.byte	W96
	.byte	W96
	.byte	PATT
	 .word	seq_031_2 + 0x12
	.byte	W96
	.byte	W96
	.byte	PATT
	 .word	seq_031_2 + 0x25
	.byte	W96
	.byte	W96
	.byte	W96
	.byte	W96
	.byte	W96
	.byte	W96
	.byte	W96
	.byte	W96
	.byte	W96
	.byte	W96
	.byte	W96
	.byte	W96
	.byte	PATT
	 .word	seq_031_2 + 0x12
	.byte	W96
	.byte	W96
	.byte	PATT
	 .word	seq_031_2 + 0x25
	.byte	W96
	.byte	W96
	.byte	W96
	.byte	W96
	.byte	W96
	.byte	W96
	.byte	W96
	.byte	W96
	.byte	W96
	.byte	W96
	.byte	W96
	.byte	W96
	.byte	PATT
	 .word	seq_031_2 + 0x12
	.byte	W96
	.byte	W96
	.byte	PATT
	 .word	seq_031_2 + 0x25
	.byte	W96
	.byte	W96
	.byte	W96
	.byte	W96
	.byte	W96
	.byte	W96
	.byte	W96
	.byte	W96
	.byte	W96
	.byte	W96
	.byte	GOTO
	 .word	seq_031_2 + 0x11
	.byte	FINE

@*********************** Track 04 ***********************@

seq_031_3:
	.byte	KEYSH , seq_031_key+0
	.byte	W07
	.byte		VOICE , 46
	.byte		VOL   , 46*seq_031_mvl/mxv
	.byte		PAN   , c_v-20
	.byte	W01
	.byte		BENDR , 12
	.byte		LFOS  , 30
	.byte		MODT  , mod_vib
	.byte	W16
	.byte	W96
	.byte	W06
	.byte		N13   , Fs1 , v112
	.byte	W13
	.byte		N15   , Dn2 , v072
	.byte	W15
	.byte		N07   , Fs1 , v040
	.byte	W07
	.byte		N15   , Dn2 
	.byte	W54
	.byte	W01
	.byte	PEND
	.byte	W96
	.byte	W96
	.byte	W48
	.byte	W01
	.byte		N09   , Fs1 , v112
	.byte	W09
	.byte		N07   , As1 , v060
	.byte	W07
	.byte		N13   , Cn2 , v080
	.byte	W13
	.byte		N09   , Fs1 , v032
	.byte	W09
	.byte		N21   , As1 
	.byte	W09
	.byte	PEND
	.byte	W96
	.byte	W96
	.byte	W96
	.byte	W96
	.byte	W96
	.byte	W96
	.byte	W96
	.byte	W96
	.byte	W96
	.byte	W96
	.byte	W96
	.byte	W96
	.byte	PATT
	 .word	seq_031_3 + 0x12
	.byte	W96
	.byte	W96
	.byte	PATT
	 .word	seq_031_3 + 0x26
	.byte	W96
	.byte	W96
	.byte	W96
	.byte	W96
	.byte	W96
	.byte	W96
	.byte	W96
	.byte	W96
	.byte	W96
	.byte	W96
	.byte	W96
	.byte	W96
	.byte	PATT
	 .word	seq_031_3 + 0x12
	.byte	W96
	.byte	W96
	.byte	PATT
	 .word	seq_031_3 + 0x26
	.byte	W96
	.byte	W96
	.byte	W96
	.byte	W96
	.byte	W96
	.byte	W96
	.byte	W96
	.byte	W96
	.byte	W96
	.byte	W96
	.byte	W96
	.byte	W96
	.byte	PATT
	 .word	seq_031_3 + 0x12
	.byte	W96
	.byte	W96
	.byte	PATT
	 .word	seq_031_3 + 0x26
	.byte	W96
	.byte	W96
	.byte	W96
	.byte	W96
	.byte	W96
	.byte	W96
	.byte	W96
	.byte	W96
	.byte	W96
	.byte	W96
	.byte	W96
	.byte	W96
	.byte	PATT
	 .word	seq_031_3 + 0x12
	.byte	W96
	.byte	W96
	.byte	PATT
	 .word	seq_031_3 + 0x26
	.byte	W96
	.byte	W96
	.byte	W96
	.byte	W96
	.byte	W96
	.byte	W96
	.byte	W96
	.byte	W96
	.byte	W96
	.byte	W96
	.byte	W96
	.byte	W96
	.byte	PATT
	 .word	seq_031_3 + 0x12
	.byte	W96
	.byte	W96
	.byte	PATT
	 .word	seq_031_3 + 0x26
	.byte	W96
	.byte	W96
	.byte	W96
	.byte	W96
	.byte	W96
	.byte	W96
	.byte	W96
	.byte	W96
	.byte	W96
	.byte	W96
	.byte	W96
	.byte	W96
	.byte	PATT
	 .word	seq_031_3 + 0x12
	.byte	W96
	.byte	W96
	.byte	PATT
	 .word	seq_031_3 + 0x26
	.byte	W96
	.byte	W96
	.byte	W96
	.byte	W96
	.byte	W96
	.byte	W96
	.byte	W96
	.byte	W96
	.byte	W96
	.byte	W96
	.byte	W96
	.byte	W96
	.byte	PATT
	 .word	seq_031_3 + 0x12
	.byte	W96
	.byte	W96
	.byte	PATT
	 .word	seq_031_3 + 0x26
	.byte	W96
	.byte	W96
	.byte	W96
	.byte	W96
	.byte	W96
	.byte	W96
	.byte	W96
	.byte	W96
	.byte	W96
	.byte	W96
	.byte	W96
	.byte	W96
	.byte	PATT
	 .word	seq_031_3 + 0x12
	.byte	W96
	.byte	W96
	.byte	PATT
	 .word	seq_031_3 + 0x26
	.byte	W96
	.byte	W96
	.byte	W96
	.byte	W96
	.byte	W96
	.byte	W96
	.byte	W96
	.byte	W96
	.byte	W96
	.byte	W96
	.byte	W96
	.byte	W96
	.byte	PATT
	 .word	seq_031_3 + 0x12
	.byte	W96
	.byte	W96
	.byte	PATT
	 .word	seq_031_3 + 0x26
	.byte	W96
	.byte	W96
	.byte	W96
	.byte	W96
	.byte	W96
	.byte	W96
	.byte	W96
	.byte	W96
	.byte	W96
	.byte	W96
	.byte	W96
	.byte	W96
	.byte	PATT
	 .word	seq_031_3 + 0x12
	.byte	W96
	.byte	W96
	.byte	PATT
	 .word	seq_031_3 + 0x26
	.byte	W96
	.byte	W96
	.byte	W96
	.byte	W96
	.byte	W96
	.byte	W96
	.byte	W96
	.byte	W96
	.byte	W96
	.byte	W96
	.byte	W96
	.byte	W96
	.byte	PATT
	 .word	seq_031_3 + 0x12
	.byte	W96
	.byte	W96
	.byte	PATT
	 .word	seq_031_3 + 0x26
	.byte	W96
	.byte	W96
	.byte	W96
	.byte	W96
	.byte	W96
	.byte	W96
	.byte	W96
	.byte	W96
	.byte	W96
	.byte	W96
	.byte	W96
	.byte	W96
	.byte	PATT
	 .word	seq_031_3 + 0x12
	.byte	W96
	.byte	W96
	.byte	PATT
	 .word	seq_031_3 + 0x26
	.byte	W96
	.byte	W96
	.byte	W96
	.byte	W96
	.byte	W96
	.byte	W96
	.byte	W96
	.byte	W96
	.byte	W96
	.byte	W96
	.byte	W96
	.byte	W96
	.byte	PATT
	 .word	seq_031_3 + 0x12
	.byte	W96
	.byte	W96
	.byte	PATT
	 .word	seq_031_3 + 0x26
	.byte	W96
	.byte	W96
	.byte	W96
	.byte	W96
	.byte	W96
	.byte	W96
	.byte	W96
	.byte	W96
	.byte	W96
	.byte	W96
	.byte	W96
	.byte	W96
	.byte	PATT
	 .word	seq_031_3 + 0x12
	.byte	W96
	.byte	W96
	.byte	PATT
	 .word	seq_031_3 + 0x26
	.byte	W96
	.byte	W96
	.byte	W96
	.byte	W96
	.byte	W96
	.byte	W96
	.byte	W96
	.byte	W96
	.byte	W96
	.byte	W96
	.byte	W96
	.byte	W96
	.byte	PATT
	 .word	seq_031_3 + 0x12
	.byte	W96
	.byte	W96
	.byte	PATT
	 .word	seq_031_3 + 0x26
	.byte	W96
	.byte	W96
	.byte	W96
	.byte	W96
	.byte	W96
	.byte	W96
	.byte	W96
	.byte	W96
	.byte	W96
	.byte	W96
	.byte	W96
	.byte	W96
	.byte	PATT
	 .word	seq_031_3 + 0x12
	.byte	W96
	.byte	W96
	.byte	PATT
	 .word	seq_031_3 + 0x26
	.byte	W96
	.byte	W96
	.byte	W96
	.byte	W96
	.byte	W96
	.byte	W96
	.byte	W96
	.byte	W96
	.byte	W96
	.byte	W96
	.byte	W96
	.byte	W96
	.byte	PATT
	 .word	seq_031_3 + 0x12
	.byte	W96
	.byte	W96
	.byte	PATT
	 .word	seq_031_3 + 0x26
	.byte	W96
	.byte	W96
	.byte	W96
	.byte	W96
	.byte	W96
	.byte	W96
	.byte	W96
	.byte	W96
	.byte	W96
	.byte	W96
	.byte	W96
	.byte	W96
	.byte	PATT
	 .word	seq_031_3 + 0x12
	.byte	W96
	.byte	W96
	.byte	PATT
	 .word	seq_031_3 + 0x26
	.byte	W96
	.byte	W96
	.byte	W96
	.byte	W96
	.byte	W96
	.byte	W96
	.byte	W96
	.byte	W96
	.byte	W96
	.byte	W96
	.byte	W96
	.byte	W96
	.byte	PATT
	 .word	seq_031_3 + 0x12
	.byte	W96
	.byte	W96
	.byte	PATT
	 .word	seq_031_3 + 0x26
	.byte	W96
	.byte	W96
	.byte	W96
	.byte	W96
	.byte	W96
	.byte	W96
	.byte	W96
	.byte	W96
	.byte	W96
	.byte	W96
	.byte	W96
	.byte	W96
	.byte	PATT
	 .word	seq_031_3 + 0x12
	.byte	W96
	.byte	W96
	.byte	PATT
	 .word	seq_031_3 + 0x26
	.byte	W96
	.byte	W96
	.byte	W96
	.byte	W96
	.byte	W96
	.byte	W96
	.byte	W96
	.byte	W96
	.byte	W96
	.byte	W96
	.byte	W96
	.byte	W96
	.byte	PATT
	 .word	seq_031_3 + 0x12
	.byte	W96
	.byte	W96
	.byte	PATT
	 .word	seq_031_3 + 0x26
	.byte	W96
	.byte	W96
	.byte	W96
	.byte	W96
	.byte	W96
	.byte	W96
	.byte	W96
	.byte	W96
	.byte	W96
	.byte	W96
	.byte	W96
	.byte	W96
	.byte	PATT
	 .word	seq_031_3 + 0x12
	.byte	W96
	.byte	W96
	.byte	PATT
	 .word	seq_031_3 + 0x26
	.byte	W96
	.byte	W96
	.byte	W96
	.byte	W96
	.byte	W96
	.byte	W96
	.byte	W96
	.byte	W96
	.byte	W96
	.byte	W96
	.byte	GOTO
	 .word	seq_031_3 + 0x11
	.byte	FINE

@*********************** Track 05 ***********************@

seq_031_4:
	.byte	KEYSH , seq_031_key+0
	.byte	W09
	.byte		VOICE , 52
	.byte		MOD   , 20
	.byte		VOL   , 14*seq_031_mvl/mxv
	.byte	W01
	.byte		PAN   , c_v-20
	.byte		BENDR , 2
	.byte		LFOS  , 60
	.byte	W01
	.byte		MODT  , mod_pan
	.byte	W13
	.byte	W96
	.byte	W96
	.byte	W23
	.byte		VOL   , 0*seq_031_mvl/mxv
	.byte	W01
	.byte		TIE   , Cn3 , v127
	.byte	W15
	.byte		VOL   , 2*seq_031_mvl/mxv
	.byte	W03
	.byte		        6*seq_031_mvl/mxv
	.byte	W03
	.byte		        9*seq_031_mvl/mxv
	.byte	W03
	.byte		        13*seq_031_mvl/mxv
	.byte	W01
	.byte		MOD   , 40
	.byte	W02
	.byte		VOL   , 17*seq_031_mvl/mxv
	.byte	W03
	.byte		        21*seq_031_mvl/mxv
	.byte	W03
	.byte		        24*seq_031_mvl/mxv
	.byte	W03
	.byte		        29*seq_031_mvl/mxv
	.byte	W03
	.byte		        32*seq_031_mvl/mxv
	.byte	W03
	.byte		        36*seq_031_mvl/mxv
	.byte	W03
	.byte		        40*seq_031_mvl/mxv
	.byte	W03
	.byte		        43*seq_031_mvl/mxv
	.byte	W03
	.byte		        48*seq_031_mvl/mxv
	.byte	W03
	.byte		        51*seq_031_mvl/mxv
	.byte	W03
	.byte		        55*seq_031_mvl/mxv
	.byte	W03
	.byte		MOD   , 60
	.byte		VOL   , 59*seq_031_mvl/mxv
	.byte	W03
	.byte		        63*seq_031_mvl/mxv
	.byte	W03
	.byte		        66*seq_031_mvl/mxv
	.byte	W03
	.byte		        70*seq_031_mvl/mxv
	.byte	W03
	.byte	PEND
	.byte		VOL   , 74*seq_031_mvl/mxv
	.byte	W03
	.byte		        77*seq_031_mvl/mxv
	.byte	W03
	.byte		        82*seq_031_mvl/mxv
	.byte	W01
	.byte		MOD   , 40
	.byte	W02
	.byte		VOL   , 85*seq_031_mvl/mxv
	.byte	W03
	.byte		        90*seq_031_mvl/mxv
	.byte	W05
	.byte		        87*seq_031_mvl/mxv
	.byte	W04
	.byte		MOD   , 20
	.byte	W01
	.byte		VOL   , 85*seq_031_mvl/mxv
	.byte	W04
	.byte		        83*seq_031_mvl/mxv
	.byte	W04
	.byte		        82*seq_031_mvl/mxv
	.byte	W04
	.byte		        80*seq_031_mvl/mxv
	.byte	W04
	.byte		        77*seq_031_mvl/mxv
	.byte	W05
	.byte		        75*seq_031_mvl/mxv
	.byte	W04
	.byte		        73*seq_031_mvl/mxv
	.byte	W04
	.byte		        71*seq_031_mvl/mxv
	.byte	W04
	.byte		        69*seq_031_mvl/mxv
	.byte	W04
	.byte		        68*seq_031_mvl/mxv
	.byte	W05
	.byte		        65*seq_031_mvl/mxv
	.byte	W04
	.byte		        62*seq_031_mvl/mxv
	.byte	W04
	.byte		        58*seq_031_mvl/mxv
	.byte	W04
	.byte		        53*seq_031_mvl/mxv
	.byte	W04
	.byte		        48*seq_031_mvl/mxv
	.byte	W04
	.byte		        43*seq_031_mvl/mxv
	.byte	W05
	.byte		        37*seq_031_mvl/mxv
	.byte	W04
	.byte		        32*seq_031_mvl/mxv
	.byte	W03
	.byte	PEND
	.byte	W01
	.byte		VOL   , 27*seq_031_mvl/mxv
	.byte	W04
	.byte		        22*seq_031_mvl/mxv
	.byte	W04
	.byte		        18*seq_031_mvl/mxv
	.byte	W05
	.byte		        12*seq_031_mvl/mxv
	.byte	W04
	.byte		        7*seq_031_mvl/mxv
	.byte	W06
	.byte	PEND
	.byte		EOT   , Cn3 
	.byte	W72
	.byte	W96
	.byte	W96
	.byte	W96
	.byte	PATT
	 .word	seq_031_4 + 0x16
	.byte	PATT
	 .word	seq_031_4 + 0x4D
	.byte	PATT
	 .word	seq_031_4 + 0x87
	.byte		EOT   , Cn3 
	.byte	W72
	.byte	W96
	.byte	W68
	.byte	W03
	.byte		VOL   , 0*seq_031_mvl/mxv
	.byte	W01
	.byte		TIE   , Bn2 , v127
	.byte	W15
	.byte		VOL   , 2*seq_031_mvl/mxv
	.byte	W03
	.byte		        6*seq_031_mvl/mxv
	.byte	W03
	.byte		        9*seq_031_mvl/mxv
	.byte	W03
	.byte	PEND
	.byte		VOL   , 13*seq_031_mvl/mxv
	.byte	W01
	.byte		MOD   , 40
	.byte	W02
	.byte		VOL   , 17*seq_031_mvl/mxv
	.byte	W03
	.byte		        21*seq_031_mvl/mxv
	.byte	W03
	.byte		        24*seq_031_mvl/mxv
	.byte	W03
	.byte		        29*seq_031_mvl/mxv
	.byte	W03
	.byte		        32*seq_031_mvl/mxv
	.byte	W03
	.byte		        36*seq_031_mvl/mxv
	.byte	W03
	.byte		        40*seq_031_mvl/mxv
	.byte	W03
	.byte		        43*seq_031_mvl/mxv
	.byte	W03
	.byte		        48*seq_031_mvl/mxv
	.byte	W03
	.byte		        51*seq_031_mvl/mxv
	.byte	W03
	.byte		        55*seq_031_mvl/mxv
	.byte	W03
	.byte		MOD   , 60
	.byte		VOL   , 59*seq_031_mvl/mxv
	.byte	W03
	.byte		        63*seq_031_mvl/mxv
	.byte	W03
	.byte		        66*seq_031_mvl/mxv
	.byte	W03
	.byte		        70*seq_031_mvl/mxv
	.byte	W03
	.byte		        74*seq_031_mvl/mxv
	.byte	W03
	.byte		        77*seq_031_mvl/mxv
	.byte	W03
	.byte		        82*seq_031_mvl/mxv
	.byte	W01
	.byte		MOD   , 40
	.byte	W02
	.byte		VOL   , 85*seq_031_mvl/mxv
	.byte	W03
	.byte		        90*seq_031_mvl/mxv
	.byte	W05
	.byte		        87*seq_031_mvl/mxv
	.byte	W04
	.byte		MOD   , 20
	.byte	W01
	.byte		VOL   , 85*seq_031_mvl/mxv
	.byte	W04
	.byte		        83*seq_031_mvl/mxv
	.byte	W04
	.byte		        82*seq_031_mvl/mxv
	.byte	W04
	.byte		        80*seq_031_mvl/mxv
	.byte	W04
	.byte		        77*seq_031_mvl/mxv
	.byte	W05
	.byte		        75*seq_031_mvl/mxv
	.byte	W04
	.byte		        73*seq_031_mvl/mxv
	.byte	W01
	.byte	PEND
	.byte	W03
	.byte		VOL   , 71*seq_031_mvl/mxv
	.byte	W04
	.byte		        69*seq_031_mvl/mxv
	.byte	W04
	.byte		        68*seq_031_mvl/mxv
	.byte	W05
	.byte		        65*seq_031_mvl/mxv
	.byte	W04
	.byte		        62*seq_031_mvl/mxv
	.byte	W04
	.byte		        58*seq_031_mvl/mxv
	.byte	W04
	.byte		        53*seq_031_mvl/mxv
	.byte	W04
	.byte		        48*seq_031_mvl/mxv
	.byte	W04
	.byte		        43*seq_031_mvl/mxv
	.byte	W05
	.byte		        37*seq_031_mvl/mxv
	.byte	W04
	.byte		        32*seq_031_mvl/mxv
	.byte	W04
	.byte		        27*seq_031_mvl/mxv
	.byte	W04
	.byte		        22*seq_031_mvl/mxv
	.byte	W04
	.byte		        18*seq_031_mvl/mxv
	.byte	W05
	.byte		        12*seq_031_mvl/mxv
	.byte	W04
	.byte		        7*seq_031_mvl/mxv
	.byte	W06
	.byte	PEND
	.byte		EOT   , Bn2 
	.byte	W24
	.byte	W96
	.byte	W96
	.byte	W96
	.byte	PATT
	 .word	seq_031_4 + 0x16
	.byte	PATT
	 .word	seq_031_4 + 0x4D
	.byte	PATT
	 .word	seq_031_4 + 0x87
	.byte		EOT   , Cn3 
	.byte	W72
	.byte	W96
	.byte	W96
	.byte	W96
	.byte	PATT
	 .word	seq_031_4 + 0x16
	.byte	PATT
	 .word	seq_031_4 + 0x4D
	.byte	PATT
	 .word	seq_031_4 + 0x87
	.byte		EOT   , Cn3 
	.byte	W72
	.byte	W96
	.byte	PATT
	 .word	seq_031_4 + 0xAD
	.byte	PATT
	 .word	seq_031_4 + 0xBE
	.byte	PATT
	 .word	seq_031_4 + 0x109
	.byte		EOT   , Bn2 
	.byte	W24
	.byte	W96
	.byte	W96
	.byte	W96
	.byte	PATT
	 .word	seq_031_4 + 0x16
	.byte	PATT
	 .word	seq_031_4 + 0x4D
	.byte	PATT
	 .word	seq_031_4 + 0x87
	.byte		EOT   , Cn3 
	.byte	W72
	.byte	W96
	.byte	W96
	.byte	W96
	.byte	PATT
	 .word	seq_031_4 + 0x16
	.byte	PATT
	 .word	seq_031_4 + 0x4D
	.byte	PATT
	 .word	seq_031_4 + 0x87
	.byte		EOT   , Cn3 
	.byte	W72
	.byte	W96
	.byte	PATT
	 .word	seq_031_4 + 0xAD
	.byte	PATT
	 .word	seq_031_4 + 0xBE
	.byte	PATT
	 .word	seq_031_4 + 0x109
	.byte		EOT   , Bn2 
	.byte	W24
	.byte	W96
	.byte	W96
	.byte	W96
	.byte	PATT
	 .word	seq_031_4 + 0x16
	.byte	PATT
	 .word	seq_031_4 + 0x4D
	.byte	PATT
	 .word	seq_031_4 + 0x87
	.byte		EOT   , Cn3 
	.byte	W72
	.byte	W96
	.byte	W96
	.byte	W96
	.byte	PATT
	 .word	seq_031_4 + 0x16
	.byte	PATT
	 .word	seq_031_4 + 0x4D
	.byte	PATT
	 .word	seq_031_4 + 0x87
	.byte		EOT   , Cn3 
	.byte	W72
	.byte	W96
	.byte	PATT
	 .word	seq_031_4 + 0xAD
	.byte	PATT
	 .word	seq_031_4 + 0xBE
	.byte	PATT
	 .word	seq_031_4 + 0x109
	.byte		EOT   , Bn2 
	.byte	W24
	.byte	W96
	.byte	W96
	.byte	W96
	.byte	PATT
	 .word	seq_031_4 + 0x16
	.byte	PATT
	 .word	seq_031_4 + 0x4D
	.byte	PATT
	 .word	seq_031_4 + 0x87
	.byte		EOT   , Cn3 
	.byte	W72
	.byte	W96
	.byte	W96
	.byte	W96
	.byte	PATT
	 .word	seq_031_4 + 0x16
	.byte	PATT
	 .word	seq_031_4 + 0x4D
	.byte	PATT
	 .word	seq_031_4 + 0x87
	.byte		EOT   , Cn3 
	.byte	W72
	.byte	W96
	.byte	PATT
	 .word	seq_031_4 + 0xAD
	.byte	PATT
	 .word	seq_031_4 + 0xBE
	.byte	PATT
	 .word	seq_031_4 + 0x109
	.byte		EOT   , Bn2 
	.byte	W24
	.byte	W96
	.byte	W96
	.byte	W96
	.byte	PATT
	 .word	seq_031_4 + 0x16
	.byte	PATT
	 .word	seq_031_4 + 0x4D
	.byte	PATT
	 .word	seq_031_4 + 0x87
	.byte		EOT   , Cn3 
	.byte	W72
	.byte	W96
	.byte	W96
	.byte	W96
	.byte	PATT
	 .word	seq_031_4 + 0x16
	.byte	PATT
	 .word	seq_031_4 + 0x4D
	.byte	PATT
	 .word	seq_031_4 + 0x87
	.byte		EOT   , Cn3 
	.byte	W72
	.byte	W96
	.byte	PATT
	 .word	seq_031_4 + 0xAD
	.byte	PATT
	 .word	seq_031_4 + 0xBE
	.byte	PATT
	 .word	seq_031_4 + 0x109
	.byte		EOT   , Bn2 
	.byte	W24
	.byte	W96
	.byte	W96
	.byte	W96
	.byte	PATT
	 .word	seq_031_4 + 0x16
	.byte	PATT
	 .word	seq_031_4 + 0x4D
	.byte	PATT
	 .word	seq_031_4 + 0x87
	.byte		EOT   , Cn3 
	.byte	W72
	.byte	W96
	.byte	W96
	.byte	W96
	.byte	PATT
	 .word	seq_031_4 + 0x16
	.byte	PATT
	 .word	seq_031_4 + 0x4D
	.byte	PATT
	 .word	seq_031_4 + 0x87
	.byte		EOT   , Cn3 
	.byte	W72
	.byte	W96
	.byte	PATT
	 .word	seq_031_4 + 0xAD
	.byte	PATT
	 .word	seq_031_4 + 0xBE
	.byte	PATT
	 .word	seq_031_4 + 0x109
	.byte		EOT   , Bn2 
	.byte	W24
	.byte	W96
	.byte	W96
	.byte	W96
	.byte	PATT
	 .word	seq_031_4 + 0x16
	.byte	PATT
	 .word	seq_031_4 + 0x4D
	.byte	PATT
	 .word	seq_031_4 + 0x87
	.byte		EOT   , Cn3 
	.byte	W72
	.byte	W96
	.byte	W96
	.byte	W96
	.byte	PATT
	 .word	seq_031_4 + 0x16
	.byte	PATT
	 .word	seq_031_4 + 0x4D
	.byte	PATT
	 .word	seq_031_4 + 0x87
	.byte		EOT   , Cn3 
	.byte	W72
	.byte	W96
	.byte	PATT
	 .word	seq_031_4 + 0xAD
	.byte	PATT
	 .word	seq_031_4 + 0xBE
	.byte	PATT
	 .word	seq_031_4 + 0x109
	.byte		EOT   , Bn2 
	.byte	W24
	.byte	W96
	.byte	W96
	.byte	W96
	.byte	PATT
	 .word	seq_031_4 + 0x16
	.byte	PATT
	 .word	seq_031_4 + 0x4D
	.byte	PATT
	 .word	seq_031_4 + 0x87
	.byte		EOT   , Cn3 
	.byte	W72
	.byte	W96
	.byte	W96
	.byte	W96
	.byte	PATT
	 .word	seq_031_4 + 0x16
	.byte	PATT
	 .word	seq_031_4 + 0x4D
	.byte	PATT
	 .word	seq_031_4 + 0x87
	.byte		EOT   , Cn3 
	.byte	W72
	.byte	W96
	.byte	PATT
	 .word	seq_031_4 + 0xAD
	.byte	PATT
	 .word	seq_031_4 + 0xBE
	.byte	PATT
	 .word	seq_031_4 + 0x109
	.byte		EOT   , Bn2 
	.byte	W24
	.byte	W96
	.byte	W96
	.byte	W96
	.byte	PATT
	 .word	seq_031_4 + 0x16
	.byte	PATT
	 .word	seq_031_4 + 0x4D
	.byte	PATT
	 .word	seq_031_4 + 0x87
	.byte		EOT   , Cn3 
	.byte	W72
	.byte	W96
	.byte	W96
	.byte	W96
	.byte	PATT
	 .word	seq_031_4 + 0x16
	.byte	PATT
	 .word	seq_031_4 + 0x4D
	.byte	PATT
	 .word	seq_031_4 + 0x87
	.byte		EOT   , Cn3 
	.byte	W72
	.byte	W96
	.byte	PATT
	 .word	seq_031_4 + 0xAD
	.byte	PATT
	 .word	seq_031_4 + 0xBE
	.byte	PATT
	 .word	seq_031_4 + 0x109
	.byte		EOT   , Bn2 
	.byte	W24
	.byte	W96
	.byte	W96
	.byte	W96
	.byte	PATT
	 .word	seq_031_4 + 0x16
	.byte	PATT
	 .word	seq_031_4 + 0x4D
	.byte	PATT
	 .word	seq_031_4 + 0x87
	.byte		EOT   , Cn3 
	.byte	W72
	.byte	W96
	.byte	W96
	.byte	W96
	.byte	PATT
	 .word	seq_031_4 + 0x16
	.byte	PATT
	 .word	seq_031_4 + 0x4D
	.byte	PATT
	 .word	seq_031_4 + 0x87
	.byte		EOT   , Cn3 
	.byte	W72
	.byte	W96
	.byte	PATT
	 .word	seq_031_4 + 0xAD
	.byte	PATT
	 .word	seq_031_4 + 0xBE
	.byte	PATT
	 .word	seq_031_4 + 0x109
	.byte		EOT   , Bn2 
	.byte	W24
	.byte	W96
	.byte	W96
	.byte	W96
	.byte	PATT
	 .word	seq_031_4 + 0x16
	.byte	PATT
	 .word	seq_031_4 + 0x4D
	.byte	PATT
	 .word	seq_031_4 + 0x87
	.byte		EOT   , Cn3 
	.byte	W72
	.byte	W96
	.byte	W96
	.byte	W96
	.byte	PATT
	 .word	seq_031_4 + 0x16
	.byte	PATT
	 .word	seq_031_4 + 0x4D
	.byte	PATT
	 .word	seq_031_4 + 0x87
	.byte		EOT   , Cn3 
	.byte	W72
	.byte	W96
	.byte	PATT
	 .word	seq_031_4 + 0xAD
	.byte	PATT
	 .word	seq_031_4 + 0xBE
	.byte	PATT
	 .word	seq_031_4 + 0x109
	.byte		EOT   , Bn2 
	.byte	W24
	.byte	W96
	.byte	W96
	.byte	W96
	.byte	PATT
	 .word	seq_031_4 + 0x16
	.byte	PATT
	 .word	seq_031_4 + 0x4D
	.byte	PATT
	 .word	seq_031_4 + 0x87
	.byte		EOT   , Cn3 
	.byte	W72
	.byte	W96
	.byte	W96
	.byte	W96
	.byte	PATT
	 .word	seq_031_4 + 0x16
	.byte	PATT
	 .word	seq_031_4 + 0x4D
	.byte	PATT
	 .word	seq_031_4 + 0x87
	.byte		EOT   , Cn3 
	.byte	W72
	.byte	W96
	.byte	PATT
	 .word	seq_031_4 + 0xAD
	.byte	PATT
	 .word	seq_031_4 + 0xBE
	.byte	PATT
	 .word	seq_031_4 + 0x109
	.byte		EOT   , Bn2 
	.byte	W24
	.byte	W96
	.byte	W96
	.byte	W96
	.byte	PATT
	 .word	seq_031_4 + 0x16
	.byte	PATT
	 .word	seq_031_4 + 0x4D
	.byte	PATT
	 .word	seq_031_4 + 0x87
	.byte		EOT   , Cn3 
	.byte	W72
	.byte	W96
	.byte	W96
	.byte	W96
	.byte	PATT
	 .word	seq_031_4 + 0x16
	.byte	PATT
	 .word	seq_031_4 + 0x4D
	.byte	PATT
	 .word	seq_031_4 + 0x87
	.byte		EOT   , Cn3 
	.byte	W72
	.byte	W96
	.byte	PATT
	 .word	seq_031_4 + 0xAD
	.byte	PATT
	 .word	seq_031_4 + 0xBE
	.byte	PATT
	 .word	seq_031_4 + 0x109
	.byte		EOT   , Bn2 
	.byte	W24
	.byte	W96
	.byte	W96
	.byte	W96
	.byte	PATT
	 .word	seq_031_4 + 0x16
	.byte	PATT
	 .word	seq_031_4 + 0x4D
	.byte	PATT
	 .word	seq_031_4 + 0x87
	.byte		EOT   , Cn3 
	.byte	W72
	.byte	W96
	.byte	W96
	.byte	W96
	.byte	PATT
	 .word	seq_031_4 + 0x16
	.byte	PATT
	 .word	seq_031_4 + 0x4D
	.byte	PATT
	 .word	seq_031_4 + 0x87
	.byte		EOT   , Cn3 
	.byte	W72
	.byte	W96
	.byte	PATT
	 .word	seq_031_4 + 0xAD
	.byte	PATT
	 .word	seq_031_4 + 0xBE
	.byte	PATT
	 .word	seq_031_4 + 0x109
	.byte		EOT   , Bn2 
	.byte	W24
	.byte	W96
	.byte	W96
	.byte	W96
	.byte	PATT
	 .word	seq_031_4 + 0x16
	.byte	PATT
	 .word	seq_031_4 + 0x4D
	.byte	PATT
	 .word	seq_031_4 + 0x87
	.byte		EOT   , Cn3 
	.byte	W72
	.byte	W96
	.byte	W96
	.byte	W96
	.byte	PATT
	 .word	seq_031_4 + 0x16
	.byte	PATT
	 .word	seq_031_4 + 0x4D
	.byte	PATT
	 .word	seq_031_4 + 0x87
	.byte		EOT   , Cn3 
	.byte	W72
	.byte	W96
	.byte	PATT
	 .word	seq_031_4 + 0xAD
	.byte	PATT
	 .word	seq_031_4 + 0xBE
	.byte	PATT
	 .word	seq_031_4 + 0x109
	.byte		EOT   , Bn2 
	.byte	W24
	.byte	W96
	.byte	W96
	.byte	W96
	.byte	PATT
	 .word	seq_031_4 + 0x16
	.byte	PATT
	 .word	seq_031_4 + 0x4D
	.byte	PATT
	 .word	seq_031_4 + 0x87
	.byte		EOT   , Cn3 
	.byte	W72
	.byte	W96
	.byte	W96
	.byte	W96
	.byte	PATT
	 .word	seq_031_4 + 0x16
	.byte	PATT
	 .word	seq_031_4 + 0x4D
	.byte	PATT
	 .word	seq_031_4 + 0x87
	.byte		EOT   , Cn3 
	.byte	W72
	.byte	W96
	.byte	PATT
	 .word	seq_031_4 + 0xAD
	.byte	PATT
	 .word	seq_031_4 + 0xBE
	.byte	PATT
	 .word	seq_031_4 + 0x109
	.byte		EOT   , Bn2 
	.byte	W24
	.byte	W96
	.byte	W96
	.byte	W96
	.byte	PATT
	 .word	seq_031_4 + 0x16
	.byte	PATT
	 .word	seq_031_4 + 0x4D
	.byte	PATT
	 .word	seq_031_4 + 0x87
	.byte		EOT   , Cn3 
	.byte	W72
	.byte	W96
	.byte	W96
	.byte	W96
	.byte	PATT
	 .word	seq_031_4 + 0x16
	.byte	PATT
	 .word	seq_031_4 + 0x4D
	.byte	PATT
	 .word	seq_031_4 + 0x87
	.byte		EOT   , Cn3 
	.byte	W72
	.byte	W96
	.byte	PATT
	 .word	seq_031_4 + 0xAD
	.byte	PATT
	 .word	seq_031_4 + 0xBE
	.byte	PATT
	 .word	seq_031_4 + 0x109
	.byte		EOT   , Bn2 
	.byte	W24
	.byte	W96
	.byte	W96
	.byte	W96
	.byte	PATT
	 .word	seq_031_4 + 0x16
	.byte	PATT
	 .word	seq_031_4 + 0x4D
	.byte	PATT
	 .word	seq_031_4 + 0x87
	.byte		EOT   , Cn3 
	.byte	W72
	.byte	W96
	.byte	W96
	.byte	W96
	.byte	PATT
	 .word	seq_031_4 + 0x16
	.byte	PATT
	 .word	seq_031_4 + 0x4D
	.byte	PATT
	 .word	seq_031_4 + 0x87
	.byte		EOT   , Cn3 
	.byte	W72
	.byte	W96
	.byte	PATT
	 .word	seq_031_4 + 0xAD
	.byte	PATT
	 .word	seq_031_4 + 0xBE
	.byte	PATT
	 .word	seq_031_4 + 0x109
	.byte		EOT   , Bn2 
	.byte	W24
	.byte	W96
	.byte	W96
	.byte	W96
	.byte	PATT
	 .word	seq_031_4 + 0x16
	.byte	PATT
	 .word	seq_031_4 + 0x4D
	.byte	PATT
	 .word	seq_031_4 + 0x87
	.byte		EOT   , Cn3 
	.byte	W72
	.byte	W96
	.byte	W96
	.byte	W96
	.byte	PATT
	 .word	seq_031_4 + 0x16
	.byte	PATT
	 .word	seq_031_4 + 0x4D
	.byte	PATT
	 .word	seq_031_4 + 0x87
	.byte		EOT   , Cn3 
	.byte	W72
	.byte	W96
	.byte	PATT
	 .word	seq_031_4 + 0xAD
	.byte	PATT
	 .word	seq_031_4 + 0xBE
	.byte	PATT
	 .word	seq_031_4 + 0x109
	.byte		EOT   , Bn2 
	.byte	W24
	.byte	W96
	.byte	W96
	.byte	W96
	.byte	PATT
	 .word	seq_031_4 + 0x16
	.byte	PATT
	 .word	seq_031_4 + 0x4D
	.byte	PATT
	 .word	seq_031_4 + 0x87
	.byte		EOT   , Cn3 
	.byte	W72
	.byte	W96
	.byte	W96
	.byte	W96
	.byte	PATT
	 .word	seq_031_4 + 0x16
	.byte	PATT
	 .word	seq_031_4 + 0x4D
	.byte	PATT
	 .word	seq_031_4 + 0x87
	.byte		EOT   , Cn3 
	.byte	W72
	.byte	W96
	.byte	PATT
	 .word	seq_031_4 + 0xAD
	.byte	PATT
	 .word	seq_031_4 + 0xBE
	.byte	PATT
	 .word	seq_031_4 + 0x109
	.byte		EOT   , Bn2 
	.byte	W24
	.byte	W96
	.byte	W96
	.byte	W96
	.byte	PATT
	 .word	seq_031_4 + 0x16
	.byte	PATT
	 .word	seq_031_4 + 0x4D
	.byte	PATT
	 .word	seq_031_4 + 0x87
	.byte		EOT   , Cn3 
	.byte	W72
	.byte	W96
	.byte	W96
	.byte	W96
	.byte	PATT
	 .word	seq_031_4 + 0x16
	.byte	PATT
	 .word	seq_031_4 + 0x4D
	.byte	PATT
	 .word	seq_031_4 + 0x87
	.byte		EOT   , Cn3 
	.byte	W72
	.byte	W96
	.byte	PATT
	 .word	seq_031_4 + 0xAD
	.byte	PATT
	 .word	seq_031_4 + 0xBE
	.byte	PATT
	 .word	seq_031_4 + 0x109
	.byte		EOT   , Bn2 
	.byte	W24
	.byte	W96
	.byte	W96
	.byte	W96
	.byte	PATT
	 .word	seq_031_4 + 0x16
	.byte	PATT
	 .word	seq_031_4 + 0x4D
	.byte	PATT
	 .word	seq_031_4 + 0x87
	.byte		EOT   , Cn3 
	.byte	W72
	.byte	W96
	.byte	W96
	.byte	W96
	.byte	PATT
	 .word	seq_031_4 + 0x16
	.byte	PATT
	 .word	seq_031_4 + 0x4D
	.byte	PATT
	 .word	seq_031_4 + 0x87
	.byte		EOT   , Cn3 
	.byte	W72
	.byte	W96
	.byte	PATT
	 .word	seq_031_4 + 0xAD
	.byte	PATT
	 .word	seq_031_4 + 0xBE
	.byte	PATT
	 .word	seq_031_4 + 0x109
	.byte		EOT   , Bn2 
	.byte	W24
	.byte	GOTO
	 .word	seq_031_4 + 0x14
	.byte	FINE

@*********************** Track 06 ***********************@

seq_031_5:
	.byte	KEYSH , seq_031_key+0
	.byte	W12
	.byte		VOICE , 52
	.byte		MOD   , 20
	.byte		VOL   , 14*seq_031_mvl/mxv
	.byte	W01
	.byte		PAN   , c_v+20
	.byte		BENDR , 2
	.byte		LFOS  , 60
	.byte	W01
	.byte		MODT  , mod_pan
	.byte	W10
	.byte	W96
	.byte	W96
	.byte	W23
	.byte		VOL   , 0*seq_031_mvl/mxv
	.byte	W01
	.byte		TIE   , Gn2 , v127
	.byte	W15
	.byte		VOL   , 2*seq_031_mvl/mxv
	.byte	W03
	.byte		        6*seq_031_mvl/mxv
	.byte	W03
	.byte		        9*seq_031_mvl/mxv
	.byte	W03
	.byte		        13*seq_031_mvl/mxv
	.byte	W01
	.byte		MOD   , 40
	.byte	W02
	.byte		VOL   , 17*seq_031_mvl/mxv
	.byte	W03
	.byte		        21*seq_031_mvl/mxv
	.byte	W03
	.byte		        24*seq_031_mvl/mxv
	.byte	W03
	.byte		        29*seq_031_mvl/mxv
	.byte	W03
	.byte		        32*seq_031_mvl/mxv
	.byte	W03
	.byte		        36*seq_031_mvl/mxv
	.byte	W03
	.byte		        40*seq_031_mvl/mxv
	.byte	W03
	.byte		        43*seq_031_mvl/mxv
	.byte	W03
	.byte		        48*seq_031_mvl/mxv
	.byte	W03
	.byte		        51*seq_031_mvl/mxv
	.byte	W03
	.byte		        55*seq_031_mvl/mxv
	.byte	W03
	.byte		MOD   , 60
	.byte		VOL   , 59*seq_031_mvl/mxv
	.byte	W03
	.byte		        63*seq_031_mvl/mxv
	.byte	W03
	.byte		        66*seq_031_mvl/mxv
	.byte	W03
	.byte		        70*seq_031_mvl/mxv
	.byte	W03
	.byte	PEND
	.byte		VOL   , 74*seq_031_mvl/mxv
	.byte	W03
	.byte		        77*seq_031_mvl/mxv
	.byte	W03
	.byte		        82*seq_031_mvl/mxv
	.byte	W01
	.byte		MOD   , 40
	.byte	W02
	.byte		VOL   , 85*seq_031_mvl/mxv
	.byte	W03
	.byte		        90*seq_031_mvl/mxv
	.byte	W05
	.byte		        87*seq_031_mvl/mxv
	.byte	W04
	.byte		MOD   , 20
	.byte	W01
	.byte		VOL   , 85*seq_031_mvl/mxv
	.byte	W04
	.byte		        83*seq_031_mvl/mxv
	.byte	W04
	.byte		        82*seq_031_mvl/mxv
	.byte	W04
	.byte		        80*seq_031_mvl/mxv
	.byte	W04
	.byte		        77*seq_031_mvl/mxv
	.byte	W05
	.byte		        75*seq_031_mvl/mxv
	.byte	W04
	.byte		        73*seq_031_mvl/mxv
	.byte	W04
	.byte		        71*seq_031_mvl/mxv
	.byte	W04
	.byte		        69*seq_031_mvl/mxv
	.byte	W04
	.byte		        68*seq_031_mvl/mxv
	.byte	W05
	.byte		        65*seq_031_mvl/mxv
	.byte	W04
	.byte		        62*seq_031_mvl/mxv
	.byte	W04
	.byte		        58*seq_031_mvl/mxv
	.byte	W04
	.byte		        53*seq_031_mvl/mxv
	.byte	W04
	.byte		        48*seq_031_mvl/mxv
	.byte	W04
	.byte		        43*seq_031_mvl/mxv
	.byte	W05
	.byte		        37*seq_031_mvl/mxv
	.byte	W04
	.byte		        32*seq_031_mvl/mxv
	.byte	W03
	.byte	PEND
	.byte	W01
	.byte		VOL   , 27*seq_031_mvl/mxv
	.byte	W04
	.byte		        22*seq_031_mvl/mxv
	.byte	W04
	.byte		        18*seq_031_mvl/mxv
	.byte	W05
	.byte		        12*seq_031_mvl/mxv
	.byte	W04
	.byte		        7*seq_031_mvl/mxv
	.byte	W06
	.byte	PEND
	.byte		EOT   , Gn2 
	.byte	W72
	.byte	W96
	.byte	W96
	.byte	W96
	.byte	PATT
	 .word	seq_031_5 + 0x16
	.byte	PATT
	 .word	seq_031_5 + 0x4D
	.byte	PATT
	 .word	seq_031_5 + 0x87
	.byte		EOT   , Gn2 
	.byte	W72
	.byte	W96
	.byte	W68
	.byte	W03
	.byte		VOL   , 0*seq_031_mvl/mxv
	.byte	W01
	.byte		TIE   , Fs2 , v127
	.byte	W15
	.byte		VOL   , 2*seq_031_mvl/mxv
	.byte	W03
	.byte		        6*seq_031_mvl/mxv
	.byte	W03
	.byte		        9*seq_031_mvl/mxv
	.byte	W03
	.byte	PEND
	.byte		VOL   , 13*seq_031_mvl/mxv
	.byte	W01
	.byte		MOD   , 40
	.byte	W02
	.byte		VOL   , 17*seq_031_mvl/mxv
	.byte	W03
	.byte		        21*seq_031_mvl/mxv
	.byte	W03
	.byte		        24*seq_031_mvl/mxv
	.byte	W03
	.byte		        29*seq_031_mvl/mxv
	.byte	W03
	.byte		        32*seq_031_mvl/mxv
	.byte	W03
	.byte		        36*seq_031_mvl/mxv
	.byte	W03
	.byte		        40*seq_031_mvl/mxv
	.byte	W03
	.byte		        43*seq_031_mvl/mxv
	.byte	W03
	.byte		        48*seq_031_mvl/mxv
	.byte	W03
	.byte		        51*seq_031_mvl/mxv
	.byte	W03
	.byte		        55*seq_031_mvl/mxv
	.byte	W03
	.byte		MOD   , 60
	.byte		VOL   , 59*seq_031_mvl/mxv
	.byte	W03
	.byte		        63*seq_031_mvl/mxv
	.byte	W03
	.byte		        66*seq_031_mvl/mxv
	.byte	W03
	.byte		        70*seq_031_mvl/mxv
	.byte	W03
	.byte		        74*seq_031_mvl/mxv
	.byte	W03
	.byte		        77*seq_031_mvl/mxv
	.byte	W03
	.byte		        82*seq_031_mvl/mxv
	.byte	W01
	.byte		MOD   , 40
	.byte	W02
	.byte		VOL   , 85*seq_031_mvl/mxv
	.byte	W03
	.byte		        90*seq_031_mvl/mxv
	.byte	W05
	.byte		        87*seq_031_mvl/mxv
	.byte	W04
	.byte		MOD   , 20
	.byte	W01
	.byte		VOL   , 85*seq_031_mvl/mxv
	.byte	W04
	.byte		        83*seq_031_mvl/mxv
	.byte	W04
	.byte		        82*seq_031_mvl/mxv
	.byte	W04
	.byte		        80*seq_031_mvl/mxv
	.byte	W04
	.byte		        77*seq_031_mvl/mxv
	.byte	W05
	.byte		        75*seq_031_mvl/mxv
	.byte	W04
	.byte		        73*seq_031_mvl/mxv
	.byte	W01
	.byte	PEND
	.byte	W03
	.byte		VOL   , 71*seq_031_mvl/mxv
	.byte	W04
	.byte		        69*seq_031_mvl/mxv
	.byte	W04
	.byte		        68*seq_031_mvl/mxv
	.byte	W05
	.byte		        65*seq_031_mvl/mxv
	.byte	W04
	.byte		        62*seq_031_mvl/mxv
	.byte	W04
	.byte		        58*seq_031_mvl/mxv
	.byte	W04
	.byte		        53*seq_031_mvl/mxv
	.byte	W04
	.byte		        48*seq_031_mvl/mxv
	.byte	W04
	.byte		        43*seq_031_mvl/mxv
	.byte	W05
	.byte		        37*seq_031_mvl/mxv
	.byte	W04
	.byte		        32*seq_031_mvl/mxv
	.byte	W04
	.byte		        27*seq_031_mvl/mxv
	.byte	W04
	.byte		        22*seq_031_mvl/mxv
	.byte	W04
	.byte		        18*seq_031_mvl/mxv
	.byte	W05
	.byte		        12*seq_031_mvl/mxv
	.byte	W04
	.byte		        7*seq_031_mvl/mxv
	.byte	W06
	.byte	PEND
	.byte		EOT   , Fs2 
	.byte	W24
	.byte	W96
	.byte	W96
	.byte	W96
	.byte	PATT
	 .word	seq_031_5 + 0x16
	.byte	PATT
	 .word	seq_031_5 + 0x4D
	.byte	PATT
	 .word	seq_031_5 + 0x87
	.byte		EOT   , Gn2 
	.byte	W72
	.byte	W96
	.byte	W96
	.byte	W96
	.byte	PATT
	 .word	seq_031_5 + 0x16
	.byte	PATT
	 .word	seq_031_5 + 0x4D
	.byte	PATT
	 .word	seq_031_5 + 0x87
	.byte		EOT   , Gn2 
	.byte	W72
	.byte	W96
	.byte	PATT
	 .word	seq_031_5 + 0xAD
	.byte	PATT
	 .word	seq_031_5 + 0xBE
	.byte	PATT
	 .word	seq_031_5 + 0x109
	.byte		EOT   , Fs2 
	.byte	W24
	.byte	W96
	.byte	W96
	.byte	W96
	.byte	PATT
	 .word	seq_031_5 + 0x16
	.byte	PATT
	 .word	seq_031_5 + 0x4D
	.byte	PATT
	 .word	seq_031_5 + 0x87
	.byte		EOT   , Gn2 
	.byte	W72
	.byte	W96
	.byte	W96
	.byte	W96
	.byte	PATT
	 .word	seq_031_5 + 0x16
	.byte	PATT
	 .word	seq_031_5 + 0x4D
	.byte	PATT
	 .word	seq_031_5 + 0x87
	.byte		EOT   , Gn2 
	.byte	W72
	.byte	W96
	.byte	PATT
	 .word	seq_031_5 + 0xAD
	.byte	PATT
	 .word	seq_031_5 + 0xBE
	.byte	PATT
	 .word	seq_031_5 + 0x109
	.byte		EOT   , Fs2 
	.byte	W24
	.byte	W96
	.byte	W96
	.byte	W96
	.byte	PATT
	 .word	seq_031_5 + 0x16
	.byte	PATT
	 .word	seq_031_5 + 0x4D
	.byte	PATT
	 .word	seq_031_5 + 0x87
	.byte		EOT   , Gn2 
	.byte	W72
	.byte	W96
	.byte	W96
	.byte	W96
	.byte	PATT
	 .word	seq_031_5 + 0x16
	.byte	PATT
	 .word	seq_031_5 + 0x4D
	.byte	PATT
	 .word	seq_031_5 + 0x87
	.byte		EOT   , Gn2 
	.byte	W72
	.byte	W96
	.byte	PATT
	 .word	seq_031_5 + 0xAD
	.byte	PATT
	 .word	seq_031_5 + 0xBE
	.byte	PATT
	 .word	seq_031_5 + 0x109
	.byte		EOT   , Fs2 
	.byte	W24
	.byte	W96
	.byte	W96
	.byte	W96
	.byte	PATT
	 .word	seq_031_5 + 0x16
	.byte	PATT
	 .word	seq_031_5 + 0x4D
	.byte	PATT
	 .word	seq_031_5 + 0x87
	.byte		EOT   , Gn2 
	.byte	W72
	.byte	W96
	.byte	W96
	.byte	W96
	.byte	PATT
	 .word	seq_031_5 + 0x16
	.byte	PATT
	 .word	seq_031_5 + 0x4D
	.byte	PATT
	 .word	seq_031_5 + 0x87
	.byte		EOT   , Gn2 
	.byte	W72
	.byte	W96
	.byte	PATT
	 .word	seq_031_5 + 0xAD
	.byte	PATT
	 .word	seq_031_5 + 0xBE
	.byte	PATT
	 .word	seq_031_5 + 0x109
	.byte		EOT   , Fs2 
	.byte	W24
	.byte	W96
	.byte	W96
	.byte	W96
	.byte	PATT
	 .word	seq_031_5 + 0x16
	.byte	PATT
	 .word	seq_031_5 + 0x4D
	.byte	PATT
	 .word	seq_031_5 + 0x87
	.byte		EOT   , Gn2 
	.byte	W72
	.byte	W96
	.byte	W96
	.byte	W96
	.byte	PATT
	 .word	seq_031_5 + 0x16
	.byte	PATT
	 .word	seq_031_5 + 0x4D
	.byte	PATT
	 .word	seq_031_5 + 0x87
	.byte		EOT   , Gn2 
	.byte	W72
	.byte	W96
	.byte	PATT
	 .word	seq_031_5 + 0xAD
	.byte	PATT
	 .word	seq_031_5 + 0xBE
	.byte	PATT
	 .word	seq_031_5 + 0x109
	.byte		EOT   , Fs2 
	.byte	W24
	.byte	W96
	.byte	W96
	.byte	W96
	.byte	PATT
	 .word	seq_031_5 + 0x16
	.byte	PATT
	 .word	seq_031_5 + 0x4D
	.byte	PATT
	 .word	seq_031_5 + 0x87
	.byte		EOT   , Gn2 
	.byte	W72
	.byte	W96
	.byte	W96
	.byte	W96
	.byte	PATT
	 .word	seq_031_5 + 0x16
	.byte	PATT
	 .word	seq_031_5 + 0x4D
	.byte	PATT
	 .word	seq_031_5 + 0x87
	.byte		EOT   , Gn2 
	.byte	W72
	.byte	W96
	.byte	PATT
	 .word	seq_031_5 + 0xAD
	.byte	PATT
	 .word	seq_031_5 + 0xBE
	.byte	PATT
	 .word	seq_031_5 + 0x109
	.byte		EOT   , Fs2 
	.byte	W24
	.byte	W96
	.byte	W96
	.byte	W96
	.byte	PATT
	 .word	seq_031_5 + 0x16
	.byte	PATT
	 .word	seq_031_5 + 0x4D
	.byte	PATT
	 .word	seq_031_5 + 0x87
	.byte		EOT   , Gn2 
	.byte	W72
	.byte	W96
	.byte	W96
	.byte	W96
	.byte	PATT
	 .word	seq_031_5 + 0x16
	.byte	PATT
	 .word	seq_031_5 + 0x4D
	.byte	PATT
	 .word	seq_031_5 + 0x87
	.byte		EOT   , Gn2 
	.byte	W72
	.byte	W96
	.byte	PATT
	 .word	seq_031_5 + 0xAD
	.byte	PATT
	 .word	seq_031_5 + 0xBE
	.byte	PATT
	 .word	seq_031_5 + 0x109
	.byte		EOT   , Fs2 
	.byte	W24
	.byte	W96
	.byte	W96
	.byte	W96
	.byte	PATT
	 .word	seq_031_5 + 0x16
	.byte	PATT
	 .word	seq_031_5 + 0x4D
	.byte	PATT
	 .word	seq_031_5 + 0x87
	.byte		EOT   , Gn2 
	.byte	W72
	.byte	W96
	.byte	W96
	.byte	W96
	.byte	PATT
	 .word	seq_031_5 + 0x16
	.byte	PATT
	 .word	seq_031_5 + 0x4D
	.byte	PATT
	 .word	seq_031_5 + 0x87
	.byte		EOT   , Gn2 
	.byte	W72
	.byte	W96
	.byte	PATT
	 .word	seq_031_5 + 0xAD
	.byte	PATT
	 .word	seq_031_5 + 0xBE
	.byte	PATT
	 .word	seq_031_5 + 0x109
	.byte		EOT   , Fs2 
	.byte	W24
	.byte	W96
	.byte	W96
	.byte	W96
	.byte	PATT
	 .word	seq_031_5 + 0x16
	.byte	PATT
	 .word	seq_031_5 + 0x4D
	.byte	PATT
	 .word	seq_031_5 + 0x87
	.byte		EOT   , Gn2 
	.byte	W72
	.byte	W96
	.byte	W96
	.byte	W96
	.byte	PATT
	 .word	seq_031_5 + 0x16
	.byte	PATT
	 .word	seq_031_5 + 0x4D
	.byte	PATT
	 .word	seq_031_5 + 0x87
	.byte		EOT   , Gn2 
	.byte	W72
	.byte	W96
	.byte	PATT
	 .word	seq_031_5 + 0xAD
	.byte	PATT
	 .word	seq_031_5 + 0xBE
	.byte	PATT
	 .word	seq_031_5 + 0x109
	.byte		EOT   , Fs2 
	.byte	W24
	.byte	W96
	.byte	W96
	.byte	W96
	.byte	PATT
	 .word	seq_031_5 + 0x16
	.byte	PATT
	 .word	seq_031_5 + 0x4D
	.byte	PATT
	 .word	seq_031_5 + 0x87
	.byte		EOT   , Gn2 
	.byte	W72
	.byte	W96
	.byte	W96
	.byte	W96
	.byte	PATT
	 .word	seq_031_5 + 0x16
	.byte	PATT
	 .word	seq_031_5 + 0x4D
	.byte	PATT
	 .word	seq_031_5 + 0x87
	.byte		EOT   , Gn2 
	.byte	W72
	.byte	W96
	.byte	PATT
	 .word	seq_031_5 + 0xAD
	.byte	PATT
	 .word	seq_031_5 + 0xBE
	.byte	PATT
	 .word	seq_031_5 + 0x109
	.byte		EOT   , Fs2 
	.byte	W24
	.byte	W96
	.byte	W96
	.byte	W96
	.byte	PATT
	 .word	seq_031_5 + 0x16
	.byte	PATT
	 .word	seq_031_5 + 0x4D
	.byte	PATT
	 .word	seq_031_5 + 0x87
	.byte		EOT   , Gn2 
	.byte	W72
	.byte	W96
	.byte	W96
	.byte	W96
	.byte	PATT
	 .word	seq_031_5 + 0x16
	.byte	PATT
	 .word	seq_031_5 + 0x4D
	.byte	PATT
	 .word	seq_031_5 + 0x87
	.byte		EOT   , Gn2 
	.byte	W72
	.byte	W96
	.byte	PATT
	 .word	seq_031_5 + 0xAD
	.byte	PATT
	 .word	seq_031_5 + 0xBE
	.byte	PATT
	 .word	seq_031_5 + 0x109
	.byte		EOT   , Fs2 
	.byte	W24
	.byte	W96
	.byte	W96
	.byte	W96
	.byte	PATT
	 .word	seq_031_5 + 0x16
	.byte	PATT
	 .word	seq_031_5 + 0x4D
	.byte	PATT
	 .word	seq_031_5 + 0x87
	.byte		EOT   , Gn2 
	.byte	W72
	.byte	W96
	.byte	W96
	.byte	W96
	.byte	PATT
	 .word	seq_031_5 + 0x16
	.byte	PATT
	 .word	seq_031_5 + 0x4D
	.byte	PATT
	 .word	seq_031_5 + 0x87
	.byte		EOT   , Gn2 
	.byte	W72
	.byte	W96
	.byte	PATT
	 .word	seq_031_5 + 0xAD
	.byte	PATT
	 .word	seq_031_5 + 0xBE
	.byte	PATT
	 .word	seq_031_5 + 0x109
	.byte		EOT   , Fs2 
	.byte	W24
	.byte	W96
	.byte	W96
	.byte	W96
	.byte	PATT
	 .word	seq_031_5 + 0x16
	.byte	PATT
	 .word	seq_031_5 + 0x4D
	.byte	PATT
	 .word	seq_031_5 + 0x87
	.byte		EOT   , Gn2 
	.byte	W72
	.byte	W96
	.byte	W96
	.byte	W96
	.byte	PATT
	 .word	seq_031_5 + 0x16
	.byte	PATT
	 .word	seq_031_5 + 0x4D
	.byte	PATT
	 .word	seq_031_5 + 0x87
	.byte		EOT   , Gn2 
	.byte	W72
	.byte	W96
	.byte	PATT
	 .word	seq_031_5 + 0xAD
	.byte	PATT
	 .word	seq_031_5 + 0xBE
	.byte	PATT
	 .word	seq_031_5 + 0x109
	.byte		EOT   , Fs2 
	.byte	W24
	.byte	W96
	.byte	W96
	.byte	W96
	.byte	PATT
	 .word	seq_031_5 + 0x16
	.byte	PATT
	 .word	seq_031_5 + 0x4D
	.byte	PATT
	 .word	seq_031_5 + 0x87
	.byte		EOT   , Gn2 
	.byte	W72
	.byte	W96
	.byte	W96
	.byte	W96
	.byte	PATT
	 .word	seq_031_5 + 0x16
	.byte	PATT
	 .word	seq_031_5 + 0x4D
	.byte	PATT
	 .word	seq_031_5 + 0x87
	.byte		EOT   , Gn2 
	.byte	W72
	.byte	W96
	.byte	PATT
	 .word	seq_031_5 + 0xAD
	.byte	PATT
	 .word	seq_031_5 + 0xBE
	.byte	PATT
	 .word	seq_031_5 + 0x109
	.byte		EOT   , Fs2 
	.byte	W24
	.byte	W96
	.byte	W96
	.byte	W96
	.byte	PATT
	 .word	seq_031_5 + 0x16
	.byte	PATT
	 .word	seq_031_5 + 0x4D
	.byte	PATT
	 .word	seq_031_5 + 0x87
	.byte		EOT   , Gn2 
	.byte	W72
	.byte	W96
	.byte	W96
	.byte	W96
	.byte	PATT
	 .word	seq_031_5 + 0x16
	.byte	PATT
	 .word	seq_031_5 + 0x4D
	.byte	PATT
	 .word	seq_031_5 + 0x87
	.byte		EOT   , Gn2 
	.byte	W72
	.byte	W96
	.byte	PATT
	 .word	seq_031_5 + 0xAD
	.byte	PATT
	 .word	seq_031_5 + 0xBE
	.byte	PATT
	 .word	seq_031_5 + 0x109
	.byte		EOT   , Fs2 
	.byte	W24
	.byte	W96
	.byte	W96
	.byte	W96
	.byte	PATT
	 .word	seq_031_5 + 0x16
	.byte	PATT
	 .word	seq_031_5 + 0x4D
	.byte	PATT
	 .word	seq_031_5 + 0x87
	.byte		EOT   , Gn2 
	.byte	W72
	.byte	W96
	.byte	W96
	.byte	W96
	.byte	PATT
	 .word	seq_031_5 + 0x16
	.byte	PATT
	 .word	seq_031_5 + 0x4D
	.byte	PATT
	 .word	seq_031_5 + 0x87
	.byte		EOT   , Gn2 
	.byte	W72
	.byte	W96
	.byte	PATT
	 .word	seq_031_5 + 0xAD
	.byte	PATT
	 .word	seq_031_5 + 0xBE
	.byte	PATT
	 .word	seq_031_5 + 0x109
	.byte		EOT   , Fs2 
	.byte	W24
	.byte	W96
	.byte	W96
	.byte	W96
	.byte	PATT
	 .word	seq_031_5 + 0x16
	.byte	PATT
	 .word	seq_031_5 + 0x4D
	.byte	PATT
	 .word	seq_031_5 + 0x87
	.byte		EOT   , Gn2 
	.byte	W72
	.byte	W96
	.byte	W96
	.byte	W96
	.byte	PATT
	 .word	seq_031_5 + 0x16
	.byte	PATT
	 .word	seq_031_5 + 0x4D
	.byte	PATT
	 .word	seq_031_5 + 0x87
	.byte		EOT   , Gn2 
	.byte	W72
	.byte	W96
	.byte	PATT
	 .word	seq_031_5 + 0xAD
	.byte	PATT
	 .word	seq_031_5 + 0xBE
	.byte	PATT
	 .word	seq_031_5 + 0x109
	.byte		EOT   , Fs2 
	.byte	W24
	.byte	W96
	.byte	W96
	.byte	W96
	.byte	PATT
	 .word	seq_031_5 + 0x16
	.byte	PATT
	 .word	seq_031_5 + 0x4D
	.byte	PATT
	 .word	seq_031_5 + 0x87
	.byte		EOT   , Gn2 
	.byte	W72
	.byte	W96
	.byte	W96
	.byte	W96
	.byte	PATT
	 .word	seq_031_5 + 0x16
	.byte	PATT
	 .word	seq_031_5 + 0x4D
	.byte	PATT
	 .word	seq_031_5 + 0x87
	.byte		EOT   , Gn2 
	.byte	W72
	.byte	W96
	.byte	PATT
	 .word	seq_031_5 + 0xAD
	.byte	PATT
	 .word	seq_031_5 + 0xBE
	.byte	PATT
	 .word	seq_031_5 + 0x109
	.byte		EOT   , Fs2 
	.byte	W24
	.byte	W96
	.byte	W96
	.byte	W96
	.byte	PATT
	 .word	seq_031_5 + 0x16
	.byte	PATT
	 .word	seq_031_5 + 0x4D
	.byte	PATT
	 .word	seq_031_5 + 0x87
	.byte		EOT   , Gn2 
	.byte	W72
	.byte	W96
	.byte	W96
	.byte	W96
	.byte	PATT
	 .word	seq_031_5 + 0x16
	.byte	PATT
	 .word	seq_031_5 + 0x4D
	.byte	PATT
	 .word	seq_031_5 + 0x87
	.byte		EOT   , Gn2 
	.byte	W72
	.byte	W96
	.byte	PATT
	 .word	seq_031_5 + 0xAD
	.byte	PATT
	 .word	seq_031_5 + 0xBE
	.byte	PATT
	 .word	seq_031_5 + 0x109
	.byte		EOT   , Fs2 
	.byte	W24
	.byte	W96
	.byte	W96
	.byte	W96
	.byte	PATT
	 .word	seq_031_5 + 0x16
	.byte	PATT
	 .word	seq_031_5 + 0x4D
	.byte	PATT
	 .word	seq_031_5 + 0x87
	.byte		EOT   , Gn2 
	.byte	W72
	.byte	W96
	.byte	W96
	.byte	W96
	.byte	PATT
	 .word	seq_031_5 + 0x16
	.byte	PATT
	 .word	seq_031_5 + 0x4D
	.byte	PATT
	 .word	seq_031_5 + 0x87
	.byte		EOT   , Gn2 
	.byte	W72
	.byte	W96
	.byte	PATT
	 .word	seq_031_5 + 0xAD
	.byte	PATT
	 .word	seq_031_5 + 0xBE
	.byte	PATT
	 .word	seq_031_5 + 0x109
	.byte		EOT   , Fs2 
	.byte	W24
	.byte	W96
	.byte	W96
	.byte	W96
	.byte	PATT
	 .word	seq_031_5 + 0x16
	.byte	PATT
	 .word	seq_031_5 + 0x4D
	.byte	PATT
	 .word	seq_031_5 + 0x87
	.byte		EOT   , Gn2 
	.byte	W72
	.byte	W96
	.byte	W96
	.byte	W96
	.byte	PATT
	 .word	seq_031_5 + 0x16
	.byte	PATT
	 .word	seq_031_5 + 0x4D
	.byte	PATT
	 .word	seq_031_5 + 0x87
	.byte		EOT   , Gn2 
	.byte	W72
	.byte	W96
	.byte	PATT
	 .word	seq_031_5 + 0xAD
	.byte	PATT
	 .word	seq_031_5 + 0xBE
	.byte	PATT
	 .word	seq_031_5 + 0x109
	.byte		EOT   , Fs2 
	.byte	W24
	.byte	W96
	.byte	W96
	.byte	W96
	.byte	PATT
	 .word	seq_031_5 + 0x16
	.byte	PATT
	 .word	seq_031_5 + 0x4D
	.byte	PATT
	 .word	seq_031_5 + 0x87
	.byte		EOT   , Gn2 
	.byte	W72
	.byte	W96
	.byte	W96
	.byte	W96
	.byte	PATT
	 .word	seq_031_5 + 0x16
	.byte	PATT
	 .word	seq_031_5 + 0x4D
	.byte	PATT
	 .word	seq_031_5 + 0x87
	.byte		EOT   , Gn2 
	.byte	W72
	.byte	W96
	.byte	PATT
	 .word	seq_031_5 + 0xAD
	.byte	PATT
	 .word	seq_031_5 + 0xBE
	.byte	PATT
	 .word	seq_031_5 + 0x109
	.byte		EOT   , Fs2 
	.byte	W24
	.byte	GOTO
	 .word	seq_031_5 + 0x14
	.byte	FINE

@*********************** Track 07 ***********************@

seq_031_6:
	.byte	KEYSH , seq_031_key+0
	.byte	W15
	.byte		VOICE , 59
	.byte		MOD   , 20
	.byte		VOL   , 14*seq_031_mvl/mxv
	.byte	W01
	.byte		PAN   , c_v+0
	.byte		BENDR , 2
	.byte		LFOS  , 25
	.byte	W01
	.byte		MODT  , mod_pan
	.byte	W07
	.byte	W96
	.byte	W96
	.byte	W96
	.byte	W96
	.byte	W96
	.byte	W96
	.byte	W23
	.byte		VOL   , 3*seq_031_mvl/mxv
	.byte	W01
	.byte		TIE   , Cn3 , v048
	.byte	W15
	.byte		VOL   , 3*seq_031_mvl/mxv
	.byte	W03
	.byte		        7*seq_031_mvl/mxv
	.byte	W03
	.byte		        10*seq_031_mvl/mxv
	.byte	W03
	.byte		        14*seq_031_mvl/mxv
	.byte	W01
	.byte		MOD   , 40
	.byte	W02
	.byte		VOL   , 18*seq_031_mvl/mxv
	.byte	W03
	.byte		        21*seq_031_mvl/mxv
	.byte	W03
	.byte		        24*seq_031_mvl/mxv
	.byte	W03
	.byte		        26*seq_031_mvl/mxv
	.byte	W03
	.byte		        29*seq_031_mvl/mxv
	.byte	W03
	.byte		        31*seq_031_mvl/mxv
	.byte	W03
	.byte		        34*seq_031_mvl/mxv
	.byte	W03
	.byte		        37*seq_031_mvl/mxv
	.byte	W03
	.byte		        40*seq_031_mvl/mxv
	.byte	W03
	.byte		        43*seq_031_mvl/mxv
	.byte	W03
	.byte		        45*seq_031_mvl/mxv
	.byte	W03
	.byte		MOD   , 60
	.byte		VOL   , 48*seq_031_mvl/mxv
	.byte	W03
	.byte		        51*seq_031_mvl/mxv
	.byte	W03
	.byte		        53*seq_031_mvl/mxv
	.byte	W03
	.byte		        56*seq_031_mvl/mxv
	.byte	W03
	.byte	PEND
	.byte		VOL   , 59*seq_031_mvl/mxv
	.byte	W03
	.byte		        62*seq_031_mvl/mxv
	.byte	W03
	.byte		        64*seq_031_mvl/mxv
	.byte	W01
	.byte		MOD   , 40
	.byte	W02
	.byte		VOL   , 67*seq_031_mvl/mxv
	.byte	W03
	.byte		        70*seq_031_mvl/mxv
	.byte	W05
	.byte		        65*seq_031_mvl/mxv
	.byte	W04
	.byte		MOD   , 20
	.byte	W01
	.byte		VOL   , 60*seq_031_mvl/mxv
	.byte	W04
	.byte		        58*seq_031_mvl/mxv
	.byte	W04
	.byte		        55*seq_031_mvl/mxv
	.byte	W04
	.byte		        53*seq_031_mvl/mxv
	.byte	W04
	.byte		        51*seq_031_mvl/mxv
	.byte	W05
	.byte		        48*seq_031_mvl/mxv
	.byte	W04
	.byte		        46*seq_031_mvl/mxv
	.byte	W04
	.byte		        43*seq_031_mvl/mxv
	.byte	W04
	.byte		        41*seq_031_mvl/mxv
	.byte	W04
	.byte		        38*seq_031_mvl/mxv
	.byte	W05
	.byte		        36*seq_031_mvl/mxv
	.byte	W04
	.byte		        34*seq_031_mvl/mxv
	.byte	W04
	.byte		        31*seq_031_mvl/mxv
	.byte	W04
	.byte		        29*seq_031_mvl/mxv
	.byte	W04
	.byte		        26*seq_031_mvl/mxv
	.byte	W04
	.byte		        24*seq_031_mvl/mxv
	.byte	W05
	.byte		        21*seq_031_mvl/mxv
	.byte	W04
	.byte		        19*seq_031_mvl/mxv
	.byte	W03
	.byte	PEND
	.byte	W01
	.byte		VOL   , 17*seq_031_mvl/mxv
	.byte	W04
	.byte		        14*seq_031_mvl/mxv
	.byte	W04
	.byte		        12*seq_031_mvl/mxv
	.byte	W05
	.byte		        9*seq_031_mvl/mxv
	.byte	W04
	.byte		        7*seq_031_mvl/mxv
	.byte	W06
	.byte	PEND
	.byte		EOT   , Cn3 
	.byte	W72
	.byte	W96
	.byte	PATT
	 .word	seq_031_6 + 0x1A
	.byte	PATT
	 .word	seq_031_6 + 0x51
	.byte	PATT
	 .word	seq_031_6 + 0x8B
	.byte		EOT   , Cn3 
	.byte	W72
	.byte	W96
	.byte	W96
	.byte	W96
	.byte	W96
	.byte	W96
	.byte	W96
	.byte	W96
	.byte	W96
	.byte	W96
	.byte	PATT
	 .word	seq_031_6 + 0x1A
	.byte	PATT
	 .word	seq_031_6 + 0x51
	.byte	PATT
	 .word	seq_031_6 + 0x8B
	.byte		EOT   , Cn3 
	.byte	W72
	.byte	W96
	.byte	PATT
	 .word	seq_031_6 + 0x1A
	.byte	PATT
	 .word	seq_031_6 + 0x51
	.byte	PATT
	 .word	seq_031_6 + 0x8B
	.byte		EOT   , Cn3 
	.byte	W72
	.byte	W96
	.byte	W96
	.byte	W96
	.byte	W96
	.byte	W96
	.byte	W96
	.byte	W96
	.byte	W96
	.byte	W96
	.byte	PATT
	 .word	seq_031_6 + 0x1A
	.byte	PATT
	 .word	seq_031_6 + 0x51
	.byte	PATT
	 .word	seq_031_6 + 0x8B
	.byte		EOT   , Cn3 
	.byte	W72
	.byte	W96
	.byte	PATT
	 .word	seq_031_6 + 0x1A
	.byte	PATT
	 .word	seq_031_6 + 0x51
	.byte	PATT
	 .word	seq_031_6 + 0x8B
	.byte		EOT   , Cn3 
	.byte	W72
	.byte	W96
	.byte	W96
	.byte	W96
	.byte	W96
	.byte	W96
	.byte	W96
	.byte	W96
	.byte	W96
	.byte	W96
	.byte	PATT
	 .word	seq_031_6 + 0x1A
	.byte	PATT
	 .word	seq_031_6 + 0x51
	.byte	PATT
	 .word	seq_031_6 + 0x8B
	.byte		EOT   , Cn3 
	.byte	W72
	.byte	W96
	.byte	PATT
	 .word	seq_031_6 + 0x1A
	.byte	PATT
	 .word	seq_031_6 + 0x51
	.byte	PATT
	 .word	seq_031_6 + 0x8B
	.byte		EOT   , Cn3 
	.byte	W72
	.byte	W96
	.byte	W96
	.byte	W96
	.byte	W96
	.byte	W96
	.byte	W96
	.byte	W96
	.byte	W96
	.byte	W96
	.byte	PATT
	 .word	seq_031_6 + 0x1A
	.byte	PATT
	 .word	seq_031_6 + 0x51
	.byte	PATT
	 .word	seq_031_6 + 0x8B
	.byte		EOT   , Cn3 
	.byte	W72
	.byte	W96
	.byte	PATT
	 .word	seq_031_6 + 0x1A
	.byte	PATT
	 .word	seq_031_6 + 0x51
	.byte	PATT
	 .word	seq_031_6 + 0x8B
	.byte		EOT   , Cn3 
	.byte	W72
	.byte	W96
	.byte	W96
	.byte	W96
	.byte	W96
	.byte	W96
	.byte	W96
	.byte	W96
	.byte	W96
	.byte	W96
	.byte	PATT
	 .word	seq_031_6 + 0x1A
	.byte	PATT
	 .word	seq_031_6 + 0x51
	.byte	PATT
	 .word	seq_031_6 + 0x8B
	.byte		EOT   , Cn3 
	.byte	W72
	.byte	W96
	.byte	PATT
	 .word	seq_031_6 + 0x1A
	.byte	PATT
	 .word	seq_031_6 + 0x51
	.byte	PATT
	 .word	seq_031_6 + 0x8B
	.byte		EOT   , Cn3 
	.byte	W72
	.byte	W96
	.byte	W96
	.byte	W96
	.byte	W96
	.byte	W96
	.byte	W96
	.byte	W96
	.byte	W96
	.byte	W96
	.byte	PATT
	 .word	seq_031_6 + 0x1A
	.byte	PATT
	 .word	seq_031_6 + 0x51
	.byte	PATT
	 .word	seq_031_6 + 0x8B
	.byte		EOT   , Cn3 
	.byte	W72
	.byte	W96
	.byte	PATT
	 .word	seq_031_6 + 0x1A
	.byte	PATT
	 .word	seq_031_6 + 0x51
	.byte	PATT
	 .word	seq_031_6 + 0x8B
	.byte		EOT   , Cn3 
	.byte	W72
	.byte	W96
	.byte	W96
	.byte	W96
	.byte	W96
	.byte	W96
	.byte	W96
	.byte	W96
	.byte	W96
	.byte	W96
	.byte	PATT
	 .word	seq_031_6 + 0x1A
	.byte	PATT
	 .word	seq_031_6 + 0x51
	.byte	PATT
	 .word	seq_031_6 + 0x8B
	.byte		EOT   , Cn3 
	.byte	W72
	.byte	W96
	.byte	PATT
	 .word	seq_031_6 + 0x1A
	.byte	PATT
	 .word	seq_031_6 + 0x51
	.byte	PATT
	 .word	seq_031_6 + 0x8B
	.byte		EOT   , Cn3 
	.byte	W72
	.byte	W96
	.byte	W96
	.byte	W96
	.byte	W96
	.byte	W96
	.byte	W96
	.byte	W96
	.byte	W96
	.byte	W96
	.byte	PATT
	 .word	seq_031_6 + 0x1A
	.byte	PATT
	 .word	seq_031_6 + 0x51
	.byte	PATT
	 .word	seq_031_6 + 0x8B
	.byte		EOT   , Cn3 
	.byte	W72
	.byte	W96
	.byte	PATT
	 .word	seq_031_6 + 0x1A
	.byte	PATT
	 .word	seq_031_6 + 0x51
	.byte	PATT
	 .word	seq_031_6 + 0x8B
	.byte		EOT   , Cn3 
	.byte	W72
	.byte	W96
	.byte	W96
	.byte	W96
	.byte	W96
	.byte	W96
	.byte	W96
	.byte	W96
	.byte	W96
	.byte	W96
	.byte	PATT
	 .word	seq_031_6 + 0x1A
	.byte	PATT
	 .word	seq_031_6 + 0x51
	.byte	PATT
	 .word	seq_031_6 + 0x8B
	.byte		EOT   , Cn3 
	.byte	W72
	.byte	W96
	.byte	PATT
	 .word	seq_031_6 + 0x1A
	.byte	PATT
	 .word	seq_031_6 + 0x51
	.byte	PATT
	 .word	seq_031_6 + 0x8B
	.byte		EOT   , Cn3 
	.byte	W72
	.byte	W96
	.byte	W96
	.byte	W96
	.byte	W96
	.byte	W96
	.byte	W96
	.byte	W96
	.byte	W96
	.byte	W96
	.byte	PATT
	 .word	seq_031_6 + 0x1A
	.byte	PATT
	 .word	seq_031_6 + 0x51
	.byte	PATT
	 .word	seq_031_6 + 0x8B
	.byte		EOT   , Cn3 
	.byte	W72
	.byte	W96
	.byte	PATT
	 .word	seq_031_6 + 0x1A
	.byte	PATT
	 .word	seq_031_6 + 0x51
	.byte	PATT
	 .word	seq_031_6 + 0x8B
	.byte		EOT   , Cn3 
	.byte	W72
	.byte	W96
	.byte	W96
	.byte	W96
	.byte	W96
	.byte	W96
	.byte	W96
	.byte	W96
	.byte	W96
	.byte	W96
	.byte	PATT
	 .word	seq_031_6 + 0x1A
	.byte	PATT
	 .word	seq_031_6 + 0x51
	.byte	PATT
	 .word	seq_031_6 + 0x8B
	.byte		EOT   , Cn3 
	.byte	W72
	.byte	W96
	.byte	PATT
	 .word	seq_031_6 + 0x1A
	.byte	PATT
	 .word	seq_031_6 + 0x51
	.byte	PATT
	 .word	seq_031_6 + 0x8B
	.byte		EOT   , Cn3 
	.byte	W72
	.byte	W96
	.byte	W96
	.byte	W96
	.byte	W96
	.byte	W96
	.byte	W96
	.byte	W96
	.byte	W96
	.byte	W96
	.byte	PATT
	 .word	seq_031_6 + 0x1A
	.byte	PATT
	 .word	seq_031_6 + 0x51
	.byte	PATT
	 .word	seq_031_6 + 0x8B
	.byte		EOT   , Cn3 
	.byte	W72
	.byte	W96
	.byte	PATT
	 .word	seq_031_6 + 0x1A
	.byte	PATT
	 .word	seq_031_6 + 0x51
	.byte	PATT
	 .word	seq_031_6 + 0x8B
	.byte		EOT   , Cn3 
	.byte	W72
	.byte	W96
	.byte	W96
	.byte	W96
	.byte	W96
	.byte	W96
	.byte	W96
	.byte	W96
	.byte	W96
	.byte	W96
	.byte	PATT
	 .word	seq_031_6 + 0x1A
	.byte	PATT
	 .word	seq_031_6 + 0x51
	.byte	PATT
	 .word	seq_031_6 + 0x8B
	.byte		EOT   , Cn3 
	.byte	W72
	.byte	W96
	.byte	PATT
	 .word	seq_031_6 + 0x1A
	.byte	PATT
	 .word	seq_031_6 + 0x51
	.byte	PATT
	 .word	seq_031_6 + 0x8B
	.byte		EOT   , Cn3 
	.byte	W72
	.byte	W96
	.byte	W96
	.byte	W96
	.byte	W96
	.byte	W96
	.byte	W96
	.byte	W96
	.byte	W96
	.byte	W96
	.byte	PATT
	 .word	seq_031_6 + 0x1A
	.byte	PATT
	 .word	seq_031_6 + 0x51
	.byte	PATT
	 .word	seq_031_6 + 0x8B
	.byte		EOT   , Cn3 
	.byte	W72
	.byte	W96
	.byte	PATT
	 .word	seq_031_6 + 0x1A
	.byte	PATT
	 .word	seq_031_6 + 0x51
	.byte	PATT
	 .word	seq_031_6 + 0x8B
	.byte		EOT   , Cn3 
	.byte	W72
	.byte	W96
	.byte	W96
	.byte	W96
	.byte	W96
	.byte	W96
	.byte	W96
	.byte	W96
	.byte	W96
	.byte	W96
	.byte	PATT
	 .word	seq_031_6 + 0x1A
	.byte	PATT
	 .word	seq_031_6 + 0x51
	.byte	PATT
	 .word	seq_031_6 + 0x8B
	.byte		EOT   , Cn3 
	.byte	W72
	.byte	W96
	.byte	PATT
	 .word	seq_031_6 + 0x1A
	.byte	PATT
	 .word	seq_031_6 + 0x51
	.byte	PATT
	 .word	seq_031_6 + 0x8B
	.byte		EOT   , Cn3 
	.byte	W72
	.byte	W96
	.byte	W96
	.byte	W96
	.byte	W96
	.byte	W96
	.byte	W96
	.byte	W96
	.byte	W96
	.byte	W96
	.byte	PATT
	 .word	seq_031_6 + 0x1A
	.byte	PATT
	 .word	seq_031_6 + 0x51
	.byte	PATT
	 .word	seq_031_6 + 0x8B
	.byte		EOT   , Cn3 
	.byte	W72
	.byte	W96
	.byte	PATT
	 .word	seq_031_6 + 0x1A
	.byte	PATT
	 .word	seq_031_6 + 0x51
	.byte	PATT
	 .word	seq_031_6 + 0x8B
	.byte		EOT   , Cn3 
	.byte	W72
	.byte	W96
	.byte	W96
	.byte	W96
	.byte	W96
	.byte	W96
	.byte	W96
	.byte	W96
	.byte	W96
	.byte	W96
	.byte	PATT
	 .word	seq_031_6 + 0x1A
	.byte	PATT
	 .word	seq_031_6 + 0x51
	.byte	PATT
	 .word	seq_031_6 + 0x8B
	.byte		EOT   , Cn3 
	.byte	W72
	.byte	W96
	.byte	PATT
	 .word	seq_031_6 + 0x1A
	.byte	PATT
	 .word	seq_031_6 + 0x51
	.byte	PATT
	 .word	seq_031_6 + 0x8B
	.byte		EOT   , Cn3 
	.byte	W72
	.byte	W96
	.byte	W96
	.byte	W96
	.byte	W96
	.byte	W96
	.byte	W96
	.byte	W96
	.byte	W96
	.byte	W96
	.byte	PATT
	 .word	seq_031_6 + 0x1A
	.byte	PATT
	 .word	seq_031_6 + 0x51
	.byte	PATT
	 .word	seq_031_6 + 0x8B
	.byte		EOT   , Cn3 
	.byte	W72
	.byte	W96
	.byte	PATT
	 .word	seq_031_6 + 0x1A
	.byte	PATT
	 .word	seq_031_6 + 0x51
	.byte	PATT
	 .word	seq_031_6 + 0x8B
	.byte		EOT   , Cn3 
	.byte	W72
	.byte	W96
	.byte	W96
	.byte	W96
	.byte	W96
	.byte	W96
	.byte	W96
	.byte	W96
	.byte	W96
	.byte	W96
	.byte	PATT
	 .word	seq_031_6 + 0x1A
	.byte	PATT
	 .word	seq_031_6 + 0x51
	.byte	PATT
	 .word	seq_031_6 + 0x8B
	.byte		EOT   , Cn3 
	.byte	W72
	.byte	W96
	.byte	PATT
	 .word	seq_031_6 + 0x1A
	.byte	PATT
	 .word	seq_031_6 + 0x51
	.byte	PATT
	 .word	seq_031_6 + 0x8B
	.byte		EOT   , Cn3 
	.byte	W72
	.byte	W96
	.byte	W96
	.byte	W96
	.byte	W96
	.byte	W96
	.byte	W96
	.byte	W96
	.byte	W96
	.byte	W96
	.byte	PATT
	 .word	seq_031_6 + 0x1A
	.byte	PATT
	 .word	seq_031_6 + 0x51
	.byte	PATT
	 .word	seq_031_6 + 0x8B
	.byte		EOT   , Cn3 
	.byte	W72
	.byte	W96
	.byte	PATT
	 .word	seq_031_6 + 0x1A
	.byte	PATT
	 .word	seq_031_6 + 0x51
	.byte	PATT
	 .word	seq_031_6 + 0x8B
	.byte		EOT   , Cn3 
	.byte	W72
	.byte	W96
	.byte	W96
	.byte	W96
	.byte	W96
	.byte	W96
	.byte	W96
	.byte	W96
	.byte	W96
	.byte	W96
	.byte	PATT
	 .word	seq_031_6 + 0x1A
	.byte	PATT
	 .word	seq_031_6 + 0x51
	.byte	PATT
	 .word	seq_031_6 + 0x8B
	.byte		EOT   , Cn3 
	.byte	W72
	.byte	W96
	.byte	PATT
	 .word	seq_031_6 + 0x1A
	.byte	PATT
	 .word	seq_031_6 + 0x51
	.byte	PATT
	 .word	seq_031_6 + 0x8B
	.byte		EOT   , Cn3 
	.byte	W72
	.byte	W96
	.byte	W96
	.byte	W96
	.byte	W96
	.byte	W96
	.byte	W96
	.byte	W96
	.byte	W96
	.byte	W96
	.byte	PATT
	 .word	seq_031_6 + 0x1A
	.byte	PATT
	 .word	seq_031_6 + 0x51
	.byte	PATT
	 .word	seq_031_6 + 0x8B
	.byte		EOT   , Cn3 
	.byte	W72
	.byte	W96
	.byte	PATT
	 .word	seq_031_6 + 0x1A
	.byte	PATT
	 .word	seq_031_6 + 0x51
	.byte	PATT
	 .word	seq_031_6 + 0x8B
	.byte		EOT   , Cn3 
	.byte	W72
	.byte	W96
	.byte	W96
	.byte	GOTO
	 .word	seq_031_6 + 0x14
	.byte	FINE

@******************************************************@

	.align	2

seq_031:
	.byte	7	@ NumTrks
	.byte	0	@ NumBlks
	.byte	seq_031_pri	@ Priority
	.byte	seq_031_rev	@ Reverb

	.word	seq_031_grp

	.word	seq_031_0
	.word	seq_031_1
	.word	seq_031_2
	.word	seq_031_3
	.word	seq_031_4
	.word	seq_031_5
	.word	seq_031_6

	.end
