@ File generated by m4a2s Song-Module
	.include "MPlayDef.s"

	.equ	seq_040_grp, bank_000
	.equ	seq_040_pri, 50
	.equ	seq_040_rev, 213
	.equ	seq_040_mvl, 127
	.equ	seq_040_key, 0

	.section .rodata
	.global	seq_040
	.align	2

@*********************** Track 01 ***********************@

seq_040_0:
	.byte	KEYSH , seq_040_key+0
	.byte	TEMPO , 140/2
	.byte		VOICE , 51
	.byte		VOL   , 49*seq_040_mvl/mxv
	.byte		PAN   , c_v+0
	.byte	W01
	.byte		BENDR , 12
	.byte		MODT  , mod_tre
	.byte	W24
	.byte	W03
	.byte	TEMPO , 122/2
	.byte	W08
	.byte		N06   , Bn4 , v092
	.byte	W08
	.byte		N04   , Gn4 , v020
	.byte	W08
	.byte		        Bn4 , v040
	.byte	W08
	.byte		N06   , Cn5 , v092
	.byte	W08
	.byte		N04   , Gn4 , v020
	.byte	W08
	.byte		        Cn5 , v040
	.byte	W08
	.byte		N06   , Dn5 , v080
	.byte	W08
	.byte		N04   , Fn5 , v092
	.byte	W08
	.byte		        Dn5 , v032
	.byte	W08
	.byte		N06   , Fn5 , v092
	.byte	W08
	.byte		N04   , Dn5 , v032
	.byte	W08
	.byte		        Cn5 , v092
	.byte	W08
	.byte		N06   , Bn4 
	.byte	W08
	.byte		N04   , Dn4 , v020
	.byte	W08
	.byte		        Bn4 , v040
	.byte	W08
	.byte		N06   , Cn5 , v092
	.byte	W08
	.byte		N04   , Dn4 , v020
	.byte	W08
	.byte		        Cn5 , v040
	.byte	W08
	.byte		N06   , Bn4 , v072
	.byte	W08
	.byte		N04   , Dn4 , v040
	.byte	W08
	.byte		        En4 , v020
	.byte	W08
	.byte		N12   , Dn4 , v080
	.byte	W16
	.byte		N04   , Dn4 , v040
	.byte	W08
	.byte		N06   , Bn4 , v092
	.byte	W08
	.byte		N04   , Gn4 , v020
	.byte	W08
	.byte		        Bn4 , v040
	.byte	W08
	.byte		N06   , Cn5 , v092
	.byte	W08
	.byte		N04   , Gn4 , v020
	.byte	W08
	.byte		        Cn5 , v040
	.byte	W08
	.byte		N06   , Dn5 , v080
	.byte	W08
	.byte		N04   , Gn5 , v092
	.byte	W08
	.byte		        Gn4 , v032
	.byte	W08
	.byte		N06   , Fn5 , v092
	.byte	W08
	.byte		N04   , Dn5 , v032
	.byte	W08
	.byte		        Cn5 , v072
	.byte	W08
	.byte		N06   , Bn4 , v092
	.byte	W06
	.byte	TEMPO , 118/2
	.byte	W02
	.byte		N04   , Dn4 , v020
	.byte	W08
	.byte		        Bn4 , v040
	.byte	W08
	.byte		N06   , Cn5 , v092
	.byte	W06
	.byte	TEMPO , 116/2
	.byte	W02
	.byte		N04   , Gn4 , v020
	.byte	W08
	.byte		        Cn5 , v040
	.byte	W08
	.byte		N24   , Bn4 , v060
	.byte	W06
	.byte	TEMPO , 114/2
	.byte	W17
	.byte		VOICE , 76
	.byte		MOD   , 75
	.byte		VOL   , 51*seq_040_mvl/mxv
	.byte		LFOS  , 27
	.byte	W01
	.byte		VOL   , 53*seq_040_mvl/mxv
	.byte		N16   , Gn3 , v127
	.byte	W01
	.byte		VOL   , 55*seq_040_mvl/mxv
	.byte	W01
	.byte		        56*seq_040_mvl/mxv
	.byte	W01
	.byte		        59*seq_040_mvl/mxv
	.byte	W01
	.byte		        62*seq_040_mvl/mxv
	.byte	W01
	.byte		        65*seq_040_mvl/mxv
	.byte	W01
	.byte	TEMPO , 78/2
	.byte		        70*seq_040_mvl/mxv
	.byte	W01
	.byte		        71*seq_040_mvl/mxv
	.byte	W01
	.byte		        67*seq_040_mvl/mxv
	.byte	W01
	.byte		        63*seq_040_mvl/mxv
	.byte	W01
	.byte		        60*seq_040_mvl/mxv
	.byte	W01
	.byte		        56*seq_040_mvl/mxv
	.byte	W01
	.byte		        52*seq_040_mvl/mxv
	.byte	W02
	.byte		        44*seq_040_mvl/mxv
	.byte	W02
	.byte		        36*seq_040_mvl/mxv
	.byte	W02
	.byte		        28*seq_040_mvl/mxv
	.byte	W05
	.byte		        68*seq_040_mvl/mxv
	.byte	W01
	.byte	TEMPO , 124/2
	.byte		        74*seq_040_mvl/mxv
	.byte		N40   , Dn4 , v112
	.byte	W01
	.byte		VOL   , 79*seq_040_mvl/mxv
	.byte	W01
	.byte		        84*seq_040_mvl/mxv
	.byte	W01
	.byte		        88*seq_040_mvl/mxv
	.byte	W01
	.byte		        92*seq_040_mvl/mxv
	.byte	W01
	.byte		        98*seq_040_mvl/mxv
	.byte	W01
	.byte		        101*seq_040_mvl/mxv
	.byte	W21
	.byte		        93*seq_040_mvl/mxv
	.byte	W02
	.byte		        84*seq_040_mvl/mxv
	.byte	W02
	.byte		        64*seq_040_mvl/mxv
	.byte	W01
	.byte		        50*seq_040_mvl/mxv
	.byte	W01
	.byte		        33*seq_040_mvl/mxv
	.byte	W01
	.byte		        23*seq_040_mvl/mxv
	.byte	W13
	.byte		        108*seq_040_mvl/mxv
	.byte	W01
	.byte		N07
	.byte	W16
	.byte		N06   , Dn4 , v072
	.byte	W08
	.byte		N03   , Dn4 , v116
	.byte	W08
	.byte		        Cn4 , v072
	.byte	W08
	.byte		        Dn4 , v116
	.byte	W08
	.byte		N21   , Gn4 , v080
	.byte	W24
	.byte	TEMPO , 120/2
	.byte	W24
	.byte	TEMPO , 106/2
	.byte		N07   , Dn4 , v112
	.byte	W16
	.byte		N06   , Dn4 , v072
	.byte	W08
	.byte	TEMPO , 90/2
	.byte		N05   , Dn4 , v100
	.byte	W08
	.byte		        Cn4 , v072
	.byte	W08
	.byte		        Dn4 , v080
	.byte	W07
	.byte		VOICE , 76
	.byte		MOD   , 75
	.byte		LFOS  , 27
	.byte	W01
	.byte	TEMPO , 132/2
	.byte		N05   , Fn4 , v100
	.byte	W08
	.byte		N03   , Fn4 , v052
	.byte	W08
	.byte		        Fn4 , v012
	.byte	W08
	.byte		N05   , Ds4 , v100
	.byte	W08
	.byte		N03   , Ds4 , v052
	.byte	W08
	.byte		        Ds4 , v012
	.byte	W08
	.byte		N05   , Dn4 , v080
	.byte	W08
	.byte		N03   , Dn4 , v052
	.byte	W08
	.byte		        Dn4 , v012
	.byte	W08
	.byte		N05   , Cn4 , v072
	.byte	W08
	.byte		N03   , Cn4 , v052
	.byte	W08
	.byte		        Cn4 , v012
	.byte	W08
	.byte		N05   , Ds4 , v100
	.byte	W08
	.byte		N03   , Ds4 , v052
	.byte	W08
	.byte		        Ds4 , v012
	.byte	W08
	.byte		N05   , Dn4 , v100
	.byte	W08
	.byte		N03   , Dn4 , v052
	.byte	W08
	.byte		        Dn4 , v012
	.byte	W08
	.byte		N05   , Cn4 , v080
	.byte	W08
	.byte		N03   , Cn4 , v052
	.byte	W08
	.byte		        Cn4 , v012
	.byte	W08
	.byte		N05   , As3 , v072
	.byte	W08
	.byte		N03   , As3 , v052
	.byte	W08
	.byte		        As3 , v012
	.byte	W07
	.byte		VOL   , 35*seq_040_mvl/mxv
	.byte	W01
	.byte	TEMPO , 100/2
	.byte		N72   , Cn4 , v100
	.byte	W05
	.byte		VOL   , 41*seq_040_mvl/mxv
	.byte	W01
	.byte		        43*seq_040_mvl/mxv
	.byte	W01
	.byte		        47*seq_040_mvl/mxv
	.byte	W01
	.byte		        50*seq_040_mvl/mxv
	.byte	W01
	.byte		        53*seq_040_mvl/mxv
	.byte	W01
	.byte		        56*seq_040_mvl/mxv
	.byte	W01
	.byte		        61*seq_040_mvl/mxv
	.byte	W01
	.byte		        64*seq_040_mvl/mxv
	.byte	W01
	.byte		        68*seq_040_mvl/mxv
	.byte	W03
	.byte		        74*seq_040_mvl/mxv
	.byte	W01
	.byte		        79*seq_040_mvl/mxv
	.byte	W01
	.byte		        84*seq_040_mvl/mxv
	.byte	W02
	.byte		        86*seq_040_mvl/mxv
	.byte	W04
	.byte	TEMPO , 90/2
	.byte		        84*seq_040_mvl/mxv
	.byte	W03
	.byte		        82*seq_040_mvl/mxv
	.byte	W03
	.byte		        78*seq_040_mvl/mxv
	.byte	W03
	.byte		        74*seq_040_mvl/mxv
	.byte	W03
	.byte		        70*seq_040_mvl/mxv
	.byte	W03
	.byte		        65*seq_040_mvl/mxv
	.byte	W02
	.byte		        62*seq_040_mvl/mxv
	.byte	W01
	.byte	TEMPO , 40/2
	.byte	W01
	.byte		        57*seq_040_mvl/mxv
	.byte	W02
	.byte		        51*seq_040_mvl/mxv
	.byte	W02
	.byte		        44*seq_040_mvl/mxv
	.byte	W01
	.byte	TEMPO , 74/2
	.byte	W01
	.byte		        38*seq_040_mvl/mxv
	.byte	W02
	.byte		        33*seq_040_mvl/mxv
	.byte	W02
	.byte		        24*seq_040_mvl/mxv
	.byte	W02
	.byte		        19*seq_040_mvl/mxv
	.byte	W02
	.byte		        12*seq_040_mvl/mxv
	.byte	W02
	.byte		        7*seq_040_mvl/mxv
	.byte	W01
	.byte		        3*seq_040_mvl/mxv
	.byte	W01
	.byte		        1*seq_040_mvl/mxv
	.byte	W11
	.byte	FINE

@*********************** Track 02 ***********************@

seq_040_1:
	.byte	KEYSH , seq_040_key+0
	.byte	W01
	.byte		VOICE , 45
	.byte	W01
	.byte		VOL   , 83*seq_040_mvl/mxv
	.byte		BENDR , 2
	.byte		MODT  , mod_pan
	.byte	W01
	.byte		PAN   , c_v+0
	.byte	W32
	.byte		BEND  , c_v-3
	.byte	W01
	.byte		N08   , Bn3 , v092
	.byte	W04
	.byte		BEND  , c_v-3
	.byte	W03
	.byte		        c_v-2
	.byte	W01
	.byte		N06   , Gn3 , v020
	.byte	W01
	.byte		BEND  , c_v-2
	.byte	W01
	.byte		        c_v-1
	.byte	W01
	.byte		        c_v+0
	.byte	W05
	.byte		N06   , Bn3 , v040
	.byte	W08
	.byte		N08   , Cn4 , v092
	.byte	W08
	.byte		N06   , Gn3 , v020
	.byte	W08
	.byte		        Cn4 , v040
	.byte	W08
	.byte		N08   , Dn4 , v080
	.byte	W08
	.byte		N06   , Fn4 , v092
	.byte	W08
	.byte		        Dn4 , v032
	.byte	W08
	.byte		N08   , Fn4 , v092
	.byte	W08
	.byte		N06   , Dn4 , v032
	.byte	W08
	.byte		        Cn4 , v092
	.byte	W08
	.byte		N08   , Bn3 
	.byte	W08
	.byte		N06   , Dn3 , v020
	.byte	W08
	.byte		        Bn3 , v040
	.byte	W08
	.byte		N08   , Cn4 , v092
	.byte	W08
	.byte		N06   , Dn3 , v020
	.byte	W08
	.byte		        Cn4 , v040
	.byte	W08
	.byte		N08   , Bn3 , v072
	.byte	W08
	.byte		N06   , Dn3 , v040
	.byte	W08
	.byte		        En3 , v020
	.byte	W08
	.byte		N14   , Dn3 , v080
	.byte	W16
	.byte		N06   , Dn3 , v040
	.byte	W08
	.byte		N08   , Bn3 , v092
	.byte	W08
	.byte		N06   , Gn3 , v020
	.byte	W08
	.byte		        Bn3 , v040
	.byte	W08
	.byte		N08   , Cn4 , v092
	.byte	W08
	.byte		N06   , Gn3 , v020
	.byte	W08
	.byte		        Cn4 , v040
	.byte	W08
	.byte		N08   , Dn4 , v080
	.byte	W08
	.byte		N06   , Gn4 , v092
	.byte	W08
	.byte		        Gn3 , v032
	.byte	W08
	.byte		N08   , Fn4 , v092
	.byte	W08
	.byte		N06   , Dn4 , v032
	.byte	W08
	.byte		        Cn4 , v072
	.byte	W08
	.byte		N08   , Bn3 , v092
	.byte	W08
	.byte		N06   , Dn3 , v020
	.byte	W08
	.byte		        Bn3 , v040
	.byte	W08
	.byte		N08   , Cn4 , v092
	.byte	W08
	.byte		N06   , Gn3 , v020
	.byte	W08
	.byte		        Cn4 , v040
	.byte	W08
	.byte		N48   , Bn3 , v060
	.byte	W16
	.byte		VOL   , 63*seq_040_mvl/mxv
	.byte	W02
	.byte		        61*seq_040_mvl/mxv
	.byte	W03
	.byte		        58*seq_040_mvl/mxv
	.byte	W02
	.byte		        56*seq_040_mvl/mxv
	.byte	W02
	.byte		        54*seq_040_mvl/mxv
	.byte	W02
	.byte		        52*seq_040_mvl/mxv
	.byte	W02
	.byte		        46*seq_040_mvl/mxv
	.byte	W02
	.byte		        40*seq_040_mvl/mxv
	.byte	W03
	.byte		        31*seq_040_mvl/mxv
	.byte	W02
	.byte		        18*seq_040_mvl/mxv
	.byte	W02
	.byte		        7*seq_040_mvl/mxv
	.byte	W10
	.byte	W96
	.byte	W01
	.byte		VOICE , 45
	.byte	W01
	.byte		VOL   , 73*seq_040_mvl/mxv
	.byte		BENDR , 2
	.byte		MODT  , mod_pan
	.byte	W01
	.byte		PAN   , c_v+0
	.byte	W92
	.byte	W01
	.byte		N04   , Fn4 , v092
	.byte	W08
	.byte		        Fn4 , v040
	.byte	W08
	.byte		        Fn4 , v020
	.byte	W08
	.byte		        Ds4 , v092
	.byte	W08
	.byte		        Ds4 , v040
	.byte	W08
	.byte		        Ds4 , v020
	.byte	W08
	.byte		        Dn4 , v092
	.byte	W08
	.byte		        Dn4 , v040
	.byte	W08
	.byte		        Dn4 , v020
	.byte	W08
	.byte		        Cn4 , v092
	.byte	W08
	.byte		        Cn4 , v040
	.byte	W08
	.byte		        Cn4 , v020
	.byte	W08
	.byte		        Ds4 , v092
	.byte	W08
	.byte		        Ds4 , v040
	.byte	W08
	.byte		        Ds4 , v020
	.byte	W08
	.byte		        Dn4 , v092
	.byte	W08
	.byte		        Dn4 , v040
	.byte	W08
	.byte		        Dn4 , v020
	.byte	W08
	.byte		        Cn4 , v092
	.byte	W08
	.byte		        Cn4 , v040
	.byte	W08
	.byte		        Cn4 , v020
	.byte	W08
	.byte		        As3 , v092
	.byte	W08
	.byte		        As3 , v040
	.byte	W08
	.byte		        As3 , v020
	.byte	W08
	.byte	W48
	.byte	FINE

@*********************** Track 03 ***********************@

seq_040_2:
	.byte	KEYSH , seq_040_key+0
	.byte	W03
	.byte		VOICE , 6
	.byte		VOL   , 68*seq_040_mvl/mxv
	.byte	W01
	.byte		PAN   , c_v-10
	.byte		BENDR , 12
	.byte		MODT  , mod_vib
	.byte	W30
	.byte	W01
	.byte		BEND  , c_v-3
	.byte	W01
	.byte		N92   , Dn2 , v092
	.byte	W04
	.byte		BEND  , c_v-3
	.byte	W03
	.byte		        c_v-2
	.byte	W02
	.byte		        c_v-2
	.byte	W01
	.byte		        c_v-1
	.byte	W01
	.byte		        c_v+0
	.byte	W84
	.byte	W01
	.byte		N84
	.byte	W88
	.byte		N04
	.byte	W04
	.byte		        Gn2 
	.byte	W04
	.byte		N96   , Dn2 
	.byte	W96
	.byte		N96
	.byte	W48
	.byte	W03
	.byte		VOL   , 63*seq_040_mvl/mxv
	.byte	W07
	.byte		        62*seq_040_mvl/mxv
	.byte	W05
	.byte		        59*seq_040_mvl/mxv
	.byte	W03
	.byte		        55*seq_040_mvl/mxv
	.byte	W03
	.byte		        48*seq_040_mvl/mxv
	.byte	W03
	.byte		        40*seq_040_mvl/mxv
	.byte	W03
	.byte		        30*seq_040_mvl/mxv
	.byte	W02
	.byte		        22*seq_040_mvl/mxv
	.byte	W02
	.byte		        15*seq_040_mvl/mxv
	.byte	W02
	.byte		        5*seq_040_mvl/mxv
	.byte	W15
	.byte	W96
	.byte	W84
	.byte		VOICE , 74
	.byte	W01
	.byte		VOL   , 83*seq_040_mvl/mxv
	.byte	W01
	.byte		PAN   , c_v+0
	.byte	W10
	.byte		N05   , Fn3 , v076
	.byte	W16
	.byte		        Fn3 , v032
	.byte	W08
	.byte		        Fn3 , v076
	.byte	W16
	.byte		        Fn3 , v032
	.byte	W08
	.byte		        Fn3 , v076
	.byte	W16
	.byte		        Fn3 , v032
	.byte	W08
	.byte		        Fn3 , v076
	.byte	W16
	.byte		        Fn3 , v032
	.byte	W08
	.byte	PEND
	.byte	PATT
	 .word	seq_040_2 + 0x4F
	.byte	W48
	.byte	FINE

@*********************** Track 04 ***********************@

seq_040_3:
	.byte	KEYSH , seq_040_key+0
	.byte	W05
	.byte		VOICE , 6
	.byte		VOL   , 68*seq_040_mvl/mxv
	.byte		PAN   , c_v+10
	.byte	W01
	.byte		BENDR , 12
	.byte		MODT  , mod_vib
	.byte	W28
	.byte	W01
	.byte		BEND  , c_v-3
	.byte	W01
	.byte		N84   , Gn1 , v112
	.byte	W04
	.byte		BEND  , c_v-3
	.byte	W03
	.byte		        c_v-2
	.byte	W02
	.byte		        c_v-2
	.byte	W01
	.byte		        c_v-1
	.byte	W01
	.byte		        c_v+0
	.byte	W40
	.byte		VOL   , 63*seq_040_mvl/mxv
	.byte	W07
	.byte		        62*seq_040_mvl/mxv
	.byte	W05
	.byte		        59*seq_040_mvl/mxv
	.byte	W03
	.byte		        55*seq_040_mvl/mxv
	.byte	W03
	.byte		        48*seq_040_mvl/mxv
	.byte	W03
	.byte		        40*seq_040_mvl/mxv
	.byte	W03
	.byte		        30*seq_040_mvl/mxv
	.byte	W02
	.byte		        22*seq_040_mvl/mxv
	.byte	W02
	.byte		        15*seq_040_mvl/mxv
	.byte	W02
	.byte		        5*seq_040_mvl/mxv
	.byte	W14
	.byte		        68*seq_040_mvl/mxv
	.byte		BEND  , c_v-3
	.byte	W01
	.byte	PEND
	.byte	PATT
	 .word	seq_040_3 + 0x13
	.byte	PATT
	 .word	seq_040_3 + 0x13
	.byte		N84   , Gn1 , v112
	.byte	W04
	.byte		BEND  , c_v-3
	.byte	W03
	.byte		        c_v-2
	.byte	W02
	.byte		        c_v-2
	.byte	W01
	.byte		        c_v-1
	.byte	W01
	.byte		        c_v+0
	.byte	W40
	.byte		VOL   , 63*seq_040_mvl/mxv
	.byte	W07
	.byte		        62*seq_040_mvl/mxv
	.byte	W05
	.byte		        59*seq_040_mvl/mxv
	.byte	W03
	.byte		        55*seq_040_mvl/mxv
	.byte	W03
	.byte		        48*seq_040_mvl/mxv
	.byte	W03
	.byte		        40*seq_040_mvl/mxv
	.byte	W03
	.byte		        30*seq_040_mvl/mxv
	.byte	W02
	.byte		        22*seq_040_mvl/mxv
	.byte	W02
	.byte		        15*seq_040_mvl/mxv
	.byte	W02
	.byte		        5*seq_040_mvl/mxv
	.byte	W15
	.byte	W96
	.byte	W84
	.byte		VOICE , 75
	.byte	W01
	.byte		VOL   , 83*seq_040_mvl/mxv
	.byte	W01
	.byte		PAN   , c_v+0
	.byte	W10
	.byte		N12   , As2 , v076
	.byte	W24
	.byte		N12
	.byte	W24
	.byte		N12
	.byte	W24
	.byte		N12
	.byte	W24
	.byte	PEND
	.byte	PATT
	 .word	seq_040_3 + 0x75
	.byte	W48
	.byte	FINE

@*********************** Track 05 ***********************@

seq_040_4:
	.byte	KEYSH , seq_040_key+0
	.byte	W06
	.byte		VOICE , 95
	.byte		MOD   , 0
	.byte	W01
	.byte		VOL   , 73*seq_040_mvl/mxv
	.byte		PAN   , c_v-20
	.byte		MODT  , mod_pan
	.byte	W28
	.byte	W01
	.byte	W96
	.byte	W96
	.byte	W96
	.byte	W96
	.byte		TIE   , Gn2 , v092
	.byte	W96
	.byte	W92
	.byte	W03
	.byte		MOD   , 50
	.byte		PAN   , c_v+0
	.byte	W01
	.byte		EOT
	.byte		TIE   , Fn2 
	.byte	W96
	.byte	W96
	.byte		EOT
	.byte		N48   , Fn2 , v072
	.byte	W48
	.byte	FINE

@*********************** Track 06 ***********************@

seq_040_5:
	.byte	KEYSH , seq_040_key+0
	.byte	W08
	.byte		VOICE , 95
	.byte		VOL   , 73*seq_040_mvl/mxv
	.byte		MODT  , mod_pan
	.byte	W01
	.byte		PAN   , c_v+20
	.byte	W24
	.byte	W03
	.byte	W96
	.byte	W96
	.byte	W96
	.byte	W96
	.byte		TIE   , Cn2 , v112
	.byte	W96
	.byte	W96
	.byte		EOT
	.byte	W96
	.byte	W96
	.byte	W48
	.byte	FINE

@*********************** Track 07 ***********************@

seq_040_6:
	.byte	KEYSH , seq_040_key+0
	.byte	W10
	.byte		VOICE , 9
	.byte		VOL   , 74*seq_040_mvl/mxv
	.byte		MODT  , mod_pan
	.byte	W01
	.byte		PAN   , c_v-30
	.byte	W24
	.byte	W01
	.byte	W96
	.byte	W96
	.byte	W96
	.byte	W96
	.byte	W96
	.byte	W92
	.byte	W03
	.byte		VOICE , 95
	.byte	W01
	.byte		N04   , As3 , v112
	.byte	W08
	.byte		        As2 , v100
	.byte	W08
	.byte		N02   , Fn3 , v116
	.byte	W08
	.byte		N04   , As3 , v112
	.byte	W08
	.byte		        As2 , v100
	.byte	W08
	.byte		N02   , Fn3 , v116
	.byte	W08
	.byte		N04   , As3 , v112
	.byte	W08
	.byte		        As2 , v100
	.byte	W08
	.byte		N02   , Fn3 , v116
	.byte	W08
	.byte		N04   , As3 , v112
	.byte	W08
	.byte		        As2 , v100
	.byte	W08
	.byte		N02   , Fn3 , v116
	.byte	W08
	.byte		N04   , As3 , v112
	.byte	W08
	.byte		        As2 , v100
	.byte	W08
	.byte		N02   , Fn3 , v116
	.byte	W08
	.byte		N04   , As3 , v112
	.byte	W08
	.byte		        As2 , v100
	.byte	W08
	.byte		N02   , Fn3 , v116
	.byte	W08
	.byte		N04   , As3 , v112
	.byte	W08
	.byte		        As2 , v100
	.byte	W08
	.byte		N02   , Fn3 , v116
	.byte	W08
	.byte		N04   , As3 , v112
	.byte	W08
	.byte		        Fn2 , v100
	.byte	W08
	.byte		N02   , As2 , v116
	.byte	W08
	.byte		N48   , Cn3 , v060
	.byte	W48
	.byte	FINE

@*********************** Track 08 ***********************@

seq_040_7:
	.byte	KEYSH , seq_040_key+0
	.byte	W12
	.byte		VOICE , 9
	.byte		VOL   , 68*seq_040_mvl/mxv
	.byte		MODT  , mod_pan
	.byte	W01
	.byte		PAN   , c_v+0
	.byte	W23
	.byte	W96
	.byte	W96
	.byte	W96
	.byte	W92
	.byte	W03
	.byte		VOICE , 9
	.byte	W01
	.byte	PEND
	.byte		N08   , Fn2 , v127
	.byte	W08
	.byte		N04   , Fn3 , v092
	.byte	W08
	.byte		        Cn4 , v112
	.byte	W08
	.byte		        Gn4 , v100
	.byte	W08
	.byte		        Dn4 , v040
	.byte	W08
	.byte		        Cn4 , v088
	.byte	W08
	.byte		N08   , Fn2 , v127
	.byte	W08
	.byte		N04   , Fn3 , v092
	.byte	W08
	.byte		        Cn4 , v112
	.byte	W08
	.byte		        Gn4 , v100
	.byte	W08
	.byte		        Dn4 , v040
	.byte	W08
	.byte		        Cn4 , v088
	.byte	W08
	.byte		N08   , En2 , v127
	.byte	W08
	.byte		N04   , En3 , v092
	.byte	W08
	.byte		        Cn4 , v112
	.byte	W08
	.byte		        Gn4 , v100
	.byte	W08
	.byte		        Dn4 , v040
	.byte	W08
	.byte		        Cn4 , v088
	.byte	W08
	.byte		N08   , En2 , v127
	.byte	W08
	.byte		N04   , En3 , v092
	.byte	W08
	.byte		        Cn4 , v112
	.byte	W08
	.byte		        Gn4 , v100
	.byte	W08
	.byte		        Dn4 , v040
	.byte	W08
	.byte		        Cn4 , v088
	.byte	W08
	.byte	W96
	.byte	PATT
	 .word	seq_040_7 + 0x10
	.byte		N08   , Fn2 , v127
	.byte	W08
	.byte		        Fn3 , v092
	.byte	W08
	.byte		        As3 , v112
	.byte	W08
	.byte		        Cn4 , v116
	.byte	W08
	.byte		        Fn4 , v040
	.byte	W08
	.byte		N07   , Cn5 , v052
	.byte	W07
	.byte		N04   , Fn4 , v056
	.byte	W01
	.byte		        Cn5 
	.byte	W01
	.byte		        Fn5 
	.byte	W04
	.byte	FINE

@*********************** Track 09 ***********************@

seq_040_8:
	.byte	KEYSH , seq_040_key+0
	.byte	W14
	.byte		VOICE , 37
	.byte		VOL   , 125*seq_040_mvl/mxv
	.byte	W01
	.byte		PAN   , c_v+0
	.byte		BENDR , 12
	.byte		BEND  , c_v+0
	.byte	W21
	.byte		N96   , Gn1 , v127
	.byte	W96
	.byte		N96
	.byte	W96
	.byte		N96
	.byte	W96
	.byte		N92
	.byte	W01
	.byte		VOL   , 120*seq_040_mvl/mxv
	.byte	W02
	.byte		        117*seq_040_mvl/mxv
	.byte	W02
	.byte		        115*seq_040_mvl/mxv
	.byte	W01
	.byte		        115*seq_040_mvl/mxv
	.byte	W02
	.byte		        113*seq_040_mvl/mxv
	.byte	W02
	.byte		        112*seq_040_mvl/mxv
	.byte	W01
	.byte		        111*seq_040_mvl/mxv
	.byte	W02
	.byte		        110*seq_040_mvl/mxv
	.byte	W01
	.byte		        109*seq_040_mvl/mxv
	.byte	W02
	.byte		        108*seq_040_mvl/mxv
	.byte	W02
	.byte		        106*seq_040_mvl/mxv
	.byte	W01
	.byte		        106*seq_040_mvl/mxv
	.byte	W02
	.byte		        104*seq_040_mvl/mxv
	.byte	W01
	.byte		        103*seq_040_mvl/mxv
	.byte	W02
	.byte		        102*seq_040_mvl/mxv
	.byte	W02
	.byte		        101*seq_040_mvl/mxv
	.byte	W01
	.byte		        100*seq_040_mvl/mxv
	.byte	W02
	.byte		        99*seq_040_mvl/mxv
	.byte	W01
	.byte		        98*seq_040_mvl/mxv
	.byte	W02
	.byte		        96*seq_040_mvl/mxv
	.byte	W02
	.byte		        95*seq_040_mvl/mxv
	.byte	W01
	.byte		        94*seq_040_mvl/mxv
	.byte	W02
	.byte		        93*seq_040_mvl/mxv
	.byte	W01
	.byte		        92*seq_040_mvl/mxv
	.byte	W02
	.byte		        91*seq_040_mvl/mxv
	.byte	W02
	.byte		        89*seq_040_mvl/mxv
	.byte	W01
	.byte		        89*seq_040_mvl/mxv
	.byte	W02
	.byte		        88*seq_040_mvl/mxv
	.byte	W01
	.byte		        87*seq_040_mvl/mxv
	.byte	W02
	.byte		        84*seq_040_mvl/mxv
	.byte	W02
	.byte		        82*seq_040_mvl/mxv
	.byte	W01
	.byte		        80*seq_040_mvl/mxv
	.byte	W02
	.byte		        78*seq_040_mvl/mxv
	.byte	W01
	.byte		        76*seq_040_mvl/mxv
	.byte	W02
	.byte		        74*seq_040_mvl/mxv
	.byte	W02
	.byte		        71*seq_040_mvl/mxv
	.byte	W01
	.byte		        69*seq_040_mvl/mxv
	.byte	W02
	.byte		        67*seq_040_mvl/mxv
	.byte	W01
	.byte		        65*seq_040_mvl/mxv
	.byte	W02
	.byte		        63*seq_040_mvl/mxv
	.byte	W02
	.byte		        61*seq_040_mvl/mxv
	.byte	W01
	.byte		        60*seq_040_mvl/mxv
	.byte	W02
	.byte		        57*seq_040_mvl/mxv
	.byte	W01
	.byte		        55*seq_040_mvl/mxv
	.byte	W02
	.byte		        53*seq_040_mvl/mxv
	.byte	W02
	.byte		        50*seq_040_mvl/mxv
	.byte	W01
	.byte		        49*seq_040_mvl/mxv
	.byte	W02
	.byte		        46*seq_040_mvl/mxv
	.byte	W01
	.byte		        45*seq_040_mvl/mxv
	.byte	W02
	.byte		        42*seq_040_mvl/mxv
	.byte	W02
	.byte		        40*seq_040_mvl/mxv
	.byte	W01
	.byte		        37*seq_040_mvl/mxv
	.byte	W02
	.byte		        30*seq_040_mvl/mxv
	.byte	W01
	.byte		        27*seq_040_mvl/mxv
	.byte	W02
	.byte		        20*seq_040_mvl/mxv
	.byte	W02
	.byte		        14*seq_040_mvl/mxv
	.byte	W01
	.byte		        10*seq_040_mvl/mxv
	.byte	W02
	.byte		        4*seq_040_mvl/mxv
	.byte	W02
	.byte		VOICE , 37
	.byte		VOL   , 125*seq_040_mvl/mxv
	.byte	W01
	.byte		N96   , Fn2 , v092
	.byte	W96
	.byte		        En2 
	.byte	W92
	.byte	W03
	.byte		VOICE , 37
	.byte	W01
	.byte		N24   , Ds2 , v127
	.byte	W24
	.byte		N08
	.byte	W16
	.byte		        As1 , v080
	.byte	W08
	.byte		        Ds2 , v127
	.byte	W08
	.byte		        As2 , v100
	.byte	W08
	.byte		        As1 , v080
	.byte	W08
	.byte		        Ds2 , v127
	.byte	W16
	.byte		        As1 , v080
	.byte	W08
	.byte		N24   , Dn2 , v127
	.byte	W24
	.byte		N08
	.byte	W16
	.byte		        As1 , v080
	.byte	W08
	.byte		        Dn2 , v127
	.byte	W08
	.byte		        Fn2 , v100
	.byte	W08
	.byte		        As1 , v080
	.byte	W08
	.byte		        Dn2 , v127
	.byte	W16
	.byte		        As1 , v080
	.byte	W08
	.byte		N48   , Fn2 
	.byte	W48
	.byte	FINE

@*********************** Track 10 ***********************@

seq_040_9:
	.byte	KEYSH , seq_040_key+0
	.byte	W16
	.byte		VOICE , 127
	.byte		VOL   , 125*seq_040_mvl/mxv
	.byte		PAN   , c_v+0
	.byte	W20
	.byte		N04   , Fs3 , v127
	.byte	W48
	.byte		N04
	.byte	W48
	.byte	PEND
	.byte		N04
	.byte	W48
	.byte		N04
	.byte	W24
	.byte		N04
	.byte	W24
	.byte	PATT
	 .word	seq_040_9 + 0xA
	.byte	PATT
	 .word	seq_040_9 + 0xA
	.byte	W96
	.byte	W96
	.byte		N04   , Fs3 , v127
	.byte	W24
	.byte		        Gn1 , v080
	.byte	W24
	.byte		        Fs3 , v127
	.byte	W24
	.byte		        Gn1 , v080
	.byte	W24
	.byte	PEND
	.byte	PATT
	 .word	seq_040_9 + 0x23
	.byte		N04   , Fs3 , v127
	.byte	W48
	.byte	FINE

@*********************** Track 11 ***********************@

seq_040_10:
	.byte	KEYSH , seq_040_key+0
	.byte	W17
	.byte		VOICE , 127
	.byte		VOL   , 125*seq_040_mvl/mxv
	.byte		PAN   , c_v+0
	.byte	W19
	.byte		N04   , An1 , v112
	.byte	W16
	.byte		        An1 , v036
	.byte	W04
	.byte		        An1 , v020
	.byte	W04
	.byte		        An1 , v100
	.byte	W16
	.byte		N04
	.byte	W08
	.byte		        An1 , v112
	.byte	W04
	.byte		        An1 , v020
	.byte	W20
	.byte		        An1 , v112
	.byte	W04
	.byte		N03   , An1 , v008
	.byte	W04
	.byte		        An1 , v020
	.byte	W04
	.byte		        An1 , v008
	.byte	W04
	.byte		        An1 , v028
	.byte	W04
	.byte		        An1 , v036
	.byte	W04
	.byte		N04   , An1 , v112
	.byte	W16
	.byte		        An1 , v036
	.byte	W04
	.byte		        An1 , v020
	.byte	W04
	.byte		        An1 , v100
	.byte	W16
	.byte		        An1 , v036
	.byte	W04
	.byte		        An1 , v020
	.byte	W04
	.byte		        An1 , v100
	.byte	W24
	.byte		        An1 , v112
	.byte	W04
	.byte		N03   , An1 , v008
	.byte	W04
	.byte		        An1 , v020
	.byte	W04
	.byte		        An1 , v008
	.byte	W04
	.byte		        An1 , v028
	.byte	W04
	.byte		        An1 , v036
	.byte	W04
	.byte		N04   , An1 , v096
	.byte	W16
	.byte		        An1 , v036
	.byte	W04
	.byte		        An1 , v020
	.byte	W04
	.byte		        An1 , v080
	.byte	W16
	.byte		N04
	.byte	W08
	.byte		        An1 , v092
	.byte	W04
	.byte		        An1 , v020
	.byte	W20
	.byte		        An1 , v092
	.byte	W04
	.byte		N03   , An1 , v008
	.byte	W04
	.byte		        An1 , v020
	.byte	W04
	.byte		        An1 , v008
	.byte	W04
	.byte		        An1 , v028
	.byte	W04
	.byte		        An1 , v036
	.byte	W04
	.byte		N04   , An1 , v096
	.byte	W16
	.byte		        An1 , v036
	.byte	W04
	.byte		        An1 , v020
	.byte	W04
	.byte		        An1 , v080
	.byte	W16
	.byte		        An1 , v036
	.byte	W04
	.byte		        An1 , v020
	.byte	W04
	.byte		        An1 , v080
	.byte	W48
	.byte	W96
	.byte	W96
	.byte		        An1 , v112
	.byte	W16
	.byte		        An1 , v036
	.byte	W04
	.byte		        An1 , v020
	.byte	W04
	.byte		        An1 , v112
	.byte	W16
	.byte		N04
	.byte	W24
	.byte		N04
	.byte	W08
	.byte		N04
	.byte	W16
	.byte		N04
	.byte	W08
	.byte		N04
	.byte	W16
	.byte		        An1 , v036
	.byte	W04
	.byte		        An1 , v020
	.byte	W04
	.byte		        An1 , v112
	.byte	W16
	.byte		N04
	.byte	W24
	.byte		N04
	.byte	W24
	.byte		N04
	.byte	W08
	.byte		N04
	.byte	W48
	.byte	FINE

@*********************** Track 12 ***********************@

seq_040_11:
	.byte	KEYSH , seq_040_key+0
	.byte	W24
	.byte		VOICE , 127
	.byte		VOL   , 88*seq_040_mvl/mxv
	.byte		PAN   , c_v+0
	.byte	W12
	.byte		N03   , Fs1 , v112
	.byte	W16
	.byte		N02   , Fs1 , v040
	.byte	W08
	.byte		N03   , Fs1 , v112
	.byte	W16
	.byte		N02   , Fs1 , v040
	.byte	W08
	.byte		N24   , Ds2 , v080
	.byte	W24
	.byte		N24
	.byte	W24
	.byte		N03   , Fs1 , v112
	.byte	W16
	.byte		N02   , Fs1 , v040
	.byte	W08
	.byte		N03   , Fs1 , v112
	.byte	W16
	.byte		N04   , Fs1 , v080
	.byte	W08
	.byte		N03   , Fs1 , v112
	.byte	W24
	.byte		N24   , En2 , v068
	.byte	W24
	.byte	PEND
	.byte		N03   , Fs1 , v112
	.byte	W16
	.byte		N02   , Fs1 , v040
	.byte	W08
	.byte		N03   , Fs1 , v112
	.byte	W16
	.byte		N04   , Fs1 , v080
	.byte	W08
	.byte		N24   , Ds2 
	.byte	W24
	.byte		N24
	.byte	W24
	.byte	PEND
	.byte		N03   , Fs1 , v112
	.byte	W16
	.byte		N02   , Fs1 , v040
	.byte	W08
	.byte		N03   , Fs1 , v112
	.byte	W16
	.byte		N04   , Fs1 , v080
	.byte	W08
	.byte		N24   , Ds2 
	.byte	W48
	.byte	W96
	.byte	W96
	.byte	PATT
	 .word	seq_040_11 + 0x39
	.byte	PATT
	 .word	seq_040_11 + 0x20
	.byte		N24   , Ds2 , v060
	.byte	W48
	.byte	FINE

@******************************************************@

	.align	2

seq_040:
	.byte	12	@ NumTrks
	.byte	0	@ NumBlks
	.byte	seq_040_pri	@ Priority
	.byte	seq_040_rev	@ Reverb

	.word	seq_040_grp

	.word	seq_040_0
	.word	seq_040_1
	.word	seq_040_2
	.word	seq_040_3
	.word	seq_040_4
	.word	seq_040_5
	.word	seq_040_6
	.word	seq_040_7
	.word	seq_040_8
	.word	seq_040_9
	.word	seq_040_10
	.word	seq_040_11

	.end
