@ File generated by m4a2s Song-Module
	.include "MPlayDef.s"

	.equ	seq_489_grp, bank_026
	.equ	seq_489_pri, 127
	.equ	seq_489_rev, 0
	.equ	seq_489_mvl, 127
	.equ	seq_489_key, 0

	.section .rodata
	.global	seq_489
	.align	2

@*********************** Track 01 ***********************@

seq_489_0:
	.byte	KEYSH , seq_489_key+0
	.byte	TEMPO , 84/2
	.byte		VOICE , 4
	.byte		VOL   , 118*seq_489_mvl/mxv
	.byte		LFOS  , 55
	.byte		PAN   , c_v+0
	.byte		MODT  , mod_tre
	.byte	W01
	.byte		BENDR , 20
	.byte		BEND  , c_v+7
	.byte	W01
	.byte		MOD   , 50
	.byte		N02   , En3 , v080
	.byte	W01
	.byte		BEND  , c_v+23
	.byte	W01
	.byte		N02   , Fs3 , v080
	.byte	W01
	.byte		BEND  , c_v+46
	.byte	W01
	.byte		N02   , Dn4 
	.byte	W01
	.byte		BEND  , c_v+63
	.byte	W01
	.byte		N02   , Cs3 
	.byte	W02
	.byte		        En3 
	.byte	W01
	.byte		BEND  , c_v+15
	.byte	W01
	.byte		N05   , Gs3 
	.byte	W03
	.byte	PEND
	.byte	W10
	.byte		BEND  , c_v+7
	.byte	W01
	.byte		N02   , En3 
	.byte	W01
	.byte	PATT
	 .word	seq_489_0 + 0x1A
	.byte	W03
	.byte	TEMPO , 114/2
	.byte	W07
	.byte		BEND  , c_v+7
	.byte	W01
	.byte		N02   , Cn4 , v080
	.byte	W01
	.byte		BEND  , c_v+23
	.byte	W01
	.byte		N02   , En4 
	.byte	W01
	.byte		BEND  , c_v+46
	.byte	W01
	.byte	TEMPO , 130/2
	.byte		N02   , Gn3 
	.byte	W01
	.byte		BEND  , c_v+63
	.byte	W01
	.byte		N02   , Bn3 
	.byte	W02
	.byte		        Ds3 
	.byte	W01
	.byte		BEND  , c_v+15
	.byte	W01
	.byte		N02   , An3 
	.byte	W02
	.byte		N04   , Dn4 
	.byte	W01
	.byte	W09
	.byte		N02   , Fn3 
	.byte	W01
	.byte		BEND  , c_v+7
	.byte	W01
	.byte		N02   , An3 
	.byte	W01
	.byte		BEND  , c_v+23
	.byte	W01
	.byte		N02   , Dn4 
	.byte	W01
	.byte		BEND  , c_v+46
	.byte	W01
	.byte		N02   , En3 
	.byte	W01
	.byte		BEND  , c_v+63
	.byte	W01
	.byte		N02   , Gs3 
	.byte	W02
	.byte		        Cs3 
	.byte	W01
	.byte		BEND  , c_v+15
	.byte	W01
	.byte		N05   , As3 
	.byte	W03
	.byte	W09
	.byte	TEMPO , 84/2
	.byte	W01
	.byte		VOL   , 62*seq_489_mvl/mxv
	.byte	W01
	.byte		N02   , En3 , v120
	.byte	W01
	.byte	W01
	.byte		        As3 , v112
	.byte	W01
	.byte		VOL   , 58*seq_489_mvl/mxv
	.byte	W01
	.byte		N02   , Cs3 , v104
	.byte	W01
	.byte		VOL   , 56*seq_489_mvl/mxv
	.byte	W01
	.byte		N02   , Gs3 , v096
	.byte	W01
	.byte		VOL   , 54*seq_489_mvl/mxv
	.byte	W01
	.byte		MOD   , 0
	.byte		N02   , Ds3 , v088
	.byte	W01
	.byte		VOL   , 51*seq_489_mvl/mxv
	.byte	W01
	.byte		N02   , Bn3 , v080
	.byte	W01
	.byte		VOL   , 49*seq_489_mvl/mxv
	.byte	W01
	.byte		N02   , En3 , v072
	.byte	W01
	.byte		VOL   , 47*seq_489_mvl/mxv
	.byte	W01
	.byte		N02   , As3 , v064
	.byte	W01
	.byte		VOL   , 44*seq_489_mvl/mxv
	.byte	W01
	.byte		N02   , Cs3 , v056
	.byte	W01
	.byte		VOL   , 42*seq_489_mvl/mxv
	.byte	W01
	.byte		N02   , Gs3 , v048
	.byte	W01
	.byte		VOL   , 40*seq_489_mvl/mxv
	.byte	W01
	.byte		N02   , Ds3 , v044
	.byte	W02
	.byte		        Bn3 
	.byte	W02
	.byte		        En3 , v048
	.byte	W01
	.byte	W01
	.byte		        As3 
	.byte	W02
	.byte		        Cs3 
	.byte	W01
	.byte		VOL   , 28*seq_489_mvl/mxv
	.byte	W01
	.byte		N02   , Gs3 , v052
	.byte	W01
	.byte		VOL   , 26*seq_489_mvl/mxv
	.byte	W01
	.byte		N02   , Ds3 
	.byte	W02
	.byte		VOL   , 22*seq_489_mvl/mxv
	.byte		N02   , Bn3 
	.byte	W02
	.byte		VOL   , 20*seq_489_mvl/mxv
	.byte		N02   , En3 , v056
	.byte	W01
	.byte	W01
	.byte		VOL   , 17*seq_489_mvl/mxv
	.byte		N02   , As3 
	.byte	W02
	.byte		VOL   , 18*seq_489_mvl/mxv
	.byte		N02   , Cs3 
	.byte	W02
	.byte		        Gs3 , v060
	.byte	W01
	.byte		VOL   , 23*seq_489_mvl/mxv
	.byte	W01
	.byte		N02   , Ds3 
	.byte	W01
	.byte		VOL   , 26*seq_489_mvl/mxv
	.byte	W01
	.byte		MODT  , mod_pan
	.byte		N02   , Bn3 , v064
	.byte	W01
	.byte		VOL   , 29*seq_489_mvl/mxv
	.byte	W01
	.byte		N02   , En3 , v068
	.byte	W01
	.byte		VOL   , 32*seq_489_mvl/mxv
	.byte	W01
	.byte		N02   , As3 , v072
	.byte	W02
	.byte		VOL   , 36*seq_489_mvl/mxv
	.byte		N02   , Cs3 , v076
	.byte	W02
	.byte		VOL   , 39*seq_489_mvl/mxv
	.byte		N02   , Gs3 , v080
	.byte	W01
	.byte		MOD   , 6
	.byte	W01
	.byte		VOL   , 42*seq_489_mvl/mxv
	.byte		N02   , Ds3 , v084
	.byte	W02
	.byte		        Bn3 , v088
	.byte	W02
	.byte		MOD   , 10
	.byte		VOL   , 48*seq_489_mvl/mxv
	.byte		N02   , En3 , v092
	.byte	W01
	.byte	W01
	.byte		        As3 , v100
	.byte	W01
	.byte		VOL   , 53*seq_489_mvl/mxv
	.byte	W01
	.byte		N02   , Cs3 , v104
	.byte	W01
	.byte		VOL   , 56*seq_489_mvl/mxv
	.byte	W01
	.byte		N02   , Gs3 , v108
	.byte	W02
	.byte		MOD   , 20
	.byte		VOL   , 60*seq_489_mvl/mxv
	.byte		N02   , Ds3 , v112
	.byte	W02
	.byte		VOL   , 62*seq_489_mvl/mxv
	.byte		BEND  , c_v+11
	.byte		N02   , Bn3 , v116
	.byte	W02
	.byte		VOL   , 65*seq_489_mvl/mxv
	.byte		N02   , En3 , v120
	.byte	W01
	.byte		MOD   , 26
	.byte	W01
	.byte		        32
	.byte		VOL   , 68*seq_489_mvl/mxv
	.byte		BEND  , c_v+4
	.byte		N02   , Fs3 
	.byte	W01
	.byte		VOL   , 70*seq_489_mvl/mxv
	.byte	W01
	.byte		N02   , Dn4 
	.byte	W01
	.byte		VOL   , 73*seq_489_mvl/mxv
	.byte		BEND  , c_v+5
	.byte	W01
	.byte		MOD   , 37
	.byte		N02   , Cs3 
	.byte	W01
	.byte		VOL   , 76*seq_489_mvl/mxv
	.byte	W01
	.byte		BEND  , c_v+7
	.byte		N02   , En3 
	.byte	W01
	.byte		VOL   , 79*seq_489_mvl/mxv
	.byte	W01
	.byte		N02   , Gs3 
	.byte	W01
	.byte		MOD   , 44
	.byte		N02   , En4 
	.byte	W01
	.byte		VOL   , 83*seq_489_mvl/mxv
	.byte		BEND  , c_v+9
	.byte	W01
	.byte		N02   , Bn3 
	.byte	W01
	.byte		VOL   , 87*seq_489_mvl/mxv
	.byte	W01
	.byte		BEND  , c_v+11
	.byte		N02   , Fs4 
	.byte	W01
	.byte		MOD   , 51
	.byte	W01
	.byte		VOL   , 89*seq_489_mvl/mxv
	.byte		N02   , Ds4 
	.byte	W01
	.byte		BEND  , c_v+13
	.byte	W01
	.byte		VOL   , 97*seq_489_mvl/mxv
	.byte		N02   , Gs4 
	.byte	W02
	.byte		VOL   , 104*seq_489_mvl/mxv
	.byte		BEND  , c_v+16
	.byte		N02   , En4 
	.byte	W02
	.byte		        Fs4 
	.byte	W01
	.byte		VOL   , 110*seq_489_mvl/mxv
	.byte	W01
	.byte		N02   , As4 
	.byte	W01
	.byte		VOL   , 116*seq_489_mvl/mxv
	.byte	W01
	.byte		N02   , Gs4 
	.byte	W02
	.byte		        Fn4 
	.byte	W02
	.byte		        Gs4 
	.byte	W03
	.byte		VOICE , 5
	.byte	W01
	.byte		N07   , Ds3 
	.byte	W01
	.byte		BEND  , c_v-16
	.byte	W01
	.byte		        c_v-28
	.byte	W01
	.byte		        c_v-16
	.byte	W01
	.byte		        c_v-8
	.byte	W01
	.byte		        c_v+0
	.byte	W02
	.byte		N07   , Ds3 , v076
	.byte	W07
	.byte		N14   , Ds3 , v020
	.byte	W12
	.byte	W02
	.byte	FINE

@******************************************************@

	.align	2

seq_489:
	.byte	1	@ NumTrks
	.byte	0	@ NumBlks
	.byte	seq_489_pri	@ Priority
	.byte	seq_489_rev	@ Reverb

	.word	seq_489_grp

	.word	seq_489_0

	.end
