@ File generated by m4a2s Song-Module
	.include "MPlayDef.s"

	.equ	seq_006_grp, bank_000
	.equ	seq_006_pri, 50
	.equ	seq_006_rev, 198
	.equ	seq_006_mvl, 127
	.equ	seq_006_key, 0

	.section .rodata
	.global	seq_006
	.align	2

@*********************** Track 01 ***********************@

seq_006_0:
	.byte	KEYSH , seq_006_key+0
	.byte	TEMPO , 84/2
	.byte		VOICE , 5
	.byte		VOL   , 95*seq_006_mvl/mxv
	.byte		PAN   , c_v+0
	.byte	W01
	.byte		MODT  , mod_pan
	.byte	W32
	.byte	W03
	.byte	W96
	.byte	W96
	.byte	W96
	.byte	W96
	.byte	W96
	.byte	W96
	.byte		MOD   , 80
	.byte	W84
	.byte		N06   , Gn3 , v100
	.byte	W12
	.byte		N06   , An3 , v052
	.byte	W12
	.byte		N12   , Dn4 , v112
	.byte	W12
	.byte		N06   , Gn3 , v100
	.byte	W12
	.byte		        An3 , v052
	.byte	W12
	.byte		N12   , Dn4 , v112
	.byte	W12
	.byte		N06   , En4 , v052
	.byte	W12
	.byte		N12   , Dn4 , v112
	.byte	W12
	.byte		N06   , Cn4 , v052
	.byte	W12
	.byte	PEND
	.byte		N12   , Dn4 , v112
	.byte	W12
	.byte		N06   , An3 , v032
	.byte	W12
	.byte		        Bn3 , v052
	.byte	W12
	.byte		N12   , Dn4 , v112
	.byte	W12
	.byte		N06   , Gn3 , v032
	.byte	W12
	.byte		        An3 , v052
	.byte	W12
	.byte		N12   , Dn4 , v112
	.byte	W12
	.byte		N06   , Gn3 , v032
	.byte	W12
	.byte	PEND
	.byte		N06   , An3 , v052
	.byte	W12
	.byte		N12   , Dn4 , v112
	.byte	W12
	.byte		N06   , Gn3 , v032
	.byte	W12
	.byte		        An3 , v052
	.byte	W12
	.byte		N12   , Dn4 , v112
	.byte	W12
	.byte		N06   , En4 , v052
	.byte	W12
	.byte		N12   , Dn4 , v112
	.byte	W12
	.byte		N06   , Cn4 , v052
	.byte	W12
	.byte	PEND
	.byte	PATT
	 .word	seq_006_0 + 0x3C
	.byte	PATT
	 .word	seq_006_0 + 0x5B
	.byte		N12   , Dn4 , v112
	.byte	W12
	.byte		N06   , Bn3 , v032
	.byte	W12
	.byte		        Cn4 , v052
	.byte	W12
	.byte		N12   , Dn4 , v112
	.byte	W12
	.byte		N06   , Gn3 , v032
	.byte	W12
	.byte		        An3 , v052
	.byte	W12
	.byte		N12   , Dn4 , v112
	.byte	W12
	.byte		N06   , Gn3 , v032
	.byte	W12
	.byte	PATT
	 .word	seq_006_0 + 0x5B
	.byte	PATT
	 .word	seq_006_0 + 0x3C
	.byte	PATT
	 .word	seq_006_0 + 0x5B
	.byte	W96
	.byte	W96
	.byte	W96
	.byte	W96
	.byte	W96
	.byte	W96
	.byte	W96
	.byte	W96
	.byte	W96
	.byte	W96
	.byte	W96
	.byte	W96
	.byte	W96
	.byte	W96
	.byte	W84
	.byte		N06   , Gn3 , v100
	.byte	W12
	.byte	PATT
	 .word	seq_006_0 + 0x1C
	.byte	GOTO
	 .word	seq_006_0 + 0x3C
	.byte	FINE

@*********************** Track 02 ***********************@

seq_006_1:
	.byte	KEYSH , seq_006_key+0
	.byte	W01
	.byte		VOICE , 14
	.byte		VOL   , 86*seq_006_mvl/mxv
	.byte	W01
	.byte		PAN   , c_v+0
	.byte	W32
	.byte	W02
	.byte	W96
	.byte	W96
	.byte	W96
	.byte	W96
	.byte	W96
	.byte	W96
	.byte	W96
	.byte	W96
	.byte	W96
	.byte	W96
	.byte	W96
	.byte	W96
	.byte	W96
	.byte	W96
	.byte	W96
	.byte	W96
	.byte	W44
	.byte	W03
	.byte		PAN   , c_v+30
	.byte	W01
	.byte		N08   , En3 , v100
	.byte	W44
	.byte	W03
	.byte		PAN   , c_v-30
	.byte	W01
	.byte		N08   , Bn3 
	.byte	W44
	.byte	W03
	.byte		PAN   , c_v+30
	.byte	W01
	.byte		N08   , Gn3 
	.byte	W48
	.byte	W44
	.byte	W03
	.byte		PAN   , c_v-30
	.byte	W01
	.byte		N08   , En3 , v100
	.byte	W44
	.byte	W03
	.byte		PAN   , c_v+30
	.byte	W01
	.byte	PEND
	.byte		N08   , Bn3 , v100
	.byte	W44
	.byte	W03
	.byte		PAN   , c_v-30
	.byte	W01
	.byte		N08   , Gn3 
	.byte	W48
	.byte	PEND
	.byte	W44
	.byte	W03
	.byte		PAN   , c_v+30
	.byte	W01
	.byte		N08   , Fn3 
	.byte	W44
	.byte	W03
	.byte		PAN   , c_v-30
	.byte	W01
	.byte		N08   , Cn4 
	.byte	W44
	.byte	W03
	.byte		PAN   , c_v+30
	.byte	W01
	.byte		N08   , Gn3 
	.byte	W48
	.byte	PATT
	 .word	seq_006_1 + 0x33
	.byte	PATT
	 .word	seq_006_1 + 0x41
	.byte	W96
	.byte	W96
	.byte	W96
	.byte	W96
	.byte	W96
	.byte	W96
	.byte	W96
	.byte	W96
	.byte	GOTO
	 .word	seq_006_1 + 0x14
	.byte	FINE

@*********************** Track 03 ***********************@

seq_006_2:
	.byte	KEYSH , seq_006_key+0
	.byte	W02
	.byte		VOICE , 5
	.byte		VOL   , 103*seq_006_mvl/mxv
	.byte	W01
	.byte		PAN   , c_v+0
	.byte	W32
	.byte		        c_v+0
	.byte	W01
	.byte		N04   , En3 , v080
	.byte	W11
	.byte		PAN   , c_v-63
	.byte	W01
	.byte		N04   , Fs1 , v112
	.byte	W11
	.byte		PAN   , c_v+63
	.byte	W01
	.byte		N04   , An2 
	.byte	W11
	.byte		PAN   , c_v-63
	.byte	W01
	.byte		N04   , An3 , v080
	.byte	W11
	.byte		PAN   , c_v+63
	.byte	W01
	.byte		N04   , Dn3 
	.byte	W11
	.byte		PAN   , c_v-63
	.byte	W01
	.byte		N04   , Fs1 , v112
	.byte	W11
	.byte		PAN   , c_v+63
	.byte	W01
	.byte		N04   , An2 
	.byte	W11
	.byte		PAN   , c_v-63
	.byte	W01
	.byte		N04   , Dn3 , v080
	.byte	W11
	.byte		PAN   , c_v+0
	.byte	W01
	.byte	PEND
	.byte	PATT
	 .word	seq_006_2 + 0xD
	.byte	PATT
	 .word	seq_006_2 + 0xD
	.byte	PATT
	 .word	seq_006_2 + 0xD
	.byte		N04   , Fn3 , v080
	.byte	W11
	.byte		PAN   , c_v-63
	.byte	W01
	.byte		N04   , Fs1 , v112
	.byte	W11
	.byte		PAN   , c_v+63
	.byte	W01
	.byte		N04   , An2 
	.byte	W11
	.byte		PAN   , c_v-63
	.byte	W01
	.byte		N04   , An3 , v080
	.byte	W11
	.byte		PAN   , c_v+63
	.byte	W01
	.byte		N04   , Dn3 
	.byte	W11
	.byte		PAN   , c_v-63
	.byte	W01
	.byte		N04   , Fs1 , v112
	.byte	W11
	.byte		PAN   , c_v+63
	.byte	W01
	.byte		N04   , An2 
	.byte	W11
	.byte		PAN   , c_v-63
	.byte	W01
	.byte		N04   , Dn3 , v080
	.byte	W11
	.byte		PAN   , c_v+0
	.byte	W01
	.byte	PEND
	.byte	PATT
	 .word	seq_006_2 + 0x52
	.byte	PATT
	 .word	seq_006_2 + 0xD
	.byte	PATT
	 .word	seq_006_2 + 0xD
	.byte	PATT
	 .word	seq_006_2 + 0xD
	.byte	PATT
	 .word	seq_006_2 + 0xD
	.byte	PATT
	 .word	seq_006_2 + 0xD
	.byte	PATT
	 .word	seq_006_2 + 0xD
	.byte	PATT
	 .word	seq_006_2 + 0x52
	.byte	PATT
	 .word	seq_006_2 + 0x52
	.byte	PATT
	 .word	seq_006_2 + 0xD
	.byte	PATT
	 .word	seq_006_2 + 0xD
	.byte	PATT
	 .word	seq_006_2 + 0xD
	.byte	PATT
	 .word	seq_006_2 + 0xD
	.byte	PATT
	 .word	seq_006_2 + 0xD
	.byte	PATT
	 .word	seq_006_2 + 0xD
	.byte	PATT
	 .word	seq_006_2 + 0x52
	.byte	PATT
	 .word	seq_006_2 + 0x52
	.byte	PATT
	 .word	seq_006_2 + 0xD
	.byte	PATT
	 .word	seq_006_2 + 0xD
	.byte	PATT
	 .word	seq_006_2 + 0xD
	.byte	PATT
	 .word	seq_006_2 + 0xD
	.byte	PATT
	 .word	seq_006_2 + 0xD
	.byte	PATT
	 .word	seq_006_2 + 0xD
	.byte	PATT
	 .word	seq_006_2 + 0x52
	.byte	PATT
	 .word	seq_006_2 + 0x52
	.byte	PATT
	 .word	seq_006_2 + 0xD
	.byte		N04   , En3 , v080
	.byte	W11
	.byte		PAN   , c_v-63
	.byte	W01
	.byte		N04   , Fs1 , v112
	.byte	W11
	.byte		PAN   , c_v+63
	.byte	W01
	.byte		N04   , An2 
	.byte	W11
	.byte		PAN   , c_v-63
	.byte	W01
	.byte		N04   , An3 , v080
	.byte	W11
	.byte		PAN   , c_v+63
	.byte	W01
	.byte		N04   , Dn3 
	.byte	W11
	.byte		PAN   , c_v-63
	.byte	W01
	.byte		N04   , Fs1 , v112
	.byte	W11
	.byte		PAN   , c_v+63
	.byte	W01
	.byte		N04   , An2 
	.byte	W11
	.byte		PAN   , c_v-63
	.byte	W01
	.byte		N04   , Dn3 , v080
	.byte	W12
	.byte	GOTO
	 .word	seq_006_2 + 0x97
	.byte	FINE

@*********************** Track 04 ***********************@

seq_006_3:
	.byte	KEYSH , seq_006_key+0
	.byte	W04
	.byte		VOICE , 21
	.byte		VOL   , 69*seq_006_mvl/mxv
	.byte		PAN   , c_v-30
	.byte	W01
	.byte		BENDR , 2
	.byte		MODT  , mod_tre
	.byte	W30
	.byte	W01
	.byte	W96
	.byte	W96
	.byte	W96
	.byte	W96
	.byte	W96
	.byte	W96
	.byte	W96
	.byte	W96
	.byte	W96
	.byte	W96
	.byte	W96
	.byte	W96
	.byte	W96
	.byte	W96
	.byte	W96
	.byte		MOD   , 20
	.byte	W68
	.byte	W03
	.byte		BEND  , c_v-64
	.byte	W01
	.byte		TIE   , En2 , v080
	.byte	W09
	.byte		BEND  , c_v-63
	.byte	W03
	.byte		        c_v-60
	.byte	W01
	.byte		        c_v-59
	.byte	W02
	.byte		        c_v-58
	.byte	W01
	.byte		        c_v-57
	.byte	W01
	.byte		        c_v-56
	.byte	W01
	.byte		        c_v-55
	.byte	W01
	.byte		        c_v-54
	.byte	W01
	.byte		        c_v-53
	.byte	W01
	.byte		        c_v-52
	.byte	W01
	.byte		        c_v-46
	.byte	W01
	.byte		        c_v-40
	.byte	W01
	.byte		BEND  , c_v-33
	.byte	W01
	.byte		        c_v-27
	.byte	W01
	.byte		        c_v-20
	.byte	W01
	.byte		        c_v-14
	.byte	W01
	.byte		        c_v-7
	.byte	W01
	.byte		        c_v+0
	.byte	W90
	.byte	W01
	.byte	PEND
	.byte	W36
	.byte	W01
	.byte		VOL   , 64*seq_006_mvl/mxv
	.byte	W04
	.byte		        61*seq_006_mvl/mxv
	.byte	W03
	.byte		        58*seq_006_mvl/mxv
	.byte	W02
	.byte		        57*seq_006_mvl/mxv
	.byte	W02
	.byte		        53*seq_006_mvl/mxv
	.byte	W01
	.byte		        51*seq_006_mvl/mxv
	.byte	W01
	.byte		        49*seq_006_mvl/mxv
	.byte	W01
	.byte		        47*seq_006_mvl/mxv
	.byte	W01
	.byte		        42*seq_006_mvl/mxv
	.byte	W01
	.byte		        33*seq_006_mvl/mxv
	.byte	W01
	.byte		        24*seq_006_mvl/mxv
	.byte	W01
	.byte		        15*seq_006_mvl/mxv
	.byte	W01
	.byte		        6*seq_006_mvl/mxv
	.byte	W04
	.byte	PEND
	.byte		EOT   , En2 
	.byte	W11
	.byte		VOL   , 69*seq_006_mvl/mxv
	.byte		BEND  , c_v-64
	.byte	W01
	.byte		TIE   , En2 , v080
	.byte	W09
	.byte		BEND  , c_v-63
	.byte	W03
	.byte		        c_v-60
	.byte	W01
	.byte		        c_v-59
	.byte	W02
	.byte		        c_v-58
	.byte	W01
	.byte		        c_v-57
	.byte	W01
	.byte		        c_v-56
	.byte	W01
	.byte		        c_v-55
	.byte	W01
	.byte		        c_v-54
	.byte	W01
	.byte		        c_v-53
	.byte	W01
	.byte		        c_v-52
	.byte	W01
	.byte		        c_v-46
	.byte	W01
	.byte		        c_v-40
	.byte	W01
	.byte	PATT
	 .word	seq_006_3 + 0x43
	.byte	PATT
	 .word	seq_006_3 + 0x52
	.byte		EOT   , En2 
	.byte	W11
	.byte		VOL   , 69*seq_006_mvl/mxv
	.byte		BEND  , c_v-32
	.byte	W01
	.byte		TIE   , Fn2 , v080
	.byte	W23
	.byte		BEND  , c_v-30
	.byte	W01
	.byte		        c_v-31
	.byte	W01
	.byte		        c_v-30
	.byte	W01
	.byte		        c_v-29
	.byte	W01
	.byte		        c_v-28
	.byte	W01
	.byte		        c_v-9
	.byte	W01
	.byte		        c_v+0
	.byte	W90
	.byte	W01
	.byte	PATT
	 .word	seq_006_3 + 0x52
	.byte		EOT   , Fn2 
	.byte	W11
	.byte		VOL   , 69*seq_006_mvl/mxv
	.byte		BEND  , c_v-64
	.byte	W01
	.byte		TIE   , En2 , v080
	.byte	W09
	.byte		BEND  , c_v-63
	.byte	W03
	.byte		        c_v-60
	.byte	W01
	.byte		        c_v-59
	.byte	W02
	.byte		        c_v-58
	.byte	W01
	.byte		        c_v-57
	.byte	W01
	.byte		        c_v-56
	.byte	W01
	.byte		        c_v-55
	.byte	W01
	.byte		        c_v-54
	.byte	W01
	.byte		        c_v-53
	.byte	W01
	.byte		        c_v-52
	.byte	W01
	.byte		        c_v-46
	.byte	W01
	.byte		        c_v-40
	.byte	W01
	.byte	PATT
	 .word	seq_006_3 + 0x43
	.byte	PATT
	 .word	seq_006_3 + 0x52
	.byte		EOT   , En2 
	.byte	W11
	.byte		VOL   , 69*seq_006_mvl/mxv
	.byte	W24
	.byte	W01
	.byte	W96
	.byte	W96
	.byte	W96
	.byte	W96
	.byte	W96
	.byte	W96
	.byte	W96
	.byte	W96
	.byte	GOTO
	 .word	seq_006_3 + 0x18
	.byte	FINE

@*********************** Track 05 ***********************@

seq_006_4:
	.byte	KEYSH , seq_006_key+0
	.byte	W05
	.byte		VOICE , 21
	.byte	W01
	.byte		VOL   , 69*seq_006_mvl/mxv
	.byte		PAN   , c_v+30
	.byte		BENDR , 2
	.byte	W01
	.byte		MODT  , mod_tre
	.byte	W28
	.byte	W01
	.byte	W96
	.byte	W96
	.byte	W96
	.byte	W96
	.byte	W96
	.byte	W96
	.byte	W96
	.byte	W96
	.byte	W96
	.byte	W96
	.byte	W96
	.byte	W96
	.byte	W96
	.byte	W96
	.byte	W96
	.byte		MOD   , 35
	.byte	W68
	.byte	W03
	.byte		BEND  , c_v-64
	.byte	W01
	.byte		TIE   , Bn1 , v080
	.byte	W09
	.byte		BEND  , c_v-63
	.byte	W03
	.byte		        c_v-60
	.byte	W01
	.byte		        c_v-59
	.byte	W02
	.byte		        c_v-58
	.byte	W01
	.byte		        c_v-57
	.byte	W01
	.byte		        c_v-56
	.byte	W01
	.byte		        c_v-55
	.byte	W01
	.byte		        c_v-54
	.byte	W01
	.byte		        c_v-53
	.byte	W01
	.byte		        c_v-52
	.byte	W01
	.byte		        c_v-46
	.byte	W01
	.byte		        c_v-40
	.byte	W01
	.byte		BEND  , c_v-33
	.byte	W01
	.byte		        c_v-27
	.byte	W01
	.byte		        c_v-20
	.byte	W01
	.byte		        c_v-14
	.byte	W01
	.byte		        c_v-7
	.byte	W01
	.byte		        c_v+0
	.byte	W90
	.byte	W01
	.byte	PEND
	.byte	W36
	.byte	W01
	.byte		VOL   , 64*seq_006_mvl/mxv
	.byte	W04
	.byte		        61*seq_006_mvl/mxv
	.byte	W03
	.byte		        58*seq_006_mvl/mxv
	.byte	W02
	.byte		        57*seq_006_mvl/mxv
	.byte	W02
	.byte		        53*seq_006_mvl/mxv
	.byte	W01
	.byte		        51*seq_006_mvl/mxv
	.byte	W01
	.byte		        49*seq_006_mvl/mxv
	.byte	W01
	.byte		        47*seq_006_mvl/mxv
	.byte	W01
	.byte		        42*seq_006_mvl/mxv
	.byte	W01
	.byte		        33*seq_006_mvl/mxv
	.byte	W01
	.byte		        24*seq_006_mvl/mxv
	.byte	W01
	.byte		        15*seq_006_mvl/mxv
	.byte	W01
	.byte		        6*seq_006_mvl/mxv
	.byte	W04
	.byte	PEND
	.byte		EOT   , Bn1 
	.byte	W11
	.byte		VOL   , 69*seq_006_mvl/mxv
	.byte		BEND  , c_v-64
	.byte	W01
	.byte		TIE   , Bn1 , v080
	.byte	W09
	.byte		BEND  , c_v-63
	.byte	W03
	.byte		        c_v-60
	.byte	W01
	.byte		        c_v-59
	.byte	W02
	.byte		        c_v-58
	.byte	W01
	.byte		        c_v-57
	.byte	W01
	.byte		        c_v-56
	.byte	W01
	.byte		        c_v-55
	.byte	W01
	.byte		        c_v-54
	.byte	W01
	.byte		        c_v-53
	.byte	W01
	.byte		        c_v-52
	.byte	W01
	.byte		        c_v-46
	.byte	W01
	.byte		        c_v-40
	.byte	W01
	.byte	PATT
	 .word	seq_006_4 + 0x44
	.byte	PATT
	 .word	seq_006_4 + 0x53
	.byte		EOT   , Bn1 
	.byte	W11
	.byte		VOL   , 69*seq_006_mvl/mxv
	.byte		BEND  , c_v-32
	.byte	W01
	.byte		TIE   , Cn2 , v080
	.byte	W19
	.byte		BEND  , c_v-30
	.byte	W04
	.byte		        c_v-27
	.byte	W01
	.byte		        c_v-26
	.byte	W01
	.byte		        c_v-24
	.byte	W01
	.byte		        c_v-22
	.byte	W01
	.byte		        c_v-20
	.byte	W01
	.byte		        c_v-8
	.byte	W01
	.byte		        c_v+0
	.byte	W90
	.byte	W01
	.byte	PATT
	 .word	seq_006_4 + 0x53
	.byte		EOT   , Cn2 
	.byte	W11
	.byte		VOL   , 69*seq_006_mvl/mxv
	.byte		BEND  , c_v-64
	.byte	W01
	.byte		TIE   , Bn1 , v080
	.byte	W09
	.byte		BEND  , c_v-63
	.byte	W03
	.byte		        c_v-60
	.byte	W01
	.byte		        c_v-59
	.byte	W02
	.byte		        c_v-58
	.byte	W01
	.byte		        c_v-57
	.byte	W01
	.byte		        c_v-56
	.byte	W01
	.byte		        c_v-55
	.byte	W01
	.byte		        c_v-54
	.byte	W01
	.byte		        c_v-53
	.byte	W01
	.byte		        c_v-52
	.byte	W01
	.byte		        c_v-46
	.byte	W01
	.byte		        c_v-40
	.byte	W01
	.byte	PATT
	 .word	seq_006_4 + 0x44
	.byte	PATT
	 .word	seq_006_4 + 0x53
	.byte		EOT   , Bn1 
	.byte	W11
	.byte		VOL   , 69*seq_006_mvl/mxv
	.byte	W24
	.byte	W01
	.byte	W96
	.byte	W96
	.byte	W96
	.byte	W96
	.byte	W96
	.byte	W96
	.byte	W96
	.byte	W96
	.byte	GOTO
	 .word	seq_006_4 + 0x19
	.byte	FINE

@*********************** Track 06 ***********************@

seq_006_5:
	.byte	KEYSH , seq_006_key+0
	.byte	W07
	.byte		VOICE , 9
	.byte		VOL   , 82*seq_006_mvl/mxv
	.byte	W01
	.byte		PAN   , c_v+0
	.byte	W28
	.byte		N05   , En3 , v112
	.byte	W12
	.byte		        An3 
	.byte	W12
	.byte		        Bn3 , v076
	.byte	W12
	.byte		        En4 , v068
	.byte	W60
	.byte	PEND
	.byte	W84
	.byte		        Dn3 , v112
	.byte	W12
	.byte	PATT
	 .word	seq_006_5 + 0xB
	.byte	W84
	.byte		N05   , Cn3 , v112
	.byte	W12
	.byte		N05   , Fn3 , v112
	.byte	W12
	.byte		        Bn3 
	.byte	W12
	.byte		        Cn4 , v076
	.byte	W12
	.byte		        Gn4 , v068
	.byte	W60
	.byte	PEND
	.byte	W84
	.byte		        Dn3 , v112
	.byte	W12
	.byte	PATT
	 .word	seq_006_5 + 0xB
	.byte	W84
	.byte		N05   , Dn3 , v112
	.byte	W12
	.byte	PATT
	 .word	seq_006_5 + 0xB
	.byte	W84
	.byte		N05   , Dn3 , v112
	.byte	W12
	.byte	PATT
	 .word	seq_006_5 + 0xB
	.byte	W84
	.byte		N05   , Cn3 , v112
	.byte	W12
	.byte	PATT
	 .word	seq_006_5 + 0x26
	.byte	W84
	.byte		N05   , Dn3 , v112
	.byte	W12
	.byte	PATT
	 .word	seq_006_5 + 0xB
	.byte	W84
	.byte		N05   , Dn3 , v112
	.byte	W12
	.byte		N05   , En3 , v112
	.byte	W12
	.byte		        An3 
	.byte	W12
	.byte		        Bn3 
	.byte	W12
	.byte		        En4 
	.byte	W60
	.byte	PEND
	.byte	W84
	.byte		        Dn3 
	.byte	W12
	.byte	PATT
	 .word	seq_006_5 + 0x69
	.byte	W84
	.byte		N05   , Cn3 , v112
	.byte	W12
	.byte		        Fn3 
	.byte	W12
	.byte		        Bn3 
	.byte	W12
	.byte		        Cn4 
	.byte	W12
	.byte		        Gn4 
	.byte	W60
	.byte	W84
	.byte		        Dn3 
	.byte	W12
	.byte	PATT
	 .word	seq_006_5 + 0x69
	.byte	W84
	.byte		N05   , Dn3 , v112
	.byte	W12
	.byte	PATT
	 .word	seq_006_5 + 0xB
	.byte	W84
	.byte		N05   , Dn3 , v112
	.byte	W12
	.byte	PATT
	 .word	seq_006_5 + 0xB
	.byte	W84
	.byte		N05   , Cn3 , v112
	.byte	W12
	.byte	PATT
	 .word	seq_006_5 + 0x26
	.byte	W84
	.byte		N05   , Dn3 , v112
	.byte	W12
	.byte	PATT
	 .word	seq_006_5 + 0xB
	.byte	W84
	.byte		N05   , Dn3 , v112
	.byte	W12
	.byte	GOTO
	 .word	seq_006_5 + 0x41
	.byte	FINE

@*********************** Track 07 ***********************@

seq_006_6:
	.byte	KEYSH , seq_006_key+0
	.byte	W09
	.byte		VOICE , 46
	.byte		VOL   , 110*seq_006_mvl/mxv
	.byte	W01
	.byte		PAN   , c_v+0
	.byte	W14
	.byte		N07   , Dn2 , v120
	.byte	W12
	.byte		N09   , En2 , v120
	.byte	W12
	.byte		        En3 , v072
	.byte	W12
	.byte		        En3 , v016
	.byte	W12
	.byte		        En3 , v056
	.byte	W12
	.byte		        En3 , v016
	.byte	W12
	.byte		        En3 , v044
	.byte	W12
	.byte		        En3 , v012
	.byte	W12
	.byte		        En3 , v044
	.byte	W12
	.byte	PEND
	.byte	PATT
	 .word	seq_006_6 + 0xF
	.byte	PATT
	 .word	seq_006_6 + 0xF
	.byte	PATT
	 .word	seq_006_6 + 0xF
	.byte		N09   , Fn2 , v120
	.byte	W12
	.byte		        Fn3 , v072
	.byte	W12
	.byte		        Fn3 , v016
	.byte	W12
	.byte		        Fn3 , v056
	.byte	W12
	.byte		        Fn3 , v016
	.byte	W12
	.byte		        Fn3 , v044
	.byte	W12
	.byte		        Fn3 , v012
	.byte	W12
	.byte		        Fn3 , v044
	.byte	W12
	.byte	PEND
	.byte	PATT
	 .word	seq_006_6 + 0x38
	.byte	PATT
	 .word	seq_006_6 + 0xF
	.byte	PATT
	 .word	seq_006_6 + 0xF
	.byte	PATT
	 .word	seq_006_6 + 0xF
	.byte	PATT
	 .word	seq_006_6 + 0xF
	.byte	PATT
	 .word	seq_006_6 + 0xF
	.byte	PATT
	 .word	seq_006_6 + 0xF
	.byte	PATT
	 .word	seq_006_6 + 0x38
	.byte	PATT
	 .word	seq_006_6 + 0x38
	.byte	PATT
	 .word	seq_006_6 + 0xF
	.byte	PATT
	 .word	seq_006_6 + 0xF
	.byte	PATT
	 .word	seq_006_6 + 0xF
	.byte	PATT
	 .word	seq_006_6 + 0xF
	.byte	PATT
	 .word	seq_006_6 + 0xF
	.byte	PATT
	 .word	seq_006_6 + 0xF
	.byte	PATT
	 .word	seq_006_6 + 0x38
	.byte	PATT
	 .word	seq_006_6 + 0x38
	.byte	PATT
	 .word	seq_006_6 + 0xF
	.byte	PATT
	 .word	seq_006_6 + 0xF
	.byte	PATT
	 .word	seq_006_6 + 0xF
	.byte	PATT
	 .word	seq_006_6 + 0xF
	.byte	PATT
	 .word	seq_006_6 + 0xF
	.byte	PATT
	 .word	seq_006_6 + 0xF
	.byte	PATT
	 .word	seq_006_6 + 0x38
	.byte	PATT
	 .word	seq_006_6 + 0x38
	.byte	PATT
	 .word	seq_006_6 + 0xF
	.byte	PATT
	 .word	seq_006_6 + 0xF
	.byte	GOTO
	 .word	seq_006_6 + 0x61
	.byte	FINE

@*********************** Track 08 ***********************@

seq_006_7:
	.byte	KEYSH , seq_006_key+0
	.byte	W10
	.byte		VOICE , 127
	.byte		VOL   , 69*seq_006_mvl/mxv
	.byte	W01
	.byte		PAN   , c_v+0
	.byte	W24
	.byte	W01
	.byte	W96
	.byte	W96
	.byte	W96
	.byte	W96
	.byte	W96
	.byte	W96
	.byte	W96
	.byte		VOL   , 69*seq_006_mvl/mxv
	.byte	W12
	.byte		N02   , Fs1 , v088
	.byte	W06
	.byte		        Fs1 , v016
	.byte	W06
	.byte		N12   , En2 , v052
	.byte	W12
	.byte		N02   , Fs1 , v088
	.byte	W06
	.byte		        Fs1 , v016
	.byte	W06
	.byte		N12   , En2 , v052
	.byte	W12
	.byte		N02   , Fs1 , v088
	.byte	W06
	.byte		        Fs1 , v016
	.byte	W06
	.byte		N12   , En2 , v052
	.byte	W12
	.byte		N02   , Fs1 , v088
	.byte	W06
	.byte		        Fs1 , v016
	.byte	W06
	.byte		N12   , En2 , v052
	.byte	W12
	.byte		N02   , Fs1 , v088
	.byte	W06
	.byte		        Fs1 , v016
	.byte	W06
	.byte		        Fs1 , v088
	.byte	W06
	.byte		        Fs1 , v016
	.byte	W06
	.byte		        Fs1 , v052
	.byte	W06
	.byte		        Fs1 , v016
	.byte	W06
	.byte		        Fs1 , v088
	.byte	W06
	.byte		        Fs1 , v016
	.byte	W06
	.byte		        Fs1 , v052
	.byte	W06
	.byte		        Fs1 , v016
	.byte	W06
	.byte		        Fs1 , v088
	.byte	W06
	.byte		        Fs1 , v016
	.byte	W06
	.byte		N12   , En2 , v052
	.byte	W12
	.byte		N02   , Fs1 , v088
	.byte	W06
	.byte		        Fs1 , v016
	.byte	W06
	.byte		        Fs1 , v052
	.byte	W06
	.byte		        Fs1 , v016
	.byte	W06
	.byte		        Fs1 , v088
	.byte	W06
	.byte		        Fs1 , v016
	.byte	W06
	.byte		        Fs1 , v052
	.byte	W06
	.byte		        Fs1 , v016
	.byte	W06
	.byte		        Fs1 , v088
	.byte	W06
	.byte		        Fs1 , v016
	.byte	W06
	.byte		        Fs1 , v052
	.byte	W06
	.byte		        Fs1 , v016
	.byte	W06
	.byte		        Fs1 , v088
	.byte	W06
	.byte		        Fs1 , v016
	.byte	W06
	.byte		N12   , En2 , v052
	.byte	W12
	.byte	PEND
	.byte	PATT
	 .word	seq_006_7 + 0x6B
	.byte	PATT
	 .word	seq_006_7 + 0x6B
	.byte	PATT
	 .word	seq_006_7 + 0x6B
	.byte	PATT
	 .word	seq_006_7 + 0x6B
	.byte	PATT
	 .word	seq_006_7 + 0x6B
	.byte		N02   , Fs1 , v088
	.byte	W06
	.byte		        Fs1 , v016
	.byte	W06
	.byte		        Fs1 , v052
	.byte	W06
	.byte		        Fs1 , v016
	.byte	W06
	.byte		        Fs1 , v088
	.byte	W06
	.byte		        Fs1 , v016
	.byte	W06
	.byte		        Fs1 , v052
	.byte	W06
	.byte		        Fs1 , v016
	.byte	W06
	.byte		N12   , En2 , v052
	.byte	W12
	.byte		N02   , Fs1 
	.byte	W06
	.byte		        Fs1 , v012
	.byte	W06
	.byte		N12   , En2 , v052
	.byte	W12
	.byte		N02   , Fs1 
	.byte	W06
	.byte		        Fs1 , v012
	.byte	W05
	.byte		VOL   , 103*seq_006_mvl/mxv
	.byte		PAN   , c_v+0
	.byte	W01
	.byte		N12   , En2 , v052
	.byte	W12
	.byte		N02   , Fs1 , v056
	.byte	W06
	.byte		        Fs1 , v016
	.byte	W05
	.byte		PAN   , c_v-63
	.byte	W01
	.byte		N02   , Fs1 , v112
	.byte	W06
	.byte		        Fs1 , v016
	.byte	W05
	.byte		PAN   , c_v+63
	.byte	W01
	.byte		N02   , Fs1 , v088
	.byte	W06
	.byte		        Fs1 , v016
	.byte	W05
	.byte		PAN   , c_v-63
	.byte	W01
	.byte		N02   , Fs1 , v060
	.byte	W06
	.byte		        Fs1 , v016
	.byte	W05
	.byte		PAN   , c_v+63
	.byte	W01
	.byte		N02   , Fs1 , v052
	.byte	W06
	.byte		        Fs1 , v016
	.byte	W05
	.byte		PAN   , c_v-63
	.byte	W01
	.byte		N02   , Fs1 , v044
	.byte	W06
	.byte		        Fs1 , v016
	.byte	W05
	.byte		PAN   , c_v+63
	.byte	W01
	.byte		N02   , Fs1 , v040
	.byte	W06
	.byte		        Fs1 , v016
	.byte	W05
	.byte		PAN   , c_v+0
	.byte	W01
	.byte	PEND
	.byte		N12   , En2 , v052
	.byte	W12
	.byte		N02   , Fs1 , v056
	.byte	W06
	.byte		        Fs1 , v016
	.byte	W05
	.byte		PAN   , c_v-63
	.byte	W01
	.byte		N02   , Fs1 , v112
	.byte	W06
	.byte		        Fs1 , v016
	.byte	W05
	.byte		PAN   , c_v+63
	.byte	W01
	.byte		N02   , Fs1 , v088
	.byte	W06
	.byte		        Fs1 , v016
	.byte	W05
	.byte		PAN   , c_v-63
	.byte	W01
	.byte		N02   , Fs1 , v060
	.byte	W06
	.byte		        Fs1 , v016
	.byte	W05
	.byte		PAN   , c_v+63
	.byte	W01
	.byte		N02   , Fs1 , v052
	.byte	W06
	.byte		        Fs1 , v016
	.byte	W05
	.byte		PAN   , c_v-63
	.byte	W01
	.byte		N02   , Fs1 , v044
	.byte	W06
	.byte		        Fs1 , v016
	.byte	W05
	.byte		PAN   , c_v+0
	.byte	W01
	.byte		N02   , Fs1 , v040
	.byte	W06
	.byte		        Fs1 , v016
	.byte	W05
	.byte		VOL   , 103*seq_006_mvl/mxv
	.byte		PAN   , c_v+0
	.byte	W01
	.byte	PEND
	.byte	PATT
	 .word	seq_006_7 + 0xE6
	.byte	PATT
	 .word	seq_006_7 + 0x131
	.byte	PATT
	 .word	seq_006_7 + 0xE6
	.byte	PATT
	 .word	seq_006_7 + 0x131
	.byte		N12   , En2 , v052
	.byte	W12
	.byte		N02   , Fs1 , v056
	.byte	W06
	.byte		        Fs1 , v016
	.byte	W05
	.byte		PAN   , c_v-63
	.byte	W01
	.byte		N02   , Fs1 , v112
	.byte	W06
	.byte		        Fs1 , v016
	.byte	W05
	.byte		PAN   , c_v+63
	.byte	W01
	.byte		N02   , Fs1 , v088
	.byte	W06
	.byte		        Fs1 , v016
	.byte	W05
	.byte		PAN   , c_v-63
	.byte	W01
	.byte		N02   , Fs1 , v060
	.byte	W06
	.byte		        Fs1 , v016
	.byte	W05
	.byte		PAN   , c_v+63
	.byte	W01
	.byte		N02   , Fs1 , v052
	.byte	W06
	.byte		        Fs1 , v016
	.byte	W05
	.byte		PAN   , c_v-63
	.byte	W01
	.byte		N02   , Fs1 , v044
	.byte	W06
	.byte		        Fs1 , v016
	.byte	W05
	.byte		PAN   , c_v+63
	.byte	W01
	.byte		N02   , Fs1 , v040
	.byte	W06
	.byte		        Fs1 , v016
	.byte	W05
	.byte		VOL   , 103*seq_006_mvl/mxv
	.byte		PAN   , c_v+0
	.byte	W01
	.byte	PEND
	.byte		N12   , En2 , v052
	.byte	W12
	.byte		N02   , Fs1 , v056
	.byte	W06
	.byte		        Fs1 , v016
	.byte	W05
	.byte		PAN   , c_v-63
	.byte	W01
	.byte		N02   , Fs1 , v112
	.byte	W06
	.byte		        Fs1 , v016
	.byte	W05
	.byte		PAN   , c_v+63
	.byte	W01
	.byte		N02   , Fs1 , v088
	.byte	W06
	.byte		        Fs1 , v016
	.byte	W05
	.byte		PAN   , c_v+0
	.byte	W01
	.byte		N02   , Fs1 , v080
	.byte	W06
	.byte		        Fs1 , v020
	.byte	W06
	.byte		N12   , En2 , v052
	.byte	W12
	.byte		N02   , Fs1 , v080
	.byte	W06
	.byte		        Fs1 , v020
	.byte	W06
	.byte		N12   , En2 , v052
	.byte	W11
	.byte		VOL   , 103*seq_006_mvl/mxv
	.byte		PAN   , c_v+0
	.byte	W01
	.byte		N02   , Fs1 , v088
	.byte	W06
	.byte		        Fs1 , v016
	.byte	W06
	.byte		        Fs1 , v056
	.byte	W06
	.byte		        Fs1 , v016
	.byte	W05
	.byte		PAN   , c_v-63
	.byte	W01
	.byte		N02   , Fs1 , v112
	.byte	W06
	.byte		        Fs1 , v016
	.byte	W05
	.byte		PAN   , c_v+63
	.byte	W01
	.byte		N02   , Fs1 , v088
	.byte	W06
	.byte		        Fs1 , v016
	.byte	W05
	.byte		PAN   , c_v-63
	.byte	W01
	.byte		N02   , Fs1 , v060
	.byte	W06
	.byte		        Fs1 , v016
	.byte	W05
	.byte		PAN   , c_v+63
	.byte	W01
	.byte		N02   , Fs1 , v052
	.byte	W06
	.byte		        Fs1 , v016
	.byte	W05
	.byte		PAN   , c_v-63
	.byte	W01
	.byte		N02   , Fs1 , v044
	.byte	W06
	.byte		        Fs1 , v016
	.byte	W05
	.byte		PAN   , c_v+63
	.byte	W01
	.byte		N02   , Fs1 , v040
	.byte	W06
	.byte		        Fs1 , v016
	.byte	W05
	.byte		VOL   , 103*seq_006_mvl/mxv
	.byte		PAN   , c_v+0
	.byte	W01
	.byte	PATT
	 .word	seq_006_7 + 0x192
	.byte	PATT
	 .word	seq_006_7 + 0x192
	.byte	PATT
	 .word	seq_006_7 + 0x192
	.byte	PATT
	 .word	seq_006_7 + 0x192
	.byte	PATT
	 .word	seq_006_7 + 0x192
	.byte	PATT
	 .word	seq_006_7 + 0x192
	.byte		N12   , En2 , v052
	.byte	W12
	.byte		N02   , Fs1 , v056
	.byte	W06
	.byte		        Fs1 , v016
	.byte	W05
	.byte		PAN   , c_v-63
	.byte	W01
	.byte		N02   , Fs1 , v112
	.byte	W06
	.byte		        Fs1 , v016
	.byte	W05
	.byte		PAN   , c_v+63
	.byte	W01
	.byte		N02   , Fs1 , v088
	.byte	W06
	.byte		        Fs1 , v016
	.byte	W05
	.byte		PAN   , c_v+0
	.byte	W01
	.byte		N02   , Fs1 , v080
	.byte	W06
	.byte		        Fs1 , v020
	.byte	W06
	.byte		N12   , En2 , v052
	.byte	W12
	.byte		N02   , Fs1 , v080
	.byte	W06
	.byte		        Fs1 , v020
	.byte	W06
	.byte		N12   , En2 , v052
	.byte	W12
	.byte	GOTO
	 .word	seq_006_7 + 0x3E
	.byte	FINE

@******************************************************@

	.align	2

seq_006:
	.byte	8	@ NumTrks
	.byte	0	@ NumBlks
	.byte	seq_006_pri	@ Priority
	.byte	seq_006_rev	@ Reverb

	.word	seq_006_grp

	.word	seq_006_0
	.word	seq_006_1
	.word	seq_006_2
	.word	seq_006_3
	.word	seq_006_4
	.word	seq_006_5
	.word	seq_006_6
	.word	seq_006_7

	.end
