@ File generated by m4a2s Song-Module
	.include "MPlayDef.s"

	.equ	seq_007_grp, bank_000
	.equ	seq_007_pri, 50
	.equ	seq_007_rev, 188
	.equ	seq_007_mvl, 127
	.equ	seq_007_key, 0

	.section .rodata
	.global	seq_007
	.align	2

@*********************** Track 01 ***********************@

seq_007_0:
	.byte	KEYSH , seq_007_key+0
	.byte	TEMPO , 130/2
	.byte	W21
	.byte		VOICE , 76
	.byte		VOL   , 70*seq_007_mvl/mxv
	.byte		PAN   , c_v+0
	.byte	W01
	.byte		BENDR , 12
	.byte		MODT  , mod_pan
	.byte	W01
	.byte		MOD   , 35
	.byte		BEND  , c_v-4
	.byte	W01
	.byte		N96   , Gn5 , v072
	.byte	W05
	.byte		BEND  , c_v-3
	.byte	W03
	.byte		        c_v-1
	.byte	W03
	.byte		        c_v+0
	.byte	W54
	.byte		VOL   , 66*seq_007_mvl/mxv
	.byte	W06
	.byte		        62*seq_007_mvl/mxv
	.byte	W05
	.byte		        60*seq_007_mvl/mxv
	.byte	W02
	.byte		        58*seq_007_mvl/mxv
	.byte	W02
	.byte		        53*seq_007_mvl/mxv
	.byte	W02
	.byte		        44*seq_007_mvl/mxv
	.byte	W02
	.byte		        36*seq_007_mvl/mxv
	.byte	W02
	.byte		        28*seq_007_mvl/mxv
	.byte	W02
	.byte		        22*seq_007_mvl/mxv
	.byte	W02
	.byte		        15*seq_007_mvl/mxv
	.byte	W02
	.byte		        6*seq_007_mvl/mxv
	.byte	W04
	.byte	W07
	.byte		        70*seq_007_mvl/mxv
	.byte	W01
	.byte		N03   , Cn6 
	.byte	W08
	.byte		        Bn5 , v036
	.byte	W08
	.byte		        Gn5 , v072
	.byte	W08
	.byte		        Fn5 , v052
	.byte	W08
	.byte		        Cn5 , v048
	.byte	W07
	.byte		VOL   , 48*seq_007_mvl/mxv
	.byte		BEND  , c_v-3
	.byte	W01
	.byte		N40   , Dn5 , v072
	.byte	W01
	.byte		BEND  , c_v-2
	.byte	W01
	.byte		VOL   , 54*seq_007_mvl/mxv
	.byte	W01
	.byte		BEND  , c_v-1
	.byte	W01
	.byte		VOL   , 59*seq_007_mvl/mxv
	.byte	W01
	.byte		BEND  , c_v+0
	.byte	W01
	.byte		VOL   , 62*seq_007_mvl/mxv
	.byte	W02
	.byte		        70*seq_007_mvl/mxv
	.byte	W36
	.byte	W03
	.byte		        37*seq_007_mvl/mxv
	.byte		BEND  , c_v-3
	.byte	W01
	.byte		N36   , Cn5 , v060
	.byte	W01
	.byte		BEND  , c_v-2
	.byte	W01
	.byte		VOL   , 42*seq_007_mvl/mxv
	.byte	W01
	.byte		BEND  , c_v-1
	.byte	W01
	.byte		VOL   , 45*seq_007_mvl/mxv
	.byte	W01
	.byte		BEND  , c_v+0
	.byte	W01
	.byte		VOL   , 59*seq_007_mvl/mxv
	.byte	W02
	.byte		        70*seq_007_mvl/mxv
	.byte	W28
	.byte		N06   , Bn4 , v020
	.byte	W06
	.byte		        Cn5 , v040
	.byte	W06
	.byte		N10   , Gn4 , v044
	.byte	W24
	.byte		N07   , Dn5 , v060
	.byte	W23
	.byte		VOL   , 37*seq_007_mvl/mxv
	.byte		BEND  , c_v-3
	.byte	W01
	.byte		N36   , Cn5 , v092
	.byte	W01
	.byte		BEND  , c_v-2
	.byte	W01
	.byte		VOL   , 42*seq_007_mvl/mxv
	.byte	W01
	.byte		BEND  , c_v-1
	.byte	W01
	.byte		VOL   , 45*seq_007_mvl/mxv
	.byte	W01
	.byte		BEND  , c_v+0
	.byte	W01
	.byte		VOL   , 59*seq_007_mvl/mxv
	.byte	W02
	.byte		        70*seq_007_mvl/mxv
	.byte	W28
	.byte		N06   , Bn4 , v052
	.byte	W06
	.byte		        Cn5 , v068
	.byte	W06
	.byte		N16   , Gn4 , v052
	.byte	W24
	.byte		N03   , Fn4 , v100
	.byte	W08
	.byte		        En4 , v040
	.byte	W08
	.byte		        Cn4 , v056
	.byte	W07
	.byte		VOL   , 48*seq_007_mvl/mxv
	.byte		BEND  , c_v-3
	.byte	W01
	.byte		N48   , Dn4 , v100
	.byte	W01
	.byte		BEND  , c_v-2
	.byte	W01
	.byte		VOL   , 54*seq_007_mvl/mxv
	.byte	W01
	.byte		BEND  , c_v-1
	.byte	W01
	.byte		VOL   , 59*seq_007_mvl/mxv
	.byte	W01
	.byte		BEND  , c_v+0
	.byte	W01
	.byte		VOL   , 62*seq_007_mvl/mxv
	.byte	W02
	.byte		        70*seq_007_mvl/mxv
	.byte	W24
	.byte		        63*seq_007_mvl/mxv
	.byte	W03
	.byte		        58*seq_007_mvl/mxv
	.byte	W02
	.byte		        53*seq_007_mvl/mxv
	.byte	W02
	.byte		        48*seq_007_mvl/mxv
	.byte	W02
	.byte		        40*seq_007_mvl/mxv
	.byte	W01
	.byte		        36*seq_007_mvl/mxv
	.byte	W02
	.byte		        26*seq_007_mvl/mxv
	.byte	W02
	.byte		        17*seq_007_mvl/mxv
	.byte	W13
	.byte		        70*seq_007_mvl/mxv
	.byte	W01
	.byte		N06   , Dn3 
	.byte	W06
	.byte		        Gn3 
	.byte	W06
	.byte		        Cn4 
	.byte	W08
	.byte		        Bn3 , v040
	.byte	W08
	.byte		        Cn4 , v056
	.byte	W08
	.byte		N16   , Dn4 , v100
	.byte	W16
	.byte		N06   , Gn4 
	.byte	W08
	.byte		N03   , Fn4 
	.byte	W08
	.byte		        En4 , v040
	.byte	W08
	.byte		        Cn4 , v056
	.byte	W07
	.byte		VOL   , 37*seq_007_mvl/mxv
	.byte		BEND  , c_v-3
	.byte	W01
	.byte		N48   , Dn4 , v100
	.byte	W01
	.byte		BEND  , c_v-2
	.byte	W01
	.byte		VOL   , 42*seq_007_mvl/mxv
	.byte	W01
	.byte		BEND  , c_v-1
	.byte	W01
	.byte		VOL   , 45*seq_007_mvl/mxv
	.byte	W01
	.byte		BEND  , c_v+0
	.byte	W01
	.byte		VOL   , 59*seq_007_mvl/mxv
	.byte	W02
	.byte		        70*seq_007_mvl/mxv
	.byte	W18
	.byte		        63*seq_007_mvl/mxv
	.byte	W03
	.byte		        58*seq_007_mvl/mxv
	.byte	W02
	.byte		        53*seq_007_mvl/mxv
	.byte	W02
	.byte		        48*seq_007_mvl/mxv
	.byte	W02
	.byte		        40*seq_007_mvl/mxv
	.byte	W01
	.byte		        36*seq_007_mvl/mxv
	.byte	W02
	.byte		        26*seq_007_mvl/mxv
	.byte	W02
	.byte		        17*seq_007_mvl/mxv
	.byte	W07
	.byte		        70*seq_007_mvl/mxv
	.byte	W01
	.byte	W96
	.byte	W96
	.byte	W96
	.byte	W96
	.byte	W96
	.byte	W96
	.byte	W96
	.byte	W96
	.byte	W92
	.byte		VOICE , 76
	.byte		MOD   , 35
	.byte		VOL   , 51*seq_007_mvl/mxv
	.byte	W01
	.byte		PAN   , c_v+0
	.byte		MODT  , mod_pan
	.byte	W03
	.byte		MOD   , 50
	.byte		VOL   , 74*seq_007_mvl/mxv
	.byte	W42
	.byte		N10   , Gn4 , v072
	.byte	W06
	.byte		N04   , Dn5 , v088
	.byte	W18
	.byte		        Dn5 , v060
	.byte	W06
	.byte		N08   , Dn5 , v100
	.byte	W08
	.byte		        Cn5 , v040
	.byte	W08
	.byte		        Dn5 , v072
	.byte	W08
	.byte		N09   , Gn5 , v100
	.byte	W42
	.byte		N10   , Gn4 , v072
	.byte	W06
	.byte		N04   , Dn5 , v088
	.byte	W18
	.byte		        Dn5 , v060
	.byte	W06
	.byte		N08   , Dn5 , v100
	.byte	W08
	.byte		        Cn5 , v040
	.byte	W08
	.byte		        Dn5 , v072
	.byte	W08
	.byte	PEND
	.byte		N09   , Gn4 , v072
	.byte	W42
	.byte		N10
	.byte	W06
	.byte		N04   , Dn5 , v088
	.byte	W18
	.byte		        Dn5 , v060
	.byte	W06
	.byte		N08   , Dn5 , v100
	.byte	W08
	.byte		        Cn5 , v040
	.byte	W08
	.byte		        Bn4 , v072
	.byte	W08
	.byte	PEND
	.byte		N06   , Gn4 
	.byte	W24
	.byte		        An4 
	.byte	W24
	.byte		        Bn4 
	.byte	W24
	.byte		        Cn5 
	.byte	W24
	.byte		N09   , Dn5 , v092
	.byte	W42
	.byte		N10   , Gn4 , v072
	.byte	W06
	.byte		N04   , Dn5 , v088
	.byte	W18
	.byte		        Dn5 , v060
	.byte	W06
	.byte		N08   , Dn5 , v100
	.byte	W08
	.byte		        Cn5 , v040
	.byte	W08
	.byte		        Dn5 , v072
	.byte	W08
	.byte	PATT
	 .word	seq_007_0 + 0x16F
	.byte	PATT
	 .word	seq_007_0 + 0x189
	.byte		N08   , Gn4 , v072
	.byte	W24
	.byte		        An4 
	.byte	W24
	.byte		        Bn4 
	.byte	W24
	.byte		        Cn5 
	.byte	W24
	.byte		        Dn5 
	.byte	W24
	.byte		        En5 
	.byte	W24
	.byte		        Fs5 
	.byte	W24
	.byte		        Gn5 
	.byte	W24
	.byte	W96
	.byte	W96
	.byte	W96
	.byte	W96
	.byte	W96
	.byte	W96
	.byte	W92
	.byte	W03
	.byte		VOICE , 15
	.byte		MOD   , 20
	.byte	W01
	.byte	W42
	.byte		N10   , Gn3 , v080
	.byte	W06
	.byte		        Dn4 , v096
	.byte	W18
	.byte		N04   , Dn4 , v072
	.byte	W06
	.byte		N08   , Dn4 , v112
	.byte	W08
	.byte		        Cn4 , v032
	.byte	W08
	.byte		        Dn4 , v080
	.byte	W08
	.byte		N12   , Gn4 , v112
	.byte	W42
	.byte		N10   , Gn3 , v080
	.byte	W06
	.byte		N04   , Dn4 , v096
	.byte	W18
	.byte		        Dn4 , v072
	.byte	W06
	.byte		N08   , Dn4 , v112
	.byte	W08
	.byte		        Cn4 , v032
	.byte	W08
	.byte		        Dn4 , v080
	.byte	W08
	.byte	PEND
	.byte		N12   , Gn3 , v080
	.byte	W42
	.byte		N10
	.byte	W06
	.byte		N04   , Dn4 , v096
	.byte	W18
	.byte		        Dn4 , v072
	.byte	W06
	.byte		N08   , Dn4 , v112
	.byte	W08
	.byte		        Cn4 , v032
	.byte	W08
	.byte		        Bn3 , v080
	.byte	W08
	.byte	PEND
	.byte		N12   , Gn3 , v080
	.byte	W24
	.byte		        An3 
	.byte	W24
	.byte		        Bn3 
	.byte	W24
	.byte		        Cn4 
	.byte	W24
	.byte	PEND
	.byte		N09   , Dn4 , v100
	.byte	W42
	.byte		N10   , Gn3 , v080
	.byte	W06
	.byte		        Dn4 , v096
	.byte	W18
	.byte		N04   , Dn4 , v072
	.byte	W06
	.byte		N08   , Dn4 , v112
	.byte	W08
	.byte		        Cn4 , v032
	.byte	W08
	.byte		        Dn4 , v080
	.byte	W08
	.byte	PATT
	 .word	seq_007_0 + 0x202
	.byte	PATT
	 .word	seq_007_0 + 0x21C
	.byte	PATT
	 .word	seq_007_0 + 0x234
	.byte		N12   , Dn4 , v080
	.byte	W68
	.byte	W03
	.byte		VOICE , 76
	.byte		VOL   , 98*seq_007_mvl/mxv
	.byte		PAN   , c_v+0
	.byte	W01
	.byte		N18   , Dn3 , v060
	.byte	W24
	.byte		N30   , Gn3 , v080
	.byte	W36
	.byte		N06   , Dn3 , v084
	.byte	W06
	.byte		        Gn3 , v064
	.byte	W06
	.byte		N30   , Dn4 , v088
	.byte	W36
	.byte		N06   , Cn4 , v084
	.byte	W06
	.byte		        Bn3 , v064
	.byte	W06
	.byte		N48   , Cn4 , v084
	.byte	W72
	.byte		N12   , Gn3 , v104
	.byte	W24
	.byte		N30   , Gn4 , v072
	.byte	W40
	.byte		N10   , Dn4 , v076
	.byte	W08
	.byte		N16   , Ds4 , v108
	.byte	W16
	.byte		N04   , Ds3 , v092
	.byte	W08
	.byte		        Ds4 , v120
	.byte	W08
	.byte		        Dn4 , v060
	.byte	W08
	.byte		        Cn4 , v076
	.byte	W08
	.byte		N48   , Bn3 , v100
	.byte	W96
	.byte		N20   , An3 , v120
	.byte	W24
	.byte		N06
	.byte	W08
	.byte		        Gs3 , v060
	.byte	W08
	.byte		        An3 , v076
	.byte	W08
	.byte		N22   , Cn4 , v120
	.byte	W24
	.byte		N06
	.byte	W08
	.byte		        Bn3 , v060
	.byte	W08
	.byte		        An3 , v076
	.byte	W08
	.byte		N10   , Gn3 , v092
	.byte	W24
	.byte		        Bn3 
	.byte	W24
	.byte		        Dn4 
	.byte	W24
	.byte		        Gn4 , v060
	.byte	W24
	.byte		        An4 
	.byte	W48
	.byte		N10
	.byte	W44
	.byte	W03
	.byte		VOICE , 46
	.byte		VOL   , 94*seq_007_mvl/mxv
	.byte		PAN   , c_v+20
	.byte	W01
	.byte		N12   , Dn4 , v092
	.byte	W23
	.byte		PAN   , c_v-20
	.byte	W01
	.byte		N12   , An3 
	.byte	W23
	.byte		PAN   , c_v+20
	.byte	W01
	.byte		N12   , Bn3 
	.byte	W23
	.byte		PAN   , c_v-20
	.byte	W01
	.byte		N12   , Cn4 
	.byte	W24
	.byte	GOTO
	 .word	seq_007_0 + 0x142
	.byte	FINE

@*********************** Track 02 ***********************@

seq_007_1:
	.byte	KEYSH , seq_007_key+0
	.byte		VOICE , 45
	.byte	W01
	.byte		VOL   , 78*seq_007_mvl/mxv
	.byte	W01
	.byte		PAN   , c_v+0
	.byte	W01
	.byte		BENDR , 2
	.byte	W01
	.byte		MODT  , mod_pan
	.byte	W20
	.byte	W96
	.byte	W96
	.byte	W96
	.byte	W96
	.byte	W96
	.byte	W92
	.byte	W03
	.byte		VOICE , 46
	.byte		VOL   , 94*seq_007_mvl/mxv
	.byte	W01
	.byte		N12   , Dn4 , v092
	.byte	W24
	.byte		        Gn4 
	.byte	W24
	.byte		        An4 
	.byte	W24
	.byte		        Bn4 
	.byte	W24
	.byte		        Cn5 
	.byte	W44
	.byte	W01
	.byte		VOICE , 45
	.byte	W01
	.byte		VOL   , 78*seq_007_mvl/mxv
	.byte	W01
	.byte		MOD   , 30
	.byte	W01
	.byte		N06   , Bn3 , v112
	.byte	W24
	.byte		N18   , Cn4 , v080
	.byte	W23
	.byte		VOL   , 25*seq_007_mvl/mxv
	.byte	W01
	.byte		VOL   , 30*seq_007_mvl/mxv
	.byte		N30   , Dn4 , v112
	.byte	W01
	.byte		VOL   , 36*seq_007_mvl/mxv
	.byte	W01
	.byte		        41*seq_007_mvl/mxv
	.byte	W01
	.byte		        48*seq_007_mvl/mxv
	.byte	W01
	.byte		        53*seq_007_mvl/mxv
	.byte	W01
	.byte		        59*seq_007_mvl/mxv
	.byte	W01
	.byte		        65*seq_007_mvl/mxv
	.byte	W01
	.byte		        67*seq_007_mvl/mxv
	.byte	W02
	.byte		        78*seq_007_mvl/mxv
	.byte	W30
	.byte	W01
	.byte		N08   , Bn3 , v080
	.byte	W08
	.byte		N14   , Cn4 , v100
	.byte	W14
	.byte		N04   , Bn3 , v052
	.byte	W04
	.byte		        Cn4 , v080
	.byte	W03
	.byte		        Bn3 , v060
	.byte	W03
	.byte		N22   , An3 , v072
	.byte	W03
	.byte		VOL   , 62*seq_007_mvl/mxv
	.byte	W02
	.byte		        57*seq_007_mvl/mxv
	.byte	W01
	.byte		        54*seq_007_mvl/mxv
	.byte	W01
	.byte		        51*seq_007_mvl/mxv
	.byte	W01
	.byte		        42*seq_007_mvl/mxv
	.byte	W01
	.byte		        33*seq_007_mvl/mxv
	.byte	W01
	.byte		        26*seq_007_mvl/mxv
	.byte	W01
	.byte		        18*seq_007_mvl/mxv
	.byte	W01
	.byte		        10*seq_007_mvl/mxv
	.byte	W11
	.byte		        70*seq_007_mvl/mxv
	.byte		BEND  , c_v-25
	.byte	W01
	.byte	PEND
	.byte		VOL   , 61*seq_007_mvl/mxv
	.byte		N30   , Bn3 , v112
	.byte	W01
	.byte		VOL   , 51*seq_007_mvl/mxv
	.byte		BEND  , c_v-19
	.byte	W01
	.byte		VOL   , 40*seq_007_mvl/mxv
	.byte		BEND  , c_v-15
	.byte	W01
	.byte		VOL   , 44*seq_007_mvl/mxv
	.byte		BEND  , c_v+0
	.byte	W01
	.byte		VOL   , 49*seq_007_mvl/mxv
	.byte	W01
	.byte		        55*seq_007_mvl/mxv
	.byte	W01
	.byte		        61*seq_007_mvl/mxv
	.byte	W01
	.byte		        67*seq_007_mvl/mxv
	.byte	W02
	.byte		        78*seq_007_mvl/mxv
	.byte	W30
	.byte	W01
	.byte		N08   , Gn3 , v080
	.byte	W08
	.byte		N14   , An3 , v100
	.byte	W14
	.byte		N04   , Gn3 , v052
	.byte	W04
	.byte		        An3 , v080
	.byte	W03
	.byte		        Gn3 , v060
	.byte	W03
	.byte		N22   , Fs3 , v072
	.byte	W03
	.byte		VOL   , 62*seq_007_mvl/mxv
	.byte	W02
	.byte		        57*seq_007_mvl/mxv
	.byte	W01
	.byte		        54*seq_007_mvl/mxv
	.byte	W01
	.byte		        51*seq_007_mvl/mxv
	.byte	W01
	.byte		        42*seq_007_mvl/mxv
	.byte	W01
	.byte		        33*seq_007_mvl/mxv
	.byte	W01
	.byte		        26*seq_007_mvl/mxv
	.byte	W01
	.byte		        18*seq_007_mvl/mxv
	.byte	W01
	.byte		        10*seq_007_mvl/mxv
	.byte	W11
	.byte		        70*seq_007_mvl/mxv
	.byte	W01
	.byte	PEND
	.byte		N12   , Gn3 , v076
	.byte	W96
	.byte	W92
	.byte	W03
	.byte		VOL   , 25*seq_007_mvl/mxv
	.byte	W01
	.byte	PEND
	.byte	PATT
	 .word	seq_007_1 + 0x3E
	.byte	PATT
	 .word	seq_007_1 + 0x84
	.byte		N12   , Gn3 , v076
	.byte	W96
	.byte	W96
	.byte	W96
	.byte	W96
	.byte	W96
	.byte	W96
	.byte	W96
	.byte	W96
	.byte	W96
	.byte	PATT
	 .word	seq_007_1 + 0xD5
	.byte	PATT
	 .word	seq_007_1 + 0x3E
	.byte	PATT
	 .word	seq_007_1 + 0x84
	.byte		N12   , Gn3 , v076
	.byte	W96
	.byte	PATT
	 .word	seq_007_1 + 0xD5
	.byte	PATT
	 .word	seq_007_1 + 0x3E
	.byte	PATT
	 .word	seq_007_1 + 0x84
	.byte		N12   , Gn3 , v076
	.byte	W96
	.byte	W96
	.byte	W96
	.byte	W96
	.byte	W96
	.byte	W96
	.byte	W96
	.byte	W96
	.byte	W96
	.byte	W96
	.byte	W96
	.byte	W96
	.byte	W96
	.byte	W72
	.byte		N06   , Dn3 
	.byte	W08
	.byte		        Gn3 , v016
	.byte	W08
	.byte		        Bn3 , v032
	.byte	W08
	.byte		N20   , Cn4 , v076
	.byte	W24
	.byte		N06
	.byte	W08
	.byte		        Bn3 , v016
	.byte	W08
	.byte		        Cn4 , v032
	.byte	W08
	.byte		N16   , Ds4 , v076
	.byte	W16
	.byte		N06
	.byte	W08
	.byte		N06
	.byte	W08
	.byte		        Dn4 , v016
	.byte	W08
	.byte		        Cn4 , v032
	.byte	W08
	.byte		        Bn3 , v072
	.byte	W24
	.byte		N10   , Dn4 , v052
	.byte	W24
	.byte		N06   , Gn4 , v072
	.byte	W24
	.byte		N10   , Bn4 , v052
	.byte	W23
	.byte		VOICE , 96
	.byte		MOD   , 35
	.byte		VOL   , 78*seq_007_mvl/mxv
	.byte	W01
	.byte		N10   , Cn4 
	.byte	W48
	.byte		N10
	.byte	W44
	.byte	W03
	.byte		PAN   , c_v-20
	.byte	W01
	.byte		N06   , Dn4 , v060
	.byte	W23
	.byte		PAN   , c_v+20
	.byte	W01
	.byte		N06   , An3 
	.byte	W23
	.byte		PAN   , c_v-20
	.byte	W01
	.byte		N06   , Bn3 
	.byte	W23
	.byte		PAN   , c_v+20
	.byte	W01
	.byte		N06   , Cn4 
	.byte	W14
	.byte		VOICE , 45
	.byte	W01
	.byte		PAN   , c_v+0
	.byte	W01
	.byte		VOL   , 78*seq_007_mvl/mxv
	.byte	W01
	.byte		MOD   , 30
	.byte	W07
	.byte	GOTO
	 .word	seq_007_1 + 0x3E
	.byte	FINE

@*********************** Track 03 ***********************@

seq_007_2:
	.byte	KEYSH , seq_007_key+0
	.byte		VOICE , 6
	.byte	W01
	.byte		VOL   , 66*seq_007_mvl/mxv
	.byte	W01
	.byte		PAN   , c_v+20
	.byte	W01
	.byte		BENDR , 12
	.byte	W01
	.byte		MODT  , mod_vib
	.byte	W19
	.byte		MOD   , 3
	.byte		BEND  , c_v-3
	.byte	W01
	.byte		N80   , Dn2 , v120
	.byte	W04
	.byte		BEND  , c_v-3
	.byte	W03
	.byte		        c_v-2
	.byte	W02
	.byte		        c_v-2
	.byte	W01
	.byte		        c_v-1
	.byte	W01
	.byte		        c_v+0
	.byte	W23
	.byte		VOL   , 55*seq_007_mvl/mxv
	.byte	W08
	.byte		        52*seq_007_mvl/mxv
	.byte	W04
	.byte		        50*seq_007_mvl/mxv
	.byte	W06
	.byte		        45*seq_007_mvl/mxv
	.byte	W04
	.byte		        44*seq_007_mvl/mxv
	.byte	W03
	.byte		        39*seq_007_mvl/mxv
	.byte	W02
	.byte		        35*seq_007_mvl/mxv
	.byte	W02
	.byte		        30*seq_007_mvl/mxv
	.byte	W02
	.byte		        24*seq_007_mvl/mxv
	.byte	W02
	.byte		        19*seq_007_mvl/mxv
	.byte	W02
	.byte		        10*seq_007_mvl/mxv
	.byte	W02
	.byte		        0*seq_007_mvl/mxv
	.byte	W16
	.byte		        49*seq_007_mvl/mxv
	.byte	W01
	.byte		N05
	.byte	W03
	.byte		        Gn2 
	.byte	W04
	.byte		BEND  , c_v-3
	.byte	W01
	.byte	PEND
	.byte	PATT
	 .word	seq_007_2 + 0x16
	.byte	PATT
	 .word	seq_007_2 + 0x16
	.byte		N80   , Dn2 , v120
	.byte	W04
	.byte		BEND  , c_v-3
	.byte	W03
	.byte		        c_v-2
	.byte	W02
	.byte		        c_v-2
	.byte	W01
	.byte		        c_v-1
	.byte	W01
	.byte		        c_v+0
	.byte	W23
	.byte		VOL   , 55*seq_007_mvl/mxv
	.byte	W08
	.byte		        52*seq_007_mvl/mxv
	.byte	W04
	.byte		        50*seq_007_mvl/mxv
	.byte	W06
	.byte		        45*seq_007_mvl/mxv
	.byte	W04
	.byte		        44*seq_007_mvl/mxv
	.byte	W03
	.byte		        39*seq_007_mvl/mxv
	.byte	W02
	.byte		        35*seq_007_mvl/mxv
	.byte	W02
	.byte		        30*seq_007_mvl/mxv
	.byte	W02
	.byte		        24*seq_007_mvl/mxv
	.byte	W02
	.byte		        19*seq_007_mvl/mxv
	.byte	W02
	.byte		        10*seq_007_mvl/mxv
	.byte	W02
	.byte		        0*seq_007_mvl/mxv
	.byte	W16
	.byte		        49*seq_007_mvl/mxv
	.byte	W08
	.byte		MOD   , 3
	.byte		BEND  , c_v-3
	.byte	W01
	.byte	PATT
	 .word	seq_007_2 + 0x16
	.byte	PATT
	 .word	seq_007_2 + 0x16
	.byte		N96   , Dn2 , v120
	.byte	W04
	.byte		BEND  , c_v-3
	.byte	W03
	.byte		        c_v-2
	.byte	W02
	.byte		        c_v-2
	.byte	W01
	.byte		        c_v-1
	.byte	W01
	.byte		        c_v+0
	.byte	W84
	.byte	W01
	.byte	W96
	.byte	W96
	.byte	W96
	.byte	W96
	.byte	W96
	.byte	W96
	.byte	W92
	.byte	W03
	.byte		VOICE , 94
	.byte		MOD   , 30
	.byte		MODT  , mod_tre
	.byte	W01
	.byte		VOL   , 78*seq_007_mvl/mxv
	.byte		PAN   , c_v-20
	.byte	W96
	.byte	W44
	.byte	W03
	.byte		N48   , Dn1 , v120
	.byte	W48
	.byte		        Bn1 
	.byte	W01
	.byte	PEND
	.byte	W44
	.byte	W03
	.byte		N48   , Cn2 , v120
	.byte	W48
	.byte		        Dn2 
	.byte	W01
	.byte	PEND
	.byte	W44
	.byte	W03
	.byte		N48   , Fs2 , v120
	.byte	W48
	.byte		TIE   , Gn2 
	.byte	W01
	.byte	PEND
	.byte	W16
	.byte		VOL   , 95*seq_007_mvl/mxv
	.byte	W18
	.byte		        92*seq_007_mvl/mxv
	.byte	W09
	.byte		        90*seq_007_mvl/mxv
	.byte	W07
	.byte		        88*seq_007_mvl/mxv
	.byte	W09
	.byte		        86*seq_007_mvl/mxv
	.byte	W08
	.byte		        84*seq_007_mvl/mxv
	.byte	W11
	.byte		        81*seq_007_mvl/mxv
	.byte	W05
	.byte		        79*seq_007_mvl/mxv
	.byte	W04
	.byte		        76*seq_007_mvl/mxv
	.byte	W07
	.byte		        70*seq_007_mvl/mxv
	.byte	W02
	.byte	PEND
	.byte	W02
	.byte		VOL   , 68*seq_007_mvl/mxv
	.byte	W05
	.byte		        64*seq_007_mvl/mxv
	.byte	W04
	.byte		        61*seq_007_mvl/mxv
	.byte	W04
	.byte		        55*seq_007_mvl/mxv
	.byte	W05
	.byte		        48*seq_007_mvl/mxv
	.byte	W04
	.byte		        41*seq_007_mvl/mxv
	.byte	W02
	.byte		        38*seq_007_mvl/mxv
	.byte	W03
	.byte		        33*seq_007_mvl/mxv
	.byte	W02
	.byte		        26*seq_007_mvl/mxv
	.byte	W02
	.byte		        18*seq_007_mvl/mxv
	.byte	W02
	.byte		        11*seq_007_mvl/mxv
	.byte	W06
	.byte	PEND
	.byte		EOT   , Gn2 
	.byte	W05
	.byte		VOL   , 100*seq_007_mvl/mxv
	.byte	W01
	.byte		N48   , Dn1 , v120
	.byte	W48
	.byte		        Bn1 
	.byte	W01
	.byte	PATT
	 .word	seq_007_2 + 0xB8
	.byte	W44
	.byte	W03
	.byte		N48   , Fs2 , v120
	.byte	W48
	.byte		VOICE , 46
	.byte	W01
	.byte	W92
	.byte	W03
	.byte		PAN   , c_v+63
	.byte	W01
	.byte		N12   , Dn4 , v060
	.byte	W23
	.byte		PAN   , c_v-63
	.byte	W01
	.byte		N12   , En4 
	.byte	W23
	.byte		PAN   , c_v+63
	.byte	W01
	.byte		N12   , Fs4 
	.byte	W23
	.byte		PAN   , c_v-63
	.byte	W01
	.byte		N12   , Gn4 
	.byte	W24
	.byte	W96
	.byte	W96
	.byte	W96
	.byte	W96
	.byte	W96
	.byte	W96
	.byte	W92
	.byte	W03
	.byte		VOICE , 94
	.byte		PAN   , c_v-10
	.byte	W01
	.byte	PATT
	 .word	seq_007_2 + 0xAF
	.byte	PATT
	 .word	seq_007_2 + 0xB8
	.byte	PATT
	 .word	seq_007_2 + 0xC1
	.byte	PATT
	 .word	seq_007_2 + 0xCB
	.byte	PATT
	 .word	seq_007_2 + 0xE2
	.byte		EOT   , Gn2 
	.byte	W05
	.byte		VOL   , 100*seq_007_mvl/mxv
	.byte	W01
	.byte		N48   , Dn1 , v120
	.byte	W48
	.byte		        Bn1 , v100
	.byte	W01
	.byte	W44
	.byte	W03
	.byte		        Cn2 
	.byte	W48
	.byte		        Dn2 
	.byte	W01
	.byte	W44
	.byte	W03
	.byte		        Fs2 
	.byte	W48
	.byte		TIE   , Gn2 
	.byte	W01
	.byte	W64
	.byte		VOL   , 95*seq_007_mvl/mxv
	.byte	W18
	.byte		        92*seq_007_mvl/mxv
	.byte	W09
	.byte		        90*seq_007_mvl/mxv
	.byte	W05
	.byte	W02
	.byte		        88*seq_007_mvl/mxv
	.byte	W09
	.byte		        86*seq_007_mvl/mxv
	.byte	W08
	.byte		        84*seq_007_mvl/mxv
	.byte	W11
	.byte		        81*seq_007_mvl/mxv
	.byte	W05
	.byte		        79*seq_007_mvl/mxv
	.byte	W04
	.byte		        76*seq_007_mvl/mxv
	.byte	W07
	.byte		        70*seq_007_mvl/mxv
	.byte	W04
	.byte		        68*seq_007_mvl/mxv
	.byte	W05
	.byte		        64*seq_007_mvl/mxv
	.byte	W04
	.byte		        61*seq_007_mvl/mxv
	.byte	W04
	.byte		        55*seq_007_mvl/mxv
	.byte	W05
	.byte		        48*seq_007_mvl/mxv
	.byte	W04
	.byte		        41*seq_007_mvl/mxv
	.byte	W02
	.byte		        38*seq_007_mvl/mxv
	.byte	W03
	.byte		        33*seq_007_mvl/mxv
	.byte	W02
	.byte		        26*seq_007_mvl/mxv
	.byte	W02
	.byte		        18*seq_007_mvl/mxv
	.byte	W02
	.byte		        11*seq_007_mvl/mxv
	.byte	W11
	.byte		        100*seq_007_mvl/mxv
	.byte	W01
	.byte		EOT
	.byte		TIE   , Gn1 
	.byte	W01
	.byte	W96
	.byte	W96
	.byte	W96
	.byte	W96
	.byte	W96
	.byte	W92
	.byte	W03
	.byte		EOT
	.byte	W01
	.byte	W96
	.byte	W96
	.byte	GOTO
	 .word	seq_007_2 + 0x9C
	.byte	FINE

@*********************** Track 04 ***********************@

seq_007_3:
	.byte	KEYSH , seq_007_key+0
	.byte	W06
	.byte		VOICE , 6
	.byte	W01
	.byte		VOL   , 55*seq_007_mvl/mxv
	.byte	W01
	.byte		PAN   , c_v-20
	.byte	W02
	.byte		BENDR , 12
	.byte	W01
	.byte		MODT  , mod_vib
	.byte	W12
	.byte		BEND  , c_v-3
	.byte	W01
	.byte		N92   , Gn1 , v100
	.byte	W04
	.byte		BEND  , c_v-3
	.byte	W03
	.byte		        c_v-2
	.byte	W02
	.byte		        c_v-2
	.byte	W01
	.byte		        c_v-1
	.byte	W01
	.byte		        c_v+0
	.byte	W30
	.byte	W01
	.byte		VOL   , 66*seq_007_mvl/mxv
	.byte	W08
	.byte		        64*seq_007_mvl/mxv
	.byte	W04
	.byte		        62*seq_007_mvl/mxv
	.byte	W06
	.byte		        57*seq_007_mvl/mxv
	.byte	W04
	.byte		        55*seq_007_mvl/mxv
	.byte	W03
	.byte		        51*seq_007_mvl/mxv
	.byte	W02
	.byte		        47*seq_007_mvl/mxv
	.byte	W02
	.byte		        42*seq_007_mvl/mxv
	.byte	W02
	.byte		        36*seq_007_mvl/mxv
	.byte	W02
	.byte		        31*seq_007_mvl/mxv
	.byte	W02
	.byte		        22*seq_007_mvl/mxv
	.byte	W02
	.byte		        12*seq_007_mvl/mxv
	.byte	W16
	.byte		        61*seq_007_mvl/mxv
	.byte		BEND  , c_v-3
	.byte	W01
	.byte	PEND
	.byte	PATT
	 .word	seq_007_3 + 0x15
	.byte		N92   , Gn1 , v100
	.byte	W04
	.byte		BEND  , c_v-3
	.byte	W03
	.byte		        c_v-2
	.byte	W02
	.byte		        c_v-2
	.byte	W01
	.byte		        c_v-1
	.byte	W01
	.byte		        c_v+0
	.byte	W28
	.byte	W01
	.byte		VOL   , 66*seq_007_mvl/mxv
	.byte	W08
	.byte		        64*seq_007_mvl/mxv
	.byte	W04
	.byte		        62*seq_007_mvl/mxv
	.byte	W06
	.byte		        57*seq_007_mvl/mxv
	.byte	W04
	.byte		        55*seq_007_mvl/mxv
	.byte	W03
	.byte		        51*seq_007_mvl/mxv
	.byte	W02
	.byte		        47*seq_007_mvl/mxv
	.byte	W02
	.byte		        42*seq_007_mvl/mxv
	.byte	W02
	.byte		        36*seq_007_mvl/mxv
	.byte	W02
	.byte		        31*seq_007_mvl/mxv
	.byte	W02
	.byte		        22*seq_007_mvl/mxv
	.byte	W02
	.byte		        12*seq_007_mvl/mxv
	.byte	W16
	.byte		        61*seq_007_mvl/mxv
	.byte	W02
	.byte		BEND  , c_v-3
	.byte	W01
	.byte	PATT
	 .word	seq_007_3 + 0x15
	.byte		N92   , Gn1 , v100
	.byte	W04
	.byte		BEND  , c_v-3
	.byte	W03
	.byte		        c_v-2
	.byte	W02
	.byte		        c_v-2
	.byte	W01
	.byte		        c_v-1
	.byte	W01
	.byte		        c_v+0
	.byte	W30
	.byte	W01
	.byte		VOL   , 55*seq_007_mvl/mxv
	.byte	W08
	.byte		        52*seq_007_mvl/mxv
	.byte	W04
	.byte		        50*seq_007_mvl/mxv
	.byte	W06
	.byte		        45*seq_007_mvl/mxv
	.byte	W04
	.byte		        44*seq_007_mvl/mxv
	.byte	W03
	.byte		        39*seq_007_mvl/mxv
	.byte	W02
	.byte		        35*seq_007_mvl/mxv
	.byte	W02
	.byte		        30*seq_007_mvl/mxv
	.byte	W02
	.byte		        24*seq_007_mvl/mxv
	.byte	W02
	.byte		        19*seq_007_mvl/mxv
	.byte	W02
	.byte		        10*seq_007_mvl/mxv
	.byte	W02
	.byte		        0*seq_007_mvl/mxv
	.byte	W16
	.byte		        49*seq_007_mvl/mxv
	.byte		BEND  , c_v-3
	.byte	W01
	.byte	PEND
	.byte	PATT
	 .word	seq_007_3 + 0x7B
	.byte		N96   , Gn1 , v100
	.byte	W04
	.byte		BEND  , c_v-3
	.byte	W03
	.byte		        c_v-2
	.byte	W02
	.byte		        c_v-2
	.byte	W01
	.byte		        c_v-1
	.byte	W01
	.byte		        c_v+0
	.byte	W84
	.byte	W01
	.byte	W96
	.byte	W96
	.byte	W96
	.byte	W96
	.byte	W96
	.byte	W96
	.byte	W92
	.byte	W03
	.byte		VOICE , 95
	.byte		MOD   , 30
	.byte		MODT  , mod_tre
	.byte	W01
	.byte		VOL   , 78*seq_007_mvl/mxv
	.byte		PAN   , c_v+20
	.byte	W96
	.byte	W96
	.byte	W96
	.byte	W92
	.byte	W03
	.byte		N48   , Gn1 , v120
	.byte	W01
	.byte	W44
	.byte	W03
	.byte		        An1 
	.byte	W48
	.byte		        Bn1 
	.byte	W01
	.byte	W44
	.byte	W03
	.byte		        Cn2 
	.byte	W48
	.byte		TIE   , Dn2 
	.byte	W01
	.byte	W23
	.byte		VOL   , 95*seq_007_mvl/mxv
	.byte	W18
	.byte		        92*seq_007_mvl/mxv
	.byte	W09
	.byte		        90*seq_007_mvl/mxv
	.byte	W07
	.byte		        88*seq_007_mvl/mxv
	.byte	W09
	.byte		        86*seq_007_mvl/mxv
	.byte	W08
	.byte		        84*seq_007_mvl/mxv
	.byte	W11
	.byte		        81*seq_007_mvl/mxv
	.byte	W05
	.byte		        79*seq_007_mvl/mxv
	.byte	W04
	.byte		        76*seq_007_mvl/mxv
	.byte	W02
	.byte	PEND
	.byte	W05
	.byte		VOL   , 70*seq_007_mvl/mxv
	.byte	W04
	.byte		        68*seq_007_mvl/mxv
	.byte	W05
	.byte		        64*seq_007_mvl/mxv
	.byte	W04
	.byte		        61*seq_007_mvl/mxv
	.byte	W04
	.byte		        55*seq_007_mvl/mxv
	.byte	W05
	.byte		        48*seq_007_mvl/mxv
	.byte	W04
	.byte		        41*seq_007_mvl/mxv
	.byte	W02
	.byte		        38*seq_007_mvl/mxv
	.byte	W03
	.byte		        33*seq_007_mvl/mxv
	.byte	W02
	.byte		        26*seq_007_mvl/mxv
	.byte	W02
	.byte		        18*seq_007_mvl/mxv
	.byte	W02
	.byte		        11*seq_007_mvl/mxv
	.byte	W05
	.byte	PEND
	.byte		EOT   , Dn2 
	.byte	W44
	.byte	W03
	.byte		VOL   , 100*seq_007_mvl/mxv
	.byte		PAN   , c_v+0
	.byte	W01
	.byte		N06   , Bn1 , v120
	.byte	W01
	.byte	W23
	.byte		        Cn2 
	.byte	W24
	.byte		        Dn2 
	.byte	W24
	.byte		        En2 
	.byte	W23
	.byte		PAN   , c_v-63
	.byte	W01
	.byte		N06   , Fs2 
	.byte	W01
	.byte	W22
	.byte		PAN   , c_v+63
	.byte	W01
	.byte		N06   , En2 
	.byte	W23
	.byte		PAN   , c_v-63
	.byte	W01
	.byte		N06   , Dn2 
	.byte	W23
	.byte		PAN   , c_v+63
	.byte	W01
	.byte		N06   , Cn2 
	.byte	W24
	.byte	W01
	.byte	W96
	.byte	W96
	.byte	W96
	.byte	W96
	.byte	W96
	.byte	W96
	.byte	W92
	.byte	W03
	.byte		VOICE , 94
	.byte		PAN   , c_v+10
	.byte	W01
	.byte	W96
	.byte	W96
	.byte	W92
	.byte	W03
	.byte		N48   , Gn1 , v100
	.byte	W01
	.byte	W44
	.byte	W03
	.byte		N48   , An1 , v100
	.byte	W48
	.byte		        Bn1 
	.byte	W01
	.byte	PEND
	.byte	W44
	.byte	W03
	.byte		        Cn2 
	.byte	W48
	.byte		TIE   , Dn2 
	.byte	W01
	.byte	PATT
	 .word	seq_007_3 + 0xE7
	.byte	PATT
	 .word	seq_007_3 + 0xFC
	.byte		EOT   , Dn2 
	.byte	W44
	.byte	W03
	.byte		VOL   , 100*seq_007_mvl/mxv
	.byte	W01
	.byte		N48   , Gn1 , v100
	.byte	W01
	.byte	PATT
	 .word	seq_007_3 + 0x15A
	.byte	W44
	.byte	W03
	.byte		TIE   , Cn2 , v100
	.byte	W48
	.byte	W01
	.byte	W96
	.byte	W96
	.byte	W92
	.byte	W03
	.byte		EOT
	.byte		N96   , Bn1 
	.byte	W01
	.byte	W92
	.byte	W03
	.byte		        An1 
	.byte	W01
	.byte	W92
	.byte	W03
	.byte		        Bn1 
	.byte	W01
	.byte	W96
	.byte	W96
	.byte	W96
	.byte	GOTO
	 .word	seq_007_3 + 0xBF
	.byte	FINE

@*********************** Track 05 ***********************@

seq_007_4:
	.byte	KEYSH , seq_007_key+0
	.byte	W06
	.byte		VOICE , 6
	.byte	W01
	.byte		VOL   , 62*seq_007_mvl/mxv
	.byte	W01
	.byte		PAN   , c_v-20
	.byte	W01
	.byte		MODT  , mod_pan
	.byte	W12
	.byte		N18   , Dn2 , v092
	.byte	W03
	.byte	W15
	.byte		N04   , Gn2 , v120
	.byte	W24
	.byte		N04
	.byte	W24
	.byte		N04
	.byte	W24
	.byte		N04
	.byte	W09
	.byte	PEND
	.byte	W15
	.byte		N04
	.byte	W24
	.byte		N04
	.byte	W24
	.byte		N06
	.byte	W06
	.byte		N18   , An2 , v092
	.byte	W18
	.byte		N06   , Gn2 , v072
	.byte	W06
	.byte		N18   , Dn2 , v092
	.byte	W03
	.byte	PATT
	 .word	seq_007_4 + 0x13
	.byte	W15
	.byte		N04   , Gn2 , v120
	.byte	W24
	.byte		N04
	.byte	W24
	.byte		N06
	.byte	W06
	.byte		N18   , An2 , v092
	.byte	W18
	.byte		N06   , Gn2 , v072
	.byte	W09
	.byte	PEND
	.byte	PATT
	 .word	seq_007_4 + 0x13
	.byte	PATT
	 .word	seq_007_4 + 0x37
	.byte	W96
	.byte	W92
	.byte		VOICE , 19
	.byte		PAN   , c_v+0
	.byte	W01
	.byte		N18   , Dn3 , v092
	.byte	W03
	.byte	W14
	.byte		PAN   , c_v-20
	.byte	W01
	.byte		N04   , Gn3 , v120
	.byte	W24
	.byte		N04
	.byte	W24
	.byte		N04
	.byte	W24
	.byte		N04
	.byte	W09
	.byte	PEND
	.byte	W15
	.byte		N04   , Gn3 , v120
	.byte	W24
	.byte		N04
	.byte	W24
	.byte		N06
	.byte	W06
	.byte		N18   , An3 , v092
	.byte	W18
	.byte		N06   , Gn3 , v072
	.byte	W05
	.byte		PAN   , c_v+0
	.byte	W01
	.byte		N18   , Dn3 , v092
	.byte	W03
	.byte	PEND
	.byte	PATT
	 .word	seq_007_4 + 0x5E
	.byte	W15
	.byte		N04   , Gn3 , v120
	.byte	W24
	.byte		N04
	.byte	W24
	.byte		N06
	.byte	W06
	.byte		N24   , Fs3 , v068
	.byte	W23
	.byte		VOICE , 19
	.byte		PAN   , c_v+0
	.byte	W01
	.byte		N18   , Dn3 , v092
	.byte	W03
	.byte	PEND
	.byte	PATT
	 .word	seq_007_4 + 0x5E
	.byte	PATT
	 .word	seq_007_4 + 0x6D
	.byte	PATT
	 .word	seq_007_4 + 0x5E
	.byte	W15
	.byte		N04   , Gn3 , v120
	.byte	W24
	.byte		N04
	.byte	W24
	.byte		N06
	.byte	W06
	.byte		N24   , Fs3 , v068
	.byte	W23
	.byte		PAN   , c_v+0
	.byte	W01
	.byte		N18   , Dn3 , v092
	.byte	W03
	.byte	W15
	.byte		N04   , Gn3 , v120
	.byte	W24
	.byte		N04
	.byte	W24
	.byte		N04
	.byte	W24
	.byte		N04
	.byte	W09
	.byte	PEND
	.byte	W15
	.byte		N04
	.byte	W24
	.byte		N04
	.byte	W24
	.byte		N06
	.byte	W06
	.byte		N18   , An3 , v092
	.byte	W18
	.byte		N06   , Gn3 , v072
	.byte	W06
	.byte		N18   , Dn3 , v092
	.byte	W03
	.byte	PATT
	 .word	seq_007_4 + 0xC5
	.byte	W15
	.byte		N04   , Gn3 , v120
	.byte	W24
	.byte		N04
	.byte	W24
	.byte		N06
	.byte	W06
	.byte		N24   , Fs3 , v080
	.byte	W24
	.byte		N18   , Dn3 , v092
	.byte	W03
	.byte	PATT
	 .word	seq_007_4 + 0xC5
	.byte	W15
	.byte		N04   , Gn3 , v120
	.byte	W24
	.byte		N04
	.byte	W24
	.byte		N06
	.byte	W06
	.byte		N18   , An3 , v092
	.byte	W18
	.byte		N06   , Gn3 , v072
	.byte	W09
	.byte	W96
	.byte	W08
	.byte		PAN   , c_v-20
	.byte	W84
	.byte		VOICE , 19
	.byte		PAN   , c_v+0
	.byte	W01
	.byte		N18   , Dn3 , v092
	.byte	W03
	.byte	PATT
	 .word	seq_007_4 + 0x5E
	.byte	PATT
	 .word	seq_007_4 + 0x6D
	.byte	PATT
	 .word	seq_007_4 + 0x5E
	.byte	PATT
	 .word	seq_007_4 + 0x8B
	.byte	PATT
	 .word	seq_007_4 + 0x5E
	.byte	PATT
	 .word	seq_007_4 + 0x6D
	.byte	PATT
	 .word	seq_007_4 + 0x5E
	.byte	W15
	.byte		N04   , Gn3 , v120
	.byte	W24
	.byte		N04
	.byte	W24
	.byte		N06
	.byte	W06
	.byte		N24   , Fs3 , v068
	.byte	W24
	.byte	W03
	.byte	W96
	.byte	W96
	.byte	W96
	.byte	W96
	.byte	W96
	.byte	W96
	.byte	W96
	.byte	W96
	.byte	W96
	.byte	W96
	.byte	W96
	.byte	W96
	.byte	W96
	.byte	W96
	.byte	W96
	.byte	W96
	.byte	GOTO
	 .word	seq_007_4 + 0x5E
	.byte	FINE

@*********************** Track 06 ***********************@

seq_007_5:
	.byte	KEYSH , seq_007_key+0
	.byte	W06
	.byte		VOICE , 6
	.byte	W01
	.byte		VOL   , 74*seq_007_mvl/mxv
	.byte	W01
	.byte		PAN   , c_v+20
	.byte	W01
	.byte		MODT  , mod_pan
	.byte	W15
	.byte	W15
	.byte		N04   , Dn2 , v120
	.byte	W24
	.byte		N04
	.byte	W24
	.byte		N04
	.byte	W24
	.byte		N04
	.byte	W09
	.byte	PEND
	.byte	W15
	.byte		N04   , Dn2 , v120
	.byte	W24
	.byte		N04
	.byte	W24
	.byte		N06
	.byte	W24
	.byte		N06
	.byte	W09
	.byte	PEND
	.byte	W15
	.byte		N04   , Cn2 
	.byte	W24
	.byte		N04
	.byte	W24
	.byte		N04
	.byte	W24
	.byte		N04
	.byte	W09
	.byte	W15
	.byte		N04
	.byte	W24
	.byte		N04
	.byte	W24
	.byte		N06
	.byte	W24
	.byte		N06
	.byte	W09
	.byte	PATT
	 .word	seq_007_5 + 0xF
	.byte	PATT
	 .word	seq_007_5 + 0x1B
	.byte	W96
	.byte	W92
	.byte		VOICE , 19
	.byte	W04
	.byte	W15
	.byte		N04   , Dn3 , v120
	.byte	W24
	.byte		N04
	.byte	W24
	.byte		N04
	.byte	W24
	.byte		N04
	.byte	W09
	.byte	PEND
	.byte	W15
	.byte		N04   , Dn3 , v120
	.byte	W24
	.byte		N04
	.byte	W24
	.byte		N06
	.byte	W24
	.byte		N06
	.byte	W09
	.byte	PEND
	.byte	W15
	.byte		N04   , Cn3 , v120
	.byte	W24
	.byte		N04
	.byte	W24
	.byte		N04
	.byte	W24
	.byte		N04
	.byte	W09
	.byte	PEND
	.byte	W15
	.byte		N04   , Cn3 , v120
	.byte	W24
	.byte		N04
	.byte	W24
	.byte		N06
	.byte	W06
	.byte		N24   , Dn3 , v052
	.byte	W23
	.byte		VOICE , 19
	.byte	W04
	.byte	PEND
	.byte	PATT
	 .word	seq_007_5 + 0x49
	.byte	PATT
	 .word	seq_007_5 + 0x55
	.byte	PATT
	 .word	seq_007_5 + 0x61
	.byte	W15
	.byte		N04   , Cn3 , v120
	.byte	W24
	.byte		N04
	.byte	W24
	.byte		N06
	.byte	W06
	.byte		N24   , Dn3 , v052
	.byte	W24
	.byte	W03
	.byte	PEND
	.byte	W96
	.byte	W96
	.byte	W96
	.byte	W96
	.byte	W96
	.byte	W96
	.byte	W96
	.byte	W92
	.byte		VOICE , 19
	.byte	W04
	.byte	PATT
	 .word	seq_007_5 + 0x49
	.byte	PATT
	 .word	seq_007_5 + 0x55
	.byte	PATT
	 .word	seq_007_5 + 0x61
	.byte	PATT
	 .word	seq_007_5 + 0x6D
	.byte	PATT
	 .word	seq_007_5 + 0x49
	.byte	PATT
	 .word	seq_007_5 + 0x55
	.byte	PATT
	 .word	seq_007_5 + 0x61
	.byte	PATT
	 .word	seq_007_5 + 0x8D
	.byte	W96
	.byte	W96
	.byte	W96
	.byte	W96
	.byte	W96
	.byte	W96
	.byte	W96
	.byte	W96
	.byte	W96
	.byte	W96
	.byte	W96
	.byte	W96
	.byte	W96
	.byte	W96
	.byte	W96
	.byte	W96
	.byte	GOTO
	 .word	seq_007_5 + 0x49
	.byte	FINE

@*********************** Track 07 ***********************@

seq_007_6:
	.byte	KEYSH , seq_007_key+0
	.byte	W12
	.byte		VOICE , 74
	.byte	W01
	.byte		VOL   , 78*seq_007_mvl/mxv
	.byte	W01
	.byte		PAN   , c_v-63
	.byte	W10
	.byte	W96
	.byte	W96
	.byte	W96
	.byte	W96
	.byte	W96
	.byte	W96
	.byte		N12   , Dn2 , v076
	.byte	W24
	.byte		        Gn2 
	.byte	W24
	.byte		        An2 
	.byte	W24
	.byte		        Bn2 
	.byte	W24
	.byte		        Cn3 
	.byte	W44
	.byte	W03
	.byte		PAN   , c_v+0
	.byte	W01
	.byte		N12   , Bn2 
	.byte	W18
	.byte		N01   , Bn2 , v012
	.byte	W06
	.byte		N24   , An2 , v076
	.byte	W24
	.byte		N12   , Gn2 , v076
	.byte	W24
	.byte		        Dn3 
	.byte	W18
	.byte		N06   , Gn2 , v060
	.byte	W06
	.byte		N12   , Dn3 , v076
	.byte	W24
	.byte		        En3 
	.byte	W18
	.byte		N06   , Gn2 , v060
	.byte	W06
	.byte	PEND
	.byte		N12   , Dn3 , v076
	.byte	W24
	.byte		N12
	.byte	W18
	.byte		N06   , Gn2 , v060
	.byte	W06
	.byte		N12   , Dn3 , v076
	.byte	W24
	.byte		N12
	.byte	W18
	.byte		N06   , Gn2 , v060
	.byte	W06
	.byte	PEND
	.byte		N12   , Cn3 , v076
	.byte	W24
	.byte		N12
	.byte	W18
	.byte		N06   , Gn2 , v060
	.byte	W06
	.byte		N12   , Cn3 , v076
	.byte	W24
	.byte		        Dn3 
	.byte	W18
	.byte		N06   , Gn2 , v060
	.byte	W06
	.byte	PEND
	.byte		N12   , Cn3 , v076
	.byte	W24
	.byte		N12
	.byte	W18
	.byte		N06   , Gn2 , v060
	.byte	W06
	.byte		N12   , Cn3 , v076
	.byte	W24
	.byte		        An2 
	.byte	W18
	.byte		N06   , Dn2 , v060
	.byte	W06
	.byte	PEND
	.byte	PATT
	 .word	seq_007_6 + 0x2D
	.byte	PATT
	 .word	seq_007_6 + 0x42
	.byte	PATT
	 .word	seq_007_6 + 0x57
	.byte	PATT
	 .word	seq_007_6 + 0x6C
	.byte		N12   , Gn2 , v076
	.byte	W24
	.byte		        Dn3 
	.byte	W18
	.byte		N06   , Gn2 , v060
	.byte	W06
	.byte		N12   , Dn3 , v076
	.byte	W24
	.byte		N12
	.byte	W18
	.byte		N06   , Gn2 , v060
	.byte	W06
	.byte	PEND
	.byte	PATT
	 .word	seq_007_6 + 0x42
	.byte		N12   , Cn3 , v076
	.byte	W24
	.byte		N12
	.byte	W18
	.byte		N06   , Gn2 , v060
	.byte	W06
	.byte		N12   , Cn3 , v076
	.byte	W24
	.byte		N12
	.byte	W18
	.byte		N06   , Gn2 , v060
	.byte	W06
	.byte		N12   , Cn3 , v076
	.byte	W24
	.byte		N12
	.byte	W18
	.byte		N06   , Gn2 , v060
	.byte	W06
	.byte		N12   , Cn3 , v076
	.byte	W24
	.byte		N12
	.byte	W18
	.byte		N06   , Dn2 , v060
	.byte	W06
	.byte	PATT
	 .word	seq_007_6 + 0x95
	.byte	PATT
	 .word	seq_007_6 + 0x42
	.byte		N12   , Dn3 , v076
	.byte	W48
	.byte		N12
	.byte	W48
	.byte		N12
	.byte	W18
	.byte		N01   , Dn3 , v012
	.byte	W06
	.byte		N18   , Cn3 , v076
	.byte	W18
	.byte		N01   , Cn3 , v012
	.byte	W06
	.byte		N12   , Bn2 , v076
	.byte	W18
	.byte		N01   , Bn2 , v012
	.byte	W06
	.byte		N24   , An2 , v076
	.byte	W24
	.byte	PATT
	 .word	seq_007_6 + 0x2D
	.byte	PATT
	 .word	seq_007_6 + 0x42
	.byte	PATT
	 .word	seq_007_6 + 0x57
	.byte	PATT
	 .word	seq_007_6 + 0x6C
	.byte	PATT
	 .word	seq_007_6 + 0x2D
	.byte	PATT
	 .word	seq_007_6 + 0x42
	.byte	PATT
	 .word	seq_007_6 + 0x57
	.byte		N12   , Cn3 , v076
	.byte	W24
	.byte		N12
	.byte	W18
	.byte		N06   , Gn2 , v060
	.byte	W06
	.byte		N12   , Cn3 , v076
	.byte	W24
	.byte		        An2 
	.byte	W18
	.byte		N06   , Dn2 , v060
	.byte	W02
	.byte		VOICE , 81
	.byte	W01
	.byte		MODT  , mod_vib
	.byte	W01
	.byte		MOD   , 4
	.byte	W02
	.byte		TIE   , Gn3 
	.byte	W96
	.byte	W96
	.byte		EOT
	.byte		TIE
	.byte	W96
	.byte	W96
	.byte		EOT
	.byte		TIE
	.byte	W96
	.byte	W96
	.byte		EOT
	.byte		TIE
	.byte	W96
	.byte	W92
	.byte		VOICE , 74
	.byte	W01
	.byte		MODT  , mod_pan
	.byte	W01
	.byte		MOD   , 0
	.byte	W02
	.byte		EOT
	.byte		N12   , Gn2 , v076
	.byte	W24
	.byte		        Fn3 
	.byte	W18
	.byte		N06   , Gn2 , v060
	.byte	W06
	.byte		N12   , Cn3 , v076
	.byte	W24
	.byte		        Fn3 
	.byte	W18
	.byte		N06   , Gn2 , v060
	.byte	W06
	.byte		N12   , Gn2 , v076
	.byte	W24
	.byte		        En3 
	.byte	W18
	.byte		N06   , Gn2 , v060
	.byte	W06
	.byte		N12   , Cn3 , v076
	.byte	W24
	.byte		        En3 
	.byte	W18
	.byte		N06   , Gn2 , v060
	.byte	W06
	.byte		N12   , Gn2 , v076
	.byte	W24
	.byte		        Ds3 
	.byte	W18
	.byte		N06   , Gn2 , v060
	.byte	W06
	.byte		N12   , Cn3 , v076
	.byte	W24
	.byte		        Ds3 
	.byte	W18
	.byte		N06   , Gn2 , v060
	.byte	W06
	.byte		N12   , Gn2 , v076
	.byte	W24
	.byte		        Dn3 
	.byte	W18
	.byte		N06   , Gn2 , v060
	.byte	W06
	.byte		N12   , Bn2 , v076
	.byte	W24
	.byte		        Dn3 
	.byte	W18
	.byte		N06   , Gn2 , v060
	.byte	W06
	.byte	PEND
	.byte		N12   , An2 , v076
	.byte	W24
	.byte		        Ds3 
	.byte	W18
	.byte		N06   , An2 , v060
	.byte	W06
	.byte		N12   , Cn3 , v076
	.byte	W24
	.byte		        Ds3 
	.byte	W18
	.byte		N06   , An2 , v060
	.byte	W06
	.byte	PATT
	 .word	seq_007_6 + 0x197
	.byte		N12   , En3 , v076
	.byte	W24
	.byte		        Cn3 
	.byte	W24
	.byte		        En3 
	.byte	W24
	.byte		        Cn3 
	.byte	W23
	.byte		PAN   , c_v-63
	.byte	W01
	.byte		N12   , Dn3 
	.byte	W24
	.byte		        An2 
	.byte	W24
	.byte		        Bn2 
	.byte	W18
	.byte		N01   , Bn2 , v012
	.byte	W06
	.byte		N24   , Cn3 , v076
	.byte	W23
	.byte		PAN   , c_v+0
	.byte	W01
	.byte	GOTO
	 .word	seq_007_6 + 0x2D
	.byte	FINE

@*********************** Track 08 ***********************@

seq_007_7:
	.byte	KEYSH , seq_007_key+0
	.byte	W12
	.byte		VOICE , 75
	.byte	W01
	.byte		VOL   , 78*seq_007_mvl/mxv
	.byte	W01
	.byte		PAN   , c_v+63
	.byte	W01
	.byte		MODT  , mod_pan
	.byte	W09
	.byte	W96
	.byte	W96
	.byte	W96
	.byte	W96
	.byte	W96
	.byte	W96
	.byte		N12   , Gn2 , v076
	.byte	W24
	.byte		        Bn2 
	.byte	W24
	.byte		        Cn3 
	.byte	W24
	.byte		        Dn3 
	.byte	W24
	.byte		        En3 
	.byte	W44
	.byte	W03
	.byte		PAN   , c_v+0
	.byte	W01
	.byte		N12   , Gn2 
	.byte	W18
	.byte		N01   , Gn2 , v012
	.byte	W06
	.byte		N24   , Cn3 , v076
	.byte	W23
	.byte		MOD   , 40
	.byte	W01
	.byte	W24
	.byte		N12   , Gn2 , v076
	.byte	W24
	.byte		N12
	.byte	W24
	.byte		N12
	.byte	W24
	.byte		N12   , Gn2 , v076
	.byte	W24
	.byte		N12
	.byte	W24
	.byte		N12
	.byte	W24
	.byte		N12
	.byte	W24
	.byte	PEND
	.byte	PATT
	 .word	seq_007_7 + 0x3C
	.byte		N12   , Gn2 , v076
	.byte	W24
	.byte		N12
	.byte	W24
	.byte		N12
	.byte	W24
	.byte		        Fs2 
	.byte	W24
	.byte	PEND
	.byte		N12   , Dn2 , v076
	.byte	W24
	.byte		        Gn2 
	.byte	W24
	.byte		N12
	.byte	W24
	.byte		N12
	.byte	W24
	.byte	PEND
	.byte	PATT
	 .word	seq_007_7 + 0x3C
	.byte	PATT
	 .word	seq_007_7 + 0x3C
	.byte	PATT
	 .word	seq_007_7 + 0x4C
	.byte	PATT
	 .word	seq_007_7 + 0x57
	.byte	PATT
	 .word	seq_007_7 + 0x3C
	.byte	PATT
	 .word	seq_007_7 + 0x3C
	.byte	PATT
	 .word	seq_007_7 + 0x4C
	.byte	PATT
	 .word	seq_007_7 + 0x57
	.byte	PATT
	 .word	seq_007_7 + 0x3C
	.byte		N12   , Gn2 , v076
	.byte	W48
	.byte		N12
	.byte	W48
	.byte		N12
	.byte	W18
	.byte		N01   , Gn2 , v012
	.byte	W06
	.byte		N24   , An2 , v076
	.byte	W24
	.byte		N12   , Gn2 
	.byte	W18
	.byte		N01   , Gn2 , v012
	.byte	W06
	.byte		N24   , Cn3 , v076
	.byte	W24
	.byte	PATT
	 .word	seq_007_7 + 0x57
	.byte	PATT
	 .word	seq_007_7 + 0x3C
	.byte	PATT
	 .word	seq_007_7 + 0x3C
	.byte	PATT
	 .word	seq_007_7 + 0x4C
	.byte	PATT
	 .word	seq_007_7 + 0x57
	.byte	PATT
	 .word	seq_007_7 + 0x3C
	.byte	PATT
	 .word	seq_007_7 + 0x3C
	.byte		N12   , Gn2 , v076
	.byte	W24
	.byte		N12
	.byte	W24
	.byte		N12
	.byte	W24
	.byte		        Fs2 
	.byte	W16
	.byte		VOICE , 82
	.byte	W01
	.byte		MODT  , mod_vib
	.byte	W01
	.byte		MOD   , 3
	.byte	W06
	.byte		TIE   , Cn3 , v052
	.byte	W96
	.byte	W96
	.byte		EOT
	.byte		TIE   , Bn2 
	.byte	W96
	.byte	W96
	.byte		EOT
	.byte		TIE   , Cn3 
	.byte	W96
	.byte	W96
	.byte		EOT
	.byte		TIE   , Bn2 
	.byte	W96
	.byte	W88
	.byte		VOICE , 75
	.byte	W01
	.byte		MODT  , mod_pan
	.byte	W01
	.byte		MOD   , 40
	.byte	W06
	.byte		EOT
	.byte	W24
	.byte		N12   , Gn2 , v076
	.byte	W24
	.byte		N12
	.byte	W24
	.byte		        Cn3 
	.byte	W24
	.byte	PEND
	.byte	PATT
	 .word	seq_007_7 + 0xFE
	.byte	PATT
	 .word	seq_007_7 + 0xFE
	.byte	W24
	.byte		N12   , Gn2 , v076
	.byte	W24
	.byte		N12
	.byte	W24
	.byte		        Bn2 
	.byte	W24
	.byte	PEND
	.byte	W24
	.byte		        An2 
	.byte	W24
	.byte		N12
	.byte	W24
	.byte		        Cn3 
	.byte	W24
	.byte	PATT
	 .word	seq_007_7 + 0x112
	.byte		N12   , Cn3 , v076
	.byte	W24
	.byte		        An2 
	.byte	W24
	.byte		        Cn3 
	.byte	W24
	.byte		        An2 
	.byte	W23
	.byte		PAN   , c_v+63
	.byte	W01
	.byte		N12
	.byte	W24
	.byte		        Fs2 
	.byte	W24
	.byte		        Gn2 
	.byte	W18
	.byte		N01   , Gn2 , v012
	.byte	W06
	.byte		N24   , Fs2 , v076
	.byte	W23
	.byte		PAN   , c_v+0
	.byte	W01
	.byte	GOTO
	 .word	seq_007_7 + 0x33
	.byte	FINE

@*********************** Track 09 ***********************@

seq_007_8:
	.byte	KEYSH , seq_007_key+0
	.byte	W12
	.byte		VOICE , 65
	.byte	W01
	.byte		VOL   , 100*seq_007_mvl/mxv
	.byte	W01
	.byte		PAN   , c_v+0
	.byte	W01
	.byte		BENDR , 12
	.byte	W01
	.byte		BEND  , c_v+0
	.byte	W08
	.byte		N96   , Gn1 , v127
	.byte	W96
	.byte		N96
	.byte	W96
	.byte		        Cn2 
	.byte	W96
	.byte		N96
	.byte	W96
	.byte		        Gn1 
	.byte	W96
	.byte		N96
	.byte	W96
	.byte		        Cn2 
	.byte	W92
	.byte	W03
	.byte		BEND  , c_v-6
	.byte	W01
	.byte		N16   , Cn2 , v112
	.byte	W02
	.byte		BEND  , c_v+0
	.byte	W21
	.byte		        c_v-6
	.byte	W03
	.byte		        c_v+0
	.byte	W16
	.byte		N06   , Gn1 
	.byte	W05
	.byte		BEND  , c_v-27
	.byte	W01
	.byte		N10   , Bn1 
	.byte	W02
	.byte		BEND  , c_v-22
	.byte	W01
	.byte		        c_v-16
	.byte	W01
	.byte		        c_v-11
	.byte	W01
	.byte		        c_v+0
	.byte	W13
	.byte		N01   , Gn1 
	.byte	W05
	.byte		BEND  , c_v-6
	.byte	W01
	.byte		N24   , Cn2 
	.byte	W02
	.byte		BEND  , c_v+0
	.byte	W21
	.byte		        c_v-27
	.byte	W01
	.byte		N18   , Gn1 , v080
	.byte	W02
	.byte		BEND  , c_v-22
	.byte	W01
	.byte		        c_v-16
	.byte	W01
	.byte		        c_v-11
	.byte	W01
	.byte		        c_v+0
	.byte	W13
	.byte		N06   , Gn2 , v112
	.byte	W24
	.byte		        Dn2 
	.byte	W05
	.byte		BEND  , c_v-27
	.byte	W01
	.byte		N18   , Gn2 , v080
	.byte	W02
	.byte		BEND  , c_v-22
	.byte	W01
	.byte		        c_v-16
	.byte	W01
	.byte		        c_v-11
	.byte	W01
	.byte		        c_v+0
	.byte	W13
	.byte		N06   , Cn2 , v112
	.byte	W05
	.byte		BEND  , c_v-6
	.byte	W01
	.byte		N18   , Dn2 , v092
	.byte	W02
	.byte		BEND  , c_v+0
	.byte	W16
	.byte		N06   , Cn2 , v112
	.byte	W05
	.byte		BEND  , c_v-27
	.byte	W01
	.byte	PEND
	.byte		N18   , Dn2 , v080
	.byte	W02
	.byte		BEND  , c_v-22
	.byte	W01
	.byte		        c_v-16
	.byte	W01
	.byte		        c_v-11
	.byte	W01
	.byte		        c_v+0
	.byte	W13
	.byte		N06   , Gn2 , v112
	.byte	W24
	.byte		        Dn2 
	.byte	W05
	.byte		BEND  , c_v-27
	.byte	W01
	.byte		N18   , Gn2 , v080
	.byte	W02
	.byte		BEND  , c_v-22
	.byte	W01
	.byte		        c_v-16
	.byte	W01
	.byte		        c_v-11
	.byte	W01
	.byte		        c_v+0
	.byte	W13
	.byte		N06   , Cn2 , v112
	.byte	W05
	.byte		BEND  , c_v-6
	.byte	W01
	.byte		N18   , Dn2 , v092
	.byte	W02
	.byte		BEND  , c_v+0
	.byte	W16
	.byte		N06   , Bn1 , v112
	.byte	W05
	.byte		BEND  , c_v-27
	.byte	W01
	.byte	PEND
	.byte		N18   , Cn2 , v080
	.byte	W02
	.byte		BEND  , c_v-22
	.byte	W01
	.byte		        c_v-16
	.byte	W01
	.byte		        c_v-11
	.byte	W01
	.byte		        c_v+0
	.byte	W13
	.byte		N06   , Gn2 , v112
	.byte	W24
	.byte		        Gn1 
	.byte	W05
	.byte		BEND  , c_v-27
	.byte	W01
	.byte		N18   , Cn2 , v080
	.byte	W02
	.byte		BEND  , c_v-22
	.byte	W01
	.byte		        c_v-16
	.byte	W01
	.byte		        c_v-11
	.byte	W01
	.byte		        c_v+0
	.byte	W13
	.byte		N06   , Gn1 , v112
	.byte	W05
	.byte		BEND  , c_v-6
	.byte	W01
	.byte		N18   , An1 , v092
	.byte	W02
	.byte		BEND  , c_v+0
	.byte	W16
	.byte		N06   , Bn1 , v112
	.byte	W05
	.byte		BEND  , c_v-27
	.byte	W01
	.byte	PEND
	.byte		N18   , Cn2 , v080
	.byte	W02
	.byte		BEND  , c_v-22
	.byte	W01
	.byte		        c_v-16
	.byte	W01
	.byte		        c_v-11
	.byte	W01
	.byte		        c_v+0
	.byte	W13
	.byte		N06   , Gn2 , v112
	.byte	W24
	.byte		        Gn1 
	.byte	W05
	.byte		BEND  , c_v-27
	.byte	W01
	.byte		N18   , Cn2 , v080
	.byte	W02
	.byte		BEND  , c_v-22
	.byte	W01
	.byte		        c_v-16
	.byte	W01
	.byte		        c_v-11
	.byte	W01
	.byte		        c_v+0
	.byte	W13
	.byte		N06   , Gn1 , v112
	.byte	W05
	.byte		BEND  , c_v-6
	.byte	W01
	.byte		N18   , Bn1 , v080
	.byte	W02
	.byte		BEND  , c_v+0
	.byte	W16
	.byte		N06   , Cn2 , v112
	.byte	W05
	.byte		BEND  , c_v-27
	.byte	W01
	.byte	PEND
	.byte	PATT
	 .word	seq_007_8 + 0x51
	.byte	PATT
	 .word	seq_007_8 + 0x8A
	.byte	PATT
	 .word	seq_007_8 + 0xC3
	.byte	PATT
	 .word	seq_007_8 + 0xFC
	.byte	PATT
	 .word	seq_007_8 + 0x51
	.byte	PATT
	 .word	seq_007_8 + 0x8A
	.byte	PATT
	 .word	seq_007_8 + 0xC3
	.byte	PATT
	 .word	seq_007_8 + 0xFC
	.byte		N18   , Dn2 , v080
	.byte	W02
	.byte		BEND  , c_v-22
	.byte	W01
	.byte		        c_v-16
	.byte	W01
	.byte		        c_v-11
	.byte	W01
	.byte		        c_v+0
	.byte	W13
	.byte		N06   , Gn2 , v112
	.byte	W24
	.byte		        Dn2 
	.byte	W05
	.byte		BEND  , c_v-27
	.byte	W01
	.byte		N18   , Gn2 , v080
	.byte	W02
	.byte		BEND  , c_v-22
	.byte	W01
	.byte		        c_v-16
	.byte	W01
	.byte		        c_v-11
	.byte	W01
	.byte		        c_v+0
	.byte	W13
	.byte		N06   , Cn2 , v112
	.byte	W05
	.byte		BEND  , c_v-6
	.byte	W01
	.byte		N18   , Dn2 , v080
	.byte	W02
	.byte		BEND  , c_v+0
	.byte	W16
	.byte		N06   , Cn2 , v112
	.byte	W05
	.byte		BEND  , c_v-27
	.byte	W01
	.byte		N18   , Dn2 , v080
	.byte	W02
	.byte		BEND  , c_v-22
	.byte	W01
	.byte		        c_v-16
	.byte	W01
	.byte		        c_v-11
	.byte	W01
	.byte		        c_v+0
	.byte	W13
	.byte		N06   , Gn2 , v112
	.byte	W24
	.byte		        Dn2 
	.byte	W05
	.byte		BEND  , c_v-27
	.byte	W01
	.byte		N18   , Gn2 , v080
	.byte	W02
	.byte		BEND  , c_v-22
	.byte	W01
	.byte		        c_v-16
	.byte	W01
	.byte		        c_v-11
	.byte	W01
	.byte		        c_v+0
	.byte	W13
	.byte		N06   , Dn2 , v112
	.byte	W05
	.byte		BEND  , c_v-6
	.byte	W01
	.byte		N18   , En2 , v080
	.byte	W02
	.byte		BEND  , c_v+0
	.byte	W16
	.byte		N06   , Dn2 , v112
	.byte	W05
	.byte		BEND  , c_v-27
	.byte	W01
	.byte		N24   , Cn2 , v080
	.byte	W02
	.byte		BEND  , c_v-22
	.byte	W01
	.byte		        c_v-16
	.byte	W01
	.byte		        c_v-11
	.byte	W01
	.byte		        c_v+0
	.byte	W19
	.byte		N01   , Gn1 , v112
	.byte	W23
	.byte		BEND  , c_v-27
	.byte	W01
	.byte		N24   , Cn2 , v080
	.byte	W02
	.byte		BEND  , c_v-22
	.byte	W01
	.byte		        c_v-16
	.byte	W01
	.byte		        c_v-11
	.byte	W01
	.byte		        c_v+0
	.byte	W19
	.byte		N01   , Gn1 , v112
	.byte	W23
	.byte		BEND  , c_v-6
	.byte	W01
	.byte		N10   , Dn2 
	.byte	W02
	.byte		BEND  , c_v+0
	.byte	W16
	.byte		N06   , Gn1 , v080
	.byte	W05
	.byte		BEND  , c_v-6
	.byte	W01
	.byte		N24   , Cn2 , v112
	.byte	W02
	.byte		BEND  , c_v+0
	.byte	W21
	.byte		        c_v-27
	.byte	W01
	.byte		N10   , Bn1 
	.byte	W02
	.byte		BEND  , c_v-22
	.byte	W01
	.byte		        c_v-16
	.byte	W01
	.byte		        c_v-11
	.byte	W01
	.byte		        c_v+0
	.byte	W18
	.byte		        c_v-6
	.byte	W01
	.byte		N24   , Cn2 
	.byte	W02
	.byte		BEND  , c_v+0
	.byte	W21
	.byte		        c_v-27
	.byte	W01
	.byte		N18   , Gn1 , v092
	.byte	W02
	.byte		BEND  , c_v-22
	.byte	W01
	.byte		        c_v-16
	.byte	W01
	.byte		        c_v-11
	.byte	W01
	.byte		        c_v+0
	.byte	W13
	.byte		N06   , Gn2 , v112
	.byte	W24
	.byte		        Dn2 
	.byte	W05
	.byte		BEND  , c_v-27
	.byte	W01
	.byte		N18   , Gn2 , v080
	.byte	W02
	.byte		BEND  , c_v-22
	.byte	W01
	.byte		        c_v-16
	.byte	W01
	.byte		        c_v-11
	.byte	W01
	.byte		        c_v+0
	.byte	W13
	.byte		N06   , Cn2 , v112
	.byte	W05
	.byte		BEND  , c_v-6
	.byte	W01
	.byte		N18   , Dn2 , v092
	.byte	W02
	.byte		BEND  , c_v+0
	.byte	W16
	.byte		N06   , Cn2 , v112
	.byte	W05
	.byte		BEND  , c_v-27
	.byte	W01
	.byte	PEND
	.byte		N18   , Dn2 , v092
	.byte	W02
	.byte		BEND  , c_v-22
	.byte	W01
	.byte		        c_v-16
	.byte	W01
	.byte		        c_v-11
	.byte	W01
	.byte		        c_v+0
	.byte	W13
	.byte		N06   , Gn2 , v112
	.byte	W24
	.byte		        Dn2 
	.byte	W05
	.byte		BEND  , c_v-27
	.byte	W01
	.byte		N18   , Gn2 , v080
	.byte	W02
	.byte		BEND  , c_v-22
	.byte	W01
	.byte		        c_v-16
	.byte	W01
	.byte		        c_v-11
	.byte	W01
	.byte		        c_v+0
	.byte	W13
	.byte		N06   , Cn2 , v112
	.byte	W05
	.byte		BEND  , c_v-6
	.byte	W01
	.byte		N18   , Dn2 , v092
	.byte	W02
	.byte		BEND  , c_v+0
	.byte	W16
	.byte		N06   , Bn1 , v112
	.byte	W05
	.byte		BEND  , c_v-27
	.byte	W01
	.byte	PEND
	.byte		N18   , Cn2 , v092
	.byte	W02
	.byte		BEND  , c_v-22
	.byte	W01
	.byte		        c_v-16
	.byte	W01
	.byte		        c_v-11
	.byte	W01
	.byte		        c_v+0
	.byte	W13
	.byte		N06   , Gn2 , v112
	.byte	W24
	.byte		        Cn2 
	.byte	W05
	.byte		BEND  , c_v-27
	.byte	W01
	.byte		N18   , Gn2 , v080
	.byte	W02
	.byte		BEND  , c_v-22
	.byte	W01
	.byte		        c_v-16
	.byte	W01
	.byte		        c_v-11
	.byte	W01
	.byte		        c_v+0
	.byte	W13
	.byte		N06   , Bn1 , v112
	.byte	W05
	.byte		BEND  , c_v-6
	.byte	W01
	.byte		N18   , Cn2 , v092
	.byte	W02
	.byte		BEND  , c_v+0
	.byte	W16
	.byte		N06   , Bn1 , v112
	.byte	W05
	.byte		BEND  , c_v-27
	.byte	W01
	.byte	PEND
	.byte		N18   , Cn2 , v092
	.byte	W02
	.byte		BEND  , c_v-22
	.byte	W01
	.byte		        c_v-16
	.byte	W01
	.byte		        c_v-11
	.byte	W01
	.byte		        c_v+0
	.byte	W13
	.byte		N06   , Gn2 , v112
	.byte	W24
	.byte		        Gn1 
	.byte	W05
	.byte		BEND  , c_v-27
	.byte	W01
	.byte		N18   , Cn2 , v092
	.byte	W02
	.byte		BEND  , c_v-22
	.byte	W01
	.byte		        c_v-16
	.byte	W01
	.byte		        c_v-11
	.byte	W01
	.byte		        c_v+0
	.byte	W13
	.byte		N06   , Gn1 , v112
	.byte	W05
	.byte		BEND  , c_v-6
	.byte	W01
	.byte		N18   , Bn1 , v092
	.byte	W02
	.byte		BEND  , c_v+0
	.byte	W16
	.byte		N06   , Cn2 , v112
	.byte	W05
	.byte		BEND  , c_v-27
	.byte	W01
	.byte	PATT
	 .word	seq_007_8 + 0x221
	.byte	PATT
	 .word	seq_007_8 + 0x25A
	.byte	PATT
	 .word	seq_007_8 + 0x293
	.byte		N18   , Cn2 , v092
	.byte	W02
	.byte		BEND  , c_v-22
	.byte	W01
	.byte		        c_v-16
	.byte	W01
	.byte		        c_v-11
	.byte	W01
	.byte		        c_v+0
	.byte	W13
	.byte		N06   , Gn2 , v112
	.byte	W24
	.byte		        Gn1 
	.byte	W05
	.byte		BEND  , c_v-27
	.byte	W01
	.byte		N24   , Dn1 
	.byte	W02
	.byte		BEND  , c_v-22
	.byte	W01
	.byte		        c_v-16
	.byte	W01
	.byte		        c_v-11
	.byte	W01
	.byte		        c_v+0
	.byte	W18
	.byte		        c_v-6
	.byte	W01
	.byte		N24   , Bn1 , v080
	.byte	W02
	.byte		BEND  , c_v+0
	.byte	W21
	.byte		        c_v+0
	.byte	W01
	.byte		TIE   , Cn2 , v100
	.byte	W96
	.byte	W96
	.byte		EOT
	.byte		TIE   , Bn1 
	.byte	W96
	.byte	W96
	.byte		EOT
	.byte		TIE   , Cn2 
	.byte	W96
	.byte	W96
	.byte		EOT
	.byte		TIE   , Bn1 
	.byte	W96
	.byte	W92
	.byte	W03
	.byte		BEND  , c_v-27
	.byte	W01
	.byte		EOT
	.byte		N18   , Fn2 , v080
	.byte	W02
	.byte		BEND  , c_v-22
	.byte	W01
	.byte		        c_v-16
	.byte	W01
	.byte		        c_v-11
	.byte	W01
	.byte		        c_v+0
	.byte	W13
	.byte		N06
	.byte	W06
	.byte		        Fn1 , v112
	.byte	W18
	.byte		N24   , Fn2 , v080
	.byte	W24
	.byte		N06   , Cn2 , v112
	.byte	W06
	.byte		N18   , Fn2 , v080
	.byte	W18
	.byte		N06   , Cn2 , v112
	.byte	W06
	.byte		N18   , En2 , v080
	.byte	W18
	.byte		N06
	.byte	W06
	.byte		        Gn1 , v112
	.byte	W18
	.byte		N24   , En2 , v080
	.byte	W24
	.byte		N06   , Cn2 , v112
	.byte	W06
	.byte		N18   , En2 , v080
	.byte	W18
	.byte		N06   , Cn2 , v112
	.byte	W06
	.byte		N18   , Ds2 , v080
	.byte	W18
	.byte		N06
	.byte	W06
	.byte		        Gn1 , v112
	.byte	W18
	.byte		N24   , Ds2 , v080
	.byte	W24
	.byte		N06   , Cn2 , v112
	.byte	W06
	.byte		N18   , Ds2 , v080
	.byte	W18
	.byte		N06   , Cn2 , v112
	.byte	W06
	.byte		N18   , Dn2 , v080
	.byte	W18
	.byte		N06
	.byte	W06
	.byte		        Gn1 , v112
	.byte	W18
	.byte		N24   , Dn2 , v080
	.byte	W24
	.byte		N06   , Gn1 , v112
	.byte	W06
	.byte		N18   , An1 , v080
	.byte	W18
	.byte		N06   , Bn1 , v112
	.byte	W06
	.byte		N18   , Cn2 , v080
	.byte	W18
	.byte		N06
	.byte	W06
	.byte		        Gn1 , v112
	.byte	W18
	.byte		N24   , Cn2 , v080
	.byte	W24
	.byte		N06   , Gn1 , v112
	.byte	W06
	.byte		N18   , Cn2 , v080
	.byte	W18
	.byte		N06   , Gn1 , v112
	.byte	W06
	.byte		N18   , Bn1 , v080
	.byte	W18
	.byte		N06
	.byte	W06
	.byte		        Gn1 , v112
	.byte	W18
	.byte		N24   , Bn1 , v080
	.byte	W24
	.byte		N06   , Gn1 , v112
	.byte	W06
	.byte		N18   , Bn1 , v080
	.byte	W18
	.byte		N06   , Gn1 , v112
	.byte	W06
	.byte		N24   , An1 
	.byte	W24
	.byte		N06   , Dn1 
	.byte	W24
	.byte		N24   , An1 
	.byte	W24
	.byte		N06   , Dn1 
	.byte	W24
	.byte		N10   , Dn2 
	.byte	W24
	.byte		N18   , Dn1 
	.byte	W18
	.byte		N01
	.byte	W06
	.byte		N10   , Bn1 
	.byte	W18
	.byte		N01   , Dn1 
	.byte	W06
	.byte		N24   , Cn2 
	.byte	W24
	.byte	GOTO
	 .word	seq_007_8 + 0x51
	.byte	FINE

@*********************** Track 10 ***********************@

seq_007_9:
	.byte	KEYSH , seq_007_key+0
	.byte	W18
	.byte		VOICE , 127
	.byte	W01
	.byte		VOL   , 100*seq_007_mvl/mxv
	.byte	W01
	.byte		PAN   , c_v+0
	.byte	W04
	.byte		N12   , Fs3 , v127
	.byte	W24
	.byte		N03   , Gs3 , v100
	.byte	W03
	.byte		        Gs3 , v052
	.byte	W15
	.byte		        Gs3 , v100
	.byte	W03
	.byte		        Gs3 , v052
	.byte	W03
	.byte		N05   , Gn1 , v080
	.byte	W48
	.byte	PEND
	.byte	PATT
	 .word	seq_007_9 + 0xC
	.byte		N12   , Fs3 , v127
	.byte	W18
	.byte		N03   , Gs3 , v100
	.byte	W03
	.byte		        Gs3 , v052
	.byte	W24
	.byte	W03
	.byte		N05   , Gn1 , v080
	.byte	W48
	.byte	PEND
	.byte		N12   , Fs3 , v127
	.byte	W48
	.byte		N12
	.byte	W24
	.byte		N12
	.byte	W24
	.byte		N12
	.byte	W18
	.byte		N03   , Gs3 , v100
	.byte	W03
	.byte		        Gs3 , v052
	.byte	W24
	.byte	W03
	.byte		N05   , Gn1 , v080
	.byte	W24
	.byte		N12   , Fs3 , v127
	.byte	W18
	.byte		N04   , Fs2 , v100
	.byte	W06
	.byte		N12   , Fs3 , v127
	.byte	W18
	.byte		N03   , Gs3 , v100
	.byte	W03
	.byte		        Gs3 , v052
	.byte	W21
	.byte		        Gs3 , v100
	.byte	W03
	.byte		        Gs3 , v052
	.byte	W03
	.byte		N05   , Gn1 , v080
	.byte	W24
	.byte		N05
	.byte	W24
	.byte	PATT
	 .word	seq_007_9 + 0x27
	.byte		N12   , Fs3 , v127
	.byte	W42
	.byte		N03   , Gs3 , v100
	.byte	W03
	.byte		        Gs3 , v052
	.byte	W03
	.byte		N05   , Gn1 , v080
	.byte	W18
	.byte		N03   , Gs3 , v100
	.byte	W03
	.byte		        Gs3 , v052
	.byte	W03
	.byte		N05   , Gn1 , v080
	.byte	W24
	.byte		N12   , Fs3 , v127
	.byte	W18
	.byte		N03   , Gs3 , v100
	.byte	W03
	.byte		        Gs3 , v052
	.byte	W03
	.byte		N13   , Gn1 , v080
	.byte	W24
	.byte		N12   , Fs3 , v127
	.byte	W24
	.byte		        Fs2 , v100
	.byte	W24
	.byte	PEND
	.byte		N12   , Fs3 , v127
	.byte	W18
	.byte		N03   , Gs3 , v100
	.byte	W03
	.byte		        Gs3 , v052
	.byte	W03
	.byte		N13   , Gn1 , v080
	.byte	W18
	.byte		N03   , Gs3 , v100
	.byte	W03
	.byte		        Gs3 , v052
	.byte	W03
	.byte		N12   , Fs3 , v127
	.byte	W24
	.byte		N12
	.byte	W24
	.byte	PEND
	.byte		N12   , Fs3 , v127
	.byte	W18
	.byte		N03   , Gs3 , v100
	.byte	W03
	.byte		        Gs3 , v052
	.byte	W03
	.byte		N12   , Gn1 , v080
	.byte	W24
	.byte		        Fs3 , v127
	.byte	W24
	.byte		        Fs2 , v100
	.byte	W18
	.byte		N06   , Fs2 , v060
	.byte	W06
	.byte	PEND
	.byte		N12   , Fs3 , v127
	.byte	W18
	.byte		N03   , Gs3 , v100
	.byte	W03
	.byte		        Gs3 , v052
	.byte	W03
	.byte		N12   , Gn1 , v080
	.byte	W18
	.byte		N03   , Gs3 , v100
	.byte	W03
	.byte		        Gs3 , v052
	.byte	W03
	.byte		N12   , Fs3 , v127
	.byte	W18
	.byte		N06   , Fs2 , v100
	.byte	W06
	.byte		N12   , Fs3 , v127
	.byte	W18
	.byte		N06   , Fs2 , v060
	.byte	W06
	.byte	PEND
	.byte	PATT
	 .word	seq_007_9 + 0x8C
	.byte	PATT
	 .word	seq_007_9 + 0xA3
	.byte	PATT
	 .word	seq_007_9 + 0xC0
	.byte	PATT
	 .word	seq_007_9 + 0xDA
	.byte	PATT
	 .word	seq_007_9 + 0x8C
	.byte	PATT
	 .word	seq_007_9 + 0xA3
	.byte	PATT
	 .word	seq_007_9 + 0xC0
	.byte	PATT
	 .word	seq_007_9 + 0xDA
	.byte		N12   , Fs3 , v127
	.byte	W18
	.byte		N03   , Gs3 , v100
	.byte	W03
	.byte		        Gs3 , v052
	.byte	W03
	.byte		N12   , Gn1 , v080
	.byte	W24
	.byte		        Fs3 , v127
	.byte	W24
	.byte		        Fs2 , v100
	.byte	W24
	.byte		        Fs3 , v127
	.byte	W18
	.byte		N03   , Gs3 , v100
	.byte	W03
	.byte		        Gs3 , v052
	.byte	W03
	.byte		N12   , Gn1 , v080
	.byte	W18
	.byte		N03   , Gs3 , v100
	.byte	W03
	.byte		        Gs3 , v052
	.byte	W03
	.byte		N12   , Fs3 , v127
	.byte	W24
	.byte		N12
	.byte	W24
	.byte		N12
	.byte	W24
	.byte		        Gn1 , v080
	.byte	W24
	.byte		        Fs3 , v127
	.byte	W24
	.byte		        Gn1 , v080
	.byte	W24
	.byte		        Fs3 , v127
	.byte	W24
	.byte		N06   , An4 , v060
	.byte	W18
	.byte		N03   , Fs2 , v100
	.byte	W03
	.byte		        Fs2 , v052
	.byte	W03
	.byte		N12   , Fs3 , v127
	.byte	W24
	.byte		N06   , An4 , v060
	.byte	W24
	.byte	PATT
	 .word	seq_007_9 + 0x8C
	.byte	PATT
	 .word	seq_007_9 + 0xA3
	.byte	PATT
	 .word	seq_007_9 + 0xC0
	.byte	PATT
	 .word	seq_007_9 + 0xDA
	.byte	PATT
	 .word	seq_007_9 + 0x8C
	.byte	PATT
	 .word	seq_007_9 + 0xA3
	.byte	PATT
	 .word	seq_007_9 + 0xC0
	.byte	PATT
	 .word	seq_007_9 + 0xDA
	.byte		N12   , Fs3 , v127
	.byte	W24
	.byte		N04   , Fs2 , v100
	.byte	W18
	.byte		        Fs2 , v040
	.byte	W06
	.byte		N17   , Gn1 , v080
	.byte	W24
	.byte		N06   , An4 , v060
	.byte	W24
	.byte	PEND
	.byte		N12   , Fs3 , v127
	.byte	W24
	.byte		N04   , Fs2 , v100
	.byte	W18
	.byte		        Fs2 , v040
	.byte	W06
	.byte		N17   , Gn1 , v080
	.byte	W48
	.byte	PEND
	.byte	PATT
	 .word	seq_007_9 + 0x1A2
	.byte		N12   , Fs3 , v127
	.byte	W24
	.byte		N04   , Fs2 , v100
	.byte	W18
	.byte		        Fs2 , v040
	.byte	W06
	.byte		N17   , Gn1 , v080
	.byte	W18
	.byte		N06   , Gs3 , v100
	.byte	W24
	.byte		N06
	.byte	W06
	.byte	PEND
	.byte	PATT
	 .word	seq_007_9 + 0x1A2
	.byte	PATT
	 .word	seq_007_9 + 0x1B6
	.byte	PATT
	 .word	seq_007_9 + 0x1A2
	.byte	PATT
	 .word	seq_007_9 + 0x1CB
	.byte	PATT
	 .word	seq_007_9 + 0x8C
	.byte	PATT
	 .word	seq_007_9 + 0xA3
	.byte	PATT
	 .word	seq_007_9 + 0xC0
	.byte	PATT
	 .word	seq_007_9 + 0xDA
	.byte	PATT
	 .word	seq_007_9 + 0x8C
	.byte	PATT
	 .word	seq_007_9 + 0xA3
	.byte		N12   , Fs3 , v127
	.byte	W18
	.byte		N03   , Gs3 , v100
	.byte	W03
	.byte		        Gs3 , v052
	.byte	W03
	.byte		N12   , Gn1 , v080
	.byte		N18   , An4 , v060
	.byte	W18
	.byte		N06   , Gs4 
	.byte	W06
	.byte		N12   , Fs3 , v127
	.byte	W24
	.byte		        Fs2 , v100
	.byte		N18   , An4 , v060
	.byte	W18
	.byte		N06   , Fs2 
	.byte		N06   , Gs4 
	.byte	W06
	.byte		N12   , Fs3 , v127
	.byte	W18
	.byte		N03   , Gs3 , v100
	.byte	W03
	.byte		        Gs3 , v052
	.byte	W03
	.byte		N12   , Gn1 , v080
	.byte	W18
	.byte		N03   , Gs3 , v100
	.byte	W03
	.byte		        Gs3 , v052
	.byte	W03
	.byte		N05   , Gn1 , v080
	.byte		N12   , Fs3 , v127
	.byte	W18
	.byte		N06   , Fs2 , v100
	.byte	W06
	.byte		N05   , Gn1 , v080
	.byte		N12   , Fs3 , v127
	.byte	W18
	.byte		N06   , Fs2 , v060
	.byte	W06
	.byte	GOTO
	 .word	seq_007_9 + 0x8C
	.byte	FINE

@*********************** Track 11 ***********************@

seq_007_10:
	.byte	KEYSH , seq_007_key+0
	.byte	W18
	.byte		VOICE , 120
	.byte	W01
	.byte		VOL   , 98*seq_007_mvl/mxv
	.byte	W01
	.byte		PAN   , c_v+0
	.byte	W04
	.byte	W96
	.byte	W96
	.byte		N06   , Cn2 , v120
	.byte	W96
	.byte		N06
	.byte	W96
	.byte		        Gn1 , v127
	.byte	W96
	.byte		N06
	.byte	W96
	.byte		        Cn2 
	.byte	W72
	.byte		        Gn1 
	.byte	W24
	.byte		        Cn1 , v120
	.byte	W92
	.byte	W03
	.byte		VOICE , 123
	.byte	W01
	.byte		N12   , Dn3 , v127
	.byte	W42
	.byte		        Gn3 , v040
	.byte	W30
	.byte		        Gn3 , v120
	.byte	W24
	.byte	PEND
	.byte	W42
	.byte		N12   , Gn3 , v040
	.byte	W30
	.byte		        Gn3 , v120
	.byte	W24
	.byte	PEND
	.byte		N12   , Dn3 , v127
	.byte	W48
	.byte		N12
	.byte	W48
	.byte	PEND
	.byte		N12   , Dn3 , v120
	.byte	W48
	.byte		N12
	.byte	W44
	.byte	W03
	.byte		VOICE , 123
	.byte	W01
	.byte	PEND
	.byte	PATT
	 .word	seq_007_10 + 0x24
	.byte	PATT
	 .word	seq_007_10 + 0x2F
	.byte	PATT
	 .word	seq_007_10 + 0x38
	.byte	PATT
	 .word	seq_007_10 + 0x3F
	.byte	PATT
	 .word	seq_007_10 + 0x24
	.byte	PATT
	 .word	seq_007_10 + 0x2F
	.byte	PATT
	 .word	seq_007_10 + 0x38
	.byte		N12   , Dn3 , v120
	.byte	W48
	.byte		N12
	.byte	W48
	.byte	PEND
	.byte	PATT
	 .word	seq_007_10 + 0x24
	.byte	PATT
	 .word	seq_007_10 + 0x2F
	.byte	PATT
	 .word	seq_007_10 + 0x38
	.byte		N12   , Gn3 , v120
	.byte	W24
	.byte		N12
	.byte	W24
	.byte		N12
	.byte	W24
	.byte		N12
	.byte	W23
	.byte		VOICE , 123
	.byte	W01
	.byte	PATT
	 .word	seq_007_10 + 0x24
	.byte	PATT
	 .word	seq_007_10 + 0x2F
	.byte	PATT
	 .word	seq_007_10 + 0x38
	.byte	PATT
	 .word	seq_007_10 + 0x3F
	.byte	PATT
	 .word	seq_007_10 + 0x24
	.byte	PATT
	 .word	seq_007_10 + 0x2F
	.byte	PATT
	 .word	seq_007_10 + 0x38
	.byte	PATT
	 .word	seq_007_10 + 0x6D
	.byte		N12   , Dn3 , v127
	.byte	W96
	.byte	W96
	.byte		N12
	.byte	W96
	.byte	W42
	.byte		N12   , Gn3 , v072
	.byte	W30
	.byte		        Gn3 , v120
	.byte	W24
	.byte	PEND
	.byte		        Dn3 , v127
	.byte	W96
	.byte	W96
	.byte		N12
	.byte	W96
	.byte	PATT
	 .word	seq_007_10 + 0xBF
	.byte		N12   , Dn3 , v127
	.byte	W42
	.byte		        Gn3 , v072
	.byte	W30
	.byte		        Gn3 , v127
	.byte	W24
	.byte	PEND
	.byte	PATT
	 .word	seq_007_10 + 0xBF
	.byte	PATT
	 .word	seq_007_10 + 0xD3
	.byte	PATT
	 .word	seq_007_10 + 0xBF
	.byte	PATT
	 .word	seq_007_10 + 0xD3
	.byte	PATT
	 .word	seq_007_10 + 0xBF
	.byte	PATT
	 .word	seq_007_10 + 0xD3
	.byte		N06   , Dn3 , v120
	.byte	W42
	.byte		N12   , Gn3 , v072
	.byte	W30
	.byte		        Gn3 , v120
	.byte	W24
	.byte	GOTO
	 .word	seq_007_10 + 0x24
	.byte	FINE

@*********************** Track 12 ***********************@

seq_007_11:
	.byte	KEYSH , seq_007_key+0
	.byte	W18
	.byte		VOICE , 127
	.byte	W01
	.byte		VOL   , 62*seq_007_mvl/mxv
	.byte	W01
	.byte		PAN   , c_v+0
	.byte	W04
	.byte		N03   , Fs1 , v112
	.byte	W18
	.byte		N02   , Fs1 , v040
	.byte	W06
	.byte		N03   , Fs1 , v112
	.byte	W18
	.byte		N02   , Fs1 , v040
	.byte	W06
	.byte		N03   , Fs1 , v112
	.byte	W24
	.byte		N24   , En2 , v052
	.byte	W24
	.byte	PEND
	.byte	PATT
	 .word	seq_007_11 + 0xC
	.byte	PATT
	 .word	seq_007_11 + 0xC
	.byte	PATT
	 .word	seq_007_11 + 0xC
	.byte	PATT
	 .word	seq_007_11 + 0xC
	.byte	PATT
	 .word	seq_007_11 + 0xC
	.byte		N03   , Fs1 , v112
	.byte	W18
	.byte		N05   , Fs1 , v020
	.byte	W06
	.byte		N03   , Fs1 , v112
	.byte	W16
	.byte		N04   , Fs1 , v080
	.byte	W08
	.byte		N03   , Fs1 , v112
	.byte	W24
	.byte		N24   , En2 , v052
	.byte	W24
	.byte		        Ds2 , v112
	.byte	W48
	.byte		N24
	.byte	W24
	.byte		        En2 , v052
	.byte	W24
	.byte		N03   , Fs1 , v112
	.byte	W18
	.byte		N06   , Ds2 , v080
	.byte	W06
	.byte		N03   , Fs1 , v112
	.byte	W18
	.byte		N06   , Ds2 , v080
	.byte	W06
	.byte		N24
	.byte	W24
	.byte		N03   , Fs1 , v112
	.byte	W18
	.byte		N06   , Ds2 , v080
	.byte	W06
	.byte	PEND
	.byte		N03   , Fs1 , v112
	.byte	W18
	.byte		N06   , Ds2 , v080
	.byte	W06
	.byte		N03   , Fs1 , v112
	.byte	W18
	.byte		N06   , Ds2 , v080
	.byte	W06
	.byte		N24
	.byte	W24
	.byte		        En2 , v052
	.byte	W24
	.byte	PEND
	.byte	PATT
	 .word	seq_007_11 + 0x5E
	.byte	PATT
	 .word	seq_007_11 + 0x79
	.byte	PATT
	 .word	seq_007_11 + 0x5E
	.byte	PATT
	 .word	seq_007_11 + 0x79
	.byte	PATT
	 .word	seq_007_11 + 0x5E
	.byte	PATT
	 .word	seq_007_11 + 0x79
	.byte	PATT
	 .word	seq_007_11 + 0x5E
	.byte	PATT
	 .word	seq_007_11 + 0x79
	.byte	PATT
	 .word	seq_007_11 + 0x5E
	.byte	PATT
	 .word	seq_007_11 + 0x79
	.byte	PATT
	 .word	seq_007_11 + 0x5E
	.byte	PATT
	 .word	seq_007_11 + 0x79
	.byte		N18   , Ds2 , v080
	.byte	W96
	.byte		N24   , En2 , v052
	.byte	W24
	.byte		N04   , Fs1 , v112
	.byte	W18
	.byte		N05   , Fs1 , v040
	.byte	W06
	.byte		N24   , Ds2 , v112
	.byte	W24
	.byte		N24
	.byte	W24
	.byte	PATT
	 .word	seq_007_11 + 0x5E
	.byte	PATT
	 .word	seq_007_11 + 0x79
	.byte	PATT
	 .word	seq_007_11 + 0x5E
	.byte	PATT
	 .word	seq_007_11 + 0x79
	.byte	PATT
	 .word	seq_007_11 + 0x5E
	.byte	PATT
	 .word	seq_007_11 + 0x79
	.byte	PATT
	 .word	seq_007_11 + 0x5E
	.byte	PATT
	 .word	seq_007_11 + 0x79
	.byte		N04   , Fs1 , v112
	.byte	W48
	.byte		N24   , Ds2 
	.byte	W24
	.byte		N04   , Fs1 
	.byte	W24
	.byte	PEND
	.byte		N04   , Fs1 , v112
	.byte	W42
	.byte		N06   , Ds2 , v080
	.byte	W06
	.byte		N04   , Fs1 , v112
	.byte	W24
	.byte		N24   , En2 , v052
	.byte	W24
	.byte	PEND
	.byte	PATT
	 .word	seq_007_11 + 0x109
	.byte	PATT
	 .word	seq_007_11 + 0x114
	.byte	PATT
	 .word	seq_007_11 + 0x109
	.byte	PATT
	 .word	seq_007_11 + 0x114
	.byte	PATT
	 .word	seq_007_11 + 0x109
	.byte	PATT
	 .word	seq_007_11 + 0x114
	.byte		N03   , Fs1 , v112
	.byte	W24
	.byte		N03
	.byte	W18
	.byte		N06   , En2 , v052
	.byte	W06
	.byte		N24   , Ds2 , v092
	.byte	W24
	.byte		N03   , Fs1 , v112
	.byte	W18
	.byte		N06   , En2 , v052
	.byte	W06
	.byte	PEND
	.byte		N03   , Fs1 , v112
	.byte	W24
	.byte		N03
	.byte	W18
	.byte		N06   , En2 , v052
	.byte	W06
	.byte		N24   , Ds2 , v092
	.byte	W24
	.byte		        En2 , v052
	.byte	W24
	.byte	PEND
	.byte	PATT
	 .word	seq_007_11 + 0x143
	.byte	PATT
	 .word	seq_007_11 + 0x15A
	.byte	PATT
	 .word	seq_007_11 + 0x143
	.byte	PATT
	 .word	seq_007_11 + 0x15A
	.byte		N24   , Ds2 , v112
	.byte	W48
	.byte		N24
	.byte	W48
	.byte		N24
	.byte	W24
	.byte		N24
	.byte	W24
	.byte		N24
	.byte	W24
	.byte		        En2 , v052
	.byte	W24
	.byte	GOTO
	 .word	seq_007_11 + 0x5E
	.byte	FINE

@******************************************************@

	.align	2

seq_007:
	.byte	12	@ NumTrks
	.byte	0	@ NumBlks
	.byte	seq_007_pri	@ Priority
	.byte	seq_007_rev	@ Reverb

	.word	seq_007_grp

	.word	seq_007_0
	.word	seq_007_1
	.word	seq_007_2
	.word	seq_007_3
	.word	seq_007_4
	.word	seq_007_5
	.word	seq_007_6
	.word	seq_007_7
	.word	seq_007_8
	.word	seq_007_9
	.word	seq_007_10
	.word	seq_007_11

	.end
