@ File generated by m4a2s Song-Module
	.include "MPlayDef.s"

	.equ	seq_021_grp, bank_000
	.equ	seq_021_pri, 50
	.equ	seq_021_rev, 188
	.equ	seq_021_mvl, 127
	.equ	seq_021_key, 0

	.section .rodata
	.global	seq_021
	.align	2

@*********************** Track 01 ***********************@

seq_021_0:
	.byte	KEYSH , seq_021_key+0
	.byte	TEMPO , 100/2
	.byte		VOICE , 29
	.byte	W01
	.byte		VOL   , 80*seq_021_mvl/mxv
	.byte	W01
	.byte		PAN   , c_v+0
	.byte	W01
	.byte		BENDR , 2
	.byte	W20
	.byte		VOICE , 29
	.byte	W01
	.byte		N03   , Cn2 , v127
	.byte	W06
	.byte		        Cn2 , v020
	.byte	W05
	.byte		VOICE , 25
	.byte	W01
	.byte		N02   , Cn4 , v120
	.byte	W03
	.byte		        Cn4 , v080
	.byte	W03
	.byte		        Cn4 , v052
	.byte	W03
	.byte		        Cn4 , v032
	.byte	W02
	.byte		VOICE , 29
	.byte	W01
	.byte		N03   , Cn2 , v127
	.byte	W06
	.byte		        Cn2 , v020
	.byte	W05
	.byte		VOICE , 25
	.byte	W01
	.byte		N02   , Cn4 , v120
	.byte	W03
	.byte		        Cn4 , v080
	.byte	W03
	.byte		        Cn4 , v052
	.byte	W03
	.byte		        Cn4 , v032
	.byte	W02
	.byte		VOICE , 29
	.byte	W01
	.byte		N03   , Cn2 , v127
	.byte	W06
	.byte		        Cn2 , v020
	.byte	W05
	.byte		VOICE , 25
	.byte	W01
	.byte		N02   , Cn4 , v120
	.byte	W03
	.byte		        Cn4 , v080
	.byte	W03
	.byte		        Cn4 , v052
	.byte	W03
	.byte		        Cn4 , v032
	.byte	W02
	.byte		VOICE , 29
	.byte	W01
	.byte	PEND
	.byte		N03   , Cn2 , v127
	.byte	W06
	.byte		        Cn2 , v020
	.byte	W05
	.byte		VOICE , 25
	.byte	W01
	.byte		N02   , Cn4 , v120
	.byte	W03
	.byte		        Cn4 , v080
	.byte	W03
	.byte		        Cn4 , v052
	.byte	W03
	.byte		        Cn4 , v032
	.byte	W02
	.byte		VOICE , 29
	.byte	W01
	.byte		N03   , Cn2 , v127
	.byte	W06
	.byte		        Cn2 , v020
	.byte	W05
	.byte		VOICE , 25
	.byte	W01
	.byte		N02   , Cn4 , v120
	.byte	W03
	.byte		        Cn4 , v080
	.byte	W03
	.byte		        Cn4 , v052
	.byte	W03
	.byte		        Cn4 , v032
	.byte	W02
	.byte		VOICE , 29
	.byte	W01
	.byte		N03   , Cn2 , v127
	.byte	W06
	.byte		        Cn2 , v020
	.byte	W17
	.byte		VOICE , 29
	.byte	W01
	.byte	PEND
	.byte	PATT
	 .word	seq_021_0 + 0x13
	.byte	PATT
	 .word	seq_021_0 + 0x62
	.byte		N03   , As1 , v127
	.byte	W06
	.byte		        As1 , v020
	.byte	W05
	.byte		VOICE , 25
	.byte	W01
	.byte		N02   , As3 , v120
	.byte	W03
	.byte		        As3 , v080
	.byte	W03
	.byte		        As3 , v052
	.byte	W03
	.byte		        As3 , v032
	.byte	W02
	.byte		VOICE , 29
	.byte	W01
	.byte		N03   , As1 , v127
	.byte	W06
	.byte		        As1 , v020
	.byte	W05
	.byte		VOICE , 25
	.byte	W01
	.byte		N02   , As3 , v120
	.byte	W03
	.byte		        As3 , v080
	.byte	W03
	.byte		        As3 , v052
	.byte	W03
	.byte		        As3 , v032
	.byte	W02
	.byte		VOICE , 29
	.byte	W01
	.byte		N03   , As1 , v127
	.byte	W06
	.byte		        As1 , v020
	.byte	W05
	.byte		VOICE , 25
	.byte	W01
	.byte		N02   , As3 , v120
	.byte	W03
	.byte		        As3 , v080
	.byte	W03
	.byte		        As3 , v052
	.byte	W03
	.byte		        As3 , v032
	.byte	W02
	.byte		VOICE , 29
	.byte	W01
	.byte	PEND
	.byte		N03   , As1 , v127
	.byte	W06
	.byte		        As1 , v020
	.byte	W05
	.byte		VOICE , 25
	.byte	W01
	.byte		N02   , As3 , v120
	.byte	W03
	.byte		        As3 , v080
	.byte	W03
	.byte		        As3 , v052
	.byte	W03
	.byte		        As3 , v032
	.byte	W02
	.byte		VOICE , 29
	.byte	W01
	.byte		N03   , As1 , v127
	.byte	W06
	.byte		        As1 , v020
	.byte	W05
	.byte		VOICE , 25
	.byte	W01
	.byte		N02   , As3 , v120
	.byte	W03
	.byte		        As3 , v080
	.byte	W03
	.byte		        As3 , v052
	.byte	W03
	.byte		        As3 , v032
	.byte	W02
	.byte		VOICE , 29
	.byte	W01
	.byte		N03   , As1 , v127
	.byte	W06
	.byte		        As1 , v020
	.byte	W17
	.byte		VOICE , 29
	.byte	W01
	.byte	PEND
	.byte		N03   , As1 , v127
	.byte	W06
	.byte		        As1 , v020
	.byte	W05
	.byte		VOICE , 25
	.byte	W01
	.byte		N02   , As3 , v120
	.byte	W03
	.byte		        As3 , v080
	.byte	W03
	.byte		        As3 , v052
	.byte	W03
	.byte		        As3 , v032
	.byte	W02
	.byte		VOICE , 29
	.byte	W01
	.byte		N03   , As1 , v127
	.byte	W06
	.byte		        As1 , v020
	.byte	W05
	.byte		VOICE , 25
	.byte	W01
	.byte		N02   , As3 , v120
	.byte	W03
	.byte		        As3 , v080
	.byte	W03
	.byte		        As3 , v052
	.byte	W03
	.byte		        As3 , v032
	.byte	W02
	.byte		VOICE , 29
	.byte	W01
	.byte		N03   , As1 , v127
	.byte	W06
	.byte		        As1 , v020
	.byte	W05
	.byte		VOICE , 25
	.byte	W01
	.byte		N02   , As3 , v120
	.byte	W03
	.byte		        As3 , v080
	.byte	W03
	.byte		        As3 , v052
	.byte	W03
	.byte		        As3 , v032
	.byte	W02
	.byte		VOICE , 29
	.byte	W01
	.byte		N03   , As1 , v127
	.byte	W06
	.byte		        As1 , v020
	.byte	W05
	.byte		VOICE , 25
	.byte	W01
	.byte		N02   , As3 , v120
	.byte	W03
	.byte		        As3 , v080
	.byte	W03
	.byte		        As3 , v052
	.byte	W03
	.byte		        As3 , v032
	.byte	W02
	.byte		VOICE , 29
	.byte		BEND  , c_v-64
	.byte	W01
	.byte		N12   , Gs2 , v080
	.byte	W04
	.byte		BEND  , c_v-61
	.byte	W01
	.byte		        c_v-54
	.byte	W01
	.byte		        c_v-26
	.byte	W01
	.byte		        c_v+2
	.byte	W01
	.byte		        c_v+30
	.byte	W01
	.byte		        c_v+63
	.byte	W01
	.byte		        c_v+33
	.byte	W01
	.byte		        c_v-13
	.byte	W01
	.byte		        c_v-64
	.byte		N03   , As1 , v127
	.byte	W06
	.byte		        As1 , v040
	.byte	W05
	.byte		VOICE , 29
	.byte		BEND  , c_v+0
	.byte	W01
	.byte	PATT
	 .word	seq_021_0 + 0x13
	.byte	PATT
	 .word	seq_021_0 + 0x62
	.byte	PATT
	 .word	seq_021_0 + 0x13
	.byte	PATT
	 .word	seq_021_0 + 0x62
	.byte	PATT
	 .word	seq_021_0 + 0xAB
	.byte	PATT
	 .word	seq_021_0 + 0xFA
	.byte		N03   , Ds2 , v127
	.byte	W06
	.byte		        Ds2 , v020
	.byte	W05
	.byte		VOICE , 25
	.byte	W01
	.byte		N02   , Ds4 , v120
	.byte	W03
	.byte		        Ds4 , v080
	.byte	W03
	.byte		        Ds4 , v052
	.byte	W03
	.byte		        Ds4 , v032
	.byte	W02
	.byte		VOICE , 29
	.byte	W01
	.byte		N03   , Ds2 , v127
	.byte	W06
	.byte		        Ds2 , v020
	.byte	W05
	.byte		VOICE , 25
	.byte	W01
	.byte		N02   , Ds4 , v120
	.byte	W03
	.byte		        Ds4 , v080
	.byte	W03
	.byte		        Ds4 , v052
	.byte	W03
	.byte		        Ds4 , v032
	.byte	W02
	.byte		VOICE , 29
	.byte	W01
	.byte		N03   , Ds2 , v127
	.byte	W06
	.byte		        Ds2 , v020
	.byte	W05
	.byte		VOICE , 25
	.byte	W01
	.byte		N02   , Ds4 , v120
	.byte	W03
	.byte		        Ds4 , v080
	.byte	W03
	.byte		        Ds4 , v052
	.byte	W03
	.byte		        Ds4 , v032
	.byte	W02
	.byte		VOICE , 29
	.byte	W01
	.byte		N03   , Ds2 , v127
	.byte	W06
	.byte		        Ds2 , v020
	.byte	W05
	.byte		VOICE , 25
	.byte	W01
	.byte		N02   , Ds4 , v120
	.byte	W03
	.byte		        Ds4 , v080
	.byte	W03
	.byte		        Ds4 , v052
	.byte	W03
	.byte		        Ds4 , v032
	.byte	W02
	.byte		VOICE , 29
	.byte		BEND  , c_v-1
	.byte	W01
	.byte		N12   , Cs3 , v072
	.byte	W04
	.byte		BEND  , c_v+10
	.byte	W01
	.byte		        c_v+15
	.byte	W01
	.byte		        c_v+29
	.byte	W01
	.byte		        c_v+43
	.byte	W01
	.byte		        c_v+57
	.byte	W01
	.byte		        c_v+63
	.byte	W01
	.byte		        c_v+37
	.byte	W01
	.byte		        c_v+0
	.byte	W01
	.byte		N06   , Ds2 , v127
	.byte	W06
	.byte		N03   , Ds2 , v040
	.byte	W05
	.byte		VOICE , 29
	.byte	W01
	.byte		N12   , En2 , v100
	.byte	W12
	.byte		N06
	.byte	W12
	.byte		N01   , En1 , v052
	.byte	W06
	.byte		        En1 , v020
	.byte	W06
	.byte		N05   , En2 , v100
	.byte	W06
	.byte		N03   , En2 , v020
	.byte	W06
	.byte		N01   , En1 , v052
	.byte	W06
	.byte		        En1 , v020
	.byte	W06
	.byte		N05   , En2 , v100
	.byte	W06
	.byte		N03   , En2 , v020
	.byte	W06
	.byte		N01   , En1 , v052
	.byte	W11
	.byte		BEND  , c_v-64
	.byte	W01
	.byte		N12   , Fn2 , v100
	.byte	W03
	.byte		BEND  , c_v-54
	.byte	W01
	.byte		        c_v-43
	.byte	W01
	.byte		        c_v-32
	.byte	W01
	.byte		        c_v-18
	.byte	W01
	.byte		        c_v+0
	.byte	W05
	.byte	PEND
	.byte		N06   , Fn2 , v072
	.byte	W06
	.byte		        Fn2 , v020
	.byte	W06
	.byte		N03   , Fn2 , v100
	.byte	W03
	.byte		        Fn2 , v020
	.byte	W03
	.byte		        Gs1 
	.byte	W06
	.byte		        Gs2 , v100
	.byte	W06
	.byte		        Fn2 , v020
	.byte	W05
	.byte		BEND  , c_v-64
	.byte	W01
	.byte		N17   , Cs3 , v100
	.byte	W03
	.byte		BEND  , c_v-54
	.byte	W01
	.byte		        c_v-43
	.byte	W01
	.byte		        c_v-32
	.byte	W01
	.byte		        c_v-18
	.byte	W01
	.byte		        c_v+0
	.byte	W11
	.byte		N03
	.byte	W06
	.byte		        Gs2 
	.byte	W03
	.byte		        Gs2 , v020
	.byte	W03
	.byte		N06   , Cs3 , v100
	.byte	W06
	.byte		        Ds3 
	.byte	W06
	.byte		N03   , Fn3 
	.byte	W03
	.byte		        Fn3 , v020
	.byte	W03
	.byte		N06   , Cs3 , v100
	.byte	W06
	.byte		N03   , Gs2 
	.byte	W03
	.byte		        Gs2 , v020
	.byte	W02
	.byte		VOICE , 29
	.byte	W01
	.byte	PEND
	.byte	PATT
	 .word	seq_021_0 + 0x26D
	.byte	PATT
	 .word	seq_021_0 + 0x2A8
	.byte		N05   , En2 , v100
	.byte	W06
	.byte		N06   , En2 , v072
	.byte	W06
	.byte		N05   , En2 , v100
	.byte	W06
	.byte		N03   , En2 , v020
	.byte	W06
	.byte		N01   , Fs1 , v052
	.byte	W06
	.byte		        Fs1 , v020
	.byte	W06
	.byte		N05   , En2 , v100
	.byte	W06
	.byte		N03   , En2 , v020
	.byte	W18
	.byte		N05   , En2 , v100
	.byte	W06
	.byte		N03   , En2 , v020
	.byte	W17
	.byte		BEND  , c_v-64
	.byte	W01
	.byte		N36   , Ds2 , v100
	.byte	W03
	.byte		BEND  , c_v-54
	.byte	W01
	.byte		        c_v-43
	.byte	W01
	.byte		        c_v-32
	.byte	W01
	.byte		        c_v-18
	.byte	W01
	.byte		        c_v+0
	.byte	W04
	.byte		BENDR , 9
	.byte	W01
	.byte	W08
	.byte		BEND  , c_v-7
	.byte	W01
	.byte		VOL   , 75*seq_021_mvl/mxv
	.byte		BEND  , c_v-14
	.byte	W01
	.byte		VOL   , 71*seq_021_mvl/mxv
	.byte		BEND  , c_v-22
	.byte	W01
	.byte		VOL   , 67*seq_021_mvl/mxv
	.byte		BEND  , c_v-34
	.byte	W01
	.byte		VOL   , 63*seq_021_mvl/mxv
	.byte		BEND  , c_v-47
	.byte	W01
	.byte		VOL   , 59*seq_021_mvl/mxv
	.byte		BEND  , c_v-55
	.byte	W01
	.byte		VOL   , 54*seq_021_mvl/mxv
	.byte		BEND  , c_v-64
	.byte	W01
	.byte		VOL   , 51*seq_021_mvl/mxv
	.byte	W01
	.byte		        46*seq_021_mvl/mxv
	.byte	W01
	.byte		        42*seq_021_mvl/mxv
	.byte	W01
	.byte		        38*seq_021_mvl/mxv
	.byte	W16
	.byte		        80*seq_021_mvl/mxv
	.byte	W01
	.byte		BEND  , c_v-64
	.byte	W01
	.byte		N06   , As2 
	.byte	W03
	.byte		BEND  , c_v-54
	.byte	W01
	.byte		        c_v-43
	.byte	W01
	.byte		        c_v-32
	.byte	W01
	.byte		        c_v-18
	.byte		N06   , As2 , v072
	.byte	W01
	.byte		BEND  , c_v+0
	.byte	W05
	.byte		N06   , As2 , v020
	.byte	W12
	.byte		N03   , Fn2 , v100
	.byte	W03
	.byte		        Fn2 , v020
	.byte	W03
	.byte		N06   , As2 , v100
	.byte	W06
	.byte		        Cs3 
	.byte	W06
	.byte		N03   , Ds3 
	.byte	W03
	.byte		        Ds3 , v020
	.byte	W03
	.byte		        Cs3 
	.byte	W05
	.byte		BEND  , c_v-64
	.byte	W01
	.byte		        c_v-54
	.byte		N18   , Gs2 , v100
	.byte	W01
	.byte		BEND  , c_v-43
	.byte	W01
	.byte		        c_v-32
	.byte	W01
	.byte		        c_v-18
	.byte	W01
	.byte		        c_v+0
	.byte	W02
	.byte	W11
	.byte		VOICE , 25
	.byte	W01
	.byte		N02   , Gs2 , v120
	.byte	W03
	.byte		        Gs2 , v080
	.byte	W03
	.byte		        Gs2 , v052
	.byte	W03
	.byte		        Gs2 , v032
	.byte	W02
	.byte		VOICE , 29
	.byte	W01
	.byte		N03   , Gs1 , v127
	.byte	W06
	.byte		        Gs1 , v020
	.byte	W05
	.byte		VOICE , 25
	.byte	W01
	.byte		N02   , Gs2 , v120
	.byte	W03
	.byte		        Gs2 , v080
	.byte	W03
	.byte		        Gs2 , v052
	.byte	W03
	.byte		        Gs2 , v032
	.byte	W02
	.byte		VOICE , 29
	.byte	W01
	.byte		N03   , Gs1 , v127
	.byte	W06
	.byte		        Gs1 , v020
	.byte	W05
	.byte		VOICE , 25
	.byte	W01
	.byte		N02   , Gs2 , v120
	.byte	W03
	.byte		        Gs2 , v080
	.byte	W03
	.byte		        Gs2 , v052
	.byte	W03
	.byte		        Gs2 , v032
	.byte	W02
	.byte		VOICE , 29
	.byte	W01
	.byte		N03   , Gs1 , v127
	.byte	W06
	.byte		        Gs1 , v020
	.byte	W05
	.byte		VOICE , 25
	.byte	W01
	.byte		N02   , Gs2 , v120
	.byte	W03
	.byte		        Gs2 , v080
	.byte	W03
	.byte		        Gs2 , v052
	.byte	W03
	.byte		        Gs2 , v032
	.byte	W02
	.byte		VOICE , 29
	.byte	W01
	.byte	PEND
	.byte		N03   , Gs1 , v127
	.byte	W06
	.byte		        Gs1 , v020
	.byte	W05
	.byte		VOICE , 25
	.byte	W01
	.byte		N02   , Gs2 , v120
	.byte	W03
	.byte		        Gs2 , v080
	.byte	W03
	.byte		        Gs2 , v052
	.byte	W03
	.byte		        Gs2 , v032
	.byte	W02
	.byte		VOICE , 29
	.byte	W01
	.byte		N03   , Gs1 , v127
	.byte	W12
	.byte		N09   , Gs2 , v100
	.byte	W12
	.byte		N03   , Gs2 , v020
	.byte	W12
	.byte		N09   , As2 , v100
	.byte	W12
	.byte		N03   , As2 , v020
	.byte	W11
	.byte		BEND  , c_v-64
	.byte	W01
	.byte		        c_v-54
	.byte		N24   , Gs2 , v100
	.byte	W01
	.byte		BEND  , c_v-43
	.byte	W01
	.byte		        c_v-32
	.byte	W01
	.byte		        c_v-18
	.byte	W01
	.byte		        c_v+0
	.byte	W08
	.byte	PATT
	 .word	seq_021_0 + 0x3A3
	.byte		N03   , Gs1 , v127
	.byte	W06
	.byte		        Gs1 , v020
	.byte	W05
	.byte		VOICE , 25
	.byte	W01
	.byte		N02   , Gs2 , v120
	.byte	W03
	.byte		        Gs2 , v080
	.byte	W03
	.byte		        Gs2 , v052
	.byte	W03
	.byte		        Gs2 , v032
	.byte	W02
	.byte		VOICE , 29
	.byte	W01
	.byte		N03   , Gs1 , v127
	.byte	W12
	.byte		N09   , Gs2 , v100
	.byte	W12
	.byte		N03   , Gs2 , v020
	.byte	W12
	.byte		N36   , As2 , v100
	.byte	W17
	.byte		BENDR , 2
	.byte	W19
	.byte	GOTO
	 .word	seq_021_0 + 0x13
	.byte	FINE

@*********************** Track 02 ***********************@

seq_021_1:
	.byte	KEYSH , seq_021_key+0
	.byte		VOICE , 59
	.byte	W01
	.byte		VOL   , 80*seq_021_mvl/mxv
	.byte	W01
	.byte		PAN   , c_v+0
	.byte	W22
	.byte	W72
	.byte	W72
	.byte	W72
	.byte	W72
	.byte	W72
	.byte	W72
	.byte	W96
	.byte	W24
	.byte	W72
	.byte	W72
	.byte	W72
	.byte	W72
	.byte	W72
	.byte	W72
	.byte	W96
	.byte	W23
	.byte		VOICE , 62
	.byte	W01
	.byte		N08   , Fs3 , v092
	.byte	W12
	.byte		N04
	.byte	W12
	.byte		N02   , Bn2 
	.byte	W12
	.byte		N04   , Fs3 
	.byte	W12
	.byte		N02   , Bn2 
	.byte	W12
	.byte		N04   , Fs3 
	.byte	W12
	.byte		N02   , Bn2 
	.byte	W12
	.byte		TIE   , Gs3 
	.byte	W12
	.byte	PEND
	.byte	W92
	.byte	W03
	.byte		VOICE , 62
	.byte	W01
	.byte	PEND
	.byte		EOT   , Gs3 
	.byte	PATT
	 .word	seq_021_1 + 0x1E
	.byte	PATT
	 .word	seq_021_1 + 0x37
	.byte		EOT   , Gs3 
	.byte		N08   , Fs3 , v092
	.byte	W12
	.byte		N04
	.byte	W12
	.byte		N02   , Bn2 
	.byte	W12
	.byte		N04   , Fs3 
	.byte	W12
	.byte		N02   , Bn2 
	.byte	W12
	.byte		N04   , Fs3 
	.byte	W12
	.byte		N02   , Bn2 
	.byte	W12
	.byte		N24   , Fs3 
	.byte	W12
	.byte	W96
	.byte	W96
	.byte		VOICE , 59
	.byte	W01
	.byte		VOL   , 80*seq_021_mvl/mxv
	.byte	W01
	.byte		PAN   , c_v+0
	.byte	W92
	.byte	W02
	.byte	W96
	.byte	W96
	.byte	GOTO
	 .word	seq_021_1 + 0xB
	.byte	FINE

@*********************** Track 03 ***********************@

seq_021_2:
	.byte	KEYSH , seq_021_key+0
	.byte		VOICE , 16
	.byte	W01
	.byte		VOL   , 62*seq_021_mvl/mxv
	.byte	W01
	.byte		PAN   , c_v+0
	.byte	W22
	.byte	W72
	.byte	W72
	.byte	W72
	.byte	W72
	.byte	W72
	.byte	W72
	.byte	W96
	.byte	W24
	.byte	W72
	.byte	W72
	.byte	W72
	.byte	W72
	.byte	W72
	.byte	W72
	.byte	W96
	.byte	W24
	.byte		N08   , Bn3 , v120
	.byte	W12
	.byte		N04
	.byte	W24
	.byte		N04
	.byte	W24
	.byte		N04
	.byte	W24
	.byte		TIE   , Cs4 
	.byte	W12
	.byte	PEND
	.byte	W96
	.byte		EOT
	.byte	PATT
	 .word	seq_021_2 + 0x1B
	.byte	W96
	.byte		EOT   , Cs4 
	.byte		N08   , Bn3 , v120
	.byte	W12
	.byte		N04
	.byte	W24
	.byte		N04
	.byte	W24
	.byte		N04
	.byte	W24
	.byte		N24   , Cs4 
	.byte	W12
	.byte	W36
	.byte		N04
	.byte	W24
	.byte		N04
	.byte	W24
	.byte		TIE   , Ds4 
	.byte	W12
	.byte	W96
	.byte	W24
	.byte		EOT
	.byte	W12
	.byte		N04   , Fs4 
	.byte	W24
	.byte		        Fn4 
	.byte	W24
	.byte		TIE   , Ds4 
	.byte	W12
	.byte	W96
	.byte	W24
	.byte		EOT
	.byte	W12
	.byte		N04   , Fs4 
	.byte	W24
	.byte		N24   , Fn4 
	.byte	W36
	.byte	GOTO
	 .word	seq_021_2 + 0xB
	.byte	FINE

@*********************** Track 04 ***********************@

seq_021_3:
	.byte	KEYSH , seq_021_key+0
	.byte	W06
	.byte		VOICE , 17
	.byte	W01
	.byte		VOL   , 62*seq_021_mvl/mxv
	.byte	W01
	.byte		PAN   , c_v-20
	.byte	W16
	.byte	W72
	.byte	W72
	.byte	W72
	.byte	W72
	.byte	W72
	.byte	W72
	.byte	W96
	.byte	W24
	.byte	W72
	.byte	W72
	.byte	W72
	.byte	W72
	.byte	W72
	.byte	W72
	.byte	W96
	.byte	W24
	.byte		N08   , Fs3 , v120
	.byte	W12
	.byte		N04
	.byte	W24
	.byte		N04
	.byte	W24
	.byte		N04
	.byte	W24
	.byte		TIE   , Gs3 
	.byte	W12
	.byte	PEND
	.byte	W96
	.byte		EOT
	.byte	PATT
	 .word	seq_021_3 + 0x1C
	.byte	W96
	.byte		EOT   , Gs3 
	.byte		N08   , Fs3 , v120
	.byte	W12
	.byte		N04
	.byte	W24
	.byte		N04
	.byte	W24
	.byte		N04
	.byte	W24
	.byte		N24
	.byte	W12
	.byte	W36
	.byte		N04   , Gs3 
	.byte	W24
	.byte		N04
	.byte	W24
	.byte		TIE   , As3 
	.byte	W12
	.byte	W96
	.byte	W24
	.byte		EOT
	.byte	W12
	.byte		N04   , Cs4 
	.byte	W24
	.byte		N04
	.byte	W24
	.byte		TIE   , As3 
	.byte	W12
	.byte	W96
	.byte	W24
	.byte		EOT
	.byte	W12
	.byte		N04   , Cs4 
	.byte	W24
	.byte		N24
	.byte	W36
	.byte	GOTO
	 .word	seq_021_3 + 0xC
	.byte	FINE

@*********************** Track 05 ***********************@

seq_021_4:
	.byte	KEYSH , seq_021_key+0
	.byte	W06
	.byte		VOICE , 17
	.byte	W01
	.byte		VOL   , 62*seq_021_mvl/mxv
	.byte	W01
	.byte		PAN   , c_v+20
	.byte	W16
	.byte	W72
	.byte	W72
	.byte	W72
	.byte	W72
	.byte	W72
	.byte	W72
	.byte	W96
	.byte	W24
	.byte	W72
	.byte	W72
	.byte	W72
	.byte	W72
	.byte	W72
	.byte	W72
	.byte	W96
	.byte	W24
	.byte		N08   , Cs3 , v120
	.byte	W12
	.byte		N04
	.byte	W24
	.byte		N04
	.byte	W24
	.byte		N04
	.byte	W24
	.byte		TIE   , Ds3 
	.byte	W12
	.byte	PEND
	.byte	W96
	.byte		EOT
	.byte	PATT
	 .word	seq_021_4 + 0x1C
	.byte	W96
	.byte		EOT   , Ds3 
	.byte		N08   , Cs3 , v120
	.byte	W12
	.byte		N04
	.byte	W24
	.byte		N04
	.byte	W24
	.byte		N04
	.byte	W24
	.byte		N24   , Ds3 
	.byte	W12
	.byte	W36
	.byte		N04
	.byte	W24
	.byte		N04
	.byte	W24
	.byte		TIE   , Fs3 
	.byte	W12
	.byte	W96
	.byte	W24
	.byte		EOT
	.byte	W12
	.byte		N04   , Gs3 
	.byte	W24
	.byte		N04
	.byte	W24
	.byte		TIE   , Fs3 
	.byte	W12
	.byte	W96
	.byte	W24
	.byte		EOT
	.byte	W12
	.byte		N04   , Gs3 
	.byte	W24
	.byte		N24
	.byte	W36
	.byte	GOTO
	 .word	seq_021_4 + 0xC
	.byte	FINE

@*********************** Track 06 ***********************@

seq_021_5:
	.byte	KEYSH , seq_021_key+0
	.byte	W06
	.byte		VOICE , 95
	.byte	W01
	.byte		VOL   , 78*seq_021_mvl/mxv
	.byte	W01
	.byte		PAN   , c_v+20
	.byte	W16
	.byte	W60
	.byte		N05   , Fn2 , v008
	.byte	W05
	.byte		        Gn2 , v012
	.byte	W04
	.byte		        Fn2 , v016
	.byte	W03
	.byte	PEND
	.byte	W01
	.byte		N05   , Gn2 , v020
	.byte	W04
	.byte		        Fn2 , v024
	.byte	W04
	.byte		        Gn2 , v028
	.byte	W03
	.byte		        Fn2 
	.byte	W05
	.byte		        Gn2 , v036
	.byte	W04
	.byte		        Fn2 , v044
	.byte	W04
	.byte		        Gn2 , v048
	.byte	W03
	.byte		        Fn2 , v056
	.byte	W04
	.byte		        Gn2 , v060
	.byte	W04
	.byte		        Fn2 , v068
	.byte	W04
	.byte		        Gn2 , v076
	.byte	W04
	.byte		        Fn2 , v088
	.byte	W04
	.byte		        Gn2 , v080
	.byte	W03
	.byte		        Fn2 , v068
	.byte	W03
	.byte		        Gn2 , v040
	.byte	W03
	.byte		        Fn2 , v032
	.byte	W15
	.byte	PEND
	.byte	W60
	.byte		N05   , Fn3 , v008
	.byte	W05
	.byte		        Gn3 , v012
	.byte	W04
	.byte		        Fn3 , v016
	.byte	W03
	.byte	PEND
	.byte	W01
	.byte		N05   , Gn3 , v020
	.byte	W04
	.byte		        Fn3 , v024
	.byte	W04
	.byte		        Gn3 , v028
	.byte	W03
	.byte		        Fn3 
	.byte	W05
	.byte		        Gn3 , v036
	.byte	W04
	.byte		        Fn3 , v044
	.byte	W04
	.byte		        Gn3 , v048
	.byte	W03
	.byte		        Fn3 , v056
	.byte	W04
	.byte		        Gn3 , v060
	.byte	W04
	.byte		        Fn3 , v068
	.byte	W04
	.byte		        Gn3 , v076
	.byte	W04
	.byte		        Fn3 , v088
	.byte	W04
	.byte		        Gn3 , v080
	.byte	W03
	.byte		        Fn3 , v068
	.byte	W03
	.byte		        Gn3 , v040
	.byte	W03
	.byte		        Fn3 , v032
	.byte	W15
	.byte	PEND
	.byte	W60
	.byte		N05   , Ds2 , v008
	.byte	W05
	.byte		        Fn2 , v012
	.byte	W04
	.byte		        Ds2 , v016
	.byte	W03
	.byte	PEND
	.byte	W01
	.byte		N05   , Fn2 , v020
	.byte	W04
	.byte		        Ds2 , v024
	.byte	W04
	.byte		        Fn2 , v028
	.byte	W03
	.byte		        Ds2 
	.byte	W05
	.byte		        Fn2 , v036
	.byte	W04
	.byte		        Ds2 , v044
	.byte	W04
	.byte		        Fn2 , v048
	.byte	W03
	.byte		        Ds2 , v056
	.byte	W04
	.byte		        Fn2 , v060
	.byte	W04
	.byte		        Ds2 , v068
	.byte	W04
	.byte		        Fn2 , v076
	.byte	W04
	.byte		        Ds2 , v088
	.byte	W04
	.byte		        Fn2 , v080
	.byte	W03
	.byte		        Ds2 , v068
	.byte	W03
	.byte		        Fn2 , v040
	.byte	W03
	.byte		        Ds2 , v032
	.byte	W15
	.byte	PEND
	.byte	W36
	.byte		        Gs3 , v012
	.byte	W05
	.byte		        As3 , v016
	.byte	W04
	.byte		        Gs3 , v020
	.byte	W04
	.byte		        As3 , v024
	.byte	W04
	.byte		        Gs3 , v028
	.byte	W04
	.byte		        As3 , v032
	.byte	W03
	.byte		        Gs3 
	.byte	W05
	.byte		        As3 , v040
	.byte	W04
	.byte		        Gs3 , v048
	.byte	W04
	.byte		        As3 , v052
	.byte	W03
	.byte		        Gs3 , v060
	.byte	W04
	.byte		        As3 , v064
	.byte	W04
	.byte		        Gs3 , v072
	.byte	W04
	.byte		        As3 , v080
	.byte	W04
	.byte		        Gs3 , v092
	.byte	W04
	.byte		        As3 , v084
	.byte	W03
	.byte		        Gs3 , v072
	.byte	W03
	.byte		        As3 , v044
	.byte	W03
	.byte		        Gs3 , v036
	.byte	W15
	.byte	PATT
	 .word	seq_021_5 + 0xC
	.byte	PATT
	 .word	seq_021_5 + 0x18
	.byte	PATT
	 .word	seq_021_5 + 0x4A
	.byte	PATT
	 .word	seq_021_5 + 0x56
	.byte	PATT
	 .word	seq_021_5 + 0x88
	.byte	PATT
	 .word	seq_021_5 + 0x94
	.byte	W30
	.byte		N05   , Gs3 , v012
	.byte	W05
	.byte		        As3 , v016
	.byte	W04
	.byte		        Gs3 , v020
	.byte	W04
	.byte		        As3 , v024
	.byte	W04
	.byte		        Gs3 , v028
	.byte	W04
	.byte		        As3 , v032
	.byte	W03
	.byte		        Gs3 
	.byte	W05
	.byte		        As3 , v040
	.byte	W04
	.byte		        Gs3 , v048
	.byte	W04
	.byte		        As3 , v052
	.byte	W03
	.byte		        Gs3 , v060
	.byte	W04
	.byte		        As3 , v064
	.byte	W04
	.byte		        Gs3 , v072
	.byte	W04
	.byte		        As3 , v080
	.byte	W04
	.byte		        Gs3 , v092
	.byte	W04
	.byte		        As3 , v084
	.byte	W03
	.byte		        Gs3 , v072
	.byte	W03
	.byte		        As3 , v044
	.byte	W03
	.byte		        Gs3 , v036
	.byte	W21
	.byte	W96
	.byte	W96
	.byte	W96
	.byte	W96
	.byte	W96
	.byte	W96
	.byte	W96
	.byte	W96
	.byte	W96
	.byte	W96
	.byte	GOTO
	 .word	seq_021_5 + 0xC
	.byte	FINE

@*********************** Track 07 ***********************@

seq_021_6:
	.byte	KEYSH , seq_021_key+0
	.byte	W12
	.byte		VOICE , 95
	.byte	W01
	.byte		VOL   , 78*seq_021_mvl/mxv
	.byte	W01
	.byte		PAN   , c_v-20
	.byte	W10
	.byte	W60
	.byte	W01
	.byte		N05   , As2 , v008
	.byte	W05
	.byte		        Cn3 , v012
	.byte	W04
	.byte		        As2 , v016
	.byte	W02
	.byte	PEND
	.byte	W02
	.byte		N05   , Cn3 , v020
	.byte	W04
	.byte		        As2 , v024
	.byte	W04
	.byte		        Cn3 , v028
	.byte	W03
	.byte		        As2 
	.byte	W05
	.byte		        Cn3 , v036
	.byte	W04
	.byte		        As2 , v044
	.byte	W04
	.byte		        Cn3 , v048
	.byte	W03
	.byte		        As2 , v056
	.byte	W04
	.byte		        Cn3 , v060
	.byte	W04
	.byte		        As2 , v068
	.byte	W04
	.byte		        Cn3 , v076
	.byte	W04
	.byte		        As2 , v088
	.byte	W04
	.byte		        Cn3 , v080
	.byte	W03
	.byte		        As2 , v068
	.byte	W03
	.byte		        Cn3 , v040
	.byte	W03
	.byte		        As2 , v032
	.byte	W14
	.byte	PEND
	.byte	W60
	.byte	W01
	.byte		N05   , As3 , v008
	.byte	W05
	.byte		        Cn4 , v012
	.byte	W04
	.byte		        As3 , v016
	.byte	W02
	.byte	PEND
	.byte	W02
	.byte		N05   , Cn4 , v020
	.byte	W04
	.byte		        As3 , v024
	.byte	W04
	.byte		        Cn4 , v028
	.byte	W03
	.byte		        As3 
	.byte	W05
	.byte		        Cn4 , v036
	.byte	W04
	.byte		        As3 , v044
	.byte	W04
	.byte		        Cn4 , v048
	.byte	W03
	.byte		        As3 , v056
	.byte	W04
	.byte		        Cn4 , v060
	.byte	W04
	.byte		        As3 , v068
	.byte	W04
	.byte		        Cn4 , v076
	.byte	W04
	.byte		        As3 , v088
	.byte	W04
	.byte		        Cn4 , v080
	.byte	W03
	.byte		        As3 , v068
	.byte	W03
	.byte		        Cn4 , v040
	.byte	W03
	.byte		        As3 , v032
	.byte	W14
	.byte	PEND
	.byte	W60
	.byte	W01
	.byte		N05   , Gs2 , v008
	.byte	W05
	.byte		        As2 , v012
	.byte	W04
	.byte		        Gs2 , v016
	.byte	W02
	.byte	PEND
	.byte	W02
	.byte		N05   , As2 , v020
	.byte	W04
	.byte		        Gs2 , v024
	.byte	W04
	.byte		        As2 , v028
	.byte	W03
	.byte		        Gs2 
	.byte	W05
	.byte		        As2 , v036
	.byte	W04
	.byte		        Gs2 , v044
	.byte	W04
	.byte		        As2 , v048
	.byte	W03
	.byte		        Gs2 , v056
	.byte	W04
	.byte		        As2 , v060
	.byte	W04
	.byte		        Gs2 , v068
	.byte	W04
	.byte		        As2 , v076
	.byte	W04
	.byte		        Gs2 , v088
	.byte	W04
	.byte		        As2 , v080
	.byte	W03
	.byte		        Gs2 , v068
	.byte	W03
	.byte		        As2 , v040
	.byte	W03
	.byte		        Gs2 , v032
	.byte	W14
	.byte	PEND
	.byte	W36
	.byte	W01
	.byte		        Gs2 , v012
	.byte	W05
	.byte		        As2 , v016
	.byte	W04
	.byte		        Gs2 , v020
	.byte	W04
	.byte		        As2 , v024
	.byte	W04
	.byte		        Gs2 , v028
	.byte	W04
	.byte		        As2 , v032
	.byte	W03
	.byte		        Gs2 
	.byte	W05
	.byte		        As2 , v040
	.byte	W04
	.byte		        Gs2 , v048
	.byte	W04
	.byte		        As2 , v052
	.byte	W03
	.byte		        Gs2 , v060
	.byte	W04
	.byte		        As2 , v064
	.byte	W04
	.byte		        Gs2 , v072
	.byte	W04
	.byte		        As2 , v080
	.byte	W04
	.byte		        Gs2 , v092
	.byte	W04
	.byte		        As2 , v084
	.byte	W03
	.byte		        Gs2 , v072
	.byte	W03
	.byte		        As2 , v044
	.byte	W03
	.byte		        Gs2 , v036
	.byte	W14
	.byte	PATT
	 .word	seq_021_6 + 0xC
	.byte	PATT
	 .word	seq_021_6 + 0x19
	.byte	PATT
	 .word	seq_021_6 + 0x4B
	.byte	PATT
	 .word	seq_021_6 + 0x58
	.byte	PATT
	 .word	seq_021_6 + 0x8A
	.byte	PATT
	 .word	seq_021_6 + 0x97
	.byte	W30
	.byte	W01
	.byte		N05   , Gs2 , v012
	.byte	W05
	.byte		        As2 , v016
	.byte	W04
	.byte		        Gs2 , v020
	.byte	W04
	.byte		        As2 , v024
	.byte	W04
	.byte		        Gs2 , v028
	.byte	W04
	.byte		        As2 , v032
	.byte	W03
	.byte		        Gs2 
	.byte	W05
	.byte		        As2 , v040
	.byte	W04
	.byte		        Gs2 , v048
	.byte	W04
	.byte		        As2 , v052
	.byte	W03
	.byte		        Gs2 , v060
	.byte	W04
	.byte		        As2 , v064
	.byte	W04
	.byte		        Gs2 , v072
	.byte	W04
	.byte		        As2 , v080
	.byte	W04
	.byte		        Gs2 , v092
	.byte	W04
	.byte		        As2 , v084
	.byte	W03
	.byte		        Gs2 , v072
	.byte	W03
	.byte		        As2 , v044
	.byte	W03
	.byte		        Gs2 , v036
	.byte	W20
	.byte	W96
	.byte	W96
	.byte	W96
	.byte	W96
	.byte	W96
	.byte	W96
	.byte	W96
	.byte	W96
	.byte	W96
	.byte	W96
	.byte	GOTO
	 .word	seq_021_6 + 0xC
	.byte	FINE

@*********************** Track 08 ***********************@

seq_021_7:
	.byte	KEYSH , seq_021_key+0
	.byte	W12
	.byte		VOICE , 58
	.byte	W01
	.byte		VOL   , 62*seq_021_mvl/mxv
	.byte	W01
	.byte		PAN   , c_v+0
	.byte	W01
	.byte		MODT  , mod_pan
	.byte	W09
	.byte		N03   , Cn2 , v120
	.byte	W03
	.byte		        Cn2 , v080
	.byte	W03
	.byte		        Cn2 , v052
	.byte	W03
	.byte		        Cn2 , v032
	.byte	W03
	.byte		        Cn3 , v120
	.byte	W03
	.byte		        Cn3 , v080
	.byte	W03
	.byte		        Cn3 , v052
	.byte	W03
	.byte		        Cn3 , v032
	.byte	W03
	.byte		        Cs3 , v120
	.byte	W03
	.byte		        Cs3 , v080
	.byte	W03
	.byte		        Cs3 , v052
	.byte	W03
	.byte		        Cs3 , v032
	.byte	W03
	.byte		        Cn4 , v120
	.byte	W03
	.byte		        Cn4 , v080
	.byte	W03
	.byte		        Cn4 , v052
	.byte	W03
	.byte		        Cn4 , v032
	.byte	W03
	.byte		        As3 , v120
	.byte	W03
	.byte		        As3 , v080
	.byte	W03
	.byte		        As3 , v052
	.byte	W03
	.byte		        As3 , v032
	.byte	W03
	.byte		        Gn3 , v120
	.byte	W03
	.byte		        Gn3 , v080
	.byte	W03
	.byte		        Gn3 , v052
	.byte	W03
	.byte		        Gn3 , v032
	.byte	W03
	.byte	PEND
	.byte		N03   , Gs3 , v120
	.byte	W03
	.byte		        Gs3 , v080
	.byte	W03
	.byte		        Gs3 , v052
	.byte	W03
	.byte		        Gs3 , v032
	.byte	W03
	.byte		        Fn3 , v120
	.byte	W03
	.byte		        Fn3 , v080
	.byte	W03
	.byte		        Fn3 , v052
	.byte	W03
	.byte		        Fn3 , v032
	.byte	W03
	.byte		        Gn3 , v120
	.byte	W03
	.byte		        Gn3 , v080
	.byte	W03
	.byte		        Gn3 , v052
	.byte	W03
	.byte		        Gn3 , v032
	.byte	W03
	.byte		        Ds3 , v120
	.byte	W03
	.byte		        Ds3 , v080
	.byte	W03
	.byte		        Ds3 , v052
	.byte	W03
	.byte		        Ds3 , v032
	.byte	W03
	.byte		        Fn3 , v120
	.byte	W03
	.byte		        Fn3 , v080
	.byte	W03
	.byte		        Fn3 , v052
	.byte	W03
	.byte		        Fn3 , v032
	.byte	W03
	.byte		        Cs3 , v120
	.byte	W03
	.byte		        Cs3 , v080
	.byte	W03
	.byte		        Cs3 , v052
	.byte	W03
	.byte		        Cs3 , v032
	.byte	W03
	.byte	PEND
	.byte	PATT
	 .word	seq_021_7 + 0xF
	.byte	PATT
	 .word	seq_021_7 + 0x59
	.byte		N03   , As1 , v120
	.byte	W03
	.byte		        As1 , v080
	.byte	W03
	.byte		        As1 , v052
	.byte	W03
	.byte		        As1 , v032
	.byte	W03
	.byte		        As2 , v120
	.byte	W03
	.byte		        As2 , v080
	.byte	W03
	.byte		        As2 , v052
	.byte	W03
	.byte		        As2 , v032
	.byte	W03
	.byte		        Bn2 , v120
	.byte	W03
	.byte		        Bn2 , v080
	.byte	W03
	.byte		        Bn2 , v052
	.byte	W03
	.byte		        Bn2 , v032
	.byte	W03
	.byte		        As3 , v120
	.byte	W03
	.byte		        As3 , v080
	.byte	W03
	.byte		        As3 , v052
	.byte	W03
	.byte		        As3 , v032
	.byte	W03
	.byte		        Gs3 , v120
	.byte	W03
	.byte		        Gs3 , v080
	.byte	W03
	.byte		        Gs3 , v052
	.byte	W03
	.byte		        Gs3 , v032
	.byte	W03
	.byte		        Fn3 , v120
	.byte	W03
	.byte		        Fn3 , v080
	.byte	W03
	.byte		        Fn3 , v052
	.byte	W03
	.byte		        Fn3 , v032
	.byte	W03
	.byte		        Fs3 , v120
	.byte	W03
	.byte		        Fs3 , v080
	.byte	W03
	.byte		        Fs3 , v052
	.byte	W03
	.byte		        Fs3 , v032
	.byte	W03
	.byte		        Ds3 , v120
	.byte	W03
	.byte		        Ds3 , v080
	.byte	W03
	.byte		        Ds3 , v052
	.byte	W03
	.byte		        Ds3 , v032
	.byte	W03
	.byte		        Fn3 , v120
	.byte	W03
	.byte		        Fn3 , v080
	.byte	W03
	.byte		        Fn3 , v052
	.byte	W03
	.byte		        Fn3 , v032
	.byte	W03
	.byte		        Cs3 , v120
	.byte	W03
	.byte		        Cs3 , v080
	.byte	W03
	.byte		        Cs3 , v052
	.byte	W03
	.byte		        Cs3 , v032
	.byte	W03
	.byte		        Ds3 , v120
	.byte	W03
	.byte		        Ds3 , v080
	.byte	W03
	.byte		        Ds3 , v052
	.byte	W03
	.byte		        Ds3 , v032
	.byte	W03
	.byte		        Bn2 , v120
	.byte	W03
	.byte		        Bn2 , v080
	.byte	W03
	.byte		        Bn2 , v052
	.byte	W03
	.byte		        Bn2 , v032
	.byte	W03
	.byte		        As1 , v120
	.byte	W03
	.byte		        As1 , v080
	.byte	W03
	.byte		        As1 , v052
	.byte	W03
	.byte		        As1 , v032
	.byte	W03
	.byte		        As2 , v120
	.byte	W03
	.byte		        As2 , v080
	.byte	W03
	.byte		        As2 , v052
	.byte	W03
	.byte		        As2 , v032
	.byte	W03
	.byte		        Bn2 , v120
	.byte	W03
	.byte		        Bn2 , v080
	.byte	W03
	.byte		        Bn2 , v052
	.byte	W03
	.byte		        Bn2 , v032
	.byte	W03
	.byte		        As3 , v120
	.byte	W03
	.byte		        As3 , v080
	.byte	W03
	.byte		        As3 , v052
	.byte	W03
	.byte		        As3 , v032
	.byte	W03
	.byte		        Gs3 , v120
	.byte	W03
	.byte		        Gs3 , v080
	.byte	W03
	.byte		        Gs3 , v052
	.byte	W03
	.byte		        Gs3 , v032
	.byte	W03
	.byte		        Fn3 , v120
	.byte	W03
	.byte		        Fn3 , v080
	.byte	W03
	.byte		        Fn3 , v052
	.byte	W03
	.byte		        Fn3 , v032
	.byte	W03
	.byte		        Fs3 , v120
	.byte	W03
	.byte		        Fs3 , v080
	.byte	W03
	.byte		        Fs3 , v052
	.byte	W03
	.byte		        Fs3 , v032
	.byte	W03
	.byte		        Ds3 , v120
	.byte	W03
	.byte		        Ds3 , v080
	.byte	W03
	.byte		        Ds3 , v052
	.byte	W03
	.byte		        Ds3 , v032
	.byte	W03
	.byte		        Fn3 , v120
	.byte	W03
	.byte		        Fn3 , v080
	.byte	W03
	.byte		        Fn3 , v052
	.byte	W03
	.byte		        Fn3 , v032
	.byte	W03
	.byte		        Cs3 , v120
	.byte	W03
	.byte		        Cs3 , v080
	.byte	W03
	.byte		        Cs3 , v052
	.byte	W03
	.byte		        Cs3 , v032
	.byte	W03
	.byte	PATT
	 .word	seq_021_7 + 0xF
	.byte	PATT
	 .word	seq_021_7 + 0x59
	.byte	PATT
	 .word	seq_021_7 + 0xF
	.byte	PATT
	 .word	seq_021_7 + 0x59
	.byte		N03   , As1 , v120
	.byte	W03
	.byte		        As1 , v080
	.byte	W03
	.byte		        As1 , v052
	.byte	W03
	.byte		        As1 , v032
	.byte	W03
	.byte		        Ds3 , v120
	.byte	W03
	.byte		        Ds3 , v080
	.byte	W03
	.byte		        Ds3 , v052
	.byte	W03
	.byte		        Ds3 , v032
	.byte	W03
	.byte		        En3 , v120
	.byte	W03
	.byte		        En3 , v080
	.byte	W03
	.byte		        En3 , v052
	.byte	W03
	.byte		        En3 , v032
	.byte	W03
	.byte		        Ds4 , v120
	.byte	W03
	.byte		        Ds4 , v080
	.byte	W03
	.byte		        Ds4 , v052
	.byte	W03
	.byte		        Ds4 , v032
	.byte	W03
	.byte		        Cs4 , v120
	.byte	W03
	.byte		        Cs4 , v080
	.byte	W03
	.byte		        Cs4 , v052
	.byte	W03
	.byte		        Cs4 , v032
	.byte	W03
	.byte		        As3 , v120
	.byte	W03
	.byte		        As3 , v080
	.byte	W03
	.byte		        As3 , v052
	.byte	W03
	.byte		        As3 , v032
	.byte	W03
	.byte		        Bn3 , v120
	.byte	W03
	.byte		        Bn3 , v080
	.byte	W03
	.byte		        Bn3 , v052
	.byte	W03
	.byte		        Bn3 , v032
	.byte	W03
	.byte		        Gs3 , v120
	.byte	W03
	.byte		        Gs3 , v080
	.byte	W03
	.byte		        Gs3 , v052
	.byte	W03
	.byte		        Gs3 , v032
	.byte	W03
	.byte		        As3 , v120
	.byte	W03
	.byte		        As3 , v080
	.byte	W03
	.byte		        As3 , v052
	.byte	W03
	.byte		        As3 , v032
	.byte	W03
	.byte		        Fs3 , v120
	.byte	W03
	.byte		        Fs3 , v080
	.byte	W03
	.byte		        Fs3 , v052
	.byte	W03
	.byte		        Fs3 , v032
	.byte	W03
	.byte		        Gs3 , v120
	.byte	W03
	.byte		        Gs3 , v080
	.byte	W03
	.byte		        Gs3 , v052
	.byte	W03
	.byte		        Gs3 , v032
	.byte	W03
	.byte		        En3 , v120
	.byte	W03
	.byte		        En3 , v080
	.byte	W03
	.byte		        En3 , v052
	.byte	W03
	.byte		        En3 , v032
	.byte	W03
	.byte		        Ds2 , v120
	.byte	W03
	.byte		        Ds2 , v080
	.byte	W03
	.byte		        Ds2 , v052
	.byte	W03
	.byte		        Ds2 , v032
	.byte	W03
	.byte		        Ds3 , v120
	.byte	W03
	.byte		        Ds3 , v080
	.byte	W03
	.byte		        Ds3 , v052
	.byte	W03
	.byte		        Ds3 , v032
	.byte	W03
	.byte		        En3 , v120
	.byte	W03
	.byte		        En3 , v080
	.byte	W03
	.byte		        En3 , v052
	.byte	W03
	.byte		        En3 , v032
	.byte	W03
	.byte		        Ds4 , v120
	.byte	W03
	.byte		        Ds4 , v080
	.byte	W03
	.byte		        Ds4 , v052
	.byte	W03
	.byte		        Ds4 , v032
	.byte	W03
	.byte		        Cs4 , v120
	.byte	W03
	.byte		        Cs4 , v080
	.byte	W03
	.byte		        Cs4 , v052
	.byte	W03
	.byte		        Cs4 , v032
	.byte	W03
	.byte		        As3 , v120
	.byte	W03
	.byte		        As3 , v080
	.byte	W03
	.byte		        As3 , v052
	.byte	W03
	.byte		        As3 , v032
	.byte	W03
	.byte		        Bn3 , v120
	.byte	W03
	.byte		        Bn3 , v080
	.byte	W03
	.byte		        Bn3 , v052
	.byte	W03
	.byte		        Bn3 , v032
	.byte	W03
	.byte		        Gs3 , v120
	.byte	W03
	.byte		        Gs3 , v080
	.byte	W03
	.byte		        Gs3 , v052
	.byte	W03
	.byte		        Gs3 , v032
	.byte	W03
	.byte		        As3 , v120
	.byte	W03
	.byte		        As3 , v080
	.byte	W03
	.byte		        As3 , v052
	.byte	W03
	.byte		        As3 , v032
	.byte	W14
	.byte		VOICE , 61
	.byte	W01
	.byte		N08   , Cs3 , v092
	.byte	W12
	.byte		N04
	.byte	W24
	.byte		N04
	.byte	W24
	.byte		N04
	.byte	W11
	.byte		VOICE , 87
	.byte		MOD   , 50
	.byte	W01
	.byte		N02   , Cs3 , v100
	.byte	W03
	.byte		        Cs3 , v060
	.byte	W03
	.byte		        Cs3 , v048
	.byte	W03
	.byte		        Cs3 , v020
	.byte	W03
	.byte		        Gs4 , v100
	.byte	W03
	.byte		        Gs4 , v060
	.byte	W03
	.byte		        Gs3 , v100
	.byte	W03
	.byte		        Gs3 , v060
	.byte	W03
	.byte	PEND
	.byte		N02   , Gs3 , v048
	.byte	W03
	.byte		        Gs3 , v020
	.byte	W03
	.byte		        Gs3 , v100
	.byte	W03
	.byte		        Gs3 , v060
	.byte	W03
	.byte		        Gs4 , v100
	.byte	W03
	.byte		        Gs4 , v060
	.byte	W03
	.byte		        Gs3 , v100
	.byte	W03
	.byte		        Gs3 , v060
	.byte	W03
	.byte		        Bn3 , v100
	.byte	W03
	.byte		        Bn3 , v060
	.byte	W03
	.byte		        Gs3 , v100
	.byte	W03
	.byte		        Gs3 , v060
	.byte	W03
	.byte		        Gs4 , v100
	.byte	W03
	.byte		        Gs4 , v060
	.byte	W03
	.byte		        Gs3 , v100
	.byte	W03
	.byte		        Gs3 , v060
	.byte	W03
	.byte		        Gs3 , v048
	.byte	W03
	.byte		        Gs3 , v020
	.byte	W03
	.byte		        Gs3 , v100
	.byte	W03
	.byte		        Gs3 , v060
	.byte	W03
	.byte		        Gs4 , v100
	.byte	W03
	.byte		        Gs4 , v060
	.byte	W03
	.byte		        Gs3 , v100
	.byte	W03
	.byte		        Gs3 , v060
	.byte	W03
	.byte		        Gs3 , v048
	.byte	W03
	.byte		        Gs3 , v020
	.byte	W03
	.byte		        Gs3 , v100
	.byte	W03
	.byte		        Gs3 , v060
	.byte	W03
	.byte		        Gs4 , v100
	.byte	W03
	.byte		        Gs4 , v060
	.byte	W03
	.byte		        Gs4 , v048
	.byte	W03
	.byte		        Gs4 , v020
	.byte	W02
	.byte		VOICE , 61
	.byte		MOD   , 0
	.byte	W01
	.byte	PEND
	.byte	PATT
	 .word	seq_021_7 + 0x2CA
	.byte	PATT
	 .word	seq_021_7 + 0x2F3
	.byte		N08   , Cs3 , v092
	.byte	W12
	.byte		N04
	.byte	W24
	.byte		N04
	.byte	W24
	.byte		N04
	.byte	W24
	.byte		N24   , Gs3 
	.byte	W11
	.byte		VOICE , 87
	.byte		PAN   , c_v+0
	.byte	W01
	.byte	W32
	.byte	W03
	.byte		MOD   , 50
	.byte	W01
	.byte		N02   , Cs4 , v100
	.byte	W03
	.byte		        Cs4 , v060
	.byte	W03
	.byte		        Cs4 , v048
	.byte	W03
	.byte		        Cs4 , v020
	.byte	W15
	.byte		        Cs4 , v092
	.byte	W03
	.byte		        Cs4 , v052
	.byte	W03
	.byte		        Cs4 , v036
	.byte	W03
	.byte		        Cs4 , v012
	.byte	W15
	.byte		        Ds4 , v092
	.byte	W03
	.byte		        Ds4 , v052
	.byte	W03
	.byte		        Ds3 , v092
	.byte	W03
	.byte		        Ds3 , v052
	.byte	W03
	.byte		N02   , Ds3 , v036
	.byte	W03
	.byte		        Ds3 , v012
	.byte	W03
	.byte		        Ds3 , v092
	.byte	W03
	.byte		        Ds3 , v052
	.byte	W03
	.byte		        Ds4 , v092
	.byte	W03
	.byte		        Ds4 , v052
	.byte	W03
	.byte		        Ds3 , v092
	.byte	W03
	.byte		        Ds3 , v052
	.byte	W03
	.byte		        Fs3 , v092
	.byte	W03
	.byte		        Fs3 , v052
	.byte	W03
	.byte		        Ds3 , v092
	.byte	W03
	.byte		        Ds3 , v052
	.byte	W03
	.byte		        Ds4 , v092
	.byte	W03
	.byte		        Ds4 , v052
	.byte	W03
	.byte		        Ds3 , v092
	.byte	W03
	.byte		        Ds3 , v052
	.byte	W03
	.byte		        Ds3 , v036
	.byte	W03
	.byte		        Ds3 , v012
	.byte	W03
	.byte		        Ds3 , v092
	.byte	W03
	.byte		        Ds3 , v052
	.byte	W03
	.byte		        Ds4 , v092
	.byte	W03
	.byte		        Ds4 , v052
	.byte	W03
	.byte		        Ds3 , v092
	.byte	W03
	.byte		        Ds3 , v052
	.byte	W03
	.byte		        Fs3 , v092
	.byte	W03
	.byte		        Fs3 , v052
	.byte	W03
	.byte		        Ds3 , v092
	.byte	W03
	.byte		        Ds3 , v052
	.byte	W03
	.byte		        Ds4 , v092
	.byte	W03
	.byte		        Ds4 , v052
	.byte	W03
	.byte		        Ds3 , v092
	.byte	W03
	.byte		        Ds3 , v052
	.byte	W03
	.byte	PEND
	.byte		        Ds3 , v036
	.byte	W03
	.byte		        Ds3 , v012
	.byte	W03
	.byte		        Ds3 , v092
	.byte	W03
	.byte		        Ds3 , v052
	.byte	W03
	.byte		        Ds4 , v092
	.byte	W03
	.byte		        Ds4 , v052
	.byte	W03
	.byte		        Ds3 , v092
	.byte	W03
	.byte		        Ds3 , v052
	.byte	W03
	.byte		        Fs3 , v092
	.byte	W03
	.byte		        Fs3 , v052
	.byte	W03
	.byte		        Ds3 , v092
	.byte	W03
	.byte		        Ds3 , v052
	.byte	W03
	.byte		        Cs3 , v092
	.byte	W03
	.byte		        Cs3 , v052
	.byte	W44
	.byte	W01
	.byte		        Ds4 , v092
	.byte	W03
	.byte		        Ds4 , v052
	.byte	W03
	.byte		        Ds3 , v092
	.byte	W03
	.byte		        Ds3 , v052
	.byte	W03
	.byte	PATT
	 .word	seq_021_7 + 0x3A0
	.byte		N02   , Ds3 , v036
	.byte	W03
	.byte		        Ds3 , v012
	.byte	W03
	.byte		        Ds3 , v092
	.byte	W03
	.byte		        Ds3 , v052
	.byte	W03
	.byte		        Ds4 , v092
	.byte	W03
	.byte		        Ds4 , v052
	.byte	W03
	.byte		        Ds3 , v092
	.byte	W03
	.byte		        Ds3 , v052
	.byte	W03
	.byte		        Fs3 , v092
	.byte	W03
	.byte		        Fs3 , v052
	.byte	W03
	.byte		        Ds3 , v092
	.byte	W03
	.byte		        Ds3 , v052
	.byte	W03
	.byte		        Cs3 , v092
	.byte	W03
	.byte		        Cs3 , v052
	.byte	W32
	.byte	W01
	.byte		MOD   , 0
	.byte	W23
	.byte		VOICE , 58
	.byte	W01
	.byte	GOTO
	 .word	seq_021_7 + 0xF
	.byte	FINE

@*********************** Track 09 ***********************@

seq_021_8:
	.byte	KEYSH , seq_021_key+0
	.byte	W12
	.byte		VOICE , 46
	.byte	W01
	.byte		VOL   , 80*seq_021_mvl/mxv
	.byte	W01
	.byte		PAN   , c_v+0
	.byte	W10
	.byte	W12
	.byte		N06   , Cn3 , v120
	.byte	W06
	.byte		        Cn3 , v048
	.byte	W06
	.byte		        Cs3 , v120
	.byte	W06
	.byte		        Cs3 , v048
	.byte	W06
	.byte		        Cn4 , v120
	.byte	W06
	.byte		        Cn4 , v048
	.byte	W06
	.byte		        As3 , v120
	.byte	W06
	.byte		        As3 , v048
	.byte	W06
	.byte		        Gn3 , v120
	.byte	W06
	.byte		        Gn3 , v048
	.byte	W06
	.byte	PEND
	.byte		N06   , Gs3 , v120
	.byte	W06
	.byte		        Gs3 , v048
	.byte	W06
	.byte		        Fn3 , v120
	.byte	W06
	.byte		        Fn3 , v048
	.byte	W06
	.byte		        Gn3 , v120
	.byte	W06
	.byte		        Gn3 , v048
	.byte	W06
	.byte		        Ds3 , v120
	.byte	W06
	.byte		        Ds3 , v048
	.byte	W06
	.byte		        Fn3 , v120
	.byte	W06
	.byte		        Fn3 , v048
	.byte	W06
	.byte		        Cs3 , v120
	.byte	W06
	.byte		        Cs3 , v048
	.byte	W06
	.byte	PEND
	.byte	PATT
	 .word	seq_021_8 + 0xC
	.byte	PATT
	 .word	seq_021_8 + 0x2D
	.byte	W12
	.byte		N06   , As2 , v120
	.byte	W06
	.byte		        As2 , v048
	.byte	W06
	.byte		        Bn2 , v120
	.byte	W06
	.byte		        Bn2 , v048
	.byte	W06
	.byte		        As3 , v120
	.byte	W06
	.byte		        As3 , v048
	.byte	W06
	.byte		        Gs3 , v120
	.byte	W06
	.byte		        Gs3 , v048
	.byte	W06
	.byte		        Fn3 , v120
	.byte	W06
	.byte		        Fn3 , v048
	.byte	W06
	.byte		        Fs3 , v120
	.byte	W06
	.byte		        Fs3 , v048
	.byte	W06
	.byte		        Ds3 , v120
	.byte	W06
	.byte		        Ds3 , v048
	.byte	W06
	.byte		        Fn3 , v120
	.byte	W06
	.byte		        Fn3 , v048
	.byte	W06
	.byte		        Cs3 , v120
	.byte	W06
	.byte		        Cs3 , v048
	.byte	W06
	.byte		        Ds3 , v120
	.byte	W06
	.byte		        Ds3 , v048
	.byte	W06
	.byte		        Bn2 , v120
	.byte	W06
	.byte		        Bn2 , v048
	.byte	W06
	.byte	W12
	.byte		        As2 , v120
	.byte	W06
	.byte		        As2 , v048
	.byte	W06
	.byte		        Bn2 , v120
	.byte	W06
	.byte		        Bn2 , v048
	.byte	W06
	.byte		        As3 , v120
	.byte	W06
	.byte		        As3 , v048
	.byte	W06
	.byte		        Gs3 , v120
	.byte	W06
	.byte		        Gs3 , v048
	.byte	W06
	.byte		        Fn3 , v120
	.byte	W06
	.byte		        Fn3 , v048
	.byte	W06
	.byte		        Fs3 , v120
	.byte	W06
	.byte		        Fs3 , v048
	.byte	W06
	.byte		        Ds3 , v120
	.byte	W06
	.byte		        Ds3 , v048
	.byte	W06
	.byte		        Fn3 , v120
	.byte	W06
	.byte		        Fn3 , v048
	.byte	W06
	.byte		        Cs3 , v120
	.byte	W06
	.byte		        Cs3 , v048
	.byte	W06
	.byte	PATT
	 .word	seq_021_8 + 0xC
	.byte	PATT
	 .word	seq_021_8 + 0x2D
	.byte	PATT
	 .word	seq_021_8 + 0xC
	.byte	PATT
	 .word	seq_021_8 + 0x2D
	.byte	W12
	.byte		N06   , Ds3 , v120
	.byte	W06
	.byte		        Ds3 , v048
	.byte	W06
	.byte		        En3 , v120
	.byte	W06
	.byte		        En3 , v048
	.byte	W06
	.byte		        Ds4 , v120
	.byte	W06
	.byte		        Ds4 , v048
	.byte	W06
	.byte		        Cs4 , v120
	.byte	W06
	.byte		        Cs4 , v048
	.byte	W06
	.byte		        As3 , v120
	.byte	W06
	.byte		        As3 , v048
	.byte	W06
	.byte		        Bn3 , v120
	.byte	W06
	.byte		        Bn3 , v048
	.byte	W06
	.byte		        Gs3 , v120
	.byte	W06
	.byte		        Gs3 , v048
	.byte	W06
	.byte		        As3 , v120
	.byte	W06
	.byte		        As3 , v048
	.byte	W06
	.byte		        Fs3 , v120
	.byte	W06
	.byte		        Fs3 , v048
	.byte	W06
	.byte		        Gs3 , v120
	.byte	W06
	.byte		        Gs3 , v048
	.byte	W06
	.byte		        En3 , v120
	.byte	W06
	.byte		        En3 , v048
	.byte	W06
	.byte	W12
	.byte		        Ds3 , v120
	.byte	W06
	.byte		        Ds3 , v048
	.byte	W06
	.byte		        En3 , v120
	.byte	W06
	.byte		        En3 , v048
	.byte	W06
	.byte		        Ds4 , v120
	.byte	W06
	.byte		        Ds4 , v048
	.byte	W06
	.byte		        Cs4 , v120
	.byte	W06
	.byte		        Cs4 , v048
	.byte	W06
	.byte		        As3 , v120
	.byte	W06
	.byte		        As3 , v048
	.byte	W06
	.byte		        Bn3 , v120
	.byte	W06
	.byte		        Bn3 , v048
	.byte	W06
	.byte		        Gs3 , v120
	.byte	W06
	.byte		        Gs3 , v048
	.byte	W06
	.byte		        As3 , v120
	.byte	W06
	.byte		        As3 , v048
	.byte	W06
	.byte		        As3 , v032
	.byte	W06
	.byte		        As3 , v020
	.byte	W06
	.byte	W96
	.byte	W96
	.byte	W96
	.byte	W96
	.byte	W96
	.byte	W12
	.byte		VOICE , 12
	.byte	W84
	.byte	W12
	.byte		N06   , As3 , v080
	.byte	W06
	.byte		        As3 , v052
	.byte	W06
	.byte		        Bn3 , v080
	.byte	W06
	.byte		        Bn3 , v052
	.byte	W06
	.byte		        Fs4 
	.byte	W06
	.byte		N06
	.byte	W06
	.byte		        Fs4 , v028
	.byte	W06
	.byte		        Fs4 , v012
	.byte	W06
	.byte		        Cs4 , v080
	.byte	W06
	.byte		        Cs4 , v052
	.byte	W06
	.byte		        Cs4 , v028
	.byte	W06
	.byte		        Cs4 , v012
	.byte	W06
	.byte		        Ds4 , v080
	.byte	W06
	.byte		        Ds4 , v052
	.byte	W06
	.byte	PEND
	.byte		        Ds4 , v028
	.byte	W06
	.byte		        Ds4 , v012
	.byte	W30
	.byte		        Fs4 , v052
	.byte	W06
	.byte		N06
	.byte	W06
	.byte		        Fs4 , v028
	.byte	W06
	.byte		        Fs4 , v012
	.byte	W06
	.byte		        Fn4 , v052
	.byte	W06
	.byte		N06
	.byte	W06
	.byte		        Fn4 , v028
	.byte	W06
	.byte		        Fn4 , v012
	.byte	W18
	.byte	PATT
	 .word	seq_021_8 + 0x170
	.byte		N06   , Ds4 , v028
	.byte	W06
	.byte		        Ds4 , v012
	.byte	W30
	.byte		        Fs4 , v052
	.byte	W06
	.byte		N06
	.byte	W06
	.byte		        Fs4 , v028
	.byte	W06
	.byte		        Fs4 , v012
	.byte	W06
	.byte		        Fn4 , v052
	.byte	W06
	.byte		N06
	.byte	W06
	.byte		        Fn4 , v028
	.byte	W06
	.byte		        Fn4 , v012
	.byte	W11
	.byte		VOICE , 46
	.byte	W07
	.byte	GOTO
	 .word	seq_021_8 + 0xC
	.byte	FINE

@*********************** Track 10 ***********************@

seq_021_9:
	.byte	KEYSH , seq_021_key+0
	.byte	W18
	.byte		VOICE , 12
	.byte	W01
	.byte		VOL   , 78*seq_021_mvl/mxv
	.byte	W01
	.byte		PAN   , c_v+0
	.byte	W04
	.byte	W72
	.byte	W72
	.byte	W72
	.byte	W72
	.byte	W72
	.byte	W72
	.byte	W96
	.byte	W24
	.byte	W72
	.byte	W72
	.byte	W72
	.byte	W72
	.byte	W72
	.byte	W72
	.byte	W96
	.byte	W11
	.byte		VOICE , 95
	.byte		PAN   , c_v+0
	.byte	W01
	.byte		N02   , En2 , v092
	.byte	W03
	.byte		        Fs2 
	.byte	W03
	.byte		        Gs2 
	.byte	W03
	.byte		        As2 
	.byte	W03
	.byte		N11   , Bn2 , v092
	.byte	W12
	.byte		N05
	.byte	W06
	.byte		N03   , Bn2 , v020
	.byte	W06
	.byte		N02   , Bn1 , v052
	.byte	W06
	.byte		N03   , Bn1 , v020
	.byte	W06
	.byte		N05   , Bn2 , v092
	.byte	W06
	.byte		N03   , Bn2 , v020
	.byte	W06
	.byte		N02   , Bn1 , v052
	.byte	W06
	.byte		N03   , Bn1 , v020
	.byte	W06
	.byte		N05   , Bn2 , v092
	.byte	W06
	.byte		N03   , Bn2 , v020
	.byte	W18
	.byte		N54   , Cs3 , v072
	.byte	W11
	.byte		VOL   , 75*seq_021_mvl/mxv
	.byte	W01
	.byte	PEND
	.byte	W02
	.byte		VOL   , 74*seq_021_mvl/mxv
	.byte	W03
	.byte		        73*seq_021_mvl/mxv
	.byte	W03
	.byte		        71*seq_021_mvl/mxv
	.byte	W03
	.byte		        70*seq_021_mvl/mxv
	.byte	W03
	.byte		        69*seq_021_mvl/mxv
	.byte	W03
	.byte		        68*seq_021_mvl/mxv
	.byte	W03
	.byte		        66*seq_021_mvl/mxv
	.byte	W02
	.byte		        64*seq_021_mvl/mxv
	.byte	W02
	.byte		        62*seq_021_mvl/mxv
	.byte	W02
	.byte		        59*seq_021_mvl/mxv
	.byte	W02
	.byte		        57*seq_021_mvl/mxv
	.byte	W02
	.byte		        54*seq_021_mvl/mxv
	.byte	W02
	.byte		        51*seq_021_mvl/mxv
	.byte	W02
	.byte		        46*seq_021_mvl/mxv
	.byte	W02
	.byte		        42*seq_021_mvl/mxv
	.byte	W02
	.byte		        37*seq_021_mvl/mxv
	.byte	W02
	.byte		        29*seq_021_mvl/mxv
	.byte	W01
	.byte		        22*seq_021_mvl/mxv
	.byte	W01
	.byte		        16*seq_021_mvl/mxv
	.byte	W01
	.byte		        9*seq_021_mvl/mxv
	.byte	W04
	.byte		VOICE , 12
	.byte		VOL   , 78*seq_021_mvl/mxv
	.byte		PAN   , c_v-30
	.byte	W01
	.byte		N04   , Gs4 , v092
	.byte	W05
	.byte		PAN   , c_v+30
	.byte	W01
	.byte		N04   , Gs5 
	.byte	W05
	.byte		PAN   , c_v-30
	.byte	W01
	.byte		N04   , Ds5 , v080
	.byte	W05
	.byte		PAN   , c_v+30
	.byte	W01
	.byte		N04   , Gs4 , v048
	.byte	W05
	.byte		PAN   , c_v-30
	.byte	W01
	.byte		N04   , Cs5 , v072
	.byte	W05
	.byte		PAN   , c_v+30
	.byte	W01
	.byte		N04   , Gs4 , v052
	.byte	W05
	.byte		PAN   , c_v-30
	.byte	W01
	.byte		N04   , Ds4 
	.byte	W11
	.byte		VOICE , 95
	.byte		PAN   , c_v+0
	.byte	W01
	.byte	PEND
	.byte	PATT
	 .word	seq_021_9 + 0x2B
	.byte	PATT
	 .word	seq_021_9 + 0x5D
	.byte		N11   , Bn2 , v092
	.byte	W12
	.byte		N05
	.byte	W06
	.byte		N03   , Bn2 , v020
	.byte	W06
	.byte		N02   , Bn1 , v052
	.byte	W06
	.byte		N03   , Bn1 , v020
	.byte	W06
	.byte		N05   , Bn2 , v092
	.byte	W06
	.byte		N03   , Bn2 , v020
	.byte	W06
	.byte		N02   , Bn1 , v052
	.byte	W06
	.byte		N03   , Bn1 , v020
	.byte	W06
	.byte		N05   , Bn2 , v092
	.byte	W06
	.byte		N03   , Bn2 , v020
	.byte	W18
	.byte		N30   , Cs3 , v092
	.byte	W12
	.byte	W96
	.byte	W96
	.byte	W44
	.byte	W03
	.byte		VOICE , 12
	.byte		VOL   , 78*seq_021_mvl/mxv
	.byte		PAN   , c_v-30
	.byte	W01
	.byte		N04   , Gs4 
	.byte	W05
	.byte		PAN   , c_v+30
	.byte	W01
	.byte		N04   , Gs5 
	.byte	W05
	.byte		PAN   , c_v-30
	.byte	W01
	.byte		N04   , Ds5 , v080
	.byte	W05
	.byte		PAN   , c_v+30
	.byte	W01
	.byte		N04   , Gs4 , v048
	.byte	W05
	.byte		PAN   , c_v-30
	.byte	W01
	.byte		N04   , Cs5 , v072
	.byte	W05
	.byte		PAN   , c_v+30
	.byte	W01
	.byte		N04   , Gs4 , v052
	.byte	W05
	.byte		PAN   , c_v-30
	.byte	W01
	.byte		N04   , Ds4 
	.byte	W12
	.byte	W96
	.byte	W96
	.byte	GOTO
	 .word	seq_021_9 + 0xC
	.byte	FINE

@*********************** Track 11 ***********************@

seq_021_10:
	.byte	KEYSH , seq_021_key+0
	.byte	W18
	.byte		VOICE , 127
	.byte	W01
	.byte		VOL   , 78*seq_021_mvl/mxv
	.byte	W01
	.byte		PAN   , c_v+0
	.byte	W04
	.byte	W72
	.byte	W72
	.byte	W72
	.byte	W72
	.byte	W72
	.byte	W72
	.byte	W96
	.byte	W24
	.byte	W72
	.byte	W72
	.byte	W72
	.byte	W72
	.byte	W72
	.byte	W72
	.byte	W96
	.byte	W24
	.byte		N03   , Cn1 , v120
	.byte	W12
	.byte		        Fn1 , v092
	.byte	W12
	.byte		        Fn3 , v120
	.byte	W12
	.byte		        Fn1 , v092
	.byte	W12
	.byte		N06   , Gs4 , v072
	.byte	W12
	.byte		N12   , An4 
	.byte	W12
	.byte		N03   , Fn3 , v120
	.byte	W12
	.byte		N12   , An4 , v072
	.byte	W12
	.byte	PEND
	.byte		N03   , Cn1 , v120
	.byte	W12
	.byte		        Fn3 
	.byte	W12
	.byte		        En1 , v092
	.byte	W12
	.byte		        Cn1 , v120
	.byte	W12
	.byte		N12   , Gs4 , v072
	.byte	W12
	.byte		N03   , Cn1 , v120
	.byte	W12
	.byte		        En1 , v092
	.byte	W12
	.byte		N12   , An4 , v072
	.byte	W12
	.byte	PEND
	.byte	PATT
	 .word	seq_021_10 + 0x1C
	.byte	PATT
	 .word	seq_021_10 + 0x39
	.byte		N03   , Cn1 , v120
	.byte	W12
	.byte		        Fn1 
	.byte	W24
	.byte		N03
	.byte	W12
	.byte		N06   , Gs4 , v072
	.byte	W12
	.byte		N03   , Fn1 , v120
	.byte	W24
	.byte		N36   , An4 , v072
	.byte	W12
	.byte	W48
	.byte		N06   , Gs4 
	.byte	W12
	.byte		N12   , An4 
	.byte	W12
	.byte		N06   , Gs4 
	.byte	W12
	.byte		N12   , An4 
	.byte	W12
	.byte	W96
	.byte	W96
	.byte	W96
	.byte	W96
	.byte	GOTO
	 .word	seq_021_10 + 0xC
	.byte	FINE

@*********************** Track 12 ***********************@

seq_021_11:
	.byte	KEYSH , seq_021_key+0
	.byte	W18
	.byte		VOICE , 127
	.byte	W01
	.byte		VOL   , 80*seq_021_mvl/mxv
	.byte	W01
	.byte		PAN   , c_v+0
	.byte	W03
	.byte		        c_v-63
	.byte	W01
	.byte		N06   , An3 , v040
	.byte	W06
	.byte		        An3 , v032
	.byte	W06
	.byte		        An3 , v072
	.byte	W06
	.byte		        An3 , v032
	.byte	W06
	.byte		        An3 , v092
	.byte	W06
	.byte		        An3 , v032
	.byte	W06
	.byte		        An3 , v072
	.byte	W06
	.byte		        An3 , v032
	.byte	W06
	.byte		        An3 , v040
	.byte	W06
	.byte		        An3 , v020
	.byte	W06
	.byte		        An3 , v040
	.byte	W06
	.byte		        An3 , v020
	.byte	W05
	.byte		PAN   , c_v+63
	.byte	W01
	.byte	PEND
	.byte		N06   , An3 , v040
	.byte	W06
	.byte		        An3 , v032
	.byte	W06
	.byte		        An3 , v072
	.byte	W06
	.byte		        An3 , v032
	.byte	W06
	.byte		        An3 , v092
	.byte	W06
	.byte		        An3 , v032
	.byte	W06
	.byte		        An3 , v072
	.byte	W06
	.byte		        An3 , v032
	.byte	W06
	.byte		        An3 , v040
	.byte	W06
	.byte		        An3 , v020
	.byte	W06
	.byte		        An3 , v040
	.byte	W06
	.byte		        An3 , v020
	.byte	W05
	.byte		PAN   , c_v-63
	.byte	W01
	.byte	PEND
	.byte	PATT
	 .word	seq_021_11 + 0xE
	.byte	PATT
	 .word	seq_021_11 + 0x37
	.byte	PATT
	 .word	seq_021_11 + 0xE
	.byte	PATT
	 .word	seq_021_11 + 0x37
	.byte		N06   , An3 , v040
	.byte	W06
	.byte		        An3 , v032
	.byte	W06
	.byte		        An3 , v072
	.byte	W06
	.byte		        An3 , v032
	.byte	W06
	.byte		        An3 , v092
	.byte	W06
	.byte		        An3 , v032
	.byte	W06
	.byte		        An3 , v072
	.byte	W06
	.byte		        An3 , v032
	.byte	W06
	.byte		        An3 , v040
	.byte	W06
	.byte		        An3 , v020
	.byte	W06
	.byte		        An3 , v040
	.byte	W06
	.byte		        An3 , v020
	.byte	W05
	.byte		PAN   , c_v+63
	.byte	W01
	.byte		N06   , An3 , v040
	.byte	W06
	.byte		        An3 , v032
	.byte	W06
	.byte		        An3 , v072
	.byte	W06
	.byte		        An3 , v032
	.byte	W05
	.byte		PAN   , c_v+0
	.byte	W01
	.byte		N06   , En2 , v048
	.byte	W06
	.byte		        En2 , v032
	.byte	W06
	.byte		        An3 , v048
	.byte	W11
	.byte		PAN   , c_v-63
	.byte	W01
	.byte	PATT
	 .word	seq_021_11 + 0xE
	.byte	PATT
	 .word	seq_021_11 + 0x37
	.byte	PATT
	 .word	seq_021_11 + 0xE
	.byte	PATT
	 .word	seq_021_11 + 0x37
	.byte	PATT
	 .word	seq_021_11 + 0xE
	.byte	PATT
	 .word	seq_021_11 + 0x37
	.byte		N06   , An3 , v040
	.byte	W06
	.byte		        An3 , v032
	.byte	W06
	.byte		        An3 , v072
	.byte	W06
	.byte		        An3 , v032
	.byte	W06
	.byte		        An3 , v092
	.byte	W06
	.byte		        An3 , v032
	.byte	W06
	.byte		        An3 , v072
	.byte	W06
	.byte		        An3 , v032
	.byte	W06
	.byte		        An3 , v040
	.byte	W06
	.byte		        An3 , v020
	.byte	W06
	.byte		        An3 , v040
	.byte	W06
	.byte		        An3 , v020
	.byte	W05
	.byte		PAN   , c_v+63
	.byte	W01
	.byte		N06   , An3 , v040
	.byte	W06
	.byte		        An3 , v032
	.byte	W06
	.byte		        An3 , v072
	.byte	W06
	.byte		        An3 , v032
	.byte	W28
	.byte	W01
	.byte		PAN   , c_v+0
	.byte	W01
	.byte		N03   , An3 , v072
	.byte	W06
	.byte		N06   , An3 , v012
	.byte	W06
	.byte		        En2 , v072
	.byte	W06
	.byte		        En2 , v012
	.byte	W18
	.byte		N03   , An3 , v072
	.byte	W24
	.byte		N03
	.byte	W06
	.byte		N06   , An3 , v012
	.byte	W18
	.byte		N12   , En2 , v072
	.byte	W12
	.byte	PEND
	.byte		N06   , En2 , v012
	.byte	W12
	.byte		N03   , An3 , v072
	.byte	W12
	.byte		N06   , An3 , v012
	.byte	W12
	.byte		N03   , An3 , v072
	.byte	W12
	.byte		N06   , An3 , v012
	.byte	W12
	.byte		N03   , An3 , v072
	.byte	W12
	.byte		N06   , An3 , v012
	.byte	W06
	.byte		        En2 , v072
	.byte	W06
	.byte		        En2 , v012
	.byte	W12
	.byte	PEND
	.byte	PATT
	 .word	seq_021_11 + 0x110
	.byte	PATT
	 .word	seq_021_11 + 0x12D
	.byte		N03   , An3 , v072
	.byte	W06
	.byte		N06   , An3 , v012
	.byte	W06
	.byte		        En2 , v072
	.byte	W06
	.byte		        En2 , v012
	.byte	W12
	.byte		        An3 
	.byte	W06
	.byte		N03   , An3 , v072
	.byte	W24
	.byte		N03
	.byte	W04
	.byte		N06   , An3 , v012
	.byte	W20
	.byte		N24   , En2 , v072
	.byte	W12
	.byte	W36
	.byte		N03   , An3 
	.byte	W04
	.byte		N06   , An3 , v012
	.byte	W20
	.byte		N03   , An3 , v072
	.byte	W04
	.byte		N06   , An3 , v012
	.byte	W20
	.byte		N12   , En2 , v072
	.byte	W11
	.byte		PAN   , c_v-63
	.byte	W01
	.byte		N06   , An3 , v040
	.byte	W06
	.byte		        An3 , v032
	.byte	W06
	.byte		        An3 , v072
	.byte	W06
	.byte		        An3 , v032
	.byte	W06
	.byte		        An3 , v092
	.byte	W06
	.byte		        An3 , v032
	.byte	W06
	.byte		        An3 , v072
	.byte	W06
	.byte		        An3 , v032
	.byte	W05
	.byte		PAN   , c_v+63
	.byte	W01
	.byte		N06   , An3 , v040
	.byte	W06
	.byte		        An3 , v032
	.byte	W06
	.byte		        An3 , v072
	.byte	W06
	.byte		        An3 , v032
	.byte	W06
	.byte		        An3 , v092
	.byte	W06
	.byte		        An3 , v032
	.byte	W06
	.byte		        An3 , v072
	.byte	W06
	.byte		        An3 , v032
	.byte	W05
	.byte		PAN   , c_v-63
	.byte	W01
	.byte	PEND
	.byte		N06   , An3 , v040
	.byte	W06
	.byte		        An3 , v032
	.byte	W06
	.byte		        An3 , v072
	.byte	W06
	.byte		        An3 , v032
	.byte	W06
	.byte		        An3 , v092
	.byte	W06
	.byte		        An3 , v032
	.byte	W05
	.byte		PAN   , c_v+0
	.byte	W01
	.byte		N12   , En2 , v052
	.byte	W12
	.byte		N03   , An3 , v072
	.byte	W06
	.byte		N06   , An3 , v012
	.byte	W06
	.byte		        En2 , v072
	.byte	W06
	.byte		        En2 , v012
	.byte	W06
	.byte		N03   , An3 , v072
	.byte	W12
	.byte		N12   , En2 , v052
	.byte	W11
	.byte		PAN   , c_v-63
	.byte	W01
	.byte	PATT
	 .word	seq_021_11 + 0x18F
	.byte		N06   , An3 , v040
	.byte	W06
	.byte		        An3 , v032
	.byte	W06
	.byte		        An3 , v072
	.byte	W06
	.byte		        An3 , v032
	.byte	W06
	.byte		        An3 , v092
	.byte	W06
	.byte		        An3 , v032
	.byte	W05
	.byte		PAN   , c_v+0
	.byte	W01
	.byte		N12   , En2 , v052
	.byte	W12
	.byte		N03   , An3 , v072
	.byte	W06
	.byte		N06   , An3 , v012
	.byte	W06
	.byte		        En2 , v072
	.byte	W06
	.byte		        En2 , v012
	.byte	W06
	.byte		N03   , An3 , v072
	.byte	W12
	.byte		N12   , En2 , v052
	.byte	W12
	.byte	GOTO
	 .word	seq_021_11 + 0xE
	.byte	FINE

@******************************************************@

	.align	2

seq_021:
	.byte	12	@ NumTrks
	.byte	0	@ NumBlks
	.byte	seq_021_pri	@ Priority
	.byte	seq_021_rev	@ Reverb

	.word	seq_021_grp

	.word	seq_021_0
	.word	seq_021_1
	.word	seq_021_2
	.word	seq_021_3
	.word	seq_021_4
	.word	seq_021_5
	.word	seq_021_6
	.word	seq_021_7
	.word	seq_021_8
	.word	seq_021_9
	.word	seq_021_10
	.word	seq_021_11

	.end
