@ File generated by m4a2s Song-Module
	.include "MPlayDef.s"

	.equ	seq_629_grp, bank_026
	.equ	seq_629_pri, 127
	.equ	seq_629_rev, 0
	.equ	seq_629_mvl, 127
	.equ	seq_629_key, 0

	.section .rodata
	.global	seq_629
	.align	2

@*********************** Track 01 ***********************@

seq_629_0:
	.byte	KEYSH , seq_629_key+0
	.byte	TEMPO , 160/2
	.byte		VOICE , 15
	.byte		VOL   , 127*seq_629_mvl/mxv
	.byte		PAN   , c_v+0
	.byte	W01
	.byte		MOD   , 40
	.byte		LFOS  , 60
	.byte		MODT  , mod_pan
	.byte	W01
	.byte		N03   , En2 , v120
	.byte	W03
	.byte		        Fn2 , v060
	.byte	W03
	.byte		        Bn2 , v120
	.byte	W03
	.byte		        Bn2 , v060
	.byte	W03
	.byte		        En2 , v100
	.byte	W03
	.byte		        Fn2 , v060
	.byte	W03
	.byte		        Gs2 , v120
	.byte	W03
	.byte		        An2 , v060
	.byte	W03
	.byte		        En2 , v120
	.byte	W03
	.byte		        Fn2 , v060
	.byte	W03
	.byte		        Bn2 , v120
	.byte	W03
	.byte		        Cn3 , v060
	.byte	W03
	.byte		        En2 , v100
	.byte	W03
	.byte		        En2 , v060
	.byte	W03
	.byte		        Bn2 , v100
	.byte	W03
	.byte		        Bn2 , v040
	.byte	W03
	.byte		        En2 , v120
	.byte	W03
	.byte		        Fn2 , v060
	.byte	W03
	.byte		        As2 , v120
	.byte	W03
	.byte		        Bn2 , v060
	.byte	W03
	.byte		        En2 , v100
	.byte	W03
	.byte		        Fn2 , v060
	.byte	W03
	.byte		        Gs2 , v120
	.byte	W03
	.byte		        Gs2 , v060
	.byte	W03
	.byte		        En2 , v120
	.byte	W03
	.byte		        Fn2 , v060
	.byte	W03
	.byte		        Bn2 , v120
	.byte	W03
	.byte		        Cn3 , v060
	.byte	W03
	.byte		        En2 , v100
	.byte	W03
	.byte		        En2 , v060
	.byte	W03
	.byte		        As2 , v100
	.byte	W03
	.byte		        Bn2 , v040
	.byte	W01
	.byte	W02
	.byte		        En2 , v100
	.byte	W03
	.byte		        Fn2 , v040
	.byte	W03
	.byte		        Gs2 , v100
	.byte	W03
	.byte		        Gs2 , v040
	.byte	W03
	.byte		        Bn2 , v080
	.byte	W03
	.byte		        Bn2 , v020
	.byte	W03
	.byte		        En2 , v080
	.byte	W03
	.byte		        En2 , v020
	.byte	W03
	.byte		        Bn2 , v060
	.byte	W03
	.byte		        Bn2 , v020
	.byte	W03
	.byte		        En2 , v040
	.byte	W03
	.byte		        En2 , v020
	.byte	W03
	.byte		        Gs2 , v040
	.byte	W03
	.byte		        Gs2 , v020
	.byte	W03
	.byte	FINE

@******************************************************@

	.align	2

seq_629:
	.byte	1	@ NumTrks
	.byte	0	@ NumBlks
	.byte	seq_629_pri	@ Priority
	.byte	seq_629_rev	@ Reverb

	.word	seq_629_grp

	.word	seq_629_0

	.end
