@ File generated by m4a2s Song-Module
	.include "MPlayDef.s"

	.equ	seq_110_grp, bank_014
	.equ	seq_110_pri, 50
	.equ	seq_110_rev, 198
	.equ	seq_110_mvl, 127
	.equ	seq_110_key, 0

	.section .rodata
	.global	seq_110
	.align	2

@*********************** Track 01 ***********************@

seq_110_0:
	.byte	KEYSH , seq_110_key+0
	.byte	TEMPO , 240/2
	.byte		VOICE , 127
	.byte	W01
	.byte		VOL   , 75*seq_110_mvl/mxv
	.byte	W01
	.byte		PAN   , c_v+0
	.byte	W10
	.byte	TEMPO , 122/2
	.byte	W12
	.byte	W72
	.byte	TEMPO , 116/2
	.byte	W24
	.byte	TEMPO , 122/2
	.byte		N03   , Cn7 , v100
	.byte	W12
	.byte		N02   , Dn6 , v080
	.byte	W12
	.byte		N03   , Fs5 
	.byte	W12
	.byte		        Ds6 , v120
	.byte	W06
	.byte		        Cs6 , v080
	.byte	W18
	.byte		N02
	.byte	W12
	.byte		N03   , As5 , v120
	.byte	W12
	.byte		N02   , Dn6 , v080
	.byte	W12
	.byte	PEND
	.byte		N03   , Cn7 , v100
	.byte	W12
	.byte		N02   , Dn6 , v080
	.byte	W12
	.byte		N03   , Fs5 
	.byte	W12
	.byte		        Ds6 , v120
	.byte	W06
	.byte		        Cs6 , v080
	.byte	W18
	.byte		N02
	.byte	W12
	.byte		N03   , As5 , v120
	.byte	W12
	.byte		N02   , Dn6 , v080
	.byte	W12
	.byte	PEND
	.byte	PATT
	 .word	seq_110_0 + 0x32
	.byte		N03   , Cn7 , v100
	.byte	W12
	.byte		N02   , Dn6 , v080
	.byte	W12
	.byte		N03   , Fs5 
	.byte	W12
	.byte		        Ds6 , v120
	.byte	W06
	.byte		        Cs6 , v080
	.byte	W18
	.byte		N02
	.byte	W24
	.byte		        Dn6 
	.byte	W12
	.byte	PATT
	 .word	seq_110_0 + 0x32
	.byte	PATT
	 .word	seq_110_0 + 0x32
	.byte	PATT
	 .word	seq_110_0 + 0x32
	.byte		N03   , Cn7 , v100
	.byte	W12
	.byte		N02   , Dn6 , v080
	.byte	W24
	.byte		N03   , Ds6 , v120
	.byte	W06
	.byte		        Cs6 , v080
	.byte	W18
	.byte		N02
	.byte	W24
	.byte		        Dn6 
	.byte	W12
	.byte	PEND
	.byte	PATT
	 .word	seq_110_0 + 0x32
	.byte	PATT
	 .word	seq_110_0 + 0x32
	.byte	PATT
	 .word	seq_110_0 + 0x32
	.byte		N03   , Cn7 , v100
	.byte	W12
	.byte		N02   , Dn6 , v080
	.byte	W12
	.byte		N03   , Fs5 
	.byte	W12
	.byte		        Ds6 , v120
	.byte	W06
	.byte		        Cs6 , v080
	.byte	W18
	.byte		N02
	.byte	W12
	.byte	TEMPO , 116/2
	.byte		N03   , As5 , v120
	.byte	W12
	.byte		N02   , Dn6 , v080
	.byte	W12
	.byte	PEND
	.byte	PATT
	 .word	seq_110_0 + 0x14
	.byte	PATT
	 .word	seq_110_0 + 0x32
	.byte	PATT
	 .word	seq_110_0 + 0x32
	.byte	PATT
	 .word	seq_110_0 + 0x9A
	.byte	PATT
	 .word	seq_110_0 + 0x14
	.byte	PATT
	 .word	seq_110_0 + 0x32
	.byte	PATT
	 .word	seq_110_0 + 0x32
	.byte	PATT
	 .word	seq_110_0 + 0x77
	.byte	PATT
	 .word	seq_110_0 + 0x32
	.byte	PATT
	 .word	seq_110_0 + 0x32
	.byte	PATT
	 .word	seq_110_0 + 0x32
	.byte	W12
	.byte		N02   , Dn6 , v080
	.byte	W24
	.byte		N03   , Ds6 , v120
	.byte	W06
	.byte		        Cs6 , v080
	.byte	W06
	.byte	TEMPO , 100/2
	.byte	W12
	.byte		N02
	.byte	W24
	.byte		        Dn6 
	.byte	W12
	.byte	TEMPO , 122/2
	.byte	W72
	.byte	TEMPO , 116/2
	.byte	W24
	.byte	GOTO
	 .word	seq_110_0 + 0x14
	.byte W96, W96
	.byte	FINE

@*********************** Track 02 ***********************@

.global seq_110_1
seq_110_1:
	.byte	KEYSH , seq_110_key+0
	.byte		VOICE , 12
	.byte	W01
	.byte		VOL   , 6*seq_110_mvl/mxv
	.byte	W01
	.byte		PAN   , c_v-24
	.byte	W01
	.byte		LFOS  , 20
	.byte	W01
	.byte		MODT  , mod_pan
	.byte	W01
	.byte		LFODL , 0
	.byte	W19
	.byte	W96
	.byte	W96
	.byte	W22
	.byte		MOD   , 0
	.byte	W02
	.byte		N12   , Dn2 , v120
	.byte	W04
	.byte		VOL   , 12*seq_110_mvl/mxv
	.byte	W05
	.byte		        18*seq_110_mvl/mxv
	.byte	W03
	.byte		N12   , Cn2 
	.byte	W01
	.byte		MOD   , 20
	.byte	W04
	.byte		VOL   , 25*seq_110_mvl/mxv
	.byte	W04
	.byte		MOD   , 40
	.byte	W03
	.byte		N12   , Dn2 
	.byte	W04
	.byte		MOD   , 60
	.byte	W03
	.byte		VOL   , 31*seq_110_mvl/mxv
	.byte	W05
	.byte		N12   , Cn2 
	.byte	W02
	.byte		MOD   , 80
	.byte	W01
	.byte		VOL   , 37*seq_110_mvl/mxv
	.byte	W07
	.byte		        44*seq_110_mvl/mxv
	.byte	W02
	.byte		N12   , Dn2 
	.byte	W02
	.byte		MOD   , 100
	.byte	W07
	.byte		VOL   , 50*seq_110_mvl/mxv
	.byte	W03
	.byte		N12   , Cn2 
	.byte	W01
	.byte		MOD   , 120
	.byte	W05
	.byte		VOL   , 56*seq_110_mvl/mxv
	.byte	W06
	.byte		N06   , Cn2 , v060
	.byte	W06
	.byte		        Cn2 , v020
	.byte	W22
	.byte		MOD   , 0
	.byte	W68
	.byte	PEND
	.byte	W23
	.byte		VOL   , 6*seq_110_mvl/mxv
	.byte	W01
	.byte		N12   , Dn2 , v120
	.byte	W04
	.byte		VOL   , 12*seq_110_mvl/mxv
	.byte	W05
	.byte		        18*seq_110_mvl/mxv
	.byte	W03
	.byte		N12   , Cn2 
	.byte	W01
	.byte		MOD   , 20
	.byte	W04
	.byte		VOL   , 25*seq_110_mvl/mxv
	.byte	W04
	.byte		MOD   , 40
	.byte	W03
	.byte		N12   , Dn2 
	.byte	W04
	.byte		MOD   , 60
	.byte	W03
	.byte		VOL   , 31*seq_110_mvl/mxv
	.byte	W05
	.byte		N12   , Fs2 
	.byte	W02
	.byte		MOD   , 80
	.byte	W01
	.byte		VOL   , 37*seq_110_mvl/mxv
	.byte	W07
	.byte		        44*seq_110_mvl/mxv
	.byte	W02
	.byte		N12   , Dn2 
	.byte	W02
	.byte		MOD   , 100
	.byte	W07
	.byte		VOL   , 50*seq_110_mvl/mxv
	.byte	W03
	.byte		N12   , Cn2 
	.byte	W01
	.byte		MOD   , 120
	.byte	W05
	.byte		VOL   , 56*seq_110_mvl/mxv
	.byte	W06
	.byte	PEND
	.byte		N06   , Cn2 , v060
	.byte	W06
	.byte		        Cn2 , v020
	.byte	W90
	.byte	PEND
	.byte	W22
	.byte		MOD   , 0
	.byte	W01
	.byte		VOL   , 6*seq_110_mvl/mxv
	.byte	W01
	.byte		N12   , Dn2 , v120
	.byte	W04
	.byte		VOL   , 12*seq_110_mvl/mxv
	.byte	W05
	.byte		        18*seq_110_mvl/mxv
	.byte	W03
	.byte		N12   , Cn2 
	.byte	W01
	.byte		MOD   , 20
	.byte	W04
	.byte		VOL   , 25*seq_110_mvl/mxv
	.byte	W04
	.byte		MOD   , 40
	.byte	W03
	.byte		N12   , Dn2 
	.byte	W04
	.byte		MOD   , 60
	.byte	W03
	.byte		VOL   , 31*seq_110_mvl/mxv
	.byte	W05
	.byte		N12   , Cn2 
	.byte	W02
	.byte		MOD   , 80
	.byte	W01
	.byte		VOL   , 37*seq_110_mvl/mxv
	.byte	W07
	.byte		        44*seq_110_mvl/mxv
	.byte	W02
	.byte		N12   , Dn2 
	.byte	W02
	.byte		MOD   , 100
	.byte	W07
	.byte		VOL   , 50*seq_110_mvl/mxv
	.byte	W03
	.byte		N12   , Cn2 
	.byte	W01
	.byte		MOD   , 120
	.byte	W05
	.byte		VOL   , 56*seq_110_mvl/mxv
	.byte	W06
	.byte	PEND
	.byte	PATT
	 .word	seq_110_1 + 0x55
	.byte	PATT
	 .word	seq_110_1 + 0x60
	.byte		N06   , Cn2 , v060
	.byte	W06
	.byte		        Cn2 , v020
	.byte	W42
	.byte		N09   , Fs2 , v120
	.byte	W09
	.byte		N05   , Fs2 , v060
	.byte	W36
	.byte	W03
	.byte	PEND
	.byte		N09   , Bn2 , v120
	.byte	W09
	.byte		N05   , Bn2 , v060
	.byte	W84
	.byte	W03
	.byte	PEND
	.byte	W48
	.byte		N09   , Fs2 , v120
	.byte	W09
	.byte		N05   , Fs2 , v060
	.byte	W36
	.byte	W03
	.byte	PEND
	.byte		N12   , En3 , v120
	.byte	W12
	.byte		        Fs3 
	.byte	W12
	.byte		        Cs4 
	.byte	W12
	.byte		N08   , Bn3 
	.byte	W08
	.byte		N04   , Bn3 , v060
	.byte	W52
	.byte	PEND
	.byte	PATT
	 .word	seq_110_1 + 0xF5
	.byte	PATT
	 .word	seq_110_1 + 0x106
	.byte	PATT
	 .word	seq_110_1 + 0x110
	.byte	PATT
	 .word	seq_110_1 + 0x11B
	.byte	W96
	.byte	PATT
	 .word	seq_110_1 + 0xA8
	.byte	PATT
	 .word	seq_110_1 + 0x55
	.byte	PATT
	 .word	seq_110_1 + 0x60
	.byte	PATT
	 .word	seq_110_1 + 0xA0
	.byte	PATT
	 .word	seq_110_1 + 0xA8
	.byte	PATT
	 .word	seq_110_1 + 0x55
	.byte	PATT
	 .word	seq_110_1 + 0x60
	.byte	W92
	.byte	W01
	.byte		VOL   , 6*seq_110_mvl/mxv
	.byte	W03
	.byte	GOTO
	 .word	seq_110_1 + 0x15
	.byte W96, W96
	.byte	FINE

@*********************** Track 03 ***********************@

.global seq_110_2
seq_110_2:
	.byte	KEYSH , seq_110_key+0
	.byte		VOICE , 12
	.byte	W01
	.byte		VOL   , 6*seq_110_mvl/mxv
	.byte	W01
	.byte		PAN   , c_v+36
	.byte	W01
	.byte		LFOS  , 20
	.byte	W01
	.byte		MODT  , mod_pan
	.byte	W01
	.byte		LFODL , 0
	.byte	W19
	.byte	W96
	.byte	W96
	.byte	W22
	.byte		MOD   , 0
	.byte	W02
	.byte		N12   , Gs2 , v120
	.byte	W04
	.byte		VOL   , 12*seq_110_mvl/mxv
	.byte	W05
	.byte		        18*seq_110_mvl/mxv
	.byte	W03
	.byte		N12   , Fs2 
	.byte	W01
	.byte		MOD   , 20
	.byte	W04
	.byte		VOL   , 25*seq_110_mvl/mxv
	.byte	W04
	.byte		MOD   , 40
	.byte	W03
	.byte		N12   , Gs2 
	.byte	W04
	.byte		MOD   , 60
	.byte	W03
	.byte		VOL   , 31*seq_110_mvl/mxv
	.byte	W05
	.byte		N12   , Fs2 
	.byte	W02
	.byte		MOD   , 80
	.byte	W01
	.byte		VOL   , 37*seq_110_mvl/mxv
	.byte	W07
	.byte		        44*seq_110_mvl/mxv
	.byte	W02
	.byte		N12   , Gs2 
	.byte	W02
	.byte		MOD   , 100
	.byte	W07
	.byte		VOL   , 50*seq_110_mvl/mxv
	.byte	W03
	.byte		N12   , Fs2 
	.byte	W01
	.byte		MOD   , 120
	.byte	W05
	.byte		VOL   , 56*seq_110_mvl/mxv
	.byte	W06
	.byte		N06   , Fs2 , v060
	.byte	W06
	.byte		        Fs2 , v020
	.byte	W22
	.byte		MOD   , 0
	.byte	W68
	.byte	PEND
	.byte	W23
	.byte		VOL   , 6*seq_110_mvl/mxv
	.byte	W01
	.byte		N12   , Gs2 , v120
	.byte	W04
	.byte		VOL   , 12*seq_110_mvl/mxv
	.byte	W05
	.byte		        18*seq_110_mvl/mxv
	.byte	W03
	.byte		N12   , Fs2 
	.byte	W01
	.byte		MOD   , 20
	.byte	W04
	.byte		VOL   , 25*seq_110_mvl/mxv
	.byte	W04
	.byte		MOD   , 40
	.byte	W03
	.byte		N12   , Gs2 
	.byte	W04
	.byte		MOD   , 60
	.byte	W03
	.byte		VOL   , 31*seq_110_mvl/mxv
	.byte	W05
	.byte		N12   , Cn3 
	.byte	W02
	.byte		MOD   , 80
	.byte	W01
	.byte		VOL   , 37*seq_110_mvl/mxv
	.byte	W07
	.byte		        44*seq_110_mvl/mxv
	.byte	W02
	.byte		N12   , Gs2 
	.byte	W02
	.byte		MOD   , 100
	.byte	W07
	.byte		VOL   , 50*seq_110_mvl/mxv
	.byte	W03
	.byte		N12   , Fs2 
	.byte	W01
	.byte		MOD   , 120
	.byte	W05
	.byte		VOL   , 56*seq_110_mvl/mxv
	.byte	W06
	.byte	PEND
	.byte		N06   , Fs2 , v060
	.byte	W06
	.byte		        Fs2 , v020
	.byte	W90
	.byte	PEND
	.byte	W22
	.byte		MOD   , 0
	.byte	W01
	.byte		VOL   , 6*seq_110_mvl/mxv
	.byte	W01
	.byte		N12   , Gs2 , v120
	.byte	W04
	.byte		VOL   , 12*seq_110_mvl/mxv
	.byte	W05
	.byte		        18*seq_110_mvl/mxv
	.byte	W03
	.byte		N12   , Fs2 
	.byte	W01
	.byte		MOD   , 20
	.byte	W04
	.byte		VOL   , 25*seq_110_mvl/mxv
	.byte	W04
	.byte		MOD   , 40
	.byte	W03
	.byte		N12   , Gs2 
	.byte	W04
	.byte		MOD   , 60
	.byte	W03
	.byte		VOL   , 31*seq_110_mvl/mxv
	.byte	W05
	.byte		N12   , Fs2 
	.byte	W02
	.byte		MOD   , 80
	.byte	W01
	.byte		VOL   , 37*seq_110_mvl/mxv
	.byte	W07
	.byte		        44*seq_110_mvl/mxv
	.byte	W02
	.byte		N12   , Gs2 
	.byte	W02
	.byte		MOD   , 100
	.byte	W07
	.byte		VOL   , 50*seq_110_mvl/mxv
	.byte	W03
	.byte		N12   , Fs2 
	.byte	W01
	.byte		MOD   , 120
	.byte	W05
	.byte		VOL   , 56*seq_110_mvl/mxv
	.byte	W06
	.byte	PEND
	.byte	PATT
	 .word	seq_110_2 + 0x55
	.byte	PATT
	 .word	seq_110_2 + 0x60
	.byte		N06   , Fs2 , v060
	.byte	W06
	.byte		        Fs2 , v020
	.byte	W18
	.byte		N24   , Bn2 , v120
	.byte	W04
	.byte		VOL   , 37*seq_110_mvl/mxv
	.byte	W05
	.byte		        50*seq_110_mvl/mxv
	.byte	W05
	.byte		        62*seq_110_mvl/mxv
	.byte	W01
	.byte		        75*seq_110_mvl/mxv
	.byte	W32
	.byte		        25*seq_110_mvl/mxv
	.byte	W01
	.byte		N24   , Cs3 
	.byte	W04
	.byte		VOL   , 37*seq_110_mvl/mxv
	.byte	W05
	.byte		        50*seq_110_mvl/mxv
	.byte	W05
	.byte		        62*seq_110_mvl/mxv
	.byte	W01
	.byte		        75*seq_110_mvl/mxv
	.byte	W09
	.byte	PEND
	.byte	W96
	.byte	W23
	.byte		VOL   , 25*seq_110_mvl/mxv
	.byte	W01
	.byte		N24   , Bn2 , v120
	.byte	W04
	.byte		VOL   , 37*seq_110_mvl/mxv
	.byte	W05
	.byte		        50*seq_110_mvl/mxv
	.byte	W05
	.byte		        62*seq_110_mvl/mxv
	.byte	W01
	.byte		        75*seq_110_mvl/mxv
	.byte	W32
	.byte		        25*seq_110_mvl/mxv
	.byte	W01
	.byte		N24   , Cs3 
	.byte	W04
	.byte		VOL   , 37*seq_110_mvl/mxv
	.byte	W05
	.byte		        50*seq_110_mvl/mxv
	.byte	W05
	.byte		        62*seq_110_mvl/mxv
	.byte	W01
	.byte		        75*seq_110_mvl/mxv
	.byte	W09
	.byte	PEND
	.byte		N12   , En2 
	.byte	W12
	.byte		        Fs2 
	.byte	W12
	.byte		        Cs3 
	.byte	W12
	.byte		N08   , Bn2 
	.byte	W08
	.byte		N04   , Bn2 , v060
	.byte	W48
	.byte	W03
	.byte		VOL   , 25*seq_110_mvl/mxv
	.byte	W01
	.byte	PATT
	 .word	seq_110_2 + 0xF5
	.byte	W96
	.byte	PATT
	 .word	seq_110_2 + 0x119
	.byte		N12   , En2 , v120
	.byte	W12
	.byte		        Fs2 
	.byte	W12
	.byte		        Cs3 
	.byte	W12
	.byte		N08   , Bn2 
	.byte	W08
	.byte		N04   , Bn2 , v060
	.byte	W52
	.byte	W96
	.byte	PATT
	 .word	seq_110_2 + 0xA8
	.byte	PATT
	 .word	seq_110_2 + 0x55
	.byte	PATT
	 .word	seq_110_2 + 0x60
	.byte	PATT
	 .word	seq_110_2 + 0xA0
	.byte	PATT
	 .word	seq_110_2 + 0xA8
	.byte	PATT
	 .word	seq_110_2 + 0x55
	.byte	PATT
	 .word	seq_110_2 + 0x60
	.byte	W92
	.byte	W02
	.byte		VOL   , 6*seq_110_mvl/mxv
	.byte	W02
	.byte	GOTO
	 .word	seq_110_2 + 0x15
	.byte W96, W96
	.byte	FINE

@*********************** Track 04 ***********************@

seq_110_3:
	.byte	KEYSH , seq_110_key+0
	.byte	W06
	.byte		VOICE , 6
	.byte	W01
	.byte		VOL   , 62*seq_110_mvl/mxv
	.byte	W01
	.byte		PAN   , c_v+0
	.byte	W01
	.byte		LFOS  , 30
	.byte	W01
	.byte		MODT  , mod_pan
	.byte	W01
	.byte		LFODL , 0
	.byte	W13
	.byte		N03   , Gs4 , v060
	.byte		N03   , En5 , v120
	.byte	W06
	.byte		        An4 , v060
	.byte		N03   , Fn5 , v100
	.byte	W06
	.byte		N02   , An4 , v020
	.byte	W02
	.byte		        Fn5 , v040
	.byte	W03
	.byte		PAN   , c_v-44
	.byte	W01
	.byte		N03   , Ds4 , v060
	.byte		N03   , Bn4 , v120
	.byte	W06
	.byte		        En4 , v060
	.byte		N03   , Cn5 , v100
	.byte	W06
	.byte		N02   , En4 , v020
	.byte	W02
	.byte		        Cn5 , v040
	.byte	W03
	.byte		PAN   , c_v+36
	.byte	W01
	.byte		N03   , Gs3 , v060
	.byte		N03   , En4 , v120
	.byte	W06
	.byte		        An3 , v060
	.byte		N03   , Fn4 , v100
	.byte	W04
	.byte		PAN   , c_v+0
	.byte	W01
	.byte		MOD   , 80
	.byte	W01
	.byte		N03   , En4 , v060
	.byte		N03   , Gs4 , v120
	.byte	W06
	.byte		        Fn4 , v060
	.byte		N03   , An4 , v100
	.byte	W06
	.byte		        Bn3 , v060
	.byte		N03   , Ds4 , v120
	.byte	W06
	.byte		        Cn4 , v060
	.byte		N03   , En4 , v100
	.byte	W06
	.byte		        En3 , v060
	.byte	W01
	.byte		        Gs3 , v120
	.byte	W05
	.byte		        En3 , v020
	.byte	W01
	.byte		        Gs3 , v040
	.byte	W05
	.byte		        Fn3 , v060
	.byte	W01
	.byte		        An3 , v120
	.byte	W05
	.byte		        Fn3 , v020
	.byte	W01
	.byte		        An3 , v040
	.byte	W05
	.byte	PEND
	.byte	W96
	.byte	W96
	.byte	W96
	.byte	W96
	.byte	W96
	.byte	W96
	.byte	W96
	.byte	W96
	.byte	W96
	.byte	W44
	.byte	W03
	.byte		MOD   , 100
	.byte	W01
	.byte		N02   , En2 , v120
	.byte	W02
	.byte		        En3 , v080
	.byte	W02
	.byte		        En2 , v060
	.byte	W02
	.byte		        Bn2 , v120
	.byte	W02
	.byte		        Bn3 , v080
	.byte	W02
	.byte		        Bn2 , v060
	.byte	W02
	.byte		        Fs3 , v120
	.byte	W02
	.byte		        Fs4 , v080
	.byte	W02
	.byte		        Fs3 , v060
	.byte	W02
	.byte		        Cs4 , v120
	.byte	W02
	.byte		        Cs5 , v080
	.byte	W02
	.byte		        Cs4 , v060
	.byte	W02
	.byte		        Gs4 , v120
	.byte	W02
	.byte		        Gs5 , v080
	.byte	W02
	.byte		        Gs4 , v060
	.byte	W20
	.byte	W96
	.byte	W48
	.byte		N03   , En4 
	.byte		N03   , Gs4 , v120
	.byte	W06
	.byte		        Fn4 , v060
	.byte		N03   , An4 , v120
	.byte	W06
	.byte		        Bn3 , v060
	.byte		N03   , Ds4 , v120
	.byte	W06
	.byte		        Cn4 , v060
	.byte		N03   , En4 , v120
	.byte	W06
	.byte		        En3 , v060
	.byte	W01
	.byte		        Gs3 , v120
	.byte	W11
	.byte		        Fn3 , v060
	.byte	W01
	.byte		        An3 , v120
	.byte	W11
	.byte	W96
	.byte	W48
	.byte		N02   , En2 
	.byte	W02
	.byte		        En3 , v080
	.byte	W02
	.byte		        En2 , v060
	.byte	W02
	.byte		        Bn2 , v120
	.byte	W02
	.byte		        Bn3 , v080
	.byte	W02
	.byte		        Bn2 , v060
	.byte	W02
	.byte		        Fs3 , v120
	.byte	W02
	.byte		        Fs4 , v080
	.byte	W02
	.byte		        Fs3 , v060
	.byte	W02
	.byte		        Cs4 , v120
	.byte	W02
	.byte		        Cs5 , v080
	.byte	W02
	.byte		        Cs4 , v060
	.byte	W02
	.byte		        Gs4 , v120
	.byte	W02
	.byte		        Gs5 , v080
	.byte	W02
	.byte		        Gs4 , v060
	.byte	W20
	.byte	W96
	.byte	W48
	.byte		N03   , En4 
	.byte		N03   , Gs4 , v120
	.byte	W06
	.byte		        Fn4 , v060
	.byte		N03   , An4 , v120
	.byte	W06
	.byte		        Bn3 , v060
	.byte		N03   , Ds4 , v120
	.byte	W06
	.byte		        Cn4 , v060
	.byte		N03   , En4 , v120
	.byte	W06
	.byte		        En3 , v060
	.byte	W01
	.byte		        Gs3 , v120
	.byte	W11
	.byte		        Fn3 , v060
	.byte	W01
	.byte		        An3 , v120
	.byte	W10
	.byte		MOD   , 40
	.byte	W01
	.byte		N02   , En4 , v120
	.byte	W02
	.byte		        En5 , v080
	.byte	W02
	.byte		        En4 , v060
	.byte	W20
	.byte		        Bn3 , v120
	.byte	W02
	.byte		        Bn4 , v080
	.byte	W02
	.byte		        Bn3 , v060
	.byte	W20
	.byte		        An3 , v120
	.byte	W02
	.byte		        An4 , v080
	.byte	W02
	.byte		        An3 , v060
	.byte	W20
	.byte		        Cs4 , v120
	.byte	W02
	.byte		        Cs5 , v080
	.byte	W02
	.byte		        Cs4 , v060
	.byte	W08
	.byte		        Bn3 , v120
	.byte	W02
	.byte		        Bn4 , v080
	.byte	W02
	.byte		        Bn3 , v060
	.byte	W08
	.byte	PEND
	.byte	W96
	.byte	W24
	.byte		N02   , En4 , v120
	.byte	W02
	.byte		        En5 , v080
	.byte	W02
	.byte		        En4 , v060
	.byte	W20
	.byte		        Bn3 , v120
	.byte	W02
	.byte		        Bn4 , v080
	.byte	W02
	.byte		        Bn3 , v060
	.byte	W08
	.byte		        An3 , v120
	.byte	W02
	.byte		        An4 , v080
	.byte	W02
	.byte		        An3 , v060
	.byte	W08
	.byte		        Cs4 , v120
	.byte	W02
	.byte		        Cs5 , v080
	.byte	W02
	.byte		        Cs4 , v060
	.byte	W08
	.byte		        Bn3 , v120
	.byte	W02
	.byte		        Bn4 , v080
	.byte	W02
	.byte		        Bn3 , v060
	.byte	W08
	.byte	PEND
	.byte		N02   , Bn3 , v120
	.byte	W02
	.byte		        Bn4 , v080
	.byte	W02
	.byte		        Bn3 , v060
	.byte	W92
	.byte	PEND
	.byte	PATT
	 .word	seq_110_3 + 0x142
	.byte	W96
	.byte	PATT
	 .word	seq_110_3 + 0x172
	.byte	PATT
	 .word	seq_110_3 + 0x1A2
	.byte	PATT
	 .word	seq_110_3 + 0x15
	.byte	GOTO
	 .word	seq_110_3 + 0x88
	.byte W96, W96
	.byte	FINE

@*********************** Track 05 ***********************@

seq_110_4:
	.byte	KEYSH , seq_110_key+0
	.byte	W06
	.byte		VOICE , 5
	.byte	W01
	.byte		VOL   , 50*seq_110_mvl/mxv
	.byte	W01
	.byte		PAN   , c_v-19
	.byte	W01
	.byte		LFOS  , 15
	.byte	W01
	.byte		MODT  , mod_pan
	.byte	W01
	.byte		LFODL , 0
	.byte	W13
	.byte	W96
	.byte	W12
	.byte		N03   , En4 , v100
	.byte		N03   , Gs4 
	.byte	W12
	.byte		        En4 , v120
	.byte		N03   , Gs4 
	.byte	W24
	.byte		        Dn4 , v100
	.byte		N03   , Fs4 
	.byte	W12
	.byte		        Dn4 , v120
	.byte		N03   , Fs4 
	.byte	W24
	.byte		        Dn4 , v100
	.byte		N03   , Gs4 
	.byte	W12
	.byte	PEND
	.byte		        Dn4 , v120
	.byte		N03   , Gs4 
	.byte	W96
	.byte	PATT
	 .word	seq_110_4 + 0x16
	.byte		N03   , Dn4 , v120
	.byte		N03   , Gs4 
	.byte	W96
	.byte	PATT
	 .word	seq_110_4 + 0x16
	.byte		N03   , Dn4 , v120
	.byte		N03   , Gs4 
	.byte	W96
	.byte	PATT
	 .word	seq_110_4 + 0x16
	.byte		N03   , Dn4 , v120
	.byte		N03   , Gs4 
	.byte	W96
	.byte	W12
	.byte		N03   , En4 , v100
	.byte		N03   , Gs4 
	.byte	W12
	.byte		        En4 , v120
	.byte		N03   , Gs4 
	.byte	W24
	.byte		        Dn4 , v100
	.byte		N03   , Fs4 
	.byte	W12
	.byte		        Dn4 , v120
	.byte		N03   , Fs4 
	.byte	W24
	.byte		        En4 , v100
	.byte		N03   , Gs4 
	.byte	W12
	.byte	PEND
	.byte		N03   , En4 , v120
	.byte		N03   , Gs4 
	.byte	W24
	.byte		        Dn4 , v100
	.byte		N03   , Fs4 
	.byte	W12
	.byte		        Dn4 , v120
	.byte		N03   , Fs4 
	.byte	W60
	.byte	PEND
	.byte	PATT
	 .word	seq_110_4 + 0x58
	.byte	PATT
	 .word	seq_110_4 + 0x74
	.byte	PATT
	 .word	seq_110_4 + 0x58
	.byte	PATT
	 .word	seq_110_4 + 0x74
	.byte	PATT
	 .word	seq_110_4 + 0x58
	.byte	PATT
	 .word	seq_110_4 + 0x74
	.byte	PATT
	 .word	seq_110_4 + 0x16
	.byte		N03   , Dn4 , v120
	.byte		N03   , Gs4 
	.byte	W96
	.byte	PATT
	 .word	seq_110_4 + 0x16
	.byte		N03   , Dn4 , v120
	.byte		N03   , Gs4 
	.byte	W96
	.byte	PATT
	 .word	seq_110_4 + 0x16
	.byte		N03   , Dn4 , v120
	.byte		N03   , Gs4 
	.byte	W96
	.byte	PATT
	 .word	seq_110_4 + 0x16
	.byte		N03   , Dn4 , v120
	.byte		N03   , Gs4 
	.byte	W96
	.byte		N01   , Ds5 , v100
	.byte	W01
	.byte		N05   , En5 , v120
	.byte	W05
	.byte		        Fn5 , v100
	.byte	W05
	.byte		N07   , Fn5 , v040
	.byte	W06
	.byte		PAN   , c_v+36
	.byte	W01
	.byte		N06   , Bn4 , v120
	.byte	W06
	.byte		N05   , Cn5 , v100
	.byte	W05
	.byte		N07   , Cn5 , v040
	.byte	W06
	.byte		PAN   , c_v-44
	.byte	W01
	.byte		N06   , En4 , v120
	.byte	W06
	.byte		        Fn4 , v100
	.byte	W04
	.byte		PAN   , c_v+0
	.byte	W02
	.byte		N06   , Gs4 , v120
	.byte	W06
	.byte		        An4 , v100
	.byte	W06
	.byte		        Ds4 , v120
	.byte	W06
	.byte		        En4 , v100
	.byte	W06
	.byte		N04   , Gs3 , v120
	.byte	W05
	.byte		N07   , Gs3 , v040
	.byte	W07
	.byte		N04   , An3 , v100
	.byte	W05
	.byte		N07   , An3 , v040
	.byte	W03
	.byte		PAN   , c_v-19
	.byte	W04
	.byte	GOTO
	 .word	seq_110_4 + 0x16
	.byte W96, W96
	.byte	FINE

@*********************** Track 06 ***********************@

seq_110_5:
	.byte	KEYSH , seq_110_key+0
	.byte	W06
	.byte		VOICE , 22
	.byte	W01
	.byte		VOL   , 25*seq_110_mvl/mxv
	.byte	W01
	.byte		PAN   , c_v+0
	.byte	W01
	.byte		LFOS  , 20
	.byte	W01
	.byte		MODT  , mod_pan
	.byte	W01
	.byte		LFODL , 0
	.byte	W13
	.byte	W96
	.byte	W96
	.byte	W22
	.byte		MOD   , 0
	.byte	W02
	.byte		N12   , Gs3 , v120
	.byte		N12   , Dn4 
	.byte	W04
	.byte		VOL   , 31*seq_110_mvl/mxv
	.byte	W05
	.byte		        37*seq_110_mvl/mxv
	.byte	W03
	.byte		N12   , Fs3 
	.byte		N12   , Cn4 
	.byte	W01
	.byte		MOD   , 20
	.byte	W04
	.byte		VOL   , 44*seq_110_mvl/mxv
	.byte	W04
	.byte		MOD   , 40
	.byte	W03
	.byte		N12   , Gs3 
	.byte		N12   , Dn4 
	.byte	W04
	.byte		MOD   , 60
	.byte	W03
	.byte		VOL   , 50*seq_110_mvl/mxv
	.byte	W05
	.byte		N12   , Fs3 
	.byte		N12   , Cn4 
	.byte	W02
	.byte		MOD   , 80
	.byte	W01
	.byte		VOL   , 56*seq_110_mvl/mxv
	.byte	W07
	.byte		        62*seq_110_mvl/mxv
	.byte	W02
	.byte		N12   , Gs3 
	.byte		N12   , Dn4 
	.byte	W02
	.byte		MOD   , 100
	.byte	W07
	.byte		VOL   , 69*seq_110_mvl/mxv
	.byte	W03
	.byte		N12   , Fs3 
	.byte		N12   , Cn4 
	.byte	W01
	.byte		MOD   , 120
	.byte	W05
	.byte		VOL   , 75*seq_110_mvl/mxv
	.byte	W06
	.byte		N06   , Fs3 , v060
	.byte		N06   , Cn4 
	.byte	W06
	.byte		        Fs3 , v020
	.byte		N06   , Cn4 
	.byte	W22
	.byte		MOD   , 0
	.byte	W68
	.byte	PEND
	.byte	W23
	.byte		VOL   , 25*seq_110_mvl/mxv
	.byte	W01
	.byte		N12   , Gs3 , v120
	.byte		N12   , Dn4 
	.byte	W04
	.byte		VOL   , 31*seq_110_mvl/mxv
	.byte	W05
	.byte		        37*seq_110_mvl/mxv
	.byte	W03
	.byte		N12   , Fs3 
	.byte		N12   , Cn4 
	.byte	W01
	.byte		MOD   , 20
	.byte	W04
	.byte		VOL   , 44*seq_110_mvl/mxv
	.byte	W04
	.byte		MOD   , 40
	.byte	W03
	.byte		N12   , Gs3 
	.byte		N12   , Dn4 
	.byte	W04
	.byte		MOD   , 60
	.byte	W03
	.byte		VOL   , 50*seq_110_mvl/mxv
	.byte	W05
	.byte		N12   , Cn4 
	.byte		N12   , Fs4 
	.byte	W02
	.byte		MOD   , 80
	.byte	W01
	.byte		VOL   , 56*seq_110_mvl/mxv
	.byte	W07
	.byte		        62*seq_110_mvl/mxv
	.byte	W02
	.byte		N12   , Gs3 
	.byte		N12   , Dn4 
	.byte	W02
	.byte		MOD   , 100
	.byte	W07
	.byte		VOL   , 69*seq_110_mvl/mxv
	.byte	W03
	.byte		N12   , Fs3 
	.byte		N12   , Cn4 
	.byte	W01
	.byte		MOD   , 120
	.byte	W05
	.byte		VOL   , 75*seq_110_mvl/mxv
	.byte	W06
	.byte	PEND
	.byte		N06   , Fs3 , v060
	.byte		N06   , Cn4 
	.byte	W06
	.byte		        Fs3 , v020
	.byte		N06   , Cn4 
	.byte	W90
	.byte	PEND
	.byte	W22
	.byte		MOD   , 0
	.byte	W01
	.byte		VOL   , 25*seq_110_mvl/mxv
	.byte	W01
	.byte		N12   , Gs3 , v120
	.byte		N12   , Dn4 
	.byte	W04
	.byte		VOL   , 31*seq_110_mvl/mxv
	.byte	W05
	.byte		        37*seq_110_mvl/mxv
	.byte	W03
	.byte		N12   , Fs3 
	.byte		N12   , Cn4 
	.byte	W01
	.byte		MOD   , 20
	.byte	W04
	.byte		VOL   , 44*seq_110_mvl/mxv
	.byte	W04
	.byte		MOD   , 40
	.byte	W03
	.byte		N12   , Gs3 
	.byte		N12   , Dn4 
	.byte	W04
	.byte		MOD   , 60
	.byte	W03
	.byte		VOL   , 50*seq_110_mvl/mxv
	.byte	W05
	.byte		N12   , Fs3 
	.byte		N12   , Cn4 
	.byte	W02
	.byte		MOD   , 80
	.byte	W01
	.byte		VOL   , 56*seq_110_mvl/mxv
	.byte	W07
	.byte		        62*seq_110_mvl/mxv
	.byte	W02
	.byte		N12   , Gs3 
	.byte		N12   , Dn4 
	.byte	W02
	.byte		MOD   , 100
	.byte	W07
	.byte		VOL   , 69*seq_110_mvl/mxv
	.byte	W03
	.byte		N12   , Fs3 
	.byte		N12   , Cn4 
	.byte	W01
	.byte		MOD   , 120
	.byte	W05
	.byte		VOL   , 75*seq_110_mvl/mxv
	.byte	W06
	.byte	PEND
	.byte	PATT
	 .word	seq_110_5 + 0x62
	.byte	PATT
	 .word	seq_110_5 + 0x71
	.byte	W10
	.byte		MOD   , 40
	.byte	W01
	.byte		N05   , Bn4 , v120
	.byte	W05
	.byte		N06   , Bn4 , v060
	.byte	W07
	.byte		N05   , En4 , v120
	.byte	W05
	.byte		N06   , En4 , v060
	.byte	W07
	.byte		N05   , Fs4 , v120
	.byte	W05
	.byte		N06   , Fs4 , v060
	.byte	W07
	.byte		N05   , Cs4 , v120
	.byte	W05
	.byte		N06   , Cs4 , v060
	.byte	W07
	.byte		N05   , Bn3 , v120
	.byte	W05
	.byte		N06   , Bn3 , v060
	.byte	W19
	.byte		N05   , Bn4 , v120
	.byte	W05
	.byte		N06   , Bn4 , v060
	.byte	W07
	.byte		N05   , En4 , v120
	.byte	W01
	.byte	W04
	.byte		N06   , En4 , v060
	.byte	W07
	.byte		N05   , Fs4 , v120
	.byte	W05
	.byte		N06   , Fs4 , v060
	.byte	W07
	.byte		N05   , Cs4 , v120
	.byte	W05
	.byte		N06   , Cs4 , v060
	.byte	W07
	.byte		N05   , Bn3 , v120
	.byte	W05
	.byte		N06   , Bn3 , v060
	.byte	W56
	.byte	PEND
	.byte	W11
	.byte		N05   , Bn4 , v120
	.byte	W05
	.byte		N06   , Bn4 , v060
	.byte	W07
	.byte		N05   , En4 , v120
	.byte	W05
	.byte		N06   , En4 , v060
	.byte	W07
	.byte		N05   , Fs4 , v120
	.byte	W05
	.byte		N06   , Fs4 , v060
	.byte	W07
	.byte		N05   , Cs4 , v120
	.byte	W05
	.byte		N06   , Cs4 , v060
	.byte	W07
	.byte		N05   , Bn3 , v120
	.byte	W05
	.byte		N06   , Bn3 , v060
	.byte	W32
	.byte	PEND
	.byte	W96
	.byte	W11
	.byte		N05   , Bn4 , v120
	.byte	W05
	.byte		N06   , Bn4 , v060
	.byte	W07
	.byte		N05   , En4 , v120
	.byte	W05
	.byte		N06   , En4 , v060
	.byte	W07
	.byte		N05   , Fs4 , v120
	.byte	W05
	.byte		N06   , Fs4 , v060
	.byte	W07
	.byte		N05   , Cs4 , v120
	.byte	W05
	.byte		N06   , Cs4 , v060
	.byte	W07
	.byte		N05   , Bn3 , v120
	.byte	W05
	.byte		N06   , Bn3 , v060
	.byte	W19
	.byte		N05   , Bn4 , v120
	.byte	W05
	.byte		N06   , Bn4 , v060
	.byte	W07
	.byte		N05   , En4 , v120
	.byte	W01
	.byte	PATT
	 .word	seq_110_5 + 0x15A
	.byte	PATT
	 .word	seq_110_5 + 0x178
	.byte	W96
	.byte	W96
	.byte	PATT
	 .word	seq_110_5 + 0xC9
	.byte		N06   , Fs3 , v060
	.byte		N06   , Cn4 
	.byte	W06
	.byte		        Fs3 , v020
	.byte		N06   , Cn4 
	.byte	W17
	.byte		VOL   , 44*seq_110_mvl/mxv
	.byte	W01
	.byte		N10   , En5 , v120
	.byte	W12
	.byte		N12   , En5 , v040
	.byte	W12
	.byte		        Bn4 , v120
	.byte	W12
	.byte		        An4 , v100
	.byte	W12
	.byte		        Cs5 , v120
	.byte	W12
	.byte		N10   , Bn4 , v100
	.byte	W12
	.byte		N10   , Bn4 , v060
	.byte	W12
	.byte		N12   , Bn4 , v040
	.byte	W10
	.byte		MOD   , 0
	.byte	W01
	.byte		VOL   , 25*seq_110_mvl/mxv
	.byte	W01
	.byte		N12   , Gs3 , v120
	.byte		N12   , Dn4 
	.byte	W04
	.byte		VOL   , 31*seq_110_mvl/mxv
	.byte	W05
	.byte		        37*seq_110_mvl/mxv
	.byte	W03
	.byte		N12   , Fs3 
	.byte		N12   , Cn4 
	.byte	W01
	.byte		MOD   , 20
	.byte	W04
	.byte		VOL   , 44*seq_110_mvl/mxv
	.byte	W04
	.byte		MOD   , 40
	.byte	W03
	.byte		N12   , Gs3 
	.byte		N12   , Dn4 
	.byte	W04
	.byte		MOD   , 60
	.byte	W03
	.byte		VOL   , 50*seq_110_mvl/mxv
	.byte	W05
	.byte		N12   , Cn4 
	.byte		N12   , Fs4 
	.byte	W02
	.byte		MOD   , 80
	.byte	W01
	.byte		VOL   , 56*seq_110_mvl/mxv
	.byte	W07
	.byte		        62*seq_110_mvl/mxv
	.byte	W02
	.byte		N12   , Gs3 
	.byte		N12   , Dn4 
	.byte	W02
	.byte		MOD   , 100
	.byte	W07
	.byte		VOL   , 69*seq_110_mvl/mxv
	.byte	W03
	.byte		N12   , Fs3 
	.byte		N12   , Cn4 
	.byte	W01
	.byte		MOD   , 120
	.byte	W05
	.byte		VOL   , 75*seq_110_mvl/mxv
	.byte	W06
	.byte	PEND
	.byte	PATT
	 .word	seq_110_5 + 0xBD
	.byte	PATT
	 .word	seq_110_5 + 0xC9
	.byte		N06   , Fs3 , v060
	.byte		N06   , Cn4 
	.byte	W06
	.byte		        Fs3 , v020
	.byte		N06   , Cn4 
	.byte	W17
	.byte		VOL   , 37*seq_110_mvl/mxv
	.byte	W01
	.byte		N10   , En5 , v120
	.byte	W12
	.byte		N12   , En5 , v040
	.byte	W12
	.byte		        Bn4 , v120
	.byte	W12
	.byte		        An4 , v100
	.byte	W12
	.byte		        Cs5 , v120
	.byte	W12
	.byte		N10   , Bn4 , v100
	.byte	W12
	.byte	PATT
	 .word	seq_110_5 + 0x20C
	.byte	W92
	.byte	W03
	.byte		VOL   , 25*seq_110_mvl/mxv
	.byte	W01
	.byte	GOTO
	 .word	seq_110_5 + 0x16
	.byte W96, W96
	.byte	FINE

@*********************** Track 07 ***********************@

seq_110_6:
	.byte	KEYSH , seq_110_key+0
	.byte	W12
	.byte		VOICE , 51
	.byte	W01
	.byte		VOL   , 50*seq_110_mvl/mxv
	.byte	W01
	.byte		PAN   , c_v+0
	.byte	W01
	.byte		LFOS  , 40
	.byte	W01
	.byte		MODT  , mod_pan
	.byte	W01
	.byte		BENDR , 12
	.byte	W01
	.byte		MOD   , 0
	.byte	W06
	.byte		N03   , Gs4 , v060
	.byte	W03
	.byte		        En5 , v080
	.byte	W03
	.byte		        An4 , v060
	.byte	W03
	.byte		        Fn5 , v080
	.byte	W04
	.byte		N02   , An4 , v020
	.byte	W03
	.byte		        Fn5 , v040
	.byte	W01
	.byte		PAN   , c_v-44
	.byte	W01
	.byte		N03   , Ds4 , v060
	.byte	W03
	.byte		        Bn4 , v080
	.byte	W03
	.byte		        En4 , v060
	.byte	W03
	.byte		        Cn5 , v080
	.byte	W04
	.byte		N02   , En4 , v020
	.byte	W03
	.byte		        Cn5 , v040
	.byte	W01
	.byte		PAN   , c_v+36
	.byte	W01
	.byte		N03   , Gs3 , v060
	.byte	W03
	.byte		        En4 , v080
	.byte	W03
	.byte		        An3 , v040
	.byte	W03
	.byte		        Fn4 , v060
	.byte	W01
	.byte		PAN   , c_v+0
	.byte	W01
	.byte		MOD   , 60
	.byte	W01
	.byte		N02   , En5 , v080
	.byte	W03
	.byte		N03   , Gs4 , v060
	.byte	W03
	.byte		N02   , Fn5 , v080
	.byte	W03
	.byte		N03   , An4 , v060
	.byte	W03
	.byte		N02   , Bn4 , v080
	.byte	W03
	.byte		N03   , Ds4 , v060
	.byte	W03
	.byte		N02   , Cn5 , v080
	.byte	W03
	.byte		N03   , En4 , v060
	.byte	W03
	.byte		        Gs3 
	.byte	W03
	.byte		N02   , En4 , v080
	.byte	W03
	.byte		N03   , Gs3 , v020
	.byte	W03
	.byte		N02   , En4 , v040
	.byte	W03
	.byte		N03   , An3 , v060
	.byte	W03
	.byte		N02   , Fn4 , v080
	.byte	W03
	.byte		N03   , An3 , v020
	.byte	W03
	.byte		N02   , Fn4 , v040
	.byte	W03
	.byte	PEND
	.byte		N02   , En4 , v120
	.byte	W02
	.byte		        Gs4 , v100
	.byte	W02
	.byte		        Bn4 , v080
	.byte	W02
	.byte		        En5 , v060
	.byte	W08
	.byte		        En4 , v040
	.byte	W02
	.byte		        Gs4 
	.byte	W02
	.byte		        Bn4 
	.byte	W02
	.byte		        En5 
	.byte	W06
	.byte		        En4 , v020
	.byte	W02
	.byte		        Gs4 
	.byte	W02
	.byte		        Bn4 
	.byte	W02
	.byte		        En5 
	.byte	W06
	.byte		        En4 
	.byte	W02
	.byte		        Gs4 
	.byte	W02
	.byte		        Bn4 
	.byte	W02
	.byte		        En5 
	.byte	W52
	.byte	W96
	.byte	W96
	.byte	W96
	.byte	W96
	.byte	W96
	.byte	W96
	.byte	W96
	.byte	W96
	.byte	W96
	.byte	W96
	.byte	W48
	.byte		N03   , Gs4 , v080
	.byte	W03
	.byte		N02   , Gs3 , v060
	.byte	W03
	.byte		N03   , An4 , v080
	.byte	W03
	.byte		N02   , An3 , v060
	.byte	W03
	.byte		N03   , Ds4 , v080
	.byte	W03
	.byte		N02   , Ds3 , v060
	.byte	W03
	.byte		N03   , En4 , v080
	.byte	W03
	.byte		N02   , En3 , v060
	.byte	W03
	.byte		N03   , Gs3 , v080
	.byte	W03
	.byte		N02   , Gs2 , v060
	.byte	W03
	.byte		N03   , Gs3 , v040
	.byte	W03
	.byte		N02   , Gs2 
	.byte	W03
	.byte		N03   , An3 , v080
	.byte	W03
	.byte		N02   , An2 , v060
	.byte	W03
	.byte		N03   , An3 , v020
	.byte	W03
	.byte		N02   , An2 
	.byte	W03
	.byte	W96
	.byte	W96
	.byte	W96
	.byte	W48
	.byte		N03   , Gs5 , v080
	.byte	W03
	.byte		N02   , Gs4 , v060
	.byte	W03
	.byte		N03   , An5 , v080
	.byte	W03
	.byte		N02   , An4 , v060
	.byte	W03
	.byte		N03   , Ds5 , v080
	.byte	W03
	.byte		N02   , Ds4 , v060
	.byte	W03
	.byte		N03   , En5 , v080
	.byte	W03
	.byte		N02   , En4 , v060
	.byte	W03
	.byte		N03   , Gs4 , v080
	.byte	W03
	.byte		N02   , Gs3 , v060
	.byte	W03
	.byte		N03   , Gs4 , v040
	.byte	W03
	.byte		N02   , Gs3 
	.byte	W03
	.byte		N03   , An4 , v080
	.byte	W03
	.byte		N02   , An3 , v060
	.byte	W03
	.byte		N03   , An4 , v020
	.byte	W03
	.byte		N02   , An3 
	.byte	W02
	.byte		MOD   , 100
	.byte	W01
	.byte		N02   , En3 , v120
	.byte	W02
	.byte		        En4 , v080
	.byte	W02
	.byte		        En3 , v060
	.byte	W02
	.byte		N02
	.byte	W02
	.byte		        En4 
	.byte	W02
	.byte		        En3 
	.byte	W02
	.byte		        En3 , v040
	.byte	W02
	.byte		        En4 
	.byte	W02
	.byte		        En3 
	.byte	W02
	.byte		        En3 , v020
	.byte	W02
	.byte		        En4 
	.byte	W02
	.byte		        En3 
	.byte	W02
	.byte		        Bn2 , v120
	.byte	W02
	.byte		        Bn3 , v080
	.byte	W02
	.byte		        Bn2 , v060
	.byte	W02
	.byte		N02
	.byte	W02
	.byte		        Bn3 
	.byte	W02
	.byte		        Bn2 
	.byte	W02
	.byte		        Bn2 , v040
	.byte	W02
	.byte		        Bn3 
	.byte	W02
	.byte		        Bn2 
	.byte	W02
	.byte		        Bn2 , v020
	.byte	W02
	.byte		        Bn3 
	.byte	W02
	.byte		        Bn2 
	.byte	W02
	.byte		        An2 , v120
	.byte	W02
	.byte		        An3 , v080
	.byte	W02
	.byte		        An2 , v060
	.byte	W02
	.byte		N02
	.byte	W02
	.byte		        An3 
	.byte	W02
	.byte		        An2 
	.byte	W02
	.byte		        An2 , v040
	.byte	W02
	.byte		        An3 
	.byte	W02
	.byte		        An2 
	.byte	W02
	.byte		        An2 , v020
	.byte	W02
	.byte		        An3 
	.byte	W02
	.byte		        An2 
	.byte	W02
	.byte		        Cs3 , v120
	.byte	W02
	.byte		        Cs4 , v080
	.byte	W02
	.byte		        Cs3 , v060
	.byte	W02
	.byte		N02
	.byte	W02
	.byte		        Cs4 
	.byte	W02
	.byte		        Cs3 
	.byte	W02
	.byte		        Bn2 , v120
	.byte	W02
	.byte		        Bn3 , v080
	.byte	W02
	.byte		        Bn2 , v060
	.byte	W02
	.byte		        Bn2 , v020
	.byte	W02
	.byte		        Bn3 
	.byte	W02
	.byte		        Bn2 
	.byte	W02
	.byte	PEND
	.byte	W96
	.byte	W96
	.byte	W96
	.byte	PATT
	 .word	seq_110_6 + 0x14D
	.byte	W96
	.byte	W96
	.byte	W96
	.byte	PATT
	 .word	seq_110_6 + 0x18
	.byte	GOTO
	 .word	seq_110_6 + 0x98
	.byte W96, W96
	.byte	FINE

@*********************** Track 08 ***********************@

seq_110_7:
	.byte	KEYSH , seq_110_key+0
	.byte	W12
	.byte		VOICE , 100
	.byte	W01
	.byte		VOL   , 80*seq_110_mvl/mxv
	.byte	W01
	.byte		PAN   , c_v+0
	.byte	W01
	.byte		LFOS  , 20
	.byte	W01
	.byte		MODT  , mod_vib
	.byte	W01
	.byte		BENDR , 12
	.byte	W07
	.byte	W96
	.byte		N12   , En2 , v120
	.byte	W24
	.byte		N01
	.byte	W12
	.byte		N09   , Dn2 
	.byte	W12
	.byte		N09
	.byte	W44
	.byte	W03
	.byte		BEND  , c_v-24
	.byte	W01
	.byte	PEND
	.byte		N12   , En2 , v120
	.byte	W02
	.byte		BEND  , c_v-20
	.byte	W01
	.byte		        c_v-16
	.byte	W01
	.byte		        c_v-12
	.byte	W01
	.byte		        c_v+0
	.byte	W19
	.byte		N01
	.byte	W12
	.byte		N09   , Dn2 
	.byte	W12
	.byte		N09
	.byte	W44
	.byte	W03
	.byte		BEND  , c_v-24
	.byte	W01
	.byte	PEND
	.byte	PATT
	 .word	seq_110_7 + 0x26
	.byte		N12   , En2 , v120
	.byte	W02
	.byte		BEND  , c_v-20
	.byte	W01
	.byte		        c_v-16
	.byte	W01
	.byte		        c_v-12
	.byte	W01
	.byte		        c_v+0
	.byte	W07
	.byte		N12   , Fs2 
	.byte	W12
	.byte		        En2 
	.byte	W12
	.byte		N11   , Dn2 
	.byte	W56
	.byte	W03
	.byte		BEND  , c_v-24
	.byte	W01
	.byte	PEND
	.byte	PATT
	 .word	seq_110_7 + 0x26
	.byte	PATT
	 .word	seq_110_7 + 0x26
	.byte	PATT
	 .word	seq_110_7 + 0x26
	.byte	PATT
	 .word	seq_110_7 + 0x44
	.byte	PATT
	 .word	seq_110_7 + 0x26
	.byte	PATT
	 .word	seq_110_7 + 0x26
	.byte	PATT
	 .word	seq_110_7 + 0x26
	.byte		N12   , En2 , v120
	.byte	W02
	.byte		BEND  , c_v-20
	.byte	W01
	.byte		        c_v-16
	.byte	W01
	.byte		        c_v-12
	.byte	W01
	.byte		        c_v+0
	.byte	W07
	.byte		N12   , Fs2 
	.byte	W12
	.byte		        En2 
	.byte	W12
	.byte		N11   , Dn2 
	.byte	W12
	.byte		VOICE , 102
	.byte	W01
	.byte		N03   , Gs5 
	.byte	W04
	.byte		N02   , Gs5 , v040
	.byte	W02
	.byte		N03   , An5 , v120
	.byte	W04
	.byte		N02   , An5 , v040
	.byte	W02
	.byte		N03   , Ds5 , v120
	.byte	W04
	.byte		N02   , Ds5 , v040
	.byte	W02
	.byte		N03   , En5 , v120
	.byte	W04
	.byte		N02   , En5 , v040
	.byte	W02
	.byte		N03   , Gs4 , v120
	.byte	W04
	.byte		N02   , Gs4 , v040
	.byte	W08
	.byte		N03   , An4 , v120
	.byte	W04
	.byte		N02   , An4 , v040
	.byte	W05
	.byte		VOICE , 100
	.byte	W01
	.byte		BEND  , c_v-24
	.byte	W01
	.byte	PEND
	.byte	PATT
	 .word	seq_110_7 + 0x26
	.byte	PATT
	 .word	seq_110_7 + 0x26
	.byte	PATT
	 .word	seq_110_7 + 0x26
	.byte	PATT
	 .word	seq_110_7 + 0x81
	.byte	PATT
	 .word	seq_110_7 + 0x26
	.byte		N12   , En2 , v120
	.byte	W02
	.byte		BEND  , c_v-20
	.byte	W01
	.byte		        c_v-16
	.byte	W01
	.byte		        c_v-12
	.byte	W01
	.byte		        c_v+0
	.byte	W19
	.byte		N01
	.byte	W12
	.byte		N09   , Cn2 
	.byte	W12
	.byte		        Dn2 
	.byte	W44
	.byte	W03
	.byte		BEND  , c_v-24
	.byte	W01
	.byte	PEND
	.byte	PATT
	 .word	seq_110_7 + 0x26
	.byte		N12   , En2 , v120
	.byte	W02
	.byte		BEND  , c_v-20
	.byte	W01
	.byte		        c_v-16
	.byte	W01
	.byte		        c_v-12
	.byte	W01
	.byte		        c_v+0
	.byte	W07
	.byte		N12   , Fs2 
	.byte	W12
	.byte		        En2 
	.byte	W12
	.byte		N11   , Dn2 
	.byte	W11
	.byte		VOICE , 102
	.byte	W01
	.byte		N02   , Dn6 , v040
	.byte	W02
	.byte		        Gs5 
	.byte	W02
	.byte		        Cn6 
	.byte	W02
	.byte		        Fs5 
	.byte	W02
	.byte		        As5 
	.byte	W02
	.byte		        En5 
	.byte	W02
	.byte		        Gs5 
	.byte	W02
	.byte		        Dn5 
	.byte	W02
	.byte		        Fs5 
	.byte	W02
	.byte		        Cn5 
	.byte	W02
	.byte		        En5 
	.byte	W02
	.byte		        As4 
	.byte	W02
	.byte		        Dn5 
	.byte	W02
	.byte		        Gs4 
	.byte	W02
	.byte		        Cn5 
	.byte	W02
	.byte		        Fs4 
	.byte	W02
	.byte		        As4 
	.byte	W02
	.byte		        En4 
	.byte	W02
	.byte		        Gs4 
	.byte	W02
	.byte		        Dn4 
	.byte	W02
	.byte		        Fs4 
	.byte	W02
	.byte		        Cn4 
	.byte	W02
	.byte		        En4 
	.byte	W02
	.byte		        As3 
	.byte	W01
	.byte		VOICE , 100
	.byte	W01
	.byte	PEND
	.byte	PATT
	 .word	seq_110_7 + 0x16
	.byte	PATT
	 .word	seq_110_7 + 0xE8
	.byte	PATT
	 .word	seq_110_7 + 0x26
	.byte	PATT
	 .word	seq_110_7 + 0x106
	.byte	W96
	.byte	GOTO
	 .word	seq_110_7 + 0x16
	.byte W96, W96
	.byte	FINE

@*********************** Track 09 ***********************@

seq_110_8:
	.byte	KEYSH , seq_110_key+0
	.byte	W12
	.byte		VOICE , 74
	.byte	W01
	.byte		VOL   , 37*seq_110_mvl/mxv
	.byte	W01
	.byte		PAN   , c_v+0
	.byte	W01
	.byte		LFOS  , 10
	.byte	W01
	.byte		MODT  , mod_pan
	.byte	W01
	.byte		LFODL , 0
	.byte	W07
	.byte	W48
	.byte	W01
	.byte		N03   , Gs4 , v120
	.byte	W03
	.byte		N02   , Gs4 , v060
	.byte	W03
	.byte		N03   , An4 , v120
	.byte	W03
	.byte		N02   , An4 , v060
	.byte	W03
	.byte		N03   , Ds4 , v120
	.byte	W03
	.byte		N02   , Ds4 , v060
	.byte	W03
	.byte		N03   , En4 , v120
	.byte	W03
	.byte		N02   , En4 , v060
	.byte	W04
	.byte		N03   , Gs3 , v120
	.byte	W03
	.byte		N02   , Gs3 , v060
	.byte	W03
	.byte		N03
	.byte	W03
	.byte		N02   , Gs3 , v040
	.byte	W03
	.byte		N03   , An3 , v120
	.byte	W03
	.byte		N02   , An3 , v060
	.byte	W03
	.byte		N03
	.byte	W03
	.byte		N02   , An3 , v040
	.byte	W01
	.byte	W96
	.byte	W96
	.byte	W96
	.byte	W96
	.byte	W96
	.byte	W96
	.byte	W96
	.byte	W96
	.byte	W10
	.byte		VOICE , 97
	.byte	W01
	.byte		VOL   , 50*seq_110_mvl/mxv
	.byte	W01
	.byte		N08   , Bn4 , v120
	.byte	W08
	.byte		N04   , Bn4 , v040
	.byte	W04
	.byte		N08   , En4 , v120
	.byte	W08
	.byte		N04   , En4 , v040
	.byte	W04
	.byte		N08   , Fs4 , v120
	.byte	W08
	.byte		N04   , Fs4 , v040
	.byte	W04
	.byte		N08   , Cs4 , v120
	.byte	W08
	.byte		N04   , Cs4 , v040
	.byte	W04
	.byte		N06   , Bn3 , v120
	.byte	W06
	.byte		N04   , Bn3 , v060
	.byte	W18
	.byte		N08   , Bn4 , v120
	.byte	W08
	.byte		N04   , Bn4 , v040
	.byte	W04
	.byte		N08   , En4 , v120
	.byte	W08
	.byte		N04   , En4 , v040
	.byte	W04
	.byte		N08   , Fs4 , v120
	.byte	W08
	.byte		N04   , Fs4 , v040
	.byte	W04
	.byte		N08   , Cs4 , v120
	.byte	W08
	.byte		N04   , Cs4 , v040
	.byte	W04
	.byte		N06   , Bn3 , v120
	.byte	W06
	.byte		N04   , Bn3 , v060
	.byte	W54
	.byte	PEND
	.byte	W12
	.byte		N08   , Bn4 , v120
	.byte	W08
	.byte		N04   , Bn4 , v040
	.byte	W04
	.byte		N08   , En4 , v120
	.byte	W08
	.byte		N04   , En4 , v040
	.byte	W04
	.byte		N08   , Fs4 , v120
	.byte	W08
	.byte		N04   , Fs4 , v040
	.byte	W04
	.byte		N08   , Cs4 , v120
	.byte	W08
	.byte		N04   , Cs4 , v040
	.byte	W04
	.byte		N06   , Bn3 , v120
	.byte	W06
	.byte		N04   , Bn3 , v060
	.byte	W18
	.byte		N08   , Bn4 , v120
	.byte	W08
	.byte		N04   , Bn4 , v040
	.byte	W04
	.byte	PEND
	.byte		N08   , En4 , v120
	.byte	W08
	.byte		N04   , En4 , v040
	.byte	W04
	.byte		N08   , Fs4 , v120
	.byte	W08
	.byte		N04   , Fs4 , v040
	.byte	W04
	.byte		N08   , Cs5 , v120
	.byte	W08
	.byte		N04   , Cs5 , v040
	.byte	W04
	.byte		N06   , Bn4 , v120
	.byte	W06
	.byte		N04   , Bn4 , v060
	.byte	W54
	.byte	PEND
	.byte	PATT
	 .word	seq_110_8 + 0xB3
	.byte	PATT
	 .word	seq_110_8 + 0x92
	.byte	PATT
	 .word	seq_110_8 + 0xB3
	.byte	PATT
	 .word	seq_110_8 + 0xE5
	.byte		N12   , En4 , v060
	.byte	W12
	.byte		        En4 , v040
	.byte	W12
	.byte		        Bn3 , v060
	.byte	W12
	.byte		        Bn3 , v040
	.byte	W12
	.byte		        An3 , v060
	.byte	W12
	.byte		        An3 , v040
	.byte	W12
	.byte		        Cs4 , v060
	.byte	W12
	.byte		        Bn3 
	.byte	W12
	.byte	PEND
	.byte		N12   , Bn3 , v040
	.byte	W12
	.byte		        Bn3 , v020
	.byte	W12
	.byte		        Dn2 , v040
	.byte	W12
	.byte		        Cn2 , v060
	.byte	W12
	.byte		        Dn2 , v080
	.byte	W12
	.byte		        Cn2 
	.byte	W12
	.byte		        Dn2 
	.byte	W12
	.byte		        Cn2 
	.byte	W12
	.byte	PEND
	.byte	W23
	.byte		BEND  , c_v-24
	.byte	W01
	.byte		N12   , En4 , v080
	.byte	W04
	.byte		BEND  , c_v-20
	.byte	W01
	.byte		        c_v-16
	.byte	W01
	.byte		        c_v-12
	.byte	W01
	.byte		        c_v-8
	.byte	W01
	.byte		        c_v+0
	.byte	W04
	.byte		N12   , En4 , v040
	.byte	W12
	.byte		        Bn3 , v080
	.byte	W12
	.byte		        An3 
	.byte	W12
	.byte		        Cs4 
	.byte	W12
	.byte		        Bn3 
	.byte	W12
	.byte	PEND
	.byte		N12   , En2 , v080
	.byte	W12
	.byte		        Fs2 
	.byte	W12
	.byte		        En2 
	.byte	W12
	.byte		        Dn2 
	.byte	W60
	.byte	PEND
	.byte	PATT
	 .word	seq_110_8 + 0x11A
	.byte	PATT
	 .word	seq_110_8 + 0x133
	.byte	PATT
	 .word	seq_110_8 + 0x14A
	.byte	PATT
	 .word	seq_110_8 + 0x16B
	.byte	W44
	.byte	W02
	.byte		VOICE , 74
	.byte	W01
	.byte		VOL   , 37*seq_110_mvl/mxv
	.byte	W02
	.byte		N03   , Gs4 , v120
	.byte	W03
	.byte		N02   , Gs4 , v060
	.byte	W03
	.byte		N03   , An4 , v120
	.byte	W03
	.byte		N02   , An4 , v060
	.byte	W03
	.byte		N03   , Ds4 , v120
	.byte	W03
	.byte		N02   , Ds4 , v060
	.byte	W03
	.byte		N03   , En4 , v120
	.byte	W03
	.byte		N02   , En4 , v060
	.byte	W04
	.byte		N03   , Gs3 , v120
	.byte	W03
	.byte		N02   , Gs3 , v060
	.byte	W03
	.byte		N03
	.byte	W03
	.byte		N02   , Gs3 , v040
	.byte	W03
	.byte		N03   , An3 , v120
	.byte	W03
	.byte		N02   , An3 , v060
	.byte	W03
	.byte		N03
	.byte	W03
	.byte		N02   , An3 , v040
	.byte	W01
	.byte	GOTO
	 .word	seq_110_8 + 0x53
	.byte W96, W96
	.byte	FINE

@*********************** Track 10 ***********************@

seq_110_9:
	.byte	KEYSH , seq_110_key+0
	.byte	W18
	.byte		VOICE , 88
	.byte	W01
	.byte		VOL   , 37*seq_110_mvl/mxv
	.byte	W01
	.byte		PAN   , c_v+0
	.byte	W01
	.byte		LFOS  , 10
	.byte	W01
	.byte		MODT  , mod_pan
	.byte	W01
	.byte		LFODL , 0
	.byte	W01
	.byte	W48
	.byte	W01
	.byte		N03   , En3 , v120
	.byte	W04
	.byte		N02   , En3 , v060
	.byte	W02
	.byte		N03   , Fn3 , v120
	.byte	W04
	.byte		N02   , Fn3 , v060
	.byte	W02
	.byte		N03   , Bn2 , v120
	.byte	W04
	.byte		N02   , Bn2 , v060
	.byte	W02
	.byte		N03   , Cn3 , v120
	.byte	W04
	.byte		N02   , Cn3 , v060
	.byte	W02
	.byte		N03   , En2 , v120
	.byte	W04
	.byte		N02   , En2 , v060
	.byte	W02
	.byte		N03
	.byte	W04
	.byte		N02   , En2 , v040
	.byte	W02
	.byte		N03   , Fn2 , v120
	.byte	W04
	.byte		N02   , Fn2 , v060
	.byte	W02
	.byte		N03
	.byte	W04
	.byte		N02   , Fn2 , v040
	.byte	W01
	.byte	W96
	.byte	W96
	.byte	W96
	.byte	W96
	.byte	W96
	.byte	W96
	.byte	W96
	.byte	W96
	.byte	W10
	.byte		VOICE , 95
	.byte	W01
	.byte		VOL   , 50*seq_110_mvl/mxv
	.byte	W01
	.byte		N08   , Bn3 , v120
	.byte	W08
	.byte		N04   , Bn3 , v040
	.byte	W04
	.byte		N08   , En3 , v120
	.byte	W08
	.byte		N04   , En3 , v040
	.byte	W04
	.byte		N08   , Fs3 , v120
	.byte	W08
	.byte		N04   , Fs3 , v040
	.byte	W04
	.byte		N08   , Cs3 , v120
	.byte	W08
	.byte		N04   , Cs3 , v040
	.byte	W04
	.byte		N06   , Bn2 , v120
	.byte	W06
	.byte		N04   , Bn2 , v060
	.byte	W18
	.byte		N08   , Bn3 , v120
	.byte	W08
	.byte		N04   , Bn3 , v040
	.byte	W04
	.byte		N08   , En3 , v120
	.byte	W08
	.byte		N04   , En3 , v040
	.byte	W04
	.byte		N08   , Fs3 , v120
	.byte	W08
	.byte		N04   , Fs3 , v040
	.byte	W04
	.byte		N08   , Cs3 , v120
	.byte	W08
	.byte		N04   , Cs3 , v040
	.byte	W04
	.byte		N06   , Bn2 , v120
	.byte	W06
	.byte		N04   , Bn2 , v060
	.byte	W54
	.byte	PEND
	.byte	W12
	.byte		N08   , Bn3 , v120
	.byte	W08
	.byte		N04   , Bn3 , v040
	.byte	W04
	.byte		N08   , En3 , v120
	.byte	W08
	.byte		N04   , En3 , v040
	.byte	W04
	.byte		N08   , Fs3 , v120
	.byte	W08
	.byte		N04   , Fs3 , v040
	.byte	W04
	.byte		N08   , Cs3 , v120
	.byte	W08
	.byte		N04   , Cs3 , v040
	.byte	W04
	.byte		N06   , Bn2 , v120
	.byte	W06
	.byte		N04   , Bn2 , v060
	.byte	W18
	.byte		N08   , Bn3 , v120
	.byte	W08
	.byte		N04   , Bn3 , v040
	.byte	W04
	.byte	PEND
	.byte		N08   , En3 , v120
	.byte	W08
	.byte		N04   , En3 , v040
	.byte	W04
	.byte		N08   , Fs3 , v120
	.byte	W08
	.byte		N04   , Fs3 , v040
	.byte	W04
	.byte		N08   , Cs4 , v120
	.byte	W08
	.byte		N04   , Cs4 , v040
	.byte	W04
	.byte		N06   , Bn3 , v120
	.byte	W06
	.byte		N04   , Bn3 , v060
	.byte	W54
	.byte	PEND
	.byte	PATT
	 .word	seq_110_9 + 0xB3
	.byte	PATT
	 .word	seq_110_9 + 0x92
	.byte	PATT
	 .word	seq_110_9 + 0xB3
	.byte	PATT
	 .word	seq_110_9 + 0xE5
	.byte		N12   , En3 , v120
	.byte	W12
	.byte		        En3 , v040
	.byte	W12
	.byte		        Bn2 , v120
	.byte	W12
	.byte		        Bn2 , v040
	.byte	W12
	.byte		        An2 , v120
	.byte	W12
	.byte		        An2 , v040
	.byte	W12
	.byte		        Cs3 , v120
	.byte	W12
	.byte		        Bn2 
	.byte	W12
	.byte	PEND
	.byte		N12   , Bn2 , v040
	.byte	W24
	.byte		        Gs1 
	.byte	W12
	.byte		        Fs1 , v060
	.byte	W12
	.byte		        Gs1 , v080
	.byte	W12
	.byte		        Fs1 
	.byte	W12
	.byte		        Gs1 
	.byte	W12
	.byte		        Fs1 
	.byte	W12
	.byte	PEND
	.byte	W23
	.byte		BEND  , c_v-24
	.byte	W01
	.byte		N12   , En3 , v120
	.byte	W04
	.byte		BEND  , c_v-20
	.byte	W01
	.byte		        c_v-16
	.byte	W01
	.byte		        c_v-12
	.byte	W01
	.byte		        c_v-8
	.byte	W01
	.byte		        c_v+0
	.byte	W04
	.byte		N12   , En3 , v040
	.byte	W12
	.byte		        Bn2 , v120
	.byte	W12
	.byte		        An2 
	.byte	W12
	.byte		        Cs3 
	.byte	W12
	.byte		        Bn2 
	.byte	W12
	.byte	PEND
	.byte		N12   , En1 , v080
	.byte	W12
	.byte		        Fs1 
	.byte	W12
	.byte		        En1 
	.byte	W12
	.byte		        Dn1 
	.byte	W60
	.byte	PEND
	.byte	PATT
	 .word	seq_110_9 + 0x11A
	.byte	PATT
	 .word	seq_110_9 + 0x133
	.byte	PATT
	 .word	seq_110_9 + 0x146
	.byte	PATT
	 .word	seq_110_9 + 0x167
	.byte	W44
	.byte	W02
	.byte		VOICE , 88
	.byte	W01
	.byte		VOL   , 37*seq_110_mvl/mxv
	.byte	W02
	.byte		N03   , En3 , v120
	.byte	W04
	.byte		N02   , En3 , v060
	.byte	W02
	.byte		N03   , Fn3 , v120
	.byte	W04
	.byte		N02   , Fn3 , v060
	.byte	W02
	.byte		N03   , Bn2 , v120
	.byte	W04
	.byte		N02   , Bn2 , v060
	.byte	W02
	.byte		N03   , Cn3 , v120
	.byte	W04
	.byte		N02   , Cn3 , v060
	.byte	W02
	.byte		N03   , En2 , v120
	.byte	W04
	.byte		N02   , En2 , v060
	.byte	W02
	.byte		N03
	.byte	W04
	.byte		N02   , En2 , v040
	.byte	W02
	.byte		N03   , Fn2 , v120
	.byte	W04
	.byte		N02   , Fn2 , v060
	.byte	W02
	.byte		N03
	.byte	W04
	.byte		N02   , Fn2 , v040
	.byte	W01
	.byte	GOTO
	 .word	seq_110_9 + 0x53
	.byte W96, W96
	.byte	FINE

@*********************** Track 11 ***********************@

seq_110_10:
	.byte	KEYSH , seq_110_key+0
	.byte	W18
	.byte		VOICE , 112
	.byte	W01
	.byte		VOL   , 31*seq_110_mvl/mxv
	.byte	W01
	.byte		PAN   , c_v+0
	.byte	W04
	.byte	W96
	.byte		N03   , Ds4 , v120
	.byte	W12
	.byte		        Ds4 , v060
	.byte	W12
	.byte		        Ds4 , v100
	.byte	W12
	.byte		        Ds4 , v060
	.byte	W12
	.byte		        Ds4 , v100
	.byte	W12
	.byte		        Ds4 , v060
	.byte	W12
	.byte		        Ds4 , v100
	.byte	W12
	.byte		        Ds4 , v060
	.byte	W12
	.byte	PEND
	.byte	PATT
	 .word	seq_110_10 + 0xD
	.byte	PATT
	 .word	seq_110_10 + 0xD
	.byte		N03   , Ds4 , v120
	.byte	W12
	.byte		        Ds4 , v060
	.byte	W12
	.byte		        Ds4 , v100
	.byte	W12
	.byte		        Ds4 , v060
	.byte	W12
	.byte		N06   , Ds4 , v100
	.byte	W06
	.byte		N04   , Ds4 , v060
	.byte	W06
	.byte		N06
	.byte	W06
	.byte		N04
	.byte	W06
	.byte		N05   , Ds4 , v040
	.byte	W06
	.byte		N04
	.byte	W06
	.byte		N04
	.byte	W06
	.byte		N03
	.byte	W06
	.byte	PEND
	.byte	PATT
	 .word	seq_110_10 + 0xD
	.byte	PATT
	 .word	seq_110_10 + 0xD
	.byte	PATT
	 .word	seq_110_10 + 0xD
	.byte	PATT
	 .word	seq_110_10 + 0x31
	.byte	PATT
	 .word	seq_110_10 + 0xD
	.byte	PATT
	 .word	seq_110_10 + 0xD
	.byte	PATT
	 .word	seq_110_10 + 0xD
	.byte		N03   , Ds4 , v120
	.byte	W12
	.byte		        Ds4 , v060
	.byte	W12
	.byte		        Ds4 , v100
	.byte	W12
	.byte		        Ds4 , v060
	.byte	W12
	.byte		N04   , Ds4 , v100
	.byte	W06
	.byte		        Ds4 , v060
	.byte	W06
	.byte		N04
	.byte	W06
	.byte		        Ds4 , v040
	.byte	W06
	.byte		N05   , Ds4 , v060
	.byte	W12
	.byte		        Ds4 , v040
	.byte	W12
	.byte	PEND
	.byte	PATT
	 .word	seq_110_10 + 0xD
	.byte	PATT
	 .word	seq_110_10 + 0xD
	.byte	PATT
	 .word	seq_110_10 + 0xD
	.byte	PATT
	 .word	seq_110_10 + 0x78
	.byte	PATT
	 .word	seq_110_10 + 0xD
	.byte	PATT
	 .word	seq_110_10 + 0xD
	.byte	PATT
	 .word	seq_110_10 + 0xD
	.byte	PATT
	 .word	seq_110_10 + 0x31
	.byte	PATT
	 .word	seq_110_10 + 0xD
	.byte	PATT
	 .word	seq_110_10 + 0xD
	.byte	PATT
	 .word	seq_110_10 + 0xD
	.byte	PATT
	 .word	seq_110_10 + 0x31
	.byte		N03   , Ds4 , v120
	.byte	W06
	.byte		        Ds4 , v060
	.byte	W12
	.byte		N03
	.byte	W06
	.byte		        Ds4 , v100
	.byte	W12
	.byte		        Ds4 , v060
	.byte	W06
	.byte		N02   , Ds4 , v040
	.byte	W06
	.byte		N06   , Ds4 , v100
	.byte	W06
	.byte		N04   , Bn3 , v060
	.byte	W06
	.byte		N06   , Gn3 
	.byte	W06
	.byte		N04   , Dn3 
	.byte	W06
	.byte		N05   , As2 
	.byte	W06
	.byte		N02
	.byte	W06
	.byte		N04
	.byte	W06
	.byte		N02
	.byte	W06
	.byte	GOTO
	 .word	seq_110_10 + 0xD
	.byte W96, W96
	.byte	FINE

@******************************************************@

	.align	2

seq_110:
	.byte	11	@ NumTrks
	.byte	0	@ NumBlks
	.byte	seq_110_pri	@ Priority
	.byte	seq_110_rev	@ Reverb

	.word	seq_110_grp

	.word	seq_110_0
	.word	seq_110_1
	.word	seq_110_2
	.word	seq_110_3
	.word	seq_110_4
	.word	seq_110_5
	.word	seq_110_6
	.word	seq_110_7
	.word	seq_110_8
	.word	seq_110_9
	.word	seq_110_10

	.end
