@ File generated by m4a2s Song-Module
	.include "MPlayDef.s"

	.equ	seq_004_grp, bank_000
	.equ	seq_004_pri, 50
	.equ	seq_004_rev, 218
	.equ	seq_004_mvl, 127
	.equ	seq_004_key, 0

	.section .rodata
	.global	seq_004
	.align	2

@*********************** Track 01 ***********************@

seq_004_0:
	.byte	KEYSH , seq_004_key+0
	.byte	TEMPO , 78/2
	.byte		VOICE , 46
	.byte		VOL   , 110*seq_004_mvl/mxv
	.byte		PAN   , c_v+0
	.byte	W12
	.byte		N08   , Cn2 , v120
	.byte	W12
	.byte		N09   , Fn2 , v120
	.byte	W12
	.byte		N07   , Bn2 , v112
	.byte	W12
	.byte		        Cn3 , v092
	.byte	W12
	.byte		N09   , Gn3 , v112
	.byte	W48
	.byte		N07   , Cn2 , v120
	.byte	W12
	.byte	PEND
	.byte		N09   , Fn2 , v120
	.byte	W12
	.byte		N07   , Bn2 , v112
	.byte	W12
	.byte		        Cn3 , v092
	.byte	W12
	.byte		N09   , Gn3 , v112
	.byte	W48
	.byte		N07   , Dn2 , v120
	.byte	W12
	.byte	PEND
	.byte		N09   , En2 , v120
	.byte	W12
	.byte		N07   , An2 , v112
	.byte	W12
	.byte		        Bn2 , v092
	.byte	W12
	.byte		N09   , En3 , v112
	.byte	W48
	.byte		N07   , Dn2 , v120
	.byte	W12
	.byte	PEND
	.byte		N09   , En2 , v120
	.byte	W12
	.byte		N07   , An2 , v112
	.byte	W12
	.byte		        Bn2 , v092
	.byte	W12
	.byte		N09   , En3 , v112
	.byte	W48
	.byte		N07   , Cn2 , v120
	.byte	W12
	.byte	PEND
	.byte	PATT
	 .word	seq_004_0 + 0xF
	.byte	PATT
	 .word	seq_004_0 + 0x23
	.byte	PATT
	 .word	seq_004_0 + 0x37
	.byte	PATT
	 .word	seq_004_0 + 0x4B
	.byte	GOTO
	 .word	seq_004_0 + 0xF
	.byte	FINE

@*********************** Track 02 ***********************@

seq_004_1:
	.byte	KEYSH , seq_004_key+0
	.byte	W01
	.byte		VOICE , 14
	.byte		VOL   , 60*seq_004_mvl/mxv
	.byte		PAN   , c_v-20
	.byte	W11
	.byte	W12
	.byte	W48
	.byte		N12   , Fn3 , v100
	.byte	W44
	.byte	W03
	.byte		PAN   , c_v+20
	.byte	W01
	.byte		N12   , Cn4 , v100
	.byte	W44
	.byte	W03
	.byte		PAN   , c_v-20
	.byte	W01
	.byte		N12   , Gn3 
	.byte	W48
	.byte	PEND
	.byte	W44
	.byte	W03
	.byte		PAN   , c_v+20
	.byte	W01
	.byte		N12   , En3 , v100
	.byte	W44
	.byte	W03
	.byte		PAN   , c_v-20
	.byte	W01
	.byte	PEND
	.byte		N12   , Bn3 , v100
	.byte	W44
	.byte	W03
	.byte		PAN   , c_v+20
	.byte	W01
	.byte		N12   , Gn3 
	.byte	W48
	.byte	PEND
	.byte	W44
	.byte	W03
	.byte		PAN   , c_v-20
	.byte	W01
	.byte		N12   , Fn3 
	.byte	W44
	.byte	W03
	.byte		PAN   , c_v+20
	.byte	W01
	.byte	PATT
	 .word	seq_004_1 + 0x14
	.byte	PATT
	 .word	seq_004_1 + 0x20
	.byte	PATT
	 .word	seq_004_1 + 0x2E
	.byte	GOTO
	 .word	seq_004_1 + 0xB
	.byte	FINE

@*********************** Track 03 ***********************@

seq_004_2:
	.byte	KEYSH , seq_004_key+0
	.byte	W02
	.byte		VOICE , 76
	.byte		VOL   , 86*seq_004_mvl/mxv
	.byte		PAN   , c_v+0
	.byte	W10
	.byte	W12
	.byte	W24
	.byte		N05   , Gn3 , v008
	.byte	W05
	.byte		        An3 , v012
	.byte	W04
	.byte		        Gn3 , v016
	.byte	W04
	.byte		        An3 , v020
	.byte	W04
	.byte		        Gn3 , v024
	.byte	W04
	.byte		        An3 , v028
	.byte	W03
	.byte		        Gn3 
	.byte	W05
	.byte		        An3 , v036
	.byte	W04
	.byte		        Gn3 , v044
	.byte	W04
	.byte		        An3 , v048
	.byte	W03
	.byte		        Gn3 , v056
	.byte	W04
	.byte		        An3 , v060
	.byte	W04
	.byte		        Gn3 , v068
	.byte	W04
	.byte		        An3 , v076
	.byte	W04
	.byte		        Gn3 , v088
	.byte	W04
	.byte		        An3 , v080
	.byte	W03
	.byte		        Gn3 , v068
	.byte	W03
	.byte		        An3 , v040
	.byte	W03
	.byte		        Gn3 , v032
	.byte	W03
	.byte	PEND
	.byte	W96
	.byte	W24
	.byte		N05   , An3 , v008
	.byte	W05
	.byte		        Bn3 , v012
	.byte	W04
	.byte		        An3 , v016
	.byte	W04
	.byte		        Bn3 , v020
	.byte	W04
	.byte		        An3 , v024
	.byte	W04
	.byte		        Bn3 , v028
	.byte	W03
	.byte		        An3 
	.byte	W05
	.byte		        Bn3 , v036
	.byte	W04
	.byte		        An3 , v044
	.byte	W04
	.byte		        Bn3 , v048
	.byte	W03
	.byte		        An3 , v056
	.byte	W04
	.byte		        Bn3 , v060
	.byte	W04
	.byte		        An3 , v068
	.byte	W04
	.byte		        Bn3 , v076
	.byte	W04
	.byte		        An3 , v088
	.byte	W04
	.byte		        Bn3 , v080
	.byte	W03
	.byte		        An3 , v068
	.byte	W03
	.byte		        Bn3 , v040
	.byte	W03
	.byte		        An3 , v032
	.byte	W03
	.byte	PEND
	.byte	W96
	.byte	PATT
	 .word	seq_004_2 + 0xB
	.byte	W96
	.byte	PATT
	 .word	seq_004_2 + 0x47
	.byte	W96
	.byte	GOTO
	 .word	seq_004_2 + 0xB
	.byte	FINE

@*********************** Track 04 ***********************@

seq_004_3:
	.byte	KEYSH , seq_004_key+0
	.byte	W03
	.byte		VOICE , 81
	.byte		VOL   , 38*seq_004_mvl/mxv
	.byte		PAN   , c_v+0
	.byte	W09
	.byte	W12
	.byte	W24
	.byte		N05   , En3 , v032
	.byte	W05
	.byte		        Fn3 
	.byte	W04
	.byte		        En3 
	.byte	W04
	.byte		        Fn3 
	.byte	W04
	.byte		        En3 
	.byte	W04
	.byte		        Fn3 
	.byte	W03
	.byte		        En3 , v028
	.byte	W05
	.byte		        Fn3 , v036
	.byte	W04
	.byte		        En3 , v044
	.byte	W04
	.byte		        Fn3 , v048
	.byte	W03
	.byte		        En3 , v056
	.byte	W05
	.byte		        Fn3 , v060
	.byte	W05
	.byte		        En3 , v068
	.byte	W04
	.byte		        Fn3 , v076
	.byte	W04
	.byte		        En3 , v088
	.byte	W04
	.byte		        Fn3 , v080
	.byte	W03
	.byte		        En3 , v068
	.byte	W03
	.byte		        Fn3 , v048
	.byte	W04
	.byte	W08
	.byte		N05   , Gn3 , v032
	.byte	W04
	.byte		        An3 , v036
	.byte	W04
	.byte		        Gn3 , v040
	.byte	W04
	.byte		        An3 , v052
	.byte	W05
	.byte		        Gn3 , v060
	.byte	W05
	.byte		        An3 , v076
	.byte	W03
	.byte		        Gn3 , v088
	.byte	W04
	.byte		        An3 
	.byte	W04
	.byte		        Gn3 , v084
	.byte	W05
	.byte		        An3 , v080
	.byte	W03
	.byte		        Gn3 , v076
	.byte	W04
	.byte		        An3 , v072
	.byte	W04
	.byte		        Gn3 , v064
	.byte	W04
	.byte		        An3 , v056
	.byte	W04
	.byte		        Gn3 , v044
	.byte	W05
	.byte		        An3 , v032
	.byte	W03
	.byte		        Gn3 
	.byte	W04
	.byte		        An3 
	.byte	W03
	.byte		        Gn3 
	.byte	W16
	.byte	PEND
	.byte	W24
	.byte		N06   , Dn3 
	.byte	W06
	.byte		N04   , En3 
	.byte	W03
	.byte		N05   , Dn3 
	.byte	W04
	.byte		N04   , En3 
	.byte	W03
	.byte		N05   , Dn3 
	.byte	W05
	.byte		N04   , En3 
	.byte	W03
	.byte		N05   , Dn3 
	.byte	W04
	.byte		        En3 , v036
	.byte	W05
	.byte		        Dn3 , v044
	.byte	W04
	.byte		N03   , En3 , v048
	.byte	W03
	.byte		N05   , Dn3 , v056
	.byte	W05
	.byte		        En3 , v060
	.byte	W04
	.byte		        Dn3 , v068
	.byte	W05
	.byte		N03   , En3 , v076
	.byte	W03
	.byte		N05   , Dn3 , v088
	.byte	W04
	.byte		N03   , En3 , v080
	.byte	W03
	.byte		        Dn3 , v068
	.byte	W03
	.byte		N12   , En3 , v048
	.byte	W05
	.byte	W07
	.byte		N05   , Dn3 , v032
	.byte	W05
	.byte		        En3 , v036
	.byte	W04
	.byte		N03   , Dn3 , v040
	.byte	W03
	.byte		N06   , En3 , v052
	.byte	W06
	.byte		N05   , Dn3 , v060
	.byte	W05
	.byte		        En3 , v076
	.byte	W03
	.byte		        Dn3 , v088
	.byte	W04
	.byte		        En3 
	.byte	W03
	.byte		N06   , Dn3 , v084
	.byte	W06
	.byte		N05   , En3 , v080
	.byte	W03
	.byte		        Dn3 , v076
	.byte	W03
	.byte		        En3 , v072
	.byte	W05
	.byte		        Dn3 , v064
	.byte	W04
	.byte		        En3 , v056
	.byte	W03
	.byte		N06   , Dn3 , v044
	.byte	W06
	.byte		N05   , En3 , v032
	.byte	W03
	.byte		        Dn3 
	.byte	W04
	.byte		        En3 
	.byte	W03
	.byte		        Dn3 
	.byte	W16
	.byte	W24
	.byte		        En3 
	.byte	W05
	.byte		        Fn3 
	.byte	W04
	.byte		        En3 
	.byte	W04
	.byte		        Fn3 
	.byte	W04
	.byte		        En3 
	.byte	W04
	.byte		        Fn3 
	.byte	W03
	.byte		        En3 
	.byte	W05
	.byte		        Fn3 , v036
	.byte	W04
	.byte		        En3 , v044
	.byte	W04
	.byte		        Fn3 , v048
	.byte	W03
	.byte		        En3 , v056
	.byte	W05
	.byte		        Fn3 , v060
	.byte	W05
	.byte		        En3 , v068
	.byte	W04
	.byte		        Fn3 , v076
	.byte	W04
	.byte		        En3 , v088
	.byte	W04
	.byte		        Fn3 , v080
	.byte	W03
	.byte		        En3 , v068
	.byte	W03
	.byte		        Fn3 , v048
	.byte	W04
	.byte	PATT
	 .word	seq_004_3 + 0x3E
	.byte	W24
	.byte		N05   , Dn3 , v032
	.byte	W05
	.byte		        En3 
	.byte	W04
	.byte		        Dn3 
	.byte	W04
	.byte		        En3 
	.byte	W04
	.byte		        Dn3 
	.byte	W04
	.byte		        En3 
	.byte	W03
	.byte		        Dn3 
	.byte	W05
	.byte		        En3 , v036
	.byte	W04
	.byte		        Dn3 , v044
	.byte	W04
	.byte		        En3 , v048
	.byte	W03
	.byte		        Dn3 , v056
	.byte	W05
	.byte		        En3 , v060
	.byte	W05
	.byte		        Dn3 , v068
	.byte	W04
	.byte		        En3 , v076
	.byte	W04
	.byte		        Dn3 , v088
	.byte	W04
	.byte		        En3 , v080
	.byte	W03
	.byte		        Dn3 , v068
	.byte	W03
	.byte		        En3 , v048
	.byte	W04
	.byte	W12
	.byte		        Bn3 , v036
	.byte	W04
	.byte		        An3 , v040
	.byte	W04
	.byte		        Bn3 , v052
	.byte	W05
	.byte		        An3 , v060
	.byte	W05
	.byte		        Bn3 , v076
	.byte	W03
	.byte		        An3 , v088
	.byte	W04
	.byte		        Bn3 
	.byte	W04
	.byte		        An3 , v084
	.byte	W05
	.byte		        Bn3 , v080
	.byte	W03
	.byte		        An3 , v076
	.byte	W04
	.byte		        Bn3 , v072
	.byte	W04
	.byte		        An3 , v064
	.byte	W04
	.byte		        Bn3 , v056
	.byte	W04
	.byte		        An3 , v044
	.byte	W05
	.byte		        Bn3 , v032
	.byte	W03
	.byte		        An3 
	.byte	W04
	.byte		        Bn3 
	.byte	W03
	.byte		        An3 
	.byte	W16
	.byte	GOTO
	 .word	seq_004_3 + 0xB
	.byte	FINE

@*********************** Track 05 ***********************@

seq_004_4:
	.byte	KEYSH , seq_004_key+0
	.byte	W04
	.byte		VOICE , 95
	.byte		VOL   , 77*seq_004_mvl/mxv
	.byte		PAN   , c_v+0
	.byte	W08
	.byte	W12
	.byte	W96
	.byte	W16
	.byte		N06   , Bn2 , v040
	.byte	W04
	.byte		        Cn3 , v052
	.byte	W05
	.byte		        Bn2 , v060
	.byte	W05
	.byte		        Cn3 , v076
	.byte	W03
	.byte		        Bn2 , v088
	.byte	W04
	.byte		        Cn3 
	.byte	W04
	.byte		        Bn2 , v084
	.byte	W05
	.byte		        Cn3 , v080
	.byte	W03
	.byte		        Bn2 , v076
	.byte	W04
	.byte		        Cn3 , v072
	.byte	W04
	.byte		        Bn2 , v064
	.byte	W04
	.byte		        Cn3 , v056
	.byte	W04
	.byte		        Bn2 , v044
	.byte	W05
	.byte		        Cn3 , v032
	.byte	W03
	.byte		        Bn2 , v024
	.byte	W04
	.byte		        Cn3 , v012
	.byte	W04
	.byte		        Bn2 , v004
	.byte	W15
	.byte	PEND
	.byte	W96
	.byte	W16
	.byte		        An2 , v040
	.byte	W04
	.byte		        Bn2 , v052
	.byte	W05
	.byte		        An2 , v060
	.byte	W05
	.byte		        Bn2 , v076
	.byte	W03
	.byte		        An2 , v088
	.byte	W04
	.byte		        Bn2 
	.byte	W04
	.byte		        An2 , v084
	.byte	W05
	.byte		        Bn2 , v080
	.byte	W03
	.byte		        An2 , v076
	.byte	W04
	.byte		        Bn2 , v072
	.byte	W04
	.byte		        An2 , v064
	.byte	W04
	.byte		        Bn2 , v056
	.byte	W04
	.byte		        An2 , v044
	.byte	W05
	.byte		        Bn2 , v032
	.byte	W03
	.byte		        An2 , v024
	.byte	W04
	.byte		        Bn2 , v012
	.byte	W04
	.byte		        An2 , v004
	.byte	W15
	.byte	W96
	.byte	PATT
	 .word	seq_004_4 + 0xC
	.byte	W96
	.byte	W16
	.byte		N06   , Dn3 , v040
	.byte	W04
	.byte		        En3 , v052
	.byte	W05
	.byte		        Dn3 , v060
	.byte	W05
	.byte		        En3 , v076
	.byte	W03
	.byte		        Dn3 , v088
	.byte	W04
	.byte		        En3 
	.byte	W04
	.byte		        Dn3 , v084
	.byte	W05
	.byte		        En3 , v080
	.byte	W03
	.byte		        Dn3 , v076
	.byte	W04
	.byte		        En3 , v072
	.byte	W04
	.byte		        Dn3 , v064
	.byte	W04
	.byte		        En3 , v056
	.byte	W04
	.byte		        Dn3 , v044
	.byte	W05
	.byte		        En3 , v032
	.byte	W03
	.byte		        Dn3 , v024
	.byte	W04
	.byte		        En3 , v012
	.byte	W04
	.byte		        Dn3 , v004
	.byte	W15
	.byte	GOTO
	 .word	seq_004_4 + 0xB
	.byte	FINE

@******************************************************@

	.align	2

seq_004:
	.byte	5	@ NumTrks
	.byte	0	@ NumBlks
	.byte	seq_004_pri	@ Priority
	.byte	seq_004_rev	@ Reverb

	.word	seq_004_grp

	.word	seq_004_0
	.word	seq_004_1
	.word	seq_004_2
	.word	seq_004_3
	.word	seq_004_4

	.end
