@ File generated by m4a2s Song-Module
	.include "MPlayDef.s"

	.equ	seq_107_grp, bank_014
	.equ	seq_107_pri, 50
	.equ	seq_107_rev, 188
	.equ	seq_107_mvl, 127
	.equ	seq_107_key, 0

	.section .rodata
	.global	seq_107
	.align	2

@*********************** Track 01 ***********************@

seq_107_0:
	.byte	KEYSH , seq_107_key+0
	.byte	TEMPO , 240/2
	.byte		VOICE , 127
	.byte	W01
	.byte		VOL   , 61*seq_107_mvl/mxv
	.byte	W01
	.byte		PAN   , c_v+0
	.byte	W06
	.byte	TEMPO , 120/2
	.byte	W16
	.byte	TEMPO , 120/2
	.byte		N03   , Cn4 , v120
	.byte		N16   , Cs5 
	.byte	W16
	.byte		N03   , Cn4 , v100
	.byte	W08
	.byte		        Ds4 , v120
	.byte	W08
	.byte		        As5 , v080
	.byte	W08
	.byte		        Cn4 , v120
	.byte	W08
	.byte		        Fs5 
	.byte	W08
	.byte		        Dn6 , v100
	.byte	W08
	.byte		        Cn4 
	.byte	W08
	.byte		        Ds4 , v120
	.byte	W16
	.byte		        Ds6 , v100
	.byte	W08
	.byte		N03   , Cn4 , v120
	.byte	W16
	.byte		        Cn4 , v100
	.byte	W08
	.byte		        Ds4 , v120
	.byte	W08
	.byte		        As5 , v080
	.byte	W08
	.byte		        Cn4 , v120
	.byte	W08
	.byte		        Fs5 , v100
	.byte	W08
	.byte		        Dn6 
	.byte	W08
	.byte		        Cn4 
	.byte	W08
	.byte		        Ds4 , v120
	.byte	W16
	.byte		        Ds6 , v100
	.byte	W08
	.byte	PEND
	.byte	PATT
	 .word	seq_107_0 + 0x32
	.byte	PATT
	 .word	seq_107_0 + 0x32
	.byte	PATT
	 .word	seq_107_0 + 0x32
	.byte	PATT
	 .word	seq_107_0 + 0x32
	.byte	PATT
	 .word	seq_107_0 + 0x32
	.byte	PATT
	 .word	seq_107_0 + 0x32
	.byte		N03   , Cn4 , v120
	.byte		N16   , Cs5 
	.byte	W16
	.byte		N03   , Cn4 , v100
	.byte	W08
	.byte		        Ds4 , v120
	.byte	W08
	.byte		        As5 , v080
	.byte	W08
	.byte		        Cn4 , v120
	.byte	W08
	.byte		        Fs5 
	.byte	W08
	.byte		        Dn6 , v100
	.byte	W08
	.byte		        Cn4 
	.byte	W08
	.byte		        Ds4 , v120
	.byte	W16
	.byte		        Ds6 , v100
	.byte	W08
	.byte		N03   , Cn4 , v120
	.byte	W08
	.byte		        Ds4 , v080
	.byte	W08
	.byte		        Cn4 , v100
	.byte	W08
	.byte		        Ds4 , v120
	.byte	W08
	.byte		        As5 , v080
	.byte	W08
	.byte		        Cn4 , v120
	.byte	W08
	.byte		        Fs5 , v100
	.byte	W08
	.byte		        Dn6 
	.byte	W08
	.byte		        Cn4 
	.byte	W08
	.byte		        Ds4 , v120
	.byte	W16
	.byte		        Ds6 , v100
	.byte	W08
	.byte	PEND
	.byte	PATT
	 .word	seq_107_0 + 0x32
	.byte	PATT
	 .word	seq_107_0 + 0x8E
	.byte	PATT
	 .word	seq_107_0 + 0x32
	.byte	PATT
	 .word	seq_107_0 + 0x8E
	.byte	PATT
	 .word	seq_107_0 + 0x32
	.byte		N03   , Cn4 , v120
	.byte	W08
	.byte		        Ds4 , v080
	.byte	W08
	.byte		        Cn4 , v100
	.byte	W08
	.byte		        Ds4 , v120
	.byte	W08
	.byte		        As5 , v080
	.byte	W08
	.byte		        Cn4 , v120
	.byte	W08
	.byte		        Fs5 , v100
	.byte	W08
	.byte		        Dn6 
	.byte	W08
	.byte		        Cn4 
	.byte	W08
	.byte		        Ds4 , v120
	.byte	W08
	.byte		        Ds4 , v100
	.byte	W08
	.byte		        Ds6 
	.byte	W08
	.byte		        Cn4 , v120
	.byte	W08
	.byte		        Ds4 , v080
	.byte	W08
	.byte		        Cn4 , v100
	.byte	W08
	.byte		        Ds4 , v120
	.byte	W08
	.byte		        Cn4 
	.byte	W08
	.byte		        As5 , v080
	.byte	W08
	.byte		        Cn4 , v100
	.byte	W08
	.byte		        Dn6 
	.byte	W08
	.byte		        Cn4 
	.byte	W08
	.byte	TEMPO , 116/2
	.byte		N16   , Cs5 , v120
	.byte		N03   , Gs5 
	.byte	W24
	.byte	GOTO
	 .word	seq_107_0 + 0x10
	.byte	FINE

@*********************** Track 02 ***********************@

seq_107_1:
	.byte	KEYSH , seq_107_key+0
	.byte		VOICE , 5
	.byte	W01
	.byte		VOL   , 56*seq_107_mvl/mxv
	.byte	W01
	.byte		PAN   , c_v+0
	.byte	W01
	.byte		LFOS  , 30
	.byte	W01
	.byte		MODT  , mod_tre
	.byte	W01
	.byte		LFODL , 0
	.byte	W19
	.byte		N01   , As3 , v120
	.byte	W01
	.byte		N07   , Bn3 
	.byte	W07
	.byte		N03   , Bn3 , v060
	.byte	W16
	.byte		N08   , En4 , v120
	.byte	W08
	.byte		N03   , En4 , v060
	.byte	W15
	.byte		BEND  , c_v-30
	.byte	W01
	.byte		N08   , Gs4 , v120
	.byte	W01
	.byte		BEND  , c_v-24
	.byte	W01
	.byte		        c_v-16
	.byte	W01
	.byte		        c_v-7
	.byte	W01
	.byte		        c_v+0
	.byte	W04
	.byte		N03   , Gs4 , v060
	.byte	W16
	.byte		N08   , En4 , v120
	.byte	W08
	.byte		N03   , En4 , v060
	.byte	W16
	.byte	PEND
	.byte		N06   , Fs4 , v120
	.byte	W06
	.byte		N03   , Fs4 , v060
	.byte	W10
	.byte		N08   , Fn4 , v120
	.byte	W08
	.byte		N05   , Fs4 
	.byte	W05
	.byte		N03   , Fs4 , v060
	.byte	W11
	.byte		N08   , Cs5 , v120
	.byte	W08
	.byte		N04   , Bn4 , v100
	.byte	W04
	.byte		        Cs5 , v080
	.byte	W04
	.byte		        Bn4 
	.byte	W04
	.byte		        Cs5 
	.byte	W04
	.byte		        Bn4 
	.byte	W04
	.byte		        Cs5 
	.byte	W04
	.byte		N11   , Bn4 
	.byte	W11
	.byte		N06   , Bn4 , v040
	.byte	W13
	.byte		N08   , Bn4 , v120
	.byte	W24
	.byte		        En4 
	.byte	W24
	.byte		N02   , Cn5 
	.byte	W02
	.byte		N22   , Cs5 
	.byte	W18
	.byte		MOD   , 60
	.byte	W03
	.byte		        0
	.byte	W01
	.byte		N16   , Bn4 
	.byte	W16
	.byte		N08   , An4 
	.byte	W08
	.byte		N16   , Gs4 
	.byte	W16
	.byte		N08   , An4 
	.byte	W08
	.byte		N16   , Bn4 
	.byte	W16
	.byte		N05   , Fs4 
	.byte	W05
	.byte		N03   , Gs4 , v100
	.byte	W03
	.byte		N24   , Fs4 , v120
	.byte	W11
	.byte		MOD   , 6
	.byte	W13
	.byte		N16   , Fs4 , v040
	.byte	W23
	.byte		MOD   , 0
	.byte	W01
	.byte	PATT
	 .word	seq_107_1 + 0x14
	.byte		N06   , Fs4 , v120
	.byte	W06
	.byte		N03   , Fs4 , v060
	.byte	W10
	.byte		N08   , Fn4 , v120
	.byte	W08
	.byte		N05   , Fs4 
	.byte	W05
	.byte		N03   , Fs4 , v060
	.byte	W11
	.byte		N08   , Cs5 , v100
	.byte	W08
	.byte		N04   , Bn4 
	.byte	W04
	.byte		        Cs5 , v080
	.byte	W04
	.byte		        Bn4 
	.byte	W04
	.byte		        Cs5 
	.byte	W04
	.byte		        Bn4 
	.byte	W04
	.byte		        Cs5 
	.byte	W04
	.byte		N11   , Bn4 
	.byte	W11
	.byte		N06   , Bn4 , v040
	.byte	W13
	.byte		N08   , Bn4 , v120
	.byte	W24
	.byte		        En4 
	.byte	W24
	.byte		N02   , Gs4 
	.byte	W02
	.byte		N14   , An4 
	.byte	W14
	.byte		N08   , Gs4 
	.byte	W04
	.byte		MOD   , 60
	.byte	W03
	.byte		        0
	.byte	W01
	.byte		N16   , Fs4 
	.byte	W16
	.byte		N08   , En4 
	.byte	W08
	.byte	W24
	.byte		N16   , Ds4 
	.byte	W16
	.byte		N05   , En4 
	.byte	W05
	.byte		N03   , Fs4 , v100
	.byte	W03
	.byte		N24   , En4 , v120
	.byte	W11
	.byte		MOD   , 80
	.byte	W13
	.byte		N16   , En4 , v040
	.byte	W23
	.byte		MOD   , 0
	.byte	W01
	.byte	W96
	.byte		N02   , As4 , v100
	.byte	W02
	.byte		N06   , Bn4 , v120
	.byte	W06
	.byte		N08   , An4 , v100
	.byte	W08
	.byte		        Gs4 
	.byte	W08
	.byte		N16   , An4 , v120
	.byte	W16
	.byte		N08   , Bn4 , v100
	.byte	W08
	.byte		N05   , Gs4 
	.byte	W05
	.byte		N08   , Gs4 , v040
	.byte	W42
	.byte	W01
	.byte	PEND
	.byte	W96
	.byte	W96
	.byte	W96
	.byte	PATT
	 .word	seq_107_1 + 0x10B
	.byte	W96
	.byte	W96
	.byte		N02   , Cs5 , v080
	.byte	W02
	.byte		N04   , Dn5 , v120
	.byte	W04
	.byte		N10   , Dn5 , v040
	.byte	W10
	.byte		N02   , Cs5 , v080
	.byte	W02
	.byte		N04   , Dn5 , v120
	.byte	W04
	.byte		N10   , Dn5 , v040
	.byte	W10
	.byte		N02   , Cs5 , v080
	.byte	W02
	.byte		N04   , Dn5 , v120
	.byte	W04
	.byte		N10   , Dn5 , v040
	.byte	W10
	.byte		N02   , Cs5 , v080
	.byte	W02
	.byte		N04   , Dn5 , v120
	.byte	W04
	.byte		N05   , Dn5 , v040
	.byte	W05
	.byte		        Dn5 , v020
	.byte	W36
	.byte	W01
	.byte	GOTO
	 .word	seq_107_1 + 0x14
	.byte	FINE

@*********************** Track 03 ***********************@

seq_107_2:
	.byte	KEYSH , seq_107_key+0
	.byte		VOICE , 60
	.byte	W01
	.byte		VOL   , 51*seq_107_mvl/mxv
	.byte	W01
	.byte		PAN   , c_v-24
	.byte	W01
	.byte		LFOS  , 5
	.byte	W01
	.byte		MODT  , mod_pan
	.byte	W01
	.byte		LFODL , 0
	.byte	W01
	.byte		MOD   , 20
	.byte	W18
	.byte		N08   , Gs3 , v120
	.byte	W08
	.byte		        Gs3 , v040
	.byte	W08
	.byte		        Gs3 , v020
	.byte	W08
	.byte		        Gs3 , v120
	.byte	W08
	.byte		        Gs3 , v040
	.byte	W08
	.byte		        Gs3 , v020
	.byte	W08
	.byte		        Gs3 , v120
	.byte	W08
	.byte		        Gs3 , v060
	.byte	W08
	.byte		        An3 , v120
	.byte	W08
	.byte		        Gs3 
	.byte	W08
	.byte		        Gs3 , v040
	.byte	W08
	.byte		        Gs3 , v020
	.byte	W08
	.byte	PEND
	.byte		N08   , Ds3 , v120
	.byte	W08
	.byte		        Ds3 , v040
	.byte	W08
	.byte		        Ds3 , v020
	.byte	W08
	.byte		        En3 , v120
	.byte	W08
	.byte		        En3 , v040
	.byte	W08
	.byte		        En3 , v020
	.byte	W08
	.byte		N24   , Fs3 , v100
	.byte	W48
	.byte	PEND
	.byte		N08   , En3 , v120
	.byte	W08
	.byte		        En3 , v040
	.byte	W08
	.byte		        En3 , v020
	.byte	W08
	.byte		        En3 , v120
	.byte	W08
	.byte		        En3 , v040
	.byte	W08
	.byte		        En3 , v020
	.byte	W08
	.byte		        Cs3 , v120
	.byte	W08
	.byte		        Cs3 , v060
	.byte	W08
	.byte		        Ds3 , v120
	.byte	W08
	.byte		        En3 
	.byte	W08
	.byte		        En3 , v040
	.byte	W08
	.byte		        En3 , v020
	.byte	W08
	.byte	PEND
	.byte		        Gs3 , v120
	.byte	W08
	.byte		        Gs3 , v040
	.byte	W08
	.byte		        Fs3 , v120
	.byte	W08
	.byte		        En3 
	.byte	W08
	.byte		        En3 , v040
	.byte	W08
	.byte		N32   , Ds3 , v100
	.byte	W56
	.byte	PATT
	 .word	seq_107_2 + 0x17
	.byte	PATT
	 .word	seq_107_2 + 0x3C
	.byte	PATT
	 .word	seq_107_2 + 0x54
	.byte		N08   , Ds3 , v120
	.byte	W08
	.byte		        Ds3 , v040
	.byte	W08
	.byte		        Ds3 , v020
	.byte	W08
	.byte		        Ds3 , v120
	.byte	W08
	.byte		        Ds3 , v040
	.byte	W08
	.byte		N32   , En3 , v100
	.byte	W56
	.byte	W96
	.byte		N08   , Gs3 , v120
	.byte	W08
	.byte		        Fs3 
	.byte	W08
	.byte		        En3 
	.byte	W08
	.byte		N16   , Fs3 
	.byte	W16
	.byte		N08   , Gs3 
	.byte	W08
	.byte		        En3 
	.byte	W08
	.byte		        En3 , v040
	.byte	W08
	.byte		        En3 , v020
	.byte	W32
	.byte	PEND
	.byte	W96
	.byte	W96
	.byte	W96
	.byte	PATT
	 .word	seq_107_2 + 0xAF
	.byte	W96
	.byte		N08   , Gn4 , v120
	.byte	W08
	.byte		N16   , Gn4 , v040
	.byte	W16
	.byte		N08   , Fs4 , v120
	.byte	W08
	.byte		N16   , Fs4 , v040
	.byte	W16
	.byte		N08   , En4 , v120
	.byte	W08
	.byte		        Fs4 
	.byte	W08
	.byte		        Gn4 
	.byte	W08
	.byte		        An4 
	.byte	W08
	.byte		        Bn4 
	.byte	W08
	.byte		        Cn5 
	.byte	W08
	.byte		N06   , Dn5 
	.byte	W06
	.byte		N10   , Dn5 , v040
	.byte	W10
	.byte		N06   , Dn5 , v120
	.byte	W06
	.byte		N10   , Dn5 , v040
	.byte	W10
	.byte		N06   , Dn5 , v120
	.byte	W06
	.byte		N10   , Dn5 , v040
	.byte	W10
	.byte		N06   , Dn5 , v120
	.byte	W06
	.byte		N10   , Dn5 , v040
	.byte	W42
	.byte	GOTO
	 .word	seq_107_2 + 0x17
	.byte	FINE

@*********************** Track 04 ***********************@

seq_107_3:
	.byte	KEYSH , seq_107_key+0
	.byte	W06
	.byte		VOICE , 12
	.byte	W01
	.byte		VOL   , 61*seq_107_mvl/mxv
	.byte	W01
	.byte		PAN   , c_v+16
	.byte	W01
	.byte		LFOS  , 5
	.byte	W01
	.byte		MODT  , mod_pan
	.byte	W01
	.byte		LFODL , 0
	.byte	W01
	.byte		MOD   , 40
	.byte	W12
	.byte		N08   , Bn2 , v120
	.byte	W08
	.byte		        Bn2 , v040
	.byte	W08
	.byte		        Bn2 , v020
	.byte	W08
	.byte		        Bn2 , v120
	.byte	W08
	.byte		        Bn2 , v040
	.byte	W08
	.byte		        Bn2 , v020
	.byte	W08
	.byte		        Bn2 , v120
	.byte	W08
	.byte		        Bn2 , v040
	.byte	W08
	.byte		        Cs3 , v120
	.byte	W08
	.byte		        Bn2 
	.byte	W08
	.byte		        Bn2 , v040
	.byte	W08
	.byte		        Bn2 , v020
	.byte	W08
	.byte	PEND
	.byte		N08   , Bn2 , v120
	.byte	W08
	.byte		        Bn2 , v040
	.byte	W08
	.byte		        Bn2 , v020
	.byte	W08
	.byte		        Cs3 , v120
	.byte	W08
	.byte		        Cs3 , v040
	.byte	W08
	.byte		        Cs3 , v020
	.byte	W08
	.byte		N24   , Ds3 , v100
	.byte	W48
	.byte	PEND
	.byte		N08   , Bn2 , v120
	.byte	W08
	.byte		        Bn2 , v040
	.byte	W08
	.byte		        Bn2 , v020
	.byte	W08
	.byte		        Bn2 , v120
	.byte	W08
	.byte		        Bn2 , v040
	.byte	W08
	.byte		        Bn2 , v020
	.byte	W08
	.byte		        An2 , v120
	.byte	W08
	.byte		        An2 , v040
	.byte	W08
	.byte		        Bn2 , v120
	.byte	W08
	.byte		        Cs3 
	.byte	W08
	.byte		        Cs3 , v040
	.byte	W08
	.byte		        Cs3 , v020
	.byte	W08
	.byte	PEND
	.byte		        En3 , v120
	.byte	W08
	.byte		        En3 , v040
	.byte	W08
	.byte		        Ds3 , v120
	.byte	W08
	.byte		        Cs3 
	.byte	W08
	.byte		        Cs3 , v040
	.byte	W08
	.byte		N32   , Bn2 , v100
	.byte	W56
	.byte	PATT
	 .word	seq_107_3 + 0x18
	.byte	PATT
	 .word	seq_107_3 + 0x3D
	.byte	PATT
	 .word	seq_107_3 + 0x55
	.byte		N08   , An2 , v120
	.byte	W08
	.byte		        An2 , v040
	.byte	W08
	.byte		        An2 , v020
	.byte	W08
	.byte		        An2 , v120
	.byte	W08
	.byte		        An2 , v040
	.byte	W08
	.byte		N32   , Gs2 , v100
	.byte	W56
	.byte	W96
	.byte		N08   , Bn2 , v120
	.byte	W08
	.byte		        An2 
	.byte	W08
	.byte		        Gs2 
	.byte	W08
	.byte		N16   , An2 
	.byte	W16
	.byte		N08   , Bn2 
	.byte	W08
	.byte		        Gs2 
	.byte	W08
	.byte		        Gs2 , v040
	.byte	W08
	.byte		        Gs2 , v020
	.byte	W32
	.byte	PEND
	.byte	W96
	.byte	W96
	.byte	W96
	.byte	PATT
	 .word	seq_107_3 + 0xB0
	.byte	W96
	.byte		N08   , En3 , v120
	.byte	W08
	.byte		N16   , En3 , v040
	.byte	W16
	.byte		N08   , Dn3 , v120
	.byte	W08
	.byte		N16   , Dn3 , v040
	.byte	W16
	.byte		N08   , Cn3 , v120
	.byte	W08
	.byte		        Dn3 
	.byte	W08
	.byte		        En3 
	.byte	W08
	.byte		        Fs3 
	.byte	W08
	.byte		        Gn3 
	.byte	W08
	.byte		        An3 
	.byte	W08
	.byte		N06   , Fs3 
	.byte	W06
	.byte		N10   , Fs3 , v040
	.byte	W10
	.byte		N06   , Fs3 , v120
	.byte	W06
	.byte		N10   , Fs3 , v040
	.byte	W10
	.byte		N06   , Fs3 , v120
	.byte	W06
	.byte		N10   , Fs3 , v040
	.byte	W10
	.byte		N06   , Fs3 , v120
	.byte	W06
	.byte		N10   , Fs3 , v040
	.byte	W42
	.byte	GOTO
	 .word	seq_107_3 + 0x18
	.byte	FINE

@*********************** Track 05 ***********************@

seq_107_4:
	.byte	KEYSH , seq_107_key+0
	.byte	W06
	.byte		VOICE , 52
	.byte	W01
	.byte		VOL   , 61*seq_107_mvl/mxv
	.byte	W01
	.byte		PAN   , c_v+0
	.byte	W01
	.byte		LFOS  , 20
	.byte	W01
	.byte		MODT  , mod_pan
	.byte	W01
	.byte		LFODL , 0
	.byte	W01
	.byte		MOD   , 40
	.byte	W12
	.byte		N05   , Bn3 , v120
	.byte	W24
	.byte		        En4 
	.byte	W24
	.byte		        Gs4 
	.byte	W24
	.byte		        En4 
	.byte	W24
	.byte	PEND
	.byte	W96
	.byte		        Bn4 
	.byte	W24
	.byte		        En4 
	.byte	W24
	.byte		        Cs5 
	.byte	W24
	.byte		        Bn4 
	.byte	W24
	.byte	W96
	.byte	PATT
	 .word	seq_107_4 + 0x18
	.byte	W96
	.byte		N05   , Bn4 , v120
	.byte	W24
	.byte		        En4 
	.byte	W24
	.byte		        An4 
	.byte	W24
	.byte		        Fs4 
	.byte	W24
	.byte	W96
	.byte	W60
	.byte	W02
	.byte		PAN   , c_v+16
	.byte	W01
	.byte		MOD   , 60
	.byte	W01
	.byte		N05   , En4 , v100
	.byte	W08
	.byte		        En5 
	.byte	W24
	.byte	W60
	.byte	W03
	.byte		PAN   , c_v-14
	.byte	W01
	.byte		N05   , En4 , v100
	.byte	W08
	.byte		        En5 
	.byte	W24
	.byte	PEND
	.byte	W44
	.byte	W03
	.byte		PAN   , c_v+16
	.byte	W17
	.byte		N05   , En4 , v100
	.byte	W08
	.byte		        En5 
	.byte	W24
	.byte	PEND
	.byte	W60
	.byte	W03
	.byte		PAN   , c_v-14
	.byte	W01
	.byte		N05   , Fs4 
	.byte	W08
	.byte		        Fs5 
	.byte	W24
	.byte	W60
	.byte	W02
	.byte		PAN   , c_v+16
	.byte	W02
	.byte		N05   , En4 
	.byte	W08
	.byte		        En5 
	.byte	W24
	.byte	PATT
	 .word	seq_107_4 + 0x4C
	.byte	PATT
	 .word	seq_107_4 + 0x58
	.byte	W60
	.byte	W03
	.byte		PAN   , c_v-14
	.byte	W01
	.byte		N05   , En4 , v100
	.byte	W08
	.byte		        En5 
	.byte	W23
	.byte		PAN   , c_v+0
	.byte	W01
	.byte		N05   , Dn5 , v120
	.byte	W16
	.byte		N05
	.byte	W16
	.byte		N05
	.byte	W16
	.byte		N05
	.byte	W44
	.byte	W03
	.byte		MOD   , 40
	.byte	W01
	.byte	GOTO
	 .word	seq_107_4 + 0x18
	.byte	FINE

@*********************** Track 06 ***********************@

seq_107_5:
	.byte	KEYSH , seq_107_key+0
	.byte	W06
	.byte		VOICE , 51
	.byte	W01
	.byte		VOL   , 61*seq_107_mvl/mxv
	.byte	W01
	.byte		PAN   , c_v+0
	.byte	W01
	.byte		LFOS  , 20
	.byte	W01
	.byte		MODT  , mod_pan
	.byte	W01
	.byte		BENDR , 12
	.byte	W13
	.byte	W92
	.byte	W03
	.byte		MOD   , 60
	.byte	W01
	.byte		N05   , Fs4 , v120
	.byte	W05
	.byte		N11   , Fs4 , v060
	.byte	W11
	.byte		N08   , Fn4 , v120
	.byte	W08
	.byte		        Fs4 
	.byte	W08
	.byte		        Ds4 , v060
	.byte	W08
	.byte		        Cs5 , v100
	.byte	W08
	.byte		N04   , Bn4 , v080
	.byte	W04
	.byte		        Cs5 
	.byte	W04
	.byte		        Bn4 
	.byte	W04
	.byte		        Cs5 
	.byte	W04
	.byte		        Bn4 
	.byte	W04
	.byte		        Cs5 
	.byte	W04
	.byte		N08   , Bn4 , v100
	.byte	W08
	.byte		        Bn4 , v040
	.byte	W16
	.byte	PEND
	.byte	W96
	.byte		N05   , Gs4 , v120
	.byte	W05
	.byte		N11   , Gs4 , v060
	.byte	W11
	.byte		N08   , An4 , v120
	.byte	W08
	.byte		        Bn4 
	.byte	W08
	.byte		        Bn4 , v060
	.byte	W08
	.byte		N04   , Fs4 , v100
	.byte	W04
	.byte		        Gs4 
	.byte	W04
	.byte		        Fs4 , v060
	.byte	W04
	.byte		        Gs4 
	.byte	W04
	.byte		N08   , Fs4 , v120
	.byte	W08
	.byte		        Fs4 , v040
	.byte	W32
	.byte	W96
	.byte	PATT
	 .word	seq_107_5 + 0x1A
	.byte	W96
	.byte		N05   , Bn4 , v080
	.byte	W05
	.byte		N19   , Bn4 , v040
	.byte	W19
	.byte		N08   , Ds4 , v120
	.byte	W08
	.byte		        Ds4 , v060
	.byte	W08
	.byte		N04   , En4 , v100
	.byte	W04
	.byte		        Fs4 
	.byte	W04
	.byte		        En4 , v060
	.byte	W04
	.byte		        Fs4 
	.byte	W04
	.byte		N08   , En4 , v120
	.byte	W08
	.byte		        En4 , v040
	.byte	W32
	.byte	W60
	.byte	W01
	.byte		PAN   , c_v+16
	.byte	W01
	.byte		VOL   , 35*seq_107_mvl/mxv
	.byte	W01
	.byte		MOD   , 120
	.byte	W01
	.byte		N02   , En4 , v100
	.byte	W02
	.byte		        En4 , v060
	.byte	W02
	.byte		        En5 , v100
	.byte	W02
	.byte		        En5 , v060
	.byte	W02
	.byte		        En6 , v100
	.byte	W02
	.byte		        En6 , v060
	.byte	W02
	.byte		        En4 , v020
	.byte	W02
	.byte		N02
	.byte	W02
	.byte		        En5 
	.byte	W02
	.byte		N02
	.byte	W02
	.byte		        En6 
	.byte	W02
	.byte		N02
	.byte	W02
	.byte		        En4 
	.byte	W02
	.byte		N02
	.byte	W02
	.byte		        En5 
	.byte	W02
	.byte		N02
	.byte	W02
	.byte		N02   , En6 , v020
	.byte	W02
	.byte		N02
	.byte	W60
	.byte	W01
	.byte		PAN   , c_v-14
	.byte	W01
	.byte		N02   , En4 , v100
	.byte	W02
	.byte		        En4 , v060
	.byte	W02
	.byte		        En5 , v100
	.byte	W02
	.byte		        En5 , v060
	.byte	W02
	.byte		        En6 , v100
	.byte	W02
	.byte		        En6 , v060
	.byte	W02
	.byte		        En4 , v020
	.byte	W02
	.byte		N02
	.byte	W02
	.byte		        En5 
	.byte	W02
	.byte		N02
	.byte	W02
	.byte		        En6 
	.byte	W02
	.byte		N02
	.byte	W02
	.byte		        En4 
	.byte	W02
	.byte		N02
	.byte	W02
	.byte		        En5 
	.byte	W02
	.byte		N02
	.byte	W02
	.byte	PEND
	.byte		N02   , En6 , v020
	.byte	W02
	.byte		N02
	.byte	W60
	.byte	W01
	.byte		PAN   , c_v+16
	.byte	W01
	.byte		N02   , En4 , v100
	.byte	W02
	.byte		        En4 , v060
	.byte	W02
	.byte		        En5 , v100
	.byte	W02
	.byte		        En5 , v060
	.byte	W02
	.byte		        En6 , v100
	.byte	W02
	.byte		        En6 , v060
	.byte	W02
	.byte		        En4 , v020
	.byte	W02
	.byte		N02
	.byte	W02
	.byte		        En5 
	.byte	W02
	.byte		N02
	.byte	W02
	.byte		        En6 
	.byte	W02
	.byte		N02
	.byte	W02
	.byte		        En4 
	.byte	W02
	.byte		N02
	.byte	W02
	.byte		        En5 
	.byte	W02
	.byte		N02
	.byte	W02
	.byte	PEND
	.byte		        En6 
	.byte	W02
	.byte		N02
	.byte	W60
	.byte	W01
	.byte		PAN   , c_v-14
	.byte	W01
	.byte		N02   , Fs4 , v100
	.byte	W02
	.byte		        Fs4 , v060
	.byte	W02
	.byte		        Fs5 , v100
	.byte	W02
	.byte		        Fs5 , v060
	.byte	W02
	.byte		        Fs6 , v100
	.byte	W02
	.byte		        Fs6 , v060
	.byte	W02
	.byte		        Fs4 , v020
	.byte	W02
	.byte		N02
	.byte	W02
	.byte		        Fs5 
	.byte	W02
	.byte		N02
	.byte	W02
	.byte		        Fs6 
	.byte	W02
	.byte		N02
	.byte	W02
	.byte		        Fs4 
	.byte	W02
	.byte		N02
	.byte	W02
	.byte		        Fs5 
	.byte	W02
	.byte		N02
	.byte	W02
	.byte		        Fs6 
	.byte	W02
	.byte		N02
	.byte	W60
	.byte	W01
	.byte		PAN   , c_v+16
	.byte	W01
	.byte		N02   , En4 , v100
	.byte	W02
	.byte		        En4 , v060
	.byte	W02
	.byte		        En5 , v100
	.byte	W02
	.byte		        En5 , v060
	.byte	W02
	.byte		        En6 , v100
	.byte	W02
	.byte		        En6 , v060
	.byte	W02
	.byte		        En4 , v020
	.byte	W02
	.byte		N02
	.byte	W02
	.byte		        En5 
	.byte	W02
	.byte		N02
	.byte	W02
	.byte		        En6 
	.byte	W02
	.byte		N02
	.byte	W02
	.byte		        En4 
	.byte	W02
	.byte		N02
	.byte	W02
	.byte		        En5 
	.byte	W02
	.byte		N02
	.byte	W02
	.byte	PATT
	 .word	seq_107_5 + 0xC3
	.byte	PATT
	 .word	seq_107_5 + 0xF6
	.byte		N02   , En6 , v020
	.byte	W02
	.byte		N02
	.byte	W60
	.byte	W01
	.byte		PAN   , c_v-14
	.byte	W01
	.byte		N02   , En4 , v100
	.byte	W02
	.byte		        En4 , v060
	.byte	W02
	.byte		        En5 , v100
	.byte	W02
	.byte		        En5 , v060
	.byte	W02
	.byte		        En6 , v100
	.byte	W02
	.byte		        En6 , v060
	.byte	W02
	.byte		        En4 , v020
	.byte	W02
	.byte		N02
	.byte	W02
	.byte		        En5 
	.byte	W02
	.byte		N02
	.byte	W02
	.byte		        En6 
	.byte	W02
	.byte		N02
	.byte	W02
	.byte		        En4 
	.byte	W02
	.byte		N02
	.byte	W02
	.byte		        En5 
	.byte	W04
	.byte	W92
	.byte	W02
	.byte		PAN   , c_v+0
	.byte	W01
	.byte		VOL   , 61*seq_107_mvl/mxv
	.byte	W01
	.byte	GOTO
	 .word	seq_107_5 + 0x15
	.byte	FINE

@*********************** Track 07 ***********************@

seq_107_6:
	.byte	KEYSH , seq_107_key+0
	.byte	W12
	.byte		VOICE , 16
	.byte	W01
	.byte		VOL   , 56*seq_107_mvl/mxv
	.byte	W01
	.byte		PAN   , c_v+0
	.byte	W01
	.byte		LFOS  , 30
	.byte	W01
	.byte		MODT  , mod_pan
	.byte	W01
	.byte		LFODL , 0
	.byte	W07
	.byte	W96
	.byte	W68
	.byte	W02
	.byte		MOD   , 80
	.byte	W01
	.byte		BEND  , c_v-64
	.byte	W01
	.byte		N16   , Ds4 , v120
	.byte		N16   , Bn4 
	.byte	W01
	.byte		BEND  , c_v-63
	.byte	W01
	.byte		        c_v-55
	.byte	W01
	.byte		        c_v-40
	.byte	W01
	.byte		        c_v-36
	.byte	W01
	.byte		        c_v-24
	.byte	W01
	.byte		        c_v-16
	.byte	W01
	.byte		        c_v-8
	.byte	W01
	.byte		        c_v+0
	.byte	W16
	.byte	W96
	.byte	W68
	.byte	W03
	.byte		BEND  , c_v-64
	.byte	W01
	.byte		N16   , Ds4 , v120
	.byte		N16   , Bn4 
	.byte	W01
	.byte		BEND  , c_v-63
	.byte	W01
	.byte		        c_v-55
	.byte	W01
	.byte		        c_v-40
	.byte	W01
	.byte		        c_v-36
	.byte	W01
	.byte		        c_v-24
	.byte	W01
	.byte		        c_v-16
	.byte	W01
	.byte		        c_v-8
	.byte	W01
	.byte		        c_v+0
	.byte	W16
	.byte	PEND
	.byte	W96
	.byte	PATT
	 .word	seq_107_6 + 0x36
	.byte	W96
	.byte	W68
	.byte	W03
	.byte		BEND  , c_v-64
	.byte	W01
	.byte		N16   , Bn3 , v120
	.byte		N16   , En4 
	.byte	W01
	.byte		BEND  , c_v-63
	.byte	W01
	.byte		        c_v-55
	.byte	W01
	.byte		        c_v-40
	.byte	W01
	.byte		        c_v-36
	.byte	W01
	.byte		        c_v-24
	.byte	W01
	.byte		        c_v-16
	.byte	W01
	.byte		        c_v-8
	.byte	W01
	.byte		        c_v+0
	.byte	W15
	.byte		        c_v-32
	.byte	W01
	.byte		N08   , Bn3 , v120
	.byte	W01
	.byte		BEND  , c_v-16
	.byte	W01
	.byte		        c_v-8
	.byte	W01
	.byte		        c_v+0
	.byte	W05
	.byte		N08   , An3 
	.byte	W08
	.byte		        Gs3 
	.byte	W08
	.byte		N16   , An3 
	.byte	W16
	.byte		N08   , Bn3 
	.byte	W08
	.byte		N06   , Gs3 
	.byte	W06
	.byte		N08   , Gs3 , v040
	.byte	W42
	.byte	PEND
	.byte	W92
	.byte	W03
	.byte		BEND  , c_v-32
	.byte	W01
	.byte	PEND
	.byte	PATT
	 .word	seq_107_6 + 0x78
	.byte	PATT
	 .word	seq_107_6 + 0x96
	.byte	PATT
	 .word	seq_107_6 + 0x78
	.byte	PATT
	 .word	seq_107_6 + 0x96
	.byte	PATT
	 .word	seq_107_6 + 0x78
	.byte	W96
	.byte	W68
	.byte	W03
	.byte		BEND  , c_v-64
	.byte	W01
	.byte		N16   , Fs4 , v120
	.byte		N16   , Dn5 
	.byte	W01
	.byte		BEND  , c_v-61
	.byte	W01
	.byte		        c_v-57
	.byte	W01
	.byte		        c_v-40
	.byte	W01
	.byte		        c_v-34
	.byte	W01
	.byte		        c_v-24
	.byte	W01
	.byte		        c_v-17
	.byte	W01
	.byte		        c_v-10
	.byte	W01
	.byte		        c_v+0
	.byte	W16
	.byte	GOTO
	 .word	seq_107_6 + 0x15
	.byte	FINE

@*********************** Track 08 ***********************@

seq_107_7:
	.byte	KEYSH , seq_107_key+0
	.byte	W12
	.byte		VOICE , 101
	.byte	W01
	.byte		VOL   , 65*seq_107_mvl/mxv
	.byte	W01
	.byte		PAN   , c_v+0
	.byte	W01
	.byte		LFOS  , 20
	.byte	W01
	.byte		MODT  , mod_vib
	.byte	W01
	.byte		BENDR , 12
	.byte	W01
	.byte		LFODL , 20
	.byte	W01
	.byte		MOD   , 10
	.byte	W05
	.byte		N10   , En1 , v120
	.byte	W10
	.byte		N03   , En1 , v060
	.byte	W13
	.byte		BEND  , c_v-11
	.byte	W01
	.byte		N09   , En2 , v120
	.byte	W01
	.byte		BEND  , c_v-10
	.byte	W01
	.byte		        c_v-8
	.byte	W01
	.byte		        c_v-5
	.byte	W01
	.byte		        c_v-3
	.byte	W01
	.byte		        c_v+0
	.byte	W04
	.byte		N03   , En2 , v060
	.byte	W15
	.byte		N10   , En1 , v120
	.byte	W10
	.byte		N03   , En1 , v060
	.byte	W13
	.byte		BEND  , c_v-11
	.byte	W01
	.byte		N09   , En2 , v120
	.byte	W01
	.byte		BEND  , c_v-10
	.byte	W01
	.byte		        c_v-8
	.byte	W01
	.byte		        c_v-5
	.byte	W01
	.byte		        c_v-3
	.byte	W01
	.byte		        c_v+0
	.byte	W04
	.byte		N03   , En2 , v060
	.byte	W09
	.byte		N02   , En2 , v120
	.byte	W02
	.byte		N04   , En2 , v060
	.byte	W04
	.byte	PEND
	.byte		N08   , Bn1 , v120
	.byte	W08
	.byte		N03   , Bn1 , v060
	.byte	W16
	.byte		N07   , Bn1 , v120
	.byte	W07
	.byte		N03   , Bn1 , v060
	.byte	W10
	.byte		N05   , As1 , v120
	.byte	W05
	.byte		N02   , As1 , v060
	.byte	W02
	.byte		N24   , Bn1 , v120
	.byte	W24
	.byte		N05   , Bn1 , v060
	.byte	W24
	.byte	PEND
	.byte		N08   , Gs1 , v120
	.byte	W08
	.byte		N03   , Gs1 , v060
	.byte	W16
	.byte		N24   , Gs1 , v120
	.byte	W24
	.byte		        An1 
	.byte	W22
	.byte		BEND  , c_v-4
	.byte	W01
	.byte		        c_v-10
	.byte	W01
	.byte		        c_v-12
	.byte	W01
	.byte		        c_v-15
	.byte	W01
	.byte		        c_v-19
	.byte	W01
	.byte		N03   , An1 , v060
	.byte	W01
	.byte		BEND  , c_v-26
	.byte	W19
	.byte		        c_v+0
	.byte	W01
	.byte		N16   , Fs1 , v120
	.byte	W16
	.byte		N08   , Gs1 
	.byte	W08
	.byte		N16   , An1 
	.byte	W15
	.byte		BEND  , c_v-24
	.byte	W01
	.byte		N07   , Bn1 
	.byte	W01
	.byte		BEND  , c_v-20
	.byte	W01
	.byte		        c_v-15
	.byte	W01
	.byte		        c_v-10
	.byte	W01
	.byte		        c_v+0
	.byte	W04
	.byte		N03   , Bn1 , v060
	.byte	W16
	.byte		N08   , An1 , v120
	.byte	W08
	.byte		N16   , Gs1 
	.byte	W16
	.byte		N08   , Fs1 
	.byte	W08
	.byte	PATT
	 .word	seq_107_7 + 0x1B
	.byte	PATT
	 .word	seq_107_7 + 0x60
	.byte		N08   , Gs1 , v120
	.byte	W08
	.byte		N03   , Gs1 , v060
	.byte	W16
	.byte		N24   , Gs1 , v120
	.byte	W24
	.byte		        An1 
	.byte	W22
	.byte		BEND  , c_v-4
	.byte	W01
	.byte		        c_v-10
	.byte	W01
	.byte		        c_v-12
	.byte	W01
	.byte		        c_v-16
	.byte	W01
	.byte		        c_v-20
	.byte	W01
	.byte		N03   , An1 , v060
	.byte	W01
	.byte		BEND  , c_v-26
	.byte	W19
	.byte		        c_v+0
	.byte	W01
	.byte		N08   , Bn1 , v120
	.byte	W08
	.byte		N03   , Bn1 , v060
	.byte	W15
	.byte		BEND  , c_v-13
	.byte	W01
	.byte		N16   , Bn1 , v120
	.byte	W01
	.byte		BEND  , c_v-11
	.byte	W01
	.byte		        c_v-4
	.byte	W01
	.byte		        c_v+0
	.byte	W13
	.byte		N32   , En1 
	.byte	W24
	.byte	W01
	.byte		BEND  , c_v-4
	.byte	W01
	.byte		        c_v-8
	.byte	W01
	.byte		        c_v-12
	.byte	W01
	.byte		        c_v-20
	.byte	W01
	.byte		        c_v-32
	.byte	W01
	.byte		        c_v-51
	.byte	W01
	.byte		        c_v-64
	.byte	W01
	.byte		N03   , En1 , v060
	.byte	W23
	.byte		BEND  , c_v+0
	.byte	W01
	.byte		N24   , En2 , v120
	.byte	W16
	.byte		BEND  , c_v-2
	.byte	W01
	.byte		        c_v-4
	.byte	W01
	.byte		        c_v-10
	.byte	W01
	.byte		        c_v-15
	.byte	W01
	.byte		        c_v-20
	.byte	W01
	.byte		        c_v-25
	.byte	W01
	.byte		        c_v-32
	.byte	W01
	.byte		        c_v-38
	.byte	W01
	.byte		        c_v-47
	.byte	W01
	.byte		        c_v-55
	.byte	W01
	.byte		        c_v-59
	.byte	W01
	.byte		N03   , En2 , v060
	.byte	W01
	.byte		BEND  , c_v-63
	.byte	W01
	.byte		        c_v-64
	.byte	W04
	.byte		        c_v+0
	.byte	W15
	.byte		N04   , En1 , v120
	.byte	W04
	.byte		N03   , En1 , v060
	.byte	W12
	.byte		N08   , En1 , v120
	.byte	W08
	.byte		N16   , En2 
	.byte	W16
	.byte		N08   , En1 
	.byte	W08
	.byte	PEND
	.byte		N24   , Dn2 , v120
	.byte	W16
	.byte		BEND  , c_v-2
	.byte	W01
	.byte		        c_v-4
	.byte	W01
	.byte		        c_v-10
	.byte	W01
	.byte		        c_v-15
	.byte	W01
	.byte		        c_v-20
	.byte	W01
	.byte		        c_v-25
	.byte	W01
	.byte		        c_v-32
	.byte	W01
	.byte		        c_v-38
	.byte	W01
	.byte		        c_v-47
	.byte	W01
	.byte		        c_v-55
	.byte	W01
	.byte		        c_v-59
	.byte	W01
	.byte		N03   , Dn2 , v060
	.byte	W01
	.byte		BEND  , c_v-63
	.byte	W01
	.byte		        c_v-64
	.byte	W04
	.byte		        c_v+0
	.byte	W15
	.byte		N04   , Dn1 , v120
	.byte	W04
	.byte		N03   , Dn1 , v060
	.byte	W12
	.byte		N08   , Dn1 , v120
	.byte	W08
	.byte		N16   , Dn2 
	.byte	W16
	.byte		N08   , Dn1 
	.byte	W08
	.byte	PEND
	.byte		N24   , Cs2 , v120
	.byte	W16
	.byte		BEND  , c_v-2
	.byte	W01
	.byte		        c_v-4
	.byte	W01
	.byte		        c_v-10
	.byte	W01
	.byte		        c_v-15
	.byte	W01
	.byte		        c_v-20
	.byte	W01
	.byte		        c_v-25
	.byte	W01
	.byte		        c_v-32
	.byte	W01
	.byte		        c_v-38
	.byte	W01
	.byte		        c_v-47
	.byte	W01
	.byte		        c_v-55
	.byte	W01
	.byte		        c_v-59
	.byte	W01
	.byte		N03   , Cs2 , v060
	.byte	W01
	.byte		BEND  , c_v-63
	.byte	W01
	.byte		        c_v-64
	.byte	W04
	.byte		        c_v+0
	.byte	W15
	.byte		N04   , Cs1 , v120
	.byte	W04
	.byte		N03   , Cs1 , v060
	.byte	W12
	.byte		N08   , Cs1 , v120
	.byte	W08
	.byte		N16   , Cs2 
	.byte	W16
	.byte		N08   , Cs1 
	.byte	W08
	.byte	PEND
	.byte		N24   , Cn2 
	.byte	W16
	.byte		BEND  , c_v-2
	.byte	W01
	.byte		        c_v-4
	.byte	W01
	.byte		        c_v-10
	.byte	W01
	.byte		        c_v-15
	.byte	W01
	.byte		        c_v-20
	.byte	W01
	.byte		        c_v-25
	.byte	W01
	.byte		        c_v-32
	.byte	W01
	.byte		        c_v-38
	.byte	W01
	.byte		        c_v-47
	.byte	W01
	.byte		        c_v-55
	.byte	W01
	.byte		        c_v-59
	.byte	W01
	.byte		N03   , Cn2 , v060
	.byte	W01
	.byte		BEND  , c_v-63
	.byte	W01
	.byte		        c_v-64
	.byte	W04
	.byte		        c_v+0
	.byte	W15
	.byte		N08   , Dn2 , v120
	.byte	W08
	.byte		        An1 
	.byte	W08
	.byte		        En2 
	.byte	W08
	.byte		N16   , Fs2 
	.byte	W13
	.byte		BEND  , c_v-4
	.byte	W01
	.byte		        c_v-8
	.byte	W01
	.byte		        c_v+0
	.byte	W01
	.byte		N08   , Dn2 
	.byte	W08
	.byte	PATT
	 .word	seq_107_7 + 0x126
	.byte	PATT
	 .word	seq_107_7 + 0x15F
	.byte	PATT
	 .word	seq_107_7 + 0x198
	.byte		N24   , Cn2 , v120
	.byte	W16
	.byte		BEND  , c_v-2
	.byte	W01
	.byte		        c_v-4
	.byte	W01
	.byte		        c_v-10
	.byte	W01
	.byte		        c_v-15
	.byte	W01
	.byte		        c_v-20
	.byte	W01
	.byte		        c_v-25
	.byte	W01
	.byte		        c_v-32
	.byte	W01
	.byte		        c_v-38
	.byte	W01
	.byte		        c_v-47
	.byte	W01
	.byte		        c_v-55
	.byte	W01
	.byte		        c_v-59
	.byte	W01
	.byte		N03   , Cn2 , v060
	.byte	W01
	.byte		BEND  , c_v-63
	.byte	W01
	.byte		        c_v-64
	.byte	W04
	.byte		        c_v+0
	.byte	W15
	.byte		N08   , An1 , v120
	.byte	W08
	.byte		        Dn2 
	.byte	W08
	.byte		        En2 
	.byte	W08
	.byte		N24   , Fs2 
	.byte	W08
	.byte		BEND  , c_v-11
	.byte	W08
	.byte		        c_v-22
	.byte	W07
	.byte		        c_v+0
	.byte	W01
	.byte		N07   , Dn2 
	.byte	W07
	.byte		N09   , Dn2 , v040
	.byte	W09
	.byte		N07   , Dn2 , v120
	.byte	W07
	.byte		N09   , Dn2 , v040
	.byte	W09
	.byte		N07   , Dn2 , v120
	.byte	W07
	.byte		N09   , Dn2 , v040
	.byte	W09
	.byte		N07   , Dn2 , v120
	.byte	W07
	.byte		N04   , Dn2 , v040
	.byte	W09
	.byte		N06   , Dn2 , v120
	.byte	W01
	.byte		BEND  , c_v+7
	.byte	W01
	.byte		        c_v+19
	.byte	W01
	.byte		        c_v+39
	.byte	W01
	.byte		        c_v+63
	.byte	W04
	.byte		N24
	.byte	W02
	.byte		BEND  , c_v+39
	.byte	W01
	.byte		        c_v+19
	.byte	W01
	.byte		        c_v+7
	.byte	W01
	.byte		        c_v+0
	.byte	W03
	.byte		        c_v-8
	.byte	W01
	.byte		        c_v-12
	.byte	W01
	.byte		        c_v-20
	.byte	W01
	.byte		        c_v-24
	.byte	W01
	.byte		        c_v-28
	.byte	W01
	.byte		        c_v-32
	.byte	W01
	.byte		        c_v-36
	.byte	W01
	.byte		        c_v-40
	.byte	W01
	.byte		        c_v-43
	.byte	W01
	.byte		        c_v-47
	.byte	W01
	.byte		        c_v-51
	.byte	W01
	.byte		        c_v-55
	.byte	W01
	.byte		        c_v-59
	.byte	W01
	.byte		        c_v-64
	.byte	W02
	.byte		        c_v+0
	.byte	W01
	.byte	GOTO
	 .word	seq_107_7 + 0x1B
	.byte	FINE

@*********************** Track 09 ***********************@

seq_107_8:
	.byte	KEYSH , seq_107_key+0
	.byte	W12
	.byte		VOICE , 74
	.byte	W01
	.byte		VOL   , 40*seq_107_mvl/mxv
	.byte	W01
	.byte		PAN   , c_v+0
	.byte	W01
	.byte		LFOS  , 5
	.byte	W01
	.byte		MODT  , mod_pan
	.byte	W01
	.byte		LFODL , 0
	.byte	W07
	.byte		N08   , Bn3 , v120
	.byte	W08
	.byte		        Bn3 , v060
	.byte	W07
	.byte		VOICE , 76
	.byte	W01
	.byte		N05   , Gs3 , v120
	.byte	W05
	.byte		N03   , Gs3 , v060
	.byte	W02
	.byte		VOICE , 74
	.byte	W01
	.byte		N08   , En4 , v120
	.byte	W08
	.byte		        En4 , v060
	.byte	W07
	.byte		VOICE , 76
	.byte	W01
	.byte		N05   , Bn3 , v120
	.byte	W05
	.byte		N03   , Bn3 , v060
	.byte	W02
	.byte		VOICE , 74
	.byte	W01
	.byte		N08   , Gs4 , v120
	.byte	W08
	.byte		        Gs4 , v060
	.byte	W07
	.byte		VOICE , 76
	.byte	W01
	.byte		N05   , En4 , v120
	.byte	W05
	.byte		N03   , En4 , v060
	.byte	W02
	.byte		VOICE , 74
	.byte	W01
	.byte		N08   , En4 , v120
	.byte	W08
	.byte		        En4 , v060
	.byte	W07
	.byte		VOICE , 76
	.byte	W01
	.byte		N05   , Bn3 , v120
	.byte	W05
	.byte		N03   , Bn3 , v060
	.byte	W02
	.byte		VOICE , 74
	.byte	W01
	.byte	PEND
	.byte		N05   , Fs4 , v120
	.byte	W05
	.byte		N11   , Fs4 , v060
	.byte	W11
	.byte		N08   , Fn4 , v120
	.byte	W08
	.byte		        Fs4 
	.byte	W08
	.byte		        Ds4 , v060
	.byte	W08
	.byte		        Cs5 , v120
	.byte	W08
	.byte		N03   , Bn4 
	.byte	W03
	.byte		N01   , Bn3 , v060
	.byte	W01
	.byte		N03   , Cs5 , v120
	.byte	W03
	.byte		N01   , Cs4 , v060
	.byte	W01
	.byte		N03   , Bn4 , v120
	.byte	W03
	.byte		N01   , Bn3 , v060
	.byte	W01
	.byte		N03   , Cs5 , v120
	.byte	W03
	.byte		N01   , Cs4 , v060
	.byte	W01
	.byte		N03   , Bn4 , v120
	.byte	W03
	.byte		N01   , Bn3 , v060
	.byte	W01
	.byte		N03   , Cs5 , v120
	.byte	W03
	.byte		N01   , Cs4 , v060
	.byte	W01
	.byte		N08   , Bn4 , v120
	.byte	W08
	.byte		        Bn4 , v060
	.byte	W15
	.byte		VOICE , 74
	.byte	W01
	.byte	PEND
	.byte		N08   , Bn4 , v120
	.byte	W08
	.byte		        Bn4 , v060
	.byte	W07
	.byte		VOICE , 76
	.byte	W01
	.byte		N05   , Bn3 , v120
	.byte	W05
	.byte		N03   , Bn3 , v060
	.byte	W02
	.byte		VOICE , 74
	.byte	W01
	.byte		N08   , En4 , v120
	.byte	W08
	.byte		        En4 , v060
	.byte	W07
	.byte		VOICE , 76
	.byte	W01
	.byte		N05   , Bn3 , v120
	.byte	W05
	.byte		N03   , Bn3 , v060
	.byte	W02
	.byte		VOICE , 74
	.byte	W01
	.byte		N08   , Cs5 , v120
	.byte	W08
	.byte		        Cs5 , v060
	.byte	W07
	.byte		VOICE , 76
	.byte	W01
	.byte		N05   , Bn3 , v120
	.byte	W05
	.byte		N03   , Bn3 , v060
	.byte	W02
	.byte		VOICE , 74
	.byte	W01
	.byte		N08   , Bn4 , v120
	.byte	W08
	.byte		        Bn4 , v060
	.byte	W07
	.byte		VOICE , 76
	.byte	W01
	.byte		N05   , An4 , v120
	.byte	W05
	.byte		N03   , An4 , v060
	.byte	W02
	.byte		VOICE , 74
	.byte	W01
	.byte		N08   , Gs4 , v120
	.byte	W08
	.byte		        Gs4 , v060
	.byte	W08
	.byte		        An4 , v120
	.byte	W08
	.byte		        Bn4 
	.byte	W08
	.byte		        Gs4 , v060
	.byte	W08
	.byte		N03   , Fs4 , v120
	.byte	W03
	.byte		N01   , Fs3 , v060
	.byte	W01
	.byte		N03   , Gs4 , v120
	.byte	W03
	.byte		N01   , Gs3 , v060
	.byte	W01
	.byte		N03   , Fs4 , v080
	.byte	W03
	.byte		N01   , Fs3 , v040
	.byte	W01
	.byte		N03   , Gs4 , v080
	.byte	W03
	.byte		N01   , Gs3 , v040
	.byte	W01
	.byte		N16   , Fs4 , v120
	.byte	W16
	.byte		N08   , Fs4 , v060
	.byte	W08
	.byte		        Fs4 , v040
	.byte	W16
	.byte	PATT
	 .word	seq_107_8 + 0x15
	.byte	PATT
	 .word	seq_107_8 + 0x6A
	.byte		N08   , Bn4 , v120
	.byte	W08
	.byte		        Bn4 , v060
	.byte	W07
	.byte		VOICE , 76
	.byte	W01
	.byte		N05   , Bn3 , v120
	.byte	W05
	.byte		N03   , Bn3 , v060
	.byte	W02
	.byte		VOICE , 74
	.byte	W01
	.byte		N08   , En4 , v120
	.byte	W08
	.byte		        En4 , v060
	.byte	W07
	.byte		VOICE , 76
	.byte	W01
	.byte		N05   , Bn3 , v120
	.byte	W05
	.byte		N03   , Bn3 , v060
	.byte	W02
	.byte		VOICE , 74
	.byte	W01
	.byte		N08   , An4 , v120
	.byte	W08
	.byte		        An4 , v060
	.byte	W07
	.byte		VOICE , 76
	.byte	W01
	.byte		N05   , Gs4 , v120
	.byte	W05
	.byte		N03   , Gs4 , v060
	.byte	W02
	.byte		VOICE , 74
	.byte	W01
	.byte		N08   , Fs4 , v120
	.byte	W08
	.byte		        Fs4 , v060
	.byte	W07
	.byte		VOICE , 76
	.byte	W01
	.byte		N05   , En4 , v120
	.byte	W05
	.byte		N03   , En4 , v060
	.byte	W02
	.byte		VOICE , 74
	.byte	W01
	.byte		N08   , Ds5 , v120
	.byte	W08
	.byte		        Ds5 , v060
	.byte	W08
	.byte		        An4 , v100
	.byte	W08
	.byte		        Ds4 , v120
	.byte	W08
	.byte		        Ds4 , v060
	.byte	W08
	.byte		N03   , En4 , v120
	.byte	W03
	.byte		N01   , En3 , v060
	.byte	W01
	.byte		N03   , Fs4 , v120
	.byte	W03
	.byte		N01   , Fs3 , v060
	.byte	W01
	.byte		N03   , En4 , v080
	.byte	W03
	.byte		N01   , En3 , v040
	.byte	W01
	.byte		N03   , Fs4 , v080
	.byte	W03
	.byte		N01   , Fs3 , v040
	.byte	W01
	.byte		N16   , En4 , v120
	.byte	W16
	.byte		N08   , En4 , v060
	.byte	W08
	.byte		        En4 , v040
	.byte	W15
	.byte		MOD   , 80
	.byte	W01
	.byte		N06   , Bn4 , v120
	.byte	W06
	.byte		N02   , Bn4 , v060
	.byte	W02
	.byte		N06   , An4 , v120
	.byte	W06
	.byte		N02   , An4 , v060
	.byte	W02
	.byte		N06   , Gs4 , v120
	.byte	W06
	.byte		N02   , Gs4 , v060
	.byte	W02
	.byte		N06   , An4 , v120
	.byte	W06
	.byte		N10   , An4 , v060
	.byte	W10
	.byte		N06   , Bn4 , v120
	.byte	W06
	.byte		N02   , Bn4 , v060
	.byte	W02
	.byte		N06   , Gs4 , v120
	.byte	W06
	.byte		N10   , Gs4 , v060
	.byte	W10
	.byte		N08   , Gs4 , v040
	.byte	W32
	.byte	PEND
	.byte	W64
	.byte		N06   , Gs4 , v120
	.byte	W06
	.byte		N02   , Gs4 , v060
	.byte	W02
	.byte		N06   , En4 , v120
	.byte	W06
	.byte		N02   , En4 , v060
	.byte	W02
	.byte		N06   , Bn4 , v120
	.byte	W06
	.byte		N02   , Bn4 , v060
	.byte	W02
	.byte		N06   , En5 , v120
	.byte	W06
	.byte		N02   , En5 , v060
	.byte	W01
	.byte		VOICE , 76
	.byte	W01
	.byte	PEND
	.byte	PATT
	 .word	seq_107_8 + 0x1E2
	.byte	W48
	.byte		N06   , Bn3 , v120
	.byte	W06
	.byte		N02   , Bn3 , v060
	.byte	W02
	.byte		N06   , An3 , v120
	.byte	W06
	.byte		N02   , An3 , v060
	.byte	W02
	.byte		N06   , Gn3 , v120
	.byte	W06
	.byte		N02   , Gn3 , v060
	.byte	W02
	.byte		N16   , Fs3 , v120
	.byte	W16
	.byte		N08   , Fs3 , v060
	.byte	W07
	.byte		VOICE , 74
	.byte	W01
	.byte	PATT
	 .word	seq_107_8 + 0x1E2
	.byte	PATT
	 .word	seq_107_8 + 0x217
	.byte		N06   , Bn4 , v120
	.byte	W06
	.byte		N02   , Bn4 , v060
	.byte	W02
	.byte		N06   , An4 , v120
	.byte	W06
	.byte		N02   , An4 , v060
	.byte	W02
	.byte		N06   , Gs4 , v120
	.byte	W06
	.byte		N02   , Gs4 , v060
	.byte	W02
	.byte		N06   , An4 , v120
	.byte	W06
	.byte		N10   , An4 , v060
	.byte	W10
	.byte		N06   , Bn4 , v120
	.byte	W06
	.byte		N02   , Bn4 , v060
	.byte	W02
	.byte		N06   , Gs4 , v120
	.byte	W06
	.byte		N10   , Gs4 , v060
	.byte	W10
	.byte		N08   , Gs4 , v040
	.byte	W30
	.byte	W01
	.byte		VOICE , 74
	.byte	W01
	.byte		N16   , Gn4 , v120
	.byte	W16
	.byte		N08   , Gn4 , v060
	.byte	W08
	.byte		N16   , Fs4 , v120
	.byte	W16
	.byte		N08   , Fs4 , v060
	.byte	W07
	.byte		VOICE , 76
	.byte	W01
	.byte		N06   , En4 , v120
	.byte	W06
	.byte		N02   , En4 , v060
	.byte	W02
	.byte		N06   , Fs4 , v120
	.byte	W06
	.byte		N02   , Fs4 , v060
	.byte	W02
	.byte		N06   , Gn4 , v120
	.byte	W06
	.byte		N02   , Gn4 , v060
	.byte	W02
	.byte		N08   , An4 , v120
	.byte	W08
	.byte		        Bn4 
	.byte	W08
	.byte		        Cn5 
	.byte	W07
	.byte		VOICE , 74
	.byte	W01
	.byte		N05   , Dn4 
	.byte	W05
	.byte		N03   , Dn3 , v060
	.byte	W02
	.byte		VOICE , 76
	.byte	W01
	.byte		N03   , Fs3 , v120
	.byte	W03
	.byte		        Fs3 , v060
	.byte	W04
	.byte		VOICE , 74
	.byte	W01
	.byte		N05   , Dn4 , v120
	.byte	W05
	.byte		N03   , Dn3 , v060
	.byte	W02
	.byte		VOICE , 76
	.byte	W01
	.byte		N03   , Fs3 , v120
	.byte	W03
	.byte		        Fs3 , v060
	.byte	W04
	.byte		VOICE , 74
	.byte	W01
	.byte		N05   , Dn4 , v120
	.byte	W05
	.byte		N03   , Dn3 , v060
	.byte	W02
	.byte		VOICE , 76
	.byte	W01
	.byte		N03   , Fs3 , v120
	.byte	W03
	.byte		        Fs3 , v060
	.byte	W04
	.byte		VOICE , 74
	.byte	W01
	.byte		N08   , Dn4 , v120
	.byte	W07
	.byte		VOICE , 76
	.byte	W01
	.byte		N08   , Dn4 , v040
	.byte	W08
	.byte		        Dn4 , v020
	.byte	W30
	.byte		VOICE , 74
	.byte	W01
	.byte		MOD   , 0
	.byte	W01
	.byte	GOTO
	 .word	seq_107_8 + 0x15
	.byte	FINE

@*********************** Track 10 ***********************@

seq_107_9:
	.byte	KEYSH , seq_107_key+0
	.byte	W18
	.byte		VOICE , 88
	.byte	W01
	.byte		VOL   , 40*seq_107_mvl/mxv
	.byte	W01
	.byte		PAN   , c_v+0
	.byte	W01
	.byte		LFOS  , 5
	.byte	W01
	.byte		MODT  , mod_pan
	.byte	W01
	.byte		LFODL , 0
	.byte	W01
	.byte		N08   , Bn2 , v120
	.byte	W08
	.byte		        Bn2 , v060
	.byte	W07
	.byte		VOICE , 90
	.byte	W01
	.byte		N05   , En3 , v120
	.byte	W05
	.byte		N03   , En3 , v060
	.byte	W02
	.byte		VOICE , 88
	.byte	W01
	.byte		N08   , En3 , v120
	.byte	W08
	.byte		        En3 , v060
	.byte	W07
	.byte		VOICE , 90
	.byte	W01
	.byte		N05   , Gs3 , v120
	.byte	W05
	.byte		N03   , Gs3 , v060
	.byte	W02
	.byte		VOICE , 88
	.byte	W01
	.byte		N08   , Gs3 , v120
	.byte	W08
	.byte		        Gs3 , v060
	.byte	W07
	.byte		VOICE , 90
	.byte	W01
	.byte		N05   , Bn3 , v120
	.byte	W05
	.byte		N03   , Bn3 , v060
	.byte	W02
	.byte		VOICE , 88
	.byte	W01
	.byte		N08   , En3 , v120
	.byte	W08
	.byte		        En3 , v060
	.byte	W07
	.byte		VOICE , 90
	.byte	W01
	.byte		N05   , Gs3 , v120
	.byte	W05
	.byte		N03   , Gs3 , v060
	.byte	W02
	.byte		VOICE , 88
	.byte	W01
	.byte	PEND
	.byte		N05   , Fs3 , v120
	.byte	W05
	.byte		N11   , Fs3 , v060
	.byte	W11
	.byte		N08   , Fn3 , v120
	.byte	W08
	.byte		        Fs3 
	.byte	W08
	.byte		        Ds3 , v060
	.byte	W08
	.byte		        Cs4 , v120
	.byte	W08
	.byte		N03   , Bn3 
	.byte	W03
	.byte		N01   , Bn2 , v060
	.byte	W01
	.byte		N03   , Cs4 , v120
	.byte	W03
	.byte		N01   , Cs3 , v060
	.byte	W01
	.byte		N03   , Bn3 , v120
	.byte	W03
	.byte		N01   , Bn2 , v060
	.byte	W01
	.byte		N03   , Cs4 , v120
	.byte	W03
	.byte		N01   , Cs3 , v060
	.byte	W01
	.byte		N03   , Bn3 , v120
	.byte	W03
	.byte		N01   , Bn2 , v060
	.byte	W01
	.byte		N03   , Cs4 , v120
	.byte	W03
	.byte		N01   , Cs3 , v060
	.byte	W01
	.byte		N08   , Bn3 , v120
	.byte	W08
	.byte		        Bn3 , v060
	.byte	W15
	.byte		VOICE , 88
	.byte	W01
	.byte	PEND
	.byte		N08   , Bn3 , v120
	.byte	W08
	.byte		        Bn3 , v060
	.byte	W07
	.byte		VOICE , 90
	.byte	W01
	.byte		N05   , En3 , v120
	.byte	W05
	.byte		N03   , En3 , v060
	.byte	W02
	.byte		VOICE , 88
	.byte	W01
	.byte		N08   , En3 , v120
	.byte	W08
	.byte		        En3 , v060
	.byte	W07
	.byte		VOICE , 90
	.byte	W01
	.byte		N05   , En3 , v120
	.byte	W05
	.byte		N03   , En3 , v060
	.byte	W02
	.byte		VOICE , 88
	.byte	W01
	.byte		N08   , Cs4 , v120
	.byte	W08
	.byte		        Cs4 , v060
	.byte	W07
	.byte		VOICE , 90
	.byte	W01
	.byte		N05   , Ds3 , v120
	.byte	W05
	.byte		N03   , Ds3 , v060
	.byte	W02
	.byte		VOICE , 88
	.byte	W01
	.byte		N08   , Bn3 , v120
	.byte	W08
	.byte		        Bn3 , v060
	.byte	W07
	.byte		VOICE , 90
	.byte	W01
	.byte		N05   , En3 , v120
	.byte	W05
	.byte		N03   , En3 , v060
	.byte	W02
	.byte		VOICE , 88
	.byte	W01
	.byte		N08   , Gs3 , v120
	.byte	W08
	.byte		        Gs3 , v060
	.byte	W08
	.byte		        An3 , v120
	.byte	W08
	.byte		        Bn3 
	.byte	W08
	.byte		        Gs3 , v060
	.byte	W08
	.byte		N03   , Fs3 , v120
	.byte	W03
	.byte		N01   , Fs2 , v060
	.byte	W01
	.byte		N03   , Gs3 , v120
	.byte	W03
	.byte		N01   , Gs2 , v060
	.byte	W01
	.byte		N03   , Fs3 , v080
	.byte	W03
	.byte		N01   , Fs2 , v040
	.byte	W01
	.byte		N03   , Gs3 , v080
	.byte	W03
	.byte		N01   , Gs2 , v040
	.byte	W01
	.byte		N16   , Fs3 , v120
	.byte	W16
	.byte		N08   , Fs3 , v060
	.byte	W08
	.byte		        Fs3 , v040
	.byte	W16
	.byte	PATT
	 .word	seq_107_9 + 0x15
	.byte	PATT
	 .word	seq_107_9 + 0x6A
	.byte		N08   , Bn3 , v120
	.byte	W08
	.byte		        Bn3 , v060
	.byte	W07
	.byte		VOICE , 90
	.byte	W01
	.byte		N05   , En3 , v120
	.byte	W05
	.byte		N03   , En3 , v060
	.byte	W02
	.byte		VOICE , 88
	.byte	W01
	.byte		N08   , En3 , v120
	.byte	W08
	.byte		        En3 , v060
	.byte	W07
	.byte		VOICE , 90
	.byte	W01
	.byte		N05   , En3 , v120
	.byte	W05
	.byte		N03   , En3 , v060
	.byte	W02
	.byte		VOICE , 88
	.byte	W01
	.byte		N08   , An3 , v120
	.byte	W08
	.byte		        An3 , v060
	.byte	W07
	.byte		VOICE , 90
	.byte	W01
	.byte		N05   , Gs3 , v120
	.byte	W05
	.byte		N03   , Gs3 , v060
	.byte	W02
	.byte		VOICE , 88
	.byte	W01
	.byte		N08   , Fs3 , v120
	.byte	W08
	.byte		        Fs3 , v060
	.byte	W07
	.byte		VOICE , 90
	.byte	W01
	.byte		N05   , En3 , v120
	.byte	W05
	.byte		N03   , En3 , v060
	.byte	W02
	.byte		VOICE , 88
	.byte	W01
	.byte		N08   , An4 , v120
	.byte	W08
	.byte		        An4 , v060
	.byte	W08
	.byte		        An3 , v100
	.byte	W08
	.byte		        Ds3 , v120
	.byte	W08
	.byte		        Ds3 , v060
	.byte	W08
	.byte		N03   , En3 , v120
	.byte	W03
	.byte		N01   , En2 , v060
	.byte	W01
	.byte		N03   , Fs3 , v120
	.byte	W03
	.byte		N01   , Fs2 , v060
	.byte	W01
	.byte		N03   , En3 , v080
	.byte	W03
	.byte		N01   , En2 , v040
	.byte	W01
	.byte		N03   , Fs3 , v080
	.byte	W03
	.byte		N01   , Fs2 , v040
	.byte	W01
	.byte		N16   , En3 , v120
	.byte	W16
	.byte		N08   , En3 , v060
	.byte	W08
	.byte		        En3 , v040
	.byte	W15
	.byte		MOD   , 80
	.byte	W01
	.byte		N06   , Bn3 , v120
	.byte	W06
	.byte		N02   , Bn3 , v060
	.byte	W02
	.byte		N06   , An3 , v120
	.byte	W06
	.byte		N02   , An3 , v060
	.byte	W02
	.byte		N06   , Gs3 , v120
	.byte	W06
	.byte		N02   , Gs3 , v060
	.byte	W02
	.byte		N06   , An3 , v120
	.byte	W06
	.byte		N10   , An3 , v060
	.byte	W10
	.byte		N06   , Bn3 , v120
	.byte	W06
	.byte		N02   , Bn3 , v060
	.byte	W02
	.byte		N06   , Gs3 , v120
	.byte	W06
	.byte		N10   , Gs3 , v060
	.byte	W10
	.byte		N08   , Gs3 , v040
	.byte	W32
	.byte	PEND
	.byte	W64
	.byte		N06   , Gs3 , v120
	.byte	W06
	.byte		N02   , Gs3 , v060
	.byte	W02
	.byte		N06   , En3 , v120
	.byte	W06
	.byte		N02   , En3 , v060
	.byte	W02
	.byte		N06   , Bn3 , v120
	.byte	W06
	.byte		N02   , Bn3 , v060
	.byte	W02
	.byte		N06   , En4 , v120
	.byte	W06
	.byte		N02   , En4 , v060
	.byte	W01
	.byte		VOICE , 90
	.byte	W01
	.byte	PEND
	.byte	PATT
	 .word	seq_107_9 + 0x1E2
	.byte	W48
	.byte		N06   , Dn3 , v120
	.byte	W06
	.byte		N02   , Dn3 , v060
	.byte	W02
	.byte		N06   , Cn3 , v120
	.byte	W06
	.byte		N02   , Cn3 , v060
	.byte	W02
	.byte		N06   , Bn2 , v120
	.byte	W06
	.byte		N02   , Bn2 , v060
	.byte	W02
	.byte		N16   , An2 , v120
	.byte	W16
	.byte		N08   , An2 , v060
	.byte	W07
	.byte		VOICE , 88
	.byte	W01
	.byte	PATT
	 .word	seq_107_9 + 0x1E2
	.byte	PATT
	 .word	seq_107_9 + 0x217
	.byte		N06   , Bn3 , v120
	.byte	W06
	.byte		N02   , Bn3 , v060
	.byte	W02
	.byte		N06   , An3 , v120
	.byte	W06
	.byte		N02   , An3 , v060
	.byte	W02
	.byte		N06   , Gs3 , v120
	.byte	W06
	.byte		N02   , Gs3 , v060
	.byte	W02
	.byte		N06   , An3 , v120
	.byte	W06
	.byte		N10   , An3 , v060
	.byte	W10
	.byte		N06   , Bn3 , v120
	.byte	W06
	.byte		N02   , Bn3 , v060
	.byte	W02
	.byte		N06   , Gs3 , v120
	.byte	W06
	.byte		N10   , Gs3 , v060
	.byte	W10
	.byte		N08   , Gs3 , v040
	.byte	W30
	.byte	W01
	.byte		VOICE , 88
	.byte	W01
	.byte		N16   , Gn3 , v120
	.byte	W16
	.byte		N08   , Gn3 , v060
	.byte	W08
	.byte		N16   , Fs3 , v120
	.byte	W16
	.byte		N08   , Fs3 , v060
	.byte	W07
	.byte		VOICE , 90
	.byte	W01
	.byte		N06   , Cn3 , v120
	.byte	W06
	.byte		N02   , Cn3 , v060
	.byte	W02
	.byte		N06   , Dn3 , v120
	.byte	W06
	.byte		N02   , Dn3 , v060
	.byte	W02
	.byte		N06   , En3 , v120
	.byte	W06
	.byte		N02   , En3 , v060
	.byte	W02
	.byte		N08   , Fs3 , v120
	.byte	W08
	.byte		        Gn3 
	.byte	W08
	.byte		        An3 
	.byte	W07
	.byte		VOICE , 88
	.byte	W01
	.byte		N05   , Dn3 
	.byte	W05
	.byte		N03   , Fs2 , v060
	.byte	W02
	.byte		VOICE , 90
	.byte	W01
	.byte		N05   , Dn2 , v120
	.byte	W05
	.byte		N03   , Dn2 , v060
	.byte	W02
	.byte		VOICE , 88
	.byte	W01
	.byte		N05   , Fs3 , v120
	.byte	W05
	.byte		N03   , Fs2 , v060
	.byte	W02
	.byte		VOICE , 90
	.byte	W01
	.byte		N05   , Dn2 , v120
	.byte	W05
	.byte		N03   , Dn2 , v060
	.byte	W02
	.byte		VOICE , 88
	.byte	W01
	.byte		N05   , Dn3 , v120
	.byte	W05
	.byte		N03   , Fs2 , v060
	.byte	W02
	.byte		VOICE , 90
	.byte	W01
	.byte		N05   , Dn2 , v120
	.byte	W05
	.byte		N03   , Dn2 , v060
	.byte	W02
	.byte		VOICE , 88
	.byte	W01
	.byte		N08   , Dn3 , v120
	.byte	W07
	.byte		VOICE , 90
	.byte	W01
	.byte		N08   , Dn3 , v040
	.byte	W08
	.byte		        Dn3 , v020
	.byte	W30
	.byte		VOICE , 88
	.byte	W01
	.byte		MOD   , 0
	.byte	W01
	.byte	GOTO
	 .word	seq_107_9 + 0x15
	.byte	FINE

@*********************** Track 11 ***********************@

seq_107_10:
	.byte	KEYSH , seq_107_key+0
	.byte	W18
	.byte		VOICE , 112
	.byte	W01
	.byte		VOL   , 51*seq_107_mvl/mxv
	.byte	W01
	.byte		PAN   , c_v+0
	.byte	W04
	.byte		N03   , Dn3 , v120
	.byte	W16
	.byte		        An4 
	.byte	W08
	.byte		        Dn3 , v100
	.byte	W16
	.byte		        An4 , v120
	.byte	W08
	.byte		        Dn3 
	.byte	W08
	.byte		N02   , Dn3 , v060
	.byte	W08
	.byte		N03   , An4 , v120
	.byte	W08
	.byte		        Dn3 , v100
	.byte	W16
	.byte		        An4 , v120
	.byte	W08
	.byte	PEND
	.byte		N03   , Dn3 , v120
	.byte	W08
	.byte		N02   , Dn3 , v060
	.byte	W08
	.byte		N03   , An4 , v120
	.byte	W08
	.byte		        Dn3 , v100
	.byte	W16
	.byte		        An4 , v120
	.byte	W08
	.byte		        Dn3 
	.byte	W08
	.byte		N02   , Dn3 , v060
	.byte	W08
	.byte		N03   , An4 , v120
	.byte	W08
	.byte		        Dn3 , v100
	.byte	W16
	.byte		        An4 , v120
	.byte	W08
	.byte	PEND
	.byte	PATT
	 .word	seq_107_10 + 0xC
	.byte	PATT
	 .word	seq_107_10 + 0x29
	.byte	PATT
	 .word	seq_107_10 + 0xC
	.byte	PATT
	 .word	seq_107_10 + 0x29
	.byte	PATT
	 .word	seq_107_10 + 0xC
	.byte		N03   , Dn3 , v120
	.byte	W08
	.byte		N02   , Dn3 , v060
	.byte	W08
	.byte		N03   , An4 , v120
	.byte	W08
	.byte		        Dn3 , v100
	.byte	W16
	.byte		        An4 , v120
	.byte	W08
	.byte		        An2 
	.byte	W08
	.byte		        An4 
	.byte	W08
	.byte		        Bn2 , v100
	.byte	W08
	.byte		        Dn3 
	.byte	W16
	.byte		        An4 , v120
	.byte	W08
	.byte	PATT
	 .word	seq_107_10 + 0xC
	.byte	PATT
	 .word	seq_107_10 + 0x29
	.byte	PATT
	 .word	seq_107_10 + 0xC
	.byte	PATT
	 .word	seq_107_10 + 0x29
	.byte	PATT
	 .word	seq_107_10 + 0xC
	.byte	PATT
	 .word	seq_107_10 + 0x29
	.byte	PATT
	 .word	seq_107_10 + 0xC
	.byte		N03   , Dn3 , v120
	.byte	W08
	.byte		N02   , Dn3 , v060
	.byte	W08
	.byte		N03   , An4 , v120
	.byte	W08
	.byte		        Dn3 , v100
	.byte	W16
	.byte		        An4 , v120
	.byte	W08
	.byte		        An2 
	.byte	W08
	.byte		        An4 
	.byte	W08
	.byte		        Bn2 , v100
	.byte	W08
	.byte		N10   , An4 
	.byte	W10
	.byte		N06   , An4 , v040
	.byte	W06
	.byte		N03   , Dn3 , v120
	.byte	W08
	.byte		N03
	.byte	W16
	.byte		        An4 
	.byte	W08
	.byte		        Dn3 , v100
	.byte	W08
	.byte		        An4 , v120
	.byte	W16
	.byte		        Dn3 
	.byte	W08
	.byte		N02   , Dn3 , v060
	.byte	W08
	.byte		N03   , An4 , v120
	.byte	W08
	.byte		        Dn3 , v100
	.byte	W16
	.byte		        An4 , v120
	.byte	W08
	.byte	GOTO
	 .word	seq_107_10 + 0xC
	.byte	FINE

@******************************************************@

	.align	2

seq_107:
	.byte	11	@ NumTrks
	.byte	0	@ NumBlks
	.byte	seq_107_pri	@ Priority
	.byte	seq_107_rev	@ Reverb

	.word	seq_107_grp

	.word	seq_107_0
	.word	seq_107_1
	.word	seq_107_2
	.word	seq_107_3
	.word	seq_107_4
	.word	seq_107_5
	.word	seq_107_6
	.word	seq_107_7
	.word	seq_107_8
	.word	seq_107_9
	.word	seq_107_10

	.end
