@ File generated by m4a2s Song-Module
	.include "MPlayDef.s"

	.equ	seq_012_grp, bank_000
	.equ	seq_012_pri, 50
	.equ	seq_012_rev, 218
	.equ	seq_012_mvl, 127
	.equ	seq_012_key, 0

	.section .rodata
	.global	seq_012
	.align	2

@*********************** Track 01 ***********************@

seq_012_0:
	.byte	KEYSH , seq_012_key+0
	.byte	TEMPO , 82/2
	.byte		VOICE , 46
	.byte		VOL   , 110*seq_012_mvl/mxv
	.byte		PAN   , c_v+0
	.byte	W36
	.byte	W96
	.byte	W96
	.byte	W96
	.byte	W96
	.byte	W96
	.byte	W96
	.byte	W96
	.byte	W96
	.byte		N09   , Fn2 , v127
	.byte	W12
	.byte		N07   , Bn2 , v116
	.byte	W12
	.byte		        Cn3 , v096
	.byte	W12
	.byte		N12   , Gn3 , v116
	.byte	W48
	.byte		N07   , Cn2 , v127
	.byte	W12
	.byte	PEND
	.byte		N09   , Fn2 , v127
	.byte	W12
	.byte		N07   , Bn2 , v116
	.byte	W12
	.byte		        Cn3 , v096
	.byte	W12
	.byte		N12   , Gn3 , v116
	.byte	W48
	.byte		N07   , Dn2 , v127
	.byte	W12
	.byte	PEND
	.byte		N09   , En2 , v127
	.byte	W12
	.byte		N07   , An2 , v116
	.byte	W12
	.byte		        Bn2 , v096
	.byte	W12
	.byte		N12   , En3 , v116
	.byte	W48
	.byte		N07   , Dn2 , v127
	.byte	W12
	.byte	PEND
	.byte		N09   , En2 , v127
	.byte	W12
	.byte		N07   , An2 , v116
	.byte	W12
	.byte		        Bn2 , v096
	.byte	W12
	.byte		N12   , En3 , v116
	.byte	W48
	.byte		N07   , Cn2 , v127
	.byte	W12
	.byte	PEND
	.byte	PATT
	 .word	seq_012_0 + 0x13
	.byte	PATT
	 .word	seq_012_0 + 0x27
	.byte	PATT
	 .word	seq_012_0 + 0x3B
	.byte	PATT
	 .word	seq_012_0 + 0x4F
	.byte	W96
	.byte	W96
	.byte	W96
	.byte	W96
	.byte	W96
	.byte	W96
	.byte	W96
	.byte	W96
	.byte	W96
	.byte	W96
	.byte	GOTO
	 .word	seq_012_0 + 0xD
	.byte	FINE

@*********************** Track 02 ***********************@

seq_012_1:
	.byte	KEYSH , seq_012_key+0
	.byte	W01
	.byte		VOICE , 14
	.byte		VOL   , 51*seq_012_mvl/mxv
	.byte		PAN   , c_v+0
	.byte	W32
	.byte	W03
	.byte	W44
	.byte	W03
	.byte		PAN   , c_v-20
	.byte	W01
	.byte		N18   , Fn3 , v100
	.byte	W44
	.byte	W03
	.byte		PAN   , c_v+20
	.byte	W01
	.byte	PEND
	.byte		N18   , Cn4 , v100
	.byte	W44
	.byte	W03
	.byte		PAN   , c_v-20
	.byte	W01
	.byte		N18   , Gn3 
	.byte	W48
	.byte	PEND
	.byte	W44
	.byte	W03
	.byte		PAN   , c_v+20
	.byte	W01
	.byte		N18   , En3 , v100
	.byte	W44
	.byte	W03
	.byte		PAN   , c_v-20
	.byte	W01
	.byte	PEND
	.byte		N18   , Bn3 , v100
	.byte	W44
	.byte	W03
	.byte		PAN   , c_v+20
	.byte	W01
	.byte		N18   , Gn3 
	.byte	W48
	.byte	PEND
	.byte	PATT
	 .word	seq_012_1 + 0xB
	.byte	PATT
	 .word	seq_012_1 + 0x19
	.byte	PATT
	 .word	seq_012_1 + 0x25
	.byte	PATT
	 .word	seq_012_1 + 0x33
	.byte	PATT
	 .word	seq_012_1 + 0xB
	.byte	PATT
	 .word	seq_012_1 + 0x19
	.byte	PATT
	 .word	seq_012_1 + 0x25
	.byte	PATT
	 .word	seq_012_1 + 0x33
	.byte	PATT
	 .word	seq_012_1 + 0xB
	.byte	PATT
	 .word	seq_012_1 + 0x19
	.byte	PATT
	 .word	seq_012_1 + 0x25
	.byte	PATT
	 .word	seq_012_1 + 0x33
	.byte	W96
	.byte	W96
	.byte	W96
	.byte	W96
	.byte	W96
	.byte	W96
	.byte	W96
	.byte	W96
	.byte	PATT
	 .word	seq_012_1 + 0xB
	.byte	PATT
	 .word	seq_012_1 + 0x19
	.byte	GOTO
	 .word	seq_012_1 + 0x25
	.byte	FINE

@*********************** Track 03 ***********************@

seq_012_2:
	.byte	KEYSH , seq_012_key+0
	.byte	W02
	.byte		VOICE , 76
	.byte		VOL   , 86*seq_012_mvl/mxv
	.byte		LFOS  , 33
	.byte	W01
	.byte		MOD   , 0
	.byte		PAN   , c_v+0
	.byte		MODT  , mod_tre
	.byte	W32
	.byte	W01
	.byte	W24
	.byte		N05   , Gn3 , v008
	.byte	W05
	.byte		        An3 , v012
	.byte	W04
	.byte		        Gn3 , v016
	.byte	W04
	.byte		        An3 , v020
	.byte	W04
	.byte		        Gn3 , v024
	.byte	W04
	.byte		        An3 , v028
	.byte	W03
	.byte		        Gn3 
	.byte	W05
	.byte		        An3 , v036
	.byte	W04
	.byte		        Gn3 , v044
	.byte	W04
	.byte		        An3 , v048
	.byte	W03
	.byte		        Gn3 , v056
	.byte	W04
	.byte		        An3 , v060
	.byte	W04
	.byte		        Gn3 , v068
	.byte	W04
	.byte		        An3 , v076
	.byte	W04
	.byte		        Gn3 , v088
	.byte	W04
	.byte		        An3 , v080
	.byte	W03
	.byte		        Gn3 , v068
	.byte	W03
	.byte		        An3 , v040
	.byte	W03
	.byte		        Gn3 , v032
	.byte	W03
	.byte	PEND
	.byte	W96
	.byte	W24
	.byte		N05   , An3 , v008
	.byte	W05
	.byte		        Bn3 , v012
	.byte	W04
	.byte		        An3 , v016
	.byte	W04
	.byte		        Bn3 , v020
	.byte	W04
	.byte		        An3 , v024
	.byte	W04
	.byte		        Bn3 , v028
	.byte	W03
	.byte		        An3 
	.byte	W05
	.byte		        Bn3 , v036
	.byte	W04
	.byte		        An3 , v044
	.byte	W04
	.byte		        Bn3 , v048
	.byte	W03
	.byte		        An3 , v056
	.byte	W04
	.byte		        Bn3 , v060
	.byte	W04
	.byte		        An3 , v068
	.byte	W04
	.byte		        Bn3 , v076
	.byte	W04
	.byte		        An3 , v088
	.byte	W04
	.byte		        Bn3 , v080
	.byte	W03
	.byte		        An3 , v068
	.byte	W03
	.byte		        Bn3 , v040
	.byte	W03
	.byte		        An3 , v032
	.byte	W03
	.byte	PEND
	.byte	W96
	.byte	PATT
	 .word	seq_012_2 + 0x12
	.byte	W96
	.byte	PATT
	 .word	seq_012_2 + 0x4E
	.byte	W96
	.byte	W44
	.byte	W01
	.byte		MOD   , 65
	.byte		VOL   , 95*seq_012_mvl/mxv
	.byte		PAN   , c_v+0
	.byte	W05
	.byte		N06   , Gn3 , v068
	.byte	W12
	.byte		        Cn4 
	.byte	W12
	.byte		        En4 
	.byte	W12
	.byte		N36   , Fn4 
	.byte	W10
	.byte	PEND
	.byte	W36
	.byte	W02
	.byte		N18
	.byte	W24
	.byte		N06   , En4 
	.byte	W12
	.byte		        Cn4 
	.byte	W12
	.byte		N60   , Gn3 
	.byte	W10
	.byte	W04
	.byte		VOL   , 90*seq_012_mvl/mxv
	.byte	W02
	.byte		        90*seq_012_mvl/mxv
	.byte	W02
	.byte		        88*seq_012_mvl/mxv
	.byte	W02
	.byte		        87*seq_012_mvl/mxv
	.byte	W02
	.byte		        85*seq_012_mvl/mxv
	.byte	W02
	.byte		        84*seq_012_mvl/mxv
	.byte	W02
	.byte		        81*seq_012_mvl/mxv
	.byte	W02
	.byte		        78*seq_012_mvl/mxv
	.byte	W02
	.byte		        77*seq_012_mvl/mxv
	.byte	W02
	.byte		        74*seq_012_mvl/mxv
	.byte	W02
	.byte		        72*seq_012_mvl/mxv
	.byte	W02
	.byte		        69*seq_012_mvl/mxv
	.byte	W02
	.byte		        66*seq_012_mvl/mxv
	.byte	W02
	.byte		        63*seq_012_mvl/mxv
	.byte	W02
	.byte		        59*seq_012_mvl/mxv
	.byte	W02
	.byte		        57*seq_012_mvl/mxv
	.byte	W02
	.byte		        53*seq_012_mvl/mxv
	.byte	W02
	.byte		        49*seq_012_mvl/mxv
	.byte	W02
	.byte		        46*seq_012_mvl/mxv
	.byte	W02
	.byte		        43*seq_012_mvl/mxv
	.byte	W02
	.byte		        38*seq_012_mvl/mxv
	.byte	W02
	.byte		        33*seq_012_mvl/mxv
	.byte	W48
	.byte	W02
	.byte	PEND
	.byte	W96
	.byte	PATT
	 .word	seq_012_2 + 0x96
	.byte	W36
	.byte	W02
	.byte		N18   , Fn4 , v068
	.byte	W24
	.byte		N06   , En4 
	.byte	W12
	.byte		        Cn4 
	.byte	W12
	.byte		N60   , Gn4 
	.byte	W10
	.byte	PATT
	 .word	seq_012_2 + 0xB7
	.byte	W14
	.byte		PAN   , c_v-20
	.byte	W80
	.byte	W02
	.byte	W42
	.byte	W01
	.byte		MOD   , 40
	.byte		VOL   , 95*seq_012_mvl/mxv
	.byte	W05
	.byte		N06   , Gn4 , v048
	.byte	W12
	.byte		        Cn5 
	.byte	W12
	.byte		        En5 
	.byte	W12
	.byte		N36   , Fn5 
	.byte	W12
	.byte	PEND
	.byte	W36
	.byte		N18
	.byte	W24
	.byte		N06   , En5 
	.byte	W12
	.byte		        Cn5 
	.byte	W12
	.byte		N60   , Gn4 
	.byte	W12
	.byte	W02
	.byte		VOL   , 90*seq_012_mvl/mxv
	.byte	W02
	.byte		        90*seq_012_mvl/mxv
	.byte	W02
	.byte		        88*seq_012_mvl/mxv
	.byte	W02
	.byte		        87*seq_012_mvl/mxv
	.byte	W02
	.byte		        85*seq_012_mvl/mxv
	.byte	W02
	.byte		        84*seq_012_mvl/mxv
	.byte	W02
	.byte		        81*seq_012_mvl/mxv
	.byte	W02
	.byte		        78*seq_012_mvl/mxv
	.byte	W02
	.byte		        77*seq_012_mvl/mxv
	.byte	W02
	.byte		        74*seq_012_mvl/mxv
	.byte	W02
	.byte		        72*seq_012_mvl/mxv
	.byte	W02
	.byte		        69*seq_012_mvl/mxv
	.byte	W02
	.byte		        66*seq_012_mvl/mxv
	.byte	W02
	.byte		        63*seq_012_mvl/mxv
	.byte	W02
	.byte		        59*seq_012_mvl/mxv
	.byte	W02
	.byte		        57*seq_012_mvl/mxv
	.byte	W02
	.byte		        53*seq_012_mvl/mxv
	.byte	W02
	.byte		        49*seq_012_mvl/mxv
	.byte	W02
	.byte		        46*seq_012_mvl/mxv
	.byte	W02
	.byte		        43*seq_012_mvl/mxv
	.byte	W02
	.byte		        38*seq_012_mvl/mxv
	.byte	W02
	.byte		        33*seq_012_mvl/mxv
	.byte	W52
	.byte	PEND
	.byte	W96
	.byte	PATT
	 .word	seq_012_2 + 0x105
	.byte	W36
	.byte		N18   , Fn5 , v048
	.byte	W24
	.byte		N06   , En5 
	.byte	W12
	.byte		        Cn5 
	.byte	W12
	.byte		N60   , Gn5 
	.byte	W12
	.byte	PATT
	 .word	seq_012_2 + 0x123
	.byte	W96
	.byte	W48
	.byte	W02
	.byte		LFOS  , 33
	.byte	W10
	.byte		VOICE , 76
	.byte	W01
	.byte		VOL   , 86*seq_012_mvl/mxv
	.byte	W01
	.byte		PAN   , c_v+0
	.byte	W24
	.byte	W02
	.byte		MODT  , mod_tre
	.byte	W01
	.byte		MOD   , 0
	.byte	W07
	.byte	W96
	.byte	GOTO
	 .word	seq_012_2 + 0x4E
	.byte	FINE

@*********************** Track 04 ***********************@

seq_012_3:
	.byte	KEYSH , seq_012_key+0
	.byte	W04
	.byte		VOICE , 81
	.byte		VOL   , 38*seq_012_mvl/mxv
	.byte		PAN   , c_v+0
	.byte	W32
	.byte	W24
	.byte		N05   , En3 , v008
	.byte	W05
	.byte		        Fn3 , v012
	.byte	W04
	.byte		        En3 , v016
	.byte	W04
	.byte		        Fn3 , v020
	.byte	W04
	.byte		        En3 , v024
	.byte	W04
	.byte		        Fn3 , v028
	.byte	W03
	.byte		        En3 
	.byte	W05
	.byte		        Fn3 , v036
	.byte	W04
	.byte		        En3 , v044
	.byte	W04
	.byte		        Fn3 , v048
	.byte	W03
	.byte		        En3 , v056
	.byte	W05
	.byte		        Fn3 , v060
	.byte	W05
	.byte		        En3 , v068
	.byte	W04
	.byte		        Fn3 , v076
	.byte	W04
	.byte		        En3 , v088
	.byte	W04
	.byte		        Fn3 , v080
	.byte	W03
	.byte		        En3 , v068
	.byte	W03
	.byte		        Fn3 , v048
	.byte	W04
	.byte	PEND
	.byte	W08
	.byte		N05   , Gn3 , v028
	.byte	W04
	.byte		        An3 , v036
	.byte	W04
	.byte		        Gn3 , v040
	.byte	W04
	.byte		        An3 , v052
	.byte	W05
	.byte		        Gn3 , v060
	.byte	W05
	.byte		        An3 , v076
	.byte	W03
	.byte		        Gn3 , v088
	.byte	W04
	.byte		        An3 
	.byte	W04
	.byte		        Gn3 , v084
	.byte	W05
	.byte		        An3 , v080
	.byte	W03
	.byte		        Gn3 , v076
	.byte	W04
	.byte		        An3 , v072
	.byte	W04
	.byte		        Gn3 , v064
	.byte	W04
	.byte		        An3 , v056
	.byte	W04
	.byte		        Gn3 , v044
	.byte	W05
	.byte		        An3 , v032
	.byte	W03
	.byte		        Gn3 , v024
	.byte	W04
	.byte		        An3 , v012
	.byte	W04
	.byte		        Gn3 , v004
	.byte	W15
	.byte	PEND
	.byte	W24
	.byte		N06   , Dn3 , v008
	.byte	W06
	.byte		N03   , En3 , v012
	.byte	W03
	.byte		N04   , Dn3 , v016
	.byte	W04
	.byte		N03   , En3 , v020
	.byte	W03
	.byte		N04   , Dn3 , v024
	.byte	W05
	.byte		N03   , En3 , v028
	.byte	W03
	.byte		N04   , Dn3 
	.byte	W04
	.byte		        En3 , v036
	.byte	W05
	.byte		        Dn3 , v044
	.byte	W04
	.byte		N03   , En3 , v048
	.byte	W03
	.byte		N04   , Dn3 , v056
	.byte	W05
	.byte		        En3 , v060
	.byte	W04
	.byte		        Dn3 , v068
	.byte	W05
	.byte		N03   , En3 , v076
	.byte	W03
	.byte		N04   , Dn3 , v088
	.byte	W04
	.byte		N03   , En3 , v080
	.byte	W03
	.byte		        Dn3 , v068
	.byte	W03
	.byte		N12   , En3 , v048
	.byte	W05
	.byte	W07
	.byte		N04   , Dn3 , v028
	.byte	W05
	.byte		        En3 , v036
	.byte	W04
	.byte		N03   , Dn3 , v040
	.byte	W03
	.byte		N06   , En3 , v052
	.byte	W06
	.byte		N04   , Dn3 , v060
	.byte	W05
	.byte		N03   , En3 , v076
	.byte	W03
	.byte		N04   , Dn3 , v088
	.byte	W04
	.byte		N03   , En3 
	.byte	W03
	.byte		N06   , Dn3 , v084
	.byte	W06
	.byte		N03   , En3 , v080
	.byte	W03
	.byte		        Dn3 , v076
	.byte	W03
	.byte		N04   , En3 , v072
	.byte	W05
	.byte		        Dn3 , v064
	.byte	W04
	.byte		N03   , En3 , v056
	.byte	W03
	.byte		N06   , Dn3 , v044
	.byte	W06
	.byte		N03   , En3 , v032
	.byte	W03
	.byte		        Dn3 , v024
	.byte	W03
	.byte		N04   , En3 , v012
	.byte	W05
	.byte		N09   , Dn3 , v004
	.byte	W15
	.byte	PATT
	 .word	seq_012_3 + 0xA
	.byte	PATT
	 .word	seq_012_3 + 0x42
	.byte	W24
	.byte		N05   , Dn3 , v008
	.byte	W05
	.byte		        En3 , v012
	.byte	W04
	.byte		        Dn3 , v016
	.byte	W04
	.byte		        En3 , v020
	.byte	W04
	.byte		        Dn3 , v024
	.byte	W04
	.byte		        En3 , v028
	.byte	W03
	.byte		        Dn3 
	.byte	W05
	.byte		        En3 , v036
	.byte	W04
	.byte		        Dn3 , v044
	.byte	W04
	.byte		        En3 , v048
	.byte	W03
	.byte		        Dn3 , v056
	.byte	W05
	.byte		        En3 , v060
	.byte	W05
	.byte		        Dn3 , v068
	.byte	W04
	.byte		        En3 , v076
	.byte	W04
	.byte		        Dn3 , v088
	.byte	W04
	.byte		        En3 , v080
	.byte	W03
	.byte		        Dn3 , v068
	.byte	W03
	.byte		        En3 , v048
	.byte	W04
	.byte	W08
	.byte		        An3 , v028
	.byte	W04
	.byte		        Bn3 , v036
	.byte	W04
	.byte		        An3 , v040
	.byte	W04
	.byte		        Bn3 , v052
	.byte	W05
	.byte		        An3 , v060
	.byte	W05
	.byte		        Bn3 , v076
	.byte	W03
	.byte		        An3 , v088
	.byte	W04
	.byte		        Bn3 
	.byte	W04
	.byte		        An3 , v084
	.byte	W05
	.byte		        Bn3 , v080
	.byte	W03
	.byte		        An3 , v076
	.byte	W04
	.byte		        Bn3 , v072
	.byte	W04
	.byte		        An3 , v064
	.byte	W04
	.byte		        Bn3 , v056
	.byte	W04
	.byte		        An3 , v044
	.byte	W05
	.byte		        Bn3 , v032
	.byte	W03
	.byte		        An3 , v024
	.byte	W04
	.byte		        Bn3 , v012
	.byte	W04
	.byte		        An3 , v004
	.byte	W15
	.byte	W96
	.byte	W96
	.byte	W96
	.byte	W96
	.byte	W96
	.byte	W96
	.byte	W96
	.byte	W96
	.byte	W96
	.byte	W96
	.byte	W96
	.byte	W96
	.byte	W96
	.byte	W96
	.byte	W96
	.byte	W96
	.byte	W96
	.byte	W96
	.byte	GOTO
	 .word	seq_012_3 + 0x7D
	.byte	FINE

@*********************** Track 05 ***********************@

seq_012_4:
	.byte	KEYSH , seq_012_key+0
	.byte	W05
	.byte		VOICE , 95
	.byte		VOL   , 77*seq_012_mvl/mxv
	.byte		PAN   , c_v+0
	.byte	W30
	.byte	W01
	.byte	W96
	.byte	W16
	.byte		N06   , Bn2 , v040
	.byte	W04
	.byte		        Cn3 , v052
	.byte	W05
	.byte		        Bn2 , v060
	.byte	W05
	.byte		        Cn3 , v076
	.byte	W03
	.byte		        Bn2 , v088
	.byte	W04
	.byte		        Cn3 
	.byte	W04
	.byte		        Bn2 , v084
	.byte	W05
	.byte		        Cn3 , v080
	.byte	W03
	.byte		        Bn2 , v076
	.byte	W04
	.byte		        Cn3 , v072
	.byte	W04
	.byte		        Bn2 , v064
	.byte	W04
	.byte		        Cn3 , v056
	.byte	W04
	.byte		        Bn2 , v044
	.byte	W05
	.byte		        Cn3 , v032
	.byte	W03
	.byte		        Bn2 , v024
	.byte	W04
	.byte		        Cn3 , v012
	.byte	W04
	.byte		        Bn2 , v004
	.byte	W15
	.byte	PEND
	.byte	W96
	.byte	W16
	.byte		N06   , An2 , v040
	.byte	W04
	.byte		        Bn2 , v052
	.byte	W05
	.byte		        An2 , v060
	.byte	W05
	.byte		        Bn2 , v076
	.byte	W03
	.byte		        An2 , v088
	.byte	W04
	.byte		        Bn2 
	.byte	W04
	.byte		        An2 , v084
	.byte	W05
	.byte		        Bn2 , v080
	.byte	W03
	.byte		        An2 , v076
	.byte	W04
	.byte		        Bn2 , v072
	.byte	W04
	.byte		        An2 , v064
	.byte	W04
	.byte		        Bn2 , v056
	.byte	W04
	.byte		        An2 , v044
	.byte	W05
	.byte		        Bn2 , v032
	.byte	W03
	.byte		        An2 , v024
	.byte	W04
	.byte		        Bn2 , v012
	.byte	W04
	.byte		        An2 , v004
	.byte	W15
	.byte	W96
	.byte	PATT
	 .word	seq_012_4 + 0xC
	.byte	W96
	.byte	W16
	.byte		N06   , Dn3 , v040
	.byte	W04
	.byte		        En3 , v052
	.byte	W05
	.byte		        Dn3 , v060
	.byte	W05
	.byte		        En3 , v076
	.byte	W03
	.byte		        Dn3 , v088
	.byte	W04
	.byte		        En3 
	.byte	W04
	.byte		        Dn3 , v084
	.byte	W05
	.byte		        En3 , v080
	.byte	W03
	.byte		        Dn3 , v076
	.byte	W04
	.byte		        En3 , v072
	.byte	W04
	.byte		        Dn3 , v064
	.byte	W04
	.byte		        En3 , v056
	.byte	W04
	.byte		        Dn3 , v044
	.byte	W05
	.byte		        En3 , v032
	.byte	W03
	.byte		        Dn3 , v024
	.byte	W04
	.byte		        En3 , v012
	.byte	W04
	.byte		        Dn3 , v004
	.byte	W15
	.byte	W96
	.byte	W96
	.byte	W96
	.byte	W96
	.byte	W96
	.byte	W96
	.byte	W96
	.byte	W96
	.byte	W96
	.byte	W96
	.byte	W96
	.byte	W96
	.byte	W96
	.byte	W96
	.byte	W96
	.byte	W96
	.byte	W96
	.byte	W96
	.byte	GOTO
	 .word	seq_012_4 + 0x41
	.byte	FINE

@*********************** Track 06 ***********************@

seq_012_5:
	.byte	KEYSH , seq_012_key+0
	.byte	W06
	.byte		VOICE , 118
	.byte		MOD   , 0
	.byte		LFOS  , 33
	.byte	W01
	.byte		VOL   , 73*seq_012_mvl/mxv
	.byte		PAN   , c_v+20
	.byte		MODT  , mod_tre
	.byte	W28
	.byte	W01
	.byte	W96
	.byte	W96
	.byte	W96
	.byte	W96
	.byte	W96
	.byte	W96
	.byte	W96
	.byte	W96
	.byte	W96
	.byte	W96
	.byte	W96
	.byte	W96
	.byte	W96
	.byte	W96
	.byte	W96
	.byte	W96
	.byte	W42
	.byte	W01
	.byte		MOD   , 65
	.byte		VOL   , 95*seq_012_mvl/mxv
	.byte	W05
	.byte		N06   , Gn3 , v048
	.byte	W12
	.byte		        Cn4 
	.byte	W12
	.byte		        En4 
	.byte	W12
	.byte		N36   , Fn4 
	.byte	W12
	.byte	PEND
	.byte	W36
	.byte		N18
	.byte	W24
	.byte		N06   , En4 
	.byte	W12
	.byte		        Cn4 
	.byte	W12
	.byte		N60   , Gn3 
	.byte	W12
	.byte	W02
	.byte		VOL   , 90*seq_012_mvl/mxv
	.byte	W02
	.byte		        90*seq_012_mvl/mxv
	.byte	W02
	.byte		        88*seq_012_mvl/mxv
	.byte	W02
	.byte		        87*seq_012_mvl/mxv
	.byte	W02
	.byte		        85*seq_012_mvl/mxv
	.byte	W02
	.byte		        84*seq_012_mvl/mxv
	.byte	W02
	.byte		        81*seq_012_mvl/mxv
	.byte	W02
	.byte		        78*seq_012_mvl/mxv
	.byte	W02
	.byte		        77*seq_012_mvl/mxv
	.byte	W02
	.byte		        74*seq_012_mvl/mxv
	.byte	W02
	.byte		        72*seq_012_mvl/mxv
	.byte	W02
	.byte		        69*seq_012_mvl/mxv
	.byte	W02
	.byte		        66*seq_012_mvl/mxv
	.byte	W02
	.byte		        63*seq_012_mvl/mxv
	.byte	W02
	.byte		        59*seq_012_mvl/mxv
	.byte	W02
	.byte		        57*seq_012_mvl/mxv
	.byte	W02
	.byte		        53*seq_012_mvl/mxv
	.byte	W02
	.byte		        49*seq_012_mvl/mxv
	.byte	W02
	.byte		        46*seq_012_mvl/mxv
	.byte	W02
	.byte		        43*seq_012_mvl/mxv
	.byte	W02
	.byte		        38*seq_012_mvl/mxv
	.byte	W02
	.byte		        33*seq_012_mvl/mxv
	.byte	W52
	.byte	PEND
	.byte	W96
	.byte	PATT
	 .word	seq_012_5 + 0x22
	.byte	W36
	.byte		N18   , Fn4 , v048
	.byte	W24
	.byte		N06   , En4 
	.byte	W12
	.byte		        Cn4 
	.byte	W12
	.byte		N60   , Gn4 
	.byte	W12
	.byte	PATT
	 .word	seq_012_5 + 0x40
	.byte	W96
	.byte	W96
	.byte	W96
	.byte	GOTO
	 .word	seq_012_5 + 0x14
	.byte	FINE

@*********************** Track 07 ***********************@

seq_012_6:
	.byte	KEYSH , seq_012_key+0
	.byte	W08
	.byte		VOICE , 94
	.byte		VOL   , 86*seq_012_mvl/mxv
	.byte		PAN   , c_v-20
	.byte	W01
	.byte		MOD   , 45
	.byte		MODT  , mod_pan
	.byte	W24
	.byte	W03
	.byte	W96
	.byte	W96
	.byte	W96
	.byte	W96
	.byte	W96
	.byte	W96
	.byte	W96
	.byte	W92
	.byte	W02
	.byte		VOL   , 60*seq_012_mvl/mxv
	.byte	W02
	.byte		TIE   , Fn2 , v100
	.byte	W96
	.byte	W96
	.byte		EOT
	.byte		N48   , Gn2 , v100
	.byte	W48
	.byte		        Cn3 
	.byte	W48
	.byte	PEND
	.byte		N48   , Bn2 , v100
	.byte	W48
	.byte		        Gn2 
	.byte	W48
	.byte	PEND
	.byte		TIE   , Fn2 
	.byte	W96
	.byte	W96
	.byte		EOT
	.byte	PATT
	 .word	seq_012_6 + 0x22
	.byte		N48   , Bn2 , v100
	.byte	W48
	.byte		        Dn3 
	.byte	W48
	.byte	PEND
	.byte		TIE   , An2 
	.byte	W96
	.byte	W96
	.byte		EOT
	.byte	PATT
	 .word	seq_012_6 + 0x22
	.byte	PATT
	 .word	seq_012_6 + 0x29
	.byte		TIE   , An2 , v100
	.byte	W96
	.byte	W96
	.byte		EOT
	.byte	PATT
	 .word	seq_012_6 + 0x22
	.byte	PATT
	 .word	seq_012_6 + 0x3A
	.byte		TIE   , An2 , v100
	.byte	W09
	.byte		VOL   , 64*seq_012_mvl/mxv
	.byte	W14
	.byte		        63*seq_012_mvl/mxv
	.byte	W18
	.byte		        61*seq_012_mvl/mxv
	.byte	W20
	.byte		        59*seq_012_mvl/mxv
	.byte	W17
	.byte		        58*seq_012_mvl/mxv
	.byte	W16
	.byte		        56*seq_012_mvl/mxv
	.byte	W02
	.byte	W05
	.byte		        54*seq_012_mvl/mxv
	.byte	W06
	.byte		        52*seq_012_mvl/mxv
	.byte	W07
	.byte		        51*seq_012_mvl/mxv
	.byte	W07
	.byte		        49*seq_012_mvl/mxv
	.byte	W06
	.byte		        47*seq_012_mvl/mxv
	.byte	W05
	.byte		        45*seq_012_mvl/mxv
	.byte	W09
	.byte		        44*seq_012_mvl/mxv
	.byte	W04
	.byte		        42*seq_012_mvl/mxv
	.byte	W04
	.byte		        40*seq_012_mvl/mxv
	.byte	W03
	.byte		        38*seq_012_mvl/mxv
	.byte	W02
	.byte		        37*seq_012_mvl/mxv
	.byte	W02
	.byte		        35*seq_012_mvl/mxv
	.byte	W02
	.byte		        33*seq_012_mvl/mxv
	.byte	W03
	.byte		        31*seq_012_mvl/mxv
	.byte	W02
	.byte		        29*seq_012_mvl/mxv
	.byte	W02
	.byte		        27*seq_012_mvl/mxv
	.byte	W02
	.byte		        25*seq_012_mvl/mxv
	.byte	W02
	.byte		        24*seq_012_mvl/mxv
	.byte	W03
	.byte		        22*seq_012_mvl/mxv
	.byte	W02
	.byte		        20*seq_012_mvl/mxv
	.byte	W02
	.byte		        19*seq_012_mvl/mxv
	.byte	W02
	.byte		        18*seq_012_mvl/mxv
	.byte	W03
	.byte		        15*seq_012_mvl/mxv
	.byte	W02
	.byte		        13*seq_012_mvl/mxv
	.byte	W02
	.byte		        12*seq_012_mvl/mxv
	.byte	W02
	.byte		        10*seq_012_mvl/mxv
	.byte	W05
	.byte		EOT
	.byte	GOTO
	 .word	seq_012_6 + 0x12
	.byte	FINE

@*********************** Track 08 ***********************@

seq_012_7:
	.byte	KEYSH , seq_012_key+0
	.byte	W09
	.byte		MODT  , mod_pan
	.byte	W01
	.byte		VOICE , 95
	.byte		MOD   , 45
	.byte		VOL   , 86*seq_012_mvl/mxv
	.byte	W01
	.byte		PAN   , c_v+20
	.byte	W24
	.byte	W01
	.byte	W96
	.byte	W96
	.byte	W96
	.byte	W96
	.byte	W96
	.byte	W96
	.byte	W96
	.byte	W92
	.byte	W01
	.byte		VOL   , 60*seq_012_mvl/mxv
	.byte	W03
	.byte		TIE   , Cn2 , v100
	.byte	W96
	.byte	W96
	.byte		EOT
	.byte		N48   , Dn2 , v100
	.byte	W48
	.byte		N96   , Gn2 
	.byte	W48
	.byte	PEND
	.byte	W48
	.byte		N48   , Dn2 
	.byte	W48
	.byte		TIE   , Cn2 
	.byte	W96
	.byte	W96
	.byte		EOT
	.byte		N48   , Dn2 , v100
	.byte	W48
	.byte		TIE   , Gn2 
	.byte	W48
	.byte	PEND
	.byte	W96
	.byte		EOT
	.byte		TIE   , Fn2 
	.byte	W96
	.byte	W96
	.byte		EOT
	.byte	PATT
	 .word	seq_012_7 + 0x23
	.byte	W48
	.byte		N48   , Dn2 , v100
	.byte	W48
	.byte		TIE   , Fn2 
	.byte	W96
	.byte	W96
	.byte		EOT
	.byte	PATT
	 .word	seq_012_7 + 0x34
	.byte	W96
	.byte		EOT   , Gn2 
	.byte		TIE   , En2 , v100
	.byte	W09
	.byte		VOL   , 43*seq_012_mvl/mxv
	.byte	W14
	.byte		        41*seq_012_mvl/mxv
	.byte	W18
	.byte		        39*seq_012_mvl/mxv
	.byte	W20
	.byte		        38*seq_012_mvl/mxv
	.byte	W17
	.byte		        36*seq_012_mvl/mxv
	.byte	W16
	.byte		        34*seq_012_mvl/mxv
	.byte	W02
	.byte	W05
	.byte		        32*seq_012_mvl/mxv
	.byte	W06
	.byte		        31*seq_012_mvl/mxv
	.byte	W07
	.byte		        29*seq_012_mvl/mxv
	.byte	W07
	.byte		        27*seq_012_mvl/mxv
	.byte	W06
	.byte		        25*seq_012_mvl/mxv
	.byte	W05
	.byte		        24*seq_012_mvl/mxv
	.byte	W09
	.byte		        22*seq_012_mvl/mxv
	.byte	W04
	.byte		        20*seq_012_mvl/mxv
	.byte	W04
	.byte		        19*seq_012_mvl/mxv
	.byte	W03
	.byte		        17*seq_012_mvl/mxv
	.byte	W02
	.byte		        15*seq_012_mvl/mxv
	.byte	W02
	.byte		        13*seq_012_mvl/mxv
	.byte	W02
	.byte		        12*seq_012_mvl/mxv
	.byte	W03
	.byte		        9*seq_012_mvl/mxv
	.byte	W30
	.byte	W01
	.byte		EOT
	.byte	GOTO
	 .word	seq_012_7 + 0x13
	.byte	FINE

@*********************** Track 09 ***********************@

seq_012_8:
	.byte	KEYSH , seq_012_key+0
	.byte	W11
	.byte		VOICE , 46
	.byte		VOL   , 110*seq_012_mvl/mxv
	.byte	W01
	.byte		PAN   , c_v+0
	.byte	W12
	.byte		N06   , Cn2 , v112
	.byte	W12
	.byte		N09   , Fn2 , v127
	.byte	W12
	.byte		N07   , Bn2 , v116
	.byte	W12
	.byte		        Cn3 , v096
	.byte	W12
	.byte		N12   , Gn3 , v116
	.byte	W48
	.byte		N07   , Cn2 , v127
	.byte	W12
	.byte	PEND
	.byte		N09   , Fn2 , v127
	.byte	W12
	.byte		N07   , Bn2 , v116
	.byte	W12
	.byte		        Cn3 , v096
	.byte	W12
	.byte		N12   , Gn3 , v116
	.byte	W48
	.byte		N07   , Dn2 , v127
	.byte	W12
	.byte	PEND
	.byte		N09   , En2 , v127
	.byte	W12
	.byte		N07   , An2 , v116
	.byte	W12
	.byte		        Bn2 , v096
	.byte	W12
	.byte		N12   , En3 , v116
	.byte	W48
	.byte		N07   , Dn2 , v127
	.byte	W12
	.byte	PEND
	.byte		N09   , En2 , v127
	.byte	W12
	.byte		N07   , An2 , v116
	.byte	W12
	.byte		        Bn2 , v096
	.byte	W12
	.byte		N12   , En3 , v116
	.byte	W48
	.byte		N07   , Cn2 , v127
	.byte	W12
	.byte	PEND
	.byte	PATT
	 .word	seq_012_8 + 0xF
	.byte	PATT
	 .word	seq_012_8 + 0x23
	.byte	PATT
	 .word	seq_012_8 + 0x37
	.byte	PATT
	 .word	seq_012_8 + 0x4B
	.byte	W96
	.byte	W96
	.byte	W96
	.byte	W96
	.byte	W96
	.byte	W96
	.byte	W96
	.byte	W96
	.byte		N07   , Fn2 , v127
	.byte	W12
	.byte		        Bn2 , v116
	.byte	W12
	.byte		        Cn3 , v096
	.byte	W12
	.byte		N12   , Gn3 , v116
	.byte	W48
	.byte		        Cn2 , v127
	.byte	W12
	.byte	PEND
	.byte		N07   , Fn2 , v127
	.byte	W12
	.byte		        Bn2 , v116
	.byte	W12
	.byte		        Cn3 , v096
	.byte	W12
	.byte		N12   , Gn3 , v116
	.byte	W48
	.byte		        Dn2 , v127
	.byte	W12
	.byte	PEND
	.byte		N07   , En2 , v127
	.byte	W12
	.byte		        An2 , v116
	.byte	W12
	.byte		        Bn2 , v096
	.byte	W12
	.byte		N12   , En3 , v116
	.byte	W48
	.byte		        Dn2 , v127
	.byte	W12
	.byte	PEND
	.byte		N07   , En2 , v127
	.byte	W12
	.byte		        An2 , v116
	.byte	W12
	.byte		        Bn2 , v096
	.byte	W12
	.byte		N12   , En3 , v116
	.byte	W48
	.byte		        Cn2 , v127
	.byte	W12
	.byte	PEND
	.byte	PATT
	 .word	seq_012_8 + 0x7B
	.byte	PATT
	 .word	seq_012_8 + 0x8D
	.byte	PATT
	 .word	seq_012_8 + 0x9F
	.byte	PATT
	 .word	seq_012_8 + 0xB1
	.byte		N09   , Fn2 , v112
	.byte	W12
	.byte		N07   , Bn2 , v100
	.byte	W12
	.byte		        Cn3 , v080
	.byte	W12
	.byte		N12   , Gn3 , v100
	.byte	W48
	.byte		N07   , Cn2 , v112
	.byte	W12
	.byte		N09   , Fn2 
	.byte	W12
	.byte		N07   , Bn2 , v100
	.byte	W12
	.byte		        Cn3 , v080
	.byte	W12
	.byte		N12   , Gn3 , v100
	.byte	W48
	.byte		N07   , Dn2 , v112
	.byte	W12
	.byte	GOTO
	 .word	seq_012_8 + 0x37
	.byte	FINE

@*********************** Track 10 ***********************@

seq_012_9:
	.byte	KEYSH , seq_012_key+0
	.byte	W12
	.byte		VOICE , 32
	.byte	W01
	.byte		VOL   , 110*seq_012_mvl/mxv
	.byte		PAN   , c_v+0
	.byte	W23
	.byte	W96
	.byte	W96
	.byte	W96
	.byte	W96
	.byte	W96
	.byte	W96
	.byte	W96
	.byte	W54
	.byte		VOICE , 32
	.byte	W01
	.byte		VOL   , 110*seq_012_mvl/mxv
	.byte	W01
	.byte		PAN   , c_v+0
	.byte	W40
	.byte		TIE   , Fn2 , v127
	.byte	W96
	.byte	W92
	.byte	W03
	.byte		EOT
	.byte	W01
	.byte		TIE   , En2 
	.byte	W96
	.byte	W92
	.byte	W03
	.byte		EOT
	.byte	W01
	.byte		TIE   , Fn2 
	.byte	W96
	.byte	W92
	.byte	W03
	.byte		EOT
	.byte	W01
	.byte		TIE   , En2 
	.byte	W96
	.byte	W92
	.byte	W03
	.byte		EOT
	.byte	W01
	.byte		TIE   , Fn2 
	.byte	W96
	.byte	W92
	.byte	W03
	.byte		EOT
	.byte	W01
	.byte		TIE   , En2 
	.byte	W96
	.byte	W92
	.byte	W03
	.byte		EOT
	.byte	W01
	.byte		TIE   , Fn2 
	.byte	W96
	.byte	W92
	.byte	W03
	.byte		EOT
	.byte	W01
	.byte		TIE   , En2 
	.byte	W96
	.byte	W92
	.byte	W03
	.byte		EOT
	.byte	W01
	.byte		TIE   , Fn2 
	.byte	W06
	.byte		VOL   , 73*seq_012_mvl/mxv
	.byte	W14
	.byte		        71*seq_012_mvl/mxv
	.byte	W18
	.byte		        68*seq_012_mvl/mxv
	.byte	W20
	.byte		        64*seq_012_mvl/mxv
	.byte	W17
	.byte		        62*seq_012_mvl/mxv
	.byte	W16
	.byte		        59*seq_012_mvl/mxv
	.byte	W05
	.byte	W02
	.byte		        58*seq_012_mvl/mxv
	.byte	W06
	.byte		        58*seq_012_mvl/mxv
	.byte	W07
	.byte		        57*seq_012_mvl/mxv
	.byte	W07
	.byte		        53*seq_012_mvl/mxv
	.byte	W06
	.byte		        51*seq_012_mvl/mxv
	.byte	W05
	.byte		        49*seq_012_mvl/mxv
	.byte	W09
	.byte		        45*seq_012_mvl/mxv
	.byte	W04
	.byte		        43*seq_012_mvl/mxv
	.byte	W04
	.byte		        41*seq_012_mvl/mxv
	.byte	W03
	.byte		        39*seq_012_mvl/mxv
	.byte	W02
	.byte		        38*seq_012_mvl/mxv
	.byte	W02
	.byte		        38*seq_012_mvl/mxv
	.byte	W02
	.byte		        37*seq_012_mvl/mxv
	.byte	W03
	.byte		        35*seq_012_mvl/mxv
	.byte	W02
	.byte		        33*seq_012_mvl/mxv
	.byte	W02
	.byte		        31*seq_012_mvl/mxv
	.byte	W02
	.byte		        28*seq_012_mvl/mxv
	.byte	W02
	.byte		        26*seq_012_mvl/mxv
	.byte	W03
	.byte		        22*seq_012_mvl/mxv
	.byte	W02
	.byte		        20*seq_012_mvl/mxv
	.byte	W02
	.byte		        18*seq_012_mvl/mxv
	.byte	W02
	.byte		        15*seq_012_mvl/mxv
	.byte	W03
	.byte		        12*seq_012_mvl/mxv
	.byte	W02
	.byte		        9*seq_012_mvl/mxv
	.byte	W02
	.byte		        7*seq_012_mvl/mxv
	.byte	W02
	.byte		        5*seq_012_mvl/mxv
	.byte	W07
	.byte		EOT
	.byte	W01
	.byte	GOTO
	 .word	seq_012_9 + 0xD
	.byte	FINE

@*********************** Track 11 ***********************@

seq_012_10:
	.byte	KEYSH , seq_012_key+0
	.byte	W13
	.byte		VOICE , 52
	.byte	W01
	.byte		MOD   , 3
	.byte		VOL   , 51*seq_012_mvl/mxv
	.byte		LFODL , 20
	.byte	W01
	.byte		PAN   , c_v+0
	.byte	W21
	.byte	W96
	.byte	W96
	.byte	W96
	.byte	W96
	.byte	W96
	.byte	W96
	.byte	W96
	.byte	W92
	.byte	W03
	.byte		VOL   , 6*seq_012_mvl/mxv
	.byte	W01
	.byte		TIE   , Gn2 , v100
	.byte	W02
	.byte		VOL   , 15*seq_012_mvl/mxv
	.byte	W02
	.byte		        22*seq_012_mvl/mxv
	.byte	W02
	.byte		        28*seq_012_mvl/mxv
	.byte	W02
	.byte		        35*seq_012_mvl/mxv
	.byte	W02
	.byte		        42*seq_012_mvl/mxv
	.byte	W02
	.byte		        47*seq_012_mvl/mxv
	.byte	W02
	.byte		        51*seq_012_mvl/mxv
	.byte	W80
	.byte	W02
	.byte	W96
	.byte		EOT
	.byte		N48   , An2 , v100
	.byte	W48
	.byte		N96   , Dn3 
	.byte	W48
	.byte	PEND
	.byte	W48
	.byte		N48   , Bn2 
	.byte	W48
	.byte		TIE   , Gn2 
	.byte	W96
	.byte	W96
	.byte		EOT
	.byte	PATT
	 .word	seq_012_10 + 0x32
	.byte	W48
	.byte		N48   , Bn2 , v100
	.byte	W48
	.byte		TIE   , Cn3 
	.byte	W96
	.byte	W96
	.byte		EOT
	.byte	PATT
	 .word	seq_012_10 + 0x32
	.byte	W48
	.byte		N48   , Bn2 , v100
	.byte	W48
	.byte		TIE   , Cn3 
	.byte	W96
	.byte	W96
	.byte		EOT
	.byte	PATT
	 .word	seq_012_10 + 0x32
	.byte	W48
	.byte		N48   , Bn2 , v100
	.byte	W48
	.byte		TIE   , Cn3 
	.byte	W09
	.byte		VOL   , 47*seq_012_mvl/mxv
	.byte	W14
	.byte		        45*seq_012_mvl/mxv
	.byte	W18
	.byte		        43*seq_012_mvl/mxv
	.byte	W20
	.byte		        39*seq_012_mvl/mxv
	.byte	W17
	.byte		        37*seq_012_mvl/mxv
	.byte	W16
	.byte		        34*seq_012_mvl/mxv
	.byte	W02
	.byte	W05
	.byte		        33*seq_012_mvl/mxv
	.byte	W06
	.byte		        32*seq_012_mvl/mxv
	.byte	W07
	.byte		        32*seq_012_mvl/mxv
	.byte	W07
	.byte		        30*seq_012_mvl/mxv
	.byte	W06
	.byte		        29*seq_012_mvl/mxv
	.byte	W05
	.byte		        28*seq_012_mvl/mxv
	.byte	W04
	.byte		        28*seq_012_mvl/mxv
	.byte	W03
	.byte		        26*seq_012_mvl/mxv
	.byte	W02
	.byte		        25*seq_012_mvl/mxv
	.byte	W02
	.byte		        25*seq_012_mvl/mxv
	.byte	W02
	.byte		        23*seq_012_mvl/mxv
	.byte	W02
	.byte		        22*seq_012_mvl/mxv
	.byte	W02
	.byte		        21*seq_012_mvl/mxv
	.byte	W03
	.byte		        19*seq_012_mvl/mxv
	.byte	W02
	.byte		        18*seq_012_mvl/mxv
	.byte	W02
	.byte		        17*seq_012_mvl/mxv
	.byte	W02
	.byte		        15*seq_012_mvl/mxv
	.byte	W03
	.byte		        11*seq_012_mvl/mxv
	.byte	W01
	.byte		        9*seq_012_mvl/mxv
	.byte	W02
	.byte		        6*seq_012_mvl/mxv
	.byte	W02
	.byte		        3*seq_012_mvl/mxv
	.byte	W24
	.byte	W02
	.byte		EOT
	.byte	GOTO
	 .word	seq_012_10 + 0x12
	.byte	FINE

@******************************************************@

	.align	2

seq_012:
	.byte	11	@ NumTrks
	.byte	0	@ NumBlks
	.byte	seq_012_pri	@ Priority
	.byte	seq_012_rev	@ Reverb

	.word	seq_012_grp

	.word	seq_012_0
	.word	seq_012_1
	.word	seq_012_2
	.word	seq_012_3
	.word	seq_012_4
	.word	seq_012_5
	.word	seq_012_6
	.word	seq_012_7
	.word	seq_012_8
	.word	seq_012_9
	.word	seq_012_10

	.end
