@ File generated by m4a2s Song-Module
	.include "MPlayDef.s"

	.equ	seq_353_grp, bank_027
	.equ	seq_353_pri, 100
	.equ	seq_353_rev, 0
	.equ	seq_353_mvl, 127
	.equ	seq_353_key, 0

	.section .rodata
	.global	seq_353
	.align	2

@*********************** Track 01 ***********************@

seq_353_0:
	.byte	KEYSH , seq_353_key+0
	.byte	TEMPO , 150/2
	.byte		VOICE , 1
	.byte		BEND  , c_v+0
	.byte	W01
	.byte		VOL   , 58*seq_353_mvl/mxv
	.byte		PAN   , c_v+0
	.byte		BEND  , c_v+0
	.byte		N02   , Cn5 , v032
	.byte	W01
	.byte		VOL   , 70*seq_353_mvl/mxv
	.byte		BEND  , c_v+1
	.byte		N01   , Fs2 , v008
	.byte	W01
	.byte		VOL   , 75*seq_353_mvl/mxv
	.byte		BEND  , c_v+3
	.byte	W01
	.byte		VOL   , 79*seq_353_mvl/mxv
	.byte		BEND  , c_v+5
	.byte		N01   , Cn5 , v052
	.byte	W01
	.byte		VOL   , 83*seq_353_mvl/mxv
	.byte		BEND  , c_v+8
	.byte		N01   , Fs2 , v012
	.byte	W01
	.byte		VOL   , 85*seq_353_mvl/mxv
	.byte		BEND  , c_v+12
	.byte		N01   , Cn5 , v060
	.byte	W01
	.byte		VOL   , 88*seq_353_mvl/mxv
	.byte		BEND  , c_v+17
	.byte		N01   , Fs2 , v008
	.byte	W01
	.byte		VOL   , 91*seq_353_mvl/mxv
	.byte		BEND  , c_v+27
	.byte		N01   , Cn5 , v080
	.byte	W01
	.byte		VOL   , 95*seq_353_mvl/mxv
	.byte		N01   , Fs2 , v012
	.byte	W01
	.byte		VOL   , 97*seq_353_mvl/mxv
	.byte		BEND  , c_v+21
	.byte	W01
	.byte		VOL   , 99*seq_353_mvl/mxv
	.byte		BEND  , c_v+20
	.byte		N01   , Cn5 , v092
	.byte	W01
	.byte		VOL   , 101*seq_353_mvl/mxv
	.byte		BEND  , c_v+18
	.byte		N01   , Fs2 , v008
	.byte	W01
	.byte		VOL   , 102*seq_353_mvl/mxv
	.byte		BEND  , c_v+15
	.byte		N01   , Cn5 , v100
	.byte	W01
	.byte		VOL   , 104*seq_353_mvl/mxv
	.byte		BEND  , c_v+11
	.byte		N01   , Fs2 , v012
	.byte	W01
	.byte		VOL   , 106*seq_353_mvl/mxv
	.byte		BEND  , c_v+5
	.byte		N01   , Cn5 , v100
	.byte	W01
	.byte		VOL   , 107*seq_353_mvl/mxv
	.byte		BEND  , c_v-2
	.byte		N01   , Fs2 , v008
	.byte	W01
	.byte		VOL   , 109*seq_353_mvl/mxv
	.byte	W01
	.byte		        111*seq_353_mvl/mxv
	.byte		BEND  , c_v+0
	.byte		N01   , Fn2 , v012
	.byte		N01   , Cn5 , v080
	.byte	W01
	.byte		VOL   , 110*seq_353_mvl/mxv
	.byte		BEND  , c_v+2
	.byte	W01
	.byte		        c_v+5
	.byte		N01
	.byte	W01
	.byte		BEND  , c_v+10
	.byte		N01   , Fn2 , v008
	.byte	W01
	.byte		VOL   , 108*seq_353_mvl/mxv
	.byte		BEND  , c_v+17
	.byte		N01   , Cn5 , v080
	.byte	W01
	.byte		VOL   , 107*seq_353_mvl/mxv
	.byte		BEND  , c_v+24
	.byte		N01   , Fn2 , v012
	.byte	W01
	.byte		VOL   , 105*seq_353_mvl/mxv
	.byte		BEND  , c_v+28
	.byte		N01   , Cn5 , v080
	.byte	W01
	.byte		VOL   , 102*seq_353_mvl/mxv
	.byte		BEND  , c_v+25
	.byte		N01   , Fn2 , v008
	.byte	W01
	.byte		VOL   , 100*seq_353_mvl/mxv
	.byte		BEND  , c_v+25
	.byte		N01   , Cn5 , v072
	.byte	W01
	.byte		VOL   , 96*seq_353_mvl/mxv
	.byte		BEND  , c_v+23
	.byte		N01   , Fn2 , v012
	.byte	W01
	.byte		VOL   , 92*seq_353_mvl/mxv
	.byte		BEND  , c_v+20
	.byte	W01
	.byte		VOL   , 88*seq_353_mvl/mxv
	.byte		BEND  , c_v+17
	.byte		N01   , Cn5 , v072
	.byte	W01
	.byte		VOL   , 84*seq_353_mvl/mxv
	.byte		BEND  , c_v+12
	.byte		N01   , Fn2 , v008
	.byte	W01
	.byte		VOL   , 72*seq_353_mvl/mxv
	.byte		BEND  , c_v+0
	.byte		N01   , Cn5 , v072
	.byte	W01
	.byte		VOL   , 67*seq_353_mvl/mxv
	.byte		BEND  , c_v-1
	.byte		N01   , Fn2 , v012
	.byte	W01
	.byte		VOL   , 60*seq_353_mvl/mxv
	.byte		BEND  , c_v-2
	.byte		N01   , Cn5 , v040
	.byte	W01
	.byte		VOL   , 58*seq_353_mvl/mxv
	.byte		BEND  , c_v-4
	.byte		N01   , Fn2 , v008
	.byte	W01
	.byte		VOL   , 52*seq_353_mvl/mxv
	.byte		BEND  , c_v-8
	.byte	W01
	.byte		VOL   , 48*seq_353_mvl/mxv
	.byte		BEND  , c_v-14
	.byte		N01   , Cn5 , v032
	.byte	W01
	.byte		BEND  , c_v-21
	.byte		N01   , Fs2 , v020
	.byte	W01
	.byte		VOL   , 42*seq_353_mvl/mxv
	.byte		BEND  , c_v-30
	.byte		N01   , Cn5 , v012
	.byte	W01
	.byte		VOL   , 31*seq_353_mvl/mxv
	.byte		BEND  , c_v-40
	.byte	W01
	.byte		VOL   , 22*seq_353_mvl/mxv
	.byte		BEND  , c_v-61
	.byte		N01   , Fs2 , v008
	.byte	W01
	.byte		VOL   , 9*seq_353_mvl/mxv
	.byte		BEND  , c_v-60
	.byte	W01
	.byte		        c_v-53
	.byte		N02   , Cn5 , v004
	.byte	W01
	.byte		VOL   , 0*seq_353_mvl/mxv
	.byte		BEND  , c_v-33
	.byte	W01
	.byte		VOL   , 120*seq_353_mvl/mxv
	.byte		BEND  , c_v+0
	.byte	FINE

@******************************************************@

	.align	2

seq_353:
	.byte	1	@ NumTrks
	.byte	0	@ NumBlks
	.byte	seq_353_pri	@ Priority
	.byte	seq_353_rev	@ Reverb

	.word	seq_353_grp

	.word	seq_353_0

	.end
